<?xml version="1.0" encoding="UTF-8" standalone="no"?>
<!DOCTYPE svg PUBLIC "-//W3C//DTD SVG 1.1//EN"
 "http://www.w3.org/Graphics/SVG/1.1/DTD/svg11.dtd">
<!-- Generated by graphviz version 9.0.0 (20230911.1827)
 -->
<!-- Title: sourcecode/oksutils/include/oksutils/oks/access.hpp Pages: 1 -->
<svg width="272pt" height="116pt"
 viewBox="0.00 0.00 272.25 116.25" xmlns="http://www.w3.org/2000/svg" xmlns:xlink="http://www.w3.org/1999/xlink">
<g id="graph0" class="graph" transform="scale(1 1) rotate(0) translate(4 112.25)">
<title>sourcecode/oksutils/include/oksutils/oks/access.hpp</title>
<!-- Node1 -->
<g id="Node000001" class="node">
<title>Node1</title>
<g id="a_Node000001"><a xlink:title=" ">
<polygon fill="#999999" stroke="#666666" points="186.5,-108.25 81.25,-108.25 81.25,-66.5 186.5,-66.5 186.5,-108.25"/>
<text text-anchor="start" x="89.25" y="-94.75" font-family="Helvetica,sans-Serif" font-size="10.00">sourcecode/oksutils</text>
<text text-anchor="start" x="89.25" y="-83.5" font-family="Helvetica,sans-Serif" font-size="10.00">/include/oksutils/oks</text>
<text text-anchor="middle" x="133.88" y="-72.25" font-family="Helvetica,sans-Serif" font-size="10.00">/access.hpp</text>
</a>
</g>
</g>
<!-- Node2 -->
<g id="Node000002" class="node">
<title>Node2</title>
<g id="a_Node000002"><a xlink:href="OksConfiguration_8cpp.html" target="_top" xlink:title=" ">
<polygon fill="white" stroke="#666666" points="127.75,-30.5 0,-30.5 0,0 127.75,0 127.75,-30.5"/>
<text text-anchor="start" x="8" y="-17" font-family="Helvetica,sans-Serif" font-size="10.00">sourcecode/oksconfig</text>
<text text-anchor="middle" x="63.88" y="-5.75" font-family="Helvetica,sans-Serif" font-size="10.00">/src/OksConfiguration.cpp</text>
</a>
</g>
</g>
<!-- Node1&#45;&gt;Node2 -->
<g id="edge1_Node000001_Node000002" class="edge">
<title>Node1&#45;&gt;Node2</title>
<g id="a_edge1_Node000001_Node000002"><a xlink:title=" ">
<path fill="none" stroke="#63b8ff" d="M105.63,-58.08C96.25,-48.68 86.19,-38.61 78.3,-30.7"/>
<polygon fill="#63b8ff" stroke="#63b8ff" points="103.02,-60.42 112.56,-65.02 107.97,-55.47 103.02,-60.42"/>
</a>
</g>
</g>
<!-- Node3 -->
<g id="Node000003" class="node">
<title>Node3</title>
<g id="a_Node000003"><a xlink:href="oks__access_8cpp.html" target="_top" xlink:title=" ">
<polygon fill="white" stroke="#666666" points="264.25,-30.5 145.5,-30.5 145.5,0 264.25,0 264.25,-30.5"/>
<text text-anchor="start" x="153.5" y="-17" font-family="Helvetica,sans-Serif" font-size="10.00">sourcecode/oksutils</text>
<text text-anchor="middle" x="204.88" y="-5.75" font-family="Helvetica,sans-Serif" font-size="10.00">/src/lib/oks_access.cpp</text>
</a>
</g>
</g>
<!-- Node1&#45;&gt;Node3 -->
<g id="edge2_Node000001_Node000003" class="edge">
<title>Node1&#45;&gt;Node3</title>
<g id="a_edge2_Node000001_Node000003"><a xlink:title=" ">
<path fill="none" stroke="#63b8ff" d="M162.53,-58.08C172.04,-48.68 182.24,-38.61 190.24,-30.7"/>
<polygon fill="#63b8ff" stroke="#63b8ff" points="160.14,-55.51 155.49,-65.03 165.06,-60.49 160.14,-55.51"/>
</a>
</g>
</g>
</g>
</svg>
