<?xml version="1.0" encoding="UTF-8" standalone="no"?>
<!DOCTYPE svg PUBLIC "-//W3C//DTD SVG 1.1//EN"
 "http://www.w3.org/Graphics/SVG/1.1/DTD/svg11.dtd">
<!-- Generated by graphviz version 9.0.0 (20230911.1827)
 -->
<!-- Title: sourcecode/trigger/include/trigger/AlgorithmPlugins.hpp Pages: 1 -->
<svg width="248pt" height="116pt"
 viewBox="0.00 0.00 247.50 116.25" xmlns="http://www.w3.org/2000/svg" xmlns:xlink="http://www.w3.org/1999/xlink">
<g id="graph0" class="graph" transform="scale(1 1) rotate(0) translate(4 112.25)">
<title>sourcecode/trigger/include/trigger/AlgorithmPlugins.hpp</title>
<!-- Node1 -->
<g id="Node000001" class="node">
<title>Node1</title>
<g id="a_Node000001"><a xlink:title=" ">
<polygon fill="#999999" stroke="#666666" points="181.25,-108.25 57.25,-108.25 57.25,-66.5 181.25,-66.5 181.25,-108.25"/>
<text text-anchor="start" x="65.25" y="-94.75" font-family="Helvetica,sans-Serif" font-size="10.00">sourcecode/trigger</text>
<text text-anchor="start" x="65.25" y="-83.5" font-family="Helvetica,sans-Serif" font-size="10.00">/include/trigger/Algorithm</text>
<text text-anchor="middle" x="119.25" y="-72.25" font-family="Helvetica,sans-Serif" font-size="10.00">Plugins.hpp</text>
</a>
</g>
</g>
<!-- Node2 -->
<g id="Node000002" class="node">
<title>Node2</title>
<g id="a_Node000002"><a xlink:href="TAProcessor_8cpp.html" target="_top" xlink:title=" ">
<polygon fill="white" stroke="#666666" points="110.5,-30.5 0,-30.5 0,0 110.5,0 110.5,-30.5"/>
<text text-anchor="start" x="8" y="-17" font-family="Helvetica,sans-Serif" font-size="10.00">sourcecode/trigger</text>
<text text-anchor="middle" x="55.25" y="-5.75" font-family="Helvetica,sans-Serif" font-size="10.00">/src/TAProcessor.cpp</text>
</a>
</g>
</g>
<!-- Node1&#45;&gt;Node2 -->
<g id="edge1_Node000001_Node000002" class="edge">
<title>Node1&#45;&gt;Node2</title>
<g id="a_edge1_Node000001_Node000002"><a xlink:title=" ">
<path fill="none" stroke="#63b8ff" d="M93.16,-57.79C84.66,-48.48 75.58,-38.53 68.44,-30.7"/>
<polygon fill="#63b8ff" stroke="#63b8ff" points="90.39,-59.95 99.72,-64.97 95.56,-55.23 90.39,-59.95"/>
</a>
</g>
</g>
<!-- Node3 -->
<g id="Node000003" class="node">
<title>Node3</title>
<g id="a_Node000003"><a xlink:href="TPProcessor_8cpp.html" target="_top" xlink:title=" ">
<polygon fill="white" stroke="#666666" points="239.5,-30.5 129,-30.5 129,0 239.5,0 239.5,-30.5"/>
<text text-anchor="start" x="137" y="-17" font-family="Helvetica,sans-Serif" font-size="10.00">sourcecode/trigger</text>
<text text-anchor="middle" x="184.25" y="-5.75" font-family="Helvetica,sans-Serif" font-size="10.00">/src/TPProcessor.cpp</text>
</a>
</g>
</g>
<!-- Node1&#45;&gt;Node3 -->
<g id="edge2_Node000001_Node000003" class="edge">
<title>Node1&#45;&gt;Node3</title>
<g id="a_edge2_Node000001_Node000003"><a xlink:title=" ">
<path fill="none" stroke="#63b8ff" d="M145.74,-57.79C154.38,-48.48 163.6,-38.53 170.86,-30.7"/>
<polygon fill="#63b8ff" stroke="#63b8ff" points="143.31,-55.27 139.08,-64.98 148.44,-60.03 143.31,-55.27"/>
</a>
</g>
</g>
</g>
</svg>
