<?xml version="1.0" encoding="UTF-8" standalone="no"?>
<!DOCTYPE svg PUBLIC "-//W3C//DTD SVG 1.1//EN"
 "http://www.w3.org/Graphics/SVG/1.1/DTD/svg11.dtd">
<!-- Generated by graphviz version 9.0.0 (20230911.1827)
 -->
<!-- Title: sourcecode/appdal/include/appdal/appdalIssues.hpp Pages: 1 -->
<svg width="1405pt" height="172pt"
 viewBox="0.00 0.00 1404.62 171.50" xmlns="http://www.w3.org/2000/svg" xmlns:xlink="http://www.w3.org/1999/xlink">
<g id="graph0" class="graph" transform="scale(1 1) rotate(0) translate(4 167.5)">
<title>sourcecode/appdal/include/appdal/appdalIssues.hpp</title>
<!-- Node1 -->
<g id="Node000001" class="node">
<title>Node1</title>
<g id="a_Node000001"><a xlink:title=" ">
<polygon fill="#999999" stroke="#666666" points="768.88,-163.5 637.38,-163.5 637.38,-133 768.88,-133 768.88,-163.5"/>
<text text-anchor="start" x="645.38" y="-150" font-family="Helvetica,sans-Serif" font-size="10.00">sourcecode/appdal/include</text>
<text text-anchor="middle" x="703.12" y="-138.75" font-family="Helvetica,sans-Serif" font-size="10.00">/appdal/appdalIssues.hpp</text>
</a>
</g>
</g>
<!-- Node2 -->
<g id="Node000002" class="node">
<title>Node2</title>
<g id="a_Node000002"><a xlink:href="DFApplication_8cpp.html" target="_top" xlink:title=" ">
<polygon fill="white" stroke="#666666" points="114.25,-30.5 0,-30.5 0,0 114.25,0 114.25,-30.5"/>
<text text-anchor="start" x="8" y="-17" font-family="Helvetica,sans-Serif" font-size="10.00">sourcecode/appdal/src</text>
<text text-anchor="middle" x="57.12" y="-5.75" font-family="Helvetica,sans-Serif" font-size="10.00">/DFApplication.cpp</text>
</a>
</g>
</g>
<!-- Node1&#45;&gt;Node2 -->
<g id="edge1_Node000001_Node000002" class="edge">
<title>Node1&#45;&gt;Node2</title>
<g id="a_edge1_Node000001_Node000002"><a xlink:title=" ">
<path fill="none" stroke="#63b8ff" d="M625.71,-138.3C556.51,-129.71 452.55,-115.35 363.12,-97 271.36,-78.17 166.09,-48.6 106.02,-30.95"/>
<polygon fill="#63b8ff" stroke="#63b8ff" points="625.07,-141.75 635.43,-139.5 625.93,-134.8 625.07,-141.75"/>
</a>
</g>
</g>
<!-- Node3 -->
<g id="Node000003" class="node">
<title>Node3</title>
<g id="a_Node000003"><a xlink:href="DFOApplication_8cpp.html" target="_top" xlink:title=" ">
<polygon fill="white" stroke="#666666" points="246.25,-30.5 132,-30.5 132,0 246.25,0 246.25,-30.5"/>
<text text-anchor="start" x="140" y="-17" font-family="Helvetica,sans-Serif" font-size="10.00">sourcecode/appdal/src</text>
<text text-anchor="middle" x="189.12" y="-5.75" font-family="Helvetica,sans-Serif" font-size="10.00">/DFOApplication.cpp</text>
</a>
</g>
</g>
<!-- Node1&#45;&gt;Node3 -->
<g id="edge2_Node000001_Node000003" class="edge">
<title>Node1&#45;&gt;Node3</title>
<g id="a_edge2_Node000001_Node000003"><a xlink:title=" ">
<path fill="none" stroke="#63b8ff" d="M625.86,-131.05C582.33,-121.66 527.05,-109.29 478.12,-97 393.62,-75.77 296.18,-47.82 238.77,-30.98"/>
<polygon fill="#63b8ff" stroke="#63b8ff" points="624.95,-134.43 635.47,-133.11 626.42,-127.59 624.95,-134.43"/>
</a>
</g>
</g>
<!-- Node4 -->
<g id="Node000004" class="node">
<title>Node4</title>
<g id="a_Node000004"><a xlink:href="FakeDataApplication_8cpp.html" target="_top" xlink:title=" ">
<polygon fill="white" stroke="#666666" points="391.62,-30.5 264.62,-30.5 264.62,0 391.62,0 391.62,-30.5"/>
<text text-anchor="start" x="272.62" y="-17" font-family="Helvetica,sans-Serif" font-size="10.00">sourcecode/appdal/src</text>
<text text-anchor="middle" x="328.12" y="-5.75" font-family="Helvetica,sans-Serif" font-size="10.00">/FakeDataApplication.cpp</text>
</a>
</g>
</g>
<!-- Node1&#45;&gt;Node4 -->
<g id="edge3_Node000001_Node000004" class="edge">
<title>Node1&#45;&gt;Node4</title>
<g id="a_edge3_Node000001_Node000004"><a xlink:title=" ">
<path fill="none" stroke="#63b8ff" d="M650.58,-128.89C575.45,-102.65 438.85,-54.93 370.07,-30.9"/>
<polygon fill="#63b8ff" stroke="#63b8ff" points="649.18,-132.11 659.77,-132.1 651.48,-125.5 649.18,-132.11"/>
</a>
</g>
</g>
<!-- Node5 -->
<g id="Node000005" class="node">
<title>Node5</title>
<g id="a_Node000005"><a xlink:href="FakeHSIApplication_8cpp.html" target="_top" xlink:title=" ">
<polygon fill="white" stroke="#666666" points="534.12,-30.5 410.12,-30.5 410.12,0 534.12,0 534.12,-30.5"/>
<text text-anchor="start" x="418.12" y="-17" font-family="Helvetica,sans-Serif" font-size="10.00">sourcecode/appdal/src</text>
<text text-anchor="middle" x="472.12" y="-5.75" font-family="Helvetica,sans-Serif" font-size="10.00">/FakeHSIApplication.cpp</text>
</a>
</g>
</g>
<!-- Node1&#45;&gt;Node5 -->
<g id="edge4_Node000001_Node000005" class="edge">
<title>Node1&#45;&gt;Node5</title>
<g id="a_edge4_Node000001_Node000005"><a xlink:title=" ">
<path fill="none" stroke="#63b8ff" d="M667.79,-127.21C620.92,-100.63 539.29,-54.34 497.84,-30.83"/>
<polygon fill="#63b8ff" stroke="#63b8ff" points="665.78,-130.1 676.2,-131.98 669.23,-124.01 665.78,-130.1"/>
</a>
</g>
</g>
<!-- Node6 -->
<g id="Node000006" class="node">
<title>Node6</title>
<g id="a_Node000006"><a xlink:href="HSIEventToTCApplication_8cpp.html" target="_top" xlink:title=" ">
<polygon fill="white" stroke="#666666" points="703.62,-30.5 552.62,-30.5 552.62,0 703.62,0 703.62,-30.5"/>
<text text-anchor="start" x="560.62" y="-17" font-family="Helvetica,sans-Serif" font-size="10.00">sourcecode/appdal/src</text>
<text text-anchor="middle" x="628.12" y="-5.75" font-family="Helvetica,sans-Serif" font-size="10.00">/HSIEventToTCApplication.cpp</text>
</a>
</g>
</g>
<!-- Node1&#45;&gt;Node6 -->
<g id="edge5_Node000001_Node000006" class="edge">
<title>Node1&#45;&gt;Node6</title>
<g id="a_edge5_Node000001_Node000006"><a xlink:title=" ">
<path fill="none" stroke="#63b8ff" d="M664.89,-126.2C654.2,-118.43 643.71,-108.63 637.12,-97 625.37,-76.26 625.21,-47.71 626.46,-30.7"/>
<polygon fill="#63b8ff" stroke="#63b8ff" points="662.74,-128.97 672.99,-131.66 666.65,-123.17 662.74,-128.97"/>
</a>
</g>
</g>
<!-- Node7 -->
<g id="Node000007" class="node">
<title>Node7</title>
<g id="a_Node000007"><a xlink:href="MLTApplication_8cpp.html" target="_top" xlink:title=" ">
<polygon fill="white" stroke="#666666" points="836.25,-30.5 722,-30.5 722,0 836.25,0 836.25,-30.5"/>
<text text-anchor="start" x="730" y="-17" font-family="Helvetica,sans-Serif" font-size="10.00">sourcecode/appdal/src</text>
<text text-anchor="middle" x="779.12" y="-5.75" font-family="Helvetica,sans-Serif" font-size="10.00">/MLTApplication.cpp</text>
</a>
</g>
</g>
<!-- Node1&#45;&gt;Node7 -->
<g id="edge6_Node000001_Node000007" class="edge">
<title>Node1&#45;&gt;Node7</title>
<g id="a_edge6_Node000001_Node000007"><a xlink:title=" ">
<path fill="none" stroke="#63b8ff" d="M741,-126.35C751.78,-118.54 762.41,-108.69 769.12,-97 781.02,-76.3 781.57,-47.74 780.57,-30.72"/>
<polygon fill="#63b8ff" stroke="#63b8ff" points="739.19,-123.35 732.84,-131.83 743.09,-129.16 739.19,-123.35"/>
</a>
</g>
</g>
<!-- Node8 -->
<g id="Node000008" class="node">
<title>Node8</title>
<g id="a_Node000008"><a xlink:href="ModuleFactory_8hpp.html" target="_top" xlink:title=" ">
<polygon fill="white" stroke="#666666" points="760.25,-97 646,-97 646,-66.5 760.25,-66.5 760.25,-97"/>
<text text-anchor="start" x="654" y="-83.5" font-family="Helvetica,sans-Serif" font-size="10.00">sourcecode/appdal/src</text>
<text text-anchor="middle" x="703.12" y="-72.25" font-family="Helvetica,sans-Serif" font-size="10.00">/ModuleFactory.hpp</text>
</a>
</g>
</g>
<!-- Node1&#45;&gt;Node8 -->
<g id="edge7_Node000001_Node000008" class="edge">
<title>Node1&#45;&gt;Node8</title>
<g id="a_edge7_Node000001_Node000008"><a xlink:title=" ">
<path fill="none" stroke="#63b8ff" d="M703.12,-121.31C703.12,-113.14 703.12,-104.41 703.12,-97.33"/>
<polygon fill="#63b8ff" stroke="#63b8ff" points="699.63,-121.1 703.13,-131.1 706.63,-121.1 699.63,-121.1"/>
</a>
</g>
</g>
<!-- Node9 -->
<g id="Node000009" class="node">
<title>Node9</title>
<g id="a_Node000009"><a xlink:href="ReadoutApplication_8cpp.html" target="_top" xlink:title=" ">
<polygon fill="white" stroke="#666666" points="975.62,-30.5 854.62,-30.5 854.62,0 975.62,0 975.62,-30.5"/>
<text text-anchor="start" x="862.62" y="-17" font-family="Helvetica,sans-Serif" font-size="10.00">sourcecode/appdal/src</text>
<text text-anchor="middle" x="915.12" y="-5.75" font-family="Helvetica,sans-Serif" font-size="10.00">/ReadoutApplication.cpp</text>
</a>
</g>
</g>
<!-- Node1&#45;&gt;Node9 -->
<g id="edge18_Node000001_Node000009" class="edge">
<title>Node1&#45;&gt;Node9</title>
<g id="a_edge18_Node000001_Node000009"><a xlink:title=" ">
<path fill="none" stroke="#63b8ff" d="M738.2,-126.86C753.59,-117.83 771.82,-107 788.12,-97 825.1,-74.33 867.52,-47.1 892.78,-30.77"/>
<polygon fill="#63b8ff" stroke="#63b8ff" points="736.71,-123.67 729.85,-131.75 740.25,-129.71 736.71,-123.67"/>
</a>
</g>
</g>
<!-- Node10 -->
<g id="Node000010" class="node">
<title>Node10</title>
<g id="a_Node000010"><a xlink:href="SmartDaqApplication_8cpp.html" target="_top" xlink:title=" ">
<polygon fill="white" stroke="#666666" points="1122.38,-30.5 993.88,-30.5 993.88,0 1122.38,0 1122.38,-30.5"/>
<text text-anchor="start" x="1001.88" y="-17" font-family="Helvetica,sans-Serif" font-size="10.00">sourcecode/appdal/src</text>
<text text-anchor="middle" x="1058.12" y="-5.75" font-family="Helvetica,sans-Serif" font-size="10.00">/SmartDaqApplication.cpp</text>
</a>
</g>
</g>
<!-- Node1&#45;&gt;Node10 -->
<g id="edge19_Node000001_Node000010" class="edge">
<title>Node1&#45;&gt;Node10</title>
<g id="a_edge19_Node000001_Node000010"><a xlink:title=" ">
<path fill="none" stroke="#63b8ff" d="M753.31,-128.73C824.52,-102.45 953.44,-54.88 1018.42,-30.9"/>
<polygon fill="#63b8ff" stroke="#63b8ff" points="752.4,-125.33 744.23,-132.08 754.83,-131.9 752.4,-125.33"/>
</a>
</g>
</g>
<!-- Node11 -->
<g id="Node000011" class="node">
<title>Node11</title>
<g id="a_Node000011"><a xlink:href="TPWriterApplication_8cpp.html" target="_top" xlink:title=" ">
<polygon fill="white" stroke="#666666" points="1263.75,-30.5 1140.5,-30.5 1140.5,0 1263.75,0 1263.75,-30.5"/>
<text text-anchor="start" x="1148.5" y="-17" font-family="Helvetica,sans-Serif" font-size="10.00">sourcecode/appdal/src</text>
<text text-anchor="middle" x="1202.12" y="-5.75" font-family="Helvetica,sans-Serif" font-size="10.00">/TPWriterApplication.cpp</text>
</a>
</g>
</g>
<!-- Node1&#45;&gt;Node11 -->
<g id="edge20_Node000001_Node000011" class="edge">
<title>Node1&#45;&gt;Node11</title>
<g id="a_edge20_Node000001_Node000011"><a xlink:title=" ">
<path fill="none" stroke="#63b8ff" d="M770.52,-129.63C807.34,-120 853.75,-107.86 895.12,-97 982.95,-73.96 1084.88,-47.13 1146.39,-30.93"/>
<polygon fill="#63b8ff" stroke="#63b8ff" points="769.67,-126.24 760.88,-132.15 771.44,-133.01 769.67,-126.24"/>
</a>
</g>
</g>
<!-- Node12 -->
<g id="Node000012" class="node">
<title>Node12</title>
<g id="a_Node000012"><a xlink:href="TriggerApplication_8cpp.html" target="_top" xlink:title=" ">
<polygon fill="white" stroke="#666666" points="1396.62,-30.5 1281.62,-30.5 1281.62,0 1396.62,0 1396.62,-30.5"/>
<text text-anchor="start" x="1289.62" y="-17" font-family="Helvetica,sans-Serif" font-size="10.00">sourcecode/appdal/src</text>
<text text-anchor="middle" x="1339.12" y="-5.75" font-family="Helvetica,sans-Serif" font-size="10.00">/TriggerApplication.cpp</text>
</a>
</g>
</g>
<!-- Node1&#45;&gt;Node12 -->
<g id="edge21_Node000001_Node000012" class="edge">
<title>Node1&#45;&gt;Node12</title>
<g id="a_edge21_Node000001_Node000012"><a xlink:title=" ">
<path fill="none" stroke="#63b8ff" d="M780.32,-132.84C832.32,-123.03 902.41,-109.58 964.12,-97 1101.77,-68.94 1135.8,-60.1 1273.12,-30.5 1275.76,-29.93 1278.46,-29.35 1281.18,-28.76"/>
<polygon fill="#63b8ff" stroke="#63b8ff" points="779.84,-129.37 770.66,-134.66 781.14,-136.25 779.84,-129.37"/>
</a>
</g>
</g>
<!-- Node8&#45;&gt;Node2 -->
<g id="edge8_Node000008_Node000002" class="edge">
<title>Node8&#45;&gt;Node2</title>
<g id="a_edge8_Node000008_Node000002"><a xlink:title=" ">
<path fill="none" stroke="#63b8ff" d="M634.16,-77.6C525.15,-71.98 306.58,-58.14 123.12,-30.5 120.34,-30.08 117.5,-29.62 114.64,-29.12"/>
<polygon fill="#63b8ff" stroke="#63b8ff" points="633.95,-81.09 644.12,-78.1 634.31,-74.1 633.95,-81.09"/>
</a>
</g>
</g>
<!-- Node8&#45;&gt;Node3 -->
<g id="edge9_Node000008_Node000003" class="edge">
<title>Node8&#45;&gt;Node3</title>
<g id="a_edge9_Node000008_Node000003"><a xlink:title=" ">
<path fill="none" stroke="#63b8ff" d="M634.13,-75.19C545.9,-67.58 388.55,-52.33 255.12,-30.5 252.35,-30.05 249.51,-29.55 246.65,-29.03"/>
<polygon fill="#63b8ff" stroke="#63b8ff" points="633.82,-78.68 644.08,-76.04 634.41,-71.7 633.82,-78.68"/>
</a>
</g>
</g>
<!-- Node8&#45;&gt;Node4 -->
<g id="edge10_Node000008_Node000004" class="edge">
<title>Node8&#45;&gt;Node4</title>
<g id="a_edge10_Node000008_Node000004"><a xlink:title=" ">
<path fill="none" stroke="#63b8ff" d="M634.64,-69.91C573.37,-60.08 481.14,-44.96 401.12,-30.5 398.08,-29.95 394.96,-29.38 391.81,-28.79"/>
<polygon fill="#63b8ff" stroke="#63b8ff" points="633.79,-73.32 644.21,-71.45 634.89,-66.41 633.79,-73.32"/>
</a>
</g>
</g>
<!-- Node8&#45;&gt;Node5 -->
<g id="edge11_Node000008_Node000005" class="edge">
<title>Node8&#45;&gt;Node5</title>
<g id="a_edge11_Node000008_Node000005"><a xlink:title=" ">
<path fill="none" stroke="#63b8ff" d="M639.5,-62.99C603.38,-52.9 558.71,-40.43 524.61,-30.9"/>
<polygon fill="#63b8ff" stroke="#63b8ff" points="638.39,-66.31 648.96,-65.63 640.27,-59.57 638.39,-66.31"/>
</a>
</g>
</g>
<!-- Node8&#45;&gt;Node6 -->
<g id="edge12_Node000008_Node000006" class="edge">
<title>Node8&#45;&gt;Node6</title>
<g id="a_edge12_Node000008_Node000006"><a xlink:title=" ">
<path fill="none" stroke="#63b8ff" d="M677.53,-58.74C666.82,-49.53 654.65,-39.06 645.08,-30.83"/>
<polygon fill="#63b8ff" stroke="#63b8ff" points="675.09,-61.26 684.96,-65.13 679.66,-55.95 675.09,-61.26"/>
</a>
</g>
</g>
<!-- Node8&#45;&gt;Node7 -->
<g id="edge13_Node000008_Node000007" class="edge">
<title>Node8&#45;&gt;Node7</title>
<g id="a_edge13_Node000008_Node000007"><a xlink:title=" ">
<path fill="none" stroke="#63b8ff" d="M729.06,-58.74C739.92,-49.53 752.24,-39.06 761.95,-30.83"/>
<polygon fill="#63b8ff" stroke="#63b8ff" points="726.88,-56 721.52,-65.13 731.41,-61.33 726.88,-56"/>
</a>
</g>
</g>
<!-- Node8&#45;&gt;Node9 -->
<g id="edge14_Node000008_Node000009" class="edge">
<title>Node8&#45;&gt;Node9</title>
<g id="a_edge14_Node000008_Node000009"><a xlink:title=" ">
<path fill="none" stroke="#63b8ff" d="M762.37,-62.72C795.37,-52.68 835.93,-40.34 866.96,-30.9"/>
<polygon fill="#63b8ff" stroke="#63b8ff" points="761.49,-59.33 752.94,-65.59 763.53,-66.03 761.49,-59.33"/>
</a>
</g>
</g>
<!-- Node8&#45;&gt;Node10 -->
<g id="edge15_Node000008_Node000010" class="edge">
<title>Node8&#45;&gt;Node10</title>
<g id="a_edge15_Node000008_Node000010"><a xlink:title=" ">
<path fill="none" stroke="#63b8ff" d="M771.51,-68.78C828.44,-58.76 911.61,-43.97 984.12,-30.5 987.21,-29.93 990.37,-29.34 993.56,-28.74"/>
<polygon fill="#63b8ff" stroke="#63b8ff" points="771.21,-65.28 761.97,-70.46 772.43,-72.17 771.21,-65.28"/>
</a>
</g>
</g>
<!-- Node8&#45;&gt;Node11 -->
<g id="edge16_Node000008_Node000011" class="edge">
<title>Node8&#45;&gt;Node11</title>
<g id="a_edge16_Node000008_Node000011"><a xlink:title=" ">
<path fill="none" stroke="#63b8ff" d="M771.71,-74.43C856.44,-66.22 1004.85,-50.55 1131.12,-30.5 1134.1,-30.03 1137.15,-29.52 1140.22,-28.98"/>
<polygon fill="#63b8ff" stroke="#63b8ff" points="771.57,-70.93 761.95,-75.37 772.24,-77.9 771.57,-70.93"/>
</a>
</g>
</g>
<!-- Node8&#45;&gt;Node12 -->
<g id="edge17_Node000008_Node000012" class="edge">
<title>Node8&#45;&gt;Node12</title>
<g id="a_edge17_Node000008_Node000012"><a xlink:title=" ">
<path fill="none" stroke="#63b8ff" d="M771.75,-77.47C879.16,-71.71 1093.3,-57.73 1273.12,-30.5 1275.79,-30.1 1278.51,-29.65 1281.25,-29.17"/>
<polygon fill="#63b8ff" stroke="#63b8ff" points="771.76,-73.96 761.95,-77.99 772.12,-80.95 771.76,-73.96"/>
</a>
</g>
</g>
</g>
</svg>
