<?xml version="1.0" encoding="UTF-8" standalone="no"?>
<!DOCTYPE svg PUBLIC "-//W3C//DTD SVG 1.1//EN"
 "http://www.w3.org/Graphics/SVG/1.1/DTD/svg11.dtd">
<!-- Generated by graphviz version 9.0.0 (20230911.1827)
 -->
<!-- Title: sourcecode/appfwk/include/appfwk/Issues.hpp Pages: 1 -->
<svg width="995pt" height="327pt"
 viewBox="0.00 0.00 995.25 327.00" xmlns="http://www.w3.org/2000/svg" xmlns:xlink="http://www.w3.org/1999/xlink">
<g id="graph0" class="graph" transform="scale(1 1) rotate(0) translate(4 323)">
<title>sourcecode/appfwk/include/appfwk/Issues.hpp</title>
<!-- Node1 -->
<g id="Node000001" class="node">
<title>Node1</title>
<g id="a_Node000001"><a xlink:title=" ">
<polygon fill="#999999" stroke="#666666" points="320.62,-319 186.12,-319 186.12,-288.5 320.62,-288.5 320.62,-319"/>
<text text-anchor="start" x="194.12" y="-305.5" font-family="Helvetica,sans-Serif" font-size="10.00">sourcecode/appfwk/include</text>
<text text-anchor="middle" x="253.38" y="-294.25" font-family="Helvetica,sans-Serif" font-size="10.00">/appfwk/Issues.hpp</text>
</a>
</g>
</g>
<!-- Node2 -->
<g id="Node000002" class="node">
<title>Node2</title>
<g id="a_Node000002"><a xlink:href="daq__application_8cxx.html" target="_top" xlink:title=" ">
<polygon fill="white" stroke="#666666" points="124.75,-30.5 0,-30.5 0,0 124.75,0 124.75,-30.5"/>
<text text-anchor="start" x="8" y="-17" font-family="Helvetica,sans-Serif" font-size="10.00">sourcecode/appfwk/apps</text>
<text text-anchor="middle" x="62.38" y="-5.75" font-family="Helvetica,sans-Serif" font-size="10.00">/daq_application.cxx</text>
</a>
</g>
</g>
<!-- Node1&#45;&gt;Node2 -->
<g id="edge1_Node000001_Node000002" class="edge">
<title>Node1&#45;&gt;Node2</title>
<g id="a_edge1_Node000001_Node000002"><a xlink:title=" ">
<path fill="none" stroke="#63b8ff" d="M174.35,-295.02C118.66,-287.75 51,-274.6 33.38,-252.5 -20.21,-185.3 32.42,-71.34 54.05,-30.96"/>
<polygon fill="#63b8ff" stroke="#63b8ff" points="173.81,-298.48 184.16,-296.25 174.68,-291.54 173.81,-298.48"/>
</a>
</g>
</g>
<!-- Node3 -->
<g id="Node000003" class="node">
<title>Node3</title>
<g id="a_Node000003"><a xlink:href="ConfFacility_8hpp.html" target="_top" xlink:title=" ">
<polygon fill="white" stroke="#666666" points="176.62,-246.88 42.12,-246.88 42.12,-216.38 176.62,-216.38 176.62,-246.88"/>
<text text-anchor="start" x="50.12" y="-233.38" font-family="Helvetica,sans-Serif" font-size="10.00">sourcecode/appfwk/include</text>
<text text-anchor="middle" x="109.38" y="-222.12" font-family="Helvetica,sans-Serif" font-size="10.00">/appfwk/ConfFacility.hpp</text>
</a>
</g>
</g>
<!-- Node1&#45;&gt;Node3 -->
<g id="edge2_Node000001_Node000003" class="edge">
<title>Node1&#45;&gt;Node3</title>
<g id="a_edge2_Node000001_Node000003"><a xlink:title=" ">
<path fill="none" stroke="#63b8ff" d="M212.92,-283.05C189.62,-271.7 160.83,-257.68 139.52,-247.31"/>
<polygon fill="#63b8ff" stroke="#63b8ff" points="211.3,-286.16 221.83,-287.39 214.37,-279.86 211.3,-286.16"/>
</a>
</g>
</g>
<!-- Node5 -->
<g id="Node000005" class="node">
<title>Node5</title>
<g id="a_Node000005"><a xlink:href="Application_8hxx.html" target="_top" xlink:title=" ">
<polygon fill="white" stroke="#666666" points="312,-246.88 194.75,-246.88 194.75,-216.38 312,-216.38 312,-246.88"/>
<text text-anchor="start" x="202.75" y="-233.38" font-family="Helvetica,sans-Serif" font-size="10.00">sourcecode/appfwk/src</text>
<text text-anchor="middle" x="253.38" y="-222.12" font-family="Helvetica,sans-Serif" font-size="10.00">/detail/Application.hxx</text>
</a>
</g>
</g>
<!-- Node1&#45;&gt;Node5 -->
<g id="edge5_Node000001_Node000005" class="edge">
<title>Node1&#45;&gt;Node5</title>
<g id="a_edge5_Node000001_Node000005"><a xlink:title=" ">
<path fill="none" stroke="#63b8ff" d="M253.38,-276.77C253.38,-266.76 253.38,-255.69 253.38,-247.14"/>
<polygon fill="#63b8ff" stroke="#63b8ff" points="249.88,-276.71 253.38,-286.71 256.88,-276.71 249.88,-276.71"/>
</a>
</g>
</g>
<!-- Node6 -->
<g id="Node000006" class="node">
<title>Node6</title>
<g id="a_Node000006"><a xlink:href="DAQModuleManager_8hxx.html" target="_top" xlink:title=" ">
<polygon fill="white" stroke="#666666" points="482.25,-246.88 330.5,-246.88 330.5,-216.38 482.25,-216.38 482.25,-246.88"/>
<text text-anchor="start" x="338.5" y="-233.38" font-family="Helvetica,sans-Serif" font-size="10.00">sourcecode/appfwk/src</text>
<text text-anchor="middle" x="406.38" y="-222.12" font-family="Helvetica,sans-Serif" font-size="10.00">/detail/DAQModuleManager.hxx</text>
</a>
</g>
</g>
<!-- Node1&#45;&gt;Node6 -->
<g id="edge7_Node000001_Node000006" class="edge">
<title>Node1&#45;&gt;Node6</title>
<g id="a_edge7_Node000001_Node000006"><a xlink:title=" ">
<path fill="none" stroke="#63b8ff" d="M295.7,-283.35C320.57,-271.95 351.5,-257.77 374.34,-247.31"/>
<polygon fill="#63b8ff" stroke="#63b8ff" points="294.46,-280.07 286.82,-287.42 297.37,-286.43 294.46,-280.07"/>
</a>
</g>
</g>
<!-- Node8 -->
<g id="Node000008" class="node">
<title>Node8</title>
<g id="a_Node000008"><a xlink:href="DefaultRequestHandlerModel_8hpp.html" target="_top" xlink:title=" ">
<polygon fill="white" stroke="#666666" points="694.25,-252.5 530.5,-252.5 530.5,-210.75 694.25,-210.75 694.25,-252.5"/>
<text text-anchor="start" x="538.5" y="-239" font-family="Helvetica,sans-Serif" font-size="10.00">sourcecode/readoutlibs</text>
<text text-anchor="start" x="538.5" y="-227.75" font-family="Helvetica,sans-Serif" font-size="10.00">/include/readoutlibs/models</text>
<text text-anchor="middle" x="612.38" y="-216.5" font-family="Helvetica,sans-Serif" font-size="10.00">/DefaultRequestHandlerModel.hpp</text>
</a>
</g>
</g>
<!-- Node1&#45;&gt;Node8 -->
<g id="edge10_Node000001_Node000008" class="edge">
<title>Node1&#45;&gt;Node8</title>
<g id="a_edge10_Node000001_Node000008"><a xlink:title=" ">
<path fill="none" stroke="#63b8ff" d="M331.96,-287.4C390.59,-275.95 470.51,-260.34 530.03,-248.71"/>
<polygon fill="#63b8ff" stroke="#63b8ff" points="331.53,-283.92 322.39,-289.27 332.87,-290.79 331.53,-283.92"/>
</a>
</g>
</g>
<!-- Node4 -->
<g id="Node000004" class="node">
<title>Node4</title>
<g id="a_Node000004"><a xlink:href="Application_8hpp.html" target="_top" xlink:title=" ">
<polygon fill="white" stroke="#666666" points="187,-97 69.75,-97 69.75,-66.5 187,-66.5 187,-97"/>
<text text-anchor="start" x="77.75" y="-83.5" font-family="Helvetica,sans-Serif" font-size="10.00">sourcecode/appfwk/src</text>
<text text-anchor="middle" x="128.38" y="-72.25" font-family="Helvetica,sans-Serif" font-size="10.00">/Application.hpp</text>
</a>
</g>
</g>
<!-- Node3&#45;&gt;Node4 -->
<g id="edge3_Node000003_Node000004" class="edge">
<title>Node3&#45;&gt;Node4</title>
<g id="a_edge3_Node000003_Node000004"><a xlink:title=" ">
<path fill="none" stroke="#63b8ff" d="M112.71,-204.67C116.71,-173.52 123.28,-122.39 126.49,-97.41"/>
<polygon fill="#63b8ff" stroke="#63b8ff" points="109.26,-204.04 111.46,-214.4 116.21,-204.93 109.26,-204.04"/>
</a>
</g>
</g>
<!-- Node4&#45;&gt;Node2 -->
<g id="edge4_Node000004_Node000002" class="edge">
<title>Node4&#45;&gt;Node2</title>
<g id="a_edge4_Node000004_Node000002"><a xlink:title=" ">
<path fill="none" stroke="#63b8ff" d="M105.29,-58.19C96,-49.11 85.55,-38.9 77.29,-30.83"/>
<polygon fill="#63b8ff" stroke="#63b8ff" points="102.72,-60.57 112.32,-65.06 107.61,-55.56 102.72,-60.57"/>
</a>
</g>
</g>
<!-- Node5&#45;&gt;Node4 -->
<g id="edge6_Node000005_Node000004" class="edge">
<title>Node5&#45;&gt;Node4</title>
<g id="a_edge6_Node000005_Node000004"><a xlink:title=" ">
<path fill="none" stroke="#63b8ff" d="M210.89,-210.34C195.26,-201.22 178.46,-189.22 166.38,-174.75 146.88,-151.41 136.23,-116.68 131.48,-97.25"/>
<polygon fill="#63b8ff" stroke="#63b8ff" points="209.16,-213.38 219.6,-215.18 212.56,-207.26 209.16,-213.38"/>
</a>
</g>
</g>
<!-- Node7 -->
<g id="Node000007" class="node">
<title>Node7</title>
<g id="a_Node000007"><a xlink:href="DAQModuleManager_8hpp.html" target="_top" xlink:title=" ">
<polygon fill="white" stroke="#666666" points="302.88,-169.12 175.88,-169.12 175.88,-138.62 302.88,-138.62 302.88,-169.12"/>
<text text-anchor="start" x="183.88" y="-155.62" font-family="Helvetica,sans-Serif" font-size="10.00">sourcecode/appfwk/src</text>
<text text-anchor="middle" x="239.38" y="-144.38" font-family="Helvetica,sans-Serif" font-size="10.00">/DAQModuleManager.hpp</text>
</a>
</g>
</g>
<!-- Node6&#45;&gt;Node7 -->
<g id="edge8_Node000006_Node000007" class="edge">
<title>Node6&#45;&gt;Node7</title>
<g id="a_edge8_Node000006_Node000007"><a xlink:title=" ">
<path fill="none" stroke="#63b8ff" d="M364.04,-211.42C335.37,-198.42 298.06,-181.5 271.76,-169.56"/>
<polygon fill="#63b8ff" stroke="#63b8ff" points="362.24,-214.45 372.8,-215.39 365.14,-208.08 362.24,-214.45"/>
</a>
</g>
</g>
<!-- Node7&#45;&gt;Node4 -->
<g id="edge9_Node000007_Node000004" class="edge">
<title>Node7&#45;&gt;Node4</title>
<g id="a_edge9_Node000007_Node000004"><a xlink:title=" ">
<path fill="none" stroke="#63b8ff" d="M206.72,-132.25C189.03,-121.07 167.59,-107.52 151.61,-97.43"/>
<polygon fill="#63b8ff" stroke="#63b8ff" points="204.5,-134.98 214.83,-137.37 208.24,-129.07 204.5,-134.98"/>
</a>
</g>
</g>
<!-- Node9 -->
<g id="Node000009" class="node">
<title>Node9</title>
<g id="a_Node000009"><a xlink:href="DefaultSkipListRequestHandler_8hpp.html" target="_top" xlink:title=" ">
<polygon fill="white" stroke="#666666" points="494.12,-174.75 320.62,-174.75 320.62,-133 494.12,-133 494.12,-174.75"/>
<text text-anchor="start" x="328.62" y="-161.25" font-family="Helvetica,sans-Serif" font-size="10.00">sourcecode/readoutlibs</text>
<text text-anchor="start" x="328.62" y="-150" font-family="Helvetica,sans-Serif" font-size="10.00">/include/readoutlibs/models</text>
<text text-anchor="middle" x="407.38" y="-138.75" font-family="Helvetica,sans-Serif" font-size="10.00">/DefaultSkipListRequestHandler.hpp</text>
</a>
</g>
</g>
<!-- Node8&#45;&gt;Node9 -->
<g id="edge11_Node000008_Node000009" class="edge">
<title>Node8&#45;&gt;Node9</title>
<g id="a_edge11_Node000008_Node000009"><a xlink:title=" ">
<path fill="none" stroke="#63b8ff" d="M546.84,-206.41C519.65,-196.36 488.45,-184.83 462.46,-175.23"/>
<polygon fill="#63b8ff" stroke="#63b8ff" points="545.43,-209.62 556.02,-209.8 547.85,-203.05 545.43,-209.62"/>
</a>
</g>
</g>
<!-- Node12 -->
<g id="Node000012" class="node">
<title>Node12</title>
<g id="a_Node000012"><a xlink:href="EmptyFragmentRequestHandlerModel_8hpp.html" target="_top" xlink:title=" ">
<polygon fill="white" stroke="#666666" points="713,-174.75 511.75,-174.75 511.75,-133 713,-133 713,-174.75"/>
<text text-anchor="start" x="519.75" y="-161.25" font-family="Helvetica,sans-Serif" font-size="10.00">sourcecode/readoutlibs</text>
<text text-anchor="start" x="519.75" y="-150" font-family="Helvetica,sans-Serif" font-size="10.00">/include/readoutlibs/models</text>
<text text-anchor="middle" x="612.38" y="-138.75" font-family="Helvetica,sans-Serif" font-size="10.00">/EmptyFragmentRequestHandlerModel.hpp</text>
</a>
</g>
</g>
<!-- Node8&#45;&gt;Node12 -->
<g id="edge14_Node000008_Node000012" class="edge">
<title>Node8&#45;&gt;Node12</title>
<g id="a_edge14_Node000008_Node000012"><a xlink:title=" ">
<path fill="none" stroke="#63b8ff" d="M612.38,-199C612.38,-190.96 612.38,-182.54 612.38,-175.23"/>
<polygon fill="#63b8ff" stroke="#63b8ff" points="608.88,-198.81 612.38,-208.81 615.88,-198.81 608.88,-198.81"/>
</a>
</g>
</g>
<!-- Node13 -->
<g id="Node000013" class="node">
<title>Node13</title>
<g id="a_Node000013"><a xlink:href="Readoutlibs_8cpp.html" target="_top" xlink:title=" ">
<polygon fill="white" stroke="#666666" points="799.62,-97 683.12,-97 683.12,-66.5 799.62,-66.5 799.62,-97"/>
<text text-anchor="start" x="691.12" y="-83.5" font-family="Helvetica,sans-Serif" font-size="10.00">sourcecode/readoutlibs</text>
<text text-anchor="middle" x="741.38" y="-72.25" font-family="Helvetica,sans-Serif" font-size="10.00">/src/Readoutlibs.cpp</text>
</a>
</g>
</g>
<!-- Node8&#45;&gt;Node13 -->
<g id="edge18_Node000008_Node000013" class="edge">
<title>Node8&#45;&gt;Node13</title>
<g id="a_edge18_Node000008_Node000013"><a xlink:title=" ">
<path fill="none" stroke="#63b8ff" d="M685.74,-205.04C699.64,-197.23 712.8,-187.28 722.38,-174.75 739.8,-151.94 742.24,-117.01 742.07,-97.4"/>
<polygon fill="#63b8ff" stroke="#63b8ff" points="684.12,-201.93 676.87,-209.66 687.36,-208.14 684.12,-201.93"/>
</a>
</g>
</g>
<!-- Node14 -->
<g id="Node000014" class="node">
<title>Node14</title>
<g id="a_Node000014"><a xlink:href="ZeroCopyRecordingRequestHandlerModel_8hpp.html" target="_top" xlink:title=" ">
<polygon fill="white" stroke="#666666" points="987.25,-174.75 769.5,-174.75 769.5,-133 987.25,-133 987.25,-174.75"/>
<text text-anchor="start" x="777.5" y="-161.25" font-family="Helvetica,sans-Serif" font-size="10.00">sourcecode/readoutlibs</text>
<text text-anchor="start" x="777.5" y="-150" font-family="Helvetica,sans-Serif" font-size="10.00">/include/readoutlibs/models</text>
<text text-anchor="middle" x="878.38" y="-138.75" font-family="Helvetica,sans-Serif" font-size="10.00">/ZeroCopyRecordingRequestHandlerModel.hpp</text>
</a>
</g>
</g>
<!-- Node8&#45;&gt;Node14 -->
<g id="edge16_Node000008_Node000014" class="edge">
<title>Node8&#45;&gt;Node14</title>
<g id="a_edge16_Node000008_Node000014"><a xlink:title=" ">
<path fill="none" stroke="#63b8ff" d="M694.61,-207.21C730.54,-196.98 772.28,-185.09 806.9,-175.23"/>
<polygon fill="#63b8ff" stroke="#63b8ff" points="693.77,-203.81 685.11,-209.91 695.69,-210.54 693.77,-203.81"/>
</a>
</g>
</g>
<!-- Node10 -->
<g id="Node000010" class="node">
<title>Node10</title>
<g id="a_Node000010"><a xlink:href="TPRequestHandler_8hpp.html" target="_top" xlink:title=" ">
<polygon fill="white" stroke="#666666" points="490.38,-97 324.38,-97 324.38,-66.5 490.38,-66.5 490.38,-97"/>
<text text-anchor="start" x="332.38" y="-83.5" font-family="Helvetica,sans-Serif" font-size="10.00">sourcecode/trigger</text>
<text text-anchor="middle" x="407.38" y="-72.25" font-family="Helvetica,sans-Serif" font-size="10.00">/src/trigger/TPRequestHandler.hpp</text>
</a>
</g>
</g>
<!-- Node9&#45;&gt;Node10 -->
<g id="edge12_Node000009_Node000010" class="edge">
<title>Node9&#45;&gt;Node10</title>
<g id="a_edge12_Node000009_Node000010"><a xlink:title=" ">
<path fill="none" stroke="#63b8ff" d="M407.38,-121.13C407.38,-112.77 407.38,-104.15 407.38,-97.2"/>
<polygon fill="#63b8ff" stroke="#63b8ff" points="403.88,-121.08 407.38,-131.08 410.88,-121.08 403.88,-121.08"/>
</a>
</g>
</g>
<!-- Node11 -->
<g id="Node000011" class="node">
<title>Node11</title>
<g id="a_Node000011"><a xlink:href="TPRequestHandler_8cpp.html" target="_top" xlink:title=" ">
<polygon fill="white" stroke="#666666" points="475.38,-30.5 339.38,-30.5 339.38,0 475.38,0 475.38,-30.5"/>
<text text-anchor="start" x="347.38" y="-17" font-family="Helvetica,sans-Serif" font-size="10.00">sourcecode/trigger</text>
<text text-anchor="middle" x="407.38" y="-5.75" font-family="Helvetica,sans-Serif" font-size="10.00">/src/TPRequestHandler.cpp</text>
</a>
</g>
</g>
<!-- Node10&#45;&gt;Node11 -->
<g id="edge13_Node000010_Node000011" class="edge">
<title>Node10&#45;&gt;Node11</title>
<g id="a_edge13_Node000010_Node000011"><a xlink:title=" ">
<path fill="none" stroke="#63b8ff" d="M407.38,-54.81C407.38,-46.64 407.38,-37.91 407.38,-30.83"/>
<polygon fill="#63b8ff" stroke="#63b8ff" points="403.88,-54.6 407.38,-64.6 410.88,-54.6 403.88,-54.6"/>
</a>
</g>
</g>
<!-- Node12&#45;&gt;Node13 -->
<g id="edge15_Node000012_Node000013" class="edge">
<title>Node12&#45;&gt;Node13</title>
<g id="a_edge15_Node000012_Node000013"><a xlink:title=" ">
<path fill="none" stroke="#63b8ff" d="M659.68,-127.16C678.11,-117.14 698.56,-106.03 714.39,-97.42"/>
<polygon fill="#63b8ff" stroke="#63b8ff" points="658.13,-124.02 651.02,-131.87 661.47,-130.17 658.13,-124.02"/>
</a>
</g>
</g>
<!-- Node14&#45;&gt;Node13 -->
<g id="edge17_Node000014_Node000013" class="edge">
<title>Node14&#45;&gt;Node13</title>
<g id="a_edge17_Node000014_Node000013"><a xlink:title=" ">
<path fill="none" stroke="#63b8ff" d="M828.68,-127.44C808.97,-117.35 787,-106.11 770.03,-97.42"/>
<polygon fill="#63b8ff" stroke="#63b8ff" points="826.91,-130.46 837.4,-131.9 830.09,-124.23 826.91,-130.46"/>
</a>
</g>
</g>
</g>
</svg>
