<?xml version="1.0" encoding="UTF-8" standalone="no"?>
<!DOCTYPE svg PUBLIC "-//W3C//DTD SVG 1.1//EN"
 "http://www.w3.org/Graphics/SVG/1.1/DTD/svg11.dtd">
<!-- Generated by graphviz version 9.0.0 (20230911.1827)
 -->
<!-- Title: sourcecode/readoutlibs/include/readoutlibs/utils/BufferedFileWriter.hpp Pages: 1 -->
<svg width="866pt" height="338pt"
 viewBox="0.00 0.00 866.00 338.25" xmlns="http://www.w3.org/2000/svg" xmlns:xlink="http://www.w3.org/1999/xlink">
<g id="graph0" class="graph" transform="scale(1 1) rotate(0) translate(4 334.25)">
<title>sourcecode/readoutlibs/include/readoutlibs/utils/BufferedFileWriter.hpp</title>
<!-- Node1 -->
<g id="Node000001" class="node">
<title>Node1</title>
<g id="a_Node000001"><a xlink:title=" ">
<polygon fill="#999999" stroke="#666666" points="222.75,-330.25 101.75,-330.25 101.75,-288.5 222.75,-288.5 222.75,-330.25"/>
<text text-anchor="start" x="109.75" y="-316.75" font-family="Helvetica,sans-Serif" font-size="10.00">sourcecode/readoutlibs</text>
<text text-anchor="start" x="109.75" y="-305.5" font-family="Helvetica,sans-Serif" font-size="10.00">/include/readoutlibs/utils</text>
<text text-anchor="middle" x="162.25" y="-294.25" font-family="Helvetica,sans-Serif" font-size="10.00">/BufferedFileWriter.hpp</text>
</a>
</g>
</g>
<!-- Node2 -->
<g id="Node000002" class="node">
<title>Node2</title>
<g id="a_Node000002"><a xlink:href="RecorderConcept_8hpp.html" target="_top" xlink:title=" ">
<polygon fill="white" stroke="#666666" points="233.62,-252.5 90.88,-252.5 90.88,-210.75 233.62,-210.75 233.62,-252.5"/>
<text text-anchor="start" x="98.88" y="-239" font-family="Helvetica,sans-Serif" font-size="10.00">sourcecode/readoutlibs</text>
<text text-anchor="start" x="98.88" y="-227.75" font-family="Helvetica,sans-Serif" font-size="10.00">/include/readoutlibs/concepts</text>
<text text-anchor="middle" x="162.25" y="-216.5" font-family="Helvetica,sans-Serif" font-size="10.00">/RecorderConcept.hpp</text>
</a>
</g>
</g>
<!-- Node1&#45;&gt;Node2 -->
<g id="edge1_Node000001_Node000002" class="edge">
<title>Node1&#45;&gt;Node2</title>
<g id="a_edge1_Node000001_Node000002"><a xlink:title=" ">
<path fill="none" stroke="#63b8ff" d="M162.25,-276.75C162.25,-268.71 162.25,-260.29 162.25,-252.98"/>
<polygon fill="#63b8ff" stroke="#63b8ff" points="158.75,-276.56 162.25,-286.56 165.75,-276.56 158.75,-276.56"/>
</a>
</g>
</g>
<!-- Node3 -->
<g id="Node000003" class="node">
<title>Node3</title>
<g id="a_Node000003"><a xlink:href="RecorderModel_8hpp.html" target="_top" xlink:title=" ">
<polygon fill="white" stroke="#666666" points="134.5,-174.75 0,-174.75 0,-133 134.5,-133 134.5,-174.75"/>
<text text-anchor="start" x="8" y="-161.25" font-family="Helvetica,sans-Serif" font-size="10.00">sourcecode/readoutlibs</text>
<text text-anchor="start" x="8" y="-150" font-family="Helvetica,sans-Serif" font-size="10.00">/include/readoutlibs/models</text>
<text text-anchor="middle" x="67.25" y="-138.75" font-family="Helvetica,sans-Serif" font-size="10.00">/RecorderModel.hpp</text>
</a>
</g>
</g>
<!-- Node1&#45;&gt;Node3 -->
<g id="edge14_Node000001_Node000003" class="edge">
<title>Node1&#45;&gt;Node3</title>
<g id="a_edge14_Node000001_Node000003"><a xlink:title=" ">
<path fill="none" stroke="#63b8ff" d="M111.15,-281.91C100.03,-273.89 89.45,-264.07 82.25,-252.5 67.57,-228.92 65.46,-196.09 65.89,-175.16"/>
<polygon fill="#63b8ff" stroke="#63b8ff" points="109.05,-284.72 119.31,-287.39 112.95,-278.91 109.05,-284.72"/>
</a>
</g>
</g>
<!-- Node5 -->
<g id="Node000005" class="node">
<title>Node5</title>
<g id="a_Node000005"><a xlink:href="DefaultRequestHandlerModel_8hpp.html" target="_top" xlink:title=" ">
<polygon fill="white" stroke="#666666" points="415.12,-252.5 251.38,-252.5 251.38,-210.75 415.12,-210.75 415.12,-252.5"/>
<text text-anchor="start" x="259.38" y="-239" font-family="Helvetica,sans-Serif" font-size="10.00">sourcecode/readoutlibs</text>
<text text-anchor="start" x="259.38" y="-227.75" font-family="Helvetica,sans-Serif" font-size="10.00">/include/readoutlibs/models</text>
<text text-anchor="middle" x="333.25" y="-216.5" font-family="Helvetica,sans-Serif" font-size="10.00">/DefaultRequestHandlerModel.hpp</text>
</a>
</g>
</g>
<!-- Node1&#45;&gt;Node5 -->
<g id="edge5_Node000001_Node000005" class="edge">
<title>Node1&#45;&gt;Node5</title>
<g id="a_edge5_Node000001_Node000005"><a xlink:title=" ">
<path fill="none" stroke="#63b8ff" d="M218.42,-283.49C240.75,-273.6 266.1,-262.37 287.3,-252.98"/>
<polygon fill="#63b8ff" stroke="#63b8ff" points="217.18,-280.21 209.46,-287.46 220.02,-286.61 217.18,-280.21"/>
</a>
</g>
</g>
<!-- Node2&#45;&gt;Node3 -->
<g id="edge2_Node000002_Node000003" class="edge">
<title>Node2&#45;&gt;Node3</title>
<g id="a_edge2_Node000002_Node000003"><a xlink:title=" ">
<path fill="none" stroke="#63b8ff" d="M127.81,-203.16C116.24,-193.94 103.54,-183.81 92.78,-175.23"/>
<polygon fill="#63b8ff" stroke="#63b8ff" points="125.61,-205.88 135.61,-209.38 129.97,-200.41 125.61,-205.88"/>
</a>
</g>
</g>
<!-- Node4 -->
<g id="Node000004" class="node">
<title>Node4</title>
<g id="a_Node000004"><a xlink:href="Readoutlibs_8cpp.html" target="_top" xlink:title=" ">
<polygon fill="white" stroke="#666666" points="258.5,-97 142,-97 142,-66.5 258.5,-66.5 258.5,-97"/>
<text text-anchor="start" x="150" y="-83.5" font-family="Helvetica,sans-Serif" font-size="10.00">sourcecode/readoutlibs</text>
<text text-anchor="middle" x="200.25" y="-72.25" font-family="Helvetica,sans-Serif" font-size="10.00">/src/Readoutlibs.cpp</text>
</a>
</g>
</g>
<!-- Node2&#45;&gt;Node4 -->
<g id="edge4_Node000002_Node000004" class="edge">
<title>Node2&#45;&gt;Node4</title>
<g id="a_edge4_Node000002_Node000004"><a xlink:title=" ">
<path fill="none" stroke="#63b8ff" d="M169.7,-199.28C174.32,-180.1 180.46,-155.09 186.25,-133 189.42,-120.91 193.24,-107.25 196.09,-97.23"/>
<polygon fill="#63b8ff" stroke="#63b8ff" points="166.32,-198.37 167.39,-208.91 173.12,-200.01 166.32,-198.37"/>
</a>
</g>
</g>
<!-- Node3&#45;&gt;Node4 -->
<g id="edge3_Node000003_Node000004" class="edge">
<title>Node3&#45;&gt;Node4</title>
<g id="a_edge3_Node000003_Node000004"><a xlink:title=" ">
<path fill="none" stroke="#63b8ff" d="M115.75,-127.3C134.82,-117.25 156.03,-106.07 172.43,-97.42"/>
<polygon fill="#63b8ff" stroke="#63b8ff" points="114.27,-124.13 107.06,-131.89 117.54,-130.32 114.27,-124.13"/>
</a>
</g>
</g>
<!-- Node5&#45;&gt;Node4 -->
<g id="edge13_Node000005_Node000004" class="edge">
<title>Node5&#45;&gt;Node4</title>
<g id="a_edge13_Node000005_Node000004"><a xlink:title=" ">
<path fill="none" stroke="#63b8ff" d="M256.96,-205.32C242.66,-197.51 229.12,-187.49 219.25,-174.75 201.67,-152.06 199.28,-117.09 199.5,-97.44"/>
<polygon fill="#63b8ff" stroke="#63b8ff" points="255.09,-208.3 265.59,-209.7 258.26,-202.06 255.09,-208.3"/>
</a>
</g>
</g>
<!-- Node6 -->
<g id="Node000006" class="node">
<title>Node6</title>
<g id="a_Node000006"><a xlink:href="DefaultSkipListRequestHandler_8hpp.html" target="_top" xlink:title=" ">
<polygon fill="white" stroke="#666666" points="858,-174.75 684.5,-174.75 684.5,-133 858,-133 858,-174.75"/>
<text text-anchor="start" x="692.5" y="-161.25" font-family="Helvetica,sans-Serif" font-size="10.00">sourcecode/readoutlibs</text>
<text text-anchor="start" x="692.5" y="-150" font-family="Helvetica,sans-Serif" font-size="10.00">/include/readoutlibs/models</text>
<text text-anchor="middle" x="771.25" y="-138.75" font-family="Helvetica,sans-Serif" font-size="10.00">/DefaultSkipListRequestHandler.hpp</text>
</a>
</g>
</g>
<!-- Node5&#45;&gt;Node6 -->
<g id="edge6_Node000005_Node000006" class="edge">
<title>Node5&#45;&gt;Node6</title>
<g id="a_edge6_Node000005_Node000006"><a xlink:title=" ">
<path fill="none" stroke="#63b8ff" d="M426.55,-216.47C495.41,-205.76 591.33,-190.28 675.25,-174.75 678.18,-174.21 681.16,-173.65 684.16,-173.07"/>
<polygon fill="#63b8ff" stroke="#63b8ff" points="426.15,-212.99 416.8,-217.98 427.22,-219.91 426.15,-212.99"/>
</a>
</g>
</g>
<!-- Node9 -->
<g id="Node000009" class="node">
<title>Node9</title>
<g id="a_Node000009"><a xlink:href="EmptyFragmentRequestHandlerModel_8hpp.html" target="_top" xlink:title=" ">
<polygon fill="white" stroke="#666666" points="429.88,-174.75 228.62,-174.75 228.62,-133 429.88,-133 429.88,-174.75"/>
<text text-anchor="start" x="236.62" y="-161.25" font-family="Helvetica,sans-Serif" font-size="10.00">sourcecode/readoutlibs</text>
<text text-anchor="start" x="236.62" y="-150" font-family="Helvetica,sans-Serif" font-size="10.00">/include/readoutlibs/models</text>
<text text-anchor="middle" x="329.25" y="-138.75" font-family="Helvetica,sans-Serif" font-size="10.00">/EmptyFragmentRequestHandlerModel.hpp</text>
</a>
</g>
</g>
<!-- Node5&#45;&gt;Node9 -->
<g id="edge9_Node000005_Node000009" class="edge">
<title>Node5&#45;&gt;Node9</title>
<g id="a_edge9_Node000005_Node000009"><a xlink:title=" ">
<path fill="none" stroke="#63b8ff" d="M331.58,-199C331.16,-190.96 330.71,-182.54 330.32,-175.23"/>
<polygon fill="#63b8ff" stroke="#63b8ff" points="328.08,-199.01 332.1,-208.81 335.07,-198.64 328.08,-199.01"/>
</a>
</g>
</g>
<!-- Node10 -->
<g id="Node000010" class="node">
<title>Node10</title>
<g id="a_Node000010"><a xlink:href="ZeroCopyRecordingRequestHandlerModel_8hpp.html" target="_top" xlink:title=" ">
<polygon fill="white" stroke="#666666" points="666.12,-174.75 448.38,-174.75 448.38,-133 666.12,-133 666.12,-174.75"/>
<text text-anchor="start" x="456.38" y="-161.25" font-family="Helvetica,sans-Serif" font-size="10.00">sourcecode/readoutlibs</text>
<text text-anchor="start" x="456.38" y="-150" font-family="Helvetica,sans-Serif" font-size="10.00">/include/readoutlibs/models</text>
<text text-anchor="middle" x="557.25" y="-138.75" font-family="Helvetica,sans-Serif" font-size="10.00">/ZeroCopyRecordingRequestHandlerModel.hpp</text>
</a>
</g>
</g>
<!-- Node5&#45;&gt;Node10 -->
<g id="edge11_Node000005_Node000010" class="edge">
<title>Node5&#45;&gt;Node10</title>
<g id="a_edge11_Node000005_Node000010"><a xlink:title=" ">
<path fill="none" stroke="#63b8ff" d="M404.07,-206.68C433.96,-196.57 468.41,-184.92 497.06,-175.23"/>
<polygon fill="#63b8ff" stroke="#63b8ff" points="403.06,-203.32 394.71,-209.84 405.31,-209.95 403.06,-203.32"/>
</a>
</g>
</g>
<!-- Node7 -->
<g id="Node000007" class="node">
<title>Node7</title>
<g id="a_Node000007"><a xlink:href="TPRequestHandler_8hpp.html" target="_top" xlink:title=" ">
<polygon fill="white" stroke="#666666" points="854.25,-97 688.25,-97 688.25,-66.5 854.25,-66.5 854.25,-97"/>
<text text-anchor="start" x="696.25" y="-83.5" font-family="Helvetica,sans-Serif" font-size="10.00">sourcecode/trigger</text>
<text text-anchor="middle" x="771.25" y="-72.25" font-family="Helvetica,sans-Serif" font-size="10.00">/src/trigger/TPRequestHandler.hpp</text>
</a>
</g>
</g>
<!-- Node6&#45;&gt;Node7 -->
<g id="edge7_Node000006_Node000007" class="edge">
<title>Node6&#45;&gt;Node7</title>
<g id="a_edge7_Node000006_Node000007"><a xlink:title=" ">
<path fill="none" stroke="#63b8ff" d="M771.25,-121.13C771.25,-112.77 771.25,-104.15 771.25,-97.2"/>
<polygon fill="#63b8ff" stroke="#63b8ff" points="767.75,-121.08 771.25,-131.08 774.75,-121.08 767.75,-121.08"/>
</a>
</g>
</g>
<!-- Node8 -->
<g id="Node000008" class="node">
<title>Node8</title>
<g id="a_Node000008"><a xlink:href="TPRequestHandler_8cpp.html" target="_top" xlink:title=" ">
<polygon fill="white" stroke="#666666" points="839.25,-30.5 703.25,-30.5 703.25,0 839.25,0 839.25,-30.5"/>
<text text-anchor="start" x="711.25" y="-17" font-family="Helvetica,sans-Serif" font-size="10.00">sourcecode/trigger</text>
<text text-anchor="middle" x="771.25" y="-5.75" font-family="Helvetica,sans-Serif" font-size="10.00">/src/TPRequestHandler.cpp</text>
</a>
</g>
</g>
<!-- Node7&#45;&gt;Node8 -->
<g id="edge8_Node000007_Node000008" class="edge">
<title>Node7&#45;&gt;Node8</title>
<g id="a_edge8_Node000007_Node000008"><a xlink:title=" ">
<path fill="none" stroke="#63b8ff" d="M771.25,-54.81C771.25,-46.64 771.25,-37.91 771.25,-30.83"/>
<polygon fill="#63b8ff" stroke="#63b8ff" points="767.75,-54.6 771.25,-64.6 774.75,-54.6 767.75,-54.6"/>
</a>
</g>
</g>
<!-- Node9&#45;&gt;Node4 -->
<g id="edge10_Node000009_Node000004" class="edge">
<title>Node9&#45;&gt;Node4</title>
<g id="a_edge10_Node000009_Node000004"><a xlink:title=" ">
<path fill="none" stroke="#63b8ff" d="M281.95,-127.16C263.52,-117.14 243.07,-106.03 227.24,-97.42"/>
<polygon fill="#63b8ff" stroke="#63b8ff" points="280.15,-130.17 290.61,-131.87 283.49,-124.02 280.15,-130.17"/>
</a>
</g>
</g>
<!-- Node10&#45;&gt;Node4 -->
<g id="edge12_Node000010_Node000004" class="edge">
<title>Node10&#45;&gt;Node4</title>
<g id="a_edge12_Node000010_Node000004"><a xlink:title=" ">
<path fill="none" stroke="#63b8ff" d="M443.07,-130.45C381.71,-118.39 308.63,-104.04 258.79,-94.25"/>
<polygon fill="#63b8ff" stroke="#63b8ff" points="442.02,-133.81 452.51,-132.3 443.37,-126.94 442.02,-133.81"/>
</a>
</g>
</g>
</g>
</svg>
