<?xml version="1.0" encoding="UTF-8" standalone="no"?>
<!DOCTYPE svg PUBLIC "-//W3C//DTD SVG 1.1//EN"
 "http://www.w3.org/Graphics/SVG/1.1/DTD/svg11.dtd">
<!-- Generated by graphviz version 9.0.0 (20230911.1827)
 -->
<!-- Title: sourcecode/dbe/include/dbe/BuildingBlockEditors.hpp Pages: 1 -->
<svg width="1393pt" height="160pt"
 viewBox="0.00 0.00 1393.25 160.25" xmlns="http://www.w3.org/2000/svg" xmlns:xlink="http://www.w3.org/1999/xlink">
<g id="graph0" class="graph" transform="scale(1 1) rotate(0) translate(4 156.25)">
<title>sourcecode/dbe/include/dbe/BuildingBlockEditors.hpp</title>
<!-- Node1 -->
<g id="Node000001" class="node">
<title>Node1</title>
<g id="a_Node000001"><a xlink:title=" ">
<polygon fill="#999999" stroke="#666666" points="898.5,-152.25 753.5,-152.25 753.5,-121.75 898.5,-121.75 898.5,-152.25"/>
<text text-anchor="start" x="761.5" y="-138.75" font-family="Helvetica,sans-Serif" font-size="10.00">sourcecode/dbe/include</text>
<text text-anchor="middle" x="826" y="-127.5" font-family="Helvetica,sans-Serif" font-size="10.00">/dbe/BuildingBlockEditors.hpp</text>
</a>
</g>
</g>
<!-- Node2 -->
<g id="Node000002" class="node">
<title>Node2</title>
<g id="a_Node000002"><a xlink:href="oksdbinterfaces_2include_2oksdbinterfaces_2Schema_8hpp.html" target="_top" xlink:title=" ">
<polygon fill="white" stroke="#666666" points="151,-80.12 9,-80.12 9,-60.88 151,-60.88 151,-80.12"/>
<text text-anchor="middle" x="80" y="-66.62" font-family="Helvetica,sans-Serif" font-size="10.00">oksdbinterfaces/Schema.hpp</text>
</a>
</g>
</g>
<!-- Node1&#45;&gt;Node2 -->
<g id="edge1_Node000001_Node000002" class="edge">
<title>Node1&#45;&gt;Node2</title>
<g id="a_edge1_Node000001_Node000002"><a xlink:title=" ">
<path fill="none" stroke="#63b8ff" d="M753.32,-132.92C630.65,-127.19 374.83,-112.92 160,-85.75 152.75,-84.83 145.16,-83.7 137.66,-82.49"/>
<polygon fill="#63b8ff" stroke="#63b8ff" points="138.35,-79.05 127.9,-80.84 137.18,-85.95 138.35,-79.05"/>
</a>
</g>
</g>
<!-- Node6 -->
<g id="Node000006" class="node">
<title>Node6</title>
<g id="a_Node000006"><a xlink:title=" ">
<polygon fill="#e0e0e0" stroke="#999999" points="311,-80.12 169,-80.12 169,-60.88 311,-60.88 311,-80.12"/>
<text text-anchor="middle" x="240" y="-66.62" font-family="Helvetica,sans-Serif" font-size="10.00">ui_RelationshipWidgetForm.h</text>
</a>
</g>
</g>
<!-- Node1&#45;&gt;Node6 -->
<g id="edge5_Node000001_Node000006" class="edge">
<title>Node1&#45;&gt;Node6</title>
<g id="a_edge5_Node000001_Node000006"><a xlink:title=" ">
<path fill="none" stroke="#63b8ff" d="M753.04,-130.47C654.68,-122.61 474.19,-106.82 321,-85.75 314.04,-84.79 306.76,-83.68 299.54,-82.5"/>
<polygon fill="#63b8ff" stroke="#63b8ff" points="300.24,-79.07 289.8,-80.86 299.08,-85.97 300.24,-79.07"/>
</a>
</g>
</g>
<!-- Node7 -->
<g id="Node000007" class="node">
<title>Node7</title>
<g id="a_Node000007"><a xlink:title=" ">
<polygon fill="#e0e0e0" stroke="#999999" points="450.5,-85.75 329.5,-85.75 329.5,-55.25 450.5,-55.25 450.5,-85.75"/>
<text text-anchor="start" x="337.5" y="-72.25" font-family="Helvetica,sans-Serif" font-size="10.00">ui_StringAttributeWidget</text>
<text text-anchor="middle" x="390" y="-61" font-family="Helvetica,sans-Serif" font-size="10.00">Form.h</text>
</a>
</g>
</g>
<!-- Node1&#45;&gt;Node7 -->
<g id="edge6_Node000001_Node000007" class="edge">
<title>Node1&#45;&gt;Node7</title>
<g id="a_edge6_Node000001_Node000007"><a xlink:title=" ">
<path fill="none" stroke="#63b8ff" d="M753.22,-127.41C681.67,-118.65 569.1,-104.01 461.71,-85.97"/>
<polygon fill="#63b8ff" stroke="#63b8ff" points="462.6,-82.57 452.15,-84.35 461.43,-89.47 462.6,-82.57"/>
</a>
</g>
</g>
<!-- Node8 -->
<g id="Node000008" class="node">
<title>Node8</title>
<g id="a_Node000008"><a xlink:title=" ">
<polygon fill="#e0e0e0" stroke="#999999" points="601.12,-85.75 468.88,-85.75 468.88,-55.25 601.12,-55.25 601.12,-85.75"/>
<text text-anchor="start" x="476.88" y="-72.25" font-family="Helvetica,sans-Serif" font-size="10.00">ui_NumericAttributeWidget</text>
<text text-anchor="middle" x="535" y="-61" font-family="Helvetica,sans-Serif" font-size="10.00">Form.h</text>
</a>
</g>
</g>
<!-- Node1&#45;&gt;Node8 -->
<g id="edge7_Node000001_Node000008" class="edge">
<title>Node1&#45;&gt;Node8</title>
<g id="a_edge7_Node000001_Node000008"><a xlink:title=" ">
<path fill="none" stroke="#63b8ff" d="M759.6,-121.28C715.82,-111.58 658.32,-98.83 612.46,-88.67"/>
<polygon fill="#63b8ff" stroke="#63b8ff" points="613.36,-85.28 602.84,-86.54 611.85,-92.12 613.36,-85.28"/>
</a>
</g>
</g>
<!-- Node9 -->
<g id="Node000009" class="node">
<title>Node9</title>
<g id="a_Node000009"><a xlink:title=" ">
<polygon fill="#e0e0e0" stroke="#999999" points="702.75,-80.12 619.25,-80.12 619.25,-60.88 702.75,-60.88 702.75,-80.12"/>
<text text-anchor="middle" x="661" y="-66.62" font-family="Helvetica,sans-Serif" font-size="10.00">ui_EditCombo.h</text>
</a>
</g>
</g>
<!-- Node1&#45;&gt;Node9 -->
<g id="edge8_Node000001_Node000009" class="edge">
<title>Node1&#45;&gt;Node9</title>
<g id="a_edge8_Node000001_Node000009"><a xlink:title=" ">
<path fill="none" stroke="#63b8ff" d="M788.56,-121.36C760.31,-110.32 721.9,-95.31 694.63,-84.65"/>
<polygon fill="#63b8ff" stroke="#63b8ff" points="696.05,-81.44 685.46,-81.06 693.5,-87.96 696.05,-81.44"/>
</a>
</g>
</g>
<!-- Node10 -->
<g id="Node000010" class="node">
<title>Node10</title>
<g id="a_Node000010"><a xlink:title=" ">
<polygon fill="#e0e0e0" stroke="#999999" points="774.75,-80.12 721.25,-80.12 721.25,-60.88 774.75,-60.88 774.75,-80.12"/>
<text text-anchor="middle" x="748" y="-66.62" font-family="Helvetica,sans-Serif" font-size="10.00">QWidget</text>
</a>
</g>
</g>
<!-- Node1&#45;&gt;Node10 -->
<g id="edge9_Node000001_Node000010" class="edge">
<title>Node1&#45;&gt;Node10</title>
<g id="a_edge9_Node000001_Node000010"><a xlink:title=" ">
<path fill="none" stroke="#63b8ff" d="M808.3,-121.36C796.12,-111.29 779.95,-97.92 767.42,-87.56"/>
<polygon fill="#63b8ff" stroke="#63b8ff" points="769.77,-84.96 759.84,-81.29 765.31,-90.36 769.77,-84.96"/>
</a>
</g>
</g>
<!-- Node11 -->
<g id="Node000011" class="node">
<title>Node11</title>
<g id="a_Node000011"><a xlink:title=" ">
<polygon fill="#e0e0e0" stroke="#999999" points="859.5,-80.12 792.5,-80.12 792.5,-60.88 859.5,-60.88 859.5,-80.12"/>
<text text-anchor="middle" x="826" y="-66.62" font-family="Helvetica,sans-Serif" font-size="10.00">QStatusBar</text>
</a>
</g>
</g>
<!-- Node1&#45;&gt;Node11 -->
<g id="edge10_Node000001_Node000011" class="edge">
<title>Node1&#45;&gt;Node11</title>
<g id="a_edge10_Node000001_Node000011"><a xlink:title=" ">
<path fill="none" stroke="#63b8ff" d="M826,-121.36C826,-112.58 826,-101.27 826,-91.65"/>
<polygon fill="#63b8ff" stroke="#63b8ff" points="829.5,-91.84 826,-81.84 822.5,-91.84 829.5,-91.84"/>
</a>
</g>
</g>
<!-- Node12 -->
<g id="Node000012" class="node">
<title>Node12</title>
<g id="a_Node000012"><a xlink:title=" ">
<polygon fill="#e0e0e0" stroke="#999999" points="952.25,-80.12 877.75,-80.12 877.75,-60.88 952.25,-60.88 952.25,-80.12"/>
<text text-anchor="middle" x="915" y="-66.62" font-family="Helvetica,sans-Serif" font-size="10.00">QPushButton</text>
</a>
</g>
</g>
<!-- Node1&#45;&gt;Node12 -->
<g id="edge11_Node000001_Node000012" class="edge">
<title>Node1&#45;&gt;Node12</title>
<g id="a_edge11_Node000001_Node000012"><a xlink:title=" ">
<path fill="none" stroke="#63b8ff" d="M846.2,-121.36C860.28,-111.16 879.05,-97.55 893.43,-87.13"/>
<polygon fill="#63b8ff" stroke="#63b8ff" points="895.3,-90.1 901.34,-81.4 891.19,-84.43 895.3,-90.1"/>
</a>
</g>
</g>
<!-- Node13 -->
<g id="Node000013" class="node">
<title>Node13</title>
<g id="a_Node000013"><a xlink:title=" ">
<polygon fill="#e0e0e0" stroke="#999999" points="1051.25,-80.12 970.75,-80.12 970.75,-60.88 1051.25,-60.88 1051.25,-80.12"/>
<text text-anchor="middle" x="1011" y="-66.62" font-family="Helvetica,sans-Serif" font-size="10.00">QPlainTextEdit</text>
</a>
</g>
</g>
<!-- Node1&#45;&gt;Node13 -->
<g id="edge12_Node000001_Node000013" class="edge">
<title>Node1&#45;&gt;Node13</title>
<g id="a_edge12_Node000001_Node000013"><a xlink:title=" ">
<path fill="none" stroke="#63b8ff" d="M867.98,-121.36C899.98,-110.21 943.61,-95 974.24,-84.32"/>
<polygon fill="#63b8ff" stroke="#63b8ff" points="975.17,-87.7 983.46,-81.1 972.86,-81.09 975.17,-87.7"/>
</a>
</g>
</g>
<!-- Node14 -->
<g id="Node000014" class="node">
<title>Node14</title>
<g id="a_Node000014"><a xlink:title=" ">
<polygon fill="#e0e0e0" stroke="#999999" points="1116.75,-80.12 1069.25,-80.12 1069.25,-60.88 1116.75,-60.88 1116.75,-80.12"/>
<text text-anchor="middle" x="1093" y="-66.62" font-family="Helvetica,sans-Serif" font-size="10.00">QMenu</text>
</a>
</g>
</g>
<!-- Node1&#45;&gt;Node14 -->
<g id="edge13_Node000001_Node000014" class="edge">
<title>Node1&#45;&gt;Node14</title>
<g id="a_edge13_Node000001_Node000014"><a xlink:title=" ">
<path fill="none" stroke="#63b8ff" d="M898.91,-124.15C945.57,-115.64 1007.07,-102.68 1060,-85.75 1060.99,-85.43 1061.99,-85.1 1062.99,-84.75"/>
<polygon fill="#63b8ff" stroke="#63b8ff" points="1064.24,-88.02 1072.29,-81.13 1061.7,-81.5 1064.24,-88.02"/>
</a>
</g>
</g>
<!-- Node15 -->
<g id="Node000015" class="node">
<title>Node15</title>
<g id="a_Node000015"><a xlink:title=" ">
<polygon fill="#e0e0e0" stroke="#999999" points="1185.62,-80.12 1134.38,-80.12 1134.38,-60.88 1185.62,-60.88 1185.62,-80.12"/>
<text text-anchor="middle" x="1160" y="-66.62" font-family="Helvetica,sans-Serif" font-size="10.00">QAction</text>
</a>
</g>
</g>
<!-- Node1&#45;&gt;Node15 -->
<g id="edge14_Node000001_Node000015" class="edge">
<title>Node1&#45;&gt;Node15</title>
<g id="a_edge14_Node000001_Node000015"><a xlink:title=" ">
<path fill="none" stroke="#63b8ff" d="M898.88,-128.57C960.28,-121.17 1050.03,-107.71 1126,-85.75 1127.35,-85.36 1128.72,-84.93 1130.09,-84.48"/>
<polygon fill="#63b8ff" stroke="#63b8ff" points="1130.95,-87.89 1139.08,-81.11 1128.49,-81.34 1130.95,-87.89"/>
</a>
</g>
</g>
<!-- Node16 -->
<g id="Node000016" class="node">
<title>Node16</title>
<g id="a_Node000016"><a xlink:title=" ">
<polygon fill="#e0e0e0" stroke="#999999" points="1316.75,-80.12 1203.25,-80.12 1203.25,-60.88 1316.75,-60.88 1316.75,-80.12"/>
<text text-anchor="middle" x="1260" y="-66.62" font-family="Helvetica,sans-Serif" font-size="10.00">QSortFilterProxyModel</text>
</a>
</g>
</g>
<!-- Node1&#45;&gt;Node16 -->
<g id="edge15_Node000001_Node000016" class="edge">
<title>Node1&#45;&gt;Node16</title>
<g id="a_edge15_Node000001_Node000016"><a xlink:title=" ">
<path fill="none" stroke="#63b8ff" d="M898.74,-127.85C973.35,-119.07 1092.67,-103.9 1195,-85.75 1199.87,-84.89 1204.92,-83.91 1209.97,-82.89"/>
<polygon fill="#63b8ff" stroke="#63b8ff" points="1210.36,-86.39 1219.44,-80.91 1208.93,-79.53 1210.36,-86.39"/>
</a>
</g>
</g>
<!-- Node17 -->
<g id="Node000017" class="node">
<title>Node17</title>
<g id="a_Node000017"><a xlink:title=" ">
<polygon fill="#e0e0e0" stroke="#999999" points="1385.25,-80.12 1334.75,-80.12 1334.75,-60.88 1385.25,-60.88 1385.25,-80.12"/>
<text text-anchor="middle" x="1360" y="-66.62" font-family="Helvetica,sans-Serif" font-size="10.00">memory</text>
</a>
</g>
</g>
<!-- Node1&#45;&gt;Node17 -->
<g id="edge16_Node000001_Node000017" class="edge">
<title>Node1&#45;&gt;Node17</title>
<g id="a_edge16_Node000001_Node000017"><a xlink:title=" ">
<path fill="none" stroke="#63b8ff" d="M898.78,-135.4C997.17,-133.08 1177.38,-123.46 1326,-85.75 1327.59,-85.35 1329.2,-84.88 1330.82,-84.37"/>
<polygon fill="#63b8ff" stroke="#63b8ff" points="1331.69,-87.78 1339.86,-81.04 1329.27,-81.21 1331.69,-87.78"/>
</a>
</g>
</g>
<!-- Node3 -->
<g id="Node000003" class="node">
<title>Node3</title>
<g id="a_Node000003"><a xlink:title=" ">
<polygon fill="#e0e0e0" stroke="#999999" points="40,-19.25 0,-19.25 0,0 40,0 40,-19.25"/>
<text text-anchor="middle" x="20" y="-5.75" font-family="Helvetica,sans-Serif" font-size="10.00">string</text>
</a>
</g>
</g>
<!-- Node2&#45;&gt;Node3 -->
<g id="edge2_Node000002_Node000003" class="edge">
<title>Node2&#45;&gt;Node3</title>
<g id="a_edge2_Node000002_Node000003"><a xlink:title=" ">
<path fill="none" stroke="#63b8ff" d="M70.89,-60.56C61.99,-51.83 48.22,-38.32 37.25,-27.55"/>
<polygon fill="#63b8ff" stroke="#63b8ff" points="39.87,-25.22 30.28,-20.71 34.97,-30.21 39.87,-25.22"/>
</a>
</g>
</g>
<!-- Node4 -->
<g id="Node000004" class="node">
<title>Node4</title>
<g id="a_Node000004"><a xlink:title=" ">
<polygon fill="#e0e0e0" stroke="#999999" points="101.5,-19.25 58.5,-19.25 58.5,0 101.5,0 101.5,-19.25"/>
<text text-anchor="middle" x="80" y="-5.75" font-family="Helvetica,sans-Serif" font-size="10.00">vector</text>
</a>
</g>
</g>
<!-- Node2&#45;&gt;Node4 -->
<g id="edge3_Node000002_Node000004" class="edge">
<title>Node2&#45;&gt;Node4</title>
<g id="a_edge3_Node000002_Node000004"><a xlink:title=" ">
<path fill="none" stroke="#63b8ff" d="M80,-60.56C80,-52.78 80,-41.2 80,-31.16"/>
<polygon fill="#63b8ff" stroke="#63b8ff" points="83.5,-31.16 80,-21.16 76.5,-31.16 83.5,-31.16"/>
</a>
</g>
</g>
<!-- Node5 -->
<g id="Node000005" class="node">
<title>Node5</title>
<g id="a_Node000005"><a xlink:title=" ">
<polygon fill="#e0e0e0" stroke="#999999" points="172.75,-19.25 119.25,-19.25 119.25,0 172.75,0 172.75,-19.25"/>
<text text-anchor="middle" x="146" y="-5.75" font-family="Helvetica,sans-Serif" font-size="10.00">iostream</text>
</a>
</g>
</g>
<!-- Node2&#45;&gt;Node5 -->
<g id="edge4_Node000002_Node000005" class="edge">
<title>Node2&#45;&gt;Node5</title>
<g id="a_edge4_Node000002_Node000005"><a xlink:title=" ">
<path fill="none" stroke="#63b8ff" d="M90.02,-60.56C99.91,-51.74 115.26,-38.05 127.38,-27.23"/>
<polygon fill="#63b8ff" stroke="#63b8ff" points="129.62,-29.93 134.75,-20.66 124.96,-24.7 129.62,-29.93"/>
</a>
</g>
</g>
</g>
</svg>
