<?xml version="1.0" encoding="UTF-8" standalone="no"?>
<!DOCTYPE svg PUBLIC "-//W3C//DTD SVG 1.1//EN"
 "http://www.w3.org/Graphics/SVG/1.1/DTD/svg11.dtd">
<!-- Generated by graphviz version 9.0.0 (20230911.1827)
 -->
<!-- Title: sourcecode/dbe/include/dbe/BuildingBlockEditors.hpp Pages: 1 -->
<svg width="826pt" height="238pt"
 viewBox="0.00 0.00 826.00 238.00" xmlns="http://www.w3.org/2000/svg" xmlns:xlink="http://www.w3.org/1999/xlink">
<g id="graph0" class="graph" transform="scale(1 1) rotate(0) translate(4 234)">
<title>sourcecode/dbe/include/dbe/BuildingBlockEditors.hpp</title>
<!-- Node1 -->
<g id="Node000001" class="node">
<title>Node1</title>
<g id="a_Node000001"><a xlink:title=" ">
<polygon fill="#999999" stroke="#666666" points="578,-230 433,-230 433,-199.5 578,-199.5 578,-230"/>
<text text-anchor="start" x="441" y="-216.5" font-family="Helvetica,sans-Serif" font-size="10.00">sourcecode/dbe/include</text>
<text text-anchor="middle" x="505.5" y="-205.25" font-family="Helvetica,sans-Serif" font-size="10.00">/dbe/BuildingBlockEditors.hpp</text>
</a>
</g>
</g>
<!-- Node2 -->
<g id="Node000002" class="node">
<title>Node2</title>
<g id="a_Node000002"><a xlink:href="ObjectEditor_8hpp.html" target="_top" xlink:title=" ">
<polygon fill="white" stroke="#666666" points="521.88,-163.5 403.12,-163.5 403.12,-133 521.88,-133 521.88,-163.5"/>
<text text-anchor="start" x="411.12" y="-150" font-family="Helvetica,sans-Serif" font-size="10.00">sourcecode/dbe/include</text>
<text text-anchor="middle" x="462.5" y="-138.75" font-family="Helvetica,sans-Serif" font-size="10.00">/dbe/ObjectEditor.hpp</text>
</a>
</g>
</g>
<!-- Node1&#45;&gt;Node2 -->
<g id="edge1_Node000001_Node000002" class="edge">
<title>Node1&#45;&gt;Node2</title>
<g id="a_edge1_Node000001_Node000002"><a xlink:title=" ">
<path fill="none" stroke="#63b8ff" d="M489.53,-189.79C483.71,-181.07 477.33,-171.49 472.22,-163.83"/>
<polygon fill="#63b8ff" stroke="#63b8ff" points="486.44,-191.48 494.9,-197.85 492.27,-187.59 486.44,-191.48"/>
</a>
</g>
</g>
<!-- Node5 -->
<g id="Node000005" class="node">
<title>Node5</title>
<g id="a_Node000005"><a xlink:href="MainWindow_8cpp.html" target="_top" xlink:title=" ">
<polygon fill="white" stroke="#666666" points="127,-30.5 0,-30.5 0,0 127,0 127,-30.5"/>
<text text-anchor="start" x="8" y="-17" font-family="Helvetica,sans-Serif" font-size="10.00">sourcecode/dbe/src</text>
<text text-anchor="middle" x="63.5" y="-5.75" font-family="Helvetica,sans-Serif" font-size="10.00">/internal/MainWindow.cpp</text>
</a>
</g>
</g>
<!-- Node1&#45;&gt;Node5 -->
<g id="edge13_Node000001_Node000005" class="edge">
<title>Node1&#45;&gt;Node5</title>
<g id="a_edge13_Node000001_Node000005"><a xlink:title=" ">
<path fill="none" stroke="#63b8ff" d="M448.15,-195.47C385.3,-174.65 282.17,-138.14 197.5,-97 156.21,-76.94 111.04,-48.17 85.1,-30.94"/>
<polygon fill="#63b8ff" stroke="#63b8ff" points="446.99,-198.77 457.58,-198.57 449.17,-192.12 446.99,-198.77"/>
</a>
</g>
</g>
<!-- Node9 -->
<g id="Node000009" class="node">
<title>Node9</title>
<g id="a_Node000009"><a xlink:href="BuildingBlockEditors_8cpp.html" target="_top" xlink:title=" ">
<polygon fill="white" stroke="#666666" points="818,-97 655,-97 655,-66.5 818,-66.5 818,-97"/>
<text text-anchor="start" x="663" y="-83.5" font-family="Helvetica,sans-Serif" font-size="10.00">sourcecode/dbe/src</text>
<text text-anchor="middle" x="736.5" y="-72.25" font-family="Helvetica,sans-Serif" font-size="10.00">/widgets/BuildingBlockEditors.cpp</text>
</a>
</g>
</g>
<!-- Node1&#45;&gt;Node9 -->
<g id="edge15_Node000001_Node000009" class="edge">
<title>Node1&#45;&gt;Node9</title>
<g id="a_edge15_Node000001_Node000009"><a xlink:title=" ">
<path fill="none" stroke="#63b8ff" d="M518.84,-189.43C529.92,-171.39 547.27,-147.51 568.5,-133 594.01,-115.57 625.7,-104.06 654.66,-96.52"/>
<polygon fill="#63b8ff" stroke="#63b8ff" points="515.88,-187.56 513.83,-197.96 521.92,-191.11 515.88,-187.56"/>
</a>
</g>
</g>
<!-- Node11 -->
<g id="Node000011" class="node">
<title>Node11</title>
<g id="a_Node000011"><a xlink:href="CustomDelegate_8cpp.html" target="_top" xlink:title=" ">
<polygon fill="white" stroke="#666666" points="727.62,-163.5 577.38,-163.5 577.38,-133 727.62,-133 727.62,-163.5"/>
<text text-anchor="start" x="585.38" y="-150" font-family="Helvetica,sans-Serif" font-size="10.00">sourcecode/dbe/src</text>
<text text-anchor="middle" x="652.5" y="-138.75" font-family="Helvetica,sans-Serif" font-size="10.00">/structure/CustomDelegate.cpp</text>
</a>
</g>
</g>
<!-- Node1&#45;&gt;Node11 -->
<g id="edge14_Node000001_Node000011" class="edge">
<title>Node1&#45;&gt;Node11</title>
<g id="a_edge14_Node000001_Node000011"><a xlink:title=" ">
<path fill="none" stroke="#63b8ff" d="M549.11,-194.62C571.48,-184.8 598.3,-173.03 619.02,-163.94"/>
<polygon fill="#63b8ff" stroke="#63b8ff" points="547.99,-191.28 540.24,-198.51 550.81,-197.69 547.99,-191.28"/>
</a>
</g>
</g>
<!-- Node3 -->
<g id="Node000003" class="node">
<title>Node3</title>
<g id="a_Node000003"><a xlink:href="ObjectCreator_8hpp.html" target="_top" xlink:title=" ">
<polygon fill="white" stroke="#666666" points="415.88,-97 297.12,-97 297.12,-66.5 415.88,-66.5 415.88,-97"/>
<text text-anchor="start" x="305.12" y="-83.5" font-family="Helvetica,sans-Serif" font-size="10.00">sourcecode/dbe/include</text>
<text text-anchor="middle" x="356.5" y="-72.25" font-family="Helvetica,sans-Serif" font-size="10.00">/dbe/ObjectCreator.hpp</text>
</a>
</g>
</g>
<!-- Node2&#45;&gt;Node3 -->
<g id="edge2_Node000002_Node000003" class="edge">
<title>Node2&#45;&gt;Node3</title>
<g id="a_edge2_Node000002_Node000003"><a xlink:title=" ">
<path fill="none" stroke="#63b8ff" d="M429.03,-126.89C413.26,-117.29 394.81,-106.06 380.46,-97.33"/>
<polygon fill="#63b8ff" stroke="#63b8ff" points="426.79,-129.62 437.15,-131.83 430.43,-123.64 426.79,-129.62"/>
</a>
</g>
</g>
<!-- Node2&#45;&gt;Node5 -->
<g id="edge8_Node000002_Node000005" class="edge">
<title>Node2&#45;&gt;Node5</title>
<g id="a_edge8_Node000002_Node000005"><a xlink:title=" ">
<path fill="none" stroke="#63b8ff" d="M397.33,-129.49C364.53,-120.28 324.25,-108.56 288.5,-97 222.36,-75.6 146.45,-47.64 101.86,-30.86"/>
<polygon fill="#63b8ff" stroke="#63b8ff" points="396.12,-132.78 406.69,-132.1 398,-126.04 396.12,-132.78"/>
</a>
</g>
</g>
<!-- Node6 -->
<g id="Node000006" class="node">
<title>Node6</title>
<g id="a_Node000006"><a xlink:href="CustomTableView_8cpp.html" target="_top" xlink:title=" ">
<polygon fill="white" stroke="#666666" points="771.38,-30.5 613.62,-30.5 613.62,0 771.38,0 771.38,-30.5"/>
<text text-anchor="start" x="621.62" y="-17" font-family="Helvetica,sans-Serif" font-size="10.00">sourcecode/dbe/src</text>
<text text-anchor="middle" x="692.5" y="-5.75" font-family="Helvetica,sans-Serif" font-size="10.00">/structure/CustomTableView.cpp</text>
</a>
</g>
</g>
<!-- Node2&#45;&gt;Node6 -->
<g id="edge9_Node000002_Node000006" class="edge">
<title>Node2&#45;&gt;Node6</title>
<g id="a_edge9_Node000002_Node000006"><a xlink:title=" ">
<path fill="none" stroke="#63b8ff" d="M468.34,-121.81C473.75,-103.84 483.59,-80.55 500.5,-66.5 517.99,-51.96 568.49,-39.06 613.31,-29.97"/>
<polygon fill="#63b8ff" stroke="#63b8ff" points="465.02,-120.66 465.79,-131.23 471.78,-122.49 465.02,-120.66"/>
</a>
</g>
</g>
<!-- Node7 -->
<g id="Node000007" class="node">
<title>Node7</title>
<g id="a_Node000007"><a xlink:href="CustomTreeView_8cpp.html" target="_top" xlink:title=" ">
<polygon fill="white" stroke="#666666" points="595.12,-30.5 441.88,-30.5 441.88,0 595.12,0 595.12,-30.5"/>
<text text-anchor="start" x="449.88" y="-17" font-family="Helvetica,sans-Serif" font-size="10.00">sourcecode/dbe/src</text>
<text text-anchor="middle" x="518.5" y="-5.75" font-family="Helvetica,sans-Serif" font-size="10.00">/structure/CustomTreeView.cpp</text>
</a>
</g>
</g>
<!-- Node2&#45;&gt;Node7 -->
<g id="edge10_Node000002_Node000007" class="edge">
<title>Node2&#45;&gt;Node7</title>
<g id="a_edge10_Node000002_Node000007"><a xlink:title=" ">
<path fill="none" stroke="#63b8ff" d="M459.51,-121.34C458.7,-104.91 459.71,-83.61 467.5,-66.5 473.99,-52.25 486.45,-39.85 497.42,-30.94"/>
<polygon fill="#63b8ff" stroke="#63b8ff" points="456.02,-121.59 460.28,-131.29 463,-121.05 456.02,-121.59"/>
</a>
</g>
</g>
<!-- Node2&#45;&gt;Node9 -->
<g id="edge11_Node000002_Node000009" class="edge">
<title>Node2&#45;&gt;Node9</title>
<g id="a_edge11_Node000002_Node000009"><a xlink:title=" ">
<path fill="none" stroke="#63b8ff" d="M533.37,-130.57C576.88,-120.32 632.1,-107.33 673.98,-97.47"/>
<polygon fill="#63b8ff" stroke="#63b8ff" points="532.7,-127.13 523.77,-132.83 534.3,-133.94 532.7,-127.13"/>
</a>
</g>
</g>
<!-- Node10 -->
<g id="Node000010" class="node">
<title>Node10</title>
<g id="a_Node000010"><a xlink:href="ObjectEditor_8cpp.html" target="_top" xlink:title=" ">
<polygon fill="white" stroke="#666666" points="637,-97 510,-97 510,-66.5 637,-66.5 637,-97"/>
<text text-anchor="start" x="518" y="-83.5" font-family="Helvetica,sans-Serif" font-size="10.00">sourcecode/dbe/src</text>
<text text-anchor="middle" x="573.5" y="-72.25" font-family="Helvetica,sans-Serif" font-size="10.00">/widgets/ObjectEditor.cpp</text>
</a>
</g>
</g>
<!-- Node2&#45;&gt;Node10 -->
<g id="edge12_Node000002_Node000010" class="edge">
<title>Node2&#45;&gt;Node10</title>
<g id="a_edge12_Node000002_Node000010"><a xlink:title=" ">
<path fill="none" stroke="#63b8ff" d="M497.54,-126.89C514.06,-117.29 533.39,-106.06 548.41,-97.33"/>
<polygon fill="#63b8ff" stroke="#63b8ff" points="495.88,-123.8 489,-131.85 499.4,-129.86 495.88,-123.8"/>
</a>
</g>
</g>
<!-- Node4 -->
<g id="Node000004" class="node">
<title>Node4</title>
<g id="a_Node000004"><a xlink:href="GraphView_8cpp.html" target="_top" xlink:title=" ">
<polygon fill="white" stroke="#666666" points="272,-30.5 145,-30.5 145,0 272,0 272,-30.5"/>
<text text-anchor="start" x="153" y="-17" font-family="Helvetica,sans-Serif" font-size="10.00">sourcecode/dbe/src</text>
<text text-anchor="middle" x="208.5" y="-5.75" font-family="Helvetica,sans-Serif" font-size="10.00">/graphical/GraphView.cpp</text>
</a>
</g>
</g>
<!-- Node3&#45;&gt;Node4 -->
<g id="edge3_Node000003_Node000004" class="edge">
<title>Node3&#45;&gt;Node4</title>
<g id="a_edge3_Node000003_Node000004"><a xlink:title=" ">
<path fill="none" stroke="#63b8ff" d="M312.6,-61.62C290.07,-51.8 263.07,-40.03 242.21,-30.94"/>
<polygon fill="#63b8ff" stroke="#63b8ff" points="310.96,-64.72 321.53,-65.51 313.76,-58.31 310.96,-64.72"/>
</a>
</g>
</g>
<!-- Node3&#45;&gt;Node5 -->
<g id="edge4_Node000003_Node000005" class="edge">
<title>Node3&#45;&gt;Node5</title>
<g id="a_edge4_Node000003_Node000005"><a xlink:title=" ">
<path fill="none" stroke="#63b8ff" d="M285.86,-65.2C237.59,-54.57 174.14,-40.61 127.38,-30.31"/>
<polygon fill="#63b8ff" stroke="#63b8ff" points="284.86,-68.56 295.38,-67.29 286.36,-61.73 284.86,-68.56"/>
</a>
</g>
</g>
<!-- Node3&#45;&gt;Node6 -->
<g id="edge5_Node000003_Node000006" class="edge">
<title>Node3&#45;&gt;Node6</title>
<g id="a_edge5_Node000003_Node000006"><a xlink:title=" ">
<path fill="none" stroke="#63b8ff" d="M427.29,-67.16C482.57,-56.55 559.26,-41.83 615.96,-30.94"/>
<polygon fill="#63b8ff" stroke="#63b8ff" points="426.83,-63.69 417.67,-69.01 428.15,-70.56 426.83,-63.69"/>
</a>
</g>
</g>
<!-- Node3&#45;&gt;Node7 -->
<g id="edge6_Node000003_Node000007" class="edge">
<title>Node3&#45;&gt;Node7</title>
<g id="a_edge6_Node000003_Node000007"><a xlink:title=" ">
<path fill="none" stroke="#63b8ff" d="M403.89,-61.88C428.68,-52.01 458.57,-40.11 481.61,-30.94"/>
<polygon fill="#63b8ff" stroke="#63b8ff" points="402.66,-58.6 394.67,-65.55 405.25,-65.11 402.66,-58.6"/>
</a>
</g>
</g>
<!-- Node8 -->
<g id="Node000008" class="node">
<title>Node8</title>
<g id="a_Node000008"><a xlink:href="ObjectCreator_8cpp.html" target="_top" xlink:title=" ">
<polygon fill="white" stroke="#666666" points="423.38,-30.5 289.62,-30.5 289.62,0 423.38,0 423.38,-30.5"/>
<text text-anchor="start" x="297.62" y="-17" font-family="Helvetica,sans-Serif" font-size="10.00">sourcecode/dbe/src</text>
<text text-anchor="middle" x="356.5" y="-5.75" font-family="Helvetica,sans-Serif" font-size="10.00">/widgets/ObjectCreator.cpp</text>
</a>
</g>
</g>
<!-- Node3&#45;&gt;Node8 -->
<g id="edge7_Node000003_Node000008" class="edge">
<title>Node3&#45;&gt;Node8</title>
<g id="a_edge7_Node000003_Node000008"><a xlink:title=" ">
<path fill="none" stroke="#63b8ff" d="M356.5,-54.81C356.5,-46.64 356.5,-37.91 356.5,-30.83"/>
<polygon fill="#63b8ff" stroke="#63b8ff" points="353,-54.6 356.5,-64.6 360,-54.6 353,-54.6"/>
</a>
</g>
</g>
</g>
</svg>
