<?xml version="1.0" encoding="UTF-8" standalone="no"?>
<!DOCTYPE svg PUBLIC "-//W3C//DTD SVG 1.1//EN"
 "http://www.w3.org/Graphics/SVG/1.1/DTD/svg11.dtd">
<!-- Generated by graphviz version 9.0.0 (20230911.1827)
 -->
<!-- Title: dunedaq::oksconfig::OksConfigObject Pages: 1 -->
<svg width="1942pt" height="456pt"
 viewBox="0.00 0.00 1941.75 456.38" xmlns="http://www.w3.org/2000/svg" xmlns:xlink="http://www.w3.org/1999/xlink">
<g id="graph0" class="graph" transform="scale(1 1) rotate(0) translate(4 452.38)">
<title>dunedaq::oksconfig::OksConfigObject</title>
<!-- Node1 -->
<g id="Node000001" class="node">
<title>Node1</title>
<g id="a_Node000001"><a xlink:title=" ">
<polygon fill="#999999" stroke="#666666" points="1108.88,-269.12 1010.38,-269.12 1010.38,-238.62 1108.88,-238.62 1108.88,-269.12"/>
<text text-anchor="start" x="1018.38" y="-255.62" font-family="Helvetica,sans-Serif" font-size="10.00">dunedaq::oksconfig</text>
<text text-anchor="middle" x="1059.62" y="-244.38" font-family="Helvetica,sans-Serif" font-size="10.00">::OksConfigObject</text>
</a>
</g>
</g>
<!-- Node2 -->
<g id="Node000002" class="node">
<title>Node2</title>
<g id="a_Node000002"><a xlink:href="classdunedaq_1_1oksdbinterfaces_1_1ConfigObjectImpl.html" target="_top" xlink:title="Implements database objects.">
<polygon fill="white" stroke="#666666" points="851.75,-271.12 725.5,-271.12 725.5,-240.62 851.75,-240.62 851.75,-271.12"/>
<text text-anchor="start" x="733.5" y="-257.62" font-family="Helvetica,sans-Serif" font-size="10.00">dunedaq::oksdbinterfaces</text>
<text text-anchor="middle" x="788.62" y="-246.38" font-family="Helvetica,sans-Serif" font-size="10.00">::ConfigObjectImpl</text>
</a>
</g>
</g>
<!-- Node2&#45;&gt;Node1 -->
<g id="edge1_Node000001_Node000002" class="edge">
<title>Node2&#45;&gt;Node1</title>
<g id="a_edge1_Node000001_Node000002"><a xlink:title=" ">
<path fill="none" stroke="#63b8ff" d="M833.6,-234.58C840.04,-230.5 846.32,-225.91 851.75,-220.88 862.32,-211.07 857.03,-200.68 869.75,-193.88 912.95,-170.75 937.7,-169.14 980,-193.88 994.09,-202.11 986.01,-214.81 998,-225.88 1003.2,-230.67 1009.36,-234.77 1015.73,-238.24"/>
<polygon fill="#63b8ff" stroke="#63b8ff" points="832.26,-231.31 825.44,-239.42 835.82,-237.34 832.26,-231.31"/>
</a>
</g>
</g>
<!-- Node3 -->
<g id="Node000003" class="node">
<title>Node3</title>
<g id="a_Node000003"><a xlink:href="classdunedaq_1_1oksdbinterfaces_1_1ConfigurationImpl.html" target="_top" xlink:title="Provides pure virtual interface used by the Configuration class.">
<polygon fill="white" stroke="#666666" points="584.5,-249.12 458.25,-249.12 458.25,-218.62 584.5,-218.62 584.5,-249.12"/>
<text text-anchor="start" x="466.25" y="-235.62" font-family="Helvetica,sans-Serif" font-size="10.00">dunedaq::oksdbinterfaces</text>
<text text-anchor="middle" x="521.38" y="-224.38" font-family="Helvetica,sans-Serif" font-size="10.00">::ConfigurationImpl</text>
</a>
</g>
</g>
<!-- Node3&#45;&gt;Node2 -->
<g id="edge2_Node000002_Node000003" class="edge">
<title>Node3&#45;&gt;Node2</title>
<g id="a_edge2_Node000002_Node000003"><a xlink:title=" ">
<path fill="none" stroke="#9a32cd" stroke-dasharray="5,2" d="M596.16,-240.81C604.12,-241.53 612.1,-242.23 619.75,-242.88 654.56,-245.83 693.45,-248.86 725.03,-251.25"/>
<polygon fill="#9a32cd" stroke="#9a32cd" points="596.74,-237.35 586.47,-239.93 596.11,-244.32 596.74,-237.35"/>
</a>
</g>
<text text-anchor="middle" x="663.62" y="-251.62" font-family="Helvetica,sans-Serif" font-size="10.00" fill="grey"> m_impl</text>
</g>
<!-- Node6 -->
<g id="Node000006" class="node">
<title>Node6</title>
<g id="a_Node000006"><a xlink:href="classdunedaq_1_1oksdbinterfaces_1_1Configuration.html" target="_top" xlink:title=" ">
<polygon fill="white" stroke="#666666" points="851.75,-212.12 725.5,-212.12 725.5,-181.62 851.75,-181.62 851.75,-212.12"/>
<text text-anchor="start" x="733.5" y="-198.62" font-family="Helvetica,sans-Serif" font-size="10.00">dunedaq::oksdbinterfaces</text>
<text text-anchor="middle" x="788.62" y="-187.38" font-family="Helvetica,sans-Serif" font-size="10.00">::Configuration</text>
</a>
</g>
</g>
<!-- Node3&#45;&gt;Node6 -->
<g id="edge14_Node000006_Node000003" class="edge">
<title>Node3&#45;&gt;Node6</title>
<g id="a_edge14_Node000006_Node000003"><a xlink:title=" ">
<path fill="none" stroke="#9a32cd" stroke-dasharray="5,2" d="M596.19,-224.16C630.11,-219.62 670.86,-214.09 707.5,-208.88 713.21,-208.06 719.15,-207.2 725.09,-206.33"/>
<polygon fill="#9a32cd" stroke="#9a32cd" points="595.91,-220.66 586.46,-225.45 596.84,-227.6 595.91,-220.66"/>
</a>
</g>
<text text-anchor="middle" x="663.62" y="-222.62" font-family="Helvetica,sans-Serif" font-size="10.00" fill="grey"> m_impl</text>
</g>
<!-- Node4 -->
<g id="Node000004" class="node">
<title>Node4</title>
<g id="a_Node000004"><a xlink:href="classdunedaq_1_1oksdbinterfaces_1_1pmap.html" target="_top" xlink:title=" ">
<polygon fill="white" stroke="#666666" points="334.5,-266.38 171.5,-266.38 171.5,-213.38 334.5,-213.38 334.5,-266.38"/>
<text text-anchor="start" x="179.5" y="-252.88" font-family="Helvetica,sans-Serif" font-size="10.00">dunedaq::oksdbinterfaces</text>
<text text-anchor="start" x="179.5" y="-241.62" font-family="Helvetica,sans-Serif" font-size="10.00">::pmap&lt; dunedaq::oksdbinterfaces</text>
<text text-anchor="start" x="179.5" y="-230.38" font-family="Helvetica,sans-Serif" font-size="10.00">::map&lt; dunedaq::oksdbinterfaces</text>
<text text-anchor="middle" x="253" y="-219.12" font-family="Helvetica,sans-Serif" font-size="10.00">::ConfigObjectImpl * &gt; * &gt;</text>
</a>
</g>
</g>
<!-- Node4&#45;&gt;Node3 -->
<g id="edge3_Node000003_Node000004" class="edge">
<title>Node4&#45;&gt;Node3</title>
<g id="a_edge3_Node000003_Node000004"><a xlink:title=" ">
<path fill="none" stroke="#9a32cd" stroke-dasharray="5,2" d="M345.93,-237.8C382.85,-236.97 424.45,-236.04 457.77,-235.29"/>
<polygon fill="#9a32cd" stroke="#9a32cd" points="346.08,-234.3 336.16,-238.02 346.23,-241.3 346.08,-234.3"/>
</a>
</g>
<text text-anchor="middle" x="387.75" y="-239.62" font-family="Helvetica,sans-Serif" font-size="10.00" fill="grey"> m_impl_objects</text>
</g>
<!-- Node5 -->
<g id="Node000005" class="node">
<title>Node5</title>
<g id="a_Node000005"><a xlink:title=" ">
<polygon fill="white" stroke="#666666" points="134.5,-277.62 0,-277.62 0,-202.12 134.5,-202.12 134.5,-277.62"/>
<text text-anchor="start" x="8" y="-264.12" font-family="Helvetica,sans-Serif" font-size="10.00">std::map&lt; const std</text>
<text text-anchor="start" x="8" y="-252.88" font-family="Helvetica,sans-Serif" font-size="10.00">::string *, dunedaq</text>
<text text-anchor="start" x="8" y="-241.62" font-family="Helvetica,sans-Serif" font-size="10.00">::oksdbinterfaces::map</text>
<text text-anchor="start" x="8" y="-230.38" font-family="Helvetica,sans-Serif" font-size="10.00">&lt; dunedaq::oksdbinterfaces</text>
<text text-anchor="start" x="8" y="-219.12" font-family="Helvetica,sans-Serif" font-size="10.00">::ConfigObjectImpl * &gt; * ,</text>
<text text-anchor="middle" x="67.25" y="-207.88" font-family="Helvetica,sans-Serif" font-size="10.00"> string_ptr_compare &gt;</text>
</a>
</g>
</g>
<!-- Node5&#45;&gt;Node4 -->
<g id="edge4_Node000004_Node000005" class="edge">
<title>Node5&#45;&gt;Node4</title>
<g id="a_edge4_Node000004_Node000005"><a xlink:title=" ">
<path fill="none" stroke="#63b8ff" d="M146.36,-239.88C154.59,-239.88 162.97,-239.88 171.23,-239.88"/>
<polygon fill="#63b8ff" stroke="#63b8ff" points="146.36,-236.38 136.36,-239.88 146.36,-243.38 146.36,-236.38"/>
</a>
</g>
</g>
<!-- Node6&#45;&gt;Node3 -->
<g id="edge5_Node000003_Node000006" class="edge">
<title>Node6&#45;&gt;Node3</title>
<g id="a_edge5_Node000003_Node000006"><a xlink:title=" ">
<path fill="none" stroke="#9a32cd" stroke-dasharray="5,2" d="M713.88,-191.64C684.39,-190.99 650.25,-192.06 619.75,-197.62 597.57,-201.67 573.83,-210.41 555.35,-218.29"/>
<polygon fill="#9a32cd" stroke="#9a32cd" points="713.74,-195.14 723.84,-191.94 713.95,-188.14 713.74,-195.14"/>
</a>
</g>
<text text-anchor="middle" x="663.62" y="-199.62" font-family="Helvetica,sans-Serif" font-size="10.00" fill="grey"> m_conf</text>
</g>
<!-- Node7 -->
<g id="Node000007" class="node">
<title>Node7</title>
<g id="a_Node000007"><a xlink:href="classdunedaq_1_1oksdbinterfaces_1_1map.html" target="_top" xlink:title=" ">
<polygon fill="white" stroke="#666666" points="600.25,-46.75 442.5,-46.75 442.5,-5 600.25,-5 600.25,-46.75"/>
<text text-anchor="start" x="450.5" y="-33.25" font-family="Helvetica,sans-Serif" font-size="10.00">dunedaq::oksdbinterfaces</text>
<text text-anchor="start" x="450.5" y="-22" font-family="Helvetica,sans-Serif" font-size="10.00">::map&lt; dunedaq::oksdbinterfaces</text>
<text text-anchor="middle" x="521.38" y="-10.75" font-family="Helvetica,sans-Serif" font-size="10.00">::class_t * &gt;</text>
</a>
</g>
</g>
<!-- Node7&#45;&gt;Node6 -->
<g id="edge6_Node000006_Node000007" class="edge">
<title>Node7&#45;&gt;Node6</title>
<g id="a_edge6_Node000006_Node000007"><a xlink:title=" ">
<path fill="none" stroke="#9a32cd" stroke-dasharray="5,2" d="M612.2,-18.82C646.32,-21.04 682.85,-30.13 707.5,-54.88 744.94,-92.46 692.28,-131.52 725.5,-172.88 728.03,-176.03 731.04,-178.77 734.33,-181.15"/>
<polygon fill="#9a32cd" stroke="#9a32cd" points="612.4,-15.33 602.26,-18.39 612.1,-22.32 612.4,-15.33"/>
</a>
</g>
<text text-anchor="start" x="619.75" y="-90.38" font-family="Helvetica,sans-Serif" font-size="10.00" fill="grey"> p_all_classes_desc</text>
<text text-anchor="middle" x="663.62" y="-79.12" font-family="Helvetica,sans-Serif" font-size="10.00" fill="grey">_cache</text>
<text text-anchor="start" x="619.75" y="-67.88" font-family="Helvetica,sans-Serif" font-size="10.00" fill="grey">p_direct_classes</text>
<text text-anchor="middle" x="663.62" y="-56.62" font-family="Helvetica,sans-Serif" font-size="10.00" fill="grey">_desc_cache</text>
</g>
<!-- Node8 -->
<g id="Node000008" class="node">
<title>Node8</title>
<g id="a_Node000008"><a xlink:title=" ">
<polygon fill="white" stroke="#666666" points="322.88,-41.75 183.12,-41.75 183.12,0 322.88,0 322.88,-41.75"/>
<text text-anchor="start" x="191.12" y="-28.25" font-family="Helvetica,sans-Serif" font-size="10.00">std::unordered_map</text>
<text text-anchor="start" x="191.12" y="-17" font-family="Helvetica,sans-Serif" font-size="10.00">&lt; std::string, dunedaq</text>
<text text-anchor="middle" x="253" y="-5.75" font-family="Helvetica,sans-Serif" font-size="10.00">::oksdbinterfaces::class_t * &gt;</text>
</a>
</g>
</g>
<!-- Node8&#45;&gt;Node7 -->
<g id="edge7_Node000007_Node000008" class="edge">
<title>Node8&#45;&gt;Node7</title>
<g id="a_edge7_Node000007_Node000008"><a xlink:title=" ">
<path fill="none" stroke="#63b8ff" d="M334.62,-22.39C368.68,-23.03 408.21,-23.77 442.02,-24.4"/>
<polygon fill="#63b8ff" stroke="#63b8ff" points="334.87,-18.89 324.8,-22.2 334.74,-25.89 334.87,-18.89"/>
</a>
</g>
</g>
<!-- Node9 -->
<g id="Node000009" class="node">
<title>Node9</title>
<g id="a_Node000009"><a xlink:href="classdunedaq_1_1oksdbinterfaces_1_1fmap.html" target="_top" xlink:title=" ">
<polygon fill="white" stroke="#666666" points="584.5,-328.75 458.25,-328.75 458.25,-287 584.5,-287 584.5,-328.75"/>
<text text-anchor="start" x="466.25" y="-315.25" font-family="Helvetica,sans-Serif" font-size="10.00">dunedaq::oksdbinterfaces</text>
<text text-anchor="start" x="466.25" y="-304" font-family="Helvetica,sans-Serif" font-size="10.00">::fmap&lt; oksdbinterfaces</text>
<text text-anchor="middle" x="521.38" y="-292.75" font-family="Helvetica,sans-Serif" font-size="10.00">::fset &gt;</text>
</a>
</g>
</g>
<!-- Node9&#45;&gt;Node6 -->
<g id="edge8_Node000006_Node000009" class="edge">
<title>Node9&#45;&gt;Node6</title>
<g id="a_edge8_Node000006_Node000009"><a xlink:title=" ">
<path fill="none" stroke="#9a32cd" stroke-dasharray="5,2" d="M596.02,-304.76C632.63,-299.96 675.72,-289.03 707.5,-264.88 720.8,-254.77 713.77,-243.77 725.5,-231.88 733.06,-224.21 742.66,-217.71 752.04,-212.47"/>
<polygon fill="#9a32cd" stroke="#9a32cd" points="595.91,-301.25 586.39,-305.89 596.73,-308.21 595.91,-301.25"/>
</a>
</g>
<text text-anchor="middle" x="663.62" y="-312.88" font-family="Helvetica,sans-Serif" font-size="10.00" fill="grey"> p_subclasses</text>
<text text-anchor="middle" x="663.62" y="-301.62" font-family="Helvetica,sans-Serif" font-size="10.00" fill="grey">p_superclasses</text>
</g>
<!-- Node10 -->
<g id="Node000010" class="node">
<title>Node10</title>
<g id="a_Node000010"><a xlink:title=" ">
<polygon fill="white" stroke="#666666" points="310.5,-337.38 195.5,-337.38 195.5,-284.38 310.5,-284.38 310.5,-337.38"/>
<text text-anchor="start" x="203.5" y="-323.88" font-family="Helvetica,sans-Serif" font-size="10.00">std::unordered_map</text>
<text text-anchor="start" x="203.5" y="-312.62" font-family="Helvetica,sans-Serif" font-size="10.00">&lt; const std::string</text>
<text text-anchor="start" x="203.5" y="-301.38" font-family="Helvetica,sans-Serif" font-size="10.00"> *, oksdbinterfaces::</text>
<text text-anchor="middle" x="253" y="-290.12" font-family="Helvetica,sans-Serif" font-size="10.00">fset , string_ptr_hash &gt;</text>
</a>
</g>
</g>
<!-- Node10&#45;&gt;Node9 -->
<g id="edge9_Node000009_Node000010" class="edge">
<title>Node10&#45;&gt;Node9</title>
<g id="a_edge9_Node000009_Node000010"><a xlink:title=" ">
<path fill="none" stroke="#63b8ff" d="M322.31,-310.11C364.17,-309.63 417.35,-309.04 458.06,-308.58"/>
<polygon fill="#63b8ff" stroke="#63b8ff" points="322.29,-306.61 312.33,-310.22 322.37,-313.61 322.29,-306.61"/>
</a>
</g>
</g>
<!-- Node11 -->
<g id="Node000011" class="node">
<title>Node11</title>
<g id="a_Node000011"><a xlink:href="classdunedaq_1_1oksdbinterfaces_1_1map.html" target="_top" xlink:title=" ">
<polygon fill="white" stroke="#666666" points="596.5,-189.38 446.25,-189.38 446.25,-136.38 596.5,-136.38 596.5,-189.38"/>
<text text-anchor="start" x="454.25" y="-175.88" font-family="Helvetica,sans-Serif" font-size="10.00">dunedaq::oksdbinterfaces</text>
<text text-anchor="start" x="454.25" y="-164.62" font-family="Helvetica,sans-Serif" font-size="10.00">::map&lt; std::list&lt; dunedaq</text>
<text text-anchor="start" x="454.25" y="-153.38" font-family="Helvetica,sans-Serif" font-size="10.00">::oksdbinterfaces::Configuration</text>
<text text-anchor="middle" x="521.38" y="-142.12" font-family="Helvetica,sans-Serif" font-size="10.00">::AttributeConverterBase * &gt; * &gt;</text>
</a>
</g>
</g>
<!-- Node11&#45;&gt;Node6 -->
<g id="edge10_Node000006_Node000011" class="edge">
<title>Node11&#45;&gt;Node6</title>
<g id="a_edge10_Node000006_Node000011"><a xlink:title=" ">
<path fill="none" stroke="#9a32cd" stroke-dasharray="5,2" d="M608.2,-154.92C639.81,-154.16 675.66,-155.85 707.5,-163.62 716.24,-165.76 717.29,-169.19 725.5,-172.88 731.83,-175.71 738.61,-178.54 745.27,-181.21"/>
<polygon fill="#9a32cd" stroke="#9a32cd" points="608.15,-151.42 598.27,-155.26 608.39,-158.42 608.15,-151.42"/>
</a>
</g>
<text text-anchor="middle" x="663.62" y="-165.62" font-family="Helvetica,sans-Serif" font-size="10.00" fill="grey"> m_convert_map</text>
</g>
<!-- Node12 -->
<g id="Node000012" class="node">
<title>Node12</title>
<g id="a_Node000012"><a xlink:title=" ">
<polygon fill="white" stroke="#666666" points="333,-195 173,-195 173,-130.75 333,-130.75 333,-195"/>
<text text-anchor="start" x="181" y="-181.5" font-family="Helvetica,sans-Serif" font-size="10.00">std::unordered_map</text>
<text text-anchor="start" x="181" y="-170.25" font-family="Helvetica,sans-Serif" font-size="10.00">&lt; std::string, std::</text>
<text text-anchor="start" x="181" y="-159" font-family="Helvetica,sans-Serif" font-size="10.00">list&lt; dunedaq::oksdbinterfaces</text>
<text text-anchor="start" x="181" y="-147.75" font-family="Helvetica,sans-Serif" font-size="10.00">::Configuration::AttributeConverter</text>
<text text-anchor="middle" x="253" y="-136.5" font-family="Helvetica,sans-Serif" font-size="10.00">Base * &gt; * &gt;</text>
</a>
</g>
</g>
<!-- Node12&#45;&gt;Node11 -->
<g id="edge11_Node000011_Node000012" class="edge">
<title>Node12&#45;&gt;Node11</title>
<g id="a_edge11_Node000011_Node000012"><a xlink:title=" ">
<path fill="none" stroke="#63b8ff" d="M344.7,-162.88C377.71,-162.88 414.61,-162.88 446.04,-162.88"/>
<polygon fill="#63b8ff" stroke="#63b8ff" points="344.71,-159.38 334.71,-162.88 344.71,-166.38 344.71,-159.38"/>
</a>
</g>
</g>
<!-- Node13 -->
<g id="Node000013" class="node">
<title>Node13</title>
<g id="a_Node000013"><a xlink:href="classdunedaq_1_1oksdbinterfaces_1_1fmap.html" target="_top" xlink:title=" ">
<polygon fill="white" stroke="#666666" points="601.75,-114.75 441,-114.75 441,-73 601.75,-73 601.75,-114.75"/>
<text text-anchor="start" x="449" y="-101.25" font-family="Helvetica,sans-Serif" font-size="10.00">dunedaq::oksdbinterfaces</text>
<text text-anchor="start" x="449" y="-90" font-family="Helvetica,sans-Serif" font-size="10.00">::fmap&lt; dunedaq::oksdbinterfaces</text>
<text text-anchor="middle" x="521.38" y="-78.75" font-family="Helvetica,sans-Serif" font-size="10.00">::CacheBase * &gt;</text>
</a>
</g>
</g>
<!-- Node13&#45;&gt;Node6 -->
<g id="edge12_Node000006_Node000013" class="edge">
<title>Node13&#45;&gt;Node6</title>
<g id="a_edge12_Node000006_Node000013"><a xlink:title=" ">
<path fill="none" stroke="#9a32cd" stroke-dasharray="5,2" d="M613.35,-101.11C645.69,-107.41 680.68,-118.88 707.5,-139.62 720.79,-149.91 712.88,-161.77 725.5,-172.88 729.06,-176.01 733.07,-178.75 737.3,-181.15"/>
<polygon fill="#9a32cd" stroke="#9a32cd" points="614,-97.67 603.54,-99.36 612.77,-104.56 614,-97.67"/>
</a>
</g>
<text text-anchor="middle" x="663.62" y="-141.62" font-family="Helvetica,sans-Serif" font-size="10.00" fill="grey"> m_cache_map</text>
</g>
<!-- Node14 -->
<g id="Node000014" class="node">
<title>Node14</title>
<g id="a_Node000014"><a xlink:title=" ">
<polygon fill="white" stroke="#666666" points="331.5,-112.38 174.5,-112.38 174.5,-59.38 331.5,-59.38 331.5,-112.38"/>
<text text-anchor="start" x="182.5" y="-98.88" font-family="Helvetica,sans-Serif" font-size="10.00">std::unordered_map</text>
<text text-anchor="start" x="182.5" y="-87.62" font-family="Helvetica,sans-Serif" font-size="10.00">&lt; const std::string</text>
<text text-anchor="start" x="182.5" y="-76.38" font-family="Helvetica,sans-Serif" font-size="10.00"> *, dunedaq::oksdbinterfaces</text>
<text text-anchor="middle" x="253" y="-65.12" font-family="Helvetica,sans-Serif" font-size="10.00">::CacheBase *, string_ptr_hash &gt;</text>
</a>
</g>
</g>
<!-- Node14&#45;&gt;Node13 -->
<g id="edge13_Node000013_Node000014" class="edge">
<title>Node14&#45;&gt;Node13</title>
<g id="a_edge13_Node000013_Node000014"><a xlink:title=" ">
<path fill="none" stroke="#63b8ff" d="M343.2,-88.55C374.73,-89.5 409.97,-90.56 440.67,-91.48"/>
<polygon fill="#63b8ff" stroke="#63b8ff" points="343.38,-85.06 333.28,-88.26 343.17,-92.05 343.38,-85.06"/>
</a>
</g>
</g>
<!-- Node15 -->
<g id="Node000015" class="node">
<title>Node15</title>
<g id="a_Node000015"><a xlink:href="classdunedaq_1_1oks_1_1OksObject.html" target="_top" xlink:title="OksObject describes instance of OksClass.">
<polygon fill="white" stroke="#666666" points="850.62,-343.5 726.62,-343.5 726.62,-324.25 850.62,-324.25 850.62,-343.5"/>
<text text-anchor="middle" x="788.62" y="-330" font-family="Helvetica,sans-Serif" font-size="10.00">dunedaq::oks::OksObject</text>
</a>
</g>
</g>
<!-- Node15&#45;&gt;Node1 -->
<g id="edge15_Node000001_Node000015" class="edge">
<title>Node15&#45;&gt;Node1</title>
<g id="a_edge15_Node000001_Node000015"><a xlink:title=" ">
<path fill="none" stroke="#9a32cd" stroke-dasharray="5,2" d="M815.68,-318.15C830.97,-309.52 850.93,-299.26 869.75,-292.62 871.43,-292.03 954.65,-275.04 1010.06,-263.76"/>
<polygon fill="#9a32cd" stroke="#9a32cd" points="814.13,-315.01 807.22,-323.05 817.63,-321.07 814.13,-315.01"/>
</a>
</g>
<text text-anchor="middle" x="924.88" y="-293.62" font-family="Helvetica,sans-Serif" font-size="10.00" fill="grey"> m_obj</text>
</g>
<!-- Node18 -->
<g id="Node000018" class="node">
<title>Node18</title>
<g id="a_Node000018"><a xlink:href="uniondunedaq_1_1oks_1_1OksData_1_1Data.html" target="_top" xlink:title=" ">
<polygon fill="white" stroke="#666666" points="1761,-360.12 1645.25,-360.12 1645.25,-329.62 1761,-329.62 1761,-360.12"/>
<text text-anchor="start" x="1653.25" y="-346.62" font-family="Helvetica,sans-Serif" font-size="10.00">dunedaq::oks::OksData</text>
<text text-anchor="middle" x="1703.12" y="-335.38" font-family="Helvetica,sans-Serif" font-size="10.00">::Data</text>
</a>
</g>
</g>
<!-- Node15&#45;&gt;Node18 -->
<g id="edge30_Node000018_Node000015" class="edge">
<title>Node15&#45;&gt;Node18</title>
<g id="a_edge30_Node000018_Node000015"><a xlink:title=" ">
<path fill="none" stroke="#9a32cd" stroke-dasharray="5,2" d="M862.21,-340.12C916.31,-344.24 992.03,-348.88 1058.62,-348.88 1058.62,-348.88 1058.62,-348.88 1510,-348.88 1555.37,-348.88 1606.76,-347.75 1644.97,-346.69"/>
<polygon fill="#9a32cd" stroke="#9a32cd" points="862.75,-336.65 852.51,-339.37 862.21,-343.63 862.75,-336.65"/>
</a>
</g>
<text text-anchor="middle" x="1296.88" y="-350.62" font-family="Helvetica,sans-Serif" font-size="10.00" fill="grey"> OBJECT</text>
</g>
<!-- Node21 -->
<g id="Node000021" class="node">
<title>Node21</title>
<g id="a_Node000021"><a xlink:href="classdunedaq_1_1oks_1_1OksKernel.html" target="_top" xlink:title="Provides interface to the OKS kernel.">
<polygon fill="white" stroke="#666666" points="1121.25,-216.5 998,-216.5 998,-197.25 1121.25,-197.25 1121.25,-216.5"/>
<text text-anchor="middle" x="1059.62" y="-203" font-family="Helvetica,sans-Serif" font-size="10.00">dunedaq::oks::OksKernel</text>
</a>
</g>
</g>
<!-- Node15&#45;&gt;Node21 -->
<g id="edge26_Node000021_Node000015" class="edge">
<title>Node15&#45;&gt;Node21</title>
<g id="a_edge26_Node000021_Node000015"><a xlink:title=" ">
<path fill="none" stroke="#9a32cd" stroke-dasharray="5,2" d="M815.12,-317.34C827.88,-307.82 842.54,-294.8 851.75,-279.88 868.68,-252.45 844.43,-229.57 869.75,-209.62 914.7,-174.21 986.13,-185.8 1027.05,-196.77"/>
<polygon fill="#9a32cd" stroke="#9a32cd" points="813.22,-314.4 807.08,-323.03 817.27,-320.11 813.22,-314.4"/>
</a>
</g>
<text text-anchor="start" x="869.75" y="-256.62" font-family="Helvetica,sans-Serif" font-size="10.00" fill="grey"> p_change_object_notify</text>
<text text-anchor="middle" x="924.88" y="-245.38" font-family="Helvetica,sans-Serif" font-size="10.00" fill="grey">_fn</text>
<text text-anchor="start" x="869.75" y="-234.12" font-family="Helvetica,sans-Serif" font-size="10.00" fill="grey">p_create_object_notify</text>
<text text-anchor="middle" x="924.88" y="-222.88" font-family="Helvetica,sans-Serif" font-size="10.00" fill="grey">_fn</text>
<text text-anchor="middle" x="924.88" y="-211.62" font-family="Helvetica,sans-Serif" font-size="10.00" fill="grey">p_delete_object_notify_fn</text>
</g>
<!-- Node16 -->
<g id="Node000016" class="node">
<title>Node16</title>
<g id="a_Node000016"><a xlink:title=" ">
<polygon fill="white" stroke="#666666" points="541.75,-388.5 501,-388.5 501,-369.25 541.75,-369.25 541.75,-388.5"/>
<text text-anchor="middle" x="521.38" y="-375" font-family="Helvetica,sans-Serif" font-size="10.00">struct</text>
</a>
</g>
</g>
<!-- Node16&#45;&gt;Node15 -->
<g id="edge16_Node000015_Node000016" class="edge">
<title>Node16&#45;&gt;Node15</title>
<g id="a_edge16_Node000015_Node000016"><a xlink:title=" ">
<path fill="none" stroke="#9a32cd" stroke-dasharray="5,2" d="M553.17,-373.65C595.82,-366.42 673.71,-353.2 727.96,-344"/>
<polygon fill="#9a32cd" stroke="#9a32cd" points="552.65,-370.19 543.37,-375.31 553.82,-377.09 552.65,-370.19"/>
</a>
</g>
<text text-anchor="middle" x="663.62" y="-362.62" font-family="Helvetica,sans-Serif" font-size="10.00" fill="grey"> uid</text>
</g>
<!-- Node16&#45;&gt;Node18 -->
<g id="edge33_Node000018_Node000016" class="edge">
<title>Node16&#45;&gt;Node18</title>
<g id="a_edge33_Node000018_Node000016"><a xlink:title=" ">
<path fill="none" stroke="#9a32cd" stroke-dasharray="5,2" d="M552.91,-387.89C601.94,-401.53 701.46,-425.88 787.62,-425.88 787.62,-425.88 787.62,-425.88 1510,-425.88 1576.6,-425.88 1646.72,-384.03 1680.89,-360.49"/>
<polygon fill="#9a32cd" stroke="#9a32cd" points="554.16,-384.6 543.58,-385.24 552.25,-391.34 554.16,-384.6"/>
</a>
</g>
<text text-anchor="middle" x="1177.5" y="-438.88" font-family="Helvetica,sans-Serif" font-size="10.00" fill="grey"> UID</text>
<text text-anchor="middle" x="1177.5" y="-427.62" font-family="Helvetica,sans-Serif" font-size="10.00" fill="grey">UID2</text>
</g>
<!-- Node17 -->
<g id="Node000017" class="node">
<title>Node17</title>
<g id="a_Node000017"><a xlink:href="structdunedaq_1_1oks_1_1OksData.html" target="_top" xlink:title="the structure to pass common parameters to various read() methods of OksData and OksObject class">
<polygon fill="white" stroke="#666666" points="1933.75,-376.5 1818,-376.5 1818,-357.25 1933.75,-357.25 1933.75,-376.5"/>
<text text-anchor="middle" x="1875.88" y="-363" font-family="Helvetica,sans-Serif" font-size="10.00">dunedaq::oks::OksData</text>
</a>
</g>
</g>
<!-- Node17&#45;&gt;Node15 -->
<g id="edge17_Node000015_Node000017" class="edge">
<title>Node17&#45;&gt;Node15</title>
<g id="a_edge17_Node000015_Node000017"><a xlink:title=" ">
<path fill="none" stroke="#9a32cd" stroke-dasharray="5,2" d="M1809.52,-378.71C1777.82,-383.48 1739.1,-387.88 1704.12,-387.88 1058.62,-387.88 1058.62,-387.88 1058.62,-387.88 970.27,-387.88 868.72,-359.52 819.49,-343.91"/>
<polygon fill="#9a32cd" stroke="#9a32cd" points="1810.03,-382.17 1819.37,-377.18 1808.95,-375.26 1810.03,-382.17"/>
</a>
</g>
<text text-anchor="middle" x="1404.25" y="-389.62" font-family="Helvetica,sans-Serif" font-size="10.00" fill="grey"> data</text>
</g>
<!-- Node18&#45;&gt;Node17 -->
<g id="edge18_Node000017_Node000018" class="edge">
<title>Node18&#45;&gt;Node17</title>
<g id="a_edge18_Node000017_Node000018"><a xlink:title=" ">
<path fill="none" stroke="#9a32cd" stroke-dasharray="5,2" d="M1772.7,-353.71C1787.63,-355.63 1803.27,-357.65 1817.69,-359.51"/>
<polygon fill="#9a32cd" stroke="#9a32cd" points="1773.32,-350.26 1762.96,-352.46 1772.43,-357.2 1773.32,-350.26"/>
</a>
</g>
<text text-anchor="middle" x="1789.5" y="-358.62" font-family="Helvetica,sans-Serif" font-size="10.00" fill="grey"> data</text>
</g>
<!-- Node19 -->
<g id="Node000019" class="node">
<title>Node19</title>
<g id="a_Node000019"><a xlink:href="classdunedaq_1_1oks_1_1OksClass.html" target="_top" xlink:title="The OKS class.">
<polygon fill="white" stroke="#666666" points="1569.12,-223.5 1448.88,-223.5 1448.88,-204.25 1569.12,-204.25 1569.12,-223.5"/>
<text text-anchor="middle" x="1509" y="-210" font-family="Helvetica,sans-Serif" font-size="10.00">dunedaq::oks::OksClass</text>
</a>
</g>
</g>
<!-- Node19&#45;&gt;Node18 -->
<g id="edge19_Node000018_Node000019" class="edge">
<title>Node19&#45;&gt;Node18</title>
<g id="a_edge19_Node000018_Node000019"><a xlink:title=" ">
<path fill="none" stroke="#9a32cd" stroke-dasharray="5,2" d="M1549.74,-228.16C1573.4,-237.66 1603.36,-251.48 1627.25,-268.38 1652.13,-285.97 1675.86,-312.42 1689.71,-329.16"/>
<polygon fill="#9a32cd" stroke="#9a32cd" points="1551.03,-224.91 1540.44,-224.53 1548.48,-231.43 1551.03,-224.91"/>
</a>
</g>
<text text-anchor="middle" x="1607.38" y="-280.88" font-family="Helvetica,sans-Serif" font-size="10.00" fill="grey"> CLASS</text>
<text text-anchor="middle" x="1607.38" y="-269.62" font-family="Helvetica,sans-Serif" font-size="10.00" fill="grey">class_id</text>
</g>
<!-- Node20 -->
<g id="Node000020" class="node">
<title>Node20</title>
<g id="a_Node000020"><a xlink:href="classdunedaq_1_1oks_1_1OksFile.html" target="_top" xlink:title="Provides interface to the OKS XML schema and data files.">
<polygon fill="white" stroke="#666666" points="1352.5,-244.5 1241.25,-244.5 1241.25,-225.25 1352.5,-225.25 1352.5,-244.5"/>
<text text-anchor="middle" x="1296.88" y="-231" font-family="Helvetica,sans-Serif" font-size="10.00">dunedaq::oks::OksFile</text>
</a>
</g>
</g>
<!-- Node20&#45;&gt;Node15 -->
<g id="edge34_Node000015_Node000020" class="edge">
<title>Node20&#45;&gt;Node15</title>
<g id="a_edge34_Node000015_Node000020"><a xlink:title=" ">
<path fill="none" stroke="#9a32cd" stroke-dasharray="5,2" d="M1270.55,-250.64C1255.24,-259.44 1235.01,-269.83 1215.75,-275.88 1090.02,-315.34 935.1,-327.95 851.01,-331.99"/>
<polygon fill="#9a32cd" stroke="#9a32cd" points="1272.17,-253.75 1278.99,-245.64 1268.6,-247.72 1272.17,-253.75"/>
</a>
</g>
<text text-anchor="middle" x="1059.62" y="-320.62" font-family="Helvetica,sans-Serif" font-size="10.00" fill="grey"> file</text>
</g>
<!-- Node20&#45;&gt;Node19 -->
<g id="edge20_Node000019_Node000020" class="edge">
<title>Node20&#45;&gt;Node19</title>
<g id="a_edge20_Node000019_Node000020"><a xlink:title=" ">
<path fill="none" stroke="#9a32cd" stroke-dasharray="5,2" d="M1364.14,-228.25C1391.21,-225.55 1422.27,-222.44 1448.6,-219.81"/>
<polygon fill="#9a32cd" stroke="#9a32cd" points="1363.92,-224.76 1354.31,-229.23 1364.61,-231.72 1363.92,-224.76"/>
</a>
</g>
<text text-anchor="middle" x="1404.25" y="-228.62" font-family="Helvetica,sans-Serif" font-size="10.00" fill="grey"> p_file</text>
</g>
<!-- Node20&#45;&gt;Node20 -->
<g id="edge21_Node000020_Node000020" class="edge">
<title>Node20&#45;&gt;Node20</title>
<g id="a_edge21_Node000020_Node000020"><a xlink:title=" ">
<path fill="none" stroke="#9a32cd" stroke-dasharray="5,2" d="M1277.82,-255.9C1280.2,-259.78 1286.55,-262.5 1296.88,-262.5 1315.75,-262.5 1321.35,-253.4 1313.69,-244.79"/>
<polygon fill="#9a32cd" stroke="#9a32cd" points="1281.21,-256.77 1279.76,-246.27 1274.35,-255.38 1281.21,-256.77"/>
</a>
</g>
<text text-anchor="middle" x="1296.88" y="-264.25" font-family="Helvetica,sans-Serif" font-size="10.00" fill="grey"> p_included_by</text>
</g>
<!-- Node20&#45;&gt;Node21 -->
<g id="edge23_Node000021_Node000020" class="edge">
<title>Node20&#45;&gt;Node21</title>
<g id="a_edge23_Node000021_Node000020"><a xlink:title=" ">
<path fill="none" stroke="#9a32cd" stroke-dasharray="5,2" d="M1231.23,-246.23C1202.57,-249.01 1168.73,-249.17 1139.25,-240.88 1130.22,-238.34 1129.67,-234 1121.25,-229.88 1111.44,-225.07 1100.37,-220.6 1090.39,-216.91"/>
<polygon fill="#9a32cd" stroke="#9a32cd" points="1231.29,-249.74 1240.84,-245.16 1230.52,-242.79 1231.29,-249.74"/>
</a>
</g>
<text text-anchor="middle" x="1177.5" y="-261.88" font-family="Helvetica,sans-Serif" font-size="10.00" fill="grey"> p_active_data</text>
<text text-anchor="middle" x="1177.5" y="-250.62" font-family="Helvetica,sans-Serif" font-size="10.00" fill="grey">p_active_schema</text>
</g>
<!-- Node21&#45;&gt;Node19 -->
<g id="edge27_Node000019_Node000021" class="edge">
<title>Node21&#45;&gt;Node19</title>
<g id="a_edge27_Node000019_Node000021"><a xlink:title=" ">
<path fill="none" stroke="#9a32cd" stroke-dasharray="5,2" d="M1133.07,-204.76C1193.71,-203.37 1282.52,-202.21 1360,-204.62 1389.21,-205.54 1421.61,-207.46 1448.63,-209.32"/>
<polygon fill="#9a32cd" stroke="#9a32cd" points="1133.13,-201.26 1123.22,-205 1133.3,-208.26 1133.13,-201.26"/>
</a>
</g>
<text text-anchor="middle" x="1296.88" y="-206.62" font-family="Helvetica,sans-Serif" font-size="10.00" fill="grey"> p_kernel</text>
</g>
<!-- Node21&#45;&gt;Node20 -->
<g id="edge22_Node000020_Node000021" class="edge">
<title>Node21&#45;&gt;Node20</title>
<g id="a_edge22_Node000020_Node000021"><a xlink:title=" ">
<path fill="none" stroke="#9a32cd" stroke-dasharray="5,2" d="M1132.58,-215.44C1167.42,-219.59 1208.59,-224.49 1240.87,-228.33"/>
<polygon fill="#9a32cd" stroke="#9a32cd" points="1133.36,-212.01 1123.02,-214.3 1132.53,-218.96 1133.36,-212.01"/>
</a>
</g>
<text text-anchor="middle" x="1177.5" y="-227.62" font-family="Helvetica,sans-Serif" font-size="10.00" fill="grey"> p_kernel</text>
</g>
<!-- Node22 -->
<g id="Node000022" class="node">
<title>Node22</title>
<g id="a_Node000022"><a xlink:href="classdunedaq_1_1oks_1_1OksProfiler.html" target="_top" xlink:title=" ">
<polygon fill="white" stroke="#666666" points="851.38,-163.5 725.88,-163.5 725.88,-144.25 851.38,-144.25 851.38,-163.5"/>
<text text-anchor="middle" x="788.62" y="-150" font-family="Helvetica,sans-Serif" font-size="10.00">dunedaq::oks::OksProfiler</text>
</a>
</g>
</g>
<!-- Node22&#45;&gt;Node21 -->
<g id="edge24_Node000021_Node000022" class="edge">
<title>Node22&#45;&gt;Node21</title>
<g id="a_edge24_Node000021_Node000022"><a xlink:title=" ">
<path fill="none" stroke="#9a32cd" stroke-dasharray="5,2" d="M863.07,-148.75C898.97,-148.28 942.44,-150.76 980,-161.62 993.09,-165.41 1024.39,-184.74 1043.32,-196.88"/>
<polygon fill="#9a32cd" stroke="#9a32cd" points="863.13,-145.25 853.21,-148.97 863.28,-152.25 863.13,-145.25"/>
</a>
</g>
<text text-anchor="middle" x="924.88" y="-163.62" font-family="Helvetica,sans-Serif" font-size="10.00" fill="grey"> profiler</text>
</g>
<!-- Node23 -->
<g id="Node000023" class="node">
<title>Node23</title>
<g id="a_Node000023"><a xlink:href="structdunedaq_1_1oks_1_1LoadErrors.html" target="_top" xlink:title=" ">
<polygon fill="white" stroke="#666666" points="851,-126.5 726.25,-126.5 726.25,-107.25 851,-107.25 851,-126.5"/>
<text text-anchor="middle" x="788.62" y="-113" font-family="Helvetica,sans-Serif" font-size="10.00">dunedaq::oks::LoadErrors</text>
</a>
</g>
</g>
<!-- Node23&#45;&gt;Node21 -->
<g id="edge25_Node000021_Node000023" class="edge">
<title>Node23&#45;&gt;Node21</title>
<g id="a_edge25_Node000021_Node000023"><a xlink:title=" ">
<path fill="none" stroke="#9a32cd" stroke-dasharray="5,2" d="M862.27,-107.29C900.32,-105.99 945.95,-110.67 980,-133.62 994.59,-143.46 986.12,-155.9 998,-168.88 1008.82,-180.69 1024.13,-190.25 1036.66,-196.82"/>
<polygon fill="#9a32cd" stroke="#9a32cd" points="862.56,-103.77 852.75,-107.76 862.91,-110.76 862.56,-103.77"/>
</a>
</g>
<text text-anchor="middle" x="924.88" y="-135.62" font-family="Helvetica,sans-Serif" font-size="10.00" fill="grey"> p_load_errors</text>
</g>
<!-- Node24 -->
<g id="Node000024" class="node">
<title>Node24</title>
<g id="a_Node000024"><a xlink:href="classdunedaq_1_1oksdbinterfaces_1_1map.html" target="_top" xlink:title=" ">
<polygon fill="white" stroke="#666666" points="1360,-160.12 1233.75,-160.12 1233.75,-129.62 1360,-129.62 1360,-160.12"/>
<text text-anchor="start" x="1241.75" y="-146.62" font-family="Helvetica,sans-Serif" font-size="10.00">dunedaq::oksdbinterfaces</text>
<text text-anchor="middle" x="1296.88" y="-135.38" font-family="Helvetica,sans-Serif" font-size="10.00">::map&lt; T &gt;</text>
</a>
</g>
</g>
<!-- Node24&#45;&gt;Node19 -->
<g id="edge28_Node000019_Node000024" class="edge">
<title>Node24&#45;&gt;Node19</title>
<g id="a_edge28_Node000019_Node000024"><a xlink:title=" ">
<path fill="none" stroke="#9a32cd" stroke-dasharray="5,2" d="M1371.68,-154.91C1391.14,-158.71 1411.9,-163.83 1430.5,-170.62 1453.66,-179.09 1478.14,-193.87 1493.25,-203.76"/>
<polygon fill="#9a32cd" stroke="#9a32cd" points="1372.35,-151.47 1361.88,-153.1 1371.07,-158.36 1372.35,-151.47"/>
</a>
</g>
<text text-anchor="middle" x="1404.25" y="-172.62" font-family="Helvetica,sans-Serif" font-size="10.00" fill="grey"> p_data_info</text>
</g>
<!-- Node25 -->
<g id="Node000025" class="node">
<title>Node25</title>
<g id="a_Node000025"><a xlink:title=" ">
<polygon fill="white" stroke="#666666" points="1110,-160.12 1009.25,-160.12 1009.25,-129.62 1110,-129.62 1110,-160.12"/>
<text text-anchor="start" x="1017.25" y="-146.62" font-family="Helvetica,sans-Serif" font-size="10.00">std::unordered_map</text>
<text text-anchor="middle" x="1059.62" y="-135.38" font-family="Helvetica,sans-Serif" font-size="10.00">&lt; std::string, T &gt;</text>
</a>
</g>
</g>
<!-- Node25&#45;&gt;Node24 -->
<g id="edge29_Node000024_Node000025" class="edge">
<title>Node25&#45;&gt;Node24</title>
<g id="a_edge29_Node000024_Node000025"><a xlink:title=" ">
<path fill="none" stroke="#63b8ff" d="M1121.53,-144.88C1155.87,-144.88 1198.71,-144.88 1233.32,-144.88"/>
<polygon fill="#63b8ff" stroke="#63b8ff" points="1121.74,-141.38 1111.74,-144.88 1121.74,-148.38 1121.74,-141.38"/>
</a>
</g>
</g>
<!-- Node26 -->
<g id="Node000026" class="node">
<title>Node26</title>
<g id="a_Node000026"><a xlink:href="classdunedaq_1_1oks_1_1OksString.html" target="_top" xlink:title="Class OKS string.">
<polygon fill="white" stroke="#666666" points="1569.5,-310.5 1448.5,-310.5 1448.5,-291.25 1569.5,-291.25 1569.5,-310.5"/>
<text text-anchor="middle" x="1509" y="-297" font-family="Helvetica,sans-Serif" font-size="10.00">dunedaq::oks::OksString</text>
</a>
</g>
</g>
<!-- Node26&#45;&gt;Node18 -->
<g id="edge31_Node000018_Node000026" class="edge">
<title>Node26&#45;&gt;Node18</title>
<g id="a_edge31_Node000018_Node000026"><a xlink:title=" ">
<path fill="none" stroke="#9a32cd" stroke-dasharray="5,2" d="M1580.96,-295.07C1596.42,-295.45 1612.55,-297.13 1627.25,-301.12 1647.44,-306.62 1667.78,-319.04 1682.16,-329.25"/>
<polygon fill="#9a32cd" stroke="#9a32cd" points="1581.39,-291.57 1571.37,-295.02 1581.35,-298.57 1581.39,-291.57"/>
</a>
</g>
<text text-anchor="middle" x="1607.38" y="-325.12" font-family="Helvetica,sans-Serif" font-size="10.00" fill="grey"> STRING</text>
<text text-anchor="middle" x="1607.38" y="-313.88" font-family="Helvetica,sans-Serif" font-size="10.00" fill="grey">class_id</text>
<text text-anchor="middle" x="1607.38" y="-302.62" font-family="Helvetica,sans-Serif" font-size="10.00" fill="grey">object_id</text>
</g>
<!-- Node27 -->
<g id="Node000027" class="node">
<title>Node27</title>
<g id="a_Node000027"><a xlink:title=" ">
<polygon fill="white" stroke="#666666" points="1325.88,-311.5 1267.88,-311.5 1267.88,-292.25 1325.88,-292.25 1325.88,-311.5"/>
<text text-anchor="middle" x="1296.88" y="-298" font-family="Helvetica,sans-Serif" font-size="10.00">std::string</text>
</a>
</g>
</g>
<!-- Node27&#45;&gt;Node26 -->
<g id="edge32_Node000026_Node000027" class="edge">
<title>Node27&#45;&gt;Node26</title>
<g id="a_edge32_Node000026_Node000027"><a xlink:title=" ">
<path fill="none" stroke="#63b8ff" d="M1337.51,-301.69C1368.75,-301.54 1412.81,-301.33 1448.31,-301.16"/>
<polygon fill="#63b8ff" stroke="#63b8ff" points="1337.71,-298.19 1327.73,-301.73 1337.74,-305.19 1337.71,-298.19"/>
</a>
</g>
</g>
</g>
</svg>
