<?xml version="1.0" encoding="UTF-8" standalone="no"?>
<!DOCTYPE svg PUBLIC "-//W3C//DTD SVG 1.1//EN"
 "http://www.w3.org/Graphics/SVG/1.1/DTD/svg11.dtd">
<!-- Generated by graphviz version 9.0.0 (20230911.1827)
 -->
<!-- Title: dunedaq::oksconfig::ResubscribeGuard Pages: 1 -->
<svg width="1723pt" height="639pt"
 viewBox="0.00 0.00 1723.25 638.88" xmlns="http://www.w3.org/2000/svg" xmlns:xlink="http://www.w3.org/1999/xlink">
<g id="graph0" class="graph" transform="scale(1 1) rotate(0) translate(4 634.88)">
<title>dunedaq::oksconfig::ResubscribeGuard</title>
<!-- Node1 -->
<g id="Node000001" class="node">
<title>Node1</title>
<g id="a_Node000001"><a xlink:title=" ">
<polygon fill="#999999" stroke="#666666" points="1081.88,-322.25 981.12,-322.25 981.12,-291.75 1081.88,-291.75 1081.88,-322.25"/>
<text text-anchor="start" x="989.12" y="-308.75" font-family="Helvetica,sans-Serif" font-size="10.00">dunedaq::oksconfig</text>
<text text-anchor="middle" x="1031.5" y="-297.5" font-family="Helvetica,sans-Serif" font-size="10.00">::ResubscribeGuard</text>
</a>
</g>
</g>
<!-- Node2 -->
<g id="Node000002" class="node">
<title>Node2</title>
<g id="a_Node000002"><a xlink:href="classdunedaq_1_1oksconfig_1_1OksConfiguration.html" target="_top" xlink:title=" ">
<polygon fill="white" stroke="#666666" points="837.88,-348.25 739.38,-348.25 739.38,-317.75 837.88,-317.75 837.88,-348.25"/>
<text text-anchor="start" x="747.38" y="-334.75" font-family="Helvetica,sans-Serif" font-size="10.00">dunedaq::oksconfig</text>
<text text-anchor="middle" x="788.62" y="-323.5" font-family="Helvetica,sans-Serif" font-size="10.00">::OksConfiguration</text>
</a>
</g>
</g>
<!-- Node2&#45;&gt;Node1 -->
<g id="edge1_Node000001_Node000002" class="edge">
<title>Node2&#45;&gt;Node1</title>
<g id="a_edge1_Node000001_Node000002"><a xlink:title=" ">
<path fill="none" stroke="#9a32cd" stroke-dasharray="5,2" d="M841.98,-314.04C851.13,-311.44 860.63,-309.17 869.75,-307.75 906.7,-301.98 949.01,-302.04 980.95,-303.42"/>
<polygon fill="#9a32cd" stroke="#9a32cd" points="841.06,-310.66 832.51,-316.9 843.09,-317.36 841.06,-310.66"/>
</a>
</g>
<text text-anchor="middle" x="907.62" y="-308.75" font-family="Helvetica,sans-Serif" font-size="10.00" fill="grey"> m_db</text>
</g>
<!-- Node28 -->
<g id="Node000028" class="node">
<title>Node28</title>
<g id="a_Node000028"><a xlink:href="structdunedaq_1_1oksconfig_1_1OksConfigurationCheckDB.html" target="_top" xlink:title=" ">
<polygon fill="white" stroke="#666666" points="1099.5,-380.25 963.5,-380.25 963.5,-349.75 1099.5,-349.75 1099.5,-380.25"/>
<text text-anchor="start" x="971.5" y="-366.75" font-family="Helvetica,sans-Serif" font-size="10.00">dunedaq::oksconfig</text>
<text text-anchor="middle" x="1031.5" y="-355.5" font-family="Helvetica,sans-Serif" font-size="10.00">::OksConfigurationCheckDB</text>
</a>
</g>
</g>
<!-- Node2&#45;&gt;Node28 -->
<g id="edge36_Node000028_Node000002" class="edge">
<title>Node2&#45;&gt;Node28</title>
<g id="a_edge36_Node000028_Node000002"><a xlink:title=" ">
<path fill="none" stroke="#9a32cd" stroke-dasharray="5,2" d="M848.94,-349C855.92,-350.53 862.97,-351.91 869.75,-353 900.28,-357.91 934.41,-360.82 963.33,-362.54"/>
<polygon fill="#9a32cd" stroke="#9a32cd" points="850.08,-345.67 839.55,-346.84 848.51,-352.49 850.08,-345.67"/>
</a>
</g>
<text text-anchor="middle" x="907.62" y="-362.75" font-family="Helvetica,sans-Serif" font-size="10.00" fill="grey"> m_db</text>
</g>
<!-- Node3 -->
<g id="Node000003" class="node">
<title>Node3</title>
<g id="a_Node000003"><a xlink:href="classdunedaq_1_1oksdbinterfaces_1_1ConfigurationImpl.html" target="_top" xlink:title="Provides pure virtual interface used by the Configuration class.">
<polygon fill="white" stroke="#666666" points="584.5,-353.25 458.25,-353.25 458.25,-322.75 584.5,-322.75 584.5,-353.25"/>
<text text-anchor="start" x="466.25" y="-339.75" font-family="Helvetica,sans-Serif" font-size="10.00">dunedaq::oksdbinterfaces</text>
<text text-anchor="middle" x="521.38" y="-328.5" font-family="Helvetica,sans-Serif" font-size="10.00">::ConfigurationImpl</text>
</a>
</g>
</g>
<!-- Node3&#45;&gt;Node2 -->
<g id="edge2_Node000002_Node000003" class="edge">
<title>Node3&#45;&gt;Node2</title>
<g id="a_edge2_Node000002_Node000003"><a xlink:title=" ">
<path fill="none" stroke="#63b8ff" d="M596.24,-336.61C641.91,-335.75 699.24,-334.67 739.19,-333.91"/>
<polygon fill="#63b8ff" stroke="#63b8ff" points="596.35,-333.1 586.41,-336.79 596.48,-340.1 596.35,-333.1"/>
</a>
</g>
</g>
<!-- Node6 -->
<g id="Node000006" class="node">
<title>Node6</title>
<g id="a_Node000006"><a xlink:href="classdunedaq_1_1oksdbinterfaces_1_1Configuration.html" target="_top" xlink:title=" ">
<polygon fill="white" stroke="#666666" points="851.75,-466.25 725.5,-466.25 725.5,-435.75 851.75,-435.75 851.75,-466.25"/>
<text text-anchor="start" x="733.5" y="-452.75" font-family="Helvetica,sans-Serif" font-size="10.00">dunedaq::oksdbinterfaces</text>
<text text-anchor="middle" x="788.62" y="-441.5" font-family="Helvetica,sans-Serif" font-size="10.00">::Configuration</text>
</a>
</g>
</g>
<!-- Node3&#45;&gt;Node6 -->
<g id="edge14_Node000006_Node000003" class="edge">
<title>Node3&#45;&gt;Node6</title>
<g id="a_edge14_Node000006_Node000003"><a xlink:title=" ">
<path fill="none" stroke="#9a32cd" stroke-dasharray="5,2" d="M596.17,-343.64C639.08,-347.88 688.36,-354.72 707.5,-364.75 739.18,-381.36 764.99,-415.56 778.15,-435.55"/>
<polygon fill="#9a32cd" stroke="#9a32cd" points="596.64,-340.17 586.35,-342.7 595.98,-347.14 596.64,-340.17"/>
</a>
</g>
<text text-anchor="middle" x="663.62" y="-365.75" font-family="Helvetica,sans-Serif" font-size="10.00" fill="grey"> m_impl</text>
</g>
<!-- Node4 -->
<g id="Node000004" class="node">
<title>Node4</title>
<g id="a_Node000004"><a xlink:href="classdunedaq_1_1oksdbinterfaces_1_1pmap.html" target="_top" xlink:title=" ">
<polygon fill="white" stroke="#666666" points="334.5,-346.5 171.5,-346.5 171.5,-293.5 334.5,-293.5 334.5,-346.5"/>
<text text-anchor="start" x="179.5" y="-333" font-family="Helvetica,sans-Serif" font-size="10.00">dunedaq::oksdbinterfaces</text>
<text text-anchor="start" x="179.5" y="-321.75" font-family="Helvetica,sans-Serif" font-size="10.00">::pmap&lt; dunedaq::oksdbinterfaces</text>
<text text-anchor="start" x="179.5" y="-310.5" font-family="Helvetica,sans-Serif" font-size="10.00">::map&lt; dunedaq::oksdbinterfaces</text>
<text text-anchor="middle" x="253" y="-299.25" font-family="Helvetica,sans-Serif" font-size="10.00">::ConfigObjectImpl * &gt; * &gt;</text>
</a>
</g>
</g>
<!-- Node4&#45;&gt;Node3 -->
<g id="edge3_Node000003_Node000004" class="edge">
<title>Node4&#45;&gt;Node3</title>
<g id="a_edge3_Node000003_Node000004"><a xlink:title=" ">
<path fill="none" stroke="#9a32cd" stroke-dasharray="5,2" d="M345.93,-326.21C382.85,-328.71 424.45,-331.52 457.77,-333.77"/>
<polygon fill="#9a32cd" stroke="#9a32cd" points="346.37,-322.73 336.15,-325.55 345.9,-329.72 346.37,-322.73"/>
</a>
</g>
<text text-anchor="middle" x="387.75" y="-332.75" font-family="Helvetica,sans-Serif" font-size="10.00" fill="grey"> m_impl_objects</text>
</g>
<!-- Node5 -->
<g id="Node000005" class="node">
<title>Node5</title>
<g id="a_Node000005"><a xlink:title=" ">
<polygon fill="white" stroke="#666666" points="134.5,-357.75 0,-357.75 0,-282.25 134.5,-282.25 134.5,-357.75"/>
<text text-anchor="start" x="8" y="-344.25" font-family="Helvetica,sans-Serif" font-size="10.00">std::map&lt; const std</text>
<text text-anchor="start" x="8" y="-333" font-family="Helvetica,sans-Serif" font-size="10.00">::string *, dunedaq</text>
<text text-anchor="start" x="8" y="-321.75" font-family="Helvetica,sans-Serif" font-size="10.00">::oksdbinterfaces::map</text>
<text text-anchor="start" x="8" y="-310.5" font-family="Helvetica,sans-Serif" font-size="10.00">&lt; dunedaq::oksdbinterfaces</text>
<text text-anchor="start" x="8" y="-299.25" font-family="Helvetica,sans-Serif" font-size="10.00">::ConfigObjectImpl * &gt; * ,</text>
<text text-anchor="middle" x="67.25" y="-288" font-family="Helvetica,sans-Serif" font-size="10.00"> string_ptr_compare &gt;</text>
</a>
</g>
</g>
<!-- Node5&#45;&gt;Node4 -->
<g id="edge4_Node000004_Node000005" class="edge">
<title>Node5&#45;&gt;Node4</title>
<g id="a_edge4_Node000004_Node000005"><a xlink:title=" ">
<path fill="none" stroke="#63b8ff" d="M146.36,-320C154.59,-320 162.97,-320 171.23,-320"/>
<polygon fill="#63b8ff" stroke="#63b8ff" points="146.36,-316.5 136.36,-320 146.36,-323.5 146.36,-316.5"/>
</a>
</g>
</g>
<!-- Node6&#45;&gt;Node3 -->
<g id="edge5_Node000003_Node000006" class="edge">
<title>Node6&#45;&gt;Node3</title>
<g id="a_edge5_Node000003_Node000006"><a xlink:title=" ">
<path fill="none" stroke="#9a32cd" stroke-dasharray="5,2" d="M756.69,-429.1C742.27,-419.66 724.55,-409.11 707.5,-401.75 670.41,-385.73 656.86,-393.97 619.75,-378 611.14,-374.29 610.19,-371.07 601.75,-367 591.71,-362.16 580.63,-357.63 570.02,-353.67"/>
<polygon fill="#9a32cd" stroke="#9a32cd" points="754.59,-431.91 764.85,-434.57 758.49,-426.09 754.59,-431.91"/>
</a>
</g>
<text text-anchor="middle" x="663.62" y="-402.75" font-family="Helvetica,sans-Serif" font-size="10.00" fill="grey"> m_conf</text>
</g>
<!-- Node7 -->
<g id="Node000007" class="node">
<title>Node7</title>
<g id="a_Node000007"><a xlink:href="classdunedaq_1_1oksdbinterfaces_1_1map.html" target="_top" xlink:title=" ">
<polygon fill="white" stroke="#666666" points="600.25,-624.88 442.5,-624.88 442.5,-583.12 600.25,-583.12 600.25,-624.88"/>
<text text-anchor="start" x="450.5" y="-611.38" font-family="Helvetica,sans-Serif" font-size="10.00">dunedaq::oksdbinterfaces</text>
<text text-anchor="start" x="450.5" y="-600.12" font-family="Helvetica,sans-Serif" font-size="10.00">::map&lt; dunedaq::oksdbinterfaces</text>
<text text-anchor="middle" x="521.38" y="-588.88" font-family="Helvetica,sans-Serif" font-size="10.00">::class_t * &gt;</text>
</a>
</g>
</g>
<!-- Node7&#45;&gt;Node6 -->
<g id="edge6_Node000006_Node000007" class="edge">
<title>Node7&#45;&gt;Node6</title>
<g id="a_edge6_Node000006_Node000007"><a xlink:title=" ">
<path fill="none" stroke="#9a32cd" stroke-dasharray="5,2" d="M608.75,-578.88C641.19,-567.32 677.45,-551.72 707.5,-532 735.28,-513.76 761.11,-484.58 775.58,-466.67"/>
<polygon fill="#9a32cd" stroke="#9a32cd" points="607.64,-575.56 599.34,-582.15 609.94,-582.17 607.64,-575.56"/>
</a>
</g>
<text text-anchor="start" x="619.75" y="-609.5" font-family="Helvetica,sans-Serif" font-size="10.00" fill="grey"> p_all_classes_desc</text>
<text text-anchor="middle" x="663.62" y="-598.25" font-family="Helvetica,sans-Serif" font-size="10.00" fill="grey">_cache</text>
<text text-anchor="start" x="619.75" y="-587" font-family="Helvetica,sans-Serif" font-size="10.00" fill="grey">p_direct_classes</text>
<text text-anchor="middle" x="663.62" y="-575.75" font-family="Helvetica,sans-Serif" font-size="10.00" fill="grey">_desc_cache</text>
</g>
<!-- Node8 -->
<g id="Node000008" class="node">
<title>Node8</title>
<g id="a_Node000008"><a xlink:title=" ">
<polygon fill="white" stroke="#666666" points="322.88,-630.88 183.12,-630.88 183.12,-589.12 322.88,-589.12 322.88,-630.88"/>
<text text-anchor="start" x="191.12" y="-617.38" font-family="Helvetica,sans-Serif" font-size="10.00">std::unordered_map</text>
<text text-anchor="start" x="191.12" y="-606.12" font-family="Helvetica,sans-Serif" font-size="10.00">&lt; std::string, dunedaq</text>
<text text-anchor="middle" x="253" y="-594.88" font-family="Helvetica,sans-Serif" font-size="10.00">::oksdbinterfaces::class_t * &gt;</text>
</a>
</g>
</g>
<!-- Node8&#45;&gt;Node7 -->
<g id="edge7_Node000007_Node000008" class="edge">
<title>Node8&#45;&gt;Node7</title>
<g id="a_edge7_Node000007_Node000008"><a xlink:title=" ">
<path fill="none" stroke="#63b8ff" d="M334.62,-608.18C368.68,-607.42 408.21,-606.53 442.02,-605.76"/>
<polygon fill="#63b8ff" stroke="#63b8ff" points="334.72,-604.68 324.8,-608.41 334.88,-611.68 334.72,-604.68"/>
</a>
</g>
</g>
<!-- Node9 -->
<g id="Node000009" class="node">
<title>Node9</title>
<g id="a_Node000009"><a xlink:href="classdunedaq_1_1oksdbinterfaces_1_1fmap.html" target="_top" xlink:title=" ">
<polygon fill="white" stroke="#666666" points="584.5,-559.88 458.25,-559.88 458.25,-518.12 584.5,-518.12 584.5,-559.88"/>
<text text-anchor="start" x="466.25" y="-546.38" font-family="Helvetica,sans-Serif" font-size="10.00">dunedaq::oksdbinterfaces</text>
<text text-anchor="start" x="466.25" y="-535.12" font-family="Helvetica,sans-Serif" font-size="10.00">::fmap&lt; oksdbinterfaces</text>
<text text-anchor="middle" x="521.38" y="-523.88" font-family="Helvetica,sans-Serif" font-size="10.00">::fset &gt;</text>
</a>
</g>
</g>
<!-- Node9&#45;&gt;Node6 -->
<g id="edge8_Node000006_Node000009" class="edge">
<title>Node9&#45;&gt;Node6</title>
<g id="a_edge8_Node000006_Node000009"><a xlink:title=" ">
<path fill="none" stroke="#9a32cd" stroke-dasharray="5,2" d="M595.77,-514.65C642,-499.31 700.31,-479.97 740.45,-466.65"/>
<polygon fill="#9a32cd" stroke="#9a32cd" points="594.73,-511.31 586.34,-517.78 596.93,-517.95 594.73,-511.31"/>
</a>
</g>
<text text-anchor="middle" x="663.62" y="-518" font-family="Helvetica,sans-Serif" font-size="10.00" fill="grey"> p_subclasses</text>
<text text-anchor="middle" x="663.62" y="-506.75" font-family="Helvetica,sans-Serif" font-size="10.00" fill="grey">p_superclasses</text>
</g>
<!-- Node10 -->
<g id="Node000010" class="node">
<title>Node10</title>
<g id="a_Node000010"><a xlink:title=" ">
<polygon fill="white" stroke="#666666" points="310.5,-571.5 195.5,-571.5 195.5,-518.5 310.5,-518.5 310.5,-571.5"/>
<text text-anchor="start" x="203.5" y="-558" font-family="Helvetica,sans-Serif" font-size="10.00">std::unordered_map</text>
<text text-anchor="start" x="203.5" y="-546.75" font-family="Helvetica,sans-Serif" font-size="10.00">&lt; const std::string</text>
<text text-anchor="start" x="203.5" y="-535.5" font-family="Helvetica,sans-Serif" font-size="10.00"> *, oksdbinterfaces::</text>
<text text-anchor="middle" x="253" y="-524.25" font-family="Helvetica,sans-Serif" font-size="10.00">fset , string_ptr_hash &gt;</text>
</a>
</g>
</g>
<!-- Node10&#45;&gt;Node9 -->
<g id="edge9_Node000009_Node000010" class="edge">
<title>Node10&#45;&gt;Node9</title>
<g id="a_edge9_Node000009_Node000010"><a xlink:title=" ">
<path fill="none" stroke="#63b8ff" d="M322.31,-543.46C364.17,-542.52 417.35,-541.32 458.06,-540.4"/>
<polygon fill="#63b8ff" stroke="#63b8ff" points="322.25,-539.96 312.33,-543.69 322.41,-546.96 322.25,-539.96"/>
</a>
</g>
</g>
<!-- Node11 -->
<g id="Node000011" class="node">
<title>Node11</title>
<g id="a_Node000011"><a xlink:href="classdunedaq_1_1oksdbinterfaces_1_1map.html" target="_top" xlink:title=" ">
<polygon fill="white" stroke="#666666" points="596.5,-494.5 446.25,-494.5 446.25,-441.5 596.5,-441.5 596.5,-494.5"/>
<text text-anchor="start" x="454.25" y="-481" font-family="Helvetica,sans-Serif" font-size="10.00">dunedaq::oksdbinterfaces</text>
<text text-anchor="start" x="454.25" y="-469.75" font-family="Helvetica,sans-Serif" font-size="10.00">::map&lt; std::list&lt; dunedaq</text>
<text text-anchor="start" x="454.25" y="-458.5" font-family="Helvetica,sans-Serif" font-size="10.00">::oksdbinterfaces::Configuration</text>
<text text-anchor="middle" x="521.38" y="-447.25" font-family="Helvetica,sans-Serif" font-size="10.00">::AttributeConverterBase * &gt; * &gt;</text>
</a>
</g>
</g>
<!-- Node11&#45;&gt;Node6 -->
<g id="edge10_Node000006_Node000011" class="edge">
<title>Node11&#45;&gt;Node6</title>
<g id="a_edge10_Node000006_Node000011"><a xlink:title=" ">
<path fill="none" stroke="#9a32cd" stroke-dasharray="5,2" d="M608.07,-462.51C646.21,-460.06 690.3,-457.24 725.24,-455"/>
<polygon fill="#9a32cd" stroke="#9a32cd" points="608.23,-458.99 598.48,-463.12 608.68,-465.98 608.23,-458.99"/>
</a>
</g>
<text text-anchor="middle" x="663.62" y="-462.75" font-family="Helvetica,sans-Serif" font-size="10.00" fill="grey"> m_convert_map</text>
</g>
<!-- Node12 -->
<g id="Node000012" class="node">
<title>Node12</title>
<g id="a_Node000012"><a xlink:title=" ">
<polygon fill="white" stroke="#666666" points="333,-500.12 173,-500.12 173,-435.88 333,-435.88 333,-500.12"/>
<text text-anchor="start" x="181" y="-486.62" font-family="Helvetica,sans-Serif" font-size="10.00">std::unordered_map</text>
<text text-anchor="start" x="181" y="-475.38" font-family="Helvetica,sans-Serif" font-size="10.00">&lt; std::string, std::</text>
<text text-anchor="start" x="181" y="-464.12" font-family="Helvetica,sans-Serif" font-size="10.00">list&lt; dunedaq::oksdbinterfaces</text>
<text text-anchor="start" x="181" y="-452.88" font-family="Helvetica,sans-Serif" font-size="10.00">::Configuration::AttributeConverter</text>
<text text-anchor="middle" x="253" y="-441.62" font-family="Helvetica,sans-Serif" font-size="10.00">Base * &gt; * &gt;</text>
</a>
</g>
</g>
<!-- Node12&#45;&gt;Node11 -->
<g id="edge11_Node000011_Node000012" class="edge">
<title>Node12&#45;&gt;Node11</title>
<g id="a_edge11_Node000011_Node000012"><a xlink:title=" ">
<path fill="none" stroke="#63b8ff" d="M344.7,-468C377.71,-468 414.61,-468 446.04,-468"/>
<polygon fill="#63b8ff" stroke="#63b8ff" points="344.71,-464.5 334.71,-468 344.71,-471.5 344.71,-464.5"/>
</a>
</g>
</g>
<!-- Node13 -->
<g id="Node000013" class="node">
<title>Node13</title>
<g id="a_Node000013"><a xlink:href="classdunedaq_1_1oksdbinterfaces_1_1fmap.html" target="_top" xlink:title=" ">
<polygon fill="white" stroke="#666666" points="601.75,-417.88 441,-417.88 441,-376.12 601.75,-376.12 601.75,-417.88"/>
<text text-anchor="start" x="449" y="-404.38" font-family="Helvetica,sans-Serif" font-size="10.00">dunedaq::oksdbinterfaces</text>
<text text-anchor="start" x="449" y="-393.12" font-family="Helvetica,sans-Serif" font-size="10.00">::fmap&lt; dunedaq::oksdbinterfaces</text>
<text text-anchor="middle" x="521.38" y="-381.88" font-family="Helvetica,sans-Serif" font-size="10.00">::CacheBase * &gt;</text>
</a>
</g>
</g>
<!-- Node13&#45;&gt;Node6 -->
<g id="edge12_Node000006_Node000013" class="edge">
<title>Node13&#45;&gt;Node6</title>
<g id="a_edge12_Node000006_Node000013"><a xlink:title=" ">
<path fill="none" stroke="#9a32cd" stroke-dasharray="5,2" d="M612.78,-415.4C649.85,-422.95 691.84,-431.5 725.38,-438.33"/>
<polygon fill="#9a32cd" stroke="#9a32cd" points="613.94,-412.07 603.44,-413.5 612.54,-418.93 613.94,-412.07"/>
</a>
</g>
<text text-anchor="middle" x="663.62" y="-434.75" font-family="Helvetica,sans-Serif" font-size="10.00" fill="grey"> m_cache_map</text>
</g>
<!-- Node14 -->
<g id="Node000014" class="node">
<title>Node14</title>
<g id="a_Node000014"><a xlink:title=" ">
<polygon fill="white" stroke="#666666" points="331.5,-417.5 174.5,-417.5 174.5,-364.5 331.5,-364.5 331.5,-417.5"/>
<text text-anchor="start" x="182.5" y="-404" font-family="Helvetica,sans-Serif" font-size="10.00">std::unordered_map</text>
<text text-anchor="start" x="182.5" y="-392.75" font-family="Helvetica,sans-Serif" font-size="10.00">&lt; const std::string</text>
<text text-anchor="start" x="182.5" y="-381.5" font-family="Helvetica,sans-Serif" font-size="10.00"> *, dunedaq::oksdbinterfaces</text>
<text text-anchor="middle" x="253" y="-370.25" font-family="Helvetica,sans-Serif" font-size="10.00">::CacheBase *, string_ptr_hash &gt;</text>
</a>
</g>
</g>
<!-- Node14&#45;&gt;Node13 -->
<g id="edge13_Node000013_Node000014" class="edge">
<title>Node14&#45;&gt;Node13</title>
<g id="a_edge13_Node000013_Node000014"><a xlink:title=" ">
<path fill="none" stroke="#63b8ff" d="M343.2,-393.01C374.73,-393.72 409.97,-394.51 440.67,-395.2"/>
<polygon fill="#63b8ff" stroke="#63b8ff" points="343.35,-389.51 333.28,-392.79 343.19,-396.51 343.35,-389.51"/>
</a>
</g>
</g>
<!-- Node15 -->
<g id="Node000015" class="node">
<title>Node15</title>
<g id="a_Node000015"><a xlink:href="classdunedaq_1_1oks_1_1OksKernel.html" target="_top" xlink:title="Provides interface to the OKS kernel.">
<polygon fill="white" stroke="#666666" points="583,-235.62 459.75,-235.62 459.75,-216.38 583,-216.38 583,-235.62"/>
<text text-anchor="middle" x="521.38" y="-222.12" font-family="Helvetica,sans-Serif" font-size="10.00">dunedaq::oks::OksKernel</text>
</a>
</g>
</g>
<!-- Node15&#45;&gt;Node2 -->
<g id="edge15_Node000002_Node000015" class="edge">
<title>Node15&#45;&gt;Node2</title>
<g id="a_edge15_Node000002_Node000015"><a xlink:title=" ">
<path fill="none" stroke="#9a32cd" stroke-dasharray="5,2" d="M550.23,-241.27C569.45,-251.49 595.77,-264.88 619.75,-275 659.24,-291.67 705.34,-307.34 739.22,-318.17"/>
<polygon fill="#9a32cd" stroke="#9a32cd" points="552.14,-238.32 541.67,-236.67 548.82,-244.48 552.14,-238.32"/>
</a>
</g>
<text text-anchor="middle" x="663.62" y="-308.75" font-family="Helvetica,sans-Serif" font-size="10.00" fill="grey"> m_kernel</text>
</g>
<!-- Node16 -->
<g id="Node000016" class="node">
<title>Node16</title>
<g id="a_Node000016"><a xlink:href="classdunedaq_1_1oks_1_1OksFile.html" target="_top" xlink:title="Provides interface to the OKS XML schema and data files.">
<polygon fill="white" stroke="#666666" points="844.25,-268.62 733,-268.62 733,-249.38 844.25,-249.38 844.25,-268.62"/>
<text text-anchor="middle" x="788.62" y="-255.12" font-family="Helvetica,sans-Serif" font-size="10.00">dunedaq::oks::OksFile</text>
</a>
</g>
</g>
<!-- Node15&#45;&gt;Node16 -->
<g id="edge18_Node000016_Node000015" class="edge">
<title>Node15&#45;&gt;Node16</title>
<g id="a_edge18_Node000016_Node000015"><a xlink:title=" ">
<path fill="none" stroke="#9a32cd" stroke-dasharray="5,2" d="M594.84,-218.59C629.29,-216.82 670.87,-217.25 707.5,-224.75 730.03,-229.36 754.05,-240.57 769.85,-248.92"/>
<polygon fill="#9a32cd" stroke="#9a32cd" points="594.73,-215.09 584.95,-219.18 595.14,-222.08 594.73,-215.09"/>
</a>
</g>
<text text-anchor="middle" x="663.62" y="-226.75" font-family="Helvetica,sans-Serif" font-size="10.00" fill="grey"> p_kernel</text>
</g>
<!-- Node23 -->
<g id="Node000023" class="node">
<title>Node23</title>
<g id="a_Node000023"><a xlink:href="classdunedaq_1_1oks_1_1OksClass.html" target="_top" xlink:title="The OKS class.">
<polygon fill="white" stroke="#666666" points="1091.62,-158.62 971.38,-158.62 971.38,-139.38 1091.62,-139.38 1091.62,-158.62"/>
<text text-anchor="middle" x="1031.5" y="-145.12" font-family="Helvetica,sans-Serif" font-size="10.00">dunedaq::oks::OksClass</text>
</a>
</g>
</g>
<!-- Node15&#45;&gt;Node23 -->
<g id="edge27_Node000023_Node000015" class="edge">
<title>Node15&#45;&gt;Node23</title>
<g id="a_edge27_Node000023_Node000015"><a xlink:title=" ">
<path fill="none" stroke="#9a32cd" stroke-dasharray="5,2" d="M594.57,-215.12C678.8,-202.41 822.26,-180.74 945.5,-162 953.76,-160.74 962.48,-159.41 971.06,-158.1"/>
<polygon fill="#9a32cd" stroke="#9a32cd" points="594.2,-211.63 584.84,-216.59 595.25,-218.55 594.2,-211.63"/>
</a>
</g>
<text text-anchor="middle" x="788.62" y="-197.75" font-family="Helvetica,sans-Serif" font-size="10.00" fill="grey"> p_kernel</text>
</g>
<!-- Node16&#45;&gt;Node15 -->
<g id="edge16_Node000015_Node000016" class="edge">
<title>Node16&#45;&gt;Node15</title>
<g id="a_edge16_Node000015_Node000016"><a xlink:title=" ">
<path fill="none" stroke="#9a32cd" stroke-dasharray="5,2" d="M721.59,-250.78C679.2,-245.51 624.56,-238.71 583.23,-233.57"/>
<polygon fill="#9a32cd" stroke="#9a32cd" points="721.06,-254.25 731.41,-252.01 721.92,-247.3 721.06,-254.25"/>
</a>
</g>
<text text-anchor="middle" x="663.62" y="-261" font-family="Helvetica,sans-Serif" font-size="10.00" fill="grey"> p_active_data</text>
<text text-anchor="middle" x="663.62" y="-249.75" font-family="Helvetica,sans-Serif" font-size="10.00" fill="grey">p_active_schema</text>
</g>
<!-- Node16&#45;&gt;Node16 -->
<g id="edge17_Node000016_Node000016" class="edge">
<title>Node16&#45;&gt;Node16</title>
<g id="a_edge17_Node000016_Node000016"><a xlink:title=" ">
<path fill="none" stroke="#9a32cd" stroke-dasharray="5,2" d="M767.5,-280.03C770.14,-283.9 777.19,-286.62 788.62,-286.62 809.54,-286.62 815.75,-277.52 807.26,-268.91"/>
<polygon fill="#9a32cd" stroke="#9a32cd" points="770.89,-280.91 769.66,-270.39 764.06,-279.38 770.89,-280.91"/>
</a>
</g>
<text text-anchor="middle" x="788.62" y="-288.38" font-family="Helvetica,sans-Serif" font-size="10.00" fill="grey"> p_included_by</text>
</g>
<!-- Node19 -->
<g id="Node000019" class="node">
<title>Node19</title>
<g id="a_Node000019"><a xlink:href="classdunedaq_1_1oks_1_1OksObject.html" target="_top" xlink:title="OksObject describes instance of OksClass.">
<polygon fill="white" stroke="#666666" points="1715.25,-186.62 1591.25,-186.62 1591.25,-167.38 1715.25,-167.38 1715.25,-186.62"/>
<text text-anchor="middle" x="1653.25" y="-173.12" font-family="Helvetica,sans-Serif" font-size="10.00">dunedaq::oks::OksObject</text>
</a>
</g>
</g>
<!-- Node16&#45;&gt;Node19 -->
<g id="edge34_Node000019_Node000016" class="edge">
<title>Node16&#45;&gt;Node19</title>
<g id="a_edge34_Node000019_Node000016"><a xlink:title=" ">
<path fill="none" stroke="#9a32cd" stroke-dasharray="5,2" d="M855.89,-261.12C904.27,-262.48 971.45,-264 1030.5,-264 1030.5,-264 1030.5,-264 1477.38,-264 1545.87,-264 1615.15,-209.83 1641.33,-186.98"/>
<polygon fill="#9a32cd" stroke="#9a32cd" points="856.24,-257.62 846.14,-260.83 856.03,-264.62 856.24,-257.62"/>
</a>
</g>
<text text-anchor="middle" x="1303.62" y="-265.75" font-family="Helvetica,sans-Serif" font-size="10.00" fill="grey"> file</text>
</g>
<!-- Node16&#45;&gt;Node23 -->
<g id="edge26_Node000023_Node000016" class="edge">
<title>Node16&#45;&gt;Node23</title>
<g id="a_edge26_Node000023_Node000016"><a xlink:title=" ">
<path fill="none" stroke="#9a32cd" stroke-dasharray="5,2" d="M836.19,-245.89C874.99,-234.52 926.82,-218.18 945.5,-207 954.94,-201.35 954.76,-196.69 963.5,-190 978.99,-178.15 998.08,-166.75 1011.92,-158.99"/>
<polygon fill="#9a32cd" stroke="#9a32cd" points="835.72,-242.38 827.09,-248.53 837.67,-249.1 835.72,-242.38"/>
</a>
</g>
<text text-anchor="middle" x="907.62" y="-236.75" font-family="Helvetica,sans-Serif" font-size="10.00" fill="grey"> p_file</text>
</g>
<!-- Node17 -->
<g id="Node000017" class="node">
<title>Node17</title>
<g id="a_Node000017"><a xlink:href="classdunedaq_1_1oks_1_1OksProfiler.html" target="_top" xlink:title=" ">
<polygon fill="white" stroke="#666666" points="315.75,-217.62 190.25,-217.62 190.25,-198.38 315.75,-198.38 315.75,-217.62"/>
<text text-anchor="middle" x="253" y="-204.12" font-family="Helvetica,sans-Serif" font-size="10.00">dunedaq::oks::OksProfiler</text>
</a>
</g>
</g>
<!-- Node17&#45;&gt;Node15 -->
<g id="edge19_Node000015_Node000017" class="edge">
<title>Node17&#45;&gt;Node15</title>
<g id="a_edge19_Node000015_Node000017"><a xlink:title=" ">
<path fill="none" stroke="#9a32cd" stroke-dasharray="5,2" d="M327.06,-207.66C356.86,-208.03 391.62,-209.12 423,-211.75 434.83,-212.74 447.42,-214.25 459.47,-215.91"/>
<polygon fill="#9a32cd" stroke="#9a32cd" points="327.45,-204.16 317.42,-207.57 327.38,-211.16 327.45,-204.16"/>
</a>
</g>
<text text-anchor="middle" x="387.75" y="-213.75" font-family="Helvetica,sans-Serif" font-size="10.00" fill="grey"> profiler</text>
</g>
<!-- Node18 -->
<g id="Node000018" class="node">
<title>Node18</title>
<g id="a_Node000018"><a xlink:href="structdunedaq_1_1oks_1_1LoadErrors.html" target="_top" xlink:title=" ">
<polygon fill="white" stroke="#666666" points="315.38,-254.62 190.62,-254.62 190.62,-235.38 315.38,-235.38 315.38,-254.62"/>
<text text-anchor="middle" x="253" y="-241.12" font-family="Helvetica,sans-Serif" font-size="10.00">dunedaq::oks::LoadErrors</text>
</a>
</g>
</g>
<!-- Node18&#45;&gt;Node15 -->
<g id="edge20_Node000015_Node000018" class="edge">
<title>Node18&#45;&gt;Node15</title>
<g id="a_edge20_Node000015_Node000018"><a xlink:title=" ">
<path fill="none" stroke="#9a32cd" stroke-dasharray="5,2" d="M327.21,-239.78C368.73,-236.82 420.07,-233.15 459.39,-230.35"/>
<polygon fill="#9a32cd" stroke="#9a32cd" points="327.02,-236.28 317.29,-240.49 327.51,-243.27 327.02,-236.28"/>
</a>
</g>
<text text-anchor="middle" x="387.75" y="-238.75" font-family="Helvetica,sans-Serif" font-size="10.00" fill="grey"> p_load_errors</text>
</g>
<!-- Node19&#45;&gt;Node15 -->
<g id="edge21_Node000015_Node000019" class="edge">
<title>Node19&#45;&gt;Node15</title>
<g id="a_edge21_Node000015_Node000019"><a xlink:title=" ">
<path fill="none" stroke="#9a32cd" stroke-dasharray="5,2" d="M1643.8,-156.62C1623,-110.08 1564.59,0 1477.38,0 787.62,0 787.62,0 787.62,0 676.87,0 687.31,-95.66 601.75,-166 579.47,-184.32 552.48,-204.27 536.41,-215.93"/>
<polygon fill="#9a32cd" stroke="#9a32cd" points="1640.5,-157.79 1647.68,-165.59 1646.92,-155.02 1640.5,-157.79"/>
</a>
</g>
<text text-anchor="start" x="1117.5" y="-46.75" font-family="Helvetica,sans-Serif" font-size="10.00" fill="grey"> p_change_object_notify</text>
<text text-anchor="middle" x="1172.62" y="-35.5" font-family="Helvetica,sans-Serif" font-size="10.00" fill="grey">_fn</text>
<text text-anchor="start" x="1117.5" y="-24.25" font-family="Helvetica,sans-Serif" font-size="10.00" fill="grey">p_create_object_notify</text>
<text text-anchor="middle" x="1172.62" y="-13" font-family="Helvetica,sans-Serif" font-size="10.00" fill="grey">_fn</text>
<text text-anchor="middle" x="1172.62" y="-1.75" font-family="Helvetica,sans-Serif" font-size="10.00" fill="grey">p_delete_object_notify_fn</text>
</g>
<!-- Node22 -->
<g id="Node000022" class="node">
<title>Node22</title>
<g id="a_Node000022"><a xlink:href="uniondunedaq_1_1oks_1_1OksData_1_1Data.html" target="_top" xlink:title=" ">
<polygon fill="white" stroke="#666666" points="1361.5,-153.25 1245.75,-153.25 1245.75,-122.75 1361.5,-122.75 1361.5,-153.25"/>
<text text-anchor="start" x="1253.75" y="-139.75" font-family="Helvetica,sans-Serif" font-size="10.00">dunedaq::oks::OksData</text>
<text text-anchor="middle" x="1303.62" y="-128.5" font-family="Helvetica,sans-Serif" font-size="10.00">::Data</text>
</a>
</g>
</g>
<!-- Node19&#45;&gt;Node22 -->
<g id="edge30_Node000022_Node000019" class="edge">
<title>Node19&#45;&gt;Node22</title>
<g id="a_edge30_Node000022_Node000019"><a xlink:title=" ">
<path fill="none" stroke="#9a32cd" stroke-dasharray="5,2" d="M1609.8,-163.78C1587.54,-157.45 1559.67,-150.45 1534.25,-146.75 1475.82,-138.25 1408.2,-136.65 1361.55,-136.82"/>
<polygon fill="#9a32cd" stroke="#9a32cd" points="1608.54,-167.06 1619.12,-166.5 1610.49,-160.34 1608.54,-167.06"/>
</a>
</g>
<text text-anchor="middle" x="1476.38" y="-148.75" font-family="Helvetica,sans-Serif" font-size="10.00" fill="grey"> OBJECT</text>
</g>
<!-- Node20 -->
<g id="Node000020" class="node">
<title>Node20</title>
<g id="a_Node000020"><a xlink:title=" ">
<polygon fill="white" stroke="#666666" points="1051.88,-218.62 1011.12,-218.62 1011.12,-199.38 1051.88,-199.38 1051.88,-218.62"/>
<text text-anchor="middle" x="1031.5" y="-205.12" font-family="Helvetica,sans-Serif" font-size="10.00">struct</text>
</a>
</g>
</g>
<!-- Node20&#45;&gt;Node19 -->
<g id="edge22_Node000019_Node000020" class="edge">
<title>Node20&#45;&gt;Node19</title>
<g id="a_edge22_Node000019_Node000020"><a xlink:title=" ">
<path fill="none" stroke="#9a32cd" stroke-dasharray="5,2" d="M1063.6,-209.09C1142.42,-209.13 1356.41,-208.01 1534.25,-196 1551.63,-194.83 1556.01,-194.52 1573.25,-192 1582.78,-190.61 1592.91,-188.88 1602.63,-187.09"/>
<polygon fill="#9a32cd" stroke="#9a32cd" points="1063.65,-205.59 1053.65,-209.08 1063.64,-212.59 1063.65,-205.59"/>
</a>
</g>
<text text-anchor="middle" x="1390" y="-205.75" font-family="Helvetica,sans-Serif" font-size="10.00" fill="grey"> uid</text>
</g>
<!-- Node20&#45;&gt;Node22 -->
<g id="edge33_Node000022_Node000020" class="edge">
<title>Node20&#45;&gt;Node22</title>
<g id="a_edge33_Node000022_Node000020"><a xlink:title=" ">
<path fill="none" stroke="#9a32cd" stroke-dasharray="5,2" d="M1063.21,-199.13C1079.3,-194.13 1099.37,-188.14 1117.5,-183.5 1166.03,-171.07 1179.18,-172.29 1227.75,-160 1235.37,-158.07 1243.38,-155.89 1251.21,-153.66"/>
<polygon fill="#9a32cd" stroke="#9a32cd" points="1062.23,-195.77 1053.74,-202.11 1064.33,-202.45 1062.23,-195.77"/>
</a>
</g>
<text text-anchor="middle" x="1172.62" y="-197" font-family="Helvetica,sans-Serif" font-size="10.00" fill="grey"> UID</text>
<text text-anchor="middle" x="1172.62" y="-185.75" font-family="Helvetica,sans-Serif" font-size="10.00" fill="grey">UID2</text>
</g>
<!-- Node21 -->
<g id="Node000021" class="node">
<title>Node21</title>
<g id="a_Node000021"><a xlink:href="structdunedaq_1_1oks_1_1OksData.html" target="_top" xlink:title="the structure to pass common parameters to various read() methods of OksData and OksObject class">
<polygon fill="white" stroke="#666666" points="1534.25,-186.62 1418.5,-186.62 1418.5,-167.38 1534.25,-167.38 1534.25,-186.62"/>
<text text-anchor="middle" x="1476.38" y="-173.12" font-family="Helvetica,sans-Serif" font-size="10.00">dunedaq::oks::OksData</text>
</a>
</g>
</g>
<!-- Node21&#45;&gt;Node19 -->
<g id="edge23_Node000019_Node000021" class="edge">
<title>Node21&#45;&gt;Node19</title>
<g id="a_edge23_Node000019_Node000021"><a xlink:title=" ">
<path fill="none" stroke="#9a32cd" stroke-dasharray="5,2" d="M1545.83,-177C1560.71,-177 1576.36,-177 1590.95,-177"/>
<polygon fill="#9a32cd" stroke="#9a32cd" points="1546.15,-173.5 1536.15,-177 1546.15,-180.5 1546.15,-173.5"/>
</a>
</g>
<text text-anchor="middle" x="1562.75" y="-178.75" font-family="Helvetica,sans-Serif" font-size="10.00" fill="grey"> data</text>
</g>
<!-- Node22&#45;&gt;Node21 -->
<g id="edge24_Node000021_Node000022" class="edge">
<title>Node22&#45;&gt;Node21</title>
<g id="a_edge24_Node000021_Node000022"><a xlink:title=" ">
<path fill="none" stroke="#9a32cd" stroke-dasharray="5,2" d="M1373,-153.62C1392.59,-158.09 1413.43,-162.85 1431.15,-166.9"/>
<polygon fill="#9a32cd" stroke="#9a32cd" points="1373.96,-150.25 1363.43,-151.43 1372.4,-157.07 1373.96,-150.25"/>
</a>
</g>
<text text-anchor="middle" x="1390" y="-161.75" font-family="Helvetica,sans-Serif" font-size="10.00" fill="grey"> data</text>
</g>
<!-- Node23&#45;&gt;Node22 -->
<g id="edge25_Node000022_Node000023" class="edge">
<title>Node23&#45;&gt;Node22</title>
<g id="a_edge25_Node000022_Node000023"><a xlink:title=" ">
<path fill="none" stroke="#9a32cd" stroke-dasharray="5,2" d="M1103.16,-138.71C1108,-138.23 1112.82,-137.82 1117.5,-137.5 1166.39,-134.21 1178.75,-137.34 1227.75,-137.5 1233.47,-137.52 1239.44,-137.55 1245.39,-137.58"/>
<polygon fill="#9a32cd" stroke="#9a32cd" points="1102.91,-135.21 1093.35,-139.77 1103.67,-142.17 1102.91,-135.21"/>
</a>
</g>
<text text-anchor="middle" x="1172.62" y="-151" font-family="Helvetica,sans-Serif" font-size="10.00" fill="grey"> CLASS</text>
<text text-anchor="middle" x="1172.62" y="-139.75" font-family="Helvetica,sans-Serif" font-size="10.00" fill="grey">class_id</text>
</g>
<!-- Node24 -->
<g id="Node000024" class="node">
<title>Node24</title>
<g id="a_Node000024"><a xlink:href="classdunedaq_1_1oksdbinterfaces_1_1map.html" target="_top" xlink:title=" ">
<polygon fill="white" stroke="#666666" points="851.75,-157.25 725.5,-157.25 725.5,-126.75 851.75,-126.75 851.75,-157.25"/>
<text text-anchor="start" x="733.5" y="-143.75" font-family="Helvetica,sans-Serif" font-size="10.00">dunedaq::oksdbinterfaces</text>
<text text-anchor="middle" x="788.62" y="-132.5" font-family="Helvetica,sans-Serif" font-size="10.00">::map&lt; T &gt;</text>
</a>
</g>
</g>
<!-- Node24&#45;&gt;Node23 -->
<g id="edge28_Node000023_Node000024" class="edge">
<title>Node24&#45;&gt;Node23</title>
<g id="a_edge28_Node000023_Node000024"><a xlink:title=" ">
<path fill="none" stroke="#9a32cd" stroke-dasharray="5,2" d="M863.41,-144.14C897.89,-145.15 938.41,-146.32 970.91,-147.27"/>
<polygon fill="#9a32cd" stroke="#9a32cd" points="863.58,-140.65 853.48,-143.86 863.38,-147.64 863.58,-140.65"/>
</a>
</g>
<text text-anchor="middle" x="907.62" y="-148.75" font-family="Helvetica,sans-Serif" font-size="10.00" fill="grey"> p_data_info</text>
</g>
<!-- Node25 -->
<g id="Node000025" class="node">
<title>Node25</title>
<g id="a_Node000025"><a xlink:title=" ">
<polygon fill="white" stroke="#666666" points="571.75,-157.25 471,-157.25 471,-126.75 571.75,-126.75 571.75,-157.25"/>
<text text-anchor="start" x="479" y="-143.75" font-family="Helvetica,sans-Serif" font-size="10.00">std::unordered_map</text>
<text text-anchor="middle" x="521.38" y="-132.5" font-family="Helvetica,sans-Serif" font-size="10.00">&lt; std::string, T &gt;</text>
</a>
</g>
</g>
<!-- Node25&#45;&gt;Node24 -->
<g id="edge29_Node000024_Node000025" class="edge">
<title>Node25&#45;&gt;Node24</title>
<g id="a_edge29_Node000024_Node000025"><a xlink:title=" ">
<path fill="none" stroke="#63b8ff" d="M583.27,-142C625.78,-142 682.35,-142 725.19,-142"/>
<polygon fill="#63b8ff" stroke="#63b8ff" points="583.47,-138.5 573.47,-142 583.47,-145.5 583.47,-138.5"/>
</a>
</g>
</g>
<!-- Node26 -->
<g id="Node000026" class="node">
<title>Node26</title>
<g id="a_Node000026"><a xlink:href="classdunedaq_1_1oks_1_1OksString.html" target="_top" xlink:title="Class OKS string.">
<polygon fill="white" stroke="#666666" points="1092,-88.62 971,-88.62 971,-69.38 1092,-69.38 1092,-88.62"/>
<text text-anchor="middle" x="1031.5" y="-75.12" font-family="Helvetica,sans-Serif" font-size="10.00">dunedaq::oks::OksString</text>
</a>
</g>
</g>
<!-- Node26&#45;&gt;Node22 -->
<g id="edge31_Node000022_Node000026" class="edge">
<title>Node26&#45;&gt;Node22</title>
<g id="a_edge31_Node000022_Node000026"><a xlink:title=" ">
<path fill="none" stroke="#9a32cd" stroke-dasharray="5,2" d="M1103.55,-79.39C1141.16,-81.24 1187.71,-86.16 1227.75,-98.25 1245.93,-103.74 1264.8,-113.79 1279.05,-122.41"/>
<polygon fill="#9a32cd" stroke="#9a32cd" points="1103.84,-75.9 1093.7,-78.98 1103.54,-82.9 1103.84,-75.9"/>
</a>
</g>
<text text-anchor="middle" x="1172.62" y="-123.25" font-family="Helvetica,sans-Serif" font-size="10.00" fill="grey"> STRING</text>
<text text-anchor="middle" x="1172.62" y="-112" font-family="Helvetica,sans-Serif" font-size="10.00" fill="grey">class_id</text>
<text text-anchor="middle" x="1172.62" y="-100.75" font-family="Helvetica,sans-Serif" font-size="10.00" fill="grey">object_id</text>
</g>
<!-- Node27 -->
<g id="Node000027" class="node">
<title>Node27</title>
<g id="a_Node000027"><a xlink:title=" ">
<polygon fill="white" stroke="#666666" points="817.62,-88.62 759.62,-88.62 759.62,-69.38 817.62,-69.38 817.62,-88.62"/>
<text text-anchor="middle" x="788.62" y="-75.12" font-family="Helvetica,sans-Serif" font-size="10.00">std::string</text>
</a>
</g>
</g>
<!-- Node27&#45;&gt;Node26 -->
<g id="edge32_Node000026_Node000027" class="edge">
<title>Node27&#45;&gt;Node26</title>
<g id="a_edge32_Node000026_Node000027"><a xlink:title=" ">
<path fill="none" stroke="#63b8ff" d="M829.22,-79C867.74,-79 926.73,-79 970.91,-79"/>
<polygon fill="#63b8ff" stroke="#63b8ff" points="829.24,-75.5 819.24,-79 829.24,-82.5 829.24,-75.5"/>
</a>
</g>
</g>
<!-- Node28&#45;&gt;Node2 -->
<g id="edge35_Node000002_Node000028" class="edge">
<title>Node28&#45;&gt;Node2</title>
<g id="a_edge35_Node000002_Node000028"><a xlink:title=" ">
<path fill="none" stroke="#9a32cd" stroke-dasharray="5,2" d="M969.08,-346.56C961.2,-344.68 953.2,-343 945.5,-341.75 909.92,-335.95 869.24,-333.82 838.36,-333.1"/>
<polygon fill="#9a32cd" stroke="#9a32cd" points="968.08,-349.92 978.63,-348.97 969.78,-343.13 968.08,-349.92"/>
</a>
</g>
<text text-anchor="middle" x="907.62" y="-342.75" font-family="Helvetica,sans-Serif" font-size="10.00" fill="grey"> m_check_db_obj</text>
</g>
</g>
</svg>
