<?xml version="1.0" encoding="UTF-8" standalone="no"?>
<!DOCTYPE svg PUBLIC "-//W3C//DTD SVG 1.1//EN"
 "http://www.w3.org/Graphics/SVG/1.1/DTD/svg11.dtd">
<!-- Generated by graphviz version 9.0.0 (20230911.1827)
 -->
<!-- Title: dunedaq::oksdbinterfaces::Configuration::Cache&lt; T &gt; Pages: 1 -->
<svg width="1750pt" height="427pt"
 viewBox="0.00 0.00 1750.25 427.00" xmlns="http://www.w3.org/2000/svg" xmlns:xlink="http://www.w3.org/1999/xlink">
<g id="graph0" class="graph" transform="scale(1 1) rotate(0) translate(4 423)">
<title>dunedaq::oksdbinterfaces::Configuration::Cache&lt; T &gt;</title>
<!-- Node1 -->
<g id="Node000001" class="node">
<title>Node1</title>
<g id="a_Node000001"><a xlink:title="Cache of template object of given type.">
<polygon fill="#999999" stroke="#666666" points="1742.25,-74.5 1610.75,-74.5 1610.75,-44 1742.25,-44 1742.25,-74.5"/>
<text text-anchor="start" x="1618.75" y="-61" font-family="Helvetica,sans-Serif" font-size="10.00">dunedaq::oksdbinterfaces</text>
<text text-anchor="middle" x="1676.5" y="-49.75" font-family="Helvetica,sans-Serif" font-size="10.00">::Configuration::Cache&lt; T &gt;</text>
</a>
</g>
</g>
<!-- Node2 -->
<g id="Node000002" class="node">
<title>Node2</title>
<g id="a_Node000002"><a xlink:href="classdunedaq_1_1oksdbinterfaces_1_1CacheBase.html" target="_top" xlink:title="Defines base class for cache of template objects.">
<polygon fill="white" stroke="#666666" points="1481.75,-133.5 1355.5,-133.5 1355.5,-103 1481.75,-103 1481.75,-133.5"/>
<text text-anchor="start" x="1363.5" y="-120" font-family="Helvetica,sans-Serif" font-size="10.00">dunedaq::oksdbinterfaces</text>
<text text-anchor="middle" x="1418.62" y="-108.75" font-family="Helvetica,sans-Serif" font-size="10.00">::CacheBase</text>
</a>
</g>
</g>
<!-- Node2&#45;&gt;Node1 -->
<g id="edge1_Node000001_Node000002" class="edge">
<title>Node2&#45;&gt;Node1</title>
<g id="a_edge1_Node000001_Node000002"><a xlink:title=" ">
<path fill="none" stroke="#63b8ff" d="M1493.24,-100.77C1495.44,-100.25 1497.61,-99.75 1499.75,-99.25 1536.33,-90.75 1577.23,-81.43 1610.37,-73.93"/>
<polygon fill="#63b8ff" stroke="#63b8ff" points="1492.57,-97.33 1483.64,-103.02 1494.17,-104.14 1492.57,-97.33"/>
</a>
</g>
</g>
<!-- Node3 -->
<g id="Node000003" class="node">
<title>Node3</title>
<g id="a_Node000003"><a xlink:href="structdunedaq_1_1oksdbinterfaces_1_1DalFactoryFunctions.html" target="_top" xlink:title=" ">
<polygon fill="white" stroke="#666666" points="1739.62,-192.5 1613.38,-192.5 1613.38,-162 1739.62,-162 1739.62,-192.5"/>
<text text-anchor="start" x="1621.38" y="-179" font-family="Helvetica,sans-Serif" font-size="10.00">dunedaq::oksdbinterfaces</text>
<text text-anchor="middle" x="1676.5" y="-167.75" font-family="Helvetica,sans-Serif" font-size="10.00">::DalFactoryFunctions</text>
</a>
</g>
</g>
<!-- Node2&#45;&gt;Node3 -->
<g id="edge16_Node000003_Node000002" class="edge">
<title>Node2&#45;&gt;Node3</title>
<g id="a_edge16_Node000003_Node000002"><a xlink:title=" ">
<path fill="none" stroke="#9a32cd" stroke-dasharray="5,2" d="M1493.32,-106.63C1524.69,-104.36 1561.23,-105.32 1592.75,-115.75 1619.94,-124.75 1645.47,-146.52 1660.79,-161.59"/>
<polygon fill="#9a32cd" stroke="#9a32cd" points="1493.19,-103.13 1483.53,-107.47 1493.79,-110.1 1493.19,-103.13"/>
</a>
</g>
<text text-anchor="middle" x="1546.25" y="-128.25" font-family="Helvetica,sans-Serif" font-size="10.00" fill="grey"> m_rename_object_fn</text>
<text text-anchor="middle" x="1546.25" y="-117" font-family="Helvetica,sans-Serif" font-size="10.00" fill="grey">m_unread_object_fn</text>
</g>
<!-- Node3&#45;&gt;Node2 -->
<g id="edge2_Node000002_Node000003" class="edge">
<title>Node3&#45;&gt;Node2</title>
<g id="a_edge2_Node000002_Node000003"><a xlink:title=" ">
<path fill="none" stroke="#9a32cd" stroke-dasharray="5,2" d="M1602.02,-164.22C1570.4,-158.2 1533.1,-150.55 1499.75,-142.25 1489.89,-139.8 1479.43,-136.89 1469.43,-133.96"/>
<polygon fill="#9a32cd" stroke="#9a32cd" points="1601,-167.59 1611.47,-166 1602.29,-160.71 1601,-167.59"/>
</a>
</g>
<text text-anchor="middle" x="1546.25" y="-163" font-family="Helvetica,sans-Serif" font-size="10.00" fill="grey"> m_functions</text>
</g>
<!-- Node4 -->
<g id="Node000004" class="node">
<title>Node4</title>
<g id="a_Node000004"><a xlink:href="classdunedaq_1_1oksdbinterfaces_1_1Configuration.html" target="_top" xlink:title=" ">
<polygon fill="white" stroke="#666666" points="626.12,-251.5 499.88,-251.5 499.88,-221 626.12,-221 626.12,-251.5"/>
<text text-anchor="start" x="507.88" y="-238" font-family="Helvetica,sans-Serif" font-size="10.00">dunedaq::oksdbinterfaces</text>
<text text-anchor="middle" x="563" y="-226.75" font-family="Helvetica,sans-Serif" font-size="10.00">::Configuration</text>
</a>
</g>
</g>
<!-- Node4&#45;&gt;Node3 -->
<g id="edge3_Node000003_Node000004" class="edge">
<title>Node4&#45;&gt;Node3</title>
<g id="a_edge3_Node000003_Node000004"><a xlink:title=" ">
<path fill="none" stroke="#9a32cd" stroke-dasharray="5,2" d="M628.37,-217.69C678.33,-204.92 749.54,-190.25 813.12,-190.25 813.12,-190.25 813.12,-190.25 1419.62,-190.25 1485.68,-190.25 1561.2,-185.88 1612.98,-182.2"/>
<polygon fill="#9a32cd" stroke="#9a32cd" points="627.67,-214.26 618.88,-220.17 629.44,-221.03 627.67,-214.26"/>
</a>
</g>
<text text-anchor="middle" x="1120.5" y="-192" font-family="Helvetica,sans-Serif" font-size="10.00" fill="grey"> m_update_fn</text>
</g>
<!-- Node13 -->
<g id="Node000013" class="node">
<title>Node13</title>
<g id="a_Node000013"><a xlink:href="classdunedaq_1_1oksdbinterfaces_1_1ConfigurationImpl.html" target="_top" xlink:title="Provides pure virtual interface used by the Configuration class.">
<polygon fill="white" stroke="#666666" points="877.25,-315.5 751,-315.5 751,-285 877.25,-285 877.25,-315.5"/>
<text text-anchor="start" x="759" y="-302" font-family="Helvetica,sans-Serif" font-size="10.00">dunedaq::oksdbinterfaces</text>
<text text-anchor="middle" x="814.12" y="-290.75" font-family="Helvetica,sans-Serif" font-size="10.00">::ConfigurationImpl</text>
</a>
</g>
</g>
<!-- Node4&#45;&gt;Node13 -->
<g id="edge15_Node000013_Node000004" class="edge">
<title>Node4&#45;&gt;Node13</title>
<g id="a_edge15_Node000013_Node000004"><a xlink:title=" ">
<path fill="none" stroke="#9a32cd" stroke-dasharray="5,2" d="M602.02,-256.9C619.9,-265.74 641.79,-275.36 662.5,-281.25 690.89,-289.32 723.27,-293.97 750.72,-296.64"/>
<polygon fill="#9a32cd" stroke="#9a32cd" points="603.86,-253.9 593.35,-252.5 600.69,-260.14 603.86,-253.9"/>
</a>
</g>
<text text-anchor="middle" x="697.75" y="-296" font-family="Helvetica,sans-Serif" font-size="10.00" fill="grey"> m_conf</text>
</g>
<!-- Node16 -->
<g id="Node000016" class="node">
<title>Node16</title>
<g id="a_Node000016"><a xlink:href="classdunedaq_1_1oksdbinterfaces_1_1DalObject.html" target="_top" xlink:title="The base class for any generated DAL object.">
<polygon fill="white" stroke="#666666" points="1481.75,-251.5 1355.5,-251.5 1355.5,-221 1481.75,-221 1481.75,-251.5"/>
<text text-anchor="start" x="1363.5" y="-238" font-family="Helvetica,sans-Serif" font-size="10.00">dunedaq::oksdbinterfaces</text>
<text text-anchor="middle" x="1418.62" y="-226.75" font-family="Helvetica,sans-Serif" font-size="10.00">::DalObject</text>
</a>
</g>
</g>
<!-- Node4&#45;&gt;Node16 -->
<g id="edge18_Node000016_Node000004" class="edge">
<title>Node4&#45;&gt;Node16</title>
<g id="a_edge18_Node000016_Node000004"><a xlink:title=" ">
<path fill="none" stroke="#9a32cd" stroke-dasharray="5,2" d="M637.71,-236.25C687.3,-236.25 754.14,-236.25 813.12,-236.25 813.12,-236.25 813.12,-236.25 1231.88,-236.25 1272.99,-236.25 1319.23,-236.25 1355.28,-236.25"/>
<polygon fill="#9a32cd" stroke="#9a32cd" points="637.97,-232.75 627.97,-236.25 637.97,-239.75 637.97,-232.75"/>
</a>
</g>
<text text-anchor="middle" x="1010.12" y="-238" font-family="Helvetica,sans-Serif" font-size="10.00" fill="grey"> p_db</text>
</g>
<!-- Node5 -->
<g id="Node000005" class="node">
<title>Node5</title>
<g id="a_Node000005"><a xlink:href="classdunedaq_1_1oksdbinterfaces_1_1map.html" target="_top" xlink:title=" ">
<polygon fill="white" stroke="#666666" points="356.25,-262.12 198.5,-262.12 198.5,-220.38 356.25,-220.38 356.25,-262.12"/>
<text text-anchor="start" x="206.5" y="-248.62" font-family="Helvetica,sans-Serif" font-size="10.00">dunedaq::oksdbinterfaces</text>
<text text-anchor="start" x="206.5" y="-237.38" font-family="Helvetica,sans-Serif" font-size="10.00">::map&lt; dunedaq::oksdbinterfaces</text>
<text text-anchor="middle" x="277.38" y="-226.12" font-family="Helvetica,sans-Serif" font-size="10.00">::class_t * &gt;</text>
</a>
</g>
</g>
<!-- Node5&#45;&gt;Node4 -->
<g id="edge4_Node000004_Node000005" class="edge">
<title>Node5&#45;&gt;Node4</title>
<g id="a_edge4_Node000004_Node000005"><a xlink:title=" ">
<path fill="none" stroke="#9a32cd" stroke-dasharray="5,2" d="M367.72,-237.45C370.43,-237.38 373.11,-237.31 375.75,-237.25 416.97,-236.29 463.33,-236.04 499.48,-236.03"/>
<polygon fill="#9a32cd" stroke="#9a32cd" points="367.9,-233.95 358.01,-237.75 368.11,-240.94 367.9,-233.95"/>
</a>
</g>
<text text-anchor="start" x="375.75" y="-272.75" font-family="Helvetica,sans-Serif" font-size="10.00" fill="grey"> p_all_classes_desc</text>
<text text-anchor="middle" x="419.62" y="-261.5" font-family="Helvetica,sans-Serif" font-size="10.00" fill="grey">_cache</text>
<text text-anchor="start" x="375.75" y="-250.25" font-family="Helvetica,sans-Serif" font-size="10.00" fill="grey">p_direct_classes</text>
<text text-anchor="middle" x="419.62" y="-239" font-family="Helvetica,sans-Serif" font-size="10.00" fill="grey">_desc_cache</text>
</g>
<!-- Node6 -->
<g id="Node000006" class="node">
<title>Node6</title>
<g id="a_Node000006"><a xlink:title=" ">
<polygon fill="white" stroke="#666666" points="149.88,-263.12 10.12,-263.12 10.12,-221.38 149.88,-221.38 149.88,-263.12"/>
<text text-anchor="start" x="18.12" y="-249.62" font-family="Helvetica,sans-Serif" font-size="10.00">std::unordered_map</text>
<text text-anchor="start" x="18.12" y="-238.38" font-family="Helvetica,sans-Serif" font-size="10.00">&lt; std::string, dunedaq</text>
<text text-anchor="middle" x="80" y="-227.12" font-family="Helvetica,sans-Serif" font-size="10.00">::oksdbinterfaces::class_t * &gt;</text>
</a>
</g>
</g>
<!-- Node6&#45;&gt;Node5 -->
<g id="edge5_Node000005_Node000006" class="edge">
<title>Node6&#45;&gt;Node5</title>
<g id="a_edge5_Node000005_Node000006"><a xlink:title=" ">
<path fill="none" stroke="#63b8ff" d="M161.64,-241.84C173.77,-241.78 186.25,-241.71 198.32,-241.65"/>
<polygon fill="#63b8ff" stroke="#63b8ff" points="161.65,-238.34 151.67,-241.89 161.69,-245.34 161.65,-238.34"/>
</a>
</g>
</g>
<!-- Node7 -->
<g id="Node000007" class="node">
<title>Node7</title>
<g id="a_Node000007"><a xlink:href="classdunedaq_1_1oksdbinterfaces_1_1fmap.html" target="_top" xlink:title=" ">
<polygon fill="white" stroke="#666666" points="340.5,-200.12 214.25,-200.12 214.25,-158.38 340.5,-158.38 340.5,-200.12"/>
<text text-anchor="start" x="222.25" y="-186.62" font-family="Helvetica,sans-Serif" font-size="10.00">dunedaq::oksdbinterfaces</text>
<text text-anchor="start" x="222.25" y="-175.38" font-family="Helvetica,sans-Serif" font-size="10.00">::fmap&lt; oksdbinterfaces</text>
<text text-anchor="middle" x="277.38" y="-164.12" font-family="Helvetica,sans-Serif" font-size="10.00">::fset &gt;</text>
</a>
</g>
</g>
<!-- Node7&#45;&gt;Node4 -->
<g id="edge6_Node000004_Node000007" class="edge">
<title>Node7&#45;&gt;Node4</title>
<g id="a_edge6_Node000004_Node000007"><a xlink:title=" ">
<path fill="none" stroke="#9a32cd" stroke-dasharray="5,2" d="M352.11,-189.03C386.19,-194.05 427.08,-200.79 463.5,-208.75 478.68,-212.07 494.99,-216.33 509.88,-220.5"/>
<polygon fill="#9a32cd" stroke="#9a32cd" points="352.73,-185.58 342.34,-187.61 351.73,-192.51 352.73,-185.58"/>
</a>
</g>
<text text-anchor="middle" x="419.62" y="-221.25" font-family="Helvetica,sans-Serif" font-size="10.00" fill="grey"> p_subclasses</text>
<text text-anchor="middle" x="419.62" y="-210" font-family="Helvetica,sans-Serif" font-size="10.00" fill="grey">p_superclasses</text>
</g>
<!-- Node8 -->
<g id="Node000008" class="node">
<title>Node8</title>
<g id="a_Node000008"><a xlink:title=" ">
<polygon fill="white" stroke="#666666" points="137.5,-203.75 22.5,-203.75 22.5,-150.75 137.5,-150.75 137.5,-203.75"/>
<text text-anchor="start" x="30.5" y="-190.25" font-family="Helvetica,sans-Serif" font-size="10.00">std::unordered_map</text>
<text text-anchor="start" x="30.5" y="-179" font-family="Helvetica,sans-Serif" font-size="10.00">&lt; const std::string</text>
<text text-anchor="start" x="30.5" y="-167.75" font-family="Helvetica,sans-Serif" font-size="10.00"> *, oksdbinterfaces::</text>
<text text-anchor="middle" x="80" y="-156.5" font-family="Helvetica,sans-Serif" font-size="10.00">fset , string_ptr_hash &gt;</text>
</a>
</g>
</g>
<!-- Node8&#45;&gt;Node7 -->
<g id="edge7_Node000007_Node000008" class="edge">
<title>Node8&#45;&gt;Node7</title>
<g id="a_edge7_Node000007_Node000008"><a xlink:title=" ">
<path fill="none" stroke="#63b8ff" d="M149.23,-177.95C170.28,-178.16 193.35,-178.4 213.98,-178.61"/>
<polygon fill="#63b8ff" stroke="#63b8ff" points="149.32,-174.45 139.29,-177.85 149.25,-181.45 149.32,-174.45"/>
</a>
</g>
</g>
<!-- Node9 -->
<g id="Node000009" class="node">
<title>Node9</title>
<g id="a_Node000009"><a xlink:href="classdunedaq_1_1oksdbinterfaces_1_1map.html" target="_top" xlink:title=" ">
<polygon fill="white" stroke="#666666" points="352.5,-132.75 202.25,-132.75 202.25,-79.75 352.5,-79.75 352.5,-132.75"/>
<text text-anchor="start" x="210.25" y="-119.25" font-family="Helvetica,sans-Serif" font-size="10.00">dunedaq::oksdbinterfaces</text>
<text text-anchor="start" x="210.25" y="-108" font-family="Helvetica,sans-Serif" font-size="10.00">::map&lt; std::list&lt; dunedaq</text>
<text text-anchor="start" x="210.25" y="-96.75" font-family="Helvetica,sans-Serif" font-size="10.00">::oksdbinterfaces::Configuration</text>
<text text-anchor="middle" x="277.38" y="-85.5" font-family="Helvetica,sans-Serif" font-size="10.00">::AttributeConverterBase * &gt; * &gt;</text>
</a>
</g>
</g>
<!-- Node9&#45;&gt;Node4 -->
<g id="edge8_Node000004_Node000009" class="edge">
<title>Node9&#45;&gt;Node4</title>
<g id="a_edge8_Node000004_Node000009"><a xlink:title=" ">
<path fill="none" stroke="#9a32cd" stroke-dasharray="5,2" d="M363.27,-135.12C395.22,-146.91 431.54,-161.43 463.5,-177 490.23,-190.02 519.21,-207.96 538.77,-220.67"/>
<polygon fill="#9a32cd" stroke="#9a32cd" points="364.63,-131.89 354.04,-131.74 362.23,-138.46 364.63,-131.89"/>
</a>
</g>
<text text-anchor="middle" x="419.62" y="-178" font-family="Helvetica,sans-Serif" font-size="10.00" fill="grey"> m_convert_map</text>
</g>
<!-- Node10 -->
<g id="Node000010" class="node">
<title>Node10</title>
<g id="a_Node000010"><a xlink:title=" ">
<polygon fill="white" stroke="#666666" points="160,-132.38 0,-132.38 0,-68.12 160,-68.12 160,-132.38"/>
<text text-anchor="start" x="8" y="-118.88" font-family="Helvetica,sans-Serif" font-size="10.00">std::unordered_map</text>
<text text-anchor="start" x="8" y="-107.62" font-family="Helvetica,sans-Serif" font-size="10.00">&lt; std::string, std::</text>
<text text-anchor="start" x="8" y="-96.38" font-family="Helvetica,sans-Serif" font-size="10.00">list&lt; dunedaq::oksdbinterfaces</text>
<text text-anchor="start" x="8" y="-85.12" font-family="Helvetica,sans-Serif" font-size="10.00">::Configuration::AttributeConverter</text>
<text text-anchor="middle" x="80" y="-73.88" font-family="Helvetica,sans-Serif" font-size="10.00">Base * &gt; * &gt;</text>
</a>
</g>
</g>
<!-- Node10&#45;&gt;Node9 -->
<g id="edge9_Node000009_Node000010" class="edge">
<title>Node10&#45;&gt;Node9</title>
<g id="a_edge9_Node000009_Node000010"><a xlink:title=" ">
<path fill="none" stroke="#63b8ff" d="M171.82,-103.04C181.94,-103.35 192.15,-103.66 202.02,-103.97"/>
<polygon fill="#63b8ff" stroke="#63b8ff" points="172.08,-99.55 161.98,-102.74 171.87,-106.54 172.08,-99.55"/>
</a>
</g>
</g>
<!-- Node11 -->
<g id="Node000011" class="node">
<title>Node11</title>
<g id="a_Node000011"><a xlink:href="classdunedaq_1_1oksdbinterfaces_1_1fmap.html" target="_top" xlink:title=" ">
<polygon fill="white" stroke="#666666" points="357.75,-325.12 197,-325.12 197,-283.38 357.75,-283.38 357.75,-325.12"/>
<text text-anchor="start" x="205" y="-311.62" font-family="Helvetica,sans-Serif" font-size="10.00">dunedaq::oksdbinterfaces</text>
<text text-anchor="start" x="205" y="-300.38" font-family="Helvetica,sans-Serif" font-size="10.00">::fmap&lt; dunedaq::oksdbinterfaces</text>
<text text-anchor="middle" x="277.38" y="-289.12" font-family="Helvetica,sans-Serif" font-size="10.00">::CacheBase * &gt;</text>
</a>
</g>
</g>
<!-- Node11&#45;&gt;Node4 -->
<g id="edge10_Node000004_Node000011" class="edge">
<title>Node11&#45;&gt;Node4</title>
<g id="a_edge10_Node000004_Node000011"><a xlink:title=" ">
<path fill="none" stroke="#9a32cd" stroke-dasharray="5,2" d="M369.29,-299.25C399.66,-296.06 433.42,-290.82 463.5,-282.25 488.73,-275.06 515.6,-262.12 534.89,-251.79"/>
<polygon fill="#9a32cd" stroke="#9a32cd" points="368.95,-295.77 359.34,-300.23 369.64,-302.74 368.95,-295.77"/>
</a>
</g>
<text text-anchor="middle" x="419.62" y="-299" font-family="Helvetica,sans-Serif" font-size="10.00" fill="grey"> m_cache_map</text>
</g>
<!-- Node12 -->
<g id="Node000012" class="node">
<title>Node12</title>
<g id="a_Node000012"><a xlink:title=" ">
<polygon fill="white" stroke="#666666" points="158.5,-333.75 1.5,-333.75 1.5,-280.75 158.5,-280.75 158.5,-333.75"/>
<text text-anchor="start" x="9.5" y="-320.25" font-family="Helvetica,sans-Serif" font-size="10.00">std::unordered_map</text>
<text text-anchor="start" x="9.5" y="-309" font-family="Helvetica,sans-Serif" font-size="10.00">&lt; const std::string</text>
<text text-anchor="start" x="9.5" y="-297.75" font-family="Helvetica,sans-Serif" font-size="10.00"> *, dunedaq::oksdbinterfaces</text>
<text text-anchor="middle" x="80" y="-286.5" font-family="Helvetica,sans-Serif" font-size="10.00">::CacheBase *, string_ptr_hash &gt;</text>
</a>
</g>
</g>
<!-- Node12&#45;&gt;Node11 -->
<g id="edge11_Node000011_Node000012" class="edge">
<title>Node12&#45;&gt;Node11</title>
<g id="a_edge11_Node000011_Node000012"><a xlink:title=" ">
<path fill="none" stroke="#63b8ff" d="M170.26,-305.88C179.05,-305.74 187.94,-305.61 196.63,-305.47"/>
<polygon fill="#63b8ff" stroke="#63b8ff" points="170.24,-302.38 160.29,-306.03 170.34,-309.38 170.24,-302.38"/>
</a>
</g>
</g>
<!-- Node13&#45;&gt;Node4 -->
<g id="edge12_Node000004_Node000013" class="edge">
<title>Node13&#45;&gt;Node4</title>
<g id="a_edge12_Node000004_Node000013"><a xlink:title=" ">
<path fill="none" stroke="#9a32cd" stroke-dasharray="5,2" d="M765.03,-280.63C754.58,-276.78 743.5,-273.01 733,-270 698.2,-260.03 658.54,-251.94 626.39,-246.19"/>
<polygon fill="#9a32cd" stroke="#9a32cd" points="763.64,-283.85 774.23,-284.11 766.11,-277.3 763.64,-283.85"/>
</a>
</g>
<text text-anchor="middle" x="697.75" y="-271" font-family="Helvetica,sans-Serif" font-size="10.00" fill="grey"> m_impl</text>
</g>
<!-- Node18 -->
<g id="Node000018" class="node">
<title>Node18</title>
<g id="a_Node000018"><a xlink:href="classdunedaq_1_1oksdbinterfaces_1_1ConfigObjectImpl.html" target="_top" xlink:title="Implements database objects.">
<polygon fill="white" stroke="#666666" points="1073.25,-307.5 947,-307.5 947,-277 1073.25,-277 1073.25,-307.5"/>
<text text-anchor="start" x="955" y="-294" font-family="Helvetica,sans-Serif" font-size="10.00">dunedaq::oksdbinterfaces</text>
<text text-anchor="middle" x="1010.12" y="-282.75" font-family="Helvetica,sans-Serif" font-size="10.00">::ConfigObjectImpl</text>
</a>
</g>
</g>
<!-- Node13&#45;&gt;Node18 -->
<g id="edge21_Node000018_Node000013" class="edge">
<title>Node13&#45;&gt;Node18</title>
<g id="a_edge21_Node000018_Node000013"><a xlink:title=" ">
<path fill="none" stroke="#9a32cd" stroke-dasharray="5,2" d="M888.95,-297.21C908.02,-296.42 928.37,-295.58 946.79,-294.82"/>
<polygon fill="#9a32cd" stroke="#9a32cd" points="888.94,-293.7 879.09,-297.61 889.22,-300.7 888.94,-293.7"/>
</a>
</g>
<text text-anchor="middle" x="912.12" y="-298" font-family="Helvetica,sans-Serif" font-size="10.00" fill="grey"> m_impl</text>
</g>
<!-- Node14 -->
<g id="Node000014" class="node">
<title>Node14</title>
<g id="a_Node000014"><a xlink:href="classdunedaq_1_1oksdbinterfaces_1_1pmap.html" target="_top" xlink:title=" ">
<polygon fill="white" stroke="#666666" points="644.5,-385.75 481.5,-385.75 481.5,-332.75 644.5,-332.75 644.5,-385.75"/>
<text text-anchor="start" x="489.5" y="-372.25" font-family="Helvetica,sans-Serif" font-size="10.00">dunedaq::oksdbinterfaces</text>
<text text-anchor="start" x="489.5" y="-361" font-family="Helvetica,sans-Serif" font-size="10.00">::pmap&lt; dunedaq::oksdbinterfaces</text>
<text text-anchor="start" x="489.5" y="-349.75" font-family="Helvetica,sans-Serif" font-size="10.00">::map&lt; dunedaq::oksdbinterfaces</text>
<text text-anchor="middle" x="563" y="-338.5" font-family="Helvetica,sans-Serif" font-size="10.00">::ConfigObjectImpl * &gt; * &gt;</text>
</a>
</g>
</g>
<!-- Node14&#45;&gt;Node13 -->
<g id="edge13_Node000013_Node000014" class="edge">
<title>Node14&#45;&gt;Node13</title>
<g id="a_edge13_Node000013_Node000014"><a xlink:title=" ">
<path fill="none" stroke="#9a32cd" stroke-dasharray="5,2" d="M655.92,-337.48C687.51,-330 722.11,-321.8 750.8,-315.01"/>
<polygon fill="#9a32cd" stroke="#9a32cd" points="655.28,-334.04 646.36,-339.75 656.89,-340.85 655.28,-334.04"/>
</a>
</g>
<text text-anchor="middle" x="697.75" y="-336" font-family="Helvetica,sans-Serif" font-size="10.00" fill="grey"> m_impl_objects</text>
</g>
<!-- Node15 -->
<g id="Node000015" class="node">
<title>Node15</title>
<g id="a_Node000015"><a xlink:title=" ">
<polygon fill="white" stroke="#666666" points="344.62,-419 210.12,-419 210.12,-343.5 344.62,-343.5 344.62,-419"/>
<text text-anchor="start" x="218.12" y="-405.5" font-family="Helvetica,sans-Serif" font-size="10.00">std::map&lt; const std</text>
<text text-anchor="start" x="218.12" y="-394.25" font-family="Helvetica,sans-Serif" font-size="10.00">::string *, dunedaq</text>
<text text-anchor="start" x="218.12" y="-383" font-family="Helvetica,sans-Serif" font-size="10.00">::oksdbinterfaces::map</text>
<text text-anchor="start" x="218.12" y="-371.75" font-family="Helvetica,sans-Serif" font-size="10.00">&lt; dunedaq::oksdbinterfaces</text>
<text text-anchor="start" x="218.12" y="-360.5" font-family="Helvetica,sans-Serif" font-size="10.00">::ConfigObjectImpl * &gt; * ,</text>
<text text-anchor="middle" x="277.38" y="-349.25" font-family="Helvetica,sans-Serif" font-size="10.00"> string_ptr_compare &gt;</text>
</a>
</g>
</g>
<!-- Node15&#45;&gt;Node14 -->
<g id="edge14_Node000014_Node000015" class="edge">
<title>Node15&#45;&gt;Node14</title>
<g id="a_edge14_Node000014_Node000015"><a xlink:title=" ">
<path fill="none" stroke="#63b8ff" d="M356.13,-375.22C394.99,-372.2 441.99,-368.56 481.26,-365.51"/>
<polygon fill="#63b8ff" stroke="#63b8ff" points="356.08,-371.71 346.38,-375.97 356.62,-378.69 356.08,-371.71"/>
</a>
</g>
</g>
<!-- Node16&#45;&gt;Node3 -->
<g id="edge17_Node000003_Node000016" class="edge">
<title>Node16&#45;&gt;Node3</title>
<g id="a_edge17_Node000003_Node000016"><a xlink:title=" ">
<path fill="none" stroke="#9a32cd" stroke-dasharray="5,2" d="M1493.29,-224.85C1524.22,-219.5 1560.43,-212.47 1592.75,-204.25 1605.34,-201.05 1618.82,-196.95 1631.15,-192.92"/>
<polygon fill="#9a32cd" stroke="#9a32cd" points="1492.92,-221.37 1483.65,-226.5 1494.1,-228.27 1492.92,-221.37"/>
</a>
</g>
<text text-anchor="middle" x="1546.25" y="-224" font-family="Helvetica,sans-Serif" font-size="10.00" fill="grey"> m_creator_fn</text>
</g>
<!-- Node17 -->
<g id="Node000017" class="node">
<title>Node17</title>
<g id="a_Node000017"><a xlink:href="classdunedaq_1_1oksdbinterfaces_1_1ConfigObject.html" target="_top" xlink:title="Represents database objects.">
<polygon fill="white" stroke="#666666" points="1294,-295.5 1167.75,-295.5 1167.75,-265 1294,-265 1294,-295.5"/>
<text text-anchor="start" x="1175.75" y="-282" font-family="Helvetica,sans-Serif" font-size="10.00">dunedaq::oksdbinterfaces</text>
<text text-anchor="middle" x="1230.88" y="-270.75" font-family="Helvetica,sans-Serif" font-size="10.00">::ConfigObject</text>
</a>
</g>
</g>
<!-- Node17&#45;&gt;Node16 -->
<g id="edge19_Node000016_Node000017" class="edge">
<title>Node17&#45;&gt;Node16</title>
<g id="a_edge19_Node000016_Node000017"><a xlink:title=" ">
<path fill="none" stroke="#9a32cd" stroke-dasharray="5,2" d="M1304.99,-262.93C1321.56,-259.01 1339.02,-254.87 1355.1,-251.06"/>
<polygon fill="#9a32cd" stroke="#9a32cd" points="1304.64,-259.42 1295.72,-265.13 1306.25,-266.23 1304.64,-259.42"/>
</a>
</g>
<text text-anchor="middle" x="1324.75" y="-262" font-family="Helvetica,sans-Serif" font-size="10.00" fill="grey"> p_obj</text>
</g>
<!-- Node18&#45;&gt;Node17 -->
<g id="edge20_Node000017_Node000018" class="edge">
<title>Node18&#45;&gt;Node17</title>
<g id="a_edge20_Node000017_Node000018"><a xlink:title=" ">
<path fill="none" stroke="#9a32cd" stroke-dasharray="5,2" d="M1084.79,-288.21C1111.61,-286.74 1141.64,-285.09 1167.4,-283.68"/>
<polygon fill="#9a32cd" stroke="#9a32cd" points="1084.82,-284.7 1075.03,-288.74 1085.21,-291.69 1084.82,-284.7"/>
</a>
</g>
<text text-anchor="middle" x="1120.5" y="-289" font-family="Helvetica,sans-Serif" font-size="10.00" fill="grey"> m_impl</text>
</g>
<!-- Node19 -->
<g id="Node000019" class="node">
<title>Node19</title>
<g id="a_Node000019"><a xlink:href="classdunedaq_1_1oksdbinterfaces_1_1map.html" target="_top" xlink:title=" ">
<polygon fill="white" stroke="#666666" points="1481.75,-79.5 1355.5,-79.5 1355.5,-49 1481.75,-49 1481.75,-79.5"/>
<text text-anchor="start" x="1363.5" y="-66" font-family="Helvetica,sans-Serif" font-size="10.00">dunedaq::oksdbinterfaces</text>
<text text-anchor="middle" x="1418.62" y="-54.75" font-family="Helvetica,sans-Serif" font-size="10.00">::map&lt; T * &gt;</text>
</a>
</g>
</g>
<!-- Node19&#45;&gt;Node1 -->
<g id="edge22_Node000001_Node000019" class="edge">
<title>Node19&#45;&gt;Node1</title>
<g id="a_edge22_Node000001_Node000019"><a xlink:title=" ">
<path fill="none" stroke="#9a32cd" stroke-dasharray="5,2" d="M1493.52,-60.2C1495.62,-60.12 1497.7,-60.06 1499.75,-60 1536.35,-58.95 1577.25,-58.72 1610.39,-58.77"/>
<polygon fill="#9a32cd" stroke="#9a32cd" points="1493.53,-56.69 1483.67,-60.58 1493.8,-63.69 1493.53,-56.69"/>
</a>
</g>
<text text-anchor="middle" x="1546.25" y="-61" font-family="Helvetica,sans-Serif" font-size="10.00" fill="grey"> m_cache</text>
</g>
<!-- Node20 -->
<g id="Node000020" class="node">
<title>Node20</title>
<g id="a_Node000020"><a xlink:title=" ">
<polygon fill="white" stroke="#666666" points="1281.25,-79.5 1180.5,-79.5 1180.5,-49 1281.25,-49 1281.25,-79.5"/>
<text text-anchor="start" x="1188.5" y="-66" font-family="Helvetica,sans-Serif" font-size="10.00">std::unordered_map</text>
<text text-anchor="middle" x="1230.88" y="-54.75" font-family="Helvetica,sans-Serif" font-size="10.00">&lt; std::string, T &gt;</text>
</a>
</g>
</g>
<!-- Node20&#45;&gt;Node19 -->
<g id="edge23_Node000019_Node000020" class="edge">
<title>Node20&#45;&gt;Node19</title>
<g id="a_edge23_Node000019_Node000020"><a xlink:title=" ">
<path fill="none" stroke="#63b8ff" d="M1293.08,-64.25C1312.98,-64.25 1335.07,-64.25 1355.07,-64.25"/>
<polygon fill="#63b8ff" stroke="#63b8ff" points="1293.17,-60.75 1283.17,-64.25 1293.17,-67.75 1293.17,-60.75"/>
</a>
</g>
</g>
<!-- Node21 -->
<g id="Node000021" class="node">
<title>Node21</title>
<g id="a_Node000021"><a xlink:href="classdunedaq_1_1oksdbinterfaces_1_1multimap.html" target="_top" xlink:title=" ">
<polygon fill="white" stroke="#666666" points="1481.75,-30.5 1355.5,-30.5 1355.5,0 1481.75,0 1481.75,-30.5"/>
<text text-anchor="start" x="1363.5" y="-17" font-family="Helvetica,sans-Serif" font-size="10.00">dunedaq::oksdbinterfaces</text>
<text text-anchor="middle" x="1418.62" y="-5.75" font-family="Helvetica,sans-Serif" font-size="10.00">::multimap&lt; T * &gt;</text>
</a>
</g>
</g>
<!-- Node21&#45;&gt;Node1 -->
<g id="edge24_Node000001_Node000021" class="edge">
<title>Node21&#45;&gt;Node1</title>
<g id="a_edge24_Node000001_Node000021"><a xlink:title=" ">
<path fill="none" stroke="#9a32cd" stroke-dasharray="5,2" d="M1493.3,-26.48C1524.08,-31.32 1560.19,-37.2 1592.75,-43 1598.52,-44.03 1604.5,-45.13 1610.49,-46.26"/>
<polygon fill="#9a32cd" stroke="#9a32cd" points="1494.13,-23.07 1483.71,-24.98 1493.05,-29.98 1494.13,-23.07"/>
</a>
</g>
<text text-anchor="middle" x="1546.25" y="-44" font-family="Helvetica,sans-Serif" font-size="10.00" fill="grey"> m_t_cache</text>
</g>
<!-- Node22 -->
<g id="Node000022" class="node">
<title>Node22</title>
<g id="a_Node000022"><a xlink:title=" ">
<polygon fill="white" stroke="#666666" points="1291.75,-30.5 1170,-30.5 1170,0 1291.75,0 1291.75,-30.5"/>
<text text-anchor="start" x="1178" y="-17" font-family="Helvetica,sans-Serif" font-size="10.00">std::unordered_multimap</text>
<text text-anchor="middle" x="1230.88" y="-5.75" font-family="Helvetica,sans-Serif" font-size="10.00">&lt; std::string, T &gt;</text>
</a>
</g>
</g>
<!-- Node22&#45;&gt;Node21 -->
<g id="edge25_Node000021_Node000022" class="edge">
<title>Node22&#45;&gt;Node21</title>
<g id="a_edge25_Node000021_Node000022"><a xlink:title=" ">
<path fill="none" stroke="#63b8ff" d="M1303.23,-15.25C1320.31,-15.25 1338.42,-15.25 1355.07,-15.25"/>
<polygon fill="#63b8ff" stroke="#63b8ff" points="1303.7,-11.75 1293.7,-15.25 1303.7,-18.75 1303.7,-11.75"/>
</a>
</g>
</g>
</g>
</svg>
