<?xml version="1.0" encoding="UTF-8" standalone="no"?>
<!DOCTYPE svg PUBLIC "-//W3C//DTD SVG 1.1//EN"
 "http://www.w3.org/Graphics/SVG/1.1/DTD/svg11.dtd">
<!-- Generated by graphviz version 9.0.0 (20230911.1827)
 -->
<!-- Title: dbe::TableAttributeNode Pages: 1 -->
<svg width="236pt" height="105pt"
 viewBox="0.00 0.00 235.88 105.00" xmlns="http://www.w3.org/2000/svg" xmlns:xlink="http://www.w3.org/1999/xlink">
<g id="graph0" class="graph" transform="scale(1 1) rotate(0) translate(4 101)">
<title>dbe::TableAttributeNode</title>
<!-- Node1 -->
<g id="Node000001" class="node">
<title>Node1</title>
<g id="a_Node000001"><a xlink:title=" ">
<polygon fill="#999999" stroke="#666666" points="162.88,-19.25 42.62,-19.25 42.62,0 162.88,0 162.88,-19.25"/>
<text text-anchor="middle" x="102.75" y="-5.75" font-family="Helvetica,sans-Serif" font-size="10.00">dbe::TableAttributeNode</text>
</a>
</g>
</g>
<!-- Node2 -->
<g id="Node000002" class="node">
<title>Node2</title>
<g id="a_Node000002"><a xlink:href="classdbe_1_1TableNode.html" target="_top" xlink:title=" ">
<polygon fill="white" stroke="#666666" points="83.5,-91.38 0,-91.38 0,-72.12 83.5,-72.12 83.5,-91.38"/>
<text text-anchor="middle" x="41.75" y="-77.88" font-family="Helvetica,sans-Serif" font-size="10.00">dbe::TableNode</text>
</a>
</g>
</g>
<!-- Node2&#45;&gt;Node1 -->
<g id="edge1_Node000001_Node000002" class="edge">
<title>Node2&#45;&gt;Node1</title>
<g id="a_edge1_Node000001_Node000002"><a xlink:title=" ">
<path fill="none" stroke="#63b8ff" d="M56.99,-63.23C69.04,-49.38 85.35,-30.63 94.89,-19.66"/>
<polygon fill="#63b8ff" stroke="#63b8ff" points="54.39,-60.88 50.47,-70.73 59.67,-65.48 54.39,-60.88"/>
</a>
</g>
</g>
<!-- Node3 -->
<g id="Node000003" class="node">
<title>Node3</title>
<g id="a_Node000003"><a xlink:href="structdunedaq_1_1oksdbinterfaces_1_1attribute__t.html" target="_top" xlink:title=" ">
<polygon fill="white" stroke="#666666" points="227.88,-97 101.62,-97 101.62,-66.5 227.88,-66.5 227.88,-97"/>
<text text-anchor="start" x="109.62" y="-83.5" font-family="Helvetica,sans-Serif" font-size="10.00">dunedaq::oksdbinterfaces</text>
<text text-anchor="middle" x="164.75" y="-72.25" font-family="Helvetica,sans-Serif" font-size="10.00">::attribute_t</text>
</a>
</g>
</g>
<!-- Node3&#45;&gt;Node1 -->
<g id="edge2_Node000001_Node000003" class="edge">
<title>Node3&#45;&gt;Node1</title>
<g id="a_edge2_Node000001_Node000003"><a xlink:title=" ">
<path fill="none" stroke="#9a32cd" stroke-dasharray="5,2" d="M144.33,-57.66C132.75,-44.56 118.92,-28.92 110.49,-19.38"/>
<polygon fill="#9a32cd" stroke="#9a32cd" points="141.66,-59.91 150.9,-65.09 146.9,-55.28 141.66,-59.91"/>
</a>
</g>
<text text-anchor="middle" x="164.38" y="-39" font-family="Helvetica,sans-Serif" font-size="10.00" fill="grey"> AttributeData</text>
</g>
</g>
</svg>
