<?xml version="1.0" encoding="UTF-8" standalone="no"?>
<!DOCTYPE svg PUBLIC "-//W3C//DTD SVG 1.1//EN"
 "http://www.w3.org/Graphics/SVG/1.1/DTD/svg11.dtd">
<!-- Generated by graphviz version 9.0.0 (20230911.1827)
 -->
<!-- Title: DestroyGuard1 Pages: 1 -->
<svg width="1418pt" height="263pt"
 viewBox="0.00 0.00 1417.50 262.62" xmlns="http://www.w3.org/2000/svg" xmlns:xlink="http://www.w3.org/1999/xlink">
<g id="graph0" class="graph" transform="scale(1 1) rotate(0) translate(4 258.62)">
<title>DestroyGuard1</title>
<!-- Node1 -->
<g id="Node000001" class="node">
<title>Node1</title>
<g id="a_Node000001"><a xlink:title=" ">
<polygon fill="#999999" stroke="#666666" points="561.38,-118.62 480.88,-118.62 480.88,-99.38 561.38,-99.38 561.38,-118.62"/>
<text text-anchor="middle" x="521.12" y="-105.12" font-family="Helvetica,sans-Serif" font-size="10.00">DestroyGuard1</text>
</a>
</g>
</g>
<!-- Node2 -->
<g id="Node000002" class="node">
<title>Node2</title>
<g id="a_Node000002"><a xlink:href="classdunedaq_1_1oks_1_1OksKernel.html" target="_top" xlink:title="Provides interface to the OKS kernel.">
<polygon fill="white" stroke="#666666" points="345.5,-76.62 222.25,-76.62 222.25,-57.38 345.5,-57.38 345.5,-76.62"/>
<text text-anchor="middle" x="283.88" y="-63.12" font-family="Helvetica,sans-Serif" font-size="10.00">dunedaq::oks::OksKernel</text>
</a>
</g>
</g>
<!-- Node2&#45;&gt;Node1 -->
<g id="edge1_Node000001_Node000002" class="edge">
<title>Node2&#45;&gt;Node1</title>
<g id="a_edge1_Node000001_Node000002"><a xlink:title=" ">
<path fill="none" stroke="#9a32cd" stroke-dasharray="5,2" d="M334.52,-79.72C344.1,-81.97 354.09,-84.18 363.5,-86 403.16,-93.69 448.92,-100.13 480.69,-104.22"/>
<polygon fill="#9a32cd" stroke="#9a32cd" points="335.53,-76.37 324.98,-77.43 333.89,-83.17 335.53,-76.37"/>
</a>
</g>
<text text-anchor="middle" x="401.75" y="-99.75" font-family="Helvetica,sans-Serif" font-size="10.00" fill="grey"> m_kernel</text>
</g>
<!-- Node3 -->
<g id="Node000003" class="node">
<title>Node3</title>
<g id="a_Node000003"><a xlink:href="classdunedaq_1_1oks_1_1OksFile.html" target="_top" xlink:title="Provides interface to the OKS XML schema and data files.">
<polygon fill="white" stroke="#666666" points="576.75,-51.62 465.5,-51.62 465.5,-32.38 576.75,-32.38 576.75,-51.62"/>
<text text-anchor="middle" x="521.12" y="-38.12" font-family="Helvetica,sans-Serif" font-size="10.00">dunedaq::oks::OksFile</text>
</a>
</g>
</g>
<!-- Node2&#45;&gt;Node3 -->
<g id="edge4_Node000003_Node000002" class="edge">
<title>Node2&#45;&gt;Node3</title>
<g id="a_edge4_Node000003_Node000002"><a xlink:title=" ">
<path fill="none" stroke="#9a32cd" stroke-dasharray="5,2" d="M314.56,-52.12C328.95,-45.71 346.72,-38.96 363.5,-35.75 396.91,-29.35 435.04,-30.69 465.31,-33.74"/>
<polygon fill="#9a32cd" stroke="#9a32cd" points="313.25,-48.86 305.66,-56.25 316.2,-55.21 313.25,-48.86"/>
</a>
</g>
<text text-anchor="middle" x="401.75" y="-37.75" font-family="Helvetica,sans-Serif" font-size="10.00" fill="grey"> p_kernel</text>
</g>
<!-- Node10 -->
<g id="Node000010" class="node">
<title>Node10</title>
<g id="a_Node000010"><a xlink:href="classdunedaq_1_1oks_1_1OksClass.html" target="_top" xlink:title="The OKS class.">
<polygon fill="white" stroke="#666666" points="793.38,-141.62 673.12,-141.62 673.12,-122.38 793.38,-122.38 793.38,-141.62"/>
<text text-anchor="middle" x="733.25" y="-128.12" font-family="Helvetica,sans-Serif" font-size="10.00">dunedaq::oks::OksClass</text>
</a>
</g>
</g>
<!-- Node2&#45;&gt;Node10 -->
<g id="edge13_Node000010_Node000002" class="edge">
<title>Node2&#45;&gt;Node10</title>
<g id="a_edge13_Node000010_Node000002"><a xlink:title=" ">
<path fill="none" stroke="#9a32cd" stroke-dasharray="5,2" d="M307.37,-83.22C322.52,-93.35 343.34,-105.79 363.5,-113 467.32,-150.12 598.09,-145.94 672.73,-139.2"/>
<polygon fill="#9a32cd" stroke="#9a32cd" points="309.77,-80.62 299.55,-77.83 305.8,-86.39 309.77,-80.62"/>
</a>
</g>
<text text-anchor="middle" x="521.12" y="-144.75" font-family="Helvetica,sans-Serif" font-size="10.00" fill="grey"> p_kernel</text>
</g>
<!-- Node3&#45;&gt;Node2 -->
<g id="edge2_Node000002_Node000003" class="edge">
<title>Node3&#45;&gt;Node2</title>
<g id="a_edge2_Node000002_Node000003"><a xlink:title=" ">
<path fill="none" stroke="#9a32cd" stroke-dasharray="5,2" d="M453.9,-49.04C419.96,-52.64 378.91,-57.01 345.76,-60.53"/>
<polygon fill="#9a32cd" stroke="#9a32cd" points="454.04,-52.54 463.62,-48.01 453.3,-45.58 454.04,-52.54"/>
</a>
</g>
<text text-anchor="middle" x="401.75" y="-72" font-family="Helvetica,sans-Serif" font-size="10.00" fill="grey"> p_active_data</text>
<text text-anchor="middle" x="401.75" y="-60.75" font-family="Helvetica,sans-Serif" font-size="10.00" fill="grey">p_active_schema</text>
</g>
<!-- Node3&#45;&gt;Node3 -->
<g id="edge3_Node000003_Node000003" class="edge">
<title>Node3&#45;&gt;Node3</title>
<g id="a_edge3_Node000003_Node000003"><a xlink:title=" ">
<path fill="none" stroke="#9a32cd" stroke-dasharray="5,2" d="M502.07,-63.03C504.45,-66.9 510.8,-69.62 521.12,-69.62 540,-69.62 545.6,-60.52 537.94,-51.91"/>
<polygon fill="#9a32cd" stroke="#9a32cd" points="505.46,-63.89 504.01,-53.4 498.6,-62.5 505.46,-63.89"/>
</a>
</g>
<text text-anchor="middle" x="521.12" y="-71.38" font-family="Helvetica,sans-Serif" font-size="10.00" fill="grey"> p_included_by</text>
</g>
<!-- Node6 -->
<g id="Node000006" class="node">
<title>Node6</title>
<g id="a_Node000006"><a xlink:href="classdunedaq_1_1oks_1_1OksObject.html" target="_top" xlink:title="OksObject describes instance of OksClass.">
<polygon fill="white" stroke="#666666" points="1409.5,-132.62 1285.5,-132.62 1285.5,-113.38 1409.5,-113.38 1409.5,-132.62"/>
<text text-anchor="middle" x="1347.5" y="-119.12" font-family="Helvetica,sans-Serif" font-size="10.00">dunedaq::oks::OksObject</text>
</a>
</g>
</g>
<!-- Node3&#45;&gt;Node6 -->
<g id="edge20_Node000006_Node000003" class="edge">
<title>Node3&#45;&gt;Node6</title>
<g id="a_edge20_Node000006_Node000003"><a xlink:title=" ">
<path fill="none" stroke="#9a32cd" stroke-dasharray="5,2" d="M576.06,-54.4C618.31,-63.03 678.71,-73 732.25,-73 732.25,-73 732.25,-73 1171.62,-73 1229.09,-73 1293.24,-98.27 1325.52,-112.88"/>
<polygon fill="#9a32cd" stroke="#9a32cd" points="576.9,-51 566.39,-52.37 575.47,-57.85 576.9,-51"/>
</a>
</g>
<text text-anchor="middle" x="997.88" y="-74.75" font-family="Helvetica,sans-Serif" font-size="10.00" fill="grey"> file</text>
</g>
<!-- Node3&#45;&gt;Node10 -->
<g id="edge12_Node000010_Node000003" class="edge">
<title>Node3&#45;&gt;Node10</title>
<g id="a_edge12_Node000010_Node000003"><a xlink:title=" ">
<path fill="none" stroke="#9a32cd" stroke-dasharray="5,2" d="M547.79,-57.97C563.22,-67.17 583.45,-78.55 602.25,-87 633.73,-101.15 671.09,-113.66 697.66,-121.88"/>
<polygon fill="#9a32cd" stroke="#9a32cd" points="549.61,-54.98 539.25,-52.79 545.99,-60.96 549.61,-54.98"/>
</a>
</g>
<text text-anchor="middle" x="628.5" y="-107.75" font-family="Helvetica,sans-Serif" font-size="10.00" fill="grey"> p_file</text>
</g>
<!-- Node4 -->
<g id="Node000004" class="node">
<title>Node4</title>
<g id="a_Node000004"><a xlink:href="classdunedaq_1_1oks_1_1OksProfiler.html" target="_top" xlink:title=" ">
<polygon fill="white" stroke="#666666" points="125.5,-95.62 0,-95.62 0,-76.38 125.5,-76.38 125.5,-95.62"/>
<text text-anchor="middle" x="62.75" y="-82.12" font-family="Helvetica,sans-Serif" font-size="10.00">dunedaq::oks::OksProfiler</text>
</a>
</g>
</g>
<!-- Node4&#45;&gt;Node2 -->
<g id="edge5_Node000002_Node000004" class="edge">
<title>Node4&#45;&gt;Node2</title>
<g id="a_edge5_Node000002_Node000004"><a xlink:title=" ">
<path fill="none" stroke="#9a32cd" stroke-dasharray="5,2" d="M137.13,-79.64C164.71,-77.25 195.72,-74.56 222.03,-72.28"/>
<polygon fill="#9a32cd" stroke="#9a32cd" points="137.12,-76.12 127.46,-80.48 137.73,-83.1 137.12,-76.12"/>
</a>
</g>
<text text-anchor="middle" x="173.88" y="-80.75" font-family="Helvetica,sans-Serif" font-size="10.00" fill="grey"> profiler</text>
</g>
<!-- Node5 -->
<g id="Node000005" class="node">
<title>Node5</title>
<g id="a_Node000005"><a xlink:href="structdunedaq_1_1oks_1_1LoadErrors.html" target="_top" xlink:title=" ">
<polygon fill="white" stroke="#666666" points="125.12,-58.62 0.38,-58.62 0.38,-39.38 125.12,-39.38 125.12,-58.62"/>
<text text-anchor="middle" x="62.75" y="-45.12" font-family="Helvetica,sans-Serif" font-size="10.00">dunedaq::oks::LoadErrors</text>
</a>
</g>
</g>
<!-- Node5&#45;&gt;Node2 -->
<g id="edge6_Node000002_Node000005" class="edge">
<title>Node5&#45;&gt;Node2</title>
<g id="a_edge6_Node000002_Node000005"><a xlink:title=" ">
<path fill="none" stroke="#9a32cd" stroke-dasharray="5,2" d="M136.92,-48.84C158.63,-49.36 182.44,-50.5 204.25,-52.75 213.91,-53.75 224.16,-55.27 233.97,-56.94"/>
<polygon fill="#9a32cd" stroke="#9a32cd" points="137.01,-45.34 126.95,-48.64 136.88,-52.34 137.01,-45.34"/>
</a>
</g>
<text text-anchor="middle" x="173.88" y="-54.75" font-family="Helvetica,sans-Serif" font-size="10.00" fill="grey"> p_load_errors</text>
</g>
<!-- Node6&#45;&gt;Node2 -->
<g id="edge7_Node000002_Node000006" class="edge">
<title>Node6&#45;&gt;Node2</title>
<g id="a_edge7_Node000002_Node000006"><a xlink:title=" ">
<path fill="none" stroke="#9a32cd" stroke-dasharray="5,2" d="M1332.56,-103.8C1305.65,-69.22 1242.91,0 1171.62,0 520.12,0 520.12,0 520.12,0 449.41,0 430.65,-5.84 363.5,-28 341.07,-35.4 316.98,-48.14 301.46,-57.03"/>
<polygon fill="#9a32cd" stroke="#9a32cd" points="1329.72,-105.85 1338.54,-111.73 1335.31,-101.64 1329.72,-105.85"/>
</a>
</g>
<text text-anchor="start" x="811.75" y="-46.75" font-family="Helvetica,sans-Serif" font-size="10.00" fill="grey"> p_change_object_notify</text>
<text text-anchor="middle" x="866.88" y="-35.5" font-family="Helvetica,sans-Serif" font-size="10.00" fill="grey">_fn</text>
<text text-anchor="start" x="811.75" y="-24.25" font-family="Helvetica,sans-Serif" font-size="10.00" fill="grey">p_create_object_notify</text>
<text text-anchor="middle" x="866.88" y="-13" font-family="Helvetica,sans-Serif" font-size="10.00" fill="grey">_fn</text>
<text text-anchor="middle" x="866.88" y="-1.75" font-family="Helvetica,sans-Serif" font-size="10.00" fill="grey">p_delete_object_notify_fn</text>
</g>
<!-- Node9 -->
<g id="Node000009" class="node">
<title>Node9</title>
<g id="a_Node000009"><a xlink:href="uniondunedaq_1_1oks_1_1OksData_1_1Data.html" target="_top" xlink:title=" ">
<polygon fill="white" stroke="#666666" points="1055.75,-177.25 940,-177.25 940,-146.75 1055.75,-146.75 1055.75,-177.25"/>
<text text-anchor="start" x="948" y="-163.75" font-family="Helvetica,sans-Serif" font-size="10.00">dunedaq::oks::OksData</text>
<text text-anchor="middle" x="997.88" y="-152.5" font-family="Helvetica,sans-Serif" font-size="10.00">::Data</text>
</a>
</g>
</g>
<!-- Node6&#45;&gt;Node9 -->
<g id="edge16_Node000009_Node000006" class="edge">
<title>Node6&#45;&gt;Node9</title>
<g id="a_edge16_Node000009_Node000006"><a xlink:title=" ">
<path fill="none" stroke="#9a32cd" stroke-dasharray="5,2" d="M1273.68,-121.58C1227.37,-121.7 1166.25,-123.74 1112.75,-131.75 1091.31,-134.96 1068.1,-140.7 1048.26,-146.32"/>
<polygon fill="#9a32cd" stroke="#9a32cd" points="1273.61,-125.08 1283.61,-121.59 1273.62,-118.08 1273.61,-125.08"/>
</a>
</g>
<text text-anchor="middle" x="1170.62" y="-132.75" font-family="Helvetica,sans-Serif" font-size="10.00" fill="grey"> OBJECT</text>
</g>
<!-- Node7 -->
<g id="Node000007" class="node">
<title>Node7</title>
<g id="a_Node000007"><a xlink:title=" ">
<polygon fill="white" stroke="#666666" points="753.62,-254.62 712.88,-254.62 712.88,-235.38 753.62,-235.38 753.62,-254.62"/>
<text text-anchor="middle" x="733.25" y="-241.12" font-family="Helvetica,sans-Serif" font-size="10.00">struct</text>
</a>
</g>
</g>
<!-- Node7&#45;&gt;Node6 -->
<g id="edge8_Node000006_Node000007" class="edge">
<title>Node7&#45;&gt;Node6</title>
<g id="a_edge8_Node000006_Node000007"><a xlink:title=" ">
<path fill="none" stroke="#9a32cd" stroke-dasharray="5,2" d="M765.16,-248.41C802.46,-251.93 867.02,-256.11 922,-250 1060.78,-234.57 1096.82,-227.45 1228.5,-181 1265.96,-167.79 1307.01,-145.74 1329.46,-132.97"/>
<polygon fill="#9a32cd" stroke="#9a32cd" points="765.86,-244.96 755.56,-247.45 765.17,-251.93 765.86,-244.96"/>
</a>
</g>
<text text-anchor="middle" x="1084.25" y="-229.75" font-family="Helvetica,sans-Serif" font-size="10.00" fill="grey"> uid</text>
</g>
<!-- Node7&#45;&gt;Node9 -->
<g id="edge19_Node000009_Node000007" class="edge">
<title>Node7&#45;&gt;Node9</title>
<g id="a_edge19_Node000009_Node000007"><a xlink:title=" ">
<path fill="none" stroke="#9a32cd" stroke-dasharray="5,2" d="M765.13,-237.94C779.32,-234.71 796.38,-230.87 811.75,-227.5 860.69,-216.76 875.12,-221.68 922,-204 939.99,-197.22 958.86,-186.6 973.16,-177.75"/>
<polygon fill="#9a32cd" stroke="#9a32cd" points="764.43,-234.51 755.46,-240.14 765.99,-241.33 764.43,-234.51"/>
</a>
</g>
<text text-anchor="middle" x="866.88" y="-240" font-family="Helvetica,sans-Serif" font-size="10.00" fill="grey"> UID</text>
<text text-anchor="middle" x="866.88" y="-228.75" font-family="Helvetica,sans-Serif" font-size="10.00" fill="grey">UID2</text>
</g>
<!-- Node8 -->
<g id="Node000008" class="node">
<title>Node8</title>
<g id="a_Node000008"><a xlink:href="structdunedaq_1_1oks_1_1OksData.html" target="_top" xlink:title="the structure to pass common parameters to various read() methods of OksData and OksObject class">
<polygon fill="white" stroke="#666666" points="1228.5,-171.62 1112.75,-171.62 1112.75,-152.38 1228.5,-152.38 1228.5,-171.62"/>
<text text-anchor="middle" x="1170.62" y="-158.12" font-family="Helvetica,sans-Serif" font-size="10.00">dunedaq::oks::OksData</text>
</a>
</g>
</g>
<!-- Node8&#45;&gt;Node6 -->
<g id="edge9_Node000006_Node000008" class="edge">
<title>Node8&#45;&gt;Node6</title>
<g id="a_edge9_Node000006_Node000008"><a xlink:title=" ">
<path fill="none" stroke="#9a32cd" stroke-dasharray="5,2" d="M1227.66,-149.5C1251.46,-144.19 1278.84,-138.09 1301.31,-133.08"/>
<polygon fill="#9a32cd" stroke="#9a32cd" points="1227.14,-146.03 1218.14,-151.63 1228.66,-152.87 1227.14,-146.03"/>
</a>
</g>
<text text-anchor="middle" x="1257" y="-145.75" font-family="Helvetica,sans-Serif" font-size="10.00" fill="grey"> data</text>
</g>
<!-- Node9&#45;&gt;Node8 -->
<g id="edge10_Node000008_Node000009" class="edge">
<title>Node9&#45;&gt;Node8</title>
<g id="a_edge10_Node000008_Node000009"><a xlink:title=" ">
<path fill="none" stroke="#9a32cd" stroke-dasharray="5,2" d="M1067.45,-162C1082.38,-162 1098.02,-162 1112.44,-162"/>
<polygon fill="#9a32cd" stroke="#9a32cd" points="1067.72,-158.5 1057.72,-162 1067.72,-165.5 1067.72,-158.5"/>
</a>
</g>
<text text-anchor="middle" x="1084.25" y="-163.75" font-family="Helvetica,sans-Serif" font-size="10.00" fill="grey"> data</text>
</g>
<!-- Node10&#45;&gt;Node9 -->
<g id="edge11_Node000009_Node000010" class="edge">
<title>Node10&#45;&gt;Node9</title>
<g id="a_edge11_Node000009_Node000010"><a xlink:title=" ">
<path fill="none" stroke="#9a32cd" stroke-dasharray="5,2" d="M801.85,-120.57C837.96,-116.64 882.9,-115.26 922,-124.5 939.97,-128.75 958.54,-138.01 972.69,-146.27"/>
<polygon fill="#9a32cd" stroke="#9a32cd" points="801.48,-117.09 791.96,-121.75 802.31,-124.04 801.48,-117.09"/>
</a>
</g>
<text text-anchor="middle" x="866.88" y="-137" font-family="Helvetica,sans-Serif" font-size="10.00" fill="grey"> CLASS</text>
<text text-anchor="middle" x="866.88" y="-125.75" font-family="Helvetica,sans-Serif" font-size="10.00" fill="grey">class_id</text>
</g>
<!-- Node11 -->
<g id="Node000011" class="node">
<title>Node11</title>
<g id="a_Node000011"><a xlink:href="classdunedaq_1_1oksdbinterfaces_1_1map.html" target="_top" xlink:title=" ">
<polygon fill="white" stroke="#666666" points="584.25,-215.25 458,-215.25 458,-184.75 584.25,-184.75 584.25,-215.25"/>
<text text-anchor="start" x="466" y="-201.75" font-family="Helvetica,sans-Serif" font-size="10.00">dunedaq::oksdbinterfaces</text>
<text text-anchor="middle" x="521.12" y="-190.5" font-family="Helvetica,sans-Serif" font-size="10.00">::map&lt; T &gt;</text>
</a>
</g>
</g>
<!-- Node11&#45;&gt;Node10 -->
<g id="edge14_Node000010_Node000011" class="edge">
<title>Node11&#45;&gt;Node10</title>
<g id="a_edge14_Node000010_Node000011"><a xlink:title=" ">
<path fill="none" stroke="#9a32cd" stroke-dasharray="5,2" d="M595.62,-185.8C615.09,-181.23 635.92,-175.61 654.75,-169 675.85,-161.59 698.83,-150.16 714.25,-141.97"/>
<polygon fill="#9a32cd" stroke="#9a32cd" points="595.11,-182.32 586.13,-187.96 596.66,-189.15 595.11,-182.32"/>
</a>
</g>
<text text-anchor="middle" x="628.5" y="-184.75" font-family="Helvetica,sans-Serif" font-size="10.00" fill="grey"> p_data_info</text>
</g>
<!-- Node12 -->
<g id="Node000012" class="node">
<title>Node12</title>
<g id="a_Node000012"><a xlink:title=" ">
<polygon fill="white" stroke="#666666" points="334.25,-215.25 233.5,-215.25 233.5,-184.75 334.25,-184.75 334.25,-215.25"/>
<text text-anchor="start" x="241.5" y="-201.75" font-family="Helvetica,sans-Serif" font-size="10.00">std::unordered_map</text>
<text text-anchor="middle" x="283.88" y="-190.5" font-family="Helvetica,sans-Serif" font-size="10.00">&lt; std::string, T &gt;</text>
</a>
</g>
</g>
<!-- Node12&#45;&gt;Node11 -->
<g id="edge15_Node000011_Node000012" class="edge">
<title>Node12&#45;&gt;Node11</title>
<g id="a_edge15_Node000011_Node000012"><a xlink:title=" ">
<path fill="none" stroke="#63b8ff" d="M345.78,-200C380.12,-200 422.96,-200 457.57,-200"/>
<polygon fill="#63b8ff" stroke="#63b8ff" points="345.99,-196.5 335.99,-200 345.99,-203.5 345.99,-196.5"/>
</a>
</g>
</g>
<!-- Node13 -->
<g id="Node000013" class="node">
<title>Node13</title>
<g id="a_Node000013"><a xlink:href="classdunedaq_1_1oks_1_1OksString.html" target="_top" xlink:title="Class OKS string.">
<polygon fill="white" stroke="#666666" points="793.75,-207.62 672.75,-207.62 672.75,-188.38 793.75,-188.38 793.75,-207.62"/>
<text text-anchor="middle" x="733.25" y="-194.12" font-family="Helvetica,sans-Serif" font-size="10.00">dunedaq::oks::OksString</text>
</a>
</g>
</g>
<!-- Node13&#45;&gt;Node9 -->
<g id="edge17_Node000009_Node000013" class="edge">
<title>Node13&#45;&gt;Node9</title>
<g id="a_edge17_Node000009_Node000013"><a xlink:title=" ">
<path fill="none" stroke="#9a32cd" stroke-dasharray="5,2" d="M767.49,-183.63C780.97,-178.46 796.85,-173.18 811.75,-170.25 854.05,-161.93 902.79,-160.06 939.64,-160.17"/>
<polygon fill="#9a32cd" stroke="#9a32cd" points="766.2,-180.38 758.21,-187.34 768.79,-186.88 766.2,-180.38"/>
</a>
</g>
<text text-anchor="middle" x="866.88" y="-194.25" font-family="Helvetica,sans-Serif" font-size="10.00" fill="grey"> STRING</text>
<text text-anchor="middle" x="866.88" y="-183" font-family="Helvetica,sans-Serif" font-size="10.00" fill="grey">class_id</text>
<text text-anchor="middle" x="866.88" y="-171.75" font-family="Helvetica,sans-Serif" font-size="10.00" fill="grey">object_id</text>
</g>
<!-- Node14 -->
<g id="Node000014" class="node">
<title>Node14</title>
<g id="a_Node000014"><a xlink:title=" ">
<polygon fill="white" stroke="#666666" points="550.12,-252.62 492.12,-252.62 492.12,-233.38 550.12,-233.38 550.12,-252.62"/>
<text text-anchor="middle" x="521.12" y="-239.12" font-family="Helvetica,sans-Serif" font-size="10.00">std::string</text>
</a>
</g>
</g>
<!-- Node14&#45;&gt;Node13 -->
<g id="edge18_Node000013_Node000014" class="edge">
<title>Node14&#45;&gt;Node13</title>
<g id="a_edge18_Node000013_Node000014"><a xlink:title=" ">
<path fill="none" stroke="#63b8ff" d="M561.68,-234.53C596.73,-227.02 647.94,-216.06 685.1,-208.1"/>
<polygon fill="#63b8ff" stroke="#63b8ff" points="560.99,-231.1 551.94,-236.61 562.45,-237.94 560.99,-231.1"/>
</a>
</g>
</g>
</g>
</svg>
