<?xml version="1.0" encoding="UTF-8" standalone="no"?>
<!DOCTYPE svg PUBLIC "-//W3C//DTD SVG 1.1//EN"
 "http://www.w3.org/Graphics/SVG/1.1/DTD/svg11.dtd">
<!-- Generated by graphviz version 9.0.0 (20230911.1827)
 -->
<!-- Title: dunedaq::readoutlibs::RawDataProcessorConcept&lt; ReadoutType &gt; Pages: 1 -->
<svg width="532pt" height="290pt"
 viewBox="0.00 0.00 532.25 289.75" xmlns="http://www.w3.org/2000/svg" xmlns:xlink="http://www.w3.org/1999/xlink">
<g id="graph0" class="graph" transform="scale(1 1) rotate(0) translate(4 285.75)">
<title>dunedaq::readoutlibs::RawDataProcessorConcept&lt; ReadoutType &gt;</title>
<!-- Node1 -->
<g id="Node000001" class="node">
<title>Node1</title>
<g id="a_Node000001"><a xlink:title=" ">
<polygon fill="#999999" stroke="#666666" points="140.5,-161.75 0,-161.75 0,-120 140.5,-120 140.5,-161.75"/>
<text text-anchor="start" x="8" y="-148.25" font-family="Helvetica,sans-Serif" font-size="10.00">dunedaq::readoutlibs</text>
<text text-anchor="start" x="8" y="-137" font-family="Helvetica,sans-Serif" font-size="10.00">::RawDataProcessorConcept</text>
<text text-anchor="middle" x="70.25" y="-125.75" font-family="Helvetica,sans-Serif" font-size="10.00">&lt; ReadoutType &gt;</text>
</a>
</g>
</g>
<!-- Node2 -->
<g id="Node000002" class="node">
<title>Node2</title>
<g id="a_Node000002"><a xlink:href="classdunedaq_1_1readoutlibs_1_1TaskRawDataProcessorModel.html" target="_top" xlink:title=" ">
<polygon fill="white" stroke="#666666" points="342.5,-281.75 176.5,-281.75 176.5,-240 342.5,-240 342.5,-281.75"/>
<text text-anchor="start" x="184.5" y="-268.25" font-family="Helvetica,sans-Serif" font-size="10.00">dunedaq::readoutlibs</text>
<text text-anchor="start" x="184.5" y="-257" font-family="Helvetica,sans-Serif" font-size="10.00">::TaskRawDataProcessorModel</text>
<text text-anchor="middle" x="259.5" y="-245.75" font-family="Helvetica,sans-Serif" font-size="10.00">&lt; hsilibs::HSI_FRAME_STRUCT &gt;</text>
</a>
</g>
</g>
<!-- Node1&#45;&gt;Node2 -->
<g id="edge1_Node000001_Node000002" class="edge">
<title>Node1&#45;&gt;Node2</title>
<g id="a_edge1_Node000001_Node000002"><a xlink:title=" ">
<path fill="none" stroke="#63b8ff" d="M99.36,-169.83C119.41,-189.19 147.81,-214.1 176.5,-230.88 181.87,-234.01 187.62,-236.91 193.49,-239.58"/>
<polygon fill="#63b8ff" stroke="#63b8ff" points="101.96,-167.49 92.38,-162.98 97.06,-172.48 101.96,-167.49"/>
</a>
</g>
</g>
<!-- Node4 -->
<g id="Node000004" class="node">
<title>Node4</title>
<g id="a_Node000004"><a xlink:href="classdunedaq_1_1readoutlibs_1_1TaskRawDataProcessorModel.html" target="_top" xlink:title=" ">
<polygon fill="white" stroke="#666666" points="335.75,-221.75 183.25,-221.75 183.25,-180 335.75,-180 335.75,-221.75"/>
<text text-anchor="start" x="191.25" y="-208.25" font-family="Helvetica,sans-Serif" font-size="10.00">dunedaq::readoutlibs</text>
<text text-anchor="start" x="191.25" y="-197" font-family="Helvetica,sans-Serif" font-size="10.00">::TaskRawDataProcessorModel</text>
<text text-anchor="middle" x="259.5" y="-185.75" font-family="Helvetica,sans-Serif" font-size="10.00">&lt; TAWrapper &gt;</text>
</a>
</g>
</g>
<!-- Node1&#45;&gt;Node4 -->
<g id="edge3_Node000001_Node000004" class="edge">
<title>Node1&#45;&gt;Node4</title>
<g id="a_edge3_Node000001_Node000004"><a xlink:title=" ">
<path fill="none" stroke="#63b8ff" d="M148.64,-165.67C162.99,-170.27 177.86,-175.04 191.85,-179.52"/>
<polygon fill="#63b8ff" stroke="#63b8ff" points="149.83,-162.38 139.24,-162.66 147.69,-169.04 149.83,-162.38"/>
</a>
</g>
</g>
<!-- Node6 -->
<g id="Node000006" class="node">
<title>Node6</title>
<g id="a_Node000006"><a xlink:href="classdunedaq_1_1readoutlibs_1_1TaskRawDataProcessorModel.html" target="_top" xlink:title=" ">
<polygon fill="white" stroke="#666666" points="335.75,-161.75 183.25,-161.75 183.25,-120 335.75,-120 335.75,-161.75"/>
<text text-anchor="start" x="191.25" y="-148.25" font-family="Helvetica,sans-Serif" font-size="10.00">dunedaq::readoutlibs</text>
<text text-anchor="start" x="191.25" y="-137" font-family="Helvetica,sans-Serif" font-size="10.00">::TaskRawDataProcessorModel</text>
<text text-anchor="middle" x="259.5" y="-125.75" font-family="Helvetica,sans-Serif" font-size="10.00">&lt; TCWrapper &gt;</text>
</a>
</g>
</g>
<!-- Node1&#45;&gt;Node6 -->
<g id="edge5_Node000001_Node000006" class="edge">
<title>Node1&#45;&gt;Node6</title>
<g id="a_edge5_Node000001_Node000006"><a xlink:title=" ">
<path fill="none" stroke="#63b8ff" d="M152.37,-140.88C162.57,-140.88 172.96,-140.88 183.06,-140.88"/>
<polygon fill="#63b8ff" stroke="#63b8ff" points="152.49,-137.38 142.49,-140.88 152.49,-144.38 152.49,-137.38"/>
</a>
</g>
</g>
<!-- Node8 -->
<g id="Node000008" class="node">
<title>Node8</title>
<g id="a_Node000008"><a xlink:href="classdunedaq_1_1readoutlibs_1_1TaskRawDataProcessorModel.html" target="_top" xlink:title=" ">
<polygon fill="white" stroke="#666666" points="337.25,-101.75 181.75,-101.75 181.75,-60 337.25,-60 337.25,-101.75"/>
<text text-anchor="start" x="189.75" y="-88.25" font-family="Helvetica,sans-Serif" font-size="10.00">dunedaq::readoutlibs</text>
<text text-anchor="start" x="189.75" y="-77" font-family="Helvetica,sans-Serif" font-size="10.00">::TaskRawDataProcessorModel</text>
<text text-anchor="middle" x="259.5" y="-65.75" font-family="Helvetica,sans-Serif" font-size="10.00">&lt; TriggerPrimitiveTypeAdapter &gt;</text>
</a>
</g>
</g>
<!-- Node1&#45;&gt;Node8 -->
<g id="edge7_Node000001_Node000008" class="edge">
<title>Node1&#45;&gt;Node8</title>
<g id="a_edge7_Node000001_Node000008"><a xlink:title=" ">
<path fill="none" stroke="#63b8ff" d="M148.64,-116.08C162.99,-111.48 177.86,-106.71 191.85,-102.23"/>
<polygon fill="#63b8ff" stroke="#63b8ff" points="147.69,-112.71 139.24,-119.09 149.83,-119.37 147.69,-112.71"/>
</a>
</g>
</g>
<!-- Node10 -->
<g id="Node000010" class="node">
<title>Node10</title>
<g id="a_Node000010"><a xlink:href="classdunedaq_1_1readoutlibs_1_1TaskRawDataProcessorModel.html" target="_top" xlink:title=" ">
<polygon fill="white" stroke="#666666" points="335.75,-41.75 183.25,-41.75 183.25,0 335.75,0 335.75,-41.75"/>
<text text-anchor="start" x="191.25" y="-28.25" font-family="Helvetica,sans-Serif" font-size="10.00">dunedaq::readoutlibs</text>
<text text-anchor="start" x="191.25" y="-17" font-family="Helvetica,sans-Serif" font-size="10.00">::TaskRawDataProcessorModel</text>
<text text-anchor="middle" x="259.5" y="-5.75" font-family="Helvetica,sans-Serif" font-size="10.00">&lt; ReadoutType &gt;</text>
</a>
</g>
</g>
<!-- Node1&#45;&gt;Node10 -->
<g id="edge9_Node000001_Node000010" class="edge">
<title>Node1&#45;&gt;Node10</title>
<g id="a_edge9_Node000001_Node000010"><a xlink:title=" ">
<path fill="none" stroke="#63b8ff" d="M99.36,-111.92C119.41,-92.56 147.81,-67.65 176.5,-50.88 181.87,-47.74 187.62,-44.84 193.49,-42.17"/>
<polygon fill="#63b8ff" stroke="#63b8ff" points="97.06,-109.27 92.38,-118.77 101.96,-114.26 97.06,-109.27"/>
</a>
</g>
</g>
<!-- Node3 -->
<g id="Node000003" class="node">
<title>Node3</title>
<g id="a_Node000003"><a xlink:href="classdunedaq_1_1hsilibs_1_1HSIFrameProcessor.html" target="_top" xlink:title=" ">
<polygon fill="white" stroke="#666666" points="518.62,-276.12 384.12,-276.12 384.12,-245.62 518.62,-245.62 518.62,-276.12"/>
<text text-anchor="start" x="392.12" y="-262.62" font-family="Helvetica,sans-Serif" font-size="10.00">dunedaq::hsilibs::HSIFrame</text>
<text text-anchor="middle" x="451.38" y="-251.38" font-family="Helvetica,sans-Serif" font-size="10.00">Processor</text>
</a>
</g>
</g>
<!-- Node2&#45;&gt;Node3 -->
<g id="edge2_Node000002_Node000003" class="edge">
<title>Node2&#45;&gt;Node3</title>
<g id="a_edge2_Node000002_Node000003"><a xlink:title=" ">
<path fill="none" stroke="#63b8ff" d="M354.17,-260.88C364.14,-260.88 374.12,-260.88 383.69,-260.88"/>
<polygon fill="#63b8ff" stroke="#63b8ff" points="354.47,-257.38 344.47,-260.88 354.47,-264.38 354.47,-257.38"/>
</a>
</g>
</g>
<!-- Node5 -->
<g id="Node000005" class="node">
<title>Node5</title>
<g id="a_Node000005"><a xlink:href="classdunedaq_1_1trigger_1_1TAProcessor.html" target="_top" xlink:title=" ">
<polygon fill="white" stroke="#666666" points="524.25,-210.5 378.5,-210.5 378.5,-191.25 524.25,-191.25 524.25,-210.5"/>
<text text-anchor="middle" x="451.38" y="-197" font-family="Helvetica,sans-Serif" font-size="10.00">dunedaq::trigger::TAProcessor</text>
</a>
</g>
</g>
<!-- Node4&#45;&gt;Node5 -->
<g id="edge4_Node000004_Node000005" class="edge">
<title>Node4&#45;&gt;Node5</title>
<g id="a_edge4_Node000004_Node000005"><a xlink:title=" ">
<path fill="none" stroke="#63b8ff" d="M347.56,-200.88C357.79,-200.88 368.14,-200.88 378.14,-200.88"/>
<polygon fill="#63b8ff" stroke="#63b8ff" points="347.6,-197.38 337.6,-200.88 347.6,-204.38 347.6,-197.38"/>
</a>
</g>
</g>
<!-- Node7 -->
<g id="Node000007" class="node">
<title>Node7</title>
<g id="a_Node000007"><a xlink:href="classdunedaq_1_1trigger_1_1TCProcessor.html" target="_top" xlink:title=" ">
<polygon fill="white" stroke="#666666" points="524.25,-150.5 378.5,-150.5 378.5,-131.25 524.25,-131.25 524.25,-150.5"/>
<text text-anchor="middle" x="451.38" y="-137" font-family="Helvetica,sans-Serif" font-size="10.00">dunedaq::trigger::TCProcessor</text>
</a>
</g>
</g>
<!-- Node6&#45;&gt;Node7 -->
<g id="edge6_Node000006_Node000007" class="edge">
<title>Node6&#45;&gt;Node7</title>
<g id="a_edge6_Node000006_Node000007"><a xlink:title=" ">
<path fill="none" stroke="#63b8ff" d="M347.56,-140.88C357.79,-140.88 368.14,-140.88 378.14,-140.88"/>
<polygon fill="#63b8ff" stroke="#63b8ff" points="347.6,-137.38 337.6,-140.88 347.6,-144.38 347.6,-137.38"/>
</a>
</g>
</g>
<!-- Node9 -->
<g id="Node000009" class="node">
<title>Node9</title>
<g id="a_Node000009"><a xlink:href="classdunedaq_1_1trigger_1_1TPProcessor.html" target="_top" xlink:title=" ">
<polygon fill="white" stroke="#666666" points="524.25,-90.5 378.5,-90.5 378.5,-71.25 524.25,-71.25 524.25,-90.5"/>
<text text-anchor="middle" x="451.38" y="-77" font-family="Helvetica,sans-Serif" font-size="10.00">dunedaq::trigger::TPProcessor</text>
</a>
</g>
</g>
<!-- Node8&#45;&gt;Node9 -->
<g id="edge8_Node000008_Node000009" class="edge">
<title>Node8&#45;&gt;Node9</title>
<g id="a_edge8_Node000008_Node000009"><a xlink:title=" ">
<path fill="none" stroke="#63b8ff" d="M349.08,-80.88C358.81,-80.88 368.62,-80.88 378.12,-80.88"/>
<polygon fill="#63b8ff" stroke="#63b8ff" points="349.24,-77.38 339.24,-80.88 349.24,-84.38 349.24,-77.38"/>
</a>
</g>
</g>
</g>
</svg>
