<?xml version="1.0" encoding="UTF-8" standalone="no"?>
<!DOCTYPE svg PUBLIC "-//W3C//DTD SVG 1.1//EN"
 "http://www.w3.org/Graphics/SVG/1.1/DTD/svg11.dtd">
<!-- Generated by graphviz version 9.0.0 (20230911.1827)
 -->
<!-- Title: dunedaq::oksconfig::OksConfiguration Pages: 1 -->
<svg width="1723pt" height="567pt"
 viewBox="0.00 0.00 1723.25 566.88" xmlns="http://www.w3.org/2000/svg" xmlns:xlink="http://www.w3.org/1999/xlink">
<g id="graph0" class="graph" transform="scale(1 1) rotate(0) translate(4 562.88)">
<title>dunedaq::oksconfig::OksConfiguration</title>
<!-- Node1 -->
<g id="Node000001" class="node">
<title>Node1</title>
<g id="a_Node000001"><a xlink:title=" ">
<polygon fill="#999999" stroke="#666666" points="837.88,-276.25 739.38,-276.25 739.38,-245.75 837.88,-245.75 837.88,-276.25"/>
<text text-anchor="start" x="747.38" y="-262.75" font-family="Helvetica,sans-Serif" font-size="10.00">dunedaq::oksconfig</text>
<text text-anchor="middle" x="788.62" y="-251.5" font-family="Helvetica,sans-Serif" font-size="10.00">::OksConfiguration</text>
</a>
</g>
</g>
<!-- Node27 -->
<g id="Node000027" class="node">
<title>Node27</title>
<g id="a_Node000027"><a xlink:href="structdunedaq_1_1oksconfig_1_1OksConfigurationCheckDB.html" target="_top" xlink:title=" ">
<polygon fill="white" stroke="#666666" points="1099.5,-298.25 963.5,-298.25 963.5,-267.75 1099.5,-267.75 1099.5,-298.25"/>
<text text-anchor="start" x="971.5" y="-284.75" font-family="Helvetica,sans-Serif" font-size="10.00">dunedaq::oksconfig</text>
<text text-anchor="middle" x="1031.5" y="-273.5" font-family="Helvetica,sans-Serif" font-size="10.00">::OksConfigurationCheckDB</text>
</a>
</g>
</g>
<!-- Node1&#45;&gt;Node27 -->
<g id="edge35_Node000027_Node000001" class="edge">
<title>Node1&#45;&gt;Node27</title>
<g id="a_edge35_Node000027_Node000001"><a xlink:title=" ">
<path fill="none" stroke="#9a32cd" stroke-dasharray="5,2" d="M849.61,-253.02C878.72,-250.56 914.11,-249.67 945.5,-254.75 961.16,-257.28 977.83,-262.28 992.23,-267.38"/>
<polygon fill="#9a32cd" stroke="#9a32cd" points="849.51,-249.52 839.88,-253.93 850.16,-256.49 849.51,-249.52"/>
</a>
</g>
<text text-anchor="middle" x="907.62" y="-255.75" font-family="Helvetica,sans-Serif" font-size="10.00" fill="grey"> m_db</text>
</g>
<!-- Node2 -->
<g id="Node000002" class="node">
<title>Node2</title>
<g id="a_Node000002"><a xlink:href="classdunedaq_1_1oksdbinterfaces_1_1ConfigurationImpl.html" target="_top" xlink:title="Provides pure virtual interface used by the Configuration class.">
<polygon fill="white" stroke="#666666" points="584.5,-281.25 458.25,-281.25 458.25,-250.75 584.5,-250.75 584.5,-281.25"/>
<text text-anchor="start" x="466.25" y="-267.75" font-family="Helvetica,sans-Serif" font-size="10.00">dunedaq::oksdbinterfaces</text>
<text text-anchor="middle" x="521.38" y="-256.5" font-family="Helvetica,sans-Serif" font-size="10.00">::ConfigurationImpl</text>
</a>
</g>
</g>
<!-- Node2&#45;&gt;Node1 -->
<g id="edge1_Node000001_Node000002" class="edge">
<title>Node2&#45;&gt;Node1</title>
<g id="a_edge1_Node000001_Node000002"><a xlink:title=" ">
<path fill="none" stroke="#63b8ff" d="M596.24,-264.61C641.91,-263.75 699.24,-262.67 739.19,-261.91"/>
<polygon fill="#63b8ff" stroke="#63b8ff" points="596.35,-261.1 586.41,-264.79 596.48,-268.1 596.35,-261.1"/>
</a>
</g>
</g>
<!-- Node5 -->
<g id="Node000005" class="node">
<title>Node5</title>
<g id="a_Node000005"><a xlink:href="classdunedaq_1_1oksdbinterfaces_1_1Configuration.html" target="_top" xlink:title=" ">
<polygon fill="white" stroke="#666666" points="851.75,-394.25 725.5,-394.25 725.5,-363.75 851.75,-363.75 851.75,-394.25"/>
<text text-anchor="start" x="733.5" y="-380.75" font-family="Helvetica,sans-Serif" font-size="10.00">dunedaq::oksdbinterfaces</text>
<text text-anchor="middle" x="788.62" y="-369.5" font-family="Helvetica,sans-Serif" font-size="10.00">::Configuration</text>
</a>
</g>
</g>
<!-- Node2&#45;&gt;Node5 -->
<g id="edge13_Node000005_Node000002" class="edge">
<title>Node2&#45;&gt;Node5</title>
<g id="a_edge13_Node000005_Node000002"><a xlink:title=" ">
<path fill="none" stroke="#9a32cd" stroke-dasharray="5,2" d="M580.56,-285.74C587.79,-288.64 595,-291.75 601.75,-295 610.19,-299.07 611.14,-302.29 619.75,-306 656.86,-321.97 670.41,-313.73 707.5,-329.75 728.49,-338.81 750.48,-352.69 766.11,-363.41"/>
<polygon fill="#9a32cd" stroke="#9a32cd" points="582.02,-282.55 571.43,-282.21 579.5,-289.08 582.02,-282.55"/>
</a>
</g>
<text text-anchor="middle" x="663.62" y="-330.75" font-family="Helvetica,sans-Serif" font-size="10.00" fill="grey"> m_impl</text>
</g>
<!-- Node3 -->
<g id="Node000003" class="node">
<title>Node3</title>
<g id="a_Node000003"><a xlink:href="classdunedaq_1_1oksdbinterfaces_1_1pmap.html" target="_top" xlink:title=" ">
<polygon fill="white" stroke="#666666" points="334.5,-274.5 171.5,-274.5 171.5,-221.5 334.5,-221.5 334.5,-274.5"/>
<text text-anchor="start" x="179.5" y="-261" font-family="Helvetica,sans-Serif" font-size="10.00">dunedaq::oksdbinterfaces</text>
<text text-anchor="start" x="179.5" y="-249.75" font-family="Helvetica,sans-Serif" font-size="10.00">::pmap&lt; dunedaq::oksdbinterfaces</text>
<text text-anchor="start" x="179.5" y="-238.5" font-family="Helvetica,sans-Serif" font-size="10.00">::map&lt; dunedaq::oksdbinterfaces</text>
<text text-anchor="middle" x="253" y="-227.25" font-family="Helvetica,sans-Serif" font-size="10.00">::ConfigObjectImpl * &gt; * &gt;</text>
</a>
</g>
</g>
<!-- Node3&#45;&gt;Node2 -->
<g id="edge2_Node000002_Node000003" class="edge">
<title>Node3&#45;&gt;Node2</title>
<g id="a_edge2_Node000002_Node000003"><a xlink:title=" ">
<path fill="none" stroke="#9a32cd" stroke-dasharray="5,2" d="M345.93,-254.21C382.85,-256.71 424.45,-259.52 457.77,-261.77"/>
<polygon fill="#9a32cd" stroke="#9a32cd" points="346.37,-250.73 336.15,-253.55 345.9,-257.72 346.37,-250.73"/>
</a>
</g>
<text text-anchor="middle" x="387.75" y="-260.75" font-family="Helvetica,sans-Serif" font-size="10.00" fill="grey"> m_impl_objects</text>
</g>
<!-- Node4 -->
<g id="Node000004" class="node">
<title>Node4</title>
<g id="a_Node000004"><a xlink:title=" ">
<polygon fill="white" stroke="#666666" points="134.5,-285.75 0,-285.75 0,-210.25 134.5,-210.25 134.5,-285.75"/>
<text text-anchor="start" x="8" y="-272.25" font-family="Helvetica,sans-Serif" font-size="10.00">std::map&lt; const std</text>
<text text-anchor="start" x="8" y="-261" font-family="Helvetica,sans-Serif" font-size="10.00">::string *, dunedaq</text>
<text text-anchor="start" x="8" y="-249.75" font-family="Helvetica,sans-Serif" font-size="10.00">::oksdbinterfaces::map</text>
<text text-anchor="start" x="8" y="-238.5" font-family="Helvetica,sans-Serif" font-size="10.00">&lt; dunedaq::oksdbinterfaces</text>
<text text-anchor="start" x="8" y="-227.25" font-family="Helvetica,sans-Serif" font-size="10.00">::ConfigObjectImpl * &gt; * ,</text>
<text text-anchor="middle" x="67.25" y="-216" font-family="Helvetica,sans-Serif" font-size="10.00"> string_ptr_compare &gt;</text>
</a>
</g>
</g>
<!-- Node4&#45;&gt;Node3 -->
<g id="edge3_Node000003_Node000004" class="edge">
<title>Node4&#45;&gt;Node3</title>
<g id="a_edge3_Node000003_Node000004"><a xlink:title=" ">
<path fill="none" stroke="#63b8ff" d="M146.36,-248C154.59,-248 162.97,-248 171.23,-248"/>
<polygon fill="#63b8ff" stroke="#63b8ff" points="146.36,-244.5 136.36,-248 146.36,-251.5 146.36,-244.5"/>
</a>
</g>
</g>
<!-- Node5&#45;&gt;Node2 -->
<g id="edge4_Node000002_Node000005" class="edge">
<title>Node5&#45;&gt;Node2</title>
<g id="a_edge4_Node000002_Node000005"><a xlink:title=" ">
<path fill="none" stroke="#9a32cd" stroke-dasharray="5,2" d="M771.01,-354.06C756.61,-334.6 733.97,-308.61 707.5,-294.75 686.61,-283.81 629.99,-276.04 584.82,-271.36"/>
<polygon fill="#9a32cd" stroke="#9a32cd" points="768.04,-355.94 776.7,-362.05 773.74,-351.87 768.04,-355.94"/>
</a>
</g>
<text text-anchor="middle" x="663.62" y="-295.75" font-family="Helvetica,sans-Serif" font-size="10.00" fill="grey"> m_conf</text>
</g>
<!-- Node6 -->
<g id="Node000006" class="node">
<title>Node6</title>
<g id="a_Node000006"><a xlink:href="classdunedaq_1_1oksdbinterfaces_1_1map.html" target="_top" xlink:title=" ">
<polygon fill="white" stroke="#666666" points="600.25,-553.88 442.5,-553.88 442.5,-512.12 600.25,-512.12 600.25,-553.88"/>
<text text-anchor="start" x="450.5" y="-540.38" font-family="Helvetica,sans-Serif" font-size="10.00">dunedaq::oksdbinterfaces</text>
<text text-anchor="start" x="450.5" y="-529.12" font-family="Helvetica,sans-Serif" font-size="10.00">::map&lt; dunedaq::oksdbinterfaces</text>
<text text-anchor="middle" x="521.38" y="-517.88" font-family="Helvetica,sans-Serif" font-size="10.00">::class_t * &gt;</text>
</a>
</g>
</g>
<!-- Node6&#45;&gt;Node5 -->
<g id="edge5_Node000005_Node000006" class="edge">
<title>Node6&#45;&gt;Node5</title>
<g id="a_edge5_Node000005_Node000006"><a xlink:title=" ">
<path fill="none" stroke="#9a32cd" stroke-dasharray="5,2" d="M607.06,-507.96C639.92,-496.16 676.93,-480.17 707.5,-460 735.24,-441.7 761.08,-412.53 775.56,-394.65"/>
<polygon fill="#9a32cd" stroke="#9a32cd" points="606.25,-504.54 597.98,-511.15 608.57,-511.14 606.25,-504.54"/>
</a>
</g>
<text text-anchor="start" x="619.75" y="-538.5" font-family="Helvetica,sans-Serif" font-size="10.00" fill="grey"> p_all_classes_desc</text>
<text text-anchor="middle" x="663.62" y="-527.25" font-family="Helvetica,sans-Serif" font-size="10.00" fill="grey">_cache</text>
<text text-anchor="start" x="619.75" y="-516" font-family="Helvetica,sans-Serif" font-size="10.00" fill="grey">p_direct_classes</text>
<text text-anchor="middle" x="663.62" y="-504.75" font-family="Helvetica,sans-Serif" font-size="10.00" fill="grey">_desc_cache</text>
</g>
<!-- Node7 -->
<g id="Node000007" class="node">
<title>Node7</title>
<g id="a_Node000007"><a xlink:title=" ">
<polygon fill="white" stroke="#666666" points="322.88,-558.88 183.12,-558.88 183.12,-517.12 322.88,-517.12 322.88,-558.88"/>
<text text-anchor="start" x="191.12" y="-545.38" font-family="Helvetica,sans-Serif" font-size="10.00">std::unordered_map</text>
<text text-anchor="start" x="191.12" y="-534.12" font-family="Helvetica,sans-Serif" font-size="10.00">&lt; std::string, dunedaq</text>
<text text-anchor="middle" x="253" y="-522.88" font-family="Helvetica,sans-Serif" font-size="10.00">::oksdbinterfaces::class_t * &gt;</text>
</a>
</g>
</g>
<!-- Node7&#45;&gt;Node6 -->
<g id="edge6_Node000006_Node000007" class="edge">
<title>Node7&#45;&gt;Node6</title>
<g id="a_edge6_Node000006_Node000007"><a xlink:title=" ">
<path fill="none" stroke="#63b8ff" d="M334.62,-536.49C368.68,-535.85 408.21,-535.11 442.02,-534.47"/>
<polygon fill="#63b8ff" stroke="#63b8ff" points="334.74,-532.98 324.8,-536.67 334.87,-539.98 334.74,-532.98"/>
</a>
</g>
</g>
<!-- Node8 -->
<g id="Node000008" class="node">
<title>Node8</title>
<g id="a_Node000008"><a xlink:href="classdunedaq_1_1oksdbinterfaces_1_1fmap.html" target="_top" xlink:title=" ">
<polygon fill="white" stroke="#666666" points="584.5,-487.88 458.25,-487.88 458.25,-446.12 584.5,-446.12 584.5,-487.88"/>
<text text-anchor="start" x="466.25" y="-474.38" font-family="Helvetica,sans-Serif" font-size="10.00">dunedaq::oksdbinterfaces</text>
<text text-anchor="start" x="466.25" y="-463.12" font-family="Helvetica,sans-Serif" font-size="10.00">::fmap&lt; oksdbinterfaces</text>
<text text-anchor="middle" x="521.38" y="-451.88" font-family="Helvetica,sans-Serif" font-size="10.00">::fset &gt;</text>
</a>
</g>
</g>
<!-- Node8&#45;&gt;Node5 -->
<g id="edge7_Node000005_Node000008" class="edge">
<title>Node8&#45;&gt;Node5</title>
<g id="a_edge7_Node000005_Node000008"><a xlink:title=" ">
<path fill="none" stroke="#9a32cd" stroke-dasharray="5,2" d="M595.77,-442.65C642,-427.31 700.31,-407.97 740.45,-394.65"/>
<polygon fill="#9a32cd" stroke="#9a32cd" points="594.73,-439.31 586.34,-445.78 596.93,-445.95 594.73,-439.31"/>
</a>
</g>
<text text-anchor="middle" x="663.62" y="-446" font-family="Helvetica,sans-Serif" font-size="10.00" fill="grey"> p_subclasses</text>
<text text-anchor="middle" x="663.62" y="-434.75" font-family="Helvetica,sans-Serif" font-size="10.00" fill="grey">p_superclasses</text>
</g>
<!-- Node9 -->
<g id="Node000009" class="node">
<title>Node9</title>
<g id="a_Node000009"><a xlink:title=" ">
<polygon fill="white" stroke="#666666" points="310.5,-499.5 195.5,-499.5 195.5,-446.5 310.5,-446.5 310.5,-499.5"/>
<text text-anchor="start" x="203.5" y="-486" font-family="Helvetica,sans-Serif" font-size="10.00">std::unordered_map</text>
<text text-anchor="start" x="203.5" y="-474.75" font-family="Helvetica,sans-Serif" font-size="10.00">&lt; const std::string</text>
<text text-anchor="start" x="203.5" y="-463.5" font-family="Helvetica,sans-Serif" font-size="10.00"> *, oksdbinterfaces::</text>
<text text-anchor="middle" x="253" y="-452.25" font-family="Helvetica,sans-Serif" font-size="10.00">fset , string_ptr_hash &gt;</text>
</a>
</g>
</g>
<!-- Node9&#45;&gt;Node8 -->
<g id="edge8_Node000008_Node000009" class="edge">
<title>Node9&#45;&gt;Node8</title>
<g id="a_edge8_Node000008_Node000009"><a xlink:title=" ">
<path fill="none" stroke="#63b8ff" d="M322.31,-471.46C364.17,-470.52 417.35,-469.32 458.06,-468.4"/>
<polygon fill="#63b8ff" stroke="#63b8ff" points="322.25,-467.96 312.33,-471.69 322.41,-474.96 322.25,-467.96"/>
</a>
</g>
</g>
<!-- Node10 -->
<g id="Node000010" class="node">
<title>Node10</title>
<g id="a_Node000010"><a xlink:href="classdunedaq_1_1oksdbinterfaces_1_1map.html" target="_top" xlink:title=" ">
<polygon fill="white" stroke="#666666" points="596.5,-422.5 446.25,-422.5 446.25,-369.5 596.5,-369.5 596.5,-422.5"/>
<text text-anchor="start" x="454.25" y="-409" font-family="Helvetica,sans-Serif" font-size="10.00">dunedaq::oksdbinterfaces</text>
<text text-anchor="start" x="454.25" y="-397.75" font-family="Helvetica,sans-Serif" font-size="10.00">::map&lt; std::list&lt; dunedaq</text>
<text text-anchor="start" x="454.25" y="-386.5" font-family="Helvetica,sans-Serif" font-size="10.00">::oksdbinterfaces::Configuration</text>
<text text-anchor="middle" x="521.38" y="-375.25" font-family="Helvetica,sans-Serif" font-size="10.00">::AttributeConverterBase * &gt; * &gt;</text>
</a>
</g>
</g>
<!-- Node10&#45;&gt;Node5 -->
<g id="edge9_Node000005_Node000010" class="edge">
<title>Node10&#45;&gt;Node5</title>
<g id="a_edge9_Node000005_Node000010"><a xlink:title=" ">
<path fill="none" stroke="#9a32cd" stroke-dasharray="5,2" d="M608.07,-390.51C646.21,-388.06 690.3,-385.24 725.24,-383"/>
<polygon fill="#9a32cd" stroke="#9a32cd" points="608.23,-386.99 598.48,-391.12 608.68,-393.98 608.23,-386.99"/>
</a>
</g>
<text text-anchor="middle" x="663.62" y="-390.75" font-family="Helvetica,sans-Serif" font-size="10.00" fill="grey"> m_convert_map</text>
</g>
<!-- Node11 -->
<g id="Node000011" class="node">
<title>Node11</title>
<g id="a_Node000011"><a xlink:title=" ">
<polygon fill="white" stroke="#666666" points="333,-428.12 173,-428.12 173,-363.88 333,-363.88 333,-428.12"/>
<text text-anchor="start" x="181" y="-414.62" font-family="Helvetica,sans-Serif" font-size="10.00">std::unordered_map</text>
<text text-anchor="start" x="181" y="-403.38" font-family="Helvetica,sans-Serif" font-size="10.00">&lt; std::string, std::</text>
<text text-anchor="start" x="181" y="-392.12" font-family="Helvetica,sans-Serif" font-size="10.00">list&lt; dunedaq::oksdbinterfaces</text>
<text text-anchor="start" x="181" y="-380.88" font-family="Helvetica,sans-Serif" font-size="10.00">::Configuration::AttributeConverter</text>
<text text-anchor="middle" x="253" y="-369.62" font-family="Helvetica,sans-Serif" font-size="10.00">Base * &gt; * &gt;</text>
</a>
</g>
</g>
<!-- Node11&#45;&gt;Node10 -->
<g id="edge10_Node000010_Node000011" class="edge">
<title>Node11&#45;&gt;Node10</title>
<g id="a_edge10_Node000010_Node000011"><a xlink:title=" ">
<path fill="none" stroke="#63b8ff" d="M344.7,-396C377.71,-396 414.61,-396 446.04,-396"/>
<polygon fill="#63b8ff" stroke="#63b8ff" points="344.71,-392.5 334.71,-396 344.71,-399.5 344.71,-392.5"/>
</a>
</g>
</g>
<!-- Node12 -->
<g id="Node000012" class="node">
<title>Node12</title>
<g id="a_Node000012"><a xlink:href="classdunedaq_1_1oksdbinterfaces_1_1fmap.html" target="_top" xlink:title=" ">
<polygon fill="white" stroke="#666666" points="601.75,-345.88 441,-345.88 441,-304.12 601.75,-304.12 601.75,-345.88"/>
<text text-anchor="start" x="449" y="-332.38" font-family="Helvetica,sans-Serif" font-size="10.00">dunedaq::oksdbinterfaces</text>
<text text-anchor="start" x="449" y="-321.12" font-family="Helvetica,sans-Serif" font-size="10.00">::fmap&lt; dunedaq::oksdbinterfaces</text>
<text text-anchor="middle" x="521.38" y="-309.88" font-family="Helvetica,sans-Serif" font-size="10.00">::CacheBase * &gt;</text>
</a>
</g>
</g>
<!-- Node12&#45;&gt;Node5 -->
<g id="edge11_Node000005_Node000012" class="edge">
<title>Node12&#45;&gt;Node5</title>
<g id="a_edge11_Node000005_Node000012"><a xlink:title=" ">
<path fill="none" stroke="#9a32cd" stroke-dasharray="5,2" d="M612.78,-343.4C649.85,-350.95 691.84,-359.5 725.38,-366.33"/>
<polygon fill="#9a32cd" stroke="#9a32cd" points="613.94,-340.07 603.44,-341.5 612.54,-346.93 613.94,-340.07"/>
</a>
</g>
<text text-anchor="middle" x="663.62" y="-362.75" font-family="Helvetica,sans-Serif" font-size="10.00" fill="grey"> m_cache_map</text>
</g>
<!-- Node13 -->
<g id="Node000013" class="node">
<title>Node13</title>
<g id="a_Node000013"><a xlink:title=" ">
<polygon fill="white" stroke="#666666" points="331.5,-345.5 174.5,-345.5 174.5,-292.5 331.5,-292.5 331.5,-345.5"/>
<text text-anchor="start" x="182.5" y="-332" font-family="Helvetica,sans-Serif" font-size="10.00">std::unordered_map</text>
<text text-anchor="start" x="182.5" y="-320.75" font-family="Helvetica,sans-Serif" font-size="10.00">&lt; const std::string</text>
<text text-anchor="start" x="182.5" y="-309.5" font-family="Helvetica,sans-Serif" font-size="10.00"> *, dunedaq::oksdbinterfaces</text>
<text text-anchor="middle" x="253" y="-298.25" font-family="Helvetica,sans-Serif" font-size="10.00">::CacheBase *, string_ptr_hash &gt;</text>
</a>
</g>
</g>
<!-- Node13&#45;&gt;Node12 -->
<g id="edge12_Node000012_Node000013" class="edge">
<title>Node13&#45;&gt;Node12</title>
<g id="a_edge12_Node000012_Node000013"><a xlink:title=" ">
<path fill="none" stroke="#63b8ff" d="M343.2,-321.01C374.73,-321.72 409.97,-322.51 440.67,-323.2"/>
<polygon fill="#63b8ff" stroke="#63b8ff" points="343.35,-317.51 333.28,-320.79 343.19,-324.51 343.35,-317.51"/>
</a>
</g>
</g>
<!-- Node14 -->
<g id="Node000014" class="node">
<title>Node14</title>
<g id="a_Node000014"><a xlink:href="classdunedaq_1_1oks_1_1OksKernel.html" target="_top" xlink:title="Provides interface to the OKS kernel.">
<polygon fill="white" stroke="#666666" points="583,-98.62 459.75,-98.62 459.75,-79.38 583,-79.38 583,-98.62"/>
<text text-anchor="middle" x="521.38" y="-85.12" font-family="Helvetica,sans-Serif" font-size="10.00">dunedaq::oks::OksKernel</text>
</a>
</g>
</g>
<!-- Node14&#45;&gt;Node1 -->
<g id="edge14_Node000001_Node000014" class="edge">
<title>Node14&#45;&gt;Node1</title>
<g id="a_edge14_Node000001_Node000014"><a xlink:title=" ">
<path fill="none" stroke="#9a32cd" stroke-dasharray="5,2" d="M541.9,-105.95C576.8,-135.6 653.06,-197.5 725.5,-237 730.98,-239.99 736.92,-242.78 742.87,-245.34"/>
<polygon fill="#9a32cd" stroke="#9a32cd" points="544.58,-103.64 534.71,-99.79 540.03,-108.96 544.58,-103.64"/>
</a>
</g>
<text text-anchor="middle" x="663.62" y="-224.75" font-family="Helvetica,sans-Serif" font-size="10.00" fill="grey"> m_kernel</text>
</g>
<!-- Node15 -->
<g id="Node000015" class="node">
<title>Node15</title>
<g id="a_Node000015"><a xlink:href="classdunedaq_1_1oks_1_1OksFile.html" target="_top" xlink:title="Provides interface to the OKS XML schema and data files.">
<polygon fill="white" stroke="#666666" points="844.25,-64.62 733,-64.62 733,-45.38 844.25,-45.38 844.25,-64.62"/>
<text text-anchor="middle" x="788.62" y="-51.12" font-family="Helvetica,sans-Serif" font-size="10.00">dunedaq::oks::OksFile</text>
</a>
</g>
</g>
<!-- Node14&#45;&gt;Node15 -->
<g id="edge17_Node000015_Node000014" class="edge">
<title>Node14&#45;&gt;Node15</title>
<g id="a_edge17_Node000015_Node000014"><a xlink:title=" ">
<path fill="none" stroke="#9a32cd" stroke-dasharray="5,2" d="M554,-74.38C572.69,-66.56 597.06,-57.73 619.75,-53.75 657.07,-47.2 699.78,-47.63 732.78,-49.63"/>
<polygon fill="#9a32cd" stroke="#9a32cd" points="552.62,-71.17 544.83,-78.35 555.4,-77.59 552.62,-71.17"/>
</a>
</g>
<text text-anchor="middle" x="663.62" y="-55.75" font-family="Helvetica,sans-Serif" font-size="10.00" fill="grey"> p_kernel</text>
</g>
<!-- Node22 -->
<g id="Node000022" class="node">
<title>Node22</title>
<g id="a_Node000022"><a xlink:href="classdunedaq_1_1oks_1_1OksClass.html" target="_top" xlink:title="The OKS class.">
<polygon fill="white" stroke="#666666" points="1091.62,-136.62 971.38,-136.62 971.38,-117.38 1091.62,-117.38 1091.62,-136.62"/>
<text text-anchor="middle" x="1031.5" y="-123.12" font-family="Helvetica,sans-Serif" font-size="10.00">dunedaq::oks::OksClass</text>
</a>
</g>
</g>
<!-- Node14&#45;&gt;Node22 -->
<g id="edge26_Node000022_Node000014" class="edge">
<title>Node14&#45;&gt;Node22</title>
<g id="a_edge26_Node000022_Node000014"><a xlink:title=" ">
<path fill="none" stroke="#9a32cd" stroke-dasharray="5,2" d="M588.51,-100.86C598.94,-102.45 609.62,-103.9 619.75,-105 744.35,-118.53 891.15,-123.85 971.16,-125.86"/>
<polygon fill="#9a32cd" stroke="#9a32cd" points="589.25,-97.44 578.83,-99.34 588.16,-104.35 589.25,-97.44"/>
</a>
</g>
<text text-anchor="middle" x="788.62" y="-122.75" font-family="Helvetica,sans-Serif" font-size="10.00" fill="grey"> p_kernel</text>
</g>
<!-- Node15&#45;&gt;Node14 -->
<g id="edge15_Node000014_Node000015" class="edge">
<title>Node15&#45;&gt;Node14</title>
<g id="a_edge15_Node000014_Node000015"><a xlink:title=" ">
<path fill="none" stroke="#9a32cd" stroke-dasharray="5,2" d="M721.7,-65.04C716.9,-65.72 712.13,-66.38 707.5,-67 666.12,-72.56 619.44,-78.1 583.3,-82.23"/>
<polygon fill="#9a32cd" stroke="#9a32cd" points="722.02,-68.53 731.42,-63.64 721.02,-61.6 722.02,-68.53"/>
</a>
</g>
<text text-anchor="middle" x="663.62" y="-91" font-family="Helvetica,sans-Serif" font-size="10.00" fill="grey"> p_active_data</text>
<text text-anchor="middle" x="663.62" y="-79.75" font-family="Helvetica,sans-Serif" font-size="10.00" fill="grey">p_active_schema</text>
</g>
<!-- Node15&#45;&gt;Node15 -->
<g id="edge16_Node000015_Node000015" class="edge">
<title>Node15&#45;&gt;Node15</title>
<g id="a_edge16_Node000015_Node000015"><a xlink:title=" ">
<path fill="none" stroke="#9a32cd" stroke-dasharray="5,2" d="M767.5,-76.03C770.14,-79.9 777.19,-82.62 788.62,-82.62 809.54,-82.62 815.75,-73.52 807.26,-64.91"/>
<polygon fill="#9a32cd" stroke="#9a32cd" points="770.89,-76.91 769.66,-66.39 764.06,-75.38 770.89,-76.91"/>
</a>
</g>
<text text-anchor="middle" x="788.62" y="-84.38" font-family="Helvetica,sans-Serif" font-size="10.00" fill="grey"> p_included_by</text>
</g>
<!-- Node18 -->
<g id="Node000018" class="node">
<title>Node18</title>
<g id="a_Node000018"><a xlink:href="classdunedaq_1_1oks_1_1OksObject.html" target="_top" xlink:title="OksObject describes instance of OksClass.">
<polygon fill="white" stroke="#666666" points="1715.25,-123.62 1591.25,-123.62 1591.25,-104.38 1715.25,-104.38 1715.25,-123.62"/>
<text text-anchor="middle" x="1653.25" y="-110.12" font-family="Helvetica,sans-Serif" font-size="10.00">dunedaq::oks::OksObject</text>
</a>
</g>
</g>
<!-- Node15&#45;&gt;Node18 -->
<g id="edge33_Node000018_Node000015" class="edge">
<title>Node15&#45;&gt;Node18</title>
<g id="a_edge33_Node000018_Node000015"><a xlink:title=" ">
<path fill="none" stroke="#9a32cd" stroke-dasharray="5,2" d="M855.82,-61.77C904.16,-66.13 971.33,-71 1030.5,-71 1030.5,-71 1030.5,-71 1477.38,-71 1532.24,-71 1594.07,-91.21 1627.53,-103.92"/>
<polygon fill="#9a32cd" stroke="#9a32cd" points="856.35,-58.3 846.07,-60.87 855.71,-65.27 856.35,-58.3"/>
</a>
</g>
<text text-anchor="middle" x="1303.62" y="-72.75" font-family="Helvetica,sans-Serif" font-size="10.00" fill="grey"> file</text>
</g>
<!-- Node15&#45;&gt;Node22 -->
<g id="edge25_Node000022_Node000015" class="edge">
<title>Node15&#45;&gt;Node22</title>
<g id="a_edge25_Node000022_Node000015"><a xlink:title=" ">
<path fill="none" stroke="#9a32cd" stroke-dasharray="5,2" d="M829.29,-68.82C842.15,-73.18 856.51,-77.92 869.75,-82 911.43,-94.85 959.66,-108.14 992.34,-116.92"/>
<polygon fill="#9a32cd" stroke="#9a32cd" points="830.46,-65.52 819.87,-65.6 828.2,-72.15 830.46,-65.52"/>
</a>
</g>
<text text-anchor="middle" x="907.62" y="-105.75" font-family="Helvetica,sans-Serif" font-size="10.00" fill="grey"> p_file</text>
</g>
<!-- Node16 -->
<g id="Node000016" class="node">
<title>Node16</title>
<g id="a_Node000016"><a xlink:href="classdunedaq_1_1oks_1_1OksProfiler.html" target="_top" xlink:title=" ">
<polygon fill="white" stroke="#666666" points="315.75,-117.62 190.25,-117.62 190.25,-98.38 315.75,-98.38 315.75,-117.62"/>
<text text-anchor="middle" x="253" y="-104.12" font-family="Helvetica,sans-Serif" font-size="10.00">dunedaq::oks::OksProfiler</text>
</a>
</g>
</g>
<!-- Node16&#45;&gt;Node14 -->
<g id="edge18_Node000014_Node000016" class="edge">
<title>Node16&#45;&gt;Node14</title>
<g id="a_edge18_Node000014_Node000016"><a xlink:title=" ">
<path fill="none" stroke="#9a32cd" stroke-dasharray="5,2" d="M327.55,-102.75C369.06,-99.79 420.31,-96.14 459.54,-93.34"/>
<polygon fill="#9a32cd" stroke="#9a32cd" points="327.35,-99.26 317.63,-103.46 327.85,-106.24 327.35,-99.26"/>
</a>
</g>
<text text-anchor="middle" x="387.75" y="-102.75" font-family="Helvetica,sans-Serif" font-size="10.00" fill="grey"> profiler</text>
</g>
<!-- Node17 -->
<g id="Node000017" class="node">
<title>Node17</title>
<g id="a_Node000017"><a xlink:href="structdunedaq_1_1oks_1_1LoadErrors.html" target="_top" xlink:title=" ">
<polygon fill="white" stroke="#666666" points="315.38,-80.62 190.62,-80.62 190.62,-61.38 315.38,-61.38 315.38,-80.62"/>
<text text-anchor="middle" x="253" y="-67.12" font-family="Helvetica,sans-Serif" font-size="10.00">dunedaq::oks::LoadErrors</text>
</a>
</g>
</g>
<!-- Node17&#45;&gt;Node14 -->
<g id="edge19_Node000014_Node000017" class="edge">
<title>Node17&#45;&gt;Node14</title>
<g id="a_edge19_Node000014_Node000017"><a xlink:title=" ">
<path fill="none" stroke="#9a32cd" stroke-dasharray="5,2" d="M326.69,-70.66C356.57,-71.02 391.49,-72.11 423,-74.75 434.83,-75.74 447.42,-77.25 459.47,-78.91"/>
<polygon fill="#9a32cd" stroke="#9a32cd" points="327.05,-67.16 317.02,-70.56 326.99,-74.16 327.05,-67.16"/>
</a>
</g>
<text text-anchor="middle" x="387.75" y="-76.75" font-family="Helvetica,sans-Serif" font-size="10.00" fill="grey"> p_load_errors</text>
</g>
<!-- Node18&#45;&gt;Node14 -->
<g id="edge20_Node000014_Node000018" class="edge">
<title>Node18&#45;&gt;Node14</title>
<g id="a_edge20_Node000014_Node000018"><a xlink:title=" ">
<path fill="none" stroke="#9a32cd" stroke-dasharray="5,2" d="M1637.2,-95.29C1609.36,-62.94 1546.31,0 1477.38,0 787.62,0 787.62,0 787.62,0 689.26,0 580.54,-55.69 539.4,-78.96"/>
<polygon fill="#9a32cd" stroke="#9a32cd" points="1634.32,-97.3 1643.42,-102.72 1639.69,-92.81 1634.32,-97.3"/>
</a>
</g>
<text text-anchor="start" x="1117.5" y="-46.75" font-family="Helvetica,sans-Serif" font-size="10.00" fill="grey"> p_change_object_notify</text>
<text text-anchor="middle" x="1172.62" y="-35.5" font-family="Helvetica,sans-Serif" font-size="10.00" fill="grey">_fn</text>
<text text-anchor="start" x="1117.5" y="-24.25" font-family="Helvetica,sans-Serif" font-size="10.00" fill="grey">p_create_object_notify</text>
<text text-anchor="middle" x="1172.62" y="-13" font-family="Helvetica,sans-Serif" font-size="10.00" fill="grey">_fn</text>
<text text-anchor="middle" x="1172.62" y="-1.75" font-family="Helvetica,sans-Serif" font-size="10.00" fill="grey">p_delete_object_notify_fn</text>
</g>
<!-- Node21 -->
<g id="Node000021" class="node">
<title>Node21</title>
<g id="a_Node000021"><a xlink:href="uniondunedaq_1_1oks_1_1OksData_1_1Data.html" target="_top" xlink:title=" ">
<polygon fill="white" stroke="#666666" points="1361.5,-175.25 1245.75,-175.25 1245.75,-144.75 1361.5,-144.75 1361.5,-175.25"/>
<text text-anchor="start" x="1253.75" y="-161.75" font-family="Helvetica,sans-Serif" font-size="10.00">dunedaq::oks::OksData</text>
<text text-anchor="middle" x="1303.62" y="-150.5" font-family="Helvetica,sans-Serif" font-size="10.00">::Data</text>
</a>
</g>
</g>
<!-- Node18&#45;&gt;Node21 -->
<g id="edge29_Node000021_Node000018" class="edge">
<title>Node18&#45;&gt;Node21</title>
<g id="a_edge29_Node000021_Node000018"><a xlink:title=" ">
<path fill="none" stroke="#9a32cd" stroke-dasharray="5,2" d="M1591.3,-126.03C1585.21,-127.1 1579.12,-128.11 1573.25,-129 1500.62,-140.07 1416.4,-149.19 1361.9,-154.61"/>
<polygon fill="#9a32cd" stroke="#9a32cd" points="1591.48,-129.55 1600.7,-124.34 1590.24,-122.67 1591.48,-129.55"/>
</a>
</g>
<text text-anchor="middle" x="1476.38" y="-149.75" font-family="Helvetica,sans-Serif" font-size="10.00" fill="grey"> OBJECT</text>
</g>
<!-- Node19 -->
<g id="Node000019" class="node">
<title>Node19</title>
<g id="a_Node000019"><a xlink:title=" ">
<polygon fill="white" stroke="#666666" points="1051.88,-242.62 1011.12,-242.62 1011.12,-223.38 1051.88,-223.38 1051.88,-242.62"/>
<text text-anchor="middle" x="1031.5" y="-229.12" font-family="Helvetica,sans-Serif" font-size="10.00">struct</text>
</a>
</g>
</g>
<!-- Node19&#45;&gt;Node18 -->
<g id="edge21_Node000018_Node000019" class="edge">
<title>Node19&#45;&gt;Node18</title>
<g id="a_edge21_Node000018_Node000019"><a xlink:title=" ">
<path fill="none" stroke="#9a32cd" stroke-dasharray="5,2" d="M1063.14,-241.1C1079.2,-244.94 1099.27,-249.09 1117.5,-251 1166.23,-256.1 1179.23,-257.83 1227.75,-251 1387.64,-228.5 1568.67,-151.77 1630.34,-124.08"/>
<polygon fill="#9a32cd" stroke="#9a32cd" points="1064.25,-237.77 1053.7,-238.77 1062.57,-244.57 1064.25,-237.77"/>
</a>
</g>
<text text-anchor="middle" x="1390" y="-216.75" font-family="Helvetica,sans-Serif" font-size="10.00" fill="grey"> uid</text>
</g>
<!-- Node19&#45;&gt;Node21 -->
<g id="edge32_Node000021_Node000019" class="edge">
<title>Node19&#45;&gt;Node21</title>
<g id="a_edge32_Node000021_Node000019"><a xlink:title=" ">
<path fill="none" stroke="#9a32cd" stroke-dasharray="5,2" d="M1063.66,-232.32C1102.98,-230.61 1172.17,-224.77 1227.75,-205 1247.33,-198.04 1267.39,-185.64 1281.82,-175.62"/>
<polygon fill="#9a32cd" stroke="#9a32cd" points="1063.61,-228.82 1053.75,-232.68 1063.87,-235.81 1063.61,-228.82"/>
</a>
</g>
<text text-anchor="middle" x="1172.62" y="-241" font-family="Helvetica,sans-Serif" font-size="10.00" fill="grey"> UID</text>
<text text-anchor="middle" x="1172.62" y="-229.75" font-family="Helvetica,sans-Serif" font-size="10.00" fill="grey">UID2</text>
</g>
<!-- Node20 -->
<g id="Node000020" class="node">
<title>Node20</title>
<g id="a_Node000020"><a xlink:href="structdunedaq_1_1oks_1_1OksData.html" target="_top" xlink:title="the structure to pass common parameters to various read() methods of OksData and OksObject class">
<polygon fill="white" stroke="#666666" points="1534.25,-123.62 1418.5,-123.62 1418.5,-104.38 1534.25,-104.38 1534.25,-123.62"/>
<text text-anchor="middle" x="1476.38" y="-110.12" font-family="Helvetica,sans-Serif" font-size="10.00">dunedaq::oks::OksData</text>
</a>
</g>
</g>
<!-- Node20&#45;&gt;Node18 -->
<g id="edge22_Node000018_Node000020" class="edge">
<title>Node20&#45;&gt;Node18</title>
<g id="a_edge22_Node000018_Node000020"><a xlink:title=" ">
<path fill="none" stroke="#9a32cd" stroke-dasharray="5,2" d="M1545.83,-114C1560.71,-114 1576.36,-114 1590.95,-114"/>
<polygon fill="#9a32cd" stroke="#9a32cd" points="1546.15,-110.5 1536.15,-114 1546.15,-117.5 1546.15,-110.5"/>
</a>
</g>
<text text-anchor="middle" x="1562.75" y="-115.75" font-family="Helvetica,sans-Serif" font-size="10.00" fill="grey"> data</text>
</g>
<!-- Node21&#45;&gt;Node20 -->
<g id="edge23_Node000020_Node000021" class="edge">
<title>Node21&#45;&gt;Node20</title>
<g id="a_edge23_Node000020_Node000021"><a xlink:title=" ">
<path fill="none" stroke="#9a32cd" stroke-dasharray="5,2" d="M1358.99,-140.88C1365.86,-138.69 1372.82,-136.59 1379.5,-134.75 1393.78,-130.81 1409.43,-127.15 1423.87,-124.04"/>
<polygon fill="#9a32cd" stroke="#9a32cd" points="1358.18,-137.46 1349.76,-143.88 1360.35,-144.11 1358.18,-137.46"/>
</a>
</g>
<text text-anchor="middle" x="1390" y="-135.75" font-family="Helvetica,sans-Serif" font-size="10.00" fill="grey"> data</text>
</g>
<!-- Node22&#45;&gt;Node21 -->
<g id="edge24_Node000021_Node000022" class="edge">
<title>Node22&#45;&gt;Node21</title>
<g id="a_edge24_Node000021_Node000022"><a xlink:title=" ">
<path fill="none" stroke="#9a32cd" stroke-dasharray="5,2" d="M1103.19,-125.46C1140.51,-125.8 1186.91,-128.07 1227.75,-135.5 1238.92,-137.53 1250.72,-140.82 1261.56,-144.34"/>
<polygon fill="#9a32cd" stroke="#9a32cd" points="1103.45,-121.96 1093.43,-125.42 1103.42,-128.96 1103.45,-121.96"/>
</a>
</g>
<text text-anchor="middle" x="1172.62" y="-148" font-family="Helvetica,sans-Serif" font-size="10.00" fill="grey"> CLASS</text>
<text text-anchor="middle" x="1172.62" y="-136.75" font-family="Helvetica,sans-Serif" font-size="10.00" fill="grey">class_id</text>
</g>
<!-- Node23 -->
<g id="Node000023" class="node">
<title>Node23</title>
<g id="a_Node000023"><a xlink:href="classdunedaq_1_1oksdbinterfaces_1_1map.html" target="_top" xlink:title=" ">
<polygon fill="white" stroke="#666666" points="851.75,-190.25 725.5,-190.25 725.5,-159.75 851.75,-159.75 851.75,-190.25"/>
<text text-anchor="start" x="733.5" y="-176.75" font-family="Helvetica,sans-Serif" font-size="10.00">dunedaq::oksdbinterfaces</text>
<text text-anchor="middle" x="788.62" y="-165.5" font-family="Helvetica,sans-Serif" font-size="10.00">::map&lt; T &gt;</text>
</a>
</g>
</g>
<!-- Node23&#45;&gt;Node22 -->
<g id="edge27_Node000022_Node000023" class="edge">
<title>Node23&#45;&gt;Node22</title>
<g id="a_edge27_Node000022_Node000023"><a xlink:title=" ">
<path fill="none" stroke="#9a32cd" stroke-dasharray="5,2" d="M863.47,-160.33C889.41,-155.17 918.75,-149.34 945.5,-144 956.72,-141.76 968.76,-139.36 980.16,-137.08"/>
<polygon fill="#9a32cd" stroke="#9a32cd" points="862.81,-156.89 853.69,-162.28 864.18,-163.76 862.81,-156.89"/>
</a>
</g>
<text text-anchor="middle" x="907.62" y="-159.75" font-family="Helvetica,sans-Serif" font-size="10.00" fill="grey"> p_data_info</text>
</g>
<!-- Node24 -->
<g id="Node000024" class="node">
<title>Node24</title>
<g id="a_Node000024"><a xlink:title=" ">
<polygon fill="white" stroke="#666666" points="571.75,-204.25 471,-204.25 471,-173.75 571.75,-173.75 571.75,-204.25"/>
<text text-anchor="start" x="479" y="-190.75" font-family="Helvetica,sans-Serif" font-size="10.00">std::unordered_map</text>
<text text-anchor="middle" x="521.38" y="-179.5" font-family="Helvetica,sans-Serif" font-size="10.00">&lt; std::string, T &gt;</text>
</a>
</g>
</g>
<!-- Node24&#45;&gt;Node23 -->
<g id="edge28_Node000023_Node000024" class="edge">
<title>Node24&#45;&gt;Node23</title>
<g id="a_edge28_Node000023_Node000024"><a xlink:title=" ">
<path fill="none" stroke="#63b8ff" d="M583.27,-185.79C625.78,-183.54 682.35,-180.56 725.19,-178.3"/>
<polygon fill="#63b8ff" stroke="#63b8ff" points="583.27,-182.28 573.47,-186.3 583.64,-189.27 583.27,-182.28"/>
</a>
</g>
</g>
<!-- Node25 -->
<g id="Node000025" class="node">
<title>Node25</title>
<g id="a_Node000025"><a xlink:href="classdunedaq_1_1oks_1_1OksString.html" target="_top" xlink:title="Class OKS string.">
<polygon fill="white" stroke="#666666" points="1092,-195.62 971,-195.62 971,-176.38 1092,-176.38 1092,-195.62"/>
<text text-anchor="middle" x="1031.5" y="-182.12" font-family="Helvetica,sans-Serif" font-size="10.00">dunedaq::oks::OksString</text>
</a>
</g>
</g>
<!-- Node25&#45;&gt;Node21 -->
<g id="edge30_Node000021_Node000025" class="edge">
<title>Node25&#45;&gt;Node21</title>
<g id="a_edge30_Node000021_Node000025"><a xlink:title=" ">
<path fill="none" stroke="#9a32cd" stroke-dasharray="5,2" d="M1096.72,-174.08C1103.72,-173.01 1110.75,-172.04 1117.5,-171.25 1160.2,-166.26 1208.7,-163.42 1245.35,-161.84"/>
<polygon fill="#9a32cd" stroke="#9a32cd" points="1096.24,-170.61 1086.91,-175.64 1097.34,-177.52 1096.24,-170.61"/>
</a>
</g>
<text text-anchor="middle" x="1172.62" y="-195.25" font-family="Helvetica,sans-Serif" font-size="10.00" fill="grey"> STRING</text>
<text text-anchor="middle" x="1172.62" y="-184" font-family="Helvetica,sans-Serif" font-size="10.00" fill="grey">class_id</text>
<text text-anchor="middle" x="1172.62" y="-172.75" font-family="Helvetica,sans-Serif" font-size="10.00" fill="grey">object_id</text>
</g>
<!-- Node26 -->
<g id="Node000026" class="node">
<title>Node26</title>
<g id="a_Node000026"><a xlink:title=" ">
<polygon fill="white" stroke="#666666" points="817.62,-227.62 759.62,-227.62 759.62,-208.38 817.62,-208.38 817.62,-227.62"/>
<text text-anchor="middle" x="788.62" y="-214.12" font-family="Helvetica,sans-Serif" font-size="10.00">std::string</text>
</a>
</g>
</g>
<!-- Node26&#45;&gt;Node25 -->
<g id="edge31_Node000025_Node000026" class="edge">
<title>Node26&#45;&gt;Node25</title>
<g id="a_edge31_Node000025_Node000026"><a xlink:title=" ">
<path fill="none" stroke="#63b8ff" d="M828.98,-212.77C867.48,-207.66 926.63,-199.8 970.91,-193.92"/>
<polygon fill="#63b8ff" stroke="#63b8ff" points="828.68,-209.28 819.23,-214.07 829.6,-216.22 828.68,-209.28"/>
</a>
</g>
</g>
<!-- Node27&#45;&gt;Node1 -->
<g id="edge34_Node000001_Node000027" class="edge">
<title>Node27&#45;&gt;Node1</title>
<g id="a_edge34_Node000001_Node000027"><a xlink:title=" ">
<path fill="none" stroke="#9a32cd" stroke-dasharray="5,2" d="M951.73,-275.81C914.36,-272.39 870.89,-268.42 838.37,-265.45"/>
<polygon fill="#9a32cd" stroke="#9a32cd" points="951.33,-279.28 961.61,-276.71 951.97,-272.31 951.33,-279.28"/>
</a>
</g>
<text text-anchor="middle" x="907.62" y="-275.75" font-family="Helvetica,sans-Serif" font-size="10.00" fill="grey"> m_check_db_obj</text>
</g>
</g>
</svg>
