<?xml version="1.0" encoding="UTF-8" standalone="no"?>
<!DOCTYPE svg PUBLIC "-//W3C//DTD SVG 1.1//EN"
 "http://www.w3.org/Graphics/SVG/1.1/DTD/svg11.dtd">
<!-- Generated by graphviz version 9.0.0 (20230911.1827)
 -->
<!-- Title: dunedaq::oks::ObjectBindError Pages: 1 -->
<svg width="1451pt" height="435pt"
 viewBox="0.00 0.00 1450.50 435.25" xmlns="http://www.w3.org/2000/svg" xmlns:xlink="http://www.w3.org/1999/xlink">
<g id="graph0" class="graph" transform="scale(1 1) rotate(0) translate(4 431.25)">
<title>dunedaq::oks::ObjectBindError</title>
<!-- Node1 -->
<g id="Node000001" class="node">
<title>Node1</title>
<g id="a_Node000001"><a xlink:title=" ">
<polygon fill="#999999" stroke="#666666" points="1442.5,-394.88 1317,-394.88 1317,-364.38 1442.5,-364.38 1442.5,-394.88"/>
<text text-anchor="start" x="1325" y="-381.38" font-family="Helvetica,sans-Serif" font-size="10.00">dunedaq::oks::ObjectBind</text>
<text text-anchor="middle" x="1379.75" y="-370.12" font-family="Helvetica,sans-Serif" font-size="10.00">Error</text>
</a>
</g>
</g>
<!-- Node2 -->
<g id="Node000002" class="node">
<title>Node2</title>
<g id="a_Node000002"><a xlink:href="classdunedaq_1_1oks_1_1exception.html" target="_top" xlink:title=" ">
<polygon fill="white" stroke="#666666" points="1242.75,-427.25 1124,-427.25 1124,-408 1242.75,-408 1242.75,-427.25"/>
<text text-anchor="middle" x="1183.38" y="-413.75" font-family="Helvetica,sans-Serif" font-size="10.00">dunedaq::oks::exception</text>
</a>
</g>
</g>
<!-- Node2&#45;&gt;Node1 -->
<g id="edge1_Node000001_Node000002" class="edge">
<title>Node2&#45;&gt;Node1</title>
<g id="a_edge1_Node000001_Node000002"><a xlink:title=" ">
<path fill="none" stroke="#63b8ff" d="M1246.97,-405.39C1269.24,-401.03 1294.3,-396.14 1316.53,-391.79"/>
<polygon fill="#63b8ff" stroke="#63b8ff" points="1246.58,-401.9 1237.44,-407.25 1247.92,-408.77 1246.58,-401.9"/>
</a>
</g>
</g>
<!-- Node3 -->
<g id="Node000003" class="node">
<title>Node3</title>
<g id="a_Node000003"><a xlink:title=" ">
<polygon fill="white" stroke="#666666" points="993.12,-427.25 917.88,-427.25 917.88,-408 993.12,-408 993.12,-427.25"/>
<text text-anchor="middle" x="955.5" y="-413.75" font-family="Helvetica,sans-Serif" font-size="10.00">std::exception</text>
</a>
</g>
</g>
<!-- Node3&#45;&gt;Node2 -->
<g id="edge2_Node000002_Node000003" class="edge">
<title>Node3&#45;&gt;Node2</title>
<g id="a_edge2_Node000002_Node000003"><a xlink:title=" ">
<path fill="none" stroke="#63b8ff" d="M1004.84,-417.62C1039.62,-417.62 1086.72,-417.62 1123.66,-417.62"/>
<polygon fill="#63b8ff" stroke="#63b8ff" points="1005.06,-414.13 995.06,-417.63 1005.06,-421.13 1005.06,-414.13"/>
</a>
</g>
</g>
<!-- Node4 -->
<g id="Node000004" class="node">
<title>Node4</title>
<g id="a_Node000004"><a xlink:href="structdunedaq_1_1oks_1_1OksData.html" target="_top" xlink:title="the structure to pass common parameters to various read() methods of OksData and OksObject class">
<polygon fill="white" stroke="#666666" points="115.75,-343.25 0,-343.25 0,-324 115.75,-324 115.75,-343.25"/>
<text text-anchor="middle" x="57.88" y="-329.75" font-family="Helvetica,sans-Serif" font-size="10.00">dunedaq::oks::OksData</text>
</a>
</g>
</g>
<!-- Node4&#45;&gt;Node1 -->
<g id="edge3_Node000001_Node000004" class="edge">
<title>Node4&#45;&gt;Node1</title>
<g id="a_edge3_Node000001_Node000004"><a xlink:title=" ">
<path fill="none" stroke="#9a32cd" stroke-dasharray="5,2" d="M92.47,-347.91C127.33,-361.42 183.73,-379.62 234.5,-379.62 234.5,-379.62 234.5,-379.62 1184.38,-379.62 1228.58,-379.62 1278.44,-379.62 1316.6,-379.62"/>
<polygon fill="#9a32cd" stroke="#9a32cd" points="93.94,-344.73 83.35,-344.28 91.35,-351.23 93.94,-344.73"/>
</a>
</g>
<text text-anchor="middle" x="743.38" y="-381.38" font-family="Helvetica,sans-Serif" font-size="10.00" fill="grey"> p_data</text>
</g>
<!-- Node11 -->
<g id="Node000011" class="node">
<title>Node11</title>
<g id="a_Node000011"><a xlink:href="classdunedaq_1_1oks_1_1OksObject.html" target="_top" xlink:title="OksObject describes instance of OksClass.">
<polygon fill="white" stroke="#666666" points="297.5,-258.25 173.5,-258.25 173.5,-239 297.5,-239 297.5,-258.25"/>
<text text-anchor="middle" x="235.5" y="-244.75" font-family="Helvetica,sans-Serif" font-size="10.00">dunedaq::oks::OksObject</text>
</a>
</g>
</g>
<!-- Node4&#45;&gt;Node11 -->
<g id="edge14_Node000011_Node000004" class="edge">
<title>Node4&#45;&gt;Node11</title>
<g id="a_edge14_Node000011_Node000004"><a xlink:title=" ">
<path fill="none" stroke="#9a32cd" stroke-dasharray="5,2" d="M90.02,-318.55C125.67,-301.3 183.07,-273.51 213.69,-258.7"/>
<polygon fill="#9a32cd" stroke="#9a32cd" points="88.55,-315.37 81.07,-322.88 91.6,-321.68 88.55,-315.37"/>
</a>
</g>
<text text-anchor="middle" x="144.25" y="-297.38" font-family="Helvetica,sans-Serif" font-size="10.00" fill="grey"> data</text>
</g>
<!-- Node5 -->
<g id="Node000005" class="node">
<title>Node5</title>
<g id="a_Node000005"><a xlink:href="uniondunedaq_1_1oks_1_1OksData_1_1Data.html" target="_top" xlink:title=" ">
<polygon fill="white" stroke="#666666" points="1241.25,-263.88 1125.5,-263.88 1125.5,-233.38 1241.25,-233.38 1241.25,-263.88"/>
<text text-anchor="start" x="1133.5" y="-250.38" font-family="Helvetica,sans-Serif" font-size="10.00">dunedaq::oks::OksData</text>
<text text-anchor="middle" x="1183.38" y="-239.12" font-family="Helvetica,sans-Serif" font-size="10.00">::Data</text>
</a>
</g>
</g>
<!-- Node5&#45;&gt;Node4 -->
<g id="edge4_Node000004_Node000005" class="edge">
<title>Node5&#45;&gt;Node4</title>
<g id="a_edge4_Node000004_Node000005"><a xlink:title=" ">
<path fill="none" stroke="#9a32cd" stroke-dasharray="5,2" d="M1148.8,-269.99C1105.93,-295.17 1028.65,-333.62 956.5,-333.62 234.5,-333.62 234.5,-333.62 234.5,-333.62 195.01,-333.62 150.54,-333.62 116.22,-333.62"/>
<polygon fill="#9a32cd" stroke="#9a32cd" points="1150.35,-273.14 1157.13,-264.99 1146.75,-267.14 1150.35,-273.14"/>
</a>
</g>
<text text-anchor="middle" x="624" y="-335.38" font-family="Helvetica,sans-Serif" font-size="10.00" fill="grey"> data</text>
</g>
<!-- Node6 -->
<g id="Node000006" class="node">
<title>Node6</title>
<g id="a_Node000006"><a xlink:href="classdunedaq_1_1oks_1_1OksClass.html" target="_top" xlink:title="The OKS class.">
<polygon fill="white" stroke="#666666" points="1015.62,-174.25 895.38,-174.25 895.38,-155 1015.62,-155 1015.62,-174.25"/>
<text text-anchor="middle" x="955.5" y="-160.75" font-family="Helvetica,sans-Serif" font-size="10.00">dunedaq::oks::OksClass</text>
</a>
</g>
</g>
<!-- Node6&#45;&gt;Node5 -->
<g id="edge5_Node000005_Node000006" class="edge">
<title>Node6&#45;&gt;Node5</title>
<g id="a_edge5_Node000005_Node000006"><a xlink:title=" ">
<path fill="none" stroke="#9a32cd" stroke-dasharray="5,2" d="M996.54,-178.29C1023.37,-187.56 1059.42,-200.25 1091,-212.12 1108.59,-218.74 1127.93,-226.41 1144.28,-233.01"/>
<polygon fill="#9a32cd" stroke="#9a32cd" points="998.04,-175.1 987.44,-175.15 995.76,-181.72 998.04,-175.1"/>
</a>
</g>
<text text-anchor="middle" x="1062.5" y="-225.62" font-family="Helvetica,sans-Serif" font-size="10.00" fill="grey"> CLASS</text>
<text text-anchor="middle" x="1062.5" y="-214.38" font-family="Helvetica,sans-Serif" font-size="10.00" fill="grey">class_id</text>
</g>
<!-- Node17 -->
<g id="Node000017" class="node">
<title>Node17</title>
<g id="a_Node000017"><a xlink:href="classdunedaq_1_1oks_1_1OksRelationship.html" target="_top" xlink:title=" ">
<polygon fill="white" stroke="#666666" points="1257.75,-195.25 1109,-195.25 1109,-176 1257.75,-176 1257.75,-195.25"/>
<text text-anchor="middle" x="1183.38" y="-181.75" font-family="Helvetica,sans-Serif" font-size="10.00">dunedaq::oks::OksRelationship</text>
</a>
</g>
</g>
<!-- Node6&#45;&gt;Node17 -->
<g id="edge24_Node000017_Node000006" class="edge">
<title>Node6&#45;&gt;Node17</title>
<g id="a_edge24_Node000017_Node000006"><a xlink:title=" ">
<path fill="none" stroke="#9a32cd" stroke-dasharray="5,2" d="M1027.15,-162.78C1047.79,-162.95 1070.34,-163.83 1091,-166.12 1108.41,-168.06 1127.39,-171.83 1143.52,-175.55"/>
<polygon fill="#9a32cd" stroke="#9a32cd" points="1027.43,-159.28 1017.42,-162.75 1027.42,-166.28 1027.43,-159.28"/>
</a>
</g>
<text text-anchor="middle" x="1062.5" y="-179.62" font-family="Helvetica,sans-Serif" font-size="10.00" fill="grey"> p_class</text>
<text text-anchor="middle" x="1062.5" y="-168.38" font-family="Helvetica,sans-Serif" font-size="10.00" fill="grey">p_class_type</text>
</g>
<!-- Node7 -->
<g id="Node000007" class="node">
<title>Node7</title>
<g id="a_Node000007"><a xlink:href="classdunedaq_1_1oks_1_1OksFile.html" target="_top" xlink:title="Provides interface to the OKS XML schema and data files.">
<polygon fill="white" stroke="#666666" points="799,-133.25 687.75,-133.25 687.75,-114 799,-114 799,-133.25"/>
<text text-anchor="middle" x="743.38" y="-119.75" font-family="Helvetica,sans-Serif" font-size="10.00">dunedaq::oks::OksFile</text>
</a>
</g>
</g>
<!-- Node7&#45;&gt;Node6 -->
<g id="edge6_Node000006_Node000007" class="edge">
<title>Node7&#45;&gt;Node6</title>
<g id="a_edge6_Node000006_Node000007"><a xlink:title=" ">
<path fill="none" stroke="#9a32cd" stroke-dasharray="5,2" d="M807,-135.84C837.5,-141.8 873.74,-148.87 902.66,-154.51"/>
<polygon fill="#9a32cd" stroke="#9a32cd" points="808.02,-132.48 797.53,-134 806.68,-139.35 808.02,-132.48"/>
</a>
</g>
<text text-anchor="middle" x="850.75" y="-151.38" font-family="Helvetica,sans-Serif" font-size="10.00" fill="grey"> p_file</text>
</g>
<!-- Node7&#45;&gt;Node7 -->
<g id="edge7_Node000007_Node000007" class="edge">
<title>Node7&#45;&gt;Node7</title>
<g id="a_edge7_Node000007_Node000007"><a xlink:title=" ">
<path fill="none" stroke="#9a32cd" stroke-dasharray="5,2" d="M724.32,-144.65C726.7,-148.53 733.05,-151.25 743.38,-151.25 762.25,-151.25 767.85,-142.15 760.19,-133.54"/>
<polygon fill="#9a32cd" stroke="#9a32cd" points="727.71,-145.52 726.26,-135.02 720.85,-144.13 727.71,-145.52"/>
</a>
</g>
<text text-anchor="middle" x="743.38" y="-153" font-family="Helvetica,sans-Serif" font-size="10.00" fill="grey"> p_included_by</text>
</g>
<!-- Node8 -->
<g id="Node000008" class="node">
<title>Node8</title>
<g id="a_Node000008"><a xlink:href="classdunedaq_1_1oks_1_1OksKernel.html" target="_top" xlink:title="Provides interface to the OKS kernel.">
<polygon fill="white" stroke="#666666" points="567.75,-81.25 444.5,-81.25 444.5,-62 567.75,-62 567.75,-81.25"/>
<text text-anchor="middle" x="506.12" y="-67.75" font-family="Helvetica,sans-Serif" font-size="10.00">dunedaq::oks::OksKernel</text>
</a>
</g>
</g>
<!-- Node7&#45;&gt;Node8 -->
<g id="edge9_Node000008_Node000007" class="edge">
<title>Node7&#45;&gt;Node8</title>
<g id="a_edge9_Node000008_Node000007"><a xlink:title=" ">
<path fill="none" stroke="#9a32cd" stroke-dasharray="5,2" d="M676.13,-116.99C648,-113.38 615.01,-108.08 585.75,-100.62 566.72,-95.77 545.89,-87.97 530.46,-81.69"/>
<polygon fill="#9a32cd" stroke="#9a32cd" points="675.61,-120.45 685.96,-118.2 676.46,-113.5 675.61,-120.45"/>
</a>
</g>
<text text-anchor="middle" x="624" y="-128.62" font-family="Helvetica,sans-Serif" font-size="10.00" fill="grey"> p_active_data</text>
<text text-anchor="middle" x="624" y="-117.38" font-family="Helvetica,sans-Serif" font-size="10.00" fill="grey">p_active_schema</text>
</g>
<!-- Node7&#45;&gt;Node11 -->
<g id="edge15_Node000011_Node000007" class="edge">
<title>Node7&#45;&gt;Node11</title>
<g id="a_edge15_Node000011_Node000007"><a xlink:title=" ">
<path fill="none" stroke="#9a32cd" stroke-dasharray="5,2" d="M689.92,-136.12C680.73,-138.1 671.23,-140.03 662.25,-141.62 566.14,-158.73 539.19,-146.65 444.5,-170.38 374.33,-187.96 295.37,-221.76 258.14,-238.59"/>
<polygon fill="#9a32cd" stroke="#9a32cd" points="690.45,-139.58 699.45,-134.01 688.93,-132.75 690.45,-139.58"/>
</a>
</g>
<text text-anchor="middle" x="506.12" y="-172.38" font-family="Helvetica,sans-Serif" font-size="10.00" fill="grey"> file</text>
</g>
<!-- Node8&#45;&gt;Node6 -->
<g id="edge16_Node000006_Node000008" class="edge">
<title>Node8&#45;&gt;Node6</title>
<g id="a_edge16_Node000006_Node000008"><a xlink:title=" ">
<path fill="none" stroke="#9a32cd" stroke-dasharray="5,2" d="M579.37,-68.02C641.05,-67.01 731.41,-70.5 806.5,-93.38 856.69,-108.67 911.19,-138.79 937.88,-154.52"/>
<polygon fill="#9a32cd" stroke="#9a32cd" points="579.64,-64.51 569.71,-68.22 579.79,-71.51 579.64,-64.51"/>
</a>
</g>
<text text-anchor="middle" x="743.38" y="-95.38" font-family="Helvetica,sans-Serif" font-size="10.00" fill="grey"> p_kernel</text>
</g>
<!-- Node8&#45;&gt;Node7 -->
<g id="edge8_Node000007_Node000008" class="edge">
<title>Node8&#45;&gt;Node7</title>
<g id="a_edge8_Node000007_Node000008"><a xlink:title=" ">
<path fill="none" stroke="#9a32cd" stroke-dasharray="5,2" d="M579.38,-75.52C605.77,-78.08 635.66,-82.33 662.25,-89.38 683.89,-95.11 707.29,-105.66 723.18,-113.54"/>
<polygon fill="#9a32cd" stroke="#9a32cd" points="579.7,-72.03 569.43,-74.63 579.07,-79.01 579.7,-72.03"/>
</a>
</g>
<text text-anchor="middle" x="624" y="-91.38" font-family="Helvetica,sans-Serif" font-size="10.00" fill="grey"> p_kernel</text>
</g>
<!-- Node9 -->
<g id="Node000009" class="node">
<title>Node9</title>
<g id="a_Node000009"><a xlink:href="classdunedaq_1_1oks_1_1OksProfiler.html" target="_top" xlink:title=" ">
<polygon fill="white" stroke="#666666" points="298.25,-65.25 172.75,-65.25 172.75,-46 298.25,-46 298.25,-65.25"/>
<text text-anchor="middle" x="235.5" y="-51.75" font-family="Helvetica,sans-Serif" font-size="10.00">dunedaq::oks::OksProfiler</text>
</a>
</g>
</g>
<!-- Node9&#45;&gt;Node8 -->
<g id="edge10_Node000008_Node000009" class="edge">
<title>Node9&#45;&gt;Node8</title>
<g id="a_edge10_Node000008_Node000009"><a xlink:title=" ">
<path fill="none" stroke="#9a32cd" stroke-dasharray="5,2" d="M309.88,-52.71C345.21,-52.13 388.14,-52.61 426.5,-56.38 437.71,-57.47 449.7,-59.4 460.85,-61.53"/>
<polygon fill="#9a32cd" stroke="#9a32cd" points="310.13,-49.21 300.2,-52.91 310.27,-56.21 310.13,-49.21"/>
</a>
</g>
<text text-anchor="middle" x="371.38" y="-58.38" font-family="Helvetica,sans-Serif" font-size="10.00" fill="grey"> profiler</text>
</g>
<!-- Node10 -->
<g id="Node000010" class="node">
<title>Node10</title>
<g id="a_Node000010"><a xlink:href="structdunedaq_1_1oks_1_1LoadErrors.html" target="_top" xlink:title=" ">
<polygon fill="white" stroke="#666666" points="297.88,-28.25 173.12,-28.25 173.12,-9 297.88,-9 297.88,-28.25"/>
<text text-anchor="middle" x="235.5" y="-14.75" font-family="Helvetica,sans-Serif" font-size="10.00">dunedaq::oks::LoadErrors</text>
</a>
</g>
</g>
<!-- Node10&#45;&gt;Node8 -->
<g id="edge11_Node000008_Node000010" class="edge">
<title>Node10&#45;&gt;Node8</title>
<g id="a_edge11_Node000008_Node000010"><a xlink:title=" ">
<path fill="none" stroke="#9a32cd" stroke-dasharray="5,2" d="M309.42,-20.5C345.17,-22.75 388.58,-27.51 426.5,-37.38 447.97,-42.96 471.08,-53.65 486.65,-61.6"/>
<polygon fill="#9a32cd" stroke="#9a32cd" points="309.8,-17.01 299.62,-19.94 309.4,-24 309.8,-17.01"/>
</a>
</g>
<text text-anchor="middle" x="371.38" y="-39.38" font-family="Helvetica,sans-Serif" font-size="10.00" fill="grey"> p_load_errors</text>
</g>
<!-- Node11&#45;&gt;Node5 -->
<g id="edge19_Node000005_Node000011" class="edge">
<title>Node11&#45;&gt;Node5</title>
<g id="a_edge19_Node000005_Node000011"><a xlink:title=" ">
<path fill="none" stroke="#9a32cd" stroke-dasharray="5,2" d="M309.04,-248.62C363.1,-248.62 438.73,-248.62 505.12,-248.62 505.12,-248.62 505.12,-248.62 956.5,-248.62 1013.95,-248.62 1079.62,-248.62 1125.28,-248.62"/>
<polygon fill="#9a32cd" stroke="#9a32cd" points="309.36,-245.13 299.36,-248.63 309.36,-252.13 309.36,-245.13"/>
</a>
</g>
<text text-anchor="middle" x="743.38" y="-250.38" font-family="Helvetica,sans-Serif" font-size="10.00" fill="grey"> OBJECT</text>
</g>
<!-- Node11&#45;&gt;Node8 -->
<g id="edge12_Node000008_Node000011" class="edge">
<title>Node11&#45;&gt;Node8</title>
<g id="a_edge12_Node000008_Node000011"><a xlink:title=" ">
<path fill="none" stroke="#9a32cd" stroke-dasharray="5,2" d="M240.42,-227.45C248.12,-192.39 268.81,-122.93 316.25,-90.38 336.49,-76.48 397.15,-72.41 444.33,-71.43"/>
<polygon fill="#9a32cd" stroke="#9a32cd" points="237,-226.69 238.44,-237.19 243.86,-228.09 237,-226.69"/>
</a>
</g>
<text text-anchor="start" x="316.25" y="-137.38" font-family="Helvetica,sans-Serif" font-size="10.00" fill="grey"> p_change_object_notify</text>
<text text-anchor="middle" x="371.38" y="-126.12" font-family="Helvetica,sans-Serif" font-size="10.00" fill="grey">_fn</text>
<text text-anchor="start" x="316.25" y="-114.88" font-family="Helvetica,sans-Serif" font-size="10.00" fill="grey">p_create_object_notify</text>
<text text-anchor="middle" x="371.38" y="-103.62" font-family="Helvetica,sans-Serif" font-size="10.00" fill="grey">_fn</text>
<text text-anchor="middle" x="371.38" y="-92.38" font-family="Helvetica,sans-Serif" font-size="10.00" fill="grey">p_delete_object_notify_fn</text>
</g>
<!-- Node12 -->
<g id="Node000012" class="node">
<title>Node12</title>
<g id="a_Node000012"><a xlink:title=" ">
<polygon fill="white" stroke="#666666" points="78.25,-271.25 37.5,-271.25 37.5,-252 78.25,-252 78.25,-271.25"/>
<text text-anchor="middle" x="57.88" y="-257.75" font-family="Helvetica,sans-Serif" font-size="10.00">struct</text>
</a>
</g>
</g>
<!-- Node12&#45;&gt;Node5 -->
<g id="edge22_Node000005_Node000012" class="edge">
<title>Node12&#45;&gt;Node5</title>
<g id="a_edge22_Node000005_Node000012"><a xlink:title=" ">
<path fill="none" stroke="#9a32cd" stroke-dasharray="5,2" d="M89.84,-264.67C162.35,-271.54 348.87,-287.62 505.12,-287.62 505.12,-287.62 505.12,-287.62 956.5,-287.62 1014.6,-287.62 1079.9,-274.94 1125.28,-264.04"/>
<polygon fill="#9a32cd" stroke="#9a32cd" points="90.22,-261.19 79.93,-263.72 89.55,-268.16 90.22,-261.19"/>
</a>
</g>
<text text-anchor="middle" x="624" y="-300.62" font-family="Helvetica,sans-Serif" font-size="10.00" fill="grey"> UID</text>
<text text-anchor="middle" x="624" y="-289.38" font-family="Helvetica,sans-Serif" font-size="10.00" fill="grey">UID2</text>
</g>
<!-- Node12&#45;&gt;Node11 -->
<g id="edge13_Node000011_Node000012" class="edge">
<title>Node12&#45;&gt;Node11</title>
<g id="a_edge13_Node000011_Node000012"><a xlink:title=" ">
<path fill="none" stroke="#9a32cd" stroke-dasharray="5,2" d="M89.57,-255.5C103.06,-253.1 119.13,-250.62 133.75,-249.38 146.47,-248.29 160.13,-247.77 173.16,-247.57"/>
<polygon fill="#9a32cd" stroke="#9a32cd" points="89.16,-252.02 79.97,-257.29 90.44,-258.9 89.16,-252.02"/>
</a>
</g>
<text text-anchor="middle" x="144.25" y="-250.38" font-family="Helvetica,sans-Serif" font-size="10.00" fill="grey"> uid</text>
</g>
<!-- Node13 -->
<g id="Node000013" class="node">
<title>Node13</title>
<g id="a_Node000013"><a xlink:href="classdunedaq_1_1oksdbinterfaces_1_1map.html" target="_top" xlink:title=" ">
<polygon fill="white" stroke="#666666" points="806.5,-211.88 680.25,-211.88 680.25,-181.38 806.5,-181.38 806.5,-211.88"/>
<text text-anchor="start" x="688.25" y="-198.38" font-family="Helvetica,sans-Serif" font-size="10.00">dunedaq::oksdbinterfaces</text>
<text text-anchor="middle" x="743.38" y="-187.12" font-family="Helvetica,sans-Serif" font-size="10.00">::map&lt; T &gt;</text>
</a>
</g>
</g>
<!-- Node13&#45;&gt;Node6 -->
<g id="edge17_Node000006_Node000013" class="edge">
<title>Node13&#45;&gt;Node6</title>
<g id="a_edge17_Node000006_Node000013"><a xlink:title=" ">
<path fill="none" stroke="#9a32cd" stroke-dasharray="5,2" d="M818.22,-185.38C843.41,-181.54 871.24,-177.3 895.15,-173.66"/>
<polygon fill="#9a32cd" stroke="#9a32cd" points="817.71,-181.92 808.35,-186.88 818.76,-188.84 817.71,-181.92"/>
</a>
</g>
<text text-anchor="middle" x="850.75" y="-185.38" font-family="Helvetica,sans-Serif" font-size="10.00" fill="grey"> p_data_info</text>
</g>
<!-- Node14 -->
<g id="Node000014" class="node">
<title>Node14</title>
<g id="a_Node000014"><a xlink:title=" ">
<polygon fill="white" stroke="#666666" points="556.5,-220.88 455.75,-220.88 455.75,-190.38 556.5,-190.38 556.5,-220.88"/>
<text text-anchor="start" x="463.75" y="-207.38" font-family="Helvetica,sans-Serif" font-size="10.00">std::unordered_map</text>
<text text-anchor="middle" x="506.12" y="-196.12" font-family="Helvetica,sans-Serif" font-size="10.00">&lt; std::string, T &gt;</text>
</a>
</g>
</g>
<!-- Node14&#45;&gt;Node13 -->
<g id="edge18_Node000013_Node000014" class="edge">
<title>Node14&#45;&gt;Node13</title>
<g id="a_edge18_Node000013_Node000014"><a xlink:title=" ">
<path fill="none" stroke="#63b8ff" d="M568.03,-203.3C602.37,-201.98 645.21,-200.34 679.82,-199.02"/>
<polygon fill="#63b8ff" stroke="#63b8ff" points="568.1,-199.79 558.24,-203.67 568.37,-206.78 568.1,-199.79"/>
</a>
</g>
</g>
<!-- Node15 -->
<g id="Node000015" class="node">
<title>Node15</title>
<g id="a_Node000015"><a xlink:href="classdunedaq_1_1oks_1_1OksString.html" target="_top" xlink:title="Class OKS string.">
<polygon fill="white" stroke="#666666" points="1016,-44.25 895,-44.25 895,-25 1016,-25 1016,-44.25"/>
<text text-anchor="middle" x="955.5" y="-30.75" font-family="Helvetica,sans-Serif" font-size="10.00">dunedaq::oks::OksString</text>
</a>
</g>
</g>
<!-- Node15&#45;&gt;Node5 -->
<g id="edge20_Node000005_Node000015" class="edge">
<title>Node15&#45;&gt;Node5</title>
<g id="a_edge20_Node000005_Node000015"><a xlink:title=" ">
<path fill="none" stroke="#9a32cd" stroke-dasharray="5,2" d="M991.95,-49.5C1022.86,-64.32 1066.5,-90.04 1091,-125.88 1111.26,-155.51 1087.92,-175.57 1109,-204.62 1117.72,-216.65 1130.83,-225.99 1143.56,-232.91"/>
<polygon fill="#9a32cd" stroke="#9a32cd" points="993.51,-46.36 982.97,-45.35 990.57,-52.72 993.51,-46.36"/>
</a>
</g>
<text text-anchor="middle" x="1062.5" y="-150.88" font-family="Helvetica,sans-Serif" font-size="10.00" fill="grey"> STRING</text>
<text text-anchor="middle" x="1062.5" y="-139.62" font-family="Helvetica,sans-Serif" font-size="10.00" fill="grey">class_id</text>
<text text-anchor="middle" x="1062.5" y="-128.38" font-family="Helvetica,sans-Serif" font-size="10.00" fill="grey">object_id</text>
</g>
<!-- Node16 -->
<g id="Node000016" class="node">
<title>Node16</title>
<g id="a_Node000016"><a xlink:title=" ">
<polygon fill="white" stroke="#666666" points="772.38,-19.25 714.38,-19.25 714.38,0 772.38,0 772.38,-19.25"/>
<text text-anchor="middle" x="743.38" y="-5.75" font-family="Helvetica,sans-Serif" font-size="10.00">std::string</text>
</a>
</g>
</g>
<!-- Node16&#45;&gt;Node15 -->
<g id="edge21_Node000015_Node000016" class="edge">
<title>Node16&#45;&gt;Node15</title>
<g id="a_edge21_Node000015_Node000016"><a xlink:title=" ">
<path fill="none" stroke="#63b8ff" d="M784.01,-14.34C815.25,-18.06 859.31,-23.3 894.81,-27.52"/>
<polygon fill="#63b8ff" stroke="#63b8ff" points="784.56,-10.88 774.22,-13.18 783.73,-17.83 784.56,-10.88"/>
</a>
</g>
</g>
<!-- Node17&#45;&gt;Node1 -->
<g id="edge23_Node000001_Node000017" class="edge">
<title>Node17&#45;&gt;Node1</title>
<g id="a_edge23_Node000001_Node000017"><a xlink:title=" ">
<path fill="none" stroke="#9a32cd" stroke-dasharray="5,2" d="M1219.72,-200.65C1232.45,-207 1246.44,-215.13 1257.75,-224.62 1308.48,-267.2 1351.81,-334.26 1369.82,-364.25"/>
<polygon fill="#9a32cd" stroke="#9a32cd" points="1221.32,-197.53 1210.79,-196.4 1218.31,-203.86 1221.32,-197.53"/>
</a>
</g>
<text text-anchor="middle" x="1287.38" y="-263.38" font-family="Helvetica,sans-Serif" font-size="10.00" fill="grey"> p_rel</text>
</g>
</g>
</svg>
