<?xml version="1.0" encoding="UTF-8" standalone="no"?>
<!DOCTYPE svg PUBLIC "-//W3C//DTD SVG 1.1//EN"
 "http://www.w3.org/Graphics/SVG/1.1/DTD/svg11.dtd">
<!-- Generated by graphviz version 9.0.0 (20230911.1827)
 -->
<!-- Title: dunedaq::readoutlibs::RequestHandlerConcept&lt; ReadoutType, LatencyBufferType &gt; Pages: 1 -->
<svg width="824pt" height="263pt"
 viewBox="0.00 0.00 823.50 263.38" xmlns="http://www.w3.org/2000/svg" xmlns:xlink="http://www.w3.org/1999/xlink">
<g id="graph0" class="graph" transform="scale(1 1) rotate(0) translate(4 259.38)">
<title>dunedaq::readoutlibs::RequestHandlerConcept&lt; ReadoutType, LatencyBufferType &gt;</title>
<!-- Node1 -->
<g id="Node000001" class="node">
<title>Node1</title>
<g id="a_Node000001"><a xlink:title=" ">
<polygon fill="#999999" stroke="#666666" points="175.75,-172.75 0,-172.75 0,-131 175.75,-131 175.75,-172.75"/>
<text text-anchor="start" x="8" y="-159.25" font-family="Helvetica,sans-Serif" font-size="10.00">dunedaq::readoutlibs</text>
<text text-anchor="start" x="8" y="-148" font-family="Helvetica,sans-Serif" font-size="10.00">::RequestHandlerConcept</text>
<text text-anchor="middle" x="87.88" y="-136.75" font-family="Helvetica,sans-Serif" font-size="10.00">&lt; ReadoutType, LatencyBufferType &gt;</text>
</a>
</g>
</g>
<!-- Node2 -->
<g id="Node000002" class="node">
<title>Node2</title>
<g id="a_Node000002"><a xlink:href="classdunedaq_1_1readoutlibs_1_1DefaultRequestHandlerModel.html" target="_top" xlink:title=" ">
<polygon fill="white" stroke="#666666" points="399.5,-255.38 216.25,-255.38 216.25,-202.38 399.5,-202.38 399.5,-255.38"/>
<text text-anchor="start" x="224.25" y="-241.88" font-family="Helvetica,sans-Serif" font-size="10.00">dunedaq::readoutlibs</text>
<text text-anchor="start" x="224.25" y="-230.62" font-family="Helvetica,sans-Serif" font-size="10.00">::DefaultRequestHandlerModel</text>
<text text-anchor="start" x="224.25" y="-219.38" font-family="Helvetica,sans-Serif" font-size="10.00">&lt; T, readoutlibs::SkipListLatencyBuffer</text>
<text text-anchor="middle" x="307.88" y="-208.12" font-family="Helvetica,sans-Serif" font-size="10.00">Model&lt; T &gt; &gt;</text>
</a>
</g>
</g>
<!-- Node1&#45;&gt;Node2 -->
<g id="edge1_Node000001_Node000002" class="edge">
<title>Node1&#45;&gt;Node2</title>
<g id="a_edge1_Node000001_Node000002"><a xlink:title=" ">
<path fill="none" stroke="#63b8ff" d="M159.87,-176.95C182.54,-184.96 207.71,-193.85 230.73,-201.98"/>
<polygon fill="#63b8ff" stroke="#63b8ff" points="161.33,-173.76 150.74,-173.73 159,-180.36 161.33,-173.76"/>
</a>
</g>
</g>
<!-- Node4 -->
<g id="Node000004" class="node">
<title>Node4</title>
<g id="a_Node000004"><a xlink:href="classdunedaq_1_1readoutlibs_1_1DefaultRequestHandlerModel.html" target="_top" xlink:title=" ">
<polygon fill="white" stroke="#666666" points="404,-184 211.75,-184 211.75,-119.75 404,-119.75 404,-184"/>
<text text-anchor="start" x="219.75" y="-170.5" font-family="Helvetica,sans-Serif" font-size="10.00">dunedaq::readoutlibs</text>
<text text-anchor="start" x="219.75" y="-159.25" font-family="Helvetica,sans-Serif" font-size="10.00">::DefaultRequestHandlerModel</text>
<text text-anchor="start" x="219.75" y="-148" font-family="Helvetica,sans-Serif" font-size="10.00">&lt; TriggerPrimitiveTypeAdapter,</text>
<text text-anchor="start" x="219.75" y="-136.75" font-family="Helvetica,sans-Serif" font-size="10.00"> readoutlibs::SkipListLatencyBufferModel</text>
<text text-anchor="middle" x="307.88" y="-125.5" font-family="Helvetica,sans-Serif" font-size="10.00">&lt; TriggerPrimitiveTypeAdapter &gt; &gt;</text>
</a>
</g>
</g>
<!-- Node1&#45;&gt;Node4 -->
<g id="edge3_Node000001_Node000004" class="edge">
<title>Node1&#45;&gt;Node4</title>
<g id="a_edge3_Node000001_Node000004"><a xlink:title=" ">
<path fill="none" stroke="#63b8ff" d="M187.23,-151.88C195.24,-151.88 203.33,-151.88 211.32,-151.88"/>
<polygon fill="#63b8ff" stroke="#63b8ff" points="187.49,-148.38 177.49,-151.88 187.49,-155.38 187.49,-148.38"/>
</a>
</g>
</g>
<!-- Node5 -->
<g id="Node000005" class="node">
<title>Node5</title>
<g id="a_Node000005"><a xlink:href="classdunedaq_1_1readoutlibs_1_1DefaultRequestHandlerModel.html" target="_top" xlink:title=" ">
<polygon fill="white" stroke="#666666" points="395.75,-101.75 220,-101.75 220,-60 395.75,-60 395.75,-101.75"/>
<text text-anchor="start" x="228" y="-88.25" font-family="Helvetica,sans-Serif" font-size="10.00">dunedaq::readoutlibs</text>
<text text-anchor="start" x="228" y="-77" font-family="Helvetica,sans-Serif" font-size="10.00">::DefaultRequestHandlerModel</text>
<text text-anchor="middle" x="307.88" y="-65.75" font-family="Helvetica,sans-Serif" font-size="10.00">&lt; ReadoutType, LatencyBufferType &gt;</text>
</a>
</g>
</g>
<!-- Node1&#45;&gt;Node5 -->
<g id="edge4_Node000001_Node000005" class="edge">
<title>Node1&#45;&gt;Node5</title>
<g id="a_edge4_Node000001_Node000005"><a xlink:title=" ">
<path fill="none" stroke="#63b8ff" d="M163.19,-126.86C179.19,-121.53 196.02,-115.98 211.75,-110.88 220.48,-108.04 229.67,-105.1 238.76,-102.21"/>
<polygon fill="#63b8ff" stroke="#63b8ff" points="162.08,-123.54 153.7,-130.02 164.3,-130.18 162.08,-123.54"/>
</a>
</g>
</g>
<!-- Node3 -->
<g id="Node000003" class="node">
<title>Node3</title>
<g id="a_Node000003"><a xlink:href="classdunedaq_1_1readoutlibs_1_1DefaultSkipListRequestHandler.html" target="_top" xlink:title=" ">
<polygon fill="white" stroke="#666666" points="630.75,-244.12 451.25,-244.12 451.25,-213.62 630.75,-213.62 630.75,-244.12"/>
<text text-anchor="start" x="459.25" y="-230.62" font-family="Helvetica,sans-Serif" font-size="10.00">dunedaq::readoutlibs</text>
<text text-anchor="middle" x="541" y="-219.38" font-family="Helvetica,sans-Serif" font-size="10.00">::DefaultSkipListRequestHandler&lt; T &gt;</text>
</a>
</g>
</g>
<!-- Node2&#45;&gt;Node3 -->
<g id="edge2_Node000002_Node000003" class="edge">
<title>Node2&#45;&gt;Node3</title>
<g id="a_edge2_Node000002_Node000003"><a xlink:title=" ">
<path fill="none" stroke="#63b8ff" d="M411,-228.88C424.32,-228.88 437.88,-228.88 450.96,-228.88"/>
<polygon fill="#63b8ff" stroke="#63b8ff" points="411.4,-225.38 401.4,-228.88 411.4,-232.38 411.4,-225.38"/>
</a>
</g>
</g>
<!-- Node6 -->
<g id="Node000006" class="node">
<title>Node6</title>
<g id="a_Node000006"><a xlink:href="classdunedaq_1_1readoutlibs_1_1DefaultSkipListRequestHandler.html" target="_top" xlink:title=" ">
<polygon fill="white" stroke="#666666" points="619.5,-161.75 462.5,-161.75 462.5,-120 619.5,-120 619.5,-161.75"/>
<text text-anchor="start" x="470.5" y="-148.25" font-family="Helvetica,sans-Serif" font-size="10.00">dunedaq::readoutlibs</text>
<text text-anchor="start" x="470.5" y="-137" font-family="Helvetica,sans-Serif" font-size="10.00">::DefaultSkipListRequestHandler</text>
<text text-anchor="middle" x="541" y="-125.75" font-family="Helvetica,sans-Serif" font-size="10.00">&lt; TriggerPrimitiveTypeAdapter &gt;</text>
</a>
</g>
</g>
<!-- Node5&#45;&gt;Node6 -->
<g id="edge5_Node000005_Node000006" class="edge">
<title>Node5&#45;&gt;Node6</title>
<g id="a_edge5_Node000005_Node000006"><a xlink:title=" ">
<path fill="none" stroke="#63b8ff" d="M402.03,-105.06C422.06,-110.26 443.02,-115.7 462.38,-120.73"/>
<polygon fill="#63b8ff" stroke="#63b8ff" points="403.04,-101.7 392.48,-102.58 401.28,-108.48 403.04,-101.7"/>
</a>
</g>
</g>
<!-- Node8 -->
<g id="Node000008" class="node">
<title>Node8</title>
<g id="a_Node000008"><a xlink:href="classdunedaq_1_1readoutlibs_1_1EmptyFragmentRequestHandlerModel.html" target="_top" xlink:title=" ">
<polygon fill="white" stroke="#666666" points="642,-101.75 440,-101.75 440,-60 642,-60 642,-101.75"/>
<text text-anchor="start" x="448" y="-88.25" font-family="Helvetica,sans-Serif" font-size="10.00">dunedaq::readoutlibs</text>
<text text-anchor="start" x="448" y="-77" font-family="Helvetica,sans-Serif" font-size="10.00">::EmptyFragmentRequestHandler</text>
<text text-anchor="middle" x="541" y="-65.75" font-family="Helvetica,sans-Serif" font-size="10.00">Model&lt; ReadoutType, LatencyBufferType &gt;</text>
</a>
</g>
</g>
<!-- Node5&#45;&gt;Node8 -->
<g id="edge7_Node000005_Node000008" class="edge">
<title>Node5&#45;&gt;Node8</title>
<g id="a_edge7_Node000005_Node000008"><a xlink:title=" ">
<path fill="none" stroke="#63b8ff" d="M407.12,-80.88C417.95,-80.88 428.98,-80.88 439.83,-80.88"/>
<polygon fill="#63b8ff" stroke="#63b8ff" points="407.44,-77.38 397.44,-80.88 407.44,-84.38 407.44,-77.38"/>
</a>
</g>
</g>
<!-- Node9 -->
<g id="Node000009" class="node">
<title>Node9</title>
<g id="a_Node000009"><a xlink:href="classdunedaq_1_1readoutlibs_1_1ZeroCopyRecordingRequestHandlerModel.html" target="_top" xlink:title=" ">
<polygon fill="white" stroke="#666666" points="642,-41.75 440,-41.75 440,0 642,0 642,-41.75"/>
<text text-anchor="start" x="448" y="-28.25" font-family="Helvetica,sans-Serif" font-size="10.00">dunedaq::readoutlibs</text>
<text text-anchor="start" x="448" y="-17" font-family="Helvetica,sans-Serif" font-size="10.00">::ZeroCopyRecordingRequestHandler</text>
<text text-anchor="middle" x="541" y="-5.75" font-family="Helvetica,sans-Serif" font-size="10.00">Model&lt; ReadoutType, LatencyBufferType &gt;</text>
</a>
</g>
</g>
<!-- Node5&#45;&gt;Node9 -->
<g id="edge8_Node000005_Node000009" class="edge">
<title>Node5&#45;&gt;Node9</title>
<g id="a_edge8_Node000005_Node000009"><a xlink:title=" ">
<path fill="none" stroke="#63b8ff" d="M402.06,-56.68C420.49,-51.9 439.7,-46.91 457.74,-42.23"/>
<polygon fill="#63b8ff" stroke="#63b8ff" points="401.28,-53.27 392.48,-59.17 403.04,-60.05 401.28,-53.27"/>
</a>
</g>
</g>
<!-- Node7 -->
<g id="Node000007" class="node">
<title>Node7</title>
<g id="a_Node000007"><a xlink:href="classdunedaq_1_1trigger_1_1TPRequestHandler.html" target="_top" xlink:title=" ">
<polygon fill="white" stroke="#666666" points="815.5,-156.12 678,-156.12 678,-125.62 815.5,-125.62 815.5,-156.12"/>
<text text-anchor="start" x="686" y="-142.62" font-family="Helvetica,sans-Serif" font-size="10.00">dunedaq::trigger::TPRequest</text>
<text text-anchor="middle" x="746.75" y="-131.38" font-family="Helvetica,sans-Serif" font-size="10.00">Handler</text>
</a>
</g>
</g>
<!-- Node6&#45;&gt;Node7 -->
<g id="edge6_Node000006_Node000007" class="edge">
<title>Node6&#45;&gt;Node7</title>
<g id="a_edge6_Node000006_Node000007"><a xlink:title=" ">
<path fill="none" stroke="#63b8ff" d="M631.14,-140.88C646.7,-140.88 662.66,-140.88 677.55,-140.88"/>
<polygon fill="#63b8ff" stroke="#63b8ff" points="631.41,-137.38 621.41,-140.88 631.41,-144.38 631.41,-137.38"/>
</a>
</g>
</g>
</g>
</svg>
