<?xml version="1.0" encoding="UTF-8" standalone="no"?>
<!DOCTYPE svg PUBLIC "-//W3C//DTD SVG 1.1//EN"
 "http://www.w3.org/Graphics/SVG/1.1/DTD/svg11.dtd">
<!-- Generated by graphviz version 9.0.0 (20230911.1827)
 -->
<!-- Title: dbse::SchemaMethodImplementationEditor Pages: 1 -->
<svg width="1789pt" height="380pt"
 viewBox="0.00 0.00 1789.25 379.62" xmlns="http://www.w3.org/2000/svg" xmlns:xlink="http://www.w3.org/1999/xlink">
<g id="graph0" class="graph" transform="scale(1 1) rotate(0) translate(4 375.62)">
<title>dbse::SchemaMethodImplementationEditor</title>
<!-- Node1 -->
<g id="Node000001" class="node">
<title>Node1</title>
<g id="a_Node000001"><a xlink:title=" ">
<polygon fill="#999999" stroke="#666666" points="1288,-138.25 1111.5,-138.25 1111.5,-107.75 1288,-107.75 1288,-138.25"/>
<text text-anchor="start" x="1119.5" y="-124.75" font-family="Helvetica,sans-Serif" font-size="10.00">dbse::SchemaMethodImplementation</text>
<text text-anchor="middle" x="1199.75" y="-113.5" font-family="Helvetica,sans-Serif" font-size="10.00">Editor</text>
</a>
</g>
</g>
<!-- Node2 -->
<g id="Node000002" class="node">
<title>Node2</title>
<g id="a_Node000002"><a xlink:title=" ">
<polygon fill="white" stroke="#666666" points="900,-132.62 846.5,-132.62 846.5,-113.38 900,-113.38 900,-132.62"/>
<text text-anchor="middle" x="873.25" y="-119.12" font-family="Helvetica,sans-Serif" font-size="10.00">QWidget</text>
</a>
</g>
</g>
<!-- Node2&#45;&gt;Node1 -->
<g id="edge1_Node000001_Node000002" class="edge">
<title>Node2&#45;&gt;Node1</title>
<g id="a_edge1_Node000001_Node000002"><a xlink:title=" ">
<path fill="none" stroke="#63b8ff" d="M911.73,-123C960.14,-123 1045.94,-123 1111.16,-123"/>
<polygon fill="#63b8ff" stroke="#63b8ff" points="911.77,-119.5 901.77,-123 911.77,-126.5 911.77,-119.5"/>
</a>
</g>
</g>
<!-- Node3 -->
<g id="Node000003" class="node">
<title>Node3</title>
<g id="a_Node000003"><a xlink:href="classdunedaq_1_1oks_1_1OksClass.html" target="_top" xlink:title="The OKS class.">
<polygon fill="white" stroke="#666666" points="473.12,-170.62 352.88,-170.62 352.88,-151.38 473.12,-151.38 473.12,-170.62"/>
<text text-anchor="middle" x="413" y="-157.12" font-family="Helvetica,sans-Serif" font-size="10.00">dunedaq::oks::OksClass</text>
</a>
</g>
</g>
<!-- Node3&#45;&gt;Node1 -->
<g id="edge2_Node000001_Node000003" class="edge">
<title>Node3&#45;&gt;Node1</title>
<g id="a_edge2_Node000001_Node000003"><a xlink:title=" ">
<path fill="none" stroke="#9a32cd" stroke-dasharray="5,2" d="M484.77,-158.73C590.48,-155.31 795.91,-148.53 970.5,-142 1025.17,-139.96 1038.99,-141.72 1093.5,-137 1099.28,-136.5 1105.24,-135.91 1111.23,-135.26"/>
<polygon fill="#9a32cd" stroke="#9a32cd" points="484.7,-155.23 474.82,-159.05 484.92,-162.23 484.7,-155.23"/>
</a>
</g>
<text text-anchor="middle" x="726.5" y="-153.75" font-family="Helvetica,sans-Serif" font-size="10.00" fill="grey"> SchemaClass</text>
</g>
<!-- Node11 -->
<g id="Node000011" class="node">
<title>Node11</title>
<g id="a_Node000011"><a xlink:href="uniondunedaq_1_1oks_1_1OksData_1_1Data.html" target="_top" xlink:title=" ">
<polygon fill="white" stroke="#666666" points="671,-306.25 555.25,-306.25 555.25,-275.75 671,-275.75 671,-306.25"/>
<text text-anchor="start" x="563.25" y="-292.75" font-family="Helvetica,sans-Serif" font-size="10.00">dunedaq::oks::OksData</text>
<text text-anchor="middle" x="613.12" y="-281.5" font-family="Helvetica,sans-Serif" font-size="10.00">::Data</text>
</a>
</g>
</g>
<!-- Node3&#45;&gt;Node11 -->
<g id="edge13_Node000011_Node000003" class="edge">
<title>Node3&#45;&gt;Node11</title>
<g id="a_edge13_Node000011_Node000003"><a xlink:title=" ">
<path fill="none" stroke="#9a32cd" stroke-dasharray="5,2" d="M435.63,-177.72C450.97,-189.38 472.18,-205.09 491.5,-218 522.84,-238.95 560.13,-261.11 584.86,-275.44"/>
<polygon fill="#9a32cd" stroke="#9a32cd" points="438.18,-175.26 428.11,-171.97 433.93,-180.82 438.18,-175.26"/>
</a>
</g>
<text text-anchor="middle" x="511.38" y="-256" font-family="Helvetica,sans-Serif" font-size="10.00" fill="grey"> CLASS</text>
<text text-anchor="middle" x="511.38" y="-244.75" font-family="Helvetica,sans-Serif" font-size="10.00" fill="grey">class_id</text>
</g>
<!-- Node16 -->
<g id="Node000016" class="node">
<title>Node16</title>
<g id="a_Node000016"><a xlink:href="classdunedaq_1_1oks_1_1OksMethod.html" target="_top" xlink:title="OKS method class.">
<polygon fill="white" stroke="#666666" points="677,-93.62 549.25,-93.62 549.25,-74.38 677,-74.38 677,-93.62"/>
<text text-anchor="middle" x="613.12" y="-80.12" font-family="Helvetica,sans-Serif" font-size="10.00">dunedaq::oks::OksMethod</text>
</a>
</g>
</g>
<!-- Node3&#45;&gt;Node16 -->
<g id="edge23_Node000016_Node000003" class="edge">
<title>Node3&#45;&gt;Node16</title>
<g id="a_edge23_Node000016_Node000003"><a xlink:title=" ">
<path fill="none" stroke="#9a32cd" stroke-dasharray="5,2" d="M450.62,-146.77C489.99,-131.47 551.58,-107.53 586.22,-94.07"/>
<polygon fill="#9a32cd" stroke="#9a32cd" points="449.37,-143.5 441.31,-150.39 451.9,-150.03 449.37,-143.5"/>
</a>
</g>
<text text-anchor="middle" x="511.38" y="-131.75" font-family="Helvetica,sans-Serif" font-size="10.00" fill="grey"> p_class</text>
</g>
<!-- Node4 -->
<g id="Node000004" class="node">
<title>Node4</title>
<g id="a_Node000004"><a xlink:href="classdunedaq_1_1oks_1_1OksFile.html" target="_top" xlink:title="Provides interface to the OKS XML schema and data files.">
<polygon fill="white" stroke="#666666" points="1781.25,-232.62 1670,-232.62 1670,-213.38 1781.25,-213.38 1781.25,-232.62"/>
<text text-anchor="middle" x="1725.62" y="-219.12" font-family="Helvetica,sans-Serif" font-size="10.00">dunedaq::oks::OksFile</text>
</a>
</g>
</g>
<!-- Node4&#45;&gt;Node3 -->
<g id="edge3_Node000003_Node000004" class="edge">
<title>Node4&#45;&gt;Node3</title>
<g id="a_edge3_Node000003_Node000004"><a xlink:title=" ">
<path fill="none" stroke="#9a32cd" stroke-dasharray="5,2" d="M1715.99,-202.94C1690.89,-148.15 1612.34,0 1496.88,0 612.12,0 612.12,0 612.12,0 515.95,0 440.46,-115.68 419.7,-150.93"/>
<polygon fill="#9a32cd" stroke="#9a32cd" points="1712.64,-204.04 1719.91,-211.75 1719.04,-201.19 1712.64,-204.04"/>
</a>
</g>
<text text-anchor="middle" x="1041" y="-1.75" font-family="Helvetica,sans-Serif" font-size="10.00" fill="grey"> p_file</text>
</g>
<!-- Node4&#45;&gt;Node4 -->
<g id="edge4_Node000004_Node000004" class="edge">
<title>Node4&#45;&gt;Node4</title>
<g id="a_edge4_Node000004_Node000004"><a xlink:title=" ">
<path fill="none" stroke="#9a32cd" stroke-dasharray="5,2" d="M1705.77,-244.03C1708.25,-247.9 1714.87,-250.62 1725.62,-250.62 1745.29,-250.62 1751.13,-241.52 1743.14,-232.91"/>
<polygon fill="#9a32cd" stroke="#9a32cd" points="1709.16,-244.9 1707.8,-234.39 1702.31,-243.46 1709.16,-244.9"/>
</a>
</g>
<text text-anchor="middle" x="1725.62" y="-252.38" font-family="Helvetica,sans-Serif" font-size="10.00" fill="grey"> p_included_by</text>
</g>
<!-- Node5 -->
<g id="Node000005" class="node">
<title>Node5</title>
<g id="a_Node000005"><a xlink:href="classdunedaq_1_1oks_1_1OksKernel.html" target="_top" xlink:title="Provides interface to the OKS kernel.">
<polygon fill="white" stroke="#666666" points="1557.5,-232.62 1434.25,-232.62 1434.25,-213.38 1557.5,-213.38 1557.5,-232.62"/>
<text text-anchor="middle" x="1495.88" y="-219.12" font-family="Helvetica,sans-Serif" font-size="10.00">dunedaq::oks::OksKernel</text>
</a>
</g>
</g>
<!-- Node4&#45;&gt;Node5 -->
<g id="edge6_Node000005_Node000004" class="edge">
<title>Node4&#45;&gt;Node5</title>
<g id="a_edge6_Node000005_Node000004"><a xlink:title=" ">
<path fill="none" stroke="#9a32cd" stroke-dasharray="5,2" d="M1658.27,-223C1626.57,-223 1588.89,-223 1557.91,-223"/>
<polygon fill="#9a32cd" stroke="#9a32cd" points="1658.14,-226.5 1668.14,-223 1658.14,-219.5 1658.14,-226.5"/>
</a>
</g>
<text text-anchor="middle" x="1613.75" y="-236" font-family="Helvetica,sans-Serif" font-size="10.00" fill="grey"> p_active_data</text>
<text text-anchor="middle" x="1613.75" y="-224.75" font-family="Helvetica,sans-Serif" font-size="10.00" fill="grey">p_active_schema</text>
</g>
<!-- Node8 -->
<g id="Node000008" class="node">
<title>Node8</title>
<g id="a_Node000008"><a xlink:href="classdunedaq_1_1oks_1_1OksObject.html" target="_top" xlink:title="OksObject describes instance of OksClass.">
<polygon fill="white" stroke="#666666" points="1261.75,-346.62 1137.75,-346.62 1137.75,-327.38 1261.75,-327.38 1261.75,-346.62"/>
<text text-anchor="middle" x="1199.75" y="-333.12" font-family="Helvetica,sans-Serif" font-size="10.00">dunedaq::oks::OksObject</text>
</a>
</g>
</g>
<!-- Node4&#45;&gt;Node8 -->
<g id="edge18_Node000008_Node000004" class="edge">
<title>Node4&#45;&gt;Node8</title>
<g id="a_edge18_Node000008_Node000004"><a xlink:title=" ">
<path fill="none" stroke="#9a32cd" stroke-dasharray="5,2" d="M1687.63,-236.96C1676.23,-241.2 1663.61,-245.85 1652,-250 1547.68,-287.31 1525.26,-311.23 1416.25,-331 1364.88,-340.32 1305.5,-341.26 1262.1,-340.19"/>
<polygon fill="#9a32cd" stroke="#9a32cd" points="1688.56,-240.34 1696.71,-233.56 1686.11,-233.79 1688.56,-240.34"/>
</a>
</g>
<text text-anchor="middle" x="1495.88" y="-327.75" font-family="Helvetica,sans-Serif" font-size="10.00" fill="grey"> file</text>
</g>
<!-- Node5&#45;&gt;Node3 -->
<g id="edge19_Node000003_Node000005" class="edge">
<title>Node5&#45;&gt;Node3</title>
<g id="a_edge19_Node000003_Node000005"><a xlink:title=" ">
<path fill="none" stroke="#9a32cd" stroke-dasharray="5,2" d="M1422.65,-216.88C1363.15,-212.36 1276.54,-207 1200.75,-207 612.12,-207 612.12,-207 612.12,-207 549.09,-207 477.64,-184.64 440.15,-171.09"/>
<polygon fill="#9a32cd" stroke="#9a32cd" points="1422.06,-220.34 1432.3,-217.62 1422.6,-213.36 1422.06,-220.34"/>
</a>
</g>
<text text-anchor="middle" x="873.25" y="-208.75" font-family="Helvetica,sans-Serif" font-size="10.00" fill="grey"> p_kernel</text>
</g>
<!-- Node5&#45;&gt;Node4 -->
<g id="edge5_Node000004_Node000005" class="edge">
<title>Node5&#45;&gt;Node4</title>
<g id="a_edge5_Node000004_Node000005"><a xlink:title=" ">
<path fill="none" stroke="#9a32cd" stroke-dasharray="5,2" d="M1549.14,-210.65C1557.89,-209.03 1566.92,-207.63 1575.5,-206.75 1609.32,-203.29 1618.21,-203.02 1652,-206.75 1663.43,-208.01 1675.69,-210.36 1686.82,-212.89"/>
<polygon fill="#9a32cd" stroke="#9a32cd" points="1548.46,-207.22 1539.33,-212.59 1549.82,-214.09 1548.46,-207.22"/>
</a>
</g>
<text text-anchor="middle" x="1613.75" y="-207.75" font-family="Helvetica,sans-Serif" font-size="10.00" fill="grey"> p_kernel</text>
</g>
<!-- Node6 -->
<g id="Node000006" class="node">
<title>Node6</title>
<g id="a_Node000006"><a xlink:href="classdunedaq_1_1oks_1_1OksProfiler.html" target="_top" xlink:title=" ">
<polygon fill="white" stroke="#666666" points="1262.5,-89.62 1137,-89.62 1137,-70.38 1262.5,-70.38 1262.5,-89.62"/>
<text text-anchor="middle" x="1199.75" y="-76.12" font-family="Helvetica,sans-Serif" font-size="10.00">dunedaq::oks::OksProfiler</text>
</a>
</g>
</g>
<!-- Node6&#45;&gt;Node5 -->
<g id="edge7_Node000005_Node000006" class="edge">
<title>Node6&#45;&gt;Node5</title>
<g id="a_edge7_Node000005_Node000006"><a xlink:title=" ">
<path fill="none" stroke="#9a32cd" stroke-dasharray="5,2" d="M1270.54,-93.05C1276.52,-94.81 1282.42,-96.79 1288,-99 1366.64,-130.15 1449.98,-189.35 1481.64,-212.93"/>
<polygon fill="#9a32cd" stroke="#9a32cd" points="1271.76,-89.75 1261.19,-90.5 1269.92,-96.5 1271.76,-89.75"/>
</a>
</g>
<text text-anchor="middle" x="1361.12" y="-168.75" font-family="Helvetica,sans-Serif" font-size="10.00" fill="grey"> profiler</text>
</g>
<!-- Node7 -->
<g id="Node000007" class="node">
<title>Node7</title>
<g id="a_Node000007"><a xlink:href="structdunedaq_1_1oks_1_1LoadErrors.html" target="_top" xlink:title=" ">
<polygon fill="white" stroke="#666666" points="1262.12,-254.62 1137.38,-254.62 1137.38,-235.38 1262.12,-235.38 1262.12,-254.62"/>
<text text-anchor="middle" x="1199.75" y="-241.12" font-family="Helvetica,sans-Serif" font-size="10.00">dunedaq::oks::LoadErrors</text>
</a>
</g>
</g>
<!-- Node7&#45;&gt;Node5 -->
<g id="edge8_Node000005_Node000007" class="edge">
<title>Node7&#45;&gt;Node5</title>
<g id="a_edge8_Node000005_Node000007"><a xlink:title=" ">
<path fill="none" stroke="#9a32cd" stroke-dasharray="5,2" d="M1273.63,-239.55C1322.9,-235.86 1387.22,-231.05 1433.8,-227.57"/>
<polygon fill="#9a32cd" stroke="#9a32cd" points="1273.63,-236.04 1263.92,-240.28 1274.15,-243.02 1273.63,-236.04"/>
</a>
</g>
<text text-anchor="middle" x="1361.12" y="-237.75" font-family="Helvetica,sans-Serif" font-size="10.00" fill="grey"> p_load_errors</text>
</g>
<!-- Node8&#45;&gt;Node5 -->
<g id="edge9_Node000005_Node000008" class="edge">
<title>Node8&#45;&gt;Node5</title>
<g id="a_edge9_Node000005_Node000008"><a xlink:title=" ">
<path fill="none" stroke="#9a32cd" stroke-dasharray="5,2" d="M1223.48,-320.62C1244.08,-306.51 1275.76,-286.59 1306,-274.75 1352.67,-256.48 1368.04,-264.71 1416.25,-251 1434.23,-245.89 1454.05,-238.82 1469.3,-233.06"/>
<polygon fill="#9a32cd" stroke="#9a32cd" points="1221.75,-317.56 1215.55,-326.15 1225.75,-323.3 1221.75,-317.56"/>
</a>
</g>
<text text-anchor="start" x="1306" y="-320.75" font-family="Helvetica,sans-Serif" font-size="10.00" fill="grey"> p_change_object_notify</text>
<text text-anchor="middle" x="1361.12" y="-309.5" font-family="Helvetica,sans-Serif" font-size="10.00" fill="grey">_fn</text>
<text text-anchor="start" x="1306" y="-298.25" font-family="Helvetica,sans-Serif" font-size="10.00" fill="grey">p_create_object_notify</text>
<text text-anchor="middle" x="1361.12" y="-287" font-family="Helvetica,sans-Serif" font-size="10.00" fill="grey">_fn</text>
<text text-anchor="middle" x="1361.12" y="-275.75" font-family="Helvetica,sans-Serif" font-size="10.00" fill="grey">p_delete_object_notify_fn</text>
</g>
<!-- Node8&#45;&gt;Node11 -->
<g id="edge14_Node000011_Node000008" class="edge">
<title>Node8&#45;&gt;Node11</title>
<g id="a_edge14_Node000011_Node000008"><a xlink:title=" ">
<path fill="none" stroke="#9a32cd" stroke-dasharray="5,2" d="M1126,-335.3C1027.84,-332.38 847.67,-324.78 695,-306 687.35,-305.06 679.32,-303.85 671.43,-302.52"/>
<polygon fill="#9a32cd" stroke="#9a32cd" points="1125.66,-338.8 1135.76,-335.59 1125.86,-331.8 1125.66,-338.8"/>
</a>
</g>
<text text-anchor="middle" x="873.25" y="-329.75" font-family="Helvetica,sans-Serif" font-size="10.00" fill="grey"> OBJECT</text>
</g>
<!-- Node9 -->
<g id="Node000009" class="node">
<title>Node9</title>
<g id="a_Node000009"><a xlink:title=" ">
<polygon fill="white" stroke="#666666" points="433.38,-371.62 392.62,-371.62 392.62,-352.38 433.38,-352.38 433.38,-371.62"/>
<text text-anchor="middle" x="413" y="-358.12" font-family="Helvetica,sans-Serif" font-size="10.00">struct</text>
</a>
</g>
</g>
<!-- Node9&#45;&gt;Node8 -->
<g id="edge10_Node000008_Node000009" class="edge">
<title>Node9&#45;&gt;Node8</title>
<g id="a_edge10_Node000008_Node000009"><a xlink:title=" ">
<path fill="none" stroke="#9a32cd" stroke-dasharray="5,2" d="M444.9,-361.89C468.55,-361.77 501.96,-361.52 531.25,-361 781.19,-356.6 843.91,-359.99 1093.5,-346 1107.69,-345.2 1122.94,-344.07 1137.3,-342.86"/>
<polygon fill="#9a32cd" stroke="#9a32cd" points="445,-358.39 435.02,-361.93 445.03,-365.39 445,-358.39"/>
</a>
</g>
<text text-anchor="middle" x="726.5" y="-359.75" font-family="Helvetica,sans-Serif" font-size="10.00" fill="grey"> uid</text>
</g>
<!-- Node9&#45;&gt;Node11 -->
<g id="edge17_Node000011_Node000009" class="edge">
<title>Node9&#45;&gt;Node11</title>
<g id="a_edge17_Node000011_Node000009"><a xlink:title=" ">
<path fill="none" stroke="#9a32cd" stroke-dasharray="5,2" d="M444.31,-351.58C468.01,-343.38 501.78,-331.62 531.25,-321 543.93,-316.43 557.69,-311.37 570.2,-306.72"/>
<polygon fill="#9a32cd" stroke="#9a32cd" points="443.28,-348.23 434.97,-354.8 445.57,-354.85 443.28,-348.23"/>
</a>
</g>
<text text-anchor="middle" x="511.38" y="-347" font-family="Helvetica,sans-Serif" font-size="10.00" fill="grey"> UID</text>
<text text-anchor="middle" x="511.38" y="-335.75" font-family="Helvetica,sans-Serif" font-size="10.00" fill="grey">UID2</text>
</g>
<!-- Node10 -->
<g id="Node000010" class="node">
<title>Node10</title>
<g id="a_Node000010"><a xlink:href="structdunedaq_1_1oks_1_1OksData.html" target="_top" xlink:title="the structure to pass common parameters to various read() methods of OksData and OksObject class">
<polygon fill="white" stroke="#666666" points="931.12,-300.62 815.38,-300.62 815.38,-281.38 931.12,-281.38 931.12,-300.62"/>
<text text-anchor="middle" x="873.25" y="-287.12" font-family="Helvetica,sans-Serif" font-size="10.00">dunedaq::oks::OksData</text>
</a>
</g>
</g>
<!-- Node10&#45;&gt;Node8 -->
<g id="edge11_Node000008_Node000010" class="edge">
<title>Node10&#45;&gt;Node8</title>
<g id="a_edge11_Node000008_Node000010"><a xlink:title=" ">
<path fill="none" stroke="#9a32cd" stroke-dasharray="5,2" d="M942.61,-294.98C986.03,-298.12 1043.3,-303.4 1093.5,-311.75 1116.67,-315.61 1142.31,-321.72 1162.48,-326.96"/>
<polygon fill="#9a32cd" stroke="#9a32cd" points="943.05,-291.5 932.83,-294.29 942.56,-298.48 943.05,-291.5"/>
</a>
</g>
<text text-anchor="middle" x="1041" y="-312.75" font-family="Helvetica,sans-Serif" font-size="10.00" fill="grey"> data</text>
</g>
<!-- Node11&#45;&gt;Node10 -->
<g id="edge12_Node000010_Node000011" class="edge">
<title>Node11&#45;&gt;Node10</title>
<g id="a_edge12_Node000010_Node000011"><a xlink:title=" ">
<path fill="none" stroke="#9a32cd" stroke-dasharray="5,2" d="M682.76,-291C724.08,-291 776.06,-291 815.12,-291"/>
<polygon fill="#9a32cd" stroke="#9a32cd" points="682.92,-287.5 672.92,-291 682.92,-294.5 682.92,-287.5"/>
</a>
</g>
<text text-anchor="middle" x="726.5" y="-292.75" font-family="Helvetica,sans-Serif" font-size="10.00" fill="grey"> data</text>
</g>
<!-- Node12 -->
<g id="Node000012" class="node">
<title>Node12</title>
<g id="a_Node000012"><a xlink:href="classdunedaq_1_1oks_1_1OksString.html" target="_top" xlink:title="Class OKS string.">
<polygon fill="white" stroke="#666666" points="473.5,-295.62 352.5,-295.62 352.5,-276.38 473.5,-276.38 473.5,-295.62"/>
<text text-anchor="middle" x="413" y="-282.12" font-family="Helvetica,sans-Serif" font-size="10.00">dunedaq::oks::OksString</text>
</a>
</g>
</g>
<!-- Node12&#45;&gt;Node11 -->
<g id="edge15_Node000011_Node000012" class="edge">
<title>Node12&#45;&gt;Node11</title>
<g id="a_edge15_Node000011_Node000012"><a xlink:title=" ">
<path fill="none" stroke="#9a32cd" stroke-dasharray="5,2" d="M485.37,-286.35C500.52,-286.54 516.41,-286.83 531.25,-287.25 538.98,-287.47 547.12,-287.77 555.14,-288.1"/>
<polygon fill="#9a32cd" stroke="#9a32cd" points="485.51,-282.86 475.47,-286.24 485.43,-289.86 485.51,-282.86"/>
</a>
</g>
<text text-anchor="middle" x="511.38" y="-311.25" font-family="Helvetica,sans-Serif" font-size="10.00" fill="grey"> STRING</text>
<text text-anchor="middle" x="511.38" y="-300" font-family="Helvetica,sans-Serif" font-size="10.00" fill="grey">class_id</text>
<text text-anchor="middle" x="511.38" y="-288.75" font-family="Helvetica,sans-Serif" font-size="10.00" fill="grey">object_id</text>
</g>
<!-- Node13 -->
<g id="Node000013" class="node">
<title>Node13</title>
<g id="a_Node000013"><a xlink:title=" ">
<polygon fill="white" stroke="#666666" points="229.88,-295.62 171.88,-295.62 171.88,-276.38 229.88,-276.38 229.88,-295.62"/>
<text text-anchor="middle" x="200.88" y="-282.12" font-family="Helvetica,sans-Serif" font-size="10.00">std::string</text>
</a>
</g>
</g>
<!-- Node13&#45;&gt;Node12 -->
<g id="edge16_Node000012_Node000013" class="edge">
<title>Node13&#45;&gt;Node12</title>
<g id="a_edge16_Node000012_Node000013"><a xlink:title=" ">
<path fill="none" stroke="#63b8ff" d="M241.51,-286C272.75,-286 316.81,-286 352.31,-286"/>
<polygon fill="#63b8ff" stroke="#63b8ff" points="241.73,-282.5 231.73,-286 241.73,-289.5 241.73,-282.5"/>
</a>
</g>
</g>
<!-- Node14 -->
<g id="Node000014" class="node">
<title>Node14</title>
<g id="a_Node000014"><a xlink:href="classdunedaq_1_1oksdbinterfaces_1_1map.html" target="_top" xlink:title=" ">
<polygon fill="white" stroke="#666666" points="264,-176.25 137.75,-176.25 137.75,-145.75 264,-145.75 264,-176.25"/>
<text text-anchor="start" x="145.75" y="-162.75" font-family="Helvetica,sans-Serif" font-size="10.00">dunedaq::oksdbinterfaces</text>
<text text-anchor="middle" x="200.88" y="-151.5" font-family="Helvetica,sans-Serif" font-size="10.00">::map&lt; T &gt;</text>
</a>
</g>
</g>
<!-- Node14&#45;&gt;Node3 -->
<g id="edge20_Node000003_Node000014" class="edge">
<title>Node14&#45;&gt;Node3</title>
<g id="a_edge20_Node000003_Node000014"><a xlink:title=" ">
<path fill="none" stroke="#9a32cd" stroke-dasharray="5,2" d="M275.72,-161C300.91,-161 328.74,-161 352.65,-161"/>
<polygon fill="#9a32cd" stroke="#9a32cd" points="275.86,-157.5 265.86,-161 275.86,-164.5 275.86,-157.5"/>
</a>
</g>
<text text-anchor="middle" x="308.25" y="-162.75" font-family="Helvetica,sans-Serif" font-size="10.00" fill="grey"> p_data_info</text>
</g>
<!-- Node15 -->
<g id="Node000015" class="node">
<title>Node15</title>
<g id="a_Node000015"><a xlink:title=" ">
<polygon fill="white" stroke="#666666" points="100.75,-176.25 0,-176.25 0,-145.75 100.75,-145.75 100.75,-176.25"/>
<text text-anchor="start" x="8" y="-162.75" font-family="Helvetica,sans-Serif" font-size="10.00">std::unordered_map</text>
<text text-anchor="middle" x="50.38" y="-151.5" font-family="Helvetica,sans-Serif" font-size="10.00">&lt; std::string, T &gt;</text>
</a>
</g>
</g>
<!-- Node15&#45;&gt;Node14 -->
<g id="edge21_Node000014_Node000015" class="edge">
<title>Node15&#45;&gt;Node14</title>
<g id="a_edge21_Node000014_Node000015"><a xlink:title=" ">
<path fill="none" stroke="#63b8ff" d="M112.64,-161C120.84,-161 129.26,-161 137.48,-161"/>
<polygon fill="#63b8ff" stroke="#63b8ff" points="112.75,-157.5 102.75,-161 112.75,-164.5 112.75,-157.5"/>
</a>
</g>
</g>
<!-- Node16&#45;&gt;Node1 -->
<g id="edge22_Node000001_Node000016" class="edge">
<title>Node16&#45;&gt;Node1</title>
<g id="a_edge22_Node000001_Node000016"><a xlink:title=" ">
<path fill="none" stroke="#9a32cd" stroke-dasharray="5,2" d="M688.55,-83.51C760.73,-83.58 873.28,-85.14 970.5,-92.75 1017.13,-96.4 1068.81,-103.03 1111.19,-109.16"/>
<polygon fill="#9a32cd" stroke="#9a32cd" points="688.83,-80.01 678.83,-83.51 688.83,-87.01 688.83,-80.01"/>
</a>
</g>
<text text-anchor="middle" x="873.25" y="-94.75" font-family="Helvetica,sans-Serif" font-size="10.00" fill="grey"> SchemaMethod</text>
</g>
<!-- Node17 -->
<g id="Node000017" class="node">
<title>Node17</title>
<g id="a_Node000017"><a xlink:href="classdunedaq_1_1oks_1_1OksMethodImplementation.html" target="_top" xlink:title="OKS method implementation class.">
<polygon fill="white" stroke="#666666" points="970.5,-47.62 776,-47.62 776,-28.38 970.5,-28.38 970.5,-47.62"/>
<text text-anchor="middle" x="873.25" y="-34.12" font-family="Helvetica,sans-Serif" font-size="10.00">dunedaq::oks::OksMethodImplementation</text>
</a>
</g>
</g>
<!-- Node16&#45;&gt;Node17 -->
<g id="edge25_Node000017_Node000016" class="edge">
<title>Node16&#45;&gt;Node17</title>
<g id="a_edge25_Node000017_Node000016"><a xlink:title=" ">
<path fill="none" stroke="#9a32cd" stroke-dasharray="5,2" d="M652.55,-70.4C665.85,-66.12 680.95,-61.74 695,-58.75 720.91,-53.24 749.29,-49.09 775.59,-46.02"/>
<polygon fill="#9a32cd" stroke="#9a32cd" points="651.69,-67 643.29,-73.46 653.89,-73.64 651.69,-67"/>
</a>
</g>
<text text-anchor="middle" x="726.5" y="-60.75" font-family="Helvetica,sans-Serif" font-size="10.00" fill="grey"> p_method</text>
</g>
<!-- Node17&#45;&gt;Node1 -->
<g id="edge24_Node000001_Node000017" class="edge">
<title>Node17&#45;&gt;Node1</title>
<g id="a_edge24_Node000001_Node000017"><a xlink:title=" ">
<path fill="none" stroke="#9a32cd" stroke-dasharray="5,2" d="M950.53,-27.15C996.03,-24.78 1052.69,-29.47 1093.5,-58.75 1109.42,-70.17 1096.63,-86.24 1111.5,-99 1115.2,-102.17 1119.28,-104.93 1123.59,-107.32"/>
<polygon fill="#9a32cd" stroke="#9a32cd" points="950.48,-23.64 940.73,-27.79 950.94,-30.63 950.48,-23.64"/>
</a>
</g>
<text text-anchor="middle" x="1041" y="-60.75" font-family="Helvetica,sans-Serif" font-size="10.00" fill="grey"> SchemaImplementation</text>
</g>
</g>
</svg>
