<?xml version="1.0" encoding="UTF-8" standalone="no"?>
<!DOCTYPE svg PUBLIC "-//W3C//DTD SVG 1.1//EN"
 "http://www.w3.org/Graphics/SVG/1.1/DTD/svg11.dtd">
<!-- Generated by graphviz version 9.0.0 (20230911.1827)
 -->
<!-- Title: dbse::CustomAttributeModel Pages: 1 -->
<svg width="1590pt" height="319pt"
 viewBox="0.00 0.00 1589.75 319.25" xmlns="http://www.w3.org/2000/svg" xmlns:xlink="http://www.w3.org/1999/xlink">
<g id="graph0" class="graph" transform="scale(1 1) rotate(0) translate(4 315.25)">
<title>dbse::CustomAttributeModel</title>
<!-- Node1 -->
<g id="Node000001" class="node">
<title>Node1</title>
<g id="a_Node000001"><a xlink:title=" ">
<polygon fill="#999999" stroke="#666666" points="729.5,-300.25 591.25,-300.25 591.25,-281 729.5,-281 729.5,-300.25"/>
<text text-anchor="middle" x="660.38" y="-286.75" font-family="Helvetica,sans-Serif" font-size="10.00">dbse::CustomAttributeModel</text>
</a>
</g>
</g>
<!-- Node2 -->
<g id="Node000002" class="node">
<title>Node2</title>
<g id="a_Node000002"><a xlink:href="classdbse_1_1CustomModelInterface.html" target="_top" xlink:title=" ">
<polygon fill="white" stroke="#666666" points="492.25,-311.25 352.5,-311.25 352.5,-292 492.25,-292 492.25,-311.25"/>
<text text-anchor="middle" x="422.38" y="-297.75" font-family="Helvetica,sans-Serif" font-size="10.00">dbse::CustomModelInterface</text>
</a>
</g>
</g>
<!-- Node2&#45;&gt;Node1 -->
<g id="edge1_Node000001_Node000002" class="edge">
<title>Node2&#45;&gt;Node1</title>
<g id="a_edge1_Node000001_Node000002"><a xlink:title=" ">
<path fill="none" stroke="#63b8ff" d="M504.07,-297.86C532.35,-296.55 563.81,-295.08 590.98,-293.81"/>
<polygon fill="#63b8ff" stroke="#63b8ff" points="503.93,-294.37 494.1,-298.33 504.25,-301.36 503.93,-294.37"/>
</a>
</g>
</g>
<!-- Node3 -->
<g id="Node000003" class="node">
<title>Node3</title>
<g id="a_Node000003"><a xlink:title=" ">
<polygon fill="white" stroke="#666666" points="256.12,-311.25 145.62,-311.25 145.62,-292 256.12,-292 256.12,-311.25"/>
<text text-anchor="middle" x="200.88" y="-297.75" font-family="Helvetica,sans-Serif" font-size="10.00">QAbstractTableModel</text>
</a>
</g>
</g>
<!-- Node3&#45;&gt;Node2 -->
<g id="edge2_Node000002_Node000003" class="edge">
<title>Node3&#45;&gt;Node2</title>
<g id="a_edge2_Node000002_Node000003"><a xlink:title=" ">
<path fill="none" stroke="#63b8ff" d="M267.57,-301.62C294.26,-301.62 325.1,-301.62 352.14,-301.62"/>
<polygon fill="#63b8ff" stroke="#63b8ff" points="267.93,-298.13 257.93,-301.63 267.93,-305.13 267.93,-298.13"/>
</a>
</g>
</g>
<!-- Node4 -->
<g id="Node000004" class="node">
<title>Node4</title>
<g id="a_Node000004"><a xlink:href="classdunedaq_1_1oks_1_1OksClass.html" target="_top" xlink:title="The OKS class.">
<polygon fill="white" stroke="#666666" points="482.5,-214.25 362.25,-214.25 362.25,-195 482.5,-195 482.5,-214.25"/>
<text text-anchor="middle" x="422.38" y="-200.75" font-family="Helvetica,sans-Serif" font-size="10.00">dunedaq::oks::OksClass</text>
</a>
</g>
</g>
<!-- Node4&#45;&gt;Node1 -->
<g id="edge3_Node000001_Node000004" class="edge">
<title>Node4&#45;&gt;Node1</title>
<g id="a_edge3_Node000001_Node000004"><a xlink:title=" ">
<path fill="none" stroke="#9a32cd" stroke-dasharray="5,2" d="M447.77,-220.76C464.71,-231.35 488.13,-244.83 510.25,-253.62 540.24,-265.55 575.2,-274.47 603.72,-280.56"/>
<polygon fill="#9a32cd" stroke="#9a32cd" points="449.72,-217.85 439.41,-215.41 445.95,-223.75 449.72,-217.85"/>
</a>
</g>
<text text-anchor="middle" x="541.75" y="-274.38" font-family="Helvetica,sans-Serif" font-size="10.00" fill="grey"> SchemaClass</text>
</g>
<!-- Node12 -->
<g id="Node000012" class="node">
<title>Node12</title>
<g id="a_Node000012"><a xlink:href="uniondunedaq_1_1oks_1_1OksData_1_1Data.html" target="_top" xlink:title=" ">
<polygon fill="white" stroke="#666666" points="718.25,-86.88 602.5,-86.88 602.5,-56.38 718.25,-56.38 718.25,-86.88"/>
<text text-anchor="start" x="610.5" y="-73.38" font-family="Helvetica,sans-Serif" font-size="10.00">dunedaq::oks::OksData</text>
<text text-anchor="middle" x="660.38" y="-62.12" font-family="Helvetica,sans-Serif" font-size="10.00">::Data</text>
</a>
</g>
</g>
<!-- Node4&#45;&gt;Node12 -->
<g id="edge14_Node000012_Node000004" class="edge">
<title>Node4&#45;&gt;Node12</title>
<g id="a_edge14_Node000012_Node000004"><a xlink:title=" ">
<path fill="none" stroke="#9a32cd" stroke-dasharray="5,2" d="M440.35,-186.83C456.9,-170.31 483.44,-145.94 510.25,-130.12 535.99,-114.94 545.4,-117.47 573.25,-106.62 589.04,-100.47 606.37,-93.48 621.31,-87.37"/>
<polygon fill="#9a32cd" stroke="#9a32cd" points="438.22,-184 433.71,-193.59 443.22,-188.9 438.22,-184"/>
</a>
</g>
<text text-anchor="middle" x="541.75" y="-143.62" font-family="Helvetica,sans-Serif" font-size="10.00" fill="grey"> CLASS</text>
<text text-anchor="middle" x="541.75" y="-132.38" font-family="Helvetica,sans-Serif" font-size="10.00" fill="grey">class_id</text>
</g>
<!-- Node5 -->
<g id="Node000005" class="node">
<title>Node5</title>
<g id="a_Node000005"><a xlink:href="classdunedaq_1_1oks_1_1OksFile.html" target="_top" xlink:title="Provides interface to the OKS XML schema and data files.">
<polygon fill="white" stroke="#666666" points="1581.75,-163.25 1470.5,-163.25 1470.5,-144 1581.75,-144 1581.75,-163.25"/>
<text text-anchor="middle" x="1526.12" y="-149.75" font-family="Helvetica,sans-Serif" font-size="10.00">dunedaq::oks::OksFile</text>
</a>
</g>
</g>
<!-- Node5&#45;&gt;Node4 -->
<g id="edge4_Node000004_Node000005" class="edge">
<title>Node5&#45;&gt;Node4</title>
<g id="a_edge4_Node000004_Node000005"><a xlink:title=" ">
<path fill="none" stroke="#9a32cd" stroke-dasharray="5,2" d="M1501.25,-169.83C1461.04,-195.5 1376.46,-242.62 1297.38,-242.62 659.38,-242.62 659.38,-242.62 659.38,-242.62 589.03,-242.62 508.38,-225.97 461.91,-214.71"/>
<polygon fill="#9a32cd" stroke="#9a32cd" points="1502.97,-172.88 1509.44,-164.49 1499.15,-167.02 1502.97,-172.88"/>
</a>
</g>
<text text-anchor="middle" x="932.62" y="-244.38" font-family="Helvetica,sans-Serif" font-size="10.00" fill="grey"> p_file</text>
</g>
<!-- Node5&#45;&gt;Node5 -->
<g id="edge5_Node000005_Node000005" class="edge">
<title>Node5&#45;&gt;Node5</title>
<g id="a_edge5_Node000005_Node000005"><a xlink:title=" ">
<path fill="none" stroke="#9a32cd" stroke-dasharray="5,2" d="M1506.27,-174.65C1508.75,-178.53 1515.37,-181.25 1526.12,-181.25 1545.79,-181.25 1551.63,-172.15 1543.64,-163.54"/>
<polygon fill="#9a32cd" stroke="#9a32cd" points="1509.66,-175.53 1508.3,-165.02 1502.81,-174.08 1509.66,-175.53"/>
</a>
</g>
<text text-anchor="middle" x="1526.12" y="-183" font-family="Helvetica,sans-Serif" font-size="10.00" fill="grey"> p_included_by</text>
</g>
<!-- Node6 -->
<g id="Node000006" class="node">
<title>Node6</title>
<g id="a_Node000006"><a xlink:href="classdunedaq_1_1oks_1_1OksKernel.html" target="_top" xlink:title="Provides interface to the OKS kernel.">
<polygon fill="white" stroke="#666666" points="1358,-163.25 1234.75,-163.25 1234.75,-144 1358,-144 1358,-163.25"/>
<text text-anchor="middle" x="1296.38" y="-149.75" font-family="Helvetica,sans-Serif" font-size="10.00">dunedaq::oks::OksKernel</text>
</a>
</g>
</g>
<!-- Node5&#45;&gt;Node6 -->
<g id="edge7_Node000006_Node000005" class="edge">
<title>Node5&#45;&gt;Node6</title>
<g id="a_edge7_Node000006_Node000005"><a xlink:title=" ">
<path fill="none" stroke="#9a32cd" stroke-dasharray="5,2" d="M1492.15,-139.4C1479.93,-134.85 1465.81,-130.39 1452.5,-128.12 1418.98,-122.41 1409.58,-122.82 1376,-128.12 1357.29,-131.08 1336.97,-137.77 1321.68,-143.55"/>
<polygon fill="#9a32cd" stroke="#9a32cd" points="1490.76,-142.62 1501.34,-143.01 1493.31,-136.1 1490.76,-142.62"/>
</a>
</g>
<text text-anchor="middle" x="1414.25" y="-141.62" font-family="Helvetica,sans-Serif" font-size="10.00" fill="grey"> p_active_data</text>
<text text-anchor="middle" x="1414.25" y="-130.38" font-family="Helvetica,sans-Serif" font-size="10.00" fill="grey">p_active_schema</text>
</g>
<!-- Node9 -->
<g id="Node000009" class="node">
<title>Node9</title>
<g id="a_Node000009"><a xlink:href="classdunedaq_1_1oks_1_1OksObject.html" target="_top" xlink:title="OksObject describes instance of OksClass.">
<polygon fill="white" stroke="#666666" points="1087.75,-40.25 963.75,-40.25 963.75,-21 1087.75,-21 1087.75,-40.25"/>
<text text-anchor="middle" x="1025.75" y="-26.75" font-family="Helvetica,sans-Serif" font-size="10.00">dunedaq::oks::OksObject</text>
</a>
</g>
</g>
<!-- Node5&#45;&gt;Node9 -->
<g id="edge19_Node000009_Node000005" class="edge">
<title>Node5&#45;&gt;Node9</title>
<g id="a_edge19_Node000009_Node000005"><a xlink:title=" ">
<path fill="none" stroke="#9a32cd" stroke-dasharray="5,2" d="M1494.55,-138.85C1481.7,-132.87 1466.51,-126.11 1452.5,-120.62 1349.73,-80.41 1325.1,-63.61 1216.75,-42.62 1174.24,-34.39 1125.49,-31.44 1088.01,-30.53"/>
<polygon fill="#9a32cd" stroke="#9a32cd" points="1492.81,-141.9 1503.35,-143 1495.79,-135.57 1492.81,-141.9"/>
</a>
</g>
<text text-anchor="middle" x="1296.38" y="-84.38" font-family="Helvetica,sans-Serif" font-size="10.00" fill="grey"> file</text>
</g>
<!-- Node6&#45;&gt;Node4 -->
<g id="edge20_Node000004_Node000006" class="edge">
<title>Node6&#45;&gt;Node4</title>
<g id="a_edge20_Node000004_Node000006"><a xlink:title=" ">
<path fill="none" stroke="#9a32cd" stroke-dasharray="5,2" d="M1223.14,-159.02C1169.09,-162.59 1093.33,-166.62 1026.75,-166.62 659.38,-166.62 659.38,-166.62 659.38,-166.62 589.03,-166.62 508.38,-183.28 461.91,-194.54"/>
<polygon fill="#9a32cd" stroke="#9a32cd" points="1223.09,-162.53 1232.83,-158.36 1222.61,-155.55 1223.09,-162.53"/>
</a>
</g>
<text text-anchor="middle" x="844.38" y="-168.38" font-family="Helvetica,sans-Serif" font-size="10.00" fill="grey"> p_kernel</text>
</g>
<!-- Node6&#45;&gt;Node5 -->
<g id="edge6_Node000005_Node000006" class="edge">
<title>Node6&#45;&gt;Node5</title>
<g id="a_edge6_Node000005_Node000006"><a xlink:title=" ">
<path fill="none" stroke="#9a32cd" stroke-dasharray="5,2" d="M1369.74,-154.58C1371.85,-154.6 1373.94,-154.61 1376,-154.62 1410,-154.84 1418.5,-154.86 1452.5,-154.62 1458.17,-154.59 1464.1,-154.53 1470.01,-154.46"/>
<polygon fill="#9a32cd" stroke="#9a32cd" points="1369.87,-151.08 1359.84,-154.49 1369.81,-158.08 1369.87,-151.08"/>
</a>
</g>
<text text-anchor="middle" x="1414.25" y="-157.38" font-family="Helvetica,sans-Serif" font-size="10.00" fill="grey"> p_kernel</text>
</g>
<!-- Node7 -->
<g id="Node000007" class="node">
<title>Node7</title>
<g id="a_Node000007"><a xlink:href="classdunedaq_1_1oks_1_1OksProfiler.html" target="_top" xlink:title=" ">
<polygon fill="white" stroke="#666666" points="1088.5,-138.25 963,-138.25 963,-119 1088.5,-119 1088.5,-138.25"/>
<text text-anchor="middle" x="1025.75" y="-124.75" font-family="Helvetica,sans-Serif" font-size="10.00">dunedaq::oks::OksProfiler</text>
</a>
</g>
</g>
<!-- Node7&#45;&gt;Node6 -->
<g id="edge8_Node000006_Node000007" class="edge">
<title>Node7&#45;&gt;Node6</title>
<g id="a_edge8_Node000006_Node000007"><a xlink:title=" ">
<path fill="none" stroke="#9a32cd" stroke-dasharray="5,2" d="M1100.1,-132.05C1135.42,-134.08 1178.35,-137.1 1216.75,-141.38 1222.52,-142.02 1228.51,-142.78 1234.49,-143.6"/>
<polygon fill="#9a32cd" stroke="#9a32cd" points="1100.6,-128.57 1090.42,-131.51 1100.21,-135.56 1100.6,-128.57"/>
</a>
</g>
<text text-anchor="middle" x="1161.62" y="-143.38" font-family="Helvetica,sans-Serif" font-size="10.00" fill="grey"> profiler</text>
</g>
<!-- Node8 -->
<g id="Node000008" class="node">
<title>Node8</title>
<g id="a_Node000008"><a xlink:href="structdunedaq_1_1oks_1_1LoadErrors.html" target="_top" xlink:title=" ">
<polygon fill="white" stroke="#666666" points="1088.12,-214.25 963.38,-214.25 963.38,-195 1088.12,-195 1088.12,-214.25"/>
<text text-anchor="middle" x="1025.75" y="-200.75" font-family="Helvetica,sans-Serif" font-size="10.00">dunedaq::oks::LoadErrors</text>
</a>
</g>
</g>
<!-- Node8&#45;&gt;Node6 -->
<g id="edge9_Node000006_Node000008" class="edge">
<title>Node8&#45;&gt;Node6</title>
<g id="a_edge9_Node000006_Node000008"><a xlink:title=" ">
<path fill="none" stroke="#9a32cd" stroke-dasharray="5,2" d="M1099.77,-198.94C1135.36,-195.27 1178.61,-189.48 1216.75,-180.62 1235.03,-176.38 1255.02,-169.48 1270.27,-163.72"/>
<polygon fill="#9a32cd" stroke="#9a32cd" points="1099.61,-195.44 1090,-199.9 1100.3,-202.4 1099.61,-195.44"/>
</a>
</g>
<text text-anchor="middle" x="1161.62" y="-199.38" font-family="Helvetica,sans-Serif" font-size="10.00" fill="grey"> p_load_errors</text>
</g>
<!-- Node9&#45;&gt;Node6 -->
<g id="edge10_Node000006_Node000009" class="edge">
<title>Node9&#45;&gt;Node6</title>
<g id="a_edge10_Node000006_Node000009"><a xlink:title=" ">
<path fill="none" stroke="#9a32cd" stroke-dasharray="5,2" d="M1099.21,-42.09C1143.99,-50.03 1196.63,-61.15 1216.75,-72.38 1249.15,-90.46 1276.56,-126.13 1288.69,-143.56"/>
<polygon fill="#9a32cd" stroke="#9a32cd" points="1099.96,-38.67 1089.5,-40.4 1098.76,-45.57 1099.96,-38.67"/>
</a>
</g>
<text text-anchor="start" x="1106.5" y="-119.38" font-family="Helvetica,sans-Serif" font-size="10.00" fill="grey"> p_change_object_notify</text>
<text text-anchor="middle" x="1161.62" y="-108.12" font-family="Helvetica,sans-Serif" font-size="10.00" fill="grey">_fn</text>
<text text-anchor="start" x="1106.5" y="-96.88" font-family="Helvetica,sans-Serif" font-size="10.00" fill="grey">p_create_object_notify</text>
<text text-anchor="middle" x="1161.62" y="-85.62" font-family="Helvetica,sans-Serif" font-size="10.00" fill="grey">_fn</text>
<text text-anchor="middle" x="1161.62" y="-74.38" font-family="Helvetica,sans-Serif" font-size="10.00" fill="grey">p_delete_object_notify_fn</text>
</g>
<!-- Node9&#45;&gt;Node12 -->
<g id="edge15_Node000012_Node000009" class="edge">
<title>Node9&#45;&gt;Node12</title>
<g id="a_edge15_Node000012_Node000009"><a xlink:title=" ">
<path fill="none" stroke="#9a32cd" stroke-dasharray="5,2" d="M963.78,-42.67C957.45,-43.75 951.1,-44.76 945,-45.62 866.91,-56.71 776.03,-64.07 718.61,-68.05"/>
<polygon fill="#9a32cd" stroke="#9a32cd" points="964.36,-46.13 973.6,-40.94 963.14,-39.23 964.36,-46.13"/>
</a>
</g>
<text text-anchor="middle" x="844.38" y="-65.38" font-family="Helvetica,sans-Serif" font-size="10.00" fill="grey"> OBJECT</text>
</g>
<!-- Node10 -->
<g id="Node000010" class="node">
<title>Node10</title>
<g id="a_Node000010"><a xlink:title=" ">
<polygon fill="white" stroke="#666666" points="442.75,-19.25 402,-19.25 402,0 442.75,0 442.75,-19.25"/>
<text text-anchor="middle" x="422.38" y="-5.75" font-family="Helvetica,sans-Serif" font-size="10.00">struct</text>
</a>
</g>
</g>
<!-- Node10&#45;&gt;Node9 -->
<g id="edge11_Node000009_Node000010" class="edge">
<title>Node10&#45;&gt;Node9</title>
<g id="a_edge11_Node000009_Node000010"><a xlink:title=" ">
<path fill="none" stroke="#9a32cd" stroke-dasharray="5,2" d="M454.13,-8.16C530.26,-4.89 733.5,1.74 902.25,-11.62 924.88,-13.42 949.67,-16.96 970.98,-20.5"/>
<polygon fill="#9a32cd" stroke="#9a32cd" points="454.38,-4.65 444.55,-8.59 454.69,-11.64 454.38,-4.65"/>
</a>
</g>
<text text-anchor="middle" x="758" y="-7.38" font-family="Helvetica,sans-Serif" font-size="10.00" fill="grey"> uid</text>
</g>
<!-- Node10&#45;&gt;Node12 -->
<g id="edge18_Node000012_Node000010" class="edge">
<title>Node10&#45;&gt;Node12</title>
<g id="a_edge18_Node000012_Node000010"><a xlink:title=" ">
<path fill="none" stroke="#9a32cd" stroke-dasharray="5,2" d="M454,-16.26C484.4,-22.99 532.25,-33.97 573.25,-45.12 585.33,-48.41 598.27,-52.23 610.35,-55.93"/>
<polygon fill="#9a32cd" stroke="#9a32cd" points="454.88,-12.87 444.36,-14.14 453.37,-19.7 454.88,-12.87"/>
</a>
</g>
<text text-anchor="middle" x="541.75" y="-58.62" font-family="Helvetica,sans-Serif" font-size="10.00" fill="grey"> UID</text>
<text text-anchor="middle" x="541.75" y="-47.38" font-family="Helvetica,sans-Serif" font-size="10.00" fill="grey">UID2</text>
</g>
<!-- Node11 -->
<g id="Node000011" class="node">
<title>Node11</title>
<g id="a_Node000011"><a xlink:href="structdunedaq_1_1oks_1_1OksData.html" target="_top" xlink:title="the structure to pass common parameters to various read() methods of OksData and OksObject class">
<polygon fill="white" stroke="#666666" points="902.25,-40.25 786.5,-40.25 786.5,-21 902.25,-21 902.25,-40.25"/>
<text text-anchor="middle" x="844.38" y="-26.75" font-family="Helvetica,sans-Serif" font-size="10.00">dunedaq::oks::OksData</text>
</a>
</g>
</g>
<!-- Node11&#45;&gt;Node9 -->
<g id="edge12_Node000009_Node000011" class="edge">
<title>Node11&#45;&gt;Node9</title>
<g id="a_edge12_Node000009_Node000011"><a xlink:title=" ">
<path fill="none" stroke="#9a32cd" stroke-dasharray="5,2" d="M913.74,-30.62C930.07,-30.62 947.41,-30.62 963.4,-30.62"/>
<polygon fill="#9a32cd" stroke="#9a32cd" points="914.14,-27.13 904.14,-30.63 914.14,-34.13 914.14,-27.13"/>
</a>
</g>
<text text-anchor="middle" x="932.62" y="-32.38" font-family="Helvetica,sans-Serif" font-size="10.00" fill="grey"> data</text>
</g>
<!-- Node12&#45;&gt;Node11 -->
<g id="edge13_Node000011_Node000012" class="edge">
<title>Node12&#45;&gt;Node11</title>
<g id="a_edge13_Node000011_Node000012"><a xlink:title=" ">
<path fill="none" stroke="#9a32cd" stroke-dasharray="5,2" d="M729.34,-55.53C735.48,-54.11 741.6,-52.71 747.5,-51.38 763.28,-47.81 780.55,-44.04 796.04,-40.7"/>
<polygon fill="#9a32cd" stroke="#9a32cd" points="728.75,-52.07 719.8,-57.74 730.33,-58.89 728.75,-52.07"/>
</a>
</g>
<text text-anchor="middle" x="758" y="-53.38" font-family="Helvetica,sans-Serif" font-size="10.00" fill="grey"> data</text>
</g>
<!-- Node13 -->
<g id="Node000013" class="node">
<title>Node13</title>
<g id="a_Node000013"><a xlink:href="classdunedaq_1_1oks_1_1OksString.html" target="_top" xlink:title="Class OKS string.">
<polygon fill="white" stroke="#666666" points="482.88,-81.25 361.88,-81.25 361.88,-62 482.88,-62 482.88,-81.25"/>
<text text-anchor="middle" x="422.38" y="-67.75" font-family="Helvetica,sans-Serif" font-size="10.00">dunedaq::oks::OksString</text>
</a>
</g>
</g>
<!-- Node13&#45;&gt;Node12 -->
<g id="edge16_Node000012_Node000013" class="edge">
<title>Node13&#45;&gt;Node12</title>
<g id="a_edge16_Node000012_Node000013"><a xlink:title=" ">
<path fill="none" stroke="#9a32cd" stroke-dasharray="5,2" d="M494.63,-71.62C529,-71.62 569.68,-71.62 602.02,-71.62"/>
<polygon fill="#9a32cd" stroke="#9a32cd" points="494.75,-68.13 484.75,-71.63 494.75,-75.13 494.75,-68.13"/>
</a>
</g>
<text text-anchor="middle" x="541.75" y="-95.88" font-family="Helvetica,sans-Serif" font-size="10.00" fill="grey"> STRING</text>
<text text-anchor="middle" x="541.75" y="-84.62" font-family="Helvetica,sans-Serif" font-size="10.00" fill="grey">class_id</text>
<text text-anchor="middle" x="541.75" y="-73.38" font-family="Helvetica,sans-Serif" font-size="10.00" fill="grey">object_id</text>
</g>
<!-- Node14 -->
<g id="Node000014" class="node">
<title>Node14</title>
<g id="a_Node000014"><a xlink:title=" ">
<polygon fill="white" stroke="#666666" points="229.88,-81.25 171.88,-81.25 171.88,-62 229.88,-62 229.88,-81.25"/>
<text text-anchor="middle" x="200.88" y="-67.75" font-family="Helvetica,sans-Serif" font-size="10.00">std::string</text>
</a>
</g>
</g>
<!-- Node14&#45;&gt;Node13 -->
<g id="edge17_Node000013_Node000014" class="edge">
<title>Node14&#45;&gt;Node13</title>
<g id="a_edge17_Node000013_Node000014"><a xlink:title=" ">
<path fill="none" stroke="#63b8ff" d="M241.27,-71.62C274.69,-71.62 323.15,-71.62 361.39,-71.62"/>
<polygon fill="#63b8ff" stroke="#63b8ff" points="241.64,-68.13 231.63,-71.63 241.63,-75.13 241.64,-68.13"/>
</a>
</g>
</g>
<!-- Node15 -->
<g id="Node000015" class="node">
<title>Node15</title>
<g id="a_Node000015"><a xlink:href="classdunedaq_1_1oksdbinterfaces_1_1map.html" target="_top" xlink:title=" ">
<polygon fill="white" stroke="#666666" points="264,-219.88 137.75,-219.88 137.75,-189.38 264,-189.38 264,-219.88"/>
<text text-anchor="start" x="145.75" y="-206.38" font-family="Helvetica,sans-Serif" font-size="10.00">dunedaq::oksdbinterfaces</text>
<text text-anchor="middle" x="200.88" y="-195.12" font-family="Helvetica,sans-Serif" font-size="10.00">::map&lt; T &gt;</text>
</a>
</g>
</g>
<!-- Node15&#45;&gt;Node4 -->
<g id="edge21_Node000004_Node000015" class="edge">
<title>Node15&#45;&gt;Node4</title>
<g id="a_edge21_Node000004_Node000015"><a xlink:title=" ">
<path fill="none" stroke="#9a32cd" stroke-dasharray="5,2" d="M275.87,-204.62C303.95,-204.62 335.53,-204.62 362.08,-204.62"/>
<polygon fill="#9a32cd" stroke="#9a32cd" points="275.99,-201.13 265.99,-204.63 275.99,-208.13 275.99,-201.13"/>
</a>
</g>
<text text-anchor="middle" x="308.25" y="-206.38" font-family="Helvetica,sans-Serif" font-size="10.00" fill="grey"> p_data_info</text>
</g>
<!-- Node16 -->
<g id="Node000016" class="node">
<title>Node16</title>
<g id="a_Node000016"><a xlink:title=" ">
<polygon fill="white" stroke="#666666" points="100.75,-219.88 0,-219.88 0,-189.38 100.75,-189.38 100.75,-219.88"/>
<text text-anchor="start" x="8" y="-206.38" font-family="Helvetica,sans-Serif" font-size="10.00">std::unordered_map</text>
<text text-anchor="middle" x="50.38" y="-195.12" font-family="Helvetica,sans-Serif" font-size="10.00">&lt; std::string, T &gt;</text>
</a>
</g>
</g>
<!-- Node16&#45;&gt;Node15 -->
<g id="edge22_Node000015_Node000016" class="edge">
<title>Node16&#45;&gt;Node15</title>
<g id="a_edge22_Node000015_Node000016"><a xlink:title=" ">
<path fill="none" stroke="#63b8ff" d="M112.64,-204.62C120.84,-204.62 129.26,-204.62 137.48,-204.62"/>
<polygon fill="#63b8ff" stroke="#63b8ff" points="112.75,-201.13 102.75,-204.63 112.75,-208.13 112.75,-201.13"/>
</a>
</g>
</g>
</g>
</svg>
