<?xml version="1.0" encoding="UTF-8" standalone="no"?>
<!DOCTYPE svg PUBLIC "-//W3C//DTD SVG 1.1//EN"
 "http://www.w3.org/Graphics/SVG/1.1/DTD/svg11.dtd">
<!-- Generated by graphviz version 9.0.0 (20230911.1827)
 -->
<!-- Title: triggeralgs::TriggerCandidateMakerMichelElectron Pages: 1 -->
<svg width="413pt" height="88pt"
 viewBox="0.00 0.00 412.75 87.50" xmlns="http://www.w3.org/2000/svg" xmlns:xlink="http://www.w3.org/1999/xlink">
<g id="graph0" class="graph" transform="scale(1 1) rotate(0) translate(4 83.5)">
<title>triggeralgs::TriggerCandidateMakerMichelElectron</title>
<!-- Node1 -->
<g id="Node000001" class="node">
<title>Node1</title>
<g id="a_Node000001"><a xlink:title=" ">
<polygon fill="#999999" stroke="#666666" points="404.75,-54.5 265.75,-54.5 265.75,-24 404.75,-24 404.75,-54.5"/>
<text text-anchor="start" x="273.75" y="-41" font-family="Helvetica,sans-Serif" font-size="10.00">triggeralgs::TriggerCandidate</text>
<text text-anchor="middle" x="335.25" y="-29.75" font-family="Helvetica,sans-Serif" font-size="10.00">MakerMichelElectron</text>
</a>
</g>
</g>
<!-- Node2 -->
<g id="Node000002" class="node">
<title>Node2</title>
<g id="a_Node000002"><a xlink:href="classtriggeralgs_1_1TriggerCandidateMaker.html" target="_top" xlink:title=" ">
<polygon fill="white" stroke="#666666" points="142.38,-79.5 3.38,-79.5 3.38,-49 142.38,-49 142.38,-79.5"/>
<text text-anchor="start" x="11.38" y="-66" font-family="Helvetica,sans-Serif" font-size="10.00">triggeralgs::TriggerCandidate</text>
<text text-anchor="middle" x="72.88" y="-54.75" font-family="Helvetica,sans-Serif" font-size="10.00">Maker</text>
</a>
</g>
</g>
<!-- Node2&#45;&gt;Node1 -->
<g id="edge1_Node000001_Node000002" class="edge">
<title>Node2&#45;&gt;Node1</title>
<g id="a_edge1_Node000001_Node000002"><a xlink:title=" ">
<path fill="none" stroke="#63b8ff" d="M153.99,-56.56C189.69,-53.13 231.31,-49.13 265.57,-45.84"/>
<polygon fill="#63b8ff" stroke="#63b8ff" points="153.75,-53.06 144.13,-57.5 154.42,-60.03 153.75,-53.06"/>
</a>
</g>
</g>
<!-- Node3 -->
<g id="Node000003" class="node">
<title>Node3</title>
<g id="a_Node000003"><a xlink:href="classtriggeralgs_1_1TriggerCandidateMakerMichelElectron_1_1Window.html" target="_top" xlink:title=" ">
<polygon fill="white" stroke="#666666" points="145.75,-30.5 0,-30.5 0,0 145.75,0 145.75,-30.5"/>
<text text-anchor="start" x="8" y="-17" font-family="Helvetica,sans-Serif" font-size="10.00">triggeralgs::TriggerCandidate</text>
<text text-anchor="middle" x="72.88" y="-5.75" font-family="Helvetica,sans-Serif" font-size="10.00">MakerMichelElectron::Window</text>
</a>
</g>
</g>
<!-- Node3&#45;&gt;Node1 -->
<g id="edge2_Node000001_Node000003" class="edge">
<title>Node3&#45;&gt;Node1</title>
<g id="a_edge2_Node000001_Node000003"><a xlink:title=" ">
<path fill="none" stroke="#9a32cd" stroke-dasharray="5,2" d="M157.21,-22.93C192.15,-26.15 232.3,-29.85 265.51,-32.91"/>
<polygon fill="#9a32cd" stroke="#9a32cd" points="157.84,-19.48 147.57,-22.04 157.2,-26.45 157.84,-19.48"/>
</a>
</g>
<text text-anchor="middle" x="205.75" y="-33" font-family="Helvetica,sans-Serif" font-size="10.00" fill="grey"> m_current_window</text>
</g>
</g>
</svg>
