<?xml version="1.0" encoding="UTF-8" standalone="no"?>
<!DOCTYPE svg PUBLIC "-//W3C//DTD SVG 1.1//EN"
 "http://www.w3.org/Graphics/SVG/1.1/DTD/svg11.dtd">
<!-- Generated by graphviz version 9.0.0 (20230911.1827)
 -->
<!-- Title: dbe::ClassNode Pages: 1 -->
<svg width="275pt" height="105pt"
 viewBox="0.00 0.00 275.00 105.00" xmlns="http://www.w3.org/2000/svg" xmlns:xlink="http://www.w3.org/1999/xlink">
<g id="graph0" class="graph" transform="scale(1 1) rotate(0) translate(4 101)">
<title>dbe::ClassNode</title>
<!-- Node1 -->
<g id="Node000001" class="node">
<title>Node1</title>
<g id="a_Node000001"><a xlink:title=" ">
<polygon fill="#999999" stroke="#666666" points="162,-19.25 77.75,-19.25 77.75,0 162,0 162,-19.25"/>
<text text-anchor="middle" x="119.88" y="-5.75" font-family="Helvetica,sans-Serif" font-size="10.00">dbe::ClassNode</text>
</a>
</g>
</g>
<!-- Node2 -->
<g id="Node000002" class="node">
<title>Node2</title>
<g id="a_Node000002"><a xlink:href="classdbe_1_1treenode.html" target="_top" xlink:title=" ">
<polygon fill="white" stroke="#666666" points="73.75,-91.38 0,-91.38 0,-72.12 73.75,-72.12 73.75,-91.38"/>
<text text-anchor="middle" x="36.88" y="-77.88" font-family="Helvetica,sans-Serif" font-size="10.00">dbe::treenode</text>
</a>
</g>
</g>
<!-- Node2&#45;&gt;Node1 -->
<g id="edge1_Node000001_Node000002" class="edge">
<title>Node2&#45;&gt;Node1</title>
<g id="a_edge1_Node000001_Node000002"><a xlink:title=" ">
<path fill="none" stroke="#63b8ff" d="M55.75,-64.8C72.28,-50.84 95.7,-31.05 109.19,-19.66"/>
<polygon fill="#63b8ff" stroke="#63b8ff" points="53.92,-61.76 48.54,-70.89 58.44,-67.11 53.92,-61.76"/>
</a>
</g>
</g>
<!-- Node2&#45;&gt;Node2 -->
<g id="edge2_Node000002_Node000002" class="edge">
<title>Node2&#45;&gt;Node2</title>
<g id="a_edge2_Node000002_Node000002"><a xlink:title=" ">
<path fill="none" stroke="#9a32cd" stroke-dasharray="5,2" d="M85.43,-87.32C89.33,-86.1 91.75,-84.25 91.75,-81.75 91.75,-77.31 84.11,-74.9 74.06,-74.51"/>
<polygon fill="#9a32cd" stroke="#9a32cd" points="84.95,-83.85 75.56,-88.77 85.96,-90.78 84.95,-83.85"/>
</a>
</g>
<text text-anchor="middle" x="107.12" y="-77.88" font-family="Helvetica,sans-Serif" font-size="10.00" fill="grey"> Parent</text>
</g>
<!-- Node3 -->
<g id="Node000003" class="node">
<title>Node3</title>
<g id="a_Node000003"><a xlink:href="structdunedaq_1_1oksdbinterfaces_1_1class__t.html" target="_top" xlink:title=" ">
<polygon fill="white" stroke="#666666" points="267,-97 140.75,-97 140.75,-66.5 267,-66.5 267,-97"/>
<text text-anchor="start" x="148.75" y="-83.5" font-family="Helvetica,sans-Serif" font-size="10.00">dunedaq::oksdbinterfaces</text>
<text text-anchor="middle" x="203.88" y="-72.25" font-family="Helvetica,sans-Serif" font-size="10.00">::class_t</text>
</a>
</g>
</g>
<!-- Node3&#45;&gt;Node1 -->
<g id="edge3_Node000001_Node000003" class="edge">
<title>Node3&#45;&gt;Node1</title>
<g id="a_edge3_Node000001_Node000003"><a xlink:title=" ">
<path fill="none" stroke="#9a32cd" stroke-dasharray="5,2" d="M178.01,-59.16C161.97,-45.77 142.23,-29.28 130.36,-19.38"/>
<polygon fill="#9a32cd" stroke="#9a32cd" points="175.39,-61.53 185.31,-65.25 179.87,-56.15 175.39,-61.53"/>
</a>
</g>
<text text-anchor="middle" x="186.62" y="-39" font-family="Helvetica,sans-Serif" font-size="10.00" fill="grey"> ClassInfo</text>
</g>
</g>
</svg>
