<?xml version="1.0" encoding="UTF-8" standalone="no"?>
<!DOCTYPE svg PUBLIC "-//W3C//DTD SVG 1.1//EN"
 "http://www.w3.org/Graphics/SVG/1.1/DTD/svg11.dtd">
<!-- Generated by graphviz version 9.0.0 (20230911.1827)
 -->
<!-- Title: dunedaq::oksdbinterfaces::ConfigObjectImpl Pages: 1 -->
<svg width="250pt" height="105pt"
 viewBox="0.00 0.00 250.38 105.00" xmlns="http://www.w3.org/2000/svg" xmlns:xlink="http://www.w3.org/1999/xlink">
<g id="graph0" class="graph" transform="scale(1 1) rotate(0) translate(4 101)">
<title>dunedaq::oksdbinterfaces::ConfigObjectImpl</title>
<!-- Node1 -->
<g id="Node000001" class="node">
<title>Node1</title>
<g id="a_Node000001"><a xlink:title="Implements database objects.">
<polygon fill="#999999" stroke="#666666" points="177.38,-97 51.12,-97 51.12,-66.5 177.38,-66.5 177.38,-97"/>
<text text-anchor="start" x="59.12" y="-83.5" font-family="Helvetica,sans-Serif" font-size="10.00">dunedaq::oksdbinterfaces</text>
<text text-anchor="middle" x="114.25" y="-72.25" font-family="Helvetica,sans-Serif" font-size="10.00">::ConfigObjectImpl</text>
</a>
</g>
</g>
<!-- Node2 -->
<g id="Node000002" class="node">
<title>Node2</title>
<g id="a_Node000002"><a xlink:href="classdunedaq_1_1oksconfig_1_1OksConfigObject.html" target="_top" xlink:title=" ">
<polygon fill="white" stroke="#666666" points="98.5,-30.5 0,-30.5 0,0 98.5,0 98.5,-30.5"/>
<text text-anchor="start" x="8" y="-17" font-family="Helvetica,sans-Serif" font-size="10.00">dunedaq::oksconfig</text>
<text text-anchor="middle" x="49.25" y="-5.75" font-family="Helvetica,sans-Serif" font-size="10.00">::OksConfigObject</text>
</a>
</g>
</g>
<!-- Node1&#45;&gt;Node2 -->
<g id="edge1_Node000001_Node000002" class="edge">
<title>Node1&#45;&gt;Node2</title>
<g id="a_edge1_Node000001_Node000002"><a xlink:title=" ">
<path fill="none" stroke="#63b8ff" d="M91.51,-58.19C82.36,-49.11 72.08,-38.9 63.94,-30.83"/>
<polygon fill="#63b8ff" stroke="#63b8ff" points="88.86,-60.49 98.43,-65.05 93.79,-55.52 88.86,-60.49"/>
</a>
</g>
</g>
<!-- Node3 -->
<g id="Node000003" class="node">
<title>Node3</title>
<g id="a_Node000003"><a xlink:href="classdunedaq_1_1oksdbinterfaces_1_1ConfigObjectDefault.html" target="_top" xlink:title=" ">
<polygon fill="white" stroke="#666666" points="242.38,-30.5 116.12,-30.5 116.12,0 242.38,0 242.38,-30.5"/>
<text text-anchor="start" x="124.12" y="-17" font-family="Helvetica,sans-Serif" font-size="10.00">dunedaq::oksdbinterfaces</text>
<text text-anchor="middle" x="179.25" y="-5.75" font-family="Helvetica,sans-Serif" font-size="10.00">::ConfigObjectDefault</text>
</a>
</g>
</g>
<!-- Node1&#45;&gt;Node3 -->
<g id="edge2_Node000001_Node000003" class="edge">
<title>Node1&#45;&gt;Node3</title>
<g id="a_edge2_Node000001_Node000003"><a xlink:title=" ">
<path fill="none" stroke="#63b8ff" d="M136.99,-58.19C146.14,-49.11 156.42,-38.9 164.56,-30.83"/>
<polygon fill="#63b8ff" stroke="#63b8ff" points="134.71,-55.52 130.07,-65.05 139.64,-60.49 134.71,-55.52"/>
</a>
</g>
</g>
</g>
</svg>
