<?xml version="1.0" encoding="UTF-8" standalone="no"?>
<!DOCTYPE svg PUBLIC "-//W3C//DTD SVG 1.1//EN"
 "http://www.w3.org/Graphics/SVG/1.1/DTD/svg11.dtd">
<!-- Generated by graphviz version 9.0.0 (20230911.1827)
 -->
<!-- Title: dunedaq::oksdbinterfaces::DalObject Pages: 1 -->
<svg width="1465pt" height="357pt"
 viewBox="0.00 0.00 1465.00 357.25" xmlns="http://www.w3.org/2000/svg" xmlns:xlink="http://www.w3.org/1999/xlink">
<g id="graph0" class="graph" transform="scale(1 1) rotate(0) translate(4 353.25)">
<title>dunedaq::oksdbinterfaces::DalObject</title>
<!-- Node1 -->
<g id="Node000001" class="node">
<title>Node1</title>
<g id="a_Node000001"><a xlink:title="The base class for any generated DAL object.">
<polygon fill="#999999" stroke="#666666" points="1457,-188.75 1330.75,-188.75 1330.75,-158.25 1457,-158.25 1457,-188.75"/>
<text text-anchor="start" x="1338.75" y="-175.25" font-family="Helvetica,sans-Serif" font-size="10.00">dunedaq::oksdbinterfaces</text>
<text text-anchor="middle" x="1393.88" y="-164" font-family="Helvetica,sans-Serif" font-size="10.00">::DalObject</text>
</a>
</g>
</g>
<!-- Node2 -->
<g id="Node000002" class="node">
<title>Node2</title>
<g id="a_Node000002"><a xlink:href="classdunedaq_1_1oksdbinterfaces_1_1Configuration.html" target="_top" xlink:title=" ">
<polygon fill="white" stroke="#666666" points="626.12,-189.75 499.88,-189.75 499.88,-159.25 626.12,-159.25 626.12,-189.75"/>
<text text-anchor="start" x="507.88" y="-176.25" font-family="Helvetica,sans-Serif" font-size="10.00">dunedaq::oksdbinterfaces</text>
<text text-anchor="middle" x="563" y="-165" font-family="Helvetica,sans-Serif" font-size="10.00">::Configuration</text>
</a>
</g>
</g>
<!-- Node2&#45;&gt;Node1 -->
<g id="edge1_Node000001_Node000002" class="edge">
<title>Node2&#45;&gt;Node1</title>
<g id="a_edge1_Node000001_Node000002"><a xlink:title=" ">
<path fill="none" stroke="#9a32cd" stroke-dasharray="5,2" d="M637.62,-166.83C687.17,-162.32 754,-157.5 813.12,-157.5 813.12,-157.5 813.12,-157.5 1207.12,-157.5 1248.39,-157.5 1294.63,-161.47 1330.65,-165.45"/>
<polygon fill="#9a32cd" stroke="#9a32cd" points="637.51,-163.33 627.88,-167.74 638.16,-170.3 637.51,-163.33"/>
</a>
</g>
<text text-anchor="middle" x="1010.12" y="-159.25" font-family="Helvetica,sans-Serif" font-size="10.00" fill="grey"> p_db</text>
</g>
<!-- Node11 -->
<g id="Node000011" class="node">
<title>Node11</title>
<g id="a_Node000011"><a xlink:href="classdunedaq_1_1oksdbinterfaces_1_1ConfigurationImpl.html" target="_top" xlink:title="Provides pure virtual interface used by the Configuration class.">
<polygon fill="white" stroke="#666666" points="877.25,-236.75 751,-236.75 751,-206.25 877.25,-206.25 877.25,-236.75"/>
<text text-anchor="start" x="759" y="-223.25" font-family="Helvetica,sans-Serif" font-size="10.00">dunedaq::oksdbinterfaces</text>
<text text-anchor="middle" x="814.12" y="-212" font-family="Helvetica,sans-Serif" font-size="10.00">::ConfigurationImpl</text>
</a>
</g>
</g>
<!-- Node2&#45;&gt;Node11 -->
<g id="edge13_Node000011_Node000002" class="edge">
<title>Node2&#45;&gt;Node11</title>
<g id="a_edge13_Node000011_Node000002"><a xlink:title=" ">
<path fill="none" stroke="#9a32cd" stroke-dasharray="5,2" d="M624.51,-193.26C636.99,-196.69 650.1,-199.97 662.5,-202.5 691.3,-208.37 723.58,-212.74 750.85,-215.79"/>
<polygon fill="#9a32cd" stroke="#9a32cd" points="625.78,-189.98 615.21,-190.64 623.88,-196.72 625.78,-189.98"/>
</a>
</g>
<text text-anchor="middle" x="697.75" y="-215.25" font-family="Helvetica,sans-Serif" font-size="10.00" fill="grey"> m_conf</text>
</g>
<!-- Node3 -->
<g id="Node000003" class="node">
<title>Node3</title>
<g id="a_Node000003"><a xlink:href="classdunedaq_1_1oksdbinterfaces_1_1map.html" target="_top" xlink:title=" ">
<polygon fill="white" stroke="#666666" points="356.25,-255.38 198.5,-255.38 198.5,-213.62 356.25,-213.62 356.25,-255.38"/>
<text text-anchor="start" x="206.5" y="-241.88" font-family="Helvetica,sans-Serif" font-size="10.00">dunedaq::oksdbinterfaces</text>
<text text-anchor="start" x="206.5" y="-230.62" font-family="Helvetica,sans-Serif" font-size="10.00">::map&lt; dunedaq::oksdbinterfaces</text>
<text text-anchor="middle" x="277.38" y="-219.38" font-family="Helvetica,sans-Serif" font-size="10.00">::class_t * &gt;</text>
</a>
</g>
</g>
<!-- Node3&#45;&gt;Node2 -->
<g id="edge2_Node000002_Node000003" class="edge">
<title>Node3&#45;&gt;Node2</title>
<g id="a_edge2_Node000002_Node000003"><a xlink:title=" ">
<path fill="none" stroke="#9a32cd" stroke-dasharray="5,2" d="M367.67,-220.28C398.18,-214.97 432.44,-208.51 463.5,-201.5 478.03,-198.22 493.63,-194.19 508.03,-190.25"/>
<polygon fill="#9a32cd" stroke="#9a32cd" points="367.36,-216.78 358.1,-221.92 368.55,-223.68 367.36,-216.78"/>
</a>
</g>
<text text-anchor="start" x="375.75" y="-254" font-family="Helvetica,sans-Serif" font-size="10.00" fill="grey"> p_all_classes_desc</text>
<text text-anchor="middle" x="419.62" y="-242.75" font-family="Helvetica,sans-Serif" font-size="10.00" fill="grey">_cache</text>
<text text-anchor="start" x="375.75" y="-231.5" font-family="Helvetica,sans-Serif" font-size="10.00" fill="grey">p_direct_classes</text>
<text text-anchor="middle" x="419.62" y="-220.25" font-family="Helvetica,sans-Serif" font-size="10.00" fill="grey">_desc_cache</text>
</g>
<!-- Node4 -->
<g id="Node000004" class="node">
<title>Node4</title>
<g id="a_Node000004"><a xlink:title=" ">
<polygon fill="white" stroke="#666666" points="149.88,-266.38 10.12,-266.38 10.12,-224.62 149.88,-224.62 149.88,-266.38"/>
<text text-anchor="start" x="18.12" y="-252.88" font-family="Helvetica,sans-Serif" font-size="10.00">std::unordered_map</text>
<text text-anchor="start" x="18.12" y="-241.62" font-family="Helvetica,sans-Serif" font-size="10.00">&lt; std::string, dunedaq</text>
<text text-anchor="middle" x="80" y="-230.38" font-family="Helvetica,sans-Serif" font-size="10.00">::oksdbinterfaces::class_t * &gt;</text>
</a>
</g>
</g>
<!-- Node4&#45;&gt;Node3 -->
<g id="edge3_Node000003_Node000004" class="edge">
<title>Node4&#45;&gt;Node3</title>
<g id="a_edge3_Node000003_Node000004"><a xlink:title=" ">
<path fill="none" stroke="#63b8ff" d="M161.64,-240.96C173.77,-240.28 186.25,-239.57 198.32,-238.89"/>
<polygon fill="#63b8ff" stroke="#63b8ff" points="161.46,-237.46 151.67,-241.52 161.85,-244.45 161.46,-237.46"/>
</a>
</g>
</g>
<!-- Node5 -->
<g id="Node000005" class="node">
<title>Node5</title>
<g id="a_Node000005"><a xlink:href="classdunedaq_1_1oksdbinterfaces_1_1fmap.html" target="_top" xlink:title=" ">
<polygon fill="white" stroke="#666666" points="340.5,-195.38 214.25,-195.38 214.25,-153.62 340.5,-153.62 340.5,-195.38"/>
<text text-anchor="start" x="222.25" y="-181.88" font-family="Helvetica,sans-Serif" font-size="10.00">dunedaq::oksdbinterfaces</text>
<text text-anchor="start" x="222.25" y="-170.62" font-family="Helvetica,sans-Serif" font-size="10.00">::fmap&lt; oksdbinterfaces</text>
<text text-anchor="middle" x="277.38" y="-159.38" font-family="Helvetica,sans-Serif" font-size="10.00">::fset &gt;</text>
</a>
</g>
</g>
<!-- Node5&#45;&gt;Node2 -->
<g id="edge4_Node000002_Node000005" class="edge">
<title>Node5&#45;&gt;Node2</title>
<g id="a_edge4_Node000002_Node000005"><a xlink:title=" ">
<path fill="none" stroke="#9a32cd" stroke-dasharray="5,2" d="M352.32,-174.5C398.06,-174.5 456.14,-174.5 499.57,-174.5"/>
<polygon fill="#9a32cd" stroke="#9a32cd" points="352.48,-171 342.48,-174.5 352.48,-178 352.48,-171"/>
</a>
</g>
<text text-anchor="middle" x="419.62" y="-187.5" font-family="Helvetica,sans-Serif" font-size="10.00" fill="grey"> p_subclasses</text>
<text text-anchor="middle" x="419.62" y="-176.25" font-family="Helvetica,sans-Serif" font-size="10.00" fill="grey">p_superclasses</text>
</g>
<!-- Node6 -->
<g id="Node000006" class="node">
<title>Node6</title>
<g id="a_Node000006"><a xlink:title=" ">
<polygon fill="white" stroke="#666666" points="137.5,-207 22.5,-207 22.5,-154 137.5,-154 137.5,-207"/>
<text text-anchor="start" x="30.5" y="-193.5" font-family="Helvetica,sans-Serif" font-size="10.00">std::unordered_map</text>
<text text-anchor="start" x="30.5" y="-182.25" font-family="Helvetica,sans-Serif" font-size="10.00">&lt; const std::string</text>
<text text-anchor="start" x="30.5" y="-171" font-family="Helvetica,sans-Serif" font-size="10.00"> *, oksdbinterfaces::</text>
<text text-anchor="middle" x="80" y="-159.75" font-family="Helvetica,sans-Serif" font-size="10.00">fset , string_ptr_hash &gt;</text>
</a>
</g>
</g>
<!-- Node6&#45;&gt;Node5 -->
<g id="edge5_Node000005_Node000006" class="edge">
<title>Node6&#45;&gt;Node5</title>
<g id="a_edge5_Node000005_Node000006"><a xlink:title=" ">
<path fill="none" stroke="#63b8ff" d="M149.23,-178.4C170.28,-177.76 193.35,-177.05 213.98,-176.42"/>
<polygon fill="#63b8ff" stroke="#63b8ff" points="149.17,-174.9 139.29,-178.71 149.39,-181.9 149.17,-174.9"/>
</a>
</g>
</g>
<!-- Node7 -->
<g id="Node000007" class="node">
<title>Node7</title>
<g id="a_Node000007"><a xlink:href="classdunedaq_1_1oksdbinterfaces_1_1map.html" target="_top" xlink:title=" ">
<polygon fill="white" stroke="#666666" points="352.5,-133 202.25,-133 202.25,-80 352.5,-80 352.5,-133"/>
<text text-anchor="start" x="210.25" y="-119.5" font-family="Helvetica,sans-Serif" font-size="10.00">dunedaq::oksdbinterfaces</text>
<text text-anchor="start" x="210.25" y="-108.25" font-family="Helvetica,sans-Serif" font-size="10.00">::map&lt; std::list&lt; dunedaq</text>
<text text-anchor="start" x="210.25" y="-97" font-family="Helvetica,sans-Serif" font-size="10.00">::oksdbinterfaces::Configuration</text>
<text text-anchor="middle" x="277.38" y="-85.75" font-family="Helvetica,sans-Serif" font-size="10.00">::AttributeConverterBase * &gt; * &gt;</text>
</a>
</g>
</g>
<!-- Node7&#45;&gt;Node2 -->
<g id="edge6_Node000002_Node000007" class="edge">
<title>Node7&#45;&gt;Node2</title>
<g id="a_edge6_Node000002_Node000007"><a xlink:title=" ">
<path fill="none" stroke="#9a32cd" stroke-dasharray="5,2" d="M364.07,-127.05C407.67,-137.5 459.71,-149.98 499.48,-159.51"/>
<polygon fill="#9a32cd" stroke="#9a32cd" points="364.91,-123.65 354.37,-124.72 363.27,-130.45 364.91,-123.65"/>
</a>
</g>
<text text-anchor="middle" x="419.62" y="-152.25" font-family="Helvetica,sans-Serif" font-size="10.00" fill="grey"> m_convert_map</text>
</g>
<!-- Node8 -->
<g id="Node000008" class="node">
<title>Node8</title>
<g id="a_Node000008"><a xlink:title=" ">
<polygon fill="white" stroke="#666666" points="160,-135.62 0,-135.62 0,-71.38 160,-71.38 160,-135.62"/>
<text text-anchor="start" x="8" y="-122.12" font-family="Helvetica,sans-Serif" font-size="10.00">std::unordered_map</text>
<text text-anchor="start" x="8" y="-110.88" font-family="Helvetica,sans-Serif" font-size="10.00">&lt; std::string, std::</text>
<text text-anchor="start" x="8" y="-99.62" font-family="Helvetica,sans-Serif" font-size="10.00">list&lt; dunedaq::oksdbinterfaces</text>
<text text-anchor="start" x="8" y="-88.38" font-family="Helvetica,sans-Serif" font-size="10.00">::Configuration::AttributeConverter</text>
<text text-anchor="middle" x="80" y="-77.12" font-family="Helvetica,sans-Serif" font-size="10.00">Base * &gt; * &gt;</text>
</a>
</g>
</g>
<!-- Node8&#45;&gt;Node7 -->
<g id="edge7_Node000007_Node000008" class="edge">
<title>Node8&#45;&gt;Node7</title>
<g id="a_edge7_Node000007_Node000008"><a xlink:title=" ">
<path fill="none" stroke="#63b8ff" d="M171.82,-104.89C181.94,-105.05 192.15,-105.21 202.02,-105.36"/>
<polygon fill="#63b8ff" stroke="#63b8ff" points="172.03,-101.4 161.98,-104.74 171.92,-108.4 172.03,-101.4"/>
</a>
</g>
</g>
<!-- Node9 -->
<g id="Node000009" class="node">
<title>Node9</title>
<g id="a_Node000009"><a xlink:href="classdunedaq_1_1oksdbinterfaces_1_1fmap.html" target="_top" xlink:title=" ">
<polygon fill="white" stroke="#666666" points="357.75,-56.38 197,-56.38 197,-14.62 357.75,-14.62 357.75,-56.38"/>
<text text-anchor="start" x="205" y="-42.88" font-family="Helvetica,sans-Serif" font-size="10.00">dunedaq::oksdbinterfaces</text>
<text text-anchor="start" x="205" y="-31.62" font-family="Helvetica,sans-Serif" font-size="10.00">::fmap&lt; dunedaq::oksdbinterfaces</text>
<text text-anchor="middle" x="277.38" y="-20.38" font-family="Helvetica,sans-Serif" font-size="10.00">::CacheBase * &gt;</text>
</a>
</g>
</g>
<!-- Node9&#45;&gt;Node2 -->
<g id="edge8_Node000002_Node000009" class="edge">
<title>Node9&#45;&gt;Node2</title>
<g id="a_edge8_Node000002_Node000009"><a xlink:title=" ">
<path fill="none" stroke="#9a32cd" stroke-dasharray="5,2" d="M344.75,-60.98C380.52,-75.39 425.06,-94.46 463.5,-114.25 490.05,-127.93 519.07,-146.09 538.68,-158.89"/>
<polygon fill="#9a32cd" stroke="#9a32cd" points="346.42,-57.88 335.84,-57.41 343.82,-64.38 346.42,-57.88"/>
</a>
</g>
<text text-anchor="middle" x="419.62" y="-115.25" font-family="Helvetica,sans-Serif" font-size="10.00" fill="grey"> m_cache_map</text>
</g>
<!-- Node10 -->
<g id="Node000010" class="node">
<title>Node10</title>
<g id="a_Node000010"><a xlink:title=" ">
<polygon fill="white" stroke="#666666" points="158.5,-53 1.5,-53 1.5,0 158.5,0 158.5,-53"/>
<text text-anchor="start" x="9.5" y="-39.5" font-family="Helvetica,sans-Serif" font-size="10.00">std::unordered_map</text>
<text text-anchor="start" x="9.5" y="-28.25" font-family="Helvetica,sans-Serif" font-size="10.00">&lt; const std::string</text>
<text text-anchor="start" x="9.5" y="-17" font-family="Helvetica,sans-Serif" font-size="10.00"> *, dunedaq::oksdbinterfaces</text>
<text text-anchor="middle" x="80" y="-5.75" font-family="Helvetica,sans-Serif" font-size="10.00">::CacheBase *, string_ptr_hash &gt;</text>
</a>
</g>
</g>
<!-- Node10&#45;&gt;Node9 -->
<g id="edge9_Node000009_Node000010" class="edge">
<title>Node10&#45;&gt;Node9</title>
<g id="a_edge9_Node000009_Node000010"><a xlink:title=" ">
<path fill="none" stroke="#63b8ff" d="M170.26,-30.61C179.05,-31.02 187.94,-31.43 196.63,-31.83"/>
<polygon fill="#63b8ff" stroke="#63b8ff" points="170.44,-27.12 160.29,-30.15 170.12,-34.11 170.44,-27.12"/>
</a>
</g>
</g>
<!-- Node11&#45;&gt;Node2 -->
<g id="edge10_Node000002_Node000011" class="edge">
<title>Node11&#45;&gt;Node2</title>
<g id="a_edge10_Node000002_Node000011"><a xlink:title=" ">
<path fill="none" stroke="#9a32cd" stroke-dasharray="5,2" d="M767.16,-201.8C756.14,-197.73 744.29,-193.89 733,-191.25 698.26,-183.12 658.61,-178.93 626.44,-176.78"/>
<polygon fill="#9a32cd" stroke="#9a32cd" points="765.85,-205.04 776.44,-205.36 768.36,-198.51 765.85,-205.04"/>
</a>
</g>
<text text-anchor="middle" x="697.75" y="-192.25" font-family="Helvetica,sans-Serif" font-size="10.00" fill="grey"> m_impl</text>
</g>
<!-- Node15 -->
<g id="Node000015" class="node">
<title>Node15</title>
<g id="a_Node000015"><a xlink:href="classdunedaq_1_1oksdbinterfaces_1_1ConfigObjectImpl.html" target="_top" xlink:title="Implements database objects.">
<polygon fill="white" stroke="#666666" points="1073.25,-228.75 947,-228.75 947,-198.25 1073.25,-198.25 1073.25,-228.75"/>
<text text-anchor="start" x="955" y="-215.25" font-family="Helvetica,sans-Serif" font-size="10.00">dunedaq::oksdbinterfaces</text>
<text text-anchor="middle" x="1010.12" y="-204" font-family="Helvetica,sans-Serif" font-size="10.00">::ConfigObjectImpl</text>
</a>
</g>
</g>
<!-- Node11&#45;&gt;Node15 -->
<g id="edge16_Node000015_Node000011" class="edge">
<title>Node11&#45;&gt;Node15</title>
<g id="a_edge16_Node000015_Node000011"><a xlink:title=" ">
<path fill="none" stroke="#9a32cd" stroke-dasharray="5,2" d="M888.95,-218.46C908.02,-217.67 928.37,-216.83 946.79,-216.07"/>
<polygon fill="#9a32cd" stroke="#9a32cd" points="888.94,-214.95 879.09,-218.86 889.22,-221.95 888.94,-214.95"/>
</a>
</g>
<text text-anchor="middle" x="912.12" y="-219.25" font-family="Helvetica,sans-Serif" font-size="10.00" fill="grey"> m_impl</text>
</g>
<!-- Node12 -->
<g id="Node000012" class="node">
<title>Node12</title>
<g id="a_Node000012"><a xlink:href="classdunedaq_1_1oksdbinterfaces_1_1pmap.html" target="_top" xlink:title=" ">
<polygon fill="white" stroke="#666666" points="644.5,-324 481.5,-324 481.5,-271 644.5,-271 644.5,-324"/>
<text text-anchor="start" x="489.5" y="-310.5" font-family="Helvetica,sans-Serif" font-size="10.00">dunedaq::oksdbinterfaces</text>
<text text-anchor="start" x="489.5" y="-299.25" font-family="Helvetica,sans-Serif" font-size="10.00">::pmap&lt; dunedaq::oksdbinterfaces</text>
<text text-anchor="start" x="489.5" y="-288" font-family="Helvetica,sans-Serif" font-size="10.00">::map&lt; dunedaq::oksdbinterfaces</text>
<text text-anchor="middle" x="563" y="-276.75" font-family="Helvetica,sans-Serif" font-size="10.00">::ConfigObjectImpl * &gt; * &gt;</text>
</a>
</g>
</g>
<!-- Node12&#45;&gt;Node11 -->
<g id="edge11_Node000011_Node000012" class="edge">
<title>Node12&#45;&gt;Node11</title>
<g id="a_edge11_Node000011_Node000012"><a xlink:title=" ">
<path fill="none" stroke="#9a32cd" stroke-dasharray="5,2" d="M655.83,-269.49C691.53,-258.6 731.09,-246.53 761.61,-237.22"/>
<polygon fill="#9a32cd" stroke="#9a32cd" points="654.87,-266.12 646.33,-272.38 656.92,-272.81 654.87,-266.12"/>
</a>
</g>
<text text-anchor="middle" x="697.75" y="-267.25" font-family="Helvetica,sans-Serif" font-size="10.00" fill="grey"> m_impl_objects</text>
</g>
<!-- Node13 -->
<g id="Node000013" class="node">
<title>Node13</title>
<g id="a_Node000013"><a xlink:title=" ">
<polygon fill="white" stroke="#666666" points="344.62,-349.25 210.12,-349.25 210.12,-273.75 344.62,-273.75 344.62,-349.25"/>
<text text-anchor="start" x="218.12" y="-335.75" font-family="Helvetica,sans-Serif" font-size="10.00">std::map&lt; const std</text>
<text text-anchor="start" x="218.12" y="-324.5" font-family="Helvetica,sans-Serif" font-size="10.00">::string *, dunedaq</text>
<text text-anchor="start" x="218.12" y="-313.25" font-family="Helvetica,sans-Serif" font-size="10.00">::oksdbinterfaces::map</text>
<text text-anchor="start" x="218.12" y="-302" font-family="Helvetica,sans-Serif" font-size="10.00">&lt; dunedaq::oksdbinterfaces</text>
<text text-anchor="start" x="218.12" y="-290.75" font-family="Helvetica,sans-Serif" font-size="10.00">::ConfigObjectImpl * &gt; * ,</text>
<text text-anchor="middle" x="277.38" y="-279.5" font-family="Helvetica,sans-Serif" font-size="10.00"> string_ptr_compare &gt;</text>
</a>
</g>
</g>
<!-- Node13&#45;&gt;Node12 -->
<g id="edge12_Node000012_Node000013" class="edge">
<title>Node13&#45;&gt;Node12</title>
<g id="a_edge12_Node000012_Node000013"><a xlink:title=" ">
<path fill="none" stroke="#63b8ff" d="M356.13,-307.66C394.99,-305.74 441.99,-303.42 481.26,-301.49"/>
<polygon fill="#63b8ff" stroke="#63b8ff" points="356.2,-304.15 346.38,-308.14 356.54,-311.15 356.2,-304.15"/>
</a>
</g>
</g>
<!-- Node14 -->
<g id="Node000014" class="node">
<title>Node14</title>
<g id="a_Node000014"><a xlink:href="classdunedaq_1_1oksdbinterfaces_1_1ConfigObject.html" target="_top" xlink:title="Represents database objects.">
<polygon fill="white" stroke="#666666" points="1269.25,-216.75 1143,-216.75 1143,-186.25 1269.25,-186.25 1269.25,-216.75"/>
<text text-anchor="start" x="1151" y="-203.25" font-family="Helvetica,sans-Serif" font-size="10.00">dunedaq::oksdbinterfaces</text>
<text text-anchor="middle" x="1206.12" y="-192" font-family="Helvetica,sans-Serif" font-size="10.00">::ConfigObject</text>
</a>
</g>
</g>
<!-- Node14&#45;&gt;Node1 -->
<g id="edge14_Node000001_Node000014" class="edge">
<title>Node14&#45;&gt;Node1</title>
<g id="a_edge14_Node000001_Node000014"><a xlink:title=" ">
<path fill="none" stroke="#9a32cd" stroke-dasharray="5,2" d="M1280.71,-190.41C1297.14,-187.93 1314.42,-185.33 1330.35,-182.92"/>
<polygon fill="#9a32cd" stroke="#9a32cd" points="1280.36,-186.92 1270.99,-191.87 1281.4,-193.84 1280.36,-186.92"/>
</a>
</g>
<text text-anchor="middle" x="1300" y="-190.25" font-family="Helvetica,sans-Serif" font-size="10.00" fill="grey"> p_obj</text>
</g>
<!-- Node15&#45;&gt;Node14 -->
<g id="edge15_Node000014_Node000015" class="edge">
<title>Node15&#45;&gt;Node14</title>
<g id="a_edge15_Node000014_Node000015"><a xlink:title=" ">
<path fill="none" stroke="#9a32cd" stroke-dasharray="5,2" d="M1084.95,-208.93C1104.02,-207.75 1124.37,-206.5 1142.79,-205.36"/>
<polygon fill="#9a32cd" stroke="#9a32cd" points="1084.85,-205.43 1075.09,-209.54 1085.28,-212.42 1084.85,-205.43"/>
</a>
</g>
<text text-anchor="middle" x="1108.12" y="-209.25" font-family="Helvetica,sans-Serif" font-size="10.00" fill="grey"> m_impl</text>
</g>
</g>
</svg>
