<?xml version="1.0" encoding="UTF-8" standalone="no"?>
<!DOCTYPE svg PUBLIC "-//W3C//DTD SVG 1.1//EN"
 "http://www.w3.org/Graphics/SVG/1.1/DTD/svg11.dtd">
<!-- Generated by graphviz version 9.0.0 (20230911.1827)
 -->
<!-- Title: dunedaq::oks::OksObject Pages: 1 -->
<svg width="821pt" height="539pt"
 viewBox="0.00 0.00 820.88 538.75" xmlns="http://www.w3.org/2000/svg" xmlns:xlink="http://www.w3.org/1999/xlink">
<g id="graph0" class="graph" transform="scale(1 1) rotate(0) translate(4 534.75)">
<title>dunedaq::oks::OksObject</title>
<!-- Node1 -->
<g id="Node000001" class="node">
<title>Node1</title>
<g id="a_Node000001"><a xlink:title="OksObject describes instance of OksClass.">
<polygon fill="#999999" stroke="#666666" points="636.38,-464.25 512.38,-464.25 512.38,-445 636.38,-445 636.38,-464.25"/>
<text text-anchor="middle" x="574.38" y="-450.75" font-family="Helvetica,sans-Serif" font-size="10.00">dunedaq::oks::OksObject</text>
</a>
</g>
</g>
<!-- Node4 -->
<g id="Node000004" class="node">
<title>Node4</title>
<g id="a_Node000004"><a xlink:href="uniondunedaq_1_1oks_1_1OksData_1_1Data.html" target="_top" xlink:title=" ">
<polygon fill="white" stroke="#666666" points="721.25,-97 605.5,-97 605.5,-66.5 721.25,-66.5 721.25,-97"/>
<text text-anchor="start" x="613.5" y="-83.5" font-family="Helvetica,sans-Serif" font-size="10.00">dunedaq::oks::OksData</text>
<text text-anchor="middle" x="663.38" y="-72.25" font-family="Helvetica,sans-Serif" font-size="10.00">::Data</text>
</a>
</g>
</g>
<!-- Node1&#45;&gt;Node4 -->
<g id="edge15_Node000004_Node000001" class="edge">
<title>Node1&#45;&gt;Node4</title>
<g id="a_edge15_Node000004_Node000001"><a xlink:title=" ">
<path fill="none" stroke="#9a32cd" stroke-dasharray="5,2" d="M574.38,-433.36C574.38,-410.37 574.38,-371.74 574.38,-338.5 574.38,-338.5 574.38,-338.5 574.38,-175.38 574.38,-139.92 608.71,-112.77 634.72,-97.29"/>
<polygon fill="#9a32cd" stroke="#9a32cd" points="570.88,-433.15 574.38,-443.15 577.88,-433.16 570.88,-433.15"/>
</a>
</g>
<text text-anchor="middle" x="594.62" y="-244.62" font-family="Helvetica,sans-Serif" font-size="10.00" fill="grey"> OBJECT</text>
</g>
<!-- Node7 -->
<g id="Node000007" class="node">
<title>Node7</title>
<g id="a_Node000007"><a xlink:href="classdunedaq_1_1oks_1_1OksKernel.html" target="_top" xlink:title="Provides interface to the OKS kernel.">
<polygon fill="white" stroke="#666666" points="266,-347.12 142.75,-347.12 142.75,-327.88 266,-327.88 266,-347.12"/>
<text text-anchor="middle" x="204.38" y="-333.62" font-family="Helvetica,sans-Serif" font-size="10.00">dunedaq::oks::OksKernel</text>
</a>
</g>
</g>
<!-- Node1&#45;&gt;Node7 -->
<g id="edge11_Node000007_Node000001" class="edge">
<title>Node1&#45;&gt;Node7</title>
<g id="a_edge11_Node000007_Node000001"><a xlink:title=" ">
<path fill="none" stroke="#9a32cd" stroke-dasharray="5,2" d="M500.6,-451.05C415.81,-447.49 285.87,-440.01 267.12,-427 244.38,-411.22 256.95,-392.92 240.38,-370.75 233.64,-361.75 224.09,-353.33 216.52,-347.36"/>
<polygon fill="#9a32cd" stroke="#9a32cd" points="500.34,-454.54 510.48,-451.45 500.63,-447.55 500.34,-454.54"/>
</a>
</g>
<text text-anchor="start" x="267.38" y="-417.5" font-family="Helvetica,sans-Serif" font-size="10.00" fill="grey"> p_change_object_notify</text>
<text text-anchor="middle" x="322.5" y="-406.25" font-family="Helvetica,sans-Serif" font-size="10.00" fill="grey">_fn</text>
<text text-anchor="start" x="267.38" y="-395" font-family="Helvetica,sans-Serif" font-size="10.00" fill="grey">p_create_object_notify</text>
<text text-anchor="middle" x="322.5" y="-383.75" font-family="Helvetica,sans-Serif" font-size="10.00" fill="grey">_fn</text>
<text text-anchor="middle" x="322.5" y="-372.5" font-family="Helvetica,sans-Serif" font-size="10.00" fill="grey">p_delete_object_notify_fn</text>
</g>
<!-- Node2 -->
<g id="Node000002" class="node">
<title>Node2</title>
<g id="a_Node000002"><a xlink:title=" ">
<polygon fill="white" stroke="#666666" points="702.75,-530.75 662,-530.75 662,-511.5 702.75,-511.5 702.75,-530.75"/>
<text text-anchor="middle" x="682.38" y="-517.25" font-family="Helvetica,sans-Serif" font-size="10.00">struct</text>
</a>
</g>
</g>
<!-- Node2&#45;&gt;Node1 -->
<g id="edge1_Node000001_Node000002" class="edge">
<title>Node2&#45;&gt;Node1</title>
<g id="a_edge1_Node000001_Node000002"><a xlink:title=" ">
<path fill="none" stroke="#9a32cd" stroke-dasharray="5,2" d="M657.55,-505.3C636.6,-492.78 607.26,-475.27 589.61,-464.73"/>
<polygon fill="#9a32cd" stroke="#9a32cd" points="655.68,-508.26 666.06,-510.38 659.27,-502.25 655.68,-508.26"/>
</a>
</g>
<text text-anchor="middle" x="642.88" y="-484" font-family="Helvetica,sans-Serif" font-size="10.00" fill="grey"> uid</text>
</g>
<!-- Node2&#45;&gt;Node4 -->
<g id="edge18_Node000004_Node000002" class="edge">
<title>Node2&#45;&gt;Node4</title>
<g id="a_edge18_Node000004_Node000002"><a xlink:title=" ">
<path fill="none" stroke="#9a32cd" stroke-dasharray="5,2" d="M714.27,-514.98C746.12,-507.81 790.38,-491.41 790.38,-455.62 790.38,-455.62 790.38,-455.62 790.38,-175.38 790.38,-135.67 749.35,-111.18 713.93,-97.43"/>
<polygon fill="#9a32cd" stroke="#9a32cd" points="713.79,-511.51 704.68,-516.92 715.18,-518.37 713.79,-511.51"/>
</a>
</g>
<text text-anchor="middle" x="801.62" y="-294.75" font-family="Helvetica,sans-Serif" font-size="10.00" fill="grey"> UID</text>
<text text-anchor="middle" x="801.62" y="-283.5" font-family="Helvetica,sans-Serif" font-size="10.00" fill="grey">UID2</text>
</g>
<!-- Node3 -->
<g id="Node000003" class="node">
<title>Node3</title>
<g id="a_Node000003"><a xlink:href="structdunedaq_1_1oks_1_1OksData.html" target="_top" xlink:title="the structure to pass common parameters to various read() methods of OksData and OksObject class">
<polygon fill="white" stroke="#666666" points="766.25,-19.25 650.5,-19.25 650.5,0 766.25,0 766.25,-19.25"/>
<text text-anchor="middle" x="708.38" y="-5.75" font-family="Helvetica,sans-Serif" font-size="10.00">dunedaq::oks::OksData</text>
</a>
</g>
</g>
<!-- Node3&#45;&gt;Node1 -->
<g id="edge2_Node000001_Node000003" class="edge">
<title>Node3&#45;&gt;Node1</title>
<g id="a_edge2_Node000001_Node000003"><a xlink:title=" ">
<path fill="none" stroke="#9a32cd" stroke-dasharray="5,2" d="M726.53,-27.54C738.65,-40.72 752.38,-60.2 752.38,-80.75 752.38,-338.5 752.38,-338.5 752.38,-338.5 752.38,-401.07 673.88,-431.3 621.14,-444.56"/>
<polygon fill="#9a32cd" stroke="#9a32cd" points="729.16,-25.22 719.64,-20.56 724.17,-30.14 729.16,-25.22"/>
</a>
</g>
<text text-anchor="middle" x="762.88" y="-205.75" font-family="Helvetica,sans-Serif" font-size="10.00" fill="grey"> data</text>
</g>
<!-- Node4&#45;&gt;Node3 -->
<g id="edge3_Node000003_Node000004" class="edge">
<title>Node4&#45;&gt;Node3</title>
<g id="a_edge3_Node000003_Node000004"><a xlink:title=" ">
<path fill="none" stroke="#9a32cd" stroke-dasharray="5,2" d="M678.68,-56.9C686.99,-43.96 696.75,-28.73 702.76,-19.38"/>
<polygon fill="#9a32cd" stroke="#9a32cd" points="675.97,-54.64 673.52,-64.95 681.86,-58.42 675.97,-54.64"/>
</a>
</g>
<text text-anchor="middle" x="700.88" y="-39" font-family="Helvetica,sans-Serif" font-size="10.00" fill="grey"> data</text>
</g>
<!-- Node5 -->
<g id="Node000005" class="node">
<title>Node5</title>
<g id="a_Node000005"><a xlink:href="classdunedaq_1_1oks_1_1OksClass.html" target="_top" xlink:title="The OKS class.">
<polygon fill="white" stroke="#666666" points="468.5,-186 348.25,-186 348.25,-166.75 468.5,-166.75 468.5,-186"/>
<text text-anchor="middle" x="408.38" y="-172.5" font-family="Helvetica,sans-Serif" font-size="10.00">dunedaq::oks::OksClass</text>
</a>
</g>
</g>
<!-- Node5&#45;&gt;Node4 -->
<g id="edge4_Node000004_Node000005" class="edge">
<title>Node5&#45;&gt;Node4</title>
<g id="a_edge4_Node000004_Node000005"><a xlink:title=" ">
<path fill="none" stroke="#9a32cd" stroke-dasharray="5,2" d="M432.71,-160.39C455.62,-146.86 491.28,-127.23 524.38,-115 550.28,-105.43 579.99,-98.07 605.28,-92.83"/>
<polygon fill="#9a32cd" stroke="#9a32cd" points="430.91,-157.39 424.14,-165.54 434.51,-163.39 430.91,-157.39"/>
</a>
</g>
<text text-anchor="middle" x="542.38" y="-133.62" font-family="Helvetica,sans-Serif" font-size="10.00" fill="grey"> CLASS</text>
<text text-anchor="middle" x="542.38" y="-122.38" font-family="Helvetica,sans-Serif" font-size="10.00" fill="grey">class_id</text>
</g>
<!-- Node6 -->
<g id="Node000006" class="node">
<title>Node6</title>
<g id="a_Node000006"><a xlink:href="classdunedaq_1_1oks_1_1OksFile.html" target="_top" xlink:title="Provides interface to the OKS XML schema and data files.">
<polygon fill="white" stroke="#666666" points="312,-258.12 200.75,-258.12 200.75,-238.88 312,-238.88 312,-258.12"/>
<text text-anchor="middle" x="256.38" y="-244.62" font-family="Helvetica,sans-Serif" font-size="10.00">dunedaq::oks::OksFile</text>
</a>
</g>
</g>
<!-- Node6&#45;&gt;Node1 -->
<g id="edge19_Node000001_Node000006" class="edge">
<title>Node6&#45;&gt;Node1</title>
<g id="a_edge19_Node000001_Node000006"><a xlink:title=" ">
<path fill="none" stroke="#9a32cd" stroke-dasharray="5,2" d="M291.3,-262.94C302.89,-268.09 315.58,-274.49 326.38,-281.75 364.66,-307.51 365.15,-325.14 402.12,-352.75 454.61,-391.94 523.48,-428.25 555.94,-444.57"/>
<polygon fill="#9a32cd" stroke="#9a32cd" points="293.01,-259.87 282.44,-259.18 290.27,-266.31 293.01,-259.87"/>
</a>
</g>
<text text-anchor="middle" x="409.5" y="-333.62" font-family="Helvetica,sans-Serif" font-size="10.00" fill="grey"> file</text>
</g>
<!-- Node6&#45;&gt;Node5 -->
<g id="edge5_Node000005_Node000006" class="edge">
<title>Node6&#45;&gt;Node5</title>
<g id="a_edge5_Node000005_Node000006"><a xlink:title=" ">
<path fill="none" stroke="#9a32cd" stroke-dasharray="5,2" d="M286.36,-233.67C316.77,-219.64 362.94,-198.34 388.89,-186.36"/>
<polygon fill="#9a32cd" stroke="#9a32cd" points="284.92,-230.47 277.31,-237.84 287.86,-236.83 284.92,-230.47"/>
</a>
</g>
<text text-anchor="middle" x="363.75" y="-205.75" font-family="Helvetica,sans-Serif" font-size="10.00" fill="grey"> p_file</text>
</g>
<!-- Node6&#45;&gt;Node6 -->
<g id="edge6_Node000006_Node000006" class="edge">
<title>Node6&#45;&gt;Node6</title>
<g id="a_edge6_Node000006_Node000006"><a xlink:title=" ">
<path fill="none" stroke="#9a32cd" stroke-dasharray="5,2" d="M323.46,-253.56C327.55,-252.36 330,-250.67 330,-248.5 330,-244.74 322.66,-242.44 312.24,-241.59"/>
<polygon fill="#9a32cd" stroke="#9a32cd" points="323.03,-250.09 313.73,-255.17 324.17,-256.99 323.03,-250.09"/>
</a>
</g>
<text text-anchor="middle" x="361.88" y="-244.62" font-family="Helvetica,sans-Serif" font-size="10.00" fill="grey"> p_included_by</text>
</g>
<!-- Node6&#45;&gt;Node7 -->
<g id="edge8_Node000007_Node000006" class="edge">
<title>Node6&#45;&gt;Node7</title>
<g id="a_edge8_Node000007_Node000006"><a xlink:title=" ">
<path fill="none" stroke="#9a32cd" stroke-dasharray="5,2" d="M250.86,-269.41C247.36,-280.21 242.2,-293.51 235.38,-304.25 229.79,-313.03 221.56,-321.46 214.98,-327.49"/>
<polygon fill="#9a32cd" stroke="#9a32cd" points="254.17,-270.58 253.68,-259.99 247.46,-268.57 254.17,-270.58"/>
</a>
</g>
<text text-anchor="middle" x="284.62" y="-294.75" font-family="Helvetica,sans-Serif" font-size="10.00" fill="grey"> p_active_data</text>
<text text-anchor="middle" x="284.62" y="-283.5" font-family="Helvetica,sans-Serif" font-size="10.00" fill="grey">p_active_schema</text>
</g>
<!-- Node7&#45;&gt;Node5 -->
<g id="edge12_Node000005_Node000007" class="edge">
<title>Node7&#45;&gt;Node5</title>
<g id="a_edge12_Node000005_Node000007"><a xlink:title=" ">
<path fill="none" stroke="#9a32cd" stroke-dasharray="5,2" d="M185.01,-319.85C162.33,-298.34 130.48,-260.44 152.38,-233.25 176.45,-203.36 280.02,-188.59 347.82,-182"/>
<polygon fill="#9a32cd" stroke="#9a32cd" points="182.54,-322.33 192.29,-326.46 187.25,-317.15 182.54,-322.33"/>
</a>
</g>
<text text-anchor="middle" x="171.88" y="-244.62" font-family="Helvetica,sans-Serif" font-size="10.00" fill="grey"> p_kernel</text>
</g>
<!-- Node7&#45;&gt;Node6 -->
<g id="edge7_Node000006_Node000007" class="edge">
<title>Node7&#45;&gt;Node6</title>
<g id="a_edge7_Node000006_Node000007"><a xlink:title=" ">
<path fill="none" stroke="#9a32cd" stroke-dasharray="5,2" d="M195.62,-316.98C192.06,-305.94 190.08,-292.29 196.38,-281.75 202.87,-270.89 214.41,-263.47 225.66,-258.52"/>
<polygon fill="#9a32cd" stroke="#9a32cd" points="192.35,-318.21 199.25,-326.25 198.87,-315.66 192.35,-318.21"/>
</a>
</g>
<text text-anchor="middle" x="215.88" y="-289.12" font-family="Helvetica,sans-Serif" font-size="10.00" fill="grey"> p_kernel</text>
</g>
<!-- Node8 -->
<g id="Node000008" class="node">
<title>Node8</title>
<g id="a_Node000008"><a xlink:href="classdunedaq_1_1oks_1_1OksProfiler.html" target="_top" xlink:title=" ">
<polygon fill="white" stroke="#666666" points="268.12,-464.25 142.62,-464.25 142.62,-445 268.12,-445 268.12,-464.25"/>
<text text-anchor="middle" x="205.38" y="-450.75" font-family="Helvetica,sans-Serif" font-size="10.00">dunedaq::oks::OksProfiler</text>
</a>
</g>
</g>
<!-- Node8&#45;&gt;Node7 -->
<g id="edge9_Node000007_Node000008" class="edge">
<title>Node8&#45;&gt;Node7</title>
<g id="a_edge9_Node000007_Node000008"><a xlink:title=" ">
<path fill="none" stroke="#9a32cd" stroke-dasharray="5,2" d="M205.2,-433.42C204.98,-408.11 204.61,-365.87 204.45,-347.49"/>
<polygon fill="#9a32cd" stroke="#9a32cd" points="201.7,-433.11 205.28,-443.08 208.7,-433.05 201.7,-433.11"/>
</a>
</g>
<text text-anchor="middle" x="220.75" y="-395" font-family="Helvetica,sans-Serif" font-size="10.00" fill="grey"> profiler</text>
</g>
<!-- Node9 -->
<g id="Node000009" class="node">
<title>Node9</title>
<g id="a_Node000009"><a xlink:href="structdunedaq_1_1oks_1_1LoadErrors.html" target="_top" xlink:title=" ">
<polygon fill="white" stroke="#666666" points="124.75,-464.25 0,-464.25 0,-445 124.75,-445 124.75,-464.25"/>
<text text-anchor="middle" x="62.38" y="-450.75" font-family="Helvetica,sans-Serif" font-size="10.00">dunedaq::oks::LoadErrors</text>
</a>
</g>
</g>
<!-- Node9&#45;&gt;Node7 -->
<g id="edge10_Node000007_Node000009" class="edge">
<title>Node9&#45;&gt;Node7</title>
<g id="a_edge10_Node000007_Node000009"><a xlink:title=" ">
<path fill="none" stroke="#9a32cd" stroke-dasharray="5,2" d="M76.11,-435.78C90.68,-417.73 115.07,-389.83 140.62,-370.75 153.35,-361.25 169.29,-353.19 182.04,-347.5"/>
<polygon fill="#9a32cd" stroke="#9a32cd" points="73.48,-433.48 70.03,-443.49 78.97,-437.81 73.48,-433.48"/>
</a>
</g>
<text text-anchor="middle" x="171.75" y="-395" font-family="Helvetica,sans-Serif" font-size="10.00" fill="grey"> p_load_errors</text>
</g>
<!-- Node10 -->
<g id="Node000010" class="node">
<title>Node10</title>
<g id="a_Node000010"><a xlink:href="classdunedaq_1_1oksdbinterfaces_1_1map.html" target="_top" xlink:title=" ">
<polygon fill="white" stroke="#666666" points="538.5,-263.75 412.25,-263.75 412.25,-233.25 538.5,-233.25 538.5,-263.75"/>
<text text-anchor="start" x="420.25" y="-250.25" font-family="Helvetica,sans-Serif" font-size="10.00">dunedaq::oksdbinterfaces</text>
<text text-anchor="middle" x="475.38" y="-239" font-family="Helvetica,sans-Serif" font-size="10.00">::map&lt; T &gt;</text>
</a>
</g>
</g>
<!-- Node10&#45;&gt;Node5 -->
<g id="edge13_Node000005_Node000010" class="edge">
<title>Node10&#45;&gt;Node5</title>
<g id="a_edge13_Node000005_Node000010"><a xlink:title=" ">
<path fill="none" stroke="#9a32cd" stroke-dasharray="5,2" d="M453.67,-224.79C441.08,-211.61 425.94,-195.76 416.74,-186.13"/>
<polygon fill="#9a32cd" stroke="#9a32cd" points="451.01,-227.06 460.45,-231.88 456.07,-222.23 451.01,-227.06"/>
</a>
</g>
<text text-anchor="middle" x="470.62" y="-205.75" font-family="Helvetica,sans-Serif" font-size="10.00" fill="grey"> p_data_info</text>
</g>
<!-- Node11 -->
<g id="Node000011" class="node">
<title>Node11</title>
<g id="a_Node000011"><a xlink:title=" ">
<polygon fill="white" stroke="#666666" points="525.75,-352.75 425,-352.75 425,-322.25 525.75,-322.25 525.75,-352.75"/>
<text text-anchor="start" x="433" y="-339.25" font-family="Helvetica,sans-Serif" font-size="10.00">std::unordered_map</text>
<text text-anchor="middle" x="475.38" y="-328" font-family="Helvetica,sans-Serif" font-size="10.00">&lt; std::string, T &gt;</text>
</a>
</g>
</g>
<!-- Node11&#45;&gt;Node10 -->
<g id="edge14_Node000010_Node000011" class="edge">
<title>Node11&#45;&gt;Node10</title>
<g id="a_edge14_Node000010_Node000011"><a xlink:title=" ">
<path fill="none" stroke="#63b8ff" d="M475.38,-310.87C475.38,-295.66 475.38,-276.92 475.38,-264.18"/>
<polygon fill="#63b8ff" stroke="#63b8ff" points="471.88,-310.62 475.38,-320.62 478.88,-310.62 471.88,-310.62"/>
</a>
</g>
</g>
<!-- Node12 -->
<g id="Node000012" class="node">
<title>Node12</title>
<g id="a_Node000012"><a xlink:href="classdunedaq_1_1oks_1_1OksString.html" target="_top" xlink:title="Class OKS string.">
<polygon fill="white" stroke="#666666" points="723.88,-186 602.88,-186 602.88,-166.75 723.88,-166.75 723.88,-186"/>
<text text-anchor="middle" x="663.38" y="-172.5" font-family="Helvetica,sans-Serif" font-size="10.00">dunedaq::oks::OksString</text>
</a>
</g>
</g>
<!-- Node12&#45;&gt;Node4 -->
<g id="edge16_Node000004_Node000012" class="edge">
<title>Node12&#45;&gt;Node4</title>
<g id="a_edge16_Node000004_Node000012"><a xlink:title=" ">
<path fill="none" stroke="#9a32cd" stroke-dasharray="5,2" d="M663.38,-155.04C663.38,-137.53 663.38,-112.7 663.38,-97.17"/>
<polygon fill="#9a32cd" stroke="#9a32cd" points="659.88,-154.98 663.38,-164.98 666.88,-154.98 659.88,-154.98"/>
</a>
</g>
<text text-anchor="middle" x="683.25" y="-139.25" font-family="Helvetica,sans-Serif" font-size="10.00" fill="grey"> STRING</text>
<text text-anchor="middle" x="683.25" y="-128" font-family="Helvetica,sans-Serif" font-size="10.00" fill="grey">class_id</text>
<text text-anchor="middle" x="683.25" y="-116.75" font-family="Helvetica,sans-Serif" font-size="10.00" fill="grey">object_id</text>
</g>
<!-- Node13 -->
<g id="Node000013" class="node">
<title>Node13</title>
<g id="a_Node000013"><a xlink:title=" ">
<polygon fill="white" stroke="#666666" points="692.38,-258.12 634.38,-258.12 634.38,-238.88 692.38,-238.88 692.38,-258.12"/>
<text text-anchor="middle" x="663.38" y="-244.62" font-family="Helvetica,sans-Serif" font-size="10.00">std::string</text>
</a>
</g>
</g>
<!-- Node13&#45;&gt;Node12 -->
<g id="edge17_Node000012_Node000013" class="edge">
<title>Node13&#45;&gt;Node12</title>
<g id="a_edge17_Node000012_Node000013"><a xlink:title=" ">
<path fill="none" stroke="#63b8ff" d="M663.38,-227.12C663.38,-213.64 663.38,-196.64 663.38,-186.41"/>
<polygon fill="#63b8ff" stroke="#63b8ff" points="659.88,-227.11 663.38,-237.11 666.88,-227.11 659.88,-227.11"/>
</a>
</g>
</g>
</g>
</svg>
