<?xml version="1.0" encoding="UTF-8" standalone="no"?>
<!DOCTYPE svg PUBLIC "-//W3C//DTD SVG 1.1//EN"
 "http://www.w3.org/Graphics/SVG/1.1/DTD/svg11.dtd">
<!-- Generated by graphviz version 9.0.0 (20230911.1827)
 -->
<!-- Title: dunedaq::oksdbinterfaces::python::ConfigurationPointer Pages: 1 -->
<svg width="900pt" height="357pt"
 viewBox="0.00 0.00 899.50 357.25" xmlns="http://www.w3.org/2000/svg" xmlns:xlink="http://www.w3.org/1999/xlink">
<g id="graph0" class="graph" transform="scale(1 1) rotate(0) translate(4 353.25)">
<title>dunedaq::oksdbinterfaces::python::ConfigurationPointer</title>
<!-- Node1 -->
<g id="Node000001" class="node">
<title>Node1</title>
<g id="a_Node000001"><a xlink:title=" ">
<polygon fill="#999999" stroke="#666666" points="891.5,-172.75 751,-172.75 751,-142.25 891.5,-142.25 891.5,-172.75"/>
<text text-anchor="start" x="759" y="-159.25" font-family="Helvetica,sans-Serif" font-size="10.00">dunedaq::oksdbinterfaces</text>
<text text-anchor="middle" x="821.25" y="-148" font-family="Helvetica,sans-Serif" font-size="10.00">::python::ConfigurationPointer</text>
</a>
</g>
</g>
<!-- Node2 -->
<g id="Node000002" class="node">
<title>Node2</title>
<g id="a_Node000002"><a xlink:href="classdunedaq_1_1oksdbinterfaces_1_1Configuration.html" target="_top" xlink:title=" ">
<polygon fill="white" stroke="#666666" points="626.12,-189.75 499.88,-189.75 499.88,-159.25 626.12,-159.25 626.12,-189.75"/>
<text text-anchor="start" x="507.88" y="-176.25" font-family="Helvetica,sans-Serif" font-size="10.00">dunedaq::oksdbinterfaces</text>
<text text-anchor="middle" x="563" y="-165" font-family="Helvetica,sans-Serif" font-size="10.00">::Configuration</text>
</a>
</g>
</g>
<!-- Node2&#45;&gt;Node1 -->
<g id="edge1_Node000001_Node000002" class="edge">
<title>Node2&#45;&gt;Node1</title>
<g id="a_edge1_Node000001_Node000002"><a xlink:title=" ">
<path fill="none" stroke="#9a32cd" stroke-dasharray="5,2" d="M637.85,-161.02C646.14,-159.89 654.49,-158.93 662.5,-158.25 691.29,-155.82 723.14,-155.27 750.64,-155.46"/>
<polygon fill="#9a32cd" stroke="#9a32cd" points="637.5,-157.53 628.1,-162.43 638.5,-164.46 637.5,-157.53"/>
</a>
</g>
<text text-anchor="middle" x="697.75" y="-159.25" font-family="Helvetica,sans-Serif" font-size="10.00" fill="grey"> m_pointer</text>
</g>
<!-- Node11 -->
<g id="Node000011" class="node">
<title>Node11</title>
<g id="a_Node000011"><a xlink:href="classdunedaq_1_1oksdbinterfaces_1_1ConfigurationImpl.html" target="_top" xlink:title="Provides pure virtual interface used by the Configuration class.">
<polygon fill="white" stroke="#666666" points="884.38,-240.75 758.12,-240.75 758.12,-210.25 884.38,-210.25 884.38,-240.75"/>
<text text-anchor="start" x="766.12" y="-227.25" font-family="Helvetica,sans-Serif" font-size="10.00">dunedaq::oksdbinterfaces</text>
<text text-anchor="middle" x="821.25" y="-216" font-family="Helvetica,sans-Serif" font-size="10.00">::ConfigurationImpl</text>
</a>
</g>
</g>
<!-- Node2&#45;&gt;Node11 -->
<g id="edge13_Node000011_Node000002" class="edge">
<title>Node2&#45;&gt;Node11</title>
<g id="a_edge13_Node000011_Node000002"><a xlink:title=" ">
<path fill="none" stroke="#9a32cd" stroke-dasharray="5,2" d="M622.9,-193.38C635.85,-197.1 649.57,-200.71 662.5,-203.5 693.59,-210.21 728.58,-215.33 757.69,-218.93"/>
<polygon fill="#9a32cd" stroke="#9a32cd" points="624.26,-190.13 613.68,-190.67 622.29,-196.85 624.26,-190.13"/>
</a>
</g>
<text text-anchor="middle" x="697.75" y="-216.25" font-family="Helvetica,sans-Serif" font-size="10.00" fill="grey"> m_conf</text>
</g>
<!-- Node3 -->
<g id="Node000003" class="node">
<title>Node3</title>
<g id="a_Node000003"><a xlink:href="classdunedaq_1_1oksdbinterfaces_1_1map.html" target="_top" xlink:title=" ">
<polygon fill="white" stroke="#666666" points="356.25,-255.38 198.5,-255.38 198.5,-213.62 356.25,-213.62 356.25,-255.38"/>
<text text-anchor="start" x="206.5" y="-241.88" font-family="Helvetica,sans-Serif" font-size="10.00">dunedaq::oksdbinterfaces</text>
<text text-anchor="start" x="206.5" y="-230.62" font-family="Helvetica,sans-Serif" font-size="10.00">::map&lt; dunedaq::oksdbinterfaces</text>
<text text-anchor="middle" x="277.38" y="-219.38" font-family="Helvetica,sans-Serif" font-size="10.00">::class_t * &gt;</text>
</a>
</g>
</g>
<!-- Node3&#45;&gt;Node2 -->
<g id="edge2_Node000002_Node000003" class="edge">
<title>Node3&#45;&gt;Node2</title>
<g id="a_edge2_Node000002_Node000003"><a xlink:title=" ">
<path fill="none" stroke="#9a32cd" stroke-dasharray="5,2" d="M367.67,-220.28C398.18,-214.97 432.44,-208.51 463.5,-201.5 478.03,-198.22 493.63,-194.19 508.03,-190.25"/>
<polygon fill="#9a32cd" stroke="#9a32cd" points="367.36,-216.78 358.1,-221.92 368.55,-223.68 367.36,-216.78"/>
</a>
</g>
<text text-anchor="start" x="375.75" y="-254" font-family="Helvetica,sans-Serif" font-size="10.00" fill="grey"> p_all_classes_desc</text>
<text text-anchor="middle" x="419.62" y="-242.75" font-family="Helvetica,sans-Serif" font-size="10.00" fill="grey">_cache</text>
<text text-anchor="start" x="375.75" y="-231.5" font-family="Helvetica,sans-Serif" font-size="10.00" fill="grey">p_direct_classes</text>
<text text-anchor="middle" x="419.62" y="-220.25" font-family="Helvetica,sans-Serif" font-size="10.00" fill="grey">_desc_cache</text>
</g>
<!-- Node4 -->
<g id="Node000004" class="node">
<title>Node4</title>
<g id="a_Node000004"><a xlink:title=" ">
<polygon fill="white" stroke="#666666" points="149.88,-266.38 10.12,-266.38 10.12,-224.62 149.88,-224.62 149.88,-266.38"/>
<text text-anchor="start" x="18.12" y="-252.88" font-family="Helvetica,sans-Serif" font-size="10.00">std::unordered_map</text>
<text text-anchor="start" x="18.12" y="-241.62" font-family="Helvetica,sans-Serif" font-size="10.00">&lt; std::string, dunedaq</text>
<text text-anchor="middle" x="80" y="-230.38" font-family="Helvetica,sans-Serif" font-size="10.00">::oksdbinterfaces::class_t * &gt;</text>
</a>
</g>
</g>
<!-- Node4&#45;&gt;Node3 -->
<g id="edge3_Node000003_Node000004" class="edge">
<title>Node4&#45;&gt;Node3</title>
<g id="a_edge3_Node000003_Node000004"><a xlink:title=" ">
<path fill="none" stroke="#63b8ff" d="M161.64,-240.96C173.77,-240.28 186.25,-239.57 198.32,-238.89"/>
<polygon fill="#63b8ff" stroke="#63b8ff" points="161.46,-237.46 151.67,-241.52 161.85,-244.45 161.46,-237.46"/>
</a>
</g>
</g>
<!-- Node5 -->
<g id="Node000005" class="node">
<title>Node5</title>
<g id="a_Node000005"><a xlink:href="classdunedaq_1_1oksdbinterfaces_1_1fmap.html" target="_top" xlink:title=" ">
<polygon fill="white" stroke="#666666" points="340.5,-195.38 214.25,-195.38 214.25,-153.62 340.5,-153.62 340.5,-195.38"/>
<text text-anchor="start" x="222.25" y="-181.88" font-family="Helvetica,sans-Serif" font-size="10.00">dunedaq::oksdbinterfaces</text>
<text text-anchor="start" x="222.25" y="-170.62" font-family="Helvetica,sans-Serif" font-size="10.00">::fmap&lt; oksdbinterfaces</text>
<text text-anchor="middle" x="277.38" y="-159.38" font-family="Helvetica,sans-Serif" font-size="10.00">::fset &gt;</text>
</a>
</g>
</g>
<!-- Node5&#45;&gt;Node2 -->
<g id="edge4_Node000002_Node000005" class="edge">
<title>Node5&#45;&gt;Node2</title>
<g id="a_edge4_Node000002_Node000005"><a xlink:title=" ">
<path fill="none" stroke="#9a32cd" stroke-dasharray="5,2" d="M352.32,-174.5C398.06,-174.5 456.14,-174.5 499.57,-174.5"/>
<polygon fill="#9a32cd" stroke="#9a32cd" points="352.48,-171 342.48,-174.5 352.48,-178 352.48,-171"/>
</a>
</g>
<text text-anchor="middle" x="419.62" y="-187.5" font-family="Helvetica,sans-Serif" font-size="10.00" fill="grey"> p_subclasses</text>
<text text-anchor="middle" x="419.62" y="-176.25" font-family="Helvetica,sans-Serif" font-size="10.00" fill="grey">p_superclasses</text>
</g>
<!-- Node6 -->
<g id="Node000006" class="node">
<title>Node6</title>
<g id="a_Node000006"><a xlink:title=" ">
<polygon fill="white" stroke="#666666" points="137.5,-207 22.5,-207 22.5,-154 137.5,-154 137.5,-207"/>
<text text-anchor="start" x="30.5" y="-193.5" font-family="Helvetica,sans-Serif" font-size="10.00">std::unordered_map</text>
<text text-anchor="start" x="30.5" y="-182.25" font-family="Helvetica,sans-Serif" font-size="10.00">&lt; const std::string</text>
<text text-anchor="start" x="30.5" y="-171" font-family="Helvetica,sans-Serif" font-size="10.00"> *, oksdbinterfaces::</text>
<text text-anchor="middle" x="80" y="-159.75" font-family="Helvetica,sans-Serif" font-size="10.00">fset , string_ptr_hash &gt;</text>
</a>
</g>
</g>
<!-- Node6&#45;&gt;Node5 -->
<g id="edge5_Node000005_Node000006" class="edge">
<title>Node6&#45;&gt;Node5</title>
<g id="a_edge5_Node000005_Node000006"><a xlink:title=" ">
<path fill="none" stroke="#63b8ff" d="M149.23,-178.4C170.28,-177.76 193.35,-177.05 213.98,-176.42"/>
<polygon fill="#63b8ff" stroke="#63b8ff" points="149.17,-174.9 139.29,-178.71 149.39,-181.9 149.17,-174.9"/>
</a>
</g>
</g>
<!-- Node7 -->
<g id="Node000007" class="node">
<title>Node7</title>
<g id="a_Node000007"><a xlink:href="classdunedaq_1_1oksdbinterfaces_1_1map.html" target="_top" xlink:title=" ">
<polygon fill="white" stroke="#666666" points="352.5,-133 202.25,-133 202.25,-80 352.5,-80 352.5,-133"/>
<text text-anchor="start" x="210.25" y="-119.5" font-family="Helvetica,sans-Serif" font-size="10.00">dunedaq::oksdbinterfaces</text>
<text text-anchor="start" x="210.25" y="-108.25" font-family="Helvetica,sans-Serif" font-size="10.00">::map&lt; std::list&lt; dunedaq</text>
<text text-anchor="start" x="210.25" y="-97" font-family="Helvetica,sans-Serif" font-size="10.00">::oksdbinterfaces::Configuration</text>
<text text-anchor="middle" x="277.38" y="-85.75" font-family="Helvetica,sans-Serif" font-size="10.00">::AttributeConverterBase * &gt; * &gt;</text>
</a>
</g>
</g>
<!-- Node7&#45;&gt;Node2 -->
<g id="edge6_Node000002_Node000007" class="edge">
<title>Node7&#45;&gt;Node2</title>
<g id="a_edge6_Node000002_Node000007"><a xlink:title=" ">
<path fill="none" stroke="#9a32cd" stroke-dasharray="5,2" d="M364.07,-127.05C407.67,-137.5 459.71,-149.98 499.48,-159.51"/>
<polygon fill="#9a32cd" stroke="#9a32cd" points="364.91,-123.65 354.37,-124.72 363.27,-130.45 364.91,-123.65"/>
</a>
</g>
<text text-anchor="middle" x="419.62" y="-152.25" font-family="Helvetica,sans-Serif" font-size="10.00" fill="grey"> m_convert_map</text>
</g>
<!-- Node8 -->
<g id="Node000008" class="node">
<title>Node8</title>
<g id="a_Node000008"><a xlink:title=" ">
<polygon fill="white" stroke="#666666" points="160,-135.62 0,-135.62 0,-71.38 160,-71.38 160,-135.62"/>
<text text-anchor="start" x="8" y="-122.12" font-family="Helvetica,sans-Serif" font-size="10.00">std::unordered_map</text>
<text text-anchor="start" x="8" y="-110.88" font-family="Helvetica,sans-Serif" font-size="10.00">&lt; std::string, std::</text>
<text text-anchor="start" x="8" y="-99.62" font-family="Helvetica,sans-Serif" font-size="10.00">list&lt; dunedaq::oksdbinterfaces</text>
<text text-anchor="start" x="8" y="-88.38" font-family="Helvetica,sans-Serif" font-size="10.00">::Configuration::AttributeConverter</text>
<text text-anchor="middle" x="80" y="-77.12" font-family="Helvetica,sans-Serif" font-size="10.00">Base * &gt; * &gt;</text>
</a>
</g>
</g>
<!-- Node8&#45;&gt;Node7 -->
<g id="edge7_Node000007_Node000008" class="edge">
<title>Node8&#45;&gt;Node7</title>
<g id="a_edge7_Node000007_Node000008"><a xlink:title=" ">
<path fill="none" stroke="#63b8ff" d="M171.82,-104.89C181.94,-105.05 192.15,-105.21 202.02,-105.36"/>
<polygon fill="#63b8ff" stroke="#63b8ff" points="172.03,-101.4 161.98,-104.74 171.92,-108.4 172.03,-101.4"/>
</a>
</g>
</g>
<!-- Node9 -->
<g id="Node000009" class="node">
<title>Node9</title>
<g id="a_Node000009"><a xlink:href="classdunedaq_1_1oksdbinterfaces_1_1fmap.html" target="_top" xlink:title=" ">
<polygon fill="white" stroke="#666666" points="357.75,-56.38 197,-56.38 197,-14.62 357.75,-14.62 357.75,-56.38"/>
<text text-anchor="start" x="205" y="-42.88" font-family="Helvetica,sans-Serif" font-size="10.00">dunedaq::oksdbinterfaces</text>
<text text-anchor="start" x="205" y="-31.62" font-family="Helvetica,sans-Serif" font-size="10.00">::fmap&lt; dunedaq::oksdbinterfaces</text>
<text text-anchor="middle" x="277.38" y="-20.38" font-family="Helvetica,sans-Serif" font-size="10.00">::CacheBase * &gt;</text>
</a>
</g>
</g>
<!-- Node9&#45;&gt;Node2 -->
<g id="edge8_Node000002_Node000009" class="edge">
<title>Node9&#45;&gt;Node2</title>
<g id="a_edge8_Node000002_Node000009"><a xlink:title=" ">
<path fill="none" stroke="#9a32cd" stroke-dasharray="5,2" d="M344.75,-60.98C380.52,-75.39 425.06,-94.46 463.5,-114.25 490.05,-127.93 519.07,-146.09 538.68,-158.89"/>
<polygon fill="#9a32cd" stroke="#9a32cd" points="346.42,-57.88 335.84,-57.41 343.82,-64.38 346.42,-57.88"/>
</a>
</g>
<text text-anchor="middle" x="419.62" y="-115.25" font-family="Helvetica,sans-Serif" font-size="10.00" fill="grey"> m_cache_map</text>
</g>
<!-- Node10 -->
<g id="Node000010" class="node">
<title>Node10</title>
<g id="a_Node000010"><a xlink:title=" ">
<polygon fill="white" stroke="#666666" points="158.5,-53 1.5,-53 1.5,0 158.5,0 158.5,-53"/>
<text text-anchor="start" x="9.5" y="-39.5" font-family="Helvetica,sans-Serif" font-size="10.00">std::unordered_map</text>
<text text-anchor="start" x="9.5" y="-28.25" font-family="Helvetica,sans-Serif" font-size="10.00">&lt; const std::string</text>
<text text-anchor="start" x="9.5" y="-17" font-family="Helvetica,sans-Serif" font-size="10.00"> *, dunedaq::oksdbinterfaces</text>
<text text-anchor="middle" x="80" y="-5.75" font-family="Helvetica,sans-Serif" font-size="10.00">::CacheBase *, string_ptr_hash &gt;</text>
</a>
</g>
</g>
<!-- Node10&#45;&gt;Node9 -->
<g id="edge9_Node000009_Node000010" class="edge">
<title>Node10&#45;&gt;Node9</title>
<g id="a_edge9_Node000009_Node000010"><a xlink:title=" ">
<path fill="none" stroke="#63b8ff" d="M170.26,-30.61C179.05,-31.02 187.94,-31.43 196.63,-31.83"/>
<polygon fill="#63b8ff" stroke="#63b8ff" points="170.44,-27.12 160.29,-30.15 170.12,-34.11 170.44,-27.12"/>
</a>
</g>
</g>
<!-- Node11&#45;&gt;Node2 -->
<g id="edge10_Node000002_Node000011" class="edge">
<title>Node11&#45;&gt;Node2</title>
<g id="a_edge10_Node000002_Node000011"><a xlink:title=" ">
<path fill="none" stroke="#9a32cd" stroke-dasharray="5,2" d="M774.94,-205.68C761.65,-200.57 746.93,-195.58 733,-192.25 698.28,-183.96 658.62,-179.54 626.46,-177.19"/>
<polygon fill="#9a32cd" stroke="#9a32cd" points="773.26,-208.78 783.84,-209.22 775.84,-202.27 773.26,-208.78"/>
</a>
</g>
<text text-anchor="middle" x="697.75" y="-193.25" font-family="Helvetica,sans-Serif" font-size="10.00" fill="grey"> m_impl</text>
</g>
<!-- Node12 -->
<g id="Node000012" class="node">
<title>Node12</title>
<g id="a_Node000012"><a xlink:href="classdunedaq_1_1oksdbinterfaces_1_1pmap.html" target="_top" xlink:title=" ">
<polygon fill="white" stroke="#666666" points="644.5,-325 481.5,-325 481.5,-272 644.5,-272 644.5,-325"/>
<text text-anchor="start" x="489.5" y="-311.5" font-family="Helvetica,sans-Serif" font-size="10.00">dunedaq::oksdbinterfaces</text>
<text text-anchor="start" x="489.5" y="-300.25" font-family="Helvetica,sans-Serif" font-size="10.00">::pmap&lt; dunedaq::oksdbinterfaces</text>
<text text-anchor="start" x="489.5" y="-289" font-family="Helvetica,sans-Serif" font-size="10.00">::map&lt; dunedaq::oksdbinterfaces</text>
<text text-anchor="middle" x="563" y="-277.75" font-family="Helvetica,sans-Serif" font-size="10.00">::ConfigObjectImpl * &gt; * &gt;</text>
</a>
</g>
</g>
<!-- Node12&#45;&gt;Node11 -->
<g id="edge11_Node000011_Node000012" class="edge">
<title>Node12&#45;&gt;Node11</title>
<g id="a_edge11_Node000011_Node000012"><a xlink:title=" ">
<path fill="none" stroke="#9a32cd" stroke-dasharray="5,2" d="M655.44,-272.45C692.08,-262.01 733.1,-250.33 765.05,-241.23"/>
<polygon fill="#9a32cd" stroke="#9a32cd" points="654.84,-268.98 646.18,-275.09 656.76,-275.71 654.84,-268.98"/>
</a>
</g>
<text text-anchor="middle" x="697.75" y="-270.25" font-family="Helvetica,sans-Serif" font-size="10.00" fill="grey"> m_impl_objects</text>
</g>
<!-- Node13 -->
<g id="Node000013" class="node">
<title>Node13</title>
<g id="a_Node000013"><a xlink:title=" ">
<polygon fill="white" stroke="#666666" points="344.62,-349.25 210.12,-349.25 210.12,-273.75 344.62,-273.75 344.62,-349.25"/>
<text text-anchor="start" x="218.12" y="-335.75" font-family="Helvetica,sans-Serif" font-size="10.00">std::map&lt; const std</text>
<text text-anchor="start" x="218.12" y="-324.5" font-family="Helvetica,sans-Serif" font-size="10.00">::string *, dunedaq</text>
<text text-anchor="start" x="218.12" y="-313.25" font-family="Helvetica,sans-Serif" font-size="10.00">::oksdbinterfaces::map</text>
<text text-anchor="start" x="218.12" y="-302" font-family="Helvetica,sans-Serif" font-size="10.00">&lt; dunedaq::oksdbinterfaces</text>
<text text-anchor="start" x="218.12" y="-290.75" font-family="Helvetica,sans-Serif" font-size="10.00">::ConfigObjectImpl * &gt; * ,</text>
<text text-anchor="middle" x="277.38" y="-279.5" font-family="Helvetica,sans-Serif" font-size="10.00"> string_ptr_compare &gt;</text>
</a>
</g>
</g>
<!-- Node13&#45;&gt;Node12 -->
<g id="edge12_Node000012_Node000013" class="edge">
<title>Node13&#45;&gt;Node12</title>
<g id="a_edge12_Node000012_Node000013"><a xlink:title=" ">
<path fill="none" stroke="#63b8ff" d="M356.13,-307.94C394.99,-306.15 441.99,-304 481.26,-302.2"/>
<polygon fill="#63b8ff" stroke="#63b8ff" points="356.21,-304.43 346.38,-308.38 356.53,-311.42 356.21,-304.43"/>
</a>
</g>
</g>
</g>
</svg>
