<?xml version="1.0" encoding="UTF-8" standalone="no"?>
<!DOCTYPE svg PUBLIC "-//W3C//DTD SVG 1.1//EN"
 "http://www.w3.org/Graphics/SVG/1.1/DTD/svg11.dtd">
<!-- Generated by graphviz version 9.0.0 (20230911.1827)
 -->
<!-- Title: dbse::SchemaGraphicObject Pages: 1 -->
<svg width="658pt" height="595pt"
 viewBox="0.00 0.00 657.88 595.00" xmlns="http://www.w3.org/2000/svg" xmlns:xlink="http://www.w3.org/1999/xlink">
<g id="graph0" class="graph" transform="scale(1 1) rotate(0) translate(4 591)">
<title>dbse::SchemaGraphicObject</title>
<!-- Node1 -->
<g id="Node000001" class="node">
<title>Node1</title>
<g id="a_Node000001"><a xlink:title=" ">
<polygon fill="#999999" stroke="#666666" points="139.75,-347.12 0,-347.12 0,-327.88 139.75,-327.88 139.75,-347.12"/>
<text text-anchor="middle" x="69.88" y="-333.62" font-family="Helvetica,sans-Serif" font-size="10.00">dbse::SchemaGraphicObject</text>
</a>
</g>
</g>
<!-- Node2 -->
<g id="Node000002" class="node">
<title>Node2</title>
<g id="a_Node000002"><a xlink:title=" ">
<polygon fill="white" stroke="#666666" points="115.38,-441.75 24.38,-441.75 24.38,-422.5 115.38,-422.5 115.38,-441.75"/>
<text text-anchor="middle" x="69.88" y="-428.25" font-family="Helvetica,sans-Serif" font-size="10.00">QGraphicsObject</text>
</a>
</g>
</g>
<!-- Node2&#45;&gt;Node1 -->
<g id="edge1_Node000001_Node000002" class="edge">
<title>Node2&#45;&gt;Node1</title>
<g id="a_edge1_Node000001_Node000002"><a xlink:title=" ">
<path fill="none" stroke="#63b8ff" d="M69.88,-410.87C69.88,-391.14 69.88,-362.05 69.88,-347.49"/>
<polygon fill="#63b8ff" stroke="#63b8ff" points="66.38,-410.73 69.88,-420.73 73.38,-410.73 66.38,-410.73"/>
</a>
</g>
</g>
<!-- Node3 -->
<g id="Node000003" class="node">
<title>Node3</title>
<g id="a_Node000003"><a xlink:href="classdunedaq_1_1oks_1_1OksClass.html" target="_top" xlink:title="The OKS class.">
<polygon fill="white" stroke="#666666" points="385,-441.75 264.75,-441.75 264.75,-422.5 385,-422.5 385,-441.75"/>
<text text-anchor="middle" x="324.88" y="-428.25" font-family="Helvetica,sans-Serif" font-size="10.00">dunedaq::oks::OksClass</text>
</a>
</g>
</g>
<!-- Node3&#45;&gt;Node1 -->
<g id="edge2_Node000001_Node000003" class="edge">
<title>Node3&#45;&gt;Node1</title>
<g id="a_edge2_Node000001_Node000003"><a xlink:title=" ">
<path fill="none" stroke="#9a32cd" stroke-dasharray="5,2" d="M252.89,-428.82C199.97,-425.91 133.41,-419.33 110.38,-404.5 99.52,-397.51 82.17,-363.88 74.17,-347.5"/>
<polygon fill="#9a32cd" stroke="#9a32cd" points="252.63,-432.31 262.79,-429.32 252.98,-425.32 252.63,-432.31"/>
</a>
</g>
<text text-anchor="middle" x="132.62" y="-383.75" font-family="Helvetica,sans-Serif" font-size="10.00" fill="grey"> ClassInfo</text>
</g>
<!-- Node11 -->
<g id="Node000011" class="node">
<title>Node11</title>
<g id="a_Node000011"><a xlink:href="uniondunedaq_1_1oks_1_1OksData_1_1Data.html" target="_top" xlink:title=" ">
<polygon fill="white" stroke="#666666" points="561.75,-352.75 446,-352.75 446,-322.25 561.75,-322.25 561.75,-352.75"/>
<text text-anchor="start" x="454" y="-339.25" font-family="Helvetica,sans-Serif" font-size="10.00">dunedaq::oks::OksData</text>
<text text-anchor="middle" x="503.88" y="-328" font-family="Helvetica,sans-Serif" font-size="10.00">::Data</text>
</a>
</g>
</g>
<!-- Node3&#45;&gt;Node11 -->
<g id="edge13_Node000011_Node000003" class="edge">
<title>Node3&#45;&gt;Node11</title>
<g id="a_edge13_Node000011_Node000003"><a xlink:title=" ">
<path fill="none" stroke="#9a32cd" stroke-dasharray="5,2" d="M352.35,-416.91C385.71,-399.64 441.71,-370.67 475.49,-353.19"/>
<polygon fill="#9a32cd" stroke="#9a32cd" points="350.98,-413.68 343.71,-421.38 354.2,-419.89 350.98,-413.68"/>
</a>
</g>
<text text-anchor="middle" x="457.88" y="-389.38" font-family="Helvetica,sans-Serif" font-size="10.00" fill="grey"> CLASS</text>
<text text-anchor="middle" x="457.88" y="-378.12" font-family="Helvetica,sans-Serif" font-size="10.00" fill="grey">class_id</text>
</g>
<!-- Node4 -->
<g id="Node000004" class="node">
<title>Node4</title>
<g id="a_Node000004"><a xlink:href="classdunedaq_1_1oks_1_1OksFile.html" target="_top" xlink:title="Provides interface to the OKS XML schema and data files.">
<polygon fill="white" stroke="#666666" points="430.5,-19.25 319.25,-19.25 319.25,0 430.5,0 430.5,-19.25"/>
<text text-anchor="middle" x="374.88" y="-5.75" font-family="Helvetica,sans-Serif" font-size="10.00">dunedaq::oks::OksFile</text>
</a>
</g>
</g>
<!-- Node4&#45;&gt;Node3 -->
<g id="edge3_Node000003_Node000004" class="edge">
<title>Node4&#45;&gt;Node3</title>
<g id="a_edge3_Node000003_Node000004"><a xlink:title=" ">
<path fill="none" stroke="#9a32cd" stroke-dasharray="5,2" d="M308.35,-21.88C247.82,-34.07 167.88,-55.93 167.88,-86.38 167.88,-338.5 167.88,-338.5 167.88,-338.5 167.88,-387.39 225.06,-411.01 270.4,-422.05"/>
<polygon fill="#9a32cd" stroke="#9a32cd" points="308.78,-25.37 317.92,-20.01 307.43,-18.5 308.78,-25.37"/>
</a>
</g>
<text text-anchor="middle" x="180.25" y="-228.25" font-family="Helvetica,sans-Serif" font-size="10.00" fill="grey"> p_file</text>
</g>
<!-- Node4&#45;&gt;Node4 -->
<g id="edge4_Node000004_Node000004" class="edge">
<title>Node4&#45;&gt;Node4</title>
<g id="a_edge4_Node000004_Node000004"><a xlink:title=" ">
<path fill="none" stroke="#9a32cd" stroke-dasharray="5,2" d="M441.96,-14.69C446.05,-13.48 448.5,-11.8 448.5,-9.62 448.5,-5.87 441.16,-3.56 430.74,-2.71"/>
<polygon fill="#9a32cd" stroke="#9a32cd" points="441.53,-11.21 432.23,-16.29 442.67,-18.12 441.53,-11.21"/>
</a>
</g>
<text text-anchor="middle" x="480.38" y="-5.75" font-family="Helvetica,sans-Serif" font-size="10.00" fill="grey"> p_included_by</text>
</g>
<!-- Node5 -->
<g id="Node000005" class="node">
<title>Node5</title>
<g id="a_Node000005"><a xlink:href="classdunedaq_1_1oks_1_1OksKernel.html" target="_top" xlink:title="Provides interface to the OKS kernel.">
<polygon fill="white" stroke="#666666" points="436.5,-97 313.25,-97 313.25,-77.75 436.5,-77.75 436.5,-97"/>
<text text-anchor="middle" x="374.88" y="-83.5" font-family="Helvetica,sans-Serif" font-size="10.00">dunedaq::oks::OksKernel</text>
</a>
</g>
</g>
<!-- Node4&#45;&gt;Node5 -->
<g id="edge6_Node000005_Node000004" class="edge">
<title>Node4&#45;&gt;Node5</title>
<g id="a_edge6_Node000005_Node000004"><a xlink:title=" ">
<path fill="none" stroke="#9a32cd" stroke-dasharray="5,2" d="M382.29,-30.22C382.94,-32.56 383.49,-34.94 383.88,-37.25 385.5,-47.12 385.5,-49.88 383.88,-59.75 382.86,-65.91 380.61,-72.57 378.61,-77.68"/>
<polygon fill="#9a32cd" stroke="#9a32cd" points="385.61,-29.11 379.1,-20.75 378.98,-31.34 385.61,-29.11"/>
</a>
</g>
<text text-anchor="middle" x="424.12" y="-50.25" font-family="Helvetica,sans-Serif" font-size="10.00" fill="grey"> p_active_data</text>
<text text-anchor="middle" x="424.12" y="-39" font-family="Helvetica,sans-Serif" font-size="10.00" fill="grey">p_active_schema</text>
</g>
<!-- Node8 -->
<g id="Node000008" class="node">
<title>Node8</title>
<g id="a_Node000008"><a xlink:href="classdunedaq_1_1oks_1_1OksObject.html" target="_top" xlink:title="OksObject describes instance of OksClass.">
<polygon fill="white" stroke="#666666" points="643.88,-208.5 519.88,-208.5 519.88,-189.25 643.88,-189.25 643.88,-208.5"/>
<text text-anchor="middle" x="581.88" y="-195" font-family="Helvetica,sans-Serif" font-size="10.00">dunedaq::oks::OksObject</text>
</a>
</g>
</g>
<!-- Node4&#45;&gt;Node8 -->
<g id="edge18_Node000008_Node000004" class="edge">
<title>Node4&#45;&gt;Node8</title>
<g id="a_edge18_Node000008_Node000004"><a xlink:title=" ">
<path fill="none" stroke="#9a32cd" stroke-dasharray="5,2" d="M426.91,-22.86C472.96,-36.73 537.43,-64.32 567.88,-115 582.15,-138.76 582.95,-172.9 582.41,-188.93"/>
<polygon fill="#9a32cd" stroke="#9a32cd" points="427.96,-19.52 417.38,-20.12 426.03,-26.24 427.96,-19.52"/>
</a>
</g>
<text text-anchor="middle" x="561" y="-83.5" font-family="Helvetica,sans-Serif" font-size="10.00" fill="grey"> file</text>
</g>
<!-- Node5&#45;&gt;Node3 -->
<g id="edge19_Node000003_Node000005" class="edge">
<title>Node5&#45;&gt;Node3</title>
<g id="a_edge19_Node000003_Node000005"><a xlink:title=" ">
<path fill="none" stroke="#9a32cd" stroke-dasharray="5,2" d="M367.01,-107.95C359.04,-129.59 347.88,-165.64 347.88,-197.88 347.88,-338.5 347.88,-338.5 347.88,-338.5 347.88,-369.98 335.21,-405.75 328.67,-422.11"/>
<polygon fill="#9a32cd" stroke="#9a32cd" points="370.25,-109.28 370.58,-98.69 363.72,-106.76 370.25,-109.28"/>
</a>
</g>
<text text-anchor="middle" x="367.38" y="-261.5" font-family="Helvetica,sans-Serif" font-size="10.00" fill="grey"> p_kernel</text>
</g>
<!-- Node5&#45;&gt;Node4 -->
<g id="edge5_Node000004_Node000005" class="edge">
<title>Node5&#45;&gt;Node4</title>
<g id="a_edge5_Node000004_Node000005"><a xlink:title=" ">
<path fill="none" stroke="#9a32cd" stroke-dasharray="5,2" d="M351.73,-69.8C348.96,-66.79 346.52,-63.42 344.88,-59.75 340.77,-50.63 340.77,-46.37 344.88,-37.25 348.07,-30.14 354.21,-24.15 360.11,-19.67"/>
<polygon fill="#9a32cd" stroke="#9a32cd" points="349.21,-72.24 358.99,-76.32 353.89,-67.03 349.21,-72.24"/>
</a>
</g>
<text text-anchor="middle" x="364.38" y="-44.62" font-family="Helvetica,sans-Serif" font-size="10.00" fill="grey"> p_kernel</text>
</g>
<!-- Node6 -->
<g id="Node000006" class="node">
<title>Node6</title>
<g id="a_Node000006"><a xlink:href="classdunedaq_1_1oks_1_1OksProfiler.html" target="_top" xlink:title=" ">
<polygon fill="white" stroke="#666666" points="501.62,-208.5 376.12,-208.5 376.12,-189.25 501.62,-189.25 501.62,-208.5"/>
<text text-anchor="middle" x="438.88" y="-195" font-family="Helvetica,sans-Serif" font-size="10.00">dunedaq::oks::OksProfiler</text>
</a>
</g>
</g>
<!-- Node6&#45;&gt;Node5 -->
<g id="edge7_Node000005_Node000006" class="edge">
<title>Node6&#45;&gt;Node5</title>
<g id="a_edge7_Node000005_Node000006"><a xlink:title=" ">
<path fill="none" stroke="#9a32cd" stroke-dasharray="5,2" d="M414.4,-182.07C410.6,-178.83 406.99,-175.19 404.12,-171.25 387.09,-147.79 379.23,-113.5 376.31,-97.38"/>
<polygon fill="#9a32cd" stroke="#9a32cd" points="412.07,-184.7 422.15,-187.94 416.3,-179.12 412.07,-184.7"/>
</a>
</g>
<text text-anchor="middle" x="419.25" y="-139.25" font-family="Helvetica,sans-Serif" font-size="10.00" fill="grey"> profiler</text>
</g>
<!-- Node7 -->
<g id="Node000007" class="node">
<title>Node7</title>
<g id="a_Node000007"><a xlink:href="structdunedaq_1_1oks_1_1LoadErrors.html" target="_top" xlink:title=" ">
<polygon fill="white" stroke="#666666" points="320.25,-208.5 195.5,-208.5 195.5,-189.25 320.25,-189.25 320.25,-208.5"/>
<text text-anchor="middle" x="257.88" y="-195" font-family="Helvetica,sans-Serif" font-size="10.00">dunedaq::oks::LoadErrors</text>
</a>
</g>
</g>
<!-- Node7&#45;&gt;Node5 -->
<g id="edge8_Node000005_Node000007" class="edge">
<title>Node7&#45;&gt;Node5</title>
<g id="a_edge8_Node000005_Node000007"><a xlink:title=" ">
<path fill="none" stroke="#9a32cd" stroke-dasharray="5,2" d="M255.93,-177.47C255.33,-158.84 257.59,-131.72 273.12,-115 283.56,-103.76 298.11,-97.03 312.94,-93.06"/>
<polygon fill="#9a32cd" stroke="#9a32cd" points="252.42,-177.53 256.57,-187.27 259.41,-177.07 252.42,-177.53"/>
</a>
</g>
<text text-anchor="middle" x="304.25" y="-139.25" font-family="Helvetica,sans-Serif" font-size="10.00" fill="grey"> p_load_errors</text>
</g>
<!-- Node8&#45;&gt;Node5 -->
<g id="edge9_Node000005_Node000008" class="edge">
<title>Node8&#45;&gt;Node5</title>
<g id="a_edge9_Node000005_Node000008"><a xlink:title=" ">
<path fill="none" stroke="#9a32cd" stroke-dasharray="5,2" d="M508.3,-188.02C486.38,-183.83 465.97,-178.26 457.62,-171.25 436.98,-153.9 453.62,-134.38 434.88,-115 427.35,-107.22 417.14,-101.55 407.29,-97.49"/>
<polygon fill="#9a32cd" stroke="#9a32cd" points="507.54,-191.44 518,-189.76 508.78,-184.55 507.54,-191.44"/>
</a>
</g>
<text text-anchor="start" x="456.88" y="-161.75" font-family="Helvetica,sans-Serif" font-size="10.00" fill="grey"> p_change_object_notify</text>
<text text-anchor="middle" x="512" y="-150.5" font-family="Helvetica,sans-Serif" font-size="10.00" fill="grey">_fn</text>
<text text-anchor="start" x="456.88" y="-139.25" font-family="Helvetica,sans-Serif" font-size="10.00" fill="grey">p_create_object_notify</text>
<text text-anchor="middle" x="512" y="-128" font-family="Helvetica,sans-Serif" font-size="10.00" fill="grey">_fn</text>
<text text-anchor="middle" x="512" y="-116.75" font-family="Helvetica,sans-Serif" font-size="10.00" fill="grey">p_delete_object_notify_fn</text>
</g>
<!-- Node8&#45;&gt;Node11 -->
<g id="edge14_Node000011_Node000008" class="edge">
<title>Node8&#45;&gt;Node11</title>
<g id="a_edge14_Node000011_Node000008"><a xlink:title=" ">
<path fill="none" stroke="#9a32cd" stroke-dasharray="5,2" d="M515.57,-212.22C491.14,-220.33 465.92,-233.71 451.38,-255.75 436.18,-278.78 462.38,-305.67 482.93,-321.87"/>
<polygon fill="#9a32cd" stroke="#9a32cd" points="516.32,-215.65 524.87,-209.4 514.29,-208.95 516.32,-215.65"/>
</a>
</g>
<text text-anchor="middle" x="471.12" y="-261.5" font-family="Helvetica,sans-Serif" font-size="10.00" fill="grey"> OBJECT</text>
</g>
<!-- Node9 -->
<g id="Node000009" class="node">
<title>Node9</title>
<g id="a_Node000009"><a xlink:title=" ">
<polygon fill="white" stroke="#666666" points="644.25,-441.75 603.5,-441.75 603.5,-422.5 644.25,-422.5 644.25,-441.75"/>
<text text-anchor="middle" x="623.88" y="-428.25" font-family="Helvetica,sans-Serif" font-size="10.00">struct</text>
</a>
</g>
</g>
<!-- Node9&#45;&gt;Node8 -->
<g id="edge10_Node000008_Node000009" class="edge">
<title>Node9&#45;&gt;Node8</title>
<g id="a_edge10_Node000008_Node000009"><a xlink:title=" ">
<path fill="none" stroke="#9a32cd" stroke-dasharray="5,2" d="M628.38,-411.08C634.94,-377.75 644.44,-309.32 625.88,-255.75 619.25,-236.62 603.05,-219.07 592.27,-208.92"/>
<polygon fill="#9a32cd" stroke="#9a32cd" points="625.02,-410.04 626.39,-420.54 631.87,-411.48 625.02,-410.04"/>
</a>
</g>
<text text-anchor="middle" x="642.38" y="-294.75" font-family="Helvetica,sans-Serif" font-size="10.00" fill="grey"> uid</text>
</g>
<!-- Node9&#45;&gt;Node11 -->
<g id="edge17_Node000011_Node000009" class="edge">
<title>Node9&#45;&gt;Node11</title>
<g id="a_edge17_Node000011_Node000009"><a xlink:title=" ">
<path fill="none" stroke="#9a32cd" stroke-dasharray="5,2" d="M604.33,-415.26C589.08,-402.96 567.29,-385.57 547.88,-370.75 540.2,-364.89 531.65,-358.58 524.15,-353.11"/>
<polygon fill="#9a32cd" stroke="#9a32cd" points="601.75,-417.67 611.73,-421.24 606.15,-412.23 601.75,-417.67"/>
</a>
</g>
<text text-anchor="middle" x="600.12" y="-389.38" font-family="Helvetica,sans-Serif" font-size="10.00" fill="grey"> UID</text>
<text text-anchor="middle" x="600.12" y="-378.12" font-family="Helvetica,sans-Serif" font-size="10.00" fill="grey">UID2</text>
</g>
<!-- Node10 -->
<g id="Node000010" class="node">
<title>Node10</title>
<g id="a_Node000010"><a xlink:href="structdunedaq_1_1oks_1_1OksData.html" target="_top" xlink:title="the structure to pass common parameters to various read() methods of OksData and OksObject class">
<polygon fill="white" stroke="#666666" points="616.75,-275 501,-275 501,-255.75 616.75,-255.75 616.75,-275"/>
<text text-anchor="middle" x="558.88" y="-261.5" font-family="Helvetica,sans-Serif" font-size="10.00">dunedaq::oks::OksData</text>
</a>
</g>
</g>
<!-- Node10&#45;&gt;Node8 -->
<g id="edge11_Node000008_Node000010" class="edge">
<title>Node10&#45;&gt;Node8</title>
<g id="a_edge11_Node000008_Node000010"><a xlink:title=" ">
<path fill="none" stroke="#9a32cd" stroke-dasharray="5,2" d="M565.91,-244.65C570.18,-232.68 575.42,-217.98 578.7,-208.77"/>
<polygon fill="#9a32cd" stroke="#9a32cd" points="562.64,-243.39 562.58,-253.98 569.24,-245.74 562.64,-243.39"/>
</a>
</g>
<text text-anchor="middle" x="581.38" y="-228.25" font-family="Helvetica,sans-Serif" font-size="10.00" fill="grey"> data</text>
</g>
<!-- Node11&#45;&gt;Node10 -->
<g id="edge12_Node000010_Node000011" class="edge">
<title>Node11&#45;&gt;Node10</title>
<g id="a_edge12_Node000010_Node000011"><a xlink:title=" ">
<path fill="none" stroke="#9a32cd" stroke-dasharray="5,2" d="M522.28,-313.03C532.5,-300.01 544.6,-284.57 552.01,-275.13"/>
<polygon fill="#9a32cd" stroke="#9a32cd" points="519.62,-310.75 516.21,-320.78 525.13,-315.07 519.62,-310.75"/>
</a>
</g>
<text text-anchor="middle" x="548.38" y="-294.75" font-family="Helvetica,sans-Serif" font-size="10.00" fill="grey"> data</text>
</g>
<!-- Node12 -->
<g id="Node000012" class="node">
<title>Node12</title>
<g id="a_Node000012"><a xlink:href="classdunedaq_1_1oks_1_1OksString.html" target="_top" xlink:title="Class OKS string.">
<polygon fill="white" stroke="#666666" points="564.38,-441.75 443.38,-441.75 443.38,-422.5 564.38,-422.5 564.38,-441.75"/>
<text text-anchor="middle" x="503.88" y="-428.25" font-family="Helvetica,sans-Serif" font-size="10.00">dunedaq::oks::OksString</text>
</a>
</g>
</g>
<!-- Node12&#45;&gt;Node11 -->
<g id="edge15_Node000011_Node000012" class="edge">
<title>Node12&#45;&gt;Node11</title>
<g id="a_edge15_Node000011_Node000012"><a xlink:title=" ">
<path fill="none" stroke="#9a32cd" stroke-dasharray="5,2" d="M503.88,-410.79C503.88,-393.28 503.88,-368.45 503.88,-352.92"/>
<polygon fill="#9a32cd" stroke="#9a32cd" points="500.38,-410.73 503.88,-420.73 507.38,-410.73 500.38,-410.73"/>
</a>
</g>
<text text-anchor="middle" x="523.75" y="-395" font-family="Helvetica,sans-Serif" font-size="10.00" fill="grey"> STRING</text>
<text text-anchor="middle" x="523.75" y="-383.75" font-family="Helvetica,sans-Serif" font-size="10.00" fill="grey">class_id</text>
<text text-anchor="middle" x="523.75" y="-372.5" font-family="Helvetica,sans-Serif" font-size="10.00" fill="grey">object_id</text>
</g>
<!-- Node13 -->
<g id="Node000013" class="node">
<title>Node13</title>
<g id="a_Node000013"><a xlink:title=" ">
<polygon fill="white" stroke="#666666" points="532.88,-513.88 474.88,-513.88 474.88,-494.62 532.88,-494.62 532.88,-513.88"/>
<text text-anchor="middle" x="503.88" y="-500.38" font-family="Helvetica,sans-Serif" font-size="10.00">std::string</text>
</a>
</g>
</g>
<!-- Node13&#45;&gt;Node12 -->
<g id="edge16_Node000012_Node000013" class="edge">
<title>Node13&#45;&gt;Node12</title>
<g id="a_edge16_Node000012_Node000013"><a xlink:title=" ">
<path fill="none" stroke="#63b8ff" d="M503.88,-482.87C503.88,-469.39 503.88,-452.39 503.88,-442.16"/>
<polygon fill="#63b8ff" stroke="#63b8ff" points="500.38,-482.86 503.88,-492.86 507.38,-482.86 500.38,-482.86"/>
</a>
</g>
</g>
<!-- Node14 -->
<g id="Node000014" class="node">
<title>Node14</title>
<g id="a_Node000014"><a xlink:href="classdunedaq_1_1oksdbinterfaces_1_1map.html" target="_top" xlink:title=" ">
<polygon fill="white" stroke="#666666" points="388,-519.5 261.75,-519.5 261.75,-489 388,-489 388,-519.5"/>
<text text-anchor="start" x="269.75" y="-506" font-family="Helvetica,sans-Serif" font-size="10.00">dunedaq::oksdbinterfaces</text>
<text text-anchor="middle" x="324.88" y="-494.75" font-family="Helvetica,sans-Serif" font-size="10.00">::map&lt; T &gt;</text>
</a>
</g>
</g>
<!-- Node14&#45;&gt;Node3 -->
<g id="edge20_Node000003_Node000014" class="edge">
<title>Node14&#45;&gt;Node3</title>
<g id="a_edge20_Node000003_Node000014"><a xlink:title=" ">
<path fill="none" stroke="#9a32cd" stroke-dasharray="5,2" d="M324.88,-477.48C324.88,-464.98 324.88,-450.77 324.88,-441.88"/>
<polygon fill="#9a32cd" stroke="#9a32cd" points="321.38,-477.21 324.88,-487.21 328.38,-477.21 321.38,-477.21"/>
</a>
</g>
<text text-anchor="middle" x="351.12" y="-461.5" font-family="Helvetica,sans-Serif" font-size="10.00" fill="grey"> p_data_info</text>
</g>
<!-- Node15 -->
<g id="Node000015" class="node">
<title>Node15</title>
<g id="a_Node000015"><a xlink:title=" ">
<polygon fill="white" stroke="#666666" points="375.25,-587 274.5,-587 274.5,-556.5 375.25,-556.5 375.25,-587"/>
<text text-anchor="start" x="282.5" y="-573.5" font-family="Helvetica,sans-Serif" font-size="10.00">std::unordered_map</text>
<text text-anchor="middle" x="324.88" y="-562.25" font-family="Helvetica,sans-Serif" font-size="10.00">&lt; std::string, T &gt;</text>
</a>
</g>
</g>
<!-- Node15&#45;&gt;Node14 -->
<g id="edge21_Node000014_Node000015" class="edge">
<title>Node15&#45;&gt;Node14</title>
<g id="a_edge21_Node000014_Node000015"><a xlink:title=" ">
<path fill="none" stroke="#63b8ff" d="M324.88,-544.84C324.88,-536.3 324.88,-527.12 324.88,-519.75"/>
<polygon fill="#63b8ff" stroke="#63b8ff" points="321.38,-544.7 324.88,-554.7 328.38,-544.7 321.38,-544.7"/>
</a>
</g>
</g>
</g>
</svg>
