<?xml version="1.0" encoding="UTF-8" standalone="no"?>
<!DOCTYPE svg PUBLIC "-//W3C//DTD SVG 1.1//EN"
 "http://www.w3.org/Graphics/SVG/1.1/DTD/svg11.dtd">
<!-- Generated by graphviz version 9.0.0 (20230911.1827)
 -->
<!-- Title: dbse::CustomRelationshipModel Pages: 1 -->
<svg width="1580pt" height="319pt"
 viewBox="0.00 0.00 1580.00 319.25" xmlns="http://www.w3.org/2000/svg" xmlns:xlink="http://www.w3.org/1999/xlink">
<g id="graph0" class="graph" transform="scale(1 1) rotate(0) translate(4 315.25)">
<title>dbse::CustomRelationshipModel</title>
<!-- Node1 -->
<g id="Node000001" class="node">
<title>Node1</title>
<g id="a_Node000001"><a xlink:title=" ">
<polygon fill="#999999" stroke="#666666" points="719.75,-308.88 591.25,-308.88 591.25,-278.38 719.75,-278.38 719.75,-308.88"/>
<text text-anchor="start" x="599.25" y="-295.38" font-family="Helvetica,sans-Serif" font-size="10.00">dbse::CustomRelationship</text>
<text text-anchor="middle" x="655.5" y="-284.12" font-family="Helvetica,sans-Serif" font-size="10.00">Model</text>
</a>
</g>
</g>
<!-- Node2 -->
<g id="Node000002" class="node">
<title>Node2</title>
<g id="a_Node000002"><a xlink:href="classdbse_1_1CustomModelInterface.html" target="_top" xlink:title=" ">
<polygon fill="white" stroke="#666666" points="492.25,-311.25 352.5,-311.25 352.5,-292 492.25,-292 492.25,-311.25"/>
<text text-anchor="middle" x="422.38" y="-297.75" font-family="Helvetica,sans-Serif" font-size="10.00">dbse::CustomModelInterface</text>
</a>
</g>
</g>
<!-- Node2&#45;&gt;Node1 -->
<g id="edge1_Node000001_Node000002" class="edge">
<title>Node2&#45;&gt;Node1</title>
<g id="a_edge1_Node000001_Node000002"><a xlink:title=" ">
<path fill="none" stroke="#63b8ff" d="M503.91,-298.84C532.47,-297.85 564.19,-296.75 591.12,-295.82"/>
<polygon fill="#63b8ff" stroke="#63b8ff" points="504.11,-295.33 494.23,-299.17 504.35,-302.32 504.11,-295.33"/>
</a>
</g>
</g>
<!-- Node3 -->
<g id="Node000003" class="node">
<title>Node3</title>
<g id="a_Node000003"><a xlink:title=" ">
<polygon fill="white" stroke="#666666" points="256.12,-311.25 145.62,-311.25 145.62,-292 256.12,-292 256.12,-311.25"/>
<text text-anchor="middle" x="200.88" y="-297.75" font-family="Helvetica,sans-Serif" font-size="10.00">QAbstractTableModel</text>
</a>
</g>
</g>
<!-- Node3&#45;&gt;Node2 -->
<g id="edge2_Node000002_Node000003" class="edge">
<title>Node3&#45;&gt;Node2</title>
<g id="a_edge2_Node000002_Node000003"><a xlink:title=" ">
<path fill="none" stroke="#63b8ff" d="M267.57,-301.62C294.26,-301.62 325.1,-301.62 352.14,-301.62"/>
<polygon fill="#63b8ff" stroke="#63b8ff" points="267.93,-298.13 257.93,-301.63 267.93,-305.13 267.93,-298.13"/>
</a>
</g>
</g>
<!-- Node4 -->
<g id="Node000004" class="node">
<title>Node4</title>
<g id="a_Node000004"><a xlink:href="classdunedaq_1_1oks_1_1OksClass.html" target="_top" xlink:title="The OKS class.">
<polygon fill="white" stroke="#666666" points="482.5,-214.25 362.25,-214.25 362.25,-195 482.5,-195 482.5,-214.25"/>
<text text-anchor="middle" x="422.38" y="-200.75" font-family="Helvetica,sans-Serif" font-size="10.00">dunedaq::oks::OksClass</text>
</a>
</g>
</g>
<!-- Node4&#45;&gt;Node1 -->
<g id="edge3_Node000001_Node000004" class="edge">
<title>Node4&#45;&gt;Node1</title>
<g id="a_edge3_Node000001_Node000004"><a xlink:title=" ">
<path fill="none" stroke="#9a32cd" stroke-dasharray="5,2" d="M448.16,-220.75C465.11,-231.24 488.38,-244.59 510.25,-253.62 535.95,-264.25 565.36,-272.98 590.9,-279.54"/>
<polygon fill="#9a32cd" stroke="#9a32cd" points="450.1,-217.84 439.77,-215.47 446.37,-223.76 450.1,-217.84"/>
</a>
</g>
<text text-anchor="middle" x="541.75" y="-275.38" font-family="Helvetica,sans-Serif" font-size="10.00" fill="grey"> SchemaClass</text>
</g>
<!-- Node12 -->
<g id="Node000012" class="node">
<title>Node12</title>
<g id="a_Node000012"><a xlink:href="uniondunedaq_1_1oks_1_1OksData_1_1Data.html" target="_top" xlink:title=" ">
<polygon fill="white" stroke="#666666" points="713.38,-86.88 597.62,-86.88 597.62,-56.38 713.38,-56.38 713.38,-86.88"/>
<text text-anchor="start" x="605.62" y="-73.38" font-family="Helvetica,sans-Serif" font-size="10.00">dunedaq::oks::OksData</text>
<text text-anchor="middle" x="655.5" y="-62.12" font-family="Helvetica,sans-Serif" font-size="10.00">::Data</text>
</a>
</g>
</g>
<!-- Node4&#45;&gt;Node12 -->
<g id="edge14_Node000012_Node000004" class="edge">
<title>Node4&#45;&gt;Node12</title>
<g id="a_edge14_Node000012_Node000004"><a xlink:title=" ">
<path fill="none" stroke="#9a32cd" stroke-dasharray="5,2" d="M440.35,-186.83C456.9,-170.31 483.44,-145.94 510.25,-130.12 535.99,-114.94 545.52,-117.76 573.25,-106.62 588.36,-100.56 604.88,-93.51 619.06,-87.34"/>
<polygon fill="#9a32cd" stroke="#9a32cd" points="438.22,-184 433.71,-193.59 443.22,-188.9 438.22,-184"/>
</a>
</g>
<text text-anchor="middle" x="541.75" y="-143.62" font-family="Helvetica,sans-Serif" font-size="10.00" fill="grey"> CLASS</text>
<text text-anchor="middle" x="541.75" y="-132.38" font-family="Helvetica,sans-Serif" font-size="10.00" fill="grey">class_id</text>
</g>
<!-- Node5 -->
<g id="Node000005" class="node">
<title>Node5</title>
<g id="a_Node000005"><a xlink:href="classdunedaq_1_1oks_1_1OksFile.html" target="_top" xlink:title="Provides interface to the OKS XML schema and data files.">
<polygon fill="white" stroke="#666666" points="1572,-163.25 1460.75,-163.25 1460.75,-144 1572,-144 1572,-163.25"/>
<text text-anchor="middle" x="1516.38" y="-149.75" font-family="Helvetica,sans-Serif" font-size="10.00">dunedaq::oks::OksFile</text>
</a>
</g>
</g>
<!-- Node5&#45;&gt;Node4 -->
<g id="edge4_Node000004_Node000005" class="edge">
<title>Node5&#45;&gt;Node4</title>
<g id="a_edge4_Node000004_Node000005"><a xlink:title=" ">
<path fill="none" stroke="#9a32cd" stroke-dasharray="5,2" d="M1491.5,-169.83C1451.29,-195.5 1366.71,-242.62 1287.62,-242.62 654.5,-242.62 654.5,-242.62 654.5,-242.62 585.57,-242.62 506.6,-225.97 461.1,-214.71"/>
<polygon fill="#9a32cd" stroke="#9a32cd" points="1493.22,-172.88 1499.69,-164.49 1489.4,-167.02 1493.22,-172.88"/>
</a>
</g>
<text text-anchor="middle" x="922.88" y="-244.38" font-family="Helvetica,sans-Serif" font-size="10.00" fill="grey"> p_file</text>
</g>
<!-- Node5&#45;&gt;Node5 -->
<g id="edge5_Node000005_Node000005" class="edge">
<title>Node5&#45;&gt;Node5</title>
<g id="a_edge5_Node000005_Node000005"><a xlink:title=" ">
<path fill="none" stroke="#9a32cd" stroke-dasharray="5,2" d="M1496.52,-174.65C1499,-178.53 1505.62,-181.25 1516.38,-181.25 1536.04,-181.25 1541.88,-172.15 1533.89,-163.54"/>
<polygon fill="#9a32cd" stroke="#9a32cd" points="1499.91,-175.53 1498.55,-165.02 1493.06,-174.08 1499.91,-175.53"/>
</a>
</g>
<text text-anchor="middle" x="1516.38" y="-183" font-family="Helvetica,sans-Serif" font-size="10.00" fill="grey"> p_included_by</text>
</g>
<!-- Node6 -->
<g id="Node000006" class="node">
<title>Node6</title>
<g id="a_Node000006"><a xlink:href="classdunedaq_1_1oks_1_1OksKernel.html" target="_top" xlink:title="Provides interface to the OKS kernel.">
<polygon fill="white" stroke="#666666" points="1348.25,-163.25 1225,-163.25 1225,-144 1348.25,-144 1348.25,-163.25"/>
<text text-anchor="middle" x="1286.62" y="-149.75" font-family="Helvetica,sans-Serif" font-size="10.00">dunedaq::oks::OksKernel</text>
</a>
</g>
</g>
<!-- Node5&#45;&gt;Node6 -->
<g id="edge7_Node000006_Node000005" class="edge">
<title>Node5&#45;&gt;Node6</title>
<g id="a_edge7_Node000006_Node000005"><a xlink:title=" ">
<path fill="none" stroke="#9a32cd" stroke-dasharray="5,2" d="M1482.4,-139.4C1470.18,-134.85 1456.06,-130.39 1442.75,-128.12 1409.23,-122.41 1399.83,-122.82 1366.25,-128.12 1347.54,-131.08 1327.22,-137.77 1311.93,-143.55"/>
<polygon fill="#9a32cd" stroke="#9a32cd" points="1481.01,-142.62 1491.59,-143.01 1483.56,-136.1 1481.01,-142.62"/>
</a>
</g>
<text text-anchor="middle" x="1404.5" y="-141.62" font-family="Helvetica,sans-Serif" font-size="10.00" fill="grey"> p_active_data</text>
<text text-anchor="middle" x="1404.5" y="-130.38" font-family="Helvetica,sans-Serif" font-size="10.00" fill="grey">p_active_schema</text>
</g>
<!-- Node9 -->
<g id="Node000009" class="node">
<title>Node9</title>
<g id="a_Node000009"><a xlink:href="classdunedaq_1_1oks_1_1OksObject.html" target="_top" xlink:title="OksObject describes instance of OksClass.">
<polygon fill="white" stroke="#666666" points="1078,-40.25 954,-40.25 954,-21 1078,-21 1078,-40.25"/>
<text text-anchor="middle" x="1016" y="-26.75" font-family="Helvetica,sans-Serif" font-size="10.00">dunedaq::oks::OksObject</text>
</a>
</g>
</g>
<!-- Node5&#45;&gt;Node9 -->
<g id="edge19_Node000009_Node000005" class="edge">
<title>Node5&#45;&gt;Node9</title>
<g id="a_edge19_Node000009_Node000005"><a xlink:title=" ">
<path fill="none" stroke="#9a32cd" stroke-dasharray="5,2" d="M1484.8,-138.85C1471.95,-132.87 1456.76,-126.11 1442.75,-120.62 1339.98,-80.41 1315.35,-63.61 1207,-42.62 1164.49,-34.39 1115.74,-31.44 1078.26,-30.53"/>
<polygon fill="#9a32cd" stroke="#9a32cd" points="1483.06,-141.9 1493.6,-143 1486.04,-135.57 1483.06,-141.9"/>
</a>
</g>
<text text-anchor="middle" x="1286.62" y="-84.38" font-family="Helvetica,sans-Serif" font-size="10.00" fill="grey"> file</text>
</g>
<!-- Node6&#45;&gt;Node4 -->
<g id="edge20_Node000004_Node000006" class="edge">
<title>Node6&#45;&gt;Node4</title>
<g id="a_edge20_Node000004_Node000006"><a xlink:title=" ">
<path fill="none" stroke="#9a32cd" stroke-dasharray="5,2" d="M1213.39,-159.02C1159.34,-162.59 1083.58,-166.62 1017,-166.62 654.5,-166.62 654.5,-166.62 654.5,-166.62 585.57,-166.62 506.6,-183.28 461.1,-194.54"/>
<polygon fill="#9a32cd" stroke="#9a32cd" points="1213.34,-162.53 1223.08,-158.36 1212.86,-155.55 1213.34,-162.53"/>
</a>
</g>
<text text-anchor="middle" x="834.62" y="-168.38" font-family="Helvetica,sans-Serif" font-size="10.00" fill="grey"> p_kernel</text>
</g>
<!-- Node6&#45;&gt;Node5 -->
<g id="edge6_Node000005_Node000006" class="edge">
<title>Node6&#45;&gt;Node5</title>
<g id="a_edge6_Node000005_Node000006"><a xlink:title=" ">
<path fill="none" stroke="#9a32cd" stroke-dasharray="5,2" d="M1359.99,-154.58C1362.1,-154.6 1364.19,-154.61 1366.25,-154.62 1400.25,-154.84 1408.75,-154.86 1442.75,-154.62 1448.42,-154.59 1454.35,-154.53 1460.26,-154.46"/>
<polygon fill="#9a32cd" stroke="#9a32cd" points="1360.12,-151.08 1350.09,-154.49 1360.06,-158.08 1360.12,-151.08"/>
</a>
</g>
<text text-anchor="middle" x="1404.5" y="-157.38" font-family="Helvetica,sans-Serif" font-size="10.00" fill="grey"> p_kernel</text>
</g>
<!-- Node7 -->
<g id="Node000007" class="node">
<title>Node7</title>
<g id="a_Node000007"><a xlink:href="classdunedaq_1_1oks_1_1OksProfiler.html" target="_top" xlink:title=" ">
<polygon fill="white" stroke="#666666" points="1078.75,-138.25 953.25,-138.25 953.25,-119 1078.75,-119 1078.75,-138.25"/>
<text text-anchor="middle" x="1016" y="-124.75" font-family="Helvetica,sans-Serif" font-size="10.00">dunedaq::oks::OksProfiler</text>
</a>
</g>
</g>
<!-- Node7&#45;&gt;Node6 -->
<g id="edge8_Node000006_Node000007" class="edge">
<title>Node7&#45;&gt;Node6</title>
<g id="a_edge8_Node000006_Node000007"><a xlink:title=" ">
<path fill="none" stroke="#9a32cd" stroke-dasharray="5,2" d="M1090.35,-132.05C1125.67,-134.08 1168.6,-137.1 1207,-141.38 1212.77,-142.02 1218.76,-142.78 1224.74,-143.6"/>
<polygon fill="#9a32cd" stroke="#9a32cd" points="1090.85,-128.57 1080.67,-131.51 1090.46,-135.56 1090.85,-128.57"/>
</a>
</g>
<text text-anchor="middle" x="1151.88" y="-143.38" font-family="Helvetica,sans-Serif" font-size="10.00" fill="grey"> profiler</text>
</g>
<!-- Node8 -->
<g id="Node000008" class="node">
<title>Node8</title>
<g id="a_Node000008"><a xlink:href="structdunedaq_1_1oks_1_1LoadErrors.html" target="_top" xlink:title=" ">
<polygon fill="white" stroke="#666666" points="1078.38,-214.25 953.62,-214.25 953.62,-195 1078.38,-195 1078.38,-214.25"/>
<text text-anchor="middle" x="1016" y="-200.75" font-family="Helvetica,sans-Serif" font-size="10.00">dunedaq::oks::LoadErrors</text>
</a>
</g>
</g>
<!-- Node8&#45;&gt;Node6 -->
<g id="edge9_Node000006_Node000008" class="edge">
<title>Node8&#45;&gt;Node6</title>
<g id="a_edge9_Node000006_Node000008"><a xlink:title=" ">
<path fill="none" stroke="#9a32cd" stroke-dasharray="5,2" d="M1090.02,-198.94C1125.61,-195.27 1168.86,-189.48 1207,-180.62 1225.28,-176.38 1245.27,-169.48 1260.52,-163.72"/>
<polygon fill="#9a32cd" stroke="#9a32cd" points="1089.86,-195.44 1080.25,-199.9 1090.55,-202.4 1089.86,-195.44"/>
</a>
</g>
<text text-anchor="middle" x="1151.88" y="-199.38" font-family="Helvetica,sans-Serif" font-size="10.00" fill="grey"> p_load_errors</text>
</g>
<!-- Node9&#45;&gt;Node6 -->
<g id="edge10_Node000006_Node000009" class="edge">
<title>Node9&#45;&gt;Node6</title>
<g id="a_edge10_Node000006_Node000009"><a xlink:title=" ">
<path fill="none" stroke="#9a32cd" stroke-dasharray="5,2" d="M1089.46,-42.09C1134.24,-50.03 1186.88,-61.15 1207,-72.38 1239.4,-90.46 1266.81,-126.13 1278.94,-143.56"/>
<polygon fill="#9a32cd" stroke="#9a32cd" points="1090.21,-38.67 1079.75,-40.4 1089.01,-45.57 1090.21,-38.67"/>
</a>
</g>
<text text-anchor="start" x="1096.75" y="-119.38" font-family="Helvetica,sans-Serif" font-size="10.00" fill="grey"> p_change_object_notify</text>
<text text-anchor="middle" x="1151.88" y="-108.12" font-family="Helvetica,sans-Serif" font-size="10.00" fill="grey">_fn</text>
<text text-anchor="start" x="1096.75" y="-96.88" font-family="Helvetica,sans-Serif" font-size="10.00" fill="grey">p_create_object_notify</text>
<text text-anchor="middle" x="1151.88" y="-85.62" font-family="Helvetica,sans-Serif" font-size="10.00" fill="grey">_fn</text>
<text text-anchor="middle" x="1151.88" y="-74.38" font-family="Helvetica,sans-Serif" font-size="10.00" fill="grey">p_delete_object_notify_fn</text>
</g>
<!-- Node9&#45;&gt;Node12 -->
<g id="edge15_Node000012_Node000009" class="edge">
<title>Node9&#45;&gt;Node12</title>
<g id="a_edge15_Node000012_Node000009"><a xlink:title=" ">
<path fill="none" stroke="#9a32cd" stroke-dasharray="5,2" d="M954.03,-42.67C947.7,-43.75 941.35,-44.76 935.25,-45.62 858.98,-56.45 770.3,-63.84 713.81,-67.89"/>
<polygon fill="#9a32cd" stroke="#9a32cd" points="954.61,-46.13 963.85,-40.94 953.39,-39.23 954.61,-46.13"/>
</a>
</g>
<text text-anchor="middle" x="834.62" y="-65.38" font-family="Helvetica,sans-Serif" font-size="10.00" fill="grey"> OBJECT</text>
</g>
<!-- Node10 -->
<g id="Node000010" class="node">
<title>Node10</title>
<g id="a_Node000010"><a xlink:title=" ">
<polygon fill="white" stroke="#666666" points="442.75,-19.25 402,-19.25 402,0 442.75,0 442.75,-19.25"/>
<text text-anchor="middle" x="422.38" y="-5.75" font-family="Helvetica,sans-Serif" font-size="10.00">struct</text>
</a>
</g>
</g>
<!-- Node10&#45;&gt;Node9 -->
<g id="edge11_Node000009_Node000010" class="edge">
<title>Node10&#45;&gt;Node9</title>
<g id="a_edge11_Node000009_Node000010"><a xlink:title=" ">
<path fill="none" stroke="#9a32cd" stroke-dasharray="5,2" d="M454.5,-8.15C529.83,-4.94 727.91,1.42 892.5,-11.62 915.13,-13.42 939.92,-16.96 961.23,-20.51"/>
<polygon fill="#9a32cd" stroke="#9a32cd" points="454.43,-4.65 444.6,-8.59 454.74,-11.65 454.43,-4.65"/>
</a>
</g>
<text text-anchor="middle" x="748.25" y="-7.38" font-family="Helvetica,sans-Serif" font-size="10.00" fill="grey"> uid</text>
</g>
<!-- Node10&#45;&gt;Node12 -->
<g id="edge18_Node000012_Node000010" class="edge">
<title>Node10&#45;&gt;Node12</title>
<g id="a_edge18_Node000012_Node000010"><a xlink:title=" ">
<path fill="none" stroke="#9a32cd" stroke-dasharray="5,2" d="M454.05,-16.11C484.47,-22.73 532.34,-33.63 573.25,-45.12 584.82,-48.38 597.2,-52.22 608.73,-55.96"/>
<polygon fill="#9a32cd" stroke="#9a32cd" points="454.9,-12.71 444.39,-14.03 453.43,-19.56 454.9,-12.71"/>
</a>
</g>
<text text-anchor="middle" x="541.75" y="-58.62" font-family="Helvetica,sans-Serif" font-size="10.00" fill="grey"> UID</text>
<text text-anchor="middle" x="541.75" y="-47.38" font-family="Helvetica,sans-Serif" font-size="10.00" fill="grey">UID2</text>
</g>
<!-- Node11 -->
<g id="Node000011" class="node">
<title>Node11</title>
<g id="a_Node000011"><a xlink:href="structdunedaq_1_1oks_1_1OksData.html" target="_top" xlink:title="the structure to pass common parameters to various read() methods of OksData and OksObject class">
<polygon fill="white" stroke="#666666" points="892.5,-40.25 776.75,-40.25 776.75,-21 892.5,-21 892.5,-40.25"/>
<text text-anchor="middle" x="834.62" y="-26.75" font-family="Helvetica,sans-Serif" font-size="10.00">dunedaq::oks::OksData</text>
</a>
</g>
</g>
<!-- Node11&#45;&gt;Node9 -->
<g id="edge12_Node000009_Node000011" class="edge">
<title>Node11&#45;&gt;Node9</title>
<g id="a_edge12_Node000009_Node000011"><a xlink:title=" ">
<path fill="none" stroke="#9a32cd" stroke-dasharray="5,2" d="M903.99,-30.62C920.32,-30.62 937.66,-30.62 953.65,-30.62"/>
<polygon fill="#9a32cd" stroke="#9a32cd" points="904.39,-27.13 894.39,-30.63 904.39,-34.13 904.39,-27.13"/>
</a>
</g>
<text text-anchor="middle" x="922.88" y="-32.38" font-family="Helvetica,sans-Serif" font-size="10.00" fill="grey"> data</text>
</g>
<!-- Node12&#45;&gt;Node11 -->
<g id="edge13_Node000011_Node000012" class="edge">
<title>Node12&#45;&gt;Node11</title>
<g id="a_edge13_Node000011_Node000012"><a xlink:title=" ">
<path fill="none" stroke="#9a32cd" stroke-dasharray="5,2" d="M724.7,-54.46C729.11,-53.4 733.49,-52.37 737.75,-51.38 753.34,-47.75 770.41,-43.98 785.77,-40.68"/>
<polygon fill="#9a32cd" stroke="#9a32cd" points="724.07,-51.01 715.18,-56.77 725.72,-57.82 724.07,-51.01"/>
</a>
</g>
<text text-anchor="middle" x="748.25" y="-53.38" font-family="Helvetica,sans-Serif" font-size="10.00" fill="grey"> data</text>
</g>
<!-- Node13 -->
<g id="Node000013" class="node">
<title>Node13</title>
<g id="a_Node000013"><a xlink:href="classdunedaq_1_1oks_1_1OksString.html" target="_top" xlink:title="Class OKS string.">
<polygon fill="white" stroke="#666666" points="482.88,-81.25 361.88,-81.25 361.88,-62 482.88,-62 482.88,-81.25"/>
<text text-anchor="middle" x="422.38" y="-67.75" font-family="Helvetica,sans-Serif" font-size="10.00">dunedaq::oks::OksString</text>
</a>
</g>
</g>
<!-- Node13&#45;&gt;Node12 -->
<g id="edge16_Node000012_Node000013" class="edge">
<title>Node13&#45;&gt;Node12</title>
<g id="a_edge16_Node000012_Node000013"><a xlink:title=" ">
<path fill="none" stroke="#9a32cd" stroke-dasharray="5,2" d="M494.61,-71.62C527.6,-71.62 566.27,-71.62 597.32,-71.62"/>
<polygon fill="#9a32cd" stroke="#9a32cd" points="494.71,-68.13 484.71,-71.63 494.71,-75.13 494.71,-68.13"/>
</a>
</g>
<text text-anchor="middle" x="541.75" y="-95.88" font-family="Helvetica,sans-Serif" font-size="10.00" fill="grey"> STRING</text>
<text text-anchor="middle" x="541.75" y="-84.62" font-family="Helvetica,sans-Serif" font-size="10.00" fill="grey">class_id</text>
<text text-anchor="middle" x="541.75" y="-73.38" font-family="Helvetica,sans-Serif" font-size="10.00" fill="grey">object_id</text>
</g>
<!-- Node14 -->
<g id="Node000014" class="node">
<title>Node14</title>
<g id="a_Node000014"><a xlink:title=" ">
<polygon fill="white" stroke="#666666" points="229.88,-81.25 171.88,-81.25 171.88,-62 229.88,-62 229.88,-81.25"/>
<text text-anchor="middle" x="200.88" y="-67.75" font-family="Helvetica,sans-Serif" font-size="10.00">std::string</text>
</a>
</g>
</g>
<!-- Node14&#45;&gt;Node13 -->
<g id="edge17_Node000013_Node000014" class="edge">
<title>Node14&#45;&gt;Node13</title>
<g id="a_edge17_Node000013_Node000014"><a xlink:title=" ">
<path fill="none" stroke="#63b8ff" d="M241.27,-71.62C274.69,-71.62 323.15,-71.62 361.39,-71.62"/>
<polygon fill="#63b8ff" stroke="#63b8ff" points="241.64,-68.13 231.63,-71.63 241.63,-75.13 241.64,-68.13"/>
</a>
</g>
</g>
<!-- Node15 -->
<g id="Node000015" class="node">
<title>Node15</title>
<g id="a_Node000015"><a xlink:href="classdunedaq_1_1oksdbinterfaces_1_1map.html" target="_top" xlink:title=" ">
<polygon fill="white" stroke="#666666" points="264,-219.88 137.75,-219.88 137.75,-189.38 264,-189.38 264,-219.88"/>
<text text-anchor="start" x="145.75" y="-206.38" font-family="Helvetica,sans-Serif" font-size="10.00">dunedaq::oksdbinterfaces</text>
<text text-anchor="middle" x="200.88" y="-195.12" font-family="Helvetica,sans-Serif" font-size="10.00">::map&lt; T &gt;</text>
</a>
</g>
</g>
<!-- Node15&#45;&gt;Node4 -->
<g id="edge21_Node000004_Node000015" class="edge">
<title>Node15&#45;&gt;Node4</title>
<g id="a_edge21_Node000004_Node000015"><a xlink:title=" ">
<path fill="none" stroke="#9a32cd" stroke-dasharray="5,2" d="M275.87,-204.62C303.95,-204.62 335.53,-204.62 362.08,-204.62"/>
<polygon fill="#9a32cd" stroke="#9a32cd" points="275.99,-201.13 265.99,-204.63 275.99,-208.13 275.99,-201.13"/>
</a>
</g>
<text text-anchor="middle" x="308.25" y="-206.38" font-family="Helvetica,sans-Serif" font-size="10.00" fill="grey"> p_data_info</text>
</g>
<!-- Node16 -->
<g id="Node000016" class="node">
<title>Node16</title>
<g id="a_Node000016"><a xlink:title=" ">
<polygon fill="white" stroke="#666666" points="100.75,-219.88 0,-219.88 0,-189.38 100.75,-189.38 100.75,-219.88"/>
<text text-anchor="start" x="8" y="-206.38" font-family="Helvetica,sans-Serif" font-size="10.00">std::unordered_map</text>
<text text-anchor="middle" x="50.38" y="-195.12" font-family="Helvetica,sans-Serif" font-size="10.00">&lt; std::string, T &gt;</text>
</a>
</g>
</g>
<!-- Node16&#45;&gt;Node15 -->
<g id="edge22_Node000015_Node000016" class="edge">
<title>Node16&#45;&gt;Node15</title>
<g id="a_edge22_Node000015_Node000016"><a xlink:title=" ">
<path fill="none" stroke="#63b8ff" d="M112.64,-204.62C120.84,-204.62 129.26,-204.62 137.48,-204.62"/>
<polygon fill="#63b8ff" stroke="#63b8ff" points="112.75,-201.13 102.75,-204.63 112.75,-208.13 112.75,-201.13"/>
</a>
</g>
</g>
</g>
</svg>
