<?xml version="1.0" encoding="UTF-8" standalone="no"?>
<!DOCTYPE svg PUBLIC "-//W3C//DTD SVG 1.1//EN"
 "http://www.w3.org/Graphics/SVG/1.1/DTD/svg11.dtd">
<!-- Generated by graphviz version 9.0.0 (20230911.1827)
 -->
<!-- Title: dunedaq::oks::OksIndex Pages: 1 -->
<svg width="1611pt" height="422pt"
 viewBox="0.00 0.00 1610.75 421.88" xmlns="http://www.w3.org/2000/svg" xmlns:xlink="http://www.w3.org/1999/xlink">
<g id="graph0" class="graph" transform="scale(1 1) rotate(0) translate(4 417.88)">
<title>dunedaq::oks::OksIndex</title>
<!-- Node1 -->
<g id="Node000001" class="node">
<title>Node1</title>
<g id="a_Node000001"><a xlink:title=" ">
<polygon fill="#999999" stroke="#666666" points="1376.75,-369.25 1258,-369.25 1258,-350 1376.75,-350 1376.75,-369.25"/>
<text text-anchor="middle" x="1317.38" y="-355.75" font-family="Helvetica,sans-Serif" font-size="10.00">dunedaq::oks::OksIndex</text>
</a>
</g>
</g>
<!-- Node2 -->
<g id="Node000002" class="node">
<title>Node2</title>
<g id="a_Node000002"><a xlink:title=" ">
<polygon fill="white" stroke="#666666" points="1105,-374.88 981.75,-374.88 981.75,-344.38 1105,-344.38 1105,-374.88"/>
<text text-anchor="start" x="989.75" y="-361.38" font-family="Helvetica,sans-Serif" font-size="10.00">std::multiset&lt; OksObject</text>
<text text-anchor="middle" x="1043.38" y="-350.12" font-family="Helvetica,sans-Serif" font-size="10.00"> *, OksObjectSortBy &gt;</text>
</a>
</g>
</g>
<!-- Node2&#45;&gt;Node1 -->
<g id="edge1_Node000001_Node000002" class="edge">
<title>Node2&#45;&gt;Node1</title>
<g id="a_edge1_Node000001_Node000002"><a xlink:title=" ">
<path fill="none" stroke="#63b8ff" d="M1116.66,-359.62C1160.8,-359.62 1216.51,-359.62 1257.87,-359.62"/>
<polygon fill="#63b8ff" stroke="#63b8ff" points="1116.93,-356.13 1106.93,-359.63 1116.93,-363.13 1116.93,-356.13"/>
</a>
</g>
</g>
<!-- Node3 -->
<g id="Node000003" class="node">
<title>Node3</title>
<g id="a_Node000003"><a xlink:href="classdunedaq_1_1oks_1_1OksClass.html" target="_top" xlink:title="The OKS class.">
<polygon fill="white" stroke="#666666" points="473.12,-288.25 352.88,-288.25 352.88,-269 473.12,-269 473.12,-288.25"/>
<text text-anchor="middle" x="413" y="-274.75" font-family="Helvetica,sans-Serif" font-size="10.00">dunedaq::oks::OksClass</text>
</a>
</g>
</g>
<!-- Node3&#45;&gt;Node1 -->
<g id="edge2_Node000001_Node000003" class="edge">
<title>Node3&#45;&gt;Node1</title>
<g id="a_edge2_Node000001_Node000003"><a xlink:title=" ">
<path fill="none" stroke="#9a32cd" stroke-dasharray="5,2" d="M428.9,-297.04C458.65,-331.57 529.2,-402.62 606.12,-402.62 606.12,-402.62 606.12,-402.62 1044.38,-402.62 1128.28,-402.62 1224.98,-382.42 1277.49,-369.71"/>
<polygon fill="#9a32cd" stroke="#9a32cd" points="431.7,-294.93 422.59,-289.51 426.33,-299.43 431.7,-294.93"/>
</a>
</g>
<text text-anchor="middle" x="798.62" y="-404.38" font-family="Helvetica,sans-Serif" font-size="10.00" fill="grey"> c</text>
</g>
<!-- Node11 -->
<g id="Node000011" class="node">
<title>Node11</title>
<g id="a_Node000011"><a xlink:href="uniondunedaq_1_1oks_1_1OksData_1_1Data.html" target="_top" xlink:title=" ">
<polygon fill="white" stroke="#666666" points="665,-86.88 549.25,-86.88 549.25,-56.38 665,-56.38 665,-86.88"/>
<text text-anchor="start" x="557.25" y="-73.38" font-family="Helvetica,sans-Serif" font-size="10.00">dunedaq::oks::OksData</text>
<text text-anchor="middle" x="607.12" y="-62.12" font-family="Helvetica,sans-Serif" font-size="10.00">::Data</text>
</a>
</g>
</g>
<!-- Node3&#45;&gt;Node11 -->
<g id="edge13_Node000011_Node000003" class="edge">
<title>Node3&#45;&gt;Node11</title>
<g id="a_edge13_Node000011_Node000003"><a xlink:title=" ">
<path fill="none" stroke="#9a32cd" stroke-dasharray="5,2" d="M420.28,-257.84C430.63,-226.63 453.93,-167.35 491.5,-130.12 497.87,-123.81 541.31,-102.42 572.83,-87.34"/>
<polygon fill="#9a32cd" stroke="#9a32cd" points="416.99,-256.64 417.3,-267.23 423.67,-258.75 416.99,-256.64"/>
</a>
</g>
<text text-anchor="middle" x="511.38" y="-143.62" font-family="Helvetica,sans-Serif" font-size="10.00" fill="grey"> CLASS</text>
<text text-anchor="middle" x="511.38" y="-132.38" font-family="Helvetica,sans-Serif" font-size="10.00" fill="grey">class_id</text>
</g>
<!-- Node16 -->
<g id="Node000016" class="node">
<title>Node16</title>
<g id="a_Node000016"><a xlink:href="classdunedaq_1_1oks_1_1OksAttribute.html" target="_top" xlink:title="OKS attribute class.">
<polygon fill="white" stroke="#666666" points="1109.5,-326.25 977.25,-326.25 977.25,-307 1109.5,-307 1109.5,-326.25"/>
<text text-anchor="middle" x="1043.38" y="-312.75" font-family="Helvetica,sans-Serif" font-size="10.00">dunedaq::oks::OksAttribute</text>
</a>
</g>
</g>
<!-- Node3&#45;&gt;Node16 -->
<g id="edge23_Node000016_Node000003" class="edge">
<title>Node3&#45;&gt;Node16</title>
<g id="a_edge23_Node000016_Node000003"><a xlink:title=" ">
<path fill="none" stroke="#9a32cd" stroke-dasharray="5,2" d="M475.4,-290.5C480.83,-291.31 486.26,-292.04 491.5,-292.62 666.08,-312.11 873.42,-315.99 976.86,-316.63"/>
<polygon fill="#9a32cd" stroke="#9a32cd" points="476.22,-287.09 465.79,-288.97 475.12,-294 476.22,-287.09"/>
</a>
</g>
<text text-anchor="middle" x="701" y="-311.38" font-family="Helvetica,sans-Serif" font-size="10.00" fill="grey"> p_class</text>
</g>
<!-- Node4 -->
<g id="Node000004" class="node">
<title>Node4</title>
<g id="a_Node000004"><a xlink:href="classdunedaq_1_1oks_1_1OksFile.html" target="_top" xlink:title="Provides interface to the OKS XML schema and data files.">
<polygon fill="white" stroke="#666666" points="1602.75,-194.25 1491.5,-194.25 1491.5,-175 1602.75,-175 1602.75,-194.25"/>
<text text-anchor="middle" x="1547.12" y="-180.75" font-family="Helvetica,sans-Serif" font-size="10.00">dunedaq::oks::OksFile</text>
</a>
</g>
</g>
<!-- Node4&#45;&gt;Node3 -->
<g id="edge3_Node000003_Node000004" class="edge">
<title>Node4&#45;&gt;Node3</title>
<g id="a_edge3_Node000003_Node000004"><a xlink:title=" ">
<path fill="none" stroke="#9a32cd" stroke-dasharray="5,2" d="M1523.26,-201.14C1483.62,-228.11 1398.65,-278.62 1318.38,-278.62 606.12,-278.62 606.12,-278.62 606.12,-278.62 561.6,-278.62 511.26,-278.62 473.29,-278.62"/>
<polygon fill="#9a32cd" stroke="#9a32cd" points="1525.1,-204.13 1531.31,-195.55 1521.1,-198.38 1525.1,-204.13"/>
</a>
</g>
<text text-anchor="middle" x="918.75" y="-280.38" font-family="Helvetica,sans-Serif" font-size="10.00" fill="grey"> p_file</text>
</g>
<!-- Node4&#45;&gt;Node4 -->
<g id="edge4_Node000004_Node000004" class="edge">
<title>Node4&#45;&gt;Node4</title>
<g id="a_edge4_Node000004_Node000004"><a xlink:title=" ">
<path fill="none" stroke="#9a32cd" stroke-dasharray="5,2" d="M1527.27,-205.65C1529.75,-209.53 1536.37,-212.25 1547.12,-212.25 1566.79,-212.25 1572.63,-203.15 1564.64,-194.54"/>
<polygon fill="#9a32cd" stroke="#9a32cd" points="1530.66,-206.53 1529.3,-196.02 1523.81,-205.08 1530.66,-206.53"/>
</a>
</g>
<text text-anchor="middle" x="1547.12" y="-214" font-family="Helvetica,sans-Serif" font-size="10.00" fill="grey"> p_included_by</text>
</g>
<!-- Node5 -->
<g id="Node000005" class="node">
<title>Node5</title>
<g id="a_Node000005"><a xlink:href="classdunedaq_1_1oks_1_1OksKernel.html" target="_top" xlink:title="Provides interface to the OKS kernel.">
<polygon fill="white" stroke="#666666" points="1379,-194.25 1255.75,-194.25 1255.75,-175 1379,-175 1379,-194.25"/>
<text text-anchor="middle" x="1317.38" y="-180.75" font-family="Helvetica,sans-Serif" font-size="10.00">dunedaq::oks::OksKernel</text>
</a>
</g>
</g>
<!-- Node4&#45;&gt;Node5 -->
<g id="edge6_Node000005_Node000004" class="edge">
<title>Node4&#45;&gt;Node5</title>
<g id="a_edge6_Node000005_Node000004"><a xlink:title=" ">
<path fill="none" stroke="#9a32cd" stroke-dasharray="5,2" d="M1513.15,-170.4C1500.93,-165.85 1486.81,-161.39 1473.5,-159.12 1439.98,-153.41 1430.58,-153.82 1397,-159.12 1378.29,-162.08 1357.97,-168.77 1342.68,-174.55"/>
<polygon fill="#9a32cd" stroke="#9a32cd" points="1511.76,-173.62 1522.34,-174.01 1514.31,-167.1 1511.76,-173.62"/>
</a>
</g>
<text text-anchor="middle" x="1435.25" y="-172.62" font-family="Helvetica,sans-Serif" font-size="10.00" fill="grey"> p_active_data</text>
<text text-anchor="middle" x="1435.25" y="-161.38" font-family="Helvetica,sans-Serif" font-size="10.00" fill="grey">p_active_schema</text>
</g>
<!-- Node8 -->
<g id="Node000008" class="node">
<title>Node8</title>
<g id="a_Node000008"><a xlink:href="classdunedaq_1_1oks_1_1OksObject.html" target="_top" xlink:title="OksObject describes instance of OksClass.">
<polygon fill="white" stroke="#666666" points="1105.38,-71.25 981.38,-71.25 981.38,-52 1105.38,-52 1105.38,-71.25"/>
<text text-anchor="middle" x="1043.38" y="-57.75" font-family="Helvetica,sans-Serif" font-size="10.00">dunedaq::oks::OksObject</text>
</a>
</g>
</g>
<!-- Node4&#45;&gt;Node8 -->
<g id="edge18_Node000008_Node000004" class="edge">
<title>Node4&#45;&gt;Node8</title>
<g id="a_edge18_Node000008_Node000004"><a xlink:title=" ">
<path fill="none" stroke="#9a32cd" stroke-dasharray="5,2" d="M1515.57,-169.8C1502.72,-163.81 1487.53,-157.05 1473.5,-151.62 1370.83,-111.9 1345.81,-96.64 1237.75,-75.62 1194.14,-67.14 1144.09,-63.69 1105.83,-62.33"/>
<polygon fill="#9a32cd" stroke="#9a32cd" points="1513.83,-172.85 1524.36,-173.95 1516.82,-166.52 1513.83,-172.85"/>
</a>
</g>
<text text-anchor="middle" x="1317.38" y="-116.38" font-family="Helvetica,sans-Serif" font-size="10.00" fill="grey"> file</text>
</g>
<!-- Node5&#45;&gt;Node3 -->
<g id="edge19_Node000003_Node000005" class="edge">
<title>Node5&#45;&gt;Node3</title>
<g id="a_edge19_Node000003_Node000005"><a xlink:title=" ">
<path fill="none" stroke="#9a32cd" stroke-dasharray="5,2" d="M1244.17,-181.22C1175.42,-178.79 1069.1,-177.11 977.25,-184.62 782.35,-200.57 553.4,-247.75 458.58,-268.56"/>
<polygon fill="#9a32cd" stroke="#9a32cd" points="1243.66,-184.71 1253.79,-181.58 1243.92,-177.71 1243.66,-184.71"/>
</a>
</g>
<text text-anchor="middle" x="798.62" y="-217.38" font-family="Helvetica,sans-Serif" font-size="10.00" fill="grey"> p_kernel</text>
</g>
<!-- Node5&#45;&gt;Node4 -->
<g id="edge5_Node000004_Node000005" class="edge">
<title>Node5&#45;&gt;Node4</title>
<g id="a_edge5_Node000004_Node000005"><a xlink:title=" ">
<path fill="none" stroke="#9a32cd" stroke-dasharray="5,2" d="M1390.74,-185.58C1392.85,-185.6 1394.94,-185.61 1397,-185.62 1431,-185.84 1439.5,-185.86 1473.5,-185.62 1479.17,-185.59 1485.1,-185.53 1491.01,-185.46"/>
<polygon fill="#9a32cd" stroke="#9a32cd" points="1390.87,-182.08 1380.84,-185.49 1390.81,-189.08 1390.87,-182.08"/>
</a>
</g>
<text text-anchor="middle" x="1435.25" y="-188.38" font-family="Helvetica,sans-Serif" font-size="10.00" fill="grey"> p_kernel</text>
</g>
<!-- Node6 -->
<g id="Node000006" class="node">
<title>Node6</title>
<g id="a_Node000006"><a xlink:href="classdunedaq_1_1oks_1_1OksProfiler.html" target="_top" xlink:title=" ">
<polygon fill="white" stroke="#666666" points="1106.12,-250.25 980.62,-250.25 980.62,-231 1106.12,-231 1106.12,-250.25"/>
<text text-anchor="middle" x="1043.38" y="-236.75" font-family="Helvetica,sans-Serif" font-size="10.00">dunedaq::oks::OksProfiler</text>
</a>
</g>
</g>
<!-- Node6&#45;&gt;Node5 -->
<g id="edge7_Node000005_Node000006" class="edge">
<title>Node6&#45;&gt;Node5</title>
<g id="a_edge7_Node000005_Node000006"><a xlink:title=" ">
<path fill="none" stroke="#9a32cd" stroke-dasharray="5,2" d="M1117.42,-233.51C1153.9,-229.09 1198.51,-222.35 1237.75,-212.62 1256.31,-208.02 1276.64,-200.72 1291.97,-194.73"/>
<polygon fill="#9a32cd" stroke="#9a32cd" points="1117.4,-229.99 1107.88,-234.64 1118.22,-236.94 1117.4,-229.99"/>
</a>
</g>
<text text-anchor="middle" x="1182.62" y="-234.38" font-family="Helvetica,sans-Serif" font-size="10.00" fill="grey"> profiler</text>
</g>
<!-- Node7 -->
<g id="Node000007" class="node">
<title>Node7</title>
<g id="a_Node000007"><a xlink:href="structdunedaq_1_1oks_1_1LoadErrors.html" target="_top" xlink:title=" ">
<polygon fill="white" stroke="#666666" points="1105.75,-213.25 981,-213.25 981,-194 1105.75,-194 1105.75,-213.25"/>
<text text-anchor="middle" x="1043.38" y="-199.75" font-family="Helvetica,sans-Serif" font-size="10.00">dunedaq::oks::LoadErrors</text>
</a>
</g>
</g>
<!-- Node7&#45;&gt;Node5 -->
<g id="edge8_Node000005_Node000007" class="edge">
<title>Node7&#45;&gt;Node5</title>
<g id="a_edge8_Node000005_Node000007"><a xlink:title=" ">
<path fill="none" stroke="#9a32cd" stroke-dasharray="5,2" d="M1117.38,-198.53C1160.52,-195.51 1214.51,-191.74 1255.37,-188.89"/>
<polygon fill="#9a32cd" stroke="#9a32cd" points="1117.34,-195.02 1107.61,-199.21 1117.83,-202 1117.34,-195.02"/>
</a>
</g>
<text text-anchor="middle" x="1182.62" y="-199.38" font-family="Helvetica,sans-Serif" font-size="10.00" fill="grey"> p_load_errors</text>
</g>
<!-- Node8&#45;&gt;Node5 -->
<g id="edge9_Node000005_Node000008" class="edge">
<title>Node8&#45;&gt;Node5</title>
<g id="a_edge9_Node000005_Node000008"><a xlink:title=" ">
<path fill="none" stroke="#9a32cd" stroke-dasharray="5,2" d="M1117.02,-71.93C1167.31,-79.47 1227.06,-89.38 1237.75,-95.38 1272.52,-114.86 1299.55,-155.69 1310.75,-174.61"/>
<polygon fill="#9a32cd" stroke="#9a32cd" points="1117.7,-68.49 1107.29,-70.49 1116.67,-75.42 1117.7,-68.49"/>
</a>
</g>
<text text-anchor="start" x="1127.5" y="-142.38" font-family="Helvetica,sans-Serif" font-size="10.00" fill="grey"> p_change_object_notify</text>
<text text-anchor="middle" x="1182.62" y="-131.12" font-family="Helvetica,sans-Serif" font-size="10.00" fill="grey">_fn</text>
<text text-anchor="start" x="1127.5" y="-119.88" font-family="Helvetica,sans-Serif" font-size="10.00" fill="grey">p_create_object_notify</text>
<text text-anchor="middle" x="1182.62" y="-108.62" font-family="Helvetica,sans-Serif" font-size="10.00" fill="grey">_fn</text>
<text text-anchor="middle" x="1182.62" y="-97.38" font-family="Helvetica,sans-Serif" font-size="10.00" fill="grey">p_delete_object_notify_fn</text>
</g>
<!-- Node8&#45;&gt;Node11 -->
<g id="edge14_Node000011_Node000008" class="edge">
<title>Node8&#45;&gt;Node11</title>
<g id="a_edge14_Node000011_Node000008"><a xlink:title=" ">
<path fill="none" stroke="#9a32cd" stroke-dasharray="5,2" d="M969.73,-63.3C884.12,-65.27 743.62,-68.5 665.34,-70.31"/>
<polygon fill="#9a32cd" stroke="#9a32cd" points="969.75,-66.8 979.67,-63.07 969.59,-59.8 969.75,-66.8"/>
</a>
</g>
<text text-anchor="middle" x="798.62" y="-70.38" font-family="Helvetica,sans-Serif" font-size="10.00" fill="grey"> OBJECT</text>
</g>
<!-- Node9 -->
<g id="Node000009" class="node">
<title>Node9</title>
<g id="a_Node000009"><a xlink:title=" ">
<polygon fill="white" stroke="#666666" points="433.38,-19.25 392.62,-19.25 392.62,0 433.38,0 433.38,-19.25"/>
<text text-anchor="middle" x="413" y="-5.75" font-family="Helvetica,sans-Serif" font-size="10.00">struct</text>
</a>
</g>
</g>
<!-- Node9&#45;&gt;Node8 -->
<g id="edge10_Node000008_Node000009" class="edge">
<title>Node9&#45;&gt;Node8</title>
<g id="a_edge10_Node000008_Node000009"><a xlink:title=" ">
<path fill="none" stroke="#9a32cd" stroke-dasharray="5,2" d="M445.04,-12.19C543.37,-20.33 849.29,-45.65 981.02,-56.55"/>
<polygon fill="#9a32cd" stroke="#9a32cd" points="445.61,-8.73 435.35,-11.39 445.03,-15.7 445.61,-8.73"/>
</a>
</g>
<text text-anchor="middle" x="701" y="-36.38" font-family="Helvetica,sans-Serif" font-size="10.00" fill="grey"> uid</text>
</g>
<!-- Node9&#45;&gt;Node11 -->
<g id="edge17_Node000011_Node000009" class="edge">
<title>Node9&#45;&gt;Node11</title>
<g id="a_edge17_Node000011_Node000009"><a xlink:title=" ">
<path fill="none" stroke="#9a32cd" stroke-dasharray="5,2" d="M444.37,-18.4C468.12,-25.36 501.9,-35.49 531.25,-45.12 541.6,-48.52 552.69,-52.35 563.08,-56.01"/>
<polygon fill="#9a32cd" stroke="#9a32cd" points="445.62,-15.12 435.04,-15.68 443.66,-21.84 445.62,-15.12"/>
</a>
</g>
<text text-anchor="middle" x="511.38" y="-58.62" font-family="Helvetica,sans-Serif" font-size="10.00" fill="grey"> UID</text>
<text text-anchor="middle" x="511.38" y="-47.38" font-family="Helvetica,sans-Serif" font-size="10.00" fill="grey">UID2</text>
</g>
<!-- Node10 -->
<g id="Node000010" class="node">
<title>Node10</title>
<g id="a_Node000010"><a xlink:href="structdunedaq_1_1oks_1_1OksData.html" target="_top" xlink:title="the structure to pass common parameters to various read() methods of OksData and OksObject class">
<polygon fill="white" stroke="#666666" points="856.5,-110.25 740.75,-110.25 740.75,-91 856.5,-91 856.5,-110.25"/>
<text text-anchor="middle" x="798.62" y="-96.75" font-family="Helvetica,sans-Serif" font-size="10.00">dunedaq::oks::OksData</text>
</a>
</g>
</g>
<!-- Node10&#45;&gt;Node8 -->
<g id="edge11_Node000008_Node000010" class="edge">
<title>Node10&#45;&gt;Node8</title>
<g id="a_edge11_Node000008_Node000010"><a xlink:title=" ">
<path fill="none" stroke="#9a32cd" stroke-dasharray="5,2" d="M868.12,-89.62C903.71,-83.9 946.85,-76.97 981.29,-71.44"/>
<polygon fill="#9a32cd" stroke="#9a32cd" points="867.66,-86.15 858.34,-91.19 868.77,-93.06 867.66,-86.15"/>
</a>
</g>
<text text-anchor="middle" x="918.75" y="-89.38" font-family="Helvetica,sans-Serif" font-size="10.00" fill="grey"> data</text>
</g>
<!-- Node10&#45;&gt;Node16 -->
<g id="edge25_Node000016_Node000010" class="edge">
<title>Node10&#45;&gt;Node16</title>
<g id="a_edge25_Node000016_Node000010"><a xlink:title=" ">
<path fill="none" stroke="#9a32cd" stroke-dasharray="5,2" d="M823.67,-117.18C834.98,-125.19 848.53,-135.12 860.25,-144.62 906.32,-181.99 919.91,-189.74 959.25,-234.12 968.45,-244.51 967.97,-249.32 977.25,-259.62 993.54,-277.71 1015.29,-295.73 1029.07,-306.53"/>
<polygon fill="#9a32cd" stroke="#9a32cd" points="825.84,-114.43 815.65,-111.56 821.83,-120.16 825.84,-114.43"/>
</a>
</g>
<text text-anchor="middle" x="918.75" y="-247.62" font-family="Helvetica,sans-Serif" font-size="10.00" fill="grey"> p_empty_init_data</text>
<text text-anchor="middle" x="918.75" y="-236.38" font-family="Helvetica,sans-Serif" font-size="10.00" fill="grey">p_init_data</text>
</g>
<!-- Node11&#45;&gt;Node10 -->
<g id="edge12_Node000010_Node000011" class="edge">
<title>Node11&#45;&gt;Node10</title>
<g id="a_edge12_Node000010_Node000011"><a xlink:title=" ">
<path fill="none" stroke="#9a32cd" stroke-dasharray="5,2" d="M676.87,-82.15C697.74,-85.34 720.43,-88.81 740.45,-91.88"/>
<polygon fill="#9a32cd" stroke="#9a32cd" points="677.41,-78.69 666.99,-80.63 676.35,-85.61 677.41,-78.69"/>
</a>
</g>
<text text-anchor="middle" x="701" y="-90.38" font-family="Helvetica,sans-Serif" font-size="10.00" fill="grey"> data</text>
</g>
<!-- Node12 -->
<g id="Node000012" class="node">
<title>Node12</title>
<g id="a_Node000012"><a xlink:href="classdunedaq_1_1oks_1_1OksString.html" target="_top" xlink:title="Class OKS string.">
<polygon fill="white" stroke="#666666" points="473.5,-81.25 352.5,-81.25 352.5,-62 473.5,-62 473.5,-81.25"/>
<text text-anchor="middle" x="413" y="-67.75" font-family="Helvetica,sans-Serif" font-size="10.00">dunedaq::oks::OksString</text>
</a>
</g>
</g>
<!-- Node12&#45;&gt;Node11 -->
<g id="edge15_Node000011_Node000012" class="edge">
<title>Node12&#45;&gt;Node11</title>
<g id="a_edge15_Node000011_Node000012"><a xlink:title=" ">
<path fill="none" stroke="#9a32cd" stroke-dasharray="5,2" d="M485.43,-71.62C506.35,-71.62 528.95,-71.62 548.88,-71.62"/>
<polygon fill="#9a32cd" stroke="#9a32cd" points="485.51,-68.13 475.51,-71.63 485.51,-75.13 485.51,-68.13"/>
</a>
</g>
<text text-anchor="middle" x="511.38" y="-95.88" font-family="Helvetica,sans-Serif" font-size="10.00" fill="grey"> STRING</text>
<text text-anchor="middle" x="511.38" y="-84.62" font-family="Helvetica,sans-Serif" font-size="10.00" fill="grey">class_id</text>
<text text-anchor="middle" x="511.38" y="-73.38" font-family="Helvetica,sans-Serif" font-size="10.00" fill="grey">object_id</text>
</g>
<!-- Node13 -->
<g id="Node000013" class="node">
<title>Node13</title>
<g id="a_Node000013"><a xlink:title=" ">
<polygon fill="white" stroke="#666666" points="229.88,-81.25 171.88,-81.25 171.88,-62 229.88,-62 229.88,-81.25"/>
<text text-anchor="middle" x="200.88" y="-67.75" font-family="Helvetica,sans-Serif" font-size="10.00">std::string</text>
</a>
</g>
</g>
<!-- Node13&#45;&gt;Node12 -->
<g id="edge16_Node000012_Node000013" class="edge">
<title>Node13&#45;&gt;Node12</title>
<g id="a_edge16_Node000012_Node000013"><a xlink:title=" ">
<path fill="none" stroke="#63b8ff" d="M241.51,-71.62C272.75,-71.62 316.81,-71.62 352.31,-71.62"/>
<polygon fill="#63b8ff" stroke="#63b8ff" points="241.73,-68.13 231.73,-71.63 241.73,-75.13 241.73,-68.13"/>
</a>
</g>
</g>
<!-- Node14 -->
<g id="Node000014" class="node">
<title>Node14</title>
<g id="a_Node000014"><a xlink:href="classdunedaq_1_1oksdbinterfaces_1_1map.html" target="_top" xlink:title=" ">
<polygon fill="white" stroke="#666666" points="264,-293.88 137.75,-293.88 137.75,-263.38 264,-263.38 264,-293.88"/>
<text text-anchor="start" x="145.75" y="-280.38" font-family="Helvetica,sans-Serif" font-size="10.00">dunedaq::oksdbinterfaces</text>
<text text-anchor="middle" x="200.88" y="-269.12" font-family="Helvetica,sans-Serif" font-size="10.00">::map&lt; T &gt;</text>
</a>
</g>
</g>
<!-- Node14&#45;&gt;Node3 -->
<g id="edge20_Node000003_Node000014" class="edge">
<title>Node14&#45;&gt;Node3</title>
<g id="a_edge20_Node000003_Node000014"><a xlink:title=" ">
<path fill="none" stroke="#9a32cd" stroke-dasharray="5,2" d="M275.72,-278.62C300.91,-278.62 328.74,-278.62 352.65,-278.62"/>
<polygon fill="#9a32cd" stroke="#9a32cd" points="275.86,-275.13 265.86,-278.63 275.86,-282.13 275.86,-275.13"/>
</a>
</g>
<text text-anchor="middle" x="308.25" y="-280.38" font-family="Helvetica,sans-Serif" font-size="10.00" fill="grey"> p_data_info</text>
</g>
<!-- Node15 -->
<g id="Node000015" class="node">
<title>Node15</title>
<g id="a_Node000015"><a xlink:title=" ">
<polygon fill="white" stroke="#666666" points="100.75,-293.88 0,-293.88 0,-263.38 100.75,-263.38 100.75,-293.88"/>
<text text-anchor="start" x="8" y="-280.38" font-family="Helvetica,sans-Serif" font-size="10.00">std::unordered_map</text>
<text text-anchor="middle" x="50.38" y="-269.12" font-family="Helvetica,sans-Serif" font-size="10.00">&lt; std::string, T &gt;</text>
</a>
</g>
</g>
<!-- Node15&#45;&gt;Node14 -->
<g id="edge21_Node000014_Node000015" class="edge">
<title>Node15&#45;&gt;Node14</title>
<g id="a_edge21_Node000014_Node000015"><a xlink:title=" ">
<path fill="none" stroke="#63b8ff" d="M112.64,-278.62C120.84,-278.62 129.26,-278.62 137.48,-278.62"/>
<polygon fill="#63b8ff" stroke="#63b8ff" points="112.75,-275.13 102.75,-278.63 112.75,-282.13 112.75,-275.13"/>
</a>
</g>
</g>
<!-- Node16&#45;&gt;Node1 -->
<g id="edge22_Node000001_Node000016" class="edge">
<title>Node16&#45;&gt;Node1</title>
<g id="a_edge22_Node000001_Node000016"><a xlink:title=" ">
<path fill="none" stroke="#9a32cd" stroke-dasharray="5,2" d="M1121.11,-326.76C1156.66,-331.67 1199.42,-337.91 1237.75,-344.38 1247.07,-345.95 1256.99,-347.76 1266.53,-349.58"/>
<polygon fill="#9a32cd" stroke="#9a32cd" points="1121.72,-323.31 1111.34,-325.41 1120.77,-330.24 1121.72,-323.31"/>
</a>
</g>
<text text-anchor="middle" x="1182.62" y="-345.38" font-family="Helvetica,sans-Serif" font-size="10.00" fill="grey"> a</text>
</g>
<!-- Node17 -->
<g id="Node000017" class="node">
<title>Node17</title>
<g id="a_Node000017"><a xlink:href="classdunedaq_1_1oks_1_1OksRange.html" target="_top" xlink:title="OKS range class.">
<polygon fill="white" stroke="#666666" points="860.25,-364.25 737,-364.25 737,-345 860.25,-345 860.25,-364.25"/>
<text text-anchor="middle" x="798.62" y="-350.75" font-family="Helvetica,sans-Serif" font-size="10.00">dunedaq::oks::OksRange</text>
</a>
</g>
</g>
<!-- Node17&#45;&gt;Node16 -->
<g id="edge24_Node000016_Node000017" class="edge">
<title>Node17&#45;&gt;Node16</title>
<g id="a_edge24_Node000016_Node000017"><a xlink:title=" ">
<path fill="none" stroke="#9a32cd" stroke-dasharray="5,2" d="M871.76,-344.05C899.17,-339.97 930.67,-335.18 959.25,-330.62 967.05,-329.38 975.26,-328.04 983.36,-326.7"/>
<polygon fill="#9a32cd" stroke="#9a32cd" points="871.56,-340.55 862.18,-345.48 872.59,-347.47 871.56,-340.55"/>
</a>
</g>
<text text-anchor="middle" x="918.75" y="-344.38" font-family="Helvetica,sans-Serif" font-size="10.00" fill="grey"> p_range_obj</text>
</g>
</g>
</svg>
