<?xml version="1.0" encoding="UTF-8" standalone="no"?>
<!DOCTYPE svg PUBLIC "-//W3C//DTD SVG 1.1//EN"
 "http://www.w3.org/Graphics/SVG/1.1/DTD/svg11.dtd">
<!-- Generated by graphviz version 9.0.0 (20230911.1827)
 -->
<!-- Title: dunedaq::iomanager::SenderConcept&lt; Datatype &gt; Pages: 1 -->
<svg width="150pt" height="238pt"
 viewBox="0.00 0.00 150.00 238.00" xmlns="http://www.w3.org/2000/svg" xmlns:xlink="http://www.w3.org/1999/xlink">
<g id="graph0" class="graph" transform="scale(1 1) rotate(0) translate(4 234)">
<title>dunedaq::iomanager::SenderConcept&lt; Datatype &gt;</title>
<!-- Node1 -->
<g id="Node000001" class="node">
<title>Node1</title>
<g id="a_Node000001"><a xlink:title=" ">
<polygon fill="#999999" stroke="#666666" points="142,-30.5 0,-30.5 0,0 142,0 142,-30.5"/>
<text text-anchor="start" x="8" y="-17" font-family="Helvetica,sans-Serif" font-size="10.00">dunedaq::iomanager</text>
<text text-anchor="middle" x="71" y="-5.75" font-family="Helvetica,sans-Serif" font-size="10.00">::SenderConcept&lt; Datatype &gt;</text>
</a>
</g>
</g>
<!-- Node2 -->
<g id="Node000002" class="node">
<title>Node2</title>
<g id="a_Node000002"><a xlink:href="classdunedaq_1_1iomanager_1_1Sender.html" target="_top" xlink:title=" ">
<polygon fill="white" stroke="#666666" points="122.12,-97 19.88,-97 19.88,-66.5 122.12,-66.5 122.12,-97"/>
<text text-anchor="start" x="27.88" y="-83.5" font-family="Helvetica,sans-Serif" font-size="10.00">dunedaq::iomanager</text>
<text text-anchor="middle" x="71" y="-72.25" font-family="Helvetica,sans-Serif" font-size="10.00">::Sender</text>
</a>
</g>
</g>
<!-- Node2&#45;&gt;Node1 -->
<g id="edge1_Node000001_Node000002" class="edge">
<title>Node2&#45;&gt;Node1</title>
<g id="a_edge1_Node000001_Node000002"><a xlink:title=" ">
<path fill="none" stroke="#63b8ff" d="M71,-54.81C71,-46.64 71,-37.91 71,-30.83"/>
<polygon fill="#63b8ff" stroke="#63b8ff" points="67.5,-54.6 71,-64.6 74.5,-54.6 67.5,-54.6"/>
</a>
</g>
</g>
<!-- Node3 -->
<g id="Node000003" class="node">
<title>Node3</title>
<g id="a_Node000003"><a xlink:href="classdunedaq_1_1utilities_1_1NamedObject.html" target="_top" xlink:title="Implements the Named interface.">
<polygon fill="white" stroke="#666666" points="115,-163.5 27,-163.5 27,-133 115,-133 115,-163.5"/>
<text text-anchor="start" x="35" y="-150" font-family="Helvetica,sans-Serif" font-size="10.00">dunedaq::utilities</text>
<text text-anchor="middle" x="71" y="-138.75" font-family="Helvetica,sans-Serif" font-size="10.00">::NamedObject</text>
</a>
</g>
</g>
<!-- Node3&#45;&gt;Node2 -->
<g id="edge2_Node000002_Node000003" class="edge">
<title>Node3&#45;&gt;Node2</title>
<g id="a_edge2_Node000002_Node000003"><a xlink:title=" ">
<path fill="none" stroke="#63b8ff" d="M71,-121.31C71,-113.14 71,-104.41 71,-97.33"/>
<polygon fill="#63b8ff" stroke="#63b8ff" points="67.5,-121.1 71,-131.1 74.5,-121.1 67.5,-121.1"/>
</a>
</g>
</g>
<!-- Node4 -->
<g id="Node000004" class="node">
<title>Node4</title>
<g id="a_Node000004"><a xlink:href="classdunedaq_1_1utilities_1_1Named.html" target="_top" xlink:title="A Named is a DAQ object (Queue or DAQModule) which has an instance name.">
<polygon fill="white" stroke="#666666" points="115,-230 27,-230 27,-199.5 115,-199.5 115,-230"/>
<text text-anchor="start" x="35" y="-216.5" font-family="Helvetica,sans-Serif" font-size="10.00">dunedaq::utilities</text>
<text text-anchor="middle" x="71" y="-205.25" font-family="Helvetica,sans-Serif" font-size="10.00">::Named</text>
</a>
</g>
</g>
<!-- Node4&#45;&gt;Node3 -->
<g id="edge3_Node000003_Node000004" class="edge">
<title>Node4&#45;&gt;Node3</title>
<g id="a_edge3_Node000003_Node000004"><a xlink:title=" ">
<path fill="none" stroke="#63b8ff" d="M71,-187.81C71,-179.64 71,-170.91 71,-163.83"/>
<polygon fill="#63b8ff" stroke="#63b8ff" points="67.5,-187.6 71,-197.6 74.5,-187.6 67.5,-187.6"/>
</a>
</g>
</g>
</g>
</svg>
