<?xml version="1.0" encoding="UTF-8" standalone="no"?>
<!DOCTYPE svg PUBLIC "-//W3C//DTD SVG 1.1//EN"
 "http://www.w3.org/Graphics/SVG/1.1/DTD/svg11.dtd">
<!-- Generated by graphviz version 9.0.0 (20230911.1827)
 -->
<!-- Title: triggeralgs::TriggerActivityMakerMichelElectron Pages: 1 -->
<svg width="402pt" height="88pt"
 viewBox="0.00 0.00 401.50 87.50" xmlns="http://www.w3.org/2000/svg" xmlns:xlink="http://www.w3.org/1999/xlink">
<g id="graph0" class="graph" transform="scale(1 1) rotate(0) translate(4 83.5)">
<title>triggeralgs::TriggerActivityMakerMichelElectron</title>
<!-- Node1 -->
<g id="Node000001" class="node">
<title>Node1</title>
<g id="a_Node000001"><a xlink:title=" ">
<polygon fill="#999999" stroke="#666666" points="393.5,-54.5 265.75,-54.5 265.75,-24 393.5,-24 393.5,-54.5"/>
<text text-anchor="start" x="273.75" y="-41" font-family="Helvetica,sans-Serif" font-size="10.00">triggeralgs::TriggerActivity</text>
<text text-anchor="middle" x="329.62" y="-29.75" font-family="Helvetica,sans-Serif" font-size="10.00">MakerMichelElectron</text>
</a>
</g>
</g>
<!-- Node2 -->
<g id="Node000002" class="node">
<title>Node2</title>
<g id="a_Node000002"><a xlink:href="classtriggeralgs_1_1TriggerActivityMaker.html" target="_top" xlink:title=" ">
<polygon fill="white" stroke="#666666" points="136.75,-79.5 9,-79.5 9,-49 136.75,-49 136.75,-79.5"/>
<text text-anchor="start" x="17" y="-66" font-family="Helvetica,sans-Serif" font-size="10.00">triggeralgs::TriggerActivity</text>
<text text-anchor="middle" x="72.88" y="-54.75" font-family="Helvetica,sans-Serif" font-size="10.00">Maker</text>
</a>
</g>
</g>
<!-- Node2&#45;&gt;Node1 -->
<g id="edge1_Node000001_Node000002" class="edge">
<title>Node2&#45;&gt;Node1</title>
<g id="a_edge1_Node000001_Node000002"><a xlink:title=" ">
<path fill="none" stroke="#63b8ff" d="M148.16,-57.01C178.97,-54 215.09,-50.46 247.75,-47.25 253.51,-46.68 259.49,-46.09 265.49,-45.5"/>
<polygon fill="#63b8ff" stroke="#63b8ff" points="148.18,-53.49 138.56,-57.94 148.86,-60.45 148.18,-53.49"/>
</a>
</g>
</g>
<!-- Node3 -->
<g id="Node000003" class="node">
<title>Node3</title>
<g id="a_Node000003"><a xlink:href="classtriggeralgs_1_1TriggerActivityMakerMichelElectron_1_1Window.html" target="_top" xlink:title=" ">
<polygon fill="white" stroke="#666666" points="145.75,-30.5 0,-30.5 0,0 145.75,0 145.75,-30.5"/>
<text text-anchor="start" x="8" y="-17" font-family="Helvetica,sans-Serif" font-size="10.00">triggeralgs::TriggerActivity</text>
<text text-anchor="middle" x="72.88" y="-5.75" font-family="Helvetica,sans-Serif" font-size="10.00">MakerMichelElectron::Window</text>
</a>
</g>
</g>
<!-- Node3&#45;&gt;Node1 -->
<g id="edge2_Node000001_Node000003" class="edge">
<title>Node3&#45;&gt;Node1</title>
<g id="a_edge2_Node000001_Node000003"><a xlink:title=" ">
<path fill="none" stroke="#9a32cd" stroke-dasharray="5,2" d="M157.44,-23.12C192.67,-26.44 232.99,-30.24 265.65,-33.32"/>
<polygon fill="#9a32cd" stroke="#9a32cd" points="157.99,-19.66 147.7,-22.21 157.33,-26.63 157.99,-19.66"/>
</a>
</g>
<text text-anchor="middle" x="205.75" y="-34" font-family="Helvetica,sans-Serif" font-size="10.00" fill="grey"> m_current_window</text>
</g>
</g>
</svg>
