<?xml version="1.0" encoding="UTF-8" standalone="no"?>
<!DOCTYPE svg PUBLIC "-//W3C//DTD SVG 1.1//EN"
 "http://www.w3.org/Graphics/SVG/1.1/DTD/svg11.dtd">
<!-- Generated by graphviz version 9.0.0 (20230911.1827)
 -->
<!-- Title: dunedaq::oks::QueryPath Pages: 1 -->
<svg width="884pt" height="539pt"
 viewBox="0.00 0.00 883.88 538.75" xmlns="http://www.w3.org/2000/svg" xmlns:xlink="http://www.w3.org/1999/xlink">
<g id="graph0" class="graph" transform="scale(1 1) rotate(0) translate(4 534.75)">
<title>dunedaq::oks::QueryPath</title>
<!-- Node1 -->
<g id="Node000001" class="node">
<title>Node1</title>
<g id="a_Node000001"><a xlink:title=" ">
<polygon fill="#999999" stroke="#666666" points="432,-347.12 308.75,-347.12 308.75,-327.88 432,-327.88 432,-347.12"/>
<text text-anchor="middle" x="370.38" y="-333.62" font-family="Helvetica,sans-Serif" font-size="10.00">dunedaq::oks::QueryPath</text>
</a>
</g>
</g>
<!-- Node2 -->
<g id="Node000002" class="node">
<title>Node2</title>
<g id="a_Node000002"><a xlink:href="classdunedaq_1_1oks_1_1OksObject.html" target="_top" xlink:title="OksObject describes instance of OksClass.">
<polygon fill="white" stroke="#666666" points="673.38,-464.25 549.38,-464.25 549.38,-445 673.38,-445 673.38,-464.25"/>
<text text-anchor="middle" x="611.38" y="-450.75" font-family="Helvetica,sans-Serif" font-size="10.00">dunedaq::oks::OksObject</text>
</a>
</g>
</g>
<!-- Node2&#45;&gt;Node1 -->
<g id="edge1_Node000001_Node000002" class="edge">
<title>Node2&#45;&gt;Node1</title>
<g id="a_edge1_Node000001_Node000002"><a xlink:title=" ">
<path fill="none" stroke="#9a32cd" stroke-dasharray="5,2" d="M537.6,-444.88C498.05,-439.6 455.94,-432.8 448.62,-427 427.43,-410.19 443.13,-391.15 425.38,-370.75 416.58,-360.65 403.81,-352.89 392.79,-347.52"/>
<polygon fill="#9a32cd" stroke="#9a32cd" points="537.06,-448.34 547.43,-446.16 537.96,-441.4 537.06,-448.34"/>
</a>
</g>
<text text-anchor="middle" x="463.75" y="-395" font-family="Helvetica,sans-Serif" font-size="10.00" fill="grey"> p_goal</text>
</g>
<!-- Node5 -->
<g id="Node000005" class="node">
<title>Node5</title>
<g id="a_Node000005"><a xlink:href="uniondunedaq_1_1oks_1_1OksData_1_1Data.html" target="_top" xlink:title=" ">
<polygon fill="white" stroke="#666666" points="784.25,-97 668.5,-97 668.5,-66.5 784.25,-66.5 784.25,-97"/>
<text text-anchor="start" x="676.5" y="-83.5" font-family="Helvetica,sans-Serif" font-size="10.00">dunedaq::oks::OksData</text>
<text text-anchor="middle" x="726.38" y="-72.25" font-family="Helvetica,sans-Serif" font-size="10.00">::Data</text>
</a>
</g>
</g>
<!-- Node2&#45;&gt;Node5 -->
<g id="edge16_Node000005_Node000002" class="edge">
<title>Node2&#45;&gt;Node5</title>
<g id="a_edge16_Node000005_Node000002"><a xlink:title=" ">
<path fill="none" stroke="#9a32cd" stroke-dasharray="5,2" d="M618.62,-433.96C626.31,-411.28 637.38,-372.72 637.38,-338.5 637.38,-338.5 637.38,-338.5 637.38,-175.38 637.38,-139.92 671.71,-112.77 697.72,-97.29"/>
<polygon fill="#9a32cd" stroke="#9a32cd" points="615.42,-432.51 615.39,-443.1 622.02,-434.84 615.42,-432.51"/>
</a>
</g>
<text text-anchor="middle" x="657.62" y="-244.62" font-family="Helvetica,sans-Serif" font-size="10.00" fill="grey"> OBJECT</text>
</g>
<!-- Node8 -->
<g id="Node000008" class="node">
<title>Node8</title>
<g id="a_Node000008"><a xlink:href="classdunedaq_1_1oks_1_1OksKernel.html" target="_top" xlink:title="Provides interface to the OKS kernel.">
<polygon fill="white" stroke="#666666" points="283,-347.12 159.75,-347.12 159.75,-327.88 283,-327.88 283,-347.12"/>
<text text-anchor="middle" x="221.38" y="-333.62" font-family="Helvetica,sans-Serif" font-size="10.00">dunedaq::oks::OksKernel</text>
</a>
</g>
</g>
<!-- Node2&#45;&gt;Node8 -->
<g id="edge12_Node000008_Node000002" class="edge">
<title>Node2&#45;&gt;Node8</title>
<g id="a_edge12_Node000008_Node000002"><a xlink:title=" ">
<path fill="none" stroke="#9a32cd" stroke-dasharray="5,2" d="M537.59,-447.06C529.75,-446.37 521.9,-445.67 514.38,-445 491.79,-443 328.91,-441.06 311.12,-427 290.45,-410.66 310.01,-390.33 292.38,-370.75 282.68,-359.99 268.69,-352.59 255.68,-347.62"/>
<polygon fill="#9a32cd" stroke="#9a32cd" points="537.24,-450.54 547.51,-447.94 537.86,-443.57 537.24,-450.54"/>
</a>
</g>
<text text-anchor="start" x="310.38" y="-417.5" font-family="Helvetica,sans-Serif" font-size="10.00" fill="grey"> p_change_object_notify</text>
<text text-anchor="middle" x="365.5" y="-406.25" font-family="Helvetica,sans-Serif" font-size="10.00" fill="grey">_fn</text>
<text text-anchor="start" x="310.38" y="-395" font-family="Helvetica,sans-Serif" font-size="10.00" fill="grey">p_create_object_notify</text>
<text text-anchor="middle" x="365.5" y="-383.75" font-family="Helvetica,sans-Serif" font-size="10.00" fill="grey">_fn</text>
<text text-anchor="middle" x="365.5" y="-372.5" font-family="Helvetica,sans-Serif" font-size="10.00" fill="grey">p_delete_object_notify_fn</text>
</g>
<!-- Node3 -->
<g id="Node000003" class="node">
<title>Node3</title>
<g id="a_Node000003"><a xlink:title=" ">
<polygon fill="white" stroke="#666666" points="752.75,-530.75 712,-530.75 712,-511.5 752.75,-511.5 752.75,-530.75"/>
<text text-anchor="middle" x="732.38" y="-517.25" font-family="Helvetica,sans-Serif" font-size="10.00">struct</text>
</a>
</g>
</g>
<!-- Node3&#45;&gt;Node2 -->
<g id="edge2_Node000002_Node000003" class="edge">
<title>Node3&#45;&gt;Node2</title>
<g id="a_edge2_Node000002_Node000003"><a xlink:title=" ">
<path fill="none" stroke="#9a32cd" stroke-dasharray="5,2" d="M705.25,-505.67C681.7,-493.11 648.33,-475.32 628.37,-464.68"/>
<polygon fill="#9a32cd" stroke="#9a32cd" points="703.49,-508.69 713.96,-510.31 706.78,-502.52 703.49,-508.69"/>
</a>
</g>
<text text-anchor="middle" x="685.88" y="-484" font-family="Helvetica,sans-Serif" font-size="10.00" fill="grey"> uid</text>
</g>
<!-- Node3&#45;&gt;Node5 -->
<g id="edge19_Node000005_Node000003" class="edge">
<title>Node3&#45;&gt;Node5</title>
<g id="a_edge19_Node000005_Node000003"><a xlink:title=" ">
<path fill="none" stroke="#9a32cd" stroke-dasharray="5,2" d="M764.57,-516.82C800.42,-511.14 853.38,-495.94 853.38,-455.62 853.38,-455.62 853.38,-455.62 853.38,-175.38 853.38,-135.67 812.35,-111.18 776.93,-97.43"/>
<polygon fill="#9a32cd" stroke="#9a32cd" points="764.1,-513.35 754.67,-518.19 765.06,-520.28 764.1,-513.35"/>
</a>
</g>
<text text-anchor="middle" x="864.62" y="-294.75" font-family="Helvetica,sans-Serif" font-size="10.00" fill="grey"> UID</text>
<text text-anchor="middle" x="864.62" y="-283.5" font-family="Helvetica,sans-Serif" font-size="10.00" fill="grey">UID2</text>
</g>
<!-- Node4 -->
<g id="Node000004" class="node">
<title>Node4</title>
<g id="a_Node000004"><a xlink:href="structdunedaq_1_1oks_1_1OksData.html" target="_top" xlink:title="the structure to pass common parameters to various read() methods of OksData and OksObject class">
<polygon fill="white" stroke="#666666" points="829.25,-19.25 713.5,-19.25 713.5,0 829.25,0 829.25,-19.25"/>
<text text-anchor="middle" x="771.38" y="-5.75" font-family="Helvetica,sans-Serif" font-size="10.00">dunedaq::oks::OksData</text>
</a>
</g>
</g>
<!-- Node4&#45;&gt;Node2 -->
<g id="edge3_Node000002_Node000004" class="edge">
<title>Node4&#45;&gt;Node2</title>
<g id="a_edge3_Node000002_Node000004"><a xlink:title=" ">
<path fill="none" stroke="#9a32cd" stroke-dasharray="5,2" d="M789.53,-27.54C801.65,-40.72 815.38,-60.2 815.38,-80.75 815.38,-338.5 815.38,-338.5 815.38,-338.5 815.38,-404.38 733.68,-432.98 673.69,-445.11"/>
<polygon fill="#9a32cd" stroke="#9a32cd" points="792.16,-25.22 782.64,-20.56 787.17,-30.14 792.16,-25.22"/>
</a>
</g>
<text text-anchor="middle" x="825.88" y="-205.75" font-family="Helvetica,sans-Serif" font-size="10.00" fill="grey"> data</text>
</g>
<!-- Node5&#45;&gt;Node4 -->
<g id="edge4_Node000004_Node000005" class="edge">
<title>Node5&#45;&gt;Node4</title>
<g id="a_edge4_Node000004_Node000005"><a xlink:title=" ">
<path fill="none" stroke="#9a32cd" stroke-dasharray="5,2" d="M741.68,-56.9C749.99,-43.96 759.75,-28.73 765.76,-19.38"/>
<polygon fill="#9a32cd" stroke="#9a32cd" points="738.97,-54.64 736.52,-64.95 744.86,-58.42 738.97,-54.64"/>
</a>
</g>
<text text-anchor="middle" x="763.88" y="-39" font-family="Helvetica,sans-Serif" font-size="10.00" fill="grey"> data</text>
</g>
<!-- Node6 -->
<g id="Node000006" class="node">
<title>Node6</title>
<g id="a_Node000006"><a xlink:href="classdunedaq_1_1oks_1_1OksClass.html" target="_top" xlink:title="The OKS class.">
<polygon fill="white" stroke="#666666" points="531.5,-186 411.25,-186 411.25,-166.75 531.5,-166.75 531.5,-186"/>
<text text-anchor="middle" x="471.38" y="-172.5" font-family="Helvetica,sans-Serif" font-size="10.00">dunedaq::oks::OksClass</text>
</a>
</g>
</g>
<!-- Node6&#45;&gt;Node5 -->
<g id="edge5_Node000005_Node000006" class="edge">
<title>Node6&#45;&gt;Node5</title>
<g id="a_edge5_Node000005_Node000006"><a xlink:title=" ">
<path fill="none" stroke="#9a32cd" stroke-dasharray="5,2" d="M495.71,-160.39C518.62,-146.86 554.28,-127.23 587.38,-115 613.28,-105.43 642.99,-98.07 668.28,-92.83"/>
<polygon fill="#9a32cd" stroke="#9a32cd" points="493.91,-157.39 487.14,-165.54 497.51,-163.39 493.91,-157.39"/>
</a>
</g>
<text text-anchor="middle" x="605.38" y="-133.62" font-family="Helvetica,sans-Serif" font-size="10.00" fill="grey"> CLASS</text>
<text text-anchor="middle" x="605.38" y="-122.38" font-family="Helvetica,sans-Serif" font-size="10.00" fill="grey">class_id</text>
</g>
<!-- Node7 -->
<g id="Node000007" class="node">
<title>Node7</title>
<g id="a_Node000007"><a xlink:href="classdunedaq_1_1oks_1_1OksFile.html" target="_top" xlink:title="Provides interface to the OKS XML schema and data files.">
<polygon fill="white" stroke="#666666" points="375,-258.12 263.75,-258.12 263.75,-238.88 375,-238.88 375,-258.12"/>
<text text-anchor="middle" x="319.38" y="-244.62" font-family="Helvetica,sans-Serif" font-size="10.00">dunedaq::oks::OksFile</text>
</a>
</g>
</g>
<!-- Node7&#45;&gt;Node2 -->
<g id="edge20_Node000002_Node000007" class="edge">
<title>Node7&#45;&gt;Node2</title>
<g id="a_edge20_Node000002_Node000007"><a xlink:title=" ">
<path fill="none" stroke="#9a32cd" stroke-dasharray="5,2" d="M350.33,-263.28C361.59,-268.64 374.27,-275.09 385.38,-281.75 431.13,-309.2 561.13,-413.15 600.16,-444.57"/>
<polygon fill="#9a32cd" stroke="#9a32cd" points="351.99,-260.19 341.44,-259.14 349.03,-266.53 351.99,-260.19"/>
</a>
</g>
<text text-anchor="middle" x="488.5" y="-333.62" font-family="Helvetica,sans-Serif" font-size="10.00" fill="grey"> file</text>
</g>
<!-- Node7&#45;&gt;Node6 -->
<g id="edge6_Node000006_Node000007" class="edge">
<title>Node7&#45;&gt;Node6</title>
<g id="a_edge6_Node000006_Node000007"><a xlink:title=" ">
<path fill="none" stroke="#9a32cd" stroke-dasharray="5,2" d="M349.36,-233.67C379.77,-219.64 425.94,-198.34 451.89,-186.36"/>
<polygon fill="#9a32cd" stroke="#9a32cd" points="347.92,-230.47 340.31,-237.84 350.86,-236.83 347.92,-230.47"/>
</a>
</g>
<text text-anchor="middle" x="425.75" y="-205.75" font-family="Helvetica,sans-Serif" font-size="10.00" fill="grey"> p_file</text>
</g>
<!-- Node7&#45;&gt;Node7 -->
<g id="edge7_Node000007_Node000007" class="edge">
<title>Node7&#45;&gt;Node7</title>
<g id="a_edge7_Node000007_Node000007"><a xlink:title=" ">
<path fill="none" stroke="#9a32cd" stroke-dasharray="5,2" d="M386.46,-253.56C390.55,-252.36 393,-250.67 393,-248.5 393,-244.74 385.66,-242.44 375.24,-241.59"/>
<polygon fill="#9a32cd" stroke="#9a32cd" points="386.03,-250.09 376.73,-255.17 387.17,-256.99 386.03,-250.09"/>
</a>
</g>
<text text-anchor="middle" x="424.88" y="-244.62" font-family="Helvetica,sans-Serif" font-size="10.00" fill="grey"> p_included_by</text>
</g>
<!-- Node7&#45;&gt;Node8 -->
<g id="edge9_Node000008_Node000007" class="edge">
<title>Node7&#45;&gt;Node8</title>
<g id="a_edge9_Node000008_Node000007"><a xlink:title=" ">
<path fill="none" stroke="#9a32cd" stroke-dasharray="5,2" d="M312.01,-268.66C306.82,-280.15 298.9,-294.4 288.38,-304.25 277.35,-314.57 262.4,-322.19 249.43,-327.43"/>
<polygon fill="#9a32cd" stroke="#9a32cd" points="315.11,-270.33 315.72,-259.75 308.65,-267.64 315.11,-270.33"/>
</a>
</g>
<text text-anchor="middle" x="342.62" y="-294.75" font-family="Helvetica,sans-Serif" font-size="10.00" fill="grey"> p_active_data</text>
<text text-anchor="middle" x="342.62" y="-283.5" font-family="Helvetica,sans-Serif" font-size="10.00" fill="grey">p_active_schema</text>
</g>
<!-- Node8&#45;&gt;Node6 -->
<g id="edge13_Node000006_Node000008" class="edge">
<title>Node8&#45;&gt;Node6</title>
<g id="a_edge13_Node000006_Node000008"><a xlink:title=" ">
<path fill="none" stroke="#9a32cd" stroke-dasharray="5,2" d="M213.13,-316.89C205.02,-294.17 196.38,-256.84 215.38,-233.25 239.45,-203.36 343.02,-188.59 410.82,-182"/>
<polygon fill="#9a32cd" stroke="#9a32cd" points="209.84,-318.1 216.73,-326.15 216.37,-315.56 209.84,-318.1"/>
</a>
</g>
<text text-anchor="middle" x="234.88" y="-244.62" font-family="Helvetica,sans-Serif" font-size="10.00" fill="grey"> p_kernel</text>
</g>
<!-- Node8&#45;&gt;Node7 -->
<g id="edge8_Node000007_Node000008" class="edge">
<title>Node8&#45;&gt;Node7</title>
<g id="a_edge8_Node000007_Node000008"><a xlink:title=" ">
<path fill="none" stroke="#9a32cd" stroke-dasharray="5,2" d="M227.7,-316.92C232.23,-305.46 239.31,-291.41 249.38,-281.75 260.38,-271.19 275.46,-263.64 288.81,-258.51"/>
<polygon fill="#9a32cd" stroke="#9a32cd" points="224.46,-315.59 224.41,-326.19 231.06,-317.94 224.46,-315.59"/>
</a>
</g>
<text text-anchor="middle" x="268.88" y="-289.12" font-family="Helvetica,sans-Serif" font-size="10.00" fill="grey"> p_kernel</text>
</g>
<!-- Node9 -->
<g id="Node000009" class="node">
<title>Node9</title>
<g id="a_Node000009"><a xlink:href="classdunedaq_1_1oks_1_1OksProfiler.html" target="_top" xlink:title=" ">
<polygon fill="white" stroke="#666666" points="268.12,-464.25 142.62,-464.25 142.62,-445 268.12,-445 268.12,-464.25"/>
<text text-anchor="middle" x="205.38" y="-450.75" font-family="Helvetica,sans-Serif" font-size="10.00">dunedaq::oks::OksProfiler</text>
</a>
</g>
</g>
<!-- Node9&#45;&gt;Node8 -->
<g id="edge10_Node000008_Node000009" class="edge">
<title>Node9&#45;&gt;Node8</title>
<g id="a_edge10_Node000008_Node000009"><a xlink:title=" ">
<path fill="none" stroke="#9a32cd" stroke-dasharray="5,2" d="M207.06,-433.73C208.61,-416.9 211.2,-392.17 214.62,-370.75 215.89,-362.84 217.79,-353.94 219.25,-347.49"/>
<polygon fill="#9a32cd" stroke="#9a32cd" points="203.6,-433.1 206.21,-443.37 210.57,-433.72 203.6,-433.1"/>
</a>
</g>
<text text-anchor="middle" x="230.75" y="-395" font-family="Helvetica,sans-Serif" font-size="10.00" fill="grey"> profiler</text>
</g>
<!-- Node10 -->
<g id="Node000010" class="node">
<title>Node10</title>
<g id="a_Node000010"><a xlink:href="structdunedaq_1_1oks_1_1LoadErrors.html" target="_top" xlink:title=" ">
<polygon fill="white" stroke="#666666" points="124.75,-464.25 0,-464.25 0,-445 124.75,-445 124.75,-464.25"/>
<text text-anchor="middle" x="62.38" y="-450.75" font-family="Helvetica,sans-Serif" font-size="10.00">dunedaq::oks::LoadErrors</text>
</a>
</g>
</g>
<!-- Node10&#45;&gt;Node8 -->
<g id="edge11_Node000008_Node000010" class="edge">
<title>Node10&#45;&gt;Node8</title>
<g id="a_edge11_Node000008_Node000010"><a xlink:title=" ">
<path fill="none" stroke="#9a32cd" stroke-dasharray="5,2" d="M76.05,-435.96C90.99,-417.62 116.45,-389.11 143.62,-370.75 158.4,-360.77 176.75,-352.98 191.91,-347.55"/>
<polygon fill="#9a32cd" stroke="#9a32cd" points="73.49,-433.55 70,-443.55 78.97,-437.91 73.49,-433.55"/>
</a>
</g>
<text text-anchor="middle" x="174.75" y="-395" font-family="Helvetica,sans-Serif" font-size="10.00" fill="grey"> p_load_errors</text>
</g>
<!-- Node11 -->
<g id="Node000011" class="node">
<title>Node11</title>
<g id="a_Node000011"><a xlink:href="classdunedaq_1_1oksdbinterfaces_1_1map.html" target="_top" xlink:title=" ">
<polygon fill="white" stroke="#666666" points="601.5,-263.75 475.25,-263.75 475.25,-233.25 601.5,-233.25 601.5,-263.75"/>
<text text-anchor="start" x="483.25" y="-250.25" font-family="Helvetica,sans-Serif" font-size="10.00">dunedaq::oksdbinterfaces</text>
<text text-anchor="middle" x="538.38" y="-239" font-family="Helvetica,sans-Serif" font-size="10.00">::map&lt; T &gt;</text>
</a>
</g>
</g>
<!-- Node11&#45;&gt;Node6 -->
<g id="edge14_Node000006_Node000011" class="edge">
<title>Node11&#45;&gt;Node6</title>
<g id="a_edge14_Node000006_Node000011"><a xlink:title=" ">
<path fill="none" stroke="#9a32cd" stroke-dasharray="5,2" d="M516.67,-224.79C504.08,-211.61 488.94,-195.76 479.74,-186.13"/>
<polygon fill="#9a32cd" stroke="#9a32cd" points="514.01,-227.06 523.45,-231.88 519.07,-222.23 514.01,-227.06"/>
</a>
</g>
<text text-anchor="middle" x="532.62" y="-205.75" font-family="Helvetica,sans-Serif" font-size="10.00" fill="grey"> p_data_info</text>
</g>
<!-- Node12 -->
<g id="Node000012" class="node">
<title>Node12</title>
<g id="a_Node000012"><a xlink:title=" ">
<polygon fill="white" stroke="#666666" points="609.75,-352.75 509,-352.75 509,-322.25 609.75,-322.25 609.75,-352.75"/>
<text text-anchor="start" x="517" y="-339.25" font-family="Helvetica,sans-Serif" font-size="10.00">std::unordered_map</text>
<text text-anchor="middle" x="559.38" y="-328" font-family="Helvetica,sans-Serif" font-size="10.00">&lt; std::string, T &gt;</text>
</a>
</g>
</g>
<!-- Node12&#45;&gt;Node11 -->
<g id="edge15_Node000011_Node000012" class="edge">
<title>Node12&#45;&gt;Node11</title>
<g id="a_edge15_Node000011_Node000012"><a xlink:title=" ">
<path fill="none" stroke="#63b8ff" d="M553.3,-311.32C549.61,-296.03 545.02,-277.05 541.92,-264.18"/>
<polygon fill="#63b8ff" stroke="#63b8ff" points="549.8,-311.76 555.55,-320.66 556.61,-310.12 549.8,-311.76"/>
</a>
</g>
</g>
<!-- Node13 -->
<g id="Node000013" class="node">
<title>Node13</title>
<g id="a_Node000013"><a xlink:href="classdunedaq_1_1oks_1_1OksString.html" target="_top" xlink:title="Class OKS string.">
<polygon fill="white" stroke="#666666" points="786.88,-186 665.88,-186 665.88,-166.75 786.88,-166.75 786.88,-186"/>
<text text-anchor="middle" x="726.38" y="-172.5" font-family="Helvetica,sans-Serif" font-size="10.00">dunedaq::oks::OksString</text>
</a>
</g>
</g>
<!-- Node13&#45;&gt;Node5 -->
<g id="edge17_Node000005_Node000013" class="edge">
<title>Node13&#45;&gt;Node5</title>
<g id="a_edge17_Node000005_Node000013"><a xlink:title=" ">
<path fill="none" stroke="#9a32cd" stroke-dasharray="5,2" d="M726.38,-155.04C726.38,-137.53 726.38,-112.7 726.38,-97.17"/>
<polygon fill="#9a32cd" stroke="#9a32cd" points="722.88,-154.98 726.38,-164.98 729.88,-154.98 722.88,-154.98"/>
</a>
</g>
<text text-anchor="middle" x="746.25" y="-139.25" font-family="Helvetica,sans-Serif" font-size="10.00" fill="grey"> STRING</text>
<text text-anchor="middle" x="746.25" y="-128" font-family="Helvetica,sans-Serif" font-size="10.00" fill="grey">class_id</text>
<text text-anchor="middle" x="746.25" y="-116.75" font-family="Helvetica,sans-Serif" font-size="10.00" fill="grey">object_id</text>
</g>
<!-- Node14 -->
<g id="Node000014" class="node">
<title>Node14</title>
<g id="a_Node000014"><a xlink:title=" ">
<polygon fill="white" stroke="#666666" points="755.38,-258.12 697.38,-258.12 697.38,-238.88 755.38,-238.88 755.38,-258.12"/>
<text text-anchor="middle" x="726.38" y="-244.62" font-family="Helvetica,sans-Serif" font-size="10.00">std::string</text>
</a>
</g>
</g>
<!-- Node14&#45;&gt;Node13 -->
<g id="edge18_Node000013_Node000014" class="edge">
<title>Node14&#45;&gt;Node13</title>
<g id="a_edge18_Node000013_Node000014"><a xlink:title=" ">
<path fill="none" stroke="#63b8ff" d="M726.38,-227.12C726.38,-213.64 726.38,-196.64 726.38,-186.41"/>
<polygon fill="#63b8ff" stroke="#63b8ff" points="722.88,-227.11 726.38,-237.11 729.88,-227.11 722.88,-227.11"/>
</a>
</g>
</g>
<!-- Node15 -->
<g id="Node000015" class="node">
<title>Node15</title>
<g id="a_Node000015"><a xlink:href="classdunedaq_1_1oks_1_1QueryPathExpression.html" target="_top" xlink:title=" ">
<polygon fill="white" stroke="#666666" points="456.62,-464.25 286.12,-464.25 286.12,-445 456.62,-445 456.62,-464.25"/>
<text text-anchor="middle" x="371.38" y="-450.75" font-family="Helvetica,sans-Serif" font-size="10.00">dunedaq::oks::QueryPathExpression</text>
</a>
</g>
</g>
<!-- Node15&#45;&gt;Node1 -->
<g id="edge21_Node000001_Node000015" class="edge">
<title>Node15&#45;&gt;Node1</title>
<g id="a_edge21_Node000001_Node000015"><a xlink:title=" ">
<path fill="none" stroke="#9a32cd" stroke-dasharray="5,2" d="M292.92,-442.02C277.76,-438.18 265.05,-433.24 260.12,-427 244.64,-407.37 245.13,-390.76 260.12,-370.75 267.48,-360.94 293.22,-353.11 317.98,-347.62"/>
<polygon fill="#9a32cd" stroke="#9a32cd" points="291.73,-445.34 302.26,-444.17 293.3,-438.52 291.73,-445.34"/>
</a>
</g>
<text text-anchor="middle" x="275.5" y="-395" font-family="Helvetica,sans-Serif" font-size="10.00" fill="grey"> p_start</text>
</g>
<!-- Node15&#45;&gt;Node15 -->
<g id="edge22_Node000015_Node000015" class="edge">
<title>Node15&#45;&gt;Node15</title>
<g id="a_edge22_Node000015_Node000015"><a xlink:title=" ">
<path fill="none" stroke="#9a32cd" stroke-dasharray="5,2" d="M468.2,-458.39C472.26,-457.42 474.62,-456.16 474.62,-454.62 474.62,-451.96 467.56,-450.15 456.83,-449.2"/>
<polygon fill="#9a32cd" stroke="#9a32cd" points="467.72,-454.92 458.33,-459.83 468.73,-461.85 467.72,-454.92"/>
</a>
</g>
<text text-anchor="middle" x="490" y="-450.75" font-family="Helvetica,sans-Serif" font-size="10.00" fill="grey"> p_next</text>
</g>
</g>
</svg>
