<?xml version="1.0" encoding="UTF-8" standalone="no"?>
<!DOCTYPE svg PUBLIC "-//W3C//DTD SVG 1.1//EN"
 "http://www.w3.org/Graphics/SVG/1.1/DTD/svg11.dtd">
<!-- Generated by graphviz version 9.0.0 (20230911.1827)
 -->
<!-- Title: dbse::CustomSubClassModel Pages: 1 -->
<svg width="1595pt" height="319pt"
 viewBox="0.00 0.00 1595.00 319.25" xmlns="http://www.w3.org/2000/svg" xmlns:xlink="http://www.w3.org/1999/xlink">
<g id="graph0" class="graph" transform="scale(1 1) rotate(0) translate(4 315.25)">
<title>dbse::CustomSubClassModel</title>
<!-- Node1 -->
<g id="Node000001" class="node">
<title>Node1</title>
<g id="a_Node000001"><a xlink:title=" ">
<polygon fill="#999999" stroke="#666666" points="734.75,-300.25 591.25,-300.25 591.25,-281 734.75,-281 734.75,-300.25"/>
<text text-anchor="middle" x="663" y="-286.75" font-family="Helvetica,sans-Serif" font-size="10.00">dbse::CustomSubClassModel</text>
</a>
</g>
</g>
<!-- Node2 -->
<g id="Node000002" class="node">
<title>Node2</title>
<g id="a_Node000002"><a xlink:href="classdbse_1_1CustomModelInterface.html" target="_top" xlink:title=" ">
<polygon fill="white" stroke="#666666" points="492.25,-311.25 352.5,-311.25 352.5,-292 492.25,-292 492.25,-311.25"/>
<text text-anchor="middle" x="422.38" y="-297.75" font-family="Helvetica,sans-Serif" font-size="10.00">dbse::CustomModelInterface</text>
</a>
</g>
</g>
<!-- Node2&#45;&gt;Node1 -->
<g id="edge1_Node000001_Node000002" class="edge">
<title>Node2&#45;&gt;Node1</title>
<g id="a_edge1_Node000001_Node000002"><a xlink:title=" ">
<path fill="none" stroke="#63b8ff" d="M504.13,-297.9C532.24,-296.61 563.55,-295.16 590.83,-293.91"/>
<polygon fill="#63b8ff" stroke="#63b8ff" points="504.06,-294.4 494.23,-298.36 504.38,-301.39 504.06,-294.4"/>
</a>
</g>
</g>
<!-- Node3 -->
<g id="Node000003" class="node">
<title>Node3</title>
<g id="a_Node000003"><a xlink:title=" ">
<polygon fill="white" stroke="#666666" points="256.12,-311.25 145.62,-311.25 145.62,-292 256.12,-292 256.12,-311.25"/>
<text text-anchor="middle" x="200.88" y="-297.75" font-family="Helvetica,sans-Serif" font-size="10.00">QAbstractTableModel</text>
</a>
</g>
</g>
<!-- Node3&#45;&gt;Node2 -->
<g id="edge2_Node000002_Node000003" class="edge">
<title>Node3&#45;&gt;Node2</title>
<g id="a_edge2_Node000002_Node000003"><a xlink:title=" ">
<path fill="none" stroke="#63b8ff" d="M267.57,-301.62C294.26,-301.62 325.1,-301.62 352.14,-301.62"/>
<polygon fill="#63b8ff" stroke="#63b8ff" points="267.93,-298.13 257.93,-301.63 267.93,-305.13 267.93,-298.13"/>
</a>
</g>
</g>
<!-- Node4 -->
<g id="Node000004" class="node">
<title>Node4</title>
<g id="a_Node000004"><a xlink:href="classdunedaq_1_1oks_1_1OksClass.html" target="_top" xlink:title="The OKS class.">
<polygon fill="white" stroke="#666666" points="482.5,-214.25 362.25,-214.25 362.25,-195 482.5,-195 482.5,-214.25"/>
<text text-anchor="middle" x="422.38" y="-200.75" font-family="Helvetica,sans-Serif" font-size="10.00">dunedaq::oks::OksClass</text>
</a>
</g>
</g>
<!-- Node4&#45;&gt;Node1 -->
<g id="edge3_Node000001_Node000004" class="edge">
<title>Node4&#45;&gt;Node1</title>
<g id="a_edge3_Node000001_Node000004"><a xlink:title=" ">
<path fill="none" stroke="#9a32cd" stroke-dasharray="5,2" d="M447.76,-220.78C464.7,-231.39 488.11,-244.88 510.25,-253.62 540.51,-265.58 575.75,-274.46 604.64,-280.52"/>
<polygon fill="#9a32cd" stroke="#9a32cd" points="449.71,-217.88 439.4,-215.43 445.94,-223.77 449.71,-217.88"/>
</a>
</g>
<text text-anchor="middle" x="541.75" y="-274.38" font-family="Helvetica,sans-Serif" font-size="10.00" fill="grey"> SchemaClass</text>
</g>
<!-- Node12 -->
<g id="Node000012" class="node">
<title>Node12</title>
<g id="a_Node000012"><a xlink:href="uniondunedaq_1_1oks_1_1OksData_1_1Data.html" target="_top" xlink:title=" ">
<polygon fill="white" stroke="#666666" points="720.88,-86.88 605.12,-86.88 605.12,-56.38 720.88,-56.38 720.88,-86.88"/>
<text text-anchor="start" x="613.12" y="-73.38" font-family="Helvetica,sans-Serif" font-size="10.00">dunedaq::oks::OksData</text>
<text text-anchor="middle" x="663" y="-62.12" font-family="Helvetica,sans-Serif" font-size="10.00">::Data</text>
</a>
</g>
</g>
<!-- Node4&#45;&gt;Node12 -->
<g id="edge14_Node000012_Node000004" class="edge">
<title>Node4&#45;&gt;Node12</title>
<g id="a_edge14_Node000012_Node000004"><a xlink:title=" ">
<path fill="none" stroke="#9a32cd" stroke-dasharray="5,2" d="M440.35,-186.83C456.9,-170.31 483.44,-145.94 510.25,-130.12 535.99,-114.94 545.35,-117.33 573.25,-106.62 589.49,-100.4 607.33,-93.39 622.74,-87.29"/>
<polygon fill="#9a32cd" stroke="#9a32cd" points="438.22,-184 433.71,-193.59 443.22,-188.9 438.22,-184"/>
</a>
</g>
<text text-anchor="middle" x="541.75" y="-143.62" font-family="Helvetica,sans-Serif" font-size="10.00" fill="grey"> CLASS</text>
<text text-anchor="middle" x="541.75" y="-132.38" font-family="Helvetica,sans-Serif" font-size="10.00" fill="grey">class_id</text>
</g>
<!-- Node5 -->
<g id="Node000005" class="node">
<title>Node5</title>
<g id="a_Node000005"><a xlink:href="classdunedaq_1_1oks_1_1OksFile.html" target="_top" xlink:title="Provides interface to the OKS XML schema and data files.">
<polygon fill="white" stroke="#666666" points="1587,-163.25 1475.75,-163.25 1475.75,-144 1587,-144 1587,-163.25"/>
<text text-anchor="middle" x="1531.38" y="-149.75" font-family="Helvetica,sans-Serif" font-size="10.00">dunedaq::oks::OksFile</text>
</a>
</g>
</g>
<!-- Node5&#45;&gt;Node4 -->
<g id="edge4_Node000004_Node000005" class="edge">
<title>Node5&#45;&gt;Node4</title>
<g id="a_edge4_Node000004_Node000005"><a xlink:title=" ">
<path fill="none" stroke="#9a32cd" stroke-dasharray="5,2" d="M1506.5,-169.83C1466.29,-195.5 1381.71,-242.62 1302.62,-242.62 662,-242.62 662,-242.62 662,-242.62 590.89,-242.62 509.34,-225.97 462.34,-214.71"/>
<polygon fill="#9a32cd" stroke="#9a32cd" points="1508.22,-172.88 1514.69,-164.49 1504.4,-167.02 1508.22,-172.88"/>
</a>
</g>
<text text-anchor="middle" x="937.88" y="-244.38" font-family="Helvetica,sans-Serif" font-size="10.00" fill="grey"> p_file</text>
</g>
<!-- Node5&#45;&gt;Node5 -->
<g id="edge5_Node000005_Node000005" class="edge">
<title>Node5&#45;&gt;Node5</title>
<g id="a_edge5_Node000005_Node000005"><a xlink:title=" ">
<path fill="none" stroke="#9a32cd" stroke-dasharray="5,2" d="M1511.52,-174.65C1514,-178.53 1520.62,-181.25 1531.38,-181.25 1551.04,-181.25 1556.88,-172.15 1548.89,-163.54"/>
<polygon fill="#9a32cd" stroke="#9a32cd" points="1514.91,-175.53 1513.55,-165.02 1508.06,-174.08 1514.91,-175.53"/>
</a>
</g>
<text text-anchor="middle" x="1531.38" y="-183" font-family="Helvetica,sans-Serif" font-size="10.00" fill="grey"> p_included_by</text>
</g>
<!-- Node6 -->
<g id="Node000006" class="node">
<title>Node6</title>
<g id="a_Node000006"><a xlink:href="classdunedaq_1_1oks_1_1OksKernel.html" target="_top" xlink:title="Provides interface to the OKS kernel.">
<polygon fill="white" stroke="#666666" points="1363.25,-163.25 1240,-163.25 1240,-144 1363.25,-144 1363.25,-163.25"/>
<text text-anchor="middle" x="1301.62" y="-149.75" font-family="Helvetica,sans-Serif" font-size="10.00">dunedaq::oks::OksKernel</text>
</a>
</g>
</g>
<!-- Node5&#45;&gt;Node6 -->
<g id="edge7_Node000006_Node000005" class="edge">
<title>Node5&#45;&gt;Node6</title>
<g id="a_edge7_Node000006_Node000005"><a xlink:title=" ">
<path fill="none" stroke="#9a32cd" stroke-dasharray="5,2" d="M1497.4,-139.4C1485.18,-134.85 1471.06,-130.39 1457.75,-128.12 1424.23,-122.41 1414.83,-122.82 1381.25,-128.12 1362.54,-131.08 1342.22,-137.77 1326.93,-143.55"/>
<polygon fill="#9a32cd" stroke="#9a32cd" points="1496.01,-142.62 1506.59,-143.01 1498.56,-136.1 1496.01,-142.62"/>
</a>
</g>
<text text-anchor="middle" x="1419.5" y="-141.62" font-family="Helvetica,sans-Serif" font-size="10.00" fill="grey"> p_active_data</text>
<text text-anchor="middle" x="1419.5" y="-130.38" font-family="Helvetica,sans-Serif" font-size="10.00" fill="grey">p_active_schema</text>
</g>
<!-- Node9 -->
<g id="Node000009" class="node">
<title>Node9</title>
<g id="a_Node000009"><a xlink:href="classdunedaq_1_1oks_1_1OksObject.html" target="_top" xlink:title="OksObject describes instance of OksClass.">
<polygon fill="white" stroke="#666666" points="1093,-40.25 969,-40.25 969,-21 1093,-21 1093,-40.25"/>
<text text-anchor="middle" x="1031" y="-26.75" font-family="Helvetica,sans-Serif" font-size="10.00">dunedaq::oks::OksObject</text>
</a>
</g>
</g>
<!-- Node5&#45;&gt;Node9 -->
<g id="edge19_Node000009_Node000005" class="edge">
<title>Node5&#45;&gt;Node9</title>
<g id="a_edge19_Node000009_Node000005"><a xlink:title=" ">
<path fill="none" stroke="#9a32cd" stroke-dasharray="5,2" d="M1499.8,-138.85C1486.95,-132.87 1471.76,-126.11 1457.75,-120.62 1354.98,-80.41 1330.35,-63.61 1222,-42.62 1179.49,-34.39 1130.74,-31.44 1093.26,-30.53"/>
<polygon fill="#9a32cd" stroke="#9a32cd" points="1498.06,-141.9 1508.6,-143 1501.04,-135.57 1498.06,-141.9"/>
</a>
</g>
<text text-anchor="middle" x="1301.62" y="-84.38" font-family="Helvetica,sans-Serif" font-size="10.00" fill="grey"> file</text>
</g>
<!-- Node6&#45;&gt;Node4 -->
<g id="edge20_Node000004_Node000006" class="edge">
<title>Node6&#45;&gt;Node4</title>
<g id="a_edge20_Node000004_Node000006"><a xlink:title=" ">
<path fill="none" stroke="#9a32cd" stroke-dasharray="5,2" d="M1228.39,-159.02C1174.34,-162.59 1098.58,-166.62 1032,-166.62 662,-166.62 662,-166.62 662,-166.62 590.89,-166.62 509.34,-183.28 462.34,-194.54"/>
<polygon fill="#9a32cd" stroke="#9a32cd" points="1228.34,-162.53 1238.08,-158.36 1227.86,-155.55 1228.34,-162.53"/>
</a>
</g>
<text text-anchor="middle" x="849.62" y="-168.38" font-family="Helvetica,sans-Serif" font-size="10.00" fill="grey"> p_kernel</text>
</g>
<!-- Node6&#45;&gt;Node5 -->
<g id="edge6_Node000005_Node000006" class="edge">
<title>Node6&#45;&gt;Node5</title>
<g id="a_edge6_Node000005_Node000006"><a xlink:title=" ">
<path fill="none" stroke="#9a32cd" stroke-dasharray="5,2" d="M1374.99,-154.58C1377.1,-154.6 1379.19,-154.61 1381.25,-154.62 1415.25,-154.84 1423.75,-154.86 1457.75,-154.62 1463.42,-154.59 1469.35,-154.53 1475.26,-154.46"/>
<polygon fill="#9a32cd" stroke="#9a32cd" points="1375.12,-151.08 1365.09,-154.49 1375.06,-158.08 1375.12,-151.08"/>
</a>
</g>
<text text-anchor="middle" x="1419.5" y="-157.38" font-family="Helvetica,sans-Serif" font-size="10.00" fill="grey"> p_kernel</text>
</g>
<!-- Node7 -->
<g id="Node000007" class="node">
<title>Node7</title>
<g id="a_Node000007"><a xlink:href="classdunedaq_1_1oks_1_1OksProfiler.html" target="_top" xlink:title=" ">
<polygon fill="white" stroke="#666666" points="1093.75,-138.25 968.25,-138.25 968.25,-119 1093.75,-119 1093.75,-138.25"/>
<text text-anchor="middle" x="1031" y="-124.75" font-family="Helvetica,sans-Serif" font-size="10.00">dunedaq::oks::OksProfiler</text>
</a>
</g>
</g>
<!-- Node7&#45;&gt;Node6 -->
<g id="edge8_Node000006_Node000007" class="edge">
<title>Node7&#45;&gt;Node6</title>
<g id="a_edge8_Node000006_Node000007"><a xlink:title=" ">
<path fill="none" stroke="#9a32cd" stroke-dasharray="5,2" d="M1105.35,-132.05C1140.67,-134.08 1183.6,-137.1 1222,-141.38 1227.77,-142.02 1233.76,-142.78 1239.74,-143.6"/>
<polygon fill="#9a32cd" stroke="#9a32cd" points="1105.85,-128.57 1095.67,-131.51 1105.46,-135.56 1105.85,-128.57"/>
</a>
</g>
<text text-anchor="middle" x="1166.88" y="-143.38" font-family="Helvetica,sans-Serif" font-size="10.00" fill="grey"> profiler</text>
</g>
<!-- Node8 -->
<g id="Node000008" class="node">
<title>Node8</title>
<g id="a_Node000008"><a xlink:href="structdunedaq_1_1oks_1_1LoadErrors.html" target="_top" xlink:title=" ">
<polygon fill="white" stroke="#666666" points="1093.38,-214.25 968.62,-214.25 968.62,-195 1093.38,-195 1093.38,-214.25"/>
<text text-anchor="middle" x="1031" y="-200.75" font-family="Helvetica,sans-Serif" font-size="10.00">dunedaq::oks::LoadErrors</text>
</a>
</g>
</g>
<!-- Node8&#45;&gt;Node6 -->
<g id="edge9_Node000006_Node000008" class="edge">
<title>Node8&#45;&gt;Node6</title>
<g id="a_edge9_Node000006_Node000008"><a xlink:title=" ">
<path fill="none" stroke="#9a32cd" stroke-dasharray="5,2" d="M1105.02,-198.94C1140.61,-195.27 1183.86,-189.48 1222,-180.62 1240.28,-176.38 1260.27,-169.48 1275.52,-163.72"/>
<polygon fill="#9a32cd" stroke="#9a32cd" points="1104.86,-195.44 1095.25,-199.9 1105.55,-202.4 1104.86,-195.44"/>
</a>
</g>
<text text-anchor="middle" x="1166.88" y="-199.38" font-family="Helvetica,sans-Serif" font-size="10.00" fill="grey"> p_load_errors</text>
</g>
<!-- Node9&#45;&gt;Node6 -->
<g id="edge10_Node000006_Node000009" class="edge">
<title>Node9&#45;&gt;Node6</title>
<g id="a_edge10_Node000006_Node000009"><a xlink:title=" ">
<path fill="none" stroke="#9a32cd" stroke-dasharray="5,2" d="M1104.46,-42.09C1149.24,-50.03 1201.88,-61.15 1222,-72.38 1254.4,-90.46 1281.81,-126.13 1293.94,-143.56"/>
<polygon fill="#9a32cd" stroke="#9a32cd" points="1105.21,-38.67 1094.75,-40.4 1104.01,-45.57 1105.21,-38.67"/>
</a>
</g>
<text text-anchor="start" x="1111.75" y="-119.38" font-family="Helvetica,sans-Serif" font-size="10.00" fill="grey"> p_change_object_notify</text>
<text text-anchor="middle" x="1166.88" y="-108.12" font-family="Helvetica,sans-Serif" font-size="10.00" fill="grey">_fn</text>
<text text-anchor="start" x="1111.75" y="-96.88" font-family="Helvetica,sans-Serif" font-size="10.00" fill="grey">p_create_object_notify</text>
<text text-anchor="middle" x="1166.88" y="-85.62" font-family="Helvetica,sans-Serif" font-size="10.00" fill="grey">_fn</text>
<text text-anchor="middle" x="1166.88" y="-74.38" font-family="Helvetica,sans-Serif" font-size="10.00" fill="grey">p_delete_object_notify_fn</text>
</g>
<!-- Node9&#45;&gt;Node12 -->
<g id="edge15_Node000012_Node000009" class="edge">
<title>Node9&#45;&gt;Node12</title>
<g id="a_edge15_Node000012_Node000009"><a xlink:title=" ">
<path fill="none" stroke="#9a32cd" stroke-dasharray="5,2" d="M969.03,-42.67C962.7,-43.75 956.35,-44.76 950.25,-45.62 871.2,-56.84 779.15,-64.19 721.22,-68.13"/>
<polygon fill="#9a32cd" stroke="#9a32cd" points="969.61,-46.13 978.85,-40.94 968.39,-39.23 969.61,-46.13"/>
</a>
</g>
<text text-anchor="middle" x="849.62" y="-64.38" font-family="Helvetica,sans-Serif" font-size="10.00" fill="grey"> OBJECT</text>
</g>
<!-- Node10 -->
<g id="Node000010" class="node">
<title>Node10</title>
<g id="a_Node000010"><a xlink:title=" ">
<polygon fill="white" stroke="#666666" points="442.75,-19.25 402,-19.25 402,0 442.75,0 442.75,-19.25"/>
<text text-anchor="middle" x="422.38" y="-5.75" font-family="Helvetica,sans-Serif" font-size="10.00">struct</text>
</a>
</g>
</g>
<!-- Node10&#45;&gt;Node9 -->
<g id="edge11_Node000009_Node000010" class="edge">
<title>Node10&#45;&gt;Node9</title>
<g id="a_edge11_Node000009_Node000010"><a xlink:title=" ">
<path fill="none" stroke="#9a32cd" stroke-dasharray="5,2" d="M454.47,-8.14C531.43,-4.83 736.9,1.88 907.5,-11.62 930.13,-13.42 954.92,-16.96 976.23,-20.5"/>
<polygon fill="#9a32cd" stroke="#9a32cd" points="454.6,-4.64 444.76,-8.58 454.91,-11.63 454.6,-4.64"/>
</a>
</g>
<text text-anchor="middle" x="763.25" y="-7.38" font-family="Helvetica,sans-Serif" font-size="10.00" fill="grey"> uid</text>
</g>
<!-- Node10&#45;&gt;Node12 -->
<g id="edge18_Node000012_Node000010" class="edge">
<title>Node10&#45;&gt;Node12</title>
<g id="a_edge18_Node000012_Node000010"><a xlink:title=" ">
<path fill="none" stroke="#9a32cd" stroke-dasharray="5,2" d="M453.98,-16.33C484.37,-23.12 532.2,-34.14 573.25,-45.12 585.68,-48.45 599,-52.28 611.46,-55.98"/>
<polygon fill="#9a32cd" stroke="#9a32cd" points="454.86,-12.94 444.34,-14.19 453.35,-19.78 454.86,-12.94"/>
</a>
</g>
<text text-anchor="middle" x="541.75" y="-58.62" font-family="Helvetica,sans-Serif" font-size="10.00" fill="grey"> UID</text>
<text text-anchor="middle" x="541.75" y="-47.38" font-family="Helvetica,sans-Serif" font-size="10.00" fill="grey">UID2</text>
</g>
<!-- Node11 -->
<g id="Node000011" class="node">
<title>Node11</title>
<g id="a_Node000011"><a xlink:href="structdunedaq_1_1oks_1_1OksData.html" target="_top" xlink:title="the structure to pass common parameters to various read() methods of OksData and OksObject class">
<polygon fill="white" stroke="#666666" points="907.5,-40.25 791.75,-40.25 791.75,-21 907.5,-21 907.5,-40.25"/>
<text text-anchor="middle" x="849.62" y="-26.75" font-family="Helvetica,sans-Serif" font-size="10.00">dunedaq::oks::OksData</text>
</a>
</g>
</g>
<!-- Node11&#45;&gt;Node9 -->
<g id="edge12_Node000009_Node000011" class="edge">
<title>Node11&#45;&gt;Node9</title>
<g id="a_edge12_Node000009_Node000011"><a xlink:title=" ">
<path fill="none" stroke="#9a32cd" stroke-dasharray="5,2" d="M918.99,-30.62C935.32,-30.62 952.66,-30.62 968.65,-30.62"/>
<polygon fill="#9a32cd" stroke="#9a32cd" points="919.39,-27.13 909.39,-30.63 919.39,-34.13 919.39,-27.13"/>
</a>
</g>
<text text-anchor="middle" x="937.88" y="-32.38" font-family="Helvetica,sans-Serif" font-size="10.00" fill="grey"> data</text>
</g>
<!-- Node12&#45;&gt;Node11 -->
<g id="edge13_Node000011_Node000012" class="edge">
<title>Node12&#45;&gt;Node11</title>
<g id="a_edge13_Node000011_Node000012"><a xlink:title=" ">
<path fill="none" stroke="#9a32cd" stroke-dasharray="5,2" d="M732.15,-55.99C739.11,-54.42 746.07,-52.86 752.75,-51.38 768.71,-47.83 786.18,-44.02 801.79,-40.65"/>
<polygon fill="#9a32cd" stroke="#9a32cd" points="731.72,-52.5 722.74,-58.12 733.27,-59.33 731.72,-52.5"/>
</a>
</g>
<text text-anchor="middle" x="763.25" y="-53.38" font-family="Helvetica,sans-Serif" font-size="10.00" fill="grey"> data</text>
</g>
<!-- Node13 -->
<g id="Node000013" class="node">
<title>Node13</title>
<g id="a_Node000013"><a xlink:href="classdunedaq_1_1oks_1_1OksString.html" target="_top" xlink:title="Class OKS string.">
<polygon fill="white" stroke="#666666" points="482.88,-81.25 361.88,-81.25 361.88,-62 482.88,-62 482.88,-81.25"/>
<text text-anchor="middle" x="422.38" y="-67.75" font-family="Helvetica,sans-Serif" font-size="10.00">dunedaq::oks::OksString</text>
</a>
</g>
</g>
<!-- Node13&#45;&gt;Node12 -->
<g id="edge16_Node000012_Node000013" class="edge">
<title>Node13&#45;&gt;Node12</title>
<g id="a_edge16_Node000012_Node000013"><a xlink:title=" ">
<path fill="none" stroke="#9a32cd" stroke-dasharray="5,2" d="M494.48,-71.62C529.76,-71.62 571.81,-71.62 604.95,-71.62"/>
<polygon fill="#9a32cd" stroke="#9a32cd" points="494.8,-68.13 484.8,-71.63 494.8,-75.13 494.8,-68.13"/>
</a>
</g>
<text text-anchor="middle" x="541.75" y="-95.88" font-family="Helvetica,sans-Serif" font-size="10.00" fill="grey"> STRING</text>
<text text-anchor="middle" x="541.75" y="-84.62" font-family="Helvetica,sans-Serif" font-size="10.00" fill="grey">class_id</text>
<text text-anchor="middle" x="541.75" y="-73.38" font-family="Helvetica,sans-Serif" font-size="10.00" fill="grey">object_id</text>
</g>
<!-- Node14 -->
<g id="Node000014" class="node">
<title>Node14</title>
<g id="a_Node000014"><a xlink:title=" ">
<polygon fill="white" stroke="#666666" points="229.88,-81.25 171.88,-81.25 171.88,-62 229.88,-62 229.88,-81.25"/>
<text text-anchor="middle" x="200.88" y="-67.75" font-family="Helvetica,sans-Serif" font-size="10.00">std::string</text>
</a>
</g>
</g>
<!-- Node14&#45;&gt;Node13 -->
<g id="edge17_Node000013_Node000014" class="edge">
<title>Node14&#45;&gt;Node13</title>
<g id="a_edge17_Node000013_Node000014"><a xlink:title=" ">
<path fill="none" stroke="#63b8ff" d="M241.27,-71.62C274.69,-71.62 323.15,-71.62 361.39,-71.62"/>
<polygon fill="#63b8ff" stroke="#63b8ff" points="241.64,-68.13 231.63,-71.63 241.63,-75.13 241.64,-68.13"/>
</a>
</g>
</g>
<!-- Node15 -->
<g id="Node000015" class="node">
<title>Node15</title>
<g id="a_Node000015"><a xlink:href="classdunedaq_1_1oksdbinterfaces_1_1map.html" target="_top" xlink:title=" ">
<polygon fill="white" stroke="#666666" points="264,-219.88 137.75,-219.88 137.75,-189.38 264,-189.38 264,-219.88"/>
<text text-anchor="start" x="145.75" y="-206.38" font-family="Helvetica,sans-Serif" font-size="10.00">dunedaq::oksdbinterfaces</text>
<text text-anchor="middle" x="200.88" y="-195.12" font-family="Helvetica,sans-Serif" font-size="10.00">::map&lt; T &gt;</text>
</a>
</g>
</g>
<!-- Node15&#45;&gt;Node4 -->
<g id="edge21_Node000004_Node000015" class="edge">
<title>Node15&#45;&gt;Node4</title>
<g id="a_edge21_Node000004_Node000015"><a xlink:title=" ">
<path fill="none" stroke="#9a32cd" stroke-dasharray="5,2" d="M275.87,-204.62C303.95,-204.62 335.53,-204.62 362.08,-204.62"/>
<polygon fill="#9a32cd" stroke="#9a32cd" points="275.99,-201.13 265.99,-204.63 275.99,-208.13 275.99,-201.13"/>
</a>
</g>
<text text-anchor="middle" x="308.25" y="-206.38" font-family="Helvetica,sans-Serif" font-size="10.00" fill="grey"> p_data_info</text>
</g>
<!-- Node16 -->
<g id="Node000016" class="node">
<title>Node16</title>
<g id="a_Node000016"><a xlink:title=" ">
<polygon fill="white" stroke="#666666" points="100.75,-219.88 0,-219.88 0,-189.38 100.75,-189.38 100.75,-219.88"/>
<text text-anchor="start" x="8" y="-206.38" font-family="Helvetica,sans-Serif" font-size="10.00">std::unordered_map</text>
<text text-anchor="middle" x="50.38" y="-195.12" font-family="Helvetica,sans-Serif" font-size="10.00">&lt; std::string, T &gt;</text>
</a>
</g>
</g>
<!-- Node16&#45;&gt;Node15 -->
<g id="edge22_Node000015_Node000016" class="edge">
<title>Node16&#45;&gt;Node15</title>
<g id="a_edge22_Node000015_Node000016"><a xlink:title=" ">
<path fill="none" stroke="#63b8ff" d="M112.64,-204.62C120.84,-204.62 129.26,-204.62 137.48,-204.62"/>
<polygon fill="#63b8ff" stroke="#63b8ff" points="112.75,-201.13 102.75,-204.63 112.75,-208.13 112.75,-201.13"/>
</a>
</g>
</g>
</g>
</svg>
