<?xml version="1.0" encoding="UTF-8" standalone="no"?>
<!DOCTYPE svg PUBLIC "-//W3C//DTD SVG 1.1//EN"
 "http://www.w3.org/Graphics/SVG/1.1/DTD/svg11.dtd">
<!-- Generated by graphviz version 9.0.0 (20230911.1827)
 -->
<!-- Title: dunedaq::oksdbinterfaces::ConfigurationImpl Pages: 1 -->
<svg width="860pt" height="357pt"
 viewBox="0.00 0.00 859.75 356.62" xmlns="http://www.w3.org/2000/svg" xmlns:xlink="http://www.w3.org/1999/xlink">
<g id="graph0" class="graph" transform="scale(1 1) rotate(0) translate(4 352.62)">
<title>dunedaq::oksdbinterfaces::ConfigurationImpl</title>
<!-- Node1 -->
<g id="Node000001" class="node">
<title>Node1</title>
<g id="a_Node000001"><a xlink:title="Provides pure virtual interface used by the Configuration class.">
<polygon fill="#999999" stroke="#666666" points="584.5,-82 458.25,-82 458.25,-51.5 584.5,-51.5 584.5,-82"/>
<text text-anchor="start" x="466.25" y="-68.5" font-family="Helvetica,sans-Serif" font-size="10.00">dunedaq::oksdbinterfaces</text>
<text text-anchor="middle" x="521.38" y="-57.25" font-family="Helvetica,sans-Serif" font-size="10.00">::ConfigurationImpl</text>
</a>
</g>
</g>
<!-- Node4 -->
<g id="Node000004" class="node">
<title>Node4</title>
<g id="a_Node000004"><a xlink:href="classdunedaq_1_1oksdbinterfaces_1_1Configuration.html" target="_top" xlink:title=" ">
<polygon fill="white" stroke="#666666" points="851.75,-181 725.5,-181 725.5,-150.5 851.75,-150.5 851.75,-181"/>
<text text-anchor="start" x="733.5" y="-167.5" font-family="Helvetica,sans-Serif" font-size="10.00">dunedaq::oksdbinterfaces</text>
<text text-anchor="middle" x="788.62" y="-156.25" font-family="Helvetica,sans-Serif" font-size="10.00">::Configuration</text>
</a>
</g>
</g>
<!-- Node1&#45;&gt;Node4 -->
<g id="edge12_Node000004_Node000001" class="edge">
<title>Node1&#45;&gt;Node4</title>
<g id="a_edge12_Node000004_Node000001"><a xlink:title=" ">
<path fill="none" stroke="#9a32cd" stroke-dasharray="5,2" d="M595.7,-85.14C630.2,-94.73 671.56,-107.57 707.5,-122.5 726.33,-130.32 746.53,-141.24 761.94,-150.15"/>
<polygon fill="#9a32cd" stroke="#9a32cd" points="596.78,-81.81 586.21,-82.55 594.94,-88.56 596.78,-81.81"/>
</a>
</g>
<text text-anchor="middle" x="663.62" y="-123.5" font-family="Helvetica,sans-Serif" font-size="10.00" fill="grey"> m_impl</text>
</g>
<!-- Node2 -->
<g id="Node000002" class="node">
<title>Node2</title>
<g id="a_Node000002"><a xlink:href="classdunedaq_1_1oksdbinterfaces_1_1pmap.html" target="_top" xlink:title=" ">
<polygon fill="white" stroke="#666666" points="334.5,-64.25 171.5,-64.25 171.5,-11.25 334.5,-11.25 334.5,-64.25"/>
<text text-anchor="start" x="179.5" y="-50.75" font-family="Helvetica,sans-Serif" font-size="10.00">dunedaq::oksdbinterfaces</text>
<text text-anchor="start" x="179.5" y="-39.5" font-family="Helvetica,sans-Serif" font-size="10.00">::pmap&lt; dunedaq::oksdbinterfaces</text>
<text text-anchor="start" x="179.5" y="-28.25" font-family="Helvetica,sans-Serif" font-size="10.00">::map&lt; dunedaq::oksdbinterfaces</text>
<text text-anchor="middle" x="253" y="-17" font-family="Helvetica,sans-Serif" font-size="10.00">::ConfigObjectImpl * &gt; * &gt;</text>
</a>
</g>
</g>
<!-- Node2&#45;&gt;Node1 -->
<g id="edge1_Node000001_Node000002" class="edge">
<title>Node2&#45;&gt;Node1</title>
<g id="a_edge1_Node000001_Node000002"><a xlink:title=" ">
<path fill="none" stroke="#9a32cd" stroke-dasharray="5,2" d="M345.93,-47.76C382.85,-51.78 424.45,-56.31 457.77,-59.93"/>
<polygon fill="#9a32cd" stroke="#9a32cd" points="346.47,-44.3 336.15,-46.69 345.71,-51.26 346.47,-44.3"/>
</a>
</g>
<text text-anchor="middle" x="387.75" y="-57.5" font-family="Helvetica,sans-Serif" font-size="10.00" fill="grey"> m_impl_objects</text>
</g>
<!-- Node3 -->
<g id="Node000003" class="node">
<title>Node3</title>
<g id="a_Node000003"><a xlink:title=" ">
<polygon fill="white" stroke="#666666" points="134.5,-75.5 0,-75.5 0,0 134.5,0 134.5,-75.5"/>
<text text-anchor="start" x="8" y="-62" font-family="Helvetica,sans-Serif" font-size="10.00">std::map&lt; const std</text>
<text text-anchor="start" x="8" y="-50.75" font-family="Helvetica,sans-Serif" font-size="10.00">::string *, dunedaq</text>
<text text-anchor="start" x="8" y="-39.5" font-family="Helvetica,sans-Serif" font-size="10.00">::oksdbinterfaces::map</text>
<text text-anchor="start" x="8" y="-28.25" font-family="Helvetica,sans-Serif" font-size="10.00">&lt; dunedaq::oksdbinterfaces</text>
<text text-anchor="start" x="8" y="-17" font-family="Helvetica,sans-Serif" font-size="10.00">::ConfigObjectImpl * &gt; * ,</text>
<text text-anchor="middle" x="67.25" y="-5.75" font-family="Helvetica,sans-Serif" font-size="10.00"> string_ptr_compare &gt;</text>
</a>
</g>
</g>
<!-- Node3&#45;&gt;Node2 -->
<g id="edge2_Node000002_Node000003" class="edge">
<title>Node3&#45;&gt;Node2</title>
<g id="a_edge2_Node000002_Node000003"><a xlink:title=" ">
<path fill="none" stroke="#63b8ff" d="M146.36,-37.75C154.59,-37.75 162.97,-37.75 171.23,-37.75"/>
<polygon fill="#63b8ff" stroke="#63b8ff" points="146.36,-34.25 136.36,-37.75 146.36,-41.25 146.36,-34.25"/>
</a>
</g>
</g>
<!-- Node4&#45;&gt;Node1 -->
<g id="edge3_Node000001_Node000004" class="edge">
<title>Node4&#45;&gt;Node1</title>
<g id="a_edge3_Node000001_Node000004"><a xlink:title=" ">
<path fill="none" stroke="#9a32cd" stroke-dasharray="5,2" d="M772.37,-140.94C758.3,-120.51 735.4,-92.82 707.5,-79.5 669.56,-61.38 622.2,-58.43 584.87,-59.88"/>
<polygon fill="#9a32cd" stroke="#9a32cd" points="769.28,-142.61 777.72,-149.02 775.12,-138.75 769.28,-142.61"/>
</a>
</g>
<text text-anchor="middle" x="663.62" y="-80.5" font-family="Helvetica,sans-Serif" font-size="10.00" fill="grey"> m_conf</text>
</g>
<!-- Node5 -->
<g id="Node000005" class="node">
<title>Node5</title>
<g id="a_Node000005"><a xlink:href="classdunedaq_1_1oksdbinterfaces_1_1map.html" target="_top" xlink:title=" ">
<polygon fill="white" stroke="#666666" points="600.25,-343.62 442.5,-343.62 442.5,-301.88 600.25,-301.88 600.25,-343.62"/>
<text text-anchor="start" x="450.5" y="-330.12" font-family="Helvetica,sans-Serif" font-size="10.00">dunedaq::oksdbinterfaces</text>
<text text-anchor="start" x="450.5" y="-318.88" font-family="Helvetica,sans-Serif" font-size="10.00">::map&lt; dunedaq::oksdbinterfaces</text>
<text text-anchor="middle" x="521.38" y="-307.62" font-family="Helvetica,sans-Serif" font-size="10.00">::class_t * &gt;</text>
</a>
</g>
</g>
<!-- Node5&#45;&gt;Node4 -->
<g id="edge4_Node000004_Node000005" class="edge">
<title>Node5&#45;&gt;Node4</title>
<g id="a_edge4_Node000004_Node000005"><a xlink:title=" ">
<path fill="none" stroke="#9a32cd" stroke-dasharray="5,2" d="M606.34,-297.69C639.43,-285.7 676.78,-269.39 707.5,-248.75 735.59,-229.87 761.51,-199.75 775.89,-181.45"/>
<polygon fill="#9a32cd" stroke="#9a32cd" points="605.45,-294.3 597.19,-300.93 607.78,-300.9 605.45,-294.3"/>
</a>
</g>
<text text-anchor="start" x="619.75" y="-327.25" font-family="Helvetica,sans-Serif" font-size="10.00" fill="grey"> p_all_classes_desc</text>
<text text-anchor="middle" x="663.62" y="-316" font-family="Helvetica,sans-Serif" font-size="10.00" fill="grey">_cache</text>
<text text-anchor="start" x="619.75" y="-304.75" font-family="Helvetica,sans-Serif" font-size="10.00" fill="grey">p_direct_classes</text>
<text text-anchor="middle" x="663.62" y="-293.5" font-family="Helvetica,sans-Serif" font-size="10.00" fill="grey">_desc_cache</text>
</g>
<!-- Node6 -->
<g id="Node000006" class="node">
<title>Node6</title>
<g id="a_Node000006"><a xlink:title=" ">
<polygon fill="white" stroke="#666666" points="322.88,-348.62 183.12,-348.62 183.12,-306.88 322.88,-306.88 322.88,-348.62"/>
<text text-anchor="start" x="191.12" y="-335.12" font-family="Helvetica,sans-Serif" font-size="10.00">std::unordered_map</text>
<text text-anchor="start" x="191.12" y="-323.88" font-family="Helvetica,sans-Serif" font-size="10.00">&lt; std::string, dunedaq</text>
<text text-anchor="middle" x="253" y="-312.62" font-family="Helvetica,sans-Serif" font-size="10.00">::oksdbinterfaces::class_t * &gt;</text>
</a>
</g>
</g>
<!-- Node6&#45;&gt;Node5 -->
<g id="edge5_Node000005_Node000006" class="edge">
<title>Node6&#45;&gt;Node5</title>
<g id="a_edge5_Node000005_Node000006"><a xlink:title=" ">
<path fill="none" stroke="#63b8ff" d="M334.62,-326.24C368.68,-325.6 408.21,-324.86 442.02,-324.22"/>
<polygon fill="#63b8ff" stroke="#63b8ff" points="334.74,-322.73 324.8,-326.42 334.87,-329.73 334.74,-322.73"/>
</a>
</g>
</g>
<!-- Node7 -->
<g id="Node000007" class="node">
<title>Node7</title>
<g id="a_Node000007"><a xlink:href="classdunedaq_1_1oksdbinterfaces_1_1fmap.html" target="_top" xlink:title=" ">
<polygon fill="white" stroke="#666666" points="584.5,-277.62 458.25,-277.62 458.25,-235.88 584.5,-235.88 584.5,-277.62"/>
<text text-anchor="start" x="466.25" y="-264.12" font-family="Helvetica,sans-Serif" font-size="10.00">dunedaq::oksdbinterfaces</text>
<text text-anchor="start" x="466.25" y="-252.88" font-family="Helvetica,sans-Serif" font-size="10.00">::fmap&lt; oksdbinterfaces</text>
<text text-anchor="middle" x="521.38" y="-241.62" font-family="Helvetica,sans-Serif" font-size="10.00">::fset &gt;</text>
</a>
</g>
</g>
<!-- Node7&#45;&gt;Node4 -->
<g id="edge6_Node000004_Node000007" class="edge">
<title>Node7&#45;&gt;Node4</title>
<g id="a_edge6_Node000004_Node000007"><a xlink:title=" ">
<path fill="none" stroke="#9a32cd" stroke-dasharray="5,2" d="M595.28,-231.74C642.18,-215.65 701.68,-195.23 742,-181.4"/>
<polygon fill="#9a32cd" stroke="#9a32cd" points="594.32,-228.37 586,-234.92 596.59,-234.99 594.32,-228.37"/>
</a>
</g>
<text text-anchor="middle" x="663.62" y="-234.75" font-family="Helvetica,sans-Serif" font-size="10.00" fill="grey"> p_subclasses</text>
<text text-anchor="middle" x="663.62" y="-223.5" font-family="Helvetica,sans-Serif" font-size="10.00" fill="grey">p_superclasses</text>
</g>
<!-- Node8 -->
<g id="Node000008" class="node">
<title>Node8</title>
<g id="a_Node000008"><a xlink:title=" ">
<polygon fill="white" stroke="#666666" points="310.5,-289.25 195.5,-289.25 195.5,-236.25 310.5,-236.25 310.5,-289.25"/>
<text text-anchor="start" x="203.5" y="-275.75" font-family="Helvetica,sans-Serif" font-size="10.00">std::unordered_map</text>
<text text-anchor="start" x="203.5" y="-264.5" font-family="Helvetica,sans-Serif" font-size="10.00">&lt; const std::string</text>
<text text-anchor="start" x="203.5" y="-253.25" font-family="Helvetica,sans-Serif" font-size="10.00"> *, oksdbinterfaces::</text>
<text text-anchor="middle" x="253" y="-242" font-family="Helvetica,sans-Serif" font-size="10.00">fset , string_ptr_hash &gt;</text>
</a>
</g>
</g>
<!-- Node8&#45;&gt;Node7 -->
<g id="edge7_Node000007_Node000008" class="edge">
<title>Node8&#45;&gt;Node7</title>
<g id="a_edge7_Node000007_Node000008"><a xlink:title=" ">
<path fill="none" stroke="#63b8ff" d="M322.31,-261.21C364.17,-260.27 417.35,-259.07 458.06,-258.15"/>
<polygon fill="#63b8ff" stroke="#63b8ff" points="322.25,-257.71 312.33,-261.44 322.41,-264.71 322.25,-257.71"/>
</a>
</g>
</g>
<!-- Node9 -->
<g id="Node000009" class="node">
<title>Node9</title>
<g id="a_Node000009"><a xlink:href="classdunedaq_1_1oksdbinterfaces_1_1map.html" target="_top" xlink:title=" ">
<polygon fill="white" stroke="#666666" points="596.5,-212.25 446.25,-212.25 446.25,-159.25 596.5,-159.25 596.5,-212.25"/>
<text text-anchor="start" x="454.25" y="-198.75" font-family="Helvetica,sans-Serif" font-size="10.00">dunedaq::oksdbinterfaces</text>
<text text-anchor="start" x="454.25" y="-187.5" font-family="Helvetica,sans-Serif" font-size="10.00">::map&lt; std::list&lt; dunedaq</text>
<text text-anchor="start" x="454.25" y="-176.25" font-family="Helvetica,sans-Serif" font-size="10.00">::oksdbinterfaces::Configuration</text>
<text text-anchor="middle" x="521.38" y="-165" font-family="Helvetica,sans-Serif" font-size="10.00">::AttributeConverterBase * &gt; * &gt;</text>
</a>
</g>
</g>
<!-- Node9&#45;&gt;Node4 -->
<g id="edge8_Node000004_Node000009" class="edge">
<title>Node9&#45;&gt;Node4</title>
<g id="a_edge8_Node000004_Node000009"><a xlink:title=" ">
<path fill="none" stroke="#9a32cd" stroke-dasharray="5,2" d="M608.07,-179.29C646.21,-176.41 690.3,-173.09 725.24,-170.45"/>
<polygon fill="#9a32cd" stroke="#9a32cd" points="608.19,-175.77 598.48,-180.01 608.71,-182.75 608.19,-175.77"/>
</a>
</g>
<text text-anchor="middle" x="663.62" y="-179.5" font-family="Helvetica,sans-Serif" font-size="10.00" fill="grey"> m_convert_map</text>
</g>
<!-- Node10 -->
<g id="Node000010" class="node">
<title>Node10</title>
<g id="a_Node000010"><a xlink:title=" ">
<polygon fill="white" stroke="#666666" points="333,-217.88 173,-217.88 173,-153.62 333,-153.62 333,-217.88"/>
<text text-anchor="start" x="181" y="-204.38" font-family="Helvetica,sans-Serif" font-size="10.00">std::unordered_map</text>
<text text-anchor="start" x="181" y="-193.12" font-family="Helvetica,sans-Serif" font-size="10.00">&lt; std::string, std::</text>
<text text-anchor="start" x="181" y="-181.88" font-family="Helvetica,sans-Serif" font-size="10.00">list&lt; dunedaq::oksdbinterfaces</text>
<text text-anchor="start" x="181" y="-170.62" font-family="Helvetica,sans-Serif" font-size="10.00">::Configuration::AttributeConverter</text>
<text text-anchor="middle" x="253" y="-159.38" font-family="Helvetica,sans-Serif" font-size="10.00">Base * &gt; * &gt;</text>
</a>
</g>
</g>
<!-- Node10&#45;&gt;Node9 -->
<g id="edge9_Node000009_Node000010" class="edge">
<title>Node10&#45;&gt;Node9</title>
<g id="a_edge9_Node000009_Node000010"><a xlink:title=" ">
<path fill="none" stroke="#63b8ff" d="M344.7,-185.75C377.71,-185.75 414.61,-185.75 446.04,-185.75"/>
<polygon fill="#63b8ff" stroke="#63b8ff" points="344.71,-182.25 334.71,-185.75 344.71,-189.25 344.71,-182.25"/>
</a>
</g>
</g>
<!-- Node11 -->
<g id="Node000011" class="node">
<title>Node11</title>
<g id="a_Node000011"><a xlink:href="classdunedaq_1_1oksdbinterfaces_1_1fmap.html" target="_top" xlink:title=" ">
<polygon fill="white" stroke="#666666" points="601.75,-141.62 441,-141.62 441,-99.88 601.75,-99.88 601.75,-141.62"/>
<text text-anchor="start" x="449" y="-128.12" font-family="Helvetica,sans-Serif" font-size="10.00">dunedaq::oksdbinterfaces</text>
<text text-anchor="start" x="449" y="-116.88" font-family="Helvetica,sans-Serif" font-size="10.00">::fmap&lt; dunedaq::oksdbinterfaces</text>
<text text-anchor="middle" x="521.38" y="-105.62" font-family="Helvetica,sans-Serif" font-size="10.00">::CacheBase * &gt;</text>
</a>
</g>
</g>
<!-- Node11&#45;&gt;Node4 -->
<g id="edge10_Node000004_Node000011" class="edge">
<title>Node11&#45;&gt;Node4</title>
<g id="a_edge10_Node000004_Node000011"><a xlink:title=" ">
<path fill="none" stroke="#9a32cd" stroke-dasharray="5,2" d="M613.26,-136.17C650.21,-142.44 691.98,-149.52 725.38,-155.19"/>
<polygon fill="#9a32cd" stroke="#9a32cd" points="613.9,-132.73 603.45,-134.5 612.72,-139.63 613.9,-132.73"/>
</a>
</g>
<text text-anchor="middle" x="663.62" y="-152.5" font-family="Helvetica,sans-Serif" font-size="10.00" fill="grey"> m_cache_map</text>
</g>
<!-- Node12 -->
<g id="Node000012" class="node">
<title>Node12</title>
<g id="a_Node000012"><a xlink:title=" ">
<polygon fill="white" stroke="#666666" points="331.5,-135.25 174.5,-135.25 174.5,-82.25 331.5,-82.25 331.5,-135.25"/>
<text text-anchor="start" x="182.5" y="-121.75" font-family="Helvetica,sans-Serif" font-size="10.00">std::unordered_map</text>
<text text-anchor="start" x="182.5" y="-110.5" font-family="Helvetica,sans-Serif" font-size="10.00">&lt; const std::string</text>
<text text-anchor="start" x="182.5" y="-99.25" font-family="Helvetica,sans-Serif" font-size="10.00"> *, dunedaq::oksdbinterfaces</text>
<text text-anchor="middle" x="253" y="-88" font-family="Helvetica,sans-Serif" font-size="10.00">::CacheBase *, string_ptr_hash &gt;</text>
</a>
</g>
</g>
<!-- Node12&#45;&gt;Node11 -->
<g id="edge11_Node000011_Node000012" class="edge">
<title>Node12&#45;&gt;Node11</title>
<g id="a_edge11_Node000011_Node000012"><a xlink:title=" ">
<path fill="none" stroke="#63b8ff" d="M343.2,-112.77C374.73,-114.19 409.97,-115.78 440.67,-117.16"/>
<polygon fill="#63b8ff" stroke="#63b8ff" points="343.42,-109.27 333.27,-112.32 343.11,-116.27 343.42,-109.27"/>
</a>
</g>
</g>
</g>
</svg>
