<?xml version="1.0" encoding="UTF-8" standalone="no"?>
<!DOCTYPE svg PUBLIC "-//W3C//DTD SVG 1.1//EN"
 "http://www.w3.org/Graphics/SVG/1.1/DTD/svg11.dtd">
<!-- Generated by graphviz version 9.0.0 (20230911.1827)
 -->
<!-- Title: dbse::CustomMethodModel Pages: 1 -->
<svg width="1585pt" height="319pt"
 viewBox="0.00 0.00 1585.25 319.25" xmlns="http://www.w3.org/2000/svg" xmlns:xlink="http://www.w3.org/1999/xlink">
<g id="graph0" class="graph" transform="scale(1 1) rotate(0) translate(4 315.25)">
<title>dbse::CustomMethodModel</title>
<!-- Node1 -->
<g id="Node000001" class="node">
<title>Node1</title>
<g id="a_Node000001"><a xlink:title=" ">
<polygon fill="#999999" stroke="#666666" points="725,-300.25 591.25,-300.25 591.25,-281 725,-281 725,-300.25"/>
<text text-anchor="middle" x="658.12" y="-286.75" font-family="Helvetica,sans-Serif" font-size="10.00">dbse::CustomMethodModel</text>
</a>
</g>
</g>
<!-- Node2 -->
<g id="Node000002" class="node">
<title>Node2</title>
<g id="a_Node000002"><a xlink:href="classdbse_1_1CustomModelInterface.html" target="_top" xlink:title=" ">
<polygon fill="white" stroke="#666666" points="492.25,-311.25 352.5,-311.25 352.5,-292 492.25,-292 492.25,-311.25"/>
<text text-anchor="middle" x="422.38" y="-297.75" font-family="Helvetica,sans-Serif" font-size="10.00">dbse::CustomModelInterface</text>
</a>
</g>
</g>
<!-- Node2&#45;&gt;Node1 -->
<g id="edge1_Node000001_Node000002" class="edge">
<title>Node2&#45;&gt;Node1</title>
<g id="a_edge1_Node000001_Node000002"><a xlink:title=" ">
<path fill="none" stroke="#63b8ff" d="M503.7,-297.85C532.14,-296.51 563.79,-295.02 590.93,-293.74"/>
<polygon fill="#63b8ff" stroke="#63b8ff" points="503.9,-294.33 494.07,-298.3 504.22,-301.32 503.9,-294.33"/>
</a>
</g>
</g>
<!-- Node3 -->
<g id="Node000003" class="node">
<title>Node3</title>
<g id="a_Node000003"><a xlink:title=" ">
<polygon fill="white" stroke="#666666" points="256.12,-311.25 145.62,-311.25 145.62,-292 256.12,-292 256.12,-311.25"/>
<text text-anchor="middle" x="200.88" y="-297.75" font-family="Helvetica,sans-Serif" font-size="10.00">QAbstractTableModel</text>
</a>
</g>
</g>
<!-- Node3&#45;&gt;Node2 -->
<g id="edge2_Node000002_Node000003" class="edge">
<title>Node3&#45;&gt;Node2</title>
<g id="a_edge2_Node000002_Node000003"><a xlink:title=" ">
<path fill="none" stroke="#63b8ff" d="M267.57,-301.62C294.26,-301.62 325.1,-301.62 352.14,-301.62"/>
<polygon fill="#63b8ff" stroke="#63b8ff" points="267.93,-298.13 257.93,-301.63 267.93,-305.13 267.93,-298.13"/>
</a>
</g>
</g>
<!-- Node4 -->
<g id="Node000004" class="node">
<title>Node4</title>
<g id="a_Node000004"><a xlink:href="classdunedaq_1_1oks_1_1OksClass.html" target="_top" xlink:title="The OKS class.">
<polygon fill="white" stroke="#666666" points="482.5,-214.25 362.25,-214.25 362.25,-195 482.5,-195 482.5,-214.25"/>
<text text-anchor="middle" x="422.38" y="-200.75" font-family="Helvetica,sans-Serif" font-size="10.00">dunedaq::oks::OksClass</text>
</a>
</g>
</g>
<!-- Node4&#45;&gt;Node1 -->
<g id="edge3_Node000001_Node000004" class="edge">
<title>Node4&#45;&gt;Node1</title>
<g id="a_edge3_Node000001_Node000004"><a xlink:title=" ">
<path fill="none" stroke="#9a32cd" stroke-dasharray="5,2" d="M447.78,-220.73C464.73,-231.32 488.15,-244.79 510.25,-253.62 539.92,-265.48 574.51,-274.42 602.67,-280.53"/>
<polygon fill="#9a32cd" stroke="#9a32cd" points="449.73,-217.82 439.42,-215.39 445.97,-223.72 449.73,-217.82"/>
</a>
</g>
<text text-anchor="middle" x="541.75" y="-274.38" font-family="Helvetica,sans-Serif" font-size="10.00" fill="grey"> SchemaClass</text>
</g>
<!-- Node12 -->
<g id="Node000012" class="node">
<title>Node12</title>
<g id="a_Node000012"><a xlink:href="uniondunedaq_1_1oks_1_1OksData_1_1Data.html" target="_top" xlink:title=" ">
<polygon fill="white" stroke="#666666" points="716,-86.88 600.25,-86.88 600.25,-56.38 716,-56.38 716,-86.88"/>
<text text-anchor="start" x="608.25" y="-73.38" font-family="Helvetica,sans-Serif" font-size="10.00">dunedaq::oks::OksData</text>
<text text-anchor="middle" x="658.12" y="-62.12" font-family="Helvetica,sans-Serif" font-size="10.00">::Data</text>
</a>
</g>
</g>
<!-- Node4&#45;&gt;Node12 -->
<g id="edge14_Node000012_Node000004" class="edge">
<title>Node4&#45;&gt;Node12</title>
<g id="a_edge14_Node000012_Node000004"><a xlink:title=" ">
<path fill="none" stroke="#9a32cd" stroke-dasharray="5,2" d="M440.35,-186.83C456.9,-170.31 483.44,-145.94 510.25,-130.12 535.99,-114.94 545.46,-117.6 573.25,-106.62 588.81,-100.48 605.86,-93.42 620.5,-87.26"/>
<polygon fill="#9a32cd" stroke="#9a32cd" points="438.22,-184 433.71,-193.59 443.22,-188.9 438.22,-184"/>
</a>
</g>
<text text-anchor="middle" x="541.75" y="-143.62" font-family="Helvetica,sans-Serif" font-size="10.00" fill="grey"> CLASS</text>
<text text-anchor="middle" x="541.75" y="-132.38" font-family="Helvetica,sans-Serif" font-size="10.00" fill="grey">class_id</text>
</g>
<!-- Node5 -->
<g id="Node000005" class="node">
<title>Node5</title>
<g id="a_Node000005"><a xlink:href="classdunedaq_1_1oks_1_1OksFile.html" target="_top" xlink:title="Provides interface to the OKS XML schema and data files.">
<polygon fill="white" stroke="#666666" points="1577.25,-163.25 1466,-163.25 1466,-144 1577.25,-144 1577.25,-163.25"/>
<text text-anchor="middle" x="1521.62" y="-149.75" font-family="Helvetica,sans-Serif" font-size="10.00">dunedaq::oks::OksFile</text>
</a>
</g>
</g>
<!-- Node5&#45;&gt;Node4 -->
<g id="edge4_Node000004_Node000005" class="edge">
<title>Node5&#45;&gt;Node4</title>
<g id="a_edge4_Node000004_Node000005"><a xlink:title=" ">
<path fill="none" stroke="#9a32cd" stroke-dasharray="5,2" d="M1496.75,-169.83C1456.54,-195.5 1371.96,-242.62 1292.88,-242.62 657.12,-242.62 657.12,-242.62 657.12,-242.62 587.44,-242.62 507.56,-225.97 461.53,-214.71"/>
<polygon fill="#9a32cd" stroke="#9a32cd" points="1498.47,-172.88 1504.94,-164.49 1494.65,-167.02 1498.47,-172.88"/>
</a>
</g>
<text text-anchor="middle" x="928.12" y="-244.38" font-family="Helvetica,sans-Serif" font-size="10.00" fill="grey"> p_file</text>
</g>
<!-- Node5&#45;&gt;Node5 -->
<g id="edge5_Node000005_Node000005" class="edge">
<title>Node5&#45;&gt;Node5</title>
<g id="a_edge5_Node000005_Node000005"><a xlink:title=" ">
<path fill="none" stroke="#9a32cd" stroke-dasharray="5,2" d="M1501.77,-174.65C1504.25,-178.53 1510.87,-181.25 1521.62,-181.25 1541.29,-181.25 1547.13,-172.15 1539.14,-163.54"/>
<polygon fill="#9a32cd" stroke="#9a32cd" points="1505.16,-175.53 1503.8,-165.02 1498.31,-174.08 1505.16,-175.53"/>
</a>
</g>
<text text-anchor="middle" x="1521.62" y="-183" font-family="Helvetica,sans-Serif" font-size="10.00" fill="grey"> p_included_by</text>
</g>
<!-- Node6 -->
<g id="Node000006" class="node">
<title>Node6</title>
<g id="a_Node000006"><a xlink:href="classdunedaq_1_1oks_1_1OksKernel.html" target="_top" xlink:title="Provides interface to the OKS kernel.">
<polygon fill="white" stroke="#666666" points="1353.5,-163.25 1230.25,-163.25 1230.25,-144 1353.5,-144 1353.5,-163.25"/>
<text text-anchor="middle" x="1291.88" y="-149.75" font-family="Helvetica,sans-Serif" font-size="10.00">dunedaq::oks::OksKernel</text>
</a>
</g>
</g>
<!-- Node5&#45;&gt;Node6 -->
<g id="edge7_Node000006_Node000005" class="edge">
<title>Node5&#45;&gt;Node6</title>
<g id="a_edge7_Node000006_Node000005"><a xlink:title=" ">
<path fill="none" stroke="#9a32cd" stroke-dasharray="5,2" d="M1487.65,-139.4C1475.43,-134.85 1461.31,-130.39 1448,-128.12 1414.48,-122.41 1405.08,-122.82 1371.5,-128.12 1352.79,-131.08 1332.47,-137.77 1317.18,-143.55"/>
<polygon fill="#9a32cd" stroke="#9a32cd" points="1486.26,-142.62 1496.84,-143.01 1488.81,-136.1 1486.26,-142.62"/>
</a>
</g>
<text text-anchor="middle" x="1409.75" y="-141.62" font-family="Helvetica,sans-Serif" font-size="10.00" fill="grey"> p_active_data</text>
<text text-anchor="middle" x="1409.75" y="-130.38" font-family="Helvetica,sans-Serif" font-size="10.00" fill="grey">p_active_schema</text>
</g>
<!-- Node9 -->
<g id="Node000009" class="node">
<title>Node9</title>
<g id="a_Node000009"><a xlink:href="classdunedaq_1_1oks_1_1OksObject.html" target="_top" xlink:title="OksObject describes instance of OksClass.">
<polygon fill="white" stroke="#666666" points="1083.25,-40.25 959.25,-40.25 959.25,-21 1083.25,-21 1083.25,-40.25"/>
<text text-anchor="middle" x="1021.25" y="-26.75" font-family="Helvetica,sans-Serif" font-size="10.00">dunedaq::oks::OksObject</text>
</a>
</g>
</g>
<!-- Node5&#45;&gt;Node9 -->
<g id="edge19_Node000009_Node000005" class="edge">
<title>Node5&#45;&gt;Node9</title>
<g id="a_edge19_Node000009_Node000005"><a xlink:title=" ">
<path fill="none" stroke="#9a32cd" stroke-dasharray="5,2" d="M1490.05,-138.85C1477.2,-132.87 1462.01,-126.11 1448,-120.62 1345.23,-80.41 1320.6,-63.61 1212.25,-42.62 1169.74,-34.39 1120.99,-31.44 1083.51,-30.53"/>
<polygon fill="#9a32cd" stroke="#9a32cd" points="1488.31,-141.9 1498.85,-143 1491.29,-135.57 1488.31,-141.9"/>
</a>
</g>
<text text-anchor="middle" x="1291.88" y="-84.38" font-family="Helvetica,sans-Serif" font-size="10.00" fill="grey"> file</text>
</g>
<!-- Node6&#45;&gt;Node4 -->
<g id="edge20_Node000004_Node000006" class="edge">
<title>Node6&#45;&gt;Node4</title>
<g id="a_edge20_Node000004_Node000006"><a xlink:title=" ">
<path fill="none" stroke="#9a32cd" stroke-dasharray="5,2" d="M1218.64,-159.02C1164.59,-162.59 1088.83,-166.62 1022.25,-166.62 657.12,-166.62 657.12,-166.62 657.12,-166.62 587.44,-166.62 507.56,-183.28 461.53,-194.54"/>
<polygon fill="#9a32cd" stroke="#9a32cd" points="1218.59,-162.53 1228.33,-158.36 1218.11,-155.55 1218.59,-162.53"/>
</a>
</g>
<text text-anchor="middle" x="839.88" y="-168.38" font-family="Helvetica,sans-Serif" font-size="10.00" fill="grey"> p_kernel</text>
</g>
<!-- Node6&#45;&gt;Node5 -->
<g id="edge6_Node000005_Node000006" class="edge">
<title>Node6&#45;&gt;Node5</title>
<g id="a_edge6_Node000005_Node000006"><a xlink:title=" ">
<path fill="none" stroke="#9a32cd" stroke-dasharray="5,2" d="M1365.24,-154.58C1367.35,-154.6 1369.44,-154.61 1371.5,-154.62 1405.5,-154.84 1414,-154.86 1448,-154.62 1453.67,-154.59 1459.6,-154.53 1465.51,-154.46"/>
<polygon fill="#9a32cd" stroke="#9a32cd" points="1365.37,-151.08 1355.34,-154.49 1365.31,-158.08 1365.37,-151.08"/>
</a>
</g>
<text text-anchor="middle" x="1409.75" y="-157.38" font-family="Helvetica,sans-Serif" font-size="10.00" fill="grey"> p_kernel</text>
</g>
<!-- Node7 -->
<g id="Node000007" class="node">
<title>Node7</title>
<g id="a_Node000007"><a xlink:href="classdunedaq_1_1oks_1_1OksProfiler.html" target="_top" xlink:title=" ">
<polygon fill="white" stroke="#666666" points="1084,-138.25 958.5,-138.25 958.5,-119 1084,-119 1084,-138.25"/>
<text text-anchor="middle" x="1021.25" y="-124.75" font-family="Helvetica,sans-Serif" font-size="10.00">dunedaq::oks::OksProfiler</text>
</a>
</g>
</g>
<!-- Node7&#45;&gt;Node6 -->
<g id="edge8_Node000006_Node000007" class="edge">
<title>Node7&#45;&gt;Node6</title>
<g id="a_edge8_Node000006_Node000007"><a xlink:title=" ">
<path fill="none" stroke="#9a32cd" stroke-dasharray="5,2" d="M1095.6,-132.05C1130.92,-134.08 1173.85,-137.1 1212.25,-141.38 1218.02,-142.02 1224.01,-142.78 1229.99,-143.6"/>
<polygon fill="#9a32cd" stroke="#9a32cd" points="1096.1,-128.57 1085.92,-131.51 1095.71,-135.56 1096.1,-128.57"/>
</a>
</g>
<text text-anchor="middle" x="1157.12" y="-143.38" font-family="Helvetica,sans-Serif" font-size="10.00" fill="grey"> profiler</text>
</g>
<!-- Node8 -->
<g id="Node000008" class="node">
<title>Node8</title>
<g id="a_Node000008"><a xlink:href="structdunedaq_1_1oks_1_1LoadErrors.html" target="_top" xlink:title=" ">
<polygon fill="white" stroke="#666666" points="1083.62,-214.25 958.88,-214.25 958.88,-195 1083.62,-195 1083.62,-214.25"/>
<text text-anchor="middle" x="1021.25" y="-200.75" font-family="Helvetica,sans-Serif" font-size="10.00">dunedaq::oks::LoadErrors</text>
</a>
</g>
</g>
<!-- Node8&#45;&gt;Node6 -->
<g id="edge9_Node000006_Node000008" class="edge">
<title>Node8&#45;&gt;Node6</title>
<g id="a_edge9_Node000006_Node000008"><a xlink:title=" ">
<path fill="none" stroke="#9a32cd" stroke-dasharray="5,2" d="M1095.27,-198.94C1130.86,-195.27 1174.11,-189.48 1212.25,-180.62 1230.53,-176.38 1250.52,-169.48 1265.77,-163.72"/>
<polygon fill="#9a32cd" stroke="#9a32cd" points="1095.11,-195.44 1085.5,-199.9 1095.8,-202.4 1095.11,-195.44"/>
</a>
</g>
<text text-anchor="middle" x="1157.12" y="-199.38" font-family="Helvetica,sans-Serif" font-size="10.00" fill="grey"> p_load_errors</text>
</g>
<!-- Node9&#45;&gt;Node6 -->
<g id="edge10_Node000006_Node000009" class="edge">
<title>Node9&#45;&gt;Node6</title>
<g id="a_edge10_Node000006_Node000009"><a xlink:title=" ">
<path fill="none" stroke="#9a32cd" stroke-dasharray="5,2" d="M1094.71,-42.09C1139.49,-50.03 1192.13,-61.15 1212.25,-72.38 1244.65,-90.46 1272.06,-126.13 1284.19,-143.56"/>
<polygon fill="#9a32cd" stroke="#9a32cd" points="1095.46,-38.67 1085,-40.4 1094.26,-45.57 1095.46,-38.67"/>
</a>
</g>
<text text-anchor="start" x="1102" y="-119.38" font-family="Helvetica,sans-Serif" font-size="10.00" fill="grey"> p_change_object_notify</text>
<text text-anchor="middle" x="1157.12" y="-108.12" font-family="Helvetica,sans-Serif" font-size="10.00" fill="grey">_fn</text>
<text text-anchor="start" x="1102" y="-96.88" font-family="Helvetica,sans-Serif" font-size="10.00" fill="grey">p_create_object_notify</text>
<text text-anchor="middle" x="1157.12" y="-85.62" font-family="Helvetica,sans-Serif" font-size="10.00" fill="grey">_fn</text>
<text text-anchor="middle" x="1157.12" y="-74.38" font-family="Helvetica,sans-Serif" font-size="10.00" fill="grey">p_delete_object_notify_fn</text>
</g>
<!-- Node9&#45;&gt;Node12 -->
<g id="edge15_Node000012_Node000009" class="edge">
<title>Node9&#45;&gt;Node12</title>
<g id="a_edge15_Node000012_Node000009"><a xlink:title=" ">
<path fill="none" stroke="#9a32cd" stroke-dasharray="5,2" d="M959.28,-42.67C952.95,-43.75 946.6,-44.76 940.5,-45.62 863.27,-56.58 773.43,-63.96 716.44,-67.98"/>
<polygon fill="#9a32cd" stroke="#9a32cd" points="959.86,-46.13 969.1,-40.94 958.64,-39.23 959.86,-46.13"/>
</a>
</g>
<text text-anchor="middle" x="839.88" y="-65.38" font-family="Helvetica,sans-Serif" font-size="10.00" fill="grey"> OBJECT</text>
</g>
<!-- Node10 -->
<g id="Node000010" class="node">
<title>Node10</title>
<g id="a_Node000010"><a xlink:title=" ">
<polygon fill="white" stroke="#666666" points="442.75,-19.25 402,-19.25 402,0 442.75,0 442.75,-19.25"/>
<text text-anchor="middle" x="422.38" y="-5.75" font-family="Helvetica,sans-Serif" font-size="10.00">struct</text>
</a>
</g>
</g>
<!-- Node10&#45;&gt;Node9 -->
<g id="edge11_Node000009_Node000010" class="edge">
<title>Node10&#45;&gt;Node9</title>
<g id="a_edge11_Node000009_Node000010"><a xlink:title=" ">
<path fill="none" stroke="#9a32cd" stroke-dasharray="5,2" d="M454.31,-8.16C530.08,-4.91 730.93,1.59 897.75,-11.62 920.38,-13.42 945.17,-16.96 966.48,-20.5"/>
<polygon fill="#9a32cd" stroke="#9a32cd" points="454.2,-4.66 444.36,-8.6 454.51,-11.65 454.2,-4.66"/>
</a>
</g>
<text text-anchor="middle" x="753.5" y="-7.38" font-family="Helvetica,sans-Serif" font-size="10.00" fill="grey"> uid</text>
</g>
<!-- Node10&#45;&gt;Node12 -->
<g id="edge18_Node000012_Node000010" class="edge">
<title>Node10&#45;&gt;Node12</title>
<g id="a_edge18_Node000012_Node000010"><a xlink:title=" ">
<path fill="none" stroke="#9a32cd" stroke-dasharray="5,2" d="M454.02,-16.19C484.43,-22.87 532.29,-33.82 573.25,-45.12 585.03,-48.38 597.63,-52.18 609.4,-55.88"/>
<polygon fill="#9a32cd" stroke="#9a32cd" points="454.89,-12.8 444.37,-14.09 453.4,-19.64 454.89,-12.8"/>
</a>
</g>
<text text-anchor="middle" x="541.75" y="-58.62" font-family="Helvetica,sans-Serif" font-size="10.00" fill="grey"> UID</text>
<text text-anchor="middle" x="541.75" y="-47.38" font-family="Helvetica,sans-Serif" font-size="10.00" fill="grey">UID2</text>
</g>
<!-- Node11 -->
<g id="Node000011" class="node">
<title>Node11</title>
<g id="a_Node000011"><a xlink:href="structdunedaq_1_1oks_1_1OksData.html" target="_top" xlink:title="the structure to pass common parameters to various read() methods of OksData and OksObject class">
<polygon fill="white" stroke="#666666" points="897.75,-40.25 782,-40.25 782,-21 897.75,-21 897.75,-40.25"/>
<text text-anchor="middle" x="839.88" y="-26.75" font-family="Helvetica,sans-Serif" font-size="10.00">dunedaq::oks::OksData</text>
</a>
</g>
</g>
<!-- Node11&#45;&gt;Node9 -->
<g id="edge12_Node000009_Node000011" class="edge">
<title>Node11&#45;&gt;Node9</title>
<g id="a_edge12_Node000009_Node000011"><a xlink:title=" ">
<path fill="none" stroke="#9a32cd" stroke-dasharray="5,2" d="M909.24,-30.62C925.57,-30.62 942.91,-30.62 958.9,-30.62"/>
<polygon fill="#9a32cd" stroke="#9a32cd" points="909.64,-27.13 899.64,-30.63 909.64,-34.13 909.64,-27.13"/>
</a>
</g>
<text text-anchor="middle" x="928.12" y="-32.38" font-family="Helvetica,sans-Serif" font-size="10.00" fill="grey"> data</text>
</g>
<!-- Node12&#45;&gt;Node11 -->
<g id="edge13_Node000011_Node000012" class="edge">
<title>Node12&#45;&gt;Node11</title>
<g id="a_edge13_Node000011_Node000012"><a xlink:title=" ">
<path fill="none" stroke="#9a32cd" stroke-dasharray="5,2" d="M727.28,-55.03C732.6,-53.78 737.88,-52.55 743,-51.38 758.6,-47.8 775.68,-44.06 791.03,-40.75"/>
<polygon fill="#9a32cd" stroke="#9a32cd" points="726.78,-51.55 717.86,-57.26 728.39,-58.36 726.78,-51.55"/>
</a>
</g>
<text text-anchor="middle" x="753.5" y="-53.38" font-family="Helvetica,sans-Serif" font-size="10.00" fill="grey"> data</text>
</g>
<!-- Node13 -->
<g id="Node000013" class="node">
<title>Node13</title>
<g id="a_Node000013"><a xlink:href="classdunedaq_1_1oks_1_1OksString.html" target="_top" xlink:title="Class OKS string.">
<polygon fill="white" stroke="#666666" points="482.88,-81.25 361.88,-81.25 361.88,-62 482.88,-62 482.88,-81.25"/>
<text text-anchor="middle" x="422.38" y="-67.75" font-family="Helvetica,sans-Serif" font-size="10.00">dunedaq::oks::OksString</text>
</a>
</g>
</g>
<!-- Node13&#45;&gt;Node12 -->
<g id="edge16_Node000012_Node000013" class="edge">
<title>Node13&#45;&gt;Node12</title>
<g id="a_edge16_Node000012_Node000013"><a xlink:title=" ">
<path fill="none" stroke="#9a32cd" stroke-dasharray="5,2" d="M494.46,-71.62C528.22,-71.62 568.02,-71.62 599.81,-71.62"/>
<polygon fill="#9a32cd" stroke="#9a32cd" points="494.78,-68.13 484.78,-71.63 494.78,-75.13 494.78,-68.13"/>
</a>
</g>
<text text-anchor="middle" x="541.75" y="-95.88" font-family="Helvetica,sans-Serif" font-size="10.00" fill="grey"> STRING</text>
<text text-anchor="middle" x="541.75" y="-84.62" font-family="Helvetica,sans-Serif" font-size="10.00" fill="grey">class_id</text>
<text text-anchor="middle" x="541.75" y="-73.38" font-family="Helvetica,sans-Serif" font-size="10.00" fill="grey">object_id</text>
</g>
<!-- Node14 -->
<g id="Node000014" class="node">
<title>Node14</title>
<g id="a_Node000014"><a xlink:title=" ">
<polygon fill="white" stroke="#666666" points="229.88,-81.25 171.88,-81.25 171.88,-62 229.88,-62 229.88,-81.25"/>
<text text-anchor="middle" x="200.88" y="-67.75" font-family="Helvetica,sans-Serif" font-size="10.00">std::string</text>
</a>
</g>
</g>
<!-- Node14&#45;&gt;Node13 -->
<g id="edge17_Node000013_Node000014" class="edge">
<title>Node14&#45;&gt;Node13</title>
<g id="a_edge17_Node000013_Node000014"><a xlink:title=" ">
<path fill="none" stroke="#63b8ff" d="M241.27,-71.62C274.69,-71.62 323.15,-71.62 361.39,-71.62"/>
<polygon fill="#63b8ff" stroke="#63b8ff" points="241.64,-68.13 231.63,-71.63 241.63,-75.13 241.64,-68.13"/>
</a>
</g>
</g>
<!-- Node15 -->
<g id="Node000015" class="node">
<title>Node15</title>
<g id="a_Node000015"><a xlink:href="classdunedaq_1_1oksdbinterfaces_1_1map.html" target="_top" xlink:title=" ">
<polygon fill="white" stroke="#666666" points="264,-219.88 137.75,-219.88 137.75,-189.38 264,-189.38 264,-219.88"/>
<text text-anchor="start" x="145.75" y="-206.38" font-family="Helvetica,sans-Serif" font-size="10.00">dunedaq::oksdbinterfaces</text>
<text text-anchor="middle" x="200.88" y="-195.12" font-family="Helvetica,sans-Serif" font-size="10.00">::map&lt; T &gt;</text>
</a>
</g>
</g>
<!-- Node15&#45;&gt;Node4 -->
<g id="edge21_Node000004_Node000015" class="edge">
<title>Node15&#45;&gt;Node4</title>
<g id="a_edge21_Node000004_Node000015"><a xlink:title=" ">
<path fill="none" stroke="#9a32cd" stroke-dasharray="5,2" d="M275.87,-204.62C303.95,-204.62 335.53,-204.62 362.08,-204.62"/>
<polygon fill="#9a32cd" stroke="#9a32cd" points="275.99,-201.13 265.99,-204.63 275.99,-208.13 275.99,-201.13"/>
</a>
</g>
<text text-anchor="middle" x="308.25" y="-206.38" font-family="Helvetica,sans-Serif" font-size="10.00" fill="grey"> p_data_info</text>
</g>
<!-- Node16 -->
<g id="Node000016" class="node">
<title>Node16</title>
<g id="a_Node000016"><a xlink:title=" ">
<polygon fill="white" stroke="#666666" points="100.75,-219.88 0,-219.88 0,-189.38 100.75,-189.38 100.75,-219.88"/>
<text text-anchor="start" x="8" y="-206.38" font-family="Helvetica,sans-Serif" font-size="10.00">std::unordered_map</text>
<text text-anchor="middle" x="50.38" y="-195.12" font-family="Helvetica,sans-Serif" font-size="10.00">&lt; std::string, T &gt;</text>
</a>
</g>
</g>
<!-- Node16&#45;&gt;Node15 -->
<g id="edge22_Node000015_Node000016" class="edge">
<title>Node16&#45;&gt;Node15</title>
<g id="a_edge22_Node000015_Node000016"><a xlink:title=" ">
<path fill="none" stroke="#63b8ff" d="M112.64,-204.62C120.84,-204.62 129.26,-204.62 137.48,-204.62"/>
<polygon fill="#63b8ff" stroke="#63b8ff" points="112.75,-201.13 102.75,-204.63 112.75,-208.13 112.75,-201.13"/>
</a>
</g>
</g>
</g>
</svg>
