<?xml version="1.0" encoding="UTF-8" standalone="no"?>
<!DOCTYPE svg PUBLIC "-//W3C//DTD SVG 1.1//EN"
 "http://www.w3.org/Graphics/SVG/1.1/DTD/svg11.dtd">
<!-- Generated by graphviz version 9.0.0 (20230911.1827)
 -->
<!-- Title: dbse::CustomSuperClassModel Pages: 1 -->
<svg width="1603pt" height="319pt"
 viewBox="0.00 0.00 1603.25 319.25" xmlns="http://www.w3.org/2000/svg" xmlns:xlink="http://www.w3.org/1999/xlink">
<g id="graph0" class="graph" transform="scale(1 1) rotate(0) translate(4 315.25)">
<title>dbse::CustomSuperClassModel</title>
<!-- Node1 -->
<g id="Node000001" class="node">
<title>Node1</title>
<g id="a_Node000001"><a xlink:title=" ">
<polygon fill="#999999" stroke="#666666" points="743,-300.25 591.25,-300.25 591.25,-281 743,-281 743,-300.25"/>
<text text-anchor="middle" x="667.12" y="-286.75" font-family="Helvetica,sans-Serif" font-size="10.00">dbse::CustomSuperClassModel</text>
</a>
</g>
</g>
<!-- Node2 -->
<g id="Node000002" class="node">
<title>Node2</title>
<g id="a_Node000002"><a xlink:href="classdbse_1_1CustomModelInterface.html" target="_top" xlink:title=" ">
<polygon fill="white" stroke="#666666" points="492.25,-311.25 352.5,-311.25 352.5,-292 492.25,-292 492.25,-311.25"/>
<text text-anchor="middle" x="422.38" y="-297.75" font-family="Helvetica,sans-Serif" font-size="10.00">dbse::CustomModelInterface</text>
</a>
</g>
</g>
<!-- Node2&#45;&gt;Node1 -->
<g id="edge1_Node000001_Node000002" class="edge">
<title>Node2&#45;&gt;Node1</title>
<g id="a_edge1_Node000001_Node000002"><a xlink:title=" ">
<path fill="none" stroke="#63b8ff" d="M503.98,-297.97C531.99,-296.7 563.28,-295.29 590.84,-294.04"/>
<polygon fill="#63b8ff" stroke="#63b8ff" points="503.96,-294.47 494.12,-298.42 504.27,-301.46 503.96,-294.47"/>
</a>
</g>
</g>
<!-- Node3 -->
<g id="Node000003" class="node">
<title>Node3</title>
<g id="a_Node000003"><a xlink:title=" ">
<polygon fill="white" stroke="#666666" points="256.12,-311.25 145.62,-311.25 145.62,-292 256.12,-292 256.12,-311.25"/>
<text text-anchor="middle" x="200.88" y="-297.75" font-family="Helvetica,sans-Serif" font-size="10.00">QAbstractTableModel</text>
</a>
</g>
</g>
<!-- Node3&#45;&gt;Node2 -->
<g id="edge2_Node000002_Node000003" class="edge">
<title>Node3&#45;&gt;Node2</title>
<g id="a_edge2_Node000002_Node000003"><a xlink:title=" ">
<path fill="none" stroke="#63b8ff" d="M267.57,-301.62C294.26,-301.62 325.1,-301.62 352.14,-301.62"/>
<polygon fill="#63b8ff" stroke="#63b8ff" points="267.93,-298.13 257.93,-301.63 267.93,-305.13 267.93,-298.13"/>
</a>
</g>
</g>
<!-- Node4 -->
<g id="Node000004" class="node">
<title>Node4</title>
<g id="a_Node000004"><a xlink:href="classdunedaq_1_1oks_1_1OksClass.html" target="_top" xlink:title="The OKS class.">
<polygon fill="white" stroke="#666666" points="482.5,-214.25 362.25,-214.25 362.25,-195 482.5,-195 482.5,-214.25"/>
<text text-anchor="middle" x="422.38" y="-200.75" font-family="Helvetica,sans-Serif" font-size="10.00">dunedaq::oks::OksClass</text>
</a>
</g>
</g>
<!-- Node4&#45;&gt;Node1 -->
<g id="edge3_Node000001_Node000004" class="edge">
<title>Node4&#45;&gt;Node1</title>
<g id="a_edge3_Node000001_Node000004"><a xlink:title=" ">
<path fill="none" stroke="#9a32cd" stroke-dasharray="5,2" d="M447.75,-220.83C464.67,-231.46 488.09,-244.94 510.25,-253.62 541.07,-265.7 576.92,-274.54 606.46,-280.55"/>
<polygon fill="#9a32cd" stroke="#9a32cd" points="449.69,-217.92 439.39,-215.47 445.91,-223.81 449.69,-217.92"/>
</a>
</g>
<text text-anchor="middle" x="541.75" y="-274.38" font-family="Helvetica,sans-Serif" font-size="10.00" fill="grey"> SchemaClass</text>
</g>
<!-- Node12 -->
<g id="Node000012" class="node">
<title>Node12</title>
<g id="a_Node000012"><a xlink:href="uniondunedaq_1_1oks_1_1OksData_1_1Data.html" target="_top" xlink:title=" ">
<polygon fill="white" stroke="#666666" points="725,-86.88 609.25,-86.88 609.25,-56.38 725,-56.38 725,-86.88"/>
<text text-anchor="start" x="617.25" y="-73.38" font-family="Helvetica,sans-Serif" font-size="10.00">dunedaq::oks::OksData</text>
<text text-anchor="middle" x="667.12" y="-62.12" font-family="Helvetica,sans-Serif" font-size="10.00">::Data</text>
</a>
</g>
</g>
<!-- Node4&#45;&gt;Node12 -->
<g id="edge14_Node000012_Node000004" class="edge">
<title>Node4&#45;&gt;Node12</title>
<g id="a_edge14_Node000012_Node000004"><a xlink:title=" ">
<path fill="none" stroke="#9a32cd" stroke-dasharray="5,2" d="M440.35,-186.83C456.9,-170.31 483.44,-145.94 510.25,-130.12 535.99,-114.94 545.27,-117.12 573.25,-106.62 590.03,-100.33 608.5,-93.38 624.53,-87.34"/>
<polygon fill="#9a32cd" stroke="#9a32cd" points="438.22,-184 433.71,-193.59 443.22,-188.9 438.22,-184"/>
</a>
</g>
<text text-anchor="middle" x="541.75" y="-143.62" font-family="Helvetica,sans-Serif" font-size="10.00" fill="grey"> CLASS</text>
<text text-anchor="middle" x="541.75" y="-132.38" font-family="Helvetica,sans-Serif" font-size="10.00" fill="grey">class_id</text>
</g>
<!-- Node5 -->
<g id="Node000005" class="node">
<title>Node5</title>
<g id="a_Node000005"><a xlink:href="classdunedaq_1_1oks_1_1OksFile.html" target="_top" xlink:title="Provides interface to the OKS XML schema and data files.">
<polygon fill="white" stroke="#666666" points="1595.25,-163.25 1484,-163.25 1484,-144 1595.25,-144 1595.25,-163.25"/>
<text text-anchor="middle" x="1539.62" y="-149.75" font-family="Helvetica,sans-Serif" font-size="10.00">dunedaq::oks::OksFile</text>
</a>
</g>
</g>
<!-- Node5&#45;&gt;Node4 -->
<g id="edge4_Node000004_Node000005" class="edge">
<title>Node5&#45;&gt;Node4</title>
<g id="a_edge4_Node000004_Node000005"><a xlink:title=" ">
<path fill="none" stroke="#9a32cd" stroke-dasharray="5,2" d="M1514.75,-169.83C1474.54,-195.5 1389.96,-242.62 1310.88,-242.62 666.12,-242.62 666.12,-242.62 666.12,-242.62 593.82,-242.62 510.84,-225.97 463.03,-214.71"/>
<polygon fill="#9a32cd" stroke="#9a32cd" points="1516.47,-172.88 1522.94,-164.49 1512.65,-167.02 1516.47,-172.88"/>
</a>
</g>
<text text-anchor="middle" x="946.12" y="-244.38" font-family="Helvetica,sans-Serif" font-size="10.00" fill="grey"> p_file</text>
</g>
<!-- Node5&#45;&gt;Node5 -->
<g id="edge5_Node000005_Node000005" class="edge">
<title>Node5&#45;&gt;Node5</title>
<g id="a_edge5_Node000005_Node000005"><a xlink:title=" ">
<path fill="none" stroke="#9a32cd" stroke-dasharray="5,2" d="M1519.77,-174.65C1522.25,-178.53 1528.87,-181.25 1539.62,-181.25 1559.29,-181.25 1565.13,-172.15 1557.14,-163.54"/>
<polygon fill="#9a32cd" stroke="#9a32cd" points="1523.16,-175.53 1521.8,-165.02 1516.31,-174.08 1523.16,-175.53"/>
</a>
</g>
<text text-anchor="middle" x="1539.62" y="-183" font-family="Helvetica,sans-Serif" font-size="10.00" fill="grey"> p_included_by</text>
</g>
<!-- Node6 -->
<g id="Node000006" class="node">
<title>Node6</title>
<g id="a_Node000006"><a xlink:href="classdunedaq_1_1oks_1_1OksKernel.html" target="_top" xlink:title="Provides interface to the OKS kernel.">
<polygon fill="white" stroke="#666666" points="1371.5,-163.25 1248.25,-163.25 1248.25,-144 1371.5,-144 1371.5,-163.25"/>
<text text-anchor="middle" x="1309.88" y="-149.75" font-family="Helvetica,sans-Serif" font-size="10.00">dunedaq::oks::OksKernel</text>
</a>
</g>
</g>
<!-- Node5&#45;&gt;Node6 -->
<g id="edge7_Node000006_Node000005" class="edge">
<title>Node5&#45;&gt;Node6</title>
<g id="a_edge7_Node000006_Node000005"><a xlink:title=" ">
<path fill="none" stroke="#9a32cd" stroke-dasharray="5,2" d="M1505.65,-139.4C1493.43,-134.85 1479.31,-130.39 1466,-128.12 1432.48,-122.41 1423.08,-122.82 1389.5,-128.12 1370.79,-131.08 1350.47,-137.77 1335.18,-143.55"/>
<polygon fill="#9a32cd" stroke="#9a32cd" points="1504.26,-142.62 1514.84,-143.01 1506.81,-136.1 1504.26,-142.62"/>
</a>
</g>
<text text-anchor="middle" x="1427.75" y="-141.62" font-family="Helvetica,sans-Serif" font-size="10.00" fill="grey"> p_active_data</text>
<text text-anchor="middle" x="1427.75" y="-130.38" font-family="Helvetica,sans-Serif" font-size="10.00" fill="grey">p_active_schema</text>
</g>
<!-- Node9 -->
<g id="Node000009" class="node">
<title>Node9</title>
<g id="a_Node000009"><a xlink:href="classdunedaq_1_1oks_1_1OksObject.html" target="_top" xlink:title="OksObject describes instance of OksClass.">
<polygon fill="white" stroke="#666666" points="1101.25,-40.25 977.25,-40.25 977.25,-21 1101.25,-21 1101.25,-40.25"/>
<text text-anchor="middle" x="1039.25" y="-26.75" font-family="Helvetica,sans-Serif" font-size="10.00">dunedaq::oks::OksObject</text>
</a>
</g>
</g>
<!-- Node5&#45;&gt;Node9 -->
<g id="edge19_Node000009_Node000005" class="edge">
<title>Node5&#45;&gt;Node9</title>
<g id="a_edge19_Node000009_Node000005"><a xlink:title=" ">
<path fill="none" stroke="#9a32cd" stroke-dasharray="5,2" d="M1508.05,-138.85C1495.2,-132.87 1480.01,-126.11 1466,-120.62 1363.23,-80.41 1338.6,-63.61 1230.25,-42.62 1187.74,-34.39 1138.99,-31.44 1101.51,-30.53"/>
<polygon fill="#9a32cd" stroke="#9a32cd" points="1506.31,-141.9 1516.85,-143 1509.29,-135.57 1506.31,-141.9"/>
</a>
</g>
<text text-anchor="middle" x="1309.88" y="-84.38" font-family="Helvetica,sans-Serif" font-size="10.00" fill="grey"> file</text>
</g>
<!-- Node6&#45;&gt;Node4 -->
<g id="edge20_Node000004_Node000006" class="edge">
<title>Node6&#45;&gt;Node4</title>
<g id="a_edge20_Node000004_Node000006"><a xlink:title=" ">
<path fill="none" stroke="#9a32cd" stroke-dasharray="5,2" d="M1236.64,-159.02C1182.59,-162.59 1106.83,-166.62 1040.25,-166.62 666.12,-166.62 666.12,-166.62 666.12,-166.62 593.82,-166.62 510.84,-183.28 463.03,-194.54"/>
<polygon fill="#9a32cd" stroke="#9a32cd" points="1236.59,-162.53 1246.33,-158.36 1236.11,-155.55 1236.59,-162.53"/>
</a>
</g>
<text text-anchor="middle" x="857.88" y="-168.38" font-family="Helvetica,sans-Serif" font-size="10.00" fill="grey"> p_kernel</text>
</g>
<!-- Node6&#45;&gt;Node5 -->
<g id="edge6_Node000005_Node000006" class="edge">
<title>Node6&#45;&gt;Node5</title>
<g id="a_edge6_Node000005_Node000006"><a xlink:title=" ">
<path fill="none" stroke="#9a32cd" stroke-dasharray="5,2" d="M1383.24,-154.58C1385.35,-154.6 1387.44,-154.61 1389.5,-154.62 1423.5,-154.84 1432,-154.86 1466,-154.62 1471.67,-154.59 1477.6,-154.53 1483.51,-154.46"/>
<polygon fill="#9a32cd" stroke="#9a32cd" points="1383.37,-151.08 1373.34,-154.49 1383.31,-158.08 1383.37,-151.08"/>
</a>
</g>
<text text-anchor="middle" x="1427.75" y="-157.38" font-family="Helvetica,sans-Serif" font-size="10.00" fill="grey"> p_kernel</text>
</g>
<!-- Node7 -->
<g id="Node000007" class="node">
<title>Node7</title>
<g id="a_Node000007"><a xlink:href="classdunedaq_1_1oks_1_1OksProfiler.html" target="_top" xlink:title=" ">
<polygon fill="white" stroke="#666666" points="1102,-138.25 976.5,-138.25 976.5,-119 1102,-119 1102,-138.25"/>
<text text-anchor="middle" x="1039.25" y="-124.75" font-family="Helvetica,sans-Serif" font-size="10.00">dunedaq::oks::OksProfiler</text>
</a>
</g>
</g>
<!-- Node7&#45;&gt;Node6 -->
<g id="edge8_Node000006_Node000007" class="edge">
<title>Node7&#45;&gt;Node6</title>
<g id="a_edge8_Node000006_Node000007"><a xlink:title=" ">
<path fill="none" stroke="#9a32cd" stroke-dasharray="5,2" d="M1113.6,-132.05C1148.92,-134.08 1191.85,-137.1 1230.25,-141.38 1236.02,-142.02 1242.01,-142.78 1247.99,-143.6"/>
<polygon fill="#9a32cd" stroke="#9a32cd" points="1114.1,-128.57 1103.92,-131.51 1113.71,-135.56 1114.1,-128.57"/>
</a>
</g>
<text text-anchor="middle" x="1175.12" y="-143.38" font-family="Helvetica,sans-Serif" font-size="10.00" fill="grey"> profiler</text>
</g>
<!-- Node8 -->
<g id="Node000008" class="node">
<title>Node8</title>
<g id="a_Node000008"><a xlink:href="structdunedaq_1_1oks_1_1LoadErrors.html" target="_top" xlink:title=" ">
<polygon fill="white" stroke="#666666" points="1101.62,-214.25 976.88,-214.25 976.88,-195 1101.62,-195 1101.62,-214.25"/>
<text text-anchor="middle" x="1039.25" y="-200.75" font-family="Helvetica,sans-Serif" font-size="10.00">dunedaq::oks::LoadErrors</text>
</a>
</g>
</g>
<!-- Node8&#45;&gt;Node6 -->
<g id="edge9_Node000006_Node000008" class="edge">
<title>Node8&#45;&gt;Node6</title>
<g id="a_edge9_Node000006_Node000008"><a xlink:title=" ">
<path fill="none" stroke="#9a32cd" stroke-dasharray="5,2" d="M1113.27,-198.94C1148.86,-195.27 1192.11,-189.48 1230.25,-180.62 1248.53,-176.38 1268.52,-169.48 1283.77,-163.72"/>
<polygon fill="#9a32cd" stroke="#9a32cd" points="1113.11,-195.44 1103.5,-199.9 1113.8,-202.4 1113.11,-195.44"/>
</a>
</g>
<text text-anchor="middle" x="1175.12" y="-199.38" font-family="Helvetica,sans-Serif" font-size="10.00" fill="grey"> p_load_errors</text>
</g>
<!-- Node9&#45;&gt;Node6 -->
<g id="edge10_Node000006_Node000009" class="edge">
<title>Node9&#45;&gt;Node6</title>
<g id="a_edge10_Node000006_Node000009"><a xlink:title=" ">
<path fill="none" stroke="#9a32cd" stroke-dasharray="5,2" d="M1112.71,-42.09C1157.49,-50.03 1210.13,-61.15 1230.25,-72.38 1262.65,-90.46 1290.06,-126.13 1302.19,-143.56"/>
<polygon fill="#9a32cd" stroke="#9a32cd" points="1113.46,-38.67 1103,-40.4 1112.26,-45.57 1113.46,-38.67"/>
</a>
</g>
<text text-anchor="start" x="1120" y="-119.38" font-family="Helvetica,sans-Serif" font-size="10.00" fill="grey"> p_change_object_notify</text>
<text text-anchor="middle" x="1175.12" y="-108.12" font-family="Helvetica,sans-Serif" font-size="10.00" fill="grey">_fn</text>
<text text-anchor="start" x="1120" y="-96.88" font-family="Helvetica,sans-Serif" font-size="10.00" fill="grey">p_create_object_notify</text>
<text text-anchor="middle" x="1175.12" y="-85.62" font-family="Helvetica,sans-Serif" font-size="10.00" fill="grey">_fn</text>
<text text-anchor="middle" x="1175.12" y="-74.38" font-family="Helvetica,sans-Serif" font-size="10.00" fill="grey">p_delete_object_notify_fn</text>
</g>
<!-- Node9&#45;&gt;Node12 -->
<g id="edge15_Node000012_Node000009" class="edge">
<title>Node9&#45;&gt;Node12</title>
<g id="a_edge15_Node000012_Node000009"><a xlink:title=" ">
<path fill="none" stroke="#9a32cd" stroke-dasharray="5,2" d="M977.28,-42.67C970.95,-43.75 964.6,-44.76 958.5,-45.62 877.95,-57.06 784.06,-64.38 725.35,-68.25"/>
<polygon fill="#9a32cd" stroke="#9a32cd" points="977.86,-46.13 987.1,-40.94 976.64,-39.23 977.86,-46.13"/>
</a>
</g>
<text text-anchor="middle" x="857.88" y="-65.38" font-family="Helvetica,sans-Serif" font-size="10.00" fill="grey"> OBJECT</text>
</g>
<!-- Node10 -->
<g id="Node000010" class="node">
<title>Node10</title>
<g id="a_Node000010"><a xlink:title=" ">
<polygon fill="white" stroke="#666666" points="442.75,-19.25 402,-19.25 402,0 442.75,0 442.75,-19.25"/>
<text text-anchor="middle" x="422.38" y="-5.75" font-family="Helvetica,sans-Serif" font-size="10.00">struct</text>
</a>
</g>
</g>
<!-- Node10&#45;&gt;Node9 -->
<g id="edge11_Node000009_Node000010" class="edge">
<title>Node10&#45;&gt;Node9</title>
<g id="a_edge11_Node000009_Node000010"><a xlink:title=" ">
<path fill="none" stroke="#9a32cd" stroke-dasharray="5,2" d="M454.46,-8.14C532.3,-4.77 741.84,2.14 915.75,-11.62 938.38,-13.42 963.17,-16.96 984.49,-20.5"/>
<polygon fill="#9a32cd" stroke="#9a32cd" points="454.47,-4.64 444.63,-8.58 454.78,-11.63 454.47,-4.64"/>
</a>
</g>
<text text-anchor="middle" x="771.5" y="-7.38" font-family="Helvetica,sans-Serif" font-size="10.00" fill="grey"> uid</text>
</g>
<!-- Node10&#45;&gt;Node12 -->
<g id="edge18_Node000012_Node000010" class="edge">
<title>Node10&#45;&gt;Node12</title>
<g id="a_edge18_Node000012_Node000010"><a xlink:title=" ">
<path fill="none" stroke="#9a32cd" stroke-dasharray="5,2" d="M453.96,-16.44C484.32,-23.31 532.14,-34.4 573.25,-45.12 586.07,-48.47 599.82,-52.27 612.71,-55.93"/>
<polygon fill="#9a32cd" stroke="#9a32cd" points="454.85,-13.05 444.32,-14.27 453.31,-19.88 454.85,-13.05"/>
</a>
</g>
<text text-anchor="middle" x="541.75" y="-58.62" font-family="Helvetica,sans-Serif" font-size="10.00" fill="grey"> UID</text>
<text text-anchor="middle" x="541.75" y="-47.38" font-family="Helvetica,sans-Serif" font-size="10.00" fill="grey">UID2</text>
</g>
<!-- Node11 -->
<g id="Node000011" class="node">
<title>Node11</title>
<g id="a_Node000011"><a xlink:href="structdunedaq_1_1oks_1_1OksData.html" target="_top" xlink:title="the structure to pass common parameters to various read() methods of OksData and OksObject class">
<polygon fill="white" stroke="#666666" points="915.75,-40.25 800,-40.25 800,-21 915.75,-21 915.75,-40.25"/>
<text text-anchor="middle" x="857.88" y="-26.75" font-family="Helvetica,sans-Serif" font-size="10.00">dunedaq::oks::OksData</text>
</a>
</g>
</g>
<!-- Node11&#45;&gt;Node9 -->
<g id="edge12_Node000009_Node000011" class="edge">
<title>Node11&#45;&gt;Node9</title>
<g id="a_edge12_Node000009_Node000011"><a xlink:title=" ">
<path fill="none" stroke="#9a32cd" stroke-dasharray="5,2" d="M927.24,-30.62C943.57,-30.62 960.91,-30.62 976.9,-30.62"/>
<polygon fill="#9a32cd" stroke="#9a32cd" points="927.64,-27.13 917.64,-30.63 927.64,-34.13 927.64,-27.13"/>
</a>
</g>
<text text-anchor="middle" x="946.12" y="-32.38" font-family="Helvetica,sans-Serif" font-size="10.00" fill="grey"> data</text>
</g>
<!-- Node12&#45;&gt;Node11 -->
<g id="edge13_Node000011_Node000012" class="edge">
<title>Node12&#45;&gt;Node11</title>
<g id="a_edge13_Node000011_Node000012"><a xlink:title=" ">
<path fill="none" stroke="#9a32cd" stroke-dasharray="5,2" d="M736.34,-56.74C744.65,-54.93 753.02,-53.11 761,-51.38 776.98,-47.9 794.45,-44.12 810.06,-40.74"/>
<polygon fill="#9a32cd" stroke="#9a32cd" points="735.6,-53.32 726.58,-58.87 737.09,-60.16 735.6,-53.32"/>
</a>
</g>
<text text-anchor="middle" x="771.5" y="-53.38" font-family="Helvetica,sans-Serif" font-size="10.00" fill="grey"> data</text>
</g>
<!-- Node13 -->
<g id="Node000013" class="node">
<title>Node13</title>
<g id="a_Node000013"><a xlink:href="classdunedaq_1_1oks_1_1OksString.html" target="_top" xlink:title="Class OKS string.">
<polygon fill="white" stroke="#666666" points="482.88,-81.25 361.88,-81.25 361.88,-62 482.88,-62 482.88,-81.25"/>
<text text-anchor="middle" x="422.38" y="-67.75" font-family="Helvetica,sans-Serif" font-size="10.00">dunedaq::oks::OksString</text>
</a>
</g>
</g>
<!-- Node13&#45;&gt;Node12 -->
<g id="edge16_Node000012_Node000013" class="edge">
<title>Node13&#45;&gt;Node12</title>
<g id="a_edge16_Node000012_Node000013"><a xlink:title=" ">
<path fill="none" stroke="#9a32cd" stroke-dasharray="5,2" d="M494.12,-71.62C530.57,-71.62 574.44,-71.62 608.75,-71.62"/>
<polygon fill="#9a32cd" stroke="#9a32cd" points="494.58,-68.13 484.58,-71.63 494.58,-75.13 494.58,-68.13"/>
</a>
</g>
<text text-anchor="middle" x="541.75" y="-95.88" font-family="Helvetica,sans-Serif" font-size="10.00" fill="grey"> STRING</text>
<text text-anchor="middle" x="541.75" y="-84.62" font-family="Helvetica,sans-Serif" font-size="10.00" fill="grey">class_id</text>
<text text-anchor="middle" x="541.75" y="-73.38" font-family="Helvetica,sans-Serif" font-size="10.00" fill="grey">object_id</text>
</g>
<!-- Node14 -->
<g id="Node000014" class="node">
<title>Node14</title>
<g id="a_Node000014"><a xlink:title=" ">
<polygon fill="white" stroke="#666666" points="229.88,-81.25 171.88,-81.25 171.88,-62 229.88,-62 229.88,-81.25"/>
<text text-anchor="middle" x="200.88" y="-67.75" font-family="Helvetica,sans-Serif" font-size="10.00">std::string</text>
</a>
</g>
</g>
<!-- Node14&#45;&gt;Node13 -->
<g id="edge17_Node000013_Node000014" class="edge">
<title>Node14&#45;&gt;Node13</title>
<g id="a_edge17_Node000013_Node000014"><a xlink:title=" ">
<path fill="none" stroke="#63b8ff" d="M241.27,-71.62C274.69,-71.62 323.15,-71.62 361.39,-71.62"/>
<polygon fill="#63b8ff" stroke="#63b8ff" points="241.64,-68.13 231.63,-71.63 241.63,-75.13 241.64,-68.13"/>
</a>
</g>
</g>
<!-- Node15 -->
<g id="Node000015" class="node">
<title>Node15</title>
<g id="a_Node000015"><a xlink:href="classdunedaq_1_1oksdbinterfaces_1_1map.html" target="_top" xlink:title=" ">
<polygon fill="white" stroke="#666666" points="264,-219.88 137.75,-219.88 137.75,-189.38 264,-189.38 264,-219.88"/>
<text text-anchor="start" x="145.75" y="-206.38" font-family="Helvetica,sans-Serif" font-size="10.00">dunedaq::oksdbinterfaces</text>
<text text-anchor="middle" x="200.88" y="-195.12" font-family="Helvetica,sans-Serif" font-size="10.00">::map&lt; T &gt;</text>
</a>
</g>
</g>
<!-- Node15&#45;&gt;Node4 -->
<g id="edge21_Node000004_Node000015" class="edge">
<title>Node15&#45;&gt;Node4</title>
<g id="a_edge21_Node000004_Node000015"><a xlink:title=" ">
<path fill="none" stroke="#9a32cd" stroke-dasharray="5,2" d="M275.87,-204.62C303.95,-204.62 335.53,-204.62 362.08,-204.62"/>
<polygon fill="#9a32cd" stroke="#9a32cd" points="275.99,-201.13 265.99,-204.63 275.99,-208.13 275.99,-201.13"/>
</a>
</g>
<text text-anchor="middle" x="308.25" y="-206.38" font-family="Helvetica,sans-Serif" font-size="10.00" fill="grey"> p_data_info</text>
</g>
<!-- Node16 -->
<g id="Node000016" class="node">
<title>Node16</title>
<g id="a_Node000016"><a xlink:title=" ">
<polygon fill="white" stroke="#666666" points="100.75,-219.88 0,-219.88 0,-189.38 100.75,-189.38 100.75,-219.88"/>
<text text-anchor="start" x="8" y="-206.38" font-family="Helvetica,sans-Serif" font-size="10.00">std::unordered_map</text>
<text text-anchor="middle" x="50.38" y="-195.12" font-family="Helvetica,sans-Serif" font-size="10.00">&lt; std::string, T &gt;</text>
</a>
</g>
</g>
<!-- Node16&#45;&gt;Node15 -->
<g id="edge22_Node000015_Node000016" class="edge">
<title>Node16&#45;&gt;Node15</title>
<g id="a_edge22_Node000015_Node000016"><a xlink:title=" ">
<path fill="none" stroke="#63b8ff" d="M112.64,-204.62C120.84,-204.62 129.26,-204.62 137.48,-204.62"/>
<polygon fill="#63b8ff" stroke="#63b8ff" points="112.75,-201.13 102.75,-204.63 112.75,-208.13 112.75,-201.13"/>
</a>
</g>
</g>
</g>
</svg>
