<?xml version="1.0" encoding="UTF-8" standalone="no"?>
<!DOCTYPE svg PUBLIC "-//W3C//DTD SVG 1.1//EN"
 "http://www.w3.org/Graphics/SVG/1.1/DTD/svg11.dtd">
<!-- Generated by graphviz version 9.0.0 (20230911.1827)
 -->
<!-- Title: dunedaq::oks::OksKernel Pages: 1 -->
<svg width="1418pt" height="264pt"
 viewBox="0.00 0.00 1417.50 263.62" xmlns="http://www.w3.org/2000/svg" xmlns:xlink="http://www.w3.org/1999/xlink">
<g id="graph0" class="graph" transform="scale(1 1) rotate(0) translate(4 259.62)">
<title>dunedaq::oks::OksKernel</title>
<!-- Node1 -->
<g id="Node000001" class="node">
<title>Node1</title>
<g id="a_Node000001"><a xlink:title="Provides interface to the OKS kernel.">
<polygon fill="#999999" stroke="#666666" points="345.5,-76.62 222.25,-76.62 222.25,-57.38 345.5,-57.38 345.5,-76.62"/>
<text text-anchor="middle" x="283.88" y="-63.12" font-family="Helvetica,sans-Serif" font-size="10.00">dunedaq::oks::OksKernel</text>
</a>
</g>
</g>
<!-- Node2 -->
<g id="Node000002" class="node">
<title>Node2</title>
<g id="a_Node000002"><a xlink:href="classdunedaq_1_1oks_1_1OksFile.html" target="_top" xlink:title="Provides interface to the OKS XML schema and data files.">
<polygon fill="white" stroke="#666666" points="576.75,-64.62 465.5,-64.62 465.5,-45.38 576.75,-45.38 576.75,-64.62"/>
<text text-anchor="middle" x="521.12" y="-51.12" font-family="Helvetica,sans-Serif" font-size="10.00">dunedaq::oks::OksFile</text>
</a>
</g>
</g>
<!-- Node1&#45;&gt;Node2 -->
<g id="edge3_Node000002_Node000001" class="edge">
<title>Node1&#45;&gt;Node2</title>
<g id="a_edge3_Node000002_Node000001"><a xlink:title=" ">
<path fill="none" stroke="#9a32cd" stroke-dasharray="5,2" d="M357.1,-70.06C383.25,-70.49 412.99,-70.18 440,-68 448.15,-67.34 456.72,-66.32 465.1,-65.12"/>
<polygon fill="#9a32cd" stroke="#9a32cd" points="357.33,-66.57 347.26,-69.86 357.18,-73.57 357.33,-66.57"/>
</a>
</g>
<text text-anchor="middle" x="401.75" y="-72.75" font-family="Helvetica,sans-Serif" font-size="10.00" fill="grey"> p_kernel</text>
</g>
<!-- Node9 -->
<g id="Node000009" class="node">
<title>Node9</title>
<g id="a_Node000009"><a xlink:href="classdunedaq_1_1oks_1_1OksClass.html" target="_top" xlink:title="The OKS class.">
<polygon fill="white" stroke="#666666" points="793.38,-137.62 673.12,-137.62 673.12,-118.38 793.38,-118.38 793.38,-137.62"/>
<text text-anchor="middle" x="733.25" y="-124.12" font-family="Helvetica,sans-Serif" font-size="10.00">dunedaq::oks::OksClass</text>
</a>
</g>
</g>
<!-- Node1&#45;&gt;Node9 -->
<g id="edge12_Node000009_Node000001" class="edge">
<title>Node1&#45;&gt;Node9</title>
<g id="a_edge12_Node000009_Node000001"><a xlink:title=" ">
<path fill="none" stroke="#9a32cd" stroke-dasharray="5,2" d="M335.78,-79.77C344.98,-81.94 354.51,-84.11 363.5,-86 405.26,-94.79 415.71,-97.28 458,-103 531.67,-112.97 617.03,-120.05 672.7,-124.07"/>
<polygon fill="#9a32cd" stroke="#9a32cd" points="336.78,-76.41 326.24,-77.48 335.15,-83.21 336.78,-76.41"/>
</a>
</g>
<text text-anchor="middle" x="521.12" y="-117.75" font-family="Helvetica,sans-Serif" font-size="10.00" fill="grey"> p_kernel</text>
</g>
<!-- Node2&#45;&gt;Node1 -->
<g id="edge1_Node000001_Node000002" class="edge">
<title>Node2&#45;&gt;Node1</title>
<g id="a_edge1_Node000001_Node000002"><a xlink:title=" ">
<path fill="none" stroke="#9a32cd" stroke-dasharray="5,2" d="M453.94,-45.32C425.95,-42.69 393.04,-41.53 363.5,-45.5 346.95,-47.72 328.95,-52.46 314.36,-56.93"/>
<polygon fill="#9a32cd" stroke="#9a32cd" points="453.4,-48.78 463.7,-46.33 454.12,-41.82 453.4,-48.78"/>
</a>
</g>
<text text-anchor="middle" x="401.75" y="-59" font-family="Helvetica,sans-Serif" font-size="10.00" fill="grey"> p_active_data</text>
<text text-anchor="middle" x="401.75" y="-47.75" font-family="Helvetica,sans-Serif" font-size="10.00" fill="grey">p_active_schema</text>
</g>
<!-- Node2&#45;&gt;Node2 -->
<g id="edge2_Node000002_Node000002" class="edge">
<title>Node2&#45;&gt;Node2</title>
<g id="a_edge2_Node000002_Node000002"><a xlink:title=" ">
<path fill="none" stroke="#9a32cd" stroke-dasharray="5,2" d="M502.07,-76.03C504.45,-79.9 510.8,-82.62 521.12,-82.62 540,-82.62 545.6,-73.52 537.94,-64.91"/>
<polygon fill="#9a32cd" stroke="#9a32cd" points="505.46,-76.89 504.01,-66.4 498.6,-75.5 505.46,-76.89"/>
</a>
</g>
<text text-anchor="middle" x="521.12" y="-84.38" font-family="Helvetica,sans-Serif" font-size="10.00" fill="grey"> p_included_by</text>
</g>
<!-- Node5 -->
<g id="Node000005" class="node">
<title>Node5</title>
<g id="a_Node000005"><a xlink:href="classdunedaq_1_1oks_1_1OksObject.html" target="_top" xlink:title="OksObject describes instance of OksClass.">
<polygon fill="white" stroke="#666666" points="1409.5,-131.62 1285.5,-131.62 1285.5,-112.38 1409.5,-112.38 1409.5,-131.62"/>
<text text-anchor="middle" x="1347.5" y="-118.12" font-family="Helvetica,sans-Serif" font-size="10.00">dunedaq::oks::OksObject</text>
</a>
</g>
</g>
<!-- Node2&#45;&gt;Node5 -->
<g id="edge19_Node000005_Node000002" class="edge">
<title>Node2&#45;&gt;Node5</title>
<g id="a_edge19_Node000005_Node000002"><a xlink:title=" ">
<path fill="none" stroke="#9a32cd" stroke-dasharray="5,2" d="M588.2,-62.62C629.53,-66.74 683.93,-71 732.25,-71 732.25,-71 732.25,-71 1171.62,-71 1229.5,-71 1293.99,-97.06 1326.07,-111.92"/>
<polygon fill="#9a32cd" stroke="#9a32cd" points="588.71,-59.15 578.4,-61.62 588,-66.12 588.71,-59.15"/>
</a>
</g>
<text text-anchor="middle" x="997.88" y="-72.75" font-family="Helvetica,sans-Serif" font-size="10.00" fill="grey"> file</text>
</g>
<!-- Node2&#45;&gt;Node9 -->
<g id="edge11_Node000009_Node000002" class="edge">
<title>Node2&#45;&gt;Node9</title>
<g id="a_edge11_Node000009_Node000002"><a xlink:title=" ">
<path fill="none" stroke="#9a32cd" stroke-dasharray="5,2" d="M561.62,-68.72C602.79,-83.02 666.33,-105.1 703.15,-117.89"/>
<polygon fill="#9a32cd" stroke="#9a32cd" points="562.93,-65.47 552.33,-65.49 560.63,-72.08 562.93,-65.47"/>
</a>
</g>
<text text-anchor="middle" x="628.5" y="-101.75" font-family="Helvetica,sans-Serif" font-size="10.00" fill="grey"> p_file</text>
</g>
<!-- Node3 -->
<g id="Node000003" class="node">
<title>Node3</title>
<g id="a_Node000003"><a xlink:href="classdunedaq_1_1oks_1_1OksProfiler.html" target="_top" xlink:title=" ">
<polygon fill="white" stroke="#666666" points="125.5,-95.62 0,-95.62 0,-76.38 125.5,-76.38 125.5,-95.62"/>
<text text-anchor="middle" x="62.75" y="-82.12" font-family="Helvetica,sans-Serif" font-size="10.00">dunedaq::oks::OksProfiler</text>
</a>
</g>
</g>
<!-- Node3&#45;&gt;Node1 -->
<g id="edge4_Node000001_Node000003" class="edge">
<title>Node3&#45;&gt;Node1</title>
<g id="a_edge4_Node000001_Node000003"><a xlink:title=" ">
<path fill="none" stroke="#9a32cd" stroke-dasharray="5,2" d="M137.13,-79.64C164.71,-77.25 195.72,-74.56 222.03,-72.28"/>
<polygon fill="#9a32cd" stroke="#9a32cd" points="137.12,-76.12 127.46,-80.48 137.73,-83.1 137.12,-76.12"/>
</a>
</g>
<text text-anchor="middle" x="173.88" y="-80.75" font-family="Helvetica,sans-Serif" font-size="10.00" fill="grey"> profiler</text>
</g>
<!-- Node4 -->
<g id="Node000004" class="node">
<title>Node4</title>
<g id="a_Node000004"><a xlink:href="structdunedaq_1_1oks_1_1LoadErrors.html" target="_top" xlink:title=" ">
<polygon fill="white" stroke="#666666" points="125.12,-58.62 0.38,-58.62 0.38,-39.38 125.12,-39.38 125.12,-58.62"/>
<text text-anchor="middle" x="62.75" y="-45.12" font-family="Helvetica,sans-Serif" font-size="10.00">dunedaq::oks::LoadErrors</text>
</a>
</g>
</g>
<!-- Node4&#45;&gt;Node1 -->
<g id="edge5_Node000001_Node000004" class="edge">
<title>Node4&#45;&gt;Node1</title>
<g id="a_edge5_Node000001_Node000004"><a xlink:title=" ">
<path fill="none" stroke="#9a32cd" stroke-dasharray="5,2" d="M136.92,-48.84C158.63,-49.36 182.44,-50.5 204.25,-52.75 213.91,-53.75 224.16,-55.27 233.97,-56.94"/>
<polygon fill="#9a32cd" stroke="#9a32cd" points="137.01,-45.34 126.95,-48.64 136.88,-52.34 137.01,-45.34"/>
</a>
</g>
<text text-anchor="middle" x="173.88" y="-54.75" font-family="Helvetica,sans-Serif" font-size="10.00" fill="grey"> p_load_errors</text>
</g>
<!-- Node5&#45;&gt;Node1 -->
<g id="edge6_Node000001_Node000005" class="edge">
<title>Node5&#45;&gt;Node1</title>
<g id="a_edge6_Node000001_Node000005"><a xlink:title=" ">
<path fill="none" stroke="#9a32cd" stroke-dasharray="5,2" d="M1332.52,-102.96C1305.56,-68.66 1242.72,0 1171.62,0 520.12,0 520.12,0 520.12,0 437.95,0 345.6,-38.28 305.4,-56.97"/>
<polygon fill="#9a32cd" stroke="#9a32cd" points="1329.66,-104.99 1338.51,-110.81 1335.23,-100.74 1329.66,-104.99"/>
</a>
</g>
<text text-anchor="start" x="811.75" y="-46.75" font-family="Helvetica,sans-Serif" font-size="10.00" fill="grey"> p_change_object_notify</text>
<text text-anchor="middle" x="866.88" y="-35.5" font-family="Helvetica,sans-Serif" font-size="10.00" fill="grey">_fn</text>
<text text-anchor="start" x="811.75" y="-24.25" font-family="Helvetica,sans-Serif" font-size="10.00" fill="grey">p_create_object_notify</text>
<text text-anchor="middle" x="866.88" y="-13" font-family="Helvetica,sans-Serif" font-size="10.00" fill="grey">_fn</text>
<text text-anchor="middle" x="866.88" y="-1.75" font-family="Helvetica,sans-Serif" font-size="10.00" fill="grey">p_delete_object_notify_fn</text>
</g>
<!-- Node8 -->
<g id="Node000008" class="node">
<title>Node8</title>
<g id="a_Node000008"><a xlink:href="uniondunedaq_1_1oks_1_1OksData_1_1Data.html" target="_top" xlink:title=" ">
<polygon fill="white" stroke="#666666" points="1055.75,-176.25 940,-176.25 940,-145.75 1055.75,-145.75 1055.75,-176.25"/>
<text text-anchor="start" x="948" y="-162.75" font-family="Helvetica,sans-Serif" font-size="10.00">dunedaq::oks::OksData</text>
<text text-anchor="middle" x="997.88" y="-151.5" font-family="Helvetica,sans-Serif" font-size="10.00">::Data</text>
</a>
</g>
</g>
<!-- Node5&#45;&gt;Node8 -->
<g id="edge15_Node000008_Node000005" class="edge">
<title>Node5&#45;&gt;Node8</title>
<g id="a_edge15_Node000008_Node000005"><a xlink:title=" ">
<path fill="none" stroke="#9a32cd" stroke-dasharray="5,2" d="M1273.68,-120.58C1227.37,-120.7 1166.25,-122.74 1112.75,-130.75 1091.31,-133.96 1068.1,-139.7 1048.26,-145.32"/>
<polygon fill="#9a32cd" stroke="#9a32cd" points="1273.61,-124.08 1283.61,-120.59 1273.62,-117.08 1273.61,-124.08"/>
</a>
</g>
<text text-anchor="middle" x="1170.62" y="-131.75" font-family="Helvetica,sans-Serif" font-size="10.00" fill="grey"> OBJECT</text>
</g>
<!-- Node6 -->
<g id="Node000006" class="node">
<title>Node6</title>
<g id="a_Node000006"><a xlink:title=" ">
<polygon fill="white" stroke="#666666" points="753.62,-255.62 712.88,-255.62 712.88,-236.38 753.62,-236.38 753.62,-255.62"/>
<text text-anchor="middle" x="733.25" y="-242.12" font-family="Helvetica,sans-Serif" font-size="10.00">struct</text>
</a>
</g>
</g>
<!-- Node6&#45;&gt;Node5 -->
<g id="edge7_Node000005_Node000006" class="edge">
<title>Node6&#45;&gt;Node5</title>
<g id="a_edge7_Node000005_Node000006"><a xlink:title=" ">
<path fill="none" stroke="#9a32cd" stroke-dasharray="5,2" d="M765.17,-249.76C802.48,-253.66 867.04,-258.37 922,-252 1061,-235.89 1096.76,-227.16 1228.5,-180 1265.89,-166.61 1306.97,-144.63 1329.45,-131.92"/>
<polygon fill="#9a32cd" stroke="#9a32cd" points="765.89,-246.32 755.57,-248.7 765.12,-253.28 765.89,-246.32"/>
</a>
</g>
<text text-anchor="middle" x="1084.25" y="-229.75" font-family="Helvetica,sans-Serif" font-size="10.00" fill="grey"> uid</text>
</g>
<!-- Node6&#45;&gt;Node8 -->
<g id="edge18_Node000008_Node000006" class="edge">
<title>Node6&#45;&gt;Node8</title>
<g id="a_edge18_Node000008_Node000006"><a xlink:title=" ">
<path fill="none" stroke="#9a32cd" stroke-dasharray="5,2" d="M765.13,-239.43C818.39,-228.09 921.88,-206.05 922,-206 941.05,-198.49 960.83,-186.39 975.27,-176.62"/>
<polygon fill="#9a32cd" stroke="#9a32cd" points="764.5,-235.98 755.45,-241.49 765.96,-242.83 764.5,-235.98"/>
</a>
</g>
<text text-anchor="middle" x="866.88" y="-241" font-family="Helvetica,sans-Serif" font-size="10.00" fill="grey"> UID</text>
<text text-anchor="middle" x="866.88" y="-229.75" font-family="Helvetica,sans-Serif" font-size="10.00" fill="grey">UID2</text>
</g>
<!-- Node7 -->
<g id="Node000007" class="node">
<title>Node7</title>
<g id="a_Node000007"><a xlink:href="structdunedaq_1_1oks_1_1OksData.html" target="_top" xlink:title="the structure to pass common parameters to various read() methods of OksData and OksObject class">
<polygon fill="white" stroke="#666666" points="1228.5,-170.62 1112.75,-170.62 1112.75,-151.38 1228.5,-151.38 1228.5,-170.62"/>
<text text-anchor="middle" x="1170.62" y="-157.12" font-family="Helvetica,sans-Serif" font-size="10.00">dunedaq::oks::OksData</text>
</a>
</g>
</g>
<!-- Node7&#45;&gt;Node5 -->
<g id="edge8_Node000005_Node000007" class="edge">
<title>Node7&#45;&gt;Node5</title>
<g id="a_edge8_Node000005_Node000007"><a xlink:title=" ">
<path fill="none" stroke="#9a32cd" stroke-dasharray="5,2" d="M1227.66,-148.5C1251.46,-143.19 1278.84,-137.09 1301.31,-132.08"/>
<polygon fill="#9a32cd" stroke="#9a32cd" points="1227.14,-145.03 1218.14,-150.63 1228.66,-151.87 1227.14,-145.03"/>
</a>
</g>
<text text-anchor="middle" x="1257" y="-144.75" font-family="Helvetica,sans-Serif" font-size="10.00" fill="grey"> data</text>
</g>
<!-- Node8&#45;&gt;Node7 -->
<g id="edge9_Node000007_Node000008" class="edge">
<title>Node8&#45;&gt;Node7</title>
<g id="a_edge9_Node000007_Node000008"><a xlink:title=" ">
<path fill="none" stroke="#9a32cd" stroke-dasharray="5,2" d="M1067.45,-161C1082.38,-161 1098.02,-161 1112.44,-161"/>
<polygon fill="#9a32cd" stroke="#9a32cd" points="1067.72,-157.5 1057.72,-161 1067.72,-164.5 1067.72,-157.5"/>
</a>
</g>
<text text-anchor="middle" x="1084.25" y="-162.75" font-family="Helvetica,sans-Serif" font-size="10.00" fill="grey"> data</text>
</g>
<!-- Node9&#45;&gt;Node8 -->
<g id="edge10_Node000008_Node000009" class="edge">
<title>Node9&#45;&gt;Node8</title>
<g id="a_edge10_Node000008_Node000009"><a xlink:title=" ">
<path fill="none" stroke="#9a32cd" stroke-dasharray="5,2" d="M804.96,-120.06C840.47,-117.93 883.93,-118.15 922,-126.5 938.92,-130.21 956.57,-138.12 970.48,-145.43"/>
<polygon fill="#9a32cd" stroke="#9a32cd" points="804.97,-116.55 795.23,-120.73 805.45,-123.54 804.97,-116.55"/>
</a>
</g>
<text text-anchor="middle" x="866.88" y="-139" font-family="Helvetica,sans-Serif" font-size="10.00" fill="grey"> CLASS</text>
<text text-anchor="middle" x="866.88" y="-127.75" font-family="Helvetica,sans-Serif" font-size="10.00" fill="grey">class_id</text>
</g>
<!-- Node10 -->
<g id="Node000010" class="node">
<title>Node10</title>
<g id="a_Node000010"><a xlink:href="classdunedaq_1_1oksdbinterfaces_1_1map.html" target="_top" xlink:title=" ">
<polygon fill="white" stroke="#666666" points="584.25,-190.25 458,-190.25 458,-159.75 584.25,-159.75 584.25,-190.25"/>
<text text-anchor="start" x="466" y="-176.75" font-family="Helvetica,sans-Serif" font-size="10.00">dunedaq::oksdbinterfaces</text>
<text text-anchor="middle" x="521.12" y="-165.5" font-family="Helvetica,sans-Serif" font-size="10.00">::map&lt; T &gt;</text>
</a>
</g>
</g>
<!-- Node10&#45;&gt;Node9 -->
<g id="edge13_Node000009_Node000010" class="edge">
<title>Node10&#45;&gt;Node9</title>
<g id="a_edge13_Node000009_Node000010"><a xlink:title=" ">
<path fill="none" stroke="#9a32cd" stroke-dasharray="5,2" d="M595.62,-158.56C626.06,-151.75 660.39,-144.07 687.03,-138.12"/>
<polygon fill="#9a32cd" stroke="#9a32cd" points="595.07,-155.1 586.08,-160.7 596.6,-161.93 595.07,-155.1"/>
</a>
</g>
<text text-anchor="middle" x="628.5" y="-156.75" font-family="Helvetica,sans-Serif" font-size="10.00" fill="grey"> p_data_info</text>
</g>
<!-- Node11 -->
<g id="Node000011" class="node">
<title>Node11</title>
<g id="a_Node000011"><a xlink:title=" ">
<polygon fill="white" stroke="#666666" points="334.25,-190.25 233.5,-190.25 233.5,-159.75 334.25,-159.75 334.25,-190.25"/>
<text text-anchor="start" x="241.5" y="-176.75" font-family="Helvetica,sans-Serif" font-size="10.00">std::unordered_map</text>
<text text-anchor="middle" x="283.88" y="-165.5" font-family="Helvetica,sans-Serif" font-size="10.00">&lt; std::string, T &gt;</text>
</a>
</g>
</g>
<!-- Node11&#45;&gt;Node10 -->
<g id="edge14_Node000010_Node000011" class="edge">
<title>Node11&#45;&gt;Node10</title>
<g id="a_edge14_Node000010_Node000011"><a xlink:title=" ">
<path fill="none" stroke="#63b8ff" d="M345.78,-175C380.12,-175 422.96,-175 457.57,-175"/>
<polygon fill="#63b8ff" stroke="#63b8ff" points="345.99,-171.5 335.99,-175 345.99,-178.5 345.99,-171.5"/>
</a>
</g>
</g>
<!-- Node12 -->
<g id="Node000012" class="node">
<title>Node12</title>
<g id="a_Node000012"><a xlink:href="classdunedaq_1_1oks_1_1OksString.html" target="_top" xlink:title="Class OKS string.">
<polygon fill="white" stroke="#666666" points="793.75,-208.62 672.75,-208.62 672.75,-189.38 793.75,-189.38 793.75,-208.62"/>
<text text-anchor="middle" x="733.25" y="-195.12" font-family="Helvetica,sans-Serif" font-size="10.00">dunedaq::oks::OksString</text>
</a>
</g>
</g>
<!-- Node12&#45;&gt;Node8 -->
<g id="edge16_Node000008_Node000012" class="edge">
<title>Node12&#45;&gt;Node8</title>
<g id="a_edge16_Node000008_Node000012"><a xlink:title=" ">
<path fill="none" stroke="#9a32cd" stroke-dasharray="5,2" d="M768.45,-184.95C781.75,-180.09 797.24,-175.14 811.75,-172.25 854.07,-163.83 902.8,-161.14 939.65,-160.49"/>
<polygon fill="#9a32cd" stroke="#9a32cd" points="767.39,-181.61 759.29,-188.43 769.88,-188.15 767.39,-181.61"/>
</a>
</g>
<text text-anchor="middle" x="866.88" y="-196.25" font-family="Helvetica,sans-Serif" font-size="10.00" fill="grey"> STRING</text>
<text text-anchor="middle" x="866.88" y="-185" font-family="Helvetica,sans-Serif" font-size="10.00" fill="grey">class_id</text>
<text text-anchor="middle" x="866.88" y="-173.75" font-family="Helvetica,sans-Serif" font-size="10.00" fill="grey">object_id</text>
</g>
<!-- Node13 -->
<g id="Node000013" class="node">
<title>Node13</title>
<g id="a_Node000013"><a xlink:title=" ">
<polygon fill="white" stroke="#666666" points="550.12,-227.62 492.12,-227.62 492.12,-208.38 550.12,-208.38 550.12,-227.62"/>
<text text-anchor="middle" x="521.12" y="-214.12" font-family="Helvetica,sans-Serif" font-size="10.00">std::string</text>
</a>
</g>
</g>
<!-- Node13&#45;&gt;Node12 -->
<g id="edge17_Node000012_Node000013" class="edge">
<title>Node13&#45;&gt;Node12</title>
<g id="a_edge17_Node000012_Node000013"><a xlink:title=" ">
<path fill="none" stroke="#63b8ff" d="M561.76,-214.42C593,-211.59 637.06,-207.61 672.56,-204.4"/>
<polygon fill="#63b8ff" stroke="#63b8ff" points="561.61,-210.91 551.97,-215.3 562.25,-217.89 561.61,-210.91"/>
</a>
</g>
</g>
</g>
</svg>
