<?xml version="1.0" encoding="UTF-8" standalone="no"?>
<!DOCTYPE svg PUBLIC "-//W3C//DTD SVG 1.1//EN"
 "http://www.w3.org/Graphics/SVG/1.1/DTD/svg11.dtd">
<!-- Generated by graphviz version 9.0.0 (20230911.1827)
 -->
<!-- Title: sourcecode/cmdlib/include/cmdlib/CommandFacility.hpp Pages: 1 -->
<svg width="1719pt" height="393pt"
 viewBox="0.00 0.00 1718.50 392.50" xmlns="http://www.w3.org/2000/svg" xmlns:xlink="http://www.w3.org/1999/xlink">
<g id="graph0" class="graph" transform="scale(1 1) rotate(0) translate(4 388.5)">
<title>sourcecode/cmdlib/include/cmdlib/CommandFacility.hpp</title>
<!-- Node1 -->
<g id="Node000001" class="node">
<title>Node1</title>
<g id="a_Node000001"><a xlink:title=" ">
<polygon fill="#999999" stroke="#666666" points="875,-384.5 731.5,-384.5 731.5,-354 875,-354 875,-384.5"/>
<text text-anchor="start" x="739.5" y="-371" font-family="Helvetica,sans-Serif" font-size="10.00">sourcecode/cmdlib/include</text>
<text text-anchor="middle" x="803.25" y="-359.75" font-family="Helvetica,sans-Serif" font-size="10.00">/cmdlib/CommandFacility.hpp</text>
</a>
</g>
</g>
<!-- Node2 -->
<g id="Node000002" class="node">
<title>Node2</title>
<g id="a_Node000002"><a xlink:title=" ">
<polygon fill="#e0e0e0" stroke="#999999" points="104.5,-318 0,-318 0,-298.75 104.5,-298.75 104.5,-318"/>
<text text-anchor="middle" x="52.25" y="-304.5" font-family="Helvetica,sans-Serif" font-size="10.00">cmdlib/cmd/Nljs.hpp</text>
</a>
</g>
</g>
<!-- Node1&#45;&gt;Node2 -->
<g id="edge1_Node000001_Node000002" class="edge">
<title>Node1&#45;&gt;Node2</title>
<g id="a_edge1_Node000001_Node000002"><a xlink:title=" ">
<path fill="none" stroke="#63b8ff" d="M731.09,-364.61C607.39,-358.01 346.65,-342.56 116.1,-318.24"/>
<polygon fill="#63b8ff" stroke="#63b8ff" points="116.61,-314.77 106.3,-317.19 115.87,-321.73 116.61,-314.77"/>
</a>
</g>
</g>
<!-- Node3 -->
<g id="Node000003" class="node">
<title>Node3</title>
<g id="a_Node000003"><a xlink:href="CommandedObject_8hpp.html" target="_top" xlink:title=" ">
<polygon fill="white" stroke="#666666" points="239.88,-318 122.62,-318 122.62,-298.75 239.88,-298.75 239.88,-318"/>
<text text-anchor="middle" x="181.25" y="-304.5" font-family="Helvetica,sans-Serif" font-size="10.00">CommandedObject.hpp</text>
</a>
</g>
</g>
<!-- Node1&#45;&gt;Node3 -->
<g id="edge2_Node000001_Node000003" class="edge">
<title>Node1&#45;&gt;Node3</title>
<g id="a_edge2_Node000001_Node000003"><a xlink:title=" ">
<path fill="none" stroke="#63b8ff" d="M731.25,-362.27C626.28,-353.41 425.11,-335.91 254.25,-318 253.25,-317.9 252.24,-317.79 251.23,-317.68"/>
<polygon fill="#63b8ff" stroke="#63b8ff" points="252.03,-314.25 241.71,-316.64 251.27,-321.21 252.03,-314.25"/>
</a>
</g>
</g>
<!-- Node5 -->
<g id="Node000005" class="node">
<title>Node5</title>
<g id="a_Node000005"><a xlink:href="cmdlib_2include_2cmdlib_2Issues_8hpp.html" target="_top" xlink:title=" ">
<polygon fill="white" stroke="#666666" points="677.88,-318 614.62,-318 614.62,-298.75 677.88,-298.75 677.88,-318"/>
<text text-anchor="middle" x="646.25" y="-304.5" font-family="Helvetica,sans-Serif" font-size="10.00">Issues.hpp</text>
</a>
</g>
</g>
<!-- Node1&#45;&gt;Node5 -->
<g id="edge4_Node000001_Node000005" class="edge">
<title>Node1&#45;&gt;Node5</title>
<g id="a_edge4_Node000001_Node000005"><a xlink:title=" ">
<path fill="none" stroke="#63b8ff" d="M764.04,-353.55C738.52,-343.98 705.54,-331.61 680.97,-322.39"/>
<polygon fill="#63b8ff" stroke="#63b8ff" points="682.34,-319.17 671.74,-318.94 679.88,-325.72 682.34,-319.17"/>
</a>
</g>
</g>
<!-- Node11 -->
<g id="Node000011" class="node">
<title>Node11</title>
<g id="a_Node000011"><a xlink:title=" ">
<polygon fill="#e0e0e0" stroke="#999999" points="409.25,-74.5 369.25,-74.5 369.25,-55.25 409.25,-55.25 409.25,-74.5"/>
<text text-anchor="middle" x="389.25" y="-61" font-family="Helvetica,sans-Serif" font-size="10.00">string</text>
</a>
</g>
</g>
<!-- Node1&#45;&gt;Node11 -->
<g id="edge49_Node000001_Node000011" class="edge">
<title>Node1&#45;&gt;Node11</title>
<g id="a_edge49_Node000001_Node000011"><a xlink:title=" ">
<path fill="none" stroke="#63b8ff" d="M731.1,-367.77C585.07,-364.83 268.25,-347.67 268.25,-254.12 268.25,-254.12 268.25,-254.12 268.25,-191.25 268.25,-138.8 323.75,-99.89 359.58,-80.23"/>
<polygon fill="#63b8ff" stroke="#63b8ff" points="360.99,-83.45 368.2,-75.69 357.72,-77.25 360.99,-83.45"/>
</a>
</g>
</g>
<!-- Node14 -->
<g id="Node000014" class="node">
<title>Node14</title>
<g id="a_Node000014"><a xlink:title=" ">
<polygon fill="#e0e0e0" stroke="#999999" points="1710.5,-201.88 1660,-201.88 1660,-182.62 1710.5,-182.62 1710.5,-201.88"/>
<text text-anchor="middle" x="1685.25" y="-188.38" font-family="Helvetica,sans-Serif" font-size="10.00">memory</text>
</a>
</g>
</g>
<!-- Node1&#45;&gt;Node14 -->
<g id="edge48_Node000001_Node000014" class="edge">
<title>Node1&#45;&gt;Node14</title>
<g id="a_edge48_Node000001_Node000014"><a xlink:title=" ">
<path fill="none" stroke="#63b8ff" d="M767.59,-353.53C739.82,-340.03 708.83,-319.09 727.25,-298.75 865.01,-146.63 1446.18,-253.22 1646.25,-207.5 1648.27,-207.04 1650.33,-206.5 1652.39,-205.91"/>
<polygon fill="#63b8ff" stroke="#63b8ff" points="1653.4,-209.26 1661.83,-202.84 1651.24,-202.61 1653.4,-209.26"/>
</a>
</g>
</g>
<!-- Node32 -->
<g id="Node000032" class="node">
<title>Node32</title>
<g id="a_Node000032"><a xlink:title=" ">
<polygon fill="#e0e0e0" stroke="#999999" points="870.12,-318 736.38,-318 736.38,-298.75 870.12,-298.75 870.12,-318"/>
<text text-anchor="middle" x="803.25" y="-304.5" font-family="Helvetica,sans-Serif" font-size="10.00">cetlib/BasicPluginFactory.h</text>
</a>
</g>
</g>
<!-- Node1&#45;&gt;Node32 -->
<g id="edge42_Node000001_Node000032" class="edge">
<title>Node1&#45;&gt;Node32</title>
<g id="a_edge42_Node000001_Node000032"><a xlink:title=" ">
<path fill="none" stroke="#63b8ff" d="M803.25,-353.7C803.25,-346.46 803.25,-337.59 803.25,-329.69"/>
<polygon fill="#63b8ff" stroke="#63b8ff" points="806.75,-329.96 803.25,-319.96 799.75,-329.96 806.75,-329.96"/>
</a>
</g>
</g>
<!-- Node33 -->
<g id="Node000033" class="node">
<title>Node33</title>
<g id="a_Node000033"><a xlink:title=" ">
<polygon fill="#e0e0e0" stroke="#999999" points="1012.25,-318 888.25,-318 888.25,-298.75 1012.25,-298.75 1012.25,-318"/>
<text text-anchor="middle" x="950.25" y="-304.5" font-family="Helvetica,sans-Serif" font-size="10.00">cetlib/compiler_macros.h</text>
</a>
</g>
</g>
<!-- Node1&#45;&gt;Node33 -->
<g id="edge43_Node000001_Node000033" class="edge">
<title>Node1&#45;&gt;Node33</title>
<g id="a_edge43_Node000001_Node000033"><a xlink:title=" ">
<path fill="none" stroke="#63b8ff" d="M839.97,-353.55C863.64,-344.06 894.18,-331.83 917.12,-322.64"/>
<polygon fill="#63b8ff" stroke="#63b8ff" points="918.32,-325.93 926.3,-318.97 915.72,-319.44 918.32,-325.93"/>
</a>
</g>
</g>
<!-- Node34 -->
<g id="Node000034" class="node">
<title>Node34</title>
<g id="a_Node000034"><a xlink:title=" ">
<polygon fill="#e0e0e0" stroke="#999999" points="1147.88,-318 1030.62,-318 1030.62,-298.75 1147.88,-298.75 1147.88,-318"/>
<text text-anchor="middle" x="1089.25" y="-304.5" font-family="Helvetica,sans-Serif" font-size="10.00">tbb/concurrent_queue.h</text>
</a>
</g>
</g>
<!-- Node1&#45;&gt;Node34 -->
<g id="edge44_Node000001_Node000034" class="edge">
<title>Node1&#45;&gt;Node34</title>
<g id="a_edge44_Node000001_Node000034"><a xlink:title=" ">
<path fill="none" stroke="#63b8ff" d="M874.68,-353.55C923.95,-343.4 988.48,-330.12 1033.86,-320.78"/>
<polygon fill="#63b8ff" stroke="#63b8ff" points="1034.4,-324.24 1043.49,-318.8 1032.99,-317.38 1034.4,-324.24"/>
</a>
</g>
</g>
<!-- Node35 -->
<g id="Node000035" class="node">
<title>Node35</title>
<g id="a_Node000035"><a xlink:title=" ">
<polygon fill="#e0e0e0" stroke="#999999" points="1206.62,-318 1165.88,-318 1165.88,-298.75 1206.62,-298.75 1206.62,-318"/>
<text text-anchor="middle" x="1186.25" y="-304.5" font-family="Helvetica,sans-Serif" font-size="10.00">future</text>
</a>
</g>
</g>
<!-- Node1&#45;&gt;Node35 -->
<g id="edge45_Node000001_Node000035" class="edge">
<title>Node1&#45;&gt;Node35</title>
<g id="a_edge45_Node000001_Node000035"><a xlink:title=" ">
<path fill="none" stroke="#63b8ff" d="M875.34,-361.18C944.74,-353.66 1052.75,-340.09 1154.36,-318.37"/>
<polygon fill="#63b8ff" stroke="#63b8ff" points="1154.93,-321.83 1163.96,-316.29 1153.44,-314.99 1154.93,-321.83"/>
</a>
</g>
</g>
<!-- Node36 -->
<g id="Node000036" class="node">
<title>Node36</title>
<g id="a_Node000036"><a xlink:title=" ">
<polygon fill="#e0e0e0" stroke="#999999" points="1282.25,-318 1224.25,-318 1224.25,-298.75 1282.25,-298.75 1282.25,-318"/>
<text text-anchor="middle" x="1253.25" y="-304.5" font-family="Helvetica,sans-Serif" font-size="10.00">functional</text>
</a>
</g>
</g>
<!-- Node1&#45;&gt;Node36 -->
<g id="edge46_Node000001_Node000036" class="edge">
<title>Node1&#45;&gt;Node36</title>
<g id="a_edge46_Node000001_Node000036"><a xlink:title=" ">
<path fill="none" stroke="#63b8ff" d="M875.4,-361.7C955.49,-353.92 1088.78,-339.48 1212.66,-318.29"/>
<polygon fill="#63b8ff" stroke="#63b8ff" points="1213.1,-321.77 1222.36,-316.62 1211.91,-314.87 1213.1,-321.77"/>
</a>
</g>
</g>
<!-- Node37 -->
<g id="Node000037" class="node">
<title>Node37</title>
<g id="a_Node000037"><a xlink:title=" ">
<polygon fill="#e0e0e0" stroke="#999999" points="1345.88,-318 1300.62,-318 1300.62,-298.75 1345.88,-298.75 1345.88,-318"/>
<text text-anchor="middle" x="1323.25" y="-304.5" font-family="Helvetica,sans-Serif" font-size="10.00">atomic</text>
</a>
</g>
</g>
<!-- Node1&#45;&gt;Node37 -->
<g id="edge47_Node000001_Node000037" class="edge">
<title>Node1&#45;&gt;Node37</title>
<g id="a_edge47_Node000001_Node000037"><a xlink:title=" ">
<path fill="none" stroke="#63b8ff" d="M875.29,-364.46C968.72,-358.74 1136.79,-345.71 1289.32,-318.06"/>
<polygon fill="#63b8ff" stroke="#63b8ff" points="1289.59,-321.57 1298.79,-316.31 1288.32,-314.68 1289.59,-321.57"/>
</a>
</g>
</g>
<!-- Node4 -->
<g id="Node000004" class="node">
<title>Node4</title>
<g id="a_Node000004"><a xlink:title=" ">
<polygon fill="#e0e0e0" stroke="#999999" points="229.75,-262.75 132.75,-262.75 132.75,-243.5 229.75,-243.5 229.75,-262.75"/>
<text text-anchor="middle" x="181.25" y="-249.25" font-family="Helvetica,sans-Serif" font-size="10.00">nlohmann/json.hpp</text>
</a>
</g>
</g>
<!-- Node3&#45;&gt;Node4 -->
<g id="edge3_Node000003_Node000004" class="edge">
<title>Node3&#45;&gt;Node4</title>
<g id="a_edge3_Node000003_Node000004"><a xlink:title=" ">
<path fill="none" stroke="#63b8ff" d="M181.25,-298.58C181.25,-292.07 181.25,-282.92 181.25,-274.62"/>
<polygon fill="#63b8ff" stroke="#63b8ff" points="184.75,-274.62 181.25,-264.62 177.75,-274.62 184.75,-274.62"/>
</a>
</g>
</g>
<!-- Node6 -->
<g id="Node000006" class="node">
<title>Node6</title>
<g id="a_Node000006"><a xlink:href="Issue_8hpp.html" target="_top" xlink:title=" ">
<polygon fill="white" stroke="#666666" points="683.5,-262.75 609,-262.75 609,-243.5 683.5,-243.5 683.5,-262.75"/>
<text text-anchor="middle" x="646.25" y="-249.25" font-family="Helvetica,sans-Serif" font-size="10.00">ers/Issue.hpp</text>
</a>
</g>
</g>
<!-- Node5&#45;&gt;Node6 -->
<g id="edge5_Node000005_Node000006" class="edge">
<title>Node5&#45;&gt;Node6</title>
<g id="a_edge5_Node000005_Node000006"><a xlink:title=" ">
<path fill="none" stroke="#63b8ff" d="M646.25,-298.58C646.25,-292.07 646.25,-282.92 646.25,-274.62"/>
<polygon fill="#63b8ff" stroke="#63b8ff" points="649.75,-274.62 646.25,-264.62 642.75,-274.62 649.75,-274.62"/>
</a>
</g>
</g>
<!-- Node5&#45;&gt;Node11 -->
<g id="edge41_Node000005_Node000011" class="edge">
<title>Node5&#45;&gt;Node11</title>
<g id="a_edge41_Node000005_Node000011"><a xlink:title=" ">
<path fill="none" stroke="#63b8ff" d="M614.18,-307.57C551.61,-305.99 414.08,-292.5 353.25,-207.5 346.77,-198.44 344.18,-141.73 355.25,-110.5 358.81,-100.45 365.55,-90.83 372.09,-83.12"/>
<polygon fill="#63b8ff" stroke="#63b8ff" points="374.55,-85.61 378.72,-75.87 369.39,-80.88 374.55,-85.61"/>
</a>
</g>
</g>
<!-- Node7 -->
<g id="Node000007" class="node">
<title>Node7</title>
<g id="a_Node000007"><a xlink:title=" ">
<polygon fill="#e0e0e0" stroke="#999999" points="417.88,-201.88 372.62,-201.88 372.62,-182.62 417.88,-182.62 417.88,-201.88"/>
<text text-anchor="middle" x="395.25" y="-188.38" font-family="Helvetica,sans-Serif" font-size="10.00">math.h</text>
</a>
</g>
</g>
<!-- Node6&#45;&gt;Node7 -->
<g id="edge6_Node000006_Node000007" class="edge">
<title>Node6&#45;&gt;Node7</title>
<g id="a_edge6_Node000006_Node000007"><a xlink:title=" ">
<path fill="none" stroke="#63b8ff" d="M608.68,-246.19C565.59,-238.95 493.04,-225.42 432.25,-207.5 430.68,-207.04 429.09,-206.54 427.48,-206.01"/>
<polygon fill="#63b8ff" stroke="#63b8ff" points="428.98,-202.83 418.39,-202.79 426.64,-209.43 428.98,-202.83"/>
</a>
</g>
</g>
<!-- Node8 -->
<g id="Node000008" class="node">
<title>Node8</title>
<g id="a_Node000008"><a xlink:title=" ">
<polygon fill="#e0e0e0" stroke="#999999" points="1218.5,-201.88 1174,-201.88 1174,-182.62 1218.5,-182.62 1218.5,-201.88"/>
<text text-anchor="middle" x="1196.25" y="-188.38" font-family="Helvetica,sans-Serif" font-size="10.00">stdio.h</text>
</a>
</g>
</g>
<!-- Node6&#45;&gt;Node8 -->
<g id="edge7_Node000006_Node000008" class="edge">
<title>Node6&#45;&gt;Node8</title>
<g id="a_edge7_Node000006_Node000008"><a xlink:title=" ">
<path fill="none" stroke="#63b8ff" d="M683.79,-245.38C688.32,-244.68 692.88,-244.04 697.25,-243.5 904.31,-218.08 963.32,-259.88 1165.25,-207.5 1166.43,-207.2 1167.61,-206.85 1168.8,-206.47"/>
<polygon fill="#63b8ff" stroke="#63b8ff" points="1169.83,-209.82 1177.86,-202.91 1167.27,-203.3 1169.83,-209.82"/>
</a>
</g>
</g>
<!-- Node9 -->
<g id="Node000009" class="node">
<title>Node9</title>
<g id="a_Node000009"><a xlink:title=" ">
<polygon fill="#e0e0e0" stroke="#999999" points="1284,-201.88 1236.5,-201.88 1236.5,-182.62 1284,-182.62 1284,-201.88"/>
<text text-anchor="middle" x="1260.25" y="-188.38" font-family="Helvetica,sans-Serif" font-size="10.00">string.h</text>
</a>
</g>
</g>
<!-- Node6&#45;&gt;Node9 -->
<g id="edge8_Node000006_Node000009" class="edge">
<title>Node6&#45;&gt;Node9</title>
<g id="a_edge8_Node000006_Node000009"><a xlink:title=" ">
<path fill="none" stroke="#63b8ff" d="M683.79,-245.34C688.31,-244.65 692.88,-244.02 697.25,-243.5 931.72,-215.78 997.79,-263.1 1227.25,-207.5 1228.84,-207.11 1230.45,-206.66 1232.07,-206.15"/>
<polygon fill="#63b8ff" stroke="#63b8ff" points="1232.93,-209.56 1241.06,-202.77 1230.47,-203.01 1232.93,-209.56"/>
</a>
</g>
</g>
<!-- Node10 -->
<g id="Node000010" class="node">
<title>Node10</title>
<g id="a_Node000010"><a xlink:title=" ">
<polygon fill="#e0e0e0" stroke="#999999" points="406.62,-135.38 371.88,-135.38 371.88,-116.12 406.62,-116.12 406.62,-135.38"/>
<text text-anchor="middle" x="389.25" y="-121.88" font-family="Helvetica,sans-Serif" font-size="10.00">map</text>
</a>
</g>
</g>
<!-- Node6&#45;&gt;Node10 -->
<g id="edge9_Node000006_Node000010" class="edge">
<title>Node6&#45;&gt;Node10</title>
<g id="a_edge9_Node000006_Node000010"><a xlink:title=" ">
<path fill="none" stroke="#63b8ff" d="M608.66,-251.97C539.07,-250.8 394.39,-243.94 363.25,-207.5 347.98,-189.63 361.85,-162.67 374.46,-144.89"/>
<polygon fill="#63b8ff" stroke="#63b8ff" points="377.15,-147.13 380.42,-137.05 371.58,-142.89 377.15,-147.13"/>
</a>
</g>
</g>
<!-- Node6&#45;&gt;Node11 -->
<g id="edge10_Node000006_Node000011" class="edge">
<title>Node6&#45;&gt;Node11</title>
<g id="a_edge10_Node000006_Node000011"><a xlink:title=" ">
<path fill="none" stroke="#63b8ff" d="M608.57,-247.69C570.77,-242.14 511.67,-230.44 465.25,-207.5 445.84,-197.9 445.19,-189.13 427.25,-177 400.21,-158.72 379.73,-169.17 363.25,-141 352.62,-122.82 363.9,-99.63 374.74,-83.85"/>
<polygon fill="#63b8ff" stroke="#63b8ff" points="377.5,-86.01 380.67,-75.9 371.89,-81.82 377.5,-86.01"/>
</a>
</g>
</g>
<!-- Node12 -->
<g id="Node000012" class="node">
<title>Node12</title>
<g id="a_Node000012"><a xlink:title=" ">
<polygon fill="#e0e0e0" stroke="#999999" points="736,-19.25 682.5,-19.25 682.5,0 736,0 736,-19.25"/>
<text text-anchor="middle" x="709.25" y="-5.75" font-family="Helvetica,sans-Serif" font-size="10.00">iostream</text>
</a>
</g>
</g>
<!-- Node6&#45;&gt;Node12 -->
<g id="edge11_Node000006_Node000012" class="edge">
<title>Node6&#45;&gt;Node12</title>
<g id="a_edge11_Node000006_Node000012"><a xlink:title=" ">
<path fill="none" stroke="#63b8ff" d="M683.78,-249.61C819.56,-240.48 1278.05,-209.59 1293.25,-207.5 1437.15,-187.68 1521.58,-253.68 1613.25,-141 1621.8,-130.48 1622.29,-120.6 1613.25,-110.5 1554.54,-44.95 912.6,-17.83 747.69,-11.91"/>
<polygon fill="#63b8ff" stroke="#63b8ff" points="747.85,-8.42 737.73,-11.56 747.6,-15.41 747.85,-8.42"/>
</a>
</g>
</g>
<!-- Node13 -->
<g id="Node000013" class="node">
<title>Node13</title>
<g id="a_Node000013"><a xlink:title=" ">
<polygon fill="#e0e0e0" stroke="#999999" points="850.88,-201.88 799.62,-201.88 799.62,-182.62 850.88,-182.62 850.88,-201.88"/>
<text text-anchor="middle" x="825.25" y="-188.38" font-family="Helvetica,sans-Serif" font-size="10.00">sstream</text>
</a>
</g>
</g>
<!-- Node6&#45;&gt;Node13 -->
<g id="edge12_Node000006_Node000013" class="edge">
<title>Node6&#45;&gt;Node13</title>
<g id="a_edge12_Node000006_Node000013"><a xlink:title=" ">
<path fill="none" stroke="#63b8ff" d="M679.09,-243.02C708.68,-234.58 753.24,-221.28 791.25,-207.5 792.2,-207.16 793.16,-206.8 794.12,-206.44"/>
<polygon fill="#63b8ff" stroke="#63b8ff" points="795.1,-209.81 803.11,-202.88 792.53,-203.31 795.1,-209.81"/>
</a>
</g>
</g>
<!-- Node6&#45;&gt;Node14 -->
<g id="edge13_Node000006_Node000014" class="edge">
<title>Node6&#45;&gt;Node14</title>
<g id="a_edge13_Node000006_Node000014"><a xlink:title=" ">
<path fill="none" stroke="#63b8ff" d="M683.77,-245.21C688.3,-244.55 692.87,-243.95 697.25,-243.5 1117.11,-200.22 1232.1,-288.92 1646.25,-207.5 1648.57,-207.04 1650.94,-206.47 1653.3,-205.82"/>
<polygon fill="#63b8ff" stroke="#63b8ff" points="1654.25,-209.19 1662.7,-202.79 1652.11,-202.53 1654.25,-209.19"/>
</a>
</g>
</g>
<!-- Node15 -->
<g id="Node000015" class="node">
<title>Node15</title>
<g id="a_Node000015"><a xlink:title=" ">
<polygon fill="#e0e0e0" stroke="#999999" points="649.88,-135.38 604.62,-135.38 604.62,-116.12 649.88,-116.12 649.88,-135.38"/>
<text text-anchor="middle" x="627.25" y="-121.88" font-family="Helvetica,sans-Serif" font-size="10.00">chrono</text>
</a>
</g>
</g>
<!-- Node6&#45;&gt;Node15 -->
<g id="edge14_Node000006_Node000015" class="edge">
<title>Node6&#45;&gt;Node15</title>
<g id="a_edge14_Node000006_Node000015"><a xlink:title=" ">
<path fill="none" stroke="#63b8ff" d="M644.88,-243.11C641.84,-223.05 634.46,-174.32 630.27,-146.71"/>
<polygon fill="#63b8ff" stroke="#63b8ff" points="633.79,-146.54 628.83,-137.18 626.87,-147.59 633.79,-146.54"/>
</a>
</g>
</g>
<!-- Node16 -->
<g id="Node000016" class="node">
<title>Node16</title>
<g id="a_Node000016"><a xlink:title=" ">
<polygon fill="#e0e0e0" stroke="#999999" points="897.65,-201.88 868.85,-201.88 868.85,-182.62 897.65,-182.62 897.65,-201.88"/>
<text text-anchor="middle" x="883.25" y="-188.38" font-family="Helvetica,sans-Serif" font-size="10.00">list</text>
</a>
</g>
</g>
<!-- Node6&#45;&gt;Node16 -->
<g id="edge15_Node000006_Node000016" class="edge">
<title>Node6&#45;&gt;Node16</title>
<g id="a_edge15_Node000006_Node000016"><a xlink:title=" ">
<path fill="none" stroke="#63b8ff" d="M683.66,-245.06C740.58,-234.2 844.04,-213.98 860.25,-207.5 860.36,-207.46 860.47,-207.41 860.58,-207.37"/>
<polygon fill="#63b8ff" stroke="#63b8ff" points="861.91,-210.62 869.19,-202.91 858.7,-204.4 861.91,-210.62"/>
</a>
</g>
</g>
<!-- Node17 -->
<g id="Node000017" class="node">
<title>Node17</title>
<g id="a_Node000017"><a xlink:href="IssueFactory_8hpp.html" target="_top" xlink:title=" ">
<polygon fill="white" stroke="#666666" points="580.62,-201.88 473.88,-201.88 473.88,-182.62 580.62,-182.62 580.62,-201.88"/>
<text text-anchor="middle" x="527.25" y="-188.38" font-family="Helvetica,sans-Serif" font-size="10.00">ers/IssueFactory.hpp</text>
</a>
</g>
</g>
<!-- Node6&#45;&gt;Node17 -->
<g id="edge16_Node000006_Node000017" class="edge">
<title>Node6&#45;&gt;Node17</title>
<g id="a_edge16_Node000006_Node000017"><a xlink:title=" ">
<path fill="none" stroke="#63b8ff" d="M627.92,-243.05C608.64,-233.52 578.07,-218.39 555.66,-207.31"/>
<polygon fill="#63b8ff" stroke="#63b8ff" points="557.28,-204.2 546.77,-202.91 554.18,-210.48 557.28,-204.2"/>
</a>
</g>
</g>
<!-- Node19 -->
<g id="Node000019" class="node">
<title>Node19</title>
<g id="a_Node000019"><a xlink:href="Severity_8hpp.html" target="_top" xlink:title=" ">
<polygon fill="white" stroke="#666666" points="548.12,-135.38 462.38,-135.38 462.38,-116.12 548.12,-116.12 548.12,-135.38"/>
<text text-anchor="middle" x="505.25" y="-121.88" font-family="Helvetica,sans-Serif" font-size="10.00">ers/Severity.hpp</text>
</a>
</g>
</g>
<!-- Node6&#45;&gt;Node19 -->
<g id="edge33_Node000006_Node000019" class="edge">
<title>Node6&#45;&gt;Node19</title>
<g id="a_edge33_Node000006_Node000019"><a xlink:title=" ">
<path fill="none" stroke="#63b8ff" d="M641.17,-243.39C632.17,-228.42 612.18,-197.54 589.25,-177 573,-162.45 551.93,-149.85 534.96,-140.92"/>
<polygon fill="#63b8ff" stroke="#63b8ff" points="536.84,-137.95 526.34,-136.52 533.66,-144.19 536.84,-137.95"/>
</a>
</g>
</g>
<!-- Node20 -->
<g id="Node000020" class="node">
<title>Node20</title>
<g id="a_Node000020"><a xlink:href="LocalContext_8hpp.html" target="_top" xlink:title=" ">
<polygon fill="white" stroke="#666666" points="782,-201.88 674.5,-201.88 674.5,-182.62 782,-182.62 782,-201.88"/>
<text text-anchor="middle" x="728.25" y="-188.38" font-family="Helvetica,sans-Serif" font-size="10.00">ers/LocalContext.hpp</text>
</a>
</g>
</g>
<!-- Node6&#45;&gt;Node20 -->
<g id="edge25_Node000006_Node000020" class="edge">
<title>Node6&#45;&gt;Node20</title>
<g id="a_edge25_Node000006_Node000020"><a xlink:title=" ">
<path fill="none" stroke="#63b8ff" d="M658.7,-243.18C671.35,-234.11 691.18,-219.87 706.44,-208.91"/>
<polygon fill="#63b8ff" stroke="#63b8ff" points="708.37,-211.83 714.45,-203.16 704.28,-206.15 708.37,-211.83"/>
</a>
</g>
</g>
<!-- Node25 -->
<g id="Node000025" class="node">
<title>Node25</title>
<g id="a_Node000025"><a xlink:href="IssueDeclarationMacro_8hpp.html" target="_top" xlink:title=" ">
<polygon fill="white" stroke="#666666" points="1156.12,-207.5 1016.38,-207.5 1016.38,-177 1156.12,-177 1156.12,-207.5"/>
<text text-anchor="start" x="1024.38" y="-194" font-family="Helvetica,sans-Serif" font-size="10.00">ers/internal/IssueDeclaration</text>
<text text-anchor="middle" x="1086.25" y="-182.75" font-family="Helvetica,sans-Serif" font-size="10.00">Macro.hpp</text>
</a>
</g>
</g>
<!-- Node6&#45;&gt;Node25 -->
<g id="edge34_Node000006_Node000025" class="edge">
<title>Node6&#45;&gt;Node25</title>
<g id="a_edge34_Node000006_Node000025"><a xlink:title=" ">
<path fill="none" stroke="#63b8ff" d="M683.82,-245.6C688.34,-244.87 692.9,-244.15 697.25,-243.5 803.33,-227.68 926.13,-212.31 1004.92,-202.82"/>
<polygon fill="#63b8ff" stroke="#63b8ff" points="1005.2,-206.31 1014.71,-201.64 1004.37,-199.36 1005.2,-206.31"/>
</a>
</g>
</g>
<!-- Node17&#45;&gt;Node10 -->
<g id="edge20_Node000017_Node000010" class="edge">
<title>Node17&#45;&gt;Node10</title>
<g id="a_edge20_Node000017_Node000010"><a xlink:title=" ">
<path fill="none" stroke="#63b8ff" d="M507.77,-182.15C484.13,-171.1 444.1,-152.39 417.19,-139.81"/>
<polygon fill="#63b8ff" stroke="#63b8ff" points="418.79,-136.7 408.25,-135.63 415.83,-143.04 418.79,-136.7"/>
</a>
</g>
</g>
<!-- Node17&#45;&gt;Node11 -->
<g id="edge18_Node000017_Node000011" class="edge">
<title>Node17&#45;&gt;Node11</title>
<g id="a_edge18_Node000017_Node000011"><a xlink:title=" ">
<path fill="none" stroke="#63b8ff" d="M511.35,-182.17C495.73,-172.87 471.64,-157.48 453.25,-141 433.6,-123.38 414.43,-99.77 402.27,-83.75"/>
<polygon fill="#63b8ff" stroke="#63b8ff" points="405.35,-82.03 396.57,-76.1 399.73,-86.21 405.35,-82.03"/>
</a>
</g>
</g>
<!-- Node17&#45;&gt;Node15 -->
<g id="edge17_Node000017_Node000015" class="edge">
<title>Node17&#45;&gt;Node15</title>
<g id="a_edge17_Node000017_Node000015"><a xlink:title=" ">
<path fill="none" stroke="#63b8ff" d="M541.15,-182.28C557.26,-171.89 584.06,-154.61 603.49,-142.08"/>
<polygon fill="#63b8ff" stroke="#63b8ff" points="605.36,-145.03 611.87,-136.67 601.57,-139.15 605.36,-145.03"/>
</a>
</g>
</g>
<!-- Node18 -->
<g id="Node000018" class="node">
<title>Node18</title>
<g id="a_Node000018"><a xlink:title=" ">
<polygon fill="#e0e0e0" stroke="#999999" points="597.75,-74.5 554.75,-74.5 554.75,-55.25 597.75,-55.25 597.75,-74.5"/>
<text text-anchor="middle" x="576.25" y="-61" font-family="Helvetica,sans-Serif" font-size="10.00">vector</text>
</a>
</g>
</g>
<!-- Node17&#45;&gt;Node18 -->
<g id="edge19_Node000017_Node000018" class="edge">
<title>Node17&#45;&gt;Node18</title>
<g id="a_edge19_Node000017_Node000018"><a xlink:title=" ">
<path fill="none" stroke="#63b8ff" d="M533.62,-182.41C540.35,-172.69 550.87,-156.39 557.25,-141 564.66,-123.14 569.74,-101.65 572.77,-86.24"/>
<polygon fill="#63b8ff" stroke="#63b8ff" points="576.2,-86.89 574.56,-76.42 569.32,-85.63 576.2,-86.89"/>
</a>
</g>
</g>
<!-- Node17&#45;&gt;Node19 -->
<g id="edge21_Node000017_Node000019" class="edge">
<title>Node17&#45;&gt;Node19</title>
<g id="a_edge21_Node000017_Node000019"><a xlink:title=" ">
<path fill="none" stroke="#63b8ff" d="M524.19,-182.28C521.04,-173.04 516.02,-158.33 511.95,-146.38"/>
<polygon fill="#63b8ff" stroke="#63b8ff" points="515.31,-145.41 508.77,-137.07 508.69,-147.67 515.31,-145.41"/>
</a>
</g>
</g>
<!-- Node19&#45;&gt;Node11 -->
<g id="edge22_Node000019_Node000011" class="edge">
<title>Node19&#45;&gt;Node11</title>
<g id="a_edge22_Node000019_Node000011"><a xlink:title=" ">
<path fill="none" stroke="#63b8ff" d="M487.38,-115.68C468.59,-106.14 438.79,-91.02 416.95,-79.93"/>
<polygon fill="#63b8ff" stroke="#63b8ff" points="418.8,-76.95 408.3,-75.54 415.63,-83.19 418.8,-76.95"/>
</a>
</g>
</g>
<!-- Node19&#45;&gt;Node12 -->
<g id="edge24_Node000019_Node000012" class="edge">
<title>Node19&#45;&gt;Node12</title>
<g id="a_edge24_Node000019_Node000012"><a xlink:title=" ">
<path fill="none" stroke="#63b8ff" d="M507.83,-116.03C512.67,-101.23 524.53,-71.24 545.25,-55.25 581.77,-27.07 634.85,-16.67 670.64,-12.84"/>
<polygon fill="#63b8ff" stroke="#63b8ff" points="670.92,-16.33 680.56,-11.91 670.27,-9.36 670.92,-16.33"/>
</a>
</g>
</g>
<!-- Node19&#45;&gt;Node18 -->
<g id="edge23_Node000019_Node000018" class="edge">
<title>Node19&#45;&gt;Node18</title>
<g id="a_edge23_Node000019_Node000018"><a xlink:title=" ">
<path fill="none" stroke="#63b8ff" d="M516.03,-115.81C526.77,-106.9 543.5,-93.03 556.6,-82.17"/>
<polygon fill="#63b8ff" stroke="#63b8ff" points="558.74,-84.94 564.2,-75.87 554.27,-79.56 558.74,-84.94"/>
</a>
</g>
</g>
<!-- Node21 -->
<g id="Node000021" class="node">
<title>Node21</title>
<g id="a_Node000021"><a xlink:title=" ">
<polygon fill="#e0e0e0" stroke="#999999" points="901.62,-135.38 836.88,-135.38 836.88,-116.12 901.62,-116.12 901.62,-135.38"/>
<text text-anchor="middle" x="869.25" y="-121.88" font-family="Helvetica,sans-Serif" font-size="10.00">sys/types.h</text>
</a>
</g>
</g>
<!-- Node20&#45;&gt;Node21 -->
<g id="edge26_Node000020_Node000021" class="edge">
<title>Node20&#45;&gt;Node21</title>
<g id="a_edge26_Node000020_Node000021"><a xlink:title=" ">
<path fill="none" stroke="#63b8ff" d="M748.15,-182.15C771.88,-171.29 811.76,-153.05 839.23,-140.48"/>
<polygon fill="#63b8ff" stroke="#63b8ff" points="840.43,-143.78 848.07,-136.44 837.52,-137.41 840.43,-143.78"/>
</a>
</g>
</g>
<!-- Node22 -->
<g id="Node000022" class="node">
<title>Node22</title>
<g id="a_Node000022"><a xlink:title=" ">
<polygon fill="#e0e0e0" stroke="#999999" points="819.12,-135.38 769.38,-135.38 769.38,-116.12 819.12,-116.12 819.12,-135.38"/>
<text text-anchor="middle" x="794.25" y="-121.88" font-family="Helvetica,sans-Serif" font-size="10.00">unistd.h</text>
</a>
</g>
</g>
<!-- Node20&#45;&gt;Node22 -->
<g id="edge27_Node000020_Node000022" class="edge">
<title>Node20&#45;&gt;Node22</title>
<g id="a_edge27_Node000020_Node000022"><a xlink:title=" ">
<path fill="none" stroke="#63b8ff" d="M737.43,-182.28C747.67,-172.27 764.48,-155.85 777.16,-143.45"/>
<polygon fill="#63b8ff" stroke="#63b8ff" points="779.36,-146.19 784.07,-136.7 774.47,-141.19 779.36,-146.19"/>
</a>
</g>
</g>
<!-- Node23 -->
<g id="Node000023" class="node">
<title>Node23</title>
<g id="a_Node000023"><a xlink:href="Context_8hpp.html" target="_top" xlink:title=" ">
<polygon fill="white" stroke="#666666" points="751,-135.38 667.5,-135.38 667.5,-116.12 751,-116.12 751,-135.38"/>
<text text-anchor="middle" x="709.25" y="-121.88" font-family="Helvetica,sans-Serif" font-size="10.00">ers/Context.hpp</text>
</a>
</g>
</g>
<!-- Node20&#45;&gt;Node23 -->
<g id="edge28_Node000020_Node000023" class="edge">
<title>Node20&#45;&gt;Node23</title>
<g id="a_edge28_Node000020_Node000023"><a xlink:title=" ">
<path fill="none" stroke="#63b8ff" d="M725.61,-182.28C722.89,-173.04 718.55,-158.33 715.03,-146.38"/>
<polygon fill="#63b8ff" stroke="#63b8ff" points="718.48,-145.7 712.3,-137.09 711.77,-147.68 718.48,-145.7"/>
</a>
</g>
</g>
<!-- Node23&#45;&gt;Node11 -->
<g id="edge29_Node000023_Node000011" class="edge">
<title>Node23&#45;&gt;Node11</title>
<g id="a_edge29_Node000023_Node000011"><a xlink:title=" ">
<path fill="none" stroke="#63b8ff" d="M679.52,-115.68C672.88,-113.82 665.86,-111.98 659.25,-110.5 573.84,-91.34 471.53,-76.64 420.88,-69.91"/>
<polygon fill="#63b8ff" stroke="#63b8ff" points="421.6,-66.48 411.23,-68.65 420.69,-73.42 421.6,-66.48"/>
</a>
</g>
</g>
<!-- Node23&#45;&gt;Node18 -->
<g id="edge30_Node000023_Node000018" class="edge">
<title>Node23&#45;&gt;Node18</title>
<g id="a_edge30_Node000023_Node000018"><a xlink:title=" ">
<path fill="none" stroke="#63b8ff" d="M688.76,-115.68C666.93,-106.01 632.11,-90.6 606.99,-79.48"/>
<polygon fill="#63b8ff" stroke="#63b8ff" points="608.49,-76.32 597.93,-75.47 605.66,-82.72 608.49,-76.32"/>
</a>
</g>
</g>
<!-- Node24 -->
<g id="Node000024" class="node">
<title>Node24</title>
<g id="a_Node000024"><a xlink:href="ers_2include_2ers_2Configuration_8hpp.html" target="_top" xlink:title=" ">
<polygon fill="white" stroke="#666666" points="762.62,-74.5 655.88,-74.5 655.88,-55.25 762.62,-55.25 762.62,-74.5"/>
<text text-anchor="middle" x="709.25" y="-61" font-family="Helvetica,sans-Serif" font-size="10.00">ers/Configuration.hpp</text>
</a>
</g>
</g>
<!-- Node23&#45;&gt;Node24 -->
<g id="edge31_Node000023_Node000024" class="edge">
<title>Node23&#45;&gt;Node24</title>
<g id="a_edge31_Node000023_Node000024"><a xlink:title=" ">
<path fill="none" stroke="#63b8ff" d="M709.25,-115.81C709.25,-108.03 709.25,-96.45 709.25,-86.41"/>
<polygon fill="#63b8ff" stroke="#63b8ff" points="712.75,-86.41 709.25,-76.41 705.75,-86.41 712.75,-86.41"/>
</a>
</g>
</g>
<!-- Node24&#45;&gt;Node12 -->
<g id="edge32_Node000024_Node000012" class="edge">
<title>Node24&#45;&gt;Node12</title>
<g id="a_edge32_Node000024_Node000012"><a xlink:title=" ">
<path fill="none" stroke="#63b8ff" d="M709.25,-55.08C709.25,-48.57 709.25,-39.42 709.25,-31.12"/>
<polygon fill="#63b8ff" stroke="#63b8ff" points="712.75,-31.12 709.25,-21.12 705.75,-31.12 712.75,-31.12"/>
</a>
</g>
</g>
<!-- Node26 -->
<g id="Node000026" class="node">
<title>Node26</title>
<g id="a_Node000026"><a xlink:title=" ">
<polygon fill="#e0e0e0" stroke="#999999" points="1135.88,-141 1036.62,-141 1036.62,-110.5 1135.88,-110.5 1135.88,-141"/>
<text text-anchor="start" x="1044.62" y="-127.5" font-family="Helvetica,sans-Serif" font-size="10.00">boost/preprocessor</text>
<text text-anchor="middle" x="1086.25" y="-116.25" font-family="Helvetica,sans-Serif" font-size="10.00">/if.hpp</text>
</a>
</g>
</g>
<!-- Node25&#45;&gt;Node26 -->
<g id="edge35_Node000025_Node000026" class="edge">
<title>Node25&#45;&gt;Node26</title>
<g id="a_edge35_Node000025_Node000026"><a xlink:title=" ">
<path fill="none" stroke="#63b8ff" d="M1086.25,-176.61C1086.25,-169.52 1086.25,-160.79 1086.25,-152.63"/>
<polygon fill="#63b8ff" stroke="#63b8ff" points="1089.75,-152.84 1086.25,-142.84 1082.75,-152.84 1089.75,-152.84"/>
</a>
</g>
</g>
<!-- Node27 -->
<g id="Node000027" class="node">
<title>Node27</title>
<g id="a_Node000027"><a xlink:title=" ">
<polygon fill="#e0e0e0" stroke="#999999" points="1252.88,-141 1153.62,-141 1153.62,-110.5 1252.88,-110.5 1252.88,-141"/>
<text text-anchor="start" x="1161.62" y="-127.5" font-family="Helvetica,sans-Serif" font-size="10.00">boost/preprocessor</text>
<text text-anchor="middle" x="1203.25" y="-116.25" font-family="Helvetica,sans-Serif" font-size="10.00">/seq.hpp</text>
</a>
</g>
</g>
<!-- Node25&#45;&gt;Node27 -->
<g id="edge36_Node000025_Node000027" class="edge">
<title>Node25&#45;&gt;Node27</title>
<g id="a_edge36_Node000025_Node000027"><a xlink:title=" ">
<path fill="none" stroke="#63b8ff" d="M1112.8,-176.61C1128.81,-167.79 1149.42,-156.43 1166.92,-146.78"/>
<polygon fill="#63b8ff" stroke="#63b8ff" points="1168.41,-149.95 1175.48,-142.06 1165.03,-143.82 1168.41,-149.95"/>
</a>
</g>
</g>
<!-- Node28 -->
<g id="Node000028" class="node">
<title>Node28</title>
<g id="a_Node000028"><a xlink:title=" ">
<polygon fill="#e0e0e0" stroke="#999999" points="1369.88,-141 1270.62,-141 1270.62,-110.5 1369.88,-110.5 1369.88,-141"/>
<text text-anchor="start" x="1278.62" y="-127.5" font-family="Helvetica,sans-Serif" font-size="10.00">boost/preprocessor</text>
<text text-anchor="middle" x="1320.25" y="-116.25" font-family="Helvetica,sans-Serif" font-size="10.00">/tuple.hpp</text>
</a>
</g>
</g>
<!-- Node25&#45;&gt;Node28 -->
<g id="edge37_Node000025_Node000028" class="edge">
<title>Node25&#45;&gt;Node28</title>
<g id="a_edge37_Node000025_Node000028"><a xlink:title=" ">
<path fill="none" stroke="#63b8ff" d="M1139.64,-176.53C1175.37,-166.69 1222.46,-153.7 1259.6,-143.47"/>
<polygon fill="#63b8ff" stroke="#63b8ff" points="1260.12,-146.95 1268.83,-140.92 1258.26,-140.21 1260.12,-146.95"/>
</a>
</g>
</g>
<!-- Node29 -->
<g id="Node000029" class="node">
<title>Node29</title>
<g id="a_Node000029"><a xlink:title=" ">
<polygon fill="#e0e0e0" stroke="#999999" points="1486.88,-141 1387.62,-141 1387.62,-110.5 1486.88,-110.5 1486.88,-141"/>
<text text-anchor="start" x="1395.62" y="-127.5" font-family="Helvetica,sans-Serif" font-size="10.00">boost/preprocessor</text>
<text text-anchor="middle" x="1437.25" y="-116.25" font-family="Helvetica,sans-Serif" font-size="10.00">/logical.hpp</text>
</a>
</g>
</g>
<!-- Node25&#45;&gt;Node29 -->
<g id="edge38_Node000025_Node000029" class="edge">
<title>Node25&#45;&gt;Node29</title>
<g id="a_edge38_Node000025_Node000029"><a xlink:title=" ">
<path fill="none" stroke="#63b8ff" d="M1156.45,-178.54C1159.42,-178.02 1162.37,-177.5 1165.25,-177 1256.74,-161.05 1282.88,-160.54 1376.22,-141.55"/>
<polygon fill="#63b8ff" stroke="#63b8ff" points="1376.74,-145.01 1385.83,-139.57 1375.33,-138.16 1376.74,-145.01"/>
</a>
</g>
</g>
<!-- Node30 -->
<g id="Node000030" class="node">
<title>Node30</title>
<g id="a_Node000030"><a xlink:title=" ">
<polygon fill="#e0e0e0" stroke="#999999" points="1603.88,-141 1504.62,-141 1504.62,-110.5 1603.88,-110.5 1603.88,-141"/>
<text text-anchor="start" x="1512.62" y="-127.5" font-family="Helvetica,sans-Serif" font-size="10.00">boost/preprocessor</text>
<text text-anchor="middle" x="1554.25" y="-116.25" font-family="Helvetica,sans-Serif" font-size="10.00">/stringize.hpp</text>
</a>
</g>
</g>
<!-- Node25&#45;&gt;Node30 -->
<g id="edge39_Node000025_Node000030" class="edge">
<title>Node25&#45;&gt;Node30</title>
<g id="a_edge39_Node000025_Node000030"><a xlink:title=" ">
<path fill="none" stroke="#63b8ff" d="M1156.42,-178.33C1159.4,-177.86 1162.35,-177.42 1165.25,-177 1308.13,-156.37 1348.56,-166.2 1493.29,-141.38"/>
<polygon fill="#63b8ff" stroke="#63b8ff" points="1493.61,-144.88 1502.86,-139.71 1492.41,-137.98 1493.61,-144.88"/>
</a>
</g>
</g>
<!-- Node31 -->
<g id="Node000031" class="node">
<title>Node31</title>
<g id="a_Node000031"><a xlink:title=" ">
<polygon fill="#e0e0e0" stroke="#999999" points="1018.88,-141 919.62,-141 919.62,-110.5 1018.88,-110.5 1018.88,-141"/>
<text text-anchor="start" x="927.62" y="-127.5" font-family="Helvetica,sans-Serif" font-size="10.00">boost/preprocessor</text>
<text text-anchor="middle" x="969.25" y="-116.25" font-family="Helvetica,sans-Serif" font-size="10.00">/comparison.hpp</text>
</a>
</g>
</g>
<!-- Node25&#45;&gt;Node31 -->
<g id="edge40_Node000025_Node000031" class="edge">
<title>Node25&#45;&gt;Node31</title>
<g id="a_edge40_Node000025_Node000031"><a xlink:title=" ">
<path fill="none" stroke="#63b8ff" d="M1059.7,-176.61C1043.69,-167.79 1023.08,-156.43 1005.58,-146.78"/>
<polygon fill="#63b8ff" stroke="#63b8ff" points="1007.47,-143.82 997.02,-142.06 1004.09,-149.95 1007.47,-143.82"/>
</a>
</g>
</g>
</g>
</svg>
