<?xml version="1.0" encoding="UTF-8" standalone="no"?>
<!DOCTYPE svg PUBLIC "-//W3C//DTD SVG 1.1//EN"
 "http://www.w3.org/Graphics/SVG/1.1/DTD/svg11.dtd">
<!-- Generated by graphviz version 9.0.0 (20230911.1827)
 -->
<!-- Title: sourcecode/cmdlib/include/cmdlib/CommandedObject.hpp Pages: 1 -->
<svg width="262pt" height="238pt"
 viewBox="0.00 0.00 261.50 238.00" xmlns="http://www.w3.org/2000/svg" xmlns:xlink="http://www.w3.org/1999/xlink">
<g id="graph0" class="graph" transform="scale(1 1) rotate(0) translate(4 234)">
<title>sourcecode/cmdlib/include/cmdlib/CommandedObject.hpp</title>
<!-- Node1 -->
<g id="Node000001" class="node">
<title>Node1</title>
<g id="a_Node000001"><a xlink:title=" ">
<polygon fill="#999999" stroke="#666666" points="188.25,-230 36.5,-230 36.5,-199.5 188.25,-199.5 188.25,-230"/>
<text text-anchor="start" x="44.5" y="-216.5" font-family="Helvetica,sans-Serif" font-size="10.00">sourcecode/cmdlib/include</text>
<text text-anchor="middle" x="112.38" y="-205.25" font-family="Helvetica,sans-Serif" font-size="10.00">/cmdlib/CommandedObject.hpp</text>
</a>
</g>
</g>
<!-- Node2 -->
<g id="Node000002" class="node">
<title>Node2</title>
<g id="a_Node000002"><a xlink:href="Application_8hpp.html" target="_top" xlink:title=" ">
<polygon fill="white" stroke="#666666" points="121,-97 3.75,-97 3.75,-66.5 121,-66.5 121,-97"/>
<text text-anchor="start" x="11.75" y="-83.5" font-family="Helvetica,sans-Serif" font-size="10.00">sourcecode/appfwk/src</text>
<text text-anchor="middle" x="62.38" y="-72.25" font-family="Helvetica,sans-Serif" font-size="10.00">/Application.hpp</text>
</a>
</g>
</g>
<!-- Node1&#45;&gt;Node2 -->
<g id="edge1_Node000001_Node000002" class="edge">
<title>Node1&#45;&gt;Node2</title>
<g id="a_edge1_Node000001_Node000002"><a xlink:title=" ">
<path fill="none" stroke="#63b8ff" d="M95.3,-189.6C90.24,-181.59 85.06,-172.43 81.38,-163.5 72.24,-141.41 66.97,-114.01 64.38,-97.48"/>
<polygon fill="#63b8ff" stroke="#63b8ff" points="92.27,-191.36 100.7,-197.78 98.11,-187.5 92.27,-191.36"/>
</a>
</g>
</g>
<!-- Node4 -->
<g id="Node000004" class="node">
<title>Node4</title>
<g id="a_Node000004"><a xlink:href="CommandFacility_8hpp.html" target="_top" xlink:title=" ">
<polygon fill="white" stroke="#666666" points="234.12,-163.5 90.62,-163.5 90.62,-133 234.12,-133 234.12,-163.5"/>
<text text-anchor="start" x="98.62" y="-150" font-family="Helvetica,sans-Serif" font-size="10.00">sourcecode/cmdlib/include</text>
<text text-anchor="middle" x="162.38" y="-138.75" font-family="Helvetica,sans-Serif" font-size="10.00">/cmdlib/CommandFacility.hpp</text>
</a>
</g>
</g>
<!-- Node1&#45;&gt;Node4 -->
<g id="edge3_Node000001_Node000004" class="edge">
<title>Node1&#45;&gt;Node4</title>
<g id="a_edge3_Node000001_Node000004"><a xlink:title=" ">
<path fill="none" stroke="#63b8ff" d="M130.73,-190.07C137.55,-181.28 145.07,-171.57 151.07,-163.83"/>
<polygon fill="#63b8ff" stroke="#63b8ff" points="128.01,-187.87 124.65,-197.92 133.54,-192.16 128.01,-187.87"/>
</a>
</g>
</g>
<!-- Node3 -->
<g id="Node000003" class="node">
<title>Node3</title>
<g id="a_Node000003"><a xlink:href="daq__application_8cxx.html" target="_top" xlink:title=" ">
<polygon fill="white" stroke="#666666" points="124.75,-30.5 0,-30.5 0,0 124.75,0 124.75,-30.5"/>
<text text-anchor="start" x="8" y="-17" font-family="Helvetica,sans-Serif" font-size="10.00">sourcecode/appfwk/apps</text>
<text text-anchor="middle" x="62.38" y="-5.75" font-family="Helvetica,sans-Serif" font-size="10.00">/daq_application.cxx</text>
</a>
</g>
</g>
<!-- Node2&#45;&gt;Node3 -->
<g id="edge2_Node000002_Node000003" class="edge">
<title>Node2&#45;&gt;Node3</title>
<g id="a_edge2_Node000002_Node000003"><a xlink:title=" ">
<path fill="none" stroke="#63b8ff" d="M62.38,-54.81C62.38,-46.64 62.38,-37.91 62.38,-30.83"/>
<polygon fill="#63b8ff" stroke="#63b8ff" points="58.88,-54.6 62.38,-64.6 65.88,-54.6 58.88,-54.6"/>
</a>
</g>
</g>
<!-- Node4&#45;&gt;Node2 -->
<g id="edge4_Node000004_Node000002" class="edge">
<title>Node4&#45;&gt;Node2</title>
<g id="a_edge4_Node000004_Node000002"><a xlink:title=" ">
<path fill="none" stroke="#63b8ff" d="M130.38,-126.61C115.6,-117.08 98.38,-105.98 84.98,-97.33"/>
<polygon fill="#63b8ff" stroke="#63b8ff" points="128.11,-129.31 138.41,-131.79 131.91,-123.43 128.11,-129.31"/>
</a>
</g>
</g>
<!-- Node5 -->
<g id="Node000005" class="node">
<title>Node5</title>
<g id="a_Node000005"><a xlink:href="CommandFacility_8cpp.html" target="_top" xlink:title=" ">
<polygon fill="white" stroke="#666666" points="253.5,-97 139.25,-97 139.25,-66.5 253.5,-66.5 253.5,-97"/>
<text text-anchor="start" x="147.25" y="-83.5" font-family="Helvetica,sans-Serif" font-size="10.00">sourcecode/cmdlib/src</text>
<text text-anchor="middle" x="196.38" y="-72.25" font-family="Helvetica,sans-Serif" font-size="10.00">/CommandFacility.cpp</text>
</a>
</g>
</g>
<!-- Node4&#45;&gt;Node5 -->
<g id="edge5_Node000004_Node000005" class="edge">
<title>Node4&#45;&gt;Node5</title>
<g id="a_edge5_Node000004_Node000005"><a xlink:title=" ">
<path fill="none" stroke="#63b8ff" d="M175.45,-122.44C179.93,-113.96 184.78,-104.74 188.69,-97.33"/>
<polygon fill="#63b8ff" stroke="#63b8ff" points="172.36,-120.8 170.8,-131.28 178.56,-124.06 172.36,-120.8"/>
</a>
</g>
</g>
</g>
</svg>
