<?xml version="1.0" encoding="UTF-8" standalone="no"?>
<!DOCTYPE svg PUBLIC "-//W3C//DTD SVG 1.1//EN"
 "http://www.w3.org/Graphics/SVG/1.1/DTD/svg11.dtd">
<!-- Generated by graphviz version 9.0.0 (20230911.1827)
 -->
<!-- Title: sourcecode/dbe/include/dbe/CommitDialog.hpp Pages: 1 -->
<svg width="243pt" height="94pt"
 viewBox="0.00 0.00 242.50 93.75" xmlns="http://www.w3.org/2000/svg" xmlns:xlink="http://www.w3.org/1999/xlink">
<g id="graph0" class="graph" transform="scale(1 1) rotate(0) translate(4 89.75)">
<title>sourcecode/dbe/include/dbe/CommitDialog.hpp</title>
<!-- Node1 -->
<g id="Node000001" class="node">
<title>Node1</title>
<g id="a_Node000001"><a xlink:title=" ">
<polygon fill="#999999" stroke="#666666" points="176.62,-85.75 57.88,-85.75 57.88,-55.25 176.62,-55.25 176.62,-85.75"/>
<text text-anchor="start" x="65.88" y="-72.25" font-family="Helvetica,sans-Serif" font-size="10.00">sourcecode/dbe/include</text>
<text text-anchor="middle" x="117.25" y="-61" font-family="Helvetica,sans-Serif" font-size="10.00">/dbe/CommitDialog.hpp</text>
</a>
</g>
</g>
<!-- Node2 -->
<g id="Node000002" class="node">
<title>Node2</title>
<g id="a_Node000002"><a xlink:title=" ">
<polygon fill="#e0e0e0" stroke="#999999" points="50.5,-19.25 0,-19.25 0,0 50.5,0 50.5,-19.25"/>
<text text-anchor="middle" x="25.25" y="-5.75" font-family="Helvetica,sans-Serif" font-size="10.00">QDialog</text>
</a>
</g>
</g>
<!-- Node1&#45;&gt;Node2 -->
<g id="edge1_Node000001_Node000002" class="edge">
<title>Node1&#45;&gt;Node2</title>
<g id="a_edge1_Node000001_Node000002"><a xlink:title=" ">
<path fill="none" stroke="#63b8ff" d="M94.51,-54.95C80.64,-46.07 62.93,-34.74 48.9,-25.76"/>
<polygon fill="#63b8ff" stroke="#63b8ff" points="51.02,-22.96 40.71,-20.52 47.24,-28.86 51.02,-22.96"/>
</a>
</g>
</g>
<!-- Node3 -->
<g id="Node000003" class="node">
<title>Node3</title>
<g id="a_Node000003"><a xlink:title=" ">
<polygon fill="#e0e0e0" stroke="#999999" points="165.75,-19.25 68.75,-19.25 68.75,0 165.75,0 165.75,-19.25"/>
<text text-anchor="middle" x="117.25" y="-5.75" font-family="Helvetica,sans-Serif" font-size="10.00">ui_CommitDialog.h</text>
</a>
</g>
</g>
<!-- Node1&#45;&gt;Node3 -->
<g id="edge2_Node000001_Node000003" class="edge">
<title>Node1&#45;&gt;Node3</title>
<g id="a_edge2_Node000001_Node000003"><a xlink:title=" ">
<path fill="none" stroke="#63b8ff" d="M117.25,-54.95C117.25,-47.71 117.25,-38.84 117.25,-30.94"/>
<polygon fill="#63b8ff" stroke="#63b8ff" points="120.75,-31.21 117.25,-21.21 113.75,-31.21 120.75,-31.21"/>
</a>
</g>
</g>
<!-- Node4 -->
<g id="Node000004" class="node">
<title>Node4</title>
<g id="a_Node000004"><a xlink:title=" ">
<polygon fill="#e0e0e0" stroke="#999999" points="234.5,-19.25 184,-19.25 184,0 234.5,0 234.5,-19.25"/>
<text text-anchor="middle" x="209.25" y="-5.75" font-family="Helvetica,sans-Serif" font-size="10.00">memory</text>
</a>
</g>
</g>
<!-- Node1&#45;&gt;Node4 -->
<g id="edge3_Node000001_Node000004" class="edge">
<title>Node1&#45;&gt;Node4</title>
<g id="a_edge3_Node000001_Node000004"><a xlink:title=" ">
<path fill="none" stroke="#63b8ff" d="M139.99,-54.95C153.86,-46.07 171.57,-34.74 185.6,-25.76"/>
<polygon fill="#63b8ff" stroke="#63b8ff" points="187.26,-28.86 193.79,-20.52 183.48,-22.96 187.26,-28.86"/>
</a>
</g>
</g>
</g>
</svg>
