<?xml version="1.0" encoding="UTF-8" standalone="no"?>
<!DOCTYPE svg PUBLIC "-//W3C//DTD SVG 1.1//EN"
 "http://www.w3.org/Graphics/SVG/1.1/DTD/svg11.dtd">
<!-- Generated by graphviz version 9.0.0 (20230911.1827)
 -->
<!-- Title: sourcecode/dfmessages/include/dfmessages/ComponentRequest_serialization.hpp Pages: 1 -->
<svg width="1344pt" height="494pt"
 viewBox="0.00 0.00 1344.00 493.75" xmlns="http://www.w3.org/2000/svg" xmlns:xlink="http://www.w3.org/1999/xlink">
<g id="graph0" class="graph" transform="scale(1 1) rotate(0) translate(4 489.75)">
<title>sourcecode/dfmessages/include/dfmessages/ComponentRequest_serialization.hpp</title>
<!-- Node1 -->
<g id="Node000001" class="node">
<title>Node1</title>
<g id="a_Node000001"><a xlink:title=" ">
<polygon fill="#999999" stroke="#666666" points="1054,-485.75 895.5,-485.75 895.5,-444 1054,-444 1054,-485.75"/>
<text text-anchor="start" x="903.5" y="-472.25" font-family="Helvetica,sans-Serif" font-size="10.00">sourcecode/dfmessages</text>
<text text-anchor="start" x="903.5" y="-461" font-family="Helvetica,sans-Serif" font-size="10.00">/include/dfmessages/Component</text>
<text text-anchor="middle" x="974.75" y="-449.75" font-family="Helvetica,sans-Serif" font-size="10.00">Request_serialization.hpp</text>
</a>
</g>
</g>
<!-- Node2 -->
<g id="Node000002" class="node">
<title>Node2</title>
<g id="a_Node000002"><a xlink:href="DataRequest_8hpp.html" target="_top" xlink:title=" ">
<polygon fill="white" stroke="#666666" points="851.38,-402.38 668.12,-402.38 668.12,-371.88 851.38,-371.88 851.38,-402.38"/>
<text text-anchor="start" x="676.12" y="-388.88" font-family="Helvetica,sans-Serif" font-size="10.00">sourcecode/dfmessages</text>
<text text-anchor="middle" x="759.75" y="-377.62" font-family="Helvetica,sans-Serif" font-size="10.00">/include/dfmessages/DataRequest.hpp</text>
</a>
</g>
</g>
<!-- Node1&#45;&gt;Node2 -->
<g id="edge1_Node000001_Node000002" class="edge">
<title>Node1&#45;&gt;Node2</title>
<g id="a_edge1_Node000001_Node000002"><a xlink:title=" ">
<path fill="none" stroke="#63b8ff" d="M906.64,-439.88C872.13,-427.72 831.33,-413.34 801.5,-402.83"/>
<polygon fill="#63b8ff" stroke="#63b8ff" points="905.11,-443.05 915.71,-443.07 907.44,-436.45 905.11,-443.05"/>
</a>
</g>
</g>
<!-- Node12 -->
<g id="Node000012" class="node">
<title>Node12</title>
<g id="a_Node000012"><a xlink:href="dfmessages_2include_2dfmessages_2TriggerDecision_8hpp.html" target="_top" xlink:title=" ">
<polygon fill="white" stroke="#666666" points="1044.25,-408 905.25,-408 905.25,-366.25 1044.25,-366.25 1044.25,-408"/>
<text text-anchor="start" x="913.25" y="-394.5" font-family="Helvetica,sans-Serif" font-size="10.00">sourcecode/dfmessages</text>
<text text-anchor="start" x="913.25" y="-383.25" font-family="Helvetica,sans-Serif" font-size="10.00">/include/dfmessages/Trigger</text>
<text text-anchor="middle" x="974.75" y="-372" font-family="Helvetica,sans-Serif" font-size="10.00">Decision.hpp</text>
</a>
</g>
</g>
<!-- Node1&#45;&gt;Node12 -->
<g id="edge17_Node000001_Node000012" class="edge">
<title>Node1&#45;&gt;Node12</title>
<g id="a_edge17_Node000001_Node000012"><a xlink:title=" ">
<path fill="none" stroke="#63b8ff" d="M974.75,-432.25C974.75,-424.21 974.75,-415.79 974.75,-408.48"/>
<polygon fill="#63b8ff" stroke="#63b8ff" points="971.25,-432.06 974.75,-442.06 978.25,-432.06 971.25,-432.06"/>
</a>
</g>
</g>
<!-- Node19 -->
<g id="Node000019" class="node">
<title>Node19</title>
<g id="a_Node000019"><a xlink:href="Serialization_8cpp.html" target="_top" xlink:title=" ">
<polygon fill="white" stroke="#666666" points="1185,-402.38 1062.5,-402.38 1062.5,-371.88 1185,-371.88 1185,-402.38"/>
<text text-anchor="start" x="1070.5" y="-388.88" font-family="Helvetica,sans-Serif" font-size="10.00">sourcecode/dfmessages</text>
<text text-anchor="middle" x="1123.75" y="-377.62" font-family="Helvetica,sans-Serif" font-size="10.00">/src/Serialization.cpp</text>
</a>
</g>
</g>
<!-- Node1&#45;&gt;Node19 -->
<g id="edge24_Node000001_Node000019" class="edge">
<title>Node1&#45;&gt;Node19</title>
<g id="a_edge24_Node000001_Node000019"><a xlink:title=" ">
<path fill="none" stroke="#63b8ff" d="M1024.79,-438.44C1048.17,-426.55 1075.17,-412.82 1095.05,-402.71"/>
<polygon fill="#63b8ff" stroke="#63b8ff" points="1023.36,-435.24 1016.03,-442.89 1026.53,-441.48 1023.36,-435.24"/>
</a>
</g>
</g>
<!-- Node3 -->
<g id="Node000003" class="node">
<title>Node3</title>
<g id="a_Node000003"><a xlink:href="RequestHandlerConcept_8hpp.html" target="_top" xlink:title=" ">
<polygon fill="white" stroke="#666666" points="764.12,-330.25 621.38,-330.25 621.38,-288.5 764.12,-288.5 764.12,-330.25"/>
<text text-anchor="start" x="629.38" y="-316.75" font-family="Helvetica,sans-Serif" font-size="10.00">sourcecode/readoutlibs</text>
<text text-anchor="start" x="629.38" y="-305.5" font-family="Helvetica,sans-Serif" font-size="10.00">/include/readoutlibs/concepts</text>
<text text-anchor="middle" x="692.75" y="-294.25" font-family="Helvetica,sans-Serif" font-size="10.00">/RequestHandlerConcept.hpp</text>
</a>
</g>
</g>
<!-- Node2&#45;&gt;Node3 -->
<g id="edge2_Node000002_Node000003" class="edge">
<title>Node2&#45;&gt;Node3</title>
<g id="a_edge2_Node000002_Node000003"><a xlink:title=" ">
<path fill="none" stroke="#63b8ff" d="M739.29,-362.99C730.16,-352.67 719.51,-340.62 710.69,-330.66"/>
<polygon fill="#63b8ff" stroke="#63b8ff" points="736.58,-365.21 745.83,-370.39 741.83,-360.58 736.58,-365.21"/>
</a>
</g>
</g>
<!-- Node4 -->
<g id="Node000004" class="node">
<title>Node4</title>
<g id="a_Node000004"><a xlink:href="DefaultRequestHandlerModel_8hpp.html" target="_top" xlink:title=" ">
<polygon fill="white" stroke="#666666" points="571.62,-252.5 407.88,-252.5 407.88,-210.75 571.62,-210.75 571.62,-252.5"/>
<text text-anchor="start" x="415.88" y="-239" font-family="Helvetica,sans-Serif" font-size="10.00">sourcecode/readoutlibs</text>
<text text-anchor="start" x="415.88" y="-227.75" font-family="Helvetica,sans-Serif" font-size="10.00">/include/readoutlibs/models</text>
<text text-anchor="middle" x="489.75" y="-216.5" font-family="Helvetica,sans-Serif" font-size="10.00">/DefaultRequestHandlerModel.hpp</text>
</a>
</g>
</g>
<!-- Node2&#45;&gt;Node4 -->
<g id="edge15_Node000002_Node000004" class="edge">
<title>Node2&#45;&gt;Node4</title>
<g id="a_edge15_Node000002_Node000004"><a xlink:title=" ">
<path fill="none" stroke="#63b8ff" d="M699.45,-367.9C672.1,-358.47 639.88,-345.68 612.75,-330.25 573.88,-308.15 534.34,-274.3 510.93,-252.82"/>
<polygon fill="#63b8ff" stroke="#63b8ff" points="698.03,-371.12 708.62,-371 700.26,-364.49 698.03,-371.12"/>
</a>
</g>
</g>
<!-- Node11 -->
<g id="Node000011" class="node">
<title>Node11</title>
<g id="a_Node000011"><a xlink:href="ReadoutModel_8hpp.html" target="_top" xlink:title=" ">
<polygon fill="white" stroke="#666666" points="857,-252.5 722.5,-252.5 722.5,-210.75 857,-210.75 857,-252.5"/>
<text text-anchor="start" x="730.5" y="-239" font-family="Helvetica,sans-Serif" font-size="10.00">sourcecode/readoutlibs</text>
<text text-anchor="start" x="730.5" y="-227.75" font-family="Helvetica,sans-Serif" font-size="10.00">/include/readoutlibs/models</text>
<text text-anchor="middle" x="789.75" y="-216.5" font-family="Helvetica,sans-Serif" font-size="10.00">/ReadoutModel.hpp</text>
</a>
</g>
</g>
<!-- Node2&#45;&gt;Node11 -->
<g id="edge16_Node000002_Node000011" class="edge">
<title>Node2&#45;&gt;Node11</title>
<g id="a_edge16_Node000002_Node000011"><a xlink:title=" ">
<path fill="none" stroke="#63b8ff" d="M766.06,-360.39C768.29,-350.94 770.74,-340.13 772.75,-330.25 778.16,-303.61 783.37,-272.67 786.56,-252.88"/>
<polygon fill="#63b8ff" stroke="#63b8ff" points="762.68,-359.46 763.75,-370 769.49,-361.09 762.68,-359.46"/>
</a>
</g>
</g>
<!-- Node3&#45;&gt;Node4 -->
<g id="edge3_Node000003_Node000004" class="edge">
<title>Node3&#45;&gt;Node4</title>
<g id="a_edge3_Node000003_Node000004"><a xlink:title=" ">
<path fill="none" stroke="#63b8ff" d="M627.86,-284.16C600.93,-274.11 570.03,-262.58 544.3,-252.98"/>
<polygon fill="#63b8ff" stroke="#63b8ff" points="626.34,-287.33 636.93,-287.55 628.79,-280.77 626.34,-287.33"/>
</a>
</g>
</g>
<!-- Node9 -->
<g id="Node000009" class="node">
<title>Node9</title>
<g id="a_Node000009"><a xlink:href="Readoutlibs_8cpp.html" target="_top" xlink:title=" ">
<polygon fill="white" stroke="#666666" points="616,-97 499.5,-97 499.5,-66.5 616,-66.5 616,-97"/>
<text text-anchor="start" x="507.5" y="-83.5" font-family="Helvetica,sans-Serif" font-size="10.00">sourcecode/readoutlibs</text>
<text text-anchor="middle" x="557.75" y="-72.25" font-family="Helvetica,sans-Serif" font-size="10.00">/src/Readoutlibs.cpp</text>
</a>
</g>
</g>
<!-- Node3&#45;&gt;Node9 -->
<g id="edge14_Node000003_Node000009" class="edge">
<title>Node3&#45;&gt;Node9</title>
<g id="a_edge14_Node000003_Node000009"><a xlink:title=" ">
<path fill="none" stroke="#63b8ff" d="M698.64,-276.86C703.88,-238.92 706.59,-175.08 675.75,-133 661.54,-113.6 638.31,-101.63 616.21,-94.27"/>
<polygon fill="#63b8ff" stroke="#63b8ff" points="695.19,-276.29 697.12,-286.71 702.1,-277.36 695.19,-276.29"/>
</a>
</g>
</g>
<!-- Node3&#45;&gt;Node11 -->
<g id="edge12_Node000003_Node000011" class="edge">
<title>Node3&#45;&gt;Node11</title>
<g id="a_edge12_Node000003_Node000011"><a xlink:title=" ">
<path fill="none" stroke="#63b8ff" d="M727.57,-281.19C739.48,-271.89 752.58,-261.65 763.68,-252.98"/>
<polygon fill="#63b8ff" stroke="#63b8ff" points="725.66,-278.23 719.94,-287.14 729.97,-283.75 725.66,-278.23"/>
</a>
</g>
</g>
<!-- Node5 -->
<g id="Node000005" class="node">
<title>Node5</title>
<g id="a_Node000005"><a xlink:href="DefaultSkipListRequestHandler_8hpp.html" target="_top" xlink:title=" ">
<polygon fill="white" stroke="#666666" points="173.5,-174.75 0,-174.75 0,-133 173.5,-133 173.5,-174.75"/>
<text text-anchor="start" x="8" y="-161.25" font-family="Helvetica,sans-Serif" font-size="10.00">sourcecode/readoutlibs</text>
<text text-anchor="start" x="8" y="-150" font-family="Helvetica,sans-Serif" font-size="10.00">/include/readoutlibs/models</text>
<text text-anchor="middle" x="86.75" y="-138.75" font-family="Helvetica,sans-Serif" font-size="10.00">/DefaultSkipListRequestHandler.hpp</text>
</a>
</g>
</g>
<!-- Node4&#45;&gt;Node5 -->
<g id="edge4_Node000004_Node000005" class="edge">
<title>Node4&#45;&gt;Node5</title>
<g id="a_edge4_Node000004_Node000005"><a xlink:title=" ">
<path fill="none" stroke="#63b8ff" d="M396.43,-214.37C335.3,-203.55 253.68,-188.8 181.75,-174.75 179.19,-174.25 176.59,-173.74 173.96,-173.21"/>
<polygon fill="#63b8ff" stroke="#63b8ff" points="395.66,-217.78 406.11,-216.08 396.88,-210.89 395.66,-217.78"/>
</a>
</g>
</g>
<!-- Node8 -->
<g id="Node000008" class="node">
<title>Node8</title>
<g id="a_Node000008"><a xlink:href="EmptyFragmentRequestHandlerModel_8hpp.html" target="_top" xlink:title=" ">
<polygon fill="white" stroke="#666666" points="392.38,-174.75 191.12,-174.75 191.12,-133 392.38,-133 392.38,-174.75"/>
<text text-anchor="start" x="199.12" y="-161.25" font-family="Helvetica,sans-Serif" font-size="10.00">sourcecode/readoutlibs</text>
<text text-anchor="start" x="199.12" y="-150" font-family="Helvetica,sans-Serif" font-size="10.00">/include/readoutlibs/models</text>
<text text-anchor="middle" x="291.75" y="-138.75" font-family="Helvetica,sans-Serif" font-size="10.00">/EmptyFragmentRequestHandlerModel.hpp</text>
</a>
</g>
</g>
<!-- Node4&#45;&gt;Node8 -->
<g id="edge7_Node000004_Node000008" class="edge">
<title>Node4&#45;&gt;Node8</title>
<g id="a_edge7_Node000004_Node000008"><a xlink:title=" ">
<path fill="none" stroke="#63b8ff" d="M426.11,-206.28C399.93,-196.26 369.94,-184.79 344.96,-175.23"/>
<polygon fill="#63b8ff" stroke="#63b8ff" points="424.69,-209.48 435.28,-209.78 427.19,-202.94 424.69,-209.48"/>
</a>
</g>
</g>
<!-- Node4&#45;&gt;Node9 -->
<g id="edge11_Node000004_Node000009" class="edge">
<title>Node4&#45;&gt;Node9</title>
<g id="a_edge11_Node000004_Node000009"><a xlink:title=" ">
<path fill="none" stroke="#63b8ff" d="M457.2,-202.17C450.1,-194.09 443.57,-184.75 439.75,-174.75 433.13,-157.42 429.52,-148.48 439.75,-133 453.2,-112.66 476.73,-100.53 499.26,-93.3"/>
<polygon fill="#63b8ff" stroke="#63b8ff" points="454.56,-204.47 463.98,-209.31 459.63,-199.65 454.56,-204.47"/>
</a>
</g>
</g>
<!-- Node10 -->
<g id="Node000010" class="node">
<title>Node10</title>
<g id="a_Node000010"><a xlink:href="ZeroCopyRecordingRequestHandlerModel_8hpp.html" target="_top" xlink:title=" ">
<polygon fill="white" stroke="#666666" points="666.62,-174.75 448.88,-174.75 448.88,-133 666.62,-133 666.62,-174.75"/>
<text text-anchor="start" x="456.88" y="-161.25" font-family="Helvetica,sans-Serif" font-size="10.00">sourcecode/readoutlibs</text>
<text text-anchor="start" x="456.88" y="-150" font-family="Helvetica,sans-Serif" font-size="10.00">/include/readoutlibs/models</text>
<text text-anchor="middle" x="557.75" y="-138.75" font-family="Helvetica,sans-Serif" font-size="10.00">/ZeroCopyRecordingRequestHandlerModel.hpp</text>
</a>
</g>
</g>
<!-- Node4&#45;&gt;Node10 -->
<g id="edge9_Node000004_Node000010" class="edge">
<title>Node4&#45;&gt;Node10</title>
<g id="a_edge9_Node000004_Node000010"><a xlink:title=" ">
<path fill="none" stroke="#63b8ff" d="M515.64,-201.79C523.58,-192.94 532.15,-183.39 539.48,-175.23"/>
<polygon fill="#63b8ff" stroke="#63b8ff" points="513.06,-199.42 508.98,-209.2 518.27,-204.1 513.06,-199.42"/>
</a>
</g>
</g>
<!-- Node6 -->
<g id="Node000006" class="node">
<title>Node6</title>
<g id="a_Node000006"><a xlink:href="TPRequestHandler_8hpp.html" target="_top" xlink:title=" ">
<polygon fill="white" stroke="#666666" points="169.75,-97 3.75,-97 3.75,-66.5 169.75,-66.5 169.75,-97"/>
<text text-anchor="start" x="11.75" y="-83.5" font-family="Helvetica,sans-Serif" font-size="10.00">sourcecode/trigger</text>
<text text-anchor="middle" x="86.75" y="-72.25" font-family="Helvetica,sans-Serif" font-size="10.00">/src/trigger/TPRequestHandler.hpp</text>
</a>
</g>
</g>
<!-- Node5&#45;&gt;Node6 -->
<g id="edge5_Node000005_Node000006" class="edge">
<title>Node5&#45;&gt;Node6</title>
<g id="a_edge5_Node000005_Node000006"><a xlink:title=" ">
<path fill="none" stroke="#63b8ff" d="M86.75,-121.13C86.75,-112.77 86.75,-104.15 86.75,-97.2"/>
<polygon fill="#63b8ff" stroke="#63b8ff" points="83.25,-121.08 86.75,-131.08 90.25,-121.08 83.25,-121.08"/>
</a>
</g>
</g>
<!-- Node7 -->
<g id="Node000007" class="node">
<title>Node7</title>
<g id="a_Node000007"><a xlink:href="TPRequestHandler_8cpp.html" target="_top" xlink:title=" ">
<polygon fill="white" stroke="#666666" points="154.75,-30.5 18.75,-30.5 18.75,0 154.75,0 154.75,-30.5"/>
<text text-anchor="start" x="26.75" y="-17" font-family="Helvetica,sans-Serif" font-size="10.00">sourcecode/trigger</text>
<text text-anchor="middle" x="86.75" y="-5.75" font-family="Helvetica,sans-Serif" font-size="10.00">/src/TPRequestHandler.cpp</text>
</a>
</g>
</g>
<!-- Node6&#45;&gt;Node7 -->
<g id="edge6_Node000006_Node000007" class="edge">
<title>Node6&#45;&gt;Node7</title>
<g id="a_edge6_Node000006_Node000007"><a xlink:title=" ">
<path fill="none" stroke="#63b8ff" d="M86.75,-54.81C86.75,-46.64 86.75,-37.91 86.75,-30.83"/>
<polygon fill="#63b8ff" stroke="#63b8ff" points="83.25,-54.6 86.75,-64.6 90.25,-54.6 83.25,-54.6"/>
</a>
</g>
</g>
<!-- Node8&#45;&gt;Node9 -->
<g id="edge8_Node000008_Node000009" class="edge">
<title>Node8&#45;&gt;Node9</title>
<g id="a_edge8_Node000008_Node000009"><a xlink:title=" ">
<path fill="none" stroke="#63b8ff" d="M379.62,-129.71C420,-119.07 466.67,-106.76 502.1,-97.42"/>
<polygon fill="#63b8ff" stroke="#63b8ff" points="378.93,-126.27 370.15,-132.21 380.71,-133.04 378.93,-126.27"/>
</a>
</g>
</g>
<!-- Node10&#45;&gt;Node9 -->
<g id="edge10_Node000010_Node000009" class="edge">
<title>Node10&#45;&gt;Node9</title>
<g id="a_edge10_Node000010_Node000009"><a xlink:title=" ">
<path fill="none" stroke="#63b8ff" d="M557.75,-121.13C557.75,-112.77 557.75,-104.15 557.75,-97.2"/>
<polygon fill="#63b8ff" stroke="#63b8ff" points="554.25,-121.08 557.75,-131.08 561.25,-121.08 554.25,-121.08"/>
</a>
</g>
</g>
<!-- Node11&#45;&gt;Node9 -->
<g id="edge13_Node000011_Node000009" class="edge">
<title>Node11&#45;&gt;Node9</title>
<g id="a_edge13_Node000011_Node000009"><a xlink:title=" ">
<path fill="none" stroke="#63b8ff" d="M771.82,-201.17C757.27,-179.53 734.92,-150.89 708.75,-133 681.15,-114.13 645.91,-101.87 616.41,-94.19"/>
<polygon fill="#63b8ff" stroke="#63b8ff" points="768.72,-202.83 777.12,-209.29 774.59,-199.01 768.72,-202.83"/>
</a>
</g>
</g>
<!-- Node13 -->
<g id="Node000013" class="node">
<title>Node13</title>
<g id="a_Node000013"><a xlink:href="TriggerInhibitAgent_8hpp.html" target="_top" xlink:title=" ">
<polygon fill="white" stroke="#666666" points="1012.62,-330.25 872.88,-330.25 872.88,-288.5 1012.62,-288.5 1012.62,-330.25"/>
<text text-anchor="start" x="880.88" y="-316.75" font-family="Helvetica,sans-Serif" font-size="10.00">sourcecode/dfmodules</text>
<text text-anchor="start" x="880.88" y="-305.5" font-family="Helvetica,sans-Serif" font-size="10.00">/src/dfmodules/TriggerInhibit</text>
<text text-anchor="middle" x="942.75" y="-294.25" font-family="Helvetica,sans-Serif" font-size="10.00">Agent.hpp</text>
</a>
</g>
</g>
<!-- Node12&#45;&gt;Node13 -->
<g id="edge18_Node000012_Node000013" class="edge">
<title>Node12&#45;&gt;Node13</title>
<g id="a_edge18_Node000012_Node000013"><a xlink:title=" ">
<path fill="none" stroke="#63b8ff" d="M961.75,-355.34C958.24,-347.05 954.54,-338.29 951.35,-330.73"/>
<polygon fill="#63b8ff" stroke="#63b8ff" points="958.47,-356.58 965.59,-364.43 964.92,-353.86 958.47,-356.58"/>
</a>
</g>
</g>
<!-- Node15 -->
<g id="Node000015" class="node">
<title>Node15</title>
<g id="a_Node000015"><a xlink:href="TriggerRecordBuilderData_8hpp.html" target="_top" xlink:title=" ">
<polygon fill="white" stroke="#666666" points="1176.88,-330.25 1032.62,-330.25 1032.62,-288.5 1176.88,-288.5 1176.88,-330.25"/>
<text text-anchor="start" x="1040.62" y="-316.75" font-family="Helvetica,sans-Serif" font-size="10.00">sourcecode/dfmodules</text>
<text text-anchor="start" x="1040.62" y="-305.5" font-family="Helvetica,sans-Serif" font-size="10.00">/src/dfmodules/TriggerRecord</text>
<text text-anchor="middle" x="1104.75" y="-294.25" font-family="Helvetica,sans-Serif" font-size="10.00">BuilderData.hpp</text>
</a>
</g>
</g>
<!-- Node12&#45;&gt;Node15 -->
<g id="edge20_Node000012_Node000015" class="edge">
<title>Node12&#45;&gt;Node15</title>
<g id="a_edge20_Node000012_Node000015"><a xlink:title=" ">
<path fill="none" stroke="#63b8ff" d="M1019.07,-360.3C1035.64,-350.64 1054.21,-339.82 1069.82,-330.73"/>
<polygon fill="#63b8ff" stroke="#63b8ff" points="1017.77,-357 1010.9,-365.06 1021.3,-363.05 1017.77,-357"/>
</a>
</g>
</g>
<!-- Node17 -->
<g id="Node000017" class="node">
<title>Node17</title>
<g id="a_Node000017"><a xlink:href="TCProcessor_8hpp.html" target="_top" xlink:title=" ">
<polygon fill="white" stroke="#666666" points="1336,-324.62 1195.5,-324.62 1195.5,-294.12 1336,-294.12 1336,-324.62"/>
<text text-anchor="start" x="1203.5" y="-311.12" font-family="Helvetica,sans-Serif" font-size="10.00">sourcecode/trigger</text>
<text text-anchor="middle" x="1265.75" y="-299.88" font-family="Helvetica,sans-Serif" font-size="10.00">/src/trigger/TCProcessor.hpp</text>
</a>
</g>
</g>
<!-- Node12&#45;&gt;Node17 -->
<g id="edge22_Node000012_Node000017" class="edge">
<title>Node12&#45;&gt;Node17</title>
<g id="a_edge22_Node000012_Node000017"><a xlink:title=" ">
<path fill="none" stroke="#63b8ff" d="M1055.33,-365.15C1104.26,-352.41 1165.51,-336.47 1209.29,-325.07"/>
<polygon fill="#63b8ff" stroke="#63b8ff" points="1054.71,-361.69 1045.92,-367.6 1056.48,-368.47 1054.71,-361.69"/>
</a>
</g>
</g>
<!-- Node14 -->
<g id="Node000014" class="node">
<title>Node14</title>
<g id="a_Node000014"><a xlink:href="TriggerInhibitAgent_8cpp.html" target="_top" xlink:title=" ">
<polygon fill="white" stroke="#666666" points="1010.38,-246.88 875.12,-246.88 875.12,-216.38 1010.38,-216.38 1010.38,-246.88"/>
<text text-anchor="start" x="883.12" y="-233.38" font-family="Helvetica,sans-Serif" font-size="10.00">sourcecode/dfmodules</text>
<text text-anchor="middle" x="942.75" y="-222.12" font-family="Helvetica,sans-Serif" font-size="10.00">/src/TriggerInhibitAgent.cpp</text>
</a>
</g>
</g>
<!-- Node13&#45;&gt;Node14 -->
<g id="edge19_Node000013_Node000014" class="edge">
<title>Node13&#45;&gt;Node14</title>
<g id="a_edge19_Node000013_Node000014"><a xlink:title=" ">
<path fill="none" stroke="#63b8ff" d="M942.75,-276.81C942.75,-266.44 942.75,-255.42 942.75,-246.98"/>
<polygon fill="#63b8ff" stroke="#63b8ff" points="939.25,-276.56 942.75,-286.56 946.25,-276.56 939.25,-276.56"/>
</a>
</g>
</g>
<!-- Node16 -->
<g id="Node000016" class="node">
<title>Node16</title>
<g id="a_Node000016"><a xlink:href="TriggerRecordBuilderData_8cpp.html" target="_top" xlink:title=" ">
<polygon fill="white" stroke="#666666" points="1193,-246.88 1028.5,-246.88 1028.5,-216.38 1193,-216.38 1193,-246.88"/>
<text text-anchor="start" x="1036.5" y="-233.38" font-family="Helvetica,sans-Serif" font-size="10.00">sourcecode/dfmodules</text>
<text text-anchor="middle" x="1110.75" y="-222.12" font-family="Helvetica,sans-Serif" font-size="10.00">/src/TriggerRecordBuilderData.cpp</text>
</a>
</g>
</g>
<!-- Node15&#45;&gt;Node16 -->
<g id="edge21_Node000015_Node000016" class="edge">
<title>Node15&#45;&gt;Node16</title>
<g id="a_edge21_Node000015_Node000016"><a xlink:title=" ">
<path fill="none" stroke="#63b8ff" d="M1107.25,-276.81C1108.07,-266.44 1108.94,-255.42 1109.61,-246.98"/>
<polygon fill="#63b8ff" stroke="#63b8ff" points="1103.78,-276.32 1106.48,-286.57 1110.76,-276.87 1103.78,-276.32"/>
</a>
</g>
</g>
<!-- Node18 -->
<g id="Node000018" class="node">
<title>Node18</title>
<g id="a_Node000018"><a xlink:href="TCProcessor_8cpp.html" target="_top" xlink:title=" ">
<polygon fill="white" stroke="#666666" points="1322,-246.88 1211.5,-246.88 1211.5,-216.38 1322,-216.38 1322,-246.88"/>
<text text-anchor="start" x="1219.5" y="-233.38" font-family="Helvetica,sans-Serif" font-size="10.00">sourcecode/trigger</text>
<text text-anchor="middle" x="1266.75" y="-222.12" font-family="Helvetica,sans-Serif" font-size="10.00">/src/TCProcessor.cpp</text>
</a>
</g>
</g>
<!-- Node17&#45;&gt;Node18 -->
<g id="edge23_Node000017_Node000018" class="edge">
<title>Node17&#45;&gt;Node18</title>
<g id="a_edge23_Node000017_Node000018"><a xlink:title=" ">
<path fill="none" stroke="#63b8ff" d="M1266.09,-282.35C1266.25,-270.59 1266.43,-257.13 1266.56,-247.19"/>
<polygon fill="#63b8ff" stroke="#63b8ff" points="1262.6,-282.21 1265.96,-292.26 1269.59,-282.3 1262.6,-282.21"/>
</a>
</g>
</g>
</g>
</svg>
