<?xml version="1.0" encoding="UTF-8" standalone="no"?>
<!DOCTYPE svg PUBLIC "-//W3C//DTD SVG 1.1//EN"
 "http://www.w3.org/Graphics/SVG/1.1/DTD/svg11.dtd">
<!-- Generated by graphviz version 9.0.0 (20230911.1827)
 -->
<!-- Title: sourcecode/oksdbinterfaces/include/oksdbinterfaces/ConfigurationImpl.hpp Pages: 1 -->
<svg width="657pt" height="227pt"
 viewBox="0.00 0.00 656.92 226.75" xmlns="http://www.w3.org/2000/svg" xmlns:xlink="http://www.w3.org/1999/xlink">
<g id="graph0" class="graph" transform="scale(1 1) rotate(0) translate(4 222.75)">
<title>sourcecode/oksdbinterfaces/include/oksdbinterfaces/ConfigurationImpl.hpp</title>
<!-- Node1 -->
<g id="Node000001" class="node">
<title>Node1</title>
<g id="a_Node000001"><a xlink:title=" ">
<polygon fill="#999999" stroke="#666666" points="435.5,-218.75 297.25,-218.75 297.25,-177 435.5,-177 435.5,-218.75"/>
<text text-anchor="start" x="305.25" y="-205.25" font-family="Helvetica,sans-Serif" font-size="10.00">sourcecode/oksdbinterfaces</text>
<text text-anchor="start" x="305.25" y="-194" font-family="Helvetica,sans-Serif" font-size="10.00">/include/oksdbinterfaces</text>
<text text-anchor="middle" x="366.38" y="-182.75" font-family="Helvetica,sans-Serif" font-size="10.00">/ConfigurationImpl.hpp</text>
</a>
</g>
</g>
<!-- Node2 -->
<g id="Node000002" class="node">
<title>Node2</title>
<g id="a_Node000002"><a xlink:title=" ">
<polygon fill="#e0e0e0" stroke="#999999" points="543.38,-19.25 503.38,-19.25 503.38,0 543.38,0 543.38,-19.25"/>
<text text-anchor="middle" x="523.38" y="-5.75" font-family="Helvetica,sans-Serif" font-size="10.00">string</text>
</a>
</g>
</g>
<!-- Node1&#45;&gt;Node2 -->
<g id="edge1_Node000001_Node000002" class="edge">
<title>Node1&#45;&gt;Node2</title>
<g id="a_edge1_Node000001_Node000002"><a xlink:title=" ">
<path fill="none" stroke="#63b8ff" d="M435.77,-192.44C508.03,-186.2 614.14,-171.92 639.38,-141 674.93,-97.43 597.94,-48.5 552.92,-24.89"/>
<polygon fill="#63b8ff" stroke="#63b8ff" points="554.63,-21.83 544.13,-20.4 551.45,-28.07 554.63,-21.83"/>
</a>
</g>
</g>
<!-- Node3 -->
<g id="Node000003" class="node">
<title>Node3</title>
<g id="a_Node000003"><a xlink:title=" ">
<polygon fill="#e0e0e0" stroke="#999999" points="463.88,-80.12 420.88,-80.12 420.88,-60.88 463.88,-60.88 463.88,-80.12"/>
<text text-anchor="middle" x="442.38" y="-66.62" font-family="Helvetica,sans-Serif" font-size="10.00">vector</text>
</a>
</g>
</g>
<!-- Node1&#45;&gt;Node3 -->
<g id="edge2_Node000001_Node000003" class="edge">
<title>Node1&#45;&gt;Node3</title>
<g id="a_edge2_Node000001_Node000003"><a xlink:title=" ">
<path fill="none" stroke="#63b8ff" d="M388.39,-176.73C398.3,-166.74 409.51,-154.05 417.38,-141 426.69,-125.54 433.32,-106.07 437.4,-91.67"/>
<polygon fill="#63b8ff" stroke="#63b8ff" points="440.78,-92.58 439.95,-82.02 434.02,-90.79 440.78,-92.58"/>
</a>
</g>
</g>
<!-- Node4 -->
<g id="Node000004" class="node">
<title>Node4</title>
<g id="a_Node000004"><a xlink:title=" ">
<polygon fill="#e0e0e0" stroke="#999999" points="308.77,-141 279.98,-141 279.98,-121.75 308.77,-121.75 308.77,-141"/>
<text text-anchor="middle" x="294.38" y="-127.5" font-family="Helvetica,sans-Serif" font-size="10.00">list</text>
</a>
</g>
</g>
<!-- Node1&#45;&gt;Node4 -->
<g id="edge3_Node000001_Node000004" class="edge">
<title>Node1&#45;&gt;Node4</title>
<g id="a_edge3_Node000001_Node000004"><a xlink:title=" ">
<path fill="none" stroke="#63b8ff" d="M343.99,-176.82C333.98,-167.85 322.32,-157.41 312.82,-148.9"/>
<polygon fill="#63b8ff" stroke="#63b8ff" points="315.41,-146.52 305.63,-142.46 310.74,-151.73 315.41,-146.52"/>
</a>
</g>
</g>
<!-- Node5 -->
<g id="Node000005" class="node">
<title>Node5</title>
<g id="a_Node000005"><a xlink:title=" ">
<polygon fill="#e0e0e0" stroke="#999999" points="356.12,-141 326.62,-141 326.62,-121.75 356.12,-121.75 356.12,-141"/>
<text text-anchor="middle" x="341.38" y="-127.5" font-family="Helvetica,sans-Serif" font-size="10.00">set</text>
</a>
</g>
</g>
<!-- Node1&#45;&gt;Node5 -->
<g id="edge4_Node000001_Node000005" class="edge">
<title>Node1&#45;&gt;Node5</title>
<g id="a_edge4_Node000001_Node000005"><a xlink:title=" ">
<path fill="none" stroke="#63b8ff" d="M358.6,-176.82C355.56,-168.96 352.07,-159.97 349.04,-152.14"/>
<polygon fill="#63b8ff" stroke="#63b8ff" points="352.32,-150.92 345.44,-142.86 345.79,-153.45 352.32,-150.92"/>
</a>
</g>
</g>
<!-- Node6 -->
<g id="Node000006" class="node">
<title>Node6</title>
<g id="a_Node000006"><a xlink:title=" ">
<polygon fill="#e0e0e0" stroke="#999999" points="408.75,-141 374,-141 374,-121.75 408.75,-121.75 408.75,-141"/>
<text text-anchor="middle" x="391.38" y="-127.5" font-family="Helvetica,sans-Serif" font-size="10.00">map</text>
</a>
</g>
</g>
<!-- Node1&#45;&gt;Node6 -->
<g id="edge5_Node000001_Node000006" class="edge">
<title>Node1&#45;&gt;Node6</title>
<g id="a_edge5_Node000001_Node000006"><a xlink:title=" ">
<path fill="none" stroke="#63b8ff" d="M374.15,-176.82C377.19,-168.96 380.68,-159.97 383.71,-152.14"/>
<polygon fill="#63b8ff" stroke="#63b8ff" points="386.96,-153.45 387.31,-142.86 380.43,-150.92 386.96,-153.45"/>
</a>
</g>
</g>
<!-- Node7 -->
<g id="Node000007" class="node">
<title>Node7</title>
<g id="a_Node000007"><a xlink:href="map_8hpp.html" target="_top" xlink:title=" ">
<polygon fill="white" stroke="#666666" points="124.75,-141 0,-141 0,-121.75 124.75,-121.75 124.75,-141"/>
<text text-anchor="middle" x="62.38" y="-127.5" font-family="Helvetica,sans-Serif" font-size="10.00">oksdbinterfaces/map.hpp</text>
</a>
</g>
</g>
<!-- Node1&#45;&gt;Node7 -->
<g id="edge6_Node000001_Node000007" class="edge">
<title>Node1&#45;&gt;Node7</title>
<g id="a_edge6_Node000001_Node000007"><a xlink:title=" ">
<path fill="none" stroke="#63b8ff" d="M297.01,-182.16C242.11,-170.51 166.54,-154.48 116.15,-143.79"/>
<polygon fill="#63b8ff" stroke="#63b8ff" points="117.16,-140.42 106.65,-141.77 115.71,-147.27 117.16,-140.42"/>
</a>
</g>
</g>
<!-- Node10 -->
<g id="Node000010" class="node">
<title>Node10</title>
<g id="a_Node000010"><a xlink:href="set_8hpp.html" target="_top" xlink:title=" ">
<polygon fill="white" stroke="#666666" points="262.12,-141 142.62,-141 142.62,-121.75 262.12,-121.75 262.12,-141"/>
<text text-anchor="middle" x="202.38" y="-127.5" font-family="Helvetica,sans-Serif" font-size="10.00">oksdbinterfaces/set.hpp</text>
</a>
</g>
</g>
<!-- Node1&#45;&gt;Node10 -->
<g id="edge10_Node000001_Node000010" class="edge">
<title>Node1&#45;&gt;Node10</title>
<g id="a_edge10_Node000001_Node000010"><a xlink:title=" ">
<path fill="none" stroke="#63b8ff" d="M314.93,-176.64C289.1,-166.48 258.55,-154.47 235.8,-145.52"/>
<polygon fill="#63b8ff" stroke="#63b8ff" points="237.3,-142.35 226.72,-141.95 234.74,-148.87 237.3,-142.35"/>
</a>
</g>
</g>
<!-- Node12 -->
<g id="Node000012" class="node">
<title>Node12</title>
<g id="a_Node000012"><a xlink:href="ConfigVersion_8hpp.html" target="_top" xlink:title=" ">
<polygon fill="white" stroke="#666666" points="630.38,-141 464.38,-141 464.38,-121.75 630.38,-121.75 630.38,-141"/>
<text text-anchor="middle" x="547.38" y="-127.5" font-family="Helvetica,sans-Serif" font-size="10.00">oksdbinterfaces/ConfigVersion.hpp</text>
</a>
</g>
</g>
<!-- Node1&#45;&gt;Node12 -->
<g id="edge13_Node000001_Node000012" class="edge">
<title>Node1&#45;&gt;Node12</title>
<g id="a_edge13_Node000001_Node000012"><a xlink:title=" ">
<path fill="none" stroke="#63b8ff" d="M423.15,-176.64C452.05,-166.35 486.3,-154.14 511.51,-145.15"/>
<polygon fill="#63b8ff" stroke="#63b8ff" points="512.39,-148.56 520.64,-141.9 510.04,-141.96 512.39,-148.56"/>
</a>
</g>
</g>
<!-- Node8 -->
<g id="Node000008" class="node">
<title>Node8</title>
<g id="a_Node000008"><a xlink:href="string__ptr_8hpp.html" target="_top" xlink:title=" ">
<polygon fill="white" stroke="#666666" points="246.38,-85.75 134.38,-85.75 134.38,-55.25 246.38,-55.25 246.38,-85.75"/>
<text text-anchor="start" x="142.38" y="-72.25" font-family="Helvetica,sans-Serif" font-size="10.00">oksdbinterfaces/string</text>
<text text-anchor="middle" x="190.38" y="-61" font-family="Helvetica,sans-Serif" font-size="10.00">_ptr.hpp</text>
</a>
</g>
</g>
<!-- Node7&#45;&gt;Node8 -->
<g id="edge7_Node000007_Node000008" class="edge">
<title>Node7&#45;&gt;Node8</title>
<g id="a_edge7_Node000007_Node000008"><a xlink:title=" ">
<path fill="none" stroke="#63b8ff" d="M82.09,-121.3C99.65,-113.23 125.93,-101.14 148.2,-90.9"/>
<polygon fill="#63b8ff" stroke="#63b8ff" points="149.43,-94.19 157.05,-86.83 146.5,-87.83 149.43,-94.19"/>
</a>
</g>
</g>
<!-- Node9 -->
<g id="Node000009" class="node">
<title>Node9</title>
<g id="a_Node000009"><a xlink:title=" ">
<polygon fill="#e0e0e0" stroke="#999999" points="103.75,-80.12 21,-80.12 21,-60.88 103.75,-60.88 103.75,-80.12"/>
<text text-anchor="middle" x="62.38" y="-66.62" font-family="Helvetica,sans-Serif" font-size="10.00">unordered_map</text>
</a>
</g>
</g>
<!-- Node7&#45;&gt;Node9 -->
<g id="edge9_Node000007_Node000009" class="edge">
<title>Node7&#45;&gt;Node9</title>
<g id="a_edge9_Node000007_Node000009"><a xlink:title=" ">
<path fill="none" stroke="#63b8ff" d="M62.38,-121.43C62.38,-113.65 62.38,-102.08 62.38,-92.03"/>
<polygon fill="#63b8ff" stroke="#63b8ff" points="65.88,-92.04 62.38,-82.04 58.88,-92.04 65.88,-92.04"/>
</a>
</g>
</g>
<!-- Node8&#45;&gt;Node2 -->
<g id="edge8_Node000008_Node000002" class="edge">
<title>Node8&#45;&gt;Node2</title>
<g id="a_edge8_Node000008_Node000002"><a xlink:title=" ">
<path fill="none" stroke="#63b8ff" d="M246.71,-56.97C249.64,-56.37 252.54,-55.8 255.38,-55.25 340.52,-38.84 441.59,-22.98 491.8,-15.35"/>
<polygon fill="#63b8ff" stroke="#63b8ff" points="492.28,-18.82 501.64,-13.86 491.23,-11.9 492.28,-18.82"/>
</a>
</g>
</g>
<!-- Node10&#45;&gt;Node8 -->
<g id="edge11_Node000010_Node000008" class="edge">
<title>Node10&#45;&gt;Node8</title>
<g id="a_edge11_Node000010_Node000008"><a xlink:title=" ">
<path fill="none" stroke="#63b8ff" d="M200.55,-121.43C199.24,-114.98 197.39,-105.91 195.63,-97.26"/>
<polygon fill="#63b8ff" stroke="#63b8ff" points="199.07,-96.61 193.64,-87.52 192.21,-98.01 199.07,-96.61"/>
</a>
</g>
</g>
<!-- Node11 -->
<g id="Node000011" class="node">
<title>Node11</title>
<g id="a_Node000011"><a xlink:title=" ">
<polygon fill="#e0e0e0" stroke="#999999" points="342.12,-80.12 264.62,-80.12 264.62,-60.88 342.12,-60.88 342.12,-80.12"/>
<text text-anchor="middle" x="303.38" y="-66.62" font-family="Helvetica,sans-Serif" font-size="10.00">unordered_set</text>
</a>
</g>
</g>
<!-- Node10&#45;&gt;Node11 -->
<g id="edge12_Node000010_Node000011" class="edge">
<title>Node10&#45;&gt;Node11</title>
<g id="a_edge12_Node000010_Node000011"><a xlink:title=" ">
<path fill="none" stroke="#63b8ff" d="M217.71,-121.43C233.73,-112.1 259.12,-97.3 278.1,-86.23"/>
<polygon fill="#63b8ff" stroke="#63b8ff" points="279.71,-89.35 286.58,-81.29 276.18,-83.3 279.71,-89.35"/>
</a>
</g>
</g>
<!-- Node12&#45;&gt;Node2 -->
<g id="edge15_Node000012_Node000002" class="edge">
<title>Node12&#45;&gt;Node2</title>
<g id="a_edge15_Node000012_Node000002"><a xlink:title=" ">
<path fill="none" stroke="#63b8ff" d="M545.57,-121.37C541.75,-102.3 532.75,-57.41 527.46,-31.01"/>
<polygon fill="#63b8ff" stroke="#63b8ff" points="530.89,-30.33 525.5,-21.21 524.03,-31.71 530.89,-30.33"/>
</a>
</g>
</g>
<!-- Node12&#45;&gt;Node3 -->
<g id="edge16_Node000012_Node000003" class="edge">
<title>Node12&#45;&gt;Node3</title>
<g id="a_edge16_Node000012_Node000003"><a xlink:title=" ">
<path fill="none" stroke="#63b8ff" d="M531.43,-121.43C514.7,-112.05 488.14,-97.16 468.37,-86.08"/>
<polygon fill="#63b8ff" stroke="#63b8ff" points="470.23,-83.1 459.79,-81.27 466.8,-89.21 470.23,-83.1"/>
</a>
</g>
</g>
<!-- Node13 -->
<g id="Node000013" class="node">
<title>Node13</title>
<g id="a_Node000013"><a xlink:title=" ">
<polygon fill="#e0e0e0" stroke="#999999" points="591.38,-80.12 551.38,-80.12 551.38,-60.88 591.38,-60.88 591.38,-80.12"/>
<text text-anchor="middle" x="571.38" y="-66.62" font-family="Helvetica,sans-Serif" font-size="10.00">ctime</text>
</a>
</g>
</g>
<!-- Node12&#45;&gt;Node13 -->
<g id="edge14_Node000012_Node000013" class="edge">
<title>Node12&#45;&gt;Node13</title>
<g id="a_edge14_Node000012_Node000013"><a xlink:title=" ">
<path fill="none" stroke="#63b8ff" d="M551.02,-121.43C554.3,-113.39 559.23,-101.3 563.41,-91.03"/>
<polygon fill="#63b8ff" stroke="#63b8ff" points="566.59,-92.51 567.12,-81.93 560.11,-89.87 566.59,-92.51"/>
</a>
</g>
</g>
</g>
</svg>
