<?xml version="1.0" encoding="UTF-8" standalone="no"?>
<!DOCTYPE svg PUBLIC "-//W3C//DTD SVG 1.1//EN"
 "http://www.w3.org/Graphics/SVG/1.1/DTD/svg11.dtd">
<!-- Generated by graphviz version 9.0.0 (20230911.1827)
 -->
<!-- Title: sourcecode/oksdbinterfaces/include/oksdbinterfaces/ConfigAction.hpp Pages: 1 -->
<svg width="209pt" height="160pt"
 viewBox="0.00 0.00 208.88 160.25" xmlns="http://www.w3.org/2000/svg" xmlns:xlink="http://www.w3.org/1999/xlink">
<g id="graph0" class="graph" transform="scale(1 1) rotate(0) translate(4 156.25)">
<title>sourcecode/oksdbinterfaces/include/oksdbinterfaces/ConfigAction.hpp</title>
<!-- Node1 -->
<g id="Node000001" class="node">
<title>Node1</title>
<g id="a_Node000001"><a xlink:title=" ">
<polygon fill="#999999" stroke="#666666" points="138.25,-152.25 0,-152.25 0,-110.5 138.25,-110.5 138.25,-152.25"/>
<text text-anchor="start" x="8" y="-138.75" font-family="Helvetica,sans-Serif" font-size="10.00">sourcecode/oksdbinterfaces</text>
<text text-anchor="start" x="8" y="-127.5" font-family="Helvetica,sans-Serif" font-size="10.00">/include/oksdbinterfaces</text>
<text text-anchor="middle" x="69.12" y="-116.25" font-family="Helvetica,sans-Serif" font-size="10.00">/ConfigAction.hpp</text>
</a>
</g>
</g>
<!-- Node2 -->
<g id="Node000002" class="node">
<title>Node2</title>
<g id="a_Node000002"><a xlink:title=" ">
<polygon fill="#e0e0e0" stroke="#999999" points="59.12,-19.25 19.12,-19.25 19.12,0 59.12,0 59.12,-19.25"/>
<text text-anchor="middle" x="39.12" y="-5.75" font-family="Helvetica,sans-Serif" font-size="10.00">string</text>
</a>
</g>
</g>
<!-- Node1&#45;&gt;Node2 -->
<g id="edge1_Node000001_Node000002" class="edge">
<title>Node1&#45;&gt;Node2</title>
<g id="a_edge1_Node000001_Node000002"><a xlink:title=" ">
<path fill="none" stroke="#63b8ff" d="M55.13,-110.15C48.92,-99.96 42.29,-87.1 39.12,-74.5 35.51,-60.14 35.67,-43.39 36.64,-30.64"/>
<polygon fill="#63b8ff" stroke="#63b8ff" points="40.1,-31.28 37.63,-20.98 33.13,-30.57 40.1,-31.28"/>
</a>
</g>
</g>
<!-- Node3 -->
<g id="Node000003" class="node">
<title>Node3</title>
<g id="a_Node000003"><a xlink:href="Change_8hpp.html" target="_top" xlink:title=" ">
<polygon fill="white" stroke="#666666" points="187.62,-74.5 48.62,-74.5 48.62,-55.25 187.62,-55.25 187.62,-74.5"/>
<text text-anchor="middle" x="118.12" y="-61" font-family="Helvetica,sans-Serif" font-size="10.00">oksdbinterfaces/Change.hpp</text>
</a>
</g>
</g>
<!-- Node1&#45;&gt;Node3 -->
<g id="edge2_Node000001_Node000003" class="edge">
<title>Node1&#45;&gt;Node3</title>
<g id="a_edge2_Node000001_Node000003"><a xlink:title=" ">
<path fill="none" stroke="#63b8ff" d="M84.36,-110.32C90.75,-101.91 98.13,-92.2 104.36,-84"/>
<polygon fill="#63b8ff" stroke="#63b8ff" points="107.06,-86.23 110.32,-76.15 101.48,-82 107.06,-86.23"/>
</a>
</g>
</g>
<!-- Node3&#45;&gt;Node2 -->
<g id="edge3_Node000003_Node000002" class="edge">
<title>Node3&#45;&gt;Node2</title>
<g id="a_edge3_Node000003_Node000002"><a xlink:title=" ">
<path fill="none" stroke="#63b8ff" d="M104.72,-54.84C93.03,-46.96 75.82,-35.36 61.96,-26.02"/>
<polygon fill="#63b8ff" stroke="#63b8ff" points="64.1,-23.24 53.85,-20.55 60.18,-29.04 64.1,-23.24"/>
</a>
</g>
</g>
<!-- Node4 -->
<g id="Node000004" class="node">
<title>Node4</title>
<g id="a_Node000004"><a xlink:title=" ">
<polygon fill="#e0e0e0" stroke="#999999" points="129.62,-19.25 86.62,-19.25 86.62,0 129.62,0 129.62,-19.25"/>
<text text-anchor="middle" x="108.12" y="-5.75" font-family="Helvetica,sans-Serif" font-size="10.00">vector</text>
</a>
</g>
</g>
<!-- Node3&#45;&gt;Node4 -->
<g id="edge4_Node000003_Node000004" class="edge">
<title>Node3&#45;&gt;Node4</title>
<g id="a_edge4_Node000003_Node000004"><a xlink:title=" ">
<path fill="none" stroke="#63b8ff" d="M116.47,-55.08C115.24,-48.49 113.49,-39.21 111.92,-30.82"/>
<polygon fill="#63b8ff" stroke="#63b8ff" points="115.38,-30.28 110.09,-21.1 108.5,-31.57 115.38,-30.28"/>
</a>
</g>
</g>
<!-- Node5 -->
<g id="Node000005" class="node">
<title>Node5</title>
<g id="a_Node000005"><a xlink:title=" ">
<polygon fill="#e0e0e0" stroke="#999999" points="200.88,-19.25 147.38,-19.25 147.38,0 200.88,0 200.88,-19.25"/>
<text text-anchor="middle" x="174.12" y="-5.75" font-family="Helvetica,sans-Serif" font-size="10.00">iostream</text>
</a>
</g>
</g>
<!-- Node3&#45;&gt;Node5 -->
<g id="edge5_Node000003_Node000005" class="edge">
<title>Node3&#45;&gt;Node5</title>
<g id="a_edge5_Node000003_Node000005"><a xlink:title=" ">
<path fill="none" stroke="#63b8ff" d="M127.62,-54.84C135.56,-47.3 147.07,-36.35 156.66,-27.23"/>
<polygon fill="#63b8ff" stroke="#63b8ff" points="158.83,-29.99 163.67,-20.57 154.01,-24.92 158.83,-29.99"/>
</a>
</g>
</g>
</g>
</svg>
