<?xml version="1.0" encoding="UTF-8" standalone="no"?>
<!DOCTYPE svg PUBLIC "-//W3C//DTD SVG 1.1//EN"
 "http://www.w3.org/Graphics/SVG/1.1/DTD/svg11.dtd">
<!-- Generated by graphviz version 9.0.0 (20230911.1827)
 -->
<!-- Title: sourcecode/dbe/include/dbe/config_api.hpp Pages: 1 -->
<svg width="1523pt" height="116pt"
 viewBox="0.00 0.00 1523.38 116.25" xmlns="http://www.w3.org/2000/svg" xmlns:xlink="http://www.w3.org/1999/xlink">
<g id="graph0" class="graph" transform="scale(1 1) rotate(0) translate(4 112.25)">
<title>sourcecode/dbe/include/dbe/config_api.hpp</title>
<!-- Node1 -->
<g id="Node000001" class="node">
<title>Node1</title>
<g id="a_Node000001"><a xlink:title=" ">
<polygon fill="#999999" stroke="#666666" points="770.88,-108.25 652.12,-108.25 652.12,-77.75 770.88,-77.75 770.88,-108.25"/>
<text text-anchor="start" x="660.12" y="-94.75" font-family="Helvetica,sans-Serif" font-size="10.00">sourcecode/dbe/include</text>
<text text-anchor="middle" x="711.5" y="-83.5" font-family="Helvetica,sans-Serif" font-size="10.00">/dbe/config_api.hpp</text>
</a>
</g>
</g>
<!-- Node2 -->
<g id="Node000002" class="node">
<title>Node2</title>
<g id="a_Node000002"><a xlink:href="gtool_8cpp.html" target="_top" xlink:title=" ">
<polygon fill="white" stroke="#666666" points="109,-36.12 0,-36.12 0,-5.62 109,-5.62 109,-36.12"/>
<text text-anchor="start" x="8" y="-22.62" font-family="Helvetica,sans-Serif" font-size="10.00">sourcecode/dbe/apps</text>
<text text-anchor="middle" x="54.5" y="-11.38" font-family="Helvetica,sans-Serif" font-size="10.00">/graphtool/gtool.cpp</text>
</a>
</g>
</g>
<!-- Node1&#45;&gt;Node2 -->
<g id="edge1_Node000001_Node000002" class="edge">
<title>Node1&#45;&gt;Node2</title>
<g id="a_edge1_Node000001_Node000002"><a xlink:title=" ">
<path fill="none" stroke="#63b8ff" d="M640.4,-91.05C528.24,-88.41 303.82,-78.55 117.5,-41.75 110.64,-40.39 103.47,-38.56 96.53,-36.54"/>
<polygon fill="#63b8ff" stroke="#63b8ff" points="640.29,-94.54 650.37,-91.27 640.45,-87.55 640.29,-94.54"/>
</a>
</g>
</g>
<!-- Node3 -->
<g id="Node000003" class="node">
<title>Node3</title>
<g id="a_Node000003"><a xlink:href="MainWindow_8cpp.html" target="_top" xlink:title=" ">
<polygon fill="white" stroke="#666666" points="254,-36.12 127,-36.12 127,-5.62 254,-5.62 254,-36.12"/>
<text text-anchor="start" x="135" y="-22.62" font-family="Helvetica,sans-Serif" font-size="10.00">sourcecode/dbe/src</text>
<text text-anchor="middle" x="190.5" y="-11.38" font-family="Helvetica,sans-Serif" font-size="10.00">/internal/MainWindow.cpp</text>
</a>
</g>
</g>
<!-- Node1&#45;&gt;Node3 -->
<g id="edge2_Node000001_Node000003" class="edge">
<title>Node1&#45;&gt;Node3</title>
<g id="a_edge2_Node000001_Node000003"><a xlink:title=" ">
<path fill="none" stroke="#63b8ff" d="M640.36,-87.42C551.57,-80.93 395.33,-66.93 263.5,-41.75 256.02,-40.32 248.18,-38.52 240.53,-36.59"/>
<polygon fill="#63b8ff" stroke="#63b8ff" points="639.9,-90.9 650.13,-88.12 640.41,-83.91 639.9,-90.9"/>
</a>
</g>
</g>
<!-- Node4 -->
<g id="Node000004" class="node">
<title>Node4</title>
<g id="a_Node000004"><a xlink:href="confaccessor_8cpp.html" target="_top" xlink:title=" ">
<polygon fill="white" stroke="#666666" points="402.5,-36.12 272.5,-36.12 272.5,-5.62 402.5,-5.62 402.5,-36.12"/>
<text text-anchor="start" x="280.5" y="-22.62" font-family="Helvetica,sans-Serif" font-size="10.00">sourcecode/dbe/src</text>
<text text-anchor="middle" x="337.5" y="-11.38" font-family="Helvetica,sans-Serif" font-size="10.00">/internal/confaccessor.cpp</text>
</a>
</g>
</g>
<!-- Node1&#45;&gt;Node4 -->
<g id="edge3_Node000001_Node000004" class="edge">
<title>Node1&#45;&gt;Node4</title>
<g id="a_edge3_Node000001_Node000004"><a xlink:title=" ">
<path fill="none" stroke="#63b8ff" d="M640.65,-82.1C579.63,-73.11 489.35,-58.68 411.5,-41.75 404.48,-40.22 397.13,-38.46 389.9,-36.62"/>
<polygon fill="#63b8ff" stroke="#63b8ff" points="639.8,-85.51 650.2,-83.5 640.81,-78.59 639.8,-85.51"/>
</a>
</g>
</g>
<!-- Node5 -->
<g id="Node000005" class="node">
<title>Node5</title>
<g id="a_Node000005"><a xlink:href="config__api__commands_8cpp.html" target="_top" xlink:title=" ">
<polygon fill="white" stroke="#666666" points="522.25,-41.75 420.75,-41.75 420.75,0 522.25,0 522.25,-41.75"/>
<text text-anchor="start" x="428.75" y="-28.25" font-family="Helvetica,sans-Serif" font-size="10.00">sourcecode/dbe/src</text>
<text text-anchor="start" x="428.75" y="-17" font-family="Helvetica,sans-Serif" font-size="10.00">/internal/config_api</text>
<text text-anchor="middle" x="471.5" y="-5.75" font-family="Helvetica,sans-Serif" font-size="10.00">_commands.cpp</text>
</a>
</g>
</g>
<!-- Node1&#45;&gt;Node5 -->
<g id="edge4_Node000001_Node000005" class="edge">
<title>Node1&#45;&gt;Node5</title>
<g id="a_edge4_Node000001_Node000005"><a xlink:title=" ">
<path fill="none" stroke="#63b8ff" d="M645.38,-74.35C611.26,-65.04 569.02,-53.2 531.5,-41.75 528.56,-40.85 525.55,-39.92 522.51,-38.96"/>
<polygon fill="#63b8ff" stroke="#63b8ff" points="644.13,-77.64 654.7,-76.89 645.97,-70.88 644.13,-77.64"/>
</a>
</g>
</g>
<!-- Node6 -->
<g id="Node000006" class="node">
<title>Node6</title>
<g id="a_Node000006"><a xlink:href="config__api__get_8cpp.html" target="_top" xlink:title=" ">
<polygon fill="white" stroke="#666666" points="642.25,-41.75 540.75,-41.75 540.75,0 642.25,0 642.25,-41.75"/>
<text text-anchor="start" x="548.75" y="-28.25" font-family="Helvetica,sans-Serif" font-size="10.00">sourcecode/dbe/src</text>
<text text-anchor="start" x="548.75" y="-17" font-family="Helvetica,sans-Serif" font-size="10.00">/internal/config_api</text>
<text text-anchor="middle" x="591.5" y="-5.75" font-family="Helvetica,sans-Serif" font-size="10.00">_get.cpp</text>
</a>
</g>
</g>
<!-- Node1&#45;&gt;Node6 -->
<g id="edge5_Node000001_Node000006" class="edge">
<title>Node1&#45;&gt;Node6</title>
<g id="a_edge5_Node000001_Node000006"><a xlink:title=" ">
<path fill="none" stroke="#63b8ff" d="M676.41,-71.49C660.59,-62.25 641.95,-51.36 626.18,-42.14"/>
<polygon fill="#63b8ff" stroke="#63b8ff" points="674.64,-74.51 685.04,-76.54 678.17,-68.47 674.64,-74.51"/>
</a>
</g>
</g>
<!-- Node7 -->
<g id="Node000007" class="node">
<title>Node7</title>
<g id="a_Node000007"><a xlink:href="config__api__info_8cpp.html" target="_top" xlink:title=" ">
<polygon fill="white" stroke="#666666" points="762.25,-41.75 660.75,-41.75 660.75,0 762.25,0 762.25,-41.75"/>
<text text-anchor="start" x="668.75" y="-28.25" font-family="Helvetica,sans-Serif" font-size="10.00">sourcecode/dbe/src</text>
<text text-anchor="start" x="668.75" y="-17" font-family="Helvetica,sans-Serif" font-size="10.00">/internal/config_api</text>
<text text-anchor="middle" x="711.5" y="-5.75" font-family="Helvetica,sans-Serif" font-size="10.00">_info.cpp</text>
</a>
</g>
</g>
<!-- Node1&#45;&gt;Node7 -->
<g id="edge6_Node000001_Node000007" class="edge">
<title>Node1&#45;&gt;Node7</title>
<g id="a_edge6_Node000001_Node000007"><a xlink:title=" ">
<path fill="none" stroke="#63b8ff" d="M711.5,-66.22C711.5,-58.31 711.5,-49.73 711.5,-42.24"/>
<polygon fill="#63b8ff" stroke="#63b8ff" points="708,-65.96 711.5,-75.96 715,-65.96 708,-65.96"/>
</a>
</g>
</g>
<!-- Node8 -->
<g id="Node000008" class="node">
<title>Node8</title>
<g id="a_Node000008"><a xlink:href="config__api__set_8cpp.html" target="_top" xlink:title=" ">
<polygon fill="white" stroke="#666666" points="882.25,-41.75 780.75,-41.75 780.75,0 882.25,0 882.25,-41.75"/>
<text text-anchor="start" x="788.75" y="-28.25" font-family="Helvetica,sans-Serif" font-size="10.00">sourcecode/dbe/src</text>
<text text-anchor="start" x="788.75" y="-17" font-family="Helvetica,sans-Serif" font-size="10.00">/internal/config_api</text>
<text text-anchor="middle" x="831.5" y="-5.75" font-family="Helvetica,sans-Serif" font-size="10.00">_set.cpp</text>
</a>
</g>
</g>
<!-- Node1&#45;&gt;Node8 -->
<g id="edge7_Node000001_Node000008" class="edge">
<title>Node1&#45;&gt;Node8</title>
<g id="a_edge7_Node000001_Node000008"><a xlink:title=" ">
<path fill="none" stroke="#63b8ff" d="M746.59,-71.49C762.41,-62.25 781.05,-51.36 796.82,-42.14"/>
<polygon fill="#63b8ff" stroke="#63b8ff" points="744.83,-68.47 737.96,-76.54 748.36,-74.51 744.83,-68.47"/>
</a>
</g>
</g>
<!-- Node9 -->
<g id="Node000009" class="node">
<title>Node9</title>
<g id="a_Node000009"><a xlink:href="tree_8cpp.html" target="_top" xlink:title=" ">
<polygon fill="white" stroke="#666666" points="1002.25,-36.12 900.75,-36.12 900.75,-5.62 1002.25,-5.62 1002.25,-36.12"/>
<text text-anchor="start" x="908.75" y="-22.62" font-family="Helvetica,sans-Serif" font-size="10.00">sourcecode/dbe/src</text>
<text text-anchor="middle" x="951.5" y="-11.38" font-family="Helvetica,sans-Serif" font-size="10.00">/structure/tree.cpp</text>
</a>
</g>
</g>
<!-- Node1&#45;&gt;Node9 -->
<g id="edge8_Node000001_Node000009" class="edge">
<title>Node1&#45;&gt;Node9</title>
<g id="a_edge8_Node000001_Node000009"><a xlink:title=" ">
<path fill="none" stroke="#63b8ff" d="M777.62,-74.35C811.74,-65.04 853.98,-53.2 891.5,-41.75 896.85,-40.12 902.45,-38.35 907.99,-36.56"/>
<polygon fill="#63b8ff" stroke="#63b8ff" points="777.03,-70.88 768.3,-76.89 778.87,-77.64 777.03,-70.88"/>
</a>
</g>
</g>
<!-- Node10 -->
<g id="Node000010" class="node">
<title>Node10</title>
<g id="a_Node000010"><a xlink:href="BatchChangeWidget_8cpp.html" target="_top" xlink:title=" ">
<polygon fill="white" stroke="#666666" points="1182.62,-36.12 1020.38,-36.12 1020.38,-5.62 1182.62,-5.62 1182.62,-36.12"/>
<text text-anchor="start" x="1028.38" y="-22.62" font-family="Helvetica,sans-Serif" font-size="10.00">sourcecode/dbe/src</text>
<text text-anchor="middle" x="1101.5" y="-11.38" font-family="Helvetica,sans-Serif" font-size="10.00">/widgets/BatchChangeWidget.cpp</text>
</a>
</g>
</g>
<!-- Node1&#45;&gt;Node10 -->
<g id="edge9_Node000001_Node000010" class="edge">
<title>Node1&#45;&gt;Node10</title>
<g id="a_edge9_Node000001_Node000010"><a xlink:title=" ">
<path fill="none" stroke="#63b8ff" d="M782.17,-81.21C843.08,-71.67 933.29,-56.93 1011.5,-41.75 1019.67,-40.17 1028.23,-38.4 1036.69,-36.6"/>
<polygon fill="#63b8ff" stroke="#63b8ff" points="781.98,-77.7 772.64,-82.7 783.06,-84.62 781.98,-77.7"/>
</a>
</g>
</g>
<!-- Node11 -->
<g id="Node000011" class="node">
<title>Node11</title>
<g id="a_Node000011"><a xlink:href="BuildingBlockEditors_8cpp.html" target="_top" xlink:title=" ">
<polygon fill="white" stroke="#666666" points="1364,-36.12 1201,-36.12 1201,-5.62 1364,-5.62 1364,-36.12"/>
<text text-anchor="start" x="1209" y="-22.62" font-family="Helvetica,sans-Serif" font-size="10.00">sourcecode/dbe/src</text>
<text text-anchor="middle" x="1282.5" y="-11.38" font-family="Helvetica,sans-Serif" font-size="10.00">/widgets/BuildingBlockEditors.cpp</text>
</a>
</g>
</g>
<!-- Node1&#45;&gt;Node11 -->
<g id="edge10_Node000001_Node000011" class="edge">
<title>Node1&#45;&gt;Node11</title>
<g id="a_edge10_Node000001_Node000011"><a xlink:title=" ">
<path fill="none" stroke="#63b8ff" d="M782.62,-87.03C876.62,-79.89 1047.17,-64.99 1191.5,-41.75 1200.6,-40.28 1210.16,-38.49 1219.52,-36.58"/>
<polygon fill="#63b8ff" stroke="#63b8ff" points="782.49,-83.53 772.78,-87.77 783.01,-90.51 782.49,-83.53"/>
</a>
</g>
</g>
<!-- Node12 -->
<g id="Node000012" class="node">
<title>Node12</title>
<g id="a_Node000012"><a xlink:href="ObjectCreator_8cpp.html" target="_top" xlink:title=" ">
<polygon fill="white" stroke="#666666" points="1515.38,-36.12 1381.62,-36.12 1381.62,-5.62 1515.38,-5.62 1515.38,-36.12"/>
<text text-anchor="start" x="1389.62" y="-22.62" font-family="Helvetica,sans-Serif" font-size="10.00">sourcecode/dbe/src</text>
<text text-anchor="middle" x="1448.5" y="-11.38" font-family="Helvetica,sans-Serif" font-size="10.00">/widgets/ObjectCreator.cpp</text>
</a>
</g>
</g>
<!-- Node1&#45;&gt;Node12 -->
<g id="edge11_Node000001_Node000012" class="edge">
<title>Node1&#45;&gt;Node12</title>
<g id="a_edge11_Node000001_Node000012"><a xlink:title=" ">
<path fill="none" stroke="#63b8ff" d="M782.65,-90.86C904.47,-87.97 1160.46,-77.75 1373.5,-41.75 1381.47,-40.4 1389.82,-38.6 1397.94,-36.62"/>
<polygon fill="#63b8ff" stroke="#63b8ff" points="782.72,-87.36 772.8,-91.09 782.87,-94.36 782.72,-87.36"/>
</a>
</g>
</g>
</g>
</svg>
