<?xml version="1.0" encoding="UTF-8" standalone="no"?>
<!DOCTYPE svg PUBLIC "-//W3C//DTD SVG 1.1//EN"
 "http://www.w3.org/Graphics/SVG/1.1/DTD/svg11.dtd">
<!-- Generated by graphviz version 9.0.0 (20230911.1827)
 -->
<!-- Title: sourcecode/dbe/include/dbe/config_reference_copy.hpp Pages: 1 -->
<svg width="1554pt" height="327pt"
 viewBox="0.00 0.00 1553.92 327.00" xmlns="http://www.w3.org/2000/svg" xmlns:xlink="http://www.w3.org/1999/xlink">
<g id="graph0" class="graph" transform="scale(1 1) rotate(0) translate(4 323)">
<title>sourcecode/dbe/include/dbe/config_reference_copy.hpp</title>
<!-- Node1 -->
<g id="Node000001" class="node">
<title>Node1</title>
<g id="a_Node000001"><a xlink:title=" ">
<polygon fill="#999999" stroke="#666666" points="673.8,-319 555.05,-319 555.05,-277.25 673.8,-277.25 673.8,-319"/>
<text text-anchor="start" x="563.05" y="-305.5" font-family="Helvetica,sans-Serif" font-size="10.00">sourcecode/dbe/include</text>
<text text-anchor="start" x="563.05" y="-294.25" font-family="Helvetica,sans-Serif" font-size="10.00">/dbe/config_reference</text>
<text text-anchor="middle" x="614.42" y="-283" font-family="Helvetica,sans-Serif" font-size="10.00">_copy.hpp</text>
</a>
</g>
</g>
<!-- Node2 -->
<g id="Node000002" class="node">
<title>Node2</title>
<g id="a_Node000002"><a xlink:href="Command_8hpp.html" target="_top" xlink:title=" ">
<polygon fill="white" stroke="#666666" points="454.8,-241.25 336.05,-241.25 336.05,-210.75 454.8,-210.75 454.8,-241.25"/>
<text text-anchor="start" x="344.05" y="-227.75" font-family="Helvetica,sans-Serif" font-size="10.00">sourcecode/dbe/include</text>
<text text-anchor="middle" x="395.42" y="-216.5" font-family="Helvetica,sans-Serif" font-size="10.00">/dbe/Command.hpp</text>
</a>
</g>
</g>
<!-- Node1&#45;&gt;Node2 -->
<g id="edge1_Node000001_Node000002" class="edge">
<title>Node1&#45;&gt;Node2</title>
<g id="a_edge1_Node000001_Node000002"><a xlink:title=" ">
<path fill="none" stroke="#63b8ff" d="M543.88,-274.54C510.25,-263.77 471,-251.2 441.3,-241.69"/>
<polygon fill="#63b8ff" stroke="#63b8ff" points="542.55,-277.79 553.14,-277.5 544.68,-271.12 542.55,-277.79"/>
</a>
</g>
</g>
<!-- Node20 -->
<g id="Node000020" class="node">
<title>Node20</title>
<g id="a_Node000020"><a xlink:href="Command_8cpp.html" target="_top" xlink:title=" ">
<polygon fill="white" stroke="#666666" points="816.3,-174.75 700.55,-174.75 700.55,-144.25 816.3,-144.25 816.3,-174.75"/>
<text text-anchor="start" x="708.55" y="-161.25" font-family="Helvetica,sans-Serif" font-size="10.00">sourcecode/dbe/src</text>
<text text-anchor="middle" x="758.42" y="-150" font-family="Helvetica,sans-Serif" font-size="10.00">/internal/Command.cpp</text>
</a>
</g>
</g>
<!-- Node1&#45;&gt;Node20 -->
<g id="edge29_Node000001_Node000020" class="edge">
<title>Node1&#45;&gt;Node20</title>
<g id="a_edge29_Node000001_Node000020"><a xlink:title=" ">
<path fill="none" stroke="#63b8ff" d="M614.36,-265.6C615.9,-247.68 620.62,-225.87 633.42,-210.75 650.35,-190.76 676.39,-178.64 700.33,-171.33"/>
<polygon fill="#63b8ff" stroke="#63b8ff" points="610.87,-265.3 613.83,-275.47 617.86,-265.67 610.87,-265.3"/>
</a>
</g>
</g>
<!-- Node21 -->
<g id="Node000021" class="node">
<title>Node21</title>
<g id="a_Node000021"><a xlink:href="dbcontroller_8cpp.html" target="_top" xlink:title=" ">
<polygon fill="white" stroke="#666666" points="764.3,-241.25 642.55,-241.25 642.55,-210.75 764.3,-210.75 764.3,-241.25"/>
<text text-anchor="start" x="650.55" y="-227.75" font-family="Helvetica,sans-Serif" font-size="10.00">sourcecode/dbe/src</text>
<text text-anchor="middle" x="703.42" y="-216.5" font-family="Helvetica,sans-Serif" font-size="10.00">/internal/dbcontroller.cpp</text>
</a>
</g>
</g>
<!-- Node1&#45;&gt;Node21 -->
<g id="edge30_Node000001_Node000021" class="edge">
<title>Node1&#45;&gt;Node21</title>
<g id="a_edge30_Node000001_Node000021"><a xlink:title=" ">
<path fill="none" stroke="#63b8ff" d="M649.19,-269.73C661.33,-260.17 674.49,-249.8 684.8,-241.67"/>
<polygon fill="#63b8ff" stroke="#63b8ff" points="647.04,-266.97 641.35,-275.91 651.37,-272.47 647.04,-266.97"/>
</a>
</g>
</g>
<!-- Node3 -->
<g id="Node000003" class="node">
<title>Node3</title>
<g id="a_Node000003"><a xlink:href="change__attribute_8hpp.html" target="_top" xlink:title=" ">
<polygon fill="white" stroke="#666666" points="551.3,-174.75 423.55,-174.75 423.55,-144.25 551.3,-144.25 551.3,-174.75"/>
<text text-anchor="start" x="431.55" y="-161.25" font-family="Helvetica,sans-Serif" font-size="10.00">sourcecode/dbe/include</text>
<text text-anchor="middle" x="487.42" y="-150" font-family="Helvetica,sans-Serif" font-size="10.00">/dbe/change_attribute.hpp</text>
</a>
</g>
</g>
<!-- Node2&#45;&gt;Node3 -->
<g id="edge2_Node000002_Node000003" class="edge">
<title>Node2&#45;&gt;Node3</title>
<g id="a_edge2_Node000002_Node000003"><a xlink:title=" ">
<path fill="none" stroke="#63b8ff" d="M425.63,-203.82C439.06,-194.41 454.53,-183.56 466.63,-175.08"/>
<polygon fill="#63b8ff" stroke="#63b8ff" points="423.71,-200.89 417.54,-209.5 427.73,-206.62 423.71,-200.89"/>
</a>
</g>
</g>
<!-- Node6 -->
<g id="Node000006" class="node">
<title>Node6</title>
<g id="a_Node000006"><a xlink:href="MainWindow_8cpp.html" target="_top" xlink:title=" ">
<polygon fill="white" stroke="#666666" points="1545.92,-36.12 1418.92,-36.12 1418.92,-5.62 1545.92,-5.62 1545.92,-36.12"/>
<text text-anchor="start" x="1426.92" y="-22.62" font-family="Helvetica,sans-Serif" font-size="10.00">sourcecode/dbe/src</text>
<text text-anchor="middle" x="1482.42" y="-11.38" font-family="Helvetica,sans-Serif" font-size="10.00">/internal/MainWindow.cpp</text>
</a>
</g>
</g>
<!-- Node2&#45;&gt;Node6 -->
<g id="edge27_Node000002_Node000006" class="edge">
<title>Node2&#45;&gt;Node6</title>
<g id="a_edge27_Node000002_Node000006"><a xlink:title=" ">
<path fill="none" stroke="#63b8ff" d="M453.15,-206.95C512.43,-188.96 607.62,-161.58 691.42,-144.25 1007.52,-78.87 1094.42,-107.61 1410.42,-41.75 1417.53,-40.27 1424.97,-38.48 1432.27,-36.6"/>
<polygon fill="#63b8ff" stroke="#63b8ff" points="452.14,-203.6 443.59,-209.87 454.18,-210.3 452.14,-203.6"/>
</a>
</g>
</g>
<!-- Node8 -->
<g id="Node000008" class="node">
<title>Node8</title>
<g id="a_Node000008"><a xlink:href="config__api__commands_8cpp.html" target="_top" xlink:title=" ">
<polygon fill="white" stroke="#666666" points="134.17,-41.75 32.67,-41.75 32.67,0 134.17,0 134.17,-41.75"/>
<text text-anchor="start" x="40.67" y="-28.25" font-family="Helvetica,sans-Serif" font-size="10.00">sourcecode/dbe/src</text>
<text text-anchor="start" x="40.67" y="-17" font-family="Helvetica,sans-Serif" font-size="10.00">/internal/config_api</text>
<text text-anchor="middle" x="83.42" y="-5.75" font-family="Helvetica,sans-Serif" font-size="10.00">_commands.cpp</text>
</a>
</g>
</g>
<!-- Node2&#45;&gt;Node8 -->
<g id="edge28_Node000002_Node000008" class="edge">
<title>Node2&#45;&gt;Node8</title>
<g id="a_edge28_Node000002_Node000008"><a xlink:title=" ">
<path fill="none" stroke="#63b8ff" d="M324.56,-220.84C218.1,-213.87 27.05,-198.22 6.42,-174.75 -4.63,-162.18 -0.05,-102.36 13.42,-77.75 21.34,-63.29 34.7,-51.23 47.64,-42.05"/>
<polygon fill="#63b8ff" stroke="#63b8ff" points="324.14,-224.32 334.34,-221.47 324.59,-217.34 324.14,-224.32"/>
</a>
</g>
</g>
<!-- Node16 -->
<g id="Node000016" class="node">
<title>Node16</title>
<g id="a_Node000016"><a xlink:href="change__class_8hpp.html" target="_top" xlink:title=" ">
<polygon fill="white" stroke="#666666" points="285.8,-108.25 167.05,-108.25 167.05,-77.75 285.8,-77.75 285.8,-108.25"/>
<text text-anchor="start" x="175.05" y="-94.75" font-family="Helvetica,sans-Serif" font-size="10.00">sourcecode/dbe/include</text>
<text text-anchor="middle" x="226.42" y="-83.5" font-family="Helvetica,sans-Serif" font-size="10.00">/dbe/change_class.hpp</text>
</a>
</g>
</g>
<!-- Node2&#45;&gt;Node16 -->
<g id="edge17_Node000002_Node000016" class="edge">
<title>Node2&#45;&gt;Node16</title>
<g id="a_edge17_Node000002_Node000016"><a xlink:title=" ">
<path fill="none" stroke="#63b8ff" d="M367.6,-203.44C333.04,-176.64 274.98,-131.64 245.24,-108.58"/>
<polygon fill="#63b8ff" stroke="#63b8ff" points="365.44,-206.19 375.49,-209.55 369.73,-200.66 365.44,-206.19"/>
</a>
</g>
</g>
<!-- Node17 -->
<g id="Node000017" class="node">
<title>Node17</title>
<g id="a_Node000017"><a xlink:href="change__date_8hpp.html" target="_top" xlink:title=" ">
<polygon fill="white" stroke="#666666" points="133.8,-174.75 15.05,-174.75 15.05,-144.25 133.8,-144.25 133.8,-174.75"/>
<text text-anchor="start" x="23.05" y="-161.25" font-family="Helvetica,sans-Serif" font-size="10.00">sourcecode/dbe/include</text>
<text text-anchor="middle" x="74.42" y="-150" font-family="Helvetica,sans-Serif" font-size="10.00">/dbe/change_date.hpp</text>
</a>
</g>
</g>
<!-- Node2&#45;&gt;Node17 -->
<g id="edge19_Node000002_Node000017" class="edge">
<title>Node2&#45;&gt;Node17</title>
<g id="a_edge19_Node000002_Node000017"><a xlink:title=" ">
<path fill="none" stroke="#63b8ff" d="M324.69,-210.79C267.62,-199.32 188.22,-183.37 134.27,-172.53"/>
<polygon fill="#63b8ff" stroke="#63b8ff" points="323.82,-214.18 334.31,-212.72 325.2,-207.32 323.82,-214.18"/>
</a>
</g>
</g>
<!-- Node18 -->
<g id="Node000018" class="node">
<title>Node18</title>
<g id="a_Node000018"><a xlink:href="change__enum_8hpp.html" target="_top" xlink:title=" ">
<polygon fill="white" stroke="#666666" points="459.8,-108.25 341.05,-108.25 341.05,-77.75 459.8,-77.75 459.8,-108.25"/>
<text text-anchor="start" x="349.05" y="-94.75" font-family="Helvetica,sans-Serif" font-size="10.00">sourcecode/dbe/include</text>
<text text-anchor="middle" x="400.42" y="-83.5" font-family="Helvetica,sans-Serif" font-size="10.00">/dbe/change_enum.hpp</text>
</a>
</g>
</g>
<!-- Node2&#45;&gt;Node18 -->
<g id="edge21_Node000002_Node000018" class="edge">
<title>Node2&#45;&gt;Node18</title>
<g id="a_edge21_Node000002_Node000018"><a xlink:title=" ">
<path fill="none" stroke="#63b8ff" d="M396.41,-199.18C397.44,-172.09 399.03,-130.46 399.86,-108.58"/>
<polygon fill="#63b8ff" stroke="#63b8ff" points="392.92,-198.84 396.03,-208.97 399.91,-199.11 392.92,-198.84"/>
</a>
</g>
</g>
<!-- Node19 -->
<g id="Node000019" class="node">
<title>Node19</title>
<g id="a_Node000019"><a xlink:href="change__time_8hpp.html" target="_top" xlink:title=" ">
<polygon fill="white" stroke="#666666" points="148.8,-108.25 30.05,-108.25 30.05,-77.75 148.8,-77.75 148.8,-108.25"/>
<text text-anchor="start" x="38.05" y="-94.75" font-family="Helvetica,sans-Serif" font-size="10.00">sourcecode/dbe/include</text>
<text text-anchor="middle" x="89.42" y="-83.5" font-family="Helvetica,sans-Serif" font-size="10.00">/dbe/change_time.hpp</text>
</a>
</g>
</g>
<!-- Node2&#45;&gt;Node19 -->
<g id="edge24_Node000002_Node000019" class="edge">
<title>Node2&#45;&gt;Node19</title>
<g id="a_edge24_Node000002_Node000019"><a xlink:title=" ">
<path fill="none" stroke="#63b8ff" d="M350.63,-205.82C288.85,-179.38 178.88,-132.3 123.41,-108.55"/>
<polygon fill="#63b8ff" stroke="#63b8ff" points="349.25,-209.04 359.82,-209.76 352,-202.61 349.25,-209.04"/>
</a>
</g>
</g>
<!-- Node2&#45;&gt;Node20 -->
<g id="edge26_Node000002_Node000020" class="edge">
<title>Node2&#45;&gt;Node20</title>
<g id="a_edge26_Node000002_Node000020"><a xlink:title=" ">
<path fill="none" stroke="#63b8ff" d="M466.18,-213.28C525.16,-203.39 611.36,-188.66 686.42,-174.75 690.93,-173.91 695.6,-173.03 700.28,-172.13"/>
<polygon fill="#63b8ff" stroke="#63b8ff" points="465.91,-209.77 456.62,-214.88 467.06,-216.68 465.91,-209.77"/>
</a>
</g>
</g>
<!-- Node4 -->
<g id="Node000004" class="node">
<title>Node4</title>
<g id="a_Node000004"><a xlink:href="config__api_8hpp.html" target="_top" xlink:title=" ">
<polygon fill="white" stroke="#666666" points="644.8,-108.25 526.05,-108.25 526.05,-77.75 644.8,-77.75 644.8,-108.25"/>
<text text-anchor="start" x="534.05" y="-94.75" font-family="Helvetica,sans-Serif" font-size="10.00">sourcecode/dbe/include</text>
<text text-anchor="middle" x="585.42" y="-83.5" font-family="Helvetica,sans-Serif" font-size="10.00">/dbe/config_api.hpp</text>
</a>
</g>
</g>
<!-- Node3&#45;&gt;Node4 -->
<g id="edge3_Node000003_Node000004" class="edge">
<title>Node3&#45;&gt;Node4</title>
<g id="a_edge3_Node000003_Node000004"><a xlink:title=" ">
<path fill="none" stroke="#63b8ff" d="M519.19,-137.59C533.59,-128.12 550.26,-117.14 563.27,-108.58"/>
<polygon fill="#63b8ff" stroke="#63b8ff" points="517.35,-134.61 510.92,-143.03 521.2,-140.46 517.35,-134.61"/>
</a>
</g>
</g>
<!-- Node7 -->
<g id="Node000007" class="node">
<title>Node7</title>
<g id="a_Node000007"><a xlink:href="confaccessor_8cpp.html" target="_top" xlink:title=" ">
<polygon fill="white" stroke="#666666" points="282.42,-36.12 152.42,-36.12 152.42,-5.62 282.42,-5.62 282.42,-36.12"/>
<text text-anchor="start" x="160.42" y="-22.62" font-family="Helvetica,sans-Serif" font-size="10.00">sourcecode/dbe/src</text>
<text text-anchor="middle" x="217.42" y="-11.38" font-family="Helvetica,sans-Serif" font-size="10.00">/internal/confaccessor.cpp</text>
</a>
</g>
</g>
<!-- Node3&#45;&gt;Node7 -->
<g id="edge15_Node000003_Node000007" class="edge">
<title>Node3&#45;&gt;Node7</title>
<g id="a_edge15_Node000003_Node000007"><a xlink:title=" ">
<path fill="none" stroke="#63b8ff" d="M488.18,-132.65C487.25,-114.81 482.95,-91.84 468.42,-77.75 410.8,-21.86 369.56,-60.17 291.42,-41.75 284.69,-40.16 277.64,-38.4 270.68,-36.6"/>
<polygon fill="#63b8ff" stroke="#63b8ff" points="484.68,-132.56 488.34,-142.5 491.68,-132.44 484.68,-132.56"/>
</a>
</g>
</g>
<!-- Node3&#45;&gt;Node8 -->
<g id="edge16_Node000003_Node000008" class="edge">
<title>Node3&#45;&gt;Node8</title>
<g id="a_edge16_Node000003_Node000008"><a xlink:title=" ">
<path fill="none" stroke="#63b8ff" d="M414.16,-140.69C387.55,-132.71 357.8,-121.95 332.42,-108.25 313.36,-97.96 313.87,-87.27 294.42,-77.75 232.45,-47.42 209.78,-60.61 143.42,-41.75 140.46,-40.91 137.44,-40.02 134.39,-39.09"/>
<polygon fill="#63b8ff" stroke="#63b8ff" points="412.93,-143.98 423.51,-143.41 414.89,-137.26 412.93,-143.98"/>
</a>
</g>
</g>
<!-- Node5 -->
<g id="Node000005" class="node">
<title>Node5</title>
<g id="a_Node000005"><a xlink:href="gtool_8cpp.html" target="_top" xlink:title=" ">
<polygon fill="white" stroke="#666666" points="1281.92,-36.12 1172.92,-36.12 1172.92,-5.62 1281.92,-5.62 1281.92,-36.12"/>
<text text-anchor="start" x="1180.92" y="-22.62" font-family="Helvetica,sans-Serif" font-size="10.00">sourcecode/dbe/apps</text>
<text text-anchor="middle" x="1227.42" y="-11.38" font-family="Helvetica,sans-Serif" font-size="10.00">/graphtool/gtool.cpp</text>
</a>
</g>
</g>
<!-- Node4&#45;&gt;Node5 -->
<g id="edge4_Node000004_Node000005" class="edge">
<title>Node4&#45;&gt;Node5</title>
<g id="a_edge4_Node000004_Node000005"><a xlink:title=" ">
<path fill="none" stroke="#63b8ff" d="M656.37,-78.03C657.06,-77.93 657.74,-77.84 658.42,-77.75 881.92,-48.1 942.95,-83.96 1164.42,-41.75 1171.29,-40.44 1178.47,-38.63 1185.41,-36.62"/>
<polygon fill="#63b8ff" stroke="#63b8ff" points="655.94,-74.55 646.58,-79.51 656.99,-81.47 655.94,-74.55"/>
</a>
</g>
</g>
<!-- Node4&#45;&gt;Node6 -->
<g id="edge5_Node000004_Node000006" class="edge">
<title>Node4&#45;&gt;Node6</title>
<g id="a_edge5_Node000004_Node000006"><a xlink:title=" ">
<path fill="none" stroke="#63b8ff" d="M656.37,-78.01C657.06,-77.92 657.74,-77.83 658.42,-77.75 990.61,-37.59 1080.01,-94.59 1410.42,-41.75 1418.49,-40.46 1426.94,-38.6 1435.11,-36.53"/>
<polygon fill="#63b8ff" stroke="#63b8ff" points="655.97,-74.53 646.56,-79.41 656.96,-81.46 655.97,-74.53"/>
</a>
</g>
</g>
<!-- Node4&#45;&gt;Node7 -->
<g id="edge6_Node000004_Node000007" class="edge">
<title>Node4&#45;&gt;Node7</title>
<g id="a_edge6_Node000004_Node000007"><a xlink:title=" ">
<path fill="none" stroke="#63b8ff" d="M514.45,-79.95C429.21,-65.47 296.89,-42.95 291.42,-41.75 284.4,-40.21 277.05,-38.44 269.83,-36.6"/>
<polygon fill="#63b8ff" stroke="#63b8ff" points="513.69,-83.37 524.14,-81.6 514.86,-76.47 513.69,-83.37"/>
</a>
</g>
</g>
<!-- Node4&#45;&gt;Node8 -->
<g id="edge7_Node000004_Node000008" class="edge">
<title>Node4&#45;&gt;Node8</title>
<g id="a_edge7_Node000004_Node000008"><a xlink:title=" ">
<path fill="none" stroke="#63b8ff" d="M514.23,-83.2C499.11,-81.37 483.24,-79.47 468.42,-77.75 324.07,-60.96 285.4,-72.77 143.42,-41.75 140.53,-41.12 137.57,-40.4 134.61,-39.62"/>
<polygon fill="#63b8ff" stroke="#63b8ff" points="513.76,-86.67 524.11,-84.41 514.61,-79.72 513.76,-86.67"/>
</a>
</g>
</g>
<!-- Node9 -->
<g id="Node000009" class="node">
<title>Node9</title>
<g id="a_Node000009"><a xlink:href="config__api__get_8cpp.html" target="_top" xlink:title=" ">
<polygon fill="white" stroke="#666666" points="1401.17,-41.75 1299.67,-41.75 1299.67,0 1401.17,0 1401.17,-41.75"/>
<text text-anchor="start" x="1307.67" y="-28.25" font-family="Helvetica,sans-Serif" font-size="10.00">sourcecode/dbe/src</text>
<text text-anchor="start" x="1307.67" y="-17" font-family="Helvetica,sans-Serif" font-size="10.00">/internal/config_api</text>
<text text-anchor="middle" x="1350.42" y="-5.75" font-family="Helvetica,sans-Serif" font-size="10.00">_get.cpp</text>
</a>
</g>
</g>
<!-- Node4&#45;&gt;Node9 -->
<g id="edge8_Node000004_Node000009" class="edge">
<title>Node4&#45;&gt;Node9</title>
<g id="a_edge8_Node000004_Node000009"><a xlink:title=" ">
<path fill="none" stroke="#63b8ff" d="M656.37,-78.01C657.06,-77.92 657.74,-77.84 658.42,-77.75 938.02,-42.68 1014.75,-95.21 1291.42,-41.75 1294.07,-41.24 1296.77,-40.64 1299.48,-39.97"/>
<polygon fill="#63b8ff" stroke="#63b8ff" points="655.96,-74.54 646.57,-79.45 656.97,-81.46 655.96,-74.54"/>
</a>
</g>
</g>
<!-- Node10 -->
<g id="Node000010" class="node">
<title>Node10</title>
<g id="a_Node000010"><a xlink:href="config__api__info_8cpp.html" target="_top" xlink:title=" ">
<polygon fill="white" stroke="#666666" points="402.17,-41.75 300.67,-41.75 300.67,0 402.17,0 402.17,-41.75"/>
<text text-anchor="start" x="308.67" y="-28.25" font-family="Helvetica,sans-Serif" font-size="10.00">sourcecode/dbe/src</text>
<text text-anchor="start" x="308.67" y="-17" font-family="Helvetica,sans-Serif" font-size="10.00">/internal/config_api</text>
<text text-anchor="middle" x="351.42" y="-5.75" font-family="Helvetica,sans-Serif" font-size="10.00">_info.cpp</text>
</a>
</g>
</g>
<!-- Node4&#45;&gt;Node10 -->
<g id="edge9_Node000004_Node000010" class="edge">
<title>Node4&#45;&gt;Node10</title>
<g id="a_edge9_Node000004_Node000010"><a xlink:title=" ">
<path fill="none" stroke="#63b8ff" d="M521.85,-74.28C488.82,-64.91 447.85,-53.04 411.42,-41.75 408.49,-40.84 405.47,-39.89 402.44,-38.92"/>
<polygon fill="#63b8ff" stroke="#63b8ff" points="520.69,-77.59 531.27,-76.94 522.6,-70.85 520.69,-77.59"/>
</a>
</g>
</g>
<!-- Node11 -->
<g id="Node000011" class="node">
<title>Node11</title>
<g id="a_Node000011"><a xlink:href="config__api__set_8cpp.html" target="_top" xlink:title=" ">
<polygon fill="white" stroke="#666666" points="522.17,-41.75 420.67,-41.75 420.67,0 522.17,0 522.17,-41.75"/>
<text text-anchor="start" x="428.67" y="-28.25" font-family="Helvetica,sans-Serif" font-size="10.00">sourcecode/dbe/src</text>
<text text-anchor="start" x="428.67" y="-17" font-family="Helvetica,sans-Serif" font-size="10.00">/internal/config_api</text>
<text text-anchor="middle" x="471.42" y="-5.75" font-family="Helvetica,sans-Serif" font-size="10.00">_set.cpp</text>
</a>
</g>
</g>
<!-- Node4&#45;&gt;Node11 -->
<g id="edge10_Node000004_Node000011" class="edge">
<title>Node4&#45;&gt;Node11</title>
<g id="a_edge10_Node000004_Node000011"><a xlink:title=" ">
<path fill="none" stroke="#63b8ff" d="M552.09,-71.49C537.05,-62.25 519.35,-51.36 504.37,-42.14"/>
<polygon fill="#63b8ff" stroke="#63b8ff" points="549.88,-74.25 560.23,-76.51 553.55,-68.29 549.88,-74.25"/>
</a>
</g>
</g>
<!-- Node12 -->
<g id="Node000012" class="node">
<title>Node12</title>
<g id="a_Node000012"><a xlink:href="tree_8cpp.html" target="_top" xlink:title=" ">
<polygon fill="white" stroke="#666666" points="642.17,-36.12 540.67,-36.12 540.67,-5.62 642.17,-5.62 642.17,-36.12"/>
<text text-anchor="start" x="548.67" y="-22.62" font-family="Helvetica,sans-Serif" font-size="10.00">sourcecode/dbe/src</text>
<text text-anchor="middle" x="591.42" y="-11.38" font-family="Helvetica,sans-Serif" font-size="10.00">/structure/tree.cpp</text>
</a>
</g>
</g>
<!-- Node4&#45;&gt;Node12 -->
<g id="edge11_Node000004_Node000012" class="edge">
<title>Node4&#45;&gt;Node12</title>
<g id="a_edge11_Node000004_Node000012"><a xlink:title=" ">
<path fill="none" stroke="#63b8ff" d="M587.64,-66.02C588.5,-56.01 589.45,-44.94 590.18,-36.39"/>
<polygon fill="#63b8ff" stroke="#63b8ff" points="584.16,-65.7 586.79,-75.96 591.13,-66.3 584.16,-65.7"/>
</a>
</g>
</g>
<!-- Node13 -->
<g id="Node000013" class="node">
<title>Node13</title>
<g id="a_Node000013"><a xlink:href="BatchChangeWidget_8cpp.html" target="_top" xlink:title=" ">
<polygon fill="white" stroke="#666666" points="822.55,-36.12 660.3,-36.12 660.3,-5.62 822.55,-5.62 822.55,-36.12"/>
<text text-anchor="start" x="668.3" y="-22.62" font-family="Helvetica,sans-Serif" font-size="10.00">sourcecode/dbe/src</text>
<text text-anchor="middle" x="741.42" y="-11.38" font-family="Helvetica,sans-Serif" font-size="10.00">/widgets/BatchChangeWidget.cpp</text>
</a>
</g>
</g>
<!-- Node4&#45;&gt;Node13 -->
<g id="edge12_Node000004_Node000013" class="edge">
<title>Node4&#45;&gt;Node13</title>
<g id="a_edge12_Node000004_Node000013"><a xlink:title=" ">
<path fill="none" stroke="#63b8ff" d="M628.57,-72.6C653.93,-61.2 685.47,-47.02 708.76,-36.56"/>
<polygon fill="#63b8ff" stroke="#63b8ff" points="627.19,-69.39 619.5,-76.68 630.06,-75.77 627.19,-69.39"/>
</a>
</g>
</g>
<!-- Node14 -->
<g id="Node000014" class="node">
<title>Node14</title>
<g id="a_Node000014"><a xlink:href="BuildingBlockEditors_8cpp.html" target="_top" xlink:title=" ">
<polygon fill="white" stroke="#666666" points="1003.92,-36.12 840.92,-36.12 840.92,-5.62 1003.92,-5.62 1003.92,-36.12"/>
<text text-anchor="start" x="848.92" y="-22.62" font-family="Helvetica,sans-Serif" font-size="10.00">sourcecode/dbe/src</text>
<text text-anchor="middle" x="922.42" y="-11.38" font-family="Helvetica,sans-Serif" font-size="10.00">/widgets/BuildingBlockEditors.cpp</text>
</a>
</g>
</g>
<!-- Node4&#45;&gt;Node14 -->
<g id="edge13_Node000004_Node000014" class="edge">
<title>Node4&#45;&gt;Node14</title>
<g id="a_edge13_Node000004_Node000014"><a xlink:title=" ">
<path fill="none" stroke="#63b8ff" d="M656.27,-77.79C705.45,-67.86 772.47,-54.21 831.42,-41.75 839.33,-40.08 847.62,-38.3 855.85,-36.52"/>
<polygon fill="#63b8ff" stroke="#63b8ff" points="655.71,-74.33 646.6,-79.74 657.1,-81.2 655.71,-74.33"/>
</a>
</g>
</g>
<!-- Node15 -->
<g id="Node000015" class="node">
<title>Node15</title>
<g id="a_Node000015"><a xlink:href="ObjectCreator_8cpp.html" target="_top" xlink:title=" ">
<polygon fill="white" stroke="#666666" points="1155.3,-36.12 1021.55,-36.12 1021.55,-5.62 1155.3,-5.62 1155.3,-36.12"/>
<text text-anchor="start" x="1029.55" y="-22.62" font-family="Helvetica,sans-Serif" font-size="10.00">sourcecode/dbe/src</text>
<text text-anchor="middle" x="1088.42" y="-11.38" font-family="Helvetica,sans-Serif" font-size="10.00">/widgets/ObjectCreator.cpp</text>
</a>
</g>
</g>
<!-- Node4&#45;&gt;Node15 -->
<g id="edge14_Node000004_Node000015" class="edge">
<title>Node4&#45;&gt;Node15</title>
<g id="a_edge14_Node000004_Node000015"><a xlink:title=" ">
<path fill="none" stroke="#63b8ff" d="M656.38,-78.06C657.06,-77.95 657.74,-77.85 658.42,-77.75 815.3,-54.53 857.4,-70.15 1013.42,-41.75 1021.24,-40.33 1029.44,-38.5 1037.43,-36.54"/>
<polygon fill="#63b8ff" stroke="#63b8ff" points="655.91,-74.59 646.6,-79.64 657.03,-81.5 655.91,-74.59"/>
</a>
</g>
</g>
<!-- Node16&#45;&gt;Node8 -->
<g id="edge18_Node000016_Node000008" class="edge">
<title>Node16&#45;&gt;Node8</title>
<g id="a_edge18_Node000016_Node000008"><a xlink:title=" ">
<path fill="none" stroke="#63b8ff" d="M186.21,-72.28C167.02,-62.87 144.08,-51.62 124.75,-42.14"/>
<polygon fill="#63b8ff" stroke="#63b8ff" points="184.56,-75.37 195.08,-76.63 187.65,-69.09 184.56,-75.37"/>
</a>
</g>
</g>
<!-- Node17&#45;&gt;Node8 -->
<g id="edge20_Node000017_Node000008" class="edge">
<title>Node17&#45;&gt;Node8</title>
<g id="a_edge20_Node000017_Node000008"><a xlink:title=" ">
<path fill="none" stroke="#63b8ff" d="M43.2,-136.69C34.48,-128.83 26.12,-119.17 21.42,-108.25 16.07,-95.8 15.91,-90.13 21.42,-77.75 27.72,-63.58 39.59,-51.5 51.27,-42.23"/>
<polygon fill="#63b8ff" stroke="#63b8ff" points="40.81,-139.26 50.74,-142.96 45.29,-133.88 40.81,-139.26"/>
</a>
</g>
</g>
<!-- Node18&#45;&gt;Node7 -->
<g id="edge22_Node000018_Node000007" class="edge">
<title>Node18&#45;&gt;Node7</title>
<g id="a_edge22_Node000018_Node000007"><a xlink:title=" ">
<path fill="none" stroke="#63b8ff" d="M351.39,-73.21C321.38,-61.71 283.54,-47.21 255.73,-36.56"/>
<polygon fill="#63b8ff" stroke="#63b8ff" points="350.05,-76.45 360.64,-76.76 352.56,-69.91 350.05,-76.45"/>
</a>
</g>
</g>
<!-- Node18&#45;&gt;Node8 -->
<g id="edge23_Node000018_Node000008" class="edge">
<title>Node18&#45;&gt;Node8</title>
<g id="a_edge23_Node000018_Node000008"><a xlink:title=" ">
<path fill="none" stroke="#63b8ff" d="M329.94,-78.25C254.25,-63.47 144.57,-42.05 143.42,-41.75 140.45,-40.97 137.41,-40.12 134.35,-39.23"/>
<polygon fill="#63b8ff" stroke="#63b8ff" points="328.87,-81.6 339.36,-80.09 330.22,-74.73 328.87,-81.6"/>
</a>
</g>
</g>
<!-- Node19&#45;&gt;Node8 -->
<g id="edge25_Node000019_Node000008" class="edge">
<title>Node19&#45;&gt;Node8</title>
<g id="a_edge25_Node000019_Node000008"><a xlink:title=" ">
<path fill="none" stroke="#63b8ff" d="M87.21,-66.22C86.54,-58.31 85.8,-49.73 85.16,-42.24"/>
<polygon fill="#63b8ff" stroke="#63b8ff" points="83.71,-66.3 88.05,-75.96 90.68,-65.7 83.71,-66.3"/>
</a>
</g>
</g>
</g>
</svg>
