<?xml version="1.0" encoding="UTF-8" standalone="no"?>
<!DOCTYPE svg PUBLIC "-//W3C//DTD SVG 1.1//EN"
 "http://www.w3.org/Graphics/SVG/1.1/DTD/svg11.dtd">
<!-- Generated by graphviz version 9.0.0 (20230911.1827)
 -->
<!-- Title: sourcecode/dbe/include/dbe/config_api_version.hpp Pages: 1 -->
<svg width="268pt" height="105pt"
 viewBox="0.00 0.00 268.00 105.00" xmlns="http://www.w3.org/2000/svg" xmlns:xlink="http://www.w3.org/1999/xlink">
<g id="graph0" class="graph" transform="scale(1 1) rotate(0) translate(4 101)">
<title>sourcecode/dbe/include/dbe/config_api_version.hpp</title>
<!-- Node1 -->
<g id="Node000001" class="node">
<title>Node1</title>
<g id="a_Node000001"><a xlink:title=" ">
<polygon fill="#999999" stroke="#666666" points="200.5,-97 64.5,-97 64.5,-66.5 200.5,-66.5 200.5,-97"/>
<text text-anchor="start" x="72.5" y="-83.5" font-family="Helvetica,sans-Serif" font-size="10.00">sourcecode/dbe/include</text>
<text text-anchor="middle" x="132.5" y="-72.25" font-family="Helvetica,sans-Serif" font-size="10.00">/dbe/config_api_version.hpp</text>
</a>
</g>
</g>
<!-- Node2 -->
<g id="Node000002" class="node">
<title>Node2</title>
<g id="a_Node000002"><a xlink:href="MainWindow_8cpp.html" target="_top" xlink:title=" ">
<polygon fill="white" stroke="#666666" points="127,-30.5 0,-30.5 0,0 127,0 127,-30.5"/>
<text text-anchor="start" x="8" y="-17" font-family="Helvetica,sans-Serif" font-size="10.00">sourcecode/dbe/src</text>
<text text-anchor="middle" x="63.5" y="-5.75" font-family="Helvetica,sans-Serif" font-size="10.00">/internal/MainWindow.cpp</text>
</a>
</g>
</g>
<!-- Node1&#45;&gt;Node2 -->
<g id="edge1_Node000001_Node000002" class="edge">
<title>Node1&#45;&gt;Node2</title>
<g id="a_edge1_Node000001_Node000002"><a xlink:title=" ">
<path fill="none" stroke="#63b8ff" d="M108.66,-58.46C98.87,-49.32 87.82,-38.98 79.1,-30.83"/>
<polygon fill="#63b8ff" stroke="#63b8ff" points="106.04,-60.81 115.74,-65.08 110.82,-55.69 106.04,-60.81"/>
</a>
</g>
</g>
<!-- Node3 -->
<g id="Node000003" class="node">
<title>Node3</title>
<g id="a_Node000003"><a xlink:href="config__api_8cpp.html" target="_top" xlink:title=" ">
<polygon fill="white" stroke="#666666" points="260,-30.5 145,-30.5 145,0 260,0 260,-30.5"/>
<text text-anchor="start" x="153" y="-17" font-family="Helvetica,sans-Serif" font-size="10.00">sourcecode/dbe/src</text>
<text text-anchor="middle" x="202.5" y="-5.75" font-family="Helvetica,sans-Serif" font-size="10.00">/internal/config_api.cpp</text>
</a>
</g>
</g>
<!-- Node1&#45;&gt;Node3 -->
<g id="edge2_Node000001_Node000003" class="edge">
<title>Node1&#45;&gt;Node3</title>
<g id="a_edge2_Node000001_Node000003"><a xlink:title=" ">
<path fill="none" stroke="#63b8ff" d="M156.69,-58.46C166.61,-49.32 177.83,-38.98 186.68,-30.83"/>
<polygon fill="#63b8ff" stroke="#63b8ff" points="154.48,-55.74 149.5,-65.09 159.22,-60.89 154.48,-55.74"/>
</a>
</g>
</g>
</g>
</svg>
