<?xml version="1.0" encoding="UTF-8" standalone="no"?>
<!DOCTYPE svg PUBLIC "-//W3C//DTD SVG 1.1//EN"
 "http://www.w3.org/Graphics/SVG/1.1/DTD/svg11.dtd">
<!-- Generated by graphviz version 9.0.0 (20230911.1827)
 -->
<!-- Title: sourcecode/iomanager/include/iomanager/network/ConfigClient.hpp Pages: 1 -->
<svg width="1804pt" height="537pt"
 viewBox="0.00 0.00 1803.50 536.75" xmlns="http://www.w3.org/2000/svg" xmlns:xlink="http://www.w3.org/1999/xlink">
<g id="graph0" class="graph" transform="scale(1 1) rotate(0) translate(4 532.75)">
<title>sourcecode/iomanager/include/iomanager/network/ConfigClient.hpp</title>
<!-- Node1 -->
<g id="Node000001" class="node">
<title>Node1</title>
<g id="a_Node000001"><a xlink:title=" ">
<polygon fill="#999999" stroke="#666666" points="1181.62,-528.75 1046.38,-528.75 1046.38,-487 1181.62,-487 1181.62,-528.75"/>
<text text-anchor="start" x="1054.38" y="-515.25" font-family="Helvetica,sans-Serif" font-size="10.00">sourcecode/iomanager</text>
<text text-anchor="start" x="1054.38" y="-504" font-family="Helvetica,sans-Serif" font-size="10.00">/include/iomanager/network</text>
<text text-anchor="middle" x="1114" y="-492.75" font-family="Helvetica,sans-Serif" font-size="10.00">/ConfigClient.hpp</text>
</a>
</g>
</g>
<!-- Node2 -->
<g id="Node000002" class="node">
<title>Node2</title>
<g id="a_Node000002"><a xlink:href="SchemaUtils_8hpp.html" target="_top" xlink:title=" ">
<polygon fill="white" stroke="#666666" points="797.12,-384.5 658.88,-384.5 658.88,-365.25 797.12,-365.25 797.12,-384.5"/>
<text text-anchor="middle" x="728" y="-371" font-family="Helvetica,sans-Serif" font-size="10.00">iomanager/SchemaUtils.hpp</text>
</a>
</g>
</g>
<!-- Node1&#45;&gt;Node2 -->
<g id="edge1_Node000001_Node000002" class="edge">
<title>Node1&#45;&gt;Node2</title>
<g id="a_edge1_Node000001_Node000002"><a xlink:title=" ">
<path fill="none" stroke="#63b8ff" d="M1045.97,-504.9C982.27,-500.67 885.93,-488.03 811,-451 782.92,-437.12 757.3,-410.95 742.17,-393.45"/>
<polygon fill="#63b8ff" stroke="#63b8ff" points="744.97,-391.35 735.87,-385.92 739.61,-395.84 744.97,-391.35"/>
</a>
</g>
</g>
<!-- Node9 -->
<g id="Node000009" class="node">
<title>Node9</title>
<g id="a_Node000009"><a xlink:title=" ">
<polygon fill="#e0e0e0" stroke="#999999" points="181.38,-135.38 146.62,-135.38 146.62,-116.12 181.38,-116.12 181.38,-135.38"/>
<text text-anchor="middle" x="164" y="-121.88" font-family="Helvetica,sans-Serif" font-size="10.00">map</text>
</a>
</g>
</g>
<!-- Node1&#45;&gt;Node9 -->
<g id="edge60_Node000001_Node000009" class="edge">
<title>Node1&#45;&gt;Node9</title>
<g id="a_edge60_Node000001_Node000009"><a xlink:title=" ">
<path fill="none" stroke="#63b8ff" d="M1045.89,-505.46C814.97,-499.79 76,-473.96 76,-375.88 76,-375.88 76,-375.88 76,-252.12 76,-217.68 75.71,-205.53 95,-177 101,-168.12 122.24,-153.24 139.59,-141.97"/>
<polygon fill="#63b8ff" stroke="#63b8ff" points="141.39,-144.97 147.93,-136.64 137.62,-139.07 141.39,-144.97"/>
</a>
</g>
</g>
<!-- Node10 -->
<g id="Node000010" class="node">
<title>Node10</title>
<g id="a_Node000010"><a xlink:title=" ">
<polygon fill="#e0e0e0" stroke="#999999" points="763,-74.5 723,-74.5 723,-55.25 763,-55.25 763,-74.5"/>
<text text-anchor="middle" x="743" y="-61" font-family="Helvetica,sans-Serif" font-size="10.00">string</text>
</a>
</g>
</g>
<!-- Node1&#45;&gt;Node10 -->
<g id="edge59_Node000001_Node000010" class="edge">
<title>Node1&#45;&gt;Node10</title>
<g id="a_edge59_Node000001_Node000010"><a xlink:title=" ">
<path fill="none" stroke="#63b8ff" d="M1046.18,-498.4C981.91,-489.21 891.15,-472.88 863,-451 833.46,-428.04 825,-413.29 825,-375.88 825,-375.88 825,-375.88 825,-252.12 825,-217.68 824.48,-206.06 806,-177 792.44,-155.68 775.56,-162.32 762,-141 751.41,-124.34 746.71,-102.09 744.64,-86.14"/>
<polygon fill="#63b8ff" stroke="#63b8ff" points="748.14,-86.01 743.63,-76.42 741.18,-86.73 748.14,-86.01"/>
</a>
</g>
</g>
<!-- Node17 -->
<g id="Node000017" class="node">
<title>Node17</title>
<g id="a_Node000017"><a xlink:title=" ">
<polygon fill="#e0e0e0" stroke="#999999" points="282.5,-74.5 239.5,-74.5 239.5,-55.25 282.5,-55.25 282.5,-74.5"/>
<text text-anchor="middle" x="261" y="-61" font-family="Helvetica,sans-Serif" font-size="10.00">vector</text>
</a>
</g>
</g>
<!-- Node1&#45;&gt;Node17 -->
<g id="edge61_Node000001_Node000017" class="edge">
<title>Node1&#45;&gt;Node17</title>
<g id="a_edge61_Node000001_Node000017"><a xlink:title=" ">
<path fill="none" stroke="#63b8ff" d="M1046.13,-506.66C854.85,-505.48 314.23,-497.97 144,-451 74.41,-431.8 0,-448.06 0,-375.88 0,-375.88 0,-375.88 0,-191.25 0,-91.22 157.69,-70.95 227.93,-66.88"/>
<polygon fill="#63b8ff" stroke="#63b8ff" points="227.87,-70.38 237.68,-66.4 227.52,-63.39 227.87,-70.38"/>
</a>
</g>
</g>
<!-- Node33 -->
<g id="Node000033" class="node">
<title>Node33</title>
<g id="a_Node000033"><a xlink:title=" ">
<polygon fill="#e0e0e0" stroke="#999999" points="1364.5,-262.75 1267.5,-262.75 1267.5,-243.5 1364.5,-243.5 1364.5,-262.75"/>
<text text-anchor="middle" x="1316" y="-249.25" font-family="Helvetica,sans-Serif" font-size="10.00">nlohmann/json.hpp</text>
</a>
</g>
</g>
<!-- Node1&#45;&gt;Node33 -->
<g id="edge53_Node000001_Node000033" class="edge">
<title>Node1&#45;&gt;Node33</title>
<g id="a_edge53_Node000001_Node000033"><a xlink:title=" ">
<path fill="none" stroke="#63b8ff" d="M1080.49,-486.58C1056.64,-469.47 1031.38,-444.07 1047,-420.5 1069.66,-386.3 1096.17,-404.48 1132,-384.5 1195.53,-349.09 1263.76,-296.41 1296.4,-270.18"/>
<polygon fill="#63b8ff" stroke="#63b8ff" points="1298.6,-272.9 1304.17,-263.89 1294.2,-267.46 1298.6,-272.9"/>
</a>
</g>
</g>
<!-- Node37 -->
<g id="Node000037" class="node">
<title>Node37</title>
<g id="a_Node000037"><a xlink:href="ConfigClientStructs_8hpp.html" target="_top" xlink:title=" ">
<polygon fill="white" stroke="#666666" points="1000.25,-451 871.75,-451 871.75,-420.5 1000.25,-420.5 1000.25,-451"/>
<text text-anchor="start" x="879.75" y="-437.5" font-family="Helvetica,sans-Serif" font-size="10.00">iomanager/network/Config</text>
<text text-anchor="middle" x="936" y="-426.25" font-family="Helvetica,sans-Serif" font-size="10.00">ClientStructs.hpp</text>
</a>
</g>
</g>
<!-- Node1&#45;&gt;Node37 -->
<g id="edge49_Node000001_Node000037" class="edge">
<title>Node1&#45;&gt;Node37</title>
<g id="a_edge49_Node000001_Node000037"><a xlink:title=" ">
<path fill="none" stroke="#63b8ff" d="M1062.52,-486.59C1037.65,-476.8 1008,-465.12 983.66,-455.53"/>
<polygon fill="#63b8ff" stroke="#63b8ff" points="985.23,-452.38 974.64,-451.97 982.67,-458.9 985.23,-452.38"/>
</a>
</g>
</g>
<!-- Node38 -->
<g id="Node000038" class="node">
<title>Node38</title>
<g id="a_Node000038"><a xlink:title=" ">
<polygon fill="#e0e0e0" stroke="#999999" points="1172.25,-445.38 1055.75,-445.38 1055.75,-426.12 1172.25,-426.12 1172.25,-445.38"/>
<text text-anchor="middle" x="1114" y="-431.88" font-family="Helvetica,sans-Serif" font-size="10.00">boost/asio/connect.hpp</text>
</a>
</g>
</g>
<!-- Node1&#45;&gt;Node38 -->
<g id="edge54_Node000001_Node000038" class="edge">
<title>Node1&#45;&gt;Node38</title>
<g id="a_edge54_Node000001_Node000038"><a xlink:title=" ">
<path fill="none" stroke="#63b8ff" d="M1114,-486.59C1114,-477.25 1114,-466.19 1114,-456.87"/>
<polygon fill="#63b8ff" stroke="#63b8ff" points="1117.5,-457.07 1114,-447.07 1110.5,-457.07 1117.5,-457.07"/>
</a>
</g>
</g>
<!-- Node39 -->
<g id="Node000039" class="node">
<title>Node39</title>
<g id="a_Node000039"><a xlink:title=" ">
<polygon fill="#e0e0e0" stroke="#999999" points="1287.88,-451 1190.12,-451 1190.12,-420.5 1287.88,-420.5 1287.88,-451"/>
<text text-anchor="start" x="1198.12" y="-437.5" font-family="Helvetica,sans-Serif" font-size="10.00">boost/asio/ip/basic</text>
<text text-anchor="middle" x="1239" y="-426.25" font-family="Helvetica,sans-Serif" font-size="10.00">_resolver.hpp</text>
</a>
</g>
</g>
<!-- Node1&#45;&gt;Node39 -->
<g id="edge55_Node000001_Node000039" class="edge">
<title>Node1&#45;&gt;Node39</title>
<g id="a_edge55_Node000001_Node000039"><a xlink:title=" ">
<path fill="none" stroke="#63b8ff" d="M1150.16,-486.59C1166.75,-477.28 1186.39,-466.26 1202.97,-456.96"/>
<polygon fill="#63b8ff" stroke="#63b8ff" points="1204.52,-460.11 1211.53,-452.16 1201.1,-454 1204.52,-460.11"/>
</a>
</g>
</g>
<!-- Node40 -->
<g id="Node000040" class="node">
<title>Node40</title>
<g id="a_Node000040"><a xlink:title=" ">
<polygon fill="#e0e0e0" stroke="#999999" points="1412,-445.38 1306,-445.38 1306,-426.12 1412,-426.12 1412,-445.38"/>
<text text-anchor="middle" x="1359" y="-431.88" font-family="Helvetica,sans-Serif" font-size="10.00">boost/asio/ip/tcp.hpp</text>
</a>
</g>
</g>
<!-- Node1&#45;&gt;Node40 -->
<g id="edge56_Node000001_Node000040" class="edge">
<title>Node1&#45;&gt;Node40</title>
<g id="a_edge56_Node000001_Node000040"><a xlink:title=" ">
<path fill="none" stroke="#63b8ff" d="M1181.92,-487.43C1224.91,-475.13 1279.18,-459.6 1316.24,-448.99"/>
<polygon fill="#63b8ff" stroke="#63b8ff" points="1317.05,-452.4 1325.7,-446.28 1315.12,-445.67 1317.05,-452.4"/>
</a>
</g>
</g>
<!-- Node41 -->
<g id="Node000041" class="node">
<title>Node41</title>
<g id="a_Node000041"><a xlink:title=" ">
<polygon fill="#e0e0e0" stroke="#999999" points="1536.38,-445.38 1429.62,-445.38 1429.62,-426.12 1536.38,-426.12 1536.38,-445.38"/>
<text text-anchor="middle" x="1483" y="-431.88" font-family="Helvetica,sans-Serif" font-size="10.00">boost/beast/core.hpp</text>
</a>
</g>
</g>
<!-- Node1&#45;&gt;Node41 -->
<g id="edge57_Node000001_Node000041" class="edge">
<title>Node1&#45;&gt;Node41</title>
<g id="a_edge57_Node000001_Node000041"><a xlink:title=" ">
<path fill="none" stroke="#63b8ff" d="M1181.85,-495.45C1244.17,-484.73 1339.02,-467.87 1421,-451 1425.08,-450.16 1429.3,-449.26 1433.54,-448.33"/>
<polygon fill="#63b8ff" stroke="#63b8ff" points="1434.22,-451.77 1443.22,-446.17 1432.7,-444.93 1434.22,-451.77"/>
</a>
</g>
</g>
<!-- Node42 -->
<g id="Node000042" class="node">
<title>Node42</title>
<g id="a_Node000042"><a xlink:title=" ">
<polygon fill="#e0e0e0" stroke="#999999" points="1673.75,-445.38 1554.25,-445.38 1554.25,-426.12 1673.75,-426.12 1673.75,-445.38"/>
<text text-anchor="middle" x="1614" y="-431.88" font-family="Helvetica,sans-Serif" font-size="10.00">boost/beast/version.hpp</text>
</a>
</g>
</g>
<!-- Node1&#45;&gt;Node42 -->
<g id="edge58_Node000001_Node000042" class="edge">
<title>Node1&#45;&gt;Node42</title>
<g id="a_edge58_Node000001_Node000042"><a xlink:title=" ">
<path fill="none" stroke="#63b8ff" d="M1181.79,-499.67C1266.89,-490.27 1417.2,-472.45 1545,-451 1550.3,-450.11 1555.81,-449.11 1561.31,-448.05"/>
<polygon fill="#63b8ff" stroke="#63b8ff" points="1561.88,-451.51 1571.01,-446.14 1560.53,-444.64 1561.88,-451.51"/>
</a>
</g>
</g>
<!-- Node43 -->
<g id="Node000043" class="node">
<title>Node43</title>
<g id="a_Node000043"><a xlink:title=" ">
<polygon fill="#e0e0e0" stroke="#999999" points="1734.12,-445.38 1691.88,-445.38 1691.88,-426.12 1734.12,-426.12 1734.12,-445.38"/>
<text text-anchor="middle" x="1713" y="-431.88" font-family="Helvetica,sans-Serif" font-size="10.00">mutex</text>
</a>
</g>
</g>
<!-- Node1&#45;&gt;Node43 -->
<g id="edge62_Node000001_Node000043" class="edge">
<title>Node1&#45;&gt;Node43</title>
<g id="a_edge62_Node000001_Node000043"><a xlink:title=" ">
<path fill="none" stroke="#63b8ff" d="M1181.95,-507.69C1290.06,-507.33 1507.01,-499.83 1683,-451 1684,-450.72 1685,-450.42 1686.01,-450.08"/>
<polygon fill="#63b8ff" stroke="#63b8ff" points="1687.22,-453.37 1695.17,-446.37 1684.59,-446.88 1687.22,-453.37"/>
</a>
</g>
</g>
<!-- Node44 -->
<g id="Node000044" class="node">
<title>Node44</title>
<g id="a_Node000044"><a xlink:title=" ">
<polygon fill="#e0e0e0" stroke="#999999" points="1795.5,-445.38 1752.5,-445.38 1752.5,-426.12 1795.5,-426.12 1795.5,-445.38"/>
<text text-anchor="middle" x="1774" y="-431.88" font-family="Helvetica,sans-Serif" font-size="10.00">thread</text>
</a>
</g>
</g>
<!-- Node1&#45;&gt;Node44 -->
<g id="edge63_Node000001_Node000044" class="edge">
<title>Node1&#45;&gt;Node44</title>
<g id="a_edge63_Node000001_Node000044"><a xlink:title=" ">
<path fill="none" stroke="#63b8ff" d="M1181.93,-503.77C1322.01,-496.89 1638.57,-478.75 1743,-451 1744.17,-450.69 1745.36,-450.33 1746.54,-449.95"/>
<polygon fill="#63b8ff" stroke="#63b8ff" points="1747.58,-453.3 1755.6,-446.38 1745.02,-446.79 1747.58,-453.3"/>
</a>
</g>
</g>
<!-- Node3 -->
<g id="Node000003" class="node">
<title>Node3</title>
<g id="a_Node000003"><a xlink:title=" ">
<polygon fill="#e0e0e0" stroke="#999999" points="796.62,-329.25 685.38,-329.25 685.38,-298.75 796.62,-298.75 796.62,-329.25"/>
<text text-anchor="start" x="693.38" y="-315.75" font-family="Helvetica,sans-Serif" font-size="10.00">iomanager/connection</text>
<text text-anchor="middle" x="741" y="-304.5" font-family="Helvetica,sans-Serif" font-size="10.00">/Structs.hpp</text>
</a>
</g>
</g>
<!-- Node2&#45;&gt;Node3 -->
<g id="edge2_Node000002_Node000003" class="edge">
<title>Node2&#45;&gt;Node3</title>
<g id="a_edge2_Node000002_Node000003"><a xlink:title=" ">
<path fill="none" stroke="#63b8ff" d="M729.97,-364.93C731.4,-358.48 733.4,-349.41 735.31,-340.76"/>
<polygon fill="#63b8ff" stroke="#63b8ff" points="738.73,-341.53 737.46,-331.01 731.89,-340.02 738.73,-341.53"/>
</a>
</g>
</g>
<!-- Node4 -->
<g id="Node000004" class="node">
<title>Node4</title>
<g id="a_Node000004"><a xlink:href="Serialization_8hpp.html" target="_top" xlink:title=" ">
<polygon fill="white" stroke="#666666" points="1006.25,-323.62 865.75,-323.62 865.75,-304.38 1006.25,-304.38 1006.25,-323.62"/>
<text text-anchor="middle" x="936" y="-310.12" font-family="Helvetica,sans-Serif" font-size="10.00">serialization/Serialization.hpp</text>
</a>
</g>
</g>
<!-- Node2&#45;&gt;Node4 -->
<g id="edge3_Node000002_Node000004" class="edge">
<title>Node2&#45;&gt;Node4</title>
<g id="a_edge3_Node000002_Node000004"><a xlink:title=" ">
<path fill="none" stroke="#63b8ff" d="M760.04,-364.8C795.7,-354.71 853.48,-338.36 893.03,-327.16"/>
<polygon fill="#63b8ff" stroke="#63b8ff" points="893.79,-330.58 902.46,-324.49 891.89,-323.85 893.79,-330.58"/>
</a>
</g>
</g>
<!-- Node12 -->
<g id="Node000012" class="node">
<title>Node12</title>
<g id="a_Node000012"><a xlink:title=" ">
<polygon fill="#e0e0e0" stroke="#999999" points="155.62,-201.88 104.38,-201.88 104.38,-182.62 155.62,-182.62 155.62,-201.88"/>
<text text-anchor="middle" x="130" y="-188.38" font-family="Helvetica,sans-Serif" font-size="10.00">sstream</text>
</a>
</g>
</g>
<!-- Node2&#45;&gt;Node12 -->
<g id="edge48_Node000002_Node000012" class="edge">
<title>Node2&#45;&gt;Node12</title>
<g id="a_edge48_Node000002_Node000012"><a xlink:title=" ">
<path fill="none" stroke="#63b8ff" d="M686.23,-364.82C648.57,-356.42 591.78,-343.14 543,-329.25 401.72,-289.02 236.6,-231.37 165.51,-206.03"/>
<polygon fill="#63b8ff" stroke="#63b8ff" points="166.94,-202.82 156.35,-202.76 164.59,-209.42 166.94,-202.82"/>
</a>
</g>
</g>
<!-- Node35 -->
<g id="Node000035" class="node">
<title>Node35</title>
<g id="a_Node000035"><a xlink:title=" ">
<polygon fill="#e0e0e0" stroke="#999999" points="610,-323.62 552,-323.62 552,-304.38 610,-304.38 610,-323.62"/>
<text text-anchor="middle" x="581" y="-310.12" font-family="Helvetica,sans-Serif" font-size="10.00">functional</text>
</a>
</g>
</g>
<!-- Node2&#45;&gt;Node35 -->
<g id="edge46_Node000002_Node000035" class="edge">
<title>Node2&#45;&gt;Node35</title>
<g id="a_edge46_Node000002_Node000035"><a xlink:title=" ">
<path fill="none" stroke="#63b8ff" d="M705.35,-364.8C680.9,-355.01 641.7,-339.31 613.86,-328.16"/>
<polygon fill="#63b8ff" stroke="#63b8ff" points="615.42,-325.02 604.84,-324.55 612.82,-331.51 615.42,-325.02"/>
</a>
</g>
</g>
<!-- Node36 -->
<g id="Node000036" class="node">
<title>Node36</title>
<g id="a_Node000036"><a xlink:title=" ">
<polygon fill="#e0e0e0" stroke="#999999" points="667.62,-323.62 628.38,-323.62 628.38,-304.38 667.62,-304.38 667.62,-323.62"/>
<text text-anchor="middle" x="648" y="-310.12" font-family="Helvetica,sans-Serif" font-size="10.00">regex</text>
</a>
</g>
</g>
<!-- Node2&#45;&gt;Node36 -->
<g id="edge47_Node000002_Node000036" class="edge">
<title>Node2&#45;&gt;Node36</title>
<g id="a_edge47_Node000002_Node000036"><a xlink:title=" ">
<path fill="none" stroke="#63b8ff" d="M715.85,-364.93C703.52,-355.86 684.17,-341.62 669.28,-330.66"/>
<polygon fill="#63b8ff" stroke="#63b8ff" points="671.61,-328.03 661.48,-324.92 667.46,-333.67 671.61,-328.03"/>
</a>
</g>
</g>
<!-- Node5 -->
<g id="Node000005" class="node">
<title>Node5</title>
<g id="a_Node000005"><a xlink:href="Issue_8hpp.html" target="_top" xlink:title=" ">
<polygon fill="white" stroke="#666666" points="557.25,-262.75 482.75,-262.75 482.75,-243.5 557.25,-243.5 557.25,-262.75"/>
<text text-anchor="middle" x="520" y="-249.25" font-family="Helvetica,sans-Serif" font-size="10.00">ers/Issue.hpp</text>
</a>
</g>
</g>
<!-- Node4&#45;&gt;Node5 -->
<g id="edge4_Node000004_Node000005" class="edge">
<title>Node4&#45;&gt;Node5</title>
<g id="a_edge4_Node000004_Node000005"><a xlink:title=" ">
<path fill="none" stroke="#63b8ff" d="M871.91,-303.93C788.34,-292.1 643.98,-271.67 568.76,-261.03"/>
<polygon fill="#63b8ff" stroke="#63b8ff" points="569.63,-257.61 559.24,-259.68 568.65,-264.55 569.63,-257.61"/>
</a>
</g>
</g>
<!-- Node4&#45;&gt;Node10 -->
<g id="edge44_Node000004_Node000010" class="edge">
<title>Node4&#45;&gt;Node10</title>
<g id="a_edge44_Node000004_Node000010"><a xlink:title=" ">
<path fill="none" stroke="#63b8ff" d="M929.2,-304.1C918.97,-289.57 902.41,-260.65 918,-243.5 974.61,-181.23 1212.84,-225.74 1295,-207.5 1386.4,-187.21 1546.18,-178.67 1482,-110.5 1457.39,-84.35 912.46,-69.85 774.51,-66.59"/>
<polygon fill="#63b8ff" stroke="#63b8ff" points="774.75,-63.09 764.67,-66.36 774.59,-70.09 774.75,-63.09"/>
</a>
</g>
</g>
<!-- Node4&#45;&gt;Node17 -->
<g id="edge45_Node000004_Node000017" class="edge">
<title>Node4&#45;&gt;Node17</title>
<g id="a_edge45_Node000004_Node000017"><a xlink:title=" ">
<path fill="none" stroke="#63b8ff" d="M865.5,-305.26C846.21,-303.14 825.3,-300.85 806,-298.75 647.64,-281.49 199.2,-327.99 95,-207.5 65.72,-173.64 126.67,-119.52 138,-110.5 164.47,-89.42 201.78,-77.77 228.35,-71.7"/>
<polygon fill="#63b8ff" stroke="#63b8ff" points="228.84,-75.18 237.89,-69.68 227.39,-68.33 228.84,-75.18"/>
</a>
</g>
</g>
<!-- Node31 -->
<g id="Node000031" class="node">
<title>Node31</title>
<g id="a_Node000031"><a xlink:title=" ">
<polygon fill="#e0e0e0" stroke="#999999" points="1044.62,-262.75 927.38,-262.75 927.38,-243.5 1044.62,-243.5 1044.62,-262.75"/>
<text text-anchor="middle" x="986" y="-249.25" font-family="Helvetica,sans-Serif" font-size="10.00">boost/preprocessor.hpp</text>
</a>
</g>
</g>
<!-- Node4&#45;&gt;Node31 -->
<g id="edge40_Node000004_Node000031" class="edge">
<title>Node4&#45;&gt;Node31</title>
<g id="a_edge40_Node000004_Node000031"><a xlink:title=" ">
<path fill="none" stroke="#63b8ff" d="M943.59,-304.06C950.86,-295.5 962.03,-282.35 971.08,-271.7"/>
<polygon fill="#63b8ff" stroke="#63b8ff" points="973.55,-274.19 977.35,-264.3 968.21,-269.66 973.55,-274.19"/>
</a>
</g>
</g>
<!-- Node32 -->
<g id="Node000032" class="node">
<title>Node32</title>
<g id="a_Node000032"><a xlink:title=" ">
<polygon fill="#e0e0e0" stroke="#999999" points="1136.88,-262.75 1063.12,-262.75 1063.12,-243.5 1136.88,-243.5 1136.88,-262.75"/>
<text text-anchor="middle" x="1100" y="-249.25" font-family="Helvetica,sans-Serif" font-size="10.00">msgpack.hpp</text>
</a>
</g>
</g>
<!-- Node4&#45;&gt;Node32 -->
<g id="edge41_Node000004_Node000032" class="edge">
<title>Node4&#45;&gt;Node32</title>
<g id="a_edge41_Node000004_Node000032"><a xlink:title=" ">
<path fill="none" stroke="#63b8ff" d="M961.27,-303.93C988.71,-294.08 1032.8,-278.25 1063.89,-267.09"/>
<polygon fill="#63b8ff" stroke="#63b8ff" points="1065.05,-270.39 1073.28,-263.72 1062.69,-263.8 1065.05,-270.39"/>
</a>
</g>
</g>
<!-- Node4&#45;&gt;Node33 -->
<g id="edge42_Node000004_Node000033" class="edge">
<title>Node4&#45;&gt;Node33</title>
<g id="a_edge42_Node000004_Node000033"><a xlink:title=" ">
<path fill="none" stroke="#63b8ff" d="M994.54,-303.93C1065.49,-292.94 1184.39,-274.52 1255.99,-263.42"/>
<polygon fill="#63b8ff" stroke="#63b8ff" points="1256.22,-266.93 1265.57,-261.94 1255.15,-260.01 1256.22,-266.93"/>
</a>
</g>
</g>
<!-- Node34 -->
<g id="Node000034" class="node">
<title>Node34</title>
<g id="a_Node000034"><a xlink:title=" ">
<polygon fill="#e0e0e0" stroke="#999999" points="1210.88,-262.75 1155.12,-262.75 1155.12,-243.5 1210.88,-243.5 1210.88,-262.75"/>
<text text-anchor="middle" x="1183" y="-249.25" font-family="Helvetica,sans-Serif" font-size="10.00">algorithm</text>
</a>
</g>
</g>
<!-- Node4&#45;&gt;Node34 -->
<g id="edge43_Node000004_Node000034" class="edge">
<title>Node4&#45;&gt;Node34</title>
<g id="a_edge43_Node000004_Node000034"><a xlink:title=" ">
<path fill="none" stroke="#63b8ff" d="M974.05,-303.93C1020.09,-292.96 1097.18,-274.58 1143.75,-263.48"/>
<polygon fill="#63b8ff" stroke="#63b8ff" points="1144.5,-266.9 1153.42,-261.18 1142.88,-260.09 1144.5,-266.9"/>
</a>
</g>
</g>
<!-- Node6 -->
<g id="Node000006" class="node">
<title>Node6</title>
<g id="a_Node000006"><a xlink:title=" ">
<polygon fill="#e0e0e0" stroke="#999999" points="542.62,-201.88 497.38,-201.88 497.38,-182.62 542.62,-182.62 542.62,-201.88"/>
<text text-anchor="middle" x="520" y="-188.38" font-family="Helvetica,sans-Serif" font-size="10.00">math.h</text>
</a>
</g>
</g>
<!-- Node5&#45;&gt;Node6 -->
<g id="edge5_Node000005_Node000006" class="edge">
<title>Node5&#45;&gt;Node6</title>
<g id="a_edge5_Node000005_Node000006"><a xlink:title=" ">
<path fill="none" stroke="#63b8ff" d="M520,-243.18C520,-235.4 520,-223.83 520,-213.78"/>
<polygon fill="#63b8ff" stroke="#63b8ff" points="523.5,-213.79 520,-203.79 516.5,-213.79 523.5,-213.79"/>
</a>
</g>
</g>
<!-- Node7 -->
<g id="Node000007" class="node">
<title>Node7</title>
<g id="a_Node000007"><a xlink:title=" ">
<polygon fill="#e0e0e0" stroke="#999999" points="605.25,-201.88 560.75,-201.88 560.75,-182.62 605.25,-182.62 605.25,-201.88"/>
<text text-anchor="middle" x="583" y="-188.38" font-family="Helvetica,sans-Serif" font-size="10.00">stdio.h</text>
</a>
</g>
</g>
<!-- Node5&#45;&gt;Node7 -->
<g id="edge6_Node000005_Node000007" class="edge">
<title>Node5&#45;&gt;Node7</title>
<g id="a_edge6_Node000005_Node000007"><a xlink:title=" ">
<path fill="none" stroke="#63b8ff" d="M529.57,-243.18C539,-234.37 553.65,-220.68 565.23,-209.86"/>
<polygon fill="#63b8ff" stroke="#63b8ff" points="567.32,-212.69 572.24,-203.31 562.54,-207.58 567.32,-212.69"/>
</a>
</g>
</g>
<!-- Node8 -->
<g id="Node000008" class="node">
<title>Node8</title>
<g id="a_Node000008"><a xlink:title=" ">
<polygon fill="#e0e0e0" stroke="#999999" points="670.75,-201.88 623.25,-201.88 623.25,-182.62 670.75,-182.62 670.75,-201.88"/>
<text text-anchor="middle" x="647" y="-188.38" font-family="Helvetica,sans-Serif" font-size="10.00">string.h</text>
</a>
</g>
</g>
<!-- Node5&#45;&gt;Node8 -->
<g id="edge7_Node000005_Node000008" class="edge">
<title>Node5&#45;&gt;Node8</title>
<g id="a_edge7_Node000005_Node000008"><a xlink:title=" ">
<path fill="none" stroke="#63b8ff" d="M539.57,-243.05C560.32,-233.43 593.36,-218.12 617.33,-207.01"/>
<polygon fill="#63b8ff" stroke="#63b8ff" points="618.65,-210.25 626.25,-202.87 615.7,-203.9 618.65,-210.25"/>
</a>
</g>
</g>
<!-- Node5&#45;&gt;Node9 -->
<g id="edge8_Node000005_Node000009" class="edge">
<title>Node5&#45;&gt;Node9</title>
<g id="a_edge8_Node000005_Node000009"><a xlink:title=" ">
<path fill="none" stroke="#63b8ff" d="M482.42,-250.17C412.17,-245.94 264.12,-234.07 221,-207.5 197.65,-193.11 181.24,-165.22 172.2,-146.29"/>
<polygon fill="#63b8ff" stroke="#63b8ff" points="175.43,-144.94 168.15,-137.24 169.04,-147.8 175.43,-144.94"/>
</a>
</g>
</g>
<!-- Node5&#45;&gt;Node10 -->
<g id="edge9_Node000005_Node000010" class="edge">
<title>Node5&#45;&gt;Node10</title>
<g id="a_edge9_Node000005_Node000010"><a xlink:title=" ">
<path fill="none" stroke="#63b8ff" d="M557.59,-250.72C726.12,-244.05 1406.56,-212.78 1465,-141 1473.56,-130.49 1474.28,-120.38 1465,-110.5 1441.02,-84.99 910.87,-70.06 774.67,-66.64"/>
<polygon fill="#63b8ff" stroke="#63b8ff" points="775.03,-63.14 764.95,-66.4 774.86,-70.14 775.03,-63.14"/>
</a>
</g>
</g>
<!-- Node11 -->
<g id="Node000011" class="node">
<title>Node11</title>
<g id="a_Node000011"><a xlink:title=" ">
<polygon fill="#e0e0e0" stroke="#999999" points="408.75,-19.25 355.25,-19.25 355.25,0 408.75,0 408.75,-19.25"/>
<text text-anchor="middle" x="382" y="-5.75" font-family="Helvetica,sans-Serif" font-size="10.00">iostream</text>
</a>
</g>
</g>
<!-- Node5&#45;&gt;Node11 -->
<g id="edge10_Node000005_Node000011" class="edge">
<title>Node5&#45;&gt;Node11</title>
<g id="a_edge10_Node000005_Node000011"><a xlink:title=" ">
<path fill="none" stroke="#63b8ff" d="M502.37,-243C486.74,-234.6 463.57,-221.37 445,-207.5 429,-195.55 428.71,-187.94 412,-177 378.7,-155.19 351.76,-174.32 330,-141 305.8,-103.95 342.1,-53.86 365.24,-27.88"/>
<polygon fill="#63b8ff" stroke="#63b8ff" points="367.51,-30.58 371.73,-20.86 362.37,-25.83 367.51,-30.58"/>
</a>
</g>
</g>
<!-- Node5&#45;&gt;Node12 -->
<g id="edge11_Node000005_Node000012" class="edge">
<title>Node5&#45;&gt;Node12</title>
<g id="a_edge11_Node000005_Node000012"><a xlink:title=" ">
<path fill="none" stroke="#63b8ff" d="M482.49,-250C417.9,-245.75 281.86,-234.23 170,-207.5 167.85,-206.99 165.65,-206.4 163.45,-205.76"/>
<polygon fill="#63b8ff" stroke="#63b8ff" points="164.62,-202.46 154.03,-202.72 162.47,-209.12 164.62,-202.46"/>
</a>
</g>
</g>
<!-- Node13 -->
<g id="Node000013" class="node">
<title>Node13</title>
<g id="a_Node000013"><a xlink:title=" ">
<polygon fill="#e0e0e0" stroke="#999999" points="1135.25,-201.88 1084.75,-201.88 1084.75,-182.62 1135.25,-182.62 1135.25,-201.88"/>
<text text-anchor="middle" x="1110" y="-188.38" font-family="Helvetica,sans-Serif" font-size="10.00">memory</text>
</a>
</g>
</g>
<!-- Node5&#45;&gt;Node13 -->
<g id="edge12_Node000005_Node000013" class="edge">
<title>Node5&#45;&gt;Node13</title>
<g id="a_edge12_Node000005_Node000013"><a xlink:title=" ">
<path fill="none" stroke="#63b8ff" d="M557.45,-250.66C665.61,-246.2 977.08,-231.55 1076,-207.5 1077.59,-207.11 1079.21,-206.66 1080.83,-206.16"/>
<polygon fill="#63b8ff" stroke="#63b8ff" points="1081.69,-209.57 1089.88,-202.85 1079.28,-203 1081.69,-209.57"/>
</a>
</g>
</g>
<!-- Node14 -->
<g id="Node000014" class="node">
<title>Node14</title>
<g id="a_Node000014"><a xlink:title=" ">
<polygon fill="#e0e0e0" stroke="#999999" points="244.62,-135.38 199.38,-135.38 199.38,-116.12 244.62,-116.12 244.62,-135.38"/>
<text text-anchor="middle" x="222" y="-121.88" font-family="Helvetica,sans-Serif" font-size="10.00">chrono</text>
</a>
</g>
</g>
<!-- Node5&#45;&gt;Node14 -->
<g id="edge13_Node000005_Node000014" class="edge">
<title>Node5&#45;&gt;Node14</title>
<g id="a_edge13_Node000005_Node000014"><a xlink:title=" ">
<path fill="none" stroke="#63b8ff" d="M482.34,-251.15C414.45,-248.59 275.39,-239.49 241,-207.5 224.55,-192.2 221.09,-165.56 220.9,-147.08"/>
<polygon fill="#63b8ff" stroke="#63b8ff" points="224.39,-147.43 221.14,-137.35 217.4,-147.26 224.39,-147.43"/>
</a>
</g>
</g>
<!-- Node15 -->
<g id="Node000015" class="node">
<title>Node15</title>
<g id="a_Node000015"><a xlink:title=" ">
<polygon fill="#e0e0e0" stroke="#999999" points="278.4,-201.88 249.6,-201.88 249.6,-182.62 278.4,-182.62 278.4,-201.88"/>
<text text-anchor="middle" x="264" y="-188.38" font-family="Helvetica,sans-Serif" font-size="10.00">list</text>
</a>
</g>
</g>
<!-- Node5&#45;&gt;Node15 -->
<g id="edge14_Node000005_Node000015" class="edge">
<title>Node5&#45;&gt;Node15</title>
<g id="a_edge14_Node000005_Node000015"><a xlink:title=" ">
<path fill="none" stroke="#63b8ff" d="M482.35,-248.91C435.53,-244.01 353.76,-232.47 288,-207.5 287.77,-207.41 287.55,-207.33 287.32,-207.24"/>
<polygon fill="#63b8ff" stroke="#63b8ff" points="289.16,-204.24 278.65,-202.92 286.04,-210.51 289.16,-204.24"/>
</a>
</g>
</g>
<!-- Node16 -->
<g id="Node000016" class="node">
<title>Node16</title>
<g id="a_Node000016"><a xlink:href="IssueFactory_8hpp.html" target="_top" xlink:title=" ">
<polygon fill="white" stroke="#666666" points="403.38,-201.88 296.62,-201.88 296.62,-182.62 403.38,-182.62 403.38,-201.88"/>
<text text-anchor="middle" x="350" y="-188.38" font-family="Helvetica,sans-Serif" font-size="10.00">ers/IssueFactory.hpp</text>
</a>
</g>
</g>
<!-- Node5&#45;&gt;Node16 -->
<g id="edge15_Node000005_Node000016" class="edge">
<title>Node5&#45;&gt;Node16</title>
<g id="a_edge15_Node000005_Node000016"><a xlink:title=" ">
<path fill="none" stroke="#63b8ff" d="M493.81,-243.05C465.23,-233.16 419.26,-217.24 387.01,-206.07"/>
<polygon fill="#63b8ff" stroke="#63b8ff" points="388.24,-202.79 377.65,-202.83 385.95,-209.41 388.24,-202.79"/>
</a>
</g>
</g>
<!-- Node18 -->
<g id="Node000018" class="node">
<title>Node18</title>
<g id="a_Node000018"><a xlink:href="Severity_8hpp.html" target="_top" xlink:title=" ">
<polygon fill="white" stroke="#666666" points="424.88,-135.38 339.12,-135.38 339.12,-116.12 424.88,-116.12 424.88,-135.38"/>
<text text-anchor="middle" x="382" y="-121.88" font-family="Helvetica,sans-Serif" font-size="10.00">ers/Severity.hpp</text>
</a>
</g>
</g>
<!-- Node5&#45;&gt;Node18 -->
<g id="edge32_Node000005_Node000018" class="edge">
<title>Node5&#45;&gt;Node18</title>
<g id="a_edge32_Node000005_Node000018"><a xlink:title=" ">
<path fill="none" stroke="#63b8ff" d="M511.54,-243.01C497.96,-228.53 470.27,-199.61 445,-177 431.51,-164.93 415.56,-152.22 403.08,-142.61"/>
<polygon fill="#63b8ff" stroke="#63b8ff" points="405.21,-139.83 395.14,-136.55 400.97,-145.39 405.21,-139.83"/>
</a>
</g>
</g>
<!-- Node19 -->
<g id="Node000019" class="node">
<title>Node19</title>
<g id="a_Node000019"><a xlink:href="LocalContext_8hpp.html" target="_top" xlink:title=" ">
<polygon fill="white" stroke="#666666" points="796.75,-201.88 689.25,-201.88 689.25,-182.62 796.75,-182.62 796.75,-201.88"/>
<text text-anchor="middle" x="743" y="-188.38" font-family="Helvetica,sans-Serif" font-size="10.00">ers/LocalContext.hpp</text>
</a>
</g>
</g>
<!-- Node5&#45;&gt;Node19 -->
<g id="edge24_Node000005_Node000019" class="edge">
<title>Node5&#45;&gt;Node19</title>
<g id="a_edge24_Node000005_Node000019"><a xlink:title=" ">
<path fill="none" stroke="#63b8ff" d="M554.36,-243.05C592.74,-232.92 655.05,-216.47 697.47,-205.27"/>
<polygon fill="#63b8ff" stroke="#63b8ff" points="698.37,-208.65 707.14,-202.72 696.58,-201.89 698.37,-208.65"/>
</a>
</g>
</g>
<!-- Node24 -->
<g id="Node000024" class="node">
<title>Node24</title>
<g id="a_Node000024"><a xlink:href="IssueDeclarationMacro_8hpp.html" target="_top" xlink:title=" ">
<polygon fill="white" stroke="#666666" points="1066.88,-207.5 927.12,-207.5 927.12,-177 1066.88,-177 1066.88,-207.5"/>
<text text-anchor="start" x="935.12" y="-194" font-family="Helvetica,sans-Serif" font-size="10.00">ers/internal/IssueDeclaration</text>
<text text-anchor="middle" x="997" y="-182.75" font-family="Helvetica,sans-Serif" font-size="10.00">Macro.hpp</text>
</a>
</g>
</g>
<!-- Node5&#45;&gt;Node24 -->
<g id="edge33_Node000005_Node000024" class="edge">
<title>Node5&#45;&gt;Node24</title>
<g id="a_edge33_Node000005_Node000024"><a xlink:title=" ">
<path fill="none" stroke="#63b8ff" d="M557.43,-247.51C634.24,-238.02 811.24,-216.18 915.7,-203.29"/>
<polygon fill="#63b8ff" stroke="#63b8ff" points="915.82,-206.8 925.32,-202.1 914.96,-199.85 915.82,-206.8"/>
</a>
</g>
</g>
<!-- Node16&#45;&gt;Node9 -->
<g id="edge19_Node000016_Node000009" class="edge">
<title>Node16&#45;&gt;Node9</title>
<g id="a_edge19_Node000016_Node000009"><a xlink:title=" ">
<path fill="none" stroke="#63b8ff" d="M314,-182.13C281.09,-173.29 231.38,-158.63 190,-141 189.89,-140.95 189.78,-140.91 189.67,-140.86"/>
<polygon fill="#63b8ff" stroke="#63b8ff" points="191.31,-137.76 180.79,-136.52 188.23,-144.05 191.31,-137.76"/>
</a>
</g>
</g>
<!-- Node16&#45;&gt;Node10 -->
<g id="edge17_Node000016_Node000010" class="edge">
<title>Node16&#45;&gt;Node10</title>
<g id="a_edge17_Node000016_Node000010"><a xlink:title=" ">
<path fill="none" stroke="#63b8ff" d="M403.83,-182.79C442.17,-175.35 494.1,-162.29 536,-141 555.31,-131.19 554.67,-120.25 574,-110.5 618.91,-87.84 676.52,-75.82 711.55,-70.15"/>
<polygon fill="#63b8ff" stroke="#63b8ff" points="711.66,-73.68 721.02,-68.7 710.6,-66.76 711.66,-73.68"/>
</a>
</g>
</g>
<!-- Node16&#45;&gt;Node14 -->
<g id="edge16_Node000016_Node000014" class="edge">
<title>Node16&#45;&gt;Node14</title>
<g id="a_edge16_Node000016_Node000014"><a xlink:title=" ">
<path fill="none" stroke="#63b8ff" d="M331.93,-182.15C310.68,-171.44 275.15,-153.53 250.25,-140.99"/>
<polygon fill="#63b8ff" stroke="#63b8ff" points="251.83,-137.86 241.33,-136.49 248.68,-144.11 251.83,-137.86"/>
</a>
</g>
</g>
<!-- Node16&#45;&gt;Node17 -->
<g id="edge18_Node000016_Node000017" class="edge">
<title>Node16&#45;&gt;Node17</title>
<g id="a_edge18_Node000016_Node000017"><a xlink:title=" ">
<path fill="none" stroke="#63b8ff" d="M338.27,-182.27C326.66,-172.93 308.94,-157.4 297,-141 284.38,-123.67 274.31,-101.23 268.06,-85.4"/>
<polygon fill="#63b8ff" stroke="#63b8ff" points="271.39,-84.31 264.59,-76.19 264.84,-86.78 271.39,-84.31"/>
</a>
</g>
</g>
<!-- Node16&#45;&gt;Node18 -->
<g id="edge20_Node000016_Node000018" class="edge">
<title>Node16&#45;&gt;Node18</title>
<g id="a_edge20_Node000016_Node000018"><a xlink:title=" ">
<path fill="none" stroke="#63b8ff" d="M354.45,-182.28C359.13,-172.85 366.64,-157.72 372.63,-145.63"/>
<polygon fill="#63b8ff" stroke="#63b8ff" points="375.61,-147.51 376.92,-137 369.34,-144.4 375.61,-147.51"/>
</a>
</g>
</g>
<!-- Node18&#45;&gt;Node10 -->
<g id="edge21_Node000018_Node000010" class="edge">
<title>Node18&#45;&gt;Node10</title>
<g id="a_edge21_Node000018_Node000010"><a xlink:title=" ">
<path fill="none" stroke="#63b8ff" d="M412.64,-115.67C419.62,-113.8 427.04,-111.95 434,-110.5 534.35,-89.59 655.07,-75.22 711.3,-69.14"/>
<polygon fill="#63b8ff" stroke="#63b8ff" points="711.52,-72.63 721.1,-68.1 710.78,-65.67 711.52,-72.63"/>
</a>
</g>
</g>
<!-- Node18&#45;&gt;Node11 -->
<g id="edge23_Node000018_Node000011" class="edge">
<title>Node18&#45;&gt;Node11</title>
<g id="a_edge23_Node000018_Node000011"><a xlink:title=" ">
<path fill="none" stroke="#63b8ff" d="M382,-115.79C382,-97.63 382,-56.04 382,-30.95"/>
<polygon fill="#63b8ff" stroke="#63b8ff" points="385.5,-31.05 382,-21.05 378.5,-31.05 385.5,-31.05"/>
</a>
</g>
</g>
<!-- Node18&#45;&gt;Node17 -->
<g id="edge22_Node000018_Node000017" class="edge">
<title>Node18&#45;&gt;Node17</title>
<g id="a_edge22_Node000018_Node000017"><a xlink:title=" ">
<path fill="none" stroke="#63b8ff" d="M363.36,-115.68C343.67,-106.1 312.39,-90.88 289.58,-79.78"/>
<polygon fill="#63b8ff" stroke="#63b8ff" points="291.35,-76.75 280.82,-75.52 288.29,-83.04 291.35,-76.75"/>
</a>
</g>
</g>
<!-- Node20 -->
<g id="Node000020" class="node">
<title>Node20</title>
<g id="a_Node000020"><a xlink:title=" ">
<polygon fill="#e0e0e0" stroke="#999999" points="715.38,-135.38 650.62,-135.38 650.62,-116.12 715.38,-116.12 715.38,-135.38"/>
<text text-anchor="middle" x="683" y="-121.88" font-family="Helvetica,sans-Serif" font-size="10.00">sys/types.h</text>
</a>
</g>
</g>
<!-- Node19&#45;&gt;Node20 -->
<g id="edge25_Node000019_Node000020" class="edge">
<title>Node19&#45;&gt;Node20</title>
<g id="a_edge25_Node000019_Node000020"><a xlink:title=" ">
<path fill="none" stroke="#63b8ff" d="M734.66,-182.28C725.43,-172.37 710.36,-156.16 698.87,-143.81"/>
<polygon fill="#63b8ff" stroke="#63b8ff" points="701.68,-141.69 692.3,-136.75 696.55,-146.46 701.68,-141.69"/>
</a>
</g>
</g>
<!-- Node21 -->
<g id="Node000021" class="node">
<title>Node21</title>
<g id="a_Node000021"><a xlink:title=" ">
<polygon fill="#e0e0e0" stroke="#999999" points="632.88,-135.38 583.12,-135.38 583.12,-116.12 632.88,-116.12 632.88,-135.38"/>
<text text-anchor="middle" x="608" y="-121.88" font-family="Helvetica,sans-Serif" font-size="10.00">unistd.h</text>
</a>
</g>
</g>
<!-- Node19&#45;&gt;Node21 -->
<g id="edge26_Node000019_Node000021" class="edge">
<title>Node19&#45;&gt;Node21</title>
<g id="a_edge26_Node000019_Node000021"><a xlink:title=" ">
<path fill="none" stroke="#63b8ff" d="M723.94,-182.15C701.33,-171.34 663.39,-153.21 637.09,-140.65"/>
<polygon fill="#63b8ff" stroke="#63b8ff" points="638.86,-137.61 628.32,-136.46 635.84,-143.93 638.86,-137.61"/>
</a>
</g>
</g>
<!-- Node22 -->
<g id="Node000022" class="node">
<title>Node22</title>
<g id="a_Node000022"><a xlink:href="Context_8hpp.html" target="_top" xlink:title=" ">
<polygon fill="white" stroke="#666666" points="526.75,-135.38 443.25,-135.38 443.25,-116.12 526.75,-116.12 526.75,-135.38"/>
<text text-anchor="middle" x="485" y="-121.88" font-family="Helvetica,sans-Serif" font-size="10.00">ers/Context.hpp</text>
</a>
</g>
</g>
<!-- Node19&#45;&gt;Node22 -->
<g id="edge27_Node000019_Node000022" class="edge">
<title>Node19&#45;&gt;Node22</title>
<g id="a_edge27_Node000019_Node000022"><a xlink:title=" ">
<path fill="none" stroke="#63b8ff" d="M706.58,-182.15C660.87,-170.72 582.37,-151.09 532.12,-138.53"/>
<polygon fill="#63b8ff" stroke="#63b8ff" points="533.25,-135.21 522.7,-136.18 531.55,-142 533.25,-135.21"/>
</a>
</g>
</g>
<!-- Node22&#45;&gt;Node10 -->
<g id="edge28_Node000022_Node000010" class="edge">
<title>Node22&#45;&gt;Node10</title>
<g id="a_edge28_Node000022_Node000010"><a xlink:title=" ">
<path fill="none" stroke="#63b8ff" d="M519.91,-115.68C526.88,-113.92 534.17,-112.12 541,-110.5 601.14,-96.21 671.71,-80.96 711.51,-72.51"/>
<polygon fill="#63b8ff" stroke="#63b8ff" points="712.06,-75.97 721.11,-70.47 710.6,-69.12 712.06,-75.97"/>
</a>
</g>
</g>
<!-- Node22&#45;&gt;Node17 -->
<g id="edge29_Node000022_Node000017" class="edge">
<title>Node22&#45;&gt;Node17</title>
<g id="a_edge29_Node000022_Node000017"><a xlink:title=" ">
<path fill="none" stroke="#63b8ff" d="M452.92,-115.68C446.65,-113.94 440.13,-112.15 434,-110.5 385.29,-97.41 328.65,-82.95 293.82,-74.13"/>
<polygon fill="#63b8ff" stroke="#63b8ff" points="294.9,-70.8 284.35,-71.74 293.19,-77.58 294.9,-70.8"/>
</a>
</g>
</g>
<!-- Node23 -->
<g id="Node000023" class="node">
<title>Node23</title>
<g id="a_Node000023"><a xlink:href="ers_2include_2ers_2Configuration_8hpp.html" target="_top" xlink:title=" ">
<polygon fill="white" stroke="#666666" points="527.38,-74.5 420.62,-74.5 420.62,-55.25 527.38,-55.25 527.38,-74.5"/>
<text text-anchor="middle" x="474" y="-61" font-family="Helvetica,sans-Serif" font-size="10.00">ers/Configuration.hpp</text>
</a>
</g>
</g>
<!-- Node22&#45;&gt;Node23 -->
<g id="edge30_Node000022_Node000023" class="edge">
<title>Node22&#45;&gt;Node23</title>
<g id="a_edge30_Node000022_Node000023"><a xlink:title=" ">
<path fill="none" stroke="#63b8ff" d="M483.33,-115.81C481.86,-107.94 479.67,-96.2 477.77,-86.07"/>
<polygon fill="#63b8ff" stroke="#63b8ff" points="481.24,-85.58 475.96,-76.39 474.36,-86.86 481.24,-85.58"/>
</a>
</g>
</g>
<!-- Node23&#45;&gt;Node11 -->
<g id="edge31_Node000023_Node000011" class="edge">
<title>Node23&#45;&gt;Node11</title>
<g id="a_edge31_Node000023_Node000011"><a xlink:title=" ">
<path fill="none" stroke="#63b8ff" d="M458.39,-54.84C444.38,-46.73 423.57,-34.68 407.2,-25.21"/>
<polygon fill="#63b8ff" stroke="#63b8ff" points="409.4,-22.44 398.99,-20.46 405.89,-28.5 409.4,-22.44"/>
</a>
</g>
</g>
<!-- Node25 -->
<g id="Node000025" class="node">
<title>Node25</title>
<g id="a_Node000025"><a xlink:title=" ">
<polygon fill="#e0e0e0" stroke="#999999" points="1455.62,-141 1356.38,-141 1356.38,-110.5 1455.62,-110.5 1455.62,-141"/>
<text text-anchor="start" x="1364.38" y="-127.5" font-family="Helvetica,sans-Serif" font-size="10.00">boost/preprocessor</text>
<text text-anchor="middle" x="1406" y="-116.25" font-family="Helvetica,sans-Serif" font-size="10.00">/if.hpp</text>
</a>
</g>
</g>
<!-- Node24&#45;&gt;Node25 -->
<g id="edge34_Node000024_Node000025" class="edge">
<title>Node24&#45;&gt;Node25</title>
<g id="a_edge34_Node000024_Node000025"><a xlink:title=" ">
<path fill="none" stroke="#63b8ff" d="M1067.18,-178.41C1070.16,-177.93 1073.11,-177.45 1076,-177 1192.95,-158.72 1226.23,-163.29 1345.09,-141.43"/>
<polygon fill="#63b8ff" stroke="#63b8ff" points="1345.41,-144.93 1354.6,-139.66 1344.13,-138.05 1345.41,-144.93"/>
</a>
</g>
</g>
<!-- Node26 -->
<g id="Node000026" class="node">
<title>Node26</title>
<g id="a_Node000026"><a xlink:title=" ">
<polygon fill="#e0e0e0" stroke="#999999" points="870.62,-141 771.38,-141 771.38,-110.5 870.62,-110.5 870.62,-141"/>
<text text-anchor="start" x="779.38" y="-127.5" font-family="Helvetica,sans-Serif" font-size="10.00">boost/preprocessor</text>
<text text-anchor="middle" x="821" y="-116.25" font-family="Helvetica,sans-Serif" font-size="10.00">/seq.hpp</text>
</a>
</g>
</g>
<!-- Node24&#45;&gt;Node26 -->
<g id="edge35_Node000024_Node000026" class="edge">
<title>Node24&#45;&gt;Node26</title>
<g id="a_edge35_Node000024_Node000026"><a xlink:title=" ">
<path fill="none" stroke="#63b8ff" d="M957.06,-176.61C931.72,-167.33 898.72,-155.23 871.56,-145.28"/>
<polygon fill="#63b8ff" stroke="#63b8ff" points="873.1,-142.12 862.5,-141.96 870.69,-148.69 873.1,-142.12"/>
</a>
</g>
</g>
<!-- Node27 -->
<g id="Node000027" class="node">
<title>Node27</title>
<g id="a_Node000027"><a xlink:title=" ">
<polygon fill="#e0e0e0" stroke="#999999" points="987.62,-141 888.38,-141 888.38,-110.5 987.62,-110.5 987.62,-141"/>
<text text-anchor="start" x="896.38" y="-127.5" font-family="Helvetica,sans-Serif" font-size="10.00">boost/preprocessor</text>
<text text-anchor="middle" x="938" y="-116.25" font-family="Helvetica,sans-Serif" font-size="10.00">/tuple.hpp</text>
</a>
</g>
</g>
<!-- Node24&#45;&gt;Node27 -->
<g id="edge36_Node000024_Node000027" class="edge">
<title>Node24&#45;&gt;Node27</title>
<g id="a_edge36_Node000024_Node000027"><a xlink:title=" ">
<path fill="none" stroke="#63b8ff" d="M983.61,-176.61C976.37,-168.7 967.26,-158.74 959.09,-149.8"/>
<polygon fill="#63b8ff" stroke="#63b8ff" points="961.69,-147.46 952.36,-142.44 956.52,-152.19 961.69,-147.46"/>
</a>
</g>
</g>
<!-- Node28 -->
<g id="Node000028" class="node">
<title>Node28</title>
<g id="a_Node000028"><a xlink:title=" ">
<polygon fill="#e0e0e0" stroke="#999999" points="1104.62,-141 1005.38,-141 1005.38,-110.5 1104.62,-110.5 1104.62,-141"/>
<text text-anchor="start" x="1013.38" y="-127.5" font-family="Helvetica,sans-Serif" font-size="10.00">boost/preprocessor</text>
<text text-anchor="middle" x="1055" y="-116.25" font-family="Helvetica,sans-Serif" font-size="10.00">/logical.hpp</text>
</a>
</g>
</g>
<!-- Node24&#45;&gt;Node28 -->
<g id="edge37_Node000024_Node000028" class="edge">
<title>Node24&#45;&gt;Node28</title>
<g id="a_edge37_Node000024_Node000028"><a xlink:title=" ">
<path fill="none" stroke="#63b8ff" d="M1010.16,-176.61C1017.28,-168.7 1026.24,-158.74 1034.27,-149.8"/>
<polygon fill="#63b8ff" stroke="#63b8ff" points="1036.8,-152.23 1040.88,-142.45 1031.59,-147.55 1036.8,-152.23"/>
</a>
</g>
</g>
<!-- Node29 -->
<g id="Node000029" class="node">
<title>Node29</title>
<g id="a_Node000029"><a xlink:title=" ">
<polygon fill="#e0e0e0" stroke="#999999" points="1221.62,-141 1122.38,-141 1122.38,-110.5 1221.62,-110.5 1221.62,-141"/>
<text text-anchor="start" x="1130.38" y="-127.5" font-family="Helvetica,sans-Serif" font-size="10.00">boost/preprocessor</text>
<text text-anchor="middle" x="1172" y="-116.25" font-family="Helvetica,sans-Serif" font-size="10.00">/stringize.hpp</text>
</a>
</g>
</g>
<!-- Node24&#45;&gt;Node29 -->
<g id="edge38_Node000024_Node000029" class="edge">
<title>Node24&#45;&gt;Node29</title>
<g id="a_edge38_Node000024_Node000029"><a xlink:title=" ">
<path fill="none" stroke="#63b8ff" d="M1036.71,-176.61C1061.79,-167.37 1094.43,-155.34 1121.37,-145.41"/>
<polygon fill="#63b8ff" stroke="#63b8ff" points="1122.55,-148.71 1130.72,-141.96 1120.13,-142.14 1122.55,-148.71"/>
</a>
</g>
</g>
<!-- Node30 -->
<g id="Node000030" class="node">
<title>Node30</title>
<g id="a_Node000030"><a xlink:title=" ">
<polygon fill="#e0e0e0" stroke="#999999" points="1338.62,-141 1239.38,-141 1239.38,-110.5 1338.62,-110.5 1338.62,-141"/>
<text text-anchor="start" x="1247.38" y="-127.5" font-family="Helvetica,sans-Serif" font-size="10.00">boost/preprocessor</text>
<text text-anchor="middle" x="1289" y="-116.25" font-family="Helvetica,sans-Serif" font-size="10.00">/comparison.hpp</text>
</a>
</g>
</g>
<!-- Node24&#45;&gt;Node30 -->
<g id="edge39_Node000024_Node000030" class="edge">
<title>Node24&#45;&gt;Node30</title>
<g id="a_edge39_Node000024_Node000030"><a xlink:title=" ">
<path fill="none" stroke="#63b8ff" d="M1067.26,-176.72C1111.06,-167.54 1168.88,-155.18 1227.99,-141.66"/>
<polygon fill="#63b8ff" stroke="#63b8ff" points="1228.6,-145.11 1237.56,-139.46 1227.03,-138.29 1228.6,-145.11"/>
</a>
</g>
</g>
<!-- Node37&#45;&gt;Node2 -->
<g id="edge50_Node000037_Node000002" class="edge">
<title>Node37&#45;&gt;Node2</title>
<g id="a_edge50_Node000037_Node000002"><a xlink:title=" ">
<path fill="none" stroke="#63b8ff" d="M884.05,-420.05C849.28,-410.2 804.06,-397.4 771.25,-388.12"/>
<polygon fill="#63b8ff" stroke="#63b8ff" points="772.24,-384.76 761.66,-385.4 770.33,-391.49 772.24,-384.76"/>
</a>
</g>
</g>
<!-- Node37&#45;&gt;Node4 -->
<g id="edge51_Node000037_Node000004" class="edge">
<title>Node37&#45;&gt;Node4</title>
<g id="a_edge51_Node000037_Node000004"><a xlink:title=" ">
<path fill="none" stroke="#63b8ff" d="M936,-420.07C936,-398.78 936,-359.29 936,-335.26"/>
<polygon fill="#63b8ff" stroke="#63b8ff" points="939.5,-335.5 936,-325.5 932.5,-335.5 939.5,-335.5"/>
</a>
</g>
</g>
<!-- Node37&#45;&gt;Node10 -->
<g id="edge52_Node000037_Node000010" class="edge">
<title>Node37&#45;&gt;Node10</title>
<g id="a_edge52_Node000037_Node000010"><a xlink:title=" ">
<path fill="none" stroke="#63b8ff" d="M958.79,-420.23C1021.61,-380.38 1196.65,-270.49 1259,-243.5 1311.66,-220.7 1330.02,-229.55 1383,-207.5 1446.32,-181.16 1550.05,-160.39 1503,-110.5 1477.61,-83.58 914.92,-69.61 774.52,-66.53"/>
<polygon fill="#63b8ff" stroke="#63b8ff" points="774.93,-63.04 764.86,-66.32 774.78,-70.04 774.93,-63.04"/>
</a>
</g>
</g>
</g>
</svg>
