<?xml version="1.0" encoding="UTF-8" standalone="no"?>
<!DOCTYPE svg PUBLIC "-//W3C//DTD SVG 1.1//EN"
 "http://www.w3.org/Graphics/SVG/1.1/DTD/svg11.dtd">
<!-- Generated by graphviz version 9.0.0 (20230911.1827)
 -->
<!-- Title: sourcecode/oksdbinterfaces/include/oksdbinterfaces/ConfigAction.hpp Pages: 1 -->
<svg width="299pt" height="194pt"
 viewBox="0.00 0.00 299.00 194.00" xmlns="http://www.w3.org/2000/svg" xmlns:xlink="http://www.w3.org/1999/xlink">
<g id="graph0" class="graph" transform="scale(1 1) rotate(0) translate(4 190)">
<title>sourcecode/oksdbinterfaces/include/oksdbinterfaces/ConfigAction.hpp</title>
<!-- Node1 -->
<g id="Node000001" class="node">
<title>Node1</title>
<g id="a_Node000001"><a xlink:title=" ">
<polygon fill="#999999" stroke="#666666" points="216,-186 77.75,-186 77.75,-144.25 216,-144.25 216,-186"/>
<text text-anchor="start" x="85.75" y="-172.5" font-family="Helvetica,sans-Serif" font-size="10.00">sourcecode/oksdbinterfaces</text>
<text text-anchor="start" x="85.75" y="-161.25" font-family="Helvetica,sans-Serif" font-size="10.00">/include/oksdbinterfaces</text>
<text text-anchor="middle" x="146.88" y="-150" font-family="Helvetica,sans-Serif" font-size="10.00">/ConfigAction.hpp</text>
</a>
</g>
</g>
<!-- Node2 -->
<g id="Node000002" class="node">
<title>Node2</title>
<g id="a_Node000002"><a xlink:href="disabled-components_8hpp.html" target="_top" xlink:title=" ">
<polygon fill="white" stroke="#666666" points="134.5,-108.25 11.25,-108.25 11.25,-66.5 134.5,-66.5 134.5,-108.25"/>
<text text-anchor="start" x="19.25" y="-94.75" font-family="Helvetica,sans-Serif" font-size="10.00">sourcecode/coredal</text>
<text text-anchor="start" x="19.25" y="-83.5" font-family="Helvetica,sans-Serif" font-size="10.00">/include/coredal/disabled</text>
<text text-anchor="middle" x="72.88" y="-72.25" font-family="Helvetica,sans-Serif" font-size="10.00">&#45;components.hpp</text>
</a>
</g>
</g>
<!-- Node1&#45;&gt;Node2 -->
<g id="edge1_Node000001_Node000002" class="edge">
<title>Node1&#45;&gt;Node2</title>
<g id="a_edge1_Node000001_Node000002"><a xlink:title=" ">
<path fill="none" stroke="#63b8ff" d="M119.24,-135.84C110.45,-126.84 100.9,-117.06 92.76,-108.73"/>
<polygon fill="#63b8ff" stroke="#63b8ff" points="116.5,-138.04 125.99,-142.74 121.5,-133.14 116.5,-138.04"/>
</a>
</g>
</g>
<!-- Node4 -->
<g id="Node000004" class="node">
<title>Node4</title>
<g id="a_Node000004"><a xlink:href="oksdbinterfaces_2src_2Configuration_8cpp.html" target="_top" xlink:title=" ">
<polygon fill="white" stroke="#666666" points="291,-102.62 152.75,-102.62 152.75,-72.12 291,-72.12 291,-102.62"/>
<text text-anchor="start" x="160.75" y="-89.12" font-family="Helvetica,sans-Serif" font-size="10.00">sourcecode/oksdbinterfaces</text>
<text text-anchor="middle" x="221.88" y="-77.88" font-family="Helvetica,sans-Serif" font-size="10.00">/src/Configuration.cpp</text>
</a>
</g>
</g>
<!-- Node1&#45;&gt;Node4 -->
<g id="edge3_Node000001_Node000004" class="edge">
<title>Node1&#45;&gt;Node4</title>
<g id="a_edge3_Node000001_Node000004"><a xlink:title=" ">
<path fill="none" stroke="#63b8ff" d="M174.84,-135.88C186.02,-124.59 198.41,-112.08 207.66,-102.73"/>
<polygon fill="#63b8ff" stroke="#63b8ff" points="172.59,-133.18 168.04,-142.75 177.56,-138.11 172.59,-133.18"/>
</a>
</g>
</g>
<!-- Node3 -->
<g id="Node000003" class="node">
<title>Node3</title>
<g id="a_Node000003"><a xlink:href="disabled-components_8cpp.html" target="_top" xlink:title=" ">
<polygon fill="white" stroke="#666666" points="145.75,-30.5 0,-30.5 0,0 145.75,0 145.75,-30.5"/>
<text text-anchor="start" x="8" y="-17" font-family="Helvetica,sans-Serif" font-size="10.00">sourcecode/coredal</text>
<text text-anchor="middle" x="72.88" y="-5.75" font-family="Helvetica,sans-Serif" font-size="10.00">/src/disabled&#45;components.cpp</text>
</a>
</g>
</g>
<!-- Node2&#45;&gt;Node3 -->
<g id="edge2_Node000002_Node000003" class="edge">
<title>Node2&#45;&gt;Node3</title>
<g id="a_edge2_Node000002_Node000003"><a xlink:title=" ">
<path fill="none" stroke="#63b8ff" d="M72.88,-54.63C72.88,-46.27 72.88,-37.65 72.88,-30.7"/>
<polygon fill="#63b8ff" stroke="#63b8ff" points="69.38,-54.58 72.88,-64.58 76.38,-54.58 69.38,-54.58"/>
</a>
</g>
</g>
</g>
</svg>
