<?xml version="1.0" encoding="UTF-8" standalone="no"?>
<!DOCTYPE svg PUBLIC "-//W3C//DTD SVG 1.1//EN"
 "http://www.w3.org/Graphics/SVG/1.1/DTD/svg11.dtd">
<!-- Generated by graphviz version 9.0.0 (20230911.1827)
 -->
<!-- Title: sourcecode/oksdbinterfaces/include/oksdbinterfaces/ConfigurationImpl.hpp Pages: 1 -->
<svg width="707pt" height="183pt"
 viewBox="0.00 0.00 706.62 182.75" xmlns="http://www.w3.org/2000/svg" xmlns:xlink="http://www.w3.org/1999/xlink">
<g id="graph0" class="graph" transform="scale(1 1) rotate(0) translate(4 178.75)">
<title>sourcecode/oksdbinterfaces/include/oksdbinterfaces/ConfigurationImpl.hpp</title>
<!-- Node1 -->
<g id="Node000001" class="node">
<title>Node1</title>
<g id="a_Node000001"><a xlink:title=" ">
<polygon fill="#999999" stroke="#666666" points="464.62,-174.75 326.38,-174.75 326.38,-133 464.62,-133 464.62,-174.75"/>
<text text-anchor="start" x="334.38" y="-161.25" font-family="Helvetica,sans-Serif" font-size="10.00">sourcecode/oksdbinterfaces</text>
<text text-anchor="start" x="334.38" y="-150" font-family="Helvetica,sans-Serif" font-size="10.00">/include/oksdbinterfaces</text>
<text text-anchor="middle" x="395.5" y="-138.75" font-family="Helvetica,sans-Serif" font-size="10.00">/ConfigurationImpl.hpp</text>
</a>
</g>
</g>
<!-- Node2 -->
<g id="Node000002" class="node">
<title>Node2</title>
<g id="a_Node000002"><a xlink:href="OksConfiguration_8hpp.html" target="_top" xlink:title=" ">
<polygon fill="white" stroke="#666666" points="230.12,-97 40.88,-97 40.88,-66.5 230.12,-66.5 230.12,-97"/>
<text text-anchor="start" x="48.88" y="-83.5" font-family="Helvetica,sans-Serif" font-size="10.00">sourcecode/oksconfig</text>
<text text-anchor="middle" x="135.5" y="-72.25" font-family="Helvetica,sans-Serif" font-size="10.00">/include/oksconfig/OksConfiguration.hpp</text>
</a>
</g>
</g>
<!-- Node1&#45;&gt;Node2 -->
<g id="edge1_Node000001_Node000002" class="edge">
<title>Node1&#45;&gt;Node2</title>
<g id="a_edge1_Node000001_Node000002"><a xlink:title=" ">
<path fill="none" stroke="#63b8ff" d="M315.18,-131.21C274.48,-120.23 226.13,-107.19 189.84,-97.41"/>
<polygon fill="#63b8ff" stroke="#63b8ff" points="314.14,-134.56 324.7,-133.78 315.96,-127.8 314.14,-134.56"/>
</a>
</g>
</g>
<!-- Node5 -->
<g id="Node000005" class="node">
<title>Node5</title>
<g id="a_Node000005"><a xlink:href="ConfigObject_8cpp.html" target="_top" xlink:title=" ">
<polygon fill="white" stroke="#666666" points="386.62,-97 248.38,-97 248.38,-66.5 386.62,-66.5 386.62,-97"/>
<text text-anchor="start" x="256.38" y="-83.5" font-family="Helvetica,sans-Serif" font-size="10.00">sourcecode/oksdbinterfaces</text>
<text text-anchor="middle" x="317.5" y="-72.25" font-family="Helvetica,sans-Serif" font-size="10.00">/src/ConfigObject.cpp</text>
</a>
</g>
</g>
<!-- Node1&#45;&gt;Node5 -->
<g id="edge4_Node000001_Node000005" class="edge">
<title>Node1&#45;&gt;Node5</title>
<g id="a_edge4_Node000001_Node000005"><a xlink:title=" ">
<path fill="none" stroke="#63b8ff" d="M364.66,-125.15C354.02,-115.59 342.54,-105.27 333.57,-97.2"/>
<polygon fill="#63b8ff" stroke="#63b8ff" points="362.04,-127.5 371.81,-131.58 366.72,-122.29 362.04,-127.5"/>
</a>
</g>
</g>
<!-- Node6 -->
<g id="Node000006" class="node">
<title>Node6</title>
<g id="a_Node000006"><a xlink:href="oksdbinterfaces_2src_2Configuration_8cpp.html" target="_top" xlink:title=" ">
<polygon fill="white" stroke="#666666" points="542.62,-97 404.38,-97 404.38,-66.5 542.62,-66.5 542.62,-97"/>
<text text-anchor="start" x="412.38" y="-83.5" font-family="Helvetica,sans-Serif" font-size="10.00">sourcecode/oksdbinterfaces</text>
<text text-anchor="middle" x="473.5" y="-72.25" font-family="Helvetica,sans-Serif" font-size="10.00">/src/Configuration.cpp</text>
</a>
</g>
</g>
<!-- Node1&#45;&gt;Node6 -->
<g id="edge5_Node000001_Node000006" class="edge">
<title>Node1&#45;&gt;Node6</title>
<g id="a_edge5_Node000001_Node000006"><a xlink:title=" ">
<path fill="none" stroke="#63b8ff" d="M426.34,-125.15C436.98,-115.59 448.46,-105.27 457.43,-97.2"/>
<polygon fill="#63b8ff" stroke="#63b8ff" points="424.28,-122.29 419.19,-131.58 428.96,-127.5 424.28,-122.29"/>
</a>
</g>
</g>
<!-- Node7 -->
<g id="Node000007" class="node">
<title>Node7</title>
<g id="a_Node000007"><a xlink:href="ConfigurationImpl_8cpp.html" target="_top" xlink:title=" ">
<polygon fill="white" stroke="#666666" points="698.62,-97 560.38,-97 560.38,-66.5 698.62,-66.5 698.62,-97"/>
<text text-anchor="start" x="568.38" y="-83.5" font-family="Helvetica,sans-Serif" font-size="10.00">sourcecode/oksdbinterfaces</text>
<text text-anchor="middle" x="629.5" y="-72.25" font-family="Helvetica,sans-Serif" font-size="10.00">/src/ConfigurationImpl.cpp</text>
</a>
</g>
</g>
<!-- Node1&#45;&gt;Node7 -->
<g id="edge6_Node000001_Node000007" class="edge">
<title>Node1&#45;&gt;Node7</title>
<g id="a_edge6_Node000001_Node000007"><a xlink:title=" ">
<path fill="none" stroke="#63b8ff" d="M473.94,-129.37C509.19,-118.8 549.71,-106.66 580.55,-97.42"/>
<polygon fill="#63b8ff" stroke="#63b8ff" points="473.21,-125.93 464.63,-132.16 475.22,-132.64 473.21,-125.93"/>
</a>
</g>
</g>
<!-- Node3 -->
<g id="Node000003" class="node">
<title>Node3</title>
<g id="a_Node000003"><a xlink:href="OksConfigObject_8cpp.html" target="_top" xlink:title=" ">
<polygon fill="white" stroke="#666666" points="127,-30.5 0,-30.5 0,0 127,0 127,-30.5"/>
<text text-anchor="start" x="8" y="-17" font-family="Helvetica,sans-Serif" font-size="10.00">sourcecode/oksconfig</text>
<text text-anchor="middle" x="63.5" y="-5.75" font-family="Helvetica,sans-Serif" font-size="10.00">/src/OksConfigObject.cpp</text>
</a>
</g>
</g>
<!-- Node2&#45;&gt;Node3 -->
<g id="edge2_Node000002_Node000003" class="edge">
<title>Node2&#45;&gt;Node3</title>
<g id="a_edge2_Node000002_Node000003"><a xlink:title=" ">
<path fill="none" stroke="#63b8ff" d="M110.62,-58.46C100.41,-49.32 88.88,-38.98 79.77,-30.83"/>
<polygon fill="#63b8ff" stroke="#63b8ff" points="108.25,-61.04 118.03,-65.1 112.92,-55.82 108.25,-61.04"/>
</a>
</g>
</g>
<!-- Node4 -->
<g id="Node000004" class="node">
<title>Node4</title>
<g id="a_Node000004"><a xlink:href="OksConfiguration_8cpp.html" target="_top" xlink:title=" ">
<polygon fill="white" stroke="#666666" points="272.38,-30.5 144.62,-30.5 144.62,0 272.38,0 272.38,-30.5"/>
<text text-anchor="start" x="152.62" y="-17" font-family="Helvetica,sans-Serif" font-size="10.00">sourcecode/oksconfig</text>
<text text-anchor="middle" x="208.5" y="-5.75" font-family="Helvetica,sans-Serif" font-size="10.00">/src/OksConfiguration.cpp</text>
</a>
</g>
</g>
<!-- Node2&#45;&gt;Node4 -->
<g id="edge3_Node000002_Node000004" class="edge">
<title>Node2&#45;&gt;Node4</title>
<g id="a_edge3_Node000002_Node000004"><a xlink:title=" ">
<path fill="none" stroke="#63b8ff" d="M160.41,-58.74C170.84,-49.53 182.68,-39.06 192,-30.83"/>
<polygon fill="#63b8ff" stroke="#63b8ff" points="158.38,-55.87 153.2,-65.11 163.01,-61.11 158.38,-55.87"/>
</a>
</g>
</g>
</g>
</svg>
