<?xml version="1.0" encoding="UTF-8" standalone="no"?>
<!DOCTYPE svg PUBLIC "-//W3C//DTD SVG 1.1//EN"
 "http://www.w3.org/Graphics/SVG/1.1/DTD/svg11.dtd">
<!-- Generated by graphviz version 9.0.0 (20230911.1827)
 -->
<!-- Title: sourcecode/dbe/include/dbe/config_ui_info.hpp Pages: 1 -->
<svg width="717pt" height="116pt"
 viewBox="0.00 0.00 717.00 116.25" xmlns="http://www.w3.org/2000/svg" xmlns:xlink="http://www.w3.org/1999/xlink">
<g id="graph0" class="graph" transform="scale(1 1) rotate(0) translate(4 112.25)">
<title>sourcecode/dbe/include/dbe/config_ui_info.hpp</title>
<!-- Node1 -->
<g id="Node000001" class="node">
<title>Node1</title>
<g id="a_Node000001"><a xlink:title=" ">
<polygon fill="#999999" stroke="#666666" points="432.88,-108.25 314.12,-108.25 314.12,-77.75 432.88,-77.75 432.88,-108.25"/>
<text text-anchor="start" x="322.12" y="-94.75" font-family="Helvetica,sans-Serif" font-size="10.00">sourcecode/dbe/include</text>
<text text-anchor="middle" x="373.5" y="-83.5" font-family="Helvetica,sans-Serif" font-size="10.00">/dbe/config_ui_info.hpp</text>
</a>
</g>
</g>
<!-- Node2 -->
<g id="Node000002" class="node">
<title>Node2</title>
<g id="a_Node000002"><a xlink:href="GraphView_8cpp.html" target="_top" xlink:title=" ">
<polygon fill="white" stroke="#666666" points="127,-36.12 0,-36.12 0,-5.62 127,-5.62 127,-36.12"/>
<text text-anchor="start" x="8" y="-22.62" font-family="Helvetica,sans-Serif" font-size="10.00">sourcecode/dbe/src</text>
<text text-anchor="middle" x="63.5" y="-11.38" font-family="Helvetica,sans-Serif" font-size="10.00">/graphical/GraphView.cpp</text>
</a>
</g>
</g>
<!-- Node1&#45;&gt;Node2 -->
<g id="edge1_Node000001_Node000002" class="edge">
<title>Node1&#45;&gt;Node2</title>
<g id="a_edge1_Node000001_Node000002"><a xlink:title=" ">
<path fill="none" stroke="#63b8ff" d="M303,-78.29C255.5,-68.77 191.53,-55.39 135.5,-41.75 128.95,-40.16 122.09,-38.39 115.31,-36.59"/>
<polygon fill="#63b8ff" stroke="#63b8ff" points="302.12,-81.69 312.61,-80.21 303.49,-74.82 302.12,-81.69"/>
</a>
</g>
</g>
<!-- Node3 -->
<g id="Node000003" class="node">
<title>Node3</title>
<g id="a_Node000003"><a xlink:href="GraphicalClass_8cpp.html" target="_top" xlink:title=" ">
<polygon fill="white" stroke="#666666" points="290,-36.12 145,-36.12 145,-5.62 290,-5.62 290,-36.12"/>
<text text-anchor="start" x="153" y="-22.62" font-family="Helvetica,sans-Serif" font-size="10.00">sourcecode/dbe/src</text>
<text text-anchor="middle" x="217.5" y="-11.38" font-family="Helvetica,sans-Serif" font-size="10.00">/graphical/GraphicalClass.cpp</text>
</a>
</g>
</g>
<!-- Node1&#45;&gt;Node3 -->
<g id="edge2_Node000001_Node000003" class="edge">
<title>Node1&#45;&gt;Node3</title>
<g id="a_edge2_Node000001_Node000003"><a xlink:title=" ">
<path fill="none" stroke="#63b8ff" d="M330.35,-72.6C304.99,-61.2 273.45,-47.02 250.16,-36.56"/>
<polygon fill="#63b8ff" stroke="#63b8ff" points="328.86,-75.77 339.42,-76.68 331.73,-69.39 328.86,-75.77"/>
</a>
</g>
</g>
<!-- Node4 -->
<g id="Node000004" class="node">
<title>Node4</title>
<g id="a_Node000004"><a xlink:href="confaccessor_8cpp.html" target="_top" xlink:title=" ">
<polygon fill="white" stroke="#666666" points="438.5,-36.12 308.5,-36.12 308.5,-5.62 438.5,-5.62 438.5,-36.12"/>
<text text-anchor="start" x="316.5" y="-22.62" font-family="Helvetica,sans-Serif" font-size="10.00">sourcecode/dbe/src</text>
<text text-anchor="middle" x="373.5" y="-11.38" font-family="Helvetica,sans-Serif" font-size="10.00">/internal/confaccessor.cpp</text>
</a>
</g>
</g>
<!-- Node1&#45;&gt;Node4 -->
<g id="edge3_Node000001_Node000004" class="edge">
<title>Node1&#45;&gt;Node4</title>
<g id="a_edge3_Node000001_Node000004"><a xlink:title=" ">
<path fill="none" stroke="#63b8ff" d="M373.5,-66.02C373.5,-56.01 373.5,-44.94 373.5,-36.39"/>
<polygon fill="#63b8ff" stroke="#63b8ff" points="370,-65.96 373.5,-75.96 377,-65.96 370,-65.96"/>
</a>
</g>
</g>
<!-- Node5 -->
<g id="Node000005" class="node">
<title>Node5</title>
<g id="a_Node000005"><a xlink:href="config__ui__info_8cpp.html" target="_top" xlink:title=" ">
<polygon fill="white" stroke="#666666" points="558.25,-41.75 456.75,-41.75 456.75,0 558.25,0 558.25,-41.75"/>
<text text-anchor="start" x="464.75" y="-28.25" font-family="Helvetica,sans-Serif" font-size="10.00">sourcecode/dbe/src</text>
<text text-anchor="start" x="464.75" y="-17" font-family="Helvetica,sans-Serif" font-size="10.00">/internal/config_ui</text>
<text text-anchor="middle" x="507.5" y="-5.75" font-family="Helvetica,sans-Serif" font-size="10.00">_info.cpp</text>
</a>
</g>
</g>
<!-- Node1&#45;&gt;Node5 -->
<g id="edge4_Node000001_Node000005" class="edge">
<title>Node1&#45;&gt;Node5</title>
<g id="a_edge4_Node000001_Node000005"><a xlink:title=" ">
<path fill="none" stroke="#63b8ff" d="M411.68,-72.02C429.56,-62.66 450.82,-51.53 468.77,-42.14"/>
<polygon fill="#63b8ff" stroke="#63b8ff" points="410.17,-68.86 402.93,-76.6 413.41,-75.06 410.17,-68.86"/>
</a>
</g>
</g>
<!-- Node6 -->
<g id="Node000006" class="node">
<title>Node6</title>
<g id="a_Node000006"><a xlink:href="subtreeproxy_8cpp.html" target="_top" xlink:title=" ">
<polygon fill="white" stroke="#666666" points="709,-36.12 576,-36.12 576,-5.62 709,-5.62 709,-36.12"/>
<text text-anchor="start" x="584" y="-22.62" font-family="Helvetica,sans-Serif" font-size="10.00">sourcecode/dbe/src</text>
<text text-anchor="middle" x="642.5" y="-11.38" font-family="Helvetica,sans-Serif" font-size="10.00">/structure/subtreeproxy.cpp</text>
</a>
</g>
</g>
<!-- Node1&#45;&gt;Node6 -->
<g id="edge5_Node000001_Node000006" class="edge">
<title>Node1&#45;&gt;Node6</title>
<g id="a_edge5_Node000001_Node000006"><a xlink:title=" ">
<path fill="none" stroke="#63b8ff" d="M441.14,-74.58C478.42,-64.95 525.53,-52.75 567.5,-41.75 573.88,-40.08 580.57,-38.32 587.22,-36.56"/>
<polygon fill="#63b8ff" stroke="#63b8ff" points="440.67,-71.09 431.86,-76.97 442.42,-77.86 440.67,-71.09"/>
</a>
</g>
</g>
</g>
</svg>
