<?xml version="1.0" encoding="UTF-8" standalone="no"?>
<!DOCTYPE svg PUBLIC "-//W3C//DTD SVG 1.1//EN"
 "http://www.w3.org/Graphics/SVG/1.1/DTD/svg11.dtd">
<!-- Generated by graphviz version 9.0.0 (20230911.1827)
 -->
<!-- Title: sourcecode/dbe/include/dbe/config_api_commands.hpp Pages: 1 -->
<svg width="1912pt" height="527pt"
 viewBox="0.00 0.00 1912.00 526.50" xmlns="http://www.w3.org/2000/svg" xmlns:xlink="http://www.w3.org/1999/xlink">
<g id="graph0" class="graph" transform="scale(1 1) rotate(0) translate(4 522.5)">
<title>sourcecode/dbe/include/dbe/config_api_commands.hpp</title>
<!-- Node1 -->
<g id="Node000001" class="node">
<title>Node1</title>
<g id="a_Node000001"><a xlink:title=" ">
<polygon fill="#999999" stroke="#666666" points="1535.38,-518.5 1382.88,-518.5 1382.88,-488 1535.38,-488 1535.38,-518.5"/>
<text text-anchor="start" x="1390.88" y="-505" font-family="Helvetica,sans-Serif" font-size="10.00">sourcecode/dbe/include</text>
<text text-anchor="middle" x="1459.12" y="-493.75" font-family="Helvetica,sans-Serif" font-size="10.00">/dbe/config_api_commands.hpp</text>
</a>
</g>
</g>
<!-- Node2 -->
<g id="Node000002" class="node">
<title>Node2</title>
<g id="a_Node000002"><a xlink:href="model__common__operations_8hpp.html" target="_top" xlink:title=" ">
<polygon fill="white" stroke="#666666" points="751.62,-446.38 576.62,-446.38 576.62,-415.88 751.62,-415.88 751.62,-446.38"/>
<text text-anchor="start" x="584.62" y="-432.88" font-family="Helvetica,sans-Serif" font-size="10.00">sourcecode/dbe/include</text>
<text text-anchor="middle" x="664.12" y="-421.62" font-family="Helvetica,sans-Serif" font-size="10.00">/dbe/model_common_operations.hpp</text>
</a>
</g>
</g>
<!-- Node1&#45;&gt;Node2 -->
<g id="edge1_Node000001_Node000002" class="edge">
<title>Node1&#45;&gt;Node2</title>
<g id="a_edge1_Node000001_Node000002"><a xlink:title=" ">
<path fill="none" stroke="#63b8ff" d="M1371.36,-494.51C1218.48,-481.02 905.02,-453.37 752.03,-439.88"/>
<polygon fill="#63b8ff" stroke="#63b8ff" points="1370.76,-497.97 1381.03,-495.36 1371.37,-491 1370.76,-497.97"/>
</a>
</g>
</g>
<!-- Node9 -->
<g id="Node000009" class="node">
<title>Node9</title>
<g id="a_Node000009"><a xlink:href="GraphView_8cpp.html" target="_top" xlink:title=" ">
<polygon fill="white" stroke="#666666" points="1202.62,-30.5 1075.62,-30.5 1075.62,0 1202.62,0 1202.62,-30.5"/>
<text text-anchor="start" x="1083.62" y="-17" font-family="Helvetica,sans-Serif" font-size="10.00">sourcecode/dbe/src</text>
<text text-anchor="middle" x="1139.12" y="-5.75" font-family="Helvetica,sans-Serif" font-size="10.00">/graphical/GraphView.cpp</text>
</a>
</g>
</g>
<!-- Node1&#45;&gt;Node9 -->
<g id="edge47_Node000001_Node000009" class="edge">
<title>Node1&#45;&gt;Node9</title>
<g id="a_edge47_Node000001_Node000009"><a xlink:title=" ">
<path fill="none" stroke="#63b8ff" d="M1437.71,-479.29C1415.23,-452.71 1383.12,-406.59 1383.12,-360 1383.12,-360 1383.12,-360 1383.12,-147.25 1383.12,-110.38 1390.34,-92.42 1364.12,-66.5 1358.28,-60.72 1267.31,-41.67 1202.86,-28.76"/>
<polygon fill="#63b8ff" stroke="#63b8ff" points="1434.97,-481.48 1444.19,-486.7 1440.24,-476.87 1434.97,-481.48"/>
</a>
</g>
</g>
<!-- Node14 -->
<g id="Node000014" class="node">
<title>Node14</title>
<g id="a_Node000014"><a xlink:href="IncludeFileWidget_8cpp.html" target="_top" xlink:title=" ">
<polygon fill="white" stroke="#666666" points="1374.62,-30.5 1223.62,-30.5 1223.62,0 1374.62,0 1374.62,-30.5"/>
<text text-anchor="start" x="1231.62" y="-17" font-family="Helvetica,sans-Serif" font-size="10.00">sourcecode/dbe/src</text>
<text text-anchor="middle" x="1299.12" y="-5.75" font-family="Helvetica,sans-Serif" font-size="10.00">/widgets/IncludeFileWidget.cpp</text>
</a>
</g>
</g>
<!-- Node1&#45;&gt;Node14 -->
<g id="edge50_Node000001_Node000014" class="edge">
<title>Node1&#45;&gt;Node14</title>
<g id="a_edge50_Node000001_Node000014"><a xlink:title=" ">
<path fill="none" stroke="#63b8ff" d="M1448.18,-477.21C1436.96,-449.21 1421.12,-402.24 1421.12,-360 1421.12,-360 1421.12,-360 1421.12,-147.25 1421.12,-109.81 1421.04,-95.31 1397.12,-66.5 1383.75,-50.39 1363.89,-38.87 1345.53,-30.96"/>
<polygon fill="#63b8ff" stroke="#63b8ff" points="1444.86,-478.35 1451.93,-486.25 1451.33,-475.67 1444.86,-478.35"/>
</a>
</g>
</g>
<!-- Node15 -->
<g id="Node000015" class="node">
<title>Node15</title>
<g id="a_Node000015"><a xlink:href="ObjectEditor_8cpp.html" target="_top" xlink:title=" ">
<polygon fill="white" stroke="#666666" points="1521.62,-30.5 1394.62,-30.5 1394.62,0 1521.62,0 1521.62,-30.5"/>
<text text-anchor="start" x="1402.62" y="-17" font-family="Helvetica,sans-Serif" font-size="10.00">sourcecode/dbe/src</text>
<text text-anchor="middle" x="1458.12" y="-5.75" font-family="Helvetica,sans-Serif" font-size="10.00">/widgets/ObjectEditor.cpp</text>
</a>
</g>
</g>
<!-- Node1&#45;&gt;Node15 -->
<g id="edge52_Node000001_Node000015" class="edge">
<title>Node1&#45;&gt;Node15</title>
<g id="a_edge52_Node000001_Node000015"><a xlink:title=" ">
<path fill="none" stroke="#63b8ff" d="M1459.12,-476.36C1459.12,-447.86 1459.12,-400.66 1459.12,-360 1459.12,-360 1459.12,-360 1459.12,-147.25 1459.12,-104.95 1458.6,-54.96 1458.31,-30.79"/>
<polygon fill="#63b8ff" stroke="#63b8ff" points="1455.63,-476.2 1459.13,-486.2 1462.63,-476.2 1455.63,-476.2"/>
</a>
</g>
</g>
<!-- Node30 -->
<g id="Node000030" class="node">
<title>Node30</title>
<g id="a_Node000030"><a xlink:href="GraphicalClass_8cpp.html" target="_top" xlink:title=" ">
<polygon fill="white" stroke="#666666" points="1632.62,-446.38 1487.62,-446.38 1487.62,-415.88 1632.62,-415.88 1632.62,-446.38"/>
<text text-anchor="start" x="1495.62" y="-432.88" font-family="Helvetica,sans-Serif" font-size="10.00">sourcecode/dbe/src</text>
<text text-anchor="middle" x="1560.12" y="-421.62" font-family="Helvetica,sans-Serif" font-size="10.00">/graphical/GraphicalClass.cpp</text>
</a>
</g>
</g>
<!-- Node1&#45;&gt;Node30 -->
<g id="edge48_Node000001_Node000030" class="edge">
<title>Node1&#45;&gt;Node30</title>
<g id="a_edge48_Node000001_Node000030"><a xlink:title=" ">
<path fill="none" stroke="#63b8ff" d="M1489.1,-481.44C1505.24,-470.23 1524.74,-456.69 1539.22,-446.64"/>
<polygon fill="#63b8ff" stroke="#63b8ff" points="1487.51,-478.28 1481.3,-486.86 1491.51,-484.03 1487.51,-478.28"/>
</a>
</g>
</g>
<!-- Node31 -->
<g id="Node000031" class="node">
<title>Node31</title>
<g id="a_Node000031"><a xlink:href="config__api__set_8cpp.html" target="_top" xlink:title=" ">
<polygon fill="white" stroke="#666666" points="1751.88,-452 1650.38,-452 1650.38,-410.25 1751.88,-410.25 1751.88,-452"/>
<text text-anchor="start" x="1658.38" y="-438.5" font-family="Helvetica,sans-Serif" font-size="10.00">sourcecode/dbe/src</text>
<text text-anchor="start" x="1658.38" y="-427.25" font-family="Helvetica,sans-Serif" font-size="10.00">/internal/config_api</text>
<text text-anchor="middle" x="1701.12" y="-416" font-family="Helvetica,sans-Serif" font-size="10.00">_set.cpp</text>
</a>
</g>
</g>
<!-- Node1&#45;&gt;Node31 -->
<g id="edge49_Node000001_Node000031" class="edge">
<title>Node1&#45;&gt;Node31</title>
<g id="a_edge49_Node000001_Node000031"><a xlink:title=" ">
<path fill="none" stroke="#63b8ff" d="M1526.78,-484.66C1561.41,-475.4 1604.17,-463.59 1642.12,-452 1644.71,-451.21 1647.35,-450.39 1650.02,-449.54"/>
<polygon fill="#63b8ff" stroke="#63b8ff" points="1526.06,-481.23 1517.3,-487.18 1527.86,-487.99 1526.06,-481.23"/>
</a>
</g>
</g>
<!-- Node32 -->
<g id="Node000032" class="node">
<title>Node32</title>
<g id="a_Node000032"><a xlink:href="ObjectCreator_8cpp.html" target="_top" xlink:title=" ">
<polygon fill="white" stroke="#666666" points="1904,-446.38 1770.25,-446.38 1770.25,-415.88 1904,-415.88 1904,-446.38"/>
<text text-anchor="start" x="1778.25" y="-432.88" font-family="Helvetica,sans-Serif" font-size="10.00">sourcecode/dbe/src</text>
<text text-anchor="middle" x="1837.12" y="-421.62" font-family="Helvetica,sans-Serif" font-size="10.00">/widgets/ObjectCreator.cpp</text>
</a>
</g>
</g>
<!-- Node1&#45;&gt;Node32 -->
<g id="edge51_Node000001_Node000032" class="edge">
<title>Node1&#45;&gt;Node32</title>
<g id="a_edge51_Node000001_Node000032"><a xlink:title=" ">
<path fill="none" stroke="#63b8ff" d="M1546.85,-489.81C1607.34,-480.7 1689.44,-467.3 1761.12,-452 1768.33,-450.46 1775.87,-448.69 1783.3,-446.85"/>
<polygon fill="#63b8ff" stroke="#63b8ff" points="1546.69,-486.29 1537.32,-491.23 1547.72,-493.22 1546.69,-486.29"/>
</a>
</g>
</g>
<!-- Node3 -->
<g id="Node000003" class="node">
<title>Node3</title>
<g id="a_Node000003"><a xlink:href="model__common__interface_8hpp.html" target="_top" xlink:title=" ">
<polygon fill="white" stroke="#666666" points="747.88,-374.25 580.38,-374.25 580.38,-343.75 747.88,-343.75 747.88,-374.25"/>
<text text-anchor="start" x="588.38" y="-360.75" font-family="Helvetica,sans-Serif" font-size="10.00">sourcecode/dbe/include</text>
<text text-anchor="middle" x="664.12" y="-349.5" font-family="Helvetica,sans-Serif" font-size="10.00">/dbe/model_common_interface.hpp</text>
</a>
</g>
</g>
<!-- Node2&#45;&gt;Node3 -->
<g id="edge2_Node000002_Node000003" class="edge">
<title>Node2&#45;&gt;Node3</title>
<g id="a_edge2_Node000002_Node000003"><a xlink:title=" ">
<path fill="none" stroke="#63b8ff" d="M657.58,-404.15C657.12,-394.14 657.44,-383.06 658.53,-374.51"/>
<polygon fill="#63b8ff" stroke="#63b8ff" points="654.09,-404.41 658.41,-414.09 661.07,-403.83 654.09,-404.41"/>
</a>
</g>
</g>
<!-- Node3&#45;&gt;Node2 -->
<g id="edge5_Node000003_Node000002" class="edge">
<title>Node3&#45;&gt;Node2</title>
<g id="a_edge5_Node000003_Node000002"><a xlink:title=" ">
<path fill="none" stroke="#63b8ff" d="M670.67,-385.95C671.13,-395.96 670.82,-407.04 669.72,-415.6"/>
<polygon fill="#63b8ff" stroke="#63b8ff" points="674.16,-385.69 669.84,-376.02 667.18,-386.28 674.16,-385.69"/>
</a>
</g>
</g>
<!-- Node4 -->
<g id="Node000004" class="node">
<title>Node4</title>
<g id="a_Node000004"><a xlink:href="model__common__interface__macros_8hpp.html" target="_top" xlink:title=" ">
<polygon fill="white" stroke="#666666" points="586.88,-307.75 437.38,-307.75 437.38,-266 586.88,-266 586.88,-307.75"/>
<text text-anchor="start" x="445.38" y="-294.25" font-family="Helvetica,sans-Serif" font-size="10.00">sourcecode/dbe/include</text>
<text text-anchor="start" x="445.38" y="-283" font-family="Helvetica,sans-Serif" font-size="10.00">/dbe/model_common_interface</text>
<text text-anchor="middle" x="512.12" y="-271.75" font-family="Helvetica,sans-Serif" font-size="10.00">_macros.hpp</text>
</a>
</g>
</g>
<!-- Node3&#45;&gt;Node4 -->
<g id="edge3_Node000003_Node000004" class="edge">
<title>Node3&#45;&gt;Node4</title>
<g id="a_edge3_Node000003_Node000004"><a xlink:title=" ">
<path fill="none" stroke="#63b8ff" d="M616.13,-338.67C594.73,-329.18 569.93,-317.75 549.87,-308.14"/>
<polygon fill="#63b8ff" stroke="#63b8ff" points="614.7,-341.87 625.26,-342.69 617.52,-335.46 614.7,-341.87"/>
</a>
</g>
</g>
<!-- Node5 -->
<g id="Node000005" class="node">
<title>Node5</title>
<g id="a_Node000005"><a xlink:href="subtreeproxy_8hpp.html" target="_top" xlink:title=" ">
<polygon fill="white" stroke="#666666" points="810.5,-163.5 691.75,-163.5 691.75,-133 810.5,-133 810.5,-163.5"/>
<text text-anchor="start" x="699.75" y="-150" font-family="Helvetica,sans-Serif" font-size="10.00">sourcecode/dbe/include</text>
<text text-anchor="middle" x="751.12" y="-138.75" font-family="Helvetica,sans-Serif" font-size="10.00">/dbe/subtreeproxy.hpp</text>
</a>
</g>
</g>
<!-- Node3&#45;&gt;Node5 -->
<g id="edge6_Node000003_Node000005" class="edge">
<title>Node3&#45;&gt;Node5</title>
<g id="a_edge6_Node000003_Node000005"><a xlink:title=" ">
<path fill="none" stroke="#63b8ff" d="M703.44,-337.13C714.45,-329.37 725.27,-319.53 732.12,-307.75 759.44,-260.8 756.07,-192.83 752.98,-163.55"/>
<polygon fill="#63b8ff" stroke="#63b8ff" points="701.54,-334.19 695.08,-342.59 705.36,-340.06 701.54,-334.19"/>
</a>
</g>
</g>
<!-- Node18 -->
<g id="Node000018" class="node">
<title>Node18</title>
<g id="a_Node000018"><a xlink:href="table_8hpp.html" target="_top" xlink:title=" ">
<polygon fill="white" stroke="#666666" points="723.5,-302.12 604.75,-302.12 604.75,-271.62 723.5,-271.62 723.5,-302.12"/>
<text text-anchor="start" x="612.75" y="-288.62" font-family="Helvetica,sans-Serif" font-size="10.00">sourcecode/dbe/include</text>
<text text-anchor="middle" x="664.12" y="-277.38" font-family="Helvetica,sans-Serif" font-size="10.00">/dbe/table.hpp</text>
</a>
</g>
</g>
<!-- Node3&#45;&gt;Node18 -->
<g id="edge20_Node000003_Node000018" class="edge">
<title>Node3&#45;&gt;Node18</title>
<g id="a_edge20_Node000003_Node000018"><a xlink:title=" ">
<path fill="none" stroke="#63b8ff" d="M664.12,-332.02C664.12,-322.01 664.12,-310.94 664.12,-302.39"/>
<polygon fill="#63b8ff" stroke="#63b8ff" points="660.63,-331.96 664.13,-341.96 667.63,-331.96 660.63,-331.96"/>
</a>
</g>
</g>
<!-- Node21 -->
<g id="Node000021" class="node">
<title>Node21</title>
<g id="a_Node000021"><a xlink:href="tableselection_8hpp.html" target="_top" xlink:title=" ">
<polygon fill="white" stroke="#666666" points="324.5,-230 205.75,-230 205.75,-199.5 324.5,-199.5 324.5,-230"/>
<text text-anchor="start" x="213.75" y="-216.5" font-family="Helvetica,sans-Serif" font-size="10.00">sourcecode/dbe/include</text>
<text text-anchor="middle" x="265.12" y="-205.25" font-family="Helvetica,sans-Serif" font-size="10.00">/dbe/tableselection.hpp</text>
</a>
</g>
</g>
<!-- Node3&#45;&gt;Node21 -->
<g id="edge35_Node000003_Node000021" class="edge">
<title>Node3&#45;&gt;Node21</title>
<g id="a_edge35_Node000003_Node000021"><a xlink:title=" ">
<path fill="none" stroke="#63b8ff" d="M568.73,-357.99C468.86,-355.87 321.09,-346.08 281.12,-307.75 260.18,-287.66 260.7,-250.69 262.91,-230.26"/>
<polygon fill="#63b8ff" stroke="#63b8ff" points="568.48,-361.48 578.54,-358.17 568.61,-354.49 568.48,-361.48"/>
</a>
</g>
</g>
<!-- Node25 -->
<g id="Node000025" class="node">
<title>Node25</title>
<g id="a_Node000025"><a xlink:href="tree_8hpp.html" target="_top" xlink:title=" ">
<polygon fill="white" stroke="#666666" points="1084.5,-163.5 965.75,-163.5 965.75,-133 1084.5,-133 1084.5,-163.5"/>
<text text-anchor="start" x="973.75" y="-150" font-family="Helvetica,sans-Serif" font-size="10.00">sourcecode/dbe/include</text>
<text text-anchor="middle" x="1025.12" y="-138.75" font-family="Helvetica,sans-Serif" font-size="10.00">/dbe/tree.hpp</text>
</a>
</g>
</g>
<!-- Node3&#45;&gt;Node25 -->
<g id="edge36_Node000003_Node000025" class="edge">
<title>Node3&#45;&gt;Node25</title>
<g id="a_edge36_Node000003_Node000025"><a xlink:title=" ">
<path fill="none" stroke="#63b8ff" d="M717.8,-339.25C740.31,-330.67 766.47,-319.74 789.12,-307.75 874.62,-262.49 967.54,-193.63 1006.4,-163.83"/>
<polygon fill="#63b8ff" stroke="#63b8ff" points="716.62,-335.96 708.49,-342.74 719.08,-342.51 716.62,-335.96"/>
</a>
</g>
</g>
<!-- Node28 -->
<g id="Node000028" class="node">
<title>Node28</title>
<g id="a_Node000028"><a xlink:href="treeselection_8hpp.html" target="_top" xlink:title=" ">
<polygon fill="white" stroke="#666666" points="947.5,-163.5 828.75,-163.5 828.75,-133 947.5,-133 947.5,-163.5"/>
<text text-anchor="start" x="836.75" y="-150" font-family="Helvetica,sans-Serif" font-size="10.00">sourcecode/dbe/include</text>
<text text-anchor="middle" x="888.12" y="-138.75" font-family="Helvetica,sans-Serif" font-size="10.00">/dbe/treeselection.hpp</text>
</a>
</g>
</g>
<!-- Node3&#45;&gt;Node28 -->
<g id="edge42_Node000003_Node000028" class="edge">
<title>Node3&#45;&gt;Node28</title>
<g id="a_edge42_Node000003_Node000028"><a xlink:title=" ">
<path fill="none" stroke="#63b8ff" d="M706.73,-338.25C722.43,-329.97 739.85,-319.51 754.12,-307.75 808.64,-262.84 858.23,-193.79 878.48,-163.89"/>
<polygon fill="#63b8ff" stroke="#63b8ff" points="705.37,-335.02 698.06,-342.69 708.56,-341.25 705.37,-335.02"/>
</a>
</g>
</g>
<!-- Node29 -->
<g id="Node000029" class="node">
<title>Node29</title>
<g id="a_Node000029"><a xlink:href="model__common__interface_8cpp.html" target="_top" xlink:title=" ">
<polygon fill="white" stroke="#666666" points="419.75,-307.75 290.5,-307.75 290.5,-266 419.75,-266 419.75,-307.75"/>
<text text-anchor="start" x="298.5" y="-294.25" font-family="Helvetica,sans-Serif" font-size="10.00">sourcecode/dbe/src</text>
<text text-anchor="start" x="298.5" y="-283" font-family="Helvetica,sans-Serif" font-size="10.00">/structure/model_common</text>
<text text-anchor="middle" x="355.12" y="-271.75" font-family="Helvetica,sans-Serif" font-size="10.00">_interface.cpp</text>
</a>
</g>
</g>
<!-- Node3&#45;&gt;Node29 -->
<g id="edge46_Node000003_Node000029" class="edge">
<title>Node3&#45;&gt;Node29</title>
<g id="a_edge46_Node000003_Node000029"><a xlink:title=" ">
<path fill="none" stroke="#63b8ff" d="M578.57,-340.99C533.64,-331.75 477.76,-319.78 428.12,-307.75 425.44,-307.1 422.71,-306.42 419.96,-305.73"/>
<polygon fill="#63b8ff" stroke="#63b8ff" points="577.76,-344.39 588.26,-342.97 579.17,-337.54 577.76,-344.39"/>
</a>
</g>
</g>
<!-- Node4&#45;&gt;Node3 -->
<g id="edge4_Node000004_Node000003" class="edge">
<title>Node4&#45;&gt;Node3</title>
<g id="a_edge4_Node000004_Node000003"><a xlink:title=" ">
<path fill="none" stroke="#63b8ff" d="M572.5,-312.74C595.2,-322.96 619.82,-334.45 637.88,-343.3"/>
<polygon fill="#63b8ff" stroke="#63b8ff" points="574.18,-309.65 563.62,-308.76 571.32,-316.04 574.18,-309.65"/>
</a>
</g>
</g>
<!-- Node6 -->
<g id="Node000006" class="node">
<title>Node6</title>
<g id="a_Node000006"><a xlink:href="MainWindow_8hpp.html" target="_top" xlink:title=" ">
<polygon fill="white" stroke="#666666" points="723.5,-97 604.75,-97 604.75,-66.5 723.5,-66.5 723.5,-97"/>
<text text-anchor="start" x="612.75" y="-83.5" font-family="Helvetica,sans-Serif" font-size="10.00">sourcecode/dbe/include</text>
<text text-anchor="middle" x="664.12" y="-72.25" font-family="Helvetica,sans-Serif" font-size="10.00">/dbe/MainWindow.hpp</text>
</a>
</g>
</g>
<!-- Node5&#45;&gt;Node6 -->
<g id="edge7_Node000005_Node000006" class="edge">
<title>Node5&#45;&gt;Node6</title>
<g id="a_edge7_Node000005_Node000006"><a xlink:title=" ">
<path fill="none" stroke="#63b8ff" d="M722.18,-125.79C709.57,-116.44 695.12,-105.73 683.79,-97.33"/>
<polygon fill="#63b8ff" stroke="#63b8ff" points="720.05,-128.57 730.17,-131.71 724.22,-122.95 720.05,-128.57"/>
</a>
</g>
</g>
<!-- Node10 -->
<g id="Node000010" class="node">
<title>Node10</title>
<g id="a_Node000010"><a xlink:href="MainWindow_8cpp.html" target="_top" xlink:title=" ">
<polygon fill="white" stroke="#666666" points="1050.62,-30.5 923.62,-30.5 923.62,0 1050.62,0 1050.62,-30.5"/>
<text text-anchor="start" x="931.62" y="-17" font-family="Helvetica,sans-Serif" font-size="10.00">sourcecode/dbe/src</text>
<text text-anchor="middle" x="987.12" y="-5.75" font-family="Helvetica,sans-Serif" font-size="10.00">/internal/MainWindow.cpp</text>
</a>
</g>
</g>
<!-- Node5&#45;&gt;Node10 -->
<g id="edge17_Node000005_Node000010" class="edge">
<title>Node5&#45;&gt;Node10</title>
<g id="a_edge17_Node000005_Node000010"><a xlink:title=" ">
<path fill="none" stroke="#63b8ff" d="M750.5,-121.21C751.51,-103.47 755.87,-80.71 770.12,-66.5 775.68,-60.96 861.36,-42.26 923.37,-29.3"/>
<polygon fill="#63b8ff" stroke="#63b8ff" points="747.01,-120.93 750.29,-131.01 754,-121.09 747.01,-120.93"/>
</a>
</g>
</g>
<!-- Node16 -->
<g id="Node000016" class="node">
<title>Node16</title>
<g id="a_Node000016"><a xlink:href="CustomTreeView_8cpp.html" target="_top" xlink:title=" ">
<polygon fill="white" stroke="#666666" points="932.75,-97 779.5,-97 779.5,-66.5 932.75,-66.5 932.75,-97"/>
<text text-anchor="start" x="787.5" y="-83.5" font-family="Helvetica,sans-Serif" font-size="10.00">sourcecode/dbe/src</text>
<text text-anchor="middle" x="856.12" y="-72.25" font-family="Helvetica,sans-Serif" font-size="10.00">/structure/CustomTreeView.cpp</text>
</a>
</g>
</g>
<!-- Node5&#45;&gt;Node16 -->
<g id="edge18_Node000005_Node000016" class="edge">
<title>Node5&#45;&gt;Node16</title>
<g id="a_edge18_Node000005_Node000016"><a xlink:title=" ">
<path fill="none" stroke="#63b8ff" d="M784.72,-126.61C800.24,-117.08 818.31,-105.98 832.39,-97.33"/>
<polygon fill="#63b8ff" stroke="#63b8ff" points="782.93,-123.61 776.24,-131.82 786.59,-129.57 782.93,-123.61"/>
</a>
</g>
</g>
<!-- Node17 -->
<g id="Node000017" class="node">
<title>Node17</title>
<g id="a_Node000017"><a xlink:href="subtreeproxy_8cpp.html" target="_top" xlink:title=" ">
<polygon fill="white" stroke="#666666" points="1083.62,-97 950.62,-97 950.62,-66.5 1083.62,-66.5 1083.62,-97"/>
<text text-anchor="start" x="958.62" y="-83.5" font-family="Helvetica,sans-Serif" font-size="10.00">sourcecode/dbe/src</text>
<text text-anchor="middle" x="1017.12" y="-72.25" font-family="Helvetica,sans-Serif" font-size="10.00">/structure/subtreeproxy.cpp</text>
</a>
</g>
</g>
<!-- Node5&#45;&gt;Node17 -->
<g id="edge19_Node000005_Node000017" class="edge">
<title>Node5&#45;&gt;Node17</title>
<g id="a_edge19_Node000005_Node000017"><a xlink:title=" ">
<path fill="none" stroke="#63b8ff" d="M821.82,-130.11C863.85,-119.92 916.62,-107.12 956.71,-97.4"/>
<polygon fill="#63b8ff" stroke="#63b8ff" points="821.19,-126.66 812.29,-132.42 822.83,-133.46 821.19,-126.66"/>
</a>
</g>
</g>
<!-- Node7 -->
<g id="Node000007" class="node">
<title>Node7</title>
<g id="a_Node000007"><a xlink:href="Main_8cpp.html" target="_top" xlink:title=" ">
<polygon fill="white" stroke="#666666" points="586.62,-30.5 477.62,-30.5 477.62,0 586.62,0 586.62,-30.5"/>
<text text-anchor="start" x="485.62" y="-17" font-family="Helvetica,sans-Serif" font-size="10.00">sourcecode/dbe/apps</text>
<text text-anchor="middle" x="532.12" y="-5.75" font-family="Helvetica,sans-Serif" font-size="10.00">/Main.cpp</text>
</a>
</g>
</g>
<!-- Node6&#45;&gt;Node7 -->
<g id="edge8_Node000006_Node000007" class="edge">
<title>Node6&#45;&gt;Node7</title>
<g id="a_edge8_Node000006_Node000007"><a xlink:title=" ">
<path fill="none" stroke="#63b8ff" d="M623.83,-61.06C603.9,-51.32 580.25,-39.76 561.96,-30.83"/>
<polygon fill="#63b8ff" stroke="#63b8ff" points="622.29,-64.2 632.81,-65.45 625.36,-57.91 622.29,-64.2"/>
</a>
</g>
</g>
<!-- Node8 -->
<g id="Node000008" class="node">
<title>Node8</title>
<g id="a_Node000008"><a xlink:href="TableTab_8cpp.html" target="_top" xlink:title=" ">
<polygon fill="white" stroke="#666666" points="459.88,-30.5 358.38,-30.5 358.38,0 459.88,0 459.88,-30.5"/>
<text text-anchor="start" x="366.38" y="-17" font-family="Helvetica,sans-Serif" font-size="10.00">sourcecode/dbe/src</text>
<text text-anchor="middle" x="409.12" y="-5.75" font-family="Helvetica,sans-Serif" font-size="10.00">/TableTab.cpp</text>
</a>
</g>
</g>
<!-- Node6&#45;&gt;Node8 -->
<g id="edge9_Node000006_Node000008" class="edge">
<title>Node6&#45;&gt;Node8</title>
<g id="a_edge9_Node000006_Node000008"><a xlink:title=" ">
<path fill="none" stroke="#63b8ff" d="M594.83,-63.22C552.31,-52.47 498.8,-38.93 460.15,-29.16"/>
<polygon fill="#63b8ff" stroke="#63b8ff" points="593.92,-66.6 604.48,-65.66 595.64,-59.82 593.92,-66.6"/>
</a>
</g>
</g>
<!-- Node6&#45;&gt;Node9 -->
<g id="edge10_Node000006_Node000009" class="edge">
<title>Node6&#45;&gt;Node9</title>
<g id="a_edge10_Node000006_Node000009"><a xlink:title=" ">
<path fill="none" stroke="#63b8ff" d="M734.95,-71.13C746.7,-69.56 758.75,-67.97 770.12,-66.5 898.93,-49.85 931.72,-50.04 1060.12,-30.5 1065.09,-29.75 1070.21,-28.92 1075.36,-28.06"/>
<polygon fill="#63b8ff" stroke="#63b8ff" points="734.76,-67.62 725.32,-72.42 735.69,-74.56 734.76,-67.62"/>
</a>
</g>
</g>
<!-- Node6&#45;&gt;Node10 -->
<g id="edge11_Node000006_Node000010" class="edge">
<title>Node6&#45;&gt;Node10</title>
<g id="a_edge11_Node000006_Node000010"><a xlink:title=" ">
<path fill="none" stroke="#63b8ff" d="M735.03,-66.59C791.17,-55.38 868.9,-39.86 923.15,-29.02"/>
<polygon fill="#63b8ff" stroke="#63b8ff" points="734.35,-63.16 725.23,-68.55 735.72,-70.02 734.35,-63.16"/>
</a>
</g>
</g>
<!-- Node11 -->
<g id="Node000011" class="node">
<title>Node11</title>
<g id="a_Node000011"><a xlink:href="CustomTableView_8cpp.html" target="_top" xlink:title=" ">
<polygon fill="white" stroke="#666666" points="340,-30.5 182.25,-30.5 182.25,0 340,0 340,-30.5"/>
<text text-anchor="start" x="190.25" y="-17" font-family="Helvetica,sans-Serif" font-size="10.00">sourcecode/dbe/src</text>
<text text-anchor="middle" x="261.12" y="-5.75" font-family="Helvetica,sans-Serif" font-size="10.00">/structure/CustomTableView.cpp</text>
</a>
</g>
</g>
<!-- Node6&#45;&gt;Node11 -->
<g id="edge12_Node000006_Node000011" class="edge">
<title>Node6&#45;&gt;Node11</title>
<g id="a_edge12_Node000006_Node000011"><a xlink:title=" ">
<path fill="none" stroke="#63b8ff" d="M593.18,-69.48C529.33,-59.33 432.94,-43.97 349.12,-30.5 346.22,-30.03 343.26,-29.56 340.28,-29.08"/>
<polygon fill="#63b8ff" stroke="#63b8ff" points="592.4,-72.9 602.82,-71.01 593.5,-65.99 592.4,-72.9"/>
</a>
</g>
</g>
<!-- Node12 -->
<g id="Node000012" class="node">
<title>Node12</title>
<g id="a_Node000012"><a xlink:href="FileModel_8cpp.html" target="_top" xlink:title=" ">
<polygon fill="white" stroke="#666666" points="725.25,-30.5 605,-30.5 605,0 725.25,0 725.25,-30.5"/>
<text text-anchor="start" x="613" y="-17" font-family="Helvetica,sans-Serif" font-size="10.00">sourcecode/dbe/src</text>
<text text-anchor="middle" x="665.12" y="-5.75" font-family="Helvetica,sans-Serif" font-size="10.00">/structure/FileModel.cpp</text>
</a>
</g>
</g>
<!-- Node6&#45;&gt;Node12 -->
<g id="edge13_Node000006_Node000012" class="edge">
<title>Node6&#45;&gt;Node12</title>
<g id="a_edge13_Node000006_Node000012"><a xlink:title=" ">
<path fill="none" stroke="#63b8ff" d="M664.53,-54.81C664.65,-46.64 664.79,-37.91 664.9,-30.83"/>
<polygon fill="#63b8ff" stroke="#63b8ff" points="661.03,-54.55 664.38,-64.6 668.03,-54.66 661.03,-54.55"/>
</a>
</g>
</g>
<!-- Node13 -->
<g id="Node000013" class="node">
<title>Node13</title>
<g id="a_Node000013"><a xlink:href="BatchChangeWidget_8cpp.html" target="_top" xlink:title=" ">
<polygon fill="white" stroke="#666666" points="905.25,-30.5 743,-30.5 743,0 905.25,0 905.25,-30.5"/>
<text text-anchor="start" x="751" y="-17" font-family="Helvetica,sans-Serif" font-size="10.00">sourcecode/dbe/src</text>
<text text-anchor="middle" x="824.12" y="-5.75" font-family="Helvetica,sans-Serif" font-size="10.00">/widgets/BatchChangeWidget.cpp</text>
</a>
</g>
</g>
<!-- Node6&#45;&gt;Node13 -->
<g id="edge14_Node000006_Node000013" class="edge">
<title>Node6&#45;&gt;Node13</title>
<g id="a_edge14_Node000006_Node000013"><a xlink:title=" ">
<path fill="none" stroke="#63b8ff" d="M710.93,-61.88C735.41,-52.01 764.93,-40.11 787.69,-30.94"/>
<polygon fill="#63b8ff" stroke="#63b8ff" points="709.8,-58.56 701.84,-65.55 712.42,-65.06 709.8,-58.56"/>
</a>
</g>
</g>
<!-- Node6&#45;&gt;Node14 -->
<g id="edge15_Node000006_Node000014" class="edge">
<title>Node6&#45;&gt;Node14</title>
<g id="a_edge15_Node000006_Node000014"><a xlink:title=" ">
<path fill="none" stroke="#63b8ff" d="M734.9,-70.71C746.65,-69.2 758.72,-67.73 770.12,-66.5 966.08,-45.36 1016.49,-54.45 1212.12,-30.5 1215.77,-30.05 1219.5,-29.57 1223.26,-29.05"/>
<polygon fill="#63b8ff" stroke="#63b8ff" points="734.72,-67.21 725.26,-71.98 735.63,-74.15 734.72,-67.21"/>
</a>
</g>
</g>
<!-- Node6&#45;&gt;Node15 -->
<g id="edge16_Node000006_Node000015" class="edge">
<title>Node6&#45;&gt;Node15</title>
<g id="a_edge16_Node000006_Node000015"><a xlink:title=" ">
<path fill="none" stroke="#63b8ff" d="M734.88,-70.49C746.63,-69 758.71,-67.6 770.12,-66.5 1042.22,-40.27 1112.88,-64.42 1384.12,-30.5 1387.5,-30.08 1390.95,-29.59 1394.43,-29.07"/>
<polygon fill="#63b8ff" stroke="#63b8ff" points="734.7,-66.98 725.24,-71.74 735.61,-73.92 734.7,-66.98"/>
</a>
</g>
</g>
<!-- Node18&#45;&gt;Node6 -->
<g id="edge26_Node000018_Node000006" class="edge">
<title>Node18&#45;&gt;Node6</title>
<g id="a_edge26_Node000018_Node000006"><a xlink:title=" ">
<path fill="none" stroke="#63b8ff" d="M664.12,-259.79C664.12,-216.61 664.12,-131.67 664.12,-97.5"/>
<polygon fill="#63b8ff" stroke="#63b8ff" points="660.63,-259.75 664.13,-269.75 667.63,-259.75 660.63,-259.75"/>
</a>
</g>
</g>
<!-- Node19 -->
<g id="Node000019" class="node">
<title>Node19</title>
<g id="a_Node000019"><a xlink:href="CustomTableView_8hpp.html" target="_top" xlink:title=" ">
<polygon fill="white" stroke="#666666" points="477.75,-230 342.5,-230 342.5,-199.5 477.75,-199.5 477.75,-230"/>
<text text-anchor="start" x="350.5" y="-216.5" font-family="Helvetica,sans-Serif" font-size="10.00">sourcecode/dbe/include</text>
<text text-anchor="middle" x="410.12" y="-205.25" font-family="Helvetica,sans-Serif" font-size="10.00">/dbe/CustomTableView.hpp</text>
</a>
</g>
</g>
<!-- Node18&#45;&gt;Node19 -->
<g id="edge21_Node000018_Node000019" class="edge">
<title>Node18&#45;&gt;Node19</title>
<g id="a_edge21_Node000018_Node000019"><a xlink:title=" ">
<path fill="none" stroke="#63b8ff" d="M603.46,-268.08C600.98,-267.37 598.53,-266.68 596.12,-266 552.33,-253.69 502.58,-240.27 465.55,-230.41"/>
<polygon fill="#63b8ff" stroke="#63b8ff" points="602.36,-271.4 612.94,-270.79 604.29,-264.67 602.36,-271.4"/>
</a>
</g>
</g>
<!-- Node20 -->
<g id="Node000020" class="node">
<title>Node20</title>
<g id="a_Node000020"><a xlink:href="TableTab_8hpp.html" target="_top" xlink:title=" ">
<polygon fill="white" stroke="#666666" points="556.5,-163.5 437.75,-163.5 437.75,-133 556.5,-133 556.5,-163.5"/>
<text text-anchor="start" x="445.75" y="-150" font-family="Helvetica,sans-Serif" font-size="10.00">sourcecode/dbe/include</text>
<text text-anchor="middle" x="497.12" y="-138.75" font-family="Helvetica,sans-Serif" font-size="10.00">/dbe/TableTab.hpp</text>
</a>
</g>
</g>
<!-- Node18&#45;&gt;Node20 -->
<g id="edge27_Node000018_Node000020" class="edge">
<title>Node18&#45;&gt;Node20</title>
<g id="a_edge27_Node000018_Node000020"><a xlink:title=" ">
<path fill="none" stroke="#63b8ff" d="M604.93,-267.56C572.6,-256.52 536.81,-242.27 525.12,-230 507.62,-211.63 501.01,-181.77 498.55,-163.97"/>
<polygon fill="#63b8ff" stroke="#63b8ff" points="603.7,-270.83 614.29,-270.69 605.92,-264.2 603.7,-270.83"/>
</a>
</g>
</g>
<!-- Node18&#45;&gt;Node21 -->
<g id="edge28_Node000018_Node000021" class="edge">
<title>Node18&#45;&gt;Node21</title>
<g id="a_edge28_Node000018_Node000021"><a xlink:title=" ">
<path fill="none" stroke="#63b8ff" d="M606.26,-268.34C602.84,-267.5 599.45,-266.71 596.12,-266 480.74,-241.38 449.38,-250.11 333.12,-230 330.39,-229.53 327.6,-229.02 324.78,-228.5"/>
<polygon fill="#63b8ff" stroke="#63b8ff" points="605.14,-271.66 615.7,-270.79 606.9,-264.89 605.14,-271.66"/>
</a>
</g>
</g>
<!-- Node24 -->
<g id="Node000024" class="node">
<title>Node24</title>
<g id="a_Node000024"><a xlink:href="table_8cpp.html" target="_top" xlink:title=" ">
<polygon fill="white" stroke="#666666" points="635.88,-230 534.38,-230 534.38,-199.5 635.88,-199.5 635.88,-230"/>
<text text-anchor="start" x="542.38" y="-216.5" font-family="Helvetica,sans-Serif" font-size="10.00">sourcecode/dbe/src</text>
<text text-anchor="middle" x="585.12" y="-205.25" font-family="Helvetica,sans-Serif" font-size="10.00">/structure/table.cpp</text>
</a>
</g>
</g>
<!-- Node18&#45;&gt;Node24 -->
<g id="edge34_Node000018_Node000024" class="edge">
<title>Node18&#45;&gt;Node24</title>
<g id="a_edge34_Node000018_Node000024"><a xlink:title=" ">
<path fill="none" stroke="#63b8ff" d="M639.25,-263.8C626.92,-252.85 612.38,-239.94 601.47,-230.26"/>
<polygon fill="#63b8ff" stroke="#63b8ff" points="636.82,-266.32 646.62,-270.34 641.47,-261.08 636.82,-266.32"/>
</a>
</g>
</g>
<!-- Node19&#45;&gt;Node11 -->
<g id="edge25_Node000019_Node000011" class="edge">
<title>Node19&#45;&gt;Node11</title>
<g id="a_edge25_Node000019_Node000011"><a xlink:title=" ">
<path fill="none" stroke="#63b8ff" d="M393.85,-190.01C382.62,-173.79 367.23,-151.91 353.12,-133 325.19,-95.56 290.77,-52.7 273,-30.8"/>
<polygon fill="#63b8ff" stroke="#63b8ff" points="390.84,-191.8 399.4,-198.05 396.6,-187.83 390.84,-191.8"/>
</a>
</g>
</g>
<!-- Node19&#45;&gt;Node20 -->
<g id="edge22_Node000019_Node000020" class="edge">
<title>Node19&#45;&gt;Node20</title>
<g id="a_edge22_Node000019_Node000020"><a xlink:title=" ">
<path fill="none" stroke="#63b8ff" d="M439.07,-192.29C451.68,-182.94 466.13,-172.23 477.46,-163.83"/>
<polygon fill="#63b8ff" stroke="#63b8ff" points="437.03,-189.45 431.08,-198.21 441.2,-195.07 437.03,-189.45"/>
</a>
</g>
</g>
<!-- Node20&#45;&gt;Node6 -->
<g id="edge23_Node000020_Node000006" class="edge">
<title>Node20&#45;&gt;Node6</title>
<g id="a_edge23_Node000020_Node000006"><a xlink:title=" ">
<path fill="none" stroke="#63b8ff" d="M545.63,-128.51C571.25,-118.62 602.23,-106.65 626.09,-97.44"/>
<polygon fill="#63b8ff" stroke="#63b8ff" points="544.5,-125.2 536.43,-132.07 547.02,-131.73 544.5,-125.2"/>
</a>
</g>
</g>
<!-- Node20&#45;&gt;Node8 -->
<g id="edge24_Node000020_Node000008" class="edge">
<title>Node20&#45;&gt;Node8</title>
<g id="a_edge24_Node000020_Node000008"><a xlink:title=" ">
<path fill="none" stroke="#63b8ff" d="M480.99,-123.24C462.85,-96.22 433.95,-53.2 418.92,-30.83"/>
<polygon fill="#63b8ff" stroke="#63b8ff" points="478.05,-125.12 486.53,-131.47 483.86,-121.22 478.05,-125.12"/>
</a>
</g>
</g>
<!-- Node21&#45;&gt;Node6 -->
<g id="edge29_Node000021_Node000006" class="edge">
<title>Node21&#45;&gt;Node6</title>
<g id="a_edge29_Node000021_Node000006"><a xlink:title=" ">
<path fill="none" stroke="#63b8ff" d="M299.74,-193.56C332.2,-175.4 382.59,-149.15 429.12,-133 487.26,-112.82 556.42,-99.21 604.6,-91.3"/>
<polygon fill="#63b8ff" stroke="#63b8ff" points="298.15,-190.44 291.17,-198.41 301.6,-196.53 298.15,-190.44"/>
</a>
</g>
</g>
<!-- Node21&#45;&gt;Node11 -->
<g id="edge32_Node000021_Node000011" class="edge">
<title>Node21&#45;&gt;Node11</title>
<g id="a_edge32_Node000021_Node000011"><a xlink:title=" ">
<path fill="none" stroke="#63b8ff" d="M224.39,-192.97C213.53,-185.28 203.16,-175.46 197.12,-163.5 173.15,-115.97 220.57,-57.39 246.2,-30.71"/>
<polygon fill="#63b8ff" stroke="#63b8ff" points="222.39,-195.84 232.68,-198.34 226.19,-189.97 222.39,-195.84"/>
</a>
</g>
</g>
<!-- Node21&#45;&gt;Node20 -->
<g id="edge30_Node000021_Node000020" class="edge">
<title>Node21&#45;&gt;Node20</title>
<g id="a_edge30_Node000021_Node000020"><a xlink:title=" ">
<path fill="none" stroke="#63b8ff" d="M329.02,-195.99C365.3,-185.9 410.17,-173.43 444.42,-163.9"/>
<polygon fill="#63b8ff" stroke="#63b8ff" points="328.21,-192.58 319.52,-198.63 330.09,-199.32 328.21,-192.58"/>
</a>
</g>
</g>
<!-- Node22 -->
<g id="Node000022" class="node">
<title>Node22</title>
<g id="a_Node000022"><a xlink:href="CustomDelegate_8cpp.html" target="_top" xlink:title=" ">
<polygon fill="white" stroke="#666666" points="150.25,-163.5 0,-163.5 0,-133 150.25,-133 150.25,-163.5"/>
<text text-anchor="start" x="8" y="-150" font-family="Helvetica,sans-Serif" font-size="10.00">sourcecode/dbe/src</text>
<text text-anchor="middle" x="75.12" y="-138.75" font-family="Helvetica,sans-Serif" font-size="10.00">/structure/CustomDelegate.cpp</text>
</a>
</g>
</g>
<!-- Node21&#45;&gt;Node22 -->
<g id="edge31_Node000021_Node000022" class="edge">
<title>Node21&#45;&gt;Node22</title>
<g id="a_edge31_Node000021_Node000022"><a xlink:title=" ">
<path fill="none" stroke="#63b8ff" d="M211.49,-195.54C182.05,-185.55 146.02,-173.32 118.4,-163.94"/>
<polygon fill="#63b8ff" stroke="#63b8ff" points="209.98,-198.73 220.58,-198.63 212.23,-192.1 209.98,-198.73"/>
</a>
</g>
</g>
<!-- Node23 -->
<g id="Node000023" class="node">
<title>Node23</title>
<g id="a_Node000023"><a xlink:href="tableselection_8cpp.html" target="_top" xlink:title=" ">
<polygon fill="white" stroke="#666666" points="344.25,-163.5 206,-163.5 206,-133 344.25,-133 344.25,-163.5"/>
<text text-anchor="start" x="214" y="-150" font-family="Helvetica,sans-Serif" font-size="10.00">sourcecode/dbe/src</text>
<text text-anchor="middle" x="275.12" y="-138.75" font-family="Helvetica,sans-Serif" font-size="10.00">/structure/tableselection.cpp</text>
</a>
</g>
</g>
<!-- Node21&#45;&gt;Node23 -->
<g id="edge33_Node000021_Node000023" class="edge">
<title>Node21&#45;&gt;Node23</title>
<g id="a_edge33_Node000021_Node000023"><a xlink:title=" ">
<path fill="none" stroke="#63b8ff" d="M269.15,-187.81C270.41,-179.64 271.77,-170.91 272.86,-163.83"/>
<polygon fill="#63b8ff" stroke="#63b8ff" points="265.7,-187.2 267.63,-197.62 272.62,-188.27 265.7,-187.2"/>
</a>
</g>
</g>
<!-- Node25&#45;&gt;Node6 -->
<g id="edge37_Node000025_Node000006" class="edge">
<title>Node25&#45;&gt;Node6</title>
<g id="a_edge37_Node000025_Node000006"><a xlink:title=" ">
<path fill="none" stroke="#63b8ff" d="M954.03,-132.64C868.14,-116.51 780.4,-101.73 723.79,-92.42"/>
<polygon fill="#63b8ff" stroke="#63b8ff" points="953.35,-136.07 963.82,-134.49 954.65,-129.2 953.35,-136.07"/>
</a>
</g>
</g>
<!-- Node25&#45;&gt;Node16 -->
<g id="edge38_Node000025_Node000016" class="edge">
<title>Node25&#45;&gt;Node16</title>
<g id="a_edge38_Node000025_Node000016"><a xlink:title=" ">
<path fill="none" stroke="#63b8ff" d="M976.04,-128.51C950.11,-118.62 918.76,-106.65 894.61,-97.44"/>
<polygon fill="#63b8ff" stroke="#63b8ff" points="974.77,-131.78 985.36,-132.07 977.27,-125.24 974.77,-131.78"/>
</a>
</g>
</g>
<!-- Node25&#45;&gt;Node17 -->
<g id="edge39_Node000025_Node000017" class="edge">
<title>Node25&#45;&gt;Node17</title>
<g id="a_edge39_Node000025_Node000017"><a xlink:title=" ">
<path fill="none" stroke="#63b8ff" d="M1021.91,-121.31C1020.89,-113.14 1019.81,-104.41 1018.93,-97.33"/>
<polygon fill="#63b8ff" stroke="#63b8ff" points="1018.42,-121.62 1023.12,-131.11 1025.37,-120.76 1018.42,-121.62"/>
</a>
</g>
</g>
<!-- Node26 -->
<g id="Node000026" class="node">
<title>Node26</title>
<g id="a_Node000026"><a xlink:href="tree_8cpp.html" target="_top" xlink:title=" ">
<polygon fill="white" stroke="#666666" points="1354.88,-97 1253.38,-97 1253.38,-66.5 1354.88,-66.5 1354.88,-97"/>
<text text-anchor="start" x="1261.38" y="-83.5" font-family="Helvetica,sans-Serif" font-size="10.00">sourcecode/dbe/src</text>
<text text-anchor="middle" x="1304.12" y="-72.25" font-family="Helvetica,sans-Serif" font-size="10.00">/structure/tree.cpp</text>
</a>
</g>
</g>
<!-- Node25&#45;&gt;Node26 -->
<g id="edge40_Node000025_Node000026" class="edge">
<title>Node25&#45;&gt;Node26</title>
<g id="a_edge40_Node000025_Node000026"><a xlink:title=" ">
<path fill="none" stroke="#63b8ff" d="M1095.82,-131.17C1138.74,-121.38 1194.61,-108.56 1244.12,-97 1247.04,-96.32 1250.04,-95.62 1253.07,-94.9"/>
<polygon fill="#63b8ff" stroke="#63b8ff" points="1095.09,-127.75 1086.12,-133.39 1096.64,-134.57 1095.09,-127.75"/>
</a>
</g>
</g>
<!-- Node27 -->
<g id="Node000027" class="node">
<title>Node27</title>
<g id="a_Node000027"><a xlink:href="treeselection_8cpp.html" target="_top" xlink:title=" ">
<polygon fill="white" stroke="#666666" points="1235,-97 1101.25,-97 1101.25,-66.5 1235,-66.5 1235,-97"/>
<text text-anchor="start" x="1109.25" y="-83.5" font-family="Helvetica,sans-Serif" font-size="10.00">sourcecode/dbe/src</text>
<text text-anchor="middle" x="1168.12" y="-72.25" font-family="Helvetica,sans-Serif" font-size="10.00">/structure/treeselection.cpp</text>
</a>
</g>
</g>
<!-- Node25&#45;&gt;Node27 -->
<g id="edge41_Node000025_Node000027" class="edge">
<title>Node25&#45;&gt;Node27</title>
<g id="a_edge41_Node000025_Node000027"><a xlink:title=" ">
<path fill="none" stroke="#63b8ff" d="M1067.88,-127.97C1089.66,-118.14 1115.72,-106.39 1135.8,-97.33"/>
<polygon fill="#63b8ff" stroke="#63b8ff" points="1066.63,-124.69 1058.95,-131.99 1069.51,-131.07 1066.63,-124.69"/>
</a>
</g>
</g>
<!-- Node28&#45;&gt;Node6 -->
<g id="edge43_Node000028_Node000006" class="edge">
<title>Node28&#45;&gt;Node6</title>
<g id="a_edge43_Node000028_Node000006"><a xlink:title=" ">
<path fill="none" stroke="#63b8ff" d="M825.98,-129.35C791.03,-119.29 747.94,-106.89 715.01,-97.4"/>
<polygon fill="#63b8ff" stroke="#63b8ff" points="824.98,-132.71 835.56,-132.11 826.92,-125.98 824.98,-132.71"/>
</a>
</g>
</g>
<!-- Node28&#45;&gt;Node16 -->
<g id="edge44_Node000028_Node000016" class="edge">
<title>Node28&#45;&gt;Node16</title>
<g id="a_edge44_Node000028_Node000016"><a xlink:title=" ">
<path fill="none" stroke="#63b8ff" d="M875.82,-122.44C871.61,-113.96 867.04,-104.74 863.36,-97.33"/>
<polygon fill="#63b8ff" stroke="#63b8ff" points="872.61,-123.86 880.19,-131.26 878.88,-120.74 872.61,-123.86"/>
</a>
</g>
</g>
<!-- Node28&#45;&gt;Node27 -->
<g id="edge45_Node000028_Node000027" class="edge">
<title>Node28&#45;&gt;Node27</title>
<g id="a_edge45_Node000028_Node000027"><a xlink:title=" ">
<path fill="none" stroke="#63b8ff" d="M958.92,-130.94C1003.58,-120.65 1060.8,-107.47 1104.11,-97.5"/>
<polygon fill="#63b8ff" stroke="#63b8ff" points="958.28,-127.5 949.32,-133.15 959.85,-134.32 958.28,-127.5"/>
</a>
</g>
</g>
</g>
</svg>
