<?xml version="1.0" encoding="UTF-8" standalone="no"?>
<!DOCTYPE svg PUBLIC "-//W3C//DTD SVG 1.1//EN"
 "http://www.w3.org/Graphics/SVG/1.1/DTD/svg11.dtd">
<!-- Generated by graphviz version 9.0.0 (20230911.1827)
 -->
<!-- Title: sourcecode/dbe/include/dbe/config_api_set.hpp Pages: 1 -->
<svg width="1530pt" height="249pt"
 viewBox="0.00 0.00 1530.25 249.25" xmlns="http://www.w3.org/2000/svg" xmlns:xlink="http://www.w3.org/1999/xlink">
<g id="graph0" class="graph" transform="scale(1 1) rotate(0) translate(4 245.25)">
<title>sourcecode/dbe/include/dbe/config_api_set.hpp</title>
<!-- Node1 -->
<g id="Node000001" class="node">
<title>Node1</title>
<g id="a_Node000001"><a xlink:title=" ">
<polygon fill="#999999" stroke="#666666" points="828.75,-241.25 710,-241.25 710,-210.75 828.75,-210.75 828.75,-241.25"/>
<text text-anchor="start" x="718" y="-227.75" font-family="Helvetica,sans-Serif" font-size="10.00">sourcecode/dbe/include</text>
<text text-anchor="middle" x="769.38" y="-216.5" font-family="Helvetica,sans-Serif" font-size="10.00">/dbe/config_api_set.hpp</text>
</a>
</g>
</g>
<!-- Node2 -->
<g id="Node000002" class="node">
<title>Node2</title>
<g id="a_Node000002"><a xlink:href="change__attribute_8hpp.html" target="_top" xlink:title=" ">
<polygon fill="white" stroke="#666666" points="624.25,-174.75 496.5,-174.75 496.5,-144.25 624.25,-144.25 624.25,-174.75"/>
<text text-anchor="start" x="504.5" y="-161.25" font-family="Helvetica,sans-Serif" font-size="10.00">sourcecode/dbe/include</text>
<text text-anchor="middle" x="560.38" y="-150" font-family="Helvetica,sans-Serif" font-size="10.00">/dbe/change_attribute.hpp</text>
</a>
</g>
</g>
<!-- Node1&#45;&gt;Node2 -->
<g id="edge1_Node000001_Node000002" class="edge">
<title>Node1&#45;&gt;Node2</title>
<g id="a_edge1_Node000001_Node000002"><a xlink:title=" ">
<path fill="none" stroke="#63b8ff" d="M710.97,-206.97C678.43,-196.93 638.45,-184.59 607.86,-175.15"/>
<polygon fill="#63b8ff" stroke="#63b8ff" points="709.65,-210.23 720.24,-209.84 711.72,-203.54 709.65,-210.23"/>
</a>
</g>
</g>
<!-- Node3 -->
<g id="Node000003" class="node">
<title>Node3</title>
<g id="a_Node000003"><a xlink:href="config__api_8hpp.html" target="_top" xlink:title=" ">
<polygon fill="white" stroke="#666666" points="741.75,-108.25 623,-108.25 623,-77.75 741.75,-77.75 741.75,-108.25"/>
<text text-anchor="start" x="631" y="-94.75" font-family="Helvetica,sans-Serif" font-size="10.00">sourcecode/dbe/include</text>
<text text-anchor="middle" x="682.38" y="-83.5" font-family="Helvetica,sans-Serif" font-size="10.00">/dbe/config_api.hpp</text>
</a>
</g>
</g>
<!-- Node1&#45;&gt;Node3 -->
<g id="edge25_Node000001_Node000003" class="edge">
<title>Node1&#45;&gt;Node3</title>
<g id="a_edge25_Node000001_Node000003"><a xlink:title=" ">
<path fill="none" stroke="#63b8ff" d="M753.43,-200.99C735.49,-173.97 706.92,-130.95 692.06,-108.58"/>
<polygon fill="#63b8ff" stroke="#63b8ff" points="750.45,-202.83 758.89,-209.22 756.28,-198.95 750.45,-202.83"/>
</a>
</g>
</g>
<!-- Node10 -->
<g id="Node000010" class="node">
<title>Node10</title>
<g id="a_Node000010"><a xlink:href="config__api__set_8cpp.html" target="_top" xlink:title=" ">
<polygon fill="white" stroke="#666666" points="1190.12,-41.75 1088.62,-41.75 1088.62,0 1190.12,0 1190.12,-41.75"/>
<text text-anchor="start" x="1096.62" y="-28.25" font-family="Helvetica,sans-Serif" font-size="10.00">sourcecode/dbe/src</text>
<text text-anchor="start" x="1096.62" y="-17" font-family="Helvetica,sans-Serif" font-size="10.00">/internal/config_api</text>
<text text-anchor="middle" x="1139.38" y="-5.75" font-family="Helvetica,sans-Serif" font-size="10.00">_set.cpp</text>
</a>
</g>
</g>
<!-- Node1&#45;&gt;Node10 -->
<g id="edge27_Node000001_Node000010" class="edge">
<title>Node1&#45;&gt;Node10</title>
<g id="a_edge27_Node000001_Node000010"><a xlink:title=" ">
<path fill="none" stroke="#63b8ff" d="M765.23,-199.31C761.51,-166.18 760.83,-109.14 793.38,-77.75 839.49,-33.29 1016.9,-55.89 1079.38,-41.75 1082.26,-41.1 1085.21,-40.36 1088.17,-39.56"/>
<polygon fill="#63b8ff" stroke="#63b8ff" points="761.71,-199.38 766.49,-208.83 768.65,-198.46 761.71,-199.38"/>
</a>
</g>
</g>
<!-- Node12 -->
<g id="Node000012" class="node">
<title>Node12</title>
<g id="a_Node000012"><a xlink:href="BatchChangeWidget_8cpp.html" target="_top" xlink:title=" ">
<polygon fill="white" stroke="#666666" points="1370.5,-36.12 1208.25,-36.12 1208.25,-5.62 1370.5,-5.62 1370.5,-36.12"/>
<text text-anchor="start" x="1216.25" y="-22.62" font-family="Helvetica,sans-Serif" font-size="10.00">sourcecode/dbe/src</text>
<text text-anchor="middle" x="1289.38" y="-11.38" font-family="Helvetica,sans-Serif" font-size="10.00">/widgets/BatchChangeWidget.cpp</text>
</a>
</g>
</g>
<!-- Node1&#45;&gt;Node12 -->
<g id="edge30_Node000001_Node000012" class="edge">
<title>Node1&#45;&gt;Node12</title>
<g id="a_edge30_Node000001_Node000012"><a xlink:title=" ">
<path fill="none" stroke="#63b8ff" d="M776.63,-199.62C788.02,-161.63 810.93,-92.81 831.38,-77.75 897.53,-29.02 1118.22,-54.63 1199.38,-41.75 1208.54,-40.29 1218.17,-38.48 1227.59,-36.54"/>
<polygon fill="#63b8ff" stroke="#63b8ff" points="773.37,-198.29 773.9,-208.87 780.08,-200.27 773.37,-198.29"/>
</a>
</g>
</g>
<!-- Node14 -->
<g id="Node000014" class="node">
<title>Node14</title>
<g id="a_Node000014"><a xlink:href="ObjectCreator_8cpp.html" target="_top" xlink:title=" ">
<polygon fill="white" stroke="#666666" points="1522.25,-36.12 1388.5,-36.12 1388.5,-5.62 1522.25,-5.62 1522.25,-36.12"/>
<text text-anchor="start" x="1396.5" y="-22.62" font-family="Helvetica,sans-Serif" font-size="10.00">sourcecode/dbe/src</text>
<text text-anchor="middle" x="1455.38" y="-11.38" font-family="Helvetica,sans-Serif" font-size="10.00">/widgets/ObjectCreator.cpp</text>
</a>
</g>
</g>
<!-- Node1&#45;&gt;Node14 -->
<g id="edge31_Node000001_Node000014" class="edge">
<title>Node1&#45;&gt;Node14</title>
<g id="a_edge31_Node000001_Node000014"><a xlink:title=" ">
<path fill="none" stroke="#63b8ff" d="M789.64,-202.28C807.48,-183.75 835.1,-158.41 864.38,-144.25 1074.47,-42.64 1151.94,-94.07 1379.38,-41.75 1386.29,-40.16 1393.53,-38.4 1400.67,-36.59"/>
<polygon fill="#63b8ff" stroke="#63b8ff" points="787.26,-199.71 782.97,-209.4 792.36,-204.49 787.26,-199.71"/>
</a>
</g>
</g>
<!-- Node15 -->
<g id="Node000015" class="node">
<title>Node15</title>
<g id="a_Node000015"><a xlink:href="change__class_8hpp.html" target="_top" xlink:title=" ">
<polygon fill="white" stroke="#666666" points="604.75,-108.25 486,-108.25 486,-77.75 604.75,-77.75 604.75,-108.25"/>
<text text-anchor="start" x="494" y="-94.75" font-family="Helvetica,sans-Serif" font-size="10.00">sourcecode/dbe/include</text>
<text text-anchor="middle" x="545.38" y="-83.5" font-family="Helvetica,sans-Serif" font-size="10.00">/dbe/change_class.hpp</text>
</a>
</g>
</g>
<!-- Node1&#45;&gt;Node15 -->
<g id="edge16_Node000001_Node000015" class="edge">
<title>Node1&#45;&gt;Node15</title>
<g id="a_edge16_Node000001_Node000015"><a xlink:title=" ">
<path fill="none" stroke="#63b8ff" d="M735.35,-204.58C707.9,-188.16 668.25,-164.56 633.38,-144.25 612.55,-132.12 588.81,-118.58 571.24,-108.62"/>
<polygon fill="#63b8ff" stroke="#63b8ff" points="733.2,-207.38 743.58,-209.51 736.8,-201.37 733.2,-207.38"/>
</a>
</g>
</g>
<!-- Node16 -->
<g id="Node000016" class="node">
<title>Node16</title>
<g id="a_Node000016"><a xlink:href="change__date_8hpp.html" target="_top" xlink:title=" ">
<polygon fill="white" stroke="#666666" points="255.75,-108.25 137,-108.25 137,-77.75 255.75,-77.75 255.75,-108.25"/>
<text text-anchor="start" x="145" y="-94.75" font-family="Helvetica,sans-Serif" font-size="10.00">sourcecode/dbe/include</text>
<text text-anchor="middle" x="196.38" y="-83.5" font-family="Helvetica,sans-Serif" font-size="10.00">/dbe/change_date.hpp</text>
</a>
</g>
</g>
<!-- Node1&#45;&gt;Node16 -->
<g id="edge18_Node000001_Node000016" class="edge">
<title>Node1&#45;&gt;Node16</title>
<g id="a_edge18_Node000001_Node000016"><a xlink:title=" ">
<path fill="none" stroke="#63b8ff" d="M698.55,-219.19C627.06,-212.32 513.88,-198.68 418.38,-174.75 349.75,-157.55 272.81,-126.87 229.92,-108.68"/>
<polygon fill="#63b8ff" stroke="#63b8ff" points="697.86,-222.64 708.15,-220.1 698.52,-215.68 697.86,-222.64"/>
</a>
</g>
</g>
<!-- Node17 -->
<g id="Node000017" class="node">
<title>Node17</title>
<g id="a_Node000017"><a xlink:href="change__enum_8hpp.html" target="_top" xlink:title=" ">
<polygon fill="white" stroke="#666666" points="118.75,-108.25 0,-108.25 0,-77.75 118.75,-77.75 118.75,-108.25"/>
<text text-anchor="start" x="8" y="-94.75" font-family="Helvetica,sans-Serif" font-size="10.00">sourcecode/dbe/include</text>
<text text-anchor="middle" x="59.38" y="-83.5" font-family="Helvetica,sans-Serif" font-size="10.00">/dbe/change_enum.hpp</text>
</a>
</g>
</g>
<!-- Node1&#45;&gt;Node17 -->
<g id="edge20_Node000001_Node000017" class="edge">
<title>Node1&#45;&gt;Node17</title>
<g id="a_edge20_Node000001_Node000017"><a xlink:title=" ">
<path fill="none" stroke="#63b8ff" d="M698.26,-221.1C609.52,-215.29 453.49,-202 322.38,-174.75 241.47,-157.94 149.81,-126.97 98.87,-108.66"/>
<polygon fill="#63b8ff" stroke="#63b8ff" points="697.81,-224.57 708.02,-221.72 698.26,-217.59 697.81,-224.57"/>
</a>
</g>
</g>
<!-- Node18 -->
<g id="Node000018" class="node">
<title>Node18</title>
<g id="a_Node000018"><a xlink:href="change__time_8hpp.html" target="_top" xlink:title=" ">
<polygon fill="white" stroke="#666666" points="392.75,-108.25 274,-108.25 274,-77.75 392.75,-77.75 392.75,-108.25"/>
<text text-anchor="start" x="282" y="-94.75" font-family="Helvetica,sans-Serif" font-size="10.00">sourcecode/dbe/include</text>
<text text-anchor="middle" x="333.38" y="-83.5" font-family="Helvetica,sans-Serif" font-size="10.00">/dbe/change_time.hpp</text>
</a>
</g>
</g>
<!-- Node1&#45;&gt;Node18 -->
<g id="edge23_Node000001_Node000018" class="edge">
<title>Node1&#45;&gt;Node18</title>
<g id="a_edge23_Node000001_Node000018"><a xlink:title=" ">
<path fill="none" stroke="#63b8ff" d="M698.48,-218.45C640.52,-211.67 557.07,-198.59 487.38,-174.75 437.96,-157.84 385,-126.91 355.86,-108.63"/>
<polygon fill="#63b8ff" stroke="#63b8ff" points="697.89,-221.91 708.22,-219.56 698.68,-214.95 697.89,-221.91"/>
</a>
</g>
</g>
<!-- Node19 -->
<g id="Node000019" class="node">
<title>Node19</title>
<g id="a_Node000019"><a xlink:href="Command_8cpp.html" target="_top" xlink:title=" ">
<polygon fill="white" stroke="#666666" points="989.25,-174.75 873.5,-174.75 873.5,-144.25 989.25,-144.25 989.25,-174.75"/>
<text text-anchor="start" x="881.5" y="-161.25" font-family="Helvetica,sans-Serif" font-size="10.00">sourcecode/dbe/src</text>
<text text-anchor="middle" x="931.38" y="-150" font-family="Helvetica,sans-Serif" font-size="10.00">/internal/Command.cpp</text>
</a>
</g>
</g>
<!-- Node1&#45;&gt;Node19 -->
<g id="edge26_Node000001_Node000019" class="edge">
<title>Node1&#45;&gt;Node19</title>
<g id="a_edge26_Node000001_Node000019"><a xlink:title=" ">
<path fill="none" stroke="#63b8ff" d="M816.76,-206.13C841.55,-196.26 871.44,-184.36 894.48,-175.19"/>
<polygon fill="#63b8ff" stroke="#63b8ff" points="815.54,-202.85 807.54,-209.8 818.13,-209.36 815.54,-202.85"/>
</a>
</g>
</g>
<!-- Node20 -->
<g id="Node000020" class="node">
<title>Node20</title>
<g id="a_Node000020"><a xlink:href="rwdacc_8cpp.html" target="_top" xlink:title=" ">
<polygon fill="white" stroke="#666666" points="1109.88,-174.75 1006.88,-174.75 1006.88,-144.25 1109.88,-144.25 1109.88,-174.75"/>
<text text-anchor="start" x="1014.88" y="-161.25" font-family="Helvetica,sans-Serif" font-size="10.00">sourcecode/dbe/src</text>
<text text-anchor="middle" x="1058.38" y="-150" font-family="Helvetica,sans-Serif" font-size="10.00">/internal/rwdacc.cpp</text>
</a>
</g>
</g>
<!-- Node1&#45;&gt;Node20 -->
<g id="edge28_Node000001_Node000020" class="edge">
<title>Node1&#45;&gt;Node20</title>
<g id="a_edge28_Node000001_Node000020"><a xlink:title=" ">
<path fill="none" stroke="#63b8ff" d="M840.4,-209.74C885.66,-199.94 945.52,-186.83 998.38,-174.75 1001.09,-174.13 1003.87,-173.49 1006.68,-172.84"/>
<polygon fill="#63b8ff" stroke="#63b8ff" points="839.74,-206.31 830.71,-211.84 841.22,-213.15 839.74,-206.31"/>
</a>
</g>
</g>
<!-- Node21 -->
<g id="Node000021" class="node">
<title>Node21</title>
<g id="a_Node000021"><a xlink:href="table_8cpp.html" target="_top" xlink:title=" ">
<polygon fill="white" stroke="#666666" points="1229.12,-174.75 1127.62,-174.75 1127.62,-144.25 1229.12,-144.25 1229.12,-174.75"/>
<text text-anchor="start" x="1135.62" y="-161.25" font-family="Helvetica,sans-Serif" font-size="10.00">sourcecode/dbe/src</text>
<text text-anchor="middle" x="1178.38" y="-150" font-family="Helvetica,sans-Serif" font-size="10.00">/structure/table.cpp</text>
</a>
</g>
</g>
<!-- Node1&#45;&gt;Node21 -->
<g id="edge29_Node000001_Node000021" class="edge">
<title>Node1&#45;&gt;Node21</title>
<g id="a_edge29_Node000001_Node000021"><a xlink:title=" ">
<path fill="none" stroke="#63b8ff" d="M840.13,-216.83C911.06,-208.18 1023.24,-193.22 1119.38,-174.75 1121.96,-174.25 1124.61,-173.72 1127.27,-173.15"/>
<polygon fill="#63b8ff" stroke="#63b8ff" points="840.12,-213.31 830.61,-217.98 840.96,-220.26 840.12,-213.31"/>
</a>
</g>
</g>
<!-- Node22 -->
<g id="Node000022" class="node">
<title>Node22</title>
<g id="a_Node000022"><a xlink:href="ObjectEditor_8cpp.html" target="_top" xlink:title=" ">
<polygon fill="white" stroke="#666666" points="1373.88,-174.75 1246.88,-174.75 1246.88,-144.25 1373.88,-144.25 1373.88,-174.75"/>
<text text-anchor="start" x="1254.88" y="-161.25" font-family="Helvetica,sans-Serif" font-size="10.00">sourcecode/dbe/src</text>
<text text-anchor="middle" x="1310.38" y="-150" font-family="Helvetica,sans-Serif" font-size="10.00">/widgets/ObjectEditor.cpp</text>
</a>
</g>
</g>
<!-- Node1&#45;&gt;Node22 -->
<g id="edge32_Node000001_Node000022" class="edge">
<title>Node1&#45;&gt;Node22</title>
<g id="a_edge32_Node000001_Node000022"><a xlink:title=" ">
<path fill="none" stroke="#63b8ff" d="M840.6,-219.35C932.73,-211.58 1098.05,-196.11 1238.38,-174.75 1241.02,-174.35 1243.72,-173.91 1246.44,-173.46"/>
<polygon fill="#63b8ff" stroke="#63b8ff" points="840.37,-215.85 830.7,-220.17 840.96,-222.83 840.37,-215.85"/>
</a>
</g>
</g>
<!-- Node2&#45;&gt;Node3 -->
<g id="edge2_Node000002_Node000003" class="edge">
<title>Node2&#45;&gt;Node3</title>
<g id="a_edge2_Node000002_Node000003"><a xlink:title=" ">
<path fill="none" stroke="#63b8ff" d="M598.12,-138.54C616.44,-128.86 638.05,-117.43 654.8,-108.58"/>
<polygon fill="#63b8ff" stroke="#63b8ff" points="596.6,-135.39 589.4,-143.16 599.87,-141.58 596.6,-135.39"/>
</a>
</g>
</g>
<!-- Node6 -->
<g id="Node000006" class="node">
<title>Node6</title>
<g id="a_Node000006"><a xlink:href="confaccessor_8cpp.html" target="_top" xlink:title=" ">
<polygon fill="white" stroke="#666666" points="258.38,-36.12 128.38,-36.12 128.38,-5.62 258.38,-5.62 258.38,-36.12"/>
<text text-anchor="start" x="136.38" y="-22.62" font-family="Helvetica,sans-Serif" font-size="10.00">sourcecode/dbe/src</text>
<text text-anchor="middle" x="193.38" y="-11.38" font-family="Helvetica,sans-Serif" font-size="10.00">/internal/confaccessor.cpp</text>
</a>
</g>
</g>
<!-- Node2&#45;&gt;Node6 -->
<g id="edge14_Node000002_Node000006" class="edge">
<title>Node2&#45;&gt;Node6</title>
<g id="a_edge14_Node000002_Node000006"><a xlink:title=" ">
<path fill="none" stroke="#63b8ff" d="M525.17,-137.95C510.27,-129.06 492.82,-118.39 477.38,-108.25 457.78,-95.4 455.82,-87.19 434.38,-77.75 364.88,-47.16 341.17,-59.6 267.38,-41.75 260.65,-40.12 253.61,-38.34 246.65,-36.52"/>
<polygon fill="#63b8ff" stroke="#63b8ff" points="523.33,-140.93 533.72,-143.02 526.9,-134.91 523.33,-140.93"/>
</a>
</g>
</g>
<!-- Node7 -->
<g id="Node000007" class="node">
<title>Node7</title>
<g id="a_Node000007"><a xlink:href="config__api__commands_8cpp.html" target="_top" xlink:title=" ">
<polygon fill="white" stroke="#666666" points="110.12,-41.75 8.62,-41.75 8.62,0 110.12,0 110.12,-41.75"/>
<text text-anchor="start" x="16.62" y="-28.25" font-family="Helvetica,sans-Serif" font-size="10.00">sourcecode/dbe/src</text>
<text text-anchor="start" x="16.62" y="-17" font-family="Helvetica,sans-Serif" font-size="10.00">/internal/config_api</text>
<text text-anchor="middle" x="59.38" y="-5.75" font-family="Helvetica,sans-Serif" font-size="10.00">_commands.cpp</text>
</a>
</g>
</g>
<!-- Node2&#45;&gt;Node7 -->
<g id="edge15_Node000002_Node000007" class="edge">
<title>Node2&#45;&gt;Node7</title>
<g id="a_edge15_Node000002_Node000007"><a xlink:title=" ">
<path fill="none" stroke="#63b8ff" d="M500.92,-139.89C479.13,-131.78 454.82,-121.15 434.38,-108.25 417.48,-97.59 419.47,-86.19 401.38,-77.75 286.87,-24.33 242.58,-69.75 119.38,-41.75 116.49,-41.09 113.54,-40.35 110.58,-39.56"/>
<polygon fill="#63b8ff" stroke="#63b8ff" points="499.7,-143.17 510.29,-143.28 502.07,-136.59 499.7,-143.17"/>
</a>
</g>
</g>
<!-- Node4 -->
<g id="Node000004" class="node">
<title>Node4</title>
<g id="a_Node000004"><a xlink:href="gtool_8cpp.html" target="_top" xlink:title=" ">
<polygon fill="white" stroke="#666666" points="805.88,-36.12 696.88,-36.12 696.88,-5.62 805.88,-5.62 805.88,-36.12"/>
<text text-anchor="start" x="704.88" y="-22.62" font-family="Helvetica,sans-Serif" font-size="10.00">sourcecode/dbe/apps</text>
<text text-anchor="middle" x="751.38" y="-11.38" font-family="Helvetica,sans-Serif" font-size="10.00">/graphtool/gtool.cpp</text>
</a>
</g>
</g>
<!-- Node3&#45;&gt;Node4 -->
<g id="edge3_Node000003_Node000004" class="edge">
<title>Node3&#45;&gt;Node4</title>
<g id="a_edge3_Node000003_Node000004"><a xlink:title=" ">
<path fill="none" stroke="#63b8ff" d="M704.73,-69.28C715.36,-58.48 727.76,-45.88 737.1,-36.39"/>
<polygon fill="#63b8ff" stroke="#63b8ff" points="702.25,-66.81 697.73,-76.39 707.24,-71.72 702.25,-66.81"/>
</a>
</g>
</g>
<!-- Node5 -->
<g id="Node000005" class="node">
<title>Node5</title>
<g id="a_Node000005"><a xlink:href="MainWindow_8cpp.html" target="_top" xlink:title=" ">
<polygon fill="white" stroke="#666666" points="950.88,-36.12 823.88,-36.12 823.88,-5.62 950.88,-5.62 950.88,-36.12"/>
<text text-anchor="start" x="831.88" y="-22.62" font-family="Helvetica,sans-Serif" font-size="10.00">sourcecode/dbe/src</text>
<text text-anchor="middle" x="887.38" y="-11.38" font-family="Helvetica,sans-Serif" font-size="10.00">/internal/MainWindow.cpp</text>
</a>
</g>
</g>
<!-- Node3&#45;&gt;Node5 -->
<g id="edge4_Node000003_Node000005" class="edge">
<title>Node3&#45;&gt;Node5</title>
<g id="a_edge4_Node000003_Node000005"><a xlink:title=" ">
<path fill="none" stroke="#63b8ff" d="M735.98,-73.66C769.8,-62.09 812.9,-47.35 844.46,-36.56"/>
<polygon fill="#63b8ff" stroke="#63b8ff" points="735.11,-70.26 726.78,-76.81 737.38,-76.88 735.11,-70.26"/>
</a>
</g>
</g>
<!-- Node3&#45;&gt;Node6 -->
<g id="edge5_Node000003_Node000006" class="edge">
<title>Node3&#45;&gt;Node6</title>
<g id="a_edge5_Node000003_Node000006"><a xlink:title=" ">
<path fill="none" stroke="#63b8ff" d="M611.41,-77.57C458.6,-54.8 415.84,-69.23 267.38,-41.75 259.66,-40.32 251.57,-38.5 243.68,-36.53"/>
<polygon fill="#63b8ff" stroke="#63b8ff" points="610.69,-81 621.11,-79.05 611.75,-74.08 610.69,-81"/>
</a>
</g>
</g>
<!-- Node3&#45;&gt;Node7 -->
<g id="edge6_Node000003_Node000007" class="edge">
<title>Node3&#45;&gt;Node7</title>
<g id="a_edge6_Node000003_Node000007"><a xlink:title=" ">
<path fill="none" stroke="#63b8ff" d="M611.44,-77.64C393.3,-48.64 331.7,-83.98 119.38,-41.75 116.47,-41.17 113.51,-40.5 110.54,-39.75"/>
<polygon fill="#63b8ff" stroke="#63b8ff" points="610.74,-81.07 621.12,-78.96 611.68,-74.14 610.74,-81.07"/>
</a>
</g>
</g>
<!-- Node8 -->
<g id="Node000008" class="node">
<title>Node8</title>
<g id="a_Node000008"><a xlink:href="config__api__get_8cpp.html" target="_top" xlink:title=" ">
<polygon fill="white" stroke="#666666" points="1070.12,-41.75 968.62,-41.75 968.62,0 1070.12,0 1070.12,-41.75"/>
<text text-anchor="start" x="976.62" y="-28.25" font-family="Helvetica,sans-Serif" font-size="10.00">sourcecode/dbe/src</text>
<text text-anchor="start" x="976.62" y="-17" font-family="Helvetica,sans-Serif" font-size="10.00">/internal/config_api</text>
<text text-anchor="middle" x="1019.38" y="-5.75" font-family="Helvetica,sans-Serif" font-size="10.00">_get.cpp</text>
</a>
</g>
</g>
<!-- Node3&#45;&gt;Node8 -->
<g id="edge7_Node000003_Node000008" class="edge">
<title>Node3&#45;&gt;Node8</title>
<g id="a_edge7_Node000003_Node000008"><a xlink:title=" ">
<path fill="none" stroke="#63b8ff" d="M753.34,-78.13C754.02,-78 754.7,-77.88 755.38,-77.75 846.33,-60.89 870.73,-64.58 960.38,-41.75 962.99,-41.08 965.66,-40.36 968.35,-39.59"/>
<polygon fill="#63b8ff" stroke="#63b8ff" points="752.78,-74.67 743.6,-79.96 754.08,-81.55 752.78,-74.67"/>
</a>
</g>
</g>
<!-- Node9 -->
<g id="Node000009" class="node">
<title>Node9</title>
<g id="a_Node000009"><a xlink:href="config__api__info_8cpp.html" target="_top" xlink:title=" ">
<polygon fill="white" stroke="#666666" points="378.12,-41.75 276.62,-41.75 276.62,0 378.12,0 378.12,-41.75"/>
<text text-anchor="start" x="284.62" y="-28.25" font-family="Helvetica,sans-Serif" font-size="10.00">sourcecode/dbe/src</text>
<text text-anchor="start" x="284.62" y="-17" font-family="Helvetica,sans-Serif" font-size="10.00">/internal/config_api</text>
<text text-anchor="middle" x="327.38" y="-5.75" font-family="Helvetica,sans-Serif" font-size="10.00">_info.cpp</text>
</a>
</g>
</g>
<!-- Node3&#45;&gt;Node9 -->
<g id="edge8_Node000003_Node000009" class="edge">
<title>Node3&#45;&gt;Node9</title>
<g id="a_edge8_Node000003_Node000009"><a xlink:title=" ">
<path fill="none" stroke="#63b8ff" d="M611.34,-77.46C511.33,-59.87 482.72,-64.97 387.38,-41.75 384.5,-41.05 381.56,-40.27 378.6,-39.45"/>
<polygon fill="#63b8ff" stroke="#63b8ff" points="610.62,-80.88 621.08,-79.21 611.85,-73.99 610.62,-80.88"/>
</a>
</g>
</g>
<!-- Node3&#45;&gt;Node10 -->
<g id="edge9_Node000003_Node000010" class="edge">
<title>Node3&#45;&gt;Node10</title>
<g id="a_edge9_Node000003_Node000010"><a xlink:title=" ">
<path fill="none" stroke="#63b8ff" d="M753.33,-78.07C754.02,-77.96 754.7,-77.85 755.38,-77.75 898.6,-55.85 937.83,-72.7 1079.38,-41.75 1082.27,-41.12 1085.22,-40.4 1088.18,-39.61"/>
<polygon fill="#63b8ff" stroke="#63b8ff" points="752.85,-74.6 743.56,-79.69 753.99,-81.5 752.85,-74.6"/>
</a>
</g>
</g>
<!-- Node11 -->
<g id="Node000011" class="node">
<title>Node11</title>
<g id="a_Node000011"><a xlink:href="tree_8cpp.html" target="_top" xlink:title=" ">
<polygon fill="white" stroke="#666666" points="498.12,-36.12 396.62,-36.12 396.62,-5.62 498.12,-5.62 498.12,-36.12"/>
<text text-anchor="start" x="404.62" y="-22.62" font-family="Helvetica,sans-Serif" font-size="10.00">sourcecode/dbe/src</text>
<text text-anchor="middle" x="447.38" y="-11.38" font-family="Helvetica,sans-Serif" font-size="10.00">/structure/tree.cpp</text>
</a>
</g>
</g>
<!-- Node3&#45;&gt;Node11 -->
<g id="edge10_Node000003_Node000011" class="edge">
<title>Node3&#45;&gt;Node11</title>
<g id="a_edge10_Node000003_Node000011"><a xlink:title=" ">
<path fill="none" stroke="#63b8ff" d="M617.29,-74.2C584,-64.9 542.91,-53.11 506.38,-41.75 501.11,-40.11 495.6,-38.34 490.16,-36.55"/>
<polygon fill="#63b8ff" stroke="#63b8ff" points="616.23,-77.54 626.8,-76.85 618.11,-70.8 616.23,-77.54"/>
</a>
</g>
</g>
<!-- Node3&#45;&gt;Node12 -->
<g id="edge11_Node000003_Node000012" class="edge">
<title>Node3&#45;&gt;Node12</title>
<g id="a_edge11_Node000003_Node000012"><a xlink:title=" ">
<path fill="none" stroke="#63b8ff" d="M753.27,-82.48C766.59,-80.81 780.4,-79.16 793.38,-77.75 973.47,-58.21 1020.34,-69.34 1199.38,-41.75 1208.55,-40.34 1218.18,-38.54 1227.6,-36.62"/>
<polygon fill="#63b8ff" stroke="#63b8ff" points="753.22,-78.96 743.74,-83.69 754.1,-85.9 753.22,-78.96"/>
</a>
</g>
</g>
<!-- Node13 -->
<g id="Node000013" class="node">
<title>Node13</title>
<g id="a_Node000013"><a xlink:href="BuildingBlockEditors_8cpp.html" target="_top" xlink:title=" ">
<polygon fill="white" stroke="#666666" points="678.88,-36.12 515.88,-36.12 515.88,-5.62 678.88,-5.62 678.88,-36.12"/>
<text text-anchor="start" x="523.88" y="-22.62" font-family="Helvetica,sans-Serif" font-size="10.00">sourcecode/dbe/src</text>
<text text-anchor="middle" x="597.38" y="-11.38" font-family="Helvetica,sans-Serif" font-size="10.00">/widgets/BuildingBlockEditors.cpp</text>
</a>
</g>
</g>
<!-- Node3&#45;&gt;Node13 -->
<g id="edge12_Node000003_Node000013" class="edge">
<title>Node3&#45;&gt;Node13</title>
<g id="a_edge12_Node000003_Node000013"><a xlink:title=" ">
<path fill="none" stroke="#63b8ff" d="M656,-70.24C642.65,-59.23 626.81,-46.16 614.96,-36.39"/>
<polygon fill="#63b8ff" stroke="#63b8ff" points="653.65,-72.84 663.6,-76.51 658.11,-67.44 653.65,-72.84"/>
</a>
</g>
</g>
<!-- Node3&#45;&gt;Node14 -->
<g id="edge13_Node000003_Node000014" class="edge">
<title>Node3&#45;&gt;Node14</title>
<g id="a_edge13_Node000003_Node000014"><a xlink:title=" ">
<path fill="none" stroke="#63b8ff" d="M753.59,-84.75C778.22,-82.36 806,-79.8 831.38,-77.75 1074.67,-58.13 1138.44,-80.8 1379.38,-41.75 1387.59,-40.42 1396.2,-38.59 1404.56,-36.59"/>
<polygon fill="#63b8ff" stroke="#63b8ff" points="753.27,-81.27 743.66,-85.73 753.95,-88.24 753.27,-81.27"/>
</a>
</g>
</g>
<!-- Node15&#45;&gt;Node7 -->
<g id="edge17_Node000015_Node000007" class="edge">
<title>Node15&#45;&gt;Node7</title>
<g id="a_edge17_Node000015_Node000007"><a xlink:title=" ">
<path fill="none" stroke="#63b8ff" d="M474.68,-82.77C461.3,-81.07 447.41,-79.33 434.38,-77.75 294.49,-60.78 256.99,-72.07 119.38,-41.75 116.48,-41.11 113.53,-40.39 110.57,-39.6"/>
<polygon fill="#63b8ff" stroke="#63b8ff" points="473.91,-86.2 484.27,-84 474.79,-79.26 473.91,-86.2"/>
</a>
</g>
</g>
<!-- Node16&#45;&gt;Node7 -->
<g id="edge19_Node000016_Node000007" class="edge">
<title>Node16&#45;&gt;Node7</title>
<g id="a_edge19_Node000016_Node000007"><a xlink:title=" ">
<path fill="none" stroke="#63b8ff" d="M157.6,-72.15C139.26,-62.77 117.41,-51.58 98.97,-42.14"/>
<polygon fill="#63b8ff" stroke="#63b8ff" points="155.81,-75.17 166.31,-76.61 159,-68.94 155.81,-75.17"/>
</a>
</g>
</g>
<!-- Node17&#45;&gt;Node6 -->
<g id="edge21_Node000017_Node000006" class="edge">
<title>Node17&#45;&gt;Node6</title>
<g id="a_edge21_Node000017_Node000006"><a xlink:title=" ">
<path fill="none" stroke="#63b8ff" d="M97.61,-71.99C119.19,-60.7 145.68,-46.84 165.32,-36.56"/>
<polygon fill="#63b8ff" stroke="#63b8ff" points="96.04,-68.86 88.81,-76.6 99.29,-75.06 96.04,-68.86"/>
</a>
</g>
</g>
<!-- Node17&#45;&gt;Node7 -->
<g id="edge22_Node000017_Node000007" class="edge">
<title>Node17&#45;&gt;Node7</title>
<g id="a_edge22_Node000017_Node000007"><a xlink:title=" ">
<path fill="none" stroke="#63b8ff" d="M59.38,-66.22C59.38,-58.31 59.38,-49.73 59.38,-42.24"/>
<polygon fill="#63b8ff" stroke="#63b8ff" points="55.88,-65.96 59.38,-75.96 62.88,-65.96 55.88,-65.96"/>
</a>
</g>
</g>
<!-- Node18&#45;&gt;Node7 -->
<g id="edge24_Node000018_Node000007" class="edge">
<title>Node18&#45;&gt;Node7</title>
<g id="a_edge24_Node000018_Node000007"><a xlink:title=" ">
<path fill="none" stroke="#63b8ff" d="M262.32,-76.98C220.47,-67.73 166.64,-55.1 119.38,-41.75 116.42,-40.91 113.39,-40.02 110.34,-39.1"/>
<polygon fill="#63b8ff" stroke="#63b8ff" points="261.51,-80.39 272.03,-79.12 263.02,-73.55 261.51,-80.39"/>
</a>
</g>
</g>
</g>
</svg>
