<?xml version="1.0" encoding="UTF-8" standalone="no"?>
<!DOCTYPE svg PUBLIC "-//W3C//DTD SVG 1.1//EN"
 "http://www.w3.org/Graphics/SVG/1.1/DTD/svg11.dtd">
<!-- Generated by graphviz version 9.0.0 (20230911.1827)
 -->
<!-- Title: sourcecode/ers/src/Context.cpp Pages: 1 -->
<svg width="703pt" height="204pt"
 viewBox="0.00 0.00 703.12 204.25" xmlns="http://www.w3.org/2000/svg" xmlns:xlink="http://www.w3.org/1999/xlink">
<g id="graph0" class="graph" transform="scale(1 1) rotate(0) translate(4 200.25)">
<title>sourcecode/ers/src/Context.cpp</title>
<!-- Node1 -->
<g id="Node000001" class="node">
<title>Node1</title>
<g id="a_Node000001"><a xlink:title=" ">
<polygon fill="#999999" stroke="#666666" points="377.38,-196.25 278.12,-196.25 278.12,-165.75 377.38,-165.75 377.38,-196.25"/>
<text text-anchor="start" x="286.12" y="-182.75" font-family="Helvetica,sans-Serif" font-size="10.00">sourcecode/ers/src</text>
<text text-anchor="middle" x="327.75" y="-171.5" font-family="Helvetica,sans-Serif" font-size="10.00">/Context.cpp</text>
</a>
</g>
</g>
<!-- Node2 -->
<g id="Node000002" class="node">
<title>Node2</title>
<g id="a_Node000002"><a xlink:title=" ">
<polygon fill="#e0e0e0" stroke="#999999" points="47.5,-129.75 0,-129.75 0,-110.5 47.5,-110.5 47.5,-129.75"/>
<text text-anchor="middle" x="23.75" y="-116.25" font-family="Helvetica,sans-Serif" font-size="10.00">string.h</text>
</a>
</g>
</g>
<!-- Node1&#45;&gt;Node2 -->
<g id="edge1_Node000001_Node000002" class="edge">
<title>Node1&#45;&gt;Node2</title>
<g id="a_edge1_Node000001_Node000002"><a xlink:title=" ">
<path fill="none" stroke="#63b8ff" d="M278.08,-171.9C225.91,-163.14 141.24,-148.24 58.92,-130.1"/>
<polygon fill="#63b8ff" stroke="#63b8ff" points="59.85,-126.72 49.33,-127.97 58.33,-133.56 59.85,-126.72"/>
</a>
</g>
</g>
<!-- Node3 -->
<g id="Node000003" class="node">
<title>Node3</title>
<g id="a_Node000003"><a xlink:title=" ">
<polygon fill="#e0e0e0" stroke="#999999" points="116,-129.75 65.5,-129.75 65.5,-110.5 116,-110.5 116,-129.75"/>
<text text-anchor="middle" x="90.75" y="-116.25" font-family="Helvetica,sans-Serif" font-size="10.00">cxxabi.h</text>
</a>
</g>
</g>
<!-- Node1&#45;&gt;Node3 -->
<g id="edge2_Node000001_Node000003" class="edge">
<title>Node1&#45;&gt;Node3</title>
<g id="a_edge2_Node000001_Node000003"><a xlink:title=" ">
<path fill="none" stroke="#63b8ff" d="M277.78,-167.59C232.69,-156.39 167.43,-140.17 127.12,-130.16"/>
<polygon fill="#63b8ff" stroke="#63b8ff" points="128.22,-126.83 117.68,-127.81 126.54,-133.62 128.22,-126.83"/>
</a>
</g>
</g>
<!-- Node4 -->
<g id="Node000004" class="node">
<title>Node4</title>
<g id="a_Node000004"><a xlink:title=" ">
<polygon fill="#e0e0e0" stroke="#999999" points="199.12,-129.75 134.38,-129.75 134.38,-110.5 199.12,-110.5 199.12,-129.75"/>
<text text-anchor="middle" x="166.75" y="-116.25" font-family="Helvetica,sans-Serif" font-size="10.00">sys/types.h</text>
</a>
</g>
</g>
<!-- Node1&#45;&gt;Node4 -->
<g id="edge3_Node000001_Node000004" class="edge">
<title>Node1&#45;&gt;Node4</title>
<g id="a_edge3_Node000001_Node000004"><a xlink:title=" ">
<path fill="none" stroke="#63b8ff" d="M287.54,-165.3C261.25,-155.68 227.24,-143.25 202.01,-134.02"/>
<polygon fill="#63b8ff" stroke="#63b8ff" points="203.46,-130.82 192.86,-130.67 201.05,-137.4 203.46,-130.82"/>
</a>
</g>
</g>
<!-- Node5 -->
<g id="Node000005" class="node">
<title>Node5</title>
<g id="a_Node000005"><a xlink:title=" ">
<polygon fill="#e0e0e0" stroke="#999999" points="258.5,-129.75 217,-129.75 217,-110.5 258.5,-110.5 258.5,-129.75"/>
<text text-anchor="middle" x="237.75" y="-116.25" font-family="Helvetica,sans-Serif" font-size="10.00">pwd.h</text>
</a>
</g>
</g>
<!-- Node1&#45;&gt;Node5 -->
<g id="edge4_Node000001_Node000005" class="edge">
<title>Node1&#45;&gt;Node5</title>
<g id="a_edge4_Node000001_Node000005"><a xlink:title=" ">
<path fill="none" stroke="#63b8ff" d="M305.5,-165.45C291.93,-156.57 274.61,-145.24 260.88,-136.26"/>
<polygon fill="#63b8ff" stroke="#63b8ff" points="263.18,-133.58 252.89,-131.03 259.34,-139.43 263.18,-133.58"/>
</a>
</g>
</g>
<!-- Node6 -->
<g id="Node000006" class="node">
<title>Node6</title>
<g id="a_Node000006"><a xlink:title=" ">
<polygon fill="#e0e0e0" stroke="#999999" points="326.62,-129.75 276.88,-129.75 276.88,-110.5 326.62,-110.5 326.62,-129.75"/>
<text text-anchor="middle" x="301.75" y="-116.25" font-family="Helvetica,sans-Serif" font-size="10.00">unistd.h</text>
</a>
</g>
</g>
<!-- Node1&#45;&gt;Node6 -->
<g id="edge5_Node000001_Node000006" class="edge">
<title>Node1&#45;&gt;Node6</title>
<g id="a_edge5_Node000001_Node000006"><a xlink:title=" ">
<path fill="none" stroke="#63b8ff" d="M321.32,-165.45C318.01,-157.95 313.93,-148.7 310.35,-140.6"/>
<polygon fill="#63b8ff" stroke="#63b8ff" points="313.61,-139.32 306.37,-131.59 307.21,-142.15 313.61,-139.32"/>
</a>
</g>
</g>
<!-- Node7 -->
<g id="Node000007" class="node">
<title>Node7</title>
<g id="a_Node000007"><a xlink:title=" ">
<polygon fill="#e0e0e0" stroke="#999999" points="524.5,-19.25 471,-19.25 471,0 524.5,0 524.5,-19.25"/>
<text text-anchor="middle" x="497.75" y="-5.75" font-family="Helvetica,sans-Serif" font-size="10.00">iostream</text>
</a>
</g>
</g>
<!-- Node1&#45;&gt;Node7 -->
<g id="edge6_Node000001_Node000007" class="edge">
<title>Node1&#45;&gt;Node7</title>
<g id="a_edge6_Node000001_Node000007"><a xlink:title=" ">
<path fill="none" stroke="#63b8ff" d="M335.57,-165.51C343.91,-150.77 358.06,-127.72 373.75,-110.5 404.94,-76.25 448.44,-44.04 474.76,-25.88"/>
<polygon fill="#63b8ff" stroke="#63b8ff" points="476.39,-29 482.69,-20.48 472.46,-23.21 476.39,-29"/>
</a>
</g>
</g>
<!-- Node8 -->
<g id="Node000008" class="node">
<title>Node8</title>
<g id="a_Node000008"><a xlink:title=" ">
<polygon fill="#e0e0e0" stroke="#999999" points="434.38,-129.75 383.12,-129.75 383.12,-110.5 434.38,-110.5 434.38,-129.75"/>
<text text-anchor="middle" x="408.75" y="-116.25" font-family="Helvetica,sans-Serif" font-size="10.00">sstream</text>
</a>
</g>
</g>
<!-- Node1&#45;&gt;Node8 -->
<g id="edge7_Node000001_Node000008" class="edge">
<title>Node1&#45;&gt;Node8</title>
<g id="a_edge7_Node000001_Node000008"><a xlink:title=" ">
<path fill="none" stroke="#63b8ff" d="M347.77,-165.45C359.75,-156.74 374.97,-145.68 387.21,-136.78"/>
<polygon fill="#63b8ff" stroke="#63b8ff" points="389.01,-139.8 395.04,-131.09 384.89,-134.14 389.01,-139.8"/>
</a>
</g>
</g>
<!-- Node9 -->
<g id="Node000009" class="node">
<title>Node9</title>
<g id="a_Node000009"><a xlink:title=" ">
<polygon fill="#e0e0e0" stroke="#999999" points="511.5,-129.75 452,-129.75 452,-110.5 511.5,-110.5 511.5,-129.75"/>
<text text-anchor="middle" x="481.75" y="-116.25" font-family="Helvetica,sans-Serif" font-size="10.00">execinfo.h</text>
</a>
</g>
</g>
<!-- Node1&#45;&gt;Node9 -->
<g id="edge8_Node000001_Node000009" class="edge">
<title>Node1&#45;&gt;Node9</title>
<g id="a_edge8_Node000001_Node000009"><a xlink:title=" ">
<path fill="none" stroke="#63b8ff" d="M366.21,-165.3C391.24,-155.73 423.6,-143.36 447.7,-134.14"/>
<polygon fill="#63b8ff" stroke="#63b8ff" points="448.63,-137.53 456.72,-130.69 446.13,-131 448.63,-137.53"/>
</a>
</g>
</g>
<!-- Node10 -->
<g id="Node000010" class="node">
<title>Node10</title>
<g id="a_Node000010"><a xlink:href="Context_8hpp.html" target="_top" xlink:title=" ">
<polygon fill="white" stroke="#666666" points="613.5,-129.75 530,-129.75 530,-110.5 613.5,-110.5 613.5,-129.75"/>
<text text-anchor="middle" x="571.75" y="-116.25" font-family="Helvetica,sans-Serif" font-size="10.00">ers/Context.hpp</text>
</a>
</g>
</g>
<!-- Node1&#45;&gt;Node10 -->
<g id="edge9_Node000001_Node000010" class="edge">
<title>Node1&#45;&gt;Node10</title>
<g id="a_edge9_Node000001_Node000010"><a xlink:title=" ">
<path fill="none" stroke="#63b8ff" d="M377.72,-167.94C420.24,-157.68 480.97,-143.03 523.11,-132.86"/>
<polygon fill="#63b8ff" stroke="#63b8ff" points="523.84,-136.29 532.74,-130.54 522.2,-129.48 523.84,-136.29"/>
</a>
</g>
</g>
<!-- Node13 -->
<g id="Node000013" class="node">
<title>Node13</title>
<g id="a_Node000013"><a xlink:href="ers_2include_2ers_2Configuration_8hpp.html" target="_top" xlink:title=" ">
<polygon fill="white" stroke="#666666" points="695.12,-74.5 588.38,-74.5 588.38,-55.25 695.12,-55.25 695.12,-74.5"/>
<text text-anchor="middle" x="641.75" y="-61" font-family="Helvetica,sans-Serif" font-size="10.00">ers/Configuration.hpp</text>
</a>
</g>
</g>
<!-- Node1&#45;&gt;Node13 -->
<g id="edge14_Node000001_Node000013" class="edge">
<title>Node1&#45;&gt;Node13</title>
<g id="a_edge14_Node000001_Node000013"><a xlink:title=" ">
<path fill="none" stroke="#63b8ff" d="M377.66,-177.75C452.09,-173.38 587.22,-161.24 622.75,-129.75 635.07,-118.83 639.57,-100.31 641.13,-86.02"/>
<polygon fill="#63b8ff" stroke="#63b8ff" points="644.6,-86.56 641.77,-76.35 637.61,-86.1 644.6,-86.56"/>
</a>
</g>
</g>
<!-- Node11 -->
<g id="Node000011" class="node">
<title>Node11</title>
<g id="a_Node000011"><a xlink:title=" ">
<polygon fill="#e0e0e0" stroke="#999999" points="508.75,-74.5 468.75,-74.5 468.75,-55.25 508.75,-55.25 508.75,-74.5"/>
<text text-anchor="middle" x="488.75" y="-61" font-family="Helvetica,sans-Serif" font-size="10.00">string</text>
</a>
</g>
</g>
<!-- Node10&#45;&gt;Node11 -->
<g id="edge10_Node000010_Node000011" class="edge">
<title>Node10&#45;&gt;Node11</title>
<g id="a_edge10_Node000010_Node000011"><a xlink:title=" ">
<path fill="none" stroke="#63b8ff" d="M557.67,-110.09C545.27,-102.14 526.96,-90.39 512.32,-81"/>
<polygon fill="#63b8ff" stroke="#63b8ff" points="514.48,-78.22 504.17,-75.77 510.7,-84.12 514.48,-78.22"/>
</a>
</g>
</g>
<!-- Node12 -->
<g id="Node000012" class="node">
<title>Node12</title>
<g id="a_Node000012"><a xlink:title=" ">
<polygon fill="#e0e0e0" stroke="#999999" points="570.25,-74.5 527.25,-74.5 527.25,-55.25 570.25,-55.25 570.25,-74.5"/>
<text text-anchor="middle" x="548.75" y="-61" font-family="Helvetica,sans-Serif" font-size="10.00">vector</text>
</a>
</g>
</g>
<!-- Node10&#45;&gt;Node12 -->
<g id="edge11_Node000010_Node000012" class="edge">
<title>Node10&#45;&gt;Node12</title>
<g id="a_edge11_Node000010_Node000012"><a xlink:title=" ">
<path fill="none" stroke="#63b8ff" d="M567.95,-110.33C565.01,-103.51 560.81,-93.81 557.1,-85.2"/>
<polygon fill="#63b8ff" stroke="#63b8ff" points="560.41,-84.04 553.23,-76.25 553.98,-86.82 560.41,-84.04"/>
</a>
</g>
</g>
<!-- Node10&#45;&gt;Node13 -->
<g id="edge12_Node000010_Node000013" class="edge">
<title>Node10&#45;&gt;Node13</title>
<g id="a_edge12_Node000010_Node000013"><a xlink:title=" ">
<path fill="none" stroke="#63b8ff" d="M583.62,-110.09C593.84,-102.32 608.82,-90.92 621.01,-81.65"/>
<polygon fill="#63b8ff" stroke="#63b8ff" points="623.01,-84.53 628.85,-75.69 618.77,-78.96 623.01,-84.53"/>
</a>
</g>
</g>
<!-- Node13&#45;&gt;Node7 -->
<g id="edge13_Node000013_Node000007" class="edge">
<title>Node13&#45;&gt;Node7</title>
<g id="a_edge13_Node000013_Node000007"><a xlink:title=" ">
<path fill="none" stroke="#63b8ff" d="M617.32,-54.84C594.15,-46.27 559.09,-33.31 532.91,-23.63"/>
<polygon fill="#63b8ff" stroke="#63b8ff" points="534.31,-20.41 523.72,-20.23 531.88,-26.98 534.31,-20.41"/>
</a>
</g>
</g>
</g>
</svg>
