<?xml version="1.0" encoding="UTF-8" standalone="no"?>
<!DOCTYPE svg PUBLIC "-//W3C//DTD SVG 1.1//EN"
 "http://www.w3.org/Graphics/SVG/1.1/DTD/svg11.dtd">
<!-- Generated by graphviz version 9.0.0 (20230911.1827)
 -->
<!-- Title: sourcecode/ers/include/ers/Context.hpp Pages: 1 -->
<svg width="234pt" height="149pt"
 viewBox="0.00 0.00 234.38 149.00" xmlns="http://www.w3.org/2000/svg" xmlns:xlink="http://www.w3.org/1999/xlink">
<g id="graph0" class="graph" transform="scale(1 1) rotate(0) translate(4 145)">
<title>sourcecode/ers/include/ers/Context.hpp</title>
<!-- Node1 -->
<g id="Node000001" class="node">
<title>Node1</title>
<g id="a_Node000001"><a xlink:title=" ">
<polygon fill="#999999" stroke="#666666" points="138.25,-141 21.75,-141 21.75,-110.5 138.25,-110.5 138.25,-141"/>
<text text-anchor="start" x="29.75" y="-127.5" font-family="Helvetica,sans-Serif" font-size="10.00">sourcecode/ers/include</text>
<text text-anchor="middle" x="80" y="-116.25" font-family="Helvetica,sans-Serif" font-size="10.00">/ers/Context.hpp</text>
</a>
</g>
</g>
<!-- Node2 -->
<g id="Node000002" class="node">
<title>Node2</title>
<g id="a_Node000002"><a xlink:title=" ">
<polygon fill="#e0e0e0" stroke="#999999" points="40,-74.5 0,-74.5 0,-55.25 40,-55.25 40,-74.5"/>
<text text-anchor="middle" x="20" y="-61" font-family="Helvetica,sans-Serif" font-size="10.00">string</text>
</a>
</g>
</g>
<!-- Node1&#45;&gt;Node2 -->
<g id="edge1_Node000001_Node000002" class="edge">
<title>Node1&#45;&gt;Node2</title>
<g id="a_edge1_Node000001_Node000002"><a xlink:title=" ">
<path fill="none" stroke="#63b8ff" d="M65.17,-110.2C56.74,-101.92 46.13,-91.52 37.32,-82.87"/>
<polygon fill="#63b8ff" stroke="#63b8ff" points="39.92,-80.52 30.33,-76.01 35.02,-85.51 39.92,-80.52"/>
</a>
</g>
</g>
<!-- Node3 -->
<g id="Node000003" class="node">
<title>Node3</title>
<g id="a_Node000003"><a xlink:title=" ">
<polygon fill="#e0e0e0" stroke="#999999" points="101.5,-74.5 58.5,-74.5 58.5,-55.25 101.5,-55.25 101.5,-74.5"/>
<text text-anchor="middle" x="80" y="-61" font-family="Helvetica,sans-Serif" font-size="10.00">vector</text>
</a>
</g>
</g>
<!-- Node1&#45;&gt;Node3 -->
<g id="edge2_Node000001_Node000003" class="edge">
<title>Node1&#45;&gt;Node3</title>
<g id="a_edge2_Node000001_Node000003"><a xlink:title=" ">
<path fill="none" stroke="#63b8ff" d="M80,-110.2C80,-102.96 80,-94.09 80,-86.19"/>
<polygon fill="#63b8ff" stroke="#63b8ff" points="83.5,-86.46 80,-76.46 76.5,-86.46 83.5,-86.46"/>
</a>
</g>
</g>
<!-- Node4 -->
<g id="Node000004" class="node">
<title>Node4</title>
<g id="a_Node000004"><a xlink:href="ers_2include_2ers_2Configuration_8hpp.html" target="_top" xlink:title=" ">
<polygon fill="white" stroke="#666666" points="226.38,-74.5 119.62,-74.5 119.62,-55.25 226.38,-55.25 226.38,-74.5"/>
<text text-anchor="middle" x="173" y="-61" font-family="Helvetica,sans-Serif" font-size="10.00">ers/Configuration.hpp</text>
</a>
</g>
</g>
<!-- Node1&#45;&gt;Node4 -->
<g id="edge3_Node000001_Node000004" class="edge">
<title>Node1&#45;&gt;Node4</title>
<g id="a_edge3_Node000001_Node000004"><a xlink:title=" ">
<path fill="none" stroke="#63b8ff" d="M102.99,-110.2C117.01,-101.32 134.91,-89.99 149.1,-81.01"/>
<polygon fill="#63b8ff" stroke="#63b8ff" points="150.81,-84.07 157.38,-75.76 147.06,-78.15 150.81,-84.07"/>
</a>
</g>
</g>
<!-- Node5 -->
<g id="Node000005" class="node">
<title>Node5</title>
<g id="a_Node000005"><a xlink:title=" ">
<polygon fill="#e0e0e0" stroke="#999999" points="199.75,-19.25 146.25,-19.25 146.25,0 199.75,0 199.75,-19.25"/>
<text text-anchor="middle" x="173" y="-5.75" font-family="Helvetica,sans-Serif" font-size="10.00">iostream</text>
</a>
</g>
</g>
<!-- Node4&#45;&gt;Node5 -->
<g id="edge4_Node000004_Node000005" class="edge">
<title>Node4&#45;&gt;Node5</title>
<g id="a_edge4_Node000004_Node000005"><a xlink:title=" ">
<path fill="none" stroke="#63b8ff" d="M173,-55.08C173,-48.57 173,-39.42 173,-31.12"/>
<polygon fill="#63b8ff" stroke="#63b8ff" points="176.5,-31.12 173,-21.12 169.5,-31.12 176.5,-31.12"/>
</a>
</g>
</g>
</g>
</svg>
