<?xml version="1.0" encoding="UTF-8" standalone="no"?>
<!DOCTYPE svg PUBLIC "-//W3C//DTD SVG 1.1//EN"
 "http://www.w3.org/Graphics/SVG/1.1/DTD/svg11.dtd">
<!-- Generated by graphviz version 9.0.0 (20230911.1827)
 -->
<!-- Title: sourcecode/dbe/include/dbe/Conversion.hpp Pages: 1 -->
<svg width="2237pt" height="327pt"
 viewBox="0.00 0.00 2237.12 327.00" xmlns="http://www.w3.org/2000/svg" xmlns:xlink="http://www.w3.org/1999/xlink">
<g id="graph0" class="graph" transform="scale(1 1) rotate(0) translate(4 323)">
<title>sourcecode/dbe/include/dbe/Conversion.hpp</title>
<!-- Node1 -->
<g id="Node000001" class="node">
<title>Node1</title>
<g id="a_Node000001"><a xlink:title=" ">
<polygon fill="#999999" stroke="#666666" points="1792.75,-319 1674,-319 1674,-288.5 1792.75,-288.5 1792.75,-319"/>
<text text-anchor="start" x="1682" y="-305.5" font-family="Helvetica,sans-Serif" font-size="10.00">sourcecode/dbe/include</text>
<text text-anchor="middle" x="1733.38" y="-294.25" font-family="Helvetica,sans-Serif" font-size="10.00">/dbe/Conversion.hpp</text>
</a>
</g>
</g>
<!-- Node2 -->
<g id="Node000002" class="node">
<title>Node2</title>
<g id="a_Node000002"><a xlink:href="Command_8hpp.html" target="_top" xlink:title=" ">
<polygon fill="white" stroke="#666666" points="397.75,-246.88 279,-246.88 279,-216.38 397.75,-216.38 397.75,-246.88"/>
<text text-anchor="start" x="287" y="-233.38" font-family="Helvetica,sans-Serif" font-size="10.00">sourcecode/dbe/include</text>
<text text-anchor="middle" x="338.38" y="-222.12" font-family="Helvetica,sans-Serif" font-size="10.00">/dbe/Command.hpp</text>
</a>
</g>
</g>
<!-- Node1&#45;&gt;Node2 -->
<g id="edge1_Node000001_Node000002" class="edge">
<title>Node1&#45;&gt;Node2</title>
<g id="a_edge1_Node000001_Node000002"><a xlink:title=" ">
<path fill="none" stroke="#63b8ff" d="M1662.39,-299.18C1419.35,-286.96 623.27,-246.95 398.16,-235.63"/>
<polygon fill="#63b8ff" stroke="#63b8ff" points="1662.21,-302.68 1672.37,-299.68 1662.56,-295.69 1662.21,-302.68"/>
</a>
</g>
</g>
<!-- Node9 -->
<g id="Node000009" class="node">
<title>Node9</title>
<g id="a_Node000009"><a xlink:href="config__api__get_8cpp.html" target="_top" xlink:title=" ">
<polygon fill="white" stroke="#666666" points="1594.12,-41.75 1492.62,-41.75 1492.62,0 1594.12,0 1594.12,-41.75"/>
<text text-anchor="start" x="1500.62" y="-28.25" font-family="Helvetica,sans-Serif" font-size="10.00">sourcecode/dbe/src</text>
<text text-anchor="start" x="1500.62" y="-17" font-family="Helvetica,sans-Serif" font-size="10.00">/internal/config_api</text>
<text text-anchor="middle" x="1543.38" y="-5.75" font-family="Helvetica,sans-Serif" font-size="10.00">_get.cpp</text>
</a>
</g>
</g>
<!-- Node1&#45;&gt;Node9 -->
<g id="edge30_Node000001_Node000009" class="edge">
<title>Node1&#45;&gt;Node9</title>
<g id="a_edge30_Node000001_Node000009"><a xlink:title=" ">
<path fill="none" stroke="#63b8ff" d="M1662.53,-295.43C1633.32,-288.77 1601.64,-276.2 1581.38,-252.5 1528.9,-191.12 1535.04,-85.81 1540.38,-41.96"/>
<polygon fill="#63b8ff" stroke="#63b8ff" points="1661.6,-298.81 1672.1,-297.39 1663.01,-291.95 1661.6,-298.81"/>
</a>
</g>
</g>
<!-- Node11 -->
<g id="Node000011" class="node">
<title>Node11</title>
<g id="a_Node000011"><a xlink:href="config__api__set_8cpp.html" target="_top" xlink:title=" ">
<polygon fill="white" stroke="#666666" points="1714.12,-41.75 1612.62,-41.75 1612.62,0 1714.12,0 1714.12,-41.75"/>
<text text-anchor="start" x="1620.62" y="-28.25" font-family="Helvetica,sans-Serif" font-size="10.00">sourcecode/dbe/src</text>
<text text-anchor="start" x="1620.62" y="-17" font-family="Helvetica,sans-Serif" font-size="10.00">/internal/config_api</text>
<text text-anchor="middle" x="1663.38" y="-5.75" font-family="Helvetica,sans-Serif" font-size="10.00">_set.cpp</text>
</a>
</g>
</g>
<!-- Node1&#45;&gt;Node11 -->
<g id="edge31_Node000001_Node000011" class="edge">
<title>Node1&#45;&gt;Node11</title>
<g id="a_edge31_Node000001_Node000011"><a xlink:title=" ">
<path fill="none" stroke="#63b8ff" d="M1662.66,-292.63C1638.87,-285.47 1614.74,-273.28 1600.38,-252.5 1553.77,-185.07 1616.57,-84.42 1647.71,-41.94"/>
<polygon fill="#63b8ff" stroke="#63b8ff" points="1661.51,-295.94 1672.07,-295.18 1663.34,-289.19 1661.51,-295.94"/>
</a>
</g>
</g>
<!-- Node21 -->
<g id="Node000021" class="node">
<title>Node21</title>
<g id="a_Node000021"><a xlink:href="Conversion_8cpp.html" target="_top" xlink:title=" ">
<polygon fill="white" stroke="#666666" points="1729.5,-246.88 1609.25,-246.88 1609.25,-216.38 1729.5,-216.38 1729.5,-246.88"/>
<text text-anchor="start" x="1617.25" y="-233.38" font-family="Helvetica,sans-Serif" font-size="10.00">sourcecode/dbe/src</text>
<text text-anchor="middle" x="1669.38" y="-222.12" font-family="Helvetica,sans-Serif" font-size="10.00">/internal/Conversion.cpp</text>
</a>
</g>
</g>
<!-- Node1&#45;&gt;Node21 -->
<g id="edge29_Node000001_Node000021" class="edge">
<title>Node1&#45;&gt;Node21</title>
<g id="a_edge29_Node000001_Node000021"><a xlink:title=" ">
<path fill="none" stroke="#63b8ff" d="M1712.64,-280.03C1702.78,-269.23 1691.28,-256.63 1682.62,-247.14"/>
<polygon fill="#63b8ff" stroke="#63b8ff" points="1709.77,-282.08 1719.09,-287.1 1714.94,-277.36 1709.77,-282.08"/>
</a>
</g>
</g>
<!-- Node22 -->
<g id="Node000022" class="node">
<title>Node22</title>
<g id="a_Node000022"><a xlink:href="config__ui__info_8cpp.html" target="_top" xlink:title=" ">
<polygon fill="white" stroke="#666666" points="1849.12,-252.5 1747.62,-252.5 1747.62,-210.75 1849.12,-210.75 1849.12,-252.5"/>
<text text-anchor="start" x="1755.62" y="-239" font-family="Helvetica,sans-Serif" font-size="10.00">sourcecode/dbe/src</text>
<text text-anchor="start" x="1755.62" y="-227.75" font-family="Helvetica,sans-Serif" font-size="10.00">/internal/config_ui</text>
<text text-anchor="middle" x="1798.38" y="-216.5" font-family="Helvetica,sans-Serif" font-size="10.00">_info.cpp</text>
</a>
</g>
</g>
<!-- Node1&#45;&gt;Node22 -->
<g id="edge32_Node000001_Node000022" class="edge">
<title>Node1&#45;&gt;Node22</title>
<g id="a_edge32_Node000001_Node000022"><a xlink:title=" ">
<path fill="none" stroke="#63b8ff" d="M1754.46,-280C1762.52,-271.3 1771.66,-261.45 1779.5,-252.99"/>
<polygon fill="#63b8ff" stroke="#63b8ff" points="1752.1,-277.4 1747.87,-287.11 1757.24,-282.16 1752.1,-277.4"/>
</a>
</g>
</g>
<!-- Node23 -->
<g id="Node000023" class="node">
<title>Node23</title>
<g id="a_Node000023"><a xlink:href="datahandler_8cpp.html" target="_top" xlink:title=" ">
<polygon fill="white" stroke="#666666" points="1989.25,-246.88 1867.5,-246.88 1867.5,-216.38 1989.25,-216.38 1989.25,-246.88"/>
<text text-anchor="start" x="1875.5" y="-233.38" font-family="Helvetica,sans-Serif" font-size="10.00">sourcecode/dbe/src</text>
<text text-anchor="middle" x="1928.38" y="-222.12" font-family="Helvetica,sans-Serif" font-size="10.00">/internal/datahandler.cpp</text>
</a>
</g>
</g>
<!-- Node1&#45;&gt;Node23 -->
<g id="edge33_Node000001_Node000023" class="edge">
<title>Node1&#45;&gt;Node23</title>
<g id="a_edge33_Node000001_Node000023"><a xlink:title=" ">
<path fill="none" stroke="#63b8ff" d="M1784.78,-284.26C1816.89,-272.72 1857.66,-258.05 1887.55,-247.31"/>
<polygon fill="#63b8ff" stroke="#63b8ff" points="1783.9,-280.86 1775.68,-287.54 1786.27,-287.45 1783.9,-280.86"/>
</a>
</g>
</g>
<!-- Node24 -->
<g id="Node000024" class="node">
<title>Node24</title>
<g id="a_Node000024"><a xlink:href="rwdacc_8cpp.html" target="_top" xlink:title=" ">
<polygon fill="white" stroke="#666666" points="2109.88,-246.88 2006.88,-246.88 2006.88,-216.38 2109.88,-216.38 2109.88,-246.88"/>
<text text-anchor="start" x="2014.88" y="-233.38" font-family="Helvetica,sans-Serif" font-size="10.00">sourcecode/dbe/src</text>
<text text-anchor="middle" x="2058.38" y="-222.12" font-family="Helvetica,sans-Serif" font-size="10.00">/internal/rwdacc.cpp</text>
</a>
</g>
</g>
<!-- Node1&#45;&gt;Node24 -->
<g id="edge34_Node000001_Node000024" class="edge">
<title>Node1&#45;&gt;Node24</title>
<g id="a_edge34_Node000001_Node000024"><a xlink:title=" ">
<path fill="none" stroke="#63b8ff" d="M1804.2,-291.94C1857.9,-283.12 1933.31,-269.37 1998.38,-252.5 2004.22,-250.99 2010.32,-249.2 2016.3,-247.34"/>
<polygon fill="#63b8ff" stroke="#63b8ff" points="1803.88,-288.45 1794.57,-293.51 1805,-295.36 1803.88,-288.45"/>
</a>
</g>
</g>
<!-- Node25 -->
<g id="Node000025" class="node">
<title>Node25</title>
<g id="a_Node000025"><a xlink:href="table_8cpp.html" target="_top" xlink:title=" ">
<polygon fill="white" stroke="#666666" points="2229.12,-246.88 2127.62,-246.88 2127.62,-216.38 2229.12,-216.38 2229.12,-246.88"/>
<text text-anchor="start" x="2135.62" y="-233.38" font-family="Helvetica,sans-Serif" font-size="10.00">sourcecode/dbe/src</text>
<text text-anchor="middle" x="2178.38" y="-222.12" font-family="Helvetica,sans-Serif" font-size="10.00">/structure/table.cpp</text>
</a>
</g>
</g>
<!-- Node1&#45;&gt;Node25 -->
<g id="edge35_Node000001_Node000025" class="edge">
<title>Node1&#45;&gt;Node25</title>
<g id="a_edge35_Node000001_Node000025"><a xlink:title=" ">
<path fill="none" stroke="#63b8ff" d="M1804.33,-297.7C1882.33,-291.17 2010.96,-277.56 2119.38,-252.5 2125.48,-251.09 2131.85,-249.3 2138.05,-247.37"/>
<polygon fill="#63b8ff" stroke="#63b8ff" points="1804.39,-294.18 1794.71,-298.48 1804.96,-301.16 1804.39,-294.18"/>
</a>
</g>
</g>
<!-- Node3 -->
<g id="Node000003" class="node">
<title>Node3</title>
<g id="a_Node000003"><a xlink:href="change__attribute_8hpp.html" target="_top" xlink:title=" ">
<polygon fill="white" stroke="#666666" points="648.25,-174.75 520.5,-174.75 520.5,-144.25 648.25,-144.25 648.25,-174.75"/>
<text text-anchor="start" x="528.5" y="-161.25" font-family="Helvetica,sans-Serif" font-size="10.00">sourcecode/dbe/include</text>
<text text-anchor="middle" x="584.38" y="-150" font-family="Helvetica,sans-Serif" font-size="10.00">/dbe/change_attribute.hpp</text>
</a>
</g>
</g>
<!-- Node2&#45;&gt;Node3 -->
<g id="edge2_Node000002_Node000003" class="edge">
<title>Node2&#45;&gt;Node3</title>
<g id="a_edge2_Node000002_Node000003"><a xlink:title=" ">
<path fill="none" stroke="#63b8ff" d="M400.86,-212.81C441.72,-201.17 494.43,-186.14 532.87,-175.18"/>
<polygon fill="#63b8ff" stroke="#63b8ff" points="400.06,-209.4 391.4,-215.51 401.98,-216.13 400.06,-209.4"/>
</a>
</g>
</g>
<!-- Node6 -->
<g id="Node000006" class="node">
<title>Node6</title>
<g id="a_Node000006"><a xlink:href="MainWindow_8cpp.html" target="_top" xlink:title=" ">
<polygon fill="white" stroke="#666666" points="1474.88,-36.12 1347.88,-36.12 1347.88,-5.62 1474.88,-5.62 1474.88,-36.12"/>
<text text-anchor="start" x="1355.88" y="-22.62" font-family="Helvetica,sans-Serif" font-size="10.00">sourcecode/dbe/src</text>
<text text-anchor="middle" x="1411.38" y="-11.38" font-family="Helvetica,sans-Serif" font-size="10.00">/internal/MainWindow.cpp</text>
</a>
</g>
</g>
<!-- Node2&#45;&gt;Node6 -->
<g id="edge27_Node000002_Node000006" class="edge">
<title>Node2&#45;&gt;Node6</title>
<g id="a_edge27_Node000002_Node000006"><a xlink:title=" ">
<path fill="none" stroke="#63b8ff" d="M409.39,-218.59C474.09,-207.54 572.23,-190.52 657.38,-174.75 960.6,-118.59 1038.07,-111.86 1338.38,-41.75 1345.15,-40.17 1352.26,-38.39 1359.25,-36.56"/>
<polygon fill="#63b8ff" stroke="#63b8ff" points="408.87,-215.13 399.6,-220.26 410.05,-222.03 408.87,-215.13"/>
</a>
</g>
</g>
<!-- Node8 -->
<g id="Node000008" class="node">
<title>Node8</title>
<g id="a_Node000008"><a xlink:href="config__api__commands_8cpp.html" target="_top" xlink:title=" ">
<polygon fill="white" stroke="#666666" points="302.12,-41.75 200.62,-41.75 200.62,0 302.12,0 302.12,-41.75"/>
<text text-anchor="start" x="208.62" y="-28.25" font-family="Helvetica,sans-Serif" font-size="10.00">sourcecode/dbe/src</text>
<text text-anchor="start" x="208.62" y="-17" font-family="Helvetica,sans-Serif" font-size="10.00">/internal/config_api</text>
<text text-anchor="middle" x="251.38" y="-5.75" font-family="Helvetica,sans-Serif" font-size="10.00">_commands.cpp</text>
</a>
</g>
</g>
<!-- Node2&#45;&gt;Node8 -->
<g id="edge28_Node000002_Node000008" class="edge">
<title>Node2&#45;&gt;Node8</title>
<g id="a_edge28_Node000002_Node000008"><a xlink:title=" ">
<path fill="none" stroke="#63b8ff" d="M322.45,-206.91C307.05,-182.97 284.08,-144.45 270.38,-108.25 262.06,-86.28 256.9,-59.72 254.09,-41.9"/>
<polygon fill="#63b8ff" stroke="#63b8ff" points="319.31,-208.51 327.71,-214.96 325.17,-204.68 319.31,-208.51"/>
</a>
</g>
</g>
<!-- Node16 -->
<g id="Node000016" class="node">
<title>Node16</title>
<g id="a_Node000016"><a xlink:href="change__class_8hpp.html" target="_top" xlink:title=" ">
<polygon fill="white" stroke="#666666" points="118.75,-108.25 0,-108.25 0,-77.75 118.75,-77.75 118.75,-108.25"/>
<text text-anchor="start" x="8" y="-94.75" font-family="Helvetica,sans-Serif" font-size="10.00">sourcecode/dbe/include</text>
<text text-anchor="middle" x="59.38" y="-83.5" font-family="Helvetica,sans-Serif" font-size="10.00">/dbe/change_class.hpp</text>
</a>
</g>
</g>
<!-- Node2&#45;&gt;Node16 -->
<g id="edge17_Node000002_Node000016" class="edge">
<title>Node2&#45;&gt;Node16</title>
<g id="a_edge17_Node000002_Node000016"><a xlink:title=" ">
<path fill="none" stroke="#63b8ff" d="M267.29,-228.8C181.13,-224.92 43.45,-212.77 11.38,-174.75 -6.29,-153.81 19.9,-125.58 40,-108.64"/>
<polygon fill="#63b8ff" stroke="#63b8ff" points="266.92,-232.29 277.06,-229.21 267.21,-225.3 266.92,-232.29"/>
</a>
</g>
</g>
<!-- Node17 -->
<g id="Node000017" class="node">
<title>Node17</title>
<g id="a_Node000017"><a xlink:href="change__date_8hpp.html" target="_top" xlink:title=" ">
<polygon fill="white" stroke="#666666" points="272.75,-174.75 154,-174.75 154,-144.25 272.75,-144.25 272.75,-174.75"/>
<text text-anchor="start" x="162" y="-161.25" font-family="Helvetica,sans-Serif" font-size="10.00">sourcecode/dbe/include</text>
<text text-anchor="middle" x="213.38" y="-150" font-family="Helvetica,sans-Serif" font-size="10.00">/dbe/change_date.hpp</text>
</a>
</g>
</g>
<!-- Node2&#45;&gt;Node17 -->
<g id="edge19_Node000002_Node000017" class="edge">
<title>Node2&#45;&gt;Node17</title>
<g id="a_edge19_Node000002_Node000017"><a xlink:title=" ">
<path fill="none" stroke="#63b8ff" d="M302.16,-210.31C282.13,-199.07 257.7,-185.37 239.54,-175.18"/>
<polygon fill="#63b8ff" stroke="#63b8ff" points="300.42,-213.34 310.85,-215.18 303.84,-207.24 300.42,-213.34"/>
</a>
</g>
</g>
<!-- Node18 -->
<g id="Node000018" class="node">
<title>Node18</title>
<g id="a_Node000018"><a xlink:href="change__enum_8hpp.html" target="_top" xlink:title=" ">
<polygon fill="white" stroke="#666666" points="534.75,-108.25 416,-108.25 416,-77.75 534.75,-77.75 534.75,-108.25"/>
<text text-anchor="start" x="424" y="-94.75" font-family="Helvetica,sans-Serif" font-size="10.00">sourcecode/dbe/include</text>
<text text-anchor="middle" x="475.38" y="-83.5" font-family="Helvetica,sans-Serif" font-size="10.00">/dbe/change_enum.hpp</text>
</a>
</g>
</g>
<!-- Node2&#45;&gt;Node18 -->
<g id="edge21_Node000002_Node000018" class="edge">
<title>Node2&#45;&gt;Node18</title>
<g id="a_edge21_Node000002_Node000018"><a xlink:title=" ">
<path fill="none" stroke="#63b8ff" d="M361.16,-207.9C389.49,-179.65 436.99,-132.28 460.82,-108.52"/>
<polygon fill="#63b8ff" stroke="#63b8ff" points="358.72,-205.4 354.11,-214.93 363.66,-210.35 358.72,-205.4"/>
</a>
</g>
</g>
<!-- Node19 -->
<g id="Node000019" class="node">
<title>Node19</title>
<g id="a_Node000019"><a xlink:href="change__time_8hpp.html" target="_top" xlink:title=" ">
<polygon fill="white" stroke="#666666" points="397.75,-108.25 279,-108.25 279,-77.75 397.75,-77.75 397.75,-108.25"/>
<text text-anchor="start" x="287" y="-94.75" font-family="Helvetica,sans-Serif" font-size="10.00">sourcecode/dbe/include</text>
<text text-anchor="middle" x="338.38" y="-83.5" font-family="Helvetica,sans-Serif" font-size="10.00">/dbe/change_time.hpp</text>
</a>
</g>
</g>
<!-- Node2&#45;&gt;Node19 -->
<g id="edge24_Node000002_Node000019" class="edge">
<title>Node2&#45;&gt;Node19</title>
<g id="a_edge24_Node000002_Node000019"><a xlink:title=" ">
<path fill="none" stroke="#63b8ff" d="M338.38,-204.53C338.38,-176.01 338.38,-131.36 338.38,-108.52"/>
<polygon fill="#63b8ff" stroke="#63b8ff" points="334.88,-204.49 338.38,-214.49 341.88,-204.49 334.88,-204.49"/>
</a>
</g>
</g>
<!-- Node20 -->
<g id="Node000020" class="node">
<title>Node20</title>
<g id="a_Node000020"><a xlink:href="Command_8cpp.html" target="_top" xlink:title=" ">
<polygon fill="white" stroke="#666666" points="136.25,-174.75 20.5,-174.75 20.5,-144.25 136.25,-144.25 136.25,-174.75"/>
<text text-anchor="start" x="28.5" y="-161.25" font-family="Helvetica,sans-Serif" font-size="10.00">sourcecode/dbe/src</text>
<text text-anchor="middle" x="78.38" y="-150" font-family="Helvetica,sans-Serif" font-size="10.00">/internal/Command.cpp</text>
</a>
</g>
</g>
<!-- Node2&#45;&gt;Node20 -->
<g id="edge26_Node000002_Node000020" class="edge">
<title>Node2&#45;&gt;Node20</title>
<g id="a_edge26_Node000002_Node000020"><a xlink:title=" ">
<path fill="none" stroke="#63b8ff" d="M272.88,-212.96C229.63,-201.29 173.61,-186.19 132.81,-175.18"/>
<polygon fill="#63b8ff" stroke="#63b8ff" points="271.84,-216.31 282.41,-215.53 273.67,-209.55 271.84,-216.31"/>
</a>
</g>
</g>
<!-- Node4 -->
<g id="Node000004" class="node">
<title>Node4</title>
<g id="a_Node000004"><a xlink:href="config__api_8hpp.html" target="_top" xlink:title=" ">
<polygon fill="white" stroke="#666666" points="939.75,-108.25 821,-108.25 821,-77.75 939.75,-77.75 939.75,-108.25"/>
<text text-anchor="start" x="829" y="-94.75" font-family="Helvetica,sans-Serif" font-size="10.00">sourcecode/dbe/include</text>
<text text-anchor="middle" x="880.38" y="-83.5" font-family="Helvetica,sans-Serif" font-size="10.00">/dbe/config_api.hpp</text>
</a>
</g>
</g>
<!-- Node3&#45;&gt;Node4 -->
<g id="edge3_Node000003_Node000004" class="edge">
<title>Node3&#45;&gt;Node4</title>
<g id="a_edge3_Node000003_Node000004"><a xlink:title=" ">
<path fill="none" stroke="#63b8ff" d="M659.68,-142.09C709.68,-131.2 774.4,-117.09 820.81,-106.98"/>
<polygon fill="#63b8ff" stroke="#63b8ff" points="659.11,-138.63 650.08,-144.18 660.6,-145.47 659.11,-138.63"/>
</a>
</g>
</g>
<!-- Node7 -->
<g id="Node000007" class="node">
<title>Node7</title>
<g id="a_Node000007"><a xlink:href="confaccessor_8cpp.html" target="_top" xlink:title=" ">
<polygon fill="white" stroke="#666666" points="450.38,-36.12 320.38,-36.12 320.38,-5.62 450.38,-5.62 450.38,-36.12"/>
<text text-anchor="start" x="328.38" y="-22.62" font-family="Helvetica,sans-Serif" font-size="10.00">sourcecode/dbe/src</text>
<text text-anchor="middle" x="385.38" y="-11.38" font-family="Helvetica,sans-Serif" font-size="10.00">/internal/confaccessor.cpp</text>
</a>
</g>
</g>
<!-- Node3&#45;&gt;Node7 -->
<g id="edge15_Node000003_Node000007" class="edge">
<title>Node3&#45;&gt;Node7</title>
<g id="a_edge15_Node000003_Node000007"><a xlink:title=" ">
<path fill="none" stroke="#63b8ff" d="M588.75,-132.49C590.15,-115.1 588.81,-92.74 576.38,-77.75 574.08,-74.98 493.98,-52.18 438.25,-36.57"/>
<polygon fill="#63b8ff" stroke="#63b8ff" points="585.28,-131.99 587.58,-142.33 592.23,-132.82 585.28,-131.99"/>
</a>
</g>
</g>
<!-- Node3&#45;&gt;Node8 -->
<g id="edge16_Node000003_Node000008" class="edge">
<title>Node3&#45;&gt;Node8</title>
<g id="a_edge16_Node000003_Node000008"><a xlink:title=" ">
<path fill="none" stroke="#63b8ff" d="M578.15,-133.06C572.3,-114.74 561.63,-90.99 543.38,-77.75 458.91,-16.49 412.81,-66.24 311.38,-41.75 308.49,-41.05 305.56,-40.28 302.6,-39.46"/>
<polygon fill="#63b8ff" stroke="#63b8ff" points="574.72,-133.8 580.85,-142.44 581.45,-131.86 574.72,-133.8"/>
</a>
</g>
</g>
<!-- Node5 -->
<g id="Node000005" class="node">
<title>Node5</title>
<g id="a_Node000005"><a xlink:href="gtool_8cpp.html" target="_top" xlink:title=" ">
<polygon fill="white" stroke="#666666" points="1329.88,-36.12 1220.88,-36.12 1220.88,-5.62 1329.88,-5.62 1329.88,-36.12"/>
<text text-anchor="start" x="1228.88" y="-22.62" font-family="Helvetica,sans-Serif" font-size="10.00">sourcecode/dbe/apps</text>
<text text-anchor="middle" x="1275.38" y="-11.38" font-family="Helvetica,sans-Serif" font-size="10.00">/graphtool/gtool.cpp</text>
</a>
</g>
</g>
<!-- Node4&#45;&gt;Node5 -->
<g id="edge4_Node000004_Node000005" class="edge">
<title>Node4&#45;&gt;Node5</title>
<g id="a_edge4_Node000004_Node000005"><a xlink:title=" ">
<path fill="none" stroke="#63b8ff" d="M951.33,-84.5C1018.97,-76.59 1123.4,-62.39 1212.38,-41.75 1218.74,-40.27 1225.4,-38.47 1231.9,-36.56"/>
<polygon fill="#63b8ff" stroke="#63b8ff" points="951.01,-81.01 941.48,-85.63 951.81,-87.97 951.01,-81.01"/>
</a>
</g>
</g>
<!-- Node4&#45;&gt;Node6 -->
<g id="edge5_Node000004_Node000006" class="edge">
<title>Node4&#45;&gt;Node6</title>
<g id="a_edge5_Node000004_Node000006"><a xlink:title=" ">
<path fill="none" stroke="#63b8ff" d="M951.31,-87.67C1041.77,-81.37 1202.72,-67.49 1338.38,-41.75 1345.86,-40.33 1353.7,-38.53 1361.35,-36.6"/>
<polygon fill="#63b8ff" stroke="#63b8ff" points="951.35,-84.16 941.61,-88.34 951.83,-91.15 951.35,-84.16"/>
</a>
</g>
</g>
<!-- Node4&#45;&gt;Node7 -->
<g id="edge6_Node000004_Node000007" class="edge">
<title>Node4&#45;&gt;Node7</title>
<g id="a_edge6_Node000004_Node000007"><a xlink:title=" ">
<path fill="none" stroke="#63b8ff" d="M809.24,-86.65C725.14,-79.59 581.21,-65.26 459.38,-41.75 451.8,-40.29 443.86,-38.47 436.11,-36.53"/>
<polygon fill="#63b8ff" stroke="#63b8ff" points="808.93,-90.13 819.19,-87.47 809.51,-83.16 808.93,-90.13"/>
</a>
</g>
</g>
<!-- Node4&#45;&gt;Node8 -->
<g id="edge7_Node000004_Node000008" class="edge">
<title>Node4&#45;&gt;Node8</title>
<g id="a_edge7_Node000004_Node000008"><a xlink:title=" ">
<path fill="none" stroke="#63b8ff" d="M809.36,-87.79C678.62,-79.7 404.7,-61.05 311.38,-41.75 308.47,-41.15 305.52,-40.46 302.55,-39.69"/>
<polygon fill="#63b8ff" stroke="#63b8ff" points="809.09,-91.28 819.28,-88.4 809.52,-84.29 809.09,-91.28"/>
</a>
</g>
</g>
<!-- Node4&#45;&gt;Node9 -->
<g id="edge8_Node000004_Node000009" class="edge">
<title>Node4&#45;&gt;Node9</title>
<g id="a_edge8_Node000004_Node000009"><a xlink:title=" ">
<path fill="none" stroke="#63b8ff" d="M951.37,-91.5C1064.9,-89.49 1293.81,-80.47 1483.38,-41.75 1486.28,-41.16 1489.24,-40.47 1492.2,-39.71"/>
<polygon fill="#63b8ff" stroke="#63b8ff" points="951.55,-87.99 941.61,-91.66 951.66,-94.99 951.55,-87.99"/>
</a>
</g>
</g>
<!-- Node10 -->
<g id="Node000010" class="node">
<title>Node10</title>
<g id="a_Node000010"><a xlink:href="config__api__info_8cpp.html" target="_top" xlink:title=" ">
<polygon fill="white" stroke="#666666" points="570.12,-41.75 468.62,-41.75 468.62,0 570.12,0 570.12,-41.75"/>
<text text-anchor="start" x="476.62" y="-28.25" font-family="Helvetica,sans-Serif" font-size="10.00">sourcecode/dbe/src</text>
<text text-anchor="start" x="476.62" y="-17" font-family="Helvetica,sans-Serif" font-size="10.00">/internal/config_api</text>
<text text-anchor="middle" x="519.38" y="-5.75" font-family="Helvetica,sans-Serif" font-size="10.00">_info.cpp</text>
</a>
</g>
</g>
<!-- Node4&#45;&gt;Node10 -->
<g id="edge9_Node000004_Node000010" class="edge">
<title>Node4&#45;&gt;Node10</title>
<g id="a_edge9_Node000004_Node000010"><a xlink:title=" ">
<path fill="none" stroke="#63b8ff" d="M809.6,-83.33C748.2,-75.06 657.2,-61.01 579.38,-41.75 576.5,-41.04 573.56,-40.26 570.61,-39.42"/>
<polygon fill="#63b8ff" stroke="#63b8ff" points="808.83,-86.76 819.21,-84.61 809.76,-79.82 808.83,-86.76"/>
</a>
</g>
</g>
<!-- Node4&#45;&gt;Node11 -->
<g id="edge10_Node000004_Node000011" class="edge">
<title>Node4&#45;&gt;Node11</title>
<g id="a_edge10_Node000004_Node000011"><a xlink:title=" ">
<path fill="none" stroke="#63b8ff" d="M951.46,-92.92C1081.95,-93.31 1367.91,-88.17 1603.38,-41.75 1606.28,-41.18 1609.24,-40.5 1612.21,-39.76"/>
<polygon fill="#63b8ff" stroke="#63b8ff" points="951.61,-89.42 941.59,-92.87 951.58,-96.42 951.61,-89.42"/>
</a>
</g>
</g>
<!-- Node12 -->
<g id="Node000012" class="node">
<title>Node12</title>
<g id="a_Node000012"><a xlink:href="tree_8cpp.html" target="_top" xlink:title=" ">
<polygon fill="white" stroke="#666666" points="690.12,-36.12 588.62,-36.12 588.62,-5.62 690.12,-5.62 690.12,-36.12"/>
<text text-anchor="start" x="596.62" y="-22.62" font-family="Helvetica,sans-Serif" font-size="10.00">sourcecode/dbe/src</text>
<text text-anchor="middle" x="639.38" y="-11.38" font-family="Helvetica,sans-Serif" font-size="10.00">/structure/tree.cpp</text>
</a>
</g>
</g>
<!-- Node4&#45;&gt;Node12 -->
<g id="edge11_Node000004_Node000012" class="edge">
<title>Node4&#45;&gt;Node12</title>
<g id="a_edge11_Node000004_Node000012"><a xlink:title=" ">
<path fill="none" stroke="#63b8ff" d="M813.88,-74.38C779.57,-65.07 737.1,-53.23 699.38,-41.75 694.02,-40.12 688.42,-38.35 682.88,-36.56"/>
<polygon fill="#63b8ff" stroke="#63b8ff" points="812.69,-77.68 823.26,-76.91 814.52,-70.92 812.69,-77.68"/>
</a>
</g>
</g>
<!-- Node13 -->
<g id="Node000013" class="node">
<title>Node13</title>
<g id="a_Node000013"><a xlink:href="BatchChangeWidget_8cpp.html" target="_top" xlink:title=" ">
<polygon fill="white" stroke="#666666" points="870.5,-36.12 708.25,-36.12 708.25,-5.62 870.5,-5.62 870.5,-36.12"/>
<text text-anchor="start" x="716.25" y="-22.62" font-family="Helvetica,sans-Serif" font-size="10.00">sourcecode/dbe/src</text>
<text text-anchor="middle" x="789.38" y="-11.38" font-family="Helvetica,sans-Serif" font-size="10.00">/widgets/BatchChangeWidget.cpp</text>
</a>
</g>
</g>
<!-- Node4&#45;&gt;Node13 -->
<g id="edge12_Node000004_Node000013" class="edge">
<title>Node4&#45;&gt;Node13</title>
<g id="a_edge12_Node000004_Node000013"><a xlink:title=" ">
<path fill="none" stroke="#63b8ff" d="M852.55,-70.56C838.17,-59.48 821.01,-46.25 808.21,-36.39"/>
<polygon fill="#63b8ff" stroke="#63b8ff" points="850.26,-73.21 860.32,-76.55 854.54,-67.67 850.26,-73.21"/>
</a>
</g>
</g>
<!-- Node14 -->
<g id="Node000014" class="node">
<title>Node14</title>
<g id="a_Node000014"><a xlink:href="BuildingBlockEditors_8cpp.html" target="_top" xlink:title=" ">
<polygon fill="white" stroke="#666666" points="1051.88,-36.12 888.88,-36.12 888.88,-5.62 1051.88,-5.62 1051.88,-36.12"/>
<text text-anchor="start" x="896.88" y="-22.62" font-family="Helvetica,sans-Serif" font-size="10.00">sourcecode/dbe/src</text>
<text text-anchor="middle" x="970.38" y="-11.38" font-family="Helvetica,sans-Serif" font-size="10.00">/widgets/BuildingBlockEditors.cpp</text>
</a>
</g>
</g>
<!-- Node4&#45;&gt;Node14 -->
<g id="edge13_Node000004_Node000014" class="edge">
<title>Node4&#45;&gt;Node14</title>
<g id="a_edge13_Node000004_Node000014"><a xlink:title=" ">
<path fill="none" stroke="#63b8ff" d="M907.89,-70.56C922.11,-59.48 939.09,-46.25 951.75,-36.39"/>
<polygon fill="#63b8ff" stroke="#63b8ff" points="905.95,-67.63 900.22,-76.54 910.26,-73.15 905.95,-67.63"/>
</a>
</g>
</g>
<!-- Node15 -->
<g id="Node000015" class="node">
<title>Node15</title>
<g id="a_Node000015"><a xlink:href="ObjectCreator_8cpp.html" target="_top" xlink:title=" ">
<polygon fill="white" stroke="#666666" points="1203.25,-36.12 1069.5,-36.12 1069.5,-5.62 1203.25,-5.62 1203.25,-36.12"/>
<text text-anchor="start" x="1077.5" y="-22.62" font-family="Helvetica,sans-Serif" font-size="10.00">sourcecode/dbe/src</text>
<text text-anchor="middle" x="1136.38" y="-11.38" font-family="Helvetica,sans-Serif" font-size="10.00">/widgets/ObjectCreator.cpp</text>
</a>
</g>
</g>
<!-- Node4&#45;&gt;Node15 -->
<g id="edge14_Node000004_Node000015" class="edge">
<title>Node4&#45;&gt;Node15</title>
<g id="a_edge14_Node000004_Node000015"><a xlink:title=" ">
<path fill="none" stroke="#63b8ff" d="M945.13,-74.26C987.68,-62.61 1042.69,-47.54 1082.78,-36.56"/>
<polygon fill="#63b8ff" stroke="#63b8ff" points="944.22,-70.88 935.5,-76.9 946.07,-77.63 944.22,-70.88"/>
</a>
</g>
</g>
<!-- Node16&#45;&gt;Node8 -->
<g id="edge18_Node000016_Node000008" class="edge">
<title>Node16&#45;&gt;Node8</title>
<g id="a_edge18_Node000016_Node000008"><a xlink:title=" ">
<path fill="none" stroke="#63b8ff" d="M110.31,-73.4C138.09,-63.25 172.38,-50.73 200.2,-40.57"/>
<polygon fill="#63b8ff" stroke="#63b8ff" points="109.24,-70.06 101.05,-76.78 111.64,-76.64 109.24,-70.06"/>
</a>
</g>
</g>
<!-- Node17&#45;&gt;Node8 -->
<g id="edge20_Node000017_Node000008" class="edge">
<title>Node17&#45;&gt;Node8</title>
<g id="a_edge20_Node000017_Node000008"><a xlink:title=" ">
<path fill="none" stroke="#63b8ff" d="M220.49,-132.91C227.8,-106.63 239.03,-66.26 245.74,-42.13"/>
<polygon fill="#63b8ff" stroke="#63b8ff" points="217.15,-131.85 217.85,-142.42 223.9,-133.72 217.15,-131.85"/>
</a>
</g>
</g>
<!-- Node18&#45;&gt;Node7 -->
<g id="edge22_Node000018_Node000007" class="edge">
<title>Node18&#45;&gt;Node7</title>
<g id="a_edge22_Node000018_Node000007"><a xlink:title=" ">
<path fill="none" stroke="#63b8ff" d="M447.86,-70.56C433.64,-59.48 416.66,-46.25 404,-36.39"/>
<polygon fill="#63b8ff" stroke="#63b8ff" points="445.49,-73.15 455.53,-76.54 449.8,-67.63 445.49,-73.15"/>
</a>
</g>
</g>
<!-- Node18&#45;&gt;Node8 -->
<g id="edge23_Node000018_Node000008" class="edge">
<title>Node18&#45;&gt;Node8</title>
<g id="a_edge23_Node000018_Node000008"><a xlink:title=" ">
<path fill="none" stroke="#63b8ff" d="M415.8,-74.1C384.64,-64.65 345.89,-52.75 311.38,-41.75 308.45,-40.82 305.44,-39.85 302.41,-38.87"/>
<polygon fill="#63b8ff" stroke="#63b8ff" points="414.45,-77.35 425.04,-76.9 416.48,-70.65 414.45,-77.35"/>
</a>
</g>
</g>
<!-- Node19&#45;&gt;Node8 -->
<g id="edge25_Node000019_Node000008" class="edge">
<title>Node19&#45;&gt;Node8</title>
<g id="a_edge25_Node000019_Node000008"><a xlink:title=" ">
<path fill="none" stroke="#63b8ff" d="M311.49,-70.33C300.38,-61.38 287.57,-51.05 276.64,-42.24"/>
<polygon fill="#63b8ff" stroke="#63b8ff" points="309.19,-72.97 319.17,-76.52 313.58,-67.52 309.19,-72.97"/>
</a>
</g>
</g>
</g>
</svg>
