<?xml version="1.0" encoding="UTF-8" standalone="no"?>
<!DOCTYPE svg PUBLIC "-//W3C//DTD SVG 1.1//EN"
 "http://www.w3.org/Graphics/SVG/1.1/DTD/svg11.dtd">
<!-- Generated by graphviz version 9.0.0 (20230911.1827)
 -->
<!-- Title: sourcecode/coredal/pybindsrc/module.cpp Pages: 1 -->
<svg width="513pt" height="94pt"
 viewBox="0.00 0.00 513.00 93.75" xmlns="http://www.w3.org/2000/svg" xmlns:xlink="http://www.w3.org/1999/xlink">
<g id="graph0" class="graph" transform="scale(1 1) rotate(0) translate(4 89.75)">
<title>sourcecode/coredal/pybindsrc/module.cpp</title>
<!-- Node1 -->
<g id="Node000001" class="node">
<title>Node1</title>
<g id="a_Node000001"><a xlink:title=" ">
<polygon fill="#999999" stroke="#666666" points="275.88,-85.75 163.12,-85.75 163.12,-55.25 275.88,-55.25 275.88,-85.75"/>
<text text-anchor="start" x="171.12" y="-72.25" font-family="Helvetica,sans-Serif" font-size="10.00">sourcecode/coredal</text>
<text text-anchor="middle" x="219.5" y="-61" font-family="Helvetica,sans-Serif" font-size="10.00">/pybindsrc/module.cpp</text>
</a>
</g>
</g>
<!-- Node2 -->
<g id="Node000002" class="node">
<title>Node2</title>
<g id="a_Node000002"><a xlink:title=" ">
<polygon fill="#e0e0e0" stroke="#999999" points="103,-19.25 0,-19.25 0,0 103,0 103,-19.25"/>
<text text-anchor="middle" x="51.5" y="-5.75" font-family="Helvetica,sans-Serif" font-size="10.00">pybind11/pybind11.h</text>
</a>
</g>
</g>
<!-- Node1&#45;&gt;Node2 -->
<g id="edge1_Node000001_Node000002" class="edge">
<title>Node1&#45;&gt;Node2</title>
<g id="a_edge1_Node000001_Node000002"><a xlink:title=" ">
<path fill="none" stroke="#63b8ff" d="M177.54,-54.8C149.99,-45.14 114.3,-32.63 87.94,-23.4"/>
<polygon fill="#63b8ff" stroke="#63b8ff" points="89.29,-20.16 78.69,-20.15 86.97,-26.76 89.29,-20.16"/>
</a>
</g>
</g>
<!-- Node3 -->
<g id="Node000003" class="node">
<title>Node3</title>
<g id="a_Node000003"><a xlink:title=" ">
<polygon fill="#e0e0e0" stroke="#999999" points="196.12,-19.25 120.88,-19.25 120.88,0 196.12,0 196.12,-19.25"/>
<text text-anchor="middle" x="158.5" y="-5.75" font-family="Helvetica,sans-Serif" font-size="10.00">pybind11/stl.h</text>
</a>
</g>
</g>
<!-- Node1&#45;&gt;Node3 -->
<g id="edge2_Node000001_Node000003" class="edge">
<title>Node1&#45;&gt;Node3</title>
<g id="a_edge2_Node000001_Node000003"><a xlink:title=" ">
<path fill="none" stroke="#63b8ff" d="M204.42,-54.95C195.85,-46.67 185.07,-36.27 176.11,-27.62"/>
<polygon fill="#63b8ff" stroke="#63b8ff" points="178.62,-25.18 168.99,-20.75 173.76,-30.22 178.62,-25.18"/>
</a>
</g>
</g>
<!-- Node4 -->
<g id="Node000004" class="node">
<title>Node4</title>
<g id="a_Node000004"><a xlink:title=" ">
<polygon fill="#e0e0e0" stroke="#999999" points="348.38,-19.25 214.62,-19.25 214.62,0 348.38,0 348.38,-19.25"/>
<text text-anchor="middle" x="281.5" y="-5.75" font-family="Helvetica,sans-Serif" font-size="10.00">coredal/DaqApplication.hpp</text>
</a>
</g>
</g>
<!-- Node1&#45;&gt;Node4 -->
<g id="edge3_Node000001_Node000004" class="edge">
<title>Node1&#45;&gt;Node4</title>
<g id="a_edge3_Node000001_Node000004"><a xlink:title=" ">
<path fill="none" stroke="#63b8ff" d="M234.83,-54.95C243.54,-46.67 254.5,-36.27 263.6,-27.62"/>
<polygon fill="#63b8ff" stroke="#63b8ff" points="266,-30.17 270.84,-20.74 261.18,-25.09 266,-30.17"/>
</a>
</g>
</g>
<!-- Node5 -->
<g id="Node000005" class="node">
<title>Node5</title>
<g id="a_Node000005"><a xlink:title=" ">
<polygon fill="#e0e0e0" stroke="#999999" points="505,-19.25 366,-19.25 366,0 505,0 505,-19.25"/>
<text text-anchor="middle" x="435.5" y="-5.75" font-family="Helvetica,sans-Serif" font-size="10.00">coredal/HostComponent.hpp</text>
</a>
</g>
</g>
<!-- Node1&#45;&gt;Node5 -->
<g id="edge4_Node000001_Node000005" class="edge">
<title>Node1&#45;&gt;Node5</title>
<g id="a_edge4_Node000001_Node000005"><a xlink:title=" ">
<path fill="none" stroke="#63b8ff" d="M273.45,-54.8C309.71,-44.91 356.93,-32.04 391.03,-22.75"/>
<polygon fill="#63b8ff" stroke="#63b8ff" points="391.87,-26.15 400.6,-20.14 390.03,-19.39 391.87,-26.15"/>
</a>
</g>
</g>
</g>
</svg>
