<?xml version="1.0" encoding="UTF-8" standalone="no"?>
<!DOCTYPE svg PUBLIC "-//W3C//DTD SVG 1.1//EN"
 "http://www.w3.org/Graphics/SVG/1.1/DTD/svg11.dtd">
<!-- Generated by graphviz version 9.0.0 (20230911.1827)
 -->
<!-- Title: sourcecode/coredal/pybindsrc/dal_methods.cpp Pages: 1 -->
<svg width="1110pt" height="94pt"
 viewBox="0.00 0.00 1110.25 93.75" xmlns="http://www.w3.org/2000/svg" xmlns:xlink="http://www.w3.org/1999/xlink">
<g id="graph0" class="graph" transform="scale(1 1) rotate(0) translate(4 89.75)">
<title>sourcecode/coredal/pybindsrc/dal_methods.cpp</title>
<!-- Node1 -->
<g id="Node000001" class="node">
<title>Node1</title>
<g id="a_Node000001"><a xlink:title=" ">
<polygon fill="#999999" stroke="#666666" points="607,-85.75 470.25,-85.75 470.25,-55.25 607,-55.25 607,-85.75"/>
<text text-anchor="start" x="478.25" y="-72.25" font-family="Helvetica,sans-Serif" font-size="10.00">sourcecode/coredal</text>
<text text-anchor="middle" x="538.62" y="-61" font-family="Helvetica,sans-Serif" font-size="10.00">/pybindsrc/dal_methods.cpp</text>
</a>
</g>
</g>
<!-- Node2 -->
<g id="Node000002" class="node">
<title>Node2</title>
<g id="a_Node000002"><a xlink:title=" ">
<polygon fill="#e0e0e0" stroke="#999999" points="105.25,-19.25 0,-19.25 0,0 105.25,0 105.25,-19.25"/>
<text text-anchor="middle" x="52.62" y="-5.75" font-family="Helvetica,sans-Serif" font-size="10.00">pybind11/operators.h</text>
</a>
</g>
</g>
<!-- Node1&#45;&gt;Node2 -->
<g id="edge1_Node000001_Node000002" class="edge">
<title>Node1&#45;&gt;Node2</title>
<g id="a_edge1_Node000001_Node000002"><a xlink:title=" ">
<path fill="none" stroke="#63b8ff" d="M470.11,-61.89C388.44,-52.7 247.52,-36.51 116.91,-19.65"/>
<polygon fill="#63b8ff" stroke="#63b8ff" points="117.38,-16.19 107.02,-18.37 116.49,-23.13 117.38,-16.19"/>
</a>
</g>
</g>
<!-- Node3 -->
<g id="Node000003" class="node">
<title>Node3</title>
<g id="a_Node000003"><a xlink:title=" ">
<polygon fill="#e0e0e0" stroke="#999999" points="226.12,-19.25 123.12,-19.25 123.12,0 226.12,0 226.12,-19.25"/>
<text text-anchor="middle" x="174.62" y="-5.75" font-family="Helvetica,sans-Serif" font-size="10.00">pybind11/pybind11.h</text>
</a>
</g>
</g>
<!-- Node1&#45;&gt;Node3 -->
<g id="edge2_Node000001_Node000003" class="edge">
<title>Node1&#45;&gt;Node3</title>
<g id="a_edge2_Node000001_Node000003"><a xlink:title=" ">
<path fill="none" stroke="#63b8ff" d="M470.16,-58.43C403.43,-47.63 302.78,-31.35 237.89,-20.86"/>
<polygon fill="#63b8ff" stroke="#63b8ff" points="238.52,-17.41 228.09,-19.27 237.4,-24.32 238.52,-17.41"/>
</a>
</g>
</g>
<!-- Node4 -->
<g id="Node000004" class="node">
<title>Node4</title>
<g id="a_Node000004"><a xlink:title=" ">
<polygon fill="#e0e0e0" stroke="#999999" points="319.25,-19.25 244,-19.25 244,0 319.25,0 319.25,-19.25"/>
<text text-anchor="middle" x="281.62" y="-5.75" font-family="Helvetica,sans-Serif" font-size="10.00">pybind11/stl.h</text>
</a>
</g>
</g>
<!-- Node1&#45;&gt;Node4 -->
<g id="edge3_Node000001_Node000004" class="edge">
<title>Node1&#45;&gt;Node4</title>
<g id="a_edge3_Node000001_Node000004"><a xlink:title=" ">
<path fill="none" stroke="#63b8ff" d="M474.44,-54.8C429.86,-44.58 371.38,-31.19 330.56,-21.83"/>
<polygon fill="#63b8ff" stroke="#63b8ff" points="331.54,-18.47 321.01,-19.65 329.98,-25.29 331.54,-18.47"/>
</a>
</g>
</g>
<!-- Node5 -->
<g id="Node000005" class="node">
<title>Node5</title>
<g id="a_Node000005"><a xlink:title=" ">
<polygon fill="#e0e0e0" stroke="#999999" points="453.88,-19.25 337.38,-19.25 337.38,0 453.88,0 453.88,-19.25"/>
<text text-anchor="middle" x="395.62" y="-5.75" font-family="Helvetica,sans-Serif" font-size="10.00">coredal/Application.hpp</text>
</a>
</g>
</g>
<!-- Node1&#45;&gt;Node5 -->
<g id="edge4_Node000001_Node000005" class="edge">
<title>Node1&#45;&gt;Node5</title>
<g id="a_edge4_Node000001_Node000005"><a xlink:title=" ">
<path fill="none" stroke="#63b8ff" d="M502.91,-54.8C479.98,-45.35 450.44,-33.19 428.16,-24.02"/>
<polygon fill="#63b8ff" stroke="#63b8ff" points="429.53,-20.8 418.95,-20.23 426.87,-27.27 429.53,-20.8"/>
</a>
</g>
</g>
<!-- Node6 -->
<g id="Node000006" class="node">
<title>Node6</title>
<g id="a_Node000006"><a xlink:title=" ">
<polygon fill="#e0e0e0" stroke="#999999" points="605.5,-19.25 471.75,-19.25 471.75,0 605.5,0 605.5,-19.25"/>
<text text-anchor="middle" x="538.62" y="-5.75" font-family="Helvetica,sans-Serif" font-size="10.00">coredal/DaqApplication.hpp</text>
</a>
</g>
</g>
<!-- Node1&#45;&gt;Node6 -->
<g id="edge5_Node000001_Node000006" class="edge">
<title>Node1&#45;&gt;Node6</title>
<g id="a_edge5_Node000001_Node000006"><a xlink:title=" ">
<path fill="none" stroke="#63b8ff" d="M538.62,-54.95C538.62,-47.71 538.62,-38.84 538.62,-30.94"/>
<polygon fill="#63b8ff" stroke="#63b8ff" points="542.13,-31.21 538.63,-21.21 535.13,-31.21 542.13,-31.21"/>
</a>
</g>
</g>
<!-- Node7 -->
<g id="Node000007" class="node">
<title>Node7</title>
<g id="a_Node000007"><a xlink:title=" ">
<polygon fill="#e0e0e0" stroke="#999999" points="762.12,-19.25 623.12,-19.25 623.12,0 762.12,0 762.12,-19.25"/>
<text text-anchor="middle" x="692.62" y="-5.75" font-family="Helvetica,sans-Serif" font-size="10.00">coredal/HostComponent.hpp</text>
</a>
</g>
</g>
<!-- Node1&#45;&gt;Node7 -->
<g id="edge6_Node000001_Node000007" class="edge">
<title>Node1&#45;&gt;Node7</title>
<g id="a_edge6_Node000001_Node000007"><a xlink:title=" ">
<path fill="none" stroke="#63b8ff" d="M577.09,-54.8C602.12,-45.23 634.47,-32.86 658.57,-23.64"/>
<polygon fill="#63b8ff" stroke="#63b8ff" points="659.5,-27.03 667.59,-20.19 657,-20.5 659.5,-27.03"/>
</a>
</g>
</g>
<!-- Node8 -->
<g id="Node000008" class="node">
<title>Node8</title>
<g id="a_Node000008"><a xlink:title=" ">
<polygon fill="#e0e0e0" stroke="#999999" points="910.62,-19.25 780.62,-19.25 780.62,0 910.62,0 910.62,-19.25"/>
<text text-anchor="middle" x="845.62" y="-5.75" font-family="Helvetica,sans-Serif" font-size="10.00">coredal/RCApplication.hpp</text>
</a>
</g>
</g>
<!-- Node1&#45;&gt;Node8 -->
<g id="edge7_Node000001_Node000008" class="edge">
<title>Node1&#45;&gt;Node8</title>
<g id="a_edge7_Node000001_Node000008"><a xlink:title=" ">
<path fill="none" stroke="#63b8ff" d="M607.14,-56.36C661.19,-45.99 735.77,-31.69 787.07,-21.85"/>
<polygon fill="#63b8ff" stroke="#63b8ff" points="787.64,-25.31 796.8,-19.99 786.32,-18.43 787.64,-25.31"/>
</a>
</g>
</g>
<!-- Node9 -->
<g id="Node000009" class="node">
<title>Node9</title>
<g id="a_Node000009"><a xlink:title=" ">
<polygon fill="#e0e0e0" stroke="#999999" points="1032.5,-19.25 928.75,-19.25 928.75,0 1032.5,0 1032.5,-19.25"/>
<text text-anchor="middle" x="980.62" y="-5.75" font-family="Helvetica,sans-Serif" font-size="10.00">coredal/Session.hpp</text>
</a>
</g>
</g>
<!-- Node1&#45;&gt;Node9 -->
<g id="edge8_Node000001_Node000009" class="edge">
<title>Node1&#45;&gt;Node9</title>
<g id="a_edge8_Node000001_Node000009"><a xlink:title=" ">
<path fill="none" stroke="#63b8ff" d="M607.48,-60.62C681.42,-51.03 802.68,-35.18 917.31,-19.56"/>
<polygon fill="#63b8ff" stroke="#63b8ff" points="917.45,-23.07 926.89,-18.25 916.5,-16.13 917.45,-23.07"/>
</a>
</g>
</g>
<!-- Node10 -->
<g id="Node000010" class="node">
<title>Node10</title>
<g id="a_Node000010"><a xlink:title=" ">
<polygon fill="#e0e0e0" stroke="#999999" points="1102.25,-19.25 1051,-19.25 1051,0 1102.25,0 1102.25,-19.25"/>
<text text-anchor="middle" x="1076.62" y="-5.75" font-family="Helvetica,sans-Serif" font-size="10.00">sstream</text>
</a>
</g>
</g>
<!-- Node1&#45;&gt;Node10 -->
<g id="edge9_Node000001_Node000010" class="edge">
<title>Node1&#45;&gt;Node10</title>
<g id="a_edge9_Node000001_Node000010"><a xlink:title=" ">
<path fill="none" stroke="#63b8ff" d="M607.38,-65.73C702.45,-59.84 879.5,-46.39 1039.7,-19.33"/>
<polygon fill="#63b8ff" stroke="#63b8ff" points="1039.96,-22.84 1049.23,-17.7 1038.78,-15.94 1039.96,-22.84"/>
</a>
</g>
</g>
</g>
</svg>
