<?xml version="1.0" encoding="UTF-8" standalone="no"?>
<!DOCTYPE svg PUBLIC "-//W3C//DTD SVG 1.1//EN"
 "http://www.w3.org/Graphics/SVG/1.1/DTD/svg11.dtd">
<!-- Generated by graphviz version 9.0.0 (20230911.1827)
 -->
<!-- Title: sourcecode/dbe/include/dbe/CreateDatabaseWidget.hpp Pages: 1 -->
<svg width="374pt" height="94pt"
 viewBox="0.00 0.00 373.75 93.75" xmlns="http://www.w3.org/2000/svg" xmlns:xlink="http://www.w3.org/1999/xlink">
<g id="graph0" class="graph" transform="scale(1 1) rotate(0) translate(4 89.75)">
<title>sourcecode/dbe/include/dbe/CreateDatabaseWidget.hpp</title>
<!-- Node1 -->
<g id="Node000001" class="node">
<title>Node1</title>
<g id="a_Node000001"><a xlink:title=" ">
<polygon fill="#999999" stroke="#666666" points="221.5,-85.75 66,-85.75 66,-55.25 221.5,-55.25 221.5,-85.75"/>
<text text-anchor="start" x="74" y="-72.25" font-family="Helvetica,sans-Serif" font-size="10.00">sourcecode/dbe/include</text>
<text text-anchor="middle" x="143.75" y="-61" font-family="Helvetica,sans-Serif" font-size="10.00">/dbe/CreateDatabaseWidget.hpp</text>
</a>
</g>
</g>
<!-- Node2 -->
<g id="Node000002" class="node">
<title>Node2</title>
<g id="a_Node000002"><a xlink:title=" ">
<polygon fill="#e0e0e0" stroke="#999999" points="53.5,-19.25 0,-19.25 0,0 53.5,0 53.5,-19.25"/>
<text text-anchor="middle" x="26.75" y="-5.75" font-family="Helvetica,sans-Serif" font-size="10.00">QWidget</text>
</a>
</g>
</g>
<!-- Node1&#45;&gt;Node2 -->
<g id="edge1_Node000001_Node000002" class="edge">
<title>Node1&#45;&gt;Node2</title>
<g id="a_edge1_Node000001_Node000002"><a xlink:title=" ">
<path fill="none" stroke="#63b8ff" d="M114.53,-54.8C96.28,-45.61 72.92,-33.86 54.88,-24.78"/>
<polygon fill="#63b8ff" stroke="#63b8ff" points="56.55,-21.7 46.05,-20.33 53.4,-27.96 56.55,-21.7"/>
</a>
</g>
</g>
<!-- Node3 -->
<g id="Node000003" class="node">
<title>Node3</title>
<g id="a_Node000003"><a xlink:title=" ">
<polygon fill="#e0e0e0" stroke="#999999" points="138.25,-19.25 71.25,-19.25 71.25,0 138.25,0 138.25,-19.25"/>
<text text-anchor="middle" x="104.75" y="-5.75" font-family="Helvetica,sans-Serif" font-size="10.00">QStatusBar</text>
</a>
</g>
</g>
<!-- Node1&#45;&gt;Node3 -->
<g id="edge2_Node000001_Node000003" class="edge">
<title>Node1&#45;&gt;Node3</title>
<g id="a_edge2_Node000001_Node000003"><a xlink:title=" ">
<path fill="none" stroke="#63b8ff" d="M134.11,-54.95C128.97,-47.19 122.59,-37.56 117.1,-29.26"/>
<polygon fill="#63b8ff" stroke="#63b8ff" points="120.04,-27.37 111.6,-20.96 114.2,-31.23 120.04,-27.37"/>
</a>
</g>
</g>
<!-- Node4 -->
<g id="Node000004" class="node">
<title>Node4</title>
<g id="a_Node000004"><a xlink:title=" ">
<polygon fill="#e0e0e0" stroke="#999999" points="211.62,-19.25 155.88,-19.25 155.88,0 211.62,0 211.62,-19.25"/>
<text text-anchor="middle" x="183.75" y="-5.75" font-family="Helvetica,sans-Serif" font-size="10.00">QFileInfo</text>
</a>
</g>
</g>
<!-- Node1&#45;&gt;Node4 -->
<g id="edge3_Node000001_Node000004" class="edge">
<title>Node1&#45;&gt;Node4</title>
<g id="a_edge3_Node000001_Node000004"><a xlink:title=" ">
<path fill="none" stroke="#63b8ff" d="M153.64,-54.95C158.97,-47.1 165.6,-37.35 171.28,-28.99"/>
<polygon fill="#63b8ff" stroke="#63b8ff" points="174.01,-31.19 176.73,-20.95 168.22,-27.26 174.01,-31.19"/>
</a>
</g>
</g>
<!-- Node5 -->
<g id="Node000005" class="node">
<title>Node5</title>
<g id="a_Node000005"><a xlink:title=" ">
<polygon fill="#e0e0e0" stroke="#999999" points="365.75,-19.25 229.75,-19.25 229.75,0 365.75,0 365.75,-19.25"/>
<text text-anchor="middle" x="297.75" y="-5.75" font-family="Helvetica,sans-Serif" font-size="10.00">ui_CreateDatabaseWidget.h</text>
</a>
</g>
</g>
<!-- Node1&#45;&gt;Node5 -->
<g id="edge4_Node000001_Node000005" class="edge">
<title>Node1&#45;&gt;Node5</title>
<g id="a_edge4_Node000001_Node000005"><a xlink:title=" ">
<path fill="none" stroke="#63b8ff" d="M182.21,-54.8C207.24,-45.23 239.6,-32.86 263.7,-23.64"/>
<polygon fill="#63b8ff" stroke="#63b8ff" points="264.63,-27.03 272.72,-20.19 262.13,-20.5 264.63,-27.03"/>
</a>
</g>
</g>
</g>
</svg>
