<?xml version="1.0" encoding="UTF-8" standalone="no"?>
<!DOCTYPE svg PUBLIC "-//W3C//DTD SVG 1.1//EN"
 "http://www.w3.org/Graphics/SVG/1.1/DTD/svg11.dtd">
<!-- Generated by graphviz version 9.0.0 (20230911.1827)
 -->
<!-- Title: sourcecode/timing/include/timing/CRTDesign.hpp Pages: 1 -->
<svg width="278pt" height="105pt"
 viewBox="0.00 0.00 277.88 105.00" xmlns="http://www.w3.org/2000/svg" xmlns:xlink="http://www.w3.org/1999/xlink">
<g id="graph0" class="graph" transform="scale(1 1) rotate(0) translate(4 101)">
<title>sourcecode/timing/include/timing/CRTDesign.hpp</title>
<!-- Node1 -->
<g id="Node000001" class="node">
<title>Node1</title>
<g id="a_Node000001"><a xlink:title=" ">
<polygon fill="#999999" stroke="#666666" points="206.5,-97 77.25,-97 77.25,-66.5 206.5,-66.5 206.5,-97"/>
<text text-anchor="start" x="85.25" y="-83.5" font-family="Helvetica,sans-Serif" font-size="10.00">sourcecode/timing/include</text>
<text text-anchor="middle" x="141.88" y="-72.25" font-family="Helvetica,sans-Serif" font-size="10.00">/timing/CRTDesign.hpp</text>
</a>
</g>
</g>
<!-- Node2 -->
<g id="Node000002" class="node">
<title>Node2</title>
<g id="a_Node000002"><a xlink:href="top__designs_8cpp.html" target="_top" xlink:title=" ">
<polygon fill="white" stroke="#666666" points="139.75,-30.5 0,-30.5 0,0 139.75,0 139.75,-30.5"/>
<text text-anchor="start" x="8" y="-17" font-family="Helvetica,sans-Serif" font-size="10.00">sourcecode/timing/pybindsrc</text>
<text text-anchor="middle" x="69.88" y="-5.75" font-family="Helvetica,sans-Serif" font-size="10.00">/top_designs.cpp</text>
</a>
</g>
</g>
<!-- Node1&#45;&gt;Node2 -->
<g id="edge1_Node000001_Node000002" class="edge">
<title>Node1&#45;&gt;Node2</title>
<g id="a_edge1_Node000001_Node000002"><a xlink:title=" ">
<path fill="none" stroke="#63b8ff" d="M117,-58.46C106.79,-49.32 95.25,-38.98 86.15,-30.83"/>
<polygon fill="#63b8ff" stroke="#63b8ff" points="114.63,-61.04 124.41,-65.1 119.3,-55.82 114.63,-61.04"/>
</a>
</g>
</g>
<!-- Node3 -->
<g id="Node000003" class="node">
<title>Node3</title>
<g id="a_Node000003"><a xlink:href="CRTDesign_8cpp.html" target="_top" xlink:title=" ">
<polygon fill="white" stroke="#666666" points="269.88,-30.5 157.88,-30.5 157.88,0 269.88,0 269.88,-30.5"/>
<text text-anchor="start" x="165.88" y="-17" font-family="Helvetica,sans-Serif" font-size="10.00">sourcecode/timing/src</text>
<text text-anchor="middle" x="213.88" y="-5.75" font-family="Helvetica,sans-Serif" font-size="10.00">/CRTDesign.cpp</text>
</a>
</g>
</g>
<!-- Node1&#45;&gt;Node3 -->
<g id="edge2_Node000001_Node000003" class="edge">
<title>Node1&#45;&gt;Node3</title>
<g id="a_edge2_Node000001_Node000003"><a xlink:title=" ">
<path fill="none" stroke="#63b8ff" d="M166.75,-58.46C176.96,-49.32 188.5,-38.98 197.6,-30.83"/>
<polygon fill="#63b8ff" stroke="#63b8ff" points="164.45,-55.82 159.34,-65.1 169.12,-61.04 164.45,-55.82"/>
</a>
</g>
</g>
</g>
</svg>
