<?xml version="1.0" encoding="UTF-8" standalone="no"?>
<!DOCTYPE svg PUBLIC "-//W3C//DTD SVG 1.1//EN"
 "http://www.w3.org/Graphics/SVG/1.1/DTD/svg11.dtd">
<!-- Generated by graphviz version 9.0.0 (20230911.1827)
 -->
<!-- Title: sourcecode/timing/include/timing/CRTNode.hpp Pages: 1 -->
<svg width="568pt" height="238pt"
 viewBox="0.00 0.00 567.88 238.00" xmlns="http://www.w3.org/2000/svg" xmlns:xlink="http://www.w3.org/1999/xlink">
<g id="graph0" class="graph" transform="scale(1 1) rotate(0) translate(4 234)">
<title>sourcecode/timing/include/timing/CRTNode.hpp</title>
<!-- Node1 -->
<g id="Node000001" class="node">
<title>Node1</title>
<g id="a_Node000001"><a xlink:title=" ">
<polygon fill="#999999" stroke="#666666" points="341.5,-230 212.25,-230 212.25,-199.5 341.5,-199.5 341.5,-230"/>
<text text-anchor="start" x="220.25" y="-216.5" font-family="Helvetica,sans-Serif" font-size="10.00">sourcecode/timing/include</text>
<text text-anchor="middle" x="276.88" y="-205.25" font-family="Helvetica,sans-Serif" font-size="10.00">/timing/CRTNode.hpp</text>
</a>
</g>
</g>
<!-- Node2 -->
<g id="Node000002" class="node">
<title>Node2</title>
<g id="a_Node000002"><a xlink:href="CRTDesign_8hpp.html" target="_top" xlink:title=" ">
<polygon fill="white" stroke="#666666" points="206.5,-97 77.25,-97 77.25,-66.5 206.5,-66.5 206.5,-97"/>
<text text-anchor="start" x="85.25" y="-83.5" font-family="Helvetica,sans-Serif" font-size="10.00">sourcecode/timing/include</text>
<text text-anchor="middle" x="141.88" y="-72.25" font-family="Helvetica,sans-Serif" font-size="10.00">/timing/CRTDesign.hpp</text>
</a>
</g>
</g>
<!-- Node1&#45;&gt;Node2 -->
<g id="edge1_Node000001_Node000002" class="edge">
<title>Node1&#45;&gt;Node2</title>
<g id="a_edge1_Node000001_Node000002"><a xlink:title=" ">
<path fill="none" stroke="#63b8ff" d="M200.71,-210.63C166.94,-204.97 130.11,-192.02 108.88,-163.5 93.59,-142.97 112.87,-114.36 127.74,-97.28"/>
<polygon fill="#63b8ff" stroke="#63b8ff" points="200.12,-214.08 210.52,-212.06 201.13,-207.16 200.12,-214.08"/>
</a>
</g>
</g>
<!-- Node5 -->
<g id="Node000005" class="node">
<title>Node5</title>
<g id="a_Node000005"><a xlink:href="CRTDesignInterface_8hpp.html" target="_top" xlink:title=" ">
<polygon fill="white" stroke="#666666" points="271.88,-163.5 117.88,-163.5 117.88,-133 271.88,-133 271.88,-163.5"/>
<text text-anchor="start" x="125.88" y="-150" font-family="Helvetica,sans-Serif" font-size="10.00">sourcecode/timing/include</text>
<text text-anchor="middle" x="194.88" y="-138.75" font-family="Helvetica,sans-Serif" font-size="10.00">/timing/CRTDesignInterface.hpp</text>
</a>
</g>
</g>
<!-- Node1&#45;&gt;Node5 -->
<g id="edge4_Node000001_Node000005" class="edge">
<title>Node1&#45;&gt;Node5</title>
<g id="a_edge4_Node000001_Node000005"><a xlink:title=" ">
<path fill="none" stroke="#63b8ff" d="M249.25,-192.02C237.45,-182.73 223.98,-172.15 213.41,-163.83"/>
<polygon fill="#63b8ff" stroke="#63b8ff" points="247.05,-194.75 257.08,-198.18 251.38,-189.24 247.05,-194.75"/>
</a>
</g>
</g>
<!-- Node6 -->
<g id="Node000006" class="node">
<title>Node6</title>
<g id="a_Node000006"><a xlink:href="endpoint_8cpp.html" target="_top" xlink:title=" ">
<polygon fill="white" stroke="#666666" points="429.75,-163.5 290,-163.5 290,-133 429.75,-133 429.75,-163.5"/>
<text text-anchor="start" x="298" y="-150" font-family="Helvetica,sans-Serif" font-size="10.00">sourcecode/timing/pybindsrc</text>
<text text-anchor="middle" x="359.88" y="-138.75" font-family="Helvetica,sans-Serif" font-size="10.00">/endpoint.cpp</text>
</a>
</g>
</g>
<!-- Node1&#45;&gt;Node6 -->
<g id="edge6_Node000001_Node000006" class="edge">
<title>Node1&#45;&gt;Node6</title>
<g id="a_edge6_Node000001_Node000006"><a xlink:title=" ">
<path fill="none" stroke="#63b8ff" d="M304.49,-192.29C316.52,-182.94 330.3,-172.23 341.12,-163.83"/>
<polygon fill="#63b8ff" stroke="#63b8ff" points="302.65,-189.29 296.9,-198.19 306.95,-194.81 302.65,-189.29"/>
</a>
</g>
</g>
<!-- Node7 -->
<g id="Node000007" class="node">
<title>Node7</title>
<g id="a_Node000007"><a xlink:href="CRTNode_8cpp.html" target="_top" xlink:title=" ">
<polygon fill="white" stroke="#666666" points="559.88,-163.5 447.88,-163.5 447.88,-133 559.88,-133 559.88,-163.5"/>
<text text-anchor="start" x="455.88" y="-150" font-family="Helvetica,sans-Serif" font-size="10.00">sourcecode/timing/src</text>
<text text-anchor="middle" x="503.88" y="-138.75" font-family="Helvetica,sans-Serif" font-size="10.00">/CRTNode.cpp</text>
</a>
</g>
</g>
<!-- Node1&#45;&gt;Node7 -->
<g id="edge7_Node000001_Node000007" class="edge">
<title>Node1&#45;&gt;Node7</title>
<g id="a_edge7_Node000001_Node000007"><a xlink:title=" ">
<path fill="none" stroke="#63b8ff" d="M339.4,-195.99C374.89,-185.9 418.79,-173.43 452.3,-163.9"/>
<polygon fill="#63b8ff" stroke="#63b8ff" points="338.79,-192.52 330.12,-198.62 340.7,-199.25 338.79,-192.52"/>
</a>
</g>
</g>
<!-- Node3 -->
<g id="Node000003" class="node">
<title>Node3</title>
<g id="a_Node000003"><a xlink:href="top__designs_8cpp.html" target="_top" xlink:title=" ">
<polygon fill="white" stroke="#666666" points="139.75,-30.5 0,-30.5 0,0 139.75,0 139.75,-30.5"/>
<text text-anchor="start" x="8" y="-17" font-family="Helvetica,sans-Serif" font-size="10.00">sourcecode/timing/pybindsrc</text>
<text text-anchor="middle" x="69.88" y="-5.75" font-family="Helvetica,sans-Serif" font-size="10.00">/top_designs.cpp</text>
</a>
</g>
</g>
<!-- Node2&#45;&gt;Node3 -->
<g id="edge2_Node000002_Node000003" class="edge">
<title>Node2&#45;&gt;Node3</title>
<g id="a_edge2_Node000002_Node000003"><a xlink:title=" ">
<path fill="none" stroke="#63b8ff" d="M117,-58.46C106.79,-49.32 95.25,-38.98 86.15,-30.83"/>
<polygon fill="#63b8ff" stroke="#63b8ff" points="114.63,-61.04 124.41,-65.1 119.3,-55.82 114.63,-61.04"/>
</a>
</g>
</g>
<!-- Node4 -->
<g id="Node000004" class="node">
<title>Node4</title>
<g id="a_Node000004"><a xlink:href="CRTDesign_8cpp.html" target="_top" xlink:title=" ">
<polygon fill="white" stroke="#666666" points="269.88,-30.5 157.88,-30.5 157.88,0 269.88,0 269.88,-30.5"/>
<text text-anchor="start" x="165.88" y="-17" font-family="Helvetica,sans-Serif" font-size="10.00">sourcecode/timing/src</text>
<text text-anchor="middle" x="213.88" y="-5.75" font-family="Helvetica,sans-Serif" font-size="10.00">/CRTDesign.cpp</text>
</a>
</g>
</g>
<!-- Node2&#45;&gt;Node4 -->
<g id="edge3_Node000002_Node000004" class="edge">
<title>Node2&#45;&gt;Node4</title>
<g id="a_edge3_Node000002_Node000004"><a xlink:title=" ">
<path fill="none" stroke="#63b8ff" d="M166.75,-58.46C176.96,-49.32 188.5,-38.98 197.6,-30.83"/>
<polygon fill="#63b8ff" stroke="#63b8ff" points="164.45,-55.82 159.34,-65.1 169.12,-61.04 164.45,-55.82"/>
</a>
</g>
</g>
<!-- Node5&#45;&gt;Node2 -->
<g id="edge5_Node000005_Node000002" class="edge">
<title>Node5&#45;&gt;Node2</title>
<g id="a_edge5_Node000005_Node000002"><a xlink:title=" ">
<path fill="none" stroke="#63b8ff" d="M175.65,-123.85C168.36,-114.98 160.28,-105.15 153.85,-97.33"/>
<polygon fill="#63b8ff" stroke="#63b8ff" points="172.83,-125.94 181.89,-131.44 178.24,-121.5 172.83,-125.94"/>
</a>
</g>
</g>
</g>
</svg>
