<?xml version="1.0" encoding="UTF-8" standalone="no"?>
<!DOCTYPE svg PUBLIC "-//W3C//DTD SVG 1.1//EN"
 "http://www.w3.org/Graphics/SVG/1.1/DTD/svg11.dtd">
<!-- Generated by graphviz version 9.0.0 (20230911.1827)
 -->
<!-- Title: sourcecode/dbe/include/dbe/CustomFileView.hpp Pages: 1 -->
<svg width="256pt" height="94pt"
 viewBox="0.00 0.00 255.50 93.75" xmlns="http://www.w3.org/2000/svg" xmlns:xlink="http://www.w3.org/1999/xlink">
<g id="graph0" class="graph" transform="scale(1 1) rotate(0) translate(4 89.75)">
<title>sourcecode/dbe/include/dbe/CustomFileView.hpp</title>
<!-- Node1 -->
<g id="Node000001" class="node">
<title>Node1</title>
<g id="a_Node000001"><a xlink:title=" ">
<polygon fill="#999999" stroke="#666666" points="188.12,-85.75 61.12,-85.75 61.12,-55.25 188.12,-55.25 188.12,-85.75"/>
<text text-anchor="start" x="69.12" y="-72.25" font-family="Helvetica,sans-Serif" font-size="10.00">sourcecode/dbe/include</text>
<text text-anchor="middle" x="124.62" y="-61" font-family="Helvetica,sans-Serif" font-size="10.00">/dbe/CustomFileView.hpp</text>
</a>
</g>
</g>
<!-- Node2 -->
<g id="Node000002" class="node">
<title>Node2</title>
<g id="a_Node000002"><a xlink:title=" ">
<polygon fill="#e0e0e0" stroke="#999999" points="69.25,-19.25 0,-19.25 0,0 69.25,0 69.25,-19.25"/>
<text text-anchor="middle" x="34.62" y="-5.75" font-family="Helvetica,sans-Serif" font-size="10.00">QTableView</text>
</a>
</g>
</g>
<!-- Node1&#45;&gt;Node2 -->
<g id="edge1_Node000001_Node000002" class="edge">
<title>Node1&#45;&gt;Node2</title>
<g id="a_edge1_Node000001_Node000002"><a xlink:title=" ">
<path fill="none" stroke="#63b8ff" d="M102.38,-54.95C88.81,-46.07 71.49,-34.74 57.76,-25.76"/>
<polygon fill="#63b8ff" stroke="#63b8ff" points="60.05,-23.08 49.77,-20.53 56.22,-28.93 60.05,-23.08"/>
</a>
</g>
</g>
<!-- Node3 -->
<g id="Node000003" class="node">
<title>Node3</title>
<g id="a_Node000003"><a xlink:title=" ">
<polygon fill="#e0e0e0" stroke="#999999" points="161.88,-19.25 87.38,-19.25 87.38,0 161.88,0 161.88,-19.25"/>
<text text-anchor="middle" x="124.62" y="-5.75" font-family="Helvetica,sans-Serif" font-size="10.00">QPushButton</text>
</a>
</g>
</g>
<!-- Node1&#45;&gt;Node3 -->
<g id="edge2_Node000001_Node000003" class="edge">
<title>Node1&#45;&gt;Node3</title>
<g id="a_edge2_Node000001_Node000003"><a xlink:title=" ">
<path fill="none" stroke="#63b8ff" d="M124.62,-54.95C124.62,-47.71 124.62,-38.84 124.62,-30.94"/>
<polygon fill="#63b8ff" stroke="#63b8ff" points="128.13,-31.21 124.63,-21.21 121.13,-31.21 128.13,-31.21"/>
</a>
</g>
</g>
<!-- Node4 -->
<g id="Node000004" class="node">
<title>Node4</title>
<g id="a_Node000004"><a xlink:title=" ">
<polygon fill="#e0e0e0" stroke="#999999" points="247.5,-19.25 179.75,-19.25 179.75,0 247.5,0 247.5,-19.25"/>
<text text-anchor="middle" x="213.62" y="-5.75" font-family="Helvetica,sans-Serif" font-size="10.00">QCheckBox</text>
</a>
</g>
</g>
<!-- Node1&#45;&gt;Node4 -->
<g id="edge3_Node000001_Node000004" class="edge">
<title>Node1&#45;&gt;Node4</title>
<g id="a_edge3_Node000001_Node000004"><a xlink:title=" ">
<path fill="none" stroke="#63b8ff" d="M146.63,-54.95C159.92,-46.15 176.84,-34.96 190.35,-26.02"/>
<polygon fill="#63b8ff" stroke="#63b8ff" points="192.23,-28.97 198.64,-20.54 188.37,-23.13 192.23,-28.97"/>
</a>
</g>
</g>
</g>
</svg>
