<?xml version="1.0" encoding="UTF-8" standalone="no"?>
<!DOCTYPE svg PUBLIC "-//W3C//DTD SVG 1.1//EN"
 "http://www.w3.org/Graphics/SVG/1.1/DTD/svg11.dtd">
<!-- Generated by graphviz version 9.0.0 (20230911.1827)
 -->
<!-- Title: sourcecode/dbe/include/dbe/CustomTableView.hpp Pages: 1 -->
<svg width="1335pt" height="238pt"
 viewBox="0.00 0.00 1334.62 238.00" xmlns="http://www.w3.org/2000/svg" xmlns:xlink="http://www.w3.org/1999/xlink">
<g id="graph0" class="graph" transform="scale(1 1) rotate(0) translate(4 234)">
<title>sourcecode/dbe/include/dbe/CustomTableView.hpp</title>
<!-- Node1 -->
<g id="Node000001" class="node">
<title>Node1</title>
<g id="a_Node000001"><a xlink:title=" ">
<polygon fill="#999999" stroke="#666666" points="707.38,-230 572.12,-230 572.12,-199.5 707.38,-199.5 707.38,-230"/>
<text text-anchor="start" x="580.12" y="-216.5" font-family="Helvetica,sans-Serif" font-size="10.00">sourcecode/dbe/include</text>
<text text-anchor="middle" x="639.75" y="-205.25" font-family="Helvetica,sans-Serif" font-size="10.00">/dbe/CustomTableView.hpp</text>
</a>
</g>
</g>
<!-- Node2 -->
<g id="Node000002" class="node">
<title>Node2</title>
<g id="a_Node000002"><a xlink:href="TableTab_8hpp.html" target="_top" xlink:title=" ">
<polygon fill="white" stroke="#666666" points="656.12,-163.5 537.38,-163.5 537.38,-133 656.12,-133 656.12,-163.5"/>
<text text-anchor="start" x="545.38" y="-150" font-family="Helvetica,sans-Serif" font-size="10.00">sourcecode/dbe/include</text>
<text text-anchor="middle" x="596.75" y="-138.75" font-family="Helvetica,sans-Serif" font-size="10.00">/dbe/TableTab.hpp</text>
</a>
</g>
</g>
<!-- Node1&#45;&gt;Node2 -->
<g id="edge1_Node000001_Node000002" class="edge">
<title>Node1&#45;&gt;Node2</title>
<g id="a_edge1_Node000001_Node000002"><a xlink:title=" ">
<path fill="none" stroke="#63b8ff" d="M623.78,-189.79C617.96,-181.07 611.58,-171.49 606.47,-163.83"/>
<polygon fill="#63b8ff" stroke="#63b8ff" points="620.69,-191.48 629.15,-197.85 626.52,-187.59 620.69,-191.48"/>
</a>
</g>
</g>
<!-- Node8 -->
<g id="Node000008" class="node">
<title>Node8</title>
<g id="a_Node000008"><a xlink:href="CustomTableView_8cpp.html" target="_top" xlink:title=" ">
<polygon fill="white" stroke="#666666" points="1326.62,-30.5 1168.88,-30.5 1168.88,0 1326.62,0 1326.62,-30.5"/>
<text text-anchor="start" x="1176.88" y="-17" font-family="Helvetica,sans-Serif" font-size="10.00">sourcecode/dbe/src</text>
<text text-anchor="middle" x="1247.75" y="-5.75" font-family="Helvetica,sans-Serif" font-size="10.00">/structure/CustomTableView.cpp</text>
</a>
</g>
</g>
<!-- Node1&#45;&gt;Node8 -->
<g id="edge13_Node000001_Node000008" class="edge">
<title>Node1&#45;&gt;Node8</title>
<g id="a_edge13_Node000001_Node000008"><a xlink:title=" ">
<path fill="none" stroke="#63b8ff" d="M695.67,-195.58C815.19,-156.76 1093.5,-66.36 1202.66,-30.9"/>
<polygon fill="#63b8ff" stroke="#63b8ff" points="694.82,-192.18 686.39,-198.6 696.98,-198.84 694.82,-192.18"/>
</a>
</g>
</g>
<!-- Node3 -->
<g id="Node000003" class="node">
<title>Node3</title>
<g id="a_Node000003"><a xlink:href="MainWindow_8hpp.html" target="_top" xlink:title=" ">
<polygon fill="white" stroke="#666666" points="656.12,-97 537.38,-97 537.38,-66.5 656.12,-66.5 656.12,-97"/>
<text text-anchor="start" x="545.38" y="-83.5" font-family="Helvetica,sans-Serif" font-size="10.00">sourcecode/dbe/include</text>
<text text-anchor="middle" x="596.75" y="-72.25" font-family="Helvetica,sans-Serif" font-size="10.00">/dbe/MainWindow.hpp</text>
</a>
</g>
</g>
<!-- Node2&#45;&gt;Node3 -->
<g id="edge2_Node000002_Node000003" class="edge">
<title>Node2&#45;&gt;Node3</title>
<g id="a_edge2_Node000002_Node000003"><a xlink:title=" ">
<path fill="none" stroke="#63b8ff" d="M596.75,-121.31C596.75,-113.14 596.75,-104.41 596.75,-97.33"/>
<polygon fill="#63b8ff" stroke="#63b8ff" points="593.25,-121.1 596.75,-131.1 600.25,-121.1 593.25,-121.1"/>
</a>
</g>
</g>
<!-- Node5 -->
<g id="Node000005" class="node">
<title>Node5</title>
<g id="a_Node000005"><a xlink:href="TableTab_8cpp.html" target="_top" xlink:title=" ">
<polygon fill="white" stroke="#666666" points="101.5,-30.5 0,-30.5 0,0 101.5,0 101.5,-30.5"/>
<text text-anchor="start" x="8" y="-17" font-family="Helvetica,sans-Serif" font-size="10.00">sourcecode/dbe/src</text>
<text text-anchor="middle" x="50.75" y="-5.75" font-family="Helvetica,sans-Serif" font-size="10.00">/TableTab.cpp</text>
</a>
</g>
</g>
<!-- Node2&#45;&gt;Node5 -->
<g id="edge12_Node000002_Node000005" class="edge">
<title>Node2&#45;&gt;Node5</title>
<g id="a_edge12_Node000002_Node000005"><a xlink:title=" ">
<path fill="none" stroke="#63b8ff" d="M525.98,-130.32C431.2,-107.65 257.79,-66.12 109.75,-30.5 107.19,-29.88 104.57,-29.25 101.92,-28.61"/>
<polygon fill="#63b8ff" stroke="#63b8ff" points="525.13,-133.72 535.67,-132.64 526.76,-126.91 525.13,-133.72"/>
</a>
</g>
</g>
<!-- Node4 -->
<g id="Node000004" class="node">
<title>Node4</title>
<g id="a_Node000004"><a xlink:href="Main_8cpp.html" target="_top" xlink:title=" ">
<polygon fill="white" stroke="#666666" points="228.25,-30.5 119.25,-30.5 119.25,0 228.25,0 228.25,-30.5"/>
<text text-anchor="start" x="127.25" y="-17" font-family="Helvetica,sans-Serif" font-size="10.00">sourcecode/dbe/apps</text>
<text text-anchor="middle" x="173.75" y="-5.75" font-family="Helvetica,sans-Serif" font-size="10.00">/Main.cpp</text>
</a>
</g>
</g>
<!-- Node3&#45;&gt;Node4 -->
<g id="edge3_Node000003_Node000004" class="edge">
<title>Node3&#45;&gt;Node4</title>
<g id="a_edge3_Node000003_Node000004"><a xlink:title=" ">
<path fill="none" stroke="#63b8ff" d="M525.64,-72.61C452.82,-63.85 336.48,-48.71 236.75,-30.5 234.1,-30.02 231.4,-29.5 228.67,-28.96"/>
<polygon fill="#63b8ff" stroke="#63b8ff" points="525.1,-76.07 535.44,-73.78 525.93,-69.12 525.1,-76.07"/>
</a>
</g>
</g>
<!-- Node3&#45;&gt;Node5 -->
<g id="edge4_Node000003_Node000005" class="edge">
<title>Node3&#45;&gt;Node5</title>
<g id="a_edge4_Node000003_Node000005"><a xlink:title=" ">
<path fill="none" stroke="#63b8ff" d="M525.97,-76.44C430.84,-69.96 256.66,-55.7 109.75,-30.5 107.15,-30.05 104.5,-29.56 101.83,-29.03"/>
<polygon fill="#63b8ff" stroke="#63b8ff" points="525.45,-79.91 535.67,-77.09 525.92,-72.93 525.45,-79.91"/>
</a>
</g>
</g>
<!-- Node6 -->
<g id="Node000006" class="node">
<title>Node6</title>
<g id="a_Node000006"><a xlink:href="GraphView_8cpp.html" target="_top" xlink:title=" ">
<polygon fill="white" stroke="#666666" points="373.25,-30.5 246.25,-30.5 246.25,0 373.25,0 373.25,-30.5"/>
<text text-anchor="start" x="254.25" y="-17" font-family="Helvetica,sans-Serif" font-size="10.00">sourcecode/dbe/src</text>
<text text-anchor="middle" x="309.75" y="-5.75" font-family="Helvetica,sans-Serif" font-size="10.00">/graphical/GraphView.cpp</text>
</a>
</g>
</g>
<!-- Node3&#45;&gt;Node6 -->
<g id="edge5_Node000003_Node000006" class="edge">
<title>Node3&#45;&gt;Node6</title>
<g id="a_edge5_Node000003_Node000006"><a xlink:title=" ">
<path fill="none" stroke="#63b8ff" d="M525.72,-64.79C479.15,-54.32 418.79,-40.76 373.72,-30.63"/>
<polygon fill="#63b8ff" stroke="#63b8ff" points="524.93,-68.2 535.46,-66.98 526.47,-61.37 524.93,-68.2"/>
</a>
</g>
</g>
<!-- Node7 -->
<g id="Node000007" class="node">
<title>Node7</title>
<g id="a_Node000007"><a xlink:href="MainWindow_8cpp.html" target="_top" xlink:title=" ">
<polygon fill="white" stroke="#666666" points="518.25,-30.5 391.25,-30.5 391.25,0 518.25,0 518.25,-30.5"/>
<text text-anchor="start" x="399.25" y="-17" font-family="Helvetica,sans-Serif" font-size="10.00">sourcecode/dbe/src</text>
<text text-anchor="middle" x="454.75" y="-5.75" font-family="Helvetica,sans-Serif" font-size="10.00">/internal/MainWindow.cpp</text>
</a>
</g>
</g>
<!-- Node3&#45;&gt;Node7 -->
<g id="edge6_Node000003_Node000007" class="edge">
<title>Node3&#45;&gt;Node7</title>
<g id="a_edge6_Node000003_Node000007"><a xlink:title=" ">
<path fill="none" stroke="#63b8ff" d="M554.29,-61.47C532.66,-51.64 506.79,-39.89 486.84,-30.83"/>
<polygon fill="#63b8ff" stroke="#63b8ff" points="552.6,-64.54 563.15,-65.49 555.49,-58.17 552.6,-64.54"/>
</a>
</g>
</g>
<!-- Node3&#45;&gt;Node8 -->
<g id="edge7_Node000003_Node000008" class="edge">
<title>Node3&#45;&gt;Node8</title>
<g id="a_edge7_Node000003_Node000008"><a xlink:title=" ">
<path fill="none" stroke="#63b8ff" d="M667.89,-76.1C775.03,-68.71 984.07,-52.81 1160.75,-30.5 1163.33,-30.17 1165.95,-29.83 1168.6,-29.47"/>
<polygon fill="#63b8ff" stroke="#63b8ff" points="667.84,-72.59 658.1,-76.77 668.32,-79.58 667.84,-72.59"/>
</a>
</g>
</g>
<!-- Node9 -->
<g id="Node000009" class="node">
<title>Node9</title>
<g id="a_Node000009"><a xlink:href="FileModel_8cpp.html" target="_top" xlink:title=" ">
<polygon fill="white" stroke="#666666" points="656.88,-30.5 536.62,-30.5 536.62,0 656.88,0 656.88,-30.5"/>
<text text-anchor="start" x="544.62" y="-17" font-family="Helvetica,sans-Serif" font-size="10.00">sourcecode/dbe/src</text>
<text text-anchor="middle" x="596.75" y="-5.75" font-family="Helvetica,sans-Serif" font-size="10.00">/structure/FileModel.cpp</text>
</a>
</g>
</g>
<!-- Node3&#45;&gt;Node9 -->
<g id="edge8_Node000003_Node000009" class="edge">
<title>Node3&#45;&gt;Node9</title>
<g id="a_edge8_Node000003_Node000009"><a xlink:title=" ">
<path fill="none" stroke="#63b8ff" d="M596.75,-54.81C596.75,-46.64 596.75,-37.91 596.75,-30.83"/>
<polygon fill="#63b8ff" stroke="#63b8ff" points="593.25,-54.6 596.75,-64.6 600.25,-54.6 593.25,-54.6"/>
</a>
</g>
</g>
<!-- Node10 -->
<g id="Node000010" class="node">
<title>Node10</title>
<g id="a_Node000010"><a xlink:href="BatchChangeWidget_8cpp.html" target="_top" xlink:title=" ">
<polygon fill="white" stroke="#666666" points="836.88,-30.5 674.62,-30.5 674.62,0 836.88,0 836.88,-30.5"/>
<text text-anchor="start" x="682.62" y="-17" font-family="Helvetica,sans-Serif" font-size="10.00">sourcecode/dbe/src</text>
<text text-anchor="middle" x="755.75" y="-5.75" font-family="Helvetica,sans-Serif" font-size="10.00">/widgets/BatchChangeWidget.cpp</text>
</a>
</g>
</g>
<!-- Node3&#45;&gt;Node10 -->
<g id="edge9_Node000003_Node000010" class="edge">
<title>Node3&#45;&gt;Node10</title>
<g id="a_edge9_Node000003_Node000010"><a xlink:title=" ">
<path fill="none" stroke="#63b8ff" d="M643.26,-61.88C667.59,-52.01 696.92,-40.11 719.54,-30.94"/>
<polygon fill="#63b8ff" stroke="#63b8ff" points="642.18,-58.54 634.23,-65.54 644.81,-65.03 642.18,-58.54"/>
</a>
</g>
</g>
<!-- Node11 -->
<g id="Node000011" class="node">
<title>Node11</title>
<g id="a_Node000011"><a xlink:href="IncludeFileWidget_8cpp.html" target="_top" xlink:title=" ">
<polygon fill="white" stroke="#666666" points="1006.25,-30.5 855.25,-30.5 855.25,0 1006.25,0 1006.25,-30.5"/>
<text text-anchor="start" x="863.25" y="-17" font-family="Helvetica,sans-Serif" font-size="10.00">sourcecode/dbe/src</text>
<text text-anchor="middle" x="930.75" y="-5.75" font-family="Helvetica,sans-Serif" font-size="10.00">/widgets/IncludeFileWidget.cpp</text>
</a>
</g>
</g>
<!-- Node3&#45;&gt;Node11 -->
<g id="edge10_Node000003_Node000011" class="edge">
<title>Node3&#45;&gt;Node11</title>
<g id="a_edge10_Node000003_Node000011"><a xlink:title=" ">
<path fill="none" stroke="#63b8ff" d="M667.51,-67.09C722.49,-56.47 798.59,-41.77 854.84,-30.91"/>
<polygon fill="#63b8ff" stroke="#63b8ff" points="667.1,-63.6 657.95,-68.93 668.43,-70.47 667.1,-63.6"/>
</a>
</g>
</g>
<!-- Node12 -->
<g id="Node000012" class="node">
<title>Node12</title>
<g id="a_Node000012"><a xlink:href="ObjectEditor_8cpp.html" target="_top" xlink:title=" ">
<polygon fill="white" stroke="#666666" points="1151.25,-30.5 1024.25,-30.5 1024.25,0 1151.25,0 1151.25,-30.5"/>
<text text-anchor="start" x="1032.25" y="-17" font-family="Helvetica,sans-Serif" font-size="10.00">sourcecode/dbe/src</text>
<text text-anchor="middle" x="1087.75" y="-5.75" font-family="Helvetica,sans-Serif" font-size="10.00">/widgets/ObjectEditor.cpp</text>
</a>
</g>
</g>
<!-- Node3&#45;&gt;Node12 -->
<g id="edge11_Node000003_Node000012" class="edge">
<title>Node3&#45;&gt;Node12</title>
<g id="a_edge11_Node000003_Node000012"><a xlink:title=" ">
<path fill="none" stroke="#63b8ff" d="M667.83,-73.81C751.18,-65.29 893.38,-49.61 1014.75,-30.5 1017.81,-30.02 1020.94,-29.5 1024.1,-28.96"/>
<polygon fill="#63b8ff" stroke="#63b8ff" points="667.57,-70.31 657.97,-74.81 668.28,-77.28 667.57,-70.31"/>
</a>
</g>
</g>
</g>
</svg>
