<?xml version="1.0" encoding="UTF-8" standalone="no"?>
<!DOCTYPE svg PUBLIC "-//W3C//DTD SVG 1.1//EN"
 "http://www.w3.org/Graphics/SVG/1.1/DTD/svg11.dtd">
<!-- Generated by graphviz version 9.0.0 (20230911.1827)
 -->
<!-- Title: sourcecode/dbe/include/dbe/CustomFileView.hpp Pages: 1 -->
<svg width="883pt" height="238pt"
 viewBox="0.00 0.00 883.00 238.00" xmlns="http://www.w3.org/2000/svg" xmlns:xlink="http://www.w3.org/1999/xlink">
<g id="graph0" class="graph" transform="scale(1 1) rotate(0) translate(4 234)">
<title>sourcecode/dbe/include/dbe/CustomFileView.hpp</title>
<!-- Node1 -->
<g id="Node000001" class="node">
<title>Node1</title>
<g id="a_Node000001"><a xlink:title=" ">
<polygon fill="#999999" stroke="#666666" points="659,-230 532,-230 532,-199.5 659,-199.5 659,-230"/>
<text text-anchor="start" x="540" y="-216.5" font-family="Helvetica,sans-Serif" font-size="10.00">sourcecode/dbe/include</text>
<text text-anchor="middle" x="595.5" y="-205.25" font-family="Helvetica,sans-Serif" font-size="10.00">/dbe/CustomFileView.hpp</text>
</a>
</g>
</g>
<!-- Node2 -->
<g id="Node000002" class="node">
<title>Node2</title>
<g id="a_Node000002"><a xlink:href="ObjectEditor_8hpp.html" target="_top" xlink:title=" ">
<polygon fill="white" stroke="#666666" points="578.88,-163.5 460.12,-163.5 460.12,-133 578.88,-133 578.88,-163.5"/>
<text text-anchor="start" x="468.12" y="-150" font-family="Helvetica,sans-Serif" font-size="10.00">sourcecode/dbe/include</text>
<text text-anchor="middle" x="519.5" y="-138.75" font-family="Helvetica,sans-Serif" font-size="10.00">/dbe/ObjectEditor.hpp</text>
</a>
</g>
</g>
<!-- Node1&#45;&gt;Node2 -->
<g id="edge1_Node000001_Node000002" class="edge">
<title>Node1&#45;&gt;Node2</title>
<g id="a_edge1_Node000001_Node000002"><a xlink:title=" ">
<path fill="none" stroke="#63b8ff" d="M569.57,-191.74C558.71,-182.53 546.38,-172.06 536.68,-163.83"/>
<polygon fill="#63b8ff" stroke="#63b8ff" points="567.21,-194.33 577.1,-198.13 571.74,-189 567.21,-194.33"/>
</a>
</g>
</g>
<!-- Node11 -->
<g id="Node000011" class="node">
<title>Node11</title>
<g id="a_Node000011"><a xlink:href="CustomFileView_8cpp.html" target="_top" xlink:title=" ">
<polygon fill="white" stroke="#666666" points="746.25,-163.5 596.75,-163.5 596.75,-133 746.25,-133 746.25,-163.5"/>
<text text-anchor="start" x="604.75" y="-150" font-family="Helvetica,sans-Serif" font-size="10.00">sourcecode/dbe/src</text>
<text text-anchor="middle" x="671.5" y="-138.75" font-family="Helvetica,sans-Serif" font-size="10.00">/structure/CustomFileView.cpp</text>
</a>
</g>
</g>
<!-- Node1&#45;&gt;Node11 -->
<g id="edge13_Node000001_Node000011" class="edge">
<title>Node1&#45;&gt;Node11</title>
<g id="a_edge13_Node000001_Node000011"><a xlink:title=" ">
<path fill="none" stroke="#63b8ff" d="M621.43,-191.74C632.29,-182.53 644.62,-172.06 654.32,-163.83"/>
<polygon fill="#63b8ff" stroke="#63b8ff" points="619.26,-189 613.9,-198.13 623.79,-194.33 619.26,-189"/>
</a>
</g>
</g>
<!-- Node3 -->
<g id="Node000003" class="node">
<title>Node3</title>
<g id="a_Node000003"><a xlink:href="ObjectCreator_8hpp.html" target="_top" xlink:title=" ">
<polygon fill="white" stroke="#666666" points="436.88,-97 318.12,-97 318.12,-66.5 436.88,-66.5 436.88,-97"/>
<text text-anchor="start" x="326.12" y="-83.5" font-family="Helvetica,sans-Serif" font-size="10.00">sourcecode/dbe/include</text>
<text text-anchor="middle" x="377.5" y="-72.25" font-family="Helvetica,sans-Serif" font-size="10.00">/dbe/ObjectCreator.hpp</text>
</a>
</g>
</g>
<!-- Node2&#45;&gt;Node3 -->
<g id="edge2_Node000002_Node000003" class="edge">
<title>Node2&#45;&gt;Node3</title>
<g id="a_edge2_Node000002_Node000003"><a xlink:title=" ">
<path fill="none" stroke="#63b8ff" d="M477.04,-127.97C455.41,-118.14 429.54,-106.39 409.59,-97.33"/>
<polygon fill="#63b8ff" stroke="#63b8ff" points="475.35,-131.04 485.9,-131.99 478.24,-124.67 475.35,-131.04"/>
</a>
</g>
</g>
<!-- Node5 -->
<g id="Node000005" class="node">
<title>Node5</title>
<g id="a_Node000005"><a xlink:href="MainWindow_8cpp.html" target="_top" xlink:title=" ">
<polygon fill="white" stroke="#666666" points="127,-30.5 0,-30.5 0,0 127,0 127,-30.5"/>
<text text-anchor="start" x="8" y="-17" font-family="Helvetica,sans-Serif" font-size="10.00">sourcecode/dbe/src</text>
<text text-anchor="middle" x="63.5" y="-5.75" font-family="Helvetica,sans-Serif" font-size="10.00">/internal/MainWindow.cpp</text>
</a>
</g>
</g>
<!-- Node2&#45;&gt;Node5 -->
<g id="edge8_Node000002_Node000005" class="edge">
<title>Node2&#45;&gt;Node5</title>
<g id="a_edge8_Node000002_Node000005"><a xlink:title=" ">
<path fill="none" stroke="#63b8ff" d="M448.66,-131.83C407.77,-122.54 355.49,-110.03 309.5,-97 236.63,-76.36 153.11,-47.91 104.53,-30.87"/>
<polygon fill="#63b8ff" stroke="#63b8ff" points="447.87,-135.24 458.4,-134.02 449.41,-128.41 447.87,-135.24"/>
</a>
</g>
</g>
<!-- Node6 -->
<g id="Node000006" class="node">
<title>Node6</title>
<g id="a_Node000006"><a xlink:href="CustomTableView_8cpp.html" target="_top" xlink:title=" ">
<polygon fill="white" stroke="#666666" points="598.38,-30.5 440.62,-30.5 440.62,0 598.38,0 598.38,-30.5"/>
<text text-anchor="start" x="448.62" y="-17" font-family="Helvetica,sans-Serif" font-size="10.00">sourcecode/dbe/src</text>
<text text-anchor="middle" x="519.5" y="-5.75" font-family="Helvetica,sans-Serif" font-size="10.00">/structure/CustomTableView.cpp</text>
</a>
</g>
</g>
<!-- Node2&#45;&gt;Node6 -->
<g id="edge9_Node000002_Node000006" class="edge">
<title>Node2&#45;&gt;Node6</title>
<g id="a_edge9_Node000002_Node000006"><a xlink:title=" ">
<path fill="none" stroke="#63b8ff" d="M519.5,-121.43C519.5,-94.34 519.5,-52.71 519.5,-30.83"/>
<polygon fill="#63b8ff" stroke="#63b8ff" points="516,-121.22 519.5,-131.22 523,-121.22 516,-121.22"/>
</a>
</g>
</g>
<!-- Node7 -->
<g id="Node000007" class="node">
<title>Node7</title>
<g id="a_Node000007"><a xlink:href="CustomTreeView_8cpp.html" target="_top" xlink:title=" ">
<polygon fill="white" stroke="#666666" points="770.12,-30.5 616.88,-30.5 616.88,0 770.12,0 770.12,-30.5"/>
<text text-anchor="start" x="624.88" y="-17" font-family="Helvetica,sans-Serif" font-size="10.00">sourcecode/dbe/src</text>
<text text-anchor="middle" x="693.5" y="-5.75" font-family="Helvetica,sans-Serif" font-size="10.00">/structure/CustomTreeView.cpp</text>
</a>
</g>
</g>
<!-- Node2&#45;&gt;Node7 -->
<g id="edge10_Node000002_Node000007" class="edge">
<title>Node2&#45;&gt;Node7</title>
<g id="a_edge10_Node000002_Node000007"><a xlink:title=" ">
<path fill="none" stroke="#63b8ff" d="M526.29,-121.73C532.17,-104.09 542.34,-81.22 558.5,-66.5 576.81,-49.83 601.14,-38.54 624.11,-30.96"/>
<polygon fill="#63b8ff" stroke="#63b8ff" points="522.95,-120.66 523.39,-131.25 529.65,-122.7 522.95,-120.66"/>
</a>
</g>
</g>
<!-- Node9 -->
<g id="Node000009" class="node">
<title>Node9</title>
<g id="a_Node000009"><a xlink:href="BuildingBlockEditors_8cpp.html" target="_top" xlink:title=" ">
<polygon fill="white" stroke="#666666" points="730,-97 567,-97 567,-66.5 730,-66.5 730,-97"/>
<text text-anchor="start" x="575" y="-83.5" font-family="Helvetica,sans-Serif" font-size="10.00">sourcecode/dbe/src</text>
<text text-anchor="middle" x="648.5" y="-72.25" font-family="Helvetica,sans-Serif" font-size="10.00">/widgets/BuildingBlockEditors.cpp</text>
</a>
</g>
</g>
<!-- Node2&#45;&gt;Node9 -->
<g id="edge11_Node000002_Node000009" class="edge">
<title>Node2&#45;&gt;Node9</title>
<g id="a_edge11_Node000002_Node000009"><a xlink:title=" ">
<path fill="none" stroke="#63b8ff" d="M558.88,-127.56C578.36,-117.82 601.47,-106.26 619.34,-97.33"/>
<polygon fill="#63b8ff" stroke="#63b8ff" points="557.5,-124.33 550.13,-131.94 560.64,-130.6 557.5,-124.33"/>
</a>
</g>
</g>
<!-- Node10 -->
<g id="Node000010" class="node">
<title>Node10</title>
<g id="a_Node000010"><a xlink:href="ObjectEditor_8cpp.html" target="_top" xlink:title=" ">
<polygon fill="white" stroke="#666666" points="875,-97 748,-97 748,-66.5 875,-66.5 875,-97"/>
<text text-anchor="start" x="756" y="-83.5" font-family="Helvetica,sans-Serif" font-size="10.00">sourcecode/dbe/src</text>
<text text-anchor="middle" x="811.5" y="-72.25" font-family="Helvetica,sans-Serif" font-size="10.00">/widgets/ObjectEditor.cpp</text>
</a>
</g>
</g>
<!-- Node2&#45;&gt;Node10 -->
<g id="edge12_Node000002_Node000010" class="edge">
<title>Node2&#45;&gt;Node10</title>
<g id="a_edge12_Node000002_Node000010"><a xlink:title=" ">
<path fill="none" stroke="#63b8ff" d="M590.54,-131.56C638.53,-120.96 701.35,-107.08 747.74,-96.83"/>
<polygon fill="#63b8ff" stroke="#63b8ff" points="589.78,-128.14 580.77,-133.72 591.29,-134.98 589.78,-128.14"/>
</a>
</g>
</g>
<!-- Node4 -->
<g id="Node000004" class="node">
<title>Node4</title>
<g id="a_Node000004"><a xlink:href="GraphView_8cpp.html" target="_top" xlink:title=" ">
<polygon fill="white" stroke="#666666" points="423,-30.5 296,-30.5 296,0 423,0 423,-30.5"/>
<text text-anchor="start" x="304" y="-17" font-family="Helvetica,sans-Serif" font-size="10.00">sourcecode/dbe/src</text>
<text text-anchor="middle" x="359.5" y="-5.75" font-family="Helvetica,sans-Serif" font-size="10.00">/graphical/GraphView.cpp</text>
</a>
</g>
</g>
<!-- Node3&#45;&gt;Node4 -->
<g id="edge3_Node000003_Node000004" class="edge">
<title>Node3&#45;&gt;Node4</title>
<g id="a_edge3_Node000003_Node000004"><a xlink:title=" ">
<path fill="none" stroke="#63b8ff" d="M370.34,-55.09C368.04,-46.84 365.57,-37.99 363.57,-30.83"/>
<polygon fill="#63b8ff" stroke="#63b8ff" points="366.95,-55.96 373.01,-64.66 373.69,-54.08 366.95,-55.96"/>
</a>
</g>
</g>
<!-- Node3&#45;&gt;Node5 -->
<g id="edge4_Node000003_Node000005" class="edge">
<title>Node3&#45;&gt;Node5</title>
<g id="a_edge4_Node000003_Node000005"><a xlink:title=" ">
<path fill="none" stroke="#63b8ff" d="M306.53,-66.17C252.71,-55.12 179.39,-40.06 127.39,-29.37"/>
<polygon fill="#63b8ff" stroke="#63b8ff" points="305.72,-69.58 316.22,-68.16 307.13,-62.72 305.72,-69.58"/>
</a>
</g>
</g>
<!-- Node3&#45;&gt;Node6 -->
<g id="edge5_Node000003_Node000006" class="edge">
<title>Node3&#45;&gt;Node6</title>
<g id="a_edge5_Node000003_Node000006"><a xlink:title=" ">
<path fill="none" stroke="#63b8ff" d="M419.96,-61.47C441.59,-51.64 467.46,-39.89 487.41,-30.83"/>
<polygon fill="#63b8ff" stroke="#63b8ff" points="418.76,-58.17 411.1,-65.49 421.65,-64.54 418.76,-58.17"/>
</a>
</g>
</g>
<!-- Node3&#45;&gt;Node7 -->
<g id="edge6_Node000003_Node000007" class="edge">
<title>Node3&#45;&gt;Node7</title>
<g id="a_edge6_Node000003_Node000007"><a xlink:title=" ">
<path fill="none" stroke="#63b8ff" d="M448.36,-66.29C499.96,-55.75 569.6,-41.54 621.47,-30.95"/>
<polygon fill="#63b8ff" stroke="#63b8ff" points="447.89,-62.81 438.79,-68.24 449.29,-69.67 447.89,-62.81"/>
</a>
</g>
</g>
<!-- Node8 -->
<g id="Node000008" class="node">
<title>Node8</title>
<g id="a_Node000008"><a xlink:href="ObjectCreator_8cpp.html" target="_top" xlink:title=" ">
<polygon fill="white" stroke="#666666" points="278.38,-30.5 144.62,-30.5 144.62,0 278.38,0 278.38,-30.5"/>
<text text-anchor="start" x="152.62" y="-17" font-family="Helvetica,sans-Serif" font-size="10.00">sourcecode/dbe/src</text>
<text text-anchor="middle" x="211.5" y="-5.75" font-family="Helvetica,sans-Serif" font-size="10.00">/widgets/ObjectCreator.cpp</text>
</a>
</g>
</g>
<!-- Node3&#45;&gt;Node8 -->
<g id="edge7_Node000003_Node000008" class="edge">
<title>Node3&#45;&gt;Node8</title>
<g id="a_edge7_Node000003_Node000008"><a xlink:title=" ">
<path fill="none" stroke="#63b8ff" d="M329.28,-62.01C303.82,-52.12 273.02,-40.15 249.31,-30.94"/>
<polygon fill="#63b8ff" stroke="#63b8ff" points="327.83,-65.21 338.42,-65.57 330.37,-58.68 327.83,-65.21"/>
</a>
</g>
</g>
</g>
</svg>
