<?xml version="1.0" encoding="UTF-8" standalone="no"?>
<!DOCTYPE svg PUBLIC "-//W3C//DTD SVG 1.1//EN"
 "http://www.w3.org/Graphics/SVG/1.1/DTD/svg11.dtd">
<!-- Generated by graphviz version 9.0.0 (20230911.1827)
 -->
<!-- Title: sourcecode/dbe/src/object/CustomLineEdit.cpp Pages: 1 -->
<svg width="557pt" height="149pt"
 viewBox="0.00 0.00 557.09 149.00" xmlns="http://www.w3.org/2000/svg" xmlns:xlink="http://www.w3.org/1999/xlink">
<g id="graph0" class="graph" transform="scale(1 1) rotate(0) translate(4 145)">
<title>sourcecode/dbe/src/object/CustomLineEdit.cpp</title>
<!-- Node1 -->
<g id="Node000001" class="node">
<title>Node1</title>
<g id="a_Node000001"><a xlink:title=" ">
<polygon fill="#999999" stroke="#666666" points="243.59,-141 108.34,-141 108.34,-110.5 243.59,-110.5 243.59,-141"/>
<text text-anchor="start" x="116.34" y="-127.5" font-family="Helvetica,sans-Serif" font-size="10.00">sourcecode/dbe/src</text>
<text text-anchor="middle" x="175.97" y="-116.25" font-family="Helvetica,sans-Serif" font-size="10.00">/object/CustomLineEdit.cpp</text>
</a>
</g>
</g>
<!-- Node2 -->
<g id="Node000002" class="node">
<title>Node2</title>
<g id="a_Node000002"><a xlink:title=" ">
<polygon fill="#e0e0e0" stroke="#999999" points="162.84,-19.25 101.09,-19.25 101.09,0 162.84,0 162.84,-19.25"/>
<text text-anchor="middle" x="131.97" y="-5.75" font-family="Helvetica,sans-Serif" font-size="10.00">QValidator</text>
</a>
</g>
</g>
<!-- Node1&#45;&gt;Node2 -->
<g id="edge1_Node000001_Node000002" class="edge">
<title>Node1&#45;&gt;Node2</title>
<g id="a_edge1_Node000001_Node000002"><a xlink:title=" ">
<path fill="none" stroke="#63b8ff" d="M108.1,-113.22C66.38,-104.59 18.58,-91.39 5.97,-74.5 -18.87,-41.26 44.14,-24.06 89.74,-16.22"/>
<polygon fill="#63b8ff" stroke="#63b8ff" points="90.08,-19.71 99.4,-14.66 88.97,-12.79 90.08,-19.71"/>
</a>
</g>
</g>
<!-- Node3 -->
<g id="Node000003" class="node">
<title>Node3</title>
<g id="a_Node000003"><a xlink:title=" ">
<polygon fill="#e0e0e0" stroke="#999999" points="86.72,-74.5 15.22,-74.5 15.22,-55.25 86.72,-55.25 86.72,-74.5"/>
<text text-anchor="middle" x="50.97" y="-61" font-family="Helvetica,sans-Serif" font-size="10.00">QApplication</text>
</a>
</g>
</g>
<!-- Node1&#45;&gt;Node3 -->
<g id="edge2_Node000001_Node000003" class="edge">
<title>Node1&#45;&gt;Node3</title>
<g id="a_edge2_Node000001_Node000003"><a xlink:title=" ">
<path fill="none" stroke="#63b8ff" d="M144.74,-110.05C125.07,-100.78 99.82,-88.88 80.48,-79.77"/>
<polygon fill="#63b8ff" stroke="#63b8ff" points="82.04,-76.64 71.5,-75.55 79.06,-82.98 82.04,-76.64"/>
</a>
</g>
</g>
<!-- Node4 -->
<g id="Node000004" class="node">
<title>Node4</title>
<g id="a_Node000004"><a xlink:title=" ">
<polygon fill="#e0e0e0" stroke="#999999" points="152.72,-74.5 105.22,-74.5 105.22,-55.25 152.72,-55.25 152.72,-74.5"/>
<text text-anchor="middle" x="128.97" y="-61" font-family="Helvetica,sans-Serif" font-size="10.00">QMenu</text>
</a>
</g>
</g>
<!-- Node1&#45;&gt;Node4 -->
<g id="edge3_Node000001_Node000004" class="edge">
<title>Node1&#45;&gt;Node4</title>
<g id="a_edge3_Node000001_Node000004"><a xlink:title=" ">
<path fill="none" stroke="#63b8ff" d="M164.35,-110.2C157.95,-102.18 149.95,-92.17 143.18,-83.69"/>
<polygon fill="#63b8ff" stroke="#63b8ff" points="146.13,-81.77 137.16,-76.13 140.66,-86.13 146.13,-81.77"/>
</a>
</g>
</g>
<!-- Node5 -->
<g id="Node000005" class="node">
<title>Node5</title>
<g id="a_Node000005"><a xlink:title=" ">
<polygon fill="#e0e0e0" stroke="#999999" points="275.59,-74.5 170.34,-74.5 170.34,-55.25 275.59,-55.25 275.59,-74.5"/>
<text text-anchor="middle" x="222.97" y="-61" font-family="Helvetica,sans-Serif" font-size="10.00">QContextMenuEvent</text>
</a>
</g>
</g>
<!-- Node1&#45;&gt;Node5 -->
<g id="edge4_Node000001_Node000005" class="edge">
<title>Node1&#45;&gt;Node5</title>
<g id="a_edge4_Node000001_Node000005"><a xlink:title=" ">
<path fill="none" stroke="#63b8ff" d="M187.58,-110.2C193.98,-102.18 201.98,-92.17 208.75,-83.69"/>
<polygon fill="#63b8ff" stroke="#63b8ff" points="211.27,-86.13 214.78,-76.13 205.8,-81.77 211.27,-86.13"/>
</a>
</g>
</g>
<!-- Node6 -->
<g id="Node000006" class="node">
<title>Node6</title>
<g id="a_Node000006"><a xlink:href="CustomLineEdit_8hpp.html" target="_top" xlink:title=" ">
<polygon fill="white" stroke="#666666" points="415.84,-74.5 294.09,-74.5 294.09,-55.25 415.84,-55.25 415.84,-74.5"/>
<text text-anchor="middle" x="354.97" y="-61" font-family="Helvetica,sans-Serif" font-size="10.00">dbe/CustomLineEdit.hpp</text>
</a>
</g>
</g>
<!-- Node1&#45;&gt;Node6 -->
<g id="edge5_Node000001_Node000006" class="edge">
<title>Node1&#45;&gt;Node6</title>
<g id="a_edge5_Node000001_Node000006"><a xlink:title=" ">
<path fill="none" stroke="#63b8ff" d="M220.67,-110.05C250.2,-100.33 288.49,-87.74 316.63,-78.48"/>
<polygon fill="#63b8ff" stroke="#63b8ff" points="317.41,-81.91 325.81,-75.46 315.22,-75.26 317.41,-81.91"/>
</a>
</g>
</g>
<!-- Node8 -->
<g id="Node000008" class="node">
<title>Node8</title>
<g id="a_Node000008"><a xlink:href="StyleUtility_8hpp.html" target="_top" xlink:title=" ">
<polygon fill="white" stroke="#666666" points="533.59,-74.5 434.34,-74.5 434.34,-55.25 533.59,-55.25 533.59,-74.5"/>
<text text-anchor="middle" x="483.97" y="-61" font-family="Helvetica,sans-Serif" font-size="10.00">dbe/StyleUtility.hpp</text>
</a>
</g>
</g>
<!-- Node1&#45;&gt;Node8 -->
<g id="edge8_Node000001_Node000008" class="edge">
<title>Node1&#45;&gt;Node8</title>
<g id="a_edge8_Node000001_Node000008"><a xlink:title=" ">
<path fill="none" stroke="#63b8ff" d="M243.94,-111.76C298.12,-101.4 373.23,-87.04 424.92,-77.16"/>
<polygon fill="#63b8ff" stroke="#63b8ff" points="425.58,-80.6 434.74,-75.28 424.27,-73.72 425.58,-80.6"/>
</a>
</g>
</g>
<!-- Node6&#45;&gt;Node2 -->
<g id="edge7_Node000006_Node000002" class="edge">
<title>Node6&#45;&gt;Node2</title>
<g id="a_edge7_Node000006_Node000002"><a xlink:title=" ">
<path fill="none" stroke="#63b8ff" d="M316.88,-54.78C277.2,-45.31 215.18,-30.5 174.06,-20.68"/>
<polygon fill="#63b8ff" stroke="#63b8ff" points="175.07,-17.32 164.53,-18.4 173.44,-24.13 175.07,-17.32"/>
</a>
</g>
</g>
<!-- Node7 -->
<g id="Node000007" class="node">
<title>Node7</title>
<g id="a_Node000007"><a xlink:title=" ">
<polygon fill="#e0e0e0" stroke="#999999" points="384.34,-19.25 325.59,-19.25 325.59,0 384.34,0 384.34,-19.25"/>
<text text-anchor="middle" x="354.97" y="-5.75" font-family="Helvetica,sans-Serif" font-size="10.00">QLineEdit</text>
</a>
</g>
</g>
<!-- Node6&#45;&gt;Node7 -->
<g id="edge6_Node000006_Node000007" class="edge">
<title>Node6&#45;&gt;Node7</title>
<g id="a_edge6_Node000006_Node000007"><a xlink:title=" ">
<path fill="none" stroke="#63b8ff" d="M354.97,-55.08C354.97,-48.57 354.97,-39.42 354.97,-31.12"/>
<polygon fill="#63b8ff" stroke="#63b8ff" points="358.47,-31.12 354.97,-21.12 351.47,-31.12 358.47,-31.12"/>
</a>
</g>
</g>
<!-- Node9 -->
<g id="Node000009" class="node">
<title>Node9</title>
<g id="a_Node000009"><a xlink:title=" ">
<polygon fill="#e0e0e0" stroke="#999999" points="476.97,-19.25 430.97,-19.25 430.97,0 476.97,0 476.97,-19.25"/>
<text text-anchor="middle" x="453.97" y="-5.75" font-family="Helvetica,sans-Serif" font-size="10.00">QColor</text>
</a>
</g>
</g>
<!-- Node8&#45;&gt;Node9 -->
<g id="edge9_Node000008_Node000009" class="edge">
<title>Node8&#45;&gt;Node9</title>
<g id="a_edge9_Node000008_Node000009"><a xlink:title=" ">
<path fill="none" stroke="#63b8ff" d="M479.01,-55.08C475.08,-48.11 469.45,-38.12 464.53,-29.37"/>
<polygon fill="#63b8ff" stroke="#63b8ff" points="467.73,-27.92 459.77,-20.93 461.63,-31.36 467.73,-27.92"/>
</a>
</g>
</g>
<!-- Node10 -->
<g id="Node000010" class="node">
<title>Node10</title>
<g id="a_Node000010"><a xlink:title=" ">
<polygon fill="#e0e0e0" stroke="#999999" points="549.09,-19.25 494.84,-19.25 494.84,0 549.09,0 549.09,-19.25"/>
<text text-anchor="middle" x="521.97" y="-5.75" font-family="Helvetica,sans-Serif" font-size="10.00">QPalette</text>
</a>
</g>
</g>
<!-- Node8&#45;&gt;Node10 -->
<g id="edge10_Node000008_Node000010" class="edge">
<title>Node8&#45;&gt;Node10</title>
<g id="a_edge10_Node000008_Node000010"><a xlink:title=" ">
<path fill="none" stroke="#63b8ff" d="M490.24,-55.08C495.33,-47.96 502.66,-37.68 509,-28.8"/>
<polygon fill="#63b8ff" stroke="#63b8ff" points="511.71,-31.01 514.67,-20.84 506.02,-26.95 511.71,-31.01"/>
</a>
</g>
</g>
</g>
</svg>
