<?xml version="1.0" encoding="UTF-8" standalone="no"?>
<!DOCTYPE svg PUBLIC "-//W3C//DTD SVG 1.1//EN"
 "http://www.w3.org/Graphics/SVG/1.1/DTD/svg11.dtd">
<!-- Generated by graphviz version 9.0.0 (20230911.1827)
 -->
<!-- Title: sourcecode/dbe/include/dbe/CustomLineEdit.hpp Pages: 1 -->
<svg width="146pt" height="94pt"
 viewBox="0.00 0.00 146.25 93.75" xmlns="http://www.w3.org/2000/svg" xmlns:xlink="http://www.w3.org/1999/xlink">
<g id="graph0" class="graph" transform="scale(1 1) rotate(0) translate(4 89.75)">
<title>sourcecode/dbe/include/dbe/CustomLineEdit.hpp</title>
<!-- Node1 -->
<g id="Node000001" class="node">
<title>Node1</title>
<g id="a_Node000001"><a xlink:title=" ">
<polygon fill="#999999" stroke="#666666" points="130.75,-85.75 6,-85.75 6,-55.25 130.75,-55.25 130.75,-85.75"/>
<text text-anchor="start" x="14" y="-72.25" font-family="Helvetica,sans-Serif" font-size="10.00">sourcecode/dbe/include</text>
<text text-anchor="middle" x="68.38" y="-61" font-family="Helvetica,sans-Serif" font-size="10.00">/dbe/CustomLineEdit.hpp</text>
</a>
</g>
</g>
<!-- Node2 -->
<g id="Node000002" class="node">
<title>Node2</title>
<g id="a_Node000002"><a xlink:title=" ">
<polygon fill="#e0e0e0" stroke="#999999" points="58.75,-19.25 0,-19.25 0,0 58.75,0 58.75,-19.25"/>
<text text-anchor="middle" x="29.38" y="-5.75" font-family="Helvetica,sans-Serif" font-size="10.00">QLineEdit</text>
</a>
</g>
</g>
<!-- Node1&#45;&gt;Node2 -->
<g id="edge1_Node000001_Node000002" class="edge">
<title>Node1&#45;&gt;Node2</title>
<g id="a_edge1_Node000001_Node000002"><a xlink:title=" ">
<path fill="none" stroke="#63b8ff" d="M58.73,-54.95C53.6,-47.19 47.22,-37.56 41.72,-29.26"/>
<polygon fill="#63b8ff" stroke="#63b8ff" points="44.66,-27.37 36.22,-20.96 38.83,-31.23 44.66,-27.37"/>
</a>
</g>
</g>
<!-- Node3 -->
<g id="Node000003" class="node">
<title>Node3</title>
<g id="a_Node000003"><a xlink:title=" ">
<polygon fill="#e0e0e0" stroke="#999999" points="138.25,-19.25 76.5,-19.25 76.5,0 138.25,0 138.25,-19.25"/>
<text text-anchor="middle" x="107.38" y="-5.75" font-family="Helvetica,sans-Serif" font-size="10.00">QValidator</text>
</a>
</g>
</g>
<!-- Node1&#45;&gt;Node3 -->
<g id="edge2_Node000001_Node000003" class="edge">
<title>Node1&#45;&gt;Node3</title>
<g id="a_edge2_Node000001_Node000003"><a xlink:title=" ">
<path fill="none" stroke="#63b8ff" d="M78.02,-54.95C83.15,-47.19 89.53,-37.56 95.03,-29.26"/>
<polygon fill="#63b8ff" stroke="#63b8ff" points="97.92,-31.23 100.53,-20.96 92.09,-27.37 97.92,-31.23"/>
</a>
</g>
</g>
</g>
</svg>
