<?xml version="1.0" encoding="UTF-8" standalone="no"?>
<!DOCTYPE svg PUBLIC "-//W3C//DTD SVG 1.1//EN"
 "http://www.w3.org/Graphics/SVG/1.1/DTD/svg11.dtd">
<!-- Generated by graphviz version 9.0.0 (20230911.1827)
 -->
<!-- Title: sourcecode/dbe/include/dbe/CustomDelegate.hpp Pages: 1 -->
<svg width="1334pt" height="238pt"
 viewBox="0.00 0.00 1334.25 238.00" xmlns="http://www.w3.org/2000/svg" xmlns:xlink="http://www.w3.org/1999/xlink">
<g id="graph0" class="graph" transform="scale(1 1) rotate(0) translate(4 234)">
<title>sourcecode/dbe/include/dbe/CustomDelegate.hpp</title>
<!-- Node1 -->
<g id="Node000001" class="node">
<title>Node1</title>
<g id="a_Node000001"><a xlink:title=" ">
<polygon fill="#999999" stroke="#666666" points="649.62,-230 521.88,-230 521.88,-199.5 649.62,-199.5 649.62,-230"/>
<text text-anchor="start" x="529.88" y="-216.5" font-family="Helvetica,sans-Serif" font-size="10.00">sourcecode/dbe/include</text>
<text text-anchor="middle" x="585.75" y="-205.25" font-family="Helvetica,sans-Serif" font-size="10.00">/dbe/CustomDelegate.hpp</text>
</a>
</g>
</g>
<!-- Node2 -->
<g id="Node000002" class="node">
<title>Node2</title>
<g id="a_Node000002"><a xlink:href="MainWindow_8hpp.html" target="_top" xlink:title=" ">
<polygon fill="white" stroke="#666666" points="594.12,-97 475.38,-97 475.38,-66.5 594.12,-66.5 594.12,-97"/>
<text text-anchor="start" x="483.38" y="-83.5" font-family="Helvetica,sans-Serif" font-size="10.00">sourcecode/dbe/include</text>
<text text-anchor="middle" x="534.75" y="-72.25" font-family="Helvetica,sans-Serif" font-size="10.00">/dbe/MainWindow.hpp</text>
</a>
</g>
</g>
<!-- Node1&#45;&gt;Node2 -->
<g id="edge1_Node000001_Node000002" class="edge">
<title>Node1&#45;&gt;Node2</title>
<g id="a_edge1_Node000001_Node000002"><a xlink:title=" ">
<path fill="none" stroke="#63b8ff" d="M568.1,-189.67C562.87,-181.66 557.54,-172.48 553.75,-163.5 544.4,-141.34 539.17,-113.73 536.65,-97.21"/>
<polygon fill="#63b8ff" stroke="#63b8ff" points="565.16,-191.56 573.69,-197.84 570.93,-187.61 565.16,-191.56"/>
</a>
</g>
</g>
<!-- Node12 -->
<g id="Node000012" class="node">
<title>Node12</title>
<g id="a_Node000012"><a xlink:href="TableTab_8hpp.html" target="_top" xlink:title=" ">
<polygon fill="white" stroke="#666666" points="507.12,-163.5 388.38,-163.5 388.38,-133 507.12,-133 507.12,-163.5"/>
<text text-anchor="start" x="396.38" y="-150" font-family="Helvetica,sans-Serif" font-size="10.00">sourcecode/dbe/include</text>
<text text-anchor="middle" x="447.75" y="-138.75" font-family="Helvetica,sans-Serif" font-size="10.00">/dbe/TableTab.hpp</text>
</a>
</g>
</g>
<!-- Node1&#45;&gt;Node12 -->
<g id="edge11_Node000001_Node000012" class="edge">
<title>Node1&#45;&gt;Node12</title>
<g id="a_edge11_Node000001_Node000012"><a xlink:title=" ">
<path fill="none" stroke="#63b8ff" d="M544.2,-194.33C523.24,-184.53 498.24,-172.85 478.94,-163.83"/>
<polygon fill="#63b8ff" stroke="#63b8ff" points="542.52,-197.41 553.06,-198.47 545.49,-191.07 542.52,-197.41"/>
</a>
</g>
</g>
<!-- Node13 -->
<g id="Node000013" class="node">
<title>Node13</title>
<g id="a_Node000013"><a xlink:href="CustomDelegate_8cpp.html" target="_top" xlink:title=" ">
<polygon fill="white" stroke="#666666" points="712.88,-163.5 562.62,-163.5 562.62,-133 712.88,-133 712.88,-163.5"/>
<text text-anchor="start" x="570.62" y="-150" font-family="Helvetica,sans-Serif" font-size="10.00">sourcecode/dbe/src</text>
<text text-anchor="middle" x="637.75" y="-138.75" font-family="Helvetica,sans-Serif" font-size="10.00">/structure/CustomDelegate.cpp</text>
</a>
</g>
</g>
<!-- Node1&#45;&gt;Node13 -->
<g id="edge14_Node000001_Node000013" class="edge">
<title>Node1&#45;&gt;Node13</title>
<g id="a_edge14_Node000001_Node000013"><a xlink:title=" ">
<path fill="none" stroke="#63b8ff" d="M604.61,-190.35C611.76,-181.48 619.69,-171.65 626,-163.83"/>
<polygon fill="#63b8ff" stroke="#63b8ff" points="602.05,-187.95 598.5,-197.94 607.5,-192.35 602.05,-187.95"/>
</a>
</g>
</g>
<!-- Node14 -->
<g id="Node000014" class="node">
<title>Node14</title>
<g id="a_Node000014"><a xlink:href="BuildingBlockEditors_8cpp.html" target="_top" xlink:title=" ">
<polygon fill="white" stroke="#666666" points="894.25,-163.5 731.25,-163.5 731.25,-133 894.25,-133 894.25,-163.5"/>
<text text-anchor="start" x="739.25" y="-150" font-family="Helvetica,sans-Serif" font-size="10.00">sourcecode/dbe/src</text>
<text text-anchor="middle" x="812.75" y="-138.75" font-family="Helvetica,sans-Serif" font-size="10.00">/widgets/BuildingBlockEditors.cpp</text>
</a>
</g>
</g>
<!-- Node1&#45;&gt;Node14 -->
<g id="edge15_Node000001_Node000014" class="edge">
<title>Node1&#45;&gt;Node14</title>
<g id="a_edge15_Node000001_Node000014"><a xlink:title=" ">
<path fill="none" stroke="#63b8ff" d="M648.27,-195.99C683.77,-185.9 727.66,-173.43 761.18,-163.9"/>
<polygon fill="#63b8ff" stroke="#63b8ff" points="647.66,-192.52 639,-198.62 649.58,-199.25 647.66,-192.52"/>
</a>
</g>
</g>
<!-- Node3 -->
<g id="Node000003" class="node">
<title>Node3</title>
<g id="a_Node000003"><a xlink:href="Main_8cpp.html" target="_top" xlink:title=" ">
<polygon fill="white" stroke="#666666" points="228.25,-30.5 119.25,-30.5 119.25,0 228.25,0 228.25,-30.5"/>
<text text-anchor="start" x="127.25" y="-17" font-family="Helvetica,sans-Serif" font-size="10.00">sourcecode/dbe/apps</text>
<text text-anchor="middle" x="173.75" y="-5.75" font-family="Helvetica,sans-Serif" font-size="10.00">/Main.cpp</text>
</a>
</g>
</g>
<!-- Node2&#45;&gt;Node3 -->
<g id="edge2_Node000002_Node000003" class="edge">
<title>Node2&#45;&gt;Node3</title>
<g id="a_edge2_Node000002_Node000003"><a xlink:title=" ">
<path fill="none" stroke="#63b8ff" d="M463.59,-69.89C403.09,-60.38 314,-45.74 236.75,-30.5 234.11,-29.98 231.41,-29.43 228.69,-28.86"/>
<polygon fill="#63b8ff" stroke="#63b8ff" points="463.01,-73.34 473.43,-71.43 464.09,-66.42 463.01,-73.34"/>
</a>
</g>
</g>
<!-- Node4 -->
<g id="Node000004" class="node">
<title>Node4</title>
<g id="a_Node000004"><a xlink:href="TableTab_8cpp.html" target="_top" xlink:title=" ">
<polygon fill="white" stroke="#666666" points="101.5,-30.5 0,-30.5 0,0 101.5,0 101.5,-30.5"/>
<text text-anchor="start" x="8" y="-17" font-family="Helvetica,sans-Serif" font-size="10.00">sourcecode/dbe/src</text>
<text text-anchor="middle" x="50.75" y="-5.75" font-family="Helvetica,sans-Serif" font-size="10.00">/TableTab.cpp</text>
</a>
</g>
</g>
<!-- Node2&#45;&gt;Node4 -->
<g id="edge3_Node000002_Node000004" class="edge">
<title>Node2&#45;&gt;Node4</title>
<g id="a_edge3_Node000002_Node000004"><a xlink:title=" ">
<path fill="none" stroke="#63b8ff" d="M463.66,-74.96C378.94,-67.45 233.33,-52.65 109.75,-30.5 107.16,-30.04 104.51,-29.53 101.84,-28.98"/>
<polygon fill="#63b8ff" stroke="#63b8ff" points="463.17,-78.43 473.43,-75.81 463.78,-71.45 463.17,-78.43"/>
</a>
</g>
</g>
<!-- Node5 -->
<g id="Node000005" class="node">
<title>Node5</title>
<g id="a_Node000005"><a xlink:href="GraphView_8cpp.html" target="_top" xlink:title=" ">
<polygon fill="white" stroke="#666666" points="373.25,-30.5 246.25,-30.5 246.25,0 373.25,0 373.25,-30.5"/>
<text text-anchor="start" x="254.25" y="-17" font-family="Helvetica,sans-Serif" font-size="10.00">sourcecode/dbe/src</text>
<text text-anchor="middle" x="309.75" y="-5.75" font-family="Helvetica,sans-Serif" font-size="10.00">/graphical/GraphView.cpp</text>
</a>
</g>
</g>
<!-- Node2&#45;&gt;Node5 -->
<g id="edge4_Node000002_Node000005" class="edge">
<title>Node2&#45;&gt;Node5</title>
<g id="a_edge4_Node000002_Node000005"><a xlink:title=" ">
<path fill="none" stroke="#63b8ff" d="M472.78,-62.99C437.6,-52.9 394.09,-40.43 360.87,-30.9"/>
<polygon fill="#63b8ff" stroke="#63b8ff" points="471.38,-66.22 481.96,-65.62 473.31,-59.5 471.38,-66.22"/>
</a>
</g>
</g>
<!-- Node6 -->
<g id="Node000006" class="node">
<title>Node6</title>
<g id="a_Node000006"><a xlink:href="MainWindow_8cpp.html" target="_top" xlink:title=" ">
<polygon fill="white" stroke="#666666" points="518.25,-30.5 391.25,-30.5 391.25,0 518.25,0 518.25,-30.5"/>
<text text-anchor="start" x="399.25" y="-17" font-family="Helvetica,sans-Serif" font-size="10.00">sourcecode/dbe/src</text>
<text text-anchor="middle" x="454.75" y="-5.75" font-family="Helvetica,sans-Serif" font-size="10.00">/internal/MainWindow.cpp</text>
</a>
</g>
</g>
<!-- Node2&#45;&gt;Node6 -->
<g id="edge5_Node000002_Node000006" class="edge">
<title>Node2&#45;&gt;Node6</title>
<g id="a_edge5_Node000002_Node000006"><a xlink:title=" ">
<path fill="none" stroke="#63b8ff" d="M507.8,-59.02C496.28,-49.73 483.15,-39.15 472.83,-30.83"/>
<polygon fill="#63b8ff" stroke="#63b8ff" points="505.44,-61.61 515.42,-65.16 509.83,-56.16 505.44,-61.61"/>
</a>
</g>
</g>
<!-- Node7 -->
<g id="Node000007" class="node">
<title>Node7</title>
<g id="a_Node000007"><a xlink:href="CustomTableView_8cpp.html" target="_top" xlink:title=" ">
<polygon fill="white" stroke="#666666" points="693.62,-30.5 535.88,-30.5 535.88,0 693.62,0 693.62,-30.5"/>
<text text-anchor="start" x="543.88" y="-17" font-family="Helvetica,sans-Serif" font-size="10.00">sourcecode/dbe/src</text>
<text text-anchor="middle" x="614.75" y="-5.75" font-family="Helvetica,sans-Serif" font-size="10.00">/structure/CustomTableView.cpp</text>
</a>
</g>
</g>
<!-- Node2&#45;&gt;Node7 -->
<g id="edge6_Node000002_Node000007" class="edge">
<title>Node2&#45;&gt;Node7</title>
<g id="a_edge6_Node000002_Node000007"><a xlink:title=" ">
<path fill="none" stroke="#63b8ff" d="M561.7,-59.02C573.22,-49.73 586.35,-39.15 596.67,-30.83"/>
<polygon fill="#63b8ff" stroke="#63b8ff" points="559.67,-56.16 554.08,-65.16 564.06,-61.61 559.67,-56.16"/>
</a>
</g>
</g>
<!-- Node8 -->
<g id="Node000008" class="node">
<title>Node8</title>
<g id="a_Node000008"><a xlink:href="FileModel_8cpp.html" target="_top" xlink:title=" ">
<polygon fill="white" stroke="#666666" points="831.88,-30.5 711.62,-30.5 711.62,0 831.88,0 831.88,-30.5"/>
<text text-anchor="start" x="719.62" y="-17" font-family="Helvetica,sans-Serif" font-size="10.00">sourcecode/dbe/src</text>
<text text-anchor="middle" x="771.75" y="-5.75" font-family="Helvetica,sans-Serif" font-size="10.00">/structure/FileModel.cpp</text>
</a>
</g>
</g>
<!-- Node2&#45;&gt;Node8 -->
<g id="edge7_Node000002_Node000008" class="edge">
<title>Node2&#45;&gt;Node8</title>
<g id="a_edge7_Node000002_Node000008"><a xlink:title=" ">
<path fill="none" stroke="#63b8ff" d="M599.55,-63.12C636.69,-53.01 682.77,-40.47 717.91,-30.9"/>
<polygon fill="#63b8ff" stroke="#63b8ff" points="599.02,-59.63 590.29,-65.64 600.85,-66.39 599.02,-59.63"/>
</a>
</g>
</g>
<!-- Node9 -->
<g id="Node000009" class="node">
<title>Node9</title>
<g id="a_Node000009"><a xlink:href="BatchChangeWidget_8cpp.html" target="_top" xlink:title=" ">
<polygon fill="white" stroke="#666666" points="1011.88,-30.5 849.62,-30.5 849.62,0 1011.88,0 1011.88,-30.5"/>
<text text-anchor="start" x="857.62" y="-17" font-family="Helvetica,sans-Serif" font-size="10.00">sourcecode/dbe/src</text>
<text text-anchor="middle" x="930.75" y="-5.75" font-family="Helvetica,sans-Serif" font-size="10.00">/widgets/BatchChangeWidget.cpp</text>
</a>
</g>
</g>
<!-- Node2&#45;&gt;Node9 -->
<g id="edge8_Node000002_Node000009" class="edge">
<title>Node2&#45;&gt;Node9</title>
<g id="a_edge8_Node000002_Node000009"><a xlink:title=" ">
<path fill="none" stroke="#63b8ff" d="M605.55,-69.22C673.93,-58.08 777.42,-41.22 849.21,-29.53"/>
<polygon fill="#63b8ff" stroke="#63b8ff" points="605.27,-65.72 595.96,-70.78 606.39,-72.63 605.27,-65.72"/>
</a>
</g>
</g>
<!-- Node10 -->
<g id="Node000010" class="node">
<title>Node10</title>
<g id="a_Node000010"><a xlink:href="IncludeFileWidget_8cpp.html" target="_top" xlink:title=" ">
<polygon fill="white" stroke="#666666" points="1181.25,-30.5 1030.25,-30.5 1030.25,0 1181.25,0 1181.25,-30.5"/>
<text text-anchor="start" x="1038.25" y="-17" font-family="Helvetica,sans-Serif" font-size="10.00">sourcecode/dbe/src</text>
<text text-anchor="middle" x="1105.75" y="-5.75" font-family="Helvetica,sans-Serif" font-size="10.00">/widgets/IncludeFileWidget.cpp</text>
</a>
</g>
</g>
<!-- Node2&#45;&gt;Node10 -->
<g id="edge9_Node000002_Node000010" class="edge">
<title>Node2&#45;&gt;Node10</title>
<g id="a_edge9_Node000002_Node000010"><a xlink:title=" ">
<path fill="none" stroke="#63b8ff" d="M605.82,-74.82C700.65,-66.58 873.69,-50.41 1020.75,-30.5 1023.72,-30.1 1026.74,-29.67 1029.79,-29.23"/>
<polygon fill="#63b8ff" stroke="#63b8ff" points="605.54,-71.33 595.88,-75.68 606.14,-78.3 605.54,-71.33"/>
</a>
</g>
</g>
<!-- Node11 -->
<g id="Node000011" class="node">
<title>Node11</title>
<g id="a_Node000011"><a xlink:href="ObjectEditor_8cpp.html" target="_top" xlink:title=" ">
<polygon fill="white" stroke="#666666" points="1326.25,-30.5 1199.25,-30.5 1199.25,0 1326.25,0 1326.25,-30.5"/>
<text text-anchor="start" x="1207.25" y="-17" font-family="Helvetica,sans-Serif" font-size="10.00">sourcecode/dbe/src</text>
<text text-anchor="middle" x="1262.75" y="-5.75" font-family="Helvetica,sans-Serif" font-size="10.00">/widgets/ObjectEditor.cpp</text>
</a>
</g>
</g>
<!-- Node2&#45;&gt;Node11 -->
<g id="edge10_Node000002_Node000011" class="edge">
<title>Node2&#45;&gt;Node11</title>
<g id="a_edge10_Node000002_Node000011"><a xlink:title=" ">
<path fill="none" stroke="#63b8ff" d="M605.5,-78.09C726.07,-72.95 978.89,-59.48 1190.75,-30.5 1193.4,-30.14 1196.1,-29.74 1198.83,-29.31"/>
<polygon fill="#63b8ff" stroke="#63b8ff" points="605.61,-74.58 595.76,-78.5 605.9,-81.58 605.61,-74.58"/>
</a>
</g>
</g>
<!-- Node12&#45;&gt;Node2 -->
<g id="edge12_Node000012_Node000002" class="edge">
<title>Node12&#45;&gt;Node2</title>
<g id="a_edge12_Node000012_Node000002"><a xlink:title=" ">
<path fill="none" stroke="#63b8ff" d="M476.69,-125.79C489.3,-116.44 503.75,-105.73 515.09,-97.33"/>
<polygon fill="#63b8ff" stroke="#63b8ff" points="474.66,-122.95 468.71,-131.71 478.83,-128.57 474.66,-122.95"/>
</a>
</g>
</g>
<!-- Node12&#45;&gt;Node4 -->
<g id="edge13_Node000012_Node000004" class="edge">
<title>Node12&#45;&gt;Node4</title>
<g id="a_edge13_Node000012_Node000004"><a xlink:title=" ">
<path fill="none" stroke="#63b8ff" d="M392.61,-129.05C313.18,-102.84 168.11,-54.98 95.15,-30.9"/>
<polygon fill="#63b8ff" stroke="#63b8ff" points="391.33,-132.32 401.93,-132.13 393.53,-125.67 391.33,-132.32"/>
</a>
</g>
</g>
</g>
</svg>
