<?xml version="1.0" encoding="UTF-8" standalone="no"?>
<!DOCTYPE svg PUBLIC "-//W3C//DTD SVG 1.1//EN"
 "http://www.w3.org/Graphics/SVG/1.1/DTD/svg11.dtd">
<!-- Generated by graphviz version 9.0.0 (20230911.1827)
 -->
<!-- Title: sourcecode/oksdbinterfaces/include/oksdbinterfaces/DalFactoryFunctions.hpp Pages: 1 -->
<svg width="241pt" height="116pt"
 viewBox="0.00 0.00 240.88 116.25" xmlns="http://www.w3.org/2000/svg" xmlns:xlink="http://www.w3.org/1999/xlink">
<g id="graph0" class="graph" transform="scale(1 1) rotate(0) translate(4 112.25)">
<title>sourcecode/oksdbinterfaces/include/oksdbinterfaces/DalFactoryFunctions.hpp</title>
<!-- Node1 -->
<g id="Node000001" class="node">
<title>Node1</title>
<g id="a_Node000001"><a xlink:title=" ">
<polygon fill="#999999" stroke="#666666" points="138.25,-108.25 0,-108.25 0,-66.5 138.25,-66.5 138.25,-108.25"/>
<text text-anchor="start" x="8" y="-94.75" font-family="Helvetica,sans-Serif" font-size="10.00">sourcecode/oksdbinterfaces</text>
<text text-anchor="start" x="8" y="-83.5" font-family="Helvetica,sans-Serif" font-size="10.00">/include/oksdbinterfaces</text>
<text text-anchor="middle" x="69.12" y="-72.25" font-family="Helvetica,sans-Serif" font-size="10.00">/DalFactoryFunctions.hpp</text>
</a>
</g>
</g>
<!-- Node2 -->
<g id="Node000002" class="node">
<title>Node2</title>
<g id="a_Node000002"><a xlink:title=" ">
<polygon fill="#e0e0e0" stroke="#999999" points="30.88,-24.88 1.38,-24.88 1.38,-5.63 30.88,-5.63 30.88,-24.88"/>
<text text-anchor="middle" x="16.12" y="-11.38" font-family="Helvetica,sans-Serif" font-size="10.00">set</text>
</a>
</g>
</g>
<!-- Node1&#45;&gt;Node2 -->
<g id="edge1_Node000001_Node000002" class="edge">
<title>Node1&#45;&gt;Node2</title>
<g id="a_edge1_Node000001_Node000002"><a xlink:title=" ">
<path fill="none" stroke="#63b8ff" d="M53.8,-66.09C46.17,-56 37.04,-43.92 29.67,-34.18"/>
<polygon fill="#63b8ff" stroke="#63b8ff" points="32.51,-32.13 23.69,-26.26 26.93,-36.35 32.51,-32.13"/>
</a>
</g>
</g>
<!-- Node3 -->
<g id="Node000003" class="node">
<title>Node3</title>
<g id="a_Node000003"><a xlink:title=" ">
<polygon fill="#e0e0e0" stroke="#999999" points="89.12,-24.88 49.12,-24.88 49.12,-5.63 89.12,-5.63 89.12,-24.88"/>
<text text-anchor="middle" x="69.12" y="-11.38" font-family="Helvetica,sans-Serif" font-size="10.00">string</text>
</a>
</g>
</g>
<!-- Node1&#45;&gt;Node3 -->
<g id="edge2_Node000001_Node000003" class="edge">
<title>Node1&#45;&gt;Node3</title>
<g id="a_edge2_Node000001_Node000003"><a xlink:title=" ">
<path fill="none" stroke="#63b8ff" d="M69.12,-66.09C69.12,-56.75 69.12,-45.69 69.12,-36.37"/>
<polygon fill="#63b8ff" stroke="#63b8ff" points="72.63,-36.57 69.13,-26.57 65.63,-36.57 72.63,-36.57"/>
</a>
</g>
</g>
<!-- Node4 -->
<g id="Node000004" class="node">
<title>Node4</title>
<g id="a_Node000004"><a xlink:title=" ">
<polygon fill="#e0e0e0" stroke="#999999" points="232.88,-30.5 107.38,-30.5 107.38,0 232.88,0 232.88,-30.5"/>
<text text-anchor="start" x="115.38" y="-17" font-family="Helvetica,sans-Serif" font-size="10.00">boost/compute/functional</text>
<text text-anchor="middle" x="170.12" y="-5.75" font-family="Helvetica,sans-Serif" font-size="10.00">/identity.hpp</text>
</a>
</g>
</g>
<!-- Node1&#45;&gt;Node4 -->
<g id="edge3_Node000001_Node000004" class="edge">
<title>Node1&#45;&gt;Node4</title>
<g id="a_edge3_Node000001_Node000004"><a xlink:title=" ">
<path fill="none" stroke="#63b8ff" d="M98.34,-66.09C111.37,-57.04 126.72,-46.39 139.87,-37.25"/>
<polygon fill="#63b8ff" stroke="#63b8ff" points="141.53,-40.36 147.75,-31.78 137.54,-34.61 141.53,-40.36"/>
</a>
</g>
</g>
</g>
</svg>
