<?xml version="1.0" encoding="UTF-8" standalone="no"?>
<!DOCTYPE svg PUBLIC "-//W3C//DTD SVG 1.1//EN"
 "http://www.w3.org/Graphics/SVG/1.1/DTD/svg11.dtd">
<!-- Generated by graphviz version 9.0.0 (20230911.1827)
 -->
<!-- Title: sourcecode/oksdbinterfaces/include/oksdbinterfaces/DalObject.hpp Pages: 1 -->
<svg width="727pt" height="249pt"
 viewBox="0.00 0.00 727.38 249.25" xmlns="http://www.w3.org/2000/svg" xmlns:xlink="http://www.w3.org/1999/xlink">
<g id="graph0" class="graph" transform="scale(1 1) rotate(0) translate(4 245.25)">
<title>sourcecode/oksdbinterfaces/include/oksdbinterfaces/DalObject.hpp</title>
<!-- Node1 -->
<g id="Node000001" class="node">
<title>Node1</title>
<g id="a_Node000001"><a xlink:title=" ">
<polygon fill="#999999" stroke="#666666" points="514.38,-241.25 376.12,-241.25 376.12,-199.5 514.38,-199.5 514.38,-241.25"/>
<text text-anchor="start" x="384.12" y="-227.75" font-family="Helvetica,sans-Serif" font-size="10.00">sourcecode/oksdbinterfaces</text>
<text text-anchor="start" x="384.12" y="-216.5" font-family="Helvetica,sans-Serif" font-size="10.00">/include/oksdbinterfaces</text>
<text text-anchor="middle" x="445.25" y="-205.25" font-family="Helvetica,sans-Serif" font-size="10.00">/DalObject.hpp</text>
</a>
</g>
</g>
<!-- Node2 -->
<g id="Node000002" class="node">
<title>Node2</title>
<g id="a_Node000002"><a xlink:href="util_8hpp.html" target="_top" xlink:title=" ">
<polygon fill="white" stroke="#666666" points="270.25,-163.5 152.25,-163.5 152.25,-133 270.25,-133 270.25,-163.5"/>
<text text-anchor="start" x="160.25" y="-150" font-family="Helvetica,sans-Serif" font-size="10.00">sourcecode/coredal</text>
<text text-anchor="middle" x="211.25" y="-138.75" font-family="Helvetica,sans-Serif" font-size="10.00">/include/coredal/util.hpp</text>
</a>
</g>
</g>
<!-- Node1&#45;&gt;Node2 -->
<g id="edge1_Node000001_Node000002" class="edge">
<title>Node1&#45;&gt;Node2</title>
<g id="a_edge1_Node000001_Node000002"><a xlink:title=" ">
<path fill="none" stroke="#63b8ff" d="M366.81,-195.87C331.56,-185.3 291.04,-173.16 260.2,-163.92"/>
<polygon fill="#63b8ff" stroke="#63b8ff" points="365.53,-199.14 376.12,-198.66 367.54,-192.43 365.53,-199.14"/>
</a>
</g>
</g>
<!-- Node7 -->
<g id="Node000007" class="node">
<title>Node7</title>
<g id="a_Node000007"><a xlink:href="test__circular__dependency_8cpp.html" target="_top" xlink:title=" ">
<polygon fill="white" stroke="#666666" points="500.12,-30.5 336.38,-30.5 336.38,0 500.12,0 500.12,-30.5"/>
<text text-anchor="start" x="344.38" y="-17" font-family="Helvetica,sans-Serif" font-size="10.00">sourcecode/coredal</text>
<text text-anchor="middle" x="418.25" y="-5.75" font-family="Helvetica,sans-Serif" font-size="10.00">/src/test_circular_dependency.cpp</text>
</a>
</g>
</g>
<!-- Node1&#45;&gt;Node7 -->
<g id="edge8_Node000001_Node000007" class="edge">
<title>Node1&#45;&gt;Node7</title>
<g id="a_edge8_Node000001_Node000007"><a xlink:title=" ">
<path fill="none" stroke="#63b8ff" d="M426.22,-189.11C422.12,-181.08 418.38,-172.21 416.25,-163.5 404.67,-116.06 411.48,-57.44 415.69,-30.73"/>
<polygon fill="#63b8ff" stroke="#63b8ff" points="423.1,-190.69 430.99,-197.77 429.23,-187.32 423.1,-190.69"/>
</a>
</g>
</g>
<!-- Node8 -->
<g id="Node000008" class="node">
<title>Node8</title>
<g id="a_Node000008"><a xlink:href="oksdbinterfaces_2src_2Configuration_8cpp.html" target="_top" xlink:title=" ">
<polygon fill="white" stroke="#666666" points="563.38,-163.5 425.12,-163.5 425.12,-133 563.38,-133 563.38,-163.5"/>
<text text-anchor="start" x="433.12" y="-150" font-family="Helvetica,sans-Serif" font-size="10.00">sourcecode/oksdbinterfaces</text>
<text text-anchor="middle" x="494.25" y="-138.75" font-family="Helvetica,sans-Serif" font-size="10.00">/src/Configuration.cpp</text>
</a>
</g>
</g>
<!-- Node1&#45;&gt;Node8 -->
<g id="edge9_Node000001_Node000008" class="edge">
<title>Node1&#45;&gt;Node8</title>
<g id="a_edge9_Node000001_Node000008"><a xlink:title=" ">
<path fill="none" stroke="#63b8ff" d="M465.82,-189.93C472.16,-180.87 478.85,-171.29 484.15,-163.7"/>
<polygon fill="#63b8ff" stroke="#63b8ff" points="463.15,-187.65 460.29,-197.85 468.89,-191.66 463.15,-187.65"/>
</a>
</g>
</g>
<!-- Node9 -->
<g id="Node000009" class="node">
<title>Node9</title>
<g id="a_Node000009"><a xlink:href="SubscriptionCriteria_8cpp.html" target="_top" xlink:title=" ">
<polygon fill="white" stroke="#666666" points="719.38,-163.5 581.12,-163.5 581.12,-133 719.38,-133 719.38,-163.5"/>
<text text-anchor="start" x="589.12" y="-150" font-family="Helvetica,sans-Serif" font-size="10.00">sourcecode/oksdbinterfaces</text>
<text text-anchor="middle" x="650.25" y="-138.75" font-family="Helvetica,sans-Serif" font-size="10.00">/src/SubscriptionCriteria.cpp</text>
</a>
</g>
</g>
<!-- Node1&#45;&gt;Node9 -->
<g id="edge10_Node000001_Node000009" class="edge">
<title>Node1&#45;&gt;Node9</title>
<g id="a_edge10_Node000001_Node000009"><a xlink:title=" ">
<path fill="none" stroke="#63b8ff" d="M515.17,-195.46C545.77,-184.99 580.69,-173.04 607.37,-163.92"/>
<polygon fill="#63b8ff" stroke="#63b8ff" points="514.31,-192.05 505.98,-198.6 516.57,-198.68 514.31,-192.05"/>
</a>
</g>
</g>
<!-- Node3 -->
<g id="Node000003" class="node">
<title>Node3</title>
<g id="a_Node000003"><a xlink:href="SmartDaqApplication_8cpp.html" target="_top" xlink:title=" ">
<polygon fill="white" stroke="#666666" points="128.5,-97 0,-97 0,-66.5 128.5,-66.5 128.5,-97"/>
<text text-anchor="start" x="8" y="-83.5" font-family="Helvetica,sans-Serif" font-size="10.00">sourcecode/appdal/src</text>
<text text-anchor="middle" x="64.25" y="-72.25" font-family="Helvetica,sans-Serif" font-size="10.00">/SmartDaqApplication.cpp</text>
</a>
</g>
</g>
<!-- Node2&#45;&gt;Node3 -->
<g id="edge2_Node000002_Node000003" class="edge">
<title>Node2&#45;&gt;Node3</title>
<g id="a_edge2_Node000002_Node000003"><a xlink:title=" ">
<path fill="none" stroke="#63b8ff" d="M167.64,-128.12C145.27,-118.3 118.45,-106.53 97.73,-97.44"/>
<polygon fill="#63b8ff" stroke="#63b8ff" points="165.94,-131.19 176.51,-132.01 168.76,-124.78 165.94,-131.19"/>
</a>
</g>
</g>
<!-- Node4 -->
<g id="Node000004" class="node">
<title>Node4</title>
<g id="a_Node000004"><a xlink:href="disabled-components_8cpp.html" target="_top" xlink:title=" ">
<polygon fill="white" stroke="#666666" points="196.12,-30.5 50.38,-30.5 50.38,0 196.12,0 196.12,-30.5"/>
<text text-anchor="start" x="58.38" y="-17" font-family="Helvetica,sans-Serif" font-size="10.00">sourcecode/coredal</text>
<text text-anchor="middle" x="123.25" y="-5.75" font-family="Helvetica,sans-Serif" font-size="10.00">/src/disabled&#45;components.cpp</text>
</a>
</g>
</g>
<!-- Node2&#45;&gt;Node4 -->
<g id="edge3_Node000002_Node000004" class="edge">
<title>Node2&#45;&gt;Node4</title>
<g id="a_edge3_Node000002_Node000004"><a xlink:title=" ">
<path fill="none" stroke="#63b8ff" d="M194.01,-123.7C187.98,-115.33 181.23,-105.8 175.25,-97 159.79,-74.24 142.65,-47.28 132.43,-30.98"/>
<polygon fill="#63b8ff" stroke="#63b8ff" points="191.07,-125.6 199.77,-131.65 196.74,-121.49 191.07,-125.6"/>
</a>
</g>
</g>
<!-- Node5 -->
<g id="Node000005" class="node">
<title>Node5</title>
<g id="a_Node000005"><a xlink:href="test__circular__dependency_8hpp.html" target="_top" xlink:title=" ">
<polygon fill="white" stroke="#666666" points="348.12,-97 184.38,-97 184.38,-66.5 348.12,-66.5 348.12,-97"/>
<text text-anchor="start" x="192.38" y="-83.5" font-family="Helvetica,sans-Serif" font-size="10.00">sourcecode/coredal</text>
<text text-anchor="middle" x="266.25" y="-72.25" font-family="Helvetica,sans-Serif" font-size="10.00">/src/test_circular_dependency.hpp</text>
</a>
</g>
</g>
<!-- Node2&#45;&gt;Node5 -->
<g id="edge4_Node000002_Node000005" class="edge">
<title>Node2&#45;&gt;Node5</title>
<g id="a_edge4_Node000002_Node000005"><a xlink:title=" ">
<path fill="none" stroke="#63b8ff" d="M230.96,-124.13C238.59,-115.19 247.08,-105.24 253.82,-97.33"/>
<polygon fill="#63b8ff" stroke="#63b8ff" points="228.54,-121.58 224.71,-131.46 233.86,-126.12 228.54,-121.58"/>
</a>
</g>
</g>
<!-- Node5&#45;&gt;Node4 -->
<g id="edge6_Node000005_Node000004" class="edge">
<title>Node5&#45;&gt;Node4</title>
<g id="a_edge6_Node000005_Node000004"><a xlink:title=" ">
<path fill="none" stroke="#63b8ff" d="M223.5,-61.47C201.71,-51.64 175.66,-39.89 155.57,-30.83"/>
<polygon fill="#63b8ff" stroke="#63b8ff" points="221.87,-64.57 232.42,-65.49 224.74,-58.19 221.87,-64.57"/>
</a>
</g>
</g>
<!-- Node6 -->
<g id="Node000006" class="node">
<title>Node6</title>
<g id="a_Node000006"><a xlink:href="dalMethods_8cpp.html" target="_top" xlink:title=" ">
<polygon fill="white" stroke="#666666" points="318.12,-30.5 214.38,-30.5 214.38,0 318.12,0 318.12,-30.5"/>
<text text-anchor="start" x="222.38" y="-17" font-family="Helvetica,sans-Serif" font-size="10.00">sourcecode/coredal</text>
<text text-anchor="middle" x="266.25" y="-5.75" font-family="Helvetica,sans-Serif" font-size="10.00">/src/dalMethods.cpp</text>
</a>
</g>
</g>
<!-- Node5&#45;&gt;Node6 -->
<g id="edge5_Node000005_Node000006" class="edge">
<title>Node5&#45;&gt;Node6</title>
<g id="a_edge5_Node000005_Node000006"><a xlink:title=" ">
<path fill="none" stroke="#63b8ff" d="M266.25,-54.81C266.25,-46.64 266.25,-37.91 266.25,-30.83"/>
<polygon fill="#63b8ff" stroke="#63b8ff" points="262.75,-54.6 266.25,-64.6 269.75,-54.6 262.75,-54.6"/>
</a>
</g>
</g>
<!-- Node5&#45;&gt;Node7 -->
<g id="edge7_Node000005_Node000007" class="edge">
<title>Node5&#45;&gt;Node7</title>
<g id="a_edge7_Node000005_Node000007"><a xlink:title=" ">
<path fill="none" stroke="#63b8ff" d="M311.03,-61.75C334.22,-51.91 362.11,-40.07 383.63,-30.94"/>
<polygon fill="#63b8ff" stroke="#63b8ff" points="309.97,-58.39 302.13,-65.52 312.71,-64.84 309.97,-58.39"/>
</a>
</g>
</g>
</g>
</svg>
