<?xml version="1.0" encoding="UTF-8" standalone="no"?>
<!DOCTYPE svg PUBLIC "-//W3C//DTD SVG 1.1//EN"
 "http://www.w3.org/Graphics/SVG/1.1/DTD/svg11.dtd">
<!-- Generated by graphviz version 9.0.0 (20230911.1827)
 -->
<!-- Title: sourcecode/detdataformats/pybindsrc/daqheader.cpp Pages: 1 -->
<svg width="569pt" height="149pt"
 viewBox="0.00 0.00 569.00 149.00" xmlns="http://www.w3.org/2000/svg" xmlns:xlink="http://www.w3.org/1999/xlink">
<g id="graph0" class="graph" transform="scale(1 1) rotate(0) translate(4 145)">
<title>sourcecode/detdataformats/pybindsrc/daqheader.cpp</title>
<!-- Node1 -->
<g id="Node000001" class="node">
<title>Node1</title>
<g id="a_Node000001"><a xlink:title=" ">
<polygon fill="#999999" stroke="#666666" points="414.62,-141 280.12,-141 280.12,-110.5 414.62,-110.5 414.62,-141"/>
<text text-anchor="start" x="288.12" y="-127.5" font-family="Helvetica,sans-Serif" font-size="10.00">sourcecode/detdataformats</text>
<text text-anchor="middle" x="347.38" y="-116.25" font-family="Helvetica,sans-Serif" font-size="10.00">/pybindsrc/daqheader.cpp</text>
</a>
</g>
</g>
<!-- Node2 -->
<g id="Node000002" class="node">
<title>Node2</title>
<g id="a_Node000002"><a xlink:href="DAQHeader_8hpp.html" target="_top" xlink:title=" ">
<polygon fill="white" stroke="#666666" points="154.75,-74.5 0,-74.5 0,-55.25 154.75,-55.25 154.75,-74.5"/>
<text text-anchor="middle" x="77.38" y="-61" font-family="Helvetica,sans-Serif" font-size="10.00">detdataformats/DAQHeader.hpp</text>
</a>
</g>
</g>
<!-- Node1&#45;&gt;Node2 -->
<g id="edge1_Node000001_Node000002" class="edge">
<title>Node1&#45;&gt;Node2</title>
<g id="a_edge1_Node000001_Node000002"><a xlink:title=" ">
<path fill="none" stroke="#63b8ff" d="M279.94,-110.05C233.63,-99.95 173.02,-86.73 130.21,-77.4"/>
<polygon fill="#63b8ff" stroke="#63b8ff" points="131.17,-74.02 120.66,-75.31 129.68,-80.86 131.17,-74.02"/>
</a>
</g>
</g>
<!-- Node5 -->
<g id="Node000005" class="node">
<title>Node5</title>
<g id="a_Node000005"><a xlink:title=" ">
<polygon fill="#e0e0e0" stroke="#999999" points="278,-74.5 172.75,-74.5 172.75,-55.25 278,-55.25 278,-74.5"/>
<text text-anchor="middle" x="225.38" y="-61" font-family="Helvetica,sans-Serif" font-size="10.00">pybind11/operators.h</text>
</a>
</g>
</g>
<!-- Node1&#45;&gt;Node5 -->
<g id="edge4_Node000001_Node000005" class="edge">
<title>Node1&#45;&gt;Node5</title>
<g id="a_edge4_Node000001_Node000005"><a xlink:title=" ">
<path fill="none" stroke="#63b8ff" d="M316.9,-110.05C297.79,-100.82 273.28,-89 254.44,-79.9"/>
<polygon fill="#63b8ff" stroke="#63b8ff" points="255.98,-76.76 245.45,-75.56 252.93,-83.06 255.98,-76.76"/>
</a>
</g>
</g>
<!-- Node6 -->
<g id="Node000006" class="node">
<title>Node6</title>
<g id="a_Node000006"><a xlink:title=" ">
<polygon fill="#e0e0e0" stroke="#999999" points="398.88,-74.5 295.88,-74.5 295.88,-55.25 398.88,-55.25 398.88,-74.5"/>
<text text-anchor="middle" x="347.38" y="-61" font-family="Helvetica,sans-Serif" font-size="10.00">pybind11/pybind11.h</text>
</a>
</g>
</g>
<!-- Node1&#45;&gt;Node6 -->
<g id="edge5_Node000001_Node000006" class="edge">
<title>Node1&#45;&gt;Node6</title>
<g id="a_edge5_Node000001_Node000006"><a xlink:title=" ">
<path fill="none" stroke="#63b8ff" d="M347.38,-110.2C347.38,-102.96 347.38,-94.09 347.38,-86.19"/>
<polygon fill="#63b8ff" stroke="#63b8ff" points="350.88,-86.46 347.38,-76.46 343.88,-86.46 350.88,-86.46"/>
</a>
</g>
</g>
<!-- Node7 -->
<g id="Node000007" class="node">
<title>Node7</title>
<g id="a_Node000007"><a xlink:title=" ">
<polygon fill="#e0e0e0" stroke="#999999" points="492,-74.5 416.75,-74.5 416.75,-55.25 492,-55.25 492,-74.5"/>
<text text-anchor="middle" x="454.38" y="-61" font-family="Helvetica,sans-Serif" font-size="10.00">pybind11/stl.h</text>
</a>
</g>
</g>
<!-- Node1&#45;&gt;Node7 -->
<g id="edge6_Node000001_Node000007" class="edge">
<title>Node1&#45;&gt;Node7</title>
<g id="a_edge6_Node000001_Node000007"><a xlink:title=" ">
<path fill="none" stroke="#63b8ff" d="M374.1,-110.05C390.55,-100.99 411.55,-89.44 427.95,-80.41"/>
<polygon fill="#63b8ff" stroke="#63b8ff" points="429.57,-83.52 436.64,-75.63 426.19,-77.39 429.57,-83.52"/>
</a>
</g>
</g>
<!-- Node8 -->
<g id="Node000008" class="node">
<title>Node8</title>
<g id="a_Node000008"><a xlink:title=" ">
<polygon fill="#e0e0e0" stroke="#999999" points="561,-74.5 509.75,-74.5 509.75,-55.25 561,-55.25 561,-74.5"/>
<text text-anchor="middle" x="535.38" y="-61" font-family="Helvetica,sans-Serif" font-size="10.00">sstream</text>
</a>
</g>
</g>
<!-- Node1&#45;&gt;Node8 -->
<g id="edge7_Node000001_Node000008" class="edge">
<title>Node1&#45;&gt;Node8</title>
<g id="a_edge7_Node000001_Node000008"><a xlink:title=" ">
<path fill="none" stroke="#63b8ff" d="M394.33,-110.05C426.54,-99.96 468.68,-86.76 498.49,-77.43"/>
<polygon fill="#63b8ff" stroke="#63b8ff" points="499.32,-80.84 507.81,-74.51 497.22,-74.15 499.32,-80.84"/>
</a>
</g>
</g>
<!-- Node3 -->
<g id="Node000003" class="node">
<title>Node3</title>
<g id="a_Node000003"><a xlink:title=" ">
<polygon fill="#e0e0e0" stroke="#999999" points="67,-19.25 21.75,-19.25 21.75,0 67,0 67,-19.25"/>
<text text-anchor="middle" x="44.38" y="-5.75" font-family="Helvetica,sans-Serif" font-size="10.00">cstdint</text>
</a>
</g>
</g>
<!-- Node2&#45;&gt;Node3 -->
<g id="edge2_Node000002_Node000003" class="edge">
<title>Node2&#45;&gt;Node3</title>
<g id="a_edge2_Node000002_Node000003"><a xlink:title=" ">
<path fill="none" stroke="#63b8ff" d="M71.93,-55.08C67.6,-48.11 61.41,-38.12 55.99,-29.37"/>
<polygon fill="#63b8ff" stroke="#63b8ff" points="58.98,-27.55 50.74,-20.9 53.03,-31.24 58.98,-27.55"/>
</a>
</g>
</g>
<!-- Node4 -->
<g id="Node000004" class="node">
<title>Node4</title>
<g id="a_Node000004"><a xlink:title=" ">
<polygon fill="#e0e0e0" stroke="#999999" points="136,-19.25 84.75,-19.25 84.75,0 136,0 136,-19.25"/>
<text text-anchor="middle" x="110.38" y="-5.75" font-family="Helvetica,sans-Serif" font-size="10.00">ostream</text>
</a>
</g>
</g>
<!-- Node2&#45;&gt;Node4 -->
<g id="edge3_Node000002_Node000004" class="edge">
<title>Node2&#45;&gt;Node4</title>
<g id="a_edge3_Node000002_Node000004"><a xlink:title=" ">
<path fill="none" stroke="#63b8ff" d="M82.82,-55.08C87.15,-48.11 93.34,-38.12 98.76,-29.37"/>
<polygon fill="#63b8ff" stroke="#63b8ff" points="101.72,-31.24 104.01,-20.9 95.77,-27.55 101.72,-31.24"/>
</a>
</g>
</g>
</g>
</svg>
