<?xml version="1.0" encoding="UTF-8" standalone="no"?>
<!DOCTYPE svg PUBLIC "-//W3C//DTD SVG 1.1//EN"
 "http://www.w3.org/Graphics/SVG/1.1/DTD/svg11.dtd">
<!-- Generated by graphviz version 9.0.0 (20230911.1827)
 -->
<!-- Title: sourcecode/appfwk/src/detail/DAQModuleManager.hxx Pages: 1 -->
<svg width="160pt" height="238pt"
 viewBox="0.00 0.00 159.75 238.00" xmlns="http://www.w3.org/2000/svg" xmlns:xlink="http://www.w3.org/1999/xlink">
<g id="graph0" class="graph" transform="scale(1 1) rotate(0) translate(4 234)">
<title>sourcecode/appfwk/src/detail/DAQModuleManager.hxx</title>
<!-- Node1 -->
<g id="Node000001" class="node">
<title>Node1</title>
<g id="a_Node000001"><a xlink:title=" ">
<polygon fill="#999999" stroke="#666666" points="151.75,-230 0,-230 0,-199.5 151.75,-199.5 151.75,-230"/>
<text text-anchor="start" x="8" y="-216.5" font-family="Helvetica,sans-Serif" font-size="10.00">sourcecode/appfwk/src</text>
<text text-anchor="middle" x="75.88" y="-205.25" font-family="Helvetica,sans-Serif" font-size="10.00">/detail/DAQModuleManager.hxx</text>
</a>
</g>
</g>
<!-- Node2 -->
<g id="Node000002" class="node">
<title>Node2</title>
<g id="a_Node000002"><a xlink:href="DAQModuleManager_8hpp.html" target="_top" xlink:title=" ">
<polygon fill="white" stroke="#666666" points="139.38,-163.5 12.37,-163.5 12.37,-133 139.38,-133 139.38,-163.5"/>
<text text-anchor="start" x="20.38" y="-150" font-family="Helvetica,sans-Serif" font-size="10.00">sourcecode/appfwk/src</text>
<text text-anchor="middle" x="75.88" y="-138.75" font-family="Helvetica,sans-Serif" font-size="10.00">/DAQModuleManager.hpp</text>
</a>
</g>
</g>
<!-- Node1&#45;&gt;Node2 -->
<g id="edge1_Node000001_Node000002" class="edge">
<title>Node1&#45;&gt;Node2</title>
<g id="a_edge1_Node000001_Node000002"><a xlink:title=" ">
<path fill="none" stroke="#63b8ff" d="M75.88,-187.81C75.88,-179.64 75.88,-170.91 75.88,-163.83"/>
<polygon fill="#63b8ff" stroke="#63b8ff" points="72.38,-187.6 75.88,-197.6 79.38,-187.6 72.38,-187.6"/>
</a>
</g>
</g>
<!-- Node3 -->
<g id="Node000003" class="node">
<title>Node3</title>
<g id="a_Node000003"><a xlink:href="Application_8hpp.html" target="_top" xlink:title=" ">
<polygon fill="white" stroke="#666666" points="134.5,-97 17.25,-97 17.25,-66.5 134.5,-66.5 134.5,-97"/>
<text text-anchor="start" x="25.25" y="-83.5" font-family="Helvetica,sans-Serif" font-size="10.00">sourcecode/appfwk/src</text>
<text text-anchor="middle" x="75.88" y="-72.25" font-family="Helvetica,sans-Serif" font-size="10.00">/Application.hpp</text>
</a>
</g>
</g>
<!-- Node2&#45;&gt;Node3 -->
<g id="edge2_Node000002_Node000003" class="edge">
<title>Node2&#45;&gt;Node3</title>
<g id="a_edge2_Node000002_Node000003"><a xlink:title=" ">
<path fill="none" stroke="#63b8ff" d="M75.88,-121.31C75.88,-113.14 75.88,-104.41 75.88,-97.33"/>
<polygon fill="#63b8ff" stroke="#63b8ff" points="72.38,-121.1 75.88,-131.1 79.38,-121.1 72.38,-121.1"/>
</a>
</g>
</g>
<!-- Node4 -->
<g id="Node000004" class="node">
<title>Node4</title>
<g id="a_Node000004"><a xlink:href="daq__application_8cxx.html" target="_top" xlink:title=" ">
<polygon fill="white" stroke="#666666" points="138.25,-30.5 13.5,-30.5 13.5,0 138.25,0 138.25,-30.5"/>
<text text-anchor="start" x="21.5" y="-17" font-family="Helvetica,sans-Serif" font-size="10.00">sourcecode/appfwk/apps</text>
<text text-anchor="middle" x="75.88" y="-5.75" font-family="Helvetica,sans-Serif" font-size="10.00">/daq_application.cxx</text>
</a>
</g>
</g>
<!-- Node3&#45;&gt;Node4 -->
<g id="edge3_Node000003_Node000004" class="edge">
<title>Node3&#45;&gt;Node4</title>
<g id="a_edge3_Node000003_Node000004"><a xlink:title=" ">
<path fill="none" stroke="#63b8ff" d="M75.88,-54.81C75.88,-46.64 75.88,-37.91 75.88,-30.83"/>
<polygon fill="#63b8ff" stroke="#63b8ff" points="72.38,-54.6 75.88,-64.6 79.38,-54.6 72.38,-54.6"/>
</a>
</g>
</g>
</g>
</svg>
