<?xml version="1.0" encoding="UTF-8" standalone="no"?>
<!DOCTYPE svg PUBLIC "-//W3C//DTD SVG 1.1//EN"
 "http://www.w3.org/Graphics/SVG/1.1/DTD/svg11.dtd">
<!-- Generated by graphviz version 9.0.0 (20230911.1827)
 -->
<!-- Title: sourcecode/appfwk/src/DAQModuleManager.hpp Pages: 1 -->
<svg width="135pt" height="172pt"
 viewBox="0.00 0.00 135.00 171.50" xmlns="http://www.w3.org/2000/svg" xmlns:xlink="http://www.w3.org/1999/xlink">
<g id="graph0" class="graph" transform="scale(1 1) rotate(0) translate(4 167.5)">
<title>sourcecode/appfwk/src/DAQModuleManager.hpp</title>
<!-- Node1 -->
<g id="Node000001" class="node">
<title>Node1</title>
<g id="a_Node000001"><a xlink:title=" ">
<polygon fill="#999999" stroke="#666666" points="127,-163.5 0,-163.5 0,-133 127,-133 127,-163.5"/>
<text text-anchor="start" x="8" y="-150" font-family="Helvetica,sans-Serif" font-size="10.00">sourcecode/appfwk/src</text>
<text text-anchor="middle" x="63.5" y="-138.75" font-family="Helvetica,sans-Serif" font-size="10.00">/DAQModuleManager.hpp</text>
</a>
</g>
</g>
<!-- Node2 -->
<g id="Node000002" class="node">
<title>Node2</title>
<g id="a_Node000002"><a xlink:href="Application_8hpp.html" target="_top" xlink:title=" ">
<polygon fill="white" stroke="#666666" points="122.12,-97 4.88,-97 4.88,-66.5 122.12,-66.5 122.12,-97"/>
<text text-anchor="start" x="12.88" y="-83.5" font-family="Helvetica,sans-Serif" font-size="10.00">sourcecode/appfwk/src</text>
<text text-anchor="middle" x="63.5" y="-72.25" font-family="Helvetica,sans-Serif" font-size="10.00">/Application.hpp</text>
</a>
</g>
</g>
<!-- Node1&#45;&gt;Node2 -->
<g id="edge1_Node000001_Node000002" class="edge">
<title>Node1&#45;&gt;Node2</title>
<g id="a_edge1_Node000001_Node000002"><a xlink:title=" ">
<path fill="none" stroke="#63b8ff" d="M63.5,-121.31C63.5,-113.14 63.5,-104.41 63.5,-97.33"/>
<polygon fill="#63b8ff" stroke="#63b8ff" points="60,-121.1 63.5,-131.1 67,-121.1 60,-121.1"/>
</a>
</g>
</g>
<!-- Node3 -->
<g id="Node000003" class="node">
<title>Node3</title>
<g id="a_Node000003"><a xlink:href="daq__application_8cxx.html" target="_top" xlink:title=" ">
<polygon fill="white" stroke="#666666" points="125.88,-30.5 1.13,-30.5 1.13,0 125.88,0 125.88,-30.5"/>
<text text-anchor="start" x="9.13" y="-17" font-family="Helvetica,sans-Serif" font-size="10.00">sourcecode/appfwk/apps</text>
<text text-anchor="middle" x="63.5" y="-5.75" font-family="Helvetica,sans-Serif" font-size="10.00">/daq_application.cxx</text>
</a>
</g>
</g>
<!-- Node2&#45;&gt;Node3 -->
<g id="edge2_Node000002_Node000003" class="edge">
<title>Node2&#45;&gt;Node3</title>
<g id="a_edge2_Node000002_Node000003"><a xlink:title=" ">
<path fill="none" stroke="#63b8ff" d="M63.5,-54.81C63.5,-46.64 63.5,-37.91 63.5,-30.83"/>
<polygon fill="#63b8ff" stroke="#63b8ff" points="60,-54.6 63.5,-64.6 67,-54.6 60,-54.6"/>
</a>
</g>
</g>
</g>
</svg>
