<?xml version="1.0" encoding="UTF-8" standalone="no"?>
<!DOCTYPE svg PUBLIC "-//W3C//DTD SVG 1.1//EN"
 "http://www.w3.org/Graphics/SVG/1.1/DTD/svg11.dtd">
<!-- Generated by graphviz version 9.0.0 (20230911.1827)
 -->
<!-- Title: sourcecode/appfwk/include/appfwk/detail/DAQModule.hxx Pages: 1 -->
<svg width="2633pt" height="405pt"
 viewBox="0.00 0.00 2633.25 404.75" xmlns="http://www.w3.org/2000/svg" xmlns:xlink="http://www.w3.org/1999/xlink">
<g id="graph0" class="graph" transform="scale(1 1) rotate(0) translate(4 400.75)">
<title>sourcecode/appfwk/include/appfwk/detail/DAQModule.hxx</title>
<!-- Node1 -->
<g id="Node000001" class="node">
<title>Node1</title>
<g id="a_Node000001"><a xlink:title=" ">
<polygon fill="#999999" stroke="#666666" points="923,-396.75 774.25,-396.75 774.25,-366.25 923,-366.25 923,-396.75"/>
<text text-anchor="start" x="782.25" y="-383.25" font-family="Helvetica,sans-Serif" font-size="10.00">sourcecode/appfwk/include</text>
<text text-anchor="middle" x="848.62" y="-372" font-family="Helvetica,sans-Serif" font-size="10.00">/appfwk/detail/DAQModule.hxx</text>
</a>
</g>
</g>
<!-- Node2 -->
<g id="Node000002" class="node">
<title>Node2</title>
<g id="a_Node000002"><a xlink:href="DAQModule_8hpp.html" target="_top" xlink:title=" ">
<polygon fill="white" stroke="#666666" points="915.88,-330.25 781.38,-330.25 781.38,-299.75 915.88,-299.75 915.88,-330.25"/>
<text text-anchor="start" x="789.38" y="-316.75" font-family="Helvetica,sans-Serif" font-size="10.00">sourcecode/appfwk/include</text>
<text text-anchor="middle" x="848.62" y="-305.5" font-family="Helvetica,sans-Serif" font-size="10.00">/appfwk/DAQModule.hpp</text>
</a>
</g>
</g>
<!-- Node1&#45;&gt;Node2 -->
<g id="edge1_Node000001_Node000002" class="edge">
<title>Node1&#45;&gt;Node2</title>
<g id="a_edge1_Node000001_Node000002"><a xlink:title=" ">
<path fill="none" stroke="#63b8ff" d="M848.62,-354.56C848.62,-346.39 848.62,-337.66 848.62,-330.58"/>
<polygon fill="#63b8ff" stroke="#63b8ff" points="845.13,-354.35 848.63,-364.35 852.13,-354.35 845.13,-354.35"/>
</a>
</g>
</g>
<!-- Node3 -->
<g id="Node000003" class="node">
<title>Node3</title>
<g id="a_Node000003"><a xlink:href="DAQModule_8cpp.html" target="_top" xlink:title=" ">
<polygon fill="white" stroke="#666666" points="117.25,-258.12 0,-258.12 0,-227.62 117.25,-227.62 117.25,-258.12"/>
<text text-anchor="start" x="8" y="-244.62" font-family="Helvetica,sans-Serif" font-size="10.00">sourcecode/appfwk/src</text>
<text text-anchor="middle" x="58.62" y="-233.38" font-family="Helvetica,sans-Serif" font-size="10.00">/DAQModule.cpp</text>
</a>
</g>
</g>
<!-- Node2&#45;&gt;Node3 -->
<g id="edge2_Node000002_Node000003" class="edge">
<title>Node2&#45;&gt;Node3</title>
<g id="a_edge2_Node000002_Node000003"><a xlink:title=" ">
<path fill="none" stroke="#63b8ff" d="M769.8,-314.03C636.34,-312.85 357.83,-305.09 126.62,-263.75 119.24,-262.43 111.51,-260.61 104.03,-258.6"/>
<polygon fill="#63b8ff" stroke="#63b8ff" points="769.55,-317.53 779.58,-314.1 769.61,-310.53 769.55,-317.53"/>
</a>
</g>
</g>
<!-- Node4 -->
<g id="Node000004" class="node">
<title>Node4</title>
<g id="a_Node000004"><a xlink:href="DAQModuleManager_8hxx.html" target="_top" xlink:title=" ">
<polygon fill="white" stroke="#666666" points="287.5,-258.12 135.75,-258.12 135.75,-227.62 287.5,-227.62 287.5,-258.12"/>
<text text-anchor="start" x="143.75" y="-244.62" font-family="Helvetica,sans-Serif" font-size="10.00">sourcecode/appfwk/src</text>
<text text-anchor="middle" x="211.62" y="-233.38" font-family="Helvetica,sans-Serif" font-size="10.00">/detail/DAQModuleManager.hxx</text>
</a>
</g>
</g>
<!-- Node2&#45;&gt;Node4 -->
<g id="edge3_Node000002_Node000004" class="edge">
<title>Node2&#45;&gt;Node4</title>
<g id="a_edge3_Node000002_Node000004"><a xlink:title=" ">
<path fill="none" stroke="#63b8ff" d="M769.73,-310.27C662.22,-304.4 463.9,-290.79 296.62,-263.75 287.8,-262.32 278.53,-260.5 269.48,-258.54"/>
<polygon fill="#63b8ff" stroke="#63b8ff" points="769.44,-313.76 779.61,-310.8 769.81,-306.77 769.44,-313.76"/>
</a>
</g>
</g>
<!-- Node8 -->
<g id="Node000008" class="node">
<title>Node8</title>
<g id="a_Node000008"><a xlink:href="dfmodules_2src_2dfmodules_2CommonIssues_8hpp.html" target="_top" xlink:title=" ">
<polygon fill="white" stroke="#666666" points="475.5,-258.12 305.75,-258.12 305.75,-227.62 475.5,-227.62 475.5,-258.12"/>
<text text-anchor="start" x="313.75" y="-244.62" font-family="Helvetica,sans-Serif" font-size="10.00">sourcecode/dfmodules</text>
<text text-anchor="middle" x="390.62" y="-233.38" font-family="Helvetica,sans-Serif" font-size="10.00">/src/dfmodules/CommonIssues.hpp</text>
</a>
</g>
</g>
<!-- Node2&#45;&gt;Node8 -->
<g id="edge7_Node000002_Node000008" class="edge">
<title>Node2&#45;&gt;Node8</title>
<g id="a_edge7_Node000002_Node000008"><a xlink:title=" ">
<path fill="none" stroke="#63b8ff" d="M769.59,-304.3C696.71,-295.03 585.62,-280.09 489.62,-263.75 480.47,-262.19 470.86,-260.43 461.37,-258.61"/>
<polygon fill="#63b8ff" stroke="#63b8ff" points="769.09,-307.76 779.45,-305.55 769.97,-300.82 769.09,-307.76"/>
</a>
</g>
</g>
<!-- Node10 -->
<g id="Node000010" class="node">
<title>Node10</title>
<g id="a_Node000010"><a xlink:href="HSIEventSender_8hpp.html" target="_top" xlink:title=" ">
<polygon fill="white" stroke="#666666" points="660.75,-180.38 486.5,-180.38 486.5,-149.88 660.75,-149.88 660.75,-180.38"/>
<text text-anchor="start" x="494.5" y="-166.88" font-family="Helvetica,sans-Serif" font-size="10.00">sourcecode/hsilibs</text>
<text text-anchor="middle" x="573.62" y="-155.62" font-family="Helvetica,sans-Serif" font-size="10.00">/include/hsilibs/HSIEventSender.hpp</text>
</a>
</g>
</g>
<!-- Node2&#45;&gt;Node10 -->
<g id="edge9_Node000002_Node000010" class="edge">
<title>Node2&#45;&gt;Node10</title>
<g id="a_edge9_Node000002_Node000010"><a xlink:title=" ">
<path fill="none" stroke="#63b8ff" d="M769.85,-313.19C683.74,-310.43 553.84,-300.15 522.62,-263.75 500.47,-237.91 533.78,-200.81 556.14,-180.6"/>
<polygon fill="#63b8ff" stroke="#63b8ff" points="769.55,-316.68 779.65,-313.47 769.76,-309.68 769.55,-316.68"/>
</a>
</g>
</g>
<!-- Node12 -->
<g id="Node000012" class="node">
<title>Node12</title>
<g id="a_Node000012"><a xlink:href="hsilibs_2include_2hsilibs_2Issues_8hpp.html" target="_top" xlink:title=" ">
<polygon fill="white" stroke="#666666" points="662,-258.12 531.25,-258.12 531.25,-227.62 662,-227.62 662,-258.12"/>
<text text-anchor="start" x="539.25" y="-244.62" font-family="Helvetica,sans-Serif" font-size="10.00">sourcecode/hsilibs</text>
<text text-anchor="middle" x="596.62" y="-233.38" font-family="Helvetica,sans-Serif" font-size="10.00">/include/hsilibs/Issues.hpp</text>
</a>
</g>
</g>
<!-- Node2&#45;&gt;Node12 -->
<g id="edge11_Node000002_Node000012" class="edge">
<title>Node2&#45;&gt;Node12</title>
<g id="a_edge11_Node000002_Node000012"><a xlink:title=" ">
<path fill="none" stroke="#63b8ff" d="M784.88,-296.26C742.99,-284.61 688.85,-269.54 649.38,-258.56"/>
<polygon fill="#63b8ff" stroke="#63b8ff" points="783.77,-299.58 794.34,-298.89 785.64,-292.84 783.77,-299.58"/>
</a>
</g>
</g>
<!-- Node13 -->
<g id="Node000013" class="node">
<title>Node13</title>
<g id="a_Node000013"><a xlink:href="listrev_2src_2CommonIssues_8hpp.html" target="_top" xlink:title=" ">
<polygon fill="white" stroke="#666666" points="801.5,-258.12 679.75,-258.12 679.75,-227.62 801.5,-227.62 801.5,-258.12"/>
<text text-anchor="start" x="687.75" y="-244.62" font-family="Helvetica,sans-Serif" font-size="10.00">sourcecode/listrev</text>
<text text-anchor="middle" x="740.62" y="-233.38" font-family="Helvetica,sans-Serif" font-size="10.00">/src/CommonIssues.hpp</text>
</a>
</g>
</g>
<!-- Node2&#45;&gt;Node13 -->
<g id="edge13_Node000002_Node000013" class="edge">
<title>Node2&#45;&gt;Node13</title>
<g id="a_edge13_Node000002_Node000013"><a xlink:title=" ">
<path fill="none" stroke="#63b8ff" d="M816.38,-293.06C799.26,-281.95 778.64,-268.56 763.24,-258.56"/>
<polygon fill="#63b8ff" stroke="#63b8ff" points="814.42,-295.96 824.72,-298.48 818.23,-290.09 814.42,-295.96"/>
</a>
</g>
</g>
<!-- Node15 -->
<g id="Node000015" class="node">
<title>Node15</title>
<g id="a_Node000015"><a xlink:href="SourceConcept_8hpp.html" target="_top" xlink:title=" ">
<polygon fill="white" stroke="#666666" points="1733,-263.75 1590.25,-263.75 1590.25,-222 1733,-222 1733,-263.75"/>
<text text-anchor="start" x="1598.25" y="-250.25" font-family="Helvetica,sans-Serif" font-size="10.00">sourcecode/readoutlibs</text>
<text text-anchor="start" x="1598.25" y="-239" font-family="Helvetica,sans-Serif" font-size="10.00">/include/readoutlibs/concepts</text>
<text text-anchor="middle" x="1661.62" y="-227.75" font-family="Helvetica,sans-Serif" font-size="10.00">/SourceConcept.hpp</text>
</a>
</g>
</g>
<!-- Node2&#45;&gt;Node15 -->
<g id="edge15_Node000002_Node000015" class="edge">
<title>Node2&#45;&gt;Node15</title>
<g id="a_edge15_Node000002_Node000015"><a xlink:title=" ">
<path fill="none" stroke="#63b8ff" d="M927.21,-307.22C1084.9,-293.62 1437.81,-263.18 1589.77,-250.07"/>
<polygon fill="#63b8ff" stroke="#63b8ff" points="927.36,-303.7 917.7,-308.04 927.97,-310.67 927.36,-303.7"/>
</a>
</g>
</g>
<!-- Node21 -->
<g id="Node000021" class="node">
<title>Node21</title>
<g id="a_Node000021"><a xlink:href="TimingController_8hpp.html" target="_top" xlink:title=" ">
<polygon fill="white" stroke="#666666" points="1081.38,-180.38 895.88,-180.38 895.88,-149.88 1081.38,-149.88 1081.38,-180.38"/>
<text text-anchor="start" x="903.88" y="-166.88" font-family="Helvetica,sans-Serif" font-size="10.00">sourcecode/timinglibs</text>
<text text-anchor="middle" x="988.62" y="-155.62" font-family="Helvetica,sans-Serif" font-size="10.00">/include/timinglibs/TimingController.hpp</text>
</a>
</g>
</g>
<!-- Node2&#45;&gt;Node21 -->
<g id="edge21_Node000002_Node000021" class="edge">
<title>Node2&#45;&gt;Node21</title>
<g id="a_edge21_Node000002_Node000021"><a xlink:title=" ">
<path fill="none" stroke="#63b8ff" d="M870.14,-291.27C899.23,-260.55 950.26,-206.65 974.75,-180.78"/>
<polygon fill="#63b8ff" stroke="#63b8ff" points="867.93,-288.51 863.6,-298.18 873.02,-293.33 867.93,-288.51"/>
</a>
</g>
</g>
<!-- Node23 -->
<g id="Node000023" class="node">
<title>Node23</title>
<g id="a_Node000023"><a xlink:href="TimingMasterController_8hpp.html" target="_top" xlink:title=" ">
<polygon fill="white" stroke="#666666" points="1011.62,-102.62 857.62,-102.62 857.62,-72.12 1011.62,-72.12 1011.62,-102.62"/>
<text text-anchor="start" x="865.62" y="-89.12" font-family="Helvetica,sans-Serif" font-size="10.00">sourcecode/timinglibs</text>
<text text-anchor="middle" x="934.62" y="-77.88" font-family="Helvetica,sans-Serif" font-size="10.00">/src/TimingMasterController.hpp</text>
</a>
</g>
</g>
<!-- Node2&#45;&gt;Node23 -->
<g id="edge33_Node000002_Node000023" class="edge">
<title>Node2&#45;&gt;Node23</title>
<g id="a_edge33_Node000002_Node000023"><a xlink:title=" ">
<path fill="none" stroke="#63b8ff" d="M850.49,-288.23C853.82,-253.79 862.87,-191.61 886.62,-144.25 894.54,-128.48 907.87,-113.47 918.48,-102.99"/>
<polygon fill="#63b8ff" stroke="#63b8ff" points="847.01,-287.81 849.63,-298.07 853.98,-288.41 847.01,-287.81"/>
</a>
</g>
</g>
<!-- Node24 -->
<g id="Node000024" class="node">
<title>Node24</title>
<g id="a_Node000024"><a xlink:href="TimingMasterController_8cpp.html" target="_top" xlink:title=" ">
<polygon fill="white" stroke="#666666" points="958.62,-30.5 804.62,-30.5 804.62,0 958.62,0 958.62,-30.5"/>
<text text-anchor="start" x="812.62" y="-17" font-family="Helvetica,sans-Serif" font-size="10.00">sourcecode/timinglibs</text>
<text text-anchor="middle" x="881.62" y="-5.75" font-family="Helvetica,sans-Serif" font-size="10.00">/src/TimingMasterController.cpp</text>
</a>
</g>
</g>
<!-- Node2&#45;&gt;Node24 -->
<g id="edge32_Node000002_Node000024" class="edge">
<title>Node2&#45;&gt;Node24</title>
<g id="a_edge32_Node000002_Node000024"><a xlink:title=" ">
<path fill="none" stroke="#63b8ff" d="M843.86,-288.12C836.47,-242.29 825.34,-144.37 848.62,-66.5 852.57,-53.3 861.22,-40.35 868.68,-30.91"/>
<polygon fill="#63b8ff" stroke="#63b8ff" points="840.39,-288.59 845.52,-297.86 847.29,-287.42 840.39,-288.59"/>
</a>
</g>
</g>
<!-- Node25 -->
<g id="Node000025" class="node">
<title>Node25</title>
<g id="a_Node000025"><a xlink:href="ibs_2include_2timinglibs_2TimingIssues_8hpp.html" target="_top" xlink:title=" ">
<polygon fill="white" stroke="#666666" points="1196.38,-258.12 1022.88,-258.12 1022.88,-227.62 1196.38,-227.62 1196.38,-258.12"/>
<text text-anchor="start" x="1030.88" y="-244.62" font-family="Helvetica,sans-Serif" font-size="10.00">sourcecode/timinglibs</text>
<text text-anchor="middle" x="1109.62" y="-233.38" font-family="Helvetica,sans-Serif" font-size="10.00">/include/timinglibs/TimingIssues.hpp</text>
</a>
</g>
</g>
<!-- Node2&#45;&gt;Node25 -->
<g id="edge25_Node000002_Node000025" class="edge">
<title>Node2&#45;&gt;Node25</title>
<g id="a_edge25_Node000002_Node000025"><a xlink:title=" ">
<path fill="none" stroke="#63b8ff" d="M914.37,-296.34C957.79,-284.67 1014.02,-269.56 1054.98,-258.56"/>
<polygon fill="#63b8ff" stroke="#63b8ff" points="913.55,-292.93 904.8,-298.91 915.37,-299.69 913.55,-292.93"/>
</a>
</g>
</g>
<!-- Node27 -->
<g id="Node000027" class="node">
<title>Node27</title>
<g id="a_Node000027"><a xlink:href="TimingHardwareManager_8hpp.html" target="_top" xlink:title=" ">
<polygon fill="white" stroke="#666666" points="1481.75,-180.38 1319.5,-180.38 1319.5,-149.88 1481.75,-149.88 1481.75,-180.38"/>
<text text-anchor="start" x="1327.5" y="-166.88" font-family="Helvetica,sans-Serif" font-size="10.00">sourcecode/timinglibs</text>
<text text-anchor="middle" x="1400.62" y="-155.62" font-family="Helvetica,sans-Serif" font-size="10.00">/src/TimingHardwareManager.hpp</text>
</a>
</g>
</g>
<!-- Node2&#45;&gt;Node27 -->
<g id="edge31_Node000002_Node000027" class="edge">
<title>Node2&#45;&gt;Node27</title>
<g id="a_edge31_Node000002_Node000027"><a xlink:title=" ">
<path fill="none" stroke="#63b8ff" d="M927.62,-310.22C1001.04,-305.01 1112.74,-292.69 1205.62,-263.75 1271.41,-243.26 1342.22,-202.56 1377.65,-180.74"/>
<polygon fill="#63b8ff" stroke="#63b8ff" points="927.42,-306.73 917.68,-310.9 927.89,-313.71 927.42,-306.73"/>
</a>
</g>
</g>
<!-- Node29 -->
<g id="Node000029" class="node">
<title>Node29</title>
<g id="a_Node000029"><a xlink:href="trigger_2include_2trigger_2Issues_8hpp.html" target="_top" xlink:title=" ">
<polygon fill="white" stroke="#666666" points="2249.62,-258.12 2119.62,-258.12 2119.62,-227.62 2249.62,-227.62 2249.62,-258.12"/>
<text text-anchor="start" x="2127.62" y="-244.62" font-family="Helvetica,sans-Serif" font-size="10.00">sourcecode/trigger</text>
<text text-anchor="middle" x="2184.62" y="-233.38" font-family="Helvetica,sans-Serif" font-size="10.00">/include/trigger/Issues.hpp</text>
</a>
</g>
</g>
<!-- Node2&#45;&gt;Node29 -->
<g id="edge34_Node000002_Node000029" class="edge">
<title>Node2&#45;&gt;Node29</title>
<g id="a_edge34_Node000002_Node000029"><a xlink:title=" ">
<path fill="none" stroke="#63b8ff" d="M927.75,-309.85C1169.76,-297.14 1897.06,-258.97 2119.37,-247.3"/>
<polygon fill="#63b8ff" stroke="#63b8ff" points="927.57,-306.35 917.76,-310.37 927.93,-313.34 927.57,-306.35"/>
</a>
</g>
</g>
<!-- Node38 -->
<g id="Node000038" class="node">
<title>Node38</title>
<g id="a_Node000038"><a xlink:href="TriggerGenericMaker_8hpp.html" target="_top" xlink:title=" ">
<polygon fill="white" stroke="#666666" points="2625.25,-186 2496,-186 2496,-144.25 2625.25,-144.25 2625.25,-186"/>
<text text-anchor="start" x="2504" y="-172.5" font-family="Helvetica,sans-Serif" font-size="10.00">sourcecode/trigger</text>
<text text-anchor="start" x="2504" y="-161.25" font-family="Helvetica,sans-Serif" font-size="10.00">/src/trigger/TriggerGeneric</text>
<text text-anchor="middle" x="2560.62" y="-150" font-family="Helvetica,sans-Serif" font-size="10.00">Maker.hpp</text>
</a>
</g>
</g>
<!-- Node2&#45;&gt;Node38 -->
<g id="edge54_Node000002_Node000038" class="edge">
<title>Node2&#45;&gt;Node38</title>
<g id="a_edge54_Node000002_Node000038"><a xlink:title=" ">
<path fill="none" stroke="#63b8ff" d="M927.54,-314.05C1185.18,-313.78 1999.95,-309.26 2258.62,-263.75 2350.61,-247.57 2453.18,-210.02 2511.99,-186.49"/>
<polygon fill="#63b8ff" stroke="#63b8ff" points="927.57,-310.55 917.57,-314.06 927.58,-317.55 927.57,-310.55"/>
</a>
</g>
</g>
<!-- Node5 -->
<g id="Node000005" class="node">
<title>Node5</title>
<g id="a_Node000005"><a xlink:href="DAQModuleManager_8hpp.html" target="_top" xlink:title=" ">
<polygon fill="white" stroke="#666666" points="275.12,-180.38 148.12,-180.38 148.12,-149.88 275.12,-149.88 275.12,-180.38"/>
<text text-anchor="start" x="156.12" y="-166.88" font-family="Helvetica,sans-Serif" font-size="10.00">sourcecode/appfwk/src</text>
<text text-anchor="middle" x="211.62" y="-155.62" font-family="Helvetica,sans-Serif" font-size="10.00">/DAQModuleManager.hpp</text>
</a>
</g>
</g>
<!-- Node4&#45;&gt;Node5 -->
<g id="edge4_Node000004_Node000005" class="edge">
<title>Node4&#45;&gt;Node5</title>
<g id="a_edge4_Node000004_Node000005"><a xlink:title=" ">
<path fill="none" stroke="#63b8ff" d="M211.62,-215.85C211.62,-204.09 211.62,-190.63 211.62,-180.69"/>
<polygon fill="#63b8ff" stroke="#63b8ff" points="208.13,-215.76 211.63,-225.76 215.13,-215.76 208.13,-215.76"/>
</a>
</g>
</g>
<!-- Node6 -->
<g id="Node000006" class="node">
<title>Node6</title>
<g id="a_Node000006"><a xlink:href="Application_8hpp.html" target="_top" xlink:title=" ">
<polygon fill="white" stroke="#666666" points="270.25,-102.62 153,-102.62 153,-72.12 270.25,-72.12 270.25,-102.62"/>
<text text-anchor="start" x="161" y="-89.12" font-family="Helvetica,sans-Serif" font-size="10.00">sourcecode/appfwk/src</text>
<text text-anchor="middle" x="211.62" y="-77.88" font-family="Helvetica,sans-Serif" font-size="10.00">/Application.hpp</text>
</a>
</g>
</g>
<!-- Node5&#45;&gt;Node6 -->
<g id="edge5_Node000005_Node000006" class="edge">
<title>Node5&#45;&gt;Node6</title>
<g id="a_edge5_Node000005_Node000006"><a xlink:title=" ">
<path fill="none" stroke="#63b8ff" d="M211.62,-138.1C211.62,-126.34 211.62,-112.88 211.62,-102.94"/>
<polygon fill="#63b8ff" stroke="#63b8ff" points="208.13,-138.01 211.63,-148.01 215.13,-138.01 208.13,-138.01"/>
</a>
</g>
</g>
<!-- Node7 -->
<g id="Node000007" class="node">
<title>Node7</title>
<g id="a_Node000007"><a xlink:href="daq__application_8cxx.html" target="_top" xlink:title=" ">
<polygon fill="white" stroke="#666666" points="274,-30.5 149.25,-30.5 149.25,0 274,0 274,-30.5"/>
<text text-anchor="start" x="157.25" y="-17" font-family="Helvetica,sans-Serif" font-size="10.00">sourcecode/appfwk/apps</text>
<text text-anchor="middle" x="211.62" y="-5.75" font-family="Helvetica,sans-Serif" font-size="10.00">/daq_application.cxx</text>
</a>
</g>
</g>
<!-- Node6&#45;&gt;Node7 -->
<g id="edge6_Node000006_Node000007" class="edge">
<title>Node6&#45;&gt;Node7</title>
<g id="a_edge6_Node000006_Node000007"><a xlink:title=" ">
<path fill="none" stroke="#63b8ff" d="M211.62,-60.4C211.62,-50.39 211.62,-39.31 211.62,-30.76"/>
<polygon fill="#63b8ff" stroke="#63b8ff" points="208.13,-60.33 211.63,-70.33 215.13,-60.33 208.13,-60.33"/>
</a>
</g>
</g>
<!-- Node9 -->
<g id="Node000009" class="node">
<title>Node9</title>
<g id="a_Node000009"><a xlink:href="TriggerInhibitAgent_8cpp.html" target="_top" xlink:title=" ">
<polygon fill="white" stroke="#666666" points="458.25,-180.38 323,-180.38 323,-149.88 458.25,-149.88 458.25,-180.38"/>
<text text-anchor="start" x="331" y="-166.88" font-family="Helvetica,sans-Serif" font-size="10.00">sourcecode/dfmodules</text>
<text text-anchor="middle" x="390.62" y="-155.62" font-family="Helvetica,sans-Serif" font-size="10.00">/src/TriggerInhibitAgent.cpp</text>
</a>
</g>
</g>
<!-- Node8&#45;&gt;Node9 -->
<g id="edge8_Node000008_Node000009" class="edge">
<title>Node8&#45;&gt;Node9</title>
<g id="a_edge8_Node000008_Node000009"><a xlink:title=" ">
<path fill="none" stroke="#63b8ff" d="M390.62,-215.85C390.62,-204.09 390.62,-190.63 390.62,-180.69"/>
<polygon fill="#63b8ff" stroke="#63b8ff" points="387.13,-215.76 390.63,-225.76 394.13,-215.76 387.13,-215.76"/>
</a>
</g>
</g>
<!-- Node11 -->
<g id="Node000011" class="node">
<title>Node11</title>
<g id="a_Node000011"><a xlink:href="HSIEventSender_8cpp.html" target="_top" xlink:title=" ">
<polygon fill="white" stroke="#666666" points="636.75,-102.62 510.5,-102.62 510.5,-72.12 636.75,-72.12 636.75,-102.62"/>
<text text-anchor="start" x="518.5" y="-89.12" font-family="Helvetica,sans-Serif" font-size="10.00">sourcecode/hsilibs</text>
<text text-anchor="middle" x="573.62" y="-77.88" font-family="Helvetica,sans-Serif" font-size="10.00">/src/HSIEventSender.cpp</text>
</a>
</g>
</g>
<!-- Node10&#45;&gt;Node11 -->
<g id="edge10_Node000010_Node000011" class="edge">
<title>Node10&#45;&gt;Node11</title>
<g id="a_edge10_Node000010_Node000011"><a xlink:title=" ">
<path fill="none" stroke="#63b8ff" d="M573.62,-138.1C573.62,-126.34 573.62,-112.88 573.62,-102.94"/>
<polygon fill="#63b8ff" stroke="#63b8ff" points="570.13,-138.01 573.63,-148.01 577.13,-138.01 570.13,-138.01"/>
</a>
</g>
</g>
<!-- Node12&#45;&gt;Node10 -->
<g id="edge12_Node000012_Node000010" class="edge">
<title>Node12&#45;&gt;Node10</title>
<g id="a_edge12_Node000012_Node000010"><a xlink:title=" ">
<path fill="none" stroke="#63b8ff" d="M588.95,-216.59C585.32,-204.65 581.13,-190.84 578.05,-180.69"/>
<polygon fill="#63b8ff" stroke="#63b8ff" points="585.5,-217.27 591.75,-225.82 592.19,-215.24 585.5,-217.27"/>
</a>
</g>
</g>
<!-- Node14 -->
<g id="Node000014" class="node">
<title>Node14</title>
<g id="a_Node000014"><a xlink:href="ListStorage_8cpp.html" target="_top" xlink:title=" ">
<polygon fill="white" stroke="#666666" points="792.5,-180.38 688.75,-180.38 688.75,-149.88 792.5,-149.88 792.5,-180.38"/>
<text text-anchor="start" x="696.75" y="-166.88" font-family="Helvetica,sans-Serif" font-size="10.00">sourcecode/listrev</text>
<text text-anchor="middle" x="740.62" y="-155.62" font-family="Helvetica,sans-Serif" font-size="10.00">/src/ListStorage.cpp</text>
</a>
</g>
</g>
<!-- Node13&#45;&gt;Node14 -->
<g id="edge14_Node000013_Node000014" class="edge">
<title>Node13&#45;&gt;Node14</title>
<g id="a_edge14_Node000013_Node000014"><a xlink:title=" ">
<path fill="none" stroke="#63b8ff" d="M740.62,-215.85C740.62,-204.09 740.62,-190.63 740.62,-180.69"/>
<polygon fill="#63b8ff" stroke="#63b8ff" points="737.13,-215.76 740.63,-225.76 744.13,-215.76 737.13,-215.76"/>
</a>
</g>
</g>
<!-- Node16 -->
<g id="Node000016" class="node">
<title>Node16</title>
<g id="a_Node000016"><a xlink:href="DataSubscriberModel_8hpp.html" target="_top" xlink:title=" ">
<polygon fill="white" stroke="#666666" points="1633.88,-186 1499.38,-186 1499.38,-144.25 1633.88,-144.25 1633.88,-186"/>
<text text-anchor="start" x="1507.38" y="-172.5" font-family="Helvetica,sans-Serif" font-size="10.00">sourcecode/readoutlibs</text>
<text text-anchor="start" x="1507.38" y="-161.25" font-family="Helvetica,sans-Serif" font-size="10.00">/include/readoutlibs/models</text>
<text text-anchor="middle" x="1566.62" y="-150" font-family="Helvetica,sans-Serif" font-size="10.00">/DataSubscriberModel.hpp</text>
</a>
</g>
</g>
<!-- Node15&#45;&gt;Node16 -->
<g id="edge16_Node000015_Node000016" class="edge">
<title>Node15&#45;&gt;Node16</title>
<g id="a_edge16_Node000015_Node000016"><a xlink:title=" ">
<path fill="none" stroke="#63b8ff" d="M1627.18,-214.41C1615.61,-205.19 1602.92,-195.06 1592.15,-186.48"/>
<polygon fill="#63b8ff" stroke="#63b8ff" points="1624.98,-217.13 1634.98,-220.63 1629.35,-211.66 1624.98,-217.13"/>
</a>
</g>
</g>
<!-- Node18 -->
<g id="Node000018" class="node">
<title>Node18</title>
<g id="a_Node000018"><a xlink:href="HSISourceModel_8hpp.html" target="_top" xlink:title=" ">
<polygon fill="white" stroke="#666666" points="1885.5,-180.38 1727.75,-180.38 1727.75,-149.88 1885.5,-149.88 1885.5,-180.38"/>
<text text-anchor="start" x="1735.75" y="-166.88" font-family="Helvetica,sans-Serif" font-size="10.00">sourcecode/trigger</text>
<text text-anchor="middle" x="1806.62" y="-155.62" font-family="Helvetica,sans-Serif" font-size="10.00">/src/trigger/HSISourceModel.hpp</text>
</a>
</g>
</g>
<!-- Node15&#45;&gt;Node18 -->
<g id="edge18_Node000015_Node000018" class="edge">
<title>Node15&#45;&gt;Node18</title>
<g id="a_edge18_Node000015_Node000018"><a xlink:title=" ">
<path fill="none" stroke="#63b8ff" d="M1710.63,-216.28C1733.31,-204.43 1759.43,-190.78 1778.7,-180.71"/>
<polygon fill="#63b8ff" stroke="#63b8ff" points="1709.07,-213.14 1701.82,-220.87 1712.31,-219.35 1709.07,-213.14"/>
</a>
</g>
</g>
<!-- Node19 -->
<g id="Node000019" class="node">
<title>Node19</title>
<g id="a_Node000019"><a xlink:href="TPSetSourceModel_8hpp.html" target="_top" xlink:title=" ">
<polygon fill="white" stroke="#666666" points="1806.75,-102.62 1638.5,-102.62 1638.5,-72.12 1806.75,-72.12 1806.75,-102.62"/>
<text text-anchor="start" x="1646.5" y="-89.12" font-family="Helvetica,sans-Serif" font-size="10.00">sourcecode/trigger</text>
<text text-anchor="middle" x="1722.62" y="-77.88" font-family="Helvetica,sans-Serif" font-size="10.00">/src/trigger/TPSetSourceModel.hpp</text>
</a>
</g>
</g>
<!-- Node15&#45;&gt;Node19 -->
<g id="edge19_Node000015_Node000019" class="edge">
<title>Node15&#45;&gt;Node19</title>
<g id="a_edge19_Node000015_Node000019"><a xlink:title=" ">
<path fill="none" stroke="#63b8ff" d="M1666.46,-210.7C1670.18,-191.08 1676.3,-165.53 1685.62,-144.25 1692.26,-129.12 1702.91,-113.58 1711.09,-102.75"/>
<polygon fill="#63b8ff" stroke="#63b8ff" points="1663.06,-209.83 1664.76,-220.29 1669.95,-211.05 1663.06,-209.83"/>
</a>
</g>
</g>
<!-- Node20 -->
<g id="Node000020" class="node">
<title>Node20</title>
<g id="a_Node000020"><a xlink:href="TriggerSourceModel_8hpp.html" target="_top" xlink:title=" ">
<polygon fill="white" stroke="#666666" points="1950.75,-108.25 1824.5,-108.25 1824.5,-66.5 1950.75,-66.5 1950.75,-108.25"/>
<text text-anchor="start" x="1832.5" y="-94.75" font-family="Helvetica,sans-Serif" font-size="10.00">sourcecode/trigger</text>
<text text-anchor="start" x="1832.5" y="-83.5" font-family="Helvetica,sans-Serif" font-size="10.00">/src/trigger/TriggerSource</text>
<text text-anchor="middle" x="1887.62" y="-72.25" font-family="Helvetica,sans-Serif" font-size="10.00">Model.hpp</text>
</a>
</g>
</g>
<!-- Node15&#45;&gt;Node20 -->
<g id="edge20_Node000015_Node000020" class="edge">
<title>Node15&#45;&gt;Node20</title>
<g id="a_edge20_Node000015_Node000020"><a xlink:title=" ">
<path fill="none" stroke="#63b8ff" d="M1676.4,-211.4C1689.05,-186.4 1707.02,-153.65 1718.62,-144.25 1727.3,-137.22 1780.03,-120.33 1824.31,-106.94"/>
<polygon fill="#63b8ff" stroke="#63b8ff" points="1673.35,-209.69 1672.01,-220.2 1679.61,-212.81 1673.35,-209.69"/>
</a>
</g>
</g>
<!-- Node17 -->
<g id="Node000017" class="node">
<title>Node17</title>
<g id="a_Node000017"><a xlink:href="Readoutlibs_8cpp.html" target="_top" xlink:title=" ">
<polygon fill="white" stroke="#666666" points="1620.88,-102.62 1504.38,-102.62 1504.38,-72.12 1620.88,-72.12 1620.88,-102.62"/>
<text text-anchor="start" x="1512.38" y="-89.12" font-family="Helvetica,sans-Serif" font-size="10.00">sourcecode/readoutlibs</text>
<text text-anchor="middle" x="1562.62" y="-77.88" font-family="Helvetica,sans-Serif" font-size="10.00">/src/Readoutlibs.cpp</text>
</a>
</g>
</g>
<!-- Node16&#45;&gt;Node17 -->
<g id="edge17_Node000016_Node000017" class="edge">
<title>Node16&#45;&gt;Node17</title>
<g id="a_edge17_Node000016_Node000017"><a xlink:title=" ">
<path fill="none" stroke="#63b8ff" d="M1564.96,-132.56C1564.41,-122.19 1563.83,-111.17 1563.38,-102.73"/>
<polygon fill="#63b8ff" stroke="#63b8ff" points="1561.45,-132.51 1565.47,-142.31 1568.44,-132.14 1561.45,-132.51"/>
</a>
</g>
</g>
<!-- Node22 -->
<g id="Node000022" class="node">
<title>Node22</title>
<g id="a_Node000022"><a xlink:href="TimingController_8cpp.html" target="_top" xlink:title=" ">
<polygon fill="white" stroke="#666666" points="1162.62,-102.62 1038.62,-102.62 1038.62,-72.12 1162.62,-72.12 1162.62,-102.62"/>
<text text-anchor="start" x="1046.62" y="-89.12" font-family="Helvetica,sans-Serif" font-size="10.00">sourcecode/timinglibs</text>
<text text-anchor="middle" x="1100.62" y="-77.88" font-family="Helvetica,sans-Serif" font-size="10.00">/src/TimingController.cpp</text>
</a>
</g>
</g>
<!-- Node21&#45;&gt;Node22 -->
<g id="edge22_Node000021_Node000022" class="edge">
<title>Node21&#45;&gt;Node22</title>
<g id="a_edge22_Node000021_Node000022"><a xlink:title=" ">
<path fill="none" stroke="#63b8ff" d="M1019.61,-143.17C1038.52,-130.38 1062.23,-114.35 1079.1,-102.94"/>
<polygon fill="#63b8ff" stroke="#63b8ff" points="1017.8,-140.17 1011.47,-148.67 1021.72,-145.97 1017.8,-140.17"/>
</a>
</g>
</g>
<!-- Node21&#45;&gt;Node23 -->
<g id="edge23_Node000021_Node000023" class="edge">
<title>Node21&#45;&gt;Node23</title>
<g id="a_edge23_Node000021_Node000023"><a xlink:title=" ">
<path fill="none" stroke="#63b8ff" d="M971.64,-140.3C962.91,-128.05 952.54,-113.51 945,-102.94"/>
<polygon fill="#63b8ff" stroke="#63b8ff" points="968.68,-142.18 977.33,-148.29 974.38,-138.11 968.68,-142.18"/>
</a>
</g>
</g>
<!-- Node23&#45;&gt;Node24 -->
<g id="edge24_Node000023_Node000024" class="edge">
<title>Node23&#45;&gt;Node24</title>
<g id="a_edge24_Node000023_Node000024"><a xlink:title=" ">
<path fill="none" stroke="#63b8ff" d="M916.72,-62.69C908.73,-52.11 899.55,-39.97 892.59,-30.76"/>
<polygon fill="#63b8ff" stroke="#63b8ff" points="913.91,-64.77 922.73,-70.64 919.49,-60.55 913.91,-64.77"/>
</a>
</g>
</g>
<!-- Node25&#45;&gt;Node21 -->
<g id="edge26_Node000025_Node000021" class="edge">
<title>Node25&#45;&gt;Node21</title>
<g id="a_edge26_Node000025_Node000021"><a xlink:title=" ">
<path fill="none" stroke="#63b8ff" d="M1076.71,-221.27C1056.19,-208.42 1030.28,-192.2 1011.88,-180.69"/>
<polygon fill="#63b8ff" stroke="#63b8ff" points="1074.68,-224.13 1085.01,-226.47 1078.39,-218.19 1074.68,-224.13"/>
</a>
</g>
</g>
<!-- Node25&#45;&gt;Node22 -->
<g id="edge27_Node000025_Node000022" class="edge">
<title>Node25&#45;&gt;Node22</title>
<g id="a_edge27_Node000025_Node000022"><a xlink:title=" ">
<path fill="none" stroke="#63b8ff" d="M1108.1,-215.87C1106.19,-183.32 1102.99,-128.71 1101.47,-102.82"/>
<polygon fill="#63b8ff" stroke="#63b8ff" points="1104.59,-215.87 1108.67,-225.65 1111.58,-215.46 1104.59,-215.87"/>
</a>
</g>
</g>
<!-- Node26 -->
<g id="Node000026" class="node">
<title>Node26</title>
<g id="a_Node000026"><a xlink:href="TimingHardwareInterface_8cpp.html" target="_top" xlink:title=" ">
<polygon fill="white" stroke="#666666" points="1301.12,-180.38 1138.12,-180.38 1138.12,-149.88 1301.12,-149.88 1301.12,-180.38"/>
<text text-anchor="start" x="1146.12" y="-166.88" font-family="Helvetica,sans-Serif" font-size="10.00">sourcecode/timinglibs</text>
<text text-anchor="middle" x="1219.62" y="-155.62" font-family="Helvetica,sans-Serif" font-size="10.00">/src/TimingHardwareInterface.cpp</text>
</a>
</g>
</g>
<!-- Node25&#45;&gt;Node26 -->
<g id="edge28_Node000025_Node000026" class="edge">
<title>Node25&#45;&gt;Node26</title>
<g id="a_edge28_Node000025_Node000026"><a xlink:title=" ">
<path fill="none" stroke="#63b8ff" d="M1140.31,-220.74C1158.85,-207.98 1181.99,-192.04 1198.48,-180.69"/>
<polygon fill="#63b8ff" stroke="#63b8ff" points="1138.33,-217.86 1132.08,-226.41 1142.3,-223.62 1138.33,-217.86"/>
</a>
</g>
</g>
<!-- Node25&#45;&gt;Node27 -->
<g id="edge29_Node000025_Node000027" class="edge">
<title>Node25&#45;&gt;Node27</title>
<g id="a_edge29_Node000025_Node000027"><a xlink:title=" ">
<path fill="none" stroke="#63b8ff" d="M1176.94,-224.35C1227.69,-211.14 1296.49,-193.23 1344.33,-180.78"/>
<polygon fill="#63b8ff" stroke="#63b8ff" points="1176.34,-220.89 1167.54,-226.8 1178.1,-227.67 1176.34,-220.89"/>
</a>
</g>
</g>
<!-- Node28 -->
<g id="Node000028" class="node">
<title>Node28</title>
<g id="a_Node000028"><a xlink:href="TimingHardwareManager_8cpp.html" target="_top" xlink:title=" ">
<polygon fill="white" stroke="#666666" points="1481.75,-102.62 1319.5,-102.62 1319.5,-72.12 1481.75,-72.12 1481.75,-102.62"/>
<text text-anchor="start" x="1327.5" y="-89.12" font-family="Helvetica,sans-Serif" font-size="10.00">sourcecode/timinglibs</text>
<text text-anchor="middle" x="1400.62" y="-77.88" font-family="Helvetica,sans-Serif" font-size="10.00">/src/TimingHardwareManager.cpp</text>
</a>
</g>
</g>
<!-- Node27&#45;&gt;Node28 -->
<g id="edge30_Node000027_Node000028" class="edge">
<title>Node27&#45;&gt;Node28</title>
<g id="a_edge30_Node000027_Node000028"><a xlink:title=" ">
<path fill="none" stroke="#63b8ff" d="M1400.62,-138.1C1400.62,-126.34 1400.62,-112.88 1400.62,-102.94"/>
<polygon fill="#63b8ff" stroke="#63b8ff" points="1397.13,-138.01 1400.63,-148.01 1404.13,-138.01 1397.13,-138.01"/>
</a>
</g>
</g>
<!-- Node29&#45;&gt;Node18 -->
<g id="edge50_Node000029_Node000018" class="edge">
<title>Node29&#45;&gt;Node18</title>
<g id="a_edge50_Node000029_Node000018"><a xlink:title=" ">
<path fill="none" stroke="#63b8ff" d="M2108.13,-227.82C2049.58,-216.9 1966.88,-201.12 1894.62,-186 1886.81,-184.36 1878.61,-182.59 1870.5,-180.8"/>
<polygon fill="#63b8ff" stroke="#63b8ff" points="2107.18,-231.21 2117.66,-229.6 2108.47,-224.33 2107.18,-231.21"/>
</a>
</g>
</g>
<!-- Node30 -->
<g id="Node000030" class="node">
<title>Node30</title>
<g id="a_Node000030"><a xlink:href="AlgorithmPlugins_8hpp.html" target="_top" xlink:title=" ">
<polygon fill="white" stroke="#666666" points="2477.62,-186 2353.62,-186 2353.62,-144.25 2477.62,-144.25 2477.62,-186"/>
<text text-anchor="start" x="2361.62" y="-172.5" font-family="Helvetica,sans-Serif" font-size="10.00">sourcecode/trigger</text>
<text text-anchor="start" x="2361.62" y="-161.25" font-family="Helvetica,sans-Serif" font-size="10.00">/include/trigger/Algorithm</text>
<text text-anchor="middle" x="2415.62" y="-150" font-family="Helvetica,sans-Serif" font-size="10.00">Plugins.hpp</text>
</a>
</g>
</g>
<!-- Node29&#45;&gt;Node30 -->
<g id="edge35_Node000029_Node000030" class="edge">
<title>Node29&#45;&gt;Node30</title>
<g id="a_edge35_Node000029_Node000030"><a xlink:title=" ">
<path fill="none" stroke="#63b8ff" d="M2240.21,-223.65C2274.5,-212.4 2318.53,-197.96 2353.9,-186.37"/>
<polygon fill="#63b8ff" stroke="#63b8ff" points="2239.29,-220.27 2230.88,-226.71 2241.47,-226.92 2239.29,-220.27"/>
</a>
</g>
</g>
<!-- Node32 -->
<g id="Node000032" class="node">
<title>Node32</title>
<g id="a_Node000032"><a xlink:href="TPProcessor_8cpp.html" target="_top" xlink:title=" ">
<polygon fill="white" stroke="#666666" points="2471.88,-102.62 2361.38,-102.62 2361.38,-72.12 2471.88,-72.12 2471.88,-102.62"/>
<text text-anchor="start" x="2369.38" y="-89.12" font-family="Helvetica,sans-Serif" font-size="10.00">sourcecode/trigger</text>
<text text-anchor="middle" x="2416.62" y="-77.88" font-family="Helvetica,sans-Serif" font-size="10.00">/src/TPProcessor.cpp</text>
</a>
</g>
</g>
<!-- Node29&#45;&gt;Node32 -->
<g id="edge49_Node000029_Node000032" class="edge">
<title>Node29&#45;&gt;Node32</title>
<g id="a_edge49_Node000029_Node000032"><a xlink:title=" ">
<path fill="none" stroke="#63b8ff" d="M2224.64,-221.96C2244.06,-211.85 2267.48,-198.98 2287.62,-186 2298.84,-178.77 2364.47,-128.5 2397.56,-103.05"/>
<polygon fill="#63b8ff" stroke="#63b8ff" points="2223.24,-218.75 2215.95,-226.44 2226.45,-224.97 2223.24,-218.75"/>
</a>
</g>
</g>
<!-- Node33 -->
<g id="Node000033" class="node">
<title>Node33</title>
<g id="a_Node000033"><a xlink:href="TAWrapper_8hpp.html" target="_top" xlink:title=" ">
<polygon fill="white" stroke="#666666" points="2259.38,-180.38 2109.88,-180.38 2109.88,-149.88 2259.38,-149.88 2259.38,-180.38"/>
<text text-anchor="start" x="2117.88" y="-166.88" font-family="Helvetica,sans-Serif" font-size="10.00">sourcecode/trigger</text>
<text text-anchor="middle" x="2184.62" y="-155.62" font-family="Helvetica,sans-Serif" font-size="10.00">/include/trigger/TAWrapper.hpp</text>
</a>
</g>
</g>
<!-- Node29&#45;&gt;Node33 -->
<g id="edge38_Node000029_Node000033" class="edge">
<title>Node29&#45;&gt;Node33</title>
<g id="a_edge38_Node000029_Node000033"><a xlink:title=" ">
<path fill="none" stroke="#63b8ff" d="M2184.62,-215.85C2184.62,-204.09 2184.62,-190.63 2184.62,-180.69"/>
<polygon fill="#63b8ff" stroke="#63b8ff" points="2181.13,-215.76 2184.63,-225.76 2188.13,-215.76 2181.13,-215.76"/>
</a>
</g>
</g>
<!-- Node34 -->
<g id="Node000034" class="node">
<title>Node34</title>
<g id="a_Node000034"><a xlink:href="TAProcessor_8hpp.html" target="_top" xlink:title=" ">
<polygon fill="white" stroke="#666666" points="2342.88,-102.62 2202.38,-102.62 2202.38,-72.12 2342.88,-72.12 2342.88,-102.62"/>
<text text-anchor="start" x="2210.38" y="-89.12" font-family="Helvetica,sans-Serif" font-size="10.00">sourcecode/trigger</text>
<text text-anchor="middle" x="2272.62" y="-77.88" font-family="Helvetica,sans-Serif" font-size="10.00">/src/trigger/TAProcessor.hpp</text>
</a>
</g>
</g>
<!-- Node29&#45;&gt;Node34 -->
<g id="edge51_Node000029_Node000034" class="edge">
<title>Node29&#45;&gt;Node34</title>
<g id="a_edge51_Node000029_Node000034"><a xlink:title=" ">
<path fill="none" stroke="#63b8ff" d="M2231.01,-221.69C2245.6,-212.92 2260.11,-201.13 2268.62,-186 2283.34,-159.83 2279.62,-123.18 2275.92,-103.05"/>
<polygon fill="#63b8ff" stroke="#63b8ff" points="2229.32,-218.62 2222.29,-226.55 2232.73,-224.74 2229.32,-218.62"/>
</a>
</g>
</g>
<!-- Node35 -->
<g id="Node000035" class="node">
<title>Node35</title>
<g id="a_Node000035"><a xlink:href="TCWrapper_8hpp.html" target="_top" xlink:title=" ">
<polygon fill="white" stroke="#666666" points="2053.38,-180.38 1903.88,-180.38 1903.88,-149.88 2053.38,-149.88 2053.38,-180.38"/>
<text text-anchor="start" x="1911.88" y="-166.88" font-family="Helvetica,sans-Serif" font-size="10.00">sourcecode/trigger</text>
<text text-anchor="middle" x="1978.62" y="-155.62" font-family="Helvetica,sans-Serif" font-size="10.00">/include/trigger/TCWrapper.hpp</text>
</a>
</g>
</g>
<!-- Node29&#45;&gt;Node35 -->
<g id="edge43_Node000029_Node000035" class="edge">
<title>Node29&#45;&gt;Node35</title>
<g id="a_edge43_Node000029_Node000035"><a xlink:title=" ">
<path fill="none" stroke="#63b8ff" d="M2134.25,-223.35C2098.66,-210.26 2051.59,-192.96 2018.57,-180.81"/>
<polygon fill="#63b8ff" stroke="#63b8ff" points="2132.89,-226.58 2143.49,-226.75 2135.31,-220.01 2132.89,-226.58"/>
</a>
</g>
</g>
<!-- Node37 -->
<g id="Node000037" class="node">
<title>Node37</title>
<g id="a_Node000037"><a xlink:href="TCProcessor_8hpp.html" target="_top" xlink:title=" ">
<polygon fill="white" stroke="#666666" points="2146.88,-102.62 2006.38,-102.62 2006.38,-72.12 2146.88,-72.12 2146.88,-102.62"/>
<text text-anchor="start" x="2014.38" y="-89.12" font-family="Helvetica,sans-Serif" font-size="10.00">sourcecode/trigger</text>
<text text-anchor="middle" x="2076.62" y="-77.88" font-family="Helvetica,sans-Serif" font-size="10.00">/src/trigger/TCProcessor.hpp</text>
</a>
</g>
</g>
<!-- Node29&#45;&gt;Node37 -->
<g id="edge52_Node000029_Node000037" class="edge">
<title>Node29&#45;&gt;Node37</title>
<g id="a_edge52_Node000029_Node000037"><a xlink:title=" ">
<path fill="none" stroke="#63b8ff" d="M2141.75,-221.77C2126.73,-212.77 2111.03,-200.81 2100.62,-186 2082.77,-160.58 2078.14,-123.31 2076.98,-102.96"/>
<polygon fill="#63b8ff" stroke="#63b8ff" points="2139.71,-224.64 2150.14,-226.51 2143.15,-218.54 2139.71,-224.64"/>
</a>
</g>
</g>
<!-- Node29&#45;&gt;Node38 -->
<g id="edge53_Node000029_Node000038" class="edge">
<title>Node29&#45;&gt;Node38</title>
<g id="a_edge53_Node000029_Node000038"><a xlink:title=" ">
<path fill="none" stroke="#63b8ff" d="M2261.14,-229.45C2322.4,-219.08 2410.37,-203.26 2486.62,-186 2489.61,-185.32 2492.65,-184.61 2495.73,-183.87"/>
<polygon fill="#63b8ff" stroke="#63b8ff" points="2260.8,-225.96 2251.52,-231.07 2261.96,-232.86 2260.8,-225.96"/>
</a>
</g>
</g>
<!-- Node31 -->
<g id="Node000031" class="node">
<title>Node31</title>
<g id="a_Node000031"><a xlink:href="TAProcessor_8cpp.html" target="_top" xlink:title=" ">
<polygon fill="white" stroke="#666666" points="2327.88,-30.5 2217.38,-30.5 2217.38,0 2327.88,0 2327.88,-30.5"/>
<text text-anchor="start" x="2225.38" y="-17" font-family="Helvetica,sans-Serif" font-size="10.00">sourcecode/trigger</text>
<text text-anchor="middle" x="2272.62" y="-5.75" font-family="Helvetica,sans-Serif" font-size="10.00">/src/TAProcessor.cpp</text>
</a>
</g>
</g>
<!-- Node30&#45;&gt;Node31 -->
<g id="edge36_Node000030_Node000031" class="edge">
<title>Node30&#45;&gt;Node31</title>
<g id="a_edge36_Node000030_Node000031"><a xlink:title=" ">
<path fill="none" stroke="#63b8ff" d="M2458.4,-136.65C2467.38,-128.66 2475.64,-119.11 2480.62,-108.25 2488.37,-91.39 2492.1,-81.08 2480.62,-66.5 2461.95,-42.78 2383.18,-28.93 2328.12,-21.97"/>
<polygon fill="#63b8ff" stroke="#63b8ff" points="2456.33,-133.82 2450.81,-142.86 2460.77,-139.23 2456.33,-133.82"/>
</a>
</g>
</g>
<!-- Node30&#45;&gt;Node32 -->
<g id="edge37_Node000030_Node000032" class="edge">
<title>Node30&#45;&gt;Node32</title>
<g id="a_edge37_Node000030_Node000032"><a xlink:title=" ">
<path fill="none" stroke="#63b8ff" d="M2416.04,-132.56C2416.18,-122.19 2416.32,-111.17 2416.44,-102.73"/>
<polygon fill="#63b8ff" stroke="#63b8ff" points="2412.55,-132.27 2415.91,-142.31 2419.54,-132.36 2412.55,-132.27"/>
</a>
</g>
</g>
<!-- Node33&#45;&gt;Node20 -->
<g id="edge42_Node000033_Node000020" class="edge">
<title>Node33&#45;&gt;Node20</title>
<g id="a_edge42_Node000033_Node000020"><a xlink:title=" ">
<path fill="none" stroke="#63b8ff" d="M2116.03,-146.63C2066.28,-133.94 1999.49,-116.91 1950.99,-104.54"/>
<polygon fill="#63b8ff" stroke="#63b8ff" points="2114.99,-149.98 2125.54,-149.06 2116.72,-143.19 2114.99,-149.98"/>
</a>
</g>
</g>
<!-- Node33&#45;&gt;Node31 -->
<g id="edge39_Node000033_Node000031" class="edge">
<title>Node33&#45;&gt;Node31</title>
<g id="a_edge39_Node000033_Node000031"><a xlink:title=" ">
<path fill="none" stroke="#63b8ff" d="M2181.1,-138.48C2179.53,-117.59 2180.43,-88.12 2193.62,-66.5 2203.28,-50.68 2220,-38.99 2235.58,-30.88"/>
<polygon fill="#63b8ff" stroke="#63b8ff" points="2177.59,-138.56 2182.07,-148.15 2184.55,-137.85 2177.59,-138.56"/>
</a>
</g>
</g>
<!-- Node33&#45;&gt;Node34 -->
<g id="edge40_Node000033_Node000034" class="edge">
<title>Node33&#45;&gt;Node34</title>
<g id="a_edge40_Node000033_Node000034"><a xlink:title=" ">
<path fill="none" stroke="#63b8ff" d="M2210.21,-142.1C2224.85,-129.5 2242.82,-114.03 2255.71,-102.94"/>
<polygon fill="#63b8ff" stroke="#63b8ff" points="2208.03,-139.36 2202.74,-148.53 2212.6,-144.66 2208.03,-139.36"/>
</a>
</g>
</g>
<!-- Node34&#45;&gt;Node31 -->
<g id="edge41_Node000034_Node000031" class="edge">
<title>Node34&#45;&gt;Node31</title>
<g id="a_edge41_Node000034_Node000031"><a xlink:title=" ">
<path fill="none" stroke="#63b8ff" d="M2272.62,-60.4C2272.62,-50.39 2272.62,-39.31 2272.62,-30.76"/>
<polygon fill="#63b8ff" stroke="#63b8ff" points="2269.13,-60.33 2272.63,-70.33 2276.13,-60.33 2269.13,-60.33"/>
</a>
</g>
</g>
<!-- Node35&#45;&gt;Node19 -->
<g id="edge47_Node000035_Node000019" class="edge">
<title>Node35&#45;&gt;Node19</title>
<g id="a_edge47_Node000035_Node000019"><a xlink:title=" ">
<path fill="none" stroke="#63b8ff" d="M1918,-146.18C1873.49,-133.02 1813.8,-115.35 1772.15,-103.03"/>
<polygon fill="#63b8ff" stroke="#63b8ff" points="1916.93,-149.52 1927.51,-149 1918.91,-142.81 1916.93,-149.52"/>
</a>
</g>
</g>
<!-- Node35&#45;&gt;Node20 -->
<g id="edge48_Node000035_Node000020" class="edge">
<title>Node35&#45;&gt;Node20</title>
<g id="a_edge48_Node000035_Node000020"><a xlink:title=" ">
<path fill="none" stroke="#63b8ff" d="M1952.33,-142.23C1939.61,-131.65 1924.45,-119.03 1912,-108.66"/>
<polygon fill="#63b8ff" stroke="#63b8ff" points="1949.99,-144.84 1959.92,-148.55 1954.47,-139.46 1949.99,-144.84"/>
</a>
</g>
</g>
<!-- Node36 -->
<g id="Node000036" class="node">
<title>Node36</title>
<g id="a_Node000036"><a xlink:href="TCProcessor_8cpp.html" target="_top" xlink:title=" ">
<polygon fill="white" stroke="#666666" points="2082.88,-30.5 1972.38,-30.5 1972.38,0 2082.88,0 2082.88,-30.5"/>
<text text-anchor="start" x="1980.38" y="-17" font-family="Helvetica,sans-Serif" font-size="10.00">sourcecode/trigger</text>
<text text-anchor="middle" x="2027.62" y="-5.75" font-family="Helvetica,sans-Serif" font-size="10.00">/src/TCProcessor.cpp</text>
</a>
</g>
</g>
<!-- Node35&#45;&gt;Node36 -->
<g id="edge44_Node000035_Node000036" class="edge">
<title>Node35&#45;&gt;Node36</title>
<g id="a_edge44_Node000035_Node000036"><a xlink:title=" ">
<path fill="none" stroke="#63b8ff" d="M1981.2,-138.14C1983.78,-118.07 1988.69,-89.87 1997.62,-66.5 2002.49,-53.78 2010.48,-40.61 2016.99,-30.95"/>
<polygon fill="#63b8ff" stroke="#63b8ff" points="1977.74,-137.63 1980.06,-147.96 1984.69,-138.43 1977.74,-137.63"/>
</a>
</g>
</g>
<!-- Node35&#45;&gt;Node37 -->
<g id="edge45_Node000035_Node000037" class="edge">
<title>Node35&#45;&gt;Node37</title>
<g id="a_edge45_Node000035_Node000037"><a xlink:title=" ">
<path fill="none" stroke="#63b8ff" d="M2006.19,-142.81C2022.67,-130.08 2043.16,-114.24 2057.79,-102.94"/>
<polygon fill="#63b8ff" stroke="#63b8ff" points="2004.49,-139.71 1998.72,-148.59 2008.77,-145.25 2004.49,-139.71"/>
</a>
</g>
</g>
<!-- Node37&#45;&gt;Node36 -->
<g id="edge46_Node000037_Node000036" class="edge">
<title>Node37&#45;&gt;Node36</title>
<g id="a_edge46_Node000037_Node000036"><a xlink:title=" ">
<path fill="none" stroke="#63b8ff" d="M2060.08,-62.69C2052.68,-52.11 2044.2,-39.97 2037.76,-30.76"/>
<polygon fill="#63b8ff" stroke="#63b8ff" points="2057.01,-64.41 2065.61,-70.6 2062.75,-60.4 2057.01,-64.41"/>
</a>
</g>
</g>
</g>
</svg>
