<?xml version="1.0" encoding="UTF-8" standalone="no"?>
<!DOCTYPE svg PUBLIC "-//W3C//DTD SVG 1.1//EN"
 "http://www.w3.org/Graphics/SVG/1.1/DTD/svg11.dtd">
<!-- Generated by graphviz version 9.0.0 (20230911.1827)
 -->
<!-- Title: sourcecode/dfmessages/include/dfmessages/DataRequest.hpp Pages: 1 -->
<svg width="865pt" height="405pt"
 viewBox="0.00 0.00 865.00 404.75" xmlns="http://www.w3.org/2000/svg" xmlns:xlink="http://www.w3.org/1999/xlink">
<g id="graph0" class="graph" transform="scale(1 1) rotate(0) translate(4 400.75)">
<title>sourcecode/dfmessages/include/dfmessages/DataRequest.hpp</title>
<!-- Node1 -->
<g id="Node000001" class="node">
<title>Node1</title>
<g id="a_Node000001"><a xlink:title=" ">
<polygon fill="#999999" stroke="#666666" points="782.38,-396.75 599.12,-396.75 599.12,-366.25 782.38,-366.25 782.38,-396.75"/>
<text text-anchor="start" x="607.12" y="-383.25" font-family="Helvetica,sans-Serif" font-size="10.00">sourcecode/dfmessages</text>
<text text-anchor="middle" x="690.75" y="-372" font-family="Helvetica,sans-Serif" font-size="10.00">/include/dfmessages/DataRequest.hpp</text>
</a>
</g>
</g>
<!-- Node2 -->
<g id="Node000002" class="node">
<title>Node2</title>
<g id="a_Node000002"><a xlink:href="RequestHandlerConcept_8hpp.html" target="_top" xlink:title=" ">
<polygon fill="white" stroke="#666666" points="762.12,-330.25 619.38,-330.25 619.38,-288.5 762.12,-288.5 762.12,-330.25"/>
<text text-anchor="start" x="627.38" y="-316.75" font-family="Helvetica,sans-Serif" font-size="10.00">sourcecode/readoutlibs</text>
<text text-anchor="start" x="627.38" y="-305.5" font-family="Helvetica,sans-Serif" font-size="10.00">/include/readoutlibs/concepts</text>
<text text-anchor="middle" x="690.75" y="-294.25" font-family="Helvetica,sans-Serif" font-size="10.00">/RequestHandlerConcept.hpp</text>
</a>
</g>
</g>
<!-- Node1&#45;&gt;Node2 -->
<g id="edge1_Node000001_Node000002" class="edge">
<title>Node1&#45;&gt;Node2</title>
<g id="a_edge1_Node000001_Node000002"><a xlink:title=" ">
<path fill="none" stroke="#63b8ff" d="M690.75,-354.72C690.75,-346.81 690.75,-338.23 690.75,-330.74"/>
<polygon fill="#63b8ff" stroke="#63b8ff" points="687.25,-354.46 690.75,-364.46 694.25,-354.46 687.25,-354.46"/>
</a>
</g>
</g>
<!-- Node3 -->
<g id="Node000003" class="node">
<title>Node3</title>
<g id="a_Node000003"><a xlink:href="DefaultRequestHandlerModel_8hpp.html" target="_top" xlink:title=" ">
<polygon fill="white" stroke="#666666" points="571.62,-252.5 407.88,-252.5 407.88,-210.75 571.62,-210.75 571.62,-252.5"/>
<text text-anchor="start" x="415.88" y="-239" font-family="Helvetica,sans-Serif" font-size="10.00">sourcecode/readoutlibs</text>
<text text-anchor="start" x="415.88" y="-227.75" font-family="Helvetica,sans-Serif" font-size="10.00">/include/readoutlibs/models</text>
<text text-anchor="middle" x="489.75" y="-216.5" font-family="Helvetica,sans-Serif" font-size="10.00">/DefaultRequestHandlerModel.hpp</text>
</a>
</g>
</g>
<!-- Node1&#45;&gt;Node3 -->
<g id="edge14_Node000001_Node000003" class="edge">
<title>Node1&#45;&gt;Node3</title>
<g id="a_edge14_Node000001_Node000003"><a xlink:title=" ">
<path fill="none" stroke="#63b8ff" d="M656.25,-360.06C641.93,-351.26 625.28,-340.62 610.75,-330.25 575.6,-305.16 537.12,-273.3 513.21,-252.93"/>
<polygon fill="#63b8ff" stroke="#63b8ff" points="654.09,-362.85 664.46,-365.05 657.73,-356.87 654.09,-362.85"/>
</a>
</g>
</g>
<!-- Node10 -->
<g id="Node000010" class="node">
<title>Node10</title>
<g id="a_Node000010"><a xlink:href="ReadoutModel_8hpp.html" target="_top" xlink:title=" ">
<polygon fill="white" stroke="#666666" points="857,-252.5 722.5,-252.5 722.5,-210.75 857,-210.75 857,-252.5"/>
<text text-anchor="start" x="730.5" y="-239" font-family="Helvetica,sans-Serif" font-size="10.00">sourcecode/readoutlibs</text>
<text text-anchor="start" x="730.5" y="-227.75" font-family="Helvetica,sans-Serif" font-size="10.00">/include/readoutlibs/models</text>
<text text-anchor="middle" x="789.75" y="-216.5" font-family="Helvetica,sans-Serif" font-size="10.00">/ReadoutModel.hpp</text>
</a>
</g>
</g>
<!-- Node1&#45;&gt;Node10 -->
<g id="edge15_Node000001_Node000010" class="edge">
<title>Node1&#45;&gt;Node10</title>
<g id="a_edge15_Node000001_Node000010"><a xlink:title=" ">
<path fill="none" stroke="#63b8ff" d="M736.49,-360.49C749.36,-352.78 762.18,-342.75 770.75,-330.25 786.67,-307.04 790.02,-273.81 790.35,-252.73"/>
<polygon fill="#63b8ff" stroke="#63b8ff" points="735.06,-357.27 728.03,-365.19 738.47,-363.39 735.06,-357.27"/>
</a>
</g>
</g>
<!-- Node2&#45;&gt;Node3 -->
<g id="edge2_Node000002_Node000003" class="edge">
<title>Node2&#45;&gt;Node3</title>
<g id="a_edge2_Node000002_Node000003"><a xlink:title=" ">
<path fill="none" stroke="#63b8ff" d="M626.14,-284.03C599.56,-274.01 569.13,-262.54 543.76,-252.98"/>
<polygon fill="#63b8ff" stroke="#63b8ff" points="624.88,-287.29 635.47,-287.54 627.35,-280.74 624.88,-287.29"/>
</a>
</g>
</g>
<!-- Node8 -->
<g id="Node000008" class="node">
<title>Node8</title>
<g id="a_Node000008"><a xlink:href="Readoutlibs_8cpp.html" target="_top" xlink:title=" ">
<polygon fill="white" stroke="#666666" points="616,-97 499.5,-97 499.5,-66.5 616,-66.5 616,-97"/>
<text text-anchor="start" x="507.5" y="-83.5" font-family="Helvetica,sans-Serif" font-size="10.00">sourcecode/readoutlibs</text>
<text text-anchor="middle" x="557.75" y="-72.25" font-family="Helvetica,sans-Serif" font-size="10.00">/src/Readoutlibs.cpp</text>
</a>
</g>
</g>
<!-- Node2&#45;&gt;Node8 -->
<g id="edge13_Node000002_Node000008" class="edge">
<title>Node2&#45;&gt;Node8</title>
<g id="a_edge13_Node000002_Node000008"><a xlink:title=" ">
<path fill="none" stroke="#63b8ff" d="M697.07,-276.9C702.81,-239.01 706.32,-175.21 675.75,-133 661.65,-113.52 638.44,-101.54 616.32,-94.19"/>
<polygon fill="#63b8ff" stroke="#63b8ff" points="693.62,-276.3 695.42,-286.74 700.53,-277.46 693.62,-276.3"/>
</a>
</g>
</g>
<!-- Node2&#45;&gt;Node10 -->
<g id="edge11_Node000002_Node000010" class="edge">
<title>Node2&#45;&gt;Node10</title>
<g id="a_edge11_Node000002_Node000010"><a xlink:title=" ">
<path fill="none" stroke="#63b8ff" d="M726.28,-281.19C738.44,-271.89 751.82,-261.65 763.15,-252.98"/>
<polygon fill="#63b8ff" stroke="#63b8ff" points="724.3,-278.3 718.48,-287.16 728.55,-283.86 724.3,-278.3"/>
</a>
</g>
</g>
<!-- Node4 -->
<g id="Node000004" class="node">
<title>Node4</title>
<g id="a_Node000004"><a xlink:href="DefaultSkipListRequestHandler_8hpp.html" target="_top" xlink:title=" ">
<polygon fill="white" stroke="#666666" points="173.5,-174.75 0,-174.75 0,-133 173.5,-133 173.5,-174.75"/>
<text text-anchor="start" x="8" y="-161.25" font-family="Helvetica,sans-Serif" font-size="10.00">sourcecode/readoutlibs</text>
<text text-anchor="start" x="8" y="-150" font-family="Helvetica,sans-Serif" font-size="10.00">/include/readoutlibs/models</text>
<text text-anchor="middle" x="86.75" y="-138.75" font-family="Helvetica,sans-Serif" font-size="10.00">/DefaultSkipListRequestHandler.hpp</text>
</a>
</g>
</g>
<!-- Node3&#45;&gt;Node4 -->
<g id="edge3_Node000003_Node000004" class="edge">
<title>Node3&#45;&gt;Node4</title>
<g id="a_edge3_Node000003_Node000004"><a xlink:title=" ">
<path fill="none" stroke="#63b8ff" d="M396.43,-214.37C335.3,-203.55 253.68,-188.8 181.75,-174.75 179.19,-174.25 176.59,-173.74 173.96,-173.21"/>
<polygon fill="#63b8ff" stroke="#63b8ff" points="395.66,-217.78 406.11,-216.08 396.88,-210.89 395.66,-217.78"/>
</a>
</g>
</g>
<!-- Node7 -->
<g id="Node000007" class="node">
<title>Node7</title>
<g id="a_Node000007"><a xlink:href="EmptyFragmentRequestHandlerModel_8hpp.html" target="_top" xlink:title=" ">
<polygon fill="white" stroke="#666666" points="392.38,-174.75 191.12,-174.75 191.12,-133 392.38,-133 392.38,-174.75"/>
<text text-anchor="start" x="199.12" y="-161.25" font-family="Helvetica,sans-Serif" font-size="10.00">sourcecode/readoutlibs</text>
<text text-anchor="start" x="199.12" y="-150" font-family="Helvetica,sans-Serif" font-size="10.00">/include/readoutlibs/models</text>
<text text-anchor="middle" x="291.75" y="-138.75" font-family="Helvetica,sans-Serif" font-size="10.00">/EmptyFragmentRequestHandlerModel.hpp</text>
</a>
</g>
</g>
<!-- Node3&#45;&gt;Node7 -->
<g id="edge6_Node000003_Node000007" class="edge">
<title>Node3&#45;&gt;Node7</title>
<g id="a_edge6_Node000003_Node000007"><a xlink:title=" ">
<path fill="none" stroke="#63b8ff" d="M426.11,-206.28C399.93,-196.26 369.94,-184.79 344.96,-175.23"/>
<polygon fill="#63b8ff" stroke="#63b8ff" points="424.69,-209.48 435.28,-209.78 427.19,-202.94 424.69,-209.48"/>
</a>
</g>
</g>
<!-- Node3&#45;&gt;Node8 -->
<g id="edge10_Node000003_Node000008" class="edge">
<title>Node3&#45;&gt;Node8</title>
<g id="a_edge10_Node000003_Node000008"><a xlink:title=" ">
<path fill="none" stroke="#63b8ff" d="M457.2,-202.17C450.1,-194.09 443.57,-184.75 439.75,-174.75 433.13,-157.42 429.52,-148.48 439.75,-133 453.2,-112.66 476.73,-100.53 499.26,-93.3"/>
<polygon fill="#63b8ff" stroke="#63b8ff" points="454.56,-204.47 463.98,-209.31 459.63,-199.65 454.56,-204.47"/>
</a>
</g>
</g>
<!-- Node9 -->
<g id="Node000009" class="node">
<title>Node9</title>
<g id="a_Node000009"><a xlink:href="ZeroCopyRecordingRequestHandlerModel_8hpp.html" target="_top" xlink:title=" ">
<polygon fill="white" stroke="#666666" points="666.62,-174.75 448.88,-174.75 448.88,-133 666.62,-133 666.62,-174.75"/>
<text text-anchor="start" x="456.88" y="-161.25" font-family="Helvetica,sans-Serif" font-size="10.00">sourcecode/readoutlibs</text>
<text text-anchor="start" x="456.88" y="-150" font-family="Helvetica,sans-Serif" font-size="10.00">/include/readoutlibs/models</text>
<text text-anchor="middle" x="557.75" y="-138.75" font-family="Helvetica,sans-Serif" font-size="10.00">/ZeroCopyRecordingRequestHandlerModel.hpp</text>
</a>
</g>
</g>
<!-- Node3&#45;&gt;Node9 -->
<g id="edge8_Node000003_Node000009" class="edge">
<title>Node3&#45;&gt;Node9</title>
<g id="a_edge8_Node000003_Node000009"><a xlink:title=" ">
<path fill="none" stroke="#63b8ff" d="M515.64,-201.79C523.58,-192.94 532.15,-183.39 539.48,-175.23"/>
<polygon fill="#63b8ff" stroke="#63b8ff" points="513.06,-199.42 508.98,-209.2 518.27,-204.1 513.06,-199.42"/>
</a>
</g>
</g>
<!-- Node5 -->
<g id="Node000005" class="node">
<title>Node5</title>
<g id="a_Node000005"><a xlink:href="TPRequestHandler_8hpp.html" target="_top" xlink:title=" ">
<polygon fill="white" stroke="#666666" points="169.75,-97 3.75,-97 3.75,-66.5 169.75,-66.5 169.75,-97"/>
<text text-anchor="start" x="11.75" y="-83.5" font-family="Helvetica,sans-Serif" font-size="10.00">sourcecode/trigger</text>
<text text-anchor="middle" x="86.75" y="-72.25" font-family="Helvetica,sans-Serif" font-size="10.00">/src/trigger/TPRequestHandler.hpp</text>
</a>
</g>
</g>
<!-- Node4&#45;&gt;Node5 -->
<g id="edge4_Node000004_Node000005" class="edge">
<title>Node4&#45;&gt;Node5</title>
<g id="a_edge4_Node000004_Node000005"><a xlink:title=" ">
<path fill="none" stroke="#63b8ff" d="M86.75,-121.13C86.75,-112.77 86.75,-104.15 86.75,-97.2"/>
<polygon fill="#63b8ff" stroke="#63b8ff" points="83.25,-121.08 86.75,-131.08 90.25,-121.08 83.25,-121.08"/>
</a>
</g>
</g>
<!-- Node6 -->
<g id="Node000006" class="node">
<title>Node6</title>
<g id="a_Node000006"><a xlink:href="TPRequestHandler_8cpp.html" target="_top" xlink:title=" ">
<polygon fill="white" stroke="#666666" points="154.75,-30.5 18.75,-30.5 18.75,0 154.75,0 154.75,-30.5"/>
<text text-anchor="start" x="26.75" y="-17" font-family="Helvetica,sans-Serif" font-size="10.00">sourcecode/trigger</text>
<text text-anchor="middle" x="86.75" y="-5.75" font-family="Helvetica,sans-Serif" font-size="10.00">/src/TPRequestHandler.cpp</text>
</a>
</g>
</g>
<!-- Node5&#45;&gt;Node6 -->
<g id="edge5_Node000005_Node000006" class="edge">
<title>Node5&#45;&gt;Node6</title>
<g id="a_edge5_Node000005_Node000006"><a xlink:title=" ">
<path fill="none" stroke="#63b8ff" d="M86.75,-54.81C86.75,-46.64 86.75,-37.91 86.75,-30.83"/>
<polygon fill="#63b8ff" stroke="#63b8ff" points="83.25,-54.6 86.75,-64.6 90.25,-54.6 83.25,-54.6"/>
</a>
</g>
</g>
<!-- Node7&#45;&gt;Node8 -->
<g id="edge7_Node000007_Node000008" class="edge">
<title>Node7&#45;&gt;Node8</title>
<g id="a_edge7_Node000007_Node000008"><a xlink:title=" ">
<path fill="none" stroke="#63b8ff" d="M379.62,-129.71C420,-119.07 466.67,-106.76 502.1,-97.42"/>
<polygon fill="#63b8ff" stroke="#63b8ff" points="378.93,-126.27 370.15,-132.21 380.71,-133.04 378.93,-126.27"/>
</a>
</g>
</g>
<!-- Node9&#45;&gt;Node8 -->
<g id="edge9_Node000009_Node000008" class="edge">
<title>Node9&#45;&gt;Node8</title>
<g id="a_edge9_Node000009_Node000008"><a xlink:title=" ">
<path fill="none" stroke="#63b8ff" d="M557.75,-121.13C557.75,-112.77 557.75,-104.15 557.75,-97.2"/>
<polygon fill="#63b8ff" stroke="#63b8ff" points="554.25,-121.08 557.75,-131.08 561.25,-121.08 554.25,-121.08"/>
</a>
</g>
</g>
<!-- Node10&#45;&gt;Node8 -->
<g id="edge12_Node000010_Node000008" class="edge">
<title>Node10&#45;&gt;Node8</title>
<g id="a_edge12_Node000010_Node000008"><a xlink:title=" ">
<path fill="none" stroke="#63b8ff" d="M771.82,-201.17C757.27,-179.53 734.92,-150.89 708.75,-133 681.15,-114.13 645.91,-101.87 616.41,-94.19"/>
<polygon fill="#63b8ff" stroke="#63b8ff" points="768.72,-202.83 777.12,-209.29 774.59,-199.01 768.72,-202.83"/>
</a>
</g>
</g>
</g>
</svg>
