<?xml version="1.0" encoding="UTF-8" standalone="no"?>
<!DOCTYPE svg PUBLIC "-//W3C//DTD SVG 1.1//EN"
 "http://www.w3.org/Graphics/SVG/1.1/DTD/svg11.dtd">
<!-- Generated by graphviz version 9.0.0 (20230911.1827)
 -->
<!-- Title: sourcecode/readoutlibs/include/readoutlibs/detail/DataMoveCallbackRegistry.hxx Pages: 1 -->
<svg width="369pt" height="272pt"
 viewBox="0.00 0.00 368.50 271.75" xmlns="http://www.w3.org/2000/svg" xmlns:xlink="http://www.w3.org/1999/xlink">
<g id="graph0" class="graph" transform="scale(1 1) rotate(0) translate(4 267.75)">
<title>sourcecode/readoutlibs/include/readoutlibs/detail/DataMoveCallbackRegistry.hxx</title>
<!-- Node1 -->
<g id="Node000001" class="node">
<title>Node1</title>
<g id="a_Node000001"><a xlink:title=" ">
<polygon fill="#999999" stroke="#666666" points="238.5,-263.75 86,-263.75 86,-222 238.5,-222 238.5,-263.75"/>
<text text-anchor="start" x="94" y="-250.25" font-family="Helvetica,sans-Serif" font-size="10.00">sourcecode/readoutlibs</text>
<text text-anchor="start" x="94" y="-239" font-family="Helvetica,sans-Serif" font-size="10.00">/include/readoutlibs/detail</text>
<text text-anchor="middle" x="162.25" y="-227.75" font-family="Helvetica,sans-Serif" font-size="10.00">/DataMoveCallbackRegistry.hxx</text>
</a>
</g>
</g>
<!-- Node2 -->
<g id="Node000002" class="node">
<title>Node2</title>
<g id="a_Node000002"><a xlink:href="DataMoveCallbackRegistry_8hpp.html" target="_top" xlink:title=" ">
<polygon fill="white" stroke="#666666" points="235.88,-186 88.62,-186 88.62,-144.25 235.88,-144.25 235.88,-186"/>
<text text-anchor="start" x="96.62" y="-172.5" font-family="Helvetica,sans-Serif" font-size="10.00">sourcecode/readoutlibs</text>
<text text-anchor="start" x="96.62" y="-161.25" font-family="Helvetica,sans-Serif" font-size="10.00">/include/readoutlibs/DataMove</text>
<text text-anchor="middle" x="162.25" y="-150" font-family="Helvetica,sans-Serif" font-size="10.00">CallbackRegistry.hpp</text>
</a>
</g>
</g>
<!-- Node1&#45;&gt;Node2 -->
<g id="edge1_Node000001_Node000002" class="edge">
<title>Node1&#45;&gt;Node2</title>
<g id="a_edge1_Node000001_Node000002"><a xlink:title=" ">
<path fill="none" stroke="#63b8ff" d="M162.25,-210.25C162.25,-202.21 162.25,-193.79 162.25,-186.48"/>
<polygon fill="#63b8ff" stroke="#63b8ff" points="158.75,-210.06 162.25,-220.06 165.75,-210.06 158.75,-210.06"/>
</a>
</g>
</g>
<!-- Node3 -->
<g id="Node000003" class="node">
<title>Node3</title>
<g id="a_Node000003"><a xlink:href="ReadoutModel_8hpp.html" target="_top" xlink:title=" ">
<polygon fill="white" stroke="#666666" points="134.5,-108.25 0,-108.25 0,-66.5 134.5,-66.5 134.5,-108.25"/>
<text text-anchor="start" x="8" y="-94.75" font-family="Helvetica,sans-Serif" font-size="10.00">sourcecode/readoutlibs</text>
<text text-anchor="start" x="8" y="-83.5" font-family="Helvetica,sans-Serif" font-size="10.00">/include/readoutlibs/models</text>
<text text-anchor="middle" x="67.25" y="-72.25" font-family="Helvetica,sans-Serif" font-size="10.00">/ReadoutModel.hpp</text>
</a>
</g>
</g>
<!-- Node2&#45;&gt;Node3 -->
<g id="edge2_Node000002_Node000003" class="edge">
<title>Node2&#45;&gt;Node3</title>
<g id="a_edge2_Node000002_Node000003"><a xlink:title=" ">
<path fill="none" stroke="#63b8ff" d="M127.81,-136.66C116.24,-127.44 103.54,-117.31 92.78,-108.73"/>
<polygon fill="#63b8ff" stroke="#63b8ff" points="125.61,-139.38 135.61,-142.88 129.97,-133.91 125.61,-139.38"/>
</a>
</g>
</g>
<!-- Node4 -->
<g id="Node000004" class="node">
<title>Node4</title>
<g id="a_Node000004"><a xlink:href="Readoutlibs_8cpp.html" target="_top" xlink:title=" ">
<polygon fill="white" stroke="#666666" points="172.5,-30.5 56,-30.5 56,0 172.5,0 172.5,-30.5"/>
<text text-anchor="start" x="64" y="-17" font-family="Helvetica,sans-Serif" font-size="10.00">sourcecode/readoutlibs</text>
<text text-anchor="middle" x="114.25" y="-5.75" font-family="Helvetica,sans-Serif" font-size="10.00">/src/Readoutlibs.cpp</text>
</a>
</g>
</g>
<!-- Node2&#45;&gt;Node4 -->
<g id="edge5_Node000002_Node000004" class="edge">
<title>Node2&#45;&gt;Node4</title>
<g id="a_edge5_Node000002_Node000004"><a xlink:title=" ">
<path fill="none" stroke="#63b8ff" d="M158.79,-132.48C156.01,-113.01 151.21,-87.8 143.25,-66.5 138.52,-53.86 130.8,-40.68 124.51,-31"/>
<polygon fill="#63b8ff" stroke="#63b8ff" points="155.31,-132.81 160.08,-142.27 162.25,-131.9 155.31,-132.81"/>
</a>
</g>
</g>
<!-- Node5 -->
<g id="Node000005" class="node">
<title>Node5</title>
<g id="a_Node000005"><a xlink:href="DataMoveCallbackRegistry_8cpp.html" target="_top" xlink:title=" ">
<polygon fill="white" stroke="#666666" points="360.5,-102.62 190,-102.62 190,-72.12 360.5,-72.12 360.5,-102.62"/>
<text text-anchor="start" x="198" y="-89.12" font-family="Helvetica,sans-Serif" font-size="10.00">sourcecode/readoutlibs</text>
<text text-anchor="middle" x="275.25" y="-77.88" font-family="Helvetica,sans-Serif" font-size="10.00">/src/DataMoveCallbackRegistry.cpp</text>
</a>
</g>
</g>
<!-- Node2&#45;&gt;Node5 -->
<g id="edge4_Node000002_Node000005" class="edge">
<title>Node2&#45;&gt;Node5</title>
<g id="a_edge4_Node000002_Node000005"><a xlink:title=" ">
<path fill="none" stroke="#63b8ff" d="M201.88,-137.56C219.21,-125.94 238.88,-112.76 253.49,-102.96"/>
<polygon fill="#63b8ff" stroke="#63b8ff" points="200.15,-134.51 193.79,-142.98 204.04,-140.32 200.15,-134.51"/>
</a>
</g>
</g>
<!-- Node3&#45;&gt;Node4 -->
<g id="edge3_Node000003_Node000004" class="edge">
<title>Node3&#45;&gt;Node4</title>
<g id="a_edge3_Node000003_Node000004"><a xlink:title=" ">
<path fill="none" stroke="#63b8ff" d="M87.17,-56.65C93.19,-47.67 99.53,-38.21 104.56,-30.7"/>
<polygon fill="#63b8ff" stroke="#63b8ff" points="84.35,-54.58 81.69,-64.83 90.16,-58.48 84.35,-54.58"/>
</a>
</g>
</g>
</g>
</svg>
