<?xml version="1.0" encoding="UTF-8" standalone="no"?>
<!DOCTYPE svg PUBLIC "-//W3C//DTD SVG 1.1//EN"
 "http://www.w3.org/Graphics/SVG/1.1/DTD/svg11.dtd">
<!-- Generated by graphviz version 9.0.0 (20230911.1827)
 -->
<!-- Title: sourcecode/dbe/include/dbe/macro.hpp Pages: 1 -->
<svg width="196pt" height="149pt"
 viewBox="0.00 0.00 196.25 149.00" xmlns="http://www.w3.org/2000/svg" xmlns:xlink="http://www.w3.org/1999/xlink">
<g id="graph0" class="graph" transform="scale(1 1) rotate(0) translate(4 145)">
<title>sourcecode/dbe/include/dbe/macro.hpp</title>
<!-- Node1 -->
<g id="Node000001" class="node">
<title>Node1</title>
<g id="a_Node000001"><a xlink:title=" ">
<polygon fill="#999999" stroke="#666666" points="118.75,-141 0,-141 0,-110.5 118.75,-110.5 118.75,-141"/>
<text text-anchor="start" x="8" y="-127.5" font-family="Helvetica,sans-Serif" font-size="10.00">sourcecode/dbe/include</text>
<text text-anchor="middle" x="59.38" y="-116.25" font-family="Helvetica,sans-Serif" font-size="10.00">/dbe/macro.hpp</text>
</a>
</g>
</g>
<!-- Node2 -->
<g id="Node000002" class="node">
<title>Node2</title>
<g id="a_Node000002"><a xlink:title=" ">
<polygon fill="#e0e0e0" stroke="#999999" points="47.38,-19.25 7.38,-19.25 7.38,0 47.38,0 47.38,-19.25"/>
<text text-anchor="middle" x="27.38" y="-5.75" font-family="Helvetica,sans-Serif" font-size="10.00">string</text>
</a>
</g>
</g>
<!-- Node1&#45;&gt;Node2 -->
<g id="edge1_Node000001_Node000002" class="edge">
<title>Node1&#45;&gt;Node2</title>
<g id="a_edge1_Node000001_Node000002"><a xlink:title=" ">
<path fill="none" stroke="#63b8ff" d="M51.8,-110.17C46.99,-100.34 41,-86.93 37.38,-74.5 33.18,-60.12 30.64,-43.36 29.17,-30.62"/>
<polygon fill="#63b8ff" stroke="#63b8ff" points="32.68,-30.56 28.19,-20.97 25.72,-31.27 32.68,-30.56"/>
</a>
</g>
</g>
<!-- Node3 -->
<g id="Node000003" class="node">
<title>Node3</title>
<g id="a_Node000003"><a xlink:href="convenience_8hpp.html" target="_top" xlink:title=" ">
<polygon fill="white" stroke="#666666" points="154.12,-74.5 46.62,-74.5 46.62,-55.25 154.12,-55.25 154.12,-74.5"/>
<text text-anchor="middle" x="100.38" y="-61" font-family="Helvetica,sans-Serif" font-size="10.00">dbe/convenience.hpp</text>
</a>
</g>
</g>
<!-- Node1&#45;&gt;Node3 -->
<g id="edge2_Node000001_Node000003" class="edge">
<title>Node1&#45;&gt;Node3</title>
<g id="a_edge2_Node000001_Node000003"><a xlink:title=" ">
<path fill="none" stroke="#63b8ff" d="M69.51,-110.2C74.97,-102.35 81.77,-92.6 87.59,-84.24"/>
<polygon fill="#63b8ff" stroke="#63b8ff" points="90.35,-86.4 93.19,-76.19 84.6,-82.4 90.35,-86.4"/>
</a>
</g>
</g>
<!-- Node3&#45;&gt;Node2 -->
<g id="edge4_Node000003_Node000002" class="edge">
<title>Node3&#45;&gt;Node2</title>
<g id="a_edge4_Node000003_Node000002"><a xlink:title=" ">
<path fill="none" stroke="#63b8ff" d="M87.99,-54.84C77.23,-46.99 61.4,-35.45 48.62,-26.12"/>
<polygon fill="#63b8ff" stroke="#63b8ff" points="50.94,-23.48 40.8,-20.42 46.81,-29.14 50.94,-23.48"/>
</a>
</g>
</g>
<!-- Node4 -->
<g id="Node000004" class="node">
<title>Node4</title>
<g id="a_Node000004"><a xlink:title=" ">
<polygon fill="#e0e0e0" stroke="#999999" points="120.62,-19.25 70.12,-19.25 70.12,0 120.62,0 120.62,-19.25"/>
<text text-anchor="middle" x="95.38" y="-5.75" font-family="Helvetica,sans-Serif" font-size="10.00">memory</text>
</a>
</g>
</g>
<!-- Node3&#45;&gt;Node4 -->
<g id="edge3_Node000003_Node000004" class="edge">
<title>Node3&#45;&gt;Node4</title>
<g id="a_edge3_Node000003_Node000004"><a xlink:title=" ">
<path fill="none" stroke="#63b8ff" d="M99.55,-55.08C98.93,-48.49 98.06,-39.21 97.27,-30.82"/>
<polygon fill="#63b8ff" stroke="#63b8ff" points="100.78,-30.75 96.36,-21.12 93.81,-31.4 100.78,-30.75"/>
</a>
</g>
</g>
<!-- Node5 -->
<g id="Node000005" class="node">
<title>Node5</title>
<g id="a_Node000005"><a xlink:title=" ">
<polygon fill="#e0e0e0" stroke="#999999" points="188.25,-19.25 138.5,-19.25 138.5,0 188.25,0 188.25,-19.25"/>
<text text-anchor="middle" x="163.38" y="-5.75" font-family="Helvetica,sans-Serif" font-size="10.00">typeinfo</text>
</a>
</g>
</g>
<!-- Node3&#45;&gt;Node5 -->
<g id="edge5_Node000003_Node000005" class="edge">
<title>Node3&#45;&gt;Node5</title>
<g id="a_edge5_Node000003_Node000005"><a xlink:title=" ">
<path fill="none" stroke="#63b8ff" d="M111.06,-54.84C120.08,-47.22 133.21,-36.12 144.06,-26.95"/>
<polygon fill="#63b8ff" stroke="#63b8ff" points="146.31,-29.63 151.69,-20.5 141.79,-24.28 146.31,-29.63"/>
</a>
</g>
</g>
</g>
</svg>
