<?xml version="1.0" encoding="UTF-8" standalone="no"?>
<!DOCTYPE svg PUBLIC "-//W3C//DTD SVG 1.1//EN"
 "http://www.w3.org/Graphics/SVG/1.1/DTD/svg11.dtd">
<!-- Generated by graphviz version 9.0.0 (20230911.1827)
 -->
<!-- Title: sourcecode/triggeralgs/include/triggeralgs/dbscan/dbscan.hpp Pages: 1 -->
<svg width="322pt" height="194pt"
 viewBox="0.00 0.00 321.75 194.00" xmlns="http://www.w3.org/2000/svg" xmlns:xlink="http://www.w3.org/1999/xlink">
<g id="graph0" class="graph" transform="scale(1 1) rotate(0) translate(4 190)">
<title>sourcecode/triggeralgs/include/triggeralgs/dbscan/dbscan.hpp</title>
<!-- Node1 -->
<g id="Node000001" class="node">
<title>Node1</title>
<g id="a_Node000001"><a xlink:title=" ">
<polygon fill="#999999" stroke="#666666" points="239.12,-186 106.88,-186 106.88,-144.25 239.12,-144.25 239.12,-186"/>
<text text-anchor="start" x="114.88" y="-172.5" font-family="Helvetica,sans-Serif" font-size="10.00">sourcecode/triggeralgs</text>
<text text-anchor="start" x="114.88" y="-161.25" font-family="Helvetica,sans-Serif" font-size="10.00">/include/triggeralgs/dbscan</text>
<text text-anchor="middle" x="173" y="-150" font-family="Helvetica,sans-Serif" font-size="10.00">/dbscan.hpp</text>
</a>
</g>
</g>
<!-- Node2 -->
<g id="Node000002" class="node">
<title>Node2</title>
<g id="a_Node000002"><a xlink:href="TriggerActivityMakerDBSCAN_8hpp.html" target="_top" xlink:title=" ">
<polygon fill="white" stroke="#666666" points="175.75,-108.25 8.25,-108.25 8.25,-66.5 175.75,-66.5 175.75,-108.25"/>
<text text-anchor="start" x="16.25" y="-94.75" font-family="Helvetica,sans-Serif" font-size="10.00">sourcecode/triggeralgs</text>
<text text-anchor="start" x="16.25" y="-83.5" font-family="Helvetica,sans-Serif" font-size="10.00">/include/triggeralgs/dbscan</text>
<text text-anchor="middle" x="92" y="-72.25" font-family="Helvetica,sans-Serif" font-size="10.00">/TriggerActivityMakerDBSCAN.hpp</text>
</a>
</g>
</g>
<!-- Node1&#45;&gt;Node2 -->
<g id="edge1_Node000001_Node000002" class="edge">
<title>Node1&#45;&gt;Node2</title>
<g id="a_edge1_Node000001_Node000002"><a xlink:title=" ">
<path fill="none" stroke="#63b8ff" d="M143.05,-136.11C133.34,-127.03 122.76,-117.14 113.77,-108.73"/>
<polygon fill="#63b8ff" stroke="#63b8ff" points="140.49,-138.52 150.19,-142.79 145.27,-133.4 140.49,-138.52"/>
</a>
</g>
</g>
<!-- Node4 -->
<g id="Node000004" class="node">
<title>Node4</title>
<g id="a_Node000004"><a xlink:href="dbscan_8cpp.html" target="_top" xlink:title=" ">
<polygon fill="white" stroke="#666666" points="313.75,-102.62 194.25,-102.62 194.25,-72.12 313.75,-72.12 313.75,-102.62"/>
<text text-anchor="start" x="202.25" y="-89.12" font-family="Helvetica,sans-Serif" font-size="10.00">sourcecode/triggeralgs</text>
<text text-anchor="middle" x="254" y="-77.88" font-family="Helvetica,sans-Serif" font-size="10.00">/src/dbscan/dbscan.cpp</text>
</a>
</g>
</g>
<!-- Node1&#45;&gt;Node4 -->
<g id="edge3_Node000001_Node000004" class="edge">
<title>Node1&#45;&gt;Node4</title>
<g id="a_edge3_Node000001_Node000004"><a xlink:title=" ">
<path fill="none" stroke="#63b8ff" d="M202.79,-136.26C214.87,-124.97 228.32,-112.39 238.4,-102.96"/>
<polygon fill="#63b8ff" stroke="#63b8ff" points="200.73,-133.4 195.81,-142.79 205.51,-138.52 200.73,-133.4"/>
</a>
</g>
</g>
<!-- Node3 -->
<g id="Node000003" class="node">
<title>Node3</title>
<g id="a_Node000003"><a xlink:href="TriggerActivityMakerDBSCAN_8cpp.html" target="_top" xlink:title=" ">
<polygon fill="white" stroke="#666666" points="184,-30.5 0,-30.5 0,0 184,0 184,-30.5"/>
<text text-anchor="start" x="8" y="-17" font-family="Helvetica,sans-Serif" font-size="10.00">sourcecode/triggeralgs</text>
<text text-anchor="middle" x="92" y="-5.75" font-family="Helvetica,sans-Serif" font-size="10.00">/src/TriggerActivityMakerDBSCAN.cpp</text>
</a>
</g>
</g>
<!-- Node2&#45;&gt;Node3 -->
<g id="edge2_Node000002_Node000003" class="edge">
<title>Node2&#45;&gt;Node3</title>
<g id="a_edge2_Node000002_Node000003"><a xlink:title=" ">
<path fill="none" stroke="#63b8ff" d="M92,-54.63C92,-46.27 92,-37.65 92,-30.7"/>
<polygon fill="#63b8ff" stroke="#63b8ff" points="88.5,-54.58 92,-64.58 95.5,-54.58 88.5,-54.58"/>
</a>
</g>
</g>
</g>
</svg>
