<?xml version="1.0" encoding="UTF-8" standalone="no"?>
<!DOCTYPE svg PUBLIC "-//W3C//DTD SVG 1.1//EN"
 "http://www.w3.org/Graphics/SVG/1.1/DTD/svg11.dtd">
<!-- Generated by graphviz version 9.0.0 (20230911.1827)
 -->
<!-- Title: sourcecode/okssystem/include/okssystem/Descriptor.hpp Pages: 1 -->
<svg width="206pt" height="94pt"
 viewBox="0.00 0.00 206.00 93.75" xmlns="http://www.w3.org/2000/svg" xmlns:xlink="http://www.w3.org/1999/xlink">
<g id="graph0" class="graph" transform="scale(1 1) rotate(0) translate(4 89.75)">
<title>sourcecode/okssystem/include/okssystem/Descriptor.hpp</title>
<!-- Node1 -->
<g id="Node000001" class="node">
<title>Node1</title>
<g id="a_Node000001"><a xlink:title=" ">
<polygon fill="#999999" stroke="#666666" points="172.62,-85.75 7.38,-85.75 7.38,-55.25 172.62,-55.25 172.62,-85.75"/>
<text text-anchor="start" x="15.38" y="-72.25" font-family="Helvetica,sans-Serif" font-size="10.00">sourcecode/okssystem</text>
<text text-anchor="middle" x="90" y="-61" font-family="Helvetica,sans-Serif" font-size="10.00">/include/okssystem/Descriptor.hpp</text>
</a>
</g>
</g>
<!-- Node2 -->
<g id="Node000002" class="node">
<title>Node2</title>
<g id="a_Node000002"><a xlink:title=" ">
<polygon fill="#e0e0e0" stroke="#999999" points="40,-19.25 0,-19.25 0,0 40,0 40,-19.25"/>
<text text-anchor="middle" x="20" y="-5.75" font-family="Helvetica,sans-Serif" font-size="10.00">string</text>
</a>
</g>
</g>
<!-- Node1&#45;&gt;Node2 -->
<g id="edge1_Node000001_Node000002" class="edge">
<title>Node1&#45;&gt;Node2</title>
<g id="a_edge1_Node000001_Node000002"><a xlink:title=" ">
<path fill="none" stroke="#63b8ff" d="M72.7,-54.95C62.65,-46.5 49.97,-35.83 39.57,-27.08"/>
<polygon fill="#63b8ff" stroke="#63b8ff" points="41.86,-24.43 31.95,-20.68 37.35,-29.79 41.86,-24.43"/>
</a>
</g>
</g>
<!-- Node3 -->
<g id="Node000003" class="node">
<title>Node3</title>
<g id="a_Node000003"><a xlink:title=" ">
<polygon fill="#e0e0e0" stroke="#999999" points="122.38,-19.25 57.62,-19.25 57.62,0 122.38,0 122.38,-19.25"/>
<text text-anchor="middle" x="90" y="-5.75" font-family="Helvetica,sans-Serif" font-size="10.00">sys/types.h</text>
</a>
</g>
</g>
<!-- Node1&#45;&gt;Node3 -->
<g id="edge2_Node000001_Node000003" class="edge">
<title>Node1&#45;&gt;Node3</title>
<g id="a_edge2_Node000001_Node000003"><a xlink:title=" ">
<path fill="none" stroke="#63b8ff" d="M90,-54.95C90,-47.71 90,-38.84 90,-30.94"/>
<polygon fill="#63b8ff" stroke="#63b8ff" points="93.5,-31.21 90,-21.21 86.5,-31.21 93.5,-31.21"/>
</a>
</g>
</g>
<!-- Node4 -->
<g id="Node000004" class="node">
<title>Node4</title>
<g id="a_Node000004"><a xlink:title=" ">
<polygon fill="#e0e0e0" stroke="#999999" points="198,-19.25 140,-19.25 140,0 198,0 198,-19.25"/>
<text text-anchor="middle" x="169" y="-5.75" font-family="Helvetica,sans-Serif" font-size="10.00">sys/stat.h</text>
</a>
</g>
</g>
<!-- Node1&#45;&gt;Node4 -->
<g id="edge3_Node000001_Node000004" class="edge">
<title>Node1&#45;&gt;Node4</title>
<g id="a_edge3_Node000001_Node000004"><a xlink:title=" ">
<path fill="none" stroke="#63b8ff" d="M109.53,-54.95C121.09,-46.33 135.76,-35.4 147.63,-26.55"/>
<polygon fill="#63b8ff" stroke="#63b8ff" points="149.68,-29.39 155.61,-20.61 145.5,-23.77 149.68,-29.39"/>
</a>
</g>
</g>
</g>
</svg>
