<?xml version="1.0" encoding="UTF-8" standalone="no"?>
<!DOCTYPE svg PUBLIC "-//W3C//DTD SVG 1.1//EN"
 "http://www.w3.org/Graphics/SVG/1.1/DTD/svg11.dtd">
<!-- Generated by graphviz version 9.0.0 (20230911.1827)
 -->
<!-- Title: sourcecode/okssystem/include/okssystem/Descriptor.hpp Pages: 1 -->
<svg width="794pt" height="172pt"
 viewBox="0.00 0.00 794.38 171.50" xmlns="http://www.w3.org/2000/svg" xmlns:xlink="http://www.w3.org/1999/xlink">
<g id="graph0" class="graph" transform="scale(1 1) rotate(0) translate(4 167.5)">
<title>sourcecode/okssystem/include/okssystem/Descriptor.hpp</title>
<!-- Node1 -->
<g id="Node000001" class="node">
<title>Node1</title>
<g id="a_Node000001"><a xlink:title=" ">
<polygon fill="#999999" stroke="#666666" points="540.75,-163.5 375.5,-163.5 375.5,-133 540.75,-133 540.75,-163.5"/>
<text text-anchor="start" x="383.5" y="-150" font-family="Helvetica,sans-Serif" font-size="10.00">sourcecode/okssystem</text>
<text text-anchor="middle" x="458.12" y="-138.75" font-family="Helvetica,sans-Serif" font-size="10.00">/include/okssystem/Descriptor.hpp</text>
</a>
</g>
</g>
<!-- Node2 -->
<g id="Node000002" class="node">
<title>Node2</title>
<g id="a_Node000002"><a xlink:href="FIFOConnection_8hpp.html" target="_top" xlink:title=" ">
<polygon fill="white" stroke="#666666" points="192.25,-97 0,-97 0,-66.5 192.25,-66.5 192.25,-97"/>
<text text-anchor="start" x="8" y="-83.5" font-family="Helvetica,sans-Serif" font-size="10.00">sourcecode/okssystem</text>
<text text-anchor="middle" x="96.12" y="-72.25" font-family="Helvetica,sans-Serif" font-size="10.00">/include/okssystem/FIFOConnection.hpp</text>
</a>
</g>
</g>
<!-- Node1&#45;&gt;Node2 -->
<g id="edge1_Node000001_Node000002" class="edge">
<title>Node1&#45;&gt;Node2</title>
<g id="a_edge1_Node000001_Node000002"><a xlink:title=" ">
<path fill="none" stroke="#63b8ff" d="M364.25,-130.52C306.79,-120.29 233.94,-107.3 178.68,-97.46"/>
<polygon fill="#63b8ff" stroke="#63b8ff" points="363.58,-133.96 374.04,-132.27 364.81,-127.07 363.58,-133.96"/>
</a>
</g>
</g>
<!-- Node4 -->
<g id="Node000004" class="node">
<title>Node4</title>
<g id="a_Node000004"><a xlink:href="OksSystem_8hpp.html" target="_top" xlink:title=" ">
<polygon fill="white" stroke="#666666" points="382.12,-97 210.12,-97 210.12,-66.5 382.12,-66.5 382.12,-97"/>
<text text-anchor="start" x="218.12" y="-83.5" font-family="Helvetica,sans-Serif" font-size="10.00">sourcecode/okssystem</text>
<text text-anchor="middle" x="296.12" y="-72.25" font-family="Helvetica,sans-Serif" font-size="10.00">/include/okssystem/OksSystem.hpp</text>
</a>
</g>
</g>
<!-- Node1&#45;&gt;Node4 -->
<g id="edge3_Node000001_Node000004" class="edge">
<title>Node1&#45;&gt;Node4</title>
<g id="a_edge3_Node000001_Node000004"><a xlink:title=" ">
<path fill="none" stroke="#63b8ff" d="M410.74,-128.38C385.95,-118.51 356.06,-106.61 333.02,-97.44"/>
<polygon fill="#63b8ff" stroke="#63b8ff" points="409.37,-131.61 419.96,-132.05 411.96,-125.1 409.37,-131.61"/>
</a>
</g>
</g>
<!-- Node5 -->
<g id="Node000005" class="node">
<title>Node5</title>
<g id="a_Node000005"><a xlink:href="Descriptor_8cpp.html" target="_top" xlink:title=" ">
<polygon fill="white" stroke="#666666" points="516.38,-97 399.88,-97 399.88,-66.5 516.38,-66.5 516.38,-97"/>
<text text-anchor="start" x="407.88" y="-83.5" font-family="Helvetica,sans-Serif" font-size="10.00">sourcecode/okssystem</text>
<text text-anchor="middle" x="458.12" y="-72.25" font-family="Helvetica,sans-Serif" font-size="10.00">/src/Descriptor.cpp</text>
</a>
</g>
</g>
<!-- Node1&#45;&gt;Node5 -->
<g id="edge4_Node000001_Node000005" class="edge">
<title>Node1&#45;&gt;Node5</title>
<g id="a_edge4_Node000001_Node000005"><a xlink:title=" ">
<path fill="none" stroke="#63b8ff" d="M458.12,-121.31C458.12,-113.14 458.12,-104.41 458.12,-97.33"/>
<polygon fill="#63b8ff" stroke="#63b8ff" points="454.63,-121.1 458.13,-131.1 461.63,-121.1 454.63,-121.1"/>
</a>
</g>
</g>
<!-- Node6 -->
<g id="Node000006" class="node">
<title>Node6</title>
<g id="a_Node000006"><a xlink:href="Executable_8cpp.html" target="_top" xlink:title=" ">
<polygon fill="white" stroke="#666666" points="651.38,-97 534.88,-97 534.88,-66.5 651.38,-66.5 651.38,-97"/>
<text text-anchor="start" x="542.88" y="-83.5" font-family="Helvetica,sans-Serif" font-size="10.00">sourcecode/okssystem</text>
<text text-anchor="middle" x="593.12" y="-72.25" font-family="Helvetica,sans-Serif" font-size="10.00">/src/Executable.cpp</text>
</a>
</g>
</g>
<!-- Node1&#45;&gt;Node6 -->
<g id="edge5_Node000001_Node000006" class="edge">
<title>Node1&#45;&gt;Node6</title>
<g id="a_edge5_Node000001_Node000006"><a xlink:title=" ">
<path fill="none" stroke="#63b8ff" d="M499.05,-127.7C519.5,-117.93 543.82,-106.31 562.61,-97.33"/>
<polygon fill="#63b8ff" stroke="#63b8ff" points="497.64,-124.49 490.12,-131.96 500.66,-130.81 497.64,-124.49"/>
</a>
</g>
</g>
<!-- Node7 -->
<g id="Node000007" class="node">
<title>Node7</title>
<g id="a_Node000007"><a xlink:href="MapFile_8cpp.html" target="_top" xlink:title=" ">
<polygon fill="white" stroke="#666666" points="786.38,-97 669.88,-97 669.88,-66.5 786.38,-66.5 786.38,-97"/>
<text text-anchor="start" x="677.88" y="-83.5" font-family="Helvetica,sans-Serif" font-size="10.00">sourcecode/okssystem</text>
<text text-anchor="middle" x="728.12" y="-72.25" font-family="Helvetica,sans-Serif" font-size="10.00">/src/MapFile.cpp</text>
</a>
</g>
</g>
<!-- Node1&#45;&gt;Node7 -->
<g id="edge6_Node000001_Node000007" class="edge">
<title>Node1&#45;&gt;Node7</title>
<g id="a_edge6_Node000001_Node000007"><a xlink:title=" ">
<path fill="none" stroke="#63b8ff" d="M530.82,-129.88C574.31,-119.49 628.85,-106.47 669.56,-96.74"/>
<polygon fill="#63b8ff" stroke="#63b8ff" points="530.12,-126.45 521.2,-132.18 531.74,-133.26 530.12,-126.45"/>
</a>
</g>
</g>
<!-- Node3 -->
<g id="Node000003" class="node">
<title>Node3</title>
<g id="a_Node000003"><a xlink:href="FIFOConnection_8cpp.html" target="_top" xlink:title=" ">
<polygon fill="white" stroke="#666666" points="158.5,-30.5 33.75,-30.5 33.75,0 158.5,0 158.5,-30.5"/>
<text text-anchor="start" x="41.75" y="-17" font-family="Helvetica,sans-Serif" font-size="10.00">sourcecode/okssystem</text>
<text text-anchor="middle" x="96.12" y="-5.75" font-family="Helvetica,sans-Serif" font-size="10.00">/src/FIFOConnection.cpp</text>
</a>
</g>
</g>
<!-- Node2&#45;&gt;Node3 -->
<g id="edge2_Node000002_Node000003" class="edge">
<title>Node2&#45;&gt;Node3</title>
<g id="a_edge2_Node000002_Node000003"><a xlink:title=" ">
<path fill="none" stroke="#63b8ff" d="M96.12,-54.81C96.12,-46.64 96.12,-37.91 96.12,-30.83"/>
<polygon fill="#63b8ff" stroke="#63b8ff" points="92.63,-54.6 96.13,-64.6 99.63,-54.6 92.63,-54.6"/>
</a>
</g>
</g>
</g>
</svg>
