<?xml version="1.0" encoding="UTF-8" standalone="no"?>
<!DOCTYPE svg PUBLIC "-//W3C//DTD SVG 1.1//EN"
 "http://www.w3.org/Graphics/SVG/1.1/DTD/svg11.dtd">
<!-- Generated by graphviz version 9.0.0 (20230911.1827)
 -->
<!-- Title: sourcecode/detdataformats/include/detdataformats/DetID.hpp Pages: 1 -->
<svg width="960pt" height="272pt"
 viewBox="0.00 0.00 960.38 271.75" xmlns="http://www.w3.org/2000/svg" xmlns:xlink="http://www.w3.org/1999/xlink">
<g id="graph0" class="graph" transform="scale(1 1) rotate(0) translate(4 267.75)">
<title>sourcecode/detdataformats/include/detdataformats/DetID.hpp</title>
<!-- Node1 -->
<g id="Node000001" class="node">
<title>Node1</title>
<g id="a_Node000001"><a xlink:title=" ">
<polygon fill="#999999" stroke="#666666" points="525.5,-263.75 391,-263.75 391,-222 525.5,-222 525.5,-263.75"/>
<text text-anchor="start" x="399" y="-250.25" font-family="Helvetica,sans-Serif" font-size="10.00">sourcecode/detdataformats</text>
<text text-anchor="start" x="399" y="-239" font-family="Helvetica,sans-Serif" font-size="10.00">/include/detdataformats</text>
<text text-anchor="middle" x="458.25" y="-227.75" font-family="Helvetica,sans-Serif" font-size="10.00">/DetID.hpp</text>
</a>
</g>
</g>
<!-- Node2 -->
<g id="Node000002" class="node">
<title>Node2</title>
<g id="a_Node000002"><a xlink:href="detid_8cpp.html" target="_top" xlink:title=" ">
<polygon fill="white" stroke="#666666" points="134.5,-180.38 0,-180.38 0,-149.88 134.5,-149.88 134.5,-180.38"/>
<text text-anchor="start" x="8" y="-166.88" font-family="Helvetica,sans-Serif" font-size="10.00">sourcecode/detdataformats</text>
<text text-anchor="middle" x="67.25" y="-155.62" font-family="Helvetica,sans-Serif" font-size="10.00">/pybindsrc/detid.cpp</text>
</a>
</g>
</g>
<!-- Node1&#45;&gt;Node2 -->
<g id="edge1_Node000001_Node000002" class="edge">
<title>Node1&#45;&gt;Node2</title>
<g id="a_edge1_Node000001_Node000002"><a xlink:title=" ">
<path fill="none" stroke="#63b8ff" d="M379.46,-229.7C315.53,-219.39 223.22,-203.52 143.25,-186 136.06,-184.42 128.52,-182.63 121.09,-180.78"/>
<polygon fill="#63b8ff" stroke="#63b8ff" points="378.73,-233.13 389.16,-231.26 379.84,-226.22 378.73,-233.13"/>
</a>
</g>
</g>
<!-- Node3 -->
<g id="Node000003" class="node">
<title>Node3</title>
<g id="a_Node000003"><a xlink:href="TPBundleHandler_8cpp.html" target="_top" xlink:title=" ">
<polygon fill="white" stroke="#666666" points="282.25,-180.38 152.25,-180.38 152.25,-149.88 282.25,-149.88 282.25,-180.38"/>
<text text-anchor="start" x="160.25" y="-166.88" font-family="Helvetica,sans-Serif" font-size="10.00">sourcecode/dfmodules</text>
<text text-anchor="middle" x="217.25" y="-155.62" font-family="Helvetica,sans-Serif" font-size="10.00">/src/TPBundleHandler.cpp</text>
</a>
</g>
</g>
<!-- Node1&#45;&gt;Node3 -->
<g id="edge2_Node000001_Node000003" class="edge">
<title>Node1&#45;&gt;Node3</title>
<g id="a_edge2_Node000001_Node000003"><a xlink:title=" ">
<path fill="none" stroke="#63b8ff" d="M382.91,-218.19C344.01,-205.97 297.77,-191.43 264.05,-180.83"/>
<polygon fill="#63b8ff" stroke="#63b8ff" points="381.63,-221.46 392.22,-221.12 383.73,-214.78 381.63,-221.46"/>
</a>
</g>
</g>
<!-- Node4 -->
<g id="Node000004" class="node">
<title>Node4</title>
<g id="a_Node000004"><a xlink:href="HDF5SourceIDHandler_8hpp.html" target="_top" xlink:title=" ">
<polygon fill="white" stroke="#666666" points="446.12,-186 300.38,-186 300.38,-144.25 446.12,-144.25 446.12,-186"/>
<text text-anchor="start" x="308.38" y="-172.5" font-family="Helvetica,sans-Serif" font-size="10.00">sourcecode/hdf5libs</text>
<text text-anchor="start" x="308.38" y="-161.25" font-family="Helvetica,sans-Serif" font-size="10.00">/include/hdf5libs/HDF5Source</text>
<text text-anchor="middle" x="373.25" y="-150" font-family="Helvetica,sans-Serif" font-size="10.00">IDHandler.hpp</text>
</a>
</g>
</g>
<!-- Node1&#45;&gt;Node4 -->
<g id="edge3_Node000001_Node000004" class="edge">
<title>Node1&#45;&gt;Node4</title>
<g id="a_edge3_Node000001_Node000004"><a xlink:title=" ">
<path fill="none" stroke="#63b8ff" d="M427.13,-214.14C416.86,-204.98 405.63,-194.98 396.09,-186.48"/>
<polygon fill="#63b8ff" stroke="#63b8ff" points="424.55,-216.53 434.34,-220.57 429.2,-211.3 424.55,-216.53"/>
</a>
</g>
</g>
<!-- Node9 -->
<g id="Node000009" class="node">
<title>Node9</title>
<g id="a_Node000009"><a xlink:href="HSISourceModel_8hpp.html" target="_top" xlink:title=" ">
<polygon fill="white" stroke="#666666" points="622.12,-180.38 464.38,-180.38 464.38,-149.88 622.12,-149.88 622.12,-180.38"/>
<text text-anchor="start" x="472.38" y="-166.88" font-family="Helvetica,sans-Serif" font-size="10.00">sourcecode/trigger</text>
<text text-anchor="middle" x="543.25" y="-155.62" font-family="Helvetica,sans-Serif" font-size="10.00">/src/trigger/HSISourceModel.hpp</text>
</a>
</g>
</g>
<!-- Node1&#45;&gt;Node9 -->
<g id="edge8_Node000001_Node000009" class="edge">
<title>Node1&#45;&gt;Node9</title>
<g id="a_edge8_Node000001_Node000009"><a xlink:title=" ">
<path fill="none" stroke="#63b8ff" d="M489.51,-214.01C502.19,-202.72 516.3,-190.14 526.88,-180.71"/>
<polygon fill="#63b8ff" stroke="#63b8ff" points="487.3,-211.3 482.16,-220.57 491.95,-216.53 487.3,-211.3"/>
</a>
</g>
</g>
<!-- Node10 -->
<g id="Node000010" class="node">
<title>Node10</title>
<g id="a_Node000010"><a xlink:href="TPSetSourceModel_8hpp.html" target="_top" xlink:title=" ">
<polygon fill="white" stroke="#666666" points="808.38,-180.38 640.12,-180.38 640.12,-149.88 808.38,-149.88 808.38,-180.38"/>
<text text-anchor="start" x="648.12" y="-166.88" font-family="Helvetica,sans-Serif" font-size="10.00">sourcecode/trigger</text>
<text text-anchor="middle" x="724.25" y="-155.62" font-family="Helvetica,sans-Serif" font-size="10.00">/src/trigger/TPSetSourceModel.hpp</text>
</a>
</g>
</g>
<!-- Node1&#45;&gt;Node10 -->
<g id="edge9_Node000001_Node000010" class="edge">
<title>Node1&#45;&gt;Node10</title>
<g id="a_edge9_Node000001_Node000010"><a xlink:title=" ">
<path fill="none" stroke="#63b8ff" d="M536.67,-219.54C580.62,-207.03 634.19,-191.77 672.81,-180.77"/>
<polygon fill="#63b8ff" stroke="#63b8ff" points="535.83,-216.14 527.17,-222.25 537.75,-222.87 535.83,-216.14"/>
</a>
</g>
</g>
<!-- Node11 -->
<g id="Node000011" class="node">
<title>Node11</title>
<g id="a_Node000011"><a xlink:href="TriggerSourceModel_8hpp.html" target="_top" xlink:title=" ">
<polygon fill="white" stroke="#666666" points="952.38,-186 826.12,-186 826.12,-144.25 952.38,-144.25 952.38,-186"/>
<text text-anchor="start" x="834.12" y="-172.5" font-family="Helvetica,sans-Serif" font-size="10.00">sourcecode/trigger</text>
<text text-anchor="start" x="834.12" y="-161.25" font-family="Helvetica,sans-Serif" font-size="10.00">/src/trigger/TriggerSource</text>
<text text-anchor="middle" x="889.25" y="-150" font-family="Helvetica,sans-Serif" font-size="10.00">Model.hpp</text>
</a>
</g>
</g>
<!-- Node1&#45;&gt;Node11 -->
<g id="edge10_Node000001_Node000011" class="edge">
<title>Node1&#45;&gt;Node11</title>
<g id="a_edge10_Node000001_Node000011"><a xlink:title=" ">
<path fill="none" stroke="#63b8ff" d="M537.22,-232.24C610.28,-222.7 721.69,-206.55 817.25,-186 820.04,-185.4 822.88,-184.76 825.74,-184.08"/>
<polygon fill="#63b8ff" stroke="#63b8ff" points="536.8,-228.76 527.33,-233.52 537.7,-235.71 536.8,-228.76"/>
</a>
</g>
</g>
<!-- Node5 -->
<g id="Node000005" class="node">
<title>Node5</title>
<g id="a_Node000005"><a xlink:href="HDF5RawDataFile_8hpp.html" target="_top" xlink:title=" ">
<polygon fill="white" stroke="#666666" points="364.62,-108.25 209.88,-108.25 209.88,-66.5 364.62,-66.5 364.62,-108.25"/>
<text text-anchor="start" x="217.88" y="-94.75" font-family="Helvetica,sans-Serif" font-size="10.00">sourcecode/hdf5libs</text>
<text text-anchor="start" x="217.88" y="-83.5" font-family="Helvetica,sans-Serif" font-size="10.00">/include/hdf5libs/HDF5RawData</text>
<text text-anchor="middle" x="287.25" y="-72.25" font-family="Helvetica,sans-Serif" font-size="10.00">File.hpp</text>
</a>
</g>
</g>
<!-- Node4&#45;&gt;Node5 -->
<g id="edge4_Node000004_Node000005" class="edge">
<title>Node4&#45;&gt;Node5</title>
<g id="a_edge4_Node000004_Node000005"><a xlink:title=" ">
<path fill="none" stroke="#63b8ff" d="M341.76,-136.39C331.37,-127.23 320.01,-117.23 310.36,-108.73"/>
<polygon fill="#63b8ff" stroke="#63b8ff" points="339.25,-138.84 349.07,-142.82 343.88,-133.59 339.25,-138.84"/>
</a>
</g>
</g>
<!-- Node8 -->
<g id="Node000008" class="node">
<title>Node8</title>
<g id="a_Node000008"><a xlink:href="HDF5SourceIDHandler_8cpp.html" target="_top" xlink:title=" ">
<polygon fill="white" stroke="#666666" points="535.88,-102.62 382.62,-102.62 382.62,-72.12 535.88,-72.12 535.88,-102.62"/>
<text text-anchor="start" x="390.62" y="-89.12" font-family="Helvetica,sans-Serif" font-size="10.00">sourcecode/hdf5libs</text>
<text text-anchor="middle" x="459.25" y="-77.88" font-family="Helvetica,sans-Serif" font-size="10.00">/src/HDF5SourceIDHandler.cpp</text>
</a>
</g>
</g>
<!-- Node4&#45;&gt;Node8 -->
<g id="edge7_Node000004_Node000008" class="edge">
<title>Node4&#45;&gt;Node8</title>
<g id="a_edge7_Node000004_Node000008"><a xlink:title=" ">
<path fill="none" stroke="#63b8ff" d="M404.88,-136.26C417.7,-124.97 431.98,-112.39 442.69,-102.96"/>
<polygon fill="#63b8ff" stroke="#63b8ff" points="402.62,-133.59 397.43,-142.82 407.25,-138.84 402.62,-133.59"/>
</a>
</g>
</g>
<!-- Node6 -->
<g id="Node000006" class="node">
<title>Node6</title>
<g id="a_Node000006"><a xlink:href="hdf5rawdatafile_8cpp.html" target="_top" xlink:title=" ">
<polygon fill="white" stroke="#666666" points="281.5,-30.5 135,-30.5 135,0 281.5,0 281.5,-30.5"/>
<text text-anchor="start" x="143" y="-17" font-family="Helvetica,sans-Serif" font-size="10.00">sourcecode/hdf5libs</text>
<text text-anchor="middle" x="208.25" y="-5.75" font-family="Helvetica,sans-Serif" font-size="10.00">/pybindsrc/hdf5rawdatafile.cpp</text>
</a>
</g>
</g>
<!-- Node5&#45;&gt;Node6 -->
<g id="edge5_Node000005_Node000006" class="edge">
<title>Node5&#45;&gt;Node6</title>
<g id="a_edge5_Node000005_Node000006"><a xlink:title=" ">
<path fill="none" stroke="#63b8ff" d="M256.01,-58.65C245.24,-49.09 233.61,-38.77 224.53,-30.7"/>
<polygon fill="#63b8ff" stroke="#63b8ff" points="253.47,-61.07 263.27,-65.09 258.11,-55.83 253.47,-61.07"/>
</a>
</g>
</g>
<!-- Node7 -->
<g id="Node000007" class="node">
<title>Node7</title>
<g id="a_Node000007"><a xlink:href="HDF5RawDataFile_8cpp.html" target="_top" xlink:title=" ">
<polygon fill="white" stroke="#666666" points="434.5,-30.5 300,-30.5 300,0 434.5,0 434.5,-30.5"/>
<text text-anchor="start" x="308" y="-17" font-family="Helvetica,sans-Serif" font-size="10.00">sourcecode/hdf5libs</text>
<text text-anchor="middle" x="367.25" y="-5.75" font-family="Helvetica,sans-Serif" font-size="10.00">/src/HDF5RawDataFile.cpp</text>
</a>
</g>
</g>
<!-- Node5&#45;&gt;Node7 -->
<g id="edge6_Node000005_Node000007" class="edge">
<title>Node5&#45;&gt;Node7</title>
<g id="a_edge6_Node000005_Node000007"><a xlink:title=" ">
<path fill="none" stroke="#63b8ff" d="M318.82,-58.7C329.65,-49.21 341.33,-38.97 350.51,-30.92"/>
<polygon fill="#63b8ff" stroke="#63b8ff" points="316.74,-55.87 311.53,-65.09 321.35,-61.13 316.74,-55.87"/>
</a>
</g>
</g>
</g>
</svg>
