<?xml version="1.0" encoding="UTF-8" standalone="no"?>
<!DOCTYPE svg PUBLIC "-//W3C//DTD SVG 1.1//EN"
 "http://www.w3.org/Graphics/SVG/1.1/DTD/svg11.dtd">
<!-- Generated by graphviz version 9.0.0 (20230911.1827)
 -->
<!-- Title: sourcecode/dfmessages/include/dfmessages/TriggerDecision.hpp Pages: 1 -->
<svg width="472pt" height="194pt"
 viewBox="0.00 0.00 471.88 194.00" xmlns="http://www.w3.org/2000/svg" xmlns:xlink="http://www.w3.org/1999/xlink">
<g id="graph0" class="graph" transform="scale(1 1) rotate(0) translate(4 190)">
<title>sourcecode/dfmessages/include/dfmessages/TriggerDecision.hpp</title>
<!-- Node1 -->
<g id="Node000001" class="node">
<title>Node1</title>
<g id="a_Node000001"><a xlink:title=" ">
<polygon fill="#999999" stroke="#666666" points="303.12,-186 164.12,-186 164.12,-144.25 303.12,-144.25 303.12,-186"/>
<text text-anchor="start" x="172.12" y="-172.5" font-family="Helvetica,sans-Serif" font-size="10.00">sourcecode/dfmessages</text>
<text text-anchor="start" x="172.12" y="-161.25" font-family="Helvetica,sans-Serif" font-size="10.00">/include/dfmessages/Trigger</text>
<text text-anchor="middle" x="233.62" y="-150" font-family="Helvetica,sans-Serif" font-size="10.00">Decision.hpp</text>
</a>
</g>
</g>
<!-- Node2 -->
<g id="Node000002" class="node">
<title>Node2</title>
<g id="a_Node000002"><a xlink:href="TriggerInhibitAgent_8hpp.html" target="_top" xlink:title=" ">
<polygon fill="white" stroke="#666666" points="141.5,-108.25 1.75,-108.25 1.75,-66.5 141.5,-66.5 141.5,-108.25"/>
<text text-anchor="start" x="9.75" y="-94.75" font-family="Helvetica,sans-Serif" font-size="10.00">sourcecode/dfmodules</text>
<text text-anchor="start" x="9.75" y="-83.5" font-family="Helvetica,sans-Serif" font-size="10.00">/src/dfmodules/TriggerInhibit</text>
<text text-anchor="middle" x="71.62" y="-72.25" font-family="Helvetica,sans-Serif" font-size="10.00">Agent.hpp</text>
</a>
</g>
</g>
<!-- Node1&#45;&gt;Node2 -->
<g id="edge1_Node000001_Node000002" class="edge">
<title>Node1&#45;&gt;Node2</title>
<g id="a_edge1_Node000001_Node000002"><a xlink:title=" ">
<path fill="none" stroke="#63b8ff" d="M179.83,-138.97C158.83,-129.15 135.06,-118.04 115.16,-108.73"/>
<polygon fill="#63b8ff" stroke="#63b8ff" points="178.3,-142.12 188.84,-143.18 181.26,-135.78 178.3,-142.12"/>
</a>
</g>
</g>
<!-- Node4 -->
<g id="Node000004" class="node">
<title>Node4</title>
<g id="a_Node000004"><a xlink:href="TriggerRecordBuilderData_8hpp.html" target="_top" xlink:title=" ">
<polygon fill="white" stroke="#666666" points="305.75,-108.25 161.5,-108.25 161.5,-66.5 305.75,-66.5 305.75,-108.25"/>
<text text-anchor="start" x="169.5" y="-94.75" font-family="Helvetica,sans-Serif" font-size="10.00">sourcecode/dfmodules</text>
<text text-anchor="start" x="169.5" y="-83.5" font-family="Helvetica,sans-Serif" font-size="10.00">/src/dfmodules/TriggerRecord</text>
<text text-anchor="middle" x="233.62" y="-72.25" font-family="Helvetica,sans-Serif" font-size="10.00">BuilderData.hpp</text>
</a>
</g>
</g>
<!-- Node1&#45;&gt;Node4 -->
<g id="edge3_Node000001_Node000004" class="edge">
<title>Node1&#45;&gt;Node4</title>
<g id="a_edge3_Node000001_Node000004"><a xlink:title=" ">
<path fill="none" stroke="#63b8ff" d="M233.62,-132.5C233.62,-124.46 233.62,-116.04 233.62,-108.73"/>
<polygon fill="#63b8ff" stroke="#63b8ff" points="230.13,-132.31 233.63,-142.31 237.13,-132.31 230.13,-132.31"/>
</a>
</g>
</g>
<!-- Node6 -->
<g id="Node000006" class="node">
<title>Node6</title>
<g id="a_Node000006"><a xlink:href="TCProcessor_8hpp.html" target="_top" xlink:title=" ">
<polygon fill="white" stroke="#666666" points="463.88,-102.62 323.38,-102.62 323.38,-72.12 463.88,-72.12 463.88,-102.62"/>
<text text-anchor="start" x="331.38" y="-89.12" font-family="Helvetica,sans-Serif" font-size="10.00">sourcecode/trigger</text>
<text text-anchor="middle" x="393.62" y="-77.88" font-family="Helvetica,sans-Serif" font-size="10.00">/src/trigger/TCProcessor.hpp</text>
</a>
</g>
</g>
<!-- Node1&#45;&gt;Node6 -->
<g id="edge5_Node000001_Node000006" class="edge">
<title>Node1&#45;&gt;Node6</title>
<g id="a_edge5_Node000001_Node000006"><a xlink:title=" ">
<path fill="none" stroke="#63b8ff" d="M286.65,-139.02C311.82,-127.11 341.03,-113.28 362.56,-103.08"/>
<polygon fill="#63b8ff" stroke="#63b8ff" points="285.41,-135.74 277.87,-143.18 288.41,-142.06 285.41,-135.74"/>
</a>
</g>
</g>
<!-- Node3 -->
<g id="Node000003" class="node">
<title>Node3</title>
<g id="a_Node000003"><a xlink:href="TriggerInhibitAgent_8cpp.html" target="_top" xlink:title=" ">
<polygon fill="white" stroke="#666666" points="135.25,-30.5 0,-30.5 0,0 135.25,0 135.25,-30.5"/>
<text text-anchor="start" x="8" y="-17" font-family="Helvetica,sans-Serif" font-size="10.00">sourcecode/dfmodules</text>
<text text-anchor="middle" x="67.62" y="-5.75" font-family="Helvetica,sans-Serif" font-size="10.00">/src/TriggerInhibitAgent.cpp</text>
</a>
</g>
</g>
<!-- Node2&#45;&gt;Node3 -->
<g id="edge2_Node000002_Node000003" class="edge">
<title>Node2&#45;&gt;Node3</title>
<g id="a_edge2_Node000002_Node000003"><a xlink:title=" ">
<path fill="none" stroke="#63b8ff" d="M69.81,-54.63C69.34,-46.27 68.85,-37.65 68.45,-30.7"/>
<polygon fill="#63b8ff" stroke="#63b8ff" points="66.32,-54.8 70.38,-64.58 73.31,-54.4 66.32,-54.8"/>
</a>
</g>
</g>
<!-- Node5 -->
<g id="Node000005" class="node">
<title>Node5</title>
<g id="a_Node000005"><a xlink:href="TriggerRecordBuilderData_8cpp.html" target="_top" xlink:title=" ">
<polygon fill="white" stroke="#666666" points="317.88,-30.5 153.38,-30.5 153.38,0 317.88,0 317.88,-30.5"/>
<text text-anchor="start" x="161.38" y="-17" font-family="Helvetica,sans-Serif" font-size="10.00">sourcecode/dfmodules</text>
<text text-anchor="middle" x="235.62" y="-5.75" font-family="Helvetica,sans-Serif" font-size="10.00">/src/TriggerRecordBuilderData.cpp</text>
</a>
</g>
</g>
<!-- Node4&#45;&gt;Node5 -->
<g id="edge4_Node000004_Node000005" class="edge">
<title>Node4&#45;&gt;Node5</title>
<g id="a_edge4_Node000004_Node000005"><a xlink:title=" ">
<path fill="none" stroke="#63b8ff" d="M234.53,-54.63C234.77,-46.27 235.01,-37.65 235.21,-30.7"/>
<polygon fill="#63b8ff" stroke="#63b8ff" points="231.03,-54.48 234.25,-64.58 238.03,-54.68 231.03,-54.48"/>
</a>
</g>
</g>
<!-- Node7 -->
<g id="Node000007" class="node">
<title>Node7</title>
<g id="a_Node000007"><a xlink:href="TCProcessor_8cpp.html" target="_top" xlink:title=" ">
<polygon fill="white" stroke="#666666" points="448.88,-30.5 338.38,-30.5 338.38,0 448.88,0 448.88,-30.5"/>
<text text-anchor="start" x="346.38" y="-17" font-family="Helvetica,sans-Serif" font-size="10.00">sourcecode/trigger</text>
<text text-anchor="middle" x="393.62" y="-5.75" font-family="Helvetica,sans-Serif" font-size="10.00">/src/TCProcessor.cpp</text>
</a>
</g>
</g>
<!-- Node6&#45;&gt;Node7 -->
<g id="edge6_Node000006_Node000007" class="edge">
<title>Node6&#45;&gt;Node7</title>
<g id="a_edge6_Node000006_Node000007"><a xlink:title=" ">
<path fill="none" stroke="#63b8ff" d="M393.62,-60.4C393.62,-50.39 393.62,-39.31 393.62,-30.76"/>
<polygon fill="#63b8ff" stroke="#63b8ff" points="390.13,-60.33 393.63,-70.33 397.13,-60.33 390.13,-60.33"/>
</a>
</g>
</g>
</g>
</svg>
