<?xml version="1.0" encoding="UTF-8" standalone="no"?>
<!DOCTYPE svg PUBLIC "-//W3C//DTD SVG 1.1//EN"
 "http://www.w3.org/Graphics/SVG/1.1/DTD/svg11.dtd">
<!-- Generated by graphviz version 9.0.0 (20230911.1827)
 -->
<!-- Title: sourcecode/dfmessages/include/dfmessages/Types.hpp Pages: 1 -->
<svg width="2170pt" height="483pt"
 viewBox="0.00 0.00 2169.75 482.50" xmlns="http://www.w3.org/2000/svg" xmlns:xlink="http://www.w3.org/1999/xlink">
<g id="graph0" class="graph" transform="scale(1 1) rotate(0) translate(4 478.5)">
<title>sourcecode/dfmessages/include/dfmessages/Types.hpp</title>
<!-- Node1 -->
<g id="Node000001" class="node">
<title>Node1</title>
<g id="a_Node000001"><a xlink:title=" ">
<polygon fill="#999999" stroke="#666666" points="1574.38,-474.5 1421.12,-474.5 1421.12,-444 1574.38,-444 1574.38,-474.5"/>
<text text-anchor="start" x="1429.12" y="-461" font-family="Helvetica,sans-Serif" font-size="10.00">sourcecode/dfmessages</text>
<text text-anchor="middle" x="1497.75" y="-449.75" font-family="Helvetica,sans-Serif" font-size="10.00">/include/dfmessages/Types.hpp</text>
</a>
</g>
</g>
<!-- Node2 -->
<g id="Node000002" class="node">
<title>Node2</title>
<g id="a_Node000002"><a xlink:href="DataRequest_8hpp.html" target="_top" xlink:title=" ">
<polygon fill="white" stroke="#666666" points="814.38,-402.38 631.12,-402.38 631.12,-371.88 814.38,-371.88 814.38,-402.38"/>
<text text-anchor="start" x="639.12" y="-388.88" font-family="Helvetica,sans-Serif" font-size="10.00">sourcecode/dfmessages</text>
<text text-anchor="middle" x="722.75" y="-377.62" font-family="Helvetica,sans-Serif" font-size="10.00">/include/dfmessages/DataRequest.hpp</text>
</a>
</g>
</g>
<!-- Node1&#45;&gt;Node2 -->
<g id="edge1_Node000001_Node000002" class="edge">
<title>Node1&#45;&gt;Node2</title>
<g id="a_edge1_Node000001_Node000002"><a xlink:title=" ">
<path fill="none" stroke="#63b8ff" d="M1409.54,-454.79C1281.1,-449.04 1035.29,-435.34 827.75,-408 816.99,-406.58 805.66,-404.78 794.59,-402.83"/>
<polygon fill="#63b8ff" stroke="#63b8ff" points="1409.19,-458.28 1419.33,-455.22 1409.5,-451.29 1409.19,-458.28"/>
</a>
</g>
</g>
<!-- Node12 -->
<g id="Node000012" class="node">
<title>Node12</title>
<g id="a_Node000012"><a xlink:href="HSIEvent_8hpp.html" target="_top" xlink:title=" ">
<polygon fill="white" stroke="#666666" points="1409.25,-402.38 1240.25,-402.38 1240.25,-371.88 1409.25,-371.88 1409.25,-402.38"/>
<text text-anchor="start" x="1248.25" y="-388.88" font-family="Helvetica,sans-Serif" font-size="10.00">sourcecode/dfmessages</text>
<text text-anchor="middle" x="1324.75" y="-377.62" font-family="Helvetica,sans-Serif" font-size="10.00">/include/dfmessages/HSIEvent.hpp</text>
</a>
</g>
</g>
<!-- Node1&#45;&gt;Node12 -->
<g id="edge17_Node000001_Node000012" class="edge">
<title>Node1&#45;&gt;Node12</title>
<g id="a_edge17_Node000001_Node000012"><a xlink:title=" ">
<path fill="none" stroke="#63b8ff" d="M1451.02,-439.31C1422.71,-427.83 1387.14,-413.41 1360.97,-402.81"/>
<polygon fill="#63b8ff" stroke="#63b8ff" points="1449.5,-442.47 1460.08,-442.98 1452.13,-435.98 1449.5,-442.47"/>
</a>
</g>
</g>
<!-- Node18 -->
<g id="Node000018" class="node">
<title>Node18</title>
<g id="a_Node000018"><a xlink:href="TRMonRequest_8hpp.html" target="_top" xlink:title=" ">
<polygon fill="white" stroke="#666666" points="1222,-402.38 1027.5,-402.38 1027.5,-371.88 1222,-371.88 1222,-402.38"/>
<text text-anchor="start" x="1035.5" y="-388.88" font-family="Helvetica,sans-Serif" font-size="10.00">sourcecode/dfmessages</text>
<text text-anchor="middle" x="1124.75" y="-377.62" font-family="Helvetica,sans-Serif" font-size="10.00">/include/dfmessages/TRMonRequest.hpp</text>
</a>
</g>
</g>
<!-- Node1&#45;&gt;Node18 -->
<g id="edge23_Node000001_Node000018" class="edge">
<title>Node1&#45;&gt;Node18</title>
<g id="a_edge23_Node000001_Node000018"><a xlink:title=" ">
<path fill="none" stroke="#63b8ff" d="M1409.85,-441.73C1347.13,-429.93 1263.53,-414.22 1203.09,-402.85"/>
<polygon fill="#63b8ff" stroke="#63b8ff" points="1408.95,-445.12 1419.43,-443.53 1410.25,-438.24 1408.95,-445.12"/>
</a>
</g>
</g>
<!-- Node19 -->
<g id="Node000019" class="node">
<title>Node19</title>
<g id="a_Node000019"><a xlink:href="TimeSync_8hpp.html" target="_top" xlink:title=" ">
<polygon fill="white" stroke="#666666" points="1007,-402.38 836.5,-402.38 836.5,-371.88 1007,-371.88 1007,-402.38"/>
<text text-anchor="start" x="844.5" y="-388.88" font-family="Helvetica,sans-Serif" font-size="10.00">sourcecode/dfmessages</text>
<text text-anchor="middle" x="921.75" y="-377.62" font-family="Helvetica,sans-Serif" font-size="10.00">/include/dfmessages/TimeSync.hpp</text>
</a>
</g>
</g>
<!-- Node1&#45;&gt;Node19 -->
<g id="edge24_Node000001_Node000019" class="edge">
<title>Node1&#45;&gt;Node19</title>
<g id="a_edge24_Node000001_Node000019"><a xlink:title=" ">
<path fill="none" stroke="#63b8ff" d="M1409.27,-451.57C1312.89,-443.69 1154.34,-428.95 1018.75,-408 1009.24,-406.53 999.24,-404.75 989.44,-402.87"/>
<polygon fill="#63b8ff" stroke="#63b8ff" points="1408.96,-455.06 1419.21,-452.38 1409.52,-448.08 1408.96,-455.06"/>
</a>
</g>
</g>
<!-- Node20 -->
<g id="Node000020" class="node">
<title>Node20</title>
<g id="a_Node000020"><a xlink:href="dfmessages_2include_2dfmessages_2TriggerDecision_8hpp.html" target="_top" xlink:title=" ">
<polygon fill="white" stroke="#666666" points="1724.25,-408 1585.25,-408 1585.25,-366.25 1724.25,-366.25 1724.25,-408"/>
<text text-anchor="start" x="1593.25" y="-394.5" font-family="Helvetica,sans-Serif" font-size="10.00">sourcecode/dfmessages</text>
<text text-anchor="start" x="1593.25" y="-383.25" font-family="Helvetica,sans-Serif" font-size="10.00">/include/dfmessages/Trigger</text>
<text text-anchor="middle" x="1654.75" y="-372" font-family="Helvetica,sans-Serif" font-size="10.00">Decision.hpp</text>
</a>
</g>
</g>
<!-- Node1&#45;&gt;Node20 -->
<g id="edge26_Node000001_Node000020" class="edge">
<title>Node1&#45;&gt;Node20</title>
<g id="a_edge26_Node000001_Node000020"><a xlink:title=" ">
<path fill="none" stroke="#63b8ff" d="M1541.02,-438.92C1562.26,-429.43 1587.85,-418 1609.38,-408.39"/>
<polygon fill="#63b8ff" stroke="#63b8ff" points="1539.75,-435.66 1532.04,-442.93 1542.6,-442.05 1539.75,-435.66"/>
</a>
</g>
</g>
<!-- Node27 -->
<g id="Node000027" class="node">
<title>Node27</title>
<g id="a_Node000027"><a xlink:href="TriggerDecisionToken_8hpp.html" target="_top" xlink:title=" ">
<polygon fill="white" stroke="#666666" points="1920.25,-408 1781.25,-408 1781.25,-366.25 1920.25,-366.25 1920.25,-408"/>
<text text-anchor="start" x="1789.25" y="-394.5" font-family="Helvetica,sans-Serif" font-size="10.00">sourcecode/dfmessages</text>
<text text-anchor="start" x="1789.25" y="-383.25" font-family="Helvetica,sans-Serif" font-size="10.00">/include/dfmessages/Trigger</text>
<text text-anchor="middle" x="1850.75" y="-372" font-family="Helvetica,sans-Serif" font-size="10.00">DecisionToken.hpp</text>
</a>
</g>
</g>
<!-- Node1&#45;&gt;Node27 -->
<g id="edge33_Node000001_Node000027" class="edge">
<title>Node1&#45;&gt;Node27</title>
<g id="a_edge33_Node000001_Node000027"><a xlink:title=" ">
<path fill="none" stroke="#63b8ff" d="M1586.08,-442.84C1638.68,-433.4 1706.67,-420.71 1766.75,-408 1771.44,-407.01 1776.27,-405.95 1781.14,-404.87"/>
<polygon fill="#63b8ff" stroke="#63b8ff" points="1585.48,-439.4 1576.25,-444.6 1586.71,-446.29 1585.48,-439.4"/>
</a>
</g>
</g>
<!-- Node28 -->
<g id="Node000028" class="node">
<title>Node28</title>
<g id="a_Node000028"><a xlink:href="TokenManager_8hpp.html" target="_top" xlink:title=" ">
<polygon fill="white" stroke="#666666" points="2161.75,-324.62 2013.75,-324.62 2013.75,-294.12 2161.75,-294.12 2161.75,-324.62"/>
<text text-anchor="start" x="2021.75" y="-311.12" font-family="Helvetica,sans-Serif" font-size="10.00">sourcecode/trigger</text>
<text text-anchor="middle" x="2087.75" y="-299.88" font-family="Helvetica,sans-Serif" font-size="10.00">/src/trigger/TokenManager.hpp</text>
</a>
</g>
</g>
<!-- Node1&#45;&gt;Node28 -->
<g id="edge38_Node000001_Node000028" class="edge">
<title>Node1&#45;&gt;Node28</title>
<g id="a_edge38_Node000001_Node000028"><a xlink:title=" ">
<path fill="none" stroke="#63b8ff" d="M1585.97,-452.24C1632.36,-446.02 1688.78,-433.43 1733.75,-408 1755.85,-395.5 1750.31,-378.13 1772.75,-366.25 1864.98,-317.45 1902.37,-350.42 2004.75,-330.25 2012.6,-328.7 2020.83,-326.93 2028.93,-325.08"/>
<polygon fill="#63b8ff" stroke="#63b8ff" points="1585.7,-448.75 1576.21,-453.46 1586.57,-455.69 1585.7,-448.75"/>
</a>
</g>
</g>
<!-- Node30 -->
<g id="Node000030" class="node">
<title>Node30</title>
<g id="a_Node000030"><a xlink:href="TriggerInhibit_8hpp.html" target="_top" xlink:title=" ">
<polygon fill="white" stroke="#666666" points="1567.25,-408 1428.25,-408 1428.25,-366.25 1567.25,-366.25 1567.25,-408"/>
<text text-anchor="start" x="1436.25" y="-394.5" font-family="Helvetica,sans-Serif" font-size="10.00">sourcecode/dfmessages</text>
<text text-anchor="start" x="1436.25" y="-383.25" font-family="Helvetica,sans-Serif" font-size="10.00">/include/dfmessages/Trigger</text>
<text text-anchor="middle" x="1497.75" y="-372" font-family="Helvetica,sans-Serif" font-size="10.00">Inhibit.hpp</text>
</a>
</g>
</g>
<!-- Node1&#45;&gt;Node30 -->
<g id="edge36_Node000001_Node000030" class="edge">
<title>Node1&#45;&gt;Node30</title>
<g id="a_edge36_Node000001_Node000030"><a xlink:title=" ">
<path fill="none" stroke="#63b8ff" d="M1497.75,-432.47C1497.75,-424.56 1497.75,-415.98 1497.75,-408.49"/>
<polygon fill="#63b8ff" stroke="#63b8ff" points="1494.25,-432.21 1497.75,-442.21 1501.25,-432.21 1494.25,-432.21"/>
</a>
</g>
</g>
<!-- Node31 -->
<g id="Node000031" class="node">
<title>Node31</title>
<g id="a_Node000031"><a xlink:href="TriggerGenericMaker_8hpp.html" target="_top" xlink:title=" ">
<polygon fill="white" stroke="#666666" points="2067.38,-408 1938.12,-408 1938.12,-366.25 2067.38,-366.25 2067.38,-408"/>
<text text-anchor="start" x="1946.12" y="-394.5" font-family="Helvetica,sans-Serif" font-size="10.00">sourcecode/trigger</text>
<text text-anchor="start" x="1946.12" y="-383.25" font-family="Helvetica,sans-Serif" font-size="10.00">/src/trigger/TriggerGeneric</text>
<text text-anchor="middle" x="2002.75" y="-372" font-family="Helvetica,sans-Serif" font-size="10.00">Maker.hpp</text>
</a>
</g>
</g>
<!-- Node1&#45;&gt;Node31 -->
<g id="edge39_Node000001_Node000031" class="edge">
<title>Node1&#45;&gt;Node31</title>
<g id="a_edge39_Node000001_Node000031"><a xlink:title=" ">
<path fill="none" stroke="#63b8ff" d="M1586,-451.88C1673.72,-444.64 1811.85,-430.77 1929.75,-408 1932.46,-407.48 1935.21,-406.91 1937.99,-406.3"/>
<polygon fill="#63b8ff" stroke="#63b8ff" points="1585.95,-448.38 1576.27,-452.68 1586.52,-455.35 1585.95,-448.38"/>
</a>
</g>
</g>
<!-- Node3 -->
<g id="Node000003" class="node">
<title>Node3</title>
<g id="a_Node000003"><a xlink:href="RequestHandlerConcept_8hpp.html" target="_top" xlink:title=" ">
<polygon fill="white" stroke="#666666" points="744.12,-330.25 601.38,-330.25 601.38,-288.5 744.12,-288.5 744.12,-330.25"/>
<text text-anchor="start" x="609.38" y="-316.75" font-family="Helvetica,sans-Serif" font-size="10.00">sourcecode/readoutlibs</text>
<text text-anchor="start" x="609.38" y="-305.5" font-family="Helvetica,sans-Serif" font-size="10.00">/include/readoutlibs/concepts</text>
<text text-anchor="middle" x="672.75" y="-294.25" font-family="Helvetica,sans-Serif" font-size="10.00">/RequestHandlerConcept.hpp</text>
</a>
</g>
</g>
<!-- Node2&#45;&gt;Node3 -->
<g id="edge2_Node000002_Node000003" class="edge">
<title>Node2&#45;&gt;Node3</title>
<g id="a_edge2_Node000002_Node000003"><a xlink:title=" ">
<path fill="none" stroke="#63b8ff" d="M706.86,-362.05C700.19,-351.95 692.52,-340.32 686.14,-330.66"/>
<polygon fill="#63b8ff" stroke="#63b8ff" points="703.85,-363.84 712.28,-370.26 709.69,-359.98 703.85,-363.84"/>
</a>
</g>
</g>
<!-- Node4 -->
<g id="Node000004" class="node">
<title>Node4</title>
<g id="a_Node000004"><a xlink:href="DefaultRequestHandlerModel_8hpp.html" target="_top" xlink:title=" ">
<polygon fill="white" stroke="#666666" points="616.62,-252.5 452.88,-252.5 452.88,-210.75 616.62,-210.75 616.62,-252.5"/>
<text text-anchor="start" x="460.88" y="-239" font-family="Helvetica,sans-Serif" font-size="10.00">sourcecode/readoutlibs</text>
<text text-anchor="start" x="460.88" y="-227.75" font-family="Helvetica,sans-Serif" font-size="10.00">/include/readoutlibs/models</text>
<text text-anchor="middle" x="534.75" y="-216.5" font-family="Helvetica,sans-Serif" font-size="10.00">/DefaultRequestHandlerModel.hpp</text>
</a>
</g>
</g>
<!-- Node2&#45;&gt;Node4 -->
<g id="edge15_Node000002_Node000004" class="edge">
<title>Node2&#45;&gt;Node4</title>
<g id="a_edge15_Node000002_Node000004"><a xlink:title=" ">
<path fill="none" stroke="#63b8ff" d="M658.29,-367.59C635.78,-358.87 611.48,-346.69 592.75,-330.25 568.3,-308.79 551.27,-274.44 542.26,-252.73"/>
<polygon fill="#63b8ff" stroke="#63b8ff" points="656.81,-370.78 667.4,-370.95 659.23,-364.21 656.81,-370.78"/>
</a>
</g>
</g>
<!-- Node11 -->
<g id="Node000011" class="node">
<title>Node11</title>
<g id="a_Node000011"><a xlink:href="ReadoutModel_8hpp.html" target="_top" xlink:title=" ">
<polygon fill="white" stroke="#666666" points="858,-252.5 723.5,-252.5 723.5,-210.75 858,-210.75 858,-252.5"/>
<text text-anchor="start" x="731.5" y="-239" font-family="Helvetica,sans-Serif" font-size="10.00">sourcecode/readoutlibs</text>
<text text-anchor="start" x="731.5" y="-227.75" font-family="Helvetica,sans-Serif" font-size="10.00">/include/readoutlibs/models</text>
<text text-anchor="middle" x="790.75" y="-216.5" font-family="Helvetica,sans-Serif" font-size="10.00">/ReadoutModel.hpp</text>
</a>
</g>
</g>
<!-- Node2&#45;&gt;Node11 -->
<g id="edge16_Node000002_Node000011" class="edge">
<title>Node2&#45;&gt;Node11</title>
<g id="a_edge16_Node000002_Node000011"><a xlink:title=" ">
<path fill="none" stroke="#63b8ff" d="M736.58,-361.9C741.91,-352.2 747.88,-340.82 752.75,-330.25 764.86,-303.99 776.58,-272.69 783.73,-252.74"/>
<polygon fill="#63b8ff" stroke="#63b8ff" points="733.69,-359.91 731.88,-370.34 739.8,-363.31 733.69,-359.91"/>
</a>
</g>
</g>
<!-- Node3&#45;&gt;Node4 -->
<g id="edge3_Node000003_Node000004" class="edge">
<title>Node3&#45;&gt;Node4</title>
<g id="a_edge3_Node000003_Node000004"><a xlink:title=" ">
<path fill="none" stroke="#63b8ff" d="M625.7,-282.55C608.11,-272.89 588.4,-262.07 571.83,-252.98"/>
<polygon fill="#63b8ff" stroke="#63b8ff" points="623.99,-285.6 634.44,-287.35 627.36,-279.47 623.99,-285.6"/>
</a>
</g>
</g>
<!-- Node9 -->
<g id="Node000009" class="node">
<title>Node9</title>
<g id="a_Node000009"><a xlink:href="Readoutlibs_8cpp.html" target="_top" xlink:title=" ">
<polygon fill="white" stroke="#666666" points="716,-97 599.5,-97 599.5,-66.5 716,-66.5 716,-97"/>
<text text-anchor="start" x="607.5" y="-83.5" font-family="Helvetica,sans-Serif" font-size="10.00">sourcecode/readoutlibs</text>
<text text-anchor="middle" x="657.75" y="-72.25" font-family="Helvetica,sans-Serif" font-size="10.00">/src/Readoutlibs.cpp</text>
</a>
</g>
</g>
<!-- Node3&#45;&gt;Node9 -->
<g id="edge14_Node000003_Node000009" class="edge">
<title>Node3&#45;&gt;Node9</title>
<g id="a_edge14_Node000003_Node000009"><a xlink:title=" ">
<path fill="none" stroke="#63b8ff" d="M670.92,-276.71C668.86,-241.58 665.32,-183.22 661.75,-133 660.89,-120.95 659.8,-107.29 658.97,-97.26"/>
<polygon fill="#63b8ff" stroke="#63b8ff" points="667.42,-276.82 671.5,-286.6 674.41,-276.42 667.42,-276.82"/>
</a>
</g>
</g>
<!-- Node3&#45;&gt;Node11 -->
<g id="edge12_Node000003_Node000011" class="edge">
<title>Node3&#45;&gt;Node11</title>
<g id="a_edge12_Node000003_Node000011"><a xlink:title=" ">
<path fill="none" stroke="#63b8ff" d="M713.83,-282.01C728.65,-272.49 745.14,-261.9 759.04,-252.98"/>
<polygon fill="#63b8ff" stroke="#63b8ff" points="712.17,-278.91 705.65,-287.26 715.95,-284.8 712.17,-278.91"/>
</a>
</g>
</g>
<!-- Node5 -->
<g id="Node000005" class="node">
<title>Node5</title>
<g id="a_Node000005"><a xlink:href="DefaultSkipListRequestHandler_8hpp.html" target="_top" xlink:title=" ">
<polygon fill="white" stroke="#666666" points="173.5,-174.75 0,-174.75 0,-133 173.5,-133 173.5,-174.75"/>
<text text-anchor="start" x="8" y="-161.25" font-family="Helvetica,sans-Serif" font-size="10.00">sourcecode/readoutlibs</text>
<text text-anchor="start" x="8" y="-150" font-family="Helvetica,sans-Serif" font-size="10.00">/include/readoutlibs/models</text>
<text text-anchor="middle" x="86.75" y="-138.75" font-family="Helvetica,sans-Serif" font-size="10.00">/DefaultSkipListRequestHandler.hpp</text>
</a>
</g>
</g>
<!-- Node4&#45;&gt;Node5 -->
<g id="edge4_Node000004_Node000005" class="edge">
<title>Node4&#45;&gt;Node5</title>
<g id="a_edge4_Node000004_Node000005"><a xlink:title=" ">
<path fill="none" stroke="#63b8ff" d="M441.27,-217C370.22,-206.35 270.14,-190.72 182.75,-174.75 179.82,-174.21 176.84,-173.66 173.84,-173.09"/>
<polygon fill="#63b8ff" stroke="#63b8ff" points="440.51,-220.43 450.92,-218.44 441.55,-213.5 440.51,-220.43"/>
</a>
</g>
</g>
<!-- Node8 -->
<g id="Node000008" class="node">
<title>Node8</title>
<g id="a_Node000008"><a xlink:href="EmptyFragmentRequestHandlerModel_8hpp.html" target="_top" xlink:title=" ">
<polygon fill="white" stroke="#666666" points="629.38,-174.75 428.12,-174.75 428.12,-133 629.38,-133 629.38,-174.75"/>
<text text-anchor="start" x="436.12" y="-161.25" font-family="Helvetica,sans-Serif" font-size="10.00">sourcecode/readoutlibs</text>
<text text-anchor="start" x="436.12" y="-150" font-family="Helvetica,sans-Serif" font-size="10.00">/include/readoutlibs/models</text>
<text text-anchor="middle" x="528.75" y="-138.75" font-family="Helvetica,sans-Serif" font-size="10.00">/EmptyFragmentRequestHandlerModel.hpp</text>
</a>
</g>
</g>
<!-- Node4&#45;&gt;Node8 -->
<g id="edge7_Node000004_Node000008" class="edge">
<title>Node4&#45;&gt;Node8</title>
<g id="a_edge7_Node000004_Node000008"><a xlink:title=" ">
<path fill="none" stroke="#63b8ff" d="M532.25,-199C531.61,-190.96 530.94,-182.54 530.36,-175.23"/>
<polygon fill="#63b8ff" stroke="#63b8ff" points="528.74,-199.12 533.02,-208.82 535.72,-198.57 528.74,-199.12"/>
</a>
</g>
</g>
<!-- Node4&#45;&gt;Node9 -->
<g id="edge11_Node000004_Node000009" class="edge">
<title>Node4&#45;&gt;Node9</title>
<g id="a_edge11_Node000004_Node000009"><a xlink:title=" ">
<path fill="none" stroke="#63b8ff" d="M603.08,-205.01C616.61,-197.14 629.48,-187.18 638.75,-174.75 655.91,-151.74 658.45,-116.88 658.37,-97.35"/>
<polygon fill="#63b8ff" stroke="#63b8ff" points="601.61,-201.82 594.48,-209.65 604.94,-207.98 601.61,-201.82"/>
</a>
</g>
</g>
<!-- Node10 -->
<g id="Node000010" class="node">
<title>Node10</title>
<g id="a_Node000010"><a xlink:href="ZeroCopyRecordingRequestHandlerModel_8hpp.html" target="_top" xlink:title=" ">
<polygon fill="white" stroke="#666666" points="409.62,-174.75 191.88,-174.75 191.88,-133 409.62,-133 409.62,-174.75"/>
<text text-anchor="start" x="199.88" y="-161.25" font-family="Helvetica,sans-Serif" font-size="10.00">sourcecode/readoutlibs</text>
<text text-anchor="start" x="199.88" y="-150" font-family="Helvetica,sans-Serif" font-size="10.00">/include/readoutlibs/models</text>
<text text-anchor="middle" x="300.75" y="-138.75" font-family="Helvetica,sans-Serif" font-size="10.00">/ZeroCopyRecordingRequestHandlerModel.hpp</text>
</a>
</g>
</g>
<!-- Node4&#45;&gt;Node10 -->
<g id="edge9_Node000004_Node000010" class="edge">
<title>Node4&#45;&gt;Node10</title>
<g id="a_edge9_Node000004_Node000010"><a xlink:title=" ">
<path fill="none" stroke="#63b8ff" d="M461.18,-206.81C429.85,-196.67 393.69,-184.96 363.63,-175.23"/>
<polygon fill="#63b8ff" stroke="#63b8ff" points="460.01,-210.11 470.6,-209.86 462.17,-203.45 460.01,-210.11"/>
</a>
</g>
</g>
<!-- Node6 -->
<g id="Node000006" class="node">
<title>Node6</title>
<g id="a_Node000006"><a xlink:href="TPRequestHandler_8hpp.html" target="_top" xlink:title=" ">
<polygon fill="white" stroke="#666666" points="169.75,-97 3.75,-97 3.75,-66.5 169.75,-66.5 169.75,-97"/>
<text text-anchor="start" x="11.75" y="-83.5" font-family="Helvetica,sans-Serif" font-size="10.00">sourcecode/trigger</text>
<text text-anchor="middle" x="86.75" y="-72.25" font-family="Helvetica,sans-Serif" font-size="10.00">/src/trigger/TPRequestHandler.hpp</text>
</a>
</g>
</g>
<!-- Node5&#45;&gt;Node6 -->
<g id="edge5_Node000005_Node000006" class="edge">
<title>Node5&#45;&gt;Node6</title>
<g id="a_edge5_Node000005_Node000006"><a xlink:title=" ">
<path fill="none" stroke="#63b8ff" d="M86.75,-121.13C86.75,-112.77 86.75,-104.15 86.75,-97.2"/>
<polygon fill="#63b8ff" stroke="#63b8ff" points="83.25,-121.08 86.75,-131.08 90.25,-121.08 83.25,-121.08"/>
</a>
</g>
</g>
<!-- Node7 -->
<g id="Node000007" class="node">
<title>Node7</title>
<g id="a_Node000007"><a xlink:href="TPRequestHandler_8cpp.html" target="_top" xlink:title=" ">
<polygon fill="white" stroke="#666666" points="154.75,-30.5 18.75,-30.5 18.75,0 154.75,0 154.75,-30.5"/>
<text text-anchor="start" x="26.75" y="-17" font-family="Helvetica,sans-Serif" font-size="10.00">sourcecode/trigger</text>
<text text-anchor="middle" x="86.75" y="-5.75" font-family="Helvetica,sans-Serif" font-size="10.00">/src/TPRequestHandler.cpp</text>
</a>
</g>
</g>
<!-- Node6&#45;&gt;Node7 -->
<g id="edge6_Node000006_Node000007" class="edge">
<title>Node6&#45;&gt;Node7</title>
<g id="a_edge6_Node000006_Node000007"><a xlink:title=" ">
<path fill="none" stroke="#63b8ff" d="M86.75,-54.81C86.75,-46.64 86.75,-37.91 86.75,-30.83"/>
<polygon fill="#63b8ff" stroke="#63b8ff" points="83.25,-54.6 86.75,-64.6 90.25,-54.6 83.25,-54.6"/>
</a>
</g>
</g>
<!-- Node8&#45;&gt;Node9 -->
<g id="edge8_Node000008_Node000009" class="edge">
<title>Node8&#45;&gt;Node9</title>
<g id="a_edge8_Node000008_Node000009"><a xlink:title=" ">
<path fill="none" stroke="#63b8ff" d="M576.05,-127.16C594.48,-117.14 614.93,-106.03 630.76,-97.42"/>
<polygon fill="#63b8ff" stroke="#63b8ff" points="574.51,-124.02 567.39,-131.87 577.85,-130.17 574.51,-124.02"/>
</a>
</g>
</g>
<!-- Node10&#45;&gt;Node9 -->
<g id="edge10_Node000010_Node000009" class="edge">
<title>Node10&#45;&gt;Node9</title>
<g id="a_edge10_Node000010_Node000009"><a xlink:title=" ">
<path fill="none" stroke="#63b8ff" d="M414.93,-130.45C476.29,-118.39 549.37,-104.04 599.21,-94.25"/>
<polygon fill="#63b8ff" stroke="#63b8ff" points="414.63,-126.94 405.49,-132.3 415.98,-133.81 414.63,-126.94"/>
</a>
</g>
</g>
<!-- Node11&#45;&gt;Node9 -->
<g id="edge13_Node000011_Node000009" class="edge">
<title>Node11&#45;&gt;Node9</title>
<g id="a_edge13_Node000011_Node000009"><a xlink:title=" ">
<path fill="none" stroke="#63b8ff" d="M767.9,-201.41C752.1,-181.63 730.3,-155.17 709.75,-133 698.14,-120.48 684.19,-107.08 673.66,-97.27"/>
<polygon fill="#63b8ff" stroke="#63b8ff" points="765.03,-203.42 773.99,-209.07 770.51,-199.07 765.03,-203.42"/>
</a>
</g>
</g>
<!-- Node13 -->
<g id="Node000013" class="node">
<title>Node13</title>
<g id="a_Node000013"><a xlink:href="HSIEventSender_8hpp.html" target="_top" xlink:title=" ">
<polygon fill="white" stroke="#666666" points="1517.88,-324.62 1343.62,-324.62 1343.62,-294.12 1517.88,-294.12 1517.88,-324.62"/>
<text text-anchor="start" x="1351.62" y="-311.12" font-family="Helvetica,sans-Serif" font-size="10.00">sourcecode/hsilibs</text>
<text text-anchor="middle" x="1430.75" y="-299.88" font-family="Helvetica,sans-Serif" font-size="10.00">/include/hsilibs/HSIEventSender.hpp</text>
</a>
</g>
</g>
<!-- Node12&#45;&gt;Node13 -->
<g id="edge18_Node000012_Node000013" class="edge">
<title>Node12&#45;&gt;Node13</title>
<g id="a_edge18_Node000012_Node000013"><a xlink:title=" ">
<path fill="none" stroke="#63b8ff" d="M1354.08,-365.17C1371.98,-352.38 1394.41,-336.35 1410.37,-324.94"/>
<polygon fill="#63b8ff" stroke="#63b8ff" points="1352.52,-361.98 1346.42,-370.64 1356.59,-367.67 1352.52,-361.98"/>
</a>
</g>
</g>
<!-- Node15 -->
<g id="Node000015" class="node">
<title>Node15</title>
<g id="a_Node000015"><a xlink:href="HSISourceModel_8hpp.html" target="_top" xlink:title=" ">
<polygon fill="white" stroke="#666666" points="995.62,-324.62 837.88,-324.62 837.88,-294.12 995.62,-294.12 995.62,-324.62"/>
<text text-anchor="start" x="845.88" y="-311.12" font-family="Helvetica,sans-Serif" font-size="10.00">sourcecode/trigger</text>
<text text-anchor="middle" x="916.75" y="-299.88" font-family="Helvetica,sans-Serif" font-size="10.00">/src/trigger/HSISourceModel.hpp</text>
</a>
</g>
</g>
<!-- Node12&#45;&gt;Node15 -->
<g id="edge20_Node000012_Node000015" class="edge">
<title>Node12&#45;&gt;Node15</title>
<g id="a_edge20_Node000012_Node000015"><a xlink:title=" ">
<path fill="none" stroke="#63b8ff" d="M1245.86,-369.14C1240.75,-368.14 1235.68,-367.16 1230.75,-366.25 1130.74,-347.72 1104.63,-349.46 1004.75,-330.25 996.6,-328.68 988.05,-326.91 979.62,-325.09"/>
<polygon fill="#63b8ff" stroke="#63b8ff" points="1245.08,-372.56 1255.57,-371.09 1246.46,-365.69 1245.08,-372.56"/>
</a>
</g>
</g>
<!-- Node16 -->
<g id="Node000016" class="node">
<title>Node16</title>
<g id="a_Node000016"><a xlink:href="TPSetSourceModel_8hpp.html" target="_top" xlink:title=" ">
<polygon fill="white" stroke="#666666" points="1181.88,-324.62 1013.62,-324.62 1013.62,-294.12 1181.88,-294.12 1181.88,-324.62"/>
<text text-anchor="start" x="1021.62" y="-311.12" font-family="Helvetica,sans-Serif" font-size="10.00">sourcecode/trigger</text>
<text text-anchor="middle" x="1097.75" y="-299.88" font-family="Helvetica,sans-Serif" font-size="10.00">/src/trigger/TPSetSourceModel.hpp</text>
</a>
</g>
</g>
<!-- Node12&#45;&gt;Node16 -->
<g id="edge21_Node000012_Node000016" class="edge">
<title>Node12&#45;&gt;Node16</title>
<g id="a_edge21_Node000012_Node000016"><a xlink:title=" ">
<path fill="none" stroke="#63b8ff" d="M1269.98,-367.85C1230.63,-354.72 1178.28,-337.25 1141.66,-325.03"/>
<polygon fill="#63b8ff" stroke="#63b8ff" points="1268.68,-371.11 1279.28,-370.95 1270.9,-364.47 1268.68,-371.11"/>
</a>
</g>
</g>
<!-- Node17 -->
<g id="Node000017" class="node">
<title>Node17</title>
<g id="a_Node000017"><a xlink:href="TriggerSourceModel_8hpp.html" target="_top" xlink:title=" ">
<polygon fill="white" stroke="#666666" points="1325.88,-330.25 1199.62,-330.25 1199.62,-288.5 1325.88,-288.5 1325.88,-330.25"/>
<text text-anchor="start" x="1207.62" y="-316.75" font-family="Helvetica,sans-Serif" font-size="10.00">sourcecode/trigger</text>
<text text-anchor="start" x="1207.62" y="-305.5" font-family="Helvetica,sans-Serif" font-size="10.00">/src/trigger/TriggerSource</text>
<text text-anchor="middle" x="1262.75" y="-294.25" font-family="Helvetica,sans-Serif" font-size="10.00">Model.hpp</text>
</a>
</g>
</g>
<!-- Node12&#45;&gt;Node17 -->
<g id="edge22_Node000012_Node000017" class="edge">
<title>Node12&#45;&gt;Node17</title>
<g id="a_edge22_Node000012_Node000017"><a xlink:title=" ">
<path fill="none" stroke="#63b8ff" d="M1305.56,-362.68C1297.17,-352.43 1287.43,-340.52 1279.35,-330.66"/>
<polygon fill="#63b8ff" stroke="#63b8ff" points="1302.79,-364.83 1311.84,-370.35 1308.21,-360.39 1302.79,-364.83"/>
</a>
</g>
</g>
<!-- Node14 -->
<g id="Node000014" class="node">
<title>Node14</title>
<g id="a_Node000014"><a xlink:href="HSIEventSender_8cpp.html" target="_top" xlink:title=" ">
<polygon fill="white" stroke="#666666" points="1493.88,-246.88 1367.62,-246.88 1367.62,-216.38 1493.88,-216.38 1493.88,-246.88"/>
<text text-anchor="start" x="1375.62" y="-233.38" font-family="Helvetica,sans-Serif" font-size="10.00">sourcecode/hsilibs</text>
<text text-anchor="middle" x="1430.75" y="-222.12" font-family="Helvetica,sans-Serif" font-size="10.00">/src/HSIEventSender.cpp</text>
</a>
</g>
</g>
<!-- Node13&#45;&gt;Node14 -->
<g id="edge19_Node000013_Node000014" class="edge">
<title>Node13&#45;&gt;Node14</title>
<g id="a_edge19_Node000013_Node000014"><a xlink:title=" ">
<path fill="none" stroke="#63b8ff" d="M1430.75,-282.35C1430.75,-270.59 1430.75,-257.13 1430.75,-247.19"/>
<polygon fill="#63b8ff" stroke="#63b8ff" points="1427.25,-282.26 1430.75,-292.26 1434.25,-282.26 1427.25,-282.26"/>
</a>
</g>
</g>
<!-- Node19&#45;&gt;Node11 -->
<g id="edge25_Node000019_Node000011" class="edge">
<title>Node19&#45;&gt;Node11</title>
<g id="a_edge25_Node000019_Node000011"><a xlink:title=" ">
<path fill="none" stroke="#63b8ff" d="M875.84,-366.35C859.21,-357.34 841.42,-345.28 828.75,-330.25 809.64,-307.59 799.46,-274.2 794.59,-252.94"/>
<polygon fill="#63b8ff" stroke="#63b8ff" points="874.16,-369.42 884.65,-370.88 877.36,-363.19 874.16,-369.42"/>
</a>
</g>
</g>
<!-- Node21 -->
<g id="Node000021" class="node">
<title>Node21</title>
<g id="a_Node000021"><a xlink:href="TriggerInhibitAgent_8hpp.html" target="_top" xlink:title=" ">
<polygon fill="white" stroke="#666666" points="1675.62,-330.25 1535.88,-330.25 1535.88,-288.5 1675.62,-288.5 1675.62,-330.25"/>
<text text-anchor="start" x="1543.88" y="-316.75" font-family="Helvetica,sans-Serif" font-size="10.00">sourcecode/dfmodules</text>
<text text-anchor="start" x="1543.88" y="-305.5" font-family="Helvetica,sans-Serif" font-size="10.00">/src/dfmodules/TriggerInhibit</text>
<text text-anchor="middle" x="1605.75" y="-294.25" font-family="Helvetica,sans-Serif" font-size="10.00">Agent.hpp</text>
</a>
</g>
</g>
<!-- Node20&#45;&gt;Node21 -->
<g id="edge27_Node000020_Node000021" class="edge">
<title>Node20&#45;&gt;Node21</title>
<g id="a_edge27_Node000020_Node000021"><a xlink:title=" ">
<path fill="none" stroke="#63b8ff" d="M1635.38,-356.18C1629.86,-347.64 1623.97,-338.55 1618.92,-330.73"/>
<polygon fill="#63b8ff" stroke="#63b8ff" points="1632.43,-358.06 1640.8,-364.55 1638.3,-354.26 1632.43,-358.06"/>
</a>
</g>
</g>
<!-- Node23 -->
<g id="Node000023" class="node">
<title>Node23</title>
<g id="a_Node000023"><a xlink:href="TriggerRecordBuilderData_8hpp.html" target="_top" xlink:title=" ">
<polygon fill="white" stroke="#666666" points="1837.88,-330.25 1693.62,-330.25 1693.62,-288.5 1837.88,-288.5 1837.88,-330.25"/>
<text text-anchor="start" x="1701.62" y="-316.75" font-family="Helvetica,sans-Serif" font-size="10.00">sourcecode/dfmodules</text>
<text text-anchor="start" x="1701.62" y="-305.5" font-family="Helvetica,sans-Serif" font-size="10.00">/src/dfmodules/TriggerRecord</text>
<text text-anchor="middle" x="1765.75" y="-294.25" font-family="Helvetica,sans-Serif" font-size="10.00">BuilderData.hpp</text>
</a>
</g>
</g>
<!-- Node20&#45;&gt;Node23 -->
<g id="edge29_Node000020_Node000023" class="edge">
<title>Node20&#45;&gt;Node23</title>
<g id="a_edge29_Node000020_Node000023"><a xlink:title=" ">
<path fill="none" stroke="#63b8ff" d="M1693.79,-359.48C1707.63,-350.04 1722.97,-339.57 1735.92,-330.73"/>
<polygon fill="#63b8ff" stroke="#63b8ff" points="1692.03,-356.44 1685.75,-364.97 1695.98,-362.23 1692.03,-356.44"/>
</a>
</g>
</g>
<!-- Node25 -->
<g id="Node000025" class="node">
<title>Node25</title>
<g id="a_Node000025"><a xlink:href="TCProcessor_8hpp.html" target="_top" xlink:title=" ">
<polygon fill="white" stroke="#666666" points="1996,-324.62 1855.5,-324.62 1855.5,-294.12 1996,-294.12 1996,-324.62"/>
<text text-anchor="start" x="1863.5" y="-311.12" font-family="Helvetica,sans-Serif" font-size="10.00">sourcecode/trigger</text>
<text text-anchor="middle" x="1925.75" y="-299.88" font-family="Helvetica,sans-Serif" font-size="10.00">/src/trigger/TCProcessor.hpp</text>
</a>
</g>
</g>
<!-- Node20&#45;&gt;Node25 -->
<g id="edge31_Node000020_Node000025" class="edge">
<title>Node20&#45;&gt;Node25</title>
<g id="a_edge31_Node000020_Node000025"><a xlink:title=" ">
<path fill="none" stroke="#63b8ff" d="M1735.37,-363.59C1780,-351.12 1834.18,-335.97 1873.32,-325.03"/>
<polygon fill="#63b8ff" stroke="#63b8ff" points="1734.69,-360.15 1726,-366.21 1736.57,-366.89 1734.69,-360.15"/>
</a>
</g>
</g>
<!-- Node22 -->
<g id="Node000022" class="node">
<title>Node22</title>
<g id="a_Node000022"><a xlink:href="TriggerInhibitAgent_8cpp.html" target="_top" xlink:title=" ">
<polygon fill="white" stroke="#666666" points="1667.38,-246.88 1532.12,-246.88 1532.12,-216.38 1667.38,-216.38 1667.38,-246.88"/>
<text text-anchor="start" x="1540.12" y="-233.38" font-family="Helvetica,sans-Serif" font-size="10.00">sourcecode/dfmodules</text>
<text text-anchor="middle" x="1599.75" y="-222.12" font-family="Helvetica,sans-Serif" font-size="10.00">/src/TriggerInhibitAgent.cpp</text>
</a>
</g>
</g>
<!-- Node21&#45;&gt;Node22 -->
<g id="edge28_Node000021_Node000022" class="edge">
<title>Node21&#45;&gt;Node22</title>
<g id="a_edge28_Node000021_Node000022"><a xlink:title=" ">
<path fill="none" stroke="#63b8ff" d="M1603.25,-276.81C1602.43,-266.44 1601.56,-255.42 1600.89,-246.98"/>
<polygon fill="#63b8ff" stroke="#63b8ff" points="1599.74,-276.87 1604.02,-286.57 1606.72,-276.32 1599.74,-276.87"/>
</a>
</g>
</g>
<!-- Node24 -->
<g id="Node000024" class="node">
<title>Node24</title>
<g id="a_Node000024"><a xlink:href="TriggerRecordBuilderData_8cpp.html" target="_top" xlink:title=" ">
<polygon fill="white" stroke="#666666" points="1850,-246.88 1685.5,-246.88 1685.5,-216.38 1850,-216.38 1850,-246.88"/>
<text text-anchor="start" x="1693.5" y="-233.38" font-family="Helvetica,sans-Serif" font-size="10.00">sourcecode/dfmodules</text>
<text text-anchor="middle" x="1767.75" y="-222.12" font-family="Helvetica,sans-Serif" font-size="10.00">/src/TriggerRecordBuilderData.cpp</text>
</a>
</g>
</g>
<!-- Node23&#45;&gt;Node24 -->
<g id="edge30_Node000023_Node000024" class="edge">
<title>Node23&#45;&gt;Node24</title>
<g id="a_edge30_Node000023_Node000024"><a xlink:title=" ">
<path fill="none" stroke="#63b8ff" d="M1766.58,-276.81C1766.86,-266.44 1767.15,-255.42 1767.37,-246.98"/>
<polygon fill="#63b8ff" stroke="#63b8ff" points="1763.09,-276.47 1766.33,-286.56 1770.09,-276.66 1763.09,-276.47"/>
</a>
</g>
</g>
<!-- Node26 -->
<g id="Node000026" class="node">
<title>Node26</title>
<g id="a_Node000026"><a xlink:href="TCProcessor_8cpp.html" target="_top" xlink:title=" ">
<polygon fill="white" stroke="#666666" points="1981,-246.88 1870.5,-246.88 1870.5,-216.38 1981,-216.38 1981,-246.88"/>
<text text-anchor="start" x="1878.5" y="-233.38" font-family="Helvetica,sans-Serif" font-size="10.00">sourcecode/trigger</text>
<text text-anchor="middle" x="1925.75" y="-222.12" font-family="Helvetica,sans-Serif" font-size="10.00">/src/TCProcessor.cpp</text>
</a>
</g>
</g>
<!-- Node25&#45;&gt;Node26 -->
<g id="edge32_Node000025_Node000026" class="edge">
<title>Node25&#45;&gt;Node26</title>
<g id="a_edge32_Node000025_Node000026"><a xlink:title=" ">
<path fill="none" stroke="#63b8ff" d="M1925.75,-282.35C1925.75,-270.59 1925.75,-257.13 1925.75,-247.19"/>
<polygon fill="#63b8ff" stroke="#63b8ff" points="1922.25,-282.26 1925.75,-292.26 1929.25,-282.26 1922.25,-282.26"/>
</a>
</g>
</g>
<!-- Node27&#45;&gt;Node28 -->
<g id="edge34_Node000027_Node000028" class="edge">
<title>Node27&#45;&gt;Node28</title>
<g id="a_edge34_Node000027_Node000028"><a xlink:title=" ">
<path fill="none" stroke="#63b8ff" d="M1924.84,-362.44C1963.09,-350.22 2008.56,-335.68 2041.73,-325.08"/>
<polygon fill="#63b8ff" stroke="#63b8ff" points="1924.16,-358.99 1915.7,-365.36 1926.29,-365.65 1924.16,-358.99"/>
</a>
</g>
</g>
<!-- Node29 -->
<g id="Node000029" class="node">
<title>Node29</title>
<g id="a_Node000029"><a xlink:href="TokenManager_8cpp.html" target="_top" xlink:title=" ">
<polygon fill="white" stroke="#666666" points="2146.75,-246.88 2028.75,-246.88 2028.75,-216.38 2146.75,-216.38 2146.75,-246.88"/>
<text text-anchor="start" x="2036.75" y="-233.38" font-family="Helvetica,sans-Serif" font-size="10.00">sourcecode/trigger</text>
<text text-anchor="middle" x="2087.75" y="-222.12" font-family="Helvetica,sans-Serif" font-size="10.00">/src/TokenManager.cpp</text>
</a>
</g>
</g>
<!-- Node28&#45;&gt;Node29 -->
<g id="edge35_Node000028_Node000029" class="edge">
<title>Node28&#45;&gt;Node29</title>
<g id="a_edge35_Node000028_Node000029"><a xlink:title=" ">
<path fill="none" stroke="#63b8ff" d="M2087.75,-282.35C2087.75,-270.59 2087.75,-257.13 2087.75,-247.19"/>
<polygon fill="#63b8ff" stroke="#63b8ff" points="2084.25,-282.26 2087.75,-292.26 2091.25,-282.26 2084.25,-282.26"/>
</a>
</g>
</g>
<!-- Node30&#45;&gt;Node21 -->
<g id="edge37_Node000030_Node000021" class="edge">
<title>Node30&#45;&gt;Node21</title>
<g id="a_edge37_Node000030_Node000021"><a xlink:title=" ">
<path fill="none" stroke="#63b8ff" d="M1535.73,-359.48C1549.2,-350.04 1564.13,-339.57 1576.73,-330.73"/>
<polygon fill="#63b8ff" stroke="#63b8ff" points="1534.11,-356.35 1527.93,-364.96 1538.13,-362.08 1534.11,-356.35"/>
</a>
</g>
</g>
</g>
</svg>
