<?xml version="1.0" encoding="UTF-8" standalone="no"?>
<!DOCTYPE svg PUBLIC "-//W3C//DTD SVG 1.1//EN"
 "http://www.w3.org/Graphics/SVG/1.1/DTD/svg11.dtd">
<!-- Generated by graphviz version 9.0.0 (20230911.1827)
 -->
<!-- Title: sourcecode/listrev Pages: 1 -->
<svg width="300pt" height="142pt"
 viewBox="0.00 0.00 300.00 141.75" xmlns="http://www.w3.org/2000/svg" xmlns:xlink="http://www.w3.org/1999/xlink">
<g id="graph0" class="graph" transform="scale(1 1) rotate(0) translate(4 137.75)">
<title>sourcecode/listrev</title>
<g id="clust1" class="cluster">
<title>clusterdir_b89c6037bfefa0e5d020a7058f32a811</title>
<g id="a_clust1"><a xlink:href="dir_b89c6037bfefa0e5d020a7058f32a811.html" target="_top" xlink:title="sourcecode">
<polygon fill="#edf0f7" stroke="#404040" stroke-dasharray="5,2" points="8,-8 8,-125.75 284,-125.75 284,-8 8,-8"/>
<text text-anchor="middle" x="146" y="-112.25" font-family="Helvetica,sans-Serif" font-size="10.00">sourcecode</text>
</a>
</g>
</g>
<g id="clust2" class="cluster">
<title>clusterdir_a082e565cc3ff351ef2d7776c903c1f0</title>
<g id="a_clust2"><a xlink:href="dir_a082e565cc3ff351ef2d7776c903c1f0.html" target="_top">
<polygon fill="#edf0f7" stroke="#404040" stroke-width="2" points="52,-63.25 52,-98.5 276,-98.5 276,-63.25 52,-63.25"/>
</a>
</g>
</g>
<!-- dir_21f361739d8867751cd2763b9903b707 -->
<g id="node1" class="node">
<title>dir_21f361739d8867751cd2763b9903b707</title>
<g id="a_node1"><a xlink:href="dir_21f361739d8867751cd2763b9903b707.html" target="_top" xlink:title="appfwk">
<polygon fill="#a2b4d6" stroke="red" points="63.75,-35.25 16.25,-35.25 16.25,-16 63.75,-16 63.75,-35.25"/>
<text text-anchor="middle" x="40" y="-21.75" font-family="Helvetica,sans-Serif" font-size="10.00">appfwk</text>
</a>
</g>
</g>
<!-- dir_0a1713e4fb81d523db81c567ef556d2d -->
<g id="node2" class="node">
<title>dir_0a1713e4fb81d523db81c567ef556d2d</title>
<g id="a_node2"><a xlink:href="dir_0a1713e4fb81d523db81c567ef556d2d.html" target="_top" xlink:title="ers">
<polygon fill="#a2b4d6" stroke="red" points="111.75,-35.25 82.25,-35.25 82.25,-16 111.75,-16 111.75,-35.25"/>
<text text-anchor="middle" x="97" y="-21.75" font-family="Helvetica,sans-Serif" font-size="10.00">ers</text>
</a>
</g>
</g>
<!-- dir_b620d3bc325baca79d772d7a5b5e4e14 -->
<g id="node3" class="node">
<title>dir_b620d3bc325baca79d772d7a5b5e4e14</title>
<g id="a_node3"><a xlink:href="dir_b620d3bc325baca79d772d7a5b5e4e14.html" target="_top" xlink:title="iomanager">
<polygon fill="#a2b4d6" stroke="red" points="190.5,-35.25 129.5,-35.25 129.5,-16 190.5,-16 190.5,-35.25"/>
<text text-anchor="middle" x="160" y="-21.75" font-family="Helvetica,sans-Serif" font-size="10.00">iomanager</text>
</a>
</g>
</g>
<!-- dir_aae5e3cd3f43e577e96215716dce9c16 -->
<g id="node4" class="node">
<title>dir_aae5e3cd3f43e577e96215716dce9c16</title>
<g id="a_node4"><a xlink:href="dir_aae5e3cd3f43e577e96215716dce9c16.html" target="_top" xlink:title="serialization">
<polygon fill="#a2b4d6" stroke="red" points="275.5,-35.25 208.5,-35.25 208.5,-16 275.5,-16 275.5,-35.25"/>
<text text-anchor="middle" x="242" y="-21.75" font-family="Helvetica,sans-Serif" font-size="10.00">serialization</text>
</a>
</g>
</g>
<!-- dir_a082e565cc3ff351ef2d7776c903c1f0 -->
<g id="node5" class="node">
<title>dir_a082e565cc3ff351ef2d7776c903c1f0</title>
<text text-anchor="middle" x="247" y="-77" font-family="Helvetica,sans-Serif" font-size="10.00">listrev</text>
</g>
<!-- dir_4989233750eb4e4fd1e5a906d8237ffc -->
<g id="node6" class="node">
<title>dir_4989233750eb4e4fd1e5a906d8237ffc</title>
<g id="a_node6"><a xlink:href="dir_4989233750eb4e4fd1e5a906d8237ffc.html" target="_top" xlink:title="docs">
<polygon fill="#a2b4d6" stroke="#404040" points="207.5,-90.5 170.5,-90.5 170.5,-71.25 207.5,-71.25 207.5,-90.5"/>
<text text-anchor="middle" x="189" y="-77" font-family="Helvetica,sans-Serif" font-size="10.00">docs</text>
</a>
</g>
</g>
<!-- dir_3bad3220eb85ad491ed6e73937c95af5 -->
<g id="node7" class="node">
<title>dir_3bad3220eb85ad491ed6e73937c95af5</title>
<g id="a_node7"><a xlink:href="dir_3bad3220eb85ad491ed6e73937c95af5.html" target="_top" xlink:title="python">
<polygon fill="#a2b4d6" stroke="#404040" points="152.25,-90.5 107.75,-90.5 107.75,-71.25 152.25,-71.25 152.25,-90.5"/>
<text text-anchor="middle" x="130" y="-77" font-family="Helvetica,sans-Serif" font-size="10.00">python</text>
</a>
</g>
</g>
<!-- dir_331c54e5c821bbdc094a001814b974e0 -->
<g id="node8" class="node">
<title>dir_331c54e5c821bbdc094a001814b974e0</title>
<g id="a_node8"><a xlink:href="dir_331c54e5c821bbdc094a001814b974e0.html" target="_top" xlink:title="src">
<polygon fill="#a2b4d6" stroke="#404040" points="89.75,-90.5 60.25,-90.5 60.25,-71.25 89.75,-71.25 89.75,-90.5"/>
<text text-anchor="middle" x="75" y="-77" font-family="Helvetica,sans-Serif" font-size="10.00">src</text>
</a>
</g>
</g>
<!-- dir_331c54e5c821bbdc094a001814b974e0&#45;&gt;dir_21f361739d8867751cd2763b9903b707 -->
<g id="edge2" class="edge">
<title>dir_331c54e5c821bbdc094a001814b974e0&#45;&gt;dir_21f361739d8867751cd2763b9903b707</title>
<g id="a_edge2"><a xlink:href="dir_000253_000005.html" target="_top">
<path fill="none" stroke="#63b8ff" d="M69.22,-71.08C64.59,-64.03 57.93,-53.9 52.13,-45.08"/>
<polygon fill="#63b8ff" stroke="#63b8ff" points="55.15,-43.31 46.74,-36.87 49.3,-47.15 55.15,-43.31"/>
</a>
</g>
<g id="a_edge2&#45;headlabel"><a xlink:href="dir_000253_000005.html" target="_top" xlink:title="1">
<text text-anchor="middle" x="58.67" y="-39.61" font-family="Helvetica,sans-Serif" font-size="10.00" fill="#63b8ff">1</text>
</a>
</g>
</g>
<!-- dir_331c54e5c821bbdc094a001814b974e0&#45;&gt;dir_0a1713e4fb81d523db81c567ef556d2d -->
<g id="edge1" class="edge">
<title>dir_331c54e5c821bbdc094a001814b974e0&#45;&gt;dir_0a1713e4fb81d523db81c567ef556d2d</title>
<g id="a_edge1"><a xlink:href="dir_000253_000103.html" target="_top">
<path fill="none" stroke="#63b8ff" d="M78.63,-71.08C81.42,-64.34 85.37,-54.77 88.9,-46.24"/>
<polygon fill="#63b8ff" stroke="#63b8ff" points="92.13,-47.59 92.71,-37.01 85.66,-44.91 92.13,-47.59"/>
</a>
</g>
<g id="a_edge1&#45;headlabel"><a xlink:href="dir_000253_000103.html" target="_top" xlink:title="1">
<text text-anchor="middle" x="93.96" y="-46.72" font-family="Helvetica,sans-Serif" font-size="10.00" fill="#63b8ff">1</text>
</a>
</g>
</g>
<!-- dir_331c54e5c821bbdc094a001814b974e0&#45;&gt;dir_b620d3bc325baca79d772d7a5b5e4e14 -->
<g id="edge4" class="edge">
<title>dir_331c54e5c821bbdc094a001814b974e0&#45;&gt;dir_b620d3bc325baca79d772d7a5b5e4e14</title>
<g id="a_edge4"><a xlink:href="dir_000253_000156.html" target="_top">
<path fill="none" stroke="#63b8ff" d="M87.6,-70.92C91.25,-68.39 95.25,-65.67 99,-63.25 110.48,-55.84 123.43,-47.99 134.44,-41.47"/>
<polygon fill="#63b8ff" stroke="#63b8ff" points="136.13,-44.53 142.98,-36.45 132.58,-38.5 136.13,-44.53"/>
</a>
</g>
<g id="a_edge4&#45;headlabel"><a xlink:href="dir_000253_000156.html" target="_top" xlink:title="2">
<text text-anchor="middle" x="135.78" y="-44.16" font-family="Helvetica,sans-Serif" font-size="10.00" fill="#63b8ff">2</text>
</a>
</g>
</g>
<!-- dir_331c54e5c821bbdc094a001814b974e0&#45;&gt;dir_aae5e3cd3f43e577e96215716dce9c16 -->
<g id="edge3" class="edge">
<title>dir_331c54e5c821bbdc094a001814b974e0&#45;&gt;dir_aae5e3cd3f43e577e96215716dce9c16</title>
<g id="a_edge3"><a xlink:href="dir_000253_000234.html" target="_top">
<path fill="none" stroke="#63b8ff" d="M86.22,-70.88C90.09,-68.11 94.57,-65.27 99,-63.25 116.41,-55.3 162.17,-44.16 197.28,-36.26"/>
<polygon fill="#63b8ff" stroke="#63b8ff" points="197.78,-39.74 206.78,-34.15 196.26,-32.9 197.78,-39.74"/>
</a>
</g>
<g id="a_edge3&#45;headlabel"><a xlink:href="dir_000253_000234.html" target="_top" xlink:title="1">
<text text-anchor="middle" x="196.36" y="-39.09" font-family="Helvetica,sans-Serif" font-size="10.00" fill="#63b8ff">1</text>
</a>
</g>
</g>
</g>
</svg>
