<?xml version="1.0" encoding="UTF-8" standalone="no"?>
<!DOCTYPE svg PUBLIC "-//W3C//DTD SVG 1.1//EN"
 "http://www.w3.org/Graphics/SVG/1.1/DTD/svg11.dtd">
<!-- Generated by graphviz version 9.0.0 (20230911.1827)
 -->
<!-- Title: sourcecode/readoutlibs/include/readoutlibs Pages: 1 -->
<svg width="654pt" height="236pt"
 viewBox="0.00 0.00 654.46 236.25" xmlns="http://www.w3.org/2000/svg" xmlns:xlink="http://www.w3.org/1999/xlink">
<g id="graph0" class="graph" transform="scale(1 1) rotate(0) translate(4 232.25)">
<title>sourcecode/readoutlibs/include/readoutlibs</title>
<g id="clust1" class="cluster">
<title>clusterdir_f6c53b07ac1baecf94d794e6bbc6ad71</title>
<g id="a_clust1"><a xlink:href="dir_f6c53b07ac1baecf94d794e6bbc6ad71.html" target="_top" xlink:title="include">
<polygon fill="#edf0f7" stroke="#7f7f7f" stroke-dasharray="5,2" points="158.71,-39.25 158.71,-220.25 324.71,-220.25 324.71,-39.25 158.71,-39.25"/>
<text text-anchor="middle" x="241.71" y="-206.75" font-family="Helvetica,sans-Serif" font-size="10.00">include</text>
</a>
</g>
</g>
<g id="clust2" class="cluster">
<title>clusterdir_227aeb348cd86241b197b5a0ea1eecbd</title>
<g id="a_clust2"><a xlink:href="dir_227aeb348cd86241b197b5a0ea1eecbd.html" target="_top">
<polygon fill="#edf0f7" stroke="#404040" stroke-width="2" points="166.71,-47.25 166.71,-193 316.71,-193 316.71,-47.25 166.71,-47.25"/>
</a>
</g>
</g>
<!-- dir_227aeb348cd86241b197b5a0ea1eecbd -->
<g id="node1" class="node">
<title>dir_227aeb348cd86241b197b5a0ea1eecbd</title>
<text text-anchor="middle" x="276.71" y="-171.5" font-family="Helvetica,sans-Serif" font-size="10.00">readoutlibs</text>
</g>
<!-- dir_b87484ef8568bb4b9571d26d28e34cc7 -->
<g id="node3" class="node">
<title>dir_b87484ef8568bb4b9571d26d28e34cc7</title>
<g id="a_node3"><a xlink:href="dir_b87484ef8568bb4b9571d26d28e34cc7.html" target="_top" xlink:title="detail">
<polygon fill="#a2b4d6" stroke="#404040" points="308.33,-129.75 269.08,-129.75 269.08,-110.5 308.33,-110.5 308.33,-129.75"/>
<text text-anchor="middle" x="288.71" y="-116.25" font-family="Helvetica,sans-Serif" font-size="10.00">detail</text>
</a>
</g>
</g>
<!-- dir_227aeb348cd86241b197b5a0ea1eecbd&#45;&gt;dir_b87484ef8568bb4b9571d26d28e34cc7 -->
<g id="edge2" class="edge">
<title>dir_227aeb348cd86241b197b5a0ea1eecbd&#45;&gt;dir_b87484ef8568bb4b9571d26d28e34cc7</title>
<g id="a_edge2"><a xlink:href="dir_000222_000051.html" target="_top">
<path fill="none" stroke="#63b8ff" d="M278.58,-166.05C280.09,-159.37 282.26,-149.71 284.21,-141.06"/>
<polygon fill="#63b8ff" stroke="#63b8ff" points="287.61,-141.92 286.39,-131.39 280.78,-140.38 287.61,-141.92"/>
</a>
</g>
<g id="a_edge2&#45;headlabel"><a xlink:href="dir_000222_000051.html" target="_top" xlink:title="1">
<text text-anchor="middle" x="289.92" y="-140.7" font-family="Helvetica,sans-Serif" font-size="10.00" fill="#63b8ff">1</text>
</a>
</g>
</g>
<!-- dir_0a1713e4fb81d523db81c567ef556d2d -->
<g id="node6" class="node">
<title>dir_0a1713e4fb81d523db81c567ef556d2d</title>
<g id="a_node6"><a xlink:href="dir_0a1713e4fb81d523db81c567ef556d2d.html" target="_top" xlink:title="ers">
<polygon fill="#edf0f7" stroke="red" stroke-dasharray="5,2" points="546.46,-129.75 516.96,-129.75 516.96,-110.5 546.46,-110.5 546.46,-129.75"/>
<text text-anchor="middle" x="531.71" y="-116.25" font-family="Helvetica,sans-Serif" font-size="10.00">ers</text>
</a>
</g>
</g>
<!-- dir_227aeb348cd86241b197b5a0ea1eecbd&#45;&gt;dir_0a1713e4fb81d523db81c567ef556d2d -->
<g id="edge1" class="edge">
<title>dir_227aeb348cd86241b197b5a0ea1eecbd&#45;&gt;dir_0a1713e4fb81d523db81c567ef556d2d</title>
<g id="a_edge1"><a xlink:href="dir_000222_000103.html" target="_top">
<path fill="none" stroke="#63b8ff" d="M307.98,-169.16C351.79,-161.64 433.79,-146.76 502.71,-129.75 503.71,-129.5 504.73,-129.24 505.76,-128.97"/>
<polygon fill="#63b8ff" stroke="#63b8ff" points="506.6,-132.37 515.27,-126.28 504.7,-125.63 506.6,-132.37"/>
</a>
</g>
<g id="a_edge1&#45;headlabel"><a xlink:href="dir_000222_000103.html" target="_top" xlink:title="1">
<text text-anchor="middle" x="505.37" y="-131.79" font-family="Helvetica,sans-Serif" font-size="10.00" fill="#63b8ff">1</text>
</a>
</g>
</g>
<!-- dir_d825b831d5f4002527e46bb27072c2b3 -->
<g id="node12" class="node">
<title>dir_d825b831d5f4002527e46bb27072c2b3</title>
<g id="a_node12"><a xlink:href="dir_d825b831d5f4002527e46bb27072c2b3.html" target="_top" xlink:title="logging">
<polygon fill="#edf0f7" stroke="red" stroke-dasharray="5,2" points="188.08,-19.25 141.33,-19.25 141.33,0 188.08,0 188.08,-19.25"/>
<text text-anchor="middle" x="164.71" y="-5.75" font-family="Helvetica,sans-Serif" font-size="10.00">logging</text>
</a>
</g>
</g>
<!-- dir_227aeb348cd86241b197b5a0ea1eecbd&#45;&gt;dir_d825b831d5f4002527e46bb27072c2b3 -->
<g id="edge3" class="edge">
<title>dir_227aeb348cd86241b197b5a0ea1eecbd&#45;&gt;dir_d825b831d5f4002527e46bb27072c2b3</title>
<g id="a_edge3"><a xlink:href="dir_000222_000164.html" target="_top">
<path fill="none" stroke="#63b8ff" d="M245.39,-166.9C225.23,-160.44 200.19,-149.02 185.71,-129.75 163.79,-100.6 161.94,-56.18 163.02,-30.62"/>
<polygon fill="#63b8ff" stroke="#63b8ff" points="166.5,-31.16 163.64,-20.96 159.51,-30.71 166.5,-31.16"/>
</a>
</g>
<g id="a_edge3&#45;headlabel"><a xlink:href="dir_000222_000164.html" target="_top" xlink:title="14">
<text text-anchor="middle" x="169.2" y="-29.54" font-family="Helvetica,sans-Serif" font-size="10.00" fill="#63b8ff">14</text>
</a>
</g>
</g>
<!-- dir_f38c03f336a0b3deec81b9cab2eb45b9 -->
<g id="node13" class="node">
<title>dir_f38c03f336a0b3deec81b9cab2eb45b9</title>
<g id="a_node13"><a xlink:href="dir_f38c03f336a0b3deec81b9cab2eb45b9.html" target="_top" xlink:title="daqdataformats">
<polygon fill="#edf0f7" stroke="red" stroke-dasharray="5,2" points="646.46,-74.5 562.96,-74.5 562.96,-55.25 646.46,-55.25 646.46,-74.5"/>
<text text-anchor="middle" x="604.71" y="-61" font-family="Helvetica,sans-Serif" font-size="10.00">daqdataformats</text>
</a>
</g>
</g>
<!-- dir_227aeb348cd86241b197b5a0ea1eecbd&#45;&gt;dir_f38c03f336a0b3deec81b9cab2eb45b9 -->
<g id="edge4" class="edge">
<title>dir_227aeb348cd86241b197b5a0ea1eecbd&#45;&gt;dir_f38c03f336a0b3deec81b9cab2eb45b9</title>
<g id="a_edge4"><a xlink:href="dir_000222_000033.html" target="_top">
<path fill="none" stroke="#63b8ff" d="M308.17,-168.85C345.94,-161.78 410.92,-148.2 464.71,-129.75 467.52,-128.78 534.23,-98.22 574.53,-79.73"/>
<polygon fill="#63b8ff" stroke="#63b8ff" points="575.88,-82.96 583.5,-75.61 572.96,-76.6 575.88,-82.96"/>
</a>
</g>
<g id="a_edge4&#45;headlabel"><a xlink:href="dir_000222_000033.html" target="_top" xlink:title="9">
<text text-anchor="middle" x="575.17" y="-82.54" font-family="Helvetica,sans-Serif" font-size="10.00" fill="#63b8ff">9</text>
</a>
</g>
</g>
<!-- dir_1313a9ca06b78a4a4f91d64ab14f0740 -->
<g id="node2" class="node">
<title>dir_1313a9ca06b78a4a4f91d64ab14f0740</title>
<g id="a_node2"><a xlink:href="dir_1313a9ca06b78a4a4f91d64ab14f0740.html" target="_top" xlink:title="concepts">
<polygon fill="#a2b4d6" stroke="#404040" points="250.58,-129.75 194.83,-129.75 194.83,-110.5 250.58,-110.5 250.58,-129.75"/>
<text text-anchor="middle" x="222.71" y="-116.25" font-family="Helvetica,sans-Serif" font-size="10.00">concepts</text>
</a>
</g>
</g>
<!-- dir_730131df764644422a201fb47d5e66b9 -->
<g id="node5" class="node">
<title>dir_730131df764644422a201fb47d5e66b9</title>
<g id="a_node5"><a xlink:href="dir_730131df764644422a201fb47d5e66b9.html" target="_top" xlink:title="utils">
<polygon fill="#a2b4d6" stroke="#404040" points="226.71,-74.5 192.71,-74.5 192.71,-55.25 226.71,-55.25 226.71,-74.5"/>
<text text-anchor="middle" x="209.71" y="-61" font-family="Helvetica,sans-Serif" font-size="10.00">utils</text>
</a>
</g>
</g>
<!-- dir_1313a9ca06b78a4a4f91d64ab14f0740&#45;&gt;dir_730131df764644422a201fb47d5e66b9 -->
<g id="edge7" class="edge">
<title>dir_1313a9ca06b78a4a4f91d64ab14f0740&#45;&gt;dir_730131df764644422a201fb47d5e66b9</title>
<g id="a_edge7"><a xlink:href="dir_000024_000289.html" target="_top">
<path fill="none" stroke="#63b8ff" d="M220.56,-110.33C218.93,-103.67 216.63,-94.24 214.57,-85.78"/>
<polygon fill="#63b8ff" stroke="#63b8ff" points="218.03,-85.21 212.26,-76.33 211.23,-86.87 218.03,-85.21"/>
</a>
</g>
<g id="a_edge7&#45;headlabel"><a xlink:href="dir_000024_000289.html" target="_top" xlink:title="3">
<text text-anchor="middle" x="221.28" y="-82.69" font-family="Helvetica,sans-Serif" font-size="10.00" fill="#63b8ff">3</text>
</a>
</g>
</g>
<!-- dir_21f361739d8867751cd2763b9903b707 -->
<g id="node7" class="node">
<title>dir_21f361739d8867751cd2763b9903b707</title>
<g id="a_node7"><a xlink:href="dir_21f361739d8867751cd2763b9903b707.html" target="_top" xlink:title="appfwk">
<polygon fill="#edf0f7" stroke="red" stroke-dasharray="5,2" points="63.46,-74.5 15.96,-74.5 15.96,-55.25 63.46,-55.25 63.46,-74.5"/>
<text text-anchor="middle" x="39.71" y="-61" font-family="Helvetica,sans-Serif" font-size="10.00">appfwk</text>
</a>
</g>
</g>
<!-- dir_1313a9ca06b78a4a4f91d64ab14f0740&#45;&gt;dir_21f361739d8867751cd2763b9903b707 -->
<g id="edge5" class="edge">
<title>dir_1313a9ca06b78a4a4f91d64ab14f0740&#45;&gt;dir_21f361739d8867751cd2763b9903b707</title>
<g id="a_edge5"><a xlink:href="dir_000024_000005.html" target="_top">
<path fill="none" stroke="#63b8ff" d="M194.51,-110.92C162.22,-101.52 109.28,-86.12 74.46,-75.99"/>
<polygon fill="#63b8ff" stroke="#63b8ff" points="75.87,-72.75 65.29,-73.32 73.91,-79.47 75.87,-72.75"/>
</a>
</g>
<g id="a_edge5&#45;headlabel"><a xlink:href="dir_000024_000005.html" target="_top" xlink:title="1">
<text text-anchor="middle" x="78.66" y="-66.73" font-family="Helvetica,sans-Serif" font-size="10.00" fill="#63b8ff">1</text>
</a>
</g>
</g>
<!-- dir_54a85b0ba73149a656becc2d555f9f9e -->
<g id="node8" class="node">
<title>dir_54a85b0ba73149a656becc2d555f9f9e</title>
<g id="a_node8"><a xlink:href="dir_54a85b0ba73149a656becc2d555f9f9e.html" target="_top" xlink:title="opmonlib">
<polygon fill="#edf0f7" stroke="red" stroke-dasharray="5,2" points="136.21,-74.5 81.21,-74.5 81.21,-55.25 136.21,-55.25 136.21,-74.5"/>
<text text-anchor="middle" x="108.71" y="-61" font-family="Helvetica,sans-Serif" font-size="10.00">opmonlib</text>
</a>
</g>
</g>
<!-- dir_1313a9ca06b78a4a4f91d64ab14f0740&#45;&gt;dir_54a85b0ba73149a656becc2d555f9f9e -->
<g id="edge6" class="edge">
<title>dir_1313a9ca06b78a4a4f91d64ab14f0740&#45;&gt;dir_54a85b0ba73149a656becc2d555f9f9e</title>
<g id="a_edge6"><a xlink:href="dir_000024_000183.html" target="_top">
<path fill="none" stroke="#63b8ff" d="M203.37,-110.09C185.6,-101.79 158.99,-89.36 138.5,-79.79"/>
<polygon fill="#63b8ff" stroke="#63b8ff" points="140.05,-76.65 129.51,-75.59 137.09,-83 140.05,-76.65"/>
</a>
</g>
<g id="a_edge6&#45;headlabel"><a xlink:href="dir_000024_000183.html" target="_top" xlink:title="5">
<text text-anchor="middle" x="143.14" y="-71.09" font-family="Helvetica,sans-Serif" font-size="10.00" fill="#63b8ff">5</text>
</a>
</g>
</g>
<!-- dir_92ed34f07df7a82417c7be964d3002da -->
<g id="node9" class="node">
<title>dir_92ed34f07df7a82417c7be964d3002da</title>
<g id="a_node9"><a xlink:href="dir_92ed34f07df7a82417c7be964d3002da.html" target="_top" xlink:title="dfmessages">
<polygon fill="#edf0f7" stroke="red" stroke-dasharray="5,2" points="466.33,-74.5 397.08,-74.5 397.08,-55.25 466.33,-55.25 466.33,-74.5"/>
<text text-anchor="middle" x="431.71" y="-61" font-family="Helvetica,sans-Serif" font-size="10.00">dfmessages</text>
</a>
</g>
</g>
<!-- dir_1313a9ca06b78a4a4f91d64ab14f0740&#45;&gt;dir_92ed34f07df7a82417c7be964d3002da -->
<g id="edge8" class="edge">
<title>dir_1313a9ca06b78a4a4f91d64ab14f0740&#45;&gt;dir_92ed34f07df7a82417c7be964d3002da</title>
<g id="a_edge8"><a xlink:href="dir_000024_000064.html" target="_top">
<path fill="none" stroke="#63b8ff" d="M250.89,-111.94C285.42,-103.15 344.38,-88.12 385.56,-77.63"/>
<polygon fill="#63b8ff" stroke="#63b8ff" points="386.37,-81.04 395.2,-75.18 384.64,-74.25 386.37,-81.04"/>
</a>
</g>
<g id="a_edge8&#45;headlabel"><a xlink:href="dir_000024_000064.html" target="_top" xlink:title="1">
<text text-anchor="middle" x="385.05" y="-80.43" font-family="Helvetica,sans-Serif" font-size="10.00" fill="#63b8ff">1</text>
</a>
</g>
</g>
<!-- dir_b620d3bc325baca79d772d7a5b5e4e14 -->
<g id="node10" class="node">
<title>dir_b620d3bc325baca79d772d7a5b5e4e14</title>
<g id="a_node10"><a xlink:href="dir_b620d3bc325baca79d772d7a5b5e4e14.html" target="_top" xlink:title="iomanager">
<polygon fill="#edf0f7" stroke="red" stroke-dasharray="5,2" points="545.21,-74.5 484.21,-74.5 484.21,-55.25 545.21,-55.25 545.21,-74.5"/>
<text text-anchor="middle" x="514.71" y="-61" font-family="Helvetica,sans-Serif" font-size="10.00">iomanager</text>
</a>
</g>
</g>
<!-- dir_1313a9ca06b78a4a4f91d64ab14f0740&#45;&gt;dir_b620d3bc325baca79d772d7a5b5e4e14 -->
<g id="edge9" class="edge">
<title>dir_1313a9ca06b78a4a4f91d64ab14f0740&#45;&gt;dir_b620d3bc325baca79d772d7a5b5e4e14</title>
<g id="a_edge9"><a xlink:href="dir_000024_000156.html" target="_top">
<path fill="none" stroke="#63b8ff" d="M250.95,-112.35C253.9,-111.7 256.86,-111.07 259.71,-110.5 351.6,-92.15 378.2,-92.93 472.83,-74.97"/>
<polygon fill="#63b8ff" stroke="#63b8ff" points="473.43,-78.42 482.59,-73.09 472.11,-71.54 473.43,-78.42"/>
</a>
</g>
<g id="a_edge9&#45;headlabel"><a xlink:href="dir_000024_000156.html" target="_top" xlink:title="1">
<text text-anchor="middle" x="471.93" y="-77.72" font-family="Helvetica,sans-Serif" font-size="10.00" fill="#63b8ff">1</text>
</a>
</g>
</g>
<!-- dir_bd573d70419336b23551d1d967e5b64a -->
<g id="node11" class="node">
<title>dir_bd573d70419336b23551d1d967e5b64a</title>
<g id="a_node11"><a xlink:href="dir_bd573d70419336b23551d1d967e5b64a.html" target="_top" xlink:title="utilities">
<polygon fill="#edf0f7" stroke="red" stroke-dasharray="5,2" points="379.08,-74.5 332.33,-74.5 332.33,-55.25 379.08,-55.25 379.08,-74.5"/>
<text text-anchor="middle" x="355.71" y="-61" font-family="Helvetica,sans-Serif" font-size="10.00">utilities</text>
</a>
</g>
</g>
<!-- dir_1313a9ca06b78a4a4f91d64ab14f0740&#45;&gt;dir_bd573d70419336b23551d1d967e5b64a -->
<g id="edge10" class="edge">
<title>dir_1313a9ca06b78a4a4f91d64ab14f0740&#45;&gt;dir_bd573d70419336b23551d1d967e5b64a</title>
<g id="a_edge10"><a xlink:href="dir_000024_000287.html" target="_top">
<path fill="none" stroke="#63b8ff" d="M245.27,-110.09C266.48,-101.6 298.48,-88.79 322.58,-79.14"/>
<polygon fill="#63b8ff" stroke="#63b8ff" points="323.65,-82.48 331.63,-75.52 321.04,-75.98 323.65,-82.48"/>
</a>
</g>
<g id="a_edge10&#45;headlabel"><a xlink:href="dir_000024_000287.html" target="_top" xlink:title="1">
<text text-anchor="middle" x="322.77" y="-82.02" font-family="Helvetica,sans-Serif" font-size="10.00" fill="#63b8ff">1</text>
</a>
</g>
</g>
<!-- dir_1313a9ca06b78a4a4f91d64ab14f0740&#45;&gt;dir_f38c03f336a0b3deec81b9cab2eb45b9 -->
<g id="edge11" class="edge">
<title>dir_1313a9ca06b78a4a4f91d64ab14f0740&#45;&gt;dir_f38c03f336a0b3deec81b9cab2eb45b9</title>
<g id="a_edge11"><a xlink:href="dir_000024_000033.html" target="_top">
<path fill="none" stroke="#63b8ff" d="M250.92,-112.22C253.88,-111.59 256.85,-111.01 259.71,-110.5 386.21,-88.1 422.08,-93.41 551.57,-74.89"/>
<polygon fill="#63b8ff" stroke="#63b8ff" points="551.83,-78.39 561.22,-73.49 550.82,-71.46 551.83,-78.39"/>
</a>
</g>
<g id="a_edge11&#45;headlabel"><a xlink:href="dir_000024_000033.html" target="_top" xlink:title="2">
<text text-anchor="middle" x="550.18" y="-77.63" font-family="Helvetica,sans-Serif" font-size="10.00" fill="#63b8ff">2</text>
</a>
</g>
</g>
<!-- dir_a1315fb0f7dada5f1d02a2469b07896c -->
<g id="node4" class="node">
<title>dir_a1315fb0f7dada5f1d02a2469b07896c</title>
<g id="a_node4"><a xlink:href="dir_a1315fb0f7dada5f1d02a2469b07896c.html" target="_top" xlink:title="models">
<polygon fill="#a2b4d6" stroke="#404040" points="227.46,-185 179.96,-185 179.96,-165.75 227.46,-165.75 227.46,-185"/>
<text text-anchor="middle" x="203.71" y="-171.5" font-family="Helvetica,sans-Serif" font-size="10.00">models</text>
</a>
</g>
</g>
<!-- dir_a1315fb0f7dada5f1d02a2469b07896c&#45;&gt;dir_1313a9ca06b78a4a4f91d64ab14f0740 -->
<g id="edge12" class="edge">
<title>dir_a1315fb0f7dada5f1d02a2469b07896c&#45;&gt;dir_1313a9ca06b78a4a4f91d64ab14f0740</title>
<g id="a_edge12"><a xlink:href="dir_000167_000024.html" target="_top">
<path fill="none" stroke="#63b8ff" d="M206.84,-165.58C209.25,-158.84 212.66,-149.27 215.71,-140.74"/>
<polygon fill="#63b8ff" stroke="#63b8ff" points="218.93,-142.13 218.99,-131.53 212.33,-139.78 218.93,-142.13"/>
</a>
</g>
<g id="a_edge12&#45;headlabel"><a xlink:href="dir_000167_000024.html" target="_top" xlink:title="11">
<text text-anchor="middle" x="220.9" y="-141.17" font-family="Helvetica,sans-Serif" font-size="10.00" fill="#63b8ff">11</text>
</a>
</g>
</g>
<!-- dir_a1315fb0f7dada5f1d02a2469b07896c&#45;&gt;dir_730131df764644422a201fb47d5e66b9 -->
<g id="edge15" class="edge">
<title>dir_a1315fb0f7dada5f1d02a2469b07896c&#45;&gt;dir_730131df764644422a201fb47d5e66b9</title>
<g id="a_edge15"><a xlink:href="dir_000167_000289.html" target="_top">
<path fill="none" stroke="#63b8ff" d="M198.08,-165.32C191.12,-152.98 180.75,-130.16 185.71,-110.5 187.98,-101.46 192.49,-92.25 196.99,-84.56"/>
<polygon fill="#63b8ff" stroke="#63b8ff" points="199.91,-86.49 202.3,-76.17 194,-82.75 199.91,-86.49"/>
</a>
</g>
<g id="a_edge15&#45;headlabel"><a xlink:href="dir_000167_000289.html" target="_top" xlink:title="10">
<text text-anchor="middle" x="201.2" y="-85.89" font-family="Helvetica,sans-Serif" font-size="10.00" fill="#63b8ff">10</text>
</a>
</g>
</g>
<!-- dir_a1315fb0f7dada5f1d02a2469b07896c&#45;&gt;dir_21f361739d8867751cd2763b9903b707 -->
<g id="edge13" class="edge">
<title>dir_a1315fb0f7dada5f1d02a2469b07896c&#45;&gt;dir_21f361739d8867751cd2763b9903b707</title>
<g id="a_edge13"><a xlink:href="dir_000167_000005.html" target="_top">
<path fill="none" stroke="#63b8ff" d="M183.58,-165.39C165.72,-157.08 139.2,-143.91 117.71,-129.75 95.92,-115.4 73.06,-96.1 57.76,-82.49"/>
<polygon fill="#63b8ff" stroke="#63b8ff" points="60.18,-79.96 50.41,-75.85 55.49,-85.15 60.18,-79.96"/>
</a>
</g>
<g id="a_edge13&#45;headlabel"><a xlink:href="dir_000167_000005.html" target="_top" xlink:title="1">
<text text-anchor="middle" x="63.63" y="-75.37" font-family="Helvetica,sans-Serif" font-size="10.00" fill="#63b8ff">1</text>
</a>
</g>
</g>
<!-- dir_a1315fb0f7dada5f1d02a2469b07896c&#45;&gt;dir_54a85b0ba73149a656becc2d555f9f9e -->
<g id="edge14" class="edge">
<title>dir_a1315fb0f7dada5f1d02a2469b07896c&#45;&gt;dir_54a85b0ba73149a656becc2d555f9f9e</title>
<g id="a_edge14"><a xlink:href="dir_000167_000183.html" target="_top">
<path fill="none" stroke="#63b8ff" d="M182.11,-165.39C166.48,-157.91 145.87,-145.88 132.71,-129.75 122.27,-116.96 116.08,-99.17 112.61,-85.61"/>
<polygon fill="#63b8ff" stroke="#63b8ff" points="116.08,-85.08 110.48,-76.09 109.25,-86.61 116.08,-85.08"/>
</a>
</g>
<g id="a_edge14&#45;headlabel"><a xlink:href="dir_000167_000183.html" target="_top" xlink:title="2">
<text text-anchor="middle" x="119.31" y="-82.62" font-family="Helvetica,sans-Serif" font-size="10.00" fill="#63b8ff">2</text>
</a>
</g>
</g>
<!-- dir_a1315fb0f7dada5f1d02a2469b07896c&#45;&gt;dir_92ed34f07df7a82417c7be964d3002da -->
<g id="edge16" class="edge">
<title>dir_a1315fb0f7dada5f1d02a2469b07896c&#45;&gt;dir_92ed34f07df7a82417c7be964d3002da</title>
<g id="a_edge16"><a xlink:href="dir_000167_000064.html" target="_top">
<path fill="none" stroke="#63b8ff" d="M227.91,-167.27C261.12,-157.37 318.97,-139.54 338.71,-129.75 365.65,-116.38 393.73,-96.07 411.89,-81.95"/>
<polygon fill="#63b8ff" stroke="#63b8ff" points="414.03,-84.72 419.7,-75.77 409.69,-79.23 414.03,-84.72"/>
</a>
</g>
<g id="a_edge16&#45;headlabel"><a xlink:href="dir_000167_000064.html" target="_top" xlink:title="4">
<text text-anchor="middle" x="414.16" y="-84.36" font-family="Helvetica,sans-Serif" font-size="10.00" fill="#63b8ff">4</text>
</a>
</g>
</g>
<!-- dir_a1315fb0f7dada5f1d02a2469b07896c&#45;&gt;dir_b620d3bc325baca79d772d7a5b5e4e14 -->
<g id="edge17" class="edge">
<title>dir_a1315fb0f7dada5f1d02a2469b07896c&#45;&gt;dir_b620d3bc325baca79d772d7a5b5e4e14</title>
<g id="a_edge17"><a xlink:href="dir_000167_000156.html" target="_top">
<path fill="none" stroke="#63b8ff" d="M227.75,-167.9C273.13,-155.67 367.01,-130.35 368.71,-129.75 410.59,-115.01 457.34,-93.65 486.4,-79.76"/>
<polygon fill="#63b8ff" stroke="#63b8ff" points="487.77,-82.98 495.25,-75.49 484.73,-76.68 487.77,-82.98"/>
</a>
</g>
<g id="a_edge17&#45;headlabel"><a xlink:href="dir_000167_000156.html" target="_top" xlink:title="10">
<text text-anchor="middle" x="487.13" y="-82.57" font-family="Helvetica,sans-Serif" font-size="10.00" fill="#63b8ff">10</text>
</a>
</g>
</g>
<!-- dir_a1315fb0f7dada5f1d02a2469b07896c&#45;&gt;dir_bd573d70419336b23551d1d967e5b64a -->
<g id="edge18" class="edge">
<title>dir_a1315fb0f7dada5f1d02a2469b07896c&#45;&gt;dir_bd573d70419336b23551d1d967e5b64a</title>
<g id="a_edge18"><a xlink:href="dir_000167_000287.html" target="_top">
<path fill="none" stroke="#63b8ff" d="M227.72,-167.01C256.83,-157.75 303.73,-141.61 317.71,-129.75 331.69,-117.88 341.87,-99.49 348.15,-85.49"/>
<polygon fill="#63b8ff" stroke="#63b8ff" points="351.32,-86.97 351.92,-76.39 344.86,-84.28 351.32,-86.97"/>
</a>
</g>
<g id="a_edge18&#45;headlabel"><a xlink:href="dir_000167_000287.html" target="_top" xlink:title="1">
<text text-anchor="middle" x="353.14" y="-86.1" font-family="Helvetica,sans-Serif" font-size="10.00" fill="#63b8ff">1</text>
</a>
</g>
</g>
<!-- dir_a1315fb0f7dada5f1d02a2469b07896c&#45;&gt;dir_d825b831d5f4002527e46bb27072c2b3 -->
<g id="edge19" class="edge">
<title>dir_a1315fb0f7dada5f1d02a2469b07896c&#45;&gt;dir_d825b831d5f4002527e46bb27072c2b3</title>
<g id="a_edge19"><a xlink:href="dir_000167_000164.html" target="_top">
<path fill="none" stroke="#63b8ff" d="M179.79,-171C135.39,-163.25 41.56,-139.57 6.71,-74.5 -0.69,-60.69 -3.34,-51.27 6.71,-39.25 22.07,-20.86 88.06,-14.26 129.75,-11.91"/>
<polygon fill="#63b8ff" stroke="#63b8ff" points="129.73,-15.41 139.54,-11.42 129.38,-8.42 129.73,-15.41"/>
</a>
</g>
<g id="a_edge19&#45;headlabel"><a xlink:href="dir_000167_000164.html" target="_top" xlink:title="10">
<text text-anchor="middle" x="127.8" y="-14.48" font-family="Helvetica,sans-Serif" font-size="10.00" fill="#63b8ff">10</text>
</a>
</g>
</g>
<!-- dir_a1315fb0f7dada5f1d02a2469b07896c&#45;&gt;dir_f38c03f336a0b3deec81b9cab2eb45b9 -->
<g id="edge20" class="edge">
<title>dir_a1315fb0f7dada5f1d02a2469b07896c&#45;&gt;dir_f38c03f336a0b3deec81b9cab2eb45b9</title>
<g id="a_edge20"><a xlink:href="dir_000167_000033.html" target="_top">
<path fill="none" stroke="#63b8ff" d="M227.78,-167.73C230.45,-167.04 233.13,-166.37 235.71,-165.75 311.23,-147.64 331.73,-150.01 406.71,-129.75 432.92,-122.66 438.88,-118.9 464.71,-110.5 498.5,-99.51 536.97,-87.26 565.02,-78.39"/>
<polygon fill="#63b8ff" stroke="#63b8ff" points="566.06,-81.73 574.54,-75.38 563.95,-75.05 566.06,-81.73"/>
</a>
</g>
<g id="a_edge20&#45;headlabel"><a xlink:href="dir_000167_000033.html" target="_top" xlink:title="5">
<text text-anchor="middle" x="564.93" y="-81.19" font-family="Helvetica,sans-Serif" font-size="10.00" fill="#63b8ff">5</text>
</a>
</g>
</g>
<!-- dir_730131df764644422a201fb47d5e66b9&#45;&gt;dir_d825b831d5f4002527e46bb27072c2b3 -->
<g id="edge21" class="edge">
<title>dir_730131df764644422a201fb47d5e66b9&#45;&gt;dir_d825b831d5f4002527e46bb27072c2b3</title>
<g id="a_edge21"><a xlink:href="dir_000289_000164.html" target="_top">
<path fill="none" stroke="#63b8ff" d="M202.27,-55.08C196.12,-47.8 187.19,-37.23 179.58,-28.23"/>
<polygon fill="#63b8ff" stroke="#63b8ff" points="182.4,-26.14 173.27,-20.77 177.06,-30.66 182.4,-26.14"/>
</a>
</g>
<g id="a_edge21&#45;headlabel"><a xlink:href="dir_000289_000164.html" target="_top" xlink:title="3">
<text text-anchor="middle" x="185.91" y="-22.03" font-family="Helvetica,sans-Serif" font-size="10.00" fill="#63b8ff">3</text>
</a>
</g>
</g>
</g>
</svg>
