<?xml version="1.0" encoding="UTF-8" standalone="no"?>
<!DOCTYPE svg PUBLIC "-//W3C//DTD SVG 1.1//EN"
 "http://www.w3.org/Graphics/SVG/1.1/DTD/svg11.dtd">
<!-- Generated by graphviz version 9.0.0 (20230911.1827)
 -->
<!-- Title: sourcecode/appdal Pages: 1 -->
<svg width="669pt" height="197pt"
 viewBox="0.00 0.00 669.00 197.00" xmlns="http://www.w3.org/2000/svg" xmlns:xlink="http://www.w3.org/1999/xlink">
<g id="graph0" class="graph" transform="scale(1 1) rotate(0) translate(4 193)">
<title>sourcecode/appdal</title>
<g id="clust1" class="cluster">
<title>clusterdir_b89c6037bfefa0e5d020a7058f32a811</title>
<g id="a_clust1"><a xlink:href="dir_b89c6037bfefa0e5d020a7058f32a811.html" target="_top" xlink:title="sourcecode">
<polygon fill="#edf0f7" stroke="#404040" stroke-dasharray="5,2" points="8,-8 8,-181 653,-181 653,-8 8,-8"/>
<text text-anchor="middle" x="330.5" y="-167.5" font-family="Helvetica,sans-Serif" font-size="10.00">sourcecode</text>
</a>
</g>
</g>
<g id="clust2" class="cluster">
<title>clusterdir_6fe832535b3d6f016da2d99129c2dac5</title>
<g id="a_clust2"><a xlink:href="dir_6fe832535b3d6f016da2d99129c2dac5.html" target="_top">
<polygon fill="#edf0f7" stroke="#404040" stroke-width="2" points="16,-63.25 16,-153.75 372,-153.75 372,-63.25 16,-63.25"/>
</a>
</g>
</g>
<!-- dir_0a1713e4fb81d523db81c567ef556d2d -->
<g id="node1" class="node">
<title>dir_0a1713e4fb81d523db81c567ef556d2d</title>
<g id="a_node1"><a xlink:href="dir_0a1713e4fb81d523db81c567ef556d2d.html" target="_top" xlink:title="ers">
<polygon fill="#a2b4d6" stroke="red" points="301.75,-35.25 272.25,-35.25 272.25,-16 301.75,-16 301.75,-35.25"/>
<text text-anchor="middle" x="287" y="-21.75" font-family="Helvetica,sans-Serif" font-size="10.00">ers</text>
</a>
</g>
</g>
<!-- dir_d825b831d5f4002527e46bb27072c2b3 -->
<g id="node2" class="node">
<title>dir_d825b831d5f4002527e46bb27072c2b3</title>
<g id="a_node2"><a xlink:href="dir_d825b831d5f4002527e46bb27072c2b3.html" target="_top" xlink:title="logging">
<polygon fill="#a2b4d6" stroke="red" points="426.38,-90.5 379.62,-90.5 379.62,-71.25 426.38,-71.25 426.38,-90.5"/>
<text text-anchor="middle" x="403" y="-77" font-family="Helvetica,sans-Serif" font-size="10.00">logging</text>
</a>
</g>
</g>
<!-- dir_74612d0701f8930964309a79d92afd69 -->
<g id="node3" class="node">
<title>dir_74612d0701f8930964309a79d92afd69</title>
<g id="a_node3"><a xlink:href="dir_74612d0701f8930964309a79d92afd69.html" target="_top" xlink:title="oksdbinterfaces">
<polygon fill="#a2b4d6" stroke="red" points="529.5,-90.5 444.5,-90.5 444.5,-71.25 529.5,-71.25 529.5,-90.5"/>
<text text-anchor="middle" x="487" y="-77" font-family="Helvetica,sans-Serif" font-size="10.00">oksdbinterfaces</text>
</a>
</g>
</g>
<!-- dir_469215ec156f530216e24b790d5149a6 -->
<g id="node4" class="node">
<title>dir_469215ec156f530216e24b790d5149a6</title>
<g id="a_node4"><a xlink:href="dir_469215ec156f530216e24b790d5149a6.html" target="_top" xlink:title="oks">
<polygon fill="#a2b4d6" stroke="red" points="578.88,-90.5 547.12,-90.5 547.12,-71.25 578.88,-71.25 578.88,-90.5"/>
<text text-anchor="middle" x="563" y="-77" font-family="Helvetica,sans-Serif" font-size="10.00">oks</text>
</a>
</g>
</g>
<!-- dir_8137e434eaffd9326d036884f4336bc3 -->
<g id="node5" class="node">
<title>dir_8137e434eaffd9326d036884f4336bc3</title>
<g id="a_node5"><a xlink:href="dir_8137e434eaffd9326d036884f4336bc3.html" target="_top" xlink:title="coredal">
<polygon fill="#a2b4d6" stroke="red" points="644.75,-90.5 597.25,-90.5 597.25,-71.25 644.75,-71.25 644.75,-90.5"/>
<text text-anchor="middle" x="621" y="-77" font-family="Helvetica,sans-Serif" font-size="10.00">coredal</text>
</a>
</g>
</g>
<!-- dir_6fe832535b3d6f016da2d99129c2dac5 -->
<g id="node6" class="node">
<title>dir_6fe832535b3d6f016da2d99129c2dac5</title>
<text text-anchor="middle" x="342" y="-132.25" font-family="Helvetica,sans-Serif" font-size="10.00">appdal</text>
</g>
<!-- dir_ba918d552990ea042a76290a498130d1 -->
<g id="node7" class="node">
<title>dir_ba918d552990ea042a76290a498130d1</title>
<g id="a_node7"><a xlink:href="dir_ba918d552990ea042a76290a498130d1.html" target="_top" xlink:title="apps">
<polygon fill="#a2b4d6" stroke="#404040" points="61.5,-145.75 24.5,-145.75 24.5,-126.5 61.5,-126.5 61.5,-145.75"/>
<text text-anchor="middle" x="43" y="-132.25" font-family="Helvetica,sans-Serif" font-size="10.00">apps</text>
</a>
</g>
</g>
<!-- dir_ba918d552990ea042a76290a498130d1&#45;&gt;dir_d825b831d5f4002527e46bb27072c2b3 -->
<g id="edge2" class="edge">
<title>dir_ba918d552990ea042a76290a498130d1&#45;&gt;dir_d825b831d5f4002527e46bb27072c2b3</title>
<g id="a_edge2"><a xlink:href="dir_000008_000164.html" target="_top">
<path fill="none" stroke="#63b8ff" d="M61.86,-128.81C64.89,-127.94 68.01,-127.13 71,-126.5 200.9,-99.06 240.45,-118.28 368.23,-92.07"/>
<polygon fill="#63b8ff" stroke="#63b8ff" points="368.67,-95.55 377.74,-90.06 367.23,-88.7 368.67,-95.55"/>
</a>
</g>
<g id="a_edge2&#45;headlabel"><a xlink:href="dir_000008_000164.html" target="_top" xlink:title="1">
<text text-anchor="middle" x="367.22" y="-94.88" font-family="Helvetica,sans-Serif" font-size="10.00" fill="#63b8ff">1</text>
</a>
</g>
</g>
<!-- dir_ba918d552990ea042a76290a498130d1&#45;&gt;dir_74612d0701f8930964309a79d92afd69 -->
<g id="edge1" class="edge">
<title>dir_ba918d552990ea042a76290a498130d1&#45;&gt;dir_74612d0701f8930964309a79d92afd69</title>
<g id="a_edge1"><a xlink:href="dir_000008_000176.html" target="_top">
<path fill="none" stroke="#63b8ff" d="M61.85,-128.76C64.88,-127.9 68.01,-127.1 71,-126.5 226.79,-95.13 271.82,-111.06 432.9,-90.67"/>
<polygon fill="#63b8ff" stroke="#63b8ff" points="433.22,-94.16 442.68,-89.4 432.32,-87.22 433.22,-94.16"/>
</a>
</g>
<g id="a_edge1&#45;headlabel"><a xlink:href="dir_000008_000176.html" target="_top" xlink:title="1">
<text text-anchor="middle" x="431.52" y="-93.37" font-family="Helvetica,sans-Serif" font-size="10.00" fill="#63b8ff">1</text>
</a>
</g>
</g>
<!-- dir_773dbbeefc397e5009ac5f5dcaa4b0e0 -->
<g id="node8" class="node">
<title>dir_773dbbeefc397e5009ac5f5dcaa4b0e0</title>
<g id="a_node8"><a xlink:href="dir_773dbbeefc397e5009ac5f5dcaa4b0e0.html" target="_top" xlink:title="docs">
<polygon fill="#a2b4d6" stroke="#404040" points="254.5,-145.75 217.5,-145.75 217.5,-126.5 254.5,-126.5 254.5,-145.75"/>
<text text-anchor="middle" x="236" y="-132.25" font-family="Helvetica,sans-Serif" font-size="10.00">docs</text>
</a>
</g>
</g>
<!-- dir_3df600f1a93c88906f6cf786a985f538 -->
<g id="node9" class="node">
<title>dir_3df600f1a93c88906f6cf786a985f538</title>
<g id="a_node9"><a xlink:href="dir_3df600f1a93c88906f6cf786a985f538.html" target="_top" xlink:title="include">
<polygon fill="#a2b4d6" stroke="#404040" points="310.38,-90.5 263.62,-90.5 263.62,-71.25 310.38,-71.25 310.38,-90.5"/>
<text text-anchor="middle" x="287" y="-77" font-family="Helvetica,sans-Serif" font-size="10.00">include</text>
</a>
</g>
</g>
<!-- dir_3df600f1a93c88906f6cf786a985f538&#45;&gt;dir_0a1713e4fb81d523db81c567ef556d2d -->
<g id="edge3" class="edge">
<title>dir_3df600f1a93c88906f6cf786a985f538&#45;&gt;dir_0a1713e4fb81d523db81c567ef556d2d</title>
<g id="a_edge3"><a xlink:href="dir_000120_000103.html" target="_top">
<path fill="none" stroke="#63b8ff" d="M287,-71.08C287,-64.57 287,-55.42 287,-47.12"/>
<polygon fill="#63b8ff" stroke="#63b8ff" points="290.5,-47.12 287,-37.12 283.5,-47.12 290.5,-47.12"/>
</a>
</g>
<g id="a_edge3&#45;headlabel"><a xlink:href="dir_000120_000103.html" target="_top" xlink:title="1">
<text text-anchor="middle" x="293.34" y="-45.33" font-family="Helvetica,sans-Serif" font-size="10.00" fill="#63b8ff">1</text>
</a>
</g>
</g>
<!-- dir_66deade29bd2dd36ef27b45308e57a73 -->
<g id="node10" class="node">
<title>dir_66deade29bd2dd36ef27b45308e57a73</title>
<g id="a_node10"><a xlink:href="dir_66deade29bd2dd36ef27b45308e57a73.html" target="_top" xlink:title="pybindsrc">
<polygon fill="#a2b4d6" stroke="#404040" points="199.62,-145.75 142.38,-145.75 142.38,-126.5 199.62,-126.5 199.62,-145.75"/>
<text text-anchor="middle" x="171" y="-132.25" font-family="Helvetica,sans-Serif" font-size="10.00">pybindsrc</text>
</a>
</g>
</g>
<!-- dir_c3cd3db799e7226e4a75121146293bf6 -->
<g id="node11" class="node">
<title>dir_c3cd3db799e7226e4a75121146293bf6</title>
<g id="a_node11"><a xlink:href="dir_c3cd3db799e7226e4a75121146293bf6.html" target="_top" xlink:title="python">
<polygon fill="#a2b4d6" stroke="#404040" points="124.25,-145.75 79.75,-145.75 79.75,-126.5 124.25,-126.5 124.25,-145.75"/>
<text text-anchor="middle" x="102" y="-132.25" font-family="Helvetica,sans-Serif" font-size="10.00">python</text>
</a>
</g>
</g>
<!-- dir_ddcfeaea4a898b45815dc8ebdeda53be -->
<g id="node12" class="node">
<title>dir_ddcfeaea4a898b45815dc8ebdeda53be</title>
<g id="a_node12"><a xlink:href="dir_ddcfeaea4a898b45815dc8ebdeda53be.html" target="_top" xlink:title="src">
<polygon fill="#a2b4d6" stroke="#404040" points="301.75,-145.75 272.25,-145.75 272.25,-126.5 301.75,-126.5 301.75,-145.75"/>
<text text-anchor="middle" x="287" y="-132.25" font-family="Helvetica,sans-Serif" font-size="10.00">src</text>
</a>
</g>
</g>
<!-- dir_ddcfeaea4a898b45815dc8ebdeda53be&#45;&gt;dir_d825b831d5f4002527e46bb27072c2b3 -->
<g id="edge8" class="edge">
<title>dir_ddcfeaea4a898b45815dc8ebdeda53be&#45;&gt;dir_d825b831d5f4002527e46bb27072c2b3</title>
<g id="a_edge8"><a xlink:href="dir_000238_000164.html" target="_top">
<path fill="none" stroke="#63b8ff" d="M302.16,-128.16C320,-119.97 350.06,-106.18 372.72,-95.77"/>
<polygon fill="#63b8ff" stroke="#63b8ff" points="374.17,-98.96 381.79,-91.61 371.25,-92.6 374.17,-98.96"/>
</a>
</g>
<g id="a_edge8&#45;headlabel"><a xlink:href="dir_000238_000164.html" target="_top" xlink:title="10">
<text text-anchor="middle" x="373.46" y="-98.54" font-family="Helvetica,sans-Serif" font-size="10.00" fill="#63b8ff">10</text>
</a>
</g>
</g>
<!-- dir_ddcfeaea4a898b45815dc8ebdeda53be&#45;&gt;dir_74612d0701f8930964309a79d92afd69 -->
<g id="edge6" class="edge">
<title>dir_ddcfeaea4a898b45815dc8ebdeda53be&#45;&gt;dir_74612d0701f8930964309a79d92afd69</title>
<g id="a_edge6"><a xlink:href="dir_000238_000176.html" target="_top">
<path fill="none" stroke="#63b8ff" d="M302.16,-129.43C305.08,-128.4 308.12,-127.38 311,-126.5 352.48,-113.82 400.22,-101.88 435.51,-93.54"/>
<polygon fill="#63b8ff" stroke="#63b8ff" points="436.09,-97 445.03,-91.31 434.49,-90.19 436.09,-97"/>
</a>
</g>
<g id="a_edge6&#45;headlabel"><a xlink:href="dir_000238_000176.html" target="_top" xlink:title="10">
<text text-anchor="middle" x="434.71" y="-96.37" font-family="Helvetica,sans-Serif" font-size="10.00" fill="#63b8ff">10</text>
</a>
</g>
</g>
<!-- dir_ddcfeaea4a898b45815dc8ebdeda53be&#45;&gt;dir_469215ec156f530216e24b790d5149a6 -->
<g id="edge5" class="edge">
<title>dir_ddcfeaea4a898b45815dc8ebdeda53be&#45;&gt;dir_469215ec156f530216e24b790d5149a6</title>
<g id="a_edge5"><a xlink:href="dir_000238_000171.html" target="_top">
<path fill="none" stroke="#63b8ff" d="M302.1,-129.21C305.02,-128.21 308.08,-127.25 311,-126.5 406.89,-101.93 437.48,-114.96 535.83,-90.92"/>
<polygon fill="#63b8ff" stroke="#63b8ff" points="536.55,-94.35 545.39,-88.51 534.84,-87.56 536.55,-94.35"/>
</a>
</g>
<g id="a_edge5&#45;headlabel"><a xlink:href="dir_000238_000171.html" target="_top" xlink:title="7">
<text text-anchor="middle" x="535.23" y="-93.74" font-family="Helvetica,sans-Serif" font-size="10.00" fill="#63b8ff">7</text>
</a>
</g>
</g>
<!-- dir_ddcfeaea4a898b45815dc8ebdeda53be&#45;&gt;dir_8137e434eaffd9326d036884f4336bc3 -->
<g id="edge7" class="edge">
<title>dir_ddcfeaea4a898b45815dc8ebdeda53be&#45;&gt;dir_8137e434eaffd9326d036884f4336bc3</title>
<g id="a_edge7"><a xlink:href="dir_000238_000027.html" target="_top">
<path fill="none" stroke="#63b8ff" d="M302.08,-129.15C305.01,-128.15 308.07,-127.21 311,-126.5 428.14,-98.19 464.05,-113.29 585.68,-90.69"/>
<polygon fill="#63b8ff" stroke="#63b8ff" points="586.28,-94.14 595.44,-88.83 584.96,-87.27 586.28,-94.14"/>
</a>
</g>
<g id="a_edge7&#45;headlabel"><a xlink:href="dir_000238_000027.html" target="_top" xlink:title="1">
<text text-anchor="middle" x="584.77" y="-93.45" font-family="Helvetica,sans-Serif" font-size="10.00" fill="#63b8ff">1</text>
</a>
</g>
</g>
<!-- dir_ddcfeaea4a898b45815dc8ebdeda53be&#45;&gt;dir_3df600f1a93c88906f6cf786a985f538 -->
<g id="edge4" class="edge">
<title>dir_ddcfeaea4a898b45815dc8ebdeda53be&#45;&gt;dir_3df600f1a93c88906f6cf786a985f538</title>
<g id="a_edge4"><a xlink:href="dir_000238_000120.html" target="_top">
<path fill="none" stroke="#63b8ff" d="M287,-126.33C287,-119.82 287,-110.67 287,-102.37"/>
<polygon fill="#63b8ff" stroke="#63b8ff" points="290.5,-102.37 287,-92.37 283.5,-102.37 290.5,-102.37"/>
</a>
</g>
<g id="a_edge4&#45;headlabel"><a xlink:href="dir_000238_000120.html" target="_top" xlink:title="11">
<text text-anchor="middle" x="293.34" y="-100.58" font-family="Helvetica,sans-Serif" font-size="10.00" fill="#63b8ff">11</text>
</a>
</g>
</g>
</g>
</svg>
