<?xml version="1.0" encoding="UTF-8" standalone="no"?>
<!DOCTYPE svg PUBLIC "-//W3C//DTD SVG 1.1//EN"
 "http://www.w3.org/Graphics/SVG/1.1/DTD/svg11.dtd">
<!-- Generated by graphviz version 9.0.0 (20230911.1827)
 -->
<!-- Title: sourcecode/triggeralgs/src Pages: 1 -->
<svg width="116pt" height="197pt"
 viewBox="0.00 0.00 116.00 197.00" xmlns="http://www.w3.org/2000/svg" xmlns:xlink="http://www.w3.org/1999/xlink">
<g id="graph0" class="graph" transform="scale(1 1) rotate(0) translate(4 193)">
<title>sourcecode/triggeralgs/src</title>
<g id="clust1" class="cluster">
<title>clusterdir_c1d31a17cfc5a8e22d0bf9593101cb65</title>
<g id="a_clust1"><a xlink:href="dir_c1d31a17cfc5a8e22d0bf9593101cb65.html" target="_top" xlink:title="triggeralgs">
<polygon fill="#edf0f7" stroke="#7f7f7f" stroke-dasharray="5,2" points="8,-8 8,-181 100,-181 100,-8 8,-8"/>
<text text-anchor="middle" x="54" y="-167.5" font-family="Helvetica,sans-Serif" font-size="10.00">triggeralgs</text>
</a>
</g>
</g>
<g id="clust2" class="cluster">
<title>clusterdir_f431142cb1535d5e1f257e05035515cb</title>
<g id="a_clust2"><a xlink:href="dir_f431142cb1535d5e1f257e05035515cb.html" target="_top">
<polygon fill="#edf0f7" stroke="#404040" stroke-width="2" points="16,-63.25 16,-153.75 80,-153.75 80,-63.25 16,-63.25"/>
</a>
</g>
</g>
<!-- dir_d070d7f261c1228c2f79f96f632f56e3 -->
<g id="node1" class="node">
<title>dir_d070d7f261c1228c2f79f96f632f56e3</title>
<g id="a_node1"><a xlink:href="dir_d070d7f261c1228c2f79f96f632f56e3.html" target="_top" xlink:title="include">
<polygon fill="#a2b4d6" stroke="red" points="81.38,-35.25 34.62,-35.25 34.62,-16 81.38,-16 81.38,-35.25"/>
<text text-anchor="middle" x="58" y="-21.75" font-family="Helvetica,sans-Serif" font-size="10.00">include</text>
</a>
</g>
</g>
<!-- dir_f431142cb1535d5e1f257e05035515cb -->
<g id="node2" class="node">
<title>dir_f431142cb1535d5e1f257e05035515cb</title>
<text text-anchor="middle" x="52" y="-132.25" font-family="Helvetica,sans-Serif" font-size="10.00">src</text>
</g>
<!-- dir_f431142cb1535d5e1f257e05035515cb&#45;&gt;dir_d070d7f261c1228c2f79f96f632f56e3 -->
<g id="edge2" class="edge">
<title>dir_f431142cb1535d5e1f257e05035515cb&#45;&gt;dir_d070d7f261c1228c2f79f96f632f56e3</title>
<g id="a_edge2"><a xlink:href="dir_000265_000151.html" target="_top">
<path fill="none" stroke="#63b8ff" d="M59.67,-126.67C66.78,-118.21 76.85,-104.5 81,-90.5 84.44,-78.89 84.35,-74.89 81,-63.25 79.13,-56.76 75.73,-50.3 72.11,-44.66"/>
<polygon fill="#63b8ff" stroke="#63b8ff" points="75.16,-42.91 66.51,-36.79 69.46,-46.97 75.16,-42.91"/>
</a>
</g>
<g id="a_edge2&#45;headlabel"><a xlink:href="dir_000265_000151.html" target="_top" xlink:title="20">
<text text-anchor="middle" x="78.68" y="-39.09" font-family="Helvetica,sans-Serif" font-size="10.00" fill="#63b8ff">20</text>
</a>
</g>
</g>
<!-- dir_a953acf2e90fc70ba84221141a65bc9c -->
<g id="node3" class="node">
<title>dir_a953acf2e90fc70ba84221141a65bc9c</title>
<g id="a_node3"><a xlink:href="dir_a953acf2e90fc70ba84221141a65bc9c.html" target="_top" xlink:title="dbscan">
<polygon fill="#a2b4d6" stroke="#404040" points="71.75,-90.5 24.25,-90.5 24.25,-71.25 71.75,-71.25 71.75,-90.5"/>
<text text-anchor="middle" x="48" y="-77" font-family="Helvetica,sans-Serif" font-size="10.00">dbscan</text>
</a>
</g>
</g>
<!-- dir_f431142cb1535d5e1f257e05035515cb&#45;&gt;dir_a953acf2e90fc70ba84221141a65bc9c -->
<g id="edge1" class="edge">
<title>dir_f431142cb1535d5e1f257e05035515cb&#45;&gt;dir_a953acf2e90fc70ba84221141a65bc9c</title>
<g id="a_edge1"><a xlink:href="dir_000265_000039.html" target="_top">
<path fill="none" stroke="#63b8ff" d="M51.38,-126.8C50.88,-120.2 50.16,-110.69 49.52,-102.11"/>
<polygon fill="#63b8ff" stroke="#63b8ff" points="53.01,-101.89 48.77,-92.18 46.03,-102.41 53.01,-101.89"/>
</a>
</g>
<g id="a_edge1&#45;headlabel"><a xlink:href="dir_000265_000039.html" target="_top" xlink:title="1">
<text text-anchor="middle" x="56" y="-99.87" font-family="Helvetica,sans-Serif" font-size="10.00" fill="#63b8ff">1</text>
</a>
</g>
</g>
<!-- dir_a953acf2e90fc70ba84221141a65bc9c&#45;&gt;dir_d070d7f261c1228c2f79f96f632f56e3 -->
<g id="edge3" class="edge">
<title>dir_a953acf2e90fc70ba84221141a65bc9c&#45;&gt;dir_d070d7f261c1228c2f79f96f632f56e3</title>
<g id="a_edge3"><a xlink:href="dir_000039_000151.html" target="_top">
<path fill="none" stroke="#63b8ff" d="M49.65,-71.08C50.89,-64.49 52.63,-55.21 54.21,-46.82"/>
<polygon fill="#63b8ff" stroke="#63b8ff" points="57.63,-47.57 56.03,-37.1 50.75,-46.28 57.63,-47.57"/>
</a>
</g>
<g id="a_edge3&#45;headlabel"><a xlink:href="dir_000039_000151.html" target="_top" xlink:title="3">
<text text-anchor="middle" x="60.03" y="-46.27" font-family="Helvetica,sans-Serif" font-size="10.00" fill="#63b8ff">3</text>
</a>
</g>
</g>
</g>
</svg>
