<?xml version="1.0" encoding="UTF-8" standalone="no"?>
<!DOCTYPE svg PUBLIC "-//W3C//DTD SVG 1.1//EN"
 "http://www.w3.org/Graphics/SVG/1.1/DTD/svg11.dtd">
<!-- Generated by graphviz version 9.0.0 (20230911.1827)
 -->
<!-- Title: sourcecode/dbe/src Pages: 1 -->
<svg width="683pt" height="142pt"
 viewBox="0.00 0.00 683.38 141.75" xmlns="http://www.w3.org/2000/svg" xmlns:xlink="http://www.w3.org/1999/xlink">
<g id="graph0" class="graph" transform="scale(1 1) rotate(0) translate(4 137.75)">
<title>sourcecode/dbe/src</title>
<g id="clust1" class="cluster">
<title>clusterdir_37b939e58b0b9776ffa04fd976dbbfae</title>
<g id="a_clust1"><a xlink:href="dir_37b939e58b0b9776ffa04fd976dbbfae.html" target="_top" xlink:title="dbe">
<polygon fill="#edf0f7" stroke="#7f7f7f" stroke-dasharray="5,2" points="8,-8 8,-125.75 470,-125.75 470,-8 8,-8"/>
<text text-anchor="middle" x="239" y="-112.25" font-family="Helvetica,sans-Serif" font-size="10.00">dbe</text>
</a>
</g>
</g>
<g id="clust2" class="cluster">
<title>clusterdir_f165a90e777d2be8a4f88ac95ae832c1</title>
<g id="a_clust2"><a xlink:href="dir_f165a90e777d2be8a4f88ac95ae832c1.html" target="_top">
<polygon fill="#edf0f7" stroke="#404040" stroke-width="2" points="16,-63.25 16,-98.5 462,-98.5 462,-63.25 16,-63.25"/>
</a>
</g>
</g>
<!-- dir_37eb93a93b7d9781ca4ac84912647452 -->
<g id="node1" class="node">
<title>dir_37eb93a93b7d9781ca4ac84912647452</title>
<g id="a_node1"><a xlink:href="dir_37eb93a93b7d9781ca4ac84912647452.html" target="_top" xlink:title="include">
<polygon fill="#a2b4d6" stroke="red" points="274.38,-35.25 227.62,-35.25 227.62,-16 274.38,-16 274.38,-35.25"/>
<text text-anchor="middle" x="251" y="-21.75" font-family="Helvetica,sans-Serif" font-size="10.00">include</text>
</a>
</g>
</g>
<!-- dir_f165a90e777d2be8a4f88ac95ae832c1 -->
<g id="node2" class="node">
<title>dir_f165a90e777d2be8a4f88ac95ae832c1</title>
<text text-anchor="middle" x="371" y="-77" font-family="Helvetica,sans-Serif" font-size="10.00">src</text>
</g>
<!-- dir_f165a90e777d2be8a4f88ac95ae832c1&#45;&gt;dir_37eb93a93b7d9781ca4ac84912647452 -->
<g id="edge2" class="edge">
<title>dir_f165a90e777d2be8a4f88ac95ae832c1&#45;&gt;dir_37eb93a93b7d9781ca4ac84912647452</title>
<g id="a_edge2"><a xlink:href="dir_000242_000125.html" target="_top">
<path fill="none" stroke="#63b8ff" d="M360.12,-71.51C356.13,-68.67 351.48,-65.61 347,-63.25 327.31,-52.87 304,-43.9 285.28,-37.44"/>
<polygon fill="#63b8ff" stroke="#63b8ff" points="286.6,-34.19 276.01,-34.33 284.37,-40.83 286.6,-34.19"/>
</a>
</g>
<g id="a_edge2&#45;headlabel"><a xlink:href="dir_000242_000125.html" target="_top" xlink:title="243">
<text text-anchor="middle" x="289.48" y="-28.29" font-family="Helvetica,sans-Serif" font-size="10.00" fill="#63b8ff">243</text>
</a>
</g>
</g>
<!-- dir_0a1713e4fb81d523db81c567ef556d2d -->
<g id="node9" class="node">
<title>dir_0a1713e4fb81d523db81c567ef556d2d</title>
<g id="a_node9"><a xlink:href="dir_0a1713e4fb81d523db81c567ef556d2d.html" target="_top" xlink:title="ers">
<polygon fill="#edf0f7" stroke="red" stroke-dasharray="5,2" points="507.75,-35.25 478.25,-35.25 478.25,-16 507.75,-16 507.75,-35.25"/>
<text text-anchor="middle" x="493" y="-21.75" font-family="Helvetica,sans-Serif" font-size="10.00">ers</text>
</a>
</g>
</g>
<!-- dir_f165a90e777d2be8a4f88ac95ae832c1&#45;&gt;dir_0a1713e4fb81d523db81c567ef556d2d -->
<g id="edge1" class="edge">
<title>dir_f165a90e777d2be8a4f88ac95ae832c1&#45;&gt;dir_0a1713e4fb81d523db81c567ef556d2d</title>
<g id="a_edge1"><a xlink:href="dir_000242_000103.html" target="_top">
<path fill="none" stroke="#63b8ff" d="M381.85,-71.45C385.84,-68.6 390.49,-65.56 395,-63.25 424.92,-47.93 437.04,-48.8 467.53,-37.62"/>
<polygon fill="#63b8ff" stroke="#63b8ff" points="468.64,-40.94 476.7,-34.07 466.12,-34.41 468.64,-40.94"/>
</a>
</g>
<g id="a_edge1&#45;headlabel"><a xlink:href="dir_000242_000103.html" target="_top" xlink:title="4">
<text text-anchor="middle" x="467.72" y="-40.46" font-family="Helvetica,sans-Serif" font-size="10.00" fill="#63b8ff">4</text>
</a>
</g>
</g>
<!-- dir_74612d0701f8930964309a79d92afd69 -->
<g id="node10" class="node">
<title>dir_74612d0701f8930964309a79d92afd69</title>
<g id="a_node10"><a xlink:href="dir_74612d0701f8930964309a79d92afd69.html" target="_top" xlink:title="oksdbinterfaces">
<polygon fill="#edf0f7" stroke="red" stroke-dasharray="5,2" points="610.5,-35.25 525.5,-35.25 525.5,-16 610.5,-16 610.5,-35.25"/>
<text text-anchor="middle" x="568" y="-21.75" font-family="Helvetica,sans-Serif" font-size="10.00">oksdbinterfaces</text>
</a>
</g>
</g>
<!-- dir_f165a90e777d2be8a4f88ac95ae832c1&#45;&gt;dir_74612d0701f8930964309a79d92afd69 -->
<g id="edge3" class="edge">
<title>dir_f165a90e777d2be8a4f88ac95ae832c1&#45;&gt;dir_74612d0701f8930964309a79d92afd69</title>
<g id="a_edge3"><a xlink:href="dir_000242_000176.html" target="_top">
<path fill="none" stroke="#63b8ff" d="M381.22,-71.46C385.29,-68.47 390.16,-65.34 395,-63.25 405.97,-58.52 467.57,-46 514.16,-36.91"/>
<polygon fill="#63b8ff" stroke="#63b8ff" points="514.71,-40.37 523.86,-35.03 513.38,-33.5 514.71,-40.37"/>
</a>
</g>
<g id="a_edge3&#45;headlabel"><a xlink:href="dir_000242_000176.html" target="_top" xlink:title="15">
<text text-anchor="middle" x="513.21" y="-39.68" font-family="Helvetica,sans-Serif" font-size="10.00" fill="#63b8ff">15</text>
</a>
</g>
</g>
<!-- dir_d825b831d5f4002527e46bb27072c2b3 -->
<g id="node11" class="node">
<title>dir_d825b831d5f4002527e46bb27072c2b3</title>
<g id="a_node11"><a xlink:href="dir_d825b831d5f4002527e46bb27072c2b3.html" target="_top" xlink:title="logging">
<polygon fill="#edf0f7" stroke="red" stroke-dasharray="5,2" points="675.38,-35.25 628.62,-35.25 628.62,-16 675.38,-16 675.38,-35.25"/>
<text text-anchor="middle" x="652" y="-21.75" font-family="Helvetica,sans-Serif" font-size="10.00">logging</text>
</a>
</g>
</g>
<!-- dir_f165a90e777d2be8a4f88ac95ae832c1&#45;&gt;dir_d825b831d5f4002527e46bb27072c2b3 -->
<g id="edge4" class="edge">
<title>dir_f165a90e777d2be8a4f88ac95ae832c1&#45;&gt;dir_d825b831d5f4002527e46bb27072c2b3</title>
<g id="a_edge4"><a xlink:href="dir_000242_000164.html" target="_top">
<path fill="none" stroke="#63b8ff" d="M380.66,-71.59C384.82,-68.47 389.89,-65.2 395,-63.25 485.83,-28.56 518.79,-52.79 617.29,-35.47"/>
<polygon fill="#63b8ff" stroke="#63b8ff" points="617.65,-38.96 626.83,-33.68 616.36,-32.08 617.65,-38.96"/>
</a>
</g>
<g id="a_edge4&#45;headlabel"><a xlink:href="dir_000242_000164.html" target="_top" xlink:title="5">
<text text-anchor="middle" x="616.12" y="-38.26" font-family="Helvetica,sans-Serif" font-size="10.00" fill="#63b8ff">5</text>
</a>
</g>
</g>
<!-- dir_eb97203a7583c0f145c20ae903cd51ca -->
<g id="node3" class="node">
<title>dir_eb97203a7583c0f145c20ae903cd51ca</title>
<g id="a_node3"><a xlink:href="dir_eb97203a7583c0f145c20ae903cd51ca.html" target="_top" xlink:title="graphical">
<polygon fill="#a2b4d6" stroke="#404040" points="211.5,-90.5 156.5,-90.5 156.5,-71.25 211.5,-71.25 211.5,-90.5"/>
<text text-anchor="middle" x="184" y="-77" font-family="Helvetica,sans-Serif" font-size="10.00">graphical</text>
</a>
</g>
</g>
<!-- dir_eb97203a7583c0f145c20ae903cd51ca&#45;&gt;dir_37eb93a93b7d9781ca4ac84912647452 -->
<g id="edge5" class="edge">
<title>dir_eb97203a7583c0f145c20ae903cd51ca&#45;&gt;dir_37eb93a93b7d9781ca4ac84912647452</title>
<g id="a_edge5"><a xlink:href="dir_000112_000125.html" target="_top">
<path fill="none" stroke="#63b8ff" d="M195.37,-70.84C205.05,-63.15 219.2,-51.9 230.81,-42.68"/>
<polygon fill="#63b8ff" stroke="#63b8ff" points="232.97,-45.43 238.62,-36.47 228.61,-39.95 232.97,-45.43"/>
</a>
</g>
<g id="a_edge5&#45;headlabel"><a xlink:href="dir_000112_000125.html" target="_top" xlink:title="12">
<text text-anchor="middle" x="233.1" y="-45.07" font-family="Helvetica,sans-Serif" font-size="10.00" fill="#63b8ff">12</text>
</a>
</g>
</g>
<!-- dir_cfba99b98b782215d1f730284b5ae457 -->
<g id="node4" class="node">
<title>dir_cfba99b98b782215d1f730284b5ae457</title>
<g id="a_node4"><a xlink:href="dir_cfba99b98b782215d1f730284b5ae457.html" target="_top" xlink:title="internal">
<polygon fill="#a2b4d6" stroke="#404040" points="337.75,-90.5 290.25,-90.5 290.25,-71.25 337.75,-71.25 337.75,-90.5"/>
<text text-anchor="middle" x="314" y="-77" font-family="Helvetica,sans-Serif" font-size="10.00">internal</text>
</a>
</g>
</g>
<!-- dir_cfba99b98b782215d1f730284b5ae457&#45;&gt;dir_37eb93a93b7d9781ca4ac84912647452 -->
<g id="edge7" class="edge">
<title>dir_cfba99b98b782215d1f730284b5ae457&#45;&gt;dir_37eb93a93b7d9781ca4ac84912647452</title>
<g id="a_edge7"><a xlink:href="dir_000153_000125.html" target="_top">
<path fill="none" stroke="#63b8ff" d="M303.31,-70.84C294.3,-63.22 281.17,-52.12 270.32,-42.95"/>
<polygon fill="#63b8ff" stroke="#63b8ff" points="272.58,-40.28 262.69,-36.5 268.06,-45.63 272.58,-40.28"/>
</a>
</g>
<g id="a_edge7&#45;headlabel"><a xlink:href="dir_000153_000125.html" target="_top" xlink:title="103">
<text text-anchor="middle" x="276" y="-35.58" font-family="Helvetica,sans-Serif" font-size="10.00" fill="#63b8ff">103</text>
</a>
</g>
</g>
<!-- dir_cfba99b98b782215d1f730284b5ae457&#45;&gt;dir_0a1713e4fb81d523db81c567ef556d2d -->
<g id="edge6" class="edge">
<title>dir_cfba99b98b782215d1f730284b5ae457&#45;&gt;dir_0a1713e4fb81d523db81c567ef556d2d</title>
<g id="a_edge6"><a xlink:href="dir_000153_000103.html" target="_top">
<path fill="none" stroke="#63b8ff" d="M330.09,-70.76C335.36,-68.05 341.32,-65.27 347,-63.25 397.95,-45.12 416.73,-52.4 466.92,-37.32"/>
<polygon fill="#63b8ff" stroke="#63b8ff" points="467.85,-40.7 476.32,-34.33 465.73,-34.03 467.85,-40.7"/>
</a>
</g>
<g id="a_edge6&#45;headlabel"><a xlink:href="dir_000153_000103.html" target="_top" xlink:title="3">
<text text-anchor="middle" x="466.73" y="-40.16" font-family="Helvetica,sans-Serif" font-size="10.00" fill="#63b8ff">3</text>
</a>
</g>
</g>
<!-- dir_cfba99b98b782215d1f730284b5ae457&#45;&gt;dir_74612d0701f8930964309a79d92afd69 -->
<g id="edge8" class="edge">
<title>dir_cfba99b98b782215d1f730284b5ae457&#45;&gt;dir_74612d0701f8930964309a79d92afd69</title>
<g id="a_edge8"><a xlink:href="dir_000153_000176.html" target="_top">
<path fill="none" stroke="#63b8ff" d="M329.36,-70.92C334.79,-68.09 341.02,-65.2 347,-63.25 416.54,-40.59 439.42,-47.17 514.24,-35.64"/>
<polygon fill="#63b8ff" stroke="#63b8ff" points="514.34,-39.17 523.66,-34.13 513.23,-32.26 514.34,-39.17"/>
</a>
</g>
<g id="a_edge8&#45;headlabel"><a xlink:href="dir_000153_000176.html" target="_top" xlink:title="11">
<text text-anchor="middle" x="512.73" y="-38.43" font-family="Helvetica,sans-Serif" font-size="10.00" fill="#63b8ff">11</text>
</a>
</g>
</g>
<!-- dir_cfba99b98b782215d1f730284b5ae457&#45;&gt;dir_d825b831d5f4002527e46bb27072c2b3 -->
<g id="edge9" class="edge">
<title>dir_cfba99b98b782215d1f730284b5ae457&#45;&gt;dir_d825b831d5f4002527e46bb27072c2b3</title>
<g id="a_edge9"><a xlink:href="dir_000153_000164.html" target="_top">
<path fill="none" stroke="#63b8ff" d="M328.97,-70.88C334.46,-67.98 340.84,-65.05 347,-63.25 460.64,-30.03 497.88,-55.81 617.29,-35.43"/>
<polygon fill="#63b8ff" stroke="#63b8ff" points="617.61,-38.93 626.84,-33.73 616.38,-32.04 617.61,-38.93"/>
</a>
</g>
<g id="a_edge9&#45;headlabel"><a xlink:href="dir_000153_000164.html" target="_top" xlink:title="3">
<text text-anchor="middle" x="616.06" y="-38.22" font-family="Helvetica,sans-Serif" font-size="10.00" fill="#63b8ff">3</text>
</a>
</g>
</g>
<!-- dir_7cd2bf2c6adebfc8f0603fd5626a5a0f -->
<g id="node5" class="node">
<title>dir_7cd2bf2c6adebfc8f0603fd5626a5a0f</title>
<g id="a_node5"><a xlink:href="dir_7cd2bf2c6adebfc8f0603fd5626a5a0f.html" target="_top" xlink:title="object">
<polygon fill="#a2b4d6" stroke="#404040" points="66.12,-90.5 23.88,-90.5 23.88,-71.25 66.12,-71.25 66.12,-90.5"/>
<text text-anchor="middle" x="45" y="-77" font-family="Helvetica,sans-Serif" font-size="10.00">object</text>
</a>
</g>
</g>
<!-- dir_7cd2bf2c6adebfc8f0603fd5626a5a0f&#45;&gt;dir_37eb93a93b7d9781ca4ac84912647452 -->
<g id="edge10" class="edge">
<title>dir_7cd2bf2c6adebfc8f0603fd5626a5a0f&#45;&gt;dir_37eb93a93b7d9781ca4ac84912647452</title>
<g id="a_edge10"><a xlink:href="dir_000170_000125.html" target="_top">
<path fill="none" stroke="#63b8ff" d="M59.23,-70.84C64.08,-68.08 69.64,-65.24 75,-63.25 122.18,-45.73 179.76,-35.75 215.92,-30.76"/>
<polygon fill="#63b8ff" stroke="#63b8ff" points="216.36,-34.23 225.81,-29.45 215.44,-27.29 216.36,-34.23"/>
</a>
</g>
<g id="a_edge10&#45;headlabel"><a xlink:href="dir_000170_000125.html" target="_top" xlink:title="7">
<text text-anchor="middle" x="214.66" y="-33.44" font-family="Helvetica,sans-Serif" font-size="10.00" fill="#63b8ff">7</text>
</a>
</g>
</g>
<!-- dir_cb2585ff4e712ca74271a6884fb8146f -->
<g id="node6" class="node">
<title>dir_cb2585ff4e712ca74271a6884fb8146f</title>
<g id="a_node6"><a xlink:href="dir_cb2585ff4e712ca74271a6884fb8146f.html" target="_top" xlink:title="qtutils">
<polygon fill="#a2b4d6" stroke="#404040" points="272.12,-90.5 229.88,-90.5 229.88,-71.25 272.12,-71.25 272.12,-90.5"/>
<text text-anchor="middle" x="251" y="-77" font-family="Helvetica,sans-Serif" font-size="10.00">qtutils</text>
</a>
</g>
</g>
<!-- dir_cb2585ff4e712ca74271a6884fb8146f&#45;&gt;dir_37eb93a93b7d9781ca4ac84912647452 -->
<g id="edge11" class="edge">
<title>dir_cb2585ff4e712ca74271a6884fb8146f&#45;&gt;dir_37eb93a93b7d9781ca4ac84912647452</title>
<g id="a_edge11"><a xlink:href="dir_000218_000125.html" target="_top">
<path fill="none" stroke="#63b8ff" d="M251,-71.08C251,-64.57 251,-55.42 251,-47.12"/>
<polygon fill="#63b8ff" stroke="#63b8ff" points="254.5,-47.12 251,-37.12 247.5,-47.12 254.5,-47.12"/>
</a>
</g>
<g id="a_edge11&#45;headlabel"><a xlink:href="dir_000218_000125.html" target="_top" xlink:title="2">
<text text-anchor="middle" x="257.34" y="-45.33" font-family="Helvetica,sans-Serif" font-size="10.00" fill="#63b8ff">2</text>
</a>
</g>
</g>
<!-- dir_ac8230c4cd86103b84f522386acb99fe -->
<g id="node7" class="node">
<title>dir_ac8230c4cd86103b84f522386acb99fe</title>
<g id="a_node7"><a xlink:href="dir_ac8230c4cd86103b84f522386acb99fe.html" target="_top" xlink:title="structure">
<polygon fill="#a2b4d6" stroke="#404040" points="138.12,-90.5 83.88,-90.5 83.88,-71.25 138.12,-71.25 138.12,-90.5"/>
<text text-anchor="middle" x="111" y="-77" font-family="Helvetica,sans-Serif" font-size="10.00">structure</text>
</a>
</g>
</g>
<!-- dir_ac8230c4cd86103b84f522386acb99fe&#45;&gt;dir_37eb93a93b7d9781ca4ac84912647452 -->
<g id="edge12" class="edge">
<title>dir_ac8230c4cd86103b84f522386acb99fe&#45;&gt;dir_37eb93a93b7d9781ca4ac84912647452</title>
<g id="a_edge12"><a xlink:href="dir_000267_000125.html" target="_top">
<path fill="none" stroke="#63b8ff" d="M129.54,-70.91C135.11,-68.33 141.26,-65.58 147,-63.25 169.9,-53.96 196.15,-44.72 216.55,-37.85"/>
<polygon fill="#63b8ff" stroke="#63b8ff" points="217.4,-41.25 225.78,-34.77 215.19,-34.61 217.4,-41.25"/>
</a>
</g>
<g id="a_edge12&#45;headlabel"><a xlink:href="dir_000267_000125.html" target="_top" xlink:title="66">
<text text-anchor="middle" x="216.33" y="-40.73" font-family="Helvetica,sans-Serif" font-size="10.00" fill="#63b8ff">66</text>
</a>
</g>
</g>
<!-- dir_9105a1ffa05757adfd5dd29d304cfd44 -->
<g id="node8" class="node">
<title>dir_9105a1ffa05757adfd5dd29d304cfd44</title>
<g id="a_node8"><a xlink:href="dir_9105a1ffa05757adfd5dd29d304cfd44.html" target="_top" xlink:title="widgets">
<polygon fill="#a2b4d6" stroke="#404040" points="453.88,-90.5 404.12,-90.5 404.12,-71.25 453.88,-71.25 453.88,-90.5"/>
<text text-anchor="middle" x="429" y="-77" font-family="Helvetica,sans-Serif" font-size="10.00">widgets</text>
</a>
</g>
</g>
<!-- dir_9105a1ffa05757adfd5dd29d304cfd44&#45;&gt;dir_37eb93a93b7d9781ca4ac84912647452 -->
<g id="edge13" class="edge">
<title>dir_9105a1ffa05757adfd5dd29d304cfd44&#45;&gt;dir_37eb93a93b7d9781ca4ac84912647452</title>
<g id="a_edge13"><a xlink:href="dir_000291_000125.html" target="_top">
<path fill="none" stroke="#63b8ff" d="M412.35,-70.89C406.92,-68.19 400.8,-65.38 395,-63.25 358.55,-49.87 315.18,-39.56 285.63,-33.34"/>
<polygon fill="#63b8ff" stroke="#63b8ff" points="286.62,-29.97 276.12,-31.38 285.22,-36.83 286.62,-29.97"/>
</a>
</g>
<g id="a_edge13&#45;headlabel"><a xlink:href="dir_000291_000125.html" target="_top" xlink:title="47">
<text text-anchor="middle" x="289.24" y="-23.73" font-family="Helvetica,sans-Serif" font-size="10.00" fill="#63b8ff">47</text>
</a>
</g>
</g>
<!-- dir_9105a1ffa05757adfd5dd29d304cfd44&#45;&gt;dir_74612d0701f8930964309a79d92afd69 -->
<g id="edge14" class="edge">
<title>dir_9105a1ffa05757adfd5dd29d304cfd44&#45;&gt;dir_74612d0701f8930964309a79d92afd69</title>
<g id="a_edge14"><a xlink:href="dir_000291_000176.html" target="_top">
<path fill="none" stroke="#63b8ff" d="M452.58,-70.84C474.84,-62.31 508.49,-49.42 533.72,-39.76"/>
<polygon fill="#63b8ff" stroke="#63b8ff" points="534.81,-43.09 542.89,-36.24 532.3,-36.55 534.81,-43.09"/>
</a>
</g>
<g id="a_edge14&#45;headlabel"><a xlink:href="dir_000291_000176.html" target="_top" xlink:title="3">
<text text-anchor="middle" x="533.88" y="-42.61" font-family="Helvetica,sans-Serif" font-size="10.00" fill="#63b8ff">3</text>
</a>
</g>
</g>
<!-- dir_9105a1ffa05757adfd5dd29d304cfd44&#45;&gt;dir_d825b831d5f4002527e46bb27072c2b3 -->
<g id="edge15" class="edge">
<title>dir_9105a1ffa05757adfd5dd29d304cfd44&#45;&gt;dir_d825b831d5f4002527e46bb27072c2b3</title>
<g id="a_edge15"><a xlink:href="dir_000291_000164.html" target="_top">
<path fill="none" stroke="#63b8ff" d="M454.09,-74.3C488.67,-66.55 553.16,-51.88 617.16,-35.9"/>
<polygon fill="#63b8ff" stroke="#63b8ff" points="617.94,-39.32 626.79,-33.49 616.24,-32.53 617.94,-39.32"/>
</a>
</g>
<g id="a_edge15&#45;headlabel"><a xlink:href="dir_000291_000164.html" target="_top" xlink:title="1">
<text text-anchor="middle" x="616.61" y="-38.7" font-family="Helvetica,sans-Serif" font-size="10.00" fill="#63b8ff">1</text>
</a>
</g>
</g>
</g>
</svg>
