<?xml version="1.0" encoding="UTF-8" standalone="no"?>
<!DOCTYPE svg PUBLIC "-//W3C//DTD SVG 1.1//EN"
 "http://www.w3.org/Graphics/SVG/1.1/DTD/svg11.dtd">
<!-- Generated by graphviz version 9.0.0 (20230911.1827)
 -->
<!-- Title: sourcecode/coredal Pages: 1 -->
<svg width="474pt" height="197pt"
 viewBox="0.00 0.00 474.00 197.00" xmlns="http://www.w3.org/2000/svg" xmlns:xlink="http://www.w3.org/1999/xlink">
<g id="graph0" class="graph" transform="scale(1 1) rotate(0) translate(4 193)">
<title>sourcecode/coredal</title>
<g id="clust1" class="cluster">
<title>clusterdir_b89c6037bfefa0e5d020a7058f32a811</title>
<g id="a_clust1"><a xlink:href="dir_b89c6037bfefa0e5d020a7058f32a811.html" target="_top" xlink:title="sourcecode">
<polygon fill="#edf0f7" stroke="#404040" stroke-dasharray="5,2" points="8,-8 8,-181 458,-181 458,-8 8,-8"/>
<text text-anchor="middle" x="233" y="-167.5" font-family="Helvetica,sans-Serif" font-size="10.00">sourcecode</text>
</a>
</g>
</g>
<g id="clust2" class="cluster">
<title>clusterdir_8137e434eaffd9326d036884f4336bc3</title>
<g id="a_clust2"><a xlink:href="dir_8137e434eaffd9326d036884f4336bc3.html" target="_top">
<polygon fill="#edf0f7" stroke="#404040" stroke-width="2" points="16,-63.25 16,-153.75 376,-153.75 376,-63.25 16,-63.25"/>
</a>
</g>
</g>
<!-- dir_74612d0701f8930964309a79d92afd69 -->
<g id="node1" class="node">
<title>dir_74612d0701f8930964309a79d92afd69</title>
<g id="a_node1"><a xlink:href="dir_74612d0701f8930964309a79d92afd69.html" target="_top" xlink:title="oksdbinterfaces">
<polygon fill="#a2b4d6" stroke="red" points="371.5,-35.25 286.5,-35.25 286.5,-16 371.5,-16 371.5,-35.25"/>
<text text-anchor="middle" x="329" y="-21.75" font-family="Helvetica,sans-Serif" font-size="10.00">oksdbinterfaces</text>
</a>
</g>
</g>
<!-- dir_d825b831d5f4002527e46bb27072c2b3 -->
<g id="node2" class="node">
<title>dir_d825b831d5f4002527e46bb27072c2b3</title>
<g id="a_node2"><a xlink:href="dir_d825b831d5f4002527e46bb27072c2b3.html" target="_top" xlink:title="logging">
<polygon fill="#a2b4d6" stroke="red" points="430.38,-90.5 383.62,-90.5 383.62,-71.25 430.38,-71.25 430.38,-90.5"/>
<text text-anchor="middle" x="407" y="-77" font-family="Helvetica,sans-Serif" font-size="10.00">logging</text>
</a>
</g>
</g>
<!-- dir_8137e434eaffd9326d036884f4336bc3 -->
<g id="node3" class="node">
<title>dir_8137e434eaffd9326d036884f4336bc3</title>
<text text-anchor="middle" x="344" y="-132.25" font-family="Helvetica,sans-Serif" font-size="10.00">coredal</text>
</g>
<!-- dir_7b47e8a383bf6b402b9724a4a49b5d82 -->
<g id="node4" class="node">
<title>dir_7b47e8a383bf6b402b9724a4a49b5d82</title>
<g id="a_node4"><a xlink:href="dir_7b47e8a383bf6b402b9724a4a49b5d82.html" target="_top" xlink:title="apps">
<polygon fill="#a2b4d6" stroke="#404040" points="61.5,-145.75 24.5,-145.75 24.5,-126.5 61.5,-126.5 61.5,-145.75"/>
<text text-anchor="middle" x="43" y="-132.25" font-family="Helvetica,sans-Serif" font-size="10.00">apps</text>
</a>
</g>
</g>
<!-- dir_7b47e8a383bf6b402b9724a4a49b5d82&#45;&gt;dir_74612d0701f8930964309a79d92afd69 -->
<g id="edge1" class="edge">
<title>dir_7b47e8a383bf6b402b9724a4a49b5d82&#45;&gt;dir_74612d0701f8930964309a79d92afd69</title>
<g id="a_edge1"><a xlink:href="dir_000010_000176.html" target="_top">
<path fill="none" stroke="#63b8ff" d="M61.87,-128.88C64.9,-128 68.02,-127.17 71,-126.5 125.33,-114.27 279.4,-129.66 319,-90.5 330.36,-79.27 332.18,-60.78 331.56,-46.58"/>
<polygon fill="#63b8ff" stroke="#63b8ff" points="335.08,-46.65 330.69,-37 328.1,-47.28 335.08,-46.65"/>
</a>
</g>
<g id="a_edge1&#45;headlabel"><a xlink:href="dir_000010_000176.html" target="_top" xlink:title="1">
<text text-anchor="middle" x="338.09" y="-44.59" font-family="Helvetica,sans-Serif" font-size="10.00" fill="#63b8ff">1</text>
</a>
</g>
</g>
<!-- dir_7b47e8a383bf6b402b9724a4a49b5d82&#45;&gt;dir_d825b831d5f4002527e46bb27072c2b3 -->
<g id="edge2" class="edge">
<title>dir_7b47e8a383bf6b402b9724a4a49b5d82&#45;&gt;dir_d825b831d5f4002527e46bb27072c2b3</title>
<g id="a_edge2"><a xlink:href="dir_000010_000164.html" target="_top">
<path fill="none" stroke="#63b8ff" d="M61.85,-128.8C64.89,-127.94 68.01,-127.13 71,-126.5 202.6,-98.81 242.67,-118.53 372.09,-92.09"/>
<polygon fill="#63b8ff" stroke="#63b8ff" points="372.67,-95.54 381.74,-90.06 371.23,-88.69 372.67,-95.54"/>
</a>
</g>
<g id="a_edge2&#45;headlabel"><a xlink:href="dir_000010_000164.html" target="_top" xlink:title="1">
<text text-anchor="middle" x="371.22" y="-94.87" font-family="Helvetica,sans-Serif" font-size="10.00" fill="#63b8ff">1</text>
</a>
</g>
</g>
<!-- dir_973b7ef6c9e29c0f970ff237f31c7a94 -->
<g id="node5" class="node">
<title>dir_973b7ef6c9e29c0f970ff237f31c7a94</title>
<g id="a_node5"><a xlink:href="dir_973b7ef6c9e29c0f970ff237f31c7a94.html" target="_top" xlink:title="docs">
<polygon fill="#a2b4d6" stroke="#404040" points="254.5,-145.75 217.5,-145.75 217.5,-126.5 254.5,-126.5 254.5,-145.75"/>
<text text-anchor="middle" x="236" y="-132.25" font-family="Helvetica,sans-Serif" font-size="10.00">docs</text>
</a>
</g>
</g>
<!-- dir_dd53a79962c9192ff6a58c50e381252a -->
<g id="node6" class="node">
<title>dir_dd53a79962c9192ff6a58c50e381252a</title>
<g id="a_node6"><a xlink:href="dir_dd53a79962c9192ff6a58c50e381252a.html" target="_top" xlink:title="include">
<polygon fill="#a2b4d6" stroke="#404040" points="310.38,-90.5 263.62,-90.5 263.62,-71.25 310.38,-71.25 310.38,-90.5"/>
<text text-anchor="middle" x="287" y="-77" font-family="Helvetica,sans-Serif" font-size="10.00">include</text>
</a>
</g>
</g>
<!-- dir_dd53a79962c9192ff6a58c50e381252a&#45;&gt;dir_74612d0701f8930964309a79d92afd69 -->
<g id="edge3" class="edge">
<title>dir_dd53a79962c9192ff6a58c50e381252a&#45;&gt;dir_74612d0701f8930964309a79d92afd69</title>
<g id="a_edge3"><a xlink:href="dir_000123_000176.html" target="_top">
<path fill="none" stroke="#63b8ff" d="M293.94,-71.08C299.62,-63.88 307.84,-53.46 314.89,-44.51"/>
<polygon fill="#63b8ff" stroke="#63b8ff" points="317.53,-46.82 320.98,-36.8 312.04,-42.48 317.53,-46.82"/>
</a>
</g>
<g id="a_edge3&#45;headlabel"><a xlink:href="dir_000123_000176.html" target="_top" xlink:title="4">
<text text-anchor="middle" x="318.47" y="-46.33" font-family="Helvetica,sans-Serif" font-size="10.00" fill="#63b8ff">4</text>
</a>
</g>
</g>
<!-- dir_9db9b1692f030822aea3e2a30f116ad0 -->
<g id="node7" class="node">
<title>dir_9db9b1692f030822aea3e2a30f116ad0</title>
<g id="a_node7"><a xlink:href="dir_9db9b1692f030822aea3e2a30f116ad0.html" target="_top" xlink:title="pybindsrc">
<polygon fill="#a2b4d6" stroke="#404040" points="199.62,-145.75 142.38,-145.75 142.38,-126.5 199.62,-126.5 199.62,-145.75"/>
<text text-anchor="middle" x="171" y="-132.25" font-family="Helvetica,sans-Serif" font-size="10.00">pybindsrc</text>
</a>
</g>
</g>
<!-- dir_0954ff60e8c4a423ed19a67f9627afa1 -->
<g id="node8" class="node">
<title>dir_0954ff60e8c4a423ed19a67f9627afa1</title>
<g id="a_node8"><a xlink:href="dir_0954ff60e8c4a423ed19a67f9627afa1.html" target="_top" xlink:title="python">
<polygon fill="#a2b4d6" stroke="#404040" points="124.25,-145.75 79.75,-145.75 79.75,-126.5 124.25,-126.5 124.25,-145.75"/>
<text text-anchor="middle" x="102" y="-132.25" font-family="Helvetica,sans-Serif" font-size="10.00">python</text>
</a>
</g>
</g>
<!-- dir_fd66a323d8852e8cc1d73cbaf16fef5d -->
<g id="node9" class="node">
<title>dir_fd66a323d8852e8cc1d73cbaf16fef5d</title>
<g id="a_node9"><a xlink:href="dir_fd66a323d8852e8cc1d73cbaf16fef5d.html" target="_top" xlink:title="src">
<polygon fill="#a2b4d6" stroke="#404040" points="301.75,-145.75 272.25,-145.75 272.25,-126.5 301.75,-126.5 301.75,-145.75"/>
<text text-anchor="middle" x="287" y="-132.25" font-family="Helvetica,sans-Serif" font-size="10.00">src</text>
</a>
</g>
</g>
<!-- dir_fd66a323d8852e8cc1d73cbaf16fef5d&#45;&gt;dir_74612d0701f8930964309a79d92afd69 -->
<g id="edge4" class="edge">
<title>dir_fd66a323d8852e8cc1d73cbaf16fef5d&#45;&gt;dir_74612d0701f8930964309a79d92afd69</title>
<g id="a_edge4"><a xlink:href="dir_000241_000176.html" target="_top">
<path fill="none" stroke="#63b8ff" d="M302.18,-129.49C305.09,-128.46 308.13,-127.42 311,-126.5 367.29,-108.5 403.32,-137.61 439,-90.5 446.31,-80.85 446.08,-73.07 439,-63.25 426.08,-45.33 404.01,-36.04 383.02,-31.28"/>
<polygon fill="#63b8ff" stroke="#63b8ff" points="383.83,-27.87 373.35,-29.41 382.51,-34.75 383.83,-27.87"/>
</a>
</g>
<g id="a_edge4&#45;headlabel"><a xlink:href="dir_000241_000176.html" target="_top" xlink:title="4">
<text text-anchor="middle" x="386.42" y="-21.6" font-family="Helvetica,sans-Serif" font-size="10.00" fill="#63b8ff">4</text>
</a>
</g>
</g>
<!-- dir_fd66a323d8852e8cc1d73cbaf16fef5d&#45;&gt;dir_d825b831d5f4002527e46bb27072c2b3 -->
<g id="edge5" class="edge">
<title>dir_fd66a323d8852e8cc1d73cbaf16fef5d&#45;&gt;dir_d825b831d5f4002527e46bb27072c2b3</title>
<g id="a_edge5"><a xlink:href="dir_000241_000164.html" target="_top">
<path fill="none" stroke="#63b8ff" d="M302.2,-128.38C320.79,-120.13 352.73,-105.96 376.47,-95.42"/>
<polygon fill="#63b8ff" stroke="#63b8ff" points="377.62,-98.74 385.34,-91.49 374.78,-92.34 377.62,-98.74"/>
</a>
</g>
<g id="a_edge5&#45;headlabel"><a xlink:href="dir_000241_000164.html" target="_top" xlink:title="1">
<text text-anchor="middle" x="376.87" y="-98.31" font-family="Helvetica,sans-Serif" font-size="10.00" fill="#63b8ff">1</text>
</a>
</g>
</g>
<!-- dir_fd66a323d8852e8cc1d73cbaf16fef5d&#45;&gt;dir_dd53a79962c9192ff6a58c50e381252a -->
<g id="edge6" class="edge">
<title>dir_fd66a323d8852e8cc1d73cbaf16fef5d&#45;&gt;dir_dd53a79962c9192ff6a58c50e381252a</title>
<g id="a_edge6"><a xlink:href="dir_000241_000123.html" target="_top">
<path fill="none" stroke="#63b8ff" d="M287,-126.33C287,-119.82 287,-110.67 287,-102.37"/>
<polygon fill="#63b8ff" stroke="#63b8ff" points="290.5,-102.37 287,-92.37 283.5,-102.37 290.5,-102.37"/>
</a>
</g>
<g id="a_edge6&#45;headlabel"><a xlink:href="dir_000241_000123.html" target="_top" xlink:title="3">
<text text-anchor="middle" x="293.34" y="-100.58" font-family="Helvetica,sans-Serif" font-size="10.00" fill="#63b8ff">3</text>
</a>
</g>
</g>
</g>
</svg>
