<?xml version="1.0" encoding="UTF-8" standalone="no"?>
<!DOCTYPE svg PUBLIC "-//W3C//DTD SVG 1.1//EN"
 "http://www.w3.org/Graphics/SVG/1.1/DTD/svg11.dtd">
<!-- Generated by graphviz version 9.0.0 (20230911.1827)
 -->
<!-- Title: sourcecode/trigger Pages: 1 -->
<svg width="664pt" height="197pt"
 viewBox="0.00 0.00 664.00 197.00" xmlns="http://www.w3.org/2000/svg" xmlns:xlink="http://www.w3.org/1999/xlink">
<g id="graph0" class="graph" transform="scale(1 1) rotate(0) translate(4 193)">
<title>sourcecode/trigger</title>
<g id="clust1" class="cluster">
<title>clusterdir_b89c6037bfefa0e5d020a7058f32a811</title>
<g id="a_clust1"><a xlink:href="dir_b89c6037bfefa0e5d020a7058f32a811.html" target="_top" xlink:title="sourcecode">
<polygon fill="#edf0f7" stroke="#404040" stroke-dasharray="5,2" points="8,-8 8,-181 648,-181 648,-8 8,-8"/>
<text text-anchor="middle" x="328" y="-167.5" font-family="Helvetica,sans-Serif" font-size="10.00">sourcecode</text>
</a>
</g>
</g>
<g id="clust2" class="cluster">
<title>clusterdir_cae853bdc153f53990ba791f4a64d419</title>
<g id="a_clust2"><a xlink:href="dir_cae853bdc153f53990ba791f4a64d419.html" target="_top">
<polygon fill="#edf0f7" stroke="#404040" stroke-width="2" points="196,-63.25 196,-153.75 421,-153.75 421,-63.25 196,-63.25"/>
</a>
</g>
</g>
<!-- dir_443866e9f10fcfd291364a22f6a0ca3a -->
<g id="node1" class="node">
<title>dir_443866e9f10fcfd291364a22f6a0ca3a</title>
<g id="a_node1"><a xlink:href="dir_443866e9f10fcfd291364a22f6a0ca3a.html" target="_top" xlink:title="readoutlibs">
<polygon fill="#a2b4d6" stroke="red" points="176.62,-90.5 113.38,-90.5 113.38,-71.25 176.62,-71.25 176.62,-90.5"/>
<text text-anchor="middle" x="145" y="-77" font-family="Helvetica,sans-Serif" font-size="10.00">readoutlibs</text>
</a>
</g>
</g>
<!-- dir_b620d3bc325baca79d772d7a5b5e4e14 -->
<g id="node2" class="node">
<title>dir_b620d3bc325baca79d772d7a5b5e4e14</title>
<g id="a_node2"><a xlink:href="dir_b620d3bc325baca79d772d7a5b5e4e14.html" target="_top" xlink:title="iomanager">
<polygon fill="#a2b4d6" stroke="red" points="156.5,-35.25 95.5,-35.25 95.5,-16 156.5,-16 156.5,-35.25"/>
<text text-anchor="middle" x="126" y="-21.75" font-family="Helvetica,sans-Serif" font-size="10.00">iomanager</text>
</a>
</g>
</g>
<!-- dir_c1d31a17cfc5a8e22d0bf9593101cb65 -->
<g id="node3" class="node">
<title>dir_c1d31a17cfc5a8e22d0bf9593101cb65</title>
<g id="a_node3"><a xlink:href="dir_c1d31a17cfc5a8e22d0bf9593101cb65.html" target="_top" xlink:title="triggeralgs">
<polygon fill="#a2b4d6" stroke="red" points="77.5,-35.25 16.5,-35.25 16.5,-16 77.5,-16 77.5,-35.25"/>
<text text-anchor="middle" x="47" y="-21.75" font-family="Helvetica,sans-Serif" font-size="10.00">triggeralgs</text>
</a>
</g>
</g>
<!-- dir_d825b831d5f4002527e46bb27072c2b3 -->
<g id="node4" class="node">
<title>dir_d825b831d5f4002527e46bb27072c2b3</title>
<g id="a_node4"><a xlink:href="dir_d825b831d5f4002527e46bb27072c2b3.html" target="_top" xlink:title="logging">
<polygon fill="#a2b4d6" stroke="red" points="640.38,-90.5 593.62,-90.5 593.62,-71.25 640.38,-71.25 640.38,-90.5"/>
<text text-anchor="middle" x="617" y="-77" font-family="Helvetica,sans-Serif" font-size="10.00">logging</text>
</a>
</g>
</g>
<!-- dir_21f361739d8867751cd2763b9903b707 -->
<g id="node5" class="node">
<title>dir_21f361739d8867751cd2763b9903b707</title>
<g id="a_node5"><a xlink:href="dir_21f361739d8867751cd2763b9903b707.html" target="_top" xlink:title="appfwk">
<polygon fill="#a2b4d6" stroke="red" points="353.75,-35.25 306.25,-35.25 306.25,-16 353.75,-16 353.75,-35.25"/>
<text text-anchor="middle" x="330" y="-21.75" font-family="Helvetica,sans-Serif" font-size="10.00">appfwk</text>
</a>
</g>
</g>
<!-- dir_f38c03f336a0b3deec81b9cab2eb45b9 -->
<g id="node6" class="node">
<title>dir_f38c03f336a0b3deec81b9cab2eb45b9</title>
<g id="a_node6"><a xlink:href="dir_f38c03f336a0b3deec81b9cab2eb45b9.html" target="_top" xlink:title="daqdataformats">
<polygon fill="#a2b4d6" stroke="red" points="455.75,-35.25 372.25,-35.25 372.25,-16 455.75,-16 455.75,-35.25"/>
<text text-anchor="middle" x="414" y="-21.75" font-family="Helvetica,sans-Serif" font-size="10.00">daqdataformats</text>
</a>
</g>
</g>
<!-- dir_0a1713e4fb81d523db81c567ef556d2d -->
<g id="node7" class="node">
<title>dir_0a1713e4fb81d523db81c567ef556d2d</title>
<g id="a_node7"><a xlink:href="dir_0a1713e4fb81d523db81c567ef556d2d.html" target="_top" xlink:title="ers">
<polygon fill="#a2b4d6" stroke="red" points="203.75,-35.25 174.25,-35.25 174.25,-16 203.75,-16 203.75,-35.25"/>
<text text-anchor="middle" x="189" y="-21.75" font-family="Helvetica,sans-Serif" font-size="10.00">ers</text>
</a>
</g>
</g>
<!-- dir_dceb19d548bc0feb9e26296097fb882a -->
<g id="node8" class="node">
<title>dir_dceb19d548bc0feb9e26296097fb882a</title>
<g id="a_node8"><a xlink:href="dir_dceb19d548bc0feb9e26296097fb882a.html" target="_top" xlink:title="trgdataformats">
<polygon fill="#a2b4d6" stroke="red" points="552.5,-35.25 473.5,-35.25 473.5,-16 552.5,-16 552.5,-35.25"/>
<text text-anchor="middle" x="513" y="-21.75" font-family="Helvetica,sans-Serif" font-size="10.00">trgdataformats</text>
</a>
</g>
</g>
<!-- dir_92ed34f07df7a82417c7be964d3002da -->
<g id="node9" class="node">
<title>dir_92ed34f07df7a82417c7be964d3002da</title>
<g id="a_node9"><a xlink:href="dir_92ed34f07df7a82417c7be964d3002da.html" target="_top" xlink:title="dfmessages">
<polygon fill="#a2b4d6" stroke="red" points="639.62,-35.25 570.38,-35.25 570.38,-16 639.62,-16 639.62,-35.25"/>
<text text-anchor="middle" x="605" y="-21.75" font-family="Helvetica,sans-Serif" font-size="10.00">dfmessages</text>
</a>
</g>
</g>
<!-- dir_aae5e3cd3f43e577e96215716dce9c16 -->
<g id="node10" class="node">
<title>dir_aae5e3cd3f43e577e96215716dce9c16</title>
<g id="a_node10"><a xlink:href="dir_aae5e3cd3f43e577e96215716dce9c16.html" target="_top" xlink:title="serialization">
<polygon fill="#a2b4d6" stroke="red" points="288.5,-35.25 221.5,-35.25 221.5,-16 288.5,-16 288.5,-35.25"/>
<text text-anchor="middle" x="255" y="-21.75" font-family="Helvetica,sans-Serif" font-size="10.00">serialization</text>
</a>
</g>
</g>
<!-- dir_c502843d9d478212e9ef7c5af298ff11 -->
<g id="node11" class="node">
<title>dir_c502843d9d478212e9ef7c5af298ff11</title>
<g id="a_node11"><a xlink:href="dir_c502843d9d478212e9ef7c5af298ff11.html" target="_top" xlink:title="detdataformats">
<polygon fill="#a2b4d6" stroke="red" points="510.62,-90.5 429.38,-90.5 429.38,-71.25 510.62,-71.25 510.62,-90.5"/>
<text text-anchor="middle" x="470" y="-77" font-family="Helvetica,sans-Serif" font-size="10.00">detdataformats</text>
</a>
</g>
</g>
<!-- dir_bd573d70419336b23551d1d967e5b64a -->
<g id="node12" class="node">
<title>dir_bd573d70419336b23551d1d967e5b64a</title>
<g id="a_node12"><a xlink:href="dir_bd573d70419336b23551d1d967e5b64a.html" target="_top" xlink:title="utilities">
<polygon fill="#a2b4d6" stroke="red" points="575.38,-90.5 528.62,-90.5 528.62,-71.25 575.38,-71.25 575.38,-90.5"/>
<text text-anchor="middle" x="552" y="-77" font-family="Helvetica,sans-Serif" font-size="10.00">utilities</text>
</a>
</g>
</g>
<!-- dir_cae853bdc153f53990ba791f4a64d419 -->
<g id="node13" class="node">
<title>dir_cae853bdc153f53990ba791f4a64d419</title>
<text text-anchor="middle" x="391" y="-132.25" font-family="Helvetica,sans-Serif" font-size="10.00">trigger</text>
</g>
<!-- dir_af983ed9b4b1bb333a96f579865658cf -->
<g id="node14" class="node">
<title>dir_af983ed9b4b1bb333a96f579865658cf</title>
<g id="a_node14"><a xlink:href="dir_af983ed9b4b1bb333a96f579865658cf.html" target="_top" xlink:title="docs">
<polygon fill="#a2b4d6" stroke="#404040" points="351.5,-145.75 314.5,-145.75 314.5,-126.5 351.5,-126.5 351.5,-145.75"/>
<text text-anchor="middle" x="333" y="-132.25" font-family="Helvetica,sans-Serif" font-size="10.00">docs</text>
</a>
</g>
</g>
<!-- dir_adeb1f6c988169b06a739d75b23e8f31 -->
<g id="node15" class="node">
<title>dir_adeb1f6c988169b06a739d75b23e8f31</title>
<g id="a_node15"><a xlink:href="dir_adeb1f6c988169b06a739d75b23e8f31.html" target="_top" xlink:title="include">
<polygon fill="#a2b4d6" stroke="#404040" points="281.38,-90.5 234.62,-90.5 234.62,-71.25 281.38,-71.25 281.38,-90.5"/>
<text text-anchor="middle" x="258" y="-77" font-family="Helvetica,sans-Serif" font-size="10.00">include</text>
</a>
</g>
</g>
<!-- dir_adeb1f6c988169b06a739d75b23e8f31&#45;&gt;dir_b620d3bc325baca79d772d7a5b5e4e14 -->
<g id="edge8" class="edge">
<title>dir_adeb1f6c988169b06a739d75b23e8f31&#45;&gt;dir_b620d3bc325baca79d772d7a5b5e4e14</title>
<g id="a_edge8"><a xlink:href="dir_000150_000156.html" target="_top">
<path fill="none" stroke="#63b8ff" d="M244.59,-70.83C240.35,-68.18 235.57,-65.42 231,-63.25 210.65,-53.57 187.02,-45.11 167.34,-38.76"/>
<polygon fill="#63b8ff" stroke="#63b8ff" points="168.59,-35.48 158.01,-35.82 166.49,-42.16 168.59,-35.48"/>
</a>
</g>
<g id="a_edge8&#45;headlabel"><a xlink:href="dir_000150_000156.html" target="_top" xlink:title="1">
<text text-anchor="middle" x="171.43" y="-29.53" font-family="Helvetica,sans-Serif" font-size="10.00" fill="#63b8ff">1</text>
</a>
</g>
</g>
<!-- dir_adeb1f6c988169b06a739d75b23e8f31&#45;&gt;dir_c1d31a17cfc5a8e22d0bf9593101cb65 -->
<g id="edge1" class="edge">
<title>dir_adeb1f6c988169b06a739d75b23e8f31&#45;&gt;dir_c1d31a17cfc5a8e22d0bf9593101cb65</title>
<g id="a_edge1"><a xlink:href="dir_000150_000285.html" target="_top">
<path fill="none" stroke="#63b8ff" d="M245.31,-70.76C240.95,-67.98 235.92,-65.17 231,-63.25 173.06,-40.69 152.45,-47.69 88.7,-35.67"/>
<polygon fill="#63b8ff" stroke="#63b8ff" points="89.61,-32.29 79.12,-33.78 88.25,-39.15 89.61,-32.29"/>
</a>
</g>
<g id="a_edge1&#45;headlabel"><a xlink:href="dir_000150_000285.html" target="_top" xlink:title="15">
<text text-anchor="middle" x="92.21" y="-26.03" font-family="Helvetica,sans-Serif" font-size="10.00" fill="#63b8ff">15</text>
</a>
</g>
</g>
<!-- dir_adeb1f6c988169b06a739d75b23e8f31&#45;&gt;dir_21f361739d8867751cd2763b9903b707 -->
<g id="edge2" class="edge">
<title>dir_adeb1f6c988169b06a739d75b23e8f31&#45;&gt;dir_21f361739d8867751cd2763b9903b707</title>
<g id="a_edge2"><a xlink:href="dir_000150_000005.html" target="_top">
<path fill="none" stroke="#63b8ff" d="M270.21,-70.84C280.83,-62.99 296.44,-51.45 309.04,-42.12"/>
<polygon fill="#63b8ff" stroke="#63b8ff" points="310.79,-45.19 316.75,-36.42 306.63,-39.56 310.79,-45.19"/>
</a>
</g>
<g id="a_edge2&#45;headlabel"><a xlink:href="dir_000150_000005.html" target="_top" xlink:title="1">
<text text-anchor="middle" x="310.81" y="-44.83" font-family="Helvetica,sans-Serif" font-size="10.00" fill="#63b8ff">1</text>
</a>
</g>
</g>
<!-- dir_adeb1f6c988169b06a739d75b23e8f31&#45;&gt;dir_f38c03f336a0b3deec81b9cab2eb45b9 -->
<g id="edge3" class="edge">
<title>dir_adeb1f6c988169b06a739d75b23e8f31&#45;&gt;dir_f38c03f336a0b3deec81b9cab2eb45b9</title>
<g id="a_edge3"><a xlink:href="dir_000150_000033.html" target="_top">
<path fill="none" stroke="#63b8ff" d="M271.06,-70.83C275.36,-68.13 280.26,-65.33 285,-63.25 309.19,-52.61 337.3,-44.21 361.08,-38.15"/>
<polygon fill="#63b8ff" stroke="#63b8ff" points="361.69,-41.6 370.56,-35.81 360.01,-34.81 361.69,-41.6"/>
</a>
</g>
<g id="a_edge3&#45;headlabel"><a xlink:href="dir_000150_000033.html" target="_top" xlink:title="8">
<text text-anchor="middle" x="360.35" y="-40.98" font-family="Helvetica,sans-Serif" font-size="10.00" fill="#63b8ff">8</text>
</a>
</g>
</g>
<!-- dir_adeb1f6c988169b06a739d75b23e8f31&#45;&gt;dir_0a1713e4fb81d523db81c567ef556d2d -->
<g id="edge4" class="edge">
<title>dir_adeb1f6c988169b06a739d75b23e8f31&#45;&gt;dir_0a1713e4fb81d523db81c567ef556d2d</title>
<g id="a_edge4"><a xlink:href="dir_000150_000103.html" target="_top">
<path fill="none" stroke="#63b8ff" d="M246.3,-70.84C236.22,-63.07 221.46,-51.67 209.44,-42.4"/>
<polygon fill="#63b8ff" stroke="#63b8ff" points="211.79,-39.79 201.73,-36.45 207.51,-45.33 211.79,-39.79"/>
</a>
</g>
<g id="a_edge4&#45;headlabel"><a xlink:href="dir_000150_000103.html" target="_top" xlink:title="1">
<text text-anchor="middle" x="215.17" y="-34.94" font-family="Helvetica,sans-Serif" font-size="10.00" fill="#63b8ff">1</text>
</a>
</g>
</g>
<!-- dir_adeb1f6c988169b06a739d75b23e8f31&#45;&gt;dir_dceb19d548bc0feb9e26296097fb882a -->
<g id="edge5" class="edge">
<title>dir_adeb1f6c988169b06a739d75b23e8f31&#45;&gt;dir_dceb19d548bc0feb9e26296097fb882a</title>
<g id="a_edge5"><a xlink:href="dir_000150_000278.html" target="_top">
<path fill="none" stroke="#63b8ff" d="M270.37,-70.83C274.8,-67.99 279.94,-65.12 285,-63.25 357.7,-36.45 382.98,-47.56 462.19,-35.61"/>
<polygon fill="#63b8ff" stroke="#63b8ff" points="462.38,-39.12 471.71,-34.09 461.28,-32.21 462.38,-39.12"/>
</a>
</g>
<g id="a_edge5&#45;headlabel"><a xlink:href="dir_000150_000278.html" target="_top" xlink:title="5">
<text text-anchor="middle" x="460.77" y="-38.38" font-family="Helvetica,sans-Serif" font-size="10.00" fill="#63b8ff">5</text>
</a>
</g>
</g>
<!-- dir_adeb1f6c988169b06a739d75b23e8f31&#45;&gt;dir_92ed34f07df7a82417c7be964d3002da -->
<g id="edge6" class="edge">
<title>dir_adeb1f6c988169b06a739d75b23e8f31&#45;&gt;dir_92ed34f07df7a82417c7be964d3002da</title>
<g id="a_edge6"><a xlink:href="dir_000150_000064.html" target="_top">
<path fill="none" stroke="#63b8ff" d="M270.05,-70.84C274.53,-67.94 279.79,-65.01 285,-63.25 398.77,-24.75 437.38,-51.96 559.07,-35.5"/>
<polygon fill="#63b8ff" stroke="#63b8ff" points="559.42,-38.98 568.82,-34.1 558.42,-32.05 559.42,-38.98"/>
</a>
</g>
<g id="a_edge6&#45;headlabel"><a xlink:href="dir_000150_000064.html" target="_top" xlink:title="3">
<text text-anchor="middle" x="557.76" y="-38.21" font-family="Helvetica,sans-Serif" font-size="10.00" fill="#63b8ff">3</text>
</a>
</g>
</g>
<!-- dir_adeb1f6c988169b06a739d75b23e8f31&#45;&gt;dir_aae5e3cd3f43e577e96215716dce9c16 -->
<g id="edge7" class="edge">
<title>dir_adeb1f6c988169b06a739d75b23e8f31&#45;&gt;dir_aae5e3cd3f43e577e96215716dce9c16</title>
<g id="a_edge7"><a xlink:href="dir_000150_000234.html" target="_top">
<path fill="none" stroke="#63b8ff" d="M257.5,-71.08C257.13,-64.49 256.61,-55.21 256.14,-46.82"/>
<polygon fill="#63b8ff" stroke="#63b8ff" points="259.65,-46.91 255.59,-37.12 252.66,-47.3 259.65,-46.91"/>
</a>
</g>
<g id="a_edge7&#45;headlabel"><a xlink:href="dir_000150_000234.html" target="_top" xlink:title="6">
<text text-anchor="middle" x="262.6" y="-44.95" font-family="Helvetica,sans-Serif" font-size="10.00" fill="#63b8ff">6</text>
</a>
</g>
</g>
<!-- dir_d9b79339ced1885fd03b06e93e4588e7 -->
<g id="node16" class="node">
<title>dir_d9b79339ced1885fd03b06e93e4588e7</title>
<g id="a_node16"><a xlink:href="dir_d9b79339ced1885fd03b06e93e4588e7.html" target="_top" xlink:title="python">
<polygon fill="#a2b4d6" stroke="#404040" points="296.25,-145.75 251.75,-145.75 251.75,-126.5 296.25,-126.5 296.25,-145.75"/>
<text text-anchor="middle" x="274" y="-132.25" font-family="Helvetica,sans-Serif" font-size="10.00">python</text>
</a>
</g>
</g>
<!-- dir_2ab34726debbca26bad4863c92c91d84 -->
<g id="node17" class="node">
<title>dir_2ab34726debbca26bad4863c92c91d84</title>
<g id="a_node17"><a xlink:href="dir_2ab34726debbca26bad4863c92c91d84.html" target="_top" xlink:title="src">
<polygon fill="#a2b4d6" stroke="#404040" points="233.75,-145.75 204.25,-145.75 204.25,-126.5 233.75,-126.5 233.75,-145.75"/>
<text text-anchor="middle" x="219" y="-132.25" font-family="Helvetica,sans-Serif" font-size="10.00">src</text>
</a>
</g>
</g>
<!-- dir_2ab34726debbca26bad4863c92c91d84&#45;&gt;dir_443866e9f10fcfd291364a22f6a0ca3a -->
<g id="edge9" class="edge">
<title>dir_2ab34726debbca26bad4863c92c91d84&#45;&gt;dir_443866e9f10fcfd291364a22f6a0ca3a</title>
<g id="a_edge9"><a xlink:href="dir_000264_000221.html" target="_top">
<path fill="none" stroke="#63b8ff" d="M206.45,-126.09C195.54,-118.24 179.5,-106.7 166.54,-97.37"/>
<polygon fill="#63b8ff" stroke="#63b8ff" points="168.76,-94.66 158.6,-91.66 164.67,-100.34 168.76,-94.66"/>
</a>
</g>
<g id="a_edge9&#45;headlabel"><a xlink:href="dir_000264_000221.html" target="_top" xlink:title="26">
<text text-anchor="middle" x="172.11" y="-89.69" font-family="Helvetica,sans-Serif" font-size="10.00" fill="#63b8ff">26</text>
</a>
</g>
</g>
<!-- dir_2ab34726debbca26bad4863c92c91d84&#45;&gt;dir_b620d3bc325baca79d772d7a5b5e4e14 -->
<g id="edge11" class="edge">
<title>dir_2ab34726debbca26bad4863c92c91d84&#45;&gt;dir_b620d3bc325baca79d772d7a5b5e4e14</title>
<g id="a_edge11"><a xlink:href="dir_000264_000156.html" target="_top">
<path fill="none" stroke="#63b8ff" d="M219.08,-126.11C218.74,-111.36 216.06,-81.84 201,-63.25 192.31,-52.52 179.69,-44.7 167.28,-39.12"/>
<polygon fill="#63b8ff" stroke="#63b8ff" points="168.97,-36.03 158.39,-35.5 166.34,-42.51 168.97,-36.03"/>
</a>
</g>
<g id="a_edge11&#45;headlabel"><a xlink:href="dir_000264_000156.html" target="_top" xlink:title="25">
<text text-anchor="middle" x="171.97" y="-30.31" font-family="Helvetica,sans-Serif" font-size="10.00" fill="#63b8ff">25</text>
</a>
</g>
</g>
<!-- dir_2ab34726debbca26bad4863c92c91d84&#45;&gt;dir_c1d31a17cfc5a8e22d0bf9593101cb65 -->
<g id="edge12" class="edge">
<title>dir_2ab34726debbca26bad4863c92c91d84&#45;&gt;dir_c1d31a17cfc5a8e22d0bf9593101cb65</title>
<g id="a_edge12"><a xlink:href="dir_000264_000285.html" target="_top">
<path fill="none" stroke="#63b8ff" d="M215.37,-126.12C207.93,-107.82 191.18,-67.6 186,-63.25 182.16,-60.02 128.18,-46.37 88.64,-36.68"/>
<polygon fill="#63b8ff" stroke="#63b8ff" points="89.69,-33.33 79.14,-34.36 88.03,-40.13 89.69,-33.33"/>
</a>
</g>
<g id="a_edge12&#45;headlabel"><a xlink:href="dir_000264_000285.html" target="_top" xlink:title="15">
<text text-anchor="middle" x="92.38" y="-27.19" font-family="Helvetica,sans-Serif" font-size="10.00" fill="#63b8ff">15</text>
</a>
</g>
</g>
<!-- dir_2ab34726debbca26bad4863c92c91d84&#45;&gt;dir_d825b831d5f4002527e46bb27072c2b3 -->
<g id="edge13" class="edge">
<title>dir_2ab34726debbca26bad4863c92c91d84&#45;&gt;dir_d825b831d5f4002527e46bb27072c2b3</title>
<g id="a_edge13"><a xlink:href="dir_000264_000164.html" target="_top">
<path fill="none" stroke="#63b8ff" d="M234.07,-129.09C237,-128.1 240.07,-127.17 243,-126.5 388.07,-93.28 432.02,-116.69 582.3,-90.5"/>
<polygon fill="#63b8ff" stroke="#63b8ff" points="582.59,-94 591.81,-88.79 581.35,-87.11 582.59,-94"/>
</a>
</g>
<g id="a_edge13&#45;headlabel"><a xlink:href="dir_000264_000164.html" target="_top" xlink:title="11">
<text text-anchor="middle" x="581.04" y="-93.29" font-family="Helvetica,sans-Serif" font-size="10.00" fill="#63b8ff">11</text>
</a>
</g>
</g>
<!-- dir_2ab34726debbca26bad4863c92c91d84&#45;&gt;dir_21f361739d8867751cd2763b9903b707 -->
<g id="edge18" class="edge">
<title>dir_2ab34726debbca26bad4863c92c91d84&#45;&gt;dir_21f361739d8867751cd2763b9903b707</title>
<g id="a_edge18"><a xlink:href="dir_000264_000005.html" target="_top">
<path fill="none" stroke="#63b8ff" d="M234.23,-128.1C249.63,-120.46 273.44,-107.09 290,-90.5 303.14,-77.33 314.03,-59.09 321.11,-45.47"/>
<polygon fill="#63b8ff" stroke="#63b8ff" points="324.15,-47.2 325.45,-36.68 317.88,-44.09 324.15,-47.2"/>
</a>
</g>
<g id="a_edge18&#45;headlabel"><a xlink:href="dir_000264_000005.html" target="_top" xlink:title="1">
<text text-anchor="middle" x="325.78" y="-46.45" font-family="Helvetica,sans-Serif" font-size="10.00" fill="#63b8ff">1</text>
</a>
</g>
</g>
<!-- dir_2ab34726debbca26bad4863c92c91d84&#45;&gt;dir_f38c03f336a0b3deec81b9cab2eb45b9 -->
<g id="edge16" class="edge">
<title>dir_2ab34726debbca26bad4863c92c91d84&#45;&gt;dir_f38c03f336a0b3deec81b9cab2eb45b9</title>
<g id="a_edge16"><a xlink:href="dir_000264_000033.html" target="_top">
<path fill="none" stroke="#63b8ff" d="M234.04,-127.62C251.3,-118.93 280.41,-104.07 305,-90.5 334.37,-74.29 367.56,-54.64 389.52,-41.46"/>
<polygon fill="#63b8ff" stroke="#63b8ff" points="391.27,-44.49 398.03,-36.33 387.66,-38.49 391.27,-44.49"/>
</a>
</g>
<g id="a_edge16&#45;headlabel"><a xlink:href="dir_000264_000033.html" target="_top" xlink:title="2">
<text text-anchor="middle" x="390.96" y="-44.12" font-family="Helvetica,sans-Serif" font-size="10.00" fill="#63b8ff">2</text>
</a>
</g>
</g>
<!-- dir_2ab34726debbca26bad4863c92c91d84&#45;&gt;dir_dceb19d548bc0feb9e26296097fb882a -->
<g id="edge17" class="edge">
<title>dir_2ab34726debbca26bad4863c92c91d84&#45;&gt;dir_dceb19d548bc0feb9e26296097fb882a</title>
<g id="a_edge17"><a xlink:href="dir_000264_000278.html" target="_top">
<path fill="none" stroke="#63b8ff" d="M234.03,-129.31C255.72,-120.88 297.03,-104.73 332,-90.5 361.01,-78.69 367.59,-74.03 397,-63.25 421.26,-54.36 448.82,-45.6 470.99,-38.88"/>
<polygon fill="#63b8ff" stroke="#63b8ff" points="471.7,-42.32 480.27,-36.09 469.69,-35.62 471.7,-42.32"/>
</a>
</g>
<g id="a_edge17&#45;headlabel"><a xlink:href="dir_000264_000278.html" target="_top" xlink:title="3">
<text text-anchor="middle" x="470.52" y="-41.76" font-family="Helvetica,sans-Serif" font-size="10.00" fill="#63b8ff">3</text>
</a>
</g>
</g>
<!-- dir_2ab34726debbca26bad4863c92c91d84&#45;&gt;dir_92ed34f07df7a82417c7be964d3002da -->
<g id="edge15" class="edge">
<title>dir_2ab34726debbca26bad4863c92c91d84&#45;&gt;dir_92ed34f07df7a82417c7be964d3002da</title>
<g id="a_edge15"><a xlink:href="dir_000264_000064.html" target="_top">
<path fill="none" stroke="#63b8ff" d="M234.18,-129.5C237.1,-128.46 240.13,-127.42 243,-126.5 298.44,-108.64 315.01,-112.35 369,-90.5 392.82,-80.86 395.8,-71.89 420,-63.25 477.27,-42.82 496.78,-47.21 559.02,-35.76"/>
<polygon fill="#63b8ff" stroke="#63b8ff" points="559.62,-39.21 568.78,-33.89 558.3,-32.33 559.62,-39.21"/>
</a>
</g>
<g id="a_edge15&#45;headlabel"><a xlink:href="dir_000264_000064.html" target="_top" xlink:title="7">
<text text-anchor="middle" x="558.11" y="-38.51" font-family="Helvetica,sans-Serif" font-size="10.00" fill="#63b8ff">7</text>
</a>
</g>
</g>
<!-- dir_2ab34726debbca26bad4863c92c91d84&#45;&gt;dir_c502843d9d478212e9ef7c5af298ff11 -->
<g id="edge14" class="edge">
<title>dir_2ab34726debbca26bad4863c92c91d84&#45;&gt;dir_c502843d9d478212e9ef7c5af298ff11</title>
<g id="a_edge14"><a xlink:href="dir_000264_000061.html" target="_top">
<path fill="none" stroke="#63b8ff" d="M234.12,-129.3C237.04,-128.29 240.1,-127.3 243,-126.5 251.43,-124.17 353.6,-104.33 417.96,-91.9"/>
<polygon fill="#63b8ff" stroke="#63b8ff" points="418.47,-95.37 427.63,-90.03 417.15,-88.49 418.47,-95.37"/>
</a>
</g>
<g id="a_edge14&#45;headlabel"><a xlink:href="dir_000264_000061.html" target="_top" xlink:title="3">
<text text-anchor="middle" x="416.97" y="-94.67" font-family="Helvetica,sans-Serif" font-size="10.00" fill="#63b8ff">3</text>
</a>
</g>
</g>
<!-- dir_2ab34726debbca26bad4863c92c91d84&#45;&gt;dir_bd573d70419336b23551d1d967e5b64a -->
<g id="edge19" class="edge">
<title>dir_2ab34726debbca26bad4863c92c91d84&#45;&gt;dir_bd573d70419336b23551d1d967e5b64a</title>
<g id="a_edge19"><a xlink:href="dir_000264_000287.html" target="_top">
<path fill="none" stroke="#63b8ff" d="M234.08,-129.15C237.01,-128.15 240.07,-127.21 243,-126.5 360.14,-98.19 396.14,-113.73 517.13,-90.82"/>
<polygon fill="#63b8ff" stroke="#63b8ff" points="517.69,-94.28 526.83,-88.93 516.35,-87.41 517.69,-94.28"/>
</a>
</g>
<g id="a_edge19&#45;headlabel"><a xlink:href="dir_000264_000287.html" target="_top" xlink:title="1">
<text text-anchor="middle" x="516.19" y="-93.59" font-family="Helvetica,sans-Serif" font-size="10.00" fill="#63b8ff">1</text>
</a>
</g>
</g>
<!-- dir_2ab34726debbca26bad4863c92c91d84&#45;&gt;dir_adeb1f6c988169b06a739d75b23e8f31 -->
<g id="edge10" class="edge">
<title>dir_2ab34726debbca26bad4863c92c91d84&#45;&gt;dir_adeb1f6c988169b06a739d75b23e8f31</title>
<g id="a_edge10"><a xlink:href="dir_000264_000150.html" target="_top">
<path fill="none" stroke="#63b8ff" d="M225.44,-126.33C230.66,-119.21 238.19,-108.93 244.69,-100.05"/>
<polygon fill="#63b8ff" stroke="#63b8ff" points="247.44,-102.22 250.53,-92.08 241.79,-98.08 247.44,-102.22"/>
</a>
</g>
<g id="a_edge10&#45;headlabel"><a xlink:href="dir_000264_000150.html" target="_top" xlink:title="20">
<text text-anchor="middle" x="248.5" y="-101.7" font-family="Helvetica,sans-Serif" font-size="10.00" fill="#63b8ff">20</text>
</a>
</g>
</g>
</g>
</svg>
