<?xml version="1.0" encoding="UTF-8" standalone="no"?>
<!DOCTYPE svg PUBLIC "-//W3C//DTD SVG 1.1//EN"
 "http://www.w3.org/Graphics/SVG/1.1/DTD/svg11.dtd">
<!-- Generated by graphviz version 9.0.0 (20230911.1827)
 -->
<!-- Title: sourcecode/iomanager Pages: 1 -->
<svg width="406pt" height="197pt"
 viewBox="0.00 0.00 406.00 197.00" xmlns="http://www.w3.org/2000/svg" xmlns:xlink="http://www.w3.org/1999/xlink">
<g id="graph0" class="graph" transform="scale(1 1) rotate(0) translate(4 193)">
<title>sourcecode/iomanager</title>
<g id="clust1" class="cluster">
<title>clusterdir_b89c6037bfefa0e5d020a7058f32a811</title>
<g id="a_clust1"><a xlink:href="dir_b89c6037bfefa0e5d020a7058f32a811.html" target="_top" xlink:title="sourcecode">
<polygon fill="#edf0f7" stroke="#404040" stroke-dasharray="5,2" points="8,-8 8,-181 390,-181 390,-8 8,-8"/>
<text text-anchor="middle" x="199" y="-167.5" font-family="Helvetica,sans-Serif" font-size="10.00">sourcecode</text>
</a>
</g>
</g>
<g id="clust2" class="cluster">
<title>clusterdir_b620d3bc325baca79d772d7a5b5e4e14</title>
<g id="a_clust2"><a xlink:href="dir_b620d3bc325baca79d772d7a5b5e4e14.html" target="_top">
<polygon fill="#edf0f7" stroke="#404040" stroke-width="2" points="202,-63.25 202,-153.75 382,-153.75 382,-63.25 202,-63.25"/>
</a>
</g>
</g>
<!-- dir_0a1713e4fb81d523db81c567ef556d2d -->
<g id="node1" class="node">
<title>dir_0a1713e4fb81d523db81c567ef556d2d</title>
<g id="a_node1"><a xlink:href="dir_0a1713e4fb81d523db81c567ef556d2d.html" target="_top" xlink:title="ers">
<polygon fill="#a2b4d6" stroke="red" points="130.75,-35.25 101.25,-35.25 101.25,-16 130.75,-16 130.75,-35.25"/>
<text text-anchor="middle" x="116" y="-21.75" font-family="Helvetica,sans-Serif" font-size="10.00">ers</text>
</a>
</g>
</g>
<!-- dir_aae5e3cd3f43e577e96215716dce9c16 -->
<g id="node2" class="node">
<title>dir_aae5e3cd3f43e577e96215716dce9c16</title>
<g id="a_node2"><a xlink:href="dir_aae5e3cd3f43e577e96215716dce9c16.html" target="_top" xlink:title="serialization">
<polygon fill="#a2b4d6" stroke="red" points="83.5,-35.25 16.5,-35.25 16.5,-16 83.5,-16 83.5,-35.25"/>
<text text-anchor="middle" x="50" y="-21.75" font-family="Helvetica,sans-Serif" font-size="10.00">serialization</text>
</a>
</g>
</g>
<!-- dir_b3c84c55807c6d5d0108c7c00a497a0d -->
<g id="node3" class="node">
<title>dir_b3c84c55807c6d5d0108c7c00a497a0d</title>
<g id="a_node3"><a xlink:href="dir_b3c84c55807c6d5d0108c7c00a497a0d.html" target="_top" xlink:title="ipm">
<polygon fill="#a2b4d6" stroke="red" points="317.88,-35.25 286.12,-35.25 286.12,-16 317.88,-16 317.88,-35.25"/>
<text text-anchor="middle" x="302" y="-21.75" font-family="Helvetica,sans-Serif" font-size="10.00">ipm</text>
</a>
</g>
</g>
<!-- dir_bd573d70419336b23551d1d967e5b64a -->
<g id="node4" class="node">
<title>dir_bd573d70419336b23551d1d967e5b64a</title>
<g id="a_node4"><a xlink:href="dir_bd573d70419336b23551d1d967e5b64a.html" target="_top" xlink:title="utilities">
<polygon fill="#a2b4d6" stroke="red" points="382.38,-35.25 335.62,-35.25 335.62,-16 382.38,-16 382.38,-35.25"/>
<text text-anchor="middle" x="359" y="-21.75" font-family="Helvetica,sans-Serif" font-size="10.00">utilities</text>
</a>
</g>
</g>
<!-- dir_d825b831d5f4002527e46bb27072c2b3 -->
<g id="node5" class="node">
<title>dir_d825b831d5f4002527e46bb27072c2b3</title>
<g id="a_node5"><a xlink:href="dir_d825b831d5f4002527e46bb27072c2b3.html" target="_top" xlink:title="logging">
<polygon fill="#a2b4d6" stroke="red" points="268.38,-35.25 221.62,-35.25 221.62,-16 268.38,-16 268.38,-35.25"/>
<text text-anchor="middle" x="245" y="-21.75" font-family="Helvetica,sans-Serif" font-size="10.00">logging</text>
</a>
</g>
</g>
<!-- dir_54a85b0ba73149a656becc2d555f9f9e -->
<g id="node6" class="node">
<title>dir_54a85b0ba73149a656becc2d555f9f9e</title>
<g id="a_node6"><a xlink:href="dir_54a85b0ba73149a656becc2d555f9f9e.html" target="_top" xlink:title="opmonlib">
<polygon fill="#a2b4d6" stroke="red" points="203.5,-35.25 148.5,-35.25 148.5,-16 203.5,-16 203.5,-35.25"/>
<text text-anchor="middle" x="176" y="-21.75" font-family="Helvetica,sans-Serif" font-size="10.00">opmonlib</text>
</a>
</g>
</g>
<!-- dir_b620d3bc325baca79d772d7a5b5e4e14 -->
<g id="node7" class="node">
<title>dir_b620d3bc325baca79d772d7a5b5e4e14</title>
<text text-anchor="middle" x="343" y="-132.25" font-family="Helvetica,sans-Serif" font-size="10.00">iomanager</text>
</g>
<!-- dir_d7d2f54db312a227d1ad96af4401903a -->
<g id="node8" class="node">
<title>dir_d7d2f54db312a227d1ad96af4401903a</title>
<g id="a_node8"><a xlink:href="dir_d7d2f54db312a227d1ad96af4401903a.html" target="_top" xlink:title="docs">
<polygon fill="#a2b4d6" stroke="#404040" points="294.5,-145.75 257.5,-145.75 257.5,-126.5 294.5,-126.5 294.5,-145.75"/>
<text text-anchor="middle" x="276" y="-132.25" font-family="Helvetica,sans-Serif" font-size="10.00">docs</text>
</a>
</g>
</g>
<!-- dir_236d74bfa94c2a7d4a189a940f7d83cb -->
<g id="node9" class="node">
<title>dir_236d74bfa94c2a7d4a189a940f7d83cb</title>
<g id="a_node9"><a xlink:href="dir_236d74bfa94c2a7d4a189a940f7d83cb.html" target="_top" xlink:title="include">
<polygon fill="#a2b4d6" stroke="#404040" points="256.38,-90.5 209.62,-90.5 209.62,-71.25 256.38,-71.25 256.38,-90.5"/>
<text text-anchor="middle" x="233" y="-77" font-family="Helvetica,sans-Serif" font-size="10.00">include</text>
</a>
</g>
</g>
<!-- dir_236d74bfa94c2a7d4a189a940f7d83cb&#45;&gt;dir_0a1713e4fb81d523db81c567ef556d2d -->
<g id="edge1" class="edge">
<title>dir_236d74bfa94c2a7d4a189a940f7d83cb&#45;&gt;dir_0a1713e4fb81d523db81c567ef556d2d</title>
<g id="a_edge1"><a xlink:href="dir_000134_000103.html" target="_top">
<path fill="none" stroke="#63b8ff" d="M213.15,-70.84C193.39,-61.85 162.97,-48 141.44,-38.2"/>
<polygon fill="#63b8ff" stroke="#63b8ff" points="143.03,-35.08 132.47,-34.12 140.13,-41.45 143.03,-35.08"/>
</a>
</g>
<g id="a_edge1&#45;headlabel"><a xlink:href="dir_000134_000103.html" target="_top" xlink:title="7">
<text text-anchor="middle" x="146.1" y="-29.48" font-family="Helvetica,sans-Serif" font-size="10.00" fill="#63b8ff">7</text>
</a>
</g>
</g>
<!-- dir_236d74bfa94c2a7d4a189a940f7d83cb&#45;&gt;dir_aae5e3cd3f43e577e96215716dce9c16 -->
<g id="edge2" class="edge">
<title>dir_236d74bfa94c2a7d4a189a940f7d83cb&#45;&gt;dir_aae5e3cd3f43e577e96215716dce9c16</title>
<g id="a_edge2"><a xlink:href="dir_000134_000234.html" target="_top">
<path fill="none" stroke="#63b8ff" d="M209.45,-73.02C179.79,-64.39 128.32,-49.41 91.89,-38.81"/>
<polygon fill="#63b8ff" stroke="#63b8ff" points="93.14,-35.53 82.56,-36.1 91.18,-42.25 93.14,-35.53"/>
</a>
</g>
<g id="a_edge2&#45;headlabel"><a xlink:href="dir_000134_000234.html" target="_top" xlink:title="6">
<text text-anchor="middle" x="95.93" y="-29.51" font-family="Helvetica,sans-Serif" font-size="10.00" fill="#63b8ff">6</text>
</a>
</g>
</g>
<!-- dir_236d74bfa94c2a7d4a189a940f7d83cb&#45;&gt;dir_b3c84c55807c6d5d0108c7c00a497a0d -->
<g id="edge3" class="edge">
<title>dir_236d74bfa94c2a7d4a189a940f7d83cb&#45;&gt;dir_b3c84c55807c6d5d0108c7c00a497a0d</title>
<g id="a_edge3"><a xlink:href="dir_000134_000158.html" target="_top">
<path fill="none" stroke="#63b8ff" d="M244.7,-70.84C254.78,-63.07 269.54,-51.67 281.56,-42.4"/>
<polygon fill="#63b8ff" stroke="#63b8ff" points="283.49,-45.33 289.27,-36.45 279.21,-39.79 283.49,-45.33"/>
</a>
</g>
<g id="a_edge3&#45;headlabel"><a xlink:href="dir_000134_000158.html" target="_top" xlink:title="7">
<text text-anchor="middle" x="283.58" y="-44.97" font-family="Helvetica,sans-Serif" font-size="10.00" fill="#63b8ff">7</text>
</a>
</g>
</g>
<!-- dir_236d74bfa94c2a7d4a189a940f7d83cb&#45;&gt;dir_bd573d70419336b23551d1d967e5b64a -->
<g id="edge4" class="edge">
<title>dir_236d74bfa94c2a7d4a189a940f7d83cb&#45;&gt;dir_bd573d70419336b23551d1d967e5b64a</title>
<g id="a_edge4"><a xlink:href="dir_000134_000287.html" target="_top">
<path fill="none" stroke="#63b8ff" d="M246.44,-70.88C250.68,-68.24 255.45,-65.47 260,-63.25 280.8,-53.12 305.15,-44.08 324.5,-37.51"/>
<polygon fill="#63b8ff" stroke="#63b8ff" points="325.43,-40.89 333.82,-34.42 323.22,-34.25 325.43,-40.89"/>
</a>
</g>
<g id="a_edge4&#45;headlabel"><a xlink:href="dir_000134_000287.html" target="_top" xlink:title="4">
<text text-anchor="middle" x="324.35" y="-40.37" font-family="Helvetica,sans-Serif" font-size="10.00" fill="#63b8ff">4</text>
</a>
</g>
</g>
<!-- dir_236d74bfa94c2a7d4a189a940f7d83cb&#45;&gt;dir_d825b831d5f4002527e46bb27072c2b3 -->
<g id="edge5" class="edge">
<title>dir_236d74bfa94c2a7d4a189a940f7d83cb&#45;&gt;dir_d825b831d5f4002527e46bb27072c2b3</title>
<g id="a_edge5"><a xlink:href="dir_000134_000164.html" target="_top">
<path fill="none" stroke="#63b8ff" d="M234.98,-71.08C236.47,-64.49 238.56,-55.21 240.45,-46.82"/>
<polygon fill="#63b8ff" stroke="#63b8ff" points="243.86,-47.61 242.64,-37.09 237.03,-46.07 243.86,-47.61"/>
</a>
</g>
<g id="a_edge5&#45;headlabel"><a xlink:href="dir_000134_000164.html" target="_top" xlink:title="8">
<text text-anchor="middle" x="246.17" y="-46.39" font-family="Helvetica,sans-Serif" font-size="10.00" fill="#63b8ff">8</text>
</a>
</g>
</g>
<!-- dir_236d74bfa94c2a7d4a189a940f7d83cb&#45;&gt;dir_54a85b0ba73149a656becc2d555f9f9e -->
<g id="edge6" class="edge">
<title>dir_236d74bfa94c2a7d4a189a940f7d83cb&#45;&gt;dir_54a85b0ba73149a656becc2d555f9f9e</title>
<g id="a_edge6"><a xlink:href="dir_000134_000183.html" target="_top">
<path fill="none" stroke="#63b8ff" d="M223.33,-70.84C215.26,-63.3 203.53,-52.35 193.78,-43.23"/>
<polygon fill="#63b8ff" stroke="#63b8ff" points="196.33,-40.83 186.63,-36.56 191.55,-45.94 196.33,-40.83"/>
</a>
</g>
<g id="a_edge6&#45;headlabel"><a xlink:href="dir_000134_000183.html" target="_top" xlink:title="4">
<text text-anchor="middle" x="199.79" y="-36.3" font-family="Helvetica,sans-Serif" font-size="10.00" fill="#63b8ff">4</text>
</a>
</g>
</g>
<!-- dir_358a134f89c77ca84a762bba9080bd43 -->
<g id="node10" class="node">
<title>dir_358a134f89c77ca84a762bba9080bd43</title>
<g id="a_node10"><a xlink:href="dir_358a134f89c77ca84a762bba9080bd43.html" target="_top" xlink:title="src">
<polygon fill="#a2b4d6" stroke="#404040" points="239.75,-145.75 210.25,-145.75 210.25,-126.5 239.75,-126.5 239.75,-145.75"/>
<text text-anchor="middle" x="225" y="-132.25" font-family="Helvetica,sans-Serif" font-size="10.00">src</text>
</a>
</g>
</g>
<!-- dir_358a134f89c77ca84a762bba9080bd43&#45;&gt;dir_b3c84c55807c6d5d0108c7c00a497a0d -->
<g id="edge8" class="edge">
<title>dir_358a134f89c77ca84a762bba9080bd43&#45;&gt;dir_b3c84c55807c6d5d0108c7c00a497a0d</title>
<g id="a_edge8"><a xlink:href="dir_000250_000158.html" target="_top">
<path fill="none" stroke="#63b8ff" d="M236.31,-126.13C246.35,-117.71 260.96,-104.38 271,-90.5 280.96,-76.74 289.18,-59.28 294.64,-46.1"/>
<polygon fill="#63b8ff" stroke="#63b8ff" points="297.89,-47.41 298.31,-36.83 291.38,-44.84 297.89,-47.41"/>
</a>
</g>
<g id="a_edge8&#45;headlabel"><a xlink:href="dir_000250_000158.html" target="_top" xlink:title="1">
<text text-anchor="middle" x="299.76" y="-46.52" font-family="Helvetica,sans-Serif" font-size="10.00" fill="#63b8ff">1</text>
</a>
</g>
</g>
<!-- dir_358a134f89c77ca84a762bba9080bd43&#45;&gt;dir_bd573d70419336b23551d1d967e5b64a -->
<g id="edge9" class="edge">
<title>dir_358a134f89c77ca84a762bba9080bd43&#45;&gt;dir_bd573d70419336b23551d1d967e5b64a</title>
<g id="a_edge9"><a xlink:href="dir_000250_000287.html" target="_top">
<path fill="none" stroke="#63b8ff" d="M237.11,-126.04C248.93,-117.13 267.36,-103.08 283,-90.5 302.8,-74.58 324.99,-55.81 340.26,-42.76"/>
<polygon fill="#63b8ff" stroke="#63b8ff" points="342.33,-45.6 347.64,-36.43 337.77,-40.28 342.33,-45.6"/>
</a>
</g>
<g id="a_edge9&#45;headlabel"><a xlink:href="dir_000250_000287.html" target="_top" xlink:title="1">
<text text-anchor="middle" x="342.6" y="-45.23" font-family="Helvetica,sans-Serif" font-size="10.00" fill="#63b8ff">1</text>
</a>
</g>
</g>
<!-- dir_358a134f89c77ca84a762bba9080bd43&#45;&gt;dir_d825b831d5f4002527e46bb27072c2b3 -->
<g id="edge10" class="edge">
<title>dir_358a134f89c77ca84a762bba9080bd43&#45;&gt;dir_d825b831d5f4002527e46bb27072c2b3</title>
<g id="a_edge10"><a xlink:href="dir_000250_000164.html" target="_top">
<path fill="none" stroke="#63b8ff" d="M237.03,-126.01C246.65,-117.89 259.42,-105.08 265,-90.5 270.77,-75.41 264.37,-57.86 257.32,-44.99"/>
<polygon fill="#63b8ff" stroke="#63b8ff" points="260.47,-43.43 252.28,-36.71 254.5,-47.07 260.47,-43.43"/>
</a>
</g>
<g id="a_edge10&#45;headlabel"><a xlink:href="dir_000250_000164.html" target="_top" xlink:title="2">
<text text-anchor="middle" x="263.98" y="-39.86" font-family="Helvetica,sans-Serif" font-size="10.00" fill="#63b8ff">2</text>
</a>
</g>
</g>
<!-- dir_358a134f89c77ca84a762bba9080bd43&#45;&gt;dir_236d74bfa94c2a7d4a189a940f7d83cb -->
<g id="edge7" class="edge">
<title>dir_358a134f89c77ca84a762bba9080bd43&#45;&gt;dir_236d74bfa94c2a7d4a189a940f7d83cb</title>
<g id="a_edge7"><a xlink:href="dir_000250_000134.html" target="_top">
<path fill="none" stroke="#63b8ff" d="M226.32,-126.33C227.31,-119.74 228.71,-110.46 229.97,-102.07"/>
<polygon fill="#63b8ff" stroke="#63b8ff" points="233.4,-102.76 231.43,-92.36 226.48,-101.72 233.4,-102.76"/>
</a>
</g>
<g id="a_edge7&#45;headlabel"><a xlink:href="dir_000250_000134.html" target="_top" xlink:title="6">
<text text-anchor="middle" x="235.9" y="-101.37" font-family="Helvetica,sans-Serif" font-size="10.00" fill="#63b8ff">6</text>
</a>
</g>
</g>
</g>
</svg>
