<?xml version="1.0" encoding="UTF-8" standalone="no"?>
<!DOCTYPE svg PUBLIC "-//W3C//DTD SVG 1.1//EN"
 "http://www.w3.org/Graphics/SVG/1.1/DTD/svg11.dtd">
<!-- Generated by graphviz version 9.0.0 (20230911.1827)
 -->
<!-- Title: sourcecode/oks Pages: 1 -->
<svg width="392pt" height="197pt"
 viewBox="0.00 0.00 392.00 197.00" xmlns="http://www.w3.org/2000/svg" xmlns:xlink="http://www.w3.org/1999/xlink">
<g id="graph0" class="graph" transform="scale(1 1) rotate(0) translate(4 193)">
<title>sourcecode/oks</title>
<g id="clust1" class="cluster">
<title>clusterdir_b89c6037bfefa0e5d020a7058f32a811</title>
<g id="a_clust1"><a xlink:href="dir_b89c6037bfefa0e5d020a7058f32a811.html" target="_top" xlink:title="sourcecode">
<polygon fill="#edf0f7" stroke="#404040" stroke-dasharray="5,2" points="8,-8 8,-181 376,-181 376,-8 8,-8"/>
<text text-anchor="middle" x="192" y="-167.5" font-family="Helvetica,sans-Serif" font-size="10.00">sourcecode</text>
</a>
</g>
</g>
<g id="clust2" class="cluster">
<title>clusterdir_469215ec156f530216e24b790d5149a6</title>
<g id="a_clust2"><a xlink:href="dir_469215ec156f530216e24b790d5149a6.html" target="_top">
<polygon fill="#edf0f7" stroke="#404040" stroke-width="2" points="90,-63.25 90,-153.75 296,-153.75 296,-63.25 90,-63.25"/>
</a>
</g>
</g>
<!-- dir_0a1713e4fb81d523db81c567ef556d2d -->
<g id="node1" class="node">
<title>dir_0a1713e4fb81d523db81c567ef556d2d</title>
<g id="a_node1"><a xlink:href="dir_0a1713e4fb81d523db81c567ef556d2d.html" target="_top" xlink:title="ers">
<polygon fill="#a2b4d6" stroke="red" points="153.75,-35.25 124.25,-35.25 124.25,-16 153.75,-16 153.75,-35.25"/>
<text text-anchor="middle" x="139" y="-21.75" font-family="Helvetica,sans-Serif" font-size="10.00">ers</text>
</a>
</g>
</g>
<!-- dir_d825b831d5f4002527e46bb27072c2b3 -->
<g id="node2" class="node">
<title>dir_d825b831d5f4002527e46bb27072c2b3</title>
<g id="a_node2"><a xlink:href="dir_d825b831d5f4002527e46bb27072c2b3.html" target="_top" xlink:title="logging">
<polygon fill="#a2b4d6" stroke="red" points="82.38,-90.5 35.62,-90.5 35.62,-71.25 82.38,-71.25 82.38,-90.5"/>
<text text-anchor="middle" x="59" y="-77" font-family="Helvetica,sans-Serif" font-size="10.00">logging</text>
</a>
</g>
</g>
<!-- dir_74612d0701f8930964309a79d92afd69 -->
<g id="node3" class="node">
<title>dir_74612d0701f8930964309a79d92afd69</title>
<g id="a_node3"><a xlink:href="dir_74612d0701f8930964309a79d92afd69.html" target="_top" xlink:title="oksdbinterfaces">
<polygon fill="#a2b4d6" stroke="red" points="260.5,-35.25 175.5,-35.25 175.5,-16 260.5,-16 260.5,-35.25"/>
<text text-anchor="middle" x="218" y="-21.75" font-family="Helvetica,sans-Serif" font-size="10.00">oksdbinterfaces</text>
</a>
</g>
</g>
<!-- dir_bb5e373bf7f0a356ec05aaa2af730c3b -->
<g id="node4" class="node">
<title>dir_bb5e373bf7f0a356ec05aaa2af730c3b</title>
<g id="a_node4"><a xlink:href="dir_bb5e373bf7f0a356ec05aaa2af730c3b.html" target="_top" xlink:title="okssystem">
<polygon fill="#a2b4d6" stroke="red" points="367.62,-90.5 304.38,-90.5 304.38,-71.25 367.62,-71.25 367.62,-90.5"/>
<text text-anchor="middle" x="336" y="-77" font-family="Helvetica,sans-Serif" font-size="10.00">okssystem</text>
</a>
</g>
</g>
<!-- dir_469215ec156f530216e24b790d5149a6 -->
<g id="node5" class="node">
<title>dir_469215ec156f530216e24b790d5149a6</title>
<text text-anchor="middle" x="272" y="-132.25" font-family="Helvetica,sans-Serif" font-size="10.00">oks</text>
</g>
<!-- dir_7db9f3f1bf93e535e4e9a29d1d131353 -->
<g id="node6" class="node">
<title>dir_7db9f3f1bf93e535e4e9a29d1d131353</title>
<g id="a_node6"><a xlink:href="dir_7db9f3f1bf93e535e4e9a29d1d131353.html" target="_top" xlink:title="apps">
<polygon fill="#a2b4d6" stroke="#404040" points="135.5,-145.75 98.5,-145.75 98.5,-126.5 135.5,-126.5 135.5,-145.75"/>
<text text-anchor="middle" x="117" y="-132.25" font-family="Helvetica,sans-Serif" font-size="10.00">apps</text>
</a>
</g>
</g>
<!-- dir_7db9f3f1bf93e535e4e9a29d1d131353&#45;&gt;dir_0a1713e4fb81d523db81c567ef556d2d -->
<g id="edge1" class="edge">
<title>dir_7db9f3f1bf93e535e4e9a29d1d131353&#45;&gt;dir_0a1713e4fb81d523db81c567ef556d2d</title>
<g id="a_edge1"><a xlink:href="dir_000016_000103.html" target="_top">
<path fill="none" stroke="#63b8ff" d="M98.27,-131.84C76.78,-126.97 42.54,-115.55 27,-90.5 20.62,-80.21 19.89,-73.05 27,-63.25 46.39,-36.51 85.86,-28.93 112.38,-26.98"/>
<polygon fill="#63b8ff" stroke="#63b8ff" points="112.54,-30.48 122.36,-26.5 112.2,-23.49 112.54,-30.48"/>
</a>
</g>
<g id="a_edge1&#45;headlabel"><a xlink:href="dir_000016_000103.html" target="_top" xlink:title="1">
<text text-anchor="middle" x="110.6" y="-29.54" font-family="Helvetica,sans-Serif" font-size="10.00" fill="#63b8ff">1</text>
</a>
</g>
</g>
<!-- dir_7db9f3f1bf93e535e4e9a29d1d131353&#45;&gt;dir_d825b831d5f4002527e46bb27072c2b3 -->
<g id="edge3" class="edge">
<title>dir_7db9f3f1bf93e535e4e9a29d1d131353&#45;&gt;dir_d825b831d5f4002527e46bb27072c2b3</title>
<g id="a_edge3"><a xlink:href="dir_000016_000164.html" target="_top">
<path fill="none" stroke="#63b8ff" d="M107.16,-126.09C98.95,-118.55 87.02,-107.6 77.09,-98.48"/>
<polygon fill="#63b8ff" stroke="#63b8ff" points="79.54,-95.98 69.81,-91.8 74.81,-101.14 79.54,-95.98"/>
</a>
</g>
<g id="a_edge3&#45;headlabel"><a xlink:href="dir_000016_000164.html" target="_top" xlink:title="1">
<text text-anchor="middle" x="83" y="-91.42" font-family="Helvetica,sans-Serif" font-size="10.00" fill="#63b8ff">1</text>
</a>
</g>
</g>
<!-- dir_9f5ac929061521d831adc624eaaa33c5 -->
<g id="node8" class="node">
<title>dir_9f5ac929061521d831adc624eaaa33c5</title>
<g id="a_node8"><a xlink:href="dir_9f5ac929061521d831adc624eaaa33c5.html" target="_top" xlink:title="include">
<polygon fill="#a2b4d6" stroke="#404040" points="204.38,-90.5 157.62,-90.5 157.62,-71.25 204.38,-71.25 204.38,-90.5"/>
<text text-anchor="middle" x="181" y="-77" font-family="Helvetica,sans-Serif" font-size="10.00">include</text>
</a>
</g>
</g>
<!-- dir_7db9f3f1bf93e535e4e9a29d1d131353&#45;&gt;dir_9f5ac929061521d831adc624eaaa33c5 -->
<g id="edge2" class="edge">
<title>dir_7db9f3f1bf93e535e4e9a29d1d131353&#45;&gt;dir_9f5ac929061521d831adc624eaaa33c5</title>
<g id="a_edge2"><a xlink:href="dir_000016_000137.html" target="_top">
<path fill="none" stroke="#63b8ff" d="M127.86,-126.09C137.11,-118.4 150.62,-107.15 161.71,-97.93"/>
<polygon fill="#63b8ff" stroke="#63b8ff" points="163.69,-100.83 169.14,-91.74 159.21,-95.45 163.69,-100.83"/>
</a>
</g>
<g id="a_edge2&#45;headlabel"><a xlink:href="dir_000016_000137.html" target="_top" xlink:title="8">
<text text-anchor="middle" x="163.91" y="-100.47" font-family="Helvetica,sans-Serif" font-size="10.00" fill="#63b8ff">8</text>
</a>
</g>
</g>
<!-- dir_30c93a99847aead7d5b133a28a22657b -->
<g id="node7" class="node">
<title>dir_30c93a99847aead7d5b133a28a22657b</title>
<g id="a_node7"><a xlink:href="dir_30c93a99847aead7d5b133a28a22657b.html" target="_top" xlink:title="docs">
<polygon fill="#a2b4d6" stroke="#404040" points="190.5,-145.75 153.5,-145.75 153.5,-126.5 190.5,-126.5 190.5,-145.75"/>
<text text-anchor="middle" x="172" y="-132.25" font-family="Helvetica,sans-Serif" font-size="10.00">docs</text>
</a>
</g>
</g>
<!-- dir_9f5ac929061521d831adc624eaaa33c5&#45;&gt;dir_0a1713e4fb81d523db81c567ef556d2d -->
<g id="edge4" class="edge">
<title>dir_9f5ac929061521d831adc624eaaa33c5&#45;&gt;dir_0a1713e4fb81d523db81c567ef556d2d</title>
<g id="a_edge4"><a xlink:href="dir_000137_000103.html" target="_top">
<path fill="none" stroke="#63b8ff" d="M174.06,-71.08C168.38,-63.88 160.16,-53.46 153.11,-44.51"/>
<polygon fill="#63b8ff" stroke="#63b8ff" points="155.96,-42.48 147.02,-36.8 150.47,-46.82 155.96,-42.48"/>
</a>
</g>
<g id="a_edge4&#45;headlabel"><a xlink:href="dir_000137_000103.html" target="_top" xlink:title="1">
<text text-anchor="middle" x="159.48" y="-38.48" font-family="Helvetica,sans-Serif" font-size="10.00" fill="#63b8ff">1</text>
</a>
</g>
</g>
<!-- dir_9f5ac929061521d831adc624eaaa33c5&#45;&gt;dir_74612d0701f8930964309a79d92afd69 -->
<g id="edge5" class="edge">
<title>dir_9f5ac929061521d831adc624eaaa33c5&#45;&gt;dir_74612d0701f8930964309a79d92afd69</title>
<g id="a_edge5"><a xlink:href="dir_000137_000176.html" target="_top">
<path fill="none" stroke="#63b8ff" d="M187.11,-71.08C192.06,-63.96 199.2,-53.68 205.37,-44.8"/>
<polygon fill="#63b8ff" stroke="#63b8ff" points="208.06,-47.06 210.89,-36.85 202.31,-43.07 208.06,-47.06"/>
</a>
</g>
<g id="a_edge5&#45;headlabel"><a xlink:href="dir_000137_000176.html" target="_top" xlink:title="1">
<text text-anchor="middle" x="209.21" y="-46.52" font-family="Helvetica,sans-Serif" font-size="10.00" fill="#63b8ff">1</text>
</a>
</g>
</g>
<!-- dir_87c4fb40205640b693c82a41004f204f -->
<g id="node9" class="node">
<title>dir_87c4fb40205640b693c82a41004f204f</title>
<g id="a_node9"><a xlink:href="dir_87c4fb40205640b693c82a41004f204f.html" target="_top" xlink:title="src">
<polygon fill="#a2b4d6" stroke="#404040" points="237.75,-145.75 208.25,-145.75 208.25,-126.5 237.75,-126.5 237.75,-145.75"/>
<text text-anchor="middle" x="223" y="-132.25" font-family="Helvetica,sans-Serif" font-size="10.00">src</text>
</a>
</g>
</g>
<!-- dir_87c4fb40205640b693c82a41004f204f&#45;&gt;dir_0a1713e4fb81d523db81c567ef556d2d -->
<g id="edge6" class="edge">
<title>dir_87c4fb40205640b693c82a41004f204f&#45;&gt;dir_0a1713e4fb81d523db81c567ef556d2d</title>
<g id="a_edge6"><a xlink:href="dir_000254_000103.html" target="_top">
<path fill="none" stroke="#63b8ff" d="M207.99,-127.99C188.58,-118.44 156.36,-101.46 149,-90.5 140.46,-77.79 138.18,-60.49 137.92,-47.1"/>
<polygon fill="#63b8ff" stroke="#63b8ff" points="141.41,-47.32 138.11,-37.25 134.41,-47.18 141.41,-47.32"/>
</a>
</g>
<g id="a_edge6&#45;headlabel"><a xlink:href="dir_000254_000103.html" target="_top" xlink:title="5">
<text text-anchor="middle" x="144.21" y="-45.58" font-family="Helvetica,sans-Serif" font-size="10.00" fill="#63b8ff">5</text>
</a>
</g>
</g>
<!-- dir_87c4fb40205640b693c82a41004f204f&#45;&gt;dir_d825b831d5f4002527e46bb27072c2b3 -->
<g id="edge10" class="edge">
<title>dir_87c4fb40205640b693c82a41004f204f&#45;&gt;dir_d825b831d5f4002527e46bb27072c2b3</title>
<g id="a_edge10"><a xlink:href="dir_000254_000164.html" target="_top">
<path fill="none" stroke="#63b8ff" d="M207.95,-129.35C205.31,-128.37 202.58,-127.39 200,-126.5 153.31,-110.38 138.67,-107.02 93.62,-92.9"/>
<polygon fill="#63b8ff" stroke="#63b8ff" points="94.88,-89.63 84.29,-89.95 92.78,-96.3 94.88,-89.63"/>
</a>
</g>
<g id="a_edge10&#45;headlabel"><a xlink:href="dir_000254_000164.html" target="_top" xlink:title="7">
<text text-anchor="middle" x="97.72" y="-83.67" font-family="Helvetica,sans-Serif" font-size="10.00" fill="#63b8ff">7</text>
</a>
</g>
</g>
<!-- dir_87c4fb40205640b693c82a41004f204f&#45;&gt;dir_74612d0701f8930964309a79d92afd69 -->
<g id="edge7" class="edge">
<title>dir_87c4fb40205640b693c82a41004f204f&#45;&gt;dir_74612d0701f8930964309a79d92afd69</title>
<g id="a_edge7"><a xlink:href="dir_000254_000176.html" target="_top">
<path fill="none" stroke="#63b8ff" d="M222.59,-126.25C221.8,-109 220.03,-70.58 218.93,-46.81"/>
<polygon fill="#63b8ff" stroke="#63b8ff" points="222.44,-46.97 218.48,-37.14 215.45,-47.29 222.44,-46.97"/>
</a>
</g>
<g id="a_edge7&#45;headlabel"><a xlink:href="dir_000254_000176.html" target="_top" xlink:title="2">
<text text-anchor="middle" x="225.37" y="-45.04" font-family="Helvetica,sans-Serif" font-size="10.00" fill="#63b8ff">2</text>
</a>
</g>
</g>
<!-- dir_87c4fb40205640b693c82a41004f204f&#45;&gt;dir_bb5e373bf7f0a356ec05aaa2af730c3b -->
<g id="edge9" class="edge">
<title>dir_87c4fb40205640b693c82a41004f204f&#45;&gt;dir_bb5e373bf7f0a356ec05aaa2af730c3b</title>
<g id="a_edge9"><a xlink:href="dir_000254_000179.html" target="_top">
<path fill="none" stroke="#63b8ff" d="M238.24,-127.94C255.66,-119.73 284.58,-106.11 306.46,-95.8"/>
<polygon fill="#63b8ff" stroke="#63b8ff" points="307.93,-98.97 315.49,-91.54 304.95,-92.64 307.93,-98.97"/>
</a>
</g>
<g id="a_edge9&#45;headlabel"><a xlink:href="dir_000254_000179.html" target="_top" xlink:title="3">
<text text-anchor="middle" x="307.26" y="-98.55" font-family="Helvetica,sans-Serif" font-size="10.00" fill="#63b8ff">3</text>
</a>
</g>
</g>
<!-- dir_87c4fb40205640b693c82a41004f204f&#45;&gt;dir_9f5ac929061521d831adc624eaaa33c5 -->
<g id="edge8" class="edge">
<title>dir_87c4fb40205640b693c82a41004f204f&#45;&gt;dir_9f5ac929061521d831adc624eaaa33c5</title>
<g id="a_edge8"><a xlink:href="dir_000254_000137.html" target="_top">
<path fill="none" stroke="#63b8ff" d="M216.06,-126.33C210.38,-119.13 202.16,-108.71 195.11,-99.76"/>
<polygon fill="#63b8ff" stroke="#63b8ff" points="197.96,-97.73 189.02,-92.05 192.47,-102.07 197.96,-97.73"/>
</a>
</g>
<g id="a_edge8&#45;headlabel"><a xlink:href="dir_000254_000137.html" target="_top" xlink:title="77">
<text text-anchor="middle" x="201.48" y="-93.73" font-family="Helvetica,sans-Serif" font-size="10.00" fill="#63b8ff">77</text>
</a>
</g>
</g>
</g>
</svg>
