<?xml version="1.0" encoding="UTF-8" standalone="no"?>
<!DOCTYPE svg PUBLIC "-//W3C//DTD SVG 1.1//EN"
 "http://www.w3.org/Graphics/SVG/1.1/DTD/svg11.dtd">
<!-- Generated by graphviz version 9.0.0 (20230911.1827)
 -->
<!-- Title: sourcecode/hsilibs Pages: 1 -->
<svg width="652pt" height="197pt"
 viewBox="0.00 0.00 652.00 197.00" xmlns="http://www.w3.org/2000/svg" xmlns:xlink="http://www.w3.org/1999/xlink">
<g id="graph0" class="graph" transform="scale(1 1) rotate(0) translate(4 193)">
<title>sourcecode/hsilibs</title>
<g id="clust1" class="cluster">
<title>clusterdir_b89c6037bfefa0e5d020a7058f32a811</title>
<g id="a_clust1"><a xlink:href="dir_b89c6037bfefa0e5d020a7058f32a811.html" target="_top" xlink:title="sourcecode">
<polygon fill="#edf0f7" stroke="#404040" stroke-dasharray="5,2" points="8,-8 8,-181 636,-181 636,-8 8,-8"/>
<text text-anchor="middle" x="322" y="-167.5" font-family="Helvetica,sans-Serif" font-size="10.00">sourcecode</text>
</a>
</g>
</g>
<g id="clust2" class="cluster">
<title>clusterdir_24a6c6de6c187fbc56391846fb873844</title>
<g id="a_clust2"><a xlink:href="dir_24a6c6de6c187fbc56391846fb873844.html" target="_top">
<polygon fill="#edf0f7" stroke="#404040" stroke-width="2" points="291,-63.25 291,-153.75 399,-153.75 399,-63.25 291,-63.25"/>
</a>
</g>
</g>
<!-- dir_21f361739d8867751cd2763b9903b707 -->
<g id="node1" class="node">
<title>dir_21f361739d8867751cd2763b9903b707</title>
<g id="a_node1"><a xlink:href="dir_21f361739d8867751cd2763b9903b707.html" target="_top" xlink:title="appfwk">
<polygon fill="#a2b4d6" stroke="red" points="215.75,-35.25 168.25,-35.25 168.25,-16 215.75,-16 215.75,-35.25"/>
<text text-anchor="middle" x="192" y="-21.75" font-family="Helvetica,sans-Serif" font-size="10.00">appfwk</text>
</a>
</g>
</g>
<!-- dir_92ed34f07df7a82417c7be964d3002da -->
<g id="node2" class="node">
<title>dir_92ed34f07df7a82417c7be964d3002da</title>
<g id="a_node2"><a xlink:href="dir_92ed34f07df7a82417c7be964d3002da.html" target="_top" xlink:title="dfmessages">
<polygon fill="#a2b4d6" stroke="red" points="85.62,-35.25 16.38,-35.25 16.38,-16 85.62,-16 85.62,-35.25"/>
<text text-anchor="middle" x="51" y="-21.75" font-family="Helvetica,sans-Serif" font-size="10.00">dfmessages</text>
</a>
</g>
</g>
<!-- dir_bd573d70419336b23551d1d967e5b64a -->
<g id="node3" class="node">
<title>dir_bd573d70419336b23551d1d967e5b64a</title>
<g id="a_node3"><a xlink:href="dir_bd573d70419336b23551d1d967e5b64a.html" target="_top" xlink:title="utilities">
<polygon fill="#a2b4d6" stroke="red" points="150.38,-35.25 103.62,-35.25 103.62,-16 150.38,-16 150.38,-35.25"/>
<text text-anchor="middle" x="127" y="-21.75" font-family="Helvetica,sans-Serif" font-size="10.00">utilities</text>
</a>
</g>
</g>
<!-- dir_b620d3bc325baca79d772d7a5b5e4e14 -->
<g id="node4" class="node">
<title>dir_b620d3bc325baca79d772d7a5b5e4e14</title>
<g id="a_node4"><a xlink:href="dir_b620d3bc325baca79d772d7a5b5e4e14.html" target="_top" xlink:title="iomanager">
<polygon fill="#a2b4d6" stroke="red" points="627.5,-35.25 566.5,-35.25 566.5,-16 627.5,-16 627.5,-35.25"/>
<text text-anchor="middle" x="597" y="-21.75" font-family="Helvetica,sans-Serif" font-size="10.00">iomanager</text>
</a>
</g>
</g>
<!-- dir_0a1713e4fb81d523db81c567ef556d2d -->
<g id="node5" class="node">
<title>dir_0a1713e4fb81d523db81c567ef556d2d</title>
<g id="a_node5"><a xlink:href="dir_0a1713e4fb81d523db81c567ef556d2d.html" target="_top" xlink:title="ers">
<polygon fill="#a2b4d6" stroke="red" points="263.75,-35.25 234.25,-35.25 234.25,-16 263.75,-16 263.75,-35.25"/>
<text text-anchor="middle" x="249" y="-21.75" font-family="Helvetica,sans-Serif" font-size="10.00">ers</text>
</a>
</g>
</g>
<!-- dir_c502843d9d478212e9ef7c5af298ff11 -->
<g id="node6" class="node">
<title>dir_c502843d9d478212e9ef7c5af298ff11</title>
<g id="a_node6"><a xlink:href="dir_c502843d9d478212e9ef7c5af298ff11.html" target="_top" xlink:title="detdataformats">
<polygon fill="#a2b4d6" stroke="red" points="362.62,-35.25 281.38,-35.25 281.38,-16 362.62,-16 362.62,-35.25"/>
<text text-anchor="middle" x="322" y="-21.75" font-family="Helvetica,sans-Serif" font-size="10.00">detdataformats</text>
</a>
</g>
</g>
<!-- dir_f38c03f336a0b3deec81b9cab2eb45b9 -->
<g id="node7" class="node">
<title>dir_f38c03f336a0b3deec81b9cab2eb45b9</title>
<g id="a_node7"><a xlink:href="dir_f38c03f336a0b3deec81b9cab2eb45b9.html" target="_top" xlink:title="daqdataformats">
<polygon fill="#a2b4d6" stroke="red" points="463.75,-35.25 380.25,-35.25 380.25,-16 463.75,-16 463.75,-35.25"/>
<text text-anchor="middle" x="422" y="-21.75" font-family="Helvetica,sans-Serif" font-size="10.00">daqdataformats</text>
</a>
</g>
</g>
<!-- dir_aae5e3cd3f43e577e96215716dce9c16 -->
<g id="node8" class="node">
<title>dir_aae5e3cd3f43e577e96215716dce9c16</title>
<g id="a_node8"><a xlink:href="dir_aae5e3cd3f43e577e96215716dce9c16.html" target="_top" xlink:title="serialization">
<polygon fill="#a2b4d6" stroke="red" points="548.5,-35.25 481.5,-35.25 481.5,-16 548.5,-16 548.5,-35.25"/>
<text text-anchor="middle" x="515" y="-21.75" font-family="Helvetica,sans-Serif" font-size="10.00">serialization</text>
</a>
</g>
</g>
<!-- dir_d825b831d5f4002527e46bb27072c2b3 -->
<g id="node9" class="node">
<title>dir_d825b831d5f4002527e46bb27072c2b3</title>
<g id="a_node9"><a xlink:href="dir_d825b831d5f4002527e46bb27072c2b3.html" target="_top" xlink:title="logging">
<polygon fill="#a2b4d6" stroke="red" points="453.38,-90.5 406.62,-90.5 406.62,-71.25 453.38,-71.25 453.38,-90.5"/>
<text text-anchor="middle" x="430" y="-77" font-family="Helvetica,sans-Serif" font-size="10.00">logging</text>
</a>
</g>
</g>
<!-- dir_443866e9f10fcfd291364a22f6a0ca3a -->
<g id="node10" class="node">
<title>dir_443866e9f10fcfd291364a22f6a0ca3a</title>
<g id="a_node10"><a xlink:href="dir_443866e9f10fcfd291364a22f6a0ca3a.html" target="_top" xlink:title="readoutlibs">
<polygon fill="#a2b4d6" stroke="red" points="534.62,-90.5 471.38,-90.5 471.38,-71.25 534.62,-71.25 534.62,-90.5"/>
<text text-anchor="middle" x="503" y="-77" font-family="Helvetica,sans-Serif" font-size="10.00">readoutlibs</text>
</a>
</g>
</g>
<!-- dir_24a6c6de6c187fbc56391846fb873844 -->
<g id="node11" class="node">
<title>dir_24a6c6de6c187fbc56391846fb873844</title>
<text text-anchor="middle" x="369" y="-132.25" font-family="Helvetica,sans-Serif" font-size="10.00">hsilibs</text>
</g>
<!-- dir_590048ab7c166ca7dcc58c5fcfd0b979 -->
<g id="node12" class="node">
<title>dir_590048ab7c166ca7dcc58c5fcfd0b979</title>
<g id="a_node12"><a xlink:href="dir_590048ab7c166ca7dcc58c5fcfd0b979.html" target="_top" xlink:title="include">
<polygon fill="#a2b4d6" stroke="#404040" points="345.38,-90.5 298.62,-90.5 298.62,-71.25 345.38,-71.25 345.38,-90.5"/>
<text text-anchor="middle" x="322" y="-77" font-family="Helvetica,sans-Serif" font-size="10.00">include</text>
</a>
</g>
</g>
<!-- dir_590048ab7c166ca7dcc58c5fcfd0b979&#45;&gt;dir_21f361739d8867751cd2763b9903b707 -->
<g id="edge2" class="edge">
<title>dir_590048ab7c166ca7dcc58c5fcfd0b979&#45;&gt;dir_21f361739d8867751cd2763b9903b707</title>
<g id="a_edge2"><a xlink:href="dir_000133_000005.html" target="_top">
<path fill="none" stroke="#63b8ff" d="M299.95,-70.84C279.31,-62.39 248.22,-49.65 224.7,-40.02"/>
<polygon fill="#63b8ff" stroke="#63b8ff" points="226.14,-36.83 215.56,-36.28 223.49,-43.31 226.14,-36.83"/>
</a>
</g>
<g id="a_edge2&#45;headlabel"><a xlink:href="dir_000133_000005.html" target="_top" xlink:title="2">
<text text-anchor="middle" x="229.14" y="-31.11" font-family="Helvetica,sans-Serif" font-size="10.00" fill="#63b8ff">2</text>
</a>
</g>
</g>
<!-- dir_590048ab7c166ca7dcc58c5fcfd0b979&#45;&gt;dir_92ed34f07df7a82417c7be964d3002da -->
<g id="edge3" class="edge">
<title>dir_590048ab7c166ca7dcc58c5fcfd0b979&#45;&gt;dir_92ed34f07df7a82417c7be964d3002da</title>
<g id="a_edge3"><a xlink:href="dir_000133_000064.html" target="_top">
<path fill="none" stroke="#63b8ff" d="M298.42,-75.24C253.64,-66.44 155.52,-47.16 97.2,-35.7"/>
<polygon fill="#63b8ff" stroke="#63b8ff" points="98.06,-32.31 87.57,-33.81 96.71,-39.17 98.06,-32.31"/>
</a>
</g>
<g id="a_edge3&#45;headlabel"><a xlink:href="dir_000133_000064.html" target="_top" xlink:title="1">
<text text-anchor="middle" x="100.65" y="-26.05" font-family="Helvetica,sans-Serif" font-size="10.00" fill="#63b8ff">1</text>
</a>
</g>
</g>
<!-- dir_590048ab7c166ca7dcc58c5fcfd0b979&#45;&gt;dir_bd573d70419336b23551d1d967e5b64a -->
<g id="edge6" class="edge">
<title>dir_590048ab7c166ca7dcc58c5fcfd0b979&#45;&gt;dir_bd573d70419336b23551d1d967e5b64a</title>
<g id="a_edge6"><a xlink:href="dir_000133_000287.html" target="_top">
<path fill="none" stroke="#63b8ff" d="M298.48,-73.45C264.37,-64.14 200.94,-46.82 161.53,-36.05"/>
<polygon fill="#63b8ff" stroke="#63b8ff" points="162.63,-32.73 152.07,-33.47 160.79,-39.48 162.63,-32.73"/>
</a>
</g>
<g id="a_edge6&#45;headlabel"><a xlink:href="dir_000133_000287.html" target="_top" xlink:title="1">
<text text-anchor="middle" x="165.39" y="-26.66" font-family="Helvetica,sans-Serif" font-size="10.00" fill="#63b8ff">1</text>
</a>
</g>
</g>
<!-- dir_590048ab7c166ca7dcc58c5fcfd0b979&#45;&gt;dir_b620d3bc325baca79d772d7a5b5e4e14 -->
<g id="edge5" class="edge">
<title>dir_590048ab7c166ca7dcc58c5fcfd0b979&#45;&gt;dir_b620d3bc325baca79d772d7a5b5e4e14</title>
<g id="a_edge5"><a xlink:href="dir_000133_000156.html" target="_top">
<path fill="none" stroke="#63b8ff" d="M334.35,-70.76C338.77,-67.92 343.92,-65.06 349,-63.25 433.91,-32.97 463.47,-50.17 555.2,-35.54"/>
<polygon fill="#63b8ff" stroke="#63b8ff" points="555.62,-39.02 564.9,-33.9 554.46,-32.12 555.62,-39.02"/>
</a>
</g>
<g id="a_edge5&#45;headlabel"><a xlink:href="dir_000133_000156.html" target="_top" xlink:title="1">
<text text-anchor="middle" x="554.04" y="-38.29" font-family="Helvetica,sans-Serif" font-size="10.00" fill="#63b8ff">1</text>
</a>
</g>
</g>
<!-- dir_590048ab7c166ca7dcc58c5fcfd0b979&#45;&gt;dir_0a1713e4fb81d523db81c567ef556d2d -->
<g id="edge1" class="edge">
<title>dir_590048ab7c166ca7dcc58c5fcfd0b979&#45;&gt;dir_0a1713e4fb81d523db81c567ef556d2d</title>
<g id="a_edge1"><a xlink:href="dir_000133_000103.html" target="_top">
<path fill="none" stroke="#63b8ff" d="M309.62,-70.84C298.85,-62.99 283.03,-51.45 270.25,-42.12"/>
<polygon fill="#63b8ff" stroke="#63b8ff" points="272.56,-39.48 262.42,-36.42 268.44,-45.14 272.56,-39.48"/>
</a>
</g>
<g id="a_edge1&#45;headlabel"><a xlink:href="dir_000133_000103.html" target="_top" xlink:title="2">
<text text-anchor="middle" x="275.92" y="-34.54" font-family="Helvetica,sans-Serif" font-size="10.00" fill="#63b8ff">2</text>
</a>
</g>
</g>
<!-- dir_590048ab7c166ca7dcc58c5fcfd0b979&#45;&gt;dir_c502843d9d478212e9ef7c5af298ff11 -->
<g id="edge7" class="edge">
<title>dir_590048ab7c166ca7dcc58c5fcfd0b979&#45;&gt;dir_c502843d9d478212e9ef7c5af298ff11</title>
<g id="a_edge7"><a xlink:href="dir_000133_000061.html" target="_top">
<path fill="none" stroke="#63b8ff" d="M322,-71.08C322,-64.57 322,-55.42 322,-47.12"/>
<polygon fill="#63b8ff" stroke="#63b8ff" points="325.5,-47.12 322,-37.12 318.5,-47.12 325.5,-47.12"/>
</a>
</g>
<g id="a_edge7&#45;headlabel"><a xlink:href="dir_000133_000061.html" target="_top" xlink:title="1">
<text text-anchor="middle" x="328.34" y="-45.33" font-family="Helvetica,sans-Serif" font-size="10.00" fill="#63b8ff">1</text>
</a>
</g>
</g>
<!-- dir_590048ab7c166ca7dcc58c5fcfd0b979&#45;&gt;dir_f38c03f336a0b3deec81b9cab2eb45b9 -->
<g id="edge8" class="edge">
<title>dir_590048ab7c166ca7dcc58c5fcfd0b979&#45;&gt;dir_f38c03f336a0b3deec81b9cab2eb45b9</title>
<g id="a_edge8"><a xlink:href="dir_000133_000033.html" target="_top">
<path fill="none" stroke="#63b8ff" d="M336.16,-70.84C340.26,-68.31 344.77,-65.61 349,-63.25 363.17,-55.35 379.26,-47.2 392.71,-40.59"/>
<polygon fill="#63b8ff" stroke="#63b8ff" points="394.03,-43.85 401.5,-36.33 390.97,-37.55 394.03,-43.85"/>
</a>
</g>
<g id="a_edge8&#45;headlabel"><a xlink:href="dir_000133_000033.html" target="_top" xlink:title="2">
<text text-anchor="middle" x="393.4" y="-43.43" font-family="Helvetica,sans-Serif" font-size="10.00" fill="#63b8ff">2</text>
</a>
</g>
</g>
<!-- dir_590048ab7c166ca7dcc58c5fcfd0b979&#45;&gt;dir_aae5e3cd3f43e577e96215716dce9c16 -->
<g id="edge4" class="edge">
<title>dir_590048ab7c166ca7dcc58c5fcfd0b979&#45;&gt;dir_aae5e3cd3f43e577e96215716dce9c16</title>
<g id="a_edge4"><a xlink:href="dir_000133_000234.html" target="_top">
<path fill="none" stroke="#63b8ff" d="M334.72,-70.83C339.08,-68.07 344.1,-65.23 349,-63.25 354.67,-60.96 422.65,-46.27 469.83,-36.2"/>
<polygon fill="#63b8ff" stroke="#63b8ff" points="470.5,-39.64 479.55,-34.13 469.04,-32.79 470.5,-39.64"/>
</a>
</g>
<g id="a_edge4&#45;headlabel"><a xlink:href="dir_000133_000234.html" target="_top" xlink:title="1">
<text text-anchor="middle" x="469.06" y="-38.97" font-family="Helvetica,sans-Serif" font-size="10.00" fill="#63b8ff">1</text>
</a>
</g>
</g>
<!-- dir_240c770a67d683da3ca6f27b1034a157 -->
<g id="node13" class="node">
<title>dir_240c770a67d683da3ca6f27b1034a157</title>
<g id="a_node13"><a xlink:href="dir_240c770a67d683da3ca6f27b1034a157.html" target="_top" xlink:title="src">
<polygon fill="#a2b4d6" stroke="#404040" points="328.75,-145.75 299.25,-145.75 299.25,-126.5 328.75,-126.5 328.75,-145.75"/>
<text text-anchor="middle" x="314" y="-132.25" font-family="Helvetica,sans-Serif" font-size="10.00">src</text>
</a>
</g>
</g>
<!-- dir_240c770a67d683da3ca6f27b1034a157&#45;&gt;dir_b620d3bc325baca79d772d7a5b5e4e14 -->
<g id="edge11" class="edge">
<title>dir_240c770a67d683da3ca6f27b1034a157&#45;&gt;dir_b620d3bc325baca79d772d7a5b5e4e14</title>
<g id="a_edge11"><a xlink:href="dir_000249_000156.html" target="_top">
<path fill="none" stroke="#63b8ff" d="M321.29,-126.36C334.72,-110.86 365.01,-78.8 398,-63.25 460.11,-33.97 484.75,-47.74 555.15,-35.62"/>
<polygon fill="#63b8ff" stroke="#63b8ff" points="555.69,-39.08 564.88,-33.81 554.41,-32.19 555.69,-39.08"/>
</a>
</g>
<g id="a_edge11&#45;headlabel"><a xlink:href="dir_000249_000156.html" target="_top" xlink:title="1">
<text text-anchor="middle" x="554.16" y="-38.37" font-family="Helvetica,sans-Serif" font-size="10.00" fill="#63b8ff">1</text>
</a>
</g>
</g>
<!-- dir_240c770a67d683da3ca6f27b1034a157&#45;&gt;dir_d825b831d5f4002527e46bb27072c2b3 -->
<g id="edge12" class="edge">
<title>dir_240c770a67d683da3ca6f27b1034a157&#45;&gt;dir_d825b831d5f4002527e46bb27072c2b3</title>
<g id="a_edge12"><a xlink:href="dir_000249_000164.html" target="_top">
<path fill="none" stroke="#63b8ff" d="M329.16,-128.16C347,-119.97 377.06,-106.18 399.72,-95.77"/>
<polygon fill="#63b8ff" stroke="#63b8ff" points="401.17,-98.96 408.79,-91.61 398.25,-92.6 401.17,-98.96"/>
</a>
</g>
<g id="a_edge12&#45;headlabel"><a xlink:href="dir_000249_000164.html" target="_top" xlink:title="2">
<text text-anchor="middle" x="400.46" y="-98.54" font-family="Helvetica,sans-Serif" font-size="10.00" fill="#63b8ff">2</text>
</a>
</g>
</g>
<!-- dir_240c770a67d683da3ca6f27b1034a157&#45;&gt;dir_443866e9f10fcfd291364a22f6a0ca3a -->
<g id="edge9" class="edge">
<title>dir_240c770a67d683da3ca6f27b1034a157&#45;&gt;dir_443866e9f10fcfd291364a22f6a0ca3a</title>
<g id="a_edge9"><a xlink:href="dir_000249_000221.html" target="_top">
<path fill="none" stroke="#63b8ff" d="M329.17,-129.46C332.09,-128.43 335.13,-127.4 338,-126.5 379.2,-113.55 426.89,-100.9 460.37,-92.39"/>
<polygon fill="#63b8ff" stroke="#63b8ff" points="460.84,-95.89 469.68,-90.05 459.13,-89.1 460.84,-95.89"/>
</a>
</g>
<g id="a_edge9&#45;headlabel"><a xlink:href="dir_000249_000221.html" target="_top" xlink:title="4">
<text text-anchor="middle" x="459.52" y="-95.27" font-family="Helvetica,sans-Serif" font-size="10.00" fill="#63b8ff">4</text>
</a>
</g>
</g>
<!-- dir_240c770a67d683da3ca6f27b1034a157&#45;&gt;dir_590048ab7c166ca7dcc58c5fcfd0b979 -->
<g id="edge10" class="edge">
<title>dir_240c770a67d683da3ca6f27b1034a157&#45;&gt;dir_590048ab7c166ca7dcc58c5fcfd0b979</title>
<g id="a_edge10"><a xlink:href="dir_000249_000133.html" target="_top">
<path fill="none" stroke="#63b8ff" d="M315.32,-126.33C316.31,-119.74 317.71,-110.46 318.97,-102.07"/>
<polygon fill="#63b8ff" stroke="#63b8ff" points="322.4,-102.76 320.43,-92.36 315.48,-101.72 322.4,-102.76"/>
</a>
</g>
<g id="a_edge10&#45;headlabel"><a xlink:href="dir_000249_000133.html" target="_top" xlink:title="3">
<text text-anchor="middle" x="324.9" y="-101.37" font-family="Helvetica,sans-Serif" font-size="10.00" fill="#63b8ff">3</text>
</a>
</g>
</g>
</g>
</svg>
