<?xml version="1.0" encoding="UTF-8" standalone="no"?>
<!DOCTYPE svg PUBLIC "-//W3C//DTD SVG 1.1//EN"
 "http://www.w3.org/Graphics/SVG/1.1/DTD/svg11.dtd">
<!-- Generated by graphviz version 9.0.0 (20230911.1827)
 -->
<!-- Title: sourcecode/oksutils/src Pages: 1 -->
<svg width="226pt" height="142pt"
 viewBox="0.00 0.00 226.38 141.75" xmlns="http://www.w3.org/2000/svg" xmlns:xlink="http://www.w3.org/1999/xlink">
<g id="graph0" class="graph" transform="scale(1 1) rotate(0) translate(4 137.75)">
<title>sourcecode/oksutils/src</title>
<g id="clust1" class="cluster">
<title>clusterdir_423da03ec53b8759a67a0127239efe6e</title>
<g id="a_clust1"><a xlink:href="dir_423da03ec53b8759a67a0127239efe6e.html" target="_top" xlink:title="oksutils">
<polygon fill="#edf0f7" stroke="#7f7f7f" stroke-dasharray="5,2" points="8,-8 8,-125.75 116,-125.75 116,-8 8,-8"/>
<text text-anchor="middle" x="62" y="-112.25" font-family="Helvetica,sans-Serif" font-size="10.00">oksutils</text>
</a>
</g>
</g>
<g id="clust2" class="cluster">
<title>clusterdir_7dd9b02241d47b14df17ce1f2f110d1f</title>
<g id="a_clust2"><a xlink:href="dir_7dd9b02241d47b14df17ce1f2f110d1f.html" target="_top">
<polygon fill="#edf0f7" stroke="#404040" stroke-width="2" points="16,-63.25 16,-98.5 108,-98.5 108,-63.25 16,-63.25"/>
</a>
</g>
</g>
<!-- dir_26e727539b346102b173c34c8dfd2afe -->
<g id="node1" class="node">
<title>dir_26e727539b346102b173c34c8dfd2afe</title>
<g id="a_node1"><a xlink:href="dir_26e727539b346102b173c34c8dfd2afe.html" target="_top" xlink:title="include">
<polygon fill="#a2b4d6" stroke="red" points="62.38,-35.25 15.62,-35.25 15.62,-16 62.38,-16 62.38,-35.25"/>
<text text-anchor="middle" x="39" y="-21.75" font-family="Helvetica,sans-Serif" font-size="10.00">include</text>
</a>
</g>
</g>
<!-- dir_7dd9b02241d47b14df17ce1f2f110d1f -->
<g id="node2" class="node">
<title>dir_7dd9b02241d47b14df17ce1f2f110d1f</title>
<text text-anchor="middle" x="85" y="-77" font-family="Helvetica,sans-Serif" font-size="10.00">src</text>
</g>
<!-- dir_c283d721cc09c619f3dc103158cbf869 -->
<g id="node3" class="node">
<title>dir_c283d721cc09c619f3dc103158cbf869</title>
<g id="a_node3"><a xlink:href="dir_c283d721cc09c619f3dc103158cbf869.html" target="_top" xlink:title="lib">
<polygon fill="#a2b4d6" stroke="#404040" points="52.4,-90.5 23.6,-90.5 23.6,-71.25 52.4,-71.25 52.4,-90.5"/>
<text text-anchor="middle" x="38" y="-77" font-family="Helvetica,sans-Serif" font-size="10.00">lib</text>
</a>
</g>
</g>
<!-- dir_c283d721cc09c619f3dc103158cbf869&#45;&gt;dir_26e727539b346102b173c34c8dfd2afe -->
<g id="edge2" class="edge">
<title>dir_c283d721cc09c619f3dc103158cbf869&#45;&gt;dir_26e727539b346102b173c34c8dfd2afe</title>
<g id="a_edge2"><a xlink:href="dir_000161_000141.html" target="_top">
<path fill="none" stroke="#63b8ff" d="M38.17,-71.08C38.29,-64.57 38.46,-55.42 38.62,-47.12"/>
<polygon fill="#63b8ff" stroke="#63b8ff" points="42.11,-47.19 38.8,-37.12 35.12,-47.05 42.11,-47.19"/>
</a>
</g>
<g id="a_edge2&#45;headlabel"><a xlink:href="dir_000161_000141.html" target="_top" xlink:title="2">
<text text-anchor="middle" x="44.91" y="-45.45" font-family="Helvetica,sans-Serif" font-size="10.00" fill="#63b8ff">2</text>
</a>
</g>
</g>
<!-- dir_0a1713e4fb81d523db81c567ef556d2d -->
<g id="node4" class="node">
<title>dir_0a1713e4fb81d523db81c567ef556d2d</title>
<g id="a_node4"><a xlink:href="dir_0a1713e4fb81d523db81c567ef556d2d.html" target="_top" xlink:title="ers">
<polygon fill="#edf0f7" stroke="red" stroke-dasharray="5,2" points="153.75,-35.25 124.25,-35.25 124.25,-16 153.75,-16 153.75,-35.25"/>
<text text-anchor="middle" x="139" y="-21.75" font-family="Helvetica,sans-Serif" font-size="10.00">ers</text>
</a>
</g>
</g>
<!-- dir_c283d721cc09c619f3dc103158cbf869&#45;&gt;dir_0a1713e4fb81d523db81c567ef556d2d -->
<g id="edge1" class="edge">
<title>dir_c283d721cc09c619f3dc103158cbf869&#45;&gt;dir_0a1713e4fb81d523db81c567ef556d2d</title>
<g id="a_edge1"><a xlink:href="dir_000161_000103.html" target="_top">
<path fill="none" stroke="#63b8ff" d="M49.42,-70.98C53.03,-68.35 57.09,-65.55 61,-63.25 65.94,-60.34 92.93,-47.78 113.79,-38.18"/>
<polygon fill="#63b8ff" stroke="#63b8ff" points="114.99,-41.48 122.62,-34.12 112.07,-35.12 114.99,-41.48"/>
</a>
</g>
<g id="a_edge1&#45;headlabel"><a xlink:href="dir_000161_000103.html" target="_top" xlink:title="1">
<text text-anchor="middle" x="114.29" y="-41.05" font-family="Helvetica,sans-Serif" font-size="10.00" fill="#63b8ff">1</text>
</a>
</g>
</g>
<!-- dir_d825b831d5f4002527e46bb27072c2b3 -->
<g id="node5" class="node">
<title>dir_d825b831d5f4002527e46bb27072c2b3</title>
<g id="a_node5"><a xlink:href="dir_d825b831d5f4002527e46bb27072c2b3.html" target="_top" xlink:title="logging">
<polygon fill="#edf0f7" stroke="red" stroke-dasharray="5,2" points="218.38,-35.25 171.62,-35.25 171.62,-16 218.38,-16 218.38,-35.25"/>
<text text-anchor="middle" x="195" y="-21.75" font-family="Helvetica,sans-Serif" font-size="10.00">logging</text>
</a>
</g>
</g>
<!-- dir_c283d721cc09c619f3dc103158cbf869&#45;&gt;dir_d825b831d5f4002527e46bb27072c2b3 -->
<g id="edge3" class="edge">
<title>dir_c283d721cc09c619f3dc103158cbf869&#45;&gt;dir_d825b831d5f4002527e46bb27072c2b3</title>
<g id="a_edge3"><a xlink:href="dir_000161_000164.html" target="_top">
<path fill="none" stroke="#63b8ff" d="M48.72,-70.9C52.43,-68.14 56.73,-65.29 61,-63.25 62.16,-62.7 121.01,-46.69 160.32,-36.02"/>
<polygon fill="#63b8ff" stroke="#63b8ff" points="161.12,-39.43 169.86,-33.44 159.29,-32.68 161.12,-39.43"/>
</a>
</g>
<g id="a_edge3&#45;headlabel"><a xlink:href="dir_000161_000164.html" target="_top" xlink:title="1">
<text text-anchor="middle" x="159.86" y="-38.84" font-family="Helvetica,sans-Serif" font-size="10.00" fill="#63b8ff">1</text>
</a>
</g>
</g>
</g>
</svg>
