<?xml version="1.0" encoding="UTF-8" standalone="no"?>
<!DOCTYPE svg PUBLIC "-//W3C//DTD SVG 1.1//EN"
 "http://www.w3.org/Graphics/SVG/1.1/DTD/svg11.dtd">
<!-- Generated by graphviz version 9.0.0 (20230911.1827)
 -->
<!-- Title: sourcecode/oksconfig Pages: 1 -->
<svg width="331pt" height="197pt"
 viewBox="0.00 0.00 331.00 197.00" xmlns="http://www.w3.org/2000/svg" xmlns:xlink="http://www.w3.org/1999/xlink">
<g id="graph0" class="graph" transform="scale(1 1) rotate(0) translate(4 193)">
<title>sourcecode/oksconfig</title>
<g id="clust1" class="cluster">
<title>clusterdir_b89c6037bfefa0e5d020a7058f32a811</title>
<g id="a_clust1"><a xlink:href="dir_b89c6037bfefa0e5d020a7058f32a811.html" target="_top" xlink:title="sourcecode">
<polygon fill="#edf0f7" stroke="#404040" stroke-dasharray="5,2" points="8,-8 8,-181 315,-181 315,-8 8,-8"/>
<text text-anchor="middle" x="161.5" y="-167.5" font-family="Helvetica,sans-Serif" font-size="10.00">sourcecode</text>
</a>
</g>
</g>
<g id="clust2" class="cluster">
<title>clusterdir_d89a5f77bb44f1112da63acbbb2847e8</title>
<g id="a_clust2"><a xlink:href="dir_d89a5f77bb44f1112da63acbbb2847e8.html" target="_top">
<polygon fill="#edf0f7" stroke="#404040" stroke-width="2" points="16,-63.25 16,-153.75 137,-153.75 137,-63.25 16,-63.25"/>
</a>
</g>
</g>
<!-- dir_469215ec156f530216e24b790d5149a6 -->
<g id="node1" class="node">
<title>dir_469215ec156f530216e24b790d5149a6</title>
<g id="a_node1"><a xlink:href="dir_469215ec156f530216e24b790d5149a6.html" target="_top" xlink:title="oks">
<polygon fill="#a2b4d6" stroke="red" points="47.88,-35.25 16.12,-35.25 16.12,-16 47.88,-16 47.88,-35.25"/>
<text text-anchor="middle" x="32" y="-21.75" font-family="Helvetica,sans-Serif" font-size="10.00">oks</text>
</a>
</g>
</g>
<!-- dir_74612d0701f8930964309a79d92afd69 -->
<g id="node2" class="node">
<title>dir_74612d0701f8930964309a79d92afd69</title>
<g id="a_node2"><a xlink:href="dir_74612d0701f8930964309a79d92afd69.html" target="_top" xlink:title="oksdbinterfaces">
<polygon fill="#a2b4d6" stroke="red" points="150.5,-35.25 65.5,-35.25 65.5,-16 150.5,-16 150.5,-35.25"/>
<text text-anchor="middle" x="108" y="-21.75" font-family="Helvetica,sans-Serif" font-size="10.00">oksdbinterfaces</text>
</a>
</g>
</g>
<!-- dir_0a1713e4fb81d523db81c567ef556d2d -->
<g id="node3" class="node">
<title>dir_0a1713e4fb81d523db81c567ef556d2d</title>
<g id="a_node3"><a xlink:href="dir_0a1713e4fb81d523db81c567ef556d2d.html" target="_top" xlink:title="ers">
<polygon fill="#a2b4d6" stroke="red" points="174.75,-90.5 145.25,-90.5 145.25,-71.25 174.75,-71.25 174.75,-90.5"/>
<text text-anchor="middle" x="160" y="-77" font-family="Helvetica,sans-Serif" font-size="10.00">ers</text>
</a>
</g>
</g>
<!-- dir_d825b831d5f4002527e46bb27072c2b3 -->
<g id="node4" class="node">
<title>dir_d825b831d5f4002527e46bb27072c2b3</title>
<g id="a_node4"><a xlink:href="dir_d825b831d5f4002527e46bb27072c2b3.html" target="_top" xlink:title="logging">
<polygon fill="#a2b4d6" stroke="red" points="239.38,-90.5 192.62,-90.5 192.62,-71.25 239.38,-71.25 239.38,-90.5"/>
<text text-anchor="middle" x="216" y="-77" font-family="Helvetica,sans-Serif" font-size="10.00">logging</text>
</a>
</g>
</g>
<!-- dir_423da03ec53b8759a67a0127239efe6e -->
<g id="node5" class="node">
<title>dir_423da03ec53b8759a67a0127239efe6e</title>
<g id="a_node5"><a xlink:href="dir_423da03ec53b8759a67a0127239efe6e.html" target="_top" xlink:title="oksutils">
<polygon fill="#a2b4d6" stroke="red" points="306.88,-90.5 257.12,-90.5 257.12,-71.25 306.88,-71.25 306.88,-90.5"/>
<text text-anchor="middle" x="282" y="-77" font-family="Helvetica,sans-Serif" font-size="10.00">oksutils</text>
</a>
</g>
</g>
<!-- dir_d89a5f77bb44f1112da63acbbb2847e8 -->
<g id="node6" class="node">
<title>dir_d89a5f77bb44f1112da63acbbb2847e8</title>
<text text-anchor="middle" x="100" y="-132.25" font-family="Helvetica,sans-Serif" font-size="10.00">oksconfig</text>
</g>
<!-- dir_c7dc4cca7bfd77030088ffdf43214dc3 -->
<g id="node7" class="node">
<title>dir_c7dc4cca7bfd77030088ffdf43214dc3</title>
<g id="a_node7"><a xlink:href="dir_c7dc4cca7bfd77030088ffdf43214dc3.html" target="_top" xlink:title="include">
<polygon fill="#a2b4d6" stroke="#404040" points="89.38,-90.5 42.62,-90.5 42.62,-71.25 89.38,-71.25 89.38,-90.5"/>
<text text-anchor="middle" x="66" y="-77" font-family="Helvetica,sans-Serif" font-size="10.00">include</text>
</a>
</g>
</g>
<!-- dir_c7dc4cca7bfd77030088ffdf43214dc3&#45;&gt;dir_469215ec156f530216e24b790d5149a6 -->
<g id="edge1" class="edge">
<title>dir_c7dc4cca7bfd77030088ffdf43214dc3&#45;&gt;dir_469215ec156f530216e24b790d5149a6</title>
<g id="a_edge1"><a xlink:href="dir_000138_000171.html" target="_top">
<path fill="none" stroke="#63b8ff" d="M60.39,-71.08C55.88,-64.03 49.41,-53.9 43.79,-45.08"/>
<polygon fill="#63b8ff" stroke="#63b8ff" points="46.88,-43.43 38.55,-36.88 40.98,-47.2 46.88,-43.43"/>
</a>
</g>
<g id="a_edge1&#45;headlabel"><a xlink:href="dir_000138_000171.html" target="_top" xlink:title="2">
<text text-anchor="middle" x="50.4" y="-39.78" font-family="Helvetica,sans-Serif" font-size="10.00" fill="#63b8ff">2</text>
</a>
</g>
</g>
<!-- dir_c7dc4cca7bfd77030088ffdf43214dc3&#45;&gt;dir_74612d0701f8930964309a79d92afd69 -->
<g id="edge2" class="edge">
<title>dir_c7dc4cca7bfd77030088ffdf43214dc3&#45;&gt;dir_74612d0701f8930964309a79d92afd69</title>
<g id="a_edge2"><a xlink:href="dir_000138_000176.html" target="_top">
<path fill="none" stroke="#63b8ff" d="M72.94,-71.08C78.62,-63.88 86.84,-53.46 93.89,-44.51"/>
<polygon fill="#63b8ff" stroke="#63b8ff" points="96.53,-46.82 99.98,-36.8 91.04,-42.48 96.53,-46.82"/>
</a>
</g>
<g id="a_edge2&#45;headlabel"><a xlink:href="dir_000138_000176.html" target="_top" xlink:title="2">
<text text-anchor="middle" x="97.47" y="-46.33" font-family="Helvetica,sans-Serif" font-size="10.00" fill="#63b8ff">2</text>
</a>
</g>
</g>
<!-- dir_5bf717ee5043e9ce1b8052e97ca7fd72 -->
<g id="node8" class="node">
<title>dir_5bf717ee5043e9ce1b8052e97ca7fd72</title>
<g id="a_node8"><a xlink:href="dir_5bf717ee5043e9ce1b8052e97ca7fd72.html" target="_top" xlink:title="src">
<polygon fill="#a2b4d6" stroke="#404040" points="53.75,-145.75 24.25,-145.75 24.25,-126.5 53.75,-126.5 53.75,-145.75"/>
<text text-anchor="middle" x="39" y="-132.25" font-family="Helvetica,sans-Serif" font-size="10.00">src</text>
</a>
</g>
</g>
<!-- dir_5bf717ee5043e9ce1b8052e97ca7fd72&#45;&gt;dir_469215ec156f530216e24b790d5149a6 -->
<g id="edge5" class="edge">
<title>dir_5bf717ee5043e9ce1b8052e97ca7fd72&#45;&gt;dir_469215ec156f530216e24b790d5149a6</title>
<g id="a_edge5"><a xlink:href="dir_000255_000171.html" target="_top">
<path fill="none" stroke="#63b8ff" d="M37.79,-126.25C36.62,-117.26 34.89,-102.94 34,-90.5 32.97,-76.04 32.47,-59.71 32.22,-47.18"/>
<polygon fill="#63b8ff" stroke="#63b8ff" points="35.73,-47.19 32.08,-37.25 28.73,-47.3 35.73,-47.19"/>
</a>
</g>
<g id="a_edge5&#45;headlabel"><a xlink:href="dir_000255_000171.html" target="_top" xlink:title="7">
<text text-anchor="middle" x="38.6" y="-45.36" font-family="Helvetica,sans-Serif" font-size="10.00" fill="#63b8ff">7</text>
</a>
</g>
</g>
<!-- dir_5bf717ee5043e9ce1b8052e97ca7fd72&#45;&gt;dir_74612d0701f8930964309a79d92afd69 -->
<g id="edge6" class="edge">
<title>dir_5bf717ee5043e9ce1b8052e97ca7fd72&#45;&gt;dir_74612d0701f8930964309a79d92afd69</title>
<g id="a_edge6"><a xlink:href="dir_000255_000176.html" target="_top">
<path fill="none" stroke="#63b8ff" d="M54,-128.03C67.8,-120.67 87.65,-107.8 98,-90.5 105.86,-77.36 108.19,-60.09 108.64,-46.82"/>
<polygon fill="#63b8ff" stroke="#63b8ff" points="112.14,-47.1 108.62,-37.1 105.14,-47.11 112.14,-47.1"/>
</a>
</g>
<g id="a_edge6&#45;headlabel"><a xlink:href="dir_000255_000176.html" target="_top" xlink:title="5">
<text text-anchor="middle" x="114.98" y="-45.3" font-family="Helvetica,sans-Serif" font-size="10.00" fill="#63b8ff">5</text>
</a>
</g>
</g>
<!-- dir_5bf717ee5043e9ce1b8052e97ca7fd72&#45;&gt;dir_0a1713e4fb81d523db81c567ef556d2d -->
<g id="edge3" class="edge">
<title>dir_5bf717ee5043e9ce1b8052e97ca7fd72&#45;&gt;dir_0a1713e4fb81d523db81c567ef556d2d</title>
<g id="a_edge3"><a xlink:href="dir_000255_000103.html" target="_top">
<path fill="none" stroke="#63b8ff" d="M54.24,-128.54C72.25,-120.73 103.39,-107.19 134.86,-93.22"/>
<polygon fill="#63b8ff" stroke="#63b8ff" points="135.98,-96.55 143.69,-89.29 133.13,-90.16 135.98,-96.55"/>
</a>
</g>
<g id="a_edge3&#45;headlabel"><a xlink:href="dir_000255_000103.html" target="_top" xlink:title="2">
<text text-anchor="middle" x="135.23" y="-96.12" font-family="Helvetica,sans-Serif" font-size="10.00" fill="#63b8ff">2</text>
</a>
</g>
</g>
<!-- dir_5bf717ee5043e9ce1b8052e97ca7fd72&#45;&gt;dir_d825b831d5f4002527e46bb27072c2b3 -->
<g id="edge8" class="edge">
<title>dir_5bf717ee5043e9ce1b8052e97ca7fd72&#45;&gt;dir_d825b831d5f4002527e46bb27072c2b3</title>
<g id="a_edge8"><a xlink:href="dir_000255_000164.html" target="_top">
<path fill="none" stroke="#63b8ff" d="M54.03,-129.3C56.68,-128.33 59.41,-127.36 62,-126.5 84.18,-119.14 143.53,-102.23 181.73,-91.47"/>
<polygon fill="#63b8ff" stroke="#63b8ff" points="182.24,-94.97 190.92,-88.89 180.34,-88.23 182.24,-94.97"/>
</a>
</g>
<g id="a_edge8&#45;headlabel"><a xlink:href="dir_000255_000164.html" target="_top" xlink:title="1">
<text text-anchor="middle" x="181" y="-94.39" font-family="Helvetica,sans-Serif" font-size="10.00" fill="#63b8ff">1</text>
</a>
</g>
</g>
<!-- dir_5bf717ee5043e9ce1b8052e97ca7fd72&#45;&gt;dir_423da03ec53b8759a67a0127239efe6e -->
<g id="edge4" class="edge">
<title>dir_5bf717ee5043e9ce1b8052e97ca7fd72&#45;&gt;dir_423da03ec53b8759a67a0127239efe6e</title>
<g id="a_edge4"><a xlink:href="dir_000255_000181.html" target="_top">
<path fill="none" stroke="#63b8ff" d="M53.97,-129.1C56.62,-128.15 59.37,-127.24 62,-126.5 139.63,-104.6 163.81,-108.47 245.68,-90.88"/>
<polygon fill="#63b8ff" stroke="#63b8ff" points="246.29,-94.33 255.31,-88.77 244.79,-87.49 246.29,-94.33"/>
</a>
</g>
<g id="a_edge4&#45;headlabel"><a xlink:href="dir_000255_000181.html" target="_top" xlink:title="1">
<text text-anchor="middle" x="244.87" y="-93.68" font-family="Helvetica,sans-Serif" font-size="10.00" fill="#63b8ff">1</text>
</a>
</g>
</g>
<!-- dir_5bf717ee5043e9ce1b8052e97ca7fd72&#45;&gt;dir_c7dc4cca7bfd77030088ffdf43214dc3 -->
<g id="edge7" class="edge">
<title>dir_5bf717ee5043e9ce1b8052e97ca7fd72&#45;&gt;dir_c7dc4cca7bfd77030088ffdf43214dc3</title>
<g id="a_edge7"><a xlink:href="dir_000255_000138.html" target="_top">
<path fill="none" stroke="#63b8ff" d="M43.46,-126.33C46.95,-119.44 51.95,-109.59 56.35,-100.91"/>
<polygon fill="#63b8ff" stroke="#63b8ff" points="59.36,-102.71 60.76,-92.21 53.12,-99.55 59.36,-102.71"/>
</a>
</g>
<g id="a_edge7&#45;headlabel"><a xlink:href="dir_000255_000138.html" target="_top" xlink:title="4">
<text text-anchor="middle" x="60.95" y="-101.98" font-family="Helvetica,sans-Serif" font-size="10.00" fill="#63b8ff">4</text>
</a>
</g>
</g>
</g>
</svg>
