<?xml version="1.0" encoding="UTF-8" standalone="no"?>
<!DOCTYPE svg PUBLIC "-//W3C//DTD SVG 1.1//EN"
 "http://www.w3.org/Graphics/SVG/1.1/DTD/svg11.dtd">
<!-- Generated by graphviz version 9.0.0 (20230911.1827)
 -->
<!-- Title: sourcecode/timing/include/timing/EndpointNode.hpp Pages: 1 -->
<svg width="1766pt" height="305pt"
 viewBox="0.00 0.00 1765.99 304.50" xmlns="http://www.w3.org/2000/svg" xmlns:xlink="http://www.w3.org/1999/xlink">
<g id="graph0" class="graph" transform="scale(1 1) rotate(0) translate(4 300.5)">
<title>sourcecode/timing/include/timing/EndpointNode.hpp</title>
<!-- Node1 -->
<g id="Node000001" class="node">
<title>Node1</title>
<g id="a_Node000001"><a xlink:title=" ">
<polygon fill="#999999" stroke="#666666" points="1239.25,-296.5 1110,-296.5 1110,-266 1239.25,-266 1239.25,-296.5"/>
<text text-anchor="start" x="1118" y="-283" font-family="Helvetica,sans-Serif" font-size="10.00">sourcecode/timing/include</text>
<text text-anchor="middle" x="1174.62" y="-271.75" font-family="Helvetica,sans-Serif" font-size="10.00">/timing/EndpointNode.hpp</text>
</a>
</g>
</g>
<!-- Node2 -->
<g id="Node000002" class="node">
<title>Node2</title>
<g id="a_Node000002"><a xlink:href="EndpointDesignInterface_8hpp.html" target="_top" xlink:title=" ">
<polygon fill="white" stroke="#666666" points="1007.62,-230 835.62,-230 835.62,-199.5 1007.62,-199.5 1007.62,-230"/>
<text text-anchor="start" x="843.62" y="-216.5" font-family="Helvetica,sans-Serif" font-size="10.00">sourcecode/timing/include</text>
<text text-anchor="middle" x="921.62" y="-205.25" font-family="Helvetica,sans-Serif" font-size="10.00">/timing/EndpointDesignInterface.hpp</text>
</a>
</g>
</g>
<!-- Node1&#45;&gt;Node2 -->
<g id="edge1_Node000001_Node000002" class="edge">
<title>Node1&#45;&gt;Node2</title>
<g id="a_edge1_Node000001_Node000002"><a xlink:title=" ">
<path fill="none" stroke="#63b8ff" d="M1105.97,-262.75C1066.22,-252.61 1016.78,-240.01 979.1,-230.4"/>
<polygon fill="#63b8ff" stroke="#63b8ff" points="1104.88,-266.08 1115.43,-265.16 1106.61,-259.3 1104.88,-266.08"/>
</a>
</g>
</g>
<!-- Node28 -->
<g id="Node000028" class="node">
<title>Node28</title>
<g id="a_Node000028"><a xlink:href="definitions_8cpp.html" target="_top" xlink:title=" ">
<polygon fill="white" stroke="#666666" points="1165.5,-230 1025.75,-230 1025.75,-199.5 1165.5,-199.5 1165.5,-230"/>
<text text-anchor="start" x="1033.75" y="-216.5" font-family="Helvetica,sans-Serif" font-size="10.00">sourcecode/timing/pybindsrc</text>
<text text-anchor="middle" x="1095.62" y="-205.25" font-family="Helvetica,sans-Serif" font-size="10.00">/definitions.cpp</text>
</a>
</g>
</g>
<!-- Node1&#45;&gt;Node28 -->
<g id="edge39_Node000001_Node000028" class="edge">
<title>Node1&#45;&gt;Node28</title>
<g id="a_edge39_Node000001_Node000028"><a xlink:title=" ">
<path fill="none" stroke="#63b8ff" d="M1148.01,-258.52C1136.64,-249.23 1123.67,-238.65 1113.48,-230.33"/>
<polygon fill="#63b8ff" stroke="#63b8ff" points="1145.57,-261.04 1155.53,-264.66 1149.99,-255.62 1145.57,-261.04"/>
</a>
</g>
</g>
<!-- Node29 -->
<g id="Node000029" class="node">
<title>Node29</title>
<g id="a_Node000029"><a xlink:href="endpoint_8cpp.html" target="_top" xlink:title=" ">
<polygon fill="white" stroke="#666666" points="1323.5,-230 1183.75,-230 1183.75,-199.5 1323.5,-199.5 1323.5,-230"/>
<text text-anchor="start" x="1191.75" y="-216.5" font-family="Helvetica,sans-Serif" font-size="10.00">sourcecode/timing/pybindsrc</text>
<text text-anchor="middle" x="1253.62" y="-205.25" font-family="Helvetica,sans-Serif" font-size="10.00">/endpoint.cpp</text>
</a>
</g>
</g>
<!-- Node1&#45;&gt;Node29 -->
<g id="edge40_Node000001_Node000029" class="edge">
<title>Node1&#45;&gt;Node29</title>
<g id="a_edge40_Node000001_Node000029"><a xlink:title=" ">
<path fill="none" stroke="#63b8ff" d="M1201.24,-258.52C1212.61,-249.23 1225.58,-238.65 1235.77,-230.33"/>
<polygon fill="#63b8ff" stroke="#63b8ff" points="1199.26,-255.62 1193.72,-264.66 1203.68,-261.04 1199.26,-255.62"/>
</a>
</g>
</g>
<!-- Node30 -->
<g id="Node000030" class="node">
<title>Node30</title>
<g id="a_Node000030"><a xlink:href="EndpointNode_8cpp.html" target="_top" xlink:title=" ">
<polygon fill="white" stroke="#666666" points="1453.62,-230 1341.62,-230 1341.62,-199.5 1453.62,-199.5 1453.62,-230"/>
<text text-anchor="start" x="1349.62" y="-216.5" font-family="Helvetica,sans-Serif" font-size="10.00">sourcecode/timing/src</text>
<text text-anchor="middle" x="1397.62" y="-205.25" font-family="Helvetica,sans-Serif" font-size="10.00">/EndpointNode.cpp</text>
</a>
</g>
</g>
<!-- Node1&#45;&gt;Node30 -->
<g id="edge41_Node000001_Node000030" class="edge">
<title>Node1&#45;&gt;Node30</title>
<g id="a_edge41_Node000001_Node000030"><a xlink:title=" ">
<path fill="none" stroke="#63b8ff" d="M1236.49,-262.35C1271.29,-252.29 1314.18,-239.89 1346.96,-230.4"/>
<polygon fill="#63b8ff" stroke="#63b8ff" points="1235.59,-258.97 1226.96,-265.11 1237.54,-265.7 1235.59,-258.97"/>
</a>
</g>
</g>
<!-- Node3 -->
<g id="Node000003" class="node">
<title>Node3</title>
<g id="a_Node000003"><a xlink:href="CRTDesignInterface_8hpp.html" target="_top" xlink:title=" ">
<polygon fill="white" stroke="#666666" points="528.62,-163.5 374.62,-163.5 374.62,-133 528.62,-133 528.62,-163.5"/>
<text text-anchor="start" x="382.62" y="-150" font-family="Helvetica,sans-Serif" font-size="10.00">sourcecode/timing/include</text>
<text text-anchor="middle" x="451.62" y="-138.75" font-family="Helvetica,sans-Serif" font-size="10.00">/timing/CRTDesignInterface.hpp</text>
</a>
</g>
</g>
<!-- Node2&#45;&gt;Node3 -->
<g id="edge2_Node000002_Node000003" class="edge">
<title>Node2&#45;&gt;Node3</title>
<g id="a_edge2_Node000002_Node000003"><a xlink:title=" ">
<path fill="none" stroke="#63b8ff" d="M823.87,-200.33C736.33,-188.32 609.68,-170.94 529.01,-159.87"/>
<polygon fill="#63b8ff" stroke="#63b8ff" points="823.26,-203.78 833.65,-201.68 824.22,-196.85 823.26,-203.78"/>
</a>
</g>
</g>
<!-- Node7 -->
<g id="Node000007" class="node">
<title>Node7</title>
<g id="a_Node000007"><a xlink:href="EndpointDesign_8hpp.html" target="_top" xlink:title=" ">
<polygon fill="white" stroke="#666666" points="904.5,-163.5 770.75,-163.5 770.75,-133 904.5,-133 904.5,-163.5"/>
<text text-anchor="start" x="778.75" y="-150" font-family="Helvetica,sans-Serif" font-size="10.00">sourcecode/timing/include</text>
<text text-anchor="middle" x="837.62" y="-138.75" font-family="Helvetica,sans-Serif" font-size="10.00">/timing/EndpointDesign.hpp</text>
</a>
</g>
</g>
<!-- Node2&#45;&gt;Node7 -->
<g id="edge6_Node000002_Node000007" class="edge">
<title>Node2&#45;&gt;Node7</title>
<g id="a_edge6_Node000002_Node000007"><a xlink:title=" ">
<path fill="none" stroke="#63b8ff" d="M893.68,-192.29C881.51,-182.94 867.55,-172.23 856.61,-163.83"/>
<polygon fill="#63b8ff" stroke="#63b8ff" points="891.3,-194.88 901.36,-198.19 895.56,-189.33 891.3,-194.88"/>
</a>
</g>
</g>
<!-- Node11 -->
<g id="Node000011" class="node">
<title>Node11</title>
<g id="a_Node000011"><a xlink:href="FanoutDesign_8hpp.html" target="_top" xlink:title=" ">
<polygon fill="white" stroke="#666666" points="129.25,-97 0,-97 0,-66.5 129.25,-66.5 129.25,-97"/>
<text text-anchor="start" x="8" y="-83.5" font-family="Helvetica,sans-Serif" font-size="10.00">sourcecode/timing/include</text>
<text text-anchor="middle" x="64.62" y="-72.25" font-family="Helvetica,sans-Serif" font-size="10.00">/timing/FanoutDesign.hpp</text>
</a>
</g>
</g>
<!-- Node2&#45;&gt;Node11 -->
<g id="edge12_Node000002_Node000011" class="edge">
<title>Node2&#45;&gt;Node11</title>
<g id="a_edge12_Node000002_Node000011"><a xlink:title=" ">
<path fill="none" stroke="#63b8ff" d="M823.86,-213.37C700.43,-211.19 482.17,-201.61 299.62,-163.5 225.93,-148.12 143.52,-116.19 98.51,-97.41"/>
<polygon fill="#63b8ff" stroke="#63b8ff" points="823.57,-216.87 833.62,-213.53 823.68,-209.87 823.57,-216.87"/>
</a>
</g>
</g>
<!-- Node14 -->
<g id="Node000014" class="node">
<title>Node14</title>
<g id="a_Node000014"><a xlink:href="GaiaDesign_8hpp.html" target="_top" xlink:title=" ">
<polygon fill="white" stroke="#666666" points="1061.25,-163.5 932,-163.5 932,-133 1061.25,-133 1061.25,-163.5"/>
<text text-anchor="start" x="940" y="-150" font-family="Helvetica,sans-Serif" font-size="10.00">sourcecode/timing/include</text>
<text text-anchor="middle" x="996.62" y="-138.75" font-family="Helvetica,sans-Serif" font-size="10.00">/timing/GaiaDesign.hpp</text>
</a>
</g>
</g>
<!-- Node2&#45;&gt;Node14 -->
<g id="edge16_Node000002_Node000014" class="edge">
<title>Node2&#45;&gt;Node14</title>
<g id="a_edge16_Node000002_Node000014"><a xlink:title=" ">
<path fill="none" stroke="#63b8ff" d="M947.22,-191.74C957.93,-182.53 970.1,-172.06 979.67,-163.83"/>
<polygon fill="#63b8ff" stroke="#63b8ff" points="945.09,-188.95 939.79,-198.13 949.66,-194.26 945.09,-188.95"/>
</a>
</g>
</g>
<!-- Node16 -->
<g id="Node000016" class="node">
<title>Node16</title>
<g id="a_Node000016"><a xlink:href="HSIDesignInterface_8hpp.html" target="_top" xlink:title=" ">
<polygon fill="white" stroke="#666666" points="734.5,-163.5 582.75,-163.5 582.75,-133 734.5,-133 734.5,-163.5"/>
<text text-anchor="start" x="590.75" y="-150" font-family="Helvetica,sans-Serif" font-size="10.00">sourcecode/timing/include</text>
<text text-anchor="middle" x="658.62" y="-138.75" font-family="Helvetica,sans-Serif" font-size="10.00">/timing/HSIDesignInterface.hpp</text>
</a>
</g>
</g>
<!-- Node2&#45;&gt;Node16 -->
<g id="edge19_Node000002_Node000016" class="edge">
<title>Node2&#45;&gt;Node16</title>
<g id="a_edge19_Node000002_Node000016"><a xlink:title=" ">
<path fill="none" stroke="#63b8ff" d="M850.52,-196.31C809.16,-186.17 757.62,-173.53 718.38,-163.9"/>
<polygon fill="#63b8ff" stroke="#63b8ff" points="849.6,-199.69 860.15,-198.67 851.27,-192.89 849.6,-199.69"/>
</a>
</g>
</g>
<!-- Node19 -->
<g id="Node000019" class="node">
<title>Node19</title>
<g id="a_Node000019"><a xlink:href="TimingHardwareManager_8hpp.html" target="_top" xlink:title=" ">
<polygon fill="white" stroke="#666666" points="309.75,-97 147.5,-97 147.5,-66.5 309.75,-66.5 309.75,-97"/>
<text text-anchor="start" x="155.5" y="-83.5" font-family="Helvetica,sans-Serif" font-size="10.00">sourcecode/timinglibs</text>
<text text-anchor="middle" x="228.62" y="-72.25" font-family="Helvetica,sans-Serif" font-size="10.00">/src/TimingHardwareManager.hpp</text>
</a>
</g>
</g>
<!-- Node2&#45;&gt;Node19 -->
<g id="edge38_Node000002_Node000019" class="edge">
<title>Node2&#45;&gt;Node19</title>
<g id="a_edge38_Node000002_Node000019"><a xlink:title=" ">
<path fill="none" stroke="#63b8ff" d="M824.15,-210.09C688.02,-204.11 448.35,-190.12 365.62,-163.5 319.63,-148.7 272.5,-116.4 247.28,-97.44"/>
<polygon fill="#63b8ff" stroke="#63b8ff" points="823.73,-213.58 833.87,-210.51 824.03,-206.58 823.73,-213.58"/>
</a>
</g>
</g>
<!-- Node20 -->
<g id="Node000020" class="node">
<title>Node20</title>
<g id="a_Node000020"><a xlink:href="KerberosDesign_8hpp.html" target="_top" xlink:title=" ">
<polygon fill="white" stroke="#666666" points="1375.25,-163.5 1240,-163.5 1240,-133 1375.25,-133 1375.25,-163.5"/>
<text text-anchor="start" x="1248" y="-150" font-family="Helvetica,sans-Serif" font-size="10.00">sourcecode/timing/include</text>
<text text-anchor="middle" x="1307.62" y="-138.75" font-family="Helvetica,sans-Serif" font-size="10.00">/timing/KerberosDesign.hpp</text>
</a>
</g>
</g>
<!-- Node2&#45;&gt;Node20 -->
<g id="edge26_Node000002_Node000020" class="edge">
<title>Node2&#45;&gt;Node20</title>
<g id="a_edge26_Node000002_Node000020"><a xlink:title=" ">
<path fill="none" stroke="#63b8ff" d="M1019.09,-198.58C1080.2,-188.92 1160.59,-175.92 1231.62,-163.5 1234.27,-163.04 1236.97,-162.56 1239.69,-162.07"/>
<polygon fill="#63b8ff" stroke="#63b8ff" points="1018.74,-195.09 1009.41,-200.11 1019.83,-202.01 1018.74,-195.09"/>
</a>
</g>
</g>
<!-- Node22 -->
<g id="Node000022" class="node">
<title>Node22</title>
<g id="a_Node000022"><a xlink:href="OuroborosDesign_8hpp.html" target="_top" xlink:title=" ">
<polygon fill="white" stroke="#666666" points="1757.25,-163.5 1616,-163.5 1616,-133 1757.25,-133 1757.25,-163.5"/>
<text text-anchor="start" x="1624" y="-150" font-family="Helvetica,sans-Serif" font-size="10.00">sourcecode/timing/include</text>
<text text-anchor="middle" x="1686.62" y="-138.75" font-family="Helvetica,sans-Serif" font-size="10.00">/timing/OuroborosDesign.hpp</text>
</a>
</g>
</g>
<!-- Node2&#45;&gt;Node22 -->
<g id="edge29_Node000002_Node000022" class="edge">
<title>Node2&#45;&gt;Node22</title>
<g id="a_edge29_Node000002_Node000022"><a xlink:title=" ">
<path fill="none" stroke="#63b8ff" d="M1019.25,-199.29C1276.28,-172.81 1344.71,-191.84 1598.62,-163.5 1604.16,-162.88 1609.88,-162.16 1615.62,-161.36"/>
<polygon fill="#63b8ff" stroke="#63b8ff" points="1019.14,-195.78 1009.56,-200.3 1019.87,-202.74 1019.14,-195.78"/>
</a>
</g>
</g>
<!-- Node24 -->
<g id="Node000024" class="node">
<title>Node24</title>
<g id="a_Node000024"><a xlink:href="OuroborosMuxDesign_8hpp.html" target="_top" xlink:title=" ">
<polygon fill="white" stroke="#666666" points="1589.25,-163.5 1430,-163.5 1430,-133 1589.25,-133 1589.25,-163.5"/>
<text text-anchor="start" x="1438" y="-150" font-family="Helvetica,sans-Serif" font-size="10.00">sourcecode/timing/include</text>
<text text-anchor="middle" x="1509.62" y="-138.75" font-family="Helvetica,sans-Serif" font-size="10.00">/timing/OuroborosMuxDesign.hpp</text>
</a>
</g>
</g>
<!-- Node2&#45;&gt;Node24 -->
<g id="edge32_Node000002_Node000024" class="edge">
<title>Node2&#45;&gt;Node24</title>
<g id="a_edge32_Node000002_Node000024"><a xlink:title=" ">
<path fill="none" stroke="#63b8ff" d="M1019.44,-199.19C1181.64,-179.36 1224.87,-180.42 1384.62,-163.5 1399.18,-161.96 1414.68,-160.25 1429.63,-158.56"/>
<polygon fill="#63b8ff" stroke="#63b8ff" points="1019.07,-195.71 1009.57,-200.41 1019.92,-202.66 1019.07,-195.71"/>
</a>
</g>
</g>
<!-- Node26 -->
<g id="Node000026" class="node">
<title>Node26</title>
<g id="a_Node000026"><a xlink:href="OverlordDesign_8hpp.html" target="_top" xlink:title=" ">
<polygon fill="white" stroke="#666666" points="1222.12,-163.5 1089.12,-163.5 1089.12,-133 1222.12,-133 1222.12,-163.5"/>
<text text-anchor="start" x="1097.12" y="-150" font-family="Helvetica,sans-Serif" font-size="10.00">sourcecode/timing/include</text>
<text text-anchor="middle" x="1155.62" y="-138.75" font-family="Helvetica,sans-Serif" font-size="10.00">/timing/OverlordDesign.hpp</text>
</a>
</g>
</g>
<!-- Node2&#45;&gt;Node26 -->
<g id="edge35_Node000002_Node000026" class="edge">
<title>Node2&#45;&gt;Node26</title>
<g id="a_edge35_Node000002_Node000026"><a xlink:title=" ">
<path fill="none" stroke="#63b8ff" d="M986.07,-195.99C1022.67,-185.9 1067.92,-173.43 1102.46,-163.9"/>
<polygon fill="#63b8ff" stroke="#63b8ff" points="985.19,-192.6 976.48,-198.63 987.05,-199.35 985.19,-192.6"/>
</a>
</g>
</g>
<!-- Node4 -->
<g id="Node000004" class="node">
<title>Node4</title>
<g id="a_Node000004"><a xlink:href="CRTDesign_8hpp.html" target="_top" xlink:title=" ">
<polygon fill="white" stroke="#666666" points="457.25,-97 328,-97 328,-66.5 457.25,-66.5 457.25,-97"/>
<text text-anchor="start" x="336" y="-83.5" font-family="Helvetica,sans-Serif" font-size="10.00">sourcecode/timing/include</text>
<text text-anchor="middle" x="392.62" y="-72.25" font-family="Helvetica,sans-Serif" font-size="10.00">/timing/CRTDesign.hpp</text>
</a>
</g>
</g>
<!-- Node3&#45;&gt;Node4 -->
<g id="edge3_Node000003_Node000004" class="edge">
<title>Node3&#45;&gt;Node4</title>
<g id="a_edge3_Node000003_Node000004"><a xlink:title=" ">
<path fill="none" stroke="#63b8ff" d="M430.48,-124.13C422.3,-115.19 413.19,-105.24 405.96,-97.33"/>
<polygon fill="#63b8ff" stroke="#63b8ff" points="427.88,-126.48 437.22,-131.5 433.05,-121.76 427.88,-126.48"/>
</a>
</g>
</g>
<!-- Node5 -->
<g id="Node000005" class="node">
<title>Node5</title>
<g id="a_Node000005"><a xlink:href="top__designs_8cpp.html" target="_top" xlink:title=" ">
<polygon fill="white" stroke="#666666" points="1066.5,-30.5 926.75,-30.5 926.75,0 1066.5,0 1066.5,-30.5"/>
<text text-anchor="start" x="934.75" y="-17" font-family="Helvetica,sans-Serif" font-size="10.00">sourcecode/timing/pybindsrc</text>
<text text-anchor="middle" x="996.62" y="-5.75" font-family="Helvetica,sans-Serif" font-size="10.00">/top_designs.cpp</text>
</a>
</g>
</g>
<!-- Node4&#45;&gt;Node5 -->
<g id="edge4_Node000004_Node000005" class="edge">
<title>Node4&#45;&gt;Node5</title>
<g id="a_edge4_Node000004_Node000005"><a xlink:title=" ">
<path fill="none" stroke="#63b8ff" d="M468.59,-66.16C638.22,-42.11 826.65,-27.48 926.36,-20.69"/>
<polygon fill="#63b8ff" stroke="#63b8ff" points="468.35,-62.65 458.95,-67.54 469.34,-69.58 468.35,-62.65"/>
</a>
</g>
</g>
<!-- Node6 -->
<g id="Node000006" class="node">
<title>Node6</title>
<g id="a_Node000006"><a xlink:href="CRTDesign_8cpp.html" target="_top" xlink:title=" ">
<polygon fill="white" stroke="#666666" points="448.62,-30.5 336.62,-30.5 336.62,0 448.62,0 448.62,-30.5"/>
<text text-anchor="start" x="344.62" y="-17" font-family="Helvetica,sans-Serif" font-size="10.00">sourcecode/timing/src</text>
<text text-anchor="middle" x="392.62" y="-5.75" font-family="Helvetica,sans-Serif" font-size="10.00">/CRTDesign.cpp</text>
</a>
</g>
</g>
<!-- Node4&#45;&gt;Node6 -->
<g id="edge5_Node000004_Node000006" class="edge">
<title>Node4&#45;&gt;Node6</title>
<g id="a_edge5_Node000004_Node000006"><a xlink:title=" ">
<path fill="none" stroke="#63b8ff" d="M392.62,-54.81C392.62,-46.64 392.62,-37.91 392.62,-30.83"/>
<polygon fill="#63b8ff" stroke="#63b8ff" points="389.13,-54.6 392.63,-64.6 396.13,-54.6 389.13,-54.6"/>
</a>
</g>
</g>
<!-- Node7&#45;&gt;Node5 -->
<g id="edge10_Node000007_Node000005" class="edge">
<title>Node7&#45;&gt;Node5</title>
<g id="a_edge10_Node000007_Node000005"><a xlink:title=" ">
<path fill="none" stroke="#63b8ff" d="M862.6,-125.18C881.37,-108.75 907.84,-85.89 931.62,-66.5 946.66,-54.24 964.07,-40.83 977.08,-30.94"/>
<polygon fill="#63b8ff" stroke="#63b8ff" points="860.39,-122.47 855.18,-131.69 865.01,-127.73 860.39,-122.47"/>
</a>
</g>
</g>
<!-- Node8 -->
<g id="Node000008" class="node">
<title>Node8</title>
<g id="a_Node000008"><a xlink:href="ChronosDesign_8hpp.html" target="_top" xlink:title=" ">
<polygon fill="white" stroke="#666666" points="754.75,-97 622.5,-97 622.5,-66.5 754.75,-66.5 754.75,-97"/>
<text text-anchor="start" x="630.5" y="-83.5" font-family="Helvetica,sans-Serif" font-size="10.00">sourcecode/timing/include</text>
<text text-anchor="middle" x="688.62" y="-72.25" font-family="Helvetica,sans-Serif" font-size="10.00">/timing/ChronosDesign.hpp</text>
</a>
</g>
</g>
<!-- Node7&#45;&gt;Node8 -->
<g id="edge7_Node000007_Node000008" class="edge">
<title>Node7&#45;&gt;Node8</title>
<g id="a_edge7_Node000007_Node000008"><a xlink:title=" ">
<path fill="none" stroke="#63b8ff" d="M793.42,-128.12C770.75,-118.3 743.56,-106.53 722.56,-97.44"/>
<polygon fill="#63b8ff" stroke="#63b8ff" points="791.86,-131.25 802.43,-132.01 794.64,-124.83 791.86,-131.25"/>
</a>
</g>
</g>
<!-- Node10 -->
<g id="Node000010" class="node">
<title>Node10</title>
<g id="a_Node000010"><a xlink:href="EndpointDesign_8cpp.html" target="_top" xlink:title=" ">
<polygon fill="white" stroke="#666666" points="884.62,-97 772.62,-97 772.62,-66.5 884.62,-66.5 884.62,-97"/>
<text text-anchor="start" x="780.62" y="-83.5" font-family="Helvetica,sans-Serif" font-size="10.00">sourcecode/timing/src</text>
<text text-anchor="middle" x="828.62" y="-72.25" font-family="Helvetica,sans-Serif" font-size="10.00">/EndpointDesign.cpp</text>
</a>
</g>
</g>
<!-- Node7&#45;&gt;Node10 -->
<g id="edge11_Node000007_Node000010" class="edge">
<title>Node7&#45;&gt;Node10</title>
<g id="a_edge11_Node000007_Node000010"><a xlink:title=" ">
<path fill="none" stroke="#63b8ff" d="M834.01,-121.31C832.87,-113.14 831.65,-104.41 830.66,-97.33"/>
<polygon fill="#63b8ff" stroke="#63b8ff" points="830.53,-121.69 835.37,-131.11 837.46,-120.73 830.53,-121.69"/>
</a>
</g>
</g>
<!-- Node8&#45;&gt;Node5 -->
<g id="edge8_Node000008_Node000005" class="edge">
<title>Node8&#45;&gt;Node5</title>
<g id="a_edge8_Node000008_Node000005"><a xlink:title=" ">
<path fill="none" stroke="#63b8ff" d="M766.3,-64.48C815.49,-54.18 878.57,-40.97 926.28,-30.98"/>
<polygon fill="#63b8ff" stroke="#63b8ff" points="765.63,-61.05 756.56,-66.52 767.06,-67.9 765.63,-61.05"/>
</a>
</g>
</g>
<!-- Node9 -->
<g id="Node000009" class="node">
<title>Node9</title>
<g id="a_Node000009"><a xlink:href="ChronosDesign_8cpp.html" target="_top" xlink:title=" ">
<polygon fill="white" stroke="#666666" points="744.62,-30.5 632.62,-30.5 632.62,0 744.62,0 744.62,-30.5"/>
<text text-anchor="start" x="640.62" y="-17" font-family="Helvetica,sans-Serif" font-size="10.00">sourcecode/timing/src</text>
<text text-anchor="middle" x="688.62" y="-5.75" font-family="Helvetica,sans-Serif" font-size="10.00">/ChronosDesign.cpp</text>
</a>
</g>
</g>
<!-- Node8&#45;&gt;Node9 -->
<g id="edge9_Node000008_Node000009" class="edge">
<title>Node8&#45;&gt;Node9</title>
<g id="a_edge9_Node000008_Node000009"><a xlink:title=" ">
<path fill="none" stroke="#63b8ff" d="M688.62,-54.81C688.62,-46.64 688.62,-37.91 688.62,-30.83"/>
<polygon fill="#63b8ff" stroke="#63b8ff" points="685.13,-54.6 688.63,-64.6 692.13,-54.6 685.13,-54.6"/>
</a>
</g>
</g>
<!-- Node11&#45;&gt;Node5 -->
<g id="edge13_Node000011_Node000005" class="edge">
<title>Node11&#45;&gt;Node5</title>
<g id="a_edge13_Node000011_Node000005"><a xlink:title=" ">
<path fill="none" stroke="#63b8ff" d="M140.92,-66.34C412.26,-32.92 484.03,-46.3 753.62,-30.5 811.84,-27.09 877.91,-23.21 926.44,-20.37"/>
<polygon fill="#63b8ff" stroke="#63b8ff" points="140.51,-62.86 131.02,-67.57 141.38,-69.81 140.51,-62.86"/>
</a>
</g>
</g>
<!-- Node12 -->
<g id="Node000012" class="node">
<title>Node12</title>
<g id="a_Node000012"><a xlink:href="FanoutDesign_8cpp.html" target="_top" xlink:title=" ">
<polygon fill="white" stroke="#666666" points="120.62,-30.5 8.63,-30.5 8.63,0 120.62,0 120.62,-30.5"/>
<text text-anchor="start" x="16.62" y="-17" font-family="Helvetica,sans-Serif" font-size="10.00">sourcecode/timing/src</text>
<text text-anchor="middle" x="64.62" y="-5.75" font-family="Helvetica,sans-Serif" font-size="10.00">/FanoutDesign.cpp</text>
</a>
</g>
</g>
<!-- Node11&#45;&gt;Node12 -->
<g id="edge14_Node000011_Node000012" class="edge">
<title>Node11&#45;&gt;Node12</title>
<g id="a_edge14_Node000011_Node000012"><a xlink:title=" ">
<path fill="none" stroke="#63b8ff" d="M64.62,-54.81C64.62,-46.64 64.62,-37.91 64.62,-30.83"/>
<polygon fill="#63b8ff" stroke="#63b8ff" points="61.13,-54.6 64.63,-64.6 68.13,-54.6 61.13,-54.6"/>
</a>
</g>
</g>
<!-- Node13 -->
<g id="Node000013" class="node">
<title>Node13</title>
<g id="a_Node000013"><a xlink:href="TimingHardwareManager_8cpp.html" target="_top" xlink:title=" ">
<polygon fill="white" stroke="#666666" points="305.75,-30.5 143.5,-30.5 143.5,0 305.75,0 305.75,-30.5"/>
<text text-anchor="start" x="151.5" y="-17" font-family="Helvetica,sans-Serif" font-size="10.00">sourcecode/timinglibs</text>
<text text-anchor="middle" x="224.62" y="-5.75" font-family="Helvetica,sans-Serif" font-size="10.00">/src/TimingHardwareManager.cpp</text>
</a>
</g>
</g>
<!-- Node11&#45;&gt;Node13 -->
<g id="edge15_Node000011_Node000013" class="edge">
<title>Node11&#45;&gt;Node13</title>
<g id="a_edge15_Node000011_Node000013"><a xlink:title=" ">
<path fill="none" stroke="#63b8ff" d="M111.43,-61.88C135.91,-52.01 165.43,-40.11 188.19,-30.94"/>
<polygon fill="#63b8ff" stroke="#63b8ff" points="110.3,-58.56 102.34,-65.55 112.92,-65.06 110.3,-58.56"/>
</a>
</g>
</g>
<!-- Node14&#45;&gt;Node5 -->
<g id="edge17_Node000014_Node000005" class="edge">
<title>Node14&#45;&gt;Node5</title>
<g id="a_edge17_Node000014_Node000005"><a xlink:title=" ">
<path fill="none" stroke="#63b8ff" d="M1035.34,-126.32C1045.81,-118.59 1055.84,-108.78 1061.62,-97 1067.6,-84.83 1067.6,-78.67 1061.62,-66.5 1054.15,-51.26 1039.57,-39.33 1026.12,-30.93"/>
<polygon fill="#63b8ff" stroke="#63b8ff" points="1033.69,-123.21 1027.37,-131.72 1037.61,-129.01 1033.69,-123.21"/>
</a>
</g>
</g>
<!-- Node15 -->
<g id="Node000015" class="node">
<title>Node15</title>
<g id="a_Node000015"><a xlink:href="GaiaDesign_8cpp.html" target="_top" xlink:title=" ">
<polygon fill="white" stroke="#666666" points="1052.62,-97 940.62,-97 940.62,-66.5 1052.62,-66.5 1052.62,-97"/>
<text text-anchor="start" x="948.62" y="-83.5" font-family="Helvetica,sans-Serif" font-size="10.00">sourcecode/timing/src</text>
<text text-anchor="middle" x="996.62" y="-72.25" font-family="Helvetica,sans-Serif" font-size="10.00">/GaiaDesign.cpp</text>
</a>
</g>
</g>
<!-- Node14&#45;&gt;Node15 -->
<g id="edge18_Node000014_Node000015" class="edge">
<title>Node14&#45;&gt;Node15</title>
<g id="a_edge18_Node000014_Node000015"><a xlink:title=" ">
<path fill="none" stroke="#63b8ff" d="M996.62,-121.31C996.62,-113.14 996.62,-104.41 996.62,-97.33"/>
<polygon fill="#63b8ff" stroke="#63b8ff" points="993.13,-121.1 996.63,-131.1 1000.13,-121.1 993.13,-121.1"/>
</a>
</g>
</g>
<!-- Node16&#45;&gt;Node8 -->
<g id="edge23_Node000016_Node000008" class="edge">
<title>Node16&#45;&gt;Node8</title>
<g id="a_edge23_Node000016_Node000008"><a xlink:title=" ">
<path fill="none" stroke="#63b8ff" d="M670.16,-122.44C674.11,-113.96 678.4,-104.74 681.84,-97.33"/>
<polygon fill="#63b8ff" stroke="#63b8ff" points="667.11,-120.7 666.07,-131.24 673.46,-123.65 667.11,-120.7"/>
</a>
</g>
</g>
<!-- Node17 -->
<g id="Node000017" class="node">
<title>Node17</title>
<g id="a_Node000017"><a xlink:href="BoreasDesign_8hpp.html" target="_top" xlink:title=" ">
<polygon fill="white" stroke="#666666" points="604.25,-97 475,-97 475,-66.5 604.25,-66.5 604.25,-97"/>
<text text-anchor="start" x="483" y="-83.5" font-family="Helvetica,sans-Serif" font-size="10.00">sourcecode/timing/include</text>
<text text-anchor="middle" x="539.62" y="-72.25" font-family="Helvetica,sans-Serif" font-size="10.00">/timing/BoreasDesign.hpp</text>
</a>
</g>
</g>
<!-- Node16&#45;&gt;Node17 -->
<g id="edge20_Node000016_Node000017" class="edge">
<title>Node16&#45;&gt;Node17</title>
<g id="a_edge20_Node000016_Node000017"><a xlink:title=" ">
<path fill="none" stroke="#63b8ff" d="M621.55,-127.16C603.74,-117.5 582.78,-106.14 566.52,-97.33"/>
<polygon fill="#63b8ff" stroke="#63b8ff" points="619.83,-130.2 630.29,-131.89 623.17,-124.05 619.83,-130.2"/>
</a>
</g>
</g>
<!-- Node16&#45;&gt;Node19 -->
<g id="edge24_Node000016_Node000019" class="edge">
<title>Node16&#45;&gt;Node19</title>
<g id="a_edge24_Node000016_Node000019"><a xlink:title=" ">
<path fill="none" stroke="#63b8ff" d="M571.1,-134.57C502.41,-124.55 404.39,-110.13 318.62,-97 315.81,-96.57 312.95,-96.13 310.05,-95.68"/>
<polygon fill="#63b8ff" stroke="#63b8ff" points="570.4,-138 580.8,-135.98 571.41,-131.07 570.4,-138"/>
</a>
</g>
</g>
<!-- Node17&#45;&gt;Node5 -->
<g id="edge21_Node000017_Node000005" class="edge">
<title>Node17&#45;&gt;Node5</title>
<g id="a_edge21_Node000017_Node000005"><a xlink:title=" ">
<path fill="none" stroke="#63b8ff" d="M615.64,-66.23C730.42,-47.91 852.02,-32.88 926.55,-24.17"/>
<polygon fill="#63b8ff" stroke="#63b8ff" points="615.37,-62.73 606.05,-67.78 616.48,-69.64 615.37,-62.73"/>
</a>
</g>
</g>
<!-- Node18 -->
<g id="Node000018" class="node">
<title>Node18</title>
<g id="a_Node000018"><a xlink:href="BoreasDesign_8cpp.html" target="_top" xlink:title=" ">
<polygon fill="white" stroke="#666666" points="595.62,-30.5 483.62,-30.5 483.62,0 595.62,0 595.62,-30.5"/>
<text text-anchor="start" x="491.62" y="-17" font-family="Helvetica,sans-Serif" font-size="10.00">sourcecode/timing/src</text>
<text text-anchor="middle" x="539.62" y="-5.75" font-family="Helvetica,sans-Serif" font-size="10.00">/BoreasDesign.cpp</text>
</a>
</g>
</g>
<!-- Node17&#45;&gt;Node18 -->
<g id="edge22_Node000017_Node000018" class="edge">
<title>Node17&#45;&gt;Node18</title>
<g id="a_edge22_Node000017_Node000018"><a xlink:title=" ">
<path fill="none" stroke="#63b8ff" d="M539.62,-54.81C539.62,-46.64 539.62,-37.91 539.62,-30.83"/>
<polygon fill="#63b8ff" stroke="#63b8ff" points="536.13,-54.6 539.63,-64.6 543.13,-54.6 536.13,-54.6"/>
</a>
</g>
</g>
<!-- Node19&#45;&gt;Node13 -->
<g id="edge25_Node000019_Node000013" class="edge">
<title>Node19&#45;&gt;Node13</title>
<g id="a_edge25_Node000019_Node000013"><a xlink:title=" ">
<path fill="none" stroke="#63b8ff" d="M227.02,-54.81C226.51,-46.64 225.97,-37.91 225.53,-30.83"/>
<polygon fill="#63b8ff" stroke="#63b8ff" points="223.51,-54.84 227.62,-64.6 230.5,-54.41 223.51,-54.84"/>
</a>
</g>
</g>
<!-- Node20&#45;&gt;Node5 -->
<g id="edge27_Node000020_Node000005" class="edge">
<title>Node20&#45;&gt;Node5</title>
<g id="a_edge27_Node000020_Node000005"><a xlink:title=" ">
<path fill="none" stroke="#63b8ff" d="M1295.13,-122.69C1284.48,-104.32 1267.44,-80.1 1245.62,-66.5 1191.74,-32.9 1119.69,-21.2 1066.96,-17.39"/>
<polygon fill="#63b8ff" stroke="#63b8ff" points="1292.03,-124.32 1299.92,-131.39 1298.16,-120.94 1292.03,-124.32"/>
</a>
</g>
</g>
<!-- Node21 -->
<g id="Node000021" class="node">
<title>Node21</title>
<g id="a_Node000021"><a xlink:href="KerberosDesign_8cpp.html" target="_top" xlink:title=" ">
<polygon fill="white" stroke="#666666" points="1426.62,-97 1314.62,-97 1314.62,-66.5 1426.62,-66.5 1426.62,-97"/>
<text text-anchor="start" x="1322.62" y="-83.5" font-family="Helvetica,sans-Serif" font-size="10.00">sourcecode/timing/src</text>
<text text-anchor="middle" x="1370.62" y="-72.25" font-family="Helvetica,sans-Serif" font-size="10.00">/KerberosDesign.cpp</text>
</a>
</g>
</g>
<!-- Node20&#45;&gt;Node21 -->
<g id="edge28_Node000020_Node000021" class="edge">
<title>Node20&#45;&gt;Node21</title>
<g id="a_edge28_Node000020_Node000021"><a xlink:title=" ">
<path fill="none" stroke="#63b8ff" d="M1329.93,-124.41C1338.73,-115.4 1348.58,-105.32 1356.39,-97.33"/>
<polygon fill="#63b8ff" stroke="#63b8ff" points="1327.46,-121.93 1322.98,-131.53 1332.47,-126.82 1327.46,-121.93"/>
</a>
</g>
</g>
<!-- Node22&#45;&gt;Node5 -->
<g id="edge30_Node000022_Node000005" class="edge">
<title>Node22&#45;&gt;Node5</title>
<g id="a_edge30_Node000022_Node000005"><a xlink:title=" ">
<path fill="none" stroke="#63b8ff" d="M1721.56,-126.45C1745.44,-109.71 1769.75,-85.87 1751.62,-66.5 1705.43,-17.13 1245.25,-14.67 1066.81,-15.6"/>
<polygon fill="#63b8ff" stroke="#63b8ff" points="1719.81,-123.41 1713.44,-131.87 1723.7,-129.24 1719.81,-123.41"/>
</a>
</g>
</g>
<!-- Node23 -->
<g id="Node000023" class="node">
<title>Node23</title>
<g id="a_Node000023"><a xlink:href="OuroborosDesign_8cpp.html" target="_top" xlink:title=" ">
<polygon fill="white" stroke="#666666" points="1742.62,-97 1630.62,-97 1630.62,-66.5 1742.62,-66.5 1742.62,-97"/>
<text text-anchor="start" x="1638.62" y="-83.5" font-family="Helvetica,sans-Serif" font-size="10.00">sourcecode/timing/src</text>
<text text-anchor="middle" x="1686.62" y="-72.25" font-family="Helvetica,sans-Serif" font-size="10.00">/OuroborosDesign.cpp</text>
</a>
</g>
</g>
<!-- Node22&#45;&gt;Node23 -->
<g id="edge31_Node000022_Node000023" class="edge">
<title>Node22&#45;&gt;Node23</title>
<g id="a_edge31_Node000022_Node000023"><a xlink:title=" ">
<path fill="none" stroke="#63b8ff" d="M1686.62,-121.31C1686.62,-113.14 1686.62,-104.41 1686.62,-97.33"/>
<polygon fill="#63b8ff" stroke="#63b8ff" points="1683.13,-121.1 1686.63,-131.1 1690.13,-121.1 1683.13,-121.1"/>
</a>
</g>
</g>
<!-- Node24&#45;&gt;Node5 -->
<g id="edge33_Node000024_Node000005" class="edge">
<title>Node24&#45;&gt;Node5</title>
<g id="a_edge33_Node000024_Node000005"><a xlink:title=" ">
<path fill="none" stroke="#63b8ff" d="M1549,-126.83C1575.5,-110.5 1602.47,-87.02 1583.62,-66.5 1549.3,-29.11 1215.28,-19.49 1066.97,-17.06"/>
<polygon fill="#63b8ff" stroke="#63b8ff" points="1547.49,-123.66 1540.64,-131.74 1551.04,-129.69 1547.49,-123.66"/>
</a>
</g>
</g>
<!-- Node25 -->
<g id="Node000025" class="node">
<title>Node25</title>
<g id="a_Node000025"><a xlink:href="OuroborosMuxDesign_8cpp.html" target="_top" xlink:title=" ">
<polygon fill="white" stroke="#666666" points="1574.62,-97 1444.62,-97 1444.62,-66.5 1574.62,-66.5 1574.62,-97"/>
<text text-anchor="start" x="1452.62" y="-83.5" font-family="Helvetica,sans-Serif" font-size="10.00">sourcecode/timing/src</text>
<text text-anchor="middle" x="1509.62" y="-72.25" font-family="Helvetica,sans-Serif" font-size="10.00">/OuroborosMuxDesign.cpp</text>
</a>
</g>
</g>
<!-- Node24&#45;&gt;Node25 -->
<g id="edge34_Node000024_Node000025" class="edge">
<title>Node24&#45;&gt;Node25</title>
<g id="a_edge34_Node000024_Node000025"><a xlink:title=" ">
<path fill="none" stroke="#63b8ff" d="M1509.62,-121.31C1509.62,-113.14 1509.62,-104.41 1509.62,-97.33"/>
<polygon fill="#63b8ff" stroke="#63b8ff" points="1506.13,-121.1 1509.63,-131.1 1513.13,-121.1 1506.13,-121.1"/>
</a>
</g>
</g>
<!-- Node26&#45;&gt;Node5 -->
<g id="edge36_Node000026_Node000005" class="edge">
<title>Node26&#45;&gt;Node5</title>
<g id="a_edge36_Node000026_Node000005"><a xlink:title=" ">
<path fill="none" stroke="#63b8ff" d="M1195.31,-126.82C1221.07,-110.86 1246.89,-87.88 1229.62,-66.5 1209.41,-41.47 1127.79,-28.3 1066.81,-21.83"/>
<polygon fill="#63b8ff" stroke="#63b8ff" points="1193.68,-123.72 1186.84,-131.8 1197.23,-129.75 1193.68,-123.72"/>
</a>
</g>
</g>
<!-- Node27 -->
<g id="Node000027" class="node">
<title>Node27</title>
<g id="a_Node000027"><a xlink:href="OverlordDesign_8cpp.html" target="_top" xlink:title=" ">
<polygon fill="white" stroke="#666666" points="1220.62,-97 1108.62,-97 1108.62,-66.5 1220.62,-66.5 1220.62,-97"/>
<text text-anchor="start" x="1116.62" y="-83.5" font-family="Helvetica,sans-Serif" font-size="10.00">sourcecode/timing/src</text>
<text text-anchor="middle" x="1164.62" y="-72.25" font-family="Helvetica,sans-Serif" font-size="10.00">/OverlordDesign.cpp</text>
</a>
</g>
</g>
<!-- Node26&#45;&gt;Node27 -->
<g id="edge37_Node000026_Node000027" class="edge">
<title>Node26&#45;&gt;Node27</title>
<g id="a_edge37_Node000026_Node000027"><a xlink:title=" ">
<path fill="none" stroke="#63b8ff" d="M1159.24,-121.31C1160.38,-113.14 1161.6,-104.41 1162.59,-97.33"/>
<polygon fill="#63b8ff" stroke="#63b8ff" points="1155.79,-120.73 1157.88,-131.11 1162.72,-121.69 1155.79,-120.73"/>
</a>
</g>
</g>
</g>
</svg>
