<?xml version="1.0" encoding="UTF-8" standalone="no"?>
<!DOCTYPE svg PUBLIC "-//W3C//DTD SVG 1.1//EN"
 "http://www.w3.org/Graphics/SVG/1.1/DTD/svg11.dtd">
<!-- Generated by graphviz version 9.0.0 (20230911.1827)
 -->
<!-- Title: sourcecode/timing/include/timing/EndpointDesign.hpp Pages: 1 -->
<svg width="368pt" height="172pt"
 viewBox="0.00 0.00 367.88 171.50" xmlns="http://www.w3.org/2000/svg" xmlns:xlink="http://www.w3.org/1999/xlink">
<g id="graph0" class="graph" transform="scale(1 1) rotate(0) translate(4 167.5)">
<title>sourcecode/timing/include/timing/EndpointDesign.hpp</title>
<!-- Node1 -->
<g id="Node000001" class="node">
<title>Node1</title>
<g id="a_Node000001"><a xlink:title=" ">
<polygon fill="#999999" stroke="#666666" points="230.75,-163.5 97,-163.5 97,-133 230.75,-133 230.75,-163.5"/>
<text text-anchor="start" x="105" y="-150" font-family="Helvetica,sans-Serif" font-size="10.00">sourcecode/timing/include</text>
<text text-anchor="middle" x="163.88" y="-138.75" font-family="Helvetica,sans-Serif" font-size="10.00">/timing/EndpointDesign.hpp</text>
</a>
</g>
</g>
<!-- Node2 -->
<g id="Node000002" class="node">
<title>Node2</title>
<g id="a_Node000002"><a xlink:href="ChronosDesign_8hpp.html" target="_top" xlink:title=" ">
<polygon fill="white" stroke="#666666" points="230,-97 97.75,-97 97.75,-66.5 230,-66.5 230,-97"/>
<text text-anchor="start" x="105.75" y="-83.5" font-family="Helvetica,sans-Serif" font-size="10.00">sourcecode/timing/include</text>
<text text-anchor="middle" x="163.88" y="-72.25" font-family="Helvetica,sans-Serif" font-size="10.00">/timing/ChronosDesign.hpp</text>
</a>
</g>
</g>
<!-- Node1&#45;&gt;Node2 -->
<g id="edge1_Node000001_Node000002" class="edge">
<title>Node1&#45;&gt;Node2</title>
<g id="a_edge1_Node000001_Node000002"><a xlink:title=" ">
<path fill="none" stroke="#63b8ff" d="M163.88,-121.31C163.88,-113.14 163.88,-104.41 163.88,-97.33"/>
<polygon fill="#63b8ff" stroke="#63b8ff" points="160.38,-121.1 163.88,-131.1 167.38,-121.1 160.38,-121.1"/>
</a>
</g>
</g>
<!-- Node3 -->
<g id="Node000003" class="node">
<title>Node3</title>
<g id="a_Node000003"><a xlink:href="top__designs_8cpp.html" target="_top" xlink:title=" ">
<polygon fill="white" stroke="#666666" points="139.75,-30.5 0,-30.5 0,0 139.75,0 139.75,-30.5"/>
<text text-anchor="start" x="8" y="-17" font-family="Helvetica,sans-Serif" font-size="10.00">sourcecode/timing/pybindsrc</text>
<text text-anchor="middle" x="69.88" y="-5.75" font-family="Helvetica,sans-Serif" font-size="10.00">/top_designs.cpp</text>
</a>
</g>
</g>
<!-- Node1&#45;&gt;Node3 -->
<g id="edge4_Node000001_Node000003" class="edge">
<title>Node1&#45;&gt;Node3</title>
<g id="a_edge4_Node000001_Node000003"><a xlink:title=" ">
<path fill="none" stroke="#63b8ff" d="M121.82,-126.87C109.58,-119.08 97.25,-109.1 88.88,-97 75.02,-76.99 71.17,-48.21 70.16,-30.96"/>
<polygon fill="#63b8ff" stroke="#63b8ff" points="119.86,-129.78 130.25,-131.88 123.44,-123.76 119.86,-129.78"/>
</a>
</g>
</g>
<!-- Node5 -->
<g id="Node000005" class="node">
<title>Node5</title>
<g id="a_Node000005"><a xlink:href="EndpointDesign_8cpp.html" target="_top" xlink:title=" ">
<polygon fill="white" stroke="#666666" points="359.88,-97 247.88,-97 247.88,-66.5 359.88,-66.5 359.88,-97"/>
<text text-anchor="start" x="255.88" y="-83.5" font-family="Helvetica,sans-Serif" font-size="10.00">sourcecode/timing/src</text>
<text text-anchor="middle" x="303.88" y="-72.25" font-family="Helvetica,sans-Serif" font-size="10.00">/EndpointDesign.cpp</text>
</a>
</g>
</g>
<!-- Node1&#45;&gt;Node5 -->
<g id="edge5_Node000001_Node000005" class="edge">
<title>Node1&#45;&gt;Node5</title>
<g id="a_edge5_Node000001_Node000005"><a xlink:title=" ">
<path fill="none" stroke="#63b8ff" d="M206.02,-127.83C227.29,-118.03 252.66,-106.35 272.23,-97.33"/>
<polygon fill="#63b8ff" stroke="#63b8ff" points="204.64,-124.62 197.02,-131.98 207.56,-130.98 204.64,-124.62"/>
</a>
</g>
</g>
<!-- Node2&#45;&gt;Node3 -->
<g id="edge2_Node000002_Node000003" class="edge">
<title>Node2&#45;&gt;Node3</title>
<g id="a_edge2_Node000002_Node000003"><a xlink:title=" ">
<path fill="none" stroke="#63b8ff" d="M133.4,-59.84C119.59,-50.37 103.6,-39.39 91.12,-30.83"/>
<polygon fill="#63b8ff" stroke="#63b8ff" points="131.07,-62.49 141.3,-65.26 135.03,-56.71 131.07,-62.49"/>
</a>
</g>
</g>
<!-- Node4 -->
<g id="Node000004" class="node">
<title>Node4</title>
<g id="a_Node000004"><a xlink:href="ChronosDesign_8cpp.html" target="_top" xlink:title=" ">
<polygon fill="white" stroke="#666666" points="269.88,-30.5 157.88,-30.5 157.88,0 269.88,0 269.88,-30.5"/>
<text text-anchor="start" x="165.88" y="-17" font-family="Helvetica,sans-Serif" font-size="10.00">sourcecode/timing/src</text>
<text text-anchor="middle" x="213.88" y="-5.75" font-family="Helvetica,sans-Serif" font-size="10.00">/ChronosDesign.cpp</text>
</a>
</g>
</g>
<!-- Node2&#45;&gt;Node4 -->
<g id="edge3_Node000002_Node000004" class="edge">
<title>Node2&#45;&gt;Node4</title>
<g id="a_edge3_Node000002_Node000004"><a xlink:title=" ">
<path fill="none" stroke="#63b8ff" d="M182.23,-57.07C189.05,-48.28 196.57,-38.57 202.57,-30.83"/>
<polygon fill="#63b8ff" stroke="#63b8ff" points="179.51,-54.87 176.15,-64.92 185.04,-59.16 179.51,-54.87"/>
</a>
</g>
</g>
</g>
</svg>
