<?xml version="1.0" encoding="UTF-8" standalone="no"?>
<!DOCTYPE svg PUBLIC "-//W3C//DTD SVG 1.1//EN"
 "http://www.w3.org/Graphics/SVG/1.1/DTD/svg11.dtd">
<!-- Generated by graphviz version 9.0.0 (20230911.1827)
 -->
<!-- Title: sourcecode/timing/include/timing/EndpointNodeInterface.hpp Pages: 1 -->
<svg width="1790pt" height="371pt"
 viewBox="0.00 0.00 1789.75 371.00" xmlns="http://www.w3.org/2000/svg" xmlns:xlink="http://www.w3.org/1999/xlink">
<g id="graph0" class="graph" transform="scale(1 1) rotate(0) translate(4 367)">
<title>sourcecode/timing/include/timing/EndpointNodeInterface.hpp</title>
<!-- Node1 -->
<g id="Node000001" class="node">
<title>Node1</title>
<g id="a_Node000001"><a xlink:title=" ">
<polygon fill="#999999" stroke="#666666" points="937.25,-363 772,-363 772,-332.5 937.25,-332.5 937.25,-363"/>
<text text-anchor="start" x="780" y="-349.5" font-family="Helvetica,sans-Serif" font-size="10.00">sourcecode/timing/include</text>
<text text-anchor="middle" x="854.62" y="-338.25" font-family="Helvetica,sans-Serif" font-size="10.00">/timing/EndpointNodeInterface.hpp</text>
</a>
</g>
</g>
<!-- Node2 -->
<g id="Node000002" class="node">
<title>Node2</title>
<g id="a_Node000002"><a xlink:href="CRTNode_8hpp.html" target="_top" xlink:title=" ">
<polygon fill="white" stroke="#666666" points="394.25,-296.5 265,-296.5 265,-266 394.25,-266 394.25,-296.5"/>
<text text-anchor="start" x="273" y="-283" font-family="Helvetica,sans-Serif" font-size="10.00">sourcecode/timing/include</text>
<text text-anchor="middle" x="329.62" y="-271.75" font-family="Helvetica,sans-Serif" font-size="10.00">/timing/CRTNode.hpp</text>
</a>
</g>
</g>
<!-- Node1&#45;&gt;Node2 -->
<g id="edge1_Node000001_Node000002" class="edge">
<title>Node1&#45;&gt;Node2</title>
<g id="a_edge1_Node000001_Node000002"><a xlink:title=" ">
<path fill="none" stroke="#63b8ff" d="M760.45,-335.18C654.9,-322.21 486.58,-301.53 394.69,-290.24"/>
<polygon fill="#63b8ff" stroke="#63b8ff" points="759.87,-338.64 770.22,-336.38 760.73,-331.69 759.87,-338.64"/>
</a>
</g>
</g>
<!-- Node9 -->
<g id="Node000009" class="node">
<title>Node9</title>
<g id="a_Node000009"><a xlink:href="EndpointNode_8hpp.html" target="_top" xlink:title=" ">
<polygon fill="white" stroke="#666666" points="756.25,-296.5 627,-296.5 627,-266 756.25,-266 756.25,-296.5"/>
<text text-anchor="start" x="635" y="-283" font-family="Helvetica,sans-Serif" font-size="10.00">sourcecode/timing/include</text>
<text text-anchor="middle" x="691.62" y="-271.75" font-family="Helvetica,sans-Serif" font-size="10.00">/timing/EndpointNode.hpp</text>
</a>
</g>
</g>
<!-- Node1&#45;&gt;Node9 -->
<g id="edge9_Node000001_Node000009" class="edge">
<title>Node1&#45;&gt;Node9</title>
<g id="a_edge9_Node000001_Node000009"><a xlink:title=" ">
<path fill="none" stroke="#63b8ff" d="M806.94,-327.88C782,-318.01 751.93,-306.11 728.75,-296.94"/>
<polygon fill="#63b8ff" stroke="#63b8ff" points="805.64,-331.13 816.23,-331.56 808.22,-324.62 805.64,-331.13"/>
</a>
</g>
</g>
<!-- Node34 -->
<g id="Node000034" class="node">
<title>Node34</title>
<g id="a_Node000034"><a xlink:href="PDIEndpointNode_8hpp.html" target="_top" xlink:title=" ">
<polygon fill="white" stroke="#666666" points="1096.38,-296.5 952.88,-296.5 952.88,-266 1096.38,-266 1096.38,-296.5"/>
<text text-anchor="start" x="960.88" y="-283" font-family="Helvetica,sans-Serif" font-size="10.00">sourcecode/timing/include</text>
<text text-anchor="middle" x="1024.62" y="-271.75" font-family="Helvetica,sans-Serif" font-size="10.00">/timing/PDIEndpointNode.hpp</text>
</a>
</g>
</g>
<!-- Node1&#45;&gt;Node34 -->
<g id="edge48_Node000001_Node000034" class="edge">
<title>Node1&#45;&gt;Node34</title>
<g id="a_edge48_Node000001_Node000034"><a xlink:title=" ">
<path fill="none" stroke="#63b8ff" d="M903.66,-328.15C929.8,-318.23 961.51,-306.2 985.91,-296.94"/>
<polygon fill="#63b8ff" stroke="#63b8ff" points="902.72,-324.76 894.62,-331.58 905.21,-331.3 902.72,-324.76"/>
</a>
</g>
</g>
<!-- Node37 -->
<g id="Node000037" class="node">
<title>Node37</title>
<g id="a_Node000037"><a xlink:href="PDIHSIEndpointNode_8hpp.html" target="_top" xlink:title=" ">
<polygon fill="white" stroke="#666666" points="935,-296.5 774.25,-296.5 774.25,-266 935,-266 935,-296.5"/>
<text text-anchor="start" x="782.25" y="-283" font-family="Helvetica,sans-Serif" font-size="10.00">sourcecode/timing/include</text>
<text text-anchor="middle" x="854.62" y="-271.75" font-family="Helvetica,sans-Serif" font-size="10.00">/timing/PDIHSIEndpointNode.hpp</text>
</a>
</g>
</g>
<!-- Node1&#45;&gt;Node37 -->
<g id="edge53_Node000001_Node000037" class="edge">
<title>Node1&#45;&gt;Node37</title>
<g id="a_edge53_Node000001_Node000037"><a xlink:title=" ">
<path fill="none" stroke="#63b8ff" d="M854.62,-320.81C854.62,-312.64 854.62,-303.91 854.62,-296.83"/>
<polygon fill="#63b8ff" stroke="#63b8ff" points="851.13,-320.6 854.63,-330.6 858.13,-320.6 851.13,-320.6"/>
</a>
</g>
</g>
<!-- Node38 -->
<g id="Node000038" class="node">
<title>Node38</title>
<g id="a_Node000038"><a xlink:href="EndpointNodeInterface_8cpp.html" target="_top" xlink:title=" ">
<polygon fill="white" stroke="#666666" points="1250.62,-296.5 1114.62,-296.5 1114.62,-266 1250.62,-266 1250.62,-296.5"/>
<text text-anchor="start" x="1122.62" y="-283" font-family="Helvetica,sans-Serif" font-size="10.00">sourcecode/timing/src</text>
<text text-anchor="middle" x="1182.62" y="-271.75" font-family="Helvetica,sans-Serif" font-size="10.00">/EndpointNodeInterface.cpp</text>
</a>
</g>
</g>
<!-- Node1&#45;&gt;Node38 -->
<g id="edge56_Node000001_Node000038" class="edge">
<title>Node1&#45;&gt;Node38</title>
<g id="a_edge56_Node000001_Node000038"><a xlink:title=" ">
<path fill="none" stroke="#63b8ff" d="M940.45,-329.87C994.66,-319.21 1063.75,-305.63 1114.25,-295.69"/>
<polygon fill="#63b8ff" stroke="#63b8ff" points="940.09,-326.38 930.95,-331.74 941.44,-333.25 940.09,-326.38"/>
</a>
</g>
</g>
<!-- Node3 -->
<g id="Node000003" class="node">
<title>Node3</title>
<g id="a_Node000003"><a xlink:href="CRTDesign_8hpp.html" target="_top" xlink:title=" ">
<polygon fill="white" stroke="#666666" points="129.25,-97 0,-97 0,-66.5 129.25,-66.5 129.25,-97"/>
<text text-anchor="start" x="8" y="-83.5" font-family="Helvetica,sans-Serif" font-size="10.00">sourcecode/timing/include</text>
<text text-anchor="middle" x="64.62" y="-72.25" font-family="Helvetica,sans-Serif" font-size="10.00">/timing/CRTDesign.hpp</text>
</a>
</g>
</g>
<!-- Node2&#45;&gt;Node3 -->
<g id="edge2_Node000002_Node000003" class="edge">
<title>Node2&#45;&gt;Node3</title>
<g id="a_edge2_Node000002_Node000003"><a xlink:title=" ">
<path fill="none" stroke="#63b8ff" d="M253.16,-274.76C180.45,-265.01 74.81,-238.02 23.62,-163.5 8.76,-141.86 30.74,-114.09 47.81,-97.4"/>
<polygon fill="#63b8ff" stroke="#63b8ff" points="252.67,-278.23 263.03,-276 253.54,-271.28 252.67,-278.23"/>
</a>
</g>
</g>
<!-- Node6 -->
<g id="Node000006" class="node">
<title>Node6</title>
<g id="a_Node000006"><a xlink:href="CRTDesignInterface_8hpp.html" target="_top" xlink:title=" ">
<polygon fill="white" stroke="#666666" points="186.62,-163.5 32.62,-163.5 32.62,-133 186.62,-133 186.62,-163.5"/>
<text text-anchor="start" x="40.62" y="-150" font-family="Helvetica,sans-Serif" font-size="10.00">sourcecode/timing/include</text>
<text text-anchor="middle" x="109.62" y="-138.75" font-family="Helvetica,sans-Serif" font-size="10.00">/timing/CRTDesignInterface.hpp</text>
</a>
</g>
</g>
<!-- Node2&#45;&gt;Node6 -->
<g id="edge5_Node000002_Node000006" class="edge">
<title>Node2&#45;&gt;Node6</title>
<g id="a_edge5_Node000002_Node000006"><a xlink:title=" ">
<path fill="none" stroke="#63b8ff" d="M295.41,-259.88C250.68,-233.24 173.42,-187.24 134.12,-163.83"/>
<polygon fill="#63b8ff" stroke="#63b8ff" points="293.56,-262.85 303.94,-264.96 297.14,-256.83 293.56,-262.85"/>
</a>
</g>
</g>
<!-- Node7 -->
<g id="Node000007" class="node">
<title>Node7</title>
<g id="a_Node000007"><a xlink:href="endpoint_8cpp.html" target="_top" xlink:title=" ">
<polygon fill="white" stroke="#666666" points="924.5,-230 784.75,-230 784.75,-199.5 924.5,-199.5 924.5,-230"/>
<text text-anchor="start" x="792.75" y="-216.5" font-family="Helvetica,sans-Serif" font-size="10.00">sourcecode/timing/pybindsrc</text>
<text text-anchor="middle" x="854.62" y="-205.25" font-family="Helvetica,sans-Serif" font-size="10.00">/endpoint.cpp</text>
</a>
</g>
</g>
<!-- Node2&#45;&gt;Node7 -->
<g id="edge7_Node000002_Node000007" class="edge">
<title>Node2&#45;&gt;Node7</title>
<g id="a_edge7_Node000002_Node000007"><a xlink:title=" ">
<path fill="none" stroke="#63b8ff" d="M405.75,-273.22C494.7,-264.65 646.18,-248.95 775.62,-230 778.52,-229.58 781.47,-229.13 784.45,-228.66"/>
<polygon fill="#63b8ff" stroke="#63b8ff" points="405.55,-269.73 395.93,-274.16 406.22,-276.69 405.55,-269.73"/>
</a>
</g>
</g>
<!-- Node8 -->
<g id="Node000008" class="node">
<title>Node8</title>
<g id="a_Node000008"><a xlink:href="CRTNode_8cpp.html" target="_top" xlink:title=" ">
<polygon fill="white" stroke="#666666" points="385.62,-230 273.62,-230 273.62,-199.5 385.62,-199.5 385.62,-230"/>
<text text-anchor="start" x="281.62" y="-216.5" font-family="Helvetica,sans-Serif" font-size="10.00">sourcecode/timing/src</text>
<text text-anchor="middle" x="329.62" y="-205.25" font-family="Helvetica,sans-Serif" font-size="10.00">/CRTNode.cpp</text>
</a>
</g>
</g>
<!-- Node2&#45;&gt;Node8 -->
<g id="edge8_Node000002_Node000008" class="edge">
<title>Node2&#45;&gt;Node8</title>
<g id="a_edge8_Node000002_Node000008"><a xlink:title=" ">
<path fill="none" stroke="#63b8ff" d="M329.62,-254.31C329.62,-246.14 329.62,-237.41 329.62,-230.33"/>
<polygon fill="#63b8ff" stroke="#63b8ff" points="326.13,-254.1 329.63,-264.1 333.13,-254.1 326.13,-254.1"/>
</a>
</g>
</g>
<!-- Node4 -->
<g id="Node000004" class="node">
<title>Node4</title>
<g id="a_Node000004"><a xlink:href="top__designs_8cpp.html" target="_top" xlink:title=" ">
<polygon fill="white" stroke="#666666" points="898.5,-30.5 758.75,-30.5 758.75,0 898.5,0 898.5,-30.5"/>
<text text-anchor="start" x="766.75" y="-17" font-family="Helvetica,sans-Serif" font-size="10.00">sourcecode/timing/pybindsrc</text>
<text text-anchor="middle" x="828.62" y="-5.75" font-family="Helvetica,sans-Serif" font-size="10.00">/top_designs.cpp</text>
</a>
</g>
</g>
<!-- Node3&#45;&gt;Node4 -->
<g id="edge3_Node000003_Node000004" class="edge">
<title>Node3&#45;&gt;Node4</title>
<g id="a_edge3_Node000003_Node000004"><a xlink:title=" ">
<path fill="none" stroke="#63b8ff" d="M140.61,-66.89C141.62,-66.76 142.63,-66.63 143.62,-66.5 367.21,-38.21 634.02,-24.3 758.37,-18.96"/>
<polygon fill="#63b8ff" stroke="#63b8ff" points="140.54,-63.37 131.14,-68.25 141.53,-70.29 140.54,-63.37"/>
</a>
</g>
</g>
<!-- Node5 -->
<g id="Node000005" class="node">
<title>Node5</title>
<g id="a_Node000005"><a xlink:href="CRTDesign_8cpp.html" target="_top" xlink:title=" ">
<polygon fill="white" stroke="#666666" points="120.62,-30.5 8.63,-30.5 8.63,0 120.62,0 120.62,-30.5"/>
<text text-anchor="start" x="16.62" y="-17" font-family="Helvetica,sans-Serif" font-size="10.00">sourcecode/timing/src</text>
<text text-anchor="middle" x="64.62" y="-5.75" font-family="Helvetica,sans-Serif" font-size="10.00">/CRTDesign.cpp</text>
</a>
</g>
</g>
<!-- Node3&#45;&gt;Node5 -->
<g id="edge4_Node000003_Node000005" class="edge">
<title>Node3&#45;&gt;Node5</title>
<g id="a_edge4_Node000003_Node000005"><a xlink:title=" ">
<path fill="none" stroke="#63b8ff" d="M64.62,-54.81C64.62,-46.64 64.62,-37.91 64.62,-30.83"/>
<polygon fill="#63b8ff" stroke="#63b8ff" points="61.13,-54.6 64.63,-64.6 68.13,-54.6 61.13,-54.6"/>
</a>
</g>
</g>
<!-- Node6&#45;&gt;Node3 -->
<g id="edge6_Node000006_Node000003" class="edge">
<title>Node6&#45;&gt;Node3</title>
<g id="a_edge6_Node000006_Node000003"><a xlink:title=" ">
<path fill="none" stroke="#63b8ff" d="M92.91,-123.29C86.83,-114.57 80.14,-104.99 74.8,-97.33"/>
<polygon fill="#63b8ff" stroke="#63b8ff" points="89.96,-125.17 98.55,-131.37 95.7,-121.17 89.96,-125.17"/>
</a>
</g>
</g>
<!-- Node9&#45;&gt;Node7 -->
<g id="edge46_Node000009_Node000007" class="edge">
<title>Node9&#45;&gt;Node7</title>
<g id="a_edge46_Node000009_Node000007"><a xlink:title=" ">
<path fill="none" stroke="#63b8ff" d="M739.31,-261.38C764.25,-251.51 794.32,-239.61 817.5,-230.44"/>
<polygon fill="#63b8ff" stroke="#63b8ff" points="738.03,-258.12 730.02,-265.06 740.61,-264.63 738.03,-258.12"/>
</a>
</g>
</g>
<!-- Node10 -->
<g id="Node000010" class="node">
<title>Node10</title>
<g id="a_Node000010"><a xlink:href="EndpointDesignInterface_8hpp.html" target="_top" xlink:title=" ">
<polygon fill="white" stroke="#666666" points="766.62,-230 594.62,-230 594.62,-199.5 766.62,-199.5 766.62,-230"/>
<text text-anchor="start" x="602.62" y="-216.5" font-family="Helvetica,sans-Serif" font-size="10.00">sourcecode/timing/include</text>
<text text-anchor="middle" x="680.62" y="-205.25" font-family="Helvetica,sans-Serif" font-size="10.00">/timing/EndpointDesignInterface.hpp</text>
</a>
</g>
</g>
<!-- Node9&#45;&gt;Node10 -->
<g id="edge10_Node000009_Node000010" class="edge">
<title>Node9&#45;&gt;Node10</title>
<g id="a_edge10_Node000009_Node000010"><a xlink:title=" ">
<path fill="none" stroke="#63b8ff" d="M687.2,-254.31C685.81,-246.14 684.32,-237.41 683.11,-230.33"/>
<polygon fill="#63b8ff" stroke="#63b8ff" points="683.74,-254.85 688.87,-264.12 690.64,-253.68 683.74,-254.85"/>
</a>
</g>
</g>
<!-- Node32 -->
<g id="Node000032" class="node">
<title>Node32</title>
<g id="a_Node000032"><a xlink:href="definitions_8cpp.html" target="_top" xlink:title=" ">
<polygon fill="white" stroke="#666666" points="1082.5,-230 942.75,-230 942.75,-199.5 1082.5,-199.5 1082.5,-230"/>
<text text-anchor="start" x="950.75" y="-216.5" font-family="Helvetica,sans-Serif" font-size="10.00">sourcecode/timing/pybindsrc</text>
<text text-anchor="middle" x="1012.62" y="-205.25" font-family="Helvetica,sans-Serif" font-size="10.00">/definitions.cpp</text>
</a>
</g>
</g>
<!-- Node9&#45;&gt;Node32 -->
<g id="edge45_Node000009_Node000032" class="edge">
<title>Node9&#45;&gt;Node32</title>
<g id="a_edge45_Node000009_Node000032"><a xlink:title=" ">
<path fill="none" stroke="#63b8ff" d="M767.62,-264.98C820.62,-254.33 890.81,-240.23 942.47,-229.85"/>
<polygon fill="#63b8ff" stroke="#63b8ff" points="767.18,-261.5 758.07,-266.9 768.56,-268.36 767.18,-261.5"/>
</a>
</g>
</g>
<!-- Node33 -->
<g id="Node000033" class="node">
<title>Node33</title>
<g id="a_Node000033"><a xlink:href="EndpointNode_8cpp.html" target="_top" xlink:title=" ">
<polygon fill="white" stroke="#666666" points="576.62,-230 464.62,-230 464.62,-199.5 576.62,-199.5 576.62,-230"/>
<text text-anchor="start" x="472.62" y="-216.5" font-family="Helvetica,sans-Serif" font-size="10.00">sourcecode/timing/src</text>
<text text-anchor="middle" x="520.62" y="-205.25" font-family="Helvetica,sans-Serif" font-size="10.00">/EndpointNode.cpp</text>
</a>
</g>
</g>
<!-- Node9&#45;&gt;Node33 -->
<g id="edge47_Node000009_Node000033" class="edge">
<title>Node9&#45;&gt;Node33</title>
<g id="a_edge47_Node000009_Node000033"><a xlink:title=" ">
<path fill="none" stroke="#63b8ff" d="M642.31,-261.65C616.01,-251.73 584.11,-239.7 559.57,-230.44"/>
<polygon fill="#63b8ff" stroke="#63b8ff" points="640.81,-264.83 651.41,-265.08 643.29,-258.28 640.81,-264.83"/>
</a>
</g>
</g>
<!-- Node10&#45;&gt;Node6 -->
<g id="edge11_Node000010_Node000006" class="edge">
<title>Node10&#45;&gt;Node6</title>
<g id="a_edge11_Node000010_Node000006"><a xlink:title=" ">
<path fill="none" stroke="#63b8ff" d="M582.94,-199.22C410.89,-178.87 364.64,-185.28 195.62,-163.5 192.77,-163.13 189.87,-162.74 186.94,-162.33"/>
<polygon fill="#63b8ff" stroke="#63b8ff" points="582.34,-202.68 592.68,-200.39 583.17,-195.73 582.34,-202.68"/>
</a>
</g>
</g>
<!-- Node11 -->
<g id="Node000011" class="node">
<title>Node11</title>
<g id="a_Node000011"><a xlink:href="EndpointDesign_8hpp.html" target="_top" xlink:title=" ">
<polygon fill="white" stroke="#666666" points="1287.5,-163.5 1153.75,-163.5 1153.75,-133 1287.5,-133 1287.5,-163.5"/>
<text text-anchor="start" x="1161.75" y="-150" font-family="Helvetica,sans-Serif" font-size="10.00">sourcecode/timing/include</text>
<text text-anchor="middle" x="1220.62" y="-138.75" font-family="Helvetica,sans-Serif" font-size="10.00">/timing/EndpointDesign.hpp</text>
</a>
</g>
</g>
<!-- Node10&#45;&gt;Node11 -->
<g id="edge12_Node000010_Node000011" class="edge">
<title>Node10&#45;&gt;Node11</title>
<g id="a_edge12_Node000010_Node000011"><a xlink:title=" ">
<path fill="none" stroke="#63b8ff" d="M778.36,-199.17C917.59,-181.04 1068.52,-164.85 1153.44,-156.07"/>
<polygon fill="#63b8ff" stroke="#63b8ff" points="778.04,-195.68 768.57,-200.45 778.94,-202.62 778.04,-195.68"/>
</a>
</g>
</g>
<!-- Node15 -->
<g id="Node000015" class="node">
<title>Node15</title>
<g id="a_Node000015"><a xlink:href="FanoutDesign_8hpp.html" target="_top" xlink:title=" ">
<polygon fill="white" stroke="#666666" points="1173.25,-97 1044,-97 1044,-66.5 1173.25,-66.5 1173.25,-97"/>
<text text-anchor="start" x="1052" y="-83.5" font-family="Helvetica,sans-Serif" font-size="10.00">sourcecode/timing/include</text>
<text text-anchor="middle" x="1108.62" y="-72.25" font-family="Helvetica,sans-Serif" font-size="10.00">/timing/FanoutDesign.hpp</text>
</a>
</g>
</g>
<!-- Node10&#45;&gt;Node15 -->
<g id="edge18_Node000010_Node000015" class="edge">
<title>Node10&#45;&gt;Node15</title>
<g id="a_edge18_Node000010_Node000015"><a xlink:title=" ">
<path fill="none" stroke="#63b8ff" d="M777.99,-198.58C862.86,-185.2 973.9,-167.26 983.62,-163.5 1025.55,-147.29 1068.23,-115.81 1091.27,-97.31"/>
<polygon fill="#63b8ff" stroke="#63b8ff" points="777.56,-195.1 768.23,-200.11 778.65,-202.02 777.56,-195.1"/>
</a>
</g>
</g>
<!-- Node18 -->
<g id="Node000018" class="node">
<title>Node18</title>
<g id="a_Node000018"><a xlink:href="GaiaDesign_8hpp.html" target="_top" xlink:title=" ">
<polygon fill="white" stroke="#666666" points="670.25,-163.5 541,-163.5 541,-133 670.25,-133 670.25,-163.5"/>
<text text-anchor="start" x="549" y="-150" font-family="Helvetica,sans-Serif" font-size="10.00">sourcecode/timing/include</text>
<text text-anchor="middle" x="605.62" y="-138.75" font-family="Helvetica,sans-Serif" font-size="10.00">/timing/GaiaDesign.hpp</text>
</a>
</g>
</g>
<!-- Node10&#45;&gt;Node18 -->
<g id="edge22_Node000010_Node000018" class="edge">
<title>Node10&#45;&gt;Node18</title>
<g id="a_edge22_Node000010_Node000018"><a xlink:title=" ">
<path fill="none" stroke="#63b8ff" d="M655.03,-191.74C644.32,-182.53 632.15,-172.06 622.58,-163.83"/>
<polygon fill="#63b8ff" stroke="#63b8ff" points="652.59,-194.26 662.46,-198.13 657.16,-188.95 652.59,-194.26"/>
</a>
</g>
</g>
<!-- Node20 -->
<g id="Node000020" class="node">
<title>Node20</title>
<g id="a_Node000020"><a xlink:href="HSIDesignInterface_8hpp.html" target="_top" xlink:title=" ">
<polygon fill="white" stroke="#666666" points="1489.5,-163.5 1337.75,-163.5 1337.75,-133 1489.5,-133 1489.5,-163.5"/>
<text text-anchor="start" x="1345.75" y="-150" font-family="Helvetica,sans-Serif" font-size="10.00">sourcecode/timing/include</text>
<text text-anchor="middle" x="1413.62" y="-138.75" font-family="Helvetica,sans-Serif" font-size="10.00">/timing/HSIDesignInterface.hpp</text>
</a>
</g>
</g>
<!-- Node10&#45;&gt;Node20 -->
<g id="edge25_Node000010_Node000020" class="edge">
<title>Node10&#45;&gt;Node20</title>
<g id="a_edge25_Node000010_Node000020"><a xlink:title=" ">
<path fill="none" stroke="#63b8ff" d="M778.48,-199.25C1008.31,-174.62 1069.29,-185.18 1296.62,-163.5 1309.87,-162.24 1323.93,-160.7 1337.53,-159.1"/>
<polygon fill="#63b8ff" stroke="#63b8ff" points="778.12,-195.77 768.56,-200.32 778.88,-202.73 778.12,-195.77"/>
</a>
</g>
</g>
<!-- Node23 -->
<g id="Node000023" class="node">
<title>Node23</title>
<g id="a_Node000023"><a xlink:href="TimingHardwareManager_8hpp.html" target="_top" xlink:title=" ">
<polygon fill="white" stroke="#666666" points="1781.75,-97 1619.5,-97 1619.5,-66.5 1781.75,-66.5 1781.75,-97"/>
<text text-anchor="start" x="1627.5" y="-83.5" font-family="Helvetica,sans-Serif" font-size="10.00">sourcecode/timinglibs</text>
<text text-anchor="middle" x="1700.62" y="-72.25" font-family="Helvetica,sans-Serif" font-size="10.00">/src/TimingHardwareManager.hpp</text>
</a>
</g>
</g>
<!-- Node10&#45;&gt;Node23 -->
<g id="edge44_Node000010_Node000023" class="edge">
<title>Node10&#45;&gt;Node23</title>
<g id="a_edge44_Node000010_Node000023"><a xlink:title=" ">
<path fill="none" stroke="#63b8ff" d="M778.51,-199.3C1097.88,-169.09 1187.99,-231.34 1498.62,-163.5 1563.38,-149.36 1634.29,-116.66 1672.47,-97.49"/>
<polygon fill="#63b8ff" stroke="#63b8ff" points="778.17,-195.82 768.55,-200.27 778.85,-202.78 778.17,-195.82"/>
</a>
</g>
</g>
<!-- Node24 -->
<g id="Node000024" class="node">
<title>Node24</title>
<g id="a_Node000024"><a xlink:href="KerberosDesign_8hpp.html" target="_top" xlink:title=" ">
<polygon fill="white" stroke="#666666" points="823.25,-163.5 688,-163.5 688,-133 823.25,-133 823.25,-163.5"/>
<text text-anchor="start" x="696" y="-150" font-family="Helvetica,sans-Serif" font-size="10.00">sourcecode/timing/include</text>
<text text-anchor="middle" x="755.62" y="-138.75" font-family="Helvetica,sans-Serif" font-size="10.00">/timing/KerberosDesign.hpp</text>
</a>
</g>
</g>
<!-- Node10&#45;&gt;Node24 -->
<g id="edge32_Node000010_Node000024" class="edge">
<title>Node10&#45;&gt;Node24</title>
<g id="a_edge32_Node000010_Node000024"><a xlink:title=" ">
<path fill="none" stroke="#63b8ff" d="M706.22,-191.74C716.93,-182.53 729.1,-172.06 738.67,-163.83"/>
<polygon fill="#63b8ff" stroke="#63b8ff" points="704.09,-188.95 698.79,-198.13 708.66,-194.26 704.09,-188.95"/>
</a>
</g>
</g>
<!-- Node26 -->
<g id="Node000026" class="node">
<title>Node26</title>
<g id="a_Node000026"><a xlink:href="OuroborosDesign_8hpp.html" target="_top" xlink:title=" ">
<polygon fill="white" stroke="#666666" points="346.25,-163.5 205,-163.5 205,-133 346.25,-133 346.25,-163.5"/>
<text text-anchor="start" x="213" y="-150" font-family="Helvetica,sans-Serif" font-size="10.00">sourcecode/timing/include</text>
<text text-anchor="middle" x="275.62" y="-138.75" font-family="Helvetica,sans-Serif" font-size="10.00">/timing/OuroborosDesign.hpp</text>
</a>
</g>
</g>
<!-- Node10&#45;&gt;Node26 -->
<g id="edge35_Node000010_Node000026" class="edge">
<title>Node10&#45;&gt;Node26</title>
<g id="a_edge35_Node000010_Node000026"><a xlink:title=" ">
<path fill="none" stroke="#63b8ff" d="M583.21,-199.01C503.56,-186.91 397.38,-170.65 354.62,-163.5 352.01,-163.06 349.35,-162.61 346.67,-162.15"/>
<polygon fill="#63b8ff" stroke="#63b8ff" points="582.35,-202.42 592.76,-200.47 583.4,-195.5 582.35,-202.42"/>
</a>
</g>
</g>
<!-- Node28 -->
<g id="Node000028" class="node">
<title>Node28</title>
<g id="a_Node000028"><a xlink:href="OuroborosMuxDesign_8hpp.html" target="_top" xlink:title=" ">
<polygon fill="white" stroke="#666666" points="523.25,-163.5 364,-163.5 364,-133 523.25,-133 523.25,-163.5"/>
<text text-anchor="start" x="372" y="-150" font-family="Helvetica,sans-Serif" font-size="10.00">sourcecode/timing/include</text>
<text text-anchor="middle" x="443.62" y="-138.75" font-family="Helvetica,sans-Serif" font-size="10.00">/timing/OuroborosMuxDesign.hpp</text>
</a>
</g>
</g>
<!-- Node10&#45;&gt;Node28 -->
<g id="edge38_Node000010_Node000028" class="edge">
<title>Node10&#45;&gt;Node28</title>
<g id="a_edge38_Node000010_Node000028"><a xlink:title=" ">
<path fill="none" stroke="#63b8ff" d="M615.83,-196.12C578.68,-186.01 532.61,-173.47 497.47,-163.9"/>
<polygon fill="#63b8ff" stroke="#63b8ff" points="614.52,-199.39 625.09,-198.64 616.36,-192.63 614.52,-199.39"/>
</a>
</g>
</g>
<!-- Node30 -->
<g id="Node000030" class="node">
<title>Node30</title>
<g id="a_Node000030"><a xlink:href="OverlordDesign_8hpp.html" target="_top" xlink:title=" ">
<polygon fill="white" stroke="#666666" points="974.12,-163.5 841.12,-163.5 841.12,-133 974.12,-133 974.12,-163.5"/>
<text text-anchor="start" x="849.12" y="-150" font-family="Helvetica,sans-Serif" font-size="10.00">sourcecode/timing/include</text>
<text text-anchor="middle" x="907.62" y="-138.75" font-family="Helvetica,sans-Serif" font-size="10.00">/timing/OverlordDesign.hpp</text>
</a>
</g>
</g>
<!-- Node10&#45;&gt;Node30 -->
<g id="edge41_Node000010_Node000030" class="edge">
<title>Node10&#45;&gt;Node30</title>
<g id="a_edge41_Node000010_Node000030"><a xlink:title=" ">
<path fill="none" stroke="#63b8ff" d="M743.15,-195.99C778.64,-185.9 822.54,-173.43 856.05,-163.9"/>
<polygon fill="#63b8ff" stroke="#63b8ff" points="742.54,-192.52 733.87,-198.62 744.45,-199.25 742.54,-192.52"/>
</a>
</g>
</g>
<!-- Node11&#45;&gt;Node4 -->
<g id="edge16_Node000011_Node000004" class="edge">
<title>Node11&#45;&gt;Node4</title>
<g id="a_edge16_Node000011_Node000004"><a xlink:title=" ">
<path fill="none" stroke="#63b8ff" d="M1142.71,-133.71C1108.36,-125.88 1068.26,-114.09 1034.62,-97 1015.32,-87.19 1015.8,-76.57 996.62,-66.5 966.17,-50.51 929.86,-38.84 898.81,-30.8"/>
<polygon fill="#63b8ff" stroke="#63b8ff" points="1141.64,-137.06 1152.16,-135.79 1143.15,-130.23 1141.64,-137.06"/>
</a>
</g>
</g>
<!-- Node12 -->
<g id="Node000012" class="node">
<title>Node12</title>
<g id="a_Node000012"><a xlink:href="ChronosDesign_8hpp.html" target="_top" xlink:title=" ">
<polygon fill="white" stroke="#666666" points="1453.75,-97 1321.5,-97 1321.5,-66.5 1453.75,-66.5 1453.75,-97"/>
<text text-anchor="start" x="1329.5" y="-83.5" font-family="Helvetica,sans-Serif" font-size="10.00">sourcecode/timing/include</text>
<text text-anchor="middle" x="1387.62" y="-72.25" font-family="Helvetica,sans-Serif" font-size="10.00">/timing/ChronosDesign.hpp</text>
</a>
</g>
</g>
<!-- Node11&#45;&gt;Node12 -->
<g id="edge13_Node000011_Node000012" class="edge">
<title>Node11&#45;&gt;Node12</title>
<g id="a_edge13_Node000011_Node000012"><a xlink:title=" ">
<path fill="none" stroke="#63b8ff" d="M1269.13,-128.51C1294.75,-118.62 1325.73,-106.65 1349.59,-97.44"/>
<polygon fill="#63b8ff" stroke="#63b8ff" points="1268,-125.2 1259.93,-132.07 1270.52,-131.73 1268,-125.2"/>
</a>
</g>
</g>
<!-- Node14 -->
<g id="Node000014" class="node">
<title>Node14</title>
<g id="a_Node000014"><a xlink:href="EndpointDesign_8cpp.html" target="_top" xlink:title=" ">
<polygon fill="white" stroke="#666666" points="1303.62,-97 1191.62,-97 1191.62,-66.5 1303.62,-66.5 1303.62,-97"/>
<text text-anchor="start" x="1199.62" y="-83.5" font-family="Helvetica,sans-Serif" font-size="10.00">sourcecode/timing/src</text>
<text text-anchor="middle" x="1247.62" y="-72.25" font-family="Helvetica,sans-Serif" font-size="10.00">/EndpointDesign.cpp</text>
</a>
</g>
</g>
<!-- Node11&#45;&gt;Node14 -->
<g id="edge17_Node000011_Node000014" class="edge">
<title>Node11&#45;&gt;Node14</title>
<g id="a_edge17_Node000011_Node000014"><a xlink:title=" ">
<path fill="none" stroke="#63b8ff" d="M1231.13,-122.16C1234.65,-113.75 1238.45,-104.66 1241.52,-97.33"/>
<polygon fill="#63b8ff" stroke="#63b8ff" points="1227.97,-120.64 1227.34,-131.22 1234.43,-123.34 1227.97,-120.64"/>
</a>
</g>
</g>
<!-- Node12&#45;&gt;Node4 -->
<g id="edge14_Node000012_Node000004" class="edge">
<title>Node12&#45;&gt;Node4</title>
<g id="a_edge14_Node000012_Node000004"><a xlink:title=" ">
<path fill="none" stroke="#63b8ff" d="M1309.64,-66.14C1157.75,-44.26 991.09,-29.21 898.99,-21.68"/>
<polygon fill="#63b8ff" stroke="#63b8ff" points="1309.12,-69.6 1319.52,-67.57 1310.13,-62.67 1309.12,-69.6"/>
</a>
</g>
</g>
<!-- Node13 -->
<g id="Node000013" class="node">
<title>Node13</title>
<g id="a_Node000013"><a xlink:href="ChronosDesign_8cpp.html" target="_top" xlink:title=" ">
<polygon fill="white" stroke="#666666" points="1443.62,-30.5 1331.62,-30.5 1331.62,0 1443.62,0 1443.62,-30.5"/>
<text text-anchor="start" x="1339.62" y="-17" font-family="Helvetica,sans-Serif" font-size="10.00">sourcecode/timing/src</text>
<text text-anchor="middle" x="1387.62" y="-5.75" font-family="Helvetica,sans-Serif" font-size="10.00">/ChronosDesign.cpp</text>
</a>
</g>
</g>
<!-- Node12&#45;&gt;Node13 -->
<g id="edge15_Node000012_Node000013" class="edge">
<title>Node12&#45;&gt;Node13</title>
<g id="a_edge15_Node000012_Node000013"><a xlink:title=" ">
<path fill="none" stroke="#63b8ff" d="M1387.62,-54.81C1387.62,-46.64 1387.62,-37.91 1387.62,-30.83"/>
<polygon fill="#63b8ff" stroke="#63b8ff" points="1384.13,-54.6 1387.63,-64.6 1391.13,-54.6 1384.13,-54.6"/>
</a>
</g>
</g>
<!-- Node15&#45;&gt;Node4 -->
<g id="edge19_Node000015_Node000004" class="edge">
<title>Node15&#45;&gt;Node4</title>
<g id="a_edge19_Node000015_Node000004"><a xlink:title=" ">
<path fill="none" stroke="#63b8ff" d="M1033.76,-63.51C989.59,-53.33 934.29,-40.59 892.24,-30.9"/>
<polygon fill="#63b8ff" stroke="#63b8ff" points="1032.73,-66.86 1043.26,-65.69 1034.3,-60.04 1032.73,-66.86"/>
</a>
</g>
</g>
<!-- Node16 -->
<g id="Node000016" class="node">
<title>Node16</title>
<g id="a_Node000016"><a xlink:href="FanoutDesign_8cpp.html" target="_top" xlink:title=" ">
<polygon fill="white" stroke="#666666" points="1164.62,-30.5 1052.62,-30.5 1052.62,0 1164.62,0 1164.62,-30.5"/>
<text text-anchor="start" x="1060.62" y="-17" font-family="Helvetica,sans-Serif" font-size="10.00">sourcecode/timing/src</text>
<text text-anchor="middle" x="1108.62" y="-5.75" font-family="Helvetica,sans-Serif" font-size="10.00">/FanoutDesign.cpp</text>
</a>
</g>
</g>
<!-- Node15&#45;&gt;Node16 -->
<g id="edge20_Node000015_Node000016" class="edge">
<title>Node15&#45;&gt;Node16</title>
<g id="a_edge20_Node000015_Node000016"><a xlink:title=" ">
<path fill="none" stroke="#63b8ff" d="M1108.62,-54.81C1108.62,-46.64 1108.62,-37.91 1108.62,-30.83"/>
<polygon fill="#63b8ff" stroke="#63b8ff" points="1105.13,-54.6 1108.63,-64.6 1112.13,-54.6 1105.13,-54.6"/>
</a>
</g>
</g>
<!-- Node17 -->
<g id="Node000017" class="node">
<title>Node17</title>
<g id="a_Node000017"><a xlink:href="TimingHardwareManager_8cpp.html" target="_top" xlink:title=" ">
<polygon fill="white" stroke="#666666" points="1776.75,-30.5 1614.5,-30.5 1614.5,0 1776.75,0 1776.75,-30.5"/>
<text text-anchor="start" x="1622.5" y="-17" font-family="Helvetica,sans-Serif" font-size="10.00">sourcecode/timinglibs</text>
<text text-anchor="middle" x="1695.62" y="-5.75" font-family="Helvetica,sans-Serif" font-size="10.00">/src/TimingHardwareManager.cpp</text>
</a>
</g>
</g>
<!-- Node15&#45;&gt;Node17 -->
<g id="edge21_Node000015_Node000017" class="edge">
<title>Node15&#45;&gt;Node17</title>
<g id="a_edge21_Node000015_Node000017"><a xlink:title=" ">
<path fill="none" stroke="#63b8ff" d="M1184.75,-66.31C1369.69,-41.24 1419.64,-52.09 1601.62,-30.5 1605.72,-30.01 1609.92,-29.49 1614.15,-28.93"/>
<polygon fill="#63b8ff" stroke="#63b8ff" points="1184.46,-62.82 1175.03,-67.65 1185.42,-69.75 1184.46,-62.82"/>
</a>
</g>
</g>
<!-- Node18&#45;&gt;Node4 -->
<g id="edge23_Node000018_Node000004" class="edge">
<title>Node18&#45;&gt;Node4</title>
<g id="a_edge23_Node000018_Node000004"><a xlink:title=" ">
<path fill="none" stroke="#63b8ff" d="M616.69,-122.67C625.99,-104.65 640.92,-80.92 660.62,-66.5 689.12,-45.64 726.29,-33.37 758.42,-26.19"/>
<polygon fill="#63b8ff" stroke="#63b8ff" points="613.67,-120.87 612.42,-131.39 619.96,-123.95 613.67,-120.87"/>
</a>
</g>
</g>
<!-- Node19 -->
<g id="Node000019" class="node">
<title>Node19</title>
<g id="a_Node000019"><a xlink:href="GaiaDesign_8cpp.html" target="_top" xlink:title=" ">
<polygon fill="white" stroke="#666666" points="613.62,-97 501.62,-97 501.62,-66.5 613.62,-66.5 613.62,-97"/>
<text text-anchor="start" x="509.62" y="-83.5" font-family="Helvetica,sans-Serif" font-size="10.00">sourcecode/timing/src</text>
<text text-anchor="middle" x="557.62" y="-72.25" font-family="Helvetica,sans-Serif" font-size="10.00">/GaiaDesign.cpp</text>
</a>
</g>
</g>
<!-- Node18&#45;&gt;Node19 -->
<g id="edge24_Node000018_Node000019" class="edge">
<title>Node18&#45;&gt;Node19</title>
<g id="a_edge24_Node000018_Node000019"><a xlink:title=" ">
<path fill="none" stroke="#63b8ff" d="M588,-123.57C581.46,-114.78 574.24,-105.07 568.47,-97.33"/>
<polygon fill="#63b8ff" stroke="#63b8ff" points="585.05,-125.47 593.83,-131.4 590.67,-121.29 585.05,-125.47"/>
</a>
</g>
</g>
<!-- Node20&#45;&gt;Node12 -->
<g id="edge29_Node000020_Node000012" class="edge">
<title>Node20&#45;&gt;Node12</title>
<g id="a_edge29_Node000020_Node000012"><a xlink:title=" ">
<path fill="none" stroke="#63b8ff" d="M1403.51,-122.16C1400.12,-113.75 1396.46,-104.66 1393.5,-97.33"/>
<polygon fill="#63b8ff" stroke="#63b8ff" points="1400.17,-123.24 1407.16,-131.21 1406.67,-120.63 1400.17,-123.24"/>
</a>
</g>
</g>
<!-- Node21 -->
<g id="Node000021" class="node">
<title>Node21</title>
<g id="a_Node000021"><a xlink:href="BoreasDesign_8hpp.html" target="_top" xlink:title=" ">
<polygon fill="white" stroke="#666666" points="1601.25,-97 1472,-97 1472,-66.5 1601.25,-66.5 1601.25,-97"/>
<text text-anchor="start" x="1480" y="-83.5" font-family="Helvetica,sans-Serif" font-size="10.00">sourcecode/timing/include</text>
<text text-anchor="middle" x="1536.62" y="-72.25" font-family="Helvetica,sans-Serif" font-size="10.00">/timing/BoreasDesign.hpp</text>
</a>
</g>
</g>
<!-- Node20&#45;&gt;Node21 -->
<g id="edge26_Node000020_Node000021" class="edge">
<title>Node20&#45;&gt;Node21</title>
<g id="a_edge26_Node000020_Node000021"><a xlink:title=" ">
<path fill="none" stroke="#63b8ff" d="M1451.68,-127.29C1470.15,-117.61 1491.94,-106.18 1508.82,-97.33"/>
<polygon fill="#63b8ff" stroke="#63b8ff" points="1450.11,-124.17 1442.88,-131.91 1453.36,-130.37 1450.11,-124.17"/>
</a>
</g>
</g>
<!-- Node20&#45;&gt;Node23 -->
<g id="edge30_Node000020_Node000023" class="edge">
<title>Node20&#45;&gt;Node23</title>
<g id="a_edge30_Node000020_Node000023"><a xlink:title=" ">
<path fill="none" stroke="#63b8ff" d="M1490.07,-130.07C1535.39,-119.88 1592.23,-107.11 1635.42,-97.4"/>
<polygon fill="#63b8ff" stroke="#63b8ff" points="1489.57,-126.59 1480.59,-132.2 1491.11,-133.42 1489.57,-126.59"/>
</a>
</g>
</g>
<!-- Node21&#45;&gt;Node4 -->
<g id="edge27_Node000021_Node000004" class="edge">
<title>Node21&#45;&gt;Node4</title>
<g id="a_edge27_Node000021_Node000004"><a xlink:title=" ">
<path fill="none" stroke="#63b8ff" d="M1460.61,-66.37C1336.42,-50.66 1036.04,-29.92 898.84,-20.82"/>
<polygon fill="#63b8ff" stroke="#63b8ff" points="1459.85,-69.8 1470.22,-67.63 1460.76,-62.86 1459.85,-69.8"/>
</a>
</g>
</g>
<!-- Node22 -->
<g id="Node000022" class="node">
<title>Node22</title>
<g id="a_Node000022"><a xlink:href="BoreasDesign_8cpp.html" target="_top" xlink:title=" ">
<polygon fill="white" stroke="#666666" points="1592.62,-30.5 1480.62,-30.5 1480.62,0 1592.62,0 1592.62,-30.5"/>
<text text-anchor="start" x="1488.62" y="-17" font-family="Helvetica,sans-Serif" font-size="10.00">sourcecode/timing/src</text>
<text text-anchor="middle" x="1536.62" y="-5.75" font-family="Helvetica,sans-Serif" font-size="10.00">/BoreasDesign.cpp</text>
</a>
</g>
</g>
<!-- Node21&#45;&gt;Node22 -->
<g id="edge28_Node000021_Node000022" class="edge">
<title>Node21&#45;&gt;Node22</title>
<g id="a_edge28_Node000021_Node000022"><a xlink:title=" ">
<path fill="none" stroke="#63b8ff" d="M1536.62,-54.81C1536.62,-46.64 1536.62,-37.91 1536.62,-30.83"/>
<polygon fill="#63b8ff" stroke="#63b8ff" points="1533.13,-54.6 1536.63,-64.6 1540.13,-54.6 1533.13,-54.6"/>
</a>
</g>
</g>
<!-- Node23&#45;&gt;Node17 -->
<g id="edge31_Node000023_Node000017" class="edge">
<title>Node23&#45;&gt;Node17</title>
<g id="a_edge31_Node000023_Node000017"><a xlink:title=" ">
<path fill="none" stroke="#63b8ff" d="M1698.61,-54.81C1697.98,-46.64 1697.3,-37.91 1696.76,-30.83"/>
<polygon fill="#63b8ff" stroke="#63b8ff" points="1695.11,-54.91 1699.37,-64.6 1702.09,-54.36 1695.11,-54.91"/>
</a>
</g>
</g>
<!-- Node24&#45;&gt;Node4 -->
<g id="edge33_Node000024_Node000004" class="edge">
<title>Node24&#45;&gt;Node4</title>
<g id="a_edge33_Node000024_Node000004"><a xlink:title=" ">
<path fill="none" stroke="#63b8ff" d="M773.44,-123.43C779.23,-115.24 785.48,-105.9 790.62,-97 803.5,-74.73 815.65,-47.39 822.61,-30.92"/>
<polygon fill="#63b8ff" stroke="#63b8ff" points="770.63,-121.35 767.6,-131.5 776.3,-125.45 770.63,-121.35"/>
</a>
</g>
</g>
<!-- Node25 -->
<g id="Node000025" class="node">
<title>Node25</title>
<g id="a_Node000025"><a xlink:href="KerberosDesign_8cpp.html" target="_top" xlink:title=" ">
<polygon fill="white" stroke="#666666" points="781.62,-97 669.62,-97 669.62,-66.5 781.62,-66.5 781.62,-97"/>
<text text-anchor="start" x="677.62" y="-83.5" font-family="Helvetica,sans-Serif" font-size="10.00">sourcecode/timing/src</text>
<text text-anchor="middle" x="725.62" y="-72.25" font-family="Helvetica,sans-Serif" font-size="10.00">/KerberosDesign.cpp</text>
</a>
</g>
</g>
<!-- Node24&#45;&gt;Node25 -->
<g id="edge34_Node000024_Node000025" class="edge">
<title>Node24&#45;&gt;Node25</title>
<g id="a_edge34_Node000024_Node000025"><a xlink:title=" ">
<path fill="none" stroke="#63b8ff" d="M744.09,-122.44C740.14,-113.96 735.85,-104.74 732.41,-97.33"/>
<polygon fill="#63b8ff" stroke="#63b8ff" points="740.79,-123.65 748.18,-131.24 747.14,-120.7 740.79,-123.65"/>
</a>
</g>
</g>
<!-- Node26&#45;&gt;Node4 -->
<g id="edge36_Node000026_Node000004" class="edge">
<title>Node26&#45;&gt;Node4</title>
<g id="a_edge36_Node000026_Node000004"><a xlink:title=" ">
<path fill="none" stroke="#63b8ff" d="M223.28,-128.04C189.22,-112.73 154.84,-90.02 176.62,-66.5 215.53,-24.48 598.06,-17.48 758.44,-16.4"/>
<polygon fill="#63b8ff" stroke="#63b8ff" points="221.82,-131.22 232.39,-131.95 224.58,-124.79 221.82,-131.22"/>
</a>
</g>
</g>
<!-- Node27 -->
<g id="Node000027" class="node">
<title>Node27</title>
<g id="a_Node000027"><a xlink:href="OuroborosDesign_8cpp.html" target="_top" xlink:title=" ">
<polygon fill="white" stroke="#666666" points="297.62,-97 185.62,-97 185.62,-66.5 297.62,-66.5 297.62,-97"/>
<text text-anchor="start" x="193.62" y="-83.5" font-family="Helvetica,sans-Serif" font-size="10.00">sourcecode/timing/src</text>
<text text-anchor="middle" x="241.62" y="-72.25" font-family="Helvetica,sans-Serif" font-size="10.00">/OuroborosDesign.cpp</text>
</a>
</g>
</g>
<!-- Node26&#45;&gt;Node27 -->
<g id="edge37_Node000026_Node000027" class="edge">
<title>Node26&#45;&gt;Node27</title>
<g id="a_edge37_Node000026_Node000027"><a xlink:title=" ">
<path fill="none" stroke="#63b8ff" d="M262.55,-122.44C258.07,-113.96 253.22,-104.74 249.31,-97.33"/>
<polygon fill="#63b8ff" stroke="#63b8ff" points="259.44,-124.06 267.2,-131.28 265.64,-120.8 259.44,-124.06"/>
</a>
</g>
</g>
<!-- Node28&#45;&gt;Node4 -->
<g id="edge39_Node000028_Node000004" class="edge">
<title>Node28&#45;&gt;Node4</title>
<g id="a_edge39_Node000028_Node000004"><a xlink:title=" ">
<path fill="none" stroke="#63b8ff" d="M391.14,-128.06C357.28,-112.84 323.22,-90.24 344.62,-66.5 371.81,-36.34 631.13,-23.14 758.59,-18.44"/>
<polygon fill="#63b8ff" stroke="#63b8ff" points="389.62,-131.21 400.19,-131.94 392.38,-124.78 389.62,-131.21"/>
</a>
</g>
</g>
<!-- Node29 -->
<g id="Node000029" class="node">
<title>Node29</title>
<g id="a_Node000029"><a xlink:href="OuroborosMuxDesign_8cpp.html" target="_top" xlink:title=" ">
<polygon fill="white" stroke="#666666" points="483.62,-97 353.62,-97 353.62,-66.5 483.62,-66.5 483.62,-97"/>
<text text-anchor="start" x="361.62" y="-83.5" font-family="Helvetica,sans-Serif" font-size="10.00">sourcecode/timing/src</text>
<text text-anchor="middle" x="418.62" y="-72.25" font-family="Helvetica,sans-Serif" font-size="10.00">/OuroborosMuxDesign.cpp</text>
</a>
</g>
</g>
<!-- Node28&#45;&gt;Node29 -->
<g id="edge40_Node000028_Node000029" class="edge">
<title>Node28&#45;&gt;Node29</title>
<g id="a_edge40_Node000028_Node000029"><a xlink:title=" ">
<path fill="none" stroke="#63b8ff" d="M433.9,-122.16C430.64,-113.75 427.12,-104.66 424.28,-97.33"/>
<polygon fill="#63b8ff" stroke="#63b8ff" points="430.53,-123.14 437.41,-131.2 437.05,-120.61 430.53,-123.14"/>
</a>
</g>
</g>
<!-- Node30&#45;&gt;Node4 -->
<g id="edge42_Node000030_Node000004" class="edge">
<title>Node30&#45;&gt;Node4</title>
<g id="a_edge42_Node000030_Node000004"><a xlink:title=" ">
<path fill="none" stroke="#63b8ff" d="M886.64,-123.96C879.8,-115.76 872.47,-106.28 866.62,-97 852.83,-75.11 840.87,-47.41 834.21,-30.8"/>
<polygon fill="#63b8ff" stroke="#63b8ff" points="883.89,-126.13 893.06,-131.44 889.2,-121.57 883.89,-126.13"/>
</a>
</g>
</g>
<!-- Node31 -->
<g id="Node000031" class="node">
<title>Node31</title>
<g id="a_Node000031"><a xlink:href="OverlordDesign_8cpp.html" target="_top" xlink:title=" ">
<polygon fill="white" stroke="#666666" points="987.62,-97 875.62,-97 875.62,-66.5 987.62,-66.5 987.62,-97"/>
<text text-anchor="start" x="883.62" y="-83.5" font-family="Helvetica,sans-Serif" font-size="10.00">sourcecode/timing/src</text>
<text text-anchor="middle" x="931.62" y="-72.25" font-family="Helvetica,sans-Serif" font-size="10.00">/OverlordDesign.cpp</text>
</a>
</g>
</g>
<!-- Node30&#45;&gt;Node31 -->
<g id="edge43_Node000030_Node000031" class="edge">
<title>Node30&#45;&gt;Node31</title>
<g id="a_edge43_Node000030_Node000031"><a xlink:title=" ">
<path fill="none" stroke="#63b8ff" d="M917.07,-121.88C920.17,-113.55 923.5,-104.58 926.2,-97.33"/>
<polygon fill="#63b8ff" stroke="#63b8ff" points="913.81,-120.6 913.6,-131.2 920.37,-123.04 913.81,-120.6"/>
</a>
</g>
</g>
<!-- Node34&#45;&gt;Node7 -->
<g id="edge50_Node000034_Node000007" class="edge">
<title>Node34&#45;&gt;Node7</title>
<g id="a_edge50_Node000034_Node000007"><a xlink:title=" ">
<path fill="none" stroke="#63b8ff" d="M975.59,-261.65C949.45,-251.73 917.74,-239.7 893.34,-230.44"/>
<polygon fill="#63b8ff" stroke="#63b8ff" points="974.04,-264.8 984.63,-265.08 976.53,-258.26 974.04,-264.8"/>
</a>
</g>
</g>
<!-- Node34&#45;&gt;Node32 -->
<g id="edge49_Node000034_Node000032" class="edge">
<title>Node34&#45;&gt;Node32</title>
<g id="a_edge49_Node000034_Node000032"><a xlink:title=" ">
<path fill="none" stroke="#63b8ff" d="M1019.8,-254.31C1018.28,-246.14 1016.66,-237.41 1015.34,-230.33"/>
<polygon fill="#63b8ff" stroke="#63b8ff" points="1016.36,-254.93 1021.63,-264.13 1023.24,-253.65 1016.36,-254.93"/>
</a>
</g>
</g>
<!-- Node35 -->
<g id="Node000035" class="node">
<title>Node35</title>
<g id="a_Node000035"><a xlink:href="PDIEndpointNode_8cpp.html" target="_top" xlink:title=" ">
<polygon fill="white" stroke="#666666" points="1364.75,-230 1250.5,-230 1250.5,-199.5 1364.75,-199.5 1364.75,-230"/>
<text text-anchor="start" x="1258.5" y="-216.5" font-family="Helvetica,sans-Serif" font-size="10.00">sourcecode/timing/src</text>
<text text-anchor="middle" x="1307.62" y="-205.25" font-family="Helvetica,sans-Serif" font-size="10.00">/PDIEndpointNode.cpp</text>
</a>
</g>
</g>
<!-- Node34&#45;&gt;Node35 -->
<g id="edge51_Node000034_Node000035" class="edge">
<title>Node34&#45;&gt;Node35</title>
<g id="a_edge51_Node000034_Node000035"><a xlink:title=" ">
<path fill="none" stroke="#63b8ff" d="M1100.25,-263.01C1147.3,-252.29 1206.85,-238.72 1250.05,-228.87"/>
<polygon fill="#63b8ff" stroke="#63b8ff" points="1099.64,-259.56 1090.67,-265.2 1101.2,-266.39 1099.64,-259.56"/>
</a>
</g>
</g>
<!-- Node36 -->
<g id="Node000036" class="node">
<title>Node36</title>
<g id="a_Node000036"><a xlink:href="PDIHSIEndpointNode_8cpp.html" target="_top" xlink:title=" ">
<polygon fill="white" stroke="#666666" points="1232.38,-230 1100.88,-230 1100.88,-199.5 1232.38,-199.5 1232.38,-230"/>
<text text-anchor="start" x="1108.88" y="-216.5" font-family="Helvetica,sans-Serif" font-size="10.00">sourcecode/timing/src</text>
<text text-anchor="middle" x="1166.62" y="-205.25" font-family="Helvetica,sans-Serif" font-size="10.00">/PDIHSIEndpointNode.cpp</text>
</a>
</g>
</g>
<!-- Node34&#45;&gt;Node36 -->
<g id="edge52_Node000034_Node000036" class="edge">
<title>Node34&#45;&gt;Node36</title>
<g id="a_edge52_Node000034_Node000036"><a xlink:title=" ">
<path fill="none" stroke="#63b8ff" d="M1067.08,-260.97C1088.71,-251.14 1114.58,-239.39 1134.53,-230.33"/>
<polygon fill="#63b8ff" stroke="#63b8ff" points="1065.88,-257.67 1058.23,-264.99 1068.78,-264.04 1065.88,-257.67"/>
</a>
</g>
</g>
<!-- Node37&#45;&gt;Node7 -->
<g id="edge54_Node000037_Node000007" class="edge">
<title>Node37&#45;&gt;Node7</title>
<g id="a_edge54_Node000037_Node000007"><a xlink:title=" ">
<path fill="none" stroke="#63b8ff" d="M854.62,-254.31C854.62,-246.14 854.62,-237.41 854.62,-230.33"/>
<polygon fill="#63b8ff" stroke="#63b8ff" points="851.13,-254.1 854.63,-264.1 858.13,-254.1 851.13,-254.1"/>
</a>
</g>
</g>
<!-- Node37&#45;&gt;Node36 -->
<g id="edge55_Node000037_Node000036" class="edge">
<title>Node37&#45;&gt;Node36</title>
<g id="a_edge55_Node000037_Node000036"><a xlink:title=" ">
<path fill="none" stroke="#63b8ff" d="M936.83,-263.26C987.94,-252.69 1052.77,-239.29 1100.54,-229.41"/>
<polygon fill="#63b8ff" stroke="#63b8ff" points="936.38,-259.77 927.3,-265.23 937.8,-266.63 936.38,-259.77"/>
</a>
</g>
</g>
</g>
</svg>
