<?xml version="1.0" encoding="UTF-8" standalone="no"?>
<!DOCTYPE svg PUBLIC "-//W3C//DTD SVG 1.1//EN"
 "http://www.w3.org/Graphics/SVG/1.1/DTD/svg11.dtd">
<!-- Generated by graphviz version 9.0.0 (20230911.1827)
 -->
<!-- Title: sourcecode/timing/include/timing/EndpointNode.hpp Pages: 1 -->
<svg width="2275pt" height="459pt"
 viewBox="0.00 0.00 2275.00 459.00" xmlns="http://www.w3.org/2000/svg" xmlns:xlink="http://www.w3.org/1999/xlink">
<g id="graph0" class="graph" transform="scale(1 1) rotate(0) translate(4 455)">
<title>sourcecode/timing/include/timing/EndpointNode.hpp</title>
<!-- Node1 -->
<g id="Node000001" class="node">
<title>Node1</title>
<g id="a_Node000001"><a xlink:title=" ">
<polygon fill="#999999" stroke="#666666" points="1881.62,-451 1752.38,-451 1752.38,-420.5 1881.62,-420.5 1881.62,-451"/>
<text text-anchor="start" x="1760.38" y="-437.5" font-family="Helvetica,sans-Serif" font-size="10.00">sourcecode/timing/include</text>
<text text-anchor="middle" x="1817" y="-426.25" font-family="Helvetica,sans-Serif" font-size="10.00">/timing/EndpointNode.hpp</text>
</a>
</g>
</g>
<!-- Node2 -->
<g id="Node000002" class="node">
<title>Node2</title>
<g id="a_Node000002"><a xlink:href="include_2timing_2TimingIssues_8hpp.html" target="_top" xlink:title=" ">
<polygon fill="white" stroke="#666666" points="1281.25,-318 1188.75,-318 1188.75,-298.75 1281.25,-298.75 1281.25,-318"/>
<text text-anchor="middle" x="1235" y="-304.5" font-family="Helvetica,sans-Serif" font-size="10.00">TimingIssues.hpp</text>
</a>
</g>
</g>
<!-- Node1&#45;&gt;Node2 -->
<g id="edge1_Node000001_Node000002" class="edge">
<title>Node1&#45;&gt;Node2</title>
<g id="a_edge1_Node000001_Node000002"><a xlink:title=" ">
<path fill="none" stroke="#63b8ff" d="M1752.24,-434.94C1629.73,-434.27 1369.37,-427.64 1292,-384.5 1269.37,-371.88 1252.94,-346.16 1243.69,-328.35"/>
<polygon fill="#63b8ff" stroke="#63b8ff" points="1246.95,-327.06 1239.42,-319.6 1240.66,-330.13 1246.95,-327.06"/>
</a>
</g>
</g>
<!-- Node8 -->
<g id="Node000008" class="node">
<title>Node8</title>
<g id="a_Node000008"><a xlink:title=" ">
<polygon fill="#e0e0e0" stroke="#999999" points="1183,-74.5 1143,-74.5 1143,-55.25 1183,-55.25 1183,-74.5"/>
<text text-anchor="middle" x="1163" y="-61" font-family="Helvetica,sans-Serif" font-size="10.00">string</text>
</a>
</g>
</g>
<!-- Node1&#45;&gt;Node8 -->
<g id="edge70_Node000001_Node000008" class="edge">
<title>Node1&#45;&gt;Node8</title>
<g id="a_edge70_Node000001_Node000008"><a xlink:title=" ">
<path fill="none" stroke="#63b8ff" d="M1752.06,-433.74C1427.87,-428.27 0,-399.07 0,-309.38 0,-309.38 0,-309.38 0,-191.25 0,-129.16 55.18,-130.39 114,-110.5 219.53,-74.81 1005.25,-86.59 1116,-74.5 1121.05,-73.95 1126.38,-73.17 1131.56,-72.3"/>
<polygon fill="#63b8ff" stroke="#63b8ff" points="1131.8,-75.81 1141.02,-70.58 1130.55,-68.92 1131.8,-75.81"/>
</a>
</g>
</g>
<!-- Node12 -->
<g id="Node000012" class="node">
<title>Node12</title>
<g id="a_Node000012"><a xlink:title=" ">
<polygon fill="#e0e0e0" stroke="#999999" points="1704.62,-135.38 1659.38,-135.38 1659.38,-116.12 1704.62,-116.12 1704.62,-135.38"/>
<text text-anchor="middle" x="1682" y="-121.88" font-family="Helvetica,sans-Serif" font-size="10.00">chrono</text>
</a>
</g>
</g>
<!-- Node1&#45;&gt;Node12 -->
<g id="edge69_Node000001_Node000012" class="edge">
<title>Node1&#45;&gt;Node12</title>
<g id="a_edge69_Node000001_Node000012"><a xlink:title=" ">
<path fill="none" stroke="#63b8ff" d="M1862.54,-420.05C1908.59,-402 1973,-366.53 1973,-309.38 1973,-309.38 1973,-309.38 1973,-252.12 1973,-198.64 1926.87,-200.84 1879,-177 1825.63,-150.42 1756.91,-137.04 1716.34,-131.01"/>
<polygon fill="#63b8ff" stroke="#63b8ff" points="1716.84,-127.55 1706.45,-129.61 1715.86,-134.48 1716.84,-127.55"/>
</a>
</g>
</g>
<!-- Node29 -->
<g id="Node000029" class="node">
<title>Node29</title>
<g id="a_Node000029"><a xlink:href="FrequencyCounterNode_8hpp.html" target="_top" xlink:title=" ">
<polygon fill="white" stroke="#666666" points="1788.62,-378.88 1623.38,-378.88 1623.38,-359.62 1788.62,-359.62 1788.62,-378.88"/>
<text text-anchor="middle" x="1706" y="-365.38" font-family="Helvetica,sans-Serif" font-size="10.00">timing/FrequencyCounterNode.hpp</text>
</a>
</g>
</g>
<!-- Node1&#45;&gt;Node29 -->
<g id="edge39_Node000001_Node000029" class="edge">
<title>Node1&#45;&gt;Node29</title>
<g id="a_edge39_Node000001_Node000029"><a xlink:title=" ">
<path fill="none" stroke="#63b8ff" d="M1791.81,-420.11C1773.74,-409.61 1749.48,-395.52 1731.37,-384.99"/>
<polygon fill="#63b8ff" stroke="#63b8ff" points="1733.22,-382.02 1722.81,-380.02 1729.7,-388.07 1733.22,-382.02"/>
</a>
</g>
</g>
<!-- Node31 -->
<g id="Node000031" class="node">
<title>Node31</title>
<g id="a_Node000031"><a xlink:title=" ">
<polygon fill="#e0e0e0" stroke="#999999" points="1868.62,-262.75 1757.38,-262.75 1757.38,-243.5 1868.62,-243.5 1868.62,-262.75"/>
<text text-anchor="middle" x="1813" y="-249.25" font-family="Helvetica,sans-Serif" font-size="10.00">uhal/DerivedNode.hpp</text>
</a>
</g>
</g>
<!-- Node1&#45;&gt;Node31 -->
<g id="edge67_Node000001_Node000031" class="edge">
<title>Node1&#45;&gt;Node31</title>
<g id="a_edge67_Node000001_Node000031"><a xlink:title=" ">
<path fill="none" stroke="#63b8ff" d="M1816.68,-420.27C1815.97,-388.22 1814.26,-311.2 1813.45,-274.39"/>
<polygon fill="#63b8ff" stroke="#63b8ff" points="1816.95,-274.61 1813.23,-264.69 1809.96,-274.77 1816.95,-274.61"/>
</a>
</g>
</g>
<!-- Node33 -->
<g id="Node000033" class="node">
<title>Node33</title>
<g id="a_Node000033"><a xlink:title=" ">
<polygon fill="#e0e0e0" stroke="#999999" points="1830.5,-201.88 1733.5,-201.88 1733.5,-182.62 1830.5,-182.62 1830.5,-201.88"/>
<text text-anchor="middle" x="1782" y="-188.38" font-family="Helvetica,sans-Serif" font-size="10.00">nlohmann/json.hpp</text>
</a>
</g>
</g>
<!-- Node1&#45;&gt;Node33 -->
<g id="edge68_Node000001_Node000033" class="edge">
<title>Node1&#45;&gt;Node33</title>
<g id="a_edge68_Node000001_Node000033"><a xlink:title=" ">
<path fill="none" stroke="#63b8ff" d="M1829.26,-420.36C1855.98,-387.15 1914.27,-303.43 1878,-243.5 1867.25,-225.74 1847.93,-213.96 1829.43,-206.29"/>
<polygon fill="#63b8ff" stroke="#63b8ff" points="1830.71,-203.04 1820.12,-202.78 1828.24,-209.59 1830.71,-203.04"/>
</a>
</g>
</g>
<!-- Node38 -->
<g id="Node000038" class="node">
<title>Node38</title>
<g id="a_Node000038"><a xlink:href="EndpointNodeInterface_8hpp.html" target="_top" xlink:title=" ">
<polygon fill="white" stroke="#666666" points="1463.12,-378.88 1300.88,-378.88 1300.88,-359.62 1463.12,-359.62 1463.12,-378.88"/>
<text text-anchor="middle" x="1382" y="-365.38" font-family="Helvetica,sans-Serif" font-size="10.00">timing/EndpointNodeInterface.hpp</text>
</a>
</g>
</g>
<!-- Node1&#45;&gt;Node38 -->
<g id="edge59_Node000001_Node000038" class="edge">
<title>Node1&#45;&gt;Node38</title>
<g id="a_edge59_Node000001_Node000038"><a xlink:title=" ">
<path fill="none" stroke="#63b8ff" d="M1751.88,-425.09C1672.2,-413.28 1537.68,-393.33 1454.7,-381.03"/>
<polygon fill="#63b8ff" stroke="#63b8ff" points="1455.25,-377.57 1444.84,-379.57 1454.22,-384.5 1455.25,-377.57"/>
</a>
</g>
</g>
<!-- Node39 -->
<g id="Node000039" class="node">
<title>Node39</title>
<g id="a_Node000039"><a xlink:title=" ">
<polygon fill="#e0e0e0" stroke="#999999" points="2125,-384.5 2001,-384.5 2001,-354 2125,-354 2125,-384.5"/>
<text text-anchor="start" x="2009" y="-371" font-family="Helvetica,sans-Serif" font-size="10.00">timing/timingendpointinfo</text>
<text text-anchor="middle" x="2063" y="-359.75" font-family="Helvetica,sans-Serif" font-size="10.00">/InfoNljs.hpp</text>
</a>
</g>
</g>
<!-- Node1&#45;&gt;Node39 -->
<g id="edge65_Node000001_Node000039" class="edge">
<title>Node1&#45;&gt;Node39</title>
<g id="a_edge65_Node000001_Node000039"><a xlink:title=" ">
<path fill="none" stroke="#63b8ff" d="M1873.13,-420.03C1909.65,-410.46 1957.48,-397.92 1996,-387.82"/>
<polygon fill="#63b8ff" stroke="#63b8ff" points="1996.86,-391.21 2005.65,-385.29 1995.09,-384.44 1996.86,-391.21"/>
</a>
</g>
</g>
<!-- Node40 -->
<g id="Node000040" class="node">
<title>Node40</title>
<g id="a_Node000040"><a xlink:title=" ">
<polygon fill="#e0e0e0" stroke="#999999" points="2267,-384.5 2143,-384.5 2143,-354 2267,-354 2267,-384.5"/>
<text text-anchor="start" x="2151" y="-371" font-family="Helvetica,sans-Serif" font-size="10.00">timing/timingendpointinfo</text>
<text text-anchor="middle" x="2205" y="-359.75" font-family="Helvetica,sans-Serif" font-size="10.00">/InfoStructs.hpp</text>
</a>
</g>
</g>
<!-- Node1&#45;&gt;Node40 -->
<g id="edge66_Node000001_Node000040" class="edge">
<title>Node1&#45;&gt;Node40</title>
<g id="a_edge66_Node000001_Node000040"><a xlink:title=" ">
<path fill="none" stroke="#63b8ff" d="M1882.09,-425.23C1943.76,-416.02 2039.25,-401.31 2131.46,-384.91"/>
<polygon fill="#63b8ff" stroke="#63b8ff" points="2131.97,-388.38 2141.2,-383.17 2130.74,-381.49 2131.97,-388.38"/>
</a>
</g>
</g>
<!-- Node3 -->
<g id="Node000003" class="node">
<title>Node3</title>
<g id="a_Node000003"><a xlink:href="Issue_8hpp.html" target="_top" xlink:title=" ">
<polygon fill="white" stroke="#666666" points="1003.25,-262.75 928.75,-262.75 928.75,-243.5 1003.25,-243.5 1003.25,-262.75"/>
<text text-anchor="middle" x="966" y="-249.25" font-family="Helvetica,sans-Serif" font-size="10.00">ers/Issue.hpp</text>
</a>
</g>
</g>
<!-- Node2&#45;&gt;Node3 -->
<g id="edge2_Node000002_Node000003" class="edge">
<title>Node2&#45;&gt;Node3</title>
<g id="a_edge2_Node000002_Node000003"><a xlink:title=" ">
<path fill="none" stroke="#63b8ff" d="M1189.06,-298.28C1140.48,-288.66 1064.14,-273.55 1014.57,-263.74"/>
<polygon fill="#63b8ff" stroke="#63b8ff" points="1015.48,-260.35 1004.99,-261.84 1014.12,-267.22 1015.48,-260.35"/>
</a>
</g>
</g>
<!-- Node2&#45;&gt;Node8 -->
<g id="edge38_Node000002_Node000008" class="edge">
<title>Node2&#45;&gt;Node8</title>
<g id="a_edge38_Node000002_Node000008"><a xlink:title=" ">
<path fill="none" stroke="#63b8ff" d="M1188.43,-304.06C987.18,-289.25 199.35,-226.13 133,-141 124.67,-130.31 123.59,-120.26 133,-110.5 170.93,-71.16 1061.68,-80.45 1116,-74.5 1121.05,-73.95 1126.38,-73.16 1131.56,-72.29"/>
<polygon fill="#63b8ff" stroke="#63b8ff" points="1131.8,-75.81 1141.02,-70.57 1130.55,-68.92 1131.8,-75.81"/>
</a>
</g>
</g>
<!-- Node4 -->
<g id="Node000004" class="node">
<title>Node4</title>
<g id="a_Node000004"><a xlink:title=" ">
<polygon fill="#e0e0e0" stroke="#999999" points="724.62,-201.88 679.38,-201.88 679.38,-182.62 724.62,-182.62 724.62,-201.88"/>
<text text-anchor="middle" x="702" y="-188.38" font-family="Helvetica,sans-Serif" font-size="10.00">math.h</text>
</a>
</g>
</g>
<!-- Node3&#45;&gt;Node4 -->
<g id="edge3_Node000003_Node000004" class="edge">
<title>Node3&#45;&gt;Node4</title>
<g id="a_edge3_Node000003_Node000004"><a xlink:title=" ">
<path fill="none" stroke="#63b8ff" d="M928.38,-247.59C881.95,-241.37 800.91,-228.53 734,-207.5 733.01,-207.19 732.01,-206.86 731.01,-206.51"/>
<polygon fill="#63b8ff" stroke="#63b8ff" points="732.33,-203.26 721.74,-202.83 729.75,-209.77 732.33,-203.26"/>
</a>
</g>
</g>
<!-- Node5 -->
<g id="Node000005" class="node">
<title>Node5</title>
<g id="a_Node000005"><a xlink:title=" ">
<polygon fill="#e0e0e0" stroke="#999999" points="787.25,-201.88 742.75,-201.88 742.75,-182.62 787.25,-182.62 787.25,-201.88"/>
<text text-anchor="middle" x="765" y="-188.38" font-family="Helvetica,sans-Serif" font-size="10.00">stdio.h</text>
</a>
</g>
</g>
<!-- Node3&#45;&gt;Node5 -->
<g id="edge4_Node000003_Node000005" class="edge">
<title>Node3&#45;&gt;Node5</title>
<g id="a_edge4_Node000003_Node000005"><a xlink:title=" ">
<path fill="none" stroke="#63b8ff" d="M928.29,-244.21C893.46,-236.44 840.53,-223.44 796,-207.5 795.21,-207.22 794.4,-206.92 793.6,-206.61"/>
<polygon fill="#63b8ff" stroke="#63b8ff" points="795.11,-203.45 784.54,-202.81 792.4,-209.91 795.11,-203.45"/>
</a>
</g>
</g>
<!-- Node6 -->
<g id="Node000006" class="node">
<title>Node6</title>
<g id="a_Node000006"><a xlink:title=" ">
<polygon fill="#e0e0e0" stroke="#999999" points="852.75,-201.88 805.25,-201.88 805.25,-182.62 852.75,-182.62 852.75,-201.88"/>
<text text-anchor="middle" x="829" y="-188.38" font-family="Helvetica,sans-Serif" font-size="10.00">string.h</text>
</a>
</g>
</g>
<!-- Node3&#45;&gt;Node6 -->
<g id="edge5_Node000003_Node000006" class="edge">
<title>Node3&#45;&gt;Node6</title>
<g id="a_edge5_Node000003_Node000006"><a xlink:title=" ">
<path fill="none" stroke="#63b8ff" d="M944.88,-243.08C923.86,-234.07 890.69,-219.85 862,-207.5 861.39,-207.24 860.78,-206.97 860.16,-206.71"/>
<polygon fill="#63b8ff" stroke="#63b8ff" points="861.9,-203.65 851.34,-202.9 859.13,-210.08 861.9,-203.65"/>
</a>
</g>
</g>
<!-- Node7 -->
<g id="Node000007" class="node">
<title>Node7</title>
<g id="a_Node000007"><a xlink:title=" ">
<polygon fill="#e0e0e0" stroke="#999999" points="1169.38,-135.38 1134.62,-135.38 1134.62,-116.12 1169.38,-116.12 1169.38,-135.38"/>
<text text-anchor="middle" x="1152" y="-121.88" font-family="Helvetica,sans-Serif" font-size="10.00">map</text>
</a>
</g>
</g>
<!-- Node3&#45;&gt;Node7 -->
<g id="edge6_Node000003_Node000007" class="edge">
<title>Node3&#45;&gt;Node7</title>
<g id="a_edge6_Node000003_Node000007"><a xlink:title=" ">
<path fill="none" stroke="#63b8ff" d="M1003.72,-245.75C1031.41,-239.6 1068.78,-228.08 1096,-207.5 1117.53,-191.21 1133.84,-164.21 1143.16,-145.96"/>
<polygon fill="#63b8ff" stroke="#63b8ff" points="1146.28,-147.55 1147.49,-137.02 1139.98,-144.5 1146.28,-147.55"/>
</a>
</g>
</g>
<!-- Node3&#45;&gt;Node8 -->
<g id="edge7_Node000003_Node000008" class="edge">
<title>Node3&#45;&gt;Node8</title>
<g id="a_edge7_Node000003_Node000008"><a xlink:title=" ">
<path fill="none" stroke="#63b8ff" d="M971.42,-243.38C981.01,-228.4 1002.23,-197.49 1026,-177 1050.13,-156.19 1062.75,-160.44 1088,-141 1110.7,-123.52 1133.5,-99.56 1147.89,-83.44"/>
<polygon fill="#63b8ff" stroke="#63b8ff" points="1150.37,-85.92 1154.34,-76.1 1145.11,-81.31 1150.37,-85.92"/>
</a>
</g>
</g>
<!-- Node9 -->
<g id="Node000009" class="node">
<title>Node9</title>
<g id="a_Node000009"><a xlink:title=" ">
<polygon fill="#e0e0e0" stroke="#999999" points="1233.75,-19.25 1180.25,-19.25 1180.25,0 1233.75,0 1233.75,-19.25"/>
<text text-anchor="middle" x="1207" y="-5.75" font-family="Helvetica,sans-Serif" font-size="10.00">iostream</text>
</a>
</g>
</g>
<!-- Node3&#45;&gt;Node9 -->
<g id="edge8_Node000003_Node000009" class="edge">
<title>Node3&#45;&gt;Node9</title>
<g id="a_edge8_Node000003_Node000009"><a xlink:title=" ">
<path fill="none" stroke="#63b8ff" d="M928.31,-251.78C751.98,-249.5 21.65,-232.68 133,-110.5 204.17,-32.41 984.52,-14.38 1168.37,-11.21"/>
<polygon fill="#63b8ff" stroke="#63b8ff" points="1168.39,-14.71 1178.33,-11.04 1168.27,-7.71 1168.39,-14.71"/>
</a>
</g>
</g>
<!-- Node10 -->
<g id="Node000010" class="node">
<title>Node10</title>
<g id="a_Node000010"><a xlink:title=" ">
<polygon fill="#e0e0e0" stroke="#999999" points="1086.62,-201.88 1035.38,-201.88 1035.38,-182.62 1086.62,-182.62 1086.62,-201.88"/>
<text text-anchor="middle" x="1061" y="-188.38" font-family="Helvetica,sans-Serif" font-size="10.00">sstream</text>
</a>
</g>
</g>
<!-- Node3&#45;&gt;Node10 -->
<g id="edge9_Node000003_Node000010" class="edge">
<title>Node3&#45;&gt;Node10</title>
<g id="a_edge9_Node000003_Node000010"><a xlink:title=" ">
<path fill="none" stroke="#63b8ff" d="M980.43,-243.18C995.35,-233.93 1018.93,-219.32 1036.73,-208.29"/>
<polygon fill="#63b8ff" stroke="#63b8ff" points="1038.49,-211.32 1045.15,-203.07 1034.81,-205.37 1038.49,-211.32"/>
</a>
</g>
</g>
<!-- Node11 -->
<g id="Node000011" class="node">
<title>Node11</title>
<g id="a_Node000011"><a xlink:title=" ">
<polygon fill="#e0e0e0" stroke="#999999" points="614.25,-201.88 563.75,-201.88 563.75,-182.62 614.25,-182.62 614.25,-201.88"/>
<text text-anchor="middle" x="589" y="-188.38" font-family="Helvetica,sans-Serif" font-size="10.00">memory</text>
</a>
</g>
</g>
<!-- Node3&#45;&gt;Node11 -->
<g id="edge10_Node000003_Node000011" class="edge">
<title>Node3&#45;&gt;Node11</title>
<g id="a_edge10_Node000003_Node000011"><a xlink:title=" ">
<path fill="none" stroke="#63b8ff" d="M928.45,-250.38C864.85,-246.72 732.26,-236.09 624,-207.5 622.41,-207.08 620.8,-206.61 619.19,-206.1"/>
<polygon fill="#63b8ff" stroke="#63b8ff" points="620.7,-202.92 610.11,-202.81 618.32,-209.5 620.7,-202.92"/>
</a>
</g>
</g>
<!-- Node3&#45;&gt;Node12 -->
<g id="edge11_Node000003_Node000012" class="edge">
<title>Node3&#45;&gt;Node12</title>
<g id="a_edge11_Node000003_Node000012"><a xlink:title=" ">
<path fill="none" stroke="#63b8ff" d="M1003.5,-252.11C1073.76,-251.14 1229.38,-244.56 1354,-207.5 1383.05,-198.86 1386.27,-186.67 1415,-177 1496.08,-149.7 1596.29,-135.86 1647.83,-130.11"/>
<polygon fill="#63b8ff" stroke="#63b8ff" points="1647.88,-133.62 1657.45,-129.07 1647.13,-126.67 1647.88,-133.62"/>
</a>
</g>
</g>
<!-- Node13 -->
<g id="Node000013" class="node">
<title>Node13</title>
<g id="a_Node000013"><a xlink:title=" ">
<polygon fill="#e0e0e0" stroke="#999999" points="661.4,-201.88 632.6,-201.88 632.6,-182.62 661.4,-182.62 661.4,-201.88"/>
<text text-anchor="middle" x="647" y="-188.38" font-family="Helvetica,sans-Serif" font-size="10.00">list</text>
</a>
</g>
</g>
<!-- Node3&#45;&gt;Node13 -->
<g id="edge12_Node000003_Node000013" class="edge">
<title>Node3&#45;&gt;Node13</title>
<g id="a_edge12_Node000003_Node000013"><a xlink:title=" ">
<path fill="none" stroke="#63b8ff" d="M928.35,-251.27C870.93,-248.92 758.78,-240.12 670,-207.5 669.89,-207.46 669.78,-207.42 669.67,-207.38"/>
<polygon fill="#63b8ff" stroke="#63b8ff" points="671.52,-204.39 661.02,-203.04 668.39,-210.65 671.52,-204.39"/>
</a>
</g>
</g>
<!-- Node14 -->
<g id="Node000014" class="node">
<title>Node14</title>
<g id="a_Node000014"><a xlink:href="IssueFactory_8hpp.html" target="_top" xlink:title=" ">
<polygon fill="white" stroke="#666666" points="1325.38,-201.88 1218.62,-201.88 1218.62,-182.62 1325.38,-182.62 1325.38,-201.88"/>
<text text-anchor="middle" x="1272" y="-188.38" font-family="Helvetica,sans-Serif" font-size="10.00">ers/IssueFactory.hpp</text>
</a>
</g>
</g>
<!-- Node3&#45;&gt;Node14 -->
<g id="edge13_Node000003_Node000014" class="edge">
<title>Node3&#45;&gt;Node14</title>
<g id="a_edge13_Node000003_Node000014"><a xlink:title=" ">
<path fill="none" stroke="#63b8ff" d="M1003.52,-244.91C1055.96,-234.82 1151.65,-216.41 1213.49,-204.51"/>
<polygon fill="#63b8ff" stroke="#63b8ff" points="1213.98,-207.98 1223.14,-202.65 1212.66,-201.1 1213.98,-207.98"/>
</a>
</g>
</g>
<!-- Node16 -->
<g id="Node000016" class="node">
<title>Node16</title>
<g id="a_Node000016"><a xlink:href="Severity_8hpp.html" target="_top" xlink:title=" ">
<polygon fill="white" stroke="#666666" points="1386.88,-135.38 1301.12,-135.38 1301.12,-116.12 1386.88,-116.12 1386.88,-135.38"/>
<text text-anchor="middle" x="1344" y="-121.88" font-family="Helvetica,sans-Serif" font-size="10.00">ers/Severity.hpp</text>
</a>
</g>
</g>
<!-- Node3&#45;&gt;Node16 -->
<g id="edge30_Node000003_Node000016" class="edge">
<title>Node3&#45;&gt;Node16</title>
<g id="a_edge30_Node000003_Node000016"><a xlink:title=" ">
<path fill="none" stroke="#63b8ff" d="M1003.49,-250.16C1092.49,-245.15 1310.85,-230.59 1334,-207.5 1349.6,-191.94 1349.9,-165.36 1347.76,-146.96"/>
<polygon fill="#63b8ff" stroke="#63b8ff" points="1351.25,-146.62 1346.27,-137.27 1344.33,-147.69 1351.25,-146.62"/>
</a>
</g>
</g>
<!-- Node17 -->
<g id="Node000017" class="node">
<title>Node17</title>
<g id="a_Node000017"><a xlink:href="LocalContext_8hpp.html" target="_top" xlink:title=" ">
<polygon fill="white" stroke="#666666" points="978.75,-201.88 871.25,-201.88 871.25,-182.62 978.75,-182.62 978.75,-201.88"/>
<text text-anchor="middle" x="925" y="-188.38" font-family="Helvetica,sans-Serif" font-size="10.00">ers/LocalContext.hpp</text>
</a>
</g>
</g>
<!-- Node3&#45;&gt;Node17 -->
<g id="edge22_Node000003_Node000017" class="edge">
<title>Node3&#45;&gt;Node17</title>
<g id="a_edge22_Node000003_Node000017"><a xlink:title=" ">
<path fill="none" stroke="#63b8ff" d="M959.77,-243.18C953.93,-234.8 945.03,-222.01 937.69,-211.47"/>
<polygon fill="#63b8ff" stroke="#63b8ff" points="940.74,-209.72 932.15,-203.52 934.99,-213.72 940.74,-209.72"/>
</a>
</g>
</g>
<!-- Node22 -->
<g id="Node000022" class="node">
<title>Node22</title>
<g id="a_Node000022"><a xlink:href="IssueDeclarationMacro_8hpp.html" target="_top" xlink:title=" ">
<polygon fill="white" stroke="#666666" points="545.88,-207.5 406.12,-207.5 406.12,-177 545.88,-177 545.88,-207.5"/>
<text text-anchor="start" x="414.12" y="-194" font-family="Helvetica,sans-Serif" font-size="10.00">ers/internal/IssueDeclaration</text>
<text text-anchor="middle" x="476" y="-182.75" font-family="Helvetica,sans-Serif" font-size="10.00">Macro.hpp</text>
</a>
</g>
</g>
<!-- Node3&#45;&gt;Node22 -->
<g id="edge31_Node000003_Node000022" class="edge">
<title>Node3&#45;&gt;Node22</title>
<g id="a_edge31_Node000003_Node000022"><a xlink:title=" ">
<path fill="none" stroke="#63b8ff" d="M928.49,-248.94C857.92,-242.76 700.37,-228.06 557.32,-207.77"/>
<polygon fill="#63b8ff" stroke="#63b8ff" points="558.06,-204.34 547.67,-206.39 557.07,-211.27 558.06,-204.34"/>
</a>
</g>
</g>
<!-- Node14&#45;&gt;Node7 -->
<g id="edge17_Node000014_Node000007" class="edge">
<title>Node14&#45;&gt;Node7</title>
<g id="a_edge17_Node000014_Node000007"><a xlink:title=" ">
<path fill="none" stroke="#63b8ff" d="M1255.06,-182.15C1235.23,-171.49 1202.13,-153.69 1178.8,-141.16"/>
<polygon fill="#63b8ff" stroke="#63b8ff" points="1180.65,-138.18 1170.19,-136.52 1177.34,-144.34 1180.65,-138.18"/>
</a>
</g>
</g>
<!-- Node14&#45;&gt;Node8 -->
<g id="edge15_Node000014_Node000008" class="edge">
<title>Node14&#45;&gt;Node8</title>
<g id="a_edge15_Node000014_Node000008"><a xlink:title=" ">
<path fill="none" stroke="#63b8ff" d="M1266.06,-182.37C1255.66,-167.07 1233.14,-135.02 1211,-110.5 1202.08,-100.62 1191.29,-90.45 1182.2,-82.32"/>
<polygon fill="#63b8ff" stroke="#63b8ff" points="1184.77,-79.92 1174.94,-75.95 1180.15,-85.18 1184.77,-79.92"/>
</a>
</g>
</g>
<!-- Node14&#45;&gt;Node12 -->
<g id="edge14_Node000014_Node000012" class="edge">
<title>Node14&#45;&gt;Node12</title>
<g id="a_edge14_Node000014_Node000012"><a xlink:title=" ">
<path fill="none" stroke="#63b8ff" d="M1325.6,-182.82C1411.34,-169.33 1576.92,-143.28 1648.11,-132.08"/>
<polygon fill="#63b8ff" stroke="#63b8ff" points="1648.26,-135.6 1657.6,-130.59 1647.17,-128.69 1648.26,-135.6"/>
</a>
</g>
</g>
<!-- Node15 -->
<g id="Node000015" class="node">
<title>Node15</title>
<g id="a_Node000015"><a xlink:title=" ">
<polygon fill="#e0e0e0" stroke="#999999" points="1300.5,-74.5 1257.5,-74.5 1257.5,-55.25 1300.5,-55.25 1300.5,-74.5"/>
<text text-anchor="middle" x="1279" y="-61" font-family="Helvetica,sans-Serif" font-size="10.00">vector</text>
</a>
</g>
</g>
<!-- Node14&#45;&gt;Node15 -->
<g id="edge16_Node000014_Node000015" class="edge">
<title>Node14&#45;&gt;Node15</title>
<g id="a_edge16_Node000014_Node000015"><a xlink:title=" ">
<path fill="none" stroke="#63b8ff" d="M1272.5,-182.23C1273.62,-162.26 1276.32,-113.89 1277.86,-86.21"/>
<polygon fill="#63b8ff" stroke="#63b8ff" points="1281.35,-86.5 1278.42,-76.32 1274.36,-86.11 1281.35,-86.5"/>
</a>
</g>
</g>
<!-- Node14&#45;&gt;Node16 -->
<g id="edge18_Node000014_Node000016" class="edge">
<title>Node14&#45;&gt;Node16</title>
<g id="a_edge18_Node000014_Node000016"><a xlink:title=" ">
<path fill="none" stroke="#63b8ff" d="M1282.01,-182.28C1293.3,-172.17 1311.87,-155.53 1325.75,-143.1"/>
<polygon fill="#63b8ff" stroke="#63b8ff" points="1327.83,-145.93 1332.95,-136.65 1323.16,-140.72 1327.83,-145.93"/>
</a>
</g>
</g>
<!-- Node16&#45;&gt;Node8 -->
<g id="edge19_Node000016_Node000008" class="edge">
<title>Node16&#45;&gt;Node8</title>
<g id="a_edge19_Node000016_Node000008"><a xlink:title=" ">
<path fill="none" stroke="#63b8ff" d="M1316.12,-115.68C1283.15,-104.96 1228.45,-87.16 1194.13,-76"/>
<polygon fill="#63b8ff" stroke="#63b8ff" points="1195.36,-72.72 1184.77,-72.96 1193.2,-79.38 1195.36,-72.72"/>
</a>
</g>
</g>
<!-- Node16&#45;&gt;Node9 -->
<g id="edge21_Node000016_Node000009" class="edge">
<title>Node16&#45;&gt;Node9</title>
<g id="a_edge21_Node000016_Node000009"><a xlink:title=" ">
<path fill="none" stroke="#63b8ff" d="M1341.82,-115.87C1337.83,-101.37 1328.07,-72.5 1310,-55.25 1291.96,-38.02 1266.21,-26.87 1244.97,-20.02"/>
<polygon fill="#63b8ff" stroke="#63b8ff" points="1246.06,-16.69 1235.48,-17.17 1244.05,-23.4 1246.06,-16.69"/>
</a>
</g>
</g>
<!-- Node16&#45;&gt;Node15 -->
<g id="edge20_Node000016_Node000015" class="edge">
<title>Node16&#45;&gt;Node15</title>
<g id="a_edge20_Node000016_Node000015"><a xlink:title=" ">
<path fill="none" stroke="#63b8ff" d="M1334.13,-115.81C1324.39,-106.99 1309.28,-93.3 1297.34,-82.48"/>
<polygon fill="#63b8ff" stroke="#63b8ff" points="1299.85,-80.04 1290.09,-75.92 1295.15,-85.22 1299.85,-80.04"/>
</a>
</g>
</g>
<!-- Node18 -->
<g id="Node000018" class="node">
<title>Node18</title>
<g id="a_Node000018"><a xlink:title=" ">
<polygon fill="#e0e0e0" stroke="#999999" points="977.38,-135.38 912.62,-135.38 912.62,-116.12 977.38,-116.12 977.38,-135.38"/>
<text text-anchor="middle" x="945" y="-121.88" font-family="Helvetica,sans-Serif" font-size="10.00">sys/types.h</text>
</a>
</g>
</g>
<!-- Node17&#45;&gt;Node18 -->
<g id="edge23_Node000017_Node000018" class="edge">
<title>Node17&#45;&gt;Node18</title>
<g id="a_edge23_Node000017_Node000018"><a xlink:title=" ">
<path fill="none" stroke="#63b8ff" d="M927.78,-182.28C930.65,-173.04 935.21,-158.33 938.91,-146.38"/>
<polygon fill="#63b8ff" stroke="#63b8ff" points="942.18,-147.68 941.79,-137.09 935.49,-145.6 942.18,-147.68"/>
</a>
</g>
</g>
<!-- Node19 -->
<g id="Node000019" class="node">
<title>Node19</title>
<g id="a_Node000019"><a xlink:title=" ">
<polygon fill="#e0e0e0" stroke="#999999" points="894.88,-135.38 845.12,-135.38 845.12,-116.12 894.88,-116.12 894.88,-135.38"/>
<text text-anchor="middle" x="870" y="-121.88" font-family="Helvetica,sans-Serif" font-size="10.00">unistd.h</text>
</a>
</g>
</g>
<!-- Node17&#45;&gt;Node19 -->
<g id="edge24_Node000017_Node000019" class="edge">
<title>Node17&#45;&gt;Node19</title>
<g id="a_edge24_Node000017_Node000019"><a xlink:title=" ">
<path fill="none" stroke="#63b8ff" d="M917.35,-182.28C908.98,-172.46 895.35,-156.48 884.86,-144.17"/>
<polygon fill="#63b8ff" stroke="#63b8ff" points="887.72,-142.13 878.56,-136.79 882.39,-146.67 887.72,-142.13"/>
</a>
</g>
</g>
<!-- Node20 -->
<g id="Node000020" class="node">
<title>Node20</title>
<g id="a_Node000020"><a xlink:href="Context_8hpp.html" target="_top" xlink:title=" ">
<polygon fill="white" stroke="#666666" points="1078.75,-135.38 995.25,-135.38 995.25,-116.12 1078.75,-116.12 1078.75,-135.38"/>
<text text-anchor="middle" x="1037" y="-121.88" font-family="Helvetica,sans-Serif" font-size="10.00">ers/Context.hpp</text>
</a>
</g>
</g>
<!-- Node17&#45;&gt;Node20 -->
<g id="edge25_Node000017_Node000020" class="edge">
<title>Node17&#45;&gt;Node20</title>
<g id="a_edge25_Node000017_Node000020"><a xlink:title=" ">
<path fill="none" stroke="#63b8ff" d="M940.57,-182.28C958.86,-171.75 989.46,-154.13 1011.28,-141.56"/>
<polygon fill="#63b8ff" stroke="#63b8ff" points="1012.97,-144.63 1019.89,-136.61 1009.47,-138.56 1012.97,-144.63"/>
</a>
</g>
</g>
<!-- Node20&#45;&gt;Node8 -->
<g id="edge26_Node000020_Node000008" class="edge">
<title>Node20&#45;&gt;Node8</title>
<g id="a_edge26_Node000020_Node000008"><a xlink:title=" ">
<path fill="none" stroke="#63b8ff" d="M1056.41,-115.68C1077,-106.06 1109.78,-90.74 1133.56,-79.63"/>
<polygon fill="#63b8ff" stroke="#63b8ff" points="1134.82,-82.9 1142.4,-75.5 1131.86,-76.56 1134.82,-82.9"/>
</a>
</g>
</g>
<!-- Node20&#45;&gt;Node15 -->
<g id="edge27_Node000020_Node000015" class="edge">
<title>Node20&#45;&gt;Node15</title>
<g id="a_edge27_Node000020_Node000015"><a xlink:title=" ">
<path fill="none" stroke="#63b8ff" d="M1074.28,-115.68C1121.26,-104.25 1201.27,-84.79 1246.08,-73.88"/>
<polygon fill="#63b8ff" stroke="#63b8ff" points="1246.85,-77.3 1255.74,-71.53 1245.19,-70.5 1246.85,-77.3"/>
</a>
</g>
</g>
<!-- Node21 -->
<g id="Node000021" class="node">
<title>Node21</title>
<g id="a_Node000021"><a xlink:href="ers_2include_2ers_2Configuration_8hpp.html" target="_top" xlink:title=" ">
<polygon fill="white" stroke="#666666" points="1107.38,-74.5 1000.62,-74.5 1000.62,-55.25 1107.38,-55.25 1107.38,-74.5"/>
<text text-anchor="middle" x="1054" y="-61" font-family="Helvetica,sans-Serif" font-size="10.00">ers/Configuration.hpp</text>
</a>
</g>
</g>
<!-- Node20&#45;&gt;Node21 -->
<g id="edge28_Node000020_Node000021" class="edge">
<title>Node20&#45;&gt;Node21</title>
<g id="a_edge28_Node000020_Node000021"><a xlink:title=" ">
<path fill="none" stroke="#63b8ff" d="M1039.58,-115.81C1041.88,-107.85 1045.32,-95.94 1048.26,-85.74"/>
<polygon fill="#63b8ff" stroke="#63b8ff" points="1051.56,-86.93 1050.97,-76.36 1044.84,-84.99 1051.56,-86.93"/>
</a>
</g>
</g>
<!-- Node21&#45;&gt;Node9 -->
<g id="edge29_Node000021_Node000009" class="edge">
<title>Node21&#45;&gt;Node9</title>
<g id="a_edge29_Node000021_Node000009"><a xlink:title=" ">
<path fill="none" stroke="#63b8ff" d="M1079.95,-54.84C1104.79,-46.2 1142.5,-33.07 1170.38,-23.37"/>
<polygon fill="#63b8ff" stroke="#63b8ff" points="1171.19,-26.79 1179.49,-20.2 1168.89,-20.18 1171.19,-26.79"/>
</a>
</g>
</g>
<!-- Node23 -->
<g id="Node000023" class="node">
<title>Node23</title>
<g id="a_Node000023"><a xlink:title=" ">
<polygon fill="#e0e0e0" stroke="#999999" points="358.62,-141 259.38,-141 259.38,-110.5 358.62,-110.5 358.62,-141"/>
<text text-anchor="start" x="267.38" y="-127.5" font-family="Helvetica,sans-Serif" font-size="10.00">boost/preprocessor</text>
<text text-anchor="middle" x="309" y="-116.25" font-family="Helvetica,sans-Serif" font-size="10.00">/if.hpp</text>
</a>
</g>
</g>
<!-- Node22&#45;&gt;Node23 -->
<g id="edge32_Node000022_Node000023" class="edge">
<title>Node22&#45;&gt;Node23</title>
<g id="a_edge32_Node000022_Node000023"><a xlink:title=" ">
<path fill="none" stroke="#63b8ff" d="M438.11,-176.61C414.28,-167.41 383.3,-155.45 357.66,-145.54"/>
<polygon fill="#63b8ff" stroke="#63b8ff" points="359.03,-142.32 348.45,-141.98 356.51,-148.85 359.03,-142.32"/>
</a>
</g>
</g>
<!-- Node24 -->
<g id="Node000024" class="node">
<title>Node24</title>
<g id="a_Node000024"><a xlink:title=" ">
<polygon fill="#e0e0e0" stroke="#999999" points="475.62,-141 376.38,-141 376.38,-110.5 475.62,-110.5 475.62,-141"/>
<text text-anchor="start" x="384.38" y="-127.5" font-family="Helvetica,sans-Serif" font-size="10.00">boost/preprocessor</text>
<text text-anchor="middle" x="426" y="-116.25" font-family="Helvetica,sans-Serif" font-size="10.00">/seq.hpp</text>
</a>
</g>
</g>
<!-- Node22&#45;&gt;Node24 -->
<g id="edge33_Node000022_Node000024" class="edge">
<title>Node22&#45;&gt;Node24</title>
<g id="a_edge33_Node000022_Node000024"><a xlink:title=" ">
<path fill="none" stroke="#63b8ff" d="M464.65,-176.61C458.64,-168.86 451.12,-159.15 444.31,-150.36"/>
<polygon fill="#63b8ff" stroke="#63b8ff" points="447.12,-148.28 438.23,-142.52 441.59,-152.57 447.12,-148.28"/>
</a>
</g>
</g>
<!-- Node25 -->
<g id="Node000025" class="node">
<title>Node25</title>
<g id="a_Node000025"><a xlink:title=" ">
<polygon fill="#e0e0e0" stroke="#999999" points="592.62,-141 493.38,-141 493.38,-110.5 592.62,-110.5 592.62,-141"/>
<text text-anchor="start" x="501.38" y="-127.5" font-family="Helvetica,sans-Serif" font-size="10.00">boost/preprocessor</text>
<text text-anchor="middle" x="543" y="-116.25" font-family="Helvetica,sans-Serif" font-size="10.00">/tuple.hpp</text>
</a>
</g>
</g>
<!-- Node22&#45;&gt;Node25 -->
<g id="edge34_Node000022_Node000025" class="edge">
<title>Node22&#45;&gt;Node25</title>
<g id="a_edge34_Node000022_Node000025"><a xlink:title=" ">
<path fill="none" stroke="#63b8ff" d="M491.2,-176.61C499.6,-168.53 510.2,-158.32 519.63,-149.25"/>
<polygon fill="#63b8ff" stroke="#63b8ff" points="521.99,-151.83 526.77,-142.38 517.13,-146.79 521.99,-151.83"/>
</a>
</g>
</g>
<!-- Node26 -->
<g id="Node000026" class="node">
<title>Node26</title>
<g id="a_Node000026"><a xlink:title=" ">
<polygon fill="#e0e0e0" stroke="#999999" points="709.62,-141 610.38,-141 610.38,-110.5 709.62,-110.5 709.62,-141"/>
<text text-anchor="start" x="618.38" y="-127.5" font-family="Helvetica,sans-Serif" font-size="10.00">boost/preprocessor</text>
<text text-anchor="middle" x="660" y="-116.25" font-family="Helvetica,sans-Serif" font-size="10.00">/logical.hpp</text>
</a>
</g>
</g>
<!-- Node22&#45;&gt;Node26 -->
<g id="edge35_Node000022_Node000026" class="edge">
<title>Node22&#45;&gt;Node26</title>
<g id="a_edge35_Node000022_Node000026"><a xlink:title=" ">
<path fill="none" stroke="#63b8ff" d="M517.75,-176.61C544.36,-167.29 579.06,-155.12 607.52,-145.15"/>
<polygon fill="#63b8ff" stroke="#63b8ff" points="608.39,-148.55 616.67,-141.94 606.07,-141.95 608.39,-148.55"/>
</a>
</g>
</g>
<!-- Node27 -->
<g id="Node000027" class="node">
<title>Node27</title>
<g id="a_Node000027"><a xlink:title=" ">
<polygon fill="#e0e0e0" stroke="#999999" points="826.62,-141 727.38,-141 727.38,-110.5 826.62,-110.5 826.62,-141"/>
<text text-anchor="start" x="735.38" y="-127.5" font-family="Helvetica,sans-Serif" font-size="10.00">boost/preprocessor</text>
<text text-anchor="middle" x="777" y="-116.25" font-family="Helvetica,sans-Serif" font-size="10.00">/stringize.hpp</text>
</a>
</g>
</g>
<!-- Node22&#45;&gt;Node27 -->
<g id="edge36_Node000022_Node000027" class="edge">
<title>Node22&#45;&gt;Node27</title>
<g id="a_edge36_Node000022_Node000027"><a xlink:title=" ">
<path fill="none" stroke="#63b8ff" d="M546.33,-177.42C592.18,-168.24 653.58,-155.64 715.82,-141.68"/>
<polygon fill="#63b8ff" stroke="#63b8ff" points="716.58,-145.1 725.56,-139.48 715.04,-138.27 716.58,-145.1"/>
</a>
</g>
</g>
<!-- Node28 -->
<g id="Node000028" class="node">
<title>Node28</title>
<g id="a_Node000028"><a xlink:title=" ">
<polygon fill="#e0e0e0" stroke="#999999" points="241.62,-141 142.38,-141 142.38,-110.5 241.62,-110.5 241.62,-141"/>
<text text-anchor="start" x="150.38" y="-127.5" font-family="Helvetica,sans-Serif" font-size="10.00">boost/preprocessor</text>
<text text-anchor="middle" x="192" y="-116.25" font-family="Helvetica,sans-Serif" font-size="10.00">/comparison.hpp</text>
</a>
</g>
</g>
<!-- Node22&#45;&gt;Node28 -->
<g id="edge37_Node000022_Node000028" class="edge">
<title>Node22&#45;&gt;Node28</title>
<g id="a_edge37_Node000022_Node000028"><a xlink:title=" ">
<path fill="none" stroke="#63b8ff" d="M408.17,-176.58C365.96,-167.35 310.27,-155.01 253.05,-141.69"/>
<polygon fill="#63b8ff" stroke="#63b8ff" points="253.98,-138.31 243.44,-139.45 252.39,-145.13 253.98,-138.31"/>
</a>
</g>
</g>
<!-- Node29&#45;&gt;Node2 -->
<g id="edge40_Node000029_Node000002" class="edge">
<title>Node29&#45;&gt;Node2</title>
<g id="a_edge40_Node000029_Node000002"><a xlink:title=" ">
<path fill="none" stroke="#63b8ff" d="M1633.18,-359.15C1539.49,-347.44 1378.63,-327.33 1292.85,-316.61"/>
<polygon fill="#63b8ff" stroke="#63b8ff" points="1293.37,-313.14 1283.01,-315.38 1292.5,-320.09 1293.37,-313.14"/>
</a>
</g>
</g>
<!-- Node29&#45;&gt;Node8 -->
<g id="edge56_Node000029_Node000008" class="edge">
<title>Node29&#45;&gt;Node8</title>
<g id="a_edge56_Node000029_Node000008"><a xlink:title=" ">
<path fill="none" stroke="#63b8ff" d="M1685.43,-359.22C1650.09,-343.1 1576.58,-306.91 1524,-262.75 1456.3,-205.9 1472.25,-155.23 1396,-110.5 1362.24,-90.7 1250.19,-75.7 1194.7,-69.29"/>
<polygon fill="#63b8ff" stroke="#63b8ff" points="1195.28,-65.84 1184.95,-68.19 1194.5,-72.79 1195.28,-65.84"/>
</a>
</g>
</g>
<!-- Node29&#45;&gt;Node12 -->
<g id="edge55_Node000029_Node000012" class="edge">
<title>Node29&#45;&gt;Node12</title>
<g id="a_edge55_Node000029_Node000012"><a xlink:title=" ">
<path fill="none" stroke="#63b8ff" d="M1745.15,-359.15C1798.97,-344.14 1888.12,-309.12 1878,-243.5 1873.28,-212.87 1879.2,-198.63 1857,-177 1818.94,-139.92 1755.4,-129.87 1716.26,-127.34"/>
<polygon fill="#63b8ff" stroke="#63b8ff" points="1716.62,-123.85 1706.46,-126.85 1716.27,-130.85 1716.62,-123.85"/>
</a>
</g>
</g>
<!-- Node29&#45;&gt;Node15 -->
<g id="edge58_Node000029_Node000015" class="edge">
<title>Node29&#45;&gt;Node15</title>
<g id="a_edge58_Node000029_Node000015"><a xlink:title=" ">
<path fill="none" stroke="#63b8ff" d="M1770.75,-359.21C1801.46,-352.2 1837.03,-339.81 1863,-318 1911.29,-277.44 1919.16,-225.63 1879,-177 1805.94,-88.55 1427.04,-70.22 1312.09,-66.68"/>
<polygon fill="#63b8ff" stroke="#63b8ff" points="1312.52,-63.19 1302.42,-66.4 1312.31,-70.18 1312.52,-63.19"/>
</a>
</g>
</g>
<!-- Node30 -->
<g id="Node000030" class="node">
<title>Node30</title>
<g id="a_Node000030"><a xlink:href="TimingNode_8hpp.html" target="_top" xlink:title=" ">
<polygon fill="white" stroke="#666666" points="1452.88,-318 1337.12,-318 1337.12,-298.75 1452.88,-298.75 1452.88,-318"/>
<text text-anchor="middle" x="1395" y="-304.5" font-family="Helvetica,sans-Serif" font-size="10.00">timing/TimingNode.hpp</text>
</a>
</g>
</g>
<!-- Node29&#45;&gt;Node30 -->
<g id="edge41_Node000029_Node000030" class="edge">
<title>Node29&#45;&gt;Node30</title>
<g id="a_edge41_Node000029_Node000030"><a xlink:title=" ">
<path fill="none" stroke="#63b8ff" d="M1658.09,-359.18C1603.18,-348.79 1513.18,-331.75 1454.01,-320.55"/>
<polygon fill="#63b8ff" stroke="#63b8ff" points="1454.93,-317.16 1444.45,-318.74 1453.63,-324.04 1454.93,-317.16"/>
</a>
</g>
</g>
<!-- Node29&#45;&gt;Node31 -->
<g id="edge54_Node000029_Node000031" class="edge">
<title>Node29&#45;&gt;Node31</title>
<g id="a_edge54_Node000029_Node000031"><a xlink:title=" ">
<path fill="none" stroke="#63b8ff" d="M1706.34,-359.55C1707.33,-345.3 1711.16,-316.78 1726,-298.75 1737.68,-284.56 1755.04,-274.39 1771.19,-267.38"/>
<polygon fill="#63b8ff" stroke="#63b8ff" points="1772.18,-270.75 1780.16,-263.78 1769.57,-264.26 1772.18,-270.75"/>
</a>
</g>
</g>
<!-- Node37 -->
<g id="Node000037" class="node">
<title>Node37</title>
<g id="a_Node000037"><a xlink:title=" ">
<polygon fill="#e0e0e0" stroke="#999999" points="1777.5,-318 1734.5,-318 1734.5,-298.75 1777.5,-298.75 1777.5,-318"/>
<text text-anchor="middle" x="1756" y="-304.5" font-family="Helvetica,sans-Serif" font-size="10.00">thread</text>
</a>
</g>
</g>
<!-- Node29&#45;&gt;Node37 -->
<g id="edge57_Node000029_Node000037" class="edge">
<title>Node29&#45;&gt;Node37</title>
<g id="a_edge57_Node000029_Node000037"><a xlink:title=" ">
<path fill="none" stroke="#63b8ff" d="M1713.59,-359.31C1720.86,-350.75 1732.03,-337.6 1741.08,-326.95"/>
<polygon fill="#63b8ff" stroke="#63b8ff" points="1743.55,-329.44 1747.35,-319.55 1738.21,-324.91 1743.55,-329.44"/>
</a>
</g>
</g>
<!-- Node30&#45;&gt;Node3 -->
<g id="edge49_Node000030_Node000003" class="edge">
<title>Node30&#45;&gt;Node3</title>
<g id="a_edge49_Node000030_Node000003"><a xlink:title=" ">
<path fill="none" stroke="#63b8ff" d="M1336.7,-300.14C1251.43,-289.55 1094.24,-270.04 1014.75,-260.18"/>
<polygon fill="#63b8ff" stroke="#63b8ff" points="1015.46,-256.74 1005.11,-258.98 1014.6,-263.68 1015.46,-256.74"/>
</a>
</g>
</g>
<!-- Node30&#45;&gt;Node7 -->
<g id="edge51_Node000030_Node000007" class="edge">
<title>Node30&#45;&gt;Node7</title>
<g id="a_edge51_Node000030_Node000007"><a xlink:title=" ">
<path fill="none" stroke="#63b8ff" d="M1350.02,-298.27C1300.73,-286 1222.6,-259.42 1177,-207.5 1162.11,-190.55 1156.09,-164.85 1153.66,-147.01"/>
<polygon fill="#63b8ff" stroke="#63b8ff" points="1157.14,-146.73 1152.6,-137.16 1150.18,-147.47 1157.14,-146.73"/>
</a>
</g>
</g>
<!-- Node30&#45;&gt;Node8 -->
<g id="edge52_Node000030_Node000008" class="edge">
<title>Node30&#45;&gt;Node8</title>
<g id="a_edge52_Node000030_Node000008"><a xlink:title=" ">
<path fill="none" stroke="#63b8ff" d="M1363.12,-298.3C1322,-285 1250.9,-256.33 1210,-207.5 1180.85,-172.7 1192.34,-153.57 1178,-110.5 1175.29,-102.36 1172.28,-93.39 1169.67,-85.64"/>
<polygon fill="#63b8ff" stroke="#63b8ff" points="1173,-84.55 1166.49,-76.19 1166.36,-86.79 1173,-84.55"/>
</a>
</g>
</g>
<!-- Node30&#45;&gt;Node12 -->
<g id="edge50_Node000030_Node000012" class="edge">
<title>Node30&#45;&gt;Node12</title>
<g id="a_edge50_Node000030_Node000012"><a xlink:title=" ">
<path fill="none" stroke="#63b8ff" d="M1453.36,-300.7C1509.79,-293.6 1597.46,-280.89 1672,-262.75 1691.09,-258.1 1828.48,-223.42 1840,-207.5 1874.06,-160.44 1772.2,-138.89 1716.19,-130.81"/>
<polygon fill="#63b8ff" stroke="#63b8ff" points="1716.88,-127.37 1706.49,-129.49 1715.93,-134.31 1716.88,-127.37"/>
</a>
</g>
</g>
<!-- Node30&#45;&gt;Node31 -->
<g id="edge42_Node000030_Node000031" class="edge">
<title>Node30&#45;&gt;Node31</title>
<g id="a_edge42_Node000030_Node000031"><a xlink:title=" ">
<path fill="none" stroke="#63b8ff" d="M1453.12,-299.97C1529.93,-290.19 1664.95,-272.99 1745.98,-262.66"/>
<polygon fill="#63b8ff" stroke="#63b8ff" points="1746.06,-266.18 1755.54,-261.45 1745.18,-259.24 1746.06,-266.18"/>
</a>
</g>
</g>
<!-- Node32 -->
<g id="Node000032" class="node">
<title>Node32</title>
<g id="a_Node000032"><a xlink:href="InfoCollector_8hpp.html" target="_top" xlink:title=" ">
<polygon fill="white" stroke="#666666" points="1663.38,-262.75 1532.62,-262.75 1532.62,-243.5 1663.38,-243.5 1663.38,-262.75"/>
<text text-anchor="middle" x="1598" y="-249.25" font-family="Helvetica,sans-Serif" font-size="10.00">opmonlib/InfoCollector.hpp</text>
</a>
</g>
</g>
<!-- Node30&#45;&gt;Node32 -->
<g id="edge43_Node000030_Node000032" class="edge">
<title>Node30&#45;&gt;Node32</title>
<g id="a_edge43_Node000030_Node000032"><a xlink:title=" ">
<path fill="none" stroke="#63b8ff" d="M1429.44,-298.34C1463.27,-289.47 1515.09,-275.87 1552.34,-266.1"/>
<polygon fill="#63b8ff" stroke="#63b8ff" points="1553.15,-269.51 1561.93,-263.59 1551.37,-262.74 1553.15,-269.51"/>
</a>
</g>
</g>
<!-- Node36 -->
<g id="Node000036" class="node">
<title>Node36</title>
<g id="a_Node000036"><a xlink:title=" ">
<polygon fill="#e0e0e0" stroke="#999999" points="1424.88,-262.75 1375.12,-262.75 1375.12,-243.5 1424.88,-243.5 1424.88,-262.75"/>
<text text-anchor="middle" x="1400" y="-249.25" font-family="Helvetica,sans-Serif" font-size="10.00">typeinfo</text>
</a>
</g>
</g>
<!-- Node30&#45;&gt;Node36 -->
<g id="edge53_Node000030_Node000036" class="edge">
<title>Node30&#45;&gt;Node36</title>
<g id="a_edge53_Node000030_Node000036"><a xlink:title=" ">
<path fill="none" stroke="#63b8ff" d="M1395.83,-298.58C1396.44,-291.99 1397.32,-282.71 1398.1,-274.32"/>
<polygon fill="#63b8ff" stroke="#63b8ff" points="1401.56,-274.9 1399.01,-264.62 1394.6,-274.25 1401.56,-274.9"/>
</a>
</g>
</g>
<!-- Node32&#45;&gt;Node8 -->
<g id="edge47_Node000032_Node000008" class="edge">
<title>Node32&#45;&gt;Node8</title>
<g id="a_edge47_Node000032_Node000008"><a xlink:title=" ">
<path fill="none" stroke="#63b8ff" d="M1575.77,-243.12C1559.62,-235.63 1538.19,-223.59 1524,-207.5 1492.81,-172.13 1518.64,-138.91 1481,-110.5 1469.6,-101.9 1272.58,-78.46 1194.5,-69.46"/>
<polygon fill="#63b8ff" stroke="#63b8ff" points="1195.3,-66.03 1184.96,-68.37 1194.5,-72.98 1195.3,-66.03"/>
</a>
</g>
</g>
<!-- Node32&#45;&gt;Node9 -->
<g id="edge46_Node000032_Node000009" class="edge">
<title>Node32&#45;&gt;Node9</title>
<g id="a_edge46_Node000032_Node000009"><a xlink:title=" ">
<path fill="none" stroke="#63b8ff" d="M1663.86,-249.19C1727.67,-244.8 1817.96,-233.97 1840,-207.5 1848.67,-197.08 1847,-188.61 1840,-177 1776.91,-72.36 1373.08,-26.12 1245.54,-14"/>
<polygon fill="#63b8ff" stroke="#63b8ff" points="1245.87,-10.52 1235.59,-13.07 1245.22,-17.49 1245.87,-10.52"/>
</a>
</g>
</g>
<!-- Node32&#45;&gt;Node33 -->
<g id="edge44_Node000032_Node000033" class="edge">
<title>Node32&#45;&gt;Node33</title>
<g id="a_edge44_Node000032_Node000033"><a xlink:title=" ">
<path fill="none" stroke="#63b8ff" d="M1626.35,-243.05C1657.55,-233.07 1707.91,-216.96 1742.86,-205.77"/>
<polygon fill="#63b8ff" stroke="#63b8ff" points="1743.72,-209.17 1752.18,-202.79 1741.59,-202.51 1743.72,-209.17"/>
</a>
</g>
</g>
<!-- Node34 -->
<g id="Node000034" class="node">
<title>Node34</title>
<g id="a_Node000034"><a xlink:title=" ">
<polygon fill="#e0e0e0" stroke="#999999" points="1573,-201.88 1533,-201.88 1533,-182.62 1573,-182.62 1573,-201.88"/>
<text text-anchor="middle" x="1553" y="-188.38" font-family="Helvetica,sans-Serif" font-size="10.00">ctime</text>
</a>
</g>
</g>
<!-- Node32&#45;&gt;Node34 -->
<g id="edge45_Node000032_Node000034" class="edge">
<title>Node32&#45;&gt;Node34</title>
<g id="a_edge45_Node000032_Node000034"><a xlink:title=" ">
<path fill="none" stroke="#63b8ff" d="M1591.17,-243.18C1584.69,-234.71 1574.78,-221.74 1566.68,-211.14"/>
<polygon fill="#63b8ff" stroke="#63b8ff" points="1569.67,-209.3 1560.82,-203.48 1564.11,-213.55 1569.67,-209.3"/>
</a>
</g>
</g>
<!-- Node35 -->
<g id="Node000035" class="node">
<title>Node35</title>
<g id="a_Node000035"><a xlink:href="JSONTags_8hpp.html" target="_top" xlink:title=" ">
<polygon fill="white" stroke="#666666" points="1715.38,-201.88 1590.62,-201.88 1590.62,-182.62 1715.38,-182.62 1715.38,-201.88"/>
<text text-anchor="middle" x="1653" y="-188.38" font-family="Helvetica,sans-Serif" font-size="10.00">opmonlib/JSONTags.hpp</text>
</a>
</g>
</g>
<!-- Node32&#45;&gt;Node35 -->
<g id="edge48_Node000032_Node000035" class="edge">
<title>Node32&#45;&gt;Node35</title>
<g id="a_edge48_Node000032_Node000035"><a xlink:title=" ">
<path fill="none" stroke="#63b8ff" d="M1606.35,-243.18C1614.43,-234.54 1626.88,-221.21 1636.89,-210.5"/>
<polygon fill="#63b8ff" stroke="#63b8ff" points="1639.27,-213.08 1643.53,-203.38 1634.15,-208.3 1639.27,-213.08"/>
</a>
</g>
</g>
<!-- Node38&#45;&gt;Node2 -->
<g id="edge60_Node000038_Node000002" class="edge">
<title>Node38&#45;&gt;Node2</title>
<g id="a_edge60_Node000038_Node000002"><a xlink:title=" ">
<path fill="none" stroke="#63b8ff" d="M1359.35,-359.18C1334.9,-349.38 1295.7,-333.69 1267.86,-322.54"/>
<polygon fill="#63b8ff" stroke="#63b8ff" points="1269.42,-319.39 1258.84,-318.92 1266.82,-325.89 1269.42,-319.39"/>
</a>
</g>
</g>
<!-- Node38&#45;&gt;Node8 -->
<g id="edge64_Node000038_Node000008" class="edge">
<title>Node38&#45;&gt;Node8</title>
<g id="a_edge64_Node000038_Node000008"><a xlink:title=" ">
<path fill="none" stroke="#63b8ff" d="M1300.68,-369.2C1038.43,-370.13 225.99,-355.49 123,-141 117.13,-128.78 113.59,-120.26 123,-110.5 161.32,-70.76 1061.12,-80.5 1116,-74.5 1121.05,-73.95 1126.38,-73.17 1131.56,-72.3"/>
<polygon fill="#63b8ff" stroke="#63b8ff" points="1131.8,-75.81 1141.02,-70.58 1130.55,-68.92 1131.8,-75.81"/>
</a>
</g>
</g>
<!-- Node38&#45;&gt;Node12 -->
<g id="edge63_Node000038_Node000012" class="edge">
<title>Node38&#45;&gt;Node12</title>
<g id="a_edge63_Node000038_Node000012"><a xlink:title=" ">
<path fill="none" stroke="#63b8ff" d="M1366.86,-359.29C1353.82,-350.59 1335.87,-336.08 1328,-318 1313.16,-283.92 1337.18,-266.97 1366,-243.5 1452.71,-172.9 1586.14,-142.64 1648.16,-131.84"/>
<polygon fill="#63b8ff" stroke="#63b8ff" points="1648.45,-135.34 1657.73,-130.23 1647.29,-128.43 1648.45,-135.34"/>
</a>
</g>
</g>
<!-- Node38&#45;&gt;Node30 -->
<g id="edge61_Node000038_Node000030" class="edge">
<title>Node38&#45;&gt;Node30</title>
<g id="a_edge61_Node000038_Node000030"><a xlink:title=" ">
<path fill="none" stroke="#63b8ff" d="M1383.97,-359.31C1385.71,-351.44 1388.3,-339.7 1390.54,-329.57"/>
<polygon fill="#63b8ff" stroke="#63b8ff" points="1393.94,-330.4 1392.68,-319.88 1387.11,-328.89 1393.94,-330.4"/>
</a>
</g>
</g>
<!-- Node38&#45;&gt;Node31 -->
<g id="edge62_Node000038_Node000031" class="edge">
<title>Node38&#45;&gt;Node31</title>
<g id="a_edge62_Node000038_Node000031"><a xlink:title=" ">
<path fill="none" stroke="#63b8ff" d="M1416.18,-359.2C1493.35,-338.76 1681.09,-289.05 1767.77,-266.1"/>
<polygon fill="#63b8ff" stroke="#63b8ff" points="1768.58,-269.51 1777.35,-263.56 1766.79,-262.74 1768.58,-269.51"/>
</a>
</g>
</g>
</g>
</svg>
