<?xml version="1.0" encoding="UTF-8" standalone="no"?>
<!DOCTYPE svg PUBLIC "-//W3C//DTD SVG 1.1//EN"
 "http://www.w3.org/Graphics/SVG/1.1/DTD/svg11.dtd">
<!-- Generated by graphviz version 9.0.0 (20230911.1827)
 -->
<!-- Title: sourcecode/okssystem/include/okssystem/Environment.hpp Pages: 1 -->
<svg width="449pt" height="105pt"
 viewBox="0.00 0.00 449.25 105.00" xmlns="http://www.w3.org/2000/svg" xmlns:xlink="http://www.w3.org/1999/xlink">
<g id="graph0" class="graph" transform="scale(1 1) rotate(0) translate(4 101)">
<title>sourcecode/okssystem/include/okssystem/Environment.hpp</title>
<!-- Node1 -->
<g id="Node000001" class="node">
<title>Node1</title>
<g id="a_Node000001"><a xlink:title=" ">
<polygon fill="#999999" stroke="#666666" points="335.5,-97 160.5,-97 160.5,-66.5 335.5,-66.5 335.5,-97"/>
<text text-anchor="start" x="168.5" y="-83.5" font-family="Helvetica,sans-Serif" font-size="10.00">sourcecode/okssystem</text>
<text text-anchor="middle" x="248" y="-72.25" font-family="Helvetica,sans-Serif" font-size="10.00">/include/okssystem/Environment.hpp</text>
</a>
</g>
</g>
<!-- Node2 -->
<g id="Node000002" class="node">
<title>Node2</title>
<g id="a_Node000002"><a xlink:href="OksSystem_8hpp.html" target="_top" xlink:title=" ">
<polygon fill="white" stroke="#666666" points="172,-30.5 0,-30.5 0,0 172,0 172,-30.5"/>
<text text-anchor="start" x="8" y="-17" font-family="Helvetica,sans-Serif" font-size="10.00">sourcecode/okssystem</text>
<text text-anchor="middle" x="86" y="-5.75" font-family="Helvetica,sans-Serif" font-size="10.00">/include/okssystem/OksSystem.hpp</text>
</a>
</g>
</g>
<!-- Node1&#45;&gt;Node2 -->
<g id="edge1_Node000001_Node000002" class="edge">
<title>Node1&#45;&gt;Node2</title>
<g id="a_edge1_Node000001_Node000002"><a xlink:title=" ">
<path fill="none" stroke="#63b8ff" d="M200.61,-61.88C175.82,-52.01 145.93,-40.11 122.89,-30.94"/>
<polygon fill="#63b8ff" stroke="#63b8ff" points="199.25,-65.11 209.83,-65.55 201.84,-58.6 199.25,-65.11"/>
</a>
</g>
</g>
<!-- Node3 -->
<g id="Node000003" class="node">
<title>Node3</title>
<g id="a_Node000003"><a xlink:href="Environment_8cpp.html" target="_top" xlink:title=" ">
<polygon fill="white" stroke="#666666" points="306.25,-30.5 189.75,-30.5 189.75,0 306.25,0 306.25,-30.5"/>
<text text-anchor="start" x="197.75" y="-17" font-family="Helvetica,sans-Serif" font-size="10.00">sourcecode/okssystem</text>
<text text-anchor="middle" x="248" y="-5.75" font-family="Helvetica,sans-Serif" font-size="10.00">/src/Environment.cpp</text>
</a>
</g>
</g>
<!-- Node1&#45;&gt;Node3 -->
<g id="edge2_Node000001_Node000003" class="edge">
<title>Node1&#45;&gt;Node3</title>
<g id="a_edge2_Node000001_Node000003"><a xlink:title=" ">
<path fill="none" stroke="#63b8ff" d="M248,-54.81C248,-46.64 248,-37.91 248,-30.83"/>
<polygon fill="#63b8ff" stroke="#63b8ff" points="244.5,-54.6 248,-64.6 251.5,-54.6 244.5,-54.6"/>
</a>
</g>
</g>
<!-- Node4 -->
<g id="Node000004" class="node">
<title>Node4</title>
<g id="a_Node000004"><a xlink:href="Executable_8cpp.html" target="_top" xlink:title=" ">
<polygon fill="white" stroke="#666666" points="441.25,-30.5 324.75,-30.5 324.75,0 441.25,0 441.25,-30.5"/>
<text text-anchor="start" x="332.75" y="-17" font-family="Helvetica,sans-Serif" font-size="10.00">sourcecode/okssystem</text>
<text text-anchor="middle" x="383" y="-5.75" font-family="Helvetica,sans-Serif" font-size="10.00">/src/Executable.cpp</text>
</a>
</g>
</g>
<!-- Node1&#45;&gt;Node4 -->
<g id="edge3_Node000001_Node000004" class="edge">
<title>Node1&#45;&gt;Node4</title>
<g id="a_edge3_Node000001_Node000004"><a xlink:title=" ">
<path fill="none" stroke="#63b8ff" d="M288.92,-61.2C309.37,-51.43 333.7,-39.81 352.49,-30.83"/>
<polygon fill="#63b8ff" stroke="#63b8ff" points="287.51,-57.99 280,-65.46 290.53,-64.31 287.51,-57.99"/>
</a>
</g>
</g>
</g>
</svg>
