<?xml version="1.0" encoding="UTF-8" standalone="no"?>
<!DOCTYPE svg PUBLIC "-//W3C//DTD SVG 1.1//EN"
 "http://www.w3.org/Graphics/SVG/1.1/DTD/svg11.dtd">
<!-- Generated by graphviz version 9.0.0 (20230911.1827)
 -->
<!-- Title: sourcecode/ers/include/ers/Schema.hpp Pages: 1 -->
<svg width="340pt" height="238pt"
 viewBox="0.00 0.00 340.25 238.00" xmlns="http://www.w3.org/2000/svg" xmlns:xlink="http://www.w3.org/1999/xlink">
<g id="graph0" class="graph" transform="scale(1 1) rotate(0) translate(4 234)">
<title>sourcecode/ers/include/ers/Schema.hpp</title>
<!-- Node1 -->
<g id="Node000001" class="node">
<title>Node1</title>
<g id="a_Node000001"><a xlink:title=" ">
<polygon fill="#999999" stroke="#666666" points="183.88,-230 67.38,-230 67.38,-199.5 183.88,-199.5 183.88,-230"/>
<text text-anchor="start" x="75.38" y="-216.5" font-family="Helvetica,sans-Serif" font-size="10.00">sourcecode/ers/include</text>
<text text-anchor="middle" x="125.62" y="-205.25" font-family="Helvetica,sans-Serif" font-size="10.00">/ers/Schema.hpp</text>
</a>
</g>
</g>
<!-- Node2 -->
<g id="Node000002" class="node">
<title>Node2</title>
<g id="a_Node000002"><a xlink:href="Schema_8cpp.html" target="_top" xlink:title=" ">
<polygon fill="white" stroke="#666666" points="99.25,-163.5 0,-163.5 0,-133 99.25,-133 99.25,-163.5"/>
<text text-anchor="start" x="8" y="-150" font-family="Helvetica,sans-Serif" font-size="10.00">sourcecode/ers/src</text>
<text text-anchor="middle" x="49.62" y="-138.75" font-family="Helvetica,sans-Serif" font-size="10.00">/Schema.cpp</text>
</a>
</g>
</g>
<!-- Node1&#45;&gt;Node2 -->
<g id="edge1_Node000001_Node000002" class="edge">
<title>Node1&#45;&gt;Node2</title>
<g id="a_edge1_Node000001_Node000002"><a xlink:title=" ">
<path fill="none" stroke="#63b8ff" d="M99.69,-191.74C88.83,-182.53 76.51,-172.06 66.8,-163.83"/>
<polygon fill="#63b8ff" stroke="#63b8ff" points="97.34,-194.33 107.23,-198.13 101.87,-189 97.34,-194.33"/>
</a>
</g>
</g>
<!-- Node3 -->
<g id="Node000003" class="node">
<title>Node3</title>
<g id="a_Node000003"><a xlink:href="ERSPublisher_8hpp.html" target="_top" xlink:title=" ">
<polygon fill="white" stroke="#666666" points="288.25,-163.5 117,-163.5 117,-133 288.25,-133 288.25,-163.5"/>
<text text-anchor="start" x="125" y="-150" font-family="Helvetica,sans-Serif" font-size="10.00">sourcecode/erskafka</text>
<text text-anchor="middle" x="202.62" y="-138.75" font-family="Helvetica,sans-Serif" font-size="10.00">/include/erskafka/ERSPublisher.hpp</text>
</a>
</g>
</g>
<!-- Node1&#45;&gt;Node3 -->
<g id="edge2_Node000001_Node000003" class="edge">
<title>Node1&#45;&gt;Node3</title>
<g id="a_edge2_Node000001_Node000003"><a xlink:title=" ">
<path fill="none" stroke="#63b8ff" d="M151.9,-191.74C162.9,-182.53 175.39,-172.06 185.22,-163.83"/>
<polygon fill="#63b8ff" stroke="#63b8ff" points="149.68,-189.04 144.26,-198.14 154.17,-194.4 149.68,-189.04"/>
</a>
</g>
</g>
<!-- Node4 -->
<g id="Node000004" class="node">
<title>Node4</title>
<g id="a_Node000004"><a xlink:href="ERSPublisher_8cpp.html" target="_top" xlink:title=" ">
<polygon fill="white" stroke="#666666" points="191.38,-97 77.88,-97 77.88,-66.5 191.38,-66.5 191.38,-97"/>
<text text-anchor="start" x="85.88" y="-83.5" font-family="Helvetica,sans-Serif" font-size="10.00">sourcecode/erskafka</text>
<text text-anchor="middle" x="134.62" y="-72.25" font-family="Helvetica,sans-Serif" font-size="10.00">/src/ERSPublisher.cpp</text>
</a>
</g>
</g>
<!-- Node3&#45;&gt;Node4 -->
<g id="edge3_Node000003_Node000004" class="edge">
<title>Node3&#45;&gt;Node4</title>
<g id="a_edge3_Node000003_Node000004"><a xlink:title=" ">
<path fill="none" stroke="#63b8ff" d="M179.13,-124.96C169.49,-115.82 158.59,-105.48 149.99,-97.33"/>
<polygon fill="#63b8ff" stroke="#63b8ff" points="176.43,-127.23 186.1,-131.57 181.25,-122.15 176.43,-127.23"/>
</a>
</g>
</g>
<!-- Node5 -->
<g id="Node000005" class="node">
<title>Node5</title>
<g id="a_Node000005"><a xlink:href="ProtoBufStream_8hpp.html" target="_top" xlink:title=" ">
<polygon fill="white" stroke="#666666" points="332.25,-97 209,-97 209,-66.5 332.25,-66.5 332.25,-97"/>
<text text-anchor="start" x="217" y="-83.5" font-family="Helvetica,sans-Serif" font-size="10.00">sourcecode/erskafka</text>
<text text-anchor="middle" x="270.62" y="-72.25" font-family="Helvetica,sans-Serif" font-size="10.00">/src/ProtoBufStream.hpp</text>
</a>
</g>
</g>
<!-- Node3&#45;&gt;Node5 -->
<g id="edge4_Node000003_Node000005" class="edge">
<title>Node3&#45;&gt;Node5</title>
<g id="a_edge4_Node000003_Node000005"><a xlink:title=" ">
<path fill="none" stroke="#63b8ff" d="M226.12,-124.96C235.76,-115.82 246.66,-105.48 255.26,-97.33"/>
<polygon fill="#63b8ff" stroke="#63b8ff" points="224,-122.15 219.15,-131.57 228.82,-127.23 224,-122.15"/>
</a>
</g>
</g>
<!-- Node6 -->
<g id="Node000006" class="node">
<title>Node6</title>
<g id="a_Node000006"><a xlink:href="ProtoBufStream_8cpp.html" target="_top" xlink:title=" ">
<polygon fill="white" stroke="#666666" points="332.25,-30.5 209,-30.5 209,0 332.25,0 332.25,-30.5"/>
<text text-anchor="start" x="217" y="-17" font-family="Helvetica,sans-Serif" font-size="10.00">sourcecode/erskafka</text>
<text text-anchor="middle" x="270.62" y="-5.75" font-family="Helvetica,sans-Serif" font-size="10.00">/src/ProtoBufStream.cpp</text>
</a>
</g>
</g>
<!-- Node5&#45;&gt;Node6 -->
<g id="edge5_Node000005_Node000006" class="edge">
<title>Node5&#45;&gt;Node6</title>
<g id="a_edge5_Node000005_Node000006"><a xlink:title=" ">
<path fill="none" stroke="#63b8ff" d="M270.62,-54.81C270.62,-46.64 270.62,-37.91 270.62,-30.83"/>
<polygon fill="#63b8ff" stroke="#63b8ff" points="267.13,-54.6 270.63,-64.6 274.13,-54.6 267.13,-54.6"/>
</a>
</g>
</g>
</g>
</svg>
