<?xml version="1.0" encoding="UTF-8" standalone="no"?>
<!DOCTYPE svg PUBLIC "-//W3C//DTD SVG 1.1//EN"
 "http://www.w3.org/Graphics/SVG/1.1/DTD/svg11.dtd">
<!-- Generated by graphviz version 9.0.0 (20230911.1827)
 -->
<!-- Title: sourcecode/erskafka/include/erskafka/ERSPublisher.hpp Pages: 1 -->
<svg width="262pt" height="172pt"
 viewBox="0.00 0.00 262.38 171.50" xmlns="http://www.w3.org/2000/svg" xmlns:xlink="http://www.w3.org/1999/xlink">
<g id="graph0" class="graph" transform="scale(1 1) rotate(0) translate(4 167.5)">
<title>sourcecode/erskafka/include/erskafka/ERSPublisher.hpp</title>
<!-- Node1 -->
<g id="Node000001" class="node">
<title>Node1</title>
<g id="a_Node000001"><a xlink:title=" ">
<polygon fill="#999999" stroke="#666666" points="210.38,-163.5 39.12,-163.5 39.12,-133 210.38,-133 210.38,-163.5"/>
<text text-anchor="start" x="47.12" y="-150" font-family="Helvetica,sans-Serif" font-size="10.00">sourcecode/erskafka</text>
<text text-anchor="middle" x="124.75" y="-138.75" font-family="Helvetica,sans-Serif" font-size="10.00">/include/erskafka/ERSPublisher.hpp</text>
</a>
</g>
</g>
<!-- Node2 -->
<g id="Node000002" class="node">
<title>Node2</title>
<g id="a_Node000002"><a xlink:href="ERSPublisher_8cpp.html" target="_top" xlink:title=" ">
<polygon fill="white" stroke="#666666" points="113.5,-97 0,-97 0,-66.5 113.5,-66.5 113.5,-97"/>
<text text-anchor="start" x="8" y="-83.5" font-family="Helvetica,sans-Serif" font-size="10.00">sourcecode/erskafka</text>
<text text-anchor="middle" x="56.75" y="-72.25" font-family="Helvetica,sans-Serif" font-size="10.00">/src/ERSPublisher.cpp</text>
</a>
</g>
</g>
<!-- Node1&#45;&gt;Node2 -->
<g id="edge1_Node000001_Node000002" class="edge">
<title>Node1&#45;&gt;Node2</title>
<g id="a_edge1_Node000001_Node000002"><a xlink:title=" ">
<path fill="none" stroke="#63b8ff" d="M101.26,-124.96C91.61,-115.82 80.72,-105.48 72.12,-97.33"/>
<polygon fill="#63b8ff" stroke="#63b8ff" points="98.56,-127.23 108.22,-131.57 103.37,-122.15 98.56,-127.23"/>
</a>
</g>
</g>
<!-- Node3 -->
<g id="Node000003" class="node">
<title>Node3</title>
<g id="a_Node000003"><a xlink:href="ProtoBufStream_8hpp.html" target="_top" xlink:title=" ">
<polygon fill="white" stroke="#666666" points="254.38,-97 131.12,-97 131.12,-66.5 254.38,-66.5 254.38,-97"/>
<text text-anchor="start" x="139.12" y="-83.5" font-family="Helvetica,sans-Serif" font-size="10.00">sourcecode/erskafka</text>
<text text-anchor="middle" x="192.75" y="-72.25" font-family="Helvetica,sans-Serif" font-size="10.00">/src/ProtoBufStream.hpp</text>
</a>
</g>
</g>
<!-- Node1&#45;&gt;Node3 -->
<g id="edge2_Node000001_Node000003" class="edge">
<title>Node1&#45;&gt;Node3</title>
<g id="a_edge2_Node000001_Node000003"><a xlink:title=" ">
<path fill="none" stroke="#63b8ff" d="M148.24,-124.96C157.89,-115.82 168.78,-105.48 177.38,-97.33"/>
<polygon fill="#63b8ff" stroke="#63b8ff" points="146.13,-122.15 141.28,-131.57 150.94,-127.23 146.13,-122.15"/>
</a>
</g>
</g>
<!-- Node4 -->
<g id="Node000004" class="node">
<title>Node4</title>
<g id="a_Node000004"><a xlink:href="ProtoBufStream_8cpp.html" target="_top" xlink:title=" ">
<polygon fill="white" stroke="#666666" points="254.38,-30.5 131.12,-30.5 131.12,0 254.38,0 254.38,-30.5"/>
<text text-anchor="start" x="139.12" y="-17" font-family="Helvetica,sans-Serif" font-size="10.00">sourcecode/erskafka</text>
<text text-anchor="middle" x="192.75" y="-5.75" font-family="Helvetica,sans-Serif" font-size="10.00">/src/ProtoBufStream.cpp</text>
</a>
</g>
</g>
<!-- Node3&#45;&gt;Node4 -->
<g id="edge3_Node000003_Node000004" class="edge">
<title>Node3&#45;&gt;Node4</title>
<g id="a_edge3_Node000003_Node000004"><a xlink:title=" ">
<path fill="none" stroke="#63b8ff" d="M192.75,-54.81C192.75,-46.64 192.75,-37.91 192.75,-30.83"/>
<polygon fill="#63b8ff" stroke="#63b8ff" points="189.25,-54.6 192.75,-64.6 196.25,-54.6 189.25,-54.6"/>
</a>
</g>
</g>
</g>
</svg>
