<?xml version="1.0" encoding="UTF-8" standalone="no"?>
<!DOCTYPE svg PUBLIC "-//W3C//DTD SVG 1.1//EN"
 "http://www.w3.org/Graphics/SVG/1.1/DTD/svg11.dtd">
<!-- Generated by graphviz version 9.0.0 (20230911.1827)
 -->
<!-- Title: sourcecode/erskafka/src/ERSPublisher.cpp Pages: 1 -->
<svg width="1715pt" height="448pt"
 viewBox="0.00 0.00 1715.25 447.75" xmlns="http://www.w3.org/2000/svg" xmlns:xlink="http://www.w3.org/1999/xlink">
<g id="graph0" class="graph" transform="scale(1 1) rotate(0) translate(4 443.75)">
<title>sourcecode/erskafka/src/ERSPublisher.cpp</title>
<!-- Node1 -->
<g id="Node000001" class="node">
<title>Node1</title>
<g id="a_Node000001"><a xlink:title=" ">
<polygon fill="#999999" stroke="#666666" points="1678,-439.75 1564.5,-439.75 1564.5,-409.25 1678,-409.25 1678,-439.75"/>
<text text-anchor="start" x="1572.5" y="-426.25" font-family="Helvetica,sans-Serif" font-size="10.00">sourcecode/erskafka</text>
<text text-anchor="middle" x="1621.25" y="-415" font-family="Helvetica,sans-Serif" font-size="10.00">/src/ERSPublisher.cpp</text>
</a>
</g>
</g>
<!-- Node2 -->
<g id="Node000002" class="node">
<title>Node2</title>
<g id="a_Node000002"><a xlink:href="ERSPublisher_8hpp.html" target="_top" xlink:title=" ">
<polygon fill="white" stroke="#666666" points="367.5,-373.25 233,-373.25 233,-354 367.5,-354 367.5,-373.25"/>
<text text-anchor="middle" x="300.25" y="-359.75" font-family="Helvetica,sans-Serif" font-size="10.00">erskafka/ERSPublisher.hpp</text>
</a>
</g>
</g>
<!-- Node1&#45;&gt;Node2 -->
<g id="edge1_Node000001_Node000002" class="edge">
<title>Node1&#45;&gt;Node2</title>
<g id="a_edge1_Node000001_Node000002"><a xlink:title=" ">
<path fill="none" stroke="#63b8ff" d="M1564.06,-420.95C1353.59,-411.57 621.72,-378.95 379.08,-368.14"/>
<polygon fill="#63b8ff" stroke="#63b8ff" points="379.56,-364.66 369.42,-367.71 379.25,-371.65 379.56,-364.66"/>
</a>
</g>
</g>
<!-- Node14 -->
<g id="Node000014" class="node">
<title>Node14</title>
<g id="a_Node000014"><a xlink:title=" ">
<polygon fill="#e0e0e0" stroke="#999999" points="1364,-19.25 1310.5,-19.25 1310.5,0 1364,0 1364,-19.25"/>
<text text-anchor="middle" x="1337.25" y="-5.75" font-family="Helvetica,sans-Serif" font-size="10.00">iostream</text>
</a>
</g>
</g>
<!-- Node1&#45;&gt;Node14 -->
<g id="edge44_Node000001_Node000014" class="edge">
<title>Node1&#45;&gt;Node14</title>
<g id="a_edge44_Node000001_Node000014"><a xlink:title=" ">
<path fill="none" stroke="#63b8ff" d="M1621.25,-409.09C1621.25,-387.44 1621.25,-345.24 1621.25,-309.38 1621.25,-309.38 1621.25,-309.38 1621.25,-124.75 1621.25,-78.98 1585.93,-76.23 1545.25,-55.25 1490.64,-27.09 1419.17,-16.69 1375.81,-12.85"/>
<polygon fill="#63b8ff" stroke="#63b8ff" points="1376.12,-9.36 1365.87,-12.05 1375.56,-16.34 1376.12,-9.36"/>
</a>
</g>
</g>
<!-- Node33 -->
<g id="Node000033" class="node">
<title>Node33</title>
<g id="a_Node000033"><a xlink:title=" ">
<polygon fill="#e0e0e0" stroke="#999999" points="1707.25,-373.25 1649.25,-373.25 1649.25,-354 1707.25,-354 1707.25,-373.25"/>
<text text-anchor="middle" x="1678.25" y="-359.75" font-family="Helvetica,sans-Serif" font-size="10.00">stdexcept</text>
</a>
</g>
</g>
<!-- Node1&#45;&gt;Node33 -->
<g id="edge45_Node000001_Node000033" class="edge">
<title>Node1&#45;&gt;Node33</title>
<g id="a_edge45_Node000001_Node000033"><a xlink:title=" ">
<path fill="none" stroke="#63b8ff" d="M1635.34,-408.95C1643.27,-400.76 1653.21,-390.48 1661.53,-381.89"/>
<polygon fill="#63b8ff" stroke="#63b8ff" points="1663.97,-384.41 1668.41,-374.79 1658.94,-379.54 1663.97,-384.41"/>
</a>
</g>
</g>
<!-- Node3 -->
<g id="Node000003" class="node">
<title>Node3</title>
<g id="a_Node000003"><a xlink:title=" ">
<polygon fill="#e0e0e0" stroke="#999999" points="523.75,-318 426.75,-318 426.75,-298.75 523.75,-298.75 523.75,-318"/>
<text text-anchor="middle" x="475.25" y="-304.5" font-family="Helvetica,sans-Serif" font-size="10.00">nlohmann/json.hpp</text>
</a>
</g>
</g>
<!-- Node2&#45;&gt;Node3 -->
<g id="edge2_Node000002_Node000003" class="edge">
<title>Node2&#45;&gt;Node3</title>
<g id="a_edge2_Node000002_Node000003"><a xlink:title=" ">
<path fill="none" stroke="#63b8ff" d="M329.94,-353.59C358.72,-344.83 402.62,-331.48 434.63,-321.73"/>
<polygon fill="#63b8ff" stroke="#63b8ff" points="435.42,-325.15 443.97,-318.89 433.38,-318.46 435.42,-325.15"/>
</a>
</g>
</g>
<!-- Node4 -->
<g id="Node000004" class="node">
<title>Node4</title>
<g id="a_Node000004"><a xlink:title=" ">
<polygon fill="#e0e0e0" stroke="#999999" points="116.5,-318 0,-318 0,-298.75 116.5,-298.75 116.5,-318"/>
<text text-anchor="middle" x="58.25" y="-304.5" font-family="Helvetica,sans-Serif" font-size="10.00">librdkafka/rdkafkacpp.h</text>
</a>
</g>
</g>
<!-- Node2&#45;&gt;Node4 -->
<g id="edge3_Node000002_Node000004" class="edge">
<title>Node2&#45;&gt;Node4</title>
<g id="a_edge3_Node000002_Node000004"><a xlink:title=" ">
<path fill="none" stroke="#63b8ff" d="M258.92,-353.53C217.94,-344.51 155.01,-330.67 110.57,-320.89"/>
<polygon fill="#63b8ff" stroke="#63b8ff" points="111.4,-317.49 100.88,-318.76 109.9,-324.32 111.4,-317.49"/>
</a>
</g>
</g>
<!-- Node5 -->
<g id="Node000005" class="node">
<title>Node5</title>
<g id="a_Node000005"><a xlink:title=" ">
<polygon fill="#e0e0e0" stroke="#999999" points="222.5,-201.88 172,-201.88 172,-182.62 222.5,-182.62 222.5,-201.88"/>
<text text-anchor="middle" x="197.25" y="-188.38" font-family="Helvetica,sans-Serif" font-size="10.00">memory</text>
</a>
</g>
</g>
<!-- Node2&#45;&gt;Node5 -->
<g id="edge4_Node000002_Node000005" class="edge">
<title>Node2&#45;&gt;Node5</title>
<g id="a_edge4_Node000002_Node000005"><a xlink:title=" ">
<path fill="none" stroke="#63b8ff" d="M294.71,-353.52C278.43,-326.74 230.47,-247.88 208.49,-211.73"/>
<polygon fill="#63b8ff" stroke="#63b8ff" points="211.54,-210.01 203.35,-203.29 205.56,-213.65 211.54,-210.01"/>
</a>
</g>
</g>
<!-- Node6 -->
<g id="Node000006" class="node">
<title>Node6</title>
<g id="a_Node000006"><a xlink:title=" ">
<polygon fill="#e0e0e0" stroke="#999999" points="468.25,-74.5 428.25,-74.5 428.25,-55.25 468.25,-55.25 468.25,-74.5"/>
<text text-anchor="middle" x="448.25" y="-61" font-family="Helvetica,sans-Serif" font-size="10.00">string</text>
</a>
</g>
</g>
<!-- Node2&#45;&gt;Node6 -->
<g id="edge5_Node000002_Node000006" class="edge">
<title>Node2&#45;&gt;Node6</title>
<g id="a_edge5_Node000002_Node000006"><a xlink:title=" ">
<path fill="none" stroke="#63b8ff" d="M260.88,-353.57C214.67,-340.34 144.25,-310.87 144.25,-254.12 144.25,-254.12 144.25,-254.12 144.25,-191.25 144.25,-132.74 339.15,-87.55 416.84,-71.86"/>
<polygon fill="#63b8ff" stroke="#63b8ff" points="417.22,-75.35 426.35,-69.97 415.86,-68.48 417.22,-75.35"/>
</a>
</g>
</g>
<!-- Node7 -->
<g id="Node000007" class="node">
<title>Node7</title>
<g id="a_Node000007"><a xlink:href="ers_2include_2ers_2Schema_8hpp.html" target="_top" xlink:title=" ">
<polygon fill="white" stroke="#666666" points="408.5,-318 322,-318 322,-298.75 408.5,-298.75 408.5,-318"/>
<text text-anchor="middle" x="365.25" y="-304.5" font-family="Helvetica,sans-Serif" font-size="10.00">ers/Schema.hpp</text>
</a>
</g>
</g>
<!-- Node2&#45;&gt;Node7 -->
<g id="edge6_Node000002_Node000007" class="edge">
<title>Node2&#45;&gt;Node7</title>
<g id="a_edge6_Node000002_Node000007"><a xlink:title=" ">
<path fill="none" stroke="#63b8ff" d="M311.28,-353.59C320.67,-345.9 334.4,-334.65 345.66,-325.43"/>
<polygon fill="#63b8ff" stroke="#63b8ff" points="347.7,-328.28 353.22,-319.23 343.26,-322.86 347.7,-328.28"/>
</a>
</g>
</g>
<!-- Node8 -->
<g id="Node000008" class="node">
<title>Node8</title>
<g id="a_Node000008"><a xlink:title=" ">
<polygon fill="#e0e0e0" stroke="#999999" points="614.25,-262.75 538.25,-262.75 538.25,-243.5 614.25,-243.5 614.25,-262.75"/>
<text text-anchor="middle" x="576.25" y="-249.25" font-family="Helvetica,sans-Serif" font-size="10.00">ers/issue.pb.h</text>
</a>
</g>
</g>
<!-- Node7&#45;&gt;Node8 -->
<g id="edge7_Node000007_Node000008" class="edge">
<title>Node7&#45;&gt;Node8</title>
<g id="a_edge7_Node000007_Node000008"><a xlink:title=" ">
<path fill="none" stroke="#63b8ff" d="M401.04,-298.34C436.36,-289.43 490.53,-275.76 529.29,-265.98"/>
<polygon fill="#63b8ff" stroke="#63b8ff" points="529.97,-269.41 538.81,-263.57 528.26,-262.63 529.97,-269.41"/>
</a>
</g>
</g>
<!-- Node9 -->
<g id="Node000009" class="node">
<title>Node9</title>
<g id="a_Node000009"><a xlink:href="Issue_8hpp.html" target="_top" xlink:title=" ">
<polygon fill="white" stroke="#666666" points="520.5,-262.75 446,-262.75 446,-243.5 520.5,-243.5 520.5,-262.75"/>
<text text-anchor="middle" x="483.25" y="-249.25" font-family="Helvetica,sans-Serif" font-size="10.00">ers/Issue.hpp</text>
</a>
</g>
</g>
<!-- Node7&#45;&gt;Node9 -->
<g id="edge8_Node000007_Node000009" class="edge">
<title>Node7&#45;&gt;Node9</title>
<g id="a_edge8_Node000007_Node000009"><a xlink:title=" ">
<path fill="none" stroke="#63b8ff" d="M385.27,-298.34C403.74,-290 431.46,-277.5 452.7,-267.91"/>
<polygon fill="#63b8ff" stroke="#63b8ff" points="454.08,-271.13 461.76,-263.83 451.2,-264.75 454.08,-271.13"/>
</a>
</g>
</g>
<!-- Node9&#45;&gt;Node5 -->
<g id="edge16_Node000009_Node000005" class="edge">
<title>Node9&#45;&gt;Node5</title>
<g id="a_edge16_Node000009_Node000005"><a xlink:title=" ">
<path fill="none" stroke="#63b8ff" d="M445.56,-247.37C396.74,-240.74 309.22,-227.27 236.25,-207.5 234.51,-207.03 232.75,-206.52 230.97,-205.97"/>
<polygon fill="#63b8ff" stroke="#63b8ff" points="232.17,-202.68 221.57,-202.83 229.95,-209.32 232.17,-202.68"/>
</a>
</g>
</g>
<!-- Node9&#45;&gt;Node6 -->
<g id="edge13_Node000009_Node000006" class="edge">
<title>Node9&#45;&gt;Node6</title>
<g id="a_edge13_Node000009_Node000006"><a xlink:title=" ">
<path fill="none" stroke="#63b8ff" d="M445.86,-249.85C390.55,-245.61 291.1,-234.37 269.25,-207.5 240.57,-172.22 304.41,-117.26 313.25,-110.5 343.93,-87.04 387.53,-75.59 416.8,-70.23"/>
<polygon fill="#63b8ff" stroke="#63b8ff" points="417.24,-73.71 426.52,-68.6 416.08,-66.8 417.24,-73.71"/>
</a>
</g>
</g>
<!-- Node10 -->
<g id="Node000010" class="node">
<title>Node10</title>
<g id="a_Node000010"><a xlink:title=" ">
<polygon fill="#e0e0e0" stroke="#999999" points="1170.88,-201.88 1125.62,-201.88 1125.62,-182.62 1170.88,-182.62 1170.88,-201.88"/>
<text text-anchor="middle" x="1148.25" y="-188.38" font-family="Helvetica,sans-Serif" font-size="10.00">math.h</text>
</a>
</g>
</g>
<!-- Node9&#45;&gt;Node10 -->
<g id="edge9_Node000009_Node000010" class="edge">
<title>Node9&#45;&gt;Node10</title>
<g id="a_edge9_Node000009_Node000010"><a xlink:title=" ">
<path fill="none" stroke="#63b8ff" d="M520.85,-244.68C523.68,-244.24 526.51,-243.84 529.25,-243.5 788.64,-211.35 862.37,-269.66 1116.25,-207.5 1117.65,-207.16 1119.06,-206.76 1120.47,-206.31"/>
<polygon fill="#63b8ff" stroke="#63b8ff" points="1121.55,-209.65 1129.63,-202.8 1119.04,-203.11 1121.55,-209.65"/>
</a>
</g>
</g>
<!-- Node11 -->
<g id="Node000011" class="node">
<title>Node11</title>
<g id="a_Node000011"><a xlink:title=" ">
<polygon fill="#e0e0e0" stroke="#999999" points="1233.5,-201.88 1189,-201.88 1189,-182.62 1233.5,-182.62 1233.5,-201.88"/>
<text text-anchor="middle" x="1211.25" y="-188.38" font-family="Helvetica,sans-Serif" font-size="10.00">stdio.h</text>
</a>
</g>
</g>
<!-- Node9&#45;&gt;Node11 -->
<g id="edge10_Node000009_Node000011" class="edge">
<title>Node9&#45;&gt;Node11</title>
<g id="a_edge10_Node000009_Node000011"><a xlink:title=" ">
<path fill="none" stroke="#63b8ff" d="M520.84,-244.66C523.68,-244.23 526.51,-243.83 529.25,-243.5 816.93,-208.73 898.99,-277.24 1180.25,-207.5 1181.46,-207.2 1182.68,-206.85 1183.89,-206.47"/>
<polygon fill="#63b8ff" stroke="#63b8ff" points="1185.16,-209.73 1193.2,-202.83 1182.61,-203.21 1185.16,-209.73"/>
</a>
</g>
</g>
<!-- Node12 -->
<g id="Node000012" class="node">
<title>Node12</title>
<g id="a_Node000012"><a xlink:title=" ">
<polygon fill="#e0e0e0" stroke="#999999" points="326,-201.88 278.5,-201.88 278.5,-182.62 326,-182.62 326,-201.88"/>
<text text-anchor="middle" x="302.25" y="-188.38" font-family="Helvetica,sans-Serif" font-size="10.00">string.h</text>
</a>
</g>
</g>
<!-- Node9&#45;&gt;Node12 -->
<g id="edge11_Node000009_Node000012" class="edge">
<title>Node9&#45;&gt;Node12</title>
<g id="a_edge11_Node000009_Node000012"><a xlink:title=" ">
<path fill="none" stroke="#63b8ff" d="M452.4,-243.05C423.33,-234.36 378.62,-220.67 340.25,-207.5 339.08,-207.1 337.9,-206.69 336.7,-206.27"/>
<polygon fill="#63b8ff" stroke="#63b8ff" points="337.91,-202.98 327.32,-202.87 335.53,-209.56 337.91,-202.98"/>
</a>
</g>
</g>
<!-- Node13 -->
<g id="Node000013" class="node">
<title>Node13</title>
<g id="a_Node000013"><a xlink:title=" ">
<polygon fill="#e0e0e0" stroke="#999999" points="356.62,-135.38 321.88,-135.38 321.88,-116.12 356.62,-116.12 356.62,-135.38"/>
<text text-anchor="middle" x="339.25" y="-121.88" font-family="Helvetica,sans-Serif" font-size="10.00">map</text>
</a>
</g>
</g>
<!-- Node9&#45;&gt;Node13 -->
<g id="edge12_Node000009_Node000013" class="edge">
<title>Node9&#45;&gt;Node13</title>
<g id="a_edge12_Node000009_Node000013"><a xlink:title=" ">
<path fill="none" stroke="#63b8ff" d="M445.51,-244.6C422.12,-238.22 392.91,-226.9 373.25,-207.5 356.53,-191 347.61,-165.02 343.16,-147"/>
<polygon fill="#63b8ff" stroke="#63b8ff" points="346.59,-146.28 341.04,-137.26 339.75,-147.77 346.59,-146.28"/>
</a>
</g>
</g>
<!-- Node9&#45;&gt;Node14 -->
<g id="edge14_Node000009_Node000014" class="edge">
<title>Node9&#45;&gt;Node14</title>
<g id="a_edge14_Node000009_Node000014"><a xlink:title=" ">
<path fill="none" stroke="#63b8ff" d="M520.84,-244.65C523.68,-244.22 526.51,-243.82 529.25,-243.5 844.34,-206.18 927.51,-247.7 1242.25,-207.5 1387.2,-188.98 1471.96,-254.3 1564.25,-141 1621.15,-71.14 1453.79,-31.29 1375.38,-16.87"/>
<polygon fill="#63b8ff" stroke="#63b8ff" points="1376.45,-13.51 1365.99,-15.19 1375.21,-20.4 1376.45,-13.51"/>
</a>
</g>
</g>
<!-- Node15 -->
<g id="Node000015" class="node">
<title>Node15</title>
<g id="a_Node000015"><a xlink:title=" ">
<polygon fill="#e0e0e0" stroke="#999999" points="433.88,-201.88 382.62,-201.88 382.62,-182.62 433.88,-182.62 433.88,-201.88"/>
<text text-anchor="middle" x="408.25" y="-188.38" font-family="Helvetica,sans-Serif" font-size="10.00">sstream</text>
</a>
</g>
</g>
<!-- Node9&#45;&gt;Node15 -->
<g id="edge15_Node000009_Node000015" class="edge">
<title>Node9&#45;&gt;Node15</title>
<g id="a_edge15_Node000009_Node000015"><a xlink:title=" ">
<path fill="none" stroke="#63b8ff" d="M471.86,-243.18C460.41,-234.19 442.5,-220.14 428.6,-209.23"/>
<polygon fill="#63b8ff" stroke="#63b8ff" points="430.97,-206.63 420.94,-203.21 426.64,-212.14 430.97,-206.63"/>
</a>
</g>
</g>
<!-- Node16 -->
<g id="Node000016" class="node">
<title>Node16</title>
<g id="a_Node000016"><a xlink:title=" ">
<polygon fill="#e0e0e0" stroke="#999999" points="419.88,-135.38 374.62,-135.38 374.62,-116.12 419.88,-116.12 419.88,-135.38"/>
<text text-anchor="middle" x="397.25" y="-121.88" font-family="Helvetica,sans-Serif" font-size="10.00">chrono</text>
</a>
</g>
</g>
<!-- Node9&#45;&gt;Node16 -->
<g id="edge17_Node000009_Node000016" class="edge">
<title>Node9&#45;&gt;Node16</title>
<g id="a_edge17_Node000009_Node000016"><a xlink:title=" ">
<path fill="none" stroke="#63b8ff" d="M479.47,-243.38C473.04,-228.93 459.11,-199.44 443.25,-177 434.87,-165.14 423.95,-153.1 414.85,-143.78"/>
<polygon fill="#63b8ff" stroke="#63b8ff" points="417.45,-141.43 407.9,-136.84 412.5,-146.38 417.45,-141.43"/>
</a>
</g>
</g>
<!-- Node17 -->
<g id="Node000017" class="node">
<title>Node17</title>
<g id="a_Node000017"><a xlink:title=" ">
<polygon fill="#e0e0e0" stroke="#999999" points="518.65,-201.88 489.85,-201.88 489.85,-182.62 518.65,-182.62 518.65,-201.88"/>
<text text-anchor="middle" x="504.25" y="-188.38" font-family="Helvetica,sans-Serif" font-size="10.00">list</text>
</a>
</g>
</g>
<!-- Node9&#45;&gt;Node17 -->
<g id="edge18_Node000009_Node000017" class="edge">
<title>Node9&#45;&gt;Node17</title>
<g id="a_edge18_Node000009_Node000017"><a xlink:title=" ">
<path fill="none" stroke="#63b8ff" d="M486.44,-243.18C489.28,-235.23 493.53,-223.31 497.16,-213.12"/>
<polygon fill="#63b8ff" stroke="#63b8ff" points="500.46,-214.3 500.52,-203.7 493.87,-211.94 500.46,-214.3"/>
</a>
</g>
</g>
<!-- Node18 -->
<g id="Node000018" class="node">
<title>Node18</title>
<g id="a_Node000018"><a xlink:href="IssueFactory_8hpp.html" target="_top" xlink:title=" ">
<polygon fill="white" stroke="#666666" points="643.62,-201.88 536.88,-201.88 536.88,-182.62 643.62,-182.62 643.62,-201.88"/>
<text text-anchor="middle" x="590.25" y="-188.38" font-family="Helvetica,sans-Serif" font-size="10.00">ers/IssueFactory.hpp</text>
</a>
</g>
</g>
<!-- Node9&#45;&gt;Node18 -->
<g id="edge19_Node000009_Node000018" class="edge">
<title>Node9&#45;&gt;Node18</title>
<g id="a_edge19_Node000009_Node000018"><a xlink:title=" ">
<path fill="none" stroke="#63b8ff" d="M499.5,-243.18C516.63,-233.76 543.86,-218.77 564.03,-207.68"/>
<polygon fill="#63b8ff" stroke="#63b8ff" points="565.45,-210.89 572.52,-203.01 562.07,-204.76 565.45,-210.89"/>
</a>
</g>
</g>
<!-- Node20 -->
<g id="Node000020" class="node">
<title>Node20</title>
<g id="a_Node000020"><a xlink:href="Severity_8hpp.html" target="_top" xlink:title=" ">
<polygon fill="white" stroke="#666666" points="562.12,-135.38 476.38,-135.38 476.38,-116.12 562.12,-116.12 562.12,-135.38"/>
<text text-anchor="middle" x="519.25" y="-121.88" font-family="Helvetica,sans-Serif" font-size="10.00">ers/Severity.hpp</text>
</a>
</g>
</g>
<!-- Node9&#45;&gt;Node20 -->
<g id="edge36_Node000009_Node000020" class="edge">
<title>Node9&#45;&gt;Node20</title>
<g id="a_edge36_Node000009_Node000020"><a xlink:title=" ">
<path fill="none" stroke="#63b8ff" d="M520.87,-244.71C568.15,-235.01 644.15,-218.02 652.25,-207.5 678.42,-173.52 620.97,-150.63 573.56,-138.14"/>
<polygon fill="#63b8ff" stroke="#63b8ff" points="574.41,-134.75 563.86,-135.71 572.71,-141.54 574.41,-134.75"/>
</a>
</g>
</g>
<!-- Node21 -->
<g id="Node000021" class="node">
<title>Node21</title>
<g id="a_Node000021"><a xlink:href="LocalContext_8hpp.html" target="_top" xlink:title=" ">
<polygon fill="white" stroke="#666666" points="807,-201.88 699.5,-201.88 699.5,-182.62 807,-182.62 807,-201.88"/>
<text text-anchor="middle" x="753.25" y="-188.38" font-family="Helvetica,sans-Serif" font-size="10.00">ers/LocalContext.hpp</text>
</a>
</g>
</g>
<!-- Node9&#45;&gt;Node21 -->
<g id="edge28_Node000009_Node000021" class="edge">
<title>Node9&#45;&gt;Node21</title>
<g id="a_edge28_Node000009_Node000021"><a xlink:title=" ">
<path fill="none" stroke="#63b8ff" d="M520.79,-243.94C567.5,-233.75 647.54,-216.3 700.42,-204.77"/>
<polygon fill="#63b8ff" stroke="#63b8ff" points="701.1,-208.2 710.12,-202.65 699.6,-201.37 701.1,-208.2"/>
</a>
</g>
</g>
<!-- Node26 -->
<g id="Node000026" class="node">
<title>Node26</title>
<g id="a_Node000026"><a xlink:href="IssueDeclarationMacro_8hpp.html" target="_top" xlink:title=" ">
<polygon fill="white" stroke="#666666" points="1107.12,-207.5 967.38,-207.5 967.38,-177 1107.12,-177 1107.12,-207.5"/>
<text text-anchor="start" x="975.38" y="-194" font-family="Helvetica,sans-Serif" font-size="10.00">ers/internal/IssueDeclaration</text>
<text text-anchor="middle" x="1037.25" y="-182.75" font-family="Helvetica,sans-Serif" font-size="10.00">Macro.hpp</text>
</a>
</g>
</g>
<!-- Node9&#45;&gt;Node26 -->
<g id="edge37_Node000009_Node000026" class="edge">
<title>Node9&#45;&gt;Node26</title>
<g id="a_edge37_Node000009_Node000026"><a xlink:title=" ">
<path fill="none" stroke="#63b8ff" d="M520.86,-244.8C523.7,-244.33 526.52,-243.89 529.25,-243.5 679.2,-222.07 855.36,-206.86 955.89,-199.11"/>
<polygon fill="#63b8ff" stroke="#63b8ff" points="955.96,-202.62 965.66,-198.36 955.43,-195.64 955.96,-202.62"/>
</a>
</g>
</g>
<!-- Node18&#45;&gt;Node6 -->
<g id="edge21_Node000018_Node000006" class="edge">
<title>Node18&#45;&gt;Node6</title>
<g id="a_edge21_Node000018_Node000006"><a xlink:title=" ">
<path fill="none" stroke="#63b8ff" d="M559.4,-182.16C527.22,-172.09 479.73,-155.37 467.25,-141 454.03,-125.79 449.78,-102.65 448.52,-86.08"/>
<polygon fill="#63b8ff" stroke="#63b8ff" points="452.03,-86.27 448.11,-76.43 445.04,-86.57 452.03,-86.27"/>
</a>
</g>
</g>
<!-- Node18&#45;&gt;Node13 -->
<g id="edge23_Node000018_Node000013" class="edge">
<title>Node18&#45;&gt;Node13</title>
<g id="a_edge23_Node000018_Node000013"><a xlink:title=" ">
<path fill="none" stroke="#63b8ff" d="M550.26,-182.18C542.62,-180.46 534.69,-178.67 527.25,-177 455.28,-160.86 434.28,-166.98 365.25,-141 364.9,-140.87 364.54,-140.73 364.19,-140.59"/>
<polygon fill="#63b8ff" stroke="#63b8ff" points="365.93,-137.54 355.4,-136.43 362.94,-143.87 365.93,-137.54"/>
</a>
</g>
</g>
<!-- Node18&#45;&gt;Node16 -->
<g id="edge20_Node000018_Node000016" class="edge">
<title>Node18&#45;&gt;Node16</title>
<g id="a_edge20_Node000018_Node000016"><a xlink:title=" ">
<path fill="none" stroke="#63b8ff" d="M560.47,-182.2C528.95,-172.5 477.85,-156.4 434.25,-141 433.11,-140.6 431.96,-140.19 430.8,-139.76"/>
<polygon fill="#63b8ff" stroke="#63b8ff" points="432.28,-136.58 421.69,-136.37 429.84,-143.14 432.28,-136.58"/>
</a>
</g>
</g>
<!-- Node19 -->
<g id="Node000019" class="node">
<title>Node19</title>
<g id="a_Node000019"><a xlink:title=" ">
<polygon fill="#e0e0e0" stroke="#999999" points="611.75,-74.5 568.75,-74.5 568.75,-55.25 611.75,-55.25 611.75,-74.5"/>
<text text-anchor="middle" x="590.25" y="-61" font-family="Helvetica,sans-Serif" font-size="10.00">vector</text>
</a>
</g>
</g>
<!-- Node18&#45;&gt;Node19 -->
<g id="edge22_Node000018_Node000019" class="edge">
<title>Node18&#45;&gt;Node19</title>
<g id="a_edge22_Node000018_Node000019"><a xlink:title=" ">
<path fill="none" stroke="#63b8ff" d="M590.25,-182.23C590.25,-162.26 590.25,-113.89 590.25,-86.21"/>
<polygon fill="#63b8ff" stroke="#63b8ff" points="593.75,-86.32 590.25,-76.32 586.75,-86.32 593.75,-86.32"/>
</a>
</g>
</g>
<!-- Node18&#45;&gt;Node20 -->
<g id="edge24_Node000018_Node000020" class="edge">
<title>Node18&#45;&gt;Node20</title>
<g id="a_edge24_Node000018_Node000020"><a xlink:title=" ">
<path fill="none" stroke="#63b8ff" d="M580.38,-182.28C569.25,-172.17 550.93,-155.53 537.24,-143.1"/>
<polygon fill="#63b8ff" stroke="#63b8ff" points="539.91,-140.79 530.16,-136.66 535.21,-145.97 539.91,-140.79"/>
</a>
</g>
</g>
<!-- Node20&#45;&gt;Node6 -->
<g id="edge25_Node000020_Node000006" class="edge">
<title>Node20&#45;&gt;Node6</title>
<g id="a_edge25_Node000020_Node000006"><a xlink:title=" ">
<path fill="none" stroke="#63b8ff" d="M508.47,-115.81C497.73,-106.9 481,-93.03 467.9,-82.17"/>
<polygon fill="#63b8ff" stroke="#63b8ff" points="470.23,-79.56 460.3,-75.87 465.76,-84.94 470.23,-79.56"/>
</a>
</g>
</g>
<!-- Node20&#45;&gt;Node14 -->
<g id="edge27_Node000020_Node000014" class="edge">
<title>Node20&#45;&gt;Node14</title>
<g id="a_edge27_Node000020_Node000014"><a xlink:title=" ">
<path fill="none" stroke="#63b8ff" d="M521.49,-116.04C525.95,-100.68 537.52,-69.11 560.25,-55.25 623.71,-16.55 1152.13,-11.41 1299.32,-10.73"/>
<polygon fill="#63b8ff" stroke="#63b8ff" points="1298.93,-14.23 1308.91,-10.69 1298.9,-7.23 1298.93,-14.23"/>
</a>
</g>
</g>
<!-- Node20&#45;&gt;Node19 -->
<g id="edge26_Node000020_Node000019" class="edge">
<title>Node20&#45;&gt;Node19</title>
<g id="a_edge26_Node000020_Node000019"><a xlink:title=" ">
<path fill="none" stroke="#63b8ff" d="M530.03,-115.81C540.77,-106.9 557.5,-93.03 570.6,-82.17"/>
<polygon fill="#63b8ff" stroke="#63b8ff" points="572.74,-84.94 578.2,-75.87 568.27,-79.56 572.74,-84.94"/>
</a>
</g>
</g>
<!-- Node22 -->
<g id="Node000022" class="node">
<title>Node22</title>
<g id="a_Node000022"><a xlink:title=" ">
<polygon fill="#e0e0e0" stroke="#999999" points="784.62,-135.38 719.88,-135.38 719.88,-116.12 784.62,-116.12 784.62,-135.38"/>
<text text-anchor="middle" x="752.25" y="-121.88" font-family="Helvetica,sans-Serif" font-size="10.00">sys/types.h</text>
</a>
</g>
</g>
<!-- Node21&#45;&gt;Node22 -->
<g id="edge29_Node000021_Node000022" class="edge">
<title>Node21&#45;&gt;Node22</title>
<g id="a_edge29_Node000021_Node000022"><a xlink:title=" ">
<path fill="none" stroke="#63b8ff" d="M753.11,-182.28C752.97,-173.23 752.75,-158.95 752.57,-147.13"/>
<polygon fill="#63b8ff" stroke="#63b8ff" points="756.07,-147.1 752.41,-137.16 749.07,-147.21 756.07,-147.1"/>
</a>
</g>
</g>
<!-- Node23 -->
<g id="Node000023" class="node">
<title>Node23</title>
<g id="a_Node000023"><a xlink:title=" ">
<polygon fill="#e0e0e0" stroke="#999999" points="852.12,-135.38 802.38,-135.38 802.38,-116.12 852.12,-116.12 852.12,-135.38"/>
<text text-anchor="middle" x="827.25" y="-121.88" font-family="Helvetica,sans-Serif" font-size="10.00">unistd.h</text>
</a>
</g>
</g>
<!-- Node21&#45;&gt;Node23 -->
<g id="edge30_Node000021_Node000023" class="edge">
<title>Node21&#45;&gt;Node23</title>
<g id="a_edge30_Node000021_Node000023"><a xlink:title=" ">
<path fill="none" stroke="#63b8ff" d="M763.54,-182.28C775.14,-172.17 794.23,-155.53 808.5,-143.1"/>
<polygon fill="#63b8ff" stroke="#63b8ff" points="810.67,-145.85 815.91,-136.64 806.07,-140.57 810.67,-145.85"/>
</a>
</g>
</g>
<!-- Node24 -->
<g id="Node000024" class="node">
<title>Node24</title>
<g id="a_Node000024"><a xlink:href="Context_8hpp.html" target="_top" xlink:title=" ">
<polygon fill="white" stroke="#666666" points="702,-135.38 618.5,-135.38 618.5,-116.12 702,-116.12 702,-135.38"/>
<text text-anchor="middle" x="660.25" y="-121.88" font-family="Helvetica,sans-Serif" font-size="10.00">ers/Context.hpp</text>
</a>
</g>
</g>
<!-- Node21&#45;&gt;Node24 -->
<g id="edge31_Node000021_Node000024" class="edge">
<title>Node21&#45;&gt;Node24</title>
<g id="a_edge31_Node000021_Node000024"><a xlink:title=" ">
<path fill="none" stroke="#63b8ff" d="M740.32,-182.28C725.41,-171.94 700.65,-154.77 682.6,-142.25"/>
<polygon fill="#63b8ff" stroke="#63b8ff" points="684.83,-139.54 674.61,-136.71 680.84,-145.29 684.83,-139.54"/>
</a>
</g>
</g>
<!-- Node24&#45;&gt;Node6 -->
<g id="edge32_Node000024_Node000006" class="edge">
<title>Node24&#45;&gt;Node6</title>
<g id="a_edge32_Node000024_Node000006"><a xlink:title=" ">
<path fill="none" stroke="#63b8ff" d="M627.59,-115.68C587.21,-104.47 518.97,-85.52 479.33,-74.51"/>
<polygon fill="#63b8ff" stroke="#63b8ff" points="480.51,-71.2 469.94,-71.9 478.64,-77.95 480.51,-71.2"/>
</a>
</g>
</g>
<!-- Node24&#45;&gt;Node19 -->
<g id="edge33_Node000024_Node000019" class="edge">
<title>Node24&#45;&gt;Node19</title>
<g id="a_edge33_Node000024_Node000019"><a xlink:title=" ">
<path fill="none" stroke="#63b8ff" d="M649.62,-115.81C639.03,-106.9 622.54,-93.03 609.62,-82.17"/>
<polygon fill="#63b8ff" stroke="#63b8ff" points="612.05,-79.63 602.14,-75.88 607.54,-84.99 612.05,-79.63"/>
</a>
</g>
</g>
<!-- Node25 -->
<g id="Node000025" class="node">
<title>Node25</title>
<g id="a_Node000025"><a xlink:href="ers_2include_2ers_2Configuration_8hpp.html" target="_top" xlink:title=" ">
<polygon fill="white" stroke="#666666" points="1145.62,-74.5 1038.88,-74.5 1038.88,-55.25 1145.62,-55.25 1145.62,-74.5"/>
<text text-anchor="middle" x="1092.25" y="-61" font-family="Helvetica,sans-Serif" font-size="10.00">ers/Configuration.hpp</text>
</a>
</g>
</g>
<!-- Node24&#45;&gt;Node25 -->
<g id="edge34_Node000024_Node000025" class="edge">
<title>Node24&#45;&gt;Node25</title>
<g id="a_edge34_Node000024_Node000025"><a xlink:title=" ">
<path fill="none" stroke="#63b8ff" d="M689.73,-115.67C696.73,-113.75 704.21,-111.89 711.25,-110.5 821.1,-88.86 950.99,-76.39 1027.22,-70.39"/>
<polygon fill="#63b8ff" stroke="#63b8ff" points="1027.31,-73.89 1037.01,-69.63 1026.77,-66.91 1027.31,-73.89"/>
</a>
</g>
</g>
<!-- Node25&#45;&gt;Node14 -->
<g id="edge35_Node000025_Node000014" class="edge">
<title>Node25&#45;&gt;Node14</title>
<g id="a_edge35_Node000025_Node000014"><a xlink:title=" ">
<path fill="none" stroke="#63b8ff" d="M1134.09,-54.78C1180.36,-44.73 1254.26,-28.66 1299.02,-18.93"/>
<polygon fill="#63b8ff" stroke="#63b8ff" points="1299.51,-22.41 1308.53,-16.87 1298.02,-15.57 1299.51,-22.41"/>
</a>
</g>
</g>
<!-- Node27 -->
<g id="Node000027" class="node">
<title>Node27</title>
<g id="a_Node000027"><a xlink:title=" ">
<polygon fill="#e0e0e0" stroke="#999999" points="1086.88,-141 987.62,-141 987.62,-110.5 1086.88,-110.5 1086.88,-141"/>
<text text-anchor="start" x="995.62" y="-127.5" font-family="Helvetica,sans-Serif" font-size="10.00">boost/preprocessor</text>
<text text-anchor="middle" x="1037.25" y="-116.25" font-family="Helvetica,sans-Serif" font-size="10.00">/if.hpp</text>
</a>
</g>
</g>
<!-- Node26&#45;&gt;Node27 -->
<g id="edge38_Node000026_Node000027" class="edge">
<title>Node26&#45;&gt;Node27</title>
<g id="a_edge38_Node000026_Node000027"><a xlink:title=" ">
<path fill="none" stroke="#63b8ff" d="M1037.25,-176.61C1037.25,-169.52 1037.25,-160.79 1037.25,-152.63"/>
<polygon fill="#63b8ff" stroke="#63b8ff" points="1040.75,-152.84 1037.25,-142.84 1033.75,-152.84 1040.75,-152.84"/>
</a>
</g>
</g>
<!-- Node28 -->
<g id="Node000028" class="node">
<title>Node28</title>
<g id="a_Node000028"><a xlink:title=" ">
<polygon fill="#e0e0e0" stroke="#999999" points="1203.88,-141 1104.62,-141 1104.62,-110.5 1203.88,-110.5 1203.88,-141"/>
<text text-anchor="start" x="1112.62" y="-127.5" font-family="Helvetica,sans-Serif" font-size="10.00">boost/preprocessor</text>
<text text-anchor="middle" x="1154.25" y="-116.25" font-family="Helvetica,sans-Serif" font-size="10.00">/seq.hpp</text>
</a>
</g>
</g>
<!-- Node26&#45;&gt;Node28 -->
<g id="edge39_Node000026_Node000028" class="edge">
<title>Node26&#45;&gt;Node28</title>
<g id="a_edge39_Node000026_Node000028"><a xlink:title=" ">
<path fill="none" stroke="#63b8ff" d="M1063.8,-176.61C1079.81,-167.79 1100.42,-156.43 1117.92,-146.78"/>
<polygon fill="#63b8ff" stroke="#63b8ff" points="1119.41,-149.95 1126.48,-142.06 1116.03,-143.82 1119.41,-149.95"/>
</a>
</g>
</g>
<!-- Node29 -->
<g id="Node000029" class="node">
<title>Node29</title>
<g id="a_Node000029"><a xlink:title=" ">
<polygon fill="#e0e0e0" stroke="#999999" points="1320.88,-141 1221.62,-141 1221.62,-110.5 1320.88,-110.5 1320.88,-141"/>
<text text-anchor="start" x="1229.62" y="-127.5" font-family="Helvetica,sans-Serif" font-size="10.00">boost/preprocessor</text>
<text text-anchor="middle" x="1271.25" y="-116.25" font-family="Helvetica,sans-Serif" font-size="10.00">/tuple.hpp</text>
</a>
</g>
</g>
<!-- Node26&#45;&gt;Node29 -->
<g id="edge40_Node000026_Node000029" class="edge">
<title>Node26&#45;&gt;Node29</title>
<g id="a_edge40_Node000026_Node000029"><a xlink:title=" ">
<path fill="none" stroke="#63b8ff" d="M1090.64,-176.53C1126.37,-166.69 1173.46,-153.7 1210.6,-143.47"/>
<polygon fill="#63b8ff" stroke="#63b8ff" points="1211.12,-146.95 1219.83,-140.92 1209.26,-140.21 1211.12,-146.95"/>
</a>
</g>
</g>
<!-- Node30 -->
<g id="Node000030" class="node">
<title>Node30</title>
<g id="a_Node000030"><a xlink:title=" ">
<polygon fill="#e0e0e0" stroke="#999999" points="1437.88,-141 1338.62,-141 1338.62,-110.5 1437.88,-110.5 1437.88,-141"/>
<text text-anchor="start" x="1346.62" y="-127.5" font-family="Helvetica,sans-Serif" font-size="10.00">boost/preprocessor</text>
<text text-anchor="middle" x="1388.25" y="-116.25" font-family="Helvetica,sans-Serif" font-size="10.00">/logical.hpp</text>
</a>
</g>
</g>
<!-- Node26&#45;&gt;Node30 -->
<g id="edge41_Node000026_Node000030" class="edge">
<title>Node26&#45;&gt;Node30</title>
<g id="a_edge41_Node000026_Node000030"><a xlink:title=" ">
<path fill="none" stroke="#63b8ff" d="M1107.45,-178.54C1110.42,-178.02 1113.37,-177.5 1116.25,-177 1207.74,-161.05 1233.88,-160.54 1327.22,-141.55"/>
<polygon fill="#63b8ff" stroke="#63b8ff" points="1327.74,-145.01 1336.83,-139.57 1326.33,-138.16 1327.74,-145.01"/>
</a>
</g>
</g>
<!-- Node31 -->
<g id="Node000031" class="node">
<title>Node31</title>
<g id="a_Node000031"><a xlink:title=" ">
<polygon fill="#e0e0e0" stroke="#999999" points="1554.88,-141 1455.62,-141 1455.62,-110.5 1554.88,-110.5 1554.88,-141"/>
<text text-anchor="start" x="1463.62" y="-127.5" font-family="Helvetica,sans-Serif" font-size="10.00">boost/preprocessor</text>
<text text-anchor="middle" x="1505.25" y="-116.25" font-family="Helvetica,sans-Serif" font-size="10.00">/stringize.hpp</text>
</a>
</g>
</g>
<!-- Node26&#45;&gt;Node31 -->
<g id="edge42_Node000026_Node000031" class="edge">
<title>Node26&#45;&gt;Node31</title>
<g id="a_edge42_Node000026_Node000031"><a xlink:title=" ">
<path fill="none" stroke="#63b8ff" d="M1107.42,-178.33C1110.4,-177.86 1113.35,-177.42 1116.25,-177 1259.13,-156.37 1299.56,-166.2 1444.29,-141.38"/>
<polygon fill="#63b8ff" stroke="#63b8ff" points="1444.61,-144.88 1453.86,-139.71 1443.41,-137.98 1444.61,-144.88"/>
</a>
</g>
</g>
<!-- Node32 -->
<g id="Node000032" class="node">
<title>Node32</title>
<g id="a_Node000032"><a xlink:title=" ">
<polygon fill="#e0e0e0" stroke="#999999" points="969.88,-141 870.62,-141 870.62,-110.5 969.88,-110.5 969.88,-141"/>
<text text-anchor="start" x="878.62" y="-127.5" font-family="Helvetica,sans-Serif" font-size="10.00">boost/preprocessor</text>
<text text-anchor="middle" x="920.25" y="-116.25" font-family="Helvetica,sans-Serif" font-size="10.00">/comparison.hpp</text>
</a>
</g>
</g>
<!-- Node26&#45;&gt;Node32 -->
<g id="edge43_Node000026_Node000032" class="edge">
<title>Node26&#45;&gt;Node32</title>
<g id="a_edge43_Node000026_Node000032"><a xlink:title=" ">
<path fill="none" stroke="#63b8ff" d="M1010.7,-176.61C994.69,-167.79 974.08,-156.43 956.58,-146.78"/>
<polygon fill="#63b8ff" stroke="#63b8ff" points="958.47,-143.82 948.02,-142.06 955.09,-149.95 958.47,-143.82"/>
</a>
</g>
</g>
</g>
</svg>
