<?xml version="1.0" encoding="UTF-8" standalone="no"?>
<!DOCTYPE svg PUBLIC "-//W3C//DTD SVG 1.1//EN"
 "http://www.w3.org/Graphics/SVG/1.1/DTD/svg11.dtd">
<!-- Generated by graphviz version 9.0.0 (20230911.1827)
 -->
<!-- Title: sourcecode/timing/include/timing/FanoutIONode.hpp Pages: 1 -->
<svg width="1162pt" height="305pt"
 viewBox="0.00 0.00 1162.12 304.50" xmlns="http://www.w3.org/2000/svg" xmlns:xlink="http://www.w3.org/1999/xlink">
<g id="graph0" class="graph" transform="scale(1 1) rotate(0) translate(4 300.5)">
<title>sourcecode/timing/include/timing/FanoutIONode.hpp</title>
<!-- Node1 -->
<g id="Node000001" class="node">
<title>Node1</title>
<g id="a_Node000001"><a xlink:title=" ">
<polygon fill="#999999" stroke="#666666" points="588,-296.5 458,-296.5 458,-266 588,-266 588,-296.5"/>
<text text-anchor="start" x="466" y="-283" font-family="Helvetica,sans-Serif" font-size="10.00">sourcecode/timing/include</text>
<text text-anchor="middle" x="523" y="-271.75" font-family="Helvetica,sans-Serif" font-size="10.00">/timing/FanoutIONode.hpp</text>
</a>
</g>
</g>
<!-- Node2 -->
<g id="Node000002" class="node">
<title>Node2</title>
<g id="a_Node000002"><a xlink:href="FIBIONode_8hpp.html" target="_top" xlink:title=" ">
<polygon fill="white" stroke="#666666" points="661.62,-230 532.38,-230 532.38,-199.5 661.62,-199.5 661.62,-230"/>
<text text-anchor="start" x="540.38" y="-216.5" font-family="Helvetica,sans-Serif" font-size="10.00">sourcecode/timing/include</text>
<text text-anchor="middle" x="597" y="-205.25" font-family="Helvetica,sans-Serif" font-size="10.00">/timing/FIBIONode.hpp</text>
</a>
</g>
</g>
<!-- Node1&#45;&gt;Node2 -->
<g id="edge1_Node000001_Node000002" class="edge">
<title>Node1&#45;&gt;Node2</title>
<g id="a_edge1_Node000001_Node000002"><a xlink:title=" ">
<path fill="none" stroke="#63b8ff" d="M548.25,-258.24C558.82,-249.03 570.83,-238.56 580.27,-230.33"/>
<polygon fill="#63b8ff" stroke="#63b8ff" points="546.17,-255.41 540.93,-264.62 550.77,-260.69 546.17,-255.41"/>
</a>
</g>
</g>
<!-- Node5 -->
<g id="Node000005" class="node">
<title>Node5</title>
<g id="a_Node000005"><a xlink:href="MIBIONode_8hpp.html" target="_top" xlink:title=" ">
<polygon fill="white" stroke="#666666" points="218.62,-230 89.38,-230 89.38,-199.5 218.62,-199.5 218.62,-230"/>
<text text-anchor="start" x="97.38" y="-216.5" font-family="Helvetica,sans-Serif" font-size="10.00">sourcecode/timing/include</text>
<text text-anchor="middle" x="154" y="-205.25" font-family="Helvetica,sans-Serif" font-size="10.00">/timing/MIBIONode.hpp</text>
</a>
</g>
</g>
<!-- Node1&#45;&gt;Node5 -->
<g id="edge4_Node000001_Node000005" class="edge">
<title>Node1&#45;&gt;Node5</title>
<g id="a_edge4_Node000001_Node000005"><a xlink:title=" ">
<path fill="none" stroke="#63b8ff" d="M446.41,-267.67C386.81,-257.77 302.08,-243.44 228,-230 225.04,-229.46 222.01,-228.91 218.96,-228.34"/>
<polygon fill="#63b8ff" stroke="#63b8ff" points="445.68,-271.09 456.11,-269.28 446.82,-264.19 445.68,-271.09"/>
</a>
</g>
</g>
<!-- Node7 -->
<g id="Node000007" class="node">
<title>Node7</title>
<g id="a_Node000007"><a xlink:href="MIBV2IONode_8hpp.html" target="_top" xlink:title=" ">
<polygon fill="white" stroke="#666666" points="367,-230 237,-230 237,-199.5 367,-199.5 367,-230"/>
<text text-anchor="start" x="245" y="-216.5" font-family="Helvetica,sans-Serif" font-size="10.00">sourcecode/timing/include</text>
<text text-anchor="middle" x="302" y="-205.25" font-family="Helvetica,sans-Serif" font-size="10.00">/timing/MIBV2IONode.hpp</text>
</a>
</g>
</g>
<!-- Node1&#45;&gt;Node7 -->
<g id="edge7_Node000001_Node000007" class="edge">
<title>Node1&#45;&gt;Node7</title>
<g id="a_edge7_Node000001_Node000007"><a xlink:title=" ">
<path fill="none" stroke="#63b8ff" d="M461.69,-262.35C427.2,-252.29 384.7,-239.89 352.21,-230.4"/>
<polygon fill="#63b8ff" stroke="#63b8ff" points="460.54,-265.67 471.12,-265.11 462.5,-258.95 460.54,-265.67"/>
</a>
</g>
</g>
<!-- Node9 -->
<g id="Node000009" class="node">
<title>Node9</title>
<g id="a_Node000009"><a xlink:href="MuxDesignInterface_8hpp.html" target="_top" xlink:title=" ">
<polygon fill="white" stroke="#666666" points="832.25,-230 679.75,-230 679.75,-199.5 832.25,-199.5 832.25,-230"/>
<text text-anchor="start" x="687.75" y="-216.5" font-family="Helvetica,sans-Serif" font-size="10.00">sourcecode/timing/include</text>
<text text-anchor="middle" x="756" y="-205.25" font-family="Helvetica,sans-Serif" font-size="10.00">/timing/MuxDesignInterface.hpp</text>
</a>
</g>
</g>
<!-- Node1&#45;&gt;Node9 -->
<g id="edge10_Node000001_Node000009" class="edge">
<title>Node1&#45;&gt;Node9</title>
<g id="a_edge10_Node000001_Node000009"><a xlink:title=" ">
<path fill="none" stroke="#63b8ff" d="M587.17,-262.49C623.61,-252.4 668.67,-239.93 703.07,-230.4"/>
<polygon fill="#63b8ff" stroke="#63b8ff" points="586.33,-259.09 577.62,-265.13 588.19,-265.83 586.33,-259.09"/>
</a>
</g>
</g>
<!-- Node22 -->
<g id="Node000022" class="node">
<title>Node22</title>
<g id="a_Node000022"><a xlink:href="PC059IONode_8hpp.html" target="_top" xlink:title=" ">
<polygon fill="white" stroke="#666666" points="514.62,-230 385.38,-230 385.38,-199.5 514.62,-199.5 514.62,-230"/>
<text text-anchor="start" x="393.38" y="-216.5" font-family="Helvetica,sans-Serif" font-size="10.00">sourcecode/timing/include</text>
<text text-anchor="middle" x="450" y="-205.25" font-family="Helvetica,sans-Serif" font-size="10.00">/timing/PC059IONode.hpp</text>
</a>
</g>
</g>
<!-- Node1&#45;&gt;Node22 -->
<g id="edge26_Node000001_Node000022" class="edge">
<title>Node1&#45;&gt;Node22</title>
<g id="a_edge26_Node000001_Node000022"><a xlink:title=" ">
<path fill="none" stroke="#63b8ff" d="M498.09,-258.24C487.66,-249.03 475.82,-238.56 466.5,-230.33"/>
<polygon fill="#63b8ff" stroke="#63b8ff" points="495.49,-260.61 505.3,-264.61 500.12,-255.37 495.49,-260.61"/>
</a>
</g>
</g>
<!-- Node24 -->
<g id="Node000024" class="node">
<title>Node24</title>
<g id="a_Node000024"><a xlink:href="FanoutIONode_8cpp.html" target="_top" xlink:title=" ">
<polygon fill="white" stroke="#666666" points="962,-230 850,-230 850,-199.5 962,-199.5 962,-230"/>
<text text-anchor="start" x="858" y="-216.5" font-family="Helvetica,sans-Serif" font-size="10.00">sourcecode/timing/src</text>
<text text-anchor="middle" x="906" y="-205.25" font-family="Helvetica,sans-Serif" font-size="10.00">/FanoutIONode.cpp</text>
</a>
</g>
</g>
<!-- Node1&#45;&gt;Node24 -->
<g id="edge29_Node000001_Node000024" class="edge">
<title>Node1&#45;&gt;Node24</title>
<g id="a_edge29_Node000001_Node000024"><a xlink:title=" ">
<path fill="none" stroke="#63b8ff" d="M599.65,-269.43C664.2,-260.02 758.87,-245.48 841,-230 843.84,-229.47 846.74,-228.9 849.67,-228.31"/>
<polygon fill="#63b8ff" stroke="#63b8ff" points="599.25,-265.96 589.86,-270.86 600.26,-272.88 599.25,-265.96"/>
</a>
</g>
</g>
<!-- Node3 -->
<g id="Node000003" class="node">
<title>Node3</title>
<g id="a_Node000003"><a xlink:href="io_8cpp.html" target="_top" xlink:title=" ">
<polygon fill="white" stroke="#666666" points="399.88,-163.5 260.12,-163.5 260.12,-133 399.88,-133 399.88,-163.5"/>
<text text-anchor="start" x="268.12" y="-150" font-family="Helvetica,sans-Serif" font-size="10.00">sourcecode/timing/pybindsrc</text>
<text text-anchor="middle" x="330" y="-138.75" font-family="Helvetica,sans-Serif" font-size="10.00">/io.cpp</text>
</a>
</g>
</g>
<!-- Node2&#45;&gt;Node3 -->
<g id="edge2_Node000002_Node000003" class="edge">
<title>Node2&#45;&gt;Node3</title>
<g id="a_edge2_Node000002_Node000003"><a xlink:title=" ">
<path fill="none" stroke="#63b8ff" d="M525.08,-196.38C483.05,-186.22 430.59,-173.55 390.66,-163.9"/>
<polygon fill="#63b8ff" stroke="#63b8ff" points="524.07,-199.73 534.61,-198.68 525.71,-192.93 524.07,-199.73"/>
</a>
</g>
</g>
<!-- Node4 -->
<g id="Node000004" class="node">
<title>Node4</title>
<g id="a_Node000004"><a xlink:href="FIBIONode_8cpp.html" target="_top" xlink:title=" ">
<polygon fill="white" stroke="#666666" points="660,-163.5 548,-163.5 548,-133 660,-133 660,-163.5"/>
<text text-anchor="start" x="556" y="-150" font-family="Helvetica,sans-Serif" font-size="10.00">sourcecode/timing/src</text>
<text text-anchor="middle" x="604" y="-138.75" font-family="Helvetica,sans-Serif" font-size="10.00">/FIBIONode.cpp</text>
</a>
</g>
</g>
<!-- Node2&#45;&gt;Node4 -->
<g id="edge3_Node000002_Node000004" class="edge">
<title>Node2&#45;&gt;Node4</title>
<g id="a_edge3_Node000002_Node000004"><a xlink:title=" ">
<path fill="none" stroke="#63b8ff" d="M599.82,-187.81C600.7,-179.64 601.65,-170.91 602.42,-163.83"/>
<polygon fill="#63b8ff" stroke="#63b8ff" points="596.35,-187.29 598.75,-197.61 603.31,-188.05 596.35,-187.29"/>
</a>
</g>
</g>
<!-- Node5&#45;&gt;Node3 -->
<g id="edge5_Node000005_Node000003" class="edge">
<title>Node5&#45;&gt;Node3</title>
<g id="a_edge5_Node000005_Node000003"><a xlink:title=" ">
<path fill="none" stroke="#63b8ff" d="M204.4,-195.28C231.54,-185.33 264.55,-173.24 289.92,-163.94"/>
<polygon fill="#63b8ff" stroke="#63b8ff" points="203.54,-191.87 195.36,-198.59 205.95,-198.44 203.54,-191.87"/>
</a>
</g>
</g>
<!-- Node6 -->
<g id="Node000006" class="node">
<title>Node6</title>
<g id="a_Node000006"><a xlink:href="MIBIONode_8cpp.html" target="_top" xlink:title=" ">
<polygon fill="white" stroke="#666666" points="112,-163.5 0,-163.5 0,-133 112,-133 112,-163.5"/>
<text text-anchor="start" x="8" y="-150" font-family="Helvetica,sans-Serif" font-size="10.00">sourcecode/timing/src</text>
<text text-anchor="middle" x="56" y="-138.75" font-family="Helvetica,sans-Serif" font-size="10.00">/MIBIONode.cpp</text>
</a>
</g>
</g>
<!-- Node5&#45;&gt;Node6 -->
<g id="edge6_Node000005_Node000006" class="edge">
<title>Node5&#45;&gt;Node6</title>
<g id="a_edge6_Node000005_Node000006"><a xlink:title=" ">
<path fill="none" stroke="#63b8ff" d="M122.23,-192.84C107.84,-183.37 91.16,-172.39 78.15,-163.83"/>
<polygon fill="#63b8ff" stroke="#63b8ff" points="120.22,-195.71 130.5,-198.28 124.07,-189.86 120.22,-195.71"/>
</a>
</g>
</g>
<!-- Node7&#45;&gt;Node3 -->
<g id="edge8_Node000007_Node000003" class="edge">
<title>Node7&#45;&gt;Node3</title>
<g id="a_edge8_Node000007_Node000003"><a xlink:title=" ">
<path fill="none" stroke="#63b8ff" d="M312.89,-188.66C316.54,-180.25 320.49,-171.16 323.67,-163.83"/>
<polygon fill="#63b8ff" stroke="#63b8ff" points="309.73,-187.16 308.96,-197.73 316.15,-189.95 309.73,-187.16"/>
</a>
</g>
</g>
<!-- Node8 -->
<g id="Node000008" class="node">
<title>Node8</title>
<g id="a_Node000008"><a xlink:href="MIBV2IONode_8cpp.html" target="_top" xlink:title=" ">
<polygon fill="white" stroke="#666666" points="242,-163.5 130,-163.5 130,-133 242,-133 242,-163.5"/>
<text text-anchor="start" x="138" y="-150" font-family="Helvetica,sans-Serif" font-size="10.00">sourcecode/timing/src</text>
<text text-anchor="middle" x="186" y="-138.75" font-family="Helvetica,sans-Serif" font-size="10.00">/MIBV2IONode.cpp</text>
</a>
</g>
</g>
<!-- Node7&#45;&gt;Node8 -->
<g id="edge9_Node000007_Node000008" class="edge">
<title>Node7&#45;&gt;Node8</title>
<g id="a_edge9_Node000007_Node000008"><a xlink:title=" ">
<path fill="none" stroke="#63b8ff" d="M265.86,-193.66C248.5,-184 228.07,-172.64 212.22,-163.83"/>
<polygon fill="#63b8ff" stroke="#63b8ff" points="263.91,-196.58 274.36,-198.38 267.32,-190.46 263.91,-196.58"/>
</a>
</g>
</g>
<!-- Node10 -->
<g id="Node000010" class="node">
<title>Node10</title>
<g id="a_Node000010"><a xlink:href="MasterMuxDesign_8hpp.html" target="_top" xlink:title=" ">
<polygon fill="white" stroke="#666666" points="828.12,-163.5 683.88,-163.5 683.88,-133 828.12,-133 828.12,-163.5"/>
<text text-anchor="start" x="691.88" y="-150" font-family="Helvetica,sans-Serif" font-size="10.00">sourcecode/timing/include</text>
<text text-anchor="middle" x="756" y="-138.75" font-family="Helvetica,sans-Serif" font-size="10.00">/timing/MasterMuxDesign.hpp</text>
</a>
</g>
</g>
<!-- Node9&#45;&gt;Node10 -->
<g id="edge11_Node000009_Node000010" class="edge">
<title>Node9&#45;&gt;Node10</title>
<g id="a_edge11_Node000009_Node000010"><a xlink:title=" ">
<path fill="none" stroke="#63b8ff" d="M756,-187.81C756,-179.64 756,-170.91 756,-163.83"/>
<polygon fill="#63b8ff" stroke="#63b8ff" points="752.5,-187.6 756,-197.6 759.5,-187.6 752.5,-187.6"/>
</a>
</g>
</g>
<!-- Node11 -->
<g id="Node000011" class="node">
<title>Node11</title>
<g id="a_Node000011"><a xlink:href="FanoutDesign_8hpp.html" target="_top" xlink:title=" ">
<polygon fill="white" stroke="#666666" points="982.62,-97 853.38,-97 853.38,-66.5 982.62,-66.5 982.62,-97"/>
<text text-anchor="start" x="861.38" y="-83.5" font-family="Helvetica,sans-Serif" font-size="10.00">sourcecode/timing/include</text>
<text text-anchor="middle" x="918" y="-72.25" font-family="Helvetica,sans-Serif" font-size="10.00">/timing/FanoutDesign.hpp</text>
</a>
</g>
</g>
<!-- Node10&#45;&gt;Node11 -->
<g id="edge12_Node000010_Node000011" class="edge">
<title>Node10&#45;&gt;Node11</title>
<g id="a_edge12_Node000010_Node000011"><a xlink:title=" ">
<path fill="none" stroke="#63b8ff" d="M803.39,-128.38C828.18,-118.51 858.07,-106.61 881.11,-97.44"/>
<polygon fill="#63b8ff" stroke="#63b8ff" points="802.16,-125.1 794.17,-132.05 804.75,-131.61 802.16,-125.1"/>
</a>
</g>
</g>
<!-- Node15 -->
<g id="Node000015" class="node">
<title>Node15</title>
<g id="a_Node000015"><a xlink:href="GaiaDesign_8hpp.html" target="_top" xlink:title=" ">
<polygon fill="white" stroke="#666666" points="505.62,-97 376.38,-97 376.38,-66.5 505.62,-66.5 505.62,-97"/>
<text text-anchor="start" x="384.38" y="-83.5" font-family="Helvetica,sans-Serif" font-size="10.00">sourcecode/timing/include</text>
<text text-anchor="middle" x="441" y="-72.25" font-family="Helvetica,sans-Serif" font-size="10.00">/timing/GaiaDesign.hpp</text>
</a>
</g>
</g>
<!-- Node10&#45;&gt;Node15 -->
<g id="edge16_Node000010_Node000015" class="edge">
<title>Node10&#45;&gt;Node15</title>
<g id="a_edge16_Node000010_Node000015"><a xlink:title=" ">
<path fill="none" stroke="#63b8ff" d="M672.87,-130.23C620.63,-119.53 554.22,-105.93 505.87,-96.03"/>
<polygon fill="#63b8ff" stroke="#63b8ff" points="672.15,-133.65 682.64,-132.23 673.55,-126.79 672.15,-133.65"/>
</a>
</g>
</g>
<!-- Node17 -->
<g id="Node000017" class="node">
<title>Node17</title>
<g id="a_Node000017"><a xlink:href="KerberosDesign_8hpp.html" target="_top" xlink:title=" ">
<polygon fill="white" stroke="#666666" points="658.62,-97 523.38,-97 523.38,-66.5 658.62,-66.5 658.62,-97"/>
<text text-anchor="start" x="531.38" y="-83.5" font-family="Helvetica,sans-Serif" font-size="10.00">sourcecode/timing/include</text>
<text text-anchor="middle" x="591" y="-72.25" font-family="Helvetica,sans-Serif" font-size="10.00">/timing/KerberosDesign.hpp</text>
</a>
</g>
</g>
<!-- Node10&#45;&gt;Node17 -->
<g id="edge19_Node000010_Node000017" class="edge">
<title>Node10&#45;&gt;Node17</title>
<g id="a_edge19_Node000010_Node000017"><a xlink:title=" ">
<path fill="none" stroke="#63b8ff" d="M708.07,-128.51C682.76,-118.62 652.15,-106.65 628.58,-97.44"/>
<polygon fill="#63b8ff" stroke="#63b8ff" points="706.56,-131.68 717.15,-132.06 709.11,-125.16 706.56,-131.68"/>
</a>
</g>
</g>
<!-- Node19 -->
<g id="Node000019" class="node">
<title>Node19</title>
<g id="a_Node000019"><a xlink:href="OuroborosMuxDesign_8hpp.html" target="_top" xlink:title=" ">
<polygon fill="white" stroke="#666666" points="835.62,-97 676.38,-97 676.38,-66.5 835.62,-66.5 835.62,-97"/>
<text text-anchor="start" x="684.38" y="-83.5" font-family="Helvetica,sans-Serif" font-size="10.00">sourcecode/timing/include</text>
<text text-anchor="middle" x="756" y="-72.25" font-family="Helvetica,sans-Serif" font-size="10.00">/timing/OuroborosMuxDesign.hpp</text>
</a>
</g>
</g>
<!-- Node10&#45;&gt;Node19 -->
<g id="edge22_Node000010_Node000019" class="edge">
<title>Node10&#45;&gt;Node19</title>
<g id="a_edge22_Node000010_Node000019"><a xlink:title=" ">
<path fill="none" stroke="#63b8ff" d="M756,-121.31C756,-113.14 756,-104.41 756,-97.33"/>
<polygon fill="#63b8ff" stroke="#63b8ff" points="752.5,-121.1 756,-131.1 759.5,-121.1 752.5,-121.1"/>
</a>
</g>
</g>
<!-- Node21 -->
<g id="Node000021" class="node">
<title>Node21</title>
<g id="a_Node000021"><a xlink:href="MasterMuxDesign_8cpp.html" target="_top" xlink:title=" ">
<polygon fill="white" stroke="#666666" points="1115.5,-97 1000.5,-97 1000.5,-66.5 1115.5,-66.5 1115.5,-97"/>
<text text-anchor="start" x="1008.5" y="-83.5" font-family="Helvetica,sans-Serif" font-size="10.00">sourcecode/timing/src</text>
<text text-anchor="middle" x="1058" y="-72.25" font-family="Helvetica,sans-Serif" font-size="10.00">/MasterMuxDesign.cpp</text>
</a>
</g>
</g>
<!-- Node10&#45;&gt;Node21 -->
<g id="edge25_Node000010_Node000021" class="edge">
<title>Node10&#45;&gt;Node21</title>
<g id="a_edge25_Node000010_Node000021"><a xlink:title=" ">
<path fill="none" stroke="#63b8ff" d="M836.48,-130.17C882.11,-120.48 940.25,-108.1 992,-97 994.64,-96.43 997.33,-95.86 1000.05,-95.27"/>
<polygon fill="#63b8ff" stroke="#63b8ff" points="835.99,-126.7 826.94,-132.2 837.45,-133.55 835.99,-126.7"/>
</a>
</g>
</g>
<!-- Node12 -->
<g id="Node000012" class="node">
<title>Node12</title>
<g id="a_Node000012"><a xlink:href="top__designs_8cpp.html" target="_top" xlink:title=" ">
<polygon fill="white" stroke="#666666" points="695.88,-30.5 556.12,-30.5 556.12,0 695.88,0 695.88,-30.5"/>
<text text-anchor="start" x="564.12" y="-17" font-family="Helvetica,sans-Serif" font-size="10.00">sourcecode/timing/pybindsrc</text>
<text text-anchor="middle" x="626" y="-5.75" font-family="Helvetica,sans-Serif" font-size="10.00">/top_designs.cpp</text>
</a>
</g>
</g>
<!-- Node11&#45;&gt;Node12 -->
<g id="edge13_Node000011_Node000012" class="edge">
<title>Node11&#45;&gt;Node12</title>
<g id="a_edge13_Node000011_Node000012"><a xlink:title=" ">
<path fill="none" stroke="#63b8ff" d="M842.01,-63.96C795.72,-53.74 737.13,-40.8 692.65,-30.97"/>
<polygon fill="#63b8ff" stroke="#63b8ff" points="841.2,-67.37 851.72,-66.11 842.71,-60.53 841.2,-67.37"/>
</a>
</g>
</g>
<!-- Node13 -->
<g id="Node000013" class="node">
<title>Node13</title>
<g id="a_Node000013"><a xlink:href="FanoutDesign_8cpp.html" target="_top" xlink:title=" ">
<polygon fill="white" stroke="#666666" points="974,-30.5 862,-30.5 862,0 974,0 974,-30.5"/>
<text text-anchor="start" x="870" y="-17" font-family="Helvetica,sans-Serif" font-size="10.00">sourcecode/timing/src</text>
<text text-anchor="middle" x="918" y="-5.75" font-family="Helvetica,sans-Serif" font-size="10.00">/FanoutDesign.cpp</text>
</a>
</g>
</g>
<!-- Node11&#45;&gt;Node13 -->
<g id="edge14_Node000011_Node000013" class="edge">
<title>Node11&#45;&gt;Node13</title>
<g id="a_edge14_Node000011_Node000013"><a xlink:title=" ">
<path fill="none" stroke="#63b8ff" d="M918,-54.81C918,-46.64 918,-37.91 918,-30.83"/>
<polygon fill="#63b8ff" stroke="#63b8ff" points="914.5,-54.6 918,-64.6 921.5,-54.6 914.5,-54.6"/>
</a>
</g>
</g>
<!-- Node14 -->
<g id="Node000014" class="node">
<title>Node14</title>
<g id="a_Node000014"><a xlink:href="TimingHardwareManager_8cpp.html" target="_top" xlink:title=" ">
<polygon fill="white" stroke="#666666" points="1154.12,-30.5 991.88,-30.5 991.88,0 1154.12,0 1154.12,-30.5"/>
<text text-anchor="start" x="999.88" y="-17" font-family="Helvetica,sans-Serif" font-size="10.00">sourcecode/timinglibs</text>
<text text-anchor="middle" x="1073" y="-5.75" font-family="Helvetica,sans-Serif" font-size="10.00">/src/TimingHardwareManager.cpp</text>
</a>
</g>
</g>
<!-- Node11&#45;&gt;Node14 -->
<g id="edge15_Node000011_Node000014" class="edge">
<title>Node11&#45;&gt;Node14</title>
<g id="a_edge15_Node000011_Node000014"><a xlink:title=" ">
<path fill="none" stroke="#63b8ff" d="M963.66,-61.75C987.31,-51.91 1015.75,-40.07 1037.7,-30.94"/>
<polygon fill="#63b8ff" stroke="#63b8ff" points="962.46,-58.46 954.57,-65.53 965.15,-64.92 962.46,-58.46"/>
</a>
</g>
</g>
<!-- Node15&#45;&gt;Node12 -->
<g id="edge17_Node000015_Node000012" class="edge">
<title>Node15&#45;&gt;Node12</title>
<g id="a_edge17_Node000015_Node000012"><a xlink:title=" ">
<path fill="none" stroke="#63b8ff" d="M493.6,-62.41C522.2,-52.44 557.08,-40.28 583.87,-30.94"/>
<polygon fill="#63b8ff" stroke="#63b8ff" points="492.7,-59.02 484.41,-65.62 495,-65.63 492.7,-59.02"/>
</a>
</g>
</g>
<!-- Node16 -->
<g id="Node000016" class="node">
<title>Node16</title>
<g id="a_Node000016"><a xlink:href="GaiaDesign_8cpp.html" target="_top" xlink:title=" ">
<polygon fill="white" stroke="#666666" points="408,-30.5 296,-30.5 296,0 408,0 408,-30.5"/>
<text text-anchor="start" x="304" y="-17" font-family="Helvetica,sans-Serif" font-size="10.00">sourcecode/timing/src</text>
<text text-anchor="middle" x="352" y="-5.75" font-family="Helvetica,sans-Serif" font-size="10.00">/GaiaDesign.cpp</text>
</a>
</g>
</g>
<!-- Node15&#45;&gt;Node16 -->
<g id="edge18_Node000015_Node000016" class="edge">
<title>Node15&#45;&gt;Node16</title>
<g id="a_edge18_Node000015_Node000016"><a xlink:title=" ">
<path fill="none" stroke="#63b8ff" d="M411.77,-59.57C398.78,-50.16 383.82,-39.31 372.12,-30.83"/>
<polygon fill="#63b8ff" stroke="#63b8ff" points="409.43,-62.19 419.58,-65.23 413.54,-56.52 409.43,-62.19"/>
</a>
</g>
</g>
<!-- Node17&#45;&gt;Node12 -->
<g id="edge20_Node000017_Node000012" class="edge">
<title>Node17&#45;&gt;Node12</title>
<g id="a_edge20_Node000017_Node000012"><a xlink:title=" ">
<path fill="none" stroke="#63b8ff" d="M604.31,-56.23C608.96,-47.66 614.02,-38.32 618.09,-30.83"/>
<polygon fill="#63b8ff" stroke="#63b8ff" points="601.36,-54.32 599.66,-64.78 607.51,-57.66 601.36,-54.32"/>
</a>
</g>
</g>
<!-- Node18 -->
<g id="Node000018" class="node">
<title>Node18</title>
<g id="a_Node000018"><a xlink:href="KerberosDesign_8cpp.html" target="_top" xlink:title=" ">
<polygon fill="white" stroke="#666666" points="538,-30.5 426,-30.5 426,0 538,0 538,-30.5"/>
<text text-anchor="start" x="434" y="-17" font-family="Helvetica,sans-Serif" font-size="10.00">sourcecode/timing/src</text>
<text text-anchor="middle" x="482" y="-5.75" font-family="Helvetica,sans-Serif" font-size="10.00">/KerberosDesign.cpp</text>
</a>
</g>
</g>
<!-- Node17&#45;&gt;Node18 -->
<g id="edge21_Node000017_Node000018" class="edge">
<title>Node17&#45;&gt;Node18</title>
<g id="a_edge21_Node000017_Node000018"><a xlink:title=" ">
<path fill="none" stroke="#63b8ff" d="M556.59,-60.39C540.37,-50.79 521.39,-39.56 506.64,-30.83"/>
<polygon fill="#63b8ff" stroke="#63b8ff" points="554.58,-63.26 564.96,-65.34 558.14,-57.24 554.58,-63.26"/>
</a>
</g>
</g>
<!-- Node19&#45;&gt;Node12 -->
<g id="edge23_Node000019_Node000012" class="edge">
<title>Node19&#45;&gt;Node12</title>
<g id="a_edge23_Node000019_Node000012"><a xlink:title=" ">
<path fill="none" stroke="#63b8ff" d="M716.32,-61.06C696.68,-51.32 673.39,-39.76 655.38,-30.83"/>
<polygon fill="#63b8ff" stroke="#63b8ff" points="714.63,-64.13 725.15,-65.44 717.74,-57.86 714.63,-64.13"/>
</a>
</g>
</g>
<!-- Node20 -->
<g id="Node000020" class="node">
<title>Node20</title>
<g id="a_Node000020"><a xlink:href="OuroborosMuxDesign_8cpp.html" target="_top" xlink:title=" ">
<polygon fill="white" stroke="#666666" points="844,-30.5 714,-30.5 714,0 844,0 844,-30.5"/>
<text text-anchor="start" x="722" y="-17" font-family="Helvetica,sans-Serif" font-size="10.00">sourcecode/timing/src</text>
<text text-anchor="middle" x="779" y="-5.75" font-family="Helvetica,sans-Serif" font-size="10.00">/OuroborosMuxDesign.cpp</text>
</a>
</g>
</g>
<!-- Node19&#45;&gt;Node20 -->
<g id="edge24_Node000019_Node000020" class="edge">
<title>Node19&#45;&gt;Node20</title>
<g id="a_edge24_Node000019_Node000020"><a xlink:title=" ">
<path fill="none" stroke="#63b8ff" d="M765.05,-55.38C768.02,-47.05 771.22,-38.08 773.8,-30.83"/>
<polygon fill="#63b8ff" stroke="#63b8ff" points="761.79,-54.09 761.73,-64.69 768.38,-56.44 761.79,-54.09"/>
</a>
</g>
</g>
<!-- Node22&#45;&gt;Node3 -->
<g id="edge27_Node000022_Node000003" class="edge">
<title>Node22&#45;&gt;Node3</title>
<g id="a_edge27_Node000022_Node000003"><a xlink:title=" ">
<path fill="none" stroke="#63b8ff" d="M412.87,-193.79C394.85,-184.11 373.59,-172.68 357.12,-163.83"/>
<polygon fill="#63b8ff" stroke="#63b8ff" points="410.97,-196.75 421.44,-198.4 414.29,-190.58 410.97,-196.75"/>
</a>
</g>
</g>
<!-- Node23 -->
<g id="Node000023" class="node">
<title>Node23</title>
<g id="a_Node000023"><a xlink:href="PC059IONode_8cpp.html" target="_top" xlink:title=" ">
<polygon fill="white" stroke="#666666" points="530,-163.5 418,-163.5 418,-133 530,-133 530,-163.5"/>
<text text-anchor="start" x="426" y="-150" font-family="Helvetica,sans-Serif" font-size="10.00">sourcecode/timing/src</text>
<text text-anchor="middle" x="474" y="-138.75" font-family="Helvetica,sans-Serif" font-size="10.00">/PC059IONode.cpp</text>
</a>
</g>
</g>
<!-- Node22&#45;&gt;Node23 -->
<g id="edge28_Node000022_Node000023" class="edge">
<title>Node22&#45;&gt;Node23</title>
<g id="a_edge28_Node000022_Node000023"><a xlink:title=" ">
<path fill="none" stroke="#63b8ff" d="M459.44,-188.38C462.54,-180.05 465.88,-171.08 468.58,-163.83"/>
<polygon fill="#63b8ff" stroke="#63b8ff" points="456.18,-187.1 455.97,-197.7 462.74,-189.54 456.18,-187.1"/>
</a>
</g>
</g>
</g>
</svg>
