<?xml version="1.0" encoding="UTF-8" standalone="no"?>
<!DOCTYPE svg PUBLIC "-//W3C//DTD SVG 1.1//EN"
 "http://www.w3.org/Graphics/SVG/1.1/DTD/svg11.dtd">
<!-- Generated by graphviz version 9.0.0 (20230911.1827)
 -->
<!-- Title: sourcecode/oks/include/oks/file.hpp Pages: 1 -->
<svg width="734pt" height="160pt"
 viewBox="0.00 0.00 734.00 160.25" xmlns="http://www.w3.org/2000/svg" xmlns:xlink="http://www.w3.org/1999/xlink">
<g id="graph0" class="graph" transform="scale(1 1) rotate(0) translate(4 156.25)">
<title>sourcecode/oks/include/oks/file.hpp</title>
<!-- Node1 -->
<g id="Node000001" class="node">
<title>Node1</title>
<g id="a_Node000001"><a xlink:title=" ">
<polygon fill="#999999" stroke="#666666" points="374,-152.25 255.25,-152.25 255.25,-121.75 374,-121.75 374,-152.25"/>
<text text-anchor="start" x="263.25" y="-138.75" font-family="Helvetica,sans-Serif" font-size="10.00">sourcecode/oks/include</text>
<text text-anchor="middle" x="314.62" y="-127.5" font-family="Helvetica,sans-Serif" font-size="10.00">/oks/file.hpp</text>
</a>
</g>
</g>
<!-- Node2 -->
<g id="Node000002" class="node">
<title>Node2</title>
<g id="a_Node000002"><a xlink:href="include_2oks_2exceptions_8hpp.html" target="_top" xlink:title=" ">
<polygon fill="white" stroke="#666666" points="147.25,-80.12 48,-80.12 48,-60.88 147.25,-60.88 147.25,-80.12"/>
<text text-anchor="middle" x="97.62" y="-66.62" font-family="Helvetica,sans-Serif" font-size="10.00">oks/exceptions.hpp</text>
</a>
</g>
</g>
<!-- Node1&#45;&gt;Node2 -->
<g id="edge1_Node000001_Node000002" class="edge">
<title>Node1&#45;&gt;Node2</title>
<g id="a_edge1_Node000001_Node000002"><a xlink:title=" ">
<path fill="none" stroke="#63b8ff" d="M265.11,-121.28C226.91,-109.93 174.69,-94.41 138.77,-83.73"/>
<polygon fill="#63b8ff" stroke="#63b8ff" points="140.21,-80.51 129.63,-81.01 138.21,-87.22 140.21,-80.51"/>
</a>
</g>
</g>
<!-- Node4 -->
<g id="Node000004" class="node">
<title>Node4</title>
<g id="a_Node000004"><a xlink:title=" ">
<polygon fill="#e0e0e0" stroke="#999999" points="192.62,-19.25 152.62,-19.25 152.62,0 192.62,0 192.62,-19.25"/>
<text text-anchor="middle" x="172.62" y="-5.75" font-family="Helvetica,sans-Serif" font-size="10.00">string</text>
</a>
</g>
</g>
<!-- Node1&#45;&gt;Node4 -->
<g id="edge5_Node000001_Node000004" class="edge">
<title>Node1&#45;&gt;Node4</title>
<g id="a_edge5_Node000001_Node000004"><a xlink:title=" ">
<path fill="none" stroke="#63b8ff" d="M254.82,-122.52C233.24,-114.95 210.36,-103.35 194.62,-85.75 181.05,-70.57 175.83,-47.43 173.84,-30.84"/>
<polygon fill="#63b8ff" stroke="#63b8ff" points="177.35,-30.84 172.99,-21.19 170.38,-31.46 177.35,-30.84"/>
</a>
</g>
</g>
<!-- Node6 -->
<g id="Node000006" class="node">
<title>Node6</title>
<g id="a_Node000006"><a xlink:title=" ">
<polygon fill="#e0e0e0" stroke="#999999" points="232.03,-80.12 203.22,-80.12 203.22,-60.88 232.03,-60.88 232.03,-80.12"/>
<text text-anchor="middle" x="217.62" y="-66.62" font-family="Helvetica,sans-Serif" font-size="10.00">list</text>
</a>
</g>
</g>
<!-- Node1&#45;&gt;Node6 -->
<g id="edge6_Node000001_Node000006" class="edge">
<title>Node1&#45;&gt;Node6</title>
<g id="a_edge6_Node000001_Node000006"><a xlink:title=" ">
<path fill="none" stroke="#63b8ff" d="M292.61,-121.36C277.12,-111.06 256.41,-97.29 240.69,-86.83"/>
<polygon fill="#63b8ff" stroke="#63b8ff" points="242.7,-83.97 232.43,-81.35 238.82,-89.8 242.7,-83.97"/>
</a>
</g>
</g>
<!-- Node7 -->
<g id="Node000007" class="node">
<title>Node7</title>
<g id="a_Node000007"><a xlink:title=" ">
<polygon fill="#e0e0e0" stroke="#999999" points="279.38,-80.12 249.88,-80.12 249.88,-60.88 279.38,-60.88 279.38,-80.12"/>
<text text-anchor="middle" x="264.62" y="-66.62" font-family="Helvetica,sans-Serif" font-size="10.00">set</text>
</a>
</g>
</g>
<!-- Node1&#45;&gt;Node7 -->
<g id="edge7_Node000001_Node000007" class="edge">
<title>Node1&#45;&gt;Node7</title>
<g id="a_edge7_Node000001_Node000007"><a xlink:title=" ">
<path fill="none" stroke="#63b8ff" d="M303.28,-121.36C295.93,-111.89 286.32,-99.48 278.51,-89.41"/>
<polygon fill="#63b8ff" stroke="#63b8ff" points="281.28,-87.28 272.39,-81.52 275.75,-91.57 281.28,-87.28"/>
</a>
</g>
</g>
<!-- Node8 -->
<g id="Node000008" class="node">
<title>Node8</title>
<g id="a_Node000008"><a xlink:title=" ">
<polygon fill="#e0e0e0" stroke="#999999" points="332,-80.12 297.25,-80.12 297.25,-60.88 332,-60.88 332,-80.12"/>
<text text-anchor="middle" x="314.62" y="-66.62" font-family="Helvetica,sans-Serif" font-size="10.00">map</text>
</a>
</g>
</g>
<!-- Node1&#45;&gt;Node8 -->
<g id="edge8_Node000001_Node000008" class="edge">
<title>Node1&#45;&gt;Node8</title>
<g id="a_edge8_Node000001_Node000008"><a xlink:title=" ">
<path fill="none" stroke="#63b8ff" d="M314.62,-121.36C314.62,-112.58 314.62,-101.27 314.62,-91.65"/>
<polygon fill="#63b8ff" stroke="#63b8ff" points="318.13,-91.84 314.63,-81.84 311.13,-91.84 318.13,-91.84"/>
</a>
</g>
</g>
<!-- Node9 -->
<g id="Node000009" class="node">
<title>Node9</title>
<g id="a_Node000009"><a xlink:title=" ">
<polygon fill="#e0e0e0" stroke="#999999" points="400.88,-80.12 350.38,-80.12 350.38,-60.88 400.88,-60.88 400.88,-80.12"/>
<text text-anchor="middle" x="375.62" y="-66.62" font-family="Helvetica,sans-Serif" font-size="10.00">memory</text>
</a>
</g>
</g>
<!-- Node1&#45;&gt;Node9 -->
<g id="edge9_Node000001_Node000009" class="edge">
<title>Node1&#45;&gt;Node9</title>
<g id="a_edge9_Node000001_Node000009"><a xlink:title=" ">
<path fill="none" stroke="#63b8ff" d="M328.47,-121.36C337.71,-111.59 349.9,-98.7 359.57,-88.48"/>
<polygon fill="#63b8ff" stroke="#63b8ff" points="361.91,-91.09 366.24,-81.42 356.83,-86.28 361.91,-91.09"/>
</a>
</g>
</g>
<!-- Node10 -->
<g id="Node000010" class="node">
<title>Node10</title>
<g id="a_Node000010"><a xlink:title=" ">
<polygon fill="#e0e0e0" stroke="#999999" points="530.25,-85.75 419,-85.75 419,-55.25 530.25,-55.25 530.25,-85.75"/>
<text text-anchor="start" x="427" y="-72.25" font-family="Helvetica,sans-Serif" font-size="10.00">boost/date_time/posix</text>
<text text-anchor="middle" x="474.62" y="-61" font-family="Helvetica,sans-Serif" font-size="10.00">_time/ptime.hpp</text>
</a>
</g>
</g>
<!-- Node1&#45;&gt;Node10 -->
<g id="edge10_Node000001_Node000010" class="edge">
<title>Node1&#45;&gt;Node10</title>
<g id="a_edge10_Node000001_Node000010"><a xlink:title=" ">
<path fill="none" stroke="#63b8ff" d="M350.93,-121.36C373.66,-112.2 403.18,-100.3 427.68,-90.43"/>
<polygon fill="#63b8ff" stroke="#63b8ff" points="428.82,-93.74 436.78,-86.76 426.2,-87.25 428.82,-93.74"/>
</a>
</g>
</g>
<!-- Node11 -->
<g id="Node000011" class="node">
<title>Node11</title>
<g id="a_Node000011"><a xlink:title=" ">
<polygon fill="#e0e0e0" stroke="#999999" points="625.38,-80.12 547.88,-80.12 547.88,-60.88 625.38,-60.88 625.38,-80.12"/>
<text text-anchor="middle" x="586.62" y="-66.62" font-family="Helvetica,sans-Serif" font-size="10.00">unordered_set</text>
</a>
</g>
</g>
<!-- Node1&#45;&gt;Node11 -->
<g id="edge11_Node000001_Node000011" class="edge">
<title>Node1&#45;&gt;Node11</title>
<g id="a_edge11_Node000001_Node000011"><a xlink:title=" ">
<path fill="none" stroke="#63b8ff" d="M374.13,-123.98C419.66,-114.47 483.88,-100.4 539.62,-85.75 542.04,-85.12 544.51,-84.44 547,-83.74"/>
<polygon fill="#63b8ff" stroke="#63b8ff" points="547.81,-87.15 556.44,-81.01 545.86,-80.43 547.81,-87.15"/>
</a>
</g>
</g>
<!-- Node12 -->
<g id="Node000012" class="node">
<title>Node12</title>
<g id="a_Node000012"><a xlink:title=" ">
<polygon fill="#e0e0e0" stroke="#999999" points="726,-80.12 643.25,-80.12 643.25,-60.88 726,-60.88 726,-80.12"/>
<text text-anchor="middle" x="684.62" y="-66.62" font-family="Helvetica,sans-Serif" font-size="10.00">unordered_map</text>
</a>
</g>
</g>
<!-- Node1&#45;&gt;Node12 -->
<g id="edge12_Node000001_Node000012" class="edge">
<title>Node1&#45;&gt;Node12</title>
<g id="a_edge12_Node000001_Node000012"><a xlink:title=" ">
<path fill="none" stroke="#63b8ff" d="M374.3,-128.84C438.88,-120.58 544.69,-105.55 634.62,-85.75 637.62,-85.09 640.7,-84.35 643.79,-83.58"/>
<polygon fill="#63b8ff" stroke="#63b8ff" points="644.68,-86.96 653.44,-81 642.87,-80.2 644.68,-86.96"/>
</a>
</g>
</g>
<!-- Node3 -->
<g id="Node000003" class="node">
<title>Node3</title>
<g id="a_Node000003"><a xlink:title=" ">
<polygon fill="#e0e0e0" stroke="#999999" points="57.25,-19.25 0,-19.25 0,0 57.25,0 57.25,-19.25"/>
<text text-anchor="middle" x="28.62" y="-5.75" font-family="Helvetica,sans-Serif" font-size="10.00">exception</text>
</a>
</g>
</g>
<!-- Node2&#45;&gt;Node3 -->
<g id="edge2_Node000002_Node000003" class="edge">
<title>Node2&#45;&gt;Node3</title>
<g id="a_edge2_Node000002_Node000003"><a xlink:title=" ">
<path fill="none" stroke="#63b8ff" d="M87.15,-60.56C76.71,-51.65 60.45,-37.78 47.72,-26.92"/>
<polygon fill="#63b8ff" stroke="#63b8ff" points="50.23,-24.46 40.35,-20.63 45.69,-29.79 50.23,-24.46"/>
</a>
</g>
</g>
<!-- Node2&#45;&gt;Node4 -->
<g id="edge3_Node000002_Node000004" class="edge">
<title>Node2&#45;&gt;Node4</title>
<g id="a_edge3_Node000002_Node000004"><a xlink:title=" ">
<path fill="none" stroke="#63b8ff" d="M109.02,-60.56C120.47,-51.57 138.37,-37.51 152.27,-26.6"/>
<polygon fill="#63b8ff" stroke="#63b8ff" points="154.23,-29.51 159.94,-20.59 149.91,-24.01 154.23,-29.51"/>
</a>
</g>
</g>
<!-- Node5 -->
<g id="Node000005" class="node">
<title>Node5</title>
<g id="a_Node000005"><a xlink:title=" ">
<polygon fill="#e0e0e0" stroke="#999999" points="128.38,-19.25 74.88,-19.25 74.88,0 128.38,0 128.38,-19.25"/>
<text text-anchor="middle" x="101.62" y="-5.75" font-family="Helvetica,sans-Serif" font-size="10.00">iostream</text>
</a>
</g>
</g>
<!-- Node2&#45;&gt;Node5 -->
<g id="edge4_Node000002_Node000005" class="edge">
<title>Node2&#45;&gt;Node5</title>
<g id="a_edge4_Node000002_Node000005"><a xlink:title=" ">
<path fill="none" stroke="#63b8ff" d="M98.23,-60.56C98.77,-52.69 99.56,-40.95 100.25,-30.82"/>
<polygon fill="#63b8ff" stroke="#63b8ff" points="103.72,-31.38 100.91,-21.16 96.74,-30.9 103.72,-31.38"/>
</a>
</g>
</g>
</g>
</svg>
