<?xml version="1.0" encoding="UTF-8" standalone="no"?>
<!DOCTYPE svg PUBLIC "-//W3C//DTD SVG 1.1//EN"
 "http://www.w3.org/Graphics/SVG/1.1/DTD/svg11.dtd">
<!-- Generated by graphviz version 9.0.0 (20230911.1827)
 -->
<!-- Title: sourcecode/okssystem/include/okssystem/File.hpp Pages: 1 -->
<svg width="1003pt" height="172pt"
 viewBox="0.00 0.00 1002.50 171.50" xmlns="http://www.w3.org/2000/svg" xmlns:xlink="http://www.w3.org/1999/xlink">
<g id="graph0" class="graph" transform="scale(1 1) rotate(0) translate(4 167.5)">
<title>sourcecode/okssystem/include/okssystem/File.hpp</title>
<!-- Node1 -->
<g id="Node000001" class="node">
<title>Node1</title>
<g id="a_Node000001"><a xlink:title=" ">
<polygon fill="#999999" stroke="#666666" points="596.62,-163.5 459.88,-163.5 459.88,-133 596.62,-133 596.62,-163.5"/>
<text text-anchor="start" x="467.88" y="-150" font-family="Helvetica,sans-Serif" font-size="10.00">sourcecode/okssystem</text>
<text text-anchor="middle" x="528.25" y="-138.75" font-family="Helvetica,sans-Serif" font-size="10.00">/include/okssystem/File.hpp</text>
</a>
</g>
</g>
<!-- Node2 -->
<g id="Node000002" class="node">
<title>Node2</title>
<g id="a_Node000002"><a xlink:href="Executable_8hpp.html" target="_top" xlink:title=" ">
<polygon fill="white" stroke="#666666" points="612.38,-97 444.12,-97 444.12,-66.5 612.38,-66.5 612.38,-97"/>
<text text-anchor="start" x="452.12" y="-83.5" font-family="Helvetica,sans-Serif" font-size="10.00">sourcecode/okssystem</text>
<text text-anchor="middle" x="528.25" y="-72.25" font-family="Helvetica,sans-Serif" font-size="10.00">/include/okssystem/Executable.hpp</text>
</a>
</g>
</g>
<!-- Node1&#45;&gt;Node2 -->
<g id="edge1_Node000001_Node000002" class="edge">
<title>Node1&#45;&gt;Node2</title>
<g id="a_edge1_Node000001_Node000002"><a xlink:title=" ">
<path fill="none" stroke="#63b8ff" d="M528.25,-121.31C528.25,-113.14 528.25,-104.41 528.25,-97.33"/>
<polygon fill="#63b8ff" stroke="#63b8ff" points="524.75,-121.1 528.25,-131.1 531.75,-121.1 524.75,-121.1"/>
</a>
</g>
</g>
<!-- Node3 -->
<g id="Node000003" class="node">
<title>Node3</title>
<g id="a_Node000003"><a xlink:href="OksSystem_8hpp.html" target="_top" xlink:title=" ">
<polygon fill="white" stroke="#666666" points="306.25,-30.5 134.25,-30.5 134.25,0 306.25,0 306.25,-30.5"/>
<text text-anchor="start" x="142.25" y="-17" font-family="Helvetica,sans-Serif" font-size="10.00">sourcecode/okssystem</text>
<text text-anchor="middle" x="220.25" y="-5.75" font-family="Helvetica,sans-Serif" font-size="10.00">/include/okssystem/OksSystem.hpp</text>
</a>
</g>
</g>
<!-- Node1&#45;&gt;Node3 -->
<g id="edge10_Node000001_Node000003" class="edge">
<title>Node1&#45;&gt;Node3</title>
<g id="a_edge10_Node000001_Node000003"><a xlink:title=" ">
<path fill="none" stroke="#63b8ff" d="M448.44,-138.07C385.3,-129.6 303.26,-115.53 275.25,-97 250.64,-80.72 234.07,-49.26 225.99,-30.78"/>
<polygon fill="#63b8ff" stroke="#63b8ff" points="447.72,-141.5 458.09,-139.34 448.64,-134.56 447.72,-141.5"/>
</a>
</g>
</g>
<!-- Node5 -->
<g id="Node000005" class="node">
<title>Node5</title>
<g id="a_Node000005"><a xlink:href="File_8cpp.html" target="_top" xlink:title=" ">
<polygon fill="white" stroke="#666666" points="710.5,-30.5 594,-30.5 594,0 710.5,0 710.5,-30.5"/>
<text text-anchor="start" x="602" y="-17" font-family="Helvetica,sans-Serif" font-size="10.00">sourcecode/okssystem</text>
<text text-anchor="middle" x="652.25" y="-5.75" font-family="Helvetica,sans-Serif" font-size="10.00">/src/File.cpp</text>
</a>
</g>
</g>
<!-- Node1&#45;&gt;Node5 -->
<g id="edge15_Node000001_Node000005" class="edge">
<title>Node1&#45;&gt;Node5</title>
<g id="a_edge15_Node000001_Node000005"><a xlink:title=" ">
<path fill="none" stroke="#63b8ff" d="M579.83,-127.58C594.75,-119.88 610.03,-109.77 621.25,-97 638.1,-77.82 646.24,-48.51 649.81,-30.97"/>
<polygon fill="#63b8ff" stroke="#63b8ff" points="578.44,-124.36 570.96,-131.87 581.49,-130.66 578.44,-124.36"/>
</a>
</g>
</g>
<!-- Node6 -->
<g id="Node000006" class="node">
<title>Node6</title>
<g id="a_Node000006"><a xlink:href="FIFOConnection_8hpp.html" target="_top" xlink:title=" ">
<polygon fill="white" stroke="#666666" points="860.38,-97 668.12,-97 668.12,-66.5 860.38,-66.5 860.38,-97"/>
<text text-anchor="start" x="676.12" y="-83.5" font-family="Helvetica,sans-Serif" font-size="10.00">sourcecode/okssystem</text>
<text text-anchor="middle" x="764.25" y="-72.25" font-family="Helvetica,sans-Serif" font-size="10.00">/include/okssystem/FIFOConnection.hpp</text>
</a>
</g>
</g>
<!-- Node1&#45;&gt;Node6 -->
<g id="edge5_Node000001_Node000006" class="edge">
<title>Node1&#45;&gt;Node6</title>
<g id="a_edge5_Node000001_Node000006"><a xlink:title=" ">
<path fill="none" stroke="#63b8ff" d="M592.77,-129.62C629.76,-119.51 675.64,-106.97 710.63,-97.4"/>
<polygon fill="#63b8ff" stroke="#63b8ff" points="592.28,-126.12 583.56,-132.13 594.13,-132.87 592.28,-126.12"/>
</a>
</g>
</g>
<!-- Node8 -->
<g id="Node000008" class="node">
<title>Node8</title>
<g id="a_Node000008"><a xlink:href="MapFile_8hpp.html" target="_top" xlink:title=" ">
<polygon fill="white" stroke="#666666" points="228,-97 72.5,-97 72.5,-66.5 228,-66.5 228,-97"/>
<text text-anchor="start" x="80.5" y="-83.5" font-family="Helvetica,sans-Serif" font-size="10.00">sourcecode/okssystem</text>
<text text-anchor="middle" x="150.25" y="-72.25" font-family="Helvetica,sans-Serif" font-size="10.00">/include/okssystem/MapFile.hpp</text>
</a>
</g>
</g>
<!-- Node1&#45;&gt;Node8 -->
<g id="edge7_Node000001_Node000008" class="edge">
<title>Node1&#45;&gt;Node8</title>
<g id="a_edge7_Node000001_Node000008"><a xlink:title=" ">
<path fill="none" stroke="#63b8ff" d="M448.81,-133.7C383.95,-122.63 292.79,-107.07 228.31,-96.07"/>
<polygon fill="#63b8ff" stroke="#63b8ff" points="447.86,-137.08 458.31,-135.31 449.04,-130.18 447.86,-137.08"/>
</a>
</g>
</g>
<!-- Node10 -->
<g id="Node000010" class="node">
<title>Node10</title>
<g id="a_Node000010"><a xlink:href="Path_8hpp.html" target="_top" xlink:title=" ">
<polygon fill="white" stroke="#666666" points="425.88,-97 284.62,-97 284.62,-66.5 425.88,-66.5 425.88,-97"/>
<text text-anchor="start" x="292.62" y="-83.5" font-family="Helvetica,sans-Serif" font-size="10.00">sourcecode/okssystem</text>
<text text-anchor="middle" x="355.25" y="-72.25" font-family="Helvetica,sans-Serif" font-size="10.00">/include/okssystem/Path.hpp</text>
</a>
</g>
</g>
<!-- Node1&#45;&gt;Node10 -->
<g id="edge11_Node000001_Node000010" class="edge">
<title>Node1&#45;&gt;Node10</title>
<g id="a_edge11_Node000001_Node000010"><a xlink:title=" ">
<path fill="none" stroke="#63b8ff" d="M478.35,-128.65C451.75,-118.73 419.48,-106.7 394.65,-97.44"/>
<polygon fill="#63b8ff" stroke="#63b8ff" points="476.98,-131.87 487.58,-132.09 479.43,-125.31 476.98,-131.87"/>
</a>
</g>
</g>
<!-- Node12 -->
<g id="Node000012" class="node">
<title>Node12</title>
<g id="a_Node000012"><a xlink:href="Descriptor_8cpp.html" target="_top" xlink:title=" ">
<polygon fill="white" stroke="#666666" points="994.5,-97 878,-97 878,-66.5 994.5,-66.5 994.5,-97"/>
<text text-anchor="start" x="886" y="-83.5" font-family="Helvetica,sans-Serif" font-size="10.00">sourcecode/okssystem</text>
<text text-anchor="middle" x="936.25" y="-72.25" font-family="Helvetica,sans-Serif" font-size="10.00">/src/Descriptor.cpp</text>
</a>
</g>
</g>
<!-- Node1&#45;&gt;Node12 -->
<g id="edge14_Node000001_Node000012" class="edge">
<title>Node1&#45;&gt;Node12</title>
<g id="a_edge14_Node000001_Node000012"><a xlink:title=" ">
<path fill="none" stroke="#63b8ff" d="M608.28,-136.91C677.54,-127.62 780.26,-113 869.25,-97 872.06,-96.49 874.93,-95.96 877.83,-95.4"/>
<polygon fill="#63b8ff" stroke="#63b8ff" points="607.99,-133.42 598.54,-138.21 608.91,-140.36 607.99,-133.42"/>
</a>
</g>
</g>
<!-- Node2&#45;&gt;Node3 -->
<g id="edge2_Node000002_Node000003" class="edge">
<title>Node2&#45;&gt;Node3</title>
<g id="a_edge2_Node000002_Node000003"><a xlink:title=" ">
<path fill="none" stroke="#63b8ff" d="M446.85,-63.7C398.2,-53.51 337.01,-40.7 290.49,-30.96"/>
<polygon fill="#63b8ff" stroke="#63b8ff" points="445.99,-67.1 456.49,-65.72 447.42,-60.25 445.99,-67.1"/>
</a>
</g>
</g>
<!-- Node4 -->
<g id="Node000004" class="node">
<title>Node4</title>
<g id="a_Node000004"><a xlink:href="Executable_8cpp.html" target="_top" xlink:title=" ">
<polygon fill="white" stroke="#666666" points="575.5,-30.5 459,-30.5 459,0 575.5,0 575.5,-30.5"/>
<text text-anchor="start" x="467" y="-17" font-family="Helvetica,sans-Serif" font-size="10.00">sourcecode/okssystem</text>
<text text-anchor="middle" x="517.25" y="-5.75" font-family="Helvetica,sans-Serif" font-size="10.00">/src/Executable.cpp</text>
</a>
</g>
</g>
<!-- Node2&#45;&gt;Node4 -->
<g id="edge3_Node000002_Node000004" class="edge">
<title>Node2&#45;&gt;Node4</title>
<g id="a_edge3_Node000002_Node000004"><a xlink:title=" ">
<path fill="none" stroke="#63b8ff" d="M523.83,-54.81C522.43,-46.64 520.94,-37.91 519.74,-30.83"/>
<polygon fill="#63b8ff" stroke="#63b8ff" points="520.37,-55.35 525.5,-64.62 527.27,-54.18 520.37,-55.35"/>
</a>
</g>
</g>
<!-- Node2&#45;&gt;Node5 -->
<g id="edge4_Node000002_Node000005" class="edge">
<title>Node2&#45;&gt;Node5</title>
<g id="a_edge4_Node000002_Node000005"><a xlink:title=" ">
<path fill="none" stroke="#63b8ff" d="M566.36,-60.93C585.03,-51.21 607.12,-39.72 624.22,-30.83"/>
<polygon fill="#63b8ff" stroke="#63b8ff" points="564.99,-57.7 557.73,-65.42 568.22,-63.91 564.99,-57.7"/>
</a>
</g>
</g>
<!-- Node7 -->
<g id="Node000007" class="node">
<title>Node7</title>
<g id="a_Node000007"><a xlink:href="FIFOConnection_8cpp.html" target="_top" xlink:title=" ">
<polygon fill="white" stroke="#666666" points="853.62,-30.5 728.88,-30.5 728.88,0 853.62,0 853.62,-30.5"/>
<text text-anchor="start" x="736.88" y="-17" font-family="Helvetica,sans-Serif" font-size="10.00">sourcecode/okssystem</text>
<text text-anchor="middle" x="791.25" y="-5.75" font-family="Helvetica,sans-Serif" font-size="10.00">/src/FIFOConnection.cpp</text>
</a>
</g>
</g>
<!-- Node6&#45;&gt;Node7 -->
<g id="edge6_Node000006_Node000007" class="edge">
<title>Node6&#45;&gt;Node7</title>
<g id="a_edge6_Node000006_Node000007"><a xlink:title=" ">
<path fill="none" stroke="#63b8ff" d="M774.75,-55.66C778.27,-47.25 782.08,-38.16 785.15,-30.83"/>
<polygon fill="#63b8ff" stroke="#63b8ff" points="771.59,-54.14 770.96,-64.72 778.05,-56.84 771.59,-54.14"/>
</a>
</g>
</g>
<!-- Node8&#45;&gt;Node3 -->
<g id="edge8_Node000008_Node000003" class="edge">
<title>Node8&#45;&gt;Node3</title>
<g id="a_edge8_Node000008_Node000003"><a xlink:title=" ">
<path fill="none" stroke="#63b8ff" d="M174.44,-58.46C184.36,-49.32 195.58,-38.98 204.43,-30.83"/>
<polygon fill="#63b8ff" stroke="#63b8ff" points="172.23,-55.74 167.25,-65.09 176.97,-60.89 172.23,-55.74"/>
</a>
</g>
</g>
<!-- Node9 -->
<g id="Node000009" class="node">
<title>Node9</title>
<g id="a_Node000009"><a xlink:href="MapFile_8cpp.html" target="_top" xlink:title=" ">
<polygon fill="white" stroke="#666666" points="116.5,-30.5 0,-30.5 0,0 116.5,0 116.5,-30.5"/>
<text text-anchor="start" x="8" y="-17" font-family="Helvetica,sans-Serif" font-size="10.00">sourcecode/okssystem</text>
<text text-anchor="middle" x="58.25" y="-5.75" font-family="Helvetica,sans-Serif" font-size="10.00">/src/MapFile.cpp</text>
</a>
</g>
</g>
<!-- Node8&#45;&gt;Node9 -->
<g id="edge9_Node000008_Node000009" class="edge">
<title>Node8&#45;&gt;Node9</title>
<g id="a_edge9_Node000008_Node000009"><a xlink:title=" ">
<path fill="none" stroke="#63b8ff" d="M120.04,-59.57C106.61,-50.16 91.14,-39.31 79.04,-30.83"/>
<polygon fill="#63b8ff" stroke="#63b8ff" points="117.94,-62.37 128.13,-65.25 121.96,-56.64 117.94,-62.37"/>
</a>
</g>
</g>
<!-- Node10&#45;&gt;Node3 -->
<g id="edge12_Node000010_Node000003" class="edge">
<title>Node10&#45;&gt;Node3</title>
<g id="a_edge12_Node000010_Node000003"><a xlink:title=" ">
<path fill="none" stroke="#63b8ff" d="M314.33,-61.2C293.88,-51.43 269.55,-39.81 250.76,-30.83"/>
<polygon fill="#63b8ff" stroke="#63b8ff" points="312.72,-64.31 323.25,-65.46 315.74,-57.99 312.72,-64.31"/>
</a>
</g>
</g>
<!-- Node11 -->
<g id="Node000011" class="node">
<title>Node11</title>
<g id="a_Node000011"><a xlink:href="Path_8cpp.html" target="_top" xlink:title=" ">
<polygon fill="white" stroke="#666666" points="440.5,-30.5 324,-30.5 324,0 440.5,0 440.5,-30.5"/>
<text text-anchor="start" x="332" y="-17" font-family="Helvetica,sans-Serif" font-size="10.00">sourcecode/okssystem</text>
<text text-anchor="middle" x="382.25" y="-5.75" font-family="Helvetica,sans-Serif" font-size="10.00">/src/Path.cpp</text>
</a>
</g>
</g>
<!-- Node10&#45;&gt;Node11 -->
<g id="edge13_Node000010_Node000011" class="edge">
<title>Node10&#45;&gt;Node11</title>
<g id="a_edge13_Node000010_Node000011"><a xlink:title=" ">
<path fill="none" stroke="#63b8ff" d="M365.75,-55.66C369.27,-47.25 373.08,-38.16 376.15,-30.83"/>
<polygon fill="#63b8ff" stroke="#63b8ff" points="362.59,-54.14 361.96,-64.72 369.05,-56.84 362.59,-54.14"/>
</a>
</g>
</g>
</g>
</svg>
