<?xml version="1.0" encoding="UTF-8" standalone="no"?>
<!DOCTYPE svg PUBLIC "-//W3C//DTD SVG 1.1//EN"
 "http://www.w3.org/Graphics/SVG/1.1/DTD/svg11.dtd">
<!-- Generated by graphviz version 9.0.0 (20230911.1827)
 -->
<!-- Title: sourcecode/dbe/include/dbe/FileModel.hpp Pages: 1 -->
<svg width="1537pt" height="238pt"
 viewBox="0.00 0.00 1537.25 238.00" xmlns="http://www.w3.org/2000/svg" xmlns:xlink="http://www.w3.org/1999/xlink">
<g id="graph0" class="graph" transform="scale(1 1) rotate(0) translate(4 234)">
<title>sourcecode/dbe/include/dbe/FileModel.hpp</title>
<!-- Node1 -->
<g id="Node000001" class="node">
<title>Node1</title>
<g id="a_Node000001"><a xlink:title=" ">
<polygon fill="#999999" stroke="#666666" points="1067,-230 948.25,-230 948.25,-199.5 1067,-199.5 1067,-230"/>
<text text-anchor="start" x="956.25" y="-216.5" font-family="Helvetica,sans-Serif" font-size="10.00">sourcecode/dbe/include</text>
<text text-anchor="middle" x="1007.63" y="-205.25" font-family="Helvetica,sans-Serif" font-size="10.00">/dbe/FileModel.hpp</text>
</a>
</g>
</g>
<!-- Node2 -->
<g id="Node000002" class="node">
<title>Node2</title>
<g id="a_Node000002"><a xlink:href="MainWindow_8hpp.html" target="_top" xlink:title=" ">
<polygon fill="white" stroke="#666666" points="642,-163.5 523.25,-163.5 523.25,-133 642,-133 642,-163.5"/>
<text text-anchor="start" x="531.25" y="-150" font-family="Helvetica,sans-Serif" font-size="10.00">sourcecode/dbe/include</text>
<text text-anchor="middle" x="582.63" y="-138.75" font-family="Helvetica,sans-Serif" font-size="10.00">/dbe/MainWindow.hpp</text>
</a>
</g>
</g>
<!-- Node1&#45;&gt;Node2 -->
<g id="edge1_Node000001_Node000002" class="edge">
<title>Node1&#45;&gt;Node2</title>
<g id="a_edge1_Node000001_Node000002"><a xlink:title=" ">
<path fill="none" stroke="#63b8ff" d="M936.82,-203C854.43,-190.5 719.83,-170.07 642.45,-158.33"/>
<polygon fill="#63b8ff" stroke="#63b8ff" points="936.18,-206.45 946.59,-204.49 937.23,-199.53 936.18,-206.45"/>
</a>
</g>
</g>
<!-- Node8 -->
<g id="Node000008" class="node">
<title>Node8</title>
<g id="a_Node000008"><a xlink:href="FileModel_8cpp.html" target="_top" xlink:title=" ">
<polygon fill="white" stroke="#666666" points="809.75,-97 689.5,-97 689.5,-66.5 809.75,-66.5 809.75,-97"/>
<text text-anchor="start" x="697.5" y="-83.5" font-family="Helvetica,sans-Serif" font-size="10.00">sourcecode/dbe/src</text>
<text text-anchor="middle" x="749.63" y="-72.25" font-family="Helvetica,sans-Serif" font-size="10.00">/structure/FileModel.cpp</text>
</a>
</g>
</g>
<!-- Node1&#45;&gt;Node8 -->
<g id="edge24_Node000001_Node000008" class="edge">
<title>Node1&#45;&gt;Node8</title>
<g id="a_edge24_Node000001_Node000008"><a xlink:title=" ">
<path fill="none" stroke="#63b8ff" d="M968.82,-194.05C916.58,-167.52 824.83,-120.94 778.35,-97.33"/>
<polygon fill="#63b8ff" stroke="#63b8ff" points="967.18,-197.14 977.68,-198.54 970.35,-190.9 967.18,-197.14"/>
</a>
</g>
</g>
<!-- Node12 -->
<g id="Node000012" class="node">
<title>Node12</title>
<g id="a_Node000012"><a xlink:href="ObjectCreator_8hpp.html" target="_top" xlink:title=" ">
<polygon fill="white" stroke="#666666" points="1350,-97 1231.25,-97 1231.25,-66.5 1350,-66.5 1350,-97"/>
<text text-anchor="start" x="1239.25" y="-83.5" font-family="Helvetica,sans-Serif" font-size="10.00">sourcecode/dbe/include</text>
<text text-anchor="middle" x="1290.63" y="-72.25" font-family="Helvetica,sans-Serif" font-size="10.00">/dbe/ObjectCreator.hpp</text>
</a>
</g>
</g>
<!-- Node1&#45;&gt;Node12 -->
<g id="edge11_Node000001_Node000012" class="edge">
<title>Node1&#45;&gt;Node12</title>
<g id="a_edge11_Node000001_Node000012"><a xlink:title=" ">
<path fill="none" stroke="#63b8ff" d="M1074.49,-195.82C1102.06,-187.44 1133.96,-176.43 1161.63,-163.5 1202.56,-144.36 1246.36,-114.76 1270.94,-97.22"/>
<polygon fill="#63b8ff" stroke="#63b8ff" points="1073.8,-192.37 1065.21,-198.58 1075.8,-199.08 1073.8,-192.37"/>
</a>
</g>
</g>
<!-- Node15 -->
<g id="Node000015" class="node">
<title>Node15</title>
<g id="a_Node000015"><a xlink:href="ObjectEditor_8hpp.html" target="_top" xlink:title=" ">
<polygon fill="white" stroke="#666666" points="1153,-163.5 1034.25,-163.5 1034.25,-133 1153,-133 1153,-163.5"/>
<text text-anchor="start" x="1042.25" y="-150" font-family="Helvetica,sans-Serif" font-size="10.00">sourcecode/dbe/include</text>
<text text-anchor="middle" x="1093.63" y="-138.75" font-family="Helvetica,sans-Serif" font-size="10.00">/dbe/ObjectEditor.hpp</text>
</a>
</g>
</g>
<!-- Node1&#45;&gt;Node15 -->
<g id="edge17_Node000001_Node000015" class="edge">
<title>Node1&#45;&gt;Node15</title>
<g id="a_edge17_Node000001_Node000015"><a xlink:title=" ">
<path fill="none" stroke="#63b8ff" d="M1036.24,-192.29C1048.7,-182.94 1062.99,-172.23 1074.19,-163.83"/>
<polygon fill="#63b8ff" stroke="#63b8ff" points="1034.25,-189.41 1028.35,-198.21 1038.45,-195.01 1034.25,-189.41"/>
</a>
</g>
</g>
<!-- Node3 -->
<g id="Node000003" class="node">
<title>Node3</title>
<g id="a_Node000003"><a xlink:href="Main_8cpp.html" target="_top" xlink:title=" ">
<polygon fill="white" stroke="#666666" points="595.13,-97 486.13,-97 486.13,-66.5 595.13,-66.5 595.13,-97"/>
<text text-anchor="start" x="494.13" y="-83.5" font-family="Helvetica,sans-Serif" font-size="10.00">sourcecode/dbe/apps</text>
<text text-anchor="middle" x="540.63" y="-72.25" font-family="Helvetica,sans-Serif" font-size="10.00">/Main.cpp</text>
</a>
</g>
</g>
<!-- Node2&#45;&gt;Node3 -->
<g id="edge2_Node000002_Node000003" class="edge">
<title>Node2&#45;&gt;Node3</title>
<g id="a_edge2_Node000002_Node000003"><a xlink:title=" ">
<path fill="none" stroke="#63b8ff" d="M566.84,-123.01C561.22,-114.37 555.05,-104.91 550.12,-97.33"/>
<polygon fill="#63b8ff" stroke="#63b8ff" points="563.88,-124.88 572.27,-131.35 569.75,-121.06 563.88,-124.88"/>
</a>
</g>
</g>
<!-- Node4 -->
<g id="Node000004" class="node">
<title>Node4</title>
<g id="a_Node000004"><a xlink:href="TableTab_8cpp.html" target="_top" xlink:title=" ">
<polygon fill="white" stroke="#666666" points="468.38,-97 366.88,-97 366.88,-66.5 468.38,-66.5 468.38,-97"/>
<text text-anchor="start" x="374.88" y="-83.5" font-family="Helvetica,sans-Serif" font-size="10.00">sourcecode/dbe/src</text>
<text text-anchor="middle" x="417.63" y="-72.25" font-family="Helvetica,sans-Serif" font-size="10.00">/TableTab.cpp</text>
</a>
</g>
</g>
<!-- Node2&#45;&gt;Node4 -->
<g id="edge3_Node000002_Node000004" class="edge">
<title>Node2&#45;&gt;Node4</title>
<g id="a_edge3_Node000002_Node000004"><a xlink:title=" ">
<path fill="none" stroke="#63b8ff" d="M534.7,-128.51C509.39,-118.62 478.78,-106.65 455.21,-97.44"/>
<polygon fill="#63b8ff" stroke="#63b8ff" points="533.19,-131.68 543.78,-132.06 535.74,-125.16 533.19,-131.68"/>
</a>
</g>
</g>
<!-- Node5 -->
<g id="Node000005" class="node">
<title>Node5</title>
<g id="a_Node000005"><a xlink:href="GraphView_8cpp.html" target="_top" xlink:title=" ">
<polygon fill="white" stroke="#666666" points="1061.13,-30.5 934.13,-30.5 934.13,0 1061.13,0 1061.13,-30.5"/>
<text text-anchor="start" x="942.13" y="-17" font-family="Helvetica,sans-Serif" font-size="10.00">sourcecode/dbe/src</text>
<text text-anchor="middle" x="997.63" y="-5.75" font-family="Helvetica,sans-Serif" font-size="10.00">/graphical/GraphView.cpp</text>
</a>
</g>
</g>
<!-- Node2&#45;&gt;Node5 -->
<g id="edge4_Node000002_Node000005" class="edge">
<title>Node2&#45;&gt;Node5</title>
<g id="a_edge4_Node000002_Node000005"><a xlink:title=" ">
<path fill="none" stroke="#63b8ff" d="M595.4,-122.82C606.55,-104.13 624.56,-79.43 647.63,-66.5 756.31,-5.58 802.67,-50.61 925.63,-30.5 928.27,-30.07 930.96,-29.61 933.68,-29.14"/>
<polygon fill="#63b8ff" stroke="#63b8ff" points="592.41,-121 590.53,-131.42 598.5,-124.45 592.41,-121"/>
</a>
</g>
</g>
<!-- Node6 -->
<g id="Node000006" class="node">
<title>Node6</title>
<g id="a_Node000006"><a xlink:href="MainWindow_8cpp.html" target="_top" xlink:title=" ">
<polygon fill="white" stroke="#666666" points="1206.13,-30.5 1079.13,-30.5 1079.13,0 1206.13,0 1206.13,-30.5"/>
<text text-anchor="start" x="1087.13" y="-17" font-family="Helvetica,sans-Serif" font-size="10.00">sourcecode/dbe/src</text>
<text text-anchor="middle" x="1142.63" y="-5.75" font-family="Helvetica,sans-Serif" font-size="10.00">/internal/MainWindow.cpp</text>
</a>
</g>
</g>
<!-- Node2&#45;&gt;Node6 -->
<g id="edge5_Node000002_Node000006" class="edge">
<title>Node2&#45;&gt;Node6</title>
<g id="a_edge5_Node000002_Node000006"><a xlink:title=" ">
<path fill="none" stroke="#63b8ff" d="M610.36,-125.56C621.42,-116.79 634.21,-106.52 645.63,-97 661.47,-83.79 661.66,-74.62 680.63,-66.5 840.66,1.99 898.35,-55.43 1070.63,-30.5 1073.28,-30.12 1075.97,-29.7 1078.7,-29.26"/>
<polygon fill="#63b8ff" stroke="#63b8ff" points="608.42,-122.63 602.73,-131.57 612.75,-128.13 608.42,-122.63"/>
</a>
</g>
</g>
<!-- Node7 -->
<g id="Node000007" class="node">
<title>Node7</title>
<g id="a_Node000007"><a xlink:href="CustomTableView_8cpp.html" target="_top" xlink:title=" ">
<polygon fill="white" stroke="#666666" points="916.5,-30.5 758.75,-30.5 758.75,0 916.5,0 916.5,-30.5"/>
<text text-anchor="start" x="766.75" y="-17" font-family="Helvetica,sans-Serif" font-size="10.00">sourcecode/dbe/src</text>
<text text-anchor="middle" x="837.63" y="-5.75" font-family="Helvetica,sans-Serif" font-size="10.00">/structure/CustomTableView.cpp</text>
</a>
</g>
</g>
<!-- Node2&#45;&gt;Node7 -->
<g id="edge6_Node000002_Node000007" class="edge">
<title>Node2&#45;&gt;Node7</title>
<g id="a_edge6_Node000002_Node000007"><a xlink:title=" ">
<path fill="none" stroke="#63b8ff" d="M511.48,-147.86C342.92,-148.11 -61.58,-141.1 8.63,-66.5 34.09,-39.45 556,-23.38 758.39,-18.15"/>
<polygon fill="#63b8ff" stroke="#63b8ff" points="511.46,-151.36 521.45,-147.84 511.44,-144.36 511.46,-151.36"/>
</a>
</g>
</g>
<!-- Node2&#45;&gt;Node8 -->
<g id="edge7_Node000002_Node000008" class="edge">
<title>Node2&#45;&gt;Node8</title>
<g id="a_edge7_Node000002_Node000008"><a xlink:title=" ">
<path fill="none" stroke="#63b8ff" d="M631.14,-128.51C656.75,-118.62 687.74,-106.65 711.59,-97.44"/>
<polygon fill="#63b8ff" stroke="#63b8ff" points="630,-125.2 621.93,-132.07 632.52,-131.73 630,-125.2"/>
</a>
</g>
</g>
<!-- Node9 -->
<g id="Node000009" class="node">
<title>Node9</title>
<g id="a_Node000009"><a xlink:href="BatchChangeWidget_8cpp.html" target="_top" xlink:title=" ">
<polygon fill="white" stroke="#666666" points="179.75,-97 17.5,-97 17.5,-66.5 179.75,-66.5 179.75,-97"/>
<text text-anchor="start" x="25.5" y="-83.5" font-family="Helvetica,sans-Serif" font-size="10.00">sourcecode/dbe/src</text>
<text text-anchor="middle" x="98.63" y="-72.25" font-family="Helvetica,sans-Serif" font-size="10.00">/widgets/BatchChangeWidget.cpp</text>
</a>
</g>
</g>
<!-- Node2&#45;&gt;Node9 -->
<g id="edge8_Node000002_Node000009" class="edge">
<title>Node2&#45;&gt;Node9</title>
<g id="a_edge8_Node000002_Node000009"><a xlink:title=" ">
<path fill="none" stroke="#63b8ff" d="M511.55,-138.84C432.58,-129.34 301.35,-113.11 188.63,-97 185.81,-96.6 182.94,-96.18 180.05,-95.75"/>
<polygon fill="#63b8ff" stroke="#63b8ff" points="510.96,-142.29 521.31,-140.01 511.8,-135.34 510.96,-142.29"/>
</a>
</g>
</g>
<!-- Node10 -->
<g id="Node000010" class="node">
<title>Node10</title>
<g id="a_Node000010"><a xlink:href="IncludeFileWidget_8cpp.html" target="_top" xlink:title=" ">
<polygon fill="white" stroke="#666666" points="349.13,-97 198.13,-97 198.13,-66.5 349.13,-66.5 349.13,-97"/>
<text text-anchor="start" x="206.13" y="-83.5" font-family="Helvetica,sans-Serif" font-size="10.00">sourcecode/dbe/src</text>
<text text-anchor="middle" x="273.63" y="-72.25" font-family="Helvetica,sans-Serif" font-size="10.00">/widgets/IncludeFileWidget.cpp</text>
</a>
</g>
</g>
<!-- Node2&#45;&gt;Node10 -->
<g id="edge9_Node000002_Node000010" class="edge">
<title>Node2&#45;&gt;Node10</title>
<g id="a_edge9_Node000002_Node000010"><a xlink:title=" ">
<path fill="none" stroke="#63b8ff" d="M511.95,-132.5C461.65,-122 394.37,-107.95 344.12,-97.46"/>
<polygon fill="#63b8ff" stroke="#63b8ff" points="511.06,-135.89 521.57,-134.5 512.49,-129.03 511.06,-135.89"/>
</a>
</g>
</g>
<!-- Node11 -->
<g id="Node000011" class="node">
<title>Node11</title>
<g id="a_Node000011"><a xlink:href="ObjectEditor_8cpp.html" target="_top" xlink:title=" ">
<polygon fill="white" stroke="#666666" points="955.13,-97 828.13,-97 828.13,-66.5 955.13,-66.5 955.13,-97"/>
<text text-anchor="start" x="836.13" y="-83.5" font-family="Helvetica,sans-Serif" font-size="10.00">sourcecode/dbe/src</text>
<text text-anchor="middle" x="891.63" y="-72.25" font-family="Helvetica,sans-Serif" font-size="10.00">/widgets/ObjectEditor.cpp</text>
</a>
</g>
</g>
<!-- Node2&#45;&gt;Node11 -->
<g id="edge10_Node000002_Node000011" class="edge">
<title>Node2&#45;&gt;Node11</title>
<g id="a_edge10_Node000002_Node000011"><a xlink:title=" ">
<path fill="none" stroke="#63b8ff" d="M653.45,-132.47C705.96,-121.51 776.92,-106.69 827.71,-96.09"/>
<polygon fill="#63b8ff" stroke="#63b8ff" points="652.76,-129.03 643.69,-134.5 654.19,-135.89 652.76,-129.03"/>
</a>
</g>
</g>
<!-- Node12&#45;&gt;Node5 -->
<g id="edge12_Node000012_Node000005" class="edge">
<title>Node12&#45;&gt;Node5</title>
<g id="a_edge12_Node000012_Node000005"><a xlink:title=" ">
<path fill="none" stroke="#63b8ff" d="M1219.99,-65.2C1171.72,-54.57 1108.27,-40.61 1061.51,-30.31"/>
<polygon fill="#63b8ff" stroke="#63b8ff" points="1218.99,-68.56 1229.5,-67.29 1220.49,-61.73 1218.99,-68.56"/>
</a>
</g>
</g>
<!-- Node12&#45;&gt;Node6 -->
<g id="edge13_Node000012_Node000006" class="edge">
<title>Node12&#45;&gt;Node6</title>
<g id="a_edge13_Node000012_Node000006"><a xlink:title=" ">
<path fill="none" stroke="#63b8ff" d="M1246.72,-61.62C1224.2,-51.8 1197.19,-40.03 1176.33,-30.94"/>
<polygon fill="#63b8ff" stroke="#63b8ff" points="1245.09,-64.72 1255.66,-65.51 1247.89,-58.31 1245.09,-64.72"/>
</a>
</g>
</g>
<!-- Node12&#45;&gt;Node7 -->
<g id="edge14_Node000012_Node000007" class="edge">
<title>Node12&#45;&gt;Node7</title>
<g id="a_edge14_Node000012_Node000007"><a xlink:title=" ">
<path fill="none" stroke="#63b8ff" d="M1219.57,-71.09C1121.39,-57.74 953.07,-34.78 924.63,-30.5 922.06,-30.11 919.44,-29.71 916.8,-29.31"/>
<polygon fill="#63b8ff" stroke="#63b8ff" points="1219.01,-74.55 1229.39,-72.43 1219.95,-67.61 1219.01,-74.55"/>
</a>
</g>
</g>
<!-- Node13 -->
<g id="Node000013" class="node">
<title>Node13</title>
<g id="a_Node000013"><a xlink:href="CustomTreeView_8cpp.html" target="_top" xlink:title=" ">
<polygon fill="white" stroke="#666666" points="1529.25,-30.5 1376,-30.5 1376,0 1529.25,0 1529.25,-30.5"/>
<text text-anchor="start" x="1384" y="-17" font-family="Helvetica,sans-Serif" font-size="10.00">sourcecode/dbe/src</text>
<text text-anchor="middle" x="1452.63" y="-5.75" font-family="Helvetica,sans-Serif" font-size="10.00">/structure/CustomTreeView.cpp</text>
</a>
</g>
</g>
<!-- Node12&#45;&gt;Node13 -->
<g id="edge15_Node000012_Node000013" class="edge">
<title>Node12&#45;&gt;Node13</title>
<g id="a_edge15_Node000012_Node000013"><a xlink:title=" ">
<path fill="none" stroke="#63b8ff" d="M1338.02,-61.88C1362.8,-52.01 1392.69,-40.11 1415.73,-30.94"/>
<polygon fill="#63b8ff" stroke="#63b8ff" points="1336.79,-58.6 1328.79,-65.55 1339.38,-65.11 1336.79,-58.6"/>
</a>
</g>
</g>
<!-- Node14 -->
<g id="Node000014" class="node">
<title>Node14</title>
<g id="a_Node000014"><a xlink:href="ObjectCreator_8cpp.html" target="_top" xlink:title=" ">
<polygon fill="white" stroke="#666666" points="1357.5,-30.5 1223.75,-30.5 1223.75,0 1357.5,0 1357.5,-30.5"/>
<text text-anchor="start" x="1231.75" y="-17" font-family="Helvetica,sans-Serif" font-size="10.00">sourcecode/dbe/src</text>
<text text-anchor="middle" x="1290.63" y="-5.75" font-family="Helvetica,sans-Serif" font-size="10.00">/widgets/ObjectCreator.cpp</text>
</a>
</g>
</g>
<!-- Node12&#45;&gt;Node14 -->
<g id="edge16_Node000012_Node000014" class="edge">
<title>Node12&#45;&gt;Node14</title>
<g id="a_edge16_Node000012_Node000014"><a xlink:title=" ">
<path fill="none" stroke="#63b8ff" d="M1290.63,-54.81C1290.63,-46.64 1290.63,-37.91 1290.63,-30.83"/>
<polygon fill="#63b8ff" stroke="#63b8ff" points="1287.13,-54.6 1290.63,-64.6 1294.13,-54.6 1287.13,-54.6"/>
</a>
</g>
</g>
<!-- Node15&#45;&gt;Node6 -->
<g id="edge19_Node000015_Node000006" class="edge">
<title>Node15&#45;&gt;Node6</title>
<g id="a_edge19_Node000015_Node000006"><a xlink:title=" ">
<path fill="none" stroke="#63b8ff" d="M1150.62,-127.7C1164.09,-120.26 1176.8,-110.26 1184.63,-97 1197.96,-74.41 1176.34,-47.16 1159.49,-30.8"/>
<polygon fill="#63b8ff" stroke="#63b8ff" points="1149.44,-124.38 1142.08,-132 1152.59,-130.63 1149.44,-124.38"/>
</a>
</g>
</g>
<!-- Node15&#45;&gt;Node7 -->
<g id="edge20_Node000015_Node000007" class="edge">
<title>Node15&#45;&gt;Node7</title>
<g id="a_edge20_Node000015_Node000007"><a xlink:title=" ">
<path fill="none" stroke="#63b8ff" d="M1054.43,-127.08C1038.36,-118.37 1019.77,-107.72 1003.63,-97 985.3,-84.82 983.72,-77.44 964.63,-66.5 939.12,-51.88 908.52,-39.64 883.75,-30.89"/>
<polygon fill="#63b8ff" stroke="#63b8ff" points="1052.78,-130.16 1063.25,-131.79 1056.08,-123.99 1052.78,-130.16"/>
</a>
</g>
</g>
<!-- Node15&#45;&gt;Node11 -->
<g id="edge23_Node000015_Node000011" class="edge">
<title>Node15&#45;&gt;Node11</title>
<g id="a_edge23_Node000015_Node000011"><a xlink:title=" ">
<path fill="none" stroke="#63b8ff" d="M1036.76,-129.09C1005.4,-119.08 966.96,-106.8 937.52,-97.4"/>
<polygon fill="#63b8ff" stroke="#63b8ff" points="1035.51,-132.37 1046.1,-132.07 1037.64,-125.7 1035.51,-132.37"/>
</a>
</g>
</g>
<!-- Node15&#45;&gt;Node12 -->
<g id="edge18_Node000015_Node000012" class="edge">
<title>Node15&#45;&gt;Node12</title>
<g id="a_edge18_Node000015_Node000012"><a xlink:title=" ">
<path fill="none" stroke="#63b8ff" d="M1149.24,-129.04C1179.76,-119.05 1217.12,-106.82 1245.76,-97.44"/>
<polygon fill="#63b8ff" stroke="#63b8ff" points="1148.18,-125.71 1139.77,-132.14 1150.36,-132.36 1148.18,-125.71"/>
</a>
</g>
</g>
<!-- Node15&#45;&gt;Node13 -->
<g id="edge21_Node000015_Node000013" class="edge">
<title>Node15&#45;&gt;Node13</title>
<g id="a_edge21_Node000015_Node000013"><a xlink:title=" ">
<path fill="none" stroke="#63b8ff" d="M1164.92,-143.75C1220.12,-138.72 1297.27,-126.53 1358.63,-97 1392.36,-80.77 1423.66,-49.3 1440.26,-30.8"/>
<polygon fill="#63b8ff" stroke="#63b8ff" points="1164.66,-140.26 1154.99,-144.59 1165.25,-147.24 1164.66,-140.26"/>
</a>
</g>
</g>
<!-- Node16 -->
<g id="Node000016" class="node">
<title>Node16</title>
<g id="a_Node000016"><a xlink:href="BuildingBlockEditors_8cpp.html" target="_top" xlink:title=" ">
<polygon fill="white" stroke="#666666" points="1175.13,-97 1012.13,-97 1012.13,-66.5 1175.13,-66.5 1175.13,-97"/>
<text text-anchor="start" x="1020.13" y="-83.5" font-family="Helvetica,sans-Serif" font-size="10.00">sourcecode/dbe/src</text>
<text text-anchor="middle" x="1093.63" y="-72.25" font-family="Helvetica,sans-Serif" font-size="10.00">/widgets/BuildingBlockEditors.cpp</text>
</a>
</g>
</g>
<!-- Node15&#45;&gt;Node16 -->
<g id="edge22_Node000015_Node000016" class="edge">
<title>Node15&#45;&gt;Node16</title>
<g id="a_edge22_Node000015_Node000016"><a xlink:title=" ">
<path fill="none" stroke="#63b8ff" d="M1093.63,-121.31C1093.63,-113.14 1093.63,-104.41 1093.63,-97.33"/>
<polygon fill="#63b8ff" stroke="#63b8ff" points="1090.13,-121.1 1093.63,-131.1 1097.13,-121.1 1090.13,-121.1"/>
</a>
</g>
</g>
</g>
</svg>
