<?xml version="1.0" encoding="UTF-8" standalone="no"?>
<!DOCTYPE svg PUBLIC "-//W3C//DTD SVG 1.1//EN"
 "http://www.w3.org/Graphics/SVG/1.1/DTD/svg11.dtd">
<!-- Generated by graphviz version 9.0.0 (20230911.1827)
 -->
<!-- Title: sourcecode/okssystem/include/okssystem/File.hpp Pages: 1 -->
<svg width="284pt" height="149pt"
 viewBox="0.00 0.00 283.89 149.00" xmlns="http://www.w3.org/2000/svg" xmlns:xlink="http://www.w3.org/1999/xlink">
<g id="graph0" class="graph" transform="scale(1 1) rotate(0) translate(4 145)">
<title>sourcecode/okssystem/include/okssystem/File.hpp</title>
<!-- Node1 -->
<g id="Node000001" class="node">
<title>Node1</title>
<g id="a_Node000001"><a xlink:title=" ">
<polygon fill="#999999" stroke="#666666" points="195.89,-141 59.14,-141 59.14,-110.5 195.89,-110.5 195.89,-141"/>
<text text-anchor="start" x="67.14" y="-127.5" font-family="Helvetica,sans-Serif" font-size="10.00">sourcecode/okssystem</text>
<text text-anchor="middle" x="127.51" y="-116.25" font-family="Helvetica,sans-Serif" font-size="10.00">/include/okssystem/File.hpp</text>
</a>
</g>
</g>
<!-- Node2 -->
<g id="Node000002" class="node">
<title>Node2</title>
<g id="a_Node000002"><a xlink:title=" ">
<polygon fill="#e0e0e0" stroke="#999999" points="45.51,-19.25 5.51,-19.25 5.51,0 45.51,0 45.51,-19.25"/>
<text text-anchor="middle" x="25.51" y="-5.75" font-family="Helvetica,sans-Serif" font-size="10.00">string</text>
</a>
</g>
</g>
<!-- Node1&#45;&gt;Node2 -->
<g id="edge1_Node000001_Node000002" class="edge">
<title>Node1&#45;&gt;Node2</title>
<g id="a_edge1_Node000001_Node000002"><a xlink:title=" ">
<path fill="none" stroke="#63b8ff" d="M58.87,-112.29C37.88,-104.91 17.05,-93.17 4.51,-74.5 -4.82,-60.6 2.89,-42.22 11.49,-28.75"/>
<polygon fill="#63b8ff" stroke="#63b8ff" points="14.19,-30.99 17.09,-20.8 8.47,-26.96 14.19,-30.99"/>
</a>
</g>
</g>
<!-- Node3 -->
<g id="Node000003" class="node">
<title>Node3</title>
<g id="a_Node000003"><a xlink:title=" ">
<polygon fill="#e0e0e0" stroke="#999999" points="57.01,-74.5 14.01,-74.5 14.01,-55.25 57.01,-55.25 57.01,-74.5"/>
<text text-anchor="middle" x="35.51" y="-61" font-family="Helvetica,sans-Serif" font-size="10.00">vector</text>
</a>
</g>
</g>
<!-- Node1&#45;&gt;Node3 -->
<g id="edge2_Node000001_Node000003" class="edge">
<title>Node1&#45;&gt;Node3</title>
<g id="a_edge2_Node000001_Node000003"><a xlink:title=" ">
<path fill="none" stroke="#63b8ff" d="M104.77,-110.2C90.9,-101.32 73.19,-89.99 59.16,-81.01"/>
<polygon fill="#63b8ff" stroke="#63b8ff" points="61.28,-78.21 50.97,-75.77 57.51,-84.11 61.28,-78.21"/>
</a>
</g>
</g>
<!-- Node4 -->
<g id="Node000004" class="node">
<title>Node4</title>
<g id="a_Node000004"><a xlink:title=" ">
<polygon fill="#e0e0e0" stroke="#999999" points="275.89,-19.25 211.14,-19.25 211.14,0 275.89,0 275.89,-19.25"/>
<text text-anchor="middle" x="243.51" y="-5.75" font-family="Helvetica,sans-Serif" font-size="10.00">sys/types.h</text>
</a>
</g>
</g>
<!-- Node1&#45;&gt;Node4 -->
<g id="edge3_Node000001_Node000004" class="edge">
<title>Node1&#45;&gt;Node4</title>
<g id="a_edge3_Node000001_Node000004"><a xlink:title=" ">
<path fill="none" stroke="#63b8ff" d="M196.36,-116.5C222.44,-109.64 249.65,-97.16 265.51,-74.5 275.16,-60.72 267.09,-42.33 258.13,-28.82"/>
<polygon fill="#63b8ff" stroke="#63b8ff" points="261,-26.82 252.27,-20.82 255.35,-30.96 261,-26.82"/>
</a>
</g>
</g>
<!-- Node5 -->
<g id="Node000005" class="node">
<title>Node5</title>
<g id="a_Node000005"><a xlink:title=" ">
<polygon fill="#e0e0e0" stroke="#999999" points="256.51,-74.5 198.51,-74.5 198.51,-55.25 256.51,-55.25 256.51,-74.5"/>
<text text-anchor="middle" x="227.51" y="-61" font-family="Helvetica,sans-Serif" font-size="10.00">sys/stat.h</text>
</a>
</g>
</g>
<!-- Node1&#45;&gt;Node5 -->
<g id="edge4_Node000001_Node000005" class="edge">
<title>Node1&#45;&gt;Node5</title>
<g id="a_edge4_Node000001_Node000005"><a xlink:title=" ">
<path fill="none" stroke="#63b8ff" d="M152.49,-110.05C167.72,-101.08 187.12,-89.66 202.38,-80.67"/>
<polygon fill="#63b8ff" stroke="#63b8ff" points="204.03,-83.76 210.87,-75.67 200.48,-77.73 204.03,-83.76"/>
</a>
</g>
</g>
<!-- Node6 -->
<g id="Node000006" class="node">
<title>Node6</title>
<g id="a_Node000006"><a xlink:href="User_8hpp.html" target="_top" xlink:title=" ">
<polygon fill="white" stroke="#666666" points="180.14,-74.5 74.89,-74.5 74.89,-55.25 180.14,-55.25 180.14,-74.5"/>
<text text-anchor="middle" x="127.51" y="-61" font-family="Helvetica,sans-Serif" font-size="10.00">okssystem/User.hpp</text>
</a>
</g>
</g>
<!-- Node1&#45;&gt;Node6 -->
<g id="edge5_Node000001_Node000006" class="edge">
<title>Node1&#45;&gt;Node6</title>
<g id="a_edge5_Node000001_Node000006"><a xlink:title=" ">
<path fill="none" stroke="#63b8ff" d="M127.51,-110.2C127.51,-102.96 127.51,-94.09 127.51,-86.19"/>
<polygon fill="#63b8ff" stroke="#63b8ff" points="131.01,-86.46 127.51,-76.46 124.01,-86.46 131.01,-86.46"/>
</a>
</g>
</g>
<!-- Node6&#45;&gt;Node2 -->
<g id="edge8_Node000006_Node000002" class="edge">
<title>Node6&#45;&gt;Node2</title>
<g id="a_edge8_Node000006_Node000002"><a xlink:title=" ">
<path fill="none" stroke="#63b8ff" d="M110.21,-54.84C94.53,-46.66 71.16,-34.46 52.94,-24.94"/>
<polygon fill="#63b8ff" stroke="#63b8ff" points="54.73,-21.93 44.24,-20.4 51.49,-28.13 54.73,-21.93"/>
</a>
</g>
</g>
<!-- Node6&#45;&gt;Node4 -->
<g id="edge7_Node000006_Node000004" class="edge">
<title>Node6&#45;&gt;Node4</title>
<g id="a_edge7_Node000006_Node000004"><a xlink:title=" ">
<path fill="none" stroke="#63b8ff" d="M147.19,-54.84C165.35,-46.5 192.6,-34 213.48,-24.41"/>
<polygon fill="#63b8ff" stroke="#63b8ff" points="214.73,-27.69 222.36,-20.33 211.81,-21.33 214.73,-27.69"/>
</a>
</g>
</g>
<!-- Node7 -->
<g id="Node000007" class="node">
<title>Node7</title>
<g id="a_Node000007"><a xlink:title=" ">
<polygon fill="#e0e0e0" stroke="#999999" points="152.39,-19.25 102.64,-19.25 102.64,0 152.39,0 152.39,-19.25"/>
<text text-anchor="middle" x="127.51" y="-5.75" font-family="Helvetica,sans-Serif" font-size="10.00">unistd.h</text>
</a>
</g>
</g>
<!-- Node6&#45;&gt;Node7 -->
<g id="edge6_Node000006_Node000007" class="edge">
<title>Node6&#45;&gt;Node7</title>
<g id="a_edge6_Node000006_Node000007"><a xlink:title=" ">
<path fill="none" stroke="#63b8ff" d="M127.51,-55.08C127.51,-48.57 127.51,-39.42 127.51,-31.12"/>
<polygon fill="#63b8ff" stroke="#63b8ff" points="131.01,-31.12 127.51,-21.12 124.01,-31.12 131.01,-31.12"/>
</a>
</g>
</g>
</g>
</svg>
