<?xml version="1.0" encoding="UTF-8" standalone="no"?>
<!DOCTYPE svg PUBLIC "-//W3C//DTD SVG 1.1//EN"
 "http://www.w3.org/Graphics/SVG/1.1/DTD/svg11.dtd">
<!-- Generated by graphviz version 9.0.0 (20230911.1827)
 -->
<!-- Title: sourcecode/readoutlibs/include/readoutlibs/models/detail/FixedRateQueueModel.hxx Pages: 1 -->
<svg width="168pt" height="194pt"
 viewBox="0.00 0.00 168.00 194.00" xmlns="http://www.w3.org/2000/svg" xmlns:xlink="http://www.w3.org/1999/xlink">
<g id="graph0" class="graph" transform="scale(1 1) rotate(0) translate(4 190)">
<title>sourcecode/readoutlibs/include/readoutlibs/models/detail/FixedRateQueueModel.hxx</title>
<!-- Node1 -->
<g id="Node000001" class="node">
<title>Node1</title>
<g id="a_Node000001"><a xlink:title=" ">
<polygon fill="#999999" stroke="#666666" points="160,-186 0,-186 0,-144.25 160,-144.25 160,-186"/>
<text text-anchor="start" x="8" y="-172.5" font-family="Helvetica,sans-Serif" font-size="10.00">sourcecode/readoutlibs</text>
<text text-anchor="start" x="8" y="-161.25" font-family="Helvetica,sans-Serif" font-size="10.00">/include/readoutlibs/models</text>
<text text-anchor="middle" x="80" y="-150" font-family="Helvetica,sans-Serif" font-size="10.00">/detail/FixedRateQueueModel.hxx</text>
</a>
</g>
</g>
<!-- Node2 -->
<g id="Node000002" class="node">
<title>Node2</title>
<g id="a_Node000002"><a xlink:href="FixedRateQueueModel_8hpp.html" target="_top" xlink:title=" ">
<polygon fill="white" stroke="#666666" points="147.62,-108.25 12.38,-108.25 12.38,-66.5 147.62,-66.5 147.62,-108.25"/>
<text text-anchor="start" x="20.38" y="-94.75" font-family="Helvetica,sans-Serif" font-size="10.00">sourcecode/readoutlibs</text>
<text text-anchor="start" x="20.38" y="-83.5" font-family="Helvetica,sans-Serif" font-size="10.00">/include/readoutlibs/models</text>
<text text-anchor="middle" x="80" y="-72.25" font-family="Helvetica,sans-Serif" font-size="10.00">/FixedRateQueueModel.hpp</text>
</a>
</g>
</g>
<!-- Node1&#45;&gt;Node2 -->
<g id="edge1_Node000001_Node000002" class="edge">
<title>Node1&#45;&gt;Node2</title>
<g id="a_edge1_Node000001_Node000002"><a xlink:title=" ">
<path fill="none" stroke="#63b8ff" d="M80,-132.5C80,-124.46 80,-116.04 80,-108.73"/>
<polygon fill="#63b8ff" stroke="#63b8ff" points="76.5,-132.31 80,-142.31 83.5,-132.31 76.5,-132.31"/>
</a>
</g>
</g>
<!-- Node3 -->
<g id="Node000003" class="node">
<title>Node3</title>
<g id="a_Node000003"><a xlink:href="Readoutlibs_8cpp.html" target="_top" xlink:title=" ">
<polygon fill="white" stroke="#666666" points="138.25,-30.5 21.75,-30.5 21.75,0 138.25,0 138.25,-30.5"/>
<text text-anchor="start" x="29.75" y="-17" font-family="Helvetica,sans-Serif" font-size="10.00">sourcecode/readoutlibs</text>
<text text-anchor="middle" x="80" y="-5.75" font-family="Helvetica,sans-Serif" font-size="10.00">/src/Readoutlibs.cpp</text>
</a>
</g>
</g>
<!-- Node2&#45;&gt;Node3 -->
<g id="edge2_Node000002_Node000003" class="edge">
<title>Node2&#45;&gt;Node3</title>
<g id="a_edge2_Node000002_Node000003"><a xlink:title=" ">
<path fill="none" stroke="#63b8ff" d="M80,-54.63C80,-46.27 80,-37.65 80,-30.7"/>
<polygon fill="#63b8ff" stroke="#63b8ff" points="76.5,-54.58 80,-64.58 83.5,-54.58 76.5,-54.58"/>
</a>
</g>
</g>
</g>
</svg>
