<?xml version="1.0" encoding="UTF-8" standalone="no"?>
<!DOCTYPE svg PUBLIC "-//W3C//DTD SVG 1.1//EN"
 "http://www.w3.org/Graphics/SVG/1.1/DTD/svg11.dtd">
<!-- Generated by graphviz version 9.0.0 (20230911.1827)
 -->
<!-- Title: sourcecode/timing/include/timing/FLCmdGeneratorNode.hpp Pages: 1 -->
<svg width="2145pt" height="438pt"
 viewBox="0.00 0.00 2145.00 437.50" xmlns="http://www.w3.org/2000/svg" xmlns:xlink="http://www.w3.org/1999/xlink">
<g id="graph0" class="graph" transform="scale(1 1) rotate(0) translate(4 433.5)">
<title>sourcecode/timing/include/timing/FLCmdGeneratorNode.hpp</title>
<!-- Node1 -->
<g id="Node000001" class="node">
<title>Node1</title>
<g id="a_Node000001"><a xlink:title=" ">
<polygon fill="#999999" stroke="#666666" points="1688.38,-429.5 1523.88,-429.5 1523.88,-399 1688.38,-399 1688.38,-429.5"/>
<text text-anchor="start" x="1531.88" y="-416" font-family="Helvetica,sans-Serif" font-size="10.00">sourcecode/timing/include</text>
<text text-anchor="middle" x="1606.12" y="-404.75" font-family="Helvetica,sans-Serif" font-size="10.00">/timing/FLCmdGeneratorNode.hpp</text>
</a>
</g>
</g>
<!-- Node2 -->
<g id="Node000002" class="node">
<title>Node2</title>
<g id="a_Node000002"><a xlink:href="MasterNode_8hpp.html" target="_top" xlink:title=" ">
<polygon fill="white" stroke="#666666" points="1366.75,-296.5 1237.5,-296.5 1237.5,-266 1366.75,-266 1366.75,-296.5"/>
<text text-anchor="start" x="1245.5" y="-283" font-family="Helvetica,sans-Serif" font-size="10.00">sourcecode/timing/include</text>
<text text-anchor="middle" x="1302.12" y="-271.75" font-family="Helvetica,sans-Serif" font-size="10.00">/timing/MasterNode.hpp</text>
</a>
</g>
</g>
<!-- Node1&#45;&gt;Node2 -->
<g id="edge1_Node000001_Node000002" class="edge">
<title>Node1&#45;&gt;Node2</title>
<g id="a_edge1_Node000001_Node000002"><a xlink:title=" ">
<path fill="none" stroke="#63b8ff" d="M1561.62,-394.07C1500.26,-367.63 1391,-320.55 1335.89,-296.8"/>
<polygon fill="#63b8ff" stroke="#63b8ff" points="1560.18,-397.26 1570.75,-398 1562.95,-390.83 1560.18,-397.26"/>
</a>
</g>
</g>
<!-- Node6 -->
<g id="Node000006" class="node">
<title>Node6</title>
<g id="a_Node000006"><a xlink:href="MasterNodeInterface_8hpp.html" target="_top" xlink:title=" ">
<polygon fill="white" stroke="#666666" points="1381,-363 1223.25,-363 1223.25,-332.5 1381,-332.5 1381,-363"/>
<text text-anchor="start" x="1231.25" y="-349.5" font-family="Helvetica,sans-Serif" font-size="10.00">sourcecode/timing/include</text>
<text text-anchor="middle" x="1302.12" y="-338.25" font-family="Helvetica,sans-Serif" font-size="10.00">/timing/MasterNodeInterface.hpp</text>
</a>
</g>
</g>
<!-- Node1&#45;&gt;Node6 -->
<g id="edge5_Node000001_Node000006" class="edge">
<title>Node1&#45;&gt;Node6</title>
<g id="a_edge5_Node000001_Node000006"><a xlink:title=" ">
<path fill="none" stroke="#63b8ff" d="M1525.78,-396.2C1477.76,-386.01 1417.37,-373.2 1371.45,-363.46"/>
<polygon fill="#63b8ff" stroke="#63b8ff" points="1524.77,-399.57 1535.28,-398.22 1526.23,-392.72 1524.77,-399.57"/>
</a>
</g>
</g>
<!-- Node34 -->
<g id="Node000034" class="node">
<title>Node34</title>
<g id="a_Node000034"><a xlink:href="PDIFLCmdGeneratorNode_8hpp.html" target="_top" xlink:title=" ">
<polygon fill="white" stroke="#666666" points="1696.62,-363 1515.62,-363 1515.62,-332.5 1696.62,-332.5 1696.62,-363"/>
<text text-anchor="start" x="1523.62" y="-349.5" font-family="Helvetica,sans-Serif" font-size="10.00">sourcecode/timing/include</text>
<text text-anchor="middle" x="1606.12" y="-338.25" font-family="Helvetica,sans-Serif" font-size="10.00">/timing/PDIFLCmdGeneratorNode.hpp</text>
</a>
</g>
</g>
<!-- Node1&#45;&gt;Node34 -->
<g id="edge44_Node000001_Node000034" class="edge">
<title>Node1&#45;&gt;Node34</title>
<g id="a_edge44_Node000001_Node000034"><a xlink:title=" ">
<path fill="none" stroke="#63b8ff" d="M1606.12,-387.31C1606.12,-379.14 1606.12,-370.41 1606.12,-363.33"/>
<polygon fill="#63b8ff" stroke="#63b8ff" points="1602.63,-387.1 1606.13,-397.1 1609.63,-387.1 1602.63,-387.1"/>
</a>
</g>
</g>
<!-- Node39 -->
<g id="Node000039" class="node">
<title>Node39</title>
<g id="a_Node000039"><a xlink:href="FLCmdGeneratorNode_8cpp.html" target="_top" xlink:title=" ">
<polygon fill="white" stroke="#666666" points="1849.75,-363 1714.5,-363 1714.5,-332.5 1849.75,-332.5 1849.75,-363"/>
<text text-anchor="start" x="1722.5" y="-349.5" font-family="Helvetica,sans-Serif" font-size="10.00">sourcecode/timing/src</text>
<text text-anchor="middle" x="1782.12" y="-338.25" font-family="Helvetica,sans-Serif" font-size="10.00">/FLCmdGeneratorNode.cpp</text>
</a>
</g>
</g>
<!-- Node1&#45;&gt;Node39 -->
<g id="edge51_Node000001_Node000039" class="edge">
<title>Node1&#45;&gt;Node39</title>
<g id="a_edge51_Node000001_Node000039"><a xlink:title=" ">
<path fill="none" stroke="#63b8ff" d="M1656.53,-394.78C1683.66,-384.83 1716.67,-372.74 1742.04,-363.44"/>
<polygon fill="#63b8ff" stroke="#63b8ff" points="1655.67,-391.37 1647.48,-398.09 1658.08,-397.94 1655.67,-391.37"/>
</a>
</g>
</g>
<!-- Node40 -->
<g id="Node000040" class="node">
<title>Node40</title>
<g id="a_Node000040"><a xlink:href="HSINode_8cpp.html" target="_top" xlink:title=" ">
<polygon fill="white" stroke="#666666" points="1980.12,-363 1868.12,-363 1868.12,-332.5 1980.12,-332.5 1980.12,-363"/>
<text text-anchor="start" x="1876.12" y="-349.5" font-family="Helvetica,sans-Serif" font-size="10.00">sourcecode/timing/src</text>
<text text-anchor="middle" x="1924.12" y="-338.25" font-family="Helvetica,sans-Serif" font-size="10.00">/HSINode.cpp</text>
</a>
</g>
</g>
<!-- Node1&#45;&gt;Node40 -->
<g id="edge52_Node000001_Node000040" class="edge">
<title>Node1&#45;&gt;Node40</title>
<g id="a_edge52_Node000001_Node000040"><a xlink:title=" ">
<path fill="none" stroke="#63b8ff" d="M1693.47,-396.34C1742.26,-386.79 1804.12,-374.49 1859.12,-363 1861.95,-362.41 1864.85,-361.8 1867.77,-361.18"/>
<polygon fill="#63b8ff" stroke="#63b8ff" points="1692.95,-392.88 1683.8,-398.23 1694.29,-399.75 1692.95,-392.88"/>
</a>
</g>
</g>
<!-- Node3 -->
<g id="Node000003" class="node">
<title>Node3</title>
<g id="a_Node000003"><a xlink:href="definitions_8cpp.html" target="_top" xlink:title=" ">
<polygon fill="white" stroke="#666666" points="1403,-230 1263.25,-230 1263.25,-199.5 1403,-199.5 1403,-230"/>
<text text-anchor="start" x="1271.25" y="-216.5" font-family="Helvetica,sans-Serif" font-size="10.00">sourcecode/timing/pybindsrc</text>
<text text-anchor="middle" x="1333.12" y="-205.25" font-family="Helvetica,sans-Serif" font-size="10.00">/definitions.cpp</text>
</a>
</g>
</g>
<!-- Node2&#45;&gt;Node3 -->
<g id="edge2_Node000002_Node000003" class="edge">
<title>Node2&#45;&gt;Node3</title>
<g id="a_edge2_Node000002_Node000003"><a xlink:title=" ">
<path fill="none" stroke="#63b8ff" d="M1314.05,-255.44C1318.13,-246.96 1322.56,-237.74 1326.12,-230.33"/>
<polygon fill="#63b8ff" stroke="#63b8ff" points="1310.99,-253.72 1309.82,-264.25 1317.3,-256.75 1310.99,-253.72"/>
</a>
</g>
</g>
<!-- Node4 -->
<g id="Node000004" class="node">
<title>Node4</title>
<g id="a_Node000004"><a xlink:href="master_8cpp.html" target="_top" xlink:title=" ">
<polygon fill="white" stroke="#666666" points="1561,-230 1421.25,-230 1421.25,-199.5 1561,-199.5 1561,-230"/>
<text text-anchor="start" x="1429.25" y="-216.5" font-family="Helvetica,sans-Serif" font-size="10.00">sourcecode/timing/pybindsrc</text>
<text text-anchor="middle" x="1491.12" y="-205.25" font-family="Helvetica,sans-Serif" font-size="10.00">/master.cpp</text>
</a>
</g>
</g>
<!-- Node2&#45;&gt;Node4 -->
<g id="edge3_Node000002_Node000004" class="edge">
<title>Node2&#45;&gt;Node4</title>
<g id="a_edge3_Node000002_Node000004"><a xlink:title=" ">
<path fill="none" stroke="#63b8ff" d="M1355.86,-261.91C1385.08,-251.94 1420.72,-239.78 1448.08,-230.44"/>
<polygon fill="#63b8ff" stroke="#63b8ff" points="1354.78,-258.58 1346.44,-265.13 1357.04,-265.21 1354.78,-258.58"/>
</a>
</g>
</g>
<!-- Node5 -->
<g id="Node000005" class="node">
<title>Node5</title>
<g id="a_Node000005"><a xlink:href="MasterNode_8cpp.html" target="_top" xlink:title=" ">
<polygon fill="white" stroke="#666666" points="1245.12,-230 1133.12,-230 1133.12,-199.5 1245.12,-199.5 1245.12,-230"/>
<text text-anchor="start" x="1141.12" y="-216.5" font-family="Helvetica,sans-Serif" font-size="10.00">sourcecode/timing/src</text>
<text text-anchor="middle" x="1189.12" y="-205.25" font-family="Helvetica,sans-Serif" font-size="10.00">/MasterNode.cpp</text>
</a>
</g>
</g>
<!-- Node2&#45;&gt;Node5 -->
<g id="edge4_Node000002_Node000005" class="edge">
<title>Node2&#45;&gt;Node5</title>
<g id="a_edge4_Node000002_Node000005"><a xlink:title=" ">
<path fill="none" stroke="#63b8ff" d="M1266.92,-260.16C1250.01,-250.5 1230.1,-239.14 1214.66,-230.33"/>
<polygon fill="#63b8ff" stroke="#63b8ff" points="1264.75,-262.95 1275.17,-264.86 1268.22,-256.87 1264.75,-262.95"/>
</a>
</g>
</g>
<!-- Node6&#45;&gt;Node2 -->
<g id="edge38_Node000006_Node000002" class="edge">
<title>Node6&#45;&gt;Node2</title>
<g id="a_edge38_Node000006_Node000002"><a xlink:title=" ">
<path fill="none" stroke="#63b8ff" d="M1302.12,-320.81C1302.12,-312.64 1302.12,-303.91 1302.12,-296.83"/>
<polygon fill="#63b8ff" stroke="#63b8ff" points="1298.63,-320.6 1302.13,-330.6 1305.63,-320.6 1298.63,-320.6"/>
</a>
</g>
</g>
<!-- Node7 -->
<g id="Node000007" class="node">
<title>Node7</title>
<g id="a_Node000007"><a xlink:href="MasterDesignInterface_8hpp.html" target="_top" xlink:title=" ">
<polygon fill="white" stroke="#666666" points="1111.38,-296.5 946.88,-296.5 946.88,-266 1111.38,-266 1111.38,-296.5"/>
<text text-anchor="start" x="954.88" y="-283" font-family="Helvetica,sans-Serif" font-size="10.00">sourcecode/timing/include</text>
<text text-anchor="middle" x="1029.12" y="-271.75" font-family="Helvetica,sans-Serif" font-size="10.00">/timing/MasterDesignInterface.hpp</text>
</a>
</g>
</g>
<!-- Node6&#45;&gt;Node7 -->
<g id="edge6_Node000006_Node000007" class="edge">
<title>Node6&#45;&gt;Node7</title>
<g id="a_edge6_Node000006_Node000007"><a xlink:title=" ">
<path fill="none" stroke="#63b8ff" d="M1228.86,-329.44C1185.84,-319.28 1132.06,-306.57 1091.15,-296.9"/>
<polygon fill="#63b8ff" stroke="#63b8ff" points="1227.83,-332.79 1238.36,-331.69 1229.44,-325.98 1227.83,-332.79"/>
</a>
</g>
</g>
<!-- Node31 -->
<g id="Node000031" class="node">
<title>Node31</title>
<g id="a_Node000031"><a xlink:href="PDIMasterNode_8hpp.html" target="_top" xlink:title=" ">
<polygon fill="white" stroke="#666666" points="1559.12,-296.5 1423.12,-296.5 1423.12,-266 1559.12,-266 1559.12,-296.5"/>
<text text-anchor="start" x="1431.12" y="-283" font-family="Helvetica,sans-Serif" font-size="10.00">sourcecode/timing/include</text>
<text text-anchor="middle" x="1491.12" y="-271.75" font-family="Helvetica,sans-Serif" font-size="10.00">/timing/PDIMasterNode.hpp</text>
</a>
</g>
</g>
<!-- Node6&#45;&gt;Node31 -->
<g id="edge39_Node000006_Node000031" class="edge">
<title>Node6&#45;&gt;Node31</title>
<g id="a_edge39_Node000006_Node000031"><a xlink:title=" ">
<path fill="none" stroke="#63b8ff" d="M1355.86,-328.41C1385.08,-318.44 1420.72,-306.28 1448.08,-296.94"/>
<polygon fill="#63b8ff" stroke="#63b8ff" points="1354.78,-325.08 1346.44,-331.63 1357.04,-331.71 1354.78,-325.08"/>
</a>
</g>
</g>
<!-- Node33 -->
<g id="Node000033" class="node">
<title>Node33</title>
<g id="a_Node000033"><a xlink:href="MasterNodeInterface_8cpp.html" target="_top" xlink:title=" ">
<polygon fill="white" stroke="#666666" points="928.38,-296.5 799.88,-296.5 799.88,-266 928.38,-266 928.38,-296.5"/>
<text text-anchor="start" x="807.88" y="-283" font-family="Helvetica,sans-Serif" font-size="10.00">sourcecode/timing/src</text>
<text text-anchor="middle" x="864.12" y="-271.75" font-family="Helvetica,sans-Serif" font-size="10.00">/MasterNodeInterface.cpp</text>
</a>
</g>
</g>
<!-- Node6&#45;&gt;Node33 -->
<g id="edge43_Node000006_Node000033" class="edge">
<title>Node6&#45;&gt;Node33</title>
<g id="a_edge43_Node000006_Node000033"><a xlink:title=" ">
<path fill="none" stroke="#63b8ff" d="M1211.68,-335.62C1137.9,-326.21 1031.07,-311.85 938.12,-296.5 935.03,-295.99 931.86,-295.45 928.66,-294.89"/>
<polygon fill="#63b8ff" stroke="#63b8ff" points="1210.91,-339.05 1221.27,-336.84 1211.79,-332.1 1210.91,-339.05"/>
</a>
</g>
</g>
<!-- Node8 -->
<g id="Node000008" class="node">
<title>Node8</title>
<g id="a_Node000008"><a xlink:href="MasterDesign_8hpp.html" target="_top" xlink:title=" ">
<polygon fill="white" stroke="#666666" points="925.75,-230 796.5,-230 796.5,-199.5 925.75,-199.5 925.75,-230"/>
<text text-anchor="start" x="804.5" y="-216.5" font-family="Helvetica,sans-Serif" font-size="10.00">sourcecode/timing/include</text>
<text text-anchor="middle" x="861.12" y="-205.25" font-family="Helvetica,sans-Serif" font-size="10.00">/timing/MasterDesign.hpp</text>
</a>
</g>
</g>
<!-- Node7&#45;&gt;Node8 -->
<g id="edge7_Node000007_Node000008" class="edge">
<title>Node7&#45;&gt;Node8</title>
<g id="a_edge7_Node000007_Node000008"><a xlink:title=" ">
<path fill="none" stroke="#63b8ff" d="M980.33,-261.51C954.55,-251.62 923.39,-239.65 899.39,-230.44"/>
<polygon fill="#63b8ff" stroke="#63b8ff" points="979,-264.75 989.59,-265.07 981.51,-258.22 979,-264.75"/>
</a>
</g>
</g>
<!-- Node28 -->
<g id="Node000028" class="node">
<title>Node28</title>
<g id="a_Node000028"><a xlink:href="OverlordDesignInterface_8hpp.html" target="_top" xlink:title=" ">
<polygon fill="white" stroke="#666666" points="1114.75,-230 943.5,-230 943.5,-199.5 1114.75,-199.5 1114.75,-230"/>
<text text-anchor="start" x="951.5" y="-216.5" font-family="Helvetica,sans-Serif" font-size="10.00">sourcecode/timing/include</text>
<text text-anchor="middle" x="1029.12" y="-205.25" font-family="Helvetica,sans-Serif" font-size="10.00">/timing/OverlordDesignInterface.hpp</text>
</a>
</g>
</g>
<!-- Node7&#45;&gt;Node28 -->
<g id="edge33_Node000007_Node000028" class="edge">
<title>Node7&#45;&gt;Node28</title>
<g id="a_edge33_Node000007_Node000028"><a xlink:title=" ">
<path fill="none" stroke="#63b8ff" d="M1029.12,-254.31C1029.12,-246.14 1029.12,-237.41 1029.12,-230.33"/>
<polygon fill="#63b8ff" stroke="#63b8ff" points="1025.63,-254.1 1029.13,-264.1 1032.63,-254.1 1025.63,-254.1"/>
</a>
</g>
</g>
<!-- Node30 -->
<g id="Node000030" class="node">
<title>Node30</title>
<g id="a_Node000030"><a xlink:href="TimingHardwareManager_8hpp.html" target="_top" xlink:title=" ">
<polygon fill="white" stroke="#666666" points="204.25,-163.5 42,-163.5 42,-133 204.25,-133 204.25,-163.5"/>
<text text-anchor="start" x="50" y="-150" font-family="Helvetica,sans-Serif" font-size="10.00">sourcecode/timinglibs</text>
<text text-anchor="middle" x="123.12" y="-138.75" font-family="Helvetica,sans-Serif" font-size="10.00">/src/TimingHardwareManager.hpp</text>
</a>
</g>
</g>
<!-- Node7&#45;&gt;Node30 -->
<g id="edge36_Node000007_Node000030" class="edge">
<title>Node7&#45;&gt;Node30</title>
<g id="a_edge36_Node000007_Node000030"><a xlink:title=" ">
<path fill="none" stroke="#63b8ff" d="M935.4,-265.75C660.84,-224.86 349.31,-180.9 204.62,-160.63"/>
<polygon fill="#63b8ff" stroke="#63b8ff" points="934.48,-269.15 944.88,-267.17 935.51,-262.23 934.48,-269.15"/>
</a>
</g>
</g>
<!-- Node9 -->
<g id="Node000009" class="node">
<title>Node9</title>
<g id="a_Node000009"><a xlink:href="BoreasDesign_8hpp.html" target="_top" xlink:title=" ">
<polygon fill="white" stroke="#666666" points="427.75,-163.5 298.5,-163.5 298.5,-133 427.75,-133 427.75,-163.5"/>
<text text-anchor="start" x="306.5" y="-150" font-family="Helvetica,sans-Serif" font-size="10.00">sourcecode/timing/include</text>
<text text-anchor="middle" x="363.12" y="-138.75" font-family="Helvetica,sans-Serif" font-size="10.00">/timing/BoreasDesign.hpp</text>
</a>
</g>
</g>
<!-- Node8&#45;&gt;Node9 -->
<g id="edge8_Node000008_Node000009" class="edge">
<title>Node8&#45;&gt;Node9</title>
<g id="a_edge8_Node000008_Node000009"><a xlink:title=" ">
<path fill="none" stroke="#63b8ff" d="M784.77,-203.86C687.22,-191.23 520.06,-169.58 428.25,-157.68"/>
<polygon fill="#63b8ff" stroke="#63b8ff" points="784.15,-207.31 794.52,-205.12 785.05,-200.37 784.15,-207.31"/>
</a>
</g>
</g>
<!-- Node12 -->
<g id="Node000012" class="node">
<title>Node12</title>
<g id="a_Node000012"><a xlink:href="MasterMuxDesign_8hpp.html" target="_top" xlink:title=" ">
<polygon fill="white" stroke="#666666" points="707.25,-163.5 563,-163.5 563,-133 707.25,-133 707.25,-163.5"/>
<text text-anchor="start" x="571" y="-150" font-family="Helvetica,sans-Serif" font-size="10.00">sourcecode/timing/include</text>
<text text-anchor="middle" x="635.12" y="-138.75" font-family="Helvetica,sans-Serif" font-size="10.00">/timing/MasterMuxDesign.hpp</text>
</a>
</g>
</g>
<!-- Node8&#45;&gt;Node12 -->
<g id="edge11_Node000008_Node000012" class="edge">
<title>Node8&#45;&gt;Node12</title>
<g id="a_edge11_Node000008_Node000012"><a xlink:title=" ">
<path fill="none" stroke="#63b8ff" d="M798.88,-195.99C763.54,-185.9 719.84,-173.43 686.47,-163.9"/>
<polygon fill="#63b8ff" stroke="#63b8ff" points="797.53,-199.24 808.1,-198.62 799.45,-192.51 797.53,-199.24"/>
</a>
</g>
</g>
<!-- Node23 -->
<g id="Node000023" class="node">
<title>Node23</title>
<g id="a_Node000023"><a xlink:href="OuroborosDesign_8hpp.html" target="_top" xlink:title=" ">
<polygon fill="white" stroke="#666666" points="931.75,-163.5 790.5,-163.5 790.5,-133 931.75,-133 931.75,-163.5"/>
<text text-anchor="start" x="798.5" y="-150" font-family="Helvetica,sans-Serif" font-size="10.00">sourcecode/timing/include</text>
<text text-anchor="middle" x="861.12" y="-138.75" font-family="Helvetica,sans-Serif" font-size="10.00">/timing/OuroborosDesign.hpp</text>
</a>
</g>
</g>
<!-- Node8&#45;&gt;Node23 -->
<g id="edge26_Node000008_Node000023" class="edge">
<title>Node8&#45;&gt;Node23</title>
<g id="a_edge26_Node000008_Node000023"><a xlink:title=" ">
<path fill="none" stroke="#63b8ff" d="M861.12,-187.81C861.12,-179.64 861.12,-170.91 861.12,-163.83"/>
<polygon fill="#63b8ff" stroke="#63b8ff" points="857.63,-187.6 861.13,-197.6 864.63,-187.6 857.63,-187.6"/>
</a>
</g>
</g>
<!-- Node25 -->
<g id="Node000025" class="node">
<title>Node25</title>
<g id="a_Node000025"><a xlink:href="OverlordDesign_8hpp.html" target="_top" xlink:title=" ">
<polygon fill="white" stroke="#666666" points="1213.62,-163.5 1080.62,-163.5 1080.62,-133 1213.62,-133 1213.62,-163.5"/>
<text text-anchor="start" x="1088.62" y="-150" font-family="Helvetica,sans-Serif" font-size="10.00">sourcecode/timing/include</text>
<text text-anchor="middle" x="1147.12" y="-138.75" font-family="Helvetica,sans-Serif" font-size="10.00">/timing/OverlordDesign.hpp</text>
</a>
</g>
</g>
<!-- Node8&#45;&gt;Node25 -->
<g id="edge29_Node000008_Node000025" class="edge">
<title>Node8&#45;&gt;Node25</title>
<g id="a_edge29_Node000008_Node000025"><a xlink:title=" ">
<path fill="none" stroke="#63b8ff" d="M937.23,-196.59C982.35,-186.41 1038.94,-173.65 1081.99,-163.94"/>
<polygon fill="#63b8ff" stroke="#63b8ff" points="936.48,-193.17 927.5,-198.78 938.02,-200 936.48,-193.17"/>
</a>
</g>
</g>
<!-- Node27 -->
<g id="Node000027" class="node">
<title>Node27</title>
<g id="a_Node000027"><a xlink:href="MasterDesign_8cpp.html" target="_top" xlink:title=" ">
<polygon fill="white" stroke="#666666" points="1062.12,-163.5 950.12,-163.5 950.12,-133 1062.12,-133 1062.12,-163.5"/>
<text text-anchor="start" x="958.12" y="-150" font-family="Helvetica,sans-Serif" font-size="10.00">sourcecode/timing/src</text>
<text text-anchor="middle" x="1006.12" y="-138.75" font-family="Helvetica,sans-Serif" font-size="10.00">/MasterDesign.cpp</text>
</a>
</g>
</g>
<!-- Node8&#45;&gt;Node27 -->
<g id="edge32_Node000008_Node000027" class="edge">
<title>Node8&#45;&gt;Node27</title>
<g id="a_edge32_Node000008_Node000027"><a xlink:title=" ">
<path fill="none" stroke="#63b8ff" d="M904.44,-194.48C926.45,-184.69 952.76,-172.99 973.1,-163.94"/>
<polygon fill="#63b8ff" stroke="#63b8ff" points="903.12,-191.24 895.41,-198.5 905.97,-197.63 903.12,-191.24"/>
</a>
</g>
</g>
<!-- Node10 -->
<g id="Node000010" class="node">
<title>Node10</title>
<g id="a_Node000010"><a xlink:href="top__designs_8cpp.html" target="_top" xlink:title=" ">
<polygon fill="white" stroke="#666666" points="685,-30.5 545.25,-30.5 545.25,0 685,0 685,-30.5"/>
<text text-anchor="start" x="553.25" y="-17" font-family="Helvetica,sans-Serif" font-size="10.00">sourcecode/timing/pybindsrc</text>
<text text-anchor="middle" x="615.12" y="-5.75" font-family="Helvetica,sans-Serif" font-size="10.00">/top_designs.cpp</text>
</a>
</g>
</g>
<!-- Node9&#45;&gt;Node10 -->
<g id="edge9_Node000009_Node000010" class="edge">
<title>Node9&#45;&gt;Node10</title>
<g id="a_edge9_Node000009_Node000010"><a xlink:title=" ">
<path fill="none" stroke="#63b8ff" d="M362.42,-121.45C363.37,-103.63 367.68,-80.68 382.12,-66.5 393.85,-55 480.63,-38.44 544.87,-27.51"/>
<polygon fill="#63b8ff" stroke="#63b8ff" points="358.92,-121.22 362.24,-131.28 365.92,-121.34 358.92,-121.22"/>
</a>
</g>
</g>
<!-- Node11 -->
<g id="Node000011" class="node">
<title>Node11</title>
<g id="a_Node000011"><a xlink:href="BoreasDesign_8cpp.html" target="_top" xlink:title=" ">
<polygon fill="white" stroke="#666666" points="187.12,-97 75.12,-97 75.12,-66.5 187.12,-66.5 187.12,-97"/>
<text text-anchor="start" x="83.12" y="-83.5" font-family="Helvetica,sans-Serif" font-size="10.00">sourcecode/timing/src</text>
<text text-anchor="middle" x="131.12" y="-72.25" font-family="Helvetica,sans-Serif" font-size="10.00">/BoreasDesign.cpp</text>
</a>
</g>
</g>
<!-- Node9&#45;&gt;Node11 -->
<g id="edge10_Node000009_Node000011" class="edge">
<title>Node9&#45;&gt;Node11</title>
<g id="a_edge10_Node000009_Node000011"><a xlink:title=" ">
<path fill="none" stroke="#63b8ff" d="M299.23,-129.49C262.95,-119.4 218.08,-106.93 183.83,-97.4"/>
<polygon fill="#63b8ff" stroke="#63b8ff" points="298.16,-132.82 308.73,-132.13 300.04,-126.08 298.16,-132.82"/>
</a>
</g>
</g>
<!-- Node13 -->
<g id="Node000013" class="node">
<title>Node13</title>
<g id="a_Node000013"><a xlink:href="FanoutDesign_8hpp.html" target="_top" xlink:title=" ">
<polygon fill="white" stroke="#666666" points="334.75,-97 205.5,-97 205.5,-66.5 334.75,-66.5 334.75,-97"/>
<text text-anchor="start" x="213.5" y="-83.5" font-family="Helvetica,sans-Serif" font-size="10.00">sourcecode/timing/include</text>
<text text-anchor="middle" x="270.12" y="-72.25" font-family="Helvetica,sans-Serif" font-size="10.00">/timing/FanoutDesign.hpp</text>
</a>
</g>
</g>
<!-- Node12&#45;&gt;Node13 -->
<g id="edge12_Node000012_Node000013" class="edge">
<title>Node12&#45;&gt;Node13</title>
<g id="a_edge12_Node000012_Node000013"><a xlink:title=" ">
<path fill="none" stroke="#63b8ff" d="M551.43,-132.46C485.72,-120.85 395.56,-104.92 335.19,-94.25"/>
<polygon fill="#63b8ff" stroke="#63b8ff" points="550.63,-135.87 561.09,-134.17 551.85,-128.98 550.63,-135.87"/>
</a>
</g>
</g>
<!-- Node16 -->
<g id="Node000016" class="node">
<title>Node16</title>
<g id="a_Node000016"><a xlink:href="GaiaDesign_8hpp.html" target="_top" xlink:title=" ">
<polygon fill="white" stroke="#666666" points="983.75,-97 854.5,-97 854.5,-66.5 983.75,-66.5 983.75,-97"/>
<text text-anchor="start" x="862.5" y="-83.5" font-family="Helvetica,sans-Serif" font-size="10.00">sourcecode/timing/include</text>
<text text-anchor="middle" x="919.12" y="-72.25" font-family="Helvetica,sans-Serif" font-size="10.00">/timing/GaiaDesign.hpp</text>
</a>
</g>
</g>
<!-- Node12&#45;&gt;Node16 -->
<g id="edge16_Node000012_Node000016" class="edge">
<title>Node12&#45;&gt;Node16</title>
<g id="a_edge16_Node000012_Node000016"><a xlink:title=" ">
<path fill="none" stroke="#63b8ff" d="M711.06,-130.01C755.86,-119.83 811.95,-107.09 854.6,-97.4"/>
<polygon fill="#63b8ff" stroke="#63b8ff" points="710.38,-126.57 701.4,-132.2 711.93,-133.4 710.38,-126.57"/>
</a>
</g>
</g>
<!-- Node18 -->
<g id="Node000018" class="node">
<title>Node18</title>
<g id="a_Node000018"><a xlink:href="KerberosDesign_8hpp.html" target="_top" xlink:title=" ">
<polygon fill="white" stroke="#666666" points="526.75,-97 391.5,-97 391.5,-66.5 526.75,-66.5 526.75,-97"/>
<text text-anchor="start" x="399.5" y="-83.5" font-family="Helvetica,sans-Serif" font-size="10.00">sourcecode/timing/include</text>
<text text-anchor="middle" x="459.12" y="-72.25" font-family="Helvetica,sans-Serif" font-size="10.00">/timing/KerberosDesign.hpp</text>
</a>
</g>
</g>
<!-- Node12&#45;&gt;Node18 -->
<g id="edge19_Node000012_Node000018" class="edge">
<title>Node12&#45;&gt;Node18</title>
<g id="a_edge19_Node000012_Node000018"><a xlink:title=" ">
<path fill="none" stroke="#63b8ff" d="M584.72,-128.78C557.59,-118.83 524.58,-106.74 499.21,-97.44"/>
<polygon fill="#63b8ff" stroke="#63b8ff" points="583.17,-131.94 593.77,-132.09 585.58,-125.37 583.17,-131.94"/>
</a>
</g>
</g>
<!-- Node20 -->
<g id="Node000020" class="node">
<title>Node20</title>
<g id="a_Node000020"><a xlink:href="OuroborosMuxDesign_8hpp.html" target="_top" xlink:title=" ">
<polygon fill="white" stroke="#666666" points="836.75,-97 677.5,-97 677.5,-66.5 836.75,-66.5 836.75,-97"/>
<text text-anchor="start" x="685.5" y="-83.5" font-family="Helvetica,sans-Serif" font-size="10.00">sourcecode/timing/include</text>
<text text-anchor="middle" x="757.12" y="-72.25" font-family="Helvetica,sans-Serif" font-size="10.00">/timing/OuroborosMuxDesign.hpp</text>
</a>
</g>
</g>
<!-- Node12&#45;&gt;Node20 -->
<g id="edge22_Node000012_Node000020" class="edge">
<title>Node12&#45;&gt;Node20</title>
<g id="a_edge22_Node000012_Node000020"><a xlink:title=" ">
<path fill="none" stroke="#63b8ff" d="M672.87,-127.29C691.19,-117.61 712.8,-106.18 729.55,-97.33"/>
<polygon fill="#63b8ff" stroke="#63b8ff" points="671.35,-124.14 664.15,-131.91 674.62,-130.33 671.35,-124.14"/>
</a>
</g>
</g>
<!-- Node22 -->
<g id="Node000022" class="node">
<title>Node22</title>
<g id="a_Node000022"><a xlink:href="MasterMuxDesign_8cpp.html" target="_top" xlink:title=" ">
<polygon fill="white" stroke="#666666" points="659.62,-97 544.62,-97 544.62,-66.5 659.62,-66.5 659.62,-97"/>
<text text-anchor="start" x="552.62" y="-83.5" font-family="Helvetica,sans-Serif" font-size="10.00">sourcecode/timing/src</text>
<text text-anchor="middle" x="602.12" y="-72.25" font-family="Helvetica,sans-Serif" font-size="10.00">/MasterMuxDesign.cpp</text>
</a>
</g>
</g>
<!-- Node12&#45;&gt;Node22 -->
<g id="edge25_Node000012_Node000022" class="edge">
<title>Node12&#45;&gt;Node22</title>
<g id="a_edge25_Node000012_Node000022"><a xlink:title=" ">
<path fill="none" stroke="#63b8ff" d="M622.43,-122.44C618.09,-113.96 613.38,-104.74 609.58,-97.33"/>
<polygon fill="#63b8ff" stroke="#63b8ff" points="619.28,-123.96 626.95,-131.27 625.51,-120.77 619.28,-123.96"/>
</a>
</g>
</g>
<!-- Node13&#45;&gt;Node10 -->
<g id="edge13_Node000013_Node000010" class="edge">
<title>Node13&#45;&gt;Node10</title>
<g id="a_edge13_Node000013_Node000010"><a xlink:title=" ">
<path fill="none" stroke="#63b8ff" d="M346.19,-66.53C405.47,-55.45 487.14,-40.18 544.89,-29.38"/>
<polygon fill="#63b8ff" stroke="#63b8ff" points="345.69,-63.06 336.5,-68.34 346.98,-69.94 345.69,-63.06"/>
</a>
</g>
</g>
<!-- Node14 -->
<g id="Node000014" class="node">
<title>Node14</title>
<g id="a_Node000014"><a xlink:href="FanoutDesign_8cpp.html" target="_top" xlink:title=" ">
<polygon fill="white" stroke="#666666" points="326.12,-30.5 214.12,-30.5 214.12,0 326.12,0 326.12,-30.5"/>
<text text-anchor="start" x="222.12" y="-17" font-family="Helvetica,sans-Serif" font-size="10.00">sourcecode/timing/src</text>
<text text-anchor="middle" x="270.12" y="-5.75" font-family="Helvetica,sans-Serif" font-size="10.00">/FanoutDesign.cpp</text>
</a>
</g>
</g>
<!-- Node13&#45;&gt;Node14 -->
<g id="edge14_Node000013_Node000014" class="edge">
<title>Node13&#45;&gt;Node14</title>
<g id="a_edge14_Node000013_Node000014"><a xlink:title=" ">
<path fill="none" stroke="#63b8ff" d="M270.12,-54.81C270.12,-46.64 270.12,-37.91 270.12,-30.83"/>
<polygon fill="#63b8ff" stroke="#63b8ff" points="266.63,-54.6 270.13,-64.6 273.63,-54.6 266.63,-54.6"/>
</a>
</g>
</g>
<!-- Node15 -->
<g id="Node000015" class="node">
<title>Node15</title>
<g id="a_Node000015"><a xlink:href="TimingHardwareManager_8cpp.html" target="_top" xlink:title=" ">
<polygon fill="white" stroke="#666666" points="162.25,-30.5 0,-30.5 0,0 162.25,0 162.25,-30.5"/>
<text text-anchor="start" x="8" y="-17" font-family="Helvetica,sans-Serif" font-size="10.00">sourcecode/timinglibs</text>
<text text-anchor="middle" x="81.12" y="-5.75" font-family="Helvetica,sans-Serif" font-size="10.00">/src/TimingHardwareManager.cpp</text>
</a>
</g>
</g>
<!-- Node13&#45;&gt;Node15 -->
<g id="edge15_Node000013_Node000015" class="edge">
<title>Node13&#45;&gt;Node15</title>
<g id="a_edge15_Node000013_Node000015"><a xlink:title=" ">
<path fill="none" stroke="#63b8ff" d="M216.39,-62.41C187.17,-52.44 151.53,-40.28 124.17,-30.94"/>
<polygon fill="#63b8ff" stroke="#63b8ff" points="215.21,-65.71 225.81,-65.63 217.47,-59.08 215.21,-65.71"/>
</a>
</g>
</g>
<!-- Node16&#45;&gt;Node10 -->
<g id="edge17_Node000016_Node000010" class="edge">
<title>Node16&#45;&gt;Node10</title>
<g id="a_edge17_Node000016_Node000010"><a xlink:title=" ">
<path fill="none" stroke="#63b8ff" d="M843.19,-64.64C794.56,-54.32 731.95,-41.04 684.63,-31"/>
<polygon fill="#63b8ff" stroke="#63b8ff" points="842.29,-68.03 852.8,-66.68 843.75,-61.18 842.29,-68.03"/>
</a>
</g>
</g>
<!-- Node17 -->
<g id="Node000017" class="node">
<title>Node17</title>
<g id="a_Node000017"><a xlink:href="GaiaDesign_8cpp.html" target="_top" xlink:title=" ">
<polygon fill="white" stroke="#666666" points="975.12,-30.5 863.12,-30.5 863.12,0 975.12,0 975.12,-30.5"/>
<text text-anchor="start" x="871.12" y="-17" font-family="Helvetica,sans-Serif" font-size="10.00">sourcecode/timing/src</text>
<text text-anchor="middle" x="919.12" y="-5.75" font-family="Helvetica,sans-Serif" font-size="10.00">/GaiaDesign.cpp</text>
</a>
</g>
</g>
<!-- Node16&#45;&gt;Node17 -->
<g id="edge18_Node000016_Node000017" class="edge">
<title>Node16&#45;&gt;Node17</title>
<g id="a_edge18_Node000016_Node000017"><a xlink:title=" ">
<path fill="none" stroke="#63b8ff" d="M919.12,-54.81C919.12,-46.64 919.12,-37.91 919.12,-30.83"/>
<polygon fill="#63b8ff" stroke="#63b8ff" points="915.63,-54.6 919.13,-64.6 922.63,-54.6 915.63,-54.6"/>
</a>
</g>
</g>
<!-- Node18&#45;&gt;Node10 -->
<g id="edge20_Node000018_Node000010" class="edge">
<title>Node18&#45;&gt;Node10</title>
<g id="a_edge20_Node000018_Node000010"><a xlink:title=" ">
<path fill="none" stroke="#63b8ff" d="M505.08,-61.75C528.89,-51.91 557.51,-40.07 579.6,-30.94"/>
<polygon fill="#63b8ff" stroke="#63b8ff" points="503.83,-58.48 495.92,-65.54 506.5,-64.95 503.83,-58.48"/>
</a>
</g>
</g>
<!-- Node19 -->
<g id="Node000019" class="node">
<title>Node19</title>
<g id="a_Node000019"><a xlink:href="KerberosDesign_8cpp.html" target="_top" xlink:title=" ">
<polygon fill="white" stroke="#666666" points="515.12,-30.5 403.12,-30.5 403.12,0 515.12,0 515.12,-30.5"/>
<text text-anchor="start" x="411.12" y="-17" font-family="Helvetica,sans-Serif" font-size="10.00">sourcecode/timing/src</text>
<text text-anchor="middle" x="459.12" y="-5.75" font-family="Helvetica,sans-Serif" font-size="10.00">/KerberosDesign.cpp</text>
</a>
</g>
</g>
<!-- Node18&#45;&gt;Node19 -->
<g id="edge21_Node000018_Node000019" class="edge">
<title>Node18&#45;&gt;Node19</title>
<g id="a_edge21_Node000018_Node000019"><a xlink:title=" ">
<path fill="none" stroke="#63b8ff" d="M459.12,-54.81C459.12,-46.64 459.12,-37.91 459.12,-30.83"/>
<polygon fill="#63b8ff" stroke="#63b8ff" points="455.63,-54.6 459.13,-64.6 462.63,-54.6 455.63,-54.6"/>
</a>
</g>
</g>
<!-- Node20&#45;&gt;Node10 -->
<g id="edge23_Node000020_Node000010" class="edge">
<title>Node20&#45;&gt;Node10</title>
<g id="a_edge23_Node000020_Node000010"><a xlink:title=" ">
<path fill="none" stroke="#63b8ff" d="M714.67,-61.47C693.04,-51.64 667.17,-39.89 647.22,-30.83"/>
<polygon fill="#63b8ff" stroke="#63b8ff" points="712.97,-64.54 723.52,-65.49 715.87,-58.17 712.97,-64.54"/>
</a>
</g>
</g>
<!-- Node21 -->
<g id="Node000021" class="node">
<title>Node21</title>
<g id="a_Node000021"><a xlink:href="OuroborosMuxDesign_8cpp.html" target="_top" xlink:title=" ">
<polygon fill="white" stroke="#666666" points="833.12,-30.5 703.12,-30.5 703.12,0 833.12,0 833.12,-30.5"/>
<text text-anchor="start" x="711.12" y="-17" font-family="Helvetica,sans-Serif" font-size="10.00">sourcecode/timing/src</text>
<text text-anchor="middle" x="768.12" y="-5.75" font-family="Helvetica,sans-Serif" font-size="10.00">/OuroborosMuxDesign.cpp</text>
</a>
</g>
</g>
<!-- Node20&#45;&gt;Node21 -->
<g id="edge24_Node000020_Node000021" class="edge">
<title>Node20&#45;&gt;Node21</title>
<g id="a_edge24_Node000020_Node000021"><a xlink:title=" ">
<path fill="none" stroke="#63b8ff" d="M761.55,-54.81C762.94,-46.64 764.43,-37.91 765.64,-30.83"/>
<polygon fill="#63b8ff" stroke="#63b8ff" points="758.11,-54.18 759.88,-64.62 765.01,-55.35 758.11,-54.18"/>
</a>
</g>
</g>
<!-- Node23&#45;&gt;Node10 -->
<g id="edge27_Node000023_Node000010" class="edge">
<title>Node23&#45;&gt;Node10</title>
<g id="a_edge27_Node000023_Node000010"><a xlink:title=" ">
<path fill="none" stroke="#63b8ff" d="M935.25,-129.22C977.55,-115.48 1017.69,-94.2 993.12,-66.5 948.72,-16.43 760.31,-40.44 694.12,-30.5 691.23,-30.07 688.28,-29.61 685.3,-29.13"/>
<polygon fill="#63b8ff" stroke="#63b8ff" points="934.45,-125.81 925.93,-132.11 936.52,-132.49 934.45,-125.81"/>
</a>
</g>
</g>
<!-- Node24 -->
<g id="Node000024" class="node">
<title>Node24</title>
<g id="a_Node000024"><a xlink:href="OuroborosDesign_8cpp.html" target="_top" xlink:title=" ">
<polygon fill="white" stroke="#666666" points="1152.12,-97 1040.12,-97 1040.12,-66.5 1152.12,-66.5 1152.12,-97"/>
<text text-anchor="start" x="1048.12" y="-83.5" font-family="Helvetica,sans-Serif" font-size="10.00">sourcecode/timing/src</text>
<text text-anchor="middle" x="1096.12" y="-72.25" font-family="Helvetica,sans-Serif" font-size="10.00">/OuroborosDesign.cpp</text>
</a>
</g>
</g>
<!-- Node23&#45;&gt;Node24 -->
<g id="edge28_Node000023_Node000024" class="edge">
<title>Node23&#45;&gt;Node24</title>
<g id="a_edge28_Node000023_Node000024"><a xlink:title=" ">
<path fill="none" stroke="#63b8ff" d="M925.37,-129.62C962.21,-119.51 1007.89,-106.97 1042.74,-97.4"/>
<polygon fill="#63b8ff" stroke="#63b8ff" points="924.92,-126.11 916.2,-132.13 926.77,-132.86 924.92,-126.11"/>
</a>
</g>
</g>
<!-- Node25&#45;&gt;Node10 -->
<g id="edge30_Node000025_Node000010" class="edge">
<title>Node25&#45;&gt;Node10</title>
<g id="a_edge30_Node000025_Node000010"><a xlink:title=" ">
<path fill="none" stroke="#63b8ff" d="M1161.07,-122.46C1169.01,-104.69 1174.89,-81.37 1161.12,-66.5 1125.77,-28.31 745.74,-37.13 694.12,-30.5 691.22,-30.13 688.26,-29.72 685.28,-29.29"/>
<polygon fill="#63b8ff" stroke="#63b8ff" points="1157.99,-120.8 1156.7,-131.32 1164.26,-123.9 1157.99,-120.8"/>
</a>
</g>
</g>
<!-- Node26 -->
<g id="Node000026" class="node">
<title>Node26</title>
<g id="a_Node000026"><a xlink:href="OverlordDesign_8cpp.html" target="_top" xlink:title=" ">
<polygon fill="white" stroke="#666666" points="1499.12,-97 1387.12,-97 1387.12,-66.5 1499.12,-66.5 1499.12,-97"/>
<text text-anchor="start" x="1395.12" y="-83.5" font-family="Helvetica,sans-Serif" font-size="10.00">sourcecode/timing/src</text>
<text text-anchor="middle" x="1443.12" y="-72.25" font-family="Helvetica,sans-Serif" font-size="10.00">/OverlordDesign.cpp</text>
</a>
</g>
</g>
<!-- Node25&#45;&gt;Node26 -->
<g id="edge31_Node000025_Node000026" class="edge">
<title>Node25&#45;&gt;Node26</title>
<g id="a_edge31_Node000025_Node000026"><a xlink:title=" ">
<path fill="none" stroke="#63b8ff" d="M1224.88,-130.31C1275.79,-119.21 1341.14,-104.97 1387.01,-94.98"/>
<polygon fill="#63b8ff" stroke="#63b8ff" points="1224.43,-126.82 1215.4,-132.37 1225.92,-133.66 1224.43,-126.82"/>
</a>
</g>
</g>
<!-- Node28&#45;&gt;Node25 -->
<g id="edge34_Node000028_Node000025" class="edge">
<title>Node28&#45;&gt;Node25</title>
<g id="a_edge34_Node000028_Node000025"><a xlink:title=" ">
<path fill="none" stroke="#63b8ff" d="M1065.88,-193.66C1083.55,-184 1104.33,-172.64 1120.45,-163.83"/>
<polygon fill="#63b8ff" stroke="#63b8ff" points="1064.33,-190.52 1057.23,-198.39 1067.68,-196.66 1064.33,-190.52"/>
</a>
</g>
</g>
<!-- Node29 -->
<g id="Node000029" class="node">
<title>Node29</title>
<g id="a_Node000029"><a xlink:href="OverlordDesignInterface_8cpp.html" target="_top" xlink:title=" ">
<polygon fill="white" stroke="#666666" points="1374.12,-163.5 1232.12,-163.5 1232.12,-133 1374.12,-133 1374.12,-163.5"/>
<text text-anchor="start" x="1240.12" y="-150" font-family="Helvetica,sans-Serif" font-size="10.00">sourcecode/timing/src</text>
<text text-anchor="middle" x="1303.12" y="-138.75" font-family="Helvetica,sans-Serif" font-size="10.00">/OverlordDesignInterface.cpp</text>
</a>
</g>
</g>
<!-- Node28&#45;&gt;Node29 -->
<g id="edge35_Node000028_Node000029" class="edge">
<title>Node28&#45;&gt;Node29</title>
<g id="a_edge35_Node000028_Node000029"><a xlink:title=" ">
<path fill="none" stroke="#63b8ff" d="M1102.66,-196.44C1145.84,-186.28 1199.81,-173.57 1240.88,-163.9"/>
<polygon fill="#63b8ff" stroke="#63b8ff" points="1102.05,-192.99 1093.12,-198.69 1103.65,-199.8 1102.05,-192.99"/>
</a>
</g>
</g>
<!-- Node30&#45;&gt;Node15 -->
<g id="edge37_Node000030_Node000015" class="edge">
<title>Node30&#45;&gt;Node15</title>
<g id="a_edge37_Node000030_Node000015"><a xlink:title=" ">
<path fill="none" stroke="#63b8ff" d="M89.43,-125.73C80.12,-117.91 71.19,-108.21 66.12,-97 56.33,-75.3 65.69,-47.55 73.39,-30.87"/>
<polygon fill="#63b8ff" stroke="#63b8ff" points="87.11,-128.36 97.17,-131.7 91.39,-122.82 87.11,-128.36"/>
</a>
</g>
</g>
<!-- Node31&#45;&gt;Node4 -->
<g id="edge40_Node000031_Node000004" class="edge">
<title>Node31&#45;&gt;Node4</title>
<g id="a_edge40_Node000031_Node000004"><a xlink:title=" ">
<path fill="none" stroke="#63b8ff" d="M1491.12,-254.31C1491.12,-246.14 1491.12,-237.41 1491.12,-230.33"/>
<polygon fill="#63b8ff" stroke="#63b8ff" points="1487.63,-254.1 1491.13,-264.1 1494.63,-254.1 1487.63,-254.1"/>
</a>
</g>
</g>
<!-- Node31&#45;&gt;Node26 -->
<g id="edge41_Node000031_Node000026" class="edge">
<title>Node31&#45;&gt;Node26</title>
<g id="a_edge41_Node000031_Node000026"><a xlink:title=" ">
<path fill="none" stroke="#63b8ff" d="M1539.49,-260.03C1551.66,-252.48 1563.21,-242.59 1570.12,-230 1576.65,-218.12 1575.57,-211.91 1570.12,-199.5 1549.6,-152.74 1500.08,-116.48 1469.29,-97.47"/>
<polygon fill="#63b8ff" stroke="#63b8ff" points="1537.97,-256.87 1530.99,-264.84 1541.42,-262.96 1537.97,-256.87"/>
</a>
</g>
</g>
<!-- Node32 -->
<g id="Node000032" class="node">
<title>Node32</title>
<g id="a_Node000032"><a xlink:href="PDIMasterNode_8cpp.html" target="_top" xlink:title=" ">
<polygon fill="white" stroke="#666666" points="1729.12,-230 1617.12,-230 1617.12,-199.5 1729.12,-199.5 1729.12,-230"/>
<text text-anchor="start" x="1625.12" y="-216.5" font-family="Helvetica,sans-Serif" font-size="10.00">sourcecode/timing/src</text>
<text text-anchor="middle" x="1673.12" y="-205.25" font-family="Helvetica,sans-Serif" font-size="10.00">/PDIMasterNode.cpp</text>
</a>
</g>
</g>
<!-- Node31&#45;&gt;Node32 -->
<g id="edge42_Node000031_Node000032" class="edge">
<title>Node31&#45;&gt;Node32</title>
<g id="a_edge42_Node000031_Node000032"><a xlink:title=" ">
<path fill="none" stroke="#63b8ff" d="M1543.24,-261.78C1571.31,-251.83 1605.44,-239.74 1631.68,-230.44"/>
<polygon fill="#63b8ff" stroke="#63b8ff" points="1542.11,-258.47 1533.85,-265.11 1544.44,-265.07 1542.11,-258.47"/>
</a>
</g>
</g>
<!-- Node34&#45;&gt;Node3 -->
<g id="edge46_Node000034_Node000003" class="edge">
<title>Node34&#45;&gt;Node3</title>
<g id="a_edge46_Node000034_Node000003"><a xlink:title=" ">
<path fill="none" stroke="#63b8ff" d="M1504.3,-330.63C1473.98,-323.1 1441.56,-312.2 1414.12,-296.5 1398.53,-287.57 1364.5,-250.9 1345.89,-230.18"/>
<polygon fill="#63b8ff" stroke="#63b8ff" points="1503.35,-334 1513.89,-332.9 1504.97,-327.19 1503.35,-334"/>
</a>
</g>
</g>
<!-- Node34&#45;&gt;Node31 -->
<g id="edge45_Node000034_Node000031" class="edge">
<title>Node34&#45;&gt;Node31</title>
<g id="a_edge45_Node000034_Node000031"><a xlink:title=" ">
<path fill="none" stroke="#63b8ff" d="M1570.3,-326.66C1553.08,-317 1532.83,-305.64 1517.12,-296.83"/>
<polygon fill="#63b8ff" stroke="#63b8ff" points="1568.28,-329.53 1578.71,-331.37 1571.7,-323.43 1568.28,-329.53"/>
</a>
</g>
</g>
<!-- Node35 -->
<g id="Node000035" class="node">
<title>Node35</title>
<g id="a_Node000035"><a xlink:href="PDIEndpointNode_8cpp.html" target="_top" xlink:title=" ">
<polygon fill="white" stroke="#666666" points="1967.25,-296.5 1853,-296.5 1853,-266 1967.25,-266 1967.25,-296.5"/>
<text text-anchor="start" x="1861" y="-283" font-family="Helvetica,sans-Serif" font-size="10.00">sourcecode/timing/src</text>
<text text-anchor="middle" x="1910.12" y="-271.75" font-family="Helvetica,sans-Serif" font-size="10.00">/PDIEndpointNode.cpp</text>
</a>
</g>
</g>
<!-- Node34&#45;&gt;Node35 -->
<g id="edge47_Node000034_Node000035" class="edge">
<title>Node34&#45;&gt;Node35</title>
<g id="a_edge47_Node000034_Node000035"><a xlink:title=" ">
<path fill="none" stroke="#63b8ff" d="M1687.29,-329.71C1733.31,-320.02 1791.95,-307.64 1844.12,-296.5 1846.88,-295.91 1849.69,-295.31 1852.54,-294.7"/>
<polygon fill="#63b8ff" stroke="#63b8ff" points="1686.72,-326.25 1677.66,-331.74 1688.16,-333.1 1686.72,-326.25"/>
</a>
</g>
</g>
<!-- Node36 -->
<g id="Node000036" class="node">
<title>Node36</title>
<g id="a_Node000036"><a xlink:href="PDIFLCmdGeneratorNode_8cpp.html" target="_top" xlink:title=" ">
<polygon fill="white" stroke="#666666" points="2137,-296.5 1985.25,-296.5 1985.25,-266 2137,-266 2137,-296.5"/>
<text text-anchor="start" x="1993.25" y="-283" font-family="Helvetica,sans-Serif" font-size="10.00">sourcecode/timing/src</text>
<text text-anchor="middle" x="2061.12" y="-271.75" font-family="Helvetica,sans-Serif" font-size="10.00">/PDIFLCmdGeneratorNode.cpp</text>
</a>
</g>
</g>
<!-- Node34&#45;&gt;Node36 -->
<g id="edge48_Node000034_Node000036" class="edge">
<title>Node34&#45;&gt;Node36</title>
<g id="a_edge48_Node000034_Node000036"><a xlink:title=" ">
<path fill="none" stroke="#63b8ff" d="M1708.42,-332.06C1827.41,-315.75 1859.61,-314 1976.12,-296.5 1979.08,-296.06 1982.1,-295.59 1985.15,-295.12"/>
<polygon fill="#63b8ff" stroke="#63b8ff" points="1707.95,-328.59 1698.52,-333.42 1708.9,-335.52 1707.95,-328.59"/>
</a>
</g>
</g>
<!-- Node37 -->
<g id="Node000037" class="node">
<title>Node37</title>
<g id="a_Node000037"><a xlink:href="PartitionNode_8cpp.html" target="_top" xlink:title=" ">
<polygon fill="white" stroke="#666666" points="1689.12,-296.5 1577.12,-296.5 1577.12,-266 1689.12,-266 1689.12,-296.5"/>
<text text-anchor="start" x="1585.12" y="-283" font-family="Helvetica,sans-Serif" font-size="10.00">sourcecode/timing/src</text>
<text text-anchor="middle" x="1633.12" y="-271.75" font-family="Helvetica,sans-Serif" font-size="10.00">/PartitionNode.cpp</text>
</a>
</g>
</g>
<!-- Node34&#45;&gt;Node37 -->
<g id="edge49_Node000034_Node000037" class="edge">
<title>Node34&#45;&gt;Node37</title>
<g id="a_edge49_Node000034_Node000037"><a xlink:title=" ">
<path fill="none" stroke="#63b8ff" d="M1616.63,-321.66C1620.15,-313.25 1623.95,-304.16 1627.02,-296.83"/>
<polygon fill="#63b8ff" stroke="#63b8ff" points="1613.47,-320.14 1612.84,-330.72 1619.93,-322.84 1613.47,-320.14"/>
</a>
</g>
</g>
<!-- Node38 -->
<g id="Node000038" class="node">
<title>Node38</title>
<g id="a_Node000038"><a xlink:href="TriggerReceiverNode_8cpp.html" target="_top" xlink:title=" ">
<polygon fill="white" stroke="#666666" points="1835.38,-296.5 1706.88,-296.5 1706.88,-266 1835.38,-266 1835.38,-296.5"/>
<text text-anchor="start" x="1714.88" y="-283" font-family="Helvetica,sans-Serif" font-size="10.00">sourcecode/timing/src</text>
<text text-anchor="middle" x="1771.12" y="-271.75" font-family="Helvetica,sans-Serif" font-size="10.00">/TriggerReceiverNode.cpp</text>
</a>
</g>
</g>
<!-- Node34&#45;&gt;Node38 -->
<g id="edge50_Node000034_Node000038" class="edge">
<title>Node34&#45;&gt;Node38</title>
<g id="a_edge50_Node000034_Node000038"><a xlink:title=" ">
<path fill="none" stroke="#63b8ff" d="M1654.05,-328.01C1679.36,-318.12 1709.97,-306.15 1733.55,-296.94"/>
<polygon fill="#63b8ff" stroke="#63b8ff" points="1653.02,-324.66 1644.98,-331.56 1655.56,-331.18 1653.02,-324.66"/>
</a>
</g>
</g>
</g>
</svg>
