<?xml version="1.0" encoding="UTF-8" standalone="no"?>
<!DOCTYPE svg PUBLIC "-//W3C//DTD SVG 1.1//EN"
 "http://www.w3.org/Graphics/SVG/1.1/DTD/svg11.dtd">
<!-- Generated by graphviz version 9.0.0 (20230911.1827)
 -->
<!-- Title: sourcecode/ers/include/ers/internal/FormattedStandardStream.hxx Pages: 1 -->
<svg width="196pt" height="105pt"
 viewBox="0.00 0.00 196.38 105.00" xmlns="http://www.w3.org/2000/svg" xmlns:xlink="http://www.w3.org/1999/xlink">
<g id="graph0" class="graph" transform="scale(1 1) rotate(0) translate(4 101)">
<title>sourcecode/ers/include/ers/internal/FormattedStandardStream.hxx</title>
<!-- Node1 -->
<g id="Node000001" class="node">
<title>Node1</title>
<g id="a_Node000001"><a xlink:title=" ">
<polygon fill="#999999" stroke="#666666" points="171.5,-97 18.25,-97 18.25,-55.25 171.5,-55.25 171.5,-97"/>
<text text-anchor="start" x="26.25" y="-83.5" font-family="Helvetica,sans-Serif" font-size="10.00">sourcecode/ers/include</text>
<text text-anchor="start" x="26.25" y="-72.25" font-family="Helvetica,sans-Serif" font-size="10.00">/ers/internal/FormattedStandard</text>
<text text-anchor="middle" x="94.88" y="-61" font-family="Helvetica,sans-Serif" font-size="10.00">Stream.hxx</text>
</a>
</g>
</g>
<!-- Node2 -->
<g id="Node000002" class="node">
<title>Node2</title>
<g id="a_Node000002"><a xlink:title=" ">
<polygon fill="#e0e0e0" stroke="#999999" points="49.75,-19.25 0,-19.25 0,0 49.75,0 49.75,-19.25"/>
<text text-anchor="middle" x="24.88" y="-5.75" font-family="Helvetica,sans-Serif" font-size="10.00">iomanip</text>
</a>
</g>
</g>
<!-- Node1&#45;&gt;Node2 -->
<g id="edge1_Node000001_Node000002" class="edge">
<title>Node1&#45;&gt;Node2</title>
<g id="a_edge1_Node000001_Node000002"><a xlink:title=" ">
<path fill="none" stroke="#63b8ff" d="M73.11,-55.07C63.48,-46.19 52.28,-35.87 43.1,-27.41"/>
<polygon fill="#63b8ff" stroke="#63b8ff" points="45.56,-24.92 35.83,-20.72 40.81,-30.07 45.56,-24.92"/>
</a>
</g>
</g>
<!-- Node3 -->
<g id="Node000003" class="node">
<title>Node3</title>
<g id="a_Node000003"><a xlink:title=" ">
<polygon fill="#e0e0e0" stroke="#999999" points="121.62,-19.25 68.12,-19.25 68.12,0 121.62,0 121.62,-19.25"/>
<text text-anchor="middle" x="94.88" y="-5.75" font-family="Helvetica,sans-Serif" font-size="10.00">iostream</text>
</a>
</g>
</g>
<!-- Node1&#45;&gt;Node3 -->
<g id="edge2_Node000001_Node000003" class="edge">
<title>Node1&#45;&gt;Node3</title>
<g id="a_edge2_Node000001_Node000003"><a xlink:title=" ">
<path fill="none" stroke="#63b8ff" d="M94.88,-55.07C94.88,-47.4 94.88,-38.64 94.88,-30.95"/>
<polygon fill="#63b8ff" stroke="#63b8ff" points="98.38,-31.21 94.88,-21.21 91.38,-31.21 98.38,-31.21"/>
</a>
</g>
</g>
<!-- Node4 -->
<g id="Node000004" class="node">
<title>Node4</title>
<g id="a_Node000004"><a xlink:title=" ">
<polygon fill="#e0e0e0" stroke="#999999" points="188.38,-19.25 139.38,-19.25 139.38,0 188.38,0 188.38,-19.25"/>
<text text-anchor="middle" x="163.88" y="-5.75" font-family="Helvetica,sans-Serif" font-size="10.00">fstream</text>
</a>
</g>
</g>
<!-- Node1&#45;&gt;Node4 -->
<g id="edge3_Node000001_Node000004" class="edge">
<title>Node1&#45;&gt;Node4</title>
<g id="a_edge3_Node000001_Node000004"><a xlink:title=" ">
<path fill="none" stroke="#63b8ff" d="M116.33,-55.07C125.82,-46.19 136.86,-35.87 145.91,-27.41"/>
<polygon fill="#63b8ff" stroke="#63b8ff" points="148.15,-30.11 153.07,-20.73 143.37,-25 148.15,-30.11"/>
</a>
</g>
</g>
</g>
</svg>
