<?xml version="1.0" encoding="UTF-8" standalone="no"?>
<!DOCTYPE svg PUBLIC "-//W3C//DTD SVG 1.1//EN"
 "http://www.w3.org/Graphics/SVG/1.1/DTD/svg11.dtd">
<!-- Generated by graphviz version 9.0.0 (20230911.1827)
 -->
<!-- Title: sourcecode/dfmessages/include/dfmessages/Fragment_serialization.hpp Pages: 1 -->
<svg width="698pt" height="338pt"
 viewBox="0.00 0.00 698.38 338.25" xmlns="http://www.w3.org/2000/svg" xmlns:xlink="http://www.w3.org/1999/xlink">
<g id="graph0" class="graph" transform="scale(1 1) rotate(0) translate(4 334.25)">
<title>sourcecode/dfmessages/include/dfmessages/Fragment_serialization.hpp</title>
<!-- Node1 -->
<g id="Node000001" class="node">
<title>Node1</title>
<g id="a_Node000001"><a xlink:title=" ">
<polygon fill="#999999" stroke="#666666" points="293.62,-330.25 143.38,-330.25 143.38,-288.5 293.62,-288.5 293.62,-330.25"/>
<text text-anchor="start" x="151.38" y="-316.75" font-family="Helvetica,sans-Serif" font-size="10.00">sourcecode/dfmessages</text>
<text text-anchor="start" x="151.38" y="-305.5" font-family="Helvetica,sans-Serif" font-size="10.00">/include/dfmessages/Fragment</text>
<text text-anchor="middle" x="218.5" y="-294.25" font-family="Helvetica,sans-Serif" font-size="10.00">_serialization.hpp</text>
</a>
</g>
</g>
<!-- Node2 -->
<g id="Node000002" class="node">
<title>Node2</title>
<g id="a_Node000002"><a xlink:href="TriggerRecord__serialization_8hpp.html" target="_top" xlink:title=" ">
<polygon fill="white" stroke="#666666" points="139,-252.5 0,-252.5 0,-210.75 139,-210.75 139,-252.5"/>
<text text-anchor="start" x="8" y="-239" font-family="Helvetica,sans-Serif" font-size="10.00">sourcecode/dfmessages</text>
<text text-anchor="start" x="8" y="-227.75" font-family="Helvetica,sans-Serif" font-size="10.00">/include/dfmessages/Trigger</text>
<text text-anchor="middle" x="69.5" y="-216.5" font-family="Helvetica,sans-Serif" font-size="10.00">Record_serialization.hpp</text>
</a>
</g>
</g>
<!-- Node1&#45;&gt;Node2 -->
<g id="edge1_Node000001_Node000002" class="edge">
<title>Node1&#45;&gt;Node2</title>
<g id="a_edge1_Node000001_Node000002"><a xlink:title=" ">
<path fill="none" stroke="#63b8ff" d="M168.49,-282.95C149.3,-273.2 127.68,-262.2 109.54,-252.98"/>
<polygon fill="#63b8ff" stroke="#63b8ff" points="166.72,-285.98 177.22,-287.39 169.89,-279.74 166.72,-285.98"/>
</a>
</g>
</g>
<!-- Node3 -->
<g id="Node000003" class="node">
<title>Node3</title>
<g id="a_Node000003"><a xlink:href="Serialization_8cpp.html" target="_top" xlink:title=" ">
<polygon fill="white" stroke="#666666" points="279.75,-246.88 157.25,-246.88 157.25,-216.38 279.75,-216.38 279.75,-246.88"/>
<text text-anchor="start" x="165.25" y="-233.38" font-family="Helvetica,sans-Serif" font-size="10.00">sourcecode/dfmessages</text>
<text text-anchor="middle" x="218.5" y="-222.12" font-family="Helvetica,sans-Serif" font-size="10.00">/src/Serialization.cpp</text>
</a>
</g>
</g>
<!-- Node1&#45;&gt;Node3 -->
<g id="edge2_Node000001_Node000003" class="edge">
<title>Node1&#45;&gt;Node3</title>
<g id="a_edge2_Node000001_Node000003"><a xlink:title=" ">
<path fill="none" stroke="#63b8ff" d="M218.5,-276.81C218.5,-266.44 218.5,-255.42 218.5,-246.98"/>
<polygon fill="#63b8ff" stroke="#63b8ff" points="215,-276.56 218.5,-286.56 222,-276.56 215,-276.56"/>
</a>
</g>
</g>
<!-- Node4 -->
<g id="Node000004" class="node">
<title>Node4</title>
<g id="a_Node000004"><a xlink:href="DefaultRequestHandlerModel_8hpp.html" target="_top" xlink:title=" ">
<polygon fill="white" stroke="#666666" points="461.38,-252.5 297.62,-252.5 297.62,-210.75 461.38,-210.75 461.38,-252.5"/>
<text text-anchor="start" x="305.62" y="-239" font-family="Helvetica,sans-Serif" font-size="10.00">sourcecode/readoutlibs</text>
<text text-anchor="start" x="305.62" y="-227.75" font-family="Helvetica,sans-Serif" font-size="10.00">/include/readoutlibs/models</text>
<text text-anchor="middle" x="379.5" y="-216.5" font-family="Helvetica,sans-Serif" font-size="10.00">/DefaultRequestHandlerModel.hpp</text>
</a>
</g>
</g>
<!-- Node1&#45;&gt;Node4 -->
<g id="edge3_Node000001_Node000004" class="edge">
<title>Node1&#45;&gt;Node4</title>
<g id="a_edge3_Node000001_Node000004"><a xlink:title=" ">
<path fill="none" stroke="#63b8ff" d="M271.96,-283.22C292.84,-273.4 316.46,-262.29 336.24,-252.98"/>
<polygon fill="#63b8ff" stroke="#63b8ff" points="270.57,-280.01 263.01,-287.43 273.55,-286.34 270.57,-280.01"/>
</a>
</g>
</g>
<!-- Node5 -->
<g id="Node000005" class="node">
<title>Node5</title>
<g id="a_Node000005"><a xlink:href="DefaultSkipListRequestHandler_8hpp.html" target="_top" xlink:title=" ">
<polygon fill="white" stroke="#666666" points="197.25,-174.75 23.75,-174.75 23.75,-133 197.25,-133 197.25,-174.75"/>
<text text-anchor="start" x="31.75" y="-161.25" font-family="Helvetica,sans-Serif" font-size="10.00">sourcecode/readoutlibs</text>
<text text-anchor="start" x="31.75" y="-150" font-family="Helvetica,sans-Serif" font-size="10.00">/include/readoutlibs/models</text>
<text text-anchor="middle" x="110.5" y="-138.75" font-family="Helvetica,sans-Serif" font-size="10.00">/DefaultSkipListRequestHandler.hpp</text>
</a>
</g>
</g>
<!-- Node4&#45;&gt;Node5 -->
<g id="edge4_Node000004_Node000005" class="edge">
<title>Node4&#45;&gt;Node5</title>
<g id="a_edge4_Node000004_Node000005"><a xlink:title=" ">
<path fill="none" stroke="#63b8ff" d="M296.34,-207.21C260.01,-196.98 217.79,-185.09 182.79,-175.23"/>
<polygon fill="#63b8ff" stroke="#63b8ff" points="295.38,-210.57 305.96,-209.92 297.28,-203.84 295.38,-210.57"/>
</a>
</g>
</g>
<!-- Node8 -->
<g id="Node000008" class="node">
<title>Node8</title>
<g id="a_Node000008"><a xlink:href="EmptyFragmentRequestHandlerModel_8hpp.html" target="_top" xlink:title=" ">
<polygon fill="white" stroke="#666666" points="416.12,-174.75 214.88,-174.75 214.88,-133 416.12,-133 416.12,-174.75"/>
<text text-anchor="start" x="222.88" y="-161.25" font-family="Helvetica,sans-Serif" font-size="10.00">sourcecode/readoutlibs</text>
<text text-anchor="start" x="222.88" y="-150" font-family="Helvetica,sans-Serif" font-size="10.00">/include/readoutlibs/models</text>
<text text-anchor="middle" x="315.5" y="-138.75" font-family="Helvetica,sans-Serif" font-size="10.00">/EmptyFragmentRequestHandlerModel.hpp</text>
</a>
</g>
</g>
<!-- Node4&#45;&gt;Node8 -->
<g id="edge7_Node000004_Node000008" class="edge">
<title>Node4&#45;&gt;Node8</title>
<g id="a_edge7_Node000004_Node000008"><a xlink:title=" ">
<path fill="none" stroke="#63b8ff" d="M355.13,-201.79C347.66,-192.94 339.59,-183.39 332.7,-175.23"/>
<polygon fill="#63b8ff" stroke="#63b8ff" points="352.25,-203.79 361.37,-209.17 357.59,-199.27 352.25,-203.79"/>
</a>
</g>
</g>
<!-- Node9 -->
<g id="Node000009" class="node">
<title>Node9</title>
<g id="a_Node000009"><a xlink:href="Readoutlibs_8cpp.html" target="_top" xlink:title=" ">
<polygon fill="white" stroke="#666666" points="502.75,-97 386.25,-97 386.25,-66.5 502.75,-66.5 502.75,-97"/>
<text text-anchor="start" x="394.25" y="-83.5" font-family="Helvetica,sans-Serif" font-size="10.00">sourcecode/readoutlibs</text>
<text text-anchor="middle" x="444.5" y="-72.25" font-family="Helvetica,sans-Serif" font-size="10.00">/src/Readoutlibs.cpp</text>
</a>
</g>
</g>
<!-- Node4&#45;&gt;Node9 -->
<g id="edge11_Node000004_Node000009" class="edge">
<title>Node4&#45;&gt;Node9</title>
<g id="a_edge11_Node000004_Node000009"><a xlink:title=" ">
<path fill="none" stroke="#63b8ff" d="M407.83,-201.61C414.5,-193.46 420.97,-184.22 425.5,-174.75 437.68,-149.3 442.07,-116.23 443.64,-97.47"/>
<polygon fill="#63b8ff" stroke="#63b8ff" points="405.2,-199.31 401.31,-209.16 410.49,-203.89 405.2,-199.31"/>
</a>
</g>
</g>
<!-- Node10 -->
<g id="Node000010" class="node">
<title>Node10</title>
<g id="a_Node000010"><a xlink:href="ZeroCopyRecordingRequestHandlerModel_8hpp.html" target="_top" xlink:title=" ">
<polygon fill="white" stroke="#666666" points="690.38,-174.75 472.62,-174.75 472.62,-133 690.38,-133 690.38,-174.75"/>
<text text-anchor="start" x="480.62" y="-161.25" font-family="Helvetica,sans-Serif" font-size="10.00">sourcecode/readoutlibs</text>
<text text-anchor="start" x="480.62" y="-150" font-family="Helvetica,sans-Serif" font-size="10.00">/include/readoutlibs/models</text>
<text text-anchor="middle" x="581.5" y="-138.75" font-family="Helvetica,sans-Serif" font-size="10.00">/ZeroCopyRecordingRequestHandlerModel.hpp</text>
</a>
</g>
</g>
<!-- Node4&#45;&gt;Node10 -->
<g id="edge9_Node000004_Node000010" class="edge">
<title>Node4&#45;&gt;Node10</title>
<g id="a_edge9_Node000004_Node000010"><a xlink:title=" ">
<path fill="none" stroke="#63b8ff" d="M444.07,-206.41C470.87,-196.36 501.61,-184.83 527.22,-175.23"/>
<polygon fill="#63b8ff" stroke="#63b8ff" points="443.18,-203.01 435.05,-209.79 445.64,-209.56 443.18,-203.01"/>
</a>
</g>
</g>
<!-- Node6 -->
<g id="Node000006" class="node">
<title>Node6</title>
<g id="a_Node000006"><a xlink:href="TPRequestHandler_8hpp.html" target="_top" xlink:title=" ">
<polygon fill="white" stroke="#666666" points="193.5,-97 27.5,-97 27.5,-66.5 193.5,-66.5 193.5,-97"/>
<text text-anchor="start" x="35.5" y="-83.5" font-family="Helvetica,sans-Serif" font-size="10.00">sourcecode/trigger</text>
<text text-anchor="middle" x="110.5" y="-72.25" font-family="Helvetica,sans-Serif" font-size="10.00">/src/trigger/TPRequestHandler.hpp</text>
</a>
</g>
</g>
<!-- Node5&#45;&gt;Node6 -->
<g id="edge5_Node000005_Node000006" class="edge">
<title>Node5&#45;&gt;Node6</title>
<g id="a_edge5_Node000005_Node000006"><a xlink:title=" ">
<path fill="none" stroke="#63b8ff" d="M110.5,-121.13C110.5,-112.77 110.5,-104.15 110.5,-97.2"/>
<polygon fill="#63b8ff" stroke="#63b8ff" points="107,-121.08 110.5,-131.08 114,-121.08 107,-121.08"/>
</a>
</g>
</g>
<!-- Node7 -->
<g id="Node000007" class="node">
<title>Node7</title>
<g id="a_Node000007"><a xlink:href="TPRequestHandler_8cpp.html" target="_top" xlink:title=" ">
<polygon fill="white" stroke="#666666" points="178.5,-30.5 42.5,-30.5 42.5,0 178.5,0 178.5,-30.5"/>
<text text-anchor="start" x="50.5" y="-17" font-family="Helvetica,sans-Serif" font-size="10.00">sourcecode/trigger</text>
<text text-anchor="middle" x="110.5" y="-5.75" font-family="Helvetica,sans-Serif" font-size="10.00">/src/TPRequestHandler.cpp</text>
</a>
</g>
</g>
<!-- Node6&#45;&gt;Node7 -->
<g id="edge6_Node000006_Node000007" class="edge">
<title>Node6&#45;&gt;Node7</title>
<g id="a_edge6_Node000006_Node000007"><a xlink:title=" ">
<path fill="none" stroke="#63b8ff" d="M110.5,-54.81C110.5,-46.64 110.5,-37.91 110.5,-30.83"/>
<polygon fill="#63b8ff" stroke="#63b8ff" points="107,-54.6 110.5,-64.6 114,-54.6 107,-54.6"/>
</a>
</g>
</g>
<!-- Node8&#45;&gt;Node9 -->
<g id="edge8_Node000008_Node000009" class="edge">
<title>Node8&#45;&gt;Node9</title>
<g id="a_edge8_Node000008_Node000009"><a xlink:title=" ">
<path fill="none" stroke="#63b8ff" d="M362.8,-127.16C381.23,-117.14 401.68,-106.03 417.51,-97.42"/>
<polygon fill="#63b8ff" stroke="#63b8ff" points="361.26,-124.02 354.14,-131.87 364.6,-130.17 361.26,-124.02"/>
</a>
</g>
</g>
<!-- Node10&#45;&gt;Node9 -->
<g id="edge10_Node000010_Node000009" class="edge">
<title>Node10&#45;&gt;Node9</title>
<g id="a_edge10_Node000010_Node000009"><a xlink:title=" ">
<path fill="none" stroke="#63b8ff" d="M531.81,-127.44C512.09,-117.35 490.13,-106.11 473.16,-97.42"/>
<polygon fill="#63b8ff" stroke="#63b8ff" points="530.03,-130.46 540.53,-131.9 533.22,-124.23 530.03,-130.46"/>
</a>
</g>
</g>
</g>
</svg>
