<?xml version="1.0" encoding="UTF-8" standalone="no"?>
<!DOCTYPE svg PUBLIC "-//W3C//DTD SVG 1.1//EN"
 "http://www.w3.org/Graphics/SVG/1.1/DTD/svg11.dtd">
<!-- Generated by graphviz version 9.0.0 (20230911.1827)
 -->
<!-- Title: sourcecode/daqdataformats/include/daqdataformats/Fragment.hpp Pages: 1 -->
<svg width="2557pt" height="416pt"
 viewBox="0.00 0.00 2556.50 416.00" xmlns="http://www.w3.org/2000/svg" xmlns:xlink="http://www.w3.org/1999/xlink">
<g id="graph0" class="graph" transform="scale(1 1) rotate(0) translate(4 412)">
<title>sourcecode/daqdataformats/include/daqdataformats/Fragment.hpp</title>
<!-- Node1 -->
<g id="Node000001" class="node">
<title>Node1</title>
<g id="a_Node000001"><a xlink:title=" ">
<polygon fill="#999999" stroke="#666666" points="1295.75,-408 1159,-408 1159,-366.25 1295.75,-366.25 1295.75,-408"/>
<text text-anchor="start" x="1167" y="-394.5" font-family="Helvetica,sans-Serif" font-size="10.00">sourcecode/daqdataformats</text>
<text text-anchor="start" x="1167" y="-383.25" font-family="Helvetica,sans-Serif" font-size="10.00">/include/daqdataformats</text>
<text text-anchor="middle" x="1227.38" y="-372" font-family="Helvetica,sans-Serif" font-size="10.00">/Fragment.hpp</text>
</a>
</g>
</g>
<!-- Node2 -->
<g id="Node000002" class="node">
<title>Node2</title>
<g id="a_Node000002"><a xlink:href="TimeSlice_8hpp.html" target="_top" xlink:title=" ">
<polygon fill="white" stroke="#666666" points="499.75,-330.25 363,-330.25 363,-288.5 499.75,-288.5 499.75,-330.25"/>
<text text-anchor="start" x="371" y="-316.75" font-family="Helvetica,sans-Serif" font-size="10.00">sourcecode/daqdataformats</text>
<text text-anchor="start" x="371" y="-305.5" font-family="Helvetica,sans-Serif" font-size="10.00">/include/daqdataformats</text>
<text text-anchor="middle" x="431.38" y="-294.25" font-family="Helvetica,sans-Serif" font-size="10.00">/TimeSlice.hpp</text>
</a>
</g>
</g>
<!-- Node1&#45;&gt;Node2 -->
<g id="edge1_Node000001_Node000002" class="edge">
<title>Node1&#45;&gt;Node2</title>
<g id="a_edge1_Node000001_Node000002"><a xlink:title=" ">
<path fill="none" stroke="#63b8ff" d="M1147.43,-378.52C991.01,-363.63 646.95,-330.89 500.05,-316.91"/>
<polygon fill="#63b8ff" stroke="#63b8ff" points="1147.03,-381.99 1157.31,-379.46 1147.69,-375.03 1147.03,-381.99"/>
</a>
</g>
</g>
<!-- Node7 -->
<g id="Node000007" class="node">
<title>Node7</title>
<g id="a_Node000007"><a xlink:href="HDF5RawDataFile_8hpp.html" target="_top" xlink:title=" ">
<polygon fill="white" stroke="#666666" points="843.75,-252.5 689,-252.5 689,-210.75 843.75,-210.75 843.75,-252.5"/>
<text text-anchor="start" x="697" y="-239" font-family="Helvetica,sans-Serif" font-size="10.00">sourcecode/hdf5libs</text>
<text text-anchor="start" x="697" y="-227.75" font-family="Helvetica,sans-Serif" font-size="10.00">/include/hdf5libs/HDF5RawData</text>
<text text-anchor="middle" x="766.38" y="-216.5" font-family="Helvetica,sans-Serif" font-size="10.00">File.hpp</text>
</a>
</g>
</g>
<!-- Node1&#45;&gt;Node7 -->
<g id="edge30_Node000001_Node000007" class="edge">
<title>Node1&#45;&gt;Node7</title>
<g id="a_edge30_Node000001_Node000007"><a xlink:title=" ">
<path fill="none" stroke="#63b8ff" d="M1147.57,-381.54C1050.33,-374.75 892.78,-359.56 842.38,-330.25 834.11,-325.45 800.6,-280.12 780.94,-252.95"/>
<polygon fill="#63b8ff" stroke="#63b8ff" points="1147.1,-385.01 1157.31,-382.2 1147.57,-378.03 1147.1,-385.01"/>
</a>
</g>
</g>
<!-- Node10 -->
<g id="Node000010" class="node">
<title>Node10</title>
<g id="a_Node000010"><a xlink:href="TriggerRecord_8hpp.html" target="_top" xlink:title=" ">
<polygon fill="white" stroke="#666666" points="795.75,-330.25 659,-330.25 659,-288.5 795.75,-288.5 795.75,-330.25"/>
<text text-anchor="start" x="667" y="-316.75" font-family="Helvetica,sans-Serif" font-size="10.00">sourcecode/daqdataformats</text>
<text text-anchor="start" x="667" y="-305.5" font-family="Helvetica,sans-Serif" font-size="10.00">/include/daqdataformats</text>
<text text-anchor="middle" x="727.38" y="-294.25" font-family="Helvetica,sans-Serif" font-size="10.00">/TriggerRecord.hpp</text>
</a>
</g>
</g>
<!-- Node1&#45;&gt;Node10 -->
<g id="edge9_Node000001_Node000010" class="edge">
<title>Node1&#45;&gt;Node10</title>
<g id="a_edge9_Node000001_Node000010"><a xlink:title=" ">
<path fill="none" stroke="#63b8ff" d="M1147.3,-377.95C1062.86,-368.74 926.16,-352.15 809.38,-330.25 805.06,-329.44 800.62,-328.55 796.16,-327.6"/>
<polygon fill="#63b8ff" stroke="#63b8ff" points="1146.78,-381.41 1157.1,-379.01 1147.53,-374.45 1146.78,-381.41"/>
</a>
</g>
</g>
<!-- Node13 -->
<g id="Node000013" class="node">
<title>Node13</title>
<g id="a_Node000013"><a xlink:href="fragment_8cpp.html" target="_top" xlink:title=" ">
<polygon fill="white" stroke="#666666" points="987.75,-324.62 851,-324.62 851,-294.12 987.75,-294.12 987.75,-324.62"/>
<text text-anchor="start" x="859" y="-311.12" font-family="Helvetica,sans-Serif" font-size="10.00">sourcecode/daqdataformats</text>
<text text-anchor="middle" x="919.38" y="-299.88" font-family="Helvetica,sans-Serif" font-size="10.00">/pybindsrc/fragment.cpp</text>
</a>
</g>
</g>
<!-- Node1&#45;&gt;Node13 -->
<g id="edge14_Node000001_Node000013" class="edge">
<title>Node1&#45;&gt;Node13</title>
<g id="a_edge14_Node000001_Node000013"><a xlink:title=" ">
<path fill="none" stroke="#63b8ff" d="M1147.64,-366.99C1103.35,-356.3 1047.28,-342.67 997.38,-330.25 990.73,-328.6 983.77,-326.85 976.86,-325.1"/>
<polygon fill="#63b8ff" stroke="#63b8ff" points="1146.62,-370.34 1157.17,-369.28 1148.27,-363.54 1146.62,-370.34"/>
</a>
</g>
</g>
<!-- Node14 -->
<g id="Node000014" class="node">
<title>Node14</title>
<g id="a_Node000014"><a xlink:href="Fragment__serialization_8hpp.html" target="_top" xlink:title=" ">
<polygon fill="white" stroke="#666666" points="1468.5,-330.25 1318.25,-330.25 1318.25,-288.5 1468.5,-288.5 1468.5,-330.25"/>
<text text-anchor="start" x="1326.25" y="-316.75" font-family="Helvetica,sans-Serif" font-size="10.00">sourcecode/dfmessages</text>
<text text-anchor="start" x="1326.25" y="-305.5" font-family="Helvetica,sans-Serif" font-size="10.00">/include/dfmessages/Fragment</text>
<text text-anchor="middle" x="1393.38" y="-294.25" font-family="Helvetica,sans-Serif" font-size="10.00">_serialization.hpp</text>
</a>
</g>
</g>
<!-- Node1&#45;&gt;Node14 -->
<g id="edge15_Node000001_Node000014" class="edge">
<title>Node1&#45;&gt;Node14</title>
<g id="a_edge15_Node000001_Node000014"><a xlink:title=" ">
<path fill="none" stroke="#63b8ff" d="M1282.2,-361.11C1303.8,-351.25 1328.28,-340.08 1348.77,-330.73"/>
<polygon fill="#63b8ff" stroke="#63b8ff" points="1280.88,-357.86 1273.24,-365.2 1283.79,-364.23 1280.88,-357.86"/>
</a>
</g>
</g>
<!-- Node23 -->
<g id="Node000023" class="node">
<title>Node23</title>
<g id="a_Node000023"><a xlink:href="HDF5FileLayout_8hpp.html" target="_top" xlink:title=" ">
<polygon fill="white" stroke="#666666" points="1136.75,-330.25 1006,-330.25 1006,-288.5 1136.75,-288.5 1136.75,-330.25"/>
<text text-anchor="start" x="1014" y="-316.75" font-family="Helvetica,sans-Serif" font-size="10.00">sourcecode/hdf5libs</text>
<text text-anchor="start" x="1014" y="-305.5" font-family="Helvetica,sans-Serif" font-size="10.00">/include/hdf5libs/HDF5File</text>
<text text-anchor="middle" x="1071.38" y="-294.25" font-family="Helvetica,sans-Serif" font-size="10.00">Layout.hpp</text>
</a>
</g>
</g>
<!-- Node1&#45;&gt;Node23 -->
<g id="edge27_Node000001_Node000023" class="edge">
<title>Node1&#45;&gt;Node23</title>
<g id="a_edge27_Node000001_Node000023"><a xlink:title=" ">
<path fill="none" stroke="#63b8ff" d="M1175.3,-360.84C1155.14,-351.05 1132.37,-339.99 1113.3,-330.73"/>
<polygon fill="#63b8ff" stroke="#63b8ff" points="1173.68,-363.94 1184.21,-365.16 1176.74,-357.65 1173.68,-363.94"/>
</a>
</g>
</g>
<!-- Node25 -->
<g id="Node000025" class="node">
<title>Node25</title>
<g id="a_Node000025"><a xlink:href="HDF5SourceIDHandler_8hpp.html" target="_top" xlink:title=" ">
<polygon fill="white" stroke="#666666" points="1300.25,-330.25 1154.5,-330.25 1154.5,-288.5 1300.25,-288.5 1300.25,-330.25"/>
<text text-anchor="start" x="1162.5" y="-316.75" font-family="Helvetica,sans-Serif" font-size="10.00">sourcecode/hdf5libs</text>
<text text-anchor="start" x="1162.5" y="-305.5" font-family="Helvetica,sans-Serif" font-size="10.00">/include/hdf5libs/HDF5Source</text>
<text text-anchor="middle" x="1227.38" y="-294.25" font-family="Helvetica,sans-Serif" font-size="10.00">IDHandler.hpp</text>
</a>
</g>
</g>
<!-- Node1&#45;&gt;Node25 -->
<g id="edge31_Node000001_Node000025" class="edge">
<title>Node1&#45;&gt;Node25</title>
<g id="a_edge31_Node000001_Node000025"><a xlink:title=" ">
<path fill="none" stroke="#63b8ff" d="M1227.38,-354.5C1227.38,-346.46 1227.38,-338.04 1227.38,-330.73"/>
<polygon fill="#63b8ff" stroke="#63b8ff" points="1223.88,-354.31 1227.38,-364.31 1230.88,-354.31 1223.88,-354.31"/>
</a>
</g>
</g>
<!-- Node27 -->
<g id="Node000027" class="node">
<title>Node27</title>
<g id="a_Node000027"><a xlink:href="RequestHandlerConcept_8hpp.html" target="_top" xlink:title=" ">
<polygon fill="white" stroke="#666666" points="1676.75,-330.25 1534,-330.25 1534,-288.5 1676.75,-288.5 1676.75,-330.25"/>
<text text-anchor="start" x="1542" y="-316.75" font-family="Helvetica,sans-Serif" font-size="10.00">sourcecode/readoutlibs</text>
<text text-anchor="start" x="1542" y="-305.5" font-family="Helvetica,sans-Serif" font-size="10.00">/include/readoutlibs/concepts</text>
<text text-anchor="middle" x="1605.38" y="-294.25" font-family="Helvetica,sans-Serif" font-size="10.00">/RequestHandlerConcept.hpp</text>
</a>
</g>
</g>
<!-- Node1&#45;&gt;Node27 -->
<g id="edge34_Node000001_Node000027" class="edge">
<title>Node1&#45;&gt;Node27</title>
<g id="a_edge34_Node000001_Node000027"><a xlink:title=" ">
<path fill="none" stroke="#63b8ff" d="M1306.75,-370.22C1373.74,-356.79 1468.82,-337.74 1533.57,-324.76"/>
<polygon fill="#63b8ff" stroke="#63b8ff" points="1306.43,-366.71 1297.31,-372.11 1307.8,-373.58 1306.43,-366.71"/>
</a>
</g>
</g>
<!-- Node28 -->
<g id="Node000028" class="node">
<title>Node28</title>
<g id="a_Node000028"><a xlink:href="ReadoutModel_8hpp.html" target="_top" xlink:title=" ">
<polygon fill="white" stroke="#666666" points="1826.62,-252.5 1692.12,-252.5 1692.12,-210.75 1826.62,-210.75 1826.62,-252.5"/>
<text text-anchor="start" x="1700.12" y="-239" font-family="Helvetica,sans-Serif" font-size="10.00">sourcecode/readoutlibs</text>
<text text-anchor="start" x="1700.12" y="-227.75" font-family="Helvetica,sans-Serif" font-size="10.00">/include/readoutlibs/models</text>
<text text-anchor="middle" x="1759.38" y="-216.5" font-family="Helvetica,sans-Serif" font-size="10.00">/ReadoutModel.hpp</text>
</a>
</g>
</g>
<!-- Node1&#45;&gt;Node28 -->
<g id="edge39_Node000001_Node000028" class="edge">
<title>Node1&#45;&gt;Node28</title>
<g id="a_edge39_Node000001_Node000028"><a xlink:title=" ">
<path fill="none" stroke="#63b8ff" d="M1307.4,-383.8C1421.15,-379.25 1622.77,-366.25 1685.38,-330.25 1716.35,-312.44 1738.54,-275.96 1750.13,-252.99"/>
<polygon fill="#63b8ff" stroke="#63b8ff" points="1307.37,-380.3 1297.51,-384.18 1307.64,-387.29 1307.37,-380.3"/>
</a>
</g>
</g>
<!-- Node29 -->
<g id="Node000029" class="node">
<title>Node29</title>
<g id="a_Node000029"><a xlink:href="TAWrapper_8hpp.html" target="_top" xlink:title=" ">
<polygon fill="white" stroke="#666666" points="1944.12,-324.62 1794.62,-324.62 1794.62,-294.12 1944.12,-294.12 1944.12,-324.62"/>
<text text-anchor="start" x="1802.62" y="-311.12" font-family="Helvetica,sans-Serif" font-size="10.00">sourcecode/trigger</text>
<text text-anchor="middle" x="1869.38" y="-299.88" font-family="Helvetica,sans-Serif" font-size="10.00">/include/trigger/TAWrapper.hpp</text>
</a>
</g>
</g>
<!-- Node1&#45;&gt;Node29 -->
<g id="edge40_Node000001_Node000029" class="edge">
<title>Node1&#45;&gt;Node29</title>
<g id="a_edge40_Node000001_Node000029"><a xlink:title=" ">
<path fill="none" stroke="#63b8ff" d="M1307.51,-379.45C1411.49,-370.39 1598.43,-352.7 1757.38,-330.25 1769.3,-328.57 1781.91,-326.55 1794.18,-324.47"/>
<polygon fill="#63b8ff" stroke="#63b8ff" points="1307.34,-375.95 1297.68,-380.3 1307.95,-382.93 1307.34,-375.95"/>
</a>
</g>
</g>
<!-- Node33 -->
<g id="Node000033" class="node">
<title>Node33</title>
<g id="a_Node000033"><a xlink:href="TCWrapper_8hpp.html" target="_top" xlink:title=" ">
<polygon fill="white" stroke="#666666" points="2269.12,-324.62 2119.62,-324.62 2119.62,-294.12 2269.12,-294.12 2269.12,-324.62"/>
<text text-anchor="start" x="2127.62" y="-311.12" font-family="Helvetica,sans-Serif" font-size="10.00">sourcecode/trigger</text>
<text text-anchor="middle" x="2194.38" y="-299.88" font-family="Helvetica,sans-Serif" font-size="10.00">/include/trigger/TCWrapper.hpp</text>
</a>
</g>
</g>
<!-- Node1&#45;&gt;Node33 -->
<g id="edge45_Node000001_Node000033" class="edge">
<title>Node1&#45;&gt;Node33</title>
<g id="a_edge45_Node000001_Node000033"><a xlink:title=" ">
<path fill="none" stroke="#63b8ff" d="M1307.53,-380.1C1441.35,-370.01 1718.74,-348.95 1953.38,-330.25 2008.93,-325.82 2071.67,-320.64 2119.21,-316.68"/>
<polygon fill="#63b8ff" stroke="#63b8ff" points="1307.42,-376.6 1297.71,-380.84 1307.95,-383.58 1307.42,-376.6"/>
</a>
</g>
</g>
<!-- Node3 -->
<g id="Node000003" class="node">
<title>Node3</title>
<g id="a_Node000003"><a xlink:href="time__slice_8cpp.html" target="_top" xlink:title=" ">
<polygon fill="white" stroke="#666666" points="136.75,-246.88 0,-246.88 0,-216.38 136.75,-216.38 136.75,-246.88"/>
<text text-anchor="start" x="8" y="-233.38" font-family="Helvetica,sans-Serif" font-size="10.00">sourcecode/daqdataformats</text>
<text text-anchor="middle" x="68.38" y="-222.12" font-family="Helvetica,sans-Serif" font-size="10.00">/pybindsrc/time_slice.cpp</text>
</a>
</g>
</g>
<!-- Node2&#45;&gt;Node3 -->
<g id="edge2_Node000002_Node000003" class="edge">
<title>Node2&#45;&gt;Node3</title>
<g id="a_edge2_Node000002_Node000003"><a xlink:title=" ">
<path fill="none" stroke="#63b8ff" d="M351.46,-294.08C293.95,-283.48 214.65,-268.19 145.38,-252.5 138.37,-250.91 131.04,-249.15 123.8,-247.35"/>
<polygon fill="#63b8ff" stroke="#63b8ff" points="350.7,-297.5 361.17,-295.87 351.96,-290.62 350.7,-297.5"/>
</a>
</g>
</g>
<!-- Node4 -->
<g id="Node000004" class="node">
<title>Node4</title>
<g id="a_Node000004"><a xlink:href="DataStore_8hpp.html" target="_top" xlink:title=" ">
<polygon fill="white" stroke="#666666" points="512.5,-246.88 350.25,-246.88 350.25,-216.38 512.5,-216.38 512.5,-246.88"/>
<text text-anchor="start" x="358.25" y="-233.38" font-family="Helvetica,sans-Serif" font-size="10.00">sourcecode/dfmodules</text>
<text text-anchor="middle" x="431.38" y="-222.12" font-family="Helvetica,sans-Serif" font-size="10.00">/include/dfmodules/DataStore.hpp</text>
</a>
</g>
</g>
<!-- Node2&#45;&gt;Node4 -->
<g id="edge3_Node000002_Node000004" class="edge">
<title>Node2&#45;&gt;Node4</title>
<g id="a_edge3_Node000002_Node000004"><a xlink:title=" ">
<path fill="none" stroke="#63b8ff" d="M431.38,-276.81C431.38,-266.44 431.38,-255.42 431.38,-246.98"/>
<polygon fill="#63b8ff" stroke="#63b8ff" points="427.88,-276.56 431.38,-286.56 434.88,-276.56 427.88,-276.56"/>
</a>
</g>
</g>
<!-- Node5 -->
<g id="Node000005" class="node">
<title>Node5</title>
<g id="a_Node000005"><a xlink:href="TPBundleHandler_8hpp.html" target="_top" xlink:title=" ">
<polygon fill="white" stroke="#666666" points="332.38,-246.88 154.38,-246.88 154.38,-216.38 332.38,-216.38 332.38,-246.88"/>
<text text-anchor="start" x="162.38" y="-233.38" font-family="Helvetica,sans-Serif" font-size="10.00">sourcecode/dfmodules</text>
<text text-anchor="middle" x="243.38" y="-222.12" font-family="Helvetica,sans-Serif" font-size="10.00">/src/dfmodules/TPBundleHandler.hpp</text>
</a>
</g>
</g>
<!-- Node2&#45;&gt;Node5 -->
<g id="edge4_Node000002_Node000005" class="edge">
<title>Node2&#45;&gt;Node5</title>
<g id="a_edge4_Node000002_Node000005"><a xlink:title=" ">
<path fill="none" stroke="#63b8ff" d="M370.65,-283.91C340.72,-271.85 305.63,-257.71 279.88,-247.33"/>
<polygon fill="#63b8ff" stroke="#63b8ff" points="369.01,-287.02 379.59,-287.51 371.62,-280.53 369.01,-287.02"/>
</a>
</g>
</g>
<!-- Node2&#45;&gt;Node7 -->
<g id="edge6_Node000002_Node000007" class="edge">
<title>Node2&#45;&gt;Node7</title>
<g id="a_edge6_Node000002_Node000007"><a xlink:title=" ">
<path fill="none" stroke="#63b8ff" d="M511.16,-290.46C559.78,-279.53 623.17,-265.25 679.38,-252.5 682.4,-251.81 685.48,-251.11 688.59,-250.41"/>
<polygon fill="#63b8ff" stroke="#63b8ff" points="510.54,-287.01 501.55,-292.62 512.08,-293.84 510.54,-287.01"/>
</a>
</g>
</g>
<!-- Node6 -->
<g id="Node000006" class="node">
<title>Node6</title>
<g id="a_Node000006"><a xlink:href="TPBundleHandler_8cpp.html" target="_top" xlink:title=" ">
<polygon fill="white" stroke="#666666" points="308.38,-169.12 178.38,-169.12 178.38,-138.62 308.38,-138.62 308.38,-169.12"/>
<text text-anchor="start" x="186.38" y="-155.62" font-family="Helvetica,sans-Serif" font-size="10.00">sourcecode/dfmodules</text>
<text text-anchor="middle" x="243.38" y="-144.38" font-family="Helvetica,sans-Serif" font-size="10.00">/src/TPBundleHandler.cpp</text>
</a>
</g>
</g>
<!-- Node5&#45;&gt;Node6 -->
<g id="edge5_Node000005_Node000006" class="edge">
<title>Node5&#45;&gt;Node6</title>
<g id="a_edge5_Node000005_Node000006"><a xlink:title=" ">
<path fill="none" stroke="#63b8ff" d="M243.38,-204.6C243.38,-192.84 243.38,-179.38 243.38,-169.44"/>
<polygon fill="#63b8ff" stroke="#63b8ff" points="239.88,-204.51 243.38,-214.51 246.88,-204.51 239.88,-204.51"/>
</a>
</g>
</g>
<!-- Node8 -->
<g id="Node000008" class="node">
<title>Node8</title>
<g id="a_Node000008"><a xlink:href="hdf5rawdatafile_8cpp.html" target="_top" xlink:title=" ">
<polygon fill="white" stroke="#666666" points="908.62,-169.12 762.12,-169.12 762.12,-138.62 908.62,-138.62 908.62,-169.12"/>
<text text-anchor="start" x="770.12" y="-155.62" font-family="Helvetica,sans-Serif" font-size="10.00">sourcecode/hdf5libs</text>
<text text-anchor="middle" x="835.38" y="-144.38" font-family="Helvetica,sans-Serif" font-size="10.00">/pybindsrc/hdf5rawdatafile.cpp</text>
</a>
</g>
</g>
<!-- Node7&#45;&gt;Node8 -->
<g id="edge7_Node000007_Node000008" class="edge">
<title>Node7&#45;&gt;Node8</title>
<g id="a_edge7_Node000007_Node000008"><a xlink:title=" ">
<path fill="none" stroke="#63b8ff" d="M792.4,-202.05C802.61,-190.85 813.87,-178.49 822.3,-169.23"/>
<polygon fill="#63b8ff" stroke="#63b8ff" points="790.03,-199.46 785.88,-209.21 795.21,-204.17 790.03,-199.46"/>
</a>
</g>
</g>
<!-- Node9 -->
<g id="Node000009" class="node">
<title>Node9</title>
<g id="a_Node000009"><a xlink:href="HDF5RawDataFile_8cpp.html" target="_top" xlink:title=" ">
<polygon fill="white" stroke="#666666" points="743.62,-169.12 609.12,-169.12 609.12,-138.62 743.62,-138.62 743.62,-169.12"/>
<text text-anchor="start" x="617.12" y="-155.62" font-family="Helvetica,sans-Serif" font-size="10.00">sourcecode/hdf5libs</text>
<text text-anchor="middle" x="676.38" y="-144.38" font-family="Helvetica,sans-Serif" font-size="10.00">/src/HDF5RawDataFile.cpp</text>
</a>
</g>
</g>
<!-- Node7&#45;&gt;Node9 -->
<g id="edge8_Node000007_Node000009" class="edge">
<title>Node7&#45;&gt;Node9</title>
<g id="a_edge8_Node000007_Node000009"><a xlink:title=" ">
<path fill="none" stroke="#63b8ff" d="M733.66,-203.09C720.14,-191.71 705.02,-178.98 693.71,-169.46"/>
<polygon fill="#63b8ff" stroke="#63b8ff" points="731.19,-205.59 741.1,-209.35 735.7,-200.23 731.19,-205.59"/>
</a>
</g>
</g>
<!-- Node10&#45;&gt;Node4 -->
<g id="edge12_Node000010_Node000004" class="edge">
<title>Node10&#45;&gt;Node4</title>
<g id="a_edge12_Node000010_Node000004"><a xlink:title=" ">
<path fill="none" stroke="#63b8ff" d="M647.59,-287.96C597.43,-275.12 533.9,-258.86 488.71,-247.3"/>
<polygon fill="#63b8ff" stroke="#63b8ff" points="646.7,-291.34 657.26,-290.43 648.44,-284.56 646.7,-291.34"/>
</a>
</g>
</g>
<!-- Node10&#45;&gt;Node7 -->
<g id="edge13_Node000010_Node000007" class="edge">
<title>Node10&#45;&gt;Node7</title>
<g id="a_edge13_Node000010_Node000007"><a xlink:title=" ">
<path fill="none" stroke="#63b8ff" d="M743.08,-277.87C747.39,-269.5 751.96,-260.63 755.89,-252.98"/>
<polygon fill="#63b8ff" stroke="#63b8ff" points="739.98,-276.24 738.52,-286.73 746.21,-279.44 739.98,-276.24"/>
</a>
</g>
</g>
<!-- Node11 -->
<g id="Node000011" class="node">
<title>Node11</title>
<g id="a_Node000011"><a xlink:href="trigger__record_8cpp.html" target="_top" xlink:title=" ">
<polygon fill="white" stroke="#666666" points="670.62,-246.88 530.12,-246.88 530.12,-216.38 670.62,-216.38 670.62,-246.88"/>
<text text-anchor="start" x="538.12" y="-233.38" font-family="Helvetica,sans-Serif" font-size="10.00">sourcecode/daqdataformats</text>
<text text-anchor="middle" x="600.38" y="-222.12" font-family="Helvetica,sans-Serif" font-size="10.00">/pybindsrc/trigger_record.cpp</text>
</a>
</g>
</g>
<!-- Node10&#45;&gt;Node11 -->
<g id="edge10_Node000010_Node000011" class="edge">
<title>Node10&#45;&gt;Node11</title>
<g id="a_edge10_Node000010_Node000011"><a xlink:title=" ">
<path fill="none" stroke="#63b8ff" d="M683.65,-282.3C663.97,-270.56 641.48,-257.14 624.84,-247.21"/>
<polygon fill="#63b8ff" stroke="#63b8ff" points="681.66,-285.18 692.04,-287.3 685.25,-279.17 681.66,-285.18"/>
</a>
</g>
</g>
<!-- Node12 -->
<g id="Node000012" class="node">
<title>Node12</title>
<g id="a_Node000012"><a xlink:href="TriggerRecord__serialization_8hpp.html" target="_top" xlink:title=" ">
<polygon fill="white" stroke="#666666" points="1142.88,-252.5 1003.88,-252.5 1003.88,-210.75 1142.88,-210.75 1142.88,-252.5"/>
<text text-anchor="start" x="1011.88" y="-239" font-family="Helvetica,sans-Serif" font-size="10.00">sourcecode/dfmessages</text>
<text text-anchor="start" x="1011.88" y="-227.75" font-family="Helvetica,sans-Serif" font-size="10.00">/include/dfmessages/Trigger</text>
<text text-anchor="middle" x="1073.38" y="-216.5" font-family="Helvetica,sans-Serif" font-size="10.00">Record_serialization.hpp</text>
</a>
</g>
</g>
<!-- Node10&#45;&gt;Node12 -->
<g id="edge11_Node000010_Node000012" class="edge">
<title>Node10&#45;&gt;Node12</title>
<g id="a_edge11_Node000010_Node000012"><a xlink:title=" ">
<path fill="none" stroke="#63b8ff" d="M807.19,-292.54C860.35,-281.79 931.69,-266.94 994.38,-252.5 997.41,-251.8 1000.5,-251.08 1003.62,-250.33"/>
<polygon fill="#63b8ff" stroke="#63b8ff" points="806.73,-289.07 797.62,-294.48 808.11,-295.93 806.73,-289.07"/>
</a>
</g>
</g>
<!-- Node14&#45;&gt;Node12 -->
<g id="edge16_Node000014_Node000012" class="edge">
<title>Node14&#45;&gt;Node12</title>
<g id="a_edge16_Node000014_Node000012"><a xlink:title=" ">
<path fill="none" stroke="#63b8ff" d="M1306.73,-287.9C1237.35,-271.9 1217.97,-268.57 1151.38,-252.5 1148.66,-251.84 1145.89,-251.17 1143.09,-250.48"/>
<polygon fill="#63b8ff" stroke="#63b8ff" points="1305.82,-291.28 1316.35,-290.13 1307.4,-284.46 1305.82,-291.28"/>
</a>
</g>
</g>
<!-- Node15 -->
<g id="Node000015" class="node">
<title>Node15</title>
<g id="a_Node000015"><a xlink:href="Serialization_8cpp.html" target="_top" xlink:title=" ">
<polygon fill="white" stroke="#666666" points="1454.62,-246.88 1332.12,-246.88 1332.12,-216.38 1454.62,-216.38 1454.62,-246.88"/>
<text text-anchor="start" x="1340.12" y="-233.38" font-family="Helvetica,sans-Serif" font-size="10.00">sourcecode/dfmessages</text>
<text text-anchor="middle" x="1393.38" y="-222.12" font-family="Helvetica,sans-Serif" font-size="10.00">/src/Serialization.cpp</text>
</a>
</g>
</g>
<!-- Node14&#45;&gt;Node15 -->
<g id="edge17_Node000014_Node000015" class="edge">
<title>Node14&#45;&gt;Node15</title>
<g id="a_edge17_Node000014_Node000015"><a xlink:title=" ">
<path fill="none" stroke="#63b8ff" d="M1393.38,-276.81C1393.38,-266.44 1393.38,-255.42 1393.38,-246.98"/>
<polygon fill="#63b8ff" stroke="#63b8ff" points="1389.88,-276.56 1393.38,-286.56 1396.88,-276.56 1389.88,-276.56"/>
</a>
</g>
</g>
<!-- Node16 -->
<g id="Node000016" class="node">
<title>Node16</title>
<g id="a_Node000016"><a xlink:href="DefaultRequestHandlerModel_8hpp.html" target="_top" xlink:title=" ">
<polygon fill="white" stroke="#666666" points="1636.25,-252.5 1472.5,-252.5 1472.5,-210.75 1636.25,-210.75 1636.25,-252.5"/>
<text text-anchor="start" x="1480.5" y="-239" font-family="Helvetica,sans-Serif" font-size="10.00">sourcecode/readoutlibs</text>
<text text-anchor="start" x="1480.5" y="-227.75" font-family="Helvetica,sans-Serif" font-size="10.00">/include/readoutlibs/models</text>
<text text-anchor="middle" x="1554.38" y="-216.5" font-family="Helvetica,sans-Serif" font-size="10.00">/DefaultRequestHandlerModel.hpp</text>
</a>
</g>
</g>
<!-- Node14&#45;&gt;Node16 -->
<g id="edge18_Node000014_Node000016" class="edge">
<title>Node14&#45;&gt;Node16</title>
<g id="a_edge18_Node000014_Node000016"><a xlink:title=" ">
<path fill="none" stroke="#63b8ff" d="M1446.83,-283.22C1467.71,-273.4 1491.33,-262.29 1511.11,-252.98"/>
<polygon fill="#63b8ff" stroke="#63b8ff" points="1445.45,-280.01 1437.89,-287.43 1448.43,-286.34 1445.45,-280.01"/>
</a>
</g>
</g>
<!-- Node17 -->
<g id="Node000017" class="node">
<title>Node17</title>
<g id="a_Node000017"><a xlink:href="DefaultSkipListRequestHandler_8hpp.html" target="_top" xlink:title=" ">
<polygon fill="white" stroke="#666666" points="1170.12,-174.75 996.62,-174.75 996.62,-133 1170.12,-133 1170.12,-174.75"/>
<text text-anchor="start" x="1004.62" y="-161.25" font-family="Helvetica,sans-Serif" font-size="10.00">sourcecode/readoutlibs</text>
<text text-anchor="start" x="1004.62" y="-150" font-family="Helvetica,sans-Serif" font-size="10.00">/include/readoutlibs/models</text>
<text text-anchor="middle" x="1083.38" y="-138.75" font-family="Helvetica,sans-Serif" font-size="10.00">/DefaultSkipListRequestHandler.hpp</text>
</a>
</g>
</g>
<!-- Node16&#45;&gt;Node17 -->
<g id="edge19_Node000016_Node000017" class="edge">
<title>Node16&#45;&gt;Node17</title>
<g id="a_edge19_Node000016_Node000017"><a xlink:title=" ">
<path fill="none" stroke="#63b8ff" d="M1460.91,-210.41C1335.59,-189.47 1300.73,-195.24 1178.38,-174.75 1175.8,-174.32 1173.19,-173.87 1170.55,-173.4"/>
<polygon fill="#63b8ff" stroke="#63b8ff" points="1460.16,-213.83 1470.61,-212.06 1461.33,-206.93 1460.16,-213.83"/>
</a>
</g>
</g>
<!-- Node20 -->
<g id="Node000020" class="node">
<title>Node20</title>
<g id="a_Node000020"><a xlink:href="EmptyFragmentRequestHandlerModel_8hpp.html" target="_top" xlink:title=" ">
<polygon fill="white" stroke="#666666" points="1389,-174.75 1187.75,-174.75 1187.75,-133 1389,-133 1389,-174.75"/>
<text text-anchor="start" x="1195.75" y="-161.25" font-family="Helvetica,sans-Serif" font-size="10.00">sourcecode/readoutlibs</text>
<text text-anchor="start" x="1195.75" y="-150" font-family="Helvetica,sans-Serif" font-size="10.00">/include/readoutlibs/models</text>
<text text-anchor="middle" x="1288.38" y="-138.75" font-family="Helvetica,sans-Serif" font-size="10.00">/EmptyFragmentRequestHandlerModel.hpp</text>
</a>
</g>
</g>
<!-- Node16&#45;&gt;Node20 -->
<g id="edge22_Node000016_Node000020" class="edge">
<title>Node16&#45;&gt;Node20</title>
<g id="a_edge22_Node000016_Node000020"><a xlink:title=" ">
<path fill="none" stroke="#63b8ff" d="M1472.14,-207.21C1436.21,-196.98 1394.47,-185.09 1359.85,-175.23"/>
<polygon fill="#63b8ff" stroke="#63b8ff" points="1471.06,-210.54 1481.64,-209.91 1472.98,-203.81 1471.06,-210.54"/>
</a>
</g>
</g>
<!-- Node21 -->
<g id="Node000021" class="node">
<title>Node21</title>
<g id="a_Node000021"><a xlink:href="Readoutlibs_8cpp.html" target="_top" xlink:title=" ">
<polygon fill="white" stroke="#666666" points="1612.62,-97 1496.12,-97 1496.12,-66.5 1612.62,-66.5 1612.62,-97"/>
<text text-anchor="start" x="1504.12" y="-83.5" font-family="Helvetica,sans-Serif" font-size="10.00">sourcecode/readoutlibs</text>
<text text-anchor="middle" x="1554.38" y="-72.25" font-family="Helvetica,sans-Serif" font-size="10.00">/src/Readoutlibs.cpp</text>
</a>
</g>
</g>
<!-- Node16&#45;&gt;Node21 -->
<g id="edge26_Node000016_Node000021" class="edge">
<title>Node16&#45;&gt;Node21</title>
<g id="a_edge26_Node000016_Node000021"><a xlink:title=" ">
<path fill="none" stroke="#63b8ff" d="M1469.55,-205.14C1456.37,-197.46 1444.47,-187.54 1436.38,-174.75 1426.45,-159.07 1426.14,-148.48 1436.38,-133 1449.82,-112.66 1473.35,-100.53 1495.88,-93.3"/>
<polygon fill="#63b8ff" stroke="#63b8ff" points="1467.52,-208.02 1477.99,-209.63 1470.81,-201.84 1467.52,-208.02"/>
</a>
</g>
</g>
<!-- Node22 -->
<g id="Node000022" class="node">
<title>Node22</title>
<g id="a_Node000022"><a xlink:href="ZeroCopyRecordingRequestHandlerModel_8hpp.html" target="_top" xlink:title=" ">
<polygon fill="white" stroke="#666666" points="1663.25,-174.75 1445.5,-174.75 1445.5,-133 1663.25,-133 1663.25,-174.75"/>
<text text-anchor="start" x="1453.5" y="-161.25" font-family="Helvetica,sans-Serif" font-size="10.00">sourcecode/readoutlibs</text>
<text text-anchor="start" x="1453.5" y="-150" font-family="Helvetica,sans-Serif" font-size="10.00">/include/readoutlibs/models</text>
<text text-anchor="middle" x="1554.38" y="-138.75" font-family="Helvetica,sans-Serif" font-size="10.00">/ZeroCopyRecordingRequestHandlerModel.hpp</text>
</a>
</g>
</g>
<!-- Node16&#45;&gt;Node22 -->
<g id="edge24_Node000016_Node000022" class="edge">
<title>Node16&#45;&gt;Node22</title>
<g id="a_edge24_Node000016_Node000022"><a xlink:title=" ">
<path fill="none" stroke="#63b8ff" d="M1554.38,-199C1554.38,-190.96 1554.38,-182.54 1554.38,-175.23"/>
<polygon fill="#63b8ff" stroke="#63b8ff" points="1550.88,-198.81 1554.38,-208.81 1557.88,-198.81 1550.88,-198.81"/>
</a>
</g>
</g>
<!-- Node18 -->
<g id="Node000018" class="node">
<title>Node18</title>
<g id="a_Node000018"><a xlink:href="TPRequestHandler_8hpp.html" target="_top" xlink:title=" ">
<polygon fill="white" stroke="#666666" points="1166.38,-97 1000.38,-97 1000.38,-66.5 1166.38,-66.5 1166.38,-97"/>
<text text-anchor="start" x="1008.38" y="-83.5" font-family="Helvetica,sans-Serif" font-size="10.00">sourcecode/trigger</text>
<text text-anchor="middle" x="1083.38" y="-72.25" font-family="Helvetica,sans-Serif" font-size="10.00">/src/trigger/TPRequestHandler.hpp</text>
</a>
</g>
</g>
<!-- Node17&#45;&gt;Node18 -->
<g id="edge20_Node000017_Node000018" class="edge">
<title>Node17&#45;&gt;Node18</title>
<g id="a_edge20_Node000017_Node000018"><a xlink:title=" ">
<path fill="none" stroke="#63b8ff" d="M1083.38,-121.13C1083.38,-112.77 1083.38,-104.15 1083.38,-97.2"/>
<polygon fill="#63b8ff" stroke="#63b8ff" points="1079.88,-121.08 1083.38,-131.08 1086.88,-121.08 1079.88,-121.08"/>
</a>
</g>
</g>
<!-- Node19 -->
<g id="Node000019" class="node">
<title>Node19</title>
<g id="a_Node000019"><a xlink:href="TPRequestHandler_8cpp.html" target="_top" xlink:title=" ">
<polygon fill="white" stroke="#666666" points="1151.38,-30.5 1015.38,-30.5 1015.38,0 1151.38,0 1151.38,-30.5"/>
<text text-anchor="start" x="1023.38" y="-17" font-family="Helvetica,sans-Serif" font-size="10.00">sourcecode/trigger</text>
<text text-anchor="middle" x="1083.38" y="-5.75" font-family="Helvetica,sans-Serif" font-size="10.00">/src/TPRequestHandler.cpp</text>
</a>
</g>
</g>
<!-- Node18&#45;&gt;Node19 -->
<g id="edge21_Node000018_Node000019" class="edge">
<title>Node18&#45;&gt;Node19</title>
<g id="a_edge21_Node000018_Node000019"><a xlink:title=" ">
<path fill="none" stroke="#63b8ff" d="M1083.38,-54.81C1083.38,-46.64 1083.38,-37.91 1083.38,-30.83"/>
<polygon fill="#63b8ff" stroke="#63b8ff" points="1079.88,-54.6 1083.38,-64.6 1086.88,-54.6 1079.88,-54.6"/>
</a>
</g>
</g>
<!-- Node20&#45;&gt;Node21 -->
<g id="edge23_Node000020_Node000021" class="edge">
<title>Node20&#45;&gt;Node21</title>
<g id="a_edge23_Node000020_Node000021"><a xlink:title=" ">
<path fill="none" stroke="#63b8ff" d="M1376.25,-129.71C1416.62,-119.07 1463.29,-106.76 1498.73,-97.42"/>
<polygon fill="#63b8ff" stroke="#63b8ff" points="1375.55,-126.27 1366.78,-132.21 1377.34,-133.04 1375.55,-126.27"/>
</a>
</g>
</g>
<!-- Node22&#45;&gt;Node21 -->
<g id="edge25_Node000022_Node000021" class="edge">
<title>Node22&#45;&gt;Node21</title>
<g id="a_edge25_Node000022_Node000021"><a xlink:title=" ">
<path fill="none" stroke="#63b8ff" d="M1554.38,-121.13C1554.38,-112.77 1554.38,-104.15 1554.38,-97.2"/>
<polygon fill="#63b8ff" stroke="#63b8ff" points="1550.88,-121.08 1554.38,-131.08 1557.88,-121.08 1550.88,-121.08"/>
</a>
</g>
</g>
<!-- Node23&#45;&gt;Node7 -->
<g id="edge28_Node000023_Node000007" class="edge">
<title>Node23&#45;&gt;Node7</title>
<g id="a_edge28_Node000023_Node000007"><a xlink:title=" ">
<path fill="none" stroke="#63b8ff" d="M994.72,-288.1C938.94,-273.99 886.09,-261.16 844.19,-251.11"/>
<polygon fill="#63b8ff" stroke="#63b8ff" points="993.52,-291.41 1004.08,-290.48 995.25,-284.62 993.52,-291.41"/>
</a>
</g>
</g>
<!-- Node24 -->
<g id="Node000024" class="node">
<title>Node24</title>
<g id="a_Node000024"><a xlink:href="HDF5FileLayout_8cpp.html" target="_top" xlink:title=" ">
<polygon fill="white" stroke="#666666" points="985.38,-246.88 861.38,-246.88 861.38,-216.38 985.38,-216.38 985.38,-246.88"/>
<text text-anchor="start" x="869.38" y="-233.38" font-family="Helvetica,sans-Serif" font-size="10.00">sourcecode/hdf5libs</text>
<text text-anchor="middle" x="923.38" y="-222.12" font-family="Helvetica,sans-Serif" font-size="10.00">/src/HDF5FileLayout.cpp</text>
</a>
</g>
</g>
<!-- Node23&#45;&gt;Node24 -->
<g id="edge29_Node000023_Node000024" class="edge">
<title>Node23&#45;&gt;Node24</title>
<g id="a_edge29_Node000023_Node000024"><a xlink:title=" ">
<path fill="none" stroke="#63b8ff" d="M1021.67,-282.94C998.45,-271.05 971.63,-257.32 951.88,-247.21"/>
<polygon fill="#63b8ff" stroke="#63b8ff" points="1019.87,-285.95 1030.37,-287.39 1023.06,-279.71 1019.87,-285.95"/>
</a>
</g>
</g>
<!-- Node25&#45;&gt;Node7 -->
<g id="edge32_Node000025_Node000007" class="edge">
<title>Node25&#45;&gt;Node7</title>
<g id="a_edge32_Node000025_Node000007"><a xlink:title=" ">
<path fill="none" stroke="#63b8ff" d="M1143.07,-288.2C1014.32,-265.55 978.05,-274.68 852.38,-252.5 849.66,-252.02 846.9,-251.51 844.12,-250.98"/>
<polygon fill="#63b8ff" stroke="#63b8ff" points="1142.2,-291.6 1152.66,-289.92 1143.43,-284.71 1142.2,-291.6"/>
</a>
</g>
</g>
<!-- Node26 -->
<g id="Node000026" class="node">
<title>Node26</title>
<g id="a_Node000026"><a xlink:href="HDF5SourceIDHandler_8cpp.html" target="_top" xlink:title=" ">
<polygon fill="white" stroke="#666666" points="1314,-246.88 1160.75,-246.88 1160.75,-216.38 1314,-216.38 1314,-246.88"/>
<text text-anchor="start" x="1168.75" y="-233.38" font-family="Helvetica,sans-Serif" font-size="10.00">sourcecode/hdf5libs</text>
<text text-anchor="middle" x="1237.38" y="-222.12" font-family="Helvetica,sans-Serif" font-size="10.00">/src/HDF5SourceIDHandler.cpp</text>
</a>
</g>
</g>
<!-- Node25&#45;&gt;Node26 -->
<g id="edge33_Node000025_Node000026" class="edge">
<title>Node25&#45;&gt;Node26</title>
<g id="a_edge33_Node000025_Node000026"><a xlink:title=" ">
<path fill="none" stroke="#63b8ff" d="M1231.54,-276.81C1232.91,-266.44 1234.37,-255.42 1235.48,-246.98"/>
<polygon fill="#63b8ff" stroke="#63b8ff" points="1228.09,-276.2 1230.25,-286.57 1235.03,-277.12 1228.09,-276.2"/>
</a>
</g>
</g>
<!-- Node27&#45;&gt;Node16 -->
<g id="edge35_Node000027_Node000016" class="edge">
<title>Node27&#45;&gt;Node16</title>
<g id="a_edge35_Node000027_Node000016"><a xlink:title=" ">
<path fill="none" stroke="#63b8ff" d="M1585.4,-278.7C1579.6,-270.09 1573.4,-260.88 1568.08,-252.98"/>
<polygon fill="#63b8ff" stroke="#63b8ff" points="1582.37,-280.48 1590.86,-286.82 1588.18,-276.57 1582.37,-280.48"/>
</a>
</g>
</g>
<!-- Node27&#45;&gt;Node21 -->
<g id="edge38_Node000027_Node000021" class="edge">
<title>Node27&#45;&gt;Node21</title>
<g id="a_edge38_Node000027_Node000021"><a xlink:title=" ">
<path fill="none" stroke="#63b8ff" d="M1632.06,-279.47C1662.23,-243.14 1703.36,-179.87 1672.38,-133 1658.93,-112.66 1635.4,-100.53 1612.87,-93.3"/>
<polygon fill="#63b8ff" stroke="#63b8ff" points="1629.5,-277.08 1625.66,-286.95 1634.82,-281.63 1629.5,-277.08"/>
</a>
</g>
</g>
<!-- Node27&#45;&gt;Node28 -->
<g id="edge36_Node000027_Node000028" class="edge">
<title>Node27&#45;&gt;Node28</title>
<g id="a_edge36_Node000027_Node000028"><a xlink:title=" ">
<path fill="none" stroke="#63b8ff" d="M1656.78,-283.09C1676.69,-273.3 1699.16,-262.24 1717.99,-252.98"/>
<polygon fill="#63b8ff" stroke="#63b8ff" points="1655.43,-279.85 1648,-287.41 1658.52,-286.13 1655.43,-279.85"/>
</a>
</g>
</g>
<!-- Node28&#45;&gt;Node21 -->
<g id="edge37_Node000028_Node000021" class="edge">
<title>Node28&#45;&gt;Node21</title>
<g id="a_edge37_Node000028_Node000021"><a xlink:title=" ">
<path fill="none" stroke="#63b8ff" d="M1749.25,-199.95C1740.7,-178.44 1726.43,-150.5 1705.38,-133 1679.13,-111.19 1643.07,-98.73 1612.77,-91.67"/>
<polygon fill="#63b8ff" stroke="#63b8ff" points="1745.9,-200.97 1752.68,-209.11 1752.46,-198.52 1745.9,-200.97"/>
</a>
</g>
</g>
<!-- Node30 -->
<g id="Node000030" class="node">
<title>Node30</title>
<g id="a_Node000030"><a xlink:href="TAProcessor_8cpp.html" target="_top" xlink:title=" ">
<polygon fill="white" stroke="#666666" points="1958.62,-169.12 1848.12,-169.12 1848.12,-138.62 1958.62,-138.62 1958.62,-169.12"/>
<text text-anchor="start" x="1856.12" y="-155.62" font-family="Helvetica,sans-Serif" font-size="10.00">sourcecode/trigger</text>
<text text-anchor="middle" x="1903.38" y="-144.38" font-family="Helvetica,sans-Serif" font-size="10.00">/src/TAProcessor.cpp</text>
</a>
</g>
</g>
<!-- Node29&#45;&gt;Node30 -->
<g id="edge41_Node000029_Node000030" class="edge">
<title>Node29&#45;&gt;Node30</title>
<g id="a_edge41_Node000029_Node000030"><a xlink:title=" ">
<path fill="none" stroke="#63b8ff" d="M1867.32,-282.58C1866.47,-262.61 1866.89,-234.46 1873.38,-210.75 1877.5,-195.67 1886.28,-180.13 1893.28,-169.28"/>
<polygon fill="#63b8ff" stroke="#63b8ff" points="1863.81,-282.55 1867.88,-292.33 1870.8,-282.14 1863.81,-282.55"/>
</a>
</g>
</g>
<!-- Node31 -->
<g id="Node000031" class="node">
<title>Node31</title>
<g id="a_Node000031"><a xlink:href="TAProcessor_8hpp.html" target="_top" xlink:title=" ">
<polygon fill="white" stroke="#666666" points="2022.62,-246.88 1882.12,-246.88 1882.12,-216.38 2022.62,-216.38 2022.62,-246.88"/>
<text text-anchor="start" x="1890.12" y="-233.38" font-family="Helvetica,sans-Serif" font-size="10.00">sourcecode/trigger</text>
<text text-anchor="middle" x="1952.38" y="-222.12" font-family="Helvetica,sans-Serif" font-size="10.00">/src/trigger/TAProcessor.hpp</text>
</a>
</g>
</g>
<!-- Node29&#45;&gt;Node31 -->
<g id="edge42_Node000029_Node000031" class="edge">
<title>Node29&#45;&gt;Node31</title>
<g id="a_edge42_Node000029_Node000031"><a xlink:title=" ">
<path fill="none" stroke="#63b8ff" d="M1893.5,-286.35C1907.32,-273.75 1924.26,-258.28 1936.42,-247.19"/>
<polygon fill="#63b8ff" stroke="#63b8ff" points="1891.52,-283.42 1886.5,-292.75 1896.24,-288.59 1891.52,-283.42"/>
</a>
</g>
</g>
<!-- Node32 -->
<g id="Node000032" class="node">
<title>Node32</title>
<g id="a_Node000032"><a xlink:href="TriggerSourceModel_8hpp.html" target="_top" xlink:title=" ">
<polygon fill="white" stroke="#666666" points="2166.5,-252.5 2040.25,-252.5 2040.25,-210.75 2166.5,-210.75 2166.5,-252.5"/>
<text text-anchor="start" x="2048.25" y="-239" font-family="Helvetica,sans-Serif" font-size="10.00">sourcecode/trigger</text>
<text text-anchor="start" x="2048.25" y="-227.75" font-family="Helvetica,sans-Serif" font-size="10.00">/src/trigger/TriggerSource</text>
<text text-anchor="middle" x="2103.38" y="-216.5" font-family="Helvetica,sans-Serif" font-size="10.00">Model.hpp</text>
</a>
</g>
</g>
<!-- Node29&#45;&gt;Node32 -->
<g id="edge44_Node000029_Node000032" class="edge">
<title>Node29&#45;&gt;Node32</title>
<g id="a_edge44_Node000029_Node000032"><a xlink:title=" ">
<path fill="none" stroke="#63b8ff" d="M1925.68,-290.15C1960.41,-278.9 2005.02,-264.46 2040.85,-252.87"/>
<polygon fill="#63b8ff" stroke="#63b8ff" points="1924.65,-286.8 1916.21,-293.21 1926.8,-293.46 1924.65,-286.8"/>
</a>
</g>
</g>
<!-- Node31&#45;&gt;Node30 -->
<g id="edge43_Node000031_Node000030" class="edge">
<title>Node31&#45;&gt;Node30</title>
<g id="a_edge43_Node000031_Node000030"><a xlink:title=" ">
<path fill="none" stroke="#63b8ff" d="M1936.73,-206.44C1928.85,-194.26 1919.57,-179.9 1912.79,-169.44"/>
<polygon fill="#63b8ff" stroke="#63b8ff" points="1933.74,-208.25 1942.11,-214.75 1939.61,-204.45 1933.74,-208.25"/>
</a>
</g>
</g>
<!-- Node33&#45;&gt;Node32 -->
<g id="edge50_Node000033_Node000032" class="edge">
<title>Node33&#45;&gt;Node32</title>
<g id="a_edge50_Node000033_Node000032"><a xlink:title=" ">
<path fill="none" stroke="#63b8ff" d="M2168.08,-286.48C2155.36,-275.9 2140.2,-263.28 2127.75,-252.91"/>
<polygon fill="#63b8ff" stroke="#63b8ff" points="2165.74,-289.09 2175.67,-292.8 2170.22,-283.71 2165.74,-289.09"/>
</a>
</g>
</g>
<!-- Node34 -->
<g id="Node000034" class="node">
<title>Node34</title>
<g id="a_Node000034"><a xlink:href="TCProcessor_8cpp.html" target="_top" xlink:title=" ">
<polygon fill="white" stroke="#666666" points="2298.62,-169.12 2188.12,-169.12 2188.12,-138.62 2298.62,-138.62 2298.62,-169.12"/>
<text text-anchor="start" x="2196.12" y="-155.62" font-family="Helvetica,sans-Serif" font-size="10.00">sourcecode/trigger</text>
<text text-anchor="middle" x="2243.38" y="-144.38" font-family="Helvetica,sans-Serif" font-size="10.00">/src/TCProcessor.cpp</text>
</a>
</g>
</g>
<!-- Node33&#45;&gt;Node34 -->
<g id="edge46_Node000033_Node000034" class="edge">
<title>Node33&#45;&gt;Node34</title>
<g id="a_edge46_Node000033_Node000034"><a xlink:title=" ">
<path fill="none" stroke="#63b8ff" d="M2197.26,-282.5C2199.99,-262.49 2204.97,-234.32 2213.38,-210.75 2218.63,-196.02 2227.28,-180.44 2233.95,-169.49"/>
<polygon fill="#63b8ff" stroke="#63b8ff" points="2193.8,-281.93 2196.02,-292.29 2200.75,-282.8 2193.8,-281.93"/>
</a>
</g>
</g>
<!-- Node35 -->
<g id="Node000035" class="node">
<title>Node35</title>
<g id="a_Node000035"><a xlink:href="TCProcessor_8hpp.html" target="_top" xlink:title=" ">
<polygon fill="white" stroke="#666666" points="2362.62,-246.88 2222.12,-246.88 2222.12,-216.38 2362.62,-216.38 2362.62,-246.88"/>
<text text-anchor="start" x="2230.12" y="-233.38" font-family="Helvetica,sans-Serif" font-size="10.00">sourcecode/trigger</text>
<text text-anchor="middle" x="2292.38" y="-222.12" font-family="Helvetica,sans-Serif" font-size="10.00">/src/trigger/TCProcessor.hpp</text>
</a>
</g>
</g>
<!-- Node33&#45;&gt;Node35 -->
<g id="edge47_Node000033_Node000035" class="edge">
<title>Node33&#45;&gt;Node35</title>
<g id="a_edge47_Node000033_Node000035"><a xlink:title=" ">
<path fill="none" stroke="#63b8ff" d="M2221.94,-287.06C2238.42,-274.33 2258.91,-258.49 2273.54,-247.19"/>
<polygon fill="#63b8ff" stroke="#63b8ff" points="2220.24,-283.96 2214.47,-292.84 2224.52,-289.5 2220.24,-283.96"/>
</a>
</g>
</g>
<!-- Node36 -->
<g id="Node000036" class="node">
<title>Node36</title>
<g id="a_Node000036"><a xlink:href="TPSetSourceModel_8hpp.html" target="_top" xlink:title=" ">
<polygon fill="white" stroke="#666666" points="2548.5,-246.88 2380.25,-246.88 2380.25,-216.38 2548.5,-216.38 2548.5,-246.88"/>
<text text-anchor="start" x="2388.25" y="-233.38" font-family="Helvetica,sans-Serif" font-size="10.00">sourcecode/trigger</text>
<text text-anchor="middle" x="2464.38" y="-222.12" font-family="Helvetica,sans-Serif" font-size="10.00">/src/trigger/TPSetSourceModel.hpp</text>
</a>
</g>
</g>
<!-- Node33&#45;&gt;Node36 -->
<g id="edge49_Node000033_Node000036" class="edge">
<title>Node33&#45;&gt;Node36</title>
<g id="a_edge49_Node000033_Node000036"><a xlink:title=" ">
<path fill="none" stroke="#63b8ff" d="M2257.72,-290.6C2304.72,-277.42 2368.03,-259.65 2412.14,-247.28"/>
<polygon fill="#63b8ff" stroke="#63b8ff" points="2256.89,-287.2 2248.21,-293.27 2258.78,-293.94 2256.89,-287.2"/>
</a>
</g>
</g>
<!-- Node35&#45;&gt;Node34 -->
<g id="edge48_Node000035_Node000034" class="edge">
<title>Node35&#45;&gt;Node34</title>
<g id="a_edge48_Node000035_Node000034"><a xlink:title=" ">
<path fill="none" stroke="#63b8ff" d="M2276.73,-206.44C2268.85,-194.26 2259.57,-179.9 2252.79,-169.44"/>
<polygon fill="#63b8ff" stroke="#63b8ff" points="2273.74,-208.25 2282.11,-214.75 2279.61,-204.45 2273.74,-208.25"/>
</a>
</g>
</g>
</g>
</svg>
