<?xml version="1.0" encoding="UTF-8" standalone="no"?>
<!DOCTYPE svg PUBLIC "-//W3C//DTD SVG 1.1//EN"
 "http://www.w3.org/Graphics/SVG/1.1/DTD/svg11.dtd">
<!-- Generated by graphviz version 9.0.0 (20230911.1827)
 -->
<!-- Title: sourcecode/readoutlibs/include/readoutlibs/FrameErrorRegistry.hpp Pages: 1 -->
<svg width="1532pt" height="338pt"
 viewBox="0.00 0.00 1532.25 338.25" xmlns="http://www.w3.org/2000/svg" xmlns:xlink="http://www.w3.org/1999/xlink">
<g id="graph0" class="graph" transform="scale(1 1) rotate(0) translate(4 334.25)">
<title>sourcecode/readoutlibs/include/readoutlibs/FrameErrorRegistry.hpp</title>
<!-- Node1 -->
<g id="Node000001" class="node">
<title>Node1</title>
<g id="a_Node000001"><a xlink:title=" ">
<polygon fill="#999999" stroke="#666666" points="923.5,-330.25 772.5,-330.25 772.5,-288.5 923.5,-288.5 923.5,-330.25"/>
<text text-anchor="start" x="780.5" y="-316.75" font-family="Helvetica,sans-Serif" font-size="10.00">sourcecode/readoutlibs</text>
<text text-anchor="start" x="780.5" y="-305.5" font-family="Helvetica,sans-Serif" font-size="10.00">/include/readoutlibs/FrameError</text>
<text text-anchor="middle" x="848" y="-294.25" font-family="Helvetica,sans-Serif" font-size="10.00">Registry.hpp</text>
</a>
</g>
</g>
<!-- Node2 -->
<g id="Node000002" class="node">
<title>Node2</title>
<g id="a_Node000002"><a xlink:href="HSIFrameProcessor_8hpp.html" target="_top" xlink:title=" ">
<polygon fill="white" stroke="#666666" points="919.38,-169.12 776.62,-169.12 776.62,-138.62 919.38,-138.62 919.38,-169.12"/>
<text text-anchor="start" x="784.62" y="-155.62" font-family="Helvetica,sans-Serif" font-size="10.00">sourcecode/hsilibs</text>
<text text-anchor="middle" x="848" y="-144.38" font-family="Helvetica,sans-Serif" font-size="10.00">/src/HSIFrameProcessor.hpp</text>
</a>
</g>
</g>
<!-- Node1&#45;&gt;Node2 -->
<g id="edge1_Node000001_Node000002" class="edge">
<title>Node1&#45;&gt;Node2</title>
<g id="a_edge1_Node000001_Node000002"><a xlink:title=" ">
<path fill="none" stroke="#63b8ff" d="M848,-277.07C848,-244.22 848,-194.01 848,-169.44"/>
<polygon fill="#63b8ff" stroke="#63b8ff" points="844.5,-276.79 848,-286.79 851.5,-276.79 844.5,-276.79"/>
</a>
</g>
</g>
<!-- Node4 -->
<g id="Node000004" class="node">
<title>Node4</title>
<g id="a_Node000004"><a xlink:href="DefaultRequestHandlerModel_8hpp.html" target="_top" xlink:title=" ">
<polygon fill="white" stroke="#666666" points="663.88,-252.5 500.12,-252.5 500.12,-210.75 663.88,-210.75 663.88,-252.5"/>
<text text-anchor="start" x="508.12" y="-239" font-family="Helvetica,sans-Serif" font-size="10.00">sourcecode/readoutlibs</text>
<text text-anchor="start" x="508.12" y="-227.75" font-family="Helvetica,sans-Serif" font-size="10.00">/include/readoutlibs/models</text>
<text text-anchor="middle" x="582" y="-216.5" font-family="Helvetica,sans-Serif" font-size="10.00">/DefaultRequestHandlerModel.hpp</text>
</a>
</g>
</g>
<!-- Node1&#45;&gt;Node4 -->
<g id="edge3_Node000001_Node000004" class="edge">
<title>Node1&#45;&gt;Node4</title>
<g id="a_edge3_Node000001_Node000004"><a xlink:title=" ">
<path fill="none" stroke="#63b8ff" d="M765.77,-284.96C729.84,-274.73 688.09,-262.84 653.48,-252.98"/>
<polygon fill="#63b8ff" stroke="#63b8ff" points="764.68,-288.29 775.26,-287.66 766.6,-281.56 764.68,-288.29"/>
</a>
</g>
</g>
<!-- Node5 -->
<g id="Node000005" class="node">
<title>Node5</title>
<g id="a_Node000005"><a xlink:href="DefaultSkipListRequestHandler_8hpp.html" target="_top" xlink:title=" ">
<polygon fill="white" stroke="#666666" points="226.75,-174.75 53.25,-174.75 53.25,-133 226.75,-133 226.75,-174.75"/>
<text text-anchor="start" x="61.25" y="-161.25" font-family="Helvetica,sans-Serif" font-size="10.00">sourcecode/readoutlibs</text>
<text text-anchor="start" x="61.25" y="-150" font-family="Helvetica,sans-Serif" font-size="10.00">/include/readoutlibs/models</text>
<text text-anchor="middle" x="140" y="-138.75" font-family="Helvetica,sans-Serif" font-size="10.00">/DefaultSkipListRequestHandler.hpp</text>
</a>
</g>
</g>
<!-- Node1&#45;&gt;Node5 -->
<g id="edge12_Node000001_Node000005" class="edge">
<title>Node1&#45;&gt;Node5</title>
<g id="a_edge12_Node000001_Node000005"><a xlink:title=" ">
<path fill="none" stroke="#63b8ff" d="M760.95,-297.62C688.34,-287.97 582.37,-272.29 491,-252.5 389.77,-230.58 274.43,-196.76 204.45,-175.23"/>
<polygon fill="#63b8ff" stroke="#63b8ff" points="760.44,-301.09 770.81,-298.92 761.35,-294.15 760.44,-301.09"/>
</a>
</g>
</g>
<!-- Node6 -->
<g id="Node000006" class="node">
<title>Node6</title>
<g id="a_Node000006"><a xlink:href="TPRequestHandler_8hpp.html" target="_top" xlink:title=" ">
<polygon fill="white" stroke="#666666" points="166,-97 0,-97 0,-66.5 166,-66.5 166,-97"/>
<text text-anchor="start" x="8" y="-83.5" font-family="Helvetica,sans-Serif" font-size="10.00">sourcecode/trigger</text>
<text text-anchor="middle" x="83" y="-72.25" font-family="Helvetica,sans-Serif" font-size="10.00">/src/trigger/TPRequestHandler.hpp</text>
</a>
</g>
</g>
<!-- Node1&#45;&gt;Node6 -->
<g id="edge27_Node000001_Node000006" class="edge">
<title>Node1&#45;&gt;Node6</title>
<g id="a_edge27_Node000001_Node000006"><a xlink:title=" ">
<path fill="none" stroke="#63b8ff" d="M760.76,-308.15C570.71,-305.55 129.44,-287.25 44,-174.75 25.64,-150.57 50.61,-116.46 68.24,-97.29"/>
<polygon fill="#63b8ff" stroke="#63b8ff" points="760.53,-311.65 770.58,-308.28 760.62,-304.65 760.53,-311.65"/>
</a>
</g>
</g>
<!-- Node11 -->
<g id="Node000011" class="node">
<title>Node11</title>
<g id="a_Node000011"><a xlink:href="ReadoutModel_8hpp.html" target="_top" xlink:title=" ">
<polygon fill="white" stroke="#666666" points="818.25,-252.5 683.75,-252.5 683.75,-210.75 818.25,-210.75 818.25,-252.5"/>
<text text-anchor="start" x="691.75" y="-239" font-family="Helvetica,sans-Serif" font-size="10.00">sourcecode/readoutlibs</text>
<text text-anchor="start" x="691.75" y="-227.75" font-family="Helvetica,sans-Serif" font-size="10.00">/include/readoutlibs/models</text>
<text text-anchor="middle" x="751" y="-216.5" font-family="Helvetica,sans-Serif" font-size="10.00">/ReadoutModel.hpp</text>
</a>
</g>
</g>
<!-- Node1&#45;&gt;Node11 -->
<g id="edge13_Node000001_Node000011" class="edge">
<title>Node1&#45;&gt;Node11</title>
<g id="a_edge13_Node000001_Node000011"><a xlink:title=" ">
<path fill="none" stroke="#63b8ff" d="M813.18,-281.19C801.27,-271.89 788.17,-261.65 777.07,-252.98"/>
<polygon fill="#63b8ff" stroke="#63b8ff" points="810.78,-283.75 820.81,-287.14 815.09,-278.23 810.78,-283.75"/>
</a>
</g>
</g>
<!-- Node12 -->
<g id="Node000012" class="node">
<title>Node12</title>
<g id="a_Node000012"><a xlink:href="TaskRawDataProcessorModel_8hpp.html" target="_top" xlink:title=" ">
<polygon fill="white" stroke="#666666" points="1156.5,-252.5 987.5,-252.5 987.5,-210.75 1156.5,-210.75 1156.5,-252.5"/>
<text text-anchor="start" x="995.5" y="-239" font-family="Helvetica,sans-Serif" font-size="10.00">sourcecode/readoutlibs</text>
<text text-anchor="start" x="995.5" y="-227.75" font-family="Helvetica,sans-Serif" font-size="10.00">/include/readoutlibs/models</text>
<text text-anchor="middle" x="1072" y="-216.5" font-family="Helvetica,sans-Serif" font-size="10.00">/TaskRawDataProcessorModel.hpp</text>
</a>
</g>
</g>
<!-- Node1&#45;&gt;Node12 -->
<g id="edge15_Node000001_Node000012" class="edge">
<title>Node1&#45;&gt;Node12</title>
<g id="a_edge15_Node000001_Node000012"><a xlink:title=" ">
<path fill="none" stroke="#63b8ff" d="M918.82,-284.43C948.71,-274.32 983.16,-262.67 1011.81,-252.98"/>
<polygon fill="#63b8ff" stroke="#63b8ff" points="917.81,-281.07 909.46,-287.59 920.06,-287.7 917.81,-281.07"/>
</a>
</g>
</g>
<!-- Node14 -->
<g id="Node000014" class="node">
<title>Node14</title>
<g id="a_Node000014"><a xlink:href="TAProcessor_8cpp.html" target="_top" xlink:title=" ">
<polygon fill="white" stroke="#666666" points="1312.25,-97 1201.75,-97 1201.75,-66.5 1312.25,-66.5 1312.25,-97"/>
<text text-anchor="start" x="1209.75" y="-83.5" font-family="Helvetica,sans-Serif" font-size="10.00">sourcecode/trigger</text>
<text text-anchor="middle" x="1257" y="-72.25" font-family="Helvetica,sans-Serif" font-size="10.00">/src/TAProcessor.cpp</text>
</a>
</g>
</g>
<!-- Node1&#45;&gt;Node14 -->
<g id="edge24_Node000001_Node000014" class="edge">
<title>Node1&#45;&gt;Node14</title>
<g id="a_edge24_Node000001_Node000014"><a xlink:title=" ">
<path fill="none" stroke="#63b8ff" d="M934.86,-303.35C1092.07,-292.22 1413.7,-259.41 1480,-174.75 1527.26,-114.41 1393,-93.33 1312.59,-86.21"/>
<polygon fill="#63b8ff" stroke="#63b8ff" points="935.08,-299.83 925.34,-304.01 935.56,-306.81 935.08,-299.83"/>
</a>
</g>
</g>
<!-- Node16 -->
<g id="Node000016" class="node">
<title>Node16</title>
<g id="a_Node000016"><a xlink:href="TCProcessor_8cpp.html" target="_top" xlink:title=" ">
<polygon fill="white" stroke="#666666" points="1093.25,-97 982.75,-97 982.75,-66.5 1093.25,-66.5 1093.25,-97"/>
<text text-anchor="start" x="990.75" y="-83.5" font-family="Helvetica,sans-Serif" font-size="10.00">sourcecode/trigger</text>
<text text-anchor="middle" x="1038" y="-72.25" font-family="Helvetica,sans-Serif" font-size="10.00">/src/TCProcessor.cpp</text>
</a>
</g>
</g>
<!-- Node1&#45;&gt;Node16 -->
<g id="edge25_Node000001_Node000016" class="edge">
<title>Node1&#45;&gt;Node16</title>
<g id="a_edge25_Node000001_Node000016"><a xlink:title=" ">
<path fill="none" stroke="#63b8ff" d="M872.26,-279.56C913.28,-230.85 994.88,-133.95 1025.77,-97.27"/>
<polygon fill="#63b8ff" stroke="#63b8ff" points="869.6,-277.29 865.84,-287.19 874.95,-281.8 869.6,-277.29"/>
</a>
</g>
</g>
<!-- Node18 -->
<g id="Node000018" class="node">
<title>Node18</title>
<g id="a_Node000018"><a xlink:href="TPProcessor_8cpp.html" target="_top" xlink:title=" ">
<polygon fill="white" stroke="#666666" points="1524.25,-97 1413.75,-97 1413.75,-66.5 1524.25,-66.5 1524.25,-97"/>
<text text-anchor="start" x="1421.75" y="-83.5" font-family="Helvetica,sans-Serif" font-size="10.00">sourcecode/trigger</text>
<text text-anchor="middle" x="1469" y="-72.25" font-family="Helvetica,sans-Serif" font-size="10.00">/src/TPProcessor.cpp</text>
</a>
</g>
</g>
<!-- Node1&#45;&gt;Node18 -->
<g id="edge26_Node000001_Node000018" class="edge">
<title>Node1&#45;&gt;Node18</title>
<g id="a_edge26_Node000001_Node000018"><a xlink:title=" ">
<path fill="none" stroke="#63b8ff" d="M934.88,-304.51C1065.19,-297.84 1304.56,-281.97 1385,-252.5 1442.59,-231.41 1470.35,-228.97 1499,-174.75 1512.58,-149.05 1494.1,-116.07 1480.7,-97.39"/>
<polygon fill="#63b8ff" stroke="#63b8ff" points="935.09,-300.99 925.28,-304.99 935.45,-307.99 935.09,-300.99"/>
</a>
</g>
</g>
<!-- Node3 -->
<g id="Node000003" class="node">
<title>Node3</title>
<g id="a_Node000003"><a xlink:href="HSIFrameProcessor_8cpp.html" target="_top" xlink:title=" ">
<polygon fill="white" stroke="#666666" points="924.38,-97 781.62,-97 781.62,-66.5 924.38,-66.5 924.38,-97"/>
<text text-anchor="start" x="789.62" y="-83.5" font-family="Helvetica,sans-Serif" font-size="10.00">sourcecode/hsilibs</text>
<text text-anchor="middle" x="853" y="-72.25" font-family="Helvetica,sans-Serif" font-size="10.00">/src/HSIFrameProcessor.cpp</text>
</a>
</g>
</g>
<!-- Node2&#45;&gt;Node3 -->
<g id="edge2_Node000002_Node000003" class="edge">
<title>Node2&#45;&gt;Node3</title>
<g id="a_edge2_Node000002_Node000003"><a xlink:title=" ">
<path fill="none" stroke="#63b8ff" d="M849.85,-126.9C850.57,-116.89 851.36,-105.81 851.97,-97.26"/>
<polygon fill="#63b8ff" stroke="#63b8ff" points="846.36,-126.61 849.14,-136.84 853.35,-127.11 846.36,-126.61"/>
</a>
</g>
</g>
<!-- Node4&#45;&gt;Node5 -->
<g id="edge4_Node000004_Node000005" class="edge">
<title>Node4&#45;&gt;Node5</title>
<g id="a_edge4_Node000004_Node000005"><a xlink:title=" ">
<path fill="none" stroke="#63b8ff" d="M488.3,-216.64C418.58,-205.95 321.17,-190.44 236,-174.75 233.07,-174.21 230.09,-173.65 227.09,-173.08"/>
<polygon fill="#63b8ff" stroke="#63b8ff" points="487.77,-220.1 498.19,-218.15 488.83,-213.18 487.77,-220.1"/>
</a>
</g>
</g>
<!-- Node8 -->
<g id="Node000008" class="node">
<title>Node8</title>
<g id="a_Node000008"><a xlink:href="EmptyFragmentRequestHandlerModel_8hpp.html" target="_top" xlink:title=" ">
<polygon fill="white" stroke="#666666" points="682.62,-174.75 481.38,-174.75 481.38,-133 682.62,-133 682.62,-174.75"/>
<text text-anchor="start" x="489.38" y="-161.25" font-family="Helvetica,sans-Serif" font-size="10.00">sourcecode/readoutlibs</text>
<text text-anchor="start" x="489.38" y="-150" font-family="Helvetica,sans-Serif" font-size="10.00">/include/readoutlibs/models</text>
<text text-anchor="middle" x="582" y="-138.75" font-family="Helvetica,sans-Serif" font-size="10.00">/EmptyFragmentRequestHandlerModel.hpp</text>
</a>
</g>
</g>
<!-- Node4&#45;&gt;Node8 -->
<g id="edge7_Node000004_Node000008" class="edge">
<title>Node4&#45;&gt;Node8</title>
<g id="a_edge7_Node000004_Node000008"><a xlink:title=" ">
<path fill="none" stroke="#63b8ff" d="M582,-199C582,-190.96 582,-182.54 582,-175.23"/>
<polygon fill="#63b8ff" stroke="#63b8ff" points="578.5,-198.81 582,-208.81 585.5,-198.81 578.5,-198.81"/>
</a>
</g>
</g>
<!-- Node9 -->
<g id="Node000009" class="node">
<title>Node9</title>
<g id="a_Node000009"><a xlink:href="Readoutlibs_8cpp.html" target="_top" xlink:title=" ">
<polygon fill="white" stroke="#666666" points="763.25,-97 646.75,-97 646.75,-66.5 763.25,-66.5 763.25,-97"/>
<text text-anchor="start" x="654.75" y="-83.5" font-family="Helvetica,sans-Serif" font-size="10.00">sourcecode/readoutlibs</text>
<text text-anchor="middle" x="705" y="-72.25" font-family="Helvetica,sans-Serif" font-size="10.00">/src/Readoutlibs.cpp</text>
</a>
</g>
</g>
<!-- Node4&#45;&gt;Node9 -->
<g id="edge11_Node000004_Node000009" class="edge">
<title>Node4&#45;&gt;Node9</title>
<g id="a_edge11_Node000004_Node000009"><a xlink:title=" ">
<path fill="none" stroke="#63b8ff" d="M656.88,-204.97C670.4,-197.21 683.03,-187.3 692,-174.75 708.51,-151.65 708.46,-116.83 706.82,-97.32"/>
<polygon fill="#63b8ff" stroke="#63b8ff" points="655.45,-201.77 648.26,-209.55 658.73,-207.95 655.45,-201.77"/>
</a>
</g>
</g>
<!-- Node10 -->
<g id="Node000010" class="node">
<title>Node10</title>
<g id="a_Node000010"><a xlink:href="ZeroCopyRecordingRequestHandlerModel_8hpp.html" target="_top" xlink:title=" ">
<polygon fill="white" stroke="#666666" points="462.88,-174.75 245.12,-174.75 245.12,-133 462.88,-133 462.88,-174.75"/>
<text text-anchor="start" x="253.12" y="-161.25" font-family="Helvetica,sans-Serif" font-size="10.00">sourcecode/readoutlibs</text>
<text text-anchor="start" x="253.12" y="-150" font-family="Helvetica,sans-Serif" font-size="10.00">/include/readoutlibs/models</text>
<text text-anchor="middle" x="354" y="-138.75" font-family="Helvetica,sans-Serif" font-size="10.00">/ZeroCopyRecordingRequestHandlerModel.hpp</text>
</a>
</g>
</g>
<!-- Node4&#45;&gt;Node10 -->
<g id="edge9_Node000004_Node000010" class="edge">
<title>Node4&#45;&gt;Node10</title>
<g id="a_edge9_Node000004_Node000010"><a xlink:title=" ">
<path fill="none" stroke="#63b8ff" d="M510.32,-206.81C479.79,-196.67 444.55,-184.96 415.27,-175.23"/>
<polygon fill="#63b8ff" stroke="#63b8ff" points="508.87,-210.02 519.46,-209.85 511.08,-203.37 508.87,-210.02"/>
</a>
</g>
</g>
<!-- Node5&#45;&gt;Node6 -->
<g id="edge5_Node000005_Node000006" class="edge">
<title>Node5&#45;&gt;Node6</title>
<g id="a_edge5_Node000005_Node000006"><a xlink:title=" ">
<path fill="none" stroke="#63b8ff" d="M116.3,-123.72C108.86,-114.57 100.98,-104.87 94.75,-97.2"/>
<polygon fill="#63b8ff" stroke="#63b8ff" points="113.54,-125.87 122.56,-131.42 118.97,-121.45 113.54,-125.87"/>
</a>
</g>
</g>
<!-- Node7 -->
<g id="Node000007" class="node">
<title>Node7</title>
<g id="a_Node000007"><a xlink:href="TPRequestHandler_8cpp.html" target="_top" xlink:title=" ">
<polygon fill="white" stroke="#666666" points="151,-30.5 15,-30.5 15,0 151,0 151,-30.5"/>
<text text-anchor="start" x="23" y="-17" font-family="Helvetica,sans-Serif" font-size="10.00">sourcecode/trigger</text>
<text text-anchor="middle" x="83" y="-5.75" font-family="Helvetica,sans-Serif" font-size="10.00">/src/TPRequestHandler.cpp</text>
</a>
</g>
</g>
<!-- Node6&#45;&gt;Node7 -->
<g id="edge6_Node000006_Node000007" class="edge">
<title>Node6&#45;&gt;Node7</title>
<g id="a_edge6_Node000006_Node000007"><a xlink:title=" ">
<path fill="none" stroke="#63b8ff" d="M83,-54.81C83,-46.64 83,-37.91 83,-30.83"/>
<polygon fill="#63b8ff" stroke="#63b8ff" points="79.5,-54.6 83,-64.6 86.5,-54.6 79.5,-54.6"/>
</a>
</g>
</g>
<!-- Node8&#45;&gt;Node9 -->
<g id="edge8_Node000008_Node000009" class="edge">
<title>Node8&#45;&gt;Node9</title>
<g id="a_edge8_Node000008_Node000009"><a xlink:title=" ">
<path fill="none" stroke="#63b8ff" d="M627.1,-127.16C644.67,-117.14 664.17,-106.03 679.27,-97.42"/>
<polygon fill="#63b8ff" stroke="#63b8ff" points="625.85,-123.85 618.89,-131.84 629.31,-129.93 625.85,-123.85"/>
</a>
</g>
</g>
<!-- Node10&#45;&gt;Node9 -->
<g id="edge10_Node000010_Node000009" class="edge">
<title>Node10&#45;&gt;Node9</title>
<g id="a_edge10_Node000010_Node000009"><a xlink:title=" ">
<path fill="none" stroke="#63b8ff" d="M466.56,-130.39C526.42,-118.43 597.53,-104.22 646.43,-94.45"/>
<polygon fill="#63b8ff" stroke="#63b8ff" points="466.13,-126.9 457.01,-132.3 467.5,-133.77 466.13,-126.9"/>
</a>
</g>
</g>
<!-- Node11&#45;&gt;Node9 -->
<g id="edge14_Node000011_Node000009" class="edge">
<title>Node11&#45;&gt;Node9</title>
<g id="a_edge14_Node000011_Node000009"><a xlink:title=" ">
<path fill="none" stroke="#63b8ff" d="M743.69,-199.43C738.92,-180.12 732.25,-154.93 725,-133 720.93,-120.7 715.44,-107.06 711.24,-97.1"/>
<polygon fill="#63b8ff" stroke="#63b8ff" points="740.29,-200.24 746.05,-209.13 747.09,-198.59 740.29,-200.24"/>
</a>
</g>
</g>
<!-- Node12&#45;&gt;Node2 -->
<g id="edge16_Node000012_Node000002" class="edge">
<title>Node12&#45;&gt;Node2</title>
<g id="a_edge16_Node000012_Node000002"><a xlink:title=" ">
<path fill="none" stroke="#63b8ff" d="M1001.51,-206.79C965.45,-194.59 922.71,-180.14 891.49,-169.58"/>
<polygon fill="#63b8ff" stroke="#63b8ff" points="999.94,-209.95 1010.54,-209.84 1002.19,-203.32 999.94,-209.95"/>
</a>
</g>
</g>
<!-- Node12&#45;&gt;Node9 -->
<g id="edge17_Node000012_Node000009" class="edge">
<title>Node12&#45;&gt;Node9</title>
<g id="a_edge17_Node000012_Node000009"><a xlink:title=" ">
<path fill="none" stroke="#63b8ff" d="M1039.28,-203.15C1011.38,-181.08 969.34,-150.9 928,-133 920.36,-129.69 826.98,-109.14 763.51,-95.37"/>
<polygon fill="#63b8ff" stroke="#63b8ff" points="1037.01,-205.82 1047,-209.35 1041.39,-200.36 1037.01,-205.82"/>
</a>
</g>
</g>
<!-- Node13 -->
<g id="Node000013" class="node">
<title>Node13</title>
<g id="a_Node000013"><a xlink:href="TAProcessor_8hpp.html" target="_top" xlink:title=" ">
<polygon fill="white" stroke="#666666" points="1312.25,-169.12 1171.75,-169.12 1171.75,-138.62 1312.25,-138.62 1312.25,-169.12"/>
<text text-anchor="start" x="1179.75" y="-155.62" font-family="Helvetica,sans-Serif" font-size="10.00">sourcecode/trigger</text>
<text text-anchor="middle" x="1242" y="-144.38" font-family="Helvetica,sans-Serif" font-size="10.00">/src/trigger/TAProcessor.hpp</text>
</a>
</g>
</g>
<!-- Node12&#45;&gt;Node13 -->
<g id="edge18_Node000012_Node000013" class="edge">
<title>Node12&#45;&gt;Node13</title>
<g id="a_edge18_Node000012_Node000013"><a xlink:title=" ">
<path fill="none" stroke="#63b8ff" d="M1127.98,-205.68C1154.8,-193.73 1186.01,-179.82 1208.99,-169.58"/>
<polygon fill="#63b8ff" stroke="#63b8ff" points="1126.65,-202.44 1118.94,-209.71 1129.5,-208.84 1126.65,-202.44"/>
</a>
</g>
</g>
<!-- Node15 -->
<g id="Node000015" class="node">
<title>Node15</title>
<g id="a_Node000015"><a xlink:href="TCProcessor_8hpp.html" target="_top" xlink:title=" ">
<polygon fill="white" stroke="#666666" points="1153.25,-169.12 1012.75,-169.12 1012.75,-138.62 1153.25,-138.62 1153.25,-169.12"/>
<text text-anchor="start" x="1020.75" y="-155.62" font-family="Helvetica,sans-Serif" font-size="10.00">sourcecode/trigger</text>
<text text-anchor="middle" x="1083" y="-144.38" font-family="Helvetica,sans-Serif" font-size="10.00">/src/trigger/TCProcessor.hpp</text>
</a>
</g>
</g>
<!-- Node12&#45;&gt;Node15 -->
<g id="edge20_Node000012_Node000015" class="edge">
<title>Node12&#45;&gt;Node15</title>
<g id="a_edge20_Node000012_Node000015"><a xlink:title=" ">
<path fill="none" stroke="#63b8ff" d="M1076.58,-199.06C1078.09,-188.69 1079.69,-177.67 1080.92,-169.23"/>
<polygon fill="#63b8ff" stroke="#63b8ff" points="1073.14,-198.43 1075.17,-208.83 1080.07,-199.43 1073.14,-198.43"/>
</a>
</g>
</g>
<!-- Node17 -->
<g id="Node000017" class="node">
<title>Node17</title>
<g id="a_Node000017"><a xlink:href="TPProcessor_8hpp.html" target="_top" xlink:title=" ">
<polygon fill="white" stroke="#666666" points="1471.25,-169.12 1330.75,-169.12 1330.75,-138.62 1471.25,-138.62 1471.25,-169.12"/>
<text text-anchor="start" x="1338.75" y="-155.62" font-family="Helvetica,sans-Serif" font-size="10.00">sourcecode/trigger</text>
<text text-anchor="middle" x="1401" y="-144.38" font-family="Helvetica,sans-Serif" font-size="10.00">/src/trigger/TPProcessor.hpp</text>
</a>
</g>
</g>
<!-- Node12&#45;&gt;Node17 -->
<g id="edge22_Node000012_Node000017" class="edge">
<title>Node12&#45;&gt;Node17</title>
<g id="a_edge22_Node000012_Node000017"><a xlink:title=" ">
<path fill="none" stroke="#63b8ff" d="M1168.05,-209.61C1214.34,-199.34 1270.61,-186.66 1321,-174.75 1327.96,-173.1 1335.26,-171.34 1342.49,-169.57"/>
<polygon fill="#63b8ff" stroke="#63b8ff" points="1167.3,-206.19 1158.3,-211.77 1168.82,-213.02 1167.3,-206.19"/>
</a>
</g>
</g>
<!-- Node13&#45;&gt;Node14 -->
<g id="edge19_Node000013_Node000014" class="edge">
<title>Node13&#45;&gt;Node14</title>
<g id="a_edge19_Node000013_Node000014"><a xlink:title=" ">
<path fill="none" stroke="#63b8ff" d="M1247.49,-127.23C1249.65,-117.13 1252.05,-105.91 1253.9,-97.26"/>
<polygon fill="#63b8ff" stroke="#63b8ff" points="1244.09,-126.35 1245.42,-136.86 1250.94,-127.82 1244.09,-126.35"/>
</a>
</g>
</g>
<!-- Node15&#45;&gt;Node16 -->
<g id="edge21_Node000015_Node000016" class="edge">
<title>Node15&#45;&gt;Node16</title>
<g id="a_edge21_Node000015_Node000016"><a xlink:title=" ">
<path fill="none" stroke="#63b8ff" d="M1067.59,-128.87C1060.85,-118.36 1053.16,-106.38 1047.31,-97.26"/>
<polygon fill="#63b8ff" stroke="#63b8ff" points="1064.51,-130.55 1072.86,-137.07 1070.4,-126.76 1064.51,-130.55"/>
</a>
</g>
</g>
<!-- Node17&#45;&gt;Node18 -->
<g id="edge23_Node000017_Node000018" class="edge">
<title>Node17&#45;&gt;Node18</title>
<g id="a_edge23_Node000017_Node000018"><a xlink:title=" ">
<path fill="none" stroke="#63b8ff" d="M1423.03,-130.16C1433.51,-119.35 1445.72,-106.75 1454.93,-97.26"/>
<polygon fill="#63b8ff" stroke="#63b8ff" points="1420.59,-127.64 1416.14,-137.26 1425.62,-132.52 1420.59,-127.64"/>
</a>
</g>
</g>
</g>
</svg>
