<?xml version="1.0" encoding="UTF-8" standalone="no"?>
<!DOCTYPE svg PUBLIC "-//W3C//DTD SVG 1.1//EN"
 "http://www.w3.org/Graphics/SVG/1.1/DTD/svg11.dtd">
<!-- Generated by graphviz version 9.0.0 (20230911.1827)
 -->
<!-- Title: sourcecode/dbe/include/dbe/GraphicalClass.hpp Pages: 1 -->
<svg width="281pt" height="149pt"
 viewBox="0.00 0.00 281.25 149.00" xmlns="http://www.w3.org/2000/svg" xmlns:xlink="http://www.w3.org/1999/xlink">
<g id="graph0" class="graph" transform="scale(1 1) rotate(0) translate(4 145)">
<title>sourcecode/dbe/include/dbe/GraphicalClass.hpp</title>
<!-- Node1 -->
<g id="Node000001" class="node">
<title>Node1</title>
<g id="a_Node000001"><a xlink:title=" ">
<polygon fill="#999999" stroke="#666666" points="173.38,-141 51.62,-141 51.62,-110.5 173.38,-110.5 173.38,-141"/>
<text text-anchor="start" x="59.62" y="-127.5" font-family="Helvetica,sans-Serif" font-size="10.00">sourcecode/dbe/include</text>
<text text-anchor="middle" x="112.5" y="-116.25" font-family="Helvetica,sans-Serif" font-size="10.00">/dbe/GraphicalClass.hpp</text>
</a>
</g>
</g>
<!-- Node2 -->
<g id="Node000002" class="node">
<title>Node2</title>
<g id="a_Node000002"><a xlink:title=" ">
<polygon fill="#e0e0e0" stroke="#999999" points="91,-74.5 0,-74.5 0,-55.25 91,-55.25 91,-74.5"/>
<text text-anchor="middle" x="45.5" y="-61" font-family="Helvetica,sans-Serif" font-size="10.00">QGraphicsObject</text>
</a>
</g>
</g>
<!-- Node1&#45;&gt;Node2 -->
<g id="edge1_Node000001_Node000002" class="edge">
<title>Node1&#45;&gt;Node2</title>
<g id="a_edge1_Node000001_Node000002"><a xlink:title=" ">
<path fill="none" stroke="#63b8ff" d="M95.94,-110.2C86.33,-101.75 74.19,-91.08 64.23,-82.33"/>
<polygon fill="#63b8ff" stroke="#63b8ff" points="66.79,-79.92 56.97,-75.95 62.17,-85.18 66.79,-79.92"/>
</a>
</g>
</g>
<!-- Node3 -->
<g id="Node000003" class="node">
<title>Node3</title>
<g id="a_Node000003"><a xlink:href="oksdbinterfaces_2include_2oksdbinterfaces_2Schema_8hpp.html" target="_top" xlink:title=" ">
<polygon fill="white" stroke="#666666" points="251.5,-74.5 109.5,-74.5 109.5,-55.25 251.5,-55.25 251.5,-74.5"/>
<text text-anchor="middle" x="180.5" y="-61" font-family="Helvetica,sans-Serif" font-size="10.00">oksdbinterfaces/Schema.hpp</text>
</a>
</g>
</g>
<!-- Node1&#45;&gt;Node3 -->
<g id="edge2_Node000001_Node000003" class="edge">
<title>Node1&#45;&gt;Node3</title>
<g id="a_edge2_Node000001_Node000003"><a xlink:title=" ">
<path fill="none" stroke="#63b8ff" d="M129.31,-110.2C139.07,-101.75 151.38,-91.08 161.49,-82.33"/>
<polygon fill="#63b8ff" stroke="#63b8ff" points="163.6,-85.13 168.87,-75.94 159.02,-79.84 163.6,-85.13"/>
</a>
</g>
</g>
<!-- Node4 -->
<g id="Node000004" class="node">
<title>Node4</title>
<g id="a_Node000004"><a xlink:title=" ">
<polygon fill="#e0e0e0" stroke="#999999" points="140.5,-19.25 100.5,-19.25 100.5,0 140.5,0 140.5,-19.25"/>
<text text-anchor="middle" x="120.5" y="-5.75" font-family="Helvetica,sans-Serif" font-size="10.00">string</text>
</a>
</g>
</g>
<!-- Node3&#45;&gt;Node4 -->
<g id="edge3_Node000003_Node000004" class="edge">
<title>Node3&#45;&gt;Node4</title>
<g id="a_edge3_Node000003_Node000004"><a xlink:title=" ">
<path fill="none" stroke="#63b8ff" d="M170.32,-54.84C161.74,-47.22 149.23,-36.12 138.9,-26.95"/>
<polygon fill="#63b8ff" stroke="#63b8ff" points="141.46,-24.55 131.66,-20.53 136.82,-29.79 141.46,-24.55"/>
</a>
</g>
</g>
<!-- Node5 -->
<g id="Node000005" class="node">
<title>Node5</title>
<g id="a_Node000005"><a xlink:title=" ">
<polygon fill="#e0e0e0" stroke="#999999" points="202,-19.25 159,-19.25 159,0 202,0 202,-19.25"/>
<text text-anchor="middle" x="180.5" y="-5.75" font-family="Helvetica,sans-Serif" font-size="10.00">vector</text>
</a>
</g>
</g>
<!-- Node3&#45;&gt;Node5 -->
<g id="edge4_Node000003_Node000005" class="edge">
<title>Node3&#45;&gt;Node5</title>
<g id="a_edge4_Node000003_Node000005"><a xlink:title=" ">
<path fill="none" stroke="#63b8ff" d="M180.5,-55.08C180.5,-48.57 180.5,-39.42 180.5,-31.12"/>
<polygon fill="#63b8ff" stroke="#63b8ff" points="184,-31.12 180.5,-21.12 177,-31.12 184,-31.12"/>
</a>
</g>
</g>
<!-- Node6 -->
<g id="Node000006" class="node">
<title>Node6</title>
<g id="a_Node000006"><a xlink:title=" ">
<polygon fill="#e0e0e0" stroke="#999999" points="273.25,-19.25 219.75,-19.25 219.75,0 273.25,0 273.25,-19.25"/>
<text text-anchor="middle" x="246.5" y="-5.75" font-family="Helvetica,sans-Serif" font-size="10.00">iostream</text>
</a>
</g>
</g>
<!-- Node3&#45;&gt;Node6 -->
<g id="edge5_Node000003_Node000006" class="edge">
<title>Node3&#45;&gt;Node6</title>
<g id="a_edge5_Node000003_Node000006"><a xlink:title=" ">
<path fill="none" stroke="#63b8ff" d="M191.7,-54.84C201.24,-47.15 215.17,-35.9 226.61,-26.68"/>
<polygon fill="#63b8ff" stroke="#63b8ff" points="228.71,-29.48 234.29,-20.48 224.31,-24.03 228.71,-29.48"/>
</a>
</g>
</g>
</g>
</svg>
