<?xml version="1.0" encoding="UTF-8" standalone="no"?>
<!DOCTYPE svg PUBLIC "-//W3C//DTD SVG 1.1//EN"
 "http://www.w3.org/Graphics/SVG/1.1/DTD/svg11.dtd">
<!-- Generated by graphviz version 9.0.0 (20230911.1827)
 -->
<!-- Title: sourcecode/hdf5libs/include/hdf5libs/HDF5FileLayout.hpp Pages: 1 -->
<svg width="379pt" height="194pt"
 viewBox="0.00 0.00 379.25 194.00" xmlns="http://www.w3.org/2000/svg" xmlns:xlink="http://www.w3.org/1999/xlink">
<g id="graph0" class="graph" transform="scale(1 1) rotate(0) translate(4 190)">
<title>sourcecode/hdf5libs/include/hdf5libs/HDF5FileLayout.hpp</title>
<!-- Node1 -->
<g id="Node000001" class="node">
<title>Node1</title>
<g id="a_Node000001"><a xlink:title=" ">
<polygon fill="#999999" stroke="#666666" points="295.62,-186 164.88,-186 164.88,-144.25 295.62,-144.25 295.62,-186"/>
<text text-anchor="start" x="172.88" y="-172.5" font-family="Helvetica,sans-Serif" font-size="10.00">sourcecode/hdf5libs</text>
<text text-anchor="start" x="172.88" y="-161.25" font-family="Helvetica,sans-Serif" font-size="10.00">/include/hdf5libs/HDF5File</text>
<text text-anchor="middle" x="230.25" y="-150" font-family="Helvetica,sans-Serif" font-size="10.00">Layout.hpp</text>
</a>
</g>
</g>
<!-- Node2 -->
<g id="Node000002" class="node">
<title>Node2</title>
<g id="a_Node000002"><a xlink:href="HDF5RawDataFile_8hpp.html" target="_top" xlink:title=" ">
<polygon fill="white" stroke="#666666" points="229.62,-108.25 74.88,-108.25 74.88,-66.5 229.62,-66.5 229.62,-108.25"/>
<text text-anchor="start" x="82.88" y="-94.75" font-family="Helvetica,sans-Serif" font-size="10.00">sourcecode/hdf5libs</text>
<text text-anchor="start" x="82.88" y="-83.5" font-family="Helvetica,sans-Serif" font-size="10.00">/include/hdf5libs/HDF5RawData</text>
<text text-anchor="middle" x="152.25" y="-72.25" font-family="Helvetica,sans-Serif" font-size="10.00">File.hpp</text>
</a>
</g>
</g>
<!-- Node1&#45;&gt;Node2 -->
<g id="edge1_Node000001_Node000002" class="edge">
<title>Node1&#45;&gt;Node2</title>
<g id="a_edge1_Node000001_Node000002"><a xlink:title=" ">
<path fill="none" stroke="#63b8ff" d="M201.12,-135.84C191.85,-126.84 181.79,-117.06 173.21,-108.73"/>
<polygon fill="#63b8ff" stroke="#63b8ff" points="198.65,-138.31 208.26,-142.77 203.53,-133.29 198.65,-138.31"/>
</a>
</g>
</g>
<!-- Node5 -->
<g id="Node000005" class="node">
<title>Node5</title>
<g id="a_Node000005"><a xlink:href="HDF5FileLayout_8cpp.html" target="_top" xlink:title=" ">
<polygon fill="white" stroke="#666666" points="371.25,-102.62 247.25,-102.62 247.25,-72.12 371.25,-72.12 371.25,-102.62"/>
<text text-anchor="start" x="255.25" y="-89.12" font-family="Helvetica,sans-Serif" font-size="10.00">sourcecode/hdf5libs</text>
<text text-anchor="middle" x="309.25" y="-77.88" font-family="Helvetica,sans-Serif" font-size="10.00">/src/HDF5FileLayout.cpp</text>
</a>
</g>
</g>
<!-- Node1&#45;&gt;Node5 -->
<g id="edge4_Node000001_Node000005" class="edge">
<title>Node1&#45;&gt;Node5</title>
<g id="a_edge4_Node000001_Node000005"><a xlink:title=" ">
<path fill="none" stroke="#63b8ff" d="M259.7,-135.88C271.48,-124.59 284.53,-112.08 294.28,-102.73"/>
<polygon fill="#63b8ff" stroke="#63b8ff" points="257.31,-133.33 252.51,-142.78 262.15,-138.38 257.31,-133.33"/>
</a>
</g>
</g>
<!-- Node3 -->
<g id="Node000003" class="node">
<title>Node3</title>
<g id="a_Node000003"><a xlink:href="hdf5rawdatafile_8cpp.html" target="_top" xlink:title=" ">
<polygon fill="white" stroke="#666666" points="146.5,-30.5 0,-30.5 0,0 146.5,0 146.5,-30.5"/>
<text text-anchor="start" x="8" y="-17" font-family="Helvetica,sans-Serif" font-size="10.00">sourcecode/hdf5libs</text>
<text text-anchor="middle" x="73.25" y="-5.75" font-family="Helvetica,sans-Serif" font-size="10.00">/pybindsrc/hdf5rawdatafile.cpp</text>
</a>
</g>
</g>
<!-- Node2&#45;&gt;Node3 -->
<g id="edge2_Node000002_Node000003" class="edge">
<title>Node2&#45;&gt;Node3</title>
<g id="a_edge2_Node000002_Node000003"><a xlink:title=" ">
<path fill="none" stroke="#63b8ff" d="M121.01,-58.65C110.24,-49.09 98.61,-38.77 89.53,-30.7"/>
<polygon fill="#63b8ff" stroke="#63b8ff" points="118.47,-61.07 128.27,-65.09 123.11,-55.83 118.47,-61.07"/>
</a>
</g>
</g>
<!-- Node4 -->
<g id="Node000004" class="node">
<title>Node4</title>
<g id="a_Node000004"><a xlink:href="HDF5RawDataFile_8cpp.html" target="_top" xlink:title=" ">
<polygon fill="white" stroke="#666666" points="299.5,-30.5 165,-30.5 165,0 299.5,0 299.5,-30.5"/>
<text text-anchor="start" x="173" y="-17" font-family="Helvetica,sans-Serif" font-size="10.00">sourcecode/hdf5libs</text>
<text text-anchor="middle" x="232.25" y="-5.75" font-family="Helvetica,sans-Serif" font-size="10.00">/src/HDF5RawDataFile.cpp</text>
</a>
</g>
</g>
<!-- Node2&#45;&gt;Node4 -->
<g id="edge3_Node000002_Node000004" class="edge">
<title>Node2&#45;&gt;Node4</title>
<g id="a_edge3_Node000002_Node000004"><a xlink:title=" ">
<path fill="none" stroke="#63b8ff" d="M183.82,-58.7C194.65,-49.21 206.33,-38.97 215.51,-30.92"/>
<polygon fill="#63b8ff" stroke="#63b8ff" points="181.74,-55.87 176.53,-65.09 186.35,-61.13 181.74,-55.87"/>
</a>
</g>
</g>
</g>
</svg>
