<?xml version="1.0" encoding="UTF-8" standalone="no"?>
<!DOCTYPE svg PUBLIC "-//W3C//DTD SVG 1.1//EN"
 "http://www.w3.org/Graphics/SVG/1.1/DTD/svg11.dtd">
<!-- Generated by graphviz version 9.0.0 (20230911.1827)
 -->
<!-- Title: sourcecode/hdf5libs/include/hdf5libs/HDF5SourceIDHandler.hpp Pages: 1 -->
<svg width="1780pt" height="282pt"
 viewBox="0.00 0.00 1779.50 282.00" xmlns="http://www.w3.org/2000/svg" xmlns:xlink="http://www.w3.org/1999/xlink">
<g id="graph0" class="graph" transform="scale(1 1) rotate(0) translate(4 278)">
<title>sourcecode/hdf5libs/include/hdf5libs/HDF5SourceIDHandler.hpp</title>
<!-- Node1 -->
<g id="Node000001" class="node">
<title>Node1</title>
<g id="a_Node000001"><a xlink:title=" ">
<polygon fill="#999999" stroke="#666666" points="1369.62,-274 1223.88,-274 1223.88,-232.25 1369.62,-232.25 1369.62,-274"/>
<text text-anchor="start" x="1231.88" y="-260.5" font-family="Helvetica,sans-Serif" font-size="10.00">sourcecode/hdf5libs</text>
<text text-anchor="start" x="1231.88" y="-249.25" font-family="Helvetica,sans-Serif" font-size="10.00">/include/hdf5libs/HDF5Source</text>
<text text-anchor="middle" x="1296.75" y="-238" font-family="Helvetica,sans-Serif" font-size="10.00">IDHandler.hpp</text>
</a>
</g>
</g>
<!-- Node2 -->
<g id="Node000002" class="node">
<title>Node2</title>
<g id="a_Node000002"><a xlink:href="Fragment_8hpp.html" target="_top" xlink:title=" ">
<polygon fill="white" stroke="#666666" points="1047.62,-190.62 901.88,-190.62 901.88,-171.38 1047.62,-171.38 1047.62,-190.62"/>
<text text-anchor="middle" x="974.75" y="-177.12" font-family="Helvetica,sans-Serif" font-size="10.00">daqdataformats/Fragment.hpp</text>
</a>
</g>
</g>
<!-- Node1&#45;&gt;Node2 -->
<g id="edge1_Node000001_Node000002" class="edge">
<title>Node1&#45;&gt;Node2</title>
<g id="a_edge1_Node000001_Node000002"><a xlink:title=" ">
<path fill="none" stroke="#63b8ff" d="M1223.68,-236.21C1163.92,-223.2 1080.83,-205.1 1027.42,-193.47"/>
<polygon fill="#63b8ff" stroke="#63b8ff" points="1028.49,-190.12 1017.97,-191.41 1027,-196.96 1028.49,-190.12"/>
</a>
</g>
</g>
<!-- Node4 -->
<g id="Node000004" class="node">
<title>Node4</title>
<g id="a_Node000004"><a xlink:href="SourceID_8hpp.html" target="_top" xlink:title=" ">
<polygon fill="white" stroke="#666666" points="525.25,-74.5 380.25,-74.5 380.25,-55.25 525.25,-55.25 525.25,-74.5"/>
<text text-anchor="middle" x="452.75" y="-61" font-family="Helvetica,sans-Serif" font-size="10.00">daqdataformats/SourceID.hpp</text>
</a>
</g>
</g>
<!-- Node1&#45;&gt;Node4 -->
<g id="edge36_Node000001_Node000004" class="edge">
<title>Node1&#45;&gt;Node4</title>
<g id="a_edge36_Node000001_Node000004"><a xlink:title=" ">
<path fill="none" stroke="#63b8ff" d="M1223.48,-250.46C1044.21,-245.86 593.85,-230.97 535.75,-196.25 493.64,-171.09 469.35,-115.38 458.9,-85.58"/>
<polygon fill="#63b8ff" stroke="#63b8ff" points="462.3,-84.72 455.83,-76.32 455.65,-86.92 462.3,-84.72"/>
</a>
</g>
</g>
<!-- Node7 -->
<g id="Node000007" class="node">
<title>Node7</title>
<g id="a_Node000007"><a xlink:title=" ">
<polygon fill="#e0e0e0" stroke="#999999" points="781.38,-19.25 736.12,-19.25 736.12,0 781.38,0 781.38,-19.25"/>
<text text-anchor="middle" x="758.75" y="-5.75" font-family="Helvetica,sans-Serif" font-size="10.00">cstdint</text>
</a>
</g>
</g>
<!-- Node1&#45;&gt;Node7 -->
<g id="edge52_Node000001_Node000007" class="edge">
<title>Node1&#45;&gt;Node7</title>
<g id="a_edge52_Node000001_Node000007"><a xlink:title=" ">
<path fill="none" stroke="#63b8ff" d="M1223.41,-246.07C1068.87,-232.2 715.77,-194.22 615.75,-129.75 583.62,-109.04 548.97,-85.19 572.75,-55.25 614.59,-2.58 655.07,-33.35 724.78,-19.62"/>
<polygon fill="#63b8ff" stroke="#63b8ff" points="725.3,-23.1 734.28,-17.48 723.75,-16.27 725.3,-23.1"/>
</a>
</g>
</g>
<!-- Node13 -->
<g id="Node000013" class="node">
<title>Node13</title>
<g id="a_Node000013"><a xlink:title=" ">
<polygon fill="#e0e0e0" stroke="#999999" points="849.75,-19.25 809.75,-19.25 809.75,0 849.75,0 849.75,-19.25"/>
<text text-anchor="middle" x="829.75" y="-5.75" font-family="Helvetica,sans-Serif" font-size="10.00">string</text>
</a>
</g>
</g>
<!-- Node1&#45;&gt;Node13 -->
<g id="edge55_Node000001_Node000013" class="edge">
<title>Node1&#45;&gt;Node13</title>
<g id="a_edge55_Node000001_Node000013"><a xlink:title=" ">
<path fill="none" stroke="#63b8ff" d="M1303.7,-231.81C1315.91,-191.97 1335.78,-103.28 1289.75,-55.25 1260.14,-24.35 960.39,-13.96 861.33,-11.36"/>
<polygon fill="#63b8ff" stroke="#63b8ff" points="861.62,-7.86 851.53,-11.11 861.44,-14.86 861.62,-7.86"/>
</a>
</g>
</g>
<!-- Node19 -->
<g id="Node000019" class="node">
<title>Node19</title>
<g id="a_Node000019"><a xlink:title=" ">
<polygon fill="#e0e0e0" stroke="#999999" points="1166.12,-74.5 1131.38,-74.5 1131.38,-55.25 1166.12,-55.25 1166.12,-74.5"/>
<text text-anchor="middle" x="1148.75" y="-61" font-family="Helvetica,sans-Serif" font-size="10.00">map</text>
</a>
</g>
</g>
<!-- Node1&#45;&gt;Node19 -->
<g id="edge53_Node000001_Node000019" class="edge">
<title>Node1&#45;&gt;Node19</title>
<g id="a_edge53_Node000001_Node000019"><a xlink:title=" ">
<path fill="none" stroke="#63b8ff" d="M1285.74,-232.1C1269.48,-203.48 1237.13,-149.96 1201.75,-110.5 1192.38,-100.05 1180.54,-89.85 1170.43,-81.85"/>
<polygon fill="#63b8ff" stroke="#63b8ff" points="1172.66,-79.15 1162.6,-75.84 1168.4,-84.7 1172.66,-79.15"/>
</a>
</g>
</g>
<!-- Node21 -->
<g id="Node000021" class="node">
<title>Node21</title>
<g id="a_Node000021"><a xlink:title=" ">
<polygon fill="#e0e0e0" stroke="#999999" points="1280.25,-74.5 1237.25,-74.5 1237.25,-55.25 1280.25,-55.25 1280.25,-74.5"/>
<text text-anchor="middle" x="1258.75" y="-61" font-family="Helvetica,sans-Serif" font-size="10.00">vector</text>
</a>
</g>
</g>
<!-- Node1&#45;&gt;Node21 -->
<g id="edge56_Node000001_Node000021" class="edge">
<title>Node1&#45;&gt;Node21</title>
<g id="a_edge56_Node000001_Node000021"><a xlink:title=" ">
<path fill="none" stroke="#63b8ff" d="M1292.61,-231.84C1285.28,-195.91 1270.1,-121.53 1262.82,-85.83"/>
<polygon fill="#63b8ff" stroke="#63b8ff" points="1266.33,-85.53 1260.9,-76.43 1259.47,-86.93 1266.33,-85.53"/>
</a>
</g>
</g>
<!-- Node26 -->
<g id="Node000026" class="node">
<title>Node26</title>
<g id="a_Node000026"><a xlink:title=" ">
<polygon fill="#e0e0e0" stroke="#999999" points="1480.75,-196.25 1362.75,-196.25 1362.75,-165.75 1480.75,-165.75 1480.75,-196.25"/>
<text text-anchor="start" x="1370.75" y="-182.75" font-family="Helvetica,sans-Serif" font-size="10.00">hdf5libs/hdf5rawdatafile</text>
<text text-anchor="middle" x="1421.75" y="-171.5" font-family="Helvetica,sans-Serif" font-size="10.00">/Structs.hpp</text>
</a>
</g>
</g>
<!-- Node1&#45;&gt;Node26 -->
<g id="edge37_Node000001_Node000026" class="edge">
<title>Node1&#45;&gt;Node26</title>
<g id="a_edge37_Node000001_Node000026"><a xlink:title=" ">
<path fill="none" stroke="#63b8ff" d="M1332.91,-231.84C1349.5,-222.53 1369.14,-211.51 1385.72,-202.21"/>
<polygon fill="#63b8ff" stroke="#63b8ff" points="1387.27,-205.36 1394.28,-197.41 1383.85,-199.25 1387.27,-205.36"/>
</a>
</g>
</g>
<!-- Node27 -->
<g id="Node000027" class="node">
<title>Node27</title>
<g id="a_Node000027"><a xlink:href="DetID_8hpp.html" target="_top" xlink:title=" ">
<polygon fill="white" stroke="#666666" points="362.25,-74.5 235.25,-74.5 235.25,-55.25 362.25,-55.25 362.25,-74.5"/>
<text text-anchor="middle" x="298.75" y="-61" font-family="Helvetica,sans-Serif" font-size="10.00">detdataformats/DetID.hpp</text>
</a>
</g>
</g>
<!-- Node1&#45;&gt;Node27 -->
<g id="edge38_Node000001_Node000027" class="edge">
<title>Node1&#45;&gt;Node27</title>
<g id="a_edge38_Node000001_Node000027"><a xlink:title=" ">
<path fill="none" stroke="#63b8ff" d="M1223.59,-251.68C1052.74,-249.89 631.89,-240.93 498.75,-196.25 424,-171.16 349.91,-111.37 316.77,-82.31"/>
<polygon fill="#63b8ff" stroke="#63b8ff" points="319.12,-79.71 309.32,-75.67 314.46,-84.93 319.12,-79.71"/>
</a>
</g>
</g>
<!-- Node29 -->
<g id="Node000029" class="node">
<title>Node29</title>
<g id="a_Node000029"><a xlink:title=" ">
<polygon fill="#e0e0e0" stroke="#999999" points="1597,-190.62 1498.5,-190.62 1498.5,-171.38 1597,-171.38 1597,-190.62"/>
<text text-anchor="middle" x="1547.75" y="-177.12" font-family="Helvetica,sans-Serif" font-size="10.00">highfive/H5File.hpp</text>
</a>
</g>
</g>
<!-- Node1&#45;&gt;Node29 -->
<g id="edge50_Node000001_Node000029" class="edge">
<title>Node1&#45;&gt;Node29</title>
<g id="a_edge50_Node000001_Node000029"><a xlink:title=" ">
<path fill="none" stroke="#63b8ff" d="M1369.35,-231.84C1413.04,-219.63 1467.21,-204.5 1504.32,-194.13"/>
<polygon fill="#63b8ff" stroke="#63b8ff" points="1505.11,-197.55 1513.8,-191.48 1503.23,-190.8 1505.11,-197.55"/>
</a>
</g>
</g>
<!-- Node30 -->
<g id="Node000030" class="node">
<title>Node30</title>
<g id="a_Node000030"><a xlink:title=" ">
<polygon fill="#e0e0e0" stroke="#999999" points="1724.25,-190.62 1615.25,-190.62 1615.25,-171.38 1724.25,-171.38 1724.25,-190.62"/>
<text text-anchor="middle" x="1669.75" y="-177.12" font-family="Helvetica,sans-Serif" font-size="10.00">highfive/H5Group.hpp</text>
</a>
</g>
</g>
<!-- Node1&#45;&gt;Node30 -->
<g id="edge51_Node000001_Node000030" class="edge">
<title>Node1&#45;&gt;Node30</title>
<g id="a_edge51_Node000001_Node000030"><a xlink:title=" ">
<path fill="none" stroke="#63b8ff" d="M1369.95,-239.74C1432.67,-228.93 1525.32,-212.47 1605.75,-196.25 1610.08,-195.38 1614.57,-194.44 1619.07,-193.48"/>
<polygon fill="#63b8ff" stroke="#63b8ff" points="1619.69,-196.93 1628.72,-191.39 1618.21,-190.09 1619.69,-196.93"/>
</a>
</g>
</g>
<!-- Node31 -->
<g id="Node000031" class="node">
<title>Node31</title>
<g id="a_Node000031"><a xlink:title=" ">
<polygon fill="#e0e0e0" stroke="#999999" points="1771.5,-190.62 1742,-190.62 1742,-171.38 1771.5,-171.38 1771.5,-190.62"/>
<text text-anchor="middle" x="1756.75" y="-177.12" font-family="Helvetica,sans-Serif" font-size="10.00">set</text>
</a>
</g>
</g>
<!-- Node1&#45;&gt;Node31 -->
<g id="edge54_Node000001_Node000031" class="edge">
<title>Node1&#45;&gt;Node31</title>
<g id="a_edge54_Node000001_Node000031"><a xlink:title=" ">
<path fill="none" stroke="#63b8ff" d="M1370.08,-252.16C1458.71,-250.1 1611.21,-239.73 1733.75,-196.25 1733.98,-196.17 1734.21,-196.08 1734.45,-195.99"/>
<polygon fill="#63b8ff" stroke="#63b8ff" points="1735.89,-199.19 1743.24,-191.55 1732.74,-192.94 1735.89,-199.19"/>
</a>
</g>
</g>
<!-- Node3 -->
<g id="Node000003" class="node">
<title>Node3</title>
<g id="a_Node000003"><a xlink:href="FragmentHeader_8hpp.html" target="_top" xlink:title=" ">
<polygon fill="white" stroke="#666666" points="831.38,-129.75 654.12,-129.75 654.12,-110.5 831.38,-110.5 831.38,-129.75"/>
<text text-anchor="middle" x="742.75" y="-116.25" font-family="Helvetica,sans-Serif" font-size="10.00">daqdataformats/FragmentHeader.hpp</text>
</a>
</g>
</g>
<!-- Node2&#45;&gt;Node3 -->
<g id="edge2_Node000002_Node000003" class="edge">
<title>Node2&#45;&gt;Node3</title>
<g id="a_edge2_Node000002_Node000003"><a xlink:title=" ">
<path fill="none" stroke="#63b8ff" d="M939.01,-170.93C898.9,-160.75 833.69,-144.2 789.55,-133"/>
<polygon fill="#63b8ff" stroke="#63b8ff" points="790.55,-129.65 780,-130.58 788.83,-136.43 790.55,-129.65"/>
</a>
</g>
</g>
<!-- Node2&#45;&gt;Node4 -->
<g id="edge25_Node000002_Node000004" class="edge">
<title>Node2&#45;&gt;Node4</title>
<g id="a_edge25_Node000002_Node000004"><a xlink:title=" ">
<path fill="none" stroke="#63b8ff" d="M901.57,-174.81C828.31,-168.44 712.85,-155.19 615.75,-129.75 567.36,-117.07 513.81,-94.29 481.74,-79.64"/>
<polygon fill="#63b8ff" stroke="#63b8ff" points="483.26,-76.48 472.71,-75.46 480.32,-82.84 483.26,-76.48"/>
</a>
</g>
</g>
<!-- Node2&#45;&gt;Node7 -->
<g id="edge28_Node000002_Node000007" class="edge">
<title>Node2&#45;&gt;Node7</title>
<g id="a_edge28_Node000002_Node000007"><a xlink:title=" ">
<path fill="none" stroke="#63b8ff" d="M984.04,-171.15C1005.95,-149.22 1056.72,-91.57 1025.75,-55.25 992.89,-16.72 850.56,-28.35 800.75,-19.25 798.25,-18.79 795.67,-18.31 793.08,-17.8"/>
<polygon fill="#63b8ff" stroke="#63b8ff" points="793.8,-14.38 783.31,-15.85 792.43,-21.24 793.8,-14.38"/>
</a>
</g>
</g>
<!-- Node16 -->
<g id="Node000016" class="node">
<title>Node16</title>
<g id="a_Node000016"><a xlink:href="daqdataformats_2include_2daqdataformats_2Types_8hpp.html" target="_top" xlink:title=" ">
<polygon fill="white" stroke="#666666" points="812.12,-74.5 681.38,-74.5 681.38,-55.25 812.12,-55.25 812.12,-74.5"/>
<text text-anchor="middle" x="746.75" y="-61" font-family="Helvetica,sans-Serif" font-size="10.00">daqdataformats/Types.hpp</text>
</a>
</g>
</g>
<!-- Node2&#45;&gt;Node16 -->
<g id="edge26_Node000002_Node000016" class="edge">
<title>Node2&#45;&gt;Node16</title>
<g id="a_edge26_Node000002_Node000016"><a xlink:title=" ">
<path fill="none" stroke="#63b8ff" d="M901.59,-179.52C814.63,-177.21 677.18,-167.5 644.75,-129.75 624.7,-106.41 661.47,-88.79 696.32,-78.03"/>
<polygon fill="#63b8ff" stroke="#63b8ff" points="696.94,-81.49 705.56,-75.33 694.98,-74.77 696.94,-81.49"/>
</a>
</g>
</g>
<!-- Node17 -->
<g id="Node000017" class="node">
<title>Node17</title>
<g id="a_Node000017"><a xlink:title=" ">
<polygon fill="#e0e0e0" stroke="#999999" points="1016.75,-74.5 976.75,-74.5 976.75,-55.25 1016.75,-55.25 1016.75,-74.5"/>
<text text-anchor="middle" x="996.75" y="-61" font-family="Helvetica,sans-Serif" font-size="10.00">bitset</text>
</a>
</g>
</g>
<!-- Node2&#45;&gt;Node17 -->
<g id="edge27_Node000002_Node000017" class="edge">
<title>Node2&#45;&gt;Node17</title>
<g id="a_edge27_Node000002_Node000017"><a xlink:title=" ">
<path fill="none" stroke="#63b8ff" d="M977.63,-171.2C980.78,-161.24 985.79,-144.49 988.75,-129.75 991.69,-115.12 993.74,-98.38 995.03,-85.71"/>
<polygon fill="#63b8ff" stroke="#63b8ff" points="998.47,-86.41 995.92,-76.13 991.51,-85.76 998.47,-86.41"/>
</a>
</g>
</g>
<!-- Node18 -->
<g id="Node000018" class="node">
<title>Node18</title>
<g id="a_Node000018"><a xlink:title=" ">
<polygon fill="#e0e0e0" stroke="#999999" points="626,-74.5 581.5,-74.5 581.5,-55.25 626,-55.25 626,-74.5"/>
<text text-anchor="middle" x="603.75" y="-61" font-family="Helvetica,sans-Serif" font-size="10.00">cstdlib</text>
</a>
</g>
</g>
<!-- Node2&#45;&gt;Node18 -->
<g id="edge29_Node000002_Node000018" class="edge">
<title>Node2&#45;&gt;Node18</title>
<g id="a_edge29_Node000002_Node000018"><a xlink:title=" ">
<path fill="none" stroke="#63b8ff" d="M901.46,-176.95C814.77,-172.02 677.01,-159.63 635.75,-129.75 621.15,-119.18 612.82,-100.03 608.34,-85.44"/>
<polygon fill="#63b8ff" stroke="#63b8ff" points="611.78,-84.78 605.82,-76.02 605.02,-86.58 611.78,-84.78"/>
</a>
</g>
</g>
<!-- Node20 -->
<g id="Node000020" class="node">
<title>Node20</title>
<g id="a_Node000020"><a xlink:title=" ">
<polygon fill="#e0e0e0" stroke="#999999" points="946,-74.5 895.5,-74.5 895.5,-55.25 946,-55.25 946,-74.5"/>
<text text-anchor="middle" x="920.75" y="-61" font-family="Helvetica,sans-Serif" font-size="10.00">numeric</text>
</a>
</g>
</g>
<!-- Node2&#45;&gt;Node20 -->
<g id="edge32_Node000002_Node000020" class="edge">
<title>Node2&#45;&gt;Node20</title>
<g id="a_edge32_Node000002_Node000020"><a xlink:title=" ">
<path fill="none" stroke="#63b8ff" d="M973.47,-171.03C971.27,-157.39 965.98,-130.84 955.75,-110.5 950.84,-100.74 943.62,-91.07 937.01,-83.23"/>
<polygon fill="#63b8ff" stroke="#63b8ff" points="939.7,-80.99 930.44,-75.83 934.46,-85.64 939.7,-80.99"/>
</a>
</g>
</g>
<!-- Node2&#45;&gt;Node21 -->
<g id="edge35_Node000002_Node000021" class="edge">
<title>Node2&#45;&gt;Node21</title>
<g id="a_edge35_Node000002_Node000021"><a xlink:title=" ">
<path fill="none" stroke="#63b8ff" d="M1047.96,-175.33C1094.63,-169.67 1154.91,-157.2 1201.75,-129.75 1220.74,-118.62 1236.83,-99 1247.02,-84.43"/>
<polygon fill="#63b8ff" stroke="#63b8ff" points="1249.89,-86.43 1252.52,-76.17 1244.07,-82.56 1249.89,-86.43"/>
</a>
</g>
</g>
<!-- Node22 -->
<g id="Node000022" class="node">
<title>Node22</title>
<g id="a_Node000022"><a xlink:title=" ">
<polygon fill="#e0e0e0" stroke="#999999" points="894.38,-129.75 849.12,-129.75 849.12,-110.5 894.38,-110.5 894.38,-129.75"/>
<text text-anchor="middle" x="871.75" y="-116.25" font-family="Helvetica,sans-Serif" font-size="10.00">cstring</text>
</a>
</g>
</g>
<!-- Node2&#45;&gt;Node22 -->
<g id="edge30_Node000002_Node000022" class="edge">
<title>Node2&#45;&gt;Node22</title>
<g id="a_edge30_Node000002_Node000022"><a xlink:title=" ">
<path fill="none" stroke="#63b8ff" d="M959.11,-171.06C942.77,-161.72 916.88,-146.92 897.52,-135.86"/>
<polygon fill="#63b8ff" stroke="#63b8ff" points="899.27,-132.83 888.85,-130.9 895.8,-138.9 899.27,-132.83"/>
</a>
</g>
</g>
<!-- Node23 -->
<g id="Node000023" class="node">
<title>Node23</title>
<g id="a_Node000023"><a xlink:title=" ">
<polygon fill="#e0e0e0" stroke="#999999" points="946.75,-129.75 912.75,-129.75 912.75,-110.5 946.75,-110.5 946.75,-129.75"/>
<text text-anchor="middle" x="929.75" y="-116.25" font-family="Helvetica,sans-Serif" font-size="10.00">new</text>
</a>
</g>
</g>
<!-- Node2&#45;&gt;Node23 -->
<g id="edge31_Node000002_Node000023" class="edge">
<title>Node2&#45;&gt;Node23</title>
<g id="a_edge31_Node000002_Node000023"><a xlink:title=" ">
<path fill="none" stroke="#63b8ff" d="M967.92,-171.06C961.44,-162.59 951.53,-149.62 943.43,-139.02"/>
<polygon fill="#63b8ff" stroke="#63b8ff" points="946.42,-137.17 937.57,-131.35 940.86,-141.42 946.42,-137.17"/>
</a>
</g>
</g>
<!-- Node24 -->
<g id="Node000024" class="node">
<title>Node24</title>
<g id="a_Node000024"><a xlink:title=" ">
<polygon fill="#e0e0e0" stroke="#999999" points="1136.75,-129.75 1078.75,-129.75 1078.75,-110.5 1136.75,-110.5 1136.75,-129.75"/>
<text text-anchor="middle" x="1107.75" y="-116.25" font-family="Helvetica,sans-Serif" font-size="10.00">stdexcept</text>
</a>
</g>
</g>
<!-- Node2&#45;&gt;Node24 -->
<g id="edge33_Node000002_Node000024" class="edge">
<title>Node2&#45;&gt;Node24</title>
<g id="a_edge33_Node000002_Node000024"><a xlink:title=" ">
<path fill="none" stroke="#63b8ff" d="M995.24,-170.93C1017.07,-161.26 1051.89,-145.85 1077.01,-134.73"/>
<polygon fill="#63b8ff" stroke="#63b8ff" points="1078.34,-137.97 1086.07,-130.72 1075.51,-131.57 1078.34,-137.97"/>
</a>
</g>
</g>
<!-- Node25 -->
<g id="Node000025" class="node">
<title>Node25</title>
<g id="a_Node000025"><a xlink:title=" ">
<polygon fill="#e0e0e0" stroke="#999999" points="1193,-129.75 1154.5,-129.75 1154.5,-110.5 1193,-110.5 1193,-129.75"/>
<text text-anchor="middle" x="1173.75" y="-116.25" font-family="Helvetica,sans-Serif" font-size="10.00">utility</text>
</a>
</g>
</g>
<!-- Node2&#45;&gt;Node25 -->
<g id="edge34_Node000002_Node000025" class="edge">
<title>Node2&#45;&gt;Node25</title>
<g id="a_edge34_Node000002_Node000025"><a xlink:title=" ">
<path fill="none" stroke="#63b8ff" d="M1005.99,-170.95C1038.16,-161.61 1090.01,-146.46 1143.47,-130.41"/>
<polygon fill="#63b8ff" stroke="#63b8ff" points="1144.16,-133.86 1152.73,-127.63 1142.14,-127.15 1144.16,-133.86"/>
</a>
</g>
</g>
<!-- Node3&#45;&gt;Node4 -->
<g id="edge3_Node000003_Node000004" class="edge">
<title>Node3&#45;&gt;Node4</title>
<g id="a_edge3_Node000003_Node000004"><a xlink:title=" ">
<path fill="none" stroke="#63b8ff" d="M693.23,-110.03C643.39,-100.88 566.46,-86.75 513.08,-76.95"/>
<polygon fill="#63b8ff" stroke="#63b8ff" points="514.03,-73.57 503.56,-75.2 512.76,-80.45 514.03,-73.57"/>
</a>
</g>
</g>
<!-- Node6 -->
<g id="Node000006" class="node">
<title>Node6</title>
<g id="a_Node000006"><a xlink:title=" ">
<polygon fill="#e0e0e0" stroke="#999999" points="543.88,-19.25 495.62,-19.25 495.62,0 543.88,0 543.88,-19.25"/>
<text text-anchor="middle" x="519.75" y="-5.75" font-family="Helvetica,sans-Serif" font-size="10.00">cstddef</text>
</a>
</g>
</g>
<!-- Node3&#45;&gt;Node6 -->
<g id="edge19_Node000003_Node000006" class="edge">
<title>Node3&#45;&gt;Node6</title>
<g id="a_edge19_Node000003_Node000006"><a xlink:title=" ">
<path fill="none" stroke="#63b8ff" d="M729.17,-110.11C709.09,-97 670.02,-72.38 634.75,-55.25 608.59,-42.55 577.83,-30.76 554.71,-22.5"/>
<polygon fill="#63b8ff" stroke="#63b8ff" points="556.05,-19.26 545.45,-19.24 553.72,-25.86 556.05,-19.26"/>
</a>
</g>
</g>
<!-- Node3&#45;&gt;Node13 -->
<g id="edge23_Node000003_Node000013" class="edge">
<title>Node3&#45;&gt;Node13</title>
<g id="a_edge23_Node000003_Node000013"><a xlink:title=" ">
<path fill="none" stroke="#63b8ff" d="M771.4,-110.02C788.51,-103.05 809.11,-91.68 820.75,-74.5 829.41,-61.71 831.36,-44.16 831.3,-30.7"/>
<polygon fill="#63b8ff" stroke="#63b8ff" points="834.8,-30.67 830.86,-20.83 827.81,-30.98 834.8,-30.67"/>
</a>
</g>
</g>
<!-- Node3&#45;&gt;Node16 -->
<g id="edge15_Node000003_Node000016" class="edge">
<title>Node3&#45;&gt;Node16</title>
<g id="a_edge15_Node000003_Node000016"><a xlink:title=" ">
<path fill="none" stroke="#63b8ff" d="M743.41,-110.33C743.91,-103.74 744.6,-94.46 745.23,-86.07"/>
<polygon fill="#63b8ff" stroke="#63b8ff" points="748.7,-86.6 745.96,-76.37 741.72,-86.08 748.7,-86.6"/>
</a>
</g>
</g>
<!-- Node3&#45;&gt;Node17 -->
<g id="edge18_Node000003_Node000017" class="edge">
<title>Node3&#45;&gt;Node17</title>
<g id="a_edge18_Node000003_Node000017"><a xlink:title=" ">
<path fill="none" stroke="#63b8ff" d="M786.13,-110.03C836.98,-99.37 920.04,-81.96 965.16,-72.5"/>
<polygon fill="#63b8ff" stroke="#63b8ff" points="965.75,-75.95 974.82,-70.47 964.32,-69.1 965.75,-75.95"/>
</a>
</g>
</g>
<!-- Node3&#45;&gt;Node18 -->
<g id="edge20_Node000003_Node000018" class="edge">
<title>Node3&#45;&gt;Node18</title>
<g id="a_edge20_Node000003_Node000018"><a xlink:title=" ">
<path fill="none" stroke="#63b8ff" d="M719.17,-110.09C696.5,-101.41 662.03,-88.2 636.66,-78.48"/>
<polygon fill="#63b8ff" stroke="#63b8ff" points="638.07,-75.27 627.48,-74.96 635.56,-81.81 638.07,-75.27"/>
</a>
</g>
</g>
<!-- Node3&#45;&gt;Node19 -->
<g id="edge21_Node000003_Node000019" class="edge">
<title>Node3&#45;&gt;Node19</title>
<g id="a_edge21_Node000003_Node000019"><a xlink:title=" ">
<path fill="none" stroke="#63b8ff" d="M812.08,-110.03C902.51,-98.17 1056.64,-77.96 1120.12,-69.63"/>
<polygon fill="#63b8ff" stroke="#63b8ff" points="1120.27,-73.14 1129.73,-68.37 1119.36,-66.2 1120.27,-73.14"/>
</a>
</g>
</g>
<!-- Node3&#45;&gt;Node20 -->
<g id="edge22_Node000003_Node000020" class="edge">
<title>Node3&#45;&gt;Node20</title>
<g id="a_edge22_Node000003_Node000020"><a xlink:title=" ">
<path fill="none" stroke="#63b8ff" d="M772.95,-110.09C803.64,-100.91 851.24,-86.67 884.09,-76.84"/>
<polygon fill="#63b8ff" stroke="#63b8ff" points="885.01,-80.22 893.59,-74 883,-73.51 885.01,-80.22"/>
</a>
</g>
</g>
<!-- Node3&#45;&gt;Node21 -->
<g id="edge24_Node000003_Node000021" class="edge">
<title>Node3&#45;&gt;Node21</title>
<g id="a_edge24_Node000003_Node000021"><a xlink:title=" ">
<path fill="none" stroke="#63b8ff" d="M831.16,-110C947.86,-97.96 1147.65,-77.34 1225.93,-69.26"/>
<polygon fill="#63b8ff" stroke="#63b8ff" points="1225.9,-72.78 1235.49,-68.28 1225.18,-65.82 1225.9,-72.78"/>
</a>
</g>
</g>
<!-- Node5 -->
<g id="Node000005" class="node">
<title>Node5</title>
<g id="a_Node000005"><a xlink:title=" ">
<polygon fill="#e0e0e0" stroke="#999999" points="409.88,-19.25 361.62,-19.25 361.62,0 409.88,0 409.88,-19.25"/>
<text text-anchor="middle" x="385.75" y="-5.75" font-family="Helvetica,sans-Serif" font-size="10.00">cassert</text>
</a>
</g>
</g>
<!-- Node4&#45;&gt;Node5 -->
<g id="edge4_Node000004_Node000005" class="edge">
<title>Node4&#45;&gt;Node5</title>
<g id="a_edge4_Node000004_Node000005"><a xlink:title=" ">
<path fill="none" stroke="#63b8ff" d="M441.38,-54.84C431.7,-47.15 417.55,-35.9 405.94,-26.68"/>
<polygon fill="#63b8ff" stroke="#63b8ff" points="408.14,-23.95 398.13,-20.47 403.78,-29.43 408.14,-23.95"/>
</a>
</g>
</g>
<!-- Node4&#45;&gt;Node6 -->
<g id="edge5_Node000004_Node000006" class="edge">
<title>Node4&#45;&gt;Node6</title>
<g id="a_edge5_Node000004_Node000006"><a xlink:title=" ">
<path fill="none" stroke="#63b8ff" d="M464.12,-54.84C473.8,-47.15 487.95,-35.9 499.56,-26.68"/>
<polygon fill="#63b8ff" stroke="#63b8ff" points="501.72,-29.43 507.37,-20.47 497.36,-23.95 501.72,-29.43"/>
</a>
</g>
</g>
<!-- Node4&#45;&gt;Node7 -->
<g id="edge6_Node000004_Node000007" class="edge">
<title>Node4&#45;&gt;Node7</title>
<g id="a_edge6_Node000004_Node000007"><a xlink:title=" ">
<path fill="none" stroke="#63b8ff" d="M522.09,-54.79C575.32,-47.31 650.82,-35.65 724.88,-19.7"/>
<polygon fill="#63b8ff" stroke="#63b8ff" points="725.3,-23.19 734.32,-17.64 723.8,-16.35 725.3,-23.19"/>
</a>
</g>
</g>
<!-- Node8 -->
<g id="Node000008" class="node">
<title>Node8</title>
<g id="a_Node000008"><a xlink:title=" ">
<polygon fill="#e0e0e0" stroke="#999999" points="477.62,-19.25 427.88,-19.25 427.88,0 477.62,0 477.62,-19.25"/>
<text text-anchor="middle" x="452.75" y="-5.75" font-family="Helvetica,sans-Serif" font-size="10.00">iomanip</text>
</a>
</g>
</g>
<!-- Node4&#45;&gt;Node8 -->
<g id="edge7_Node000004_Node000008" class="edge">
<title>Node4&#45;&gt;Node8</title>
<g id="a_edge7_Node000004_Node000008"><a xlink:title=" ">
<path fill="none" stroke="#63b8ff" d="M452.75,-55.08C452.75,-48.57 452.75,-39.42 452.75,-31.12"/>
<polygon fill="#63b8ff" stroke="#63b8ff" points="456.25,-31.12 452.75,-21.12 449.25,-31.12 456.25,-31.12"/>
</a>
</g>
</g>
<!-- Node9 -->
<g id="Node000009" class="node">
<title>Node9</title>
<g id="a_Node000009"><a xlink:title=" ">
<polygon fill="#e0e0e0" stroke="#999999" points="149.88,-19.25 101.62,-19.25 101.62,0 149.88,0 149.88,-19.25"/>
<text text-anchor="middle" x="125.75" y="-5.75" font-family="Helvetica,sans-Serif" font-size="10.00">istream</text>
</a>
</g>
</g>
<!-- Node4&#45;&gt;Node9 -->
<g id="edge8_Node000004_Node000009" class="edge">
<title>Node4&#45;&gt;Node9</title>
<g id="a_edge8_Node000004_Node000009"><a xlink:title=" ">
<path fill="none" stroke="#63b8ff" d="M379.88,-54.98C322.84,-47.52 241.31,-35.78 161.45,-19.63"/>
<polygon fill="#63b8ff" stroke="#63b8ff" points="162.17,-16.2 151.67,-17.62 160.77,-23.06 162.17,-16.2"/>
</a>
</g>
</g>
<!-- Node10 -->
<g id="Node000010" class="node">
<title>Node10</title>
<g id="a_Node000010"><a xlink:title=" ">
<polygon fill="#e0e0e0" stroke="#999999" points="718.38,-19.25 679.12,-19.25 679.12,0 718.38,0 718.38,-19.25"/>
<text text-anchor="middle" x="698.75" y="-5.75" font-family="Helvetica,sans-Serif" font-size="10.00">limits</text>
</a>
</g>
</g>
<!-- Node4&#45;&gt;Node10 -->
<g id="edge9_Node000004_Node000010" class="edge">
<title>Node4&#45;&gt;Node10</title>
<g id="a_edge9_Node000004_Node000010"><a xlink:title=" ">
<path fill="none" stroke="#63b8ff" d="M504.16,-54.81C546.03,-47.09 606.86,-35.15 667.68,-19.87"/>
<polygon fill="#63b8ff" stroke="#63b8ff" points="668.33,-23.31 677.16,-17.45 666.61,-16.53 668.33,-23.31"/>
</a>
</g>
</g>
<!-- Node11 -->
<g id="Node000011" class="node">
<title>Node11</title>
<g id="a_Node000011"><a xlink:title=" ">
<polygon fill="#e0e0e0" stroke="#999999" points="219.38,-19.25 168.12,-19.25 168.12,0 219.38,0 219.38,-19.25"/>
<text text-anchor="middle" x="193.75" y="-5.75" font-family="Helvetica,sans-Serif" font-size="10.00">ostream</text>
</a>
</g>
</g>
<!-- Node4&#45;&gt;Node11 -->
<g id="edge10_Node000004_Node000011" class="edge">
<title>Node4&#45;&gt;Node11</title>
<g id="a_edge10_Node000004_Node000011"><a xlink:title=" ">
<path fill="none" stroke="#63b8ff" d="M402.99,-54.78C359.79,-46.72 295.3,-34.26 230.88,-19.87"/>
<polygon fill="#63b8ff" stroke="#63b8ff" points="231.71,-16.47 221.18,-17.69 230.17,-23.3 231.71,-16.47"/>
</a>
</g>
</g>
<!-- Node12 -->
<g id="Node000012" class="node">
<title>Node12</title>
<g id="a_Node000012"><a xlink:title=" ">
<polygon fill="#e0e0e0" stroke="#999999" points="288.38,-19.25 237.12,-19.25 237.12,0 288.38,0 288.38,-19.25"/>
<text text-anchor="middle" x="262.75" y="-5.75" font-family="Helvetica,sans-Serif" font-size="10.00">sstream</text>
</a>
</g>
</g>
<!-- Node4&#45;&gt;Node12 -->
<g id="edge11_Node000004_Node000012" class="edge">
<title>Node4&#45;&gt;Node12</title>
<g id="a_edge11_Node000004_Node000012"><a xlink:title=" ">
<path fill="none" stroke="#63b8ff" d="M420.52,-54.84C386.99,-45.44 334.57,-30.75 299.46,-20.91"/>
<polygon fill="#63b8ff" stroke="#63b8ff" points="300.75,-17.64 290.17,-18.31 298.86,-24.38 300.75,-17.64"/>
</a>
</g>
</g>
<!-- Node4&#45;&gt;Node13 -->
<g id="edge12_Node000004_Node000013" class="edge">
<title>Node4&#45;&gt;Node13</title>
<g id="a_edge12_Node000004_Node000013"><a xlink:title=" ">
<path fill="none" stroke="#63b8ff" d="M525.55,-56.1C594.2,-48.34 699.82,-35.28 790.75,-19.25 793.25,-18.81 795.83,-18.32 798.41,-17.8"/>
<polygon fill="#63b8ff" stroke="#63b8ff" points="799.04,-21.25 808.09,-15.75 797.59,-14.4 799.04,-21.25"/>
</a>
</g>
</g>
<!-- Node14 -->
<g id="Node000014" class="node">
<title>Node14</title>
<g id="a_Node000014"><a xlink:title=" ">
<polygon fill="#e0e0e0" stroke="#999999" points="343.25,-19.25 306.25,-19.25 306.25,0 343.25,0 343.25,-19.25"/>
<text text-anchor="middle" x="324.75" y="-5.75" font-family="Helvetica,sans-Serif" font-size="10.00">tuple</text>
</a>
</g>
</g>
<!-- Node4&#45;&gt;Node14 -->
<g id="edge13_Node000004_Node000014" class="edge">
<title>Node4&#45;&gt;Node14</title>
<g id="a_edge13_Node000004_Node000014"><a xlink:title=" ">
<path fill="none" stroke="#63b8ff" d="M431.04,-54.84C409.85,-46.03 377.49,-32.56 354.04,-22.81"/>
<polygon fill="#63b8ff" stroke="#63b8ff" points="355.62,-19.68 345.04,-19.07 352.93,-26.14 355.62,-19.68"/>
</a>
</g>
</g>
<!-- Node15 -->
<g id="Node000015" class="node">
<title>Node15</title>
<g id="a_Node000015"><a xlink:href="SourceID_8hxx.html" target="_top" xlink:title=" ">
<polygon fill="white" stroke="#666666" points="661.38,-19.25 562.12,-19.25 562.12,0 661.38,0 661.38,-19.25"/>
<text text-anchor="middle" x="611.75" y="-5.75" font-family="Helvetica,sans-Serif" font-size="10.00">detail/SourceID.hxx</text>
</a>
</g>
</g>
<!-- Node4&#45;&gt;Node15 -->
<g id="edge14_Node000004_Node000015" class="edge">
<title>Node4&#45;&gt;Node15</title>
<g id="a_edge14_Node000004_Node000015"><a xlink:title=" ">
<path fill="none" stroke="#63b8ff" d="M479.72,-54.84C505.65,-46.16 545.06,-32.96 574.08,-23.24"/>
<polygon fill="#63b8ff" stroke="#63b8ff" points="574.84,-26.68 583.21,-20.18 572.62,-20.04 574.84,-26.68"/>
</a>
</g>
</g>
<!-- Node16&#45;&gt;Node7 -->
<g id="edge16_Node000016_Node000007" class="edge">
<title>Node16&#45;&gt;Node7</title>
<g id="a_edge16_Node000016_Node000007"><a xlink:title=" ">
<path fill="none" stroke="#63b8ff" d="M748.73,-55.08C750.22,-48.49 752.31,-39.21 754.2,-30.82"/>
<polygon fill="#63b8ff" stroke="#63b8ff" points="757.61,-31.61 756.39,-21.09 750.78,-30.07 757.61,-31.61"/>
</a>
</g>
</g>
<!-- Node16&#45;&gt;Node10 -->
<g id="edge17_Node000016_Node000010" class="edge">
<title>Node16&#45;&gt;Node10</title>
<g id="a_edge17_Node000016_Node000010"><a xlink:title=" ">
<path fill="none" stroke="#63b8ff" d="M738.82,-55.08C732.19,-47.73 722.53,-37.01 714.36,-27.94"/>
<polygon fill="#63b8ff" stroke="#63b8ff" points="717.16,-25.82 707.86,-20.73 711.96,-30.5 717.16,-25.82"/>
</a>
</g>
</g>
<!-- Node27&#45;&gt;Node5 -->
<g id="edge39_Node000027_Node000005" class="edge">
<title>Node27&#45;&gt;Node5</title>
<g id="a_edge39_Node000027_Node000005"><a xlink:title=" ">
<path fill="none" stroke="#63b8ff" d="M313.51,-54.84C326.63,-46.81 346.07,-34.91 361.48,-25.48"/>
<polygon fill="#63b8ff" stroke="#63b8ff" points="362.93,-28.7 369.63,-20.49 359.27,-22.73 362.93,-28.7"/>
</a>
</g>
</g>
<!-- Node27&#45;&gt;Node6 -->
<g id="edge40_Node000027_Node000006" class="edge">
<title>Node27&#45;&gt;Node6</title>
<g id="a_edge40_Node000027_Node000006"><a xlink:title=" ">
<path fill="none" stroke="#63b8ff" d="M338.06,-54.82C373.83,-46.51 428.38,-33.7 484.41,-19.79"/>
<polygon fill="#63b8ff" stroke="#63b8ff" points="484.93,-23.27 493.79,-17.46 483.24,-16.48 484.93,-23.27"/>
</a>
</g>
</g>
<!-- Node27&#45;&gt;Node7 -->
<g id="edge41_Node000027_Node000007" class="edge">
<title>Node27&#45;&gt;Node7</title>
<g id="a_edge41_Node000027_Node000007"><a xlink:title=" ">
<path fill="none" stroke="#63b8ff" d="M362.73,-56.15C365.44,-55.84 368.12,-55.54 370.75,-55.25 525.7,-38.16 569.09,-48.25 724.91,-19.52"/>
<polygon fill="#63b8ff" stroke="#63b8ff" points="725.16,-23.03 734.34,-17.75 723.87,-16.15 725.16,-23.03"/>
</a>
</g>
</g>
<!-- Node27&#45;&gt;Node8 -->
<g id="edge42_Node000027_Node000008" class="edge">
<title>Node27&#45;&gt;Node8</title>
<g id="a_edge42_Node000027_Node000008"><a xlink:title=" ">
<path fill="none" stroke="#63b8ff" d="M324.87,-54.84C350.18,-46.09 388.75,-32.76 416.91,-23.02"/>
<polygon fill="#63b8ff" stroke="#63b8ff" points="417.78,-26.42 426.09,-19.84 415.5,-19.8 417.78,-26.42"/>
</a>
</g>
</g>
<!-- Node27&#45;&gt;Node9 -->
<g id="edge43_Node000027_Node000009" class="edge">
<title>Node27&#45;&gt;Node9</title>
<g id="a_edge43_Node000027_Node000009"><a xlink:title=" ">
<path fill="none" stroke="#63b8ff" d="M269.4,-54.84C239.39,-45.6 192.77,-31.25 160.83,-21.42"/>
<polygon fill="#63b8ff" stroke="#63b8ff" points="162.23,-18.19 151.64,-18.6 160.17,-24.88 162.23,-18.19"/>
</a>
</g>
</g>
<!-- Node27&#45;&gt;Node10 -->
<g id="edge44_Node000027_Node000010" class="edge">
<title>Node27&#45;&gt;Node10</title>
<g id="a_edge44_Node000027_Node000010"><a xlink:title=" ">
<path fill="none" stroke="#63b8ff" d="M362.6,-56.22C455.74,-45.06 622.14,-25.12 667.34,-18.99"/>
<polygon fill="#63b8ff" stroke="#63b8ff" points="667.81,-22.45 677.18,-17.51 666.77,-15.53 667.81,-22.45"/>
</a>
</g>
</g>
<!-- Node27&#45;&gt;Node11 -->
<g id="edge45_Node000027_Node000011" class="edge">
<title>Node27&#45;&gt;Node11</title>
<g id="a_edge45_Node000027_Node000011"><a xlink:title=" ">
<path fill="none" stroke="#63b8ff" d="M280.94,-54.84C264.72,-46.62 240.51,-34.34 221.72,-24.81"/>
<polygon fill="#63b8ff" stroke="#63b8ff" points="223.5,-21.79 213,-20.39 220.33,-28.03 223.5,-21.79"/>
</a>
</g>
</g>
<!-- Node27&#45;&gt;Node12 -->
<g id="edge46_Node000027_Node000012" class="edge">
<title>Node27&#45;&gt;Node12</title>
<g id="a_edge46_Node000027_Node000012"><a xlink:title=" ">
<path fill="none" stroke="#63b8ff" d="M292.81,-55.08C288.04,-48.03 281.19,-37.9 275.23,-29.08"/>
<polygon fill="#63b8ff" stroke="#63b8ff" points="278.17,-27.19 269.67,-20.86 272.37,-31.11 278.17,-27.19"/>
</a>
</g>
</g>
<!-- Node27&#45;&gt;Node13 -->
<g id="edge47_Node000027_Node000013" class="edge">
<title>Node27&#45;&gt;Node13</title>
<g id="a_edge47_Node000027_Node000013"><a xlink:title=" ">
<path fill="none" stroke="#63b8ff" d="M362.73,-56.1C365.44,-55.8 368.12,-55.52 370.75,-55.25 557.12,-36.11 605.55,-47.54 790.75,-19.25 793.26,-18.87 795.84,-18.42 798.43,-17.93"/>
<polygon fill="#63b8ff" stroke="#63b8ff" points="799.04,-21.38 808.12,-15.92 797.62,-14.52 799.04,-21.38"/>
</a>
</g>
</g>
<!-- Node27&#45;&gt;Node14 -->
<g id="edge48_Node000027_Node000014" class="edge">
<title>Node27&#45;&gt;Node14</title>
<g id="a_edge48_Node000027_Node000014"><a xlink:title=" ">
<path fill="none" stroke="#63b8ff" d="M303.04,-55.08C306.37,-48.26 311.11,-38.56 315.31,-29.95"/>
<polygon fill="#63b8ff" stroke="#63b8ff" points="318.46,-31.49 319.7,-20.97 312.17,-28.42 318.46,-31.49"/>
</a>
</g>
</g>
<!-- Node28 -->
<g id="Node000028" class="node">
<title>Node28</title>
<g id="a_Node000028"><a xlink:href="DetID_8hxx.html" target="_top" xlink:title=" ">
<polygon fill="white" stroke="#666666" points="83.5,-19.25 0,-19.25 0,0 83.5,0 83.5,-19.25"/>
<text text-anchor="middle" x="41.75" y="-5.75" font-family="Helvetica,sans-Serif" font-size="10.00">detail/DetID.hxx</text>
</a>
</g>
</g>
<!-- Node27&#45;&gt;Node28 -->
<g id="edge49_Node000027_Node000028" class="edge">
<title>Node27&#45;&gt;Node28</title>
<g id="a_edge49_Node000027_Node000028"><a xlink:title=" ">
<path fill="none" stroke="#63b8ff" d="M254.86,-54.78C210.63,-45.62 142.31,-31.46 95,-21.66"/>
<polygon fill="#63b8ff" stroke="#63b8ff" points="95.74,-18.24 85.23,-19.63 94.32,-25.09 95.74,-18.24"/>
</a>
</g>
</g>
</g>
</svg>
