<?xml version="1.0" encoding="UTF-8" standalone="no"?>
<!DOCTYPE svg PUBLIC "-//W3C//DTD SVG 1.1//EN"
 "http://www.w3.org/Graphics/SVG/1.1/DTD/svg11.dtd">
<!-- Generated by graphviz version 9.0.0 (20230911.1827)
 -->
<!-- Title: sourcecode/triggeralgs/include/triggeralgs/dbscan/Hit.hpp Pages: 1 -->
<svg width="404pt" height="272pt"
 viewBox="0.00 0.00 404.12 271.75" xmlns="http://www.w3.org/2000/svg" xmlns:xlink="http://www.w3.org/1999/xlink">
<g id="graph0" class="graph" transform="scale(1 1) rotate(0) translate(4 267.75)">
<title>sourcecode/triggeralgs/include/triggeralgs/dbscan/Hit.hpp</title>
<!-- Node1 -->
<g id="Node000001" class="node">
<title>Node1</title>
<g id="a_Node000001"><a xlink:title=" ">
<polygon fill="#999999" stroke="#666666" points="320.12,-263.75 187.88,-263.75 187.88,-222 320.12,-222 320.12,-263.75"/>
<text text-anchor="start" x="195.88" y="-250.25" font-family="Helvetica,sans-Serif" font-size="10.00">sourcecode/triggeralgs</text>
<text text-anchor="start" x="195.88" y="-239" font-family="Helvetica,sans-Serif" font-size="10.00">/include/triggeralgs/dbscan</text>
<text text-anchor="middle" x="254" y="-227.75" font-family="Helvetica,sans-Serif" font-size="10.00">/Hit.hpp</text>
</a>
</g>
</g>
<!-- Node2 -->
<g id="Node000002" class="node">
<title>Node2</title>
<g id="a_Node000002"><a xlink:href="dbscan_8hpp.html" target="_top" xlink:title=" ">
<polygon fill="white" stroke="#666666" points="226.12,-186 93.88,-186 93.88,-144.25 226.12,-144.25 226.12,-186"/>
<text text-anchor="start" x="101.88" y="-172.5" font-family="Helvetica,sans-Serif" font-size="10.00">sourcecode/triggeralgs</text>
<text text-anchor="start" x="101.88" y="-161.25" font-family="Helvetica,sans-Serif" font-size="10.00">/include/triggeralgs/dbscan</text>
<text text-anchor="middle" x="160" y="-150" font-family="Helvetica,sans-Serif" font-size="10.00">/dbscan.hpp</text>
</a>
</g>
</g>
<!-- Node1&#45;&gt;Node2 -->
<g id="edge1_Node000001_Node000002" class="edge">
<title>Node1&#45;&gt;Node2</title>
<g id="a_edge1_Node000001_Node000002"><a xlink:title=" ">
<path fill="none" stroke="#63b8ff" d="M219.92,-214.41C208.47,-205.19 195.91,-195.06 185.26,-186.48"/>
<polygon fill="#63b8ff" stroke="#63b8ff" points="217.65,-217.08 227.63,-220.63 222.04,-211.63 217.65,-217.08"/>
</a>
</g>
</g>
<!-- Node5 -->
<g id="Node000005" class="node">
<title>Node5</title>
<g id="a_Node000005"><a xlink:href="dbscan_8cpp.html" target="_top" xlink:title=" ">
<polygon fill="white" stroke="#666666" points="313.75,-102.62 194.25,-102.62 194.25,-72.12 313.75,-72.12 313.75,-102.62"/>
<text text-anchor="start" x="202.25" y="-89.12" font-family="Helvetica,sans-Serif" font-size="10.00">sourcecode/triggeralgs</text>
<text text-anchor="middle" x="254" y="-77.88" font-family="Helvetica,sans-Serif" font-size="10.00">/src/dbscan/dbscan.cpp</text>
</a>
</g>
</g>
<!-- Node1&#45;&gt;Node5 -->
<g id="edge6_Node000001_Node000005" class="edge">
<title>Node1&#45;&gt;Node5</title>
<g id="a_edge6_Node000001_Node000005"><a xlink:title=" ">
<path fill="none" stroke="#63b8ff" d="M254,-210.57C254,-177.72 254,-127.51 254,-102.94"/>
<polygon fill="#63b8ff" stroke="#63b8ff" points="250.5,-210.29 254,-220.29 257.5,-210.29 250.5,-210.29"/>
</a>
</g>
</g>
<!-- Node6 -->
<g id="Node000006" class="node">
<title>Node6</title>
<g id="a_Node000006"><a xlink:href="Hit_8cpp.html" target="_top" xlink:title=" ">
<polygon fill="white" stroke="#666666" points="396.12,-180.38 281.88,-180.38 281.88,-149.88 396.12,-149.88 396.12,-180.38"/>
<text text-anchor="start" x="289.88" y="-166.88" font-family="Helvetica,sans-Serif" font-size="10.00">sourcecode/triggeralgs</text>
<text text-anchor="middle" x="339" y="-155.62" font-family="Helvetica,sans-Serif" font-size="10.00">/src/dbscan/Hit.cpp</text>
</a>
</g>
</g>
<!-- Node1&#45;&gt;Node6 -->
<g id="edge5_Node000001_Node000006" class="edge">
<title>Node1&#45;&gt;Node6</title>
<g id="a_edge5_Node000001_Node000006"><a xlink:title=" ">
<path fill="none" stroke="#63b8ff" d="M285.26,-214.01C297.94,-202.72 312.05,-190.14 322.63,-180.71"/>
<polygon fill="#63b8ff" stroke="#63b8ff" points="283.05,-211.3 277.91,-220.57 287.7,-216.53 283.05,-211.3"/>
</a>
</g>
</g>
<!-- Node3 -->
<g id="Node000003" class="node">
<title>Node3</title>
<g id="a_Node000003"><a xlink:href="TriggerActivityMakerDBSCAN_8hpp.html" target="_top" xlink:title=" ">
<polygon fill="white" stroke="#666666" points="175.75,-108.25 8.25,-108.25 8.25,-66.5 175.75,-66.5 175.75,-108.25"/>
<text text-anchor="start" x="16.25" y="-94.75" font-family="Helvetica,sans-Serif" font-size="10.00">sourcecode/triggeralgs</text>
<text text-anchor="start" x="16.25" y="-83.5" font-family="Helvetica,sans-Serif" font-size="10.00">/include/triggeralgs/dbscan</text>
<text text-anchor="middle" x="92" y="-72.25" font-family="Helvetica,sans-Serif" font-size="10.00">/TriggerActivityMakerDBSCAN.hpp</text>
</a>
</g>
</g>
<!-- Node2&#45;&gt;Node3 -->
<g id="edge2_Node000002_Node000003" class="edge">
<title>Node2&#45;&gt;Node3</title>
<g id="a_edge2_Node000002_Node000003"><a xlink:title=" ">
<path fill="none" stroke="#63b8ff" d="M134.11,-135.29C126.17,-126.44 117.6,-116.89 110.27,-108.73"/>
<polygon fill="#63b8ff" stroke="#63b8ff" points="131.48,-137.6 140.77,-142.7 136.69,-132.92 131.48,-137.6"/>
</a>
</g>
</g>
<!-- Node2&#45;&gt;Node5 -->
<g id="edge4_Node000002_Node000005" class="edge">
<title>Node2&#45;&gt;Node5</title>
<g id="a_edge4_Node000002_Node000005"><a xlink:title=" ">
<path fill="none" stroke="#63b8ff" d="M193.77,-136.91C207.99,-125.45 223.97,-112.58 235.89,-102.96"/>
<polygon fill="#63b8ff" stroke="#63b8ff" points="191.96,-133.88 186.37,-142.88 196.35,-139.33 191.96,-133.88"/>
</a>
</g>
</g>
<!-- Node4 -->
<g id="Node000004" class="node">
<title>Node4</title>
<g id="a_Node000004"><a xlink:href="TriggerActivityMakerDBSCAN_8cpp.html" target="_top" xlink:title=" ">
<polygon fill="white" stroke="#666666" points="184,-30.5 0,-30.5 0,0 184,0 184,-30.5"/>
<text text-anchor="start" x="8" y="-17" font-family="Helvetica,sans-Serif" font-size="10.00">sourcecode/triggeralgs</text>
<text text-anchor="middle" x="92" y="-5.75" font-family="Helvetica,sans-Serif" font-size="10.00">/src/TriggerActivityMakerDBSCAN.cpp</text>
</a>
</g>
</g>
<!-- Node3&#45;&gt;Node4 -->
<g id="edge3_Node000003_Node000004" class="edge">
<title>Node3&#45;&gt;Node4</title>
<g id="a_edge3_Node000003_Node000004"><a xlink:title=" ">
<path fill="none" stroke="#63b8ff" d="M92,-54.63C92,-46.27 92,-37.65 92,-30.7"/>
<polygon fill="#63b8ff" stroke="#63b8ff" points="88.5,-54.58 92,-64.58 95.5,-54.58 88.5,-54.58"/>
</a>
</g>
</g>
</g>
</svg>
