<?xml version="1.0" encoding="UTF-8" standalone="no"?>
<!DOCTYPE svg PUBLIC "-//W3C//DTD SVG 1.1//EN"
 "http://www.w3.org/Graphics/SVG/1.1/DTD/svg11.dtd">
<!-- Generated by graphviz version 9.0.0 (20230911.1827)
 -->
<!-- Title: sourcecode/okssystem/include/okssystem/Host.hpp Pages: 1 -->
<svg width="270pt" height="94pt"
 viewBox="0.00 0.00 270.12 93.75" xmlns="http://www.w3.org/2000/svg" xmlns:xlink="http://www.w3.org/1999/xlink">
<g id="graph0" class="graph" transform="scale(1 1) rotate(0) translate(4 89.75)">
<title>sourcecode/okssystem/include/okssystem/Host.hpp</title>
<!-- Node1 -->
<g id="Node000001" class="node">
<title>Node1</title>
<g id="a_Node000001"><a xlink:title=" ">
<polygon fill="#999999" stroke="#666666" points="216.62,-85.75 74.62,-85.75 74.62,-55.25 216.62,-55.25 216.62,-85.75"/>
<text text-anchor="start" x="82.62" y="-72.25" font-family="Helvetica,sans-Serif" font-size="10.00">sourcecode/okssystem</text>
<text text-anchor="middle" x="145.62" y="-61" font-family="Helvetica,sans-Serif" font-size="10.00">/include/okssystem/Host.hpp</text>
</a>
</g>
</g>
<!-- Node2 -->
<g id="Node000002" class="node">
<title>Node2</title>
<g id="a_Node000002"><a xlink:title=" ">
<polygon fill="#e0e0e0" stroke="#999999" points="63.25,-19.25 0,-19.25 0,0 63.25,0 63.25,-19.25"/>
<text text-anchor="middle" x="31.62" y="-5.75" font-family="Helvetica,sans-Serif" font-size="10.00">netinet/in.h</text>
</a>
</g>
</g>
<!-- Node1&#45;&gt;Node2 -->
<g id="edge1_Node000001_Node000002" class="edge">
<title>Node1&#45;&gt;Node2</title>
<g id="a_edge1_Node000001_Node000002"><a xlink:title=" ">
<path fill="none" stroke="#63b8ff" d="M117.15,-54.8C99.46,-45.66 76.82,-33.97 59.28,-24.91"/>
<polygon fill="#63b8ff" stroke="#63b8ff" points="60.94,-21.83 50.45,-20.35 57.73,-28.05 60.94,-21.83"/>
</a>
</g>
</g>
<!-- Node3 -->
<g id="Node000003" class="node">
<title>Node3</title>
<g id="a_Node000003"><a xlink:title=" ">
<polygon fill="#e0e0e0" stroke="#999999" points="142.12,-19.25 81.12,-19.25 81.12,0 142.12,0 142.12,-19.25"/>
<text text-anchor="middle" x="111.62" y="-5.75" font-family="Helvetica,sans-Serif" font-size="10.00">arpa/inet.h</text>
</a>
</g>
</g>
<!-- Node1&#45;&gt;Node3 -->
<g id="edge2_Node000001_Node000003" class="edge">
<title>Node1&#45;&gt;Node3</title>
<g id="a_edge2_Node000001_Node000003"><a xlink:title=" ">
<path fill="none" stroke="#63b8ff" d="M137.22,-54.95C132.79,-47.28 127.3,-37.77 122.55,-29.54"/>
<polygon fill="#63b8ff" stroke="#63b8ff" points="125.66,-27.92 117.62,-21.01 119.59,-31.42 125.66,-27.92"/>
</a>
</g>
</g>
<!-- Node4 -->
<g id="Node000004" class="node">
<title>Node4</title>
<g id="a_Node000004"><a xlink:title=" ">
<polygon fill="#e0e0e0" stroke="#999999" points="200.62,-19.25 160.62,-19.25 160.62,0 200.62,0 200.62,-19.25"/>
<text text-anchor="middle" x="180.62" y="-5.75" font-family="Helvetica,sans-Serif" font-size="10.00">string</text>
</a>
</g>
</g>
<!-- Node1&#45;&gt;Node4 -->
<g id="edge3_Node000001_Node000004" class="edge">
<title>Node1&#45;&gt;Node4</title>
<g id="a_edge3_Node000001_Node000004"><a xlink:title=" ">
<path fill="none" stroke="#63b8ff" d="M154.28,-54.95C158.84,-47.28 164.49,-37.77 169.38,-29.54"/>
<polygon fill="#63b8ff" stroke="#63b8ff" points="172.35,-31.39 174.46,-21 166.34,-27.81 172.35,-31.39"/>
</a>
</g>
</g>
<!-- Node5 -->
<g id="Node000005" class="node">
<title>Node5</title>
<g id="a_Node000005"><a xlink:title=" ">
<polygon fill="#e0e0e0" stroke="#999999" points="262.12,-19.25 219.12,-19.25 219.12,0 262.12,0 262.12,-19.25"/>
<text text-anchor="middle" x="240.62" y="-5.75" font-family="Helvetica,sans-Serif" font-size="10.00">vector</text>
</a>
</g>
</g>
<!-- Node1&#45;&gt;Node5 -->
<g id="edge4_Node000001_Node000005" class="edge">
<title>Node1&#45;&gt;Node5</title>
<g id="a_edge4_Node000001_Node000005"><a xlink:title=" ">
<path fill="none" stroke="#63b8ff" d="M169.11,-54.95C183.43,-46.07 201.71,-34.74 216.21,-25.76"/>
<polygon fill="#63b8ff" stroke="#63b8ff" points="218.04,-28.74 224.69,-20.5 214.35,-22.79 218.04,-28.74"/>
</a>
</g>
</g>
</g>
</svg>
