<?xml version="1.0" encoding="UTF-8" standalone="no"?>
<!DOCTYPE svg PUBLIC "-//W3C//DTD SVG 1.1//EN"
 "http://www.w3.org/Graphics/SVG/1.1/DTD/svg11.dtd">
<!-- Generated by graphviz version 9.0.0 (20230911.1827)
 -->
<!-- Title: sourcecode/okssystem/src/Host.cpp Pages: 1 -->
<svg width="790pt" height="149pt"
 viewBox="0.00 0.00 789.88 149.00" xmlns="http://www.w3.org/2000/svg" xmlns:xlink="http://www.w3.org/1999/xlink">
<g id="graph0" class="graph" transform="scale(1 1) rotate(0) translate(4 145)">
<title>sourcecode/okssystem/src/Host.cpp</title>
<!-- Node1 -->
<g id="Node000001" class="node">
<title>Node1</title>
<g id="a_Node000001"><a xlink:title=" ">
<polygon fill="#999999" stroke="#666666" points="417.62,-141 301.12,-141 301.12,-110.5 417.62,-110.5 417.62,-141"/>
<text text-anchor="start" x="309.12" y="-127.5" font-family="Helvetica,sans-Serif" font-size="10.00">sourcecode/okssystem</text>
<text text-anchor="middle" x="359.38" y="-116.25" font-family="Helvetica,sans-Serif" font-size="10.00">/src/Host.cpp</text>
</a>
</g>
</g>
<!-- Node2 -->
<g id="Node000002" class="node">
<title>Node2</title>
<g id="a_Node000002"><a xlink:title=" ">
<polygon fill="#e0e0e0" stroke="#999999" points="64.75,-74.5 0,-74.5 0,-55.25 64.75,-55.25 64.75,-74.5"/>
<text text-anchor="middle" x="32.38" y="-61" font-family="Helvetica,sans-Serif" font-size="10.00">sys/types.h</text>
</a>
</g>
</g>
<!-- Node1&#45;&gt;Node2 -->
<g id="edge1_Node000001_Node000002" class="edge">
<title>Node1&#45;&gt;Node2</title>
<g id="a_edge1_Node000001_Node000002"><a xlink:title=" ">
<path fill="none" stroke="#63b8ff" d="M300.88,-114.93C245.63,-105.54 160.15,-90.73 75.98,-74.76"/>
<polygon fill="#63b8ff" stroke="#63b8ff" points="76.88,-71.37 66.4,-72.93 75.57,-78.24 76.88,-71.37"/>
</a>
</g>
</g>
<!-- Node3 -->
<g id="Node000003" class="node">
<title>Node3</title>
<g id="a_Node000003"><a xlink:title=" ">
<polygon fill="#e0e0e0" stroke="#999999" points="153.75,-74.5 83,-74.5 83,-55.25 153.75,-55.25 153.75,-74.5"/>
<text text-anchor="middle" x="118.38" y="-61" font-family="Helvetica,sans-Serif" font-size="10.00">sys/socket.h</text>
</a>
</g>
</g>
<!-- Node1&#45;&gt;Node3 -->
<g id="edge2_Node000001_Node000003" class="edge">
<title>Node1&#45;&gt;Node3</title>
<g id="a_edge2_Node000001_Node000003"><a xlink:title=" ">
<path fill="none" stroke="#63b8ff" d="M300.73,-110.42C259.01,-100.23 203.71,-86.72 164.99,-77.26"/>
<polygon fill="#63b8ff" stroke="#63b8ff" points="166.06,-73.92 155.51,-74.95 164.4,-80.72 166.06,-73.92"/>
</a>
</g>
</g>
<!-- Node4 -->
<g id="Node000004" class="node">
<title>Node4</title>
<g id="a_Node000004"><a xlink:title=" ">
<polygon fill="#e0e0e0" stroke="#999999" points="250.88,-74.5 171.88,-74.5 171.88,-55.25 250.88,-55.25 250.88,-74.5"/>
<text text-anchor="middle" x="211.38" y="-61" font-family="Helvetica,sans-Serif" font-size="10.00">sys/utsname.h</text>
</a>
</g>
</g>
<!-- Node1&#45;&gt;Node4 -->
<g id="edge3_Node000001_Node000004" class="edge">
<title>Node1&#45;&gt;Node4</title>
<g id="a_edge3_Node000001_Node000004"><a xlink:title=" ">
<path fill="none" stroke="#63b8ff" d="M322.41,-110.05C298.57,-100.56 267.82,-88.33 244.73,-79.14"/>
<polygon fill="#63b8ff" stroke="#63b8ff" points="246.06,-75.91 235.48,-75.46 243.48,-82.41 246.06,-75.91"/>
</a>
</g>
</g>
<!-- Node5 -->
<g id="Node000005" class="node">
<title>Node5</title>
<g id="a_Node000005"><a xlink:title=" ">
<polygon fill="#e0e0e0" stroke="#999999" points="316.12,-74.5 268.62,-74.5 268.62,-55.25 316.12,-55.25 316.12,-74.5"/>
<text text-anchor="middle" x="292.38" y="-61" font-family="Helvetica,sans-Serif" font-size="10.00">netdb.h</text>
</a>
</g>
</g>
<!-- Node1&#45;&gt;Node5 -->
<g id="edge4_Node000001_Node000005" class="edge">
<title>Node1&#45;&gt;Node5</title>
<g id="a_edge4_Node000001_Node000005"><a xlink:title=" ">
<path fill="none" stroke="#63b8ff" d="M342.81,-110.2C333.2,-101.75 321.06,-91.08 311.1,-82.33"/>
<polygon fill="#63b8ff" stroke="#63b8ff" points="313.66,-79.92 303.84,-75.95 309.04,-85.18 313.66,-79.92"/>
</a>
</g>
</g>
<!-- Node6 -->
<g id="Node000006" class="node">
<title>Node6</title>
<g id="a_Node000006"><a xlink:title=" ">
<polygon fill="#e0e0e0" stroke="#999999" points="384.25,-74.5 334.5,-74.5 334.5,-55.25 384.25,-55.25 384.25,-74.5"/>
<text text-anchor="middle" x="359.38" y="-61" font-family="Helvetica,sans-Serif" font-size="10.00">unistd.h</text>
</a>
</g>
</g>
<!-- Node1&#45;&gt;Node6 -->
<g id="edge5_Node000001_Node000006" class="edge">
<title>Node1&#45;&gt;Node6</title>
<g id="a_edge5_Node000001_Node000006"><a xlink:title=" ">
<path fill="none" stroke="#63b8ff" d="M359.38,-110.2C359.38,-102.96 359.38,-94.09 359.38,-86.19"/>
<polygon fill="#63b8ff" stroke="#63b8ff" points="362.88,-86.46 359.38,-76.46 355.88,-86.46 362.88,-86.46"/>
</a>
</g>
</g>
<!-- Node7 -->
<g id="Node000007" class="node">
<title>Node7</title>
<g id="a_Node000007"><a xlink:title=" ">
<polygon fill="#e0e0e0" stroke="#999999" points="456.12,-74.5 402.62,-74.5 402.62,-55.25 456.12,-55.25 456.12,-74.5"/>
<text text-anchor="middle" x="429.38" y="-61" font-family="Helvetica,sans-Serif" font-size="10.00">iostream</text>
</a>
</g>
</g>
<!-- Node1&#45;&gt;Node7 -->
<g id="edge6_Node000001_Node000007" class="edge">
<title>Node1&#45;&gt;Node7</title>
<g id="a_edge6_Node000001_Node000007"><a xlink:title=" ">
<path fill="none" stroke="#63b8ff" d="M376.68,-110.2C386.72,-101.75 399.4,-91.08 409.81,-82.33"/>
<polygon fill="#63b8ff" stroke="#63b8ff" points="412.03,-85.04 417.43,-75.93 407.52,-79.68 412.03,-85.04"/>
</a>
</g>
</g>
<!-- Node8 -->
<g id="Node000008" class="node">
<title>Node8</title>
<g id="a_Node000008"><a xlink:title=" ">
<polygon fill="#e0e0e0" stroke="#999999" points="525,-74.5 473.75,-74.5 473.75,-55.25 525,-55.25 525,-74.5"/>
<text text-anchor="middle" x="499.38" y="-61" font-family="Helvetica,sans-Serif" font-size="10.00">sstream</text>
</a>
</g>
</g>
<!-- Node1&#45;&gt;Node8 -->
<g id="edge7_Node000001_Node000008" class="edge">
<title>Node1&#45;&gt;Node8</title>
<g id="a_edge7_Node000001_Node000008"><a xlink:title=" ">
<path fill="none" stroke="#63b8ff" d="M394.34,-110.05C416.79,-100.6 445.71,-88.44 467.52,-79.27"/>
<polygon fill="#63b8ff" stroke="#63b8ff" points="468.65,-82.59 476.51,-75.49 465.93,-76.14 468.65,-82.59"/>
</a>
</g>
</g>
<!-- Node9 -->
<g id="Node000009" class="node">
<title>Node9</title>
<g id="a_Node000009"><a xlink:title=" ">
<polygon fill="#e0e0e0" stroke="#999999" points="595.75,-74.5 543,-74.5 543,-55.25 595.75,-55.25 595.75,-74.5"/>
<text text-anchor="middle" x="569.38" y="-61" font-family="Helvetica,sans-Serif" font-size="10.00">strings.h</text>
</a>
</g>
</g>
<!-- Node1&#45;&gt;Node9 -->
<g id="edge8_Node000001_Node000009" class="edge">
<title>Node1&#45;&gt;Node9</title>
<g id="a_edge8_Node000001_Node000009"><a xlink:title=" ">
<path fill="none" stroke="#63b8ff" d="M411.83,-110.05C449.15,-99.58 498.42,-85.77 531.85,-76.39"/>
<polygon fill="#63b8ff" stroke="#63b8ff" points="532.4,-79.88 541.09,-73.81 530.51,-73.14 532.4,-79.88"/>
</a>
</g>
</g>
<!-- Node10 -->
<g id="Node000010" class="node">
<title>Node10</title>
<g id="a_Node000010"><a xlink:href="Host_8hpp.html" target="_top" xlink:title=" ">
<polygon fill="white" stroke="#666666" points="719,-74.5 613.75,-74.5 613.75,-55.25 719,-55.25 719,-74.5"/>
<text text-anchor="middle" x="666.38" y="-61" font-family="Helvetica,sans-Serif" font-size="10.00">okssystem/Host.hpp</text>
</a>
</g>
</g>
<!-- Node1&#45;&gt;Node10 -->
<g id="edge9_Node000001_Node000010" class="edge">
<title>Node1&#45;&gt;Node10</title>
<g id="a_edge9_Node000001_Node000010"><a xlink:title=" ">
<path fill="none" stroke="#63b8ff" d="M417.84,-113.54C472.41,-103.07 553.41,-87.54 607.96,-77.08"/>
<polygon fill="#63b8ff" stroke="#63b8ff" points="608.54,-80.53 617.7,-75.21 607.22,-73.66 608.54,-80.53"/>
</a>
</g>
</g>
<!-- Node11 -->
<g id="Node000011" class="node">
<title>Node11</title>
<g id="a_Node000011"><a xlink:title=" ">
<polygon fill="#e0e0e0" stroke="#999999" points="583,-19.25 519.75,-19.25 519.75,0 583,0 583,-19.25"/>
<text text-anchor="middle" x="551.38" y="-5.75" font-family="Helvetica,sans-Serif" font-size="10.00">netinet/in.h</text>
</a>
</g>
</g>
<!-- Node10&#45;&gt;Node11 -->
<g id="edge10_Node000010_Node000011" class="edge">
<title>Node10&#45;&gt;Node11</title>
<g id="a_edge10_Node000010_Node000011"><a xlink:title=" ">
<path fill="none" stroke="#63b8ff" d="M646.87,-54.84C628.86,-46.5 601.85,-34 581.15,-24.41"/>
<polygon fill="#63b8ff" stroke="#63b8ff" points="582.9,-21.36 572.35,-20.34 579.96,-27.72 582.9,-21.36"/>
</a>
</g>
</g>
<!-- Node12 -->
<g id="Node000012" class="node">
<title>Node12</title>
<g id="a_Node000012"><a xlink:title=" ">
<polygon fill="#e0e0e0" stroke="#999999" points="661.88,-19.25 600.88,-19.25 600.88,0 661.88,0 661.88,-19.25"/>
<text text-anchor="middle" x="631.38" y="-5.75" font-family="Helvetica,sans-Serif" font-size="10.00">arpa/inet.h</text>
</a>
</g>
</g>
<!-- Node10&#45;&gt;Node12 -->
<g id="edge11_Node000010_Node000012" class="edge">
<title>Node10&#45;&gt;Node12</title>
<g id="a_edge11_Node000010_Node000012"><a xlink:title=" ">
<path fill="none" stroke="#63b8ff" d="M660.6,-55.08C655.96,-48.03 649.3,-37.9 643.51,-29.08"/>
<polygon fill="#63b8ff" stroke="#63b8ff" points="646.53,-27.31 638.11,-20.87 640.68,-31.15 646.53,-27.31"/>
</a>
</g>
</g>
<!-- Node13 -->
<g id="Node000013" class="node">
<title>Node13</title>
<g id="a_Node000013"><a xlink:title=" ">
<polygon fill="#e0e0e0" stroke="#999999" points="720.38,-19.25 680.38,-19.25 680.38,0 720.38,0 720.38,-19.25"/>
<text text-anchor="middle" x="700.38" y="-5.75" font-family="Helvetica,sans-Serif" font-size="10.00">string</text>
</a>
</g>
</g>
<!-- Node10&#45;&gt;Node13 -->
<g id="edge12_Node000010_Node000013" class="edge">
<title>Node10&#45;&gt;Node13</title>
<g id="a_edge12_Node000010_Node000013"><a xlink:title=" ">
<path fill="none" stroke="#63b8ff" d="M671.99,-55.08C676.49,-48.03 682.96,-37.9 688.59,-29.08"/>
<polygon fill="#63b8ff" stroke="#63b8ff" points="691.39,-31.2 693.82,-20.88 685.49,-27.43 691.39,-31.2"/>
</a>
</g>
</g>
<!-- Node14 -->
<g id="Node000014" class="node">
<title>Node14</title>
<g id="a_Node000014"><a xlink:title=" ">
<polygon fill="#e0e0e0" stroke="#999999" points="781.88,-19.25 738.88,-19.25 738.88,0 781.88,0 781.88,-19.25"/>
<text text-anchor="middle" x="760.38" y="-5.75" font-family="Helvetica,sans-Serif" font-size="10.00">vector</text>
</a>
</g>
</g>
<!-- Node10&#45;&gt;Node14 -->
<g id="edge13_Node000010_Node000014" class="edge">
<title>Node10&#45;&gt;Node14</title>
<g id="a_edge13_Node000010_Node000014"><a xlink:title=" ">
<path fill="none" stroke="#63b8ff" d="M682.32,-54.84C696.64,-46.73 717.91,-34.68 734.63,-25.21"/>
<polygon fill="#63b8ff" stroke="#63b8ff" points="736.06,-28.42 743.03,-20.45 732.61,-22.33 736.06,-28.42"/>
</a>
</g>
</g>
</g>
</svg>
