<?xml version="1.0" encoding="UTF-8" standalone="no"?>
<!DOCTYPE svg PUBLIC "-//W3C//DTD SVG 1.1//EN"
 "http://www.w3.org/Graphics/SVG/1.1/DTD/svg11.dtd">
<!-- Generated by graphviz version 9.0.0 (20230911.1827)
 -->
<!-- Title: sourcecode/detdataformats/pybindsrc/hsi.cpp Pages: 1 -->
<svg width="369pt" height="149pt"
 viewBox="0.00 0.00 369.25 149.00" xmlns="http://www.w3.org/2000/svg" xmlns:xlink="http://www.w3.org/1999/xlink">
<g id="graph0" class="graph" transform="scale(1 1) rotate(0) translate(4 145)">
<title>sourcecode/detdataformats/pybindsrc/hsi.cpp</title>
<!-- Node1 -->
<g id="Node000001" class="node">
<title>Node1</title>
<g id="a_Node000001"><a xlink:title=" ">
<polygon fill="#999999" stroke="#666666" points="283.88,-141 149.38,-141 149.38,-110.5 283.88,-110.5 283.88,-141"/>
<text text-anchor="start" x="157.38" y="-127.5" font-family="Helvetica,sans-Serif" font-size="10.00">sourcecode/detdataformats</text>
<text text-anchor="middle" x="216.62" y="-116.25" font-family="Helvetica,sans-Serif" font-size="10.00">/pybindsrc/hsi.cpp</text>
</a>
</g>
</g>
<!-- Node2 -->
<g id="Node000002" class="node">
<title>Node2</title>
<g id="a_Node000002"><a xlink:href="HSIFrame_8hpp.html" target="_top" xlink:title=" ">
<polygon fill="white" stroke="#666666" points="147.25,-74.5 0,-74.5 0,-55.25 147.25,-55.25 147.25,-74.5"/>
<text text-anchor="middle" x="73.62" y="-61" font-family="Helvetica,sans-Serif" font-size="10.00">detdataformats/HSIFrame.hpp</text>
</a>
</g>
</g>
<!-- Node1&#45;&gt;Node2 -->
<g id="edge1_Node000001_Node000002" class="edge">
<title>Node1&#45;&gt;Node2</title>
<g id="a_edge1_Node000001_Node000002"><a xlink:title=" ">
<path fill="none" stroke="#63b8ff" d="M180.91,-110.05C157.98,-100.6 128.44,-88.44 106.16,-79.27"/>
<polygon fill="#63b8ff" stroke="#63b8ff" points="107.53,-76.05 96.95,-75.48 104.87,-82.52 107.53,-76.05"/>
</a>
</g>
</g>
<!-- Node4 -->
<g id="Node000004" class="node">
<title>Node4</title>
<g id="a_Node000004"><a xlink:title=" ">
<polygon fill="#e0e0e0" stroke="#999999" points="268.12,-74.5 165.12,-74.5 165.12,-55.25 268.12,-55.25 268.12,-74.5"/>
<text text-anchor="middle" x="216.62" y="-61" font-family="Helvetica,sans-Serif" font-size="10.00">pybind11/pybind11.h</text>
</a>
</g>
</g>
<!-- Node1&#45;&gt;Node4 -->
<g id="edge3_Node000001_Node000004" class="edge">
<title>Node1&#45;&gt;Node4</title>
<g id="a_edge3_Node000001_Node000004"><a xlink:title=" ">
<path fill="none" stroke="#63b8ff" d="M216.62,-110.2C216.62,-102.96 216.62,-94.09 216.62,-86.19"/>
<polygon fill="#63b8ff" stroke="#63b8ff" points="220.13,-86.46 216.63,-76.46 213.13,-86.46 220.13,-86.46"/>
</a>
</g>
</g>
<!-- Node5 -->
<g id="Node000005" class="node">
<title>Node5</title>
<g id="a_Node000005"><a xlink:title=" ">
<polygon fill="#e0e0e0" stroke="#999999" points="361.25,-74.5 286,-74.5 286,-55.25 361.25,-55.25 361.25,-74.5"/>
<text text-anchor="middle" x="323.62" y="-61" font-family="Helvetica,sans-Serif" font-size="10.00">pybind11/stl.h</text>
</a>
</g>
</g>
<!-- Node1&#45;&gt;Node5 -->
<g id="edge4_Node000001_Node000005" class="edge">
<title>Node1&#45;&gt;Node5</title>
<g id="a_edge4_Node000001_Node000005"><a xlink:title=" ">
<path fill="none" stroke="#63b8ff" d="M243.35,-110.05C259.8,-100.99 280.8,-89.44 297.2,-80.41"/>
<polygon fill="#63b8ff" stroke="#63b8ff" points="298.82,-83.52 305.89,-75.63 295.44,-77.39 298.82,-83.52"/>
</a>
</g>
</g>
<!-- Node3 -->
<g id="Node000003" class="node">
<title>Node3</title>
<g id="a_Node000003"><a xlink:title=" ">
<polygon fill="#e0e0e0" stroke="#999999" points="96.25,-19.25 51,-19.25 51,0 96.25,0 96.25,-19.25"/>
<text text-anchor="middle" x="73.62" y="-5.75" font-family="Helvetica,sans-Serif" font-size="10.00">cstdint</text>
</a>
</g>
</g>
<!-- Node2&#45;&gt;Node3 -->
<g id="edge2_Node000002_Node000003" class="edge">
<title>Node2&#45;&gt;Node3</title>
<g id="a_edge2_Node000002_Node000003"><a xlink:title=" ">
<path fill="none" stroke="#63b8ff" d="M73.62,-55.08C73.62,-48.57 73.62,-39.42 73.62,-31.12"/>
<polygon fill="#63b8ff" stroke="#63b8ff" points="77.13,-31.12 73.63,-21.12 70.13,-31.12 77.13,-31.12"/>
</a>
</g>
</g>
</g>
</svg>
