<?xml version="1.0" encoding="UTF-8" standalone="no"?>
<!DOCTYPE svg PUBLIC "-//W3C//DTD SVG 1.1//EN"
 "http://www.w3.org/Graphics/SVG/1.1/DTD/svg11.dtd">
<!-- Generated by graphviz version 9.0.0 (20230911.1827)
 -->
<!-- Title: sourcecode/dfmessages/include/dfmessages/HSIEvent.hpp Pages: 1 -->
<svg width="688pt" height="183pt"
 viewBox="0.00 0.00 688.25 182.75" xmlns="http://www.w3.org/2000/svg" xmlns:xlink="http://www.w3.org/1999/xlink">
<g id="graph0" class="graph" transform="scale(1 1) rotate(0) translate(4 178.75)">
<title>sourcecode/dfmessages/include/dfmessages/HSIEvent.hpp</title>
<!-- Node1 -->
<g id="Node000001" class="node">
<title>Node1</title>
<g id="a_Node000001"><a xlink:title=" ">
<polygon fill="#999999" stroke="#666666" points="445.62,-174.75 276.62,-174.75 276.62,-144.25 445.62,-144.25 445.62,-174.75"/>
<text text-anchor="start" x="284.62" y="-161.25" font-family="Helvetica,sans-Serif" font-size="10.00">sourcecode/dfmessages</text>
<text text-anchor="middle" x="361.12" y="-150" font-family="Helvetica,sans-Serif" font-size="10.00">/include/dfmessages/HSIEvent.hpp</text>
</a>
</g>
</g>
<!-- Node2 -->
<g id="Node000002" class="node">
<title>Node2</title>
<g id="a_Node000002"><a xlink:href="HSIEventSender_8hpp.html" target="_top" xlink:title=" ">
<polygon fill="white" stroke="#666666" points="174.25,-102.62 0,-102.62 0,-72.12 174.25,-72.12 174.25,-102.62"/>
<text text-anchor="start" x="8" y="-89.12" font-family="Helvetica,sans-Serif" font-size="10.00">sourcecode/hsilibs</text>
<text text-anchor="middle" x="87.12" y="-77.88" font-family="Helvetica,sans-Serif" font-size="10.00">/include/hsilibs/HSIEventSender.hpp</text>
</a>
</g>
</g>
<!-- Node1&#45;&gt;Node2 -->
<g id="edge1_Node000001_Node000002" class="edge">
<title>Node1&#45;&gt;Node2</title>
<g id="a_edge1_Node000001_Node000002"><a xlink:title=" ">
<path fill="none" stroke="#63b8ff" d="M292.69,-140.98C247.02,-129.3 187.67,-114.11 144.49,-103.06"/>
<polygon fill="#63b8ff" stroke="#63b8ff" points="291.66,-144.34 302.22,-143.42 293.4,-137.55 291.66,-144.34"/>
</a>
</g>
</g>
<!-- Node4 -->
<g id="Node000004" class="node">
<title>Node4</title>
<g id="a_Node000004"><a xlink:href="HSISourceModel_8hpp.html" target="_top" xlink:title=" ">
<polygon fill="white" stroke="#666666" points="350,-102.62 192.25,-102.62 192.25,-72.12 350,-72.12 350,-102.62"/>
<text text-anchor="start" x="200.25" y="-89.12" font-family="Helvetica,sans-Serif" font-size="10.00">sourcecode/trigger</text>
<text text-anchor="middle" x="271.12" y="-77.88" font-family="Helvetica,sans-Serif" font-size="10.00">/src/trigger/HSISourceModel.hpp</text>
</a>
</g>
</g>
<!-- Node1&#45;&gt;Node4 -->
<g id="edge3_Node000001_Node000004" class="edge">
<title>Node1&#45;&gt;Node4</title>
<g id="a_edge3_Node000001_Node000004"><a xlink:title=" ">
<path fill="none" stroke="#63b8ff" d="M333.61,-137.06C319.39,-125.98 302.41,-112.75 289.75,-102.89"/>
<polygon fill="#63b8ff" stroke="#63b8ff" points="331.24,-139.65 341.28,-143.04 335.55,-134.13 331.24,-139.65"/>
</a>
</g>
</g>
<!-- Node5 -->
<g id="Node000005" class="node">
<title>Node5</title>
<g id="a_Node000005"><a xlink:href="TPSetSourceModel_8hpp.html" target="_top" xlink:title=" ">
<polygon fill="white" stroke="#666666" points="536.25,-102.62 368,-102.62 368,-72.12 536.25,-72.12 536.25,-102.62"/>
<text text-anchor="start" x="376" y="-89.12" font-family="Helvetica,sans-Serif" font-size="10.00">sourcecode/trigger</text>
<text text-anchor="middle" x="452.12" y="-77.88" font-family="Helvetica,sans-Serif" font-size="10.00">/src/trigger/TPSetSourceModel.hpp</text>
</a>
</g>
</g>
<!-- Node1&#45;&gt;Node5 -->
<g id="edge4_Node000001_Node000005" class="edge">
<title>Node1&#45;&gt;Node5</title>
<g id="a_edge4_Node000001_Node000005"><a xlink:title=" ">
<path fill="none" stroke="#63b8ff" d="M388.95,-137.06C403.33,-125.98 420.49,-112.75 433.29,-102.89"/>
<polygon fill="#63b8ff" stroke="#63b8ff" points="386.96,-134.17 381.18,-143.05 391.24,-139.71 386.96,-134.17"/>
</a>
</g>
</g>
<!-- Node6 -->
<g id="Node000006" class="node">
<title>Node6</title>
<g id="a_Node000006"><a xlink:href="TriggerSourceModel_8hpp.html" target="_top" xlink:title=" ">
<polygon fill="white" stroke="#666666" points="680.25,-108.25 554,-108.25 554,-66.5 680.25,-66.5 680.25,-108.25"/>
<text text-anchor="start" x="562" y="-94.75" font-family="Helvetica,sans-Serif" font-size="10.00">sourcecode/trigger</text>
<text text-anchor="start" x="562" y="-83.5" font-family="Helvetica,sans-Serif" font-size="10.00">/src/trigger/TriggerSource</text>
<text text-anchor="middle" x="617.12" y="-72.25" font-family="Helvetica,sans-Serif" font-size="10.00">Model.hpp</text>
</a>
</g>
</g>
<!-- Node1&#45;&gt;Node6 -->
<g id="edge5_Node000001_Node000006" class="edge">
<title>Node1&#45;&gt;Node6</title>
<g id="a_edge5_Node000001_Node000006"><a xlink:title=" ">
<path fill="none" stroke="#63b8ff" d="M426.18,-140.78C461.39,-131.18 505.65,-119.09 545.12,-108.25 547.88,-107.49 550.69,-106.72 553.52,-105.94"/>
<polygon fill="#63b8ff" stroke="#63b8ff" points="425.27,-137.4 416.54,-143.41 427.11,-144.15 425.27,-137.4"/>
</a>
</g>
</g>
<!-- Node3 -->
<g id="Node000003" class="node">
<title>Node3</title>
<g id="a_Node000003"><a xlink:href="HSIEventSender_8cpp.html" target="_top" xlink:title=" ">
<polygon fill="white" stroke="#666666" points="150.25,-30.5 24,-30.5 24,0 150.25,0 150.25,-30.5"/>
<text text-anchor="start" x="32" y="-17" font-family="Helvetica,sans-Serif" font-size="10.00">sourcecode/hsilibs</text>
<text text-anchor="middle" x="87.12" y="-5.75" font-family="Helvetica,sans-Serif" font-size="10.00">/src/HSIEventSender.cpp</text>
</a>
</g>
</g>
<!-- Node2&#45;&gt;Node3 -->
<g id="edge2_Node000002_Node000003" class="edge">
<title>Node2&#45;&gt;Node3</title>
<g id="a_edge2_Node000002_Node000003"><a xlink:title=" ">
<path fill="none" stroke="#63b8ff" d="M87.12,-60.4C87.12,-50.39 87.12,-39.31 87.12,-30.76"/>
<polygon fill="#63b8ff" stroke="#63b8ff" points="83.63,-60.33 87.13,-70.33 90.63,-60.33 83.63,-60.33"/>
</a>
</g>
</g>
</g>
</svg>
