<?xml version="1.0" encoding="UTF-8" standalone="no"?>
<!DOCTYPE svg PUBLIC "-//W3C//DTD SVG 1.1//EN"
 "http://www.w3.org/Graphics/SVG/1.1/DTD/svg11.dtd">
<!-- Generated by graphviz version 9.0.0 (20230911.1827)
 -->
<!-- Title: sourcecode/hsilibs/include/hsilibs/Types.hpp Pages: 1 -->
<svg width="381pt" height="172pt"
 viewBox="0.00 0.00 380.50 171.50" xmlns="http://www.w3.org/2000/svg" xmlns:xlink="http://www.w3.org/1999/xlink">
<g id="graph0" class="graph" transform="scale(1 1) rotate(0) translate(4 167.5)">
<title>sourcecode/hsilibs/include/hsilibs/Types.hpp</title>
<!-- Node1 -->
<g id="Node000001" class="node">
<title>Node1</title>
<g id="a_Node000001"><a xlink:title=" ">
<polygon fill="#999999" stroke="#666666" points="266,-163.5 138.25,-163.5 138.25,-133 266,-133 266,-163.5"/>
<text text-anchor="start" x="146.25" y="-150" font-family="Helvetica,sans-Serif" font-size="10.00">sourcecode/hsilibs</text>
<text text-anchor="middle" x="202.12" y="-138.75" font-family="Helvetica,sans-Serif" font-size="10.00">/include/hsilibs/Types.hpp</text>
</a>
</g>
</g>
<!-- Node2 -->
<g id="Node000002" class="node">
<title>Node2</title>
<g id="a_Node000002"><a xlink:href="HSIEventSender_8hpp.html" target="_top" xlink:title=" ">
<polygon fill="white" stroke="#666666" points="174.25,-97 0,-97 0,-66.5 174.25,-66.5 174.25,-97"/>
<text text-anchor="start" x="8" y="-83.5" font-family="Helvetica,sans-Serif" font-size="10.00">sourcecode/hsilibs</text>
<text text-anchor="middle" x="87.12" y="-72.25" font-family="Helvetica,sans-Serif" font-size="10.00">/include/hsilibs/HSIEventSender.hpp</text>
</a>
</g>
</g>
<!-- Node1&#45;&gt;Node2 -->
<g id="edge1_Node000001_Node000002" class="edge">
<title>Node1&#45;&gt;Node2</title>
<g id="a_edge1_Node000001_Node000002"><a xlink:title=" ">
<path fill="none" stroke="#63b8ff" d="M166.3,-127.16C149.08,-117.5 128.83,-106.14 113.12,-97.33"/>
<polygon fill="#63b8ff" stroke="#63b8ff" points="164.28,-130.03 174.71,-131.87 167.7,-123.93 164.28,-130.03"/>
</a>
</g>
</g>
<!-- Node4 -->
<g id="Node000004" class="node">
<title>Node4</title>
<g id="a_Node000004"><a xlink:href="HSIFrameProcessor_8cpp.html" target="_top" xlink:title=" ">
<polygon fill="white" stroke="#666666" points="341.5,-30.5 198.75,-30.5 198.75,0 341.5,0 341.5,-30.5"/>
<text text-anchor="start" x="206.75" y="-17" font-family="Helvetica,sans-Serif" font-size="10.00">sourcecode/hsilibs</text>
<text text-anchor="middle" x="270.12" y="-5.75" font-family="Helvetica,sans-Serif" font-size="10.00">/src/HSIFrameProcessor.cpp</text>
</a>
</g>
</g>
<!-- Node1&#45;&gt;Node4 -->
<g id="edge3_Node000001_Node000004" class="edge">
<title>Node1&#45;&gt;Node4</title>
<g id="a_edge3_Node000001_Node000004"><a xlink:title=" ">
<path fill="none" stroke="#63b8ff" d="M204.57,-121.68C206.99,-105.13 211.76,-83.57 221.12,-66.5 228.75,-52.61 241.26,-39.87 251.74,-30.69"/>
<polygon fill="#63b8ff" stroke="#63b8ff" points="201.14,-120.85 203.38,-131.2 208.09,-121.71 201.14,-120.85"/>
</a>
</g>
</g>
<!-- Node5 -->
<g id="Node000005" class="node">
<title>Node5</title>
<g id="a_Node000005"><a xlink:href="HSIFrameProcessor_8hpp.html" target="_top" xlink:title=" ">
<polygon fill="white" stroke="#666666" points="372.5,-97 229.75,-97 229.75,-66.5 372.5,-66.5 372.5,-97"/>
<text text-anchor="start" x="237.75" y="-83.5" font-family="Helvetica,sans-Serif" font-size="10.00">sourcecode/hsilibs</text>
<text text-anchor="middle" x="301.12" y="-72.25" font-family="Helvetica,sans-Serif" font-size="10.00">/src/HSIFrameProcessor.hpp</text>
</a>
</g>
</g>
<!-- Node1&#45;&gt;Node5 -->
<g id="edge4_Node000001_Node000005" class="edge">
<title>Node1&#45;&gt;Node5</title>
<g id="a_edge4_Node000001_Node000005"><a xlink:title=" ">
<path fill="none" stroke="#63b8ff" d="M234.22,-126.34C248.76,-116.87 265.6,-105.89 278.75,-97.33"/>
<polygon fill="#63b8ff" stroke="#63b8ff" points="232.33,-123.4 225.86,-131.79 236.15,-129.26 232.33,-123.4"/>
</a>
</g>
</g>
<!-- Node3 -->
<g id="Node000003" class="node">
<title>Node3</title>
<g id="a_Node000003"><a xlink:href="HSIEventSender_8cpp.html" target="_top" xlink:title=" ">
<polygon fill="white" stroke="#666666" points="150.25,-30.5 24,-30.5 24,0 150.25,0 150.25,-30.5"/>
<text text-anchor="start" x="32" y="-17" font-family="Helvetica,sans-Serif" font-size="10.00">sourcecode/hsilibs</text>
<text text-anchor="middle" x="87.12" y="-5.75" font-family="Helvetica,sans-Serif" font-size="10.00">/src/HSIEventSender.cpp</text>
</a>
</g>
</g>
<!-- Node2&#45;&gt;Node3 -->
<g id="edge2_Node000002_Node000003" class="edge">
<title>Node2&#45;&gt;Node3</title>
<g id="a_edge2_Node000002_Node000003"><a xlink:title=" ">
<path fill="none" stroke="#63b8ff" d="M87.12,-54.81C87.12,-46.64 87.12,-37.91 87.12,-30.83"/>
<polygon fill="#63b8ff" stroke="#63b8ff" points="83.63,-54.6 87.13,-64.6 90.63,-54.6 83.63,-54.6"/>
</a>
</g>
</g>
<!-- Node5&#45;&gt;Node4 -->
<g id="edge5_Node000005_Node000004" class="edge">
<title>Node5&#45;&gt;Node4</title>
<g id="a_edge5_Node000005_Node000004"><a xlink:title=" ">
<path fill="none" stroke="#63b8ff" d="M289.2,-55.94C285.12,-47.46 280.69,-38.24 277.13,-30.83"/>
<polygon fill="#63b8ff" stroke="#63b8ff" points="285.95,-57.25 293.43,-64.75 292.26,-54.22 285.95,-57.25"/>
</a>
</g>
</g>
</g>
</svg>
