<?xml version="1.0" encoding="UTF-8" standalone="no"?>
<!DOCTYPE svg PUBLIC "-//W3C//DTD SVG 1.1//EN"
 "http://www.w3.org/Graphics/SVG/1.1/DTD/svg11.dtd">
<!-- Generated by graphviz version 9.0.0 (20230911.1827)
 -->
<!-- Title: sourcecode/timing/include/timing/HSINode.hpp Pages: 1 -->
<svg width="775pt" height="238pt"
 viewBox="0.00 0.00 775.38 238.00" xmlns="http://www.w3.org/2000/svg" xmlns:xlink="http://www.w3.org/1999/xlink">
<g id="graph0" class="graph" transform="scale(1 1) rotate(0) translate(4 234)">
<title>sourcecode/timing/include/timing/HSINode.hpp</title>
<!-- Node1 -->
<g id="Node000001" class="node">
<title>Node1</title>
<g id="a_Node000001"><a xlink:title=" ">
<polygon fill="#999999" stroke="#666666" points="478.25,-230 349,-230 349,-199.5 478.25,-199.5 478.25,-230"/>
<text text-anchor="start" x="357" y="-216.5" font-family="Helvetica,sans-Serif" font-size="10.00">sourcecode/timing/include</text>
<text text-anchor="middle" x="413.62" y="-205.25" font-family="Helvetica,sans-Serif" font-size="10.00">/timing/HSINode.hpp</text>
</a>
</g>
</g>
<!-- Node2 -->
<g id="Node000002" class="node">
<title>Node2</title>
<g id="a_Node000002"><a xlink:href="BoreasDesign_8hpp.html" target="_top" xlink:title=" ">
<polygon fill="white" stroke="#666666" points="129.25,-97 0,-97 0,-66.5 129.25,-66.5 129.25,-97"/>
<text text-anchor="start" x="8" y="-83.5" font-family="Helvetica,sans-Serif" font-size="10.00">sourcecode/timing/include</text>
<text text-anchor="middle" x="64.62" y="-72.25" font-family="Helvetica,sans-Serif" font-size="10.00">/timing/BoreasDesign.hpp</text>
</a>
</g>
</g>
<!-- Node1&#45;&gt;Node2 -->
<g id="edge1_Node000001_Node000002" class="edge">
<title>Node1&#45;&gt;Node2</title>
<g id="a_edge1_Node000001_Node000002"><a xlink:title=" ">
<path fill="none" stroke="#63b8ff" d="M337.37,-206.11C289.12,-199.27 226.32,-186.6 174.62,-163.5 137.21,-146.78 100.13,-115.78 80.02,-97.44"/>
<polygon fill="#63b8ff" stroke="#63b8ff" points="336.8,-209.57 347.18,-207.44 337.74,-202.63 336.8,-209.57"/>
</a>
</g>
</g>
<!-- Node5 -->
<g id="Node000005" class="node">
<title>Node5</title>
<g id="a_Node000005"><a xlink:href="ChronosDesign_8hpp.html" target="_top" xlink:title=" ">
<polygon fill="white" stroke="#666666" points="459.75,-97 327.5,-97 327.5,-66.5 459.75,-66.5 459.75,-97"/>
<text text-anchor="start" x="335.5" y="-83.5" font-family="Helvetica,sans-Serif" font-size="10.00">sourcecode/timing/include</text>
<text text-anchor="middle" x="393.62" y="-72.25" font-family="Helvetica,sans-Serif" font-size="10.00">/timing/ChronosDesign.hpp</text>
</a>
</g>
</g>
<!-- Node1&#45;&gt;Node5 -->
<g id="edge4_Node000001_Node000005" class="edge">
<title>Node1&#45;&gt;Node5</title>
<g id="a_edge4_Node000001_Node000005"><a xlink:title=" ">
<path fill="none" stroke="#63b8ff" d="M409.68,-187.93C405.55,-160.84 399.19,-119.21 395.85,-97.33"/>
<polygon fill="#63b8ff" stroke="#63b8ff" points="406.21,-188.38 411.18,-197.73 413.13,-187.32 406.21,-188.38"/>
</a>
</g>
</g>
<!-- Node7 -->
<g id="Node000007" class="node">
<title>Node7</title>
<g id="a_Node000007"><a xlink:href="HSIDesignInterface_8hpp.html" target="_top" xlink:title=" ">
<polygon fill="white" stroke="#666666" points="335.5,-163.5 183.75,-163.5 183.75,-133 335.5,-133 335.5,-163.5"/>
<text text-anchor="start" x="191.75" y="-150" font-family="Helvetica,sans-Serif" font-size="10.00">sourcecode/timing/include</text>
<text text-anchor="middle" x="259.62" y="-138.75" font-family="Helvetica,sans-Serif" font-size="10.00">/timing/HSIDesignInterface.hpp</text>
</a>
</g>
</g>
<!-- Node1&#45;&gt;Node7 -->
<g id="edge7_Node000001_Node000007" class="edge">
<title>Node1&#45;&gt;Node7</title>
<g id="a_edge7_Node000001_Node000007"><a xlink:title=" ">
<path fill="none" stroke="#63b8ff" d="M368.26,-194.75C344.76,-184.91 316.5,-173.07 294.7,-163.94"/>
<polygon fill="#63b8ff" stroke="#63b8ff" points="366.71,-197.89 377.28,-198.53 369.41,-191.44 366.71,-197.89"/>
</a>
</g>
</g>
<!-- Node10 -->
<g id="Node000010" class="node">
<title>Node10</title>
<g id="a_Node000010"><a xlink:href="PDIHSIEndpointNode_8hpp.html" target="_top" xlink:title=" ">
<polygon fill="white" stroke="#666666" points="627,-163.5 466.25,-163.5 466.25,-133 627,-133 627,-163.5"/>
<text text-anchor="start" x="474.25" y="-150" font-family="Helvetica,sans-Serif" font-size="10.00">sourcecode/timing/include</text>
<text text-anchor="middle" x="546.62" y="-138.75" font-family="Helvetica,sans-Serif" font-size="10.00">/timing/PDIHSIEndpointNode.hpp</text>
</a>
</g>
</g>
<!-- Node1&#45;&gt;Node10 -->
<g id="edge12_Node000001_Node000010" class="edge">
<title>Node1&#45;&gt;Node10</title>
<g id="a_edge12_Node000001_Node000010"><a xlink:title=" ">
<path fill="none" stroke="#63b8ff" d="M453.94,-194.2C474.09,-184.43 498.05,-172.81 516.56,-163.83"/>
<polygon fill="#63b8ff" stroke="#63b8ff" points="452.64,-190.94 445.17,-198.45 455.69,-197.24 452.64,-190.94"/>
</a>
</g>
</g>
<!-- Node11 -->
<g id="Node000011" class="node">
<title>Node11</title>
<g id="a_Node000011"><a xlink:href="endpoint_8cpp.html" target="_top" xlink:title=" ">
<polygon fill="white" stroke="#666666" points="617.5,-97 477.75,-97 477.75,-66.5 617.5,-66.5 617.5,-97"/>
<text text-anchor="start" x="485.75" y="-83.5" font-family="Helvetica,sans-Serif" font-size="10.00">sourcecode/timing/pybindsrc</text>
<text text-anchor="middle" x="547.62" y="-72.25" font-family="Helvetica,sans-Serif" font-size="10.00">/endpoint.cpp</text>
</a>
</g>
</g>
<!-- Node1&#45;&gt;Node11 -->
<g id="edge15_Node000001_Node000011" class="edge">
<title>Node1&#45;&gt;Node11</title>
<g id="a_edge15_Node000001_Node000011"><a xlink:title=" ">
<path fill="none" stroke="#63b8ff" d="M422.94,-188.62C430.31,-171.37 441.96,-148.82 457.62,-133 472.73,-117.74 493.45,-105.74 511.2,-97.3"/>
<polygon fill="#63b8ff" stroke="#63b8ff" points="419.79,-187.08 419.29,-197.66 426.28,-189.7 419.79,-187.08"/>
</a>
</g>
</g>
<!-- Node13 -->
<g id="Node000013" class="node">
<title>Node13</title>
<g id="a_Node000013"><a xlink:href="HSINode_8cpp.html" target="_top" xlink:title=" ">
<polygon fill="white" stroke="#666666" points="756.62,-163.5 644.62,-163.5 644.62,-133 756.62,-133 756.62,-163.5"/>
<text text-anchor="start" x="652.62" y="-150" font-family="Helvetica,sans-Serif" font-size="10.00">sourcecode/timing/src</text>
<text text-anchor="middle" x="700.62" y="-138.75" font-family="Helvetica,sans-Serif" font-size="10.00">/HSINode.cpp</text>
</a>
</g>
</g>
<!-- Node1&#45;&gt;Node13 -->
<g id="edge16_Node000001_Node000013" class="edge">
<title>Node1&#45;&gt;Node13</title>
<g id="a_edge16_Node000001_Node000013"><a xlink:title=" ">
<path fill="none" stroke="#63b8ff" d="M489.85,-196.62C538.45,-185.7 600.35,-171.79 644.47,-161.87"/>
<polygon fill="#63b8ff" stroke="#63b8ff" points="489.22,-193.17 480.23,-198.78 490.75,-200 489.22,-193.17"/>
</a>
</g>
</g>
<!-- Node3 -->
<g id="Node000003" class="node">
<title>Node3</title>
<g id="a_Node000003"><a xlink:href="top__designs_8cpp.html" target="_top" xlink:title=" ">
<polygon fill="white" stroke="#666666" points="460.5,-30.5 320.75,-30.5 320.75,0 460.5,0 460.5,-30.5"/>
<text text-anchor="start" x="328.75" y="-17" font-family="Helvetica,sans-Serif" font-size="10.00">sourcecode/timing/pybindsrc</text>
<text text-anchor="middle" x="390.62" y="-5.75" font-family="Helvetica,sans-Serif" font-size="10.00">/top_designs.cpp</text>
</a>
</g>
</g>
<!-- Node2&#45;&gt;Node3 -->
<g id="edge2_Node000002_Node000003" class="edge">
<title>Node2&#45;&gt;Node3</title>
<g id="a_edge2_Node000002_Node000003"><a xlink:title=" ">
<path fill="none" stroke="#63b8ff" d="M140.71,-65.7C194.97,-54.96 267.39,-40.63 320.3,-30.16"/>
<polygon fill="#63b8ff" stroke="#63b8ff" points="140.04,-62.26 130.91,-67.64 141.4,-69.13 140.04,-62.26"/>
</a>
</g>
</g>
<!-- Node4 -->
<g id="Node000004" class="node">
<title>Node4</title>
<g id="a_Node000004"><a xlink:href="BoreasDesign_8cpp.html" target="_top" xlink:title=" ">
<polygon fill="white" stroke="#666666" points="120.62,-30.5 8.63,-30.5 8.63,0 120.62,0 120.62,-30.5"/>
<text text-anchor="start" x="16.62" y="-17" font-family="Helvetica,sans-Serif" font-size="10.00">sourcecode/timing/src</text>
<text text-anchor="middle" x="64.62" y="-5.75" font-family="Helvetica,sans-Serif" font-size="10.00">/BoreasDesign.cpp</text>
</a>
</g>
</g>
<!-- Node2&#45;&gt;Node4 -->
<g id="edge3_Node000002_Node000004" class="edge">
<title>Node2&#45;&gt;Node4</title>
<g id="a_edge3_Node000002_Node000004"><a xlink:title=" ">
<path fill="none" stroke="#63b8ff" d="M64.62,-54.81C64.62,-46.64 64.62,-37.91 64.62,-30.83"/>
<polygon fill="#63b8ff" stroke="#63b8ff" points="61.13,-54.6 64.63,-64.6 68.13,-54.6 61.13,-54.6"/>
</a>
</g>
</g>
<!-- Node5&#45;&gt;Node3 -->
<g id="edge5_Node000005_Node000003" class="edge">
<title>Node5&#45;&gt;Node3</title>
<g id="a_edge5_Node000005_Node000003"><a xlink:title=" ">
<path fill="none" stroke="#63b8ff" d="M392.42,-54.81C392.04,-46.64 391.63,-37.91 391.3,-30.83"/>
<polygon fill="#63b8ff" stroke="#63b8ff" points="388.91,-54.78 392.87,-64.6 395.91,-54.45 388.91,-54.78"/>
</a>
</g>
</g>
<!-- Node6 -->
<g id="Node000006" class="node">
<title>Node6</title>
<g id="a_Node000006"><a xlink:href="ChronosDesign_8cpp.html" target="_top" xlink:title=" ">
<polygon fill="white" stroke="#666666" points="590.62,-30.5 478.62,-30.5 478.62,0 590.62,0 590.62,-30.5"/>
<text text-anchor="start" x="486.62" y="-17" font-family="Helvetica,sans-Serif" font-size="10.00">sourcecode/timing/src</text>
<text text-anchor="middle" x="534.62" y="-5.75" font-family="Helvetica,sans-Serif" font-size="10.00">/ChronosDesign.cpp</text>
</a>
</g>
</g>
<!-- Node5&#45;&gt;Node6 -->
<g id="edge6_Node000005_Node000006" class="edge">
<title>Node5&#45;&gt;Node6</title>
<g id="a_edge6_Node000005_Node000006"><a xlink:title=" ">
<path fill="none" stroke="#63b8ff" d="M436.07,-61.33C457.49,-51.53 483.04,-39.85 502.76,-30.83"/>
<polygon fill="#63b8ff" stroke="#63b8ff" points="434.63,-58.14 427,-65.48 437.55,-64.51 434.63,-58.14"/>
</a>
</g>
</g>
<!-- Node7&#45;&gt;Node2 -->
<g id="edge8_Node000007_Node000002" class="edge">
<title>Node7&#45;&gt;Node2</title>
<g id="a_edge8_Node000007_Node000002"><a xlink:title=" ">
<path fill="none" stroke="#63b8ff" d="M204.58,-129.04C174.36,-119.05 137.39,-106.82 109.04,-97.44"/>
<polygon fill="#63b8ff" stroke="#63b8ff" points="203.35,-132.32 213.94,-132.14 205.54,-125.68 203.35,-132.32"/>
</a>
</g>
</g>
<!-- Node7&#45;&gt;Node5 -->
<g id="edge9_Node000007_Node000005" class="edge">
<title>Node7&#45;&gt;Node5</title>
<g id="a_edge9_Node000007_Node000005"><a xlink:title=" ">
<path fill="none" stroke="#63b8ff" d="M300.25,-127.7C320.55,-117.93 344.69,-106.31 363.34,-97.33"/>
<polygon fill="#63b8ff" stroke="#63b8ff" points="298.89,-124.47 291.4,-131.96 301.92,-130.77 298.89,-124.47"/>
</a>
</g>
</g>
<!-- Node8 -->
<g id="Node000008" class="node">
<title>Node8</title>
<g id="a_Node000008"><a xlink:href="TimingHardwareManager_8hpp.html" target="_top" xlink:title=" ">
<polygon fill="white" stroke="#666666" points="309.75,-97 147.5,-97 147.5,-66.5 309.75,-66.5 309.75,-97"/>
<text text-anchor="start" x="155.5" y="-83.5" font-family="Helvetica,sans-Serif" font-size="10.00">sourcecode/timinglibs</text>
<text text-anchor="middle" x="228.62" y="-72.25" font-family="Helvetica,sans-Serif" font-size="10.00">/src/TimingHardwareManager.hpp</text>
</a>
</g>
</g>
<!-- Node7&#45;&gt;Node8 -->
<g id="edge10_Node000007_Node000008" class="edge">
<title>Node7&#45;&gt;Node8</title>
<g id="a_edge10_Node000007_Node000008"><a xlink:title=" ">
<path fill="none" stroke="#63b8ff" d="M247.7,-122.44C243.62,-113.96 239.19,-104.74 235.63,-97.33"/>
<polygon fill="#63b8ff" stroke="#63b8ff" points="244.45,-123.75 251.93,-131.25 250.76,-120.72 244.45,-123.75"/>
</a>
</g>
</g>
<!-- Node9 -->
<g id="Node000009" class="node">
<title>Node9</title>
<g id="a_Node000009"><a xlink:href="TimingHardwareManager_8cpp.html" target="_top" xlink:title=" ">
<polygon fill="white" stroke="#666666" points="302.75,-30.5 140.5,-30.5 140.5,0 302.75,0 302.75,-30.5"/>
<text text-anchor="start" x="148.5" y="-17" font-family="Helvetica,sans-Serif" font-size="10.00">sourcecode/timinglibs</text>
<text text-anchor="middle" x="221.62" y="-5.75" font-family="Helvetica,sans-Serif" font-size="10.00">/src/TimingHardwareManager.cpp</text>
</a>
</g>
</g>
<!-- Node8&#45;&gt;Node9 -->
<g id="edge11_Node000008_Node000009" class="edge">
<title>Node8&#45;&gt;Node9</title>
<g id="a_edge11_Node000008_Node000009"><a xlink:title=" ">
<path fill="none" stroke="#63b8ff" d="M225.81,-54.81C224.92,-46.64 223.98,-37.91 223.21,-30.83"/>
<polygon fill="#63b8ff" stroke="#63b8ff" points="222.31,-55.05 226.87,-64.61 229.27,-54.29 222.31,-55.05"/>
</a>
</g>
</g>
<!-- Node10&#45;&gt;Node11 -->
<g id="edge13_Node000010_Node000011" class="edge">
<title>Node10&#45;&gt;Node11</title>
<g id="a_edge13_Node000010_Node000011"><a xlink:title=" ">
<path fill="none" stroke="#63b8ff" d="M547.03,-121.31C547.15,-113.14 547.29,-104.41 547.4,-97.33"/>
<polygon fill="#63b8ff" stroke="#63b8ff" points="543.53,-121.05 546.88,-131.1 550.53,-121.16 543.53,-121.05"/>
</a>
</g>
</g>
<!-- Node12 -->
<g id="Node000012" class="node">
<title>Node12</title>
<g id="a_Node000012"><a xlink:href="PDIHSIEndpointNode_8cpp.html" target="_top" xlink:title=" ">
<polygon fill="white" stroke="#666666" points="767.38,-97 635.88,-97 635.88,-66.5 767.38,-66.5 767.38,-97"/>
<text text-anchor="start" x="643.88" y="-83.5" font-family="Helvetica,sans-Serif" font-size="10.00">sourcecode/timing/src</text>
<text text-anchor="middle" x="701.62" y="-72.25" font-family="Helvetica,sans-Serif" font-size="10.00">/PDIHSIEndpointNode.cpp</text>
</a>
</g>
</g>
<!-- Node10&#45;&gt;Node12 -->
<g id="edge14_Node000010_Node000012" class="edge">
<title>Node10&#45;&gt;Node12</title>
<g id="a_edge14_Node000010_Node000012"><a xlink:title=" ">
<path fill="none" stroke="#63b8ff" d="M592.29,-128.25C615.94,-118.41 644.38,-106.57 666.32,-97.44"/>
<polygon fill="#63b8ff" stroke="#63b8ff" points="591.08,-124.96 583.19,-132.03 593.77,-131.42 591.08,-124.96"/>
</a>
</g>
</g>
</g>
</svg>
