<?xml version="1.0" encoding="UTF-8" standalone="no"?>
<!DOCTYPE svg PUBLIC "-//W3C//DTD SVG 1.1//EN"
 "http://www.w3.org/Graphics/SVG/1.1/DTD/svg11.dtd">
<!-- Generated by graphviz version 9.0.0 (20230911.1827)
 -->
<!-- Title: sourcecode/timing/include/timing/TimingIssues.hpp Pages: 1 -->
<svg width="1369pt" height="337pt"
 viewBox="0.00 0.00 1369.07 337.25" xmlns="http://www.w3.org/2000/svg" xmlns:xlink="http://www.w3.org/1999/xlink">
<g id="graph0" class="graph" transform="scale(1 1) rotate(0) translate(4 333.25)">
<title>sourcecode/timing/include/timing/TimingIssues.hpp</title>
<!-- Node1 -->
<g id="Node000001" class="node">
<title>Node1</title>
<g id="a_Node000001"><a xlink:title=" ">
<polygon fill="#999999" stroke="#666666" points="265.29,-329.25 136.04,-329.25 136.04,-298.75 265.29,-298.75 265.29,-329.25"/>
<text text-anchor="start" x="144.04" y="-315.75" font-family="Helvetica,sans-Serif" font-size="10.00">sourcecode/timing/include</text>
<text text-anchor="middle" x="200.66" y="-304.5" font-family="Helvetica,sans-Serif" font-size="10.00">/timing/TimingIssues.hpp</text>
</a>
</g>
</g>
<!-- Node2 -->
<g id="Node000002" class="node">
<title>Node2</title>
<g id="a_Node000002"><a xlink:href="Issue_8hpp.html" target="_top" xlink:title=" ">
<polygon fill="white" stroke="#666666" points="484.91,-262.75 410.41,-262.75 410.41,-243.5 484.91,-243.5 484.91,-262.75"/>
<text text-anchor="middle" x="447.66" y="-249.25" font-family="Helvetica,sans-Serif" font-size="10.00">ers/Issue.hpp</text>
</a>
</g>
</g>
<!-- Node1&#45;&gt;Node2 -->
<g id="edge1_Node000001_Node000002" class="edge">
<title>Node1&#45;&gt;Node2</title>
<g id="a_edge1_Node000001_Node000002"><a xlink:title=" ">
<path fill="none" stroke="#63b8ff" d="M262.35,-298.3C304.62,-288.22 359.9,-275.04 399.05,-265.71"/>
<polygon fill="#63b8ff" stroke="#63b8ff" points="399.76,-269.14 408.67,-263.42 398.14,-262.33 399.76,-269.14"/>
</a>
</g>
</g>
<!-- Node7 -->
<g id="Node000007" class="node">
<title>Node7</title>
<g id="a_Node000007"><a xlink:title=" ">
<polygon fill="#e0e0e0" stroke="#999999" points="192.66,-74.5 152.66,-74.5 152.66,-55.25 192.66,-55.25 192.66,-74.5"/>
<text text-anchor="middle" x="172.66" y="-61" font-family="Helvetica,sans-Serif" font-size="10.00">string</text>
</a>
</g>
</g>
<!-- Node1&#45;&gt;Node7 -->
<g id="edge37_Node000001_Node000007" class="edge">
<title>Node1&#45;&gt;Node7</title>
<g id="a_edge37_Node000001_Node000007"><a xlink:title=" ">
<path fill="none" stroke="#63b8ff" d="M141.53,-298.32C96.09,-283.59 36.39,-255.95 7.66,-207.5 -29.7,-144.49 84.4,-95.62 141.8,-75.67"/>
<polygon fill="#63b8ff" stroke="#63b8ff" points="142.67,-79.07 151.03,-72.55 140.43,-72.44 142.67,-79.07"/>
</a>
</g>
</g>
<!-- Node3 -->
<g id="Node000003" class="node">
<title>Node3</title>
<g id="a_Node000003"><a xlink:title=" ">
<polygon fill="#e0e0e0" stroke="#999999" points="958.29,-201.88 913.04,-201.88 913.04,-182.62 958.29,-182.62 958.29,-201.88"/>
<text text-anchor="middle" x="935.66" y="-188.38" font-family="Helvetica,sans-Serif" font-size="10.00">math.h</text>
</a>
</g>
</g>
<!-- Node2&#45;&gt;Node3 -->
<g id="edge2_Node000002_Node000003" class="edge">
<title>Node2&#45;&gt;Node3</title>
<g id="a_edge2_Node000002_Node000003"><a xlink:title=" ">
<path fill="none" stroke="#63b8ff" d="M485.32,-252.48C564.27,-252.36 752.35,-247.47 903.66,-207.5 905.02,-207.14 906.39,-206.73 907.76,-206.28"/>
<polygon fill="#63b8ff" stroke="#63b8ff" points="908.62,-209.71 916.68,-202.83 906.09,-203.18 908.62,-209.71"/>
</a>
</g>
</g>
<!-- Node4 -->
<g id="Node000004" class="node">
<title>Node4</title>
<g id="a_Node000004"><a xlink:title=" ">
<polygon fill="#e0e0e0" stroke="#999999" points="1020.91,-201.88 976.41,-201.88 976.41,-182.62 1020.91,-182.62 1020.91,-201.88"/>
<text text-anchor="middle" x="998.66" y="-188.38" font-family="Helvetica,sans-Serif" font-size="10.00">stdio.h</text>
</a>
</g>
</g>
<!-- Node2&#45;&gt;Node4 -->
<g id="edge3_Node000002_Node000004" class="edge">
<title>Node2&#45;&gt;Node4</title>
<g id="a_edge3_Node000002_Node000004"><a xlink:title=" ">
<path fill="none" stroke="#63b8ff" d="M485.29,-250.58C588.84,-246.05 876.34,-231.62 967.66,-207.5 968.84,-207.19 970.02,-206.84 971.21,-206.45"/>
<polygon fill="#63b8ff" stroke="#63b8ff" points="972.25,-209.81 980.27,-202.89 969.68,-203.29 972.25,-209.81"/>
</a>
</g>
</g>
<!-- Node5 -->
<g id="Node000005" class="node">
<title>Node5</title>
<g id="a_Node000005"><a xlink:title=" ">
<polygon fill="#e0e0e0" stroke="#999999" points="64.41,-201.88 16.91,-201.88 16.91,-182.62 64.41,-182.62 64.41,-201.88"/>
<text text-anchor="middle" x="40.66" y="-188.38" font-family="Helvetica,sans-Serif" font-size="10.00">string.h</text>
</a>
</g>
</g>
<!-- Node2&#45;&gt;Node5 -->
<g id="edge4_Node000002_Node000005" class="edge">
<title>Node2&#45;&gt;Node5</title>
<g id="a_edge4_Node000002_Node000005"><a xlink:title=" ">
<path fill="none" stroke="#63b8ff" d="M409.95,-250.53C342.57,-247.03 197.45,-236.51 78.66,-207.5 76.78,-207.04 74.86,-206.51 72.94,-205.94"/>
<polygon fill="#63b8ff" stroke="#63b8ff" points="74.11,-202.64 63.52,-202.78 71.89,-209.28 74.11,-202.64"/>
</a>
</g>
</g>
<!-- Node6 -->
<g id="Node000006" class="node">
<title>Node6</title>
<g id="a_Node000006"><a xlink:title=" ">
<polygon fill="#e0e0e0" stroke="#999999" points="145.04,-135.38 110.29,-135.38 110.29,-116.12 145.04,-116.12 145.04,-135.38"/>
<text text-anchor="middle" x="127.66" y="-121.88" font-family="Helvetica,sans-Serif" font-size="10.00">map</text>
</a>
</g>
</g>
<!-- Node2&#45;&gt;Node6 -->
<g id="edge5_Node000002_Node000006" class="edge">
<title>Node2&#45;&gt;Node6</title>
<g id="a_edge5_Node000002_Node000006"><a xlink:title=" ">
<path fill="none" stroke="#63b8ff" d="M410.08,-249.42C346.2,-244.24 219.74,-231.25 182.66,-207.5 159.84,-192.87 144.07,-165.04 135.45,-146.18"/>
<polygon fill="#63b8ff" stroke="#63b8ff" points="138.76,-145.01 131.6,-137.2 132.32,-147.77 138.76,-145.01"/>
</a>
</g>
</g>
<!-- Node2&#45;&gt;Node7 -->
<g id="edge6_Node000002_Node000007" class="edge">
<title>Node2&#45;&gt;Node7</title>
<g id="a_edge6_Node000002_Node000007"><a xlink:title=" ">
<path fill="none" stroke="#63b8ff" d="M409.96,-250.1C339.88,-245.76 192.72,-233.73 149.66,-207.5 108.58,-182.48 78.4,-152.6 101.66,-110.5 110.28,-94.91 126.87,-84.03 141.85,-76.92"/>
<polygon fill="#63b8ff" stroke="#63b8ff" points="143.15,-80.17 150.94,-73 140.37,-73.75 143.15,-80.17"/>
</a>
</g>
</g>
<!-- Node8 -->
<g id="Node000008" class="node">
<title>Node8</title>
<g id="a_Node000008"><a xlink:title=" ">
<polygon fill="#e0e0e0" stroke="#999999" points="625.41,-19.25 571.91,-19.25 571.91,0 625.41,0 625.41,-19.25"/>
<text text-anchor="middle" x="598.66" y="-5.75" font-family="Helvetica,sans-Serif" font-size="10.00">iostream</text>
</a>
</g>
</g>
<!-- Node2&#45;&gt;Node8 -->
<g id="edge7_Node000002_Node000008" class="edge">
<title>Node2&#45;&gt;Node8</title>
<g id="a_edge7_Node000002_Node000008"><a xlink:title=" ">
<path fill="none" stroke="#63b8ff" d="M485.25,-250.51C649.18,-243.06 1295.89,-209.46 1351.66,-141 1445.21,-26.16 802.78,-12.47 637.01,-10.84"/>
<polygon fill="#63b8ff" stroke="#63b8ff" points="637.24,-7.34 627.21,-10.76 637.18,-14.34 637.24,-7.34"/>
</a>
</g>
</g>
<!-- Node9 -->
<g id="Node000009" class="node">
<title>Node9</title>
<g id="a_Node000009"><a xlink:title=" ">
<polygon fill="#e0e0e0" stroke="#999999" points="570.29,-201.88 519.04,-201.88 519.04,-182.62 570.29,-182.62 570.29,-201.88"/>
<text text-anchor="middle" x="544.66" y="-188.38" font-family="Helvetica,sans-Serif" font-size="10.00">sstream</text>
</a>
</g>
</g>
<!-- Node2&#45;&gt;Node9 -->
<g id="edge8_Node000002_Node000009" class="edge">
<title>Node2&#45;&gt;Node9</title>
<g id="a_edge8_Node000002_Node000009"><a xlink:title=" ">
<path fill="none" stroke="#63b8ff" d="M462.4,-243.18C477.71,-233.89 501.93,-219.19 520.14,-208.14"/>
<polygon fill="#63b8ff" stroke="#63b8ff" points="521.77,-211.24 528.5,-203.06 518.13,-205.26 521.77,-211.24"/>
</a>
</g>
</g>
<!-- Node10 -->
<g id="Node000010" class="node">
<title>Node10</title>
<g id="a_Node000010"><a xlink:title=" ">
<polygon fill="#e0e0e0" stroke="#999999" points="638.91,-201.88 588.41,-201.88 588.41,-182.62 638.91,-182.62 638.91,-201.88"/>
<text text-anchor="middle" x="613.66" y="-188.38" font-family="Helvetica,sans-Serif" font-size="10.00">memory</text>
</a>
</g>
</g>
<!-- Node2&#45;&gt;Node10 -->
<g id="edge9_Node000002_Node000010" class="edge">
<title>Node2&#45;&gt;Node10</title>
<g id="a_edge9_Node000002_Node000010"><a xlink:title=" ">
<path fill="none" stroke="#63b8ff" d="M476.45,-243.04C503.33,-234.41 544.48,-220.8 579.66,-207.5 580.61,-207.14 581.56,-206.78 582.53,-206.4"/>
<polygon fill="#63b8ff" stroke="#63b8ff" points="583.53,-209.77 591.5,-202.79 580.91,-203.28 583.53,-209.77"/>
</a>
</g>
</g>
<!-- Node11 -->
<g id="Node000011" class="node">
<title>Node11</title>
<g id="a_Node000011"><a xlink:title=" ">
<polygon fill="#e0e0e0" stroke="#999999" points="388.29,-135.38 343.04,-135.38 343.04,-116.12 388.29,-116.12 388.29,-135.38"/>
<text text-anchor="middle" x="365.66" y="-121.88" font-family="Helvetica,sans-Serif" font-size="10.00">chrono</text>
</a>
</g>
</g>
<!-- Node2&#45;&gt;Node11 -->
<g id="edge10_Node000002_Node000011" class="edge">
<title>Node2&#45;&gt;Node11</title>
<g id="a_edge10_Node000002_Node000011"><a xlink:title=" ">
<path fill="none" stroke="#63b8ff" d="M427.93,-243.01C413.77,-235.46 395.37,-223.4 384.66,-207.5 372.49,-189.42 368.07,-164.5 366.49,-147.14"/>
<polygon fill="#63b8ff" stroke="#63b8ff" points="369.99,-147.08 365.86,-137.32 363.01,-147.52 369.99,-147.08"/>
</a>
</g>
</g>
<!-- Node12 -->
<g id="Node000012" class="node">
<title>Node12</title>
<g id="a_Node000012"><a xlink:title=" ">
<polygon fill="#e0e0e0" stroke="#999999" points="686.06,-201.88 657.26,-201.88 657.26,-182.62 686.06,-182.62 686.06,-201.88"/>
<text text-anchor="middle" x="671.66" y="-188.38" font-family="Helvetica,sans-Serif" font-size="10.00">list</text>
</a>
</g>
</g>
<!-- Node2&#45;&gt;Node12 -->
<g id="edge11_Node000002_Node000012" class="edge">
<title>Node2&#45;&gt;Node12</title>
<g id="a_edge11_Node000002_Node000012"><a xlink:title=" ">
<path fill="none" stroke="#63b8ff" d="M485.2,-247.37C526.2,-241.35 593.27,-229.08 647.66,-207.5 647.77,-207.46 647.88,-207.41 647.99,-207.37"/>
<polygon fill="#63b8ff" stroke="#63b8ff" points="649.36,-210.6 656.73,-202.99 646.22,-204.34 649.36,-210.6"/>
</a>
</g>
</g>
<!-- Node13 -->
<g id="Node000013" class="node">
<title>Node13</title>
<g id="a_Node000013"><a xlink:href="IssueFactory_8hpp.html" target="_top" xlink:title=" ">
<polygon fill="white" stroke="#666666" points="298.04,-201.88 191.29,-201.88 191.29,-182.62 298.04,-182.62 298.04,-201.88"/>
<text text-anchor="middle" x="244.66" y="-188.38" font-family="Helvetica,sans-Serif" font-size="10.00">ers/IssueFactory.hpp</text>
</a>
</g>
</g>
<!-- Node2&#45;&gt;Node13 -->
<g id="edge12_Node000002_Node000013" class="edge">
<title>Node2&#45;&gt;Node13</title>
<g id="a_edge12_Node000002_Node000013"><a xlink:title=" ">
<path fill="none" stroke="#63b8ff" d="M416.39,-243.05C381.67,-232.99 325.45,-216.68 286.85,-205.49"/>
<polygon fill="#63b8ff" stroke="#63b8ff" points="288.01,-202.18 277.43,-202.75 286.06,-208.9 288.01,-202.18"/>
</a>
</g>
</g>
<!-- Node15 -->
<g id="Node000015" class="node">
<title>Node15</title>
<g id="a_Node000015"><a xlink:href="Severity_8hpp.html" target="_top" xlink:title=" ">
<polygon fill="white" stroke="#666666" points="286.54,-135.38 200.79,-135.38 200.79,-116.12 286.54,-116.12 286.54,-135.38"/>
<text text-anchor="middle" x="243.66" y="-121.88" font-family="Helvetica,sans-Serif" font-size="10.00">ers/Severity.hpp</text>
</a>
</g>
</g>
<!-- Node2&#45;&gt;Node15 -->
<g id="edge29_Node000002_Node000015" class="edge">
<title>Node2&#45;&gt;Node15</title>
<g id="a_edge29_Node000002_Node000015"><a xlink:title=" ">
<path fill="none" stroke="#63b8ff" d="M430.85,-243.01C414.74,-234.18 389.83,-220.3 368.66,-207.5 332.33,-185.53 291.13,-158.48 266.28,-141.94"/>
<polygon fill="#63b8ff" stroke="#63b8ff" points="268.52,-139.22 258.26,-136.58 264.63,-145.04 268.52,-139.22"/>
</a>
</g>
</g>
<!-- Node16 -->
<g id="Node000016" class="node">
<title>Node16</title>
<g id="a_Node000016"><a xlink:href="LocalContext_8hpp.html" target="_top" xlink:title=" ">
<polygon fill="white" stroke="#666666" points="501.41,-201.88 393.91,-201.88 393.91,-182.62 501.41,-182.62 501.41,-201.88"/>
<text text-anchor="middle" x="447.66" y="-188.38" font-family="Helvetica,sans-Serif" font-size="10.00">ers/LocalContext.hpp</text>
</a>
</g>
</g>
<!-- Node2&#45;&gt;Node16 -->
<g id="edge21_Node000002_Node000016" class="edge">
<title>Node2&#45;&gt;Node16</title>
<g id="a_edge21_Node000002_Node000016"><a xlink:title=" ">
<path fill="none" stroke="#63b8ff" d="M447.66,-243.18C447.66,-235.4 447.66,-223.83 447.66,-213.78"/>
<polygon fill="#63b8ff" stroke="#63b8ff" points="451.16,-213.79 447.66,-203.79 444.16,-213.79 451.16,-213.79"/>
</a>
</g>
</g>
<!-- Node21 -->
<g id="Node000021" class="node">
<title>Node21</title>
<g id="a_Node000021"><a xlink:href="IssueDeclarationMacro_8hpp.html" target="_top" xlink:title=" ">
<polygon fill="white" stroke="#666666" points="894.54,-207.5 754.79,-207.5 754.79,-177 894.54,-177 894.54,-207.5"/>
<text text-anchor="start" x="762.79" y="-194" font-family="Helvetica,sans-Serif" font-size="10.00">ers/internal/IssueDeclaration</text>
<text text-anchor="middle" x="824.66" y="-182.75" font-family="Helvetica,sans-Serif" font-size="10.00">Macro.hpp</text>
</a>
</g>
</g>
<!-- Node2&#45;&gt;Node21 -->
<g id="edge30_Node000002_Node000021" class="edge">
<title>Node2&#45;&gt;Node21</title>
<g id="a_edge30_Node000002_Node000021"><a xlink:title=" ">
<path fill="none" stroke="#63b8ff" d="M485.19,-246.26C545.05,-236.92 663.51,-218.42 743.43,-205.94"/>
<polygon fill="#63b8ff" stroke="#63b8ff" points="743.6,-209.45 752.94,-204.45 742.52,-202.54 743.6,-209.45"/>
</a>
</g>
</g>
<!-- Node13&#45;&gt;Node6 -->
<g id="edge16_Node000013_Node000006" class="edge">
<title>Node13&#45;&gt;Node6</title>
<g id="a_edge16_Node000013_Node000006"><a xlink:title=" ">
<path fill="none" stroke="#63b8ff" d="M228.15,-182.15C208.9,-171.53 176.83,-153.85 154.1,-141.32"/>
<polygon fill="#63b8ff" stroke="#63b8ff" points="155.87,-138.3 145.42,-136.54 152.49,-144.43 155.87,-138.3"/>
</a>
</g>
</g>
<!-- Node13&#45;&gt;Node7 -->
<g id="edge14_Node000013_Node000007" class="edge">
<title>Node13&#45;&gt;Node7</title>
<g id="a_edge14_Node000013_Node000007"><a xlink:title=" ">
<path fill="none" stroke="#63b8ff" d="M231.76,-182.4C219.6,-173.38 201.79,-158.29 191.66,-141 181.68,-123.96 176.9,-101.77 174.64,-85.93"/>
<polygon fill="#63b8ff" stroke="#63b8ff" points="178.15,-85.83 173.49,-76.31 171.2,-86.66 178.15,-85.83"/>
</a>
</g>
</g>
<!-- Node13&#45;&gt;Node11 -->
<g id="edge13_Node000013_Node000011" class="edge">
<title>Node13&#45;&gt;Node11</title>
<g id="a_edge13_Node000013_Node000011"><a xlink:title=" ">
<path fill="none" stroke="#63b8ff" d="M261.74,-182.15C281.74,-171.49 315.12,-153.69 338.64,-141.16"/>
<polygon fill="#63b8ff" stroke="#63b8ff" points="340.16,-144.31 347.34,-136.52 336.86,-138.14 340.16,-144.31"/>
</a>
</g>
</g>
<!-- Node14 -->
<g id="Node000014" class="node">
<title>Node14</title>
<g id="a_Node000014"><a xlink:title=" ">
<polygon fill="#e0e0e0" stroke="#999999" points="336.16,-74.5 293.16,-74.5 293.16,-55.25 336.16,-55.25 336.16,-74.5"/>
<text text-anchor="middle" x="314.66" y="-61" font-family="Helvetica,sans-Serif" font-size="10.00">vector</text>
</a>
</g>
</g>
<!-- Node13&#45;&gt;Node14 -->
<g id="edge15_Node000013_Node000014" class="edge">
<title>Node13&#45;&gt;Node14</title>
<g id="a_edge15_Node000013_Node000014"><a xlink:title=" ">
<path fill="none" stroke="#63b8ff" d="M257.07,-182.29C268.76,-173.19 285.9,-158.04 295.66,-141 305.48,-123.87 310.28,-101.69 312.6,-85.88"/>
<polygon fill="#63b8ff" stroke="#63b8ff" points="316.03,-86.64 313.78,-76.29 309.08,-85.78 316.03,-86.64"/>
</a>
</g>
</g>
<!-- Node13&#45;&gt;Node15 -->
<g id="edge17_Node000013_Node000015" class="edge">
<title>Node13&#45;&gt;Node15</title>
<g id="a_edge17_Node000013_Node000015"><a xlink:title=" ">
<path fill="none" stroke="#63b8ff" d="M244.52,-182.28C244.38,-173.23 244.16,-158.95 243.98,-147.13"/>
<polygon fill="#63b8ff" stroke="#63b8ff" points="247.48,-147.1 243.82,-137.16 240.48,-147.21 247.48,-147.1"/>
</a>
</g>
</g>
<!-- Node15&#45;&gt;Node7 -->
<g id="edge18_Node000015_Node000007" class="edge">
<title>Node15&#45;&gt;Node7</title>
<g id="a_edge18_Node000015_Node000007"><a xlink:title=" ">
<path fill="none" stroke="#63b8ff" d="M232.88,-115.81C222.14,-106.9 205.41,-93.03 192.31,-82.17"/>
<polygon fill="#63b8ff" stroke="#63b8ff" points="194.65,-79.56 184.71,-75.87 190.18,-84.94 194.65,-79.56"/>
</a>
</g>
</g>
<!-- Node15&#45;&gt;Node8 -->
<g id="edge20_Node000015_Node000008" class="edge">
<title>Node15&#45;&gt;Node8</title>
<g id="a_edge20_Node000015_Node000008"><a xlink:title=" ">
<path fill="none" stroke="#63b8ff" d="M246.04,-115.75C250.57,-100.52 261.98,-69.91 283.66,-55.25 328.18,-25.14 487.02,-15.02 560.67,-11.9"/>
<polygon fill="#63b8ff" stroke="#63b8ff" points="560.36,-15.41 570.21,-11.52 560.08,-8.42 560.36,-15.41"/>
</a>
</g>
</g>
<!-- Node15&#45;&gt;Node14 -->
<g id="edge19_Node000015_Node000014" class="edge">
<title>Node15&#45;&gt;Node14</title>
<g id="a_edge19_Node000015_Node000014"><a xlink:title=" ">
<path fill="none" stroke="#63b8ff" d="M254.45,-115.81C265.19,-106.9 281.91,-93.03 295.02,-82.17"/>
<polygon fill="#63b8ff" stroke="#63b8ff" points="297.15,-84.94 302.61,-75.87 292.68,-79.56 297.15,-84.94"/>
</a>
</g>
</g>
<!-- Node17 -->
<g id="Node000017" class="node">
<title>Node17</title>
<g id="a_Node000017"><a xlink:title=" ">
<polygon fill="#e0e0e0" stroke="#999999" points="471.04,-135.38 406.29,-135.38 406.29,-116.12 471.04,-116.12 471.04,-135.38"/>
<text text-anchor="middle" x="438.66" y="-121.88" font-family="Helvetica,sans-Serif" font-size="10.00">sys/types.h</text>
</a>
</g>
</g>
<!-- Node16&#45;&gt;Node17 -->
<g id="edge22_Node000016_Node000017" class="edge">
<title>Node16&#45;&gt;Node17</title>
<g id="a_edge22_Node000016_Node000017"><a xlink:title=" ">
<path fill="none" stroke="#63b8ff" d="M446.41,-182.28C445.14,-173.14 443.11,-158.64 441.45,-146.75"/>
<polygon fill="#63b8ff" stroke="#63b8ff" points="444.96,-146.56 440.11,-137.14 438.03,-147.53 444.96,-146.56"/>
</a>
</g>
</g>
<!-- Node18 -->
<g id="Node000018" class="node">
<title>Node18</title>
<g id="a_Node000018"><a xlink:title=" ">
<polygon fill="#e0e0e0" stroke="#999999" points="538.54,-135.38 488.79,-135.38 488.79,-116.12 538.54,-116.12 538.54,-135.38"/>
<text text-anchor="middle" x="513.66" y="-121.88" font-family="Helvetica,sans-Serif" font-size="10.00">unistd.h</text>
</a>
</g>
</g>
<!-- Node16&#45;&gt;Node18 -->
<g id="edge23_Node000016_Node000018" class="edge">
<title>Node16&#45;&gt;Node18</title>
<g id="a_edge23_Node000016_Node000018"><a xlink:title=" ">
<path fill="none" stroke="#63b8ff" d="M456.84,-182.28C467.09,-172.27 483.89,-155.85 496.57,-143.45"/>
<polygon fill="#63b8ff" stroke="#63b8ff" points="498.78,-146.19 503.48,-136.7 493.88,-141.19 498.78,-146.19"/>
</a>
</g>
</g>
<!-- Node19 -->
<g id="Node000019" class="node">
<title>Node19</title>
<g id="a_Node000019"><a xlink:href="Context_8hpp.html" target="_top" xlink:title=" ">
<polygon fill="white" stroke="#666666" points="640.41,-135.38 556.91,-135.38 556.91,-116.12 640.41,-116.12 640.41,-135.38"/>
<text text-anchor="middle" x="598.66" y="-121.88" font-family="Helvetica,sans-Serif" font-size="10.00">ers/Context.hpp</text>
</a>
</g>
</g>
<!-- Node16&#45;&gt;Node19 -->
<g id="edge24_Node000016_Node000019" class="edge">
<title>Node16&#45;&gt;Node19</title>
<g id="a_edge24_Node000016_Node000019"><a xlink:title=" ">
<path fill="none" stroke="#63b8ff" d="M468.98,-182.15C494.5,-171.25 537.47,-152.89 566.9,-140.32"/>
<polygon fill="#63b8ff" stroke="#63b8ff" points="568.24,-143.55 576.07,-136.4 565.49,-137.11 568.24,-143.55"/>
</a>
</g>
</g>
<!-- Node19&#45;&gt;Node7 -->
<g id="edge25_Node000019_Node000007" class="edge">
<title>Node19&#45;&gt;Node7</title>
<g id="a_edge25_Node000019_Node000007"><a xlink:title=" ">
<path fill="none" stroke="#63b8ff" d="M569.18,-115.68C562.18,-113.76 554.7,-111.89 547.66,-110.5 421.99,-85.62 269.68,-72.72 204.62,-68.01"/>
<polygon fill="#63b8ff" stroke="#63b8ff" points="204.89,-64.52 194.67,-67.31 204.4,-71.5 204.89,-64.52"/>
</a>
</g>
</g>
<!-- Node19&#45;&gt;Node14 -->
<g id="edge26_Node000019_Node000014" class="edge">
<title>Node19&#45;&gt;Node14</title>
<g id="a_edge26_Node000019_Node000014"><a xlink:title=" ">
<path fill="none" stroke="#63b8ff" d="M567.75,-115.67C561.15,-113.85 554.2,-112.04 547.66,-110.5 477,-93.89 393.19,-79 347.84,-71.33"/>
<polygon fill="#63b8ff" stroke="#63b8ff" points="348.57,-67.91 338.13,-69.71 347.41,-74.81 348.57,-67.91"/>
</a>
</g>
</g>
<!-- Node20 -->
<g id="Node000020" class="node">
<title>Node20</title>
<g id="a_Node000020"><a xlink:href="ers_2include_2ers_2Configuration_8hpp.html" target="_top" xlink:title=" ">
<polygon fill="white" stroke="#666666" points="652.04,-74.5 545.29,-74.5 545.29,-55.25 652.04,-55.25 652.04,-74.5"/>
<text text-anchor="middle" x="598.66" y="-61" font-family="Helvetica,sans-Serif" font-size="10.00">ers/Configuration.hpp</text>
</a>
</g>
</g>
<!-- Node19&#45;&gt;Node20 -->
<g id="edge27_Node000019_Node000020" class="edge">
<title>Node19&#45;&gt;Node20</title>
<g id="a_edge27_Node000019_Node000020"><a xlink:title=" ">
<path fill="none" stroke="#63b8ff" d="M598.66,-115.81C598.66,-108.03 598.66,-96.45 598.66,-86.41"/>
<polygon fill="#63b8ff" stroke="#63b8ff" points="602.16,-86.41 598.66,-76.41 595.16,-86.41 602.16,-86.41"/>
</a>
</g>
</g>
<!-- Node20&#45;&gt;Node8 -->
<g id="edge28_Node000020_Node000008" class="edge">
<title>Node20&#45;&gt;Node8</title>
<g id="a_edge28_Node000020_Node000008"><a xlink:title=" ">
<path fill="none" stroke="#63b8ff" d="M598.66,-55.08C598.66,-48.57 598.66,-39.42 598.66,-31.12"/>
<polygon fill="#63b8ff" stroke="#63b8ff" points="602.16,-31.12 598.66,-21.12 595.16,-31.12 602.16,-31.12"/>
</a>
</g>
</g>
<!-- Node22 -->
<g id="Node000022" class="node">
<title>Node22</title>
<g id="a_Node000022"><a xlink:title=" ">
<polygon fill="#e0e0e0" stroke="#999999" points="1225.29,-141 1126.04,-141 1126.04,-110.5 1225.29,-110.5 1225.29,-141"/>
<text text-anchor="start" x="1134.04" y="-127.5" font-family="Helvetica,sans-Serif" font-size="10.00">boost/preprocessor</text>
<text text-anchor="middle" x="1175.66" y="-116.25" font-family="Helvetica,sans-Serif" font-size="10.00">/if.hpp</text>
</a>
</g>
</g>
<!-- Node21&#45;&gt;Node22 -->
<g id="edge31_Node000021_Node000022" class="edge">
<title>Node21&#45;&gt;Node22</title>
<g id="a_edge31_Node000021_Node000022"><a xlink:title=" ">
<path fill="none" stroke="#63b8ff" d="M894.87,-178.54C897.84,-178.02 900.78,-177.5 903.66,-177 995.15,-161.05 1021.29,-160.54 1114.63,-141.55"/>
<polygon fill="#63b8ff" stroke="#63b8ff" points="1115.16,-145.01 1124.25,-139.57 1113.75,-138.16 1115.16,-145.01"/>
</a>
</g>
</g>
<!-- Node23 -->
<g id="Node000023" class="node">
<title>Node23</title>
<g id="a_Node000023"><a xlink:title=" ">
<polygon fill="#e0e0e0" stroke="#999999" points="1342.29,-141 1243.04,-141 1243.04,-110.5 1342.29,-110.5 1342.29,-141"/>
<text text-anchor="start" x="1251.04" y="-127.5" font-family="Helvetica,sans-Serif" font-size="10.00">boost/preprocessor</text>
<text text-anchor="middle" x="1292.66" y="-116.25" font-family="Helvetica,sans-Serif" font-size="10.00">/seq.hpp</text>
</a>
</g>
</g>
<!-- Node21&#45;&gt;Node23 -->
<g id="edge32_Node000021_Node000023" class="edge">
<title>Node21&#45;&gt;Node23</title>
<g id="a_edge32_Node000021_Node000023"><a xlink:title=" ">
<path fill="none" stroke="#63b8ff" d="M894.83,-178.33C897.81,-177.86 900.77,-177.42 903.66,-177 1046.55,-156.37 1086.98,-166.2 1231.7,-141.38"/>
<polygon fill="#63b8ff" stroke="#63b8ff" points="1232.02,-144.88 1241.27,-139.71 1230.82,-137.98 1232.02,-144.88"/>
</a>
</g>
</g>
<!-- Node24 -->
<g id="Node000024" class="node">
<title>Node24</title>
<g id="a_Node000024"><a xlink:title=" ">
<polygon fill="#e0e0e0" stroke="#999999" points="757.29,-141 658.04,-141 658.04,-110.5 757.29,-110.5 757.29,-141"/>
<text text-anchor="start" x="666.04" y="-127.5" font-family="Helvetica,sans-Serif" font-size="10.00">boost/preprocessor</text>
<text text-anchor="middle" x="707.66" y="-116.25" font-family="Helvetica,sans-Serif" font-size="10.00">/tuple.hpp</text>
</a>
</g>
</g>
<!-- Node21&#45;&gt;Node24 -->
<g id="edge33_Node000021_Node000024" class="edge">
<title>Node21&#45;&gt;Node24</title>
<g id="a_edge33_Node000021_Node000024"><a xlink:title=" ">
<path fill="none" stroke="#63b8ff" d="M798.11,-176.61C782.11,-167.79 761.5,-156.43 744,-146.78"/>
<polygon fill="#63b8ff" stroke="#63b8ff" points="745.88,-143.82 735.43,-142.06 742.5,-149.95 745.88,-143.82"/>
</a>
</g>
</g>
<!-- Node25 -->
<g id="Node000025" class="node">
<title>Node25</title>
<g id="a_Node000025"><a xlink:title=" ">
<polygon fill="#e0e0e0" stroke="#999999" points="874.29,-141 775.04,-141 775.04,-110.5 874.29,-110.5 874.29,-141"/>
<text text-anchor="start" x="783.04" y="-127.5" font-family="Helvetica,sans-Serif" font-size="10.00">boost/preprocessor</text>
<text text-anchor="middle" x="824.66" y="-116.25" font-family="Helvetica,sans-Serif" font-size="10.00">/logical.hpp</text>
</a>
</g>
</g>
<!-- Node21&#45;&gt;Node25 -->
<g id="edge34_Node000021_Node000025" class="edge">
<title>Node21&#45;&gt;Node25</title>
<g id="a_edge34_Node000021_Node000025"><a xlink:title=" ">
<path fill="none" stroke="#63b8ff" d="M824.66,-176.61C824.66,-169.52 824.66,-160.79 824.66,-152.63"/>
<polygon fill="#63b8ff" stroke="#63b8ff" points="828.16,-152.84 824.66,-142.84 821.16,-152.84 828.16,-152.84"/>
</a>
</g>
</g>
<!-- Node26 -->
<g id="Node000026" class="node">
<title>Node26</title>
<g id="a_Node000026"><a xlink:title=" ">
<polygon fill="#e0e0e0" stroke="#999999" points="991.29,-141 892.04,-141 892.04,-110.5 991.29,-110.5 991.29,-141"/>
<text text-anchor="start" x="900.04" y="-127.5" font-family="Helvetica,sans-Serif" font-size="10.00">boost/preprocessor</text>
<text text-anchor="middle" x="941.66" y="-116.25" font-family="Helvetica,sans-Serif" font-size="10.00">/stringize.hpp</text>
</a>
</g>
</g>
<!-- Node21&#45;&gt;Node26 -->
<g id="edge35_Node000021_Node000026" class="edge">
<title>Node21&#45;&gt;Node26</title>
<g id="a_edge35_Node000021_Node000026"><a xlink:title=" ">
<path fill="none" stroke="#63b8ff" d="M851.21,-176.61C867.22,-167.79 887.83,-156.43 905.33,-146.78"/>
<polygon fill="#63b8ff" stroke="#63b8ff" points="906.83,-149.95 913.89,-142.06 903.45,-143.82 906.83,-149.95"/>
</a>
</g>
</g>
<!-- Node27 -->
<g id="Node000027" class="node">
<title>Node27</title>
<g id="a_Node000027"><a xlink:title=" ">
<polygon fill="#e0e0e0" stroke="#999999" points="1108.29,-141 1009.04,-141 1009.04,-110.5 1108.29,-110.5 1108.29,-141"/>
<text text-anchor="start" x="1017.04" y="-127.5" font-family="Helvetica,sans-Serif" font-size="10.00">boost/preprocessor</text>
<text text-anchor="middle" x="1058.66" y="-116.25" font-family="Helvetica,sans-Serif" font-size="10.00">/comparison.hpp</text>
</a>
</g>
</g>
<!-- Node21&#45;&gt;Node27 -->
<g id="edge36_Node000021_Node000027" class="edge">
<title>Node21&#45;&gt;Node27</title>
<g id="a_edge36_Node000021_Node000027"><a xlink:title=" ">
<path fill="none" stroke="#63b8ff" d="M878.05,-176.53C913.78,-166.69 960.87,-153.7 998.02,-143.47"/>
<polygon fill="#63b8ff" stroke="#63b8ff" points="998.53,-146.95 1007.24,-140.92 996.67,-140.21 998.53,-146.95"/>
</a>
</g>
</g>
</g>
</svg>
