<?xml version="1.0" encoding="UTF-8" standalone="no"?>
<!DOCTYPE svg PUBLIC "-//W3C//DTD SVG 1.1//EN"
 "http://www.w3.org/Graphics/SVG/1.1/DTD/svg11.dtd">
<!-- Generated by graphviz version 9.0.0 (20230911.1827)
 -->
<!-- Title: sourcecode/opmonlib/include/opmonlib/InfoManager.hpp Pages: 1 -->
<svg width="256pt" height="172pt"
 viewBox="0.00 0.00 255.50 171.50" xmlns="http://www.w3.org/2000/svg" xmlns:xlink="http://www.w3.org/1999/xlink">
<g id="graph0" class="graph" transform="scale(1 1) rotate(0) translate(4 167.5)">
<title>sourcecode/opmonlib/include/opmonlib/InfoManager.hpp</title>
<!-- Node1 -->
<g id="Node000001" class="node">
<title>Node1</title>
<g id="a_Node000001"><a xlink:title=" ">
<polygon fill="#999999" stroke="#666666" points="210.75,-163.5 44,-163.5 44,-133 210.75,-133 210.75,-163.5"/>
<text text-anchor="start" x="52" y="-150" font-family="Helvetica,sans-Serif" font-size="10.00">sourcecode/opmonlib</text>
<text text-anchor="middle" x="127.38" y="-138.75" font-family="Helvetica,sans-Serif" font-size="10.00">/include/opmonlib/InfoManager.hpp</text>
</a>
</g>
</g>
<!-- Node2 -->
<g id="Node000002" class="node">
<title>Node2</title>
<g id="a_Node000002"><a xlink:href="Application_8hpp.html" target="_top" xlink:title=" ">
<polygon fill="white" stroke="#666666" points="121,-97 3.75,-97 3.75,-66.5 121,-66.5 121,-97"/>
<text text-anchor="start" x="11.75" y="-83.5" font-family="Helvetica,sans-Serif" font-size="10.00">sourcecode/appfwk/src</text>
<text text-anchor="middle" x="62.38" y="-72.25" font-family="Helvetica,sans-Serif" font-size="10.00">/Application.hpp</text>
</a>
</g>
</g>
<!-- Node1&#45;&gt;Node2 -->
<g id="edge1_Node000001_Node000002" class="edge">
<title>Node1&#45;&gt;Node2</title>
<g id="a_edge1_Node000001_Node000002"><a xlink:title=" ">
<path fill="none" stroke="#63b8ff" d="M104.64,-124.69C95.49,-115.61 85.2,-105.4 77.07,-97.33"/>
<polygon fill="#63b8ff" stroke="#63b8ff" points="101.99,-126.99 111.55,-131.55 106.92,-122.02 101.99,-126.99"/>
</a>
</g>
</g>
<!-- Node4 -->
<g id="Node000004" class="node">
<title>Node4</title>
<g id="a_Node000004"><a xlink:href="InfoManager_8cpp.html" target="_top" xlink:title=" ">
<polygon fill="white" stroke="#666666" points="247.5,-97 139.25,-97 139.25,-66.5 247.5,-66.5 247.5,-97"/>
<text text-anchor="start" x="147.25" y="-83.5" font-family="Helvetica,sans-Serif" font-size="10.00">sourcecode/opmonlib</text>
<text text-anchor="middle" x="193.38" y="-72.25" font-family="Helvetica,sans-Serif" font-size="10.00">/src/InfoManager.cpp</text>
</a>
</g>
</g>
<!-- Node1&#45;&gt;Node4 -->
<g id="edge3_Node000001_Node000004" class="edge">
<title>Node1&#45;&gt;Node4</title>
<g id="a_edge3_Node000001_Node000004"><a xlink:title=" ">
<path fill="none" stroke="#63b8ff" d="M150.46,-124.69C159.75,-115.61 170.2,-105.4 178.46,-97.33"/>
<polygon fill="#63b8ff" stroke="#63b8ff" points="148.14,-122.06 143.43,-131.56 153.03,-127.07 148.14,-122.06"/>
</a>
</g>
</g>
<!-- Node3 -->
<g id="Node000003" class="node">
<title>Node3</title>
<g id="a_Node000003"><a xlink:href="daq__application_8cxx.html" target="_top" xlink:title=" ">
<polygon fill="white" stroke="#666666" points="124.75,-30.5 0,-30.5 0,0 124.75,0 124.75,-30.5"/>
<text text-anchor="start" x="8" y="-17" font-family="Helvetica,sans-Serif" font-size="10.00">sourcecode/appfwk/apps</text>
<text text-anchor="middle" x="62.38" y="-5.75" font-family="Helvetica,sans-Serif" font-size="10.00">/daq_application.cxx</text>
</a>
</g>
</g>
<!-- Node2&#45;&gt;Node3 -->
<g id="edge2_Node000002_Node000003" class="edge">
<title>Node2&#45;&gt;Node3</title>
<g id="a_edge2_Node000002_Node000003"><a xlink:title=" ">
<path fill="none" stroke="#63b8ff" d="M62.38,-54.81C62.38,-46.64 62.38,-37.91 62.38,-30.83"/>
<polygon fill="#63b8ff" stroke="#63b8ff" points="58.88,-54.6 62.38,-64.6 65.88,-54.6 58.88,-54.6"/>
</a>
</g>
</g>
</g>
</svg>
