<?xml version="1.0" encoding="UTF-8" standalone="no"?>
<!DOCTYPE svg PUBLIC "-//W3C//DTD SVG 1.1//EN"
 "http://www.w3.org/Graphics/SVG/1.1/DTD/svg11.dtd">
<!-- Generated by graphviz version 9.0.0 (20230911.1827)
 -->
<!-- Title: sourcecode/opmonlib/include/opmonlib/InfoProvider.hpp Pages: 1 -->
<svg width="435pt" height="149pt"
 viewBox="0.00 0.00 435.25 149.00" xmlns="http://www.w3.org/2000/svg" xmlns:xlink="http://www.w3.org/1999/xlink">
<g id="graph0" class="graph" transform="scale(1 1) rotate(0) translate(4 145)">
<title>sourcecode/opmonlib/include/opmonlib/InfoProvider.hpp</title>
<!-- Node1 -->
<g id="Node000001" class="node">
<title>Node1</title>
<g id="a_Node000001"><a xlink:title=" ">
<polygon fill="#999999" stroke="#666666" points="372.12,-141 206.88,-141 206.88,-110.5 372.12,-110.5 372.12,-141"/>
<text text-anchor="start" x="214.88" y="-127.5" font-family="Helvetica,sans-Serif" font-size="10.00">sourcecode/opmonlib</text>
<text text-anchor="middle" x="289.5" y="-116.25" font-family="Helvetica,sans-Serif" font-size="10.00">/include/opmonlib/InfoProvider.hpp</text>
</a>
</g>
</g>
<!-- Node2 -->
<g id="Node000002" class="node">
<title>Node2</title>
<g id="a_Node000002"><a xlink:href="InfoCollector_8hpp.html" target="_top" xlink:title=" ">
<polygon fill="white" stroke="#666666" points="308.88,-74.5 178.12,-74.5 178.12,-55.25 308.88,-55.25 308.88,-74.5"/>
<text text-anchor="middle" x="243.5" y="-61" font-family="Helvetica,sans-Serif" font-size="10.00">opmonlib/InfoCollector.hpp</text>
</a>
</g>
</g>
<!-- Node1&#45;&gt;Node2 -->
<g id="edge1_Node000001_Node000002" class="edge">
<title>Node1&#45;&gt;Node2</title>
<g id="a_edge1_Node000001_Node000002"><a xlink:title=" ">
<path fill="none" stroke="#63b8ff" d="M278.13,-110.2C271.93,-102.27 264.21,-92.38 257.63,-83.96"/>
<polygon fill="#63b8ff" stroke="#63b8ff" points="260.44,-81.87 251.52,-76.14 254.92,-86.18 260.44,-81.87"/>
</a>
</g>
</g>
<!-- Node5 -->
<g id="Node000005" class="node">
<title>Node5</title>
<g id="a_Node000005"><a xlink:title=" ">
<polygon fill="#e0e0e0" stroke="#999999" points="427.25,-19.25 373.75,-19.25 373.75,0 427.25,0 427.25,-19.25"/>
<text text-anchor="middle" x="400.5" y="-5.75" font-family="Helvetica,sans-Serif" font-size="10.00">iostream</text>
</a>
</g>
</g>
<!-- Node1&#45;&gt;Node5 -->
<g id="edge7_Node000001_Node000005" class="edge">
<title>Node1&#45;&gt;Node5</title>
<g id="a_edge7_Node000001_Node000005"><a xlink:title=" ">
<path fill="none" stroke="#63b8ff" d="M303.56,-110.3C324.06,-89.22 362.07,-50.13 383.91,-27.68"/>
<polygon fill="#63b8ff" stroke="#63b8ff" points="386.16,-30.39 390.62,-20.78 381.14,-25.51 386.16,-30.39"/>
</a>
</g>
</g>
<!-- Node3 -->
<g id="Node000003" class="node">
<title>Node3</title>
<g id="a_Node000003"><a xlink:title=" ">
<polygon fill="#e0e0e0" stroke="#999999" points="97,-19.25 0,-19.25 0,0 97,0 97,-19.25"/>
<text text-anchor="middle" x="48.5" y="-5.75" font-family="Helvetica,sans-Serif" font-size="10.00">nlohmann/json.hpp</text>
</a>
</g>
</g>
<!-- Node2&#45;&gt;Node3 -->
<g id="edge2_Node000002_Node000003" class="edge">
<title>Node2&#45;&gt;Node3</title>
<g id="a_edge2_Node000002_Node000003"><a xlink:title=" ">
<path fill="none" stroke="#63b8ff" d="M210.42,-54.84C178.06,-46.01 128.58,-32.49 92.83,-22.73"/>
<polygon fill="#63b8ff" stroke="#63b8ff" points="93.77,-19.36 83.2,-20.1 91.93,-26.11 93.77,-19.36"/>
</a>
</g>
</g>
<!-- Node4 -->
<g id="Node000004" class="node">
<title>Node4</title>
<g id="a_Node000004"><a xlink:title=" ">
<polygon fill="#e0e0e0" stroke="#999999" points="155.5,-19.25 115.5,-19.25 115.5,0 155.5,0 155.5,-19.25"/>
<text text-anchor="middle" x="135.5" y="-5.75" font-family="Helvetica,sans-Serif" font-size="10.00">ctime</text>
</a>
</g>
</g>
<!-- Node2&#45;&gt;Node4 -->
<g id="edge3_Node000002_Node000004" class="edge">
<title>Node2&#45;&gt;Node4</title>
<g id="a_edge3_Node000002_Node000004"><a xlink:title=" ">
<path fill="none" stroke="#63b8ff" d="M225.18,-54.84C208.42,-46.58 183.37,-34.23 164,-24.68"/>
<polygon fill="#63b8ff" stroke="#63b8ff" points="165.78,-21.65 155.27,-20.37 162.69,-27.93 165.78,-21.65"/>
</a>
</g>
</g>
<!-- Node2&#45;&gt;Node5 -->
<g id="edge4_Node000002_Node000005" class="edge">
<title>Node2&#45;&gt;Node5</title>
<g id="a_edge4_Node000002_Node000005"><a xlink:title=" ">
<path fill="none" stroke="#63b8ff" d="M270.13,-54.84C295.62,-46.2 334.31,-33.07 362.93,-23.37"/>
<polygon fill="#63b8ff" stroke="#63b8ff" points="363.96,-26.72 372.3,-20.19 361.71,-20.09 363.96,-26.72"/>
</a>
</g>
</g>
<!-- Node6 -->
<g id="Node000006" class="node">
<title>Node6</title>
<g id="a_Node000006"><a xlink:title=" ">
<polygon fill="#e0e0e0" stroke="#999999" points="213.5,-19.25 173.5,-19.25 173.5,0 213.5,0 213.5,-19.25"/>
<text text-anchor="middle" x="193.5" y="-5.75" font-family="Helvetica,sans-Serif" font-size="10.00">string</text>
</a>
</g>
</g>
<!-- Node2&#45;&gt;Node6 -->
<g id="edge5_Node000002_Node000006" class="edge">
<title>Node2&#45;&gt;Node6</title>
<g id="a_edge5_Node000002_Node000006"><a xlink:title=" ">
<path fill="none" stroke="#63b8ff" d="M235.24,-55.08C228.34,-47.73 218.28,-37.01 209.76,-27.94"/>
<polygon fill="#63b8ff" stroke="#63b8ff" points="212.37,-25.61 202.97,-20.71 207.27,-30.4 212.37,-25.61"/>
</a>
</g>
</g>
<!-- Node7 -->
<g id="Node000007" class="node">
<title>Node7</title>
<g id="a_Node000007"><a xlink:href="JSONTags_8hpp.html" target="_top" xlink:title=" ">
<polygon fill="white" stroke="#666666" points="355.88,-19.25 231.12,-19.25 231.12,0 355.88,0 355.88,-19.25"/>
<text text-anchor="middle" x="293.5" y="-5.75" font-family="Helvetica,sans-Serif" font-size="10.00">opmonlib/JSONTags.hpp</text>
</a>
</g>
</g>
<!-- Node2&#45;&gt;Node7 -->
<g id="edge6_Node000002_Node000007" class="edge">
<title>Node2&#45;&gt;Node7</title>
<g id="a_edge6_Node000002_Node000007"><a xlink:title=" ">
<path fill="none" stroke="#63b8ff" d="M251.76,-55.08C258.66,-47.73 268.72,-37.01 277.24,-27.94"/>
<polygon fill="#63b8ff" stroke="#63b8ff" points="279.73,-30.4 284.03,-20.71 274.63,-25.61 279.73,-30.4"/>
</a>
</g>
</g>
</g>
</svg>
