<?xml version="1.0" encoding="UTF-8" standalone="no"?>
<!DOCTYPE svg PUBLIC "-//W3C//DTD SVG 1.1//EN"
 "http://www.w3.org/Graphics/SVG/1.1/DTD/svg11.dtd">
<!-- Generated by graphviz version 9.0.0 (20230911.1827)
 -->
<!-- Title: sourcecode/opmonlib/include/opmonlib/InfoCollector.hpp Pages: 1 -->
<svg width="436pt" height="94pt"
 viewBox="0.00 0.00 435.88 93.75" xmlns="http://www.w3.org/2000/svg" xmlns:xlink="http://www.w3.org/1999/xlink">
<g id="graph0" class="graph" transform="scale(1 1) rotate(0) translate(4 89.75)">
<title>sourcecode/opmonlib/include/opmonlib/InfoCollector.hpp</title>
<!-- Node1 -->
<g id="Node000001" class="node">
<title>Node1</title>
<g id="a_Node000001"><a xlink:title=" ">
<polygon fill="#999999" stroke="#666666" points="284.25,-85.75 116.75,-85.75 116.75,-55.25 284.25,-55.25 284.25,-85.75"/>
<text text-anchor="start" x="124.75" y="-72.25" font-family="Helvetica,sans-Serif" font-size="10.00">sourcecode/opmonlib</text>
<text text-anchor="middle" x="200.5" y="-61" font-family="Helvetica,sans-Serif" font-size="10.00">/include/opmonlib/InfoCollector.hpp</text>
</a>
</g>
</g>
<!-- Node2 -->
<g id="Node000002" class="node">
<title>Node2</title>
<g id="a_Node000002"><a xlink:title=" ">
<polygon fill="#e0e0e0" stroke="#999999" points="97,-19.25 0,-19.25 0,0 97,0 97,-19.25"/>
<text text-anchor="middle" x="48.5" y="-5.75" font-family="Helvetica,sans-Serif" font-size="10.00">nlohmann/json.hpp</text>
</a>
</g>
</g>
<!-- Node1&#45;&gt;Node2 -->
<g id="edge1_Node000001_Node000002" class="edge">
<title>Node1&#45;&gt;Node2</title>
<g id="a_edge1_Node000001_Node000002"><a xlink:title=" ">
<path fill="none" stroke="#63b8ff" d="M162.54,-54.8C137.94,-45.27 106.19,-32.97 82.43,-23.77"/>
<polygon fill="#63b8ff" stroke="#63b8ff" points="83.81,-20.55 73.22,-20.2 81.28,-27.08 83.81,-20.55"/>
</a>
</g>
</g>
<!-- Node3 -->
<g id="Node000003" class="node">
<title>Node3</title>
<g id="a_Node000003"><a xlink:title=" ">
<polygon fill="#e0e0e0" stroke="#999999" points="155.5,-19.25 115.5,-19.25 115.5,0 155.5,0 155.5,-19.25"/>
<text text-anchor="middle" x="135.5" y="-5.75" font-family="Helvetica,sans-Serif" font-size="10.00">ctime</text>
</a>
</g>
</g>
<!-- Node1&#45;&gt;Node3 -->
<g id="edge2_Node000001_Node000003" class="edge">
<title>Node1&#45;&gt;Node3</title>
<g id="a_edge2_Node000001_Node000003"><a xlink:title=" ">
<path fill="none" stroke="#63b8ff" d="M184.43,-54.95C175.2,-46.59 163.57,-36.05 153.97,-27.35"/>
<polygon fill="#63b8ff" stroke="#63b8ff" points="156.4,-24.84 146.64,-20.72 151.7,-30.02 156.4,-24.84"/>
</a>
</g>
</g>
<!-- Node4 -->
<g id="Node000004" class="node">
<title>Node4</title>
<g id="a_Node000004"><a xlink:title=" ">
<polygon fill="#e0e0e0" stroke="#999999" points="227.25,-19.25 173.75,-19.25 173.75,0 227.25,0 227.25,-19.25"/>
<text text-anchor="middle" x="200.5" y="-5.75" font-family="Helvetica,sans-Serif" font-size="10.00">iostream</text>
</a>
</g>
</g>
<!-- Node1&#45;&gt;Node4 -->
<g id="edge3_Node000001_Node000004" class="edge">
<title>Node1&#45;&gt;Node4</title>
<g id="a_edge3_Node000001_Node000004"><a xlink:title=" ">
<path fill="none" stroke="#63b8ff" d="M200.5,-54.95C200.5,-47.71 200.5,-38.84 200.5,-30.94"/>
<polygon fill="#63b8ff" stroke="#63b8ff" points="204,-31.21 200.5,-21.21 197,-31.21 204,-31.21"/>
</a>
</g>
</g>
<!-- Node5 -->
<g id="Node000005" class="node">
<title>Node5</title>
<g id="a_Node000005"><a xlink:title=" ">
<polygon fill="#e0e0e0" stroke="#999999" points="285.5,-19.25 245.5,-19.25 245.5,0 285.5,0 285.5,-19.25"/>
<text text-anchor="middle" x="265.5" y="-5.75" font-family="Helvetica,sans-Serif" font-size="10.00">string</text>
</a>
</g>
</g>
<!-- Node1&#45;&gt;Node5 -->
<g id="edge4_Node000001_Node000005" class="edge">
<title>Node1&#45;&gt;Node5</title>
<g id="a_edge4_Node000001_Node000005"><a xlink:title=" ">
<path fill="none" stroke="#63b8ff" d="M216.57,-54.95C225.8,-46.59 237.43,-36.05 247.03,-27.35"/>
<polygon fill="#63b8ff" stroke="#63b8ff" points="249.3,-30.02 254.36,-20.72 244.6,-24.84 249.3,-30.02"/>
</a>
</g>
</g>
<!-- Node6 -->
<g id="Node000006" class="node">
<title>Node6</title>
<g id="a_Node000006"><a xlink:href="JSONTags_8hpp.html" target="_top" xlink:title=" ">
<polygon fill="white" stroke="#666666" points="427.88,-19.25 303.12,-19.25 303.12,0 427.88,0 427.88,-19.25"/>
<text text-anchor="middle" x="365.5" y="-5.75" font-family="Helvetica,sans-Serif" font-size="10.00">opmonlib/JSONTags.hpp</text>
</a>
</g>
</g>
<!-- Node1&#45;&gt;Node6 -->
<g id="edge5_Node000001_Node000006" class="edge">
<title>Node1&#45;&gt;Node6</title>
<g id="a_edge5_Node000001_Node000006"><a xlink:title=" ">
<path fill="none" stroke="#63b8ff" d="M241.71,-54.8C268.65,-45.18 303.51,-32.75 329.36,-23.52"/>
<polygon fill="#63b8ff" stroke="#63b8ff" points="330.53,-26.82 338.77,-20.16 328.18,-20.23 330.53,-26.82"/>
</a>
</g>
</g>
</g>
</svg>
