<?xml version="1.0" encoding="UTF-8" standalone="no"?>
<!DOCTYPE svg PUBLIC "-//W3C//DTD SVG 1.1//EN"
 "http://www.w3.org/Graphics/SVG/1.1/DTD/svg11.dtd">
<!-- Generated by graphviz version 9.0.0 (20230911.1827)
 -->
<!-- Title: Graphical Class Hierarchy Pages: 1 -->
<svg width="297pt" height="88pt"
 viewBox="0.00 0.00 296.50 87.50" xmlns="http://www.w3.org/2000/svg" xmlns:xlink="http://www.w3.org/1999/xlink">
<g id="graph0" class="graph" transform="scale(1 1) rotate(0) translate(4 83.5)">
<title>Graphical Class Hierarchy</title>
<!-- Node0 -->
<g id="Node000000" class="node">
<title>Node0</title>
<g id="a_Node000000"><a xlink:href="classdunedaq_1_1oksdbinterfaces_1_1ConfigObjectImpl.html" target="_top" xlink:title="Implements database objects.">
<polygon fill="white" stroke="#666666" points="126.25,-54.5 0,-54.5 0,-24 126.25,-24 126.25,-54.5"/>
<text text-anchor="start" x="8" y="-41" font-family="Helvetica,sans-Serif" font-size="10.00">dunedaq::oksdbinterfaces</text>
<text text-anchor="middle" x="63.12" y="-29.75" font-family="Helvetica,sans-Serif" font-size="10.00">::ConfigObjectImpl</text>
</a>
</g>
</g>
<!-- Node1 -->
<g id="Node000001" class="node">
<title>Node1</title>
<g id="a_Node000001"><a xlink:href="classdunedaq_1_1oksconfig_1_1OksConfigObject.html" target="_top" xlink:title=" ">
<polygon fill="white" stroke="#666666" points="274.62,-79.5 176.12,-79.5 176.12,-49 274.62,-49 274.62,-79.5"/>
<text text-anchor="start" x="184.12" y="-66" font-family="Helvetica,sans-Serif" font-size="10.00">dunedaq::oksconfig</text>
<text text-anchor="middle" x="225.38" y="-54.75" font-family="Helvetica,sans-Serif" font-size="10.00">::OksConfigObject</text>
</a>
</g>
</g>
<!-- Node0&#45;&gt;Node1 -->
<g id="edge127_Node000000_Node000001" class="edge">
<title>Node0&#45;&gt;Node1</title>
<g id="a_edge127_Node000000_Node000001"><a xlink:title=" ">
<path fill="none" stroke="#63b8ff" d="M137.78,-50.74C150.67,-52.75 163.78,-54.8 175.77,-56.67"/>
<polygon fill="#63b8ff" stroke="#63b8ff" points="138.46,-47.3 128.04,-49.22 137.38,-54.22 138.46,-47.3"/>
</a>
</g>
</g>
<!-- Node2 -->
<g id="Node000002" class="node">
<title>Node2</title>
<g id="a_Node000002"><a xlink:href="classdunedaq_1_1oksdbinterfaces_1_1ConfigObjectDefault.html" target="_top" xlink:title=" ">
<polygon fill="white" stroke="#666666" points="288.5,-30.5 162.25,-30.5 162.25,0 288.5,0 288.5,-30.5"/>
<text text-anchor="start" x="170.25" y="-17" font-family="Helvetica,sans-Serif" font-size="10.00">dunedaq::oksdbinterfaces</text>
<text text-anchor="middle" x="225.38" y="-5.75" font-family="Helvetica,sans-Serif" font-size="10.00">::ConfigObjectDefault</text>
</a>
</g>
</g>
<!-- Node0&#45;&gt;Node2 -->
<g id="edge128_Node000000_Node000002" class="edge">
<title>Node0&#45;&gt;Node2</title>
<g id="a_edge128_Node000000_Node000002"><a xlink:title=" ">
<path fill="none" stroke="#63b8ff" d="M137.81,-28.21C145.85,-27.01 153.98,-25.79 161.87,-24.61"/>
<polygon fill="#63b8ff" stroke="#63b8ff" points="137.41,-24.74 128.04,-29.68 138.45,-31.66 137.41,-24.74"/>
</a>
</g>
</g>
</g>
</svg>
