<?xml version="1.0" encoding="UTF-8" standalone="no"?>
<!DOCTYPE svg PUBLIC "-//W3C//DTD SVG 1.1//EN"
 "http://www.w3.org/Graphics/SVG/1.1/DTD/svg11.dtd">
<!-- Generated by graphviz version 9.0.0 (20230911.1827)
 -->
<!-- Title: Graphical Class Hierarchy Pages: 1 -->
<svg width="496pt" height="432pt"
 viewBox="0.00 0.00 496.25 431.88" xmlns="http://www.w3.org/2000/svg" xmlns:xlink="http://www.w3.org/1999/xlink">
<g id="graph0" class="graph" transform="scale(1 1) rotate(0) translate(4 427.88)">
<title>Graphical Class Hierarchy</title>
<!-- Node0 -->
<g id="Node000000" class="node">
<title>Node0</title>
<g id="a_Node000000"><a xlink:title=" ">
<polygon fill="#e0e0e0" stroke="#999999" points="89.88,-372.25 28.88,-372.25 28.88,-353 89.88,-353 89.88,-372.25"/>
<text text-anchor="middle" x="59.38" y="-358.75" font-family="Helvetica,sans-Serif" font-size="10.00">metaclass</text>
</a>
</g>
</g>
<!-- Node1 -->
<g id="Node000001" class="node">
<title>Node1</title>
<g id="a_Node000001"><a xlink:href="classoksdbinterfaces_1_1ConfigObject_1_1__ConfigObjectProxy.html" target="_top" xlink:title=" ">
<polygon fill="white" stroke="#666666" points="303.12,-423.88 158.12,-423.88 158.12,-393.38 303.12,-393.38 303.12,-423.88"/>
<text text-anchor="start" x="166.12" y="-410.38" font-family="Helvetica,sans-Serif" font-size="10.00">oksdbinterfaces.ConfigObject.</text>
<text text-anchor="middle" x="230.62" y="-399.12" font-family="Helvetica,sans-Serif" font-size="10.00">_ConfigObjectProxy</text>
</a>
</g>
</g>
<!-- Node0&#45;&gt;Node1 -->
<g id="edge186_Node000000_Node000001" class="edge">
<title>Node0&#45;&gt;Node1</title>
<g id="a_edge186_Node000000_Node000001"><a xlink:title=" ">
<path fill="none" stroke="#63b8ff" d="M101.15,-373.71C122.39,-379.48 148.72,-386.64 172,-392.96"/>
<polygon fill="#63b8ff" stroke="#63b8ff" points="102.27,-370.39 91.7,-371.14 100.44,-377.14 102.27,-370.39"/>
</a>
</g>
</g>
<!-- Node5 -->
<g id="Node000005" class="node">
<title>Node5</title>
<g id="a_Node000005"><a xlink:href="classoksdbinterfaces_1_1Configuration_1_1__ConfigurationProxy.html" target="_top" xlink:title=" ">
<polygon fill="white" stroke="#666666" points="303.5,-374.88 157.75,-374.88 157.75,-344.38 303.5,-344.38 303.5,-374.88"/>
<text text-anchor="start" x="165.75" y="-361.38" font-family="Helvetica,sans-Serif" font-size="10.00">oksdbinterfaces.Configuration.</text>
<text text-anchor="middle" x="230.62" y="-350.12" font-family="Helvetica,sans-Serif" font-size="10.00">_ConfigurationProxy</text>
</a>
</g>
</g>
<!-- Node0&#45;&gt;Node5 -->
<g id="edge188_Node000000_Node000005" class="edge">
<title>Node0&#45;&gt;Node5</title>
<g id="a_edge188_Node000000_Node000005"><a xlink:title=" ">
<path fill="none" stroke="#63b8ff" d="M101.37,-361.9C118.25,-361.6 138.31,-361.24 157.5,-360.9"/>
<polygon fill="#63b8ff" stroke="#63b8ff" points="101.69,-358.39 91.76,-362.07 101.82,-365.39 101.69,-358.39"/>
</a>
</g>
</g>
<!-- Node2 -->
<g id="Node000002" class="node">
<title>Node2</title>
<g id="a_Node000002"><a xlink:href="classoksdbinterfaces_1_1ConfigObject_1_1ConfigObject.html" target="_top" xlink:title=" ">
<polygon fill="white" stroke="#666666" points="487.88,-423.88 342.88,-423.88 342.88,-393.38 487.88,-393.38 487.88,-423.88"/>
<text text-anchor="start" x="350.88" y="-410.38" font-family="Helvetica,sans-Serif" font-size="10.00">oksdbinterfaces.ConfigObject.</text>
<text text-anchor="middle" x="415.38" y="-399.12" font-family="Helvetica,sans-Serif" font-size="10.00">ConfigObject</text>
</a>
</g>
</g>
<!-- Node1&#45;&gt;Node2 -->
<g id="edge187_Node000001_Node000002" class="edge">
<title>Node1&#45;&gt;Node2</title>
<g id="a_edge187_Node000001_Node000002"><a xlink:title=" ">
<path fill="none" stroke="#63b8ff" d="M315.09,-408.62C324.24,-408.62 333.49,-408.62 342.48,-408.62"/>
<polygon fill="#63b8ff" stroke="#63b8ff" points="315.1,-405.13 305.1,-408.63 315.1,-412.13 315.1,-405.13"/>
</a>
</g>
</g>
<!-- Node6 -->
<g id="Node000006" class="node">
<title>Node6</title>
<g id="a_Node000006"><a xlink:href="classoksdbinterfaces_1_1Configuration_1_1Configuration.html" target="_top" xlink:title=" ">
<polygon fill="white" stroke="#666666" points="488.25,-374.88 342.5,-374.88 342.5,-344.38 488.25,-344.38 488.25,-374.88"/>
<text text-anchor="start" x="350.5" y="-361.38" font-family="Helvetica,sans-Serif" font-size="10.00">oksdbinterfaces.Configuration.</text>
<text text-anchor="middle" x="415.38" y="-350.12" font-family="Helvetica,sans-Serif" font-size="10.00">Configuration</text>
</a>
</g>
</g>
<!-- Node5&#45;&gt;Node6 -->
<g id="edge189_Node000005_Node000006" class="edge">
<title>Node5&#45;&gt;Node6</title>
<g id="a_edge189_Node000005_Node000006"><a xlink:title=" ">
<path fill="none" stroke="#63b8ff" d="M315.16,-359.62C324.14,-359.62 333.23,-359.62 342.07,-359.62"/>
<polygon fill="#63b8ff" stroke="#63b8ff" points="315.37,-356.13 305.37,-359.63 315.37,-363.13 315.37,-356.13"/>
</a>
</g>
</g>
<!-- Node3 -->
<g id="Node000003" class="node">
<title>Node3</title>
<g id="a_Node000003"><a xlink:title=" ">
<polygon fill="#e0e0e0" stroke="#999999" points="80.5,-222.25 38.25,-222.25 38.25,-203 80.5,-203 80.5,-222.25"/>
<text text-anchor="middle" x="59.38" y="-208.75" font-family="Helvetica,sans-Serif" font-size="10.00">object</text>
</a>
</g>
</g>
<!-- Node3&#45;&gt;Node1 -->
<g id="edge191_Node000003_Node000001" class="edge">
<title>Node3&#45;&gt;Node1</title>
<g id="a_edge191_Node000003_Node000001"><a xlink:title=" ">
<path fill="none" stroke="#63b8ff" d="M69.38,-233.09C87.59,-273.71 129.26,-362.39 154.75,-383.62 159.07,-387.22 163.92,-390.31 169.03,-392.95"/>
<polygon fill="#63b8ff" stroke="#63b8ff" points="72.58,-231.68 65.32,-223.97 66.18,-234.53 72.58,-231.68"/>
</a>
</g>
</g>
<!-- Node3&#45;&gt;Node5 -->
<g id="edge192_Node000003_Node000005" class="edge">
<title>Node3&#45;&gt;Node5</title>
<g id="a_edge192_Node000003_Node000005"><a xlink:title=" ">
<path fill="none" stroke="#63b8ff" d="M70.52,-232.45C85.41,-259.61 115.67,-308.12 154.75,-335.62 159.22,-338.77 164.11,-341.51 169.2,-343.91"/>
<polygon fill="#63b8ff" stroke="#63b8ff" points="73.76,-231.08 65.98,-223.89 67.58,-234.37 73.76,-231.08"/>
</a>
</g>
</g>
<!-- Node4 -->
<g id="Node000004" class="node">
<title>Node4</title>
<g id="a_Node000004"><a xlink:href="classers_1_1PyContext.html" target="_top" xlink:title=" ">
<polygon fill="white" stroke="#666666" points="268.62,-56.25 192.62,-56.25 192.62,-37 268.62,-37 268.62,-56.25"/>
<text text-anchor="middle" x="230.62" y="-42.75" font-family="Helvetica,sans-Serif" font-size="10.00">ers.PyContext</text>
</a>
</g>
</g>
<!-- Node3&#45;&gt;Node4 -->
<g id="edge190_Node000003_Node000004" class="edge">
<title>Node3&#45;&gt;Node4</title>
<g id="a_edge190_Node000003_Node000004"><a xlink:title=" ">
<path fill="none" stroke="#63b8ff" d="M67.75,-192.21C80.41,-160.15 109.38,-98.31 154.75,-65.62 165.63,-57.79 179.44,-53.17 192.22,-50.46"/>
<polygon fill="#63b8ff" stroke="#63b8ff" points="64.64,-190.56 64.36,-201.15 71.18,-193.04 64.64,-190.56"/>
</a>
</g>
</g>
<!-- Node8 -->
<g id="Node000008" class="node">
<title>Node8</title>
<g id="a_Node000008"><a xlink:href="classoksdbinterfaces_1_1dal_1_1DalBase.html" target="_top" xlink:title=" ">
<polygon fill="white" stroke="#666666" points="300.12,-19.25 161.12,-19.25 161.12,0 300.12,0 300.12,-19.25"/>
<text text-anchor="middle" x="230.62" y="-5.75" font-family="Helvetica,sans-Serif" font-size="10.00">oksdbinterfaces.dal.DalBase</text>
</a>
</g>
</g>
<!-- Node3&#45;&gt;Node8 -->
<g id="edge193_Node000003_Node000008" class="edge">
<title>Node3&#45;&gt;Node8</title>
<g id="a_edge193_Node000003_Node000008"><a xlink:title=" ">
<path fill="none" stroke="#63b8ff" d="M64.96,-191.62C74.54,-152.93 100.44,-70.43 154.75,-27.62 158.74,-24.48 163.2,-21.87 167.89,-19.71"/>
<polygon fill="#63b8ff" stroke="#63b8ff" points="61.57,-190.74 62.71,-201.27 68.39,-192.33 61.57,-190.74"/>
</a>
</g>
</g>
<!-- Node9 -->
<g id="Node000009" class="node">
<title>Node9</title>
<g id="a_Node000009"><a xlink:href="classoksdbinterfaces_1_1proxy_1_1Proxy.html" target="_top" xlink:title=" ">
<polygon fill="white" stroke="#666666" points="298.62,-326.25 162.62,-326.25 162.62,-307 298.62,-307 298.62,-326.25"/>
<text text-anchor="middle" x="230.62" y="-312.75" font-family="Helvetica,sans-Serif" font-size="10.00">oksdbinterfaces.proxy.Proxy</text>
</a>
</g>
</g>
<!-- Node3&#45;&gt;Node9 -->
<g id="edge194_Node000003_Node000009" class="edge">
<title>Node3&#45;&gt;Node9</title>
<g id="a_edge194_Node000003_Node000009"><a xlink:title=" ">
<path fill="none" stroke="#63b8ff" d="M75.69,-231.31C92.88,-251.04 122.6,-281.58 154.75,-298.62 160.77,-301.82 167.37,-304.45 174.07,-306.63"/>
<polygon fill="#63b8ff" stroke="#63b8ff" points="78.42,-229.12 69.28,-223.76 73.08,-233.65 78.42,-229.12"/>
</a>
</g>
</g>
<!-- Node10 -->
<g id="Node000010" class="node">
<title>Node10</title>
<g id="a_Node000010"><a xlink:href="classoksdbinterfaces_1_1schema_1_1Cache.html" target="_top" xlink:title=" ">
<polygon fill="white" stroke="#666666" points="306.5,-289.25 154.75,-289.25 154.75,-270 306.5,-270 306.5,-289.25"/>
<text text-anchor="middle" x="230.62" y="-275.75" font-family="Helvetica,sans-Serif" font-size="10.00">oksdbinterfaces.schema.Cache</text>
</a>
</g>
</g>
<!-- Node3&#45;&gt;Node10 -->
<g id="edge195_Node000003_Node000010" class="edge">
<title>Node3&#45;&gt;Node10</title>
<g id="a_edge195_Node000003_Node000010"><a xlink:title=" ">
<path fill="none" stroke="#63b8ff" d="M87.02,-228.19C105.53,-238.5 131.05,-251.72 154.75,-260.62 163.79,-264.02 173.67,-267.01 183.19,-269.55"/>
<polygon fill="#63b8ff" stroke="#63b8ff" points="88.99,-225.29 78.56,-223.4 85.54,-231.38 88.99,-225.29"/>
</a>
</g>
</g>
<!-- Node11 -->
<g id="Node000011" class="node">
<title>Node11</title>
<g id="a_Node000011"><a xlink:href="classtiming_1_1shells_1_1boards_1_1BoardShell.html" target="_top" xlink:title=" ">
<polygon fill="white" stroke="#666666" points="295.25,-251.88 166,-251.88 166,-221.38 295.25,-221.38 295.25,-251.88"/>
<text text-anchor="start" x="174" y="-238.38" font-family="Helvetica,sans-Serif" font-size="10.00">timing.shells.boards.Board</text>
<text text-anchor="middle" x="230.62" y="-227.12" font-family="Helvetica,sans-Serif" font-size="10.00">Shell</text>
</a>
</g>
</g>
<!-- Node3&#45;&gt;Node11 -->
<g id="edge196_Node000003_Node000011" class="edge">
<title>Node3&#45;&gt;Node11</title>
<g id="a_edge196_Node000003_Node000011"><a xlink:title=" ">
<path fill="none" stroke="#63b8ff" d="M92.09,-217.12C112.8,-220.06 140.57,-224 165.73,-227.56"/>
<polygon fill="#63b8ff" stroke="#63b8ff" points="92.68,-213.67 82.29,-215.73 91.7,-220.6 92.68,-213.67"/>
</a>
</g>
</g>
<!-- Node15 -->
<g id="Node000015" class="node">
<title>Node15</title>
<g id="a_Node000015"><a xlink:href="classtiming_1_1shells_1_1factory_1_1ShellContext.html" target="_top" xlink:title=" ">
<polygon fill="white" stroke="#666666" points="293.38,-202.88 167.88,-202.88 167.88,-172.38 293.38,-172.38 293.38,-202.88"/>
<text text-anchor="start" x="175.88" y="-189.38" font-family="Helvetica,sans-Serif" font-size="10.00">timing.shells.factory.Shell</text>
<text text-anchor="middle" x="230.62" y="-178.12" font-family="Helvetica,sans-Serif" font-size="10.00">Context</text>
</a>
</g>
</g>
<!-- Node3&#45;&gt;Node15 -->
<g id="edge200_Node000003_Node000015" class="edge">
<title>Node3&#45;&gt;Node15</title>
<g id="a_edge200_Node000003_Node000015"><a xlink:title=" ">
<path fill="none" stroke="#63b8ff" d="M92.05,-207.95C113.28,-204.81 141.95,-200.58 167.61,-196.78"/>
<polygon fill="#63b8ff" stroke="#63b8ff" points="91.67,-204.46 82.29,-209.39 92.69,-211.39 91.67,-204.46"/>
</a>
</g>
</g>
<!-- Node16 -->
<g id="Node000016" class="node">
<title>Node16</title>
<g id="a_Node000016"><a xlink:href="classtiming_1_1shells_1_1factory_1_1ShellFactory.html" target="_top" xlink:title=" ">
<polygon fill="white" stroke="#666666" points="293.38,-153.88 167.88,-153.88 167.88,-123.38 293.38,-123.38 293.38,-153.88"/>
<text text-anchor="start" x="175.88" y="-140.38" font-family="Helvetica,sans-Serif" font-size="10.00">timing.shells.factory.Shell</text>
<text text-anchor="middle" x="230.62" y="-129.12" font-family="Helvetica,sans-Serif" font-size="10.00">Factory</text>
</a>
</g>
</g>
<!-- Node3&#45;&gt;Node16 -->
<g id="edge201_Node000003_Node000016" class="edge">
<title>Node3&#45;&gt;Node16</title>
<g id="a_edge201_Node000003_Node000016"><a xlink:title=" ">
<path fill="none" stroke="#63b8ff" d="M87.54,-197.07C106.11,-186.81 131.48,-173.48 154.75,-163.62 162.45,-160.37 170.73,-157.24 178.88,-154.37"/>
<polygon fill="#63b8ff" stroke="#63b8ff" points="86.06,-193.89 79.04,-201.83 89.48,-200 86.06,-193.89"/>
</a>
</g>
</g>
<!-- Node17 -->
<g id="Node000017" class="node">
<title>Node17</title>
<g id="a_Node000017"><a xlink:href="classtiming_1_1shells_1_1master_1_1MasterShell.html" target="_top" xlink:title=" ">
<polygon fill="white" stroke="#666666" points="297.88,-104.88 163.38,-104.88 163.38,-74.38 297.88,-74.38 297.88,-104.88"/>
<text text-anchor="start" x="171.38" y="-91.38" font-family="Helvetica,sans-Serif" font-size="10.00">timing.shells.master.Master</text>
<text text-anchor="middle" x="230.62" y="-80.12" font-family="Helvetica,sans-Serif" font-size="10.00">Shell</text>
</a>
</g>
</g>
<!-- Node3&#45;&gt;Node17 -->
<g id="edge202_Node000003_Node000017" class="edge">
<title>Node3&#45;&gt;Node17</title>
<g id="a_edge202_Node000003_Node000017"><a xlink:title=" ">
<path fill="none" stroke="#63b8ff" d="M73.94,-193.79C90.64,-171.86 120.98,-135.95 154.75,-114.62 160.31,-111.11 166.42,-108.04 172.68,-105.36"/>
<polygon fill="#63b8ff" stroke="#63b8ff" points="71.32,-191.44 68.17,-201.56 76.94,-195.62 71.32,-191.44"/>
</a>
</g>
</g>
<!-- Node12 -->
<g id="Node000012" class="node">
<title>Node12</title>
<g id="a_Node000012"><a xlink:href="classtiming_1_1shells_1_1fmc_1_1FMCShell.html" target="_top" xlink:title=" ">
<polygon fill="white" stroke="#666666" points="482.25,-209.25 348.5,-209.25 348.5,-190 482.25,-190 482.25,-209.25"/>
<text text-anchor="middle" x="415.38" y="-195.75" font-family="Helvetica,sans-Serif" font-size="10.00">timing.shells.fmc.FMCShell</text>
</a>
</g>
</g>
<!-- Node11&#45;&gt;Node12 -->
<g id="edge197_Node000011_Node000012" class="edge">
<title>Node11&#45;&gt;Node12</title>
<g id="a_edge197_Node000011_Node000012"><a xlink:title=" ">
<path fill="none" stroke="#63b8ff" d="M306.59,-221.45C326.14,-217.49 346.72,-213.32 364.6,-209.7"/>
<polygon fill="#63b8ff" stroke="#63b8ff" points="306.13,-217.97 297.03,-223.38 307.52,-224.83 306.13,-217.97"/>
</a>
</g>
</g>
<!-- Node13 -->
<g id="Node000013" class="node">
<title>Node13</title>
<g id="a_Node000013"><a xlink:href="classtiming_1_1shells_1_1pc059_1_1PC059Shell.html" target="_top" xlink:title=" ">
<polygon fill="white" stroke="#666666" points="480.38,-294.88 350.38,-294.88 350.38,-264.38 480.38,-264.38 480.38,-294.88"/>
<text text-anchor="start" x="358.38" y="-281.38" font-family="Helvetica,sans-Serif" font-size="10.00">timing.shells.pc059.PC059</text>
<text text-anchor="middle" x="415.38" y="-270.12" font-family="Helvetica,sans-Serif" font-size="10.00">Shell</text>
</a>
</g>
</g>
<!-- Node11&#45;&gt;Node13 -->
<g id="edge198_Node000011_Node000013" class="edge">
<title>Node11&#45;&gt;Node13</title>
<g id="a_edge198_Node000011_Node000013"><a xlink:title=" ">
<path fill="none" stroke="#63b8ff" d="M306.43,-254.23C320.84,-257.62 335.82,-261.14 349.88,-264.45"/>
<polygon fill="#63b8ff" stroke="#63b8ff" points="307.55,-250.89 297.02,-252.01 305.95,-257.71 307.55,-250.89"/>
</a>
</g>
</g>
<!-- Node14 -->
<g id="Node000014" class="node">
<title>Node14</title>
<g id="a_Node000014"><a xlink:href="classtiming_1_1shells_1_1tlu_1_1TLUShell.html" target="_top" xlink:title=" ">
<polygon fill="white" stroke="#666666" points="478.5,-246.25 352.25,-246.25 352.25,-227 478.5,-227 478.5,-246.25"/>
<text text-anchor="middle" x="415.38" y="-232.75" font-family="Helvetica,sans-Serif" font-size="10.00">timing.shells.tlu.TLUShell</text>
</a>
</g>
</g>
<!-- Node11&#45;&gt;Node14 -->
<g id="edge199_Node000011_Node000014" class="edge">
<title>Node11&#45;&gt;Node14</title>
<g id="a_edge199_Node000011_Node000014"><a xlink:title=" ">
<path fill="none" stroke="#63b8ff" d="M306.88,-236.62C321.9,-236.62 337.51,-236.62 352.03,-236.62"/>
<polygon fill="#63b8ff" stroke="#63b8ff" points="307.06,-233.13 297.06,-236.63 307.06,-240.13 307.06,-233.13"/>
</a>
</g>
</g>
<!-- Node18 -->
<g id="Node000018" class="node">
<title>Node18</title>
<g id="a_Node000018"><a xlink:href="classtiming_1_1shells_1_1fanout_1_1FanoutShell.html" target="_top" xlink:title=" ">
<polygon fill="white" stroke="#666666" points="481.12,-104.88 349.62,-104.88 349.62,-74.38 481.12,-74.38 481.12,-104.88"/>
<text text-anchor="start" x="357.62" y="-91.38" font-family="Helvetica,sans-Serif" font-size="10.00">timing.shells.fanout.Fanout</text>
<text text-anchor="middle" x="415.38" y="-80.12" font-family="Helvetica,sans-Serif" font-size="10.00">Shell</text>
</a>
</g>
</g>
<!-- Node17&#45;&gt;Node18 -->
<g id="edge203_Node000017_Node000018" class="edge">
<title>Node17&#45;&gt;Node18</title>
<g id="a_edge203_Node000017_Node000018"><a xlink:title=" ">
<path fill="none" stroke="#63b8ff" d="M309.58,-89.62C322.77,-89.62 336.33,-89.62 349.15,-89.62"/>
<polygon fill="#63b8ff" stroke="#63b8ff" points="309.63,-86.13 299.63,-89.63 309.63,-93.13 309.63,-86.13"/>
</a>
</g>
</g>
<!-- Node7 -->
<g id="Node000007" class="node">
<title>Node7</title>
<g id="a_Node000007"><a xlink:title=" ">
<polygon fill="#e0e0e0" stroke="#999999" points="118.75,-415.25 0,-415.25 0,-396 118.75,-396 118.75,-415.25"/>
<text text-anchor="middle" x="59.38" y="-401.75" font-family="Helvetica,sans-Serif" font-size="10.00">_DelegateMetaFunction</text>
</a>
</g>
</g>
<!-- Node7&#45;&gt;Node1 -->
<g id="edge204_Node000007_Node000001" class="edge">
<title>Node7&#45;&gt;Node1</title>
<g id="a_edge204_Node000007_Node000001"><a xlink:title=" ">
<path fill="none" stroke="#63b8ff" d="M130.42,-406.87C139.49,-407.03 148.78,-407.19 157.88,-407.35"/>
<polygon fill="#63b8ff" stroke="#63b8ff" points="130.67,-403.37 120.61,-406.69 130.55,-410.37 130.67,-403.37"/>
</a>
</g>
</g>
<!-- Node7&#45;&gt;Node5 -->
<g id="edge205_Node000007_Node000005" class="edge">
<title>Node7&#45;&gt;Node5</title>
<g id="a_edge205_Node000007_Node000005"><a xlink:title=" ">
<path fill="none" stroke="#63b8ff" d="M108.43,-392.56C128.2,-387.19 151.27,-380.92 171.94,-375.3"/>
<polygon fill="#63b8ff" stroke="#63b8ff" points="107.71,-389.13 98.98,-395.13 109.55,-395.89 107.71,-389.13"/>
</a>
</g>
</g>
</g>
</svg>
