<?xml version="1.0" encoding="UTF-8" standalone="no"?>
<!DOCTYPE svg PUBLIC "-//W3C//DTD SVG 1.1//EN"
 "http://www.w3.org/Graphics/SVG/1.1/DTD/svg11.dtd">
<!-- Generated by graphviz version 9.0.0 (20230911.1827)
 -->
<!-- Title: Graphical Class Hierarchy Pages: 1 -->
<svg width="306pt" height="387pt"
 viewBox="0.00 0.00 305.50 387.12" xmlns="http://www.w3.org/2000/svg" xmlns:xlink="http://www.w3.org/1999/xlink">
<g id="graph0" class="graph" transform="scale(1 1) rotate(0) translate(4 383.12)">
<title>Graphical Class Hierarchy</title>
<!-- Node0 -->
<g id="Node000000" class="node">
<title>Node0</title>
<g id="a_Node000000"><a xlink:title=" ">
<polygon fill="#e0e0e0" stroke="#999999" points="100.75,-182.88 0,-182.88 0,-163.62 100.75,-163.62 100.75,-182.88"/>
<text text-anchor="middle" x="50.38" y="-169.38" font-family="Helvetica,sans-Serif" font-size="10.00">std::unordered_map</text>
</a>
</g>
</g>
<!-- Node1 -->
<g id="Node000001" class="node">
<title>Node1</title>
<g id="a_Node000001"><a xlink:href="classdunedaq_1_1oksdbinterfaces_1_1fmap.html" target="_top" xlink:title=" ">
<polygon fill="white" stroke="#666666" points="280.25,-379.12 154,-379.12 154,-337.38 280.25,-337.38 280.25,-379.12"/>
<text text-anchor="start" x="162" y="-365.62" font-family="Helvetica,sans-Serif" font-size="10.00">dunedaq::oksdbinterfaces</text>
<text text-anchor="start" x="162" y="-354.38" font-family="Helvetica,sans-Serif" font-size="10.00">::fmap&lt; oksdbinterfaces</text>
<text text-anchor="middle" x="217.12" y="-343.12" font-family="Helvetica,sans-Serif" font-size="10.00">::fset &gt;</text>
</a>
</g>
</g>
<!-- Node0&#45;&gt;Node1 -->
<g id="edge343_Node000000_Node000001" class="edge">
<title>Node0&#45;&gt;Node1</title>
<g id="a_edge343_Node000000_Node000001"><a xlink:title=" ">
<path fill="none" stroke="#63b8ff" d="M57.62,-194.11C68.5,-227.04 93.94,-291.13 136.75,-328.25 141.87,-332.69 147.71,-336.5 153.85,-339.77"/>
<polygon fill="#63b8ff" stroke="#63b8ff" points="60.96,-193.07 54.62,-184.58 54.29,-195.17 60.96,-193.07"/>
</a>
</g>
</g>
<!-- Node2 -->
<g id="Node000002" class="node">
<title>Node2</title>
<g id="a_Node000002"><a xlink:href="classdunedaq_1_1oksdbinterfaces_1_1fmap.html" target="_top" xlink:title=" ">
<polygon fill="white" stroke="#666666" points="297.5,-319.12 136.75,-319.12 136.75,-277.38 297.5,-277.38 297.5,-319.12"/>
<text text-anchor="start" x="144.75" y="-305.62" font-family="Helvetica,sans-Serif" font-size="10.00">dunedaq::oksdbinterfaces</text>
<text text-anchor="start" x="144.75" y="-294.38" font-family="Helvetica,sans-Serif" font-size="10.00">::fmap&lt; dunedaq::oksdbinterfaces</text>
<text text-anchor="middle" x="217.12" y="-283.12" font-family="Helvetica,sans-Serif" font-size="10.00">::CacheBase * &gt;</text>
</a>
</g>
</g>
<!-- Node0&#45;&gt;Node2 -->
<g id="edge344_Node000000_Node000002" class="edge">
<title>Node0&#45;&gt;Node2</title>
<g id="a_edge344_Node000000_Node000002"><a xlink:title=" ">
<path fill="none" stroke="#63b8ff" d="M64.39,-192.57C79.54,-213.75 106.4,-247.48 136.75,-268.25 141.37,-271.41 146.37,-274.29 151.53,-276.91"/>
<polygon fill="#63b8ff" stroke="#63b8ff" points="67.38,-190.74 58.79,-184.53 61.63,-194.74 67.38,-190.74"/>
</a>
</g>
</g>
<!-- Node3 -->
<g id="Node000003" class="node">
<title>Node3</title>
<g id="a_Node000003"><a xlink:href="classdunedaq_1_1oksdbinterfaces_1_1map.html" target="_top" xlink:title=" ">
<polygon fill="white" stroke="#666666" points="296,-259.12 138.25,-259.12 138.25,-217.38 296,-217.38 296,-259.12"/>
<text text-anchor="start" x="146.25" y="-245.62" font-family="Helvetica,sans-Serif" font-size="10.00">dunedaq::oksdbinterfaces</text>
<text text-anchor="start" x="146.25" y="-234.38" font-family="Helvetica,sans-Serif" font-size="10.00">::map&lt; dunedaq::oksdbinterfaces</text>
<text text-anchor="middle" x="217.12" y="-223.12" font-family="Helvetica,sans-Serif" font-size="10.00">::class_t * &gt;</text>
</a>
</g>
</g>
<!-- Node0&#45;&gt;Node3 -->
<g id="edge345_Node000000_Node000003" class="edge">
<title>Node0&#45;&gt;Node3</title>
<g id="a_edge345_Node000000_Node000003"><a xlink:title=" ">
<path fill="none" stroke="#63b8ff" d="M84.72,-187.76C100.43,-194.48 119.48,-202.46 136.75,-209.25 143.3,-211.83 150.19,-214.46 157.05,-217.03"/>
<polygon fill="#63b8ff" stroke="#63b8ff" points="86.4,-184.67 75.83,-183.93 83.64,-191.1 86.4,-184.67"/>
</a>
</g>
</g>
<!-- Node4 -->
<g id="Node000004" class="node">
<title>Node4</title>
<g id="a_Node000004"><a xlink:href="classdunedaq_1_1oksdbinterfaces_1_1map.html" target="_top" xlink:title=" ">
<polygon fill="white" stroke="#666666" points="292.25,-199.75 142,-199.75 142,-146.75 292.25,-146.75 292.25,-199.75"/>
<text text-anchor="start" x="150" y="-186.25" font-family="Helvetica,sans-Serif" font-size="10.00">dunedaq::oksdbinterfaces</text>
<text text-anchor="start" x="150" y="-175" font-family="Helvetica,sans-Serif" font-size="10.00">::map&lt; std::list&lt; dunedaq</text>
<text text-anchor="start" x="150" y="-163.75" font-family="Helvetica,sans-Serif" font-size="10.00">::oksdbinterfaces::Configuration</text>
<text text-anchor="middle" x="217.12" y="-152.5" font-family="Helvetica,sans-Serif" font-size="10.00">::AttributeConverterBase * &gt; * &gt;</text>
</a>
</g>
</g>
<!-- Node0&#45;&gt;Node4 -->
<g id="edge346_Node000000_Node000004" class="edge">
<title>Node0&#45;&gt;Node4</title>
<g id="a_edge346_Node000000_Node000004"><a xlink:title=" ">
<path fill="none" stroke="#63b8ff" d="M112.27,-173.25C121.87,-173.25 131.88,-173.25 141.75,-173.25"/>
<polygon fill="#63b8ff" stroke="#63b8ff" points="112.32,-169.75 102.32,-173.25 112.32,-176.75 112.32,-169.75"/>
</a>
</g>
</g>
<!-- Node5 -->
<g id="Node000005" class="node">
<title>Node5</title>
<g id="a_Node000005"><a xlink:href="classdunedaq_1_1oksdbinterfaces_1_1map.html" target="_top" xlink:title=" ">
<polygon fill="white" stroke="#666666" points="280.25,-128.5 154,-128.5 154,-98 280.25,-98 280.25,-128.5"/>
<text text-anchor="start" x="162" y="-115" font-family="Helvetica,sans-Serif" font-size="10.00">dunedaq::oksdbinterfaces</text>
<text text-anchor="middle" x="217.12" y="-103.75" font-family="Helvetica,sans-Serif" font-size="10.00">::map&lt; T * &gt;</text>
</a>
</g>
</g>
<!-- Node0&#45;&gt;Node5 -->
<g id="edge347_Node000000_Node000005" class="edge">
<title>Node0&#45;&gt;Node5</title>
<g id="a_edge347_Node000000_Node000005"><a xlink:title=" ">
<path fill="none" stroke="#63b8ff" d="M84.62,-158.86C100.31,-152.27 119.37,-144.54 136.75,-138.25 145.58,-135.06 155.04,-131.87 164.25,-128.9"/>
<polygon fill="#63b8ff" stroke="#63b8ff" points="83.59,-155.5 75.75,-162.62 86.33,-161.94 83.59,-155.5"/>
</a>
</g>
</g>
<!-- Node6 -->
<g id="Node000006" class="node">
<title>Node6</title>
<g id="a_Node000006"><a xlink:href="classdunedaq_1_1oksdbinterfaces_1_1fmap.html" target="_top" xlink:title=" ">
<polygon fill="white" stroke="#666666" points="280.25,-79.5 154,-79.5 154,-49 280.25,-49 280.25,-79.5"/>
<text text-anchor="start" x="162" y="-66" font-family="Helvetica,sans-Serif" font-size="10.00">dunedaq::oksdbinterfaces</text>
<text text-anchor="middle" x="217.12" y="-54.75" font-family="Helvetica,sans-Serif" font-size="10.00">::fmap&lt; T &gt;</text>
</a>
</g>
</g>
<!-- Node0&#45;&gt;Node6 -->
<g id="edge348_Node000000_Node000006" class="edge">
<title>Node0&#45;&gt;Node6</title>
<g id="a_edge348_Node000000_Node000006"><a xlink:title=" ">
<path fill="none" stroke="#63b8ff" d="M66.08,-154.24C81.7,-135.25 108.07,-106.49 136.75,-89.25 142.69,-85.68 149.2,-82.57 155.85,-79.87"/>
<polygon fill="#63b8ff" stroke="#63b8ff" points="63.4,-151.99 59.88,-161.98 68.87,-156.36 63.4,-151.99"/>
</a>
</g>
</g>
<!-- Node7 -->
<g id="Node000007" class="node">
<title>Node7</title>
<g id="a_Node000007"><a xlink:href="classdunedaq_1_1oksdbinterfaces_1_1map.html" target="_top" xlink:title=" ">
<polygon fill="white" stroke="#666666" points="280.25,-30.5 154,-30.5 154,0 280.25,0 280.25,-30.5"/>
<text text-anchor="start" x="162" y="-17" font-family="Helvetica,sans-Serif" font-size="10.00">dunedaq::oksdbinterfaces</text>
<text text-anchor="middle" x="217.12" y="-5.75" font-family="Helvetica,sans-Serif" font-size="10.00">::map&lt; T &gt;</text>
</a>
</g>
</g>
<!-- Node0&#45;&gt;Node7 -->
<g id="edge349_Node000000_Node000007" class="edge">
<title>Node0&#45;&gt;Node7</title>
<g id="a_edge349_Node000000_Node000007"><a xlink:title=" ">
<path fill="none" stroke="#63b8ff" d="M59.25,-152.63C71.45,-123.39 97.66,-70.13 136.75,-40.25 141.92,-36.3 147.72,-32.97 153.77,-30.16"/>
<polygon fill="#63b8ff" stroke="#63b8ff" points="56.04,-151.23 55.57,-161.82 62.54,-153.84 56.04,-151.23"/>
</a>
</g>
</g>
</g>
</svg>
