<?xml version="1.0" encoding="UTF-8" standalone="no"?>
<!DOCTYPE svg PUBLIC "-//W3C//DTD SVG 1.1//EN"
 "http://www.w3.org/Graphics/SVG/1.1/DTD/svg11.dtd">
<!-- Generated by graphviz version 9.0.0 (20230911.1827)
 -->
<!-- Title: Graphical Class Hierarchy Pages: 1 -->
<svg width="322pt" height="284pt"
 viewBox="0.00 0.00 322.00 283.50" xmlns="http://www.w3.org/2000/svg" xmlns:xlink="http://www.w3.org/1999/xlink">
<g id="graph0" class="graph" transform="scale(1 1) rotate(0) translate(4 279.5)">
<title>Graphical Class Hierarchy</title>
<!-- Node0 -->
<g id="Node000000" class="node">
<title>Node0</title>
<g id="a_Node000000"><a xlink:href="classtriggeralgs_1_1TriggerCandidateMaker.html" target="_top" xlink:title=" ">
<polygon fill="white" stroke="#666666" points="139,-152.5 0,-152.5 0,-122 139,-122 139,-152.5"/>
<text text-anchor="start" x="8" y="-139" font-family="Helvetica,sans-Serif" font-size="10.00">triggeralgs::TriggerCandidate</text>
<text text-anchor="middle" x="69.5" y="-127.75" font-family="Helvetica,sans-Serif" font-size="10.00">Maker</text>
</a>
</g>
</g>
<!-- Node1 -->
<g id="Node000001" class="node">
<title>Node1</title>
<g id="a_Node000001"><a xlink:href="classtriggeralgs_1_1TriggerCandidateMakerADCSimpleWindow.html" target="_top" xlink:title=" ">
<polygon fill="white" stroke="#666666" points="314,-275.5 175,-275.5 175,-245 314,-245 314,-275.5"/>
<text text-anchor="start" x="183" y="-262" font-family="Helvetica,sans-Serif" font-size="10.00">triggeralgs::TriggerCandidate</text>
<text text-anchor="middle" x="244.5" y="-250.75" font-family="Helvetica,sans-Serif" font-size="10.00">MakerADCSimpleWindow</text>
</a>
</g>
</g>
<!-- Node0&#45;&gt;Node1 -->
<g id="edge361_Node000000_Node000001" class="edge">
<title>Node0&#45;&gt;Node1</title>
<g id="a_edge361_Node000000_Node000001"><a xlink:title=" ">
<path fill="none" stroke="#63b8ff" d="M90.92,-161.3C110.55,-183.15 142.05,-214.97 175,-235.25 180.71,-238.77 187,-241.9 193.37,-244.65"/>
<polygon fill="#63b8ff" stroke="#63b8ff" points="93.74,-159.22 84.5,-154.03 88.49,-163.85 93.74,-159.22"/>
</a>
</g>
</g>
<!-- Node2 -->
<g id="Node000002" class="node">
<title>Node2</title>
<g id="a_Node000002"><a xlink:href="classtriggeralgs_1_1TriggerCandidateMakerHorizontalMuon.html" target="_top" xlink:title=" ">
<polygon fill="white" stroke="#666666" points="314,-226.5 175,-226.5 175,-196 314,-196 314,-226.5"/>
<text text-anchor="start" x="183" y="-213" font-family="Helvetica,sans-Serif" font-size="10.00">triggeralgs::TriggerCandidate</text>
<text text-anchor="middle" x="244.5" y="-201.75" font-family="Helvetica,sans-Serif" font-size="10.00">MakerHorizontalMuon</text>
</a>
</g>
</g>
<!-- Node0&#45;&gt;Node2 -->
<g id="edge362_Node000000_Node000002" class="edge">
<title>Node0&#45;&gt;Node2</title>
<g id="a_edge362_Node000000_Node000002"><a xlink:title=" ">
<path fill="none" stroke="#63b8ff" d="M111.87,-157.68C130.92,-166.82 153.93,-177.48 175,-186.25 182.6,-189.41 190.75,-192.58 198.69,-195.54"/>
<polygon fill="#63b8ff" stroke="#63b8ff" points="113.62,-154.64 103.09,-153.44 110.57,-160.94 113.62,-154.64"/>
</a>
</g>
</g>
<!-- Node3 -->
<g id="Node000003" class="node">
<title>Node3</title>
<g id="a_Node000003"><a xlink:href="classtriggeralgs_1_1TriggerCandidateMakerMichelElectron.html" target="_top" xlink:title=" ">
<polygon fill="white" stroke="#666666" points="314,-177.5 175,-177.5 175,-147 314,-147 314,-177.5"/>
<text text-anchor="start" x="183" y="-164" font-family="Helvetica,sans-Serif" font-size="10.00">triggeralgs::TriggerCandidate</text>
<text text-anchor="middle" x="244.5" y="-152.75" font-family="Helvetica,sans-Serif" font-size="10.00">MakerMichelElectron</text>
</a>
</g>
</g>
<!-- Node0&#45;&gt;Node3 -->
<g id="edge363_Node000000_Node000003" class="edge">
<title>Node0&#45;&gt;Node3</title>
<g id="a_edge363_Node000000_Node000003"><a xlink:title=" ">
<path fill="none" stroke="#63b8ff" d="M150.62,-148.83C158.62,-149.98 166.7,-151.15 174.58,-152.29"/>
<polygon fill="#63b8ff" stroke="#63b8ff" points="151.27,-145.39 140.87,-147.42 150.27,-152.31 151.27,-145.39"/>
</a>
</g>
</g>
<!-- Node4 -->
<g id="Node000004" class="node">
<title>Node4</title>
<g id="a_Node000004"><a xlink:href="classtriggeralgs_1_1TriggerCandidateMakerPlaneCoincidence.html" target="_top" xlink:title=" ">
<polygon fill="white" stroke="#666666" points="314,-128.5 175,-128.5 175,-98 314,-98 314,-128.5"/>
<text text-anchor="start" x="183" y="-115" font-family="Helvetica,sans-Serif" font-size="10.00">triggeralgs::TriggerCandidate</text>
<text text-anchor="middle" x="244.5" y="-103.75" font-family="Helvetica,sans-Serif" font-size="10.00">MakerPlaneCoincidence</text>
</a>
</g>
</g>
<!-- Node0&#45;&gt;Node4 -->
<g id="edge364_Node000000_Node000004" class="edge">
<title>Node0&#45;&gt;Node4</title>
<g id="a_edge364_Node000000_Node000004"><a xlink:title=" ">
<path fill="none" stroke="#63b8ff" d="M150.62,-126.14C158.62,-125.02 166.7,-123.9 174.58,-122.81"/>
<polygon fill="#63b8ff" stroke="#63b8ff" points="150.29,-122.65 140.87,-127.49 151.26,-129.58 150.29,-122.65"/>
</a>
</g>
</g>
<!-- Node5 -->
<g id="Node000005" class="node">
<title>Node5</title>
<g id="a_Node000005"><a xlink:href="classtriggeralgs_1_1TriggerCandidateMakerPrescale.html" target="_top" xlink:title=" ">
<polygon fill="white" stroke="#666666" points="314,-79.5 175,-79.5 175,-49 314,-49 314,-79.5"/>
<text text-anchor="start" x="183" y="-66" font-family="Helvetica,sans-Serif" font-size="10.00">triggeralgs::TriggerCandidate</text>
<text text-anchor="middle" x="244.5" y="-54.75" font-family="Helvetica,sans-Serif" font-size="10.00">MakerPrescale</text>
</a>
</g>
</g>
<!-- Node0&#45;&gt;Node5 -->
<g id="edge365_Node000000_Node000005" class="edge">
<title>Node0&#45;&gt;Node5</title>
<g id="a_edge365_Node000000_Node000005"><a xlink:title=" ">
<path fill="none" stroke="#63b8ff" d="M113.02,-116.78C131.86,-107.95 154.38,-97.73 175,-89.25 182.73,-86.07 191.02,-82.87 199.08,-79.87"/>
<polygon fill="#63b8ff" stroke="#63b8ff" points="111.6,-113.57 104.05,-121.01 114.59,-119.91 111.6,-113.57"/>
</a>
</g>
</g>
<!-- Node6 -->
<g id="Node000006" class="node">
<title>Node6</title>
<g id="a_Node000006"><a xlink:href="classtriggeralgs_1_1TriggerCandidateMakerSupernova.html" target="_top" xlink:title=" ">
<polygon fill="white" stroke="#666666" points="314,-30.5 175,-30.5 175,0 314,0 314,-30.5"/>
<text text-anchor="start" x="183" y="-17" font-family="Helvetica,sans-Serif" font-size="10.00">triggeralgs::TriggerCandidate</text>
<text text-anchor="middle" x="244.5" y="-5.75" font-family="Helvetica,sans-Serif" font-size="10.00">MakerSupernova</text>
</a>
</g>
</g>
<!-- Node0&#45;&gt;Node6 -->
<g id="edge366_Node000000_Node000006" class="edge">
<title>Node0&#45;&gt;Node6</title>
<g id="a_edge366_Node000000_Node000006"><a xlink:title=" ">
<path fill="none" stroke="#63b8ff" d="M90.96,-113.46C110.64,-91.84 142.15,-60.35 175,-40.25 180.72,-36.75 187.01,-33.62 193.39,-30.87"/>
<polygon fill="#63b8ff" stroke="#63b8ff" points="88.6,-110.85 84.54,-120.64 93.82,-115.52 88.6,-110.85"/>
</a>
</g>
</g>
</g>
</svg>
