<?xml version="1.0" encoding="UTF-8" standalone="no"?>
<!DOCTYPE svg PUBLIC "-//W3C//DTD SVG 1.1//EN"
 "http://www.w3.org/Graphics/SVG/1.1/DTD/svg11.dtd">
<!-- Generated by graphviz version 9.0.0 (20230911.1827)
 -->
<!-- Title: Graphical Class Hierarchy Pages: 1 -->
<svg width="300pt" height="333pt"
 viewBox="0.00 0.00 299.50 332.50" xmlns="http://www.w3.org/2000/svg" xmlns:xlink="http://www.w3.org/1999/xlink">
<g id="graph0" class="graph" transform="scale(1 1) rotate(0) translate(4 328.5)">
<title>Graphical Class Hierarchy</title>
<!-- Node0 -->
<g id="Node000000" class="node">
<title>Node0</title>
<g id="a_Node000000"><a xlink:href="classtriggeralgs_1_1TriggerActivityMaker.html" target="_top" xlink:title=" ">
<polygon fill="white" stroke="#666666" points="127.75,-177.5 0,-177.5 0,-147 127.75,-147 127.75,-177.5"/>
<text text-anchor="start" x="8" y="-164" font-family="Helvetica,sans-Serif" font-size="10.00">triggeralgs::TriggerActivity</text>
<text text-anchor="middle" x="63.88" y="-152.75" font-family="Helvetica,sans-Serif" font-size="10.00">Maker</text>
</a>
</g>
</g>
<!-- Node1 -->
<g id="Node000001" class="node">
<title>Node1</title>
<g id="a_Node000001"><a xlink:href="classtriggeralgs_1_1TriggerActivityMakerADCSimpleWindow.html" target="_top" xlink:title=" ">
<polygon fill="white" stroke="#666666" points="291.5,-324.5 163.75,-324.5 163.75,-294 291.5,-294 291.5,-324.5"/>
<text text-anchor="start" x="171.75" y="-311" font-family="Helvetica,sans-Serif" font-size="10.00">triggeralgs::TriggerActivity</text>
<text text-anchor="middle" x="227.62" y="-299.75" font-family="Helvetica,sans-Serif" font-size="10.00">MakerADCSimpleWindow</text>
</a>
</g>
</g>
<!-- Node0&#45;&gt;Node1 -->
<g id="edge354_Node000000_Node000001" class="edge">
<title>Node0&#45;&gt;Node1</title>
<g id="a_edge354_Node000000_Node000001"><a xlink:title=" ">
<path fill="none" stroke="#63b8ff" d="M79.76,-187.47C96.94,-214.66 127.53,-257.61 163.75,-284.25 168.58,-287.8 173.98,-290.93 179.53,-293.66"/>
<polygon fill="#63b8ff" stroke="#63b8ff" points="82.87,-185.85 74.64,-179.18 76.91,-189.52 82.87,-185.85"/>
</a>
</g>
</g>
<!-- Node2 -->
<g id="Node000002" class="node">
<title>Node2</title>
<g id="a_Node000002"><a xlink:href="classtriggeralgs_1_1TriggerActivityMakerDBSCAN.html" target="_top" xlink:title=" ">
<polygon fill="white" stroke="#666666" points="291.5,-275.5 163.75,-275.5 163.75,-245 291.5,-245 291.5,-275.5"/>
<text text-anchor="start" x="171.75" y="-262" font-family="Helvetica,sans-Serif" font-size="10.00">triggeralgs::TriggerActivity</text>
<text text-anchor="middle" x="227.62" y="-250.75" font-family="Helvetica,sans-Serif" font-size="10.00">MakerDBSCAN</text>
</a>
</g>
</g>
<!-- Node0&#45;&gt;Node2 -->
<g id="edge355_Node000000_Node000002" class="edge">
<title>Node0&#45;&gt;Node2</title>
<g id="a_edge355_Node000000_Node000002"><a xlink:title=" ">
<path fill="none" stroke="#63b8ff" d="M91.62,-184.96C110.82,-200.5 137.78,-220.82 163.75,-235.25 169.81,-238.62 176.41,-241.76 182.99,-244.6"/>
<polygon fill="#63b8ff" stroke="#63b8ff" points="93.98,-182.36 84.03,-178.72 89.53,-187.77 93.98,-182.36"/>
</a>
</g>
</g>
<!-- Node3 -->
<g id="Node000003" class="node">
<title>Node3</title>
<g id="a_Node000003"><a xlink:href="classtriggeralgs_1_1TriggerActivityMakerHorizontalMuon.html" target="_top" xlink:title=" ">
<polygon fill="white" stroke="#666666" points="291.5,-226.5 163.75,-226.5 163.75,-196 291.5,-196 291.5,-226.5"/>
<text text-anchor="start" x="171.75" y="-213" font-family="Helvetica,sans-Serif" font-size="10.00">triggeralgs::TriggerActivity</text>
<text text-anchor="middle" x="227.62" y="-201.75" font-family="Helvetica,sans-Serif" font-size="10.00">MakerHorizontalMuon</text>
</a>
</g>
</g>
<!-- Node0&#45;&gt;Node3 -->
<g id="edge356_Node000000_Node000003" class="edge">
<title>Node0&#45;&gt;Node3</title>
<g id="a_edge356_Node000000_Node000003"><a xlink:title=" ">
<path fill="none" stroke="#63b8ff" d="M127.17,-181.12C142.86,-185.87 159.54,-190.93 174.66,-195.51"/>
<polygon fill="#63b8ff" stroke="#63b8ff" points="128.53,-177.88 117.95,-178.33 126.5,-184.58 128.53,-177.88"/>
</a>
</g>
</g>
<!-- Node4 -->
<g id="Node000004" class="node">
<title>Node4</title>
<g id="a_Node000004"><a xlink:href="classtriggeralgs_1_1TriggerActivityMakerMichelElectron.html" target="_top" xlink:title=" ">
<polygon fill="white" stroke="#666666" points="291.5,-177.5 163.75,-177.5 163.75,-147 291.5,-147 291.5,-177.5"/>
<text text-anchor="start" x="171.75" y="-164" font-family="Helvetica,sans-Serif" font-size="10.00">triggeralgs::TriggerActivity</text>
<text text-anchor="middle" x="227.62" y="-152.75" font-family="Helvetica,sans-Serif" font-size="10.00">MakerMichelElectron</text>
</a>
</g>
</g>
<!-- Node0&#45;&gt;Node4 -->
<g id="edge357_Node000000_Node000004" class="edge">
<title>Node0&#45;&gt;Node4</title>
<g id="a_edge357_Node000000_Node000004"><a xlink:title=" ">
<path fill="none" stroke="#63b8ff" d="M139.17,-162.25C147.22,-162.25 155.36,-162.25 163.26,-162.25"/>
<polygon fill="#63b8ff" stroke="#63b8ff" points="139.39,-158.75 129.39,-162.25 139.39,-165.75 139.39,-158.75"/>
</a>
</g>
</g>
<!-- Node5 -->
<g id="Node000005" class="node">
<title>Node5</title>
<g id="a_Node000005"><a xlink:href="classtriggeralgs_1_1TriggerActivityMakerPlaneCoincidence.html" target="_top" xlink:title=" ">
<polygon fill="white" stroke="#666666" points="291.5,-128.5 163.75,-128.5 163.75,-98 291.5,-98 291.5,-128.5"/>
<text text-anchor="start" x="171.75" y="-115" font-family="Helvetica,sans-Serif" font-size="10.00">triggeralgs::TriggerActivity</text>
<text text-anchor="middle" x="227.62" y="-103.75" font-family="Helvetica,sans-Serif" font-size="10.00">MakerPlaneCoincidence</text>
</a>
</g>
</g>
<!-- Node0&#45;&gt;Node5 -->
<g id="edge358_Node000000_Node000005" class="edge">
<title>Node0&#45;&gt;Node5</title>
<g id="a_edge358_Node000000_Node000005"><a xlink:title=" ">
<path fill="none" stroke="#63b8ff" d="M127.17,-143.38C142.86,-138.63 159.54,-133.57 174.66,-128.99"/>
<polygon fill="#63b8ff" stroke="#63b8ff" points="126.5,-139.92 117.95,-146.17 128.53,-146.62 126.5,-139.92"/>
</a>
</g>
</g>
<!-- Node6 -->
<g id="Node000006" class="node">
<title>Node6</title>
<g id="a_Node000006"><a xlink:href="classtriggeralgs_1_1TriggerActivityMakerPrescale.html" target="_top" xlink:title=" ">
<polygon fill="white" stroke="#666666" points="291.5,-79.5 163.75,-79.5 163.75,-49 291.5,-49 291.5,-79.5"/>
<text text-anchor="start" x="171.75" y="-66" font-family="Helvetica,sans-Serif" font-size="10.00">triggeralgs::TriggerActivity</text>
<text text-anchor="middle" x="227.62" y="-54.75" font-family="Helvetica,sans-Serif" font-size="10.00">MakerPrescale</text>
</a>
</g>
</g>
<!-- Node0&#45;&gt;Node6 -->
<g id="edge359_Node000000_Node000006" class="edge">
<title>Node0&#45;&gt;Node6</title>
<g id="a_edge359_Node000000_Node000006"><a xlink:title=" ">
<path fill="none" stroke="#63b8ff" d="M91.62,-139.54C110.82,-124 137.78,-103.68 163.75,-89.25 169.81,-85.88 176.41,-82.74 182.99,-79.9"/>
<polygon fill="#63b8ff" stroke="#63b8ff" points="89.53,-136.73 84.03,-145.78 93.98,-142.14 89.53,-136.73"/>
</a>
</g>
</g>
<!-- Node7 -->
<g id="Node000007" class="node">
<title>Node7</title>
<g id="a_Node000007"><a xlink:href="classtriggeralgs_1_1TriggerActivityMakerSupernova.html" target="_top" xlink:title=" ">
<polygon fill="white" stroke="#666666" points="291.5,-30.5 163.75,-30.5 163.75,0 291.5,0 291.5,-30.5"/>
<text text-anchor="start" x="171.75" y="-17" font-family="Helvetica,sans-Serif" font-size="10.00">triggeralgs::TriggerActivity</text>
<text text-anchor="middle" x="227.62" y="-5.75" font-family="Helvetica,sans-Serif" font-size="10.00">MakerSupernova</text>
</a>
</g>
</g>
<!-- Node0&#45;&gt;Node7 -->
<g id="edge360_Node000000_Node000007" class="edge">
<title>Node0&#45;&gt;Node7</title>
<g id="a_edge360_Node000000_Node000007"><a xlink:title=" ">
<path fill="none" stroke="#63b8ff" d="M79.76,-137.03C96.94,-109.84 127.53,-66.89 163.75,-40.25 168.58,-36.7 173.98,-33.57 179.53,-30.84"/>
<polygon fill="#63b8ff" stroke="#63b8ff" points="76.91,-134.98 74.64,-145.32 82.87,-138.65 76.91,-134.98"/>
</a>
</g>
</g>
</g>
</svg>
