<?xml version="1.0" encoding="UTF-8" standalone="no"?>
<!DOCTYPE svg PUBLIC "-//W3C//DTD SVG 1.1//EN"
 "http://www.w3.org/Graphics/SVG/1.1/DTD/svg11.dtd">
<!-- Generated by graphviz version 9.0.0 (20230911.1827)
 -->
<!-- Title: sourcecode/ers/include/ers/InputStream.hpp Pages: 1 -->
<svg width="417pt" height="172pt"
 viewBox="0.00 0.00 417.25 171.50" xmlns="http://www.w3.org/2000/svg" xmlns:xlink="http://www.w3.org/1999/xlink">
<g id="graph0" class="graph" transform="scale(1 1) rotate(0) translate(4 167.5)">
<title>sourcecode/ers/include/ers/InputStream.hpp</title>
<!-- Node1 -->
<g id="Node000001" class="node">
<title>Node1</title>
<g id="a_Node000001"><a xlink:title=" ">
<polygon fill="#999999" stroke="#666666" points="339.88,-163.5 223.38,-163.5 223.38,-133 339.88,-133 339.88,-163.5"/>
<text text-anchor="start" x="231.38" y="-150" font-family="Helvetica,sans-Serif" font-size="10.00">sourcecode/ers/include</text>
<text text-anchor="middle" x="281.62" y="-138.75" font-family="Helvetica,sans-Serif" font-size="10.00">/ers/InputStream.hpp</text>
</a>
</g>
</g>
<!-- Node2 -->
<g id="Node000002" class="node">
<title>Node2</title>
<g id="a_Node000002"><a xlink:href="NullStream_8hpp.html" target="_top" xlink:title=" ">
<polygon fill="white" stroke="#666666" points="248,-97 111.25,-97 111.25,-66.5 248,-66.5 248,-97"/>
<text text-anchor="start" x="119.25" y="-83.5" font-family="Helvetica,sans-Serif" font-size="10.00">sourcecode/ers/include</text>
<text text-anchor="middle" x="179.62" y="-72.25" font-family="Helvetica,sans-Serif" font-size="10.00">/ers/internal/NullStream.hpp</text>
</a>
</g>
</g>
<!-- Node1&#45;&gt;Node2 -->
<g id="edge1_Node000001_Node000002" class="edge">
<title>Node1&#45;&gt;Node2</title>
<g id="a_edge1_Node000001_Node000002"><a xlink:title=" ">
<path fill="none" stroke="#63b8ff" d="M248.99,-126.61C233.91,-117.08 216.35,-105.98 202.68,-97.33"/>
<polygon fill="#63b8ff" stroke="#63b8ff" points="246.88,-129.42 257.2,-131.81 250.62,-123.5 246.88,-129.42"/>
</a>
</g>
</g>
<!-- Node5 -->
<g id="Node000005" class="node">
<title>Node5</title>
<g id="a_Node000005"><a xlink:href="StreamManager_8cpp.html" target="_top" xlink:title=" ">
<polygon fill="white" stroke="#666666" points="341.62,-30.5 235.62,-30.5 235.62,0 341.62,0 341.62,-30.5"/>
<text text-anchor="start" x="243.62" y="-17" font-family="Helvetica,sans-Serif" font-size="10.00">sourcecode/ers/src</text>
<text text-anchor="middle" x="288.62" y="-5.75" font-family="Helvetica,sans-Serif" font-size="10.00">/StreamManager.cpp</text>
</a>
</g>
</g>
<!-- Node1&#45;&gt;Node5 -->
<g id="edge6_Node000001_Node000005" class="edge">
<title>Node1&#45;&gt;Node5</title>
<g id="a_edge6_Node000001_Node000005"><a xlink:title=" ">
<path fill="none" stroke="#63b8ff" d="M283,-121.43C284.45,-94.34 286.68,-52.71 287.85,-30.83"/>
<polygon fill="#63b8ff" stroke="#63b8ff" points="279.52,-121.05 282.48,-131.22 286.51,-121.42 279.52,-121.05"/>
</a>
</g>
</g>
<!-- Node6 -->
<g id="Node000006" class="node">
<title>Node6</title>
<g id="a_Node000006"><a xlink:href="InputStream_8cpp.html" target="_top" xlink:title=" ">
<polygon fill="white" stroke="#666666" points="409.25,-97 310,-97 310,-66.5 409.25,-66.5 409.25,-97"/>
<text text-anchor="start" x="318" y="-83.5" font-family="Helvetica,sans-Serif" font-size="10.00">sourcecode/ers/src</text>
<text text-anchor="middle" x="359.62" y="-72.25" font-family="Helvetica,sans-Serif" font-size="10.00">/InputStream.cpp</text>
</a>
</g>
</g>
<!-- Node1&#45;&gt;Node6 -->
<g id="edge5_Node000001_Node000006" class="edge">
<title>Node1&#45;&gt;Node6</title>
<g id="a_edge5_Node000001_Node000006"><a xlink:title=" ">
<path fill="none" stroke="#63b8ff" d="M307.91,-125.52C319.13,-116.23 331.94,-105.65 342,-97.33"/>
<polygon fill="#63b8ff" stroke="#63b8ff" points="305.97,-122.58 300.49,-131.65 310.43,-127.97 305.97,-122.58"/>
</a>
</g>
</g>
<!-- Node3 -->
<g id="Node000003" class="node">
<title>Node3</title>
<g id="a_Node000003"><a xlink:href="OutputStream_8cpp.html" target="_top" xlink:title=" ">
<polygon fill="white" stroke="#666666" points="99.25,-30.5 0,-30.5 0,0 99.25,0 99.25,-30.5"/>
<text text-anchor="start" x="8" y="-17" font-family="Helvetica,sans-Serif" font-size="10.00">sourcecode/ers/src</text>
<text text-anchor="middle" x="49.62" y="-5.75" font-family="Helvetica,sans-Serif" font-size="10.00">/OutputStream.cpp</text>
</a>
</g>
</g>
<!-- Node2&#45;&gt;Node3 -->
<g id="edge2_Node000002_Node000003" class="edge">
<title>Node2&#45;&gt;Node3</title>
<g id="a_edge2_Node000002_Node000003"><a xlink:title=" ">
<path fill="none" stroke="#63b8ff" d="M139.94,-61.06C120.31,-51.32 97.02,-39.76 79.01,-30.83"/>
<polygon fill="#63b8ff" stroke="#63b8ff" points="138.26,-64.13 148.77,-65.44 141.37,-57.86 138.26,-64.13"/>
</a>
</g>
</g>
<!-- Node4 -->
<g id="Node000004" class="node">
<title>Node4</title>
<g id="a_Node000004"><a xlink:href="StreamFactory_8cpp.html" target="_top" xlink:title=" ">
<polygon fill="white" stroke="#666666" points="218,-30.5 117.25,-30.5 117.25,0 218,0 218,-30.5"/>
<text text-anchor="start" x="125.25" y="-17" font-family="Helvetica,sans-Serif" font-size="10.00">sourcecode/ers/src</text>
<text text-anchor="middle" x="167.62" y="-5.75" font-family="Helvetica,sans-Serif" font-size="10.00">/StreamFactory.cpp</text>
</a>
</g>
</g>
<!-- Node2&#45;&gt;Node4 -->
<g id="edge3_Node000002_Node000004" class="edge">
<title>Node2&#45;&gt;Node4</title>
<g id="a_edge3_Node000002_Node000004"><a xlink:title=" ">
<path fill="none" stroke="#63b8ff" d="M174.8,-54.81C173.28,-46.64 171.66,-37.91 170.34,-30.83"/>
<polygon fill="#63b8ff" stroke="#63b8ff" points="171.36,-55.43 176.63,-64.63 178.24,-54.15 171.36,-55.43"/>
</a>
</g>
</g>
<!-- Node2&#45;&gt;Node5 -->
<g id="edge4_Node000002_Node000005" class="edge">
<title>Node2&#45;&gt;Node5</title>
<g id="a_edge4_Node000002_Node000005"><a xlink:title=" ">
<path fill="none" stroke="#63b8ff" d="M214.04,-60.39C230.26,-50.79 249.24,-39.56 263.99,-30.83"/>
<polygon fill="#63b8ff" stroke="#63b8ff" points="212.49,-57.24 205.66,-65.34 216.05,-63.26 212.49,-57.24"/>
</a>
</g>
</g>
</g>
</svg>
