<?xml version="1.0" encoding="UTF-8" standalone="no"?>
<!DOCTYPE svg PUBLIC "-//W3C//DTD SVG 1.1//EN"
 "http://www.w3.org/Graphics/SVG/1.1/DTD/svg11.dtd">
<!-- Generated by graphviz version 9.0.0 (20230911.1827)
 -->
<!-- Title: sourcecode/appfwk/include/appfwk/Interruptible.hpp Pages: 1 -->
<svg width="226pt" height="94pt"
 viewBox="0.00 0.00 225.75 93.75" xmlns="http://www.w3.org/2000/svg" xmlns:xlink="http://www.w3.org/1999/xlink">
<g id="graph0" class="graph" transform="scale(1 1) rotate(0) translate(4 89.75)">
<title>sourcecode/appfwk/include/appfwk/Interruptible.hpp</title>
<!-- Node1 -->
<g id="Node000001" class="node">
<title>Node1</title>
<g id="a_Node000001"><a xlink:title=" ">
<polygon fill="#999999" stroke="#666666" points="177.88,-85.75 43.38,-85.75 43.38,-55.25 177.88,-55.25 177.88,-85.75"/>
<text text-anchor="start" x="51.38" y="-72.25" font-family="Helvetica,sans-Serif" font-size="10.00">sourcecode/appfwk/include</text>
<text text-anchor="middle" x="110.62" y="-61" font-family="Helvetica,sans-Serif" font-size="10.00">/appfwk/Interruptible.hpp</text>
</a>
</g>
</g>
<!-- Node2 -->
<g id="Node000002" class="node">
<title>Node2</title>
<g id="a_Node000002"><a xlink:title=" ">
<polygon fill="#e0e0e0" stroke="#999999" points="45.25,-19.25 0,-19.25 0,0 45.25,0 45.25,-19.25"/>
<text text-anchor="middle" x="22.62" y="-5.75" font-family="Helvetica,sans-Serif" font-size="10.00">atomic</text>
</a>
</g>
</g>
<!-- Node1&#45;&gt;Node2 -->
<g id="edge1_Node000001_Node000002" class="edge">
<title>Node1&#45;&gt;Node2</title>
<g id="a_edge1_Node000001_Node000002"><a xlink:title=" ">
<path fill="none" stroke="#63b8ff" d="M88.87,-54.95C75.73,-46.15 59,-34.96 45.64,-26.02"/>
<polygon fill="#63b8ff" stroke="#63b8ff" points="47.71,-23.19 37.45,-20.54 43.81,-29.01 47.71,-23.19"/>
</a>
</g>
</g>
<!-- Node3 -->
<g id="Node000003" class="node">
<title>Node3</title>
<g id="a_Node000003"><a xlink:title=" ">
<polygon fill="#e0e0e0" stroke="#999999" points="157.62,-19.25 63.62,-19.25 63.62,0 157.62,0 157.62,-19.25"/>
<text text-anchor="middle" x="110.62" y="-5.75" font-family="Helvetica,sans-Serif" font-size="10.00">condition_variable</text>
</a>
</g>
</g>
<!-- Node1&#45;&gt;Node3 -->
<g id="edge2_Node000001_Node000003" class="edge">
<title>Node1&#45;&gt;Node3</title>
<g id="a_edge2_Node000001_Node000003"><a xlink:title=" ">
<path fill="none" stroke="#63b8ff" d="M110.62,-54.95C110.62,-47.71 110.62,-38.84 110.62,-30.94"/>
<polygon fill="#63b8ff" stroke="#63b8ff" points="114.13,-31.21 110.63,-21.21 107.13,-31.21 114.13,-31.21"/>
</a>
</g>
</g>
<!-- Node4 -->
<g id="Node000004" class="node">
<title>Node4</title>
<g id="a_Node000004"><a xlink:title=" ">
<polygon fill="#e0e0e0" stroke="#999999" points="217.75,-19.25 175.5,-19.25 175.5,0 217.75,0 217.75,-19.25"/>
<text text-anchor="middle" x="196.62" y="-5.75" font-family="Helvetica,sans-Serif" font-size="10.00">mutex</text>
</a>
</g>
</g>
<!-- Node1&#45;&gt;Node4 -->
<g id="edge3_Node000001_Node000004" class="edge">
<title>Node1&#45;&gt;Node4</title>
<g id="a_edge3_Node000001_Node000004"><a xlink:title=" ">
<path fill="none" stroke="#63b8ff" d="M131.88,-54.95C144.73,-46.15 161.08,-34.96 174.14,-26.02"/>
<polygon fill="#63b8ff" stroke="#63b8ff" points="175.84,-29.09 182.12,-20.56 171.89,-23.32 175.84,-29.09"/>
</a>
</g>
</g>
</g>
</svg>
