<?xml version="1.0" encoding="UTF-8" standalone="no"?>
<!DOCTYPE svg PUBLIC "-//W3C//DTD SVG 1.1//EN"
 "http://www.w3.org/Graphics/SVG/1.1/DTD/svg11.dtd">
<!-- Generated by graphviz version 9.0.0 (20230911.1827)
 -->
<!-- Title: sourcecode/ers/include/ers/internal/IssueDeclarationMacro.hpp Pages: 1 -->
<svg width="692pt" height="116pt"
 viewBox="0.00 0.00 692.25 116.25" xmlns="http://www.w3.org/2000/svg" xmlns:xlink="http://www.w3.org/1999/xlink">
<g id="graph0" class="graph" transform="scale(1 1) rotate(0) translate(4 112.25)">
<title>sourcecode/ers/include/ers/internal/IssueDeclarationMacro.hpp</title>
<!-- Node1 -->
<g id="Node000001" class="node">
<title>Node1</title>
<g id="a_Node000001"><a xlink:title=" ">
<polygon fill="#999999" stroke="#666666" points="413,-108.25 270.25,-108.25 270.25,-66.5 413,-66.5 413,-108.25"/>
<text text-anchor="start" x="278.25" y="-94.75" font-family="Helvetica,sans-Serif" font-size="10.00">sourcecode/ers/include</text>
<text text-anchor="start" x="278.25" y="-83.5" font-family="Helvetica,sans-Serif" font-size="10.00">/ers/internal/IssueDeclaration</text>
<text text-anchor="middle" x="341.62" y="-72.25" font-family="Helvetica,sans-Serif" font-size="10.00">Macro.hpp</text>
</a>
</g>
</g>
<!-- Node2 -->
<g id="Node000002" class="node">
<title>Node2</title>
<g id="a_Node000002"><a xlink:title=" ">
<polygon fill="#e0e0e0" stroke="#999999" points="99.25,-30.5 0,-30.5 0,0 99.25,0 99.25,-30.5"/>
<text text-anchor="start" x="8" y="-17" font-family="Helvetica,sans-Serif" font-size="10.00">boost/preprocessor</text>
<text text-anchor="middle" x="49.62" y="-5.75" font-family="Helvetica,sans-Serif" font-size="10.00">/if.hpp</text>
</a>
</g>
</g>
<!-- Node1&#45;&gt;Node2 -->
<g id="edge1_Node000001_Node000002" class="edge">
<title>Node1&#45;&gt;Node2</title>
<g id="a_edge1_Node000001_Node000002"><a xlink:title=" ">
<path fill="none" stroke="#63b8ff" d="M269.91,-69.38C226.3,-59.01 169.18,-45.39 110.57,-31.21"/>
<polygon fill="#63b8ff" stroke="#63b8ff" points="111.62,-27.86 101.08,-28.91 109.97,-34.66 111.62,-27.86"/>
</a>
</g>
</g>
<!-- Node3 -->
<g id="Node000003" class="node">
<title>Node3</title>
<g id="a_Node000003"><a xlink:title=" ">
<polygon fill="#e0e0e0" stroke="#999999" points="216.25,-30.5 117,-30.5 117,0 216.25,0 216.25,-30.5"/>
<text text-anchor="start" x="125" y="-17" font-family="Helvetica,sans-Serif" font-size="10.00">boost/preprocessor</text>
<text text-anchor="middle" x="166.62" y="-5.75" font-family="Helvetica,sans-Serif" font-size="10.00">/seq.hpp</text>
</a>
</g>
</g>
<!-- Node1&#45;&gt;Node3 -->
<g id="edge2_Node000001_Node000003" class="edge">
<title>Node1&#45;&gt;Node3</title>
<g id="a_edge2_Node000001_Node000003"><a xlink:title=" ">
<path fill="none" stroke="#63b8ff" d="M291.01,-66.09C266.67,-56.34 237.68,-44.72 213.81,-35.16"/>
<polygon fill="#63b8ff" stroke="#63b8ff" points="215.22,-31.95 204.64,-31.48 212.62,-38.45 215.22,-31.95"/>
</a>
</g>
</g>
<!-- Node4 -->
<g id="Node000004" class="node">
<title>Node4</title>
<g id="a_Node000004"><a xlink:title=" ">
<polygon fill="#e0e0e0" stroke="#999999" points="333.25,-30.5 234,-30.5 234,0 333.25,0 333.25,-30.5"/>
<text text-anchor="start" x="242" y="-17" font-family="Helvetica,sans-Serif" font-size="10.00">boost/preprocessor</text>
<text text-anchor="middle" x="283.62" y="-5.75" font-family="Helvetica,sans-Serif" font-size="10.00">/tuple.hpp</text>
</a>
</g>
</g>
<!-- Node1&#45;&gt;Node4 -->
<g id="edge3_Node000001_Node000004" class="edge">
<title>Node1&#45;&gt;Node4</title>
<g id="a_edge3_Node000001_Node000004"><a xlink:title=" ">
<path fill="none" stroke="#63b8ff" d="M324.85,-66.09C317.97,-57.77 309.97,-48.1 302.85,-39.5"/>
<polygon fill="#63b8ff" stroke="#63b8ff" points="305.61,-37.34 296.54,-31.87 300.22,-41.8 305.61,-37.34"/>
</a>
</g>
</g>
<!-- Node5 -->
<g id="Node000005" class="node">
<title>Node5</title>
<g id="a_Node000005"><a xlink:title=" ">
<polygon fill="#e0e0e0" stroke="#999999" points="450.25,-30.5 351,-30.5 351,0 450.25,0 450.25,-30.5"/>
<text text-anchor="start" x="359" y="-17" font-family="Helvetica,sans-Serif" font-size="10.00">boost/preprocessor</text>
<text text-anchor="middle" x="400.62" y="-5.75" font-family="Helvetica,sans-Serif" font-size="10.00">/logical.hpp</text>
</a>
</g>
</g>
<!-- Node1&#45;&gt;Node5 -->
<g id="edge4_Node000001_Node000005" class="edge">
<title>Node1&#45;&gt;Node5</title>
<g id="a_edge4_Node000001_Node000005"><a xlink:title=" ">
<path fill="none" stroke="#63b8ff" d="M358.69,-66.09C365.69,-57.77 373.83,-48.1 381.07,-39.5"/>
<polygon fill="#63b8ff" stroke="#63b8ff" points="383.73,-41.76 387.49,-31.86 378.38,-37.26 383.73,-41.76"/>
</a>
</g>
</g>
<!-- Node6 -->
<g id="Node000006" class="node">
<title>Node6</title>
<g id="a_Node000006"><a xlink:title=" ">
<polygon fill="#e0e0e0" stroke="#999999" points="567.25,-30.5 468,-30.5 468,0 567.25,0 567.25,-30.5"/>
<text text-anchor="start" x="476" y="-17" font-family="Helvetica,sans-Serif" font-size="10.00">boost/preprocessor</text>
<text text-anchor="middle" x="517.62" y="-5.75" font-family="Helvetica,sans-Serif" font-size="10.00">/stringize.hpp</text>
</a>
</g>
</g>
<!-- Node1&#45;&gt;Node6 -->
<g id="edge5_Node000001_Node000006" class="edge">
<title>Node1&#45;&gt;Node6</title>
<g id="a_edge5_Node000001_Node000006"><a xlink:title=" ">
<path fill="none" stroke="#63b8ff" d="M392.53,-66.09C417.01,-56.34 446.17,-44.72 470.17,-35.16"/>
<polygon fill="#63b8ff" stroke="#63b8ff" points="471.41,-38.43 479.4,-31.48 468.82,-31.93 471.41,-38.43"/>
</a>
</g>
</g>
<!-- Node7 -->
<g id="Node000007" class="node">
<title>Node7</title>
<g id="a_Node000007"><a xlink:title=" ">
<polygon fill="#e0e0e0" stroke="#999999" points="684.25,-30.5 585,-30.5 585,0 684.25,0 684.25,-30.5"/>
<text text-anchor="start" x="593" y="-17" font-family="Helvetica,sans-Serif" font-size="10.00">boost/preprocessor</text>
<text text-anchor="middle" x="634.62" y="-5.75" font-family="Helvetica,sans-Serif" font-size="10.00">/comparison.hpp</text>
</a>
</g>
</g>
<!-- Node1&#45;&gt;Node7 -->
<g id="edge6_Node000001_Node000007" class="edge">
<title>Node1&#45;&gt;Node7</title>
<g id="a_edge6_Node000001_Node000007"><a xlink:title=" ">
<path fill="none" stroke="#63b8ff" d="M413.39,-69.46C457.22,-59.09 514.69,-45.44 573.63,-31.22"/>
<polygon fill="#63b8ff" stroke="#63b8ff" points="574.27,-34.66 583.17,-28.91 572.63,-27.86 574.27,-34.66"/>
</a>
</g>
</g>
</g>
</svg>
