<?xml version="1.0" encoding="UTF-8" standalone="no"?>
<!DOCTYPE svg PUBLIC "-//W3C//DTD SVG 1.1//EN"
 "http://www.w3.org/Graphics/SVG/1.1/DTD/svg11.dtd">
<!-- Generated by graphviz version 9.0.0 (20230911.1827)
 -->
<!-- Title: sourcecode/oks/include/oks/kernel.hpp Pages: 1 -->
<svg width="4727pt" height="183pt"
 viewBox="0.00 0.00 4726.50 182.75" xmlns="http://www.w3.org/2000/svg" xmlns:xlink="http://www.w3.org/1999/xlink">
<g id="graph0" class="graph" transform="scale(1 1) rotate(0) translate(4 178.75)">
<title>sourcecode/oks/include/oks/kernel.hpp</title>
<!-- Node1 -->
<g id="Node000001" class="node">
<title>Node1</title>
<g id="a_Node000001"><a xlink:title=" ">
<polygon fill="#999999" stroke="#666666" points="2523.5,-174.75 2404.75,-174.75 2404.75,-144.25 2523.5,-144.25 2523.5,-174.75"/>
<text text-anchor="start" x="2412.75" y="-161.25" font-family="Helvetica,sans-Serif" font-size="10.00">sourcecode/oks/include</text>
<text text-anchor="middle" x="2464.12" y="-150" font-family="Helvetica,sans-Serif" font-size="10.00">/oks/kernel.hpp</text>
</a>
</g>
</g>
<!-- Node2 -->
<g id="Node000002" class="node">
<title>Node2</title>
<g id="a_Node000002"><a xlink:href="DFApplication_8cpp.html" target="_top" xlink:title=" ">
<polygon fill="white" stroke="#666666" points="114.25,-102.62 0,-102.62 0,-72.12 114.25,-72.12 114.25,-102.62"/>
<text text-anchor="start" x="8" y="-89.12" font-family="Helvetica,sans-Serif" font-size="10.00">sourcecode/appdal/src</text>
<text text-anchor="middle" x="57.12" y="-77.88" font-family="Helvetica,sans-Serif" font-size="10.00">/DFApplication.cpp</text>
</a>
</g>
</g>
<!-- Node1&#45;&gt;Node2 -->
<g id="edge1_Node000001_Node000002" class="edge">
<title>Node1&#45;&gt;Node2</title>
<g id="a_edge1_Node000001_Node000002"><a xlink:title=" ">
<path fill="none" stroke="#63b8ff" d="M2393.05,-158.12C2025.82,-156 351.7,-144.43 123.12,-108.25 115.56,-107.05 107.65,-105.21 100.05,-103.12"/>
<polygon fill="#63b8ff" stroke="#63b8ff" points="2392.76,-161.62 2402.78,-158.18 2392.8,-154.62 2392.76,-161.62"/>
</a>
</g>
</g>
<!-- Node3 -->
<g id="Node000003" class="node">
<title>Node3</title>
<g id="a_Node000003"><a xlink:href="DFOApplication_8cpp.html" target="_top" xlink:title=" ">
<polygon fill="white" stroke="#666666" points="246.25,-102.62 132,-102.62 132,-72.12 246.25,-72.12 246.25,-102.62"/>
<text text-anchor="start" x="140" y="-89.12" font-family="Helvetica,sans-Serif" font-size="10.00">sourcecode/appdal/src</text>
<text text-anchor="middle" x="189.12" y="-77.88" font-family="Helvetica,sans-Serif" font-size="10.00">/DFOApplication.cpp</text>
</a>
</g>
</g>
<!-- Node1&#45;&gt;Node3 -->
<g id="edge2_Node000001_Node000003" class="edge">
<title>Node1&#45;&gt;Node3</title>
<g id="a_edge2_Node000001_Node000003"><a xlink:title=" ">
<path fill="none" stroke="#63b8ff" d="M2393.1,-158.02C2038.7,-155.49 469.99,-142.4 255.12,-108.25 247.56,-107.05 239.65,-105.2 232.05,-103.12"/>
<polygon fill="#63b8ff" stroke="#63b8ff" points="2392.92,-161.52 2402.95,-158.09 2392.97,-154.52 2392.92,-161.52"/>
</a>
</g>
</g>
<!-- Node4 -->
<g id="Node000004" class="node">
<title>Node4</title>
<g id="a_Node000004"><a xlink:href="FakeDataApplication_8cpp.html" target="_top" xlink:title=" ">
<polygon fill="white" stroke="#666666" points="391.62,-102.62 264.62,-102.62 264.62,-72.12 391.62,-72.12 391.62,-102.62"/>
<text text-anchor="start" x="272.62" y="-89.12" font-family="Helvetica,sans-Serif" font-size="10.00">sourcecode/appdal/src</text>
<text text-anchor="middle" x="328.12" y="-77.88" font-family="Helvetica,sans-Serif" font-size="10.00">/FakeDataApplication.cpp</text>
</a>
</g>
</g>
<!-- Node1&#45;&gt;Node4 -->
<g id="edge3_Node000001_Node000004" class="edge">
<title>Node1&#45;&gt;Node4</title>
<g id="a_edge3_Node000001_Node000004"><a xlink:title=" ">
<path fill="none" stroke="#63b8ff" d="M2392.92,-157.79C2052.73,-154.24 601.2,-137.48 401.12,-108.25 392.81,-107.03 384.09,-105.18 375.68,-103.09"/>
<polygon fill="#63b8ff" stroke="#63b8ff" points="2392.76,-161.28 2402.8,-157.89 2392.84,-154.28 2392.76,-161.28"/>
</a>
</g>
</g>
<!-- Node5 -->
<g id="Node000005" class="node">
<title>Node5</title>
<g id="a_Node000005"><a xlink:href="FakeHSIApplication_8cpp.html" target="_top" xlink:title=" ">
<polygon fill="white" stroke="#666666" points="534.12,-102.62 410.12,-102.62 410.12,-72.12 534.12,-72.12 534.12,-102.62"/>
<text text-anchor="start" x="418.12" y="-89.12" font-family="Helvetica,sans-Serif" font-size="10.00">sourcecode/appdal/src</text>
<text text-anchor="middle" x="472.12" y="-77.88" font-family="Helvetica,sans-Serif" font-size="10.00">/FakeHSIApplication.cpp</text>
</a>
</g>
</g>
<!-- Node1&#45;&gt;Node5 -->
<g id="edge4_Node000001_Node000005" class="edge">
<title>Node1&#45;&gt;Node5</title>
<g id="a_edge4_Node000001_Node000005"><a xlink:title=" ">
<path fill="none" stroke="#63b8ff" d="M2393.35,-157.68C2068.54,-153.79 728.45,-136.17 543.12,-108.25 535.02,-107.03 526.54,-105.18 518.36,-103.08"/>
<polygon fill="#63b8ff" stroke="#63b8ff" points="2392.92,-161.18 2402.96,-157.8 2393,-154.18 2392.92,-161.18"/>
</a>
</g>
</g>
<!-- Node6 -->
<g id="Node000006" class="node">
<title>Node6</title>
<g id="a_Node000006"><a xlink:href="HSIEventToTCApplication_8cpp.html" target="_top" xlink:title=" ">
<polygon fill="white" stroke="#666666" points="703.62,-102.62 552.62,-102.62 552.62,-72.12 703.62,-72.12 703.62,-102.62"/>
<text text-anchor="start" x="560.62" y="-89.12" font-family="Helvetica,sans-Serif" font-size="10.00">sourcecode/appdal/src</text>
<text text-anchor="middle" x="628.12" y="-77.88" font-family="Helvetica,sans-Serif" font-size="10.00">/HSIEventToTCApplication.cpp</text>
</a>
</g>
</g>
<!-- Node1&#45;&gt;Node6 -->
<g id="edge5_Node000001_Node000006" class="edge">
<title>Node1&#45;&gt;Node6</title>
<g id="a_edge5_Node000001_Node000006"><a xlink:title=" ">
<path fill="none" stroke="#63b8ff" d="M2392.85,-158.36C2107.4,-157.53 1046.09,-151.51 713.12,-108.25 703.51,-107 693.38,-105.13 683.61,-103.04"/>
<polygon fill="#63b8ff" stroke="#63b8ff" points="2392.75,-161.86 2402.76,-158.39 2392.77,-154.86 2392.75,-161.86"/>
</a>
</g>
</g>
<!-- Node7 -->
<g id="Node000007" class="node">
<title>Node7</title>
<g id="a_Node000007"><a xlink:href="SmartDaqApplication_8cpp.html" target="_top" xlink:title=" ">
<polygon fill="white" stroke="#666666" points="850.38,-102.62 721.88,-102.62 721.88,-72.12 850.38,-72.12 850.38,-102.62"/>
<text text-anchor="start" x="729.88" y="-89.12" font-family="Helvetica,sans-Serif" font-size="10.00">sourcecode/appdal/src</text>
<text text-anchor="middle" x="786.12" y="-77.88" font-family="Helvetica,sans-Serif" font-size="10.00">/SmartDaqApplication.cpp</text>
</a>
</g>
</g>
<!-- Node1&#45;&gt;Node7 -->
<g id="edge6_Node000001_Node000007" class="edge">
<title>Node1&#45;&gt;Node7</title>
<g id="a_edge6_Node000001_Node000007"><a xlink:title=" ">
<path fill="none" stroke="#63b8ff" d="M2393.45,-158.49C2124.04,-158.1 1161.51,-153.51 859.12,-108.25 850.81,-107.01 842.09,-105.14 833.69,-103.04"/>
<polygon fill="#63b8ff" stroke="#63b8ff" points="2393.1,-161.99 2403.11,-158.5 2393.11,-154.99 2393.1,-161.99"/>
</a>
</g>
</g>
<!-- Node8 -->
<g id="Node000008" class="node">
<title>Node8</title>
<g id="a_Node000008"><a xlink:href="TPWriterApplication_8cpp.html" target="_top" xlink:title=" ">
<polygon fill="white" stroke="#666666" points="991.75,-102.62 868.5,-102.62 868.5,-72.12 991.75,-72.12 991.75,-102.62"/>
<text text-anchor="start" x="876.5" y="-89.12" font-family="Helvetica,sans-Serif" font-size="10.00">sourcecode/appdal/src</text>
<text text-anchor="middle" x="930.12" y="-77.88" font-family="Helvetica,sans-Serif" font-size="10.00">/TPWriterApplication.cpp</text>
</a>
</g>
</g>
<!-- Node1&#45;&gt;Node8 -->
<g id="edge7_Node000001_Node000008" class="edge">
<title>Node1&#45;&gt;Node8</title>
<g id="a_edge7_Node000001_Node000008"><a xlink:title=" ">
<path fill="none" stroke="#63b8ff" d="M2393.02,-158.3C2138.59,-157.24 1274.13,-150.53 1001.12,-108.25 993.03,-107 984.54,-105.13 976.37,-103.03"/>
<polygon fill="#63b8ff" stroke="#63b8ff" points="2392.79,-161.8 2402.8,-158.34 2392.82,-154.8 2392.79,-161.8"/>
</a>
</g>
</g>
<!-- Node9 -->
<g id="Node000009" class="node">
<title>Node9</title>
<g id="a_Node000009"><a xlink:href="SchemaKernelWrapper_8cpp.html" target="_top" xlink:title=" ">
<polygon fill="white" stroke="#666666" points="1156.38,-108.25 1009.88,-108.25 1009.88,-66.5 1156.38,-66.5 1156.38,-108.25"/>
<text text-anchor="start" x="1017.88" y="-94.75" font-family="Helvetica,sans-Serif" font-size="10.00">sourcecode/dbe/apps</text>
<text text-anchor="start" x="1017.88" y="-83.5" font-family="Helvetica,sans-Serif" font-size="10.00">/SchemaEditor/SchemaKernel</text>
<text text-anchor="middle" x="1083.12" y="-72.25" font-family="Helvetica,sans-Serif" font-size="10.00">Wrapper.cpp</text>
</a>
</g>
</g>
<!-- Node1&#45;&gt;Node9 -->
<g id="edge8_Node000001_Node000009" class="edge">
<title>Node1&#45;&gt;Node9</title>
<g id="a_edge8_Node000001_Node000009"><a xlink:title=" ">
<path fill="none" stroke="#63b8ff" d="M2392.97,-157.59C2157.69,-154.27 1406.15,-141.31 1166.12,-108.25 1163.04,-107.83 1159.91,-107.34 1156.75,-106.8"/>
<polygon fill="#63b8ff" stroke="#63b8ff" points="2392.88,-161.08 2402.93,-157.72 2392.98,-154.09 2392.88,-161.08"/>
</a>
</g>
</g>
<!-- Node10 -->
<g id="Node000010" class="node">
<title>Node10</title>
<g id="a_Node000010"><a xlink:href="genconfig_8cxx.html" target="_top" xlink:title=" ">
<polygon fill="white" stroke="#666666" points="1285.38,-102.62 1174.88,-102.62 1174.88,-72.12 1285.38,-72.12 1285.38,-102.62"/>
<text text-anchor="start" x="1182.88" y="-89.12" font-family="Helvetica,sans-Serif" font-size="10.00">sourcecode/genconfig</text>
<text text-anchor="middle" x="1230.12" y="-77.88" font-family="Helvetica,sans-Serif" font-size="10.00">/apps/genconfig.cxx</text>
</a>
</g>
</g>
<!-- Node1&#45;&gt;Node10 -->
<g id="edge9_Node000001_Node000010" class="edge">
<title>Node1&#45;&gt;Node10</title>
<g id="a_edge9_Node000001_Node000010"><a xlink:title=" ">
<path fill="none" stroke="#63b8ff" d="M2392.99,-157.8C2173.34,-155.28 1507.93,-144.75 1295.12,-108.25 1287.8,-106.99 1280.14,-105.15 1272.76,-103.09"/>
<polygon fill="#63b8ff" stroke="#63b8ff" points="2392.79,-161.3 2402.83,-157.91 2392.87,-154.3 2392.79,-161.3"/>
</a>
</g>
</g>
<!-- Node11 -->
<g id="Node000011" class="node">
<title>Node11</title>
<g id="a_Node000011"><a xlink:href="utils_8cpp.html" target="_top" xlink:title=" ">
<polygon fill="white" stroke="#666666" points="1414.38,-102.62 1303.88,-102.62 1303.88,-72.12 1414.38,-72.12 1414.38,-102.62"/>
<text text-anchor="start" x="1311.88" y="-89.12" font-family="Helvetica,sans-Serif" font-size="10.00">sourcecode/genconfig</text>
<text text-anchor="middle" x="1359.12" y="-77.88" font-family="Helvetica,sans-Serif" font-size="10.00">/apps/utils.cpp</text>
</a>
</g>
</g>
<!-- Node1&#45;&gt;Node11 -->
<g id="edge10_Node000001_Node000011" class="edge">
<title>Node1&#45;&gt;Node11</title>
<g id="a_edge10_Node000001_Node000011"><a xlink:title=" ">
<path fill="none" stroke="#63b8ff" d="M2392.92,-157.4C2189.77,-153.91 1610.04,-141.24 1423.12,-108.25 1415.91,-106.98 1408.37,-105.13 1401.1,-103.06"/>
<polygon fill="#63b8ff" stroke="#63b8ff" points="2392.75,-160.9 2402.81,-157.57 2392.87,-153.9 2392.75,-160.9"/>
</a>
</g>
</g>
<!-- Node12 -->
<g id="Node000012" class="node">
<title>Node12</title>
<g id="a_Node000012"><a xlink:href="oks__clone__repository_8cxx.html" target="_top" xlink:title=" ">
<polygon fill="white" stroke="#666666" points="1559.62,-102.62 1432.62,-102.62 1432.62,-72.12 1559.62,-72.12 1559.62,-102.62"/>
<text text-anchor="start" x="1440.62" y="-89.12" font-family="Helvetica,sans-Serif" font-size="10.00">sourcecode/oks/apps</text>
<text text-anchor="middle" x="1496.12" y="-77.88" font-family="Helvetica,sans-Serif" font-size="10.00">/oks_clone_repository.cxx</text>
</a>
</g>
</g>
<!-- Node1&#45;&gt;Node12 -->
<g id="edge11_Node000001_Node000012" class="edge">
<title>Node1&#45;&gt;Node12</title>
<g id="a_edge11_Node000001_Node000012"><a xlink:title=" ">
<path fill="none" stroke="#63b8ff" d="M2392.95,-156.47C2209.96,-150.93 1726.45,-134.24 1568.12,-108.25 1560.19,-106.95 1551.88,-105.11 1543.83,-103.07"/>
<polygon fill="#63b8ff" stroke="#63b8ff" points="2392.69,-159.96 2402.79,-156.76 2392.9,-152.97 2392.69,-159.96"/>
</a>
</g>
</g>
<!-- Node13 -->
<g id="Node000013" class="node">
<title>Node13</title>
<g id="a_Node000013"><a xlink:href="oks__dump_8cxx.html" target="_top" xlink:title=" ">
<polygon fill="white" stroke="#666666" points="1686.62,-102.62 1577.62,-102.62 1577.62,-72.12 1686.62,-72.12 1686.62,-102.62"/>
<text text-anchor="start" x="1585.62" y="-89.12" font-family="Helvetica,sans-Serif" font-size="10.00">sourcecode/oks/apps</text>
<text text-anchor="middle" x="1632.12" y="-77.88" font-family="Helvetica,sans-Serif" font-size="10.00">/oks_dump.cxx</text>
</a>
</g>
</g>
<!-- Node1&#45;&gt;Node13 -->
<g id="edge12_Node000001_Node000013" class="edge">
<title>Node1&#45;&gt;Node13</title>
<g id="a_edge12_Node000001_Node000013"><a xlink:title=" ">
<path fill="none" stroke="#63b8ff" d="M2392.78,-159.41C2256.28,-159.92 1949.21,-155.15 1696.12,-108.25 1689.03,-106.94 1681.62,-105.09 1674.46,-103.05"/>
<polygon fill="#63b8ff" stroke="#63b8ff" points="2392.78,-162.91 2402.76,-159.36 2392.74,-155.91 2392.78,-162.91"/>
</a>
</g>
</g>
<!-- Node14 -->
<g id="Node000014" class="node">
<title>Node14</title>
<g id="a_Node000014"><a xlink:href="oks__git__repository_8cxx.html" target="_top" xlink:title=" ">
<polygon fill="white" stroke="#666666" points="1819.25,-102.62 1705,-102.62 1705,-72.12 1819.25,-72.12 1819.25,-102.62"/>
<text text-anchor="start" x="1713" y="-89.12" font-family="Helvetica,sans-Serif" font-size="10.00">sourcecode/oks/apps</text>
<text text-anchor="middle" x="1762.12" y="-77.88" font-family="Helvetica,sans-Serif" font-size="10.00">/oks_git_repository.cxx</text>
</a>
</g>
</g>
<!-- Node1&#45;&gt;Node14 -->
<g id="edge13_Node000001_Node000014" class="edge">
<title>Node1&#45;&gt;Node14</title>
<g id="a_edge13_Node000001_Node000014"><a xlink:title=" ">
<path fill="none" stroke="#63b8ff" d="M2392.99,-157.82C2274.74,-155.58 2030.66,-146.29 1828.12,-108.25 1820.95,-106.9 1813.45,-105.07 1806.18,-103.06"/>
<polygon fill="#63b8ff" stroke="#63b8ff" points="2392.81,-161.31 2402.87,-157.99 2392.93,-154.31 2392.81,-161.31"/>
</a>
</g>
</g>
<!-- Node15 -->
<g id="Node000015" class="node">
<title>Node15</title>
<g id="a_Node000015"><a xlink:href="oks__validate__repository_8cxx.html" target="_top" xlink:title=" ">
<polygon fill="white" stroke="#666666" points="1974.88,-102.62 1837.38,-102.62 1837.38,-72.12 1974.88,-72.12 1974.88,-102.62"/>
<text text-anchor="start" x="1845.38" y="-89.12" font-family="Helvetica,sans-Serif" font-size="10.00">sourcecode/oks/apps</text>
<text text-anchor="middle" x="1906.12" y="-77.88" font-family="Helvetica,sans-Serif" font-size="10.00">/oks_validate_repository.cxx</text>
</a>
</g>
</g>
<!-- Node1&#45;&gt;Node15 -->
<g id="edge14_Node000001_Node000015" class="edge">
<title>Node1&#45;&gt;Node15</title>
<g id="a_edge14_Node000001_Node000015"><a xlink:title=" ">
<path fill="none" stroke="#63b8ff" d="M2393.26,-154.31C2299.21,-148.02 2128.23,-134.01 1984.12,-108.25 1976.15,-106.82 1967.78,-105.02 1959.61,-103.09"/>
<polygon fill="#63b8ff" stroke="#63b8ff" points="2392.9,-157.79 2403.11,-154.96 2393.36,-150.81 2392.9,-157.79"/>
</a>
</g>
</g>
<!-- Node16 -->
<g id="Node000016" class="node">
<title>Node16</title>
<g id="a_Node000016"><a xlink:href="attribute_8cpp.html" target="_top" xlink:title=" ">
<polygon fill="white" stroke="#666666" points="2094.88,-102.62 1993.38,-102.62 1993.38,-72.12 2094.88,-72.12 2094.88,-102.62"/>
<text text-anchor="start" x="2001.38" y="-89.12" font-family="Helvetica,sans-Serif" font-size="10.00">sourcecode/oks/src</text>
<text text-anchor="middle" x="2044.12" y="-77.88" font-family="Helvetica,sans-Serif" font-size="10.00">/attribute.cpp</text>
</a>
</g>
</g>
<!-- Node1&#45;&gt;Node16 -->
<g id="edge15_Node000001_Node000016" class="edge">
<title>Node1&#45;&gt;Node16</title>
<g id="a_edge15_Node000001_Node000016"><a xlink:title=" ">
<path fill="none" stroke="#63b8ff" d="M2392.92,-152.4C2319.79,-145.24 2203,-131.33 2104.12,-108.25 2097.93,-106.8 2091.46,-104.99 2085.16,-103.06"/>
<polygon fill="#63b8ff" stroke="#63b8ff" points="2392.48,-155.88 2402.77,-153.35 2393.15,-148.91 2392.48,-155.88"/>
</a>
</g>
</g>
<!-- Node17 -->
<g id="Node000017" class="node">
<title>Node17</title>
<g id="a_Node000017"><a xlink:href="class_8cpp.html" target="_top" xlink:title=" ">
<polygon fill="white" stroke="#666666" points="2214.88,-102.62 2113.38,-102.62 2113.38,-72.12 2214.88,-72.12 2214.88,-102.62"/>
<text text-anchor="start" x="2121.38" y="-89.12" font-family="Helvetica,sans-Serif" font-size="10.00">sourcecode/oks/src</text>
<text text-anchor="middle" x="2164.12" y="-77.88" font-family="Helvetica,sans-Serif" font-size="10.00">/class.cpp</text>
</a>
</g>
</g>
<!-- Node1&#45;&gt;Node17 -->
<g id="edge16_Node000001_Node000017" class="edge">
<title>Node1&#45;&gt;Node17</title>
<g id="a_edge16_Node000001_Node000017"><a xlink:title=" ">
<path fill="none" stroke="#63b8ff" d="M2393.28,-145.86C2345.23,-136.75 2280.45,-123.42 2224.12,-108.25 2218.4,-106.71 2212.43,-104.93 2206.56,-103.09"/>
<polygon fill="#63b8ff" stroke="#63b8ff" points="2392.54,-149.28 2403.02,-147.69 2393.83,-142.4 2392.54,-149.28"/>
</a>
</g>
</g>
<!-- Node18 -->
<g id="Node000018" class="node">
<title>Node18</title>
<g id="a_Node000018"><a xlink:href="data_8cpp.html" target="_top" xlink:title=" ">
<polygon fill="white" stroke="#666666" points="2334.88,-102.62 2233.38,-102.62 2233.38,-72.12 2334.88,-72.12 2334.88,-102.62"/>
<text text-anchor="start" x="2241.38" y="-89.12" font-family="Helvetica,sans-Serif" font-size="10.00">sourcecode/oks/src</text>
<text text-anchor="middle" x="2284.12" y="-77.88" font-family="Helvetica,sans-Serif" font-size="10.00">/data.cpp</text>
</a>
</g>
</g>
<!-- Node1&#45;&gt;Node18 -->
<g id="edge17_Node000001_Node000018" class="edge">
<title>Node1&#45;&gt;Node18</title>
<g id="a_edge17_Node000001_Node000018"><a xlink:title=" ">
<path fill="none" stroke="#63b8ff" d="M2415.9,-139.71C2386.38,-128.21 2349.16,-113.71 2321.81,-103.06"/>
<polygon fill="#63b8ff" stroke="#63b8ff" points="2414.39,-142.88 2424.98,-143.25 2416.93,-136.36 2414.39,-142.88"/>
</a>
</g>
</g>
<!-- Node19 -->
<g id="Node000019" class="node">
<title>Node19</title>
<g id="a_Node000019"><a xlink:href="file_8cpp.html" target="_top" xlink:title=" ">
<polygon fill="white" stroke="#666666" points="2454.88,-102.62 2353.38,-102.62 2353.38,-72.12 2454.88,-72.12 2454.88,-102.62"/>
<text text-anchor="start" x="2361.38" y="-89.12" font-family="Helvetica,sans-Serif" font-size="10.00">sourcecode/oks/src</text>
<text text-anchor="middle" x="2404.12" y="-77.88" font-family="Helvetica,sans-Serif" font-size="10.00">/file.cpp</text>
</a>
</g>
</g>
<!-- Node1&#45;&gt;Node19 -->
<g id="edge18_Node000001_Node000019" class="edge">
<title>Node1&#45;&gt;Node19</title>
<g id="a_edge18_Node000001_Node000019"><a xlink:title=" ">
<path fill="none" stroke="#63b8ff" d="M2444.41,-135.46C2435.23,-124.73 2424.58,-112.28 2416.54,-102.89"/>
<polygon fill="#63b8ff" stroke="#63b8ff" points="2441.55,-137.5 2450.71,-142.82 2446.87,-132.95 2441.55,-137.5"/>
</a>
</g>
</g>
<!-- Node20 -->
<g id="Node000020" class="node">
<title>Node20</title>
<g id="a_Node000020"><a xlink:href="kernel_8cpp.html" target="_top" xlink:title=" ">
<polygon fill="white" stroke="#666666" points="2574.88,-102.62 2473.38,-102.62 2473.38,-72.12 2574.88,-72.12 2574.88,-102.62"/>
<text text-anchor="start" x="2481.38" y="-89.12" font-family="Helvetica,sans-Serif" font-size="10.00">sourcecode/oks/src</text>
<text text-anchor="middle" x="2524.12" y="-77.88" font-family="Helvetica,sans-Serif" font-size="10.00">/kernel.cpp</text>
</a>
</g>
</g>
<!-- Node1&#45;&gt;Node20 -->
<g id="edge19_Node000001_Node000020" class="edge">
<title>Node1&#45;&gt;Node20</title>
<g id="a_edge19_Node000001_Node000020"><a xlink:title=" ">
<path fill="none" stroke="#63b8ff" d="M2483.84,-135.46C2493.02,-124.73 2503.67,-112.28 2511.71,-102.89"/>
<polygon fill="#63b8ff" stroke="#63b8ff" points="2481.38,-132.95 2477.54,-142.82 2486.7,-137.5 2481.38,-132.95"/>
</a>
</g>
</g>
<!-- Node21 -->
<g id="Node000021" class="node">
<title>Node21</title>
<g id="a_Node000021"><a xlink:href="object_8cpp.html" target="_top" xlink:title=" ">
<polygon fill="white" stroke="#666666" points="2694.88,-102.62 2593.38,-102.62 2593.38,-72.12 2694.88,-72.12 2694.88,-102.62"/>
<text text-anchor="start" x="2601.38" y="-89.12" font-family="Helvetica,sans-Serif" font-size="10.00">sourcecode/oks/src</text>
<text text-anchor="middle" x="2644.12" y="-77.88" font-family="Helvetica,sans-Serif" font-size="10.00">/object.cpp</text>
</a>
</g>
</g>
<!-- Node1&#45;&gt;Node21 -->
<g id="edge20_Node000001_Node000021" class="edge">
<title>Node1&#45;&gt;Node21</title>
<g id="a_edge20_Node000001_Node000021"><a xlink:title=" ">
<path fill="none" stroke="#63b8ff" d="M2512.35,-139.71C2541.87,-128.21 2579.09,-113.71 2606.44,-103.06"/>
<polygon fill="#63b8ff" stroke="#63b8ff" points="2511.32,-136.36 2503.27,-143.25 2513.86,-142.88 2511.32,-136.36"/>
</a>
</g>
</g>
<!-- Node22 -->
<g id="Node000022" class="node">
<title>Node22</title>
<g id="a_Node000022"><a xlink:href="profiler_8cpp.html" target="_top" xlink:title=" ">
<polygon fill="white" stroke="#666666" points="2814.88,-102.62 2713.38,-102.62 2713.38,-72.12 2814.88,-72.12 2814.88,-102.62"/>
<text text-anchor="start" x="2721.38" y="-89.12" font-family="Helvetica,sans-Serif" font-size="10.00">sourcecode/oks/src</text>
<text text-anchor="middle" x="2764.12" y="-77.88" font-family="Helvetica,sans-Serif" font-size="10.00">/profiler.cpp</text>
</a>
</g>
</g>
<!-- Node1&#45;&gt;Node22 -->
<g id="edge21_Node000001_Node000022" class="edge">
<title>Node1&#45;&gt;Node22</title>
<g id="a_edge21_Node000001_Node000022"><a xlink:title=" ">
<path fill="none" stroke="#63b8ff" d="M2534.97,-145.86C2583.02,-136.75 2647.8,-123.42 2704.12,-108.25 2709.85,-106.71 2715.82,-104.93 2721.69,-103.09"/>
<polygon fill="#63b8ff" stroke="#63b8ff" points="2534.42,-142.4 2525.23,-147.69 2535.71,-149.28 2534.42,-142.4"/>
</a>
</g>
</g>
<!-- Node23 -->
<g id="Node000023" class="node">
<title>Node23</title>
<g id="a_Node000023"><a xlink:href="query_8cpp.html" target="_top" xlink:title=" ">
<polygon fill="white" stroke="#666666" points="2934.88,-102.62 2833.38,-102.62 2833.38,-72.12 2934.88,-72.12 2934.88,-102.62"/>
<text text-anchor="start" x="2841.38" y="-89.12" font-family="Helvetica,sans-Serif" font-size="10.00">sourcecode/oks/src</text>
<text text-anchor="middle" x="2884.12" y="-77.88" font-family="Helvetica,sans-Serif" font-size="10.00">/query.cpp</text>
</a>
</g>
</g>
<!-- Node1&#45;&gt;Node23 -->
<g id="edge22_Node000001_Node000023" class="edge">
<title>Node1&#45;&gt;Node23</title>
<g id="a_edge22_Node000001_Node000023"><a xlink:title=" ">
<path fill="none" stroke="#63b8ff" d="M2535.33,-152.4C2608.46,-145.24 2725.25,-131.33 2824.12,-108.25 2830.32,-106.8 2836.79,-104.99 2843.09,-103.06"/>
<polygon fill="#63b8ff" stroke="#63b8ff" points="2535.1,-148.91 2525.48,-153.35 2535.77,-155.88 2535.1,-148.91"/>
</a>
</g>
</g>
<!-- Node24 -->
<g id="Node000024" class="node">
<title>Node24</title>
<g id="a_Node000024"><a xlink:href="relationship_8cpp.html" target="_top" xlink:title=" ">
<polygon fill="white" stroke="#666666" points="3054.88,-102.62 2953.38,-102.62 2953.38,-72.12 3054.88,-72.12 3054.88,-102.62"/>
<text text-anchor="start" x="2961.38" y="-89.12" font-family="Helvetica,sans-Serif" font-size="10.00">sourcecode/oks/src</text>
<text text-anchor="middle" x="3004.12" y="-77.88" font-family="Helvetica,sans-Serif" font-size="10.00">/relationship.cpp</text>
</a>
</g>
</g>
<!-- Node1&#45;&gt;Node24 -->
<g id="edge23_Node000001_Node000024" class="edge">
<title>Node1&#45;&gt;Node24</title>
<g id="a_edge23_Node000001_Node000024"><a xlink:title=" ">
<path fill="none" stroke="#63b8ff" d="M2535.29,-155.84C2629.67,-151.22 2801.02,-139.07 2944.12,-108.25 2950.56,-106.86 2957.28,-105.04 2963.79,-103.05"/>
<polygon fill="#63b8ff" stroke="#63b8ff" points="2535.23,-152.34 2525.4,-156.31 2535.56,-159.33 2535.23,-152.34"/>
</a>
</g>
</g>
<!-- Node25 -->
<g id="Node000025" class="node">
<title>Node25</title>
<g id="a_Node000025"><a xlink:href="xml_8cpp.html" target="_top" xlink:title=" ">
<polygon fill="white" stroke="#666666" points="3174.88,-102.62 3073.38,-102.62 3073.38,-72.12 3174.88,-72.12 3174.88,-102.62"/>
<text text-anchor="start" x="3081.38" y="-89.12" font-family="Helvetica,sans-Serif" font-size="10.00">sourcecode/oks/src</text>
<text text-anchor="middle" x="3124.12" y="-77.88" font-family="Helvetica,sans-Serif" font-size="10.00">/xml.cpp</text>
</a>
</g>
</g>
<!-- Node1&#45;&gt;Node25 -->
<g id="edge24_Node000001_Node000025" class="edge">
<title>Node1&#45;&gt;Node25</title>
<g id="a_edge24_Node000001_Node000025"><a xlink:title=" ">
<path fill="none" stroke="#63b8ff" d="M2535.22,-157.95C2648.33,-155.88 2875.76,-146.77 3064.12,-108.25 3070.68,-106.91 3077.52,-105.08 3084.14,-103.07"/>
<polygon fill="#63b8ff" stroke="#63b8ff" points="2535.43,-154.45 2525.49,-158.12 2535.54,-161.45 2535.43,-154.45"/>
</a>
</g>
</g>
<!-- Node26 -->
<g id="Node000026" class="node">
<title>Node26</title>
<g id="a_Node000026"><a xlink:href="OksConfigObject_8hpp.html" target="_top" xlink:title=" ">
<polygon fill="white" stroke="#666666" points="3335.12,-108.25 3193.12,-108.25 3193.12,-66.5 3335.12,-66.5 3335.12,-108.25"/>
<text text-anchor="start" x="3201.12" y="-94.75" font-family="Helvetica,sans-Serif" font-size="10.00">sourcecode/oksconfig</text>
<text text-anchor="start" x="3201.12" y="-83.5" font-family="Helvetica,sans-Serif" font-size="10.00">/include/oksconfig/OksConfig</text>
<text text-anchor="middle" x="3264.12" y="-72.25" font-family="Helvetica,sans-Serif" font-size="10.00">Object.hpp</text>
</a>
</g>
</g>
<!-- Node1&#45;&gt;Node26 -->
<g id="edge25_Node000001_Node000026" class="edge">
<title>Node1&#45;&gt;Node26</title>
<g id="a_edge25_Node000001_Node000026"><a xlink:title=" ">
<path fill="none" stroke="#63b8ff" d="M2535.1,-157.63C2664.77,-155.13 2948.34,-145.48 3184.12,-108.25 3186.95,-107.8 3189.83,-107.31 3192.72,-106.77"/>
<polygon fill="#63b8ff" stroke="#63b8ff" points="2535.23,-154.12 2525.3,-157.81 2535.36,-161.12 2535.23,-154.12"/>
</a>
</g>
</g>
<!-- Node28 -->
<g id="Node000028" class="node">
<title>Node28</title>
<g id="a_Node000028"><a xlink:href="OksConfiguration_8cpp.html" target="_top" xlink:title=" ">
<polygon fill="white" stroke="#666666" points="3450,-30.5 3322.25,-30.5 3322.25,0 3450,0 3450,-30.5"/>
<text text-anchor="start" x="3330.25" y="-17" font-family="Helvetica,sans-Serif" font-size="10.00">sourcecode/oksconfig</text>
<text text-anchor="middle" x="3386.12" y="-5.75" font-family="Helvetica,sans-Serif" font-size="10.00">/src/OksConfiguration.cpp</text>
</a>
</g>
</g>
<!-- Node1&#45;&gt;Node28 -->
<g id="edge28_Node000001_Node000028" class="edge">
<title>Node1&#45;&gt;Node28</title>
<g id="a_edge28_Node000001_Node000028"><a xlink:title=" ">
<path fill="none" stroke="#63b8ff" d="M2535.3,-158.6C2732.91,-158.32 3278.1,-153.4 3344.12,-108.25 3370.36,-90.31 3380.49,-51.75 3384.18,-30.69"/>
<polygon fill="#63b8ff" stroke="#63b8ff" points="2535.43,-155.1 2525.43,-158.62 2535.43,-162.1 2535.43,-155.1"/>
</a>
</g>
</g>
<!-- Node29 -->
<g id="Node000029" class="node">
<title>Node29</title>
<g id="a_Node000029"><a xlink:href="oks__diff__data_8cxx.html" target="_top" xlink:title=" ">
<polygon fill="white" stroke="#666666" points="3508.75,-102.62 3391.5,-102.62 3391.5,-72.12 3508.75,-72.12 3508.75,-102.62"/>
<text text-anchor="start" x="3399.5" y="-89.12" font-family="Helvetica,sans-Serif" font-size="10.00">sourcecode/oksutils</text>
<text text-anchor="middle" x="3450.12" y="-77.88" font-family="Helvetica,sans-Serif" font-size="10.00">/apps/oks_diff_data.cxx</text>
</a>
</g>
</g>
<!-- Node1&#45;&gt;Node29 -->
<g id="edge29_Node000001_Node000029" class="edge">
<title>Node1&#45;&gt;Node29</title>
<g id="a_edge29_Node000001_Node000029"><a xlink:title=" ">
<path fill="none" stroke="#63b8ff" d="M2535.32,-156.52C2720.74,-151.06 3215.36,-134.42 3377.12,-108.25 3385.16,-106.95 3393.59,-105.11 3401.75,-103.08"/>
<polygon fill="#63b8ff" stroke="#63b8ff" points="2535.23,-153.02 2525.34,-156.81 2535.44,-160.02 2535.23,-153.02"/>
</a>
</g>
</g>
<!-- Node30 -->
<g id="Node000030" class="node">
<title>Node30</title>
<g id="a_Node000030"><a xlink:href="oks__diff__schema_8cxx.html" target="_top" xlink:title=" ">
<polygon fill="white" stroke="#666666" points="3659.62,-102.62 3526.62,-102.62 3526.62,-72.12 3659.62,-72.12 3659.62,-102.62"/>
<text text-anchor="start" x="3534.62" y="-89.12" font-family="Helvetica,sans-Serif" font-size="10.00">sourcecode/oksutils</text>
<text text-anchor="middle" x="3593.12" y="-77.88" font-family="Helvetica,sans-Serif" font-size="10.00">/apps/oks_diff_schema.cxx</text>
</a>
</g>
</g>
<!-- Node1&#45;&gt;Node30 -->
<g id="edge30_Node000001_Node000030" class="edge">
<title>Node1&#45;&gt;Node30</title>
<g id="a_edge30_Node000001_Node000030"><a xlink:title=" ">
<path fill="none" stroke="#63b8ff" d="M2535.44,-157.06C2740.29,-152.63 3327.99,-137.64 3518.12,-108.25 3526.38,-106.97 3535.03,-105.15 3543.41,-103.12"/>
<polygon fill="#63b8ff" stroke="#63b8ff" points="2535.38,-153.56 2525.46,-157.28 2535.53,-160.56 2535.38,-153.56"/>
</a>
</g>
</g>
<!-- Node31 -->
<g id="Node000031" class="node">
<title>Node31</title>
<g id="a_Node000031"><a xlink:href="oks__get__data_8cxx.html" target="_top" xlink:title=" ">
<polygon fill="white" stroke="#666666" points="3796.12,-102.62 3678.12,-102.62 3678.12,-72.12 3796.12,-72.12 3796.12,-102.62"/>
<text text-anchor="start" x="3686.12" y="-89.12" font-family="Helvetica,sans-Serif" font-size="10.00">sourcecode/oksutils</text>
<text text-anchor="middle" x="3737.12" y="-77.88" font-family="Helvetica,sans-Serif" font-size="10.00">/apps/oks_get_data.cxx</text>
</a>
</g>
</g>
<!-- Node1&#45;&gt;Node31 -->
<g id="edge31_Node000001_Node000031" class="edge">
<title>Node1&#45;&gt;Node31</title>
<g id="a_edge31_Node000001_Node000031"><a xlink:title=" ">
<path fill="none" stroke="#63b8ff" d="M2535.09,-157.76C2758.86,-155.07 3447.9,-144.03 3668.12,-108.25 3675.88,-106.99 3683.99,-105.15 3691.82,-103.08"/>
<polygon fill="#63b8ff" stroke="#63b8ff" points="2535.31,-154.26 2525.35,-157.87 2535.39,-161.26 2535.31,-154.26"/>
</a>
</g>
</g>
<!-- Node32 -->
<g id="Node000032" class="node">
<title>Node32</title>
<g id="a_Node000032"><a xlink:href="oks__get__schema_8cxx.html" target="_top" xlink:title=" ">
<polygon fill="white" stroke="#666666" points="3948,-102.62 3814.25,-102.62 3814.25,-72.12 3948,-72.12 3948,-102.62"/>
<text text-anchor="start" x="3822.25" y="-89.12" font-family="Helvetica,sans-Serif" font-size="10.00">sourcecode/oksutils</text>
<text text-anchor="middle" x="3881.12" y="-77.88" font-family="Helvetica,sans-Serif" font-size="10.00">/apps/oks_get_schema.cxx</text>
</a>
</g>
</g>
<!-- Node1&#45;&gt;Node32 -->
<g id="edge32_Node000001_Node000032" class="edge">
<title>Node1&#45;&gt;Node32</title>
<g id="a_edge32_Node000001_Node000032"><a xlink:title=" ">
<path fill="none" stroke="#63b8ff" d="M2535.23,-157.88C2775.6,-155.47 3556.68,-144.94 3805.12,-108.25 3813.62,-106.99 3822.54,-105.15 3831.16,-103.09"/>
<polygon fill="#63b8ff" stroke="#63b8ff" points="2535.34,-154.38 2525.38,-157.98 2535.41,-161.38 2535.34,-154.38"/>
</a>
</g>
</g>
<!-- Node33 -->
<g id="Node000033" class="node">
<title>Node33</title>
<g id="a_Node000033"><a xlink:href="oks__merge_8cxx.html" target="_top" xlink:title=" ">
<polygon fill="white" stroke="#666666" points="4073.88,-102.62 3966.38,-102.62 3966.38,-72.12 4073.88,-72.12 4073.88,-102.62"/>
<text text-anchor="start" x="3974.38" y="-89.12" font-family="Helvetica,sans-Serif" font-size="10.00">sourcecode/oksutils</text>
<text text-anchor="middle" x="4020.12" y="-77.88" font-family="Helvetica,sans-Serif" font-size="10.00">/apps/oks_merge.cxx</text>
</a>
</g>
</g>
<!-- Node1&#45;&gt;Node33 -->
<g id="edge33_Node000001_Node000033" class="edge">
<title>Node1&#45;&gt;Node33</title>
<g id="a_edge33_Node000001_Node000033"><a xlink:title=" ">
<path fill="none" stroke="#63b8ff" d="M2535.42,-158.66C2793.55,-158.85 3678.78,-155.92 3957.12,-108.25 3964.36,-107.01 3971.91,-105.15 3979.18,-103.05"/>
<polygon fill="#63b8ff" stroke="#63b8ff" points="2535.48,-155.16 2525.48,-158.65 2535.47,-162.16 2535.48,-155.16"/>
</a>
</g>
</g>
<!-- Node34 -->
<g id="Node000034" class="node">
<title>Node34</title>
<g id="a_Node000034"><a xlink:href="oks__refresh_8cxx.html" target="_top" xlink:title=" ">
<polygon fill="white" stroke="#666666" points="4202.38,-102.62 4091.88,-102.62 4091.88,-72.12 4202.38,-72.12 4202.38,-102.62"/>
<text text-anchor="start" x="4099.88" y="-89.12" font-family="Helvetica,sans-Serif" font-size="10.00">sourcecode/oksutils</text>
<text text-anchor="middle" x="4147.12" y="-77.88" font-family="Helvetica,sans-Serif" font-size="10.00">/apps/oks_refresh.cxx</text>
</a>
</g>
</g>
<!-- Node1&#45;&gt;Node34 -->
<g id="edge34_Node000001_Node000034" class="edge">
<title>Node1&#45;&gt;Node34</title>
<g id="a_edge34_Node000001_Node000034"><a xlink:title=" ">
<path fill="none" stroke="#63b8ff" d="M2535.01,-158.84C2806.33,-159.74 3778.78,-159.26 4083.12,-108.25 4090.47,-107.02 4098.14,-105.16 4105.52,-103.07"/>
<polygon fill="#63b8ff" stroke="#63b8ff" points="2535.29,-155.34 2525.27,-158.8 2535.26,-162.34 2535.29,-155.34"/>
</a>
</g>
</g>
<!-- Node35 -->
<g id="Node000035" class="node">
<title>Node35</title>
<g id="a_Node000035"><a xlink:href="oks__report__equal__objects_8cxx.html" target="_top" xlink:title=" ">
<polygon fill="white" stroke="#666666" points="4337.75,-108.25 4220.5,-108.25 4220.5,-66.5 4337.75,-66.5 4337.75,-108.25"/>
<text text-anchor="start" x="4228.5" y="-94.75" font-family="Helvetica,sans-Serif" font-size="10.00">sourcecode/oksutils</text>
<text text-anchor="start" x="4228.5" y="-83.5" font-family="Helvetica,sans-Serif" font-size="10.00">/apps/oks_report_equal</text>
<text text-anchor="middle" x="4279.12" y="-72.25" font-family="Helvetica,sans-Serif" font-size="10.00">_objects.cxx</text>
</a>
</g>
</g>
<!-- Node1&#45;&gt;Node35 -->
<g id="edge35_Node000001_Node000035" class="edge">
<title>Node1&#45;&gt;Node35</title>
<g id="a_edge35_Node000001_Node000035"><a xlink:title=" ">
<path fill="none" stroke="#63b8ff" d="M2535.31,-158.87C2820.39,-159.99 3880.22,-160.48 4211.12,-108.25 4214.16,-107.77 4217.25,-107.2 4220.36,-106.55"/>
<polygon fill="#63b8ff" stroke="#63b8ff" points="2535.43,-155.37 2525.42,-158.83 2535.4,-162.37 2535.43,-155.37"/>
</a>
</g>
</g>
<!-- Node36 -->
<g id="Node000036" class="node">
<title>Node36</title>
<g id="a_Node000036"><a xlink:href="oks__report__no__descriptions_8cxx.html" target="_top" xlink:title=" ">
<polygon fill="white" stroke="#666666" points="4460.38,-108.25 4355.88,-108.25 4355.88,-66.5 4460.38,-66.5 4460.38,-108.25"/>
<text text-anchor="start" x="4363.88" y="-94.75" font-family="Helvetica,sans-Serif" font-size="10.00">sourcecode/oksutils</text>
<text text-anchor="start" x="4363.88" y="-83.5" font-family="Helvetica,sans-Serif" font-size="10.00">/apps/oks_report_no</text>
<text text-anchor="middle" x="4408.12" y="-72.25" font-family="Helvetica,sans-Serif" font-size="10.00">_descriptions.cxx</text>
</a>
</g>
</g>
<!-- Node1&#45;&gt;Node36 -->
<g id="edge36_Node000001_Node000036" class="edge">
<title>Node1&#45;&gt;Node36</title>
<g id="a_edge36_Node000001_Node000036"><a xlink:title=" ">
<path fill="none" stroke="#63b8ff" d="M2535.05,-157.82C2856.22,-154.55 4166.37,-139.43 4347.12,-108.25 4349.87,-107.78 4352.66,-107.21 4355.46,-106.56"/>
<polygon fill="#63b8ff" stroke="#63b8ff" points="2535.08,-154.32 2525.12,-157.92 2535.15,-161.31 2535.08,-154.32"/>
</a>
</g>
</g>
<!-- Node37 -->
<g id="Node000037" class="node">
<title>Node37</title>
<g id="a_Node000037"><a xlink:href="oks__tutorial_8cxx.html" target="_top" xlink:title=" ">
<polygon fill="white" stroke="#666666" points="4588,-102.62 4478.25,-102.62 4478.25,-72.12 4588,-72.12 4588,-102.62"/>
<text text-anchor="start" x="4486.25" y="-89.12" font-family="Helvetica,sans-Serif" font-size="10.00">sourcecode/oksutils</text>
<text text-anchor="middle" x="4533.12" y="-77.88" font-family="Helvetica,sans-Serif" font-size="10.00">/apps/oks_tutorial.cxx</text>
</a>
</g>
</g>
<!-- Node1&#45;&gt;Node37 -->
<g id="edge37_Node000001_Node000037" class="edge">
<title>Node1&#45;&gt;Node37</title>
<g id="a_edge37_Node000001_Node000037"><a xlink:title=" ">
<path fill="none" stroke="#63b8ff" d="M2535.24,-157.88C2869.41,-154.81 4275.58,-140.1 4469.12,-108.25 4476.47,-107.04 4484.15,-105.19 4491.52,-103.1"/>
<polygon fill="#63b8ff" stroke="#63b8ff" points="2535.29,-154.38 2525.32,-157.97 2535.35,-161.38 2535.29,-154.38"/>
</a>
</g>
</g>
<!-- Node38 -->
<g id="Node000038" class="node">
<title>Node38</title>
<g id="a_Node000038"><a xlink:href="access_8hpp.html" target="_top" xlink:title=" ">
<polygon fill="white" stroke="#666666" points="4711.75,-108.25 4606.5,-108.25 4606.5,-66.5 4711.75,-66.5 4711.75,-108.25"/>
<text text-anchor="start" x="4614.5" y="-94.75" font-family="Helvetica,sans-Serif" font-size="10.00">sourcecode/oksutils</text>
<text text-anchor="start" x="4614.5" y="-83.5" font-family="Helvetica,sans-Serif" font-size="10.00">/include/oksutils/oks</text>
<text text-anchor="middle" x="4659.12" y="-72.25" font-family="Helvetica,sans-Serif" font-size="10.00">/access.hpp</text>
</a>
</g>
</g>
<!-- Node1&#45;&gt;Node38 -->
<g id="edge38_Node000001_Node000038" class="edge">
<title>Node1&#45;&gt;Node38</title>
<g id="a_edge38_Node000001_Node000038"><a xlink:title=" ">
<path fill="none" stroke="#63b8ff" d="M2535.23,-158.03C2882.33,-155.59 4390.47,-143.06 4597.12,-108.25 4600.13,-107.74 4603.2,-107.12 4606.27,-106.42"/>
<polygon fill="#63b8ff" stroke="#63b8ff" points="2535.34,-154.53 2525.37,-158.1 2535.39,-161.53 2535.34,-154.53"/>
</a>
</g>
</g>
<!-- Node27 -->
<g id="Node000027" class="node">
<title>Node27</title>
<g id="a_Node000027"><a xlink:href="OksConfigObject_8cpp.html" target="_top" xlink:title=" ">
<polygon fill="white" stroke="#666666" points="3304.62,-30.5 3177.62,-30.5 3177.62,0 3304.62,0 3304.62,-30.5"/>
<text text-anchor="start" x="3185.62" y="-17" font-family="Helvetica,sans-Serif" font-size="10.00">sourcecode/oksconfig</text>
<text text-anchor="middle" x="3241.12" y="-5.75" font-family="Helvetica,sans-Serif" font-size="10.00">/src/OksConfigObject.cpp</text>
</a>
</g>
</g>
<!-- Node26&#45;&gt;Node27 -->
<g id="edge26_Node000026_Node000027" class="edge">
<title>Node26&#45;&gt;Node27</title>
<g id="a_edge26_Node000026_Node000027"><a xlink:title=" ">
<path fill="none" stroke="#63b8ff" d="M3253.9,-55.21C3251.1,-46.67 3248.2,-37.81 3245.86,-30.7"/>
<polygon fill="#63b8ff" stroke="#63b8ff" points="3250.56,-56.24 3257,-64.65 3257.21,-54.06 3250.56,-56.24"/>
</a>
</g>
</g>
<!-- Node26&#45;&gt;Node28 -->
<g id="edge27_Node000026_Node000028" class="edge">
<title>Node26&#45;&gt;Node28</title>
<g id="a_edge27_Node000026_Node000028"><a xlink:title=" ">
<path fill="none" stroke="#63b8ff" d="M3309.34,-60.38C3326.65,-50.44 3345.77,-39.45 3360.6,-30.92"/>
<polygon fill="#63b8ff" stroke="#63b8ff" points="3307.65,-57.32 3300.72,-65.34 3311.14,-63.39 3307.65,-57.32"/>
</a>
</g>
</g>
<!-- Node38&#45;&gt;Node28 -->
<g id="edge39_Node000038_Node000028" class="edge">
<title>Node38&#45;&gt;Node28</title>
<g id="a_edge39_Node000038_Node000028"><a xlink:title=" ">
<path fill="none" stroke="#63b8ff" d="M4595.02,-66.47C4351.81,-26.55 3664.14,-18.31 3450.32,-16.64"/>
<polygon fill="#63b8ff" stroke="#63b8ff" points="4594.32,-69.9 4604.77,-68.14 4595.5,-63 4594.32,-69.9"/>
</a>
</g>
</g>
<!-- Node39 -->
<g id="Node000039" class="node">
<title>Node39</title>
<g id="a_Node000039"><a xlink:href="oks__access_8cpp.html" target="_top" xlink:title=" ">
<polygon fill="white" stroke="#666666" points="4718.5,-30.5 4599.75,-30.5 4599.75,0 4718.5,0 4718.5,-30.5"/>
<text text-anchor="start" x="4607.75" y="-17" font-family="Helvetica,sans-Serif" font-size="10.00">sourcecode/oksutils</text>
<text text-anchor="middle" x="4659.12" y="-5.75" font-family="Helvetica,sans-Serif" font-size="10.00">/src/lib/oks_access.cpp</text>
</a>
</g>
</g>
<!-- Node38&#45;&gt;Node39 -->
<g id="edge40_Node000038_Node000039" class="edge">
<title>Node38&#45;&gt;Node39</title>
<g id="a_edge40_Node000038_Node000039"><a xlink:title=" ">
<path fill="none" stroke="#63b8ff" d="M4659.12,-54.63C4659.12,-46.27 4659.12,-37.65 4659.12,-30.7"/>
<polygon fill="#63b8ff" stroke="#63b8ff" points="4655.63,-54.58 4659.13,-64.58 4662.63,-54.58 4655.63,-54.58"/>
</a>
</g>
</g>
</g>
</svg>
