<?xml version="1.0" encoding="UTF-8" standalone="no"?>
<!DOCTYPE svg PUBLIC "-//W3C//DTD SVG 1.1//EN"
 "http://www.w3.org/Graphics/SVG/1.1/DTD/svg11.dtd">
<!-- Generated by graphviz version 9.0.0 (20230911.1827)
 -->
<!-- Title: sourcecode/readoutlibs/include/readoutlibs/concepts/LatencyBufferConcept.hpp Pages: 1 -->
<svg width="974pt" height="350pt"
 viewBox="0.00 0.00 974.38 349.50" xmlns="http://www.w3.org/2000/svg" xmlns:xlink="http://www.w3.org/1999/xlink">
<g id="graph0" class="graph" transform="scale(1 1) rotate(0) translate(4 345.5)">
<title>sourcecode/readoutlibs/include/readoutlibs/concepts/LatencyBufferConcept.hpp</title>
<!-- Node1 -->
<g id="Node000001" class="node">
<title>Node1</title>
<g id="a_Node000001"><a xlink:title=" ">
<polygon fill="#999999" stroke="#666666" points="716,-341.5 573.25,-341.5 573.25,-299.75 716,-299.75 716,-341.5"/>
<text text-anchor="start" x="581.25" y="-328" font-family="Helvetica,sans-Serif" font-size="10.00">sourcecode/readoutlibs</text>
<text text-anchor="start" x="581.25" y="-316.75" font-family="Helvetica,sans-Serif" font-size="10.00">/include/readoutlibs/concepts</text>
<text text-anchor="middle" x="644.62" y="-305.5" font-family="Helvetica,sans-Serif" font-size="10.00">/LatencyBufferConcept.hpp</text>
</a>
</g>
</g>
<!-- Node2 -->
<g id="Node000002" class="node">
<title>Node2</title>
<g id="a_Node000002"><a xlink:href="IterableQueueModel_8hpp.html" target="_top" xlink:title=" ">
<polygon fill="white" stroke="#666666" points="416.88,-263.75 282.38,-263.75 282.38,-222 416.88,-222 416.88,-263.75"/>
<text text-anchor="start" x="290.38" y="-250.25" font-family="Helvetica,sans-Serif" font-size="10.00">sourcecode/readoutlibs</text>
<text text-anchor="start" x="290.38" y="-239" font-family="Helvetica,sans-Serif" font-size="10.00">/include/readoutlibs/models</text>
<text text-anchor="middle" x="349.62" y="-227.75" font-family="Helvetica,sans-Serif" font-size="10.00">/IterableQueueModel.hpp</text>
</a>
</g>
</g>
<!-- Node1&#45;&gt;Node2 -->
<g id="edge1_Node000001_Node000002" class="edge">
<title>Node1&#45;&gt;Node2</title>
<g id="a_edge1_Node000001_Node000002"><a xlink:title=" ">
<path fill="none" stroke="#63b8ff" d="M561.77,-298.35C516.11,-286.62 460.15,-272.26 417.17,-261.22"/>
<polygon fill="#63b8ff" stroke="#63b8ff" points="560.81,-301.72 571.37,-300.81 562.56,-294.94 560.81,-301.72"/>
</a>
</g>
</g>
<!-- Node5 -->
<g id="Node000005" class="node">
<title>Node5</title>
<g id="a_Node000005"><a xlink:href="Readoutlibs_8cpp.html" target="_top" xlink:title=" ">
<polygon fill="white" stroke="#666666" points="449.88,-30.5 333.38,-30.5 333.38,0 449.88,0 449.88,-30.5"/>
<text text-anchor="start" x="341.38" y="-17" font-family="Helvetica,sans-Serif" font-size="10.00">sourcecode/readoutlibs</text>
<text text-anchor="middle" x="391.62" y="-5.75" font-family="Helvetica,sans-Serif" font-size="10.00">/src/Readoutlibs.cpp</text>
</a>
</g>
</g>
<!-- Node1&#45;&gt;Node5 -->
<g id="edge17_Node000001_Node000005" class="edge">
<title>Node1&#45;&gt;Node5</title>
<g id="a_edge17_Node000001_Node000005"><a xlink:title=" ">
<path fill="none" stroke="#63b8ff" d="M645.11,-288.16C644.17,-250.54 637.57,-187.27 606.62,-144.25 564.52,-85.71 486.62,-49.27 437.05,-30.88"/>
<polygon fill="#63b8ff" stroke="#63b8ff" points="641.61,-287.95 645.23,-297.91 648.61,-287.87 641.61,-287.95"/>
</a>
</g>
</g>
<!-- Node9 -->
<g id="Node000009" class="node">
<title>Node9</title>
<g id="a_Node000009"><a xlink:href="ReadoutModel_8hpp.html" target="_top" xlink:title=" ">
<polygon fill="white" stroke="#666666" points="736.88,-108.25 602.38,-108.25 602.38,-66.5 736.88,-66.5 736.88,-108.25"/>
<text text-anchor="start" x="610.38" y="-94.75" font-family="Helvetica,sans-Serif" font-size="10.00">sourcecode/readoutlibs</text>
<text text-anchor="start" x="610.38" y="-83.5" font-family="Helvetica,sans-Serif" font-size="10.00">/include/readoutlibs/models</text>
<text text-anchor="middle" x="669.62" y="-72.25" font-family="Helvetica,sans-Serif" font-size="10.00">/ReadoutModel.hpp</text>
</a>
</g>
</g>
<!-- Node1&#45;&gt;Node9 -->
<g id="edge10_Node000001_Node000009" class="edge">
<title>Node1&#45;&gt;Node9</title>
<g id="a_edge10_Node000001_Node000009"><a xlink:title=" ">
<path fill="none" stroke="#63b8ff" d="M648.02,-288.22C653.23,-239.99 663.07,-149.03 667.44,-108.61"/>
<polygon fill="#63b8ff" stroke="#63b8ff" points="644.56,-287.68 646.96,-298 651.52,-288.44 644.56,-287.68"/>
</a>
</g>
</g>
<!-- Node10 -->
<g id="Node000010" class="node">
<title>Node10</title>
<g id="a_Node000010"><a xlink:href="SkipListLatencyBufferModel_8hpp.html" target="_top" xlink:title=" ">
<polygon fill="white" stroke="#666666" points="851.25,-263.75 692,-263.75 692,-222 851.25,-222 851.25,-263.75"/>
<text text-anchor="start" x="700" y="-250.25" font-family="Helvetica,sans-Serif" font-size="10.00">sourcecode/readoutlibs</text>
<text text-anchor="start" x="700" y="-239" font-family="Helvetica,sans-Serif" font-size="10.00">/include/readoutlibs/models</text>
<text text-anchor="middle" x="771.62" y="-227.75" font-family="Helvetica,sans-Serif" font-size="10.00">/SkipListLatencyBufferModel.hpp</text>
</a>
</g>
</g>
<!-- Node1&#45;&gt;Node10 -->
<g id="edge12_Node000001_Node000010" class="edge">
<title>Node1&#45;&gt;Node10</title>
<g id="a_edge12_Node000001_Node000010"><a xlink:title=" ">
<path fill="none" stroke="#63b8ff" d="M688.38,-293.53C704.45,-283.94 722.4,-273.24 737.5,-264.23"/>
<polygon fill="#63b8ff" stroke="#63b8ff" points="686.75,-290.42 679.96,-298.55 690.34,-296.43 686.75,-290.42"/>
</a>
</g>
</g>
<!-- Node3 -->
<g id="Node000003" class="node">
<title>Node3</title>
<g id="a_Node000003"><a xlink:href="BinarySearchQueueModel_8hpp.html" target="_top" xlink:title=" ">
<polygon fill="white" stroke="#666666" points="173.38,-186 23.88,-186 23.88,-144.25 173.38,-144.25 173.38,-186"/>
<text text-anchor="start" x="31.88" y="-172.5" font-family="Helvetica,sans-Serif" font-size="10.00">sourcecode/readoutlibs</text>
<text text-anchor="start" x="31.88" y="-161.25" font-family="Helvetica,sans-Serif" font-size="10.00">/include/readoutlibs/models</text>
<text text-anchor="middle" x="98.62" y="-150" font-family="Helvetica,sans-Serif" font-size="10.00">/BinarySearchQueueModel.hpp</text>
</a>
</g>
</g>
<!-- Node2&#45;&gt;Node3 -->
<g id="edge2_Node000002_Node000003" class="edge">
<title>Node2&#45;&gt;Node3</title>
<g id="a_edge2_Node000002_Node000003"><a xlink:title=" ">
<path fill="none" stroke="#63b8ff" d="M271.59,-218.32C237.79,-208.12 198.6,-196.3 166.07,-186.48"/>
<polygon fill="#63b8ff" stroke="#63b8ff" points="270.33,-221.6 280.91,-221.14 272.35,-214.9 270.33,-221.6"/>
</a>
</g>
</g>
<!-- Node2&#45;&gt;Node5 -->
<g id="edge6_Node000002_Node000005" class="edge">
<title>Node2&#45;&gt;Node5</title>
<g id="a_edge6_Node000002_Node000005"><a xlink:title=" ">
<path fill="none" stroke="#63b8ff" d="M271.21,-224.51C251.41,-216.21 232.43,-203.99 220.62,-186 210.44,-170.49 212.32,-160.84 220.62,-144.25 248.76,-88.04 314.6,-50.15 355.89,-30.96"/>
<polygon fill="#63b8ff" stroke="#63b8ff" points="269.93,-227.76 280.52,-228.07 272.43,-221.23 269.93,-227.76"/>
</a>
</g>
</g>
<!-- Node6 -->
<g id="Node000006" class="node">
<title>Node6</title>
<g id="a_Node000006"><a xlink:href="TAProcessor_8cpp.html" target="_top" xlink:title=" ">
<polygon fill="white" stroke="#666666" points="339.88,-180.38 229.38,-180.38 229.38,-149.88 339.88,-149.88 339.88,-180.38"/>
<text text-anchor="start" x="237.38" y="-166.88" font-family="Helvetica,sans-Serif" font-size="10.00">sourcecode/trigger</text>
<text text-anchor="middle" x="284.62" y="-155.62" font-family="Helvetica,sans-Serif" font-size="10.00">/src/TAProcessor.cpp</text>
</a>
</g>
</g>
<!-- Node2&#45;&gt;Node6 -->
<g id="edge7_Node000002_Node000006" class="edge">
<title>Node2&#45;&gt;Node6</title>
<g id="a_edge7_Node000002_Node000006"><a xlink:title=" ">
<path fill="none" stroke="#63b8ff" d="M324.83,-212.97C315.29,-201.86 304.81,-189.65 296.94,-180.48"/>
<polygon fill="#63b8ff" stroke="#63b8ff" points="322.05,-215.12 331.22,-220.43 327.36,-210.56 322.05,-215.12"/>
</a>
</g>
</g>
<!-- Node7 -->
<g id="Node000007" class="node">
<title>Node7</title>
<g id="a_Node000007"><a xlink:href="TCProcessor_8cpp.html" target="_top" xlink:title=" ">
<polygon fill="white" stroke="#666666" points="468.88,-180.38 358.38,-180.38 358.38,-149.88 468.88,-149.88 468.88,-180.38"/>
<text text-anchor="start" x="366.38" y="-166.88" font-family="Helvetica,sans-Serif" font-size="10.00">sourcecode/trigger</text>
<text text-anchor="middle" x="413.62" y="-155.62" font-family="Helvetica,sans-Serif" font-size="10.00">/src/TCProcessor.cpp</text>
</a>
</g>
</g>
<!-- Node2&#45;&gt;Node7 -->
<g id="edge8_Node000002_Node000007" class="edge">
<title>Node2&#45;&gt;Node7</title>
<g id="a_edge8_Node000002_Node000007"><a xlink:title=" ">
<path fill="none" stroke="#63b8ff" d="M374.04,-212.97C383.44,-201.86 393.75,-189.65 401.5,-180.48"/>
<polygon fill="#63b8ff" stroke="#63b8ff" points="371.53,-210.52 367.75,-220.42 376.88,-215.04 371.53,-210.52"/>
</a>
</g>
</g>
<!-- Node8 -->
<g id="Node000008" class="node">
<title>Node8</title>
<g id="a_Node000008"><a xlink:href="TPProcessor_8cpp.html" target="_top" xlink:title=" ">
<polygon fill="white" stroke="#666666" points="597.88,-180.38 487.38,-180.38 487.38,-149.88 597.88,-149.88 597.88,-180.38"/>
<text text-anchor="start" x="495.38" y="-166.88" font-family="Helvetica,sans-Serif" font-size="10.00">sourcecode/trigger</text>
<text text-anchor="middle" x="542.62" y="-155.62" font-family="Helvetica,sans-Serif" font-size="10.00">/src/TPProcessor.cpp</text>
</a>
</g>
</g>
<!-- Node2&#45;&gt;Node8 -->
<g id="edge9_Node000002_Node000008" class="edge">
<title>Node2&#45;&gt;Node8</title>
<g id="a_edge9_Node000002_Node000008"><a xlink:title=" ">
<path fill="none" stroke="#63b8ff" d="M411.97,-217.41C442.69,-205.35 478.72,-191.21 505.15,-180.83"/>
<polygon fill="#63b8ff" stroke="#63b8ff" points="410.78,-214.11 402.75,-221.02 413.34,-220.63 410.78,-214.11"/>
</a>
</g>
</g>
<!-- Node4 -->
<g id="Node000004" class="node">
<title>Node4</title>
<g id="a_Node000004"><a xlink:href="FixedRateQueueModel_8hpp.html" target="_top" xlink:title=" ">
<polygon fill="white" stroke="#666666" points="135.25,-108.25 0,-108.25 0,-66.5 135.25,-66.5 135.25,-108.25"/>
<text text-anchor="start" x="8" y="-94.75" font-family="Helvetica,sans-Serif" font-size="10.00">sourcecode/readoutlibs</text>
<text text-anchor="start" x="8" y="-83.5" font-family="Helvetica,sans-Serif" font-size="10.00">/include/readoutlibs/models</text>
<text text-anchor="middle" x="67.62" y="-72.25" font-family="Helvetica,sans-Serif" font-size="10.00">/FixedRateQueueModel.hpp</text>
</a>
</g>
</g>
<!-- Node3&#45;&gt;Node4 -->
<g id="edge3_Node000003_Node000004" class="edge">
<title>Node3&#45;&gt;Node4</title>
<g id="a_edge3_Node000003_Node000004"><a xlink:title=" ">
<path fill="none" stroke="#63b8ff" d="M86.03,-133.34C82.63,-125.05 79.05,-116.29 75.96,-108.73"/>
<polygon fill="#63b8ff" stroke="#63b8ff" points="82.72,-134.5 89.74,-142.42 89.2,-131.84 82.72,-134.5"/>
</a>
</g>
</g>
<!-- Node3&#45;&gt;Node5 -->
<g id="edge5_Node000003_Node000005" class="edge">
<title>Node3&#45;&gt;Node5</title>
<g id="a_edge5_Node000003_Node000005"><a xlink:title=" ">
<path fill="none" stroke="#63b8ff" d="M121.77,-135.19C142.62,-109.83 172.26,-75.64 187.62,-66.5 232.3,-39.93 290.45,-27.37 333.23,-21.46"/>
<polygon fill="#63b8ff" stroke="#63b8ff" points="119.1,-132.93 115.49,-142.9 124.52,-137.36 119.1,-132.93"/>
</a>
</g>
</g>
<!-- Node4&#45;&gt;Node5 -->
<g id="edge4_Node000004_Node000005" class="edge">
<title>Node4&#45;&gt;Node5</title>
<g id="a_edge4_Node000004_Node000005"><a xlink:title=" ">
<path fill="none" stroke="#63b8ff" d="M146.61,-67.18C147.62,-66.95 148.62,-66.73 149.62,-66.5 212.21,-52.42 284.23,-37.65 333.32,-27.79"/>
<polygon fill="#63b8ff" stroke="#63b8ff" points="146.03,-63.72 137.07,-69.38 147.6,-70.54 146.03,-63.72"/>
</a>
</g>
</g>
<!-- Node9&#45;&gt;Node5 -->
<g id="edge11_Node000009_Node000005" class="edge">
<title>Node9&#45;&gt;Node5</title>
<g id="a_edge11_Node000009_Node000005"><a xlink:title=" ">
<path fill="none" stroke="#63b8ff" d="M591.08,-66.56C546.13,-55.22 490.69,-41.24 449.68,-30.89"/>
<polygon fill="#63b8ff" stroke="#63b8ff" points="589.95,-69.89 600.51,-68.94 591.67,-63.1 589.95,-69.89"/>
</a>
</g>
</g>
<!-- Node10&#45;&gt;Node5 -->
<g id="edge16_Node000010_Node000005" class="edge">
<title>Node10&#45;&gt;Node5</title>
<g id="a_edge16_Node000010_Node000005"><a xlink:title=" ">
<path fill="none" stroke="#63b8ff" d="M777.1,-210.43C781.99,-171 783.41,-104.06 745.62,-66.5 705.12,-26.24 539.96,-17.9 450.27,-16.39"/>
<polygon fill="#63b8ff" stroke="#63b8ff" points="773.65,-209.82 775.72,-220.21 780.58,-210.8 773.65,-209.82"/>
</a>
</g>
</g>
<!-- Node11 -->
<g id="Node000011" class="node">
<title>Node11</title>
<g id="a_Node000011"><a xlink:href="DefaultSkipListRequestHandler_8hpp.html" target="_top" xlink:title=" ">
<polygon fill="white" stroke="#666666" points="966.38,-186 792.88,-186 792.88,-144.25 966.38,-144.25 966.38,-186"/>
<text text-anchor="start" x="800.88" y="-172.5" font-family="Helvetica,sans-Serif" font-size="10.00">sourcecode/readoutlibs</text>
<text text-anchor="start" x="800.88" y="-161.25" font-family="Helvetica,sans-Serif" font-size="10.00">/include/readoutlibs/models</text>
<text text-anchor="middle" x="879.62" y="-150" font-family="Helvetica,sans-Serif" font-size="10.00">/DefaultSkipListRequestHandler.hpp</text>
</a>
</g>
</g>
<!-- Node10&#45;&gt;Node11 -->
<g id="edge13_Node000010_Node000011" class="edge">
<title>Node10&#45;&gt;Node11</title>
<g id="a_edge13_Node000010_Node000011"><a xlink:title=" ">
<path fill="none" stroke="#63b8ff" d="M809.61,-215.23C823.08,-205.79 838,-195.32 850.6,-186.48"/>
<polygon fill="#63b8ff" stroke="#63b8ff" points="807.98,-212.1 801.81,-220.71 812,-217.83 807.98,-212.1"/>
</a>
</g>
</g>
<!-- Node12 -->
<g id="Node000012" class="node">
<title>Node12</title>
<g id="a_Node000012"><a xlink:href="TPRequestHandler_8hpp.html" target="_top" xlink:title=" ">
<polygon fill="white" stroke="#666666" points="962.62,-102.62 796.62,-102.62 796.62,-72.12 962.62,-72.12 962.62,-102.62"/>
<text text-anchor="start" x="804.62" y="-89.12" font-family="Helvetica,sans-Serif" font-size="10.00">sourcecode/trigger</text>
<text text-anchor="middle" x="879.62" y="-77.88" font-family="Helvetica,sans-Serif" font-size="10.00">/src/trigger/TPRequestHandler.hpp</text>
</a>
</g>
</g>
<!-- Node11&#45;&gt;Node12 -->
<g id="edge14_Node000011_Node000012" class="edge">
<title>Node11&#45;&gt;Node12</title>
<g id="a_edge14_Node000011_Node000012"><a xlink:title=" ">
<path fill="none" stroke="#63b8ff" d="M879.62,-132.56C879.62,-122.19 879.62,-111.17 879.62,-102.73"/>
<polygon fill="#63b8ff" stroke="#63b8ff" points="876.13,-132.31 879.63,-142.31 883.13,-132.31 876.13,-132.31"/>
</a>
</g>
</g>
<!-- Node13 -->
<g id="Node000013" class="node">
<title>Node13</title>
<g id="a_Node000013"><a xlink:href="TPRequestHandler_8cpp.html" target="_top" xlink:title=" ">
<polygon fill="white" stroke="#666666" points="947.62,-30.5 811.62,-30.5 811.62,0 947.62,0 947.62,-30.5"/>
<text text-anchor="start" x="819.62" y="-17" font-family="Helvetica,sans-Serif" font-size="10.00">sourcecode/trigger</text>
<text text-anchor="middle" x="879.62" y="-5.75" font-family="Helvetica,sans-Serif" font-size="10.00">/src/TPRequestHandler.cpp</text>
</a>
</g>
</g>
<!-- Node12&#45;&gt;Node13 -->
<g id="edge15_Node000012_Node000013" class="edge">
<title>Node12&#45;&gt;Node13</title>
<g id="a_edge15_Node000012_Node000013"><a xlink:title=" ">
<path fill="none" stroke="#63b8ff" d="M879.62,-60.4C879.62,-50.39 879.62,-39.31 879.62,-30.76"/>
<polygon fill="#63b8ff" stroke="#63b8ff" points="876.13,-60.33 879.63,-70.33 883.13,-60.33 876.13,-60.33"/>
</a>
</g>
</g>
</g>
</svg>
