<?xml version="1.0" encoding="UTF-8" standalone="no"?>
<!DOCTYPE svg PUBLIC "-//W3C//DTD SVG 1.1//EN"
 "http://www.w3.org/Graphics/SVG/1.1/DTD/svg11.dtd">
<!-- Generated by graphviz version 9.0.0 (20230911.1827)
 -->
<!-- Title: sourcecode/readoutlibs/include/readoutlibs/concepts/LatencyBufferConcept.hpp Pages: 1 -->
<svg width="315pt" height="105pt"
 viewBox="0.00 0.00 314.62 105.00" xmlns="http://www.w3.org/2000/svg" xmlns:xlink="http://www.w3.org/1999/xlink">
<g id="graph0" class="graph" transform="scale(1 1) rotate(0) translate(4 101)">
<title>sourcecode/readoutlibs/include/readoutlibs/concepts/LatencyBufferConcept.hpp</title>
<!-- Node1 -->
<g id="Node000001" class="node">
<title>Node1</title>
<g id="a_Node000001"><a xlink:title=" ">
<polygon fill="#999999" stroke="#666666" points="248.88,-97 106.12,-97 106.12,-55.25 248.88,-55.25 248.88,-97"/>
<text text-anchor="start" x="114.12" y="-83.5" font-family="Helvetica,sans-Serif" font-size="10.00">sourcecode/readoutlibs</text>
<text text-anchor="start" x="114.12" y="-72.25" font-family="Helvetica,sans-Serif" font-size="10.00">/include/readoutlibs/concepts</text>
<text text-anchor="middle" x="177.5" y="-61" font-family="Helvetica,sans-Serif" font-size="10.00">/LatencyBufferConcept.hpp</text>
</a>
</g>
</g>
<!-- Node2 -->
<g id="Node000002" class="node">
<title>Node2</title>
<g id="a_Node000002"><a xlink:title=" ">
<polygon fill="#e0e0e0" stroke="#999999" points="97,-19.25 0,-19.25 0,0 97,0 97,-19.25"/>
<text text-anchor="middle" x="48.5" y="-5.75" font-family="Helvetica,sans-Serif" font-size="10.00">nlohmann/json.hpp</text>
</a>
</g>
</g>
<!-- Node1&#45;&gt;Node2 -->
<g id="edge1_Node000001_Node000002" class="edge">
<title>Node1&#45;&gt;Node2</title>
<g id="a_edge1_Node000001_Node000002"><a xlink:title=" ">
<path fill="none" stroke="#63b8ff" d="M137.04,-54.89C117.46,-45.1 94.43,-33.59 76.76,-24.76"/>
<polygon fill="#63b8ff" stroke="#63b8ff" points="78.4,-21.66 67.89,-20.32 75.27,-27.92 78.4,-21.66"/>
</a>
</g>
</g>
<!-- Node3 -->
<g id="Node000003" class="node">
<title>Node3</title>
<g id="a_Node000003"><a xlink:title=" ">
<polygon fill="#e0e0e0" stroke="#999999" points="240.25,-19.25 114.75,-19.25 114.75,0 240.25,0 240.25,-19.25"/>
<text text-anchor="middle" x="177.5" y="-5.75" font-family="Helvetica,sans-Serif" font-size="10.00">appdal/LatencyBuffer.hpp</text>
</a>
</g>
</g>
<!-- Node1&#45;&gt;Node3 -->
<g id="edge2_Node000001_Node000003" class="edge">
<title>Node1&#45;&gt;Node3</title>
<g id="a_edge2_Node000001_Node000003"><a xlink:title=" ">
<path fill="none" stroke="#63b8ff" d="M177.5,-55.07C177.5,-47.4 177.5,-38.64 177.5,-30.95"/>
<polygon fill="#63b8ff" stroke="#63b8ff" points="181,-31.21 177.5,-21.21 174,-31.21 181,-31.21"/>
</a>
</g>
</g>
<!-- Node4 -->
<g id="Node000004" class="node">
<title>Node4</title>
<g id="a_Node000004"><a xlink:title=" ">
<polygon fill="#e0e0e0" stroke="#999999" points="306.62,-19.25 258.38,-19.25 258.38,0 306.62,0 306.62,-19.25"/>
<text text-anchor="middle" x="282.5" y="-5.75" font-family="Helvetica,sans-Serif" font-size="10.00">cstddef</text>
</a>
</g>
</g>
<!-- Node1&#45;&gt;Node4 -->
<g id="edge3_Node000001_Node000004" class="edge">
<title>Node1&#45;&gt;Node4</title>
<g id="a_edge3_Node000001_Node000004"><a xlink:title=" ">
<path fill="none" stroke="#63b8ff" d="M210.43,-54.89C225.92,-45.38 244.06,-34.24 258.26,-25.51"/>
<polygon fill="#63b8ff" stroke="#63b8ff" points="259.84,-28.65 266.53,-20.44 256.17,-22.69 259.84,-28.65"/>
</a>
</g>
</g>
</g>
</svg>
