<?xml version="1.0" encoding="UTF-8" standalone="no"?>
<!DOCTYPE svg PUBLIC "-//W3C//DTD SVG 1.1//EN"
 "http://www.w3.org/Graphics/SVG/1.1/DTD/svg11.dtd">
<!-- Generated by graphviz version 9.0.0 (20230911.1827)
 -->
<!-- Title: sourcecode/listrev/src/ListWrapper.hpp Pages: 1 -->
<svg width="232pt" height="172pt"
 viewBox="0.00 0.00 231.62 171.50" xmlns="http://www.w3.org/2000/svg" xmlns:xlink="http://www.w3.org/1999/xlink">
<g id="graph0" class="graph" transform="scale(1 1) rotate(0) translate(4 167.5)">
<title>sourcecode/listrev/src/ListWrapper.hpp</title>
<!-- Node1 -->
<g id="Node000001" class="node">
<title>Node1</title>
<g id="a_Node000001"><a xlink:title=" ">
<polygon fill="#999999" stroke="#666666" points="163.75,-163.5 57.75,-163.5 57.75,-133 163.75,-133 163.75,-163.5"/>
<text text-anchor="start" x="65.75" y="-150" font-family="Helvetica,sans-Serif" font-size="10.00">sourcecode/listrev</text>
<text text-anchor="middle" x="110.75" y="-138.75" font-family="Helvetica,sans-Serif" font-size="10.00">/src/ListWrapper.hpp</text>
</a>
</g>
</g>
<!-- Node2 -->
<g id="Node000002" class="node">
<title>Node2</title>
<g id="a_Node000002"><a xlink:href="ListCreator_8hpp.html" target="_top" xlink:title=" ">
<polygon fill="white" stroke="#666666" points="101.5,-97 0,-97 0,-66.5 101.5,-66.5 101.5,-97"/>
<text text-anchor="start" x="8" y="-83.5" font-family="Helvetica,sans-Serif" font-size="10.00">sourcecode/listrev</text>
<text text-anchor="middle" x="50.75" y="-72.25" font-family="Helvetica,sans-Serif" font-size="10.00">/src/ListCreator.hpp</text>
</a>
</g>
</g>
<!-- Node1&#45;&gt;Node2 -->
<g id="edge1_Node000001_Node000002" class="edge">
<title>Node1&#45;&gt;Node2</title>
<g id="a_edge1_Node000001_Node000002"><a xlink:title=" ">
<path fill="none" stroke="#63b8ff" d="M89.5,-124.41C81.12,-115.4 71.74,-105.32 64.31,-97.33"/>
<polygon fill="#63b8ff" stroke="#63b8ff" points="86.73,-126.57 96.1,-131.51 91.86,-121.8 86.73,-126.57"/>
</a>
</g>
</g>
<!-- Node4 -->
<g id="Node000004" class="node">
<title>Node4</title>
<g id="a_Node000004"><a xlink:href="ListStorage_8hpp.html" target="_top" xlink:title=" ">
<polygon fill="white" stroke="#666666" points="223.62,-97 119.88,-97 119.88,-66.5 223.62,-66.5 223.62,-97"/>
<text text-anchor="start" x="127.88" y="-83.5" font-family="Helvetica,sans-Serif" font-size="10.00">sourcecode/listrev</text>
<text text-anchor="middle" x="171.75" y="-72.25" font-family="Helvetica,sans-Serif" font-size="10.00">/src/ListStorage.hpp</text>
</a>
</g>
</g>
<!-- Node1&#45;&gt;Node4 -->
<g id="edge3_Node000001_Node000004" class="edge">
<title>Node1&#45;&gt;Node4</title>
<g id="a_edge3_Node000001_Node000004"><a xlink:title=" ">
<path fill="none" stroke="#63b8ff" d="M132.35,-124.41C140.87,-115.4 150.41,-105.32 157.96,-97.33"/>
<polygon fill="#63b8ff" stroke="#63b8ff" points="129.96,-121.84 125.63,-131.51 135.05,-126.65 129.96,-121.84"/>
</a>
</g>
</g>
<!-- Node3 -->
<g id="Node000003" class="node">
<title>Node3</title>
<g id="a_Node000003"><a xlink:href="ListCreator_8cpp.html" target="_top" xlink:title=" ">
<polygon fill="white" stroke="#666666" points="101.5,-30.5 0,-30.5 0,0 101.5,0 101.5,-30.5"/>
<text text-anchor="start" x="8" y="-17" font-family="Helvetica,sans-Serif" font-size="10.00">sourcecode/listrev</text>
<text text-anchor="middle" x="50.75" y="-5.75" font-family="Helvetica,sans-Serif" font-size="10.00">/src/ListCreator.cpp</text>
</a>
</g>
</g>
<!-- Node2&#45;&gt;Node3 -->
<g id="edge2_Node000002_Node000003" class="edge">
<title>Node2&#45;&gt;Node3</title>
<g id="a_edge2_Node000002_Node000003"><a xlink:title=" ">
<path fill="none" stroke="#63b8ff" d="M50.75,-54.81C50.75,-46.64 50.75,-37.91 50.75,-30.83"/>
<polygon fill="#63b8ff" stroke="#63b8ff" points="47.25,-54.6 50.75,-64.6 54.25,-54.6 47.25,-54.6"/>
</a>
</g>
</g>
<!-- Node5 -->
<g id="Node000005" class="node">
<title>Node5</title>
<g id="a_Node000005"><a xlink:href="ListStorage_8cpp.html" target="_top" xlink:title=" ">
<polygon fill="white" stroke="#666666" points="223.62,-30.5 119.88,-30.5 119.88,0 223.62,0 223.62,-30.5"/>
<text text-anchor="start" x="127.88" y="-17" font-family="Helvetica,sans-Serif" font-size="10.00">sourcecode/listrev</text>
<text text-anchor="middle" x="171.75" y="-5.75" font-family="Helvetica,sans-Serif" font-size="10.00">/src/ListStorage.cpp</text>
</a>
</g>
</g>
<!-- Node4&#45;&gt;Node5 -->
<g id="edge4_Node000004_Node000005" class="edge">
<title>Node4&#45;&gt;Node5</title>
<g id="a_edge4_Node000004_Node000005"><a xlink:title=" ">
<path fill="none" stroke="#63b8ff" d="M171.75,-54.81C171.75,-46.64 171.75,-37.91 171.75,-30.83"/>
<polygon fill="#63b8ff" stroke="#63b8ff" points="168.25,-54.6 171.75,-64.6 175.25,-54.6 168.25,-54.6"/>
</a>
</g>
</g>
</g>
</svg>
