<?xml version="1.0" encoding="UTF-8" standalone="no"?>
<!DOCTYPE svg PUBLIC "-//W3C//DTD SVG 1.1//EN"
 "http://www.w3.org/Graphics/SVG/1.1/DTD/svg11.dtd">
<!-- Generated by graphviz version 9.0.0 (20230911.1827)
 -->
<!-- Title: sourcecode/trigger/src/trigger/LivetimeCounter.hpp Pages: 1 -->
<svg width="336pt" height="172pt"
 viewBox="0.00 0.00 336.38 171.50" xmlns="http://www.w3.org/2000/svg" xmlns:xlink="http://www.w3.org/1999/xlink">
<g id="graph0" class="graph" transform="scale(1 1) rotate(0) translate(4 167.5)">
<title>sourcecode/trigger/src/trigger/LivetimeCounter.hpp</title>
<!-- Node1 -->
<g id="Node000001" class="node">
<title>Node1</title>
<g id="a_Node000001"><a xlink:title=" ">
<polygon fill="#999999" stroke="#666666" points="229.75,-163.5 75,-163.5 75,-133 229.75,-133 229.75,-163.5"/>
<text text-anchor="start" x="83" y="-150" font-family="Helvetica,sans-Serif" font-size="10.00">sourcecode/trigger</text>
<text text-anchor="middle" x="152.38" y="-138.75" font-family="Helvetica,sans-Serif" font-size="10.00">/src/trigger/LivetimeCounter.hpp</text>
</a>
</g>
</g>
<!-- Node2 -->
<g id="Node000002" class="node">
<title>Node2</title>
<g id="a_Node000002"><a xlink:href="LivetimeCounter_8cpp.html" target="_top" xlink:title=" ">
<polygon fill="white" stroke="#666666" points="124.75,-97 0,-97 0,-66.5 124.75,-66.5 124.75,-97"/>
<text text-anchor="start" x="8" y="-83.5" font-family="Helvetica,sans-Serif" font-size="10.00">sourcecode/trigger</text>
<text text-anchor="middle" x="62.38" y="-72.25" font-family="Helvetica,sans-Serif" font-size="10.00">/src/LivetimeCounter.cpp</text>
</a>
</g>
</g>
<!-- Node1&#45;&gt;Node2 -->
<g id="edge1_Node000001_Node000002" class="edge">
<title>Node1&#45;&gt;Node2</title>
<g id="a_edge1_Node000001_Node000002"><a xlink:title=" ">
<path fill="none" stroke="#63b8ff" d="M122.82,-126.07C109.68,-116.66 94.55,-105.81 82.72,-97.33"/>
<polygon fill="#63b8ff" stroke="#63b8ff" points="120.56,-128.75 130.72,-131.73 124.63,-123.06 120.56,-128.75"/>
</a>
</g>
</g>
<!-- Node3 -->
<g id="Node000003" class="node">
<title>Node3</title>
<g id="a_Node000003"><a xlink:href="TokenManager_8cpp.html" target="_top" xlink:title=" ">
<polygon fill="white" stroke="#666666" points="262.38,-30.5 144.38,-30.5 144.38,0 262.38,0 262.38,-30.5"/>
<text text-anchor="start" x="152.38" y="-17" font-family="Helvetica,sans-Serif" font-size="10.00">sourcecode/trigger</text>
<text text-anchor="middle" x="203.38" y="-5.75" font-family="Helvetica,sans-Serif" font-size="10.00">/src/TokenManager.cpp</text>
</a>
</g>
</g>
<!-- Node1&#45;&gt;Node3 -->
<g id="edge2_Node000001_Node000003" class="edge">
<title>Node1&#45;&gt;Node3</title>
<g id="a_edge2_Node000001_Node000003"><a xlink:title=" ">
<path fill="none" stroke="#63b8ff" d="M156.16,-121.49C159.09,-105.28 163.93,-84.16 171.38,-66.5 176.76,-53.73 185.28,-40.56 192.17,-30.91"/>
<polygon fill="#63b8ff" stroke="#63b8ff" points="152.72,-120.86 154.53,-131.3 159.62,-122.01 152.72,-120.86"/>
</a>
</g>
</g>
<!-- Node4 -->
<g id="Node000004" class="node">
<title>Node4</title>
<g id="a_Node000004"><a xlink:href="TokenManager_8hpp.html" target="_top" xlink:title=" ">
<polygon fill="white" stroke="#666666" points="328.38,-97 180.38,-97 180.38,-66.5 328.38,-66.5 328.38,-97"/>
<text text-anchor="start" x="188.38" y="-83.5" font-family="Helvetica,sans-Serif" font-size="10.00">sourcecode/trigger</text>
<text text-anchor="middle" x="254.38" y="-72.25" font-family="Helvetica,sans-Serif" font-size="10.00">/src/trigger/TokenManager.hpp</text>
</a>
</g>
</g>
<!-- Node1&#45;&gt;Node4 -->
<g id="edge3_Node000001_Node000004" class="edge">
<title>Node1&#45;&gt;Node4</title>
<g id="a_edge3_Node000001_Node000004"><a xlink:title=" ">
<path fill="none" stroke="#63b8ff" d="M185.01,-126.61C200.09,-117.08 217.65,-105.98 231.32,-97.33"/>
<polygon fill="#63b8ff" stroke="#63b8ff" points="183.38,-123.5 176.8,-131.81 187.12,-129.42 183.38,-123.5"/>
</a>
</g>
</g>
<!-- Node4&#45;&gt;Node3 -->
<g id="edge4_Node000004_Node000003" class="edge">
<title>Node4&#45;&gt;Node3</title>
<g id="a_edge4_Node000004_Node000003"><a xlink:title=" ">
<path fill="none" stroke="#63b8ff" d="M235.87,-57.35C228.86,-48.48 221.09,-38.65 214.9,-30.83"/>
<polygon fill="#63b8ff" stroke="#63b8ff" points="232.92,-59.25 241.86,-64.93 238.41,-54.91 232.92,-59.25"/>
</a>
</g>
</g>
</g>
</svg>
