<?xml version="1.0" encoding="UTF-8" standalone="no"?>
<!DOCTYPE svg PUBLIC "-//W3C//DTD SVG 1.1//EN"
 "http://www.w3.org/Graphics/SVG/1.1/DTD/svg11.dtd">
<!-- Generated by graphviz version 9.0.0 (20230911.1827)
 -->
<!-- Title: sourcecode/ers/src/LocalContext.cpp Pages: 1 -->
<svg width="580pt" height="260pt"
 viewBox="0.00 0.00 580.12 259.50" xmlns="http://www.w3.org/2000/svg" xmlns:xlink="http://www.w3.org/1999/xlink">
<g id="graph0" class="graph" transform="scale(1 1) rotate(0) translate(4 255.5)">
<title>sourcecode/ers/src/LocalContext.cpp</title>
<!-- Node1 -->
<g id="Node000001" class="node">
<title>Node1</title>
<g id="a_Node000001"><a xlink:title=" ">
<polygon fill="#999999" stroke="#666666" points="336,-251.5 236.75,-251.5 236.75,-221 336,-221 336,-251.5"/>
<text text-anchor="start" x="244.75" y="-238" font-family="Helvetica,sans-Serif" font-size="10.00">sourcecode/ers/src</text>
<text text-anchor="middle" x="286.38" y="-226.75" font-family="Helvetica,sans-Serif" font-size="10.00">/LocalContext.cpp</text>
</a>
</g>
</g>
<!-- Node2 -->
<g id="Node000002" class="node">
<title>Node2</title>
<g id="a_Node000002"><a xlink:title=" ">
<polygon fill="#e0e0e0" stroke="#999999" points="64.75,-129.75 0,-129.75 0,-110.5 64.75,-110.5 64.75,-129.75"/>
<text text-anchor="middle" x="32.38" y="-116.25" font-family="Helvetica,sans-Serif" font-size="10.00">sys/types.h</text>
</a>
</g>
</g>
<!-- Node1&#45;&gt;Node2 -->
<g id="edge1_Node000001_Node000002" class="edge">
<title>Node1&#45;&gt;Node2</title>
<g id="a_edge1_Node000001_Node000002"><a xlink:title=" ">
<path fill="none" stroke="#63b8ff" d="M236.45,-229.34C178.6,-221.62 87.82,-206.48 61.38,-185 47.92,-174.07 40.46,-155.55 36.49,-141.26"/>
<polygon fill="#63b8ff" stroke="#63b8ff" points="39.91,-140.48 34.19,-131.56 33.09,-142.1 39.91,-140.48"/>
</a>
</g>
</g>
<!-- Node3 -->
<g id="Node000003" class="node">
<title>Node3</title>
<g id="a_Node000003"><a xlink:title=" ">
<polygon fill="#e0e0e0" stroke="#999999" points="276.12,-185 234.62,-185 234.62,-165.75 276.12,-165.75 276.12,-185"/>
<text text-anchor="middle" x="255.38" y="-171.5" font-family="Helvetica,sans-Serif" font-size="10.00">pwd.h</text>
</a>
</g>
</g>
<!-- Node1&#45;&gt;Node3 -->
<g id="edge2_Node000001_Node000003" class="edge">
<title>Node1&#45;&gt;Node3</title>
<g id="a_edge2_Node000001_Node000003"><a xlink:title=" ">
<path fill="none" stroke="#63b8ff" d="M278.71,-220.7C274.72,-213.11 269.78,-203.74 265.48,-195.57"/>
<polygon fill="#63b8ff" stroke="#63b8ff" points="268.62,-194.01 260.86,-186.79 262.42,-197.27 268.62,-194.01"/>
</a>
</g>
</g>
<!-- Node4 -->
<g id="Node000004" class="node">
<title>Node4</title>
<g id="a_Node000004"><a xlink:title=" ">
<polygon fill="#e0e0e0" stroke="#999999" points="234.25,-129.75 184.5,-129.75 184.5,-110.5 234.25,-110.5 234.25,-129.75"/>
<text text-anchor="middle" x="209.38" y="-116.25" font-family="Helvetica,sans-Serif" font-size="10.00">unistd.h</text>
</a>
</g>
</g>
<!-- Node1&#45;&gt;Node4 -->
<g id="edge3_Node000001_Node000004" class="edge">
<title>Node1&#45;&gt;Node4</title>
<g id="a_edge3_Node000001_Node000004"><a xlink:title=" ">
<path fill="none" stroke="#63b8ff" d="M262,-220.63C249.3,-211.82 234.54,-199.5 225.38,-185 217.04,-171.82 213.05,-154.55 211.13,-141.29"/>
<polygon fill="#63b8ff" stroke="#63b8ff" points="214.64,-141.12 210.03,-131.58 207.68,-141.91 214.64,-141.12"/>
</a>
</g>
</g>
<!-- Node5 -->
<g id="Node000005" class="node">
<title>Node5</title>
<g id="a_Node000005"><a xlink:title=" ">
<polygon fill="#e0e0e0" stroke="#999999" points="340.75,-185 294,-185 294,-165.75 340.75,-165.75 340.75,-185"/>
<text text-anchor="middle" x="317.38" y="-171.5" font-family="Helvetica,sans-Serif" font-size="10.00">stdlib.h</text>
</a>
</g>
</g>
<!-- Node1&#45;&gt;Node5 -->
<g id="edge4_Node000001_Node000005" class="edge">
<title>Node1&#45;&gt;Node5</title>
<g id="a_edge4_Node000001_Node000005"><a xlink:title=" ">
<path fill="none" stroke="#63b8ff" d="M294.04,-220.7C298.03,-213.11 302.97,-203.74 307.27,-195.57"/>
<polygon fill="#63b8ff" stroke="#63b8ff" points="310.33,-197.27 311.89,-186.79 304.13,-194.01 310.33,-197.27"/>
</a>
</g>
</g>
<!-- Node6 -->
<g id="Node000006" class="node">
<title>Node6</title>
<g id="a_Node000006"><a xlink:title=" ">
<polygon fill="#e0e0e0" stroke="#999999" points="404.38,-185 358.38,-185 358.38,-165.75 404.38,-165.75 404.38,-185"/>
<text text-anchor="middle" x="381.38" y="-171.5" font-family="Helvetica,sans-Serif" font-size="10.00">iterator</text>
</a>
</g>
</g>
<!-- Node1&#45;&gt;Node6 -->
<g id="edge5_Node000001_Node000006" class="edge">
<title>Node1&#45;&gt;Node6</title>
<g id="a_edge5_Node000001_Node000006"><a xlink:title=" ">
<path fill="none" stroke="#63b8ff" d="M309.86,-220.7C324.18,-211.82 342.46,-200.49 356.96,-191.51"/>
<polygon fill="#63b8ff" stroke="#63b8ff" points="358.79,-194.49 365.44,-186.25 355.1,-188.54 358.79,-194.49"/>
</a>
</g>
</g>
<!-- Node7 -->
<g id="Node000007" class="node">
<title>Node7</title>
<g id="a_Node000007"><a xlink:href="LocalContext_8hpp.html" target="_top" xlink:title=" ">
<polygon fill="white" stroke="#666666" points="178.12,-185 70.62,-185 70.62,-165.75 178.12,-165.75 178.12,-185"/>
<text text-anchor="middle" x="124.38" y="-171.5" font-family="Helvetica,sans-Serif" font-size="10.00">ers/LocalContext.hpp</text>
</a>
</g>
</g>
<!-- Node1&#45;&gt;Node7 -->
<g id="edge6_Node000001_Node000007" class="edge">
<title>Node1&#45;&gt;Node7</title>
<g id="a_edge6_Node000001_Node000007"><a xlink:title=" ">
<path fill="none" stroke="#63b8ff" d="M245.91,-220.55C219.46,-210.93 185.24,-198.5 159.86,-189.27"/>
<polygon fill="#63b8ff" stroke="#63b8ff" points="161.24,-186.05 150.64,-185.92 158.84,-192.63 161.24,-186.05"/>
</a>
</g>
</g>
<!-- Node13 -->
<g id="Node000013" class="node">
<title>Node13</title>
<g id="a_Node000013"><a xlink:title=" ">
<polygon fill="#e0e0e0" stroke="#999999" points="494.12,-185 422.62,-185 422.62,-165.75 494.12,-165.75 494.12,-185"/>
<text text-anchor="middle" x="458.38" y="-171.5" font-family="Helvetica,sans-Serif" font-size="10.00">sys/syscall.h</text>
</a>
</g>
</g>
<!-- Node1&#45;&gt;Node13 -->
<g id="edge14_Node000001_Node000013" class="edge">
<title>Node1&#45;&gt;Node13</title>
<g id="a_edge14_Node000001_Node000013"><a xlink:title=" ">
<path fill="none" stroke="#63b8ff" d="M329.33,-220.55C357.58,-210.88 394.18,-198.35 421.18,-189.11"/>
<polygon fill="#63b8ff" stroke="#63b8ff" points="421.98,-192.53 430.31,-185.98 419.72,-185.91 421.98,-192.53"/>
</a>
</g>
</g>
<!-- Node14 -->
<g id="Node000014" class="node">
<title>Node14</title>
<g id="a_Node000014"><a xlink:title=" ">
<polygon fill="#e0e0e0" stroke="#999999" points="572.12,-185 512.62,-185 512.62,-165.75 572.12,-165.75 572.12,-185"/>
<text text-anchor="middle" x="542.38" y="-171.5" font-family="Helvetica,sans-Serif" font-size="10.00">execinfo.h</text>
</a>
</g>
</g>
<!-- Node1&#45;&gt;Node14 -->
<g id="edge15_Node000001_Node000014" class="edge">
<title>Node1&#45;&gt;Node14</title>
<g id="a_edge15_Node000001_Node000014"><a xlink:title=" ">
<path fill="none" stroke="#63b8ff" d="M336.34,-223.76C384.4,-212.71 456.18,-196.2 501.09,-185.87"/>
<polygon fill="#63b8ff" stroke="#63b8ff" points="501.73,-189.31 510.69,-183.66 500.16,-182.49 501.73,-189.31"/>
</a>
</g>
</g>
<!-- Node7&#45;&gt;Node2 -->
<g id="edge7_Node000007_Node000002" class="edge">
<title>Node7&#45;&gt;Node2</title>
<g id="a_edge7_Node000007_Node000002"><a xlink:title=" ">
<path fill="none" stroke="#63b8ff" d="M108.77,-165.34C94.76,-157.23 73.94,-145.18 57.57,-135.71"/>
<polygon fill="#63b8ff" stroke="#63b8ff" points="59.78,-132.94 49.37,-130.96 56.27,-139 59.78,-132.94"/>
</a>
</g>
</g>
<!-- Node7&#45;&gt;Node4 -->
<g id="edge8_Node000007_Node000004" class="edge">
<title>Node7&#45;&gt;Node4</title>
<g id="a_edge8_Node000007_Node000004"><a xlink:title=" ">
<path fill="none" stroke="#63b8ff" d="M138.79,-165.34C151.49,-157.39 170.25,-145.64 185.23,-136.25"/>
<polygon fill="#63b8ff" stroke="#63b8ff" points="186.99,-139.28 193.6,-131.01 183.27,-133.35 186.99,-139.28"/>
</a>
</g>
</g>
<!-- Node8 -->
<g id="Node000008" class="node">
<title>Node8</title>
<g id="a_Node000008"><a xlink:href="Context_8hpp.html" target="_top" xlink:title=" ">
<polygon fill="white" stroke="#666666" points="166.12,-129.75 82.62,-129.75 82.62,-110.5 166.12,-110.5 166.12,-129.75"/>
<text text-anchor="middle" x="124.38" y="-116.25" font-family="Helvetica,sans-Serif" font-size="10.00">ers/Context.hpp</text>
</a>
</g>
</g>
<!-- Node7&#45;&gt;Node8 -->
<g id="edge9_Node000007_Node000008" class="edge">
<title>Node7&#45;&gt;Node8</title>
<g id="a_edge9_Node000007_Node000008"><a xlink:title=" ">
<path fill="none" stroke="#63b8ff" d="M124.38,-165.58C124.38,-159.07 124.38,-149.92 124.38,-141.62"/>
<polygon fill="#63b8ff" stroke="#63b8ff" points="127.88,-141.62 124.38,-131.62 120.88,-141.62 127.88,-141.62"/>
</a>
</g>
</g>
<!-- Node9 -->
<g id="Node000009" class="node">
<title>Node9</title>
<g id="a_Node000009"><a xlink:title=" ">
<polygon fill="#e0e0e0" stroke="#999999" points="84.38,-74.5 44.38,-74.5 44.38,-55.25 84.38,-55.25 84.38,-74.5"/>
<text text-anchor="middle" x="64.38" y="-61" font-family="Helvetica,sans-Serif" font-size="10.00">string</text>
</a>
</g>
</g>
<!-- Node8&#45;&gt;Node9 -->
<g id="edge10_Node000008_Node000009" class="edge">
<title>Node8&#45;&gt;Node9</title>
<g id="a_edge10_Node000008_Node000009"><a xlink:title=" ">
<path fill="none" stroke="#63b8ff" d="M114.2,-110.09C105.61,-102.47 93.11,-91.37 82.77,-82.2"/>
<polygon fill="#63b8ff" stroke="#63b8ff" points="85.34,-79.8 75.53,-75.78 80.69,-85.04 85.34,-79.8"/>
</a>
</g>
</g>
<!-- Node10 -->
<g id="Node000010" class="node">
<title>Node10</title>
<g id="a_Node000010"><a xlink:title=" ">
<polygon fill="#e0e0e0" stroke="#999999" points="145.88,-74.5 102.88,-74.5 102.88,-55.25 145.88,-55.25 145.88,-74.5"/>
<text text-anchor="middle" x="124.38" y="-61" font-family="Helvetica,sans-Serif" font-size="10.00">vector</text>
</a>
</g>
</g>
<!-- Node8&#45;&gt;Node10 -->
<g id="edge11_Node000008_Node000010" class="edge">
<title>Node8&#45;&gt;Node10</title>
<g id="a_edge11_Node000008_Node000010"><a xlink:title=" ">
<path fill="none" stroke="#63b8ff" d="M124.38,-110.33C124.38,-103.82 124.38,-94.67 124.38,-86.37"/>
<polygon fill="#63b8ff" stroke="#63b8ff" points="127.88,-86.37 124.38,-76.37 120.88,-86.37 127.88,-86.37"/>
</a>
</g>
</g>
<!-- Node11 -->
<g id="Node000011" class="node">
<title>Node11</title>
<g id="a_Node000011"><a xlink:href="ers_2include_2ers_2Configuration_8hpp.html" target="_top" xlink:title=" ">
<polygon fill="white" stroke="#666666" points="270.75,-74.5 164,-74.5 164,-55.25 270.75,-55.25 270.75,-74.5"/>
<text text-anchor="middle" x="217.38" y="-61" font-family="Helvetica,sans-Serif" font-size="10.00">ers/Configuration.hpp</text>
</a>
</g>
</g>
<!-- Node8&#45;&gt;Node11 -->
<g id="edge12_Node000008_Node000011" class="edge">
<title>Node8&#45;&gt;Node11</title>
<g id="a_edge12_Node000008_Node000011"><a xlink:title=" ">
<path fill="none" stroke="#63b8ff" d="M140.15,-110.09C154.31,-101.98 175.36,-89.93 191.9,-80.46"/>
<polygon fill="#63b8ff" stroke="#63b8ff" points="193.27,-83.71 200.21,-75.7 189.79,-77.64 193.27,-83.71"/>
</a>
</g>
</g>
<!-- Node12 -->
<g id="Node000012" class="node">
<title>Node12</title>
<g id="a_Node000012"><a xlink:title=" ">
<polygon fill="#e0e0e0" stroke="#999999" points="244.12,-19.25 190.62,-19.25 190.62,0 244.12,0 244.12,-19.25"/>
<text text-anchor="middle" x="217.38" y="-5.75" font-family="Helvetica,sans-Serif" font-size="10.00">iostream</text>
</a>
</g>
</g>
<!-- Node11&#45;&gt;Node12 -->
<g id="edge13_Node000011_Node000012" class="edge">
<title>Node11&#45;&gt;Node12</title>
<g id="a_edge13_Node000011_Node000012"><a xlink:title=" ">
<path fill="none" stroke="#63b8ff" d="M217.38,-55.08C217.38,-48.57 217.38,-39.42 217.38,-31.12"/>
<polygon fill="#63b8ff" stroke="#63b8ff" points="220.88,-31.12 217.38,-21.12 213.88,-31.12 220.88,-31.12"/>
</a>
</g>
</g>
</g>
</svg>
