<?xml version="1.0" encoding="UTF-8" standalone="no"?>
<!DOCTYPE svg PUBLIC "-//W3C//DTD SVG 1.1//EN"
 "http://www.w3.org/Graphics/SVG/1.1/DTD/svg11.dtd">
<!-- Generated by graphviz version 9.0.0 (20230911.1827)
 -->
<!-- Title: sourcecode/dbe/src/internal/MainWindow.cpp Pages: 1 -->
<svg width="4010pt" height="260pt"
 viewBox="0.00 0.00 4009.88 259.50" xmlns="http://www.w3.org/2000/svg" xmlns:xlink="http://www.w3.org/1999/xlink">
<g id="graph0" class="graph" transform="scale(1 1) rotate(0) translate(4 255.5)">
<title>sourcecode/dbe/src/internal/MainWindow.cpp</title>
<!-- Node1 -->
<g id="Node000001" class="node">
<title>Node1</title>
<g id="a_Node000001"><a xlink:title=" ">
<polygon fill="#999999" stroke="#666666" points="2558.62,-251.5 2431.62,-251.5 2431.62,-221 2558.62,-221 2558.62,-251.5"/>
<text text-anchor="start" x="2439.62" y="-238" font-family="Helvetica,sans-Serif" font-size="10.00">sourcecode/dbe/src</text>
<text text-anchor="middle" x="2495.12" y="-226.75" font-family="Helvetica,sans-Serif" font-size="10.00">/internal/MainWindow.cpp</text>
</a>
</g>
</g>
<!-- Node2 -->
<g id="Node000002" class="node">
<title>Node2</title>
<g id="a_Node000002"><a xlink:href="MainWindow_8hpp.html" target="_top" xlink:title=" ">
<polygon fill="#fff0f0" stroke="red" points="719.25,-185 611,-185 611,-165.75 719.25,-165.75 719.25,-185"/>
<text text-anchor="middle" x="665.12" y="-171.5" font-family="Helvetica,sans-Serif" font-size="10.00">dbe/MainWindow.hpp</text>
</a>
</g>
</g>
<!-- Node1&#45;&gt;Node2 -->
<g id="edge1_Node000001_Node000002" class="edge">
<title>Node1&#45;&gt;Node2</title>
<g id="a_edge1_Node000001_Node000002"><a xlink:title=" ">
<path fill="none" stroke="#63b8ff" d="M2431.33,-233.2C2149.45,-224.13 1016.91,-187.69 730.96,-178.49"/>
<polygon fill="#63b8ff" stroke="#63b8ff" points="731.18,-175 721.07,-178.17 730.96,-181.99 731.18,-175"/>
</a>
</g>
</g>
<!-- Node6 -->
<g id="Node000006" class="node">
<title>Node6</title>
<g id="a_Node000006"><a xlink:title=" ">
<polygon fill="#e0e0e0" stroke="#999999" points="1312,-129.75 1232.25,-129.75 1232.25,-110.5 1312,-110.5 1312,-129.75"/>
<text text-anchor="middle" x="1272.12" y="-116.25" font-family="Helvetica,sans-Serif" font-size="10.00">QMessageBox</text>
</a>
</g>
</g>
<!-- Node1&#45;&gt;Node6 -->
<g id="edge55_Node000001_Node000006" class="edge">
<title>Node1&#45;&gt;Node6</title>
<g id="a_edge55_Node000001_Node000006"><a xlink:title=" ">
<path fill="none" stroke="#63b8ff" d="M2431.45,-235.12C2181.97,-234.28 1282.71,-228.28 1241.12,-185 1228.25,-171.6 1241.28,-151.84 1254.18,-137.85"/>
<polygon fill="#63b8ff" stroke="#63b8ff" points="1256.34,-140.64 1260.89,-131.07 1251.37,-135.71 1256.34,-140.64"/>
</a>
</g>
</g>
<!-- Node115 -->
<g id="Node000115" class="node">
<title>Node115</title>
<g id="a_Node000115"><a xlink:title=" ">
<polygon fill="#e0e0e0" stroke="#999999" points="1091.75,-19.25 1010.5,-19.25 1010.5,0 1091.75,0 1091.75,-19.25"/>
<text text-anchor="middle" x="1051.12" y="-5.75" font-family="Helvetica,sans-Serif" font-size="10.00">QItemDelegate</text>
</a>
</g>
</g>
<!-- Node1&#45;&gt;Node115 -->
<g id="edge65_Node000001_Node000115" class="edge">
<title>Node1&#45;&gt;Node115</title>
<g id="a_edge65_Node000001_Node000115"><a xlink:title=" ">
<path fill="none" stroke="#63b8ff" d="M2431.44,-233.95C2210.82,-229.2 1490.48,-211.71 1449.12,-185 1417.9,-164.83 1439.91,-134.01 1411.12,-110.5 1320.58,-36.55 1179.07,-17.22 1103.25,-12.26"/>
<polygon fill="#63b8ff" stroke="#63b8ff" points="1103.81,-8.79 1093.62,-11.69 1103.4,-15.77 1103.81,-8.79"/>
</a>
</g>
</g>
<!-- Node123 -->
<g id="Node000123" class="node">
<title>Node123</title>
<g id="a_Node000123"><a xlink:href="treenode_8hpp.html" target="_top" xlink:title=" ">
<polygon fill="#fff0f0" stroke="red" points="90.25,-74.5 0,-74.5 0,-55.25 90.25,-55.25 90.25,-74.5"/>
<text text-anchor="middle" x="45.12" y="-61" font-family="Helvetica,sans-Serif" font-size="10.00">dbe/treenode.hpp</text>
</a>
</g>
</g>
<!-- Node1&#45;&gt;Node123 -->
<g id="edge48_Node000001_Node000123" class="edge">
<title>Node1&#45;&gt;Node123</title>
<g id="a_edge48_Node000001_Node000123"><a xlink:title=" ">
<path fill="none" stroke="#63b8ff" d="M2431.32,-235.14C2191.22,-234.4 1319.14,-228.67 602.12,-185 344.1,-169.28 197.02,-321.02 23.12,-129.75 11.57,-117.04 20.44,-97.97 30.14,-83.97"/>
<polygon fill="#63b8ff" stroke="#63b8ff" points="32.9,-86.13 36.16,-76.05 27.32,-81.89 32.9,-86.13"/>
</a>
</g>
</g>
<!-- Node138 -->
<g id="Node000138" class="node">
<title>Node138</title>
<g id="a_Node000138"><a xlink:href="subtreeproxy_8hpp.html" target="_top" xlink:title=" ">
<polygon fill="#fff0f0" stroke="red" points="1175.88,-129.75 1068.38,-129.75 1068.38,-110.5 1175.88,-110.5 1175.88,-129.75"/>
<text text-anchor="middle" x="1122.12" y="-116.25" font-family="Helvetica,sans-Serif" font-size="10.00">dbe/subtreeproxy.hpp</text>
</a>
</g>
</g>
<!-- Node1&#45;&gt;Node138 -->
<g id="edge47_Node000001_Node000138" class="edge">
<title>Node1&#45;&gt;Node138</title>
<g id="a_edge47_Node000001_Node000138"><a xlink:title=" ">
<path fill="none" stroke="#63b8ff" d="M2431.55,-235.46C2159.57,-236.04 1105.47,-235.06 1057.12,-185 1040.2,-167.47 1067.16,-147.92 1091.33,-135.12"/>
<polygon fill="#63b8ff" stroke="#63b8ff" points="1092.66,-138.37 1100.03,-130.75 1089.52,-132.11 1092.66,-138.37"/>
</a>
</g>
</g>
<!-- Node139 -->
<g id="Node000139" class="node">
<title>Node139</title>
<g id="a_Node000139"><a xlink:href="ObjectEditor_8hpp.html" target="_top" xlink:title=" ">
<polygon fill="#fff0f0" stroke="red" points="2420.12,-129.75 2314.12,-129.75 2314.12,-110.5 2420.12,-110.5 2420.12,-129.75"/>
<text text-anchor="middle" x="2367.12" y="-116.25" font-family="Helvetica,sans-Serif" font-size="10.00">dbe/ObjectEditor.hpp</text>
</a>
</g>
</g>
<!-- Node1&#45;&gt;Node139 -->
<g id="edge27_Node000001_Node000139" class="edge">
<title>Node1&#45;&gt;Node139</title>
<g id="a_edge27_Node000001_Node000139"><a xlink:title=" ">
<path fill="none" stroke="#63b8ff" d="M2476.69,-220.64C2464.43,-210.79 2448.09,-197.38 2434.12,-185 2416.57,-169.43 2397.24,-150.84 2383.88,-137.74"/>
<polygon fill="#63b8ff" stroke="#63b8ff" points="2386.69,-135.6 2377.11,-131.08 2381.78,-140.59 2386.69,-135.6"/>
</a>
</g>
</g>
<!-- Node140 -->
<g id="Node000140" class="node">
<title>Node140</title>
<g id="a_Node000140"><a xlink:href="BuildingBlockEditors_8hpp.html" target="_top" xlink:title=" ">
<polygon fill="#fff0f0" stroke="red" points="2506.12,-74.5 2364.12,-74.5 2364.12,-55.25 2506.12,-55.25 2506.12,-74.5"/>
<text text-anchor="middle" x="2435.12" y="-61" font-family="Helvetica,sans-Serif" font-size="10.00">dbe/BuildingBlockEditors.hpp</text>
</a>
</g>
</g>
<!-- Node1&#45;&gt;Node140 -->
<g id="edge35_Node000001_Node000140" class="edge">
<title>Node1&#45;&gt;Node140</title>
<g id="a_edge35_Node000001_Node000140"><a xlink:title=" ">
<path fill="none" stroke="#63b8ff" d="M2485.8,-220.77C2479.81,-210.98 2472.23,-197.59 2467.12,-185 2453.48,-151.36 2443.87,-110.03 2438.94,-85.95"/>
<polygon fill="#63b8ff" stroke="#63b8ff" points="2442.4,-85.4 2437.03,-76.27 2435.53,-86.76 2442.4,-85.4"/>
</a>
</g>
</g>
<!-- Node156 -->
<g id="Node000156" class="node">
<title>Node156</title>
<g id="a_Node000156"><a xlink:href="ObjectCreator_8hpp.html" target="_top" xlink:title=" ">
<polygon fill="#fff0f0" stroke="red" points="2382.5,-185 2269.75,-185 2269.75,-165.75 2382.5,-165.75 2382.5,-185"/>
<text text-anchor="middle" x="2326.12" y="-171.5" font-family="Helvetica,sans-Serif" font-size="10.00">dbe/ObjectCreator.hpp</text>
</a>
</g>
</g>
<!-- Node1&#45;&gt;Node156 -->
<g id="edge30_Node000001_Node000156" class="edge">
<title>Node1&#45;&gt;Node156</title>
<g id="a_edge30_Node000001_Node000156"><a xlink:title=" ">
<path fill="none" stroke="#63b8ff" d="M2452.92,-220.55C2425.2,-210.89 2389.3,-198.38 2362.78,-189.15"/>
<polygon fill="#63b8ff" stroke="#63b8ff" points="2364.07,-185.89 2353.47,-185.9 2361.76,-192.5 2364.07,-185.89"/>
</a>
</g>
</g>
<!-- Node157 -->
<g id="Node000157" class="node">
<title>Node157</title>
<g id="a_Node000157"><a xlink:href="GraphView_8hpp.html" target="_top" xlink:title=" ">
<polygon fill="#fff0f0" stroke="red" points="1558.5,-185 1457.75,-185 1457.75,-165.75 1558.5,-165.75 1558.5,-185"/>
<text text-anchor="middle" x="1508.12" y="-171.5" font-family="Helvetica,sans-Serif" font-size="10.00">dbe/GraphView.hpp</text>
</a>
</g>
</g>
<!-- Node1&#45;&gt;Node157 -->
<g id="edge33_Node000001_Node000157" class="edge">
<title>Node1&#45;&gt;Node157</title>
<g id="a_edge33_Node000001_Node000157"><a xlink:title=" ">
<path fill="none" stroke="#63b8ff" d="M2431.4,-233.8C2282.46,-229.97 1899.75,-217.66 1570.15,-185.22"/>
<polygon fill="#63b8ff" stroke="#63b8ff" points="1570.74,-181.76 1560.44,-184.25 1570.05,-188.72 1570.74,-181.76"/>
</a>
</g>
</g>
<!-- Node159 -->
<g id="Node000159" class="node">
<title>Node159</title>
<g id="a_Node000159"><a xlink:href="BatchChangeWidget_8hpp.html" target="_top" xlink:title=" ">
<polygon fill="#fff0f0" stroke="red" points="1717.75,-185 1576.5,-185 1576.5,-165.75 1717.75,-165.75 1717.75,-185"/>
<text text-anchor="middle" x="1647.12" y="-171.5" font-family="Helvetica,sans-Serif" font-size="10.00">dbe/BatchChangeWidget.hpp</text>
</a>
</g>
</g>
<!-- Node1&#45;&gt;Node159 -->
<g id="edge34_Node000001_Node000159" class="edge">
<title>Node1&#45;&gt;Node159</title>
<g id="a_edge34_Node000001_Node000159"><a xlink:title=" ">
<path fill="none" stroke="#63b8ff" d="M2431.25,-232.02C2301.22,-225.23 1996.16,-208.27 1729.63,-185.27"/>
<polygon fill="#63b8ff" stroke="#63b8ff" points="1729.94,-181.79 1719.68,-184.41 1729.34,-188.76 1729.94,-181.79"/>
</a>
</g>
</g>
<!-- Node160 -->
<g id="Node000160" class="node">
<title>Node160</title>
<g id="a_Node000160"><a xlink:href="CommitDialog_8hpp.html" target="_top" xlink:title=" ">
<polygon fill="#fff0f0" stroke="red" points="1848.88,-185 1735.38,-185 1735.38,-165.75 1848.88,-165.75 1848.88,-185"/>
<text text-anchor="middle" x="1792.12" y="-171.5" font-family="Helvetica,sans-Serif" font-size="10.00">dbe/CommitDialog.hpp</text>
</a>
</g>
</g>
<!-- Node1&#45;&gt;Node160 -->
<g id="edge36_Node000001_Node000160" class="edge">
<title>Node1&#45;&gt;Node160</title>
<g id="a_edge36_Node000001_Node000160"><a xlink:title=" ">
<path fill="none" stroke="#63b8ff" d="M2431.18,-231.35C2318.12,-224.2 2075.27,-207.73 1860.36,-185.3"/>
<polygon fill="#63b8ff" stroke="#63b8ff" points="1860.99,-181.84 1850.68,-184.28 1860.26,-188.8 1860.99,-181.84"/>
</a>
</g>
</g>
<!-- Node162 -->
<g id="Node000162" class="node">
<title>Node162</title>
<g id="a_Node000162"><a xlink:href="StyleUtility_8hpp.html" target="_top" xlink:title=" ">
<polygon fill="#fff0f0" stroke="red" points="1965.75,-185 1866.5,-185 1866.5,-165.75 1965.75,-165.75 1965.75,-185"/>
<text text-anchor="middle" x="1916.12" y="-171.5" font-family="Helvetica,sans-Serif" font-size="10.00">dbe/StyleUtility.hpp</text>
</a>
</g>
</g>
<!-- Node1&#45;&gt;Node162 -->
<g id="edge37_Node000001_Node000162" class="edge">
<title>Node1&#45;&gt;Node162</title>
<g id="a_edge37_Node000001_Node000162"><a xlink:title=" ">
<path fill="none" stroke="#63b8ff" d="M2431.38,-230.1C2335.33,-222.12 2147.51,-205.64 1977.19,-185.19"/>
<polygon fill="#63b8ff" stroke="#63b8ff" points="1977.85,-181.75 1967.5,-184.02 1977.01,-188.7 1977.85,-181.75"/>
</a>
</g>
</g>
<!-- Node165 -->
<g id="Node000165" class="node">
<title>Node165</title>
<g id="a_Node000165"><a xlink:href="CreateDatabaseWidget_8hpp.html" target="_top" xlink:title=" ">
<polygon fill="#fff0f0" stroke="red" points="2136.38,-185 1983.88,-185 1983.88,-165.75 2136.38,-165.75 2136.38,-185"/>
<text text-anchor="middle" x="2060.12" y="-171.5" font-family="Helvetica,sans-Serif" font-size="10.00">dbe/CreateDatabaseWidget.hpp</text>
</a>
</g>
</g>
<!-- Node1&#45;&gt;Node165 -->
<g id="edge38_Node000001_Node000165" class="edge">
<title>Node1&#45;&gt;Node165</title>
<g id="a_edge38_Node000001_Node000165"><a xlink:title=" ">
<path fill="none" stroke="#63b8ff" d="M2431.41,-226.63C2353.68,-216.11 2222.31,-198.33 2138.48,-186.98"/>
<polygon fill="#63b8ff" stroke="#63b8ff" points="2139.11,-183.53 2128.73,-185.66 2138.17,-190.47 2139.11,-183.53"/>
</a>
</g>
</g>
<!-- Node168 -->
<g id="Node000168" class="node">
<title>Node168</title>
<g id="a_Node000168"><a xlink:href="Command_8hpp.html" target="_top" xlink:title=" ">
<polygon fill="#fff0f0" stroke="red" points="2251.62,-185 2154.62,-185 2154.62,-165.75 2251.62,-165.75 2251.62,-185"/>
<text text-anchor="middle" x="2203.12" y="-171.5" font-family="Helvetica,sans-Serif" font-size="10.00">dbe/Command.hpp</text>
</a>
</g>
</g>
<!-- Node1&#45;&gt;Node168 -->
<g id="edge39_Node000001_Node000168" class="edge">
<title>Node1&#45;&gt;Node168</title>
<g id="a_edge39_Node000001_Node000168"><a xlink:title=" ">
<path fill="none" stroke="#63b8ff" d="M2431.41,-222.4C2380.03,-212.04 2308.47,-197.62 2259.24,-187.69"/>
<polygon fill="#63b8ff" stroke="#63b8ff" points="2260.14,-184.3 2249.64,-185.75 2258.76,-191.16 2260.14,-184.3"/>
</a>
</g>
</g>
<!-- Node172 -->
<g id="Node000172" class="node">
<title>Node172</title>
<g id="a_Node000172"><a xlink:href="messenger_8hpp.html" target="_top" xlink:title=" ">
<polygon fill="#fff0f0" stroke="red" points="2828.5,-129.75 2727.75,-129.75 2727.75,-110.5 2828.5,-110.5 2828.5,-129.75"/>
<text text-anchor="middle" x="2778.12" y="-116.25" font-family="Helvetica,sans-Serif" font-size="10.00">dbe/messenger.hpp</text>
</a>
</g>
</g>
<!-- Node1&#45;&gt;Node172 -->
<g id="edge40_Node000001_Node000172" class="edge">
<title>Node1&#45;&gt;Node172</title>
<g id="a_edge40_Node000001_Node000172"><a xlink:title=" ">
<path fill="none" stroke="#63b8ff" d="M2558.88,-231.57C2606.39,-226.44 2671.37,-214.18 2721.12,-185 2740.11,-173.87 2756.2,-154.24 2766.39,-139.68"/>
<polygon fill="#63b8ff" stroke="#63b8ff" points="2769.26,-141.68 2771.89,-131.42 2763.44,-137.8 2769.26,-141.68"/>
</a>
</g>
</g>
<!-- Node179 -->
<g id="Node000179" class="node">
<title>Node179</title>
<g id="a_Node000179"><a xlink:href="messenger__proxy_8hpp.html" target="_top" xlink:title=" ">
<polygon fill="#fff0f0" stroke="red" points="1194.38,-185 1065.88,-185 1065.88,-165.75 1194.38,-165.75 1194.38,-185"/>
<text text-anchor="middle" x="1130.12" y="-171.5" font-family="Helvetica,sans-Serif" font-size="10.00">dbe/messenger_proxy.hpp</text>
</a>
</g>
</g>
<!-- Node1&#45;&gt;Node179 -->
<g id="edge41_Node000001_Node000179" class="edge">
<title>Node1&#45;&gt;Node179</title>
<g id="a_edge41_Node000001_Node000179"><a xlink:title=" ">
<path fill="none" stroke="#63b8ff" d="M2431.43,-234.37C2243.8,-231.41 1676.95,-220.03 1208.12,-185 1207.45,-184.95 1206.76,-184.9 1206.08,-184.84"/>
<polygon fill="#63b8ff" stroke="#63b8ff" points="1206.56,-181.37 1196.3,-184.01 1205.96,-188.35 1206.56,-181.37"/>
</a>
</g>
</g>
<!-- Node180 -->
<g id="Node000180" class="node">
<title>Node180</title>
<g id="a_Node000180"><a xlink:href="config__api_8hpp.html" target="_top" xlink:title=" ">
<polygon fill="#fff0f0" stroke="red" points="2864.25,-185 2768,-185 2768,-165.75 2864.25,-165.75 2864.25,-185"/>
<text text-anchor="middle" x="2816.12" y="-171.5" font-family="Helvetica,sans-Serif" font-size="10.00">dbe/config_api.hpp</text>
</a>
</g>
</g>
<!-- Node1&#45;&gt;Node180 -->
<g id="edge44_Node000001_Node000180" class="edge">
<title>Node1&#45;&gt;Node180</title>
<g id="a_edge44_Node000001_Node000180"><a xlink:title=" ">
<path fill="none" stroke="#63b8ff" d="M2558.93,-223.55C2616.4,-213.01 2700.25,-197.63 2756.42,-187.32"/>
<polygon fill="#63b8ff" stroke="#63b8ff" points="2756.93,-190.79 2766.13,-185.54 2755.67,-183.91 2756.93,-190.79"/>
</a>
</g>
</g>
<!-- Node188 -->
<g id="Node000188" class="node">
<title>Node188</title>
<g id="a_Node000188"><a xlink:href="config__api__version_8hpp.html" target="_top" xlink:title=" ">
<polygon fill="white" stroke="#666666" points="2609.62,-185 2476.62,-185 2476.62,-165.75 2609.62,-165.75 2609.62,-185"/>
<text text-anchor="middle" x="2543.12" y="-171.5" font-family="Helvetica,sans-Serif" font-size="10.00">dbe/config_api_version.hpp</text>
</a>
</g>
</g>
<!-- Node1&#45;&gt;Node188 -->
<g id="edge46_Node000001_Node000188" class="edge">
<title>Node1&#45;&gt;Node188</title>
<g id="a_edge46_Node000001_Node000188"><a xlink:title=" ">
<path fill="none" stroke="#63b8ff" d="M2506.99,-220.7C2513.53,-212.68 2521.69,-202.67 2528.6,-194.19"/>
<polygon fill="#63b8ff" stroke="#63b8ff" points="2531.16,-196.59 2534.77,-186.62 2525.74,-192.16 2531.16,-196.59"/>
</a>
</g>
</g>
<!-- Node189 -->
<g id="Node000189" class="node">
<title>Node189</title>
<g id="a_Node000189"><a xlink:href="version_8hpp.html" target="_top" xlink:title=" ">
<polygon fill="white" stroke="#666666" points="2712.25,-185 2628,-185 2628,-165.75 2712.25,-165.75 2712.25,-185"/>
<text text-anchor="middle" x="2670.12" y="-171.5" font-family="Helvetica,sans-Serif" font-size="10.00">dbe/version.hpp</text>
</a>
</g>
</g>
<!-- Node1&#45;&gt;Node189 -->
<g id="edge49_Node000001_Node000189" class="edge">
<title>Node1&#45;&gt;Node189</title>
<g id="a_edge49_Node000001_Node000189"><a xlink:title=" ">
<path fill="none" stroke="#63b8ff" d="M2538.83,-220.55C2567.57,-210.88 2604.81,-198.35 2632.28,-189.11"/>
<polygon fill="#63b8ff" stroke="#63b8ff" points="2633.23,-192.48 2641.59,-185.97 2631,-185.84 2633.23,-192.48"/>
</a>
</g>
</g>
<!-- Node190 -->
<g id="Node000190" class="node">
<title>Node190</title>
<g id="a_Node000190"><a xlink:href="MyApplication_8hpp.html" target="_top" xlink:title=" ">
<polygon fill="white" stroke="#666666" points="1363.88,-185 1250.38,-185 1250.38,-165.75 1363.88,-165.75 1363.88,-185"/>
<text text-anchor="middle" x="1307.12" y="-171.5" font-family="Helvetica,sans-Serif" font-size="10.00">dbe/MyApplication.hpp</text>
</a>
</g>
</g>
<!-- Node1&#45;&gt;Node190 -->
<g id="edge50_Node000001_Node000190" class="edge">
<title>Node1&#45;&gt;Node190</title>
<g id="a_edge50_Node000001_Node000190"><a xlink:title=" ">
<path fill="none" stroke="#63b8ff" d="M2431.42,-234.08C2260.58,-230.57 1778.09,-218.24 1378.12,-185 1377.12,-184.92 1376.11,-184.83 1375.1,-184.74"/>
<polygon fill="#63b8ff" stroke="#63b8ff" points="1375.85,-181.3 1365.56,-183.82 1375.18,-188.26 1375.85,-181.3"/>
</a>
</g>
</g>
<!-- Node191 -->
<g id="Node000191" class="node">
<title>Node191</title>
<g id="a_Node000191"><a xlink:title=" ">
<polygon fill="#e0e0e0" stroke="#999999" points="1401.88,-129.75 1330.38,-129.75 1330.38,-110.5 1401.88,-110.5 1401.88,-129.75"/>
<text text-anchor="middle" x="1366.12" y="-116.25" font-family="Helvetica,sans-Serif" font-size="10.00">QApplication</text>
</a>
</g>
</g>
<!-- Node1&#45;&gt;Node191 -->
<g id="edge64_Node000001_Node000191" class="edge">
<title>Node1&#45;&gt;Node191</title>
<g id="a_edge64_Node000001_Node000191"><a xlink:title=" ">
<path fill="none" stroke="#63b8ff" d="M2431.3,-235.36C2213.22,-235.3 1506.16,-231.48 1416.12,-185 1397.4,-175.33 1383.48,-155.13 1375.14,-140.02"/>
<polygon fill="#63b8ff" stroke="#63b8ff" points="1378.44,-138.79 1370.77,-131.49 1372.22,-141.99 1378.44,-138.79"/>
</a>
</g>
</g>
<!-- Node102 -->
<g id="Node000102" class="node">
<title>Node102</title>
<g id="a_Node000102"><a xlink:href="Logging_8hpp.html" target="_top" xlink:title=" ">
<polygon fill="#fff0f0" stroke="red" points="2984.25,-185 2882,-185 2882,-165.75 2984.25,-165.75 2984.25,-185"/>
<text text-anchor="middle" x="2933.12" y="-171.5" font-family="Helvetica,sans-Serif" font-size="10.00">logging/Logging.hpp</text>
</a>
</g>
</g>
<!-- Node1&#45;&gt;Node102 -->
<g id="edge53_Node000001_Node000102" class="edge">
<title>Node1&#45;&gt;Node102</title>
<g id="a_edge53_Node000001_Node000102"><a xlink:title=" ">
<path fill="none" stroke="#63b8ff" d="M2559.03,-226.97C2631.86,-217.48 2754.81,-201.31 2870.56,-185.34"/>
<polygon fill="#63b8ff" stroke="#63b8ff" points="2870.82,-188.84 2880.24,-184 2869.86,-181.91 2870.82,-188.84"/>
</a>
</g>
</g>
<!-- Node192 -->
<g id="Node000192" class="node">
<title>Node192</title>
<g id="a_Node000192"><a xlink:title=" ">
<polygon fill="#e0e0e0" stroke="#999999" points="3068.25,-185 3002,-185 3002,-165.75 3068.25,-165.75 3068.25,-185"/>
<text text-anchor="middle" x="3035.12" y="-171.5" font-family="Helvetica,sans-Serif" font-size="10.00">QFileDialog</text>
</a>
</g>
</g>
<!-- Node1&#45;&gt;Node192 -->
<g id="edge54_Node000001_Node000192" class="edge">
<title>Node1&#45;&gt;Node192</title>
<g id="a_edge54_Node000001_Node000192"><a xlink:title=" ">
<path fill="none" stroke="#63b8ff" d="M2559.06,-230.89C2651.96,-224.1 2829.85,-209.36 2990.65,-185.24"/>
<polygon fill="#63b8ff" stroke="#63b8ff" points="2990.85,-188.75 3000.21,-183.78 2989.8,-181.82 2990.85,-188.75"/>
</a>
</g>
</g>
<!-- Node193 -->
<g id="Node000193" class="node">
<title>Node193</title>
<g id="a_Node000193"><a xlink:title=" ">
<polygon fill="#e0e0e0" stroke="#999999" points="3175.88,-185 3086.38,-185 3086.38,-165.75 3175.88,-165.75 3175.88,-185"/>
<text text-anchor="middle" x="3131.12" y="-171.5" font-family="Helvetica,sans-Serif" font-size="10.00">QProgressDialog</text>
</a>
</g>
</g>
<!-- Node1&#45;&gt;Node193 -->
<g id="edge56_Node000001_Node000193" class="edge">
<title>Node1&#45;&gt;Node193</title>
<g id="a_edge56_Node000001_Node000193"><a xlink:title=" ">
<path fill="none" stroke="#63b8ff" d="M2559.01,-231.25C2664.26,-224.33 2880.94,-208.68 3074.81,-185.2"/>
<polygon fill="#63b8ff" stroke="#63b8ff" points="3075.07,-188.69 3084.58,-184 3074.23,-181.74 3075.07,-188.69"/>
</a>
</g>
</g>
<!-- Node194 -->
<g id="Node000194" class="node">
<title>Node194</title>
<g id="a_Node000194"><a xlink:title=" ">
<polygon fill="#e0e0e0" stroke="#999999" points="3238.75,-185 3193.5,-185 3193.5,-165.75 3238.75,-165.75 3238.75,-185"/>
<text text-anchor="middle" x="3216.12" y="-171.5" font-family="Helvetica,sans-Serif" font-size="10.00">QTime</text>
</a>
</g>
</g>
<!-- Node1&#45;&gt;Node194 -->
<g id="edge57_Node000001_Node000194" class="edge">
<title>Node1&#45;&gt;Node194</title>
<g id="a_edge57_Node000001_Node000194"><a xlink:title=" ">
<path fill="none" stroke="#63b8ff" d="M2558.9,-234.82C2679.34,-233.1 2948.45,-224.89 3182.12,-185.21"/>
<polygon fill="#63b8ff" stroke="#63b8ff" points="3182.47,-188.7 3191.73,-183.55 3181.28,-181.8 3182.47,-188.7"/>
</a>
</g>
</g>
<!-- Node195 -->
<g id="Node000195" class="node">
<title>Node195</title>
<g id="a_Node000195"><a xlink:title=" ">
<polygon fill="#e0e0e0" stroke="#999999" points="3329.25,-185 3257,-185 3257,-165.75 3329.25,-165.75 3329.25,-185"/>
<text text-anchor="middle" x="3293.12" y="-171.5" font-family="Helvetica,sans-Serif" font-size="10.00">QUndoStack</text>
</a>
</g>
</g>
<!-- Node1&#45;&gt;Node195 -->
<g id="edge58_Node000001_Node000195" class="edge">
<title>Node1&#45;&gt;Node195</title>
<g id="a_edge58_Node000001_Node000195"><a xlink:title=" ">
<path fill="none" stroke="#63b8ff" d="M2558.85,-233.64C2687.06,-229.82 2985.47,-218.04 3245.65,-185.16"/>
<polygon fill="#63b8ff" stroke="#63b8ff" points="3245.86,-188.66 3255.34,-183.92 3244.97,-181.71 3245.86,-188.66"/>
</a>
</g>
</g>
<!-- Node196 -->
<g id="Node000196" class="node">
<title>Node196</title>
<g id="a_Node000196"><a xlink:title=" ">
<polygon fill="#e0e0e0" stroke="#999999" points="3406.88,-185 3347.38,-185 3347.38,-165.75 3406.88,-165.75 3406.88,-185"/>
<text text-anchor="middle" x="3377.12" y="-171.5" font-family="Helvetica,sans-Serif" font-size="10.00">QSettings</text>
</a>
</g>
</g>
<!-- Node1&#45;&gt;Node196 -->
<g id="edge59_Node000001_Node000196" class="edge">
<title>Node1&#45;&gt;Node196</title>
<g id="a_edge59_Node000001_Node000196"><a xlink:title=" ">
<path fill="none" stroke="#63b8ff" d="M2558.91,-234.88C2698.26,-233.33 3040.33,-225.51 3335.61,-185.11"/>
<polygon fill="#63b8ff" stroke="#63b8ff" points="3336.05,-188.58 3345.48,-183.74 3335.09,-181.65 3336.05,-188.58"/>
</a>
</g>
</g>
<!-- Node197 -->
<g id="Node000197" class="node">
<title>Node197</title>
<g id="a_Node000197"><a xlink:title=" ">
<polygon fill="#e0e0e0" stroke="#999999" points="3497.62,-185 3424.62,-185 3424.62,-165.75 3497.62,-165.75 3497.62,-185"/>
<text text-anchor="middle" x="3461.12" y="-171.5" font-family="Helvetica,sans-Serif" font-size="10.00">QCloseEvent</text>
</a>
</g>
</g>
<!-- Node1&#45;&gt;Node197 -->
<g id="edge60_Node000001_Node000197" class="edge">
<title>Node1&#45;&gt;Node197</title>
<g id="a_edge60_Node000001_Node000197"><a xlink:title=" ">
<path fill="none" stroke="#63b8ff" d="M2559.03,-234.72C2707.48,-232.86 3087.2,-224.44 3413.26,-185.19"/>
<polygon fill="#63b8ff" stroke="#63b8ff" points="3413.35,-188.71 3422.85,-184.02 3412.5,-181.76 3413.35,-188.71"/>
</a>
</g>
</g>
<!-- Node198 -->
<g id="Node000198" class="node">
<title>Node198</title>
<g id="a_Node000198"><a xlink:title=" ">
<polygon fill="#e0e0e0" stroke="#999999" points="3586.12,-185 3516.12,-185 3516.12,-165.75 3586.12,-165.75 3586.12,-185"/>
<text text-anchor="middle" x="3551.12" y="-171.5" font-family="Helvetica,sans-Serif" font-size="10.00">QWhatsThis</text>
</a>
</g>
</g>
<!-- Node1&#45;&gt;Node198 -->
<g id="edge61_Node000001_Node000198" class="edge">
<title>Node1&#45;&gt;Node198</title>
<g id="a_edge61_Node000001_Node000198"><a xlink:title=" ">
<path fill="none" stroke="#63b8ff" d="M2559.04,-235.26C2717.61,-234.61 3141.88,-228.68 3504.41,-185.15"/>
<polygon fill="#63b8ff" stroke="#63b8ff" points="3504.65,-188.64 3514.15,-183.97 3503.8,-181.7 3504.65,-188.64"/>
</a>
</g>
</g>
<!-- Node199 -->
<g id="Node000199" class="node">
<title>Node199</title>
<g id="a_Node000199"><a xlink:title=" ">
<polygon fill="#e0e0e0" stroke="#999999" points="3702,-185 3604.25,-185 3604.25,-165.75 3702,-165.75 3702,-185"/>
<text text-anchor="middle" x="3653.12" y="-171.5" font-family="Helvetica,sans-Serif" font-size="10.00">QDesktopServices</text>
</a>
</g>
</g>
<!-- Node1&#45;&gt;Node199 -->
<g id="edge62_Node000001_Node000199" class="edge">
<title>Node1&#45;&gt;Node199</title>
<g id="a_edge62_Node000001_Node000199"><a xlink:title=" ">
<path fill="none" stroke="#63b8ff" d="M2558.84,-234.61C2726.44,-232.44 3193.66,-223.24 3592.62,-185.14"/>
<polygon fill="#63b8ff" stroke="#63b8ff" points="3592.68,-188.65 3602.3,-184.2 3592.01,-181.68 3592.68,-188.65"/>
</a>
</g>
</g>
<!-- Node200 -->
<g id="Node000200" class="node">
<title>Node200</title>
<g id="a_Node000200"><a xlink:title=" ">
<polygon fill="#e0e0e0" stroke="#999999" points="3756.25,-185 3720,-185 3720,-165.75 3756.25,-165.75 3756.25,-185"/>
<text text-anchor="middle" x="3738.12" y="-171.5" font-family="Helvetica,sans-Serif" font-size="10.00">QUrl</text>
</a>
</g>
</g>
<!-- Node1&#45;&gt;Node200 -->
<g id="edge63_Node000001_Node000200" class="edge">
<title>Node1&#45;&gt;Node200</title>
<g id="a_edge63_Node000001_Node000200"><a xlink:title=" ">
<path fill="none" stroke="#63b8ff" d="M2558.83,-234.86C2772.65,-233.22 3464.47,-225.03 3708.42,-184.91"/>
<polygon fill="#63b8ff" stroke="#63b8ff" points="3708.94,-188.38 3718.21,-183.24 3707.76,-181.48 3708.94,-188.38"/>
</a>
</g>
</g>
<!-- Node201 -->
<g id="Node000201" class="node">
<title>Node201</title>
<g id="a_Node000201"><a xlink:title=" ">
<polygon fill="#e0e0e0" stroke="#999999" points="3815.5,-185 3774.75,-185 3774.75,-165.75 3815.5,-165.75 3815.5,-185"/>
<text text-anchor="middle" x="3795.12" y="-171.5" font-family="Helvetica,sans-Serif" font-size="10.00">future</text>
</a>
</g>
</g>
<!-- Node1&#45;&gt;Node201 -->
<g id="edge66_Node000001_Node000201" class="edge">
<title>Node1&#45;&gt;Node201</title>
<g id="a_edge66_Node000001_Node000201"><a xlink:title=" ">
<path fill="none" stroke="#63b8ff" d="M2558.88,-234.75C2779.04,-232.72 3507.27,-223.32 3763.19,-184.8"/>
<polygon fill="#63b8ff" stroke="#63b8ff" points="3763.46,-188.3 3772.79,-183.29 3762.37,-181.38 3763.46,-188.3"/>
</a>
</g>
</g>
<!-- Node67 -->
<g id="Node000067" class="node">
<title>Node67</title>
<g id="a_Node000067"><a xlink:title=" ">
<polygon fill="#e0e0e0" stroke="#999999" points="3876.62,-185 3833.62,-185 3833.62,-165.75 3876.62,-165.75 3876.62,-185"/>
<text text-anchor="middle" x="3855.12" y="-171.5" font-family="Helvetica,sans-Serif" font-size="10.00">thread</text>
</a>
</g>
</g>
<!-- Node1&#45;&gt;Node67 -->
<g id="edge67_Node000001_Node000067" class="edge">
<title>Node1&#45;&gt;Node67</title>
<g id="a_edge67_Node000001_Node000067"><a xlink:title=" ">
<path fill="none" stroke="#63b8ff" d="M2559.03,-234.81C2786.02,-232.94 3553.71,-223.94 3822,-184.85"/>
<polygon fill="#63b8ff" stroke="#63b8ff" points="3822.39,-188.33 3831.75,-183.37 3821.34,-181.41 3822.39,-188.33"/>
</a>
</g>
</g>
<!-- Node126 -->
<g id="Node000126" class="node">
<title>Node126</title>
<g id="a_Node000126"><a xlink:title=" ">
<polygon fill="#e0e0e0" stroke="#999999" points="4001.88,-185 3894.38,-185 3894.38,-165.75 4001.88,-165.75 4001.88,-185"/>
<text text-anchor="middle" x="3948.12" y="-171.5" font-family="Helvetica,sans-Serif" font-size="10.00">boost/scope_exit.hpp</text>
</a>
</g>
</g>
<!-- Node1&#45;&gt;Node126 -->
<g id="edge68_Node000001_Node000126" class="edge">
<title>Node1&#45;&gt;Node126</title>
<g id="a_edge68_Node000001_Node000126"><a xlink:title=" ">
<path fill="none" stroke="#63b8ff" d="M2559.05,-235.26C2755.31,-234.8 3366.73,-229.68 3882.66,-185.22"/>
<polygon fill="#63b8ff" stroke="#63b8ff" points="3882.89,-188.71 3892.55,-184.36 3882.29,-181.74 3882.89,-188.71"/>
</a>
</g>
</g>
<!-- Node3 -->
<g id="Node000003" class="node">
<title>Node3</title>
<g id="a_Node000003"><a xlink:title=" ">
<polygon fill="#e0e0e0" stroke="#999999" points="711.25,-129.75 669,-129.75 669,-110.5 711.25,-110.5 711.25,-129.75"/>
<text text-anchor="middle" x="690.12" y="-116.25" font-family="Helvetica,sans-Serif" font-size="10.00">QMap</text>
</a>
</g>
</g>
<!-- Node2&#45;&gt;Node3 -->
<g id="edge2_Node000002_Node000003" class="edge">
<title>Node2&#45;&gt;Node3</title>
<g id="a_edge2_Node000002_Node000003"><a xlink:title=" ">
<path fill="none" stroke="#63b8ff" d="M669.25,-165.58C672.45,-158.76 677.01,-149.06 681.05,-140.45"/>
<polygon fill="#63b8ff" stroke="#63b8ff" points="684.18,-142.02 685.26,-131.48 677.85,-139.04 684.18,-142.02"/>
</a>
</g>
</g>
<!-- Node4 -->
<g id="Node000004" class="node">
<title>Node4</title>
<g id="a_Node000004"><a xlink:title=" ">
<polygon fill="#e0e0e0" stroke="#999999" points="767.38,-129.75 728.88,-129.75 728.88,-110.5 767.38,-110.5 767.38,-129.75"/>
<text text-anchor="middle" x="748.12" y="-116.25" font-family="Helvetica,sans-Serif" font-size="10.00">QSet</text>
</a>
</g>
</g>
<!-- Node2&#45;&gt;Node4 -->
<g id="edge3_Node000002_Node000004" class="edge">
<title>Node2&#45;&gt;Node4</title>
<g id="a_edge3_Node000002_Node000004"><a xlink:title=" ">
<path fill="none" stroke="#63b8ff" d="M679.2,-165.34C691.61,-157.39 709.92,-145.64 724.55,-136.25"/>
<polygon fill="#63b8ff" stroke="#63b8ff" points="726.18,-139.37 732.7,-131.02 722.4,-133.47 726.18,-139.37"/>
</a>
</g>
</g>
<!-- Node5 -->
<g id="Node000005" class="node">
<title>Node5</title>
<g id="a_Node000005"><a xlink:title=" ">
<polygon fill="#e0e0e0" stroke="#999999" points="819.62,-74.5 770.62,-74.5 770.62,-55.25 819.62,-55.25 819.62,-74.5"/>
<text text-anchor="middle" x="795.12" y="-61" font-family="Helvetica,sans-Serif" font-size="10.00">QString</text>
</a>
</g>
</g>
<!-- Node2&#45;&gt;Node5 -->
<g id="edge4_Node000002_Node000005" class="edge">
<title>Node2&#45;&gt;Node5</title>
<g id="a_edge4_Node000002_Node000005"><a xlink:title=" ">
<path fill="none" stroke="#63b8ff" d="M712.45,-165.33C734.54,-158.86 759.55,-147.94 776.12,-129.75 786.98,-117.83 791.65,-99.96 793.65,-86.15"/>
<polygon fill="#63b8ff" stroke="#63b8ff" points="797.11,-86.72 794.68,-76.4 790.15,-85.98 797.11,-86.72"/>
</a>
</g>
</g>
<!-- Node2&#45;&gt;Node6 -->
<g id="edge5_Node000002_Node000006" class="edge">
<title>Node2&#45;&gt;Node6</title>
<g id="a_edge5_Node000002_Node000006"><a xlink:title=" ">
<path fill="none" stroke="#63b8ff" d="M719.42,-169.95C814.04,-162.19 1015.28,-145.46 1185.12,-129.75 1196.57,-128.69 1208.86,-127.5 1220.5,-126.36"/>
<polygon fill="#63b8ff" stroke="#63b8ff" points="1220.74,-129.85 1230.35,-125.38 1220.05,-122.88 1220.74,-129.85"/>
</a>
</g>
</g>
<!-- Node7 -->
<g id="Node000007" class="node">
<title>Node7</title>
<g id="a_Node000007"><a xlink:title=" ">
<polygon fill="#e0e0e0" stroke="#999999" points="902.62,-129.75 823.62,-129.75 823.62,-110.5 902.62,-110.5 902.62,-129.75"/>
<text text-anchor="middle" x="863.12" y="-116.25" font-family="Helvetica,sans-Serif" font-size="10.00">QMainWindow</text>
</a>
</g>
</g>
<!-- Node2&#45;&gt;Node7 -->
<g id="edge6_Node000002_Node000007" class="edge">
<title>Node2&#45;&gt;Node7</title>
<g id="a_edge6_Node000002_Node000007"><a xlink:title=" ">
<path fill="none" stroke="#63b8ff" d="M698.71,-165.34C731.71,-156.47 782.25,-142.87 818.59,-133.1"/>
<polygon fill="#63b8ff" stroke="#63b8ff" points="819.16,-136.57 827.91,-130.6 817.34,-129.81 819.16,-136.57"/>
</a>
</g>
</g>
<!-- Node8 -->
<g id="Node000008" class="node">
<title>Node8</title>
<g id="a_Node000008"><a xlink:title=" ">
<polygon fill="#e0e0e0" stroke="#999999" points="539.12,-74.5 469.12,-74.5 469.12,-55.25 539.12,-55.25 539.12,-74.5"/>
<text text-anchor="middle" x="504.12" y="-61" font-family="Helvetica,sans-Serif" font-size="10.00">QTabWidget</text>
</a>
</g>
</g>
<!-- Node2&#45;&gt;Node8 -->
<g id="edge7_Node000002_Node000008" class="edge">
<title>Node2&#45;&gt;Node8</title>
<g id="a_edge7_Node000002_Node000008"><a xlink:title=" ">
<path fill="none" stroke="#63b8ff" d="M610.53,-172.17C546.62,-168.3 446.49,-157.82 423.12,-129.75 405.95,-109.12 436.64,-90.76 465.04,-79.07"/>
<polygon fill="#63b8ff" stroke="#63b8ff" points="466.24,-82.36 474.3,-75.48 463.71,-75.84 466.24,-82.36"/>
</a>
</g>
</g>
<!-- Node9 -->
<g id="Node000009" class="node">
<title>Node9</title>
<g id="a_Node000009"><a xlink:title=" ">
<polygon fill="#e0e0e0" stroke="#999999" points="1011.62,-129.75 920.62,-129.75 920.62,-110.5 1011.62,-110.5 1011.62,-129.75"/>
<text text-anchor="middle" x="966.12" y="-116.25" font-family="Helvetica,sans-Serif" font-size="10.00">QDragEnterEvent</text>
</a>
</g>
</g>
<!-- Node2&#45;&gt;Node9 -->
<g id="edge8_Node000002_Node000009" class="edge">
<title>Node2&#45;&gt;Node9</title>
<g id="a_edge8_Node000002_Node000009"><a xlink:title=" ">
<path fill="none" stroke="#63b8ff" d="M716.53,-165.28C770.09,-155.81 853.81,-140.99 909.31,-131.18"/>
<polygon fill="#63b8ff" stroke="#63b8ff" points="909.63,-134.67 918.87,-129.49 908.41,-127.78 909.63,-134.67"/>
</a>
</g>
</g>
<!-- Node10 -->
<g id="Node000010" class="node">
<title>Node10</title>
<g id="a_Node000010"><a xlink:title=" ">
<polygon fill="#e0e0e0" stroke="#999999" points="226.38,-129.75 157.88,-129.75 157.88,-110.5 226.38,-110.5 226.38,-129.75"/>
<text text-anchor="middle" x="192.12" y="-116.25" font-family="Helvetica,sans-Serif" font-size="10.00">QDropEvent</text>
</a>
</g>
</g>
<!-- Node2&#45;&gt;Node10 -->
<g id="edge9_Node000002_Node000010" class="edge">
<title>Node2&#45;&gt;Node10</title>
<g id="a_edge9_Node000002_Node000010"><a xlink:title=" ">
<path fill="none" stroke="#63b8ff" d="M610.61,-170.38C530.93,-164.17 377.78,-150.87 238.12,-130.08"/>
<polygon fill="#63b8ff" stroke="#63b8ff" points="238.72,-126.63 228.31,-128.6 237.67,-133.55 238.72,-126.63"/>
</a>
</g>
</g>
<!-- Node11 -->
<g id="Node000011" class="node">
<title>Node11</title>
<g id="a_Node000011"><a xlink:title=" ">
<polygon fill="#e0e0e0" stroke="#999999" points="300,-129.75 244.25,-129.75 244.25,-110.5 300,-110.5 300,-129.75"/>
<text text-anchor="middle" x="272.12" y="-116.25" font-family="Helvetica,sans-Serif" font-size="10.00">ui_DBE.h</text>
</a>
</g>
</g>
<!-- Node2&#45;&gt;Node11 -->
<g id="edge10_Node000002_Node000011" class="edge">
<title>Node2&#45;&gt;Node11</title>
<g id="a_edge10_Node000002_Node000011"><a xlink:title=" ">
<path fill="none" stroke="#63b8ff" d="M610.52,-168.74C541.33,-161.29 418.51,-147.08 314.12,-129.75 313.13,-129.58 312.12,-129.41 311.1,-129.24"/>
<polygon fill="#63b8ff" stroke="#63b8ff" points="312.04,-125.85 301.57,-127.45 310.76,-132.73 312.04,-125.85"/>
</a>
</g>
</g>
<!-- Node12 -->
<g id="Node000012" class="node">
<title>Node12</title>
<g id="a_Node000012"><a xlink:href="FileModel_8hpp.html" target="_top" xlink:title=" ">
<polygon fill="#fff0f0" stroke="red" points="2333.5,-74.5 2238.75,-74.5 2238.75,-55.25 2333.5,-55.25 2333.5,-74.5"/>
<text text-anchor="middle" x="2286.12" y="-61" font-family="Helvetica,sans-Serif" font-size="10.00">dbe/FileModel.hpp</text>
</a>
</g>
</g>
<!-- Node2&#45;&gt;Node12 -->
<g id="edge11_Node000002_Node000012" class="edge">
<title>Node2&#45;&gt;Node12</title>
<g id="a_edge11_Node000002_Node000012"><a xlink:title=" ">
<path fill="none" stroke="#63b8ff" d="M719.5,-173.13C790.17,-170.26 916.76,-160.8 1020.12,-129.75 1038.64,-124.19 1040.38,-115.23 1059.12,-110.5 1172.82,-81.78 1997.63,-69.46 2227.05,-66.57"/>
<polygon fill="#63b8ff" stroke="#63b8ff" points="2227,-70.07 2236.96,-66.45 2226.92,-63.07 2227,-70.07"/>
</a>
</g>
</g>
<!-- Node15 -->
<g id="Node000015" class="node">
<title>Node15</title>
<g id="a_Node000015"><a xlink:href="CustomDelegate_8hpp.html" target="_top" xlink:title=" ">
<polygon fill="#fff0f0" stroke="red" points="719.5,-74.5 594.75,-74.5 594.75,-55.25 719.5,-55.25 719.5,-74.5"/>
<text text-anchor="middle" x="657.12" y="-61" font-family="Helvetica,sans-Serif" font-size="10.00">dbe/CustomDelegate.hpp</text>
</a>
</g>
</g>
<!-- Node2&#45;&gt;Node15 -->
<g id="edge12_Node000002_Node000015" class="edge">
<title>Node2&#45;&gt;Node15</title>
<g id="a_edge12_Node000002_Node000015"><a xlink:title=" ">
<path fill="none" stroke="#63b8ff" d="M663.96,-165.5C662.82,-156.51 661.11,-142.18 660.12,-129.75 658.98,-115.29 658.22,-98.96 657.75,-86.43"/>
<polygon fill="#63b8ff" stroke="#63b8ff" points="661.25,-86.37 657.42,-76.5 654.26,-86.61 661.25,-86.37"/>
</a>
</g>
</g>
<!-- Node117 -->
<g id="Node000117" class="node">
<title>Node117</title>
<g id="a_Node000117"><a xlink:href="TableTab_8hpp.html" target="_top" xlink:title=" ">
<polygon fill="#fff0f0" stroke="red" points="525.75,-129.75 432.5,-129.75 432.5,-110.5 525.75,-110.5 525.75,-129.75"/>
<text text-anchor="middle" x="479.12" y="-116.25" font-family="Helvetica,sans-Serif" font-size="10.00">dbe/TableTab.hpp</text>
</a>
</g>
</g>
<!-- Node2&#45;&gt;Node117 -->
<g id="edge14_Node000002_Node000117" class="edge">
<title>Node2&#45;&gt;Node117</title>
<g id="a_edge14_Node000002_Node000117"><a xlink:title=" ">
<path fill="none" stroke="#63b8ff" d="M633.57,-165.34C602.84,-156.54 555.91,-143.11 521.85,-133.36"/>
<polygon fill="#63b8ff" stroke="#63b8ff" points="522.86,-130.01 512.29,-130.62 520.94,-136.74 522.86,-130.01"/>
</a>
</g>
</g>
<!-- Node118 -->
<g id="Node000118" class="node">
<title>Node118</title>
<g id="a_Node000118"><a xlink:href="table_8hpp.html" target="_top" xlink:title=" ">
<polygon fill="#fff0f0" stroke="red" points="432,-19.25 358.25,-19.25 358.25,0 432,0 432,-19.25"/>
<text text-anchor="middle" x="395.12" y="-5.75" font-family="Helvetica,sans-Serif" font-size="10.00">dbe/table.hpp</text>
</a>
</g>
</g>
<!-- Node2&#45;&gt;Node118 -->
<g id="edge22_Node000002_Node000118" class="edge">
<title>Node2&#45;&gt;Node118</title>
<g id="a_edge22_Node000002_Node000118"><a xlink:title=" ">
<path fill="none" stroke="#63b8ff" d="M610.59,-173.21C555.14,-170.22 467.83,-160.49 399.12,-129.75 357.93,-111.32 309.1,-95.18 330.12,-55.25 337,-42.19 349.61,-32.22 361.91,-25.05"/>
<polygon fill="#63b8ff" stroke="#63b8ff" points="363.5,-28.16 370.7,-20.38 360.22,-21.98 363.5,-28.16"/>
</a>
</g>
</g>
<!-- Node127 -->
<g id="Node000127" class="node">
<title>Node127</title>
<g id="a_Node000127"><a xlink:href="tableselection_8hpp.html" target="_top" xlink:title=" ">
<polygon fill="#fff0f0" stroke="red" points="451.5,-74.5 338.75,-74.5 338.75,-55.25 451.5,-55.25 451.5,-74.5"/>
<text text-anchor="middle" x="395.12" y="-61" font-family="Helvetica,sans-Serif" font-size="10.00">dbe/tableselection.hpp</text>
</a>
</g>
</g>
<!-- Node2&#45;&gt;Node127 -->
<g id="edge23_Node000002_Node000127" class="edge">
<title>Node2&#45;&gt;Node127</title>
<g id="a_edge23_Node000002_Node000127"><a xlink:title=" ">
<path fill="none" stroke="#63b8ff" d="M610.67,-171.17C546.05,-166.27 443.5,-154.74 415.12,-129.75 402.71,-118.82 397.92,-100.3 396.11,-86.01"/>
<polygon fill="#63b8ff" stroke="#63b8ff" points="399.62,-86.02 395.3,-76.35 392.65,-86.6 399.62,-86.02"/>
</a>
</g>
</g>
<!-- Node134 -->
<g id="Node000134" class="node">
<title>Node134</title>
<g id="a_Node000134"><a xlink:href="tree_8hpp.html" target="_top" xlink:title=" ">
<polygon fill="#fff0f0" stroke="red" points="612.75,-129.75 543.5,-129.75 543.5,-110.5 612.75,-110.5 612.75,-129.75"/>
<text text-anchor="middle" x="578.12" y="-116.25" font-family="Helvetica,sans-Serif" font-size="10.00">dbe/tree.hpp</text>
</a>
</g>
</g>
<!-- Node2&#45;&gt;Node134 -->
<g id="edge21_Node000002_Node000134" class="edge">
<title>Node2&#45;&gt;Node134</title>
<g id="a_edge21_Node000002_Node000134"><a xlink:title=" ">
<path fill="none" stroke="#63b8ff" d="M650.37,-165.34C637.24,-157.31 617.8,-145.41 602.39,-135.98"/>
<polygon fill="#63b8ff" stroke="#63b8ff" points="604.6,-133.23 594.25,-130.99 600.95,-139.2 604.6,-133.23"/>
</a>
</g>
</g>
<!-- Node137 -->
<g id="Node000137" class="node">
<title>Node137</title>
<g id="a_Node000137"><a xlink:href="treeselection_8hpp.html" target="_top" xlink:title=" ">
<polygon fill="#fff0f0" stroke="red" points="140.25,-129.75 32,-129.75 32,-110.5 140.25,-110.5 140.25,-129.75"/>
<text text-anchor="middle" x="86.12" y="-116.25" font-family="Helvetica,sans-Serif" font-size="10.00">dbe/treeselection.hpp</text>
</a>
</g>
</g>
<!-- Node2&#45;&gt;Node137 -->
<g id="edge24_Node000002_Node000137" class="edge">
<title>Node2&#45;&gt;Node137</title>
<g id="a_edge24_Node000002_Node000137"><a xlink:title=" ">
<path fill="none" stroke="#63b8ff" d="M610.81,-170.57C518.68,-163.93 325.65,-149.16 152.14,-130.04"/>
<polygon fill="#63b8ff" stroke="#63b8ff" points="152.57,-126.56 142.24,-128.94 151.8,-133.52 152.57,-126.56"/>
</a>
</g>
</g>
<!-- Node2&#45;&gt;Node138 -->
<g id="edge26_Node000002_Node000138" class="edge">
<title>Node2&#45;&gt;Node138</title>
<g id="a_edge26_Node000002_Node000138"><a xlink:title=" ">
<path fill="none" stroke="#63b8ff" d="M719.59,-168.33C794.84,-159.94 934.84,-144.16 1054.12,-129.75 1054.97,-129.65 1055.81,-129.55 1056.67,-129.44"/>
<polygon fill="#63b8ff" stroke="#63b8ff" points="1056.94,-132.93 1066.44,-128.24 1056.09,-125.99 1056.94,-132.93"/>
</a>
</g>
</g>
<!-- Node15&#45;&gt;Node115 -->
<g id="edge13_Node000015_Node000115" class="edge">
<title>Node15&#45;&gt;Node115</title>
<g id="a_edge13_Node000015_Node000115"><a xlink:title=" ">
<path fill="none" stroke="#63b8ff" d="M719.99,-55.38C797.33,-44.93 927.18,-27.38 999.15,-17.65"/>
<polygon fill="#63b8ff" stroke="#63b8ff" points="999.25,-21.17 1008.69,-16.36 998.31,-14.23 999.25,-21.17"/>
</a>
</g>
</g>
<!-- Node117&#45;&gt;Node5 -->
<g id="edge18_Node000117_Node000005" class="edge">
<title>Node117&#45;&gt;Node5</title>
<g id="a_edge18_Node000117_Node000005"><a xlink:title=" ">
<path fill="none" stroke="#63b8ff" d="M526.09,-111.21C589.79,-100.48 702.16,-81.54 759.42,-71.89"/>
<polygon fill="#63b8ff" stroke="#63b8ff" points="759.67,-75.4 768.95,-70.29 758.5,-68.5 759.67,-75.4"/>
</a>
</g>
</g>
<!-- Node117&#45;&gt;Node8 -->
<g id="edge19_Node000117_Node000008" class="edge">
<title>Node117&#45;&gt;Node8</title>
<g id="a_edge19_Node000117_Node000008"><a xlink:title=" ">
<path fill="none" stroke="#63b8ff" d="M483.25,-110.33C486.45,-103.51 491.01,-93.81 495.05,-85.2"/>
<polygon fill="#63b8ff" stroke="#63b8ff" points="498.18,-86.77 499.26,-76.23 491.85,-83.79 498.18,-86.77"/>
</a>
</g>
</g>
<!-- Node117&#45;&gt;Node15 -->
<g id="edge20_Node000117_Node000015" class="edge">
<title>Node117&#45;&gt;Node15</title>
<g id="a_edge20_Node000117_Node000015"><a xlink:title=" ">
<path fill="none" stroke="#63b8ff" d="M509.32,-110.09C538.6,-101.33 583.25,-87.98 615.81,-78.23"/>
<polygon fill="#63b8ff" stroke="#63b8ff" points="616.75,-81.61 625.33,-75.39 614.75,-74.9 616.75,-81.61"/>
</a>
</g>
</g>
<!-- Node117&#45;&gt;Node118 -->
<g id="edge15_Node000117_Node000118" class="edge">
<title>Node117&#45;&gt;Node118</title>
<g id="a_edge15_Node000117_Node000118"><a xlink:title=" ">
<path fill="none" stroke="#63b8ff" d="M502.43,-110.06C528.46,-98.58 564.87,-77.58 548.12,-55.25 535.44,-38.34 483.41,-25.72 443.5,-18.29"/>
<polygon fill="#63b8ff" stroke="#63b8ff" points="444.3,-14.88 433.84,-16.56 443.07,-21.77 444.3,-14.88"/>
</a>
</g>
</g>
<!-- Node117&#45;&gt;Node127 -->
<g id="edge16_Node000117_Node000127" class="edge">
<title>Node117&#45;&gt;Node127</title>
<g id="a_edge16_Node000117_Node000127"><a xlink:title=" ">
<path fill="none" stroke="#63b8ff" d="M464.88,-110.09C452.33,-102.14 433.79,-90.39 418.98,-81"/>
<polygon fill="#63b8ff" stroke="#63b8ff" points="421.04,-78.16 410.72,-75.76 417.29,-84.07 421.04,-78.16"/>
</a>
</g>
</g>
<!-- Node127&#45;&gt;Node118 -->
<g id="edge17_Node000127_Node000118" class="edge">
<title>Node127&#45;&gt;Node118</title>
<g id="a_edge17_Node000127_Node000118"><a xlink:title=" ">
<path fill="none" stroke="#63b8ff" d="M395.12,-55.08C395.12,-48.57 395.12,-39.42 395.12,-31.12"/>
<polygon fill="#63b8ff" stroke="#63b8ff" points="398.63,-31.12 395.13,-21.12 391.63,-31.12 398.63,-31.12"/>
</a>
</g>
</g>
<!-- Node137&#45;&gt;Node123 -->
<g id="edge25_Node000137_Node000123" class="edge">
<title>Node137&#45;&gt;Node123</title>
<g id="a_edge25_Node000137_Node000123"><a xlink:title=" ">
<path fill="none" stroke="#63b8ff" d="M79.35,-110.33C73.81,-103.13 65.78,-92.71 58.9,-83.76"/>
<polygon fill="#63b8ff" stroke="#63b8ff" points="61.84,-81.85 52.97,-76.06 56.29,-86.12 61.84,-81.85"/>
</a>
</g>
</g>
<!-- Node139&#45;&gt;Node12 -->
<g id="edge29_Node000139_Node000012" class="edge">
<title>Node139&#45;&gt;Node12</title>
<g id="a_edge29_Node000139_Node000012"><a xlink:title=" ">
<path fill="none" stroke="#63b8ff" d="M2353.38,-110.09C2341.4,-102.21 2323.75,-90.61 2309.54,-81.27"/>
<polygon fill="#63b8ff" stroke="#63b8ff" points="2311.48,-78.35 2301.2,-75.78 2307.63,-84.2 2311.48,-78.35"/>
</a>
</g>
</g>
<!-- Node139&#45;&gt;Node140 -->
<g id="edge28_Node000139_Node000140" class="edge">
<title>Node139&#45;&gt;Node140</title>
<g id="a_edge28_Node000139_Node000140"><a xlink:title=" ">
<path fill="none" stroke="#63b8ff" d="M2378.66,-110.09C2388.59,-102.32 2403.14,-90.92 2414.98,-81.65"/>
<polygon fill="#63b8ff" stroke="#63b8ff" points="2416.85,-84.63 2422.57,-75.71 2412.54,-79.12 2416.85,-84.63"/>
</a>
</g>
</g>
<!-- Node156&#45;&gt;Node12 -->
<g id="edge31_Node000156_Node000012" class="edge">
<title>Node156&#45;&gt;Node12</title>
<g id="a_edge31_Node000156_Node000012"><a xlink:title=" ">
<path fill="none" stroke="#63b8ff" d="M2321.37,-165.32C2316.82,-156.43 2309.95,-142.39 2305.12,-129.75 2299.56,-115.17 2294.59,-98.22 2291.12,-85.45"/>
<polygon fill="#63b8ff" stroke="#63b8ff" points="2294.61,-84.94 2288.68,-76.16 2287.84,-86.72 2294.61,-84.94"/>
</a>
</g>
</g>
<!-- Node156&#45;&gt;Node139 -->
<g id="edge32_Node000156_Node000139" class="edge">
<title>Node156&#45;&gt;Node139</title>
<g id="a_edge32_Node000156_Node000139"><a xlink:title=" ">
<path fill="none" stroke="#63b8ff" d="M2332.9,-165.58C2338.44,-158.38 2346.47,-147.96 2353.35,-139.01"/>
<polygon fill="#63b8ff" stroke="#63b8ff" points="2355.96,-141.37 2359.28,-131.31 2350.41,-137.1 2355.96,-141.37"/>
</a>
</g>
</g>
<!-- Node179&#45;&gt;Node5 -->
<g id="edge42_Node000179_Node000005" class="edge">
<title>Node179&#45;&gt;Node5</title>
<g id="a_edge42_Node000179_Node000005"><a xlink:title=" ">
<path fill="none" stroke="#63b8ff" d="M1147.53,-165.4C1169.47,-152.96 1202.37,-129.83 1185.12,-110.5 1161.76,-84.31 923.53,-71.38 831.31,-67.32"/>
<polygon fill="#63b8ff" stroke="#63b8ff" points="831.71,-63.84 821.57,-66.9 831.41,-70.83 831.71,-63.84"/>
</a>
</g>
</g>
<!-- Node179&#45;&gt;Node6 -->
<g id="edge43_Node000179_Node000006" class="edge">
<title>Node179&#45;&gt;Node6</title>
<g id="a_edge43_Node000179_Node000006"><a xlink:title=" ">
<path fill="none" stroke="#63b8ff" d="M1154.21,-165.34C1177.06,-156.77 1211.64,-143.81 1237.45,-134.13"/>
<polygon fill="#63b8ff" stroke="#63b8ff" points="1238.37,-137.52 1246.5,-130.73 1235.91,-130.97 1238.37,-137.52"/>
</a>
</g>
</g>
<!-- Node180&#45;&gt;Node172 -->
<g id="edge45_Node000180_Node000172" class="edge">
<title>Node180&#45;&gt;Node172</title>
<g id="a_edge45_Node000180_Node000172"><a xlink:title=" ">
<path fill="none" stroke="#63b8ff" d="M2809.85,-165.58C2804.77,-158.46 2797.43,-148.18 2791.09,-139.3"/>
<polygon fill="#63b8ff" stroke="#63b8ff" points="2794.07,-137.45 2785.42,-131.34 2788.38,-141.51 2794.07,-137.45"/>
</a>
</g>
</g>
<!-- Node190&#45;&gt;Node6 -->
<g id="edge52_Node000190_Node000006" class="edge">
<title>Node190&#45;&gt;Node6</title>
<g id="a_edge52_Node000190_Node000006"><a xlink:title=" ">
<path fill="none" stroke="#63b8ff" d="M1301.35,-165.58C1296.71,-158.53 1290.05,-148.4 1284.26,-139.58"/>
<polygon fill="#63b8ff" stroke="#63b8ff" points="1287.28,-137.81 1278.86,-131.37 1281.43,-141.65 1287.28,-137.81"/>
</a>
</g>
</g>
<!-- Node190&#45;&gt;Node191 -->
<g id="edge51_Node000190_Node000191" class="edge">
<title>Node190&#45;&gt;Node191</title>
<g id="a_edge51_Node000190_Node000191"><a xlink:title=" ">
<path fill="none" stroke="#63b8ff" d="M1317.13,-165.34C1325.49,-157.8 1337.62,-146.85 1347.73,-137.73"/>
<polygon fill="#63b8ff" stroke="#63b8ff" points="1350.06,-140.34 1355.14,-131.04 1345.37,-135.14 1350.06,-140.34"/>
</a>
</g>
</g>
</g>
</svg>
