<?xml version="1.0" encoding="UTF-8" standalone="no"?>
<!DOCTYPE svg PUBLIC "-//W3C//DTD SVG 1.1//EN"
 "http://www.w3.org/Graphics/SVG/1.1/DTD/svg11.dtd">
<!-- Generated by graphviz version 9.0.0 (20230911.1827)
 -->
<!-- Title: sourcecode/timing/include/timing/MasterNode.hpp Pages: 1 -->
<svg width="436pt" height="105pt"
 viewBox="0.00 0.00 435.88 105.00" xmlns="http://www.w3.org/2000/svg" xmlns:xlink="http://www.w3.org/1999/xlink">
<g id="graph0" class="graph" transform="scale(1 1) rotate(0) translate(4 101)">
<title>sourcecode/timing/include/timing/MasterNode.hpp</title>
<!-- Node1 -->
<g id="Node000001" class="node">
<title>Node1</title>
<g id="a_Node000001"><a xlink:title=" ">
<polygon fill="#999999" stroke="#666666" points="292.5,-97 163.25,-97 163.25,-66.5 292.5,-66.5 292.5,-97"/>
<text text-anchor="start" x="171.25" y="-83.5" font-family="Helvetica,sans-Serif" font-size="10.00">sourcecode/timing/include</text>
<text text-anchor="middle" x="227.88" y="-72.25" font-family="Helvetica,sans-Serif" font-size="10.00">/timing/MasterNode.hpp</text>
</a>
</g>
</g>
<!-- Node2 -->
<g id="Node000002" class="node">
<title>Node2</title>
<g id="a_Node000002"><a xlink:href="definitions_8cpp.html" target="_top" xlink:title=" ">
<polygon fill="white" stroke="#666666" points="139.75,-30.5 0,-30.5 0,0 139.75,0 139.75,-30.5"/>
<text text-anchor="start" x="8" y="-17" font-family="Helvetica,sans-Serif" font-size="10.00">sourcecode/timing/pybindsrc</text>
<text text-anchor="middle" x="69.88" y="-5.75" font-family="Helvetica,sans-Serif" font-size="10.00">/definitions.cpp</text>
</a>
</g>
</g>
<!-- Node1&#45;&gt;Node2 -->
<g id="edge1_Node000001_Node000002" class="edge">
<title>Node1&#45;&gt;Node2</title>
<g id="a_edge1_Node000001_Node000002"><a xlink:title=" ">
<path fill="none" stroke="#63b8ff" d="M181.66,-61.88C157.48,-52.01 128.33,-40.11 105.86,-30.94"/>
<polygon fill="#63b8ff" stroke="#63b8ff" points="180.04,-65 190.62,-65.54 182.69,-58.52 180.04,-65"/>
</a>
</g>
</g>
<!-- Node3 -->
<g id="Node000003" class="node">
<title>Node3</title>
<g id="a_Node000003"><a xlink:href="master_8cpp.html" target="_top" xlink:title=" ">
<polygon fill="white" stroke="#666666" points="297.75,-30.5 158,-30.5 158,0 297.75,0 297.75,-30.5"/>
<text text-anchor="start" x="166" y="-17" font-family="Helvetica,sans-Serif" font-size="10.00">sourcecode/timing/pybindsrc</text>
<text text-anchor="middle" x="227.88" y="-5.75" font-family="Helvetica,sans-Serif" font-size="10.00">/master.cpp</text>
</a>
</g>
</g>
<!-- Node1&#45;&gt;Node3 -->
<g id="edge2_Node000001_Node000003" class="edge">
<title>Node1&#45;&gt;Node3</title>
<g id="a_edge2_Node000001_Node000003"><a xlink:title=" ">
<path fill="none" stroke="#63b8ff" d="M227.88,-54.81C227.88,-46.64 227.88,-37.91 227.88,-30.83"/>
<polygon fill="#63b8ff" stroke="#63b8ff" points="224.38,-54.6 227.88,-64.6 231.38,-54.6 224.38,-54.6"/>
</a>
</g>
</g>
<!-- Node4 -->
<g id="Node000004" class="node">
<title>Node4</title>
<g id="a_Node000004"><a xlink:href="MasterNode_8cpp.html" target="_top" xlink:title=" ">
<polygon fill="white" stroke="#666666" points="427.88,-30.5 315.88,-30.5 315.88,0 427.88,0 427.88,-30.5"/>
<text text-anchor="start" x="323.88" y="-17" font-family="Helvetica,sans-Serif" font-size="10.00">sourcecode/timing/src</text>
<text text-anchor="middle" x="371.88" y="-5.75" font-family="Helvetica,sans-Serif" font-size="10.00">/MasterNode.cpp</text>
</a>
</g>
</g>
<!-- Node1&#45;&gt;Node4 -->
<g id="edge3_Node000001_Node000004" class="edge">
<title>Node1&#45;&gt;Node4</title>
<g id="a_edge3_Node000001_Node000004"><a xlink:title=" ">
<path fill="none" stroke="#63b8ff" d="M270.93,-61.47C292.86,-51.64 319.1,-39.89 339.33,-30.83"/>
<polygon fill="#63b8ff" stroke="#63b8ff" points="269.63,-58.21 261.93,-65.5 272.49,-64.6 269.63,-58.21"/>
</a>
</g>
</g>
</g>
</svg>
