<?xml version="1.0" encoding="UTF-8" standalone="no"?>
<!DOCTYPE svg PUBLIC "-//W3C//DTD SVG 1.1//EN"
 "http://www.w3.org/Graphics/SVG/1.1/DTD/svg11.dtd">
<!-- Generated by graphviz version 9.0.0 (20230911.1827)
 -->
<!-- Title: sourcecode/timing/include/timing/MasterDesign.hpp Pages: 1 -->
<svg width="1504pt" height="238pt"
 viewBox="0.00 0.00 1504.12 238.00" xmlns="http://www.w3.org/2000/svg" xmlns:xlink="http://www.w3.org/1999/xlink">
<g id="graph0" class="graph" transform="scale(1 1) rotate(0) translate(4 234)">
<title>sourcecode/timing/include/timing/MasterDesign.hpp</title>
<!-- Node1 -->
<g id="Node000001" class="node">
<title>Node1</title>
<g id="a_Node000001"><a xlink:title=" ">
<polygon fill="#999999" stroke="#666666" points="1208.75,-230 1079.5,-230 1079.5,-199.5 1208.75,-199.5 1208.75,-230"/>
<text text-anchor="start" x="1087.5" y="-216.5" font-family="Helvetica,sans-Serif" font-size="10.00">sourcecode/timing/include</text>
<text text-anchor="middle" x="1144.12" y="-205.25" font-family="Helvetica,sans-Serif" font-size="10.00">/timing/MasterDesign.hpp</text>
</a>
</g>
</g>
<!-- Node2 -->
<g id="Node000002" class="node">
<title>Node2</title>
<g id="a_Node000002"><a xlink:href="BoreasDesign_8hpp.html" target="_top" xlink:title=" ">
<polygon fill="white" stroke="#666666" points="1055.75,-163.5 926.5,-163.5 926.5,-133 1055.75,-133 1055.75,-163.5"/>
<text text-anchor="start" x="934.5" y="-150" font-family="Helvetica,sans-Serif" font-size="10.00">sourcecode/timing/include</text>
<text text-anchor="middle" x="991.12" y="-138.75" font-family="Helvetica,sans-Serif" font-size="10.00">/timing/BoreasDesign.hpp</text>
</a>
</g>
</g>
<!-- Node1&#45;&gt;Node2 -->
<g id="edge1_Node000001_Node000002" class="edge">
<title>Node1&#45;&gt;Node2</title>
<g id="a_edge1_Node000001_Node000002"><a xlink:title=" ">
<path fill="none" stroke="#63b8ff" d="M1099.05,-194.75C1075.71,-184.91 1047.63,-173.07 1025.97,-163.94"/>
<polygon fill="#63b8ff" stroke="#63b8ff" points="1097.44,-197.87 1108.01,-198.53 1100.16,-191.42 1097.44,-197.87"/>
</a>
</g>
</g>
<!-- Node5 -->
<g id="Node000005" class="node">
<title>Node5</title>
<g id="a_Node000005"><a xlink:href="MasterMuxDesign_8hpp.html" target="_top" xlink:title=" ">
<polygon fill="white" stroke="#666666" points="661.25,-163.5 517,-163.5 517,-133 661.25,-133 661.25,-163.5"/>
<text text-anchor="start" x="525" y="-150" font-family="Helvetica,sans-Serif" font-size="10.00">sourcecode/timing/include</text>
<text text-anchor="middle" x="589.12" y="-138.75" font-family="Helvetica,sans-Serif" font-size="10.00">/timing/MasterMuxDesign.hpp</text>
</a>
</g>
</g>
<!-- Node1&#45;&gt;Node5 -->
<g id="edge4_Node000001_Node000005" class="edge">
<title>Node1&#45;&gt;Node5</title>
<g id="a_edge4_Node000001_Node000005"><a xlink:title=" ">
<path fill="none" stroke="#63b8ff" d="M1067.73,-204.87C960.53,-192.41 766.82,-169.9 661.71,-157.69"/>
<polygon fill="#63b8ff" stroke="#63b8ff" points="1067.26,-208.34 1077.6,-206.02 1068.07,-201.39 1067.26,-208.34"/>
</a>
</g>
</g>
<!-- Node16 -->
<g id="Node000016" class="node">
<title>Node16</title>
<g id="a_Node000016"><a xlink:href="OuroborosDesign_8hpp.html" target="_top" xlink:title=" ">
<polygon fill="white" stroke="#666666" points="1214.75,-163.5 1073.5,-163.5 1073.5,-133 1214.75,-133 1214.75,-163.5"/>
<text text-anchor="start" x="1081.5" y="-150" font-family="Helvetica,sans-Serif" font-size="10.00">sourcecode/timing/include</text>
<text text-anchor="middle" x="1144.12" y="-138.75" font-family="Helvetica,sans-Serif" font-size="10.00">/timing/OuroborosDesign.hpp</text>
</a>
</g>
</g>
<!-- Node1&#45;&gt;Node16 -->
<g id="edge19_Node000001_Node000016" class="edge">
<title>Node1&#45;&gt;Node16</title>
<g id="a_edge19_Node000001_Node000016"><a xlink:title=" ">
<path fill="none" stroke="#63b8ff" d="M1144.12,-187.81C1144.12,-179.64 1144.12,-170.91 1144.12,-163.83"/>
<polygon fill="#63b8ff" stroke="#63b8ff" points="1140.63,-187.6 1144.13,-197.6 1147.63,-187.6 1140.63,-187.6"/>
</a>
</g>
</g>
<!-- Node18 -->
<g id="Node000018" class="node">
<title>Node18</title>
<g id="a_Node000018"><a xlink:href="OverlordDesign_8hpp.html" target="_top" xlink:title=" ">
<polygon fill="white" stroke="#666666" points="1365.62,-163.5 1232.62,-163.5 1232.62,-133 1365.62,-133 1365.62,-163.5"/>
<text text-anchor="start" x="1240.62" y="-150" font-family="Helvetica,sans-Serif" font-size="10.00">sourcecode/timing/include</text>
<text text-anchor="middle" x="1299.12" y="-138.75" font-family="Helvetica,sans-Serif" font-size="10.00">/timing/OverlordDesign.hpp</text>
</a>
</g>
</g>
<!-- Node1&#45;&gt;Node18 -->
<g id="edge22_Node000001_Node000018" class="edge">
<title>Node1&#45;&gt;Node18</title>
<g id="a_edge22_Node000001_Node000018"><a xlink:title=" ">
<path fill="none" stroke="#63b8ff" d="M1189.79,-194.75C1213.44,-184.91 1241.88,-173.07 1263.82,-163.94"/>
<polygon fill="#63b8ff" stroke="#63b8ff" points="1188.58,-191.46 1180.69,-198.53 1191.27,-197.92 1188.58,-191.46"/>
</a>
</g>
</g>
<!-- Node20 -->
<g id="Node000020" class="node">
<title>Node20</title>
<g id="a_Node000020"><a xlink:href="MasterDesign_8cpp.html" target="_top" xlink:title=" ">
<polygon fill="white" stroke="#666666" points="1496.12,-163.5 1384.12,-163.5 1384.12,-133 1496.12,-133 1496.12,-163.5"/>
<text text-anchor="start" x="1392.12" y="-150" font-family="Helvetica,sans-Serif" font-size="10.00">sourcecode/timing/src</text>
<text text-anchor="middle" x="1440.12" y="-138.75" font-family="Helvetica,sans-Serif" font-size="10.00">/MasterDesign.cpp</text>
</a>
</g>
</g>
<!-- Node1&#45;&gt;Node20 -->
<g id="edge25_Node000001_Node000020" class="edge">
<title>Node1&#45;&gt;Node20</title>
<g id="a_edge25_Node000001_Node000020"><a xlink:title=" ">
<path fill="none" stroke="#63b8ff" d="M1220.02,-197.27C1265.09,-187.48 1323.37,-174.8 1375.12,-163.5 1377.95,-162.88 1380.84,-162.25 1383.76,-161.61"/>
<polygon fill="#63b8ff" stroke="#63b8ff" points="1219.36,-193.83 1210.33,-199.38 1220.85,-200.67 1219.36,-193.83"/>
</a>
</g>
</g>
<!-- Node3 -->
<g id="Node000003" class="node">
<title>Node3</title>
<g id="a_Node000003"><a xlink:href="top__designs_8cpp.html" target="_top" xlink:title=" ">
<polygon fill="white" stroke="#666666" points="822,-30.5 682.25,-30.5 682.25,0 822,0 822,-30.5"/>
<text text-anchor="start" x="690.25" y="-17" font-family="Helvetica,sans-Serif" font-size="10.00">sourcecode/timing/pybindsrc</text>
<text text-anchor="middle" x="752.12" y="-5.75" font-family="Helvetica,sans-Serif" font-size="10.00">/top_designs.cpp</text>
</a>
</g>
</g>
<!-- Node2&#45;&gt;Node3 -->
<g id="edge2_Node000002_Node000003" class="edge">
<title>Node2&#45;&gt;Node3</title>
<g id="a_edge2_Node000002_Node000003"><a xlink:title=" ">
<path fill="none" stroke="#63b8ff" d="M914.82,-138.47C859.63,-130.57 791.34,-117.08 771.12,-97 753.55,-79.54 751.02,-49.09 751.24,-30.99"/>
<polygon fill="#63b8ff" stroke="#63b8ff" points="914.13,-141.91 924.52,-139.82 915.1,-134.97 914.13,-141.91"/>
</a>
</g>
</g>
<!-- Node4 -->
<g id="Node000004" class="node">
<title>Node4</title>
<g id="a_Node000004"><a xlink:href="BoreasDesign_8cpp.html" target="_top" xlink:title=" ">
<polygon fill="white" stroke="#666666" points="1070.12,-97 958.12,-97 958.12,-66.5 1070.12,-66.5 1070.12,-97"/>
<text text-anchor="start" x="966.12" y="-83.5" font-family="Helvetica,sans-Serif" font-size="10.00">sourcecode/timing/src</text>
<text text-anchor="middle" x="1014.12" y="-72.25" font-family="Helvetica,sans-Serif" font-size="10.00">/BoreasDesign.cpp</text>
</a>
</g>
</g>
<!-- Node2&#45;&gt;Node4 -->
<g id="edge3_Node000002_Node000004" class="edge">
<title>Node2&#45;&gt;Node4</title>
<g id="a_edge3_Node000002_Node000004"><a xlink:title=" ">
<path fill="none" stroke="#63b8ff" d="M1000.17,-121.88C1003.14,-113.55 1006.34,-104.58 1008.93,-97.33"/>
<polygon fill="#63b8ff" stroke="#63b8ff" points="996.91,-120.59 996.85,-131.19 1003.51,-122.94 996.91,-120.59"/>
</a>
</g>
</g>
<!-- Node6 -->
<g id="Node000006" class="node">
<title>Node6</title>
<g id="a_Node000006"><a xlink:href="FanoutDesign_8hpp.html" target="_top" xlink:title=" ">
<polygon fill="white" stroke="#666666" points="290.75,-97 161.5,-97 161.5,-66.5 290.75,-66.5 290.75,-97"/>
<text text-anchor="start" x="169.5" y="-83.5" font-family="Helvetica,sans-Serif" font-size="10.00">sourcecode/timing/include</text>
<text text-anchor="middle" x="226.12" y="-72.25" font-family="Helvetica,sans-Serif" font-size="10.00">/timing/FanoutDesign.hpp</text>
</a>
</g>
</g>
<!-- Node5&#45;&gt;Node6 -->
<g id="edge5_Node000005_Node000006" class="edge">
<title>Node5&#45;&gt;Node6</title>
<g id="a_edge5_Node000005_Node000006"><a xlink:title=" ">
<path fill="none" stroke="#63b8ff" d="M505.34,-133.22C447.38,-123.39 368.5,-109.78 299.12,-97 296.46,-96.51 293.74,-96 290.99,-95.49"/>
<polygon fill="#63b8ff" stroke="#63b8ff" points="504.71,-136.66 515.16,-134.88 505.88,-129.76 504.71,-136.66"/>
</a>
</g>
</g>
<!-- Node9 -->
<g id="Node000009" class="node">
<title>Node9</title>
<g id="a_Node000009"><a xlink:href="GaiaDesign_8hpp.html" target="_top" xlink:title=" ">
<polygon fill="white" stroke="#666666" points="723.75,-97 594.5,-97 594.5,-66.5 723.75,-66.5 723.75,-97"/>
<text text-anchor="start" x="602.5" y="-83.5" font-family="Helvetica,sans-Serif" font-size="10.00">sourcecode/timing/include</text>
<text text-anchor="middle" x="659.12" y="-72.25" font-family="Helvetica,sans-Serif" font-size="10.00">/timing/GaiaDesign.hpp</text>
</a>
</g>
</g>
<!-- Node5&#45;&gt;Node9 -->
<g id="edge9_Node000005_Node000009" class="edge">
<title>Node5&#45;&gt;Node9</title>
<g id="a_edge9_Node000005_Node000009"><a xlink:title=" ">
<path fill="none" stroke="#63b8ff" d="M613.31,-124.96C623.24,-115.82 634.45,-105.48 643.3,-97.33"/>
<polygon fill="#63b8ff" stroke="#63b8ff" points="611.1,-122.24 606.12,-131.59 615.85,-127.39 611.1,-122.24"/>
</a>
</g>
</g>
<!-- Node11 -->
<g id="Node000011" class="node">
<title>Node11</title>
<g id="a_Node000011"><a xlink:href="KerberosDesign_8hpp.html" target="_top" xlink:title=" ">
<polygon fill="white" stroke="#666666" points="443.75,-97 308.5,-97 308.5,-66.5 443.75,-66.5 443.75,-97"/>
<text text-anchor="start" x="316.5" y="-83.5" font-family="Helvetica,sans-Serif" font-size="10.00">sourcecode/timing/include</text>
<text text-anchor="middle" x="376.12" y="-72.25" font-family="Helvetica,sans-Serif" font-size="10.00">/timing/KerberosDesign.hpp</text>
</a>
</g>
</g>
<!-- Node5&#45;&gt;Node11 -->
<g id="edge12_Node000005_Node000011" class="edge">
<title>Node5&#45;&gt;Node11</title>
<g id="a_edge12_Node000005_Node000011"><a xlink:title=" ">
<path fill="none" stroke="#63b8ff" d="M529.6,-129.22C496.44,-119.18 455.69,-106.84 424.52,-97.4"/>
<polygon fill="#63b8ff" stroke="#63b8ff" points="528.49,-132.55 539.08,-132.09 530.52,-125.85 528.49,-132.55"/>
</a>
</g>
</g>
<!-- Node13 -->
<g id="Node000013" class="node">
<title>Node13</title>
<g id="a_Node000013"><a xlink:href="OuroborosMuxDesign_8hpp.html" target="_top" xlink:title=" ">
<polygon fill="white" stroke="#666666" points="939.75,-97 780.5,-97 780.5,-66.5 939.75,-66.5 939.75,-97"/>
<text text-anchor="start" x="788.5" y="-83.5" font-family="Helvetica,sans-Serif" font-size="10.00">sourcecode/timing/include</text>
<text text-anchor="middle" x="860.12" y="-72.25" font-family="Helvetica,sans-Serif" font-size="10.00">/timing/OuroborosMuxDesign.hpp</text>
</a>
</g>
</g>
<!-- Node5&#45;&gt;Node13 -->
<g id="edge15_Node000005_Node000013" class="edge">
<title>Node5&#45;&gt;Node13</title>
<g id="a_edge15_Node000005_Node000013"><a xlink:title=" ">
<path fill="none" stroke="#63b8ff" d="M662.12,-129.88C704.79,-119.72 758.03,-107.05 798.56,-97.4"/>
<polygon fill="#63b8ff" stroke="#63b8ff" points="661.35,-126.46 652.43,-132.18 662.97,-133.27 661.35,-126.46"/>
</a>
</g>
</g>
<!-- Node15 -->
<g id="Node000015" class="node">
<title>Node15</title>
<g id="a_Node000015"><a xlink:href="MasterMuxDesign_8cpp.html" target="_top" xlink:title=" ">
<polygon fill="white" stroke="#666666" points="576.62,-97 461.62,-97 461.62,-66.5 576.62,-66.5 576.62,-97"/>
<text text-anchor="start" x="469.62" y="-83.5" font-family="Helvetica,sans-Serif" font-size="10.00">sourcecode/timing/src</text>
<text text-anchor="middle" x="519.12" y="-72.25" font-family="Helvetica,sans-Serif" font-size="10.00">/MasterMuxDesign.cpp</text>
</a>
</g>
</g>
<!-- Node5&#45;&gt;Node15 -->
<g id="edge18_Node000005_Node000015" class="edge">
<title>Node5&#45;&gt;Node15</title>
<g id="a_edge18_Node000005_Node000015"><a xlink:title=" ">
<path fill="none" stroke="#63b8ff" d="M564.94,-124.96C555.01,-115.82 543.8,-105.48 534.95,-97.33"/>
<polygon fill="#63b8ff" stroke="#63b8ff" points="562.4,-127.39 572.13,-131.59 567.15,-122.24 562.4,-127.39"/>
</a>
</g>
</g>
<!-- Node6&#45;&gt;Node3 -->
<g id="edge6_Node000006_Node000003" class="edge">
<title>Node6&#45;&gt;Node3</title>
<g id="a_edge6_Node000006_Node000003"><a xlink:title=" ">
<path fill="none" stroke="#63b8ff" d="M301.95,-66.18C466.3,-42.93 511.26,-52.85 673.12,-30.5 676.02,-30.1 678.98,-29.67 681.96,-29.22"/>
<polygon fill="#63b8ff" stroke="#63b8ff" points="301.85,-62.66 292.45,-67.54 302.84,-69.59 301.85,-62.66"/>
</a>
</g>
</g>
<!-- Node7 -->
<g id="Node000007" class="node">
<title>Node7</title>
<g id="a_Node000007"><a xlink:href="FanoutDesign_8cpp.html" target="_top" xlink:title=" ">
<polygon fill="white" stroke="#666666" points="292.12,-30.5 180.12,-30.5 180.12,0 292.12,0 292.12,-30.5"/>
<text text-anchor="start" x="188.12" y="-17" font-family="Helvetica,sans-Serif" font-size="10.00">sourcecode/timing/src</text>
<text text-anchor="middle" x="236.12" y="-5.75" font-family="Helvetica,sans-Serif" font-size="10.00">/FanoutDesign.cpp</text>
</a>
</g>
</g>
<!-- Node6&#45;&gt;Node7 -->
<g id="edge7_Node000006_Node000007" class="edge">
<title>Node6&#45;&gt;Node7</title>
<g id="a_edge7_Node000006_Node000007"><a xlink:title=" ">
<path fill="none" stroke="#63b8ff" d="M230.15,-54.81C231.41,-46.64 232.77,-37.91 233.86,-30.83"/>
<polygon fill="#63b8ff" stroke="#63b8ff" points="226.7,-54.2 228.63,-64.62 233.62,-55.27 226.7,-54.2"/>
</a>
</g>
</g>
<!-- Node8 -->
<g id="Node000008" class="node">
<title>Node8</title>
<g id="a_Node000008"><a xlink:href="TimingHardwareManager_8cpp.html" target="_top" xlink:title=" ">
<polygon fill="white" stroke="#666666" points="162.25,-30.5 0,-30.5 0,0 162.25,0 162.25,-30.5"/>
<text text-anchor="start" x="8" y="-17" font-family="Helvetica,sans-Serif" font-size="10.00">sourcecode/timinglibs</text>
<text text-anchor="middle" x="81.12" y="-5.75" font-family="Helvetica,sans-Serif" font-size="10.00">/src/TimingHardwareManager.cpp</text>
</a>
</g>
</g>
<!-- Node6&#45;&gt;Node8 -->
<g id="edge8_Node000006_Node000008" class="edge">
<title>Node6&#45;&gt;Node8</title>
<g id="a_edge8_Node000006_Node000008"><a xlink:title=" ">
<path fill="none" stroke="#63b8ff" d="M182.81,-61.48C160.8,-51.69 134.49,-39.99 114.15,-30.94"/>
<polygon fill="#63b8ff" stroke="#63b8ff" points="181.28,-64.63 191.84,-65.5 184.13,-58.24 181.28,-64.63"/>
</a>
</g>
</g>
<!-- Node9&#45;&gt;Node3 -->
<g id="edge10_Node000009_Node000003" class="edge">
<title>Node9&#45;&gt;Node3</title>
<g id="a_edge10_Node000009_Node000003"><a xlink:title=" ">
<path fill="none" stroke="#63b8ff" d="M689.67,-59.57C703.24,-50.16 718.87,-39.31 731.11,-30.83"/>
<polygon fill="#63b8ff" stroke="#63b8ff" points="687.69,-56.68 681.47,-65.25 691.68,-62.43 687.69,-56.68"/>
</a>
</g>
</g>
<!-- Node10 -->
<g id="Node000010" class="node">
<title>Node10</title>
<g id="a_Node000010"><a xlink:href="GaiaDesign_8cpp.html" target="_top" xlink:title=" ">
<polygon fill="white" stroke="#666666" points="664.12,-30.5 552.12,-30.5 552.12,0 664.12,0 664.12,-30.5"/>
<text text-anchor="start" x="560.12" y="-17" font-family="Helvetica,sans-Serif" font-size="10.00">sourcecode/timing/src</text>
<text text-anchor="middle" x="608.12" y="-5.75" font-family="Helvetica,sans-Serif" font-size="10.00">/GaiaDesign.cpp</text>
</a>
</g>
</g>
<!-- Node9&#45;&gt;Node10 -->
<g id="edge11_Node000009_Node000010" class="edge">
<title>Node9&#45;&gt;Node10</title>
<g id="a_edge11_Node000009_Node000010"><a xlink:title=" ">
<path fill="none" stroke="#63b8ff" d="M640.62,-57.35C633.61,-48.48 625.84,-38.65 619.65,-30.83"/>
<polygon fill="#63b8ff" stroke="#63b8ff" points="637.67,-59.25 646.61,-64.93 643.16,-54.91 637.67,-59.25"/>
</a>
</g>
</g>
<!-- Node11&#45;&gt;Node3 -->
<g id="edge13_Node000011_Node000003" class="edge">
<title>Node11&#45;&gt;Node3</title>
<g id="a_edge13_Node000011_Node000003"><a xlink:title=" ">
<path fill="none" stroke="#63b8ff" d="M455.25,-65.98C552.04,-49.17 578.59,-46.73 673.12,-30.5 676.01,-30 678.95,-29.5 681.92,-28.98"/>
<polygon fill="#63b8ff" stroke="#63b8ff" points="454.8,-62.5 445.55,-67.67 456.01,-69.4 454.8,-62.5"/>
</a>
</g>
</g>
<!-- Node12 -->
<g id="Node000012" class="node">
<title>Node12</title>
<g id="a_Node000012"><a xlink:href="KerberosDesign_8cpp.html" target="_top" xlink:title=" ">
<polygon fill="white" stroke="#666666" points="432.12,-30.5 320.12,-30.5 320.12,0 432.12,0 432.12,-30.5"/>
<text text-anchor="start" x="328.12" y="-17" font-family="Helvetica,sans-Serif" font-size="10.00">sourcecode/timing/src</text>
<text text-anchor="middle" x="376.12" y="-5.75" font-family="Helvetica,sans-Serif" font-size="10.00">/KerberosDesign.cpp</text>
</a>
</g>
</g>
<!-- Node11&#45;&gt;Node12 -->
<g id="edge14_Node000011_Node000012" class="edge">
<title>Node11&#45;&gt;Node12</title>
<g id="a_edge14_Node000011_Node000012"><a xlink:title=" ">
<path fill="none" stroke="#63b8ff" d="M376.12,-54.81C376.12,-46.64 376.12,-37.91 376.12,-30.83"/>
<polygon fill="#63b8ff" stroke="#63b8ff" points="372.63,-54.6 376.13,-64.6 379.63,-54.6 372.63,-54.6"/>
</a>
</g>
</g>
<!-- Node13&#45;&gt;Node3 -->
<g id="edge16_Node000013_Node000003" class="edge">
<title>Node13&#45;&gt;Node3</title>
<g id="a_edge16_Node000013_Node000003"><a xlink:title=" ">
<path fill="none" stroke="#63b8ff" d="M826.03,-60.39C809.96,-50.79 791.15,-39.56 776.53,-30.83"/>
<polygon fill="#63b8ff" stroke="#63b8ff" points="823.94,-63.22 834.32,-65.34 827.53,-57.21 823.94,-63.22"/>
</a>
</g>
</g>
<!-- Node14 -->
<g id="Node000014" class="node">
<title>Node14</title>
<g id="a_Node000014"><a xlink:href="OuroborosMuxDesign_8cpp.html" target="_top" xlink:title=" ">
<polygon fill="white" stroke="#666666" points="970.12,-30.5 840.12,-30.5 840.12,0 970.12,0 970.12,-30.5"/>
<text text-anchor="start" x="848.12" y="-17" font-family="Helvetica,sans-Serif" font-size="10.00">sourcecode/timing/src</text>
<text text-anchor="middle" x="905.12" y="-5.75" font-family="Helvetica,sans-Serif" font-size="10.00">/OuroborosMuxDesign.cpp</text>
</a>
</g>
</g>
<!-- Node13&#45;&gt;Node14 -->
<g id="edge17_Node000013_Node000014" class="edge">
<title>Node13&#45;&gt;Node14</title>
<g id="a_edge17_Node000013_Node000014"><a xlink:title=" ">
<path fill="none" stroke="#63b8ff" d="M876.84,-56.79C882.92,-48.07 889.61,-38.49 894.95,-30.83"/>
<polygon fill="#63b8ff" stroke="#63b8ff" points="874.05,-54.67 871.2,-64.87 879.79,-58.67 874.05,-54.67"/>
</a>
</g>
</g>
<!-- Node16&#45;&gt;Node3 -->
<g id="edge20_Node000016_Node000003" class="edge">
<title>Node16&#45;&gt;Node3</title>
<g id="a_edge20_Node000016_Node000003"><a xlink:title=" ">
<path fill="none" stroke="#63b8ff" d="M1179.34,-126.29C1203,-109.65 1226.87,-86.01 1209.12,-66.5 1180.74,-35.28 872.92,-36.25 831.12,-30.5 828.23,-30.1 825.27,-29.67 822.29,-29.22"/>
<polygon fill="#63b8ff" stroke="#63b8ff" points="1177.65,-123.21 1171.29,-131.68 1181.54,-129.03 1177.65,-123.21"/>
</a>
</g>
</g>
<!-- Node17 -->
<g id="Node000017" class="node">
<title>Node17</title>
<g id="a_Node000017"><a xlink:href="OuroborosDesign_8cpp.html" target="_top" xlink:title=" ">
<polygon fill="white" stroke="#666666" points="1200.12,-97 1088.12,-97 1088.12,-66.5 1200.12,-66.5 1200.12,-97"/>
<text text-anchor="start" x="1096.12" y="-83.5" font-family="Helvetica,sans-Serif" font-size="10.00">sourcecode/timing/src</text>
<text text-anchor="middle" x="1144.12" y="-72.25" font-family="Helvetica,sans-Serif" font-size="10.00">/OuroborosDesign.cpp</text>
</a>
</g>
</g>
<!-- Node16&#45;&gt;Node17 -->
<g id="edge21_Node000016_Node000017" class="edge">
<title>Node16&#45;&gt;Node17</title>
<g id="a_edge21_Node000016_Node000017"><a xlink:title=" ">
<path fill="none" stroke="#63b8ff" d="M1144.12,-121.31C1144.12,-113.14 1144.12,-104.41 1144.12,-97.33"/>
<polygon fill="#63b8ff" stroke="#63b8ff" points="1140.63,-121.1 1144.13,-131.1 1147.63,-121.1 1140.63,-121.1"/>
</a>
</g>
</g>
<!-- Node18&#45;&gt;Node3 -->
<g id="edge23_Node000018_Node000003" class="edge">
<title>Node18&#45;&gt;Node3</title>
<g id="a_edge23_Node000018_Node000003"><a xlink:title=" ">
<path fill="none" stroke="#63b8ff" d="M1284.84,-123.07C1272.23,-104.16 1252.01,-79.03 1227.12,-66.5 1148.21,-26.75 918.69,-42.35 831.12,-30.5 828.22,-30.11 825.27,-29.68 822.29,-29.24"/>
<polygon fill="#63b8ff" stroke="#63b8ff" points="1281.74,-124.72 1290.07,-131.28 1287.65,-120.96 1281.74,-124.72"/>
</a>
</g>
</g>
<!-- Node19 -->
<g id="Node000019" class="node">
<title>Node19</title>
<g id="a_Node000019"><a xlink:href="OverlordDesign_8cpp.html" target="_top" xlink:title=" ">
<polygon fill="white" stroke="#666666" points="1406.12,-97 1294.12,-97 1294.12,-66.5 1406.12,-66.5 1406.12,-97"/>
<text text-anchor="start" x="1302.12" y="-83.5" font-family="Helvetica,sans-Serif" font-size="10.00">sourcecode/timing/src</text>
<text text-anchor="middle" x="1350.12" y="-72.25" font-family="Helvetica,sans-Serif" font-size="10.00">/OverlordDesign.cpp</text>
</a>
</g>
</g>
<!-- Node18&#45;&gt;Node19 -->
<g id="edge24_Node000018_Node000019" class="edge">
<title>Node18&#45;&gt;Node19</title>
<g id="a_edge24_Node000018_Node000019"><a xlink:title=" ">
<path fill="none" stroke="#63b8ff" d="M1317.63,-123.85C1324.64,-114.98 1332.41,-105.15 1338.6,-97.33"/>
<polygon fill="#63b8ff" stroke="#63b8ff" points="1315.09,-121.41 1311.64,-131.43 1320.58,-125.75 1315.09,-121.41"/>
</a>
</g>
</g>
</g>
</svg>
