<?xml version="1.0" encoding="UTF-8" standalone="no"?>
<!DOCTYPE svg PUBLIC "-//W3C//DTD SVG 1.1//EN"
 "http://www.w3.org/Graphics/SVG/1.1/DTD/svg11.dtd">
<!-- Generated by graphviz version 9.0.0 (20230911.1827)
 -->
<!-- Title: sourcecode/timing/include/timing/MasterGlobalNode.hpp Pages: 1 -->
<svg width="513pt" height="172pt"
 viewBox="0.00 0.00 512.88 171.50" xmlns="http://www.w3.org/2000/svg" xmlns:xlink="http://www.w3.org/1999/xlink">
<g id="graph0" class="graph" transform="scale(1 1) rotate(0) translate(4 167.5)">
<title>sourcecode/timing/include/timing/MasterGlobalNode.hpp</title>
<!-- Node1 -->
<g id="Node000001" class="node">
<title>Node1</title>
<g id="a_Node000001"><a xlink:title=" ">
<polygon fill="#999999" stroke="#666666" points="432.5,-163.5 285.25,-163.5 285.25,-133 432.5,-133 432.5,-163.5"/>
<text text-anchor="start" x="293.25" y="-150" font-family="Helvetica,sans-Serif" font-size="10.00">sourcecode/timing/include</text>
<text text-anchor="middle" x="358.88" y="-138.75" font-family="Helvetica,sans-Serif" font-size="10.00">/timing/MasterGlobalNode.hpp</text>
</a>
</g>
</g>
<!-- Node2 -->
<g id="Node000002" class="node">
<title>Node2</title>
<g id="a_Node000002"><a xlink:href="MasterNode_8hpp.html" target="_top" xlink:title=" ">
<polygon fill="white" stroke="#666666" points="317.5,-97 188.25,-97 188.25,-66.5 317.5,-66.5 317.5,-97"/>
<text text-anchor="start" x="196.25" y="-83.5" font-family="Helvetica,sans-Serif" font-size="10.00">sourcecode/timing/include</text>
<text text-anchor="middle" x="252.88" y="-72.25" font-family="Helvetica,sans-Serif" font-size="10.00">/timing/MasterNode.hpp</text>
</a>
</g>
</g>
<!-- Node1&#45;&gt;Node2 -->
<g id="edge1_Node000001_Node000002" class="edge">
<title>Node1&#45;&gt;Node2</title>
<g id="a_edge1_Node000001_Node000002"><a xlink:title=" ">
<path fill="none" stroke="#63b8ff" d="M325.41,-126.89C309.64,-117.29 291.18,-106.06 276.83,-97.33"/>
<polygon fill="#63b8ff" stroke="#63b8ff" points="323.17,-129.62 333.53,-131.83 326.81,-123.64 323.17,-129.62"/>
</a>
</g>
</g>
<!-- Node5 -->
<g id="Node000005" class="node">
<title>Node5</title>
<g id="a_Node000005"><a xlink:href="MasterNode_8cpp.html" target="_top" xlink:title=" ">
<polygon fill="white" stroke="#666666" points="427.88,-30.5 315.88,-30.5 315.88,0 427.88,0 427.88,-30.5"/>
<text text-anchor="start" x="323.88" y="-17" font-family="Helvetica,sans-Serif" font-size="10.00">sourcecode/timing/src</text>
<text text-anchor="middle" x="371.88" y="-5.75" font-family="Helvetica,sans-Serif" font-size="10.00">/MasterNode.cpp</text>
</a>
</g>
</g>
<!-- Node1&#45;&gt;Node5 -->
<g id="edge6_Node000001_Node000005" class="edge">
<title>Node1&#45;&gt;Node5</title>
<g id="a_edge6_Node000001_Node000005"><a xlink:title=" ">
<path fill="none" stroke="#63b8ff" d="M361.44,-121.43C364.13,-94.34 368.26,-52.71 370.43,-30.83"/>
<polygon fill="#63b8ff" stroke="#63b8ff" points="357.97,-120.93 360.47,-131.22 364.94,-121.62 357.97,-120.93"/>
</a>
</g>
</g>
<!-- Node6 -->
<g id="Node000006" class="node">
<title>Node6</title>
<g id="a_Node000006"><a xlink:href="MasterGlobalNode_8cpp.html" target="_top" xlink:title=" ">
<polygon fill="white" stroke="#666666" points="504.88,-97 386.88,-97 386.88,-66.5 504.88,-66.5 504.88,-97"/>
<text text-anchor="start" x="394.88" y="-83.5" font-family="Helvetica,sans-Serif" font-size="10.00">sourcecode/timing/src</text>
<text text-anchor="middle" x="445.88" y="-72.25" font-family="Helvetica,sans-Serif" font-size="10.00">/MasterGlobalNode.cpp</text>
</a>
</g>
</g>
<!-- Node1&#45;&gt;Node6 -->
<g id="edge5_Node000001_Node000006" class="edge">
<title>Node1&#45;&gt;Node6</title>
<g id="a_edge5_Node000001_Node000006"><a xlink:title=" ">
<path fill="none" stroke="#63b8ff" d="M387.82,-125.79C400.43,-116.44 414.88,-105.73 426.21,-97.33"/>
<polygon fill="#63b8ff" stroke="#63b8ff" points="385.78,-122.95 379.83,-131.71 389.95,-128.57 385.78,-122.95"/>
</a>
</g>
</g>
<!-- Node3 -->
<g id="Node000003" class="node">
<title>Node3</title>
<g id="a_Node000003"><a xlink:href="definitions_8cpp.html" target="_top" xlink:title=" ">
<polygon fill="white" stroke="#666666" points="139.75,-30.5 0,-30.5 0,0 139.75,0 139.75,-30.5"/>
<text text-anchor="start" x="8" y="-17" font-family="Helvetica,sans-Serif" font-size="10.00">sourcecode/timing/pybindsrc</text>
<text text-anchor="middle" x="69.88" y="-5.75" font-family="Helvetica,sans-Serif" font-size="10.00">/definitions.cpp</text>
</a>
</g>
</g>
<!-- Node2&#45;&gt;Node3 -->
<g id="edge2_Node000002_Node000003" class="edge">
<title>Node2&#45;&gt;Node3</title>
<g id="a_edge2_Node000002_Node000003"><a xlink:title=" ">
<path fill="none" stroke="#63b8ff" d="M200.84,-62.41C172.56,-52.44 138.05,-40.28 111.55,-30.94"/>
<polygon fill="#63b8ff" stroke="#63b8ff" points="199.33,-65.59 209.92,-65.61 201.65,-58.99 199.33,-65.59"/>
</a>
</g>
</g>
<!-- Node4 -->
<g id="Node000004" class="node">
<title>Node4</title>
<g id="a_Node000004"><a xlink:href="master_8cpp.html" target="_top" xlink:title=" ">
<polygon fill="white" stroke="#666666" points="297.75,-30.5 158,-30.5 158,0 297.75,0 297.75,-30.5"/>
<text text-anchor="start" x="166" y="-17" font-family="Helvetica,sans-Serif" font-size="10.00">sourcecode/timing/pybindsrc</text>
<text text-anchor="middle" x="227.88" y="-5.75" font-family="Helvetica,sans-Serif" font-size="10.00">/master.cpp</text>
</a>
</g>
</g>
<!-- Node2&#45;&gt;Node4 -->
<g id="edge3_Node000002_Node000004" class="edge">
<title>Node2&#45;&gt;Node4</title>
<g id="a_edge3_Node000002_Node000004"><a xlink:title=" ">
<path fill="none" stroke="#63b8ff" d="M243.15,-55.66C239.89,-47.25 236.37,-38.16 233.53,-30.83"/>
<polygon fill="#63b8ff" stroke="#63b8ff" points="239.78,-56.64 246.66,-64.7 246.3,-54.11 239.78,-56.64"/>
</a>
</g>
</g>
<!-- Node2&#45;&gt;Node5 -->
<g id="edge4_Node000002_Node000005" class="edge">
<title>Node2&#45;&gt;Node5</title>
<g id="a_edge4_Node000002_Node000005"><a xlink:title=" ">
<path fill="none" stroke="#63b8ff" d="M289.95,-60.66C307.76,-51 328.72,-39.64 344.98,-30.83"/>
<polygon fill="#63b8ff" stroke="#63b8ff" points="288.33,-57.55 281.21,-65.39 291.67,-63.7 288.33,-57.55"/>
</a>
</g>
</g>
</g>
</svg>
