<?xml version="1.0" encoding="UTF-8" standalone="no"?>
<!DOCTYPE svg PUBLIC "-//W3C//DTD SVG 1.1//EN"
 "http://www.w3.org/Graphics/SVG/1.1/DTD/svg11.dtd">
<!-- Generated by graphviz version 9.0.0 (20230911.1827)
 -->
<!-- Title: sourcecode/dbe/include/dbe/messenger_proxy.hpp Pages: 1 -->
<svg width="225pt" height="94pt"
 viewBox="0.00 0.00 224.88 93.75" xmlns="http://www.w3.org/2000/svg" xmlns:xlink="http://www.w3.org/1999/xlink">
<g id="graph0" class="graph" transform="scale(1 1) rotate(0) translate(4 89.75)">
<title>sourcecode/dbe/include/dbe/messenger_proxy.hpp</title>
<!-- Node1 -->
<g id="Node000001" class="node">
<title>Node1</title>
<g id="a_Node000001"><a xlink:title=" ">
<polygon fill="#999999" stroke="#666666" points="160.75,-85.75 29.25,-85.75 29.25,-55.25 160.75,-55.25 160.75,-85.75"/>
<text text-anchor="start" x="37.25" y="-72.25" font-family="Helvetica,sans-Serif" font-size="10.00">sourcecode/dbe/include</text>
<text text-anchor="middle" x="95" y="-61" font-family="Helvetica,sans-Serif" font-size="10.00">/dbe/messenger_proxy.hpp</text>
</a>
</g>
</g>
<!-- Node2 -->
<g id="Node000002" class="node">
<title>Node2</title>
<g id="a_Node000002"><a xlink:title=" ">
<polygon fill="#e0e0e0" stroke="#999999" points="52,-19.25 0,-19.25 0,0 52,0 52,-19.25"/>
<text text-anchor="middle" x="26" y="-5.75" font-family="Helvetica,sans-Serif" font-size="10.00">QObject</text>
</a>
</g>
</g>
<!-- Node1&#45;&gt;Node2 -->
<g id="edge1_Node000001_Node000002" class="edge">
<title>Node1&#45;&gt;Node2</title>
<g id="a_edge1_Node000001_Node000002"><a xlink:title=" ">
<path fill="none" stroke="#63b8ff" d="M77.94,-54.95C68.04,-46.5 55.54,-35.83 45.29,-27.08"/>
<polygon fill="#63b8ff" stroke="#63b8ff" points="47.67,-24.51 37.79,-20.68 43.12,-29.84 47.67,-24.51"/>
</a>
</g>
</g>
<!-- Node3 -->
<g id="Node000003" class="node">
<title>Node3</title>
<g id="a_Node000003"><a xlink:title=" ">
<polygon fill="#e0e0e0" stroke="#999999" points="119.5,-19.25 70.5,-19.25 70.5,0 119.5,0 119.5,-19.25"/>
<text text-anchor="middle" x="95" y="-5.75" font-family="Helvetica,sans-Serif" font-size="10.00">QString</text>
</a>
</g>
</g>
<!-- Node1&#45;&gt;Node3 -->
<g id="edge2_Node000001_Node000003" class="edge">
<title>Node1&#45;&gt;Node3</title>
<g id="a_edge2_Node000001_Node000003"><a xlink:title=" ">
<path fill="none" stroke="#63b8ff" d="M95,-54.95C95,-47.71 95,-38.84 95,-30.94"/>
<polygon fill="#63b8ff" stroke="#63b8ff" points="98.5,-31.21 95,-21.21 91.5,-31.21 98.5,-31.21"/>
</a>
</g>
</g>
<!-- Node4 -->
<g id="Node000004" class="node">
<title>Node4</title>
<g id="a_Node000004"><a xlink:title=" ">
<polygon fill="#e0e0e0" stroke="#999999" points="216.88,-19.25 137.12,-19.25 137.12,0 216.88,0 216.88,-19.25"/>
<text text-anchor="middle" x="177" y="-5.75" font-family="Helvetica,sans-Serif" font-size="10.00">QMessageBox</text>
</a>
</g>
</g>
<!-- Node1&#45;&gt;Node4 -->
<g id="edge3_Node000001_Node000004" class="edge">
<title>Node1&#45;&gt;Node4</title>
<g id="a_edge3_Node000001_Node000004"><a xlink:title=" ">
<path fill="none" stroke="#63b8ff" d="M115.27,-54.95C127.39,-46.24 142.8,-35.18 155.19,-26.28"/>
<polygon fill="#63b8ff" stroke="#63b8ff" points="157.05,-29.26 163.13,-20.58 152.96,-23.57 157.05,-29.26"/>
</a>
</g>
</g>
</g>
</svg>
