<?xml version="1.0" encoding="UTF-8" standalone="no"?>
<!DOCTYPE svg PUBLIC "-//W3C//DTD SVG 1.1//EN"
 "http://www.w3.org/Graphics/SVG/1.1/DTD/svg11.dtd">
<!-- Generated by graphviz version 9.0.0 (20230911.1827)
 -->
<!-- Title: sourcecode/dbe/include/dbe/messenger.hpp Pages: 1 -->
<svg width="3737pt" height="261pt"
 viewBox="0.00 0.00 3736.62 260.50" xmlns="http://www.w3.org/2000/svg" xmlns:xlink="http://www.w3.org/1999/xlink">
<g id="graph0" class="graph" transform="scale(1 1) rotate(0) translate(4 256.5)">
<title>sourcecode/dbe/include/dbe/messenger.hpp</title>
<!-- Node1 -->
<g id="Node000001" class="node">
<title>Node1</title>
<g id="a_Node000001"><a xlink:title=" ">
<polygon fill="#999999" stroke="#666666" points="1445.88,-252.5 1327.12,-252.5 1327.12,-222 1445.88,-222 1445.88,-252.5"/>
<text text-anchor="start" x="1335.12" y="-239" font-family="Helvetica,sans-Serif" font-size="10.00">sourcecode/dbe/include</text>
<text text-anchor="middle" x="1386.5" y="-227.75" font-family="Helvetica,sans-Serif" font-size="10.00">/dbe/messenger.hpp</text>
</a>
</g>
</g>
<!-- Node2 -->
<g id="Node000002" class="node">
<title>Node2</title>
<g id="a_Node000002"><a xlink:href="Main_8cpp.html" target="_top" xlink:title=" ">
<polygon fill="white" stroke="#666666" points="109,-180.38 0,-180.38 0,-149.88 109,-149.88 109,-180.38"/>
<text text-anchor="start" x="8" y="-166.88" font-family="Helvetica,sans-Serif" font-size="10.00">sourcecode/dbe/apps</text>
<text text-anchor="middle" x="54.5" y="-155.62" font-family="Helvetica,sans-Serif" font-size="10.00">/Main.cpp</text>
</a>
</g>
</g>
<!-- Node1&#45;&gt;Node2 -->
<g id="edge1_Node000001_Node000002" class="edge">
<title>Node1&#45;&gt;Node2</title>
<g id="a_edge1_Node000001_Node000002"><a xlink:title=" ">
<path fill="none" stroke="#63b8ff" d="M1315.62,-235.67C1084.72,-233.43 355.71,-223.5 123.5,-186 115.75,-184.75 107.63,-182.91 99.8,-180.85"/>
<polygon fill="#63b8ff" stroke="#63b8ff" points="1315.34,-239.17 1325.37,-235.76 1315.4,-232.17 1315.34,-239.17"/>
</a>
</g>
</g>
<!-- Node3 -->
<g id="Node000003" class="node">
<title>Node3</title>
<g id="a_Node000003"><a xlink:href="graphtool_8cpp.html" target="_top" xlink:title=" ">
<polygon fill="white" stroke="#666666" points="181,-36.12 72,-36.12 72,-5.62 181,-5.62 181,-36.12"/>
<text text-anchor="start" x="80" y="-22.62" font-family="Helvetica,sans-Serif" font-size="10.00">sourcecode/dbe/apps</text>
<text text-anchor="middle" x="126.5" y="-11.38" font-family="Helvetica,sans-Serif" font-size="10.00">/graphtool.cpp</text>
</a>
</g>
</g>
<!-- Node1&#45;&gt;Node3 -->
<g id="edge2_Node000001_Node000003" class="edge">
<title>Node1&#45;&gt;Node3</title>
<g id="a_edge2_Node000001_Node000003"><a xlink:title=" ">
<path fill="none" stroke="#63b8ff" d="M1315.6,-234.95C1069.52,-230.22 264.62,-212.77 216.5,-186 159.14,-154.09 136.26,-70.35 129.17,-36.44"/>
<polygon fill="#63b8ff" stroke="#63b8ff" points="1315.31,-238.45 1325.38,-235.14 1315.44,-231.45 1315.31,-238.45"/>
</a>
</g>
</g>
<!-- Node4 -->
<g id="Node000004" class="node">
<title>Node4</title>
<g id="a_Node000004"><a xlink:href="gtool_8cpp.html" target="_top" xlink:title=" ">
<polygon fill="white" stroke="#666666" points="449,-36.12 340,-36.12 340,-5.62 449,-5.62 449,-36.12"/>
<text text-anchor="start" x="348" y="-22.62" font-family="Helvetica,sans-Serif" font-size="10.00">sourcecode/dbe/apps</text>
<text text-anchor="middle" x="394.5" y="-11.38" font-family="Helvetica,sans-Serif" font-size="10.00">/graphtool/gtool.cpp</text>
</a>
</g>
</g>
<!-- Node1&#45;&gt;Node4 -->
<g id="edge3_Node000001_Node000004" class="edge">
<title>Node1&#45;&gt;Node4</title>
<g id="a_edge3_Node000001_Node000004"><a xlink:title=" ">
<path fill="none" stroke="#63b8ff" d="M1315.47,-236.88C1109.46,-238.09 522.03,-237 453.5,-186 404.67,-149.67 396.15,-69.21 394.74,-36.32"/>
<polygon fill="#63b8ff" stroke="#63b8ff" points="1315.24,-240.38 1325.22,-236.82 1315.2,-233.38 1315.24,-240.38"/>
</a>
</g>
</g>
<!-- Node5 -->
<g id="Node000005" class="node">
<title>Node5</title>
<g id="a_Node000005"><a xlink:href="change__attribute_8hpp.html" target="_top" xlink:title=" ">
<polygon fill="white" stroke="#666666" points="675.38,-180.38 547.62,-180.38 547.62,-149.88 675.38,-149.88 675.38,-180.38"/>
<text text-anchor="start" x="555.62" y="-166.88" font-family="Helvetica,sans-Serif" font-size="10.00">sourcecode/dbe/include</text>
<text text-anchor="middle" x="611.5" y="-155.62" font-family="Helvetica,sans-Serif" font-size="10.00">/dbe/change_attribute.hpp</text>
</a>
</g>
</g>
<!-- Node1&#45;&gt;Node5 -->
<g id="edge4_Node000001_Node000005" class="edge">
<title>Node1&#45;&gt;Node5</title>
<g id="a_edge4_Node000001_Node000005"><a xlink:title=" ">
<path fill="none" stroke="#63b8ff" d="M1315.46,-235.28C1188.86,-232.63 916.25,-222.76 689.5,-186 681.09,-184.64 672.25,-182.79 663.68,-180.78"/>
<polygon fill="#63b8ff" stroke="#63b8ff" points="1315.3,-238.78 1325.37,-235.48 1315.44,-231.78 1315.3,-238.78"/>
</a>
</g>
</g>
<!-- Node6 -->
<g id="Node000006" class="node">
<title>Node6</title>
<g id="a_Node000006"><a xlink:href="config__api_8hpp.html" target="_top" xlink:title=" ">
<polygon fill="white" stroke="#666666" points="1102.88,-108.25 984.12,-108.25 984.12,-77.75 1102.88,-77.75 1102.88,-108.25"/>
<text text-anchor="start" x="992.12" y="-94.75" font-family="Helvetica,sans-Serif" font-size="10.00">sourcecode/dbe/include</text>
<text text-anchor="middle" x="1043.5" y="-83.5" font-family="Helvetica,sans-Serif" font-size="10.00">/dbe/config_api.hpp</text>
</a>
</g>
</g>
<!-- Node1&#45;&gt;Node6 -->
<g id="edge26_Node000001_Node000006" class="edge">
<title>Node1&#45;&gt;Node6</title>
<g id="a_edge26_Node000001_Node000006"><a xlink:title=" ">
<path fill="none" stroke="#63b8ff" d="M1315.57,-228.74C1247.16,-220.49 1149.29,-205.75 1116.5,-186 1085.06,-167.07 1061.74,-129.28 1050.67,-108.5"/>
<polygon fill="#63b8ff" stroke="#63b8ff" points="1314.87,-232.18 1325.21,-229.88 1315.69,-225.23 1314.87,-232.18"/>
</a>
</g>
</g>
<!-- Node7 -->
<g id="Node000007" class="node">
<title>Node7</title>
<g id="a_Node000007"><a xlink:href="MainWindow_8cpp.html" target="_top" xlink:title=" ">
<polygon fill="white" stroke="#666666" points="1403,-36.12 1276,-36.12 1276,-5.62 1403,-5.62 1403,-36.12"/>
<text text-anchor="start" x="1284" y="-22.62" font-family="Helvetica,sans-Serif" font-size="10.00">sourcecode/dbe/src</text>
<text text-anchor="middle" x="1339.5" y="-11.38" font-family="Helvetica,sans-Serif" font-size="10.00">/internal/MainWindow.cpp</text>
</a>
</g>
</g>
<!-- Node1&#45;&gt;Node7 -->
<g id="edge35_Node000001_Node000007" class="edge">
<title>Node1&#45;&gt;Node7</title>
<g id="a_edge35_Node000001_Node000007"><a xlink:title=" ">
<path fill="none" stroke="#63b8ff" d="M1315.21,-230.48C1254.65,-223.92 1174.46,-210.75 1154.5,-186 1124.29,-148.55 1125.82,-116.38 1154.5,-77.75 1156.58,-74.95 1234.21,-52.15 1288.24,-36.56"/>
<polygon fill="#63b8ff" stroke="#63b8ff" points="1314.83,-233.96 1325.14,-231.51 1315.56,-226.99 1314.83,-233.96"/>
</a>
</g>
</g>
<!-- Node8 -->
<g id="Node000008" class="node">
<title>Node8</title>
<g id="a_Node000008"><a xlink:href="confaccessor_8cpp.html" target="_top" xlink:title=" ">
<polygon fill="white" stroke="#666666" points="597.5,-36.12 467.5,-36.12 467.5,-5.62 597.5,-5.62 597.5,-36.12"/>
<text text-anchor="start" x="475.5" y="-22.62" font-family="Helvetica,sans-Serif" font-size="10.00">sourcecode/dbe/src</text>
<text text-anchor="middle" x="532.5" y="-11.38" font-family="Helvetica,sans-Serif" font-size="10.00">/internal/confaccessor.cpp</text>
</a>
</g>
</g>
<!-- Node1&#45;&gt;Node8 -->
<g id="edge36_Node000001_Node000008" class="edge">
<title>Node1&#45;&gt;Node8</title>
<g id="a_edge36_Node000001_Node000008"><a xlink:title=" ">
<path fill="none" stroke="#63b8ff" d="M1315.45,-235.43C1120.14,-232.74 584.91,-222.09 514.5,-186 464.96,-160.61 425.62,-127.04 451.5,-77.75 461.19,-59.3 480.04,-45.74 497.12,-36.61"/>
<polygon fill="#63b8ff" stroke="#63b8ff" points="1315.15,-238.93 1325.2,-235.57 1315.25,-231.93 1315.15,-238.93"/>
</a>
</g>
</g>
<!-- Node9 -->
<g id="Node000009" class="node">
<title>Node9</title>
<g id="a_Node000009"><a xlink:href="config__api__commands_8cpp.html" target="_top" xlink:title=" ">
<polygon fill="white" stroke="#666666" points="717.25,-41.75 615.75,-41.75 615.75,0 717.25,0 717.25,-41.75"/>
<text text-anchor="start" x="623.75" y="-28.25" font-family="Helvetica,sans-Serif" font-size="10.00">sourcecode/dbe/src</text>
<text text-anchor="start" x="623.75" y="-17" font-family="Helvetica,sans-Serif" font-size="10.00">/internal/config_api</text>
<text text-anchor="middle" x="666.5" y="-5.75" font-family="Helvetica,sans-Serif" font-size="10.00">_commands.cpp</text>
</a>
</g>
</g>
<!-- Node1&#45;&gt;Node9 -->
<g id="edge37_Node000001_Node000009" class="edge">
<title>Node1&#45;&gt;Node9</title>
<g id="a_edge37_Node000001_Node000009"><a xlink:title=" ">
<path fill="none" stroke="#63b8ff" d="M1315.46,-237.24C1213.51,-236.91 1020.67,-229.77 863.5,-186 786.57,-164.57 756.18,-166.46 701.5,-108.25 684,-89.62 674.77,-61.08 670.27,-41.97"/>
<polygon fill="#63b8ff" stroke="#63b8ff" points="1315.32,-240.74 1325.32,-237.24 1315.33,-233.74 1315.32,-240.74"/>
</a>
</g>
</g>
<!-- Node10 -->
<g id="Node000010" class="node">
<title>Node10</title>
<g id="a_Node000010"><a xlink:href="config__api__get_8cpp.html" target="_top" xlink:title=" ">
<polygon fill="white" stroke="#666666" points="1522.25,-41.75 1420.75,-41.75 1420.75,0 1522.25,0 1522.25,-41.75"/>
<text text-anchor="start" x="1428.75" y="-28.25" font-family="Helvetica,sans-Serif" font-size="10.00">sourcecode/dbe/src</text>
<text text-anchor="start" x="1428.75" y="-17" font-family="Helvetica,sans-Serif" font-size="10.00">/internal/config_api</text>
<text text-anchor="middle" x="1471.5" y="-5.75" font-family="Helvetica,sans-Serif" font-size="10.00">_get.cpp</text>
</a>
</g>
</g>
<!-- Node1&#45;&gt;Node10 -->
<g id="edge38_Node000001_Node000010" class="edge">
<title>Node1&#45;&gt;Node10</title>
<g id="a_edge38_Node000001_Node000010"><a xlink:title=" ">
<path fill="none" stroke="#63b8ff" d="M1315.72,-227.08C1266.75,-219.11 1207.76,-205.72 1192.5,-186 1163.05,-147.95 1161.35,-114.41 1192.5,-77.75 1224.58,-40 1364.42,-53.7 1412.5,-41.75 1415.12,-41.1 1417.8,-40.38 1420.48,-39.63"/>
<polygon fill="#63b8ff" stroke="#63b8ff" points="1315.03,-230.51 1325.46,-228.6 1316.12,-223.6 1315.03,-230.51"/>
</a>
</g>
</g>
<!-- Node14 -->
<g id="Node000014" class="node">
<title>Node14</title>
<g id="a_Node000014"><a xlink:href="BatchChangeWidget_8cpp.html" target="_top" xlink:title=" ">
<polygon fill="white" stroke="#666666" points="1702.62,-36.12 1540.38,-36.12 1540.38,-5.62 1702.62,-5.62 1702.62,-36.12"/>
<text text-anchor="start" x="1548.38" y="-22.62" font-family="Helvetica,sans-Serif" font-size="10.00">sourcecode/dbe/src</text>
<text text-anchor="middle" x="1621.5" y="-11.38" font-family="Helvetica,sans-Serif" font-size="10.00">/widgets/BatchChangeWidget.cpp</text>
</a>
</g>
</g>
<!-- Node1&#45;&gt;Node14 -->
<g id="edge50_Node000001_Node000014" class="edge">
<title>Node1&#45;&gt;Node14</title>
<g id="a_edge50_Node000001_Node000014"><a xlink:title=" ">
<path fill="none" stroke="#63b8ff" d="M1315.95,-231.72C1284.48,-225.76 1250.13,-212.95 1230.5,-186 1202.17,-147.11 1198.56,-113.73 1230.5,-77.75 1275.22,-27.37 1465.08,-53.03 1531.5,-41.75 1540.33,-40.25 1549.61,-38.46 1558.71,-36.57"/>
<polygon fill="#63b8ff" stroke="#63b8ff" points="1315.01,-235.11 1325.45,-233.31 1316.16,-228.21 1315.01,-235.11"/>
</a>
</g>
</g>
<!-- Node16 -->
<g id="Node000016" class="node">
<title>Node16</title>
<g id="a_Node000016"><a xlink:href="ObjectCreator_8cpp.html" target="_top" xlink:title=" ">
<polygon fill="white" stroke="#666666" points="1854.38,-36.12 1720.62,-36.12 1720.62,-5.62 1854.38,-5.62 1854.38,-36.12"/>
<text text-anchor="start" x="1728.62" y="-22.62" font-family="Helvetica,sans-Serif" font-size="10.00">sourcecode/dbe/src</text>
<text text-anchor="middle" x="1787.5" y="-11.38" font-family="Helvetica,sans-Serif" font-size="10.00">/widgets/ObjectCreator.cpp</text>
</a>
</g>
</g>
<!-- Node1&#45;&gt;Node16 -->
<g id="edge53_Node000001_Node000016" class="edge">
<title>Node1&#45;&gt;Node16</title>
<g id="a_edge53_Node000001_Node000016"><a xlink:title=" ">
<path fill="none" stroke="#63b8ff" d="M1316.21,-223.2C1295.79,-215.79 1275.71,-204.18 1263.5,-186 1253.15,-170.6 1251.93,-158.76 1263.5,-144.25 1390.81,15.48 1513.12,-90.37 1711.5,-41.75 1718.12,-40.13 1725.06,-38.38 1731.93,-36.62"/>
<polygon fill="#63b8ff" stroke="#63b8ff" points="1314.85,-226.44 1325.44,-226.23 1317.03,-219.78 1314.85,-226.44"/>
</a>
</g>
</g>
<!-- Node17 -->
<g id="Node000017" class="node">
<title>Node17</title>
<g id="a_Node000017"><a xlink:href="change__class_8hpp.html" target="_top" xlink:title=" ">
<polygon fill="white" stroke="#666666" points="828.88,-108.25 710.12,-108.25 710.12,-77.75 828.88,-77.75 828.88,-108.25"/>
<text text-anchor="start" x="718.12" y="-94.75" font-family="Helvetica,sans-Serif" font-size="10.00">sourcecode/dbe/include</text>
<text text-anchor="middle" x="769.5" y="-83.5" font-family="Helvetica,sans-Serif" font-size="10.00">/dbe/change_class.hpp</text>
</a>
</g>
</g>
<!-- Node1&#45;&gt;Node17 -->
<g id="edge19_Node000001_Node000017" class="edge">
<title>Node1&#45;&gt;Node17</title>
<g id="a_edge19_Node000001_Node000017"><a xlink:title=" ">
<path fill="none" stroke="#63b8ff" d="M1315.59,-233.85C1233.05,-229.61 1093.26,-217.95 977.5,-186 909.18,-167.14 834.41,-129.5 795.82,-108.68"/>
<polygon fill="#63b8ff" stroke="#63b8ff" points="1315.18,-237.33 1325.34,-234.32 1315.52,-230.34 1315.18,-237.33"/>
</a>
</g>
</g>
<!-- Node18 -->
<g id="Node000018" class="node">
<title>Node18</title>
<g id="a_Node000018"><a xlink:href="change__date_8hpp.html" target="_top" xlink:title=" ">
<polygon fill="white" stroke="#666666" points="965.88,-108.25 847.12,-108.25 847.12,-77.75 965.88,-77.75 965.88,-108.25"/>
<text text-anchor="start" x="855.12" y="-94.75" font-family="Helvetica,sans-Serif" font-size="10.00">sourcecode/dbe/include</text>
<text text-anchor="middle" x="906.5" y="-83.5" font-family="Helvetica,sans-Serif" font-size="10.00">/dbe/change_date.hpp</text>
</a>
</g>
</g>
<!-- Node1&#45;&gt;Node18 -->
<g id="edge21_Node000001_Node000018" class="edge">
<title>Node1&#45;&gt;Node18</title>
<g id="a_edge21_Node000001_Node000018"><a xlink:title=" ">
<path fill="none" stroke="#63b8ff" d="M1315.18,-232.31C1249.53,-226.99 1150.24,-214.6 1068.5,-186 1013.55,-166.77 955.78,-129.1 926.33,-108.43"/>
<polygon fill="#63b8ff" stroke="#63b8ff" points="1314.88,-235.8 1325.12,-233.08 1315.42,-228.82 1314.88,-235.8"/>
</a>
</g>
</g>
<!-- Node19 -->
<g id="Node000019" class="node">
<title>Node19</title>
<g id="a_Node000019"><a xlink:href="change__enum_8hpp.html" target="_top" xlink:title=" ">
<polygon fill="white" stroke="#666666" points="578.88,-108.25 460.12,-108.25 460.12,-77.75 578.88,-77.75 578.88,-108.25"/>
<text text-anchor="start" x="468.12" y="-94.75" font-family="Helvetica,sans-Serif" font-size="10.00">sourcecode/dbe/include</text>
<text text-anchor="middle" x="519.5" y="-83.5" font-family="Helvetica,sans-Serif" font-size="10.00">/dbe/change_enum.hpp</text>
</a>
</g>
</g>
<!-- Node1&#45;&gt;Node19 -->
<g id="edge23_Node000001_Node000019" class="edge">
<title>Node1&#45;&gt;Node19</title>
<g id="a_edge23_Node000001_Node000019"><a xlink:title=" ">
<path fill="none" stroke="#63b8ff" d="M1315.39,-236.9C1121.92,-237.99 596.6,-236.26 538.5,-186 516.3,-166.79 515.92,-129.11 517.66,-108.43"/>
<polygon fill="#63b8ff" stroke="#63b8ff" points="1315.33,-240.4 1325.31,-236.84 1315.29,-233.4 1315.33,-240.4"/>
</a>
</g>
</g>
<!-- Node20 -->
<g id="Node000020" class="node">
<title>Node20</title>
<g id="a_Node000020"><a xlink:href="gtool_8hpp.html" target="_top" xlink:title=" ">
<polygon fill="white" stroke="#666666" points="343.88,-180.38 225.12,-180.38 225.12,-149.88 343.88,-149.88 343.88,-180.38"/>
<text text-anchor="start" x="233.12" y="-166.88" font-family="Helvetica,sans-Serif" font-size="10.00">sourcecode/dbe/include</text>
<text text-anchor="middle" x="284.5" y="-155.62" font-family="Helvetica,sans-Serif" font-size="10.00">/dbe/gtool.hpp</text>
</a>
</g>
</g>
<!-- Node1&#45;&gt;Node20 -->
<g id="edge27_Node000001_Node000020" class="edge">
<title>Node1&#45;&gt;Node20</title>
<g id="a_edge27_Node000001_Node000020"><a xlink:title=" ">
<path fill="none" stroke="#63b8ff" d="M1315.25,-236.45C1150.18,-236.11 729.03,-230.51 380.5,-186 368.68,-184.49 356.15,-182.32 344.18,-179.96"/>
<polygon fill="#63b8ff" stroke="#63b8ff" points="1315.17,-239.95 1325.17,-236.47 1315.18,-232.95 1315.17,-239.95"/>
</a>
</g>
</g>
<!-- Node23 -->
<g id="Node000023" class="node">
<title>Node23</title>
<g id="a_Node000023"><a xlink:href="MyApplication_8cpp.html" target="_top" xlink:title=" ">
<polygon fill="white" stroke="#666666" points="1374.25,-180.38 1272.75,-180.38 1272.75,-149.88 1374.25,-149.88 1374.25,-180.38"/>
<text text-anchor="start" x="1280.75" y="-166.88" font-family="Helvetica,sans-Serif" font-size="10.00">sourcecode/dbe/src</text>
<text text-anchor="middle" x="1323.5" y="-155.62" font-family="Helvetica,sans-Serif" font-size="10.00">/MyApplication.cpp</text>
</a>
</g>
</g>
<!-- Node1&#45;&gt;Node23 -->
<g id="edge33_Node000001_Node000023" class="edge">
<title>Node1&#45;&gt;Node23</title>
<g id="a_edge33_Node000001_Node000023"><a xlink:title=" ">
<path fill="none" stroke="#63b8ff" d="M1365.8,-213.21C1356.16,-202.48 1344.98,-190.03 1336.54,-180.64"/>
<polygon fill="#63b8ff" stroke="#63b8ff" points="1363.15,-215.49 1372.43,-220.59 1368.36,-210.82 1363.15,-215.49"/>
</a>
</g>
</g>
<!-- Node24 -->
<g id="Node000024" class="node">
<title>Node24</title>
<g id="a_Node000024"><a xlink:href="Command_8cpp.html" target="_top" xlink:title=" ">
<polygon fill="white" stroke="#666666" points="1508.38,-180.38 1392.62,-180.38 1392.62,-149.88 1508.38,-149.88 1508.38,-180.38"/>
<text text-anchor="start" x="1400.62" y="-166.88" font-family="Helvetica,sans-Serif" font-size="10.00">sourcecode/dbe/src</text>
<text text-anchor="middle" x="1450.5" y="-155.62" font-family="Helvetica,sans-Serif" font-size="10.00">/internal/Command.cpp</text>
</a>
</g>
</g>
<!-- Node1&#45;&gt;Node24 -->
<g id="edge34_Node000001_Node000024" class="edge">
<title>Node1&#45;&gt;Node24</title>
<g id="a_edge34_Node000001_Node000024"><a xlink:title=" ">
<path fill="none" stroke="#63b8ff" d="M1407.23,-213.53C1417.09,-202.73 1428.59,-190.13 1437.26,-180.64"/>
<polygon fill="#63b8ff" stroke="#63b8ff" points="1404.94,-210.86 1400.78,-220.6 1410.11,-215.58 1404.94,-210.86"/>
</a>
</g>
</g>
<!-- Node25 -->
<g id="Node000025" class="node">
<title>Node25</title>
<g id="a_Node000025"><a xlink:href="config__api__graph_8cpp.html" target="_top" xlink:title=" ">
<polygon fill="white" stroke="#666666" points="1628.25,-186 1526.75,-186 1526.75,-144.25 1628.25,-144.25 1628.25,-186"/>
<text text-anchor="start" x="1534.75" y="-172.5" font-family="Helvetica,sans-Serif" font-size="10.00">sourcecode/dbe/src</text>
<text text-anchor="start" x="1534.75" y="-161.25" font-family="Helvetica,sans-Serif" font-size="10.00">/internal/config_api</text>
<text text-anchor="middle" x="1577.5" y="-150" font-family="Helvetica,sans-Serif" font-size="10.00">_graph.cpp</text>
</a>
</g>
</g>
<!-- Node1&#45;&gt;Node25 -->
<g id="edge39_Node000001_Node000025" class="edge">
<title>Node1&#45;&gt;Node25</title>
<g id="a_edge39_Node000001_Node000025"><a xlink:title=" ">
<path fill="none" stroke="#63b8ff" d="M1437.17,-217.65C1464.81,-207.5 1498.92,-194.98 1526.59,-184.82"/>
<polygon fill="#63b8ff" stroke="#63b8ff" points="1436.14,-214.3 1427.96,-221.03 1438.55,-220.87 1436.14,-214.3"/>
</a>
</g>
</g>
<!-- Node26 -->
<g id="Node000026" class="node">
<title>Node26</title>
<g id="a_Node000026"><a xlink:href="config__ui__info_8cpp.html" target="_top" xlink:title=" ">
<polygon fill="white" stroke="#666666" points="1748.25,-186 1646.75,-186 1646.75,-144.25 1748.25,-144.25 1748.25,-186"/>
<text text-anchor="start" x="1654.75" y="-172.5" font-family="Helvetica,sans-Serif" font-size="10.00">sourcecode/dbe/src</text>
<text text-anchor="start" x="1654.75" y="-161.25" font-family="Helvetica,sans-Serif" font-size="10.00">/internal/config_ui</text>
<text text-anchor="middle" x="1697.5" y="-150" font-family="Helvetica,sans-Serif" font-size="10.00">_info.cpp</text>
</a>
</g>
</g>
<!-- Node1&#45;&gt;Node26 -->
<g id="edge40_Node000001_Node000026" class="edge">
<title>Node1&#45;&gt;Node26</title>
<g id="a_edge40_Node000001_Node000026"><a xlink:title=" ">
<path fill="none" stroke="#63b8ff" d="M1457.44,-224.44C1508.01,-215.44 1577.39,-201.91 1637.5,-186 1640.47,-185.21 1643.51,-184.36 1646.56,-183.47"/>
<polygon fill="#63b8ff" stroke="#63b8ff" points="1457.04,-220.95 1447.8,-226.14 1458.25,-227.85 1457.04,-220.95"/>
</a>
</g>
</g>
<!-- Node27 -->
<g id="Node000027" class="node">
<title>Node27</title>
<g id="a_Node000027"><a xlink:href="dbcontroller_8cpp.html" target="_top" xlink:title=" ">
<polygon fill="white" stroke="#666666" points="1888.38,-180.38 1766.62,-180.38 1766.62,-149.88 1888.38,-149.88 1888.38,-180.38"/>
<text text-anchor="start" x="1774.62" y="-166.88" font-family="Helvetica,sans-Serif" font-size="10.00">sourcecode/dbe/src</text>
<text text-anchor="middle" x="1827.5" y="-155.62" font-family="Helvetica,sans-Serif" font-size="10.00">/internal/dbcontroller.cpp</text>
</a>
</g>
</g>
<!-- Node1&#45;&gt;Node27 -->
<g id="edge41_Node000001_Node000027" class="edge">
<title>Node1&#45;&gt;Node27</title>
<g id="a_edge41_Node000001_Node000027"><a xlink:title=" ">
<path fill="none" stroke="#63b8ff" d="M1457.23,-229.69C1532.26,-222.03 1654.01,-207.59 1757.5,-186 1764.55,-184.53 1771.93,-182.73 1779.14,-180.82"/>
<polygon fill="#63b8ff" stroke="#63b8ff" points="1457.16,-226.18 1447.56,-230.66 1457.86,-233.14 1457.16,-226.18"/>
</a>
</g>
</g>
<!-- Node28 -->
<g id="Node000028" class="node">
<title>Node28</title>
<g id="a_Node000028"><a xlink:href="messenger_8cpp.html" target="_top" xlink:title=" ">
<polygon fill="white" stroke="#666666" points="2026.25,-180.38 1906.75,-180.38 1906.75,-149.88 2026.25,-149.88 2026.25,-180.38"/>
<text text-anchor="start" x="1914.75" y="-166.88" font-family="Helvetica,sans-Serif" font-size="10.00">sourcecode/dbe/src</text>
<text text-anchor="middle" x="1966.5" y="-155.62" font-family="Helvetica,sans-Serif" font-size="10.00">/internal/messenger.cpp</text>
</a>
</g>
</g>
<!-- Node1&#45;&gt;Node28 -->
<g id="edge42_Node000001_Node000028" class="edge">
<title>Node1&#45;&gt;Node28</title>
<g id="a_edge42_Node000001_Node000028"><a xlink:title=" ">
<path fill="none" stroke="#63b8ff" d="M1457.39,-233.37C1556.59,-228.41 1742.12,-215.76 1897.5,-186 1904.72,-184.62 1912.28,-182.81 1919.64,-180.86"/>
<polygon fill="#63b8ff" stroke="#63b8ff" points="1457.35,-229.86 1447.53,-233.85 1457.69,-236.86 1457.35,-229.86"/>
</a>
</g>
</g>
<!-- Node29 -->
<g id="Node000029" class="node">
<title>Node29</title>
<g id="a_Node000029"><a xlink:href="rwdacc_8cpp.html" target="_top" xlink:title=" ">
<polygon fill="white" stroke="#666666" points="2147,-180.38 2044,-180.38 2044,-149.88 2147,-149.88 2147,-180.38"/>
<text text-anchor="start" x="2052" y="-166.88" font-family="Helvetica,sans-Serif" font-size="10.00">sourcecode/dbe/src</text>
<text text-anchor="middle" x="2095.5" y="-155.62" font-family="Helvetica,sans-Serif" font-size="10.00">/internal/rwdacc.cpp</text>
</a>
</g>
</g>
<!-- Node1&#45;&gt;Node29 -->
<g id="edge43_Node000001_Node000029" class="edge">
<title>Node1&#45;&gt;Node29</title>
<g id="a_edge43_Node000001_Node000029"><a xlink:title=" ">
<path fill="none" stroke="#63b8ff" d="M1457.44,-236.35C1577.61,-235.28 1828.36,-227.68 2035.5,-186 2042.06,-184.68 2048.9,-182.86 2055.52,-180.85"/>
<polygon fill="#63b8ff" stroke="#63b8ff" points="1457.71,-232.85 1447.73,-236.42 1457.76,-239.85 1457.71,-232.85"/>
</a>
</g>
</g>
<!-- Node30 -->
<g id="Node000030" class="node">
<title>Node30</title>
<g id="a_Node000030"><a xlink:href="CustomTableView_8cpp.html" target="_top" xlink:title=" ">
<polygon fill="white" stroke="#666666" points="2322.38,-180.38 2164.62,-180.38 2164.62,-149.88 2322.38,-149.88 2322.38,-180.38"/>
<text text-anchor="start" x="2172.62" y="-166.88" font-family="Helvetica,sans-Serif" font-size="10.00">sourcecode/dbe/src</text>
<text text-anchor="middle" x="2243.5" y="-155.62" font-family="Helvetica,sans-Serif" font-size="10.00">/structure/CustomTableView.cpp</text>
</a>
</g>
</g>
<!-- Node1&#45;&gt;Node30 -->
<g id="edge44_Node000001_Node000030" class="edge">
<title>Node1&#45;&gt;Node30</title>
<g id="a_edge44_Node000001_Node000030"><a xlink:title=" ">
<path fill="none" stroke="#63b8ff" d="M1457.74,-235.39C1594.09,-232.9 1901.14,-223.26 2156.5,-186 2165.85,-184.64 2175.69,-182.79 2185.24,-180.78"/>
<polygon fill="#63b8ff" stroke="#63b8ff" points="1457.7,-231.89 1447.77,-235.56 1457.83,-238.88 1457.7,-231.89"/>
</a>
</g>
</g>
<!-- Node31 -->
<g id="Node000031" class="node">
<title>Node31</title>
<g id="a_Node000031"><a xlink:href="CustomTreeView_8cpp.html" target="_top" xlink:title=" ">
<polygon fill="white" stroke="#666666" points="2494.12,-180.38 2340.88,-180.38 2340.88,-149.88 2494.12,-149.88 2494.12,-180.38"/>
<text text-anchor="start" x="2348.88" y="-166.88" font-family="Helvetica,sans-Serif" font-size="10.00">sourcecode/dbe/src</text>
<text text-anchor="middle" x="2417.5" y="-155.62" font-family="Helvetica,sans-Serif" font-size="10.00">/structure/CustomTreeView.cpp</text>
</a>
</g>
</g>
<!-- Node1&#45;&gt;Node31 -->
<g id="edge45_Node000001_Node000031" class="edge">
<title>Node1&#45;&gt;Node31</title>
<g id="a_edge45_Node000001_Node000031"><a xlink:title=" ">
<path fill="none" stroke="#63b8ff" d="M1457.7,-236.68C1615.75,-236.71 2007.53,-231.69 2331.5,-186 2340.91,-184.67 2350.8,-182.82 2360.4,-180.78"/>
<polygon fill="#63b8ff" stroke="#63b8ff" points="1457.79,-233.18 1447.79,-236.67 1457.79,-240.18 1457.79,-233.18"/>
</a>
</g>
</g>
<!-- Node32 -->
<g id="Node000032" class="node">
<title>Node32</title>
<g id="a_Node000032"><a xlink:href="subtreeproxy_8cpp.html" target="_top" xlink:title=" ">
<polygon fill="white" stroke="#666666" points="2645,-180.38 2512,-180.38 2512,-149.88 2645,-149.88 2645,-180.38"/>
<text text-anchor="start" x="2520" y="-166.88" font-family="Helvetica,sans-Serif" font-size="10.00">sourcecode/dbe/src</text>
<text text-anchor="middle" x="2578.5" y="-155.62" font-family="Helvetica,sans-Serif" font-size="10.00">/structure/subtreeproxy.cpp</text>
</a>
</g>
</g>
<!-- Node1&#45;&gt;Node32 -->
<g id="edge46_Node000001_Node000032" class="edge">
<title>Node1&#45;&gt;Node32</title>
<g id="a_edge46_Node000001_Node000032"><a xlink:title=" ">
<path fill="none" stroke="#63b8ff" d="M1457.68,-235.04C1670.63,-231.1 2300.6,-217.08 2503.5,-186 2511.89,-184.72 2520.69,-182.86 2529.19,-180.79"/>
<polygon fill="#63b8ff" stroke="#63b8ff" points="1457.8,-231.54 1447.86,-235.22 1457.93,-238.54 1457.8,-231.54"/>
</a>
</g>
</g>
<!-- Node33 -->
<g id="Node000033" class="node">
<title>Node33</title>
<g id="a_Node000033"><a xlink:href="table_8cpp.html" target="_top" xlink:title=" ">
<polygon fill="white" stroke="#666666" points="2764.25,-180.38 2662.75,-180.38 2662.75,-149.88 2764.25,-149.88 2764.25,-180.38"/>
<text text-anchor="start" x="2670.75" y="-166.88" font-family="Helvetica,sans-Serif" font-size="10.00">sourcecode/dbe/src</text>
<text text-anchor="middle" x="2713.5" y="-155.62" font-family="Helvetica,sans-Serif" font-size="10.00">/structure/table.cpp</text>
</a>
</g>
</g>
<!-- Node1&#45;&gt;Node33 -->
<g id="edge47_Node000001_Node000033" class="edge">
<title>Node1&#45;&gt;Node33</title>
<g id="a_edge47_Node000001_Node000033"><a xlink:title=" ">
<path fill="none" stroke="#63b8ff" d="M1457.33,-236.09C1688.92,-235.16 2422.13,-228.83 2654.5,-186 2661.3,-184.75 2668.39,-182.88 2675.2,-180.78"/>
<polygon fill="#63b8ff" stroke="#63b8ff" points="1457.54,-232.59 1447.55,-236.13 1457.56,-239.59 1457.54,-232.59"/>
</a>
</g>
</g>
<!-- Node34 -->
<g id="Node000034" class="node">
<title>Node34</title>
<g id="a_Node000034"><a xlink:href="tableselection_8cpp.html" target="_top" xlink:title=" ">
<polygon fill="white" stroke="#666666" points="2920.62,-180.38 2782.38,-180.38 2782.38,-149.88 2920.62,-149.88 2920.62,-180.38"/>
<text text-anchor="start" x="2790.38" y="-166.88" font-family="Helvetica,sans-Serif" font-size="10.00">sourcecode/dbe/src</text>
<text text-anchor="middle" x="2851.5" y="-155.62" font-family="Helvetica,sans-Serif" font-size="10.00">/structure/tableselection.cpp</text>
</a>
</g>
</g>
<!-- Node1&#45;&gt;Node34 -->
<g id="edge48_Node000001_Node000034" class="edge">
<title>Node1&#45;&gt;Node34</title>
<g id="a_edge48_Node000001_Node000034"><a xlink:title=" ">
<path fill="none" stroke="#63b8ff" d="M1457.56,-235.68C1703.21,-233.38 2515.54,-223.1 2773.5,-186 2782.21,-184.75 2791.36,-182.91 2800.21,-180.84"/>
<polygon fill="#63b8ff" stroke="#63b8ff" points="1457.77,-232.17 1447.81,-235.77 1457.84,-239.17 1457.77,-232.17"/>
</a>
</g>
</g>
<!-- Node35 -->
<g id="Node000035" class="node">
<title>Node35</title>
<g id="a_Node000035"><a xlink:href="treeselection_8cpp.html" target="_top" xlink:title=" ">
<polygon fill="white" stroke="#666666" points="3072.38,-180.38 2938.62,-180.38 2938.62,-149.88 3072.38,-149.88 3072.38,-180.38"/>
<text text-anchor="start" x="2946.62" y="-166.88" font-family="Helvetica,sans-Serif" font-size="10.00">sourcecode/dbe/src</text>
<text text-anchor="middle" x="3005.5" y="-155.62" font-family="Helvetica,sans-Serif" font-size="10.00">/structure/treeselection.cpp</text>
</a>
</g>
</g>
<!-- Node1&#45;&gt;Node35 -->
<g id="edge49_Node000001_Node000035" class="edge">
<title>Node1&#45;&gt;Node35</title>
<g id="a_edge49_Node000001_Node000035"><a xlink:title=" ">
<path fill="none" stroke="#63b8ff" d="M1457.47,-236.04C1720.53,-234.93 2639.72,-228.07 2929.5,-186 2938.14,-184.75 2947.21,-182.88 2955.95,-180.78"/>
<polygon fill="#63b8ff" stroke="#63b8ff" points="1457.67,-232.54 1447.69,-236.08 1457.7,-239.54 1457.67,-232.54"/>
</a>
</g>
</g>
<!-- Node36 -->
<g id="Node000036" class="node">
<title>Node36</title>
<g id="a_Node000036"><a xlink:href="CreateDatabaseWidget_8cpp.html" target="_top" xlink:title=" ">
<polygon fill="white" stroke="#666666" points="3264.25,-180.38 3090.75,-180.38 3090.75,-149.88 3264.25,-149.88 3264.25,-180.38"/>
<text text-anchor="start" x="3098.75" y="-166.88" font-family="Helvetica,sans-Serif" font-size="10.00">sourcecode/dbe/src</text>
<text text-anchor="middle" x="3177.5" y="-155.62" font-family="Helvetica,sans-Serif" font-size="10.00">/widgets/CreateDatabaseWidget.cpp</text>
</a>
</g>
</g>
<!-- Node1&#45;&gt;Node36 -->
<g id="edge51_Node000001_Node000036" class="edge">
<title>Node1&#45;&gt;Node36</title>
<g id="a_edge51_Node000001_Node000036"><a xlink:title=" ">
<path fill="none" stroke="#63b8ff" d="M1457.33,-235.8C1736.26,-233.76 2759.4,-223.82 3081.5,-186 3092.15,-184.75 3103.37,-182.91 3114.24,-180.85"/>
<polygon fill="#63b8ff" stroke="#63b8ff" points="1457.65,-232.3 1447.67,-235.87 1457.7,-239.3 1457.65,-232.3"/>
</a>
</g>
</g>
<!-- Node37 -->
<g id="Node000037" class="node">
<title>Node37</title>
<g id="a_Node000037"><a xlink:href="IncludeFileWidget_8cpp.html" target="_top" xlink:title=" ">
<polygon fill="white" stroke="#666666" points="3433,-180.38 3282,-180.38 3282,-149.88 3433,-149.88 3433,-180.38"/>
<text text-anchor="start" x="3290" y="-166.88" font-family="Helvetica,sans-Serif" font-size="10.00">sourcecode/dbe/src</text>
<text text-anchor="middle" x="3357.5" y="-155.62" font-family="Helvetica,sans-Serif" font-size="10.00">/widgets/IncludeFileWidget.cpp</text>
</a>
</g>
</g>
<!-- Node1&#45;&gt;Node37 -->
<g id="edge52_Node000001_Node000037" class="edge">
<title>Node1&#45;&gt;Node37</title>
<g id="a_edge52_Node000001_Node000037"><a xlink:title=" ">
<path fill="none" stroke="#63b8ff" d="M1457.35,-236.31C1755.85,-236.27 2912.34,-233.03 3273.5,-186 3283.01,-184.76 3293.02,-182.9 3302.67,-180.8"/>
<polygon fill="#63b8ff" stroke="#63b8ff" points="1457.77,-232.81 1447.77,-236.31 1457.77,-239.81 1457.77,-232.81"/>
</a>
</g>
</g>
<!-- Node38 -->
<g id="Node000038" class="node">
<title>Node38</title>
<g id="a_Node000038"><a xlink:href="ObjectEditor_8cpp.html" target="_top" xlink:title=" ">
<polygon fill="white" stroke="#666666" points="3578,-180.38 3451,-180.38 3451,-149.88 3578,-149.88 3578,-180.38"/>
<text text-anchor="start" x="3459" y="-166.88" font-family="Helvetica,sans-Serif" font-size="10.00">sourcecode/dbe/src</text>
<text text-anchor="middle" x="3514.5" y="-155.62" font-family="Helvetica,sans-Serif" font-size="10.00">/widgets/ObjectEditor.cpp</text>
</a>
</g>
</g>
<!-- Node1&#45;&gt;Node38 -->
<g id="edge54_Node000001_Node000038" class="edge">
<title>Node1&#45;&gt;Node38</title>
<g id="a_edge54_Node000001_Node000038"><a xlink:title=" ">
<path fill="none" stroke="#63b8ff" d="M1457.75,-235.54C1797.31,-232.04 3243.21,-215.49 3442.5,-186 3450.71,-184.79 3459.31,-182.94 3467.6,-180.84"/>
<polygon fill="#63b8ff" stroke="#63b8ff" points="1457.85,-232.04 1447.89,-235.64 1457.92,-239.04 1457.85,-232.04"/>
</a>
</g>
</g>
<!-- Node39 -->
<g id="Node000039" class="node">
<title>Node39</title>
<g id="a_Node000039"><a xlink:href="OracleWidget_8cpp.html" target="_top" xlink:title=" ">
<polygon fill="white" stroke="#666666" points="3728.62,-180.38 3596.38,-180.38 3596.38,-149.88 3728.62,-149.88 3728.62,-180.38"/>
<text text-anchor="start" x="3604.38" y="-166.88" font-family="Helvetica,sans-Serif" font-size="10.00">sourcecode/dbe/src</text>
<text text-anchor="middle" x="3662.5" y="-155.62" font-family="Helvetica,sans-Serif" font-size="10.00">/widgets/OracleWidget.cpp</text>
</a>
</g>
</g>
<!-- Node1&#45;&gt;Node39 -->
<g id="edge55_Node000001_Node000039" class="edge">
<title>Node1&#45;&gt;Node39</title>
<g id="a_edge55_Node000001_Node000039"><a xlink:title=" ">
<path fill="none" stroke="#63b8ff" d="M1457.53,-235.63C1811.11,-232.38 3372.94,-216.44 3587.5,-186 3596.04,-184.79 3604.99,-182.94 3613.62,-180.85"/>
<polygon fill="#63b8ff" stroke="#63b8ff" points="1457.68,-232.12 1447.71,-235.72 1457.74,-239.12 1457.68,-232.12"/>
</a>
</g>
</g>
<!-- Node5&#45;&gt;Node6 -->
<g id="edge5_Node000005_Node000006" class="edge">
<title>Node5&#45;&gt;Node6</title>
<g id="a_edge5_Node000005_Node000006"><a xlink:title=" ">
<path fill="none" stroke="#63b8ff" d="M686.58,-153.71C760.12,-143.23 875.27,-126.12 974.5,-108.25 977.51,-107.71 980.59,-107.14 983.7,-106.54"/>
<polygon fill="#63b8ff" stroke="#63b8ff" points="686.5,-150.18 677.1,-155.05 687.49,-157.11 686.5,-150.18"/>
</a>
</g>
</g>
<!-- Node5&#45;&gt;Node8 -->
<g id="edge17_Node000005_Node000008" class="edge">
<title>Node5&#45;&gt;Node8</title>
<g id="a_edge17_Node000005_Node000008"><a xlink:title=" ">
<path fill="none" stroke="#63b8ff" d="M607.82,-138.2C604.47,-120.31 598.32,-96.47 587.5,-77.75 578.17,-61.61 563.07,-46.74 551.05,-36.41"/>
<polygon fill="#63b8ff" stroke="#63b8ff" points="604.36,-138.73 609.47,-148.01 611.27,-137.57 604.36,-138.73"/>
</a>
</g>
</g>
<!-- Node5&#45;&gt;Node9 -->
<g id="edge18_Node000005_Node000009" class="edge">
<title>Node5&#45;&gt;Node9</title>
<g id="a_edge18_Node000005_Node000009"><a xlink:title=" ">
<path fill="none" stroke="#63b8ff" d="M621.19,-139.05C631.86,-111.47 648.79,-67.68 658.65,-42.17"/>
<polygon fill="#63b8ff" stroke="#63b8ff" points="618.07,-137.44 617.72,-148.03 624.6,-139.96 618.07,-137.44"/>
</a>
</g>
</g>
<!-- Node6&#45;&gt;Node4 -->
<g id="edge6_Node000006_Node000004" class="edge">
<title>Node6&#45;&gt;Node4</title>
<g id="a_edge6_Node000006_Node000004"><a xlink:title=" ">
<path fill="none" stroke="#63b8ff" d="M972.42,-77.62C744.7,-47.63 680.81,-83.44 458.5,-41.75 451.41,-40.42 444,-38.57 436.84,-36.53"/>
<polygon fill="#63b8ff" stroke="#63b8ff" points="971.87,-81.08 982.25,-78.95 972.8,-74.14 971.87,-81.08"/>
</a>
</g>
</g>
<!-- Node6&#45;&gt;Node7 -->
<g id="edge7_Node000006_Node000007" class="edge">
<title>Node6&#45;&gt;Node7</title>
<g id="a_edge7_Node000006_Node000007"><a xlink:title=" ">
<path fill="none" stroke="#63b8ff" d="M1114.32,-77.04C1158.49,-67.47 1216.46,-54.51 1267.5,-41.75 1273.92,-40.15 1280.63,-38.39 1287.28,-36.61"/>
<polygon fill="#63b8ff" stroke="#63b8ff" points="1113.63,-73.6 1104.59,-79.13 1115.1,-80.45 1113.63,-73.6"/>
</a>
</g>
</g>
<!-- Node6&#45;&gt;Node8 -->
<g id="edge8_Node000006_Node000008" class="edge">
<title>Node6&#45;&gt;Node8</title>
<g id="a_edge8_Node000006_Node000008"><a xlink:title=" ">
<path fill="none" stroke="#63b8ff" d="M972.35,-77.56C809.99,-53.88 764.55,-70.5 606.5,-41.75 598.78,-40.35 590.69,-38.53 582.8,-36.57"/>
<polygon fill="#63b8ff" stroke="#63b8ff" points="971.83,-81.02 982.23,-79.03 972.86,-74.09 971.83,-81.02"/>
</a>
</g>
</g>
<!-- Node6&#45;&gt;Node9 -->
<g id="edge9_Node000006_Node000009" class="edge">
<title>Node6&#45;&gt;Node9</title>
<g id="a_edge9_Node000006_Node000009"><a xlink:title=" ">
<path fill="none" stroke="#63b8ff" d="M972.48,-77.49C862.79,-59.01 831.4,-66.53 726.5,-41.75 723.62,-41.07 720.67,-40.31 717.72,-39.5"/>
<polygon fill="#63b8ff" stroke="#63b8ff" points="971.76,-80.92 982.21,-79.17 972.95,-74.02 971.76,-80.92"/>
</a>
</g>
</g>
<!-- Node6&#45;&gt;Node10 -->
<g id="edge10_Node000006_Node000010" class="edge">
<title>Node6&#45;&gt;Node10</title>
<g id="a_edge10_Node000006_Node000010"><a xlink:title=" ">
<path fill="none" stroke="#63b8ff" d="M1114.29,-82.71C1217.38,-69.13 1398.17,-45.11 1412.5,-41.75 1415.13,-41.13 1417.81,-40.45 1420.5,-39.71"/>
<polygon fill="#63b8ff" stroke="#63b8ff" points="1114,-79.22 1104.54,-83.99 1114.91,-86.16 1114,-79.22"/>
</a>
</g>
</g>
<!-- Node11 -->
<g id="Node000011" class="node">
<title>Node11</title>
<g id="a_Node000011"><a xlink:href="config__api__info_8cpp.html" target="_top" xlink:title=" ">
<polygon fill="white" stroke="#666666" points="837.25,-41.75 735.75,-41.75 735.75,0 837.25,0 837.25,-41.75"/>
<text text-anchor="start" x="743.75" y="-28.25" font-family="Helvetica,sans-Serif" font-size="10.00">sourcecode/dbe/src</text>
<text text-anchor="start" x="743.75" y="-17" font-family="Helvetica,sans-Serif" font-size="10.00">/internal/config_api</text>
<text text-anchor="middle" x="786.5" y="-5.75" font-family="Helvetica,sans-Serif" font-size="10.00">_info.cpp</text>
</a>
</g>
</g>
<!-- Node6&#45;&gt;Node11 -->
<g id="edge11_Node000006_Node000011" class="edge">
<title>Node6&#45;&gt;Node11</title>
<g id="a_edge11_Node000006_Node000011"><a xlink:title=" ">
<path fill="none" stroke="#63b8ff" d="M972.85,-75.25C935.17,-66 888.12,-53.94 846.5,-41.75 843.55,-40.89 840.53,-39.97 837.49,-39.03"/>
<polygon fill="#63b8ff" stroke="#63b8ff" points="971.71,-78.58 982.25,-77.55 973.37,-71.78 971.71,-78.58"/>
</a>
</g>
</g>
<!-- Node12 -->
<g id="Node000012" class="node">
<title>Node12</title>
<g id="a_Node000012"><a xlink:href="config__api__set_8cpp.html" target="_top" xlink:title=" ">
<polygon fill="white" stroke="#666666" points="957.25,-41.75 855.75,-41.75 855.75,0 957.25,0 957.25,-41.75"/>
<text text-anchor="start" x="863.75" y="-28.25" font-family="Helvetica,sans-Serif" font-size="10.00">sourcecode/dbe/src</text>
<text text-anchor="start" x="863.75" y="-17" font-family="Helvetica,sans-Serif" font-size="10.00">/internal/config_api</text>
<text text-anchor="middle" x="906.5" y="-5.75" font-family="Helvetica,sans-Serif" font-size="10.00">_set.cpp</text>
</a>
</g>
</g>
<!-- Node6&#45;&gt;Node12 -->
<g id="edge12_Node000006_Node000012" class="edge">
<title>Node6&#45;&gt;Node12</title>
<g id="a_edge12_Node000006_Node000012"><a xlink:title=" ">
<path fill="none" stroke="#63b8ff" d="M1004.72,-72.15C986.39,-62.77 964.53,-51.58 946.09,-42.14"/>
<polygon fill="#63b8ff" stroke="#63b8ff" points="1002.94,-75.17 1013.43,-76.61 1006.13,-68.94 1002.94,-75.17"/>
</a>
</g>
</g>
<!-- Node13 -->
<g id="Node000013" class="node">
<title>Node13</title>
<g id="a_Node000013"><a xlink:href="tree_8cpp.html" target="_top" xlink:title=" ">
<polygon fill="white" stroke="#666666" points="1077.25,-36.12 975.75,-36.12 975.75,-5.62 1077.25,-5.62 1077.25,-36.12"/>
<text text-anchor="start" x="983.75" y="-22.62" font-family="Helvetica,sans-Serif" font-size="10.00">sourcecode/dbe/src</text>
<text text-anchor="middle" x="1026.5" y="-11.38" font-family="Helvetica,sans-Serif" font-size="10.00">/structure/tree.cpp</text>
</a>
</g>
</g>
<!-- Node6&#45;&gt;Node13 -->
<g id="edge13_Node000006_Node000013" class="edge">
<title>Node6&#45;&gt;Node13</title>
<g id="a_edge13_Node000006_Node000013"><a xlink:title=" ">
<path fill="none" stroke="#63b8ff" d="M1037.28,-66.35C1034.83,-56.26 1032.11,-45.03 1030.02,-36.39"/>
<polygon fill="#63b8ff" stroke="#63b8ff" points="1033.86,-67.11 1039.62,-76 1040.67,-65.46 1033.86,-67.11"/>
</a>
</g>
</g>
<!-- Node6&#45;&gt;Node14 -->
<g id="edge14_Node000006_Node000014" class="edge">
<title>Node6&#45;&gt;Node14</title>
<g id="a_edge14_Node000006_Node000014"><a xlink:title=" ">
<path fill="none" stroke="#63b8ff" d="M1114.55,-85.14C1240.01,-72.96 1491.39,-48.22 1531.5,-41.75 1540.5,-40.3 1549.96,-38.51 1559.22,-36.6"/>
<polygon fill="#63b8ff" stroke="#63b8ff" points="1114.3,-81.65 1104.68,-86.1 1114.97,-88.61 1114.3,-81.65"/>
</a>
</g>
</g>
<!-- Node15 -->
<g id="Node000015" class="node">
<title>Node15</title>
<g id="a_Node000015"><a xlink:href="BuildingBlockEditors_8cpp.html" target="_top" xlink:title=" ">
<polygon fill="white" stroke="#666666" points="1258,-36.12 1095,-36.12 1095,-5.62 1258,-5.62 1258,-36.12"/>
<text text-anchor="start" x="1103" y="-22.62" font-family="Helvetica,sans-Serif" font-size="10.00">sourcecode/dbe/src</text>
<text text-anchor="middle" x="1176.5" y="-11.38" font-family="Helvetica,sans-Serif" font-size="10.00">/widgets/BuildingBlockEditors.cpp</text>
</a>
</g>
</g>
<!-- Node6&#45;&gt;Node15 -->
<g id="edge15_Node000006_Node000015" class="edge">
<title>Node6&#45;&gt;Node15</title>
<g id="a_edge15_Node000006_Node000015"><a xlink:title=" ">
<path fill="none" stroke="#63b8ff" d="M1081.45,-71.99C1102.87,-60.7 1129.16,-46.84 1148.66,-36.56"/>
<polygon fill="#63b8ff" stroke="#63b8ff" points="1079.93,-68.83 1072.72,-76.59 1083.2,-75.03 1079.93,-68.83"/>
</a>
</g>
</g>
<!-- Node6&#45;&gt;Node16 -->
<g id="edge16_Node000006_Node000016" class="edge">
<title>Node6&#45;&gt;Node16</title>
<g id="a_edge16_Node000006_Node000016"><a xlink:title=" ">
<path fill="none" stroke="#63b8ff" d="M1114.35,-86.58C1149.32,-83.91 1192.12,-80.65 1230.5,-77.75 1444.27,-61.61 1500.04,-77.01 1711.5,-41.75 1719.57,-40.4 1728.03,-38.6 1736.26,-36.62"/>
<polygon fill="#63b8ff" stroke="#63b8ff" points="1114.51,-83.06 1104.8,-87.31 1115.04,-90.04 1114.51,-83.06"/>
</a>
</g>
</g>
<!-- Node17&#45;&gt;Node9 -->
<g id="edge20_Node000017_Node000009" class="edge">
<title>Node17&#45;&gt;Node9</title>
<g id="a_edge20_Node000017_Node000009"><a xlink:title=" ">
<path fill="none" stroke="#63b8ff" d="M738.85,-71.14C725.43,-62 709.74,-51.31 696.41,-42.24"/>
<polygon fill="#63b8ff" stroke="#63b8ff" points="736.67,-73.88 746.91,-76.62 740.61,-68.1 736.67,-73.88"/>
</a>
</g>
</g>
<!-- Node18&#45;&gt;Node9 -->
<g id="edge22_Node000018_Node000009" class="edge">
<title>Node18&#45;&gt;Node9</title>
<g id="a_edge22_Node000018_Node000009"><a xlink:title=" ">
<path fill="none" stroke="#63b8ff" d="M840.38,-74.35C806.26,-65.04 764.02,-53.2 726.5,-41.75 723.56,-40.85 720.55,-39.92 717.51,-38.96"/>
<polygon fill="#63b8ff" stroke="#63b8ff" points="839.13,-77.64 849.7,-76.89 840.97,-70.88 839.13,-77.64"/>
</a>
</g>
</g>
<!-- Node19&#45;&gt;Node8 -->
<g id="edge24_Node000019_Node000008" class="edge">
<title>Node19&#45;&gt;Node8</title>
<g id="a_edge24_Node000019_Node000008"><a xlink:title=" ">
<path fill="none" stroke="#63b8ff" d="M524.25,-66.35C526.13,-56.26 528.21,-45.03 529.81,-36.39"/>
<polygon fill="#63b8ff" stroke="#63b8ff" points="520.85,-65.51 522.47,-75.98 527.73,-66.79 520.85,-65.51"/>
</a>
</g>
</g>
<!-- Node19&#45;&gt;Node9 -->
<g id="edge25_Node000019_Node000009" class="edge">
<title>Node19&#45;&gt;Node9</title>
<g id="a_edge25_Node000019_Node000009"><a xlink:title=" ">
<path fill="none" stroke="#63b8ff" d="M560.56,-72.41C580.34,-62.98 604.05,-51.67 624.02,-42.14"/>
<polygon fill="#63b8ff" stroke="#63b8ff" points="559.2,-69.18 551.68,-76.65 562.21,-75.5 559.2,-69.18"/>
</a>
</g>
</g>
<!-- Node20&#45;&gt;Node3 -->
<g id="edge28_Node000020_Node000003" class="edge">
<title>Node20&#45;&gt;Node3</title>
<g id="a_edge28_Node000020_Node000003"><a xlink:title=" ">
<path fill="none" stroke="#63b8ff" d="M245.59,-143.96C228.93,-134.35 209.83,-121.96 194.5,-108.25 170.03,-86.37 147.75,-54.9 135.76,-36.6"/>
<polygon fill="#63b8ff" stroke="#63b8ff" points="243.84,-146.99 254.27,-148.83 247.26,-140.88 243.84,-146.99"/>
</a>
</g>
</g>
<!-- Node20&#45;&gt;Node4 -->
<g id="edge29_Node000020_Node000004" class="edge">
<title>Node20&#45;&gt;Node4</title>
<g id="a_edge29_Node000020_Node000004"><a xlink:title=" ">
<path fill="none" stroke="#63b8ff" d="M303.96,-141.03C312.26,-131.04 321.97,-119.17 330.5,-108.25 349.92,-83.4 371.59,-53.71 384.08,-36.41"/>
<polygon fill="#63b8ff" stroke="#63b8ff" points="301.51,-138.51 297.78,-148.42 306.88,-142.99 301.51,-138.51"/>
</a>
</g>
</g>
<!-- Node21 -->
<g id="Node000021" class="node">
<title>Node21</title>
<g id="a_Node000021"><a xlink:href="segregate_8hpp.html" target="_top" xlink:title=" ">
<polygon fill="white" stroke="#666666" points="321.88,-108.25 203.12,-108.25 203.12,-77.75 321.88,-77.75 321.88,-108.25"/>
<text text-anchor="start" x="211.12" y="-94.75" font-family="Helvetica,sans-Serif" font-size="10.00">sourcecode/dbe/include</text>
<text text-anchor="middle" x="262.5" y="-83.5" font-family="Helvetica,sans-Serif" font-size="10.00">/dbe/segregate.hpp</text>
</a>
</g>
</g>
<!-- Node20&#45;&gt;Node21 -->
<g id="edge30_Node000020_Node000021" class="edge">
<title>Node20&#45;&gt;Node21</title>
<g id="a_edge30_Node000020_Node000021"><a xlink:title=" ">
<path fill="none" stroke="#63b8ff" d="M276.56,-138.81C273.36,-128.63 269.79,-117.25 267.05,-108.51"/>
<polygon fill="#63b8ff" stroke="#63b8ff" points="273.16,-139.66 279.49,-148.15 279.83,-137.56 273.16,-139.66"/>
</a>
</g>
</g>
<!-- Node21&#45;&gt;Node3 -->
<g id="edge31_Node000021_Node000003" class="edge">
<title>Node21&#45;&gt;Node3</title>
<g id="a_edge31_Node000021_Node000003"><a xlink:title=" ">
<path fill="none" stroke="#63b8ff" d="M223.99,-72.14C202.04,-60.82 175,-46.88 154.97,-36.56"/>
<polygon fill="#63b8ff" stroke="#63b8ff" points="222.15,-75.13 232.64,-76.61 225.36,-68.91 222.15,-75.13"/>
</a>
</g>
</g>
<!-- Node22 -->
<g id="Node000022" class="node">
<title>Node22</title>
<g id="a_Node000022"><a xlink:href="segregate_8cpp.html" target="_top" xlink:title=" ">
<polygon fill="white" stroke="#666666" points="321.75,-36.12 199.25,-36.12 199.25,-5.62 321.75,-5.62 321.75,-36.12"/>
<text text-anchor="start" x="207.25" y="-22.62" font-family="Helvetica,sans-Serif" font-size="10.00">sourcecode/dbe/apps</text>
<text text-anchor="middle" x="260.5" y="-11.38" font-family="Helvetica,sans-Serif" font-size="10.00">/graphtool/segregate.cpp</text>
</a>
</g>
</g>
<!-- Node21&#45;&gt;Node22 -->
<g id="edge32_Node000021_Node000022" class="edge">
<title>Node21&#45;&gt;Node22</title>
<g id="a_edge32_Node000021_Node000022"><a xlink:title=" ">
<path fill="none" stroke="#63b8ff" d="M261.76,-66.02C261.47,-56.01 261.16,-44.94 260.91,-36.39"/>
<polygon fill="#63b8ff" stroke="#63b8ff" points="258.26,-66.06 262.04,-75.96 265.26,-65.86 258.26,-66.06"/>
</a>
</g>
</g>
</g>
</svg>
