<?xml version="1.0" encoding="UTF-8" standalone="no"?>
<!DOCTYPE svg PUBLIC "-//W3C//DTD SVG 1.1//EN"
 "http://www.w3.org/Graphics/SVG/1.1/DTD/svg11.dtd">
<!-- Generated by graphviz version 9.0.0 (20230911.1827)
 -->
<!-- Title: sourcecode/oks/include/oks/method.hpp Pages: 1 -->
<svg width="2921pt" height="272pt"
 viewBox="0.00 0.00 2920.75 271.75" xmlns="http://www.w3.org/2000/svg" xmlns:xlink="http://www.w3.org/1999/xlink">
<g id="graph0" class="graph" transform="scale(1 1) rotate(0) translate(4 267.75)">
<title>sourcecode/oks/include/oks/method.hpp</title>
<!-- Node1 -->
<g id="Node000001" class="node">
<title>Node1</title>
<g id="a_Node000001"><a xlink:title=" ">
<polygon fill="#999999" stroke="#666666" points="2235.62,-263.75 2116.88,-263.75 2116.88,-233.25 2235.62,-233.25 2235.62,-263.75"/>
<text text-anchor="start" x="2124.88" y="-250.25" font-family="Helvetica,sans-Serif" font-size="10.00">sourcecode/oks/include</text>
<text text-anchor="middle" x="2176.25" y="-239" font-family="Helvetica,sans-Serif" font-size="10.00">/oks/method.hpp</text>
</a>
</g>
</g>
<!-- Node2 -->
<g id="Node000002" class="node">
<title>Node2</title>
<g id="a_Node000002"><a xlink:href="SchemaGraphicObject_8cpp.html" target="_top" xlink:title=" ">
<polygon fill="white" stroke="#666666" points="152.5,-41.75 0,-41.75 0,0 152.5,0 152.5,-41.75"/>
<text text-anchor="start" x="8" y="-28.25" font-family="Helvetica,sans-Serif" font-size="10.00">sourcecode/dbe/apps</text>
<text text-anchor="start" x="8" y="-17" font-family="Helvetica,sans-Serif" font-size="10.00">/SchemaEditor/SchemaGraphic</text>
<text text-anchor="middle" x="76.25" y="-5.75" font-family="Helvetica,sans-Serif" font-size="10.00">Object.cpp</text>
</a>
</g>
</g>
<!-- Node1&#45;&gt;Node2 -->
<g id="edge1_Node000001_Node000002" class="edge">
<title>Node1&#45;&gt;Node2</title>
<g id="a_edge1_Node000001_Node000002"><a xlink:title=" ">
<path fill="none" stroke="#63b8ff" d="M2105.08,-246.32C1936.79,-243.03 1501.29,-231.63 1139.25,-197.25 894.36,-173.99 834.11,-158.67 591.25,-119.5 399.52,-88.58 351.42,-81.15 161.25,-41.75 158.43,-41.17 155.56,-40.56 152.67,-39.94"/>
<polygon fill="#63b8ff" stroke="#63b8ff" points="2104.91,-249.82 2114.98,-246.51 2105.05,-242.82 2104.91,-249.82"/>
</a>
</g>
</g>
<!-- Node3 -->
<g id="Node000003" class="node">
<title>Node3</title>
<g id="a_Node000003"><a xlink:href="SchemaCommand_8hpp.html" target="_top" xlink:title=" ">
<polygon fill="white" stroke="#666666" points="1284.25,-191.62 1148.25,-191.62 1148.25,-161.12 1284.25,-161.12 1284.25,-191.62"/>
<text text-anchor="start" x="1156.25" y="-178.12" font-family="Helvetica,sans-Serif" font-size="10.00">sourcecode/dbe/include</text>
<text text-anchor="middle" x="1216.25" y="-166.88" font-family="Helvetica,sans-Serif" font-size="10.00">/dbe/SchemaCommand.hpp</text>
</a>
</g>
</g>
<!-- Node1&#45;&gt;Node3 -->
<g id="edge2_Node000001_Node000003" class="edge">
<title>Node1&#45;&gt;Node3</title>
<g id="a_edge2_Node000001_Node000003"><a xlink:title=" ">
<path fill="none" stroke="#63b8ff" d="M2105.21,-242.31C1926.56,-229.26 1460.31,-195.2 1284.59,-182.37"/>
<polygon fill="#63b8ff" stroke="#63b8ff" points="2104.82,-245.79 2115.05,-243.03 2105.33,-238.81 2104.82,-245.79"/>
</a>
</g>
</g>
<!-- Node18 -->
<g id="Node000018" class="node">
<title>Node18</title>
<g id="a_Node000018"><a xlink:href="SchemaCustomMethodImplementationModel_8hpp.html" target="_top" xlink:title=" ">
<polygon fill="white" stroke="#666666" points="2069.5,-197.25 1863,-197.25 1863,-155.5 2069.5,-155.5 2069.5,-197.25"/>
<text text-anchor="start" x="1871" y="-183.75" font-family="Helvetica,sans-Serif" font-size="10.00">sourcecode/dbe/include</text>
<text text-anchor="start" x="1871" y="-172.5" font-family="Helvetica,sans-Serif" font-size="10.00">/dbe/SchemaCustomMethodImplementation</text>
<text text-anchor="middle" x="1966.25" y="-161.25" font-family="Helvetica,sans-Serif" font-size="10.00">Model.hpp</text>
</a>
</g>
</g>
<!-- Node1&#45;&gt;Node18 -->
<g id="edge19_Node000001_Node000018" class="edge">
<title>Node1&#45;&gt;Node18</title>
<g id="a_edge19_Node000001_Node000018"><a xlink:title=" ">
<path fill="none" stroke="#63b8ff" d="M2121.47,-229.21C2092.46,-219.52 2056.78,-207.61 2026.94,-197.64"/>
<polygon fill="#63b8ff" stroke="#63b8ff" points="2120.2,-232.47 2130.79,-232.32 2122.41,-225.83 2120.2,-232.47"/>
</a>
</g>
</g>
<!-- Node20 -->
<g id="Node000020" class="node">
<title>Node20</title>
<g id="a_Node000020"><a xlink:href="SchemaMethodEditor_8hpp.html" target="_top" xlink:title=" ">
<polygon fill="white" stroke="#666666" points="2193.62,-113.88 2044.88,-113.88 2044.88,-83.38 2193.62,-83.38 2193.62,-113.88"/>
<text text-anchor="start" x="2052.88" y="-100.38" font-family="Helvetica,sans-Serif" font-size="10.00">sourcecode/dbe/include</text>
<text text-anchor="middle" x="2119.25" y="-89.12" font-family="Helvetica,sans-Serif" font-size="10.00">/dbe/SchemaMethodEditor.hpp</text>
</a>
</g>
</g>
<!-- Node1&#45;&gt;Node20 -->
<g id="edge30_Node000001_Node000020" class="edge">
<title>Node1&#45;&gt;Node20</title>
<g id="a_edge30_Node000001_Node000020"><a xlink:title=" ">
<path fill="none" stroke="#63b8ff" d="M2143.79,-225.65C2134.83,-217.83 2126.21,-208.21 2121.25,-197.25 2108.93,-170.07 2112.61,-134.12 2116.11,-114.31"/>
<polygon fill="#63b8ff" stroke="#63b8ff" points="2141.58,-228.36 2151.56,-231.9 2145.96,-222.91 2141.58,-228.36"/>
</a>
</g>
</g>
<!-- Node21 -->
<g id="Node000021" class="node">
<title>Node21</title>
<g id="a_Node000021"><a xlink:href="SchemaCustomMethodModel_8hpp.html" target="_top" xlink:title=" ">
<polygon fill="white" stroke="#666666" points="1845.25,-191.62 1661.25,-191.62 1661.25,-161.12 1845.25,-161.12 1845.25,-191.62"/>
<text text-anchor="start" x="1669.25" y="-178.12" font-family="Helvetica,sans-Serif" font-size="10.00">sourcecode/dbe/include</text>
<text text-anchor="middle" x="1753.25" y="-166.88" font-family="Helvetica,sans-Serif" font-size="10.00">/dbe/SchemaCustomMethodModel.hpp</text>
</a>
</g>
</g>
<!-- Node1&#45;&gt;Node21 -->
<g id="edge24_Node000001_Node000021" class="edge">
<title>Node1&#45;&gt;Node21</title>
<g id="a_edge24_Node000001_Node000021"><a xlink:title=" ">
<path fill="none" stroke="#63b8ff" d="M2105.1,-237.22C2039.76,-227.59 1940.32,-212.43 1854.25,-197.25 1845.19,-195.65 1835.68,-193.89 1826.28,-192.1"/>
<polygon fill="#63b8ff" stroke="#63b8ff" points="2104.59,-240.68 2114.99,-238.68 2105.61,-233.76 2104.59,-240.68"/>
</a>
</g>
</g>
<!-- Node24 -->
<g id="Node000024" class="node">
<title>Node24</title>
<g id="a_Node000024"><a xlink:href="SchemaMethodImplementationEditor_8hpp.html" target="_top" xlink:title=" ">
<polygon fill="white" stroke="#666666" points="2384.62,-119.5 2211.88,-119.5 2211.88,-77.75 2384.62,-77.75 2384.62,-119.5"/>
<text text-anchor="start" x="2219.88" y="-106" font-family="Helvetica,sans-Serif" font-size="10.00">sourcecode/dbe/include</text>
<text text-anchor="start" x="2219.88" y="-94.75" font-family="Helvetica,sans-Serif" font-size="10.00">/dbe/SchemaMethodImplementation</text>
<text text-anchor="middle" x="2298.25" y="-83.5" font-family="Helvetica,sans-Serif" font-size="10.00">Editor.hpp</text>
</a>
</g>
</g>
<!-- Node1&#45;&gt;Node24 -->
<g id="edge31_Node000001_Node000024" class="edge">
<title>Node1&#45;&gt;Node24</title>
<g id="a_edge31_Node000001_Node000024"><a xlink:title=" ">
<path fill="none" stroke="#63b8ff" d="M2160.55,-223.04C2150.06,-203.3 2140.49,-175.6 2154.25,-155.5 2163.04,-142.67 2193.43,-129.99 2224.04,-119.96"/>
<polygon fill="#63b8ff" stroke="#63b8ff" points="2157.39,-224.57 2165.41,-231.51 2163.47,-221.09 2157.39,-224.57"/>
</a>
</g>
</g>
<!-- Node25 -->
<g id="Node000025" class="node">
<title>Node25</title>
<g id="a_Node000025"><a xlink:href="genconfig_8cxx.html" target="_top" xlink:title=" ">
<polygon fill="white" stroke="#666666" points="2273.5,-191.62 2163,-191.62 2163,-161.12 2273.5,-161.12 2273.5,-191.62"/>
<text text-anchor="start" x="2171" y="-178.12" font-family="Helvetica,sans-Serif" font-size="10.00">sourcecode/genconfig</text>
<text text-anchor="middle" x="2218.25" y="-166.88" font-family="Helvetica,sans-Serif" font-size="10.00">/apps/genconfig.cxx</text>
</a>
</g>
</g>
<!-- Node1&#45;&gt;Node25 -->
<g id="edge35_Node000001_Node000025" class="edge">
<title>Node1&#45;&gt;Node25</title>
<g id="a_edge35_Node000001_Node000025"><a xlink:title=" ">
<path fill="none" stroke="#63b8ff" d="M2190.82,-223.17C2197.07,-212.74 2204.15,-200.91 2209.56,-191.89"/>
<polygon fill="#63b8ff" stroke="#63b8ff" points="2187.87,-221.29 2185.73,-231.67 2193.87,-224.89 2187.87,-221.29"/>
</a>
</g>
</g>
<!-- Node26 -->
<g id="Node000026" class="node">
<title>Node26</title>
<g id="a_Node000026"><a xlink:href="utils_8cpp.html" target="_top" xlink:title=" ">
<polygon fill="white" stroke="#666666" points="2402.5,-191.62 2292,-191.62 2292,-161.12 2402.5,-161.12 2402.5,-191.62"/>
<text text-anchor="start" x="2300" y="-178.12" font-family="Helvetica,sans-Serif" font-size="10.00">sourcecode/genconfig</text>
<text text-anchor="middle" x="2347.25" y="-166.88" font-family="Helvetica,sans-Serif" font-size="10.00">/apps/utils.cpp</text>
</a>
</g>
</g>
<!-- Node1&#45;&gt;Node26 -->
<g id="edge36_Node000001_Node000026" class="edge">
<title>Node1&#45;&gt;Node26</title>
<g id="a_edge36_Node000001_Node000026"><a xlink:title=" ">
<path fill="none" stroke="#63b8ff" d="M2222.44,-228.56C2250.42,-217.08 2285.58,-202.66 2311.45,-192.06"/>
<polygon fill="#63b8ff" stroke="#63b8ff" points="2221.42,-225.19 2213.5,-232.23 2224.08,-231.67 2221.42,-225.19"/>
</a>
</g>
</g>
<!-- Node27 -->
<g id="Node000027" class="node">
<title>Node27</title>
<g id="a_Node000027"><a xlink:href="class_8cpp.html" target="_top" xlink:title=" ">
<polygon fill="white" stroke="#666666" points="2522,-191.62 2420.5,-191.62 2420.5,-161.12 2522,-161.12 2522,-191.62"/>
<text text-anchor="start" x="2428.5" y="-178.12" font-family="Helvetica,sans-Serif" font-size="10.00">sourcecode/oks/src</text>
<text text-anchor="middle" x="2471.25" y="-166.88" font-family="Helvetica,sans-Serif" font-size="10.00">/class.cpp</text>
</a>
</g>
</g>
<!-- Node1&#45;&gt;Node27 -->
<g id="edge37_Node000001_Node000027" class="edge">
<title>Node1&#45;&gt;Node27</title>
<g id="a_edge37_Node000001_Node000027"><a xlink:title=" ">
<path fill="none" stroke="#63b8ff" d="M2247.34,-234.4C2294.2,-225.25 2356.76,-212.05 2411.25,-197.25 2416.97,-195.7 2422.94,-193.91 2428.81,-192.07"/>
<polygon fill="#63b8ff" stroke="#63b8ff" points="2246.72,-230.95 2237.57,-236.29 2248.05,-237.83 2246.72,-230.95"/>
</a>
</g>
</g>
<!-- Node28 -->
<g id="Node000028" class="node">
<title>Node28</title>
<g id="a_Node000028"><a xlink:href="kernel_8cpp.html" target="_top" xlink:title=" ">
<polygon fill="white" stroke="#666666" points="2642,-191.62 2540.5,-191.62 2540.5,-161.12 2642,-161.12 2642,-191.62"/>
<text text-anchor="start" x="2548.5" y="-178.12" font-family="Helvetica,sans-Serif" font-size="10.00">sourcecode/oks/src</text>
<text text-anchor="middle" x="2591.25" y="-166.88" font-family="Helvetica,sans-Serif" font-size="10.00">/kernel.cpp</text>
</a>
</g>
</g>
<!-- Node1&#45;&gt;Node28 -->
<g id="edge38_Node000001_Node000028" class="edge">
<title>Node1&#45;&gt;Node28</title>
<g id="a_edge38_Node000001_Node000028"><a xlink:title=" ">
<path fill="none" stroke="#63b8ff" d="M2247.1,-241.25C2319.26,-234 2434.03,-220.04 2531.25,-197.25 2537.45,-195.8 2543.92,-193.98 2550.21,-192.05"/>
<polygon fill="#63b8ff" stroke="#63b8ff" points="2247.01,-237.74 2237.4,-242.2 2247.7,-244.7 2247.01,-237.74"/>
</a>
</g>
</g>
<!-- Node29 -->
<g id="Node000029" class="node">
<title>Node29</title>
<g id="a_Node000029"><a xlink:href="method_8cpp.html" target="_top" xlink:title=" ">
<polygon fill="white" stroke="#666666" points="2762,-191.62 2660.5,-191.62 2660.5,-161.12 2762,-161.12 2762,-191.62"/>
<text text-anchor="start" x="2668.5" y="-178.12" font-family="Helvetica,sans-Serif" font-size="10.00">sourcecode/oks/src</text>
<text text-anchor="middle" x="2711.25" y="-166.88" font-family="Helvetica,sans-Serif" font-size="10.00">/method.cpp</text>
</a>
</g>
</g>
<!-- Node1&#45;&gt;Node29 -->
<g id="edge39_Node000001_Node000029" class="edge">
<title>Node1&#45;&gt;Node29</title>
<g id="a_edge39_Node000001_Node000029"><a xlink:title=" ">
<path fill="none" stroke="#63b8ff" d="M2247.06,-244.75C2340.54,-240.04 2509.83,-227.78 2651.25,-197.25 2657.69,-195.86 2664.4,-194.03 2670.91,-192.04"/>
<polygon fill="#63b8ff" stroke="#63b8ff" points="2247.1,-241.24 2237.28,-245.22 2247.44,-248.23 2247.1,-241.24"/>
</a>
</g>
</g>
<!-- Node30 -->
<g id="Node000030" class="node">
<title>Node30</title>
<g id="a_Node000030"><a xlink:href="oks__diff__schema_8cxx.html" target="_top" xlink:title=" ">
<polygon fill="white" stroke="#666666" points="2912.75,-191.62 2779.75,-191.62 2779.75,-161.12 2912.75,-161.12 2912.75,-191.62"/>
<text text-anchor="start" x="2787.75" y="-178.12" font-family="Helvetica,sans-Serif" font-size="10.00">sourcecode/oksutils</text>
<text text-anchor="middle" x="2846.25" y="-166.88" font-family="Helvetica,sans-Serif" font-size="10.00">/apps/oks_diff_schema.cxx</text>
</a>
</g>
</g>
<!-- Node1&#45;&gt;Node30 -->
<g id="edge40_Node000001_Node000030" class="edge">
<title>Node1&#45;&gt;Node30</title>
<g id="a_edge40_Node000001_Node000030"><a xlink:title=" ">
<path fill="none" stroke="#63b8ff" d="M2247.28,-245.51C2359.36,-241.47 2583.81,-229.74 2771.25,-197.25 2779.21,-195.87 2787.56,-194.04 2795.68,-192.06"/>
<polygon fill="#63b8ff" stroke="#63b8ff" points="2247.19,-242.01 2237.32,-245.86 2247.43,-249.01 2247.19,-242.01"/>
</a>
</g>
</g>
<!-- Node4 -->
<g id="Node000004" class="node">
<title>Node4</title>
<g id="a_Node000004"><a xlink:href="SchemaCommand_8cpp.html" target="_top" xlink:title=" ">
<polygon fill="white" stroke="#666666" points="351.75,-36.12 170.75,-36.12 170.75,-5.62 351.75,-5.62 351.75,-36.12"/>
<text text-anchor="start" x="178.75" y="-22.62" font-family="Helvetica,sans-Serif" font-size="10.00">sourcecode/dbe/apps</text>
<text text-anchor="middle" x="261.25" y="-11.38" font-family="Helvetica,sans-Serif" font-size="10.00">/SchemaEditor/SchemaCommand.cpp</text>
</a>
</g>
</g>
<!-- Node3&#45;&gt;Node4 -->
<g id="edge3_Node000003_Node000004" class="edge">
<title>Node3&#45;&gt;Node4</title>
<g id="a_edge3_Node000003_Node000004"><a xlink:title=" ">
<path fill="none" stroke="#63b8ff" d="M1136.83,-164.15C985.44,-142.49 645.2,-92.57 360.25,-41.75 351.28,-40.15 341.86,-38.38 332.56,-36.57"/>
<polygon fill="#63b8ff" stroke="#63b8ff" points="1135.95,-167.56 1146.34,-165.51 1136.94,-160.63 1135.95,-167.56"/>
</a>
</g>
</g>
<!-- Node5 -->
<g id="Node000005" class="node">
<title>Node5</title>
<g id="a_Node000005"><a xlink:href="SchemaKernelWrapper_8hpp.html" target="_top" xlink:title=" ">
<polygon fill="white" stroke="#666666" points="1294,-113.88 1138.5,-113.88 1138.5,-83.38 1294,-83.38 1294,-113.88"/>
<text text-anchor="start" x="1146.5" y="-100.38" font-family="Helvetica,sans-Serif" font-size="10.00">sourcecode/dbe/include</text>
<text text-anchor="middle" x="1216.25" y="-89.12" font-family="Helvetica,sans-Serif" font-size="10.00">/dbe/SchemaKernelWrapper.hpp</text>
</a>
</g>
</g>
<!-- Node3&#45;&gt;Node5 -->
<g id="edge4_Node000003_Node000005" class="edge">
<title>Node3&#45;&gt;Node5</title>
<g id="a_edge4_Node000003_Node000005"><a xlink:title=" ">
<path fill="none" stroke="#63b8ff" d="M1216.25,-149.35C1216.25,-137.59 1216.25,-124.13 1216.25,-114.19"/>
<polygon fill="#63b8ff" stroke="#63b8ff" points="1212.75,-149.26 1216.25,-159.26 1219.75,-149.26 1212.75,-149.26"/>
</a>
</g>
</g>
<!-- Node5&#45;&gt;Node2 -->
<g id="edge12_Node000005_Node000002" class="edge">
<title>Node5&#45;&gt;Node2</title>
<g id="a_edge12_Node000005_Node000002"><a xlink:title=" ">
<path fill="none" stroke="#63b8ff" d="M1126.63,-98.2C944.03,-98.2 516.13,-92.23 161.25,-41.75 158.4,-41.34 155.5,-40.89 152.58,-40.4"/>
<polygon fill="#63b8ff" stroke="#63b8ff" points="1126.52,-101.7 1136.52,-98.19 1126.52,-94.7 1126.52,-101.7"/>
</a>
</g>
</g>
<!-- Node5&#45;&gt;Node4 -->
<g id="edge7_Node000005_Node000004" class="edge">
<title>Node5&#45;&gt;Node4</title>
<g id="a_edge7_Node000005_Node000004"><a xlink:title=" ">
<path fill="none" stroke="#63b8ff" d="M1127.06,-92.48C923.15,-80.61 434.69,-51.61 360.25,-41.75 349.91,-40.38 339.03,-38.57 328.42,-36.61"/>
<polygon fill="#63b8ff" stroke="#63b8ff" points="1126.62,-95.96 1136.81,-93.04 1127.03,-88.97 1126.62,-95.96"/>
</a>
</g>
</g>
<!-- Node6 -->
<g id="Node000006" class="node">
<title>Node6</title>
<g id="a_Node000006"><a xlink:href="SchemaAttributeEditor_8cpp.html" target="_top" xlink:title=" ">
<polygon fill="white" stroke="#666666" points="525,-41.75 369.5,-41.75 369.5,0 525,0 525,-41.75"/>
<text text-anchor="start" x="377.5" y="-28.25" font-family="Helvetica,sans-Serif" font-size="10.00">sourcecode/dbe/apps</text>
<text text-anchor="start" x="377.5" y="-17" font-family="Helvetica,sans-Serif" font-size="10.00">/SchemaEditor/SchemaAttribute</text>
<text text-anchor="middle" x="447.25" y="-5.75" font-family="Helvetica,sans-Serif" font-size="10.00">Editor.cpp</text>
</a>
</g>
</g>
<!-- Node5&#45;&gt;Node6 -->
<g id="edge5_Node000005_Node000006" class="edge">
<title>Node5&#45;&gt;Node6</title>
<g id="a_edge5_Node000005_Node000006"><a xlink:title=" ">
<path fill="none" stroke="#63b8ff" d="M1126.97,-94.38C996.23,-88.71 745.3,-74.33 534.25,-41.75 531.34,-41.3 528.38,-40.81 525.4,-40.28"/>
<polygon fill="#63b8ff" stroke="#63b8ff" points="1126.44,-97.86 1136.58,-94.79 1126.74,-90.87 1126.44,-97.86"/>
</a>
</g>
</g>
<!-- Node7 -->
<g id="Node000007" class="node">
<title>Node7</title>
<g id="a_Node000007"><a xlink:href="SchemaClassEditor_8cpp.html" target="_top" xlink:title=" ">
<polygon fill="white" stroke="#666666" points="1943.38,-36.12 1757.12,-36.12 1757.12,-5.62 1943.38,-5.62 1943.38,-36.12"/>
<text text-anchor="start" x="1765.12" y="-22.62" font-family="Helvetica,sans-Serif" font-size="10.00">sourcecode/dbe/apps</text>
<text text-anchor="middle" x="1850.25" y="-11.38" font-family="Helvetica,sans-Serif" font-size="10.00">/SchemaEditor/SchemaClassEditor.cpp</text>
</a>
</g>
</g>
<!-- Node5&#45;&gt;Node7 -->
<g id="edge6_Node000005_Node000007" class="edge">
<title>Node5&#45;&gt;Node7</title>
<g id="a_edge6_Node000005_Node000007"><a xlink:title=" ">
<path fill="none" stroke="#63b8ff" d="M1305.78,-90.64C1411.75,-81.81 1593.39,-64.92 1748.25,-41.75 1758.24,-40.25 1768.74,-38.46 1779.05,-36.58"/>
<polygon fill="#63b8ff" stroke="#63b8ff" points="1305.68,-87.13 1296.01,-91.45 1306.26,-94.11 1305.68,-87.13"/>
</a>
</g>
</g>
<!-- Node8 -->
<g id="Node000008" class="node">
<title>Node8</title>
<g id="a_Node000008"><a xlink:href="SchemaCustomFileModel_8cpp.html" target="_top" xlink:title=" ">
<polygon fill="white" stroke="#666666" points="695.5,-41.75 543,-41.75 543,0 695.5,0 695.5,-41.75"/>
<text text-anchor="start" x="551" y="-28.25" font-family="Helvetica,sans-Serif" font-size="10.00">sourcecode/dbe/apps</text>
<text text-anchor="start" x="551" y="-17" font-family="Helvetica,sans-Serif" font-size="10.00">/SchemaEditor/SchemaCustom</text>
<text text-anchor="middle" x="619.25" y="-5.75" font-family="Helvetica,sans-Serif" font-size="10.00">FileModel.cpp</text>
</a>
</g>
</g>
<!-- Node5&#45;&gt;Node8 -->
<g id="edge8_Node000005_Node000008" class="edge">
<title>Node5&#45;&gt;Node8</title>
<g id="a_edge8_Node000005_Node000008"><a xlink:title=" ">
<path fill="none" stroke="#63b8ff" d="M1127.17,-91.1C1024.86,-82.85 852.18,-66.67 705.25,-41.75 702.08,-41.21 698.85,-40.63 695.59,-40.01"/>
<polygon fill="#63b8ff" stroke="#63b8ff" points="1126.62,-94.56 1136.86,-91.87 1127.17,-87.59 1126.62,-94.56"/>
</a>
</g>
</g>
<!-- Node9 -->
<g id="Node000009" class="node">
<title>Node9</title>
<g id="a_Node000009"><a xlink:href="SchemaCustomModelInterface_8cpp.html" target="_top" xlink:title=" ">
<polygon fill="white" stroke="#666666" points="866.5,-41.75 714,-41.75 714,0 866.5,0 866.5,-41.75"/>
<text text-anchor="start" x="722" y="-28.25" font-family="Helvetica,sans-Serif" font-size="10.00">sourcecode/dbe/apps</text>
<text text-anchor="start" x="722" y="-17" font-family="Helvetica,sans-Serif" font-size="10.00">/SchemaEditor/SchemaCustom</text>
<text text-anchor="middle" x="790.25" y="-5.75" font-family="Helvetica,sans-Serif" font-size="10.00">ModelInterface.cpp</text>
</a>
</g>
</g>
<!-- Node5&#45;&gt;Node9 -->
<g id="edge9_Node000005_Node000009" class="edge">
<title>Node5&#45;&gt;Node9</title>
<g id="a_edge9_Node000005_Node000009"><a xlink:title=" ">
<path fill="none" stroke="#63b8ff" d="M1126.8,-84.53C1058.07,-74.08 960.89,-58.47 876.25,-41.75 873.09,-41.13 869.88,-40.47 866.63,-39.79"/>
<polygon fill="#63b8ff" stroke="#63b8ff" points="1126.1,-87.96 1136.51,-86 1127.15,-81.04 1126.1,-87.96"/>
</a>
</g>
</g>
<!-- Node10 -->
<g id="Node000010" class="node">
<title>Node10</title>
<g id="a_Node000010"><a xlink:href="SchemaCustomTableModel_8cpp.html" target="_top" xlink:title=" ">
<polygon fill="white" stroke="#666666" points="1037.5,-41.75 885,-41.75 885,0 1037.5,0 1037.5,-41.75"/>
<text text-anchor="start" x="893" y="-28.25" font-family="Helvetica,sans-Serif" font-size="10.00">sourcecode/dbe/apps</text>
<text text-anchor="start" x="893" y="-17" font-family="Helvetica,sans-Serif" font-size="10.00">/SchemaEditor/SchemaCustom</text>
<text text-anchor="middle" x="961.25" y="-5.75" font-family="Helvetica,sans-Serif" font-size="10.00">TableModel.cpp</text>
</a>
</g>
</g>
<!-- Node5&#45;&gt;Node10 -->
<g id="edge10_Node000005_Node000010" class="edge">
<title>Node5&#45;&gt;Node10</title>
<g id="a_edge10_Node000005_Node000010"><a xlink:title=" ">
<path fill="none" stroke="#63b8ff" d="M1155.88,-79.69C1117.88,-68.4 1068.77,-53.81 1029.39,-42.12"/>
<polygon fill="#63b8ff" stroke="#63b8ff" points="1154.75,-83.01 1165.33,-82.5 1156.74,-76.3 1154.75,-83.01"/>
</a>
</g>
</g>
<!-- Node11 -->
<g id="Node000011" class="node">
<title>Node11</title>
<g id="a_Node000011"><a xlink:href="SchemaGraphicArrow_8cpp.html" target="_top" xlink:title=" ">
<polygon fill="white" stroke="#666666" points="1208.5,-41.75 1056,-41.75 1056,0 1208.5,0 1208.5,-41.75"/>
<text text-anchor="start" x="1064" y="-28.25" font-family="Helvetica,sans-Serif" font-size="10.00">sourcecode/dbe/apps</text>
<text text-anchor="start" x="1064" y="-17" font-family="Helvetica,sans-Serif" font-size="10.00">/SchemaEditor/SchemaGraphic</text>
<text text-anchor="middle" x="1132.25" y="-5.75" font-family="Helvetica,sans-Serif" font-size="10.00">Arrow.cpp</text>
</a>
</g>
</g>
<!-- Node5&#45;&gt;Node11 -->
<g id="edge11_Node000005_Node000011" class="edge">
<title>Node5&#45;&gt;Node11</title>
<g id="a_edge11_Node000005_Node000011"><a xlink:title=" ">
<path fill="none" stroke="#63b8ff" d="M1191.63,-75.43C1179.97,-64.91 1166.13,-52.43 1154.75,-42.16"/>
<polygon fill="#63b8ff" stroke="#63b8ff" points="1189.16,-77.91 1198.93,-82.01 1193.85,-72.71 1189.16,-77.91"/>
</a>
</g>
</g>
<!-- Node12 -->
<g id="Node000012" class="node">
<title>Node12</title>
<g id="a_Node000012"><a xlink:href="SchemaGraphicsScene_8cpp.html" target="_top" xlink:title=" ">
<polygon fill="white" stroke="#666666" points="1739.12,-41.75 1581.38,-41.75 1581.38,0 1739.12,0 1739.12,-41.75"/>
<text text-anchor="start" x="1589.38" y="-28.25" font-family="Helvetica,sans-Serif" font-size="10.00">sourcecode/dbe/apps</text>
<text text-anchor="start" x="1589.38" y="-17" font-family="Helvetica,sans-Serif" font-size="10.00">/SchemaEditor/SchemaGraphics</text>
<text text-anchor="middle" x="1660.25" y="-5.75" font-family="Helvetica,sans-Serif" font-size="10.00">Scene.cpp</text>
</a>
</g>
</g>
<!-- Node5&#45;&gt;Node12 -->
<g id="edge13_Node000005_Node000012" class="edge">
<title>Node5&#45;&gt;Node12</title>
<g id="a_edge13_Node000005_Node000012"><a xlink:title=" ">
<path fill="none" stroke="#63b8ff" d="M1305.59,-85.28C1377.76,-74.91 1481.84,-59.03 1572.25,-41.75 1575.17,-41.19 1578.15,-40.61 1581.15,-40"/>
<polygon fill="#63b8ff" stroke="#63b8ff" points="1305.19,-81.8 1295.79,-86.68 1306.18,-88.73 1305.19,-81.8"/>
</a>
</g>
</g>
<!-- Node13 -->
<g id="Node000013" class="node">
<title>Node13</title>
<g id="a_Node000013"><a xlink:href="SchemaKernelWrapper_8cpp.html" target="_top" xlink:title=" ">
<polygon fill="white" stroke="#666666" points="1373.5,-41.75 1227,-41.75 1227,0 1373.5,0 1373.5,-41.75"/>
<text text-anchor="start" x="1235" y="-28.25" font-family="Helvetica,sans-Serif" font-size="10.00">sourcecode/dbe/apps</text>
<text text-anchor="start" x="1235" y="-17" font-family="Helvetica,sans-Serif" font-size="10.00">/SchemaEditor/SchemaKernel</text>
<text text-anchor="middle" x="1300.25" y="-5.75" font-family="Helvetica,sans-Serif" font-size="10.00">Wrapper.cpp</text>
</a>
</g>
</g>
<!-- Node5&#45;&gt;Node13 -->
<g id="edge14_Node000005_Node000013" class="edge">
<title>Node5&#45;&gt;Node13</title>
<g id="a_edge14_Node000005_Node000013"><a xlink:title=" ">
<path fill="none" stroke="#63b8ff" d="M1240.87,-75.43C1252.53,-64.91 1266.37,-52.43 1277.75,-42.16"/>
<polygon fill="#63b8ff" stroke="#63b8ff" points="1238.65,-72.71 1233.57,-82.01 1243.34,-77.91 1238.65,-72.71"/>
</a>
</g>
</g>
<!-- Node14 -->
<g id="Node000014" class="node">
<title>Node14</title>
<g id="a_Node000014"><a xlink:href="SchemaMainWindow_8cpp.html" target="_top" xlink:title=" ">
<polygon fill="white" stroke="#666666" points="2153.38,-36.12 1961.12,-36.12 1961.12,-5.62 2153.38,-5.62 2153.38,-36.12"/>
<text text-anchor="start" x="1969.12" y="-22.62" font-family="Helvetica,sans-Serif" font-size="10.00">sourcecode/dbe/apps</text>
<text text-anchor="middle" x="2057.25" y="-11.38" font-family="Helvetica,sans-Serif" font-size="10.00">/SchemaEditor/SchemaMainWindow.cpp</text>
</a>
</g>
</g>
<!-- Node5&#45;&gt;Node14 -->
<g id="edge15_Node000005_Node000014" class="edge">
<title>Node5&#45;&gt;Node14</title>
<g id="a_edge15_Node000005_Node000014"><a xlink:title=" ">
<path fill="none" stroke="#63b8ff" d="M1305.59,-92.09C1473.35,-81.5 1829.62,-57.96 1952.25,-41.75 1962.92,-40.34 1974.14,-38.55 1985.12,-36.62"/>
<polygon fill="#63b8ff" stroke="#63b8ff" points="1305.6,-88.59 1295.84,-92.71 1306.04,-95.57 1305.6,-88.59"/>
</a>
</g>
</g>
<!-- Node15 -->
<g id="Node000015" class="node">
<title>Node15</title>
<g id="a_Node000015"><a xlink:href="SchemaMethodEditor_8cpp.html" target="_top" xlink:title=" ">
<polygon fill="white" stroke="#666666" points="2322.75,-41.75 2171.75,-41.75 2171.75,0 2322.75,0 2322.75,-41.75"/>
<text text-anchor="start" x="2179.75" y="-28.25" font-family="Helvetica,sans-Serif" font-size="10.00">sourcecode/dbe/apps</text>
<text text-anchor="start" x="2179.75" y="-17" font-family="Helvetica,sans-Serif" font-size="10.00">/SchemaEditor/SchemaMethod</text>
<text text-anchor="middle" x="2247.25" y="-5.75" font-family="Helvetica,sans-Serif" font-size="10.00">Editor.cpp</text>
</a>
</g>
</g>
<!-- Node5&#45;&gt;Node15 -->
<g id="edge16_Node000005_Node000015" class="edge">
<title>Node5&#45;&gt;Node15</title>
<g id="a_edge16_Node000005_Node000015"><a xlink:title=" ">
<path fill="none" stroke="#63b8ff" d="M1305.83,-91.75C1368.19,-87.71 1453.27,-82.27 1528.25,-77.75 1809.97,-60.78 1882.91,-82.03 2162.25,-41.75 2165.25,-41.32 2168.3,-40.83 2171.37,-40.3"/>
<polygon fill="#63b8ff" stroke="#63b8ff" points="1305.72,-88.25 1295.97,-92.4 1306.17,-95.24 1305.72,-88.25"/>
</a>
</g>
</g>
<!-- Node16 -->
<g id="Node000016" class="node">
<title>Node16</title>
<g id="a_Node000016"><a xlink:href="SchemaMethodImplementationEditor_8cpp.html" target="_top" xlink:title=" ">
<polygon fill="white" stroke="#666666" points="2491.75,-41.75 2340.75,-41.75 2340.75,0 2491.75,0 2491.75,-41.75"/>
<text text-anchor="start" x="2348.75" y="-28.25" font-family="Helvetica,sans-Serif" font-size="10.00">sourcecode/dbe/apps</text>
<text text-anchor="start" x="2348.75" y="-17" font-family="Helvetica,sans-Serif" font-size="10.00">/SchemaEditor/SchemaMethod</text>
<text text-anchor="middle" x="2416.25" y="-5.75" font-family="Helvetica,sans-Serif" font-size="10.00">ImplementationEditor.cpp</text>
</a>
</g>
</g>
<!-- Node5&#45;&gt;Node16 -->
<g id="edge17_Node000005_Node000016" class="edge">
<title>Node5&#45;&gt;Node16</title>
<g id="a_edge17_Node000005_Node000016"><a xlink:title=" ">
<path fill="none" stroke="#63b8ff" d="M1305.81,-91.47C1368.16,-87.3 1453.25,-81.82 1528.25,-77.75 1885.42,-58.38 1977.99,-91.15 2332.25,-41.75 2334.92,-41.38 2337.63,-40.96 2340.36,-40.5"/>
<polygon fill="#63b8ff" stroke="#63b8ff" points="1305.69,-87.97 1295.95,-92.13 1306.16,-94.95 1305.69,-87.97"/>
</a>
</g>
</g>
<!-- Node17 -->
<g id="Node000017" class="node">
<title>Node17</title>
<g id="a_Node000017"><a xlink:href="SchemaRelationshipEditor_8cpp.html" target="_top" xlink:title=" ">
<polygon fill="white" stroke="#666666" points="1563.25,-41.75 1391.25,-41.75 1391.25,0 1563.25,0 1563.25,-41.75"/>
<text text-anchor="start" x="1399.25" y="-28.25" font-family="Helvetica,sans-Serif" font-size="10.00">sourcecode/dbe/apps</text>
<text text-anchor="start" x="1399.25" y="-17" font-family="Helvetica,sans-Serif" font-size="10.00">/SchemaEditor/SchemaRelationship</text>
<text text-anchor="middle" x="1477.25" y="-5.75" font-family="Helvetica,sans-Serif" font-size="10.00">Editor.cpp</text>
</a>
</g>
</g>
<!-- Node5&#45;&gt;Node17 -->
<g id="edge18_Node000005_Node000017" class="edge">
<title>Node5&#45;&gt;Node17</title>
<g id="a_edge18_Node000005_Node000017"><a xlink:title=" ">
<path fill="none" stroke="#63b8ff" d="M1277.79,-79.76C1316.71,-68.47 1367.11,-53.84 1407.51,-42.12"/>
<polygon fill="#63b8ff" stroke="#63b8ff" points="1276.96,-76.36 1268.34,-82.51 1278.92,-83.08 1276.96,-76.36"/>
</a>
</g>
</g>
<!-- Node19 -->
<g id="Node000019" class="node">
<title>Node19</title>
<g id="a_Node000019"><a xlink:href="SchemaCustomMethodImplementationModel_8cpp.html" target="_top" xlink:title=" ">
<polygon fill="white" stroke="#666666" points="2026.88,-119.5 1867.62,-119.5 1867.62,-77.75 2026.88,-77.75 2026.88,-119.5"/>
<text text-anchor="start" x="1875.62" y="-106" font-family="Helvetica,sans-Serif" font-size="10.00">sourcecode/dbe/apps</text>
<text text-anchor="start" x="1875.62" y="-94.75" font-family="Helvetica,sans-Serif" font-size="10.00">/SchemaEditor/SchemaCustom</text>
<text text-anchor="middle" x="1947.25" y="-83.5" font-family="Helvetica,sans-Serif" font-size="10.00">MethodImplementationModel.cpp</text>
</a>
</g>
</g>
<!-- Node18&#45;&gt;Node19 -->
<g id="edge20_Node000018_Node000019" class="edge">
<title>Node18&#45;&gt;Node19</title>
<g id="a_edge20_Node000018_Node000019"><a xlink:title=" ">
<path fill="none" stroke="#63b8ff" d="M1958.39,-144.03C1956.35,-135.91 1954.21,-127.37 1952.36,-119.98"/>
<polygon fill="#63b8ff" stroke="#63b8ff" points="1954.96,-144.76 1960.79,-153.61 1961.75,-143.06 1954.96,-144.76"/>
</a>
</g>
</g>
<!-- Node18&#45;&gt;Node20 -->
<g id="edge21_Node000018_Node000020" class="edge">
<title>Node18&#45;&gt;Node20</title>
<g id="a_edge21_Node000018_Node000020"><a xlink:title=" ">
<path fill="none" stroke="#63b8ff" d="M2017.31,-150.1C2041.39,-138.17 2069.27,-124.37 2089.78,-114.21"/>
<polygon fill="#63b8ff" stroke="#63b8ff" points="2016.02,-146.83 2008.61,-154.4 2019.12,-153.1 2016.02,-146.83"/>
</a>
</g>
</g>
<!-- Node20&#45;&gt;Node7 -->
<g id="edge22_Node000020_Node000007" class="edge">
<title>Node20&#45;&gt;Node7</title>
<g id="a_edge22_Node000020_Node000007"><a xlink:title=" ">
<path fill="none" stroke="#63b8ff" d="M2056.14,-79.85C2009.31,-66.67 1946.24,-48.9 1902.29,-36.53"/>
<polygon fill="#63b8ff" stroke="#63b8ff" points="2055.03,-83.18 2065.61,-82.52 2056.93,-76.44 2055.03,-83.18"/>
</a>
</g>
</g>
<!-- Node20&#45;&gt;Node15 -->
<g id="edge23_Node000020_Node000015" class="edge">
<title>Node20&#45;&gt;Node15</title>
<g id="a_edge23_Node000020_Node000015"><a xlink:title=" ">
<path fill="none" stroke="#63b8ff" d="M2153.66,-77.26C2172.04,-66.38 2194.61,-53.03 2212.97,-42.16"/>
<polygon fill="#63b8ff" stroke="#63b8ff" points="2152.06,-74.14 2145.23,-82.25 2155.62,-80.17 2152.06,-74.14"/>
</a>
</g>
</g>
<!-- Node22 -->
<g id="Node000022" class="node">
<title>Node22</title>
<g id="a_Node000022"><a xlink:href="SchemaCustomMethodModel_8cpp.html" target="_top" xlink:title=" ">
<polygon fill="white" stroke="#666666" points="1849.5,-119.5 1697,-119.5 1697,-77.75 1849.5,-77.75 1849.5,-119.5"/>
<text text-anchor="start" x="1705" y="-106" font-family="Helvetica,sans-Serif" font-size="10.00">sourcecode/dbe/apps</text>
<text text-anchor="start" x="1705" y="-94.75" font-family="Helvetica,sans-Serif" font-size="10.00">/SchemaEditor/SchemaCustom</text>
<text text-anchor="middle" x="1773.25" y="-83.5" font-family="Helvetica,sans-Serif" font-size="10.00">MethodModel.cpp</text>
</a>
</g>
</g>
<!-- Node21&#45;&gt;Node22 -->
<g id="edge25_Node000021_Node000022" class="edge">
<title>Node21&#45;&gt;Node22</title>
<g id="a_edge25_Node000021_Node000022"><a xlink:title=" ">
<path fill="none" stroke="#63b8ff" d="M1760.03,-149.71C1762.59,-139.99 1765.48,-129.07 1767.89,-119.91"/>
<polygon fill="#63b8ff" stroke="#63b8ff" points="1756.66,-148.74 1757.49,-159.31 1763.43,-150.53 1756.66,-148.74"/>
</a>
</g>
</g>
<!-- Node23 -->
<g id="Node000023" class="node">
<title>Node23</title>
<g id="a_Node000023"><a xlink:href="SchemaClassEditor_8hpp.html" target="_top" xlink:title=" ">
<polygon fill="white" stroke="#666666" points="1678.88,-113.88 1537.62,-113.88 1537.62,-83.38 1678.88,-83.38 1678.88,-113.88"/>
<text text-anchor="start" x="1545.62" y="-100.38" font-family="Helvetica,sans-Serif" font-size="10.00">sourcecode/dbe/include</text>
<text text-anchor="middle" x="1608.25" y="-89.12" font-family="Helvetica,sans-Serif" font-size="10.00">/dbe/SchemaClassEditor.hpp</text>
</a>
</g>
</g>
<!-- Node21&#45;&gt;Node23 -->
<g id="edge26_Node000021_Node000023" class="edge">
<title>Node21&#45;&gt;Node23</title>
<g id="a_edge26_Node000021_Node000023"><a xlink:title=" ">
<path fill="none" stroke="#63b8ff" d="M1715.14,-155.47C1690.35,-142.51 1658.56,-125.91 1636.12,-114.19"/>
<polygon fill="#63b8ff" stroke="#63b8ff" points="1713.47,-158.54 1723.95,-160.07 1716.71,-152.34 1713.47,-158.54"/>
</a>
</g>
</g>
<!-- Node23&#45;&gt;Node7 -->
<g id="edge27_Node000023_Node000007" class="edge">
<title>Node23&#45;&gt;Node7</title>
<g id="a_edge27_Node000023_Node000007"><a xlink:title=" ">
<path fill="none" stroke="#63b8ff" d="M1666.1,-79.52C1708.11,-66.37 1764.23,-48.8 1803.43,-36.53"/>
<polygon fill="#63b8ff" stroke="#63b8ff" points="1665.14,-76.15 1656.64,-82.48 1667.23,-82.83 1665.14,-76.15"/>
</a>
</g>
</g>
<!-- Node23&#45;&gt;Node12 -->
<g id="edge28_Node000023_Node000012" class="edge">
<title>Node23&#45;&gt;Node12</title>
<g id="a_edge28_Node000023_Node000012"><a xlink:title=" ">
<path fill="none" stroke="#63b8ff" d="M1624.78,-73.55C1631.71,-63.45 1639.69,-51.82 1646.32,-42.16"/>
<polygon fill="#63b8ff" stroke="#63b8ff" points="1621.91,-71.55 1619.13,-81.77 1627.68,-75.51 1621.91,-71.55"/>
</a>
</g>
</g>
<!-- Node23&#45;&gt;Node14 -->
<g id="edge29_Node000023_Node000014" class="edge">
<title>Node23&#45;&gt;Node14</title>
<g id="a_edge29_Node000023_Node000014"><a xlink:title=" ">
<path fill="none" stroke="#63b8ff" d="M1675.08,-80.46C1679.53,-79.49 1683.95,-78.58 1688.25,-77.75 1804.55,-55.44 1835.37,-60.77 1952.25,-41.75 1961.86,-40.19 1971.95,-38.43 1981.91,-36.62"/>
<polygon fill="#63b8ff" stroke="#63b8ff" points="1674.49,-77 1665.51,-82.62 1676.03,-83.83 1674.49,-77"/>
</a>
</g>
</g>
<!-- Node24&#45;&gt;Node14 -->
<g id="edge32_Node000024_Node000014" class="edge">
<title>Node24&#45;&gt;Node14</title>
<g id="a_edge32_Node000024_Node000014"><a xlink:title=" ">
<path fill="none" stroke="#63b8ff" d="M2222.91,-73.94C2184.01,-61.72 2137.77,-47.18 2104.05,-36.58"/>
<polygon fill="#63b8ff" stroke="#63b8ff" points="2221.63,-77.21 2232.22,-76.87 2223.73,-70.53 2221.63,-77.21"/>
</a>
</g>
</g>
<!-- Node24&#45;&gt;Node15 -->
<g id="edge33_Node000024_Node000015" class="edge">
<title>Node24&#45;&gt;Node15</title>
<g id="a_edge33_Node000024_Node000015"><a xlink:title=" ">
<path fill="none" stroke="#63b8ff" d="M2278.27,-67.95C2272.47,-59.34 2266.28,-50.13 2260.95,-42.23"/>
<polygon fill="#63b8ff" stroke="#63b8ff" points="2275.25,-69.73 2283.74,-76.07 2281.06,-65.82 2275.25,-69.73"/>
</a>
</g>
</g>
<!-- Node24&#45;&gt;Node16 -->
<g id="edge34_Node000024_Node000016" class="edge">
<title>Node24&#45;&gt;Node16</title>
<g id="a_edge34_Node000024_Node000016"><a xlink:title=" ">
<path fill="none" stroke="#63b8ff" d="M2339.33,-71.26C2354.15,-61.74 2370.64,-51.15 2384.54,-42.23"/>
<polygon fill="#63b8ff" stroke="#63b8ff" points="2337.67,-68.16 2331.15,-76.51 2341.45,-74.05 2337.67,-68.16"/>
</a>
</g>
</g>
</g>
</svg>
