<?xml version="1.0" encoding="UTF-8" standalone="no"?>
<!DOCTYPE svg PUBLIC "-//W3C//DTD SVG 1.1//EN"
 "http://www.w3.org/Graphics/SVG/1.1/DTD/svg11.dtd">
<!-- Generated by graphviz version 9.0.0 (20230911.1827)
 -->
<!-- Title: sourcecode/dbe/include/dbe/model_common_interface_macros.hpp Pages: 1 -->
<svg width="1363pt" height="460pt"
 viewBox="0.00 0.00 1362.75 460.00" xmlns="http://www.w3.org/2000/svg" xmlns:xlink="http://www.w3.org/1999/xlink">
<g id="graph0" class="graph" transform="scale(1 1) rotate(0) translate(4 456)">
<title>sourcecode/dbe/include/dbe/model_common_interface_macros.hpp</title>
<!-- Node1 -->
<g id="Node000001" class="node">
<title>Node1</title>
<g id="a_Node000001"><a xlink:title=" ">
<polygon fill="#999999" stroke="#666666" points="762.62,-452 613.12,-452 613.12,-410.25 762.62,-410.25 762.62,-452"/>
<text text-anchor="start" x="621.12" y="-438.5" font-family="Helvetica,sans-Serif" font-size="10.00">sourcecode/dbe/include</text>
<text text-anchor="start" x="621.12" y="-427.25" font-family="Helvetica,sans-Serif" font-size="10.00">/dbe/model_common_interface</text>
<text text-anchor="middle" x="687.88" y="-416" font-family="Helvetica,sans-Serif" font-size="10.00">_macros.hpp</text>
</a>
</g>
</g>
<!-- Node2 -->
<g id="Node000002" class="node">
<title>Node2</title>
<g id="a_Node000002"><a xlink:href="model__common__interface_8hpp.html" target="_top" xlink:title=" ">
<polygon fill="white" stroke="#666666" points="771.62,-374.25 604.12,-374.25 604.12,-343.75 771.62,-343.75 771.62,-374.25"/>
<text text-anchor="start" x="612.12" y="-360.75" font-family="Helvetica,sans-Serif" font-size="10.00">sourcecode/dbe/include</text>
<text text-anchor="middle" x="687.88" y="-349.5" font-family="Helvetica,sans-Serif" font-size="10.00">/dbe/model_common_interface.hpp</text>
</a>
</g>
</g>
<!-- Node1&#45;&gt;Node2 -->
<g id="edge1_Node000001_Node000002" class="edge">
<title>Node1&#45;&gt;Node2</title>
<g id="a_edge1_Node000001_Node000002"><a xlink:title=" ">
<path fill="none" stroke="#63b8ff" d="M681.15,-398.38C681.02,-390.02 681.4,-381.4 682.29,-374.45"/>
<polygon fill="#63b8ff" stroke="#63b8ff" points="677.65,-398.5 681.62,-408.33 684.65,-398.18 677.65,-398.5"/>
</a>
</g>
</g>
<!-- Node2&#45;&gt;Node1 -->
<g id="edge2_Node000002_Node000001" class="edge">
<title>Node2&#45;&gt;Node1</title>
<g id="a_edge2_Node000002_Node000001"><a xlink:title=" ">
<path fill="none" stroke="#63b8ff" d="M694.41,-385.75C694.79,-393.69 694.67,-402.32 694.06,-409.84"/>
<polygon fill="#63b8ff" stroke="#63b8ff" points="697.91,-385.63 693.58,-375.96 690.94,-386.22 697.91,-385.63"/>
</a>
</g>
</g>
<!-- Node3 -->
<g id="Node000003" class="node">
<title>Node3</title>
<g id="a_Node000003"><a xlink:href="model__common__operations_8hpp.html" target="_top" xlink:title=" ">
<polygon fill="white" stroke="#666666" points="478.38,-302.12 303.38,-302.12 303.38,-271.62 478.38,-271.62 478.38,-302.12"/>
<text text-anchor="start" x="311.38" y="-288.62" font-family="Helvetica,sans-Serif" font-size="10.00">sourcecode/dbe/include</text>
<text text-anchor="middle" x="390.88" y="-277.38" font-family="Helvetica,sans-Serif" font-size="10.00">/dbe/model_common_operations.hpp</text>
</a>
</g>
</g>
<!-- Node2&#45;&gt;Node3 -->
<g id="edge3_Node000002_Node000003" class="edge">
<title>Node2&#45;&gt;Node3</title>
<g id="a_edge3_Node000002_Node000003"><a xlink:title=" ">
<path fill="none" stroke="#63b8ff" d="M609.04,-340.78C558.16,-329.06 493.23,-313.7 447.44,-302.56"/>
<polygon fill="#63b8ff" stroke="#63b8ff" points="607.99,-344.13 618.52,-342.96 609.56,-337.31 607.99,-344.13"/>
</a>
</g>
</g>
<!-- Node4 -->
<g id="Node000004" class="node">
<title>Node4</title>
<g id="a_Node000004"><a xlink:href="subtreeproxy_8hpp.html" target="_top" xlink:title=" ">
<polygon fill="white" stroke="#666666" points="815.25,-163.5 696.5,-163.5 696.5,-133 815.25,-133 815.25,-163.5"/>
<text text-anchor="start" x="704.5" y="-150" font-family="Helvetica,sans-Serif" font-size="10.00">sourcecode/dbe/include</text>
<text text-anchor="middle" x="755.88" y="-138.75" font-family="Helvetica,sans-Serif" font-size="10.00">/dbe/subtreeproxy.hpp</text>
</a>
</g>
</g>
<!-- Node2&#45;&gt;Node4 -->
<g id="edge5_Node000002_Node000004" class="edge">
<title>Node2&#45;&gt;Node4</title>
<g id="a_edge5_Node000002_Node000004"><a xlink:title=" ">
<path fill="none" stroke="#63b8ff" d="M693.2,-332.33C700.16,-300.57 713.54,-245.11 730.88,-199.5 735.58,-187.11 742.35,-173.71 747.65,-163.86"/>
<polygon fill="#63b8ff" stroke="#63b8ff" points="689.85,-331.28 691.17,-341.79 696.69,-332.75 689.85,-331.28"/>
</a>
</g>
</g>
<!-- Node17 -->
<g id="Node000017" class="node">
<title>Node17</title>
<g id="a_Node000017"><a xlink:href="table_8hpp.html" target="_top" xlink:title=" ">
<polygon fill="white" stroke="#666666" points="615.25,-302.12 496.5,-302.12 496.5,-271.62 615.25,-271.62 615.25,-302.12"/>
<text text-anchor="start" x="504.5" y="-288.62" font-family="Helvetica,sans-Serif" font-size="10.00">sourcecode/dbe/include</text>
<text text-anchor="middle" x="555.88" y="-277.38" font-family="Helvetica,sans-Serif" font-size="10.00">/dbe/table.hpp</text>
</a>
</g>
</g>
<!-- Node2&#45;&gt;Node17 -->
<g id="edge19_Node000002_Node000017" class="edge">
<title>Node2&#45;&gt;Node17</title>
<g id="a_edge19_Node000002_Node000017"><a xlink:title=" ">
<path fill="none" stroke="#63b8ff" d="M650.21,-337.99C628.95,-326.7 602.86,-312.84 583.51,-302.56"/>
<polygon fill="#63b8ff" stroke="#63b8ff" points="648.39,-340.99 658.87,-342.59 651.68,-334.81 648.39,-340.99"/>
</a>
</g>
</g>
<!-- Node20 -->
<g id="Node000020" class="node">
<title>Node20</title>
<g id="a_Node000020"><a xlink:href="tableselection_8hpp.html" target="_top" xlink:title=" ">
<polygon fill="white" stroke="#666666" points="606.25,-230 487.5,-230 487.5,-199.5 606.25,-199.5 606.25,-230"/>
<text text-anchor="start" x="495.5" y="-216.5" font-family="Helvetica,sans-Serif" font-size="10.00">sourcecode/dbe/include</text>
<text text-anchor="middle" x="546.88" y="-205.25" font-family="Helvetica,sans-Serif" font-size="10.00">/dbe/tableselection.hpp</text>
</a>
</g>
</g>
<!-- Node2&#45;&gt;Node20 -->
<g id="edge34_Node000002_Node000020" class="edge">
<title>Node2&#45;&gt;Node20</title>
<g id="a_edge34_Node000002_Node000020"><a xlink:title=" ">
<path fill="none" stroke="#63b8ff" d="M674.43,-333.54C662.78,-313.8 644.58,-286.1 623.88,-266 609.33,-251.88 590.27,-239.4 574.75,-230.41"/>
<polygon fill="#63b8ff" stroke="#63b8ff" points="671.27,-335.08 679.29,-342.01 677.34,-331.59 671.27,-335.08"/>
</a>
</g>
</g>
<!-- Node24 -->
<g id="Node000024" class="node">
<title>Node24</title>
<g id="a_Node000024"><a xlink:href="tree_8hpp.html" target="_top" xlink:title=" ">
<polygon fill="white" stroke="#666666" points="952.25,-163.5 833.5,-163.5 833.5,-133 952.25,-133 952.25,-163.5"/>
<text text-anchor="start" x="841.5" y="-150" font-family="Helvetica,sans-Serif" font-size="10.00">sourcecode/dbe/include</text>
<text text-anchor="middle" x="892.88" y="-138.75" font-family="Helvetica,sans-Serif" font-size="10.00">/dbe/tree.hpp</text>
</a>
</g>
</g>
<!-- Node2&#45;&gt;Node24 -->
<g id="edge35_Node000002_Node000024" class="edge">
<title>Node2&#45;&gt;Node24</title>
<g id="a_edge35_Node000002_Node000024"><a xlink:title=" ">
<path fill="none" stroke="#63b8ff" d="M703.67,-333.71C708.74,-325.58 714.24,-316.39 718.88,-307.75 743.94,-261.06 730.52,-236.07 768.88,-199.5 786.61,-182.59 810.79,-171.08 833.09,-163.4"/>
<polygon fill="#63b8ff" stroke="#63b8ff" points="700.79,-331.73 698.39,-342.05 706.7,-335.47 700.79,-331.73"/>
</a>
</g>
</g>
<!-- Node27 -->
<g id="Node000027" class="node">
<title>Node27</title>
<g id="a_Node000027"><a xlink:href="treeselection_8hpp.html" target="_top" xlink:title=" ">
<polygon fill="white" stroke="#666666" points="1089.25,-163.5 970.5,-163.5 970.5,-133 1089.25,-133 1089.25,-163.5"/>
<text text-anchor="start" x="978.5" y="-150" font-family="Helvetica,sans-Serif" font-size="10.00">sourcecode/dbe/include</text>
<text text-anchor="middle" x="1029.88" y="-138.75" font-family="Helvetica,sans-Serif" font-size="10.00">/dbe/treeselection.hpp</text>
</a>
</g>
</g>
<!-- Node2&#45;&gt;Node27 -->
<g id="edge41_Node000002_Node000027" class="edge">
<title>Node2&#45;&gt;Node27</title>
<g id="a_edge41_Node000002_Node000027"><a xlink:title=" ">
<path fill="none" stroke="#63b8ff" d="M712.19,-335.91C734.53,-316.22 769.07,-287.31 801.88,-266 867.51,-223.36 950.66,-184.17 996.22,-163.84"/>
<polygon fill="#63b8ff" stroke="#63b8ff" points="709.96,-333.21 704.81,-342.47 714.61,-338.44 709.96,-333.21"/>
</a>
</g>
</g>
<!-- Node28 -->
<g id="Node000028" class="node">
<title>Node28</title>
<g id="a_Node000028"><a xlink:href="model__common__interface_8cpp.html" target="_top" xlink:title=" ">
<polygon fill="white" stroke="#666666" points="940.5,-307.75 811.25,-307.75 811.25,-266 940.5,-266 940.5,-307.75"/>
<text text-anchor="start" x="819.25" y="-294.25" font-family="Helvetica,sans-Serif" font-size="10.00">sourcecode/dbe/src</text>
<text text-anchor="start" x="819.25" y="-283" font-family="Helvetica,sans-Serif" font-size="10.00">/structure/model_common</text>
<text text-anchor="middle" x="875.88" y="-271.75" font-family="Helvetica,sans-Serif" font-size="10.00">_interface.cpp</text>
</a>
</g>
</g>
<!-- Node2&#45;&gt;Node28 -->
<g id="edge45_Node000002_Node000028" class="edge">
<title>Node2&#45;&gt;Node28</title>
<g id="a_edge45_Node000002_Node000028"><a xlink:title=" ">
<path fill="none" stroke="#63b8ff" d="M737.95,-339.32C763.73,-329.71 795.18,-317.97 821.54,-308.14"/>
<polygon fill="#63b8ff" stroke="#63b8ff" points="736.85,-336 728.7,-342.77 739.3,-342.55 736.85,-336"/>
</a>
</g>
</g>
<!-- Node3&#45;&gt;Node2 -->
<g id="edge4_Node000003_Node000002" class="edge">
<title>Node3&#45;&gt;Node2</title>
<g id="a_edge4_Node000003_Node000002"><a xlink:title=" ">
<path fill="none" stroke="#63b8ff" d="M469.88,-305.13C520.7,-316.85 585.49,-332.17 631.23,-343.3"/>
<polygon fill="#63b8ff" stroke="#63b8ff" points="470.93,-301.79 460.4,-302.96 469.37,-308.61 470.93,-301.79"/>
</a>
</g>
</g>
<!-- Node5 -->
<g id="Node000005" class="node">
<title>Node5</title>
<g id="a_Node000005"><a xlink:href="MainWindow_8hpp.html" target="_top" xlink:title=" ">
<polygon fill="white" stroke="#666666" points="723.25,-97 604.5,-97 604.5,-66.5 723.25,-66.5 723.25,-97"/>
<text text-anchor="start" x="612.5" y="-83.5" font-family="Helvetica,sans-Serif" font-size="10.00">sourcecode/dbe/include</text>
<text text-anchor="middle" x="663.88" y="-72.25" font-family="Helvetica,sans-Serif" font-size="10.00">/dbe/MainWindow.hpp</text>
</a>
</g>
</g>
<!-- Node4&#45;&gt;Node5 -->
<g id="edge6_Node000004_Node000005" class="edge">
<title>Node4&#45;&gt;Node5</title>
<g id="a_edge6_Node000004_Node000005"><a xlink:title=" ">
<path fill="none" stroke="#63b8ff" d="M725.66,-126.07C712.24,-116.66 696.77,-105.81 684.67,-97.33"/>
<polygon fill="#63b8ff" stroke="#63b8ff" points="723.56,-128.87 733.76,-131.75 727.58,-123.14 723.56,-128.87"/>
</a>
</g>
</g>
<!-- Node9 -->
<g id="Node000009" class="node">
<title>Node9</title>
<g id="a_Node000009"><a xlink:href="MainWindow_8cpp.html" target="_top" xlink:title=" ">
<polygon fill="white" stroke="#666666" points="1327.38,-30.5 1200.38,-30.5 1200.38,0 1327.38,0 1327.38,-30.5"/>
<text text-anchor="start" x="1208.38" y="-17" font-family="Helvetica,sans-Serif" font-size="10.00">sourcecode/dbe/src</text>
<text text-anchor="middle" x="1263.88" y="-5.75" font-family="Helvetica,sans-Serif" font-size="10.00">/internal/MainWindow.cpp</text>
</a>
</g>
</g>
<!-- Node4&#45;&gt;Node9 -->
<g id="edge16_Node000004_Node000009" class="edge">
<title>Node4&#45;&gt;Node9</title>
<g id="a_edge16_Node000004_Node000009"><a xlink:title=" ">
<path fill="none" stroke="#63b8ff" d="M753.22,-121.27C752.93,-103.21 755.95,-80.02 770.88,-66.5 805.58,-35.05 1144.49,-37 1190.88,-30.5 1193.94,-30.07 1197.08,-29.6 1200.24,-29.09"/>
<polygon fill="#63b8ff" stroke="#63b8ff" points="749.71,-121.2 753.74,-131 756.7,-120.83 749.71,-121.2"/>
</a>
</g>
</g>
<!-- Node15 -->
<g id="Node000015" class="node">
<title>Node15</title>
<g id="a_Node000015"><a xlink:href="CustomTreeView_8cpp.html" target="_top" xlink:title=" ">
<polygon fill="white" stroke="#666666" points="1083.5,-97 930.25,-97 930.25,-66.5 1083.5,-66.5 1083.5,-97"/>
<text text-anchor="start" x="938.25" y="-83.5" font-family="Helvetica,sans-Serif" font-size="10.00">sourcecode/dbe/src</text>
<text text-anchor="middle" x="1006.88" y="-72.25" font-family="Helvetica,sans-Serif" font-size="10.00">/structure/CustomTreeView.cpp</text>
</a>
</g>
</g>
<!-- Node4&#45;&gt;Node15 -->
<g id="edge17_Node000004_Node000015" class="edge">
<title>Node4&#45;&gt;Node15</title>
<g id="a_edge17_Node000004_Node000015"><a xlink:title=" ">
<path fill="none" stroke="#63b8ff" d="M824.25,-129.68C863.63,-119.56 912.55,-106.99 949.85,-97.4"/>
<polygon fill="#63b8ff" stroke="#63b8ff" points="823.42,-126.28 814.61,-132.16 825.17,-133.06 823.42,-126.28"/>
</a>
</g>
</g>
<!-- Node16 -->
<g id="Node000016" class="node">
<title>Node16</title>
<g id="a_Node000016"><a xlink:href="subtreeproxy_8cpp.html" target="_top" xlink:title=" ">
<polygon fill="white" stroke="#666666" points="912.38,-97 779.38,-97 779.38,-66.5 912.38,-66.5 912.38,-97"/>
<text text-anchor="start" x="787.38" y="-83.5" font-family="Helvetica,sans-Serif" font-size="10.00">sourcecode/dbe/src</text>
<text text-anchor="middle" x="845.88" y="-72.25" font-family="Helvetica,sans-Serif" font-size="10.00">/structure/subtreeproxy.cpp</text>
</a>
</g>
</g>
<!-- Node4&#45;&gt;Node16 -->
<g id="edge18_Node000004_Node000016" class="edge">
<title>Node4&#45;&gt;Node16</title>
<g id="a_edge18_Node000004_Node000016"><a xlink:title=" ">
<path fill="none" stroke="#63b8ff" d="M785.43,-126.07C798.57,-116.66 813.7,-105.81 825.53,-97.33"/>
<polygon fill="#63b8ff" stroke="#63b8ff" points="783.62,-123.06 777.53,-131.73 787.69,-128.75 783.62,-123.06"/>
</a>
</g>
</g>
<!-- Node6 -->
<g id="Node000006" class="node">
<title>Node6</title>
<g id="a_Node000006"><a xlink:href="Main_8cpp.html" target="_top" xlink:title=" ">
<polygon fill="white" stroke="#666666" points="718.38,-30.5 609.38,-30.5 609.38,0 718.38,0 718.38,-30.5"/>
<text text-anchor="start" x="617.38" y="-17" font-family="Helvetica,sans-Serif" font-size="10.00">sourcecode/dbe/apps</text>
<text text-anchor="middle" x="663.88" y="-5.75" font-family="Helvetica,sans-Serif" font-size="10.00">/Main.cpp</text>
</a>
</g>
</g>
<!-- Node5&#45;&gt;Node6 -->
<g id="edge7_Node000005_Node000006" class="edge">
<title>Node5&#45;&gt;Node6</title>
<g id="a_edge7_Node000005_Node000006"><a xlink:title=" ">
<path fill="none" stroke="#63b8ff" d="M663.88,-54.81C663.88,-46.64 663.88,-37.91 663.88,-30.83"/>
<polygon fill="#63b8ff" stroke="#63b8ff" points="660.38,-54.6 663.88,-64.6 667.38,-54.6 660.38,-54.6"/>
</a>
</g>
</g>
<!-- Node7 -->
<g id="Node000007" class="node">
<title>Node7</title>
<g id="a_Node000007"><a xlink:href="TableTab_8cpp.html" target="_top" xlink:title=" ">
<polygon fill="white" stroke="#666666" points="277.62,-30.5 176.12,-30.5 176.12,0 277.62,0 277.62,-30.5"/>
<text text-anchor="start" x="184.12" y="-17" font-family="Helvetica,sans-Serif" font-size="10.00">sourcecode/dbe/src</text>
<text text-anchor="middle" x="226.88" y="-5.75" font-family="Helvetica,sans-Serif" font-size="10.00">/TableTab.cpp</text>
</a>
</g>
</g>
<!-- Node5&#45;&gt;Node7 -->
<g id="edge8_Node000005_Node000007" class="edge">
<title>Node5&#45;&gt;Node7</title>
<g id="a_edge8_Node000005_Node000007"><a xlink:title=" ">
<path fill="none" stroke="#63b8ff" d="M592.97,-73.57C516.75,-65.33 392.19,-50.35 285.88,-30.5 283.29,-30.02 280.64,-29.49 277.97,-28.94"/>
<polygon fill="#63b8ff" stroke="#63b8ff" points="592.5,-77.04 602.81,-74.62 593.24,-70.08 592.5,-77.04"/>
</a>
</g>
</g>
<!-- Node8 -->
<g id="Node000008" class="node">
<title>Node8</title>
<g id="a_Node000008"><a xlink:href="GraphView_8cpp.html" target="_top" xlink:title=" ">
<polygon fill="white" stroke="#666666" points="863.38,-30.5 736.38,-30.5 736.38,0 863.38,0 863.38,-30.5"/>
<text text-anchor="start" x="744.38" y="-17" font-family="Helvetica,sans-Serif" font-size="10.00">sourcecode/dbe/src</text>
<text text-anchor="middle" x="799.88" y="-5.75" font-family="Helvetica,sans-Serif" font-size="10.00">/graphical/GraphView.cpp</text>
</a>
</g>
</g>
<!-- Node5&#45;&gt;Node8 -->
<g id="edge9_Node000005_Node000008" class="edge">
<title>Node5&#45;&gt;Node8</title>
<g id="a_edge9_Node000005_Node000008"><a xlink:title=" ">
<path fill="none" stroke="#63b8ff" d="M705.1,-61.2C725.7,-51.43 750.21,-39.81 769.14,-30.83"/>
<polygon fill="#63b8ff" stroke="#63b8ff" points="703.64,-58.02 696.1,-65.47 706.64,-64.34 703.64,-58.02"/>
</a>
</g>
</g>
<!-- Node5&#45;&gt;Node9 -->
<g id="edge10_Node000005_Node000009" class="edge">
<title>Node5&#45;&gt;Node9</title>
<g id="a_edge10_Node000005_Node000009"><a xlink:title=" ">
<path fill="none" stroke="#63b8ff" d="M734.83,-66.79C735.51,-66.69 736.2,-66.59 736.88,-66.5 937.42,-39.07 990.33,-57.93 1190.88,-30.5 1193.95,-30.08 1197.08,-29.61 1200.24,-29.11"/>
<polygon fill="#63b8ff" stroke="#63b8ff" points="734.38,-63.31 725.04,-68.3 735.45,-70.23 734.38,-63.31"/>
</a>
</g>
</g>
<!-- Node10 -->
<g id="Node000010" class="node">
<title>Node10</title>
<g id="a_Node000010"><a xlink:href="CustomTableView_8cpp.html" target="_top" xlink:title=" ">
<polygon fill="white" stroke="#666666" points="157.75,-30.5 0,-30.5 0,0 157.75,0 157.75,-30.5"/>
<text text-anchor="start" x="8" y="-17" font-family="Helvetica,sans-Serif" font-size="10.00">sourcecode/dbe/src</text>
<text text-anchor="middle" x="78.88" y="-5.75" font-family="Helvetica,sans-Serif" font-size="10.00">/structure/CustomTableView.cpp</text>
</a>
</g>
</g>
<!-- Node5&#45;&gt;Node10 -->
<g id="edge11_Node000005_Node000010" class="edge">
<title>Node5&#45;&gt;Node10</title>
<g id="a_edge11_Node000005_Node000010"><a xlink:title=" ">
<path fill="none" stroke="#63b8ff" d="M592.7,-74.9C496.07,-66.65 318.08,-50.37 166.88,-30.5 163.96,-30.12 160.99,-29.71 158,-29.29"/>
<polygon fill="#63b8ff" stroke="#63b8ff" points="592.3,-78.38 602.56,-75.74 592.89,-71.4 592.3,-78.38"/>
</a>
</g>
</g>
<!-- Node11 -->
<g id="Node000011" class="node">
<title>Node11</title>
<g id="a_Node000011"><a xlink:href="FileModel_8cpp.html" target="_top" xlink:title=" ">
<polygon fill="white" stroke="#666666" points="1002,-30.5 881.75,-30.5 881.75,0 1002,0 1002,-30.5"/>
<text text-anchor="start" x="889.75" y="-17" font-family="Helvetica,sans-Serif" font-size="10.00">sourcecode/dbe/src</text>
<text text-anchor="middle" x="941.88" y="-5.75" font-family="Helvetica,sans-Serif" font-size="10.00">/structure/FileModel.cpp</text>
</a>
</g>
</g>
<!-- Node5&#45;&gt;Node11 -->
<g id="edge12_Node000005_Node000011" class="edge">
<title>Node5&#45;&gt;Node11</title>
<g id="a_edge12_Node000005_Node000011"><a xlink:title=" ">
<path fill="none" stroke="#63b8ff" d="M734.45,-64.37C779.82,-53.85 838.14,-40.32 881.38,-30.29"/>
<polygon fill="#63b8ff" stroke="#63b8ff" points="733.94,-60.9 724.99,-66.57 735.52,-67.72 733.94,-60.9"/>
</a>
</g>
</g>
<!-- Node12 -->
<g id="Node000012" class="node">
<title>Node12</title>
<g id="a_Node000012"><a xlink:href="BatchChangeWidget_8cpp.html" target="_top" xlink:title=" ">
<polygon fill="white" stroke="#666666" points="1182,-30.5 1019.75,-30.5 1019.75,0 1182,0 1182,-30.5"/>
<text text-anchor="start" x="1027.75" y="-17" font-family="Helvetica,sans-Serif" font-size="10.00">sourcecode/dbe/src</text>
<text text-anchor="middle" x="1100.88" y="-5.75" font-family="Helvetica,sans-Serif" font-size="10.00">/widgets/BatchChangeWidget.cpp</text>
</a>
</g>
</g>
<!-- Node5&#45;&gt;Node12 -->
<g id="edge13_Node000005_Node000012" class="edge">
<title>Node5&#45;&gt;Node12</title>
<g id="a_edge13_Node000005_Node000012"><a xlink:title=" ">
<path fill="none" stroke="#63b8ff" d="M734.83,-66.84C735.52,-66.72 736.2,-66.61 736.88,-66.5 858.1,-46.72 889.32,-48.11 1010.88,-30.5 1013.69,-30.09 1016.56,-29.67 1019.45,-29.24"/>
<polygon fill="#63b8ff" stroke="#63b8ff" points="734.33,-63.37 725.07,-68.52 735.52,-70.27 734.33,-63.37"/>
</a>
</g>
</g>
<!-- Node13 -->
<g id="Node000013" class="node">
<title>Node13</title>
<g id="a_Node000013"><a xlink:href="IncludeFileWidget_8cpp.html" target="_top" xlink:title=" ">
<polygon fill="white" stroke="#666666" points="446.38,-30.5 295.38,-30.5 295.38,0 446.38,0 446.38,-30.5"/>
<text text-anchor="start" x="303.38" y="-17" font-family="Helvetica,sans-Serif" font-size="10.00">sourcecode/dbe/src</text>
<text text-anchor="middle" x="370.88" y="-5.75" font-family="Helvetica,sans-Serif" font-size="10.00">/widgets/IncludeFileWidget.cpp</text>
</a>
</g>
</g>
<!-- Node5&#45;&gt;Node13 -->
<g id="edge14_Node000005_Node000013" class="edge">
<title>Node5&#45;&gt;Node13</title>
<g id="a_edge14_Node000005_Node000013"><a xlink:title=" ">
<path fill="none" stroke="#63b8ff" d="M593.17,-65.19C545.97,-54.79 484.27,-41.21 437.86,-31"/>
<polygon fill="#63b8ff" stroke="#63b8ff" points="592.23,-68.56 602.75,-67.29 593.74,-61.73 592.23,-68.56"/>
</a>
</g>
</g>
<!-- Node14 -->
<g id="Node000014" class="node">
<title>Node14</title>
<g id="a_Node000014"><a xlink:href="ObjectEditor_8cpp.html" target="_top" xlink:title=" ">
<polygon fill="white" stroke="#666666" points="591.38,-30.5 464.38,-30.5 464.38,0 591.38,0 591.38,-30.5"/>
<text text-anchor="start" x="472.38" y="-17" font-family="Helvetica,sans-Serif" font-size="10.00">sourcecode/dbe/src</text>
<text text-anchor="middle" x="527.88" y="-5.75" font-family="Helvetica,sans-Serif" font-size="10.00">/widgets/ObjectEditor.cpp</text>
</a>
</g>
</g>
<!-- Node5&#45;&gt;Node14 -->
<g id="edge15_Node000005_Node000014" class="edge">
<title>Node5&#45;&gt;Node14</title>
<g id="a_edge15_Node000005_Node000014"><a xlink:title=" ">
<path fill="none" stroke="#63b8ff" d="M622.65,-61.2C602.05,-51.43 577.54,-39.81 558.61,-30.83"/>
<polygon fill="#63b8ff" stroke="#63b8ff" points="621.11,-64.34 631.65,-65.47 624.11,-58.02 621.11,-64.34"/>
</a>
</g>
</g>
<!-- Node17&#45;&gt;Node5 -->
<g id="edge25_Node000017_Node000005" class="edge">
<title>Node17&#45;&gt;Node5</title>
<g id="a_edge25_Node000017_Node000005"><a xlink:title=" ">
<path fill="none" stroke="#63b8ff" d="M582.83,-263.78C593.6,-254.11 605.62,-242.21 614.88,-230 635.05,-203.38 639.11,-195.12 649.88,-163.5 657.49,-141.14 661.11,-113.83 662.72,-97.38"/>
<polygon fill="#63b8ff" stroke="#63b8ff" points="580.55,-261.12 575.3,-270.33 585.14,-266.4 580.55,-261.12"/>
</a>
</g>
</g>
<!-- Node18 -->
<g id="Node000018" class="node">
<title>Node18</title>
<g id="a_Node000018"><a xlink:href="CustomTableView_8hpp.html" target="_top" xlink:title=" ">
<polygon fill="white" stroke="#666666" points="286.5,-230 151.25,-230 151.25,-199.5 286.5,-199.5 286.5,-230"/>
<text text-anchor="start" x="159.25" y="-216.5" font-family="Helvetica,sans-Serif" font-size="10.00">sourcecode/dbe/include</text>
<text text-anchor="middle" x="218.88" y="-205.25" font-family="Helvetica,sans-Serif" font-size="10.00">/dbe/CustomTableView.hpp</text>
</a>
</g>
</g>
<!-- Node17&#45;&gt;Node18 -->
<g id="edge20_Node000017_Node000018" class="edge">
<title>Node17&#45;&gt;Node18</title>
<g id="a_edge20_Node000017_Node000018"><a xlink:title=" ">
<path fill="none" stroke="#63b8ff" d="M495.93,-268.24C492.87,-267.46 489.84,-266.7 486.88,-266 419.4,-249.99 341.38,-235.85 286.99,-226.68"/>
<polygon fill="#63b8ff" stroke="#63b8ff" points="495,-271.61 505.56,-270.79 496.79,-264.85 495,-271.61"/>
</a>
</g>
</g>
<!-- Node19 -->
<g id="Node000019" class="node">
<title>Node19</title>
<g id="a_Node000019"><a xlink:href="TableTab_8hpp.html" target="_top" xlink:title=" ">
<polygon fill="white" stroke="#666666" points="278.25,-163.5 159.5,-163.5 159.5,-133 278.25,-133 278.25,-163.5"/>
<text text-anchor="start" x="167.5" y="-150" font-family="Helvetica,sans-Serif" font-size="10.00">sourcecode/dbe/include</text>
<text text-anchor="middle" x="218.88" y="-138.75" font-family="Helvetica,sans-Serif" font-size="10.00">/dbe/TableTab.hpp</text>
</a>
</g>
</g>
<!-- Node17&#45;&gt;Node19 -->
<g id="edge26_Node000017_Node000019" class="edge">
<title>Node17&#45;&gt;Node19</title>
<g id="a_edge26_Node000017_Node000019"><a xlink:title=" ">
<path fill="none" stroke="#63b8ff" d="M494.15,-268.08C491.69,-267.37 489.26,-266.68 486.88,-266 430.04,-249.82 413.34,-252.94 358.88,-230 314.66,-211.37 267.05,-181.6 240.3,-163.88"/>
<polygon fill="#63b8ff" stroke="#63b8ff" points="492.98,-271.38 503.56,-270.77 494.91,-264.65 492.98,-271.38"/>
</a>
</g>
</g>
<!-- Node17&#45;&gt;Node20 -->
<g id="edge27_Node000017_Node000020" class="edge">
<title>Node17&#45;&gt;Node20</title>
<g id="a_edge27_Node000017_Node000020"><a xlink:title=" ">
<path fill="none" stroke="#63b8ff" d="M552.58,-260.23C551.29,-250.13 549.85,-238.91 548.74,-230.26"/>
<polygon fill="#63b8ff" stroke="#63b8ff" points="549.07,-260.37 553.82,-269.84 556.02,-259.48 549.07,-260.37"/>
</a>
</g>
</g>
<!-- Node23 -->
<g id="Node000023" class="node">
<title>Node23</title>
<g id="a_Node000023"><a xlink:href="table_8cpp.html" target="_top" xlink:title=" ">
<polygon fill="white" stroke="#666666" points="469.62,-230 368.12,-230 368.12,-199.5 469.62,-199.5 469.62,-230"/>
<text text-anchor="start" x="376.12" y="-216.5" font-family="Helvetica,sans-Serif" font-size="10.00">sourcecode/dbe/src</text>
<text text-anchor="middle" x="418.88" y="-205.25" font-family="Helvetica,sans-Serif" font-size="10.00">/structure/table.cpp</text>
</a>
</g>
</g>
<!-- Node17&#45;&gt;Node23 -->
<g id="edge33_Node000017_Node000023" class="edge">
<title>Node17&#45;&gt;Node23</title>
<g id="a_edge33_Node000017_Node000023"><a xlink:title=" ">
<path fill="none" stroke="#63b8ff" d="M517.08,-266.02C494.97,-254.7 467.73,-240.76 447.56,-230.43"/>
<polygon fill="#63b8ff" stroke="#63b8ff" points="515.31,-269.04 525.81,-270.48 518.5,-262.81 515.31,-269.04"/>
</a>
</g>
</g>
<!-- Node18&#45;&gt;Node10 -->
<g id="edge24_Node000018_Node000010" class="edge">
<title>Node18&#45;&gt;Node10</title>
<g id="a_edge24_Node000018_Node000010"><a xlink:title=" ">
<path fill="none" stroke="#63b8ff" d="M155.75,-194.52C140.12,-187.07 124.75,-176.98 113.88,-163.5 81.87,-123.83 78.27,-59.72 78.41,-31"/>
<polygon fill="#63b8ff" stroke="#63b8ff" points="154.07,-197.61 164.63,-198.44 156.89,-191.2 154.07,-197.61"/>
</a>
</g>
</g>
<!-- Node18&#45;&gt;Node19 -->
<g id="edge21_Node000018_Node000019" class="edge">
<title>Node18&#45;&gt;Node19</title>
<g id="a_edge21_Node000018_Node000019"><a xlink:title=" ">
<path fill="none" stroke="#63b8ff" d="M218.88,-187.81C218.88,-179.64 218.88,-170.91 218.88,-163.83"/>
<polygon fill="#63b8ff" stroke="#63b8ff" points="215.38,-187.6 218.88,-197.6 222.38,-187.6 215.38,-187.6"/>
</a>
</g>
</g>
<!-- Node19&#45;&gt;Node5 -->
<g id="edge22_Node000019_Node000005" class="edge">
<title>Node19&#45;&gt;Node5</title>
<g id="a_edge22_Node000019_Node000005"><a xlink:title=" ">
<path fill="none" stroke="#63b8ff" d="M289.98,-132.72C407.18,-113.11 532.07,-97.74 604.09,-89.42"/>
<polygon fill="#63b8ff" stroke="#63b8ff" points="289.44,-129.26 280.16,-134.38 290.6,-136.17 289.44,-129.26"/>
</a>
</g>
</g>
<!-- Node19&#45;&gt;Node7 -->
<g id="edge23_Node000019_Node000007" class="edge">
<title>Node19&#45;&gt;Node7</title>
<g id="a_edge23_Node000019_Node000007"><a xlink:title=" ">
<path fill="none" stroke="#63b8ff" d="M220.45,-121.43C222.11,-94.34 224.65,-52.71 225.98,-30.83"/>
<polygon fill="#63b8ff" stroke="#63b8ff" points="216.97,-121.02 219.85,-131.22 223.96,-121.45 216.97,-121.02"/>
</a>
</g>
</g>
<!-- Node20&#45;&gt;Node5 -->
<g id="edge28_Node000020_Node000005" class="edge">
<title>Node20&#45;&gt;Node5</title>
<g id="a_edge28_Node000020_Node000005"><a xlink:title=" ">
<path fill="none" stroke="#63b8ff" d="M517,-192C497.99,-175.46 479.43,-152.34 493.88,-133 507.32,-115 560.73,-101.19 604.14,-92.64"/>
<polygon fill="#63b8ff" stroke="#63b8ff" points="514.53,-194.5 524.48,-198.13 518.97,-189.09 514.53,-194.5"/>
</a>
</g>
</g>
<!-- Node20&#45;&gt;Node10 -->
<g id="edge31_Node000020_Node000010" class="edge">
<title>Node20&#45;&gt;Node10</title>
<g id="a_edge31_Node000020_Node000010"><a xlink:title=" ">
<path fill="none" stroke="#63b8ff" d="M475.94,-199.37C389.53,-189.41 208.23,-203.81 150.88,-163.5 127.36,-146.97 96.13,-64.85 84,-30.94"/>
<polygon fill="#63b8ff" stroke="#63b8ff" points="475.35,-202.82 485.73,-200.7 476.3,-195.89 475.35,-202.82"/>
</a>
</g>
</g>
<!-- Node20&#45;&gt;Node19 -->
<g id="edge29_Node000020_Node000019" class="edge">
<title>Node20&#45;&gt;Node19</title>
<g id="a_edge29_Node000020_Node000019"><a xlink:title=" ">
<path fill="none" stroke="#63b8ff" d="M476.09,-198.97C392.28,-182.42 369.15,-179.55 287.88,-163.5 284.87,-162.91 281.8,-162.29 278.7,-161.67"/>
<polygon fill="#63b8ff" stroke="#63b8ff" points="475.21,-202.36 485.7,-200.88 476.57,-195.5 475.21,-202.36"/>
</a>
</g>
</g>
<!-- Node21 -->
<g id="Node000021" class="node">
<title>Node21</title>
<g id="a_Node000021"><a xlink:href="CustomDelegate_8cpp.html" target="_top" xlink:title=" ">
<polygon fill="white" stroke="#666666" points="447,-163.5 296.75,-163.5 296.75,-133 447,-133 447,-163.5"/>
<text text-anchor="start" x="304.75" y="-150" font-family="Helvetica,sans-Serif" font-size="10.00">sourcecode/dbe/src</text>
<text text-anchor="middle" x="371.88" y="-138.75" font-family="Helvetica,sans-Serif" font-size="10.00">/structure/CustomDelegate.cpp</text>
</a>
</g>
</g>
<!-- Node20&#45;&gt;Node21 -->
<g id="edge30_Node000020_Node000021" class="edge">
<title>Node20&#45;&gt;Node21</title>
<g id="a_edge30_Node000020_Node000021"><a xlink:title=" ">
<path fill="none" stroke="#63b8ff" d="M496.4,-195.15C469.49,-185.23 436.84,-173.2 411.73,-163.94"/>
<polygon fill="#63b8ff" stroke="#63b8ff" points="495.15,-198.42 505.74,-198.59 497.57,-191.85 495.15,-198.42"/>
</a>
</g>
</g>
<!-- Node22 -->
<g id="Node000022" class="node">
<title>Node22</title>
<g id="a_Node000022"><a xlink:href="tableselection_8cpp.html" target="_top" xlink:title=" ">
<polygon fill="white" stroke="#666666" points="641,-163.5 502.75,-163.5 502.75,-133 641,-133 641,-163.5"/>
<text text-anchor="start" x="510.75" y="-150" font-family="Helvetica,sans-Serif" font-size="10.00">sourcecode/dbe/src</text>
<text text-anchor="middle" x="571.88" y="-138.75" font-family="Helvetica,sans-Serif" font-size="10.00">/structure/tableselection.cpp</text>
</a>
</g>
</g>
<!-- Node20&#45;&gt;Node22 -->
<g id="edge32_Node000020_Node000022" class="edge">
<title>Node20&#45;&gt;Node22</title>
<g id="a_edge32_Node000020_Node000022"><a xlink:title=" ">
<path fill="none" stroke="#63b8ff" d="M556.6,-188.66C559.86,-180.25 563.38,-171.16 566.22,-163.83"/>
<polygon fill="#63b8ff" stroke="#63b8ff" points="553.45,-187.11 553.09,-197.7 559.97,-189.64 553.45,-187.11"/>
</a>
</g>
</g>
<!-- Node24&#45;&gt;Node5 -->
<g id="edge36_Node000024_Node000005" class="edge">
<title>Node24&#45;&gt;Node5</title>
<g id="a_edge36_Node000024_Node000005"><a xlink:title=" ">
<path fill="none" stroke="#63b8ff" d="M829.8,-129.49C793.99,-119.4 749.71,-106.93 715.9,-97.4"/>
<polygon fill="#63b8ff" stroke="#63b8ff" points="828.59,-132.78 839.17,-132.12 830.49,-126.04 828.59,-132.78"/>
</a>
</g>
</g>
<!-- Node24&#45;&gt;Node15 -->
<g id="edge37_Node000024_Node000015" class="edge">
<title>Node24&#45;&gt;Node15</title>
<g id="a_edge37_Node000024_Node000015"><a xlink:title=" ">
<path fill="none" stroke="#63b8ff" d="M928.39,-127.16C945.45,-117.5 965.53,-106.14 981.11,-97.33"/>
<polygon fill="#63b8ff" stroke="#63b8ff" points="927.04,-123.9 920.06,-131.87 930.49,-129.99 927.04,-123.9"/>
</a>
</g>
</g>
<!-- Node24&#45;&gt;Node16 -->
<g id="edge38_Node000024_Node000016" class="edge">
<title>Node24&#45;&gt;Node16</title>
<g id="a_edge38_Node000024_Node000016"><a xlink:title=" ">
<path fill="none" stroke="#63b8ff" d="M875.62,-123.57C869.21,-114.78 862.14,-105.07 856.5,-97.33"/>
<polygon fill="#63b8ff" stroke="#63b8ff" points="872.6,-125.37 881.32,-131.39 878.26,-121.25 872.6,-125.37"/>
</a>
</g>
</g>
<!-- Node25 -->
<g id="Node000025" class="node">
<title>Node25</title>
<g id="a_Node000025"><a xlink:href="tree_8cpp.html" target="_top" xlink:title=" ">
<polygon fill="white" stroke="#666666" points="1202.62,-97 1101.12,-97 1101.12,-66.5 1202.62,-66.5 1202.62,-97"/>
<text text-anchor="start" x="1109.12" y="-83.5" font-family="Helvetica,sans-Serif" font-size="10.00">sourcecode/dbe/src</text>
<text text-anchor="middle" x="1151.88" y="-72.25" font-family="Helvetica,sans-Serif" font-size="10.00">/structure/tree.cpp</text>
</a>
</g>
</g>
<!-- Node24&#45;&gt;Node25 -->
<g id="edge39_Node000024_Node000025" class="edge">
<title>Node24&#45;&gt;Node25</title>
<g id="a_edge39_Node000024_Node000025"><a xlink:title=" ">
<path fill="none" stroke="#63b8ff" d="M963.06,-129.77C1006.59,-118.93 1061.53,-105.25 1100.9,-95.44"/>
<polygon fill="#63b8ff" stroke="#63b8ff" points="962.3,-126.35 953.44,-132.17 963.99,-133.15 962.3,-126.35"/>
</a>
</g>
</g>
<!-- Node26 -->
<g id="Node000026" class="node">
<title>Node26</title>
<g id="a_Node000026"><a xlink:href="treeselection_8cpp.html" target="_top" xlink:title=" ">
<polygon fill="white" stroke="#666666" points="1354.75,-97 1221,-97 1221,-66.5 1354.75,-66.5 1354.75,-97"/>
<text text-anchor="start" x="1229" y="-83.5" font-family="Helvetica,sans-Serif" font-size="10.00">sourcecode/dbe/src</text>
<text text-anchor="middle" x="1287.88" y="-72.25" font-family="Helvetica,sans-Serif" font-size="10.00">/structure/treeselection.cpp</text>
</a>
</g>
</g>
<!-- Node24&#45;&gt;Node26 -->
<g id="edge40_Node000024_Node000026" class="edge">
<title>Node24&#45;&gt;Node26</title>
<g id="a_edge40_Node000024_Node000026"><a xlink:title=" ">
<path fill="none" stroke="#63b8ff" d="M963.97,-132.71C1074.38,-113.73 1104.7,-114.76 1211.88,-97 1214.79,-96.52 1217.76,-96.01 1220.77,-95.49"/>
<polygon fill="#63b8ff" stroke="#63b8ff" points="963.42,-129.25 954.16,-134.41 964.61,-136.15 963.42,-129.25"/>
</a>
</g>
</g>
<!-- Node27&#45;&gt;Node5 -->
<g id="edge42_Node000027_Node000005" class="edge">
<title>Node27&#45;&gt;Node5</title>
<g id="a_edge42_Node000027_Node000005"><a xlink:title=" ">
<path fill="none" stroke="#63b8ff" d="M958.83,-132.66C871.15,-116.33 781.32,-101.49 723.72,-92.23"/>
<polygon fill="#63b8ff" stroke="#63b8ff" points="958.1,-136.08 968.57,-134.48 959.39,-129.2 958.1,-136.08"/>
</a>
</g>
</g>
<!-- Node27&#45;&gt;Node15 -->
<g id="edge43_Node000027_Node000015" class="edge">
<title>Node27&#45;&gt;Node15</title>
<g id="a_edge43_Node000027_Node000015"><a xlink:title=" ">
<path fill="none" stroke="#63b8ff" d="M1020.83,-121.88C1017.86,-113.55 1014.66,-104.58 1012.07,-97.33"/>
<polygon fill="#63b8ff" stroke="#63b8ff" points="1017.49,-122.94 1024.15,-131.19 1024.09,-120.59 1017.49,-122.94"/>
</a>
</g>
</g>
<!-- Node27&#45;&gt;Node26 -->
<g id="edge44_Node000027_Node000026" class="edge">
<title>Node27&#45;&gt;Node26</title>
<g id="a_edge44_Node000027_Node000026"><a xlink:title=" ">
<path fill="none" stroke="#63b8ff" d="M1099.89,-129.75C1140.42,-119.61 1190.84,-107.01 1229.26,-97.4"/>
<polygon fill="#63b8ff" stroke="#63b8ff" points="1099.06,-126.35 1090.21,-132.17 1100.76,-133.14 1099.06,-126.35"/>
</a>
</g>
</g>
</g>
</svg>
