<?xml version="1.0" encoding="UTF-8" standalone="no"?>
<!DOCTYPE svg PUBLIC "-//W3C//DTD SVG 1.1//EN"
 "http://www.w3.org/Graphics/SVG/1.1/DTD/svg11.dtd">
<!-- Generated by graphviz version 9.0.0 (20230911.1827)
 -->
<!-- Title: sourcecode/dbe/include/dbe/model_common_interface.hpp Pages: 1 -->
<svg width="1541pt" height="382pt"
 viewBox="0.00 0.00 1540.62 382.25" xmlns="http://www.w3.org/2000/svg" xmlns:xlink="http://www.w3.org/1999/xlink">
<g id="graph0" class="graph" transform="scale(1 1) rotate(0) translate(4 378.25)">
<title>sourcecode/dbe/include/dbe/model_common_interface.hpp</title>
<!-- Node1 -->
<g id="Node000001" class="node">
<title>Node1</title>
<g id="a_Node000001"><a xlink:title=" ">
<polygon fill="#999999" stroke="#666666" points="708.88,-374.25 541.38,-374.25 541.38,-343.75 708.88,-343.75 708.88,-374.25"/>
<text text-anchor="start" x="549.38" y="-360.75" font-family="Helvetica,sans-Serif" font-size="10.00">sourcecode/dbe/include</text>
<text text-anchor="middle" x="625.12" y="-349.5" font-family="Helvetica,sans-Serif" font-size="10.00">/dbe/model_common_interface.hpp</text>
</a>
</g>
</g>
<!-- Node2 -->
<g id="Node000002" class="node">
<title>Node2</title>
<g id="a_Node000002"><a xlink:href="model__common__interface__macros_8hpp.html" target="_top" xlink:title=" ">
<polygon fill="white" stroke="#666666" points="360.88,-307.75 211.38,-307.75 211.38,-266 360.88,-266 360.88,-307.75"/>
<text text-anchor="start" x="219.38" y="-294.25" font-family="Helvetica,sans-Serif" font-size="10.00">sourcecode/dbe/include</text>
<text text-anchor="start" x="219.38" y="-283" font-family="Helvetica,sans-Serif" font-size="10.00">/dbe/model_common_interface</text>
<text text-anchor="middle" x="286.12" y="-271.75" font-family="Helvetica,sans-Serif" font-size="10.00">_macros.hpp</text>
</a>
</g>
</g>
<!-- Node1&#45;&gt;Node2 -->
<g id="edge1_Node000001_Node000002" class="edge">
<title>Node1&#45;&gt;Node2</title>
<g id="a_edge1_Node000001_Node000002"><a xlink:title=" ">
<path fill="none" stroke="#63b8ff" d="M529.93,-341.79C479.59,-332.41 416.9,-320.1 361.18,-307.98"/>
<polygon fill="#63b8ff" stroke="#63b8ff" points="529.17,-345.21 539.64,-343.59 530.45,-338.33 529.17,-345.21"/>
</a>
</g>
</g>
<!-- Node3 -->
<g id="Node000003" class="node">
<title>Node3</title>
<g id="a_Node000003"><a xlink:href="model__common__operations_8hpp.html" target="_top" xlink:title=" ">
<polygon fill="white" stroke="#666666" points="553.62,-302.12 378.62,-302.12 378.62,-271.62 553.62,-271.62 553.62,-302.12"/>
<text text-anchor="start" x="386.62" y="-288.62" font-family="Helvetica,sans-Serif" font-size="10.00">sourcecode/dbe/include</text>
<text text-anchor="middle" x="466.12" y="-277.38" font-family="Helvetica,sans-Serif" font-size="10.00">/dbe/model_common_operations.hpp</text>
</a>
</g>
</g>
<!-- Node1&#45;&gt;Node3 -->
<g id="edge3_Node000001_Node000003" class="edge">
<title>Node1&#45;&gt;Node3</title>
<g id="a_edge3_Node000001_Node000003"><a xlink:title=" ">
<path fill="none" stroke="#63b8ff" d="M575.75,-338.91C548.77,-327.46 516.41,-313.12 493.8,-302.56"/>
<polygon fill="#63b8ff" stroke="#63b8ff" points="574.21,-342.06 584.78,-342.71 576.93,-335.61 574.21,-342.06"/>
</a>
</g>
</g>
<!-- Node4 -->
<g id="Node000004" class="node">
<title>Node4</title>
<g id="a_Node000004"><a xlink:href="subtreeproxy_8hpp.html" target="_top" xlink:title=" ">
<polygon fill="white" stroke="#666666" points="879.5,-163.5 760.75,-163.5 760.75,-133 879.5,-133 879.5,-163.5"/>
<text text-anchor="start" x="768.75" y="-150" font-family="Helvetica,sans-Serif" font-size="10.00">sourcecode/dbe/include</text>
<text text-anchor="middle" x="820.12" y="-138.75" font-family="Helvetica,sans-Serif" font-size="10.00">/dbe/subtreeproxy.hpp</text>
</a>
</g>
</g>
<!-- Node1&#45;&gt;Node4 -->
<g id="edge5_Node000001_Node000004" class="edge">
<title>Node1&#45;&gt;Node4</title>
<g id="a_edge5_Node000001_Node000004"><a xlink:title=" ">
<path fill="none" stroke="#63b8ff" d="M686.57,-339.09C704.39,-331.45 722.85,-321.18 737.12,-307.75 742.98,-302.24 793.63,-202.01 812.81,-163.84"/>
<polygon fill="#63b8ff" stroke="#63b8ff" points="685.56,-335.72 677.6,-342.72 688.19,-342.21 685.56,-335.72"/>
</a>
</g>
</g>
<!-- Node17 -->
<g id="Node000017" class="node">
<title>Node17</title>
<g id="a_Node000017"><a xlink:href="table_8hpp.html" target="_top" xlink:title=" ">
<polygon fill="white" stroke="#666666" points="728.5,-302.12 609.75,-302.12 609.75,-271.62 728.5,-271.62 728.5,-302.12"/>
<text text-anchor="start" x="617.75" y="-288.62" font-family="Helvetica,sans-Serif" font-size="10.00">sourcecode/dbe/include</text>
<text text-anchor="middle" x="669.12" y="-277.38" font-family="Helvetica,sans-Serif" font-size="10.00">/dbe/table.hpp</text>
</a>
</g>
</g>
<!-- Node1&#45;&gt;Node17 -->
<g id="edge19_Node000001_Node000017" class="edge">
<title>Node1&#45;&gt;Node17</title>
<g id="a_edge19_Node000001_Node000017"><a xlink:title=" ">
<path fill="none" stroke="#63b8ff" d="M640.19,-333.99C646.78,-323.48 654.3,-311.5 660.02,-302.39"/>
<polygon fill="#63b8ff" stroke="#63b8ff" points="637.4,-331.86 635.05,-342.19 643.33,-335.58 637.4,-331.86"/>
</a>
</g>
</g>
<!-- Node20 -->
<g id="Node000020" class="node">
<title>Node20</title>
<g id="a_Node000020"><a xlink:href="tableselection_8hpp.html" target="_top" xlink:title=" ">
<polygon fill="white" stroke="#666666" points="393.5,-230 274.75,-230 274.75,-199.5 393.5,-199.5 393.5,-230"/>
<text text-anchor="start" x="282.75" y="-216.5" font-family="Helvetica,sans-Serif" font-size="10.00">sourcecode/dbe/include</text>
<text text-anchor="middle" x="334.12" y="-205.25" font-family="Helvetica,sans-Serif" font-size="10.00">/dbe/tableselection.hpp</text>
</a>
</g>
</g>
<!-- Node1&#45;&gt;Node20 -->
<g id="edge34_Node000001_Node000020" class="edge">
<title>Node1&#45;&gt;Node20</title>
<g id="a_edge34_Node000001_Node000020"><a xlink:title=" ">
<path fill="none" stroke="#63b8ff" d="M614.54,-333.11C604.25,-311.97 586.58,-282.51 562.12,-266 558.58,-263.61 460.35,-242.47 394,-228.39"/>
<polygon fill="#63b8ff" stroke="#63b8ff" points="611.24,-334.32 618.62,-341.92 617.6,-331.38 611.24,-334.32"/>
</a>
</g>
</g>
<!-- Node24 -->
<g id="Node000024" class="node">
<title>Node24</title>
<g id="a_Node000024"><a xlink:href="tree_8hpp.html" target="_top" xlink:title=" ">
<polygon fill="white" stroke="#666666" points="1016.5,-163.5 897.75,-163.5 897.75,-133 1016.5,-133 1016.5,-163.5"/>
<text text-anchor="start" x="905.75" y="-150" font-family="Helvetica,sans-Serif" font-size="10.00">sourcecode/dbe/include</text>
<text text-anchor="middle" x="957.12" y="-138.75" font-family="Helvetica,sans-Serif" font-size="10.00">/dbe/tree.hpp</text>
</a>
</g>
</g>
<!-- Node1&#45;&gt;Node24 -->
<g id="edge35_Node000001_Node000024" class="edge">
<title>Node1&#45;&gt;Node24</title>
<g id="a_edge35_Node000001_Node000024"><a xlink:title=" ">
<path fill="none" stroke="#63b8ff" d="M702.36,-339.69C723.52,-332.17 745.47,-321.82 763.12,-307.75 807.93,-272.04 788.97,-236.01 833.12,-199.5 852.64,-183.37 878.01,-171.86 900.72,-163.97"/>
<polygon fill="#63b8ff" stroke="#63b8ff" points="701.52,-336.28 693.16,-342.78 703.75,-342.91 701.52,-336.28"/>
</a>
</g>
</g>
<!-- Node27 -->
<g id="Node000027" class="node">
<title>Node27</title>
<g id="a_Node000027"><a xlink:href="treeselection_8hpp.html" target="_top" xlink:title=" ">
<polygon fill="white" stroke="#666666" points="1153.5,-163.5 1034.75,-163.5 1034.75,-133 1153.5,-133 1153.5,-163.5"/>
<text text-anchor="start" x="1042.75" y="-150" font-family="Helvetica,sans-Serif" font-size="10.00">sourcecode/dbe/include</text>
<text text-anchor="middle" x="1094.12" y="-138.75" font-family="Helvetica,sans-Serif" font-size="10.00">/dbe/treeselection.hpp</text>
</a>
</g>
</g>
<!-- Node1&#45;&gt;Node27 -->
<g id="edge41_Node000001_Node000027" class="edge">
<title>Node1&#45;&gt;Node27</title>
<g id="a_edge41_Node000001_Node000027"><a xlink:title=" ">
<path fill="none" stroke="#63b8ff" d="M697.07,-340.38C727.29,-331.99 762.47,-320.89 793.12,-307.75 827.48,-293.02 833.26,-283.8 866.12,-266 936.51,-227.88 1020.64,-185.65 1064.38,-163.93"/>
<polygon fill="#63b8ff" stroke="#63b8ff" points="696.36,-336.95 687.64,-342.95 698.21,-343.7 696.36,-336.95"/>
</a>
</g>
</g>
<!-- Node28 -->
<g id="Node000028" class="node">
<title>Node28</title>
<g id="a_Node000028"><a xlink:href="model__common__interface_8cpp.html" target="_top" xlink:title=" ">
<polygon fill="white" stroke="#666666" points="1004.75,-307.75 875.5,-307.75 875.5,-266 1004.75,-266 1004.75,-307.75"/>
<text text-anchor="start" x="883.5" y="-294.25" font-family="Helvetica,sans-Serif" font-size="10.00">sourcecode/dbe/src</text>
<text text-anchor="start" x="883.5" y="-283" font-family="Helvetica,sans-Serif" font-size="10.00">/structure/model_common</text>
<text text-anchor="middle" x="940.12" y="-271.75" font-family="Helvetica,sans-Serif" font-size="10.00">_interface.cpp</text>
</a>
</g>
</g>
<!-- Node1&#45;&gt;Node28 -->
<g id="edge45_Node000001_Node000028" class="edge">
<title>Node1&#45;&gt;Node28</title>
<g id="a_edge45_Node000001_Node000028"><a xlink:title=" ">
<path fill="none" stroke="#63b8ff" d="M708.81,-340.96C754.01,-331.56 810.72,-319.45 861.12,-307.75 865.67,-306.69 870.36,-305.58 875.07,-304.44"/>
<polygon fill="#63b8ff" stroke="#63b8ff" points="708.14,-337.52 699.06,-342.98 709.56,-344.38 708.14,-337.52"/>
</a>
</g>
</g>
<!-- Node2&#45;&gt;Node1 -->
<g id="edge2_Node000002_Node000001" class="edge">
<title>Node2&#45;&gt;Node1</title>
<g id="a_edge2_Node000002_Node000001"><a xlink:title=" ">
<path fill="none" stroke="#63b8ff" d="M372.39,-306.49C374.32,-306.92 376.23,-307.34 378.12,-307.75 437.1,-320.59 504.03,-333.68 553.4,-343.28"/>
<polygon fill="#63b8ff" stroke="#63b8ff" points="373.19,-303.08 362.66,-304.29 371.64,-309.91 373.19,-303.08"/>
</a>
</g>
</g>
<!-- Node3&#45;&gt;Node1 -->
<g id="edge4_Node000003_Node000001" class="edge">
<title>Node3&#45;&gt;Node1</title>
<g id="a_edge4_Node000003_Node000001"><a xlink:title=" ">
<path fill="none" stroke="#63b8ff" d="M515.45,-306.95C542.43,-318.39 574.79,-332.73 597.41,-343.3"/>
<polygon fill="#63b8ff" stroke="#63b8ff" points="516.99,-303.8 506.42,-303.14 514.28,-310.25 516.99,-303.8"/>
</a>
</g>
</g>
<!-- Node5 -->
<g id="Node000005" class="node">
<title>Node5</title>
<g id="a_Node000005"><a xlink:href="MainWindow_8hpp.html" target="_top" xlink:title=" ">
<polygon fill="white" stroke="#666666" points="792.5,-97 673.75,-97 673.75,-66.5 792.5,-66.5 792.5,-97"/>
<text text-anchor="start" x="681.75" y="-83.5" font-family="Helvetica,sans-Serif" font-size="10.00">sourcecode/dbe/include</text>
<text text-anchor="middle" x="733.12" y="-72.25" font-family="Helvetica,sans-Serif" font-size="10.00">/dbe/MainWindow.hpp</text>
</a>
</g>
</g>
<!-- Node4&#45;&gt;Node5 -->
<g id="edge6_Node000004_Node000005" class="edge">
<title>Node4&#45;&gt;Node5</title>
<g id="a_edge6_Node000004_Node000005"><a xlink:title=" ">
<path fill="none" stroke="#63b8ff" d="M791.18,-125.79C778.57,-116.44 764.12,-105.73 752.79,-97.33"/>
<polygon fill="#63b8ff" stroke="#63b8ff" points="789.05,-128.57 799.17,-131.71 793.22,-122.95 789.05,-128.57"/>
</a>
</g>
</g>
<!-- Node9 -->
<g id="Node000009" class="node">
<title>Node9</title>
<g id="a_Node000009"><a xlink:href="MainWindow_8cpp.html" target="_top" xlink:title=" ">
<polygon fill="white" stroke="#666666" points="1532.62,-30.5 1405.62,-30.5 1405.62,0 1532.62,0 1532.62,-30.5"/>
<text text-anchor="start" x="1413.62" y="-17" font-family="Helvetica,sans-Serif" font-size="10.00">sourcecode/dbe/src</text>
<text text-anchor="middle" x="1469.12" y="-5.75" font-family="Helvetica,sans-Serif" font-size="10.00">/internal/MainWindow.cpp</text>
</a>
</g>
</g>
<!-- Node4&#45;&gt;Node9 -->
<g id="edge16_Node000004_Node000009" class="edge">
<title>Node4&#45;&gt;Node9</title>
<g id="a_edge16_Node000004_Node000009"><a xlink:title=" ">
<path fill="none" stroke="#63b8ff" d="M819.13,-121.32C819.95,-103.08 824.38,-79.66 840.12,-66.5 887.62,-26.79 1334.73,-38.45 1396.12,-30.5 1399.2,-30.1 1402.34,-29.65 1405.5,-29.17"/>
<polygon fill="#63b8ff" stroke="#63b8ff" points="815.63,-121.12 819.05,-131.15 822.63,-121.18 815.63,-121.12"/>
</a>
</g>
</g>
<!-- Node15 -->
<g id="Node000015" class="node">
<title>Node15</title>
<g id="a_Node000015"><a xlink:href="CustomTreeView_8cpp.html" target="_top" xlink:title=" ">
<polygon fill="white" stroke="#666666" points="1152.75,-97 999.5,-97 999.5,-66.5 1152.75,-66.5 1152.75,-97"/>
<text text-anchor="start" x="1007.5" y="-83.5" font-family="Helvetica,sans-Serif" font-size="10.00">sourcecode/dbe/src</text>
<text text-anchor="middle" x="1076.12" y="-72.25" font-family="Helvetica,sans-Serif" font-size="10.00">/structure/CustomTreeView.cpp</text>
</a>
</g>
</g>
<!-- Node4&#45;&gt;Node15 -->
<g id="edge17_Node000004_Node000015" class="edge">
<title>Node4&#45;&gt;Node15</title>
<g id="a_edge17_Node000004_Node000015"><a xlink:title=" ">
<path fill="none" stroke="#63b8ff" d="M889.6,-129.75C929.81,-119.61 979.84,-107.01 1017.97,-97.4"/>
<polygon fill="#63b8ff" stroke="#63b8ff" points="888.85,-126.33 880,-132.16 890.56,-133.11 888.85,-126.33"/>
</a>
</g>
</g>
<!-- Node16 -->
<g id="Node000016" class="node">
<title>Node16</title>
<g id="a_Node000016"><a xlink:href="subtreeproxy_8cpp.html" target="_top" xlink:title=" ">
<polygon fill="white" stroke="#666666" points="981.62,-97 848.62,-97 848.62,-66.5 981.62,-66.5 981.62,-97"/>
<text text-anchor="start" x="856.62" y="-83.5" font-family="Helvetica,sans-Serif" font-size="10.00">sourcecode/dbe/src</text>
<text text-anchor="middle" x="915.12" y="-72.25" font-family="Helvetica,sans-Serif" font-size="10.00">/structure/subtreeproxy.cpp</text>
</a>
</g>
</g>
<!-- Node4&#45;&gt;Node16 -->
<g id="edge18_Node000004_Node000016" class="edge">
<title>Node4&#45;&gt;Node16</title>
<g id="a_edge18_Node000004_Node000016"><a xlink:title=" ">
<path fill="none" stroke="#63b8ff" d="M850.92,-126.34C864.88,-116.87 881.04,-105.89 893.65,-97.33"/>
<polygon fill="#63b8ff" stroke="#63b8ff" points="849.24,-123.25 842.93,-131.76 853.17,-129.04 849.24,-123.25"/>
</a>
</g>
</g>
<!-- Node6 -->
<g id="Node000006" class="node">
<title>Node6</title>
<g id="a_Node000006"><a xlink:href="Main_8cpp.html" target="_top" xlink:title=" ">
<polygon fill="white" stroke="#666666" points="923.62,-30.5 814.62,-30.5 814.62,0 923.62,0 923.62,-30.5"/>
<text text-anchor="start" x="822.62" y="-17" font-family="Helvetica,sans-Serif" font-size="10.00">sourcecode/dbe/apps</text>
<text text-anchor="middle" x="869.12" y="-5.75" font-family="Helvetica,sans-Serif" font-size="10.00">/Main.cpp</text>
</a>
</g>
</g>
<!-- Node5&#45;&gt;Node6 -->
<g id="edge7_Node000005_Node000006" class="edge">
<title>Node5&#45;&gt;Node6</title>
<g id="a_edge7_Node000005_Node000006"><a xlink:title=" ">
<path fill="none" stroke="#63b8ff" d="M774.35,-61.2C794.95,-51.43 819.46,-39.81 838.39,-30.83"/>
<polygon fill="#63b8ff" stroke="#63b8ff" points="772.89,-58.02 765.35,-65.47 775.89,-64.34 772.89,-58.02"/>
</a>
</g>
</g>
<!-- Node7 -->
<g id="Node000007" class="node">
<title>Node7</title>
<g id="a_Node000007"><a xlink:href="TableTab_8cpp.html" target="_top" xlink:title=" ">
<polygon fill="white" stroke="#666666" points="482.88,-30.5 381.38,-30.5 381.38,0 482.88,0 482.88,-30.5"/>
<text text-anchor="start" x="389.38" y="-17" font-family="Helvetica,sans-Serif" font-size="10.00">sourcecode/dbe/src</text>
<text text-anchor="middle" x="432.12" y="-5.75" font-family="Helvetica,sans-Serif" font-size="10.00">/TableTab.cpp</text>
</a>
</g>
</g>
<!-- Node5&#45;&gt;Node7 -->
<g id="edge8_Node000005_Node000007" class="edge">
<title>Node5&#45;&gt;Node7</title>
<g id="a_edge8_Node000005_Node000007"><a xlink:title=" ">
<path fill="none" stroke="#63b8ff" d="M662.06,-66.62C613.77,-56.87 548.49,-43.38 491.12,-30.5 488.55,-29.92 485.92,-29.32 483.27,-28.71"/>
<polygon fill="#63b8ff" stroke="#63b8ff" points="661.36,-70.05 671.85,-68.6 662.74,-63.19 661.36,-70.05"/>
</a>
</g>
</g>
<!-- Node8 -->
<g id="Node000008" class="node">
<title>Node8</title>
<g id="a_Node000008"><a xlink:href="GraphView_8cpp.html" target="_top" xlink:title=" ">
<polygon fill="white" stroke="#666666" points="1068.62,-30.5 941.62,-30.5 941.62,0 1068.62,0 1068.62,-30.5"/>
<text text-anchor="start" x="949.62" y="-17" font-family="Helvetica,sans-Serif" font-size="10.00">sourcecode/dbe/src</text>
<text text-anchor="middle" x="1005.12" y="-5.75" font-family="Helvetica,sans-Serif" font-size="10.00">/graphical/GraphView.cpp</text>
</a>
</g>
</g>
<!-- Node5&#45;&gt;Node8 -->
<g id="edge9_Node000005_Node000008" class="edge">
<title>Node5&#45;&gt;Node8</title>
<g id="a_edge9_Node000005_Node000008"><a xlink:title=" ">
<path fill="none" stroke="#63b8ff" d="M803.82,-63.99C847.01,-53.74 901.73,-40.77 943.21,-30.93"/>
<polygon fill="#63b8ff" stroke="#63b8ff" points="803.21,-60.53 794.29,-66.25 804.83,-67.34 803.21,-60.53"/>
</a>
</g>
</g>
<!-- Node5&#45;&gt;Node9 -->
<g id="edge10_Node000005_Node000009" class="edge">
<title>Node5&#45;&gt;Node9</title>
<g id="a_edge10_Node000005_Node000009"><a xlink:title=" ">
<path fill="none" stroke="#63b8ff" d="M804.07,-66.77C804.76,-66.68 805.44,-66.59 806.12,-66.5 1066.72,-33.26 1135.53,-63.74 1396.12,-30.5 1399.2,-30.11 1402.34,-29.66 1405.5,-29.18"/>
<polygon fill="#63b8ff" stroke="#63b8ff" points="803.66,-63.29 794.28,-68.22 804.68,-70.22 803.66,-63.29"/>
</a>
</g>
</g>
<!-- Node10 -->
<g id="Node000010" class="node">
<title>Node10</title>
<g id="a_Node000010"><a xlink:href="CustomTableView_8cpp.html" target="_top" xlink:title=" ">
<polygon fill="white" stroke="#666666" points="363,-30.5 205.25,-30.5 205.25,0 363,0 363,-30.5"/>
<text text-anchor="start" x="213.25" y="-17" font-family="Helvetica,sans-Serif" font-size="10.00">sourcecode/dbe/src</text>
<text text-anchor="middle" x="284.12" y="-5.75" font-family="Helvetica,sans-Serif" font-size="10.00">/structure/CustomTableView.cpp</text>
</a>
</g>
</g>
<!-- Node5&#45;&gt;Node10 -->
<g id="edge11_Node000005_Node000010" class="edge">
<title>Node5&#45;&gt;Node10</title>
<g id="a_edge11_Node000005_Node000010"><a xlink:title=" ">
<path fill="none" stroke="#63b8ff" d="M662.03,-71.33C589.18,-61.56 472.65,-45.63 372.12,-30.5 369.22,-30.06 366.26,-29.61 363.27,-29.15"/>
<polygon fill="#63b8ff" stroke="#63b8ff" points="661.47,-74.78 671.84,-72.64 662.39,-67.85 661.47,-74.78"/>
</a>
</g>
</g>
<!-- Node11 -->
<g id="Node000011" class="node">
<title>Node11</title>
<g id="a_Node000011"><a xlink:href="FileModel_8cpp.html" target="_top" xlink:title=" ">
<polygon fill="white" stroke="#666666" points="1207.25,-30.5 1087,-30.5 1087,0 1207.25,0 1207.25,-30.5"/>
<text text-anchor="start" x="1095" y="-17" font-family="Helvetica,sans-Serif" font-size="10.00">sourcecode/dbe/src</text>
<text text-anchor="middle" x="1147.12" y="-5.75" font-family="Helvetica,sans-Serif" font-size="10.00">/structure/FileModel.cpp</text>
</a>
</g>
</g>
<!-- Node5&#45;&gt;Node11 -->
<g id="edge12_Node000005_Node000011" class="edge">
<title>Node5&#45;&gt;Node11</title>
<g id="a_edge12_Node000005_Node000011"><a xlink:title=" ">
<path fill="none" stroke="#63b8ff" d="M804.08,-66.84C804.77,-66.72 805.45,-66.61 806.12,-66.5 926.47,-46.81 957.89,-50.84 1078.12,-30.5 1080.9,-30.03 1083.73,-29.53 1086.59,-29.01"/>
<polygon fill="#63b8ff" stroke="#63b8ff" points="803.58,-63.37 794.32,-68.53 804.77,-70.27 803.58,-63.37"/>
</a>
</g>
</g>
<!-- Node12 -->
<g id="Node000012" class="node">
<title>Node12</title>
<g id="a_Node000012"><a xlink:href="BatchChangeWidget_8cpp.html" target="_top" xlink:title=" ">
<polygon fill="white" stroke="#666666" points="1387.25,-30.5 1225,-30.5 1225,0 1387.25,0 1387.25,-30.5"/>
<text text-anchor="start" x="1233" y="-17" font-family="Helvetica,sans-Serif" font-size="10.00">sourcecode/dbe/src</text>
<text text-anchor="middle" x="1306.12" y="-5.75" font-family="Helvetica,sans-Serif" font-size="10.00">/widgets/BatchChangeWidget.cpp</text>
</a>
</g>
</g>
<!-- Node5&#45;&gt;Node12 -->
<g id="edge13_Node000005_Node000012" class="edge">
<title>Node5&#45;&gt;Node12</title>
<g id="a_edge13_Node000005_Node000012"><a xlink:title=" ">
<path fill="none" stroke="#63b8ff" d="M804.08,-66.79C804.76,-66.69 805.45,-66.6 806.12,-66.5 987.25,-40.94 1034.57,-52.82 1216.12,-30.5 1218.95,-30.15 1221.83,-29.78 1224.73,-29.4"/>
<polygon fill="#63b8ff" stroke="#63b8ff" points="803.62,-63.32 794.29,-68.34 804.71,-70.24 803.62,-63.32"/>
</a>
</g>
</g>
<!-- Node13 -->
<g id="Node000013" class="node">
<title>Node13</title>
<g id="a_Node000013"><a xlink:href="IncludeFileWidget_8cpp.html" target="_top" xlink:title=" ">
<polygon fill="white" stroke="#666666" points="651.62,-30.5 500.62,-30.5 500.62,0 651.62,0 651.62,-30.5"/>
<text text-anchor="start" x="508.62" y="-17" font-family="Helvetica,sans-Serif" font-size="10.00">sourcecode/dbe/src</text>
<text text-anchor="middle" x="576.12" y="-5.75" font-family="Helvetica,sans-Serif" font-size="10.00">/widgets/IncludeFileWidget.cpp</text>
</a>
</g>
</g>
<!-- Node5&#45;&gt;Node13 -->
<g id="edge14_Node000005_Node000013" class="edge">
<title>Node5&#45;&gt;Node13</title>
<g id="a_edge14_Node000005_Node000013"><a xlink:title=" ">
<path fill="none" stroke="#63b8ff" d="M686.87,-61.75C662.92,-51.91 634.11,-40.07 611.88,-30.94"/>
<polygon fill="#63b8ff" stroke="#63b8ff" points="685.52,-64.98 696.1,-65.54 688.18,-58.5 685.52,-64.98"/>
</a>
</g>
</g>
<!-- Node14 -->
<g id="Node000014" class="node">
<title>Node14</title>
<g id="a_Node000014"><a xlink:href="ObjectEditor_8cpp.html" target="_top" xlink:title=" ">
<polygon fill="white" stroke="#666666" points="796.62,-30.5 669.62,-30.5 669.62,0 796.62,0 796.62,-30.5"/>
<text text-anchor="start" x="677.62" y="-17" font-family="Helvetica,sans-Serif" font-size="10.00">sourcecode/dbe/src</text>
<text text-anchor="middle" x="733.12" y="-5.75" font-family="Helvetica,sans-Serif" font-size="10.00">/widgets/ObjectEditor.cpp</text>
</a>
</g>
</g>
<!-- Node5&#45;&gt;Node14 -->
<g id="edge15_Node000005_Node000014" class="edge">
<title>Node5&#45;&gt;Node14</title>
<g id="a_edge15_Node000005_Node000014"><a xlink:title=" ">
<path fill="none" stroke="#63b8ff" d="M733.12,-54.81C733.12,-46.64 733.12,-37.91 733.12,-30.83"/>
<polygon fill="#63b8ff" stroke="#63b8ff" points="729.63,-54.6 733.13,-64.6 736.63,-54.6 729.63,-54.6"/>
</a>
</g>
</g>
<!-- Node17&#45;&gt;Node5 -->
<g id="edge25_Node000017_Node000005" class="edge">
<title>Node17&#45;&gt;Node5</title>
<g id="a_edge25_Node000017_Node000005"><a xlink:title=" ">
<path fill="none" stroke="#63b8ff" d="M692.37,-262.93C700.57,-253.5 709.01,-241.98 714.12,-230 733.54,-184.48 734.52,-124.41 733.8,-97.22"/>
<polygon fill="#63b8ff" stroke="#63b8ff" points="689.91,-260.44 685.72,-270.17 695.06,-265.17 689.91,-260.44"/>
</a>
</g>
</g>
<!-- Node18 -->
<g id="Node000018" class="node">
<title>Node18</title>
<g id="a_Node000018"><a xlink:href="CustomTableView_8hpp.html" target="_top" xlink:title=" ">
<polygon fill="white" stroke="#666666" points="546.75,-230 411.5,-230 411.5,-199.5 546.75,-199.5 546.75,-230"/>
<text text-anchor="start" x="419.5" y="-216.5" font-family="Helvetica,sans-Serif" font-size="10.00">sourcecode/dbe/include</text>
<text text-anchor="middle" x="479.12" y="-205.25" font-family="Helvetica,sans-Serif" font-size="10.00">/dbe/CustomTableView.hpp</text>
</a>
</g>
</g>
<!-- Node17&#45;&gt;Node18 -->
<g id="edge20_Node000017_Node000018" class="edge">
<title>Node17&#45;&gt;Node18</title>
<g id="a_edge20_Node000017_Node000018"><a xlink:title=" ">
<path fill="none" stroke="#63b8ff" d="M618.63,-267.24C587.41,-255.71 547.9,-241.13 518.9,-230.43"/>
<polygon fill="#63b8ff" stroke="#63b8ff" points="617.28,-270.47 627.87,-270.65 619.71,-263.9 617.28,-270.47"/>
</a>
</g>
</g>
<!-- Node19 -->
<g id="Node000019" class="node">
<title>Node19</title>
<g id="a_Node000019"><a xlink:href="TableTab_8hpp.html" target="_top" xlink:title=" ">
<polygon fill="white" stroke="#666666" points="556.5,-163.5 437.75,-163.5 437.75,-133 556.5,-133 556.5,-163.5"/>
<text text-anchor="start" x="445.75" y="-150" font-family="Helvetica,sans-Serif" font-size="10.00">sourcecode/dbe/include</text>
<text text-anchor="middle" x="497.12" y="-138.75" font-family="Helvetica,sans-Serif" font-size="10.00">/dbe/TableTab.hpp</text>
</a>
</g>
</g>
<!-- Node17&#45;&gt;Node19 -->
<g id="edge26_Node000017_Node000019" class="edge">
<title>Node17&#45;&gt;Node19</title>
<g id="a_edge26_Node000017_Node000019"><a xlink:title=" ">
<path fill="none" stroke="#63b8ff" d="M639.71,-264.53C625.76,-254.26 608.94,-241.67 594.12,-230 565.55,-207.49 533.25,-180.22 514.07,-163.83"/>
<polygon fill="#63b8ff" stroke="#63b8ff" points="637.49,-267.24 647.63,-270.33 641.63,-261.6 637.49,-267.24"/>
</a>
</g>
</g>
<!-- Node17&#45;&gt;Node20 -->
<g id="edge27_Node000017_Node000020" class="edge">
<title>Node17&#45;&gt;Node20</title>
<g id="a_edge27_Node000017_Node000020"><a xlink:title=" ">
<path fill="none" stroke="#63b8ff" d="M606.16,-268.38C602.77,-267.55 599.41,-266.75 596.12,-266 510.63,-246.46 488.16,-246.99 402.12,-230 399.4,-229.46 396.62,-228.91 393.81,-228.34"/>
<polygon fill="#63b8ff" stroke="#63b8ff" points="605,-271.7 615.55,-270.76 606.71,-264.91 605,-271.7"/>
</a>
</g>
</g>
<!-- Node23 -->
<g id="Node000023" class="node">
<title>Node23</title>
<g id="a_Node000023"><a xlink:href="table_8cpp.html" target="_top" xlink:title=" ">
<polygon fill="white" stroke="#666666" points="704.88,-230 603.38,-230 603.38,-199.5 704.88,-199.5 704.88,-230"/>
<text text-anchor="start" x="611.38" y="-216.5" font-family="Helvetica,sans-Serif" font-size="10.00">sourcecode/dbe/src</text>
<text text-anchor="middle" x="654.12" y="-205.25" font-family="Helvetica,sans-Serif" font-size="10.00">/structure/table.cpp</text>
</a>
</g>
</g>
<!-- Node17&#45;&gt;Node23 -->
<g id="edge33_Node000017_Node000023" class="edge">
<title>Node17&#45;&gt;Node23</title>
<g id="a_edge33_Node000017_Node000023"><a xlink:title=" ">
<path fill="none" stroke="#63b8ff" d="M663.64,-260.23C661.48,-250.13 659.08,-238.91 657.23,-230.26"/>
<polygon fill="#63b8ff" stroke="#63b8ff" points="660.19,-260.82 665.7,-269.86 667.03,-259.35 660.19,-260.82"/>
</a>
</g>
</g>
<!-- Node18&#45;&gt;Node10 -->
<g id="edge24_Node000018_Node000010" class="edge">
<title>Node18&#45;&gt;Node10</title>
<g id="a_edge24_Node000018_Node000010"><a xlink:title=" ">
<path fill="none" stroke="#63b8ff" d="M456.57,-191.14C447.97,-182.5 438.09,-172.55 429.12,-163.5 381.17,-115.05 324.53,-57.41 298.51,-30.9"/>
<polygon fill="#63b8ff" stroke="#63b8ff" points="454.06,-193.57 463.6,-198.18 459.02,-188.63 454.06,-193.57"/>
</a>
</g>
</g>
<!-- Node18&#45;&gt;Node19 -->
<g id="edge21_Node000018_Node000019" class="edge">
<title>Node18&#45;&gt;Node19</title>
<g id="a_edge21_Node000018_Node000019"><a xlink:title=" ">
<path fill="none" stroke="#63b8ff" d="M486.29,-188.09C488.59,-179.84 491.06,-170.99 493.06,-163.83"/>
<polygon fill="#63b8ff" stroke="#63b8ff" points="482.93,-187.08 483.62,-197.66 489.68,-188.96 482.93,-187.08"/>
</a>
</g>
</g>
<!-- Node19&#45;&gt;Node5 -->
<g id="edge22_Node000019_Node000005" class="edge">
<title>Node19&#45;&gt;Node5</title>
<g id="a_edge22_Node000019_Node000005"><a xlink:title=" ">
<path fill="none" stroke="#63b8ff" d="M561.65,-129.62C598.64,-119.51 644.52,-106.97 679.51,-97.4"/>
<polygon fill="#63b8ff" stroke="#63b8ff" points="561.16,-126.12 552.43,-132.13 563,-132.87 561.16,-126.12"/>
</a>
</g>
</g>
<!-- Node19&#45;&gt;Node7 -->
<g id="edge23_Node000019_Node000007" class="edge">
<title>Node19&#45;&gt;Node7</title>
<g id="a_edge23_Node000019_Node000007"><a xlink:title=" ">
<path fill="none" stroke="#63b8ff" d="M484.85,-122.52C471.43,-95.46 450.36,-53.01 439.36,-30.83"/>
<polygon fill="#63b8ff" stroke="#63b8ff" points="481.67,-123.97 489.25,-131.37 487.94,-120.86 481.67,-123.97"/>
</a>
</g>
</g>
<!-- Node20&#45;&gt;Node5 -->
<g id="edge28_Node000020_Node000005" class="edge">
<title>Node20&#45;&gt;Node5</title>
<g id="a_edge28_Node000020_Node000005"><a xlink:title=" ">
<path fill="none" stroke="#63b8ff" d="M354.27,-190.79C372.04,-172.11 399.63,-146.68 429.12,-133 508.35,-96.27 610.16,-85.95 673.53,-83.29"/>
<polygon fill="#63b8ff" stroke="#63b8ff" points="351.85,-188.25 347.63,-197.97 356.99,-193 351.85,-188.25"/>
</a>
</g>
</g>
<!-- Node20&#45;&gt;Node10 -->
<g id="edge31_Node000020_Node000010" class="edge">
<title>Node20&#45;&gt;Node10</title>
<g id="a_edge31_Node000020_Node000010"><a xlink:title=" ">
<path fill="none" stroke="#63b8ff" d="M328.28,-188.06C324.61,-172.17 319.72,-151.37 315.12,-133 305.91,-96.18 294.23,-53.06 288.17,-30.96"/>
<polygon fill="#63b8ff" stroke="#63b8ff" points="324.83,-188.69 330.48,-197.66 331.65,-187.13 324.83,-188.69"/>
</a>
</g>
</g>
<!-- Node20&#45;&gt;Node19 -->
<g id="edge29_Node000020_Node000019" class="edge">
<title>Node20&#45;&gt;Node19</title>
<g id="a_edge29_Node000020_Node000019"><a xlink:title=" ">
<path fill="none" stroke="#63b8ff" d="M381.81,-194.88C406.75,-185.01 436.82,-173.11 460,-163.94"/>
<polygon fill="#63b8ff" stroke="#63b8ff" points="380.53,-191.62 372.52,-198.56 383.11,-198.13 380.53,-191.62"/>
</a>
</g>
</g>
<!-- Node21 -->
<g id="Node000021" class="node">
<title>Node21</title>
<g id="a_Node000021"><a xlink:href="CustomDelegate_8cpp.html" target="_top" xlink:title=" ">
<polygon fill="white" stroke="#666666" points="306.25,-163.5 156,-163.5 156,-133 306.25,-133 306.25,-163.5"/>
<text text-anchor="start" x="164" y="-150" font-family="Helvetica,sans-Serif" font-size="10.00">sourcecode/dbe/src</text>
<text text-anchor="middle" x="231.12" y="-138.75" font-family="Helvetica,sans-Serif" font-size="10.00">/structure/CustomDelegate.cpp</text>
</a>
</g>
</g>
<!-- Node20&#45;&gt;Node21 -->
<g id="edge30_Node000020_Node000021" class="edge">
<title>Node20&#45;&gt;Node21</title>
<g id="a_edge30_Node000020_Node000021"><a xlink:title=" ">
<path fill="none" stroke="#63b8ff" d="M301.17,-193.11C285.94,-183.58 268.22,-172.48 254.4,-163.83"/>
<polygon fill="#63b8ff" stroke="#63b8ff" points="299.14,-195.97 309.47,-198.31 302.85,-190.04 299.14,-195.97"/>
</a>
</g>
</g>
<!-- Node22 -->
<g id="Node000022" class="node">
<title>Node22</title>
<g id="a_Node000022"><a xlink:href="tableselection_8cpp.html" target="_top" xlink:title=" ">
<polygon fill="white" stroke="#666666" points="138.25,-163.5 0,-163.5 0,-133 138.25,-133 138.25,-163.5"/>
<text text-anchor="start" x="8" y="-150" font-family="Helvetica,sans-Serif" font-size="10.00">sourcecode/dbe/src</text>
<text text-anchor="middle" x="69.12" y="-138.75" font-family="Helvetica,sans-Serif" font-size="10.00">/structure/tableselection.cpp</text>
</a>
</g>
</g>
<!-- Node20&#45;&gt;Node22 -->
<g id="edge32_Node000020_Node000022" class="edge">
<title>Node20&#45;&gt;Node22</title>
<g id="a_edge32_Node000020_Node000022"><a xlink:title=" ">
<path fill="none" stroke="#63b8ff" d="M263.14,-196.47C221.46,-186.33 169.35,-173.64 129.63,-163.98"/>
<polygon fill="#63b8ff" stroke="#63b8ff" points="262.31,-199.87 272.85,-198.84 263.96,-193.07 262.31,-199.87"/>
</a>
</g>
</g>
<!-- Node24&#45;&gt;Node5 -->
<g id="edge36_Node000024_Node000005" class="edge">
<title>Node24&#45;&gt;Node5</title>
<g id="a_edge36_Node000024_Node000005"><a xlink:title=" ">
<path fill="none" stroke="#63b8ff" d="M894.98,-129.35C860.03,-119.29 816.94,-106.89 784.01,-97.4"/>
<polygon fill="#63b8ff" stroke="#63b8ff" points="893.98,-132.71 904.56,-132.11 895.92,-125.98 893.98,-132.71"/>
</a>
</g>
</g>
<!-- Node24&#45;&gt;Node15 -->
<g id="edge37_Node000024_Node000015" class="edge">
<title>Node24&#45;&gt;Node15</title>
<g id="a_edge37_Node000024_Node000015"><a xlink:title=" ">
<path fill="none" stroke="#63b8ff" d="M994.2,-127.16C1012.01,-117.5 1032.97,-106.14 1049.23,-97.33"/>
<polygon fill="#63b8ff" stroke="#63b8ff" points="992.58,-124.05 985.46,-131.89 995.92,-130.2 992.58,-124.05"/>
</a>
</g>
</g>
<!-- Node24&#45;&gt;Node16 -->
<g id="edge38_Node000024_Node000016" class="edge">
<title>Node24&#45;&gt;Node16</title>
<g id="a_edge38_Node000024_Node000016"><a xlink:title=" ">
<path fill="none" stroke="#63b8ff" d="M941.34,-123.01C935.71,-114.37 929.55,-104.91 924.62,-97.33"/>
<polygon fill="#63b8ff" stroke="#63b8ff" points="938.38,-124.88 946.77,-131.35 944.24,-121.06 938.38,-124.88"/>
</a>
</g>
</g>
<!-- Node25 -->
<g id="Node000025" class="node">
<title>Node25</title>
<g id="a_Node000025"><a xlink:href="tree_8cpp.html" target="_top" xlink:title=" ">
<polygon fill="white" stroke="#666666" points="1271.88,-97 1170.38,-97 1170.38,-66.5 1271.88,-66.5 1271.88,-97"/>
<text text-anchor="start" x="1178.38" y="-83.5" font-family="Helvetica,sans-Serif" font-size="10.00">sourcecode/dbe/src</text>
<text text-anchor="middle" x="1221.12" y="-72.25" font-family="Helvetica,sans-Serif" font-size="10.00">/structure/tree.cpp</text>
</a>
</g>
</g>
<!-- Node24&#45;&gt;Node25 -->
<g id="edge39_Node000024_Node000025" class="edge">
<title>Node24&#45;&gt;Node25</title>
<g id="a_edge39_Node000024_Node000025"><a xlink:title=" ">
<path fill="none" stroke="#63b8ff" d="M1027.83,-129.97C1072.72,-119.01 1129.76,-105.07 1170.21,-95.19"/>
<polygon fill="#63b8ff" stroke="#63b8ff" points="1027.05,-126.56 1018.17,-132.34 1028.72,-133.36 1027.05,-126.56"/>
</a>
</g>
</g>
<!-- Node26 -->
<g id="Node000026" class="node">
<title>Node26</title>
<g id="a_Node000026"><a xlink:href="treeselection_8cpp.html" target="_top" xlink:title=" ">
<polygon fill="white" stroke="#666666" points="1424,-97 1290.25,-97 1290.25,-66.5 1424,-66.5 1424,-97"/>
<text text-anchor="start" x="1298.25" y="-83.5" font-family="Helvetica,sans-Serif" font-size="10.00">sourcecode/dbe/src</text>
<text text-anchor="middle" x="1357.12" y="-72.25" font-family="Helvetica,sans-Serif" font-size="10.00">/structure/treeselection.cpp</text>
</a>
</g>
</g>
<!-- Node24&#45;&gt;Node26 -->
<g id="edge40_Node000024_Node000026" class="edge">
<title>Node24&#45;&gt;Node26</title>
<g id="a_edge40_Node000024_Node000026"><a xlink:title=" ">
<path fill="none" stroke="#63b8ff" d="M1028.09,-132.73C1140.81,-113.53 1171.71,-114.97 1281.12,-97 1284.04,-96.52 1287.01,-96.02 1290.02,-95.5"/>
<polygon fill="#63b8ff" stroke="#63b8ff" points="1027.67,-129.25 1018.41,-134.4 1028.86,-136.15 1027.67,-129.25"/>
</a>
</g>
</g>
<!-- Node27&#45;&gt;Node5 -->
<g id="edge42_Node000027_Node000005" class="edge">
<title>Node27&#45;&gt;Node5</title>
<g id="a_edge42_Node000027_Node000005"><a xlink:title=" ">
<path fill="none" stroke="#63b8ff" d="M1023.03,-132.64C937.14,-116.51 849.4,-101.73 792.79,-92.42"/>
<polygon fill="#63b8ff" stroke="#63b8ff" points="1022.35,-136.07 1032.82,-134.49 1023.65,-129.2 1022.35,-136.07"/>
</a>
</g>
</g>
<!-- Node27&#45;&gt;Node15 -->
<g id="edge43_Node000027_Node000015" class="edge">
<title>Node27&#45;&gt;Node15</title>
<g id="a_edge43_Node000027_Node000015"><a xlink:title=" ">
<path fill="none" stroke="#63b8ff" d="M1086.96,-121.59C1084.66,-113.34 1082.19,-104.49 1080.19,-97.33"/>
<polygon fill="#63b8ff" stroke="#63b8ff" points="1083.57,-122.46 1089.63,-131.16 1090.32,-120.58 1083.57,-122.46"/>
</a>
</g>
</g>
<!-- Node27&#45;&gt;Node26 -->
<g id="edge44_Node000027_Node000026" class="edge">
<title>Node27&#45;&gt;Node26</title>
<g id="a_edge44_Node000027_Node000026"><a xlink:title=" ">
<path fill="none" stroke="#63b8ff" d="M1164.9,-129.89C1206.26,-119.75 1257.89,-107.09 1297.23,-97.44"/>
<polygon fill="#63b8ff" stroke="#63b8ff" points="1164.15,-126.47 1155.27,-132.25 1165.82,-133.27 1164.15,-126.47"/>
</a>
</g>
</g>
</g>
</svg>
