<?xml version="1.0" encoding="UTF-8" standalone="no"?>
<!DOCTYPE svg PUBLIC "-//W3C//DTD SVG 1.1//EN"
 "http://www.w3.org/Graphics/SVG/1.1/DTD/svg11.dtd">
<!-- Generated by graphviz version 9.0.0 (20230911.1827)
 -->
<!-- Title: sourcecode/dbe/include/dbe/msghandler.hpp Pages: 1 -->
<svg width="727pt" height="204pt"
 viewBox="0.00 0.00 727.02 204.25" xmlns="http://www.w3.org/2000/svg" xmlns:xlink="http://www.w3.org/1999/xlink">
<g id="graph0" class="graph" transform="scale(1 1) rotate(0) translate(4 200.25)">
<title>sourcecode/dbe/include/dbe/msghandler.hpp</title>
<!-- Node1 -->
<g id="Node000001" class="node">
<title>Node1</title>
<g id="a_Node000001"><a xlink:title=" ">
<polygon fill="#999999" stroke="#666666" points="365.9,-196.25 247.15,-196.25 247.15,-165.75 365.9,-165.75 365.9,-196.25"/>
<text text-anchor="start" x="255.15" y="-182.75" font-family="Helvetica,sans-Serif" font-size="10.00">sourcecode/dbe/include</text>
<text text-anchor="middle" x="306.52" y="-171.5" font-family="Helvetica,sans-Serif" font-size="10.00">/dbe/msghandler.hpp</text>
</a>
</g>
</g>
<!-- Node2 -->
<g id="Node000002" class="node">
<title>Node2</title>
<g id="a_Node000002"><a xlink:title=" ">
<polygon fill="#e0e0e0" stroke="#999999" points="222.77,-19.25 172.27,-19.25 172.27,0 222.77,0 222.77,-19.25"/>
<text text-anchor="middle" x="197.52" y="-5.75" font-family="Helvetica,sans-Serif" font-size="10.00">memory</text>
</a>
</g>
</g>
<!-- Node1&#45;&gt;Node2 -->
<g id="edge1_Node000001_Node000002" class="edge">
<title>Node1&#45;&gt;Node2</title>
<g id="a_edge1_Node000001_Node000002"><a xlink:title=" ">
<path fill="none" stroke="#63b8ff" d="M246.87,-178.63C169.29,-175.43 40.16,-164.84 10.52,-129.75 -37.61,-72.76 94.29,-33.79 161.23,-18.21"/>
<polygon fill="#63b8ff" stroke="#63b8ff" points="161.69,-21.7 170.68,-16.08 160.15,-14.87 161.69,-21.7"/>
</a>
</g>
</g>
<!-- Node3 -->
<g id="Node000003" class="node">
<title>Node3</title>
<g id="a_Node000003"><a xlink:title=" ">
<polygon fill="#e0e0e0" stroke="#999999" points="61.65,-129.75 19.4,-129.75 19.4,-110.5 61.65,-110.5 61.65,-129.75"/>
<text text-anchor="middle" x="40.52" y="-116.25" font-family="Helvetica,sans-Serif" font-size="10.00">mutex</text>
</a>
</g>
</g>
<!-- Node1&#45;&gt;Node3 -->
<g id="edge2_Node000001_Node000003" class="edge">
<title>Node1&#45;&gt;Node3</title>
<g id="a_edge2_Node000001_Node000003"><a xlink:title=" ">
<path fill="none" stroke="#63b8ff" d="M247.1,-168.55C201.74,-159.53 137.48,-146.18 72.89,-130.22"/>
<polygon fill="#63b8ff" stroke="#63b8ff" points="74.12,-126.92 63.57,-127.89 72.43,-133.71 74.12,-126.92"/>
</a>
</g>
</g>
<!-- Node4 -->
<g id="Node000004" class="node">
<title>Node4</title>
<g id="a_Node000004"><a xlink:title=" ">
<polygon fill="#e0e0e0" stroke="#999999" points="123.02,-129.75 80.02,-129.75 80.02,-110.5 123.02,-110.5 123.02,-129.75"/>
<text text-anchor="middle" x="101.52" y="-116.25" font-family="Helvetica,sans-Serif" font-size="10.00">thread</text>
</a>
</g>
</g>
<!-- Node1&#45;&gt;Node4 -->
<g id="edge3_Node000001_Node000004" class="edge">
<title>Node1&#45;&gt;Node4</title>
<g id="a_edge3_Node000001_Node000004"><a xlink:title=" ">
<path fill="none" stroke="#63b8ff" d="M255.32,-165.3C217.34,-154.39 166.71,-139.85 134.1,-130.48"/>
<polygon fill="#63b8ff" stroke="#63b8ff" points="135.4,-127.21 124.83,-127.82 133.47,-133.94 135.4,-127.21"/>
</a>
</g>
</g>
<!-- Node5 -->
<g id="Node000005" class="node">
<title>Node5</title>
<g id="a_Node000005"><a xlink:title=" ">
<polygon fill="#e0e0e0" stroke="#999999" points="235.52,-129.75 141.52,-129.75 141.52,-110.5 235.52,-110.5 235.52,-129.75"/>
<text text-anchor="middle" x="188.52" y="-116.25" font-family="Helvetica,sans-Serif" font-size="10.00">condition_variable</text>
</a>
</g>
</g>
<!-- Node1&#45;&gt;Node5 -->
<g id="edge4_Node000001_Node000005" class="edge">
<title>Node1&#45;&gt;Node5</title>
<g id="a_edge4_Node000001_Node000005"><a xlink:title=" ">
<path fill="none" stroke="#63b8ff" d="M277.05,-165.3C258.65,-156.11 235.08,-144.36 216.89,-135.28"/>
<polygon fill="#63b8ff" stroke="#63b8ff" points="218.48,-132.16 207.97,-130.83 215.36,-138.43 218.48,-132.16"/>
</a>
</g>
</g>
<!-- Node6 -->
<g id="Node000006" class="node">
<title>Node6</title>
<g id="a_Node000006"><a xlink:title=" ">
<polygon fill="#e0e0e0" stroke="#999999" points="295.65,-129.75 253.4,-129.75 253.4,-110.5 295.65,-110.5 295.65,-129.75"/>
<text text-anchor="middle" x="274.52" y="-116.25" font-family="Helvetica,sans-Serif" font-size="10.00">queue</text>
</a>
</g>
</g>
<!-- Node1&#45;&gt;Node6 -->
<g id="edge5_Node000001_Node000006" class="edge">
<title>Node1&#45;&gt;Node6</title>
<g id="a_edge5_Node000001_Node000006"><a xlink:title=" ">
<path fill="none" stroke="#63b8ff" d="M298.61,-165.45C294.49,-157.86 289.4,-148.49 284.95,-140.32"/>
<polygon fill="#63b8ff" stroke="#63b8ff" points="288.03,-138.65 280.18,-131.53 281.88,-141.99 288.03,-138.65"/>
</a>
</g>
</g>
<!-- Node7 -->
<g id="Node000007" class="node">
<title>Node7</title>
<g id="a_Node000007"><a xlink:title=" ">
<polygon fill="#e0e0e0" stroke="#999999" points="363.02,-129.75 314.02,-129.75 314.02,-110.5 363.02,-110.5 363.02,-129.75"/>
<text text-anchor="middle" x="338.52" y="-116.25" font-family="Helvetica,sans-Serif" font-size="10.00">fstream</text>
</a>
</g>
</g>
<!-- Node1&#45;&gt;Node7 -->
<g id="edge6_Node000001_Node000007" class="edge">
<title>Node1&#45;&gt;Node7</title>
<g id="a_edge6_Node000001_Node000007"><a xlink:title=" ">
<path fill="none" stroke="#63b8ff" d="M314.43,-165.45C318.56,-157.86 323.65,-148.49 328.09,-140.32"/>
<polygon fill="#63b8ff" stroke="#63b8ff" points="331.17,-141.99 332.87,-131.53 325.02,-138.65 331.17,-141.99"/>
</a>
</g>
</g>
<!-- Node8 -->
<g id="Node000008" class="node">
<title>Node8</title>
<g id="a_Node000008"><a xlink:title=" ">
<polygon fill="#e0e0e0" stroke="#999999" points="434.27,-129.75 380.77,-129.75 380.77,-110.5 434.27,-110.5 434.27,-129.75"/>
<text text-anchor="middle" x="407.52" y="-116.25" font-family="Helvetica,sans-Serif" font-size="10.00">iostream</text>
</a>
</g>
</g>
<!-- Node1&#45;&gt;Node8 -->
<g id="edge7_Node000001_Node000008" class="edge">
<title>Node1&#45;&gt;Node8</title>
<g id="a_edge7_Node000001_Node000008"><a xlink:title=" ">
<path fill="none" stroke="#63b8ff" d="M331.75,-165.3C347.13,-156.33 366.73,-144.91 382.14,-135.92"/>
<polygon fill="#63b8ff" stroke="#63b8ff" points="383.85,-138.98 390.73,-130.92 380.32,-132.93 383.85,-138.98"/>
</a>
</g>
</g>
<!-- Node9 -->
<g id="Node000009" class="node">
<title>Node9</title>
<g id="a_Node000009"><a xlink:title=" ">
<polygon fill="#e0e0e0" stroke="#999999" points="495.02,-129.75 452.02,-129.75 452.02,-110.5 495.02,-110.5 495.02,-129.75"/>
<text text-anchor="middle" x="473.52" y="-116.25" font-family="Helvetica,sans-Serif" font-size="10.00">vector</text>
</a>
</g>
</g>
<!-- Node1&#45;&gt;Node9 -->
<g id="edge8_Node000001_Node000009" class="edge">
<title>Node1&#45;&gt;Node9</title>
<g id="a_edge8_Node000001_Node000009"><a xlink:title=" ">
<path fill="none" stroke="#63b8ff" d="M348.23,-165.3C376.98,-155.16 414.62,-141.89 441.11,-132.55"/>
<polygon fill="#63b8ff" stroke="#63b8ff" points="442.03,-135.94 450.3,-129.31 439.7,-129.34 442.03,-135.94"/>
</a>
</g>
</g>
<!-- Node10 -->
<g id="Node000010" class="node">
<title>Node10</title>
<g id="a_Node000010"><a xlink:href="dbe_2include_2dbe_2macro_8hpp.html" target="_top" xlink:title=" ">
<polygon fill="white" stroke="#666666" points="592.4,-129.75 512.65,-129.75 512.65,-110.5 592.4,-110.5 592.4,-129.75"/>
<text text-anchor="middle" x="552.52" y="-116.25" font-family="Helvetica,sans-Serif" font-size="10.00">dbe/macro.hpp</text>
</a>
</g>
</g>
<!-- Node1&#45;&gt;Node10 -->
<g id="edge9_Node000001_Node000010" class="edge">
<title>Node1&#45;&gt;Node10</title>
<g id="a_edge9_Node000001_Node000010"><a xlink:title=" ">
<path fill="none" stroke="#63b8ff" d="M366.39,-165.67C408.46,-155.6 464.04,-142.3 503.49,-132.86"/>
<polygon fill="#63b8ff" stroke="#63b8ff" points="504.29,-136.27 513.2,-130.54 502.66,-129.46 504.29,-136.27"/>
</a>
</g>
</g>
<!-- Node14 -->
<g id="Node000014" class="node">
<title>Node14</title>
<g id="a_Node000014"><a xlink:href="msghandler_8hxx.html" target="_top" xlink:title=" ">
<polygon fill="white" stroke="#666666" points="719.02,-129.75 610.02,-129.75 610.02,-110.5 719.02,-110.5 719.02,-129.75"/>
<text text-anchor="middle" x="664.52" y="-116.25" font-family="Helvetica,sans-Serif" font-size="10.00">detail/msghandler.hxx</text>
</a>
</g>
</g>
<!-- Node1&#45;&gt;Node14 -->
<g id="edge15_Node000001_Node000014" class="edge">
<title>Node1&#45;&gt;Node14</title>
<g id="a_edge15_Node000001_Node000014"><a xlink:title=" ">
<path fill="none" stroke="#63b8ff" d="M366.04,-170.21C430.13,-159.67 531.84,-142.95 598.39,-132"/>
<polygon fill="#63b8ff" stroke="#63b8ff" points="598.78,-135.48 608.07,-130.41 597.64,-128.58 598.78,-135.48"/>
</a>
</g>
</g>
<!-- Node11 -->
<g id="Node000011" class="node">
<title>Node11</title>
<g id="a_Node000011"><a xlink:title=" ">
<polygon fill="#e0e0e0" stroke="#999999" points="562.52,-19.25 522.52,-19.25 522.52,0 562.52,0 562.52,-19.25"/>
<text text-anchor="middle" x="542.52" y="-5.75" font-family="Helvetica,sans-Serif" font-size="10.00">string</text>
</a>
</g>
</g>
<!-- Node10&#45;&gt;Node11 -->
<g id="edge10_Node000010_Node000011" class="edge">
<title>Node10&#45;&gt;Node11</title>
<g id="a_edge10_Node000010_Node000011"><a xlink:title=" ">
<path fill="none" stroke="#63b8ff" d="M551.7,-110.25C550.12,-93 546.57,-54.58 544.38,-30.81"/>
<polygon fill="#63b8ff" stroke="#63b8ff" points="547.89,-30.77 543.49,-21.13 540.92,-31.41 547.89,-30.77"/>
</a>
</g>
</g>
<!-- Node12 -->
<g id="Node000012" class="node">
<title>Node12</title>
<g id="a_Node000012"><a xlink:href="convenience_8hpp.html" target="_top" xlink:title=" ">
<polygon fill="white" stroke="#666666" points="524.27,-74.5 416.77,-74.5 416.77,-55.25 524.27,-55.25 524.27,-74.5"/>
<text text-anchor="middle" x="470.52" y="-61" font-family="Helvetica,sans-Serif" font-size="10.00">dbe/convenience.hpp</text>
</a>
</g>
</g>
<!-- Node10&#45;&gt;Node12 -->
<g id="edge11_Node000010_Node000012" class="edge">
<title>Node10&#45;&gt;Node12</title>
<g id="a_edge11_Node000010_Node000012"><a xlink:title=" ">
<path fill="none" stroke="#63b8ff" d="M538.61,-110.09C526.36,-102.14 508.27,-90.39 493.81,-81"/>
<polygon fill="#63b8ff" stroke="#63b8ff" points="496.06,-78.29 485.77,-75.78 492.25,-84.16 496.06,-78.29"/>
</a>
</g>
</g>
<!-- Node12&#45;&gt;Node2 -->
<g id="edge12_Node000012_Node000002" class="edge">
<title>Node12&#45;&gt;Node2</title>
<g id="a_edge12_Node000012_Node000002"><a xlink:title=" ">
<path fill="none" stroke="#63b8ff" d="M423.9,-54.78C370.19,-44.3 283.04,-27.31 234.02,-17.74"/>
<polygon fill="#63b8ff" stroke="#63b8ff" points="234.97,-14.36 224.49,-15.88 233.63,-21.23 234.97,-14.36"/>
</a>
</g>
</g>
<!-- Node12&#45;&gt;Node11 -->
<g id="edge13_Node000012_Node000011" class="edge">
<title>Node12&#45;&gt;Node11</title>
<g id="a_edge13_Node000012_Node000011"><a xlink:title=" ">
<path fill="none" stroke="#63b8ff" d="M482.74,-54.84C493.35,-46.99 508.96,-35.45 521.57,-26.12"/>
<polygon fill="#63b8ff" stroke="#63b8ff" points="523.31,-29.19 529.27,-20.42 519.15,-23.56 523.31,-29.19"/>
</a>
</g>
</g>
<!-- Node13 -->
<g id="Node000013" class="node">
<title>Node13</title>
<g id="a_Node000013"><a xlink:title=" ">
<polygon fill="#e0e0e0" stroke="#999999" points="495.4,-19.25 445.65,-19.25 445.65,0 495.4,0 495.4,-19.25"/>
<text text-anchor="middle" x="470.52" y="-5.75" font-family="Helvetica,sans-Serif" font-size="10.00">typeinfo</text>
</a>
</g>
</g>
<!-- Node12&#45;&gt;Node13 -->
<g id="edge14_Node000012_Node000013" class="edge">
<title>Node12&#45;&gt;Node13</title>
<g id="a_edge14_Node000012_Node000013"><a xlink:title=" ">
<path fill="none" stroke="#63b8ff" d="M470.52,-55.08C470.52,-48.57 470.52,-39.42 470.52,-31.12"/>
<polygon fill="#63b8ff" stroke="#63b8ff" points="474.02,-31.12 470.52,-21.12 467.02,-31.12 474.02,-31.12"/>
</a>
</g>
</g>
<!-- Node15 -->
<g id="Node000015" class="node">
<title>Node15</title>
<g id="a_Node000015"><a xlink:title=" ">
<polygon fill="#e0e0e0" stroke="#999999" points="692.4,-74.5 636.65,-74.5 636.65,-55.25 692.4,-55.25 692.4,-74.5"/>
<text text-anchor="middle" x="664.52" y="-61" font-family="Helvetica,sans-Serif" font-size="10.00">algorithm</text>
</a>
</g>
</g>
<!-- Node14&#45;&gt;Node15 -->
<g id="edge16_Node000014_Node000015" class="edge">
<title>Node14&#45;&gt;Node15</title>
<g id="a_edge16_Node000014_Node000015"><a xlink:title=" ">
<path fill="none" stroke="#63b8ff" d="M664.52,-110.33C664.52,-103.82 664.52,-94.67 664.52,-86.37"/>
<polygon fill="#63b8ff" stroke="#63b8ff" points="668.02,-86.37 664.52,-76.37 661.02,-86.37 668.02,-86.37"/>
</a>
</g>
</g>
</g>
</svg>
