<?xml version="1.0" encoding="UTF-8" standalone="no"?>
<!DOCTYPE svg PUBLIC "-//W3C//DTD SVG 1.1//EN"
 "http://www.w3.org/Graphics/SVG/1.1/DTD/svg11.dtd">
<!-- Generated by graphviz version 9.0.0 (20230911.1827)
 -->
<!-- Title: sourcecode/oks/src/oks_utils.hpp Pages: 1 -->
<svg width="729pt" height="227pt"
 viewBox="0.00 0.00 729.38 226.75" xmlns="http://www.w3.org/2000/svg" xmlns:xlink="http://www.w3.org/1999/xlink">
<g id="graph0" class="graph" transform="scale(1 1) rotate(0) translate(4 222.75)">
<title>sourcecode/oks/src/oks_utils.hpp</title>
<!-- Node1 -->
<g id="Node000001" class="node">
<title>Node1</title>
<g id="a_Node000001"><a xlink:title=" ">
<polygon fill="#999999" stroke="#666666" points="436.75,-218.75 335.25,-218.75 335.25,-188.25 436.75,-188.25 436.75,-218.75"/>
<text text-anchor="start" x="343.25" y="-205.25" font-family="Helvetica,sans-Serif" font-size="10.00">sourcecode/oks/src</text>
<text text-anchor="middle" x="386" y="-194" font-family="Helvetica,sans-Serif" font-size="10.00">/oks_utils.hpp</text>
</a>
</g>
</g>
<!-- Node2 -->
<g id="Node000002" class="node">
<title>Node2</title>
<g id="a_Node000002"><a xlink:href="map_8hpp.html" target="_top" xlink:title=" ">
<polygon fill="white" stroke="#666666" points="212.38,-146.62 87.62,-146.62 87.62,-127.38 212.38,-127.38 212.38,-146.62"/>
<text text-anchor="middle" x="150" y="-133.12" font-family="Helvetica,sans-Serif" font-size="10.00">oksdbinterfaces/map.hpp</text>
</a>
</g>
</g>
<!-- Node1&#45;&gt;Node2 -->
<g id="edge1_Node000001_Node000002" class="edge">
<title>Node1&#45;&gt;Node2</title>
<g id="a_edge1_Node000001_Node000002"><a xlink:title=" ">
<path fill="none" stroke="#63b8ff" d="M334.79,-188.5C292.87,-177.05 234.19,-161.01 194.28,-150.1"/>
<polygon fill="#63b8ff" stroke="#63b8ff" points="195.32,-146.76 184.75,-147.5 193.48,-153.51 195.32,-146.76"/>
</a>
</g>
</g>
<!-- Node4 -->
<g id="Node000004" class="node">
<title>Node4</title>
<g id="a_Node000004"><a xlink:title=" ">
<polygon fill="#e0e0e0" stroke="#999999" points="260,-19.25 220,-19.25 220,0 260,0 260,-19.25"/>
<text text-anchor="middle" x="240" y="-5.75" font-family="Helvetica,sans-Serif" font-size="10.00">string</text>
</a>
</g>
</g>
<!-- Node1&#45;&gt;Node4 -->
<g id="edge12_Node000001_Node000004" class="edge">
<title>Node1&#45;&gt;Node4</title>
<g id="a_edge12_Node000001_Node000004"><a xlink:title=" ">
<path fill="none" stroke="#63b8ff" d="M334.93,-194.91C308.21,-188.23 277.33,-175.69 259,-152.25 231.31,-116.84 233.3,-60.61 236.83,-30.77"/>
<polygon fill="#63b8ff" stroke="#63b8ff" points="240.29,-31.29 238.19,-20.91 233.35,-30.33 240.29,-31.29"/>
</a>
</g>
</g>
<!-- Node6 -->
<g id="Node000006" class="node">
<title>Node6</title>
<g id="a_Node000006"><a xlink:href="include_2oks_2exceptions_8hpp.html" target="_top" xlink:title=" ">
<polygon fill="white" stroke="#666666" points="367.62,-146.62 268.38,-146.62 268.38,-127.38 367.62,-127.38 367.62,-146.62"/>
<text text-anchor="middle" x="318" y="-133.12" font-family="Helvetica,sans-Serif" font-size="10.00">oks/exceptions.hpp</text>
</a>
</g>
</g>
<!-- Node1&#45;&gt;Node6 -->
<g id="edge5_Node000001_Node000006" class="edge">
<title>Node1&#45;&gt;Node6</title>
<g id="a_edge5_Node000001_Node000006"><a xlink:title=" ">
<path fill="none" stroke="#63b8ff" d="M370.57,-187.86C360.16,-177.99 346.4,-164.94 335.57,-154.67"/>
<polygon fill="#63b8ff" stroke="#63b8ff" points="338.06,-152.21 328.4,-147.86 333.25,-157.29 338.06,-152.21"/>
</a>
</g>
</g>
<!-- Node9 -->
<g id="Node000009" class="node">
<title>Node9</title>
<g id="a_Node000009"><a xlink:title=" ">
<polygon fill="#e0e0e0" stroke="#999999" points="522,-152.25 386,-152.25 386,-121.75 522,-121.75 522,-152.25"/>
<text text-anchor="start" x="394" y="-138.75" font-family="Helvetica,sans-Serif" font-size="10.00">boost/date_time/posix</text>
<text text-anchor="middle" x="454" y="-127.5" font-family="Helvetica,sans-Serif" font-size="10.00">_time/posix_time_types.hpp</text>
</a>
</g>
</g>
<!-- Node1&#45;&gt;Node9 -->
<g id="edge9_Node000001_Node000009" class="edge">
<title>Node1&#45;&gt;Node9</title>
<g id="a_edge9_Node000001_Node000009"><a xlink:title=" ">
<path fill="none" stroke="#63b8ff" d="M401.43,-187.86C409.95,-179.78 420.72,-169.57 430.28,-160.5"/>
<polygon fill="#63b8ff" stroke="#63b8ff" points="432.69,-163.04 437.53,-153.62 427.87,-157.96 432.69,-163.04"/>
</a>
</g>
</g>
<!-- Node10 -->
<g id="Node000010" class="node">
<title>Node10</title>
<g id="a_Node000010"><a xlink:title=" ">
<polygon fill="#e0e0e0" stroke="#999999" points="668.25,-152.25 539.75,-152.25 539.75,-121.75 668.25,-121.75 668.25,-152.25"/>
<text text-anchor="start" x="547.75" y="-138.75" font-family="Helvetica,sans-Serif" font-size="10.00">boost/date_time/gregorian</text>
<text text-anchor="middle" x="604" y="-127.5" font-family="Helvetica,sans-Serif" font-size="10.00">/gregorian_types.hpp</text>
</a>
</g>
</g>
<!-- Node1&#45;&gt;Node10 -->
<g id="edge10_Node000001_Node000010" class="edge">
<title>Node1&#45;&gt;Node10</title>
<g id="a_edge10_Node000001_Node000010"><a xlink:title=" ">
<path fill="none" stroke="#63b8ff" d="M435.74,-187.78C467.83,-178.29 509.77,-165.88 543.74,-155.83"/>
<polygon fill="#63b8ff" stroke="#63b8ff" points="544.43,-159.28 553.02,-153.08 542.44,-152.56 544.43,-159.28"/>
</a>
</g>
</g>
<!-- Node11 -->
<g id="Node000011" class="node">
<title>Node11</title>
<g id="a_Node000011"><a xlink:title=" ">
<polygon fill="#e0e0e0" stroke="#999999" points="721.38,-146.62 686.62,-146.62 686.62,-127.38 721.38,-127.38 721.38,-146.62"/>
<text text-anchor="middle" x="704" y="-133.12" font-family="Helvetica,sans-Serif" font-size="10.00">map</text>
</a>
</g>
</g>
<!-- Node1&#45;&gt;Node11 -->
<g id="edge11_Node000001_Node000011" class="edge">
<title>Node1&#45;&gt;Node11</title>
<g id="a_edge11_Node000001_Node000011"><a xlink:title=" ">
<path fill="none" stroke="#63b8ff" d="M437.14,-198.56C496.22,-192.91 595.71,-179.94 677,-152.25 677.5,-152.08 678.01,-151.9 678.51,-151.71"/>
<polygon fill="#63b8ff" stroke="#63b8ff" points="679.9,-154.93 687.57,-147.63 677.02,-148.55 679.9,-154.93"/>
</a>
</g>
</g>
<!-- Node3 -->
<g id="Node000003" class="node">
<title>Node3</title>
<g id="a_Node000003"><a xlink:href="string__ptr_8hpp.html" target="_top" xlink:title=" ">
<polygon fill="white" stroke="#666666" points="112,-85.75 0,-85.75 0,-55.25 112,-55.25 112,-85.75"/>
<text text-anchor="start" x="8" y="-72.25" font-family="Helvetica,sans-Serif" font-size="10.00">oksdbinterfaces/string</text>
<text text-anchor="middle" x="56" y="-61" font-family="Helvetica,sans-Serif" font-size="10.00">_ptr.hpp</text>
</a>
</g>
</g>
<!-- Node2&#45;&gt;Node3 -->
<g id="edge2_Node000002_Node000003" class="edge">
<title>Node2&#45;&gt;Node3</title>
<g id="a_edge2_Node000002_Node000003"><a xlink:title=" ">
<path fill="none" stroke="#63b8ff" d="M136.93,-127.03C123.91,-118.09 103.44,-104.05 86.34,-92.32"/>
<polygon fill="#63b8ff" stroke="#63b8ff" points="88.74,-89.72 78.51,-86.95 84.78,-95.49 88.74,-89.72"/>
</a>
</g>
</g>
<!-- Node5 -->
<g id="Node000005" class="node">
<title>Node5</title>
<g id="a_Node000005"><a xlink:title=" ">
<polygon fill="#e0e0e0" stroke="#999999" points="212.38,-80.12 129.62,-80.12 129.62,-60.88 212.38,-60.88 212.38,-80.12"/>
<text text-anchor="middle" x="171" y="-66.62" font-family="Helvetica,sans-Serif" font-size="10.00">unordered_map</text>
</a>
</g>
</g>
<!-- Node2&#45;&gt;Node5 -->
<g id="edge4_Node000002_Node000005" class="edge">
<title>Node2&#45;&gt;Node5</title>
<g id="a_edge4_Node000002_Node000005"><a xlink:title=" ">
<path fill="none" stroke="#63b8ff" d="M152.92,-127.03C155.93,-117.79 160.72,-103.08 164.61,-91.13"/>
<polygon fill="#63b8ff" stroke="#63b8ff" points="167.87,-92.42 167.64,-81.83 161.21,-90.26 167.87,-92.42"/>
</a>
</g>
</g>
<!-- Node3&#45;&gt;Node4 -->
<g id="edge3_Node000003_Node000004" class="edge">
<title>Node3&#45;&gt;Node4</title>
<g id="a_edge3_Node000003_Node000004"><a xlink:title=" ">
<path fill="none" stroke="#63b8ff" d="M101.96,-54.8C135.41,-44.09 179.81,-29.89 209.11,-20.51"/>
<polygon fill="#63b8ff" stroke="#63b8ff" points="210.02,-23.89 218.48,-17.51 207.88,-17.23 210.02,-23.89"/>
</a>
</g>
</g>
<!-- Node6&#45;&gt;Node4 -->
<g id="edge7_Node000006_Node000004" class="edge">
<title>Node6&#45;&gt;Node4</title>
<g id="a_edge7_Node000006_Node000004"><a xlink:title=" ">
<path fill="none" stroke="#63b8ff" d="M312.39,-126.98C299.69,-106.56 268.5,-56.43 251.5,-29.11"/>
<polygon fill="#63b8ff" stroke="#63b8ff" points="254.61,-27.49 246.36,-20.85 248.67,-31.18 254.61,-27.49"/>
</a>
</g>
</g>
<!-- Node7 -->
<g id="Node000007" class="node">
<title>Node7</title>
<g id="a_Node000007"><a xlink:title=" ">
<polygon fill="#e0e0e0" stroke="#999999" points="363.62,-80.12 306.38,-80.12 306.38,-60.88 363.62,-60.88 363.62,-80.12"/>
<text text-anchor="middle" x="335" y="-66.62" font-family="Helvetica,sans-Serif" font-size="10.00">exception</text>
</a>
</g>
</g>
<!-- Node6&#45;&gt;Node7 -->
<g id="edge6_Node000006_Node000007" class="edge">
<title>Node6&#45;&gt;Node7</title>
<g id="a_edge6_Node000006_Node000007"><a xlink:title=" ">
<path fill="none" stroke="#63b8ff" d="M320.36,-127.03C322.77,-117.89 326.59,-103.39 329.73,-91.5"/>
<polygon fill="#63b8ff" stroke="#63b8ff" points="333.11,-92.42 332.27,-81.86 326.34,-90.63 333.11,-92.42"/>
</a>
</g>
</g>
<!-- Node8 -->
<g id="Node000008" class="node">
<title>Node8</title>
<g id="a_Node000008"><a xlink:title=" ">
<polygon fill="#e0e0e0" stroke="#999999" points="434.75,-80.12 381.25,-80.12 381.25,-60.88 434.75,-60.88 434.75,-80.12"/>
<text text-anchor="middle" x="408" y="-66.62" font-family="Helvetica,sans-Serif" font-size="10.00">iostream</text>
</a>
</g>
</g>
<!-- Node6&#45;&gt;Node8 -->
<g id="edge8_Node000006_Node000008" class="edge">
<title>Node6&#45;&gt;Node8</title>
<g id="a_edge8_Node000006_Node000008"><a xlink:title=" ">
<path fill="none" stroke="#63b8ff" d="M330.51,-127.03C344.94,-116.69 368.91,-99.52 386.37,-87"/>
<polygon fill="#63b8ff" stroke="#63b8ff" points="387.98,-90.15 394.07,-81.48 383.9,-84.46 387.98,-90.15"/>
</a>
</g>
</g>
</g>
</svg>
