<?xml version="1.0" encoding="UTF-8" standalone="no"?>
<!DOCTYPE svg PUBLIC "-//W3C//DTD SVG 1.1//EN"
 "http://www.w3.org/Graphics/SVG/1.1/DTD/svg11.dtd">
<!-- Generated by graphviz version 9.0.0 (20230911.1827)
 -->
<!-- Title: sourcecode/oksconfig/include/oksconfig/OksConfiguration.hpp Pages: 1 -->
<svg width="696pt" height="282pt"
 viewBox="0.00 0.00 696.37 282.00" xmlns="http://www.w3.org/2000/svg" xmlns:xlink="http://www.w3.org/1999/xlink">
<g id="graph0" class="graph" transform="scale(1 1) rotate(0) translate(4 278)">
<title>sourcecode/oksconfig/include/oksconfig/OksConfiguration.hpp</title>
<!-- Node1 -->
<g id="Node000001" class="node">
<title>Node1</title>
<g id="a_Node000001"><a xlink:title=" ">
<polygon fill="#999999" stroke="#666666" points="653.25,-274 464,-274 464,-243.5 653.25,-243.5 653.25,-274"/>
<text text-anchor="start" x="472" y="-260.5" font-family="Helvetica,sans-Serif" font-size="10.00">sourcecode/oksconfig</text>
<text text-anchor="middle" x="558.62" y="-249.25" font-family="Helvetica,sans-Serif" font-size="10.00">/include/oksconfig/OksConfiguration.hpp</text>
</a>
</g>
</g>
<!-- Node2 -->
<g id="Node000002" class="node">
<title>Node2</title>
<g id="a_Node000002"><a xlink:title=" ">
<polygon fill="#e0e0e0" stroke="#999999" points="222.62,-19.25 182.62,-19.25 182.62,0 222.62,0 222.62,-19.25"/>
<text text-anchor="middle" x="202.62" y="-5.75" font-family="Helvetica,sans-Serif" font-size="10.00">string</text>
</a>
</g>
</g>
<!-- Node1&#45;&gt;Node2 -->
<g id="edge1_Node000001_Node000002" class="edge">
<title>Node1&#45;&gt;Node2</title>
<g id="a_edge1_Node000001_Node000002"><a xlink:title=" ">
<path fill="none" stroke="#63b8ff" d="M463.66,-251.59C322.08,-240.21 66.3,-210.37 10.62,-141 -39.69,-78.31 105.05,-34.14 171.36,-17.71"/>
<polygon fill="#63b8ff" stroke="#63b8ff" points="172.03,-21.15 180.93,-15.4 170.39,-14.34 172.03,-21.15"/>
</a>
</g>
</g>
<!-- Node3 -->
<g id="Node000003" class="node">
<title>Node3</title>
<g id="a_Node000003"><a xlink:title=" ">
<polygon fill="#e0e0e0" stroke="#999999" points="641.02,-141 612.22,-141 612.22,-121.75 641.02,-121.75 641.02,-141"/>
<text text-anchor="middle" x="626.62" y="-127.5" font-family="Helvetica,sans-Serif" font-size="10.00">list</text>
</a>
</g>
</g>
<!-- Node1&#45;&gt;Node3 -->
<g id="edge2_Node000001_Node000003" class="edge">
<title>Node1&#45;&gt;Node3</title>
<g id="a_edge2_Node000001_Node000003"><a xlink:title=" ">
<path fill="none" stroke="#63b8ff" d="M560.75,-243.18C563.7,-226.32 570.13,-198.15 582.62,-177 588.8,-166.54 597.96,-156.72 606.32,-148.97"/>
<polygon fill="#63b8ff" stroke="#63b8ff" points="608.56,-151.66 613.77,-142.43 603.94,-146.4 608.56,-151.66"/>
</a>
</g>
</g>
<!-- Node4 -->
<g id="Node000004" class="node">
<title>Node4</title>
<g id="a_Node000004"><a xlink:title=" ">
<polygon fill="#e0e0e0" stroke="#999999" points="688.37,-141 658.87,-141 658.87,-121.75 688.37,-121.75 688.37,-141"/>
<text text-anchor="middle" x="673.62" y="-127.5" font-family="Helvetica,sans-Serif" font-size="10.00">set</text>
</a>
</g>
</g>
<!-- Node1&#45;&gt;Node4 -->
<g id="edge3_Node000001_Node000004" class="edge">
<title>Node1&#45;&gt;Node4</title>
<g id="a_edge3_Node000001_Node000004"><a xlink:title=" ">
<path fill="none" stroke="#63b8ff" d="M567.36,-243.1C577.84,-226.16 596.55,-197.92 616.62,-177 626.88,-166.31 639.78,-156 650.72,-147.99"/>
<polygon fill="#63b8ff" stroke="#63b8ff" points="652.72,-150.86 658.84,-142.21 648.66,-145.15 652.72,-150.86"/>
</a>
</g>
</g>
<!-- Node5 -->
<g id="Node000005" class="node">
<title>Node5</title>
<g id="a_Node000005"><a xlink:title=" ">
<polygon fill="#e0e0e0" stroke="#999999" points="668.12,-201.88 625.12,-201.88 625.12,-182.62 668.12,-182.62 668.12,-201.88"/>
<text text-anchor="middle" x="646.62" y="-188.38" font-family="Helvetica,sans-Serif" font-size="10.00">thread</text>
</a>
</g>
</g>
<!-- Node1&#45;&gt;Node5 -->
<g id="edge4_Node000001_Node000005" class="edge">
<title>Node1&#45;&gt;Node5</title>
<g id="a_edge4_Node000001_Node000005"><a xlink:title=" ">
<path fill="none" stroke="#63b8ff" d="M578.59,-243.11C592.52,-232.91 611.08,-219.3 625.29,-208.88"/>
<polygon fill="#63b8ff" stroke="#63b8ff" points="627.11,-211.89 633.11,-203.15 622.98,-206.24 627.11,-211.89"/>
</a>
</g>
</g>
<!-- Node6 -->
<g id="Node000006" class="node">
<title>Node6</title>
<g id="a_Node000006"><a xlink:href="ConfigurationImpl_8hpp.html" target="_top" xlink:title=" ">
<polygon fill="white" stroke="#666666" points="463.75,-207.5 319.5,-207.5 319.5,-177 463.75,-177 463.75,-207.5"/>
<text text-anchor="start" x="327.5" y="-194" font-family="Helvetica,sans-Serif" font-size="10.00">oksdbinterfaces/Configuration</text>
<text text-anchor="middle" x="391.62" y="-182.75" font-family="Helvetica,sans-Serif" font-size="10.00">Impl.hpp</text>
</a>
</g>
</g>
<!-- Node1&#45;&gt;Node6 -->
<g id="edge5_Node000001_Node000006" class="edge">
<title>Node1&#45;&gt;Node6</title>
<g id="a_edge5_Node000001_Node000006"><a xlink:title=" ">
<path fill="none" stroke="#63b8ff" d="M520.73,-243.11C496.9,-233.91 465.92,-221.95 440.28,-212.04"/>
<polygon fill="#63b8ff" stroke="#63b8ff" points="441.66,-208.82 431.07,-208.48 439.14,-215.35 441.66,-208.82"/>
</a>
</g>
</g>
<!-- Node6&#45;&gt;Node2 -->
<g id="edge6_Node000006_Node000002" class="edge">
<title>Node6&#45;&gt;Node2</title>
<g id="a_edge6_Node000006_Node000002"><a xlink:title=" ">
<path fill="none" stroke="#63b8ff" d="M369.33,-176.68C355.39,-167.17 337.34,-154.12 322.62,-141 311.45,-131.04 247.86,-60.82 218.05,-27.76"/>
<polygon fill="#63b8ff" stroke="#63b8ff" points="220.92,-25.71 211.62,-20.63 215.72,-30.4 220.92,-25.71"/>
</a>
</g>
</g>
<!-- Node6&#45;&gt;Node3 -->
<g id="edge8_Node000006_Node000003" class="edge">
<title>Node6&#45;&gt;Node3</title>
<g id="a_edge8_Node000006_Node000003"><a xlink:title=" ">
<path fill="none" stroke="#63b8ff" d="M462,-176.55C500.53,-168.02 549.26,-156.47 600.71,-141.31"/>
<polygon fill="#63b8ff" stroke="#63b8ff" points="601.7,-144.67 610.28,-138.45 599.7,-137.96 601.7,-144.67"/>
</a>
</g>
</g>
<!-- Node6&#45;&gt;Node4 -->
<g id="edge9_Node000006_Node000004" class="edge">
<title>Node6&#45;&gt;Node4</title>
<g id="a_edge9_Node000006_Node000004"><a xlink:title=" ">
<path fill="none" stroke="#63b8ff" d="M464.04,-180.19C513.49,-171.94 580.58,-159.38 647.73,-141.17"/>
<polygon fill="#63b8ff" stroke="#63b8ff" points="648.33,-144.64 657.04,-138.61 646.47,-137.89 648.33,-144.64"/>
</a>
</g>
</g>
<!-- Node7 -->
<g id="Node000007" class="node">
<title>Node7</title>
<g id="a_Node000007"><a xlink:title=" ">
<polygon fill="#e0e0e0" stroke="#999999" points="234.12,-80.12 191.12,-80.12 191.12,-60.88 234.12,-60.88 234.12,-80.12"/>
<text text-anchor="middle" x="212.62" y="-66.62" font-family="Helvetica,sans-Serif" font-size="10.00">vector</text>
</a>
</g>
</g>
<!-- Node6&#45;&gt;Node7 -->
<g id="edge7_Node000006_Node000007" class="edge">
<title>Node6&#45;&gt;Node7</title>
<g id="a_edge7_Node000006_Node000007"><a xlink:title=" ">
<path fill="none" stroke="#63b8ff" d="M319.18,-183.57C288.81,-176.85 255.35,-164.33 232.62,-141 219.89,-127.93 215.17,-107.31 213.47,-91.91"/>
<polygon fill="#63b8ff" stroke="#63b8ff" points="216.96,-91.73 212.75,-82.01 209.98,-92.23 216.96,-91.73"/>
</a>
</g>
</g>
<!-- Node8 -->
<g id="Node000008" class="node">
<title>Node8</title>
<g id="a_Node000008"><a xlink:title=" ">
<polygon fill="#e0e0e0" stroke="#999999" points="276,-141 241.25,-141 241.25,-121.75 276,-121.75 276,-141"/>
<text text-anchor="middle" x="258.62" y="-127.5" font-family="Helvetica,sans-Serif" font-size="10.00">map</text>
</a>
</g>
</g>
<!-- Node6&#45;&gt;Node8 -->
<g id="edge10_Node000006_Node000008" class="edge">
<title>Node6&#45;&gt;Node8</title>
<g id="a_edge10_Node000006_Node000008"><a xlink:title=" ">
<path fill="none" stroke="#63b8ff" d="M358.41,-176.55C336.36,-166.79 307.74,-154.12 286.81,-144.85"/>
<polygon fill="#63b8ff" stroke="#63b8ff" points="288.3,-141.68 277.74,-140.84 285.46,-148.08 288.3,-141.68"/>
</a>
</g>
</g>
<!-- Node9 -->
<g id="Node000009" class="node">
<title>Node9</title>
<g id="a_Node000009"><a xlink:href="map_8hpp.html" target="_top" xlink:title=" ">
<polygon fill="white" stroke="#666666" points="594,-141 469.25,-141 469.25,-121.75 594,-121.75 594,-141"/>
<text text-anchor="middle" x="531.62" y="-127.5" font-family="Helvetica,sans-Serif" font-size="10.00">oksdbinterfaces/map.hpp</text>
</a>
</g>
</g>
<!-- Node6&#45;&gt;Node9 -->
<g id="edge11_Node000006_Node000009" class="edge">
<title>Node6&#45;&gt;Node9</title>
<g id="a_edge11_Node000006_Node000009"><a xlink:title=" ">
<path fill="none" stroke="#63b8ff" d="M426.59,-176.55C449.04,-167.1 477.96,-154.94 499.77,-145.77"/>
<polygon fill="#63b8ff" stroke="#63b8ff" points="500.9,-149.09 508.76,-141.99 498.18,-142.64 500.9,-149.09"/>
</a>
</g>
</g>
<!-- Node12 -->
<g id="Node000012" class="node">
<title>Node12</title>
<g id="a_Node000012"><a xlink:href="set_8hpp.html" target="_top" xlink:title=" ">
<polygon fill="white" stroke="#666666" points="451.37,-141 331.87,-141 331.87,-121.75 451.37,-121.75 451.37,-141"/>
<text text-anchor="middle" x="391.62" y="-127.5" font-family="Helvetica,sans-Serif" font-size="10.00">oksdbinterfaces/set.hpp</text>
</a>
</g>
</g>
<!-- Node6&#45;&gt;Node12 -->
<g id="edge15_Node000006_Node000012" class="edge">
<title>Node6&#45;&gt;Node12</title>
<g id="a_edge15_Node000006_Node000012"><a xlink:title=" ">
<path fill="none" stroke="#63b8ff" d="M391.62,-176.7C391.62,-169.46 391.62,-160.59 391.62,-152.69"/>
<polygon fill="#63b8ff" stroke="#63b8ff" points="395.12,-152.96 391.62,-142.96 388.12,-152.96 395.12,-152.96"/>
</a>
</g>
</g>
<!-- Node14 -->
<g id="Node000014" class="node">
<title>Node14</title>
<g id="a_Node000014"><a xlink:href="ConfigVersion_8hpp.html" target="_top" xlink:title=" ">
<polygon fill="white" stroke="#666666" points="185.62,-141 19.62,-141 19.62,-121.75 185.62,-121.75 185.62,-141"/>
<text text-anchor="middle" x="102.62" y="-127.5" font-family="Helvetica,sans-Serif" font-size="10.00">oksdbinterfaces/ConfigVersion.hpp</text>
</a>
</g>
</g>
<!-- Node6&#45;&gt;Node14 -->
<g id="edge18_Node000006_Node000014" class="edge">
<title>Node6&#45;&gt;Node14</title>
<g id="a_edge18_Node000006_Node000014"><a xlink:title=" ">
<path fill="none" stroke="#63b8ff" d="M319.44,-176.55C269.66,-166.4 204.45,-153.12 158.59,-143.78"/>
<polygon fill="#63b8ff" stroke="#63b8ff" points="159.35,-140.36 148.85,-141.79 157.95,-147.22 159.35,-140.36"/>
</a>
</g>
</g>
<!-- Node10 -->
<g id="Node000010" class="node">
<title>Node10</title>
<g id="a_Node000010"><a xlink:href="string__ptr_8hpp.html" target="_top" xlink:title=" ">
<polygon fill="white" stroke="#666666" points="539.62,-85.75 427.62,-85.75 427.62,-55.25 539.62,-55.25 539.62,-85.75"/>
<text text-anchor="start" x="435.62" y="-72.25" font-family="Helvetica,sans-Serif" font-size="10.00">oksdbinterfaces/string</text>
<text text-anchor="middle" x="483.62" y="-61" font-family="Helvetica,sans-Serif" font-size="10.00">_ptr.hpp</text>
</a>
</g>
</g>
<!-- Node9&#45;&gt;Node10 -->
<g id="edge12_Node000009_Node000010" class="edge">
<title>Node9&#45;&gt;Node10</title>
<g id="a_edge12_Node000009_Node000010"><a xlink:title=" ">
<path fill="none" stroke="#63b8ff" d="M524.33,-121.43C518.59,-114.39 510.31,-104.23 502.72,-94.92"/>
<polygon fill="#63b8ff" stroke="#63b8ff" points="505.46,-92.74 496.43,-87.21 500.04,-97.17 505.46,-92.74"/>
</a>
</g>
</g>
<!-- Node11 -->
<g id="Node000011" class="node">
<title>Node11</title>
<g id="a_Node000011"><a xlink:title=" ">
<polygon fill="#e0e0e0" stroke="#999999" points="640,-80.12 557.25,-80.12 557.25,-60.88 640,-60.88 640,-80.12"/>
<text text-anchor="middle" x="598.62" y="-66.62" font-family="Helvetica,sans-Serif" font-size="10.00">unordered_map</text>
</a>
</g>
</g>
<!-- Node9&#45;&gt;Node11 -->
<g id="edge14_Node000009_Node000011" class="edge">
<title>Node9&#45;&gt;Node11</title>
<g id="a_edge14_Node000009_Node000011"><a xlink:title=" ">
<path fill="none" stroke="#63b8ff" d="M541.8,-121.43C551.84,-112.62 567.41,-98.93 579.72,-88.11"/>
<polygon fill="#63b8ff" stroke="#63b8ff" points="582.01,-90.76 587.22,-81.53 577.39,-85.5 582.01,-90.76"/>
</a>
</g>
</g>
<!-- Node10&#45;&gt;Node2 -->
<g id="edge13_Node000010_Node000002" class="edge">
<title>Node10&#45;&gt;Node2</title>
<g id="a_edge13_Node000010_Node000002"><a xlink:title=" ">
<path fill="none" stroke="#63b8ff" d="M427.26,-57.1C424.34,-56.47 421.45,-55.85 418.62,-55.25 353.04,-41.29 276.1,-25.54 234.04,-16.99"/>
<polygon fill="#63b8ff" stroke="#63b8ff" points="234.87,-13.59 224.37,-15.03 233.48,-20.45 234.87,-13.59"/>
</a>
</g>
</g>
<!-- Node12&#45;&gt;Node10 -->
<g id="edge16_Node000012_Node000010" class="edge">
<title>Node12&#45;&gt;Node10</title>
<g id="a_edge16_Node000012_Node000010"><a xlink:title=" ">
<path fill="none" stroke="#63b8ff" d="M405.6,-121.43C417.75,-113.65 435.83,-102.09 451.53,-92.04"/>
<polygon fill="#63b8ff" stroke="#63b8ff" points="453.1,-95.19 459.64,-86.85 449.33,-89.29 453.1,-95.19"/>
</a>
</g>
</g>
<!-- Node13 -->
<g id="Node000013" class="node">
<title>Node13</title>
<g id="a_Node000013"><a xlink:title=" ">
<polygon fill="#e0e0e0" stroke="#999999" points="409.37,-80.12 331.87,-80.12 331.87,-60.88 409.37,-60.88 409.37,-80.12"/>
<text text-anchor="middle" x="370.62" y="-66.62" font-family="Helvetica,sans-Serif" font-size="10.00">unordered_set</text>
</a>
</g>
</g>
<!-- Node12&#45;&gt;Node13 -->
<g id="edge17_Node000012_Node000013" class="edge">
<title>Node12&#45;&gt;Node13</title>
<g id="a_edge17_Node000012_Node000013"><a xlink:title=" ">
<path fill="none" stroke="#63b8ff" d="M388.44,-121.43C385.6,-113.48 381.35,-101.56 377.71,-91.37"/>
<polygon fill="#63b8ff" stroke="#63b8ff" points="381.01,-90.19 374.35,-81.95 374.42,-92.55 381.01,-90.19"/>
</a>
</g>
</g>
<!-- Node14&#45;&gt;Node2 -->
<g id="edge20_Node000014_Node000002" class="edge">
<title>Node14&#45;&gt;Node2</title>
<g id="a_edge20_Node000014_Node000002"><a xlink:title=" ">
<path fill="none" stroke="#63b8ff" d="M102.66,-121.53C103.17,-106.4 106.17,-75.27 121.62,-55.25 134.18,-38.99 154.42,-27.83 171.53,-20.74"/>
<polygon fill="#63b8ff" stroke="#63b8ff" points="172.71,-24.04 180.79,-17.2 170.2,-17.5 172.71,-24.04"/>
</a>
</g>
</g>
<!-- Node14&#45;&gt;Node7 -->
<g id="edge21_Node000014_Node000007" class="edge">
<title>Node14&#45;&gt;Node7</title>
<g id="a_edge21_Node000014_Node000007"><a xlink:title=" ">
<path fill="none" stroke="#63b8ff" d="M119.33,-121.43C136.94,-112.01 164.94,-97.02 185.67,-85.93"/>
<polygon fill="#63b8ff" stroke="#63b8ff" points="187.26,-89.04 194.43,-81.24 183.96,-82.87 187.26,-89.04"/>
</a>
</g>
</g>
<!-- Node15 -->
<g id="Node000015" class="node">
<title>Node15</title>
<g id="a_Node000015"><a xlink:title=" ">
<polygon fill="#e0e0e0" stroke="#999999" points="170.62,-80.12 130.62,-80.12 130.62,-60.88 170.62,-60.88 170.62,-80.12"/>
<text text-anchor="middle" x="150.62" y="-66.62" font-family="Helvetica,sans-Serif" font-size="10.00">ctime</text>
</a>
</g>
</g>
<!-- Node14&#45;&gt;Node15 -->
<g id="edge19_Node000014_Node000015" class="edge">
<title>Node14&#45;&gt;Node15</title>
<g id="a_edge19_Node000014_Node000015"><a xlink:title=" ">
<path fill="none" stroke="#63b8ff" d="M109.91,-121.43C116.82,-112.96 127.4,-99.99 136.04,-89.39"/>
<polygon fill="#63b8ff" stroke="#63b8ff" points="138.7,-91.66 142.31,-81.7 133.28,-87.24 138.7,-91.66"/>
</a>
</g>
</g>
</g>
</svg>
