<?xml version="1.0" encoding="UTF-8" standalone="no"?>
<!DOCTYPE svg PUBLIC "-//W3C//DTD SVG 1.1//EN"
 "http://www.w3.org/Graphics/SVG/1.1/DTD/svg11.dtd">
<!-- Generated by graphviz version 9.0.0 (20230911.1827)
 -->
<!-- Title: sourcecode/oksconfig/include/oksconfig/OksConfigObject.hpp Pages: 1 -->
<svg width="280pt" height="116pt"
 viewBox="0.00 0.00 280.38 116.25" xmlns="http://www.w3.org/2000/svg" xmlns:xlink="http://www.w3.org/1999/xlink">
<g id="graph0" class="graph" transform="scale(1 1) rotate(0) translate(4 112.25)">
<title>sourcecode/oksconfig/include/oksconfig/OksConfigObject.hpp</title>
<!-- Node1 -->
<g id="Node000001" class="node">
<title>Node1</title>
<g id="a_Node000001"><a xlink:title=" ">
<polygon fill="#999999" stroke="#666666" points="206.5,-108.25 64.5,-108.25 64.5,-66.5 206.5,-66.5 206.5,-108.25"/>
<text text-anchor="start" x="72.5" y="-94.75" font-family="Helvetica,sans-Serif" font-size="10.00">sourcecode/oksconfig</text>
<text text-anchor="start" x="72.5" y="-83.5" font-family="Helvetica,sans-Serif" font-size="10.00">/include/oksconfig/OksConfig</text>
<text text-anchor="middle" x="135.5" y="-72.25" font-family="Helvetica,sans-Serif" font-size="10.00">Object.hpp</text>
</a>
</g>
</g>
<!-- Node2 -->
<g id="Node000002" class="node">
<title>Node2</title>
<g id="a_Node000002"><a xlink:href="OksConfigObject_8cpp.html" target="_top" xlink:title=" ">
<polygon fill="white" stroke="#666666" points="127,-30.5 0,-30.5 0,0 127,0 127,-30.5"/>
<text text-anchor="start" x="8" y="-17" font-family="Helvetica,sans-Serif" font-size="10.00">sourcecode/oksconfig</text>
<text text-anchor="middle" x="63.5" y="-5.75" font-family="Helvetica,sans-Serif" font-size="10.00">/src/OksConfigObject.cpp</text>
</a>
</g>
</g>
<!-- Node1&#45;&gt;Node2 -->
<g id="edge1_Node000001_Node000002" class="edge">
<title>Node1&#45;&gt;Node2</title>
<g id="a_edge1_Node000001_Node000002"><a xlink:title=" ">
<path fill="none" stroke="#63b8ff" d="M106.45,-58.08C96.8,-48.68 86.45,-38.61 78.34,-30.7"/>
<polygon fill="#63b8ff" stroke="#63b8ff" points="103.98,-60.57 113.59,-65.04 108.87,-55.55 103.98,-60.57"/>
</a>
</g>
</g>
<!-- Node3 -->
<g id="Node000003" class="node">
<title>Node3</title>
<g id="a_Node000003"><a xlink:href="OksConfiguration_8cpp.html" target="_top" xlink:title=" ">
<polygon fill="white" stroke="#666666" points="272.38,-30.5 144.62,-30.5 144.62,0 272.38,0 272.38,-30.5"/>
<text text-anchor="start" x="152.62" y="-17" font-family="Helvetica,sans-Serif" font-size="10.00">sourcecode/oksconfig</text>
<text text-anchor="middle" x="208.5" y="-5.75" font-family="Helvetica,sans-Serif" font-size="10.00">/src/OksConfiguration.cpp</text>
</a>
</g>
</g>
<!-- Node1&#45;&gt;Node3 -->
<g id="edge2_Node000001_Node000003" class="edge">
<title>Node1&#45;&gt;Node3</title>
<g id="a_edge2_Node000001_Node000003"><a xlink:title=" ">
<path fill="none" stroke="#63b8ff" d="M164.66,-58.36C174.53,-48.88 185.14,-38.69 193.46,-30.7"/>
<polygon fill="#63b8ff" stroke="#63b8ff" points="162.49,-55.59 157.71,-65.04 167.34,-60.64 162.49,-55.59"/>
</a>
</g>
</g>
</g>
</svg>
