<?xml version="1.0" encoding="UTF-8" standalone="no"?>
<!DOCTYPE svg PUBLIC "-//W3C//DTD SVG 1.1//EN"
 "http://www.w3.org/Graphics/SVG/1.1/DTD/svg11.dtd">
<!-- Generated by graphviz version 9.0.0 (20230911.1827)
 -->
<!-- Title: sourcecode/opmonlib/include/opmonlib/Issues.hpp Pages: 1 -->
<svg width="257pt" height="305pt"
 viewBox="0.00 0.00 256.50 304.50" xmlns="http://www.w3.org/2000/svg" xmlns:xlink="http://www.w3.org/1999/xlink">
<g id="graph0" class="graph" transform="scale(1 1) rotate(0) translate(4 300.5)">
<title>sourcecode/opmonlib/include/opmonlib/Issues.hpp</title>
<!-- Node1 -->
<g id="Node000001" class="node">
<title>Node1</title>
<g id="a_Node000001"><a xlink:title=" ">
<polygon fill="#999999" stroke="#666666" points="209.38,-296.5 67.38,-296.5 67.38,-266 209.38,-266 209.38,-296.5"/>
<text text-anchor="start" x="75.38" y="-283" font-family="Helvetica,sans-Serif" font-size="10.00">sourcecode/opmonlib</text>
<text text-anchor="middle" x="138.38" y="-271.75" font-family="Helvetica,sans-Serif" font-size="10.00">/include/opmonlib/Issues.hpp</text>
</a>
</g>
</g>
<!-- Node2 -->
<g id="Node000002" class="node">
<title>Node2</title>
<g id="a_Node000002"><a xlink:href="OpmonService_8hpp.html" target="_top" xlink:title=" ">
<polygon fill="white" stroke="#666666" points="227,-230 49.75,-230 49.75,-199.5 227,-199.5 227,-230"/>
<text text-anchor="start" x="57.75" y="-216.5" font-family="Helvetica,sans-Serif" font-size="10.00">sourcecode/opmonlib</text>
<text text-anchor="middle" x="138.38" y="-205.25" font-family="Helvetica,sans-Serif" font-size="10.00">/include/opmonlib/OpmonService.hpp</text>
</a>
</g>
</g>
<!-- Node1&#45;&gt;Node2 -->
<g id="edge1_Node000001_Node000002" class="edge">
<title>Node1&#45;&gt;Node2</title>
<g id="a_edge1_Node000001_Node000002"><a xlink:title=" ">
<path fill="none" stroke="#63b8ff" d="M138.38,-254.31C138.38,-246.14 138.38,-237.41 138.38,-230.33"/>
<polygon fill="#63b8ff" stroke="#63b8ff" points="134.88,-254.1 138.38,-264.1 141.88,-254.1 134.88,-254.1"/>
</a>
</g>
</g>
<!-- Node3 -->
<g id="Node000003" class="node">
<title>Node3</title>
<g id="a_Node000003"><a xlink:href="InfoManager_8hpp.html" target="_top" xlink:title=" ">
<polygon fill="white" stroke="#666666" points="166.75,-163.5 0,-163.5 0,-133 166.75,-133 166.75,-163.5"/>
<text text-anchor="start" x="8" y="-150" font-family="Helvetica,sans-Serif" font-size="10.00">sourcecode/opmonlib</text>
<text text-anchor="middle" x="83.38" y="-138.75" font-family="Helvetica,sans-Serif" font-size="10.00">/include/opmonlib/InfoManager.hpp</text>
</a>
</g>
</g>
<!-- Node2&#45;&gt;Node3 -->
<g id="edge2_Node000002_Node000003" class="edge">
<title>Node2&#45;&gt;Node3</title>
<g id="a_edge2_Node000002_Node000003"><a xlink:title=" ">
<path fill="none" stroke="#63b8ff" d="M118.66,-190.63C111.04,-181.69 102.55,-171.74 95.81,-163.83"/>
<polygon fill="#63b8ff" stroke="#63b8ff" points="115.76,-192.62 124.91,-197.96 121.09,-188.08 115.76,-192.62"/>
</a>
</g>
</g>
<!-- Node6 -->
<g id="Node000006" class="node">
<title>Node6</title>
<g id="a_Node000006"><a xlink:href="InfoManager_8cpp.html" target="_top" xlink:title=" ">
<polygon fill="white" stroke="#666666" points="248.5,-97 140.25,-97 140.25,-66.5 248.5,-66.5 248.5,-97"/>
<text text-anchor="start" x="148.25" y="-83.5" font-family="Helvetica,sans-Serif" font-size="10.00">sourcecode/opmonlib</text>
<text text-anchor="middle" x="194.38" y="-72.25" font-family="Helvetica,sans-Serif" font-size="10.00">/src/InfoManager.cpp</text>
</a>
</g>
</g>
<!-- Node2&#45;&gt;Node6 -->
<g id="edge6_Node000002_Node000006" class="edge">
<title>Node2&#45;&gt;Node6</title>
<g id="a_edge6_Node000002_Node000006"><a xlink:title=" ">
<path fill="none" stroke="#63b8ff" d="M158.49,-190.54C164.68,-182.43 171,-172.97 175.38,-163.5 185.46,-141.67 190.48,-113.96 192.74,-97.33"/>
<polygon fill="#63b8ff" stroke="#63b8ff" points="155.89,-188.19 152.37,-198.19 161.36,-192.57 155.89,-188.19"/>
</a>
</g>
</g>
<!-- Node4 -->
<g id="Node000004" class="node">
<title>Node4</title>
<g id="a_Node000004"><a xlink:href="Application_8hpp.html" target="_top" xlink:title=" ">
<polygon fill="white" stroke="#666666" points="122,-97 4.75,-97 4.75,-66.5 122,-66.5 122,-97"/>
<text text-anchor="start" x="12.75" y="-83.5" font-family="Helvetica,sans-Serif" font-size="10.00">sourcecode/appfwk/src</text>
<text text-anchor="middle" x="63.38" y="-72.25" font-family="Helvetica,sans-Serif" font-size="10.00">/Application.hpp</text>
</a>
</g>
</g>
<!-- Node3&#45;&gt;Node4 -->
<g id="edge3_Node000003_Node000004" class="edge">
<title>Node3&#45;&gt;Node4</title>
<g id="a_edge3_Node000003_Node000004"><a xlink:title=" ">
<path fill="none" stroke="#63b8ff" d="M75.51,-121.88C72.92,-113.55 70.14,-104.58 67.9,-97.33"/>
<polygon fill="#63b8ff" stroke="#63b8ff" points="72.08,-122.65 78.39,-131.17 78.77,-120.58 72.08,-122.65"/>
</a>
</g>
</g>
<!-- Node3&#45;&gt;Node6 -->
<g id="edge5_Node000003_Node000006" class="edge">
<title>Node3&#45;&gt;Node6</title>
<g id="a_edge5_Node000003_Node000006"><a xlink:title=" ">
<path fill="none" stroke="#63b8ff" d="M118.42,-126.89C134.94,-117.29 154.26,-106.06 169.29,-97.33"/>
<polygon fill="#63b8ff" stroke="#63b8ff" points="116.76,-123.8 109.87,-131.85 120.28,-129.86 116.76,-123.8"/>
</a>
</g>
</g>
<!-- Node5 -->
<g id="Node000005" class="node">
<title>Node5</title>
<g id="a_Node000005"><a xlink:href="daq__application_8cxx.html" target="_top" xlink:title=" ">
<polygon fill="white" stroke="#666666" points="125.75,-30.5 1,-30.5 1,0 125.75,0 125.75,-30.5"/>
<text text-anchor="start" x="9" y="-17" font-family="Helvetica,sans-Serif" font-size="10.00">sourcecode/appfwk/apps</text>
<text text-anchor="middle" x="63.38" y="-5.75" font-family="Helvetica,sans-Serif" font-size="10.00">/daq_application.cxx</text>
</a>
</g>
</g>
<!-- Node4&#45;&gt;Node5 -->
<g id="edge4_Node000004_Node000005" class="edge">
<title>Node4&#45;&gt;Node5</title>
<g id="a_edge4_Node000004_Node000005"><a xlink:title=" ">
<path fill="none" stroke="#63b8ff" d="M63.38,-54.81C63.38,-46.64 63.38,-37.91 63.38,-30.83"/>
<polygon fill="#63b8ff" stroke="#63b8ff" points="59.88,-54.6 63.38,-64.6 66.88,-54.6 59.88,-54.6"/>
</a>
</g>
</g>
</g>
</svg>
