<?xml version="1.0" encoding="UTF-8" standalone="no"?>
<!DOCTYPE svg PUBLIC "-//W3C//DTD SVG 1.1//EN"
 "http://www.w3.org/Graphics/SVG/1.1/DTD/svg11.dtd">
<!-- Generated by graphviz version 9.0.0 (20230911.1827)
 -->
<!-- Title: sourcecode/genconfig/apps/parse_cmdl.cpp Pages: 1 -->
<svg width="292pt" height="94pt"
 viewBox="0.00 0.00 291.65 93.75" xmlns="http://www.w3.org/2000/svg" xmlns:xlink="http://www.w3.org/1999/xlink">
<g id="graph0" class="graph" transform="scale(1 1) rotate(0) translate(4 89.75)">
<title>sourcecode/genconfig/apps/parse_cmdl.cpp</title>
<!-- Node1 -->
<g id="Node000001" class="node">
<title>Node1</title>
<g id="a_Node000001"><a xlink:title=" ">
<polygon fill="#999999" stroke="#666666" points="207.88,-85.75 96.62,-85.75 96.62,-55.25 207.88,-55.25 207.88,-85.75"/>
<text text-anchor="start" x="104.62" y="-72.25" font-family="Helvetica,sans-Serif" font-size="10.00">sourcecode/genconfig</text>
<text text-anchor="middle" x="152.25" y="-61" font-family="Helvetica,sans-Serif" font-size="10.00">/apps/parse_cmdl.cpp</text>
</a>
</g>
</g>
<!-- Node2 -->
<g id="Node000002" class="node">
<title>Node2</title>
<g id="a_Node000002"><a xlink:title=" ">
<polygon fill="#e0e0e0" stroke="#999999" points="44.5,-19.25 0,-19.25 0,0 44.5,0 44.5,-19.25"/>
<text text-anchor="middle" x="22.25" y="-5.75" font-family="Helvetica,sans-Serif" font-size="10.00">cstdlib</text>
</a>
</g>
</g>
<!-- Node1&#45;&gt;Node2 -->
<g id="edge1_Node000001_Node000002" class="edge">
<title>Node1&#45;&gt;Node2</title>
<g id="a_edge1_Node000001_Node000002"><a xlink:title=" ">
<path fill="none" stroke="#63b8ff" d="M119.78,-54.8C99.22,-45.48 72.81,-33.52 52.66,-24.4"/>
<polygon fill="#63b8ff" stroke="#63b8ff" points="54.12,-21.22 43.57,-20.28 51.23,-27.59 54.12,-21.22"/>
</a>
</g>
</g>
<!-- Node3 -->
<g id="Node000003" class="node">
<title>Node3</title>
<g id="a_Node000003"><a xlink:title=" ">
<polygon fill="#e0e0e0" stroke="#999999" points="107.88,-19.25 62.62,-19.25 62.62,0 107.88,0 107.88,-19.25"/>
<text text-anchor="middle" x="85.25" y="-5.75" font-family="Helvetica,sans-Serif" font-size="10.00">cstring</text>
</a>
</g>
</g>
<!-- Node1&#45;&gt;Node3 -->
<g id="edge2_Node000001_Node000003" class="edge">
<title>Node1&#45;&gt;Node3</title>
<g id="a_edge2_Node000001_Node000003"><a xlink:title=" ">
<path fill="none" stroke="#63b8ff" d="M135.69,-54.95C126.08,-46.5 113.94,-35.83 103.98,-27.08"/>
<polygon fill="#63b8ff" stroke="#63b8ff" points="106.54,-24.67 96.72,-20.7 101.92,-29.93 106.54,-24.67"/>
</a>
</g>
</g>
<!-- Node4 -->
<g id="Node000004" class="node">
<title>Node4</title>
<g id="a_Node000004"><a xlink:title=" ">
<polygon fill="#e0e0e0" stroke="#999999" points="179,-19.25 125.5,-19.25 125.5,0 179,0 179,-19.25"/>
<text text-anchor="middle" x="152.25" y="-5.75" font-family="Helvetica,sans-Serif" font-size="10.00">iostream</text>
</a>
</g>
</g>
<!-- Node1&#45;&gt;Node4 -->
<g id="edge3_Node000001_Node000004" class="edge">
<title>Node1&#45;&gt;Node4</title>
<g id="a_edge3_Node000001_Node000004"><a xlink:title=" ">
<path fill="none" stroke="#63b8ff" d="M152.25,-54.95C152.25,-47.71 152.25,-38.84 152.25,-30.94"/>
<polygon fill="#63b8ff" stroke="#63b8ff" points="155.75,-31.21 152.25,-21.21 148.75,-31.21 155.75,-31.21"/>
</a>
</g>
</g>
<!-- Node5 -->
<g id="Node000005" class="node">
<title>Node5</title>
<g id="a_Node000005"><a xlink:title=" ">
<polygon fill="#e0e0e0" stroke="#999999" points="237.25,-19.25 197.25,-19.25 197.25,0 237.25,0 237.25,-19.25"/>
<text text-anchor="middle" x="217.25" y="-5.75" font-family="Helvetica,sans-Serif" font-size="10.00">string</text>
</a>
</g>
</g>
<!-- Node1&#45;&gt;Node5 -->
<g id="edge4_Node000001_Node000005" class="edge">
<title>Node1&#45;&gt;Node5</title>
<g id="a_edge4_Node000001_Node000005"><a xlink:title=" ">
<path fill="none" stroke="#63b8ff" d="M168.32,-54.95C177.55,-46.59 189.18,-36.05 198.78,-27.35"/>
<polygon fill="#63b8ff" stroke="#63b8ff" points="201.05,-30.02 206.11,-20.72 196.35,-24.84 201.05,-30.02"/>
</a>
</g>
</g>
<!-- Node6 -->
<g id="Node000006" class="node">
<title>Node6</title>
<g id="a_Node000006"><a xlink:title=" ">
<polygon fill="#e0e0e0" stroke="#999999" points="283.65,-19.25 254.85,-19.25 254.85,0 283.65,0 283.65,-19.25"/>
<text text-anchor="middle" x="269.25" y="-5.75" font-family="Helvetica,sans-Serif" font-size="10.00">list</text>
</a>
</g>
</g>
<!-- Node1&#45;&gt;Node6 -->
<g id="edge5_Node000001_Node000006" class="edge">
<title>Node1&#45;&gt;Node6</title>
<g id="a_edge5_Node000001_Node000006"><a xlink:title=" ">
<path fill="none" stroke="#63b8ff" d="M181.47,-54.8C200.84,-45.05 225.99,-32.39 244.4,-23.13"/>
<polygon fill="#63b8ff" stroke="#63b8ff" points="245.91,-26.29 253.27,-18.67 242.76,-20.04 245.91,-26.29"/>
</a>
</g>
</g>
</g>
</svg>
