<?xml version="1.0" encoding="UTF-8" standalone="no"?>
<!DOCTYPE svg PUBLIC "-//W3C//DTD SVG 1.1//EN"
 "http://www.w3.org/Graphics/SVG/1.1/DTD/svg11.dtd">
<!-- Generated by graphviz version 9.0.0 (20230911.1827)
 -->
<!-- Title: sourcecode/timing/include/timing/PartitionNode.hpp Pages: 1 -->
<svg width="868pt" height="172pt"
 viewBox="0.00 0.00 867.88 171.50" xmlns="http://www.w3.org/2000/svg" xmlns:xlink="http://www.w3.org/1999/xlink">
<g id="graph0" class="graph" transform="scale(1 1) rotate(0) translate(4 167.5)">
<title>sourcecode/timing/include/timing/PartitionNode.hpp</title>
<!-- Node1 -->
<g id="Node000001" class="node">
<title>Node1</title>
<g id="a_Node000001"><a xlink:title=" ">
<polygon fill="#999999" stroke="#666666" points="592.5,-163.5 463.25,-163.5 463.25,-133 592.5,-133 592.5,-163.5"/>
<text text-anchor="start" x="471.25" y="-150" font-family="Helvetica,sans-Serif" font-size="10.00">sourcecode/timing/include</text>
<text text-anchor="middle" x="527.88" y="-138.75" font-family="Helvetica,sans-Serif" font-size="10.00">/timing/PartitionNode.hpp</text>
</a>
</g>
</g>
<!-- Node2 -->
<g id="Node000002" class="node">
<title>Node2</title>
<g id="a_Node000002"><a xlink:href="PDIMasterNode_8hpp.html" target="_top" xlink:title=" ">
<polygon fill="white" stroke="#666666" points="281.88,-97 145.88,-97 145.88,-66.5 281.88,-66.5 281.88,-97"/>
<text text-anchor="start" x="153.88" y="-83.5" font-family="Helvetica,sans-Serif" font-size="10.00">sourcecode/timing/include</text>
<text text-anchor="middle" x="213.88" y="-72.25" font-family="Helvetica,sans-Serif" font-size="10.00">/timing/PDIMasterNode.hpp</text>
</a>
</g>
</g>
<!-- Node1&#45;&gt;Node2 -->
<g id="edge1_Node000001_Node000002" class="edge">
<title>Node1&#45;&gt;Node2</title>
<g id="a_edge1_Node000001_Node000002"><a xlink:title=" ">
<path fill="none" stroke="#63b8ff" d="M451.7,-131.6C399.95,-120.97 332.09,-107.03 282.11,-96.77"/>
<polygon fill="#63b8ff" stroke="#63b8ff" points="450.83,-135 461.33,-133.58 452.24,-128.14 450.83,-135"/>
</a>
</g>
</g>
<!-- Node6 -->
<g id="Node000006" class="node">
<title>Node6</title>
<g id="a_Node000006"><a xlink:href="definitions_8cpp.html" target="_top" xlink:title=" ">
<polygon fill="white" stroke="#666666" points="439.75,-97 300,-97 300,-66.5 439.75,-66.5 439.75,-97"/>
<text text-anchor="start" x="308" y="-83.5" font-family="Helvetica,sans-Serif" font-size="10.00">sourcecode/timing/pybindsrc</text>
<text text-anchor="middle" x="369.88" y="-72.25" font-family="Helvetica,sans-Serif" font-size="10.00">/definitions.cpp</text>
</a>
</g>
</g>
<!-- Node1&#45;&gt;Node6 -->
<g id="edge5_Node000001_Node000006" class="edge">
<title>Node1&#45;&gt;Node6</title>
<g id="a_edge5_Node000001_Node000006"><a xlink:title=" ">
<path fill="none" stroke="#63b8ff" d="M481.66,-128.38C457.48,-118.51 428.33,-106.61 405.86,-97.44"/>
<polygon fill="#63b8ff" stroke="#63b8ff" points="480.04,-131.5 490.62,-132.04 482.69,-125.02 480.04,-131.5"/>
</a>
</g>
</g>
<!-- Node7 -->
<g id="Node000007" class="node">
<title>Node7</title>
<g id="a_Node000007"><a xlink:href="partition_8cpp.html" target="_top" xlink:title=" ">
<polygon fill="white" stroke="#666666" points="597.75,-97 458,-97 458,-66.5 597.75,-66.5 597.75,-97"/>
<text text-anchor="start" x="466" y="-83.5" font-family="Helvetica,sans-Serif" font-size="10.00">sourcecode/timing/pybindsrc</text>
<text text-anchor="middle" x="527.88" y="-72.25" font-family="Helvetica,sans-Serif" font-size="10.00">/partition.cpp</text>
</a>
</g>
</g>
<!-- Node1&#45;&gt;Node7 -->
<g id="edge6_Node000001_Node000007" class="edge">
<title>Node1&#45;&gt;Node7</title>
<g id="a_edge6_Node000001_Node000007"><a xlink:title=" ">
<path fill="none" stroke="#63b8ff" d="M527.88,-121.31C527.88,-113.14 527.88,-104.41 527.88,-97.33"/>
<polygon fill="#63b8ff" stroke="#63b8ff" points="524.38,-121.1 527.88,-131.1 531.38,-121.1 524.38,-121.1"/>
</a>
</g>
</g>
<!-- Node8 -->
<g id="Node000008" class="node">
<title>Node8</title>
<g id="a_Node000008"><a xlink:href="PDIEndpointNode_8cpp.html" target="_top" xlink:title=" ">
<polygon fill="white" stroke="#666666" points="730,-97 615.75,-97 615.75,-66.5 730,-66.5 730,-97"/>
<text text-anchor="start" x="623.75" y="-83.5" font-family="Helvetica,sans-Serif" font-size="10.00">sourcecode/timing/src</text>
<text text-anchor="middle" x="672.88" y="-72.25" font-family="Helvetica,sans-Serif" font-size="10.00">/PDIEndpointNode.cpp</text>
</a>
</g>
</g>
<!-- Node1&#45;&gt;Node8 -->
<g id="edge7_Node000001_Node000008" class="edge">
<title>Node1&#45;&gt;Node8</title>
<g id="a_edge7_Node000001_Node000008"><a xlink:title=" ">
<path fill="none" stroke="#63b8ff" d="M571.19,-127.98C593.2,-118.19 619.51,-106.49 639.85,-97.44"/>
<polygon fill="#63b8ff" stroke="#63b8ff" points="569.87,-124.74 562.16,-132 572.72,-131.13 569.87,-124.74"/>
</a>
</g>
</g>
<!-- Node9 -->
<g id="Node000009" class="node">
<title>Node9</title>
<g id="a_Node000009"><a xlink:href="PartitionNode_8cpp.html" target="_top" xlink:title=" ">
<polygon fill="white" stroke="#666666" points="859.88,-97 747.88,-97 747.88,-66.5 859.88,-66.5 859.88,-97"/>
<text text-anchor="start" x="755.88" y="-83.5" font-family="Helvetica,sans-Serif" font-size="10.00">sourcecode/timing/src</text>
<text text-anchor="middle" x="803.88" y="-72.25" font-family="Helvetica,sans-Serif" font-size="10.00">/PartitionNode.cpp</text>
</a>
</g>
</g>
<!-- Node1&#45;&gt;Node9 -->
<g id="edge8_Node000001_Node000009" class="edge">
<title>Node1&#45;&gt;Node9</title>
<g id="a_edge8_Node000001_Node000009"><a xlink:title=" ">
<path fill="none" stroke="#63b8ff" d="M601.92,-129.94C647.76,-119.23 705.68,-105.7 747.73,-95.87"/>
<polygon fill="#63b8ff" stroke="#63b8ff" points="601.26,-126.5 592.32,-132.19 602.86,-133.32 601.26,-126.5"/>
</a>
</g>
</g>
<!-- Node3 -->
<g id="Node000003" class="node">
<title>Node3</title>
<g id="a_Node000003"><a xlink:href="master_8cpp.html" target="_top" xlink:title=" ">
<polygon fill="white" stroke="#666666" points="139.75,-30.5 0,-30.5 0,0 139.75,0 139.75,-30.5"/>
<text text-anchor="start" x="8" y="-17" font-family="Helvetica,sans-Serif" font-size="10.00">sourcecode/timing/pybindsrc</text>
<text text-anchor="middle" x="69.88" y="-5.75" font-family="Helvetica,sans-Serif" font-size="10.00">/master.cpp</text>
</a>
</g>
</g>
<!-- Node2&#45;&gt;Node3 -->
<g id="edge2_Node000002_Node000003" class="edge">
<title>Node2&#45;&gt;Node3</title>
<g id="a_edge2_Node000002_Node000003"><a xlink:title=" ">
<path fill="none" stroke="#63b8ff" d="M170.82,-61.47C148.89,-51.64 122.65,-39.89 102.42,-30.83"/>
<polygon fill="#63b8ff" stroke="#63b8ff" points="169.26,-64.6 179.82,-65.5 172.12,-58.21 169.26,-64.6"/>
</a>
</g>
</g>
<!-- Node4 -->
<g id="Node000004" class="node">
<title>Node4</title>
<g id="a_Node000004"><a xlink:href="OverlordDesign_8cpp.html" target="_top" xlink:title=" ">
<polygon fill="white" stroke="#666666" points="269.88,-30.5 157.88,-30.5 157.88,0 269.88,0 269.88,-30.5"/>
<text text-anchor="start" x="165.88" y="-17" font-family="Helvetica,sans-Serif" font-size="10.00">sourcecode/timing/src</text>
<text text-anchor="middle" x="213.88" y="-5.75" font-family="Helvetica,sans-Serif" font-size="10.00">/OverlordDesign.cpp</text>
</a>
</g>
</g>
<!-- Node2&#45;&gt;Node4 -->
<g id="edge3_Node000002_Node000004" class="edge">
<title>Node2&#45;&gt;Node4</title>
<g id="a_edge3_Node000002_Node000004"><a xlink:title=" ">
<path fill="none" stroke="#63b8ff" d="M213.88,-54.81C213.88,-46.64 213.88,-37.91 213.88,-30.83"/>
<polygon fill="#63b8ff" stroke="#63b8ff" points="210.38,-54.6 213.88,-64.6 217.38,-54.6 210.38,-54.6"/>
</a>
</g>
</g>
<!-- Node5 -->
<g id="Node000005" class="node">
<title>Node5</title>
<g id="a_Node000005"><a xlink:href="PDIMasterNode_8cpp.html" target="_top" xlink:title=" ">
<polygon fill="white" stroke="#666666" points="399.88,-30.5 287.88,-30.5 287.88,0 399.88,0 399.88,-30.5"/>
<text text-anchor="start" x="295.88" y="-17" font-family="Helvetica,sans-Serif" font-size="10.00">sourcecode/timing/src</text>
<text text-anchor="middle" x="343.88" y="-5.75" font-family="Helvetica,sans-Serif" font-size="10.00">/PDIMasterNode.cpp</text>
</a>
</g>
</g>
<!-- Node2&#45;&gt;Node5 -->
<g id="edge4_Node000002_Node000005" class="edge">
<title>Node2&#45;&gt;Node5</title>
<g id="a_edge4_Node000002_Node000005"><a xlink:title=" ">
<path fill="none" stroke="#63b8ff" d="M253.56,-61.06C273.19,-51.32 296.48,-39.76 314.49,-30.83"/>
<polygon fill="#63b8ff" stroke="#63b8ff" points="252.13,-57.86 244.73,-65.44 255.24,-64.13 252.13,-57.86"/>
</a>
</g>
</g>
</g>
</svg>
