<?xml version="1.0" encoding="UTF-8" standalone="no"?>
<!DOCTYPE svg PUBLIC "-//W3C//DTD SVG 1.1//EN"
 "http://www.w3.org/Graphics/SVG/1.1/DTD/svg11.dtd">
<!-- Generated by graphviz version 9.0.0 (20230911.1827)
 -->
<!-- Title: sourcecode/detchannelmaps/src/PD2HDChannelMapSP.h Pages: 1 -->
<svg width="228pt" height="94pt"
 viewBox="0.00 0.00 228.38 93.75" xmlns="http://www.w3.org/2000/svg" xmlns:xlink="http://www.w3.org/1999/xlink">
<g id="graph0" class="graph" transform="scale(1 1) rotate(0) translate(4 89.75)">
<title>sourcecode/detchannelmaps/src/PD2HDChannelMapSP.h</title>
<!-- Node1 -->
<g id="Node000001" class="node">
<title>Node1</title>
<g id="a_Node000001"><a xlink:title=" ">
<polygon fill="#999999" stroke="#666666" points="194.12,-85.75 50.62,-85.75 50.62,-55.25 194.12,-55.25 194.12,-85.75"/>
<text text-anchor="start" x="58.62" y="-72.25" font-family="Helvetica,sans-Serif" font-size="10.00">sourcecode/detchannelmaps</text>
<text text-anchor="middle" x="122.38" y="-61" font-family="Helvetica,sans-Serif" font-size="10.00">/src/PD2HDChannelMapSP.h</text>
</a>
</g>
</g>
<!-- Node2 -->
<g id="Node000002" class="node">
<title>Node2</title>
<g id="a_Node000002"><a xlink:title=" ">
<polygon fill="#e0e0e0" stroke="#999999" points="82.75,-19.25 0,-19.25 0,0 82.75,0 82.75,-19.25"/>
<text text-anchor="middle" x="41.38" y="-5.75" font-family="Helvetica,sans-Serif" font-size="10.00">unordered_map</text>
</a>
</g>
</g>
<!-- Node1&#45;&gt;Node2 -->
<g id="edge1_Node000001_Node000002" class="edge">
<title>Node1&#45;&gt;Node2</title>
<g id="a_edge1_Node000001_Node000002"><a xlink:title=" ">
<path fill="none" stroke="#63b8ff" d="M102.35,-54.95C90.38,-46.24 75.16,-35.18 62.92,-26.28"/>
<polygon fill="#63b8ff" stroke="#63b8ff" points="65.23,-23.64 55.09,-20.59 61.12,-29.3 65.23,-23.64"/>
</a>
</g>
</g>
<!-- Node3 -->
<g id="Node000003" class="node">
<title>Node3</title>
<g id="a_Node000003"><a xlink:title=" ">
<polygon fill="#e0e0e0" stroke="#999999" points="143.88,-19.25 100.88,-19.25 100.88,0 143.88,0 143.88,-19.25"/>
<text text-anchor="middle" x="122.38" y="-5.75" font-family="Helvetica,sans-Serif" font-size="10.00">vector</text>
</a>
</g>
</g>
<!-- Node1&#45;&gt;Node3 -->
<g id="edge2_Node000001_Node000003" class="edge">
<title>Node1&#45;&gt;Node3</title>
<g id="a_edge2_Node000001_Node000003"><a xlink:title=" ">
<path fill="none" stroke="#63b8ff" d="M122.38,-54.95C122.38,-47.71 122.38,-38.84 122.38,-30.94"/>
<polygon fill="#63b8ff" stroke="#63b8ff" points="125.88,-31.21 122.38,-21.21 118.88,-31.21 125.88,-31.21"/>
</a>
</g>
</g>
<!-- Node4 -->
<g id="Node000004" class="node">
<title>Node4</title>
<g id="a_Node000004"><a xlink:title=" ">
<polygon fill="#e0e0e0" stroke="#999999" points="220.38,-19.25 162.38,-19.25 162.38,0 220.38,0 220.38,-19.25"/>
<text text-anchor="middle" x="191.38" y="-5.75" font-family="Helvetica,sans-Serif" font-size="10.00">stdexcept</text>
</a>
</g>
</g>
<!-- Node1&#45;&gt;Node4 -->
<g id="edge3_Node000001_Node000004" class="edge">
<title>Node1&#45;&gt;Node4</title>
<g id="a_edge3_Node000001_Node000004"><a xlink:title=" ">
<path fill="none" stroke="#63b8ff" d="M139.43,-54.95C149.33,-46.5 161.83,-35.83 172.09,-27.08"/>
<polygon fill="#63b8ff" stroke="#63b8ff" points="174.25,-29.84 179.59,-20.68 169.71,-24.51 174.25,-29.84"/>
</a>
</g>
</g>
</g>
</svg>
