<?xml version="1.0" encoding="UTF-8" standalone="no"?>
<!DOCTYPE svg PUBLIC "-//W3C//DTD SVG 1.1//EN"
 "http://www.w3.org/Graphics/SVG/1.1/DTD/svg11.dtd">
<!-- Generated by graphviz version 9.0.0 (20230911.1827)
 -->
<!-- Title: sourcecode/detchannelmaps/src/PD2HDChannelMapSP.cpp Pages: 1 -->
<svg width="400pt" height="149pt"
 viewBox="0.00 0.00 400.00 149.00" xmlns="http://www.w3.org/2000/svg" xmlns:xlink="http://www.w3.org/1999/xlink">
<g id="graph0" class="graph" transform="scale(1 1) rotate(0) translate(4 145)">
<title>sourcecode/detchannelmaps/src/PD2HDChannelMapSP.cpp</title>
<!-- Node1 -->
<g id="Node000001" class="node">
<title>Node1</title>
<g id="a_Node000001"><a xlink:title=" ">
<polygon fill="#999999" stroke="#666666" points="340.38,-141 186.38,-141 186.38,-110.5 340.38,-110.5 340.38,-141"/>
<text text-anchor="start" x="194.38" y="-127.5" font-family="Helvetica,sans-Serif" font-size="10.00">sourcecode/detchannelmaps</text>
<text text-anchor="middle" x="263.38" y="-116.25" font-family="Helvetica,sans-Serif" font-size="10.00">/src/PD2HDChannelMapSP.cpp</text>
</a>
</g>
</g>
<!-- Node2 -->
<g id="Node000002" class="node">
<title>Node2</title>
<g id="a_Node000002"><a xlink:href="PD2HDChannelMapSP_8h.html" target="_top" xlink:title=" ">
<polygon fill="white" stroke="#666666" points="184.38,-74.5 60.38,-74.5 60.38,-55.25 184.38,-55.25 184.38,-74.5"/>
<text text-anchor="middle" x="122.38" y="-61" font-family="Helvetica,sans-Serif" font-size="10.00">PD2HDChannelMapSP.h</text>
</a>
</g>
</g>
<!-- Node1&#45;&gt;Node2 -->
<g id="edge1_Node000001_Node000002" class="edge">
<title>Node1&#45;&gt;Node2</title>
<g id="a_edge1_Node000001_Node000002"><a xlink:title=" ">
<path fill="none" stroke="#63b8ff" d="M228.16,-110.05C205.55,-100.6 176.42,-88.44 154.45,-79.27"/>
<polygon fill="#63b8ff" stroke="#63b8ff" points="155.97,-76.11 145.4,-75.49 153.27,-82.57 155.97,-76.11"/>
</a>
</g>
</g>
<!-- Node6 -->
<g id="Node000006" class="node">
<title>Node6</title>
<g id="a_Node000006"><a xlink:title=" ">
<polygon fill="#e0e0e0" stroke="#999999" points="256.12,-74.5 202.62,-74.5 202.62,-55.25 256.12,-55.25 256.12,-74.5"/>
<text text-anchor="middle" x="229.38" y="-61" font-family="Helvetica,sans-Serif" font-size="10.00">iostream</text>
</a>
</g>
</g>
<!-- Node1&#45;&gt;Node6 -->
<g id="edge5_Node000001_Node000006" class="edge">
<title>Node1&#45;&gt;Node6</title>
<g id="a_edge5_Node000001_Node000006"><a xlink:title=" ">
<path fill="none" stroke="#63b8ff" d="M254.97,-110.2C250.54,-102.53 245.05,-93.02 240.3,-84.79"/>
<polygon fill="#63b8ff" stroke="#63b8ff" points="243.41,-83.17 235.37,-76.26 237.34,-86.67 243.41,-83.17"/>
</a>
</g>
</g>
<!-- Node7 -->
<g id="Node000007" class="node">
<title>Node7</title>
<g id="a_Node000007"><a xlink:title=" ">
<polygon fill="#e0e0e0" stroke="#999999" points="322.88,-74.5 273.88,-74.5 273.88,-55.25 322.88,-55.25 322.88,-74.5"/>
<text text-anchor="middle" x="298.38" y="-61" font-family="Helvetica,sans-Serif" font-size="10.00">fstream</text>
</a>
</g>
</g>
<!-- Node1&#45;&gt;Node7 -->
<g id="edge6_Node000001_Node000007" class="edge">
<title>Node1&#45;&gt;Node7</title>
<g id="a_edge6_Node000001_Node000007"><a xlink:title=" ">
<path fill="none" stroke="#63b8ff" d="M272.03,-110.2C276.59,-102.53 282.24,-93.02 287.13,-84.79"/>
<polygon fill="#63b8ff" stroke="#63b8ff" points="290.1,-86.64 292.21,-76.25 284.09,-83.06 290.1,-86.64"/>
</a>
</g>
</g>
<!-- Node8 -->
<g id="Node000008" class="node">
<title>Node8</title>
<g id="a_Node000008"><a xlink:title=" ">
<polygon fill="#e0e0e0" stroke="#999999" points="392,-74.5 340.75,-74.5 340.75,-55.25 392,-55.25 392,-74.5"/>
<text text-anchor="middle" x="366.38" y="-61" font-family="Helvetica,sans-Serif" font-size="10.00">sstream</text>
</a>
</g>
</g>
<!-- Node1&#45;&gt;Node8 -->
<g id="edge7_Node000001_Node000008" class="edge">
<title>Node1&#45;&gt;Node8</title>
<g id="a_edge7_Node000001_Node000008"><a xlink:title=" ">
<path fill="none" stroke="#63b8ff" d="M289.1,-110.05C304.94,-100.99 325.16,-89.44 340.94,-80.41"/>
<polygon fill="#63b8ff" stroke="#63b8ff" points="342.32,-83.66 349.27,-75.66 338.85,-77.58 342.32,-83.66"/>
</a>
</g>
</g>
<!-- Node3 -->
<g id="Node000003" class="node">
<title>Node3</title>
<g id="a_Node000003"><a xlink:title=" ">
<polygon fill="#e0e0e0" stroke="#999999" points="82.75,-19.25 0,-19.25 0,0 82.75,0 82.75,-19.25"/>
<text text-anchor="middle" x="41.38" y="-5.75" font-family="Helvetica,sans-Serif" font-size="10.00">unordered_map</text>
</a>
</g>
</g>
<!-- Node2&#45;&gt;Node3 -->
<g id="edge2_Node000002_Node000003" class="edge">
<title>Node2&#45;&gt;Node3</title>
<g id="a_edge2_Node000002_Node000003"><a xlink:title=" ">
<path fill="none" stroke="#63b8ff" d="M108.63,-54.84C96.65,-46.96 79,-35.36 64.79,-26.02"/>
<polygon fill="#63b8ff" stroke="#63b8ff" points="66.73,-23.1 56.45,-20.53 62.88,-28.95 66.73,-23.1"/>
</a>
</g>
</g>
<!-- Node4 -->
<g id="Node000004" class="node">
<title>Node4</title>
<g id="a_Node000004"><a xlink:title=" ">
<polygon fill="#e0e0e0" stroke="#999999" points="143.88,-19.25 100.88,-19.25 100.88,0 143.88,0 143.88,-19.25"/>
<text text-anchor="middle" x="122.38" y="-5.75" font-family="Helvetica,sans-Serif" font-size="10.00">vector</text>
</a>
</g>
</g>
<!-- Node2&#45;&gt;Node4 -->
<g id="edge3_Node000002_Node000004" class="edge">
<title>Node2&#45;&gt;Node4</title>
<g id="a_edge3_Node000002_Node000004"><a xlink:title=" ">
<path fill="none" stroke="#63b8ff" d="M122.38,-55.08C122.38,-48.57 122.38,-39.42 122.38,-31.12"/>
<polygon fill="#63b8ff" stroke="#63b8ff" points="125.88,-31.12 122.38,-21.12 118.88,-31.12 125.88,-31.12"/>
</a>
</g>
</g>
<!-- Node5 -->
<g id="Node000005" class="node">
<title>Node5</title>
<g id="a_Node000005"><a xlink:title=" ">
<polygon fill="#e0e0e0" stroke="#999999" points="220.38,-19.25 162.38,-19.25 162.38,0 220.38,0 220.38,-19.25"/>
<text text-anchor="middle" x="191.38" y="-5.75" font-family="Helvetica,sans-Serif" font-size="10.00">stdexcept</text>
</a>
</g>
</g>
<!-- Node2&#45;&gt;Node5 -->
<g id="edge4_Node000002_Node000005" class="edge">
<title>Node2&#45;&gt;Node5</title>
<g id="a_edge4_Node000002_Node000005"><a xlink:title=" ">
<path fill="none" stroke="#63b8ff" d="M134.08,-54.84C144.15,-47.07 158.92,-35.67 170.94,-26.4"/>
<polygon fill="#63b8ff" stroke="#63b8ff" points="172.87,-29.33 178.64,-20.45 168.59,-23.79 172.87,-29.33"/>
</a>
</g>
</g>
</g>
</svg>
