<?xml version="1.0" encoding="UTF-8" standalone="no"?>
<!DOCTYPE svg PUBLIC "-//W3C//DTD SVG 1.1//EN"
 "http://www.w3.org/Graphics/SVG/1.1/DTD/svg11.dtd">
<!-- Generated by graphviz version 9.0.0 (20230911.1827)
 -->
<!-- Title: sourcecode/timing/include/timing/PDIFLCmdGeneratorNode.hpp Pages: 1 -->
<svg width="1026pt" height="172pt"
 viewBox="0.00 0.00 1026.12 171.50" xmlns="http://www.w3.org/2000/svg" xmlns:xlink="http://www.w3.org/1999/xlink">
<g id="graph0" class="graph" transform="scale(1 1) rotate(0) translate(4 167.5)">
<title>sourcecode/timing/include/timing/PDIFLCmdGeneratorNode.hpp</title>
<!-- Node1 -->
<g id="Node000001" class="node">
<title>Node1</title>
<g id="a_Node000001"><a xlink:title=" ">
<polygon fill="#999999" stroke="#666666" points="680.38,-163.5 499.38,-163.5 499.38,-133 680.38,-133 680.38,-163.5"/>
<text text-anchor="start" x="507.38" y="-150" font-family="Helvetica,sans-Serif" font-size="10.00">sourcecode/timing/include</text>
<text text-anchor="middle" x="589.88" y="-138.75" font-family="Helvetica,sans-Serif" font-size="10.00">/timing/PDIFLCmdGeneratorNode.hpp</text>
</a>
</g>
</g>
<!-- Node2 -->
<g id="Node000002" class="node">
<title>Node2</title>
<g id="a_Node000002"><a xlink:href="PDIMasterNode_8hpp.html" target="_top" xlink:title=" ">
<polygon fill="white" stroke="#666666" points="281.88,-97 145.88,-97 145.88,-66.5 281.88,-66.5 281.88,-97"/>
<text text-anchor="start" x="153.88" y="-83.5" font-family="Helvetica,sans-Serif" font-size="10.00">sourcecode/timing/include</text>
<text text-anchor="middle" x="213.88" y="-72.25" font-family="Helvetica,sans-Serif" font-size="10.00">/timing/PDIMasterNode.hpp</text>
</a>
</g>
</g>
<!-- Node1&#45;&gt;Node2 -->
<g id="edge1_Node000001_Node000002" class="edge">
<title>Node1&#45;&gt;Node2</title>
<g id="a_edge1_Node000001_Node000002"><a xlink:title=" ">
<path fill="none" stroke="#63b8ff" d="M488.85,-130.7C430.88,-121.09 356.74,-108.63 290.88,-97 288.06,-96.5 285.2,-95.99 282.3,-95.47"/>
<polygon fill="#63b8ff" stroke="#63b8ff" points="487.93,-134.09 498.36,-132.27 489.07,-127.19 487.93,-134.09"/>
</a>
</g>
</g>
<!-- Node6 -->
<g id="Node000006" class="node">
<title>Node6</title>
<g id="a_Node000006"><a xlink:href="definitions_8cpp.html" target="_top" xlink:title=" ">
<polygon fill="white" stroke="#666666" points="439.75,-97 300,-97 300,-66.5 439.75,-66.5 439.75,-97"/>
<text text-anchor="start" x="308" y="-83.5" font-family="Helvetica,sans-Serif" font-size="10.00">sourcecode/timing/pybindsrc</text>
<text text-anchor="middle" x="369.88" y="-72.25" font-family="Helvetica,sans-Serif" font-size="10.00">/definitions.cpp</text>
</a>
</g>
</g>
<!-- Node1&#45;&gt;Node6 -->
<g id="edge5_Node000001_Node000006" class="edge">
<title>Node1&#45;&gt;Node6</title>
<g id="a_edge5_Node000001_Node000006"><a xlink:title=" ">
<path fill="none" stroke="#63b8ff" d="M528.84,-129.35C494.51,-119.29 452.2,-106.89 419.86,-97.4"/>
<polygon fill="#63b8ff" stroke="#63b8ff" points="527.65,-132.65 538.23,-132.11 529.61,-125.94 527.65,-132.65"/>
</a>
</g>
</g>
<!-- Node7 -->
<g id="Node000007" class="node">
<title>Node7</title>
<g id="a_Node000007"><a xlink:href="PDIEndpointNode_8cpp.html" target="_top" xlink:title=" ">
<polygon fill="white" stroke="#666666" points="572,-97 457.75,-97 457.75,-66.5 572,-66.5 572,-97"/>
<text text-anchor="start" x="465.75" y="-83.5" font-family="Helvetica,sans-Serif" font-size="10.00">sourcecode/timing/src</text>
<text text-anchor="middle" x="514.88" y="-72.25" font-family="Helvetica,sans-Serif" font-size="10.00">/PDIEndpointNode.cpp</text>
</a>
</g>
</g>
<!-- Node1&#45;&gt;Node7 -->
<g id="edge6_Node000001_Node000007" class="edge">
<title>Node1&#45;&gt;Node7</title>
<g id="a_edge6_Node000001_Node000007"><a xlink:title=" ">
<path fill="none" stroke="#63b8ff" d="M564.28,-125.24C553.57,-116.03 541.4,-105.56 531.83,-97.33"/>
<polygon fill="#63b8ff" stroke="#63b8ff" points="561.84,-127.76 571.71,-131.63 566.41,-122.45 561.84,-127.76"/>
</a>
</g>
</g>
<!-- Node8 -->
<g id="Node000008" class="node">
<title>Node8</title>
<g id="a_Node000008"><a xlink:href="PDIFLCmdGeneratorNode_8cpp.html" target="_top" xlink:title=" ">
<polygon fill="white" stroke="#666666" points="741.75,-97 590,-97 590,-66.5 741.75,-66.5 741.75,-97"/>
<text text-anchor="start" x="598" y="-83.5" font-family="Helvetica,sans-Serif" font-size="10.00">sourcecode/timing/src</text>
<text text-anchor="middle" x="665.88" y="-72.25" font-family="Helvetica,sans-Serif" font-size="10.00">/PDIFLCmdGeneratorNode.cpp</text>
</a>
</g>
</g>
<!-- Node1&#45;&gt;Node8 -->
<g id="edge7_Node000001_Node000008" class="edge">
<title>Node1&#45;&gt;Node8</title>
<g id="a_edge7_Node000001_Node000008"><a xlink:title=" ">
<path fill="none" stroke="#63b8ff" d="M615.81,-125.24C626.67,-116.03 638.99,-105.56 648.7,-97.33"/>
<polygon fill="#63b8ff" stroke="#63b8ff" points="613.63,-122.5 608.27,-131.63 618.16,-127.83 613.63,-122.5"/>
</a>
</g>
</g>
<!-- Node9 -->
<g id="Node000009" class="node">
<title>Node9</title>
<g id="a_Node000009"><a xlink:href="PartitionNode_8cpp.html" target="_top" xlink:title=" ">
<polygon fill="white" stroke="#666666" points="871.88,-97 759.88,-97 759.88,-66.5 871.88,-66.5 871.88,-97"/>
<text text-anchor="start" x="767.88" y="-83.5" font-family="Helvetica,sans-Serif" font-size="10.00">sourcecode/timing/src</text>
<text text-anchor="middle" x="815.88" y="-72.25" font-family="Helvetica,sans-Serif" font-size="10.00">/PartitionNode.cpp</text>
</a>
</g>
</g>
<!-- Node1&#45;&gt;Node9 -->
<g id="edge8_Node000001_Node000009" class="edge">
<title>Node1&#45;&gt;Node9</title>
<g id="a_edge8_Node000001_Node000009"><a xlink:title=" ">
<path fill="none" stroke="#63b8ff" d="M652.12,-129.49C687.46,-119.4 731.16,-106.93 764.53,-97.4"/>
<polygon fill="#63b8ff" stroke="#63b8ff" points="651.55,-126.01 642.9,-132.12 653.47,-132.74 651.55,-126.01"/>
</a>
</g>
</g>
<!-- Node10 -->
<g id="Node000010" class="node">
<title>Node10</title>
<g id="a_Node000010"><a xlink:href="TriggerReceiverNode_8cpp.html" target="_top" xlink:title=" ">
<polygon fill="white" stroke="#666666" points="1018.12,-97 889.62,-97 889.62,-66.5 1018.12,-66.5 1018.12,-97"/>
<text text-anchor="start" x="897.62" y="-83.5" font-family="Helvetica,sans-Serif" font-size="10.00">sourcecode/timing/src</text>
<text text-anchor="middle" x="953.88" y="-72.25" font-family="Helvetica,sans-Serif" font-size="10.00">/TriggerReceiverNode.cpp</text>
</a>
</g>
</g>
<!-- Node1&#45;&gt;Node10 -->
<g id="edge9_Node000001_Node000010" class="edge">
<title>Node1&#45;&gt;Node10</title>
<g id="a_edge9_Node000001_Node000010"><a xlink:title=" ">
<path fill="none" stroke="#63b8ff" d="M689.2,-130.65C745.48,-121.1 817.18,-108.72 880.88,-97 883.67,-96.49 886.52,-95.96 889.4,-95.41"/>
<polygon fill="#63b8ff" stroke="#63b8ff" points="688.92,-127.15 679.64,-132.27 690.09,-134.05 688.92,-127.15"/>
</a>
</g>
</g>
<!-- Node3 -->
<g id="Node000003" class="node">
<title>Node3</title>
<g id="a_Node000003"><a xlink:href="master_8cpp.html" target="_top" xlink:title=" ">
<polygon fill="white" stroke="#666666" points="139.75,-30.5 0,-30.5 0,0 139.75,0 139.75,-30.5"/>
<text text-anchor="start" x="8" y="-17" font-family="Helvetica,sans-Serif" font-size="10.00">sourcecode/timing/pybindsrc</text>
<text text-anchor="middle" x="69.88" y="-5.75" font-family="Helvetica,sans-Serif" font-size="10.00">/master.cpp</text>
</a>
</g>
</g>
<!-- Node2&#45;&gt;Node3 -->
<g id="edge2_Node000002_Node000003" class="edge">
<title>Node2&#45;&gt;Node3</title>
<g id="a_edge2_Node000002_Node000003"><a xlink:title=" ">
<path fill="none" stroke="#63b8ff" d="M170.82,-61.47C148.89,-51.64 122.65,-39.89 102.42,-30.83"/>
<polygon fill="#63b8ff" stroke="#63b8ff" points="169.26,-64.6 179.82,-65.5 172.12,-58.21 169.26,-64.6"/>
</a>
</g>
</g>
<!-- Node4 -->
<g id="Node000004" class="node">
<title>Node4</title>
<g id="a_Node000004"><a xlink:href="OverlordDesign_8cpp.html" target="_top" xlink:title=" ">
<polygon fill="white" stroke="#666666" points="269.88,-30.5 157.88,-30.5 157.88,0 269.88,0 269.88,-30.5"/>
<text text-anchor="start" x="165.88" y="-17" font-family="Helvetica,sans-Serif" font-size="10.00">sourcecode/timing/src</text>
<text text-anchor="middle" x="213.88" y="-5.75" font-family="Helvetica,sans-Serif" font-size="10.00">/OverlordDesign.cpp</text>
</a>
</g>
</g>
<!-- Node2&#45;&gt;Node4 -->
<g id="edge3_Node000002_Node000004" class="edge">
<title>Node2&#45;&gt;Node4</title>
<g id="a_edge3_Node000002_Node000004"><a xlink:title=" ">
<path fill="none" stroke="#63b8ff" d="M213.88,-54.81C213.88,-46.64 213.88,-37.91 213.88,-30.83"/>
<polygon fill="#63b8ff" stroke="#63b8ff" points="210.38,-54.6 213.88,-64.6 217.38,-54.6 210.38,-54.6"/>
</a>
</g>
</g>
<!-- Node5 -->
<g id="Node000005" class="node">
<title>Node5</title>
<g id="a_Node000005"><a xlink:href="PDIMasterNode_8cpp.html" target="_top" xlink:title=" ">
<polygon fill="white" stroke="#666666" points="399.88,-30.5 287.88,-30.5 287.88,0 399.88,0 399.88,-30.5"/>
<text text-anchor="start" x="295.88" y="-17" font-family="Helvetica,sans-Serif" font-size="10.00">sourcecode/timing/src</text>
<text text-anchor="middle" x="343.88" y="-5.75" font-family="Helvetica,sans-Serif" font-size="10.00">/PDIMasterNode.cpp</text>
</a>
</g>
</g>
<!-- Node2&#45;&gt;Node5 -->
<g id="edge4_Node000002_Node000005" class="edge">
<title>Node2&#45;&gt;Node5</title>
<g id="a_edge4_Node000002_Node000005"><a xlink:title=" ">
<path fill="none" stroke="#63b8ff" d="M253.56,-61.06C273.19,-51.32 296.48,-39.76 314.49,-30.83"/>
<polygon fill="#63b8ff" stroke="#63b8ff" points="252.13,-57.86 244.73,-65.44 255.24,-64.13 252.13,-57.86"/>
</a>
</g>
</g>
</g>
</svg>
