<?xml version="1.0" encoding="UTF-8" standalone="no"?>
<!DOCTYPE svg PUBLIC "-//W3C//DTD SVG 1.1//EN"
 "http://www.w3.org/Graphics/SVG/1.1/DTD/svg11.dtd">
<!-- Generated by graphviz version 9.0.0 (20230911.1827)
 -->
<!-- Title: sourcecode/timing/include/timing/PDIMasterGlobalNode.hpp Pages: 1 -->
<svg width="442pt" height="172pt"
 viewBox="0.00 0.00 442.12 171.50" xmlns="http://www.w3.org/2000/svg" xmlns:xlink="http://www.w3.org/1999/xlink">
<g id="graph0" class="graph" transform="scale(1 1) rotate(0) translate(4 167.5)">
<title>sourcecode/timing/include/timing/PDIMasterGlobalNode.hpp</title>
<!-- Node1 -->
<g id="Node000001" class="node">
<title>Node1</title>
<g id="a_Node000001"><a xlink:title=" ">
<polygon fill="#999999" stroke="#666666" points="371.75,-163.5 208,-163.5 208,-133 371.75,-133 371.75,-163.5"/>
<text text-anchor="start" x="216" y="-150" font-family="Helvetica,sans-Serif" font-size="10.00">sourcecode/timing/include</text>
<text text-anchor="middle" x="289.88" y="-138.75" font-family="Helvetica,sans-Serif" font-size="10.00">/timing/PDIMasterGlobalNode.hpp</text>
</a>
</g>
</g>
<!-- Node2 -->
<g id="Node000002" class="node">
<title>Node2</title>
<g id="a_Node000002"><a xlink:href="PDIMasterNode_8hpp.html" target="_top" xlink:title=" ">
<polygon fill="white" stroke="#666666" points="281.88,-97 145.88,-97 145.88,-66.5 281.88,-66.5 281.88,-97"/>
<text text-anchor="start" x="153.88" y="-83.5" font-family="Helvetica,sans-Serif" font-size="10.00">sourcecode/timing/include</text>
<text text-anchor="middle" x="213.88" y="-72.25" font-family="Helvetica,sans-Serif" font-size="10.00">/timing/PDIMasterNode.hpp</text>
</a>
</g>
</g>
<!-- Node1&#45;&gt;Node2 -->
<g id="edge1_Node000001_Node000002" class="edge">
<title>Node1&#45;&gt;Node2</title>
<g id="a_edge1_Node000001_Node000002"><a xlink:title=" ">
<path fill="none" stroke="#63b8ff" d="M263.94,-125.24C253.08,-116.03 240.76,-105.56 231.05,-97.33"/>
<polygon fill="#63b8ff" stroke="#63b8ff" points="261.59,-127.83 271.48,-131.63 266.12,-122.5 261.59,-127.83"/>
</a>
</g>
</g>
<!-- Node6 -->
<g id="Node000006" class="node">
<title>Node6</title>
<g id="a_Node000006"><a xlink:href="PDIMasterGlobalNode_8cpp.html" target="_top" xlink:title=" ">
<polygon fill="white" stroke="#666666" points="434.12,-97 299.62,-97 299.62,-66.5 434.12,-66.5 434.12,-97"/>
<text text-anchor="start" x="307.62" y="-83.5" font-family="Helvetica,sans-Serif" font-size="10.00">sourcecode/timing/src</text>
<text text-anchor="middle" x="366.88" y="-72.25" font-family="Helvetica,sans-Serif" font-size="10.00">/PDIMasterGlobalNode.cpp</text>
</a>
</g>
</g>
<!-- Node1&#45;&gt;Node6 -->
<g id="edge5_Node000001_Node000006" class="edge">
<title>Node1&#45;&gt;Node6</title>
<g id="a_edge5_Node000001_Node000006"><a xlink:title=" ">
<path fill="none" stroke="#63b8ff" d="M316.15,-125.24C327.15,-116.03 339.64,-105.56 349.47,-97.33"/>
<polygon fill="#63b8ff" stroke="#63b8ff" points="313.93,-122.54 308.51,-131.64 318.42,-127.9 313.93,-122.54"/>
</a>
</g>
</g>
<!-- Node3 -->
<g id="Node000003" class="node">
<title>Node3</title>
<g id="a_Node000003"><a xlink:href="master_8cpp.html" target="_top" xlink:title=" ">
<polygon fill="white" stroke="#666666" points="139.75,-30.5 0,-30.5 0,0 139.75,0 139.75,-30.5"/>
<text text-anchor="start" x="8" y="-17" font-family="Helvetica,sans-Serif" font-size="10.00">sourcecode/timing/pybindsrc</text>
<text text-anchor="middle" x="69.88" y="-5.75" font-family="Helvetica,sans-Serif" font-size="10.00">/master.cpp</text>
</a>
</g>
</g>
<!-- Node2&#45;&gt;Node3 -->
<g id="edge2_Node000002_Node000003" class="edge">
<title>Node2&#45;&gt;Node3</title>
<g id="a_edge2_Node000002_Node000003"><a xlink:title=" ">
<path fill="none" stroke="#63b8ff" d="M170.82,-61.47C148.89,-51.64 122.65,-39.89 102.42,-30.83"/>
<polygon fill="#63b8ff" stroke="#63b8ff" points="169.26,-64.6 179.82,-65.5 172.12,-58.21 169.26,-64.6"/>
</a>
</g>
</g>
<!-- Node4 -->
<g id="Node000004" class="node">
<title>Node4</title>
<g id="a_Node000004"><a xlink:href="OverlordDesign_8cpp.html" target="_top" xlink:title=" ">
<polygon fill="white" stroke="#666666" points="269.88,-30.5 157.88,-30.5 157.88,0 269.88,0 269.88,-30.5"/>
<text text-anchor="start" x="165.88" y="-17" font-family="Helvetica,sans-Serif" font-size="10.00">sourcecode/timing/src</text>
<text text-anchor="middle" x="213.88" y="-5.75" font-family="Helvetica,sans-Serif" font-size="10.00">/OverlordDesign.cpp</text>
</a>
</g>
</g>
<!-- Node2&#45;&gt;Node4 -->
<g id="edge3_Node000002_Node000004" class="edge">
<title>Node2&#45;&gt;Node4</title>
<g id="a_edge3_Node000002_Node000004"><a xlink:title=" ">
<path fill="none" stroke="#63b8ff" d="M213.88,-54.81C213.88,-46.64 213.88,-37.91 213.88,-30.83"/>
<polygon fill="#63b8ff" stroke="#63b8ff" points="210.38,-54.6 213.88,-64.6 217.38,-54.6 210.38,-54.6"/>
</a>
</g>
</g>
<!-- Node5 -->
<g id="Node000005" class="node">
<title>Node5</title>
<g id="a_Node000005"><a xlink:href="PDIMasterNode_8cpp.html" target="_top" xlink:title=" ">
<polygon fill="white" stroke="#666666" points="399.88,-30.5 287.88,-30.5 287.88,0 399.88,0 399.88,-30.5"/>
<text text-anchor="start" x="295.88" y="-17" font-family="Helvetica,sans-Serif" font-size="10.00">sourcecode/timing/src</text>
<text text-anchor="middle" x="343.88" y="-5.75" font-family="Helvetica,sans-Serif" font-size="10.00">/PDIMasterNode.cpp</text>
</a>
</g>
</g>
<!-- Node2&#45;&gt;Node5 -->
<g id="edge4_Node000002_Node000005" class="edge">
<title>Node2&#45;&gt;Node5</title>
<g id="a_edge4_Node000002_Node000005"><a xlink:title=" ">
<path fill="none" stroke="#63b8ff" d="M253.56,-61.06C273.19,-51.32 296.48,-39.76 314.49,-30.83"/>
<polygon fill="#63b8ff" stroke="#63b8ff" points="252.13,-57.86 244.73,-65.44 255.24,-64.13 252.13,-57.86"/>
</a>
</g>
</g>
</g>
</svg>
