<?xml version="1.0" encoding="UTF-8" standalone="no"?>
<!DOCTYPE svg PUBLIC "-//W3C//DTD SVG 1.1//EN"
 "http://www.w3.org/Graphics/SVG/1.1/DTD/svg11.dtd">
<!-- Generated by graphviz version 9.0.0 (20230911.1827)
 -->
<!-- Title: sourcecode/detchannelmaps/src/PdspChannelMapService.hpp Pages: 1 -->
<svg width="357pt" height="94pt"
 viewBox="0.00 0.00 357.00 93.75" xmlns="http://www.w3.org/2000/svg" xmlns:xlink="http://www.w3.org/1999/xlink">
<g id="graph0" class="graph" transform="scale(1 1) rotate(0) translate(4 89.75)">
<title>sourcecode/detchannelmaps/src/PdspChannelMapService.hpp</title>
<!-- Node1 -->
<g id="Node000001" class="node">
<title>Node1</title>
<g id="a_Node000001"><a xlink:title=" ">
<polygon fill="#999999" stroke="#666666" points="266,-85.75 103,-85.75 103,-55.25 266,-55.25 266,-85.75"/>
<text text-anchor="start" x="111" y="-72.25" font-family="Helvetica,sans-Serif" font-size="10.00">sourcecode/detchannelmaps</text>
<text text-anchor="middle" x="184.5" y="-61" font-family="Helvetica,sans-Serif" font-size="10.00">/src/PdspChannelMapService.hpp</text>
</a>
</g>
</g>
<!-- Node2 -->
<g id="Node000002" class="node">
<title>Node2</title>
<g id="a_Node000002"><a xlink:title=" ">
<polygon fill="#e0e0e0" stroke="#999999" points="49,-19.25 0,-19.25 0,0 49,0 49,-19.25"/>
<text text-anchor="middle" x="24.5" y="-5.75" font-family="Helvetica,sans-Serif" font-size="10.00">fstream</text>
</a>
</g>
</g>
<!-- Node1&#45;&gt;Node2 -->
<g id="edge1_Node000001_Node000002" class="edge">
<title>Node1&#45;&gt;Node2</title>
<g id="a_edge1_Node000001_Node000002"><a xlink:title=" ">
<path fill="none" stroke="#63b8ff" d="M144.54,-54.8C118.41,-45.18 84.62,-32.75 59.54,-23.52"/>
<polygon fill="#63b8ff" stroke="#63b8ff" points="61.05,-20.35 50.46,-20.18 58.63,-26.91 61.05,-20.35"/>
</a>
</g>
</g>
<!-- Node3 -->
<g id="Node000003" class="node">
<title>Node3</title>
<g id="a_Node000003"><a xlink:title=" ">
<polygon fill="#e0e0e0" stroke="#999999" points="120.25,-19.25 66.75,-19.25 66.75,0 120.25,0 120.25,-19.25"/>
<text text-anchor="middle" x="93.5" y="-5.75" font-family="Helvetica,sans-Serif" font-size="10.00">iostream</text>
</a>
</g>
</g>
<!-- Node1&#45;&gt;Node3 -->
<g id="edge2_Node000001_Node000003" class="edge">
<title>Node1&#45;&gt;Node3</title>
<g id="a_edge2_Node000001_Node000003"><a xlink:title=" ">
<path fill="none" stroke="#63b8ff" d="M162.01,-54.95C148.28,-46.07 130.77,-34.74 116.89,-25.76"/>
<polygon fill="#63b8ff" stroke="#63b8ff" points="119.1,-23.02 108.8,-20.52 115.29,-28.89 119.1,-23.02"/>
</a>
</g>
</g>
<!-- Node4 -->
<g id="Node000004" class="node">
<title>Node4</title>
<g id="a_Node000004"><a xlink:title=" ">
<polygon fill="#e0e0e0" stroke="#999999" points="177.12,-19.25 137.88,-19.25 137.88,0 177.12,0 177.12,-19.25"/>
<text text-anchor="middle" x="157.5" y="-5.75" font-family="Helvetica,sans-Serif" font-size="10.00">limits</text>
</a>
</g>
</g>
<!-- Node1&#45;&gt;Node4 -->
<g id="edge3_Node000001_Node000004" class="edge">
<title>Node1&#45;&gt;Node4</title>
<g id="a_edge3_Node000001_Node000004"><a xlink:title=" ">
<path fill="none" stroke="#63b8ff" d="M177.83,-54.95C174.39,-47.45 170.15,-38.2 166.43,-30.1"/>
<polygon fill="#63b8ff" stroke="#63b8ff" points="169.64,-28.71 162.29,-21.08 163.28,-31.63 169.64,-28.71"/>
</a>
</g>
</g>
<!-- Node5 -->
<g id="Node000005" class="node">
<title>Node5</title>
<g id="a_Node000005"><a xlink:title=" ">
<polygon fill="#e0e0e0" stroke="#999999" points="229.88,-19.25 195.12,-19.25 195.12,0 229.88,0 229.88,-19.25"/>
<text text-anchor="middle" x="212.5" y="-5.75" font-family="Helvetica,sans-Serif" font-size="10.00">map</text>
</a>
</g>
</g>
<!-- Node1&#45;&gt;Node5 -->
<g id="edge4_Node000001_Node000005" class="edge">
<title>Node1&#45;&gt;Node5</title>
<g id="a_edge4_Node000001_Node000005"><a xlink:title=" ">
<path fill="none" stroke="#63b8ff" d="M191.42,-54.95C194.99,-47.45 199.39,-38.2 203.24,-30.1"/>
<polygon fill="#63b8ff" stroke="#63b8ff" points="206.4,-31.6 207.53,-21.07 200.08,-28.6 206.4,-31.6"/>
</a>
</g>
</g>
<!-- Node6 -->
<g id="Node000006" class="node">
<title>Node6</title>
<g id="a_Node000006"><a xlink:title=" ">
<polygon fill="#e0e0e0" stroke="#999999" points="287.5,-19.25 247.5,-19.25 247.5,0 287.5,0 287.5,-19.25"/>
<text text-anchor="middle" x="267.5" y="-5.75" font-family="Helvetica,sans-Serif" font-size="10.00">string</text>
</a>
</g>
</g>
<!-- Node1&#45;&gt;Node6 -->
<g id="edge5_Node000001_Node000006" class="edge">
<title>Node1&#45;&gt;Node6</title>
<g id="a_edge5_Node000001_Node000006"><a xlink:title=" ">
<path fill="none" stroke="#63b8ff" d="M205.02,-54.95C217.29,-46.24 232.89,-35.18 245.42,-26.28"/>
<polygon fill="#63b8ff" stroke="#63b8ff" points="247.34,-29.22 253.47,-20.58 243.29,-23.51 247.34,-29.22"/>
</a>
</g>
</g>
<!-- Node7 -->
<g id="Node000007" class="node">
<title>Node7</title>
<g id="a_Node000007"><a xlink:title=" ">
<polygon fill="#e0e0e0" stroke="#999999" points="349,-19.25 306,-19.25 306,0 349,0 349,-19.25"/>
<text text-anchor="middle" x="327.5" y="-5.75" font-family="Helvetica,sans-Serif" font-size="10.00">vector</text>
</a>
</g>
</g>
<!-- Node1&#45;&gt;Node7 -->
<g id="edge6_Node000001_Node000007" class="edge">
<title>Node1&#45;&gt;Node7</title>
<g id="a_edge6_Node000001_Node000007"><a xlink:title=" ">
<path fill="none" stroke="#63b8ff" d="M220.22,-54.8C243.15,-45.35 272.69,-33.19 294.97,-24.02"/>
<polygon fill="#63b8ff" stroke="#63b8ff" points="296.26,-27.27 304.17,-20.23 293.59,-20.8 296.26,-27.27"/>
</a>
</g>
</g>
</g>
</svg>
