<?xml version="1.0" encoding="UTF-8" standalone="no"?>
<!DOCTYPE svg PUBLIC "-//W3C//DTD SVG 1.1//EN"
 "http://www.w3.org/Graphics/SVG/1.1/DTD/svg11.dtd">
<!-- Generated by graphviz version 9.0.0 (20230911.1827)
 -->
<!-- Title: sourcecode/oks/include/oks/pipeline.hpp Pages: 1 -->
<svg width="508pt" height="94pt"
 viewBox="0.00 0.00 508.12 93.75" xmlns="http://www.w3.org/2000/svg" xmlns:xlink="http://www.w3.org/1999/xlink">
<g id="graph0" class="graph" transform="scale(1 1) rotate(0) translate(4 89.75)">
<title>sourcecode/oks/include/oks/pipeline.hpp</title>
<!-- Node1 -->
<g id="Node000001" class="node">
<title>Node1</title>
<g id="a_Node000001"><a xlink:title=" ">
<polygon fill="#999999" stroke="#666666" points="366.38,-85.75 247.62,-85.75 247.62,-55.25 366.38,-55.25 366.38,-85.75"/>
<text text-anchor="start" x="255.62" y="-72.25" font-family="Helvetica,sans-Serif" font-size="10.00">sourcecode/oks/include</text>
<text text-anchor="middle" x="307" y="-61" font-family="Helvetica,sans-Serif" font-size="10.00">/oks/pipeline.hpp</text>
</a>
</g>
</g>
<!-- Node2 -->
<g id="Node000002" class="node">
<title>Node2</title>
<g id="a_Node000002"><a xlink:title=" ">
<polygon fill="#e0e0e0" stroke="#999999" points="88,-19.25 0,-19.25 0,0 88,0 88,-19.25"/>
<text text-anchor="middle" x="44" y="-5.75" font-family="Helvetica,sans-Serif" font-size="10.00">boost/thread.hpp</text>
</a>
</g>
</g>
<!-- Node1&#45;&gt;Node2 -->
<g id="edge1_Node000001_Node000002" class="edge">
<title>Node1&#45;&gt;Node2</title>
<g id="a_edge1_Node000001_Node000002"><a xlink:title=" ">
<path fill="none" stroke="#63b8ff" d="M247.32,-56.14C201.69,-45.93 139.41,-31.98 95.85,-22.23"/>
<polygon fill="#63b8ff" stroke="#63b8ff" points="96.64,-18.82 86.12,-20.05 95.11,-25.65 96.64,-18.82"/>
</a>
</g>
</g>
<!-- Node3 -->
<g id="Node000003" class="node">
<title>Node3</title>
<g id="a_Node000003"><a xlink:title=" ">
<polygon fill="#e0e0e0" stroke="#999999" points="224,-19.25 106,-19.25 106,0 224,0 224,-19.25"/>
<text text-anchor="middle" x="165" y="-5.75" font-family="Helvetica,sans-Serif" font-size="10.00">boost/thread/barrier.hpp</text>
</a>
</g>
</g>
<!-- Node1&#45;&gt;Node3 -->
<g id="edge2_Node000001_Node000003" class="edge">
<title>Node1&#45;&gt;Node3</title>
<g id="a_edge2_Node000001_Node000003"><a xlink:title=" ">
<path fill="none" stroke="#63b8ff" d="M271.53,-54.8C248.76,-45.35 219.43,-33.19 197.31,-24.02"/>
<polygon fill="#63b8ff" stroke="#63b8ff" points="198.75,-20.83 188.18,-20.23 196.07,-27.3 198.75,-20.83"/>
</a>
</g>
</g>
<!-- Node4 -->
<g id="Node000004" class="node">
<title>Node4</title>
<g id="a_Node000004"><a xlink:title=" ">
<polygon fill="#e0e0e0" stroke="#999999" points="372,-19.25 242,-19.25 242,0 372,0 372,-19.25"/>
<text text-anchor="middle" x="307" y="-5.75" font-family="Helvetica,sans-Serif" font-size="10.00">boost/thread/condition.hpp</text>
</a>
</g>
</g>
<!-- Node1&#45;&gt;Node4 -->
<g id="edge3_Node000001_Node000004" class="edge">
<title>Node1&#45;&gt;Node4</title>
<g id="a_edge3_Node000001_Node000004"><a xlink:title=" ">
<path fill="none" stroke="#63b8ff" d="M307,-54.95C307,-47.71 307,-38.84 307,-30.94"/>
<polygon fill="#63b8ff" stroke="#63b8ff" points="310.5,-31.21 307,-21.21 303.5,-31.21 310.5,-31.21"/>
</a>
</g>
</g>
<!-- Node5 -->
<g id="Node000005" class="node">
<title>Node5</title>
<g id="a_Node000005"><a xlink:title=" ">
<polygon fill="#e0e0e0" stroke="#999999" points="440.25,-19.25 389.75,-19.25 389.75,0 440.25,0 440.25,-19.25"/>
<text text-anchor="middle" x="415" y="-5.75" font-family="Helvetica,sans-Serif" font-size="10.00">memory</text>
</a>
</g>
</g>
<!-- Node1&#45;&gt;Node5 -->
<g id="edge4_Node000001_Node000005" class="edge">
<title>Node1&#45;&gt;Node5</title>
<g id="a_edge4_Node000001_Node000005"><a xlink:title=" ">
<path fill="none" stroke="#63b8ff" d="M333.97,-54.8C350.58,-45.74 371.78,-34.19 388.33,-25.16"/>
<polygon fill="#63b8ff" stroke="#63b8ff" points="390,-28.24 397.11,-20.38 386.65,-22.09 390,-28.24"/>
</a>
</g>
</g>
<!-- Node6 -->
<g id="Node000006" class="node">
<title>Node6</title>
<g id="a_Node000006"><a xlink:title=" ">
<polygon fill="#e0e0e0" stroke="#999999" points="500.12,-19.25 457.88,-19.25 457.88,0 500.12,0 500.12,-19.25"/>
<text text-anchor="middle" x="479" y="-5.75" font-family="Helvetica,sans-Serif" font-size="10.00">queue</text>
</a>
</g>
</g>
<!-- Node1&#45;&gt;Node6 -->
<g id="edge5_Node000001_Node000006" class="edge">
<title>Node1&#45;&gt;Node6</title>
<g id="a_edge5_Node000001_Node000006"><a xlink:title=" ">
<path fill="none" stroke="#63b8ff" d="M349.96,-54.8C380.04,-44.5 419.59,-30.96 446.94,-21.6"/>
<polygon fill="#63b8ff" stroke="#63b8ff" points="447.73,-25.03 456.06,-18.48 445.47,-18.4 447.73,-25.03"/>
</a>
</g>
</g>
</g>
</svg>
