<?xml version="1.0" encoding="UTF-8" standalone="no"?>
<!DOCTYPE svg PUBLIC "-//W3C//DTD SVG 1.1//EN"
 "http://www.w3.org/Graphics/SVG/1.1/DTD/svg11.dtd">
<!-- Generated by graphviz version 9.0.0 (20230911.1827)
 -->
<!-- Title: sourcecode/okssystem/include/okssystem/Process.hpp Pages: 1 -->
<svg width="512pt" height="172pt"
 viewBox="0.00 0.00 512.25 171.50" xmlns="http://www.w3.org/2000/svg" xmlns:xlink="http://www.w3.org/1999/xlink">
<g id="graph0" class="graph" transform="scale(1 1) rotate(0) translate(4 167.5)">
<title>sourcecode/okssystem/include/okssystem/Process.hpp</title>
<!-- Node1 -->
<g id="Node000001" class="node">
<title>Node1</title>
<g id="a_Node000001"><a xlink:title=" ">
<polygon fill="#999999" stroke="#666666" points="382.5,-163.5 225.5,-163.5 225.5,-133 382.5,-133 382.5,-163.5"/>
<text text-anchor="start" x="233.5" y="-150" font-family="Helvetica,sans-Serif" font-size="10.00">sourcecode/okssystem</text>
<text text-anchor="middle" x="304" y="-138.75" font-family="Helvetica,sans-Serif" font-size="10.00">/include/okssystem/Process.hpp</text>
</a>
</g>
</g>
<!-- Node2 -->
<g id="Node000002" class="node">
<title>Node2</title>
<g id="a_Node000002"><a xlink:href="Executable_8hpp.html" target="_top" xlink:title=" ">
<polygon fill="white" stroke="#666666" points="332.12,-97 163.88,-97 163.88,-66.5 332.12,-66.5 332.12,-97"/>
<text text-anchor="start" x="171.88" y="-83.5" font-family="Helvetica,sans-Serif" font-size="10.00">sourcecode/okssystem</text>
<text text-anchor="middle" x="248" y="-72.25" font-family="Helvetica,sans-Serif" font-size="10.00">/include/okssystem/Executable.hpp</text>
</a>
</g>
</g>
<!-- Node1&#45;&gt;Node2 -->
<g id="edge1_Node000001_Node000002" class="edge">
<title>Node1&#45;&gt;Node2</title>
<g id="a_edge1_Node000001_Node000002"><a xlink:title=" ">
<path fill="none" stroke="#63b8ff" d="M283.93,-124.13C276.17,-115.19 267.52,-105.24 260.66,-97.33"/>
<polygon fill="#63b8ff" stroke="#63b8ff" points="281.1,-126.21 290.3,-131.47 286.39,-121.63 281.1,-126.21"/>
</a>
</g>
</g>
<!-- Node3 -->
<g id="Node000003" class="node">
<title>Node3</title>
<g id="a_Node000003"><a xlink:href="OksSystem_8hpp.html" target="_top" xlink:title=" ">
<polygon fill="white" stroke="#666666" points="172,-30.5 0,-30.5 0,0 172,0 172,-30.5"/>
<text text-anchor="start" x="8" y="-17" font-family="Helvetica,sans-Serif" font-size="10.00">sourcecode/okssystem</text>
<text text-anchor="middle" x="86" y="-5.75" font-family="Helvetica,sans-Serif" font-size="10.00">/include/okssystem/OksSystem.hpp</text>
</a>
</g>
</g>
<!-- Node1&#45;&gt;Node3 -->
<g id="edge5_Node000001_Node000003" class="edge">
<title>Node1&#45;&gt;Node3</title>
<g id="a_edge5_Node000001_Node000003"><a xlink:title=" ">
<path fill="none" stroke="#63b8ff" d="M224.79,-129.21C201.1,-121.59 175.89,-111.12 155,-97 128.72,-79.24 106.61,-48.89 94.92,-30.89"/>
<polygon fill="#63b8ff" stroke="#63b8ff" points="223.51,-132.48 234.1,-132.07 225.57,-125.79 223.51,-132.48"/>
</a>
</g>
</g>
<!-- Node4 -->
<g id="Node000004" class="node">
<title>Node4</title>
<g id="a_Node000004"><a xlink:href="Executable_8cpp.html" target="_top" xlink:title=" ">
<polygon fill="white" stroke="#666666" points="441.25,-30.5 324.75,-30.5 324.75,0 441.25,0 441.25,-30.5"/>
<text text-anchor="start" x="332.75" y="-17" font-family="Helvetica,sans-Serif" font-size="10.00">sourcecode/okssystem</text>
<text text-anchor="middle" x="383" y="-5.75" font-family="Helvetica,sans-Serif" font-size="10.00">/src/Executable.cpp</text>
</a>
</g>
</g>
<!-- Node1&#45;&gt;Node4 -->
<g id="edge6_Node000001_Node000004" class="edge">
<title>Node1&#45;&gt;Node4</title>
<g id="a_edge6_Node000001_Node000004"><a xlink:title=" ">
<path fill="none" stroke="#63b8ff" d="M322.52,-123.69C328.68,-115.44 335.4,-105.99 341,-97 354.87,-74.74 368.41,-47.39 376.22,-30.92"/>
<polygon fill="#63b8ff" stroke="#63b8ff" points="319.83,-121.44 316.55,-131.52 325.4,-125.69 319.83,-121.44"/>
</a>
</g>
</g>
<!-- Node6 -->
<g id="Node000006" class="node">
<title>Node6</title>
<g id="a_Node000006"><a xlink:href="Process_8cpp.html" target="_top" xlink:title=" ">
<polygon fill="white" stroke="#666666" points="504.25,-97 387.75,-97 387.75,-66.5 504.25,-66.5 504.25,-97"/>
<text text-anchor="start" x="395.75" y="-83.5" font-family="Helvetica,sans-Serif" font-size="10.00">sourcecode/okssystem</text>
<text text-anchor="middle" x="446" y="-72.25" font-family="Helvetica,sans-Serif" font-size="10.00">/src/Process.cpp</text>
</a>
</g>
</g>
<!-- Node1&#45;&gt;Node6 -->
<g id="edge7_Node000001_Node000006" class="edge">
<title>Node1&#45;&gt;Node6</title>
<g id="a_edge7_Node000001_Node000006"><a xlink:title=" ">
<path fill="none" stroke="#63b8ff" d="M346.46,-127.97C368.09,-118.14 393.96,-106.39 413.91,-97.33"/>
<polygon fill="#63b8ff" stroke="#63b8ff" points="345.26,-124.67 337.6,-131.99 348.15,-131.04 345.26,-124.67"/>
</a>
</g>
</g>
<!-- Node2&#45;&gt;Node3 -->
<g id="edge2_Node000002_Node000003" class="edge">
<title>Node2&#45;&gt;Node3</title>
<g id="a_edge2_Node000002_Node000003"><a xlink:title=" ">
<path fill="none" stroke="#63b8ff" d="M200.61,-61.88C175.82,-52.01 145.93,-40.11 122.89,-30.94"/>
<polygon fill="#63b8ff" stroke="#63b8ff" points="199.25,-65.11 209.83,-65.55 201.84,-58.6 199.25,-65.11"/>
</a>
</g>
</g>
<!-- Node2&#45;&gt;Node4 -->
<g id="edge3_Node000002_Node000004" class="edge">
<title>Node2&#45;&gt;Node4</title>
<g id="a_edge3_Node000002_Node000004"><a xlink:title=" ">
<path fill="none" stroke="#63b8ff" d="M288.92,-61.2C309.37,-51.43 333.7,-39.81 352.49,-30.83"/>
<polygon fill="#63b8ff" stroke="#63b8ff" points="287.51,-57.99 280,-65.46 290.53,-64.31 287.51,-57.99"/>
</a>
</g>
</g>
<!-- Node5 -->
<g id="Node000005" class="node">
<title>Node5</title>
<g id="a_Node000005"><a xlink:href="File_8cpp.html" target="_top" xlink:title=" ">
<polygon fill="white" stroke="#666666" points="306.25,-30.5 189.75,-30.5 189.75,0 306.25,0 306.25,-30.5"/>
<text text-anchor="start" x="197.75" y="-17" font-family="Helvetica,sans-Serif" font-size="10.00">sourcecode/okssystem</text>
<text text-anchor="middle" x="248" y="-5.75" font-family="Helvetica,sans-Serif" font-size="10.00">/src/File.cpp</text>
</a>
</g>
</g>
<!-- Node2&#45;&gt;Node5 -->
<g id="edge4_Node000002_Node000005" class="edge">
<title>Node2&#45;&gt;Node5</title>
<g id="a_edge4_Node000002_Node000005"><a xlink:title=" ">
<path fill="none" stroke="#63b8ff" d="M248,-54.81C248,-46.64 248,-37.91 248,-30.83"/>
<polygon fill="#63b8ff" stroke="#63b8ff" points="244.5,-54.6 248,-64.6 251.5,-54.6 244.5,-54.6"/>
</a>
</g>
</g>
</g>
</svg>
