<?xml version="1.0" encoding="UTF-8" standalone="no"?>
<!DOCTYPE svg PUBLIC "-//W3C//DTD SVG 1.1//EN"
 "http://www.w3.org/Graphics/SVG/1.1/DTD/svg11.dtd">
<!-- Generated by graphviz version 9.0.0 (20230911.1827)
 -->
<!-- Title: sourcecode/iomanager/include/iomanager/queue/QueueBase.hpp Pages: 1 -->
<svg width="1921pt" height="360pt"
 viewBox="0.00 0.00 1920.62 359.75" xmlns="http://www.w3.org/2000/svg" xmlns:xlink="http://www.w3.org/1999/xlink">
<g id="graph0" class="graph" transform="scale(1 1) rotate(0) translate(4 355.75)">
<title>sourcecode/iomanager/include/iomanager/queue/QueueBase.hpp</title>
<!-- Node1 -->
<g id="Node000001" class="node">
<title>Node1</title>
<g id="a_Node000001"><a xlink:title=" ">
<polygon fill="#999999" stroke="#666666" points="643,-351.75 516,-351.75 516,-310 643,-310 643,-351.75"/>
<text text-anchor="start" x="524" y="-338.25" font-family="Helvetica,sans-Serif" font-size="10.00">sourcecode/iomanager</text>
<text text-anchor="start" x="524" y="-327" font-family="Helvetica,sans-Serif" font-size="10.00">/include/iomanager/queue</text>
<text text-anchor="middle" x="579.5" y="-315.75" font-family="Helvetica,sans-Serif" font-size="10.00">/QueueBase.hpp</text>
</a>
</g>
</g>
<!-- Node2 -->
<g id="Node000002" class="node">
<title>Node2</title>
<g id="a_Node000002"><a xlink:title=" ">
<polygon fill="#e0e0e0" stroke="#999999" points="196.5,-274 90.5,-274 90.5,-243.5 196.5,-243.5 196.5,-274"/>
<text text-anchor="start" x="98.5" y="-260.5" font-family="Helvetica,sans-Serif" font-size="10.00">iomanager/queueinfo</text>
<text text-anchor="middle" x="143.5" y="-249.25" font-family="Helvetica,sans-Serif" font-size="10.00">/InfoNljs.hpp</text>
</a>
</g>
</g>
<!-- Node1&#45;&gt;Node2 -->
<g id="edge1_Node000001_Node000002" class="edge">
<title>Node1&#45;&gt;Node2</title>
<g id="a_edge1_Node000001_Node000002"><a xlink:title=" ">
<path fill="none" stroke="#63b8ff" d="M515.64,-321.38C441.92,-311.29 317.12,-293.39 210.5,-274 209.67,-273.85 208.83,-273.69 207.98,-273.54"/>
<polygon fill="#63b8ff" stroke="#63b8ff" points="208.8,-270.13 198.32,-271.68 207.48,-277.01 208.8,-270.13"/>
</a>
</g>
</g>
<!-- Node3 -->
<g id="Node000003" class="node">
<title>Node3</title>
<g id="a_Node000003"><a xlink:href="NamedObject_8hpp.html" target="_top" xlink:title=" ">
<polygon fill="white" stroke="#666666" points="418.38,-268.38 290.62,-268.38 290.62,-249.12 418.38,-249.12 418.38,-268.38"/>
<text text-anchor="middle" x="354.5" y="-254.88" font-family="Helvetica,sans-Serif" font-size="10.00">utilities/NamedObject.hpp</text>
</a>
</g>
</g>
<!-- Node1&#45;&gt;Node3 -->
<g id="edge2_Node000001_Node000003" class="edge">
<title>Node1&#45;&gt;Node3</title>
<g id="a_edge2_Node000001_Node000003"><a xlink:title=" ">
<path fill="none" stroke="#63b8ff" d="M515.63,-309.97C476.64,-297.82 428,-282.66 394.42,-272.19"/>
<polygon fill="#63b8ff" stroke="#63b8ff" points="395.68,-268.92 385.09,-269.28 393.6,-275.6 395.68,-268.92"/>
</a>
</g>
</g>
<!-- Node4 -->
<g id="Node000004" class="node">
<title>Node4</title>
<g id="a_Node000004"><a xlink:title=" ">
<polygon fill="#e0e0e0" stroke="#999999" points="393.5,-74.5 353.5,-74.5 353.5,-55.25 393.5,-55.25 393.5,-74.5"/>
<text text-anchor="middle" x="373.5" y="-61" font-family="Helvetica,sans-Serif" font-size="10.00">string</text>
</a>
</g>
</g>
<!-- Node1&#45;&gt;Node4 -->
<g id="edge50_Node000001_Node000004" class="edge">
<title>Node1&#45;&gt;Node4</title>
<g id="a_edge50_Node000001_Node000004"><a xlink:title=" ">
<path fill="none" stroke="#63b8ff" d="M515.69,-327.15C437.17,-322.31 310.66,-309.14 281.5,-274 254.57,-241.55 234.08,-227.54 311.5,-110.5 319.73,-98.06 332.7,-87.93 344.66,-80.49"/>
<polygon fill="#63b8ff" stroke="#63b8ff" points="346.13,-83.68 353.02,-75.64 342.62,-77.63 346.13,-83.68"/>
</a>
</g>
</g>
<!-- Node5 -->
<g id="Node000005" class="node">
<title>Node5</title>
<g id="a_Node000005"><a xlink:href="InfoCollector_8hpp.html" target="_top" xlink:title=" ">
<polygon fill="white" stroke="#666666" points="234.88,-135.38 104.12,-135.38 104.12,-116.12 234.88,-116.12 234.88,-135.38"/>
<text text-anchor="middle" x="169.5" y="-121.88" font-family="Helvetica,sans-Serif" font-size="10.00">opmonlib/InfoCollector.hpp</text>
</a>
</g>
</g>
<!-- Node1&#45;&gt;Node5 -->
<g id="edge4_Node000001_Node000005" class="edge">
<title>Node1&#45;&gt;Node5</title>
<g id="a_edge4_Node000001_Node000005"><a xlink:title=" ">
<path fill="none" stroke="#63b8ff" d="M515.65,-325.74C431.79,-319.19 290.27,-304 248.5,-274 204.81,-242.63 182.97,-179.47 174.24,-147.02"/>
<polygon fill="#63b8ff" stroke="#63b8ff" points="177.64,-146.18 171.81,-137.33 170.85,-147.88 177.64,-146.18"/>
</a>
</g>
</g>
<!-- Node10 -->
<g id="Node000010" class="node">
<title>Node10</title>
<g id="a_Node000010"><a xlink:href="Issue_8hpp.html" target="_top" xlink:title=" ">
<polygon fill="white" stroke="#666666" points="750.75,-268.38 676.25,-268.38 676.25,-249.12 750.75,-249.12 750.75,-268.38"/>
<text text-anchor="middle" x="713.5" y="-254.88" font-family="Helvetica,sans-Serif" font-size="10.00">ers/Issue.hpp</text>
</a>
</g>
</g>
<!-- Node1&#45;&gt;Node10 -->
<g id="edge10_Node000001_Node000010" class="edge">
<title>Node1&#45;&gt;Node10</title>
<g id="a_edge10_Node000001_Node000010"><a xlink:title=" ">
<path fill="none" stroke="#63b8ff" d="M618.26,-309.59C640.04,-298.19 666.7,-284.24 686.27,-274"/>
<polygon fill="#63b8ff" stroke="#63b8ff" points="687.75,-277.17 694.99,-269.44 684.51,-270.97 687.75,-277.17"/>
</a>
</g>
</g>
<!-- Node16 -->
<g id="Node000016" class="node">
<title>Node16</title>
<g id="a_Node000016"><a xlink:title=" ">
<polygon fill="#e0e0e0" stroke="#999999" points="1364.75,-201.88 1314.25,-201.88 1314.25,-182.62 1364.75,-182.62 1364.75,-201.88"/>
<text text-anchor="middle" x="1339.5" y="-188.38" font-family="Helvetica,sans-Serif" font-size="10.00">memory</text>
</a>
</g>
</g>
<!-- Node1&#45;&gt;Node16 -->
<g id="edge49_Node000001_Node000016" class="edge">
<title>Node1&#45;&gt;Node16</title>
<g id="a_edge49_Node000001_Node000016"><a xlink:title=" ">
<path fill="none" stroke="#63b8ff" d="M643.23,-324.1C770.93,-311.46 1066.4,-276.76 1305.5,-207.5 1306.85,-207.11 1308.22,-206.68 1309.59,-206.22"/>
<polygon fill="#63b8ff" stroke="#63b8ff" points="1310.45,-209.64 1318.58,-202.85 1307.99,-203.09 1310.45,-209.64"/>
</a>
</g>
</g>
<!-- Node17 -->
<g id="Node000017" class="node">
<title>Node17</title>
<g id="a_Node000017"><a xlink:title=" ">
<polygon fill="#e0e0e0" stroke="#999999" points="520.12,-135.38 474.88,-135.38 474.88,-116.12 520.12,-116.12 520.12,-135.38"/>
<text text-anchor="middle" x="497.5" y="-121.88" font-family="Helvetica,sans-Serif" font-size="10.00">chrono</text>
</a>
</g>
</g>
<!-- Node1&#45;&gt;Node17 -->
<g id="edge47_Node000001_Node000017" class="edge">
<title>Node1&#45;&gt;Node17</title>
<g id="a_edge47_Node000001_Node000017"><a xlink:title=" ">
<path fill="none" stroke="#63b8ff" d="M540.23,-309.53C491.06,-283.15 411.31,-237 395.5,-207.5 389.1,-195.55 388.34,-188.51 395.5,-177 410.29,-153.23 439.99,-140.38 463.54,-133.64"/>
<polygon fill="#63b8ff" stroke="#63b8ff" points="464.25,-137.07 473.05,-131.18 462.5,-130.29 464.25,-137.07"/>
</a>
</g>
</g>
<!-- Node20 -->
<g id="Node000020" class="node">
<title>Node20</title>
<g id="a_Node000020"><a xlink:title=" ">
<polygon fill="#e0e0e0" stroke="#999999" points="732,-74.5 689,-74.5 689,-55.25 732,-55.25 732,-74.5"/>
<text text-anchor="middle" x="710.5" y="-61" font-family="Helvetica,sans-Serif" font-size="10.00">vector</text>
</a>
</g>
</g>
<!-- Node1&#45;&gt;Node20 -->
<g id="edge51_Node000001_Node000020" class="edge">
<title>Node1&#45;&gt;Node20</title>
<g id="a_edge51_Node000001_Node000020"><a xlink:title=" ">
<path fill="none" stroke="#63b8ff" d="M643.46,-330.14C867.66,-329.56 1611.93,-314.41 1753.5,-141 1762.07,-130.5 1762.89,-120.28 1753.5,-110.5 1719.42,-75.01 917.65,-76.84 868.5,-74.5 825.43,-72.45 775.79,-69.67 743.81,-67.83"/>
<polygon fill="#63b8ff" stroke="#63b8ff" points="744.17,-64.34 733.99,-67.26 743.77,-71.33 744.17,-64.34"/>
</a>
</g>
</g>
<!-- Node34 -->
<g id="Node000034" class="node">
<title>Node34</title>
<g id="a_Node000034"><a xlink:title=" ">
<polygon fill="#e0e0e0" stroke="#999999" points="1846.12,-268.38 1800.88,-268.38 1800.88,-249.12 1846.12,-249.12 1846.12,-268.38"/>
<text text-anchor="middle" x="1823.5" y="-254.88" font-family="Helvetica,sans-Serif" font-size="10.00">atomic</text>
</a>
</g>
</g>
<!-- Node1&#45;&gt;Node34 -->
<g id="edge46_Node000001_Node000034" class="edge">
<title>Node1&#45;&gt;Node34</title>
<g id="a_edge46_Node000001_Node000034"><a xlink:title=" ">
<path fill="none" stroke="#63b8ff" d="M643.21,-329.61C859.57,-328.31 1565.04,-320.5 1786.5,-274 1788.53,-273.57 1790.6,-273.05 1792.67,-272.46"/>
<polygon fill="#63b8ff" stroke="#63b8ff" points="1793.71,-275.8 1802.07,-269.28 1791.47,-269.17 1793.71,-275.8"/>
</a>
</g>
</g>
<!-- Node35 -->
<g id="Node000035" class="node">
<title>Node35</title>
<g id="a_Node000035"><a xlink:title=" ">
<polygon fill="#e0e0e0" stroke="#999999" points="1912.62,-268.38 1864.38,-268.38 1864.38,-249.12 1912.62,-249.12 1912.62,-268.38"/>
<text text-anchor="middle" x="1888.5" y="-254.88" font-family="Helvetica,sans-Serif" font-size="10.00">cstddef</text>
</a>
</g>
</g>
<!-- Node1&#45;&gt;Node35 -->
<g id="edge48_Node000001_Node000035" class="edge">
<title>Node1&#45;&gt;Node35</title>
<g id="a_edge48_Node000001_Node000035"><a xlink:title=" ">
<path fill="none" stroke="#63b8ff" d="M643.38,-330.13C868.09,-330.55 1621.15,-327.81 1855.5,-274 1857.1,-273.63 1858.71,-273.19 1860.33,-272.7"/>
<polygon fill="#63b8ff" stroke="#63b8ff" points="1861.18,-276.11 1869.33,-269.34 1858.74,-269.55 1861.18,-276.11"/>
</a>
</g>
</g>
<!-- Node3&#45;&gt;Node4 -->
<g id="edge3_Node000003_Node000004" class="edge">
<title>Node3&#45;&gt;Node4</title>
<g id="a_edge3_Node000003_Node000004"><a xlink:title=" ">
<path fill="none" stroke="#63b8ff" d="M347.11,-248.82C339.73,-239.28 328.88,-223.37 324.5,-207.5 313.04,-165.94 307.08,-149.93 324.5,-110.5 329.66,-98.82 339.56,-88.88 349.12,-81.36"/>
<polygon fill="#63b8ff" stroke="#63b8ff" points="351.08,-84.26 357.14,-75.57 346.99,-78.58 351.08,-84.26"/>
</a>
</g>
</g>
<!-- Node5&#45;&gt;Node4 -->
<g id="edge8_Node000005_Node000004" class="edge">
<title>Node5&#45;&gt;Node4</title>
<g id="a_edge8_Node000005_Node000004"><a xlink:title=" ">
<path fill="none" stroke="#63b8ff" d="M200.93,-115.68C239.32,-104.6 303.86,-85.97 342.19,-74.91"/>
<polygon fill="#63b8ff" stroke="#63b8ff" points="343.1,-78.29 351.74,-72.16 341.16,-71.57 343.1,-78.29"/>
</a>
</g>
</g>
<!-- Node6 -->
<g id="Node000006" class="node">
<title>Node6</title>
<g id="a_Node000006"><a xlink:title=" ">
<polygon fill="#e0e0e0" stroke="#999999" points="97,-74.5 0,-74.5 0,-55.25 97,-55.25 97,-74.5"/>
<text text-anchor="middle" x="48.5" y="-61" font-family="Helvetica,sans-Serif" font-size="10.00">nlohmann/json.hpp</text>
</a>
</g>
</g>
<!-- Node5&#45;&gt;Node6 -->
<g id="edge5_Node000005_Node000006" class="edge">
<title>Node5&#45;&gt;Node6</title>
<g id="a_edge5_Node000005_Node000006"><a xlink:title=" ">
<path fill="none" stroke="#63b8ff" d="M150.86,-115.68C131.17,-106.1 99.89,-90.88 77.08,-79.78"/>
<polygon fill="#63b8ff" stroke="#63b8ff" points="78.85,-76.75 68.32,-75.52 75.79,-83.04 78.85,-76.75"/>
</a>
</g>
</g>
<!-- Node7 -->
<g id="Node000007" class="node">
<title>Node7</title>
<g id="a_Node000007"><a xlink:title=" ">
<polygon fill="#e0e0e0" stroke="#999999" points="155.5,-74.5 115.5,-74.5 115.5,-55.25 155.5,-55.25 155.5,-74.5"/>
<text text-anchor="middle" x="135.5" y="-61" font-family="Helvetica,sans-Serif" font-size="10.00">ctime</text>
</a>
</g>
</g>
<!-- Node5&#45;&gt;Node7 -->
<g id="edge6_Node000005_Node000007" class="edge">
<title>Node5&#45;&gt;Node7</title>
<g id="a_edge6_Node000005_Node000007"><a xlink:title=" ">
<path fill="none" stroke="#63b8ff" d="M164.34,-115.81C159.59,-107.6 152.41,-95.16 146.4,-84.75"/>
<polygon fill="#63b8ff" stroke="#63b8ff" points="149.5,-83.12 141.47,-76.21 143.44,-86.62 149.5,-83.12"/>
</a>
</g>
</g>
<!-- Node8 -->
<g id="Node000008" class="node">
<title>Node8</title>
<g id="a_Node000008"><a xlink:title=" ">
<polygon fill="#e0e0e0" stroke="#999999" points="731.25,-19.25 677.75,-19.25 677.75,0 731.25,0 731.25,-19.25"/>
<text text-anchor="middle" x="704.5" y="-5.75" font-family="Helvetica,sans-Serif" font-size="10.00">iostream</text>
</a>
</g>
</g>
<!-- Node5&#45;&gt;Node8 -->
<g id="edge7_Node000005_Node000008" class="edge">
<title>Node5&#45;&gt;Node8</title>
<g id="a_edge7_Node000005_Node000008"><a xlink:title=" ">
<path fill="none" stroke="#63b8ff" d="M197.17,-115.67C225.11,-106.25 269.33,-90.67 306.5,-74.5 323.86,-66.95 326.39,-60.77 344.5,-55.25 458.15,-20.58 599.82,-12.77 666.48,-11.07"/>
<polygon fill="#63b8ff" stroke="#63b8ff" points="666.22,-14.57 676.14,-10.85 666.06,-7.57 666.22,-14.57"/>
</a>
</g>
</g>
<!-- Node9 -->
<g id="Node000009" class="node">
<title>Node9</title>
<g id="a_Node000009"><a xlink:href="JSONTags_8hpp.html" target="_top" xlink:title=" ">
<polygon fill="white" stroke="#666666" points="297.88,-74.5 173.12,-74.5 173.12,-55.25 297.88,-55.25 297.88,-74.5"/>
<text text-anchor="middle" x="235.5" y="-61" font-family="Helvetica,sans-Serif" font-size="10.00">opmonlib/JSONTags.hpp</text>
</a>
</g>
</g>
<!-- Node5&#45;&gt;Node9 -->
<g id="edge9_Node000005_Node000009" class="edge">
<title>Node5&#45;&gt;Node9</title>
<g id="a_edge9_Node000005_Node000009"><a xlink:title=" ">
<path fill="none" stroke="#63b8ff" d="M179.52,-115.81C189.41,-106.99 204.76,-93.3 216.88,-82.48"/>
<polygon fill="#63b8ff" stroke="#63b8ff" points="219.12,-85.18 224.25,-75.91 214.46,-79.95 219.12,-85.18"/>
</a>
</g>
</g>
<!-- Node10&#45;&gt;Node4 -->
<g id="edge15_Node000010_Node000004" class="edge">
<title>Node10&#45;&gt;Node4</title>
<g id="a_edge15_Node000010_Node000004"><a xlink:title=" ">
<path fill="none" stroke="#63b8ff" d="M675.95,-257.16C600.46,-255.16 434.23,-246.33 395.5,-207.5 363.37,-175.28 365.92,-116.82 369.99,-86.05"/>
<polygon fill="#63b8ff" stroke="#63b8ff" points="373.45,-86.63 371.51,-76.22 366.53,-85.57 373.45,-86.63"/>
</a>
</g>
</g>
<!-- Node10&#45;&gt;Node8 -->
<g id="edge16_Node000010_Node000008" class="edge">
<title>Node10&#45;&gt;Node8</title>
<g id="a_edge16_Node000010_Node000008"><a xlink:title=" ">
<path fill="none" stroke="#63b8ff" d="M751.12,-253.78C780.37,-248.49 819.12,-236.18 838.5,-207.5 846.09,-196.27 843.94,-189.42 838.5,-177 829.04,-155.39 814.95,-158.83 799.5,-141 769.2,-106.04 768.15,-92.34 740.5,-55.25 733.82,-46.29 726.07,-36.6 719.47,-28.55"/>
<polygon fill="#63b8ff" stroke="#63b8ff" points="722.19,-26.34 713.12,-20.86 716.79,-30.8 722.19,-26.34"/>
</a>
</g>
</g>
<!-- Node11 -->
<g id="Node000011" class="node">
<title>Node11</title>
<g id="a_Node000011"><a xlink:title=" ">
<polygon fill="#e0e0e0" stroke="#999999" points="604.12,-201.88 558.88,-201.88 558.88,-182.62 604.12,-182.62 604.12,-201.88"/>
<text text-anchor="middle" x="581.5" y="-188.38" font-family="Helvetica,sans-Serif" font-size="10.00">math.h</text>
</a>
</g>
</g>
<!-- Node10&#45;&gt;Node11 -->
<g id="edge11_Node000010_Node000011" class="edge">
<title>Node10&#45;&gt;Node11</title>
<g id="a_edge11_Node000010_Node000011"><a xlink:title=" ">
<path fill="none" stroke="#63b8ff" d="M694.87,-248.65C672.85,-237.89 635.98,-219.87 610.29,-207.32"/>
<polygon fill="#63b8ff" stroke="#63b8ff" points="611.92,-204.22 601.4,-202.97 608.85,-210.51 611.92,-204.22"/>
</a>
</g>
</g>
<!-- Node12 -->
<g id="Node000012" class="node">
<title>Node12</title>
<g id="a_Node000012"><a xlink:title=" ">
<polygon fill="#e0e0e0" stroke="#999999" points="829.75,-201.88 785.25,-201.88 785.25,-182.62 829.75,-182.62 829.75,-201.88"/>
<text text-anchor="middle" x="807.5" y="-188.38" font-family="Helvetica,sans-Serif" font-size="10.00">stdio.h</text>
</a>
</g>
</g>
<!-- Node10&#45;&gt;Node12 -->
<g id="edge12_Node000010_Node000012" class="edge">
<title>Node10&#45;&gt;Node12</title>
<g id="a_edge12_Node000010_Node000012"><a xlink:title=" ">
<path fill="none" stroke="#63b8ff" d="M726.57,-248.78C741.64,-238.44 766.67,-221.27 784.91,-208.75"/>
<polygon fill="#63b8ff" stroke="#63b8ff" points="786.72,-211.75 792.99,-203.21 782.76,-205.98 786.72,-211.75"/>
</a>
</g>
</g>
<!-- Node13 -->
<g id="Node000013" class="node">
<title>Node13</title>
<g id="a_Node000013"><a xlink:title=" ">
<polygon fill="#e0e0e0" stroke="#999999" points="933.25,-201.88 885.75,-201.88 885.75,-182.62 933.25,-182.62 933.25,-201.88"/>
<text text-anchor="middle" x="909.5" y="-188.38" font-family="Helvetica,sans-Serif" font-size="10.00">string.h</text>
</a>
</g>
</g>
<!-- Node10&#45;&gt;Node13 -->
<g id="edge13_Node000010_Node000013" class="edge">
<title>Node10&#45;&gt;Node13</title>
<g id="a_edge13_Node000010_Node000013"><a xlink:title=" ">
<path fill="none" stroke="#63b8ff" d="M743.65,-248.66C775.55,-238.93 827.3,-222.81 871.5,-207.5 872.67,-207.1 873.85,-206.68 875.04,-206.26"/>
<polygon fill="#63b8ff" stroke="#63b8ff" points="876.23,-209.55 884.43,-202.85 873.83,-202.97 876.23,-209.55"/>
</a>
</g>
</g>
<!-- Node14 -->
<g id="Node000014" class="node">
<title>Node14</title>
<g id="a_Node000014"><a xlink:title=" ">
<polygon fill="#e0e0e0" stroke="#999999" points="752.88,-135.38 718.12,-135.38 718.12,-116.12 752.88,-116.12 752.88,-135.38"/>
<text text-anchor="middle" x="735.5" y="-121.88" font-family="Helvetica,sans-Serif" font-size="10.00">map</text>
</a>
</g>
</g>
<!-- Node10&#45;&gt;Node14 -->
<g id="edge14_Node000010_Node000014" class="edge">
<title>Node10&#45;&gt;Node14</title>
<g id="a_edge14_Node000010_Node000014"><a xlink:title=" ">
<path fill="none" stroke="#63b8ff" d="M751.13,-255.07C809.82,-250.02 918.9,-236.84 942.5,-207.5 951,-196.94 950.88,-187.66 942.5,-177 939.71,-173.45 820.35,-145.99 764.18,-133.23"/>
<polygon fill="#63b8ff" stroke="#63b8ff" points="765.21,-129.88 754.69,-131.08 763.67,-136.7 765.21,-129.88"/>
</a>
</g>
</g>
<!-- Node15 -->
<g id="Node000015" class="node">
<title>Node15</title>
<g id="a_Node000015"><a xlink:title=" ">
<polygon fill="#e0e0e0" stroke="#999999" points="456.12,-201.88 404.88,-201.88 404.88,-182.62 456.12,-182.62 456.12,-201.88"/>
<text text-anchor="middle" x="430.5" y="-188.38" font-family="Helvetica,sans-Serif" font-size="10.00">sstream</text>
</a>
</g>
</g>
<!-- Node10&#45;&gt;Node15 -->
<g id="edge17_Node000010_Node000015" class="edge">
<title>Node10&#45;&gt;Node15</title>
<g id="a_edge17_Node000010_Node000015"><a xlink:title=" ">
<path fill="none" stroke="#63b8ff" d="M675.99,-252.39C626.95,-244.87 538.68,-229.6 465.5,-207.5 464.16,-207.09 462.8,-206.66 461.43,-206.2"/>
<polygon fill="#63b8ff" stroke="#63b8ff" points="463.01,-203.05 452.42,-202.87 460.58,-209.62 463.01,-203.05"/>
</a>
</g>
</g>
<!-- Node10&#45;&gt;Node16 -->
<g id="edge18_Node000010_Node000016" class="edge">
<title>Node10&#45;&gt;Node16</title>
<g id="a_edge18_Node000010_Node000016"><a xlink:title=" ">
<path fill="none" stroke="#63b8ff" d="M750.94,-256.1C863.8,-250.88 1199.44,-233.54 1305.5,-207.5 1307.09,-207.11 1308.71,-206.65 1310.32,-206.15"/>
<polygon fill="#63b8ff" stroke="#63b8ff" points="1311.19,-209.56 1319.37,-202.84 1308.78,-202.99 1311.19,-209.56"/>
</a>
</g>
</g>
<!-- Node10&#45;&gt;Node17 -->
<g id="edge19_Node000010_Node000017" class="edge">
<title>Node10&#45;&gt;Node17</title>
<g id="a_edge19_Node000010_Node000017"><a xlink:title=" ">
<path fill="none" stroke="#63b8ff" d="M702.57,-248.89C676.88,-228.08 614.71,-177.73 613.5,-177 599.01,-168.24 559.85,-151.78 531.02,-140.09"/>
<polygon fill="#63b8ff" stroke="#63b8ff" points="532.54,-136.93 521.96,-136.44 529.92,-143.42 532.54,-136.93"/>
</a>
</g>
</g>
<!-- Node18 -->
<g id="Node000018" class="node">
<title>Node18</title>
<g id="a_Node000018"><a xlink:title=" ">
<polygon fill="#e0e0e0" stroke="#999999" points="502.9,-201.88 474.1,-201.88 474.1,-182.62 502.9,-182.62 502.9,-201.88"/>
<text text-anchor="middle" x="488.5" y="-188.38" font-family="Helvetica,sans-Serif" font-size="10.00">list</text>
</a>
</g>
</g>
<!-- Node10&#45;&gt;Node18 -->
<g id="edge20_Node000010_Node000018" class="edge">
<title>Node10&#45;&gt;Node18</title>
<g id="a_edge20_Node000010_Node000018"><a xlink:title=" ">
<path fill="none" stroke="#63b8ff" d="M676.08,-250.78C635.88,-242.7 570.51,-227.84 516.5,-207.5 515.54,-207.14 514.57,-206.75 513.6,-206.35"/>
<polygon fill="#63b8ff" stroke="#63b8ff" points="515.25,-203.26 504.71,-202.21 512.29,-209.6 515.25,-203.26"/>
</a>
</g>
</g>
<!-- Node19 -->
<g id="Node000019" class="node">
<title>Node19</title>
<g id="a_Node000019"><a xlink:href="IssueFactory_8hpp.html" target="_top" xlink:title=" ">
<polygon fill="white" stroke="#666666" points="766.88,-201.88 660.12,-201.88 660.12,-182.62 766.88,-182.62 766.88,-201.88"/>
<text text-anchor="middle" x="713.5" y="-188.38" font-family="Helvetica,sans-Serif" font-size="10.00">ers/IssueFactory.hpp</text>
</a>
</g>
</g>
<!-- Node10&#45;&gt;Node19 -->
<g id="edge21_Node000010_Node000019" class="edge">
<title>Node10&#45;&gt;Node19</title>
<g id="a_edge21_Node000010_Node000019"><a xlink:title=" ">
<path fill="none" stroke="#63b8ff" d="M713.5,-248.78C713.5,-239.73 713.5,-225.45 713.5,-213.63"/>
<polygon fill="#63b8ff" stroke="#63b8ff" points="717,-213.66 713.5,-203.66 710,-213.66 717,-213.66"/>
</a>
</g>
</g>
<!-- Node21 -->
<g id="Node000021" class="node">
<title>Node21</title>
<g id="a_Node000021"><a xlink:href="Severity_8hpp.html" target="_top" xlink:title=" ">
<polygon fill="white" stroke="#666666" points="662.38,-135.38 576.62,-135.38 576.62,-116.12 662.38,-116.12 662.38,-135.38"/>
<text text-anchor="middle" x="619.5" y="-121.88" font-family="Helvetica,sans-Serif" font-size="10.00">ers/Severity.hpp</text>
</a>
</g>
</g>
<!-- Node10&#45;&gt;Node21 -->
<g id="edge38_Node000010_Node000021" class="edge">
<title>Node10&#45;&gt;Node21</title>
<g id="a_edge38_Node000010_Node000021"><a xlink:title=" ">
<path fill="none" stroke="#63b8ff" d="M676.08,-258.14C637.32,-256.29 578.45,-246.65 549.5,-207.5 541.44,-196.6 543.31,-189.06 549.5,-177 557.52,-161.36 572.93,-149.5 587.24,-141.23"/>
<polygon fill="#63b8ff" stroke="#63b8ff" points="588.84,-144.35 596.02,-136.56 585.55,-138.17 588.84,-144.35"/>
</a>
</g>
</g>
<!-- Node22 -->
<g id="Node000022" class="node">
<title>Node22</title>
<g id="a_Node000022"><a xlink:href="LocalContext_8hpp.html" target="_top" xlink:title=" ">
<polygon fill="white" stroke="#666666" points="1097.25,-201.88 989.75,-201.88 989.75,-182.62 1097.25,-182.62 1097.25,-201.88"/>
<text text-anchor="middle" x="1043.5" y="-188.38" font-family="Helvetica,sans-Serif" font-size="10.00">ers/LocalContext.hpp</text>
</a>
</g>
</g>
<!-- Node10&#45;&gt;Node22 -->
<g id="edge30_Node000010_Node000022" class="edge">
<title>Node10&#45;&gt;Node22</title>
<g id="a_edge30_Node000010_Node000022"><a xlink:title=" ">
<path fill="none" stroke="#63b8ff" d="M750.85,-250.79C801.71,-241.27 895.58,-223.54 975.5,-207.5 980.09,-206.58 984.85,-205.61 989.63,-204.63"/>
<polygon fill="#63b8ff" stroke="#63b8ff" points="990.15,-208.09 999.24,-202.64 988.74,-201.24 990.15,-208.09"/>
</a>
</g>
</g>
<!-- Node27 -->
<g id="Node000027" class="node">
<title>Node27</title>
<g id="a_Node000027"><a xlink:href="IssueDeclarationMacro_8hpp.html" target="_top" xlink:title=" ">
<polygon fill="white" stroke="#666666" points="1296.38,-207.5 1156.62,-207.5 1156.62,-177 1296.38,-177 1296.38,-207.5"/>
<text text-anchor="start" x="1164.62" y="-194" font-family="Helvetica,sans-Serif" font-size="10.00">ers/internal/IssueDeclaration</text>
<text text-anchor="middle" x="1226.5" y="-182.75" font-family="Helvetica,sans-Serif" font-size="10.00">Macro.hpp</text>
</a>
</g>
</g>
<!-- Node10&#45;&gt;Node27 -->
<g id="edge39_Node000010_Node000027" class="edge">
<title>Node10&#45;&gt;Node27</title>
<g id="a_edge39_Node000010_Node000027"><a xlink:title=" ">
<path fill="none" stroke="#63b8ff" d="M751.22,-253.01C833.88,-242.61 1032.57,-217.63 1145.13,-203.48"/>
<polygon fill="#63b8ff" stroke="#63b8ff" points="1145.43,-206.97 1154.91,-202.25 1144.55,-200.03 1145.43,-206.97"/>
</a>
</g>
</g>
<!-- Node19&#45;&gt;Node4 -->
<g id="edge23_Node000019_Node000004" class="edge">
<title>Node19&#45;&gt;Node4</title>
<g id="a_edge23_Node000019_Node000004"><a xlink:title=" ">
<path fill="none" stroke="#63b8ff" d="M676.02,-182.19C645.61,-173.96 602.24,-160.16 567.5,-141 548.54,-130.54 548.73,-120.45 529.5,-110.5 489.06,-89.57 437.49,-77.28 404.97,-71.06"/>
<polygon fill="#63b8ff" stroke="#63b8ff" points="405.86,-67.67 395.4,-69.32 404.61,-74.56 405.86,-67.67"/>
</a>
</g>
</g>
<!-- Node19&#45;&gt;Node14 -->
<g id="edge25_Node000019_Node000014" class="edge">
<title>Node19&#45;&gt;Node14</title>
<g id="a_edge25_Node000019_Node000014"><a xlink:title=" ">
<path fill="none" stroke="#63b8ff" d="M716.56,-182.28C719.71,-173.04 724.73,-158.33 728.8,-146.38"/>
<polygon fill="#63b8ff" stroke="#63b8ff" points="732.06,-147.67 731.98,-137.07 725.44,-145.41 732.06,-147.67"/>
</a>
</g>
</g>
<!-- Node19&#45;&gt;Node17 -->
<g id="edge22_Node000019_Node000017" class="edge">
<title>Node19&#45;&gt;Node17</title>
<g id="a_edge22_Node000019_Node000017"><a xlink:title=" ">
<path fill="none" stroke="#63b8ff" d="M677.2,-182.13C640.82,-172.74 583.36,-157.23 534.5,-141 533.18,-140.56 531.83,-140.1 530.48,-139.63"/>
<polygon fill="#63b8ff" stroke="#63b8ff" points="532.09,-136.49 521.5,-136.35 529.69,-143.07 532.09,-136.49"/>
</a>
</g>
</g>
<!-- Node19&#45;&gt;Node20 -->
<g id="edge24_Node000019_Node000020" class="edge">
<title>Node19&#45;&gt;Node20</title>
<g id="a_edge24_Node000019_Node000020"><a xlink:title=" ">
<path fill="none" stroke="#63b8ff" d="M712.58,-182.37C711.59,-172.34 710.08,-155.52 709.5,-141 708.96,-127.46 709.35,-124.05 709.5,-110.5 709.59,-102.56 709.77,-93.82 709.95,-86.2"/>
<polygon fill="#63b8ff" stroke="#63b8ff" points="713.45,-86.36 710.2,-76.28 706.45,-86.18 713.45,-86.36"/>
</a>
</g>
</g>
<!-- Node19&#45;&gt;Node21 -->
<g id="edge26_Node000019_Node000021" class="edge">
<title>Node19&#45;&gt;Node21</title>
<g id="a_edge26_Node000019_Node000021"><a xlink:title=" ">
<path fill="none" stroke="#63b8ff" d="M700.43,-182.28C685.36,-171.94 660.33,-154.77 642.09,-142.25"/>
<polygon fill="#63b8ff" stroke="#63b8ff" points="644.24,-139.48 634.01,-136.71 640.28,-145.25 644.24,-139.48"/>
</a>
</g>
</g>
<!-- Node21&#45;&gt;Node4 -->
<g id="edge27_Node000021_Node000004" class="edge">
<title>Node21&#45;&gt;Node4</title>
<g id="a_edge27_Node000021_Node000004"><a xlink:title=" ">
<path fill="none" stroke="#63b8ff" d="M583.33,-115.63C576.42,-113.91 569.24,-112.14 562.5,-110.5 507.22,-97.06 442.7,-81.95 405.14,-73.21"/>
<polygon fill="#63b8ff" stroke="#63b8ff" points="405.94,-69.81 395.41,-70.95 404.36,-76.62 405.94,-69.81"/>
</a>
</g>
</g>
<!-- Node21&#45;&gt;Node8 -->
<g id="edge29_Node000021_Node000008" class="edge">
<title>Node21&#45;&gt;Node8</title>
<g id="a_edge29_Node000021_Node000008"><a xlink:title=" ">
<path fill="none" stroke="#63b8ff" d="M626.17,-115.79C640.14,-97.04 672.68,-53.35 691.13,-28.58"/>
<polygon fill="#63b8ff" stroke="#63b8ff" points="693.79,-30.86 696.96,-20.75 688.18,-26.68 693.79,-30.86"/>
</a>
</g>
</g>
<!-- Node21&#45;&gt;Node20 -->
<g id="edge28_Node000021_Node000020" class="edge">
<title>Node21&#45;&gt;Node20</title>
<g id="a_edge28_Node000021_Node000020"><a xlink:title=" ">
<path fill="none" stroke="#63b8ff" d="M633.32,-115.81C647.62,-106.56 670.2,-91.95 687.25,-80.92"/>
<polygon fill="#63b8ff" stroke="#63b8ff" points="688.78,-84.09 695.28,-75.72 684.98,-78.22 688.78,-84.09"/>
</a>
</g>
</g>
<!-- Node23 -->
<g id="Node000023" class="node">
<title>Node23</title>
<g id="a_Node000023"><a xlink:title=" ">
<polygon fill="#e0e0e0" stroke="#999999" points="940.88,-135.38 876.12,-135.38 876.12,-116.12 940.88,-116.12 940.88,-135.38"/>
<text text-anchor="middle" x="908.5" y="-121.88" font-family="Helvetica,sans-Serif" font-size="10.00">sys/types.h</text>
</a>
</g>
</g>
<!-- Node22&#45;&gt;Node23 -->
<g id="edge31_Node000022_Node000023" class="edge">
<title>Node22&#45;&gt;Node23</title>
<g id="a_edge31_Node000022_Node000023"><a xlink:title=" ">
<path fill="none" stroke="#63b8ff" d="M1024.44,-182.15C1001.83,-171.34 963.89,-153.21 937.59,-140.65"/>
<polygon fill="#63b8ff" stroke="#63b8ff" points="939.36,-137.61 928.82,-136.46 936.34,-143.93 939.36,-137.61"/>
</a>
</g>
</g>
<!-- Node24 -->
<g id="Node000024" class="node">
<title>Node24</title>
<g id="a_Node000024"><a xlink:title=" ">
<polygon fill="#e0e0e0" stroke="#999999" points="858.38,-135.38 808.62,-135.38 808.62,-116.12 858.38,-116.12 858.38,-135.38"/>
<text text-anchor="middle" x="833.5" y="-121.88" font-family="Helvetica,sans-Serif" font-size="10.00">unistd.h</text>
</a>
</g>
</g>
<!-- Node22&#45;&gt;Node24 -->
<g id="edge32_Node000022_Node000024" class="edge">
<title>Node22&#45;&gt;Node24</title>
<g id="a_edge32_Node000022_Node000024"><a xlink:title=" ">
<path fill="none" stroke="#63b8ff" d="M1007.04,-182.19C971.17,-172.97 915.02,-157.68 867.5,-141 866.52,-140.66 865.53,-140.3 864.54,-139.93"/>
<polygon fill="#63b8ff" stroke="#63b8ff" points="865.84,-136.69 855.25,-136.29 863.28,-143.2 865.84,-136.69"/>
</a>
</g>
</g>
<!-- Node25 -->
<g id="Node000025" class="node">
<title>Node25</title>
<g id="a_Node000025"><a xlink:href="Context_8hpp.html" target="_top" xlink:title=" ">
<polygon fill="white" stroke="#666666" points="1042.25,-135.38 958.75,-135.38 958.75,-116.12 1042.25,-116.12 1042.25,-135.38"/>
<text text-anchor="middle" x="1000.5" y="-121.88" font-family="Helvetica,sans-Serif" font-size="10.00">ers/Context.hpp</text>
</a>
</g>
</g>
<!-- Node22&#45;&gt;Node25 -->
<g id="edge33_Node000022_Node000025" class="edge">
<title>Node22&#45;&gt;Node25</title>
<g id="a_edge33_Node000022_Node000025"><a xlink:title=" ">
<path fill="none" stroke="#63b8ff" d="M1037.52,-182.28C1031.1,-172.65 1020.73,-157.1 1012.6,-144.9"/>
<polygon fill="#63b8ff" stroke="#63b8ff" points="1015.73,-143.28 1007.27,-136.9 1009.9,-147.16 1015.73,-143.28"/>
</a>
</g>
</g>
<!-- Node25&#45;&gt;Node4 -->
<g id="edge34_Node000025_Node000004" class="edge">
<title>Node25&#45;&gt;Node4</title>
<g id="a_edge34_Node000025_Node000004"><a xlink:title=" ">
<path fill="none" stroke="#63b8ff" d="M971.87,-115.69C964.63,-113.7 956.83,-111.8 949.5,-110.5 744.3,-74.24 492.8,-67.44 405.3,-66.17"/>
<polygon fill="#63b8ff" stroke="#63b8ff" points="405.39,-62.67 395.34,-66.04 405.3,-69.67 405.39,-62.67"/>
</a>
</g>
</g>
<!-- Node25&#45;&gt;Node20 -->
<g id="edge35_Node000025_Node000020" class="edge">
<title>Node25&#45;&gt;Node20</title>
<g id="a_edge35_Node000025_Node000020"><a xlink:title=" ">
<path fill="none" stroke="#63b8ff" d="M969.6,-115.65C962.99,-113.83 956.04,-112.02 949.5,-110.5 876.51,-93.52 789.8,-78.63 743.52,-71.1"/>
<polygon fill="#63b8ff" stroke="#63b8ff" points="744.31,-67.68 733.88,-69.54 743.19,-74.59 744.31,-67.68"/>
</a>
</g>
</g>
<!-- Node26 -->
<g id="Node000026" class="node">
<title>Node26</title>
<g id="a_Node000026"><a xlink:href="ers_2include_2ers_2Configuration_8hpp.html" target="_top" xlink:title=" ">
<polygon fill="white" stroke="#666666" points="983.88,-74.5 877.12,-74.5 877.12,-55.25 983.88,-55.25 983.88,-74.5"/>
<text text-anchor="middle" x="930.5" y="-61" font-family="Helvetica,sans-Serif" font-size="10.00">ers/Configuration.hpp</text>
</a>
</g>
</g>
<!-- Node25&#45;&gt;Node26 -->
<g id="edge36_Node000025_Node000026" class="edge">
<title>Node25&#45;&gt;Node26</title>
<g id="a_edge36_Node000025_Node000026"><a xlink:title=" ">
<path fill="none" stroke="#63b8ff" d="M989.87,-115.81C979.28,-106.9 962.79,-93.03 949.87,-82.17"/>
<polygon fill="#63b8ff" stroke="#63b8ff" points="952.3,-79.63 942.39,-75.88 947.79,-84.99 952.3,-79.63"/>
</a>
</g>
</g>
<!-- Node26&#45;&gt;Node8 -->
<g id="edge37_Node000026_Node000008" class="edge">
<title>Node26&#45;&gt;Node8</title>
<g id="a_edge37_Node000026_Node000008"><a xlink:title=" ">
<path fill="none" stroke="#63b8ff" d="M891.91,-54.78C850.19,-44.95 784.12,-29.39 742.6,-19.6"/>
<polygon fill="#63b8ff" stroke="#63b8ff" points="743.59,-16.24 733.05,-17.35 741.98,-23.05 743.59,-16.24"/>
</a>
</g>
</g>
<!-- Node28 -->
<g id="Node000028" class="node">
<title>Node28</title>
<g id="a_Node000028"><a xlink:title=" ">
<polygon fill="#e0e0e0" stroke="#999999" points="1276.12,-141 1176.88,-141 1176.88,-110.5 1276.12,-110.5 1276.12,-141"/>
<text text-anchor="start" x="1184.88" y="-127.5" font-family="Helvetica,sans-Serif" font-size="10.00">boost/preprocessor</text>
<text text-anchor="middle" x="1226.5" y="-116.25" font-family="Helvetica,sans-Serif" font-size="10.00">/if.hpp</text>
</a>
</g>
</g>
<!-- Node27&#45;&gt;Node28 -->
<g id="edge40_Node000027_Node000028" class="edge">
<title>Node27&#45;&gt;Node28</title>
<g id="a_edge40_Node000027_Node000028"><a xlink:title=" ">
<path fill="none" stroke="#63b8ff" d="M1226.5,-176.61C1226.5,-169.52 1226.5,-160.79 1226.5,-152.63"/>
<polygon fill="#63b8ff" stroke="#63b8ff" points="1230,-152.84 1226.5,-142.84 1223,-152.84 1230,-152.84"/>
</a>
</g>
</g>
<!-- Node29 -->
<g id="Node000029" class="node">
<title>Node29</title>
<g id="a_Node000029"><a xlink:title=" ">
<polygon fill="#e0e0e0" stroke="#999999" points="1393.12,-141 1293.88,-141 1293.88,-110.5 1393.12,-110.5 1393.12,-141"/>
<text text-anchor="start" x="1301.88" y="-127.5" font-family="Helvetica,sans-Serif" font-size="10.00">boost/preprocessor</text>
<text text-anchor="middle" x="1343.5" y="-116.25" font-family="Helvetica,sans-Serif" font-size="10.00">/seq.hpp</text>
</a>
</g>
</g>
<!-- Node27&#45;&gt;Node29 -->
<g id="edge41_Node000027_Node000029" class="edge">
<title>Node27&#45;&gt;Node29</title>
<g id="a_edge41_Node000027_Node000029"><a xlink:title=" ">
<path fill="none" stroke="#63b8ff" d="M1253.05,-176.61C1269.06,-167.79 1289.67,-156.43 1307.17,-146.78"/>
<polygon fill="#63b8ff" stroke="#63b8ff" points="1308.66,-149.95 1315.73,-142.06 1305.28,-143.82 1308.66,-149.95"/>
</a>
</g>
</g>
<!-- Node30 -->
<g id="Node000030" class="node">
<title>Node30</title>
<g id="a_Node000030"><a xlink:title=" ">
<polygon fill="#e0e0e0" stroke="#999999" points="1510.12,-141 1410.88,-141 1410.88,-110.5 1510.12,-110.5 1510.12,-141"/>
<text text-anchor="start" x="1418.88" y="-127.5" font-family="Helvetica,sans-Serif" font-size="10.00">boost/preprocessor</text>
<text text-anchor="middle" x="1460.5" y="-116.25" font-family="Helvetica,sans-Serif" font-size="10.00">/tuple.hpp</text>
</a>
</g>
</g>
<!-- Node27&#45;&gt;Node30 -->
<g id="edge42_Node000027_Node000030" class="edge">
<title>Node27&#45;&gt;Node30</title>
<g id="a_edge42_Node000027_Node000030"><a xlink:title=" ">
<path fill="none" stroke="#63b8ff" d="M1279.89,-176.53C1315.62,-166.69 1362.71,-153.7 1399.85,-143.47"/>
<polygon fill="#63b8ff" stroke="#63b8ff" points="1400.37,-146.95 1409.08,-140.92 1398.51,-140.21 1400.37,-146.95"/>
</a>
</g>
</g>
<!-- Node31 -->
<g id="Node000031" class="node">
<title>Node31</title>
<g id="a_Node000031"><a xlink:title=" ">
<polygon fill="#e0e0e0" stroke="#999999" points="1627.12,-141 1527.88,-141 1527.88,-110.5 1627.12,-110.5 1627.12,-141"/>
<text text-anchor="start" x="1535.88" y="-127.5" font-family="Helvetica,sans-Serif" font-size="10.00">boost/preprocessor</text>
<text text-anchor="middle" x="1577.5" y="-116.25" font-family="Helvetica,sans-Serif" font-size="10.00">/logical.hpp</text>
</a>
</g>
</g>
<!-- Node27&#45;&gt;Node31 -->
<g id="edge43_Node000027_Node000031" class="edge">
<title>Node27&#45;&gt;Node31</title>
<g id="a_edge43_Node000027_Node000031"><a xlink:title=" ">
<path fill="none" stroke="#63b8ff" d="M1296.7,-178.54C1299.67,-178.02 1302.62,-177.5 1305.5,-177 1396.99,-161.05 1423.13,-160.54 1516.47,-141.55"/>
<polygon fill="#63b8ff" stroke="#63b8ff" points="1516.99,-145.01 1526.08,-139.57 1515.58,-138.16 1516.99,-145.01"/>
</a>
</g>
</g>
<!-- Node32 -->
<g id="Node000032" class="node">
<title>Node32</title>
<g id="a_Node000032"><a xlink:title=" ">
<polygon fill="#e0e0e0" stroke="#999999" points="1744.12,-141 1644.88,-141 1644.88,-110.5 1744.12,-110.5 1744.12,-141"/>
<text text-anchor="start" x="1652.88" y="-127.5" font-family="Helvetica,sans-Serif" font-size="10.00">boost/preprocessor</text>
<text text-anchor="middle" x="1694.5" y="-116.25" font-family="Helvetica,sans-Serif" font-size="10.00">/stringize.hpp</text>
</a>
</g>
</g>
<!-- Node27&#45;&gt;Node32 -->
<g id="edge44_Node000027_Node000032" class="edge">
<title>Node27&#45;&gt;Node32</title>
<g id="a_edge44_Node000027_Node000032"><a xlink:title=" ">
<path fill="none" stroke="#63b8ff" d="M1296.67,-178.33C1299.65,-177.86 1302.6,-177.42 1305.5,-177 1448.38,-156.37 1488.81,-166.2 1633.54,-141.38"/>
<polygon fill="#63b8ff" stroke="#63b8ff" points="1633.86,-144.88 1643.11,-139.71 1632.66,-137.98 1633.86,-144.88"/>
</a>
</g>
</g>
<!-- Node33 -->
<g id="Node000033" class="node">
<title>Node33</title>
<g id="a_Node000033"><a xlink:title=" ">
<polygon fill="#e0e0e0" stroke="#999999" points="1159.12,-141 1059.88,-141 1059.88,-110.5 1159.12,-110.5 1159.12,-141"/>
<text text-anchor="start" x="1067.88" y="-127.5" font-family="Helvetica,sans-Serif" font-size="10.00">boost/preprocessor</text>
<text text-anchor="middle" x="1109.5" y="-116.25" font-family="Helvetica,sans-Serif" font-size="10.00">/comparison.hpp</text>
</a>
</g>
</g>
<!-- Node27&#45;&gt;Node33 -->
<g id="edge45_Node000027_Node000033" class="edge">
<title>Node27&#45;&gt;Node33</title>
<g id="a_edge45_Node000027_Node000033"><a xlink:title=" ">
<path fill="none" stroke="#63b8ff" d="M1199.95,-176.61C1183.94,-167.79 1163.33,-156.43 1145.83,-146.78"/>
<polygon fill="#63b8ff" stroke="#63b8ff" points="1147.72,-143.82 1137.27,-142.06 1144.34,-149.95 1147.72,-143.82"/>
</a>
</g>
</g>
</g>
</svg>
