<?xml version="1.0" encoding="UTF-8" standalone="no"?>
<!DOCTYPE svg PUBLIC "-//W3C//DTD SVG 1.1//EN"
 "http://www.w3.org/Graphics/SVG/1.1/DTD/svg11.dtd">
<!-- Generated by graphviz version 9.0.0 (20230911.1827)
 -->
<!-- Title: sourcecode/iomanager/include/iomanager/queue/Queue.hpp Pages: 1 -->
<svg width="2001pt" height="415pt"
 viewBox="0.00 0.00 2001.46 415.00" xmlns="http://www.w3.org/2000/svg" xmlns:xlink="http://www.w3.org/1999/xlink">
<g id="graph0" class="graph" transform="scale(1 1) rotate(0) translate(4 411)">
<title>sourcecode/iomanager/include/iomanager/queue/Queue.hpp</title>
<!-- Node1 -->
<g id="Node000001" class="node">
<title>Node1</title>
<g id="a_Node000001"><a xlink:title=" ">
<polygon fill="#999999" stroke="#666666" points="1823.96,-407 1696.96,-407 1696.96,-365.25 1823.96,-365.25 1823.96,-407"/>
<text text-anchor="start" x="1704.96" y="-393.5" font-family="Helvetica,sans-Serif" font-size="10.00">sourcecode/iomanager</text>
<text text-anchor="start" x="1704.96" y="-382.25" font-family="Helvetica,sans-Serif" font-size="10.00">/include/iomanager/queue</text>
<text text-anchor="middle" x="1760.46" y="-371" font-family="Helvetica,sans-Serif" font-size="10.00">/Queue.hpp</text>
</a>
</g>
</g>
<!-- Node2 -->
<g id="Node000002" class="node">
<title>Node2</title>
<g id="a_Node000002"><a xlink:href="QueueBase_8hpp.html" target="_top" xlink:title=" ">
<polygon fill="white" stroke="#666666" points="1737.58,-329.25 1575.33,-329.25 1575.33,-310 1737.58,-310 1737.58,-329.25"/>
<text text-anchor="middle" x="1656.46" y="-315.75" font-family="Helvetica,sans-Serif" font-size="10.00">iomanager/queue/QueueBase.hpp</text>
</a>
</g>
</g>
<!-- Node1&#45;&gt;Node2 -->
<g id="edge1_Node000001_Node000002" class="edge">
<title>Node1&#45;&gt;Node2</title>
<g id="a_edge1_Node000001_Node000002"><a xlink:title=" ">
<path fill="none" stroke="#63b8ff" d="M1727.84,-364.89C1712.5,-355.38 1694.53,-344.24 1680.46,-335.51"/>
<polygon fill="#63b8ff" stroke="#63b8ff" points="1682.63,-332.74 1672.29,-330.44 1678.94,-338.69 1682.63,-332.74"/>
</a>
</g>
</g>
<!-- Node5 -->
<g id="Node000005" class="node">
<title>Node5</title>
<g id="a_Node000005"><a xlink:title=" ">
<polygon fill="#e0e0e0" stroke="#999999" points="1433.46,-74.5 1393.46,-74.5 1393.46,-55.25 1433.46,-55.25 1433.46,-74.5"/>
<text text-anchor="middle" x="1413.46" y="-61" font-family="Helvetica,sans-Serif" font-size="10.00">string</text>
</a>
</g>
</g>
<!-- Node1&#45;&gt;Node5 -->
<g id="edge58_Node000001_Node000005" class="edge">
<title>Node1&#45;&gt;Node5</title>
<g id="a_edge58_Node000001_Node000005"><a xlink:title=" ">
<path fill="none" stroke="#63b8ff" d="M1696.59,-382.55C1429.69,-371.4 417.46,-324.81 417.46,-259.75 417.46,-259.75 417.46,-259.75 417.46,-191.25 417.46,-151.2 423.93,-132.41 457.46,-110.5 477.26,-97.56 1218.8,-72.31 1381.93,-66.91"/>
<polygon fill="#63b8ff" stroke="#63b8ff" points="1381.68,-70.42 1391.56,-66.59 1381.45,-63.42 1381.68,-70.42"/>
</a>
</g>
</g>
<!-- Node6 -->
<g id="Node000006" class="node">
<title>Node6</title>
<g id="a_Node000006"><a xlink:href="InfoCollector_8hpp.html" target="_top" xlink:title=" ">
<polygon fill="white" stroke="#666666" points="358.83,-268.38 228.08,-268.38 228.08,-249.12 358.83,-249.12 358.83,-268.38"/>
<text text-anchor="middle" x="293.46" y="-254.88" font-family="Helvetica,sans-Serif" font-size="10.00">opmonlib/InfoCollector.hpp</text>
</a>
</g>
</g>
<!-- Node1&#45;&gt;Node6 -->
<g id="edge53_Node000001_Node000006" class="edge">
<title>Node1&#45;&gt;Node6</title>
<g id="a_edge53_Node000001_Node000006"><a xlink:title=" ">
<path fill="none" stroke="#63b8ff" d="M1696.57,-384.43C1444.61,-381.44 527.54,-367.95 403.46,-329.25 368.09,-318.22 332.88,-292.79 312.16,-275.95"/>
<polygon fill="#63b8ff" stroke="#63b8ff" points="314.53,-273.37 304.61,-269.65 310.05,-278.74 314.53,-273.37"/>
</a>
</g>
</g>
<!-- Node11 -->
<g id="Node000011" class="node">
<title>Node11</title>
<g id="a_Node000011"><a xlink:href="Issue_8hpp.html" target="_top" xlink:title=" ">
<polygon fill="white" stroke="#666666" points="1368.71,-268.38 1294.21,-268.38 1294.21,-249.12 1368.71,-249.12 1368.71,-268.38"/>
<text text-anchor="middle" x="1331.46" y="-254.88" font-family="Helvetica,sans-Serif" font-size="10.00">ers/Issue.hpp</text>
</a>
</g>
</g>
<!-- Node1&#45;&gt;Node11 -->
<g id="edge54_Node000001_Node000011" class="edge">
<title>Node1&#45;&gt;Node11</title>
<g id="a_edge54_Node000001_Node000011"><a xlink:title=" ">
<path fill="none" stroke="#63b8ff" d="M1696.64,-366.87C1658.78,-356.01 1609.86,-341.92 1566.46,-329.25 1498.54,-309.43 1419.7,-286.03 1372.79,-272.07"/>
<polygon fill="#63b8ff" stroke="#63b8ff" points="1373.89,-268.75 1363.31,-269.25 1371.9,-275.46 1373.89,-268.75"/>
</a>
</g>
</g>
<!-- Node17 -->
<g id="Node000017" class="node">
<title>Node17</title>
<g id="a_Node000017"><a xlink:title=" ">
<polygon fill="#e0e0e0" stroke="#999999" points="1762.71,-201.88 1712.21,-201.88 1712.21,-182.62 1762.71,-182.62 1762.71,-201.88"/>
<text text-anchor="middle" x="1737.46" y="-188.38" font-family="Helvetica,sans-Serif" font-size="10.00">memory</text>
</a>
</g>
</g>
<!-- Node1&#45;&gt;Node17 -->
<g id="edge57_Node000001_Node000017" class="edge">
<title>Node1&#45;&gt;Node17</title>
<g id="a_edge57_Node000001_Node000017"><a xlink:title=" ">
<path fill="none" stroke="#63b8ff" d="M1806.58,-364.75C1859.12,-338.65 1933.44,-291.07 1898.46,-243.5 1883.64,-223.35 1816.9,-207.72 1774.14,-199.54"/>
<polygon fill="#63b8ff" stroke="#63b8ff" points="1775,-196.14 1764.53,-197.76 1773.72,-203.03 1775,-196.14"/>
</a>
</g>
</g>
<!-- Node18 -->
<g id="Node000018" class="node">
<title>Node18</title>
<g id="a_Node000018"><a xlink:title=" ">
<polygon fill="#e0e0e0" stroke="#999999" points="1799.08,-135.38 1753.83,-135.38 1753.83,-116.12 1799.08,-116.12 1799.08,-135.38"/>
<text text-anchor="middle" x="1776.46" y="-121.88" font-family="Helvetica,sans-Serif" font-size="10.00">chrono</text>
</a>
</g>
</g>
<!-- Node1&#45;&gt;Node18 -->
<g id="edge55_Node000001_Node000018" class="edge">
<title>Node1&#45;&gt;Node18</title>
<g id="a_edge55_Node000001_Node000018"><a xlink:title=" ">
<path fill="none" stroke="#63b8ff" d="M1824.14,-367.71C1846.85,-359.05 1871.28,-346.61 1889.46,-329.25 1909.22,-310.37 1910.3,-300.63 1916.46,-274 1930.95,-211.32 1853.74,-163.21 1808.13,-140.73"/>
<polygon fill="#63b8ff" stroke="#63b8ff" points="1809.73,-137.62 1799.2,-136.47 1806.72,-143.93 1809.73,-137.62"/>
</a>
</g>
</g>
<!-- Node21 -->
<g id="Node000021" class="node">
<title>Node21</title>
<g id="a_Node000021"><a xlink:title=" ">
<polygon fill="#e0e0e0" stroke="#999999" points="1739.96,-74.5 1696.96,-74.5 1696.96,-55.25 1739.96,-55.25 1739.96,-74.5"/>
<text text-anchor="middle" x="1718.46" y="-61" font-family="Helvetica,sans-Serif" font-size="10.00">vector</text>
</a>
</g>
</g>
<!-- Node1&#45;&gt;Node21 -->
<g id="edge59_Node000001_Node000021" class="edge">
<title>Node1&#45;&gt;Node21</title>
<g id="a_edge59_Node000001_Node000021"><a xlink:title=" ">
<path fill="none" stroke="#63b8ff" d="M1824.44,-378.17C1893.41,-366.71 1993.46,-336.81 1993.46,-259.75 1993.46,-259.75 1993.46,-259.75 1993.46,-191.25 1993.46,-85.88 1824.23,-68.67 1751.28,-66.15"/>
<polygon fill="#63b8ff" stroke="#63b8ff" points="1751.64,-62.66 1741.55,-65.89 1751.45,-69.66 1751.64,-62.66"/>
</a>
</g>
</g>
<!-- Node36 -->
<g id="Node000036" class="node">
<title>Node36</title>
<g id="a_Node000036"><a xlink:title=" ">
<polygon fill="#e0e0e0" stroke="#999999" points="1889.58,-268.38 1841.33,-268.38 1841.33,-249.12 1889.58,-249.12 1889.58,-268.38"/>
<text text-anchor="middle" x="1865.46" y="-254.88" font-family="Helvetica,sans-Serif" font-size="10.00">cstddef</text>
</a>
</g>
</g>
<!-- Node1&#45;&gt;Node36 -->
<g id="edge56_Node000001_Node000036" class="edge">
<title>Node1&#45;&gt;Node36</title>
<g id="a_edge56_Node000001_Node000036"><a xlink:title=" ">
<path fill="none" stroke="#63b8ff" d="M1777.33,-364.98C1797.62,-340.75 1831.35,-300.48 1850.67,-277.41"/>
<polygon fill="#63b8ff" stroke="#63b8ff" points="1853.27,-279.75 1857.01,-269.84 1847.91,-275.26 1853.27,-279.75"/>
</a>
</g>
</g>
<!-- Node3 -->
<g id="Node000003" class="node">
<title>Node3</title>
<g id="a_Node000003"><a xlink:title=" ">
<polygon fill="#e0e0e0" stroke="#999999" points="1709.46,-274 1603.46,-274 1603.46,-243.5 1709.46,-243.5 1709.46,-274"/>
<text text-anchor="start" x="1611.46" y="-260.5" font-family="Helvetica,sans-Serif" font-size="10.00">iomanager/queueinfo</text>
<text text-anchor="middle" x="1656.46" y="-249.25" font-family="Helvetica,sans-Serif" font-size="10.00">/InfoNljs.hpp</text>
</a>
</g>
</g>
<!-- Node2&#45;&gt;Node3 -->
<g id="edge2_Node000002_Node000003" class="edge">
<title>Node2&#45;&gt;Node3</title>
<g id="a_edge2_Node000002_Node000003"><a xlink:title=" ">
<path fill="none" stroke="#63b8ff" d="M1656.46,-309.68C1656.46,-303.23 1656.46,-294.16 1656.46,-285.51"/>
<polygon fill="#63b8ff" stroke="#63b8ff" points="1659.96,-285.8 1656.46,-275.8 1652.96,-285.8 1659.96,-285.8"/>
</a>
</g>
</g>
<!-- Node4 -->
<g id="Node000004" class="node">
<title>Node4</title>
<g id="a_Node000004"><a xlink:href="NamedObject_8hpp.html" target="_top" xlink:title=" ">
<polygon fill="white" stroke="#666666" points="1221.33,-268.38 1093.58,-268.38 1093.58,-249.12 1221.33,-249.12 1221.33,-268.38"/>
<text text-anchor="middle" x="1157.46" y="-254.88" font-family="Helvetica,sans-Serif" font-size="10.00">utilities/NamedObject.hpp</text>
</a>
</g>
</g>
<!-- Node2&#45;&gt;Node4 -->
<g id="edge3_Node000002_Node000004" class="edge">
<title>Node2&#45;&gt;Node4</title>
<g id="a_edge3_Node000002_Node000004"><a xlink:title=" ">
<path fill="none" stroke="#63b8ff" d="M1579.31,-309.52C1485.03,-298.4 1326.55,-279.7 1233,-268.66"/>
<polygon fill="#63b8ff" stroke="#63b8ff" points="1233.49,-265.2 1223.15,-267.5 1232.67,-272.15 1233.49,-265.2"/>
</a>
</g>
</g>
<!-- Node2&#45;&gt;Node5 -->
<g id="edge51_Node000002_Node000005" class="edge">
<title>Node2&#45;&gt;Node5</title>
<g id="a_edge51_Node000002_Node000005"><a xlink:title=" ">
<path fill="none" stroke="#63b8ff" d="M1585.72,-309.54C1564.47,-303.13 1543.38,-292.29 1530.46,-274 1522.64,-262.93 1523.82,-255.32 1530.46,-243.5 1545.49,-216.71 1574.42,-234.29 1589.46,-207.5 1596.09,-195.68 1593.81,-189.84 1589.46,-177 1577.49,-141.73 1568.56,-132.44 1538.46,-110.5 1536.46,-109.04 1480.89,-89.46 1444.52,-76.72"/>
<polygon fill="#63b8ff" stroke="#63b8ff" points="1445.96,-73.52 1435.36,-73.52 1443.65,-80.12 1445.96,-73.52"/>
</a>
</g>
</g>
<!-- Node2&#45;&gt;Node6 -->
<g id="edge5_Node000002_Node000006" class="edge">
<title>Node2&#45;&gt;Node6</title>
<g id="a_edge5_Node000002_Node000006"><a xlink:title=" ">
<path fill="none" stroke="#63b8ff" d="M1575.03,-315.11C1331.03,-304.57 608.16,-273.34 370.29,-263.07"/>
<polygon fill="#63b8ff" stroke="#63b8ff" points="370.66,-259.58 360.51,-262.65 370.35,-266.57 370.66,-259.58"/>
</a>
</g>
</g>
<!-- Node2&#45;&gt;Node11 -->
<g id="edge11_Node000002_Node000011" class="edge">
<title>Node2&#45;&gt;Node11</title>
<g id="a_edge11_Node000002_Node000011"><a xlink:title=" ">
<path fill="none" stroke="#63b8ff" d="M1606.39,-309.55C1544.83,-298.4 1441.05,-279.6 1380.14,-268.57"/>
<polygon fill="#63b8ff" stroke="#63b8ff" points="1380.87,-265.14 1370.41,-266.81 1379.62,-272.03 1380.87,-265.14"/>
</a>
</g>
</g>
<!-- Node2&#45;&gt;Node17 -->
<g id="edge50_Node000002_Node000017" class="edge">
<title>Node2&#45;&gt;Node17</title>
<g id="a_edge50_Node000002_Node000017"><a xlink:title=" ">
<path fill="none" stroke="#63b8ff" d="M1675.58,-309.59C1689.56,-302.01 1707.85,-289.88 1718.46,-274 1730.57,-255.88 1735,-230.96 1736.6,-213.61"/>
<polygon fill="#63b8ff" stroke="#63b8ff" points="1740.08,-214.02 1737.24,-203.81 1733.1,-213.56 1740.08,-214.02"/>
</a>
</g>
</g>
<!-- Node2&#45;&gt;Node18 -->
<g id="edge48_Node000002_Node000018" class="edge">
<title>Node2&#45;&gt;Node18</title>
<g id="a_edge48_Node000002_Node000018"><a xlink:title=" ">
<path fill="none" stroke="#63b8ff" d="M1682.02,-309.51C1699.67,-302.16 1722.72,-290.34 1738.46,-274 1761.35,-250.23 1762.94,-239.38 1771.46,-207.5 1776.84,-187.37 1777.66,-163.46 1777.41,-146.9"/>
<polygon fill="#63b8ff" stroke="#63b8ff" points="1780.9,-146.81 1777.08,-136.93 1773.91,-147.04 1780.9,-146.81"/>
</a>
</g>
</g>
<!-- Node2&#45;&gt;Node21 -->
<g id="edge52_Node000002_Node000021" class="edge">
<title>Node2&#45;&gt;Node21</title>
<g id="a_edge52_Node000002_Node000021"><a xlink:title=" ">
<path fill="none" stroke="#63b8ff" d="M1697.99,-309.58C1719.68,-302.96 1745.23,-291.92 1762.46,-274 1805.82,-228.92 1798.93,-202.82 1808.46,-141 1810.52,-127.6 1815.6,-122.02 1808.46,-110.5 1796.03,-90.46 1771.62,-79.14 1751.36,-72.92"/>
<polygon fill="#63b8ff" stroke="#63b8ff" points="1752.36,-69.57 1741.79,-70.29 1750.5,-76.32 1752.36,-69.57"/>
</a>
</g>
</g>
<!-- Node35 -->
<g id="Node000035" class="node">
<title>Node35</title>
<g id="a_Node000035"><a xlink:title=" ">
<polygon fill="#e0e0e0" stroke="#999999" points="1585.08,-268.38 1539.83,-268.38 1539.83,-249.12 1585.08,-249.12 1585.08,-268.38"/>
<text text-anchor="middle" x="1562.46" y="-254.88" font-family="Helvetica,sans-Serif" font-size="10.00">atomic</text>
</a>
</g>
</g>
<!-- Node2&#45;&gt;Node35 -->
<g id="edge47_Node000002_Node000035" class="edge">
<title>Node2&#45;&gt;Node35</title>
<g id="a_edge47_Node000002_Node000035"><a xlink:title=" ">
<path fill="none" stroke="#63b8ff" d="M1642.18,-309.68C1627.41,-300.43 1604.09,-285.82 1586.47,-274.79"/>
<polygon fill="#63b8ff" stroke="#63b8ff" points="1588.49,-271.92 1578.15,-269.58 1584.77,-277.85 1588.49,-271.92"/>
</a>
</g>
</g>
<!-- Node2&#45;&gt;Node36 -->
<g id="edge49_Node000002_Node000036" class="edge">
<title>Node2&#45;&gt;Node36</title>
<g id="a_edge49_Node000002_Node000036"><a xlink:title=" ">
<path fill="none" stroke="#63b8ff" d="M1695.84,-309.57C1730.71,-301.27 1782.86,-288.14 1827.46,-274 1829.01,-273.51 1830.59,-272.99 1832.19,-272.45"/>
<polygon fill="#63b8ff" stroke="#63b8ff" points="1833,-275.87 1841.26,-269.23 1830.66,-269.28 1833,-275.87"/>
</a>
</g>
</g>
<!-- Node4&#45;&gt;Node5 -->
<g id="edge4_Node000004_Node000005" class="edge">
<title>Node4&#45;&gt;Node5</title>
<g id="a_edge4_Node000004_Node000005"><a xlink:title=" ">
<path fill="none" stroke="#63b8ff" d="M1147.46,-248.78C1130.79,-232.76 1100.98,-198.88 1120.46,-177 1212.39,-73.73 1337.52,-244.27 1429.46,-141 1443.13,-125.64 1434.53,-101.52 1425.52,-84.77"/>
<polygon fill="#63b8ff" stroke="#63b8ff" points="1428.63,-83.15 1420.54,-76.3 1422.59,-86.7 1428.63,-83.15"/>
</a>
</g>
</g>
<!-- Node6&#45;&gt;Node5 -->
<g id="edge9_Node000006_Node000005" class="edge">
<title>Node6&#45;&gt;Node5</title>
<g id="a_edge9_Node000006_Node000005"><a xlink:title=" ">
<path fill="none" stroke="#63b8ff" d="M298.69,-248.86C316.16,-219.5 373.14,-126.54 403.46,-110.5 425.62,-98.78 1213.1,-72.42 1381.83,-66.9"/>
<polygon fill="#63b8ff" stroke="#63b8ff" points="1381.92,-70.4 1391.81,-66.58 1381.7,-63.4 1381.92,-70.4"/>
</a>
</g>
</g>
<!-- Node7 -->
<g id="Node000007" class="node">
<title>Node7</title>
<g id="a_Node000007"><a xlink:title=" ">
<polygon fill="#e0e0e0" stroke="#999999" points="254.96,-201.88 157.96,-201.88 157.96,-182.62 254.96,-182.62 254.96,-201.88"/>
<text text-anchor="middle" x="206.46" y="-188.38" font-family="Helvetica,sans-Serif" font-size="10.00">nlohmann/json.hpp</text>
</a>
</g>
</g>
<!-- Node6&#45;&gt;Node7 -->
<g id="edge6_Node000006_Node000007" class="edge">
<title>Node6&#45;&gt;Node7</title>
<g id="a_edge6_Node000006_Node000007"><a xlink:title=" ">
<path fill="none" stroke="#63b8ff" d="M281.36,-248.78C267.55,-238.54 244.68,-221.59 227.84,-209.1"/>
<polygon fill="#63b8ff" stroke="#63b8ff" points="230.07,-206.4 219.95,-203.25 225.9,-212.02 230.07,-206.4"/>
</a>
</g>
</g>
<!-- Node8 -->
<g id="Node000008" class="node">
<title>Node8</title>
<g id="a_Node000008"><a xlink:title=" ">
<polygon fill="#e0e0e0" stroke="#999999" points="313.46,-201.88 273.46,-201.88 273.46,-182.62 313.46,-182.62 313.46,-201.88"/>
<text text-anchor="middle" x="293.46" y="-188.38" font-family="Helvetica,sans-Serif" font-size="10.00">ctime</text>
</a>
</g>
</g>
<!-- Node6&#45;&gt;Node8 -->
<g id="edge7_Node000006_Node000008" class="edge">
<title>Node6&#45;&gt;Node8</title>
<g id="a_edge7_Node000006_Node000008"><a xlink:title=" ">
<path fill="none" stroke="#63b8ff" d="M293.46,-248.78C293.46,-239.73 293.46,-225.45 293.46,-213.63"/>
<polygon fill="#63b8ff" stroke="#63b8ff" points="296.96,-213.66 293.46,-203.66 289.96,-213.66 296.96,-213.66"/>
</a>
</g>
</g>
<!-- Node9 -->
<g id="Node000009" class="node">
<title>Node9</title>
<g id="a_Node000009"><a xlink:title=" ">
<polygon fill="#e0e0e0" stroke="#999999" points="876.21,-19.25 822.71,-19.25 822.71,0 876.21,0 876.21,-19.25"/>
<text text-anchor="middle" x="849.46" y="-5.75" font-family="Helvetica,sans-Serif" font-size="10.00">iostream</text>
</a>
</g>
</g>
<!-- Node6&#45;&gt;Node9 -->
<g id="edge8_Node000006_Node000009" class="edge">
<title>Node6&#45;&gt;Node9</title>
<g id="a_edge8_Node000006_Node000009"><a xlink:title=" ">
<path fill="none" stroke="#63b8ff" d="M227.75,-255.71C151.95,-251.81 34.16,-240.47 6.46,-207.5 -2.26,-197.12 -1.94,-187.64 6.46,-177 108.35,-47.87 660.26,-17.75 811.26,-11.88"/>
<polygon fill="#63b8ff" stroke="#63b8ff" points="811.25,-15.39 821.11,-11.52 810.99,-8.39 811.25,-15.39"/>
</a>
</g>
</g>
<!-- Node10 -->
<g id="Node000010" class="node">
<title>Node10</title>
<g id="a_Node000010"><a xlink:href="JSONTags_8hpp.html" target="_top" xlink:title=" ">
<polygon fill="white" stroke="#666666" points="139.83,-201.88 15.08,-201.88 15.08,-182.62 139.83,-182.62 139.83,-201.88"/>
<text text-anchor="middle" x="77.46" y="-188.38" font-family="Helvetica,sans-Serif" font-size="10.00">opmonlib/JSONTags.hpp</text>
</a>
</g>
</g>
<!-- Node6&#45;&gt;Node10 -->
<g id="edge10_Node000006_Node000010" class="edge">
<title>Node6&#45;&gt;Node10</title>
<g id="a_edge10_Node000006_Node000010"><a xlink:title=" ">
<path fill="none" stroke="#63b8ff" d="M262.97,-248.65C225.26,-237.39 160.9,-218.17 118.78,-205.59"/>
<polygon fill="#63b8ff" stroke="#63b8ff" points="119.83,-202.25 109.24,-202.74 117.82,-208.96 119.83,-202.25"/>
</a>
</g>
</g>
<!-- Node11&#45;&gt;Node5 -->
<g id="edge16_Node000011_Node000005" class="edge">
<title>Node11&#45;&gt;Node5</title>
<g id="a_edge16_Node000011_Node000005"><a xlink:title=" ">
<path fill="none" stroke="#63b8ff" d="M1294.11,-251.96C1275.09,-249.15 1251.58,-245.87 1230.46,-243.5 1060.94,-224.49 356.74,-233.95 474.46,-110.5 490.48,-93.7 1220.05,-71.5 1381.88,-66.78"/>
<polygon fill="#63b8ff" stroke="#63b8ff" points="1381.95,-70.28 1391.84,-66.49 1381.74,-63.28 1381.95,-70.28"/>
</a>
</g>
</g>
<!-- Node11&#45;&gt;Node9 -->
<g id="edge17_Node000011_Node000009" class="edge">
<title>Node11&#45;&gt;Node9</title>
<g id="a_edge17_Node000011_Node000009"><a xlink:title=" ">
<path fill="none" stroke="#63b8ff" d="M1294.14,-251.67C1275.13,-248.77 1251.61,-245.52 1230.46,-243.5 1150.83,-235.9 582.8,-243.68 511.46,-207.5 477.5,-190.28 470.19,-176.88 457.46,-141 452.93,-128.23 449.14,-121.2 457.46,-110.5 501.13,-54.31 721.3,-24.5 811.17,-14.51"/>
<polygon fill="#63b8ff" stroke="#63b8ff" points="811.39,-18.01 820.96,-13.45 810.64,-11.05 811.39,-18.01"/>
</a>
</g>
</g>
<!-- Node12 -->
<g id="Node000012" class="node">
<title>Node12</title>
<g id="a_Node000012"><a xlink:title=" ">
<polygon fill="#e0e0e0" stroke="#999999" points="1259.08,-201.88 1213.83,-201.88 1213.83,-182.62 1259.08,-182.62 1259.08,-201.88"/>
<text text-anchor="middle" x="1236.46" y="-188.38" font-family="Helvetica,sans-Serif" font-size="10.00">math.h</text>
</a>
</g>
</g>
<!-- Node11&#45;&gt;Node12 -->
<g id="edge12_Node000011_Node000012" class="edge">
<title>Node11&#45;&gt;Node12</title>
<g id="a_edge12_Node000011_Node000012"><a xlink:title=" ">
<path fill="none" stroke="#63b8ff" d="M1318.25,-248.78C1303.02,-238.44 1277.73,-221.27 1259.29,-208.75"/>
<polygon fill="#63b8ff" stroke="#63b8ff" points="1261.35,-205.92 1251.11,-203.2 1257.42,-211.71 1261.35,-205.92"/>
</a>
</g>
</g>
<!-- Node13 -->
<g id="Node000013" class="node">
<title>Node13</title>
<g id="a_Node000013"><a xlink:title=" ">
<polygon fill="#e0e0e0" stroke="#999999" points="1321.71,-201.88 1277.21,-201.88 1277.21,-182.62 1321.71,-182.62 1321.71,-201.88"/>
<text text-anchor="middle" x="1299.46" y="-188.38" font-family="Helvetica,sans-Serif" font-size="10.00">stdio.h</text>
</a>
</g>
</g>
<!-- Node11&#45;&gt;Node13 -->
<g id="edge13_Node000011_Node000013" class="edge">
<title>Node11&#45;&gt;Node13</title>
<g id="a_edge13_Node000011_Node000013"><a xlink:title=" ">
<path fill="none" stroke="#63b8ff" d="M1327.01,-248.78C1322.33,-239.35 1314.82,-224.22 1308.83,-212.13"/>
<polygon fill="#63b8ff" stroke="#63b8ff" points="1312.12,-210.9 1304.54,-203.5 1305.85,-214.01 1312.12,-210.9"/>
</a>
</g>
</g>
<!-- Node14 -->
<g id="Node000014" class="node">
<title>Node14</title>
<g id="a_Node000014"><a xlink:title=" ">
<polygon fill="#e0e0e0" stroke="#999999" points="1387.21,-201.88 1339.71,-201.88 1339.71,-182.62 1387.21,-182.62 1387.21,-201.88"/>
<text text-anchor="middle" x="1363.46" y="-188.38" font-family="Helvetica,sans-Serif" font-size="10.00">string.h</text>
</a>
</g>
</g>
<!-- Node11&#45;&gt;Node14 -->
<g id="edge14_Node000011_Node000014" class="edge">
<title>Node11&#45;&gt;Node14</title>
<g id="a_edge14_Node000011_Node000014"><a xlink:title=" ">
<path fill="none" stroke="#63b8ff" d="M1335.91,-248.78C1340.59,-239.35 1348.09,-224.22 1354.09,-212.13"/>
<polygon fill="#63b8ff" stroke="#63b8ff" points="1357.07,-214.01 1358.37,-203.5 1350.79,-210.9 1357.07,-214.01"/>
</a>
</g>
</g>
<!-- Node15 -->
<g id="Node000015" class="node">
<title>Node15</title>
<g id="a_Node000015"><a xlink:title=" ">
<polygon fill="#e0e0e0" stroke="#999999" points="1510.83,-135.38 1476.08,-135.38 1476.08,-116.12 1510.83,-116.12 1510.83,-135.38"/>
<text text-anchor="middle" x="1493.46" y="-121.88" font-family="Helvetica,sans-Serif" font-size="10.00">map</text>
</a>
</g>
</g>
<!-- Node11&#45;&gt;Node15 -->
<g id="edge15_Node000011_Node000015" class="edge">
<title>Node11&#45;&gt;Node15</title>
<g id="a_edge15_Node000011_Node000015"><a xlink:title=" ">
<path fill="none" stroke="#63b8ff" d="M1293.97,-249.39C1246.43,-237.13 1174.1,-211.89 1204.46,-177 1242.46,-133.33 1406.9,-157.26 1462.46,-141 1463.45,-140.71 1464.46,-140.39 1465.46,-140.05"/>
<polygon fill="#63b8ff" stroke="#63b8ff" points="1466.7,-143.33 1474.69,-136.37 1464.11,-136.82 1466.7,-143.33"/>
</a>
</g>
</g>
<!-- Node16 -->
<g id="Node000016" class="node">
<title>Node16</title>
<g id="a_Node000016"><a xlink:title=" ">
<polygon fill="#e0e0e0" stroke="#999999" points="1456.08,-201.88 1404.83,-201.88 1404.83,-182.62 1456.08,-182.62 1456.08,-201.88"/>
<text text-anchor="middle" x="1430.46" y="-188.38" font-family="Helvetica,sans-Serif" font-size="10.00">sstream</text>
</a>
</g>
</g>
<!-- Node11&#45;&gt;Node16 -->
<g id="edge18_Node000011_Node000016" class="edge">
<title>Node11&#45;&gt;Node16</title>
<g id="a_edge18_Node000011_Node000016"><a xlink:title=" ">
<path fill="none" stroke="#63b8ff" d="M1345.22,-248.78C1361.17,-238.39 1387.7,-221.11 1406.93,-208.58"/>
<polygon fill="#63b8ff" stroke="#63b8ff" points="1408.75,-211.57 1415.22,-203.18 1404.93,-205.7 1408.75,-211.57"/>
</a>
</g>
</g>
<!-- Node11&#45;&gt;Node17 -->
<g id="edge19_Node000011_Node000017" class="edge">
<title>Node11&#45;&gt;Node17</title>
<g id="a_edge19_Node000011_Node000017"><a xlink:title=" ">
<path fill="none" stroke="#63b8ff" d="M1369.02,-252.41C1430.18,-243.61 1555.06,-225.3 1660.46,-207.5 1673.6,-205.28 1687.96,-202.67 1700.68,-200.3"/>
<polygon fill="#63b8ff" stroke="#63b8ff" points="1701.16,-203.77 1710.34,-198.48 1699.87,-196.89 1701.16,-203.77"/>
</a>
</g>
</g>
<!-- Node11&#45;&gt;Node18 -->
<g id="edge20_Node000011_Node000018" class="edge">
<title>Node11&#45;&gt;Node18</title>
<g id="a_edge20_Node000011_Node000018"><a xlink:title=" ">
<path fill="none" stroke="#63b8ff" d="M1369.03,-254.78C1424.71,-249.57 1531.87,-236.47 1618.46,-207.5 1668.63,-190.71 1722.6,-160.1 1752.69,-141.78"/>
<polygon fill="#63b8ff" stroke="#63b8ff" points="1754.33,-144.87 1761,-136.64 1750.65,-138.92 1754.33,-144.87"/>
</a>
</g>
</g>
<!-- Node19 -->
<g id="Node000019" class="node">
<title>Node19</title>
<g id="a_Node000019"><a xlink:title=" ">
<polygon fill="#e0e0e0" stroke="#999999" points="1157.86,-201.88 1129.06,-201.88 1129.06,-182.62 1157.86,-182.62 1157.86,-201.88"/>
<text text-anchor="middle" x="1143.46" y="-188.38" font-family="Helvetica,sans-Serif" font-size="10.00">list</text>
</a>
</g>
</g>
<!-- Node11&#45;&gt;Node19 -->
<g id="edge21_Node000011_Node000019" class="edge">
<title>Node11&#45;&gt;Node19</title>
<g id="a_edge21_Node000011_Node000019"><a xlink:title=" ">
<path fill="none" stroke="#63b8ff" d="M1296.86,-248.68C1264.05,-239.67 1213.65,-224.72 1171.46,-207.5 1170.51,-207.11 1169.55,-206.7 1168.58,-206.28"/>
<polygon fill="#63b8ff" stroke="#63b8ff" points="1170.26,-203.2 1159.72,-202.06 1167.25,-209.52 1170.26,-203.2"/>
</a>
</g>
</g>
<!-- Node20 -->
<g id="Node000020" class="node">
<title>Node20</title>
<g id="a_Node000020"><a xlink:href="IssueFactory_8hpp.html" target="_top" xlink:title=" ">
<polygon fill="white" stroke="#666666" points="1580.83,-201.88 1474.08,-201.88 1474.08,-182.62 1580.83,-182.62 1580.83,-201.88"/>
<text text-anchor="middle" x="1527.46" y="-188.38" font-family="Helvetica,sans-Serif" font-size="10.00">ers/IssueFactory.hpp</text>
</a>
</g>
</g>
<!-- Node11&#45;&gt;Node20 -->
<g id="edge22_Node000011_Node000020" class="edge">
<title>Node11&#45;&gt;Node20</title>
<g id="a_edge22_Node000011_Node000020"><a xlink:title=" ">
<path fill="none" stroke="#63b8ff" d="M1359.13,-248.65C1393.12,-237.46 1450.99,-218.41 1489.23,-205.83"/>
<polygon fill="#63b8ff" stroke="#63b8ff" points="1490.09,-209.23 1498.5,-202.78 1487.9,-202.58 1490.09,-209.23"/>
</a>
</g>
</g>
<!-- Node22 -->
<g id="Node000022" class="node">
<title>Node22</title>
<g id="a_Node000022"><a xlink:href="Severity_8hpp.html" target="_top" xlink:title=" ">
<polygon fill="white" stroke="#666666" points="1690.33,-135.38 1604.58,-135.38 1604.58,-116.12 1690.33,-116.12 1690.33,-135.38"/>
<text text-anchor="middle" x="1647.46" y="-121.88" font-family="Helvetica,sans-Serif" font-size="10.00">ers/Severity.hpp</text>
</a>
</g>
</g>
<!-- Node11&#45;&gt;Node22 -->
<g id="edge39_Node000011_Node000022" class="edge">
<title>Node11&#45;&gt;Node22</title>
<g id="a_edge39_Node000011_Node000022"><a xlink:title=" ">
<path fill="none" stroke="#63b8ff" d="M1369,-253.87C1431.46,-246.86 1553.4,-230.62 1589.46,-207.5 1612.68,-192.61 1629.52,-164.84 1638.89,-146.07"/>
<polygon fill="#63b8ff" stroke="#63b8ff" points="1642.01,-147.66 1643.1,-137.12 1635.67,-144.67 1642.01,-147.66"/>
</a>
</g>
</g>
<!-- Node23 -->
<g id="Node000023" class="node">
<title>Node23</title>
<g id="a_Node000023"><a xlink:href="LocalContext_8hpp.html" target="_top" xlink:title=" ">
<polygon fill="white" stroke="#666666" points="1073.21,-201.88 965.71,-201.88 965.71,-182.62 1073.21,-182.62 1073.21,-201.88"/>
<text text-anchor="middle" x="1019.46" y="-188.38" font-family="Helvetica,sans-Serif" font-size="10.00">ers/LocalContext.hpp</text>
</a>
</g>
</g>
<!-- Node11&#45;&gt;Node23 -->
<g id="edge31_Node000011_Node000023" class="edge">
<title>Node11&#45;&gt;Node23</title>
<g id="a_edge31_Node000011_Node000023"><a xlink:title=" ">
<path fill="none" stroke="#63b8ff" d="M1293.82,-249.97C1239.16,-238.67 1137.47,-217.65 1074.42,-204.61"/>
<polygon fill="#63b8ff" stroke="#63b8ff" points="1075.49,-201.26 1064.98,-202.66 1074.07,-208.11 1075.49,-201.26"/>
</a>
</g>
</g>
<!-- Node28 -->
<g id="Node000028" class="node">
<title>Node28</title>
<g id="a_Node000028"><a xlink:href="IssueDeclarationMacro_8hpp.html" target="_top" xlink:title=" ">
<polygon fill="white" stroke="#666666" points="947.33,-207.5 807.58,-207.5 807.58,-177 947.33,-177 947.33,-207.5"/>
<text text-anchor="start" x="815.58" y="-194" font-family="Helvetica,sans-Serif" font-size="10.00">ers/internal/IssueDeclaration</text>
<text text-anchor="middle" x="877.46" y="-182.75" font-family="Helvetica,sans-Serif" font-size="10.00">Macro.hpp</text>
</a>
</g>
</g>
<!-- Node11&#45;&gt;Node28 -->
<g id="edge40_Node000011_Node000028" class="edge">
<title>Node11&#45;&gt;Node28</title>
<g id="a_edge40_Node000011_Node000028"><a xlink:title=" ">
<path fill="none" stroke="#63b8ff" d="M1294.06,-252.39C1275.02,-249.68 1251.51,-246.37 1230.46,-243.5 1112.32,-227.41 1079.71,-226.45 958.83,-207.82"/>
<polygon fill="#63b8ff" stroke="#63b8ff" points="959.55,-204.4 949.14,-206.32 958.48,-211.31 959.55,-204.4"/>
</a>
</g>
</g>
<!-- Node20&#45;&gt;Node5 -->
<g id="edge24_Node000020_Node000005" class="edge">
<title>Node20&#45;&gt;Node5</title>
<g id="a_edge24_Node000020_Node000005"><a xlink:title=" ">
<path fill="none" stroke="#63b8ff" d="M1529.31,-182.21C1532.06,-166.09 1535.35,-132.04 1519.46,-110.5 1501.94,-86.75 1469.31,-75.55 1444.86,-70.32"/>
<polygon fill="#63b8ff" stroke="#63b8ff" points="1445.58,-66.9 1435.11,-68.49 1444.29,-73.78 1445.58,-66.9"/>
</a>
</g>
</g>
<!-- Node20&#45;&gt;Node15 -->
<g id="edge26_Node000020_Node000015" class="edge">
<title>Node20&#45;&gt;Node15</title>
<g id="a_edge26_Node000020_Node000015"><a xlink:title=" ">
<path fill="none" stroke="#63b8ff" d="M1522.73,-182.28C1517.76,-172.85 1509.78,-157.72 1503.41,-145.63"/>
<polygon fill="#63b8ff" stroke="#63b8ff" points="1506.61,-144.2 1498.85,-136.98 1500.42,-147.46 1506.61,-144.2"/>
</a>
</g>
</g>
<!-- Node20&#45;&gt;Node18 -->
<g id="edge23_Node000020_Node000018" class="edge">
<title>Node20&#45;&gt;Node18</title>
<g id="a_edge23_Node000020_Node000018"><a xlink:title=" ">
<path fill="none" stroke="#63b8ff" d="M1568.14,-182.2C1609.67,-172.74 1675.88,-157.07 1732.46,-141 1735.83,-140.04 1739.32,-139 1742.81,-137.93"/>
<polygon fill="#63b8ff" stroke="#63b8ff" points="1743.8,-141.28 1752.28,-134.92 1741.69,-134.61 1743.8,-141.28"/>
</a>
</g>
</g>
<!-- Node20&#45;&gt;Node21 -->
<g id="edge25_Node000020_Node000021" class="edge">
<title>Node20&#45;&gt;Node21</title>
<g id="a_edge25_Node000020_Node000021"><a xlink:title=" ">
<path fill="none" stroke="#63b8ff" d="M1578.41,-182.15C1622.82,-173.21 1682.67,-158.41 1699.46,-141 1713.6,-126.34 1717.66,-102.74 1718.62,-85.91"/>
<polygon fill="#63b8ff" stroke="#63b8ff" points="1722.11,-86.2 1718.83,-76.12 1715.11,-86.05 1722.11,-86.2"/>
</a>
</g>
</g>
<!-- Node20&#45;&gt;Node22 -->
<g id="edge27_Node000020_Node000022" class="edge">
<title>Node20&#45;&gt;Node22</title>
<g id="a_edge27_Node000020_Node000022"><a xlink:title=" ">
<path fill="none" stroke="#63b8ff" d="M1544.4,-182.15C1564.23,-171.49 1597.33,-153.69 1620.66,-141.16"/>
<polygon fill="#63b8ff" stroke="#63b8ff" points="1622.12,-144.34 1629.27,-136.52 1618.81,-138.18 1622.12,-144.34"/>
</a>
</g>
</g>
<!-- Node22&#45;&gt;Node5 -->
<g id="edge28_Node000022_Node000005" class="edge">
<title>Node22&#45;&gt;Node5</title>
<g id="a_edge28_Node000022_Node000005"><a xlink:title=" ">
<path fill="none" stroke="#63b8ff" d="M1611.41,-115.68C1565.84,-104.22 1488.15,-84.67 1444.89,-73.78"/>
<polygon fill="#63b8ff" stroke="#63b8ff" points="1445.93,-70.44 1435.38,-71.39 1444.23,-77.23 1445.93,-70.44"/>
</a>
</g>
</g>
<!-- Node22&#45;&gt;Node9 -->
<g id="edge30_Node000022_Node000009" class="edge">
<title>Node22&#45;&gt;Node9</title>
<g id="a_edge30_Node000022_Node000009"><a xlink:title=" ">
<path fill="none" stroke="#63b8ff" d="M1626.4,-115.63C1589.79,-100.22 1511.69,-69.35 1442.46,-55.25 1236.54,-13.3 983.19,-9.85 888.01,-10.19"/>
<polygon fill="#63b8ff" stroke="#63b8ff" points="888.18,-6.69 878.2,-10.25 888.22,-13.69 888.18,-6.69"/>
</a>
</g>
</g>
<!-- Node22&#45;&gt;Node21 -->
<g id="edge29_Node000022_Node000021" class="edge">
<title>Node22&#45;&gt;Node21</title>
<g id="a_edge29_Node000022_Node000021"><a xlink:title=" ">
<path fill="none" stroke="#63b8ff" d="M1658.24,-115.81C1668.98,-106.9 1685.71,-93.03 1698.81,-82.17"/>
<polygon fill="#63b8ff" stroke="#63b8ff" points="1700.95,-84.94 1706.41,-75.87 1696.48,-79.56 1700.95,-84.94"/>
</a>
</g>
</g>
<!-- Node24 -->
<g id="Node000024" class="node">
<title>Node24</title>
<g id="a_Node000024"><a xlink:title=" ">
<polygon fill="#e0e0e0" stroke="#999999" points="1250.83,-135.38 1186.08,-135.38 1186.08,-116.12 1250.83,-116.12 1250.83,-135.38"/>
<text text-anchor="middle" x="1218.46" y="-121.88" font-family="Helvetica,sans-Serif" font-size="10.00">sys/types.h</text>
</a>
</g>
</g>
<!-- Node23&#45;&gt;Node24 -->
<g id="edge32_Node000023_Node000024" class="edge">
<title>Node23&#45;&gt;Node24</title>
<g id="a_edge32_Node000023_Node000024"><a xlink:title=" ">
<path fill="none" stroke="#63b8ff" d="M1048.95,-182.13C1080.74,-172.23 1132.8,-155.86 1177.46,-141 1179.02,-140.48 1180.62,-139.94 1182.23,-139.4"/>
<polygon fill="#63b8ff" stroke="#63b8ff" points="1183.14,-142.79 1191.47,-136.24 1180.88,-136.16 1183.14,-142.79"/>
</a>
</g>
</g>
<!-- Node25 -->
<g id="Node000025" class="node">
<title>Node25</title>
<g id="a_Node000025"><a xlink:title=" ">
<polygon fill="#e0e0e0" stroke="#999999" points="1318.33,-135.38 1268.58,-135.38 1268.58,-116.12 1318.33,-116.12 1318.33,-135.38"/>
<text text-anchor="middle" x="1293.46" y="-121.88" font-family="Helvetica,sans-Serif" font-size="10.00">unistd.h</text>
</a>
</g>
</g>
<!-- Node23&#45;&gt;Node25 -->
<g id="edge33_Node000023_Node000025" class="edge">
<title>Node23&#45;&gt;Node25</title>
<g id="a_edge33_Node000023_Node000025"><a xlink:title=" ">
<path fill="none" stroke="#63b8ff" d="M1062.99,-182.13C1071.12,-180.42 1079.55,-178.66 1087.46,-177 1163.9,-160.99 1184.88,-164.2 1259.46,-141 1260.62,-140.64 1261.8,-140.25 1262.98,-139.85"/>
<polygon fill="#63b8ff" stroke="#63b8ff" points="1264.03,-143.19 1272.14,-136.37 1261.55,-136.65 1264.03,-143.19"/>
</a>
</g>
</g>
<!-- Node26 -->
<g id="Node000026" class="node">
<title>Node26</title>
<g id="a_Node000026"><a xlink:href="Context_8hpp.html" target="_top" xlink:title=" ">
<polygon fill="white" stroke="#666666" points="1420.21,-135.38 1336.71,-135.38 1336.71,-116.12 1420.21,-116.12 1420.21,-135.38"/>
<text text-anchor="middle" x="1378.46" y="-121.88" font-family="Helvetica,sans-Serif" font-size="10.00">ers/Context.hpp</text>
</a>
</g>
</g>
<!-- Node23&#45;&gt;Node26 -->
<g id="edge34_Node000023_Node000026" class="edge">
<title>Node23&#45;&gt;Node26</title>
<g id="a_edge34_Node000023_Node000026"><a xlink:title=" ">
<path fill="none" stroke="#63b8ff" d="M1061.1,-182.13C1069.79,-180.33 1078.91,-178.54 1087.46,-177 1193.62,-157.93 1221.98,-163.56 1327.46,-141 1330.77,-140.29 1334.18,-139.49 1337.6,-138.64"/>
<polygon fill="#63b8ff" stroke="#63b8ff" points="1338.16,-142.12 1346.94,-136.19 1336.38,-135.34 1338.16,-142.12"/>
</a>
</g>
</g>
<!-- Node26&#45;&gt;Node5 -->
<g id="edge35_Node000026_Node000005" class="edge">
<title>Node26&#45;&gt;Node5</title>
<g id="a_edge35_Node000026_Node000005"><a xlink:title=" ">
<path fill="none" stroke="#63b8ff" d="M1383.77,-115.81C1388.66,-107.6 1396.05,-95.16 1402.24,-84.75"/>
<polygon fill="#63b8ff" stroke="#63b8ff" points="1405.22,-86.59 1407.32,-76.2 1399.2,-83.01 1405.22,-86.59"/>
</a>
</g>
</g>
<!-- Node26&#45;&gt;Node21 -->
<g id="edge36_Node000026_Node000021" class="edge">
<title>Node26&#45;&gt;Node21</title>
<g id="a_edge36_Node000026_Node000021"><a xlink:title=" ">
<path fill="none" stroke="#63b8ff" d="M1420.49,-117.47C1489.09,-105.59 1623.68,-82.29 1685.72,-71.54"/>
<polygon fill="#63b8ff" stroke="#63b8ff" points="1686.03,-75.04 1695.28,-69.89 1684.83,-68.15 1686.03,-75.04"/>
</a>
</g>
</g>
<!-- Node27 -->
<g id="Node000027" class="node">
<title>Node27</title>
<g id="a_Node000027"><a xlink:href="ers_2include_2ers_2Configuration_8hpp.html" target="_top" xlink:title=" ">
<polygon fill="white" stroke="#666666" points="1121.83,-74.5 1015.08,-74.5 1015.08,-55.25 1121.83,-55.25 1121.83,-74.5"/>
<text text-anchor="middle" x="1068.46" y="-61" font-family="Helvetica,sans-Serif" font-size="10.00">ers/Configuration.hpp</text>
</a>
</g>
</g>
<!-- Node26&#45;&gt;Node27 -->
<g id="edge37_Node000026_Node000027" class="edge">
<title>Node26&#45;&gt;Node27</title>
<g id="a_edge37_Node000026_Node000027"><a xlink:title=" ">
<path fill="none" stroke="#63b8ff" d="M1347.84,-115.65C1341.16,-113.82 1334.1,-111.99 1327.46,-110.5 1261.73,-95.7 1185.65,-83.12 1133.04,-75.13"/>
<polygon fill="#63b8ff" stroke="#63b8ff" points="1133.75,-71.7 1123.34,-73.67 1132.71,-78.62 1133.75,-71.7"/>
</a>
</g>
</g>
<!-- Node27&#45;&gt;Node9 -->
<g id="edge38_Node000027_Node000009" class="edge">
<title>Node27&#45;&gt;Node9</title>
<g id="a_edge38_Node000027_Node000009"><a xlink:title=" ">
<path fill="none" stroke="#63b8ff" d="M1031.31,-54.84C991.24,-45.1 927.77,-29.67 887.39,-19.85"/>
<polygon fill="#63b8ff" stroke="#63b8ff" points="888.42,-16.5 877.88,-17.54 886.77,-23.3 888.42,-16.5"/>
</a>
</g>
</g>
<!-- Node29 -->
<g id="Node000029" class="node">
<title>Node29</title>
<g id="a_Node000029"><a xlink:title=" ">
<polygon fill="#e0e0e0" stroke="#999999" points="817.08,-141 717.83,-141 717.83,-110.5 817.08,-110.5 817.08,-141"/>
<text text-anchor="start" x="725.83" y="-127.5" font-family="Helvetica,sans-Serif" font-size="10.00">boost/preprocessor</text>
<text text-anchor="middle" x="767.46" y="-116.25" font-family="Helvetica,sans-Serif" font-size="10.00">/if.hpp</text>
</a>
</g>
</g>
<!-- Node28&#45;&gt;Node29 -->
<g id="edge41_Node000028_Node000029" class="edge">
<title>Node28&#45;&gt;Node29</title>
<g id="a_edge41_Node000028_Node000029"><a xlink:title=" ">
<path fill="none" stroke="#63b8ff" d="M852.5,-176.61C837.59,-167.87 818.43,-156.64 802.08,-147.05"/>
<polygon fill="#63b8ff" stroke="#63b8ff" points="804.02,-144.13 793.63,-142.09 800.48,-150.17 804.02,-144.13"/>
</a>
</g>
</g>
<!-- Node30 -->
<g id="Node000030" class="node">
<title>Node30</title>
<g id="a_Node000030"><a xlink:title=" ">
<polygon fill="#e0e0e0" stroke="#999999" points="934.08,-141 834.83,-141 834.83,-110.5 934.08,-110.5 934.08,-141"/>
<text text-anchor="start" x="842.83" y="-127.5" font-family="Helvetica,sans-Serif" font-size="10.00">boost/preprocessor</text>
<text text-anchor="middle" x="884.46" y="-116.25" font-family="Helvetica,sans-Serif" font-size="10.00">/seq.hpp</text>
</a>
</g>
</g>
<!-- Node28&#45;&gt;Node30 -->
<g id="edge42_Node000028_Node000030" class="edge">
<title>Node28&#45;&gt;Node30</title>
<g id="a_edge42_Node000028_Node000030"><a xlink:title=" ">
<path fill="none" stroke="#63b8ff" d="M879.05,-176.61C879.82,-169.52 880.76,-160.79 881.65,-152.63"/>
<polygon fill="#63b8ff" stroke="#63b8ff" points="885.11,-153.15 882.71,-142.83 878.15,-152.4 885.11,-153.15"/>
</a>
</g>
</g>
<!-- Node31 -->
<g id="Node000031" class="node">
<title>Node31</title>
<g id="a_Node000031"><a xlink:title=" ">
<polygon fill="#e0e0e0" stroke="#999999" points="1051.08,-141 951.83,-141 951.83,-110.5 1051.08,-110.5 1051.08,-141"/>
<text text-anchor="start" x="959.83" y="-127.5" font-family="Helvetica,sans-Serif" font-size="10.00">boost/preprocessor</text>
<text text-anchor="middle" x="1001.46" y="-116.25" font-family="Helvetica,sans-Serif" font-size="10.00">/tuple.hpp</text>
</a>
</g>
</g>
<!-- Node28&#45;&gt;Node31 -->
<g id="edge43_Node000028_Node000031" class="edge">
<title>Node28&#45;&gt;Node31</title>
<g id="a_edge43_Node000028_Node000031"><a xlink:title=" ">
<path fill="none" stroke="#63b8ff" d="M905.6,-176.61C922.72,-167.71 944.81,-156.22 963.47,-146.51"/>
<polygon fill="#63b8ff" stroke="#63b8ff" points="964.83,-149.75 972.09,-142.03 961.6,-143.54 964.83,-149.75"/>
</a>
</g>
</g>
<!-- Node32 -->
<g id="Node000032" class="node">
<title>Node32</title>
<g id="a_Node000032"><a xlink:title=" ">
<polygon fill="#e0e0e0" stroke="#999999" points="1168.08,-141 1068.83,-141 1068.83,-110.5 1168.08,-110.5 1168.08,-141"/>
<text text-anchor="start" x="1076.83" y="-127.5" font-family="Helvetica,sans-Serif" font-size="10.00">boost/preprocessor</text>
<text text-anchor="middle" x="1118.46" y="-116.25" font-family="Helvetica,sans-Serif" font-size="10.00">/logical.hpp</text>
</a>
</g>
</g>
<!-- Node28&#45;&gt;Node32 -->
<g id="edge44_Node000028_Node000032" class="edge">
<title>Node28&#45;&gt;Node32</title>
<g id="a_edge44_Node000028_Node000032"><a xlink:title=" ">
<path fill="none" stroke="#63b8ff" d="M932.45,-176.53C969.75,-166.55 1019.08,-153.35 1057.57,-143.05"/>
<polygon fill="#63b8ff" stroke="#63b8ff" points="1058.41,-146.44 1067.16,-140.48 1056.6,-139.68 1058.41,-146.44"/>
</a>
</g>
</g>
<!-- Node33 -->
<g id="Node000033" class="node">
<title>Node33</title>
<g id="a_Node000033"><a xlink:title=" ">
<polygon fill="#e0e0e0" stroke="#999999" points="583.08,-141 483.83,-141 483.83,-110.5 583.08,-110.5 583.08,-141"/>
<text text-anchor="start" x="491.83" y="-127.5" font-family="Helvetica,sans-Serif" font-size="10.00">boost/preprocessor</text>
<text text-anchor="middle" x="533.46" y="-116.25" font-family="Helvetica,sans-Serif" font-size="10.00">/stringize.hpp</text>
</a>
</g>
</g>
<!-- Node28&#45;&gt;Node33 -->
<g id="edge45_Node000028_Node000033" class="edge">
<title>Node28&#45;&gt;Node33</title>
<g id="a_edge45_Node000028_Node000033"><a xlink:title=" ">
<path fill="none" stroke="#63b8ff" d="M807.27,-180.27C751.83,-171.28 672.26,-157.7 594.37,-141.54"/>
<polygon fill="#63b8ff" stroke="#63b8ff" points="595.38,-138.18 584.88,-139.55 593.95,-145.03 595.38,-138.18"/>
</a>
</g>
</g>
<!-- Node34 -->
<g id="Node000034" class="node">
<title>Node34</title>
<g id="a_Node000034"><a xlink:title=" ">
<polygon fill="#e0e0e0" stroke="#999999" points="700.08,-141 600.83,-141 600.83,-110.5 700.08,-110.5 700.08,-141"/>
<text text-anchor="start" x="608.83" y="-127.5" font-family="Helvetica,sans-Serif" font-size="10.00">boost/preprocessor</text>
<text text-anchor="middle" x="650.46" y="-116.25" font-family="Helvetica,sans-Serif" font-size="10.00">/comparison.hpp</text>
</a>
</g>
</g>
<!-- Node28&#45;&gt;Node34 -->
<g id="edge46_Node000028_Node000034" class="edge">
<title>Node28&#45;&gt;Node34</title>
<g id="a_edge46_Node000028_Node000034"><a xlink:title=" ">
<path fill="none" stroke="#63b8ff" d="M825.67,-176.53C791.63,-166.86 746.96,-154.17 711.25,-144.02"/>
<polygon fill="#63b8ff" stroke="#63b8ff" points="712.5,-140.74 701.93,-141.37 710.59,-147.47 712.5,-140.74"/>
</a>
</g>
</g>
</g>
</svg>
