<?xml version="1.0" encoding="UTF-8" standalone="no"?>
<!DOCTYPE svg PUBLIC "-//W3C//DTD SVG 1.1//EN"
 "http://www.w3.org/Graphics/SVG/1.1/DTD/svg11.dtd">
<!-- Generated by graphviz version 9.0.0 (20230911.1827)
 -->
<!-- Title: sourcecode/readoutlibs/include/readoutlibs/utils/RateLimiter.hpp Pages: 1 -->
<svg width="336pt" height="272pt"
 viewBox="0.00 0.00 336.38 271.75" xmlns="http://www.w3.org/2000/svg" xmlns:xlink="http://www.w3.org/1999/xlink">
<g id="graph0" class="graph" transform="scale(1 1) rotate(0) translate(4 267.75)">
<title>sourcecode/readoutlibs/include/readoutlibs/utils/RateLimiter.hpp</title>
<!-- Node1 -->
<g id="Node000001" class="node">
<title>Node1</title>
<g id="a_Node000001"><a xlink:title=" ">
<polygon fill="#999999" stroke="#666666" points="174.75,-263.75 53.75,-263.75 53.75,-222 174.75,-222 174.75,-263.75"/>
<text text-anchor="start" x="61.75" y="-250.25" font-family="Helvetica,sans-Serif" font-size="10.00">sourcecode/readoutlibs</text>
<text text-anchor="start" x="61.75" y="-239" font-family="Helvetica,sans-Serif" font-size="10.00">/include/readoutlibs/utils</text>
<text text-anchor="middle" x="114.25" y="-227.75" font-family="Helvetica,sans-Serif" font-size="10.00">/RateLimiter.hpp</text>
</a>
</g>
</g>
<!-- Node2 -->
<g id="Node000002" class="node">
<title>Node2</title>
<g id="a_Node000002"><a xlink:href="SourceEmulatorConcept_8hpp.html" target="_top" xlink:title=" ">
<polygon fill="white" stroke="#666666" points="235.62,-186 92.88,-186 92.88,-144.25 235.62,-144.25 235.62,-186"/>
<text text-anchor="start" x="100.88" y="-172.5" font-family="Helvetica,sans-Serif" font-size="10.00">sourcecode/readoutlibs</text>
<text text-anchor="start" x="100.88" y="-161.25" font-family="Helvetica,sans-Serif" font-size="10.00">/include/readoutlibs/concepts</text>
<text text-anchor="middle" x="164.25" y="-150" font-family="Helvetica,sans-Serif" font-size="10.00">/SourceEmulatorConcept.hpp</text>
</a>
</g>
</g>
<!-- Node1&#45;&gt;Node2 -->
<g id="edge1_Node000001_Node000002" class="edge">
<title>Node1&#45;&gt;Node2</title>
<g id="a_edge1_Node000001_Node000002"><a xlink:title=" ">
<path fill="none" stroke="#63b8ff" d="M133.83,-212.2C139.52,-203.59 145.6,-194.38 150.81,-186.48"/>
<polygon fill="#63b8ff" stroke="#63b8ff" points="131.07,-210.04 128.48,-220.31 136.91,-213.89 131.07,-210.04"/>
</a>
</g>
</g>
<!-- Node3 -->
<g id="Node000003" class="node">
<title>Node3</title>
<g id="a_Node000003"><a xlink:href="SourceEmulatorModel_8hpp.html" target="_top" xlink:title=" ">
<polygon fill="white" stroke="#666666" points="134.5,-108.25 0,-108.25 0,-66.5 134.5,-66.5 134.5,-108.25"/>
<text text-anchor="start" x="8" y="-94.75" font-family="Helvetica,sans-Serif" font-size="10.00">sourcecode/readoutlibs</text>
<text text-anchor="start" x="8" y="-83.5" font-family="Helvetica,sans-Serif" font-size="10.00">/include/readoutlibs/models</text>
<text text-anchor="middle" x="67.25" y="-72.25" font-family="Helvetica,sans-Serif" font-size="10.00">/SourceEmulatorModel.hpp</text>
</a>
</g>
</g>
<!-- Node1&#45;&gt;Node3 -->
<g id="edge6_Node000001_Node000003" class="edge">
<title>Node1&#45;&gt;Node3</title>
<g id="a_edge6_Node000001_Node000003"><a xlink:title=" ">
<path fill="none" stroke="#63b8ff" d="M95.86,-211.84C91.5,-203.69 87.26,-194.71 84.25,-186 75.32,-160.14 70.92,-128.75 68.88,-108.67"/>
<polygon fill="#63b8ff" stroke="#63b8ff" points="92.66,-213.3 100.61,-220.32 98.77,-209.88 92.66,-213.3"/>
</a>
</g>
</g>
<!-- Node2&#45;&gt;Node3 -->
<g id="edge2_Node000002_Node000003" class="edge">
<title>Node2&#45;&gt;Node3</title>
<g id="a_edge2_Node000002_Node000003"><a xlink:title=" ">
<path fill="none" stroke="#63b8ff" d="M129.43,-136.94C117.52,-127.64 104.42,-117.4 93.32,-108.73"/>
<polygon fill="#63b8ff" stroke="#63b8ff" points="127.03,-139.5 137.06,-142.89 131.34,-133.98 127.03,-139.5"/>
</a>
</g>
</g>
<!-- Node4 -->
<g id="Node000004" class="node">
<title>Node4</title>
<g id="a_Node000004"><a xlink:href="Readoutlibs_8cpp.html" target="_top" xlink:title=" ">
<polygon fill="white" stroke="#666666" points="172.5,-30.5 56,-30.5 56,0 172.5,0 172.5,-30.5"/>
<text text-anchor="start" x="64" y="-17" font-family="Helvetica,sans-Serif" font-size="10.00">sourcecode/readoutlibs</text>
<text text-anchor="middle" x="114.25" y="-5.75" font-family="Helvetica,sans-Serif" font-size="10.00">/src/Readoutlibs.cpp</text>
</a>
</g>
</g>
<!-- Node2&#45;&gt;Node4 -->
<g id="edge4_Node000002_Node000004" class="edge">
<title>Node2&#45;&gt;Node4</title>
<g id="a_edge4_Node000002_Node000004"><a xlink:title=" ">
<path fill="none" stroke="#63b8ff" d="M160.01,-132.49C156.77,-113.02 151.45,-87.8 143.25,-66.5 138.33,-53.72 130.45,-40.33 124.15,-30.6"/>
<polygon fill="#63b8ff" stroke="#63b8ff" points="156.54,-132.94 161.53,-142.28 163.45,-131.86 156.54,-132.94"/>
</a>
</g>
</g>
<!-- Node5 -->
<g id="Node000005" class="node">
<title>Node5</title>
<g id="a_Node000005"><a xlink:href="FakeCardReaderBase_8hpp.html" target="_top" xlink:title=" ">
<polygon fill="white" stroke="#666666" points="328.38,-108.25 190.12,-108.25 190.12,-66.5 328.38,-66.5 328.38,-108.25"/>
<text text-anchor="start" x="198.12" y="-94.75" font-family="Helvetica,sans-Serif" font-size="10.00">sourcecode/readoutmodules</text>
<text text-anchor="start" x="198.12" y="-83.5" font-family="Helvetica,sans-Serif" font-size="10.00">/include/readoutmodules</text>
<text text-anchor="middle" x="259.25" y="-72.25" font-family="Helvetica,sans-Serif" font-size="10.00">/FakeCardReaderBase.hpp</text>
</a>
</g>
</g>
<!-- Node2&#45;&gt;Node5 -->
<g id="edge5_Node000002_Node000005" class="edge">
<title>Node2&#45;&gt;Node5</title>
<g id="a_edge5_Node000002_Node000005"><a xlink:title=" ">
<path fill="none" stroke="#63b8ff" d="M198.69,-136.66C210.26,-127.44 222.96,-117.31 233.72,-108.73"/>
<polygon fill="#63b8ff" stroke="#63b8ff" points="196.53,-133.91 190.89,-142.88 200.89,-139.38 196.53,-133.91"/>
</a>
</g>
</g>
<!-- Node3&#45;&gt;Node4 -->
<g id="edge3_Node000003_Node000004" class="edge">
<title>Node3&#45;&gt;Node4</title>
<g id="a_edge3_Node000003_Node000004"><a xlink:title=" ">
<path fill="none" stroke="#63b8ff" d="M87.17,-56.65C93.19,-47.67 99.53,-38.21 104.56,-30.7"/>
<polygon fill="#63b8ff" stroke="#63b8ff" points="84.35,-54.58 81.69,-64.83 90.16,-58.48 84.35,-54.58"/>
</a>
</g>
</g>
</g>
</svg>
