<?xml version="1.0" encoding="UTF-8" standalone="no"?>
<!DOCTYPE svg PUBLIC "-//W3C//DTD SVG 1.1//EN"
 "http://www.w3.org/Graphics/SVG/1.1/DTD/svg11.dtd">
<!-- Generated by graphviz version 9.0.0 (20230911.1827)
 -->
<!-- Title: sourcecode/readoutlibs/include/readoutlibs/utils/RateLimiter.hpp Pages: 1 -->
<svg width="243pt" height="105pt"
 viewBox="0.00 0.00 242.50 105.00" xmlns="http://www.w3.org/2000/svg" xmlns:xlink="http://www.w3.org/1999/xlink">
<g id="graph0" class="graph" transform="scale(1 1) rotate(0) translate(4 101)">
<title>sourcecode/readoutlibs/include/readoutlibs/utils/RateLimiter.hpp</title>
<!-- Node1 -->
<g id="Node000001" class="node">
<title>Node1</title>
<g id="a_Node000001"><a xlink:title=" ">
<polygon fill="#999999" stroke="#666666" points="176.12,-97 55.12,-97 55.12,-55.25 176.12,-55.25 176.12,-97"/>
<text text-anchor="start" x="63.12" y="-83.5" font-family="Helvetica,sans-Serif" font-size="10.00">sourcecode/readoutlibs</text>
<text text-anchor="start" x="63.12" y="-72.25" font-family="Helvetica,sans-Serif" font-size="10.00">/include/readoutlibs/utils</text>
<text text-anchor="middle" x="115.62" y="-61" font-family="Helvetica,sans-Serif" font-size="10.00">/RateLimiter.hpp</text>
</a>
</g>
</g>
<!-- Node2 -->
<g id="Node000002" class="node">
<title>Node2</title>
<g id="a_Node000002"><a xlink:title=" ">
<polygon fill="#e0e0e0" stroke="#999999" points="45.25,-19.25 0,-19.25 0,0 45.25,0 45.25,-19.25"/>
<text text-anchor="middle" x="22.62" y="-5.75" font-family="Helvetica,sans-Serif" font-size="10.00">atomic</text>
</a>
</g>
</g>
<!-- Node1&#45;&gt;Node2 -->
<g id="edge1_Node000001_Node000002" class="edge">
<title>Node1&#45;&gt;Node2</title>
<g id="a_edge1_Node000001_Node000002"><a xlink:title=" ">
<path fill="none" stroke="#63b8ff" d="M86.45,-54.89C73,-45.57 57.3,-34.67 44.83,-26.02"/>
<polygon fill="#63b8ff" stroke="#63b8ff" points="47.09,-23.33 36.87,-20.51 43.1,-29.08 47.09,-23.33"/>
</a>
</g>
</g>
<!-- Node3 -->
<g id="Node000003" class="node">
<title>Node3</title>
<g id="a_Node000003"><a xlink:title=" ">
<polygon fill="#e0e0e0" stroke="#999999" points="108.25,-19.25 63,-19.25 63,0 108.25,0 108.25,-19.25"/>
<text text-anchor="middle" x="85.62" y="-5.75" font-family="Helvetica,sans-Serif" font-size="10.00">chrono</text>
</a>
</g>
</g>
<!-- Node1&#45;&gt;Node3 -->
<g id="edge2_Node000001_Node000003" class="edge">
<title>Node1&#45;&gt;Node3</title>
<g id="a_edge2_Node000001_Node000003"><a xlink:title=" ">
<path fill="none" stroke="#63b8ff" d="M106.3,-55.07C102.6,-47.12 98.36,-38.01 94.69,-30.11"/>
<polygon fill="#63b8ff" stroke="#63b8ff" points="97.87,-28.66 90.48,-21.07 91.53,-31.61 97.87,-28.66"/>
</a>
</g>
</g>
<!-- Node4 -->
<g id="Node000004" class="node">
<title>Node4</title>
<g id="a_Node000004"><a xlink:title=" ">
<polygon fill="#e0e0e0" stroke="#999999" points="166.62,-19.25 126.62,-19.25 126.62,0 166.62,0 166.62,-19.25"/>
<text text-anchor="middle" x="146.62" y="-5.75" font-family="Helvetica,sans-Serif" font-size="10.00">ctime</text>
</a>
</g>
</g>
<!-- Node1&#45;&gt;Node4 -->
<g id="edge3_Node000001_Node000004" class="edge">
<title>Node1&#45;&gt;Node4</title>
<g id="a_edge3_Node000001_Node000004"><a xlink:title=" ">
<path fill="none" stroke="#63b8ff" d="M125.26,-55.07C129.13,-47.03 133.57,-37.8 137.39,-29.84"/>
<polygon fill="#63b8ff" stroke="#63b8ff" points="140.43,-31.59 141.61,-21.06 134.12,-28.56 140.43,-31.59"/>
</a>
</g>
</g>
<!-- Node5 -->
<g id="Node000005" class="node">
<title>Node5</title>
<g id="a_Node000005"><a xlink:title=" ">
<polygon fill="#e0e0e0" stroke="#999999" points="234.5,-19.25 184.75,-19.25 184.75,0 234.5,0 234.5,-19.25"/>
<text text-anchor="middle" x="209.62" y="-5.75" font-family="Helvetica,sans-Serif" font-size="10.00">unistd.h</text>
</a>
</g>
</g>
<!-- Node1&#45;&gt;Node5 -->
<g id="edge4_Node000001_Node000005" class="edge">
<title>Node1&#45;&gt;Node5</title>
<g id="a_edge4_Node000001_Node000005"><a xlink:title=" ">
<path fill="none" stroke="#63b8ff" d="M145.11,-54.89C158.7,-45.57 174.58,-34.67 187.18,-26.02"/>
<polygon fill="#63b8ff" stroke="#63b8ff" points="188.97,-29.04 195.23,-20.5 185.01,-23.27 188.97,-29.04"/>
</a>
</g>
</g>
</g>
</svg>
