<?xml version="1.0" encoding="UTF-8" standalone="no"?>
<!DOCTYPE svg PUBLIC "-//W3C//DTD SVG 1.1//EN"
 "http://www.w3.org/Graphics/SVG/1.1/DTD/svg11.dtd">
<!-- Generated by graphviz version 9.0.0 (20230911.1827)
 -->
<!-- Title: sourcecode/readoutlibs/include/readoutlibs/concepts/RawDataProcessorConcept.hpp Pages: 1 -->
<svg width="1133pt" height="160pt"
 viewBox="0.00 0.00 1133.12 160.25" xmlns="http://www.w3.org/2000/svg" xmlns:xlink="http://www.w3.org/1999/xlink">
<g id="graph0" class="graph" transform="scale(1 1) rotate(0) translate(4 156.25)">
<title>sourcecode/readoutlibs/include/readoutlibs/concepts/RawDataProcessorConcept.hpp</title>
<!-- Node1 -->
<g id="Node000001" class="node">
<title>Node1</title>
<g id="a_Node000001"><a xlink:title=" ">
<polygon fill="#999999" stroke="#666666" points="486,-152.25 329,-152.25 329,-110.5 486,-110.5 486,-152.25"/>
<text text-anchor="start" x="337" y="-138.75" font-family="Helvetica,sans-Serif" font-size="10.00">sourcecode/readoutlibs</text>
<text text-anchor="start" x="337" y="-127.5" font-family="Helvetica,sans-Serif" font-size="10.00">/include/readoutlibs/concepts</text>
<text text-anchor="middle" x="407.5" y="-116.25" font-family="Helvetica,sans-Serif" font-size="10.00">/RawDataProcessorConcept.hpp</text>
</a>
</g>
</g>
<!-- Node2 -->
<g id="Node000002" class="node">
<title>Node2</title>
<g id="a_Node000002"><a xlink:href="InfoCollector_8hpp.html" target="_top" xlink:title=" ">
<polygon fill="white" stroke="#666666" points="331.88,-74.5 201.12,-74.5 201.12,-55.25 331.88,-55.25 331.88,-74.5"/>
<text text-anchor="middle" x="266.5" y="-61" font-family="Helvetica,sans-Serif" font-size="10.00">opmonlib/InfoCollector.hpp</text>
</a>
</g>
</g>
<!-- Node1&#45;&gt;Node2 -->
<g id="edge1_Node000001_Node000002" class="edge">
<title>Node1&#45;&gt;Node2</title>
<g id="a_edge1_Node000001_Node000002"><a xlink:title=" ">
<path fill="none" stroke="#63b8ff" d="M363.27,-110.14C341.57,-100.21 315.99,-88.51 296.58,-79.63"/>
<polygon fill="#63b8ff" stroke="#63b8ff" points="298.14,-76.5 287.59,-75.52 295.23,-82.87 298.14,-76.5"/>
</a>
</g>
</g>
<!-- Node3 -->
<g id="Node000003" class="node">
<title>Node3</title>
<g id="a_Node000003"><a xlink:title=" ">
<polygon fill="#e0e0e0" stroke="#999999" points="97,-19.25 0,-19.25 0,0 97,0 97,-19.25"/>
<text text-anchor="middle" x="48.5" y="-5.75" font-family="Helvetica,sans-Serif" font-size="10.00">nlohmann/json.hpp</text>
</a>
</g>
</g>
<!-- Node1&#45;&gt;Node3 -->
<g id="edge21_Node000001_Node000003" class="edge">
<title>Node1&#45;&gt;Node3</title>
<g id="a_edge21_Node000001_Node000003"><a xlink:title=" ">
<path fill="none" stroke="#63b8ff" d="M328.71,-113.16C287.62,-103.37 236.83,-89.98 192.5,-74.5 151.06,-60.03 104.98,-38.6 76.37,-24.62"/>
<polygon fill="#63b8ff" stroke="#63b8ff" points="78.18,-21.61 67.66,-20.33 75.08,-27.89 78.18,-21.61"/>
</a>
</g>
</g>
<!-- Node6 -->
<g id="Node000006" class="node">
<title>Node6</title>
<g id="a_Node000006"><a xlink:title=" ">
<polygon fill="#e0e0e0" stroke="#999999" points="427.5,-19.25 387.5,-19.25 387.5,0 427.5,0 427.5,-19.25"/>
<text text-anchor="middle" x="407.5" y="-5.75" font-family="Helvetica,sans-Serif" font-size="10.00">string</text>
</a>
</g>
</g>
<!-- Node1&#45;&gt;Node6 -->
<g id="edge20_Node000001_Node000006" class="edge">
<title>Node1&#45;&gt;Node6</title>
<g id="a_edge20_Node000001_Node000006"><a xlink:title=" ">
<path fill="none" stroke="#63b8ff" d="M407.5,-110.06C407.5,-87.97 407.5,-52.88 407.5,-30.83"/>
<polygon fill="#63b8ff" stroke="#63b8ff" points="411,-31.07 407.5,-21.07 404,-31.07 411,-31.07"/>
</a>
</g>
</g>
<!-- Node8 -->
<g id="Node000008" class="node">
<title>Node8</title>
<g id="a_Node000008"><a xlink:href="SourceID_8hpp.html" target="_top" xlink:title=" ">
<polygon fill="white" stroke="#666666" points="739,-74.5 594,-74.5 594,-55.25 739,-55.25 739,-74.5"/>
<text text-anchor="middle" x="666.5" y="-61" font-family="Helvetica,sans-Serif" font-size="10.00">daqdataformats/SourceID.hpp</text>
</a>
</g>
</g>
<!-- Node1&#45;&gt;Node8 -->
<g id="edge7_Node000001_Node000008" class="edge">
<title>Node1&#45;&gt;Node8</title>
<g id="a_edge7_Node000001_Node000008"><a xlink:title=" ">
<path fill="none" stroke="#63b8ff" d="M486.26,-110.76C529.56,-99.98 581.84,-86.96 618.92,-77.72"/>
<polygon fill="#63b8ff" stroke="#63b8ff" points="619.59,-81.17 628.44,-75.35 617.89,-74.37 619.59,-81.17"/>
</a>
</g>
</g>
<!-- Node19 -->
<g id="Node000019" class="node">
<title>Node19</title>
<g id="a_Node000019"><a xlink:title=" ">
<polygon fill="#e0e0e0" stroke="#999999" points="890,-74.5 757,-74.5 757,-55.25 890,-55.25 890,-74.5"/>
<text text-anchor="middle" x="823.5" y="-61" font-family="Helvetica,sans-Serif" font-size="10.00">appdal/ReadoutModule.hpp</text>
</a>
</g>
</g>
<!-- Node1&#45;&gt;Node19 -->
<g id="edge19_Node000001_Node000019" class="edge">
<title>Node1&#45;&gt;Node19</title>
<g id="a_edge19_Node000001_Node000019"><a xlink:title=" ">
<path fill="none" stroke="#63b8ff" d="M486.24,-118.17C563.42,-106.2 679.95,-88.13 753.85,-76.67"/>
<polygon fill="#63b8ff" stroke="#63b8ff" points="754.04,-80.19 763.39,-75.2 752.97,-73.27 754.04,-80.19"/>
</a>
</g>
</g>
<!-- Node2&#45;&gt;Node3 -->
<g id="edge2_Node000002_Node000003" class="edge">
<title>Node2&#45;&gt;Node3</title>
<g id="a_edge2_Node000002_Node000003"><a xlink:title=" ">
<path fill="none" stroke="#63b8ff" d="M229.52,-54.84C192.96,-45.91 136.82,-32.2 96.76,-22.41"/>
<polygon fill="#63b8ff" stroke="#63b8ff" points="97.68,-19.03 87.13,-20.06 96.02,-25.83 97.68,-19.03"/>
</a>
</g>
</g>
<!-- Node4 -->
<g id="Node000004" class="node">
<title>Node4</title>
<g id="a_Node000004"><a xlink:title=" ">
<polygon fill="#e0e0e0" stroke="#999999" points="155.5,-19.25 115.5,-19.25 115.5,0 155.5,0 155.5,-19.25"/>
<text text-anchor="middle" x="135.5" y="-5.75" font-family="Helvetica,sans-Serif" font-size="10.00">ctime</text>
</a>
</g>
</g>
<!-- Node2&#45;&gt;Node4 -->
<g id="edge3_Node000002_Node000004" class="edge">
<title>Node2&#45;&gt;Node4</title>
<g id="a_edge3_Node000002_Node000004"><a xlink:title=" ">
<path fill="none" stroke="#63b8ff" d="M244.28,-54.84C222.85,-46.13 190.24,-32.88 166.31,-23.15"/>
<polygon fill="#63b8ff" stroke="#63b8ff" points="167.66,-19.92 157.08,-19.4 165.03,-26.4 167.66,-19.92"/>
</a>
</g>
</g>
<!-- Node5 -->
<g id="Node000005" class="node">
<title>Node5</title>
<g id="a_Node000005"><a xlink:title=" ">
<polygon fill="#e0e0e0" stroke="#999999" points="227.25,-19.25 173.75,-19.25 173.75,0 227.25,0 227.25,-19.25"/>
<text text-anchor="middle" x="200.5" y="-5.75" font-family="Helvetica,sans-Serif" font-size="10.00">iostream</text>
</a>
</g>
</g>
<!-- Node2&#45;&gt;Node5 -->
<g id="edge4_Node000002_Node000005" class="edge">
<title>Node2&#45;&gt;Node5</title>
<g id="a_edge4_Node000002_Node000005"><a xlink:title=" ">
<path fill="none" stroke="#63b8ff" d="M255.3,-54.84C245.76,-47.15 231.83,-35.9 220.39,-26.68"/>
<polygon fill="#63b8ff" stroke="#63b8ff" points="222.69,-24.03 212.71,-20.48 218.29,-29.48 222.69,-24.03"/>
</a>
</g>
</g>
<!-- Node2&#45;&gt;Node6 -->
<g id="edge5_Node000002_Node000006" class="edge">
<title>Node2&#45;&gt;Node6</title>
<g id="a_edge5_Node000002_Node000006"><a xlink:title=" ">
<path fill="none" stroke="#63b8ff" d="M290.42,-54.84C314.1,-45.9 350.47,-32.16 376.39,-22.37"/>
<polygon fill="#63b8ff" stroke="#63b8ff" points="377.6,-25.66 385.72,-18.85 375.12,-19.11 377.6,-25.66"/>
</a>
</g>
</g>
<!-- Node7 -->
<g id="Node000007" class="node">
<title>Node7</title>
<g id="a_Node000007"><a xlink:href="JSONTags_8hpp.html" target="_top" xlink:title=" ">
<polygon fill="white" stroke="#666666" points="369.88,-19.25 245.12,-19.25 245.12,0 369.88,0 369.88,-19.25"/>
<text text-anchor="middle" x="307.5" y="-5.75" font-family="Helvetica,sans-Serif" font-size="10.00">opmonlib/JSONTags.hpp</text>
</a>
</g>
</g>
<!-- Node2&#45;&gt;Node7 -->
<g id="edge6_Node000002_Node000007" class="edge">
<title>Node2&#45;&gt;Node7</title>
<g id="a_edge6_Node000002_Node000007"><a xlink:title=" ">
<path fill="none" stroke="#63b8ff" d="M273.27,-55.08C278.82,-47.88 286.84,-37.46 293.73,-28.51"/>
<polygon fill="#63b8ff" stroke="#63b8ff" points="296.33,-30.87 299.66,-20.81 290.79,-26.6 296.33,-30.87"/>
</a>
</g>
</g>
<!-- Node8&#45;&gt;Node6 -->
<g id="edge16_Node000008_Node000006" class="edge">
<title>Node8&#45;&gt;Node6</title>
<g id="a_edge16_Node000008_Node000006"><a xlink:title=" ">
<path fill="none" stroke="#63b8ff" d="M611.8,-54.81C567.46,-47.11 503.18,-35.17 438.51,-19.55"/>
<polygon fill="#63b8ff" stroke="#63b8ff" points="439.73,-16.25 429.18,-17.27 438.06,-23.05 439.73,-16.25"/>
</a>
</g>
</g>
<!-- Node9 -->
<g id="Node000009" class="node">
<title>Node9</title>
<g id="a_Node000009"><a xlink:title=" ">
<polygon fill="#e0e0e0" stroke="#999999" points="493.62,-19.25 445.38,-19.25 445.38,0 493.62,0 493.62,-19.25"/>
<text text-anchor="middle" x="469.5" y="-5.75" font-family="Helvetica,sans-Serif" font-size="10.00">cassert</text>
</a>
</g>
</g>
<!-- Node8&#45;&gt;Node9 -->
<g id="edge8_Node000008_Node000009" class="edge">
<title>Node8&#45;&gt;Node9</title>
<g id="a_edge8_Node000008_Node000009"><a xlink:title=" ">
<path fill="none" stroke="#63b8ff" d="M633.08,-54.84C597.52,-45.23 541.48,-30.08 505.1,-20.25"/>
<polygon fill="#63b8ff" stroke="#63b8ff" points="506.06,-16.88 495.5,-17.65 504.24,-23.64 506.06,-16.88"/>
</a>
</g>
</g>
<!-- Node10 -->
<g id="Node000010" class="node">
<title>Node10</title>
<g id="a_Node000010"><a xlink:title=" ">
<polygon fill="#e0e0e0" stroke="#999999" points="559.62,-19.25 511.38,-19.25 511.38,0 559.62,0 559.62,-19.25"/>
<text text-anchor="middle" x="535.5" y="-5.75" font-family="Helvetica,sans-Serif" font-size="10.00">cstddef</text>
</a>
</g>
</g>
<!-- Node8&#45;&gt;Node10 -->
<g id="edge9_Node000008_Node000010" class="edge">
<title>Node8&#45;&gt;Node10</title>
<g id="a_edge9_Node000008_Node000010"><a xlink:title=" ">
<path fill="none" stroke="#63b8ff" d="M644.28,-54.84C623.48,-46.39 592.15,-33.65 568.45,-24.02"/>
<polygon fill="#63b8ff" stroke="#63b8ff" points="569.82,-20.8 559.23,-20.27 567.18,-27.28 569.82,-20.8"/>
</a>
</g>
</g>
<!-- Node11 -->
<g id="Node000011" class="node">
<title>Node11</title>
<g id="a_Node000011"><a xlink:title=" ">
<polygon fill="#e0e0e0" stroke="#999999" points="623.12,-19.25 577.88,-19.25 577.88,0 623.12,0 623.12,-19.25"/>
<text text-anchor="middle" x="600.5" y="-5.75" font-family="Helvetica,sans-Serif" font-size="10.00">cstdint</text>
</a>
</g>
</g>
<!-- Node8&#45;&gt;Node11 -->
<g id="edge10_Node000008_Node000011" class="edge">
<title>Node8&#45;&gt;Node11</title>
<g id="a_edge10_Node000008_Node000011"><a xlink:title=" ">
<path fill="none" stroke="#63b8ff" d="M655.3,-54.84C645.76,-47.15 631.83,-35.9 620.39,-26.68"/>
<polygon fill="#63b8ff" stroke="#63b8ff" points="622.69,-24.03 612.71,-20.48 618.29,-29.48 622.69,-24.03"/>
</a>
</g>
</g>
<!-- Node12 -->
<g id="Node000012" class="node">
<title>Node12</title>
<g id="a_Node000012"><a xlink:title=" ">
<polygon fill="#e0e0e0" stroke="#999999" points="691.38,-19.25 641.62,-19.25 641.62,0 691.38,0 691.38,-19.25"/>
<text text-anchor="middle" x="666.5" y="-5.75" font-family="Helvetica,sans-Serif" font-size="10.00">iomanip</text>
</a>
</g>
</g>
<!-- Node8&#45;&gt;Node12 -->
<g id="edge11_Node000008_Node000012" class="edge">
<title>Node8&#45;&gt;Node12</title>
<g id="a_edge11_Node000008_Node000012"><a xlink:title=" ">
<path fill="none" stroke="#63b8ff" d="M666.5,-55.08C666.5,-48.57 666.5,-39.42 666.5,-31.12"/>
<polygon fill="#63b8ff" stroke="#63b8ff" points="670,-31.12 666.5,-21.12 663,-31.12 670,-31.12"/>
</a>
</g>
</g>
<!-- Node13 -->
<g id="Node000013" class="node">
<title>Node13</title>
<g id="a_Node000013"><a xlink:title=" ">
<polygon fill="#e0e0e0" stroke="#999999" points="757.62,-19.25 709.38,-19.25 709.38,0 757.62,0 757.62,-19.25"/>
<text text-anchor="middle" x="733.5" y="-5.75" font-family="Helvetica,sans-Serif" font-size="10.00">istream</text>
</a>
</g>
</g>
<!-- Node8&#45;&gt;Node13 -->
<g id="edge12_Node000008_Node000013" class="edge">
<title>Node8&#45;&gt;Node13</title>
<g id="a_edge12_Node000008_Node000013"><a xlink:title=" ">
<path fill="none" stroke="#63b8ff" d="M677.87,-54.84C687.55,-47.15 701.7,-35.9 713.31,-26.68"/>
<polygon fill="#63b8ff" stroke="#63b8ff" points="715.47,-29.43 721.12,-20.47 711.11,-23.95 715.47,-29.43"/>
</a>
</g>
</g>
<!-- Node14 -->
<g id="Node000014" class="node">
<title>Node14</title>
<g id="a_Node000014"><a xlink:title=" ">
<polygon fill="#e0e0e0" stroke="#999999" points="815.12,-19.25 775.88,-19.25 775.88,0 815.12,0 815.12,-19.25"/>
<text text-anchor="middle" x="795.5" y="-5.75" font-family="Helvetica,sans-Serif" font-size="10.00">limits</text>
</a>
</g>
</g>
<!-- Node8&#45;&gt;Node14 -->
<g id="edge13_Node000008_Node000014" class="edge">
<title>Node8&#45;&gt;Node14</title>
<g id="a_edge13_Node000008_Node000014"><a xlink:title=" ">
<path fill="none" stroke="#63b8ff" d="M688.38,-54.84C709.48,-46.13 741.59,-32.88 765.16,-23.15"/>
<polygon fill="#63b8ff" stroke="#63b8ff" points="766.32,-26.46 774.23,-19.4 763.65,-19.98 766.32,-26.46"/>
</a>
</g>
</g>
<!-- Node15 -->
<g id="Node000015" class="node">
<title>Node15</title>
<g id="a_Node000015"><a xlink:title=" ">
<polygon fill="#e0e0e0" stroke="#999999" points="884.12,-19.25 832.88,-19.25 832.88,0 884.12,0 884.12,-19.25"/>
<text text-anchor="middle" x="858.5" y="-5.75" font-family="Helvetica,sans-Serif" font-size="10.00">ostream</text>
</a>
</g>
</g>
<!-- Node8&#45;&gt;Node15 -->
<g id="edge14_Node000008_Node000015" class="edge">
<title>Node8&#45;&gt;Node15</title>
<g id="a_edge14_Node000008_Node000015"><a xlink:title=" ">
<path fill="none" stroke="#63b8ff" d="M699.07,-54.84C733.05,-45.42 786.23,-30.67 821.71,-20.83"/>
<polygon fill="#63b8ff" stroke="#63b8ff" points="822.4,-24.27 831.1,-18.22 820.53,-17.52 822.4,-24.27"/>
</a>
</g>
</g>
<!-- Node16 -->
<g id="Node000016" class="node">
<title>Node16</title>
<g id="a_Node000016"><a xlink:title=" ">
<polygon fill="#e0e0e0" stroke="#999999" points="953.12,-19.25 901.88,-19.25 901.88,0 953.12,0 953.12,-19.25"/>
<text text-anchor="middle" x="927.5" y="-5.75" font-family="Helvetica,sans-Serif" font-size="10.00">sstream</text>
</a>
</g>
</g>
<!-- Node8&#45;&gt;Node16 -->
<g id="edge15_Node000008_Node000016" class="edge">
<title>Node8&#45;&gt;Node16</title>
<g id="a_edge15_Node000008_Node000016"><a xlink:title=" ">
<path fill="none" stroke="#63b8ff" d="M716.71,-54.82C760.38,-46.75 825.63,-34.27 890.69,-19.8"/>
<polygon fill="#63b8ff" stroke="#63b8ff" points="891.08,-23.3 900.07,-17.69 889.55,-16.47 891.08,-23.3"/>
</a>
</g>
</g>
<!-- Node17 -->
<g id="Node000017" class="node">
<title>Node17</title>
<g id="a_Node000017"><a xlink:title=" ">
<polygon fill="#e0e0e0" stroke="#999999" points="1008,-19.25 971,-19.25 971,0 1008,0 1008,-19.25"/>
<text text-anchor="middle" x="989.5" y="-5.75" font-family="Helvetica,sans-Serif" font-size="10.00">tuple</text>
</a>
</g>
</g>
<!-- Node8&#45;&gt;Node17 -->
<g id="edge17_Node000008_Node000017" class="edge">
<title>Node8&#45;&gt;Node17</title>
<g id="a_edge17_Node000008_Node000017"><a xlink:title=" ">
<path fill="none" stroke="#63b8ff" d="M739.49,-56.16C797.19,-49.31 879.87,-37.84 959.96,-19.55"/>
<polygon fill="#63b8ff" stroke="#63b8ff" points="960.3,-23.06 969.25,-17.39 958.72,-16.24 960.3,-23.06"/>
</a>
</g>
</g>
<!-- Node18 -->
<g id="Node000018" class="node">
<title>Node18</title>
<g id="a_Node000018"><a xlink:href="SourceID_8hxx.html" target="_top" xlink:title=" ">
<polygon fill="white" stroke="#666666" points="1125.12,-19.25 1025.88,-19.25 1025.88,0 1125.12,0 1125.12,-19.25"/>
<text text-anchor="middle" x="1075.5" y="-5.75" font-family="Helvetica,sans-Serif" font-size="10.00">detail/SourceID.hxx</text>
</a>
</g>
</g>
<!-- Node8&#45;&gt;Node18 -->
<g id="edge18_Node000008_Node000018" class="edge">
<title>Node8&#45;&gt;Node18</title>
<g id="a_edge18_Node000008_Node000018"><a xlink:title=" ">
<path fill="none" stroke="#63b8ff" d="M739.5,-55.05C807.97,-46.67 913.54,-33.48 1014.22,-19.68"/>
<polygon fill="#63b8ff" stroke="#63b8ff" points="1014.59,-23.16 1024.02,-18.33 1013.64,-16.23 1014.59,-23.16"/>
</a>
</g>
</g>
</g>
</svg>
