<?xml version="1.0" encoding="UTF-8" standalone="no"?>
<!DOCTYPE svg PUBLIC "-//W3C//DTD SVG 1.1//EN"
 "http://www.w3.org/Graphics/SVG/1.1/DTD/svg11.dtd">
<!-- Generated by graphviz version 9.0.0 (20230911.1827)
 -->
<!-- Title: sourcecode/readoutlibs/include/readoutlibs/concepts/RawDataProcessorConcept.hpp Pages: 1 -->
<svg width="772pt" height="261pt"
 viewBox="0.00 0.00 771.50 260.50" xmlns="http://www.w3.org/2000/svg" xmlns:xlink="http://www.w3.org/1999/xlink">
<g id="graph0" class="graph" transform="scale(1 1) rotate(0) translate(4 256.5)">
<title>sourcecode/readoutlibs/include/readoutlibs/concepts/RawDataProcessorConcept.hpp</title>
<!-- Node1 -->
<g id="Node000001" class="node">
<title>Node1</title>
<g id="a_Node000001"><a xlink:title=" ">
<polygon fill="#999999" stroke="#666666" points="240.75,-252.5 83.75,-252.5 83.75,-210.75 240.75,-210.75 240.75,-252.5"/>
<text text-anchor="start" x="91.75" y="-239" font-family="Helvetica,sans-Serif" font-size="10.00">sourcecode/readoutlibs</text>
<text text-anchor="start" x="91.75" y="-227.75" font-family="Helvetica,sans-Serif" font-size="10.00">/include/readoutlibs/concepts</text>
<text text-anchor="middle" x="162.25" y="-216.5" font-family="Helvetica,sans-Serif" font-size="10.00">/RawDataProcessorConcept.hpp</text>
</a>
</g>
</g>
<!-- Node2 -->
<g id="Node000002" class="node">
<title>Node2</title>
<g id="a_Node000002"><a xlink:href="ReadoutModel_8hpp.html" target="_top" xlink:title=" ">
<polygon fill="white" stroke="#666666" points="134.5,-174.75 0,-174.75 0,-133 134.5,-133 134.5,-174.75"/>
<text text-anchor="start" x="8" y="-161.25" font-family="Helvetica,sans-Serif" font-size="10.00">sourcecode/readoutlibs</text>
<text text-anchor="start" x="8" y="-150" font-family="Helvetica,sans-Serif" font-size="10.00">/include/readoutlibs/models</text>
<text text-anchor="middle" x="67.25" y="-138.75" font-family="Helvetica,sans-Serif" font-size="10.00">/ReadoutModel.hpp</text>
</a>
</g>
</g>
<!-- Node1&#45;&gt;Node2 -->
<g id="edge1_Node000001_Node000002" class="edge">
<title>Node1&#45;&gt;Node2</title>
<g id="a_edge1_Node000001_Node000002"><a xlink:title=" ">
<path fill="none" stroke="#63b8ff" d="M127.81,-203.16C116.24,-193.94 103.54,-183.81 92.78,-175.23"/>
<polygon fill="#63b8ff" stroke="#63b8ff" points="125.61,-205.88 135.61,-209.38 129.97,-200.41 125.61,-205.88"/>
</a>
</g>
</g>
<!-- Node3 -->
<g id="Node000003" class="node">
<title>Node3</title>
<g id="a_Node000003"><a xlink:href="Readoutlibs_8cpp.html" target="_top" xlink:title=" ">
<polygon fill="white" stroke="#666666" points="125.5,-97 9,-97 9,-66.5 125.5,-66.5 125.5,-97"/>
<text text-anchor="start" x="17" y="-83.5" font-family="Helvetica,sans-Serif" font-size="10.00">sourcecode/readoutlibs</text>
<text text-anchor="middle" x="67.25" y="-72.25" font-family="Helvetica,sans-Serif" font-size="10.00">/src/Readoutlibs.cpp</text>
</a>
</g>
</g>
<!-- Node1&#45;&gt;Node3 -->
<g id="edge13_Node000001_Node000003" class="edge">
<title>Node1&#45;&gt;Node3</title>
<g id="a_edge13_Node000001_Node000003"><a xlink:title=" ">
<path fill="none" stroke="#63b8ff" d="M162.25,-199.37C160.87,-178.95 156.33,-152.56 143.25,-133 132.96,-117.62 116.2,-105.8 101.04,-97.5"/>
<polygon fill="#63b8ff" stroke="#63b8ff" points="158.74,-199.25 162.68,-209.09 165.74,-198.94 158.74,-199.25"/>
</a>
</g>
</g>
<!-- Node4 -->
<g id="Node000004" class="node">
<title>Node4</title>
<g id="a_Node000004"><a xlink:href="TaskRawDataProcessorModel_8hpp.html" target="_top" xlink:title=" ">
<polygon fill="white" stroke="#666666" points="409.75,-174.75 240.75,-174.75 240.75,-133 409.75,-133 409.75,-174.75"/>
<text text-anchor="start" x="248.75" y="-161.25" font-family="Helvetica,sans-Serif" font-size="10.00">sourcecode/readoutlibs</text>
<text text-anchor="start" x="248.75" y="-150" font-family="Helvetica,sans-Serif" font-size="10.00">/include/readoutlibs/models</text>
<text text-anchor="middle" x="325.25" y="-138.75" font-family="Helvetica,sans-Serif" font-size="10.00">/TaskRawDataProcessorModel.hpp</text>
</a>
</g>
</g>
<!-- Node1&#45;&gt;Node4 -->
<g id="edge3_Node000001_Node000004" class="edge">
<title>Node1&#45;&gt;Node4</title>
<g id="a_edge3_Node000001_Node000004"><a xlink:title=" ">
<path fill="none" stroke="#63b8ff" d="M216.08,-205.61C237.29,-195.75 261.33,-184.58 281.45,-175.23"/>
<polygon fill="#63b8ff" stroke="#63b8ff" points="214.9,-202.3 207.3,-209.69 217.85,-208.65 214.9,-202.3"/>
</a>
</g>
</g>
<!-- Node2&#45;&gt;Node3 -->
<g id="edge2_Node000002_Node000003" class="edge">
<title>Node2&#45;&gt;Node3</title>
<g id="a_edge2_Node000002_Node000003"><a xlink:title=" ">
<path fill="none" stroke="#63b8ff" d="M67.25,-121.13C67.25,-112.77 67.25,-104.15 67.25,-97.2"/>
<polygon fill="#63b8ff" stroke="#63b8ff" points="63.75,-121.08 67.25,-131.08 70.75,-121.08 63.75,-121.08"/>
</a>
</g>
</g>
<!-- Node4&#45;&gt;Node3 -->
<g id="edge6_Node000004_Node000003" class="edge">
<title>Node4&#45;&gt;Node3</title>
<g id="a_edge6_Node000004_Node000003"><a xlink:title=" ">
<path fill="none" stroke="#63b8ff" d="M239.52,-129.57C200.48,-118.96 155.45,-106.72 121.22,-97.42"/>
<polygon fill="#63b8ff" stroke="#63b8ff" points="238.6,-132.95 249.17,-132.19 240.43,-126.19 238.6,-132.95"/>
</a>
</g>
</g>
<!-- Node5 -->
<g id="Node000005" class="node">
<title>Node5</title>
<g id="a_Node000005"><a xlink:href="HSIFrameProcessor_8hpp.html" target="_top" xlink:title=" ">
<polygon fill="white" stroke="#666666" points="286.62,-97 143.88,-97 143.88,-66.5 286.62,-66.5 286.62,-97"/>
<text text-anchor="start" x="151.88" y="-83.5" font-family="Helvetica,sans-Serif" font-size="10.00">sourcecode/hsilibs</text>
<text text-anchor="middle" x="215.25" y="-72.25" font-family="Helvetica,sans-Serif" font-size="10.00">/src/HSIFrameProcessor.hpp</text>
</a>
</g>
</g>
<!-- Node4&#45;&gt;Node5 -->
<g id="edge4_Node000004_Node000005" class="edge">
<title>Node4&#45;&gt;Node5</title>
<g id="a_edge4_Node000004_Node000005"><a xlink:title=" ">
<path fill="none" stroke="#63b8ff" d="M284.04,-126.6C268.56,-116.73 251.51,-105.87 238.26,-97.42"/>
<polygon fill="#63b8ff" stroke="#63b8ff" points="281.84,-129.35 292.16,-131.78 285.61,-123.45 281.84,-129.35"/>
</a>
</g>
</g>
<!-- Node7 -->
<g id="Node000007" class="node">
<title>Node7</title>
<g id="a_Node000007"><a xlink:href="TAProcessor_8hpp.html" target="_top" xlink:title=" ">
<polygon fill="white" stroke="#666666" points="445.5,-97 305,-97 305,-66.5 445.5,-66.5 445.5,-97"/>
<text text-anchor="start" x="313" y="-83.5" font-family="Helvetica,sans-Serif" font-size="10.00">sourcecode/trigger</text>
<text text-anchor="middle" x="375.25" y="-72.25" font-family="Helvetica,sans-Serif" font-size="10.00">/src/trigger/TAProcessor.hpp</text>
</a>
</g>
</g>
<!-- Node4&#45;&gt;Node7 -->
<g id="edge7_Node000004_Node000007" class="edge">
<title>Node4&#45;&gt;Node7</title>
<g id="a_edge7_Node000004_Node000007"><a xlink:title=" ">
<path fill="none" stroke="#63b8ff" d="M346.24,-123.43C352.71,-114.37 359.54,-104.79 364.95,-97.2"/>
<polygon fill="#63b8ff" stroke="#63b8ff" points="343.55,-121.19 340.59,-131.36 349.25,-125.25 343.55,-121.19"/>
</a>
</g>
</g>
<!-- Node9 -->
<g id="Node000009" class="node">
<title>Node9</title>
<g id="a_Node000009"><a xlink:href="TCProcessor_8hpp.html" target="_top" xlink:title=" ">
<polygon fill="white" stroke="#666666" points="604.5,-97 464,-97 464,-66.5 604.5,-66.5 604.5,-97"/>
<text text-anchor="start" x="472" y="-83.5" font-family="Helvetica,sans-Serif" font-size="10.00">sourcecode/trigger</text>
<text text-anchor="middle" x="534.25" y="-72.25" font-family="Helvetica,sans-Serif" font-size="10.00">/src/trigger/TCProcessor.hpp</text>
</a>
</g>
</g>
<!-- Node4&#45;&gt;Node9 -->
<g id="edge9_Node000004_Node000009" class="edge">
<title>Node4&#45;&gt;Node9</title>
<g id="a_edge9_Node000004_Node000009"><a xlink:title=" ">
<path fill="none" stroke="#63b8ff" d="M396.53,-128.96C427.73,-118.49 463.34,-106.54 490.53,-97.42"/>
<polygon fill="#63b8ff" stroke="#63b8ff" points="395.5,-125.61 387.14,-132.11 397.73,-132.25 395.5,-125.61"/>
</a>
</g>
</g>
<!-- Node11 -->
<g id="Node000011" class="node">
<title>Node11</title>
<g id="a_Node000011"><a xlink:href="TPProcessor_8hpp.html" target="_top" xlink:title=" ">
<polygon fill="white" stroke="#666666" points="763.5,-97 623,-97 623,-66.5 763.5,-66.5 763.5,-97"/>
<text text-anchor="start" x="631" y="-83.5" font-family="Helvetica,sans-Serif" font-size="10.00">sourcecode/trigger</text>
<text text-anchor="middle" x="693.25" y="-72.25" font-family="Helvetica,sans-Serif" font-size="10.00">/src/trigger/TPProcessor.hpp</text>
</a>
</g>
</g>
<!-- Node4&#45;&gt;Node11 -->
<g id="edge11_Node000004_Node000011" class="edge">
<title>Node4&#45;&gt;Node11</title>
<g id="a_edge11_Node000004_Node000011"><a xlink:title=" ">
<path fill="none" stroke="#63b8ff" d="M421.3,-134.57C484.39,-122.55 565.52,-107.09 622.69,-96.2"/>
<polygon fill="#63b8ff" stroke="#63b8ff" points="420.79,-131.11 411.63,-136.42 422.1,-137.98 420.79,-131.11"/>
</a>
</g>
</g>
<!-- Node6 -->
<g id="Node000006" class="node">
<title>Node6</title>
<g id="a_Node000006"><a xlink:href="HSIFrameProcessor_8cpp.html" target="_top" xlink:title=" ">
<polygon fill="white" stroke="#666666" points="286.62,-30.5 143.88,-30.5 143.88,0 286.62,0 286.62,-30.5"/>
<text text-anchor="start" x="151.88" y="-17" font-family="Helvetica,sans-Serif" font-size="10.00">sourcecode/hsilibs</text>
<text text-anchor="middle" x="215.25" y="-5.75" font-family="Helvetica,sans-Serif" font-size="10.00">/src/HSIFrameProcessor.cpp</text>
</a>
</g>
</g>
<!-- Node5&#45;&gt;Node6 -->
<g id="edge5_Node000005_Node000006" class="edge">
<title>Node5&#45;&gt;Node6</title>
<g id="a_edge5_Node000005_Node000006"><a xlink:title=" ">
<path fill="none" stroke="#63b8ff" d="M215.25,-54.81C215.25,-46.64 215.25,-37.91 215.25,-30.83"/>
<polygon fill="#63b8ff" stroke="#63b8ff" points="211.75,-54.6 215.25,-64.6 218.75,-54.6 211.75,-54.6"/>
</a>
</g>
</g>
<!-- Node8 -->
<g id="Node000008" class="node">
<title>Node8</title>
<g id="a_Node000008"><a xlink:href="TAProcessor_8cpp.html" target="_top" xlink:title=" ">
<polygon fill="white" stroke="#666666" points="430.5,-30.5 320,-30.5 320,0 430.5,0 430.5,-30.5"/>
<text text-anchor="start" x="328" y="-17" font-family="Helvetica,sans-Serif" font-size="10.00">sourcecode/trigger</text>
<text text-anchor="middle" x="375.25" y="-5.75" font-family="Helvetica,sans-Serif" font-size="10.00">/src/TAProcessor.cpp</text>
</a>
</g>
</g>
<!-- Node7&#45;&gt;Node8 -->
<g id="edge8_Node000007_Node000008" class="edge">
<title>Node7&#45;&gt;Node8</title>
<g id="a_edge8_Node000007_Node000008"><a xlink:title=" ">
<path fill="none" stroke="#63b8ff" d="M375.25,-54.81C375.25,-46.64 375.25,-37.91 375.25,-30.83"/>
<polygon fill="#63b8ff" stroke="#63b8ff" points="371.75,-54.6 375.25,-64.6 378.75,-54.6 371.75,-54.6"/>
</a>
</g>
</g>
<!-- Node10 -->
<g id="Node000010" class="node">
<title>Node10</title>
<g id="a_Node000010"><a xlink:href="TCProcessor_8cpp.html" target="_top" xlink:title=" ">
<polygon fill="white" stroke="#666666" points="589.5,-30.5 479,-30.5 479,0 589.5,0 589.5,-30.5"/>
<text text-anchor="start" x="487" y="-17" font-family="Helvetica,sans-Serif" font-size="10.00">sourcecode/trigger</text>
<text text-anchor="middle" x="534.25" y="-5.75" font-family="Helvetica,sans-Serif" font-size="10.00">/src/TCProcessor.cpp</text>
</a>
</g>
</g>
<!-- Node9&#45;&gt;Node10 -->
<g id="edge10_Node000009_Node000010" class="edge">
<title>Node9&#45;&gt;Node10</title>
<g id="a_edge10_Node000009_Node000010"><a xlink:title=" ">
<path fill="none" stroke="#63b8ff" d="M534.25,-54.81C534.25,-46.64 534.25,-37.91 534.25,-30.83"/>
<polygon fill="#63b8ff" stroke="#63b8ff" points="530.75,-54.6 534.25,-64.6 537.75,-54.6 530.75,-54.6"/>
</a>
</g>
</g>
<!-- Node12 -->
<g id="Node000012" class="node">
<title>Node12</title>
<g id="a_Node000012"><a xlink:href="TPProcessor_8cpp.html" target="_top" xlink:title=" ">
<polygon fill="white" stroke="#666666" points="748.5,-30.5 638,-30.5 638,0 748.5,0 748.5,-30.5"/>
<text text-anchor="start" x="646" y="-17" font-family="Helvetica,sans-Serif" font-size="10.00">sourcecode/trigger</text>
<text text-anchor="middle" x="693.25" y="-5.75" font-family="Helvetica,sans-Serif" font-size="10.00">/src/TPProcessor.cpp</text>
</a>
</g>
</g>
<!-- Node11&#45;&gt;Node12 -->
<g id="edge12_Node000011_Node000012" class="edge">
<title>Node11&#45;&gt;Node12</title>
<g id="a_edge12_Node000011_Node000012"><a xlink:title=" ">
<path fill="none" stroke="#63b8ff" d="M693.25,-54.81C693.25,-46.64 693.25,-37.91 693.25,-30.83"/>
<polygon fill="#63b8ff" stroke="#63b8ff" points="689.75,-54.6 693.25,-64.6 696.75,-54.6 689.75,-54.6"/>
</a>
</g>
</g>
</g>
</svg>
