<?xml version="1.0" encoding="UTF-8" standalone="no"?>
<!DOCTYPE svg PUBLIC "-//W3C//DTD SVG 1.1//EN"
 "http://www.w3.org/Graphics/SVG/1.1/DTD/svg11.dtd">
<!-- Generated by graphviz version 9.0.0 (20230911.1827)
 -->
<!-- Title: sourcecode/detdataformats/include/detdataformats/wib/RawWIBTp.hpp Pages: 1 -->
<svg width="181pt" height="105pt"
 viewBox="0.00 0.00 180.50 105.00" xmlns="http://www.w3.org/2000/svg" xmlns:xlink="http://www.w3.org/1999/xlink">
<g id="graph0" class="graph" transform="scale(1 1) rotate(0) translate(4 101)">
<title>sourcecode/detdataformats/include/detdataformats/wib/RawWIBTp.hpp</title>
<!-- Node1 -->
<g id="Node000001" class="node">
<title>Node1</title>
<g id="a_Node000001"><a xlink:title=" ">
<polygon fill="#999999" stroke="#666666" points="152.25,-97 17.75,-97 17.75,-55.25 152.25,-55.25 152.25,-97"/>
<text text-anchor="start" x="25.75" y="-83.5" font-family="Helvetica,sans-Serif" font-size="10.00">sourcecode/detdataformats</text>
<text text-anchor="start" x="25.75" y="-72.25" font-family="Helvetica,sans-Serif" font-size="10.00">/include/detdataformats</text>
<text text-anchor="middle" x="85" y="-61" font-family="Helvetica,sans-Serif" font-size="10.00">/wib/RawWIBTp.hpp</text>
</a>
</g>
</g>
<!-- Node2 -->
<g id="Node000002" class="node">
<title>Node2</title>
<g id="a_Node000002"><a xlink:title=" ">
<polygon fill="#e0e0e0" stroke="#999999" points="40,-19.25 0,-19.25 0,0 40,0 40,-19.25"/>
<text text-anchor="middle" x="20" y="-5.75" font-family="Helvetica,sans-Serif" font-size="10.00">bitset</text>
</a>
</g>
</g>
<!-- Node1&#45;&gt;Node2 -->
<g id="edge1_Node000001_Node000002" class="edge">
<title>Node1&#45;&gt;Node2</title>
<g id="a_edge1_Node000001_Node000002"><a xlink:title=" ">
<path fill="none" stroke="#63b8ff" d="M64.79,-55.07C55.94,-46.29 45.66,-36.09 37.19,-27.68"/>
<polygon fill="#63b8ff" stroke="#63b8ff" points="39.78,-25.32 30.22,-20.76 34.85,-30.29 39.78,-25.32"/>
</a>
</g>
</g>
<!-- Node3 -->
<g id="Node000003" class="node">
<title>Node3</title>
<g id="a_Node000003"><a xlink:title=" ">
<polygon fill="#e0e0e0" stroke="#999999" points="111.75,-19.25 58.25,-19.25 58.25,0 111.75,0 111.75,-19.25"/>
<text text-anchor="middle" x="85" y="-5.75" font-family="Helvetica,sans-Serif" font-size="10.00">iostream</text>
</a>
</g>
</g>
<!-- Node1&#45;&gt;Node3 -->
<g id="edge2_Node000001_Node000003" class="edge">
<title>Node1&#45;&gt;Node3</title>
<g id="a_edge2_Node000001_Node000003"><a xlink:title=" ">
<path fill="none" stroke="#63b8ff" d="M85,-55.07C85,-47.4 85,-38.64 85,-30.95"/>
<polygon fill="#63b8ff" stroke="#63b8ff" points="88.5,-31.21 85,-21.21 81.5,-31.21 88.5,-31.21"/>
</a>
</g>
</g>
<!-- Node4 -->
<g id="Node000004" class="node">
<title>Node4</title>
<g id="a_Node000004"><a xlink:title=" ">
<polygon fill="#e0e0e0" stroke="#999999" points="172.5,-19.25 129.5,-19.25 129.5,0 172.5,0 172.5,-19.25"/>
<text text-anchor="middle" x="151" y="-5.75" font-family="Helvetica,sans-Serif" font-size="10.00">vector</text>
</a>
</g>
</g>
<!-- Node1&#45;&gt;Node4 -->
<g id="edge3_Node000001_Node000004" class="edge">
<title>Node1&#45;&gt;Node4</title>
<g id="a_edge3_Node000001_Node000004"><a xlink:title=" ">
<path fill="none" stroke="#63b8ff" d="M105.52,-55.07C114.51,-46.29 124.94,-36.09 133.55,-27.68"/>
<polygon fill="#63b8ff" stroke="#63b8ff" points="135.93,-30.25 140.64,-20.75 131.04,-25.24 135.93,-30.25"/>
</a>
</g>
</g>
</g>
</svg>
