<?xml version="1.0" encoding="UTF-8" standalone="no"?>
<!DOCTYPE svg PUBLIC "-//W3C//DTD SVG 1.1//EN"
 "http://www.w3.org/Graphics/SVG/1.1/DTD/svg11.dtd">
<!-- Generated by graphviz version 9.0.0 (20230911.1827)
 -->
<!-- Title: sourcecode/readoutlibs/include/readoutlibs/concepts/ReadoutConcept.hpp Pages: 1 -->
<svg width="436pt" height="160pt"
 viewBox="0.00 0.00 435.88 160.25" xmlns="http://www.w3.org/2000/svg" xmlns:xlink="http://www.w3.org/1999/xlink">
<g id="graph0" class="graph" transform="scale(1 1) rotate(0) translate(4 156.25)">
<title>sourcecode/readoutlibs/include/readoutlibs/concepts/ReadoutConcept.hpp</title>
<!-- Node1 -->
<g id="Node000001" class="node">
<title>Node1</title>
<g id="a_Node000001"><a xlink:title=" ">
<polygon fill="#999999" stroke="#666666" points="346.88,-152.25 204.12,-152.25 204.12,-110.5 346.88,-110.5 346.88,-152.25"/>
<text text-anchor="start" x="212.12" y="-138.75" font-family="Helvetica,sans-Serif" font-size="10.00">sourcecode/readoutlibs</text>
<text text-anchor="start" x="212.12" y="-127.5" font-family="Helvetica,sans-Serif" font-size="10.00">/include/readoutlibs/concepts</text>
<text text-anchor="middle" x="275.5" y="-116.25" font-family="Helvetica,sans-Serif" font-size="10.00">/ReadoutConcept.hpp</text>
</a>
</g>
</g>
<!-- Node2 -->
<g id="Node000002" class="node">
<title>Node2</title>
<g id="a_Node000002"><a xlink:href="InfoCollector_8hpp.html" target="_top" xlink:title=" ">
<polygon fill="white" stroke="#666666" points="265.88,-74.5 135.12,-74.5 135.12,-55.25 265.88,-55.25 265.88,-74.5"/>
<text text-anchor="middle" x="200.5" y="-61" font-family="Helvetica,sans-Serif" font-size="10.00">opmonlib/InfoCollector.hpp</text>
</a>
</g>
</g>
<!-- Node1&#45;&gt;Node2 -->
<g id="edge1_Node000001_Node000002" class="edge">
<title>Node1&#45;&gt;Node2</title>
<g id="a_edge1_Node000001_Node000002"><a xlink:title=" ">
<path fill="none" stroke="#63b8ff" d="M252.18,-110.32C241.75,-101.35 229.61,-90.91 219.72,-82.4"/>
<polygon fill="#63b8ff" stroke="#63b8ff" points="222.06,-79.8 212.19,-75.93 217.49,-85.11 222.06,-79.8"/>
</a>
</g>
</g>
<!-- Node8 -->
<g id="Node000008" class="node">
<title>Node8</title>
<g id="a_Node000008"><a xlink:title=" ">
<polygon fill="#e0e0e0" stroke="#999999" points="417,-74.5 284,-74.5 284,-55.25 417,-55.25 417,-74.5"/>
<text text-anchor="middle" x="350.5" y="-61" font-family="Helvetica,sans-Serif" font-size="10.00">appdal/ReadoutModule.hpp</text>
</a>
</g>
</g>
<!-- Node1&#45;&gt;Node8 -->
<g id="edge7_Node000001_Node000008" class="edge">
<title>Node1&#45;&gt;Node8</title>
<g id="a_edge7_Node000001_Node000008"><a xlink:title=" ">
<path fill="none" stroke="#63b8ff" d="M298.82,-110.32C309.25,-101.35 321.39,-90.91 331.28,-82.4"/>
<polygon fill="#63b8ff" stroke="#63b8ff" points="333.51,-85.11 338.81,-75.93 328.94,-79.8 333.51,-85.11"/>
</a>
</g>
</g>
<!-- Node3 -->
<g id="Node000003" class="node">
<title>Node3</title>
<g id="a_Node000003"><a xlink:title=" ">
<polygon fill="#e0e0e0" stroke="#999999" points="97,-19.25 0,-19.25 0,0 97,0 97,-19.25"/>
<text text-anchor="middle" x="48.5" y="-5.75" font-family="Helvetica,sans-Serif" font-size="10.00">nlohmann/json.hpp</text>
</a>
</g>
</g>
<!-- Node2&#45;&gt;Node3 -->
<g id="edge2_Node000002_Node000003" class="edge">
<title>Node2&#45;&gt;Node3</title>
<g id="a_edge2_Node000002_Node000003"><a xlink:title=" ">
<path fill="none" stroke="#63b8ff" d="M174.72,-54.84C150.15,-46.24 112.91,-33.19 85.24,-23.5"/>
<polygon fill="#63b8ff" stroke="#63b8ff" points="86.43,-20.21 75.84,-20.2 84.12,-26.81 86.43,-20.21"/>
</a>
</g>
</g>
<!-- Node4 -->
<g id="Node000004" class="node">
<title>Node4</title>
<g id="a_Node000004"><a xlink:title=" ">
<polygon fill="#e0e0e0" stroke="#999999" points="155.5,-19.25 115.5,-19.25 115.5,0 155.5,0 155.5,-19.25"/>
<text text-anchor="middle" x="135.5" y="-5.75" font-family="Helvetica,sans-Serif" font-size="10.00">ctime</text>
</a>
</g>
</g>
<!-- Node2&#45;&gt;Node4 -->
<g id="edge3_Node000002_Node000004" class="edge">
<title>Node2&#45;&gt;Node4</title>
<g id="a_edge3_Node000002_Node000004"><a xlink:title=" ">
<path fill="none" stroke="#63b8ff" d="M189.47,-54.84C180.08,-47.15 166.35,-35.9 155.09,-26.68"/>
<polygon fill="#63b8ff" stroke="#63b8ff" points="157.49,-24.11 147.53,-20.48 153.05,-29.53 157.49,-24.11"/>
</a>
</g>
</g>
<!-- Node5 -->
<g id="Node000005" class="node">
<title>Node5</title>
<g id="a_Node000005"><a xlink:title=" ">
<polygon fill="#e0e0e0" stroke="#999999" points="227.25,-19.25 173.75,-19.25 173.75,0 227.25,0 227.25,-19.25"/>
<text text-anchor="middle" x="200.5" y="-5.75" font-family="Helvetica,sans-Serif" font-size="10.00">iostream</text>
</a>
</g>
</g>
<!-- Node2&#45;&gt;Node5 -->
<g id="edge4_Node000002_Node000005" class="edge">
<title>Node2&#45;&gt;Node5</title>
<g id="a_edge4_Node000002_Node000005"><a xlink:title=" ">
<path fill="none" stroke="#63b8ff" d="M200.5,-55.08C200.5,-48.57 200.5,-39.42 200.5,-31.12"/>
<polygon fill="#63b8ff" stroke="#63b8ff" points="204,-31.12 200.5,-21.12 197,-31.12 204,-31.12"/>
</a>
</g>
</g>
<!-- Node6 -->
<g id="Node000006" class="node">
<title>Node6</title>
<g id="a_Node000006"><a xlink:title=" ">
<polygon fill="#e0e0e0" stroke="#999999" points="285.5,-19.25 245.5,-19.25 245.5,0 285.5,0 285.5,-19.25"/>
<text text-anchor="middle" x="265.5" y="-5.75" font-family="Helvetica,sans-Serif" font-size="10.00">string</text>
</a>
</g>
</g>
<!-- Node2&#45;&gt;Node6 -->
<g id="edge5_Node000002_Node000006" class="edge">
<title>Node2&#45;&gt;Node6</title>
<g id="a_edge5_Node000002_Node000006"><a xlink:title=" ">
<path fill="none" stroke="#63b8ff" d="M211.53,-54.84C220.92,-47.15 234.65,-35.9 245.91,-26.68"/>
<polygon fill="#63b8ff" stroke="#63b8ff" points="247.95,-29.53 253.47,-20.48 243.51,-24.11 247.95,-29.53"/>
</a>
</g>
</g>
<!-- Node7 -->
<g id="Node000007" class="node">
<title>Node7</title>
<g id="a_Node000007"><a xlink:href="JSONTags_8hpp.html" target="_top" xlink:title=" ">
<polygon fill="white" stroke="#666666" points="427.88,-19.25 303.12,-19.25 303.12,0 427.88,0 427.88,-19.25"/>
<text text-anchor="middle" x="365.5" y="-5.75" font-family="Helvetica,sans-Serif" font-size="10.00">opmonlib/JSONTags.hpp</text>
</a>
</g>
</g>
<!-- Node2&#45;&gt;Node7 -->
<g id="edge6_Node000002_Node000007" class="edge">
<title>Node2&#45;&gt;Node7</title>
<g id="a_edge6_Node000002_Node000007"><a xlink:title=" ">
<path fill="none" stroke="#63b8ff" d="M228.49,-54.84C255.51,-46.12 296.66,-32.84 326.81,-23.11"/>
<polygon fill="#63b8ff" stroke="#63b8ff" points="327.49,-26.57 335.93,-20.17 325.34,-19.91 327.49,-26.57"/>
</a>
</g>
</g>
</g>
</svg>
