<?xml version="1.0" encoding="UTF-8" standalone="no"?>
<!DOCTYPE svg PUBLIC "-//W3C//DTD SVG 1.1//EN"
 "http://www.w3.org/Graphics/SVG/1.1/DTD/svg11.dtd">
<!-- Generated by graphviz version 9.0.0 (20230911.1827)
 -->
<!-- Title: sourcecode/readoutlibs/include/readoutlibs/ReadoutLogging.hpp Pages: 1 -->
<svg width="2271pt" height="416pt"
 viewBox="0.00 0.00 2271.38 416.00" xmlns="http://www.w3.org/2000/svg" xmlns:xlink="http://www.w3.org/1999/xlink">
<g id="graph0" class="graph" transform="scale(1 1) rotate(0) translate(4 412)">
<title>sourcecode/readoutlibs/include/readoutlibs/ReadoutLogging.hpp</title>
<!-- Node1 -->
<g id="Node000001" class="node">
<title>Node1</title>
<g id="a_Node000001"><a xlink:title=" ">
<polygon fill="#999999" stroke="#666666" points="1251.75,-408 1112.75,-408 1112.75,-366.25 1251.75,-366.25 1251.75,-408"/>
<text text-anchor="start" x="1120.75" y="-394.5" font-family="Helvetica,sans-Serif" font-size="10.00">sourcecode/readoutlibs</text>
<text text-anchor="start" x="1120.75" y="-383.25" font-family="Helvetica,sans-Serif" font-size="10.00">/include/readoutlibs/Readout</text>
<text text-anchor="middle" x="1182.25" y="-372" font-family="Helvetica,sans-Serif" font-size="10.00">Logging.hpp</text>
</a>
</g>
</g>
<!-- Node2 -->
<g id="Node000002" class="node">
<title>Node2</title>
<g id="a_Node000002"><a xlink:href="HSIFrameProcessor_8hpp.html" target="_top" xlink:title=" ">
<polygon fill="white" stroke="#666666" points="1303.62,-246.88 1160.88,-246.88 1160.88,-216.38 1303.62,-216.38 1303.62,-246.88"/>
<text text-anchor="start" x="1168.88" y="-233.38" font-family="Helvetica,sans-Serif" font-size="10.00">sourcecode/hsilibs</text>
<text text-anchor="middle" x="1232.25" y="-222.12" font-family="Helvetica,sans-Serif" font-size="10.00">/src/HSIFrameProcessor.hpp</text>
</a>
</g>
</g>
<!-- Node1&#45;&gt;Node2 -->
<g id="edge1_Node000001_Node000002" class="edge">
<title>Node1&#45;&gt;Node2</title>
<g id="a_edge1_Node000001_Node000002"><a xlink:title=" ">
<path fill="none" stroke="#63b8ff" d="M1192.31,-355.25C1203,-322.41 1219.47,-271.87 1227.51,-247.19"/>
<polygon fill="#63b8ff" stroke="#63b8ff" points="1189.02,-354.03 1189.26,-364.62 1195.68,-356.19 1189.02,-354.03"/>
</a>
</g>
</g>
<!-- Node4 -->
<g id="Node000004" class="node">
<title>Node4</title>
<g id="a_Node000004"><a xlink:href="BinarySearchQueueModel_8hpp.html" target="_top" xlink:title=" ">
<polygon fill="white" stroke="#666666" points="335,-330.25 185.5,-330.25 185.5,-288.5 335,-288.5 335,-330.25"/>
<text text-anchor="start" x="193.5" y="-316.75" font-family="Helvetica,sans-Serif" font-size="10.00">sourcecode/readoutlibs</text>
<text text-anchor="start" x="193.5" y="-305.5" font-family="Helvetica,sans-Serif" font-size="10.00">/include/readoutlibs/models</text>
<text text-anchor="middle" x="260.25" y="-294.25" font-family="Helvetica,sans-Serif" font-size="10.00">/BinarySearchQueueModel.hpp</text>
</a>
</g>
</g>
<!-- Node1&#45;&gt;Node4 -->
<g id="edge3_Node000001_Node000004" class="edge">
<title>Node1&#45;&gt;Node4</title>
<g id="a_edge3_Node000001_Node000004"><a xlink:title=" ">
<path fill="none" stroke="#63b8ff" d="M1101.2,-382.35C958.45,-375.26 652.98,-358.1 396.25,-330.25 376.44,-328.1 355.09,-325.24 335.3,-322.36"/>
<polygon fill="#63b8ff" stroke="#63b8ff" points="1100.76,-385.83 1110.92,-382.83 1101.11,-378.84 1100.76,-385.83"/>
</a>
</g>
</g>
<!-- Node5 -->
<g id="Node000005" class="node">
<title>Node5</title>
<g id="a_Node000005"><a xlink:href="FixedRateQueueModel_8hpp.html" target="_top" xlink:title=" ">
<polygon fill="white" stroke="#666666" points="327.88,-252.5 192.62,-252.5 192.62,-210.75 327.88,-210.75 327.88,-252.5"/>
<text text-anchor="start" x="200.62" y="-239" font-family="Helvetica,sans-Serif" font-size="10.00">sourcecode/readoutlibs</text>
<text text-anchor="start" x="200.62" y="-227.75" font-family="Helvetica,sans-Serif" font-size="10.00">/include/readoutlibs/models</text>
<text text-anchor="middle" x="260.25" y="-216.5" font-family="Helvetica,sans-Serif" font-size="10.00">/FixedRateQueueModel.hpp</text>
</a>
</g>
</g>
<!-- Node1&#45;&gt;Node5 -->
<g id="edge17_Node000001_Node000005" class="edge">
<title>Node1&#45;&gt;Node5</title>
<g id="a_edge17_Node000001_Node000005"><a xlink:title=" ">
<path fill="none" stroke="#63b8ff" d="M1101.14,-383.71C938.57,-378.23 578.22,-362.74 459.25,-330.25 396.51,-313.12 329.88,-276.06 291.84,-252.85"/>
<polygon fill="#63b8ff" stroke="#63b8ff" points="1100.88,-387.2 1110.99,-384.03 1101.11,-380.2 1100.88,-387.2"/>
</a>
</g>
</g>
<!-- Node7 -->
<g id="Node000007" class="node">
<title>Node7</title>
<g id="a_Node000007"><a xlink:href="DefaultRequestHandlerModel_8hpp.html" target="_top" xlink:title=" ">
<polygon fill="white" stroke="#666666" points="729.12,-252.5 565.38,-252.5 565.38,-210.75 729.12,-210.75 729.12,-252.5"/>
<text text-anchor="start" x="573.38" y="-239" font-family="Helvetica,sans-Serif" font-size="10.00">sourcecode/readoutlibs</text>
<text text-anchor="start" x="573.38" y="-227.75" font-family="Helvetica,sans-Serif" font-size="10.00">/include/readoutlibs/models</text>
<text text-anchor="middle" x="647.25" y="-216.5" font-family="Helvetica,sans-Serif" font-size="10.00">/DefaultRequestHandlerModel.hpp</text>
</a>
</g>
</g>
<!-- Node1&#45;&gt;Node7 -->
<g id="edge7_Node000001_Node000007" class="edge">
<title>Node1&#45;&gt;Node7</title>
<g id="a_edge7_Node000001_Node000007"><a xlink:title=" ">
<path fill="none" stroke="#63b8ff" d="M1101.24,-383.89C1022.63,-379.5 901.06,-366.77 802.25,-330.25 752.28,-311.78 701.35,-275.69 672.1,-252.94"/>
<polygon fill="#63b8ff" stroke="#63b8ff" points="1100.84,-387.37 1111.01,-384.4 1101.2,-380.38 1100.84,-387.37"/>
</a>
</g>
</g>
<!-- Node8 -->
<g id="Node000008" class="node">
<title>Node8</title>
<g id="a_Node000008"><a xlink:href="DefaultSkipListRequestHandler_8hpp.html" target="_top" xlink:title=" ">
<polygon fill="white" stroke="#666666" points="1210,-174.75 1036.5,-174.75 1036.5,-133 1210,-133 1210,-174.75"/>
<text text-anchor="start" x="1044.5" y="-161.25" font-family="Helvetica,sans-Serif" font-size="10.00">sourcecode/readoutlibs</text>
<text text-anchor="start" x="1044.5" y="-150" font-family="Helvetica,sans-Serif" font-size="10.00">/include/readoutlibs/models</text>
<text text-anchor="middle" x="1123.25" y="-138.75" font-family="Helvetica,sans-Serif" font-size="10.00">/DefaultSkipListRequestHandler.hpp</text>
</a>
</g>
</g>
<!-- Node1&#45;&gt;Node8 -->
<g id="edge16_Node000001_Node000008" class="edge">
<title>Node1&#45;&gt;Node8</title>
<g id="a_edge16_Node000001_Node000008"><a xlink:title=" ">
<path fill="none" stroke="#63b8ff" d="M1174.32,-355.03C1162.03,-306.88 1138.75,-215.61 1128.41,-175.11"/>
<polygon fill="#63b8ff" stroke="#63b8ff" points="1170.88,-355.72 1176.74,-364.54 1177.66,-353.99 1170.88,-355.72"/>
</a>
</g>
</g>
<!-- Node9 -->
<g id="Node000009" class="node">
<title>Node9</title>
<g id="a_Node000009"><a xlink:href="TPRequestHandler_8hpp.html" target="_top" xlink:title=" ">
<polygon fill="white" stroke="#666666" points="1623.25,-97 1457.25,-97 1457.25,-66.5 1623.25,-66.5 1623.25,-97"/>
<text text-anchor="start" x="1465.25" y="-83.5" font-family="Helvetica,sans-Serif" font-size="10.00">sourcecode/trigger</text>
<text text-anchor="middle" x="1540.25" y="-72.25" font-family="Helvetica,sans-Serif" font-size="10.00">/src/trigger/TPRequestHandler.hpp</text>
</a>
</g>
</g>
<!-- Node1&#45;&gt;Node9 -->
<g id="edge48_Node000001_Node000009" class="edge">
<title>Node1&#45;&gt;Node9</title>
<g id="a_edge48_Node000001_Node000009"><a xlink:title=" ">
<path fill="none" stroke="#63b8ff" d="M1263.16,-384.18C1409.29,-379.79 1711.16,-366.53 1809.25,-330.25 1865.06,-309.61 1891,-305.4 1918.25,-252.5 1928.34,-232.92 1921.66,-142.97 1912.25,-133 1873.99,-92.49 1720.87,-83.68 1623.4,-82.29"/>
<polygon fill="#63b8ff" stroke="#63b8ff" points="1263.47,-380.67 1253.58,-384.46 1263.68,-387.66 1263.47,-380.67"/>
</a>
</g>
</g>
<!-- Node13 -->
<g id="Node000013" class="node">
<title>Node13</title>
<g id="a_Node000013"><a xlink:href="ReadoutModel_8hpp.html" target="_top" xlink:title=" ">
<polygon fill="white" stroke="#666666" points="134.5,-330.25 0,-330.25 0,-288.5 134.5,-288.5 134.5,-330.25"/>
<text text-anchor="start" x="8" y="-316.75" font-family="Helvetica,sans-Serif" font-size="10.00">sourcecode/readoutlibs</text>
<text text-anchor="start" x="8" y="-305.5" font-family="Helvetica,sans-Serif" font-size="10.00">/include/readoutlibs/models</text>
<text text-anchor="middle" x="67.25" y="-294.25" font-family="Helvetica,sans-Serif" font-size="10.00">/ReadoutModel.hpp</text>
</a>
</g>
</g>
<!-- Node1&#45;&gt;Node13 -->
<g id="edge18_Node000001_Node000013" class="edge">
<title>Node1&#45;&gt;Node13</title>
<g id="a_edge18_Node000001_Node000013"><a xlink:title=" ">
<path fill="none" stroke="#63b8ff" d="M1101.04,-385.05C929.61,-382.02 518.41,-370.79 176.25,-330.25 162.78,-328.65 148.47,-326.43 134.79,-324.05"/>
<polygon fill="#63b8ff" stroke="#63b8ff" points="1100.9,-388.55 1110.96,-385.22 1101.02,-381.55 1100.9,-388.55"/>
</a>
</g>
</g>
<!-- Node14 -->
<g id="Node000014" class="node">
<title>Node14</title>
<g id="a_Node000014"><a xlink:href="SkipListLatencyBufferModel_8hpp.html" target="_top" xlink:title=" ">
<polygon fill="white" stroke="#666666" points="1104.88,-252.5 945.62,-252.5 945.62,-210.75 1104.88,-210.75 1104.88,-252.5"/>
<text text-anchor="start" x="953.62" y="-239" font-family="Helvetica,sans-Serif" font-size="10.00">sourcecode/readoutlibs</text>
<text text-anchor="start" x="953.62" y="-227.75" font-family="Helvetica,sans-Serif" font-size="10.00">/include/readoutlibs/models</text>
<text text-anchor="middle" x="1025.25" y="-216.5" font-family="Helvetica,sans-Serif" font-size="10.00">/SkipListLatencyBufferModel.hpp</text>
</a>
</g>
</g>
<!-- Node1&#45;&gt;Node14 -->
<g id="edge20_Node000001_Node000014" class="edge">
<title>Node1&#45;&gt;Node14</title>
<g id="a_edge20_Node000001_Node000014"><a xlink:title=" ">
<path fill="none" stroke="#63b8ff" d="M1150.02,-358.41C1140.01,-349.57 1129.04,-339.65 1119.25,-330.25 1092.26,-304.34 1062.54,-272.96 1043.89,-252.89"/>
<polygon fill="#63b8ff" stroke="#63b8ff" points="1147.55,-360.9 1157.38,-364.86 1152.16,-355.64 1147.55,-360.9"/>
</a>
</g>
</g>
<!-- Node15 -->
<g id="Node000015" class="node">
<title>Node15</title>
<g id="a_Node000015"><a xlink:href="TaskRawDataProcessorModel_8hpp.html" target="_top" xlink:title=" ">
<polygon fill="white" stroke="#666666" points="1570.75,-330.25 1401.75,-330.25 1401.75,-288.5 1570.75,-288.5 1570.75,-330.25"/>
<text text-anchor="start" x="1409.75" y="-316.75" font-family="Helvetica,sans-Serif" font-size="10.00">sourcecode/readoutlibs</text>
<text text-anchor="start" x="1409.75" y="-305.5" font-family="Helvetica,sans-Serif" font-size="10.00">/include/readoutlibs/models</text>
<text text-anchor="middle" x="1486.25" y="-294.25" font-family="Helvetica,sans-Serif" font-size="10.00">/TaskRawDataProcessorModel.hpp</text>
</a>
</g>
</g>
<!-- Node1&#45;&gt;Node15 -->
<g id="edge23_Node000001_Node000015" class="edge">
<title>Node1&#45;&gt;Node15</title>
<g id="a_edge23_Node000001_Node000015"><a xlink:title=" ">
<path fill="none" stroke="#63b8ff" d="M1262.9,-366.03C1306.72,-355.11 1360.76,-341.64 1404.71,-330.69"/>
<polygon fill="#63b8ff" stroke="#63b8ff" points="1262.32,-362.57 1253.46,-368.38 1264.01,-369.36 1262.32,-362.57"/>
</a>
</g>
</g>
<!-- Node17 -->
<g id="Node000017" class="node">
<title>Node17</title>
<g id="a_Node000017"><a xlink:href="TAProcessor_8cpp.html" target="_top" xlink:title=" ">
<polygon fill="white" stroke="#666666" points="1499.5,-169.12 1389,-169.12 1389,-138.62 1499.5,-138.62 1499.5,-169.12"/>
<text text-anchor="start" x="1397" y="-155.62" font-family="Helvetica,sans-Serif" font-size="10.00">sourcecode/trigger</text>
<text text-anchor="middle" x="1444.25" y="-144.38" font-family="Helvetica,sans-Serif" font-size="10.00">/src/TAProcessor.cpp</text>
</a>
</g>
</g>
<!-- Node1&#45;&gt;Node17 -->
<g id="edge45_Node000001_Node000017" class="edge">
<title>Node1&#45;&gt;Node17</title>
<g id="a_edge45_Node000001_Node000017"><a xlink:title=" ">
<path fill="none" stroke="#63b8ff" d="M1210.37,-357.77C1236.89,-330.9 1277.62,-289.3 1312.25,-252.5 1329.44,-234.23 1330.81,-226.61 1350.25,-210.75 1370.26,-194.43 1395.53,-179.68 1414.84,-169.44"/>
<polygon fill="#63b8ff" stroke="#63b8ff" points="1207.89,-355.3 1203.35,-364.88 1212.87,-360.22 1207.89,-355.3"/>
</a>
</g>
</g>
<!-- Node19 -->
<g id="Node000019" class="node">
<title>Node19</title>
<g id="a_Node000019"><a xlink:href="TCProcessor_8cpp.html" target="_top" xlink:title=" ">
<polygon fill="white" stroke="#666666" points="1729.5,-169.12 1619,-169.12 1619,-138.62 1729.5,-138.62 1729.5,-169.12"/>
<text text-anchor="start" x="1627" y="-155.62" font-family="Helvetica,sans-Serif" font-size="10.00">sourcecode/trigger</text>
<text text-anchor="middle" x="1674.25" y="-144.38" font-family="Helvetica,sans-Serif" font-size="10.00">/src/TCProcessor.cpp</text>
</a>
</g>
</g>
<!-- Node1&#45;&gt;Node19 -->
<g id="edge46_Node000001_Node000019" class="edge">
<title>Node1&#45;&gt;Node19</title>
<g id="a_edge46_Node000001_Node000019"><a xlink:title=" ">
<path fill="none" stroke="#63b8ff" d="M1263.62,-384.48C1345.58,-380.58 1474.53,-368.25 1579.25,-330.25 1640.75,-307.93 1672.47,-309.69 1704.25,-252.5 1719.41,-225.22 1699.54,-189.31 1685.65,-169.53"/>
<polygon fill="#63b8ff" stroke="#63b8ff" points="1263.48,-380.98 1253.64,-384.92 1263.78,-387.97 1263.48,-380.98"/>
</a>
</g>
</g>
<!-- Node21 -->
<g id="Node000021" class="node">
<title>Node21</title>
<g id="a_Node000021"><a xlink:href="TPProcessor_8cpp.html" target="_top" xlink:title=" ">
<polygon fill="white" stroke="#666666" points="1903.5,-169.12 1793,-169.12 1793,-138.62 1903.5,-138.62 1903.5,-169.12"/>
<text text-anchor="start" x="1801" y="-155.62" font-family="Helvetica,sans-Serif" font-size="10.00">sourcecode/trigger</text>
<text text-anchor="middle" x="1848.25" y="-144.38" font-family="Helvetica,sans-Serif" font-size="10.00">/src/TPProcessor.cpp</text>
</a>
</g>
</g>
<!-- Node1&#45;&gt;Node21 -->
<g id="edge47_Node000001_Node000021" class="edge">
<title>Node1&#45;&gt;Node21</title>
<g id="a_edge47_Node000001_Node000021"><a xlink:title=" ">
<path fill="none" stroke="#63b8ff" d="M1263.44,-384.21C1435.08,-378.2 1825.22,-353.48 1900.25,-252.5 1920.41,-225.37 1888.27,-189.4 1866.22,-169.57"/>
<polygon fill="#63b8ff" stroke="#63b8ff" points="1263.35,-380.71 1253.47,-384.55 1263.59,-387.71 1263.35,-380.71"/>
</a>
</g>
</g>
<!-- Node22 -->
<g id="Node000022" class="node">
<title>Node22</title>
<g id="a_Node000022"><a xlink:href="BufferedFileReader_8hpp.html" target="_top" xlink:title=" ">
<polygon fill="white" stroke="#666666" points="2106.75,-330.25 1985.75,-330.25 1985.75,-288.5 2106.75,-288.5 2106.75,-330.25"/>
<text text-anchor="start" x="1993.75" y="-316.75" font-family="Helvetica,sans-Serif" font-size="10.00">sourcecode/readoutlibs</text>
<text text-anchor="start" x="1993.75" y="-305.5" font-family="Helvetica,sans-Serif" font-size="10.00">/include/readoutlibs/utils</text>
<text text-anchor="middle" x="2046.25" y="-294.25" font-family="Helvetica,sans-Serif" font-size="10.00">/BufferedFileReader.hpp</text>
</a>
</g>
</g>
<!-- Node1&#45;&gt;Node22 -->
<g id="edge32_Node000001_Node000022" class="edge">
<title>Node1&#45;&gt;Node22</title>
<g id="a_edge32_Node000001_Node000022"><a xlink:title=" ">
<path fill="none" stroke="#63b8ff" d="M1263.47,-385.4C1407.17,-383 1715.22,-372.85 1971.25,-330.25 1975.9,-329.48 1980.68,-328.54 1985.47,-327.51"/>
<polygon fill="#63b8ff" stroke="#63b8ff" points="1263.62,-381.9 1253.67,-385.55 1263.73,-388.9 1263.62,-381.9"/>
</a>
</g>
</g>
<!-- Node23 -->
<g id="Node000023" class="node">
<title>Node23</title>
<g id="a_Node000023"><a xlink:href="BufferedFileWriter_8hpp.html" target="_top" xlink:title=" ">
<polygon fill="white" stroke="#666666" points="932.75,-330.25 811.75,-330.25 811.75,-288.5 932.75,-288.5 932.75,-330.25"/>
<text text-anchor="start" x="819.75" y="-316.75" font-family="Helvetica,sans-Serif" font-size="10.00">sourcecode/readoutlibs</text>
<text text-anchor="start" x="819.75" y="-305.5" font-family="Helvetica,sans-Serif" font-size="10.00">/include/readoutlibs/utils</text>
<text text-anchor="middle" x="872.25" y="-294.25" font-family="Helvetica,sans-Serif" font-size="10.00">/BufferedFileWriter.hpp</text>
</a>
</g>
</g>
<!-- Node1&#45;&gt;Node23 -->
<g id="edge33_Node000001_Node000023" class="edge">
<title>Node1&#45;&gt;Node23</title>
<g id="a_edge33_Node000001_Node000023"><a xlink:title=" ">
<path fill="none" stroke="#63b8ff" d="M1101.3,-366.34C1048.66,-353.48 981.12,-336.98 933.05,-325.23"/>
<polygon fill="#63b8ff" stroke="#63b8ff" points="1100.28,-369.7 1110.82,-368.67 1101.94,-362.9 1100.28,-369.7"/>
</a>
</g>
</g>
<!-- Node26 -->
<g id="Node000026" class="node">
<title>Node26</title>
<g id="a_Node000026"><a xlink:href="FileSourceBuffer_8hpp.html" target="_top" xlink:title=" ">
<polygon fill="white" stroke="#666666" points="589.75,-330.25 468.75,-330.25 468.75,-288.5 589.75,-288.5 589.75,-330.25"/>
<text text-anchor="start" x="476.75" y="-316.75" font-family="Helvetica,sans-Serif" font-size="10.00">sourcecode/readoutlibs</text>
<text text-anchor="start" x="476.75" y="-305.5" font-family="Helvetica,sans-Serif" font-size="10.00">/include/readoutlibs/utils</text>
<text text-anchor="middle" x="529.25" y="-294.25" font-family="Helvetica,sans-Serif" font-size="10.00">/FileSourceBuffer.hpp</text>
</a>
</g>
</g>
<!-- Node1&#45;&gt;Node26 -->
<g id="edge40_Node000001_Node000026" class="edge">
<title>Node1&#45;&gt;Node26</title>
<g id="a_edge40_Node000001_Node000026"><a xlink:title=" ">
<path fill="none" stroke="#63b8ff" d="M1101.47,-377.68C1002.05,-367.17 828.11,-348.38 679.25,-330.25 649.91,-326.68 617.39,-322.41 590.15,-318.74"/>
<polygon fill="#63b8ff" stroke="#63b8ff" points="1100.81,-381.13 1111.12,-378.7 1101.54,-374.17 1100.81,-381.13"/>
</a>
</g>
</g>
<!-- Node29 -->
<g id="Node000029" class="node">
<title>Node29</title>
<g id="a_Node000029"><a xlink:href="DataLinkHandlerBase_8hpp.html" target="_top" xlink:title=" ">
<polygon fill="white" stroke="#666666" points="2263.38,-330.25 2125.12,-330.25 2125.12,-288.5 2263.38,-288.5 2263.38,-330.25"/>
<text text-anchor="start" x="2133.12" y="-316.75" font-family="Helvetica,sans-Serif" font-size="10.00">sourcecode/readoutmodules</text>
<text text-anchor="start" x="2133.12" y="-305.5" font-family="Helvetica,sans-Serif" font-size="10.00">/include/readoutmodules</text>
<text text-anchor="middle" x="2194.25" y="-294.25" font-family="Helvetica,sans-Serif" font-size="10.00">/DataLinkHandlerBase.hpp</text>
</a>
</g>
</g>
<!-- Node1&#45;&gt;Node29 -->
<g id="edge44_Node000001_Node000029" class="edge">
<title>Node1&#45;&gt;Node29</title>
<g id="a_edge44_Node000001_Node000029"><a xlink:title=" ">
<path fill="none" stroke="#63b8ff" d="M1263.4,-386.34C1426.03,-385.65 1803.01,-378.44 2115.25,-330.25 2118.46,-329.75 2121.74,-329.19 2125.04,-328.56"/>
<polygon fill="#63b8ff" stroke="#63b8ff" points="1263.57,-382.84 1253.58,-386.37 1263.59,-389.84 1263.57,-382.84"/>
</a>
</g>
</g>
<!-- Node3 -->
<g id="Node000003" class="node">
<title>Node3</title>
<g id="a_Node000003"><a xlink:href="HSIFrameProcessor_8cpp.html" target="_top" xlink:title=" ">
<polygon fill="white" stroke="#666666" points="1370.62,-169.12 1227.88,-169.12 1227.88,-138.62 1370.62,-138.62 1370.62,-169.12"/>
<text text-anchor="start" x="1235.88" y="-155.62" font-family="Helvetica,sans-Serif" font-size="10.00">sourcecode/hsilibs</text>
<text text-anchor="middle" x="1299.25" y="-144.38" font-family="Helvetica,sans-Serif" font-size="10.00">/src/HSIFrameProcessor.cpp</text>
</a>
</g>
</g>
<!-- Node2&#45;&gt;Node3 -->
<g id="edge2_Node000002_Node000003" class="edge">
<title>Node2&#45;&gt;Node3</title>
<g id="a_edge2_Node000002_Node000003"><a xlink:title=" ">
<path fill="none" stroke="#63b8ff" d="M1252.68,-207.53C1263.65,-195.13 1276.83,-180.22 1286.37,-169.44"/>
<polygon fill="#63b8ff" stroke="#63b8ff" points="1250.17,-205.08 1246.17,-214.89 1255.42,-209.71 1250.17,-205.08"/>
</a>
</g>
</g>
<!-- Node4&#45;&gt;Node5 -->
<g id="edge4_Node000004_Node000005" class="edge">
<title>Node4&#45;&gt;Node5</title>
<g id="a_edge4_Node000004_Node000005"><a xlink:title=" ">
<path fill="none" stroke="#63b8ff" d="M260.25,-276.75C260.25,-268.71 260.25,-260.29 260.25,-252.98"/>
<polygon fill="#63b8ff" stroke="#63b8ff" points="256.75,-276.56 260.25,-286.56 263.75,-276.56 256.75,-276.56"/>
</a>
</g>
</g>
<!-- Node6 -->
<g id="Node000006" class="node">
<title>Node6</title>
<g id="a_Node000006"><a xlink:href="Readoutlibs_8cpp.html" target="_top" xlink:title=" ">
<polygon fill="white" stroke="#666666" points="511.5,-97 395,-97 395,-66.5 511.5,-66.5 511.5,-97"/>
<text text-anchor="start" x="403" y="-83.5" font-family="Helvetica,sans-Serif" font-size="10.00">sourcecode/readoutlibs</text>
<text text-anchor="middle" x="453.25" y="-72.25" font-family="Helvetica,sans-Serif" font-size="10.00">/src/Readoutlibs.cpp</text>
</a>
</g>
</g>
<!-- Node4&#45;&gt;Node6 -->
<g id="edge6_Node000004_Node000006" class="edge">
<title>Node4&#45;&gt;Node6</title>
<g id="a_edge6_Node000004_Node000006"><a xlink:title=" ">
<path fill="none" stroke="#63b8ff" d="M219.68,-281.66C170.6,-246.12 99.45,-182.08 141.25,-133 173.14,-95.57 313.33,-85.92 394.53,-83.5"/>
<polygon fill="#63b8ff" stroke="#63b8ff" points="217.44,-284.36 227.63,-287.29 221.49,-278.65 217.44,-284.36"/>
</a>
</g>
</g>
<!-- Node5&#45;&gt;Node6 -->
<g id="edge5_Node000005_Node000006" class="edge">
<title>Node5&#45;&gt;Node6</title>
<g id="a_edge5_Node000005_Node000006"><a xlink:title=" ">
<path fill="none" stroke="#63b8ff" d="M184.77,-204.78C172.21,-197.08 160.82,-187.25 153.25,-174.75 143.63,-158.88 141.26,-147.16 153.25,-133 183.57,-97.18 316.42,-86.87 394.8,-83.92"/>
<polygon fill="#63b8ff" stroke="#63b8ff" points="182.8,-207.69 193.24,-209.51 186.22,-201.58 182.8,-207.69"/>
</a>
</g>
</g>
<!-- Node7&#45;&gt;Node6 -->
<g id="edge15_Node000007_Node000006" class="edge">
<title>Node7&#45;&gt;Node6</title>
<g id="a_edge15_Node000007_Node000006"><a xlink:title=" ">
<path fill="none" stroke="#63b8ff" d="M553.65,-212.69C550.14,-212.03 546.66,-211.38 543.25,-210.75 498.85,-202.51 372.22,-209.4 343.25,-174.75 331.35,-160.51 333.22,-148.61 343.25,-133 354.88,-114.9 374.84,-103.23 394.58,-95.76"/>
<polygon fill="#63b8ff" stroke="#63b8ff" points="552.99,-216.13 563.46,-214.53 554.28,-209.25 552.99,-216.13"/>
</a>
</g>
</g>
<!-- Node7&#45;&gt;Node8 -->
<g id="edge8_Node000007_Node000008" class="edge">
<title>Node7&#45;&gt;Node8</title>
<g id="a_edge8_Node000007_Node000008"><a xlink:title=" ">
<path fill="none" stroke="#63b8ff" d="M740.82,-210.35C851.08,-190.72 881.33,-190.49 989.25,-174.75 1004.38,-172.54 1020.46,-170.18 1036.04,-167.87"/>
<polygon fill="#63b8ff" stroke="#63b8ff" points="740.25,-206.89 731.03,-212.11 741.49,-213.78 740.25,-206.89"/>
</a>
</g>
</g>
<!-- Node11 -->
<g id="Node000011" class="node">
<title>Node11</title>
<g id="a_Node000011"><a xlink:href="EmptyFragmentRequestHandlerModel_8hpp.html" target="_top" xlink:title=" ">
<polygon fill="white" stroke="#666666" points="553.88,-174.75 352.62,-174.75 352.62,-133 553.88,-133 553.88,-174.75"/>
<text text-anchor="start" x="360.62" y="-161.25" font-family="Helvetica,sans-Serif" font-size="10.00">sourcecode/readoutlibs</text>
<text text-anchor="start" x="360.62" y="-150" font-family="Helvetica,sans-Serif" font-size="10.00">/include/readoutlibs/models</text>
<text text-anchor="middle" x="453.25" y="-138.75" font-family="Helvetica,sans-Serif" font-size="10.00">/EmptyFragmentRequestHandlerModel.hpp</text>
</a>
</g>
</g>
<!-- Node7&#45;&gt;Node11 -->
<g id="edge11_Node000007_Node000011" class="edge">
<title>Node7&#45;&gt;Node11</title>
<g id="a_edge11_Node000007_Node000011"><a xlink:title=" ">
<path fill="none" stroke="#63b8ff" d="M584.55,-206.14C558.98,-196.16 529.76,-184.75 505.38,-175.23"/>
<polygon fill="#63b8ff" stroke="#63b8ff" points="583.26,-209.4 593.85,-209.77 585.81,-202.88 583.26,-209.4"/>
</a>
</g>
</g>
<!-- Node12 -->
<g id="Node000012" class="node">
<title>Node12</title>
<g id="a_Node000012"><a xlink:href="ZeroCopyRecordingRequestHandlerModel_8hpp.html" target="_top" xlink:title=" ">
<polygon fill="white" stroke="#666666" points="790.12,-174.75 572.38,-174.75 572.38,-133 790.12,-133 790.12,-174.75"/>
<text text-anchor="start" x="580.38" y="-161.25" font-family="Helvetica,sans-Serif" font-size="10.00">sourcecode/readoutlibs</text>
<text text-anchor="start" x="580.38" y="-150" font-family="Helvetica,sans-Serif" font-size="10.00">/include/readoutlibs/models</text>
<text text-anchor="middle" x="681.25" y="-138.75" font-family="Helvetica,sans-Serif" font-size="10.00">/ZeroCopyRecordingRequestHandlerModel.hpp</text>
</a>
</g>
</g>
<!-- Node7&#45;&gt;Node12 -->
<g id="edge13_Node000007_Node000012" class="edge">
<title>Node7&#45;&gt;Node12</title>
<g id="a_edge13_Node000007_Node000012"><a xlink:title=" ">
<path fill="none" stroke="#63b8ff" d="M661.07,-199.84C664.79,-191.55 668.72,-182.79 672.11,-175.23"/>
<polygon fill="#63b8ff" stroke="#63b8ff" points="657.88,-198.39 656.98,-208.94 664.27,-201.25 657.88,-198.39"/>
</a>
</g>
</g>
<!-- Node8&#45;&gt;Node9 -->
<g id="edge9_Node000008_Node000009" class="edge">
<title>Node8&#45;&gt;Node9</title>
<g id="a_edge9_Node000008_Node000009"><a xlink:title=" ">
<path fill="none" stroke="#63b8ff" d="M1221.61,-132.61C1307.43,-117.2 1394.74,-103.8 1456.92,-94.65"/>
<polygon fill="#63b8ff" stroke="#63b8ff" points="1221.04,-129.16 1211.82,-134.38 1222.29,-136.05 1221.04,-129.16"/>
</a>
</g>
</g>
<!-- Node10 -->
<g id="Node000010" class="node">
<title>Node10</title>
<g id="a_Node000010"><a xlink:href="TPRequestHandler_8cpp.html" target="_top" xlink:title=" ">
<polygon fill="white" stroke="#666666" points="1608.25,-30.5 1472.25,-30.5 1472.25,0 1608.25,0 1608.25,-30.5"/>
<text text-anchor="start" x="1480.25" y="-17" font-family="Helvetica,sans-Serif" font-size="10.00">sourcecode/trigger</text>
<text text-anchor="middle" x="1540.25" y="-5.75" font-family="Helvetica,sans-Serif" font-size="10.00">/src/TPRequestHandler.cpp</text>
</a>
</g>
</g>
<!-- Node9&#45;&gt;Node10 -->
<g id="edge10_Node000009_Node000010" class="edge">
<title>Node9&#45;&gt;Node10</title>
<g id="a_edge10_Node000009_Node000010"><a xlink:title=" ">
<path fill="none" stroke="#63b8ff" d="M1540.25,-54.81C1540.25,-46.64 1540.25,-37.91 1540.25,-30.83"/>
<polygon fill="#63b8ff" stroke="#63b8ff" points="1536.75,-54.6 1540.25,-64.6 1543.75,-54.6 1536.75,-54.6"/>
</a>
</g>
</g>
<!-- Node11&#45;&gt;Node6 -->
<g id="edge12_Node000011_Node000006" class="edge">
<title>Node11&#45;&gt;Node6</title>
<g id="a_edge12_Node000011_Node000006"><a xlink:title=" ">
<path fill="none" stroke="#63b8ff" d="M453.25,-121.13C453.25,-112.77 453.25,-104.15 453.25,-97.2"/>
<polygon fill="#63b8ff" stroke="#63b8ff" points="449.75,-121.08 453.25,-131.08 456.75,-121.08 449.75,-121.08"/>
</a>
</g>
</g>
<!-- Node12&#45;&gt;Node6 -->
<g id="edge14_Node000012_Node000006" class="edge">
<title>Node12&#45;&gt;Node6</title>
<g id="a_edge14_Node000012_Node000006"><a xlink:title=" ">
<path fill="none" stroke="#63b8ff" d="M604.38,-129.23C570.13,-118.7 530.87,-106.62 500.95,-97.42"/>
<polygon fill="#63b8ff" stroke="#63b8ff" points="603.27,-132.55 613.86,-132.15 605.33,-125.86 603.27,-132.55"/>
</a>
</g>
</g>
<!-- Node13&#45;&gt;Node6 -->
<g id="edge19_Node000013_Node000006" class="edge">
<title>Node13&#45;&gt;Node6</title>
<g id="a_edge19_Node000013_Node000006"><a xlink:title=" ">
<path fill="none" stroke="#63b8ff" d="M68.2,-276.7C71.21,-236.74 82.74,-168.93 125.25,-133 164.9,-99.48 311.33,-88.25 394.51,-84.54"/>
<polygon fill="#63b8ff" stroke="#63b8ff" points="64.71,-276.43 67.6,-286.63 71.69,-276.85 64.71,-276.43"/>
</a>
</g>
</g>
<!-- Node14&#45;&gt;Node6 -->
<g id="edge22_Node000014_Node000006" class="edge">
<title>Node14&#45;&gt;Node6</title>
<g id="a_edge22_Node000014_Node000006"><a xlink:title=" ">
<path fill="none" stroke="#63b8ff" d="M1022.32,-199.28C1018.49,-177.12 1009.64,-148.68 989.25,-133 952.02,-104.37 642.82,-89.72 511.69,-84.75"/>
<polygon fill="#63b8ff" stroke="#63b8ff" points="1018.83,-199.61 1023.73,-209.01 1025.76,-198.61 1018.83,-199.61"/>
</a>
</g>
</g>
<!-- Node14&#45;&gt;Node8 -->
<g id="edge21_Node000014_Node000008" class="edge">
<title>Node14&#45;&gt;Node8</title>
<g id="a_edge21_Node000014_Node000008"><a xlink:title=" ">
<path fill="none" stroke="#63b8ff" d="M1060.42,-203.44C1072.46,-194.14 1085.7,-183.9 1096.92,-175.23"/>
<polygon fill="#63b8ff" stroke="#63b8ff" points="1058.48,-200.51 1052.71,-209.4 1062.76,-206.05 1058.48,-200.51"/>
</a>
</g>
</g>
<!-- Node15&#45;&gt;Node2 -->
<g id="edge24_Node000015_Node000002" class="edge">
<title>Node15&#45;&gt;Node2</title>
<g id="a_edge24_Node000015_Node000002"><a xlink:title=" ">
<path fill="none" stroke="#63b8ff" d="M1407.37,-284.85C1366.26,-272.59 1317.27,-257.98 1281.57,-247.33"/>
<polygon fill="#63b8ff" stroke="#63b8ff" points="1406.15,-288.14 1416.73,-287.64 1408.15,-281.43 1406.15,-288.14"/>
</a>
</g>
</g>
<!-- Node15&#45;&gt;Node6 -->
<g id="edge25_Node000015_Node000006" class="edge">
<title>Node15&#45;&gt;Node6</title>
<g id="a_edge25_Node000015_Node000006"><a xlink:title=" ">
<path fill="none" stroke="#63b8ff" d="M1502.87,-277.9C1521.66,-238.87 1545.12,-171.67 1508.25,-133 1473.67,-96.73 728.72,-85.76 511.93,-83.33"/>
<polygon fill="#63b8ff" stroke="#63b8ff" points="1499.79,-276.25 1498.43,-286.76 1506.04,-279.39 1499.79,-276.25"/>
</a>
</g>
</g>
<!-- Node16 -->
<g id="Node000016" class="node">
<title>Node16</title>
<g id="a_Node000016"><a xlink:href="TAProcessor_8hpp.html" target="_top" xlink:title=" ">
<polygon fill="white" stroke="#666666" points="1499.5,-246.88 1359,-246.88 1359,-216.38 1499.5,-216.38 1499.5,-246.88"/>
<text text-anchor="start" x="1367" y="-233.38" font-family="Helvetica,sans-Serif" font-size="10.00">sourcecode/trigger</text>
<text text-anchor="middle" x="1429.25" y="-222.12" font-family="Helvetica,sans-Serif" font-size="10.00">/src/trigger/TAProcessor.hpp</text>
</a>
</g>
</g>
<!-- Node15&#45;&gt;Node16 -->
<g id="edge26_Node000015_Node000016" class="edge">
<title>Node15&#45;&gt;Node16</title>
<g id="a_edge26_Node000015_Node000016"><a xlink:title=" ">
<path fill="none" stroke="#63b8ff" d="M1464.25,-279.14C1455.96,-268.12 1446.88,-256.06 1440.05,-246.98"/>
<polygon fill="#63b8ff" stroke="#63b8ff" points="1461.26,-280.98 1470.07,-286.87 1466.85,-276.77 1461.26,-280.98"/>
</a>
</g>
</g>
<!-- Node18 -->
<g id="Node000018" class="node">
<title>Node18</title>
<g id="a_Node000018"><a xlink:href="TCProcessor_8hpp.html" target="_top" xlink:title=" ">
<polygon fill="white" stroke="#666666" points="1695.5,-246.88 1555,-246.88 1555,-216.38 1695.5,-216.38 1695.5,-246.88"/>
<text text-anchor="start" x="1563" y="-233.38" font-family="Helvetica,sans-Serif" font-size="10.00">sourcecode/trigger</text>
<text text-anchor="middle" x="1625.25" y="-222.12" font-family="Helvetica,sans-Serif" font-size="10.00">/src/trigger/TCProcessor.hpp</text>
</a>
</g>
</g>
<!-- Node15&#45;&gt;Node18 -->
<g id="edge28_Node000015_Node000018" class="edge">
<title>Node15&#45;&gt;Node18</title>
<g id="a_edge28_Node000015_Node000018"><a xlink:title=" ">
<path fill="none" stroke="#63b8ff" d="M1533.52,-282.62C1555.19,-270.8 1580.09,-257.23 1598.48,-247.21"/>
<polygon fill="#63b8ff" stroke="#63b8ff" points="1531.93,-279.49 1524.83,-287.35 1535.28,-285.64 1531.93,-279.49"/>
</a>
</g>
</g>
<!-- Node20 -->
<g id="Node000020" class="node">
<title>Node20</title>
<g id="a_Node000020"><a xlink:href="TPProcessor_8hpp.html" target="_top" xlink:title=" ">
<polygon fill="white" stroke="#666666" points="1891.5,-246.88 1751,-246.88 1751,-216.38 1891.5,-216.38 1891.5,-246.88"/>
<text text-anchor="start" x="1759" y="-233.38" font-family="Helvetica,sans-Serif" font-size="10.00">sourcecode/trigger</text>
<text text-anchor="middle" x="1821.25" y="-222.12" font-family="Helvetica,sans-Serif" font-size="10.00">/src/trigger/TPProcessor.hpp</text>
</a>
</g>
</g>
<!-- Node15&#45;&gt;Node20 -->
<g id="edge30_Node000015_Node000020" class="edge">
<title>Node15&#45;&gt;Node20</title>
<g id="a_edge30_Node000015_Node000020"><a xlink:title=" ">
<path fill="none" stroke="#63b8ff" d="M1582.19,-286.68C1637.95,-274.07 1706.75,-258.52 1756.2,-247.33"/>
<polygon fill="#63b8ff" stroke="#63b8ff" points="1581.68,-283.21 1572.69,-288.83 1583.22,-290.04 1581.68,-283.21"/>
</a>
</g>
</g>
<!-- Node16&#45;&gt;Node17 -->
<g id="edge27_Node000016_Node000017" class="edge">
<title>Node16&#45;&gt;Node17</title>
<g id="a_edge27_Node000016_Node000017"><a xlink:title=" ">
<path fill="none" stroke="#63b8ff" d="M1434.33,-204.97C1436.68,-193.12 1439.38,-179.49 1441.37,-169.44"/>
<polygon fill="#63b8ff" stroke="#63b8ff" points="1430.95,-204.05 1432.44,-214.53 1437.81,-205.41 1430.95,-204.05"/>
</a>
</g>
</g>
<!-- Node18&#45;&gt;Node19 -->
<g id="edge29_Node000018_Node000019" class="edge">
<title>Node18&#45;&gt;Node19</title>
<g id="a_edge29_Node000018_Node000019"><a xlink:title=" ">
<path fill="none" stroke="#63b8ff" d="M1640.9,-206.44C1648.77,-194.26 1658.06,-179.9 1664.83,-169.44"/>
<polygon fill="#63b8ff" stroke="#63b8ff" points="1638.01,-204.45 1635.52,-214.75 1643.89,-208.25 1638.01,-204.45"/>
</a>
</g>
</g>
<!-- Node20&#45;&gt;Node21 -->
<g id="edge31_Node000020_Node000021" class="edge">
<title>Node20&#45;&gt;Node21</title>
<g id="a_edge31_Node000020_Node000021"><a xlink:title=" ">
<path fill="none" stroke="#63b8ff" d="M1830.26,-205.34C1834.52,-193.4 1839.44,-179.59 1843.06,-169.44"/>
<polygon fill="#63b8ff" stroke="#63b8ff" points="1827.02,-204 1826.96,-214.59 1833.62,-206.35 1827.02,-204"/>
</a>
</g>
</g>
<!-- Node23&#45;&gt;Node7 -->
<g id="edge38_Node000023_Node000007" class="edge">
<title>Node23&#45;&gt;Node7</title>
<g id="a_edge38_Node000023_Node000007"><a xlink:title=" ">
<path fill="none" stroke="#63b8ff" d="M801.12,-284.43C771.09,-274.32 736.49,-262.67 707.71,-252.98"/>
<polygon fill="#63b8ff" stroke="#63b8ff" points="799.93,-287.72 810.52,-287.59 802.16,-281.08 799.93,-287.72"/>
</a>
</g>
</g>
<!-- Node24 -->
<g id="Node000024" class="node">
<title>Node24</title>
<g id="a_Node000024"><a xlink:href="RecorderConcept_8hpp.html" target="_top" xlink:title=" ">
<polygon fill="white" stroke="#666666" points="889.62,-252.5 746.88,-252.5 746.88,-210.75 889.62,-210.75 889.62,-252.5"/>
<text text-anchor="start" x="754.88" y="-239" font-family="Helvetica,sans-Serif" font-size="10.00">sourcecode/readoutlibs</text>
<text text-anchor="start" x="754.88" y="-227.75" font-family="Helvetica,sans-Serif" font-size="10.00">/include/readoutlibs/concepts</text>
<text text-anchor="middle" x="818.25" y="-216.5" font-family="Helvetica,sans-Serif" font-size="10.00">/RecorderConcept.hpp</text>
</a>
</g>
</g>
<!-- Node23&#45;&gt;Node24 -->
<g id="edge34_Node000023_Node000024" class="edge">
<title>Node23&#45;&gt;Node24</title>
<g id="a_edge34_Node000023_Node000024"><a xlink:title=" ">
<path fill="none" stroke="#63b8ff" d="M851.1,-278.7C844.96,-270.09 838.39,-260.88 832.76,-252.98"/>
<polygon fill="#63b8ff" stroke="#63b8ff" points="848.25,-280.73 856.9,-286.84 853.95,-276.67 848.25,-280.73"/>
</a>
</g>
</g>
<!-- Node25 -->
<g id="Node000025" class="node">
<title>Node25</title>
<g id="a_Node000025"><a xlink:href="RecorderModel_8hpp.html" target="_top" xlink:title=" ">
<polygon fill="white" stroke="#666666" points="980.5,-174.75 846,-174.75 846,-133 980.5,-133 980.5,-174.75"/>
<text text-anchor="start" x="854" y="-161.25" font-family="Helvetica,sans-Serif" font-size="10.00">sourcecode/readoutlibs</text>
<text text-anchor="start" x="854" y="-150" font-family="Helvetica,sans-Serif" font-size="10.00">/include/readoutlibs/models</text>
<text text-anchor="middle" x="913.25" y="-138.75" font-family="Helvetica,sans-Serif" font-size="10.00">/RecorderModel.hpp</text>
</a>
</g>
</g>
<!-- Node23&#45;&gt;Node25 -->
<g id="edge39_Node000023_Node000025" class="edge">
<title>Node23&#45;&gt;Node25</title>
<g id="a_edge39_Node000023_Node000025"><a xlink:title=" ">
<path fill="none" stroke="#63b8ff" d="M888.24,-278.08C892,-269.95 895.66,-261.04 898.25,-252.5 906.15,-226.4 910.02,-195.07 911.82,-175.06"/>
<polygon fill="#63b8ff" stroke="#63b8ff" points="885.19,-276.34 883.98,-286.86 891.49,-279.4 885.19,-276.34"/>
</a>
</g>
</g>
<!-- Node24&#45;&gt;Node6 -->
<g id="edge37_Node000024_Node000006" class="edge">
<title>Node24&#45;&gt;Node6</title>
<g id="a_edge37_Node000024_Node000006"><a xlink:title=" ">
<path fill="none" stroke="#63b8ff" d="M820.86,-199.35C820.84,-177.67 816.86,-149.79 799.25,-133 759.05,-94.68 599.51,-85.47 511.8,-83.33"/>
<polygon fill="#63b8ff" stroke="#63b8ff" points="817.37,-199.03 820.57,-209.13 824.37,-199.24 817.37,-199.03"/>
</a>
</g>
</g>
<!-- Node24&#45;&gt;Node25 -->
<g id="edge35_Node000024_Node000025" class="edge">
<title>Node24&#45;&gt;Node25</title>
<g id="a_edge35_Node000024_Node000025"><a xlink:title=" ">
<path fill="none" stroke="#63b8ff" d="M852.69,-203.16C864.26,-193.94 876.96,-183.81 887.72,-175.23"/>
<polygon fill="#63b8ff" stroke="#63b8ff" points="850.53,-200.41 844.89,-209.38 854.89,-205.88 850.53,-200.41"/>
</a>
</g>
</g>
<!-- Node25&#45;&gt;Node6 -->
<g id="edge36_Node000025_Node000006" class="edge">
<title>Node25&#45;&gt;Node6</title>
<g id="a_edge36_Node000025_Node000006"><a xlink:title=" ">
<path fill="none" stroke="#63b8ff" d="M834.74,-133.48C833.91,-133.31 833.08,-133.16 832.25,-133 719.73,-111.8 586.77,-96.36 512,-88.53"/>
<polygon fill="#63b8ff" stroke="#63b8ff" points="833.77,-136.85 844.27,-135.43 835.17,-129.99 833.77,-136.85"/>
</a>
</g>
</g>
<!-- Node27 -->
<g id="Node000027" class="node">
<title>Node27</title>
<g id="a_Node000027"><a xlink:href="SourceEmulatorModel_8hpp.html" target="_top" xlink:title=" ">
<polygon fill="white" stroke="#666666" points="296.5,-174.75 162,-174.75 162,-133 296.5,-133 296.5,-174.75"/>
<text text-anchor="start" x="170" y="-161.25" font-family="Helvetica,sans-Serif" font-size="10.00">sourcecode/readoutlibs</text>
<text text-anchor="start" x="170" y="-150" font-family="Helvetica,sans-Serif" font-size="10.00">/include/readoutlibs/models</text>
<text text-anchor="middle" x="229.25" y="-138.75" font-family="Helvetica,sans-Serif" font-size="10.00">/SourceEmulatorModel.hpp</text>
</a>
</g>
</g>
<!-- Node26&#45;&gt;Node27 -->
<g id="edge41_Node000026_Node000027" class="edge">
<title>Node26&#45;&gt;Node27</title>
<g id="a_edge41_Node000026_Node000027"><a xlink:title=" ">
<path fill="none" stroke="#63b8ff" d="M531.59,-276.69C531.36,-255.24 527.24,-227.81 510.25,-210.75 509.3,-209.79 379.82,-184.32 296.98,-168.11"/>
<polygon fill="#63b8ff" stroke="#63b8ff" points="528.09,-276.61 531.39,-286.68 535.09,-276.75 528.09,-276.61"/>
</a>
</g>
</g>
<!-- Node28 -->
<g id="Node000028" class="node">
<title>Node28</title>
<g id="a_Node000028"><a xlink:href="FakeCardReaderBase_8hpp.html" target="_top" xlink:title=" ">
<polygon fill="white" stroke="#666666" points="501.38,-252.5 363.12,-252.5 363.12,-210.75 501.38,-210.75 501.38,-252.5"/>
<text text-anchor="start" x="371.12" y="-239" font-family="Helvetica,sans-Serif" font-size="10.00">sourcecode/readoutmodules</text>
<text text-anchor="start" x="371.12" y="-227.75" font-family="Helvetica,sans-Serif" font-size="10.00">/include/readoutmodules</text>
<text text-anchor="middle" x="432.25" y="-216.5" font-family="Helvetica,sans-Serif" font-size="10.00">/FakeCardReaderBase.hpp</text>
</a>
</g>
</g>
<!-- Node26&#45;&gt;Node28 -->
<g id="edge43_Node000026_Node000028" class="edge">
<title>Node26&#45;&gt;Node28</title>
<g id="a_edge43_Node000026_Node000028"><a xlink:title=" ">
<path fill="none" stroke="#63b8ff" d="M494.43,-281.19C482.52,-271.89 469.42,-261.65 458.32,-252.98"/>
<polygon fill="#63b8ff" stroke="#63b8ff" points="492.03,-283.75 502.06,-287.14 496.34,-278.23 492.03,-283.75"/>
</a>
</g>
</g>
<!-- Node27&#45;&gt;Node6 -->
<g id="edge42_Node000027_Node000006" class="edge">
<title>Node27&#45;&gt;Node6</title>
<g id="a_edge42_Node000027_Node000006"><a xlink:title=" ">
<path fill="none" stroke="#63b8ff" d="M304.77,-129.23C338.42,-118.7 376.99,-106.62 406.39,-97.42"/>
<polygon fill="#63b8ff" stroke="#63b8ff" points="303.98,-125.81 295.48,-132.14 306.07,-132.49 303.98,-125.81"/>
</a>
</g>
</g>
</g>
</svg>
