<?xml version="1.0" encoding="UTF-8" standalone="no"?>
<!DOCTYPE svg PUBLIC "-//W3C//DTD SVG 1.1//EN"
 "http://www.w3.org/Graphics/SVG/1.1/DTD/svg11.dtd">
<!-- Generated by graphviz version 9.0.0 (20230911.1827)
 -->
<!-- Title: sourcecode/readoutlibs/include/readoutlibs/ReadoutIssues.hpp Pages: 1 -->
<svg width="2349pt" height="416pt"
 viewBox="0.00 0.00 2349.18 416.00" xmlns="http://www.w3.org/2000/svg" xmlns:xlink="http://www.w3.org/1999/xlink">
<g id="graph0" class="graph" transform="scale(1 1) rotate(0) translate(4 412)">
<title>sourcecode/readoutlibs/include/readoutlibs/ReadoutIssues.hpp</title>
<!-- Node1 -->
<g id="Node000001" class="node">
<title>Node1</title>
<g id="a_Node000001"><a xlink:title=" ">
<polygon fill="#999999" stroke="#666666" points="1559.05,-408 1420.05,-408 1420.05,-366.25 1559.05,-366.25 1559.05,-408"/>
<text text-anchor="start" x="1428.05" y="-394.5" font-family="Helvetica,sans-Serif" font-size="10.00">sourcecode/readoutlibs</text>
<text text-anchor="start" x="1428.05" y="-383.25" font-family="Helvetica,sans-Serif" font-size="10.00">/include/readoutlibs/Readout</text>
<text text-anchor="middle" x="1489.55" y="-372" font-family="Helvetica,sans-Serif" font-size="10.00">Issues.hpp</text>
</a>
</g>
</g>
<!-- Node2 -->
<g id="Node000002" class="node">
<title>Node2</title>
<g id="a_Node000002"><a xlink:href="HSIFrameProcessor_8hpp.html" target="_top" xlink:title=" ">
<polygon fill="white" stroke="#666666" points="1061.93,-246.88 919.18,-246.88 919.18,-216.38 1061.93,-216.38 1061.93,-246.88"/>
<text text-anchor="start" x="927.18" y="-233.38" font-family="Helvetica,sans-Serif" font-size="10.00">sourcecode/hsilibs</text>
<text text-anchor="middle" x="990.55" y="-222.12" font-family="Helvetica,sans-Serif" font-size="10.00">/src/HSIFrameProcessor.hpp</text>
</a>
</g>
</g>
<!-- Node1&#45;&gt;Node2 -->
<g id="edge1_Node000001_Node000002" class="edge">
<title>Node1&#45;&gt;Node2</title>
<g id="a_edge1_Node000001_Node000002"><a xlink:title=" ">
<path fill="none" stroke="#63b8ff" d="M1408.21,-378.97C1343.09,-371.55 1250.14,-357.12 1172.55,-330.25 1111.06,-308.95 1045.28,-268.78 1012.2,-247.21"/>
<polygon fill="#63b8ff" stroke="#63b8ff" points="1407.8,-382.45 1418.12,-380.07 1408.57,-375.49 1407.8,-382.45"/>
</a>
</g>
</g>
<!-- Node4 -->
<g id="Node000004" class="node">
<title>Node4</title>
<g id="a_Node000004"><a xlink:href="BinarySearchQueueModel_8hpp.html" target="_top" xlink:title=" ">
<polygon fill="white" stroke="#666666" points="2317.3,-252.5 2167.8,-252.5 2167.8,-210.75 2317.3,-210.75 2317.3,-252.5"/>
<text text-anchor="start" x="2175.8" y="-239" font-family="Helvetica,sans-Serif" font-size="10.00">sourcecode/readoutlibs</text>
<text text-anchor="start" x="2175.8" y="-227.75" font-family="Helvetica,sans-Serif" font-size="10.00">/include/readoutlibs/models</text>
<text text-anchor="middle" x="2242.55" y="-216.5" font-family="Helvetica,sans-Serif" font-size="10.00">/BinarySearchQueueModel.hpp</text>
</a>
</g>
</g>
<!-- Node1&#45;&gt;Node4 -->
<g id="edge3_Node000001_Node000004" class="edge">
<title>Node1&#45;&gt;Node4</title>
<g id="a_edge3_Node000001_Node000004"><a xlink:title=" ">
<path fill="none" stroke="#63b8ff" d="M1570.73,-386.15C1755.78,-385.36 2196.4,-378.39 2241.55,-330.25 2260.8,-309.73 2255.51,-274.77 2249.41,-252.73"/>
<polygon fill="#63b8ff" stroke="#63b8ff" points="1570.95,-382.65 1560.96,-386.18 1570.98,-389.65 1570.95,-382.65"/>
</a>
</g>
</g>
<!-- Node5 -->
<g id="Node000005" class="node">
<title>Node5</title>
<g id="a_Node000005"><a xlink:href="FixedRateQueueModel_8hpp.html" target="_top" xlink:title=" ">
<polygon fill="white" stroke="#666666" points="2341.18,-174.75 2205.93,-174.75 2205.93,-133 2341.18,-133 2341.18,-174.75"/>
<text text-anchor="start" x="2213.93" y="-161.25" font-family="Helvetica,sans-Serif" font-size="10.00">sourcecode/readoutlibs</text>
<text text-anchor="start" x="2213.93" y="-150" font-family="Helvetica,sans-Serif" font-size="10.00">/include/readoutlibs/models</text>
<text text-anchor="middle" x="2273.55" y="-138.75" font-family="Helvetica,sans-Serif" font-size="10.00">/FixedRateQueueModel.hpp</text>
</a>
</g>
</g>
<!-- Node1&#45;&gt;Node5 -->
<g id="edge17_Node000001_Node000005" class="edge">
<title>Node1&#45;&gt;Node5</title>
<g id="a_edge17_Node000001_Node000005"><a xlink:title=" ">
<path fill="none" stroke="#63b8ff" d="M1570.67,-383.83C1756.4,-378.05 2201.22,-361.15 2261.55,-330.25 2315.36,-302.69 2348.95,-266.91 2326.55,-210.75 2321.05,-196.96 2310.36,-184.63 2300.01,-175.08"/>
<polygon fill="#63b8ff" stroke="#63b8ff" points="1570.75,-380.32 1560.86,-384.13 1570.96,-387.32 1570.75,-380.32"/>
</a>
</g>
</g>
<!-- Node7 -->
<g id="Node000007" class="node">
<title>Node7</title>
<g id="a_Node000007"><a xlink:href="DefaultRequestHandlerModel_8hpp.html" target="_top" xlink:title=" ">
<polygon fill="white" stroke="#666666" points="541.43,-252.5 377.68,-252.5 377.68,-210.75 541.43,-210.75 541.43,-252.5"/>
<text text-anchor="start" x="385.68" y="-239" font-family="Helvetica,sans-Serif" font-size="10.00">sourcecode/readoutlibs</text>
<text text-anchor="start" x="385.68" y="-227.75" font-family="Helvetica,sans-Serif" font-size="10.00">/include/readoutlibs/models</text>
<text text-anchor="middle" x="459.55" y="-216.5" font-family="Helvetica,sans-Serif" font-size="10.00">/DefaultRequestHandlerModel.hpp</text>
</a>
</g>
</g>
<!-- Node1&#45;&gt;Node7 -->
<g id="edge7_Node000001_Node000007" class="edge">
<title>Node1&#45;&gt;Node7</title>
<g id="a_edge7_Node000001_Node000007"><a xlink:title=" ">
<path fill="none" stroke="#63b8ff" d="M1408.31,-384.57C1228.31,-380.5 800.91,-367.14 661.55,-330.25 597.92,-313.4 530.27,-276.25 491.64,-252.95"/>
<polygon fill="#63b8ff" stroke="#63b8ff" points="1408.21,-388.07 1418.28,-384.79 1408.36,-381.07 1408.21,-388.07"/>
</a>
</g>
</g>
<!-- Node8 -->
<g id="Node000008" class="node">
<title>Node8</title>
<g id="a_Node000008"><a xlink:href="DefaultSkipListRequestHandler_8hpp.html" target="_top" xlink:title=" ">
<polygon fill="white" stroke="#666666" points="874.3,-174.75 700.8,-174.75 700.8,-133 874.3,-133 874.3,-174.75"/>
<text text-anchor="start" x="708.8" y="-161.25" font-family="Helvetica,sans-Serif" font-size="10.00">sourcecode/readoutlibs</text>
<text text-anchor="start" x="708.8" y="-150" font-family="Helvetica,sans-Serif" font-size="10.00">/include/readoutlibs/models</text>
<text text-anchor="middle" x="787.55" y="-138.75" font-family="Helvetica,sans-Serif" font-size="10.00">/DefaultSkipListRequestHandler.hpp</text>
</a>
</g>
</g>
<!-- Node1&#45;&gt;Node8 -->
<g id="edge16_Node000001_Node000008" class="edge">
<title>Node1&#45;&gt;Node8</title>
<g id="a_edge16_Node000001_Node000008"><a xlink:title=" ">
<path fill="none" stroke="#63b8ff" d="M1408.6,-383.98C1255.52,-379.15 929.41,-365.04 822.55,-330.25 759.26,-309.65 727.19,-310.51 694.55,-252.5 685.45,-236.33 685.42,-226.9 694.55,-210.75 703.27,-195.34 718.13,-183.71 733.44,-175.17"/>
<polygon fill="#63b8ff" stroke="#63b8ff" points="1408.14,-387.46 1418.25,-384.27 1408.36,-380.47 1408.14,-387.46"/>
</a>
</g>
</g>
<!-- Node9 -->
<g id="Node000009" class="node">
<title>Node9</title>
<g id="a_Node000009"><a xlink:href="TPRequestHandler_8hpp.html" target="_top" xlink:title=" ">
<polygon fill="white" stroke="#666666" points="548.55,-97 382.55,-97 382.55,-66.5 548.55,-66.5 548.55,-97"/>
<text text-anchor="start" x="390.55" y="-83.5" font-family="Helvetica,sans-Serif" font-size="10.00">sourcecode/trigger</text>
<text text-anchor="middle" x="465.55" y="-72.25" font-family="Helvetica,sans-Serif" font-size="10.00">/src/trigger/TPRequestHandler.hpp</text>
</a>
</g>
</g>
<!-- Node1&#45;&gt;Node9 -->
<g id="edge54_Node000001_Node000009" class="edge">
<title>Node1&#45;&gt;Node9</title>
<g id="a_edge54_Node000001_Node000009"><a xlink:title=" ">
<path fill="none" stroke="#63b8ff" d="M1408.31,-386.22C1170.8,-385.9 480.66,-380.54 261.55,-330.25 132.54,-300.64 56.27,-297.82 7.55,-174.75 0.72,-157.5 -4.83,-146.82 7.55,-133 32.06,-105.66 257.05,-91.68 382.31,-85.97"/>
<polygon fill="#63b8ff" stroke="#63b8ff" points="1408.09,-389.72 1418.09,-386.23 1408.1,-382.72 1408.09,-389.72"/>
</a>
</g>
</g>
<!-- Node13 -->
<g id="Node000013" class="node">
<title>Node13</title>
<g id="a_Node000013"><a xlink:href="IterableQueueModel_8hpp.html" target="_top" xlink:title=" ">
<polygon fill="white" stroke="#666666" points="2092.8,-330.25 1958.3,-330.25 1958.3,-288.5 2092.8,-288.5 2092.8,-330.25"/>
<text text-anchor="start" x="1966.3" y="-316.75" font-family="Helvetica,sans-Serif" font-size="10.00">sourcecode/readoutlibs</text>
<text text-anchor="start" x="1966.3" y="-305.5" font-family="Helvetica,sans-Serif" font-size="10.00">/include/readoutlibs/models</text>
<text text-anchor="middle" x="2025.55" y="-294.25" font-family="Helvetica,sans-Serif" font-size="10.00">/IterableQueueModel.hpp</text>
</a>
</g>
</g>
<!-- Node1&#45;&gt;Node13 -->
<g id="edge18_Node000001_Node000013" class="edge">
<title>Node1&#45;&gt;Node13</title>
<g id="a_edge18_Node000001_Node000013"><a xlink:title=" ">
<path fill="none" stroke="#63b8ff" d="M1570.71,-376.45C1655.97,-366.04 1793.91,-348.51 1912.55,-330.25 1927.22,-327.99 1942.92,-325.37 1957.81,-322.78"/>
<polygon fill="#63b8ff" stroke="#63b8ff" points="1570.3,-372.97 1560.8,-377.66 1571.15,-379.92 1570.3,-372.97"/>
</a>
</g>
</g>
<!-- Node14 -->
<g id="Node000014" class="node">
<title>Node14</title>
<g id="a_Node000014"><a xlink:href="TAProcessor_8cpp.html" target="_top" xlink:title=" ">
<polygon fill="white" stroke="#666666" points="1242.8,-169.12 1132.3,-169.12 1132.3,-138.62 1242.8,-138.62 1242.8,-169.12"/>
<text text-anchor="start" x="1140.3" y="-155.62" font-family="Helvetica,sans-Serif" font-size="10.00">sourcecode/trigger</text>
<text text-anchor="middle" x="1187.55" y="-144.38" font-family="Helvetica,sans-Serif" font-size="10.00">/src/TAProcessor.cpp</text>
</a>
</g>
</g>
<!-- Node1&#45;&gt;Node14 -->
<g id="edge51_Node000001_Node000014" class="edge">
<title>Node1&#45;&gt;Node14</title>
<g id="a_edge51_Node000001_Node000014"><a xlink:title=" ">
<path fill="none" stroke="#63b8ff" d="M1408.57,-380.81C1262.28,-369.21 964.1,-335.66 910.55,-252.5 900.51,-236.9 898.8,-225.11 910.55,-210.75 912.32,-208.59 1051.58,-181.26 1131.94,-165.64"/>
<polygon fill="#63b8ff" stroke="#63b8ff" points="1407.94,-384.28 1418.18,-381.56 1408.48,-377.3 1407.94,-384.28"/>
</a>
</g>
</g>
<!-- Node15 -->
<g id="Node000015" class="node">
<title>Node15</title>
<g id="a_Node000015"><a xlink:href="TCProcessor_8cpp.html" target="_top" xlink:title=" ">
<polygon fill="white" stroke="#666666" points="1779.8,-169.12 1669.3,-169.12 1669.3,-138.62 1779.8,-138.62 1779.8,-169.12"/>
<text text-anchor="start" x="1677.3" y="-155.62" font-family="Helvetica,sans-Serif" font-size="10.00">sourcecode/trigger</text>
<text text-anchor="middle" x="1724.55" y="-144.38" font-family="Helvetica,sans-Serif" font-size="10.00">/src/TCProcessor.cpp</text>
</a>
</g>
</g>
<!-- Node1&#45;&gt;Node15 -->
<g id="edge52_Node000001_Node000015" class="edge">
<title>Node1&#45;&gt;Node15</title>
<g id="a_edge52_Node000001_Node000015"><a xlink:title=" ">
<path fill="none" stroke="#63b8ff" d="M1570.51,-375.85C1602.22,-368.06 1636.65,-354.35 1660.55,-330.25 1699.8,-290.69 1678.31,-262.68 1698.55,-210.75 1704.15,-196.4 1711.68,-180.51 1717.19,-169.36"/>
<polygon fill="#63b8ff" stroke="#63b8ff" points="1569.88,-372.4 1560.9,-378.03 1571.43,-379.23 1569.88,-372.4"/>
</a>
</g>
</g>
<!-- Node16 -->
<g id="Node000016" class="node">
<title>Node16</title>
<g id="a_Node000016"><a xlink:href="TPProcessor_8cpp.html" target="_top" xlink:title=" ">
<polygon fill="white" stroke="#666666" points="1613.8,-169.12 1503.3,-169.12 1503.3,-138.62 1613.8,-138.62 1613.8,-169.12"/>
<text text-anchor="start" x="1511.3" y="-155.62" font-family="Helvetica,sans-Serif" font-size="10.00">sourcecode/trigger</text>
<text text-anchor="middle" x="1558.55" y="-144.38" font-family="Helvetica,sans-Serif" font-size="10.00">/src/TPProcessor.cpp</text>
</a>
</g>
</g>
<!-- Node1&#45;&gt;Node16 -->
<g id="edge53_Node000001_Node000016" class="edge">
<title>Node1&#45;&gt;Node16</title>
<g id="a_edge53_Node000001_Node000016"><a xlink:title=" ">
<path fill="none" stroke="#63b8ff" d="M1488.64,-354.61C1489.62,-333.86 1494.03,-307.2 1508.55,-288.5 1531.48,-258.98 1564.57,-284.08 1584.55,-252.5 1601.15,-226.27 1582.37,-189.64 1569.2,-169.53"/>
<polygon fill="#63b8ff" stroke="#63b8ff" points="1485.15,-354.45 1488.45,-364.51 1492.15,-354.58 1485.15,-354.45"/>
</a>
</g>
</g>
<!-- Node17 -->
<g id="Node000017" class="node">
<title>Node17</title>
<g id="a_Node000017"><a xlink:href="ReadoutModel_8hpp.html" target="_top" xlink:title=" ">
<polygon fill="white" stroke="#666666" points="1651.8,-330.25 1517.3,-330.25 1517.3,-288.5 1651.8,-288.5 1651.8,-330.25"/>
<text text-anchor="start" x="1525.3" y="-316.75" font-family="Helvetica,sans-Serif" font-size="10.00">sourcecode/readoutlibs</text>
<text text-anchor="start" x="1525.3" y="-305.5" font-family="Helvetica,sans-Serif" font-size="10.00">/include/readoutlibs/models</text>
<text text-anchor="middle" x="1584.55" y="-294.25" font-family="Helvetica,sans-Serif" font-size="10.00">/ReadoutModel.hpp</text>
</a>
</g>
</g>
<!-- Node1&#45;&gt;Node17 -->
<g id="edge24_Node000001_Node000017" class="edge">
<title>Node1&#45;&gt;Node17</title>
<g id="a_edge24_Node000001_Node000017"><a xlink:title=" ">
<path fill="none" stroke="#63b8ff" d="M1523.99,-358.66C1535.57,-349.44 1548.26,-339.31 1559.02,-330.73"/>
<polygon fill="#63b8ff" stroke="#63b8ff" points="1521.83,-355.91 1516.19,-364.88 1526.2,-361.38 1521.83,-355.91"/>
</a>
</g>
</g>
<!-- Node18 -->
<g id="Node000018" class="node">
<title>Node18</title>
<g id="a_Node000018"><a xlink:href="SkipListLatencyBufferModel_8hpp.html" target="_top" xlink:title=" ">
<polygon fill="white" stroke="#666666" points="863.18,-252.5 703.93,-252.5 703.93,-210.75 863.18,-210.75 863.18,-252.5"/>
<text text-anchor="start" x="711.93" y="-239" font-family="Helvetica,sans-Serif" font-size="10.00">sourcecode/readoutlibs</text>
<text text-anchor="start" x="711.93" y="-227.75" font-family="Helvetica,sans-Serif" font-size="10.00">/include/readoutlibs/models</text>
<text text-anchor="middle" x="783.55" y="-216.5" font-family="Helvetica,sans-Serif" font-size="10.00">/SkipListLatencyBufferModel.hpp</text>
</a>
</g>
</g>
<!-- Node1&#45;&gt;Node18 -->
<g id="edge26_Node000001_Node000018" class="edge">
<title>Node1&#45;&gt;Node18</title>
<g id="a_edge26_Node000001_Node000018"><a xlink:title=" ">
<path fill="none" stroke="#63b8ff" d="M1408.33,-385.67C1263.97,-383.72 969.26,-374.29 877.55,-330.25 841.71,-313.04 812.22,-276.01 796.32,-252.82"/>
<polygon fill="#63b8ff" stroke="#63b8ff" points="1408.17,-389.17 1418.21,-385.79 1408.25,-382.17 1408.17,-389.17"/>
</a>
</g>
</g>
<!-- Node19 -->
<g id="Node000019" class="node">
<title>Node19</title>
<g id="a_Node000019"><a xlink:href="SourceEmulatorModel_8hpp.html" target="_top" xlink:title=" ">
<polygon fill="white" stroke="#666666" points="1997.8,-252.5 1863.3,-252.5 1863.3,-210.75 1997.8,-210.75 1997.8,-252.5"/>
<text text-anchor="start" x="1871.3" y="-239" font-family="Helvetica,sans-Serif" font-size="10.00">sourcecode/readoutlibs</text>
<text text-anchor="start" x="1871.3" y="-227.75" font-family="Helvetica,sans-Serif" font-size="10.00">/include/readoutlibs/models</text>
<text text-anchor="middle" x="1930.55" y="-216.5" font-family="Helvetica,sans-Serif" font-size="10.00">/SourceEmulatorModel.hpp</text>
</a>
</g>
</g>
<!-- Node1&#45;&gt;Node19 -->
<g id="edge29_Node000001_Node000019" class="edge">
<title>Node1&#45;&gt;Node19</title>
<g id="a_edge29_Node000001_Node000019"><a xlink:title=" ">
<path fill="none" stroke="#63b8ff" d="M1570.68,-379.95C1661.04,-371.94 1800.49,-355.88 1846.55,-330.25 1879.38,-311.99 1905.3,-275.65 1919.24,-252.83"/>
<polygon fill="#63b8ff" stroke="#63b8ff" points="1570.53,-376.45 1560.87,-380.8 1571.14,-383.42 1570.53,-376.45"/>
</a>
</g>
</g>
<!-- Node20 -->
<g id="Node000020" class="node">
<title>Node20</title>
<g id="a_Node000020"><a xlink:href="TaskRawDataProcessorModel_8hpp.html" target="_top" xlink:title=" ">
<polygon fill="white" stroke="#666666" points="1351.05,-330.25 1182.05,-330.25 1182.05,-288.5 1351.05,-288.5 1351.05,-330.25"/>
<text text-anchor="start" x="1190.05" y="-316.75" font-family="Helvetica,sans-Serif" font-size="10.00">sourcecode/readoutlibs</text>
<text text-anchor="start" x="1190.05" y="-305.5" font-family="Helvetica,sans-Serif" font-size="10.00">/include/readoutlibs/models</text>
<text text-anchor="middle" x="1266.55" y="-294.25" font-family="Helvetica,sans-Serif" font-size="10.00">/TaskRawDataProcessorModel.hpp</text>
</a>
</g>
</g>
<!-- Node1&#45;&gt;Node20 -->
<g id="edge31_Node000001_Node000020" class="edge">
<title>Node1&#45;&gt;Node20</title>
<g id="a_edge31_Node000001_Node000020"><a xlink:title=" ">
<path fill="none" stroke="#63b8ff" d="M1419.05,-362.18C1389.29,-352.07 1355,-340.42 1326.48,-330.73"/>
<polygon fill="#63b8ff" stroke="#63b8ff" points="1417.77,-365.44 1428.36,-365.34 1420.02,-358.81 1417.77,-365.44"/>
</a>
</g>
</g>
<!-- Node24 -->
<g id="Node000024" class="node">
<title>Node24</title>
<g id="a_Node000024"><a xlink:href="BufferedFileReader_8hpp.html" target="_top" xlink:title=" ">
<polygon fill="white" stroke="#666666" points="2232.05,-330.25 2111.05,-330.25 2111.05,-288.5 2232.05,-288.5 2232.05,-330.25"/>
<text text-anchor="start" x="2119.05" y="-316.75" font-family="Helvetica,sans-Serif" font-size="10.00">sourcecode/readoutlibs</text>
<text text-anchor="start" x="2119.05" y="-305.5" font-family="Helvetica,sans-Serif" font-size="10.00">/include/readoutlibs/utils</text>
<text text-anchor="middle" x="2171.55" y="-294.25" font-family="Helvetica,sans-Serif" font-size="10.00">/BufferedFileReader.hpp</text>
</a>
</g>
</g>
<!-- Node1&#45;&gt;Node24 -->
<g id="edge40_Node000001_Node000024" class="edge">
<title>Node1&#45;&gt;Node24</title>
<g id="a_edge40_Node000001_Node000024"><a xlink:title=" ">
<path fill="none" stroke="#63b8ff" d="M1570.83,-383.5C1688.69,-378.61 1913.5,-365.22 2101.55,-330.25 2104.53,-329.7 2107.57,-329.07 2110.63,-328.39"/>
<polygon fill="#63b8ff" stroke="#63b8ff" points="1570.79,-380 1560.93,-383.9 1571.07,-386.99 1570.79,-380"/>
</a>
</g>
</g>
<!-- Node25 -->
<g id="Node000025" class="node">
<title>Node25</title>
<g id="a_Node000025"><a xlink:href="BufferedFileWriter_8hpp.html" target="_top" xlink:title=" ">
<polygon fill="white" stroke="#666666" points="392.05,-330.25 271.05,-330.25 271.05,-288.5 392.05,-288.5 392.05,-330.25"/>
<text text-anchor="start" x="279.05" y="-316.75" font-family="Helvetica,sans-Serif" font-size="10.00">sourcecode/readoutlibs</text>
<text text-anchor="start" x="279.05" y="-305.5" font-family="Helvetica,sans-Serif" font-size="10.00">/include/readoutlibs/utils</text>
<text text-anchor="middle" x="331.55" y="-294.25" font-family="Helvetica,sans-Serif" font-size="10.00">/BufferedFileWriter.hpp</text>
</a>
</g>
</g>
<!-- Node1&#45;&gt;Node25 -->
<g id="edge41_Node000001_Node000025" class="edge">
<title>Node1&#45;&gt;Node25</title>
<g id="a_edge41_Node000001_Node000025"><a xlink:title=" ">
<path fill="none" stroke="#63b8ff" d="M1408.15,-381.51C1249.98,-372.45 890.08,-351.36 587.55,-330.25 520.74,-325.59 444.17,-319.55 392.31,-315.36"/>
<polygon fill="#63b8ff" stroke="#63b8ff" points="1407.95,-385 1418.13,-382.08 1408.35,-378.01 1407.95,-385"/>
</a>
</g>
</g>
<!-- Node28 -->
<g id="Node000028" class="node">
<title>Node28</title>
<g id="a_Node000028"><a xlink:href="FileSourceBuffer_8hpp.html" target="_top" xlink:title=" ">
<polygon fill="white" stroke="#666666" points="1837.05,-330.25 1716.05,-330.25 1716.05,-288.5 1837.05,-288.5 1837.05,-330.25"/>
<text text-anchor="start" x="1724.05" y="-316.75" font-family="Helvetica,sans-Serif" font-size="10.00">sourcecode/readoutlibs</text>
<text text-anchor="start" x="1724.05" y="-305.5" font-family="Helvetica,sans-Serif" font-size="10.00">/include/readoutlibs/utils</text>
<text text-anchor="middle" x="1776.55" y="-294.25" font-family="Helvetica,sans-Serif" font-size="10.00">/FileSourceBuffer.hpp</text>
</a>
</g>
</g>
<!-- Node1&#45;&gt;Node28 -->
<g id="edge48_Node000001_Node000028" class="edge">
<title>Node1&#45;&gt;Node28</title>
<g id="a_edge48_Node000001_Node000028"><a xlink:title=" ">
<path fill="none" stroke="#63b8ff" d="M1570.27,-364.82C1616.4,-352.65 1673.31,-337.62 1715.67,-326.45"/>
<polygon fill="#63b8ff" stroke="#63b8ff" points="1569.63,-361.37 1560.86,-367.31 1571.42,-368.14 1569.63,-361.37"/>
</a>
</g>
</g>
<!-- Node3 -->
<g id="Node000003" class="node">
<title>Node3</title>
<g id="a_Node000003"><a xlink:href="HSIFrameProcessor_8cpp.html" target="_top" xlink:title=" ">
<polygon fill="white" stroke="#666666" points="1072.93,-169.12 930.18,-169.12 930.18,-138.62 1072.93,-138.62 1072.93,-169.12"/>
<text text-anchor="start" x="938.18" y="-155.62" font-family="Helvetica,sans-Serif" font-size="10.00">sourcecode/hsilibs</text>
<text text-anchor="middle" x="1001.55" y="-144.38" font-family="Helvetica,sans-Serif" font-size="10.00">/src/HSIFrameProcessor.cpp</text>
</a>
</g>
</g>
<!-- Node2&#45;&gt;Node3 -->
<g id="edge2_Node000002_Node000003" class="edge">
<title>Node2&#45;&gt;Node3</title>
<g id="a_edge2_Node000002_Node000003"><a xlink:title=" ">
<path fill="none" stroke="#63b8ff" d="M994.28,-204.97C996,-193.12 997.98,-179.49 999.44,-169.44"/>
<polygon fill="#63b8ff" stroke="#63b8ff" points="990.86,-204.12 992.89,-214.52 997.79,-205.13 990.86,-204.12"/>
</a>
</g>
</g>
<!-- Node4&#45;&gt;Node5 -->
<g id="edge4_Node000004_Node000005" class="edge">
<title>Node4&#45;&gt;Node5</title>
<g id="a_edge4_Node000004_Node000005"><a xlink:title=" ">
<path fill="none" stroke="#63b8ff" d="M2255.15,-199.84C2258.54,-191.55 2262.13,-182.79 2265.22,-175.23"/>
<polygon fill="#63b8ff" stroke="#63b8ff" points="2251.98,-198.34 2251.43,-208.92 2258.46,-201 2251.98,-198.34"/>
</a>
</g>
</g>
<!-- Node6 -->
<g id="Node000006" class="node">
<title>Node6</title>
<g id="a_Node000006"><a xlink:href="Readoutlibs_8cpp.html" target="_top" xlink:title=" ">
<polygon fill="white" stroke="#666666" points="1059.8,-97 943.3,-97 943.3,-66.5 1059.8,-66.5 1059.8,-97"/>
<text text-anchor="start" x="951.3" y="-83.5" font-family="Helvetica,sans-Serif" font-size="10.00">sourcecode/readoutlibs</text>
<text text-anchor="middle" x="1001.55" y="-72.25" font-family="Helvetica,sans-Serif" font-size="10.00">/src/Readoutlibs.cpp</text>
</a>
</g>
</g>
<!-- Node4&#45;&gt;Node6 -->
<g id="edge6_Node000004_Node000006" class="edge">
<title>Node4&#45;&gt;Node6</title>
<g id="a_edge6_Node000004_Node000006"><a xlink:title=" ">
<path fill="none" stroke="#63b8ff" d="M2218.56,-202.15C2195.17,-174.76 2161.94,-136.92 2153.55,-133 2054.22,-86.53 1280.91,-82.8 1060.19,-82.68"/>
<polygon fill="#63b8ff" stroke="#63b8ff" points="2215.64,-204.12 2224.78,-209.47 2220.97,-199.58 2215.64,-204.12"/>
</a>
</g>
</g>
<!-- Node5&#45;&gt;Node6 -->
<g id="edge5_Node000005_Node000006" class="edge">
<title>Node5&#45;&gt;Node6</title>
<g id="a_edge5_Node000005_Node000006"><a xlink:title=" ">
<path fill="none" stroke="#63b8ff" d="M2194.61,-133.45C2193.59,-133.29 2192.57,-133.14 2191.55,-133 1969.26,-101.68 1268.02,-87.34 1060.16,-83.71"/>
<polygon fill="#63b8ff" stroke="#63b8ff" points="2193.8,-136.86 2204.25,-135.1 2194.98,-129.96 2193.8,-136.86"/>
</a>
</g>
</g>
<!-- Node7&#45;&gt;Node6 -->
<g id="edge15_Node000007_Node000006" class="edge">
<title>Node7&#45;&gt;Node6</title>
<g id="a_edge15_Node000007_Node000006"><a xlink:title=" ">
<path fill="none" stroke="#63b8ff" d="M366.16,-220.18C285.88,-207.66 189.72,-181.94 235.55,-133 259.67,-107.25 767.97,-89.72 942.97,-84.43"/>
<polygon fill="#63b8ff" stroke="#63b8ff" points="365.46,-223.62 375.87,-221.64 366.5,-216.69 365.46,-223.62"/>
</a>
</g>
</g>
<!-- Node7&#45;&gt;Node8 -->
<g id="edge8_Node000007_Node000008" class="edge">
<title>Node7&#45;&gt;Node8</title>
<g id="a_edge8_Node000007_Node000008"><a xlink:title=" ">
<path fill="none" stroke="#63b8ff" d="M552.87,-209.07C599.29,-198.35 655.06,-185.47 700.58,-174.96"/>
<polygon fill="#63b8ff" stroke="#63b8ff" points="552.33,-205.61 543.37,-211.27 553.9,-212.43 552.33,-205.61"/>
</a>
</g>
</g>
<!-- Node11 -->
<g id="Node000011" class="node">
<title>Node11</title>
<g id="a_Node000011"><a xlink:href="EmptyFragmentRequestHandlerModel_8hpp.html" target="_top" xlink:title=" ">
<polygon fill="white" stroke="#666666" points="446.18,-174.75 244.93,-174.75 244.93,-133 446.18,-133 446.18,-174.75"/>
<text text-anchor="start" x="252.93" y="-161.25" font-family="Helvetica,sans-Serif" font-size="10.00">sourcecode/readoutlibs</text>
<text text-anchor="start" x="252.93" y="-150" font-family="Helvetica,sans-Serif" font-size="10.00">/include/readoutlibs/models</text>
<text text-anchor="middle" x="345.55" y="-138.75" font-family="Helvetica,sans-Serif" font-size="10.00">/EmptyFragmentRequestHandlerModel.hpp</text>
</a>
</g>
</g>
<!-- Node7&#45;&gt;Node11 -->
<g id="edge11_Node000007_Node000011" class="edge">
<title>Node7&#45;&gt;Node11</title>
<g id="a_edge11_Node000007_Node000011"><a xlink:title=" ">
<path fill="none" stroke="#63b8ff" d="M419.46,-203.98C405.24,-194.54 389.49,-184.07 376.19,-175.23"/>
<polygon fill="#63b8ff" stroke="#63b8ff" points="417.48,-206.87 427.74,-209.49 421.35,-201.04 417.48,-206.87"/>
</a>
</g>
</g>
<!-- Node12 -->
<g id="Node000012" class="node">
<title>Node12</title>
<g id="a_Node000012"><a xlink:href="ZeroCopyRecordingRequestHandlerModel_8hpp.html" target="_top" xlink:title=" ">
<polygon fill="white" stroke="#666666" points="682.43,-174.75 464.68,-174.75 464.68,-133 682.43,-133 682.43,-174.75"/>
<text text-anchor="start" x="472.68" y="-161.25" font-family="Helvetica,sans-Serif" font-size="10.00">sourcecode/readoutlibs</text>
<text text-anchor="start" x="472.68" y="-150" font-family="Helvetica,sans-Serif" font-size="10.00">/include/readoutlibs/models</text>
<text text-anchor="middle" x="573.55" y="-138.75" font-family="Helvetica,sans-Serif" font-size="10.00">/ZeroCopyRecordingRequestHandlerModel.hpp</text>
</a>
</g>
</g>
<!-- Node7&#45;&gt;Node12 -->
<g id="edge13_Node000007_Node000012" class="edge">
<title>Node7&#45;&gt;Node12</title>
<g id="a_edge13_Node000007_Node000012"><a xlink:title=" ">
<path fill="none" stroke="#63b8ff" d="M499.65,-203.98C513.86,-194.54 529.62,-184.07 542.92,-175.23"/>
<polygon fill="#63b8ff" stroke="#63b8ff" points="497.76,-201.04 491.36,-209.49 501.63,-206.87 497.76,-201.04"/>
</a>
</g>
</g>
<!-- Node8&#45;&gt;Node9 -->
<g id="edge9_Node000008_Node000009" class="edge">
<title>Node8&#45;&gt;Node9</title>
<g id="a_edge9_Node000008_Node000009"><a xlink:title=" ">
<path fill="none" stroke="#63b8ff" d="M689.45,-131.51C638.85,-120.49 578.42,-107.33 533.1,-97.46"/>
<polygon fill="#63b8ff" stroke="#63b8ff" points="688.42,-134.87 698.94,-133.58 689.91,-128.03 688.42,-134.87"/>
</a>
</g>
</g>
<!-- Node10 -->
<g id="Node000010" class="node">
<title>Node10</title>
<g id="a_Node000010"><a xlink:href="TPRequestHandler_8cpp.html" target="_top" xlink:title=" ">
<polygon fill="white" stroke="#666666" points="533.55,-30.5 397.55,-30.5 397.55,0 533.55,0 533.55,-30.5"/>
<text text-anchor="start" x="405.55" y="-17" font-family="Helvetica,sans-Serif" font-size="10.00">sourcecode/trigger</text>
<text text-anchor="middle" x="465.55" y="-5.75" font-family="Helvetica,sans-Serif" font-size="10.00">/src/TPRequestHandler.cpp</text>
</a>
</g>
</g>
<!-- Node9&#45;&gt;Node10 -->
<g id="edge10_Node000009_Node000010" class="edge">
<title>Node9&#45;&gt;Node10</title>
<g id="a_edge10_Node000009_Node000010"><a xlink:title=" ">
<path fill="none" stroke="#63b8ff" d="M465.55,-54.81C465.55,-46.64 465.55,-37.91 465.55,-30.83"/>
<polygon fill="#63b8ff" stroke="#63b8ff" points="462.05,-54.6 465.55,-64.6 469.05,-54.6 462.05,-54.6"/>
</a>
</g>
</g>
<!-- Node11&#45;&gt;Node6 -->
<g id="edge12_Node000011_Node000006" class="edge">
<title>Node11&#45;&gt;Node6</title>
<g id="a_edge12_Node000011_Node000006"><a xlink:title=" ">
<path fill="none" stroke="#63b8ff" d="M457.69,-132.77C640.8,-108.3 845.1,-93.03 943.18,-86.45"/>
<polygon fill="#63b8ff" stroke="#63b8ff" points="457.44,-129.27 448,-134.08 458.38,-136.21 457.44,-129.27"/>
</a>
</g>
</g>
<!-- Node12&#45;&gt;Node6 -->
<g id="edge14_Node000012_Node000006" class="edge">
<title>Node12&#45;&gt;Node6</title>
<g id="a_edge14_Node000012_Node000006"><a xlink:title=" ">
<path fill="none" stroke="#63b8ff" d="M694.14,-132.58C786.97,-117.26 883.06,-101.76 942.97,-92.14"/>
<polygon fill="#63b8ff" stroke="#63b8ff" points="693.63,-129.11 684.33,-134.2 694.77,-136.02 693.63,-129.11"/>
</a>
</g>
</g>
<!-- Node13&#45;&gt;Node4 -->
<g id="edge19_Node000013_Node000004" class="edge">
<title>Node13&#45;&gt;Node4</title>
<g id="a_edge19_Node000013_Node000004"><a xlink:title=" ">
<path fill="none" stroke="#63b8ff" d="M2094.54,-284.29C2123.41,-274.21 2156.61,-262.63 2184.24,-252.98"/>
<polygon fill="#63b8ff" stroke="#63b8ff" points="2093.42,-280.98 2085.13,-287.58 2095.73,-287.59 2093.42,-280.98"/>
</a>
</g>
</g>
<!-- Node13&#45;&gt;Node6 -->
<g id="edge20_Node000013_Node000006" class="edge">
<title>Node13&#45;&gt;Node6</title>
<g id="a_edge20_Node000013_Node000006"><a xlink:title=" ">
<path fill="none" stroke="#63b8ff" d="M2070.88,-281.36C2080.43,-273.35 2089.22,-263.68 2094.55,-252.5 2102.54,-235.75 2105.6,-225.66 2094.55,-210.75 2023.73,-115.23 1955.6,-153.99 1838.55,-133 1688.64,-106.12 1224.59,-89.61 1060.1,-84.48"/>
<polygon fill="#63b8ff" stroke="#63b8ff" points="2068.95,-278.43 2063.18,-287.31 2073.23,-283.97 2068.95,-278.43"/>
</a>
</g>
</g>
<!-- Node13&#45;&gt;Node14 -->
<g id="edge21_Node000013_Node000014" class="edge">
<title>Node13&#45;&gt;Node14</title>
<g id="a_edge21_Node000013_Node000014"><a xlink:title=" ">
<path fill="none" stroke="#63b8ff" d="M2028.54,-276.69C2028.71,-254.81 2024.79,-226.85 2006.55,-210.75 2002.96,-207.58 1427.06,-170.28 1243.25,-158.45"/>
<polygon fill="#63b8ff" stroke="#63b8ff" points="2025.05,-276.46 2028.16,-286.59 2032.04,-276.73 2025.05,-276.46"/>
</a>
</g>
</g>
<!-- Node13&#45;&gt;Node15 -->
<g id="edge22_Node000013_Node000015" class="edge">
<title>Node13&#45;&gt;Node15</title>
<g id="a_edge22_Node000013_Node000015"><a xlink:title=" ">
<path fill="none" stroke="#63b8ff" d="M2057.68,-280.04C2077.23,-259.4 2095.31,-231.54 2077.55,-210.75 2039.97,-166.76 1869.8,-157.21 1780.17,-155.27"/>
<polygon fill="#63b8ff" stroke="#63b8ff" points="2055.27,-277.5 2050.68,-287.05 2060.22,-282.45 2055.27,-277.5"/>
</a>
</g>
</g>
<!-- Node13&#45;&gt;Node16 -->
<g id="edge23_Node000013_Node000016" class="edge">
<title>Node13&#45;&gt;Node16</title>
<g id="a_edge23_Node000013_Node000016"><a xlink:title=" ">
<path fill="none" stroke="#63b8ff" d="M2041.41,-277.56C2049.94,-256.22 2055.74,-228.55 2039.55,-210.75 2011.09,-179.46 1702.42,-180.8 1660.55,-174.75 1645.46,-172.57 1629.22,-169.66 1614.24,-166.75"/>
<polygon fill="#63b8ff" stroke="#63b8ff" points="2038.23,-276.11 2037.42,-286.67 2044.64,-278.92 2038.23,-276.11"/>
</a>
</g>
</g>
<!-- Node17&#45;&gt;Node6 -->
<g id="edge25_Node000017_Node000006" class="edge">
<title>Node17&#45;&gt;Node6</title>
<g id="a_edge25_Node000017_Node000006"><a xlink:title=" ">
<path fill="none" stroke="#63b8ff" d="M1604.9,-278.46C1628.4,-239.86 1659.39,-172.94 1622.55,-133 1584.88,-92.15 1207.53,-84.5 1060.12,-83.08"/>
<polygon fill="#63b8ff" stroke="#63b8ff" points="1602.01,-276.48 1599.64,-286.81 1607.93,-280.22 1602.01,-276.48"/>
</a>
</g>
</g>
<!-- Node18&#45;&gt;Node6 -->
<g id="edge28_Node000018_Node000006" class="edge">
<title>Node18&#45;&gt;Node6</title>
<g id="a_edge28_Node000018_Node000006"><a xlink:title=" ">
<path fill="none" stroke="#63b8ff" d="M836.94,-204.95C852.63,-196.33 869.37,-186.01 883.55,-174.75 903.2,-159.15 902.31,-149.1 921.55,-133 937.91,-119.32 958.28,-106.57 974.38,-97.34"/>
<polygon fill="#63b8ff" stroke="#63b8ff" points="835.32,-201.85 828.15,-209.65 838.62,-208.02 835.32,-201.85"/>
</a>
</g>
</g>
<!-- Node18&#45;&gt;Node8 -->
<g id="edge27_Node000018_Node000008" class="edge">
<title>Node18&#45;&gt;Node8</title>
<g id="a_edge27_Node000018_Node000008"><a xlink:title=" ">
<path fill="none" stroke="#63b8ff" d="M785.22,-199C785.65,-190.96 786.09,-182.54 786.48,-175.23"/>
<polygon fill="#63b8ff" stroke="#63b8ff" points="781.74,-198.64 784.7,-208.81 788.73,-199.01 781.74,-198.64"/>
</a>
</g>
</g>
<!-- Node19&#45;&gt;Node6 -->
<g id="edge30_Node000019_Node000006" class="edge">
<title>Node19&#45;&gt;Node6</title>
<g id="a_edge30_Node000019_Node000006"><a xlink:title=" ">
<path fill="none" stroke="#63b8ff" d="M1900.96,-203.08C1873.94,-179.8 1831.74,-147.94 1788.55,-133 1654.07,-86.48 1219.07,-82.38 1060.27,-82.48"/>
<polygon fill="#63b8ff" stroke="#63b8ff" points="1898.56,-205.63 1908.38,-209.6 1903.18,-200.37 1898.56,-205.63"/>
</a>
</g>
</g>
<!-- Node20&#45;&gt;Node2 -->
<g id="edge32_Node000020_Node000002" class="edge">
<title>Node20&#45;&gt;Node2</title>
<g id="a_edge32_Node000020_Node000002"><a xlink:title=" ">
<path fill="none" stroke="#63b8ff" d="M1181.69,-285.08C1136.85,-272.78 1083.18,-258.05 1044.14,-247.33"/>
<polygon fill="#63b8ff" stroke="#63b8ff" points="1180.56,-288.4 1191.13,-287.67 1182.41,-281.65 1180.56,-288.4"/>
</a>
</g>
</g>
<!-- Node20&#45;&gt;Node6 -->
<g id="edge33_Node000020_Node000006" class="edge">
<title>Node20&#45;&gt;Node6</title>
<g id="a_edge33_Node000020_Node000006"><a xlink:title=" ">
<path fill="none" stroke="#63b8ff" d="M1171.22,-291.63C1147.91,-283.35 1124.98,-270.98 1108.55,-252.5 1072.38,-211.8 1113.02,-177.44 1081.55,-133 1070.56,-117.47 1053.1,-105.7 1037.3,-97.47"/>
<polygon fill="#63b8ff" stroke="#63b8ff" points="1169.9,-294.88 1180.5,-294.68 1172.09,-288.23 1169.9,-294.88"/>
</a>
</g>
</g>
<!-- Node21 -->
<g id="Node000021" class="node">
<title>Node21</title>
<g id="a_Node000021"><a xlink:href="TAProcessor_8hpp.html" target="_top" xlink:title=" ">
<polygon fill="white" stroke="#666666" points="1257.8,-246.88 1117.3,-246.88 1117.3,-216.38 1257.8,-216.38 1257.8,-246.88"/>
<text text-anchor="start" x="1125.3" y="-233.38" font-family="Helvetica,sans-Serif" font-size="10.00">sourcecode/trigger</text>
<text text-anchor="middle" x="1187.55" y="-222.12" font-family="Helvetica,sans-Serif" font-size="10.00">/src/trigger/TAProcessor.hpp</text>
</a>
</g>
</g>
<!-- Node20&#45;&gt;Node21 -->
<g id="edge34_Node000020_Node000021" class="edge">
<title>Node20&#45;&gt;Node21</title>
<g id="a_edge34_Node000020_Node000021"><a xlink:title=" ">
<path fill="none" stroke="#63b8ff" d="M1237.1,-280.13C1225.32,-268.84 1212.27,-256.33 1202.52,-246.98"/>
<polygon fill="#63b8ff" stroke="#63b8ff" points="1234.65,-282.63 1244.29,-287.03 1239.49,-277.58 1234.65,-282.63"/>
</a>
</g>
</g>
<!-- Node22 -->
<g id="Node000022" class="node">
<title>Node22</title>
<g id="a_Node000022"><a xlink:href="TCProcessor_8hpp.html" target="_top" xlink:title=" ">
<polygon fill="white" stroke="#666666" points="1575.8,-246.88 1435.3,-246.88 1435.3,-216.38 1575.8,-216.38 1575.8,-246.88"/>
<text text-anchor="start" x="1443.3" y="-233.38" font-family="Helvetica,sans-Serif" font-size="10.00">sourcecode/trigger</text>
<text text-anchor="middle" x="1505.55" y="-222.12" font-family="Helvetica,sans-Serif" font-size="10.00">/src/trigger/TCProcessor.hpp</text>
</a>
</g>
</g>
<!-- Node20&#45;&gt;Node22 -->
<g id="edge36_Node000020_Node000022" class="edge">
<title>Node20&#45;&gt;Node22</title>
<g id="a_edge36_Node000020_Node000022"><a xlink:title=" ">
<path fill="none" stroke="#63b8ff" d="M1341.27,-284.69C1379.85,-272.47 1425.7,-257.93 1459.15,-247.33"/>
<polygon fill="#63b8ff" stroke="#63b8ff" points="1340.52,-281.26 1332.04,-287.62 1342.63,-287.93 1340.52,-281.26"/>
</a>
</g>
</g>
<!-- Node23 -->
<g id="Node000023" class="node">
<title>Node23</title>
<g id="a_Node000023"><a xlink:href="TPProcessor_8hpp.html" target="_top" xlink:title=" ">
<polygon fill="white" stroke="#666666" points="1416.8,-246.88 1276.3,-246.88 1276.3,-216.38 1416.8,-216.38 1416.8,-246.88"/>
<text text-anchor="start" x="1284.3" y="-233.38" font-family="Helvetica,sans-Serif" font-size="10.00">sourcecode/trigger</text>
<text text-anchor="middle" x="1346.55" y="-222.12" font-family="Helvetica,sans-Serif" font-size="10.00">/src/trigger/TPProcessor.hpp</text>
</a>
</g>
</g>
<!-- Node20&#45;&gt;Node23 -->
<g id="edge38_Node000020_Node000023" class="edge">
<title>Node20&#45;&gt;Node23</title>
<g id="a_edge38_Node000020_Node000023"><a xlink:title=" ">
<path fill="none" stroke="#63b8ff" d="M1296.32,-280.19C1308.16,-268.98 1321.28,-256.55 1331.14,-247.21"/>
<polygon fill="#63b8ff" stroke="#63b8ff" points="1293.95,-277.62 1289.09,-287.03 1298.76,-282.7 1293.95,-277.62"/>
</a>
</g>
</g>
<!-- Node21&#45;&gt;Node14 -->
<g id="edge35_Node000021_Node000014" class="edge">
<title>Node21&#45;&gt;Node14</title>
<g id="a_edge35_Node000021_Node000014"><a xlink:title=" ">
<path fill="none" stroke="#63b8ff" d="M1187.55,-204.6C1187.55,-192.84 1187.55,-179.38 1187.55,-169.44"/>
<polygon fill="#63b8ff" stroke="#63b8ff" points="1184.05,-204.51 1187.55,-214.51 1191.05,-204.51 1184.05,-204.51"/>
</a>
</g>
</g>
<!-- Node22&#45;&gt;Node15 -->
<g id="edge37_Node000022_Node000015" class="edge">
<title>Node22&#45;&gt;Node15</title>
<g id="a_edge37_Node000022_Node000015"><a xlink:title=" ">
<path fill="none" stroke="#63b8ff" d="M1558.88,-212.18C1596.78,-199.07 1647.01,-181.7 1682.19,-169.53"/>
<polygon fill="#63b8ff" stroke="#63b8ff" points="1557.77,-208.86 1549.47,-215.44 1560.06,-215.47 1557.77,-208.86"/>
</a>
</g>
</g>
<!-- Node23&#45;&gt;Node16 -->
<g id="edge39_Node000023_Node000016" class="edge">
<title>Node23&#45;&gt;Node16</title>
<g id="a_edge39_Node000023_Node000016"><a xlink:title=" ">
<path fill="none" stroke="#63b8ff" d="M1398.17,-212.18C1434.87,-199.07 1483.49,-181.7 1517.54,-169.53"/>
<polygon fill="#63b8ff" stroke="#63b8ff" points="1397.34,-208.76 1389.11,-215.42 1399.7,-215.35 1397.34,-208.76"/>
</a>
</g>
</g>
<!-- Node25&#45;&gt;Node7 -->
<g id="edge46_Node000025_Node000007" class="edge">
<title>Node25&#45;&gt;Node7</title>
<g id="a_edge46_Node000025_Node000007"><a xlink:title=" ">
<path fill="none" stroke="#63b8ff" d="M375.65,-282.28C391.85,-272.69 409.94,-261.99 425.16,-252.98"/>
<polygon fill="#63b8ff" stroke="#63b8ff" points="373.98,-279.2 367.16,-287.3 377.55,-285.22 373.98,-279.2"/>
</a>
</g>
</g>
<!-- Node26 -->
<g id="Node000026" class="node">
<title>Node26</title>
<g id="a_Node000026"><a xlink:href="RecorderConcept_8hpp.html" target="_top" xlink:title=" ">
<polygon fill="white" stroke="#666666" points="253.93,-252.5 111.18,-252.5 111.18,-210.75 253.93,-210.75 253.93,-252.5"/>
<text text-anchor="start" x="119.18" y="-239" font-family="Helvetica,sans-Serif" font-size="10.00">sourcecode/readoutlibs</text>
<text text-anchor="start" x="119.18" y="-227.75" font-family="Helvetica,sans-Serif" font-size="10.00">/include/readoutlibs/concepts</text>
<text text-anchor="middle" x="182.55" y="-216.5" font-family="Helvetica,sans-Serif" font-size="10.00">/RecorderConcept.hpp</text>
</a>
</g>
</g>
<!-- Node25&#45;&gt;Node26 -->
<g id="edge42_Node000025_Node000026" class="edge">
<title>Node25&#45;&gt;Node26</title>
<g id="a_edge42_Node000025_Node000026"><a xlink:title=" ">
<path fill="none" stroke="#63b8ff" d="M281.55,-282.95C262.36,-273.2 240.73,-262.2 222.59,-252.98"/>
<polygon fill="#63b8ff" stroke="#63b8ff" points="279.77,-285.98 290.27,-287.39 282.95,-279.74 279.77,-285.98"/>
</a>
</g>
</g>
<!-- Node27 -->
<g id="Node000027" class="node">
<title>Node27</title>
<g id="a_Node000027"><a xlink:href="RecorderModel_8hpp.html" target="_top" xlink:title=" ">
<polygon fill="white" stroke="#666666" points="150.8,-174.75 16.3,-174.75 16.3,-133 150.8,-133 150.8,-174.75"/>
<text text-anchor="start" x="24.3" y="-161.25" font-family="Helvetica,sans-Serif" font-size="10.00">sourcecode/readoutlibs</text>
<text text-anchor="start" x="24.3" y="-150" font-family="Helvetica,sans-Serif" font-size="10.00">/include/readoutlibs/models</text>
<text text-anchor="middle" x="83.55" y="-138.75" font-family="Helvetica,sans-Serif" font-size="10.00">/RecorderModel.hpp</text>
</a>
</g>
</g>
<!-- Node25&#45;&gt;Node27 -->
<g id="edge47_Node000025_Node000027" class="edge">
<title>Node25&#45;&gt;Node27</title>
<g id="a_edge47_Node000025_Node000027"><a xlink:title=" ">
<path fill="none" stroke="#63b8ff" d="M259.46,-299.34C200.68,-290.47 124.01,-275 102.55,-252.5 82.77,-231.76 80.65,-196.87 81.61,-174.9"/>
<polygon fill="#63b8ff" stroke="#63b8ff" points="258.68,-302.76 269.08,-300.75 259.69,-295.83 258.68,-302.76"/>
</a>
</g>
</g>
<!-- Node26&#45;&gt;Node6 -->
<g id="edge45_Node000026_Node000006" class="edge">
<title>Node26&#45;&gt;Node6</title>
<g id="a_edge45_Node000026_Node000006"><a xlink:title=" ">
<path fill="none" stroke="#63b8ff" d="M186.01,-199.06C190.25,-176.79 199.65,-148.3 220.55,-133 249.61,-111.73 766.14,-91.23 942.84,-84.81"/>
<polygon fill="#63b8ff" stroke="#63b8ff" points="182.57,-198.42 184.44,-208.85 189.48,-199.54 182.57,-198.42"/>
</a>
</g>
</g>
<!-- Node26&#45;&gt;Node27 -->
<g id="edge43_Node000026_Node000027" class="edge">
<title>Node26&#45;&gt;Node27</title>
<g id="a_edge43_Node000026_Node000027"><a xlink:title=" ">
<path fill="none" stroke="#63b8ff" d="M147.02,-203.44C134.86,-194.14 121.48,-183.9 110.16,-175.23"/>
<polygon fill="#63b8ff" stroke="#63b8ff" points="144.75,-206.11 154.82,-209.41 149.01,-200.55 144.75,-206.11"/>
</a>
</g>
</g>
<!-- Node27&#45;&gt;Node6 -->
<g id="edge44_Node000027_Node000006" class="edge">
<title>Node27&#45;&gt;Node6</title>
<g id="a_edge44_Node000027_Node000006"><a xlink:title=" ">
<path fill="none" stroke="#63b8ff" d="M162.04,-133.39C162.88,-133.26 163.72,-133.13 164.55,-133 315.14,-110.2 778.77,-91.1 943.07,-84.88"/>
<polygon fill="#63b8ff" stroke="#63b8ff" points="161.71,-129.9 152.48,-135.1 162.94,-136.79 161.71,-129.9"/>
</a>
</g>
</g>
<!-- Node28&#45;&gt;Node19 -->
<g id="edge49_Node000028_Node000019" class="edge">
<title>Node28&#45;&gt;Node19</title>
<g id="a_edge49_Node000028_Node000019"><a xlink:title=" ">
<path fill="none" stroke="#63b8ff" d="M1827.96,-283.09C1847.86,-273.3 1870.34,-262.24 1889.17,-252.98"/>
<polygon fill="#63b8ff" stroke="#63b8ff" points="1826.61,-279.85 1819.18,-287.41 1829.7,-286.13 1826.61,-279.85"/>
</a>
</g>
</g>
<!-- Node29 -->
<g id="Node000029" class="node">
<title>Node29</title>
<g id="a_Node000029"><a xlink:href="FakeCardReaderBase_8hpp.html" target="_top" xlink:title=" ">
<polygon fill="white" stroke="#666666" points="1845.68,-252.5 1707.43,-252.5 1707.43,-210.75 1845.68,-210.75 1845.68,-252.5"/>
<text text-anchor="start" x="1715.43" y="-239" font-family="Helvetica,sans-Serif" font-size="10.00">sourcecode/readoutmodules</text>
<text text-anchor="start" x="1715.43" y="-227.75" font-family="Helvetica,sans-Serif" font-size="10.00">/include/readoutmodules</text>
<text text-anchor="middle" x="1776.55" y="-216.5" font-family="Helvetica,sans-Serif" font-size="10.00">/FakeCardReaderBase.hpp</text>
</a>
</g>
</g>
<!-- Node28&#45;&gt;Node29 -->
<g id="edge50_Node000028_Node000029" class="edge">
<title>Node28&#45;&gt;Node29</title>
<g id="a_edge50_Node000028_Node000029"><a xlink:title=" ">
<path fill="none" stroke="#63b8ff" d="M1776.55,-276.75C1776.55,-268.71 1776.55,-260.29 1776.55,-252.98"/>
<polygon fill="#63b8ff" stroke="#63b8ff" points="1773.05,-276.56 1776.55,-286.56 1780.05,-276.56 1773.05,-276.56"/>
</a>
</g>
</g>
</g>
</svg>
