<?xml version="1.0" encoding="UTF-8" standalone="no"?>
<!DOCTYPE svg PUBLIC "-//W3C//DTD SVG 1.1//EN"
 "http://www.w3.org/Graphics/SVG/1.1/DTD/svg11.dtd">
<!-- Generated by graphviz version 9.0.0 (20230911.1827)
 -->
<!-- Title: sourcecode/oks/include/oks/relationship.hpp Pages: 1 -->
<svg width="4441pt" height="272pt"
 viewBox="0.00 0.00 4441.38 271.75" xmlns="http://www.w3.org/2000/svg" xmlns:xlink="http://www.w3.org/1999/xlink">
<g id="graph0" class="graph" transform="scale(1 1) rotate(0) translate(4 267.75)">
<title>sourcecode/oks/include/oks/relationship.hpp</title>
<!-- Node1 -->
<g id="Node000001" class="node">
<title>Node1</title>
<g id="a_Node000001"><a xlink:title=" ">
<polygon fill="#999999" stroke="#666666" points="3239.88,-263.75 3121.12,-263.75 3121.12,-233.25 3239.88,-233.25 3239.88,-263.75"/>
<text text-anchor="start" x="3129.12" y="-250.25" font-family="Helvetica,sans-Serif" font-size="10.00">sourcecode/oks/include</text>
<text text-anchor="middle" x="3180.5" y="-239" font-family="Helvetica,sans-Serif" font-size="10.00">/oks/relationship.hpp</text>
</a>
</g>
</g>
<!-- Node2 -->
<g id="Node000002" class="node">
<title>Node2</title>
<g id="a_Node000002"><a xlink:href="SchemaCommand_8hpp.html" target="_top" xlink:title=" ">
<polygon fill="white" stroke="#666666" points="1284.5,-191.62 1148.5,-191.62 1148.5,-161.12 1284.5,-161.12 1284.5,-191.62"/>
<text text-anchor="start" x="1156.5" y="-178.12" font-family="Helvetica,sans-Serif" font-size="10.00">sourcecode/dbe/include</text>
<text text-anchor="middle" x="1216.5" y="-166.88" font-family="Helvetica,sans-Serif" font-size="10.00">/dbe/SchemaCommand.hpp</text>
</a>
</g>
</g>
<!-- Node1&#45;&gt;Node2 -->
<g id="edge1_Node000001_Node000002" class="edge">
<title>Node1&#45;&gt;Node2</title>
<g id="a_edge1_Node000001_Node000002"><a xlink:title=" ">
<path fill="none" stroke="#63b8ff" d="M3109.22,-244.96C2801.26,-233.96 1586.9,-190.6 1284.82,-179.81"/>
<polygon fill="#63b8ff" stroke="#63b8ff" points="3109.02,-248.45 3119.14,-245.31 3109.27,-241.45 3109.02,-248.45"/>
</a>
</g>
</g>
<!-- Node18 -->
<g id="Node000018" class="node">
<title>Node18</title>
<g id="a_Node000018"><a xlink:href="SchemaCustomRelationshipModel_8hpp.html" target="_top" xlink:title=" ">
<polygon fill="white" stroke="#666666" points="2191.88,-197.25 2031.12,-197.25 2031.12,-155.5 2191.88,-155.5 2191.88,-197.25"/>
<text text-anchor="start" x="2039.12" y="-183.75" font-family="Helvetica,sans-Serif" font-size="10.00">sourcecode/dbe/include</text>
<text text-anchor="start" x="2039.12" y="-172.5" font-family="Helvetica,sans-Serif" font-size="10.00">/dbe/SchemaCustomRelationship</text>
<text text-anchor="middle" x="2111.5" y="-161.25" font-family="Helvetica,sans-Serif" font-size="10.00">Model.hpp</text>
</a>
</g>
</g>
<!-- Node1&#45;&gt;Node18 -->
<g id="edge18_Node000001_Node000018" class="edge">
<title>Node1&#45;&gt;Node18</title>
<g id="a_edge18_Node000001_Node000018"><a xlink:title=" ">
<path fill="none" stroke="#63b8ff" d="M3109.57,-247.94C2947.64,-248.07 2538.64,-243.34 2200.5,-197.25 2197.68,-196.87 2194.81,-196.44 2191.92,-195.97"/>
<polygon fill="#63b8ff" stroke="#63b8ff" points="3109.29,-251.44 3119.28,-247.93 3109.28,-244.44 3109.29,-251.44"/>
</a>
</g>
</g>
<!-- Node21 -->
<g id="Node000021" class="node">
<title>Node21</title>
<g id="a_Node000021"><a xlink:href="SchemaCustomSubClassModel_8hpp.html" target="_top" xlink:title=" ">
<polygon fill="white" stroke="#666666" points="2403.38,-191.62 2209.62,-191.62 2209.62,-161.12 2403.38,-161.12 2403.38,-191.62"/>
<text text-anchor="start" x="2217.62" y="-178.12" font-family="Helvetica,sans-Serif" font-size="10.00">sourcecode/dbe/include</text>
<text text-anchor="middle" x="2306.5" y="-166.88" font-family="Helvetica,sans-Serif" font-size="10.00">/dbe/SchemaCustomSubClassModel.hpp</text>
</a>
</g>
</g>
<!-- Node1&#45;&gt;Node21 -->
<g id="edge24_Node000001_Node000021" class="edge">
<title>Node1&#45;&gt;Node21</title>
<g id="a_edge24_Node000001_Node000021"><a xlink:title=" ">
<path fill="none" stroke="#63b8ff" d="M3109.57,-245.7C2973.79,-241.63 2667.88,-229.43 2412.5,-197.25 2401.54,-195.87 2390,-194.07 2378.73,-192.12"/>
<polygon fill="#63b8ff" stroke="#63b8ff" points="3109.4,-249.2 3119.5,-245.99 3109.6,-242.2 3109.4,-249.2"/>
</a>
</g>
</g>
<!-- Node23 -->
<g id="Node000023" class="node">
<title>Node23</title>
<g id="a_Node000023"><a xlink:href="SchemaCustomSuperClassModel_8hpp.html" target="_top" xlink:title=" ">
<polygon fill="white" stroke="#666666" points="2623.5,-191.62 2421.5,-191.62 2421.5,-161.12 2623.5,-161.12 2623.5,-191.62"/>
<text text-anchor="start" x="2429.5" y="-178.12" font-family="Helvetica,sans-Serif" font-size="10.00">sourcecode/dbe/include</text>
<text text-anchor="middle" x="2522.5" y="-166.88" font-family="Helvetica,sans-Serif" font-size="10.00">/dbe/SchemaCustomSuperClassModel.hpp</text>
</a>
</g>
</g>
<!-- Node1&#45;&gt;Node23 -->
<g id="edge27_Node000001_Node000023" class="edge">
<title>Node1&#45;&gt;Node23</title>
<g id="a_edge27_Node000001_Node000023"><a xlink:title=" ">
<path fill="none" stroke="#63b8ff" d="M3109.34,-242.97C3004.6,-235.85 2802.9,-220.41 2632.5,-197.25 2621.64,-195.77 2610.21,-193.98 2599,-192.08"/>
<polygon fill="#63b8ff" stroke="#63b8ff" points="3108.98,-246.45 3119.2,-243.63 3109.45,-239.47 3108.98,-246.45"/>
</a>
</g>
</g>
<!-- Node25 -->
<g id="Node000025" class="node">
<title>Node25</title>
<g id="a_Node000025"><a xlink:href="SchemaRelationshipEditor_8hpp.html" target="_top" xlink:title=" ">
<polygon fill="white" stroke="#666666" points="2032.38,-113.88 1862.62,-113.88 1862.62,-83.38 2032.38,-83.38 2032.38,-113.88"/>
<text text-anchor="start" x="1870.62" y="-100.38" font-family="Helvetica,sans-Serif" font-size="10.00">sourcecode/dbe/include</text>
<text text-anchor="middle" x="1947.5" y="-89.12" font-family="Helvetica,sans-Serif" font-size="10.00">/dbe/SchemaRelationshipEditor.hpp</text>
</a>
</g>
</g>
<!-- Node1&#45;&gt;Node25 -->
<g id="edge30_Node000001_Node000025" class="edge">
<title>Node1&#45;&gt;Node25</title>
<g id="a_edge30_Node000001_Node000025"><a xlink:title=" ">
<path fill="none" stroke="#63b8ff" d="M3109.44,-247.88C2872.45,-248.68 2118.62,-247.23 2022.5,-197.25 1987.61,-179.11 1964.13,-136.61 1953.68,-114.14"/>
<polygon fill="#63b8ff" stroke="#63b8ff" points="3109.17,-251.38 3119.15,-247.85 3109.14,-244.38 3109.17,-251.38"/>
</a>
</g>
</g>
<!-- Node26 -->
<g id="Node000026" class="node">
<title>Node26</title>
<g id="a_Node000026"><a xlink:href="genconfig_8cxx.html" target="_top" xlink:title=" ">
<polygon fill="white" stroke="#666666" points="2751.75,-191.62 2641.25,-191.62 2641.25,-161.12 2751.75,-161.12 2751.75,-191.62"/>
<text text-anchor="start" x="2649.25" y="-178.12" font-family="Helvetica,sans-Serif" font-size="10.00">sourcecode/genconfig</text>
<text text-anchor="middle" x="2696.5" y="-166.88" font-family="Helvetica,sans-Serif" font-size="10.00">/apps/genconfig.cxx</text>
</a>
</g>
</g>
<!-- Node1&#45;&gt;Node26 -->
<g id="edge35_Node000001_Node000026" class="edge">
<title>Node1&#45;&gt;Node26</title>
<g id="a_edge35_Node000001_Node000026"><a xlink:title=" ">
<path fill="none" stroke="#63b8ff" d="M3109.36,-242.95C3025.31,-236.67 2881.57,-223.07 2760.5,-197.25 2753.79,-195.82 2746.77,-193.99 2739.94,-192.03"/>
<polygon fill="#63b8ff" stroke="#63b8ff" points="3109.08,-246.44 3119.31,-243.68 3109.59,-239.46 3109.08,-246.44"/>
</a>
</g>
</g>
<!-- Node27 -->
<g id="Node000027" class="node">
<title>Node27</title>
<g id="a_Node000027"><a xlink:href="class_8cpp.html" target="_top" xlink:title=" ">
<polygon fill="white" stroke="#666666" points="2871.25,-191.62 2769.75,-191.62 2769.75,-161.12 2871.25,-161.12 2871.25,-191.62"/>
<text text-anchor="start" x="2777.75" y="-178.12" font-family="Helvetica,sans-Serif" font-size="10.00">sourcecode/oks/src</text>
<text text-anchor="middle" x="2820.5" y="-166.88" font-family="Helvetica,sans-Serif" font-size="10.00">/class.cpp</text>
</a>
</g>
</g>
<!-- Node1&#45;&gt;Node27 -->
<g id="edge36_Node000001_Node000027" class="edge">
<title>Node1&#45;&gt;Node27</title>
<g id="a_edge36_Node000001_Node000027"><a xlink:title=" ">
<path fill="none" stroke="#63b8ff" d="M3109.67,-238.77C3048.48,-230.48 2957.95,-216.44 2880.5,-197.25 2874.54,-195.77 2868.31,-193.99 2862.22,-192.11"/>
<polygon fill="#63b8ff" stroke="#63b8ff" points="3108.87,-242.19 3119.25,-240.05 3109.8,-235.26 3108.87,-242.19"/>
</a>
</g>
</g>
<!-- Node28 -->
<g id="Node000028" class="node">
<title>Node28</title>
<g id="a_Node000028"><a xlink:href="data_8cpp.html" target="_top" xlink:title=" ">
<polygon fill="white" stroke="#666666" points="2991.25,-191.62 2889.75,-191.62 2889.75,-161.12 2991.25,-161.12 2991.25,-191.62"/>
<text text-anchor="start" x="2897.75" y="-178.12" font-family="Helvetica,sans-Serif" font-size="10.00">sourcecode/oks/src</text>
<text text-anchor="middle" x="2940.5" y="-166.88" font-family="Helvetica,sans-Serif" font-size="10.00">/data.cpp</text>
</a>
</g>
</g>
<!-- Node1&#45;&gt;Node28 -->
<g id="edge37_Node000001_Node000028" class="edge">
<title>Node1&#45;&gt;Node28</title>
<g id="a_edge37_Node000001_Node000028"><a xlink:title=" ">
<path fill="none" stroke="#63b8ff" d="M3114.38,-229.85C3080.26,-220.54 3038.02,-208.7 3000.5,-197.25 2995.15,-195.62 2989.55,-193.85 2984.01,-192.06"/>
<polygon fill="#63b8ff" stroke="#63b8ff" points="3113.13,-233.14 3123.7,-232.39 3114.97,-226.38 3113.13,-233.14"/>
</a>
</g>
</g>
<!-- Node29 -->
<g id="Node000029" class="node">
<title>Node29</title>
<g id="a_Node000029"><a xlink:href="kernel_8cpp.html" target="_top" xlink:title=" ">
<polygon fill="white" stroke="#666666" points="3111.25,-191.62 3009.75,-191.62 3009.75,-161.12 3111.25,-161.12 3111.25,-191.62"/>
<text text-anchor="start" x="3017.75" y="-178.12" font-family="Helvetica,sans-Serif" font-size="10.00">sourcecode/oks/src</text>
<text text-anchor="middle" x="3060.5" y="-166.88" font-family="Helvetica,sans-Serif" font-size="10.00">/kernel.cpp</text>
</a>
</g>
</g>
<!-- Node1&#45;&gt;Node29 -->
<g id="edge38_Node000001_Node000029" class="edge">
<title>Node1&#45;&gt;Node29</title>
<g id="a_edge38_Node000001_Node000029"><a xlink:title=" ">
<path fill="none" stroke="#63b8ff" d="M3145.47,-227.03C3126.29,-215.82 3102.98,-202.2 3085.62,-192.06"/>
<polygon fill="#63b8ff" stroke="#63b8ff" points="3143.64,-230.01 3154.04,-232.04 3147.17,-223.97 3143.64,-230.01"/>
</a>
</g>
</g>
<!-- Node30 -->
<g id="Node000030" class="node">
<title>Node30</title>
<g id="a_Node000030"><a xlink:href="object_8cpp.html" target="_top" xlink:title=" ">
<polygon fill="white" stroke="#666666" points="3231.25,-191.62 3129.75,-191.62 3129.75,-161.12 3231.25,-161.12 3231.25,-191.62"/>
<text text-anchor="start" x="3137.75" y="-178.12" font-family="Helvetica,sans-Serif" font-size="10.00">sourcecode/oks/src</text>
<text text-anchor="middle" x="3180.5" y="-166.88" font-family="Helvetica,sans-Serif" font-size="10.00">/object.cpp</text>
</a>
</g>
</g>
<!-- Node1&#45;&gt;Node30 -->
<g id="edge39_Node000001_Node000030" class="edge">
<title>Node1&#45;&gt;Node30</title>
<g id="a_edge39_Node000001_Node000030"><a xlink:title=" ">
<path fill="none" stroke="#63b8ff" d="M3180.5,-221.52C3180.5,-211.51 3180.5,-200.44 3180.5,-191.89"/>
<polygon fill="#63b8ff" stroke="#63b8ff" points="3177,-221.46 3180.5,-231.46 3184,-221.46 3177,-221.46"/>
</a>
</g>
</g>
<!-- Node31 -->
<g id="Node000031" class="node">
<title>Node31</title>
<g id="a_Node000031"><a xlink:href="query_8cpp.html" target="_top" xlink:title=" ">
<polygon fill="white" stroke="#666666" points="3351.25,-191.62 3249.75,-191.62 3249.75,-161.12 3351.25,-161.12 3351.25,-191.62"/>
<text text-anchor="start" x="3257.75" y="-178.12" font-family="Helvetica,sans-Serif" font-size="10.00">sourcecode/oks/src</text>
<text text-anchor="middle" x="3300.5" y="-166.88" font-family="Helvetica,sans-Serif" font-size="10.00">/query.cpp</text>
</a>
</g>
</g>
<!-- Node1&#45;&gt;Node31 -->
<g id="edge40_Node000001_Node000031" class="edge">
<title>Node1&#45;&gt;Node31</title>
<g id="a_edge40_Node000001_Node000031"><a xlink:title=" ">
<path fill="none" stroke="#63b8ff" d="M3215.53,-227.03C3234.71,-215.82 3258.02,-202.2 3275.38,-192.06"/>
<polygon fill="#63b8ff" stroke="#63b8ff" points="3213.83,-223.97 3206.96,-232.04 3217.36,-230.01 3213.83,-223.97"/>
</a>
</g>
</g>
<!-- Node32 -->
<g id="Node000032" class="node">
<title>Node32</title>
<g id="a_Node000032"><a xlink:href="relationship_8cpp.html" target="_top" xlink:title=" ">
<polygon fill="white" stroke="#666666" points="3471.25,-191.62 3369.75,-191.62 3369.75,-161.12 3471.25,-161.12 3471.25,-191.62"/>
<text text-anchor="start" x="3377.75" y="-178.12" font-family="Helvetica,sans-Serif" font-size="10.00">sourcecode/oks/src</text>
<text text-anchor="middle" x="3420.5" y="-166.88" font-family="Helvetica,sans-Serif" font-size="10.00">/relationship.cpp</text>
</a>
</g>
</g>
<!-- Node1&#45;&gt;Node32 -->
<g id="edge41_Node000001_Node000032" class="edge">
<title>Node1&#45;&gt;Node32</title>
<g id="a_edge41_Node000001_Node000032"><a xlink:title=" ">
<path fill="none" stroke="#63b8ff" d="M3246.62,-229.85C3280.74,-220.54 3322.98,-208.7 3360.5,-197.25 3365.85,-195.62 3371.45,-193.85 3376.99,-192.06"/>
<polygon fill="#63b8ff" stroke="#63b8ff" points="3246.03,-226.38 3237.3,-232.39 3247.87,-233.14 3246.03,-226.38"/>
</a>
</g>
</g>
<!-- Node33 -->
<g id="Node000033" class="node">
<title>Node33</title>
<g id="a_Node000033"><a xlink:href="OksConfigObject_8cpp.html" target="_top" xlink:title=" ">
<polygon fill="white" stroke="#666666" points="3616,-191.62 3489,-191.62 3489,-161.12 3616,-161.12 3616,-191.62"/>
<text text-anchor="start" x="3497" y="-178.12" font-family="Helvetica,sans-Serif" font-size="10.00">sourcecode/oksconfig</text>
<text text-anchor="middle" x="3552.5" y="-166.88" font-family="Helvetica,sans-Serif" font-size="10.00">/src/OksConfigObject.cpp</text>
</a>
</g>
</g>
<!-- Node1&#45;&gt;Node33 -->
<g id="edge42_Node000001_Node000033" class="edge">
<title>Node1&#45;&gt;Node33</title>
<g id="a_edge42_Node000001_Node000033"><a xlink:title=" ">
<path fill="none" stroke="#63b8ff" d="M3251.38,-237.74C3312.42,-228.83 3402.71,-214.45 3480.5,-197.25 3487.46,-195.71 3494.76,-193.91 3501.92,-192.04"/>
<polygon fill="#63b8ff" stroke="#63b8ff" points="3251.23,-234.23 3241.83,-239.12 3252.23,-241.15 3251.23,-234.23"/>
</a>
</g>
</g>
<!-- Node34 -->
<g id="Node000034" class="node">
<title>Node34</title>
<g id="a_Node000034"><a xlink:href="OksConfiguration_8cpp.html" target="_top" xlink:title=" ">
<polygon fill="white" stroke="#666666" points="3761.38,-191.62 3633.62,-191.62 3633.62,-161.12 3761.38,-161.12 3761.38,-191.62"/>
<text text-anchor="start" x="3641.62" y="-178.12" font-family="Helvetica,sans-Serif" font-size="10.00">sourcecode/oksconfig</text>
<text text-anchor="middle" x="3697.5" y="-166.88" font-family="Helvetica,sans-Serif" font-size="10.00">/src/OksConfiguration.cpp</text>
</a>
</g>
</g>
<!-- Node1&#45;&gt;Node34 -->
<g id="edge43_Node000001_Node000034" class="edge">
<title>Node1&#45;&gt;Node34</title>
<g id="a_edge43_Node000001_Node000034"><a xlink:title=" ">
<path fill="none" stroke="#63b8ff" d="M3251.55,-242.93C3339.82,-236.46 3494.78,-222.51 3625.5,-197.25 3632.88,-195.82 3640.62,-194.02 3648.17,-192.09"/>
<polygon fill="#63b8ff" stroke="#63b8ff" points="3251.57,-239.42 3241.84,-243.63 3252.07,-246.4 3251.57,-239.42"/>
</a>
</g>
</g>
<!-- Node35 -->
<g id="Node000035" class="node">
<title>Node35</title>
<g id="a_Node000035"><a xlink:href="oks__diff__data_8cxx.html" target="_top" xlink:title=" ">
<polygon fill="white" stroke="#666666" points="3897.12,-191.62 3779.88,-191.62 3779.88,-161.12 3897.12,-161.12 3897.12,-191.62"/>
<text text-anchor="start" x="3787.88" y="-178.12" font-family="Helvetica,sans-Serif" font-size="10.00">sourcecode/oksutils</text>
<text text-anchor="middle" x="3838.5" y="-166.88" font-family="Helvetica,sans-Serif" font-size="10.00">/apps/oks_diff_data.cxx</text>
</a>
</g>
</g>
<!-- Node1&#45;&gt;Node35 -->
<g id="edge44_Node000001_Node000035" class="edge">
<title>Node1&#45;&gt;Node35</title>
<g id="a_edge44_Node000001_Node000035"><a xlink:title=" ">
<path fill="none" stroke="#63b8ff" d="M3251.47,-246.01C3362.9,-242.66 3585.3,-231.84 3770.5,-197.25 3777.75,-195.89 3785.34,-194.08 3792.71,-192.1"/>
<polygon fill="#63b8ff" stroke="#63b8ff" points="3251.47,-242.51 3241.58,-246.3 3251.67,-249.51 3251.47,-242.51"/>
</a>
</g>
</g>
<!-- Node36 -->
<g id="Node000036" class="node">
<title>Node36</title>
<g id="a_Node000036"><a xlink:href="oks__diff__schema_8cxx.html" target="_top" xlink:title=" ">
<polygon fill="white" stroke="#666666" points="4048,-191.62 3915,-191.62 3915,-161.12 4048,-161.12 4048,-191.62"/>
<text text-anchor="start" x="3923" y="-178.12" font-family="Helvetica,sans-Serif" font-size="10.00">sourcecode/oksutils</text>
<text text-anchor="middle" x="3981.5" y="-166.88" font-family="Helvetica,sans-Serif" font-size="10.00">/apps/oks_diff_schema.cxx</text>
</a>
</g>
</g>
<!-- Node1&#45;&gt;Node36 -->
<g id="edge45_Node000001_Node000036" class="edge">
<title>Node1&#45;&gt;Node36</title>
<g id="a_edge45_Node000001_Node000036"><a xlink:title=" ">
<path fill="none" stroke="#63b8ff" d="M3251.63,-247.04C3382.24,-245.22 3668.75,-236.61 3906.5,-197.25 3914.61,-195.91 3923.11,-194.08 3931.36,-192.07"/>
<polygon fill="#63b8ff" stroke="#63b8ff" points="3251.7,-243.54 3241.75,-247.17 3251.79,-250.54 3251.7,-243.54"/>
</a>
</g>
</g>
<!-- Node37 -->
<g id="Node000037" class="node">
<title>Node37</title>
<g id="a_Node000037"><a xlink:href="oks__report__equal__objects_8cxx.html" target="_top" xlink:title=" ">
<polygon fill="white" stroke="#666666" points="4183.12,-197.25 4065.88,-197.25 4065.88,-155.5 4183.12,-155.5 4183.12,-197.25"/>
<text text-anchor="start" x="4073.88" y="-183.75" font-family="Helvetica,sans-Serif" font-size="10.00">sourcecode/oksutils</text>
<text text-anchor="start" x="4073.88" y="-172.5" font-family="Helvetica,sans-Serif" font-size="10.00">/apps/oks_report_equal</text>
<text text-anchor="middle" x="4124.5" y="-161.25" font-family="Helvetica,sans-Serif" font-size="10.00">_objects.cxx</text>
</a>
</g>
</g>
<!-- Node1&#45;&gt;Node37 -->
<g id="edge46_Node000001_Node000037" class="edge">
<title>Node1&#45;&gt;Node37</title>
<g id="a_edge46_Node000001_Node000037"><a xlink:title=" ">
<path fill="none" stroke="#63b8ff" d="M3251.75,-245.54C3432.09,-240.24 3903.23,-224.18 4057.5,-197.25 4060.13,-196.79 4062.8,-196.26 4065.49,-195.68"/>
<polygon fill="#63b8ff" stroke="#63b8ff" points="3251.7,-242.04 3241.81,-245.83 3251.91,-249.04 3251.7,-242.04"/>
</a>
</g>
</g>
<!-- Node38 -->
<g id="Node000038" class="node">
<title>Node38</title>
<g id="a_Node000038"><a xlink:href="oks__report__no__descriptions_8cxx.html" target="_top" xlink:title=" ">
<polygon fill="white" stroke="#666666" points="4305.75,-197.25 4201.25,-197.25 4201.25,-155.5 4305.75,-155.5 4305.75,-197.25"/>
<text text-anchor="start" x="4209.25" y="-183.75" font-family="Helvetica,sans-Serif" font-size="10.00">sourcecode/oksutils</text>
<text text-anchor="start" x="4209.25" y="-172.5" font-family="Helvetica,sans-Serif" font-size="10.00">/apps/oks_report_no</text>
<text text-anchor="middle" x="4253.5" y="-161.25" font-family="Helvetica,sans-Serif" font-size="10.00">_descriptions.cxx</text>
</a>
</g>
</g>
<!-- Node1&#45;&gt;Node38 -->
<g id="edge47_Node000001_Node000038" class="edge">
<title>Node1&#45;&gt;Node38</title>
<g id="a_edge47_Node000001_Node000038"><a xlink:title=" ">
<path fill="none" stroke="#63b8ff" d="M3251.78,-246.41C3451.15,-242.99 4011.65,-230.59 4192.5,-197.25 4195.24,-196.75 4198.02,-196.15 4200.82,-195.49"/>
<polygon fill="#63b8ff" stroke="#63b8ff" points="3251.76,-242.91 3241.82,-246.58 3251.88,-249.91 3251.76,-242.91"/>
</a>
</g>
</g>
<!-- Node39 -->
<g id="Node000039" class="node">
<title>Node39</title>
<g id="a_Node000039"><a xlink:href="oks__tutorial_8cxx.html" target="_top" xlink:title=" ">
<polygon fill="white" stroke="#666666" points="4433.38,-191.62 4323.62,-191.62 4323.62,-161.12 4433.38,-161.12 4433.38,-191.62"/>
<text text-anchor="start" x="4331.62" y="-178.12" font-family="Helvetica,sans-Serif" font-size="10.00">sourcecode/oksutils</text>
<text text-anchor="middle" x="4378.5" y="-166.88" font-family="Helvetica,sans-Serif" font-size="10.00">/apps/oks_tutorial.cxx</text>
</a>
</g>
</g>
<!-- Node1&#45;&gt;Node39 -->
<g id="edge48_Node000001_Node000039" class="edge">
<title>Node1&#45;&gt;Node39</title>
<g id="a_edge48_Node000001_Node000039"><a xlink:title=" ">
<path fill="none" stroke="#63b8ff" d="M3251.7,-246.73C3466.97,-244.03 4108.86,-233.12 4314.5,-197.25 4321.72,-195.99 4329.26,-194.15 4336.53,-192.08"/>
<polygon fill="#63b8ff" stroke="#63b8ff" points="3251.72,-243.23 3241.77,-246.85 3251.81,-250.23 3251.72,-243.23"/>
</a>
</g>
</g>
<!-- Node3 -->
<g id="Node000003" class="node">
<title>Node3</title>
<g id="a_Node000003"><a xlink:href="SchemaCommand_8cpp.html" target="_top" xlink:title=" ">
<polygon fill="white" stroke="#666666" points="181,-36.12 0,-36.12 0,-5.62 181,-5.62 181,-36.12"/>
<text text-anchor="start" x="8" y="-22.62" font-family="Helvetica,sans-Serif" font-size="10.00">sourcecode/dbe/apps</text>
<text text-anchor="middle" x="90.5" y="-11.38" font-family="Helvetica,sans-Serif" font-size="10.00">/SchemaEditor/SchemaCommand.cpp</text>
</a>
</g>
</g>
<!-- Node2&#45;&gt;Node3 -->
<g id="edge2_Node000002_Node000003" class="edge">
<title>Node2&#45;&gt;Node3</title>
<g id="a_edge2_Node000002_Node000003"><a xlink:title=" ">
<path fill="none" stroke="#63b8ff" d="M1136.78,-166.89C963.75,-148.07 541.05,-99.84 189.5,-41.75 180.16,-40.21 170.36,-38.43 160.7,-36.59"/>
<polygon fill="#63b8ff" stroke="#63b8ff" points="1136.24,-170.35 1146.56,-167.95 1136.99,-163.39 1136.24,-170.35"/>
</a>
</g>
</g>
<!-- Node4 -->
<g id="Node000004" class="node">
<title>Node4</title>
<g id="a_Node000004"><a xlink:href="SchemaKernelWrapper_8hpp.html" target="_top" xlink:title=" ">
<polygon fill="white" stroke="#666666" points="1294.25,-113.88 1138.75,-113.88 1138.75,-83.38 1294.25,-83.38 1294.25,-113.88"/>
<text text-anchor="start" x="1146.75" y="-100.38" font-family="Helvetica,sans-Serif" font-size="10.00">sourcecode/dbe/include</text>
<text text-anchor="middle" x="1216.5" y="-89.12" font-family="Helvetica,sans-Serif" font-size="10.00">/dbe/SchemaKernelWrapper.hpp</text>
</a>
</g>
</g>
<!-- Node2&#45;&gt;Node4 -->
<g id="edge3_Node000002_Node000004" class="edge">
<title>Node2&#45;&gt;Node4</title>
<g id="a_edge3_Node000002_Node000004"><a xlink:title=" ">
<path fill="none" stroke="#63b8ff" d="M1216.5,-149.35C1216.5,-137.59 1216.5,-124.13 1216.5,-114.19"/>
<polygon fill="#63b8ff" stroke="#63b8ff" points="1213,-149.26 1216.5,-159.26 1220,-149.26 1213,-149.26"/>
</a>
</g>
</g>
<!-- Node4&#45;&gt;Node3 -->
<g id="edge6_Node000004_Node000003" class="edge">
<title>Node4&#45;&gt;Node3</title>
<g id="a_edge6_Node000004_Node000003"><a xlink:title=" ">
<path fill="none" stroke="#63b8ff" d="M1127.33,-94.42C912.3,-86.44 369.73,-64.62 189.5,-41.75 178.98,-40.41 167.9,-38.6 157.12,-36.61"/>
<polygon fill="#63b8ff" stroke="#63b8ff" points="1126.92,-97.91 1137.04,-94.78 1127.18,-90.92 1126.92,-97.91"/>
</a>
</g>
</g>
<!-- Node5 -->
<g id="Node000005" class="node">
<title>Node5</title>
<g id="a_Node000005"><a xlink:href="SchemaAttributeEditor_8cpp.html" target="_top" xlink:title=" ">
<polygon fill="white" stroke="#666666" points="354.25,-41.75 198.75,-41.75 198.75,0 354.25,0 354.25,-41.75"/>
<text text-anchor="start" x="206.75" y="-28.25" font-family="Helvetica,sans-Serif" font-size="10.00">sourcecode/dbe/apps</text>
<text text-anchor="start" x="206.75" y="-17" font-family="Helvetica,sans-Serif" font-size="10.00">/SchemaEditor/SchemaAttribute</text>
<text text-anchor="middle" x="276.5" y="-5.75" font-family="Helvetica,sans-Serif" font-size="10.00">Editor.cpp</text>
</a>
</g>
</g>
<!-- Node4&#45;&gt;Node5 -->
<g id="edge4_Node000004_Node000005" class="edge">
<title>Node4&#45;&gt;Node5</title>
<g id="a_edge4_Node000004_Node000005"><a xlink:title=" ">
<path fill="none" stroke="#63b8ff" d="M1127.07,-96.44C971.21,-93.34 640,-82.13 363.5,-41.75 360.59,-41.32 357.63,-40.85 354.64,-40.34"/>
<polygon fill="#63b8ff" stroke="#63b8ff" points="1126.86,-99.94 1136.93,-96.63 1127,-92.94 1126.86,-99.94"/>
</a>
</g>
</g>
<!-- Node6 -->
<g id="Node000006" class="node">
<title>Node6</title>
<g id="a_Node000006"><a xlink:href="SchemaClassEditor_8cpp.html" target="_top" xlink:title=" ">
<polygon fill="white" stroke="#666666" points="2316.62,-36.12 2130.38,-36.12 2130.38,-5.62 2316.62,-5.62 2316.62,-36.12"/>
<text text-anchor="start" x="2138.38" y="-22.62" font-family="Helvetica,sans-Serif" font-size="10.00">sourcecode/dbe/apps</text>
<text text-anchor="middle" x="2223.5" y="-11.38" font-family="Helvetica,sans-Serif" font-size="10.00">/SchemaEditor/SchemaClassEditor.cpp</text>
</a>
</g>
</g>
<!-- Node4&#45;&gt;Node6 -->
<g id="edge5_Node000004_Node000006" class="edge">
<title>Node4&#45;&gt;Node6</title>
<g id="a_edge5_Node000004_Node000006"><a xlink:title=" ">
<path fill="none" stroke="#63b8ff" d="M1305.99,-95.97C1468.86,-92.11 1824.34,-79.71 2121.5,-41.75 2132.15,-40.39 2143.36,-38.59 2154.29,-36.62"/>
<polygon fill="#63b8ff" stroke="#63b8ff" points="1306.03,-92.47 1296.11,-96.2 1306.19,-99.47 1306.03,-92.47"/>
</a>
</g>
</g>
<!-- Node7 -->
<g id="Node000007" class="node">
<title>Node7</title>
<g id="a_Node000007"><a xlink:href="SchemaCustomFileModel_8cpp.html" target="_top" xlink:title=" ">
<polygon fill="white" stroke="#666666" points="524.75,-41.75 372.25,-41.75 372.25,0 524.75,0 524.75,-41.75"/>
<text text-anchor="start" x="380.25" y="-28.25" font-family="Helvetica,sans-Serif" font-size="10.00">sourcecode/dbe/apps</text>
<text text-anchor="start" x="380.25" y="-17" font-family="Helvetica,sans-Serif" font-size="10.00">/SchemaEditor/SchemaCustom</text>
<text text-anchor="middle" x="448.5" y="-5.75" font-family="Helvetica,sans-Serif" font-size="10.00">FileModel.cpp</text>
</a>
</g>
</g>
<!-- Node4&#45;&gt;Node7 -->
<g id="edge7_Node000004_Node000007" class="edge">
<title>Node4&#45;&gt;Node7</title>
<g id="a_edge7_Node000004_Node000007"><a xlink:title=" ">
<path fill="none" stroke="#63b8ff" d="M1127.21,-94.45C996.46,-88.87 745.51,-74.6 534.5,-41.75 531.32,-41.26 528.08,-40.71 524.82,-40.12"/>
<polygon fill="#63b8ff" stroke="#63b8ff" points="1126.68,-97.93 1136.82,-94.85 1126.98,-90.94 1126.68,-97.93"/>
</a>
</g>
</g>
<!-- Node8 -->
<g id="Node000008" class="node">
<title>Node8</title>
<g id="a_Node000008"><a xlink:href="SchemaCustomModelInterface_8cpp.html" target="_top" xlink:title=" ">
<polygon fill="white" stroke="#666666" points="695.75,-41.75 543.25,-41.75 543.25,0 695.75,0 695.75,-41.75"/>
<text text-anchor="start" x="551.25" y="-28.25" font-family="Helvetica,sans-Serif" font-size="10.00">sourcecode/dbe/apps</text>
<text text-anchor="start" x="551.25" y="-17" font-family="Helvetica,sans-Serif" font-size="10.00">/SchemaEditor/SchemaCustom</text>
<text text-anchor="middle" x="619.5" y="-5.75" font-family="Helvetica,sans-Serif" font-size="10.00">ModelInterface.cpp</text>
</a>
</g>
</g>
<!-- Node4&#45;&gt;Node8 -->
<g id="edge8_Node000004_Node000008" class="edge">
<title>Node4&#45;&gt;Node8</title>
<g id="a_edge8_Node000004_Node000008"><a xlink:title=" ">
<path fill="none" stroke="#63b8ff" d="M1127.42,-91.1C1025.11,-82.85 852.43,-66.67 705.5,-41.75 702.33,-41.21 699.1,-40.63 695.84,-40.01"/>
<polygon fill="#63b8ff" stroke="#63b8ff" points="1126.87,-94.56 1137.11,-91.87 1127.42,-87.59 1126.87,-94.56"/>
</a>
</g>
</g>
<!-- Node9 -->
<g id="Node000009" class="node">
<title>Node9</title>
<g id="a_Node000009"><a xlink:href="SchemaCustomTableModel_8cpp.html" target="_top" xlink:title=" ">
<polygon fill="white" stroke="#666666" points="866.75,-41.75 714.25,-41.75 714.25,0 866.75,0 866.75,-41.75"/>
<text text-anchor="start" x="722.25" y="-28.25" font-family="Helvetica,sans-Serif" font-size="10.00">sourcecode/dbe/apps</text>
<text text-anchor="start" x="722.25" y="-17" font-family="Helvetica,sans-Serif" font-size="10.00">/SchemaEditor/SchemaCustom</text>
<text text-anchor="middle" x="790.5" y="-5.75" font-family="Helvetica,sans-Serif" font-size="10.00">TableModel.cpp</text>
</a>
</g>
</g>
<!-- Node4&#45;&gt;Node9 -->
<g id="edge9_Node000004_Node000009" class="edge">
<title>Node4&#45;&gt;Node9</title>
<g id="a_edge9_Node000004_Node000009"><a xlink:title=" ">
<path fill="none" stroke="#63b8ff" d="M1127.05,-84.53C1058.32,-74.08 961.14,-58.47 876.5,-41.75 873.34,-41.13 870.13,-40.47 866.88,-39.79"/>
<polygon fill="#63b8ff" stroke="#63b8ff" points="1126.35,-87.96 1136.76,-86 1127.4,-81.04 1126.35,-87.96"/>
</a>
</g>
</g>
<!-- Node10 -->
<g id="Node000010" class="node">
<title>Node10</title>
<g id="a_Node000010"><a xlink:href="SchemaGraphicArrow_8cpp.html" target="_top" xlink:title=" ">
<polygon fill="white" stroke="#666666" points="1037.75,-41.75 885.25,-41.75 885.25,0 1037.75,0 1037.75,-41.75"/>
<text text-anchor="start" x="893.25" y="-28.25" font-family="Helvetica,sans-Serif" font-size="10.00">sourcecode/dbe/apps</text>
<text text-anchor="start" x="893.25" y="-17" font-family="Helvetica,sans-Serif" font-size="10.00">/SchemaEditor/SchemaGraphic</text>
<text text-anchor="middle" x="961.5" y="-5.75" font-family="Helvetica,sans-Serif" font-size="10.00">Arrow.cpp</text>
</a>
</g>
</g>
<!-- Node4&#45;&gt;Node10 -->
<g id="edge10_Node000004_Node000010" class="edge">
<title>Node4&#45;&gt;Node10</title>
<g id="a_edge10_Node000004_Node000010"><a xlink:title=" ">
<path fill="none" stroke="#63b8ff" d="M1156.13,-79.69C1118.13,-68.4 1069.02,-53.81 1029.64,-42.12"/>
<polygon fill="#63b8ff" stroke="#63b8ff" points="1155,-83.01 1165.58,-82.5 1156.99,-76.3 1155,-83.01"/>
</a>
</g>
</g>
<!-- Node11 -->
<g id="Node000011" class="node">
<title>Node11</title>
<g id="a_Node000011"><a xlink:href="SchemaGraphicObject_8cpp.html" target="_top" xlink:title=" ">
<polygon fill="white" stroke="#666666" points="1208.75,-41.75 1056.25,-41.75 1056.25,0 1208.75,0 1208.75,-41.75"/>
<text text-anchor="start" x="1064.25" y="-28.25" font-family="Helvetica,sans-Serif" font-size="10.00">sourcecode/dbe/apps</text>
<text text-anchor="start" x="1064.25" y="-17" font-family="Helvetica,sans-Serif" font-size="10.00">/SchemaEditor/SchemaGraphic</text>
<text text-anchor="middle" x="1132.5" y="-5.75" font-family="Helvetica,sans-Serif" font-size="10.00">Object.cpp</text>
</a>
</g>
</g>
<!-- Node4&#45;&gt;Node11 -->
<g id="edge11_Node000004_Node000011" class="edge">
<title>Node4&#45;&gt;Node11</title>
<g id="a_edge11_Node000004_Node000011"><a xlink:title=" ">
<path fill="none" stroke="#63b8ff" d="M1191.88,-75.43C1180.22,-64.91 1166.38,-52.43 1155,-42.16"/>
<polygon fill="#63b8ff" stroke="#63b8ff" points="1189.41,-77.91 1199.18,-82.01 1194.1,-72.71 1189.41,-77.91"/>
</a>
</g>
</g>
<!-- Node12 -->
<g id="Node000012" class="node">
<title>Node12</title>
<g id="a_Node000012"><a xlink:href="SchemaGraphicsScene_8cpp.html" target="_top" xlink:title=" ">
<polygon fill="white" stroke="#666666" points="2492.38,-41.75 2334.62,-41.75 2334.62,0 2492.38,0 2492.38,-41.75"/>
<text text-anchor="start" x="2342.62" y="-28.25" font-family="Helvetica,sans-Serif" font-size="10.00">sourcecode/dbe/apps</text>
<text text-anchor="start" x="2342.62" y="-17" font-family="Helvetica,sans-Serif" font-size="10.00">/SchemaEditor/SchemaGraphics</text>
<text text-anchor="middle" x="2413.5" y="-5.75" font-family="Helvetica,sans-Serif" font-size="10.00">Scene.cpp</text>
</a>
</g>
</g>
<!-- Node4&#45;&gt;Node12 -->
<g id="edge12_Node000004_Node000012" class="edge">
<title>Node4&#45;&gt;Node12</title>
<g id="a_edge12_Node000004_Node000012"><a xlink:title=" ">
<path fill="none" stroke="#63b8ff" d="M1305.93,-95.1C1533.28,-88.37 2129.23,-68.66 2325.5,-41.75 2328.45,-41.35 2331.44,-40.89 2334.46,-40.4"/>
<polygon fill="#63b8ff" stroke="#63b8ff" points="1306.14,-91.6 1296.25,-95.39 1306.35,-98.59 1306.14,-91.6"/>
</a>
</g>
</g>
<!-- Node13 -->
<g id="Node000013" class="node">
<title>Node13</title>
<g id="a_Node000013"><a xlink:href="SchemaKernelWrapper_8cpp.html" target="_top" xlink:title=" ">
<polygon fill="white" stroke="#666666" points="1373.75,-41.75 1227.25,-41.75 1227.25,0 1373.75,0 1373.75,-41.75"/>
<text text-anchor="start" x="1235.25" y="-28.25" font-family="Helvetica,sans-Serif" font-size="10.00">sourcecode/dbe/apps</text>
<text text-anchor="start" x="1235.25" y="-17" font-family="Helvetica,sans-Serif" font-size="10.00">/SchemaEditor/SchemaKernel</text>
<text text-anchor="middle" x="1300.5" y="-5.75" font-family="Helvetica,sans-Serif" font-size="10.00">Wrapper.cpp</text>
</a>
</g>
</g>
<!-- Node4&#45;&gt;Node13 -->
<g id="edge13_Node000004_Node000013" class="edge">
<title>Node4&#45;&gt;Node13</title>
<g id="a_edge13_Node000004_Node000013"><a xlink:title=" ">
<path fill="none" stroke="#63b8ff" d="M1241.12,-75.43C1252.78,-64.91 1266.62,-52.43 1278,-42.16"/>
<polygon fill="#63b8ff" stroke="#63b8ff" points="1238.9,-72.71 1233.82,-82.01 1243.59,-77.91 1238.9,-72.71"/>
</a>
</g>
</g>
<!-- Node14 -->
<g id="Node000014" class="node">
<title>Node14</title>
<g id="a_Node000014"><a xlink:href="SchemaMainWindow_8cpp.html" target="_top" xlink:title=" ">
<polygon fill="white" stroke="#666666" points="2112.62,-36.12 1920.38,-36.12 1920.38,-5.62 2112.62,-5.62 2112.62,-36.12"/>
<text text-anchor="start" x="1928.38" y="-22.62" font-family="Helvetica,sans-Serif" font-size="10.00">sourcecode/dbe/apps</text>
<text text-anchor="middle" x="2016.5" y="-11.38" font-family="Helvetica,sans-Serif" font-size="10.00">/SchemaEditor/SchemaMainWindow.cpp</text>
</a>
</g>
</g>
<!-- Node4&#45;&gt;Node14 -->
<g id="edge14_Node000004_Node000014" class="edge">
<title>Node4&#45;&gt;Node14</title>
<g id="a_edge14_Node000004_Node000014"><a xlink:title=" ">
<path fill="none" stroke="#63b8ff" d="M1305.98,-93.49C1438.64,-86.68 1695.11,-70.84 1911.5,-41.75 1922.16,-40.32 1933.39,-38.51 1944.37,-36.58"/>
<polygon fill="#63b8ff" stroke="#63b8ff" points="1306.02,-89.99 1296.21,-93.99 1306.38,-96.98 1306.02,-89.99"/>
</a>
</g>
</g>
<!-- Node15 -->
<g id="Node000015" class="node">
<title>Node15</title>
<g id="a_Node000015"><a xlink:href="SchemaMethodEditor_8cpp.html" target="_top" xlink:title=" ">
<polygon fill="white" stroke="#666666" points="1543,-41.75 1392,-41.75 1392,0 1543,0 1543,-41.75"/>
<text text-anchor="start" x="1400" y="-28.25" font-family="Helvetica,sans-Serif" font-size="10.00">sourcecode/dbe/apps</text>
<text text-anchor="start" x="1400" y="-17" font-family="Helvetica,sans-Serif" font-size="10.00">/SchemaEditor/SchemaMethod</text>
<text text-anchor="middle" x="1467.5" y="-5.75" font-family="Helvetica,sans-Serif" font-size="10.00">Editor.cpp</text>
</a>
</g>
</g>
<!-- Node4&#45;&gt;Node15 -->
<g id="edge15_Node000004_Node000015" class="edge">
<title>Node4&#45;&gt;Node15</title>
<g id="a_edge15_Node000004_Node000015"><a xlink:title=" ">
<path fill="none" stroke="#63b8ff" d="M1275.93,-79.69C1313.32,-68.4 1361.67,-53.81 1400.43,-42.12"/>
<polygon fill="#63b8ff" stroke="#63b8ff" points="1275.2,-76.25 1266.64,-82.49 1277.23,-82.95 1275.2,-76.25"/>
</a>
</g>
</g>
<!-- Node16 -->
<g id="Node000016" class="node">
<title>Node16</title>
<g id="a_Node000016"><a xlink:href="SchemaMethodImplementationEditor_8cpp.html" target="_top" xlink:title=" ">
<polygon fill="white" stroke="#666666" points="1712,-41.75 1561,-41.75 1561,0 1712,0 1712,-41.75"/>
<text text-anchor="start" x="1569" y="-28.25" font-family="Helvetica,sans-Serif" font-size="10.00">sourcecode/dbe/apps</text>
<text text-anchor="start" x="1569" y="-17" font-family="Helvetica,sans-Serif" font-size="10.00">/SchemaEditor/SchemaMethod</text>
<text text-anchor="middle" x="1636.5" y="-5.75" font-family="Helvetica,sans-Serif" font-size="10.00">ImplementationEditor.cpp</text>
</a>
</g>
</g>
<!-- Node4&#45;&gt;Node16 -->
<g id="edge16_Node000004_Node000016" class="edge">
<title>Node4&#45;&gt;Node16</title>
<g id="a_edge16_Node000004_Node000016"><a xlink:title=" ">
<path fill="none" stroke="#63b8ff" d="M1305.64,-84.36C1373.3,-73.9 1468.53,-58.35 1551.5,-41.75 1554.47,-41.16 1557.5,-40.53 1560.55,-39.89"/>
<polygon fill="#63b8ff" stroke="#63b8ff" points="1305.45,-80.85 1296.1,-85.83 1306.52,-87.76 1305.45,-80.85"/>
</a>
</g>
</g>
<!-- Node17 -->
<g id="Node000017" class="node">
<title>Node17</title>
<g id="a_Node000017"><a xlink:href="SchemaRelationshipEditor_8cpp.html" target="_top" xlink:title=" ">
<polygon fill="white" stroke="#666666" points="1902.5,-41.75 1730.5,-41.75 1730.5,0 1902.5,0 1902.5,-41.75"/>
<text text-anchor="start" x="1738.5" y="-28.25" font-family="Helvetica,sans-Serif" font-size="10.00">sourcecode/dbe/apps</text>
<text text-anchor="start" x="1738.5" y="-17" font-family="Helvetica,sans-Serif" font-size="10.00">/SchemaEditor/SchemaRelationship</text>
<text text-anchor="middle" x="1816.5" y="-5.75" font-family="Helvetica,sans-Serif" font-size="10.00">Editor.cpp</text>
</a>
</g>
</g>
<!-- Node4&#45;&gt;Node17 -->
<g id="edge17_Node000004_Node000017" class="edge">
<title>Node4&#45;&gt;Node17</title>
<g id="a_edge17_Node000004_Node000017"><a xlink:title=" ">
<path fill="none" stroke="#63b8ff" d="M1305.88,-90.27C1406.9,-81.36 1576.08,-64.65 1720.5,-41.75 1723.69,-41.24 1726.94,-40.7 1730.22,-40.14"/>
<polygon fill="#63b8ff" stroke="#63b8ff" points="1305.67,-86.77 1296.02,-91.13 1306.28,-93.74 1305.67,-86.77"/>
</a>
</g>
</g>
<!-- Node19 -->
<g id="Node000019" class="node">
<title>Node19</title>
<g id="a_Node000019"><a xlink:href="SchemaCustomRelationshipModel_8cpp.html" target="_top" xlink:title=" ">
<polygon fill="white" stroke="#666666" points="2202.75,-119.5 2050.25,-119.5 2050.25,-77.75 2202.75,-77.75 2202.75,-119.5"/>
<text text-anchor="start" x="2058.25" y="-106" font-family="Helvetica,sans-Serif" font-size="10.00">sourcecode/dbe/apps</text>
<text text-anchor="start" x="2058.25" y="-94.75" font-family="Helvetica,sans-Serif" font-size="10.00">/SchemaEditor/SchemaCustom</text>
<text text-anchor="middle" x="2126.5" y="-83.5" font-family="Helvetica,sans-Serif" font-size="10.00">RelationshipModel.cpp</text>
</a>
</g>
</g>
<!-- Node18&#45;&gt;Node19 -->
<g id="edge19_Node000018_Node000019" class="edge">
<title>Node18&#45;&gt;Node19</title>
<g id="a_edge19_Node000018_Node000019"><a xlink:title=" ">
<path fill="none" stroke="#63b8ff" d="M2117.71,-144.03C2119.32,-135.91 2121.01,-127.37 2122.47,-119.98"/>
<polygon fill="#63b8ff" stroke="#63b8ff" points="2114.32,-143.1 2115.81,-153.59 2121.19,-144.46 2114.32,-143.1"/>
</a>
</g>
</g>
<!-- Node20 -->
<g id="Node000020" class="node">
<title>Node20</title>
<g id="a_Node000020"><a xlink:href="SchemaClassEditor_8hpp.html" target="_top" xlink:title=" ">
<polygon fill="white" stroke="#666666" points="2362.12,-113.88 2220.88,-113.88 2220.88,-83.38 2362.12,-83.38 2362.12,-113.88"/>
<text text-anchor="start" x="2228.88" y="-100.38" font-family="Helvetica,sans-Serif" font-size="10.00">sourcecode/dbe/include</text>
<text text-anchor="middle" x="2291.5" y="-89.12" font-family="Helvetica,sans-Serif" font-size="10.00">/dbe/SchemaClassEditor.hpp</text>
</a>
</g>
</g>
<!-- Node18&#45;&gt;Node20 -->
<g id="edge20_Node000018_Node000020" class="edge">
<title>Node18&#45;&gt;Node20</title>
<g id="a_edge20_Node000018_Node000020"><a xlink:title=" ">
<path fill="none" stroke="#63b8ff" d="M2170.02,-150.75C2198.59,-138.72 2232,-124.66 2256.55,-114.33"/>
<polygon fill="#63b8ff" stroke="#63b8ff" points="2168.99,-147.38 2161.13,-154.49 2171.71,-153.84 2168.99,-147.38"/>
</a>
</g>
</g>
<!-- Node20&#45;&gt;Node6 -->
<g id="edge21_Node000020_Node000006" class="edge">
<title>Node20&#45;&gt;Node6</title>
<g id="a_edge21_Node000020_Node000006"><a xlink:title=" ">
<path fill="none" stroke="#63b8ff" d="M2270.77,-74.53C2259.63,-62.13 2246.25,-47.22 2236.57,-36.44"/>
<polygon fill="#63b8ff" stroke="#63b8ff" points="2268.09,-76.79 2277.38,-81.89 2273.3,-72.11 2268.09,-76.79"/>
</a>
</g>
</g>
<!-- Node20&#45;&gt;Node12 -->
<g id="edge22_Node000020_Node000012" class="edge">
<title>Node20&#45;&gt;Node12</title>
<g id="a_edge22_Node000020_Node000012"><a xlink:title=" ">
<path fill="none" stroke="#63b8ff" d="M2324.78,-76.96C2342.22,-66.13 2363.48,-52.93 2380.83,-42.16"/>
<polygon fill="#63b8ff" stroke="#63b8ff" points="2322.96,-73.97 2316.31,-82.22 2326.65,-79.92 2322.96,-73.97"/>
</a>
</g>
</g>
<!-- Node20&#45;&gt;Node14 -->
<g id="edge23_Node000020_Node000014" class="edge">
<title>Node20&#45;&gt;Node14</title>
<g id="a_edge23_Node000020_Node000014"><a xlink:title=" ">
<path fill="none" stroke="#63b8ff" d="M2227.28,-79.94C2179.38,-66.74 2114.72,-48.93 2069.7,-36.53"/>
<polygon fill="#63b8ff" stroke="#63b8ff" points="2226.12,-83.25 2236.69,-82.53 2227.98,-76.5 2226.12,-83.25"/>
</a>
</g>
</g>
<!-- Node21&#45;&gt;Node20 -->
<g id="edge26_Node000021_Node000020" class="edge">
<title>Node21&#45;&gt;Node20</title>
<g id="a_edge26_Node000021_Node000020"><a xlink:title=" ">
<path fill="none" stroke="#63b8ff" d="M2301.42,-149.72C2299.07,-137.87 2296.37,-124.24 2294.38,-114.19"/>
<polygon fill="#63b8ff" stroke="#63b8ff" points="2297.94,-150.16 2303.31,-159.28 2304.8,-148.8 2297.94,-150.16"/>
</a>
</g>
</g>
<!-- Node22 -->
<g id="Node000022" class="node">
<title>Node22</title>
<g id="a_Node000022"><a xlink:href="SchemaCustomSubClassModel_8cpp.html" target="_top" xlink:title=" ">
<polygon fill="white" stroke="#666666" points="2532.75,-119.5 2380.25,-119.5 2380.25,-77.75 2532.75,-77.75 2532.75,-119.5"/>
<text text-anchor="start" x="2388.25" y="-106" font-family="Helvetica,sans-Serif" font-size="10.00">sourcecode/dbe/apps</text>
<text text-anchor="start" x="2388.25" y="-94.75" font-family="Helvetica,sans-Serif" font-size="10.00">/SchemaEditor/SchemaCustom</text>
<text text-anchor="middle" x="2456.5" y="-83.5" font-family="Helvetica,sans-Serif" font-size="10.00">SubClassModel.cpp</text>
</a>
</g>
</g>
<!-- Node21&#45;&gt;Node22 -->
<g id="edge25_Node000021_Node000022" class="edge">
<title>Node21&#45;&gt;Node22</title>
<g id="a_edge25_Node000021_Node000022"><a xlink:title=" ">
<path fill="none" stroke="#63b8ff" d="M2345.63,-155.61C2367.39,-144.63 2394.41,-130.98 2416.33,-119.91"/>
<polygon fill="#63b8ff" stroke="#63b8ff" points="2344.12,-152.46 2336.77,-160.09 2347.28,-158.7 2344.12,-152.46"/>
</a>
</g>
</g>
<!-- Node23&#45;&gt;Node20 -->
<g id="edge29_Node000023_Node000020" class="edge">
<title>Node23&#45;&gt;Node20</title>
<g id="a_edge29_Node000023_Node000020"><a xlink:title=" ">
<path fill="none" stroke="#63b8ff" d="M2466.77,-157.1C2426.72,-143.97 2373.45,-126.5 2336.19,-114.28"/>
<polygon fill="#63b8ff" stroke="#63b8ff" points="2465.66,-160.42 2476.25,-160.21 2467.84,-153.77 2465.66,-160.42"/>
</a>
</g>
</g>
<!-- Node24 -->
<g id="Node000024" class="node">
<title>Node24</title>
<g id="a_Node000024"><a xlink:href="SchemaCustomSuperClassModel_8cpp.html" target="_top" xlink:title=" ">
<polygon fill="white" stroke="#666666" points="2703.75,-119.5 2551.25,-119.5 2551.25,-77.75 2703.75,-77.75 2703.75,-119.5"/>
<text text-anchor="start" x="2559.25" y="-106" font-family="Helvetica,sans-Serif" font-size="10.00">sourcecode/dbe/apps</text>
<text text-anchor="start" x="2559.25" y="-94.75" font-family="Helvetica,sans-Serif" font-size="10.00">/SchemaEditor/SchemaCustom</text>
<text text-anchor="middle" x="2627.5" y="-83.5" font-family="Helvetica,sans-Serif" font-size="10.00">SuperClassModel.cpp</text>
</a>
</g>
</g>
<!-- Node23&#45;&gt;Node24 -->
<g id="edge28_Node000023_Node000024" class="edge">
<title>Node23&#45;&gt;Node24</title>
<g id="a_edge28_Node000023_Node000024"><a xlink:title=" ">
<path fill="none" stroke="#63b8ff" d="M2551.99,-154.1C2566.83,-143.39 2584.73,-130.48 2599.38,-119.91"/>
<polygon fill="#63b8ff" stroke="#63b8ff" points="2550.03,-151.19 2543.97,-159.88 2554.13,-156.87 2550.03,-151.19"/>
</a>
</g>
</g>
<!-- Node25&#45;&gt;Node6 -->
<g id="edge31_Node000025_Node000006" class="edge">
<title>Node25&#45;&gt;Node6</title>
<g id="a_edge31_Node000025_Node000006"><a xlink:title=" ">
<path fill="none" stroke="#63b8ff" d="M2011.95,-79.94C2060.03,-66.74 2124.92,-48.93 2170.11,-36.53"/>
<polygon fill="#63b8ff" stroke="#63b8ff" points="2011.22,-76.51 2002.5,-82.53 2013.07,-83.26 2011.22,-76.51"/>
</a>
</g>
</g>
<!-- Node25&#45;&gt;Node12 -->
<g id="edge32_Node000025_Node000012" class="edge">
<title>Node25&#45;&gt;Node12</title>
<g id="a_edge32_Node000025_Node000012"><a xlink:title=" ">
<path fill="none" stroke="#63b8ff" d="M2024.75,-80.76C2030.41,-79.69 2036.04,-78.67 2041.5,-77.75 2166.96,-56.57 2200.19,-63.79 2325.5,-41.75 2328.43,-41.23 2331.41,-40.69 2334.42,-40.11"/>
<polygon fill="#63b8ff" stroke="#63b8ff" points="2024.5,-77.24 2015.36,-82.59 2025.84,-84.12 2024.5,-77.24"/>
</a>
</g>
</g>
<!-- Node25&#45;&gt;Node14 -->
<g id="edge33_Node000025_Node000014" class="edge">
<title>Node25&#45;&gt;Node14</title>
<g id="a_edge33_Node000025_Node000014"><a xlink:title=" ">
<path fill="none" stroke="#63b8ff" d="M1968.54,-74.53C1979.84,-62.13 1993.42,-47.22 2003.24,-36.44"/>
<polygon fill="#63b8ff" stroke="#63b8ff" points="1965.97,-72.15 1961.82,-81.9 1971.14,-76.86 1965.97,-72.15"/>
</a>
</g>
</g>
<!-- Node25&#45;&gt;Node17 -->
<g id="edge34_Node000025_Node000017" class="edge">
<title>Node25&#45;&gt;Node17</title>
<g id="a_edge34_Node000025_Node000017"><a xlink:title=" ">
<path fill="none" stroke="#63b8ff" d="M1912.28,-77.26C1893.47,-66.38 1870.38,-53.03 1851.58,-42.16"/>
<polygon fill="#63b8ff" stroke="#63b8ff" points="1910.52,-80.29 1920.93,-82.26 1914.03,-74.23 1910.52,-80.29"/>
</a>
</g>
</g>
</g>
</svg>
