<?xml version="1.0" encoding="UTF-8" standalone="no"?>
<!DOCTYPE svg PUBLIC "-//W3C//DTD SVG 1.1//EN"
 "http://www.w3.org/Graphics/SVG/1.1/DTD/svg11.dtd">
<!-- Generated by graphviz version 9.0.0 (20230911.1827)
 -->
<!-- Title: sourcecode/readoutlibs/include/readoutlibs/concepts/RequestHandlerConcept.hpp Pages: 1 -->
<svg width="865pt" height="338pt"
 viewBox="0.00 0.00 865.00 338.25" xmlns="http://www.w3.org/2000/svg" xmlns:xlink="http://www.w3.org/1999/xlink">
<g id="graph0" class="graph" transform="scale(1 1) rotate(0) translate(4 334.25)">
<title>sourcecode/readoutlibs/include/readoutlibs/concepts/RequestHandlerConcept.hpp</title>
<!-- Node1 -->
<g id="Node000001" class="node">
<title>Node1</title>
<g id="a_Node000001"><a xlink:title=" ">
<polygon fill="#999999" stroke="#666666" points="766.12,-330.25 623.38,-330.25 623.38,-288.5 766.12,-288.5 766.12,-330.25"/>
<text text-anchor="start" x="631.38" y="-316.75" font-family="Helvetica,sans-Serif" font-size="10.00">sourcecode/readoutlibs</text>
<text text-anchor="start" x="631.38" y="-305.5" font-family="Helvetica,sans-Serif" font-size="10.00">/include/readoutlibs/concepts</text>
<text text-anchor="middle" x="694.75" y="-294.25" font-family="Helvetica,sans-Serif" font-size="10.00">/RequestHandlerConcept.hpp</text>
</a>
</g>
</g>
<!-- Node2 -->
<g id="Node000002" class="node">
<title>Node2</title>
<g id="a_Node000002"><a xlink:href="DefaultRequestHandlerModel_8hpp.html" target="_top" xlink:title=" ">
<polygon fill="white" stroke="#666666" points="502.62,-252.5 338.88,-252.5 338.88,-210.75 502.62,-210.75 502.62,-252.5"/>
<text text-anchor="start" x="346.88" y="-239" font-family="Helvetica,sans-Serif" font-size="10.00">sourcecode/readoutlibs</text>
<text text-anchor="start" x="346.88" y="-227.75" font-family="Helvetica,sans-Serif" font-size="10.00">/include/readoutlibs/models</text>
<text text-anchor="middle" x="420.75" y="-216.5" font-family="Helvetica,sans-Serif" font-size="10.00">/DefaultRequestHandlerModel.hpp</text>
</a>
</g>
</g>
<!-- Node1&#45;&gt;Node2 -->
<g id="edge1_Node000001_Node000002" class="edge">
<title>Node1&#45;&gt;Node2</title>
<g id="a_edge1_Node000001_Node000002"><a xlink:title=" ">
<path fill="none" stroke="#63b8ff" d="M612.22,-285.56C574.72,-275.19 530.71,-263.02 494.35,-252.97"/>
<polygon fill="#63b8ff" stroke="#63b8ff" points="611.09,-288.88 621.66,-288.17 612.95,-282.13 611.09,-288.88"/>
</a>
</g>
</g>
<!-- Node7 -->
<g id="Node000007" class="node">
<title>Node7</title>
<g id="a_Node000007"><a xlink:href="Readoutlibs_8cpp.html" target="_top" xlink:title=" ">
<polygon fill="white" stroke="#666666" points="616,-97 499.5,-97 499.5,-66.5 616,-66.5 616,-97"/>
<text text-anchor="start" x="507.5" y="-83.5" font-family="Helvetica,sans-Serif" font-size="10.00">sourcecode/readoutlibs</text>
<text text-anchor="middle" x="557.75" y="-72.25" font-family="Helvetica,sans-Serif" font-size="10.00">/src/Readoutlibs.cpp</text>
</a>
</g>
</g>
<!-- Node1&#45;&gt;Node7 -->
<g id="edge12_Node000001_Node000007" class="edge">
<title>Node1&#45;&gt;Node7</title>
<g id="a_edge12_Node000001_Node000007"><a xlink:title=" ">
<path fill="none" stroke="#63b8ff" d="M700.21,-276.82C704.95,-238.84 706.86,-174.95 675.75,-133 661.49,-113.77 638.4,-101.83 616.41,-94.45"/>
<polygon fill="#63b8ff" stroke="#63b8ff" points="696.75,-276.29 698.82,-286.68 703.68,-277.27 696.75,-276.29"/>
</a>
</g>
</g>
<!-- Node9 -->
<g id="Node000009" class="node">
<title>Node9</title>
<g id="a_Node000009"><a xlink:href="ReadoutModel_8hpp.html" target="_top" xlink:title=" ">
<polygon fill="white" stroke="#666666" points="857,-252.5 722.5,-252.5 722.5,-210.75 857,-210.75 857,-252.5"/>
<text text-anchor="start" x="730.5" y="-239" font-family="Helvetica,sans-Serif" font-size="10.00">sourcecode/readoutlibs</text>
<text text-anchor="start" x="730.5" y="-227.75" font-family="Helvetica,sans-Serif" font-size="10.00">/include/readoutlibs/models</text>
<text text-anchor="middle" x="789.75" y="-216.5" font-family="Helvetica,sans-Serif" font-size="10.00">/ReadoutModel.hpp</text>
</a>
</g>
</g>
<!-- Node1&#45;&gt;Node9 -->
<g id="edge10_Node000001_Node000009" class="edge">
<title>Node1&#45;&gt;Node9</title>
<g id="a_edge10_Node000001_Node000009"><a xlink:title=" ">
<path fill="none" stroke="#63b8ff" d="M729.19,-280.91C740.76,-271.69 753.46,-261.56 764.22,-252.98"/>
<polygon fill="#63b8ff" stroke="#63b8ff" points="727.03,-278.16 721.39,-287.13 731.39,-283.63 727.03,-278.16"/>
</a>
</g>
</g>
<!-- Node3 -->
<g id="Node000003" class="node">
<title>Node3</title>
<g id="a_Node000003"><a xlink:href="DefaultSkipListRequestHandler_8hpp.html" target="_top" xlink:title=" ">
<polygon fill="white" stroke="#666666" points="173.5,-174.75 0,-174.75 0,-133 173.5,-133 173.5,-174.75"/>
<text text-anchor="start" x="8" y="-161.25" font-family="Helvetica,sans-Serif" font-size="10.00">sourcecode/readoutlibs</text>
<text text-anchor="start" x="8" y="-150" font-family="Helvetica,sans-Serif" font-size="10.00">/include/readoutlibs/models</text>
<text text-anchor="middle" x="86.75" y="-138.75" font-family="Helvetica,sans-Serif" font-size="10.00">/DefaultSkipListRequestHandler.hpp</text>
</a>
</g>
</g>
<!-- Node2&#45;&gt;Node3 -->
<g id="edge2_Node000002_Node000003" class="edge">
<title>Node2&#45;&gt;Node3</title>
<g id="a_edge2_Node000002_Node000003"><a xlink:title=" ">
<path fill="none" stroke="#63b8ff" d="M327.56,-209.49C279.43,-198.57 221.05,-185.33 173.82,-174.62"/>
<polygon fill="#63b8ff" stroke="#63b8ff" points="326.61,-212.86 337.14,-211.66 328.16,-206.04 326.61,-212.86"/>
</a>
</g>
</g>
<!-- Node6 -->
<g id="Node000006" class="node">
<title>Node6</title>
<g id="a_Node000006"><a xlink:href="EmptyFragmentRequestHandlerModel_8hpp.html" target="_top" xlink:title=" ">
<polygon fill="white" stroke="#666666" points="392.38,-174.75 191.12,-174.75 191.12,-133 392.38,-133 392.38,-174.75"/>
<text text-anchor="start" x="199.12" y="-161.25" font-family="Helvetica,sans-Serif" font-size="10.00">sourcecode/readoutlibs</text>
<text text-anchor="start" x="199.12" y="-150" font-family="Helvetica,sans-Serif" font-size="10.00">/include/readoutlibs/models</text>
<text text-anchor="middle" x="291.75" y="-138.75" font-family="Helvetica,sans-Serif" font-size="10.00">/EmptyFragmentRequestHandlerModel.hpp</text>
</a>
</g>
</g>
<!-- Node2&#45;&gt;Node6 -->
<g id="edge5_Node000002_Node000006" class="edge">
<title>Node2&#45;&gt;Node6</title>
<g id="a_edge5_Node000002_Node000006"><a xlink:title=" ">
<path fill="none" stroke="#63b8ff" d="M376.31,-204.53C359.98,-194.94 341.75,-184.24 326.42,-175.23"/>
<polygon fill="#63b8ff" stroke="#63b8ff" points="374.48,-207.51 384.88,-209.56 378.02,-201.48 374.48,-207.51"/>
</a>
</g>
</g>
<!-- Node2&#45;&gt;Node7 -->
<g id="edge9_Node000002_Node000007" class="edge">
<title>Node2&#45;&gt;Node7</title>
<g id="a_edge9_Node000002_Node000007"><a xlink:title=" ">
<path fill="none" stroke="#63b8ff" d="M419.6,-198.92C420.47,-178.09 424.86,-151.4 439.75,-133 454.66,-114.56 477.59,-102.77 499.28,-95.28"/>
<polygon fill="#63b8ff" stroke="#63b8ff" points="416.1,-198.83 419.47,-208.88 423.1,-198.93 416.1,-198.83"/>
</a>
</g>
</g>
<!-- Node8 -->
<g id="Node000008" class="node">
<title>Node8</title>
<g id="a_Node000008"><a xlink:href="ZeroCopyRecordingRequestHandlerModel_8hpp.html" target="_top" xlink:title=" ">
<polygon fill="white" stroke="#666666" points="666.62,-174.75 448.88,-174.75 448.88,-133 666.62,-133 666.62,-174.75"/>
<text text-anchor="start" x="456.88" y="-161.25" font-family="Helvetica,sans-Serif" font-size="10.00">sourcecode/readoutlibs</text>
<text text-anchor="start" x="456.88" y="-150" font-family="Helvetica,sans-Serif" font-size="10.00">/include/readoutlibs/models</text>
<text text-anchor="middle" x="557.75" y="-138.75" font-family="Helvetica,sans-Serif" font-size="10.00">/ZeroCopyRecordingRequestHandlerModel.hpp</text>
</a>
</g>
</g>
<!-- Node2&#45;&gt;Node8 -->
<g id="edge7_Node000002_Node000008" class="edge">
<title>Node2&#45;&gt;Node8</title>
<g id="a_edge7_Node000002_Node000008"><a xlink:title=" ">
<path fill="none" stroke="#63b8ff" d="M467.46,-204.8C484.92,-195.14 504.49,-184.32 520.94,-175.23"/>
<polygon fill="#63b8ff" stroke="#63b8ff" points="465.85,-201.69 458.79,-209.59 469.23,-207.82 465.85,-201.69"/>
</a>
</g>
</g>
<!-- Node4 -->
<g id="Node000004" class="node">
<title>Node4</title>
<g id="a_Node000004"><a xlink:href="TPRequestHandler_8hpp.html" target="_top" xlink:title=" ">
<polygon fill="white" stroke="#666666" points="169.75,-97 3.75,-97 3.75,-66.5 169.75,-66.5 169.75,-97"/>
<text text-anchor="start" x="11.75" y="-83.5" font-family="Helvetica,sans-Serif" font-size="10.00">sourcecode/trigger</text>
<text text-anchor="middle" x="86.75" y="-72.25" font-family="Helvetica,sans-Serif" font-size="10.00">/src/trigger/TPRequestHandler.hpp</text>
</a>
</g>
</g>
<!-- Node3&#45;&gt;Node4 -->
<g id="edge3_Node000003_Node000004" class="edge">
<title>Node3&#45;&gt;Node4</title>
<g id="a_edge3_Node000003_Node000004"><a xlink:title=" ">
<path fill="none" stroke="#63b8ff" d="M86.75,-121.13C86.75,-112.77 86.75,-104.15 86.75,-97.2"/>
<polygon fill="#63b8ff" stroke="#63b8ff" points="83.25,-121.08 86.75,-131.08 90.25,-121.08 83.25,-121.08"/>
</a>
</g>
</g>
<!-- Node5 -->
<g id="Node000005" class="node">
<title>Node5</title>
<g id="a_Node000005"><a xlink:href="TPRequestHandler_8cpp.html" target="_top" xlink:title=" ">
<polygon fill="white" stroke="#666666" points="154.75,-30.5 18.75,-30.5 18.75,0 154.75,0 154.75,-30.5"/>
<text text-anchor="start" x="26.75" y="-17" font-family="Helvetica,sans-Serif" font-size="10.00">sourcecode/trigger</text>
<text text-anchor="middle" x="86.75" y="-5.75" font-family="Helvetica,sans-Serif" font-size="10.00">/src/TPRequestHandler.cpp</text>
</a>
</g>
</g>
<!-- Node4&#45;&gt;Node5 -->
<g id="edge4_Node000004_Node000005" class="edge">
<title>Node4&#45;&gt;Node5</title>
<g id="a_edge4_Node000004_Node000005"><a xlink:title=" ">
<path fill="none" stroke="#63b8ff" d="M86.75,-54.81C86.75,-46.64 86.75,-37.91 86.75,-30.83"/>
<polygon fill="#63b8ff" stroke="#63b8ff" points="83.25,-54.6 86.75,-64.6 90.25,-54.6 83.25,-54.6"/>
</a>
</g>
</g>
<!-- Node6&#45;&gt;Node7 -->
<g id="edge6_Node000006_Node000007" class="edge">
<title>Node6&#45;&gt;Node7</title>
<g id="a_edge6_Node000006_Node000007"><a xlink:title=" ">
<path fill="none" stroke="#63b8ff" d="M379.62,-129.71C420,-119.07 466.67,-106.76 502.1,-97.42"/>
<polygon fill="#63b8ff" stroke="#63b8ff" points="378.93,-126.27 370.15,-132.21 380.71,-133.04 378.93,-126.27"/>
</a>
</g>
</g>
<!-- Node8&#45;&gt;Node7 -->
<g id="edge8_Node000008_Node000007" class="edge">
<title>Node8&#45;&gt;Node7</title>
<g id="a_edge8_Node000008_Node000007"><a xlink:title=" ">
<path fill="none" stroke="#63b8ff" d="M557.75,-121.13C557.75,-112.77 557.75,-104.15 557.75,-97.2"/>
<polygon fill="#63b8ff" stroke="#63b8ff" points="554.25,-121.08 557.75,-131.08 561.25,-121.08 554.25,-121.08"/>
</a>
</g>
</g>
<!-- Node9&#45;&gt;Node7 -->
<g id="edge11_Node000009_Node000007" class="edge">
<title>Node9&#45;&gt;Node7</title>
<g id="a_edge11_Node000009_Node000007"><a xlink:title=" ">
<path fill="none" stroke="#63b8ff" d="M771.82,-201.17C757.27,-179.53 734.92,-150.89 708.75,-133 681.15,-114.13 645.91,-101.87 616.41,-94.19"/>
<polygon fill="#63b8ff" stroke="#63b8ff" points="768.72,-202.83 777.12,-209.29 774.59,-199.01 768.72,-202.83"/>
</a>
</g>
</g>
</g>
</svg>
