<?xml version="1.0" encoding="UTF-8" standalone="no"?>
<!DOCTYPE svg PUBLIC "-//W3C//DTD SVG 1.1//EN"
 "http://www.w3.org/Graphics/SVG/1.1/DTD/svg11.dtd">
<!-- Generated by graphviz version 9.0.0 (20230911.1827)
 -->
<!-- Title: sourcecode/dbe/include/dbe/SchemaGraphicsScene.hpp Pages: 1 -->
<svg width="889pt" height="183pt"
 viewBox="0.00 0.00 889.38 182.75" xmlns="http://www.w3.org/2000/svg" xmlns:xlink="http://www.w3.org/1999/xlink">
<g id="graph0" class="graph" transform="scale(1 1) rotate(0) translate(4 178.75)">
<title>sourcecode/dbe/include/dbe/SchemaGraphicsScene.hpp</title>
<!-- Node1 -->
<g id="Node000001" class="node">
<title>Node1</title>
<g id="a_Node000001"><a xlink:title=" ">
<polygon fill="#999999" stroke="#666666" points="429.5,-174.75 271,-174.75 271,-144.25 429.5,-144.25 429.5,-174.75"/>
<text text-anchor="start" x="279" y="-161.25" font-family="Helvetica,sans-Serif" font-size="10.00">sourcecode/dbe/include</text>
<text text-anchor="middle" x="350.25" y="-150" font-family="Helvetica,sans-Serif" font-size="10.00">/dbe/SchemaGraphicsScene.hpp</text>
</a>
</g>
</g>
<!-- Node2 -->
<g id="Node000002" class="node">
<title>Node2</title>
<g id="a_Node000002"><a xlink:href="SchemaGraphicObject_8cpp.html" target="_top" xlink:title=" ">
<polygon fill="white" stroke="#666666" points="152.5,-41.75 0,-41.75 0,0 152.5,0 152.5,-41.75"/>
<text text-anchor="start" x="8" y="-28.25" font-family="Helvetica,sans-Serif" font-size="10.00">sourcecode/dbe/apps</text>
<text text-anchor="start" x="8" y="-17" font-family="Helvetica,sans-Serif" font-size="10.00">/SchemaEditor/SchemaGraphic</text>
<text text-anchor="middle" x="76.25" y="-5.75" font-family="Helvetica,sans-Serif" font-size="10.00">Object.cpp</text>
</a>
</g>
</g>
<!-- Node1&#45;&gt;Node2 -->
<g id="edge1_Node000001_Node000002" class="edge">
<title>Node1&#45;&gt;Node2</title>
<g id="a_edge1_Node000001_Node000002"><a xlink:title=" ">
<path fill="none" stroke="#63b8ff" d="M265.01,-140.86C236.73,-133.1 205.74,-122.44 179.25,-108.25 146.54,-90.73 114.73,-61.65 95.32,-42.13"/>
<polygon fill="#63b8ff" stroke="#63b8ff" points="264.08,-144.23 274.65,-143.41 265.88,-137.46 264.08,-144.23"/>
</a>
</g>
</g>
<!-- Node3 -->
<g id="Node000003" class="node">
<title>Node3</title>
<g id="a_Node000003"><a xlink:href="SchemaGraphicsScene_8cpp.html" target="_top" xlink:title=" ">
<polygon fill="white" stroke="#666666" points="499.12,-41.75 341.38,-41.75 341.38,0 499.12,0 499.12,-41.75"/>
<text text-anchor="start" x="349.38" y="-28.25" font-family="Helvetica,sans-Serif" font-size="10.00">sourcecode/dbe/apps</text>
<text text-anchor="start" x="349.38" y="-17" font-family="Helvetica,sans-Serif" font-size="10.00">/SchemaEditor/SchemaGraphics</text>
<text text-anchor="middle" x="420.25" y="-5.75" font-family="Helvetica,sans-Serif" font-size="10.00">Scene.cpp</text>
</a>
</g>
</g>
<!-- Node1&#45;&gt;Node3 -->
<g id="edge2_Node000001_Node000003" class="edge">
<title>Node1&#45;&gt;Node3</title>
<g id="a_edge2_Node000001_Node000003"><a xlink:title=" ">
<path fill="none" stroke="#63b8ff" d="M362.82,-133.96C376.27,-107.72 397.34,-66.59 409.87,-42.13"/>
<polygon fill="#63b8ff" stroke="#63b8ff" points="359.88,-132.04 358.43,-142.53 366.11,-135.23 359.88,-132.04"/>
</a>
</g>
</g>
<!-- Node4 -->
<g id="Node000004" class="node">
<title>Node4</title>
<g id="a_Node000004"><a xlink:href="SchemaGraphicArrow_8hpp.html" target="_top" xlink:title=" ">
<polygon fill="white" stroke="#666666" points="339.75,-108.25 188.75,-108.25 188.75,-77.75 339.75,-77.75 339.75,-108.25"/>
<text text-anchor="start" x="196.75" y="-94.75" font-family="Helvetica,sans-Serif" font-size="10.00">sourcecode/dbe/include</text>
<text text-anchor="middle" x="264.25" y="-83.5" font-family="Helvetica,sans-Serif" font-size="10.00">/dbe/SchemaGraphicArrow.hpp</text>
</a>
</g>
</g>
<!-- Node1&#45;&gt;Node4 -->
<g id="edge3_Node000001_Node000004" class="edge">
<title>Node1&#45;&gt;Node4</title>
<g id="a_edge3_Node000001_Node000004"><a xlink:title=" ">
<path fill="none" stroke="#63b8ff" d="M321.64,-137.04C309.18,-127.69 294.89,-116.98 283.69,-108.58"/>
<polygon fill="#63b8ff" stroke="#63b8ff" points="319.42,-139.76 329.52,-142.96 323.62,-134.16 319.42,-139.76"/>
</a>
</g>
</g>
<!-- Node6 -->
<g id="Node000006" class="node">
<title>Node6</title>
<g id="a_Node000006"><a xlink:href="SchemaTab_8hpp.html" target="_top" xlink:title=" ">
<polygon fill="white" stroke="#666666" points="653.62,-108.25 534.88,-108.25 534.88,-77.75 653.62,-77.75 653.62,-108.25"/>
<text text-anchor="start" x="542.88" y="-94.75" font-family="Helvetica,sans-Serif" font-size="10.00">sourcecode/dbe/include</text>
<text text-anchor="middle" x="594.25" y="-83.5" font-family="Helvetica,sans-Serif" font-size="10.00">/dbe/SchemaTab.hpp</text>
</a>
</g>
</g>
<!-- Node1&#45;&gt;Node6 -->
<g id="edge7_Node000001_Node000006" class="edge">
<title>Node1&#45;&gt;Node6</title>
<g id="a_edge7_Node000001_Node000006"><a xlink:title=" ">
<path fill="none" stroke="#63b8ff" d="M416.96,-140.87C455.2,-130.76 502.64,-118.22 538.82,-108.65"/>
<polygon fill="#63b8ff" stroke="#63b8ff" points="416.16,-137.46 407.39,-143.4 417.95,-144.22 416.16,-137.46"/>
</a>
</g>
</g>
<!-- Node4&#45;&gt;Node2 -->
<g id="edge5_Node000004_Node000002" class="edge">
<title>Node4&#45;&gt;Node2</title>
<g id="a_edge5_Node000004_Node000002"><a xlink:title=" ">
<path fill="none" stroke="#63b8ff" d="M214.17,-73.32C188.4,-63.71 156.94,-51.97 130.58,-42.14"/>
<polygon fill="#63b8ff" stroke="#63b8ff" points="212.83,-76.55 223.42,-76.77 215.27,-70 212.83,-76.55"/>
</a>
</g>
</g>
<!-- Node4&#45;&gt;Node3 -->
<g id="edge6_Node000004_Node000003" class="edge">
<title>Node4&#45;&gt;Node3</title>
<g id="a_edge6_Node000004_Node000003"><a xlink:title=" ">
<path fill="none" stroke="#63b8ff" d="M307.24,-72.67C328.35,-63.18 353.78,-51.75 375.17,-42.14"/>
<polygon fill="#63b8ff" stroke="#63b8ff" points="306.02,-69.39 298.33,-76.68 308.89,-75.77 306.02,-69.39"/>
</a>
</g>
</g>
<!-- Node5 -->
<g id="Node000005" class="node">
<title>Node5</title>
<g id="a_Node000005"><a xlink:href="SchemaGraphicArrow_8cpp.html" target="_top" xlink:title=" ">
<polygon fill="white" stroke="#666666" points="323.5,-41.75 171,-41.75 171,0 323.5,0 323.5,-41.75"/>
<text text-anchor="start" x="179" y="-28.25" font-family="Helvetica,sans-Serif" font-size="10.00">sourcecode/dbe/apps</text>
<text text-anchor="start" x="179" y="-17" font-family="Helvetica,sans-Serif" font-size="10.00">/SchemaEditor/SchemaGraphic</text>
<text text-anchor="middle" x="247.25" y="-5.75" font-family="Helvetica,sans-Serif" font-size="10.00">Arrow.cpp</text>
</a>
</g>
</g>
<!-- Node4&#45;&gt;Node5 -->
<g id="edge4_Node000004_Node000005" class="edge">
<title>Node4&#45;&gt;Node5</title>
<g id="a_edge4_Node000004_Node000005"><a xlink:title=" ">
<path fill="none" stroke="#63b8ff" d="M258.07,-66.5C256.13,-58.52 254.02,-49.82 252.19,-42.24"/>
<polygon fill="#63b8ff" stroke="#63b8ff" points="254.61,-67.11 260.37,-76 261.42,-65.46 254.61,-67.11"/>
</a>
</g>
</g>
<!-- Node7 -->
<g id="Node000007" class="node">
<title>Node7</title>
<g id="a_Node000007"><a xlink:href="SchemaMainWindow_8cpp.html" target="_top" xlink:title=" ">
<polygon fill="white" stroke="#666666" points="881.38,-36.12 689.12,-36.12 689.12,-5.62 881.38,-5.62 881.38,-36.12"/>
<text text-anchor="start" x="697.12" y="-22.62" font-family="Helvetica,sans-Serif" font-size="10.00">sourcecode/dbe/apps</text>
<text text-anchor="middle" x="785.25" y="-11.38" font-family="Helvetica,sans-Serif" font-size="10.00">/SchemaEditor/SchemaMainWindow.cpp</text>
</a>
</g>
</g>
<!-- Node6&#45;&gt;Node7 -->
<g id="edge8_Node000006_Node000007" class="edge">
<title>Node6&#45;&gt;Node7</title>
<g id="a_edge8_Node000006_Node000007"><a xlink:title=" ">
<path fill="none" stroke="#63b8ff" d="M645.01,-73.36C676.4,-61.84 716.12,-47.26 745.26,-36.56"/>
<polygon fill="#63b8ff" stroke="#63b8ff" points="643.89,-70.05 635.71,-76.78 646.3,-76.62 643.89,-70.05"/>
</a>
</g>
</g>
<!-- Node8 -->
<g id="Node000008" class="node">
<title>Node8</title>
<g id="a_Node000008"><a xlink:href="SchemaTab_8cpp.html" target="_top" xlink:title=" ">
<polygon fill="white" stroke="#666666" points="670.88,-36.12 517.62,-36.12 517.62,-5.62 670.88,-5.62 670.88,-36.12"/>
<text text-anchor="start" x="525.62" y="-22.62" font-family="Helvetica,sans-Serif" font-size="10.00">sourcecode/dbe/apps</text>
<text text-anchor="middle" x="594.25" y="-11.38" font-family="Helvetica,sans-Serif" font-size="10.00">/SchemaEditor/SchemaTab.cpp</text>
</a>
</g>
</g>
<!-- Node6&#45;&gt;Node8 -->
<g id="edge9_Node000006_Node000008" class="edge">
<title>Node6&#45;&gt;Node8</title>
<g id="a_edge9_Node000006_Node000008"><a xlink:title=" ">
<path fill="none" stroke="#63b8ff" d="M594.25,-66.02C594.25,-56.01 594.25,-44.94 594.25,-36.39"/>
<polygon fill="#63b8ff" stroke="#63b8ff" points="590.75,-65.96 594.25,-75.96 597.75,-65.96 590.75,-65.96"/>
</a>
</g>
</g>
</g>
</svg>
