<?xml version="1.0" encoding="UTF-8" standalone="no"?>
<!DOCTYPE svg PUBLIC "-//W3C//DTD SVG 1.1//EN"
 "http://www.w3.org/Graphics/SVG/1.1/DTD/svg11.dtd">
<!-- Generated by graphviz version 9.0.0 (20230911.1827)
 -->
<!-- Title: sourcecode/ers/src/Schema.cpp Pages: 1 -->
<svg width="1484pt" height="393pt"
 viewBox="0.00 0.00 1484.25 392.50" xmlns="http://www.w3.org/2000/svg" xmlns:xlink="http://www.w3.org/1999/xlink">
<g id="graph0" class="graph" transform="scale(1 1) rotate(0) translate(4 388.5)">
<title>sourcecode/ers/src/Schema.cpp</title>
<!-- Node1 -->
<g id="Node000001" class="node">
<title>Node1</title>
<g id="a_Node000001"><a xlink:title=" ">
<polygon fill="#999999" stroke="#666666" points="423.25,-384.5 324,-384.5 324,-354 423.25,-354 423.25,-384.5"/>
<text text-anchor="start" x="332" y="-371" font-family="Helvetica,sans-Serif" font-size="10.00">sourcecode/ers/src</text>
<text text-anchor="middle" x="373.62" y="-359.75" font-family="Helvetica,sans-Serif" font-size="10.00">/Schema.cpp</text>
</a>
</g>
</g>
<!-- Node2 -->
<g id="Node000002" class="node">
<title>Node2</title>
<g id="a_Node000002"><a xlink:href="ers_2include_2ers_2Schema_8hpp.html" target="_top" xlink:title=" ">
<polygon fill="white" stroke="#666666" points="416.88,-318 330.38,-318 330.38,-298.75 416.88,-298.75 416.88,-318"/>
<text text-anchor="middle" x="373.62" y="-304.5" font-family="Helvetica,sans-Serif" font-size="10.00">ers/Schema.hpp</text>
</a>
</g>
</g>
<!-- Node1&#45;&gt;Node2 -->
<g id="edge1_Node000001_Node000002" class="edge">
<title>Node1&#45;&gt;Node2</title>
<g id="a_edge1_Node000001_Node000002"><a xlink:title=" ">
<path fill="none" stroke="#63b8ff" d="M373.62,-353.7C373.62,-346.46 373.62,-337.59 373.62,-329.69"/>
<polygon fill="#63b8ff" stroke="#63b8ff" points="377.13,-329.96 373.63,-319.96 370.13,-329.96 377.13,-329.96"/>
</a>
</g>
</g>
<!-- Node3 -->
<g id="Node000003" class="node">
<title>Node3</title>
<g id="a_Node000003"><a xlink:title=" ">
<polygon fill="#e0e0e0" stroke="#999999" points="365.62,-262.75 289.62,-262.75 289.62,-243.5 365.62,-243.5 365.62,-262.75"/>
<text text-anchor="middle" x="327.62" y="-249.25" font-family="Helvetica,sans-Serif" font-size="10.00">ers/issue.pb.h</text>
</a>
</g>
</g>
<!-- Node2&#45;&gt;Node3 -->
<g id="edge2_Node000002_Node000003" class="edge">
<title>Node2&#45;&gt;Node3</title>
<g id="a_edge2_Node000002_Node000003"><a xlink:title=" ">
<path fill="none" stroke="#63b8ff" d="M366.03,-298.58C359.74,-291.3 350.61,-280.73 342.83,-271.73"/>
<polygon fill="#63b8ff" stroke="#63b8ff" points="345.56,-269.53 336.38,-264.25 340.26,-274.11 345.56,-269.53"/>
</a>
</g>
</g>
<!-- Node4 -->
<g id="Node000004" class="node">
<title>Node4</title>
<g id="a_Node000004"><a xlink:href="Issue_8hpp.html" target="_top" xlink:title=" ">
<polygon fill="white" stroke="#666666" points="457.88,-262.75 383.38,-262.75 383.38,-243.5 457.88,-243.5 457.88,-262.75"/>
<text text-anchor="middle" x="420.62" y="-249.25" font-family="Helvetica,sans-Serif" font-size="10.00">ers/Issue.hpp</text>
</a>
</g>
</g>
<!-- Node2&#45;&gt;Node4 -->
<g id="edge3_Node000002_Node000004" class="edge">
<title>Node2&#45;&gt;Node4</title>
<g id="a_edge3_Node000002_Node000004"><a xlink:title=" ">
<path fill="none" stroke="#63b8ff" d="M381.39,-298.58C387.81,-291.3 397.14,-280.73 405.09,-271.73"/>
<polygon fill="#63b8ff" stroke="#63b8ff" points="407.7,-274.06 411.69,-264.24 402.45,-269.43 407.7,-274.06"/>
</a>
</g>
</g>
<!-- Node5 -->
<g id="Node000005" class="node">
<title>Node5</title>
<g id="a_Node000005"><a xlink:title=" ">
<polygon fill="#e0e0e0" stroke="#999999" points="45.25,-201.88 0,-201.88 0,-182.62 45.25,-182.62 45.25,-201.88"/>
<text text-anchor="middle" x="22.62" y="-188.38" font-family="Helvetica,sans-Serif" font-size="10.00">math.h</text>
</a>
</g>
</g>
<!-- Node4&#45;&gt;Node5 -->
<g id="edge4_Node000004_Node000005" class="edge">
<title>Node4&#45;&gt;Node5</title>
<g id="a_edge4_Node000004_Node000005"><a xlink:title=" ">
<path fill="none" stroke="#63b8ff" d="M383.01,-244.84C380.17,-244.36 377.36,-243.91 374.62,-243.5 233.08,-222.3 192.73,-245.05 54.62,-207.5 53.27,-207.13 51.9,-206.71 50.53,-206.26"/>
<polygon fill="#63b8ff" stroke="#63b8ff" points="52.21,-203.16 41.62,-202.79 49.67,-209.68 52.21,-203.16"/>
</a>
</g>
</g>
<!-- Node6 -->
<g id="Node000006" class="node">
<title>Node6</title>
<g id="a_Node000006"><a xlink:title=" ">
<polygon fill="#e0e0e0" stroke="#999999" points="107.88,-201.88 63.38,-201.88 63.38,-182.62 107.88,-182.62 107.88,-201.88"/>
<text text-anchor="middle" x="85.62" y="-188.38" font-family="Helvetica,sans-Serif" font-size="10.00">stdio.h</text>
</a>
</g>
</g>
<!-- Node4&#45;&gt;Node6 -->
<g id="edge5_Node000004_Node000006" class="edge">
<title>Node4&#45;&gt;Node6</title>
<g id="a_edge5_Node000004_Node000006"><a xlink:title=" ">
<path fill="none" stroke="#63b8ff" d="M382.99,-244.92C380.17,-244.42 377.35,-243.95 374.62,-243.5 260.36,-224.83 227.74,-240.02 116.62,-207.5 115.63,-207.21 114.63,-206.89 113.62,-206.55"/>
<polygon fill="#63b8ff" stroke="#63b8ff" points="114.98,-203.32 104.39,-202.87 112.38,-209.83 114.98,-203.32"/>
</a>
</g>
</g>
<!-- Node7 -->
<g id="Node000007" class="node">
<title>Node7</title>
<g id="a_Node000007"><a xlink:title=" ">
<polygon fill="#e0e0e0" stroke="#999999" points="173.38,-201.88 125.88,-201.88 125.88,-182.62 173.38,-182.62 173.38,-201.88"/>
<text text-anchor="middle" x="149.62" y="-188.38" font-family="Helvetica,sans-Serif" font-size="10.00">string.h</text>
</a>
</g>
</g>
<!-- Node4&#45;&gt;Node7 -->
<g id="edge6_Node000004_Node000007" class="edge">
<title>Node4&#45;&gt;Node7</title>
<g id="a_edge6_Node000004_Node000007"><a xlink:title=" ">
<path fill="none" stroke="#63b8ff" d="M383.09,-245.02C318.4,-232.76 192.33,-208.82 187.62,-207.5 186.01,-207.05 184.37,-206.56 182.73,-206.04"/>
<polygon fill="#63b8ff" stroke="#63b8ff" points="183.95,-202.76 173.35,-202.82 181.67,-209.38 183.95,-202.76"/>
</a>
</g>
</g>
<!-- Node8 -->
<g id="Node000008" class="node">
<title>Node8</title>
<g id="a_Node000008"><a xlink:title=" ">
<polygon fill="#e0e0e0" stroke="#999999" points="241,-135.38 206.25,-135.38 206.25,-116.12 241,-116.12 241,-135.38"/>
<text text-anchor="middle" x="223.62" y="-121.88" font-family="Helvetica,sans-Serif" font-size="10.00">map</text>
</a>
</g>
</g>
<!-- Node4&#45;&gt;Node8 -->
<g id="edge7_Node000004_Node000008" class="edge">
<title>Node4&#45;&gt;Node8</title>
<g id="a_edge7_Node000004_Node000008"><a xlink:title=" ">
<path fill="none" stroke="#63b8ff" d="M384.31,-243.07C359.67,-235.87 327.08,-224.21 301.62,-207.5 275.36,-190.27 251.26,-162.73 237,-144.69"/>
<polygon fill="#63b8ff" stroke="#63b8ff" points="239.93,-142.77 231.06,-136.97 234.38,-147.03 239.93,-142.77"/>
</a>
</g>
</g>
<!-- Node9 -->
<g id="Node000009" class="node">
<title>Node9</title>
<g id="a_Node000009"><a xlink:title=" ">
<polygon fill="#e0e0e0" stroke="#999999" points="370.62,-74.5 330.62,-74.5 330.62,-55.25 370.62,-55.25 370.62,-74.5"/>
<text text-anchor="middle" x="350.62" y="-61" font-family="Helvetica,sans-Serif" font-size="10.00">string</text>
</a>
</g>
</g>
<!-- Node4&#45;&gt;Node9 -->
<g id="edge8_Node000004_Node000009" class="edge">
<title>Node4&#45;&gt;Node9</title>
<g id="a_edge8_Node000004_Node000009"><a xlink:title=" ">
<path fill="none" stroke="#63b8ff" d="M382.95,-243.85C343,-234.67 282.9,-219.55 262.62,-207.5 227.09,-186.39 213.22,-179.27 197.62,-141 192.51,-128.45 189.49,-121.34 197.62,-110.5 212.21,-91.06 278.81,-77.29 319.19,-70.56"/>
<polygon fill="#63b8ff" stroke="#63b8ff" points="319.49,-74.05 328.8,-69.01 318.38,-67.14 319.49,-74.05"/>
</a>
</g>
</g>
<!-- Node10 -->
<g id="Node000010" class="node">
<title>Node10</title>
<g id="a_Node000010"><a xlink:title=" ">
<polygon fill="#e0e0e0" stroke="#999999" points="570.38,-19.25 516.88,-19.25 516.88,0 570.38,0 570.38,-19.25"/>
<text text-anchor="middle" x="543.62" y="-5.75" font-family="Helvetica,sans-Serif" font-size="10.00">iostream</text>
</a>
</g>
</g>
<!-- Node4&#45;&gt;Node10 -->
<g id="edge9_Node000004_Node000010" class="edge">
<title>Node4&#45;&gt;Node10</title>
<g id="a_edge9_Node000004_Node000010"><a xlink:title=" ">
<path fill="none" stroke="#63b8ff" d="M458.33,-249.51C504.7,-245.23 585.09,-234.33 648.62,-207.5 696.44,-187.31 720.54,-186.98 744.62,-141 781.75,-70.12 649.58,-32.15 581.58,-17.65"/>
<polygon fill="#63b8ff" stroke="#63b8ff" points="582.46,-14.25 571.96,-15.67 581.05,-21.11 582.46,-14.25"/>
</a>
</g>
</g>
<!-- Node11 -->
<g id="Node000011" class="node">
<title>Node11</title>
<g id="a_Node000011"><a xlink:title=" ">
<polygon fill="#e0e0e0" stroke="#999999" points="795.25,-201.88 744,-201.88 744,-182.62 795.25,-182.62 795.25,-201.88"/>
<text text-anchor="middle" x="769.62" y="-188.38" font-family="Helvetica,sans-Serif" font-size="10.00">sstream</text>
</a>
</g>
</g>
<!-- Node4&#45;&gt;Node11 -->
<g id="edge10_Node000004_Node000011" class="edge">
<title>Node4&#45;&gt;Node11</title>
<g id="a_edge10_Node000004_Node000011"><a xlink:title=" ">
<path fill="none" stroke="#63b8ff" d="M458.19,-249.13C516.82,-243.91 633.34,-231.35 729.62,-207.5 731.63,-207 733.68,-206.44 735.73,-205.84"/>
<polygon fill="#63b8ff" stroke="#63b8ff" points="736.72,-209.2 745.16,-202.8 734.57,-202.54 736.72,-209.2"/>
</a>
</g>
</g>
<!-- Node12 -->
<g id="Node000012" class="node">
<title>Node12</title>
<g id="a_Node000012"><a xlink:title=" ">
<polygon fill="#e0e0e0" stroke="#999999" points="863.88,-201.88 813.38,-201.88 813.38,-182.62 863.88,-182.62 863.88,-201.88"/>
<text text-anchor="middle" x="838.62" y="-188.38" font-family="Helvetica,sans-Serif" font-size="10.00">memory</text>
</a>
</g>
</g>
<!-- Node4&#45;&gt;Node12 -->
<g id="edge11_Node000004_Node000012" class="edge">
<title>Node4&#45;&gt;Node12</title>
<g id="a_edge11_Node000004_Node000012"><a xlink:title=" ">
<path fill="none" stroke="#63b8ff" d="M458.34,-251.24C527.9,-248.84 680.62,-239.99 804.62,-207.5 806.02,-207.13 807.43,-206.72 808.84,-206.28"/>
<polygon fill="#63b8ff" stroke="#63b8ff" points="809.93,-209.61 818.11,-202.88 807.52,-203.04 809.93,-209.61"/>
</a>
</g>
</g>
<!-- Node13 -->
<g id="Node000013" class="node">
<title>Node13</title>
<g id="a_Node000013"><a xlink:title=" ">
<polygon fill="#e0e0e0" stroke="#999999" points="484.25,-135.38 439,-135.38 439,-116.12 484.25,-116.12 484.25,-135.38"/>
<text text-anchor="middle" x="461.62" y="-121.88" font-family="Helvetica,sans-Serif" font-size="10.00">chrono</text>
</a>
</g>
</g>
<!-- Node4&#45;&gt;Node13 -->
<g id="edge12_Node000004_Node000013" class="edge">
<title>Node4&#45;&gt;Node13</title>
<g id="a_edge12_Node000004_Node000013"><a xlink:title=" ">
<path fill="none" stroke="#63b8ff" d="M425.8,-243.16C430.72,-234.33 438.02,-220.35 442.62,-207.5 449.91,-187.19 455.18,-163 458.29,-146.42"/>
<polygon fill="#63b8ff" stroke="#63b8ff" points="461.68,-147.37 459.99,-136.91 454.79,-146.14 461.68,-147.37"/>
</a>
</g>
</g>
<!-- Node14 -->
<g id="Node000014" class="node">
<title>Node14</title>
<g id="a_Node000014"><a xlink:title=" ">
<polygon fill="#e0e0e0" stroke="#999999" points="911.02,-201.88 882.23,-201.88 882.23,-182.62 911.02,-182.62 911.02,-201.88"/>
<text text-anchor="middle" x="896.62" y="-188.38" font-family="Helvetica,sans-Serif" font-size="10.00">list</text>
</a>
</g>
</g>
<!-- Node4&#45;&gt;Node14 -->
<g id="edge13_Node000004_Node000014" class="edge">
<title>Node4&#45;&gt;Node14</title>
<g id="a_edge13_Node000004_Node000014"><a xlink:title=" ">
<path fill="none" stroke="#63b8ff" d="M458.15,-250.52C552.18,-246.16 795.83,-232.7 872.62,-207.5 872.99,-207.38 873.35,-207.26 873.71,-207.13"/>
<polygon fill="#63b8ff" stroke="#63b8ff" points="875.08,-210.35 882.56,-202.84 872.03,-204.05 875.08,-210.35"/>
</a>
</g>
</g>
<!-- Node15 -->
<g id="Node000015" class="node">
<title>Node15</title>
<g id="a_Node000015"><a xlink:href="IssueFactory_8hpp.html" target="_top" xlink:title=" ">
<polygon fill="white" stroke="#666666" points="434,-201.88 327.25,-201.88 327.25,-182.62 434,-182.62 434,-201.88"/>
<text text-anchor="middle" x="380.62" y="-188.38" font-family="Helvetica,sans-Serif" font-size="10.00">ers/IssueFactory.hpp</text>
</a>
</g>
</g>
<!-- Node4&#45;&gt;Node15 -->
<g id="edge14_Node000004_Node000015" class="edge">
<title>Node4&#45;&gt;Node15</title>
<g id="a_edge14_Node000004_Node000015"><a xlink:title=" ">
<path fill="none" stroke="#63b8ff" d="M414.55,-243.18C408.91,-234.88 400.34,-222.27 393.23,-211.8"/>
<polygon fill="#63b8ff" stroke="#63b8ff" points="396.12,-209.83 387.61,-203.53 390.33,-213.77 396.12,-209.83"/>
</a>
</g>
</g>
<!-- Node17 -->
<g id="Node000017" class="node">
<title>Node17</title>
<g id="a_Node000017"><a xlink:href="Severity_8hpp.html" target="_top" xlink:title=" ">
<polygon fill="white" stroke="#666666" points="344.5,-135.38 258.75,-135.38 258.75,-116.12 344.5,-116.12 344.5,-135.38"/>
<text text-anchor="middle" x="301.62" y="-121.88" font-family="Helvetica,sans-Serif" font-size="10.00">ers/Severity.hpp</text>
</a>
</g>
</g>
<!-- Node4&#45;&gt;Node17 -->
<g id="edge31_Node000004_Node000017" class="edge">
<title>Node4&#45;&gt;Node17</title>
<g id="a_edge31_Node000004_Node000017"><a xlink:title=" ">
<path fill="none" stroke="#63b8ff" d="M383.1,-244.72C361.14,-238.45 334.67,-227.22 318.62,-207.5 304.8,-190.51 301.43,-165.01 300.95,-147.23"/>
<polygon fill="#63b8ff" stroke="#63b8ff" points="304.45,-147.4 301,-137.39 297.45,-147.37 304.45,-147.4"/>
</a>
</g>
</g>
<!-- Node18 -->
<g id="Node000018" class="node">
<title>Node18</title>
<g id="a_Node000018"><a xlink:href="LocalContext_8hpp.html" target="_top" xlink:title=" ">
<polygon fill="white" stroke="#666666" points="639.38,-201.88 531.88,-201.88 531.88,-182.62 639.38,-182.62 639.38,-201.88"/>
<text text-anchor="middle" x="585.62" y="-188.38" font-family="Helvetica,sans-Serif" font-size="10.00">ers/LocalContext.hpp</text>
</a>
</g>
</g>
<!-- Node4&#45;&gt;Node18 -->
<g id="edge23_Node000004_Node000018" class="edge">
<title>Node4&#45;&gt;Node18</title>
<g id="a_edge23_Node000004_Node000018"><a xlink:title=" ">
<path fill="none" stroke="#63b8ff" d="M446.04,-243.05C473.78,-233.16 518.4,-217.24 549.71,-206.07"/>
<polygon fill="#63b8ff" stroke="#63b8ff" points="550.51,-209.5 558.75,-202.84 548.16,-202.9 550.51,-209.5"/>
</a>
</g>
</g>
<!-- Node23 -->
<g id="Node000023" class="node">
<title>Node23</title>
<g id="a_Node000023"><a xlink:href="IssueDeclarationMacro_8hpp.html" target="_top" xlink:title=" ">
<polygon fill="white" stroke="#666666" points="1145.5,-207.5 1005.75,-207.5 1005.75,-177 1145.5,-177 1145.5,-207.5"/>
<text text-anchor="start" x="1013.75" y="-194" font-family="Helvetica,sans-Serif" font-size="10.00">ers/internal/IssueDeclaration</text>
<text text-anchor="middle" x="1075.62" y="-182.75" font-family="Helvetica,sans-Serif" font-size="10.00">Macro.hpp</text>
</a>
</g>
</g>
<!-- Node4&#45;&gt;Node23 -->
<g id="edge32_Node000004_Node000023" class="edge">
<title>Node4&#45;&gt;Node23</title>
<g id="a_edge32_Node000004_Node000023"><a xlink:title=" ">
<path fill="none" stroke="#63b8ff" d="M458.19,-248.79C541.33,-241.4 747.24,-223.08 919.62,-207.5 943.83,-205.31 970.14,-202.92 994.14,-200.72"/>
<polygon fill="#63b8ff" stroke="#63b8ff" points="994.2,-204.23 1003.84,-199.84 993.56,-197.26 994.2,-204.23"/>
</a>
</g>
</g>
<!-- Node15&#45;&gt;Node8 -->
<g id="edge18_Node000015_Node000008" class="edge">
<title>Node15&#45;&gt;Node8</title>
<g id="a_edge18_Node000015_Node000008"><a xlink:title=" ">
<path fill="none" stroke="#63b8ff" d="M353.84,-182.17C329.1,-173.53 291.21,-159.66 249.73,-140.65"/>
<polygon fill="#63b8ff" stroke="#63b8ff" points="251.32,-137.52 240.77,-136.48 248.36,-143.87 251.32,-137.52"/>
</a>
</g>
</g>
<!-- Node15&#45;&gt;Node9 -->
<g id="edge16_Node000015_Node000009" class="edge">
<title>Node15&#45;&gt;Node9</title>
<g id="a_edge16_Node000015_Node000009"><a xlink:title=" ">
<path fill="none" stroke="#63b8ff" d="M378.47,-182.23C373.67,-162.17 362.01,-113.45 355.4,-85.83"/>
<polygon fill="#63b8ff" stroke="#63b8ff" points="358.85,-85.19 353.12,-76.28 352.04,-86.82 358.85,-85.19"/>
</a>
</g>
</g>
<!-- Node15&#45;&gt;Node13 -->
<g id="edge15_Node000015_Node000013" class="edge">
<title>Node15&#45;&gt;Node13</title>
<g id="a_edge15_Node000015_Node000013"><a xlink:title=" ">
<path fill="none" stroke="#63b8ff" d="M391.89,-182.28C404.63,-172.13 425.64,-155.4 441.28,-142.95"/>
<polygon fill="#63b8ff" stroke="#63b8ff" points="443.37,-145.76 449.01,-136.79 439.01,-140.28 443.37,-145.76"/>
</a>
</g>
</g>
<!-- Node16 -->
<g id="Node000016" class="node">
<title>Node16</title>
<g id="a_Node000016"><a xlink:title=" ">
<polygon fill="#e0e0e0" stroke="#999999" points="432.12,-74.5 389.12,-74.5 389.12,-55.25 432.12,-55.25 432.12,-74.5"/>
<text text-anchor="middle" x="410.62" y="-61" font-family="Helvetica,sans-Serif" font-size="10.00">vector</text>
</a>
</g>
</g>
<!-- Node15&#45;&gt;Node16 -->
<g id="edge17_Node000015_Node000016" class="edge">
<title>Node15&#45;&gt;Node16</title>
<g id="a_edge17_Node000015_Node000016"><a xlink:title=" ">
<path fill="none" stroke="#63b8ff" d="M382.78,-182.23C387.58,-162.17 399.24,-113.45 405.85,-85.83"/>
<polygon fill="#63b8ff" stroke="#63b8ff" points="409.21,-86.82 408.13,-76.28 402.4,-85.19 409.21,-86.82"/>
</a>
</g>
</g>
<!-- Node15&#45;&gt;Node17 -->
<g id="edge19_Node000015_Node000017" class="edge">
<title>Node15&#45;&gt;Node17</title>
<g id="a_edge19_Node000015_Node000017"><a xlink:title=" ">
<path fill="none" stroke="#63b8ff" d="M369.64,-182.28C357.21,-172.13 336.72,-155.4 321.47,-142.95"/>
<polygon fill="#63b8ff" stroke="#63b8ff" points="323.9,-140.42 313.94,-136.81 319.48,-145.84 323.9,-140.42"/>
</a>
</g>
</g>
<!-- Node17&#45;&gt;Node9 -->
<g id="edge20_Node000017_Node000009" class="edge">
<title>Node17&#45;&gt;Node9</title>
<g id="a_edge20_Node000017_Node000009"><a xlink:title=" ">
<path fill="none" stroke="#63b8ff" d="M309.07,-115.81C316.19,-107.25 327.13,-94.1 336,-83.45"/>
<polygon fill="#63b8ff" stroke="#63b8ff" points="338.44,-85.99 342.14,-76.06 333.06,-81.51 338.44,-85.99"/>
</a>
</g>
</g>
<!-- Node17&#45;&gt;Node10 -->
<g id="edge22_Node000017_Node000010" class="edge">
<title>Node17&#45;&gt;Node10</title>
<g id="a_edge22_Node000017_Node000010"><a xlink:title=" ">
<path fill="none" stroke="#63b8ff" d="M301.43,-116.03C301.62,-101.23 304.27,-71.24 321.62,-55.25 347.94,-31 449.1,-18.67 505.34,-13.57"/>
<polygon fill="#63b8ff" stroke="#63b8ff" points="505.45,-17.08 515.11,-12.73 504.85,-10.1 505.45,-17.08"/>
</a>
</g>
</g>
<!-- Node17&#45;&gt;Node16 -->
<g id="edge21_Node000017_Node000016" class="edge">
<title>Node17&#45;&gt;Node16</title>
<g id="a_edge21_Node000017_Node000016"><a xlink:title=" ">
<path fill="none" stroke="#63b8ff" d="M318.18,-115.81C335.63,-106.38 363.37,-91.4 383.92,-80.3"/>
<polygon fill="#63b8ff" stroke="#63b8ff" points="385.45,-83.45 392.58,-75.62 382.12,-77.29 385.45,-83.45"/>
</a>
</g>
</g>
<!-- Node19 -->
<g id="Node000019" class="node">
<title>Node19</title>
<g id="a_Node000019"><a xlink:title=" ">
<polygon fill="#e0e0e0" stroke="#999999" points="736,-135.38 671.25,-135.38 671.25,-116.12 736,-116.12 736,-135.38"/>
<text text-anchor="middle" x="703.62" y="-121.88" font-family="Helvetica,sans-Serif" font-size="10.00">sys/types.h</text>
</a>
</g>
</g>
<!-- Node18&#45;&gt;Node19 -->
<g id="edge24_Node000018_Node000019" class="edge">
<title>Node18&#45;&gt;Node19</title>
<g id="a_edge24_Node000018_Node000019"><a xlink:title=" ">
<path fill="none" stroke="#63b8ff" d="M602.28,-182.15C621.7,-171.53 654.04,-153.85 676.96,-141.32"/>
<polygon fill="#63b8ff" stroke="#63b8ff" points="678.63,-144.4 685.73,-136.53 675.27,-138.26 678.63,-144.4"/>
</a>
</g>
</g>
<!-- Node20 -->
<g id="Node000020" class="node">
<title>Node20</title>
<g id="a_Node000020"><a xlink:title=" ">
<polygon fill="#e0e0e0" stroke="#999999" points="653.5,-135.38 603.75,-135.38 603.75,-116.12 653.5,-116.12 653.5,-135.38"/>
<text text-anchor="middle" x="628.62" y="-121.88" font-family="Helvetica,sans-Serif" font-size="10.00">unistd.h</text>
</a>
</g>
</g>
<!-- Node18&#45;&gt;Node20 -->
<g id="edge25_Node000018_Node000020" class="edge">
<title>Node18&#45;&gt;Node20</title>
<g id="a_edge25_Node000018_Node000020"><a xlink:title=" ">
<path fill="none" stroke="#63b8ff" d="M591.6,-182.28C598.02,-172.65 608.39,-157.1 616.53,-144.9"/>
<polygon fill="#63b8ff" stroke="#63b8ff" points="619.22,-147.16 621.86,-136.9 613.4,-143.28 619.22,-147.16"/>
</a>
</g>
</g>
<!-- Node21 -->
<g id="Node000021" class="node">
<title>Node21</title>
<g id="a_Node000021"><a xlink:href="Context_8hpp.html" target="_top" xlink:title=" ">
<polygon fill="white" stroke="#666666" points="585.38,-135.38 501.88,-135.38 501.88,-116.12 585.38,-116.12 585.38,-135.38"/>
<text text-anchor="middle" x="543.62" y="-121.88" font-family="Helvetica,sans-Serif" font-size="10.00">ers/Context.hpp</text>
</a>
</g>
</g>
<!-- Node18&#45;&gt;Node21 -->
<g id="edge26_Node000018_Node000021" class="edge">
<title>Node18&#45;&gt;Node21</title>
<g id="a_edge26_Node000018_Node000021"><a xlink:title=" ">
<path fill="none" stroke="#63b8ff" d="M579.79,-182.28C573.58,-172.75 563.59,-157.41 555.68,-145.27"/>
<polygon fill="#63b8ff" stroke="#63b8ff" points="558.63,-143.38 550.24,-136.91 552.76,-147.2 558.63,-143.38"/>
</a>
</g>
</g>
<!-- Node21&#45;&gt;Node9 -->
<g id="edge27_Node000021_Node000009" class="edge">
<title>Node21&#45;&gt;Node9</title>
<g id="a_edge27_Node000021_Node000009"><a xlink:title=" ">
<path fill="none" stroke="#63b8ff" d="M513.89,-115.68C478.11,-104.77 418.31,-86.52 381.87,-75.41"/>
<polygon fill="#63b8ff" stroke="#63b8ff" points="382.95,-72.08 372.37,-72.51 380.91,-78.77 382.95,-72.08"/>
</a>
</g>
</g>
<!-- Node21&#45;&gt;Node16 -->
<g id="edge28_Node000021_Node000016" class="edge">
<title>Node21&#45;&gt;Node16</title>
<g id="a_edge28_Node000021_Node000016"><a xlink:title=" ">
<path fill="none" stroke="#63b8ff" d="M523.14,-115.68C501.3,-106.01 466.49,-90.6 441.36,-79.48"/>
<polygon fill="#63b8ff" stroke="#63b8ff" points="442.86,-76.32 432.3,-75.47 440.03,-82.72 442.86,-76.32"/>
</a>
</g>
</g>
<!-- Node22 -->
<g id="Node000022" class="node">
<title>Node22</title>
<g id="a_Node000022"><a xlink:href="ers_2include_2ers_2Configuration_8hpp.html" target="_top" xlink:title=" ">
<polygon fill="white" stroke="#666666" points="597,-74.5 490.25,-74.5 490.25,-55.25 597,-55.25 597,-74.5"/>
<text text-anchor="middle" x="543.62" y="-61" font-family="Helvetica,sans-Serif" font-size="10.00">ers/Configuration.hpp</text>
</a>
</g>
</g>
<!-- Node21&#45;&gt;Node22 -->
<g id="edge29_Node000021_Node000022" class="edge">
<title>Node21&#45;&gt;Node22</title>
<g id="a_edge29_Node000021_Node000022"><a xlink:title=" ">
<path fill="none" stroke="#63b8ff" d="M543.62,-115.81C543.62,-108.03 543.62,-96.45 543.62,-86.41"/>
<polygon fill="#63b8ff" stroke="#63b8ff" points="547.13,-86.41 543.63,-76.41 540.13,-86.41 547.13,-86.41"/>
</a>
</g>
</g>
<!-- Node22&#45;&gt;Node10 -->
<g id="edge30_Node000022_Node000010" class="edge">
<title>Node22&#45;&gt;Node10</title>
<g id="a_edge30_Node000022_Node000010"><a xlink:title=" ">
<path fill="none" stroke="#63b8ff" d="M543.62,-55.08C543.62,-48.57 543.62,-39.42 543.62,-31.12"/>
<polygon fill="#63b8ff" stroke="#63b8ff" points="547.13,-31.12 543.63,-21.12 540.13,-31.12 547.13,-31.12"/>
</a>
</g>
</g>
<!-- Node24 -->
<g id="Node000024" class="node">
<title>Node24</title>
<g id="a_Node000024"><a xlink:title=" ">
<polygon fill="#e0e0e0" stroke="#999999" points="891.25,-141 792,-141 792,-110.5 891.25,-110.5 891.25,-141"/>
<text text-anchor="start" x="800" y="-127.5" font-family="Helvetica,sans-Serif" font-size="10.00">boost/preprocessor</text>
<text text-anchor="middle" x="841.62" y="-116.25" font-family="Helvetica,sans-Serif" font-size="10.00">/if.hpp</text>
</a>
</g>
</g>
<!-- Node23&#45;&gt;Node24 -->
<g id="edge33_Node000023_Node000024" class="edge">
<title>Node23&#45;&gt;Node24</title>
<g id="a_edge33_Node000023_Node000024"><a xlink:title=" ">
<path fill="none" stroke="#63b8ff" d="M1022.23,-176.53C986.51,-166.69 939.41,-153.7 902.27,-143.47"/>
<polygon fill="#63b8ff" stroke="#63b8ff" points="903.62,-140.21 893.04,-140.92 901.76,-146.95 903.62,-140.21"/>
</a>
</g>
</g>
<!-- Node25 -->
<g id="Node000025" class="node">
<title>Node25</title>
<g id="a_Node000025"><a xlink:title=" ">
<polygon fill="#e0e0e0" stroke="#999999" points="1008.25,-141 909,-141 909,-110.5 1008.25,-110.5 1008.25,-141"/>
<text text-anchor="start" x="917" y="-127.5" font-family="Helvetica,sans-Serif" font-size="10.00">boost/preprocessor</text>
<text text-anchor="middle" x="958.62" y="-116.25" font-family="Helvetica,sans-Serif" font-size="10.00">/seq.hpp</text>
</a>
</g>
</g>
<!-- Node23&#45;&gt;Node25 -->
<g id="edge34_Node000023_Node000025" class="edge">
<title>Node23&#45;&gt;Node25</title>
<g id="a_edge34_Node000023_Node000025"><a xlink:title=" ">
<path fill="none" stroke="#63b8ff" d="M1049.08,-176.61C1033.07,-167.79 1012.46,-156.43 994.96,-146.78"/>
<polygon fill="#63b8ff" stroke="#63b8ff" points="996.84,-143.82 986.39,-142.06 993.46,-149.95 996.84,-143.82"/>
</a>
</g>
</g>
<!-- Node26 -->
<g id="Node000026" class="node">
<title>Node26</title>
<g id="a_Node000026"><a xlink:title=" ">
<polygon fill="#e0e0e0" stroke="#999999" points="1125.25,-141 1026,-141 1026,-110.5 1125.25,-110.5 1125.25,-141"/>
<text text-anchor="start" x="1034" y="-127.5" font-family="Helvetica,sans-Serif" font-size="10.00">boost/preprocessor</text>
<text text-anchor="middle" x="1075.62" y="-116.25" font-family="Helvetica,sans-Serif" font-size="10.00">/tuple.hpp</text>
</a>
</g>
</g>
<!-- Node23&#45;&gt;Node26 -->
<g id="edge35_Node000023_Node000026" class="edge">
<title>Node23&#45;&gt;Node26</title>
<g id="a_edge35_Node000023_Node000026"><a xlink:title=" ">
<path fill="none" stroke="#63b8ff" d="M1075.62,-176.61C1075.62,-169.52 1075.62,-160.79 1075.62,-152.63"/>
<polygon fill="#63b8ff" stroke="#63b8ff" points="1079.13,-152.84 1075.63,-142.84 1072.13,-152.84 1079.13,-152.84"/>
</a>
</g>
</g>
<!-- Node27 -->
<g id="Node000027" class="node">
<title>Node27</title>
<g id="a_Node000027"><a xlink:title=" ">
<polygon fill="#e0e0e0" stroke="#999999" points="1242.25,-141 1143,-141 1143,-110.5 1242.25,-110.5 1242.25,-141"/>
<text text-anchor="start" x="1151" y="-127.5" font-family="Helvetica,sans-Serif" font-size="10.00">boost/preprocessor</text>
<text text-anchor="middle" x="1192.62" y="-116.25" font-family="Helvetica,sans-Serif" font-size="10.00">/logical.hpp</text>
</a>
</g>
</g>
<!-- Node23&#45;&gt;Node27 -->
<g id="edge36_Node000023_Node000027" class="edge">
<title>Node23&#45;&gt;Node27</title>
<g id="a_edge36_Node000023_Node000027"><a xlink:title=" ">
<path fill="none" stroke="#63b8ff" d="M1102.17,-176.61C1118.18,-167.79 1138.79,-156.43 1156.29,-146.78"/>
<polygon fill="#63b8ff" stroke="#63b8ff" points="1157.79,-149.95 1164.86,-142.06 1154.41,-143.82 1157.79,-149.95"/>
</a>
</g>
</g>
<!-- Node28 -->
<g id="Node000028" class="node">
<title>Node28</title>
<g id="a_Node000028"><a xlink:title=" ">
<polygon fill="#e0e0e0" stroke="#999999" points="1359.25,-141 1260,-141 1260,-110.5 1359.25,-110.5 1359.25,-141"/>
<text text-anchor="start" x="1268" y="-127.5" font-family="Helvetica,sans-Serif" font-size="10.00">boost/preprocessor</text>
<text text-anchor="middle" x="1309.62" y="-116.25" font-family="Helvetica,sans-Serif" font-size="10.00">/stringize.hpp</text>
</a>
</g>
</g>
<!-- Node23&#45;&gt;Node28 -->
<g id="edge37_Node000023_Node000028" class="edge">
<title>Node23&#45;&gt;Node28</title>
<g id="a_edge37_Node000023_Node000028"><a xlink:title=" ">
<path fill="none" stroke="#63b8ff" d="M1129.02,-176.53C1164.74,-166.69 1211.84,-153.7 1248.98,-143.47"/>
<polygon fill="#63b8ff" stroke="#63b8ff" points="1249.49,-146.95 1258.21,-140.92 1247.63,-140.21 1249.49,-146.95"/>
</a>
</g>
</g>
<!-- Node29 -->
<g id="Node000029" class="node">
<title>Node29</title>
<g id="a_Node000029"><a xlink:title=" ">
<polygon fill="#e0e0e0" stroke="#999999" points="1476.25,-141 1377,-141 1377,-110.5 1476.25,-110.5 1476.25,-141"/>
<text text-anchor="start" x="1385" y="-127.5" font-family="Helvetica,sans-Serif" font-size="10.00">boost/preprocessor</text>
<text text-anchor="middle" x="1426.62" y="-116.25" font-family="Helvetica,sans-Serif" font-size="10.00">/comparison.hpp</text>
</a>
</g>
</g>
<!-- Node23&#45;&gt;Node29 -->
<g id="edge38_Node000023_Node000029" class="edge">
<title>Node23&#45;&gt;Node29</title>
<g id="a_edge38_Node000023_Node000029"><a xlink:title=" ">
<path fill="none" stroke="#63b8ff" d="M1145.75,-180.66C1202.71,-171.73 1285.36,-158.03 1365.86,-141.5"/>
<polygon fill="#63b8ff" stroke="#63b8ff" points="1366.13,-145.02 1375.21,-139.56 1364.71,-138.17 1366.13,-145.02"/>
</a>
</g>
</g>
</g>
</svg>
