<?xml version="1.0" encoding="UTF-8" standalone="no"?>
<!DOCTYPE svg PUBLIC "-//W3C//DTD SVG 1.1//EN"
 "http://www.w3.org/Graphics/SVG/1.1/DTD/svg11.dtd">
<!-- Generated by graphviz version 9.0.0 (20230911.1827)
 -->
<!-- Title: sourcecode/dbe/include/dbe/SchemaCustomMethodImplementationModel.hpp Pages: 1 -->
<svg width="428pt" height="205pt"
 viewBox="0.00 0.00 428.12 205.25" xmlns="http://www.w3.org/2000/svg" xmlns:xlink="http://www.w3.org/1999/xlink">
<g id="graph0" class="graph" transform="scale(1 1) rotate(0) translate(4 201.25)">
<title>sourcecode/dbe/include/dbe/SchemaCustomMethodImplementationModel.hpp</title>
<!-- Node1 -->
<g id="Node000001" class="node">
<title>Node1</title>
<g id="a_Node000001"><a xlink:title=" ">
<polygon fill="#999999" stroke="#666666" points="268.88,-197.25 62.38,-197.25 62.38,-155.5 268.88,-155.5 268.88,-197.25"/>
<text text-anchor="start" x="70.38" y="-183.75" font-family="Helvetica,sans-Serif" font-size="10.00">sourcecode/dbe/include</text>
<text text-anchor="start" x="70.38" y="-172.5" font-family="Helvetica,sans-Serif" font-size="10.00">/dbe/SchemaCustomMethodImplementation</text>
<text text-anchor="middle" x="165.62" y="-161.25" font-family="Helvetica,sans-Serif" font-size="10.00">Model.hpp</text>
</a>
</g>
</g>
<!-- Node2 -->
<g id="Node000002" class="node">
<title>Node2</title>
<g id="a_Node000002"><a xlink:href="SchemaCustomMethodImplementationModel_8cpp.html" target="_top" xlink:title=" ">
<polygon fill="white" stroke="#666666" points="159.25,-119.5 0,-119.5 0,-77.75 159.25,-77.75 159.25,-119.5"/>
<text text-anchor="start" x="8" y="-106" font-family="Helvetica,sans-Serif" font-size="10.00">sourcecode/dbe/apps</text>
<text text-anchor="start" x="8" y="-94.75" font-family="Helvetica,sans-Serif" font-size="10.00">/SchemaEditor/SchemaCustom</text>
<text text-anchor="middle" x="79.62" y="-83.5" font-family="Helvetica,sans-Serif" font-size="10.00">MethodImplementationModel.cpp</text>
</a>
</g>
</g>
<!-- Node1&#45;&gt;Node2 -->
<g id="edge1_Node000001_Node000002" class="edge">
<title>Node1&#45;&gt;Node2</title>
<g id="a_edge1_Node000001_Node000002"><a xlink:title=" ">
<path fill="none" stroke="#63b8ff" d="M134.14,-147.64C123.74,-138.48 112.38,-128.48 102.74,-119.98"/>
<polygon fill="#63b8ff" stroke="#63b8ff" points="131.63,-150.09 141.44,-154.07 136.25,-144.84 131.63,-150.09"/>
</a>
</g>
</g>
<!-- Node3 -->
<g id="Node000003" class="node">
<title>Node3</title>
<g id="a_Node000003"><a xlink:href="SchemaMethodEditor_8hpp.html" target="_top" xlink:title=" ">
<polygon fill="white" stroke="#666666" points="326,-113.88 177.25,-113.88 177.25,-83.38 326,-83.38 326,-113.88"/>
<text text-anchor="start" x="185.25" y="-100.38" font-family="Helvetica,sans-Serif" font-size="10.00">sourcecode/dbe/include</text>
<text text-anchor="middle" x="251.62" y="-89.12" font-family="Helvetica,sans-Serif" font-size="10.00">/dbe/SchemaMethodEditor.hpp</text>
</a>
</g>
</g>
<!-- Node1&#45;&gt;Node3 -->
<g id="edge2_Node000001_Node000003" class="edge">
<title>Node1&#45;&gt;Node3</title>
<g id="a_edge2_Node000001_Node000003"><a xlink:title=" ">
<path fill="none" stroke="#63b8ff" d="M197.26,-147.51C210.08,-136.22 224.36,-123.64 235.06,-114.21"/>
<polygon fill="#63b8ff" stroke="#63b8ff" points="195,-144.84 189.81,-154.07 199.62,-150.09 195,-144.84"/>
</a>
</g>
</g>
<!-- Node4 -->
<g id="Node000004" class="node">
<title>Node4</title>
<g id="a_Node000004"><a xlink:href="SchemaClassEditor_8cpp.html" target="_top" xlink:title=" ">
<polygon fill="white" stroke="#666666" points="250.75,-36.12 64.5,-36.12 64.5,-5.62 250.75,-5.62 250.75,-36.12"/>
<text text-anchor="start" x="72.5" y="-22.62" font-family="Helvetica,sans-Serif" font-size="10.00">sourcecode/dbe/apps</text>
<text text-anchor="middle" x="157.62" y="-11.38" font-family="Helvetica,sans-Serif" font-size="10.00">/SchemaEditor/SchemaClassEditor.cpp</text>
</a>
</g>
</g>
<!-- Node3&#45;&gt;Node4 -->
<g id="edge3_Node000003_Node000004" class="edge">
<title>Node3&#45;&gt;Node4</title>
<g id="a_edge3_Node000003_Node000004"><a xlink:title=" ">
<path fill="none" stroke="#63b8ff" d="M224.74,-75.96C209.02,-63.29 189.59,-47.64 175.69,-36.44"/>
<polygon fill="#63b8ff" stroke="#63b8ff" points="222.34,-78.52 232.32,-82.07 226.73,-73.07 222.34,-78.52"/>
</a>
</g>
</g>
<!-- Node5 -->
<g id="Node000005" class="node">
<title>Node5</title>
<g id="a_Node000005"><a xlink:href="SchemaMethodEditor_8cpp.html" target="_top" xlink:title=" ">
<polygon fill="white" stroke="#666666" points="420.12,-41.75 269.12,-41.75 269.12,0 420.12,0 420.12,-41.75"/>
<text text-anchor="start" x="277.12" y="-28.25" font-family="Helvetica,sans-Serif" font-size="10.00">sourcecode/dbe/apps</text>
<text text-anchor="start" x="277.12" y="-17" font-family="Helvetica,sans-Serif" font-size="10.00">/SchemaEditor/SchemaMethod</text>
<text text-anchor="middle" x="344.62" y="-5.75" font-family="Helvetica,sans-Serif" font-size="10.00">Editor.cpp</text>
</a>
</g>
</g>
<!-- Node3&#45;&gt;Node5 -->
<g id="edge4_Node000003_Node000005" class="edge">
<title>Node3&#45;&gt;Node5</title>
<g id="a_edge4_Node000003_Node000005"><a xlink:title=" ">
<path fill="none" stroke="#63b8ff" d="M278.12,-76.04C291.19,-65.4 306.87,-52.63 319.72,-42.16"/>
<polygon fill="#63b8ff" stroke="#63b8ff" points="276.27,-73.03 270.73,-82.06 280.69,-78.46 276.27,-73.03"/>
</a>
</g>
</g>
</g>
</svg>
