<?xml version="1.0" encoding="UTF-8" standalone="no"?>
<!DOCTYPE svg PUBLIC "-//W3C//DTD SVG 1.1//EN"
 "http://www.w3.org/Graphics/SVG/1.1/DTD/svg11.dtd">
<!-- Generated by graphviz version 9.0.0 (20230911.1827)
 -->
<!-- Title: sourcecode/dbe/include/dbe/SchemaCommand.hpp Pages: 1 -->
<svg width="2500pt" height="183pt"
 viewBox="0.00 0.00 2499.50 182.75" xmlns="http://www.w3.org/2000/svg" xmlns:xlink="http://www.w3.org/1999/xlink">
<g id="graph0" class="graph" transform="scale(1 1) rotate(0) translate(4 178.75)">
<title>sourcecode/dbe/include/dbe/SchemaCommand.hpp</title>
<!-- Node1 -->
<g id="Node000001" class="node">
<title>Node1</title>
<g id="a_Node000001"><a xlink:title=" ">
<polygon fill="#999999" stroke="#666666" points="696.5,-174.75 560.5,-174.75 560.5,-144.25 696.5,-144.25 696.5,-174.75"/>
<text text-anchor="start" x="568.5" y="-161.25" font-family="Helvetica,sans-Serif" font-size="10.00">sourcecode/dbe/include</text>
<text text-anchor="middle" x="628.5" y="-150" font-family="Helvetica,sans-Serif" font-size="10.00">/dbe/SchemaCommand.hpp</text>
</a>
</g>
</g>
<!-- Node2 -->
<g id="Node000002" class="node">
<title>Node2</title>
<g id="a_Node000002"><a xlink:href="SchemaCommand_8cpp.html" target="_top" xlink:title=" ">
<polygon fill="white" stroke="#666666" points="181,-36.12 0,-36.12 0,-5.62 181,-5.62 181,-36.12"/>
<text text-anchor="start" x="8" y="-22.62" font-family="Helvetica,sans-Serif" font-size="10.00">sourcecode/dbe/apps</text>
<text text-anchor="middle" x="90.5" y="-11.38" font-family="Helvetica,sans-Serif" font-size="10.00">/SchemaEditor/SchemaCommand.cpp</text>
</a>
</g>
</g>
<!-- Node1&#45;&gt;Node2 -->
<g id="edge1_Node000001_Node000002" class="edge">
<title>Node1&#45;&gt;Node2</title>
<g id="a_edge1_Node000001_Node000002"><a xlink:title=" ">
<path fill="none" stroke="#63b8ff" d="M559.68,-141.02C452.67,-113.85 248.33,-61.96 148.41,-36.58"/>
<polygon fill="#63b8ff" stroke="#63b8ff" points="558.65,-144.37 569.2,-143.44 560.37,-137.59 558.65,-144.37"/>
</a>
</g>
</g>
<!-- Node3 -->
<g id="Node000003" class="node">
<title>Node3</title>
<g id="a_Node000003"><a xlink:href="SchemaKernelWrapper_8hpp.html" target="_top" xlink:title=" ">
<polygon fill="white" stroke="#666666" points="1243.25,-108.25 1087.75,-108.25 1087.75,-77.75 1243.25,-77.75 1243.25,-108.25"/>
<text text-anchor="start" x="1095.75" y="-94.75" font-family="Helvetica,sans-Serif" font-size="10.00">sourcecode/dbe/include</text>
<text text-anchor="middle" x="1165.5" y="-83.5" font-family="Helvetica,sans-Serif" font-size="10.00">/dbe/SchemaKernelWrapper.hpp</text>
</a>
</g>
</g>
<!-- Node1&#45;&gt;Node3 -->
<g id="edge2_Node000001_Node000003" class="edge">
<title>Node1&#45;&gt;Node3</title>
<g id="a_edge2_Node000001_Node000003"><a xlink:title=" ">
<path fill="none" stroke="#63b8ff" d="M707.94,-148.96C809.94,-136.71 985.85,-115.58 1087.26,-103.4"/>
<polygon fill="#63b8ff" stroke="#63b8ff" points="707.8,-145.45 698.29,-150.12 708.63,-152.4 707.8,-145.45"/>
</a>
</g>
</g>
<!-- Node3&#45;&gt;Node2 -->
<g id="edge5_Node000003_Node000002" class="edge">
<title>Node3&#45;&gt;Node2</title>
<g id="a_edge5_Node000003_Node000002"><a xlink:title=" ">
<path fill="none" stroke="#63b8ff" d="M1076.07,-91.77C903.81,-90.36 514.27,-82.49 189.5,-41.75 178.89,-40.42 167.71,-38.59 156.85,-36.59"/>
<polygon fill="#63b8ff" stroke="#63b8ff" points="1075.81,-95.27 1085.84,-91.84 1075.87,-88.27 1075.81,-95.27"/>
</a>
</g>
</g>
<!-- Node4 -->
<g id="Node000004" class="node">
<title>Node4</title>
<g id="a_Node000004"><a xlink:href="SchemaAttributeEditor_8cpp.html" target="_top" xlink:title=" ">
<polygon fill="white" stroke="#666666" points="354.25,-41.75 198.75,-41.75 198.75,0 354.25,0 354.25,-41.75"/>
<text text-anchor="start" x="206.75" y="-28.25" font-family="Helvetica,sans-Serif" font-size="10.00">sourcecode/dbe/apps</text>
<text text-anchor="start" x="206.75" y="-17" font-family="Helvetica,sans-Serif" font-size="10.00">/SchemaEditor/SchemaAttribute</text>
<text text-anchor="middle" x="276.5" y="-5.75" font-family="Helvetica,sans-Serif" font-size="10.00">Editor.cpp</text>
</a>
</g>
</g>
<!-- Node3&#45;&gt;Node4 -->
<g id="edge3_Node000003_Node000004" class="edge">
<title>Node3&#45;&gt;Node4</title>
<g id="a_edge3_Node000003_Node000004"><a xlink:title=" ">
<path fill="none" stroke="#63b8ff" d="M1076.07,-91.11C927.41,-88.59 620.36,-78.89 363.5,-41.75 360.59,-41.33 357.63,-40.86 354.64,-40.35"/>
<polygon fill="#63b8ff" stroke="#63b8ff" points="1075.8,-94.61 1085.85,-91.27 1075.91,-87.61 1075.8,-94.61"/>
</a>
</g>
</g>
<!-- Node5 -->
<g id="Node000005" class="node">
<title>Node5</title>
<g id="a_Node000005"><a xlink:href="SchemaClassEditor_8cpp.html" target="_top" xlink:title=" ">
<polygon fill="white" stroke="#666666" points="558.62,-36.12 372.38,-36.12 372.38,-5.62 558.62,-5.62 558.62,-36.12"/>
<text text-anchor="start" x="380.38" y="-22.62" font-family="Helvetica,sans-Serif" font-size="10.00">sourcecode/dbe/apps</text>
<text text-anchor="middle" x="465.5" y="-11.38" font-family="Helvetica,sans-Serif" font-size="10.00">/SchemaEditor/SchemaClassEditor.cpp</text>
</a>
</g>
</g>
<!-- Node3&#45;&gt;Node5 -->
<g id="edge4_Node000003_Node000005" class="edge">
<title>Node3&#45;&gt;Node5</title>
<g id="a_edge4_Node000003_Node000005"><a xlink:title=" ">
<path fill="none" stroke="#63b8ff" d="M1075.92,-87.51C958.68,-80.95 747.01,-66.71 567.5,-41.75 557.23,-40.32 546.42,-38.53 535.84,-36.62"/>
<polygon fill="#63b8ff" stroke="#63b8ff" points="1075.63,-91 1085.8,-88.06 1076.01,-84.01 1075.63,-91"/>
</a>
</g>
</g>
<!-- Node6 -->
<g id="Node000006" class="node">
<title>Node6</title>
<g id="a_Node000006"><a xlink:href="SchemaCustomFileModel_8cpp.html" target="_top" xlink:title=" ">
<polygon fill="white" stroke="#666666" points="728.75,-41.75 576.25,-41.75 576.25,0 728.75,0 728.75,-41.75"/>
<text text-anchor="start" x="584.25" y="-28.25" font-family="Helvetica,sans-Serif" font-size="10.00">sourcecode/dbe/apps</text>
<text text-anchor="start" x="584.25" y="-17" font-family="Helvetica,sans-Serif" font-size="10.00">/SchemaEditor/SchemaCustom</text>
<text text-anchor="middle" x="652.5" y="-5.75" font-family="Helvetica,sans-Serif" font-size="10.00">FileModel.cpp</text>
</a>
</g>
</g>
<!-- Node3&#45;&gt;Node6 -->
<g id="edge6_Node000003_Node000006" class="edge">
<title>Node3&#45;&gt;Node6</title>
<g id="a_edge6_Node000003_Node000006"><a xlink:title=" ">
<path fill="none" stroke="#63b8ff" d="M1076.23,-84.38C989.55,-76.3 854.45,-61.91 738.5,-41.75 735.33,-41.2 732.1,-40.6 728.84,-39.98"/>
<polygon fill="#63b8ff" stroke="#63b8ff" points="1075.81,-87.85 1086.09,-85.29 1076.46,-80.88 1075.81,-87.85"/>
</a>
</g>
</g>
<!-- Node7 -->
<g id="Node000007" class="node">
<title>Node7</title>
<g id="a_Node000007"><a xlink:href="SchemaCustomModelInterface_8cpp.html" target="_top" xlink:title=" ">
<polygon fill="white" stroke="#666666" points="899.75,-41.75 747.25,-41.75 747.25,0 899.75,0 899.75,-41.75"/>
<text text-anchor="start" x="755.25" y="-28.25" font-family="Helvetica,sans-Serif" font-size="10.00">sourcecode/dbe/apps</text>
<text text-anchor="start" x="755.25" y="-17" font-family="Helvetica,sans-Serif" font-size="10.00">/SchemaEditor/SchemaCustom</text>
<text text-anchor="middle" x="823.5" y="-5.75" font-family="Helvetica,sans-Serif" font-size="10.00">ModelInterface.cpp</text>
</a>
</g>
</g>
<!-- Node3&#45;&gt;Node7 -->
<g id="edge7_Node000003_Node000007" class="edge">
<title>Node3&#45;&gt;Node7</title>
<g id="a_edge7_Node000003_Node000007"><a xlink:title=" ">
<path fill="none" stroke="#63b8ff" d="M1076.23,-75.23C1026.98,-65.79 964.77,-53.56 909.5,-41.75 906.35,-41.08 903.14,-40.38 899.9,-39.67"/>
<polygon fill="#63b8ff" stroke="#63b8ff" points="1075.53,-78.66 1086.01,-77.1 1076.85,-71.79 1075.53,-78.66"/>
</a>
</g>
</g>
<!-- Node8 -->
<g id="Node000008" class="node">
<title>Node8</title>
<g id="a_Node000008"><a xlink:href="SchemaCustomTableModel_8cpp.html" target="_top" xlink:title=" ">
<polygon fill="white" stroke="#666666" points="1070.75,-41.75 918.25,-41.75 918.25,0 1070.75,0 1070.75,-41.75"/>
<text text-anchor="start" x="926.25" y="-28.25" font-family="Helvetica,sans-Serif" font-size="10.00">sourcecode/dbe/apps</text>
<text text-anchor="start" x="926.25" y="-17" font-family="Helvetica,sans-Serif" font-size="10.00">/SchemaEditor/SchemaCustom</text>
<text text-anchor="middle" x="994.5" y="-5.75" font-family="Helvetica,sans-Serif" font-size="10.00">TableModel.cpp</text>
</a>
</g>
</g>
<!-- Node3&#45;&gt;Node8 -->
<g id="edge8_Node000003_Node000008" class="edge">
<title>Node3&#45;&gt;Node8</title>
<g id="a_edge8_Node000003_Node000008"><a xlink:title=" ">
<path fill="none" stroke="#63b8ff" d="M1119.01,-72.93C1095.74,-63.39 1067.57,-51.84 1043.92,-42.14"/>
<polygon fill="#63b8ff" stroke="#63b8ff" points="1117.67,-76.17 1128.25,-76.73 1120.33,-69.69 1117.67,-76.17"/>
</a>
</g>
</g>
<!-- Node9 -->
<g id="Node000009" class="node">
<title>Node9</title>
<g id="a_Node000009"><a xlink:href="SchemaGraphicArrow_8cpp.html" target="_top" xlink:title=" ">
<polygon fill="white" stroke="#666666" points="1241.75,-41.75 1089.25,-41.75 1089.25,0 1241.75,0 1241.75,-41.75"/>
<text text-anchor="start" x="1097.25" y="-28.25" font-family="Helvetica,sans-Serif" font-size="10.00">sourcecode/dbe/apps</text>
<text text-anchor="start" x="1097.25" y="-17" font-family="Helvetica,sans-Serif" font-size="10.00">/SchemaEditor/SchemaGraphic</text>
<text text-anchor="middle" x="1165.5" y="-5.75" font-family="Helvetica,sans-Serif" font-size="10.00">Arrow.cpp</text>
</a>
</g>
</g>
<!-- Node3&#45;&gt;Node9 -->
<g id="edge9_Node000003_Node000009" class="edge">
<title>Node3&#45;&gt;Node9</title>
<g id="a_edge9_Node000003_Node000009"><a xlink:title=" ">
<path fill="none" stroke="#63b8ff" d="M1165.5,-66.22C1165.5,-58.31 1165.5,-49.73 1165.5,-42.24"/>
<polygon fill="#63b8ff" stroke="#63b8ff" points="1162,-65.96 1165.5,-75.96 1169,-65.96 1162,-65.96"/>
</a>
</g>
</g>
<!-- Node10 -->
<g id="Node000010" class="node">
<title>Node10</title>
<g id="a_Node000010"><a xlink:href="SchemaGraphicObject_8cpp.html" target="_top" xlink:title=" ">
<polygon fill="white" stroke="#666666" points="1412.75,-41.75 1260.25,-41.75 1260.25,0 1412.75,0 1412.75,-41.75"/>
<text text-anchor="start" x="1268.25" y="-28.25" font-family="Helvetica,sans-Serif" font-size="10.00">sourcecode/dbe/apps</text>
<text text-anchor="start" x="1268.25" y="-17" font-family="Helvetica,sans-Serif" font-size="10.00">/SchemaEditor/SchemaGraphic</text>
<text text-anchor="middle" x="1336.5" y="-5.75" font-family="Helvetica,sans-Serif" font-size="10.00">Object.cpp</text>
</a>
</g>
</g>
<!-- Node3&#45;&gt;Node10 -->
<g id="edge10_Node000003_Node000010" class="edge">
<title>Node3&#45;&gt;Node10</title>
<g id="a_edge10_Node000003_Node000010"><a xlink:title=" ">
<path fill="none" stroke="#63b8ff" d="M1211.99,-72.93C1235.26,-63.39 1263.43,-51.84 1287.08,-42.14"/>
<polygon fill="#63b8ff" stroke="#63b8ff" points="1210.67,-69.69 1202.75,-76.73 1213.33,-76.17 1210.67,-69.69"/>
</a>
</g>
</g>
<!-- Node11 -->
<g id="Node000011" class="node">
<title>Node11</title>
<g id="a_Node000011"><a xlink:href="SchemaGraphicsScene_8cpp.html" target="_top" xlink:title=" ">
<polygon fill="white" stroke="#666666" points="1588.38,-41.75 1430.62,-41.75 1430.62,0 1588.38,0 1588.38,-41.75"/>
<text text-anchor="start" x="1438.62" y="-28.25" font-family="Helvetica,sans-Serif" font-size="10.00">sourcecode/dbe/apps</text>
<text text-anchor="start" x="1438.62" y="-17" font-family="Helvetica,sans-Serif" font-size="10.00">/SchemaEditor/SchemaGraphics</text>
<text text-anchor="middle" x="1509.5" y="-5.75" font-family="Helvetica,sans-Serif" font-size="10.00">Scene.cpp</text>
</a>
</g>
</g>
<!-- Node3&#45;&gt;Node11 -->
<g id="edge11_Node000003_Node000011" class="edge">
<title>Node3&#45;&gt;Node11</title>
<g id="a_edge11_Node000003_Node000011"><a xlink:title=" ">
<path fill="none" stroke="#63b8ff" d="M1254.74,-75.13C1303.99,-65.65 1366.2,-53.42 1421.5,-41.75 1424.41,-41.14 1427.38,-40.5 1430.37,-39.86"/>
<polygon fill="#63b8ff" stroke="#63b8ff" points="1254.13,-71.68 1244.97,-77 1255.45,-78.55 1254.13,-71.68"/>
</a>
</g>
</g>
<!-- Node12 -->
<g id="Node000012" class="node">
<title>Node12</title>
<g id="a_Node000012"><a xlink:href="SchemaKernelWrapper_8cpp.html" target="_top" xlink:title=" ">
<polygon fill="white" stroke="#666666" points="1752.75,-41.75 1606.25,-41.75 1606.25,0 1752.75,0 1752.75,-41.75"/>
<text text-anchor="start" x="1614.25" y="-28.25" font-family="Helvetica,sans-Serif" font-size="10.00">sourcecode/dbe/apps</text>
<text text-anchor="start" x="1614.25" y="-17" font-family="Helvetica,sans-Serif" font-size="10.00">/SchemaEditor/SchemaKernel</text>
<text text-anchor="middle" x="1679.5" y="-5.75" font-family="Helvetica,sans-Serif" font-size="10.00">Wrapper.cpp</text>
</a>
</g>
</g>
<!-- Node3&#45;&gt;Node12 -->
<g id="edge12_Node000003_Node000012" class="edge">
<title>Node3&#45;&gt;Node12</title>
<g id="a_edge12_Node000003_Node000012"><a xlink:title=" ">
<path fill="none" stroke="#63b8ff" d="M1254.81,-84.82C1342.49,-77.01 1479.83,-62.77 1597.5,-41.75 1600.24,-41.26 1603.02,-40.73 1605.83,-40.18"/>
<polygon fill="#63b8ff" stroke="#63b8ff" points="1254.73,-81.31 1245.07,-85.67 1255.34,-88.28 1254.73,-81.31"/>
</a>
</g>
</g>
<!-- Node13 -->
<g id="Node000013" class="node">
<title>Node13</title>
<g id="a_Node000013"><a xlink:href="SchemaMainWindow_8cpp.html" target="_top" xlink:title=" ">
<polygon fill="white" stroke="#666666" points="1962.62,-36.12 1770.38,-36.12 1770.38,-5.62 1962.62,-5.62 1962.62,-36.12"/>
<text text-anchor="start" x="1778.38" y="-22.62" font-family="Helvetica,sans-Serif" font-size="10.00">sourcecode/dbe/apps</text>
<text text-anchor="middle" x="1866.5" y="-11.38" font-family="Helvetica,sans-Serif" font-size="10.00">/SchemaEditor/SchemaMainWindow.cpp</text>
</a>
</g>
</g>
<!-- Node3&#45;&gt;Node13 -->
<g id="edge13_Node000003_Node000013" class="edge">
<title>Node3&#45;&gt;Node13</title>
<g id="a_edge13_Node000003_Node000013"><a xlink:title=" ">
<path fill="none" stroke="#63b8ff" d="M1254.76,-87.35C1371.58,-80.6 1582.52,-66.17 1761.5,-41.75 1772.07,-40.31 1783.19,-38.51 1794.08,-36.59"/>
<polygon fill="#63b8ff" stroke="#63b8ff" points="1254.7,-83.85 1244.92,-87.91 1255.1,-90.83 1254.7,-83.85"/>
</a>
</g>
</g>
<!-- Node14 -->
<g id="Node000014" class="node">
<title>Node14</title>
<g id="a_Node000014"><a xlink:href="SchemaMethodEditor_8cpp.html" target="_top" xlink:title=" ">
<polygon fill="white" stroke="#666666" points="2132,-41.75 1981,-41.75 1981,0 2132,0 2132,-41.75"/>
<text text-anchor="start" x="1989" y="-28.25" font-family="Helvetica,sans-Serif" font-size="10.00">sourcecode/dbe/apps</text>
<text text-anchor="start" x="1989" y="-17" font-family="Helvetica,sans-Serif" font-size="10.00">/SchemaEditor/SchemaMethod</text>
<text text-anchor="middle" x="2056.5" y="-5.75" font-family="Helvetica,sans-Serif" font-size="10.00">Editor.cpp</text>
</a>
</g>
</g>
<!-- Node3&#45;&gt;Node14 -->
<g id="edge14_Node000003_Node000014" class="edge">
<title>Node3&#45;&gt;Node14</title>
<g id="a_edge14_Node000003_Node000014"><a xlink:title=" ">
<path fill="none" stroke="#63b8ff" d="M1254.81,-91.3C1404.02,-89.05 1713.12,-79.74 1971.5,-41.75 1974.5,-41.31 1977.55,-40.82 1980.62,-40.28"/>
<polygon fill="#63b8ff" stroke="#63b8ff" points="1254.94,-87.8 1244.99,-91.44 1255.04,-94.8 1254.94,-87.8"/>
</a>
</g>
</g>
<!-- Node15 -->
<g id="Node000015" class="node">
<title>Node15</title>
<g id="a_Node000015"><a xlink:href="SchemaMethodImplementationEditor_8cpp.html" target="_top" xlink:title=" ">
<polygon fill="white" stroke="#666666" points="2301,-41.75 2150,-41.75 2150,0 2301,0 2301,-41.75"/>
<text text-anchor="start" x="2158" y="-28.25" font-family="Helvetica,sans-Serif" font-size="10.00">sourcecode/dbe/apps</text>
<text text-anchor="start" x="2158" y="-17" font-family="Helvetica,sans-Serif" font-size="10.00">/SchemaEditor/SchemaMethod</text>
<text text-anchor="middle" x="2225.5" y="-5.75" font-family="Helvetica,sans-Serif" font-size="10.00">ImplementationEditor.cpp</text>
</a>
</g>
</g>
<!-- Node3&#45;&gt;Node15 -->
<g id="edge15_Node000003_Node000015" class="edge">
<title>Node3&#45;&gt;Node15</title>
<g id="a_edge15_Node000003_Node000015"><a xlink:title=" ">
<path fill="none" stroke="#63b8ff" d="M1254.73,-92.78C1427.06,-93.1 1817.27,-88.07 2141.5,-41.75 2144.17,-41.37 2146.88,-40.94 2149.61,-40.48"/>
<polygon fill="#63b8ff" stroke="#63b8ff" points="1254.98,-89.28 1244.97,-92.76 1254.96,-96.28 1254.98,-89.28"/>
</a>
</g>
</g>
<!-- Node16 -->
<g id="Node000016" class="node">
<title>Node16</title>
<g id="a_Node000016"><a xlink:href="SchemaRelationshipEditor_8cpp.html" target="_top" xlink:title=" ">
<polygon fill="white" stroke="#666666" points="2491.5,-41.75 2319.5,-41.75 2319.5,0 2491.5,0 2491.5,-41.75"/>
<text text-anchor="start" x="2327.5" y="-28.25" font-family="Helvetica,sans-Serif" font-size="10.00">sourcecode/dbe/apps</text>
<text text-anchor="start" x="2327.5" y="-17" font-family="Helvetica,sans-Serif" font-size="10.00">/SchemaEditor/SchemaRelationship</text>
<text text-anchor="middle" x="2405.5" y="-5.75" font-family="Helvetica,sans-Serif" font-size="10.00">Editor.cpp</text>
</a>
</g>
</g>
<!-- Node3&#45;&gt;Node16 -->
<g id="edge16_Node000003_Node000016" class="edge">
<title>Node3&#45;&gt;Node16</title>
<g id="a_edge16_Node000003_Node000016"><a xlink:title=" ">
<path fill="none" stroke="#63b8ff" d="M1254.88,-89.96C1487.31,-84.34 2106.77,-67.36 2310.5,-41.75 2313.34,-41.39 2316.23,-41 2319.13,-40.56"/>
<polygon fill="#63b8ff" stroke="#63b8ff" points="1254.87,-86.45 1244.95,-90.19 1255.04,-93.45 1254.87,-86.45"/>
</a>
</g>
</g>
</g>
</svg>
