<?xml version="1.0" encoding="UTF-8" standalone="no"?>
<!DOCTYPE svg PUBLIC "-//W3C//DTD SVG 1.1//EN"
 "http://www.w3.org/Graphics/SVG/1.1/DTD/svg11.dtd">
<!-- Generated by graphviz version 9.0.0 (20230911.1827)
 -->
<!-- Title: sourcecode/dbe/include/dbe/SchemaMethodImplementationEditor.hpp Pages: 1 -->
<svg width="539pt" height="128pt"
 viewBox="0.00 0.00 538.62 127.50" xmlns="http://www.w3.org/2000/svg" xmlns:xlink="http://www.w3.org/1999/xlink">
<g id="graph0" class="graph" transform="scale(1 1) rotate(0) translate(4 123.5)">
<title>sourcecode/dbe/include/dbe/SchemaMethodImplementationEditor.hpp</title>
<!-- Node1 -->
<g id="Node000001" class="node">
<title>Node1</title>
<g id="a_Node000001"><a xlink:title=" ">
<polygon fill="#999999" stroke="#666666" points="372.5,-119.5 199.75,-119.5 199.75,-77.75 372.5,-77.75 372.5,-119.5"/>
<text text-anchor="start" x="207.75" y="-106" font-family="Helvetica,sans-Serif" font-size="10.00">sourcecode/dbe/include</text>
<text text-anchor="start" x="207.75" y="-94.75" font-family="Helvetica,sans-Serif" font-size="10.00">/dbe/SchemaMethodImplementation</text>
<text text-anchor="middle" x="286.12" y="-83.5" font-family="Helvetica,sans-Serif" font-size="10.00">Editor.hpp</text>
</a>
</g>
</g>
<!-- Node2 -->
<g id="Node000002" class="node">
<title>Node2</title>
<g id="a_Node000002"><a xlink:href="SchemaMainWindow_8cpp.html" target="_top" xlink:title=" ">
<polygon fill="white" stroke="#666666" points="192.25,-36.12 0,-36.12 0,-5.62 192.25,-5.62 192.25,-36.12"/>
<text text-anchor="start" x="8" y="-22.62" font-family="Helvetica,sans-Serif" font-size="10.00">sourcecode/dbe/apps</text>
<text text-anchor="middle" x="96.12" y="-11.38" font-family="Helvetica,sans-Serif" font-size="10.00">/SchemaEditor/SchemaMainWindow.cpp</text>
</a>
</g>
</g>
<!-- Node1&#45;&gt;Node2 -->
<g id="edge1_Node000001_Node000002" class="edge">
<title>Node1&#45;&gt;Node2</title>
<g id="a_edge1_Node000001_Node000002"><a xlink:title=" ">
<path fill="none" stroke="#63b8ff" d="M224.75,-73.16C194.51,-61.1 159.04,-46.96 133.02,-36.58"/>
<polygon fill="#63b8ff" stroke="#63b8ff" points="223.22,-76.31 233.8,-76.76 225.81,-69.81 223.22,-76.31"/>
</a>
</g>
</g>
<!-- Node3 -->
<g id="Node000003" class="node">
<title>Node3</title>
<g id="a_Node000003"><a xlink:href="SchemaMethodEditor_8cpp.html" target="_top" xlink:title=" ">
<polygon fill="white" stroke="#666666" points="361.62,-41.75 210.62,-41.75 210.62,0 361.62,0 361.62,-41.75"/>
<text text-anchor="start" x="218.62" y="-28.25" font-family="Helvetica,sans-Serif" font-size="10.00">sourcecode/dbe/apps</text>
<text text-anchor="start" x="218.62" y="-17" font-family="Helvetica,sans-Serif" font-size="10.00">/SchemaEditor/SchemaMethod</text>
<text text-anchor="middle" x="286.12" y="-5.75" font-family="Helvetica,sans-Serif" font-size="10.00">Editor.cpp</text>
</a>
</g>
</g>
<!-- Node1&#45;&gt;Node3 -->
<g id="edge2_Node000001_Node000003" class="edge">
<title>Node1&#45;&gt;Node3</title>
<g id="a_edge2_Node000001_Node000003"><a xlink:title=" ">
<path fill="none" stroke="#63b8ff" d="M286.12,-66C286.12,-57.96 286.12,-49.54 286.12,-42.23"/>
<polygon fill="#63b8ff" stroke="#63b8ff" points="282.63,-65.81 286.13,-75.81 289.63,-65.81 282.63,-65.81"/>
</a>
</g>
</g>
<!-- Node4 -->
<g id="Node000004" class="node">
<title>Node4</title>
<g id="a_Node000004"><a xlink:href="SchemaMethodImplementationEditor_8cpp.html" target="_top" xlink:title=" ">
<polygon fill="white" stroke="#666666" points="530.62,-41.75 379.62,-41.75 379.62,0 530.62,0 530.62,-41.75"/>
<text text-anchor="start" x="387.62" y="-28.25" font-family="Helvetica,sans-Serif" font-size="10.00">sourcecode/dbe/apps</text>
<text text-anchor="start" x="387.62" y="-17" font-family="Helvetica,sans-Serif" font-size="10.00">/SchemaEditor/SchemaMethod</text>
<text text-anchor="middle" x="455.12" y="-5.75" font-family="Helvetica,sans-Serif" font-size="10.00">ImplementationEditor.cpp</text>
</a>
</g>
</g>
<!-- Node1&#45;&gt;Node4 -->
<g id="edge3_Node000001_Node000004" class="edge">
<title>Node1&#45;&gt;Node4</title>
<g id="a_edge3_Node000001_Node000004"><a xlink:title=" ">
<path fill="none" stroke="#63b8ff" d="M341.64,-72.74C363.7,-62.85 388.76,-51.62 409.71,-42.23"/>
<polygon fill="#63b8ff" stroke="#63b8ff" points="340.49,-69.42 332.8,-76.71 343.35,-75.81 340.49,-69.42"/>
</a>
</g>
</g>
</g>
</svg>
