<?xml version="1.0" encoding="UTF-8" standalone="no"?>
<!DOCTYPE svg PUBLIC "-//W3C//DTD SVG 1.1//EN"
 "http://www.w3.org/Graphics/SVG/1.1/DTD/svg11.dtd">
<!-- Generated by graphviz version 9.0.0 (20230911.1827)
 -->
<!-- Title: sourcecode/dbe/include/dbe/SchemaCustomFileModel.hpp Pages: 1 -->
<svg width="391pt" height="183pt"
 viewBox="0.00 0.00 390.75 182.75" xmlns="http://www.w3.org/2000/svg" xmlns:xlink="http://www.w3.org/1999/xlink">
<g id="graph0" class="graph" transform="scale(1 1) rotate(0) translate(4 178.75)">
<title>sourcecode/dbe/include/dbe/SchemaCustomFileModel.hpp</title>
<!-- Node1 -->
<g id="Node000001" class="node">
<title>Node1</title>
<g id="a_Node000001"><a xlink:title=" ">
<polygon fill="#999999" stroke="#666666" points="244,-174.75 76.5,-174.75 76.5,-144.25 244,-144.25 244,-174.75"/>
<text text-anchor="start" x="84.5" y="-161.25" font-family="Helvetica,sans-Serif" font-size="10.00">sourcecode/dbe/include</text>
<text text-anchor="middle" x="160.25" y="-150" font-family="Helvetica,sans-Serif" font-size="10.00">/dbe/SchemaCustomFileModel.hpp</text>
</a>
</g>
</g>
<!-- Node2 -->
<g id="Node000002" class="node">
<title>Node2</title>
<g id="a_Node000002"><a xlink:href="SchemaCustomFileModel_8cpp.html" target="_top" xlink:title=" ">
<polygon fill="white" stroke="#666666" points="152.5,-108.25 0,-108.25 0,-66.5 152.5,-66.5 152.5,-108.25"/>
<text text-anchor="start" x="8" y="-94.75" font-family="Helvetica,sans-Serif" font-size="10.00">sourcecode/dbe/apps</text>
<text text-anchor="start" x="8" y="-83.5" font-family="Helvetica,sans-Serif" font-size="10.00">/SchemaEditor/SchemaCustom</text>
<text text-anchor="middle" x="76.25" y="-72.25" font-family="Helvetica,sans-Serif" font-size="10.00">FileModel.cpp</text>
</a>
</g>
</g>
<!-- Node1&#45;&gt;Node2 -->
<g id="edge1_Node000001_Node000002" class="edge">
<title>Node1&#45;&gt;Node2</title>
<g id="a_edge1_Node000001_Node000002"><a xlink:title=" ">
<path fill="none" stroke="#63b8ff" d="M134.3,-136.83C123.57,-127.88 111.2,-117.55 100.64,-108.74"/>
<polygon fill="#63b8ff" stroke="#63b8ff" points="131.76,-139.28 141.68,-143 136.25,-133.9 131.76,-139.28"/>
</a>
</g>
</g>
<!-- Node3 -->
<g id="Node000003" class="node">
<title>Node3</title>
<g id="a_Node000003"><a xlink:href="SchemaMainWindow_8hpp.html" target="_top" xlink:title=" ">
<polygon fill="white" stroke="#666666" points="317.88,-102.62 170.62,-102.62 170.62,-72.12 317.88,-72.12 317.88,-102.62"/>
<text text-anchor="start" x="178.62" y="-89.12" font-family="Helvetica,sans-Serif" font-size="10.00">sourcecode/dbe/include</text>
<text text-anchor="middle" x="244.25" y="-77.88" font-family="Helvetica,sans-Serif" font-size="10.00">/dbe/SchemaMainWindow.hpp</text>
</a>
</g>
</g>
<!-- Node1&#45;&gt;Node3 -->
<g id="edge2_Node000001_Node000003" class="edge">
<title>Node1&#45;&gt;Node3</title>
<g id="a_edge2_Node000001_Node000003"><a xlink:title=" ">
<path fill="none" stroke="#63b8ff" d="M186.31,-136.74C199.51,-125.73 215.16,-112.66 226.87,-102.89"/>
<polygon fill="#63b8ff" stroke="#63b8ff" points="184.25,-133.9 178.82,-143 188.74,-139.28 184.25,-133.9"/>
</a>
</g>
</g>
<!-- Node4 -->
<g id="Node000004" class="node">
<title>Node4</title>
<g id="a_Node000004"><a xlink:href="SchemaMainWindow_8cpp.html" target="_top" xlink:title=" ">
<polygon fill="white" stroke="#666666" points="255.38,-30.5 63.12,-30.5 63.12,0 255.38,0 255.38,-30.5"/>
<text text-anchor="start" x="71.12" y="-17" font-family="Helvetica,sans-Serif" font-size="10.00">sourcecode/dbe/apps</text>
<text text-anchor="middle" x="159.25" y="-5.75" font-family="Helvetica,sans-Serif" font-size="10.00">/SchemaEditor/SchemaMainWindow.cpp</text>
</a>
</g>
</g>
<!-- Node3&#45;&gt;Node4 -->
<g id="edge3_Node000003_Node000004" class="edge">
<title>Node3&#45;&gt;Node4</title>
<g id="a_edge3_Node000003_Node000004"><a xlink:title=" ">
<path fill="none" stroke="#63b8ff" d="M217.87,-64.62C204.53,-53.6 188.69,-40.54 176.84,-30.76"/>
<polygon fill="#63b8ff" stroke="#63b8ff" points="215.53,-67.22 225.47,-70.88 219.98,-61.82 215.53,-67.22"/>
</a>
</g>
</g>
<!-- Node5 -->
<g id="Node000005" class="node">
<title>Node5</title>
<g id="a_Node000005"><a xlink:href="SchemaMain_8cpp.html" target="_top" xlink:title=" ">
<polygon fill="white" stroke="#666666" points="382.75,-30.5 273.75,-30.5 273.75,0 382.75,0 382.75,-30.5"/>
<text text-anchor="start" x="281.75" y="-17" font-family="Helvetica,sans-Serif" font-size="10.00">sourcecode/dbe/apps</text>
<text text-anchor="middle" x="328.25" y="-5.75" font-family="Helvetica,sans-Serif" font-size="10.00">/SchemaMain.cpp</text>
</a>
</g>
</g>
<!-- Node3&#45;&gt;Node5 -->
<g id="edge4_Node000003_Node000005" class="edge">
<title>Node3&#45;&gt;Node5</title>
<g id="a_edge4_Node000003_Node000005"><a xlink:title=" ">
<path fill="none" stroke="#63b8ff" d="M270.31,-64.62C283.51,-53.6 299.16,-40.54 310.87,-30.76"/>
<polygon fill="#63b8ff" stroke="#63b8ff" points="268.25,-61.78 262.82,-70.88 272.74,-67.15 268.25,-61.78"/>
</a>
</g>
</g>
</g>
</svg>
