<?xml version="1.0" encoding="UTF-8" standalone="no"?>
<!DOCTYPE svg PUBLIC "-//W3C//DTD SVG 1.1//EN"
 "http://www.w3.org/Graphics/SVG/1.1/DTD/svg11.dtd">
<!-- Generated by graphviz version 9.0.0 (20230911.1827)
 -->
<!-- Title: sourcecode/dbe/include/dbe/SchemaTab.hpp Pages: 1 -->
<svg width="372pt" height="105pt"
 viewBox="0.00 0.00 371.75 105.00" xmlns="http://www.w3.org/2000/svg" xmlns:xlink="http://www.w3.org/1999/xlink">
<g id="graph0" class="graph" transform="scale(1 1) rotate(0) translate(4 101)">
<title>sourcecode/dbe/include/dbe/SchemaTab.hpp</title>
<!-- Node1 -->
<g id="Node000001" class="node">
<title>Node1</title>
<g id="a_Node000001"><a xlink:title=" ">
<polygon fill="#999999" stroke="#666666" points="250.5,-97 131.75,-97 131.75,-66.5 250.5,-66.5 250.5,-97"/>
<text text-anchor="start" x="139.75" y="-83.5" font-family="Helvetica,sans-Serif" font-size="10.00">sourcecode/dbe/include</text>
<text text-anchor="middle" x="191.12" y="-72.25" font-family="Helvetica,sans-Serif" font-size="10.00">/dbe/SchemaTab.hpp</text>
</a>
</g>
</g>
<!-- Node2 -->
<g id="Node000002" class="node">
<title>Node2</title>
<g id="a_Node000002"><a xlink:href="SchemaMainWindow_8cpp.html" target="_top" xlink:title=" ">
<polygon fill="white" stroke="#666666" points="192.25,-30.5 0,-30.5 0,0 192.25,0 192.25,-30.5"/>
<text text-anchor="start" x="8" y="-17" font-family="Helvetica,sans-Serif" font-size="10.00">sourcecode/dbe/apps</text>
<text text-anchor="middle" x="96.12" y="-5.75" font-family="Helvetica,sans-Serif" font-size="10.00">/SchemaEditor/SchemaMainWindow.cpp</text>
</a>
</g>
</g>
<!-- Node1&#45;&gt;Node2 -->
<g id="edge1_Node000001_Node000002" class="edge">
<title>Node1&#45;&gt;Node2</title>
<g id="a_edge1_Node000001_Node000002"><a xlink:title=" ">
<path fill="none" stroke="#63b8ff" d="M160.33,-59.84C146.37,-50.37 130.21,-39.39 117.6,-30.83"/>
<polygon fill="#63b8ff" stroke="#63b8ff" points="158.08,-62.54 168.32,-65.26 162.01,-56.75 158.08,-62.54"/>
</a>
</g>
</g>
<!-- Node3 -->
<g id="Node000003" class="node">
<title>Node3</title>
<g id="a_Node000003"><a xlink:href="SchemaTab_8cpp.html" target="_top" xlink:title=" ">
<polygon fill="white" stroke="#666666" points="363.75,-30.5 210.5,-30.5 210.5,0 363.75,0 363.75,-30.5"/>
<text text-anchor="start" x="218.5" y="-17" font-family="Helvetica,sans-Serif" font-size="10.00">sourcecode/dbe/apps</text>
<text text-anchor="middle" x="287.12" y="-5.75" font-family="Helvetica,sans-Serif" font-size="10.00">/SchemaEditor/SchemaTab.cpp</text>
</a>
</g>
</g>
<!-- Node1&#45;&gt;Node3 -->
<g id="edge2_Node000001_Node000003" class="edge">
<title>Node1&#45;&gt;Node3</title>
<g id="a_edge2_Node000001_Node000003"><a xlink:title=" ">
<path fill="none" stroke="#63b8ff" d="M222.25,-59.84C236.35,-50.37 252.68,-39.39 265.43,-30.83"/>
<polygon fill="#63b8ff" stroke="#63b8ff" points="220.51,-56.79 214.17,-65.27 224.42,-62.6 220.51,-56.79"/>
</a>
</g>
</g>
</g>
</svg>
