<?xml version="1.0" encoding="UTF-8" standalone="no"?>
<!DOCTYPE svg PUBLIC "-//W3C//DTD SVG 1.1//EN"
 "http://www.w3.org/Graphics/SVG/1.1/DTD/svg11.dtd">
<!-- Generated by graphviz version 9.0.0 (20230911.1827)
 -->
<!-- Title: sourcecode/dbe/include/dbe/SchemaCustomTableModel.hpp Pages: 1 -->
<svg width="288pt" height="94pt"
 viewBox="0.00 0.00 288.12 93.75" xmlns="http://www.w3.org/2000/svg" xmlns:xlink="http://www.w3.org/1999/xlink">
<g id="graph0" class="graph" transform="scale(1 1) rotate(0) translate(4 89.75)">
<title>sourcecode/dbe/include/dbe/SchemaCustomTableModel.hpp</title>
<!-- Node1 -->
<g id="Node000001" class="node">
<title>Node1</title>
<g id="a_Node000001"><a xlink:title=" ">
<polygon fill="#999999" stroke="#666666" points="249.12,-85.75 73.38,-85.75 73.38,-55.25 249.12,-55.25 249.12,-85.75"/>
<text text-anchor="start" x="81.38" y="-72.25" font-family="Helvetica,sans-Serif" font-size="10.00">sourcecode/dbe/include</text>
<text text-anchor="middle" x="161.25" y="-61" font-family="Helvetica,sans-Serif" font-size="10.00">/dbe/SchemaCustomTableModel.hpp</text>
</a>
</g>
</g>
<!-- Node2 -->
<g id="Node000002" class="node">
<title>Node2</title>
<g id="a_Node000002"><a xlink:title=" ">
<polygon fill="#e0e0e0" stroke="#999999" points="110.5,-19.25 0,-19.25 0,0 110.5,0 110.5,-19.25"/>
<text text-anchor="middle" x="55.25" y="-5.75" font-family="Helvetica,sans-Serif" font-size="10.00">QAbstractTableModel</text>
</a>
</g>
</g>
<!-- Node1&#45;&gt;Node2 -->
<g id="edge1_Node000001_Node000002" class="edge">
<title>Node1&#45;&gt;Node2</title>
<g id="a_edge1_Node000001_Node000002"><a xlink:title=" ">
<path fill="none" stroke="#63b8ff" d="M134.78,-54.8C118.48,-45.74 97.67,-34.19 81.43,-25.16"/>
<polygon fill="#63b8ff" stroke="#63b8ff" points="83.27,-22.18 72.83,-20.39 79.87,-28.3 83.27,-22.18"/>
</a>
</g>
</g>
<!-- Node3 -->
<g id="Node000003" class="node">
<title>Node3</title>
<g id="a_Node000003"><a xlink:title=" ">
<polygon fill="#e0e0e0" stroke="#999999" points="194,-19.25 128.5,-19.25 128.5,0 194,0 194,-19.25"/>
<text text-anchor="middle" x="161.25" y="-5.75" font-family="Helvetica,sans-Serif" font-size="10.00">QStringList</text>
</a>
</g>
</g>
<!-- Node1&#45;&gt;Node3 -->
<g id="edge2_Node000001_Node000003" class="edge">
<title>Node1&#45;&gt;Node3</title>
<g id="a_edge2_Node000001_Node000003"><a xlink:title=" ">
<path fill="none" stroke="#63b8ff" d="M161.25,-54.95C161.25,-47.71 161.25,-38.84 161.25,-30.94"/>
<polygon fill="#63b8ff" stroke="#63b8ff" points="164.75,-31.21 161.25,-21.21 157.75,-31.21 164.75,-31.21"/>
</a>
</g>
</g>
<!-- Node4 -->
<g id="Node000004" class="node">
<title>Node4</title>
<g id="a_Node000004"><a xlink:title=" ">
<polygon fill="#e0e0e0" stroke="#999999" points="280.12,-19.25 212.38,-19.25 212.38,0 280.12,0 280.12,-19.25"/>
<text text-anchor="middle" x="246.25" y="-5.75" font-family="Helvetica,sans-Serif" font-size="10.00">QMimeData</text>
</a>
</g>
</g>
<!-- Node1&#45;&gt;Node4 -->
<g id="edge3_Node000001_Node000004" class="edge">
<title>Node1&#45;&gt;Node4</title>
<g id="a_edge3_Node000001_Node000004"><a xlink:title=" ">
<path fill="none" stroke="#63b8ff" d="M182.26,-54.95C194.95,-46.15 211.12,-34.96 224.02,-26.02"/>
<polygon fill="#63b8ff" stroke="#63b8ff" points="225.67,-29.13 231.9,-20.56 221.69,-23.38 225.67,-29.13"/>
</a>
</g>
</g>
</g>
</svg>
