<?xml version="1.0" encoding="UTF-8" standalone="no"?>
<!DOCTYPE svg PUBLIC "-//W3C//DTD SVG 1.1//EN"
 "http://www.w3.org/Graphics/SVG/1.1/DTD/svg11.dtd">
<!-- Generated by graphviz version 9.0.0 (20230911.1827)
 -->
<!-- Title: sourcecode/dbe/include/dbe/SchemaCustomModelInterface.hpp Pages: 1 -->
<svg width="211pt" height="94pt"
 viewBox="0.00 0.00 211.25 93.75" xmlns="http://www.w3.org/2000/svg" xmlns:xlink="http://www.w3.org/1999/xlink">
<g id="graph0" class="graph" transform="scale(1 1) rotate(0) translate(4 89.75)">
<title>sourcecode/dbe/include/dbe/SchemaCustomModelInterface.hpp</title>
<!-- Node1 -->
<g id="Node000001" class="node">
<title>Node1</title>
<g id="a_Node000001"><a xlink:title=" ">
<polygon fill="#999999" stroke="#666666" points="203.25,-85.75 13.25,-85.75 13.25,-55.25 203.25,-55.25 203.25,-85.75"/>
<text text-anchor="start" x="21.25" y="-72.25" font-family="Helvetica,sans-Serif" font-size="10.00">sourcecode/dbe/include</text>
<text text-anchor="middle" x="108.25" y="-61" font-family="Helvetica,sans-Serif" font-size="10.00">/dbe/SchemaCustomModelInterface.hpp</text>
</a>
</g>
</g>
<!-- Node2 -->
<g id="Node000002" class="node">
<title>Node2</title>
<g id="a_Node000002"><a xlink:title=" ">
<polygon fill="#e0e0e0" stroke="#999999" points="110.5,-19.25 0,-19.25 0,0 110.5,0 110.5,-19.25"/>
<text text-anchor="middle" x="55.25" y="-5.75" font-family="Helvetica,sans-Serif" font-size="10.00">QAbstractTableModel</text>
</a>
</g>
</g>
<!-- Node1&#45;&gt;Node2 -->
<g id="edge1_Node000001_Node000002" class="edge">
<title>Node1&#45;&gt;Node2</title>
<g id="a_edge1_Node000001_Node000002"><a xlink:title=" ">
<path fill="none" stroke="#63b8ff" d="M95.15,-54.95C87.86,-46.84 78.72,-36.7 71.04,-28.16"/>
<polygon fill="#63b8ff" stroke="#63b8ff" points="73.72,-25.92 64.43,-20.83 68.52,-30.6 73.72,-25.92"/>
</a>
</g>
</g>
<!-- Node3 -->
<g id="Node000003" class="node">
<title>Node3</title>
<g id="a_Node000003"><a xlink:title=" ">
<polygon fill="#e0e0e0" stroke="#999999" points="194,-19.25 128.5,-19.25 128.5,0 194,0 194,-19.25"/>
<text text-anchor="middle" x="161.25" y="-5.75" font-family="Helvetica,sans-Serif" font-size="10.00">QStringList</text>
</a>
</g>
</g>
<!-- Node1&#45;&gt;Node3 -->
<g id="edge2_Node000001_Node000003" class="edge">
<title>Node1&#45;&gt;Node3</title>
<g id="a_edge2_Node000001_Node000003"><a xlink:title=" ">
<path fill="none" stroke="#63b8ff" d="M121.35,-54.95C128.64,-46.84 137.78,-36.7 145.46,-28.16"/>
<polygon fill="#63b8ff" stroke="#63b8ff" points="147.98,-30.6 152.07,-20.83 142.78,-25.92 147.98,-30.6"/>
</a>
</g>
</g>
</g>
</svg>
