<?xml version="1.0" encoding="UTF-8" standalone="no"?>
<!DOCTYPE svg PUBLIC "-//W3C//DTD SVG 1.1//EN"
 "http://www.w3.org/Graphics/SVG/1.1/DTD/svg11.dtd">
<!-- Generated by graphviz version 9.0.0 (20230911.1827)
 -->
<!-- Title: sourcecode/dbe/include/dbe/SchemaGraphicArrow.hpp Pages: 1 -->
<svg width="507pt" height="116pt"
 viewBox="0.00 0.00 507.12 116.25" xmlns="http://www.w3.org/2000/svg" xmlns:xlink="http://www.w3.org/1999/xlink">
<g id="graph0" class="graph" transform="scale(1 1) rotate(0) translate(4 112.25)">
<title>sourcecode/dbe/include/dbe/SchemaGraphicArrow.hpp</title>
<!-- Node1 -->
<g id="Node000001" class="node">
<title>Node1</title>
<g id="a_Node000001"><a xlink:title=" ">
<polygon fill="#999999" stroke="#666666" points="322.75,-108.25 171.75,-108.25 171.75,-77.75 322.75,-77.75 322.75,-108.25"/>
<text text-anchor="start" x="179.75" y="-94.75" font-family="Helvetica,sans-Serif" font-size="10.00">sourcecode/dbe/include</text>
<text text-anchor="middle" x="247.25" y="-83.5" font-family="Helvetica,sans-Serif" font-size="10.00">/dbe/SchemaGraphicArrow.hpp</text>
</a>
</g>
</g>
<!-- Node2 -->
<g id="Node000002" class="node">
<title>Node2</title>
<g id="a_Node000002"><a xlink:href="SchemaGraphicArrow_8cpp.html" target="_top" xlink:title=" ">
<polygon fill="white" stroke="#666666" points="152.5,-41.75 0,-41.75 0,0 152.5,0 152.5,-41.75"/>
<text text-anchor="start" x="8" y="-28.25" font-family="Helvetica,sans-Serif" font-size="10.00">sourcecode/dbe/apps</text>
<text text-anchor="start" x="8" y="-17" font-family="Helvetica,sans-Serif" font-size="10.00">/SchemaEditor/SchemaGraphic</text>
<text text-anchor="middle" x="76.25" y="-5.75" font-family="Helvetica,sans-Serif" font-size="10.00">Arrow.cpp</text>
</a>
</g>
</g>
<!-- Node1&#45;&gt;Node2 -->
<g id="edge1_Node000001_Node000002" class="edge">
<title>Node1&#45;&gt;Node2</title>
<g id="a_edge1_Node000001_Node000002"><a xlink:title=" ">
<path fill="none" stroke="#63b8ff" d="M200.76,-72.93C177.49,-63.39 149.32,-51.84 125.67,-42.14"/>
<polygon fill="#63b8ff" stroke="#63b8ff" points="199.42,-76.17 210,-76.73 202.08,-69.69 199.42,-76.17"/>
</a>
</g>
</g>
<!-- Node3 -->
<g id="Node000003" class="node">
<title>Node3</title>
<g id="a_Node000003"><a xlink:href="SchemaGraphicObject_8cpp.html" target="_top" xlink:title=" ">
<polygon fill="white" stroke="#666666" points="323.5,-41.75 171,-41.75 171,0 323.5,0 323.5,-41.75"/>
<text text-anchor="start" x="179" y="-28.25" font-family="Helvetica,sans-Serif" font-size="10.00">sourcecode/dbe/apps</text>
<text text-anchor="start" x="179" y="-17" font-family="Helvetica,sans-Serif" font-size="10.00">/SchemaEditor/SchemaGraphic</text>
<text text-anchor="middle" x="247.25" y="-5.75" font-family="Helvetica,sans-Serif" font-size="10.00">Object.cpp</text>
</a>
</g>
</g>
<!-- Node1&#45;&gt;Node3 -->
<g id="edge2_Node000001_Node000003" class="edge">
<title>Node1&#45;&gt;Node3</title>
<g id="a_edge2_Node000001_Node000003"><a xlink:title=" ">
<path fill="none" stroke="#63b8ff" d="M247.25,-66.22C247.25,-58.31 247.25,-49.73 247.25,-42.24"/>
<polygon fill="#63b8ff" stroke="#63b8ff" points="243.75,-65.96 247.25,-75.96 250.75,-65.96 243.75,-65.96"/>
</a>
</g>
</g>
<!-- Node4 -->
<g id="Node000004" class="node">
<title>Node4</title>
<g id="a_Node000004"><a xlink:href="SchemaGraphicsScene_8cpp.html" target="_top" xlink:title=" ">
<polygon fill="white" stroke="#666666" points="499.12,-41.75 341.38,-41.75 341.38,0 499.12,0 499.12,-41.75"/>
<text text-anchor="start" x="349.38" y="-28.25" font-family="Helvetica,sans-Serif" font-size="10.00">sourcecode/dbe/apps</text>
<text text-anchor="start" x="349.38" y="-17" font-family="Helvetica,sans-Serif" font-size="10.00">/SchemaEditor/SchemaGraphics</text>
<text text-anchor="middle" x="420.25" y="-5.75" font-family="Helvetica,sans-Serif" font-size="10.00">Scene.cpp</text>
</a>
</g>
</g>
<!-- Node1&#45;&gt;Node4 -->
<g id="edge3_Node000001_Node000004" class="edge">
<title>Node1&#45;&gt;Node4</title>
<g id="a_edge3_Node000001_Node000004"><a xlink:title=" ">
<path fill="none" stroke="#63b8ff" d="M293.97,-73.06C317.57,-63.5 346.21,-51.89 370.25,-42.14"/>
<polygon fill="#63b8ff" stroke="#63b8ff" points="292.87,-69.73 284.92,-76.73 295.5,-76.22 292.87,-69.73"/>
</a>
</g>
</g>
</g>
</svg>
