<?xml version="1.0" encoding="UTF-8" standalone="no"?>
<!DOCTYPE svg PUBLIC "-//W3C//DTD SVG 1.1//EN"
 "http://www.w3.org/Graphics/SVG/1.1/DTD/svg11.dtd">
<!-- Generated by graphviz version 9.0.0 (20230911.1827)
 -->
<!-- Title: sourcecode/dbe/include/dbe/SchemaMainWindow.hpp Pages: 1 -->
<svg width="818pt" height="149pt"
 viewBox="0.00 0.00 817.62 149.00" xmlns="http://www.w3.org/2000/svg" xmlns:xlink="http://www.w3.org/1999/xlink">
<g id="graph0" class="graph" transform="scale(1 1) rotate(0) translate(4 145)">
<title>sourcecode/dbe/include/dbe/SchemaMainWindow.hpp</title>
<!-- Node1 -->
<g id="Node000001" class="node">
<title>Node1</title>
<g id="a_Node000001"><a xlink:title=" ">
<polygon fill="#999999" stroke="#666666" points="353.88,-141 206.62,-141 206.62,-110.5 353.88,-110.5 353.88,-141"/>
<text text-anchor="start" x="214.62" y="-127.5" font-family="Helvetica,sans-Serif" font-size="10.00">sourcecode/dbe/include</text>
<text text-anchor="middle" x="280.25" y="-116.25" font-family="Helvetica,sans-Serif" font-size="10.00">/dbe/SchemaMainWindow.hpp</text>
</a>
</g>
</g>
<!-- Node2 -->
<g id="Node000002" class="node">
<title>Node2</title>
<g id="a_Node000002"><a xlink:title=" ">
<polygon fill="#e0e0e0" stroke="#999999" points="50.5,-74.5 0,-74.5 0,-55.25 50.5,-55.25 50.5,-74.5"/>
<text text-anchor="middle" x="25.25" y="-61" font-family="Helvetica,sans-Serif" font-size="10.00">memory</text>
</a>
</g>
</g>
<!-- Node1&#45;&gt;Node2 -->
<g id="edge1_Node000001_Node000002" class="edge">
<title>Node1&#45;&gt;Node2</title>
<g id="a_edge1_Node000001_Node000002"><a xlink:title=" ">
<path fill="none" stroke="#63b8ff" d="M213.42,-110.01C172.19,-100.81 117.94,-88.52 61.74,-75.06"/>
<polygon fill="#63b8ff" stroke="#63b8ff" points="62.87,-71.73 52.32,-72.8 61.23,-78.54 62.87,-71.73"/>
</a>
</g>
</g>
<!-- Node3 -->
<g id="Node000003" class="node">
<title>Node3</title>
<g id="a_Node000003"><a xlink:title=" ">
<polygon fill="#e0e0e0" stroke="#999999" points="147.75,-74.5 68.75,-74.5 68.75,-55.25 147.75,-55.25 147.75,-74.5"/>
<text text-anchor="middle" x="108.25" y="-61" font-family="Helvetica,sans-Serif" font-size="10.00">QMainWindow</text>
</a>
</g>
</g>
<!-- Node1&#45;&gt;Node3 -->
<g id="edge2_Node000001_Node000003" class="edge">
<title>Node1&#45;&gt;Node3</title>
<g id="a_edge2_Node000001_Node000003"><a xlink:title=" ">
<path fill="none" stroke="#63b8ff" d="M237.29,-110.05C209.04,-100.38 172.45,-87.85 145.45,-78.61"/>
<polygon fill="#63b8ff" stroke="#63b8ff" points="146.91,-75.41 136.31,-75.48 144.64,-82.03 146.91,-75.41"/>
</a>
</g>
</g>
<!-- Node4 -->
<g id="Node000004" class="node">
<title>Node4</title>
<g id="a_Node000004"><a xlink:title=" ">
<polygon fill="#e0e0e0" stroke="#999999" points="238.75,-74.5 165.75,-74.5 165.75,-55.25 238.75,-55.25 238.75,-74.5"/>
<text text-anchor="middle" x="202.25" y="-61" font-family="Helvetica,sans-Serif" font-size="10.00">QModelIndex</text>
</a>
</g>
</g>
<!-- Node1&#45;&gt;Node4 -->
<g id="edge3_Node000001_Node000004" class="edge">
<title>Node1&#45;&gt;Node4</title>
<g id="a_edge3_Node000001_Node000004"><a xlink:title=" ">
<path fill="none" stroke="#63b8ff" d="M260.97,-110.2C249.55,-101.58 235.07,-90.65 223.35,-81.8"/>
<polygon fill="#63b8ff" stroke="#63b8ff" points="225.57,-79.09 215.48,-75.86 221.36,-84.68 225.57,-79.09"/>
</a>
</g>
</g>
<!-- Node5 -->
<g id="Node000005" class="node">
<title>Node5</title>
<g id="a_Node000005"><a xlink:title=" ">
<polygon fill="#e0e0e0" stroke="#999999" points="304,-74.5 256.5,-74.5 256.5,-55.25 304,-55.25 304,-74.5"/>
<text text-anchor="middle" x="280.25" y="-61" font-family="Helvetica,sans-Serif" font-size="10.00">QMenu</text>
</a>
</g>
</g>
<!-- Node1&#45;&gt;Node5 -->
<g id="edge4_Node000001_Node000005" class="edge">
<title>Node1&#45;&gt;Node5</title>
<g id="a_edge4_Node000001_Node000005"><a xlink:title=" ">
<path fill="none" stroke="#63b8ff" d="M280.25,-110.2C280.25,-102.96 280.25,-94.09 280.25,-86.19"/>
<polygon fill="#63b8ff" stroke="#63b8ff" points="283.75,-86.46 280.25,-76.46 276.75,-86.46 283.75,-86.46"/>
</a>
</g>
</g>
<!-- Node6 -->
<g id="Node000006" class="node">
<title>Node6</title>
<g id="a_Node000006"><a xlink:title=" ">
<polygon fill="#e0e0e0" stroke="#999999" points="436,-74.5 322.5,-74.5 322.5,-55.25 436,-55.25 436,-74.5"/>
<text text-anchor="middle" x="379.25" y="-61" font-family="Helvetica,sans-Serif" font-size="10.00">QSortFilterProxyModel</text>
</a>
</g>
</g>
<!-- Node1&#45;&gt;Node6 -->
<g id="edge5_Node000001_Node000006" class="edge">
<title>Node1&#45;&gt;Node6</title>
<g id="a_edge5_Node000001_Node000006"><a xlink:title=" ">
<path fill="none" stroke="#63b8ff" d="M304.98,-110.05C320.05,-101.08 339.26,-89.66 354.37,-80.67"/>
<polygon fill="#63b8ff" stroke="#63b8ff" points="355.96,-83.8 362.77,-75.68 352.38,-77.78 355.96,-83.8"/>
</a>
</g>
</g>
<!-- Node7 -->
<g id="Node000007" class="node">
<title>Node7</title>
<g id="a_Node000007"><a xlink:href="SchemaCustomFileModel_8hpp.html" target="_top" xlink:title=" ">
<polygon fill="white" stroke="#666666" points="618.5,-74.5 454,-74.5 454,-55.25 618.5,-55.25 618.5,-74.5"/>
<text text-anchor="middle" x="536.25" y="-61" font-family="Helvetica,sans-Serif" font-size="10.00">dbe/SchemaCustomFileModel.hpp</text>
</a>
</g>
</g>
<!-- Node1&#45;&gt;Node7 -->
<g id="edge6_Node000001_Node000007" class="edge">
<title>Node1&#45;&gt;Node7</title>
<g id="a_edge6_Node000001_Node000007"><a xlink:title=" ">
<path fill="none" stroke="#63b8ff" d="M344.19,-110.05C387.91,-99.99 445.07,-86.84 485.64,-77.51"/>
<polygon fill="#63b8ff" stroke="#63b8ff" points="486.18,-80.98 495.14,-75.33 484.61,-74.16 486.18,-80.98"/>
</a>
</g>
</g>
<!-- Node10 -->
<g id="Node000010" class="node">
<title>Node10</title>
<g id="a_Node000010"><a xlink:href="SchemaCustomTableModel_8hpp.html" target="_top" xlink:title=" ">
<polygon fill="white" stroke="#666666" points="809.62,-74.5 636.88,-74.5 636.88,-55.25 809.62,-55.25 809.62,-74.5"/>
<text text-anchor="middle" x="723.25" y="-61" font-family="Helvetica,sans-Serif" font-size="10.00">dbe/SchemaCustomTableModel.hpp</text>
</a>
</g>
</g>
<!-- Node1&#45;&gt;Node10 -->
<g id="edge9_Node000001_Node000010" class="edge">
<title>Node1&#45;&gt;Node10</title>
<g id="a_edge9_Node000001_Node000010"><a xlink:title=" ">
<path fill="none" stroke="#63b8ff" d="M353.9,-114.96C433.91,-104.33 561.29,-87.4 643.58,-76.46"/>
<polygon fill="#63b8ff" stroke="#63b8ff" points="643.94,-79.95 653.39,-75.16 643.01,-73.01 643.94,-79.95"/>
</a>
</g>
</g>
<!-- Node8 -->
<g id="Node000008" class="node">
<title>Node8</title>
<g id="a_Node000008"><a xlink:title=" ">
<polygon fill="#e0e0e0" stroke="#999999" points="697.5,-19.25 587,-19.25 587,0 697.5,0 697.5,-19.25"/>
<text text-anchor="middle" x="642.25" y="-5.75" font-family="Helvetica,sans-Serif" font-size="10.00">QAbstractTableModel</text>
</a>
</g>
</g>
<!-- Node7&#45;&gt;Node8 -->
<g id="edge7_Node000007_Node000008" class="edge">
<title>Node7&#45;&gt;Node8</title>
<g id="a_edge7_Node000007_Node000008"><a xlink:title=" ">
<path fill="none" stroke="#63b8ff" d="M554.23,-54.84C570.6,-46.62 595.04,-34.34 614.01,-24.81"/>
<polygon fill="#63b8ff" stroke="#63b8ff" points="615.46,-28 622.83,-20.38 612.32,-21.74 615.46,-28"/>
</a>
</g>
</g>
<!-- Node9 -->
<g id="Node000009" class="node">
<title>Node9</title>
<g id="a_Node000009"><a xlink:title=" ">
<polygon fill="#e0e0e0" stroke="#999999" points="569,-19.25 503.5,-19.25 503.5,0 569,0 569,-19.25"/>
<text text-anchor="middle" x="536.25" y="-5.75" font-family="Helvetica,sans-Serif" font-size="10.00">QStringList</text>
</a>
</g>
</g>
<!-- Node7&#45;&gt;Node9 -->
<g id="edge8_Node000007_Node000009" class="edge">
<title>Node7&#45;&gt;Node9</title>
<g id="a_edge8_Node000007_Node000009"><a xlink:title=" ">
<path fill="none" stroke="#63b8ff" d="M536.25,-55.08C536.25,-48.57 536.25,-39.42 536.25,-31.12"/>
<polygon fill="#63b8ff" stroke="#63b8ff" points="539.75,-31.12 536.25,-21.12 532.75,-31.12 539.75,-31.12"/>
</a>
</g>
</g>
<!-- Node10&#45;&gt;Node8 -->
<g id="edge10_Node000010_Node000008" class="edge">
<title>Node10&#45;&gt;Node8</title>
<g id="a_edge10_Node000010_Node000008"><a xlink:title=" ">
<path fill="none" stroke="#63b8ff" d="M709.51,-54.84C697.52,-46.96 679.88,-35.36 665.67,-26.02"/>
<polygon fill="#63b8ff" stroke="#63b8ff" points="667.6,-23.1 657.32,-20.53 663.76,-28.95 667.6,-23.1"/>
</a>
</g>
</g>
<!-- Node10&#45;&gt;Node9 -->
<g id="edge11_Node000010_Node000009" class="edge">
<title>Node10&#45;&gt;Node9</title>
<g id="a_edge11_Node000010_Node000009"><a xlink:title=" ">
<path fill="none" stroke="#63b8ff" d="M691.53,-54.84C660.5,-46.01 613.04,-32.49 578.76,-22.73"/>
<polygon fill="#63b8ff" stroke="#63b8ff" points="580.16,-19.49 569.58,-20.12 578.24,-26.22 580.16,-19.49"/>
</a>
</g>
</g>
<!-- Node11 -->
<g id="Node000011" class="node">
<title>Node11</title>
<g id="a_Node000011"><a xlink:title=" ">
<polygon fill="#e0e0e0" stroke="#999999" points="783.12,-19.25 715.38,-19.25 715.38,0 783.12,0 783.12,-19.25"/>
<text text-anchor="middle" x="749.25" y="-5.75" font-family="Helvetica,sans-Serif" font-size="10.00">QMimeData</text>
</a>
</g>
</g>
<!-- Node10&#45;&gt;Node11 -->
<g id="edge12_Node000010_Node000011" class="edge">
<title>Node10&#45;&gt;Node11</title>
<g id="a_edge12_Node000010_Node000011"><a xlink:title=" ">
<path fill="none" stroke="#63b8ff" d="M727.54,-55.08C730.87,-48.26 735.61,-38.56 739.81,-29.95"/>
<polygon fill="#63b8ff" stroke="#63b8ff" points="742.96,-31.49 744.2,-20.97 736.67,-28.42 742.96,-31.49"/>
</a>
</g>
</g>
</g>
</svg>
