<?xml version="1.0" encoding="UTF-8" standalone="no"?>
<!DOCTYPE svg PUBLIC "-//W3C//DTD SVG 1.1//EN"
 "http://www.w3.org/Graphics/SVG/1.1/DTD/svg11.dtd">
<!-- Generated by graphviz version 9.0.0 (20230911.1827)
 -->
<!-- Title: sourcecode/dbe/include/dbe/SchemaRelationshipEditor.hpp Pages: 1 -->
<svg width="770pt" height="116pt"
 viewBox="0.00 0.00 770.12 116.25" xmlns="http://www.w3.org/2000/svg" xmlns:xlink="http://www.w3.org/1999/xlink">
<g id="graph0" class="graph" transform="scale(1 1) rotate(0) translate(4 112.25)">
<title>sourcecode/dbe/include/dbe/SchemaRelationshipEditor.hpp</title>
<!-- Node1 -->
<g id="Node000001" class="node">
<title>Node1</title>
<g id="a_Node000001"><a xlink:title=" ">
<polygon fill="#999999" stroke="#666666" points="464,-108.25 294.25,-108.25 294.25,-77.75 464,-77.75 464,-108.25"/>
<text text-anchor="start" x="302.25" y="-94.75" font-family="Helvetica,sans-Serif" font-size="10.00">sourcecode/dbe/include</text>
<text text-anchor="middle" x="379.12" y="-83.5" font-family="Helvetica,sans-Serif" font-size="10.00">/dbe/SchemaRelationshipEditor.hpp</text>
</a>
</g>
</g>
<!-- Node2 -->
<g id="Node000002" class="node">
<title>Node2</title>
<g id="a_Node000002"><a xlink:href="SchemaClassEditor_8cpp.html" target="_top" xlink:title=" ">
<polygon fill="white" stroke="#666666" points="186.25,-36.12 0,-36.12 0,-5.62 186.25,-5.62 186.25,-36.12"/>
<text text-anchor="start" x="8" y="-22.62" font-family="Helvetica,sans-Serif" font-size="10.00">sourcecode/dbe/apps</text>
<text text-anchor="middle" x="93.12" y="-11.38" font-family="Helvetica,sans-Serif" font-size="10.00">/SchemaEditor/SchemaClassEditor.cpp</text>
</a>
</g>
</g>
<!-- Node1&#45;&gt;Node2 -->
<g id="edge1_Node000001_Node000002" class="edge">
<title>Node1&#45;&gt;Node2</title>
<g id="a_edge1_Node000001_Node000002"><a xlink:title=" ">
<path fill="none" stroke="#63b8ff" d="M307.99,-74.56C260.29,-62.86 198.17,-47.63 153,-36.56"/>
<polygon fill="#63b8ff" stroke="#63b8ff" points="307.15,-77.96 317.7,-76.94 308.82,-71.16 307.15,-77.96"/>
</a>
</g>
</g>
<!-- Node3 -->
<g id="Node000003" class="node">
<title>Node3</title>
<g id="a_Node000003"><a xlink:href="SchemaGraphicsScene_8cpp.html" target="_top" xlink:title=" ">
<polygon fill="white" stroke="#666666" points="362,-41.75 204.25,-41.75 204.25,0 362,0 362,-41.75"/>
<text text-anchor="start" x="212.25" y="-28.25" font-family="Helvetica,sans-Serif" font-size="10.00">sourcecode/dbe/apps</text>
<text text-anchor="start" x="212.25" y="-17" font-family="Helvetica,sans-Serif" font-size="10.00">/SchemaEditor/SchemaGraphics</text>
<text text-anchor="middle" x="283.12" y="-5.75" font-family="Helvetica,sans-Serif" font-size="10.00">Scene.cpp</text>
</a>
</g>
</g>
<!-- Node1&#45;&gt;Node3 -->
<g id="edge2_Node000001_Node000003" class="edge">
<title>Node1&#45;&gt;Node3</title>
<g id="a_edge2_Node000001_Node000003"><a xlink:title=" ">
<path fill="none" stroke="#63b8ff" d="M350.2,-70.87C337.77,-61.79 323.31,-51.23 311,-42.24"/>
<polygon fill="#63b8ff" stroke="#63b8ff" points="347.87,-73.5 358.01,-76.58 352,-67.85 347.87,-73.5"/>
</a>
</g>
</g>
<!-- Node4 -->
<g id="Node000004" class="node">
<title>Node4</title>
<g id="a_Node000004"><a xlink:href="SchemaMainWindow_8cpp.html" target="_top" xlink:title=" ">
<polygon fill="white" stroke="#666666" points="572.25,-36.12 380,-36.12 380,-5.62 572.25,-5.62 572.25,-36.12"/>
<text text-anchor="start" x="388" y="-22.62" font-family="Helvetica,sans-Serif" font-size="10.00">sourcecode/dbe/apps</text>
<text text-anchor="middle" x="476.12" y="-11.38" font-family="Helvetica,sans-Serif" font-size="10.00">/SchemaEditor/SchemaMainWindow.cpp</text>
</a>
</g>
</g>
<!-- Node1&#45;&gt;Node4 -->
<g id="edge3_Node000001_Node000004" class="edge">
<title>Node1&#45;&gt;Node4</title>
<g id="a_edge3_Node000001_Node000004"><a xlink:title=" ">
<path fill="none" stroke="#63b8ff" d="M408.35,-70.87C423.76,-59.73 442.27,-46.35 456.05,-36.39"/>
<polygon fill="#63b8ff" stroke="#63b8ff" points="406.5,-67.89 400.45,-76.58 410.6,-73.56 406.5,-67.89"/>
</a>
</g>
</g>
<!-- Node5 -->
<g id="Node000005" class="node">
<title>Node5</title>
<g id="a_Node000005"><a xlink:href="SchemaRelationshipEditor_8cpp.html" target="_top" xlink:title=" ">
<polygon fill="white" stroke="#666666" points="762.12,-41.75 590.12,-41.75 590.12,0 762.12,0 762.12,-41.75"/>
<text text-anchor="start" x="598.12" y="-28.25" font-family="Helvetica,sans-Serif" font-size="10.00">sourcecode/dbe/apps</text>
<text text-anchor="start" x="598.12" y="-17" font-family="Helvetica,sans-Serif" font-size="10.00">/SchemaEditor/SchemaRelationship</text>
<text text-anchor="middle" x="676.12" y="-5.75" font-family="Helvetica,sans-Serif" font-size="10.00">Editor.cpp</text>
</a>
</g>
</g>
<!-- Node1&#45;&gt;Node5 -->
<g id="edge4_Node000001_Node000005" class="edge">
<title>Node1&#45;&gt;Node5</title>
<g id="a_edge4_Node000001_Node000005"><a xlink:title=" ">
<path fill="none" stroke="#63b8ff" d="M452.55,-74.66C494.17,-64.84 546.46,-52.49 590.01,-42.21"/>
<polygon fill="#63b8ff" stroke="#63b8ff" points="451.79,-71.25 442.86,-76.95 453.4,-78.06 451.79,-71.25"/>
</a>
</g>
</g>
</g>
</svg>
