<?xml version="1.0" encoding="UTF-8" standalone="no"?>
<!DOCTYPE svg PUBLIC "-//W3C//DTD SVG 1.1//EN"
 "http://www.w3.org/Graphics/SVG/1.1/DTD/svg11.dtd">
<!-- Generated by graphviz version 9.0.0 (20230911.1827)
 -->
<!-- Title: sourcecode/dbe/src/object/SearchComboBox.cpp Pages: 1 -->
<svg width="222pt" height="149pt"
 viewBox="0.00 0.00 221.75 149.00" xmlns="http://www.w3.org/2000/svg" xmlns:xlink="http://www.w3.org/1999/xlink">
<g id="graph0" class="graph" transform="scale(1 1) rotate(0) translate(4 145)">
<title>sourcecode/dbe/src/object/SearchComboBox.cpp</title>
<!-- Node1 -->
<g id="Node000001" class="node">
<title>Node1</title>
<g id="a_Node000001"><a xlink:title=" ">
<polygon fill="#999999" stroke="#666666" points="162.5,-141 18.25,-141 18.25,-110.5 162.5,-110.5 162.5,-141"/>
<text text-anchor="start" x="26.25" y="-127.5" font-family="Helvetica,sans-Serif" font-size="10.00">sourcecode/dbe/src</text>
<text text-anchor="middle" x="90.38" y="-116.25" font-family="Helvetica,sans-Serif" font-size="10.00">/object/SearchComboBox.cpp</text>
</a>
</g>
</g>
<!-- Node2 -->
<g id="Node000002" class="node">
<title>Node2</title>
<g id="a_Node000002"><a xlink:title=" ">
<polygon fill="#e0e0e0" stroke="#999999" points="64.75,-74.5 0,-74.5 0,-55.25 64.75,-55.25 64.75,-74.5"/>
<text text-anchor="middle" x="32.38" y="-61" font-family="Helvetica,sans-Serif" font-size="10.00">QKeyEvent</text>
</a>
</g>
</g>
<!-- Node1&#45;&gt;Node2 -->
<g id="edge1_Node000001_Node000002" class="edge">
<title>Node1&#45;&gt;Node2</title>
<g id="a_edge1_Node000001_Node000002"><a xlink:title=" ">
<path fill="none" stroke="#63b8ff" d="M76.04,-110.2C67.97,-102.01 57.85,-91.73 49.38,-83.14"/>
<polygon fill="#63b8ff" stroke="#63b8ff" points="51.89,-80.7 42.38,-76.03 46.9,-85.61 51.89,-80.7"/>
</a>
</g>
</g>
<!-- Node3 -->
<g id="Node000003" class="node">
<title>Node3</title>
<g id="a_Node000003"><a xlink:href="SearchComboBox_8hpp.html" target="_top" xlink:title=" ">
<polygon fill="white" stroke="#666666" points="213.75,-74.5 83,-74.5 83,-55.25 213.75,-55.25 213.75,-74.5"/>
<text text-anchor="middle" x="148.38" y="-61" font-family="Helvetica,sans-Serif" font-size="10.00">dbe/SearchComboBox.hpp</text>
</a>
</g>
</g>
<!-- Node1&#45;&gt;Node3 -->
<g id="edge2_Node000001_Node000003" class="edge">
<title>Node1&#45;&gt;Node3</title>
<g id="a_edge2_Node000001_Node000003"><a xlink:title=" ">
<path fill="none" stroke="#63b8ff" d="M104.71,-110.2C112.78,-102.01 122.9,-91.73 131.37,-83.14"/>
<polygon fill="#63b8ff" stroke="#63b8ff" points="133.85,-85.61 138.37,-76.03 128.86,-80.7 133.85,-85.61"/>
</a>
</g>
</g>
<!-- Node4 -->
<g id="Node000004" class="node">
<title>Node4</title>
<g id="a_Node000004"><a xlink:title=" ">
<polygon fill="#e0e0e0" stroke="#999999" points="183.75,-19.25 113,-19.25 113,0 183.75,0 183.75,-19.25"/>
<text text-anchor="middle" x="148.38" y="-5.75" font-family="Helvetica,sans-Serif" font-size="10.00">QComboBox</text>
</a>
</g>
</g>
<!-- Node3&#45;&gt;Node4 -->
<g id="edge3_Node000003_Node000004" class="edge">
<title>Node3&#45;&gt;Node4</title>
<g id="a_edge3_Node000003_Node000004"><a xlink:title=" ">
<path fill="none" stroke="#63b8ff" d="M148.38,-55.08C148.38,-48.57 148.38,-39.42 148.38,-31.12"/>
<polygon fill="#63b8ff" stroke="#63b8ff" points="151.88,-31.12 148.38,-21.12 144.88,-31.12 151.88,-31.12"/>
</a>
</g>
</g>
</g>
</svg>
