<?xml version="1.0" encoding="UTF-8" standalone="no"?>
<!DOCTYPE svg PUBLIC "-//W3C//DTD SVG 1.1//EN"
 "http://www.w3.org/Graphics/SVG/1.1/DTD/svg11.dtd">
<!-- Generated by graphviz version 9.0.0 (20230911.1827)
 -->
<!-- Title: sourcecode/ipm/src/Sender.cpp Pages: 1 -->
<svg width="1957pt" height="393pt"
 viewBox="0.00 0.00 1957.25 392.50" xmlns="http://www.w3.org/2000/svg" xmlns:xlink="http://www.w3.org/1999/xlink">
<g id="graph0" class="graph" transform="scale(1 1) rotate(0) translate(4 388.5)">
<title>sourcecode/ipm/src/Sender.cpp</title>
<!-- Node1 -->
<g id="Node000001" class="node">
<title>Node1</title>
<g id="a_Node000001"><a xlink:title=" ">
<polygon fill="#999999" stroke="#666666" points="1590.75,-384.5 1489.25,-384.5 1489.25,-354 1590.75,-354 1590.75,-384.5"/>
<text text-anchor="start" x="1497.25" y="-371" font-family="Helvetica,sans-Serif" font-size="10.00">sourcecode/ipm/src</text>
<text text-anchor="middle" x="1540" y="-359.75" font-family="Helvetica,sans-Serif" font-size="10.00">/Sender.cpp</text>
</a>
</g>
</g>
<!-- Node2 -->
<g id="Node000002" class="node">
<title>Node2</title>
<g id="a_Node000002"><a xlink:href="ipm_2include_2ipm_2Sender_8hpp.html" target="_top" xlink:title=" ">
<polygon fill="white" stroke="#666666" points="1309.75,-318 1226.25,-318 1226.25,-298.75 1309.75,-298.75 1309.75,-318"/>
<text text-anchor="middle" x="1268" y="-304.5" font-family="Helvetica,sans-Serif" font-size="10.00">ipm/Sender.hpp</text>
</a>
</g>
</g>
<!-- Node1&#45;&gt;Node2 -->
<g id="edge1_Node000001_Node000002" class="edge">
<title>Node1&#45;&gt;Node2</title>
<g id="a_edge1_Node000001_Node000002"><a xlink:title=" ">
<path fill="none" stroke="#63b8ff" d="M1488.84,-357.18C1440.97,-346.81 1369.75,-331.4 1321.23,-320.9"/>
<polygon fill="#63b8ff" stroke="#63b8ff" points="1322.01,-317.48 1311.49,-318.79 1320.53,-324.33 1322.01,-317.48"/>
</a>
</g>
</g>
<!-- Node10 -->
<g id="Node000010" class="node">
<title>Node10</title>
<g id="a_Node000010"><a xlink:title=" ">
<polygon fill="#e0e0e0" stroke="#999999" points="1102,-74.5 1062,-74.5 1062,-55.25 1102,-55.25 1102,-74.5"/>
<text text-anchor="middle" x="1082" y="-61" font-family="Helvetica,sans-Serif" font-size="10.00">string</text>
</a>
</g>
</g>
<!-- Node1&#45;&gt;Node10 -->
<g id="edge52_Node000001_Node000010" class="edge">
<title>Node1&#45;&gt;Node10</title>
<g id="a_edge52_Node000001_Node000010"><a xlink:title=" ">
<path fill="none" stroke="#63b8ff" d="M1488.76,-367.19C1221.55,-361.36 0,-330.53 0,-254.12 0,-254.12 0,-254.12 0,-191.25 0,-149.5 12.16,-131.92 48,-110.5 92.06,-84.16 881.46,-69.29 1050.36,-66.4"/>
<polygon fill="#63b8ff" stroke="#63b8ff" points="1050.4,-69.9 1060.34,-66.23 1050.28,-62.9 1050.4,-69.9"/>
</a>
</g>
</g>
<!-- Node17 -->
<g id="Node000017" class="node">
<title>Node17</title>
<g id="a_Node000017"><a xlink:title=" ">
<polygon fill="#e0e0e0" stroke="#999999" points="1385.5,-74.5 1342.5,-74.5 1342.5,-55.25 1385.5,-55.25 1385.5,-74.5"/>
<text text-anchor="middle" x="1364" y="-61" font-family="Helvetica,sans-Serif" font-size="10.00">vector</text>
</a>
</g>
</g>
<!-- Node1&#45;&gt;Node17 -->
<g id="edge53_Node000001_Node000017" class="edge">
<title>Node1&#45;&gt;Node17</title>
<g id="a_edge53_Node000001_Node000017"><a xlink:title=" ">
<path fill="none" stroke="#63b8ff" d="M1591.18,-366.62C1663.53,-361.27 1787,-339.63 1787,-254.12 1787,-254.12 1787,-254.12 1787,-191.25 1787,-110.09 1497.15,-77.39 1397.32,-68.53"/>
<polygon fill="#63b8ff" stroke="#63b8ff" points="1397.62,-65.04 1387.36,-67.67 1397.02,-72.02 1397.62,-65.04"/>
</a>
</g>
</g>
<!-- Node36 -->
<g id="Node000036" class="node">
<title>Node36</title>
<g id="a_Node000036"><a xlink:title=" ">
<polygon fill="#e0e0e0" stroke="#999999" points="1949.25,-318 1814.75,-318 1814.75,-298.75 1949.25,-298.75 1949.25,-318"/>
<text text-anchor="middle" x="1882" y="-304.5" font-family="Helvetica,sans-Serif" font-size="10.00">ipm/senderinfo/InfoNljs.hpp</text>
</a>
</g>
</g>
<!-- Node1&#45;&gt;Node36 -->
<g id="edge51_Node000001_Node000036" class="edge">
<title>Node1&#45;&gt;Node36</title>
<g id="a_edge51_Node000001_Node000036"><a xlink:title=" ">
<path fill="none" stroke="#63b8ff" d="M1591.2,-359.44C1651.71,-349.02 1752.43,-331.68 1818.02,-320.39"/>
<polygon fill="#63b8ff" stroke="#63b8ff" points="1818.29,-323.89 1827.55,-318.75 1817.1,-317 1818.29,-323.89"/>
</a>
</g>
</g>
<!-- Node3 -->
<g id="Node000003" class="node">
<title>Node3</title>
<g id="a_Node000003"><a xlink:title=" ">
<polygon fill="#e0e0e0" stroke="#999999" points="1468.88,-262.75 1335.12,-262.75 1335.12,-243.5 1468.88,-243.5 1468.88,-262.75"/>
<text text-anchor="middle" x="1402" y="-249.25" font-family="Helvetica,sans-Serif" font-size="10.00">cetlib/BasicPluginFactory.h</text>
</a>
</g>
</g>
<!-- Node2&#45;&gt;Node3 -->
<g id="edge2_Node000002_Node000003" class="edge">
<title>Node2&#45;&gt;Node3</title>
<g id="a_edge2_Node000002_Node000003"><a xlink:title=" ">
<path fill="none" stroke="#63b8ff" d="M1290.73,-298.34C1312.1,-289.85 1344.34,-277.04 1368.63,-267.39"/>
<polygon fill="#63b8ff" stroke="#63b8ff" points="1369.75,-270.71 1377.75,-263.76 1367.16,-264.2 1369.75,-270.71"/>
</a>
</g>
</g>
<!-- Node4 -->
<g id="Node000004" class="node">
<title>Node4</title>
<g id="a_Node000004"><a xlink:title=" ">
<polygon fill="#e0e0e0" stroke="#999999" points="1611,-262.75 1487,-262.75 1487,-243.5 1611,-243.5 1611,-262.75"/>
<text text-anchor="middle" x="1549" y="-249.25" font-family="Helvetica,sans-Serif" font-size="10.00">cetlib/compiler_macros.h</text>
</a>
</g>
</g>
<!-- Node2&#45;&gt;Node4 -->
<g id="edge3_Node000002_Node000004" class="edge">
<title>Node2&#45;&gt;Node4</title>
<g id="a_edge3_Node000002_Node000004"><a xlink:title=" ">
<path fill="none" stroke="#63b8ff" d="M1310.07,-299.4C1357.81,-290.36 1436.02,-275.53 1489.88,-265.33"/>
<polygon fill="#63b8ff" stroke="#63b8ff" points="1490.33,-268.81 1499.5,-263.51 1489.02,-261.93 1490.33,-268.81"/>
</a>
</g>
</g>
<!-- Node5 -->
<g id="Node000005" class="node">
<title>Node5</title>
<g id="a_Node000005"><a xlink:href="Issue_8hpp.html" target="_top" xlink:title=" ">
<polygon fill="white" stroke="#666666" points="981.25,-262.75 906.75,-262.75 906.75,-243.5 981.25,-243.5 981.25,-262.75"/>
<text text-anchor="middle" x="944" y="-249.25" font-family="Helvetica,sans-Serif" font-size="10.00">ers/Issue.hpp</text>
</a>
</g>
</g>
<!-- Node2&#45;&gt;Node5 -->
<g id="edge4_Node000002_Node000005" class="edge">
<title>Node2&#45;&gt;Node5</title>
<g id="a_edge4_Node000002_Node000005"><a xlink:title=" ">
<path fill="none" stroke="#63b8ff" d="M1225.97,-300.47C1166.01,-290.61 1056.16,-272.56 992.71,-262.13"/>
<polygon fill="#63b8ff" stroke="#63b8ff" points="993.36,-258.69 982.92,-260.52 992.22,-265.6 993.36,-258.69"/>
</a>
</g>
</g>
<!-- Node2&#45;&gt;Node10 -->
<g id="edge49_Node000002_Node000010" class="edge">
<title>Node2&#45;&gt;Node10</title>
<g id="a_edge49_Node000002_Node000010"><a xlink:title=" ">
<path fill="none" stroke="#63b8ff" d="M1225.81,-306.5C1047.46,-302.34 355.17,-281.66 152,-207.5 103.59,-189.83 80.8,-186.71 57,-141 50.74,-128.98 47.63,-120.29 57,-110.5 74.62,-92.09 880.13,-70.93 1050.54,-66.65"/>
<polygon fill="#63b8ff" stroke="#63b8ff" points="1050.48,-70.15 1060.39,-66.41 1050.31,-63.16 1050.48,-70.15"/>
</a>
</g>
</g>
<!-- Node13 -->
<g id="Node000013" class="node">
<title>Node13</title>
<g id="a_Node000013"><a xlink:title=" ">
<polygon fill="#e0e0e0" stroke="#999999" points="1322.25,-201.88 1271.75,-201.88 1271.75,-182.62 1322.25,-182.62 1322.25,-201.88"/>
<text text-anchor="middle" x="1297" y="-188.38" font-family="Helvetica,sans-Serif" font-size="10.00">memory</text>
</a>
</g>
</g>
<!-- Node2&#45;&gt;Node13 -->
<g id="edge48_Node000002_Node000013" class="edge">
<title>Node2&#45;&gt;Node13</title>
<g id="a_edge48_Node000002_Node000013"><a xlink:title=" ">
<path fill="none" stroke="#63b8ff" d="M1240.43,-298.28C1212.54,-287.49 1175.59,-267.87 1191,-243.5 1195.3,-236.7 1234.71,-219.13 1264.23,-206.69"/>
<polygon fill="#63b8ff" stroke="#63b8ff" points="1265.3,-210.04 1273.18,-202.96 1262.6,-203.58 1265.3,-210.04"/>
</a>
</g>
</g>
<!-- Node2&#45;&gt;Node17 -->
<g id="edge50_Node000002_Node000017" class="edge">
<title>Node2&#45;&gt;Node17</title>
<g id="a_edge50_Node000002_Node000017"><a xlink:title=" ">
<path fill="none" stroke="#63b8ff" d="M1261.43,-298.42C1252.75,-285.38 1239.78,-260.85 1251,-243.5 1272.17,-210.76 1302.59,-234.21 1331,-207.5 1355.33,-184.62 1357.99,-173.42 1366,-141 1369.25,-127.84 1366.3,-124.05 1366,-110.5 1365.82,-102.55 1365.47,-93.82 1365.1,-86.2"/>
<polygon fill="#63b8ff" stroke="#63b8ff" points="1368.6,-86.08 1364.59,-76.27 1361.61,-86.44 1368.6,-86.08"/>
</a>
</g>
</g>
<!-- Node31 -->
<g id="Node000031" class="node">
<title>Node31</title>
<g id="a_Node000031"><a xlink:title=" ">
<polygon fill="#e0e0e0" stroke="#999999" points="1475.5,-201.88 1378.5,-201.88 1378.5,-182.62 1475.5,-182.62 1475.5,-201.88"/>
<text text-anchor="middle" x="1427" y="-188.38" font-family="Helvetica,sans-Serif" font-size="10.00">nlohmann/json.hpp</text>
</a>
</g>
</g>
<!-- Node2&#45;&gt;Node31 -->
<g id="edge40_Node000002_Node000031" class="edge">
<title>Node2&#45;&gt;Node31</title>
<g id="a_edge40_Node000002_Node000031"><a xlink:title=" ">
<path fill="none" stroke="#63b8ff" d="M1263.76,-298.53C1258.06,-285.2 1249.93,-259.79 1262,-243.5 1269.14,-233.86 1332.02,-216.59 1378.05,-205.03"/>
<polygon fill="#63b8ff" stroke="#63b8ff" points="1378.72,-208.47 1387.58,-202.66 1377.03,-201.67 1378.72,-208.47"/>
</a>
</g>
</g>
<!-- Node32 -->
<g id="Node000032" class="node">
<title>Node32</title>
<g id="a_Node000032"><a xlink:href="InfoCollector_8hpp.html" target="_top" xlink:title=" ">
<polygon fill="white" stroke="#666666" points="1759.38,-262.75 1628.62,-262.75 1628.62,-243.5 1759.38,-243.5 1759.38,-262.75"/>
<text text-anchor="middle" x="1694" y="-249.25" font-family="Helvetica,sans-Serif" font-size="10.00">opmonlib/InfoCollector.hpp</text>
</a>
</g>
</g>
<!-- Node2&#45;&gt;Node32 -->
<g id="edge41_Node000002_Node000032" class="edge">
<title>Node2&#45;&gt;Node32</title>
<g id="a_edge41_Node000002_Node000032"><a xlink:title=" ">
<path fill="none" stroke="#63b8ff" d="M1310.01,-302.12C1381.37,-293.2 1527.26,-274.97 1617.24,-263.72"/>
<polygon fill="#63b8ff" stroke="#63b8ff" points="1617.48,-267.22 1626.97,-262.5 1616.61,-260.27 1617.48,-267.22"/>
</a>
</g>
</g>
<!-- Node35 -->
<g id="Node000035" class="node">
<title>Node35</title>
<g id="a_Node000035"><a xlink:title=" ">
<polygon fill="#e0e0e0" stroke="#999999" points="1316.62,-262.75 1271.38,-262.75 1271.38,-243.5 1316.62,-243.5 1316.62,-262.75"/>
<text text-anchor="middle" x="1294" y="-249.25" font-family="Helvetica,sans-Serif" font-size="10.00">atomic</text>
</a>
</g>
</g>
<!-- Node2&#45;&gt;Node35 -->
<g id="edge47_Node000002_Node000035" class="edge">
<title>Node2&#45;&gt;Node35</title>
<g id="a_edge47_Node000002_Node000035"><a xlink:title=" ">
<path fill="none" stroke="#63b8ff" d="M1272.29,-298.58C1275.62,-291.76 1280.36,-282.06 1284.56,-273.45"/>
<polygon fill="#63b8ff" stroke="#63b8ff" points="1287.71,-274.99 1288.95,-264.47 1281.42,-271.92 1287.71,-274.99"/>
</a>
</g>
</g>
<!-- Node6 -->
<g id="Node000006" class="node">
<title>Node6</title>
<g id="a_Node000006"><a xlink:title=" ">
<polygon fill="#e0e0e0" stroke="#999999" points="733.62,-201.88 688.38,-201.88 688.38,-182.62 733.62,-182.62 733.62,-201.88"/>
<text text-anchor="middle" x="711" y="-188.38" font-family="Helvetica,sans-Serif" font-size="10.00">math.h</text>
</a>
</g>
</g>
<!-- Node5&#45;&gt;Node6 -->
<g id="edge5_Node000005_Node000006" class="edge">
<title>Node5&#45;&gt;Node6</title>
<g id="a_edge5_Node000005_Node000006"><a xlink:title=" ">
<path fill="none" stroke="#63b8ff" d="M906.35,-246.09C865.5,-239.02 798.67,-225.87 743,-207.5 742.04,-207.18 741.07,-206.85 740.09,-206.5"/>
<polygon fill="#63b8ff" stroke="#63b8ff" points="741.69,-203.37 731.11,-202.89 739.09,-209.86 741.69,-203.37"/>
</a>
</g>
</g>
<!-- Node7 -->
<g id="Node000007" class="node">
<title>Node7</title>
<g id="a_Node000007"><a xlink:title=" ">
<polygon fill="#e0e0e0" stroke="#999999" points="796.25,-201.88 751.75,-201.88 751.75,-182.62 796.25,-182.62 796.25,-201.88"/>
<text text-anchor="middle" x="774" y="-188.38" font-family="Helvetica,sans-Serif" font-size="10.00">stdio.h</text>
</a>
</g>
</g>
<!-- Node5&#45;&gt;Node7 -->
<g id="edge6_Node000005_Node000007" class="edge">
<title>Node5&#45;&gt;Node7</title>
<g id="a_edge6_Node000005_Node000007"><a xlink:title=" ">
<path fill="none" stroke="#63b8ff" d="M911.88,-243.01C883.46,-234.66 841.02,-221.5 805,-207.5 804.38,-207.26 803.75,-207.01 803.12,-206.76"/>
<polygon fill="#63b8ff" stroke="#63b8ff" points="804.82,-203.68 794.25,-202.95 802.06,-210.11 804.82,-203.68"/>
</a>
</g>
</g>
<!-- Node8 -->
<g id="Node000008" class="node">
<title>Node8</title>
<g id="a_Node000008"><a xlink:title=" ">
<polygon fill="#e0e0e0" stroke="#999999" points="861.75,-201.88 814.25,-201.88 814.25,-182.62 861.75,-182.62 861.75,-201.88"/>
<text text-anchor="middle" x="838" y="-188.38" font-family="Helvetica,sans-Serif" font-size="10.00">string.h</text>
</a>
</g>
</g>
<!-- Node5&#45;&gt;Node8 -->
<g id="edge7_Node000005_Node000008" class="edge">
<title>Node5&#45;&gt;Node8</title>
<g id="a_edge7_Node000005_Node000008"><a xlink:title=" ">
<path fill="none" stroke="#63b8ff" d="M927.9,-243.18C911.01,-233.8 884.2,-218.91 864.25,-207.83"/>
<polygon fill="#63b8ff" stroke="#63b8ff" points="866.02,-204.81 855.57,-203.01 862.62,-210.93 866.02,-204.81"/>
</a>
</g>
</g>
<!-- Node9 -->
<g id="Node000009" class="node">
<title>Node9</title>
<g id="a_Node000009"><a xlink:title=" ">
<polygon fill="#e0e0e0" stroke="#999999" points="1054.38,-135.38 1019.62,-135.38 1019.62,-116.12 1054.38,-116.12 1054.38,-135.38"/>
<text text-anchor="middle" x="1037" y="-121.88" font-family="Helvetica,sans-Serif" font-size="10.00">map</text>
</a>
</g>
</g>
<!-- Node5&#45;&gt;Node9 -->
<g id="edge8_Node000005_Node000009" class="edge">
<title>Node5&#45;&gt;Node9</title>
<g id="a_edge8_Node000005_Node000009"><a xlink:title=" ">
<path fill="none" stroke="#63b8ff" d="M934.11,-243.25C919.02,-228.61 893.54,-198.85 909,-177 936.77,-137.76 967.11,-160.62 1011,-141 1011.11,-140.95 1011.22,-140.9 1011.33,-140.85"/>
<polygon fill="#63b8ff" stroke="#63b8ff" points="1012.8,-144.03 1020.18,-136.44 1009.67,-137.77 1012.8,-144.03"/>
</a>
</g>
</g>
<!-- Node5&#45;&gt;Node10 -->
<g id="edge9_Node000005_Node000010" class="edge">
<title>Node5&#45;&gt;Node10</title>
<g id="a_edge9_Node000005_Node000010"><a xlink:title=" ">
<path fill="none" stroke="#63b8ff" d="M981.6,-248.14C1008.51,-243.21 1043.34,-232.18 1063,-207.5 1091.01,-172.34 1088.89,-116.01 1085.26,-86.08"/>
<polygon fill="#63b8ff" stroke="#63b8ff" points="1088.72,-85.6 1083.85,-76.19 1081.79,-86.58 1088.72,-85.6"/>
</a>
</g>
</g>
<!-- Node11 -->
<g id="Node000011" class="node">
<title>Node11</title>
<g id="a_Node000011"><a xlink:title=" ">
<polygon fill="#e0e0e0" stroke="#999999" points="1019.75,-19.25 966.25,-19.25 966.25,0 1019.75,0 1019.75,-19.25"/>
<text text-anchor="middle" x="993" y="-5.75" font-family="Helvetica,sans-Serif" font-size="10.00">iostream</text>
</a>
</g>
</g>
<!-- Node5&#45;&gt;Node11 -->
<g id="edge10_Node000005_Node000011" class="edge">
<title>Node5&#45;&gt;Node11</title>
<g id="a_edge10_Node000005_Node000011"><a xlink:title=" ">
<path fill="none" stroke="#63b8ff" d="M906.42,-251.22C758.86,-247.48 223.69,-232.34 152,-207.5 94.98,-187.75 17.73,-156.32 57,-110.5 116.43,-41.16 785.64,-16.77 954.49,-11.69"/>
<polygon fill="#63b8ff" stroke="#63b8ff" points="954.59,-15.19 964.48,-11.4 954.38,-8.19 954.59,-15.19"/>
</a>
</g>
</g>
<!-- Node12 -->
<g id="Node000012" class="node">
<title>Node12</title>
<g id="a_Node000012"><a xlink:title=" ">
<polygon fill="#e0e0e0" stroke="#999999" points="969.62,-201.88 918.38,-201.88 918.38,-182.62 969.62,-182.62 969.62,-201.88"/>
<text text-anchor="middle" x="944" y="-188.38" font-family="Helvetica,sans-Serif" font-size="10.00">sstream</text>
</a>
</g>
</g>
<!-- Node5&#45;&gt;Node12 -->
<g id="edge11_Node000005_Node000012" class="edge">
<title>Node5&#45;&gt;Node12</title>
<g id="a_edge11_Node000005_Node000012"><a xlink:title=" ">
<path fill="none" stroke="#63b8ff" d="M944,-243.18C944,-235.4 944,-223.83 944,-213.78"/>
<polygon fill="#63b8ff" stroke="#63b8ff" points="947.5,-213.79 944,-203.79 940.5,-213.79 947.5,-213.79"/>
</a>
</g>
</g>
<!-- Node5&#45;&gt;Node13 -->
<g id="edge12_Node000005_Node000013" class="edge">
<title>Node5&#45;&gt;Node13</title>
<g id="a_edge12_Node000005_Node000013"><a xlink:title=" ">
<path fill="none" stroke="#63b8ff" d="M981.71,-249.33C1041.16,-244.35 1160,-232.08 1258,-207.5 1259.87,-207.03 1261.78,-206.5 1263.7,-205.93"/>
<polygon fill="#63b8ff" stroke="#63b8ff" points="1264.73,-209.28 1273.13,-202.83 1262.53,-202.63 1264.73,-209.28"/>
</a>
</g>
</g>
<!-- Node14 -->
<g id="Node000014" class="node">
<title>Node14</title>
<g id="a_Node000014"><a xlink:title=" ">
<polygon fill="#e0e0e0" stroke="#999999" points="1155.62,-135.38 1110.38,-135.38 1110.38,-116.12 1155.62,-116.12 1155.62,-135.38"/>
<text text-anchor="middle" x="1133" y="-121.88" font-family="Helvetica,sans-Serif" font-size="10.00">chrono</text>
</a>
</g>
</g>
<!-- Node5&#45;&gt;Node14 -->
<g id="edge13_Node000005_Node000014" class="edge">
<title>Node5&#45;&gt;Node14</title>
<g id="a_edge13_Node000005_Node000014"><a xlink:title=" ">
<path fill="none" stroke="#63b8ff" d="M950.76,-243.15C962.68,-227.83 988.86,-196.43 1017,-177 1042.57,-159.35 1075.34,-145.85 1099.52,-137.31"/>
<polygon fill="#63b8ff" stroke="#63b8ff" points="1100.53,-140.66 1108.87,-134.12 1098.27,-134.04 1100.53,-140.66"/>
</a>
</g>
</g>
<!-- Node15 -->
<g id="Node000015" class="node">
<title>Node15</title>
<g id="a_Node000015"><a xlink:title=" ">
<polygon fill="#e0e0e0" stroke="#999999" points="1054.4,-201.88 1025.6,-201.88 1025.6,-182.62 1054.4,-182.62 1054.4,-201.88"/>
<text text-anchor="middle" x="1040" y="-188.38" font-family="Helvetica,sans-Serif" font-size="10.00">list</text>
</a>
</g>
</g>
<!-- Node5&#45;&gt;Node15 -->
<g id="edge14_Node000005_Node000015" class="edge">
<title>Node5&#45;&gt;Node15</title>
<g id="a_edge14_Node000005_Node000015"><a xlink:title=" ">
<path fill="none" stroke="#63b8ff" d="M958.58,-243.18C973.66,-233.93 997.49,-219.32 1015.48,-208.29"/>
<polygon fill="#63b8ff" stroke="#63b8ff" points="1017.3,-211.28 1023.99,-203.07 1013.64,-205.31 1017.3,-211.28"/>
</a>
</g>
</g>
<!-- Node16 -->
<g id="Node000016" class="node">
<title>Node16</title>
<g id="a_Node000016"><a xlink:href="IssueFactory_8hpp.html" target="_top" xlink:title=" ">
<polygon fill="white" stroke="#666666" points="1216.38,-201.88 1109.62,-201.88 1109.62,-182.62 1216.38,-182.62 1216.38,-201.88"/>
<text text-anchor="middle" x="1163" y="-188.38" font-family="Helvetica,sans-Serif" font-size="10.00">ers/IssueFactory.hpp</text>
</a>
</g>
</g>
<!-- Node5&#45;&gt;Node16 -->
<g id="edge15_Node000005_Node000016" class="edge">
<title>Node5&#45;&gt;Node16</title>
<g id="a_edge15_Node000005_Node000016"><a xlink:title=" ">
<path fill="none" stroke="#63b8ff" d="M977.74,-243.05C1015.44,-232.92 1076.63,-216.47 1118.29,-205.27"/>
<polygon fill="#63b8ff" stroke="#63b8ff" points="1119.01,-208.7 1127.76,-202.72 1117.2,-201.94 1119.01,-208.7"/>
</a>
</g>
</g>
<!-- Node18 -->
<g id="Node000018" class="node">
<title>Node18</title>
<g id="a_Node000018"><a xlink:href="Severity_8hpp.html" target="_top" xlink:title=" ">
<polygon fill="white" stroke="#666666" points="1335.88,-135.38 1250.12,-135.38 1250.12,-116.12 1335.88,-116.12 1335.88,-135.38"/>
<text text-anchor="middle" x="1293" y="-121.88" font-family="Helvetica,sans-Serif" font-size="10.00">ers/Severity.hpp</text>
</a>
</g>
</g>
<!-- Node5&#45;&gt;Node18 -->
<g id="edge32_Node000005_Node000018" class="edge">
<title>Node5&#45;&gt;Node18</title>
<g id="a_edge32_Node000005_Node000018"><a xlink:title=" ">
<path fill="none" stroke="#63b8ff" d="M981.73,-249.4C1048.43,-244.05 1184.03,-230.64 1225,-207.5 1250.75,-192.96 1271.05,-164.67 1282.54,-145.74"/>
<polygon fill="#63b8ff" stroke="#63b8ff" points="1285.53,-147.57 1287.51,-137.16 1279.47,-144.06 1285.53,-147.57"/>
</a>
</g>
</g>
<!-- Node19 -->
<g id="Node000019" class="node">
<title>Node19</title>
<g id="a_Node000019"><a xlink:href="LocalContext_8hpp.html" target="_top" xlink:title=" ">
<polygon fill="white" stroke="#666666" points="268.75,-201.88 161.25,-201.88 161.25,-182.62 268.75,-182.62 268.75,-201.88"/>
<text text-anchor="middle" x="215" y="-188.38" font-family="Helvetica,sans-Serif" font-size="10.00">ers/LocalContext.hpp</text>
</a>
</g>
</g>
<!-- Node5&#45;&gt;Node19 -->
<g id="edge24_Node000005_Node000019" class="edge">
<title>Node5&#45;&gt;Node19</title>
<g id="a_edge24_Node000005_Node000019"><a xlink:title=" ">
<path fill="none" stroke="#63b8ff" d="M906.34,-249.08C788.98,-239.61 428.87,-210.52 280.22,-198.52"/>
<polygon fill="#63b8ff" stroke="#63b8ff" points="280.8,-195.05 270.55,-197.74 280.24,-202.03 280.8,-195.05"/>
</a>
</g>
</g>
<!-- Node24 -->
<g id="Node000024" class="node">
<title>Node24</title>
<g id="a_Node000024"><a xlink:href="IssueDeclarationMacro_8hpp.html" target="_top" xlink:title=" ">
<polygon fill="white" stroke="#666666" points="669.88,-207.5 530.12,-207.5 530.12,-177 669.88,-177 669.88,-207.5"/>
<text text-anchor="start" x="538.12" y="-194" font-family="Helvetica,sans-Serif" font-size="10.00">ers/internal/IssueDeclaration</text>
<text text-anchor="middle" x="600" y="-182.75" font-family="Helvetica,sans-Serif" font-size="10.00">Macro.hpp</text>
</a>
</g>
</g>
<!-- Node5&#45;&gt;Node24 -->
<g id="edge33_Node000005_Node000024" class="edge">
<title>Node5&#45;&gt;Node24</title>
<g id="a_edge33_Node000005_Node000024"><a xlink:title=" ">
<path fill="none" stroke="#63b8ff" d="M906.67,-245.98C857.46,-237.85 767.86,-222.93 681.29,-207.89"/>
<polygon fill="#63b8ff" stroke="#63b8ff" points="682.15,-204.48 671.69,-206.22 680.95,-211.38 682.15,-204.48"/>
</a>
</g>
</g>
<!-- Node16&#45;&gt;Node9 -->
<g id="edge19_Node000016_Node000009" class="edge">
<title>Node16&#45;&gt;Node9</title>
<g id="a_edge19_Node000016_Node000009"><a xlink:title=" ">
<path fill="none" stroke="#63b8ff" d="M1145.21,-182.15C1124.3,-171.44 1089.32,-153.53 1064.81,-140.99"/>
<polygon fill="#63b8ff" stroke="#63b8ff" points="1066.54,-137.94 1056.04,-136.5 1063.35,-144.17 1066.54,-137.94"/>
</a>
</g>
</g>
<!-- Node16&#45;&gt;Node10 -->
<g id="edge17_Node000016_Node000010" class="edge">
<title>Node16&#45;&gt;Node10</title>
<g id="a_edge17_Node000016_Node000010"><a xlink:title=" ">
<path fill="none" stroke="#63b8ff" d="M1166.13,-182.23C1171.03,-166.42 1178.6,-133.25 1165,-110.5 1153.76,-91.69 1131.55,-80.35 1112.94,-73.8"/>
<polygon fill="#63b8ff" stroke="#63b8ff" points="1114.26,-70.55 1103.67,-70.87 1112.14,-77.22 1114.26,-70.55"/>
</a>
</g>
</g>
<!-- Node16&#45;&gt;Node14 -->
<g id="edge16_Node000016_Node000014" class="edge">
<title>Node16&#45;&gt;Node14</title>
<g id="a_edge16_Node000016_Node000014"><a xlink:title=" ">
<path fill="none" stroke="#63b8ff" d="M1158.83,-182.28C1154.49,-172.94 1147.55,-158.03 1141.96,-146.01"/>
<polygon fill="#63b8ff" stroke="#63b8ff" points="1145.17,-144.61 1137.77,-137.01 1138.82,-147.56 1145.17,-144.61"/>
</a>
</g>
</g>
<!-- Node16&#45;&gt;Node17 -->
<g id="edge18_Node000016_Node000017" class="edge">
<title>Node16&#45;&gt;Node17</title>
<g id="a_edge18_Node000016_Node000017"><a xlink:title=" ">
<path fill="none" stroke="#63b8ff" d="M1216.43,-182.6C1263.45,-173.94 1327.12,-159.27 1345,-141 1359.25,-126.44 1363.29,-102.83 1364.21,-85.96"/>
<polygon fill="#63b8ff" stroke="#63b8ff" points="1367.71,-86.22 1364.4,-76.15 1360.71,-86.08 1367.71,-86.22"/>
</a>
</g>
</g>
<!-- Node16&#45;&gt;Node18 -->
<g id="edge20_Node000016_Node000018" class="edge">
<title>Node16&#45;&gt;Node18</title>
<g id="a_edge20_Node000016_Node000018"><a xlink:title=" ">
<path fill="none" stroke="#63b8ff" d="M1181.35,-182.15C1203.03,-171.39 1239.34,-153.37 1264.65,-140.82"/>
<polygon fill="#63b8ff" stroke="#63b8ff" points="1265.99,-144.06 1273.39,-136.48 1262.87,-137.79 1265.99,-144.06"/>
</a>
</g>
</g>
<!-- Node18&#45;&gt;Node10 -->
<g id="edge21_Node000018_Node000010" class="edge">
<title>Node18&#45;&gt;Node10</title>
<g id="a_edge21_Node000018_Node000010"><a xlink:title=" ">
<path fill="none" stroke="#63b8ff" d="M1260.49,-115.68C1220.49,-104.52 1153.03,-85.7 1113.5,-74.66"/>
<polygon fill="#63b8ff" stroke="#63b8ff" points="1114.46,-71.3 1103.88,-71.98 1112.57,-78.04 1114.46,-71.3"/>
</a>
</g>
</g>
<!-- Node18&#45;&gt;Node11 -->
<g id="edge23_Node000018_Node000011" class="edge">
<title>Node18&#45;&gt;Node11</title>
<g id="a_edge23_Node000018_Node000011"><a xlink:title=" ">
<path fill="none" stroke="#63b8ff" d="M1269.45,-115.73C1234.77,-102.45 1167.91,-76.88 1111,-55.25 1082.9,-44.57 1051.01,-32.51 1027.47,-23.63"/>
<polygon fill="#63b8ff" stroke="#63b8ff" points="1028.97,-20.45 1018.38,-20.2 1026.5,-27 1028.97,-20.45"/>
</a>
</g>
</g>
<!-- Node18&#45;&gt;Node17 -->
<g id="edge22_Node000018_Node000017" class="edge">
<title>Node18&#45;&gt;Node17</title>
<g id="a_edge22_Node000018_Node000017"><a xlink:title=" ">
<path fill="none" stroke="#63b8ff" d="M1303.78,-115.81C1314.52,-106.9 1331.25,-93.03 1344.35,-82.17"/>
<polygon fill="#63b8ff" stroke="#63b8ff" points="1346.49,-84.94 1351.95,-75.87 1342.02,-79.56 1346.49,-84.94"/>
</a>
</g>
</g>
<!-- Node20 -->
<g id="Node000020" class="node">
<title>Node20</title>
<g id="a_Node000020"><a xlink:title=" ">
<polygon fill="#e0e0e0" stroke="#999999" points="130.38,-135.38 65.62,-135.38 65.62,-116.12 130.38,-116.12 130.38,-135.38"/>
<text text-anchor="middle" x="98" y="-121.88" font-family="Helvetica,sans-Serif" font-size="10.00">sys/types.h</text>
</a>
</g>
</g>
<!-- Node19&#45;&gt;Node20 -->
<g id="edge25_Node000019_Node000020" class="edge">
<title>Node19&#45;&gt;Node20</title>
<g id="a_edge25_Node000019_Node000020"><a xlink:title=" ">
<path fill="none" stroke="#63b8ff" d="M198.48,-182.15C179.23,-171.53 147.17,-153.85 124.44,-141.32"/>
<polygon fill="#63b8ff" stroke="#63b8ff" points="126.2,-138.3 115.76,-136.54 122.82,-144.43 126.2,-138.3"/>
</a>
</g>
</g>
<!-- Node21 -->
<g id="Node000021" class="node">
<title>Node21</title>
<g id="a_Node000021"><a xlink:title=" ">
<polygon fill="#e0e0e0" stroke="#999999" points="197.88,-135.38 148.12,-135.38 148.12,-116.12 197.88,-116.12 197.88,-135.38"/>
<text text-anchor="middle" x="173" y="-121.88" font-family="Helvetica,sans-Serif" font-size="10.00">unistd.h</text>
</a>
</g>
</g>
<!-- Node19&#45;&gt;Node21 -->
<g id="edge26_Node000019_Node000021" class="edge">
<title>Node19&#45;&gt;Node21</title>
<g id="a_edge26_Node000019_Node000021"><a xlink:title=" ">
<path fill="none" stroke="#63b8ff" d="M209.16,-182.28C202.95,-172.75 192.97,-157.41 185.06,-145.27"/>
<polygon fill="#63b8ff" stroke="#63b8ff" points="188.01,-143.38 179.62,-136.91 182.14,-147.2 188.01,-143.38"/>
</a>
</g>
</g>
<!-- Node22 -->
<g id="Node000022" class="node">
<title>Node22</title>
<g id="a_Node000022"><a xlink:href="Context_8hpp.html" target="_top" xlink:title=" ">
<polygon fill="white" stroke="#666666" points="299.75,-135.38 216.25,-135.38 216.25,-116.12 299.75,-116.12 299.75,-135.38"/>
<text text-anchor="middle" x="258" y="-121.88" font-family="Helvetica,sans-Serif" font-size="10.00">ers/Context.hpp</text>
</a>
</g>
</g>
<!-- Node19&#45;&gt;Node22 -->
<g id="edge27_Node000019_Node000022" class="edge">
<title>Node19&#45;&gt;Node22</title>
<g id="a_edge27_Node000019_Node000022"><a xlink:title=" ">
<path fill="none" stroke="#63b8ff" d="M220.98,-182.28C227.4,-172.65 237.77,-157.1 245.9,-144.9"/>
<polygon fill="#63b8ff" stroke="#63b8ff" points="248.6,-147.16 251.23,-136.9 242.77,-143.28 248.6,-147.16"/>
</a>
</g>
</g>
<!-- Node22&#45;&gt;Node10 -->
<g id="edge28_Node000022_Node000010" class="edge">
<title>Node22&#45;&gt;Node10</title>
<g id="a_edge28_Node000022_Node000010"><a xlink:title=" ">
<path fill="none" stroke="#63b8ff" d="M285.78,-115.66C292.95,-113.64 300.7,-111.73 308,-110.5 454.42,-85.73 923.45,-70.51 1050.18,-66.78"/>
<polygon fill="#63b8ff" stroke="#63b8ff" points="1050.27,-70.27 1060.16,-66.49 1050.07,-63.28 1050.27,-70.27"/>
</a>
</g>
</g>
<!-- Node22&#45;&gt;Node17 -->
<g id="edge29_Node000022_Node000017" class="edge">
<title>Node22&#45;&gt;Node17</title>
<g id="a_edge29_Node000022_Node000017"><a xlink:title=" ">
<path fill="none" stroke="#63b8ff" d="M285.51,-115.66C292.75,-113.61 300.6,-111.69 308,-110.5 359.64,-102.17 1157.12,-73.27 1330.78,-67.06"/>
<polygon fill="#63b8ff" stroke="#63b8ff" points="1330.81,-70.56 1340.67,-66.7 1330.56,-63.56 1330.81,-70.56"/>
</a>
</g>
</g>
<!-- Node23 -->
<g id="Node000023" class="node">
<title>Node23</title>
<g id="a_Node000023"><a xlink:href="ers_2include_2ers_2Configuration_8hpp.html" target="_top" xlink:title=" ">
<polygon fill="white" stroke="#666666" points="529.38,-74.5 422.62,-74.5 422.62,-55.25 529.38,-55.25 529.38,-74.5"/>
<text text-anchor="middle" x="476" y="-61" font-family="Helvetica,sans-Serif" font-size="10.00">ers/Configuration.hpp</text>
</a>
</g>
</g>
<!-- Node22&#45;&gt;Node23 -->
<g id="edge30_Node000022_Node000023" class="edge">
<title>Node22&#45;&gt;Node23</title>
<g id="a_edge30_Node000022_Node000023"><a xlink:title=" ">
<path fill="none" stroke="#63b8ff" d="M289.45,-115.69C295.6,-113.95 302,-112.15 308,-110.5 349.3,-99.13 396.46,-86.65 430.27,-77.78"/>
<polygon fill="#63b8ff" stroke="#63b8ff" points="430.95,-81.22 439.74,-75.31 429.18,-74.45 430.95,-81.22"/>
</a>
</g>
</g>
<!-- Node23&#45;&gt;Node11 -->
<g id="edge31_Node000023_Node000011" class="edge">
<title>Node23&#45;&gt;Node11</title>
<g id="a_edge31_Node000023_Node000011"><a xlink:title=" ">
<path fill="none" stroke="#63b8ff" d="M529.86,-58.33C634.56,-47.54 863.23,-23.99 954.38,-14.6"/>
<polygon fill="#63b8ff" stroke="#63b8ff" points="954.71,-18.09 964.29,-13.58 953.99,-11.12 954.71,-18.09"/>
</a>
</g>
</g>
<!-- Node25 -->
<g id="Node000025" class="node">
<title>Node25</title>
<g id="a_Node000025"><a xlink:title=" ">
<polygon fill="#e0e0e0" stroke="#999999" points="767.62,-141 668.38,-141 668.38,-110.5 767.62,-110.5 767.62,-141"/>
<text text-anchor="start" x="676.38" y="-127.5" font-family="Helvetica,sans-Serif" font-size="10.00">boost/preprocessor</text>
<text text-anchor="middle" x="718" y="-116.25" font-family="Helvetica,sans-Serif" font-size="10.00">/if.hpp</text>
</a>
</g>
</g>
<!-- Node24&#45;&gt;Node25 -->
<g id="edge34_Node000024_Node000025" class="edge">
<title>Node24&#45;&gt;Node25</title>
<g id="a_edge34_Node000024_Node000025"><a xlink:title=" ">
<path fill="none" stroke="#63b8ff" d="M626.78,-176.61C642.92,-167.79 663.71,-156.43 681.36,-146.78"/>
<polygon fill="#63b8ff" stroke="#63b8ff" points="682.91,-149.92 690,-142.05 679.55,-143.78 682.91,-149.92"/>
</a>
</g>
</g>
<!-- Node26 -->
<g id="Node000026" class="node">
<title>Node26</title>
<g id="a_Node000026"><a xlink:title=" ">
<polygon fill="#e0e0e0" stroke="#999999" points="884.62,-141 785.38,-141 785.38,-110.5 884.62,-110.5 884.62,-141"/>
<text text-anchor="start" x="793.38" y="-127.5" font-family="Helvetica,sans-Serif" font-size="10.00">boost/preprocessor</text>
<text text-anchor="middle" x="835" y="-116.25" font-family="Helvetica,sans-Serif" font-size="10.00">/seq.hpp</text>
</a>
</g>
</g>
<!-- Node24&#45;&gt;Node26 -->
<g id="edge35_Node000024_Node000026" class="edge">
<title>Node24&#45;&gt;Node26</title>
<g id="a_edge35_Node000024_Node000026"><a xlink:title=" ">
<path fill="none" stroke="#63b8ff" d="M653.62,-176.53C689.62,-166.65 737.12,-153.62 774.48,-143.36"/>
<polygon fill="#63b8ff" stroke="#63b8ff" points="775.05,-146.83 783.76,-140.81 773.19,-140.08 775.05,-146.83"/>
</a>
</g>
</g>
<!-- Node27 -->
<g id="Node000027" class="node">
<title>Node27</title>
<g id="a_Node000027"><a xlink:title=" ">
<polygon fill="#e0e0e0" stroke="#999999" points="1001.62,-141 902.38,-141 902.38,-110.5 1001.62,-110.5 1001.62,-141"/>
<text text-anchor="start" x="910.38" y="-127.5" font-family="Helvetica,sans-Serif" font-size="10.00">boost/preprocessor</text>
<text text-anchor="middle" x="952" y="-116.25" font-family="Helvetica,sans-Serif" font-size="10.00">/tuple.hpp</text>
</a>
</g>
</g>
<!-- Node24&#45;&gt;Node27 -->
<g id="edge36_Node000024_Node000027" class="edge">
<title>Node24&#45;&gt;Node27</title>
<g id="a_edge36_Node000024_Node000027"><a xlink:title=" ">
<path fill="none" stroke="#63b8ff" d="M670.2,-178.54C673.17,-178.02 676.12,-177.5 679,-177 770.91,-161.02 797.18,-160.58 890.92,-141.55"/>
<polygon fill="#63b8ff" stroke="#63b8ff" points="891.49,-145.01 900.58,-139.57 890.09,-138.15 891.49,-145.01"/>
</a>
</g>
</g>
<!-- Node28 -->
<g id="Node000028" class="node">
<title>Node28</title>
<g id="a_Node000028"><a xlink:title=" ">
<polygon fill="#e0e0e0" stroke="#999999" points="416.62,-141 317.38,-141 317.38,-110.5 416.62,-110.5 416.62,-141"/>
<text text-anchor="start" x="325.38" y="-127.5" font-family="Helvetica,sans-Serif" font-size="10.00">boost/preprocessor</text>
<text text-anchor="middle" x="367" y="-116.25" font-family="Helvetica,sans-Serif" font-size="10.00">/logical.hpp</text>
</a>
</g>
</g>
<!-- Node24&#45;&gt;Node28 -->
<g id="edge37_Node000024_Node000028" class="edge">
<title>Node24&#45;&gt;Node28</title>
<g id="a_edge37_Node000024_Node000028"><a xlink:title=" ">
<path fill="none" stroke="#63b8ff" d="M546.84,-176.53C511.26,-166.69 464.37,-153.7 427.39,-143.47"/>
<polygon fill="#63b8ff" stroke="#63b8ff" points="428.78,-140.22 418.21,-140.92 426.91,-146.97 428.78,-140.22"/>
</a>
</g>
</g>
<!-- Node29 -->
<g id="Node000029" class="node">
<title>Node29</title>
<g id="a_Node000029"><a xlink:title=" ">
<polygon fill="#e0e0e0" stroke="#999999" points="533.62,-141 434.38,-141 434.38,-110.5 533.62,-110.5 533.62,-141"/>
<text text-anchor="start" x="442.38" y="-127.5" font-family="Helvetica,sans-Serif" font-size="10.00">boost/preprocessor</text>
<text text-anchor="middle" x="484" y="-116.25" font-family="Helvetica,sans-Serif" font-size="10.00">/stringize.hpp</text>
</a>
</g>
</g>
<!-- Node24&#45;&gt;Node29 -->
<g id="edge38_Node000024_Node000029" class="edge">
<title>Node24&#45;&gt;Node29</title>
<g id="a_edge38_Node000024_Node000029"><a xlink:title=" ">
<path fill="none" stroke="#63b8ff" d="M573.68,-176.61C557.81,-167.79 537.37,-156.43 520.02,-146.78"/>
<polygon fill="#63b8ff" stroke="#63b8ff" points="521.98,-143.86 511.54,-142.06 518.58,-149.98 521.98,-143.86"/>
</a>
</g>
</g>
<!-- Node30 -->
<g id="Node000030" class="node">
<title>Node30</title>
<g id="a_Node000030"><a xlink:title=" ">
<polygon fill="#e0e0e0" stroke="#999999" points="650.62,-141 551.38,-141 551.38,-110.5 650.62,-110.5 650.62,-141"/>
<text text-anchor="start" x="559.38" y="-127.5" font-family="Helvetica,sans-Serif" font-size="10.00">boost/preprocessor</text>
<text text-anchor="middle" x="601" y="-116.25" font-family="Helvetica,sans-Serif" font-size="10.00">/comparison.hpp</text>
</a>
</g>
</g>
<!-- Node24&#45;&gt;Node30 -->
<g id="edge39_Node000024_Node000030" class="edge">
<title>Node24&#45;&gt;Node30</title>
<g id="a_edge39_Node000024_Node000030"><a xlink:title=" ">
<path fill="none" stroke="#63b8ff" d="M600.23,-176.61C600.34,-169.52 600.47,-160.79 600.6,-152.63"/>
<polygon fill="#63b8ff" stroke="#63b8ff" points="604.09,-152.89 600.75,-142.84 597.1,-152.79 604.09,-152.89"/>
</a>
</g>
</g>
<!-- Node32&#45;&gt;Node10 -->
<g id="edge45_Node000032_Node000010" class="edge">
<title>Node32&#45;&gt;Node10</title>
<g id="a_edge45_Node000032_Node000010"><a xlink:title=" ">
<path fill="none" stroke="#63b8ff" d="M1634.82,-243.04C1600.84,-236.3 1558.09,-225.14 1523,-207.5 1503.65,-197.77 1504.85,-185.66 1485,-177 1384.53,-133.16 1345.33,-174.63 1241,-141 1212.9,-131.94 1208.6,-123.3 1182,-110.5 1159.02,-99.44 1132.66,-87.72 1112.78,-79.06"/>
<polygon fill="#63b8ff" stroke="#63b8ff" points="1114.42,-75.96 1103.85,-75.2 1111.63,-82.38 1114.42,-75.96"/>
</a>
</g>
</g>
<!-- Node32&#45;&gt;Node11 -->
<g id="edge44_Node000032_Node000011" class="edge">
<title>Node32&#45;&gt;Node11</title>
<g id="a_edge44_Node000032_Node000011"><a xlink:title=" ">
<path fill="none" stroke="#63b8ff" d="M1702.65,-243.13C1715.81,-228.33 1737.85,-198.35 1723,-177 1634.22,-49.34 1546.3,-91.15 1395,-55.25 1263.94,-24.15 1103.58,-14.6 1031.42,-11.77"/>
<polygon fill="#63b8ff" stroke="#63b8ff" points="1031.84,-8.28 1021.72,-11.41 1031.58,-15.28 1031.84,-8.28"/>
</a>
</g>
</g>
<!-- Node32&#45;&gt;Node31 -->
<g id="edge42_Node000032_Node000031" class="edge">
<title>Node32&#45;&gt;Node31</title>
<g id="a_edge42_Node000032_Node000031"><a xlink:title=" ">
<path fill="none" stroke="#63b8ff" d="M1652.18,-243.07C1610.93,-234.11 1546.09,-219.98 1490,-207.5 1486.16,-206.65 1482.19,-205.76 1478.2,-204.86"/>
<polygon fill="#63b8ff" stroke="#63b8ff" points="1478.98,-201.45 1468.46,-202.67 1477.45,-208.28 1478.98,-201.45"/>
</a>
</g>
</g>
<!-- Node33 -->
<g id="Node000033" class="node">
<title>Node33</title>
<g id="a_Node000033"><a xlink:title=" ">
<polygon fill="#e0e0e0" stroke="#999999" points="1714,-201.88 1674,-201.88 1674,-182.62 1714,-182.62 1714,-201.88"/>
<text text-anchor="middle" x="1694" y="-188.38" font-family="Helvetica,sans-Serif" font-size="10.00">ctime</text>
</a>
</g>
</g>
<!-- Node32&#45;&gt;Node33 -->
<g id="edge43_Node000032_Node000033" class="edge">
<title>Node32&#45;&gt;Node33</title>
<g id="a_edge43_Node000032_Node000033"><a xlink:title=" ">
<path fill="none" stroke="#63b8ff" d="M1694,-243.18C1694,-235.4 1694,-223.83 1694,-213.78"/>
<polygon fill="#63b8ff" stroke="#63b8ff" points="1697.5,-213.79 1694,-203.79 1690.5,-213.79 1697.5,-213.79"/>
</a>
</g>
</g>
<!-- Node34 -->
<g id="Node000034" class="node">
<title>Node34</title>
<g id="a_Node000034"><a xlink:href="JSONTags_8hpp.html" target="_top" xlink:title=" ">
<polygon fill="white" stroke="#666666" points="1656.38,-201.88 1531.62,-201.88 1531.62,-182.62 1656.38,-182.62 1656.38,-201.88"/>
<text text-anchor="middle" x="1594" y="-188.38" font-family="Helvetica,sans-Serif" font-size="10.00">opmonlib/JSONTags.hpp</text>
</a>
</g>
</g>
<!-- Node32&#45;&gt;Node34 -->
<g id="edge46_Node000032_Node000034" class="edge">
<title>Node32&#45;&gt;Node34</title>
<g id="a_edge46_Node000032_Node000034"><a xlink:title=" ">
<path fill="none" stroke="#63b8ff" d="M1678.81,-243.18C1662.95,-233.85 1637.82,-219.05 1619.02,-207.98"/>
<polygon fill="#63b8ff" stroke="#63b8ff" points="1621.03,-205.1 1610.64,-203.04 1617.48,-211.13 1621.03,-205.1"/>
</a>
</g>
</g>
</g>
</svg>
