<?xml version="1.0" encoding="UTF-8" standalone="no"?>
<!DOCTYPE svg PUBLIC "-//W3C//DTD SVG 1.1//EN"
 "http://www.w3.org/Graphics/SVG/1.1/DTD/svg11.dtd">
<!-- Generated by graphviz version 9.0.0 (20230911.1827)
 -->
<!-- Title: sourcecode/serialization/include/serialization/serialize_variant.hpp Pages: 1 -->
<svg width="388pt" height="105pt"
 viewBox="0.00 0.00 387.50 105.00" xmlns="http://www.w3.org/2000/svg" xmlns:xlink="http://www.w3.org/1999/xlink">
<g id="graph0" class="graph" transform="scale(1 1) rotate(0) translate(4 101)">
<title>sourcecode/serialization/include/serialization/serialize_variant.hpp</title>
<!-- Node1 -->
<g id="Node000001" class="node">
<title>Node1</title>
<g id="a_Node000001"><a xlink:title=" ">
<polygon fill="#999999" stroke="#666666" points="293,-97 172.75,-97 172.75,-55.25 293,-55.25 293,-97"/>
<text text-anchor="start" x="180.75" y="-83.5" font-family="Helvetica,sans-Serif" font-size="10.00">sourcecode/serialization</text>
<text text-anchor="start" x="180.75" y="-72.25" font-family="Helvetica,sans-Serif" font-size="10.00">/include/serialization</text>
<text text-anchor="middle" x="232.88" y="-61" font-family="Helvetica,sans-Serif" font-size="10.00">/serialize_variant.hpp</text>
</a>
</g>
</g>
<!-- Node2 -->
<g id="Node000002" class="node">
<title>Node2</title>
<g id="a_Node000002"><a xlink:title=" ">
<polygon fill="#e0e0e0" stroke="#999999" points="73.75,-19.25 0,-19.25 0,0 73.75,0 73.75,-19.25"/>
<text text-anchor="middle" x="36.88" y="-5.75" font-family="Helvetica,sans-Serif" font-size="10.00">msgpack.hpp</text>
</a>
</g>
</g>
<!-- Node1&#45;&gt;Node2 -->
<g id="edge1_Node000001_Node000002" class="edge">
<title>Node1&#45;&gt;Node2</title>
<g id="a_edge1_Node000001_Node000002"><a xlink:title=" ">
<path fill="none" stroke="#63b8ff" d="M172.47,-55.25C140.83,-44.84 103.04,-32.4 75.4,-23.3"/>
<polygon fill="#63b8ff" stroke="#63b8ff" points="76.62,-20.02 66.03,-20.22 74.44,-26.67 76.62,-20.02"/>
</a>
</g>
</g>
<!-- Node3 -->
<g id="Node000003" class="node">
<title>Node3</title>
<g id="a_Node000003"><a xlink:title=" ">
<polygon fill="#e0e0e0" stroke="#999999" points="188.38,-19.25 91.38,-19.25 91.38,0 188.38,0 188.38,-19.25"/>
<text text-anchor="middle" x="139.88" y="-5.75" font-family="Helvetica,sans-Serif" font-size="10.00">nlohmann/json.hpp</text>
</a>
</g>
</g>
<!-- Node1&#45;&gt;Node3 -->
<g id="edge2_Node000001_Node000003" class="edge">
<title>Node1&#45;&gt;Node3</title>
<g id="a_edge2_Node000001_Node000003"><a xlink:title=" ">
<path fill="none" stroke="#63b8ff" d="M203.7,-54.89C190.25,-45.57 174.55,-34.67 162.08,-26.02"/>
<polygon fill="#63b8ff" stroke="#63b8ff" points="164.34,-23.33 154.12,-20.51 160.35,-29.08 164.34,-23.33"/>
</a>
</g>
</g>
<!-- Node4 -->
<g id="Node000004" class="node">
<title>Node4</title>
<g id="a_Node000004"><a xlink:title=" ">
<polygon fill="#e0e0e0" stroke="#999999" points="259.62,-19.25 206.12,-19.25 206.12,0 259.62,0 259.62,-19.25"/>
<text text-anchor="middle" x="232.88" y="-5.75" font-family="Helvetica,sans-Serif" font-size="10.00">iostream</text>
</a>
</g>
</g>
<!-- Node1&#45;&gt;Node4 -->
<g id="edge3_Node000001_Node000004" class="edge">
<title>Node1&#45;&gt;Node4</title>
<g id="a_edge3_Node000001_Node000004"><a xlink:title=" ">
<path fill="none" stroke="#63b8ff" d="M232.88,-55.07C232.88,-47.4 232.88,-38.64 232.88,-30.95"/>
<polygon fill="#63b8ff" stroke="#63b8ff" points="236.38,-31.21 232.88,-21.21 229.38,-31.21 236.38,-31.21"/>
</a>
</g>
</g>
<!-- Node5 -->
<g id="Node000005" class="node">
<title>Node5</title>
<g id="a_Node000005"><a xlink:title=" ">
<polygon fill="#e0e0e0" stroke="#999999" points="316.12,-19.25 277.62,-19.25 277.62,0 316.12,0 316.12,-19.25"/>
<text text-anchor="middle" x="296.88" y="-5.75" font-family="Helvetica,sans-Serif" font-size="10.00">utility</text>
</a>
</g>
</g>
<!-- Node1&#45;&gt;Node5 -->
<g id="edge4_Node000001_Node000005" class="edge">
<title>Node1&#45;&gt;Node5</title>
<g id="a_edge4_Node000001_Node000005"><a xlink:title=" ">
<path fill="none" stroke="#63b8ff" d="M252.77,-55.07C261.49,-46.29 271.61,-36.09 279.95,-27.68"/>
<polygon fill="#63b8ff" stroke="#63b8ff" points="282.25,-30.33 286.81,-20.77 277.28,-25.4 282.25,-30.33"/>
</a>
</g>
</g>
<!-- Node6 -->
<g id="Node000006" class="node">
<title>Node6</title>
<g id="a_Node000006"><a xlink:title=" ">
<polygon fill="#e0e0e0" stroke="#999999" points="379.5,-19.25 334.25,-19.25 334.25,0 379.5,0 379.5,-19.25"/>
<text text-anchor="middle" x="356.88" y="-5.75" font-family="Helvetica,sans-Serif" font-size="10.00">variant</text>
</a>
</g>
</g>
<!-- Node1&#45;&gt;Node6 -->
<g id="edge5_Node000001_Node000006" class="edge">
<title>Node1&#45;&gt;Node6</title>
<g id="a_edge5_Node000001_Node000006"><a xlink:title=" ">
<path fill="none" stroke="#63b8ff" d="M271.77,-54.89C290.59,-45.1 312.73,-33.59 329.71,-24.76"/>
<polygon fill="#63b8ff" stroke="#63b8ff" points="330.94,-28.06 338.19,-20.34 327.71,-21.85 330.94,-28.06"/>
</a>
</g>
</g>
</g>
</svg>
