<?xml version="1.0" encoding="UTF-8" standalone="no"?>
<!DOCTYPE svg PUBLIC "-//W3C//DTD SVG 1.1//EN"
 "http://www.w3.org/Graphics/SVG/1.1/DTD/svg11.dtd">
<!-- Generated by graphviz version 9.0.0 (20230911.1827)
 -->
<!-- Title: sourcecode/trigger/include/trigger/serialize.hpp Pages: 1 -->
<svg width="952pt" height="327pt"
 viewBox="0.00 0.00 951.88 327.00" xmlns="http://www.w3.org/2000/svg" xmlns:xlink="http://www.w3.org/1999/xlink">
<g id="graph0" class="graph" transform="scale(1 1) rotate(0) translate(4 323)">
<title>sourcecode/trigger/include/trigger/serialize.hpp</title>
<!-- Node1 -->
<g id="Node000001" class="node">
<title>Node1</title>
<g id="a_Node000001"><a xlink:title=" ">
<polygon fill="#999999" stroke="#666666" points="491.25,-319 355.25,-319 355.25,-288.5 491.25,-288.5 491.25,-319"/>
<text text-anchor="start" x="363.25" y="-305.5" font-family="Helvetica,sans-Serif" font-size="10.00">sourcecode/trigger</text>
<text text-anchor="middle" x="423.25" y="-294.25" font-family="Helvetica,sans-Serif" font-size="10.00">/include/trigger/serialize.hpp</text>
</a>
</g>
</g>
<!-- Node2 -->
<g id="Node000002" class="node">
<title>Node2</title>
<g id="a_Node000002"><a xlink:href="trigger_2include_2trigger_2Issues_8hpp.html" target="_top" xlink:title=" ">
<polygon fill="white" stroke="#666666" points="488.25,-252.5 358.25,-252.5 358.25,-222 488.25,-222 488.25,-252.5"/>
<text text-anchor="start" x="366.25" y="-239" font-family="Helvetica,sans-Serif" font-size="10.00">sourcecode/trigger</text>
<text text-anchor="middle" x="423.25" y="-227.75" font-family="Helvetica,sans-Serif" font-size="10.00">/include/trigger/Issues.hpp</text>
</a>
</g>
</g>
<!-- Node1&#45;&gt;Node2 -->
<g id="edge1_Node000001_Node000002" class="edge">
<title>Node1&#45;&gt;Node2</title>
<g id="a_edge1_Node000001_Node000002"><a xlink:title=" ">
<path fill="none" stroke="#63b8ff" d="M423.25,-276.81C423.25,-268.64 423.25,-259.91 423.25,-252.83"/>
<polygon fill="#63b8ff" stroke="#63b8ff" points="419.75,-276.6 423.25,-286.6 426.75,-276.6 419.75,-276.6"/>
</a>
</g>
</g>
<!-- Node3 -->
<g id="Node000003" class="node">
<title>Node3</title>
<g id="a_Node000003"><a xlink:href="AlgorithmPlugins_8hpp.html" target="_top" xlink:title=" ">
<polygon fill="white" stroke="#666666" points="207.25,-186 83.25,-186 83.25,-144.25 207.25,-144.25 207.25,-186"/>
<text text-anchor="start" x="91.25" y="-172.5" font-family="Helvetica,sans-Serif" font-size="10.00">sourcecode/trigger</text>
<text text-anchor="start" x="91.25" y="-161.25" font-family="Helvetica,sans-Serif" font-size="10.00">/include/trigger/Algorithm</text>
<text text-anchor="middle" x="145.25" y="-150" font-family="Helvetica,sans-Serif" font-size="10.00">Plugins.hpp</text>
</a>
</g>
</g>
<!-- Node2&#45;&gt;Node3 -->
<g id="edge2_Node000002_Node000003" class="edge">
<title>Node2&#45;&gt;Node3</title>
<g id="a_edge2_Node000002_Node000003"><a xlink:title=" ">
<path fill="none" stroke="#63b8ff" d="M352.74,-218.76C314.17,-209.16 265.56,-197 222.25,-186 217.43,-184.78 212.45,-183.5 207.44,-182.22"/>
<polygon fill="#63b8ff" stroke="#63b8ff" points="351.84,-222.14 362.38,-221.16 353.53,-215.35 351.84,-222.14"/>
</a>
</g>
</g>
<!-- Node5 -->
<g id="Node000005" class="node">
<title>Node5</title>
<g id="a_Node000005"><a xlink:href="TPProcessor_8cpp.html" target="_top" xlink:title=" ">
<polygon fill="white" stroke="#666666" points="110.5,-102.62 0,-102.62 0,-72.12 110.5,-72.12 110.5,-102.62"/>
<text text-anchor="start" x="8" y="-89.12" font-family="Helvetica,sans-Serif" font-size="10.00">sourcecode/trigger</text>
<text text-anchor="middle" x="55.25" y="-77.88" font-family="Helvetica,sans-Serif" font-size="10.00">/src/TPProcessor.cpp</text>
</a>
</g>
</g>
<!-- Node2&#45;&gt;Node5 -->
<g id="edge16_Node000002_Node000005" class="edge">
<title>Node2&#45;&gt;Node5</title>
<g id="a_edge16_Node000002_Node000005"><a xlink:title=" ">
<path fill="none" stroke="#63b8ff" d="M346.58,-235.27C255.84,-232.44 112.25,-222.18 74.25,-186 51.61,-164.45 51.49,-124.57 53.36,-103.05"/>
<polygon fill="#63b8ff" stroke="#63b8ff" points="346.31,-238.76 356.4,-235.55 346.51,-231.76 346.31,-238.76"/>
</a>
</g>
</g>
<!-- Node6 -->
<g id="Node000006" class="node">
<title>Node6</title>
<g id="a_Node000006"><a xlink:href="TAWrapper_8hpp.html" target="_top" xlink:title=" ">
<polygon fill="white" stroke="#666666" points="414,-180.38 264.5,-180.38 264.5,-149.88 414,-149.88 414,-180.38"/>
<text text-anchor="start" x="272.5" y="-166.88" font-family="Helvetica,sans-Serif" font-size="10.00">sourcecode/trigger</text>
<text text-anchor="middle" x="339.25" y="-155.62" font-family="Helvetica,sans-Serif" font-size="10.00">/include/trigger/TAWrapper.hpp</text>
</a>
</g>
</g>
<!-- Node2&#45;&gt;Node6 -->
<g id="edge5_Node000002_Node000006" class="edge">
<title>Node2&#45;&gt;Node6</title>
<g id="a_edge5_Node000002_Node000006"><a xlink:title=" ">
<path fill="none" stroke="#63b8ff" d="M397.19,-214.49C383.99,-203.48 368.34,-190.41 356.63,-180.64"/>
<polygon fill="#63b8ff" stroke="#63b8ff" points="394.76,-217.03 404.68,-220.75 399.25,-211.65 394.76,-217.03"/>
</a>
</g>
</g>
<!-- Node7 -->
<g id="Node000007" class="node">
<title>Node7</title>
<g id="a_Node000007"><a xlink:href="TAProcessor_8hpp.html" target="_top" xlink:title=" ">
<polygon fill="white" stroke="#666666" points="306.5,-102.62 166,-102.62 166,-72.12 306.5,-72.12 306.5,-102.62"/>
<text text-anchor="start" x="174" y="-89.12" font-family="Helvetica,sans-Serif" font-size="10.00">sourcecode/trigger</text>
<text text-anchor="middle" x="236.25" y="-77.88" font-family="Helvetica,sans-Serif" font-size="10.00">/src/trigger/TAProcessor.hpp</text>
</a>
</g>
</g>
<!-- Node2&#45;&gt;Node7 -->
<g id="edge18_Node000002_Node000007" class="edge">
<title>Node2&#45;&gt;Node7</title>
<g id="a_edge18_Node000002_Node000007"><a xlink:title=" ">
<path fill="none" stroke="#63b8ff" d="M347.12,-230.77C314.48,-224.52 278.57,-211.74 255.25,-186 234.38,-162.97 233.47,-124.06 234.76,-102.99"/>
<polygon fill="#63b8ff" stroke="#63b8ff" points="346.1,-234.15 356.55,-232.4 347.29,-227.25 346.1,-234.15"/>
</a>
</g>
</g>
<!-- Node9 -->
<g id="Node000009" class="node">
<title>Node9</title>
<g id="a_Node000009"><a xlink:href="TCWrapper_8hpp.html" target="_top" xlink:title=" ">
<polygon fill="white" stroke="#666666" points="582,-180.38 432.5,-180.38 432.5,-149.88 582,-149.88 582,-180.38"/>
<text text-anchor="start" x="440.5" y="-166.88" font-family="Helvetica,sans-Serif" font-size="10.00">sourcecode/trigger</text>
<text text-anchor="middle" x="507.25" y="-155.62" font-family="Helvetica,sans-Serif" font-size="10.00">/include/trigger/TCWrapper.hpp</text>
</a>
</g>
</g>
<!-- Node2&#45;&gt;Node9 -->
<g id="edge10_Node000002_Node000009" class="edge">
<title>Node2&#45;&gt;Node9</title>
<g id="a_edge10_Node000002_Node000009"><a xlink:title=" ">
<path fill="none" stroke="#63b8ff" d="M449.31,-214.49C462.51,-203.48 478.16,-190.41 489.87,-180.64"/>
<polygon fill="#63b8ff" stroke="#63b8ff" points="447.25,-211.65 441.82,-220.75 451.74,-217.03 447.25,-211.65"/>
</a>
</g>
</g>
<!-- Node11 -->
<g id="Node000011" class="node">
<title>Node11</title>
<g id="a_Node000011"><a xlink:href="TCProcessor_8hpp.html" target="_top" xlink:title=" ">
<polygon fill="white" stroke="#666666" points="870.5,-102.62 730,-102.62 730,-72.12 870.5,-72.12 870.5,-102.62"/>
<text text-anchor="start" x="738" y="-89.12" font-family="Helvetica,sans-Serif" font-size="10.00">sourcecode/trigger</text>
<text text-anchor="middle" x="800.25" y="-77.88" font-family="Helvetica,sans-Serif" font-size="10.00">/src/trigger/TCProcessor.hpp</text>
</a>
</g>
</g>
<!-- Node2&#45;&gt;Node11 -->
<g id="edge19_Node000002_Node000011" class="edge">
<title>Node2&#45;&gt;Node11</title>
<g id="a_edge19_Node000002_Node000011"><a xlink:title=" ">
<path fill="none" stroke="#63b8ff" d="M499.44,-222.69C529.6,-215.04 563.59,-203.4 591.25,-186 612.49,-172.64 608.18,-157.88 629.25,-144.25 648.66,-131.7 702.78,-114.98 744.99,-103.12"/>
<polygon fill="#63b8ff" stroke="#63b8ff" points="498.89,-219.23 490,-224.98 500.54,-226.03 498.89,-219.23"/>
</a>
</g>
</g>
<!-- Node13 -->
<g id="Node000013" class="node">
<title>Node13</title>
<g id="a_Node000013"><a xlink:href="HSISourceModel_8hpp.html" target="_top" xlink:title=" ">
<polygon fill="white" stroke="#666666" points="796.12,-180.38 638.38,-180.38 638.38,-149.88 796.12,-149.88 796.12,-180.38"/>
<text text-anchor="start" x="646.38" y="-166.88" font-family="Helvetica,sans-Serif" font-size="10.00">sourcecode/trigger</text>
<text text-anchor="middle" x="717.25" y="-155.62" font-family="Helvetica,sans-Serif" font-size="10.00">/src/trigger/HSISourceModel.hpp</text>
</a>
</g>
</g>
<!-- Node2&#45;&gt;Node13 -->
<g id="edge17_Node000002_Node000013" class="edge">
<title>Node2&#45;&gt;Node13</title>
<g id="a_edge17_Node000002_Node000013"><a xlink:title=" ">
<path fill="none" stroke="#63b8ff" d="M496.04,-218.89C545.03,-207.2 608.93,-191.96 655.45,-180.87"/>
<polygon fill="#63b8ff" stroke="#63b8ff" points="495.27,-215.47 486.35,-221.2 496.89,-222.28 495.27,-215.47"/>
</a>
</g>
</g>
<!-- Node14 -->
<g id="Node000014" class="node">
<title>Node14</title>
<g id="a_Node000014"><a xlink:href="TriggerGenericMaker_8hpp.html" target="_top" xlink:title=" ">
<polygon fill="white" stroke="#666666" points="943.88,-186 814.62,-186 814.62,-144.25 943.88,-144.25 943.88,-186"/>
<text text-anchor="start" x="822.62" y="-172.5" font-family="Helvetica,sans-Serif" font-size="10.00">sourcecode/trigger</text>
<text text-anchor="start" x="822.62" y="-161.25" font-family="Helvetica,sans-Serif" font-size="10.00">/src/trigger/TriggerGeneric</text>
<text text-anchor="middle" x="879.25" y="-150" font-family="Helvetica,sans-Serif" font-size="10.00">Maker.hpp</text>
</a>
</g>
</g>
<!-- Node2&#45;&gt;Node14 -->
<g id="edge20_Node000002_Node000014" class="edge">
<title>Node2&#45;&gt;Node14</title>
<g id="a_edge20_Node000002_Node000014"><a xlink:title=" ">
<path fill="none" stroke="#63b8ff" d="M499.65,-229.19C577.12,-221.33 700.2,-206.92 805.25,-186 808.25,-185.4 811.31,-184.75 814.39,-184.06"/>
<polygon fill="#63b8ff" stroke="#63b8ff" points="499.67,-225.67 490.07,-230.15 500.37,-232.63 499.67,-225.67"/>
</a>
</g>
</g>
<!-- Node4 -->
<g id="Node000004" class="node">
<title>Node4</title>
<g id="a_Node000004"><a xlink:href="TAProcessor_8cpp.html" target="_top" xlink:title=" ">
<polygon fill="white" stroke="#666666" points="291.5,-30.5 181,-30.5 181,0 291.5,0 291.5,-30.5"/>
<text text-anchor="start" x="189" y="-17" font-family="Helvetica,sans-Serif" font-size="10.00">sourcecode/trigger</text>
<text text-anchor="middle" x="236.25" y="-5.75" font-family="Helvetica,sans-Serif" font-size="10.00">/src/TAProcessor.cpp</text>
</a>
</g>
</g>
<!-- Node3&#45;&gt;Node4 -->
<g id="edge3_Node000003_Node000004" class="edge">
<title>Node3&#45;&gt;Node4</title>
<g id="a_edge3_Node000003_Node000004"><a xlink:title=" ">
<path fill="none" stroke="#63b8ff" d="M142.51,-132.28C142.28,-111.99 144.96,-85.96 157.25,-66.5 167.23,-50.7 184.19,-38.95 199.84,-30.81"/>
<polygon fill="#63b8ff" stroke="#63b8ff" points="139.01,-132.39 142.88,-142.25 146,-132.13 139.01,-132.39"/>
</a>
</g>
</g>
<!-- Node3&#45;&gt;Node5 -->
<g id="edge4_Node000003_Node000005" class="edge">
<title>Node3&#45;&gt;Node5</title>
<g id="a_edge4_Node000003_Node000005"><a xlink:title=" ">
<path fill="none" stroke="#63b8ff" d="M112.54,-136.59C99.02,-125.21 83.9,-112.48 72.58,-102.96"/>
<polygon fill="#63b8ff" stroke="#63b8ff" points="110.07,-139.09 119.97,-142.85 114.58,-133.73 110.07,-139.09"/>
</a>
</g>
</g>
<!-- Node6&#45;&gt;Node4 -->
<g id="edge6_Node000006_Node000004" class="edge">
<title>Node6&#45;&gt;Node4</title>
<g id="a_edge6_Node000006_Node000004"><a xlink:title=" ">
<path fill="none" stroke="#63b8ff" d="M338.12,-138.2C336.04,-117.15 330.4,-87.6 315.25,-66.5 304.16,-51.05 286.7,-39.23 271.02,-30.94"/>
<polygon fill="#63b8ff" stroke="#63b8ff" points="334.61,-138.27 338.86,-147.98 341.59,-137.74 334.61,-138.27"/>
</a>
</g>
</g>
<!-- Node6&#45;&gt;Node7 -->
<g id="edge7_Node000006_Node000007" class="edge">
<title>Node6&#45;&gt;Node7</title>
<g id="a_edge7_Node000006_Node000007"><a xlink:title=" ">
<path fill="none" stroke="#63b8ff" d="M310.27,-142.81C292.96,-130.08 271.42,-114.24 256.05,-102.94"/>
<polygon fill="#63b8ff" stroke="#63b8ff" points="308.04,-145.52 318.17,-148.62 312.19,-139.88 308.04,-145.52"/>
</a>
</g>
</g>
<!-- Node8 -->
<g id="Node000008" class="node">
<title>Node8</title>
<g id="a_Node000008"><a xlink:href="TriggerSourceModel_8hpp.html" target="_top" xlink:title=" ">
<polygon fill="white" stroke="#666666" points="488.38,-108.25 362.12,-108.25 362.12,-66.5 488.38,-66.5 488.38,-108.25"/>
<text text-anchor="start" x="370.12" y="-94.75" font-family="Helvetica,sans-Serif" font-size="10.00">sourcecode/trigger</text>
<text text-anchor="start" x="370.12" y="-83.5" font-family="Helvetica,sans-Serif" font-size="10.00">/src/trigger/TriggerSource</text>
<text text-anchor="middle" x="425.25" y="-72.25" font-family="Helvetica,sans-Serif" font-size="10.00">Model.hpp</text>
</a>
</g>
</g>
<!-- Node6&#45;&gt;Node8 -->
<g id="edge9_Node000006_Node000008" class="edge">
<title>Node6&#45;&gt;Node8</title>
<g id="a_edge9_Node000006_Node000008"><a xlink:title=" ">
<path fill="none" stroke="#63b8ff" d="M364.45,-141.93C376.4,-131.41 390.56,-118.93 402.22,-108.66"/>
<polygon fill="#63b8ff" stroke="#63b8ff" points="362.16,-139.28 356.97,-148.52 366.78,-144.54 362.16,-139.28"/>
</a>
</g>
</g>
<!-- Node7&#45;&gt;Node4 -->
<g id="edge8_Node000007_Node000004" class="edge">
<title>Node7&#45;&gt;Node4</title>
<g id="a_edge8_Node000007_Node000004"><a xlink:title=" ">
<path fill="none" stroke="#63b8ff" d="M236.25,-60.4C236.25,-50.39 236.25,-39.31 236.25,-30.76"/>
<polygon fill="#63b8ff" stroke="#63b8ff" points="232.75,-60.33 236.25,-70.33 239.75,-60.33 232.75,-60.33"/>
</a>
</g>
</g>
<!-- Node9&#45;&gt;Node8 -->
<g id="edge15_Node000009_Node000008" class="edge">
<title>Node9&#45;&gt;Node8</title>
<g id="a_edge15_Node000009_Node000008"><a xlink:title=" ">
<path fill="none" stroke="#63b8ff" d="M483.22,-141.93C471.83,-131.41 458.32,-118.93 447.21,-108.66"/>
<polygon fill="#63b8ff" stroke="#63b8ff" points="480.61,-144.28 490.33,-148.49 485.36,-139.14 480.61,-144.28"/>
</a>
</g>
</g>
<!-- Node10 -->
<g id="Node000010" class="node">
<title>Node10</title>
<g id="a_Node000010"><a xlink:href="TCProcessor_8cpp.html" target="_top" xlink:title=" ">
<polygon fill="white" stroke="#666666" points="713.5,-30.5 603,-30.5 603,0 713.5,0 713.5,-30.5"/>
<text text-anchor="start" x="611" y="-17" font-family="Helvetica,sans-Serif" font-size="10.00">sourcecode/trigger</text>
<text text-anchor="middle" x="658.25" y="-5.75" font-family="Helvetica,sans-Serif" font-size="10.00">/src/TCProcessor.cpp</text>
</a>
</g>
</g>
<!-- Node9&#45;&gt;Node10 -->
<g id="edge11_Node000009_Node000010" class="edge">
<title>Node9&#45;&gt;Node10</title>
<g id="a_edge11_Node000009_Node000010"><a xlink:title=" ">
<path fill="none" stroke="#63b8ff" d="M508.54,-138.4C510.91,-116.79 517.45,-86.34 535.25,-66.5 552.73,-47.01 578.89,-34.92 602.59,-27.51"/>
<polygon fill="#63b8ff" stroke="#63b8ff" points="505.07,-137.9 507.71,-148.16 512.04,-138.49 505.07,-137.9"/>
</a>
</g>
</g>
<!-- Node9&#45;&gt;Node11 -->
<g id="edge12_Node000009_Node000011" class="edge">
<title>Node9&#45;&gt;Node11</title>
<g id="a_edge12_Node000009_Node000011"><a xlink:title=" ">
<path fill="none" stroke="#63b8ff" d="M575.03,-146.6C626.13,-133.39 695.4,-115.48 743.57,-103.03"/>
<polygon fill="#63b8ff" stroke="#63b8ff" points="574.36,-143.16 565.56,-149.05 576.11,-149.94 574.36,-143.16"/>
</a>
</g>
</g>
<!-- Node12 -->
<g id="Node000012" class="node">
<title>Node12</title>
<g id="a_Node000012"><a xlink:href="TPSetSourceModel_8hpp.html" target="_top" xlink:title=" ">
<polygon fill="white" stroke="#666666" points="712.38,-102.62 544.12,-102.62 544.12,-72.12 712.38,-72.12 712.38,-102.62"/>
<text text-anchor="start" x="552.12" y="-89.12" font-family="Helvetica,sans-Serif" font-size="10.00">sourcecode/trigger</text>
<text text-anchor="middle" x="628.25" y="-77.88" font-family="Helvetica,sans-Serif" font-size="10.00">/src/trigger/TPSetSourceModel.hpp</text>
</a>
</g>
</g>
<!-- Node9&#45;&gt;Node12 -->
<g id="edge14_Node000009_Node000012" class="edge">
<title>Node9&#45;&gt;Node12</title>
<g id="a_edge14_Node000009_Node000012"><a xlink:title=" ">
<path fill="none" stroke="#63b8ff" d="M540.17,-143.52C560.69,-130.67 586.6,-114.45 604.99,-102.94"/>
<polygon fill="#63b8ff" stroke="#63b8ff" points="538.48,-140.44 531.86,-148.72 542.2,-146.38 538.48,-140.44"/>
</a>
</g>
</g>
<!-- Node11&#45;&gt;Node10 -->
<g id="edge13_Node000011_Node000010" class="edge">
<title>Node11&#45;&gt;Node10</title>
<g id="a_edge13_Node000011_Node000010"><a xlink:title=" ">
<path fill="none" stroke="#63b8ff" d="M760.35,-66.67C737.38,-55.33 708.99,-41.31 687.98,-30.93"/>
<polygon fill="#63b8ff" stroke="#63b8ff" points="758.61,-69.71 769.13,-71 761.71,-63.44 758.61,-69.71"/>
</a>
</g>
</g>
</g>
</svg>
