<?xml version="1.0" encoding="UTF-8" standalone="no"?>
<!DOCTYPE svg PUBLIC "-//W3C//DTD SVG 1.1//EN"
 "http://www.w3.org/Graphics/SVG/1.1/DTD/svg11.dtd">
<!-- Generated by graphviz version 9.0.0 (20230911.1827)
 -->
<!-- Title: sourcecode/trigger/include/trigger/Set.hpp Pages: 1 -->
<svg width="635pt" height="249pt"
 viewBox="0.00 0.00 635.38 249.25" xmlns="http://www.w3.org/2000/svg" xmlns:xlink="http://www.w3.org/1999/xlink">
<g id="graph0" class="graph" transform="scale(1 1) rotate(0) translate(4 245.25)">
<title>sourcecode/trigger/include/trigger/Set.hpp</title>
<!-- Node1 -->
<g id="Node000001" class="node">
<title>Node1</title>
<g id="a_Node000001"><a xlink:title=" ">
<polygon fill="#999999" stroke="#666666" points="342.12,-241.25 226.38,-241.25 226.38,-210.75 342.12,-210.75 342.12,-241.25"/>
<text text-anchor="start" x="234.38" y="-227.75" font-family="Helvetica,sans-Serif" font-size="10.00">sourcecode/trigger</text>
<text text-anchor="middle" x="284.25" y="-216.5" font-family="Helvetica,sans-Serif" font-size="10.00">/include/trigger/Set.hpp</text>
</a>
</g>
</g>
<!-- Node2 -->
<g id="Node000002" class="node">
<title>Node2</title>
<g id="a_Node000002"><a xlink:href="TASet_8hpp.html" target="_top" xlink:title=" ">
<polygon fill="white" stroke="#666666" points="128.5,-169.12 0,-169.12 0,-138.62 128.5,-138.62 128.5,-169.12"/>
<text text-anchor="start" x="8" y="-155.62" font-family="Helvetica,sans-Serif" font-size="10.00">sourcecode/trigger</text>
<text text-anchor="middle" x="64.25" y="-144.38" font-family="Helvetica,sans-Serif" font-size="10.00">/include/trigger/TASet.hpp</text>
</a>
</g>
</g>
<!-- Node1&#45;&gt;Node2 -->
<g id="edge1_Node000001_Node000002" class="edge">
<title>Node1&#45;&gt;Node2</title>
<g id="a_edge1_Node000001_Node000002"><a xlink:title=" ">
<path fill="none" stroke="#63b8ff" d="M227.19,-206.81C190.83,-195.22 144.32,-180.4 110.31,-169.56"/>
<polygon fill="#63b8ff" stroke="#63b8ff" points="226.1,-210.14 236.69,-209.84 228.22,-203.47 226.1,-210.14"/>
</a>
</g>
</g>
<!-- Node3 -->
<g id="Node000003" class="node">
<title>Node3</title>
<g id="a_Node000003"><a xlink:href="TCSet_8hpp.html" target="_top" xlink:title=" ">
<polygon fill="white" stroke="#666666" points="275.5,-169.12 147,-169.12 147,-138.62 275.5,-138.62 275.5,-169.12"/>
<text text-anchor="start" x="155" y="-155.62" font-family="Helvetica,sans-Serif" font-size="10.00">sourcecode/trigger</text>
<text text-anchor="middle" x="211.25" y="-144.38" font-family="Helvetica,sans-Serif" font-size="10.00">/include/trigger/TCSet.hpp</text>
</a>
</g>
</g>
<!-- Node1&#45;&gt;Node3 -->
<g id="edge2_Node000001_Node000003" class="edge">
<title>Node1&#45;&gt;Node3</title>
<g id="a_edge2_Node000001_Node000003"><a xlink:title=" ">
<path fill="none" stroke="#63b8ff" d="M260.93,-202.6C249.61,-191.73 236.34,-178.97 226.36,-169.39"/>
<polygon fill="#63b8ff" stroke="#63b8ff" points="258.4,-205.02 268.03,-209.42 263.25,-199.97 258.4,-205.02"/>
</a>
</g>
</g>
<!-- Node4 -->
<g id="Node000004" class="node">
<title>Node4</title>
<g id="a_Node000004"><a xlink:href="TPSet_8hpp.html" target="_top" xlink:title=" ">
<polygon fill="white" stroke="#666666" points="422.5,-169.12 294,-169.12 294,-138.62 422.5,-138.62 422.5,-169.12"/>
<text text-anchor="start" x="302" y="-155.62" font-family="Helvetica,sans-Serif" font-size="10.00">sourcecode/trigger</text>
<text text-anchor="middle" x="358.25" y="-144.38" font-family="Helvetica,sans-Serif" font-size="10.00">/include/trigger/TPSet.hpp</text>
</a>
</g>
</g>
<!-- Node1&#45;&gt;Node4 -->
<g id="edge3_Node000001_Node000004" class="edge">
<title>Node1&#45;&gt;Node4</title>
<g id="a_edge3_Node000001_Node000004"><a xlink:title=" ">
<path fill="none" stroke="#63b8ff" d="M307.88,-202.6C319.36,-191.73 332.82,-178.97 342.94,-169.39"/>
<polygon fill="#63b8ff" stroke="#63b8ff" points="305.53,-200.01 300.68,-209.43 310.35,-205.09 305.53,-200.01"/>
</a>
</g>
</g>
<!-- Node10 -->
<g id="Node000010" class="node">
<title>Node10</title>
<g id="a_Node000010"><a xlink:href="TriggerGenericMaker_8hpp.html" target="_top" xlink:title=" ">
<polygon fill="white" stroke="#666666" points="569.88,-174.75 440.62,-174.75 440.62,-133 569.88,-133 569.88,-174.75"/>
<text text-anchor="start" x="448.62" y="-161.25" font-family="Helvetica,sans-Serif" font-size="10.00">sourcecode/trigger</text>
<text text-anchor="start" x="448.62" y="-150" font-family="Helvetica,sans-Serif" font-size="10.00">/src/trigger/TriggerGeneric</text>
<text text-anchor="middle" x="505.25" y="-138.75" font-family="Helvetica,sans-Serif" font-size="10.00">Maker.hpp</text>
</a>
</g>
</g>
<!-- Node1&#45;&gt;Node10 -->
<g id="edge9_Node000001_Node000010" class="edge">
<title>Node1&#45;&gt;Node10</title>
<g id="a_edge9_Node000001_Node000010"><a xlink:title=" ">
<path fill="none" stroke="#63b8ff" d="M341.5,-206.83C372.09,-197.13 409.84,-185.15 441.38,-175.14"/>
<polygon fill="#63b8ff" stroke="#63b8ff" points="340.49,-203.48 332.02,-209.84 342.61,-210.15 340.49,-203.48"/>
</a>
</g>
</g>
<!-- Node5 -->
<g id="Node000005" class="node">
<title>Node5</title>
<g id="a_Node000005"><a xlink:href="TPBundleHandler_8hpp.html" target="_top" xlink:title=" ">
<polygon fill="white" stroke="#666666" points="257.25,-97 79.25,-97 79.25,-66.5 257.25,-66.5 257.25,-97"/>
<text text-anchor="start" x="87.25" y="-83.5" font-family="Helvetica,sans-Serif" font-size="10.00">sourcecode/dfmodules</text>
<text text-anchor="middle" x="168.25" y="-72.25" font-family="Helvetica,sans-Serif" font-size="10.00">/src/dfmodules/TPBundleHandler.hpp</text>
</a>
</g>
</g>
<!-- Node4&#45;&gt;Node5 -->
<g id="edge4_Node000004_Node000005" class="edge">
<title>Node4&#45;&gt;Node5</title>
<g id="a_edge4_Node000004_Node000005"><a xlink:title=" ">
<path fill="none" stroke="#63b8ff" d="M307.75,-134.24C276.53,-122.71 237.02,-108.13 208.03,-97.43"/>
<polygon fill="#63b8ff" stroke="#63b8ff" points="306.41,-137.47 317,-137.65 308.83,-130.9 306.41,-137.47"/>
</a>
</g>
</g>
<!-- Node7 -->
<g id="Node000007" class="node">
<title>Node7</title>
<g id="a_Node000007"><a xlink:href="TPRequestHandler_8hpp.html" target="_top" xlink:title=" ">
<polygon fill="white" stroke="#666666" points="441.25,-97 275.25,-97 275.25,-66.5 441.25,-66.5 441.25,-97"/>
<text text-anchor="start" x="283.25" y="-83.5" font-family="Helvetica,sans-Serif" font-size="10.00">sourcecode/trigger</text>
<text text-anchor="middle" x="358.25" y="-72.25" font-family="Helvetica,sans-Serif" font-size="10.00">/src/trigger/TPRequestHandler.hpp</text>
</a>
</g>
</g>
<!-- Node4&#45;&gt;Node7 -->
<g id="edge6_Node000004_Node000007" class="edge">
<title>Node4&#45;&gt;Node7</title>
<g id="a_edge6_Node000004_Node000007"><a xlink:title=" ">
<path fill="none" stroke="#63b8ff" d="M358.25,-126.9C358.25,-116.89 358.25,-105.81 358.25,-97.26"/>
<polygon fill="#63b8ff" stroke="#63b8ff" points="354.75,-126.83 358.25,-136.83 361.75,-126.83 354.75,-126.83"/>
</a>
</g>
</g>
<!-- Node9 -->
<g id="Node000009" class="node">
<title>Node9</title>
<g id="a_Node000009"><a xlink:href="TPSetSourceModel_8hpp.html" target="_top" xlink:title=" ">
<polygon fill="white" stroke="#666666" points="627.38,-97 459.12,-97 459.12,-66.5 627.38,-66.5 627.38,-97"/>
<text text-anchor="start" x="467.12" y="-83.5" font-family="Helvetica,sans-Serif" font-size="10.00">sourcecode/trigger</text>
<text text-anchor="middle" x="543.25" y="-72.25" font-family="Helvetica,sans-Serif" font-size="10.00">/src/trigger/TPSetSourceModel.hpp</text>
</a>
</g>
</g>
<!-- Node4&#45;&gt;Node9 -->
<g id="edge8_Node000004_Node000009" class="edge">
<title>Node4&#45;&gt;Node9</title>
<g id="a_edge8_Node000004_Node000009"><a xlink:title=" ">
<path fill="none" stroke="#63b8ff" d="M407.42,-134.24C437.82,-122.71 476.29,-108.13 504.52,-97.43"/>
<polygon fill="#63b8ff" stroke="#63b8ff" points="406.56,-130.82 398.45,-137.64 409.04,-137.37 406.56,-130.82"/>
</a>
</g>
</g>
<!-- Node6 -->
<g id="Node000006" class="node">
<title>Node6</title>
<g id="a_Node000006"><a xlink:href="TPBundleHandler_8cpp.html" target="_top" xlink:title=" ">
<polygon fill="white" stroke="#666666" points="233.25,-30.5 103.25,-30.5 103.25,0 233.25,0 233.25,-30.5"/>
<text text-anchor="start" x="111.25" y="-17" font-family="Helvetica,sans-Serif" font-size="10.00">sourcecode/dfmodules</text>
<text text-anchor="middle" x="168.25" y="-5.75" font-family="Helvetica,sans-Serif" font-size="10.00">/src/TPBundleHandler.cpp</text>
</a>
</g>
</g>
<!-- Node5&#45;&gt;Node6 -->
<g id="edge5_Node000005_Node000006" class="edge">
<title>Node5&#45;&gt;Node6</title>
<g id="a_edge5_Node000005_Node000006"><a xlink:title=" ">
<path fill="none" stroke="#63b8ff" d="M168.25,-54.81C168.25,-46.64 168.25,-37.91 168.25,-30.83"/>
<polygon fill="#63b8ff" stroke="#63b8ff" points="164.75,-54.6 168.25,-64.6 171.75,-54.6 164.75,-54.6"/>
</a>
</g>
</g>
<!-- Node8 -->
<g id="Node000008" class="node">
<title>Node8</title>
<g id="a_Node000008"><a xlink:href="TPRequestHandler_8cpp.html" target="_top" xlink:title=" ">
<polygon fill="white" stroke="#666666" points="426.25,-30.5 290.25,-30.5 290.25,0 426.25,0 426.25,-30.5"/>
<text text-anchor="start" x="298.25" y="-17" font-family="Helvetica,sans-Serif" font-size="10.00">sourcecode/trigger</text>
<text text-anchor="middle" x="358.25" y="-5.75" font-family="Helvetica,sans-Serif" font-size="10.00">/src/TPRequestHandler.cpp</text>
</a>
</g>
</g>
<!-- Node7&#45;&gt;Node8 -->
<g id="edge7_Node000007_Node000008" class="edge">
<title>Node7&#45;&gt;Node8</title>
<g id="a_edge7_Node000007_Node000008"><a xlink:title=" ">
<path fill="none" stroke="#63b8ff" d="M358.25,-54.81C358.25,-46.64 358.25,-37.91 358.25,-30.83"/>
<polygon fill="#63b8ff" stroke="#63b8ff" points="354.75,-54.6 358.25,-64.6 361.75,-54.6 354.75,-54.6"/>
</a>
</g>
</g>
</g>
</svg>
