<?xml version="1.0" encoding="UTF-8" standalone="no"?>
<!DOCTYPE svg PUBLIC "-//W3C//DTD SVG 1.1//EN"
 "http://www.w3.org/Graphics/SVG/1.1/DTD/svg11.dtd">
<!-- Generated by graphviz version 9.0.0 (20230911.1827)
 -->
<!-- Title: sourcecode/ers/include/ers/internal/SingletonCreator.hpp Pages: 1 -->
<svg width="740pt" height="105pt"
 viewBox="0.00 0.00 739.75 105.00" xmlns="http://www.w3.org/2000/svg" xmlns:xlink="http://www.w3.org/1999/xlink">
<g id="graph0" class="graph" transform="scale(1 1) rotate(0) translate(4 101)">
<title>sourcecode/ers/include/ers/internal/SingletonCreator.hpp</title>
<!-- Node1 -->
<g id="Node000001" class="node">
<title>Node1</title>
<g id="a_Node000001"><a xlink:title=" ">
<polygon fill="#999999" stroke="#666666" points="422.62,-97 262.62,-97 262.62,-66.5 422.62,-66.5 422.62,-97"/>
<text text-anchor="start" x="270.62" y="-83.5" font-family="Helvetica,sans-Serif" font-size="10.00">sourcecode/ers/include</text>
<text text-anchor="middle" x="342.62" y="-72.25" font-family="Helvetica,sans-Serif" font-size="10.00">/ers/internal/SingletonCreator.hpp</text>
</a>
</g>
</g>
<!-- Node2 -->
<g id="Node000002" class="node">
<title>Node2</title>
<g id="a_Node000002"><a xlink:href="ers_2src_2Configuration_8cpp.html" target="_top" xlink:title=" ">
<polygon fill="white" stroke="#666666" points="99.25,-30.5 0,-30.5 0,0 99.25,0 99.25,-30.5"/>
<text text-anchor="start" x="8" y="-17" font-family="Helvetica,sans-Serif" font-size="10.00">sourcecode/ers/src</text>
<text text-anchor="middle" x="49.62" y="-5.75" font-family="Helvetica,sans-Serif" font-size="10.00">/Configuration.cpp</text>
</a>
</g>
</g>
<!-- Node1&#45;&gt;Node2 -->
<g id="edge1_Node000001_Node000002" class="edge">
<title>Node1&#45;&gt;Node2</title>
<g id="a_edge1_Node000001_Node000002"><a xlink:title=" ">
<path fill="none" stroke="#63b8ff" d="M259.83,-63.68C214.75,-54.23 158.04,-42.08 107.62,-30.5 105,-29.9 102.31,-29.27 99.59,-28.63"/>
<polygon fill="#63b8ff" stroke="#63b8ff" points="259.04,-67.09 269.54,-65.72 260.47,-60.24 259.04,-67.09"/>
</a>
</g>
</g>
<!-- Node3 -->
<g id="Node000003" class="node">
<title>Node3</title>
<g id="a_Node000003"><a xlink:href="IssueFactory_8cpp.html" target="_top" xlink:title=" ">
<polygon fill="white" stroke="#666666" points="216.25,-30.5 117,-30.5 117,0 216.25,0 216.25,-30.5"/>
<text text-anchor="start" x="125" y="-17" font-family="Helvetica,sans-Serif" font-size="10.00">sourcecode/ers/src</text>
<text text-anchor="middle" x="166.62" y="-5.75" font-family="Helvetica,sans-Serif" font-size="10.00">/IssueFactory.cpp</text>
</a>
</g>
</g>
<!-- Node1&#45;&gt;Node3 -->
<g id="edge2_Node000001_Node000003" class="edge">
<title>Node1&#45;&gt;Node3</title>
<g id="a_edge2_Node000001_Node000003"><a xlink:title=" ">
<path fill="none" stroke="#63b8ff" d="M292.22,-62.28C265.09,-52.33 232.08,-40.24 206.71,-30.94"/>
<polygon fill="#63b8ff" stroke="#63b8ff" points="290.67,-65.44 301.27,-65.59 293.08,-58.87 290.67,-65.44"/>
</a>
</g>
</g>
<!-- Node4 -->
<g id="Node000004" class="node">
<title>Node4</title>
<g id="a_Node000004"><a xlink:href="LocalStream_8cpp.html" target="_top" xlink:title=" ">
<polygon fill="white" stroke="#666666" points="333.25,-30.5 234,-30.5 234,0 333.25,0 333.25,-30.5"/>
<text text-anchor="start" x="242" y="-17" font-family="Helvetica,sans-Serif" font-size="10.00">sourcecode/ers/src</text>
<text text-anchor="middle" x="283.62" y="-5.75" font-family="Helvetica,sans-Serif" font-size="10.00">/LocalStream.cpp</text>
</a>
</g>
</g>
<!-- Node1&#45;&gt;Node4 -->
<g id="edge3_Node000001_Node000004" class="edge">
<title>Node1&#45;&gt;Node4</title>
<g id="a_edge3_Node000001_Node000004"><a xlink:title=" ">
<path fill="none" stroke="#63b8ff" d="M321.48,-57.63C313.3,-48.69 304.19,-38.74 296.96,-30.83"/>
<polygon fill="#63b8ff" stroke="#63b8ff" points="318.88,-59.98 328.22,-65 324.05,-55.26 318.88,-59.98"/>
</a>
</g>
</g>
<!-- Node5 -->
<g id="Node000005" class="node">
<title>Node5</title>
<g id="a_Node000005"><a xlink:href="StreamFactory_8cpp.html" target="_top" xlink:title=" ">
<polygon fill="white" stroke="#666666" points="452,-30.5 351.25,-30.5 351.25,0 452,0 452,-30.5"/>
<text text-anchor="start" x="359.25" y="-17" font-family="Helvetica,sans-Serif" font-size="10.00">sourcecode/ers/src</text>
<text text-anchor="middle" x="401.62" y="-5.75" font-family="Helvetica,sans-Serif" font-size="10.00">/StreamFactory.cpp</text>
</a>
</g>
</g>
<!-- Node1&#45;&gt;Node5 -->
<g id="edge4_Node000001_Node000005" class="edge">
<title>Node1&#45;&gt;Node5</title>
<g id="a_edge4_Node000001_Node000005"><a xlink:title=" ">
<path fill="none" stroke="#63b8ff" d="M363.77,-57.63C371.95,-48.69 381.06,-38.74 388.29,-30.83"/>
<polygon fill="#63b8ff" stroke="#63b8ff" points="361.2,-55.26 357.03,-65 366.37,-59.98 361.2,-55.26"/>
</a>
</g>
</g>
<!-- Node6 -->
<g id="Node000006" class="node">
<title>Node6</title>
<g id="a_Node000006"><a xlink:href="StreamManager_8cpp.html" target="_top" xlink:title=" ">
<polygon fill="white" stroke="#666666" points="575.62,-30.5 469.62,-30.5 469.62,0 575.62,0 575.62,-30.5"/>
<text text-anchor="start" x="477.62" y="-17" font-family="Helvetica,sans-Serif" font-size="10.00">sourcecode/ers/src</text>
<text text-anchor="middle" x="522.62" y="-5.75" font-family="Helvetica,sans-Serif" font-size="10.00">/StreamManager.cpp</text>
</a>
</g>
</g>
<!-- Node1&#45;&gt;Node6 -->
<g id="edge5_Node000001_Node000006" class="edge">
<title>Node1&#45;&gt;Node6</title>
<g id="a_edge5_Node000001_Node000006"><a xlink:title=" ">
<path fill="none" stroke="#63b8ff" d="M394.17,-62.28C421.93,-52.33 455.69,-40.24 481.63,-30.94"/>
<polygon fill="#63b8ff" stroke="#63b8ff" points="393.13,-58.94 384.89,-65.6 395.49,-65.52 393.13,-58.94"/>
</a>
</g>
</g>
<!-- Node7 -->
<g id="Node000007" class="node">
<title>Node7</title>
<g id="a_Node000007"><a xlink:href="oksdbinterfaces_2src_2Configuration_8cpp.html" target="_top" xlink:title=" ">
<polygon fill="white" stroke="#666666" points="731.75,-30.5 593.5,-30.5 593.5,0 731.75,0 731.75,-30.5"/>
<text text-anchor="start" x="601.5" y="-17" font-family="Helvetica,sans-Serif" font-size="10.00">sourcecode/oksdbinterfaces</text>
<text text-anchor="middle" x="662.62" y="-5.75" font-family="Helvetica,sans-Serif" font-size="10.00">/src/Configuration.cpp</text>
</a>
</g>
</g>
<!-- Node1&#45;&gt;Node7 -->
<g id="edge6_Node000001_Node000007" class="edge">
<title>Node1&#45;&gt;Node7</title>
<g id="a_edge6_Node000001_Node000007"><a xlink:title=" ">
<path fill="none" stroke="#63b8ff" d="M426.82,-63.78C478.68,-53.33 544.35,-40.09 593.22,-30.24"/>
<polygon fill="#63b8ff" stroke="#63b8ff" points="426.23,-60.33 417.12,-65.73 427.62,-67.19 426.23,-60.33"/>
</a>
</g>
</g>
</g>
</svg>
