<?xml version="1.0" encoding="UTF-8" standalone="no"?>
<!DOCTYPE svg PUBLIC "-//W3C//DTD SVG 1.1//EN"
 "http://www.w3.org/Graphics/SVG/1.1/DTD/svg11.dtd">
<!-- Generated by graphviz version 9.0.0 (20230911.1827)
 -->
<!-- Title: sourcecode/readoutlibs/include/readoutlibs/models/SkipListLatencyBufferModel.hpp Pages: 1 -->
<svg width="316pt" height="261pt"
 viewBox="0.00 0.00 316.00 260.50" xmlns="http://www.w3.org/2000/svg" xmlns:xlink="http://www.w3.org/1999/xlink">
<g id="graph0" class="graph" transform="scale(1 1) rotate(0) translate(4 256.5)">
<title>sourcecode/readoutlibs/include/readoutlibs/models/SkipListLatencyBufferModel.hpp</title>
<!-- Node1 -->
<g id="Node000001" class="node">
<title>Node1</title>
<g id="a_Node000001"><a xlink:title=" ">
<polygon fill="#999999" stroke="#666666" points="247.38,-252.5 88.12,-252.5 88.12,-210.75 247.38,-210.75 247.38,-252.5"/>
<text text-anchor="start" x="96.12" y="-239" font-family="Helvetica,sans-Serif" font-size="10.00">sourcecode/readoutlibs</text>
<text text-anchor="start" x="96.12" y="-227.75" font-family="Helvetica,sans-Serif" font-size="10.00">/include/readoutlibs/models</text>
<text text-anchor="middle" x="167.75" y="-216.5" font-family="Helvetica,sans-Serif" font-size="10.00">/SkipListLatencyBufferModel.hpp</text>
</a>
</g>
</g>
<!-- Node2 -->
<g id="Node000002" class="node">
<title>Node2</title>
<g id="a_Node000002"><a xlink:href="DefaultSkipListRequestHandler_8hpp.html" target="_top" xlink:title=" ">
<polygon fill="white" stroke="#666666" points="173.5,-174.75 0,-174.75 0,-133 173.5,-133 173.5,-174.75"/>
<text text-anchor="start" x="8" y="-161.25" font-family="Helvetica,sans-Serif" font-size="10.00">sourcecode/readoutlibs</text>
<text text-anchor="start" x="8" y="-150" font-family="Helvetica,sans-Serif" font-size="10.00">/include/readoutlibs/models</text>
<text text-anchor="middle" x="86.75" y="-138.75" font-family="Helvetica,sans-Serif" font-size="10.00">/DefaultSkipListRequestHandler.hpp</text>
</a>
</g>
</g>
<!-- Node1&#45;&gt;Node2 -->
<g id="edge1_Node000001_Node000002" class="edge">
<title>Node1&#45;&gt;Node2</title>
<g id="a_edge1_Node000001_Node000002"><a xlink:title=" ">
<path fill="none" stroke="#63b8ff" d="M137.8,-202.61C128.09,-193.53 117.51,-183.64 108.52,-175.23"/>
<polygon fill="#63b8ff" stroke="#63b8ff" points="135.24,-205.02 144.94,-209.29 140.02,-199.9 135.24,-205.02"/>
</a>
</g>
</g>
<!-- Node5 -->
<g id="Node000005" class="node">
<title>Node5</title>
<g id="a_Node000005"><a xlink:href="Readoutlibs_8cpp.html" target="_top" xlink:title=" ">
<polygon fill="white" stroke="#666666" points="308,-169.12 191.5,-169.12 191.5,-138.62 308,-138.62 308,-169.12"/>
<text text-anchor="start" x="199.5" y="-155.62" font-family="Helvetica,sans-Serif" font-size="10.00">sourcecode/readoutlibs</text>
<text text-anchor="middle" x="249.75" y="-144.38" font-family="Helvetica,sans-Serif" font-size="10.00">/src/Readoutlibs.cpp</text>
</a>
</g>
</g>
<!-- Node1&#45;&gt;Node5 -->
<g id="edge4_Node000001_Node000005" class="edge">
<title>Node1&#45;&gt;Node5</title>
<g id="a_edge4_Node000001_Node000005"><a xlink:title=" ">
<path fill="none" stroke="#63b8ff" d="M197.91,-202.76C210.14,-191.47 223.75,-178.89 233.96,-169.46"/>
<polygon fill="#63b8ff" stroke="#63b8ff" points="195.81,-199.94 190.84,-209.3 200.56,-205.08 195.81,-199.94"/>
</a>
</g>
</g>
<!-- Node3 -->
<g id="Node000003" class="node">
<title>Node3</title>
<g id="a_Node000003"><a xlink:href="TPRequestHandler_8hpp.html" target="_top" xlink:title=" ">
<polygon fill="white" stroke="#666666" points="169.75,-97 3.75,-97 3.75,-66.5 169.75,-66.5 169.75,-97"/>
<text text-anchor="start" x="11.75" y="-83.5" font-family="Helvetica,sans-Serif" font-size="10.00">sourcecode/trigger</text>
<text text-anchor="middle" x="86.75" y="-72.25" font-family="Helvetica,sans-Serif" font-size="10.00">/src/trigger/TPRequestHandler.hpp</text>
</a>
</g>
</g>
<!-- Node2&#45;&gt;Node3 -->
<g id="edge2_Node000002_Node000003" class="edge">
<title>Node2&#45;&gt;Node3</title>
<g id="a_edge2_Node000002_Node000003"><a xlink:title=" ">
<path fill="none" stroke="#63b8ff" d="M86.75,-121.13C86.75,-112.77 86.75,-104.15 86.75,-97.2"/>
<polygon fill="#63b8ff" stroke="#63b8ff" points="83.25,-121.08 86.75,-131.08 90.25,-121.08 83.25,-121.08"/>
</a>
</g>
</g>
<!-- Node4 -->
<g id="Node000004" class="node">
<title>Node4</title>
<g id="a_Node000004"><a xlink:href="TPRequestHandler_8cpp.html" target="_top" xlink:title=" ">
<polygon fill="white" stroke="#666666" points="154.75,-30.5 18.75,-30.5 18.75,0 154.75,0 154.75,-30.5"/>
<text text-anchor="start" x="26.75" y="-17" font-family="Helvetica,sans-Serif" font-size="10.00">sourcecode/trigger</text>
<text text-anchor="middle" x="86.75" y="-5.75" font-family="Helvetica,sans-Serif" font-size="10.00">/src/TPRequestHandler.cpp</text>
</a>
</g>
</g>
<!-- Node3&#45;&gt;Node4 -->
<g id="edge3_Node000003_Node000004" class="edge">
<title>Node3&#45;&gt;Node4</title>
<g id="a_edge3_Node000003_Node000004"><a xlink:title=" ">
<path fill="none" stroke="#63b8ff" d="M86.75,-54.81C86.75,-46.64 86.75,-37.91 86.75,-30.83"/>
<polygon fill="#63b8ff" stroke="#63b8ff" points="83.25,-54.6 86.75,-64.6 90.25,-54.6 83.25,-54.6"/>
</a>
</g>
</g>
</g>
</svg>
