<?xml version="1.0" encoding="UTF-8" standalone="no"?>
<!DOCTYPE svg PUBLIC "-//W3C//DTD SVG 1.1//EN"
 "http://www.w3.org/Graphics/SVG/1.1/DTD/svg11.dtd">
<!-- Generated by graphviz version 9.0.0 (20230911.1827)
 -->
<!-- Title: sourcecode/dbe/include/dbe/Sorting.hpp Pages: 1 -->
<svg width="403pt" height="116pt"
 viewBox="0.00 0.00 402.50 116.25" xmlns="http://www.w3.org/2000/svg" xmlns:xlink="http://www.w3.org/1999/xlink">
<g id="graph0" class="graph" transform="scale(1 1) rotate(0) translate(4 112.25)">
<title>sourcecode/dbe/include/dbe/Sorting.hpp</title>
<!-- Node1 -->
<g id="Node000001" class="node">
<title>Node1</title>
<g id="a_Node000001"><a xlink:title=" ">
<polygon fill="#999999" stroke="#666666" points="258.38,-108.25 139.62,-108.25 139.62,-77.75 258.38,-77.75 258.38,-108.25"/>
<text text-anchor="start" x="147.62" y="-94.75" font-family="Helvetica,sans-Serif" font-size="10.00">sourcecode/dbe/include</text>
<text text-anchor="middle" x="199" y="-83.5" font-family="Helvetica,sans-Serif" font-size="10.00">/dbe/Sorting.hpp</text>
</a>
</g>
</g>
<!-- Node2 -->
<g id="Node000002" class="node">
<title>Node2</title>
<g id="a_Node000002"><a xlink:href="confaccessor_8cpp.html" target="_top" xlink:title=" ">
<polygon fill="white" stroke="#666666" points="130,-36.12 0,-36.12 0,-5.62 130,-5.62 130,-36.12"/>
<text text-anchor="start" x="8" y="-22.62" font-family="Helvetica,sans-Serif" font-size="10.00">sourcecode/dbe/src</text>
<text text-anchor="middle" x="65" y="-11.38" font-family="Helvetica,sans-Serif" font-size="10.00">/internal/confaccessor.cpp</text>
</a>
</g>
</g>
<!-- Node1&#45;&gt;Node2 -->
<g id="edge1_Node000001_Node000002" class="edge">
<title>Node1&#45;&gt;Node2</title>
<g id="a_edge1_Node000001_Node000002"><a xlink:title=" ">
<path fill="none" stroke="#63b8ff" d="M160.76,-71.99C139.19,-60.7 112.7,-46.84 93.05,-36.56"/>
<polygon fill="#63b8ff" stroke="#63b8ff" points="159.09,-75.06 169.57,-76.6 162.33,-68.86 159.09,-75.06"/>
</a>
</g>
</g>
<!-- Node3 -->
<g id="Node000003" class="node">
<title>Node3</title>
<g id="a_Node000003"><a xlink:href="config__api__info_8cpp.html" target="_top" xlink:title=" ">
<polygon fill="white" stroke="#666666" points="249.75,-41.75 148.25,-41.75 148.25,0 249.75,0 249.75,-41.75"/>
<text text-anchor="start" x="156.25" y="-28.25" font-family="Helvetica,sans-Serif" font-size="10.00">sourcecode/dbe/src</text>
<text text-anchor="start" x="156.25" y="-17" font-family="Helvetica,sans-Serif" font-size="10.00">/internal/config_api</text>
<text text-anchor="middle" x="199" y="-5.75" font-family="Helvetica,sans-Serif" font-size="10.00">_info.cpp</text>
</a>
</g>
</g>
<!-- Node1&#45;&gt;Node3 -->
<g id="edge2_Node000001_Node000003" class="edge">
<title>Node1&#45;&gt;Node3</title>
<g id="a_edge2_Node000001_Node000003"><a xlink:title=" ">
<path fill="none" stroke="#63b8ff" d="M199,-66.22C199,-58.31 199,-49.73 199,-42.24"/>
<polygon fill="#63b8ff" stroke="#63b8ff" points="195.5,-65.96 199,-75.96 202.5,-65.96 195.5,-65.96"/>
</a>
</g>
</g>
<!-- Node4 -->
<g id="Node000004" class="node">
<title>Node4</title>
<g id="a_Node000004"><a xlink:href="ObjectEditor_8cpp.html" target="_top" xlink:title=" ">
<polygon fill="white" stroke="#666666" points="394.5,-36.12 267.5,-36.12 267.5,-5.62 394.5,-5.62 394.5,-36.12"/>
<text text-anchor="start" x="275.5" y="-22.62" font-family="Helvetica,sans-Serif" font-size="10.00">sourcecode/dbe/src</text>
<text text-anchor="middle" x="331" y="-11.38" font-family="Helvetica,sans-Serif" font-size="10.00">/widgets/ObjectEditor.cpp</text>
</a>
</g>
</g>
<!-- Node1&#45;&gt;Node4 -->
<g id="edge3_Node000001_Node000004" class="edge">
<title>Node1&#45;&gt;Node4</title>
<g id="a_edge3_Node000001_Node000004"><a xlink:title=" ">
<path fill="none" stroke="#63b8ff" d="M236.67,-71.99C257.92,-60.7 284.01,-46.84 303.36,-36.56"/>
<polygon fill="#63b8ff" stroke="#63b8ff" points="235.2,-68.81 228.01,-76.59 238.48,-74.99 235.2,-68.81"/>
</a>
</g>
</g>
</g>
</svg>
