<?xml version="1.0" encoding="UTF-8" standalone="no"?>
<!DOCTYPE svg PUBLIC "-//W3C//DTD SVG 1.1//EN"
 "http://www.w3.org/Graphics/SVG/1.1/DTD/svg11.dtd">
<!-- Generated by graphviz version 9.0.0 (20230911.1827)
 -->
<!-- Title: sourcecode/dfmessages/include/dfmessages/SourceID_serialization.hpp Pages: 1 -->
<svg width="1542pt" height="572pt"
 viewBox="0.00 0.00 1542.38 571.50" xmlns="http://www.w3.org/2000/svg" xmlns:xlink="http://www.w3.org/1999/xlink">
<g id="graph0" class="graph" transform="scale(1 1) rotate(0) translate(4 567.5)">
<title>sourcecode/dfmessages/include/dfmessages/SourceID_serialization.hpp</title>
<!-- Node1 -->
<g id="Node000001" class="node">
<title>Node1</title>
<g id="a_Node000001"><a xlink:title=" ">
<polygon fill="#999999" stroke="#666666" points="1305.88,-563.5 1156.38,-563.5 1156.38,-521.75 1305.88,-521.75 1305.88,-563.5"/>
<text text-anchor="start" x="1164.38" y="-550" font-family="Helvetica,sans-Serif" font-size="10.00">sourcecode/dfmessages</text>
<text text-anchor="start" x="1164.38" y="-538.75" font-family="Helvetica,sans-Serif" font-size="10.00">/include/dfmessages/SourceID</text>
<text text-anchor="middle" x="1231.12" y="-527.5" font-family="Helvetica,sans-Serif" font-size="10.00">_serialization.hpp</text>
</a>
</g>
</g>
<!-- Node2 -->
<g id="Node000002" class="node">
<title>Node2</title>
<g id="a_Node000002"><a xlink:href="ComponentRequest__serialization_8hpp.html" target="_top" xlink:title=" ">
<polygon fill="white" stroke="#666666" points="1203.38,-485.75 1044.88,-485.75 1044.88,-444 1203.38,-444 1203.38,-485.75"/>
<text text-anchor="start" x="1052.88" y="-472.25" font-family="Helvetica,sans-Serif" font-size="10.00">sourcecode/dfmessages</text>
<text text-anchor="start" x="1052.88" y="-461" font-family="Helvetica,sans-Serif" font-size="10.00">/include/dfmessages/Component</text>
<text text-anchor="middle" x="1124.12" y="-449.75" font-family="Helvetica,sans-Serif" font-size="10.00">Request_serialization.hpp</text>
</a>
</g>
</g>
<!-- Node1&#45;&gt;Node2 -->
<g id="edge1_Node000001_Node000002" class="edge">
<title>Node1&#45;&gt;Node2</title>
<g id="a_edge1_Node000001_Node000002"><a xlink:title=" ">
<path fill="none" stroke="#63b8ff" d="M1193.11,-514.71C1179.87,-505.34 1165.24,-494.98 1152.88,-486.23"/>
<polygon fill="#63b8ff" stroke="#63b8ff" points="1191.03,-517.53 1201.22,-520.45 1195.08,-511.82 1191.03,-517.53"/>
</a>
</g>
</g>
<!-- Node20 -->
<g id="Node000020" class="node">
<title>Node20</title>
<g id="a_Node000020"><a xlink:href="Serialization_8cpp.html" target="_top" xlink:title=" ">
<polygon fill="white" stroke="#666666" points="1334.38,-402.38 1211.88,-402.38 1211.88,-371.88 1334.38,-371.88 1334.38,-402.38"/>
<text text-anchor="start" x="1219.88" y="-388.88" font-family="Helvetica,sans-Serif" font-size="10.00">sourcecode/dfmessages</text>
<text text-anchor="middle" x="1273.12" y="-377.62" font-family="Helvetica,sans-Serif" font-size="10.00">/src/Serialization.cpp</text>
</a>
</g>
</g>
<!-- Node1&#45;&gt;Node20 -->
<g id="edge26_Node000001_Node000020" class="edge">
<title>Node1&#45;&gt;Node20</title>
<g id="a_edge26_Node000001_Node000020"><a xlink:title=" ">
<path fill="none" stroke="#63b8ff" d="M1235.6,-510.32C1238.76,-490.98 1243.59,-465.78 1250.12,-444 1254.46,-429.53 1261.2,-413.66 1266.26,-402.54"/>
<polygon fill="#63b8ff" stroke="#63b8ff" points="1232.16,-509.61 1234.08,-520.03 1239.08,-510.69 1232.16,-509.61"/>
</a>
</g>
</g>
<!-- Node21 -->
<g id="Node000021" class="node">
<title>Node21</title>
<g id="a_Node000021"><a xlink:href="TASet_8hpp.html" target="_top" xlink:title=" ">
<polygon fill="white" stroke="#666666" points="1387.38,-480.12 1258.88,-480.12 1258.88,-449.62 1387.38,-449.62 1387.38,-480.12"/>
<text text-anchor="start" x="1266.88" y="-466.62" font-family="Helvetica,sans-Serif" font-size="10.00">sourcecode/trigger</text>
<text text-anchor="middle" x="1323.12" y="-455.38" font-family="Helvetica,sans-Serif" font-size="10.00">/include/trigger/TASet.hpp</text>
</a>
</g>
</g>
<!-- Node1&#45;&gt;Node21 -->
<g id="edge27_Node000001_Node000021" class="edge">
<title>Node1&#45;&gt;Node21</title>
<g id="a_edge27_Node000001_Node000021"><a xlink:title=" ">
<path fill="none" stroke="#63b8ff" d="M1264.57,-514.09C1278.39,-502.71 1293.84,-489.98 1305.41,-480.46"/>
<polygon fill="#63b8ff" stroke="#63b8ff" points="1262.44,-511.3 1256.95,-520.36 1266.89,-516.71 1262.44,-511.3"/>
</a>
</g>
</g>
<!-- Node22 -->
<g id="Node000022" class="node">
<title>Node22</title>
<g id="a_Node000022"><a xlink:href="TCSet_8hpp.html" target="_top" xlink:title=" ">
<polygon fill="white" stroke="#666666" points="1534.38,-480.12 1405.88,-480.12 1405.88,-449.62 1534.38,-449.62 1534.38,-480.12"/>
<text text-anchor="start" x="1413.88" y="-466.62" font-family="Helvetica,sans-Serif" font-size="10.00">sourcecode/trigger</text>
<text text-anchor="middle" x="1470.12" y="-455.38" font-family="Helvetica,sans-Serif" font-size="10.00">/include/trigger/TCSet.hpp</text>
</a>
</g>
</g>
<!-- Node1&#45;&gt;Node22 -->
<g id="edge28_Node000001_Node000022" class="edge">
<title>Node1&#45;&gt;Node22</title>
<g id="a_edge28_Node000001_Node000022"><a xlink:title=" ">
<path fill="none" stroke="#63b8ff" d="M1305.84,-517.94C1344.42,-505.72 1390.27,-491.18 1423.72,-480.58"/>
<polygon fill="#63b8ff" stroke="#63b8ff" points="1305.09,-514.51 1296.62,-520.87 1307.21,-521.18 1305.09,-514.51"/>
</a>
</g>
</g>
<!-- Node23 -->
<g id="Node000023" class="node">
<title>Node23</title>
<g id="a_Node000023"><a xlink:href="TPSet_8hpp.html" target="_top" xlink:title=" ">
<polygon fill="white" stroke="#666666" points="319.38,-480.12 190.88,-480.12 190.88,-449.62 319.38,-449.62 319.38,-480.12"/>
<text text-anchor="start" x="198.88" y="-466.62" font-family="Helvetica,sans-Serif" font-size="10.00">sourcecode/trigger</text>
<text text-anchor="middle" x="255.12" y="-455.38" font-family="Helvetica,sans-Serif" font-size="10.00">/include/trigger/TPSet.hpp</text>
</a>
</g>
</g>
<!-- Node1&#45;&gt;Node23 -->
<g id="edge29_Node000001_Node000023" class="edge">
<title>Node1&#45;&gt;Node23</title>
<g id="a_edge29_Node000001_Node000023"><a xlink:title=" ">
<path fill="none" stroke="#63b8ff" d="M1144.68,-534.92C951.81,-519.95 489.95,-484.1 319.63,-470.88"/>
<polygon fill="#63b8ff" stroke="#63b8ff" points="1144.41,-538.41 1154.65,-535.69 1144.95,-531.43 1144.41,-538.41"/>
</a>
</g>
</g>
<!-- Node3 -->
<g id="Node000003" class="node">
<title>Node3</title>
<g id="a_Node000003"><a xlink:href="DataRequest_8hpp.html" target="_top" xlink:title=" ">
<polygon fill="white" stroke="#666666" points="1014.75,-402.38 831.5,-402.38 831.5,-371.88 1014.75,-371.88 1014.75,-402.38"/>
<text text-anchor="start" x="839.5" y="-388.88" font-family="Helvetica,sans-Serif" font-size="10.00">sourcecode/dfmessages</text>
<text text-anchor="middle" x="923.12" y="-377.62" font-family="Helvetica,sans-Serif" font-size="10.00">/include/dfmessages/DataRequest.hpp</text>
</a>
</g>
</g>
<!-- Node2&#45;&gt;Node3 -->
<g id="edge2_Node000002_Node000003" class="edge">
<title>Node2&#45;&gt;Node3</title>
<g id="a_edge2_Node000002_Node000003"><a xlink:title=" ">
<path fill="none" stroke="#63b8ff" d="M1059.62,-439.56C1027.53,-427.47 989.8,-413.25 962.15,-402.83"/>
<polygon fill="#63b8ff" stroke="#63b8ff" points="1058.25,-442.79 1068.84,-443.04 1060.72,-436.24 1058.25,-442.79"/>
</a>
</g>
</g>
<!-- Node13 -->
<g id="Node000013" class="node">
<title>Node13</title>
<g id="a_Node000013"><a xlink:href="dfmessages_2include_2dfmessages_2TriggerDecision_8hpp.html" target="_top" xlink:title=" ">
<polygon fill="white" stroke="#666666" points="1193.62,-408 1054.62,-408 1054.62,-366.25 1193.62,-366.25 1193.62,-408"/>
<text text-anchor="start" x="1062.62" y="-394.5" font-family="Helvetica,sans-Serif" font-size="10.00">sourcecode/dfmessages</text>
<text text-anchor="start" x="1062.62" y="-383.25" font-family="Helvetica,sans-Serif" font-size="10.00">/include/dfmessages/Trigger</text>
<text text-anchor="middle" x="1124.12" y="-372" font-family="Helvetica,sans-Serif" font-size="10.00">Decision.hpp</text>
</a>
</g>
</g>
<!-- Node2&#45;&gt;Node13 -->
<g id="edge18_Node000002_Node000013" class="edge">
<title>Node2&#45;&gt;Node13</title>
<g id="a_edge18_Node000002_Node000013"><a xlink:title=" ">
<path fill="none" stroke="#63b8ff" d="M1124.12,-432.25C1124.12,-424.21 1124.12,-415.79 1124.12,-408.48"/>
<polygon fill="#63b8ff" stroke="#63b8ff" points="1120.63,-432.06 1124.13,-442.06 1127.63,-432.06 1120.63,-432.06"/>
</a>
</g>
</g>
<!-- Node2&#45;&gt;Node20 -->
<g id="edge25_Node000002_Node000020" class="edge">
<title>Node2&#45;&gt;Node20</title>
<g id="a_edge25_Node000002_Node000020"><a xlink:title=" ">
<path fill="none" stroke="#63b8ff" d="M1174.16,-438.44C1197.54,-426.55 1224.54,-412.82 1244.43,-402.71"/>
<polygon fill="#63b8ff" stroke="#63b8ff" points="1172.73,-435.24 1165.4,-442.89 1175.9,-441.48 1172.73,-435.24"/>
</a>
</g>
</g>
<!-- Node4 -->
<g id="Node000004" class="node">
<title>Node4</title>
<g id="a_Node000004"><a xlink:href="RequestHandlerConcept_8hpp.html" target="_top" xlink:title=" ">
<polygon fill="white" stroke="#666666" points="974.5,-330.25 831.75,-330.25 831.75,-288.5 974.5,-288.5 974.5,-330.25"/>
<text text-anchor="start" x="839.75" y="-316.75" font-family="Helvetica,sans-Serif" font-size="10.00">sourcecode/readoutlibs</text>
<text text-anchor="start" x="839.75" y="-305.5" font-family="Helvetica,sans-Serif" font-size="10.00">/include/readoutlibs/concepts</text>
<text text-anchor="middle" x="903.12" y="-294.25" font-family="Helvetica,sans-Serif" font-size="10.00">/RequestHandlerConcept.hpp</text>
</a>
</g>
</g>
<!-- Node3&#45;&gt;Node4 -->
<g id="edge3_Node000003_Node000004" class="edge">
<title>Node3&#45;&gt;Node4</title>
<g id="a_edge3_Node000003_Node000004"><a xlink:title=" ">
<path fill="none" stroke="#63b8ff" d="M916.35,-360.46C913.78,-350.74 910.9,-339.82 908.48,-330.66"/>
<polygon fill="#63b8ff" stroke="#63b8ff" points="912.95,-361.28 918.88,-370.06 919.71,-359.49 912.95,-361.28"/>
</a>
</g>
</g>
<!-- Node5 -->
<g id="Node000005" class="node">
<title>Node5</title>
<g id="a_Node000005"><a xlink:href="DefaultRequestHandlerModel_8hpp.html" target="_top" xlink:title=" ">
<polygon fill="white" stroke="#666666" points="696,-252.5 532.25,-252.5 532.25,-210.75 696,-210.75 696,-252.5"/>
<text text-anchor="start" x="540.25" y="-239" font-family="Helvetica,sans-Serif" font-size="10.00">sourcecode/readoutlibs</text>
<text text-anchor="start" x="540.25" y="-227.75" font-family="Helvetica,sans-Serif" font-size="10.00">/include/readoutlibs/models</text>
<text text-anchor="middle" x="614.12" y="-216.5" font-family="Helvetica,sans-Serif" font-size="10.00">/DefaultRequestHandlerModel.hpp</text>
</a>
</g>
</g>
<!-- Node3&#45;&gt;Node5 -->
<g id="edge16_Node000003_Node000005" class="edge">
<title>Node3&#45;&gt;Node5</title>
<g id="a_edge16_Node000003_Node000005"><a xlink:title=" ">
<path fill="none" stroke="#63b8ff" d="M883.47,-366.42C824.6,-337.18 714.65,-282.56 655.06,-252.96"/>
<polygon fill="#63b8ff" stroke="#63b8ff" points="881.63,-369.42 892.14,-370.73 884.74,-363.15 881.63,-369.42"/>
</a>
</g>
</g>
<!-- Node12 -->
<g id="Node000012" class="node">
<title>Node12</title>
<g id="a_Node000012"><a xlink:href="ReadoutModel_8hpp.html" target="_top" xlink:title=" ">
<polygon fill="white" stroke="#666666" points="1067.38,-252.5 932.88,-252.5 932.88,-210.75 1067.38,-210.75 1067.38,-252.5"/>
<text text-anchor="start" x="940.88" y="-239" font-family="Helvetica,sans-Serif" font-size="10.00">sourcecode/readoutlibs</text>
<text text-anchor="start" x="940.88" y="-227.75" font-family="Helvetica,sans-Serif" font-size="10.00">/include/readoutlibs/models</text>
<text text-anchor="middle" x="1000.12" y="-216.5" font-family="Helvetica,sans-Serif" font-size="10.00">/ReadoutModel.hpp</text>
</a>
</g>
</g>
<!-- Node3&#45;&gt;Node12 -->
<g id="edge17_Node000003_Node000012" class="edge">
<title>Node3&#45;&gt;Node12</title>
<g id="a_edge17_Node000003_Node000012"><a xlink:title=" ">
<path fill="none" stroke="#63b8ff" d="M953.79,-364.37C964.7,-355.08 976.02,-343.35 983.12,-330.25 996.32,-305.9 999.64,-273.56 1000.29,-252.92"/>
<polygon fill="#63b8ff" stroke="#63b8ff" points="951.61,-361.63 946,-370.63 955.99,-367.09 951.61,-361.63"/>
</a>
</g>
</g>
<!-- Node4&#45;&gt;Node5 -->
<g id="edge4_Node000004_Node000005" class="edge">
<title>Node4&#45;&gt;Node5</title>
<g id="a_edge4_Node000004_Node000005"><a xlink:title=" ">
<path fill="none" stroke="#63b8ff" d="M820.39,-286.69C779.89,-276.07 731.42,-263.37 691.65,-252.94"/>
<polygon fill="#63b8ff" stroke="#63b8ff" points="819.29,-290.02 829.85,-289.17 821.07,-283.25 819.29,-290.02"/>
</a>
</g>
</g>
<!-- Node10 -->
<g id="Node000010" class="node">
<title>Node10</title>
<g id="a_Node000010"><a xlink:href="Readoutlibs_8cpp.html" target="_top" xlink:title=" ">
<polygon fill="white" stroke="#666666" points="841.38,-97 724.88,-97 724.88,-66.5 841.38,-66.5 841.38,-97"/>
<text text-anchor="start" x="732.88" y="-83.5" font-family="Helvetica,sans-Serif" font-size="10.00">sourcecode/readoutlibs</text>
<text text-anchor="middle" x="783.12" y="-72.25" font-family="Helvetica,sans-Serif" font-size="10.00">/src/Readoutlibs.cpp</text>
</a>
</g>
</g>
<!-- Node4&#45;&gt;Node10 -->
<g id="edge15_Node000004_Node000010" class="edge">
<title>Node4&#45;&gt;Node10</title>
<g id="a_edge15_Node000004_Node000010"><a xlink:title=" ">
<path fill="none" stroke="#63b8ff" d="M912.22,-277.41C921.27,-239.86 930.06,-176.23 901.12,-133 887.63,-112.83 864.23,-100.73 841.81,-93.48"/>
<polygon fill="#63b8ff" stroke="#63b8ff" points="908.93,-276.15 909.82,-286.71 915.7,-277.9 908.93,-276.15"/>
</a>
</g>
</g>
<!-- Node4&#45;&gt;Node12 -->
<g id="edge13_Node000004_Node000012" class="edge">
<title>Node4&#45;&gt;Node12</title>
<g id="a_edge13_Node000004_Node000012"><a xlink:title=" ">
<path fill="none" stroke="#63b8ff" d="M937.94,-281.19C949.85,-271.89 962.96,-261.65 974.06,-252.98"/>
<polygon fill="#63b8ff" stroke="#63b8ff" points="936.04,-278.23 930.31,-287.14 940.35,-283.75 936.04,-278.23"/>
</a>
</g>
</g>
<!-- Node6 -->
<g id="Node000006" class="node">
<title>Node6</title>
<g id="a_Node000006"><a xlink:href="DefaultSkipListRequestHandler_8hpp.html" target="_top" xlink:title=" ">
<polygon fill="white" stroke="#666666" points="397.88,-174.75 224.38,-174.75 224.38,-133 397.88,-133 397.88,-174.75"/>
<text text-anchor="start" x="232.38" y="-161.25" font-family="Helvetica,sans-Serif" font-size="10.00">sourcecode/readoutlibs</text>
<text text-anchor="start" x="232.38" y="-150" font-family="Helvetica,sans-Serif" font-size="10.00">/include/readoutlibs/models</text>
<text text-anchor="middle" x="311.12" y="-138.75" font-family="Helvetica,sans-Serif" font-size="10.00">/DefaultSkipListRequestHandler.hpp</text>
</a>
</g>
</g>
<!-- Node5&#45;&gt;Node6 -->
<g id="edge5_Node000005_Node000006" class="edge">
<title>Node5&#45;&gt;Node6</title>
<g id="a_edge5_Node000005_Node000006"><a xlink:title=" ">
<path fill="none" stroke="#63b8ff" d="M521.77,-207.54C480.55,-197.23 432.4,-185.19 392.55,-175.23"/>
<polygon fill="#63b8ff" stroke="#63b8ff" points="520.91,-210.93 531.46,-209.96 522.61,-204.14 520.91,-210.93"/>
</a>
</g>
</g>
<!-- Node9 -->
<g id="Node000009" class="node">
<title>Node9</title>
<g id="a_Node000009"><a xlink:href="EmptyFragmentRequestHandlerModel_8hpp.html" target="_top" xlink:title=" ">
<polygon fill="white" stroke="#666666" points="655.75,-174.75 454.5,-174.75 454.5,-133 655.75,-133 655.75,-174.75"/>
<text text-anchor="start" x="462.5" y="-161.25" font-family="Helvetica,sans-Serif" font-size="10.00">sourcecode/readoutlibs</text>
<text text-anchor="start" x="462.5" y="-150" font-family="Helvetica,sans-Serif" font-size="10.00">/include/readoutlibs/models</text>
<text text-anchor="middle" x="555.12" y="-138.75" font-family="Helvetica,sans-Serif" font-size="10.00">/EmptyFragmentRequestHandlerModel.hpp</text>
</a>
</g>
</g>
<!-- Node5&#45;&gt;Node9 -->
<g id="edge8_Node000005_Node000009" class="edge">
<title>Node5&#45;&gt;Node9</title>
<g id="a_edge8_Node000005_Node000009"><a xlink:title=" ">
<path fill="none" stroke="#63b8ff" d="M591.45,-201.51C584.62,-192.74 577.27,-183.3 570.98,-175.23"/>
<polygon fill="#63b8ff" stroke="#63b8ff" points="588.48,-203.39 597.38,-209.13 594,-199.09 588.48,-203.39"/>
</a>
</g>
</g>
<!-- Node5&#45;&gt;Node10 -->
<g id="edge12_Node000005_Node000010" class="edge">
<title>Node5&#45;&gt;Node10</title>
<g id="a_edge12_Node000005_Node000010"><a xlink:title=" ">
<path fill="none" stroke="#63b8ff" d="M520.72,-221.09C491.78,-213.23 462.86,-199.29 445.12,-174.75 434.26,-159.71 433.01,-147.05 445.12,-133 480.53,-91.95 637.63,-83.9 724.64,-82.65"/>
<polygon fill="#63b8ff" stroke="#63b8ff" points="519.77,-224.46 530.32,-223.45 521.44,-217.67 519.77,-224.46"/>
</a>
</g>
</g>
<!-- Node11 -->
<g id="Node000011" class="node">
<title>Node11</title>
<g id="a_Node000011"><a xlink:href="ZeroCopyRecordingRequestHandlerModel_8hpp.html" target="_top" xlink:title=" ">
<polygon fill="white" stroke="#666666" points="892,-174.75 674.25,-174.75 674.25,-133 892,-133 892,-174.75"/>
<text text-anchor="start" x="682.25" y="-161.25" font-family="Helvetica,sans-Serif" font-size="10.00">sourcecode/readoutlibs</text>
<text text-anchor="start" x="682.25" y="-150" font-family="Helvetica,sans-Serif" font-size="10.00">/include/readoutlibs/models</text>
<text text-anchor="middle" x="783.12" y="-138.75" font-family="Helvetica,sans-Serif" font-size="10.00">/ZeroCopyRecordingRequestHandlerModel.hpp</text>
</a>
</g>
</g>
<!-- Node5&#45;&gt;Node11 -->
<g id="edge10_Node000005_Node000011" class="edge">
<title>Node5&#45;&gt;Node11</title>
<g id="a_edge10_Node000005_Node000011"><a xlink:title=" ">
<path fill="none" stroke="#63b8ff" d="M669.64,-205.74C691.7,-195.85 716.76,-184.62 737.71,-175.23"/>
<polygon fill="#63b8ff" stroke="#63b8ff" points="668.49,-202.42 660.8,-209.71 671.35,-208.81 668.49,-202.42"/>
</a>
</g>
</g>
<!-- Node7 -->
<g id="Node000007" class="node">
<title>Node7</title>
<g id="a_Node000007"><a xlink:href="TPRequestHandler_8hpp.html" target="_top" xlink:title=" ">
<polygon fill="white" stroke="#666666" points="337.12,-97 171.12,-97 171.12,-66.5 337.12,-66.5 337.12,-97"/>
<text text-anchor="start" x="179.12" y="-83.5" font-family="Helvetica,sans-Serif" font-size="10.00">sourcecode/trigger</text>
<text text-anchor="middle" x="254.12" y="-72.25" font-family="Helvetica,sans-Serif" font-size="10.00">/src/trigger/TPRequestHandler.hpp</text>
</a>
</g>
</g>
<!-- Node6&#45;&gt;Node7 -->
<g id="edge6_Node000006_Node000007" class="edge">
<title>Node6&#45;&gt;Node7</title>
<g id="a_edge6_Node000006_Node000007"><a xlink:title=" ">
<path fill="none" stroke="#63b8ff" d="M287.43,-123.72C279.99,-114.57 272.1,-104.87 265.87,-97.2"/>
<polygon fill="#63b8ff" stroke="#63b8ff" points="284.66,-125.87 293.68,-131.42 290.09,-121.45 284.66,-125.87"/>
</a>
</g>
</g>
<!-- Node8 -->
<g id="Node000008" class="node">
<title>Node8</title>
<g id="a_Node000008"><a xlink:href="TPRequestHandler_8cpp.html" target="_top" xlink:title=" ">
<polygon fill="white" stroke="#666666" points="322.12,-30.5 186.12,-30.5 186.12,0 322.12,0 322.12,-30.5"/>
<text text-anchor="start" x="194.12" y="-17" font-family="Helvetica,sans-Serif" font-size="10.00">sourcecode/trigger</text>
<text text-anchor="middle" x="254.12" y="-5.75" font-family="Helvetica,sans-Serif" font-size="10.00">/src/TPRequestHandler.cpp</text>
</a>
</g>
</g>
<!-- Node7&#45;&gt;Node8 -->
<g id="edge7_Node000007_Node000008" class="edge">
<title>Node7&#45;&gt;Node8</title>
<g id="a_edge7_Node000007_Node000008"><a xlink:title=" ">
<path fill="none" stroke="#63b8ff" d="M254.12,-54.81C254.12,-46.64 254.12,-37.91 254.12,-30.83"/>
<polygon fill="#63b8ff" stroke="#63b8ff" points="250.63,-54.6 254.13,-64.6 257.63,-54.6 250.63,-54.6"/>
</a>
</g>
</g>
<!-- Node9&#45;&gt;Node10 -->
<g id="edge9_Node000009_Node000010" class="edge">
<title>Node9&#45;&gt;Node10</title>
<g id="a_edge9_Node000009_Node000010"><a xlink:title=" ">
<path fill="none" stroke="#63b8ff" d="M632,-129.23C666.24,-118.7 705.51,-106.62 735.43,-97.42"/>
<polygon fill="#63b8ff" stroke="#63b8ff" points="631.05,-125.86 622.52,-132.15 633.11,-132.55 631.05,-125.86"/>
</a>
</g>
</g>
<!-- Node11&#45;&gt;Node10 -->
<g id="edge11_Node000011_Node000010" class="edge">
<title>Node11&#45;&gt;Node10</title>
<g id="a_edge11_Node000011_Node000010"><a xlink:title=" ">
<path fill="none" stroke="#63b8ff" d="M783.12,-121.13C783.12,-112.77 783.12,-104.15 783.12,-97.2"/>
<polygon fill="#63b8ff" stroke="#63b8ff" points="779.63,-121.08 783.13,-131.08 786.63,-121.08 779.63,-121.08"/>
</a>
</g>
</g>
<!-- Node12&#45;&gt;Node10 -->
<g id="edge14_Node000012_Node000010" class="edge">
<title>Node12&#45;&gt;Node10</title>
<g id="a_edge14_Node000012_Node000010"><a xlink:title=" ">
<path fill="none" stroke="#63b8ff" d="M986.29,-200.24C975.05,-178.67 957.27,-150.55 934.12,-133 907.27,-112.63 871.71,-100.27 841.85,-92.9"/>
<polygon fill="#63b8ff" stroke="#63b8ff" points="983.15,-201.78 990.75,-209.17 989.41,-198.65 983.15,-201.78"/>
</a>
</g>
</g>
<!-- Node14 -->
<g id="Node000014" class="node">
<title>Node14</title>
<g id="a_Node000014"><a xlink:href="TriggerInhibitAgent_8hpp.html" target="_top" xlink:title=" ">
<polygon fill="white" stroke="#666666" points="1352,-330.25 1212.25,-330.25 1212.25,-288.5 1352,-288.5 1352,-330.25"/>
<text text-anchor="start" x="1220.25" y="-316.75" font-family="Helvetica,sans-Serif" font-size="10.00">sourcecode/dfmodules</text>
<text text-anchor="start" x="1220.25" y="-305.5" font-family="Helvetica,sans-Serif" font-size="10.00">/src/dfmodules/TriggerInhibit</text>
<text text-anchor="middle" x="1282.12" y="-294.25" font-family="Helvetica,sans-Serif" font-size="10.00">Agent.hpp</text>
</a>
</g>
</g>
<!-- Node13&#45;&gt;Node14 -->
<g id="edge19_Node000013_Node000014" class="edge">
<title>Node13&#45;&gt;Node14</title>
<g id="a_edge19_Node000013_Node000014"><a xlink:title=" ">
<path fill="none" stroke="#63b8ff" d="M1176.59,-360.97C1197.08,-351.15 1220.26,-340.04 1239.67,-330.73"/>
<polygon fill="#63b8ff" stroke="#63b8ff" points="1175.34,-357.69 1167.83,-365.17 1178.36,-364 1175.34,-357.69"/>
</a>
</g>
</g>
<!-- Node16 -->
<g id="Node000016" class="node">
<title>Node16</title>
<g id="a_Node000016"><a xlink:href="TriggerRecordBuilderData_8hpp.html" target="_top" xlink:title=" ">
<polygon fill="white" stroke="#666666" points="1518.25,-330.25 1374,-330.25 1374,-288.5 1518.25,-288.5 1518.25,-330.25"/>
<text text-anchor="start" x="1382" y="-316.75" font-family="Helvetica,sans-Serif" font-size="10.00">sourcecode/dfmodules</text>
<text text-anchor="start" x="1382" y="-305.5" font-family="Helvetica,sans-Serif" font-size="10.00">/src/dfmodules/TriggerRecord</text>
<text text-anchor="middle" x="1446.12" y="-294.25" font-family="Helvetica,sans-Serif" font-size="10.00">BuilderData.hpp</text>
</a>
</g>
</g>
<!-- Node13&#45;&gt;Node16 -->
<g id="edge21_Node000013_Node000016" class="edge">
<title>Node13&#45;&gt;Node16</title>
<g id="a_edge21_Node000013_Node000016"><a xlink:title=" ">
<path fill="none" stroke="#63b8ff" d="M1205.08,-365.81C1275.03,-349.14 1294.38,-345.66 1361.12,-330.25 1365.26,-329.3 1369.51,-328.31 1373.79,-327.32"/>
<polygon fill="#63b8ff" stroke="#63b8ff" points="1204.27,-362.4 1195.36,-368.13 1205.9,-369.21 1204.27,-362.4"/>
</a>
</g>
</g>
<!-- Node18 -->
<g id="Node000018" class="node">
<title>Node18</title>
<g id="a_Node000018"><a xlink:href="TCProcessor_8hpp.html" target="_top" xlink:title=" ">
<polygon fill="white" stroke="#666666" points="1194.38,-324.62 1053.88,-324.62 1053.88,-294.12 1194.38,-294.12 1194.38,-324.62"/>
<text text-anchor="start" x="1061.88" y="-311.12" font-family="Helvetica,sans-Serif" font-size="10.00">sourcecode/trigger</text>
<text text-anchor="middle" x="1124.12" y="-299.88" font-family="Helvetica,sans-Serif" font-size="10.00">/src/trigger/TCProcessor.hpp</text>
</a>
</g>
</g>
<!-- Node13&#45;&gt;Node18 -->
<g id="edge23_Node000013_Node000018" class="edge">
<title>Node13&#45;&gt;Node18</title>
<g id="a_edge23_Node000013_Node000018"><a xlink:title=" ">
<path fill="none" stroke="#63b8ff" d="M1124.12,-354.56C1124.12,-344.19 1124.12,-333.17 1124.12,-324.73"/>
<polygon fill="#63b8ff" stroke="#63b8ff" points="1120.63,-354.31 1124.13,-364.31 1127.63,-354.31 1120.63,-354.31"/>
</a>
</g>
</g>
<!-- Node15 -->
<g id="Node000015" class="node">
<title>Node15</title>
<g id="a_Node000015"><a xlink:href="TriggerInhibitAgent_8cpp.html" target="_top" xlink:title=" ">
<polygon fill="white" stroke="#666666" points="1349.75,-246.88 1214.5,-246.88 1214.5,-216.38 1349.75,-216.38 1349.75,-246.88"/>
<text text-anchor="start" x="1222.5" y="-233.38" font-family="Helvetica,sans-Serif" font-size="10.00">sourcecode/dfmodules</text>
<text text-anchor="middle" x="1282.12" y="-222.12" font-family="Helvetica,sans-Serif" font-size="10.00">/src/TriggerInhibitAgent.cpp</text>
</a>
</g>
</g>
<!-- Node14&#45;&gt;Node15 -->
<g id="edge20_Node000014_Node000015" class="edge">
<title>Node14&#45;&gt;Node15</title>
<g id="a_edge20_Node000014_Node000015"><a xlink:title=" ">
<path fill="none" stroke="#63b8ff" d="M1282.12,-276.81C1282.12,-266.44 1282.12,-255.42 1282.12,-246.98"/>
<polygon fill="#63b8ff" stroke="#63b8ff" points="1278.63,-276.56 1282.13,-286.56 1285.63,-276.56 1278.63,-276.56"/>
</a>
</g>
</g>
<!-- Node17 -->
<g id="Node000017" class="node">
<title>Node17</title>
<g id="a_Node000017"><a xlink:href="TriggerRecordBuilderData_8cpp.html" target="_top" xlink:title=" ">
<polygon fill="white" stroke="#666666" points="1532.38,-246.88 1367.88,-246.88 1367.88,-216.38 1532.38,-216.38 1532.38,-246.88"/>
<text text-anchor="start" x="1375.88" y="-233.38" font-family="Helvetica,sans-Serif" font-size="10.00">sourcecode/dfmodules</text>
<text text-anchor="middle" x="1450.12" y="-222.12" font-family="Helvetica,sans-Serif" font-size="10.00">/src/TriggerRecordBuilderData.cpp</text>
</a>
</g>
</g>
<!-- Node16&#45;&gt;Node17 -->
<g id="edge22_Node000016_Node000017" class="edge">
<title>Node16&#45;&gt;Node17</title>
<g id="a_edge22_Node000016_Node000017"><a xlink:title=" ">
<path fill="none" stroke="#63b8ff" d="M1447.79,-276.81C1448.34,-266.44 1448.92,-255.42 1449.37,-246.98"/>
<polygon fill="#63b8ff" stroke="#63b8ff" points="1444.31,-276.39 1447.28,-286.56 1451.3,-276.76 1444.31,-276.39"/>
</a>
</g>
</g>
<!-- Node19 -->
<g id="Node000019" class="node">
<title>Node19</title>
<g id="a_Node000019"><a xlink:href="TCProcessor_8cpp.html" target="_top" xlink:title=" ">
<polygon fill="white" stroke="#666666" points="1196.38,-246.88 1085.88,-246.88 1085.88,-216.38 1196.38,-216.38 1196.38,-246.88"/>
<text text-anchor="start" x="1093.88" y="-233.38" font-family="Helvetica,sans-Serif" font-size="10.00">sourcecode/trigger</text>
<text text-anchor="middle" x="1141.12" y="-222.12" font-family="Helvetica,sans-Serif" font-size="10.00">/src/TCProcessor.cpp</text>
</a>
</g>
</g>
<!-- Node18&#45;&gt;Node19 -->
<g id="edge24_Node000018_Node000019" class="edge">
<title>Node18&#45;&gt;Node19</title>
<g id="a_edge24_Node000018_Node000019"><a xlink:title=" ">
<path fill="none" stroke="#63b8ff" d="M1129.88,-282.72C1132.54,-270.87 1135.6,-257.24 1137.86,-247.19"/>
<polygon fill="#63b8ff" stroke="#63b8ff" points="1126.51,-281.77 1127.73,-292.29 1133.34,-283.3 1126.51,-281.77"/>
</a>
</g>
</g>
<!-- Node23&#45;&gt;Node7 -->
<g id="edge32_Node000023_Node000007" class="edge">
<title>Node23&#45;&gt;Node7</title>
<g id="a_edge32_Node000023_Node000007"><a xlink:title=" ">
<path fill="none" stroke="#63b8ff" d="M234.97,-440.5C227.7,-430.97 220.08,-419.5 215.12,-408 197.64,-367.4 196.12,-354.58 196.12,-310.38 196.12,-310.38 196.12,-310.38 196.12,-230.62 196.12,-186.42 196.85,-173.25 215.12,-133 221.15,-119.73 231.33,-106.78 239.78,-97.36"/>
<polygon fill="#63b8ff" stroke="#63b8ff" points="232.08,-442.49 241.05,-448.12 237.55,-438.12 232.08,-442.49"/>
</a>
</g>
</g>
<!-- Node24 -->
<g id="Node000024" class="node">
<title>Node24</title>
<g id="a_Node000024"><a xlink:href="TPBundleHandler_8hpp.html" target="_top" xlink:title=" ">
<polygon fill="white" stroke="#666666" points="402.12,-402.38 224.12,-402.38 224.12,-371.88 402.12,-371.88 402.12,-402.38"/>
<text text-anchor="start" x="232.12" y="-388.88" font-family="Helvetica,sans-Serif" font-size="10.00">sourcecode/dfmodules</text>
<text text-anchor="middle" x="313.12" y="-377.62" font-family="Helvetica,sans-Serif" font-size="10.00">/src/dfmodules/TPBundleHandler.hpp</text>
</a>
</g>
</g>
<!-- Node23&#45;&gt;Node24 -->
<g id="edge30_Node000023_Node000024" class="edge">
<title>Node23&#45;&gt;Node24</title>
<g id="a_edge30_Node000023_Node000024"><a xlink:title=" ">
<path fill="none" stroke="#63b8ff" d="M273.09,-440.42C282.53,-428.09 293.8,-413.36 301.98,-402.69"/>
<polygon fill="#63b8ff" stroke="#63b8ff" points="270.53,-438 267.23,-448.07 276.09,-442.26 270.53,-438"/>
</a>
</g>
</g>
<!-- Node26 -->
<g id="Node000026" class="node">
<title>Node26</title>
<g id="a_Node000026"><a xlink:href="TPSetSourceModel_8hpp.html" target="_top" xlink:title=" ">
<polygon fill="white" stroke="#666666" points="168.25,-402.38 0,-402.38 0,-371.88 168.25,-371.88 168.25,-402.38"/>
<text text-anchor="start" x="8" y="-388.88" font-family="Helvetica,sans-Serif" font-size="10.00">sourcecode/trigger</text>
<text text-anchor="middle" x="84.12" y="-377.62" font-family="Helvetica,sans-Serif" font-size="10.00">/src/trigger/TPSetSourceModel.hpp</text>
</a>
</g>
</g>
<!-- Node23&#45;&gt;Node26 -->
<g id="edge33_Node000023_Node000026" class="edge">
<title>Node23&#45;&gt;Node26</title>
<g id="a_edge33_Node000023_Node000026"><a xlink:title=" ">
<path fill="none" stroke="#63b8ff" d="M211.78,-444.67C182.42,-431.67 144.22,-414.75 117.29,-402.81"/>
<polygon fill="#63b8ff" stroke="#63b8ff" points="210.21,-447.81 220.77,-448.66 213.05,-441.41 210.21,-447.81"/>
</a>
</g>
</g>
<!-- Node25 -->
<g id="Node000025" class="node">
<title>Node25</title>
<g id="a_Node000025"><a xlink:href="TPBundleHandler_8cpp.html" target="_top" xlink:title=" ">
<polygon fill="white" stroke="#666666" points="378.12,-324.62 248.12,-324.62 248.12,-294.12 378.12,-294.12 378.12,-324.62"/>
<text text-anchor="start" x="256.12" y="-311.12" font-family="Helvetica,sans-Serif" font-size="10.00">sourcecode/dfmodules</text>
<text text-anchor="middle" x="313.12" y="-299.88" font-family="Helvetica,sans-Serif" font-size="10.00">/src/TPBundleHandler.cpp</text>
</a>
</g>
</g>
<!-- Node24&#45;&gt;Node25 -->
<g id="edge31_Node000024_Node000025" class="edge">
<title>Node24&#45;&gt;Node25</title>
<g id="a_edge31_Node000024_Node000025"><a xlink:title=" ">
<path fill="none" stroke="#63b8ff" d="M313.12,-360.1C313.12,-348.34 313.12,-334.88 313.12,-324.94"/>
<polygon fill="#63b8ff" stroke="#63b8ff" points="309.63,-360.01 313.13,-370.01 316.63,-360.01 309.63,-360.01"/>
</a>
</g>
</g>
</g>
</svg>
