<?xml version="1.0" encoding="UTF-8" standalone="no"?>
<!DOCTYPE svg PUBLIC "-//W3C//DTD SVG 1.1//EN"
 "http://www.w3.org/Graphics/SVG/1.1/DTD/svg11.dtd">
<!-- Generated by graphviz version 9.0.0 (20230911.1827)
 -->
<!-- Title: sourcecode/readoutlibs/include/readoutlibs/concepts/SourceEmulatorConcept.hpp Pages: 1 -->
<svg width="987pt" height="160pt"
 viewBox="0.00 0.00 987.12 160.25" xmlns="http://www.w3.org/2000/svg" xmlns:xlink="http://www.w3.org/1999/xlink">
<g id="graph0" class="graph" transform="scale(1 1) rotate(0) translate(4 156.25)">
<title>sourcecode/readoutlibs/include/readoutlibs/concepts/SourceEmulatorConcept.hpp</title>
<!-- Node1 -->
<g id="Node000001" class="node">
<title>Node1</title>
<g id="a_Node000001"><a xlink:title=" ">
<polygon fill="#999999" stroke="#666666" points="658,-152.25 515.25,-152.25 515.25,-110.5 658,-110.5 658,-152.25"/>
<text text-anchor="start" x="523.25" y="-138.75" font-family="Helvetica,sans-Serif" font-size="10.00">sourcecode/readoutlibs</text>
<text text-anchor="start" x="523.25" y="-127.5" font-family="Helvetica,sans-Serif" font-size="10.00">/include/readoutlibs/concepts</text>
<text text-anchor="middle" x="586.62" y="-116.25" font-family="Helvetica,sans-Serif" font-size="10.00">/SourceEmulatorConcept.hpp</text>
</a>
</g>
</g>
<!-- Node2 -->
<g id="Node000002" class="node">
<title>Node2</title>
<g id="a_Node000002"><a xlink:href="InfoCollector_8hpp.html" target="_top" xlink:title=" ">
<polygon fill="white" stroke="#666666" points="460,-74.5 329.25,-74.5 329.25,-55.25 460,-55.25 460,-74.5"/>
<text text-anchor="middle" x="394.62" y="-61" font-family="Helvetica,sans-Serif" font-size="10.00">opmonlib/InfoCollector.hpp</text>
</a>
</g>
</g>
<!-- Node1&#45;&gt;Node2 -->
<g id="edge1_Node000001_Node000002" class="edge">
<title>Node1&#45;&gt;Node2</title>
<g id="a_edge1_Node000001_Node000002"><a xlink:title=" ">
<path fill="none" stroke="#63b8ff" d="M526.14,-110.06C495.46,-99.75 459.14,-87.55 432.45,-78.58"/>
<polygon fill="#63b8ff" stroke="#63b8ff" points="433.68,-75.3 423.09,-75.44 431.45,-81.94 433.68,-75.3"/>
</a>
</g>
</g>
<!-- Node6 -->
<g id="Node000006" class="node">
<title>Node6</title>
<g id="a_Node000006"><a xlink:title=" ">
<polygon fill="#e0e0e0" stroke="#999999" points="621.62,-19.25 581.62,-19.25 581.62,0 621.62,0 621.62,-19.25"/>
<text text-anchor="middle" x="601.62" y="-5.75" font-family="Helvetica,sans-Serif" font-size="10.00">string</text>
</a>
</g>
</g>
<!-- Node1&#45;&gt;Node6 -->
<g id="edge15_Node000001_Node000006" class="edge">
<title>Node1&#45;&gt;Node6</title>
<g id="a_edge15_Node000001_Node000006"><a xlink:title=" ">
<path fill="none" stroke="#63b8ff" d="M540.11,-110.14C515.5,-96.37 492.94,-76.8 506.62,-55.25 514,-43.64 545.68,-30.22 570.46,-21.15"/>
<polygon fill="#63b8ff" stroke="#63b8ff" points="571.57,-24.47 579.82,-17.82 569.22,-17.87 571.57,-24.47"/>
</a>
</g>
</g>
<!-- Node8 -->
<g id="Node000008" class="node">
<title>Node8</title>
<g id="a_Node000008"><a xlink:href="RateLimiter_8hpp.html" target="_top" xlink:title=" ">
<polygon fill="white" stroke="#666666" points="229.38,-74.5 73.88,-74.5 73.88,-55.25 229.38,-55.25 229.38,-74.5"/>
<text text-anchor="middle" x="151.62" y="-61" font-family="Helvetica,sans-Serif" font-size="10.00">readoutlibs/utils/RateLimiter.hpp</text>
</a>
</g>
</g>
<!-- Node1&#45;&gt;Node8 -->
<g id="edge7_Node000001_Node000008" class="edge">
<title>Node1&#45;&gt;Node8</title>
<g id="a_edge7_Node000001_Node000008"><a xlink:title=" ">
<path fill="none" stroke="#63b8ff" d="M514.79,-119.72C434.36,-107.8 304.73,-88.58 224.05,-76.61"/>
<polygon fill="#63b8ff" stroke="#63b8ff" points="224.91,-73.2 214.5,-75.2 223.88,-80.13 224.91,-73.2"/>
</a>
</g>
</g>
<!-- Node12 -->
<g id="Node000012" class="node">
<title>Node12</title>
<g id="a_Node000012"><a xlink:title=" ">
<polygon fill="#e0e0e0" stroke="#999999" points="657.25,-74.5 516,-74.5 516,-55.25 657.25,-55.25 657.25,-74.5"/>
<text text-anchor="middle" x="586.62" y="-61" font-family="Helvetica,sans-Serif" font-size="10.00">coredal/DROStreamConf.hpp</text>
</a>
</g>
</g>
<!-- Node1&#45;&gt;Node12 -->
<g id="edge12_Node000001_Node000012" class="edge">
<title>Node1&#45;&gt;Node12</title>
<g id="a_edge12_Node000001_Node000012"><a xlink:title=" ">
<path fill="none" stroke="#63b8ff" d="M586.62,-110.32C586.62,-102.65 586.62,-93.89 586.62,-86.2"/>
<polygon fill="#63b8ff" stroke="#63b8ff" points="590.13,-86.46 586.63,-76.46 583.13,-86.46 590.13,-86.46"/>
</a>
</g>
</g>
<!-- Node13 -->
<g id="Node000013" class="node">
<title>Node13</title>
<g id="a_Node000013"><a xlink:title=" ">
<polygon fill="#e0e0e0" stroke="#999999" points="865.62,-74.5 675.62,-74.5 675.62,-55.25 865.62,-55.25 865.62,-74.5"/>
<text text-anchor="middle" x="770.62" y="-61" font-family="Helvetica,sans-Serif" font-size="10.00">appdal/StreamEmulationParameters.hpp</text>
</a>
</g>
</g>
<!-- Node1&#45;&gt;Node13 -->
<g id="edge13_Node000001_Node000013" class="edge">
<title>Node1&#45;&gt;Node13</title>
<g id="a_edge13_Node000001_Node000013"><a xlink:title=" ">
<path fill="none" stroke="#63b8ff" d="M644.59,-110.06C673.95,-99.76 708.7,-87.58 734.27,-78.62"/>
<polygon fill="#63b8ff" stroke="#63b8ff" points="735.26,-81.98 743.54,-75.37 732.94,-75.37 735.26,-81.98"/>
</a>
</g>
</g>
<!-- Node14 -->
<g id="Node000014" class="node">
<title>Node14</title>
<g id="a_Node000014"><a xlink:title=" ">
<polygon fill="#e0e0e0" stroke="#999999" points="918,-74.5 883.25,-74.5 883.25,-55.25 918,-55.25 918,-74.5"/>
<text text-anchor="middle" x="900.62" y="-61" font-family="Helvetica,sans-Serif" font-size="10.00">map</text>
</a>
</g>
</g>
<!-- Node1&#45;&gt;Node14 -->
<g id="edge14_Node000001_Node000014" class="edge">
<title>Node1&#45;&gt;Node14</title>
<g id="a_edge14_Node000001_Node000014"><a xlink:title=" ">
<path fill="none" stroke="#63b8ff" d="M658.21,-119.12C714.2,-109.72 794.13,-94.98 871.86,-74.98"/>
<polygon fill="#63b8ff" stroke="#63b8ff" points="872.56,-78.41 881.35,-72.5 870.79,-71.64 872.56,-78.41"/>
</a>
</g>
</g>
<!-- Node15 -->
<g id="Node000015" class="node">
<title>Node15</title>
<g id="a_Node000015"><a xlink:title=" ">
<polygon fill="#e0e0e0" stroke="#999999" points="979.12,-74.5 936.12,-74.5 936.12,-55.25 979.12,-55.25 979.12,-74.5"/>
<text text-anchor="middle" x="957.62" y="-61" font-family="Helvetica,sans-Serif" font-size="10.00">thread</text>
</a>
</g>
</g>
<!-- Node1&#45;&gt;Node15 -->
<g id="edge16_Node000001_Node000015" class="edge">
<title>Node1&#45;&gt;Node15</title>
<g id="a_edge16_Node000001_Node000015"><a xlink:title=" ">
<path fill="none" stroke="#63b8ff" d="M658.36,-120.89C724.97,-111.57 827.06,-95.94 924.72,-74.71"/>
<polygon fill="#63b8ff" stroke="#63b8ff" points="925.19,-78.19 934.21,-72.62 923.69,-71.35 925.19,-78.19"/>
</a>
</g>
</g>
<!-- Node3 -->
<g id="Node000003" class="node">
<title>Node3</title>
<g id="a_Node000003"><a xlink:title=" ">
<polygon fill="#e0e0e0" stroke="#999999" points="350.12,-19.25 253.12,-19.25 253.12,0 350.12,0 350.12,-19.25"/>
<text text-anchor="middle" x="301.62" y="-5.75" font-family="Helvetica,sans-Serif" font-size="10.00">nlohmann/json.hpp</text>
</a>
</g>
</g>
<!-- Node2&#45;&gt;Node3 -->
<g id="edge2_Node000002_Node000003" class="edge">
<title>Node2&#45;&gt;Node3</title>
<g id="a_edge2_Node000002_Node000003"><a xlink:title=" ">
<path fill="none" stroke="#63b8ff" d="M378.85,-54.84C364.69,-46.73 343.64,-34.68 327.1,-25.21"/>
<polygon fill="#63b8ff" stroke="#63b8ff" points="329.21,-22.39 318.79,-20.45 325.73,-28.46 329.21,-22.39"/>
</a>
</g>
</g>
<!-- Node4 -->
<g id="Node000004" class="node">
<title>Node4</title>
<g id="a_Node000004"><a xlink:title=" ">
<polygon fill="#e0e0e0" stroke="#999999" points="234.62,-19.25 194.62,-19.25 194.62,0 234.62,0 234.62,-19.25"/>
<text text-anchor="middle" x="214.62" y="-5.75" font-family="Helvetica,sans-Serif" font-size="10.00">ctime</text>
</a>
</g>
</g>
<!-- Node2&#45;&gt;Node4 -->
<g id="edge3_Node000002_Node000004" class="edge">
<title>Node2&#45;&gt;Node4</title>
<g id="a_edge3_Node000002_Node000004"><a xlink:title=" ">
<path fill="none" stroke="#63b8ff" d="M364.09,-54.84C331.16,-45.1 279.01,-29.67 245.83,-19.86"/>
<polygon fill="#63b8ff" stroke="#63b8ff" points="246.97,-16.55 236.39,-17.06 244.99,-23.26 246.97,-16.55"/>
</a>
</g>
</g>
<!-- Node5 -->
<g id="Node000005" class="node">
<title>Node5</title>
<g id="a_Node000005"><a xlink:title=" ">
<polygon fill="#e0e0e0" stroke="#999999" points="421.38,-19.25 367.88,-19.25 367.88,0 421.38,0 421.38,-19.25"/>
<text text-anchor="middle" x="394.62" y="-5.75" font-family="Helvetica,sans-Serif" font-size="10.00">iostream</text>
</a>
</g>
</g>
<!-- Node2&#45;&gt;Node5 -->
<g id="edge4_Node000002_Node000005" class="edge">
<title>Node2&#45;&gt;Node5</title>
<g id="a_edge4_Node000002_Node000005"><a xlink:title=" ">
<path fill="none" stroke="#63b8ff" d="M394.62,-55.08C394.62,-48.57 394.62,-39.42 394.62,-31.12"/>
<polygon fill="#63b8ff" stroke="#63b8ff" points="398.13,-31.12 394.63,-21.12 391.13,-31.12 398.13,-31.12"/>
</a>
</g>
</g>
<!-- Node2&#45;&gt;Node6 -->
<g id="edge5_Node000002_Node000006" class="edge">
<title>Node2&#45;&gt;Node6</title>
<g id="a_edge5_Node000002_Node000006"><a xlink:title=" ">
<path fill="none" stroke="#63b8ff" d="M432.95,-54.78C466.75,-46.64 517.6,-34.13 570.43,-19.76"/>
<polygon fill="#63b8ff" stroke="#63b8ff" points="571.19,-23.18 579.92,-17.17 569.35,-16.43 571.19,-23.18"/>
</a>
</g>
</g>
<!-- Node7 -->
<g id="Node000007" class="node">
<title>Node7</title>
<g id="a_Node000007"><a xlink:href="JSONTags_8hpp.html" target="_top" xlink:title=" ">
<polygon fill="white" stroke="#666666" points="564,-19.25 439.25,-19.25 439.25,0 564,0 564,-19.25"/>
<text text-anchor="middle" x="501.62" y="-5.75" font-family="Helvetica,sans-Serif" font-size="10.00">opmonlib/JSONTags.hpp</text>
</a>
</g>
</g>
<!-- Node2&#45;&gt;Node7 -->
<g id="edge6_Node000002_Node000007" class="edge">
<title>Node2&#45;&gt;Node7</title>
<g id="a_edge6_Node000002_Node000007"><a xlink:title=" ">
<path fill="none" stroke="#63b8ff" d="M412.78,-54.84C429.3,-46.62 453.97,-34.34 473.12,-24.81"/>
<polygon fill="#63b8ff" stroke="#63b8ff" points="474.64,-27.97 482.03,-20.38 471.52,-21.7 474.64,-27.97"/>
</a>
</g>
</g>
<!-- Node8&#45;&gt;Node4 -->
<g id="edge10_Node000008_Node000004" class="edge">
<title>Node8&#45;&gt;Node4</title>
<g id="a_edge10_Node000008_Node000004"><a xlink:title=" ">
<path fill="none" stroke="#63b8ff" d="M162.31,-54.84C171.33,-47.22 184.46,-36.12 195.31,-26.95"/>
<polygon fill="#63b8ff" stroke="#63b8ff" points="197.56,-29.63 202.94,-20.5 193.04,-24.28 197.56,-29.63"/>
</a>
</g>
</g>
<!-- Node9 -->
<g id="Node000009" class="node">
<title>Node9</title>
<g id="a_Node000009"><a xlink:title=" ">
<polygon fill="#e0e0e0" stroke="#999999" points="45.25,-19.25 0,-19.25 0,0 45.25,0 45.25,-19.25"/>
<text text-anchor="middle" x="22.62" y="-5.75" font-family="Helvetica,sans-Serif" font-size="10.00">atomic</text>
</a>
</g>
</g>
<!-- Node8&#45;&gt;Node9 -->
<g id="edge8_Node000008_Node000009" class="edge">
<title>Node8&#45;&gt;Node9</title>
<g id="a_edge8_Node000008_Node000009"><a xlink:title=" ">
<path fill="none" stroke="#63b8ff" d="M129.74,-54.84C109.26,-46.39 78.41,-33.65 55.07,-24.02"/>
<polygon fill="#63b8ff" stroke="#63b8ff" points="56.59,-20.86 46.01,-20.28 53.92,-27.33 56.59,-20.86"/>
</a>
</g>
</g>
<!-- Node10 -->
<g id="Node000010" class="node">
<title>Node10</title>
<g id="a_Node000010"><a xlink:title=" ">
<polygon fill="#e0e0e0" stroke="#999999" points="108.25,-19.25 63,-19.25 63,0 108.25,0 108.25,-19.25"/>
<text text-anchor="middle" x="85.62" y="-5.75" font-family="Helvetica,sans-Serif" font-size="10.00">chrono</text>
</a>
</g>
</g>
<!-- Node8&#45;&gt;Node10 -->
<g id="edge9_Node000008_Node000010" class="edge">
<title>Node8&#45;&gt;Node10</title>
<g id="a_edge9_Node000008_Node000010"><a xlink:title=" ">
<path fill="none" stroke="#63b8ff" d="M140.43,-54.84C130.89,-47.15 116.95,-35.9 105.52,-26.68"/>
<polygon fill="#63b8ff" stroke="#63b8ff" points="107.81,-24.03 97.83,-20.48 103.42,-29.48 107.81,-24.03"/>
</a>
</g>
</g>
<!-- Node11 -->
<g id="Node000011" class="node">
<title>Node11</title>
<g id="a_Node000011"><a xlink:title=" ">
<polygon fill="#e0e0e0" stroke="#999999" points="176.5,-19.25 126.75,-19.25 126.75,0 176.5,0 176.5,-19.25"/>
<text text-anchor="middle" x="151.62" y="-5.75" font-family="Helvetica,sans-Serif" font-size="10.00">unistd.h</text>
</a>
</g>
</g>
<!-- Node8&#45;&gt;Node11 -->
<g id="edge11_Node000008_Node000011" class="edge">
<title>Node8&#45;&gt;Node11</title>
<g id="a_edge11_Node000008_Node000011"><a xlink:title=" ">
<path fill="none" stroke="#63b8ff" d="M151.62,-55.08C151.62,-48.57 151.62,-39.42 151.62,-31.12"/>
<polygon fill="#63b8ff" stroke="#63b8ff" points="155.13,-31.12 151.63,-21.12 148.13,-31.12 155.13,-31.12"/>
</a>
</g>
</g>
</g>
</svg>
