<?xml version="1.0" encoding="UTF-8" standalone="no"?>
<!DOCTYPE svg PUBLIC "-//W3C//DTD SVG 1.1//EN"
 "http://www.w3.org/Graphics/SVG/1.1/DTD/svg11.dtd">
<!-- Generated by graphviz version 9.0.0 (20230911.1827)
 -->
<!-- Title: sourcecode/timing/include/timing/SpillInterfaceNode.hpp Pages: 1 -->
<svg width="1858pt" height="459pt"
 viewBox="0.00 0.00 1858.40 459.00" xmlns="http://www.w3.org/2000/svg" xmlns:xlink="http://www.w3.org/1999/xlink">
<g id="graph0" class="graph" transform="scale(1 1) rotate(0) translate(4 455)">
<title>sourcecode/timing/include/timing/SpillInterfaceNode.hpp</title>
<!-- Node1 -->
<g id="Node000001" class="node">
<title>Node1</title>
<g id="a_Node000001"><a xlink:title=" ">
<polygon fill="#999999" stroke="#666666" points="1593.65,-451 1447.15,-451 1447.15,-420.5 1593.65,-420.5 1593.65,-451"/>
<text text-anchor="start" x="1455.15" y="-437.5" font-family="Helvetica,sans-Serif" font-size="10.00">sourcecode/timing/include</text>
<text text-anchor="middle" x="1520.4" y="-426.25" font-family="Helvetica,sans-Serif" font-size="10.00">/timing/SpillInterfaceNode.hpp</text>
</a>
</g>
</g>
<!-- Node2 -->
<g id="Node000002" class="node">
<title>Node2</title>
<g id="a_Node000002"><a xlink:href="TimestampGeneratorNode_8hpp.html" target="_top" xlink:title=" ">
<polygon fill="white" stroke="#666666" points="1280.78,-384.5 1144.03,-384.5 1144.03,-354 1280.78,-354 1280.78,-384.5"/>
<text text-anchor="start" x="1152.03" y="-371" font-family="Helvetica,sans-Serif" font-size="10.00">timing/TimestampGenerator</text>
<text text-anchor="middle" x="1212.4" y="-359.75" font-family="Helvetica,sans-Serif" font-size="10.00">Node.hpp</text>
</a>
</g>
</g>
<!-- Node1&#45;&gt;Node2 -->
<g id="edge1_Node000001_Node000002" class="edge">
<title>Node1&#45;&gt;Node2</title>
<g id="a_edge1_Node000001_Node000002"><a xlink:title=" ">
<path fill="none" stroke="#63b8ff" d="M1450.13,-420.03C1403.1,-410.19 1341.11,-397.2 1292.22,-386.97"/>
<polygon fill="#63b8ff" stroke="#63b8ff" points="1293.03,-383.56 1282.53,-384.94 1291.6,-390.41 1293.03,-383.56"/>
</a>
</g>
</g>
<!-- Node9 -->
<g id="Node000009" class="node">
<title>Node9</title>
<g id="a_Node000009"><a xlink:title=" ">
<polygon fill="#e0e0e0" stroke="#999999" points="1220.4,-74.5 1180.4,-74.5 1180.4,-55.25 1220.4,-55.25 1220.4,-74.5"/>
<text text-anchor="middle" x="1200.4" y="-61" font-family="Helvetica,sans-Serif" font-size="10.00">string</text>
</a>
</g>
</g>
<!-- Node1&#45;&gt;Node9 -->
<g id="edge60_Node000001_Node000009" class="edge">
<title>Node1&#45;&gt;Node9</title>
<g id="a_edge60_Node000001_Node000009"><a xlink:title=" ">
<path fill="none" stroke="#63b8ff" d="M1526.2,-420.12C1538.34,-387.11 1563.26,-304.95 1537.4,-243.5 1504.61,-165.57 1476.08,-150.14 1401.4,-110.5 1334.18,-74.82 1305.17,-93.59 1231.93,-76.02"/>
<polygon fill="#63b8ff" stroke="#63b8ff" points="1232.82,-72.63 1222.26,-73.53 1231.08,-79.41 1232.82,-72.63"/>
</a>
</g>
</g>
<!-- Node30 -->
<g id="Node000030" class="node">
<title>Node30</title>
<g id="a_Node000030"><a xlink:href="TimingNode_8hpp.html" target="_top" xlink:title=" ">
<polygon fill="white" stroke="#666666" points="1470.28,-318 1354.53,-318 1354.53,-298.75 1470.28,-298.75 1470.28,-318"/>
<text text-anchor="middle" x="1412.4" y="-304.5" font-family="Helvetica,sans-Serif" font-size="10.00">timing/TimingNode.hpp</text>
</a>
</g>
</g>
<!-- Node1&#45;&gt;Node30 -->
<g id="edge56_Node000001_Node000030" class="edge">
<title>Node1&#45;&gt;Node30</title>
<g id="a_edge56_Node000001_Node000030"><a xlink:title=" ">
<path fill="none" stroke="#63b8ff" d="M1508.01,-420.37C1488.06,-397.21 1448.9,-351.74 1427.4,-326.79"/>
<polygon fill="#63b8ff" stroke="#63b8ff" points="1430.27,-324.76 1421.09,-319.47 1424.97,-329.33 1430.27,-324.76"/>
</a>
</g>
</g>
<!-- Node31 -->
<g id="Node000031" class="node">
<title>Node31</title>
<g id="a_Node000031"><a xlink:title=" ">
<polygon fill="#e0e0e0" stroke="#999999" points="1346.03,-262.75 1234.78,-262.75 1234.78,-243.5 1346.03,-243.5 1346.03,-262.75"/>
<text text-anchor="middle" x="1290.4" y="-249.25" font-family="Helvetica,sans-Serif" font-size="10.00">uhal/DerivedNode.hpp</text>
</a>
</g>
</g>
<!-- Node1&#45;&gt;Node31 -->
<g id="edge59_Node000001_Node000031" class="edge">
<title>Node1&#45;&gt;Node31</title>
<g id="a_edge59_Node000001_Node000031"><a xlink:title=" ">
<path fill="none" stroke="#63b8ff" d="M1493.92,-420.15C1458.21,-399.8 1393.55,-360.58 1345.4,-318 1329.52,-303.96 1314.01,-285.36 1303.52,-271.85"/>
<polygon fill="#63b8ff" stroke="#63b8ff" points="1306.6,-270.11 1297.76,-264.26 1301.02,-274.34 1306.6,-270.11"/>
</a>
</g>
</g>
<!-- Node37 -->
<g id="Node000037" class="node">
<title>Node37</title>
<g id="a_Node000037"><a xlink:title=" ">
<polygon fill="#e0e0e0" stroke="#999999" points="1708.4,-384.5 1584.4,-384.5 1584.4,-354 1708.4,-354 1708.4,-384.5"/>
<text text-anchor="start" x="1592.4" y="-371" font-family="Helvetica,sans-Serif" font-size="10.00">timing/timingfirmwareinfo</text>
<text text-anchor="middle" x="1646.4" y="-359.75" font-family="Helvetica,sans-Serif" font-size="10.00">/InfoNljs.hpp</text>
</a>
</g>
</g>
<!-- Node1&#45;&gt;Node37 -->
<g id="edge57_Node000001_Node000037" class="edge">
<title>Node1&#45;&gt;Node37</title>
<g id="a_edge57_Node000001_Node000037"><a xlink:title=" ">
<path fill="none" stroke="#63b8ff" d="M1548.99,-420.11C1566.39,-411.21 1588.84,-399.72 1607.8,-390.01"/>
<polygon fill="#63b8ff" stroke="#63b8ff" points="1609.27,-393.19 1616.58,-385.52 1606.08,-386.96 1609.27,-393.19"/>
</a>
</g>
</g>
<!-- Node38 -->
<g id="Node000038" class="node">
<title>Node38</title>
<g id="a_Node000038"><a xlink:title=" ">
<polygon fill="#e0e0e0" stroke="#999999" points="1850.4,-384.5 1726.4,-384.5 1726.4,-354 1850.4,-354 1850.4,-384.5"/>
<text text-anchor="start" x="1734.4" y="-371" font-family="Helvetica,sans-Serif" font-size="10.00">timing/timingfirmwareinfo</text>
<text text-anchor="middle" x="1788.4" y="-359.75" font-family="Helvetica,sans-Serif" font-size="10.00">/InfoStructs.hpp</text>
</a>
</g>
</g>
<!-- Node1&#45;&gt;Node38 -->
<g id="edge58_Node000001_Node000038" class="edge">
<title>Node1&#45;&gt;Node38</title>
<g id="a_edge58_Node000001_Node000038"><a xlink:title=" ">
<path fill="none" stroke="#63b8ff" d="M1581.55,-420.03C1621.68,-410.37 1674.34,-397.7 1716.49,-387.56"/>
<polygon fill="#63b8ff" stroke="#63b8ff" points="1717.14,-391 1726.04,-385.26 1715.5,-384.19 1717.14,-391"/>
</a>
</g>
</g>
<!-- Node3 -->
<g id="Node000003" class="node">
<title>Node3</title>
<g id="a_Node000003"><a xlink:href="include_2timing_2TimingIssues_8hpp.html" target="_top" xlink:title=" ">
<polygon fill="white" stroke="#666666" points="1014.65,-318 922.15,-318 922.15,-298.75 1014.65,-298.75 1014.65,-318"/>
<text text-anchor="middle" x="968.4" y="-304.5" font-family="Helvetica,sans-Serif" font-size="10.00">TimingIssues.hpp</text>
</a>
</g>
</g>
<!-- Node2&#45;&gt;Node3 -->
<g id="edge2_Node000002_Node000003" class="edge">
<title>Node2&#45;&gt;Node3</title>
<g id="a_edge2_Node000002_Node000003"><a xlink:title=" ">
<path fill="none" stroke="#63b8ff" d="M1151.46,-353.55C1109.96,-343.53 1055.77,-330.46 1017.14,-321.13"/>
<polygon fill="#63b8ff" stroke="#63b8ff" points="1018.19,-317.79 1007.65,-318.85 1016.55,-324.59 1018.19,-317.79"/>
</a>
</g>
</g>
<!-- Node2&#45;&gt;Node9 -->
<g id="edge55_Node000002_Node000009" class="edge">
<title>Node2&#45;&gt;Node9</title>
<g id="a_edge55_Node000002_Node000009"><a xlink:title=" ">
<path fill="none" stroke="#63b8ff" d="M1143.83,-368.25C905.77,-367.35 129.4,-356.57 129.4,-254.12 129.4,-254.12 129.4,-254.12 129.4,-191.25 129.4,-151.96 132.86,-132.53 165.4,-110.5 207.94,-81.7 1038.12,-77.49 1089.4,-74.5 1116.1,-72.94 1146.37,-70.55 1168.54,-68.68"/>
<polygon fill="#63b8ff" stroke="#63b8ff" points="1168.79,-72.17 1178.45,-67.83 1168.19,-65.2 1168.79,-72.17"/>
</a>
</g>
</g>
<!-- Node13 -->
<g id="Node000013" class="node">
<title>Node13</title>
<g id="a_Node000013"><a xlink:title=" ">
<polygon fill="#e0e0e0" stroke="#999999" points="1274.03,-135.38 1228.78,-135.38 1228.78,-116.12 1274.03,-116.12 1274.03,-135.38"/>
<text text-anchor="middle" x="1251.4" y="-121.88" font-family="Helvetica,sans-Serif" font-size="10.00">chrono</text>
</a>
</g>
</g>
<!-- Node2&#45;&gt;Node13 -->
<g id="edge54_Node000002_Node000013" class="edge">
<title>Node2&#45;&gt;Node13</title>
<g id="a_edge54_Node000002_Node000013"><a xlink:title=" ">
<path fill="none" stroke="#63b8ff" d="M1212.45,-353.77C1212.84,-330.24 1215,-282.42 1225.4,-243.5 1229.92,-226.58 1236.72,-224.37 1241.4,-207.5 1247,-187.31 1249.47,-163.4 1250.56,-146.87"/>
<polygon fill="#63b8ff" stroke="#63b8ff" points="1254.05,-147.08 1251.08,-136.91 1247.06,-146.71 1254.05,-147.08"/>
</a>
</g>
</g>
<!-- Node2&#45;&gt;Node30 -->
<g id="edge40_Node000002_Node000030" class="edge">
<title>Node2&#45;&gt;Node30</title>
<g id="a_edge40_Node000002_Node000030"><a xlink:title=" ">
<path fill="none" stroke="#63b8ff" d="M1262.35,-353.55C1295.64,-343.75 1338.89,-331.02 1370.4,-321.74"/>
<polygon fill="#63b8ff" stroke="#63b8ff" points="1371.38,-325.1 1379.98,-318.92 1369.4,-318.38 1371.38,-325.1"/>
</a>
</g>
</g>
<!-- Node2&#45;&gt;Node31 -->
<g id="edge53_Node000002_Node000031" class="edge">
<title>Node2&#45;&gt;Node31</title>
<g id="a_edge53_Node000002_Node000031"><a xlink:title=" ">
<path fill="none" stroke="#63b8ff" d="M1222.28,-353.8C1236.36,-333.19 1262.22,-295.35 1277.71,-272.69"/>
<polygon fill="#63b8ff" stroke="#63b8ff" points="1280.59,-274.68 1283.35,-264.45 1274.81,-270.73 1280.59,-274.68"/>
</a>
</g>
</g>
<!-- Node4 -->
<g id="Node000004" class="node">
<title>Node4</title>
<g id="a_Node000004"><a xlink:href="Issue_8hpp.html" target="_top" xlink:title=" ">
<polygon fill="white" stroke="#666666" points="1005.65,-262.75 931.15,-262.75 931.15,-243.5 1005.65,-243.5 1005.65,-262.75"/>
<text text-anchor="middle" x="968.4" y="-249.25" font-family="Helvetica,sans-Serif" font-size="10.00">ers/Issue.hpp</text>
</a>
</g>
</g>
<!-- Node3&#45;&gt;Node4 -->
<g id="edge3_Node000003_Node000004" class="edge">
<title>Node3&#45;&gt;Node4</title>
<g id="a_edge3_Node000003_Node000004"><a xlink:title=" ">
<path fill="none" stroke="#63b8ff" d="M968.4,-298.58C968.4,-292.07 968.4,-282.92 968.4,-274.62"/>
<polygon fill="#63b8ff" stroke="#63b8ff" points="971.9,-274.62 968.4,-264.62 964.9,-274.62 971.9,-274.62"/>
</a>
</g>
</g>
<!-- Node3&#45;&gt;Node9 -->
<g id="edge39_Node000003_Node000009" class="edge">
<title>Node3&#45;&gt;Node9</title>
<g id="a_edge39_Node000003_Node000009"><a xlink:title=" ">
<path fill="none" stroke="#63b8ff" d="M921.86,-304.69C762.33,-295.06 244.65,-259.96 193.4,-207.5 163.2,-176.58 156.45,-141.67 186.4,-110.5 221.19,-74.3 1039.28,-77.45 1089.4,-74.5 1116.1,-72.93 1146.37,-70.54 1168.54,-68.67"/>
<polygon fill="#63b8ff" stroke="#63b8ff" points="1168.78,-72.16 1178.45,-67.82 1168.19,-65.19 1168.78,-72.16"/>
</a>
</g>
</g>
<!-- Node5 -->
<g id="Node000005" class="node">
<title>Node5</title>
<g id="a_Node000005"><a xlink:title=" ">
<polygon fill="#e0e0e0" stroke="#999999" points="928.03,-201.88 882.78,-201.88 882.78,-182.62 928.03,-182.62 928.03,-201.88"/>
<text text-anchor="middle" x="905.4" y="-188.38" font-family="Helvetica,sans-Serif" font-size="10.00">math.h</text>
</a>
</g>
</g>
<!-- Node4&#45;&gt;Node5 -->
<g id="edge4_Node000004_Node000005" class="edge">
<title>Node4&#45;&gt;Node5</title>
<g id="a_edge4_Node000004_Node000005"><a xlink:title=" ">
<path fill="none" stroke="#63b8ff" d="M958.83,-243.18C949.4,-234.37 934.75,-220.68 923.17,-209.86"/>
<polygon fill="#63b8ff" stroke="#63b8ff" points="925.86,-207.58 916.16,-203.31 921.08,-212.69 925.86,-207.58"/>
</a>
</g>
</g>
<!-- Node6 -->
<g id="Node000006" class="node">
<title>Node6</title>
<g id="a_Node000006"><a xlink:title=" ">
<polygon fill="#e0e0e0" stroke="#999999" points="990.65,-201.88 946.15,-201.88 946.15,-182.62 990.65,-182.62 990.65,-201.88"/>
<text text-anchor="middle" x="968.4" y="-188.38" font-family="Helvetica,sans-Serif" font-size="10.00">stdio.h</text>
</a>
</g>
</g>
<!-- Node4&#45;&gt;Node6 -->
<g id="edge5_Node000004_Node000006" class="edge">
<title>Node4&#45;&gt;Node6</title>
<g id="a_edge5_Node000004_Node000006"><a xlink:title=" ">
<path fill="none" stroke="#63b8ff" d="M968.4,-243.18C968.4,-235.4 968.4,-223.83 968.4,-213.78"/>
<polygon fill="#63b8ff" stroke="#63b8ff" points="971.9,-213.79 968.4,-203.79 964.9,-213.79 971.9,-213.79"/>
</a>
</g>
</g>
<!-- Node7 -->
<g id="Node000007" class="node">
<title>Node7</title>
<g id="a_Node000007"><a xlink:title=" ">
<polygon fill="#e0e0e0" stroke="#999999" points="1056.15,-201.88 1008.65,-201.88 1008.65,-182.62 1056.15,-182.62 1056.15,-201.88"/>
<text text-anchor="middle" x="1032.4" y="-188.38" font-family="Helvetica,sans-Serif" font-size="10.00">string.h</text>
</a>
</g>
</g>
<!-- Node4&#45;&gt;Node7 -->
<g id="edge6_Node000004_Node000007" class="edge">
<title>Node4&#45;&gt;Node7</title>
<g id="a_edge6_Node000004_Node000007"><a xlink:title=" ">
<path fill="none" stroke="#63b8ff" d="M978.12,-243.18C987.71,-234.37 1002.59,-220.68 1014.35,-209.86"/>
<polygon fill="#63b8ff" stroke="#63b8ff" points="1016.49,-212.65 1021.48,-203.3 1011.75,-207.5 1016.49,-212.65"/>
</a>
</g>
</g>
<!-- Node8 -->
<g id="Node000008" class="node">
<title>Node8</title>
<g id="a_Node000008"><a xlink:title=" ">
<polygon fill="#e0e0e0" stroke="#999999" points="1364.78,-135.38 1330.03,-135.38 1330.03,-116.12 1364.78,-116.12 1364.78,-135.38"/>
<text text-anchor="middle" x="1347.4" y="-121.88" font-family="Helvetica,sans-Serif" font-size="10.00">map</text>
</a>
</g>
</g>
<!-- Node4&#45;&gt;Node8 -->
<g id="edge7_Node000004_Node000008" class="edge">
<title>Node4&#45;&gt;Node8</title>
<g id="a_edge7_Node000004_Node000008"><a xlink:title=" ">
<path fill="none" stroke="#63b8ff" d="M1006.04,-251.81C1085.04,-250.45 1264.77,-243.36 1312.4,-207.5 1331.63,-193.02 1340.45,-165.77 1344.39,-146.96"/>
<polygon fill="#63b8ff" stroke="#63b8ff" points="1347.8,-147.74 1346.1,-137.28 1340.91,-146.52 1347.8,-147.74"/>
</a>
</g>
</g>
<!-- Node4&#45;&gt;Node9 -->
<g id="edge8_Node000004_Node000009" class="edge">
<title>Node4&#45;&gt;Node9</title>
<g id="a_edge8_Node000004_Node000009"><a xlink:title=" ">
<path fill="none" stroke="#63b8ff" d="M1005.9,-249.78C1071.4,-245.07 1203.36,-232.68 1241.4,-207.5 1280.57,-181.57 1307.5,-150.82 1283.4,-110.5 1277.4,-100.45 1252.18,-87.7 1231.1,-78.4"/>
<polygon fill="#63b8ff" stroke="#63b8ff" points="1232.54,-75.21 1221.97,-74.48 1229.78,-81.64 1232.54,-75.21"/>
</a>
</g>
</g>
<!-- Node10 -->
<g id="Node000010" class="node">
<title>Node10</title>
<g id="a_Node000010"><a xlink:title=" ">
<polygon fill="#e0e0e0" stroke="#999999" points="845.15,-19.25 791.65,-19.25 791.65,0 845.15,0 845.15,-19.25"/>
<text text-anchor="middle" x="818.4" y="-5.75" font-family="Helvetica,sans-Serif" font-size="10.00">iostream</text>
</a>
</g>
</g>
<!-- Node4&#45;&gt;Node10 -->
<g id="edge9_Node000004_Node000010" class="edge">
<title>Node4&#45;&gt;Node10</title>
<g id="a_edge9_Node000004_Node000010"><a xlink:title=" ">
<path fill="none" stroke="#63b8ff" d="M930.83,-251.39C796.02,-248.53 337.01,-236.8 193.4,-207.5 107.79,-190.03 58.66,-212.47 8.4,-141 -83.51,-10.29 607.87,-8.55 780.14,-10.12"/>
<polygon fill="#63b8ff" stroke="#63b8ff" points="780.08,-13.62 790.12,-10.22 780.15,-6.62 780.08,-13.62"/>
</a>
</g>
</g>
<!-- Node11 -->
<g id="Node000011" class="node">
<title>Node11</title>
<g id="a_Node000011"><a xlink:title=" ">
<polygon fill="#e0e0e0" stroke="#999999" points="1164.03,-201.88 1112.78,-201.88 1112.78,-182.62 1164.03,-182.62 1164.03,-201.88"/>
<text text-anchor="middle" x="1138.4" y="-188.38" font-family="Helvetica,sans-Serif" font-size="10.00">sstream</text>
</a>
</g>
</g>
<!-- Node4&#45;&gt;Node11 -->
<g id="edge10_Node000004_Node000011" class="edge">
<title>Node4&#45;&gt;Node11</title>
<g id="a_edge10_Node000004_Node000011"><a xlink:title=" ">
<path fill="none" stroke="#63b8ff" d="M994.82,-243.15C1021.11,-234.21 1062.59,-220.03 1098.4,-207.5 1099.73,-207.03 1101.09,-206.56 1102.46,-206.08"/>
<polygon fill="#63b8ff" stroke="#63b8ff" points="1103.34,-209.48 1111.6,-202.84 1101,-202.88 1103.34,-209.48"/>
</a>
</g>
</g>
<!-- Node12 -->
<g id="Node000012" class="node">
<title>Node12</title>
<g id="a_Node000012"><a xlink:title=" ">
<polygon fill="#e0e0e0" stroke="#999999" points="1232.65,-201.88 1182.15,-201.88 1182.15,-182.62 1232.65,-182.62 1232.65,-201.88"/>
<text text-anchor="middle" x="1207.4" y="-188.38" font-family="Helvetica,sans-Serif" font-size="10.00">memory</text>
</a>
</g>
</g>
<!-- Node4&#45;&gt;Node12 -->
<g id="edge11_Node000004_Node000012" class="edge">
<title>Node4&#45;&gt;Node12</title>
<g id="a_edge11_Node000004_Node000012"><a xlink:title=" ">
<path fill="none" stroke="#63b8ff" d="M1005.97,-246.07C1047.49,-238.89 1116.09,-225.58 1173.4,-207.5 1174.56,-207.13 1175.74,-206.74 1176.92,-206.34"/>
<polygon fill="#63b8ff" stroke="#63b8ff" points="1177.98,-209.68 1186.08,-202.85 1175.49,-203.14 1177.98,-209.68"/>
</a>
</g>
</g>
<!-- Node4&#45;&gt;Node13 -->
<g id="edge12_Node000004_Node000013" class="edge">
<title>Node4&#45;&gt;Node13</title>
<g id="a_edge12_Node000004_Node000013"><a xlink:title=" ">
<path fill="none" stroke="#63b8ff" d="M992.36,-243.03C1012.51,-234.93 1041.75,-222.12 1065.4,-207.5 1083.82,-196.11 1084.34,-187.29 1103.4,-177 1149.04,-152.36 1165.52,-158.33 1214.4,-141 1215.54,-140.6 1216.69,-140.18 1217.85,-139.76"/>
<polygon fill="#63b8ff" stroke="#63b8ff" points="1218.81,-143.14 1226.96,-136.37 1216.37,-136.58 1218.81,-143.14"/>
</a>
</g>
</g>
<!-- Node14 -->
<g id="Node000014" class="node">
<title>Node14</title>
<g id="a_Node000014"><a xlink:title=" ">
<polygon fill="#e0e0e0" stroke="#999999" points="230.8,-201.88 202,-201.88 202,-182.62 230.8,-182.62 230.8,-201.88"/>
<text text-anchor="middle" x="216.4" y="-188.38" font-family="Helvetica,sans-Serif" font-size="10.00">list</text>
</a>
</g>
</g>
<!-- Node4&#45;&gt;Node14 -->
<g id="edge13_Node000004_Node000014" class="edge">
<title>Node4&#45;&gt;Node14</title>
<g id="a_edge13_Node000004_Node000014"><a xlink:title=" ">
<path fill="none" stroke="#63b8ff" d="M931.03,-252.24C801.16,-252.25 370.21,-249.1 239.4,-207.5 239.17,-207.43 238.93,-207.35 238.7,-207.27"/>
<polygon fill="#63b8ff" stroke="#63b8ff" points="240.39,-204.2 229.86,-202.95 237.31,-210.49 240.39,-204.2"/>
</a>
</g>
</g>
<!-- Node15 -->
<g id="Node000015" class="node">
<title>Node15</title>
<g id="a_Node000015"><a xlink:href="IssueFactory_8hpp.html" target="_top" xlink:title=" ">
<polygon fill="white" stroke="#666666" points="864.78,-201.88 758.03,-201.88 758.03,-182.62 864.78,-182.62 864.78,-201.88"/>
<text text-anchor="middle" x="811.4" y="-188.38" font-family="Helvetica,sans-Serif" font-size="10.00">ers/IssueFactory.hpp</text>
</a>
</g>
</g>
<!-- Node4&#45;&gt;Node15 -->
<g id="edge14_Node000004_Node000015" class="edge">
<title>Node4&#45;&gt;Node15</title>
<g id="a_edge14_Node000004_Node000015"><a xlink:title=" ">
<path fill="none" stroke="#63b8ff" d="M944.21,-243.05C918.05,-233.24 876.11,-217.51 846.36,-206.36"/>
<polygon fill="#63b8ff" stroke="#63b8ff" points="847.62,-203.1 837.03,-202.86 845.17,-209.65 847.62,-203.1"/>
</a>
</g>
</g>
<!-- Node17 -->
<g id="Node000017" class="node">
<title>Node17</title>
<g id="a_Node000017"><a xlink:href="Severity_8hpp.html" target="_top" xlink:title=" ">
<polygon fill="white" stroke="#666666" points="1172.28,-135.38 1086.53,-135.38 1086.53,-116.12 1172.28,-116.12 1172.28,-135.38"/>
<text text-anchor="middle" x="1129.4" y="-121.88" font-family="Helvetica,sans-Serif" font-size="10.00">ers/Severity.hpp</text>
</a>
</g>
</g>
<!-- Node4&#45;&gt;Node17 -->
<g id="edge31_Node000004_Node000017" class="edge">
<title>Node4&#45;&gt;Node17</title>
<g id="a_edge31_Node000004_Node000017"><a xlink:title=" ">
<path fill="none" stroke="#63b8ff" d="M930.8,-251.46C855.32,-248.87 696.9,-236.42 749.4,-177 792.4,-128.33 975.1,-150.08 1039.4,-141 1051.03,-139.36 1063.49,-137.47 1075.32,-135.61"/>
<polygon fill="#63b8ff" stroke="#63b8ff" points="1075.59,-139.12 1084.92,-134.09 1074.49,-132.2 1075.59,-139.12"/>
</a>
</g>
</g>
<!-- Node18 -->
<g id="Node000018" class="node">
<title>Node18</title>
<g id="a_Node000018"><a xlink:href="LocalContext_8hpp.html" target="_top" xlink:title=" ">
<polygon fill="white" stroke="#666666" points="356.15,-201.88 248.65,-201.88 248.65,-182.62 356.15,-182.62 356.15,-201.88"/>
<text text-anchor="middle" x="302.4" y="-188.38" font-family="Helvetica,sans-Serif" font-size="10.00">ers/LocalContext.hpp</text>
</a>
</g>
</g>
<!-- Node4&#45;&gt;Node18 -->
<g id="edge23_Node000004_Node000018" class="edge">
<title>Node4&#45;&gt;Node18</title>
<g id="a_edge23_Node000004_Node000018"><a xlink:title=" ">
<path fill="none" stroke="#63b8ff" d="M930.69,-248.79C821.62,-239.15 504.89,-211.15 367.39,-198.99"/>
<polygon fill="#63b8ff" stroke="#63b8ff" points="368,-195.54 357.73,-198.14 367.38,-202.51 368,-195.54"/>
</a>
</g>
</g>
<!-- Node23 -->
<g id="Node000023" class="node">
<title>Node23</title>
<g id="a_Node000023"><a xlink:href="IssueDeclarationMacro_8hpp.html" target="_top" xlink:title=" ">
<polygon fill="white" stroke="#666666" points="702.28,-207.5 562.53,-207.5 562.53,-177 702.28,-177 702.28,-207.5"/>
<text text-anchor="start" x="570.53" y="-194" font-family="Helvetica,sans-Serif" font-size="10.00">ers/internal/IssueDeclaration</text>
<text text-anchor="middle" x="632.4" y="-182.75" font-family="Helvetica,sans-Serif" font-size="10.00">Macro.hpp</text>
</a>
</g>
</g>
<!-- Node4&#45;&gt;Node23 -->
<g id="edge32_Node000004_Node000023" class="edge">
<title>Node4&#45;&gt;Node23</title>
<g id="a_edge32_Node000004_Node000023"><a xlink:title=" ">
<path fill="none" stroke="#63b8ff" d="M930.84,-245.54C878.68,-236.4 782.98,-219.64 714,-207.55"/>
<polygon fill="#63b8ff" stroke="#63b8ff" points="714.68,-204.11 704.23,-205.84 713.47,-211.01 714.68,-204.11"/>
</a>
</g>
</g>
<!-- Node15&#45;&gt;Node8 -->
<g id="edge18_Node000015_Node000008" class="edge">
<title>Node15&#45;&gt;Node8</title>
<g id="a_edge18_Node000015_Node000008"><a xlink:title=" ">
<path fill="none" stroke="#63b8ff" d="M846.97,-182.19C855.58,-180.24 864.78,-178.36 873.4,-177 1054.08,-148.44 1102.62,-168.94 1283.4,-141 1294.97,-139.21 1307.57,-136.56 1318.5,-134.03"/>
<polygon fill="#63b8ff" stroke="#63b8ff" points="1319.21,-137.46 1328.12,-131.73 1317.58,-130.65 1319.21,-137.46"/>
</a>
</g>
</g>
<!-- Node15&#45;&gt;Node9 -->
<g id="edge16_Node000015_Node000009" class="edge">
<title>Node15&#45;&gt;Node9</title>
<g id="a_edge16_Node000015_Node000009"><a xlink:title=" ">
<path fill="none" stroke="#63b8ff" d="M847.98,-182.14C856.3,-180.27 865.13,-178.43 873.4,-177 941.3,-165.26 1129.58,-186.42 1181.4,-141 1196.79,-127.51 1200.6,-103.52 1201.16,-86.27"/>
<polygon fill="#63b8ff" stroke="#63b8ff" points="1204.66,-86.42 1201.1,-76.43 1197.66,-86.45 1204.66,-86.42"/>
</a>
</g>
</g>
<!-- Node15&#45;&gt;Node13 -->
<g id="edge15_Node000015_Node000013" class="edge">
<title>Node15&#45;&gt;Node13</title>
<g id="a_edge15_Node000015_Node000013"><a xlink:title=" ">
<path fill="none" stroke="#63b8ff" d="M847.64,-182.15C856.06,-180.25 865.01,-178.4 873.4,-177 1023.71,-151.89 1066.24,-176.69 1214.4,-141 1216.16,-140.58 1217.94,-140.09 1219.73,-139.56"/>
<polygon fill="#63b8ff" stroke="#63b8ff" points="1220.8,-142.89 1229.14,-136.35 1218.55,-136.27 1220.8,-142.89"/>
</a>
</g>
</g>
<!-- Node16 -->
<g id="Node000016" class="node">
<title>Node16</title>
<g id="a_Node000016"><a xlink:title=" ">
<polygon fill="#e0e0e0" stroke="#999999" points="1079.9,-74.5 1036.9,-74.5 1036.9,-55.25 1079.9,-55.25 1079.9,-74.5"/>
<text text-anchor="middle" x="1058.4" y="-61" font-family="Helvetica,sans-Serif" font-size="10.00">vector</text>
</a>
</g>
</g>
<!-- Node15&#45;&gt;Node16 -->
<g id="edge17_Node000015_Node000016" class="edge">
<title>Node15&#45;&gt;Node16</title>
<g id="a_edge17_Node000015_Node000016"><a xlink:title=" ">
<path fill="none" stroke="#63b8ff" d="M850.74,-182.13C858.26,-180.41 866.07,-178.64 873.4,-177 947.08,-160.54 985.12,-193.46 1039.4,-141 1053.97,-126.92 1057.97,-103.4 1058.8,-86.43"/>
<polygon fill="#63b8ff" stroke="#63b8ff" points="1062.3,-86.54 1058.92,-76.5 1055.3,-86.46 1062.3,-86.54"/>
</a>
</g>
</g>
<!-- Node15&#45;&gt;Node17 -->
<g id="edge19_Node000015_Node000017" class="edge">
<title>Node15&#45;&gt;Node17</title>
<g id="a_edge19_Node000015_Node000017"><a xlink:title=" ">
<path fill="none" stroke="#63b8ff" d="M849.7,-182.15C857.53,-180.37 865.72,-178.58 873.4,-177 961.45,-158.93 984.53,-159.91 1072.4,-141 1075.99,-140.23 1079.7,-139.39 1083.42,-138.52"/>
<polygon fill="#63b8ff" stroke="#63b8ff" points="1084.14,-141.95 1093.05,-136.21 1082.51,-135.14 1084.14,-141.95"/>
</a>
</g>
</g>
<!-- Node17&#45;&gt;Node9 -->
<g id="edge20_Node000017_Node000009" class="edge">
<title>Node17&#45;&gt;Node9</title>
<g id="a_edge20_Node000017_Node000009"><a xlink:title=" ">
<path fill="none" stroke="#63b8ff" d="M1140.18,-115.81C1150.92,-106.9 1167.65,-93.03 1180.75,-82.17"/>
<polygon fill="#63b8ff" stroke="#63b8ff" points="1182.89,-84.94 1188.35,-75.87 1178.42,-79.56 1182.89,-84.94"/>
</a>
</g>
</g>
<!-- Node17&#45;&gt;Node10 -->
<g id="edge22_Node000017_Node000010" class="edge">
<title>Node17&#45;&gt;Node10</title>
<g id="a_edge22_Node000017_Node000010"><a xlink:title=" ">
<path fill="none" stroke="#63b8ff" d="M1126.99,-115.8C1122.4,-100.65 1110.91,-70.16 1089.4,-55.25 1052.41,-29.62 922.64,-17.53 857.02,-12.94"/>
<polygon fill="#63b8ff" stroke="#63b8ff" points="857.27,-9.45 847.06,-12.27 856.8,-16.43 857.27,-9.45"/>
</a>
</g>
</g>
<!-- Node17&#45;&gt;Node16 -->
<g id="edge21_Node000017_Node000016" class="edge">
<title>Node17&#45;&gt;Node16</title>
<g id="a_edge21_Node000017_Node000016"><a xlink:title=" ">
<path fill="none" stroke="#63b8ff" d="M1118.62,-115.81C1107.88,-106.9 1091.15,-93.03 1078.05,-82.17"/>
<polygon fill="#63b8ff" stroke="#63b8ff" points="1080.38,-79.56 1070.45,-75.87 1075.91,-84.94 1080.38,-79.56"/>
</a>
</g>
</g>
<!-- Node19 -->
<g id="Node000019" class="node">
<title>Node19</title>
<g id="a_Node000019"><a xlink:title=" ">
<polygon fill="#e0e0e0" stroke="#999999" points="259.78,-135.38 195.03,-135.38 195.03,-116.12 259.78,-116.12 259.78,-135.38"/>
<text text-anchor="middle" x="227.4" y="-121.88" font-family="Helvetica,sans-Serif" font-size="10.00">sys/types.h</text>
</a>
</g>
</g>
<!-- Node18&#45;&gt;Node19 -->
<g id="edge24_Node000018_Node000019" class="edge">
<title>Node18&#45;&gt;Node19</title>
<g id="a_edge24_Node000018_Node000019"><a xlink:title=" ">
<path fill="none" stroke="#63b8ff" d="M291.97,-182.28C280.22,-172.17 260.87,-155.53 246.41,-143.1"/>
<polygon fill="#63b8ff" stroke="#63b8ff" points="248.75,-140.5 238.89,-136.63 244.19,-145.8 248.75,-140.5"/>
</a>
</g>
</g>
<!-- Node20 -->
<g id="Node000020" class="node">
<title>Node20</title>
<g id="a_Node000020"><a xlink:title=" ">
<polygon fill="#e0e0e0" stroke="#999999" points="327.28,-135.38 277.53,-135.38 277.53,-116.12 327.28,-116.12 327.28,-135.38"/>
<text text-anchor="middle" x="302.4" y="-121.88" font-family="Helvetica,sans-Serif" font-size="10.00">unistd.h</text>
</a>
</g>
</g>
<!-- Node18&#45;&gt;Node20 -->
<g id="edge25_Node000018_Node000020" class="edge">
<title>Node18&#45;&gt;Node20</title>
<g id="a_edge25_Node000018_Node000020"><a xlink:title=" ">
<path fill="none" stroke="#63b8ff" d="M302.4,-182.28C302.4,-173.23 302.4,-158.95 302.4,-147.13"/>
<polygon fill="#63b8ff" stroke="#63b8ff" points="305.9,-147.16 302.4,-137.16 298.9,-147.16 305.9,-147.16"/>
</a>
</g>
</g>
<!-- Node21 -->
<g id="Node000021" class="node">
<title>Node21</title>
<g id="a_Node000021"><a xlink:href="Context_8hpp.html" target="_top" xlink:title=" ">
<polygon fill="white" stroke="#666666" points="101.15,-135.38 17.65,-135.38 17.65,-116.12 101.15,-116.12 101.15,-135.38"/>
<text text-anchor="middle" x="59.4" y="-121.88" font-family="Helvetica,sans-Serif" font-size="10.00">ers/Context.hpp</text>
</a>
</g>
</g>
<!-- Node18&#45;&gt;Node21 -->
<g id="edge26_Node000018_Node000021" class="edge">
<title>Node18&#45;&gt;Node21</title>
<g id="a_edge26_Node000018_Node000021"><a xlink:title=" ">
<path fill="none" stroke="#63b8ff" d="M268.1,-182.15C225.22,-170.77 151.73,-151.26 104.38,-138.69"/>
<polygon fill="#63b8ff" stroke="#63b8ff" points="105.55,-135.38 94.99,-136.2 103.76,-142.14 105.55,-135.38"/>
</a>
</g>
</g>
<!-- Node21&#45;&gt;Node9 -->
<g id="edge27_Node000021_Node000009" class="edge">
<title>Node21&#45;&gt;Node9</title>
<g id="a_edge27_Node000021_Node000009"><a xlink:title=" ">
<path fill="none" stroke="#63b8ff" d="M90.27,-115.65C98.38,-113.6 107.16,-111.69 115.4,-110.5 544.16,-48.74 656.93,-99.28 1089.4,-74.5 1116.1,-72.97 1146.37,-70.57 1168.55,-68.7"/>
<polygon fill="#63b8ff" stroke="#63b8ff" points="1168.79,-72.19 1178.45,-67.84 1168.19,-65.21 1168.79,-72.19"/>
</a>
</g>
</g>
<!-- Node21&#45;&gt;Node16 -->
<g id="edge28_Node000021_Node000016" class="edge">
<title>Node21&#45;&gt;Node16</title>
<g id="a_edge28_Node000021_Node000016"><a xlink:title=" ">
<path fill="none" stroke="#63b8ff" d="M90.57,-115.63C98.6,-113.61 107.26,-111.71 115.4,-110.5 296.52,-83.45 879.99,-69.62 1025.36,-66.54"/>
<polygon fill="#63b8ff" stroke="#63b8ff" points="1025.13,-70.05 1035.05,-66.34 1024.98,-63.05 1025.13,-70.05"/>
</a>
</g>
</g>
<!-- Node22 -->
<g id="Node000022" class="node">
<title>Node22</title>
<g id="a_Node000022"><a xlink:href="ers_2include_2ers_2Configuration_8hpp.html" target="_top" xlink:title=" ">
<polygon fill="white" stroke="#666666" points="570.78,-74.5 464.03,-74.5 464.03,-55.25 570.78,-55.25 570.78,-74.5"/>
<text text-anchor="middle" x="517.4" y="-61" font-family="Helvetica,sans-Serif" font-size="10.00">ers/Configuration.hpp</text>
</a>
</g>
</g>
<!-- Node21&#45;&gt;Node22 -->
<g id="edge29_Node000021_Node000022" class="edge">
<title>Node21&#45;&gt;Node22</title>
<g id="a_edge29_Node000021_Node000022"><a xlink:title=" ">
<path fill="none" stroke="#63b8ff" d="M91.81,-115.69C99.5,-113.77 107.7,-111.9 115.4,-110.5 233.27,-89.07 372.58,-76.38 452.4,-70.3"/>
<polygon fill="#63b8ff" stroke="#63b8ff" points="452.52,-73.81 462.23,-69.57 451.99,-66.82 452.52,-73.81"/>
</a>
</g>
</g>
<!-- Node22&#45;&gt;Node10 -->
<g id="edge30_Node000022_Node000010" class="edge">
<title>Node22&#45;&gt;Node10</title>
<g id="a_edge30_Node000022_Node000010"><a xlink:title=" ">
<path fill="none" stroke="#63b8ff" d="M568.8,-54.78C628.87,-44.15 726.86,-26.82 780.44,-17.34"/>
<polygon fill="#63b8ff" stroke="#63b8ff" points="780.76,-20.84 790,-15.65 779.54,-13.95 780.76,-20.84"/>
</a>
</g>
</g>
<!-- Node24 -->
<g id="Node000024" class="node">
<title>Node24</title>
<g id="a_Node000024"><a xlink:title=" ">
<polygon fill="#e0e0e0" stroke="#999999" points="562.03,-141 462.78,-141 462.78,-110.5 562.03,-110.5 562.03,-141"/>
<text text-anchor="start" x="470.78" y="-127.5" font-family="Helvetica,sans-Serif" font-size="10.00">boost/preprocessor</text>
<text text-anchor="middle" x="512.4" y="-116.25" font-family="Helvetica,sans-Serif" font-size="10.00">/if.hpp</text>
</a>
</g>
</g>
<!-- Node23&#45;&gt;Node24 -->
<g id="edge33_Node000023_Node000024" class="edge">
<title>Node23&#45;&gt;Node24</title>
<g id="a_edge33_Node000023_Node000024"><a xlink:title=" ">
<path fill="none" stroke="#63b8ff" d="M605.17,-176.61C588.68,-167.75 567.42,-156.32 549.41,-146.64"/>
<polygon fill="#63b8ff" stroke="#63b8ff" points="551.32,-143.7 540.86,-142.04 548.01,-149.86 551.32,-143.7"/>
</a>
</g>
</g>
<!-- Node25 -->
<g id="Node000025" class="node">
<title>Node25</title>
<g id="a_Node000025"><a xlink:title=" ">
<polygon fill="#e0e0e0" stroke="#999999" points="679.03,-141 579.78,-141 579.78,-110.5 679.03,-110.5 679.03,-141"/>
<text text-anchor="start" x="587.78" y="-127.5" font-family="Helvetica,sans-Serif" font-size="10.00">boost/preprocessor</text>
<text text-anchor="middle" x="629.4" y="-116.25" font-family="Helvetica,sans-Serif" font-size="10.00">/seq.hpp</text>
</a>
</g>
</g>
<!-- Node23&#45;&gt;Node25 -->
<g id="edge34_Node000023_Node000025" class="edge">
<title>Node23&#45;&gt;Node25</title>
<g id="a_edge34_Node000023_Node000025"><a xlink:title=" ">
<path fill="none" stroke="#63b8ff" d="M631.72,-176.61C631.39,-169.52 630.98,-160.79 630.6,-152.63"/>
<polygon fill="#63b8ff" stroke="#63b8ff" points="634.11,-152.67 630.15,-142.84 627.12,-152.99 634.11,-152.67"/>
</a>
</g>
</g>
<!-- Node26 -->
<g id="Node000026" class="node">
<title>Node26</title>
<g id="a_Node000026"><a xlink:title=" ">
<polygon fill="#e0e0e0" stroke="#999999" points="796.03,-141 696.78,-141 696.78,-110.5 796.03,-110.5 796.03,-141"/>
<text text-anchor="start" x="704.78" y="-127.5" font-family="Helvetica,sans-Serif" font-size="10.00">boost/preprocessor</text>
<text text-anchor="middle" x="746.4" y="-116.25" font-family="Helvetica,sans-Serif" font-size="10.00">/tuple.hpp</text>
</a>
</g>
</g>
<!-- Node23&#45;&gt;Node26 -->
<g id="edge35_Node000023_Node000026" class="edge">
<title>Node23&#45;&gt;Node26</title>
<g id="a_edge35_Node000023_Node000026"><a xlink:title=" ">
<path fill="none" stroke="#63b8ff" d="M658.27,-176.61C673.86,-167.79 693.95,-156.43 711,-146.78"/>
<polygon fill="#63b8ff" stroke="#63b8ff" points="712.34,-150.04 719.32,-142.07 708.89,-143.95 712.34,-150.04"/>
</a>
</g>
</g>
<!-- Node27 -->
<g id="Node000027" class="node">
<title>Node27</title>
<g id="a_Node000027"><a xlink:title=" ">
<polygon fill="#e0e0e0" stroke="#999999" points="913.03,-141 813.78,-141 813.78,-110.5 913.03,-110.5 913.03,-141"/>
<text text-anchor="start" x="821.78" y="-127.5" font-family="Helvetica,sans-Serif" font-size="10.00">boost/preprocessor</text>
<text text-anchor="middle" x="863.4" y="-116.25" font-family="Helvetica,sans-Serif" font-size="10.00">/logical.hpp</text>
</a>
</g>
</g>
<!-- Node23&#45;&gt;Node27 -->
<g id="edge36_Node000023_Node000027" class="edge">
<title>Node23&#45;&gt;Node27</title>
<g id="a_edge36_Node000023_Node000027"><a xlink:title=" ">
<path fill="none" stroke="#63b8ff" d="M685.11,-176.53C719.98,-166.8 765.83,-153.99 802.3,-143.81"/>
<polygon fill="#63b8ff" stroke="#63b8ff" points="803.15,-147.21 811.84,-141.15 801.27,-140.47 803.15,-147.21"/>
</a>
</g>
</g>
<!-- Node28 -->
<g id="Node000028" class="node">
<title>Node28</title>
<g id="a_Node000028"><a xlink:title=" ">
<polygon fill="#e0e0e0" stroke="#999999" points="1030.03,-141 930.78,-141 930.78,-110.5 1030.03,-110.5 1030.03,-141"/>
<text text-anchor="start" x="938.78" y="-127.5" font-family="Helvetica,sans-Serif" font-size="10.00">boost/preprocessor</text>
<text text-anchor="middle" x="980.4" y="-116.25" font-family="Helvetica,sans-Serif" font-size="10.00">/stringize.hpp</text>
</a>
</g>
</g>
<!-- Node23&#45;&gt;Node28 -->
<g id="edge37_Node000023_Node000028" class="edge">
<title>Node23&#45;&gt;Node28</title>
<g id="a_edge37_Node000023_Node000028"><a xlink:title=" ">
<path fill="none" stroke="#63b8ff" d="M702.44,-179.38C773.6,-167.27 878.2,-149.37 919.43,-141.45"/>
<polygon fill="#63b8ff" stroke="#63b8ff" points="919.86,-144.94 928.98,-139.55 918.49,-138.07 919.86,-144.94"/>
</a>
</g>
</g>
<!-- Node29 -->
<g id="Node000029" class="node">
<title>Node29</title>
<g id="a_Node000029"><a xlink:title=" ">
<polygon fill="#e0e0e0" stroke="#999999" points="445.03,-141 345.78,-141 345.78,-110.5 445.03,-110.5 445.03,-141"/>
<text text-anchor="start" x="353.78" y="-127.5" font-family="Helvetica,sans-Serif" font-size="10.00">boost/preprocessor</text>
<text text-anchor="middle" x="395.4" y="-116.25" font-family="Helvetica,sans-Serif" font-size="10.00">/comparison.hpp</text>
</a>
</g>
</g>
<!-- Node23&#45;&gt;Node29 -->
<g id="edge38_Node000023_Node000029" class="edge">
<title>Node23&#45;&gt;Node29</title>
<g id="a_edge38_Node000023_Node000029"><a xlink:title=" ">
<path fill="none" stroke="#63b8ff" d="M578.33,-176.53C541.89,-166.62 493.79,-153.53 456.05,-143.26"/>
<polygon fill="#63b8ff" stroke="#63b8ff" points="457.23,-139.95 446.66,-140.7 455.39,-146.7 457.23,-139.95"/>
</a>
</g>
</g>
<!-- Node30&#45;&gt;Node4 -->
<g id="edge48_Node000030_Node000004" class="edge">
<title>Node30&#45;&gt;Node4</title>
<g id="a_edge48_Node000030_Node000004"><a xlink:title=" ">
<path fill="none" stroke="#63b8ff" d="M1354.36,-300.41C1266.1,-289.83 1099.75,-269.88 1017.29,-259.99"/>
<polygon fill="#63b8ff" stroke="#63b8ff" points="1017.84,-256.53 1007.49,-258.81 1017,-263.48 1017.84,-256.53"/>
</a>
</g>
</g>
<!-- Node30&#45;&gt;Node8 -->
<g id="edge50_Node000030_Node000008" class="edge">
<title>Node30&#45;&gt;Node8</title>
<g id="a_edge50_Node000030_Node000008"><a xlink:title=" ">
<path fill="none" stroke="#63b8ff" d="M1412.26,-298.38C1411.61,-276.54 1408.01,-219.4 1388.4,-177 1382.73,-164.74 1373.37,-152.93 1365.02,-143.84"/>
<polygon fill="#63b8ff" stroke="#63b8ff" points="1367.71,-141.59 1358.24,-136.84 1362.68,-146.46 1367.71,-141.59"/>
</a>
</g>
</g>
<!-- Node30&#45;&gt;Node9 -->
<g id="edge51_Node000030_Node000009" class="edge">
<title>Node30&#45;&gt;Node9</title>
<g id="a_edge51_Node000030_Node000009"><a xlink:title=" ">
<path fill="none" stroke="#63b8ff" d="M1415.36,-298.31C1419.04,-285.96 1424.59,-263.13 1422.4,-243.5 1415.43,-180.89 1422.84,-149.54 1373.4,-110.5 1323.18,-70.84 1293.7,-91.02 1231.88,-76.06"/>
<polygon fill="#63b8ff" stroke="#63b8ff" points="1232.84,-72.7 1222.28,-73.48 1231.03,-79.46 1232.84,-72.7"/>
</a>
</g>
</g>
<!-- Node30&#45;&gt;Node13 -->
<g id="edge49_Node000030_Node000013" class="edge">
<title>Node30&#45;&gt;Node13</title>
<g id="a_edge49_Node000030_Node000013"><a xlink:title=" ">
<path fill="none" stroke="#63b8ff" d="M1404.64,-298.66C1379.62,-270.6 1300.81,-182.18 1267.03,-144.28"/>
<polygon fill="#63b8ff" stroke="#63b8ff" points="1269.74,-142.07 1260.47,-136.93 1264.52,-146.72 1269.74,-142.07"/>
</a>
</g>
</g>
<!-- Node30&#45;&gt;Node31 -->
<g id="edge41_Node000030_Node000031" class="edge">
<title>Node30&#45;&gt;Node31</title>
<g id="a_edge41_Node000030_Node000031"><a xlink:title=" ">
<path fill="none" stroke="#63b8ff" d="M1391.71,-298.34C1372.51,-289.97 1343.69,-277.38 1321.69,-267.78"/>
<polygon fill="#63b8ff" stroke="#63b8ff" points="1323.15,-264.6 1312.58,-263.81 1320.35,-271.02 1323.15,-264.6"/>
</a>
</g>
</g>
<!-- Node32 -->
<g id="Node000032" class="node">
<title>Node32</title>
<g id="a_Node000032"><a xlink:href="InfoCollector_8hpp.html" target="_top" xlink:title=" ">
<polygon fill="white" stroke="#666666" points="1700.78,-135.38 1570.03,-135.38 1570.03,-116.12 1700.78,-116.12 1700.78,-135.38"/>
<text text-anchor="middle" x="1635.4" y="-121.88" font-family="Helvetica,sans-Serif" font-size="10.00">opmonlib/InfoCollector.hpp</text>
</a>
</g>
</g>
<!-- Node30&#45;&gt;Node32 -->
<g id="edge42_Node000030_Node000032" class="edge">
<title>Node30&#45;&gt;Node32</title>
<g id="a_edge42_Node000030_Node000032"><a xlink:title=" ">
<path fill="none" stroke="#63b8ff" d="M1457.52,-298.28C1482.82,-291.54 1513.92,-280.4 1537.4,-262.75 1579.91,-230.79 1611.67,-175.16 1626.36,-145.94"/>
<polygon fill="#63b8ff" stroke="#63b8ff" points="1629.4,-147.69 1630.63,-137.17 1623.11,-144.63 1629.4,-147.69"/>
</a>
</g>
</g>
<!-- Node36 -->
<g id="Node000036" class="node">
<title>Node36</title>
<g id="a_Node000036"><a xlink:title=" ">
<polygon fill="#e0e0e0" stroke="#999999" points="1528.28,-262.75 1478.53,-262.75 1478.53,-243.5 1528.28,-243.5 1528.28,-262.75"/>
<text text-anchor="middle" x="1503.4" y="-249.25" font-family="Helvetica,sans-Serif" font-size="10.00">typeinfo</text>
</a>
</g>
</g>
<!-- Node30&#45;&gt;Node36 -->
<g id="edge52_Node000030_Node000036" class="edge">
<title>Node30&#45;&gt;Node36</title>
<g id="a_edge52_Node000030_Node000036"><a xlink:title=" ">
<path fill="none" stroke="#63b8ff" d="M1427.84,-298.34C1441.56,-290.31 1461.9,-278.41 1478.02,-268.98"/>
<polygon fill="#63b8ff" stroke="#63b8ff" points="1479.72,-272.04 1486.58,-263.97 1476.18,-266 1479.72,-272.04"/>
</a>
</g>
</g>
<!-- Node32&#45;&gt;Node9 -->
<g id="edge46_Node000032_Node000009" class="edge">
<title>Node32&#45;&gt;Node9</title>
<g id="a_edge46_Node000032_Node000009"><a xlink:title=" ">
<path fill="none" stroke="#63b8ff" d="M1587.43,-115.67C1577.2,-113.86 1566.46,-112.04 1556.4,-110.5 1436.91,-92.25 1294,-76.02 1231.85,-69.24"/>
<polygon fill="#63b8ff" stroke="#63b8ff" points="1232.35,-65.78 1222.03,-68.18 1231.6,-72.74 1232.35,-65.78"/>
</a>
</g>
</g>
<!-- Node32&#45;&gt;Node10 -->
<g id="edge45_Node000032_Node000010" class="edge">
<title>Node32&#45;&gt;Node10</title>
<g id="a_edge45_Node000032_Node000010"><a xlink:title=" ">
<path fill="none" stroke="#63b8ff" d="M1585.69,-115.7C1575.98,-113.95 1565.87,-112.15 1556.4,-110.5 1411.21,-85.14 1375.4,-75.49 1229.4,-55.25 1092.69,-36.3 929.46,-20.64 856.69,-14.02"/>
<polygon fill="#63b8ff" stroke="#63b8ff" points="857.18,-10.55 846.91,-13.13 856.55,-17.52 857.18,-10.55"/>
</a>
</g>
</g>
<!-- Node33 -->
<g id="Node000033" class="node">
<title>Node33</title>
<g id="a_Node000033"><a xlink:title=" ">
<polygon fill="#e0e0e0" stroke="#999999" points="1596.9,-74.5 1499.9,-74.5 1499.9,-55.25 1596.9,-55.25 1596.9,-74.5"/>
<text text-anchor="middle" x="1548.4" y="-61" font-family="Helvetica,sans-Serif" font-size="10.00">nlohmann/json.hpp</text>
</a>
</g>
</g>
<!-- Node32&#45;&gt;Node33 -->
<g id="edge43_Node000032_Node000033" class="edge">
<title>Node32&#45;&gt;Node33</title>
<g id="a_edge43_Node000032_Node000033"><a xlink:title=" ">
<path fill="none" stroke="#63b8ff" d="M1622.19,-115.81C1608.65,-106.64 1587.33,-92.22 1571.08,-81.23"/>
<polygon fill="#63b8ff" stroke="#63b8ff" points="1573.24,-78.46 1562.99,-75.75 1569.31,-84.25 1573.24,-78.46"/>
</a>
</g>
</g>
<!-- Node34 -->
<g id="Node000034" class="node">
<title>Node34</title>
<g id="a_Node000034"><a xlink:title=" ">
<polygon fill="#e0e0e0" stroke="#999999" points="1655.4,-74.5 1615.4,-74.5 1615.4,-55.25 1655.4,-55.25 1655.4,-74.5"/>
<text text-anchor="middle" x="1635.4" y="-61" font-family="Helvetica,sans-Serif" font-size="10.00">ctime</text>
</a>
</g>
</g>
<!-- Node32&#45;&gt;Node34 -->
<g id="edge44_Node000032_Node000034" class="edge">
<title>Node32&#45;&gt;Node34</title>
<g id="a_edge44_Node000032_Node000034"><a xlink:title=" ">
<path fill="none" stroke="#63b8ff" d="M1635.4,-115.81C1635.4,-108.03 1635.4,-96.45 1635.4,-86.41"/>
<polygon fill="#63b8ff" stroke="#63b8ff" points="1638.9,-86.41 1635.4,-76.41 1631.9,-86.41 1638.9,-86.41"/>
</a>
</g>
</g>
<!-- Node35 -->
<g id="Node000035" class="node">
<title>Node35</title>
<g id="a_Node000035"><a xlink:href="JSONTags_8hpp.html" target="_top" xlink:title=" ">
<polygon fill="white" stroke="#666666" points="1797.78,-74.5 1673.03,-74.5 1673.03,-55.25 1797.78,-55.25 1797.78,-74.5"/>
<text text-anchor="middle" x="1735.4" y="-61" font-family="Helvetica,sans-Serif" font-size="10.00">opmonlib/JSONTags.hpp</text>
</a>
</g>
</g>
<!-- Node32&#45;&gt;Node35 -->
<g id="edge47_Node000032_Node000035" class="edge">
<title>Node32&#45;&gt;Node35</title>
<g id="a_edge47_Node000032_Node000035"><a xlink:title=" ">
<path fill="none" stroke="#63b8ff" d="M1650.59,-115.81C1666.45,-106.47 1691.58,-91.67 1710.38,-80.61"/>
<polygon fill="#63b8ff" stroke="#63b8ff" points="1711.92,-83.76 1718.77,-75.67 1708.37,-77.73 1711.92,-83.76"/>
</a>
</g>
</g>
</g>
</svg>
