<?xml version="1.0" encoding="UTF-8" standalone="no"?>
<!DOCTYPE svg PUBLIC "-//W3C//DTD SVG 1.1//EN"
 "http://www.w3.org/Graphics/SVG/1.1/DTD/svg11.dtd">
<!-- Generated by graphviz version 9.0.0 (20230911.1827)
 -->
<!-- Title: sourcecode/timing/include/timing/SpillInterfaceNode.hpp Pages: 1 -->
<svg width="426pt" height="172pt"
 viewBox="0.00 0.00 425.50 171.50" xmlns="http://www.w3.org/2000/svg" xmlns:xlink="http://www.w3.org/1999/xlink">
<g id="graph0" class="graph" transform="scale(1 1) rotate(0) translate(4 167.5)">
<title>sourcecode/timing/include/timing/SpillInterfaceNode.hpp</title>
<!-- Node1 -->
<g id="Node000001" class="node">
<title>Node1</title>
<g id="a_Node000001"><a xlink:title=" ">
<polygon fill="#999999" stroke="#666666" points="359.12,-163.5 212.62,-163.5 212.62,-133 359.12,-133 359.12,-163.5"/>
<text text-anchor="start" x="220.62" y="-150" font-family="Helvetica,sans-Serif" font-size="10.00">sourcecode/timing/include</text>
<text text-anchor="middle" x="285.88" y="-138.75" font-family="Helvetica,sans-Serif" font-size="10.00">/timing/SpillInterfaceNode.hpp</text>
</a>
</g>
</g>
<!-- Node2 -->
<g id="Node000002" class="node">
<title>Node2</title>
<g id="a_Node000002"><a xlink:href="PDIMasterNode_8hpp.html" target="_top" xlink:title=" ">
<polygon fill="white" stroke="#666666" points="281.88,-97 145.88,-97 145.88,-66.5 281.88,-66.5 281.88,-97"/>
<text text-anchor="start" x="153.88" y="-83.5" font-family="Helvetica,sans-Serif" font-size="10.00">sourcecode/timing/include</text>
<text text-anchor="middle" x="213.88" y="-72.25" font-family="Helvetica,sans-Serif" font-size="10.00">/timing/PDIMasterNode.hpp</text>
</a>
</g>
</g>
<!-- Node1&#45;&gt;Node2 -->
<g id="edge1_Node000001_Node000002" class="edge">
<title>Node1&#45;&gt;Node2</title>
<g id="a_edge1_Node000001_Node000002"><a xlink:title=" ">
<path fill="none" stroke="#63b8ff" d="M261,-124.96C250.79,-115.82 239.25,-105.48 230.15,-97.33"/>
<polygon fill="#63b8ff" stroke="#63b8ff" points="258.63,-127.54 268.41,-131.6 263.3,-122.32 258.63,-127.54"/>
</a>
</g>
</g>
<!-- Node6 -->
<g id="Node000006" class="node">
<title>Node6</title>
<g id="a_Node000006"><a xlink:href="SpillInterfaceNode_8cpp.html" target="_top" xlink:title=" ">
<polygon fill="white" stroke="#666666" points="417.5,-97 300.25,-97 300.25,-66.5 417.5,-66.5 417.5,-97"/>
<text text-anchor="start" x="308.25" y="-83.5" font-family="Helvetica,sans-Serif" font-size="10.00">sourcecode/timing/src</text>
<text text-anchor="middle" x="358.88" y="-72.25" font-family="Helvetica,sans-Serif" font-size="10.00">/SpillInterfaceNode.cpp</text>
</a>
</g>
</g>
<!-- Node1&#45;&gt;Node6 -->
<g id="edge5_Node000001_Node000006" class="edge">
<title>Node1&#45;&gt;Node6</title>
<g id="a_edge5_Node000001_Node000006"><a xlink:title=" ">
<path fill="none" stroke="#63b8ff" d="M310.78,-125.24C321.21,-116.03 333.05,-105.56 342.38,-97.33"/>
<polygon fill="#63b8ff" stroke="#63b8ff" points="308.75,-122.37 303.57,-131.61 313.39,-127.61 308.75,-122.37"/>
</a>
</g>
</g>
<!-- Node3 -->
<g id="Node000003" class="node">
<title>Node3</title>
<g id="a_Node000003"><a xlink:href="master_8cpp.html" target="_top" xlink:title=" ">
<polygon fill="white" stroke="#666666" points="139.75,-30.5 0,-30.5 0,0 139.75,0 139.75,-30.5"/>
<text text-anchor="start" x="8" y="-17" font-family="Helvetica,sans-Serif" font-size="10.00">sourcecode/timing/pybindsrc</text>
<text text-anchor="middle" x="69.88" y="-5.75" font-family="Helvetica,sans-Serif" font-size="10.00">/master.cpp</text>
</a>
</g>
</g>
<!-- Node2&#45;&gt;Node3 -->
<g id="edge2_Node000002_Node000003" class="edge">
<title>Node2&#45;&gt;Node3</title>
<g id="a_edge2_Node000002_Node000003"><a xlink:title=" ">
<path fill="none" stroke="#63b8ff" d="M170.82,-61.47C148.89,-51.64 122.65,-39.89 102.42,-30.83"/>
<polygon fill="#63b8ff" stroke="#63b8ff" points="169.26,-64.6 179.82,-65.5 172.12,-58.21 169.26,-64.6"/>
</a>
</g>
</g>
<!-- Node4 -->
<g id="Node000004" class="node">
<title>Node4</title>
<g id="a_Node000004"><a xlink:href="OverlordDesign_8cpp.html" target="_top" xlink:title=" ">
<polygon fill="white" stroke="#666666" points="269.88,-30.5 157.88,-30.5 157.88,0 269.88,0 269.88,-30.5"/>
<text text-anchor="start" x="165.88" y="-17" font-family="Helvetica,sans-Serif" font-size="10.00">sourcecode/timing/src</text>
<text text-anchor="middle" x="213.88" y="-5.75" font-family="Helvetica,sans-Serif" font-size="10.00">/OverlordDesign.cpp</text>
</a>
</g>
</g>
<!-- Node2&#45;&gt;Node4 -->
<g id="edge3_Node000002_Node000004" class="edge">
<title>Node2&#45;&gt;Node4</title>
<g id="a_edge3_Node000002_Node000004"><a xlink:title=" ">
<path fill="none" stroke="#63b8ff" d="M213.88,-54.81C213.88,-46.64 213.88,-37.91 213.88,-30.83"/>
<polygon fill="#63b8ff" stroke="#63b8ff" points="210.38,-54.6 213.88,-64.6 217.38,-54.6 210.38,-54.6"/>
</a>
</g>
</g>
<!-- Node5 -->
<g id="Node000005" class="node">
<title>Node5</title>
<g id="a_Node000005"><a xlink:href="PDIMasterNode_8cpp.html" target="_top" xlink:title=" ">
<polygon fill="white" stroke="#666666" points="399.88,-30.5 287.88,-30.5 287.88,0 399.88,0 399.88,-30.5"/>
<text text-anchor="start" x="295.88" y="-17" font-family="Helvetica,sans-Serif" font-size="10.00">sourcecode/timing/src</text>
<text text-anchor="middle" x="343.88" y="-5.75" font-family="Helvetica,sans-Serif" font-size="10.00">/PDIMasterNode.cpp</text>
</a>
</g>
</g>
<!-- Node2&#45;&gt;Node5 -->
<g id="edge4_Node000002_Node000005" class="edge">
<title>Node2&#45;&gt;Node5</title>
<g id="a_edge4_Node000002_Node000005"><a xlink:title=" ">
<path fill="none" stroke="#63b8ff" d="M253.56,-61.06C273.19,-51.32 296.48,-39.76 314.49,-30.83"/>
<polygon fill="#63b8ff" stroke="#63b8ff" points="252.13,-57.86 244.73,-65.44 255.24,-64.13 252.13,-57.86"/>
</a>
</g>
</g>
</g>
</svg>
