<?xml version="1.0" encoding="UTF-8" standalone="no"?>
<!DOCTYPE svg PUBLIC "-//W3C//DTD SVG 1.1//EN"
 "http://www.w3.org/Graphics/SVG/1.1/DTD/svg11.dtd">
<!-- Generated by graphviz version 9.0.0 (20230911.1827)
 -->
<!-- Title: sourcecode/dbe/src/object/string_attr_text_edit.cpp Pages: 1 -->
<svg width="539pt" height="172pt"
 viewBox="0.00 0.00 539.03 171.50" xmlns="http://www.w3.org/2000/svg" xmlns:xlink="http://www.w3.org/1999/xlink">
<g id="graph0" class="graph" transform="scale(1 1) rotate(0) translate(4 167.5)">
<title>sourcecode/dbe/src/object/string_attr_text_edit.cpp</title>
<!-- Node1 -->
<g id="Node000001" class="node">
<title>Node1</title>
<g id="a_Node000001"><a xlink:title=" ">
<polygon fill="#999999" stroke="#666666" points="226.66,-163.5 125.16,-163.5 125.16,-121.75 226.66,-121.75 226.66,-163.5"/>
<text text-anchor="start" x="133.16" y="-150" font-family="Helvetica,sans-Serif" font-size="10.00">sourcecode/dbe/src</text>
<text text-anchor="start" x="133.16" y="-138.75" font-family="Helvetica,sans-Serif" font-size="10.00">/object/string_attr</text>
<text text-anchor="middle" x="175.91" y="-127.5" font-family="Helvetica,sans-Serif" font-size="10.00">_text_edit.cpp</text>
</a>
</g>
</g>
<!-- Node2 -->
<g id="Node000002" class="node">
<title>Node2</title>
<g id="a_Node000002"><a xlink:title=" ">
<polygon fill="#e0e0e0" stroke="#999999" points="156.78,-19.25 95.03,-19.25 95.03,0 156.78,0 156.78,-19.25"/>
<text text-anchor="middle" x="125.91" y="-5.75" font-family="Helvetica,sans-Serif" font-size="10.00">QValidator</text>
</a>
</g>
</g>
<!-- Node1&#45;&gt;Node2 -->
<g id="edge1_Node000001_Node000002" class="edge">
<title>Node1&#45;&gt;Node2</title>
<g id="a_edge1_Node000001_Node000002"><a xlink:title=" ">
<path fill="none" stroke="#63b8ff" d="M124.66,-140.02C85.12,-135.76 32.78,-122.87 5.91,-85.75 -2.04,-74.77 -1.83,-66.38 5.91,-55.25 23.28,-30.26 56.4,-19.23 83.46,-14.39"/>
<polygon fill="#63b8ff" stroke="#63b8ff" points="83.77,-17.88 93.12,-12.89 82.7,-10.96 83.77,-17.88"/>
</a>
</g>
</g>
<!-- Node3 -->
<g id="Node000003" class="node">
<title>Node3</title>
<g id="a_Node000003"><a xlink:title=" ">
<polygon fill="#e0e0e0" stroke="#999999" points="86.66,-80.12 15.16,-80.12 15.16,-60.88 86.66,-60.88 86.66,-80.12"/>
<text text-anchor="middle" x="50.91" y="-66.62" font-family="Helvetica,sans-Serif" font-size="10.00">QApplication</text>
</a>
</g>
</g>
<!-- Node1&#45;&gt;Node3 -->
<g id="edge2_Node000001_Node000003" class="edge">
<title>Node1&#45;&gt;Node3</title>
<g id="a_edge2_Node000001_Node000003"><a xlink:title=" ">
<path fill="none" stroke="#63b8ff" d="M139.75,-121.34C119.62,-110.05 95.03,-96.25 76.82,-86.04"/>
<polygon fill="#63b8ff" stroke="#63b8ff" points="78.68,-83.07 68.24,-81.23 75.25,-89.17 78.68,-83.07"/>
</a>
</g>
</g>
<!-- Node4 -->
<g id="Node000004" class="node">
<title>Node4</title>
<g id="a_Node000004"><a xlink:title=" ">
<polygon fill="#e0e0e0" stroke="#999999" points="152.66,-80.12 105.16,-80.12 105.16,-60.88 152.66,-60.88 152.66,-80.12"/>
<text text-anchor="middle" x="128.91" y="-66.62" font-family="Helvetica,sans-Serif" font-size="10.00">QMenu</text>
</a>
</g>
</g>
<!-- Node1&#45;&gt;Node4 -->
<g id="edge3_Node000001_Node000004" class="edge">
<title>Node1&#45;&gt;Node4</title>
<g id="a_edge3_Node000001_Node000004"><a xlink:title=" ">
<path fill="none" stroke="#63b8ff" d="M162.31,-121.34C155.62,-111.36 147.62,-99.42 141.13,-89.73"/>
<polygon fill="#63b8ff" stroke="#63b8ff" points="144.13,-87.92 135.65,-81.56 138.31,-91.81 144.13,-87.92"/>
</a>
</g>
</g>
<!-- Node5 -->
<g id="Node000005" class="node">
<title>Node5</title>
<g id="a_Node000005"><a xlink:title=" ">
<polygon fill="#e0e0e0" stroke="#999999" points="275.53,-80.12 170.28,-80.12 170.28,-60.88 275.53,-60.88 275.53,-80.12"/>
<text text-anchor="middle" x="222.91" y="-66.62" font-family="Helvetica,sans-Serif" font-size="10.00">QContextMenuEvent</text>
</a>
</g>
</g>
<!-- Node1&#45;&gt;Node5 -->
<g id="edge4_Node000001_Node000005" class="edge">
<title>Node1&#45;&gt;Node5</title>
<g id="a_edge4_Node000001_Node000005"><a xlink:title=" ">
<path fill="none" stroke="#63b8ff" d="M189.5,-121.34C196.19,-111.36 204.19,-99.42 210.69,-89.73"/>
<polygon fill="#63b8ff" stroke="#63b8ff" points="213.51,-91.81 216.17,-81.56 207.69,-87.92 213.51,-91.81"/>
</a>
</g>
</g>
<!-- Node6 -->
<g id="Node000006" class="node">
<title>Node6</title>
<g id="a_Node000006"><a xlink:href="string__attr__text__edit_8hpp.html" target="_top" xlink:title=" ">
<polygon fill="white" stroke="#666666" points="392.53,-85.75 293.28,-85.75 293.28,-55.25 392.53,-55.25 392.53,-85.75"/>
<text text-anchor="start" x="301.28" y="-72.25" font-family="Helvetica,sans-Serif" font-size="10.00">dbe/string_attr_text</text>
<text text-anchor="middle" x="342.91" y="-61" font-family="Helvetica,sans-Serif" font-size="10.00">_edit.hpp</text>
</a>
</g>
</g>
<!-- Node1&#45;&gt;Node6 -->
<g id="edge5_Node000001_Node000006" class="edge">
<title>Node1&#45;&gt;Node6</title>
<g id="a_edge5_Node000001_Node000006"><a xlink:title=" ">
<path fill="none" stroke="#63b8ff" d="M224.21,-121.34C247.33,-111.63 274.86,-100.08 297.58,-90.54"/>
<polygon fill="#63b8ff" stroke="#63b8ff" points="298.71,-93.85 306.58,-86.76 296,-87.4 298.71,-93.85"/>
</a>
</g>
</g>
<!-- Node8 -->
<g id="Node000008" class="node">
<title>Node8</title>
<g id="a_Node000008"><a xlink:href="StyleUtility_8hpp.html" target="_top" xlink:title=" ">
<polygon fill="white" stroke="#666666" points="509.53,-80.12 410.28,-80.12 410.28,-60.88 509.53,-60.88 509.53,-80.12"/>
<text text-anchor="middle" x="459.91" y="-66.62" font-family="Helvetica,sans-Serif" font-size="10.00">dbe/StyleUtility.hpp</text>
</a>
</g>
</g>
<!-- Node1&#45;&gt;Node8 -->
<g id="edge8_Node000001_Node000008" class="edge">
<title>Node1&#45;&gt;Node8</title>
<g id="a_edge8_Node000001_Node000008"><a xlink:title=" ">
<path fill="none" stroke="#63b8ff" d="M227.01,-129.01C279.57,-116.03 360.79,-95.97 412.11,-83.3"/>
<polygon fill="#63b8ff" stroke="#63b8ff" points="412.87,-86.72 421.74,-80.92 411.19,-79.92 412.87,-86.72"/>
</a>
</g>
</g>
<!-- Node6&#45;&gt;Node2 -->
<g id="edge7_Node000006_Node000002" class="edge">
<title>Node6&#45;&gt;Node2</title>
<g id="a_edge7_Node000006_Node000002"><a xlink:title=" ">
<path fill="none" stroke="#63b8ff" d="M292.85,-55.92C255.13,-45.68 203.97,-31.8 168.27,-22.12"/>
<polygon fill="#63b8ff" stroke="#63b8ff" points="169.28,-18.77 158.71,-19.53 167.45,-25.52 169.28,-18.77"/>
</a>
</g>
</g>
<!-- Node7 -->
<g id="Node000007" class="node">
<title>Node7</title>
<g id="a_Node000007"><a xlink:title=" ">
<polygon fill="#e0e0e0" stroke="#999999" points="372.28,-19.25 313.53,-19.25 313.53,0 372.28,0 372.28,-19.25"/>
<text text-anchor="middle" x="342.91" y="-5.75" font-family="Helvetica,sans-Serif" font-size="10.00">QTextEdit</text>
</a>
</g>
</g>
<!-- Node6&#45;&gt;Node7 -->
<g id="edge6_Node000006_Node000007" class="edge">
<title>Node6&#45;&gt;Node7</title>
<g id="a_edge6_Node000006_Node000007"><a xlink:title=" ">
<path fill="none" stroke="#63b8ff" d="M342.91,-54.95C342.91,-47.71 342.91,-38.84 342.91,-30.94"/>
<polygon fill="#63b8ff" stroke="#63b8ff" points="346.41,-31.21 342.91,-21.21 339.41,-31.21 346.41,-31.21"/>
</a>
</g>
</g>
<!-- Node9 -->
<g id="Node000009" class="node">
<title>Node9</title>
<g id="a_Node000009"><a xlink:title=" ">
<polygon fill="#e0e0e0" stroke="#999999" points="458.91,-19.25 412.91,-19.25 412.91,0 458.91,0 458.91,-19.25"/>
<text text-anchor="middle" x="435.91" y="-5.75" font-family="Helvetica,sans-Serif" font-size="10.00">QColor</text>
</a>
</g>
</g>
<!-- Node8&#45;&gt;Node9 -->
<g id="edge9_Node000008_Node000009" class="edge">
<title>Node8&#45;&gt;Node9</title>
<g id="a_edge9_Node000008_Node000009"><a xlink:title=" ">
<path fill="none" stroke="#63b8ff" d="M456.26,-60.56C452.99,-52.52 448.06,-40.43 443.87,-30.16"/>
<polygon fill="#63b8ff" stroke="#63b8ff" points="447.18,-28.99 440.16,-21.05 440.69,-31.63 447.18,-28.99"/>
</a>
</g>
</g>
<!-- Node10 -->
<g id="Node000010" class="node">
<title>Node10</title>
<g id="a_Node000010"><a xlink:title=" ">
<polygon fill="#e0e0e0" stroke="#999999" points="531.03,-19.25 476.78,-19.25 476.78,0 531.03,0 531.03,-19.25"/>
<text text-anchor="middle" x="503.91" y="-5.75" font-family="Helvetica,sans-Serif" font-size="10.00">QPalette</text>
</a>
</g>
</g>
<!-- Node8&#45;&gt;Node10 -->
<g id="edge10_Node000008_Node000010" class="edge">
<title>Node8&#45;&gt;Node10</title>
<g id="a_edge10_Node000008_Node000010"><a xlink:title=" ">
<path fill="none" stroke="#63b8ff" d="M466.59,-60.56C472.86,-52.17 482.42,-39.38 490.29,-28.84"/>
<polygon fill="#63b8ff" stroke="#63b8ff" points="493.07,-30.97 496.26,-20.86 487.47,-26.78 493.07,-30.97"/>
</a>
</g>
</g>
</g>
</svg>
