<?xml version="1.0" encoding="UTF-8" standalone="no"?>
<!DOCTYPE svg PUBLIC "-//W3C//DTD SVG 1.1//EN"
 "http://www.w3.org/Graphics/SVG/1.1/DTD/svg11.dtd">
<!-- Generated by graphviz version 9.0.0 (20230911.1827)
 -->
<!-- Title: sourcecode/dbe/include/dbe/string_attr_text_edit.hpp Pages: 1 -->
<svg width="146pt" height="105pt"
 viewBox="0.00 0.00 146.25 105.00" xmlns="http://www.w3.org/2000/svg" xmlns:xlink="http://www.w3.org/1999/xlink">
<g id="graph0" class="graph" transform="scale(1 1) rotate(0) translate(4 101)">
<title>sourcecode/dbe/include/dbe/string_attr_text_edit.hpp</title>
<!-- Node1 -->
<g id="Node000001" class="node">
<title>Node1</title>
<g id="a_Node000001"><a xlink:title=" ">
<polygon fill="#999999" stroke="#666666" points="127.75,-97 9,-97 9,-55.25 127.75,-55.25 127.75,-97"/>
<text text-anchor="start" x="17" y="-83.5" font-family="Helvetica,sans-Serif" font-size="10.00">sourcecode/dbe/include</text>
<text text-anchor="start" x="17" y="-72.25" font-family="Helvetica,sans-Serif" font-size="10.00">/dbe/string_attr_text</text>
<text text-anchor="middle" x="68.38" y="-61" font-family="Helvetica,sans-Serif" font-size="10.00">_edit.hpp</text>
</a>
</g>
</g>
<!-- Node2 -->
<g id="Node000002" class="node">
<title>Node2</title>
<g id="a_Node000002"><a xlink:title=" ">
<polygon fill="#e0e0e0" stroke="#999999" points="58.75,-19.25 0,-19.25 0,0 58.75,0 58.75,-19.25"/>
<text text-anchor="middle" x="29.38" y="-5.75" font-family="Helvetica,sans-Serif" font-size="10.00">QTextEdit</text>
</a>
</g>
</g>
<!-- Node1&#45;&gt;Node2 -->
<g id="edge1_Node000001_Node000002" class="edge">
<title>Node1&#45;&gt;Node2</title>
<g id="a_edge1_Node000001_Node000002"><a xlink:title=" ">
<path fill="none" stroke="#63b8ff" d="M56.25,-55.07C51.27,-46.84 45.55,-37.37 40.66,-29.29"/>
<polygon fill="#63b8ff" stroke="#63b8ff" points="43.81,-27.74 35.64,-20.99 37.82,-31.36 43.81,-27.74"/>
</a>
</g>
</g>
<!-- Node3 -->
<g id="Node000003" class="node">
<title>Node3</title>
<g id="a_Node000003"><a xlink:title=" ">
<polygon fill="#e0e0e0" stroke="#999999" points="138.25,-19.25 76.5,-19.25 76.5,0 138.25,0 138.25,-19.25"/>
<text text-anchor="middle" x="107.38" y="-5.75" font-family="Helvetica,sans-Serif" font-size="10.00">QValidator</text>
</a>
</g>
</g>
<!-- Node1&#45;&gt;Node3 -->
<g id="edge2_Node000001_Node000003" class="edge">
<title>Node1&#45;&gt;Node3</title>
<g id="a_edge2_Node000001_Node000003"><a xlink:title=" ">
<path fill="none" stroke="#63b8ff" d="M80.5,-55.07C85.48,-46.84 91.2,-37.37 96.09,-29.29"/>
<polygon fill="#63b8ff" stroke="#63b8ff" points="98.93,-31.36 101.11,-20.99 92.94,-27.74 98.93,-31.36"/>
</a>
</g>
</g>
</g>
</svg>
