<?xml version="1.0" encoding="UTF-8" standalone="no"?>
<!DOCTYPE svg PUBLIC "-//W3C//DTD SVG 1.1//EN"
 "http://www.w3.org/Graphics/SVG/1.1/DTD/svg11.dtd">
<!-- Generated by graphviz version 9.0.0 (20230911.1827)
 -->
<!-- Title: sourcecode/okssystem/include/okssystem/StringMemoryArea.hpp Pages: 1 -->
<svg width="171pt" height="105pt"
 viewBox="0.00 0.00 171.00 105.00" xmlns="http://www.w3.org/2000/svg" xmlns:xlink="http://www.w3.org/1999/xlink">
<g id="graph0" class="graph" transform="scale(1 1) rotate(0) translate(4 101)">
<title>sourcecode/okssystem/include/okssystem/StringMemoryArea.hpp</title>
<!-- Node1 -->
<g id="Node000001" class="node">
<title>Node1</title>
<g id="a_Node000001"><a xlink:title=" ">
<polygon fill="#999999" stroke="#666666" points="163,-97 0,-97 0,-55.25 163,-55.25 163,-97"/>
<text text-anchor="start" x="8" y="-83.5" font-family="Helvetica,sans-Serif" font-size="10.00">sourcecode/okssystem</text>
<text text-anchor="start" x="8" y="-72.25" font-family="Helvetica,sans-Serif" font-size="10.00">/include/okssystem/StringMemory</text>
<text text-anchor="middle" x="81.5" y="-61" font-family="Helvetica,sans-Serif" font-size="10.00">Area.hpp</text>
</a>
</g>
</g>
<!-- Node2 -->
<g id="Node000002" class="node">
<title>Node2</title>
<g id="a_Node000002"><a xlink:title=" ">
<polygon fill="#e0e0e0" stroke="#999999" points="70.88,-19.25 36.12,-19.25 36.12,0 70.88,0 70.88,-19.25"/>
<text text-anchor="middle" x="53.5" y="-5.75" font-family="Helvetica,sans-Serif" font-size="10.00">map</text>
</a>
</g>
</g>
<!-- Node1&#45;&gt;Node2 -->
<g id="edge1_Node000001_Node000002" class="edge">
<title>Node1&#45;&gt;Node2</title>
<g id="a_edge1_Node000001_Node000002"><a xlink:title=" ">
<path fill="none" stroke="#63b8ff" d="M72.79,-55.07C69.34,-47.12 65.39,-38.01 61.96,-30.11"/>
<polygon fill="#63b8ff" stroke="#63b8ff" points="65.23,-28.86 58.04,-21.08 58.81,-31.65 65.23,-28.86"/>
</a>
</g>
</g>
<!-- Node3 -->
<g id="Node000003" class="node">
<title>Node3</title>
<g id="a_Node000003"><a xlink:title=" ">
<polygon fill="#e0e0e0" stroke="#999999" points="132,-19.25 89,-19.25 89,0 132,0 132,-19.25"/>
<text text-anchor="middle" x="110.5" y="-5.75" font-family="Helvetica,sans-Serif" font-size="10.00">vector</text>
</a>
</g>
</g>
<!-- Node1&#45;&gt;Node3 -->
<g id="edge2_Node000001_Node000003" class="edge">
<title>Node1&#45;&gt;Node3</title>
<g id="a_edge2_Node000001_Node000003"><a xlink:title=" ">
<path fill="none" stroke="#63b8ff" d="M90.52,-55.07C94.09,-47.12 98.19,-38.01 101.74,-30.11"/>
<polygon fill="#63b8ff" stroke="#63b8ff" points="104.89,-31.63 105.8,-21.08 98.51,-28.76 104.89,-31.63"/>
</a>
</g>
</g>
</g>
</svg>
