<?xml version="1.0" encoding="UTF-8" standalone="no"?>
<!DOCTYPE svg PUBLIC "-//W3C//DTD SVG 1.1//EN"
 "http://www.w3.org/Graphics/SVG/1.1/DTD/svg11.dtd">
<!-- Generated by graphviz version 9.0.0 (20230911.1827)
 -->
<!-- Title: dunedaq::oksdbinterfaces::DalFactoryFunctions Pages: 1 -->
<svg width="1967pt" height="359pt"
 viewBox="0.00 0.00 1966.50 358.88" xmlns="http://www.w3.org/2000/svg" xmlns:xlink="http://www.w3.org/1999/xlink">
<g id="graph0" class="graph" transform="scale(1 1) rotate(0) translate(4 354.88)">
<title>dunedaq::oksdbinterfaces::DalFactoryFunctions</title>
<!-- Node1 -->
<g id="Node000001" class="node">
<title>Node1</title>
<g id="a_Node000001"><a xlink:title=" ">
<polygon fill="#999999" stroke="#666666" points="1703.25,-153.38 1577,-153.38 1577,-122.88 1703.25,-122.88 1703.25,-153.38"/>
<text text-anchor="start" x="1585" y="-139.88" font-family="Helvetica,sans-Serif" font-size="10.00">dunedaq::oksdbinterfaces</text>
<text text-anchor="middle" x="1640.12" y="-128.62" font-family="Helvetica,sans-Serif" font-size="10.00">::DalFactoryFunctions</text>
</a>
</g>
</g>
<!-- Node14 -->
<g id="Node000014" class="node">
<title>Node14</title>
<g id="a_Node000014"><a xlink:href="classdunedaq_1_1oksdbinterfaces_1_1CacheBase.html" target="_top" xlink:title="Defines base class for cache of template objects.">
<polygon fill="white" stroke="#666666" points="1958.5,-153.38 1832.25,-153.38 1832.25,-122.88 1958.5,-122.88 1958.5,-153.38"/>
<text text-anchor="start" x="1840.25" y="-139.88" font-family="Helvetica,sans-Serif" font-size="10.00">dunedaq::oksdbinterfaces</text>
<text text-anchor="middle" x="1895.38" y="-128.62" font-family="Helvetica,sans-Serif" font-size="10.00">::CacheBase</text>
</a>
</g>
</g>
<!-- Node1&#45;&gt;Node14 -->
<g id="edge15_Node000014_Node000001" class="edge">
<title>Node1&#45;&gt;Node14</title>
<g id="a_edge15_Node000014_Node000001"><a xlink:title=" ">
<path fill="none" stroke="#9a32cd" stroke-dasharray="5,2" d="M1715.02,-139.08C1717.12,-139.1 1719.2,-139.11 1721.25,-139.12 1762.58,-139.38 1772.92,-139.38 1814.25,-139.12 1819.95,-139.09 1825.89,-139.04 1831.83,-138.98"/>
<polygon fill="#9a32cd" stroke="#9a32cd" points="1715.22,-135.58 1705.19,-138.99 1715.16,-142.58 1715.22,-135.58"/>
</a>
</g>
<text text-anchor="middle" x="1767.75" y="-141.88" font-family="Helvetica,sans-Serif" font-size="10.00" fill="grey"> m_functions</text>
</g>
<!-- Node2 -->
<g id="Node000002" class="node">
<title>Node2</title>
<g id="a_Node000002"><a xlink:href="classdunedaq_1_1oksdbinterfaces_1_1Configuration.html" target="_top" xlink:title=" ">
<polygon fill="white" stroke="#666666" points="626.12,-183.38 499.88,-183.38 499.88,-152.88 626.12,-152.88 626.12,-183.38"/>
<text text-anchor="start" x="507.88" y="-169.88" font-family="Helvetica,sans-Serif" font-size="10.00">dunedaq::oksdbinterfaces</text>
<text text-anchor="middle" x="563" y="-158.62" font-family="Helvetica,sans-Serif" font-size="10.00">::Configuration</text>
</a>
</g>
</g>
<!-- Node2&#45;&gt;Node1 -->
<g id="edge1_Node000001_Node000002" class="edge">
<title>Node2&#45;&gt;Node1</title>
<g id="a_edge1_Node000001_Node000002"><a xlink:title=" ">
<path fill="none" stroke="#9a32cd" stroke-dasharray="5,2" d="M628.37,-149.57C678.33,-136.79 749.54,-122.12 813.12,-122.12 813.12,-122.12 813.12,-122.12 1419.62,-122.12 1472.74,-122.12 1532.88,-126.84 1576.77,-131.15"/>
<polygon fill="#9a32cd" stroke="#9a32cd" points="627.67,-146.13 618.88,-152.04 629.44,-152.9 627.67,-146.13"/>
</a>
</g>
<text text-anchor="middle" x="1120.5" y="-123.88" font-family="Helvetica,sans-Serif" font-size="10.00" fill="grey"> m_update_fn</text>
</g>
<!-- Node11 -->
<g id="Node000011" class="node">
<title>Node11</title>
<g id="a_Node000011"><a xlink:href="classdunedaq_1_1oksdbinterfaces_1_1ConfigurationImpl.html" target="_top" xlink:title="Provides pure virtual interface used by the Configuration class.">
<polygon fill="white" stroke="#666666" points="877.25,-247.38 751,-247.38 751,-216.88 877.25,-216.88 877.25,-247.38"/>
<text text-anchor="start" x="759" y="-233.88" font-family="Helvetica,sans-Serif" font-size="10.00">dunedaq::oksdbinterfaces</text>
<text text-anchor="middle" x="814.12" y="-222.62" font-family="Helvetica,sans-Serif" font-size="10.00">::ConfigurationImpl</text>
</a>
</g>
</g>
<!-- Node2&#45;&gt;Node11 -->
<g id="edge13_Node000011_Node000002" class="edge">
<title>Node2&#45;&gt;Node11</title>
<g id="a_edge13_Node000011_Node000002"><a xlink:title=" ">
<path fill="none" stroke="#9a32cd" stroke-dasharray="5,2" d="M602.02,-188.77C619.9,-197.61 641.79,-207.24 662.5,-213.12 690.89,-221.2 723.27,-225.84 750.72,-228.52"/>
<polygon fill="#9a32cd" stroke="#9a32cd" points="603.86,-185.78 593.35,-184.37 600.69,-192.02 603.86,-185.78"/>
</a>
</g>
<text text-anchor="middle" x="697.75" y="-228.88" font-family="Helvetica,sans-Serif" font-size="10.00" fill="grey"> m_conf</text>
</g>
<!-- Node15 -->
<g id="Node000015" class="node">
<title>Node15</title>
<g id="a_Node000015"><a xlink:href="classdunedaq_1_1oksdbinterfaces_1_1DalObject.html" target="_top" xlink:title="The base class for any generated DAL object.">
<polygon fill="white" stroke="#666666" points="1481.75,-183.38 1355.5,-183.38 1355.5,-152.88 1481.75,-152.88 1481.75,-183.38"/>
<text text-anchor="start" x="1363.5" y="-169.88" font-family="Helvetica,sans-Serif" font-size="10.00">dunedaq::oksdbinterfaces</text>
<text text-anchor="middle" x="1418.62" y="-158.62" font-family="Helvetica,sans-Serif" font-size="10.00">::DalObject</text>
</a>
</g>
</g>
<!-- Node2&#45;&gt;Node15 -->
<g id="edge17_Node000015_Node000002" class="edge">
<title>Node2&#45;&gt;Node15</title>
<g id="a_edge17_Node000015_Node000002"><a xlink:title=" ">
<path fill="none" stroke="#9a32cd" stroke-dasharray="5,2" d="M637.71,-168.12C687.3,-168.12 754.14,-168.12 813.12,-168.12 813.12,-168.12 813.12,-168.12 1231.88,-168.12 1272.99,-168.12 1319.23,-168.12 1355.28,-168.12"/>
<polygon fill="#9a32cd" stroke="#9a32cd" points="637.97,-164.63 627.97,-168.13 637.97,-171.63 637.97,-164.63"/>
</a>
</g>
<text text-anchor="middle" x="1010.12" y="-169.88" font-family="Helvetica,sans-Serif" font-size="10.00" fill="grey"> p_db</text>
</g>
<!-- Node3 -->
<g id="Node000003" class="node">
<title>Node3</title>
<g id="a_Node000003"><a xlink:href="classdunedaq_1_1oksdbinterfaces_1_1map.html" target="_top" xlink:title=" ">
<polygon fill="white" stroke="#666666" points="356.25,-194 198.5,-194 198.5,-152.25 356.25,-152.25 356.25,-194"/>
<text text-anchor="start" x="206.5" y="-180.5" font-family="Helvetica,sans-Serif" font-size="10.00">dunedaq::oksdbinterfaces</text>
<text text-anchor="start" x="206.5" y="-169.25" font-family="Helvetica,sans-Serif" font-size="10.00">::map&lt; dunedaq::oksdbinterfaces</text>
<text text-anchor="middle" x="277.38" y="-158" font-family="Helvetica,sans-Serif" font-size="10.00">::class_t * &gt;</text>
</a>
</g>
</g>
<!-- Node3&#45;&gt;Node2 -->
<g id="edge2_Node000002_Node000003" class="edge">
<title>Node3&#45;&gt;Node2</title>
<g id="a_edge2_Node000002_Node000003"><a xlink:title=" ">
<path fill="none" stroke="#9a32cd" stroke-dasharray="5,2" d="M367.72,-169.33C370.43,-169.25 373.11,-169.19 375.75,-169.12 416.97,-168.17 463.33,-167.92 499.48,-167.9"/>
<polygon fill="#9a32cd" stroke="#9a32cd" points="367.9,-165.82 358.01,-169.62 368.11,-172.82 367.9,-165.82"/>
</a>
</g>
<text text-anchor="start" x="375.75" y="-204.62" font-family="Helvetica,sans-Serif" font-size="10.00" fill="grey"> p_all_classes_desc</text>
<text text-anchor="middle" x="419.62" y="-193.38" font-family="Helvetica,sans-Serif" font-size="10.00" fill="grey">_cache</text>
<text text-anchor="start" x="375.75" y="-182.12" font-family="Helvetica,sans-Serif" font-size="10.00" fill="grey">p_direct_classes</text>
<text text-anchor="middle" x="419.62" y="-170.88" font-family="Helvetica,sans-Serif" font-size="10.00" fill="grey">_desc_cache</text>
</g>
<!-- Node4 -->
<g id="Node000004" class="node">
<title>Node4</title>
<g id="a_Node000004"><a xlink:title=" ">
<polygon fill="white" stroke="#666666" points="149.88,-195 10.12,-195 10.12,-153.25 149.88,-153.25 149.88,-195"/>
<text text-anchor="start" x="18.12" y="-181.5" font-family="Helvetica,sans-Serif" font-size="10.00">std::unordered_map</text>
<text text-anchor="start" x="18.12" y="-170.25" font-family="Helvetica,sans-Serif" font-size="10.00">&lt; std::string, dunedaq</text>
<text text-anchor="middle" x="80" y="-159" font-family="Helvetica,sans-Serif" font-size="10.00">::oksdbinterfaces::class_t * &gt;</text>
</a>
</g>
</g>
<!-- Node4&#45;&gt;Node3 -->
<g id="edge3_Node000003_Node000004" class="edge">
<title>Node4&#45;&gt;Node3</title>
<g id="a_edge3_Node000003_Node000004"><a xlink:title=" ">
<path fill="none" stroke="#63b8ff" d="M161.64,-173.71C173.77,-173.65 186.25,-173.59 198.32,-173.52"/>
<polygon fill="#63b8ff" stroke="#63b8ff" points="161.65,-170.21 151.67,-173.76 161.69,-177.21 161.65,-170.21"/>
</a>
</g>
</g>
<!-- Node5 -->
<g id="Node000005" class="node">
<title>Node5</title>
<g id="a_Node000005"><a xlink:href="classdunedaq_1_1oksdbinterfaces_1_1fmap.html" target="_top" xlink:title=" ">
<polygon fill="white" stroke="#666666" points="340.5,-132 214.25,-132 214.25,-90.25 340.5,-90.25 340.5,-132"/>
<text text-anchor="start" x="222.25" y="-118.5" font-family="Helvetica,sans-Serif" font-size="10.00">dunedaq::oksdbinterfaces</text>
<text text-anchor="start" x="222.25" y="-107.25" font-family="Helvetica,sans-Serif" font-size="10.00">::fmap&lt; oksdbinterfaces</text>
<text text-anchor="middle" x="277.38" y="-96" font-family="Helvetica,sans-Serif" font-size="10.00">::fset &gt;</text>
</a>
</g>
</g>
<!-- Node5&#45;&gt;Node2 -->
<g id="edge4_Node000002_Node000005" class="edge">
<title>Node5&#45;&gt;Node2</title>
<g id="a_edge4_Node000002_Node000005"><a xlink:title=" ">
<path fill="none" stroke="#9a32cd" stroke-dasharray="5,2" d="M352.07,-121.54C386.13,-126.8 427.03,-133.74 463.5,-141.62 477.87,-144.73 493.27,-148.61 507.53,-152.43"/>
<polygon fill="#9a32cd" stroke="#9a32cd" points="352.71,-118.1 342.29,-120.05 351.65,-125.02 352.71,-118.1"/>
</a>
</g>
<text text-anchor="middle" x="419.62" y="-155.12" font-family="Helvetica,sans-Serif" font-size="10.00" fill="grey"> p_subclasses</text>
<text text-anchor="middle" x="419.62" y="-143.88" font-family="Helvetica,sans-Serif" font-size="10.00" fill="grey">p_superclasses</text>
</g>
<!-- Node6 -->
<g id="Node000006" class="node">
<title>Node6</title>
<g id="a_Node000006"><a xlink:title=" ">
<polygon fill="white" stroke="#666666" points="137.5,-135.62 22.5,-135.62 22.5,-82.62 137.5,-82.62 137.5,-135.62"/>
<text text-anchor="start" x="30.5" y="-122.12" font-family="Helvetica,sans-Serif" font-size="10.00">std::unordered_map</text>
<text text-anchor="start" x="30.5" y="-110.88" font-family="Helvetica,sans-Serif" font-size="10.00">&lt; const std::string</text>
<text text-anchor="start" x="30.5" y="-99.62" font-family="Helvetica,sans-Serif" font-size="10.00"> *, oksdbinterfaces::</text>
<text text-anchor="middle" x="80" y="-88.38" font-family="Helvetica,sans-Serif" font-size="10.00">fset , string_ptr_hash &gt;</text>
</a>
</g>
</g>
<!-- Node6&#45;&gt;Node5 -->
<g id="edge5_Node000005_Node000006" class="edge">
<title>Node6&#45;&gt;Node5</title>
<g id="a_edge5_Node000005_Node000006"><a xlink:title=" ">
<path fill="none" stroke="#63b8ff" d="M149.23,-109.82C170.28,-110.04 193.35,-110.28 213.98,-110.49"/>
<polygon fill="#63b8ff" stroke="#63b8ff" points="149.32,-106.32 139.29,-109.72 149.25,-113.32 149.32,-106.32"/>
</a>
</g>
</g>
<!-- Node7 -->
<g id="Node000007" class="node">
<title>Node7</title>
<g id="a_Node000007"><a xlink:href="classdunedaq_1_1oksdbinterfaces_1_1map.html" target="_top" xlink:title=" ">
<polygon fill="white" stroke="#666666" points="352.5,-64.62 202.25,-64.62 202.25,-11.62 352.5,-11.62 352.5,-64.62"/>
<text text-anchor="start" x="210.25" y="-51.12" font-family="Helvetica,sans-Serif" font-size="10.00">dunedaq::oksdbinterfaces</text>
<text text-anchor="start" x="210.25" y="-39.88" font-family="Helvetica,sans-Serif" font-size="10.00">::map&lt; std::list&lt; dunedaq</text>
<text text-anchor="start" x="210.25" y="-28.62" font-family="Helvetica,sans-Serif" font-size="10.00">::oksdbinterfaces::Configuration</text>
<text text-anchor="middle" x="277.38" y="-17.38" font-family="Helvetica,sans-Serif" font-size="10.00">::AttributeConverterBase * &gt; * &gt;</text>
</a>
</g>
</g>
<!-- Node7&#45;&gt;Node2 -->
<g id="edge6_Node000002_Node000007" class="edge">
<title>Node7&#45;&gt;Node2</title>
<g id="a_edge6_Node000002_Node000007"><a xlink:title=" ">
<path fill="none" stroke="#9a32cd" stroke-dasharray="5,2" d="M363.52,-68.47C395.35,-80.62 431.52,-95.41 463.5,-110.88 489.5,-123.45 517.88,-140.3 537.47,-152.46"/>
<polygon fill="#9a32cd" stroke="#9a32cd" points="364.91,-65.26 354.32,-64.99 362.43,-71.8 364.91,-65.26"/>
</a>
</g>
<text text-anchor="middle" x="419.62" y="-112.88" font-family="Helvetica,sans-Serif" font-size="10.00" fill="grey"> m_convert_map</text>
</g>
<!-- Node8 -->
<g id="Node000008" class="node">
<title>Node8</title>
<g id="a_Node000008"><a xlink:title=" ">
<polygon fill="white" stroke="#666666" points="160,-64.25 0,-64.25 0,0 160,0 160,-64.25"/>
<text text-anchor="start" x="8" y="-50.75" font-family="Helvetica,sans-Serif" font-size="10.00">std::unordered_map</text>
<text text-anchor="start" x="8" y="-39.5" font-family="Helvetica,sans-Serif" font-size="10.00">&lt; std::string, std::</text>
<text text-anchor="start" x="8" y="-28.25" font-family="Helvetica,sans-Serif" font-size="10.00">list&lt; dunedaq::oksdbinterfaces</text>
<text text-anchor="start" x="8" y="-17" font-family="Helvetica,sans-Serif" font-size="10.00">::Configuration::AttributeConverter</text>
<text text-anchor="middle" x="80" y="-5.75" font-family="Helvetica,sans-Serif" font-size="10.00">Base * &gt; * &gt;</text>
</a>
</g>
</g>
<!-- Node8&#45;&gt;Node7 -->
<g id="edge7_Node000007_Node000008" class="edge">
<title>Node8&#45;&gt;Node7</title>
<g id="a_edge7_Node000007_Node000008"><a xlink:title=" ">
<path fill="none" stroke="#63b8ff" d="M171.82,-34.91C181.94,-35.22 192.15,-35.54 202.02,-35.84"/>
<polygon fill="#63b8ff" stroke="#63b8ff" points="172.08,-31.42 161.98,-34.61 171.87,-38.42 172.08,-31.42"/>
</a>
</g>
</g>
<!-- Node9 -->
<g id="Node000009" class="node">
<title>Node9</title>
<g id="a_Node000009"><a xlink:href="classdunedaq_1_1oksdbinterfaces_1_1fmap.html" target="_top" xlink:title=" ">
<polygon fill="white" stroke="#666666" points="357.75,-257 197,-257 197,-215.25 357.75,-215.25 357.75,-257"/>
<text text-anchor="start" x="205" y="-243.5" font-family="Helvetica,sans-Serif" font-size="10.00">dunedaq::oksdbinterfaces</text>
<text text-anchor="start" x="205" y="-232.25" font-family="Helvetica,sans-Serif" font-size="10.00">::fmap&lt; dunedaq::oksdbinterfaces</text>
<text text-anchor="middle" x="277.38" y="-221" font-family="Helvetica,sans-Serif" font-size="10.00">::CacheBase * &gt;</text>
</a>
</g>
</g>
<!-- Node9&#45;&gt;Node2 -->
<g id="edge8_Node000002_Node000009" class="edge">
<title>Node9&#45;&gt;Node2</title>
<g id="a_edge8_Node000002_Node000009"><a xlink:title=" ">
<path fill="none" stroke="#9a32cd" stroke-dasharray="5,2" d="M369.29,-231.13C399.66,-227.93 433.42,-222.7 463.5,-214.12 488.73,-206.94 515.6,-193.99 534.89,-183.66"/>
<polygon fill="#9a32cd" stroke="#9a32cd" points="368.95,-227.65 359.34,-232.11 369.64,-234.61 368.95,-227.65"/>
</a>
</g>
<text text-anchor="middle" x="419.62" y="-231.88" font-family="Helvetica,sans-Serif" font-size="10.00" fill="grey"> m_cache_map</text>
</g>
<!-- Node10 -->
<g id="Node000010" class="node">
<title>Node10</title>
<g id="a_Node000010"><a xlink:title=" ">
<polygon fill="white" stroke="#666666" points="158.5,-265.62 1.5,-265.62 1.5,-212.62 158.5,-212.62 158.5,-265.62"/>
<text text-anchor="start" x="9.5" y="-252.12" font-family="Helvetica,sans-Serif" font-size="10.00">std::unordered_map</text>
<text text-anchor="start" x="9.5" y="-240.88" font-family="Helvetica,sans-Serif" font-size="10.00">&lt; const std::string</text>
<text text-anchor="start" x="9.5" y="-229.62" font-family="Helvetica,sans-Serif" font-size="10.00"> *, dunedaq::oksdbinterfaces</text>
<text text-anchor="middle" x="80" y="-218.38" font-family="Helvetica,sans-Serif" font-size="10.00">::CacheBase *, string_ptr_hash &gt;</text>
</a>
</g>
</g>
<!-- Node10&#45;&gt;Node9 -->
<g id="edge9_Node000009_Node000010" class="edge">
<title>Node10&#45;&gt;Node9</title>
<g id="a_edge9_Node000009_Node000010"><a xlink:title=" ">
<path fill="none" stroke="#63b8ff" d="M170.26,-237.75C179.05,-237.62 187.94,-237.48 196.63,-237.35"/>
<polygon fill="#63b8ff" stroke="#63b8ff" points="170.24,-234.25 160.29,-237.91 170.34,-241.25 170.24,-234.25"/>
</a>
</g>
</g>
<!-- Node11&#45;&gt;Node2 -->
<g id="edge10_Node000002_Node000011" class="edge">
<title>Node11&#45;&gt;Node2</title>
<g id="a_edge10_Node000002_Node000011"><a xlink:title=" ">
<path fill="none" stroke="#9a32cd" stroke-dasharray="5,2" d="M765.03,-212.51C754.58,-208.66 743.5,-204.88 733,-201.88 698.2,-191.9 658.54,-183.82 626.39,-178.06"/>
<polygon fill="#9a32cd" stroke="#9a32cd" points="763.64,-215.73 774.23,-215.99 766.11,-209.18 763.64,-215.73"/>
</a>
</g>
<text text-anchor="middle" x="697.75" y="-203.88" font-family="Helvetica,sans-Serif" font-size="10.00" fill="grey"> m_impl</text>
</g>
<!-- Node17 -->
<g id="Node000017" class="node">
<title>Node17</title>
<g id="a_Node000017"><a xlink:href="classdunedaq_1_1oksdbinterfaces_1_1ConfigObjectImpl.html" target="_top" xlink:title="Implements database objects.">
<polygon fill="white" stroke="#666666" points="1073.25,-239.38 947,-239.38 947,-208.88 1073.25,-208.88 1073.25,-239.38"/>
<text text-anchor="start" x="955" y="-225.88" font-family="Helvetica,sans-Serif" font-size="10.00">dunedaq::oksdbinterfaces</text>
<text text-anchor="middle" x="1010.12" y="-214.62" font-family="Helvetica,sans-Serif" font-size="10.00">::ConfigObjectImpl</text>
</a>
</g>
</g>
<!-- Node11&#45;&gt;Node17 -->
<g id="edge20_Node000017_Node000011" class="edge">
<title>Node11&#45;&gt;Node17</title>
<g id="a_edge20_Node000017_Node000011"><a xlink:title=" ">
<path fill="none" stroke="#9a32cd" stroke-dasharray="5,2" d="M888.95,-229.08C908.02,-228.29 928.37,-227.46 946.79,-226.7"/>
<polygon fill="#9a32cd" stroke="#9a32cd" points="888.94,-225.58 879.09,-229.49 889.22,-232.57 888.94,-225.58"/>
</a>
</g>
<text text-anchor="middle" x="912.12" y="-230.88" font-family="Helvetica,sans-Serif" font-size="10.00" fill="grey"> m_impl</text>
</g>
<!-- Node12 -->
<g id="Node000012" class="node">
<title>Node12</title>
<g id="a_Node000012"><a xlink:href="classdunedaq_1_1oksdbinterfaces_1_1pmap.html" target="_top" xlink:title=" ">
<polygon fill="white" stroke="#666666" points="644.5,-317.62 481.5,-317.62 481.5,-264.62 644.5,-264.62 644.5,-317.62"/>
<text text-anchor="start" x="489.5" y="-304.12" font-family="Helvetica,sans-Serif" font-size="10.00">dunedaq::oksdbinterfaces</text>
<text text-anchor="start" x="489.5" y="-292.88" font-family="Helvetica,sans-Serif" font-size="10.00">::pmap&lt; dunedaq::oksdbinterfaces</text>
<text text-anchor="start" x="489.5" y="-281.62" font-family="Helvetica,sans-Serif" font-size="10.00">::map&lt; dunedaq::oksdbinterfaces</text>
<text text-anchor="middle" x="563" y="-270.38" font-family="Helvetica,sans-Serif" font-size="10.00">::ConfigObjectImpl * &gt; * &gt;</text>
</a>
</g>
</g>
<!-- Node12&#45;&gt;Node11 -->
<g id="edge11_Node000011_Node000012" class="edge">
<title>Node12&#45;&gt;Node11</title>
<g id="a_edge11_Node000011_Node000012"><a xlink:title=" ">
<path fill="none" stroke="#9a32cd" stroke-dasharray="5,2" d="M655.92,-269.36C687.51,-261.87 722.11,-253.68 750.8,-246.89"/>
<polygon fill="#9a32cd" stroke="#9a32cd" points="655.28,-265.91 646.36,-271.62 656.89,-272.72 655.28,-265.91"/>
</a>
</g>
<text text-anchor="middle" x="697.75" y="-267.88" font-family="Helvetica,sans-Serif" font-size="10.00" fill="grey"> m_impl_objects</text>
</g>
<!-- Node13 -->
<g id="Node000013" class="node">
<title>Node13</title>
<g id="a_Node000013"><a xlink:title=" ">
<polygon fill="white" stroke="#666666" points="344.62,-350.88 210.12,-350.88 210.12,-275.38 344.62,-275.38 344.62,-350.88"/>
<text text-anchor="start" x="218.12" y="-337.38" font-family="Helvetica,sans-Serif" font-size="10.00">std::map&lt; const std</text>
<text text-anchor="start" x="218.12" y="-326.12" font-family="Helvetica,sans-Serif" font-size="10.00">::string *, dunedaq</text>
<text text-anchor="start" x="218.12" y="-314.88" font-family="Helvetica,sans-Serif" font-size="10.00">::oksdbinterfaces::map</text>
<text text-anchor="start" x="218.12" y="-303.62" font-family="Helvetica,sans-Serif" font-size="10.00">&lt; dunedaq::oksdbinterfaces</text>
<text text-anchor="start" x="218.12" y="-292.38" font-family="Helvetica,sans-Serif" font-size="10.00">::ConfigObjectImpl * &gt; * ,</text>
<text text-anchor="middle" x="277.38" y="-281.12" font-family="Helvetica,sans-Serif" font-size="10.00"> string_ptr_compare &gt;</text>
</a>
</g>
</g>
<!-- Node13&#45;&gt;Node12 -->
<g id="edge12_Node000012_Node000013" class="edge">
<title>Node13&#45;&gt;Node12</title>
<g id="a_edge12_Node000012_Node000013"><a xlink:title=" ">
<path fill="none" stroke="#63b8ff" d="M356.13,-307.09C394.99,-304.08 441.99,-300.43 481.26,-297.39"/>
<polygon fill="#63b8ff" stroke="#63b8ff" points="356.08,-303.59 346.38,-307.85 356.62,-310.57 356.08,-303.59"/>
</a>
</g>
</g>
<!-- Node14&#45;&gt;Node1 -->
<g id="edge14_Node000001_Node000014" class="edge">
<title>Node14&#45;&gt;Node1</title>
<g id="a_edge14_Node000001_Node000014"><a xlink:title=" ">
<path fill="none" stroke="#9a32cd" stroke-dasharray="5,2" d="M1832.8,-119.88C1826.58,-118.55 1820.32,-117.43 1814.25,-116.62 1773.27,-111.22 1762.23,-111.22 1721.25,-116.62 1711.54,-117.91 1701.34,-120.02 1691.58,-122.44"/>
<polygon fill="#9a32cd" stroke="#9a32cd" points="1831.91,-123.26 1842.44,-122.1 1833.49,-116.44 1831.91,-123.26"/>
</a>
</g>
<text text-anchor="middle" x="1767.75" y="-130.12" font-family="Helvetica,sans-Serif" font-size="10.00" fill="grey"> m_rename_object_fn</text>
<text text-anchor="middle" x="1767.75" y="-118.88" font-family="Helvetica,sans-Serif" font-size="10.00" fill="grey">m_unread_object_fn</text>
</g>
<!-- Node15&#45;&gt;Node1 -->
<g id="edge16_Node000001_Node000015" class="edge">
<title>Node15&#45;&gt;Node1</title>
<g id="a_edge16_Node000001_Node000015"><a xlink:title=" ">
<path fill="none" stroke="#9a32cd" stroke-dasharray="5,2" d="M1493.59,-158.02C1520.62,-154.32 1550.9,-150.18 1576.82,-146.64"/>
<polygon fill="#9a32cd" stroke="#9a32cd" points="1493.16,-154.54 1483.73,-159.36 1494.11,-161.48 1493.16,-154.54"/>
</a>
</g>
<text text-anchor="middle" x="1529.38" y="-158.88" font-family="Helvetica,sans-Serif" font-size="10.00" fill="grey"> m_creator_fn</text>
</g>
<!-- Node16 -->
<g id="Node000016" class="node">
<title>Node16</title>
<g id="a_Node000016"><a xlink:href="classdunedaq_1_1oksdbinterfaces_1_1ConfigObject.html" target="_top" xlink:title="Represents database objects.">
<polygon fill="white" stroke="#666666" points="1294,-227.38 1167.75,-227.38 1167.75,-196.88 1294,-196.88 1294,-227.38"/>
<text text-anchor="start" x="1175.75" y="-213.88" font-family="Helvetica,sans-Serif" font-size="10.00">dunedaq::oksdbinterfaces</text>
<text text-anchor="middle" x="1230.88" y="-202.62" font-family="Helvetica,sans-Serif" font-size="10.00">::ConfigObject</text>
</a>
</g>
</g>
<!-- Node16&#45;&gt;Node15 -->
<g id="edge18_Node000015_Node000016" class="edge">
<title>Node16&#45;&gt;Node15</title>
<g id="a_edge18_Node000015_Node000016"><a xlink:title=" ">
<path fill="none" stroke="#9a32cd" stroke-dasharray="5,2" d="M1304.99,-194.81C1321.56,-190.88 1339.02,-186.75 1355.1,-182.93"/>
<polygon fill="#9a32cd" stroke="#9a32cd" points="1304.64,-191.29 1295.72,-197 1306.25,-198.1 1304.64,-191.29"/>
</a>
</g>
<text text-anchor="middle" x="1324.75" y="-194.88" font-family="Helvetica,sans-Serif" font-size="10.00" fill="grey"> p_obj</text>
</g>
<!-- Node17&#45;&gt;Node16 -->
<g id="edge19_Node000016_Node000017" class="edge">
<title>Node17&#45;&gt;Node16</title>
<g id="a_edge19_Node000016_Node000017"><a xlink:title=" ">
<path fill="none" stroke="#9a32cd" stroke-dasharray="5,2" d="M1084.79,-220.08C1111.61,-218.61 1141.64,-216.97 1167.4,-215.55"/>
<polygon fill="#9a32cd" stroke="#9a32cd" points="1084.82,-216.58 1075.03,-220.62 1085.21,-223.57 1084.82,-216.58"/>
</a>
</g>
<text text-anchor="middle" x="1120.5" y="-221.88" font-family="Helvetica,sans-Serif" font-size="10.00" fill="grey"> m_impl</text>
</g>
</g>
</svg>
