<?xml version="1.0" encoding="UTF-8" standalone="no"?>
<!DOCTYPE svg PUBLIC "-//W3C//DTD SVG 1.1//EN"
 "http://www.w3.org/Graphics/SVG/1.1/DTD/svg11.dtd">
<!-- Generated by graphviz version 9.0.0 (20230911.1827)
 -->
<!-- Title: dunedaq::oks::OksAliasTable::Value Pages: 1 -->
<svg width="1707pt" height="299pt"
 viewBox="0.00 0.00 1707.00 298.62" xmlns="http://www.w3.org/2000/svg" xmlns:xlink="http://www.w3.org/1999/xlink">
<g id="graph0" class="graph" transform="scale(1 1) rotate(0) translate(4 294.62)">
<title>dunedaq::oks::OksAliasTable::Value</title>
<!-- Node1 -->
<g id="Node000001" class="node">
<title>Node1</title>
<g id="a_Node000001"><a xlink:title=" ">
<polygon fill="#999999" stroke="#666666" points="1699,-31.25 1557.75,-31.25 1557.75,-0.75 1699,-0.75 1699,-31.25"/>
<text text-anchor="start" x="1565.75" y="-17.75" font-family="Helvetica,sans-Serif" font-size="10.00">dunedaq::oks::OksAliasTable</text>
<text text-anchor="middle" x="1628.38" y="-6.5" font-family="Helvetica,sans-Serif" font-size="10.00">::Value</text>
</a>
</g>
</g>
<!-- Node2 -->
<g id="Node000002" class="node">
<title>Node2</title>
<g id="a_Node000002"><a xlink:href="classdunedaq_1_1oks_1_1OksString.html" target="_top" xlink:title="Class OKS string.">
<polygon fill="white" stroke="#666666" points="216,-42.62 95,-42.62 95,-23.38 216,-23.38 216,-42.62"/>
<text text-anchor="middle" x="155.5" y="-29.12" font-family="Helvetica,sans-Serif" font-size="10.00">dunedaq::oks::OksString</text>
</a>
</g>
</g>
<!-- Node2&#45;&gt;Node1 -->
<g id="edge1_Node000001_Node000002" class="edge">
<title>Node2&#45;&gt;Node1</title>
<g id="a_edge1_Node000001_Node000002"><a xlink:title=" ">
<path fill="none" stroke="#9a32cd" stroke-dasharray="5,2" d="M203.92,-20.23C242.57,-10.95 298.72,0 348.62,0 348.62,0 348.62,0 1420.62,0 1466.35,0 1517.59,-3.94 1557.62,-7.91"/>
<polygon fill="#9a32cd" stroke="#9a32cd" points="203.35,-16.77 194.48,-22.56 205.03,-23.56 203.35,-16.77"/>
</a>
</g>
<text text-anchor="middle" x="835.88" y="-1.75" font-family="Helvetica,sans-Serif" font-size="10.00" fill="grey"> class_name</text>
</g>
<!-- Node12 -->
<g id="Node000012" class="node">
<title>Node12</title>
<g id="a_Node000012"><a xlink:href="uniondunedaq_1_1oks_1_1OksData_1_1Data.html" target="_top" xlink:title=" ">
<polygon fill="white" stroke="#666666" points="407.5,-139.25 291.75,-139.25 291.75,-108.75 407.5,-108.75 407.5,-139.25"/>
<text text-anchor="start" x="299.75" y="-125.75" font-family="Helvetica,sans-Serif" font-size="10.00">dunedaq::oks::OksData</text>
<text text-anchor="middle" x="349.62" y="-114.5" font-family="Helvetica,sans-Serif" font-size="10.00">::Data</text>
</a>
</g>
</g>
<!-- Node2&#45;&gt;Node12 -->
<g id="edge16_Node000012_Node000002" class="edge">
<title>Node2&#45;&gt;Node12</title>
<g id="a_edge16_Node000012_Node000002"><a xlink:title=" ">
<path fill="none" stroke="#9a32cd" stroke-dasharray="5,2" d="M187.98,-47.91C223.17,-64.58 279.91,-91.45 315.68,-108.4"/>
<polygon fill="#9a32cd" stroke="#9a32cd" points="189.7,-44.85 179.16,-43.73 186.7,-51.18 189.7,-44.85"/>
</a>
</g>
<text text-anchor="middle" x="253.88" y="-110.25" font-family="Helvetica,sans-Serif" font-size="10.00" fill="grey"> STRING</text>
<text text-anchor="middle" x="253.88" y="-99" font-family="Helvetica,sans-Serif" font-size="10.00" fill="grey">class_id</text>
<text text-anchor="middle" x="253.88" y="-87.75" font-family="Helvetica,sans-Serif" font-size="10.00" fill="grey">object_id</text>
</g>
<!-- Node3 -->
<g id="Node000003" class="node">
<title>Node3</title>
<g id="a_Node000003"><a xlink:title=" ">
<polygon fill="white" stroke="#666666" points="58,-42.62 0,-42.62 0,-23.38 58,-23.38 58,-42.62"/>
<text text-anchor="middle" x="29" y="-29.12" font-family="Helvetica,sans-Serif" font-size="10.00">std::string</text>
</a>
</g>
</g>
<!-- Node3&#45;&gt;Node2 -->
<g id="edge2_Node000002_Node000003" class="edge">
<title>Node3&#45;&gt;Node2</title>
<g id="a_edge2_Node000002_Node000003"><a xlink:title=" ">
<path fill="none" stroke="#63b8ff" d="M69.76,-33C77.68,-33 86.16,-33 94.58,-33"/>
<polygon fill="#63b8ff" stroke="#63b8ff" points="69.76,-29.5 59.76,-33 69.76,-36.5 69.76,-29.5"/>
</a>
</g>
</g>
<!-- Node4 -->
<g id="Node000004" class="node">
<title>Node4</title>
<g id="a_Node000004"><a xlink:href="classdunedaq_1_1oks_1_1OksClass.html" target="_top" xlink:title="The OKS class.">
<polygon fill="white" stroke="#666666" points="1479.75,-95.62 1359.5,-95.62 1359.5,-76.38 1479.75,-76.38 1479.75,-95.62"/>
<text text-anchor="middle" x="1419.62" y="-82.12" font-family="Helvetica,sans-Serif" font-size="10.00">dunedaq::oks::OksClass</text>
</a>
</g>
</g>
<!-- Node4&#45;&gt;Node1 -->
<g id="edge3_Node000001_Node000004" class="edge">
<title>Node4&#45;&gt;Node1</title>
<g id="a_edge3_Node000001_Node000004"><a xlink:title=" ">
<path fill="none" stroke="#9a32cd" stroke-dasharray="5,2" d="M1460.86,-72.38C1495.31,-60.71 1544.92,-43.92 1581.02,-31.69"/>
<polygon fill="#9a32cd" stroke="#9a32cd" points="1460.03,-68.96 1451.68,-75.49 1462.28,-75.59 1460.03,-68.96"/>
</a>
</g>
<text text-anchor="middle" x="1518.75" y="-60.75" font-family="Helvetica,sans-Serif" font-size="10.00" fill="grey"> class_ptr</text>
</g>
<!-- Node4&#45;&gt;Node12 -->
<g id="edge14_Node000012_Node000004" class="edge">
<title>Node4&#45;&gt;Node12</title>
<g id="a_edge14_Node000012_Node000004"><a xlink:title=" ">
<path fill="none" stroke="#9a32cd" stroke-dasharray="5,2" d="M1347.98,-86C1307.3,-86 1255.21,-86 1208.88,-86 521.38,-86 521.38,-86 521.38,-86 477.95,-86 429.76,-97.86 395.68,-108.32"/>
<polygon fill="#9a32cd" stroke="#9a32cd" points="1347.89,-89.5 1357.89,-86 1347.89,-82.5 1347.89,-89.5"/>
</a>
</g>
<text text-anchor="middle" x="835.88" y="-99" font-family="Helvetica,sans-Serif" font-size="10.00" fill="grey"> CLASS</text>
<text text-anchor="middle" x="835.88" y="-87.75" font-family="Helvetica,sans-Serif" font-size="10.00" fill="grey">class_id</text>
</g>
<!-- Node5 -->
<g id="Node000005" class="node">
<title>Node5</title>
<g id="a_Node000005"><a xlink:href="classdunedaq_1_1oks_1_1OksFile.html" target="_top" xlink:title="Provides interface to the OKS XML schema and data files.">
<polygon fill="white" stroke="#666666" points="1263.5,-160.62 1152.25,-160.62 1152.25,-141.38 1263.5,-141.38 1263.5,-160.62"/>
<text text-anchor="middle" x="1207.88" y="-147.12" font-family="Helvetica,sans-Serif" font-size="10.00">dunedaq::oks::OksFile</text>
</a>
</g>
</g>
<!-- Node5&#45;&gt;Node4 -->
<g id="edge4_Node000004_Node000005" class="edge">
<title>Node5&#45;&gt;Node4</title>
<g id="a_edge4_Node000004_Node000005"><a xlink:title=" ">
<path fill="none" stroke="#9a32cd" stroke-dasharray="5,2" d="M1252.17,-137.58C1292.04,-125.23 1350.31,-107.17 1386.27,-96.03"/>
<polygon fill="#9a32cd" stroke="#9a32cd" points="1251.15,-134.23 1242.63,-140.54 1253.22,-140.92 1251.15,-134.23"/>
</a>
</g>
<text text-anchor="middle" x="1315.25" y="-125.75" font-family="Helvetica,sans-Serif" font-size="10.00" fill="grey"> p_file</text>
</g>
<!-- Node5&#45;&gt;Node5 -->
<g id="edge5_Node000005_Node000005" class="edge">
<title>Node5&#45;&gt;Node5</title>
<g id="a_edge5_Node000005_Node000005"><a xlink:title=" ">
<path fill="none" stroke="#9a32cd" stroke-dasharray="5,2" d="M1188.82,-172.03C1191.2,-175.9 1197.55,-178.62 1207.88,-178.62 1226.75,-178.62 1232.35,-169.52 1224.69,-160.91"/>
<polygon fill="#9a32cd" stroke="#9a32cd" points="1192.21,-172.89 1190.76,-162.4 1185.35,-171.5 1192.21,-172.89"/>
</a>
</g>
<text text-anchor="middle" x="1207.88" y="-180.38" font-family="Helvetica,sans-Serif" font-size="10.00" fill="grey"> p_included_by</text>
</g>
<!-- Node6 -->
<g id="Node000006" class="node">
<title>Node6</title>
<g id="a_Node000006"><a xlink:href="classdunedaq_1_1oks_1_1OksKernel.html" target="_top" xlink:title="Provides interface to the OKS kernel.">
<polygon fill="white" stroke="#666666" points="1032.25,-233.62 909,-233.62 909,-214.38 1032.25,-214.38 1032.25,-233.62"/>
<text text-anchor="middle" x="970.62" y="-220.12" font-family="Helvetica,sans-Serif" font-size="10.00">dunedaq::oks::OksKernel</text>
</a>
</g>
</g>
<!-- Node5&#45;&gt;Node6 -->
<g id="edge7_Node000006_Node000005" class="edge">
<title>Node5&#45;&gt;Node6</title>
<g id="a_edge7_Node000006_Node000005"><a xlink:title=" ">
<path fill="none" stroke="#9a32cd" stroke-dasharray="5,2" d="M1140.75,-147.38C1112.08,-147.94 1078.65,-151.53 1050.25,-162.5 1021.15,-173.74 994.1,-199.58 980.61,-213.93"/>
<polygon fill="#9a32cd" stroke="#9a32cd" points="1140.4,-150.89 1150.37,-147.32 1140.35,-143.89 1140.4,-150.89"/>
</a>
</g>
<text text-anchor="middle" x="1088.5" y="-175" font-family="Helvetica,sans-Serif" font-size="10.00" fill="grey"> p_active_data</text>
<text text-anchor="middle" x="1088.5" y="-163.75" font-family="Helvetica,sans-Serif" font-size="10.00" fill="grey">p_active_schema</text>
</g>
<!-- Node9 -->
<g id="Node000009" class="node">
<title>Node9</title>
<g id="a_Node000009"><a xlink:href="classdunedaq_1_1oks_1_1OksObject.html" target="_top" xlink:title="OksObject describes instance of OksClass.">
<polygon fill="white" stroke="#666666" points="762,-174.62 638,-174.62 638,-155.38 762,-155.38 762,-174.62"/>
<text text-anchor="middle" x="700" y="-161.12" font-family="Helvetica,sans-Serif" font-size="10.00">dunedaq::oks::OksObject</text>
</a>
</g>
</g>
<!-- Node5&#45;&gt;Node9 -->
<g id="edge18_Node000009_Node000005" class="edge">
<title>Node5&#45;&gt;Node9</title>
<g id="a_edge18_Node000009_Node000005"><a xlink:title=" ">
<path fill="none" stroke="#9a32cd" stroke-dasharray="5,2" d="M1140.95,-146.56C1136.14,-146.33 1131.37,-146.14 1126.75,-146 973.02,-141.21 933.9,-137.88 780.75,-152 772.93,-152.72 764.71,-153.75 756.65,-154.91"/>
<polygon fill="#9a32cd" stroke="#9a32cd" points="1140.48,-150.04 1150.65,-147.05 1140.84,-143.05 1140.48,-150.04"/>
</a>
</g>
<text text-anchor="middle" x="970.62" y="-143.75" font-family="Helvetica,sans-Serif" font-size="10.00" fill="grey"> file</text>
</g>
<!-- Node6&#45;&gt;Node4 -->
<g id="edge19_Node000004_Node000006" class="edge">
<title>Node6&#45;&gt;Node4</title>
<g id="a_edge19_Node000004_Node000006"><a xlink:title=" ">
<path fill="none" stroke="#9a32cd" stroke-dasharray="5,2" d="M1043.94,-230.6C1106.6,-233.43 1198.36,-230.49 1271,-199 1330.52,-173.19 1387.58,-118.25 1409.35,-95.83"/>
<polygon fill="#9a32cd" stroke="#9a32cd" points="1044.27,-227.11 1034.1,-230.09 1043.91,-234.1 1044.27,-227.11"/>
</a>
</g>
<text text-anchor="middle" x="1207.88" y="-229.75" font-family="Helvetica,sans-Serif" font-size="10.00" fill="grey"> p_kernel</text>
</g>
<!-- Node6&#45;&gt;Node5 -->
<g id="edge6_Node000005_Node000006" class="edge">
<title>Node6&#45;&gt;Node5</title>
<g id="a_edge6_Node000005_Node000006"><a xlink:title=" ">
<path fill="none" stroke="#9a32cd" stroke-dasharray="5,2" d="M1041.24,-211.71C1068.31,-206.05 1099.34,-198.46 1126.75,-189 1148.73,-181.41 1172.65,-169.56 1188.58,-161.11"/>
<polygon fill="#9a32cd" stroke="#9a32cd" points="1040.89,-208.21 1031.79,-213.64 1042.28,-215.07 1040.89,-208.21"/>
</a>
</g>
<text text-anchor="middle" x="1088.5" y="-210.75" font-family="Helvetica,sans-Serif" font-size="10.00" fill="grey"> p_kernel</text>
</g>
<!-- Node7 -->
<g id="Node000007" class="node">
<title>Node7</title>
<g id="a_Node000007"><a xlink:href="classdunedaq_1_1oks_1_1OksProfiler.html" target="_top" xlink:title=" ">
<polygon fill="white" stroke="#666666" points="762.75,-290.62 637.25,-290.62 637.25,-271.38 762.75,-271.38 762.75,-290.62"/>
<text text-anchor="middle" x="700" y="-277.12" font-family="Helvetica,sans-Serif" font-size="10.00">dunedaq::oks::OksProfiler</text>
</a>
</g>
</g>
<!-- Node7&#45;&gt;Node6 -->
<g id="edge8_Node000006_Node000007" class="edge">
<title>Node7&#45;&gt;Node6</title>
<g id="a_edge8_Node000006_Node000007"><a xlink:title=" ">
<path fill="none" stroke="#9a32cd" stroke-dasharray="5,2" d="M774.46,-273.11C809.98,-268.45 853.04,-261.56 891,-252 909.55,-247.33 929.87,-240.03 945.21,-234.06"/>
<polygon fill="#9a32cd" stroke="#9a32cd" points="774.18,-269.61 764.7,-274.35 775.07,-276.56 774.18,-269.61"/>
</a>
</g>
<text text-anchor="middle" x="835.88" y="-272.75" font-family="Helvetica,sans-Serif" font-size="10.00" fill="grey"> profiler</text>
</g>
<!-- Node8 -->
<g id="Node000008" class="node">
<title>Node8</title>
<g id="a_Node000008"><a xlink:href="structdunedaq_1_1oks_1_1LoadErrors.html" target="_top" xlink:title=" ">
<polygon fill="white" stroke="#666666" points="762.38,-253.62 637.62,-253.62 637.62,-234.38 762.38,-234.38 762.38,-253.62"/>
<text text-anchor="middle" x="700" y="-240.12" font-family="Helvetica,sans-Serif" font-size="10.00">dunedaq::oks::LoadErrors</text>
</a>
</g>
</g>
<!-- Node8&#45;&gt;Node6 -->
<g id="edge9_Node000006_Node000008" class="edge">
<title>Node8&#45;&gt;Node6</title>
<g id="a_edge9_Node000006_Node000008"><a xlink:title=" ">
<path fill="none" stroke="#9a32cd" stroke-dasharray="5,2" d="M773.97,-238.57C816.2,-235.42 868.75,-231.51 908.75,-228.53"/>
<polygon fill="#9a32cd" stroke="#9a32cd" points="773.85,-235.07 764.14,-239.3 774.37,-242.05 773.85,-235.07"/>
</a>
</g>
<text text-anchor="middle" x="835.88" y="-238.75" font-family="Helvetica,sans-Serif" font-size="10.00" fill="grey"> p_load_errors</text>
</g>
<!-- Node9&#45;&gt;Node6 -->
<g id="edge10_Node000006_Node000009" class="edge">
<title>Node9&#45;&gt;Node6</title>
<g id="a_edge10_Node000006_Node000009"><a xlink:title=" ">
<path fill="none" stroke="#9a32cd" stroke-dasharray="5,2" d="M773.84,-156.59C809.93,-154.87 853.65,-156.53 891,-168.75 919.22,-177.98 946.21,-201.09 960.04,-214.31"/>
<polygon fill="#9a32cd" stroke="#9a32cd" points="773.7,-153.09 763.93,-157.17 774.11,-160.08 773.7,-153.09"/>
</a>
</g>
<text text-anchor="start" x="780.75" y="-214.75" font-family="Helvetica,sans-Serif" font-size="10.00" fill="grey"> p_change_object_notify</text>
<text text-anchor="middle" x="835.88" y="-203.5" font-family="Helvetica,sans-Serif" font-size="10.00" fill="grey">_fn</text>
<text text-anchor="start" x="780.75" y="-192.25" font-family="Helvetica,sans-Serif" font-size="10.00" fill="grey">p_create_object_notify</text>
<text text-anchor="middle" x="835.88" y="-181" font-family="Helvetica,sans-Serif" font-size="10.00" fill="grey">_fn</text>
<text text-anchor="middle" x="835.88" y="-169.75" font-family="Helvetica,sans-Serif" font-size="10.00" fill="grey">p_delete_object_notify_fn</text>
</g>
<!-- Node9&#45;&gt;Node12 -->
<g id="edge15_Node000012_Node000009" class="edge">
<title>Node9&#45;&gt;Node12</title>
<g id="a_edge15_Node000012_Node000009"><a xlink:title=" ">
<path fill="none" stroke="#9a32cd" stroke-dasharray="5,2" d="M626.22,-160.28C570.96,-156.16 493.2,-149.23 425.5,-139 419.73,-138.13 413.74,-137.11 407.76,-136.03"/>
<polygon fill="#9a32cd" stroke="#9a32cd" points="625.92,-163.76 636.15,-161 626.43,-156.78 625.92,-163.76"/>
</a>
</g>
<text text-anchor="middle" x="522.38" y="-157.75" font-family="Helvetica,sans-Serif" font-size="10.00" fill="grey"> OBJECT</text>
</g>
<!-- Node10 -->
<g id="Node000010" class="node">
<title>Node10</title>
<g id="a_Node000010"><a xlink:title=" ">
<polygon fill="white" stroke="#666666" points="175.88,-187.62 135.12,-187.62 135.12,-168.38 175.88,-168.38 175.88,-187.62"/>
<text text-anchor="middle" x="155.5" y="-174.12" font-family="Helvetica,sans-Serif" font-size="10.00">struct</text>
</a>
</g>
</g>
<!-- Node10&#45;&gt;Node9 -->
<g id="edge11_Node000009_Node000010" class="edge">
<title>Node10&#45;&gt;Node9</title>
<g id="a_edge11_Node000009_Node000010"><a xlink:title=" ">
<path fill="none" stroke="#9a32cd" stroke-dasharray="5,2" d="M187.39,-179.96C201.58,-180.77 218.64,-181.6 234,-182 251.66,-182.46 256.09,-182.26 273.75,-182 427.35,-179.78 465.89,-180.94 619.25,-172 625.22,-171.65 631.43,-171.22 637.64,-170.75"/>
<polygon fill="#9a32cd" stroke="#9a32cd" points="187.94,-176.49 177.75,-179.39 187.52,-183.47 187.94,-176.49"/>
</a>
</g>
<text text-anchor="middle" x="436" y="-180.75" font-family="Helvetica,sans-Serif" font-size="10.00" fill="grey"> uid</text>
</g>
<!-- Node10&#45;&gt;Node12 -->
<g id="edge17_Node000012_Node000010" class="edge">
<title>Node10&#45;&gt;Node12</title>
<g id="a_edge17_Node000012_Node000010"><a xlink:title=" ">
<path fill="none" stroke="#9a32cd" stroke-dasharray="5,2" d="M187.17,-169.38C215.52,-161.41 258.34,-149.38 292.76,-139.7"/>
<polygon fill="#9a32cd" stroke="#9a32cd" points="186.47,-165.94 177.79,-172.01 188.37,-172.68 186.47,-165.94"/>
</a>
</g>
<text text-anchor="middle" x="253.88" y="-168" font-family="Helvetica,sans-Serif" font-size="10.00" fill="grey"> UID</text>
<text text-anchor="middle" x="253.88" y="-156.75" font-family="Helvetica,sans-Serif" font-size="10.00" fill="grey">UID2</text>
</g>
<!-- Node11 -->
<g id="Node000011" class="node">
<title>Node11</title>
<g id="a_Node000011"><a xlink:href="structdunedaq_1_1oks_1_1OksData.html" target="_top" xlink:title="the structure to pass common parameters to various read() methods of OksData and OksObject class">
<polygon fill="white" stroke="#666666" points="580.25,-133.62 464.5,-133.62 464.5,-114.38 580.25,-114.38 580.25,-133.62"/>
<text text-anchor="middle" x="522.38" y="-120.12" font-family="Helvetica,sans-Serif" font-size="10.00">dunedaq::oks::OksData</text>
</a>
</g>
</g>
<!-- Node11&#45;&gt;Node9 -->
<g id="edge12_Node000009_Node000011" class="edge">
<title>Node11&#45;&gt;Node9</title>
<g id="a_edge12_Node000009_Node000011"><a xlink:title=" ">
<path fill="none" stroke="#9a32cd" stroke-dasharray="5,2" d="M582.67,-136.49C594.79,-139.14 607.45,-141.97 619.25,-144.75 632.74,-147.92 647.46,-151.6 660.53,-154.94"/>
<polygon fill="#9a32cd" stroke="#9a32cd" points="583.73,-133.14 573.21,-134.44 582.24,-139.98 583.73,-133.14"/>
</a>
</g>
<text text-anchor="middle" x="608.75" y="-145.75" font-family="Helvetica,sans-Serif" font-size="10.00" fill="grey"> data</text>
</g>
<!-- Node12&#45;&gt;Node11 -->
<g id="edge13_Node000011_Node000012" class="edge">
<title>Node12&#45;&gt;Node11</title>
<g id="a_edge13_Node000011_Node000012"><a xlink:title=" ">
<path fill="none" stroke="#9a32cd" stroke-dasharray="5,2" d="M419.2,-124C434.13,-124 449.77,-124 464.19,-124"/>
<polygon fill="#9a32cd" stroke="#9a32cd" points="419.47,-120.5 409.47,-124 419.47,-127.5 419.47,-120.5"/>
</a>
</g>
<text text-anchor="middle" x="436" y="-125.75" font-family="Helvetica,sans-Serif" font-size="10.00" fill="grey"> data</text>
</g>
<!-- Node13 -->
<g id="Node000013" class="node">
<title>Node13</title>
<g id="a_Node000013"><a xlink:href="classdunedaq_1_1oksdbinterfaces_1_1map.html" target="_top" xlink:title=" ">
<polygon fill="white" stroke="#666666" points="1271,-58.25 1144.75,-58.25 1144.75,-27.75 1271,-27.75 1271,-58.25"/>
<text text-anchor="start" x="1152.75" y="-44.75" font-family="Helvetica,sans-Serif" font-size="10.00">dunedaq::oksdbinterfaces</text>
<text text-anchor="middle" x="1207.88" y="-33.5" font-family="Helvetica,sans-Serif" font-size="10.00">::map&lt; T &gt;</text>
</a>
</g>
</g>
<!-- Node13&#45;&gt;Node4 -->
<g id="edge20_Node000004_Node000013" class="edge">
<title>Node13&#45;&gt;Node4</title>
<g id="a_edge20_Node000004_Node000013"><a xlink:title=" ">
<path fill="none" stroke="#9a32cd" stroke-dasharray="5,2" d="M1282.55,-50.42C1301.86,-53.03 1322.57,-56.42 1341.5,-60.75 1358.53,-64.64 1377.16,-70.69 1391.84,-75.89"/>
<polygon fill="#9a32cd" stroke="#9a32cd" points="1283.24,-46.98 1272.87,-49.17 1282.34,-53.92 1283.24,-46.98"/>
</a>
</g>
<text text-anchor="middle" x="1315.25" y="-61.75" font-family="Helvetica,sans-Serif" font-size="10.00" fill="grey"> p_data_info</text>
</g>
<!-- Node14 -->
<g id="Node000014" class="node">
<title>Node14</title>
<g id="a_Node000014"><a xlink:title=" ">
<polygon fill="white" stroke="#666666" points="1021,-58.25 920.25,-58.25 920.25,-27.75 1021,-27.75 1021,-58.25"/>
<text text-anchor="start" x="928.25" y="-44.75" font-family="Helvetica,sans-Serif" font-size="10.00">std::unordered_map</text>
<text text-anchor="middle" x="970.62" y="-33.5" font-family="Helvetica,sans-Serif" font-size="10.00">&lt; std::string, T &gt;</text>
</a>
</g>
</g>
<!-- Node14&#45;&gt;Node13 -->
<g id="edge21_Node000013_Node000014" class="edge">
<title>Node14&#45;&gt;Node13</title>
<g id="a_edge21_Node000013_Node000014"><a xlink:title=" ">
<path fill="none" stroke="#63b8ff" d="M1032.53,-43C1066.87,-43 1109.71,-43 1144.32,-43"/>
<polygon fill="#63b8ff" stroke="#63b8ff" points="1032.74,-39.5 1022.74,-43 1032.74,-46.5 1032.74,-39.5"/>
</a>
</g>
</g>
</g>
</svg>
