<?xml version="1.0" encoding="UTF-8" standalone="no"?>
<!DOCTYPE svg PUBLIC "-//W3C//DTD SVG 1.1//EN"
 "http://www.w3.org/Graphics/SVG/1.1/DTD/svg11.dtd">
<!-- Generated by graphviz version 9.0.0 (20230911.1827)
 -->
<!-- Title: dunedaq::oks::OksObject::BindInfo Pages: 1 -->
<svg width="1713pt" height="423pt"
 viewBox="0.00 0.00 1712.75 422.50" xmlns="http://www.w3.org/2000/svg" xmlns:xlink="http://www.w3.org/1999/xlink">
<g id="graph0" class="graph" transform="scale(1 1) rotate(0) translate(4 418.5)">
<title>dunedaq::oks::OksObject::BindInfo</title>
<!-- Node1 -->
<g id="Node000001" class="node">
<title>Node1</title>
<g id="a_Node000001"><a xlink:title=" ">
<polygon fill="#999999" stroke="#666666" points="1704.75,-264.5 1580.75,-264.5 1580.75,-234 1704.75,-234 1704.75,-264.5"/>
<text text-anchor="start" x="1588.75" y="-251" font-family="Helvetica,sans-Serif" font-size="10.00">dunedaq::oks::OksObject</text>
<text text-anchor="middle" x="1642.75" y="-239.75" font-family="Helvetica,sans-Serif" font-size="10.00">::BindInfo</text>
</a>
</g>
</g>
<!-- Node2 -->
<g id="Node000002" class="node">
<title>Node2</title>
<g id="a_Node000002"><a xlink:href="classdunedaq_1_1oks_1_1OksKernel.html" target="_top" xlink:title="Provides interface to the OKS kernel.">
<polygon fill="white" stroke="#666666" points="345.5,-180.88 222.25,-180.88 222.25,-161.62 345.5,-161.62 345.5,-180.88"/>
<text text-anchor="middle" x="283.88" y="-167.38" font-family="Helvetica,sans-Serif" font-size="10.00">dunedaq::oks::OksKernel</text>
</a>
</g>
</g>
<!-- Node2&#45;&gt;Node1 -->
<g id="edge1_Node000001_Node000002" class="edge">
<title>Node2&#45;&gt;Node1</title>
<g id="a_edge1_Node000001_Node000002"><a xlink:title=" ">
<path fill="none" stroke="#9a32cd" stroke-dasharray="5,2" d="M293.58,-191.74C319.21,-248.43 400.17,-403.25 520.12,-403.25 520.12,-403.25 520.12,-403.25 1476.25,-403.25 1556.9,-403.25 1614.72,-304.02 1634.39,-264.86"/>
<polygon fill="#9a32cd" stroke="#9a32cd" points="296.8,-190.35 289.57,-182.6 290.39,-193.17 296.8,-190.35"/>
</a>
</g>
<text text-anchor="middle" x="997.88" y="-405" font-family="Helvetica,sans-Serif" font-size="10.00" fill="grey"> k</text>
</g>
<!-- Node3 -->
<g id="Node000003" class="node">
<title>Node3</title>
<g id="a_Node000003"><a xlink:href="classdunedaq_1_1oks_1_1OksFile.html" target="_top" xlink:title="Provides interface to the OKS XML schema and data files.">
<polygon fill="white" stroke="#666666" points="576.75,-134.88 465.5,-134.88 465.5,-115.62 576.75,-115.62 576.75,-134.88"/>
<text text-anchor="middle" x="521.12" y="-121.38" font-family="Helvetica,sans-Serif" font-size="10.00">dunedaq::oks::OksFile</text>
</a>
</g>
</g>
<!-- Node2&#45;&gt;Node3 -->
<g id="edge4_Node000003_Node000002" class="edge">
<title>Node2&#45;&gt;Node3</title>
<g id="a_edge4_Node000003_Node000002"><a xlink:title=" ">
<path fill="none" stroke="#9a32cd" stroke-dasharray="5,2" d="M357.07,-163.3C383.33,-159.81 413.15,-155.14 440,-149.25 456.88,-145.55 475.38,-140.1 490.35,-135.33"/>
<polygon fill="#9a32cd" stroke="#9a32cd" points="356.63,-159.83 347.16,-164.58 357.53,-166.77 356.63,-159.83"/>
</a>
</g>
<text text-anchor="middle" x="401.75" y="-165" font-family="Helvetica,sans-Serif" font-size="10.00" fill="grey"> p_kernel</text>
</g>
<!-- Node10 -->
<g id="Node000010" class="node">
<title>Node10</title>
<g id="a_Node000010"><a xlink:href="classdunedaq_1_1oks_1_1OksClass.html" target="_top" xlink:title="The OKS class.">
<polygon fill="white" stroke="#666666" points="793.38,-88.88 673.12,-88.88 673.12,-69.62 793.38,-69.62 793.38,-88.88"/>
<text text-anchor="middle" x="733.25" y="-75.38" font-family="Helvetica,sans-Serif" font-size="10.00">dunedaq::oks::OksClass</text>
</a>
</g>
</g>
<!-- Node2&#45;&gt;Node10 -->
<g id="edge13_Node000010_Node000002" class="edge">
<title>Node2&#45;&gt;Node10</title>
<g id="a_edge13_Node000010_Node000002"><a xlink:title=" ">
<path fill="none" stroke="#9a32cd" stroke-dasharray="5,2" d="M304.14,-154.08C319.27,-141.5 341.4,-124.99 363.5,-115.25 465.19,-70.45 597.55,-69.72 672.89,-73.98"/>
<polygon fill="#9a32cd" stroke="#9a32cd" points="302.17,-151.17 296.84,-160.33 306.72,-156.49 302.17,-151.17"/>
</a>
</g>
<text text-anchor="middle" x="521.12" y="-88" font-family="Helvetica,sans-Serif" font-size="10.00" fill="grey"> p_kernel</text>
</g>
<!-- Node3&#45;&gt;Node2 -->
<g id="edge2_Node000002_Node000003" class="edge">
<title>Node3&#45;&gt;Node2</title>
<g id="a_edge2_Node000002_Node000003"><a xlink:title=" ">
<path fill="none" stroke="#9a32cd" stroke-dasharray="5,2" d="M453.82,-118.6C425.55,-117.62 392.47,-118.97 363.5,-126.75 338.2,-133.54 312.45,-150.41 297.6,-161.32"/>
<polygon fill="#9a32cd" stroke="#9a32cd" points="453.55,-122.09 463.7,-119.05 453.87,-115.1 453.55,-122.09"/>
</a>
</g>
<text text-anchor="middle" x="401.75" y="-140.25" font-family="Helvetica,sans-Serif" font-size="10.00" fill="grey"> p_active_data</text>
<text text-anchor="middle" x="401.75" y="-129" font-family="Helvetica,sans-Serif" font-size="10.00" fill="grey">p_active_schema</text>
</g>
<!-- Node3&#45;&gt;Node3 -->
<g id="edge3_Node000003_Node000003" class="edge">
<title>Node3&#45;&gt;Node3</title>
<g id="a_edge3_Node000003_Node000003"><a xlink:title=" ">
<path fill="none" stroke="#9a32cd" stroke-dasharray="5,2" d="M502.07,-146.28C504.45,-150.15 510.8,-152.88 521.12,-152.88 540,-152.88 545.6,-143.77 537.94,-135.16"/>
<polygon fill="#9a32cd" stroke="#9a32cd" points="505.46,-147.14 504.01,-136.65 498.6,-145.75 505.46,-147.14"/>
</a>
</g>
<text text-anchor="middle" x="521.12" y="-154.62" font-family="Helvetica,sans-Serif" font-size="10.00" fill="grey"> p_included_by</text>
</g>
<!-- Node6 -->
<g id="Node000006" class="node">
<title>Node6</title>
<g id="a_Node000006"><a xlink:href="classdunedaq_1_1oks_1_1OksObject.html" target="_top" xlink:title="OksObject describes instance of OksClass.">
<polygon fill="white" stroke="#666666" points="1537.25,-258.88 1413.25,-258.88 1413.25,-239.62 1537.25,-239.62 1537.25,-258.88"/>
<text text-anchor="middle" x="1475.25" y="-245.38" font-family="Helvetica,sans-Serif" font-size="10.00">dunedaq::oks::OksObject</text>
</a>
</g>
</g>
<!-- Node3&#45;&gt;Node6 -->
<g id="edge20_Node000006_Node000003" class="edge">
<title>Node3&#45;&gt;Node6</title>
<g id="a_edge20_Node000006_Node000003"><a xlink:title=" ">
<path fill="none" stroke="#9a32cd" stroke-dasharray="5,2" d="M588.29,-125.25C629.67,-125.25 684.07,-125.25 732.25,-125.25 732.25,-125.25 732.25,-125.25 1299.38,-125.25 1378.28,-125.25 1446.43,-210.29 1467.52,-239.52"/>
<polygon fill="#9a32cd" stroke="#9a32cd" points="588.5,-121.75 578.5,-125.25 588.5,-128.75 588.5,-121.75"/>
</a>
</g>
<text text-anchor="middle" x="997.88" y="-127" font-family="Helvetica,sans-Serif" font-size="10.00" fill="grey"> file</text>
</g>
<!-- Node3&#45;&gt;Node10 -->
<g id="edge12_Node000010_Node000003" class="edge">
<title>Node3&#45;&gt;Node10</title>
<g id="a_edge12_Node000010_Node000003"><a xlink:title=" ">
<path fill="none" stroke="#9a32cd" stroke-dasharray="5,2" d="M561.28,-111.64C574.21,-107.49 588.75,-103.19 602.25,-100 625.05,-94.62 650.43,-90.22 672.68,-86.88"/>
<polygon fill="#9a32cd" stroke="#9a32cd" points="560.24,-108.3 551.83,-114.75 562.43,-114.95 560.24,-108.3"/>
</a>
</g>
<text text-anchor="middle" x="628.5" y="-102" font-family="Helvetica,sans-Serif" font-size="10.00" fill="grey"> p_file</text>
</g>
<!-- Node4 -->
<g id="Node000004" class="node">
<title>Node4</title>
<g id="a_Node000004"><a xlink:href="classdunedaq_1_1oks_1_1OksProfiler.html" target="_top" xlink:title=" ">
<polygon fill="white" stroke="#666666" points="125.5,-198.88 0,-198.88 0,-179.62 125.5,-179.62 125.5,-198.88"/>
<text text-anchor="middle" x="62.75" y="-185.38" font-family="Helvetica,sans-Serif" font-size="10.00">dunedaq::oks::OksProfiler</text>
</a>
</g>
</g>
<!-- Node4&#45;&gt;Node2 -->
<g id="edge5_Node000002_Node000004" class="edge">
<title>Node4&#45;&gt;Node2</title>
<g id="a_edge5_Node000002_Node000004"><a xlink:title=" ">
<path fill="none" stroke="#9a32cd" stroke-dasharray="5,2" d="M137.13,-183.22C164.71,-180.96 195.72,-178.41 222.03,-176.25"/>
<polygon fill="#9a32cd" stroke="#9a32cd" points="137.14,-179.71 127.46,-184.02 137.72,-186.69 137.14,-179.71"/>
</a>
</g>
<text text-anchor="middle" x="173.88" y="-185" font-family="Helvetica,sans-Serif" font-size="10.00" fill="grey"> profiler</text>
</g>
<!-- Node5 -->
<g id="Node000005" class="node">
<title>Node5</title>
<g id="a_Node000005"><a xlink:href="structdunedaq_1_1oks_1_1LoadErrors.html" target="_top" xlink:title=" ">
<polygon fill="white" stroke="#666666" points="125.12,-161.88 0.38,-161.88 0.38,-142.62 125.12,-142.62 125.12,-161.88"/>
<text text-anchor="middle" x="62.75" y="-148.38" font-family="Helvetica,sans-Serif" font-size="10.00">dunedaq::oks::LoadErrors</text>
</a>
</g>
</g>
<!-- Node5&#45;&gt;Node2 -->
<g id="edge6_Node000002_Node000005" class="edge">
<title>Node5&#45;&gt;Node2</title>
<g id="a_edge6_Node000002_Node000005"><a xlink:title=" ">
<path fill="none" stroke="#9a32cd" stroke-dasharray="5,2" d="M136.81,-157.45C158.53,-159.1 182.36,-161.01 204.25,-163 209.99,-163.52 215.96,-164.09 221.94,-164.68"/>
<polygon fill="#9a32cd" stroke="#9a32cd" points="137.08,-153.96 126.84,-156.7 136.55,-160.94 137.08,-153.96"/>
</a>
</g>
<text text-anchor="middle" x="173.88" y="-165" font-family="Helvetica,sans-Serif" font-size="10.00" fill="grey"> p_load_errors</text>
</g>
<!-- Node6&#45;&gt;Node1 -->
<g id="edge21_Node000001_Node000006" class="edge">
<title>Node6&#45;&gt;Node1</title>
<g id="a_edge21_Node000001_Node000006"><a xlink:title=" ">
<path fill="none" stroke="#9a32cd" stroke-dasharray="5,2" d="M1548.71,-249.25C1559.25,-249.25 1570.01,-249.25 1580.29,-249.25"/>
<polygon fill="#9a32cd" stroke="#9a32cd" points="1548.92,-245.75 1538.92,-249.25 1548.92,-252.75 1548.92,-245.75"/>
</a>
</g>
<text text-anchor="middle" x="1559" y="-251" font-family="Helvetica,sans-Serif" font-size="10.00" fill="grey"> o</text>
</g>
<!-- Node6&#45;&gt;Node2 -->
<g id="edge7_Node000002_Node000006" class="edge">
<title>Node6&#45;&gt;Node2</title>
<g id="a_edge7_Node000002_Node000006"><a xlink:title=" ">
<path fill="none" stroke="#9a32cd" stroke-dasharray="5,2" d="M1454.27,-265.98C1423.23,-290.23 1360.59,-332.25 1299.38,-332.25 520.12,-332.25 520.12,-332.25 520.12,-332.25 412.73,-332.25 318.37,-216.57 292.11,-181.32"/>
<polygon fill="#9a32cd" stroke="#9a32cd" points="1456.07,-269.03 1461.68,-260.04 1451.69,-263.57 1456.07,-269.03"/>
</a>
</g>
<text text-anchor="start" x="811.75" y="-379" font-family="Helvetica,sans-Serif" font-size="10.00" fill="grey"> p_change_object_notify</text>
<text text-anchor="middle" x="866.88" y="-367.75" font-family="Helvetica,sans-Serif" font-size="10.00" fill="grey">_fn</text>
<text text-anchor="start" x="811.75" y="-356.5" font-family="Helvetica,sans-Serif" font-size="10.00" fill="grey">p_create_object_notify</text>
<text text-anchor="middle" x="866.88" y="-345.25" font-family="Helvetica,sans-Serif" font-size="10.00" fill="grey">_fn</text>
<text text-anchor="middle" x="866.88" y="-334" font-family="Helvetica,sans-Serif" font-size="10.00" fill="grey">p_delete_object_notify_fn</text>
</g>
<!-- Node9 -->
<g id="Node000009" class="node">
<title>Node9</title>
<g id="a_Node000009"><a xlink:href="uniondunedaq_1_1oks_1_1OksData_1_1Data.html" target="_top" xlink:title=" ">
<polygon fill="white" stroke="#666666" points="1055.75,-225.5 940,-225.5 940,-195 1055.75,-195 1055.75,-225.5"/>
<text text-anchor="start" x="948" y="-212" font-family="Helvetica,sans-Serif" font-size="10.00">dunedaq::oks::OksData</text>
<text text-anchor="middle" x="997.88" y="-200.75" font-family="Helvetica,sans-Serif" font-size="10.00">::Data</text>
</a>
</g>
</g>
<!-- Node6&#45;&gt;Node9 -->
<g id="edge16_Node000009_Node000006" class="edge">
<title>Node6&#45;&gt;Node9</title>
<g id="a_edge16_Node000009_Node000006"><a xlink:title=" ">
<path fill="none" stroke="#9a32cd" stroke-dasharray="5,2" d="M1432.29,-236.03C1409.96,-229.62 1381.88,-222.55 1356.25,-219 1251.13,-204.43 1126.99,-205.42 1056.14,-207.68"/>
<polygon fill="#9a32cd" stroke="#9a32cd" points="1431.05,-239.31 1441.63,-238.77 1433.02,-232.59 1431.05,-239.31"/>
</a>
</g>
<text text-anchor="middle" x="1298.38" y="-220" font-family="Helvetica,sans-Serif" font-size="10.00" fill="grey"> OBJECT</text>
</g>
<!-- Node7 -->
<g id="Node000007" class="node">
<title>Node7</title>
<g id="a_Node000007"><a xlink:title=" ">
<polygon fill="white" stroke="#666666" points="753.62,-286.88 712.88,-286.88 712.88,-267.62 753.62,-267.62 753.62,-286.88"/>
<text text-anchor="middle" x="733.25" y="-273.38" font-family="Helvetica,sans-Serif" font-size="10.00">struct</text>
</a>
</g>
</g>
<!-- Node7&#45;&gt;Node6 -->
<g id="edge8_Node000006_Node000007" class="edge">
<title>Node7&#45;&gt;Node6</title>
<g id="a_edge8_Node000006_Node000007"><a xlink:title=" ">
<path fill="none" stroke="#9a32cd" stroke-dasharray="5,2" d="M765.09,-281.17C779.28,-282.78 796.34,-284.46 811.75,-285.25 860.69,-287.77 873.01,-286.21 922,-285.25 1115.11,-281.47 1163.58,-281.89 1356.25,-268.25 1373.63,-267.02 1378.01,-266.77 1395.25,-264.25 1404.78,-262.86 1414.91,-261.13 1424.63,-259.34"/>
<polygon fill="#9a32cd" stroke="#9a32cd" points="765.8,-277.73 755.46,-280.03 764.98,-284.68 765.8,-277.73"/>
</a>
</g>
<text text-anchor="middle" x="1148.12" y="-283" font-family="Helvetica,sans-Serif" font-size="10.00" fill="grey"> uid</text>
</g>
<!-- Node7&#45;&gt;Node9 -->
<g id="edge19_Node000009_Node000007" class="edge">
<title>Node7&#45;&gt;Node9</title>
<g id="a_edge19_Node000009_Node000007"><a xlink:title=" ">
<path fill="none" stroke="#9a32cd" stroke-dasharray="5,2" d="M765.24,-271.28C814.62,-261.71 907.15,-243.6 922,-239.25 934.58,-235.57 948.01,-230.68 959.98,-225.97"/>
<polygon fill="#9a32cd" stroke="#9a32cd" points="764.61,-267.83 755.45,-273.17 765.94,-274.71 764.61,-267.83"/>
</a>
</g>
<text text-anchor="middle" x="866.88" y="-274.25" font-family="Helvetica,sans-Serif" font-size="10.00" fill="grey"> UID</text>
<text text-anchor="middle" x="866.88" y="-263" font-family="Helvetica,sans-Serif" font-size="10.00" fill="grey">UID2</text>
</g>
<!-- Node8 -->
<g id="Node000008" class="node">
<title>Node8</title>
<g id="a_Node000008"><a xlink:href="structdunedaq_1_1oks_1_1OksData.html" target="_top" xlink:title="the structure to pass common parameters to various read() methods of OksData and OksObject class">
<polygon fill="white" stroke="#666666" points="1356.25,-258.88 1240.5,-258.88 1240.5,-239.62 1356.25,-239.62 1356.25,-258.88"/>
<text text-anchor="middle" x="1298.38" y="-245.38" font-family="Helvetica,sans-Serif" font-size="10.00">dunedaq::oks::OksData</text>
</a>
</g>
</g>
<!-- Node8&#45;&gt;Node6 -->
<g id="edge9_Node000006_Node000008" class="edge">
<title>Node8&#45;&gt;Node6</title>
<g id="a_edge9_Node000006_Node000008"><a xlink:title=" ">
<path fill="none" stroke="#9a32cd" stroke-dasharray="5,2" d="M1367.83,-249.25C1382.71,-249.25 1398.36,-249.25 1412.95,-249.25"/>
<polygon fill="#9a32cd" stroke="#9a32cd" points="1368.15,-245.75 1358.15,-249.25 1368.15,-252.75 1368.15,-245.75"/>
</a>
</g>
<text text-anchor="middle" x="1384.75" y="-251" font-family="Helvetica,sans-Serif" font-size="10.00" fill="grey"> data</text>
</g>
<!-- Node9&#45;&gt;Node8 -->
<g id="edge10_Node000008_Node000009" class="edge">
<title>Node9&#45;&gt;Node8</title>
<g id="a_edge10_Node000008_Node000009"><a xlink:title=" ">
<path fill="none" stroke="#9a32cd" stroke-dasharray="5,2" d="M1067.19,-223.24C1069.4,-223.59 1071.59,-223.93 1073.75,-224.25 1130.16,-232.67 1194.96,-239.61 1240.24,-244.03"/>
<polygon fill="#9a32cd" stroke="#9a32cd" points="1067.97,-219.82 1057.53,-221.63 1066.82,-226.72 1067.97,-219.82"/>
</a>
</g>
<text text-anchor="middle" x="1148.12" y="-243" font-family="Helvetica,sans-Serif" font-size="10.00" fill="grey"> data</text>
</g>
<!-- Node10&#45;&gt;Node9 -->
<g id="edge11_Node000009_Node000010" class="edge">
<title>Node10&#45;&gt;Node9</title>
<g id="a_edge11_Node000009_Node000010"><a xlink:title=" ">
<path fill="none" stroke="#9a32cd" stroke-dasharray="5,2" d="M764.64,-94.41C814.85,-119.46 914.65,-169.24 965.51,-194.6"/>
<polygon fill="#9a32cd" stroke="#9a32cd" points="766.29,-91.32 755.78,-89.99 763.16,-97.58 766.29,-91.32"/>
</a>
</g>
<text text-anchor="middle" x="866.88" y="-185.25" font-family="Helvetica,sans-Serif" font-size="10.00" fill="grey"> CLASS</text>
<text text-anchor="middle" x="866.88" y="-174" font-family="Helvetica,sans-Serif" font-size="10.00" fill="grey">class_id</text>
</g>
<!-- Node15 -->
<g id="Node000015" class="node">
<title>Node15</title>
<g id="a_Node000015"><a xlink:href="classdunedaq_1_1oks_1_1OksRelationship.html" target="_top" xlink:title=" ">
<polygon fill="white" stroke="#666666" points="1222.5,-90.88 1073.75,-90.88 1073.75,-71.62 1222.5,-71.62 1222.5,-90.88"/>
<text text-anchor="middle" x="1148.12" y="-77.38" font-family="Helvetica,sans-Serif" font-size="10.00">dunedaq::oks::OksRelationship</text>
</a>
</g>
</g>
<!-- Node10&#45;&gt;Node15 -->
<g id="edge23_Node000015_Node000010" class="edge">
<title>Node10&#45;&gt;Node15</title>
<g id="a_edge23_Node000015_Node000010"><a xlink:title=" ">
<path fill="none" stroke="#9a32cd" stroke-dasharray="5,2" d="M805.03,-79.59C879.96,-79.96 997.66,-80.53 1073.6,-80.89"/>
<polygon fill="#9a32cd" stroke="#9a32cd" points="805.38,-76.09 795.36,-79.55 805.34,-83.09 805.38,-76.09"/>
</a>
</g>
<text text-anchor="middle" x="866.88" y="-93.25" font-family="Helvetica,sans-Serif" font-size="10.00" fill="grey"> p_class</text>
<text text-anchor="middle" x="866.88" y="-82" font-family="Helvetica,sans-Serif" font-size="10.00" fill="grey">p_class_type</text>
</g>
<!-- Node11 -->
<g id="Node000011" class="node">
<title>Node11</title>
<g id="a_Node000011"><a xlink:href="classdunedaq_1_1oksdbinterfaces_1_1map.html" target="_top" xlink:title=" ">
<polygon fill="white" stroke="#666666" points="584.25,-30.5 458,-30.5 458,0 584.25,0 584.25,-30.5"/>
<text text-anchor="start" x="466" y="-17" font-family="Helvetica,sans-Serif" font-size="10.00">dunedaq::oksdbinterfaces</text>
<text text-anchor="middle" x="521.12" y="-5.75" font-family="Helvetica,sans-Serif" font-size="10.00">::map&lt; T &gt;</text>
</a>
</g>
</g>
<!-- Node11&#45;&gt;Node10 -->
<g id="edge14_Node000010_Node000011" class="edge">
<title>Node11&#45;&gt;Node10</title>
<g id="a_edge14_Node000010_Node000011"><a xlink:title=" ">
<path fill="none" stroke="#9a32cd" stroke-dasharray="5,2" d="M595.7,-25.92C615.17,-29.72 635.98,-34.67 654.75,-41 676.5,-48.33 699.94,-60.56 715.27,-69.22"/>
<polygon fill="#9a32cd" stroke="#9a32cd" points="596.38,-22.49 585.91,-24.09 595.1,-29.37 596.38,-22.49"/>
</a>
</g>
<text text-anchor="middle" x="628.5" y="-43" font-family="Helvetica,sans-Serif" font-size="10.00" fill="grey"> p_data_info</text>
</g>
<!-- Node12 -->
<g id="Node000012" class="node">
<title>Node12</title>
<g id="a_Node000012"><a xlink:title=" ">
<polygon fill="white" stroke="#666666" points="334.25,-30.5 233.5,-30.5 233.5,0 334.25,0 334.25,-30.5"/>
<text text-anchor="start" x="241.5" y="-17" font-family="Helvetica,sans-Serif" font-size="10.00">std::unordered_map</text>
<text text-anchor="middle" x="283.88" y="-5.75" font-family="Helvetica,sans-Serif" font-size="10.00">&lt; std::string, T &gt;</text>
</a>
</g>
</g>
<!-- Node12&#45;&gt;Node11 -->
<g id="edge15_Node000011_Node000012" class="edge">
<title>Node12&#45;&gt;Node11</title>
<g id="a_edge15_Node000011_Node000012"><a xlink:title=" ">
<path fill="none" stroke="#63b8ff" d="M345.78,-15.25C380.12,-15.25 422.96,-15.25 457.57,-15.25"/>
<polygon fill="#63b8ff" stroke="#63b8ff" points="345.99,-11.75 335.99,-15.25 345.99,-18.75 345.99,-11.75"/>
</a>
</g>
</g>
<!-- Node13 -->
<g id="Node000013" class="node">
<title>Node13</title>
<g id="a_Node000013"><a xlink:href="classdunedaq_1_1oks_1_1OksString.html" target="_top" xlink:title="Class OKS string.">
<polygon fill="white" stroke="#666666" points="793.75,-213.88 672.75,-213.88 672.75,-194.62 793.75,-194.62 793.75,-213.88"/>
<text text-anchor="middle" x="733.25" y="-200.38" font-family="Helvetica,sans-Serif" font-size="10.00">dunedaq::oks::OksString</text>
</a>
</g>
</g>
<!-- Node13&#45;&gt;Node9 -->
<g id="edge17_Node000009_Node000013" class="edge">
<title>Node13&#45;&gt;Node9</title>
<g id="a_edge17_Node000009_Node000013"><a xlink:title=" ">
<path fill="none" stroke="#9a32cd" stroke-dasharray="5,2" d="M805.01,-203.77C840.19,-203.78 883.35,-204.15 922,-205.5 927.73,-205.7 933.7,-205.97 939.66,-206.29"/>
<polygon fill="#9a32cd" stroke="#9a32cd" points="805.39,-200.27 795.39,-203.78 805.4,-207.27 805.39,-200.27"/>
</a>
</g>
<text text-anchor="middle" x="866.88" y="-229.5" font-family="Helvetica,sans-Serif" font-size="10.00" fill="grey"> STRING</text>
<text text-anchor="middle" x="866.88" y="-218.25" font-family="Helvetica,sans-Serif" font-size="10.00" fill="grey">class_id</text>
<text text-anchor="middle" x="866.88" y="-207" font-family="Helvetica,sans-Serif" font-size="10.00" fill="grey">object_id</text>
</g>
<!-- Node14 -->
<g id="Node000014" class="node">
<title>Node14</title>
<g id="a_Node000014"><a xlink:title=" ">
<polygon fill="white" stroke="#666666" points="550.12,-213.88 492.12,-213.88 492.12,-194.62 550.12,-194.62 550.12,-213.88"/>
<text text-anchor="middle" x="521.12" y="-200.38" font-family="Helvetica,sans-Serif" font-size="10.00">std::string</text>
</a>
</g>
</g>
<!-- Node14&#45;&gt;Node13 -->
<g id="edge18_Node000013_Node000014" class="edge">
<title>Node14&#45;&gt;Node13</title>
<g id="a_edge18_Node000013_Node000014"><a xlink:title=" ">
<path fill="none" stroke="#63b8ff" d="M561.76,-204.25C593,-204.25 637.06,-204.25 672.56,-204.25"/>
<polygon fill="#63b8ff" stroke="#63b8ff" points="561.98,-200.75 551.98,-204.25 561.98,-207.75 561.98,-200.75"/>
</a>
</g>
</g>
<!-- Node15&#45;&gt;Node1 -->
<g id="edge22_Node000001_Node000015" class="edge">
<title>Node15&#45;&gt;Node1</title>
<g id="a_edge22_Node000001_Node000015"><a xlink:title=" ">
<path fill="none" stroke="#9a32cd" stroke-dasharray="5,2" d="M1234.34,-78.08C1282.61,-78.65 1343.49,-83.41 1395.25,-100 1488.86,-130.01 1584,-201.88 1623.16,-233.67"/>
<polygon fill="#9a32cd" stroke="#9a32cd" points="1234.52,-74.58 1224.5,-78.03 1234.48,-81.58 1234.52,-74.58"/>
</a>
</g>
<text text-anchor="middle" x="1384.75" y="-102" font-family="Helvetica,sans-Serif" font-size="10.00" fill="grey"> r</text>
</g>
</g>
</svg>
