<?xml version="1.0" encoding="UTF-8" standalone="no"?>
<!DOCTYPE svg PUBLIC "-//W3C//DTD SVG 1.1//EN"
 "http://www.w3.org/Graphics/SVG/1.1/DTD/svg11.dtd">
<!-- Generated by graphviz version 9.0.0 (20230911.1827)
 -->
<!-- Title: dunedaq::oks::OksXmlRelValue Pages: 1 -->
<svg width="1837pt" height="563pt"
 viewBox="0.00 0.00 1836.50 562.88" xmlns="http://www.w3.org/2000/svg" xmlns:xlink="http://www.w3.org/1999/xlink">
<g id="graph0" class="graph" transform="scale(1 1) rotate(0) translate(4 558.88)">
<title>dunedaq::oks::OksXmlRelValue</title>
<!-- Node1 -->
<g id="Node000001" class="node">
<title>Node1</title>
<g id="a_Node000001"><a xlink:title=" ">
<polygon fill="#999999" stroke="#666666" points="1828.5,-495.25 1676.75,-495.25 1676.75,-476 1828.5,-476 1828.5,-495.25"/>
<text text-anchor="middle" x="1752.62" y="-481.75" font-family="Helvetica,sans-Serif" font-size="10.00">dunedaq::oks::OksXmlRelValue</text>
</a>
</g>
</g>
<!-- Node2 -->
<g id="Node000002" class="node">
<title>Node2</title>
<g id="a_Node000002"><a xlink:href="structdunedaq_1_1oks_1_1ReadFileParams.html" target="_top" xlink:title=" ">
<polygon fill="white" stroke="#666666" points="1575.5,-299.25 1426,-299.25 1426,-280 1575.5,-280 1575.5,-299.25"/>
<text text-anchor="middle" x="1500.75" y="-285.75" font-family="Helvetica,sans-Serif" font-size="10.00">dunedaq::oks::ReadFileParams</text>
</a>
</g>
</g>
<!-- Node2&#45;&gt;Node1 -->
<g id="edge1_Node000001_Node000002" class="edge">
<title>Node2&#45;&gt;Node1</title>
<g id="a_edge1_Node000001_Node000002"><a xlink:title=" ">
<path fill="none" stroke="#9a32cd" stroke-dasharray="5,2" d="M1523.28,-306.51C1573.8,-346.14 1698.68,-444.1 1738.92,-475.66"/>
<polygon fill="#9a32cd" stroke="#9a32cd" points="1525.7,-303.97 1515.68,-300.55 1521.38,-309.47 1525.7,-303.97"/>
</a>
</g>
<text text-anchor="middle" x="1626.12" y="-412.38" font-family="Helvetica,sans-Serif" font-size="10.00" fill="grey"> m_file_params</text>
</g>
<!-- Node3 -->
<g id="Node000003" class="node">
<title>Node3</title>
<g id="a_Node000003"><a xlink:href="classdunedaq_1_1oks_1_1OksFile.html" target="_top" xlink:title="Provides interface to the OKS XML schema and data files.">
<polygon fill="white" stroke="#666666" points="118.38,-162.25 7.12,-162.25 7.12,-143 118.38,-143 118.38,-162.25"/>
<text text-anchor="middle" x="62.75" y="-148.75" font-family="Helvetica,sans-Serif" font-size="10.00">dunedaq::oks::OksFile</text>
</a>
</g>
</g>
<!-- Node3&#45;&gt;Node2 -->
<g id="edge2_Node000002_Node000003" class="edge">
<title>Node3&#45;&gt;Node2</title>
<g id="a_edge2_Node000002_Node000003"><a xlink:title=" ">
<path fill="none" stroke="#9a32cd" stroke-dasharray="5,2" d="M72.07,-172.81C97.19,-230.1 178.07,-389.62 300.12,-389.62 300.12,-389.62 300.12,-389.62 809,-389.62 942.63,-389.62 1279.75,-374.17 1408,-336.62 1436.68,-328.23 1466.99,-310.79 1484.59,-299.67"/>
<polygon fill="#9a32cd" stroke="#9a32cd" points="75.42,-171.73 68.27,-163.9 68.98,-174.47 75.42,-171.73"/>
</a>
</g>
<text text-anchor="middle" x="707.38" y="-391.38" font-family="Helvetica,sans-Serif" font-size="10.00" fill="grey"> f</text>
</g>
<!-- Node3&#45;&gt;Node3 -->
<g id="edge3_Node000003_Node000003" class="edge">
<title>Node3&#45;&gt;Node3</title>
<g id="a_edge3_Node000003_Node000003"><a xlink:title=" ">
<path fill="none" stroke="#9a32cd" stroke-dasharray="5,2" d="M41.63,-173.65C44.27,-177.53 51.31,-180.25 62.75,-180.25 83.67,-180.25 89.88,-171.15 81.38,-162.54"/>
<polygon fill="#9a32cd" stroke="#9a32cd" points="45.02,-174.54 43.79,-164.01 38.19,-173.01 45.02,-174.54"/>
</a>
</g>
<text text-anchor="middle" x="62.75" y="-182" font-family="Helvetica,sans-Serif" font-size="10.00" fill="grey"> p_included_by</text>
</g>
<!-- Node4 -->
<g id="Node000004" class="node">
<title>Node4</title>
<g id="a_Node000004"><a xlink:href="classdunedaq_1_1oks_1_1OksKernel.html" target="_top" xlink:title="Provides interface to the OKS kernel.">
<polygon fill="white" stroke="#666666" points="362.75,-78.25 239.5,-78.25 239.5,-59 362.75,-59 362.75,-78.25"/>
<text text-anchor="middle" x="301.12" y="-64.75" font-family="Helvetica,sans-Serif" font-size="10.00">dunedaq::oks::OksKernel</text>
</a>
</g>
</g>
<!-- Node3&#45;&gt;Node4 -->
<g id="edge5_Node000004_Node000003" class="edge">
<title>Node3&#45;&gt;Node4</title>
<g id="a_edge5_Node000004_Node000003"><a xlink:title=" ">
<path fill="none" stroke="#9a32cd" stroke-dasharray="5,2" d="M77.6,-133.64C91.88,-115.76 115.89,-89.99 143.5,-78.12 173.28,-65.32 209.22,-62.37 239.16,-62.88"/>
<polygon fill="#9a32cd" stroke="#9a32cd" points="74.94,-131.36 71.64,-141.42 80.5,-135.62 74.94,-131.36"/>
</a>
</g>
<text text-anchor="middle" x="181.75" y="-91.62" font-family="Helvetica,sans-Serif" font-size="10.00" fill="grey"> p_active_data</text>
<text text-anchor="middle" x="181.75" y="-80.38" font-family="Helvetica,sans-Serif" font-size="10.00" fill="grey">p_active_schema</text>
</g>
<!-- Node7 -->
<g id="Node000007" class="node">
<title>Node7</title>
<g id="a_Node000007"><a xlink:href="classdunedaq_1_1oks_1_1OksObject.html" target="_top" xlink:title="OksObject describes instance of OksClass.">
<polygon fill="white" stroke="#666666" points="1243.88,-238.25 1119.88,-238.25 1119.88,-219 1243.88,-219 1243.88,-238.25"/>
<text text-anchor="middle" x="1181.88" y="-224.75" font-family="Helvetica,sans-Serif" font-size="10.00">dunedaq::oks::OksObject</text>
</a>
</g>
</g>
<!-- Node3&#45;&gt;Node7 -->
<g id="edge21_Node000007_Node000003" class="edge">
<title>Node3&#45;&gt;Node7</title>
<g id="a_edge21_Node000007_Node000003"><a xlink:title=" ">
<path fill="none" stroke="#9a32cd" stroke-dasharray="5,2" d="M130.02,-152.62C177.4,-152.62 242.69,-152.62 300.12,-152.62 300.12,-152.62 300.12,-152.62 931.38,-152.62 1015.37,-152.62 1030.58,-187.21 1111.25,-210.62 1120.6,-213.34 1130.72,-216.07 1140.27,-218.56"/>
<polygon fill="#9a32cd" stroke="#9a32cd" points="130.19,-149.13 120.19,-152.63 130.19,-156.13 130.19,-149.13"/>
</a>
</g>
<text text-anchor="middle" x="611.62" y="-154.38" font-family="Helvetica,sans-Serif" font-size="10.00" fill="grey"> file</text>
</g>
<!-- Node11 -->
<g id="Node000011" class="node">
<title>Node11</title>
<g id="a_Node000011"><a xlink:href="classdunedaq_1_1oks_1_1OksClass.html" target="_top" xlink:title="The OKS class.">
<polygon fill="white" stroke="#666666" points="573.38,-279.25 453.12,-279.25 453.12,-260 573.38,-260 573.38,-279.25"/>
<text text-anchor="middle" x="513.25" y="-265.75" font-family="Helvetica,sans-Serif" font-size="10.00">dunedaq::oks::OksClass</text>
</a>
</g>
</g>
<!-- Node3&#45;&gt;Node11 -->
<g id="edge13_Node000011_Node000003" class="edge">
<title>Node3&#45;&gt;Node11</title>
<g id="a_edge13_Node000011_Node000003"><a xlink:title=" ">
<path fill="none" stroke="#9a32cd" stroke-dasharray="5,2" d="M113.38,-165.57C203.49,-189.08 392.2,-238.31 473.56,-259.53"/>
<polygon fill="#9a32cd" stroke="#9a32cd" points="114.4,-162.22 103.84,-163.08 112.63,-168.99 114.4,-162.22"/>
</a>
</g>
<text text-anchor="middle" x="301.12" y="-231.38" font-family="Helvetica,sans-Serif" font-size="10.00" fill="grey"> p_file</text>
</g>
<!-- Node4&#45;&gt;Node2 -->
<g id="edge27_Node000002_Node000004" class="edge">
<title>Node4&#45;&gt;Node2</title>
<g id="a_edge27_Node000002_Node000004"><a xlink:title=" ">
<path fill="none" stroke="#9a32cd" stroke-dasharray="5,2" d="M340.68,-54.95C382.41,-41.39 451.19,-22.62 512.25,-22.62 512.25,-22.62 512.25,-22.62 1182.88,-22.62 1345.82,-22.62 1468.48,-231.64 1494.59,-279.81"/>
<polygon fill="#9a32cd" stroke="#9a32cd" points="339.73,-51.58 331.35,-58.05 341.94,-58.22 339.73,-51.58"/>
</a>
</g>
<text text-anchor="middle" x="808" y="-24.38" font-family="Helvetica,sans-Serif" font-size="10.00" fill="grey"> oks_kernel</text>
</g>
<!-- Node4&#45;&gt;Node3 -->
<g id="edge4_Node000003_Node000004" class="edge">
<title>Node4&#45;&gt;Node3</title>
<g id="a_edge4_Node000003_Node000004"><a xlink:title=" ">
<path fill="none" stroke="#9a32cd" stroke-dasharray="5,2" d="M269.58,-83.5C254.8,-90.4 236.68,-98.43 220,-104.62 186.75,-116.98 177.41,-116.97 143.5,-127.38 127.53,-132.28 109.82,-137.87 95.15,-142.54"/>
<polygon fill="#9a32cd" stroke="#9a32cd" points="270.78,-86.81 278.32,-79.36 267.78,-80.48 270.78,-86.81"/>
</a>
</g>
<text text-anchor="middle" x="181.75" y="-129.38" font-family="Helvetica,sans-Serif" font-size="10.00" fill="grey"> p_kernel</text>
</g>
<!-- Node4&#45;&gt;Node11 -->
<g id="edge14_Node000011_Node000004" class="edge">
<title>Node4&#45;&gt;Node11</title>
<g id="a_edge14_Node000011_Node000004"><a xlink:title=" ">
<path fill="none" stroke="#9a32cd" stroke-dasharray="5,2" d="M317.55,-86.87C343.78,-117.41 399.44,-180.1 452.75,-226.62 466.87,-238.94 484.39,-251.29 496.75,-259.58"/>
<polygon fill="#9a32cd" stroke="#9a32cd" points="320.52,-84.96 311.37,-79.63 315.2,-89.51 320.52,-84.96"/>
</a>
</g>
<text text-anchor="middle" x="408.5" y="-208.38" font-family="Helvetica,sans-Serif" font-size="10.00" fill="grey"> p_kernel</text>
</g>
<!-- Node5 -->
<g id="Node000005" class="node">
<title>Node5</title>
<g id="a_Node000005"><a xlink:href="classdunedaq_1_1oks_1_1OksProfiler.html" target="_top" xlink:title=" ">
<polygon fill="white" stroke="#666666" points="125.5,-56.25 0,-56.25 0,-37 125.5,-37 125.5,-56.25"/>
<text text-anchor="middle" x="62.75" y="-42.75" font-family="Helvetica,sans-Serif" font-size="10.00">dunedaq::oks::OksProfiler</text>
</a>
</g>
</g>
<!-- Node5&#45;&gt;Node4 -->
<g id="edge6_Node000004_Node000005" class="edge">
<title>Node5&#45;&gt;Node4</title>
<g id="a_edge6_Node000004_Node000005"><a xlink:title=" ">
<path fill="none" stroke="#9a32cd" stroke-dasharray="5,2" d="M137.35,-43.14C163.54,-42.91 193.18,-43.81 220,-47.38 236.69,-49.59 254.86,-54.22 269.67,-58.59"/>
<polygon fill="#9a32cd" stroke="#9a32cd" points="137.43,-39.64 127.48,-43.29 137.53,-46.64 137.43,-39.64"/>
</a>
</g>
<text text-anchor="middle" x="181.75" y="-49.38" font-family="Helvetica,sans-Serif" font-size="10.00" fill="grey"> profiler</text>
</g>
<!-- Node6 -->
<g id="Node000006" class="node">
<title>Node6</title>
<g id="a_Node000006"><a xlink:href="structdunedaq_1_1oks_1_1LoadErrors.html" target="_top" xlink:title=" ">
<polygon fill="white" stroke="#666666" points="125.12,-19.25 0.38,-19.25 0.38,0 125.12,0 125.12,-19.25"/>
<text text-anchor="middle" x="62.75" y="-5.75" font-family="Helvetica,sans-Serif" font-size="10.00">dunedaq::oks::LoadErrors</text>
</a>
</g>
</g>
<!-- Node6&#45;&gt;Node4 -->
<g id="edge7_Node000004_Node000006" class="edge">
<title>Node6&#45;&gt;Node4</title>
<g id="a_edge7_Node000004_Node000006"><a xlink:title=" ">
<path fill="none" stroke="#9a32cd" stroke-dasharray="5,2" d="M136.77,-13.13C163.39,-15.78 193.45,-20.38 220,-28.38 243.55,-35.47 268.55,-49.14 284.24,-58.56"/>
<polygon fill="#9a32cd" stroke="#9a32cd" points="137.38,-9.67 127.11,-12.25 136.75,-16.65 137.38,-9.67"/>
</a>
</g>
<text text-anchor="middle" x="181.75" y="-30.38" font-family="Helvetica,sans-Serif" font-size="10.00" fill="grey"> p_load_errors</text>
</g>
<!-- Node7&#45;&gt;Node2 -->
<g id="edge29_Node000002_Node000007" class="edge">
<title>Node7&#45;&gt;Node2</title>
<g id="a_edge29_Node000002_Node000007"><a xlink:title=" ">
<path fill="none" stroke="#9a32cd" stroke-dasharray="5,2" d="M1246.24,-240.82C1305.25,-252.18 1392.16,-268.91 1447.35,-279.54"/>
<polygon fill="#9a32cd" stroke="#9a32cd" points="1247.17,-237.44 1236.69,-238.98 1245.84,-244.31 1247.17,-237.44"/>
</a>
</g>
<text text-anchor="middle" x="1339.25" y="-272.38" font-family="Helvetica,sans-Serif" font-size="10.00" fill="grey"> owner</text>
</g>
<!-- Node7&#45;&gt;Node4 -->
<g id="edge8_Node000004_Node000007" class="edge">
<title>Node7&#45;&gt;Node4</title>
<g id="a_edge8_Node000004_Node000007"><a xlink:title=" ">
<path fill="none" stroke="#9a32cd" stroke-dasharray="5,2" d="M1112.77,-212.08C1112.25,-211.61 1111.74,-211.12 1111.25,-210.62 1088.02,-187.21 1114.6,-163.77 1093.25,-138.62 1042.53,-78.87 1009.76,-68.62 931.38,-68.62 512.25,-68.62 512.25,-68.62 512.25,-68.62 461.91,-68.62 404.78,-68.62 362.81,-68.62"/>
<polygon fill="#9a32cd" stroke="#9a32cd" points="1110.6,-214.83 1120.77,-217.78 1114.66,-209.13 1110.6,-214.83"/>
</a>
</g>
<text text-anchor="start" x="652.25" y="-115.38" font-family="Helvetica,sans-Serif" font-size="10.00" fill="grey"> p_change_object_notify</text>
<text text-anchor="middle" x="707.38" y="-104.12" font-family="Helvetica,sans-Serif" font-size="10.00" fill="grey">_fn</text>
<text text-anchor="start" x="652.25" y="-92.88" font-family="Helvetica,sans-Serif" font-size="10.00" fill="grey">p_create_object_notify</text>
<text text-anchor="middle" x="707.38" y="-81.62" font-family="Helvetica,sans-Serif" font-size="10.00" fill="grey">_fn</text>
<text text-anchor="middle" x="707.38" y="-70.38" font-family="Helvetica,sans-Serif" font-size="10.00" fill="grey">p_delete_object_notify_fn</text>
</g>
<!-- Node10 -->
<g id="Node000010" class="node">
<title>Node10</title>
<g id="a_Node000010"><a xlink:href="uniondunedaq_1_1oks_1_1OksData_1_1Data.html" target="_top" xlink:title=" ">
<polygon fill="white" stroke="#666666" points="765.25,-284.88 649.5,-284.88 649.5,-254.38 765.25,-254.38 765.25,-284.88"/>
<text text-anchor="start" x="657.5" y="-271.38" font-family="Helvetica,sans-Serif" font-size="10.00">dunedaq::oks::OksData</text>
<text text-anchor="middle" x="707.38" y="-260.12" font-family="Helvetica,sans-Serif" font-size="10.00">::Data</text>
</a>
</g>
</g>
<!-- Node7&#45;&gt;Node10 -->
<g id="edge17_Node000010_Node000007" class="edge">
<title>Node7&#45;&gt;Node10</title>
<g id="a_edge17_Node000010_Node000007"><a xlink:title=" ">
<path fill="none" stroke="#9a32cd" stroke-dasharray="5,2" d="M1116.08,-240.48C1108.4,-241.66 1100.66,-242.74 1093.25,-243.62 977.37,-257.42 840.93,-264.48 765.6,-267.58"/>
<polygon fill="#9a32cd" stroke="#9a32cd" points="1116.43,-243.97 1125.75,-238.94 1115.32,-237.06 1116.43,-243.97"/>
</a>
</g>
<text text-anchor="middle" x="930.38" y="-264.38" font-family="Helvetica,sans-Serif" font-size="10.00" fill="grey"> OBJECT</text>
</g>
<!-- Node8 -->
<g id="Node000008" class="node">
<title>Node8</title>
<g id="a_Node000008"><a xlink:title=" ">
<polygon fill="white" stroke="#666666" points="533.62,-217.25 492.88,-217.25 492.88,-198 533.62,-198 533.62,-217.25"/>
<text text-anchor="middle" x="513.25" y="-203.75" font-family="Helvetica,sans-Serif" font-size="10.00">struct</text>
</a>
</g>
</g>
<!-- Node8&#45;&gt;Node7 -->
<g id="edge9_Node000007_Node000008" class="edge">
<title>Node8&#45;&gt;Node7</title>
<g id="a_edge9_Node000007_Node000008"><a xlink:title=" ">
<path fill="none" stroke="#9a32cd" stroke-dasharray="5,2" d="M545.51,-206.6C623.81,-204.27 834.64,-199.55 1010,-209.62 1046.5,-211.72 1087.2,-216.16 1119.72,-220.22"/>
<polygon fill="#9a32cd" stroke="#9a32cd" points="545.51,-203.09 535.62,-206.9 545.72,-210.09 545.51,-203.09"/>
</a>
</g>
<text text-anchor="middle" x="808" y="-205.38" font-family="Helvetica,sans-Serif" font-size="10.00" fill="grey"> uid</text>
</g>
<!-- Node8&#45;&gt;Node10 -->
<g id="edge20_Node000010_Node000008" class="edge">
<title>Node8&#45;&gt;Node10</title>
<g id="a_edge20_Node000010_Node000008"><a xlink:title=" ">
<path fill="none" stroke="#9a32cd" stroke-dasharray="5,2" d="M544.62,-216.4C568.37,-223.36 602.15,-233.49 631.5,-243.12 641.85,-246.52 652.94,-250.35 663.33,-254.01"/>
<polygon fill="#9a32cd" stroke="#9a32cd" points="545.87,-213.12 535.29,-213.68 543.91,-219.84 545.87,-213.12"/>
</a>
</g>
<text text-anchor="middle" x="611.62" y="-255.62" font-family="Helvetica,sans-Serif" font-size="10.00" fill="grey"> UID</text>
<text text-anchor="middle" x="611.62" y="-244.38" font-family="Helvetica,sans-Serif" font-size="10.00" fill="grey">UID2</text>
</g>
<!-- Node9 -->
<g id="Node000009" class="node">
<title>Node9</title>
<g id="a_Node000009"><a xlink:href="structdunedaq_1_1oks_1_1OksData.html" target="_top" xlink:title="the structure to pass common parameters to various read() methods of OksData and OksObject class">
<polygon fill="white" stroke="#666666" points="988.25,-238.25 872.5,-238.25 872.5,-219 988.25,-219 988.25,-238.25"/>
<text text-anchor="middle" x="930.38" y="-224.75" font-family="Helvetica,sans-Serif" font-size="10.00">dunedaq::oks::OksData</text>
</a>
</g>
</g>
<!-- Node9&#45;&gt;Node7 -->
<g id="edge10_Node000007_Node000009" class="edge">
<title>Node9&#45;&gt;Node7</title>
<g id="a_edge10_Node000007_Node000009"><a xlink:title=" ">
<path fill="none" stroke="#9a32cd" stroke-dasharray="5,2" d="M999.94,-228.62C1037.36,-228.62 1083.31,-228.62 1119.54,-228.62"/>
<polygon fill="#9a32cd" stroke="#9a32cd" points="1000.13,-225.13 990.13,-228.63 1000.13,-232.13 1000.13,-225.13"/>
</a>
</g>
<text text-anchor="middle" x="1060.62" y="-230.38" font-family="Helvetica,sans-Serif" font-size="10.00" fill="grey"> data</text>
</g>
<!-- Node10&#45;&gt;Node9 -->
<g id="edge11_Node000009_Node000010" class="edge">
<title>Node10&#45;&gt;Node9</title>
<g id="a_edge11_Node000009_Node000010"><a xlink:title=" ">
<path fill="none" stroke="#9a32cd" stroke-dasharray="5,2" d="M774.33,-251.31C777.34,-250.63 780.32,-249.98 783.25,-249.38 812.37,-243.39 845.1,-238.57 872.19,-235.09"/>
<polygon fill="#9a32cd" stroke="#9a32cd" points="773.78,-247.84 764.86,-253.57 775.4,-254.65 773.78,-247.84"/>
</a>
</g>
<text text-anchor="middle" x="808" y="-250.38" font-family="Helvetica,sans-Serif" font-size="10.00" fill="grey"> data</text>
</g>
<!-- Node11&#45;&gt;Node1 -->
<g id="edge32_Node000001_Node000011" class="edge">
<title>Node11&#45;&gt;Node1</title>
<g id="a_edge32_Node000001_Node000011"><a xlink:title=" ">
<path fill="none" stroke="#9a32cd" stroke-dasharray="5,2" d="M555.67,-283.27C617.37,-304.02 729.94,-343.62 765.25,-367.62 811.41,-399.01 800.32,-435.69 850.75,-459.62 995.82,-528.47 1487.36,-503.64 1676.55,-491.08"/>
<polygon fill="#9a32cd" stroke="#9a32cd" points="557.16,-280.08 546.57,-280.23 554.94,-286.72 557.16,-280.08"/>
</a>
</g>
<text text-anchor="middle" x="1060.62" y="-502.38" font-family="Helvetica,sans-Serif" font-size="10.00" fill="grey"> m_class</text>
</g>
<!-- Node11&#45;&gt;Node10 -->
<g id="edge12_Node000010_Node000011" class="edge">
<title>Node11&#45;&gt;Node10</title>
<g id="a_edge12_Node000010_Node000011"><a xlink:title=" ">
<path fill="none" stroke="#9a32cd" stroke-dasharray="5,2" d="M585.22,-269.62C606.28,-269.62 629.08,-269.62 649.15,-269.62"/>
<polygon fill="#9a32cd" stroke="#9a32cd" points="585.24,-266.13 575.24,-269.63 585.24,-273.13 585.24,-266.13"/>
</a>
</g>
<text text-anchor="middle" x="611.62" y="-282.62" font-family="Helvetica,sans-Serif" font-size="10.00" fill="grey"> CLASS</text>
<text text-anchor="middle" x="611.62" y="-271.38" font-family="Helvetica,sans-Serif" font-size="10.00" fill="grey">class_id</text>
</g>
<!-- Node12 -->
<g id="Node000012" class="node">
<title>Node12</title>
<g id="a_Node000012"><a xlink:href="classdunedaq_1_1oksdbinterfaces_1_1map.html" target="_top" xlink:title=" ">
<polygon fill="white" stroke="#666666" points="364.25,-447.88 238,-447.88 238,-417.38 364.25,-417.38 364.25,-447.88"/>
<text text-anchor="start" x="246" y="-434.38" font-family="Helvetica,sans-Serif" font-size="10.00">dunedaq::oksdbinterfaces</text>
<text text-anchor="middle" x="301.12" y="-423.12" font-family="Helvetica,sans-Serif" font-size="10.00">::map&lt; T &gt;</text>
</a>
</g>
</g>
<!-- Node12&#45;&gt;Node11 -->
<g id="edge15_Node000011_Node000012" class="edge">
<title>Node12&#45;&gt;Node11</title>
<g id="a_edge15_Node000011_Node000012"><a xlink:title=" ">
<path fill="none" stroke="#9a32cd" stroke-dasharray="5,2" d="M331.2,-410.07C377.47,-374.18 466,-305.5 499.22,-279.73"/>
<polygon fill="#9a32cd" stroke="#9a32cd" points="329.22,-407.17 323.47,-416.07 333.52,-412.7 329.22,-407.17"/>
</a>
</g>
<text text-anchor="middle" x="408.5" y="-367.38" font-family="Helvetica,sans-Serif" font-size="10.00" fill="grey"> p_data_info</text>
</g>
<!-- Node13 -->
<g id="Node000013" class="node">
<title>Node13</title>
<g id="a_Node000013"><a xlink:title=" ">
<polygon fill="white" stroke="#666666" points="113.12,-447.88 12.38,-447.88 12.38,-417.38 113.12,-417.38 113.12,-447.88"/>
<text text-anchor="start" x="20.38" y="-434.38" font-family="Helvetica,sans-Serif" font-size="10.00">std::unordered_map</text>
<text text-anchor="middle" x="62.75" y="-423.12" font-family="Helvetica,sans-Serif" font-size="10.00">&lt; std::string, T &gt;</text>
</a>
</g>
</g>
<!-- Node13&#45;&gt;Node12 -->
<g id="edge16_Node000012_Node000013" class="edge">
<title>Node13&#45;&gt;Node12</title>
<g id="a_edge16_Node000012_Node000013"><a xlink:title=" ">
<path fill="none" stroke="#63b8ff" d="M124.99,-432.62C159.64,-432.62 202.87,-432.62 237.71,-432.62"/>
<polygon fill="#63b8ff" stroke="#63b8ff" points="125.1,-429.13 115.1,-432.63 125.1,-436.13 125.1,-429.13"/>
</a>
</g>
</g>
<!-- Node14 -->
<g id="Node000014" class="node">
<title>Node14</title>
<g id="a_Node000014"><a xlink:href="classdunedaq_1_1oks_1_1OksString.html" target="_top" xlink:title="Class OKS string.">
<polygon fill="white" stroke="#666666" points="573.75,-517.25 452.75,-517.25 452.75,-498 573.75,-498 573.75,-517.25"/>
<text text-anchor="middle" x="513.25" y="-503.75" font-family="Helvetica,sans-Serif" font-size="10.00">dunedaq::oks::OksString</text>
</a>
</g>
</g>
<!-- Node14&#45;&gt;Node1 -->
<g id="edge33_Node000001_Node000014" class="edge">
<title>Node14&#45;&gt;Node1</title>
<g id="a_edge33_Node000001_Node000014"><a xlink:title=" ">
<path fill="none" stroke="#9a32cd" stroke-dasharray="5,2" d="M558.42,-520.72C597.08,-531.01 654.95,-543.62 706.38,-543.62 706.38,-543.62 706.38,-543.62 1501.75,-543.62 1572.34,-543.62 1590.38,-537.18 1658.75,-519.62 1683.03,-513.39 1709.83,-503.21 1728.37,-495.61"/>
<polygon fill="#9a32cd" stroke="#9a32cd" points="559.59,-517.41 549.02,-518.15 557.75,-524.16 559.59,-517.41"/>
</a>
</g>
<text text-anchor="middle" x="1060.62" y="-545.38" font-family="Helvetica,sans-Serif" font-size="10.00" fill="grey"> m_class_id</text>
</g>
<!-- Node14&#45;&gt;Node10 -->
<g id="edge18_Node000010_Node000014" class="edge">
<title>Node14&#45;&gt;Node10</title>
<g id="a_edge18_Node000010_Node000014"><a xlink:title=" ">
<path fill="none" stroke="#9a32cd" stroke-dasharray="5,2" d="M529.4,-488.85C566.22,-443.24 659.86,-327.24 693.83,-285.17"/>
<polygon fill="#9a32cd" stroke="#9a32cd" points="526.77,-486.54 523.21,-496.52 532.22,-490.94 526.77,-486.54"/>
</a>
</g>
<text text-anchor="middle" x="611.62" y="-433.88" font-family="Helvetica,sans-Serif" font-size="10.00" fill="grey"> STRING</text>
<text text-anchor="middle" x="611.62" y="-422.62" font-family="Helvetica,sans-Serif" font-size="10.00" fill="grey">class_id</text>
<text text-anchor="middle" x="611.62" y="-411.38" font-family="Helvetica,sans-Serif" font-size="10.00" fill="grey">object_id</text>
</g>
<!-- Node15 -->
<g id="Node000015" class="node">
<title>Node15</title>
<g id="a_Node000015"><a xlink:title=" ">
<polygon fill="white" stroke="#666666" points="330.12,-517.25 272.12,-517.25 272.12,-498 330.12,-498 330.12,-517.25"/>
<text text-anchor="middle" x="301.12" y="-503.75" font-family="Helvetica,sans-Serif" font-size="10.00">std::string</text>
</a>
</g>
</g>
<!-- Node15&#45;&gt;Node14 -->
<g id="edge19_Node000014_Node000015" class="edge">
<title>Node15&#45;&gt;Node14</title>
<g id="a_edge19_Node000014_Node000015"><a xlink:title=" ">
<path fill="none" stroke="#63b8ff" d="M341.76,-507.62C373,-507.62 417.06,-507.62 452.56,-507.62"/>
<polygon fill="#63b8ff" stroke="#63b8ff" points="341.98,-504.13 331.98,-507.63 341.98,-511.13 341.98,-504.13"/>
</a>
</g>
</g>
<!-- Node16 -->
<g id="Node000016" class="node">
<title>Node16</title>
<g id="a_Node000016"><a xlink:href="classdunedaq_1_1oks_1_1OksXmlInputStream.html" target="_top" xlink:title=" ">
<polygon fill="white" stroke="#666666" points="1249.12,-304.88 1114.62,-304.88 1114.62,-274.38 1249.12,-274.38 1249.12,-304.88"/>
<text text-anchor="start" x="1122.62" y="-291.38" font-family="Helvetica,sans-Serif" font-size="10.00">dunedaq::oks::OksXmlInput</text>
<text text-anchor="middle" x="1181.88" y="-280.12" font-family="Helvetica,sans-Serif" font-size="10.00">Stream</text>
</a>
</g>
</g>
<!-- Node16&#45;&gt;Node2 -->
<g id="edge22_Node000002_Node000016" class="edge">
<title>Node16&#45;&gt;Node2</title>
<g id="a_edge22_Node000002_Node000016"><a xlink:title=" ">
<path fill="none" stroke="#9a32cd" stroke-dasharray="5,2" d="M1260.77,-289.62C1311.07,-289.62 1376.12,-289.62 1425.65,-289.62"/>
<polygon fill="#9a32cd" stroke="#9a32cd" points="1260.82,-286.13 1250.82,-289.63 1260.82,-293.13 1260.82,-286.13"/>
</a>
</g>
<text text-anchor="middle" x="1339.25" y="-291.38" font-family="Helvetica,sans-Serif" font-size="10.00" fill="grey"> s</text>
</g>
<!-- Node17 -->
<g id="Node000017" class="node">
<title>Node17</title>
<g id="a_Node000017"><a xlink:href="structdunedaq_1_1oks_1_1OksXmlTokenPool.html" target="_top" xlink:title=" ">
<polygon fill="white" stroke="#666666" points="1010,-323.25 850.75,-323.25 850.75,-304 1010,-304 1010,-323.25"/>
<text text-anchor="middle" x="930.38" y="-309.75" font-family="Helvetica,sans-Serif" font-size="10.00">dunedaq::oks::OksXmlTokenPool</text>
</a>
</g>
</g>
<!-- Node17&#45;&gt;Node16 -->
<g id="edge23_Node000016_Node000017" class="edge">
<title>Node17&#45;&gt;Node16</title>
<g id="a_edge23_Node000016_Node000017"><a xlink:title=" ">
<path fill="none" stroke="#9a32cd" stroke-dasharray="5,2" d="M1021.45,-304.96C1052.07,-302.02 1085.72,-298.78 1114.18,-296.04"/>
<polygon fill="#9a32cd" stroke="#9a32cd" points="1021.44,-301.44 1011.82,-305.89 1022.11,-308.41 1021.44,-301.44"/>
</a>
</g>
<text text-anchor="middle" x="1060.62" y="-305.38" font-family="Helvetica,sans-Serif" font-size="10.00" fill="grey"> s_tokens_pool</text>
</g>
<!-- Node18 -->
<g id="Node000018" class="node">
<title>Node18</title>
<g id="a_Node000018"><a xlink:href="structdunedaq_1_1oks_1_1OksXmlToken.html" target="_top" xlink:title=" ">
<polygon fill="white" stroke="#666666" points="1000.25,-450.25 860.5,-450.25 860.5,-431 1000.25,-431 1000.25,-450.25"/>
<text text-anchor="middle" x="930.38" y="-436.75" font-family="Helvetica,sans-Serif" font-size="10.00">dunedaq::oks::OksXmlToken</text>
</a>
</g>
</g>
<!-- Node18&#45;&gt;Node16 -->
<g id="edge24_Node000016_Node000018" class="edge">
<title>Node18&#45;&gt;Node16</title>
<g id="a_edge24_Node000016_Node000018"><a xlink:title=" ">
<path fill="none" stroke="#9a32cd" stroke-dasharray="5,2" d="M966.54,-426.04C1008.39,-408.1 1074.92,-377.59 1093.25,-357.62 1107.54,-342.06 1095.89,-328.14 1111.25,-313.62 1114.6,-310.46 1118.38,-307.72 1122.4,-305.33"/>
<polygon fill="#9a32cd" stroke="#9a32cd" points="965.19,-422.81 957.36,-429.94 967.93,-429.25 965.19,-422.81"/>
</a>
</g>
<text text-anchor="middle" x="1060.62" y="-432.12" font-family="Helvetica,sans-Serif" font-size="10.00" fill="grey"> m_cvt_char</text>
<text text-anchor="middle" x="1060.62" y="-420.88" font-family="Helvetica,sans-Serif" font-size="10.00" fill="grey">m_v1</text>
<text text-anchor="middle" x="1060.62" y="-409.62" font-family="Helvetica,sans-Serif" font-size="10.00" fill="grey">m_v2</text>
<text text-anchor="middle" x="1060.62" y="-398.38" font-family="Helvetica,sans-Serif" font-size="10.00" fill="grey">m_v3</text>
</g>
<!-- Node22 -->
<g id="Node000022" class="node">
<title>Node22</title>
<g id="a_Node000022"><a xlink:href="structdunedaq_1_1oks_1_1OksXmlValue.html" target="_top" xlink:title=" ">
<polygon fill="white" stroke="#666666" points="1408,-477.25 1270.5,-477.25 1270.5,-458 1408,-458 1408,-477.25"/>
<text text-anchor="middle" x="1339.25" y="-463.75" font-family="Helvetica,sans-Serif" font-size="10.00">dunedaq::oks::OksXmlValue</text>
</a>
</g>
</g>
<!-- Node18&#45;&gt;Node22 -->
<g id="edge31_Node000022_Node000018" class="edge">
<title>Node18&#45;&gt;Node22</title>
<g id="a_edge31_Node000022_Node000018"><a xlink:title=" ">
<path fill="none" stroke="#9a32cd" stroke-dasharray="5,2" d="M1011.73,-445.96C1087.25,-450.97 1199.04,-458.39 1270.25,-463.11"/>
<polygon fill="#9a32cd" stroke="#9a32cd" points="1012.12,-442.48 1001.91,-445.31 1011.65,-449.46 1012.12,-442.48"/>
</a>
</g>
<text text-anchor="middle" x="1060.62" y="-452.38" font-family="Helvetica,sans-Serif" font-size="10.00" fill="grey"> m_token</text>
</g>
<!-- Node19 -->
<g id="Node000019" class="node">
<title>Node19</title>
<g id="a_Node000019"><a xlink:href="structdunedaq_1_1oks_1_1OksAliasTable.html" target="_top" xlink:title="The struct OksAliasTable is used to support aliases.">
<polygon fill="white" stroke="#666666" points="1252.5,-342.25 1111.25,-342.25 1111.25,-323 1252.5,-323 1252.5,-342.25"/>
<text text-anchor="middle" x="1181.88" y="-328.75" font-family="Helvetica,sans-Serif" font-size="10.00">dunedaq::oks::OksAliasTable</text>
</a>
</g>
</g>
<!-- Node19&#45;&gt;Node2 -->
<g id="edge25_Node000002_Node000019" class="edge">
<title>Node19&#45;&gt;Node2</title>
<g id="a_edge25_Node000002_Node000019"><a xlink:title=" ">
<path fill="none" stroke="#9a32cd" stroke-dasharray="5,2" d="M1264.16,-323.28C1307,-318.16 1360.4,-311.47 1408,-304.62 1418.38,-303.13 1429.41,-301.43 1440.08,-299.72"/>
<polygon fill="#9a32cd" stroke="#9a32cd" points="1263.96,-319.78 1254.44,-324.43 1264.78,-326.73 1263.96,-319.78"/>
</a>
</g>
<text text-anchor="middle" x="1339.25" y="-323.38" font-family="Helvetica,sans-Serif" font-size="10.00" fill="grey"> alias_table</text>
</g>
<!-- Node20 -->
<g id="Node000020" class="node">
<title>Node20</title>
<g id="a_Node000020"><a xlink:href="structdunedaq_1_1oks_1_1OksNameTable.html" target="_top" xlink:title="The struct OksNameTable is used to generate unique strings.">
<polygon fill="white" stroke="#666666" points="1003.25,-360.25 857.5,-360.25 857.5,-341 1003.25,-341 1003.25,-360.25"/>
<text text-anchor="middle" x="930.38" y="-346.75" font-family="Helvetica,sans-Serif" font-size="10.00">dunedaq::oks::OksNameTable</text>
</a>
</g>
</g>
<!-- Node20&#45;&gt;Node19 -->
<g id="edge26_Node000019_Node000020" class="edge">
<title>Node20&#45;&gt;Node19</title>
<g id="a_edge26_Node000019_Node000020"><a xlink:title=" ">
<path fill="none" stroke="#9a32cd" stroke-dasharray="5,2" d="M1014.85,-344.6C1046.06,-342.35 1081.16,-339.82 1111.02,-337.66"/>
<polygon fill="#9a32cd" stroke="#9a32cd" points="1014.77,-341.1 1005.05,-345.31 1015.28,-348.08 1014.77,-341.1"/>
</a>
</g>
<text text-anchor="middle" x="1060.62" y="-344.38" font-family="Helvetica,sans-Serif" font-size="10.00" fill="grey"> p_nameTable</text>
</g>
<!-- Node21 -->
<g id="Node000021" class="node">
<title>Node21</title>
<g id="a_Node000021"><a xlink:href="structdunedaq_1_1oks_1_1ReloadObjects.html" target="_top" xlink:title=" ">
<polygon fill="white" stroke="#666666" points="1252.5,-201.25 1111.25,-201.25 1111.25,-182 1252.5,-182 1252.5,-201.25"/>
<text text-anchor="middle" x="1181.88" y="-187.75" font-family="Helvetica,sans-Serif" font-size="10.00">dunedaq::oks::ReloadObjects</text>
</a>
</g>
</g>
<!-- Node21&#45;&gt;Node2 -->
<g id="edge28_Node000002_Node000021" class="edge">
<title>Node21&#45;&gt;Node2</title>
<g id="a_edge28_Node000002_Node000021"><a xlink:title=" ">
<path fill="none" stroke="#9a32cd" stroke-dasharray="5,2" d="M1264.16,-198.23C1307.9,-203.69 1362.14,-213.57 1408,-231.38 1438.96,-243.39 1470.71,-266.42 1487.54,-279.63"/>
<polygon fill="#9a32cd" stroke="#9a32cd" points="1264.83,-194.79 1254.49,-197.09 1264.01,-201.74 1264.83,-194.79"/>
</a>
</g>
<text text-anchor="middle" x="1339.25" y="-232.38" font-family="Helvetica,sans-Serif" font-size="10.00" fill="grey"> reload_objects</text>
</g>
<!-- Node22&#45;&gt;Node1 -->
<g id="edge30_Node000001_Node000022" class="edge">
<title>Node22&#45;&gt;Node1</title>
<g id="a_edge30_Node000001_Node000022"><a xlink:title=" ">
<path fill="none" stroke="#9a32cd" stroke-dasharray="5,2" d="M1419.3,-471.08C1493.4,-474.33 1603.39,-479.14 1676.27,-482.33"/>
<polygon fill="#9a32cd" stroke="#9a32cd" points="1419.84,-467.6 1409.69,-470.66 1419.53,-474.6 1419.84,-467.6"/>
</a>
</g>
<text text-anchor="middle" x="1500.75" y="-479.38" font-family="Helvetica,sans-Serif" font-size="10.00" fill="grey"> m_value</text>
</g>
</g>
</svg>
