<?xml version="1.0" encoding="UTF-8" standalone="no"?>
<!DOCTYPE svg PUBLIC "-//W3C//DTD SVG 1.1//EN"
 "http://www.w3.org/Graphics/SVG/1.1/DTD/svg11.dtd">
<!-- Generated by graphviz version 9.0.0 (20230911.1827)
 -->
<!-- Title: dunedaq::oks::ReadFileParams Pages: 1 -->
<svg width="1511pt" height="544pt"
 viewBox="0.00 0.00 1511.25 543.73" xmlns="http://www.w3.org/2000/svg" xmlns:xlink="http://www.w3.org/1999/xlink">
<g id="graph0" class="graph" transform="scale(1 1) rotate(0) translate(4 539.73)">
<title>dunedaq::oks::ReadFileParams</title>
<!-- Node1 -->
<g id="Node000001" class="node">
<title>Node1</title>
<g id="a_Node000001"><a xlink:title=" ">
<polygon fill="#999999" stroke="#666666" points="1503.25,-153.1 1353.75,-153.1 1353.75,-133.85 1503.25,-133.85 1503.25,-153.1"/>
<text text-anchor="middle" x="1428.5" y="-139.6" font-family="Helvetica,sans-Serif" font-size="10.00">dunedaq::oks::ReadFileParams</text>
</a>
</g>
</g>
<!-- Node2 -->
<g id="Node000002" class="node">
<title>Node2</title>
<g id="a_Node000002"><a xlink:href="classdunedaq_1_1oks_1_1OksFile.html" target="_top" xlink:title="Provides interface to the OKS XML schema and data files.">
<polygon fill="white" stroke="#666666" points="118.38,-337.1 7.12,-337.1 7.12,-317.85 118.38,-317.85 118.38,-337.1"/>
<text text-anchor="middle" x="62.75" y="-323.6" font-family="Helvetica,sans-Serif" font-size="10.00">dunedaq::oks::OksFile</text>
</a>
</g>
</g>
<!-- Node2&#45;&gt;Node1 -->
<g id="edge1_Node000001_Node000002" class="edge">
<title>Node2&#45;&gt;Node1</title>
<g id="a_edge1_Node000001_Node000002"><a xlink:title=" ">
<path fill="none" stroke="#9a32cd" stroke-dasharray="5,2" d="M76.1,-346.72C90.29,-367.6 115.29,-400.84 143.5,-422.48 204.44,-469.22 223.32,-495.48 300.12,-495.48 300.12,-495.48 300.12,-495.48 1182.88,-495.48 1354.41,-495.48 1415.37,-210.11 1425.81,-153.26"/>
<polygon fill="#9a32cd" stroke="#9a32cd" points="79.15,-344.98 70.71,-338.57 73.31,-348.84 79.15,-344.98"/>
</a>
</g>
<text text-anchor="middle" x="707.38" y="-497.23" font-family="Helvetica,sans-Serif" font-size="10.00" fill="grey"> f</text>
</g>
<!-- Node2&#45;&gt;Node2 -->
<g id="edge2_Node000002_Node000002" class="edge">
<title>Node2&#45;&gt;Node2</title>
<g id="a_edge2_Node000002_Node000002"><a xlink:title=" ">
<path fill="none" stroke="#9a32cd" stroke-dasharray="5,2" d="M41.63,-348.5C44.27,-352.38 51.31,-355.1 62.75,-355.1 83.67,-355.1 89.88,-346 81.38,-337.39"/>
<polygon fill="#9a32cd" stroke="#9a32cd" points="45.02,-349.39 43.79,-338.87 38.19,-347.86 45.02,-349.39"/>
</a>
</g>
<text text-anchor="middle" x="62.75" y="-356.85" font-family="Helvetica,sans-Serif" font-size="10.00" fill="grey"> p_included_by</text>
</g>
<!-- Node3 -->
<g id="Node000003" class="node">
<title>Node3</title>
<g id="a_Node000003"><a xlink:href="classdunedaq_1_1oks_1_1OksKernel.html" target="_top" xlink:title="Provides interface to the OKS kernel.">
<polygon fill="white" stroke="#666666" points="362.75,-231.1 239.5,-231.1 239.5,-211.85 362.75,-211.85 362.75,-231.1"/>
<text text-anchor="middle" x="301.12" y="-217.6" font-family="Helvetica,sans-Serif" font-size="10.00">dunedaq::oks::OksKernel</text>
</a>
</g>
</g>
<!-- Node2&#45;&gt;Node3 -->
<g id="edge4_Node000003_Node000002" class="edge">
<title>Node2&#45;&gt;Node3</title>
<g id="a_edge4_Node000003_Node000002"><a xlink:title=" ">
<path fill="none" stroke="#9a32cd" stroke-dasharray="5,2" d="M78.45,-308.75C93.06,-291.5 117.06,-266.57 143.5,-252.98 160.15,-244.42 202.8,-236.12 239.39,-230.2"/>
<polygon fill="#9a32cd" stroke="#9a32cd" points="75.94,-306.3 72.31,-316.26 81.35,-310.74 75.94,-306.3"/>
</a>
</g>
<text text-anchor="middle" x="181.75" y="-265.48" font-family="Helvetica,sans-Serif" font-size="10.00" fill="grey"> p_active_data</text>
<text text-anchor="middle" x="181.75" y="-254.23" font-family="Helvetica,sans-Serif" font-size="10.00" fill="grey">p_active_schema</text>
</g>
<!-- Node6 -->
<g id="Node000006" class="node">
<title>Node6</title>
<g id="a_Node000006"><a xlink:href="classdunedaq_1_1oks_1_1OksObject.html" target="_top" xlink:title="OksObject describes instance of OksClass.">
<polygon fill="white" stroke="#666666" points="1243.88,-320.1 1119.88,-320.1 1119.88,-300.85 1243.88,-300.85 1243.88,-320.1"/>
<text text-anchor="middle" x="1181.88" y="-306.6" font-family="Helvetica,sans-Serif" font-size="10.00">dunedaq::oks::OksObject</text>
</a>
</g>
</g>
<!-- Node2&#45;&gt;Node6 -->
<g id="edge20_Node000006_Node000002" class="edge">
<title>Node2&#45;&gt;Node6</title>
<g id="a_edge20_Node000006_Node000002"><a xlink:title=" ">
<path fill="none" stroke="#9a32cd" stroke-dasharray="5,2" d="M83.35,-344.66C113.88,-370.16 175.77,-416.9 238,-434.48 292,-449.73 308.15,-435.68 364.25,-434.48 651.82,-428.3 724.96,-430.04 1010,-391.48 1047.34,-386.43 1058.76,-390.64 1093.25,-375.48 1124.64,-361.68 1155.44,-334.9 1170.8,-320.39"/>
<polygon fill="#9a32cd" stroke="#9a32cd" points="85.95,-342.28 76.07,-338.47 81.41,-347.61 85.95,-342.28"/>
</a>
</g>
<text text-anchor="middle" x="611.62" y="-430.23" font-family="Helvetica,sans-Serif" font-size="10.00" fill="grey"> file</text>
</g>
<!-- Node10 -->
<g id="Node000010" class="node">
<title>Node10</title>
<g id="a_Node000010"><a xlink:href="classdunedaq_1_1oks_1_1OksClass.html" target="_top" xlink:title="The OKS class.">
<polygon fill="white" stroke="#666666" points="573.38,-346.1 453.12,-346.1 453.12,-326.85 573.38,-326.85 573.38,-346.1"/>
<text text-anchor="middle" x="513.25" y="-332.6" font-family="Helvetica,sans-Serif" font-size="10.00">dunedaq::oks::OksClass</text>
</a>
</g>
</g>
<!-- Node2&#45;&gt;Node10 -->
<g id="edge12_Node000010_Node000002" class="edge">
<title>Node2&#45;&gt;Node10</title>
<g id="a_edge12_Node000010_Node000002"><a xlink:title=" ">
<path fill="none" stroke="#9a32cd" stroke-dasharray="5,2" d="M130.09,-328.81C217.32,-330.56 369.27,-333.61 452.88,-335.29"/>
<polygon fill="#9a32cd" stroke="#9a32cd" points="130.33,-325.31 120.26,-328.61 130.19,-332.31 130.33,-325.31"/>
</a>
</g>
<text text-anchor="middle" x="301.12" y="-334.23" font-family="Helvetica,sans-Serif" font-size="10.00" fill="grey"> p_file</text>
</g>
<!-- Node3&#45;&gt;Node1 -->
<g id="edge26_Node000001_Node000003" class="edge">
<title>Node3&#45;&gt;Node1</title>
<g id="a_edge26_Node000001_Node000003"><a xlink:title=" ">
<path fill="none" stroke="#9a32cd" stroke-dasharray="5,2" d="M331.54,-206.47C371.41,-187.56 445.32,-157.48 512.25,-157.48 512.25,-157.48 512.25,-157.48 1182.88,-157.48 1240.2,-157.48 1304.95,-153.6 1353.43,-149.92"/>
<polygon fill="#9a32cd" stroke="#9a32cd" points="330.06,-203.3 322.59,-210.82 333.11,-209.6 330.06,-203.3"/>
</a>
</g>
<text text-anchor="middle" x="808" y="-159.23" font-family="Helvetica,sans-Serif" font-size="10.00" fill="grey"> oks_kernel</text>
</g>
<!-- Node3&#45;&gt;Node2 -->
<g id="edge3_Node000002_Node000003" class="edge">
<title>Node3&#45;&gt;Node2</title>
<g id="a_edge3_Node000002_Node000003"><a xlink:title=" ">
<path fill="none" stroke="#9a32cd" stroke-dasharray="5,2" d="M280.3,-238.77C264.79,-251.54 242.2,-268.54 220,-279.48 188.18,-295.16 177.41,-291.82 143.5,-302.23 127.53,-307.13 109.82,-312.72 95.15,-317.4"/>
<polygon fill="#9a32cd" stroke="#9a32cd" points="282.43,-241.55 287.82,-232.43 277.92,-236.2 282.43,-241.55"/>
</a>
</g>
<text text-anchor="middle" x="181.75" y="-303.23" font-family="Helvetica,sans-Serif" font-size="10.00" fill="grey"> p_kernel</text>
</g>
<!-- Node3&#45;&gt;Node10 -->
<g id="edge13_Node000010_Node000003" class="edge">
<title>Node3&#45;&gt;Node10</title>
<g id="a_edge13_Node000010_Node000003"><a xlink:title=" ">
<path fill="none" stroke="#9a32cd" stroke-dasharray="5,2" d="M328.9,-237.24C355.86,-253.23 398.54,-278.9 434.75,-302.23 442.89,-307.47 444.15,-310.04 452.75,-314.48 461.56,-319.02 471.53,-323.08 480.76,-326.45"/>
<polygon fill="#9a32cd" stroke="#9a32cd" points="330.73,-234.26 320.35,-232.18 327.17,-240.28 330.73,-234.26"/>
</a>
</g>
<text text-anchor="middle" x="408.5" y="-303.23" font-family="Helvetica,sans-Serif" font-size="10.00" fill="grey"> p_kernel</text>
</g>
<!-- Node4 -->
<g id="Node000004" class="node">
<title>Node4</title>
<g id="a_Node000004"><a xlink:href="classdunedaq_1_1oks_1_1OksProfiler.html" target="_top" xlink:title=" ">
<polygon fill="white" stroke="#666666" points="125.5,-194.1 0,-194.1 0,-174.85 125.5,-174.85 125.5,-194.1"/>
<text text-anchor="middle" x="62.75" y="-180.6" font-family="Helvetica,sans-Serif" font-size="10.00">dunedaq::oks::OksProfiler</text>
</a>
</g>
</g>
<!-- Node4&#45;&gt;Node3 -->
<g id="edge5_Node000003_Node000004" class="edge">
<title>Node4&#45;&gt;Node3</title>
<g id="a_edge5_Node000003_Node000004"><a xlink:title=" ">
<path fill="none" stroke="#9a32cd" stroke-dasharray="5,2" d="M137.2,-193.93C163.38,-197.51 193.05,-201.79 220,-206.23 229.5,-207.79 239.61,-209.6 249.33,-211.41"/>
<polygon fill="#9a32cd" stroke="#9a32cd" points="137.71,-190.47 127.33,-192.6 136.77,-197.41 137.71,-190.47"/>
</a>
</g>
<text text-anchor="middle" x="181.75" y="-207.23" font-family="Helvetica,sans-Serif" font-size="10.00" fill="grey"> profiler</text>
</g>
<!-- Node5 -->
<g id="Node000005" class="node">
<title>Node5</title>
<g id="a_Node000005"><a xlink:href="structdunedaq_1_1oks_1_1LoadErrors.html" target="_top" xlink:title=" ">
<polygon fill="white" stroke="#666666" points="125.12,-231.1 0.38,-231.1 0.38,-211.85 125.12,-211.85 125.12,-231.1"/>
<text text-anchor="middle" x="62.75" y="-217.6" font-family="Helvetica,sans-Serif" font-size="10.00">dunedaq::oks::LoadErrors</text>
</a>
</g>
</g>
<!-- Node5&#45;&gt;Node3 -->
<g id="edge6_Node000003_Node000005" class="edge">
<title>Node5&#45;&gt;Node3</title>
<g id="a_edge6_Node000003_Node000005"><a xlink:title=" ">
<path fill="none" stroke="#9a32cd" stroke-dasharray="5,2" d="M136.89,-221.48C169.67,-221.48 207.89,-221.48 239.1,-221.48"/>
<polygon fill="#9a32cd" stroke="#9a32cd" points="137.06,-217.98 127.06,-221.48 137.06,-224.98 137.06,-217.98"/>
</a>
</g>
<text text-anchor="middle" x="181.75" y="-223.23" font-family="Helvetica,sans-Serif" font-size="10.00" fill="grey"> p_load_errors</text>
</g>
<!-- Node6&#45;&gt;Node1 -->
<g id="edge28_Node000001_Node000006" class="edge">
<title>Node6&#45;&gt;Node1</title>
<g id="a_edge28_Node000001_Node000006"><a xlink:title=" ">
<path fill="none" stroke="#9a32cd" stroke-dasharray="5,2" d="M1206.85,-294.11C1257.02,-259.86 1371.81,-181.5 1412.7,-153.58"/>
<polygon fill="#9a32cd" stroke="#9a32cd" points="1204.98,-291.15 1198.69,-299.68 1208.93,-296.93 1204.98,-291.15"/>
</a>
</g>
<text text-anchor="middle" x="1303.12" y="-248.23" font-family="Helvetica,sans-Serif" font-size="10.00" fill="grey"> owner</text>
</g>
<!-- Node6&#45;&gt;Node3 -->
<g id="edge7_Node000003_Node000006" class="edge">
<title>Node6&#45;&gt;Node3</title>
<g id="a_edge7_Node000003_Node000006"><a xlink:title=" ">
<path fill="none" stroke="#9a32cd" stroke-dasharray="5,2" d="M1158.66,-293.61C1116.66,-263.47 1021.72,-203.48 931.38,-203.48 512.25,-203.48 512.25,-203.48 512.25,-203.48 461.91,-203.48 405.02,-208.67 363.15,-213.48"/>
<polygon fill="#9a32cd" stroke="#9a32cd" points="1156.58,-296.43 1166.71,-299.52 1160.71,-290.78 1156.58,-296.43"/>
</a>
</g>
<text text-anchor="start" x="652.25" y="-250.23" font-family="Helvetica,sans-Serif" font-size="10.00" fill="grey"> p_change_object_notify</text>
<text text-anchor="middle" x="707.38" y="-238.98" font-family="Helvetica,sans-Serif" font-size="10.00" fill="grey">_fn</text>
<text text-anchor="start" x="652.25" y="-227.73" font-family="Helvetica,sans-Serif" font-size="10.00" fill="grey">p_create_object_notify</text>
<text text-anchor="middle" x="707.38" y="-216.48" font-family="Helvetica,sans-Serif" font-size="10.00" fill="grey">_fn</text>
<text text-anchor="middle" x="707.38" y="-205.23" font-family="Helvetica,sans-Serif" font-size="10.00" fill="grey">p_delete_object_notify_fn</text>
</g>
<!-- Node9 -->
<g id="Node000009" class="node">
<title>Node9</title>
<g id="a_Node000009"><a xlink:href="uniondunedaq_1_1oks_1_1OksData_1_1Data.html" target="_top" xlink:title=" ">
<polygon fill="white" stroke="#666666" points="765.25,-365.73 649.5,-365.73 649.5,-335.23 765.25,-335.23 765.25,-365.73"/>
<text text-anchor="start" x="657.5" y="-352.23" font-family="Helvetica,sans-Serif" font-size="10.00">dunedaq::oks::OksData</text>
<text text-anchor="middle" x="707.38" y="-340.98" font-family="Helvetica,sans-Serif" font-size="10.00">::Data</text>
</a>
</g>
</g>
<!-- Node6&#45;&gt;Node9 -->
<g id="edge16_Node000009_Node000006" class="edge">
<title>Node6&#45;&gt;Node9</title>
<g id="a_edge16_Node000009_Node000006"><a xlink:title=" ">
<path fill="none" stroke="#9a32cd" stroke-dasharray="5,2" d="M1108.13,-316.64C1013.81,-324.62 851.25,-338.38 765.37,-345.65"/>
<polygon fill="#9a32cd" stroke="#9a32cd" points="1108.39,-320.13 1118.06,-315.79 1107.8,-313.15 1108.39,-320.13"/>
</a>
</g>
<text text-anchor="middle" x="930.38" y="-339.23" font-family="Helvetica,sans-Serif" font-size="10.00" fill="grey"> OBJECT</text>
</g>
<!-- Node7 -->
<g id="Node000007" class="node">
<title>Node7</title>
<g id="a_Node000007"><a xlink:title=" ">
<polygon fill="white" stroke="#666666" points="533.62,-305.1 492.88,-305.1 492.88,-285.85 533.62,-285.85 533.62,-305.1"/>
<text text-anchor="middle" x="513.25" y="-291.6" font-family="Helvetica,sans-Serif" font-size="10.00">struct</text>
</a>
</g>
</g>
<!-- Node7&#45;&gt;Node6 -->
<g id="edge8_Node000006_Node000007" class="edge">
<title>Node7&#45;&gt;Node6</title>
<g id="a_edge8_Node000006_Node000007"><a xlink:title=" ">
<path fill="none" stroke="#9a32cd" stroke-dasharray="5,2" d="M545.25,-296.17C648.37,-298.5 981.16,-305.98 1119.59,-309.1"/>
<polygon fill="#9a32cd" stroke="#9a32cd" points="545.43,-292.68 535.35,-295.95 545.27,-299.68 545.43,-292.68"/>
</a>
</g>
<text text-anchor="middle" x="808" y="-304.23" font-family="Helvetica,sans-Serif" font-size="10.00" fill="grey"> uid</text>
</g>
<!-- Node7&#45;&gt;Node9 -->
<g id="edge19_Node000009_Node000007" class="edge">
<title>Node7&#45;&gt;Node9</title>
<g id="a_edge19_Node000009_Node000007"><a xlink:title=" ">
<path fill="none" stroke="#9a32cd" stroke-dasharray="5,2" d="M544.95,-298.22C568.92,-300.93 602.86,-306 631.5,-314.98 647.56,-320.01 664.58,-327.86 678.33,-334.9"/>
<polygon fill="#9a32cd" stroke="#9a32cd" points="545.54,-294.77 535.23,-297.21 544.81,-301.73 545.54,-294.77"/>
</a>
</g>
<text text-anchor="middle" x="611.62" y="-327.48" font-family="Helvetica,sans-Serif" font-size="10.00" fill="grey"> UID</text>
<text text-anchor="middle" x="611.62" y="-316.23" font-family="Helvetica,sans-Serif" font-size="10.00" fill="grey">UID2</text>
</g>
<!-- Node8 -->
<g id="Node000008" class="node">
<title>Node8</title>
<g id="a_Node000008"><a xlink:href="structdunedaq_1_1oks_1_1OksData.html" target="_top" xlink:title="the structure to pass common parameters to various read() methods of OksData and OksObject class">
<polygon fill="white" stroke="#666666" points="988.25,-382.1 872.5,-382.1 872.5,-362.85 988.25,-362.85 988.25,-382.1"/>
<text text-anchor="middle" x="930.38" y="-368.6" font-family="Helvetica,sans-Serif" font-size="10.00">dunedaq::oks::OksData</text>
</a>
</g>
</g>
<!-- Node8&#45;&gt;Node6 -->
<g id="edge9_Node000006_Node000008" class="edge">
<title>Node8&#45;&gt;Node6</title>
<g id="a_edge9_Node000006_Node000008"><a xlink:title=" ">
<path fill="none" stroke="#9a32cd" stroke-dasharray="5,2" d="M999.98,-365.68C1029.09,-361.82 1063.18,-356.01 1093.25,-347.48 1117.4,-340.63 1143.76,-328.87 1161.2,-320.44"/>
<polygon fill="#9a32cd" stroke="#9a32cd" points="999.65,-362.19 990.17,-366.92 1000.53,-369.14 999.65,-362.19"/>
</a>
</g>
<text text-anchor="middle" x="1060.62" y="-362.23" font-family="Helvetica,sans-Serif" font-size="10.00" fill="grey"> data</text>
</g>
<!-- Node9&#45;&gt;Node8 -->
<g id="edge10_Node000008_Node000009" class="edge">
<title>Node9&#45;&gt;Node8</title>
<g id="a_edge10_Node000008_Node000009"><a xlink:title=" ">
<path fill="none" stroke="#9a32cd" stroke-dasharray="5,2" d="M776.99,-357.31C807.49,-360.34 842.98,-363.88 872.03,-366.77"/>
<polygon fill="#9a32cd" stroke="#9a32cd" points="777.38,-353.83 767.08,-356.32 776.69,-360.79 777.38,-353.83"/>
</a>
</g>
<text text-anchor="middle" x="808" y="-364.23" font-family="Helvetica,sans-Serif" font-size="10.00" fill="grey"> data</text>
</g>
<!-- Node10&#45;&gt;Node9 -->
<g id="edge11_Node000009_Node000010" class="edge">
<title>Node10&#45;&gt;Node9</title>
<g id="a_edge11_Node000009_Node000010"><a xlink:title=" ">
<path fill="none" stroke="#9a32cd" stroke-dasharray="5,2" d="M584.93,-341.63C606.07,-343.17 628.99,-344.84 649.15,-346.31"/>
<polygon fill="#9a32cd" stroke="#9a32cd" points="585.46,-338.16 575.23,-340.92 584.95,-345.14 585.46,-338.16"/>
</a>
</g>
<text text-anchor="middle" x="611.62" y="-357.48" font-family="Helvetica,sans-Serif" font-size="10.00" fill="grey"> CLASS</text>
<text text-anchor="middle" x="611.62" y="-346.23" font-family="Helvetica,sans-Serif" font-size="10.00" fill="grey">class_id</text>
</g>
<!-- Node11 -->
<g id="Node000011" class="node">
<title>Node11</title>
<g id="a_Node000011"><a xlink:href="classdunedaq_1_1oksdbinterfaces_1_1map.html" target="_top" xlink:title=" ">
<polygon fill="white" stroke="#666666" points="364.25,-387.73 238,-387.73 238,-357.23 364.25,-357.23 364.25,-387.73"/>
<text text-anchor="start" x="246" y="-374.23" font-family="Helvetica,sans-Serif" font-size="10.00">dunedaq::oksdbinterfaces</text>
<text text-anchor="middle" x="301.12" y="-362.98" font-family="Helvetica,sans-Serif" font-size="10.00">::map&lt; T &gt;</text>
</a>
</g>
</g>
<!-- Node11&#45;&gt;Node10 -->
<g id="edge14_Node000010_Node000011" class="edge">
<title>Node11&#45;&gt;Node10</title>
<g id="a_edge14_Node000010_Node000011"><a xlink:title=" ">
<path fill="none" stroke="#9a32cd" stroke-dasharray="5,2" d="M375.68,-359.88C401.07,-355.52 429.18,-350.71 453.26,-346.58"/>
<polygon fill="#9a32cd" stroke="#9a32cd" points="375.36,-356.38 366.09,-361.52 376.54,-363.28 375.36,-356.38"/>
</a>
</g>
<text text-anchor="middle" x="408.5" y="-359.23" font-family="Helvetica,sans-Serif" font-size="10.00" fill="grey"> p_data_info</text>
</g>
<!-- Node12 -->
<g id="Node000012" class="node">
<title>Node12</title>
<g id="a_Node000012"><a xlink:title=" ">
<polygon fill="white" stroke="#666666" points="113.12,-535.73 12.38,-535.73 12.38,-505.23 113.12,-505.23 113.12,-535.73"/>
<text text-anchor="start" x="20.38" y="-522.23" font-family="Helvetica,sans-Serif" font-size="10.00">std::unordered_map</text>
<text text-anchor="middle" x="62.75" y="-510.98" font-family="Helvetica,sans-Serif" font-size="10.00">&lt; std::string, T &gt;</text>
</a>
</g>
</g>
<!-- Node12&#45;&gt;Node11 -->
<g id="edge15_Node000011_Node000012" class="edge">
<title>Node12&#45;&gt;Node11</title>
<g id="a_edge15_Node000011_Node000012"><a xlink:title=" ">
<path fill="none" stroke="#63b8ff" d="M90.7,-498.03C123.8,-471.26 182.41,-426.38 238,-396.48 243.5,-393.52 249.44,-390.74 255.4,-388.2"/>
<polygon fill="#63b8ff" stroke="#63b8ff" points="88.78,-495.08 83.24,-504.12 93.2,-500.51 88.78,-495.08"/>
</a>
</g>
</g>
<!-- Node13 -->
<g id="Node000013" class="node">
<title>Node13</title>
<g id="a_Node000013"><a xlink:href="classdunedaq_1_1oks_1_1OksString.html" target="_top" xlink:title="Class OKS string.">
<polygon fill="white" stroke="#666666" points="573.75,-416.1 452.75,-416.1 452.75,-396.85 573.75,-396.85 573.75,-416.1"/>
<text text-anchor="middle" x="513.25" y="-402.6" font-family="Helvetica,sans-Serif" font-size="10.00">dunedaq::oks::OksString</text>
</a>
</g>
</g>
<!-- Node13&#45;&gt;Node9 -->
<g id="edge17_Node000009_Node000013" class="edge">
<title>Node13&#45;&gt;Node9</title>
<g id="a_edge17_Node000009_Node000013"><a xlink:title=" ">
<path fill="none" stroke="#9a32cd" stroke-dasharray="5,2" d="M559.59,-393.26C587.38,-385.16 623.11,-374.75 652.36,-366.22"/>
<polygon fill="#9a32cd" stroke="#9a32cd" points="558.67,-389.88 550.05,-396.04 560.63,-396.6 558.67,-389.88"/>
</a>
</g>
<text text-anchor="middle" x="611.62" y="-407.73" font-family="Helvetica,sans-Serif" font-size="10.00" fill="grey"> STRING</text>
<text text-anchor="middle" x="611.62" y="-396.48" font-family="Helvetica,sans-Serif" font-size="10.00" fill="grey">class_id</text>
<text text-anchor="middle" x="611.62" y="-385.23" font-family="Helvetica,sans-Serif" font-size="10.00" fill="grey">object_id</text>
</g>
<!-- Node14 -->
<g id="Node000014" class="node">
<title>Node14</title>
<g id="a_Node000014"><a xlink:title=" ">
<polygon fill="white" stroke="#666666" points="330.12,-425.1 272.12,-425.1 272.12,-405.85 330.12,-405.85 330.12,-425.1"/>
<text text-anchor="middle" x="301.12" y="-411.6" font-family="Helvetica,sans-Serif" font-size="10.00">std::string</text>
</a>
</g>
</g>
<!-- Node14&#45;&gt;Node13 -->
<g id="edge18_Node000013_Node000014" class="edge">
<title>Node14&#45;&gt;Node13</title>
<g id="a_edge18_Node000013_Node000014"><a xlink:title=" ">
<path fill="none" stroke="#63b8ff" d="M341.76,-413.78C373,-412.44 417.06,-410.55 452.56,-409.03"/>
<polygon fill="#63b8ff" stroke="#63b8ff" points="341.82,-410.27 331.98,-414.2 342.12,-417.27 341.82,-410.27"/>
</a>
</g>
</g>
<!-- Node15 -->
<g id="Node000015" class="node">
<title>Node15</title>
<g id="a_Node000015"><a xlink:href="classdunedaq_1_1oks_1_1OksXmlInputStream.html" target="_top" xlink:title=" ">
<polygon fill="white" stroke="#666666" points="1249.12,-129.73 1114.62,-129.73 1114.62,-99.23 1249.12,-99.23 1249.12,-129.73"/>
<text text-anchor="start" x="1122.62" y="-116.23" font-family="Helvetica,sans-Serif" font-size="10.00">dunedaq::oks::OksXmlInput</text>
<text text-anchor="middle" x="1181.88" y="-104.98" font-family="Helvetica,sans-Serif" font-size="10.00">Stream</text>
</a>
</g>
</g>
<!-- Node15&#45;&gt;Node1 -->
<g id="edge21_Node000001_Node000015" class="edge">
<title>Node15&#45;&gt;Node1</title>
<g id="a_edge21_Node000001_Node000015"><a xlink:title=" ">
<path fill="none" stroke="#9a32cd" stroke-dasharray="5,2" d="M1260.71,-123.42C1284.77,-126.21 1311.36,-129.32 1335.75,-132.23 1341.49,-132.91 1347.42,-133.63 1353.39,-134.35"/>
<polygon fill="#9a32cd" stroke="#9a32cd" points="1261.32,-119.96 1250.99,-122.29 1260.52,-126.92 1261.32,-119.96"/>
</a>
</g>
<text text-anchor="middle" x="1303.12" y="-133.23" font-family="Helvetica,sans-Serif" font-size="10.00" fill="grey"> s</text>
</g>
<!-- Node16 -->
<g id="Node000016" class="node">
<title>Node16</title>
<g id="a_Node000016"><a xlink:href="structdunedaq_1_1oks_1_1OksXmlTokenPool.html" target="_top" xlink:title=" ">
<polygon fill="white" stroke="#666666" points="1010,-129.1 850.75,-129.1 850.75,-109.85 1010,-109.85 1010,-129.1"/>
<text text-anchor="middle" x="930.38" y="-115.6" font-family="Helvetica,sans-Serif" font-size="10.00">dunedaq::oks::OksXmlTokenPool</text>
</a>
</g>
</g>
<!-- Node16&#45;&gt;Node15 -->
<g id="edge22_Node000015_Node000016" class="edge">
<title>Node16&#45;&gt;Node15</title>
<g id="a_edge22_Node000015_Node000016"><a xlink:title=" ">
<path fill="none" stroke="#9a32cd" stroke-dasharray="5,2" d="M1021.45,-117.67C1052.07,-117.06 1085.72,-116.38 1114.18,-115.81"/>
<polygon fill="#9a32cd" stroke="#9a32cd" points="1021.76,-114.17 1011.83,-117.86 1021.9,-121.16 1021.76,-114.17"/>
</a>
</g>
<text text-anchor="middle" x="1060.62" y="-118.23" font-family="Helvetica,sans-Serif" font-size="10.00" fill="grey"> s_tokens_pool</text>
</g>
<!-- Node17 -->
<g id="Node000017" class="node">
<title>Node17</title>
<g id="a_Node000017"><a xlink:href="structdunedaq_1_1oks_1_1OksXmlToken.html" target="_top" xlink:title=" ">
<polygon fill="white" stroke="#666666" points="1000.25,-61.1 860.5,-61.1 860.5,-41.85 1000.25,-41.85 1000.25,-61.1"/>
<text text-anchor="middle" x="930.38" y="-47.6" font-family="Helvetica,sans-Serif" font-size="10.00">dunedaq::oks::OksXmlToken</text>
</a>
</g>
</g>
<!-- Node17&#45;&gt;Node15 -->
<g id="edge23_Node000015_Node000017" class="edge">
<title>Node17&#45;&gt;Node15</title>
<g id="a_edge23_Node000015_Node000017"><a xlink:title=" ">
<path fill="none" stroke="#9a32cd" stroke-dasharray="5,2" d="M1011.57,-46.08C1038.94,-47.47 1068.78,-52.8 1093.25,-66.48 1104.89,-72.98 1100.47,-82.63 1111.25,-90.48 1115.59,-93.64 1120.38,-96.41 1125.36,-98.83"/>
<polygon fill="#9a32cd" stroke="#9a32cd" points="1012.04,-42.6 1001.93,-45.77 1011.81,-49.59 1012.04,-42.6"/>
</a>
</g>
<text text-anchor="middle" x="1060.62" y="-101.98" font-family="Helvetica,sans-Serif" font-size="10.00" fill="grey"> m_cvt_char</text>
<text text-anchor="middle" x="1060.62" y="-90.73" font-family="Helvetica,sans-Serif" font-size="10.00" fill="grey">m_v1</text>
<text text-anchor="middle" x="1060.62" y="-79.48" font-family="Helvetica,sans-Serif" font-size="10.00" fill="grey">m_v2</text>
<text text-anchor="middle" x="1060.62" y="-68.23" font-family="Helvetica,sans-Serif" font-size="10.00" fill="grey">m_v3</text>
</g>
<!-- Node18 -->
<g id="Node000018" class="node">
<title>Node18</title>
<g id="a_Node000018"><a xlink:href="structdunedaq_1_1oks_1_1OksAliasTable.html" target="_top" xlink:title="The struct OksAliasTable is used to support aliases.">
<polygon fill="white" stroke="#666666" points="1252.5,-81.1 1111.25,-81.1 1111.25,-61.85 1252.5,-61.85 1252.5,-81.1"/>
<text text-anchor="middle" x="1181.88" y="-67.6" font-family="Helvetica,sans-Serif" font-size="10.00">dunedaq::oks::OksAliasTable</text>
</a>
</g>
</g>
<!-- Node18&#45;&gt;Node1 -->
<g id="edge24_Node000001_Node000018" class="edge">
<title>Node18&#45;&gt;Node1</title>
<g id="a_edge24_Node000001_Node000018"><a xlink:title=" ">
<path fill="none" stroke="#9a32cd" stroke-dasharray="5,2" d="M1240.85,-84.13C1269.6,-90.83 1304.74,-99.64 1335.75,-109.23 1358.82,-116.35 1384.52,-126.11 1402.84,-133.39"/>
<polygon fill="#9a32cd" stroke="#9a32cd" points="1241.76,-80.75 1231.23,-81.92 1240.19,-87.57 1241.76,-80.75"/>
</a>
</g>
<text text-anchor="middle" x="1303.12" y="-110.23" font-family="Helvetica,sans-Serif" font-size="10.00" fill="grey"> alias_table</text>
</g>
<!-- Node19 -->
<g id="Node000019" class="node">
<title>Node19</title>
<g id="a_Node000019"><a xlink:href="structdunedaq_1_1oks_1_1OksNameTable.html" target="_top" xlink:title="The struct OksNameTable is used to generate unique strings.">
<polygon fill="white" stroke="#666666" points="1003.25,-24.1 857.5,-24.1 857.5,-4.85 1003.25,-4.85 1003.25,-24.1"/>
<text text-anchor="middle" x="930.38" y="-10.6" font-family="Helvetica,sans-Serif" font-size="10.00">dunedaq::oks::OksNameTable</text>
</a>
</g>
</g>
<!-- Node19&#45;&gt;Node18 -->
<g id="edge25_Node000018_Node000019" class="edge">
<title>Node19&#45;&gt;Node18</title>
<g id="a_edge25_Node000018_Node000019"><a xlink:title=" ">
<path fill="none" stroke="#9a32cd" stroke-dasharray="5,2" d="M983.98,-2.69C1017.72,1.9 1061.06,1.99 1093.25,-18.23 1108.15,-27.58 1097.53,-42.47 1111.25,-53.48 1115.24,-56.68 1119.74,-59.32 1124.49,-61.49"/>
<polygon fill="#9a32cd" stroke="#9a32cd" points="983.78,0.82 974.43,-4.17 984.85,-6.1 983.78,0.82"/>
</a>
</g>
<text text-anchor="middle" x="1060.62" y="-20.23" font-family="Helvetica,sans-Serif" font-size="10.00" fill="grey"> p_nameTable</text>
</g>
<!-- Node20 -->
<g id="Node000020" class="node">
<title>Node20</title>
<g id="a_Node000020"><a xlink:href="structdunedaq_1_1oks_1_1ReloadObjects.html" target="_top" xlink:title=" ">
<polygon fill="white" stroke="#666666" points="1252.5,-44.1 1111.25,-44.1 1111.25,-24.85 1252.5,-24.85 1252.5,-44.1"/>
<text text-anchor="middle" x="1181.88" y="-30.6" font-family="Helvetica,sans-Serif" font-size="10.00">dunedaq::oks::ReloadObjects</text>
</a>
</g>
</g>
<!-- Node20&#45;&gt;Node1 -->
<g id="edge27_Node000001_Node000020" class="edge">
<title>Node20&#45;&gt;Node1</title>
<g id="a_edge27_Node000001_Node000020"><a xlink:title=" ">
<path fill="none" stroke="#9a32cd" stroke-dasharray="5,2" d="M1233.4,-47.38C1239.83,-49.07 1246.33,-50.8 1252.5,-52.48 1289.63,-62.57 1301.19,-59.31 1335.75,-76.23 1367.86,-91.94 1400.43,-119.05 1416.76,-133.59"/>
<polygon fill="#9a32cd" stroke="#9a32cd" points="1234.71,-44.11 1224.15,-44.97 1232.94,-50.88 1234.71,-44.11"/>
</a>
</g>
<text text-anchor="middle" x="1303.12" y="-77.23" font-family="Helvetica,sans-Serif" font-size="10.00" fill="grey"> reload_objects</text>
</g>
</g>
</svg>
