<?xml version="1.0" encoding="UTF-8" standalone="no"?>
<!DOCTYPE svg PUBLIC "-//W3C//DTD SVG 1.1//EN"
 "http://www.w3.org/Graphics/SVG/1.1/DTD/svg11.dtd">
<!-- Generated by graphviz version 9.0.0 (20230911.1827)
 -->
<!-- Title: dunedaq::oks::OksData Pages: 1 -->
<svg width="1216pt" height="363pt"
 viewBox="0.00 0.00 1215.50 362.88" xmlns="http://www.w3.org/2000/svg" xmlns:xlink="http://www.w3.org/1999/xlink">
<g id="graph0" class="graph" transform="scale(1 1) rotate(0) translate(4 358.88)">
<title>dunedaq::oks::OksData</title>
<!-- Node1 -->
<g id="Node000001" class="node">
<title>Node1</title>
<g id="a_Node000001"><a xlink:title="the structure to pass common parameters to various read() methods of OksData and OksObject class">
<polygon fill="#999999" stroke="#666666" points="115.75,-196.25 0,-196.25 0,-177 115.75,-177 115.75,-196.25"/>
<text text-anchor="middle" x="57.88" y="-182.75" font-family="Helvetica,sans-Serif" font-size="10.00">dunedaq::oks::OksData</text>
</a>
</g>
</g>
<!-- Node8 -->
<g id="Node000008" class="node">
<title>Node8</title>
<g id="a_Node000008"><a xlink:href="classdunedaq_1_1oks_1_1OksObject.html" target="_top" xlink:title="OksObject describes instance of OksClass.">
<polygon fill="white" stroke="#666666" points="297.5,-160.25 173.5,-160.25 173.5,-141 297.5,-141 297.5,-160.25"/>
<text text-anchor="middle" x="235.5" y="-146.75" font-family="Helvetica,sans-Serif" font-size="10.00">dunedaq::oks::OksObject</text>
</a>
</g>
</g>
<!-- Node1&#45;&gt;Node8 -->
<g id="edge11_Node000008_Node000001" class="edge">
<title>Node1&#45;&gt;Node8</title>
<g id="a_edge11_Node000008_Node000001"><a xlink:title=" ">
<path fill="none" stroke="#9a32cd" stroke-dasharray="5,2" d="M119.26,-174.25C140.76,-169.84 164.71,-164.93 185.18,-160.74"/>
<polygon fill="#9a32cd" stroke="#9a32cd" points="118.84,-170.76 109.75,-176.2 120.25,-177.62 118.84,-170.76"/>
</a>
</g>
<text text-anchor="middle" x="144.25" y="-173.38" font-family="Helvetica,sans-Serif" font-size="10.00" fill="grey"> data</text>
</g>
<!-- Node2 -->
<g id="Node000002" class="node">
<title>Node2</title>
<g id="a_Node000002"><a xlink:href="uniondunedaq_1_1oks_1_1OksData_1_1Data.html" target="_top" xlink:title=" ">
<polygon fill="white" stroke="#666666" points="1207.5,-119.88 1091.75,-119.88 1091.75,-89.38 1207.5,-89.38 1207.5,-119.88"/>
<text text-anchor="start" x="1099.75" y="-106.38" font-family="Helvetica,sans-Serif" font-size="10.00">dunedaq::oks::OksData</text>
<text text-anchor="middle" x="1149.62" y="-95.12" font-family="Helvetica,sans-Serif" font-size="10.00">::Data</text>
</a>
</g>
</g>
<!-- Node2&#45;&gt;Node1 -->
<g id="edge1_Node000001_Node000002" class="edge">
<title>Node2&#45;&gt;Node1</title>
<g id="a_edge1_Node000001_Node000002"><a xlink:title=" ">
<path fill="none" stroke="#9a32cd" stroke-dasharray="5,2" d="M1141.2,-131.19C1122.01,-193.46 1064.53,-343.62 956.5,-343.62 234.5,-343.62 234.5,-343.62 234.5,-343.62 145.75,-343.62 81.27,-230.82 63.68,-196.45"/>
<polygon fill="#9a32cd" stroke="#9a32cd" points="1144.51,-132.34 1144.01,-121.76 1137.8,-130.34 1144.51,-132.34"/>
</a>
</g>
<text text-anchor="middle" x="624" y="-345.38" font-family="Helvetica,sans-Serif" font-size="10.00" fill="grey"> data</text>
</g>
<!-- Node3 -->
<g id="Node000003" class="node">
<title>Node3</title>
<g id="a_Node000003"><a xlink:href="classdunedaq_1_1oks_1_1OksClass.html" target="_top" xlink:title="The OKS class.">
<polygon fill="white" stroke="#666666" points="1015.62,-240.25 895.38,-240.25 895.38,-221 1015.62,-221 1015.62,-240.25"/>
<text text-anchor="middle" x="955.5" y="-226.75" font-family="Helvetica,sans-Serif" font-size="10.00">dunedaq::oks::OksClass</text>
</a>
</g>
</g>
<!-- Node3&#45;&gt;Node2 -->
<g id="edge2_Node000002_Node000003" class="edge">
<title>Node3&#45;&gt;Node2</title>
<g id="a_edge2_Node000002_Node000003"><a xlink:title=" ">
<path fill="none" stroke="#9a32cd" stroke-dasharray="5,2" d="M981.5,-214.23C1018.77,-189.79 1088.43,-144.1 1124.93,-120.17"/>
<polygon fill="#9a32cd" stroke="#9a32cd" points="979.61,-211.29 973.16,-219.7 983.44,-217.14 979.61,-211.29"/>
</a>
</g>
<text text-anchor="middle" x="1053.88" y="-192.62" font-family="Helvetica,sans-Serif" font-size="10.00" fill="grey"> CLASS</text>
<text text-anchor="middle" x="1053.88" y="-181.38" font-family="Helvetica,sans-Serif" font-size="10.00" fill="grey">class_id</text>
</g>
<!-- Node4 -->
<g id="Node000004" class="node">
<title>Node4</title>
<g id="a_Node000004"><a xlink:href="classdunedaq_1_1oks_1_1OksFile.html" target="_top" xlink:title="Provides interface to the OKS XML schema and data files.">
<polygon fill="white" stroke="#666666" points="799,-190.25 687.75,-190.25 687.75,-171 799,-171 799,-190.25"/>
<text text-anchor="middle" x="743.38" y="-176.75" font-family="Helvetica,sans-Serif" font-size="10.00">dunedaq::oks::OksFile</text>
</a>
</g>
</g>
<!-- Node4&#45;&gt;Node3 -->
<g id="edge3_Node000003_Node000004" class="edge">
<title>Node4&#45;&gt;Node3</title>
<g id="a_edge3_Node000003_Node000004"><a xlink:title=" ">
<path fill="none" stroke="#9a32cd" stroke-dasharray="5,2" d="M798,-193.39C833.41,-201.81 879.16,-212.7 912.04,-220.52"/>
<polygon fill="#9a32cd" stroke="#9a32cd" points="798.91,-190 788.37,-191.09 797.29,-196.81 798.91,-190"/>
</a>
</g>
<text text-anchor="middle" x="850.75" y="-213.38" font-family="Helvetica,sans-Serif" font-size="10.00" fill="grey"> p_file</text>
</g>
<!-- Node4&#45;&gt;Node4 -->
<g id="edge4_Node000004_Node000004" class="edge">
<title>Node4&#45;&gt;Node4</title>
<g id="a_edge4_Node000004_Node000004"><a xlink:title=" ">
<path fill="none" stroke="#9a32cd" stroke-dasharray="5,2" d="M724.32,-201.65C726.7,-205.53 733.05,-208.25 743.38,-208.25 762.25,-208.25 767.85,-199.15 760.19,-190.54"/>
<polygon fill="#9a32cd" stroke="#9a32cd" points="727.71,-202.52 726.26,-192.02 720.85,-201.13 727.71,-202.52"/>
</a>
</g>
<text text-anchor="middle" x="743.38" y="-210" font-family="Helvetica,sans-Serif" font-size="10.00" fill="grey"> p_included_by</text>
</g>
<!-- Node5 -->
<g id="Node000005" class="node">
<title>Node5</title>
<g id="a_Node000005"><a xlink:href="classdunedaq_1_1oks_1_1OksKernel.html" target="_top" xlink:title="Provides interface to the OKS kernel.">
<polygon fill="white" stroke="#666666" points="567.75,-246.25 444.5,-246.25 444.5,-227 567.75,-227 567.75,-246.25"/>
<text text-anchor="middle" x="506.12" y="-232.75" font-family="Helvetica,sans-Serif" font-size="10.00">dunedaq::oks::OksKernel</text>
</a>
</g>
</g>
<!-- Node4&#45;&gt;Node5 -->
<g id="edge6_Node000005_Node000004" class="edge">
<title>Node4&#45;&gt;Node5</title>
<g id="a_edge6_Node000005_Node000004"><a xlink:title=" ">
<path fill="none" stroke="#9a32cd" stroke-dasharray="5,2" d="M688.8,-193.38C646.56,-203.43 588.47,-217.26 549.45,-226.55"/>
<polygon fill="#9a32cd" stroke="#9a32cd" points="689.6,-196.79 698.52,-191.07 687.98,-189.98 689.6,-196.79"/>
</a>
</g>
<text text-anchor="middle" x="624" y="-230.62" font-family="Helvetica,sans-Serif" font-size="10.00" fill="grey"> p_active_data</text>
<text text-anchor="middle" x="624" y="-219.38" font-family="Helvetica,sans-Serif" font-size="10.00" fill="grey">p_active_schema</text>
</g>
<!-- Node4&#45;&gt;Node8 -->
<g id="edge12_Node000008_Node000004" class="edge">
<title>Node4&#45;&gt;Node8</title>
<g id="a_edge12_Node000008_Node000004"><a xlink:title=" ">
<path fill="none" stroke="#9a32cd" stroke-dasharray="5,2" d="M675.84,-171.92C671.24,-171.44 666.68,-171 662.25,-170.62 532.86,-159.53 380.78,-154.25 297.94,-152.02"/>
<polygon fill="#9a32cd" stroke="#9a32cd" points="675.44,-175.4 685.76,-173.01 676.2,-168.44 675.44,-175.4"/>
</a>
</g>
<text text-anchor="middle" x="506.12" y="-165.38" font-family="Helvetica,sans-Serif" font-size="10.00" fill="grey"> file</text>
</g>
<!-- Node5&#45;&gt;Node3 -->
<g id="edge13_Node000003_Node000005" class="edge">
<title>Node5&#45;&gt;Node3</title>
<g id="a_edge13_Node000003_Node000005"><a xlink:title=" ">
<path fill="none" stroke="#9a32cd" stroke-dasharray="5,2" d="M579.48,-241.4C581.59,-241.48 583.69,-241.56 585.75,-241.62 694.9,-245.09 822.23,-239.06 895.1,-234.65"/>
<polygon fill="#9a32cd" stroke="#9a32cd" points="579.72,-237.91 569.57,-240.95 579.4,-244.9 579.72,-237.91"/>
</a>
</g>
<text text-anchor="middle" x="743.38" y="-244.38" font-family="Helvetica,sans-Serif" font-size="10.00" fill="grey"> p_kernel</text>
</g>
<!-- Node5&#45;&gt;Node4 -->
<g id="edge5_Node000004_Node000005" class="edge">
<title>Node5&#45;&gt;Node4</title>
<g id="a_edge5_Node000004_Node000005"><a xlink:title=" ">
<path fill="none" stroke="#9a32cd" stroke-dasharray="5,2" d="M526.15,-219.47C541.15,-207.13 563.23,-191.47 585.75,-184.38 618.44,-174.08 656.89,-173.01 687.51,-174.58"/>
<polygon fill="#9a32cd" stroke="#9a32cd" points="524.27,-216.48 518.94,-225.63 528.81,-221.8 524.27,-216.48"/>
</a>
</g>
<text text-anchor="middle" x="624" y="-186.38" font-family="Helvetica,sans-Serif" font-size="10.00" fill="grey"> p_kernel</text>
</g>
<!-- Node6 -->
<g id="Node000006" class="node">
<title>Node6</title>
<g id="a_Node000006"><a xlink:href="classdunedaq_1_1oks_1_1OksProfiler.html" target="_top" xlink:title=" ">
<polygon fill="white" stroke="#666666" points="298.25,-309.25 172.75,-309.25 172.75,-290 298.25,-290 298.25,-309.25"/>
<text text-anchor="middle" x="235.5" y="-295.75" font-family="Helvetica,sans-Serif" font-size="10.00">dunedaq::oks::OksProfiler</text>
</a>
</g>
</g>
<!-- Node6&#45;&gt;Node5 -->
<g id="edge7_Node000005_Node000006" class="edge">
<title>Node6&#45;&gt;Node5</title>
<g id="a_edge7_Node000005_Node000006"><a xlink:title=" ">
<path fill="none" stroke="#9a32cd" stroke-dasharray="5,2" d="M309.79,-292.24C345.45,-287.59 388.67,-280.38 426.5,-269.62 447,-263.8 469.32,-254.08 484.92,-246.7"/>
<polygon fill="#9a32cd" stroke="#9a32cd" points="309.48,-288.75 300,-293.47 310.35,-295.69 309.48,-288.75"/>
</a>
</g>
<text text-anchor="middle" x="371.38" y="-293.38" font-family="Helvetica,sans-Serif" font-size="10.00" fill="grey"> profiler</text>
</g>
<!-- Node7 -->
<g id="Node000007" class="node">
<title>Node7</title>
<g id="a_Node000007"><a xlink:href="structdunedaq_1_1oks_1_1LoadErrors.html" target="_top" xlink:title=" ">
<polygon fill="white" stroke="#666666" points="297.88,-272.25 173.12,-272.25 173.12,-253 297.88,-253 297.88,-272.25"/>
<text text-anchor="middle" x="235.5" y="-258.75" font-family="Helvetica,sans-Serif" font-size="10.00">dunedaq::oks::LoadErrors</text>
</a>
</g>
</g>
<!-- Node7&#45;&gt;Node5 -->
<g id="edge8_Node000005_Node000007" class="edge">
<title>Node7&#45;&gt;Node5</title>
<g id="a_edge8_Node000005_Node000007"><a xlink:title=" ">
<path fill="none" stroke="#9a32cd" stroke-dasharray="5,2" d="M309.47,-255.56C351.7,-251.47 404.25,-246.39 444.25,-242.52"/>
<polygon fill="#9a32cd" stroke="#9a32cd" points="309.25,-252.07 299.63,-256.51 309.93,-259.03 309.25,-252.07"/>
</a>
</g>
<text text-anchor="middle" x="371.38" y="-256.38" font-family="Helvetica,sans-Serif" font-size="10.00" fill="grey"> p_load_errors</text>
</g>
<!-- Node8&#45;&gt;Node2 -->
<g id="edge16_Node000002_Node000008" class="edge">
<title>Node8&#45;&gt;Node2</title>
<g id="a_edge16_Node000002_Node000008"><a xlink:title=" ">
<path fill="none" stroke="#9a32cd" stroke-dasharray="5,2" d="M283.35,-137.64C336.63,-124.04 426.44,-104.62 505.12,-104.62 505.12,-104.62 505.12,-104.62 956.5,-104.62 1001.86,-104.62 1053.25,-104.62 1091.46,-104.62"/>
<polygon fill="#9a32cd" stroke="#9a32cd" points="282.49,-134.25 273.69,-140.15 284.25,-141.02 282.49,-134.25"/>
</a>
</g>
<text text-anchor="middle" x="743.38" y="-106.38" font-family="Helvetica,sans-Serif" font-size="10.00" fill="grey"> OBJECT</text>
</g>
<!-- Node8&#45;&gt;Node5 -->
<g id="edge9_Node000005_Node000008" class="edge">
<title>Node8&#45;&gt;Node5</title>
<g id="a_edge9_Node000005_Node000008"><a xlink:title=" ">
<path fill="none" stroke="#9a32cd" stroke-dasharray="5,2" d="M308.99,-162.04C357.88,-169.99 415.43,-179.94 426.5,-184.38 452.51,-194.8 478.86,-214.61 493.48,-226.62"/>
<polygon fill="#9a32cd" stroke="#9a32cd" points="309.67,-158.61 299.24,-160.47 308.55,-165.52 309.67,-158.61"/>
</a>
</g>
<text text-anchor="start" x="316.25" y="-231.38" font-family="Helvetica,sans-Serif" font-size="10.00" fill="grey"> p_change_object_notify</text>
<text text-anchor="middle" x="371.38" y="-220.12" font-family="Helvetica,sans-Serif" font-size="10.00" fill="grey">_fn</text>
<text text-anchor="start" x="316.25" y="-208.88" font-family="Helvetica,sans-Serif" font-size="10.00" fill="grey">p_create_object_notify</text>
<text text-anchor="middle" x="371.38" y="-197.62" font-family="Helvetica,sans-Serif" font-size="10.00" fill="grey">_fn</text>
<text text-anchor="middle" x="371.38" y="-186.38" font-family="Helvetica,sans-Serif" font-size="10.00" fill="grey">p_delete_object_notify_fn</text>
</g>
<!-- Node9 -->
<g id="Node000009" class="node">
<title>Node9</title>
<g id="a_Node000009"><a xlink:title=" ">
<polygon fill="white" stroke="#666666" points="78.25,-123.25 37.5,-123.25 37.5,-104 78.25,-104 78.25,-123.25"/>
<text text-anchor="middle" x="57.88" y="-109.75" font-family="Helvetica,sans-Serif" font-size="10.00">struct</text>
</a>
</g>
</g>
<!-- Node9&#45;&gt;Node2 -->
<g id="edge19_Node000002_Node000009" class="edge">
<title>Node9&#45;&gt;Node2</title>
<g id="a_edge19_Node000002_Node000009"><a xlink:title=" ">
<path fill="none" stroke="#9a32cd" stroke-dasharray="5,2" d="M87.94,-98.55C122.08,-82.27 180.88,-58.62 234.5,-58.62 234.5,-58.62 234.5,-58.62 956.5,-58.62 1009.83,-58.62 1069.26,-75.6 1107.7,-88.92"/>
<polygon fill="#9a32cd" stroke="#9a32cd" points="86.56,-95.33 79.12,-102.87 89.64,-101.61 86.56,-95.33"/>
</a>
</g>
<text text-anchor="middle" x="624" y="-71.62" font-family="Helvetica,sans-Serif" font-size="10.00" fill="grey"> UID</text>
<text text-anchor="middle" x="624" y="-60.38" font-family="Helvetica,sans-Serif" font-size="10.00" fill="grey">UID2</text>
</g>
<!-- Node9&#45;&gt;Node8 -->
<g id="edge10_Node000008_Node000009" class="edge">
<title>Node9&#45;&gt;Node8</title>
<g id="a_edge10_Node000008_Node000009"><a xlink:title=" ">
<path fill="none" stroke="#9a32cd" stroke-dasharray="5,2" d="M89.7,-120.12C116.51,-125.77 155.8,-134.05 186.69,-140.55"/>
<polygon fill="#9a32cd" stroke="#9a32cd" points="90.67,-116.75 80.16,-118.11 89.22,-123.6 90.67,-116.75"/>
</a>
</g>
<text text-anchor="middle" x="144.25" y="-135.38" font-family="Helvetica,sans-Serif" font-size="10.00" fill="grey"> uid</text>
</g>
<!-- Node10 -->
<g id="Node000010" class="node">
<title>Node10</title>
<g id="a_Node000010"><a xlink:href="classdunedaq_1_1oksdbinterfaces_1_1map.html" target="_top" xlink:title=" ">
<polygon fill="white" stroke="#666666" points="806.5,-315.88 680.25,-315.88 680.25,-285.38 806.5,-285.38 806.5,-315.88"/>
<text text-anchor="start" x="688.25" y="-302.38" font-family="Helvetica,sans-Serif" font-size="10.00">dunedaq::oksdbinterfaces</text>
<text text-anchor="middle" x="743.38" y="-291.12" font-family="Helvetica,sans-Serif" font-size="10.00">::map&lt; T &gt;</text>
</a>
</g>
</g>
<!-- Node10&#45;&gt;Node3 -->
<g id="edge14_Node000003_Node000010" class="edge">
<title>Node10&#45;&gt;Node3</title>
<g id="a_edge14_Node000003_Node000010"><a xlink:title=" ">
<path fill="none" stroke="#9a32cd" stroke-dasharray="5,2" d="M817.68,-286.75C837.22,-282.17 858.14,-276.46 877,-269.62 898.66,-261.77 922.12,-249.37 937.48,-240.67"/>
<polygon fill="#9a32cd" stroke="#9a32cd" points="817.12,-283.29 808.14,-288.91 818.67,-290.12 817.12,-283.29"/>
</a>
</g>
<text text-anchor="middle" x="850.75" y="-286.38" font-family="Helvetica,sans-Serif" font-size="10.00" fill="grey"> p_data_info</text>
</g>
<!-- Node11 -->
<g id="Node000011" class="node">
<title>Node11</title>
<g id="a_Node000011"><a xlink:title=" ">
<polygon fill="white" stroke="#666666" points="556.5,-315.88 455.75,-315.88 455.75,-285.38 556.5,-285.38 556.5,-315.88"/>
<text text-anchor="start" x="463.75" y="-302.38" font-family="Helvetica,sans-Serif" font-size="10.00">std::unordered_map</text>
<text text-anchor="middle" x="506.12" y="-291.12" font-family="Helvetica,sans-Serif" font-size="10.00">&lt; std::string, T &gt;</text>
</a>
</g>
</g>
<!-- Node11&#45;&gt;Node10 -->
<g id="edge15_Node000010_Node000011" class="edge">
<title>Node11&#45;&gt;Node10</title>
<g id="a_edge15_Node000010_Node000011"><a xlink:title=" ">
<path fill="none" stroke="#63b8ff" d="M568.03,-300.62C602.37,-300.62 645.21,-300.62 679.82,-300.62"/>
<polygon fill="#63b8ff" stroke="#63b8ff" points="568.24,-297.13 558.24,-300.63 568.24,-304.13 568.24,-297.13"/>
</a>
</g>
</g>
<!-- Node12 -->
<g id="Node000012" class="node">
<title>Node12</title>
<g id="a_Node000012"><a xlink:href="classdunedaq_1_1oks_1_1OksString.html" target="_top" xlink:title="Class OKS string.">
<polygon fill="white" stroke="#666666" points="1016,-19.25 895,-19.25 895,0 1016,0 1016,-19.25"/>
<text text-anchor="middle" x="955.5" y="-5.75" font-family="Helvetica,sans-Serif" font-size="10.00">dunedaq::oks::OksString</text>
</a>
</g>
</g>
<!-- Node12&#45;&gt;Node2 -->
<g id="edge17_Node000002_Node000012" class="edge">
<title>Node12&#45;&gt;Node2</title>
<g id="a_edge17_Node000002_Node000012"><a xlink:title=" ">
<path fill="none" stroke="#9a32cd" stroke-dasharray="5,2" d="M1027.74,-0.53C1043.5,-1.16 1059.69,-4.02 1073.75,-10.88 1107.45,-27.31 1130.78,-66.98 1141.66,-89.09"/>
<polygon fill="#9a32cd" stroke="#9a32cd" points="1027.91,2.97 1017.88,-0.45 1027.85,-4.03 1027.91,2.97"/>
</a>
</g>
<text text-anchor="middle" x="1053.88" y="-35.88" font-family="Helvetica,sans-Serif" font-size="10.00" fill="grey"> STRING</text>
<text text-anchor="middle" x="1053.88" y="-24.62" font-family="Helvetica,sans-Serif" font-size="10.00" fill="grey">class_id</text>
<text text-anchor="middle" x="1053.88" y="-13.38" font-family="Helvetica,sans-Serif" font-size="10.00" fill="grey">object_id</text>
</g>
<!-- Node13 -->
<g id="Node000013" class="node">
<title>Node13</title>
<g id="a_Node000013"><a xlink:title=" ">
<polygon fill="white" stroke="#666666" points="772.38,-19.25 714.38,-19.25 714.38,0 772.38,0 772.38,-19.25"/>
<text text-anchor="middle" x="743.38" y="-5.75" font-family="Helvetica,sans-Serif" font-size="10.00">std::string</text>
</a>
</g>
</g>
<!-- Node13&#45;&gt;Node12 -->
<g id="edge18_Node000012_Node000013" class="edge">
<title>Node13&#45;&gt;Node12</title>
<g id="a_edge18_Node000012_Node000013"><a xlink:title=" ">
<path fill="none" stroke="#63b8ff" d="M784.01,-9.62C815.25,-9.62 859.31,-9.62 894.81,-9.62"/>
<polygon fill="#63b8ff" stroke="#63b8ff" points="784.23,-6.13 774.23,-9.63 784.23,-13.13 784.23,-6.13"/>
</a>
</g>
</g>
</g>
</svg>
