<?xml version="1.0" encoding="UTF-8" standalone="no"?>
<!DOCTYPE svg PUBLIC "-//W3C//DTD SVG 1.1//EN"
 "http://www.w3.org/Graphics/SVG/1.1/DTD/svg11.dtd">
<!-- Generated by graphviz version 9.0.0 (20230911.1827)
 -->
<!-- Title: sourcecode/dbe/include/dbe/StyleUtility.hpp Pages: 1 -->
<svg width="1672pt" height="116pt"
 viewBox="0.00 0.00 1672.00 116.25" xmlns="http://www.w3.org/2000/svg" xmlns:xlink="http://www.w3.org/1999/xlink">
<g id="graph0" class="graph" transform="scale(1 1) rotate(0) translate(4 112.25)">
<title>sourcecode/dbe/include/dbe/StyleUtility.hpp</title>
<!-- Node1 -->
<g id="Node000001" class="node">
<title>Node1</title>
<g id="a_Node000001"><a xlink:title=" ">
<polygon fill="#999999" stroke="#666666" points="835.88,-108.25 717.12,-108.25 717.12,-77.75 835.88,-77.75 835.88,-108.25"/>
<text text-anchor="start" x="725.12" y="-94.75" font-family="Helvetica,sans-Serif" font-size="10.00">sourcecode/dbe/include</text>
<text text-anchor="middle" x="776.5" y="-83.5" font-family="Helvetica,sans-Serif" font-size="10.00">/dbe/StyleUtility.hpp</text>
</a>
</g>
</g>
<!-- Node2 -->
<g id="Node000002" class="node">
<title>Node2</title>
<g id="a_Node000002"><a xlink:href="MainWindow_8cpp.html" target="_top" xlink:title=" ">
<polygon fill="white" stroke="#666666" points="127,-36.12 0,-36.12 0,-5.62 127,-5.62 127,-36.12"/>
<text text-anchor="start" x="8" y="-22.62" font-family="Helvetica,sans-Serif" font-size="10.00">sourcecode/dbe/src</text>
<text text-anchor="middle" x="63.5" y="-11.38" font-family="Helvetica,sans-Serif" font-size="10.00">/internal/MainWindow.cpp</text>
</a>
</g>
</g>
<!-- Node1&#45;&gt;Node2 -->
<g id="edge1_Node000001_Node000002" class="edge">
<title>Node1&#45;&gt;Node2</title>
<g id="a_edge1_Node000001_Node000002"><a xlink:title=" ">
<path fill="none" stroke="#63b8ff" d="M705.49,-90.76C586.83,-87.72 341.07,-77.3 136.5,-41.75 128.74,-40.4 120.6,-38.59 112.7,-36.61"/>
<polygon fill="#63b8ff" stroke="#63b8ff" points="705.32,-94.26 715.41,-91 705.49,-87.26 705.32,-94.26"/>
</a>
</g>
</g>
<!-- Node3 -->
<g id="Node000003" class="node">
<title>Node3</title>
<g id="a_Node000003"><a xlink:href="StyleUtility_8cpp.html" target="_top" xlink:title=" ">
<polygon fill="white" stroke="#666666" points="263.5,-36.12 145.5,-36.12 145.5,-5.62 263.5,-5.62 263.5,-36.12"/>
<text text-anchor="start" x="153.5" y="-22.62" font-family="Helvetica,sans-Serif" font-size="10.00">sourcecode/dbe/src</text>
<text text-anchor="middle" x="204.5" y="-11.38" font-family="Helvetica,sans-Serif" font-size="10.00">/internal/StyleUtility.cpp</text>
</a>
</g>
</g>
<!-- Node1&#45;&gt;Node3 -->
<g id="edge2_Node000001_Node000003" class="edge">
<title>Node1&#45;&gt;Node3</title>
<g id="a_edge2_Node000001_Node000003"><a xlink:title=" ">
<path fill="none" stroke="#63b8ff" d="M705.37,-89.06C607.22,-84.05 425.07,-71.39 272.5,-41.75 265.38,-40.37 257.92,-38.56 250.67,-36.61"/>
<polygon fill="#63b8ff" stroke="#63b8ff" points="704.95,-92.54 715.12,-89.54 705.3,-85.55 704.95,-92.54"/>
</a>
</g>
</g>
<!-- Node4 -->
<g id="Node000004" class="node">
<title>Node4</title>
<g id="a_Node000004"><a xlink:href="CustomLineEdit_8cpp.html" target="_top" xlink:title=" ">
<polygon fill="white" stroke="#666666" points="417.12,-36.12 281.88,-36.12 281.88,-5.62 417.12,-5.62 417.12,-36.12"/>
<text text-anchor="start" x="289.88" y="-22.62" font-family="Helvetica,sans-Serif" font-size="10.00">sourcecode/dbe/src</text>
<text text-anchor="middle" x="349.5" y="-11.38" font-family="Helvetica,sans-Serif" font-size="10.00">/object/CustomLineEdit.cpp</text>
</a>
</g>
</g>
<!-- Node1&#45;&gt;Node4 -->
<g id="edge3_Node000001_Node000004" class="edge">
<title>Node1&#45;&gt;Node4</title>
<g id="a_edge3_Node000001_Node000004"><a xlink:title=" ">
<path fill="none" stroke="#63b8ff" d="M705.68,-84.15C634.7,-75.74 522.49,-60.97 426.5,-41.75 418.92,-40.23 410.97,-38.43 403.18,-36.53"/>
<polygon fill="#63b8ff" stroke="#63b8ff" points="704.87,-87.58 715.21,-85.27 705.68,-80.63 704.87,-87.58"/>
</a>
</g>
</g>
<!-- Node5 -->
<g id="Node000005" class="node">
<title>Node5</title>
<g id="a_Node000005"><a xlink:href="ValidatorComboBox_8cpp.html" target="_top" xlink:title=" ">
<polygon fill="white" stroke="#666666" points="587.38,-36.12 435.62,-36.12 435.62,-5.62 587.38,-5.62 587.38,-36.12"/>
<text text-anchor="start" x="443.62" y="-22.62" font-family="Helvetica,sans-Serif" font-size="10.00">sourcecode/dbe/src</text>
<text text-anchor="middle" x="511.5" y="-11.38" font-family="Helvetica,sans-Serif" font-size="10.00">/object/ValidatorComboBox.cpp</text>
</a>
</g>
</g>
<!-- Node1&#45;&gt;Node5 -->
<g id="edge4_Node000001_Node000005" class="edge">
<title>Node1&#45;&gt;Node5</title>
<g id="a_edge4_Node000001_Node000005"><a xlink:title=" ">
<path fill="none" stroke="#63b8ff" d="M710.03,-74.41C665.9,-62.73 608.66,-47.58 566.98,-36.56"/>
<polygon fill="#63b8ff" stroke="#63b8ff" points="708.92,-77.74 719.48,-76.91 710.71,-70.97 708.92,-77.74"/>
</a>
</g>
</g>
<!-- Node6 -->
<g id="Node000006" class="node">
<title>Node6</title>
<g id="a_Node000006"><a xlink:href="string__attr__text__edit_8cpp.html" target="_top" xlink:title=" ">
<polygon fill="white" stroke="#666666" points="707.25,-41.75 605.75,-41.75 605.75,0 707.25,0 707.25,-41.75"/>
<text text-anchor="start" x="613.75" y="-28.25" font-family="Helvetica,sans-Serif" font-size="10.00">sourcecode/dbe/src</text>
<text text-anchor="start" x="613.75" y="-17" font-family="Helvetica,sans-Serif" font-size="10.00">/object/string_attr</text>
<text text-anchor="middle" x="656.5" y="-5.75" font-family="Helvetica,sans-Serif" font-size="10.00">_text_edit.cpp</text>
</a>
</g>
</g>
<!-- Node1&#45;&gt;Node6 -->
<g id="edge5_Node000001_Node000006" class="edge">
<title>Node1&#45;&gt;Node6</title>
<g id="a_edge5_Node000001_Node000006"><a xlink:title=" ">
<path fill="none" stroke="#63b8ff" d="M741.41,-71.49C725.59,-62.25 706.95,-51.36 691.18,-42.14"/>
<polygon fill="#63b8ff" stroke="#63b8ff" points="739.64,-74.51 750.04,-76.54 743.17,-68.47 739.64,-74.51"/>
</a>
</g>
</g>
<!-- Node7 -->
<g id="Node000007" class="node">
<title>Node7</title>
<g id="a_Node000007"><a xlink:href="table_8cpp.html" target="_top" xlink:title=" ">
<polygon fill="white" stroke="#666666" points="827.25,-36.12 725.75,-36.12 725.75,-5.62 827.25,-5.62 827.25,-36.12"/>
<text text-anchor="start" x="733.75" y="-22.62" font-family="Helvetica,sans-Serif" font-size="10.00">sourcecode/dbe/src</text>
<text text-anchor="middle" x="776.5" y="-11.38" font-family="Helvetica,sans-Serif" font-size="10.00">/structure/table.cpp</text>
</a>
</g>
</g>
<!-- Node1&#45;&gt;Node7 -->
<g id="edge6_Node000001_Node000007" class="edge">
<title>Node1&#45;&gt;Node7</title>
<g id="a_edge6_Node000001_Node000007"><a xlink:title=" ">
<path fill="none" stroke="#63b8ff" d="M776.5,-66.02C776.5,-56.01 776.5,-44.94 776.5,-36.39"/>
<polygon fill="#63b8ff" stroke="#63b8ff" points="773,-65.96 776.5,-75.96 780,-65.96 773,-65.96"/>
</a>
</g>
</g>
<!-- Node8 -->
<g id="Node000008" class="node">
<title>Node8</title>
<g id="a_Node000008"><a xlink:href="BuildingBlockEditors_8cpp.html" target="_top" xlink:title=" ">
<polygon fill="white" stroke="#666666" points="1008,-36.12 845,-36.12 845,-5.62 1008,-5.62 1008,-36.12"/>
<text text-anchor="start" x="853" y="-22.62" font-family="Helvetica,sans-Serif" font-size="10.00">sourcecode/dbe/src</text>
<text text-anchor="middle" x="926.5" y="-11.38" font-family="Helvetica,sans-Serif" font-size="10.00">/widgets/BuildingBlockEditors.cpp</text>
</a>
</g>
</g>
<!-- Node1&#45;&gt;Node8 -->
<g id="edge7_Node000001_Node000008" class="edge">
<title>Node1&#45;&gt;Node8</title>
<g id="a_edge7_Node000001_Node000008"><a xlink:title=" ">
<path fill="none" stroke="#63b8ff" d="M818.32,-72.45C842.64,-61.08 872.81,-46.98 895.1,-36.56"/>
<polygon fill="#63b8ff" stroke="#63b8ff" points="816.89,-69.25 809.32,-76.66 819.86,-75.59 816.89,-69.25"/>
</a>
</g>
</g>
<!-- Node9 -->
<g id="Node000009" class="node">
<title>Node9</title>
<g id="a_Node000009"><a xlink:href="CreateDatabaseWidget_8cpp.html" target="_top" xlink:title=" ">
<polygon fill="white" stroke="#666666" points="1199.25,-36.12 1025.75,-36.12 1025.75,-5.62 1199.25,-5.62 1199.25,-36.12"/>
<text text-anchor="start" x="1033.75" y="-22.62" font-family="Helvetica,sans-Serif" font-size="10.00">sourcecode/dbe/src</text>
<text text-anchor="middle" x="1112.5" y="-11.38" font-family="Helvetica,sans-Serif" font-size="10.00">/widgets/CreateDatabaseWidget.cpp</text>
</a>
</g>
</g>
<!-- Node1&#45;&gt;Node9 -->
<g id="edge8_Node000001_Node000009" class="edge">
<title>Node1&#45;&gt;Node9</title>
<g id="a_edge8_Node000001_Node000009"><a xlink:title=" ">
<path fill="none" stroke="#63b8ff" d="M847.14,-77.28C895.18,-67.27 960.18,-53.72 1017.5,-41.75 1025.5,-40.08 1033.88,-38.33 1042.2,-36.59"/>
<polygon fill="#63b8ff" stroke="#63b8ff" points="846.48,-73.85 837.41,-79.31 847.91,-80.7 846.48,-73.85"/>
</a>
</g>
</g>
<!-- Node10 -->
<g id="Node000010" class="node">
<title>Node10</title>
<g id="a_Node000010"><a xlink:href="IncludeFileWidget_8cpp.html" target="_top" xlink:title=" ">
<polygon fill="white" stroke="#666666" points="1368,-36.12 1217,-36.12 1217,-5.62 1368,-5.62 1368,-36.12"/>
<text text-anchor="start" x="1225" y="-22.62" font-family="Helvetica,sans-Serif" font-size="10.00">sourcecode/dbe/src</text>
<text text-anchor="middle" x="1292.5" y="-11.38" font-family="Helvetica,sans-Serif" font-size="10.00">/widgets/IncludeFileWidget.cpp</text>
</a>
</g>
</g>
<!-- Node1&#45;&gt;Node10 -->
<g id="edge9_Node000001_Node000010" class="edge">
<title>Node1&#45;&gt;Node10</title>
<g id="a_edge9_Node000001_Node000010"><a xlink:title=" ">
<path fill="none" stroke="#63b8ff" d="M847.66,-86.28C933.59,-78.79 1082.3,-63.94 1208.5,-41.75 1216.91,-40.27 1225.74,-38.46 1234.39,-36.55"/>
<polygon fill="#63b8ff" stroke="#63b8ff" points="847.39,-82.79 837.72,-87.14 847.99,-89.77 847.39,-82.79"/>
</a>
</g>
</g>
<!-- Node11 -->
<g id="Node000011" class="node">
<title>Node11</title>
<g id="a_Node000011"><a xlink:href="ObjectCreator_8cpp.html" target="_top" xlink:title=" ">
<polygon fill="white" stroke="#666666" points="1519.38,-36.12 1385.62,-36.12 1385.62,-5.62 1519.38,-5.62 1519.38,-36.12"/>
<text text-anchor="start" x="1393.62" y="-22.62" font-family="Helvetica,sans-Serif" font-size="10.00">sourcecode/dbe/src</text>
<text text-anchor="middle" x="1452.5" y="-11.38" font-family="Helvetica,sans-Serif" font-size="10.00">/widgets/ObjectCreator.cpp</text>
</a>
</g>
</g>
<!-- Node1&#45;&gt;Node11 -->
<g id="edge10_Node000001_Node000011" class="edge">
<title>Node1&#45;&gt;Node11</title>
<g id="a_edge10_Node000001_Node000011"><a xlink:title=" ">
<path fill="none" stroke="#63b8ff" d="M847.45,-90.1C960.4,-86.17 1187.73,-74.57 1377.5,-41.75 1385.46,-40.37 1393.81,-38.55 1401.93,-36.56"/>
<polygon fill="#63b8ff" stroke="#63b8ff" points="847.62,-86.59 837.74,-90.42 847.85,-93.59 847.62,-86.59"/>
</a>
</g>
</g>
<!-- Node12 -->
<g id="Node000012" class="node">
<title>Node12</title>
<g id="a_Node000012"><a xlink:href="ObjectEditor_8cpp.html" target="_top" xlink:title=" ">
<polygon fill="white" stroke="#666666" points="1664,-36.12 1537,-36.12 1537,-5.62 1664,-5.62 1664,-36.12"/>
<text text-anchor="start" x="1545" y="-22.62" font-family="Helvetica,sans-Serif" font-size="10.00">sourcecode/dbe/src</text>
<text text-anchor="middle" x="1600.5" y="-11.38" font-family="Helvetica,sans-Serif" font-size="10.00">/widgets/ObjectEditor.cpp</text>
</a>
</g>
</g>
<!-- Node1&#45;&gt;Node12 -->
<g id="edge11_Node000001_Node000012" class="edge">
<title>Node1&#45;&gt;Node12</title>
<g id="a_edge11_Node000001_Node000012"><a xlink:title=" ">
<path fill="none" stroke="#63b8ff" d="M847.25,-92.03C981.19,-91.03 1280.62,-83.8 1528.5,-41.75 1536.3,-40.43 1544.47,-38.61 1552.39,-36.6"/>
<polygon fill="#63b8ff" stroke="#63b8ff" points="847.45,-88.53 837.47,-92.09 847.5,-95.53 847.45,-88.53"/>
</a>
</g>
</g>
</g>
</svg>
