<?xml version="1.0" encoding="UTF-8" standalone="no"?>
<!DOCTYPE svg PUBLIC "-//W3C//DTD SVG 1.1//EN"
 "http://www.w3.org/Graphics/SVG/1.1/DTD/svg11.dtd">
<!-- Generated by graphviz version 9.0.0 (20230911.1827)
 -->
<!-- Title: sourcecode/oksdbinterfaces/include/oksdbinterfaces/SubscriptionCriteria.hpp Pages: 1 -->
<svg width="220pt" height="105pt"
 viewBox="0.00 0.00 219.50 105.00" xmlns="http://www.w3.org/2000/svg" xmlns:xlink="http://www.w3.org/1999/xlink">
<g id="graph0" class="graph" transform="scale(1 1) rotate(0) translate(4 101)">
<title>sourcecode/oksdbinterfaces/include/oksdbinterfaces/SubscriptionCriteria.hpp</title>
<!-- Node1 -->
<g id="Node000001" class="node">
<title>Node1</title>
<g id="a_Node000001"><a xlink:title=" ">
<polygon fill="#999999" stroke="#666666" points="160.88,-97 22.62,-97 22.62,-55.25 160.88,-55.25 160.88,-97"/>
<text text-anchor="start" x="30.62" y="-83.5" font-family="Helvetica,sans-Serif" font-size="10.00">sourcecode/oksdbinterfaces</text>
<text text-anchor="start" x="30.62" y="-72.25" font-family="Helvetica,sans-Serif" font-size="10.00">/include/oksdbinterfaces</text>
<text text-anchor="middle" x="91.75" y="-61" font-family="Helvetica,sans-Serif" font-size="10.00">/SubscriptionCriteria.hpp</text>
</a>
</g>
</g>
<!-- Node2 -->
<g id="Node000002" class="node">
<title>Node2</title>
<g id="a_Node000002"><a xlink:title=" ">
<polygon fill="#e0e0e0" stroke="#999999" points="29.5,-19.25 0,-19.25 0,0 29.5,0 29.5,-19.25"/>
<text text-anchor="middle" x="14.75" y="-5.75" font-family="Helvetica,sans-Serif" font-size="10.00">set</text>
</a>
</g>
</g>
<!-- Node1&#45;&gt;Node2 -->
<g id="edge1_Node000001_Node000002" class="edge">
<title>Node1&#45;&gt;Node2</title>
<g id="a_edge1_Node000001_Node000002"><a xlink:title=" ">
<path fill="none" stroke="#63b8ff" d="M67.81,-55.07C56.99,-46.01 44.38,-35.44 34.16,-26.89"/>
<polygon fill="#63b8ff" stroke="#63b8ff" points="36.65,-24.41 26.74,-20.67 32.16,-29.77 36.65,-24.41"/>
</a>
</g>
</g>
<!-- Node3 -->
<g id="Node000003" class="node">
<title>Node3</title>
<g id="a_Node000003"><a xlink:title=" ">
<polygon fill="#e0e0e0" stroke="#999999" points="82.12,-19.25 47.38,-19.25 47.38,0 82.12,0 82.12,-19.25"/>
<text text-anchor="middle" x="64.75" y="-5.75" font-family="Helvetica,sans-Serif" font-size="10.00">map</text>
</a>
</g>
</g>
<!-- Node1&#45;&gt;Node3 -->
<g id="edge2_Node000001_Node000003" class="edge">
<title>Node1&#45;&gt;Node3</title>
<g id="a_edge2_Node000001_Node000003"><a xlink:title=" ">
<path fill="none" stroke="#63b8ff" d="M83.36,-55.07C80.03,-47.12 76.21,-38.01 72.91,-30.11"/>
<polygon fill="#63b8ff" stroke="#63b8ff" points="76.22,-28.96 69.13,-21.09 69.76,-31.67 76.22,-28.96"/>
</a>
</g>
</g>
<!-- Node4 -->
<g id="Node000004" class="node">
<title>Node4</title>
<g id="a_Node000004"><a xlink:title=" ">
<polygon fill="#e0e0e0" stroke="#999999" points="139.75,-19.25 99.75,-19.25 99.75,0 139.75,0 139.75,-19.25"/>
<text text-anchor="middle" x="119.75" y="-5.75" font-family="Helvetica,sans-Serif" font-size="10.00">string</text>
</a>
</g>
</g>
<!-- Node1&#45;&gt;Node4 -->
<g id="edge3_Node000001_Node000004" class="edge">
<title>Node1&#45;&gt;Node4</title>
<g id="a_edge3_Node000001_Node000004"><a xlink:title=" ">
<path fill="none" stroke="#63b8ff" d="M100.46,-55.07C103.91,-47.12 107.86,-38.01 111.29,-30.11"/>
<polygon fill="#63b8ff" stroke="#63b8ff" points="114.44,-31.65 115.21,-21.08 108.02,-28.86 114.44,-31.65"/>
</a>
</g>
</g>
<!-- Node5 -->
<g id="Node000005" class="node">
<title>Node5</title>
<g id="a_Node000005"><a xlink:title=" ">
<polygon fill="#e0e0e0" stroke="#999999" points="211.5,-19.25 158,-19.25 158,0 211.5,0 211.5,-19.25"/>
<text text-anchor="middle" x="184.75" y="-5.75" font-family="Helvetica,sans-Serif" font-size="10.00">iostream</text>
</a>
</g>
</g>
<!-- Node1&#45;&gt;Node5 -->
<g id="edge4_Node000001_Node000005" class="edge">
<title>Node1&#45;&gt;Node5</title>
<g id="a_edge4_Node000001_Node000005"><a xlink:title=" ">
<path fill="none" stroke="#63b8ff" d="M120.92,-54.89C134.37,-45.57 150.08,-34.67 162.55,-26.02"/>
<polygon fill="#63b8ff" stroke="#63b8ff" points="164.28,-29.08 170.5,-20.51 160.29,-23.33 164.28,-29.08"/>
</a>
</g>
</g>
</g>
</svg>
