<?xml version="1.0" encoding="UTF-8" standalone="no"?>
<!DOCTYPE svg PUBLIC "-//W3C//DTD SVG 1.1//EN"
 "http://www.w3.org/Graphics/SVG/1.1/DTD/svg11.dtd">
<!-- Generated by graphviz version 9.0.0 (20230911.1827)
 -->
<!-- Title: sourcecode/dbe/include/dbe/subtreeproxy.hpp Pages: 1 -->
<svg width="1334pt" height="172pt"
 viewBox="0.00 0.00 1334.00 171.50" xmlns="http://www.w3.org/2000/svg" xmlns:xlink="http://www.w3.org/1999/xlink">
<g id="graph0" class="graph" transform="scale(1 1) rotate(0) translate(4 167.5)">
<title>sourcecode/dbe/include/dbe/subtreeproxy.hpp</title>
<!-- Node1 -->
<g id="Node000001" class="node">
<title>Node1</title>
<g id="a_Node000001"><a xlink:title=" ">
<polygon fill="#999999" stroke="#666666" points="670.88,-163.5 552.12,-163.5 552.12,-133 670.88,-133 670.88,-163.5"/>
<text text-anchor="start" x="560.12" y="-150" font-family="Helvetica,sans-Serif" font-size="10.00">sourcecode/dbe/include</text>
<text text-anchor="middle" x="611.5" y="-138.75" font-family="Helvetica,sans-Serif" font-size="10.00">/dbe/subtreeproxy.hpp</text>
</a>
</g>
</g>
<!-- Node2 -->
<g id="Node000002" class="node">
<title>Node2</title>
<g id="a_Node000002"><a xlink:href="MainWindow_8hpp.html" target="_top" xlink:title=" ">
<polygon fill="white" stroke="#666666" points="593.88,-97 475.12,-97 475.12,-66.5 593.88,-66.5 593.88,-97"/>
<text text-anchor="start" x="483.12" y="-83.5" font-family="Helvetica,sans-Serif" font-size="10.00">sourcecode/dbe/include</text>
<text text-anchor="middle" x="534.5" y="-72.25" font-family="Helvetica,sans-Serif" font-size="10.00">/dbe/MainWindow.hpp</text>
</a>
</g>
</g>
<!-- Node1&#45;&gt;Node2 -->
<g id="edge1_Node000001_Node000002" class="edge">
<title>Node1&#45;&gt;Node2</title>
<g id="a_edge1_Node000001_Node000002"><a xlink:title=" ">
<path fill="none" stroke="#63b8ff" d="M585.23,-125.24C574.22,-116.03 561.74,-105.56 551.9,-97.33"/>
<polygon fill="#63b8ff" stroke="#63b8ff" points="582.95,-127.9 592.87,-131.64 587.45,-122.54 582.95,-127.9"/>
</a>
</g>
</g>
<!-- Node6 -->
<g id="Node000006" class="node">
<title>Node6</title>
<g id="a_Node000006"><a xlink:href="MainWindow_8cpp.html" target="_top" xlink:title=" ">
<polygon fill="white" stroke="#666666" points="127,-30.5 0,-30.5 0,0 127,0 127,-30.5"/>
<text text-anchor="start" x="8" y="-17" font-family="Helvetica,sans-Serif" font-size="10.00">sourcecode/dbe/src</text>
<text text-anchor="middle" x="63.5" y="-5.75" font-family="Helvetica,sans-Serif" font-size="10.00">/internal/MainWindow.cpp</text>
</a>
</g>
</g>
<!-- Node1&#45;&gt;Node6 -->
<g id="edge11_Node000001_Node000006" class="edge">
<title>Node1&#45;&gt;Node6</title>
<g id="a_edge11_Node000001_Node000006"><a xlink:title=" ">
<path fill="none" stroke="#63b8ff" d="M540.68,-130.32C432.3,-104.41 227.14,-55.37 124.79,-30.9"/>
<polygon fill="#63b8ff" stroke="#63b8ff" points="539.8,-133.71 550.34,-132.63 541.43,-126.9 539.8,-133.71"/>
</a>
</g>
</g>
<!-- Node12 -->
<g id="Node000012" class="node">
<title>Node12</title>
<g id="a_Node000012"><a xlink:href="CustomTreeView_8cpp.html" target="_top" xlink:title=" ">
<polygon fill="white" stroke="#666666" points="765.12,-97 611.88,-97 611.88,-66.5 765.12,-66.5 765.12,-97"/>
<text text-anchor="start" x="619.88" y="-83.5" font-family="Helvetica,sans-Serif" font-size="10.00">sourcecode/dbe/src</text>
<text text-anchor="middle" x="688.5" y="-72.25" font-family="Helvetica,sans-Serif" font-size="10.00">/structure/CustomTreeView.cpp</text>
</a>
</g>
</g>
<!-- Node1&#45;&gt;Node12 -->
<g id="edge12_Node000001_Node000012" class="edge">
<title>Node1&#45;&gt;Node12</title>
<g id="a_edge12_Node000001_Node000012"><a xlink:title=" ">
<path fill="none" stroke="#63b8ff" d="M637.77,-125.24C648.78,-116.03 661.26,-105.56 671.1,-97.33"/>
<polygon fill="#63b8ff" stroke="#63b8ff" points="635.55,-122.54 630.13,-131.64 640.05,-127.9 635.55,-122.54"/>
</a>
</g>
</g>
<!-- Node13 -->
<g id="Node000013" class="node">
<title>Node13</title>
<g id="a_Node000013"><a xlink:href="subtreeproxy_8cpp.html" target="_top" xlink:title=" ">
<polygon fill="white" stroke="#666666" points="916,-97 783,-97 783,-66.5 916,-66.5 916,-97"/>
<text text-anchor="start" x="791" y="-83.5" font-family="Helvetica,sans-Serif" font-size="10.00">sourcecode/dbe/src</text>
<text text-anchor="middle" x="849.5" y="-72.25" font-family="Helvetica,sans-Serif" font-size="10.00">/structure/subtreeproxy.cpp</text>
</a>
</g>
</g>
<!-- Node1&#45;&gt;Node13 -->
<g id="edge13_Node000001_Node000013" class="edge">
<title>Node1&#45;&gt;Node13</title>
<g id="a_edge13_Node000001_Node000013"><a xlink:title=" ">
<path fill="none" stroke="#63b8ff" d="M676.57,-129.62C713.87,-119.51 760.14,-106.97 795.43,-97.4"/>
<polygon fill="#63b8ff" stroke="#63b8ff" points="676,-126.14 667.26,-132.14 677.83,-132.9 676,-126.14"/>
</a>
</g>
</g>
<!-- Node3 -->
<g id="Node000003" class="node">
<title>Node3</title>
<g id="a_Node000003"><a xlink:href="Main_8cpp.html" target="_top" xlink:title=" ">
<polygon fill="white" stroke="#666666" points="254,-30.5 145,-30.5 145,0 254,0 254,-30.5"/>
<text text-anchor="start" x="153" y="-17" font-family="Helvetica,sans-Serif" font-size="10.00">sourcecode/dbe/apps</text>
<text text-anchor="middle" x="199.5" y="-5.75" font-family="Helvetica,sans-Serif" font-size="10.00">/Main.cpp</text>
</a>
</g>
</g>
<!-- Node2&#45;&gt;Node3 -->
<g id="edge2_Node000002_Node000003" class="edge">
<title>Node2&#45;&gt;Node3</title>
<g id="a_edge2_Node000002_Node000003"><a xlink:title=" ">
<path fill="none" stroke="#63b8ff" d="M463.65,-68.46C408.67,-58.72 330.6,-44.49 262.5,-30.5 259.86,-29.96 257.17,-29.39 254.45,-28.81"/>
<polygon fill="#63b8ff" stroke="#63b8ff" points="462.73,-71.85 473.18,-70.14 463.94,-64.95 462.73,-71.85"/>
</a>
</g>
</g>
<!-- Node4 -->
<g id="Node000004" class="node">
<title>Node4</title>
<g id="a_Node000004"><a xlink:href="TableTab_8cpp.html" target="_top" xlink:title=" ">
<polygon fill="white" stroke="#666666" points="373.25,-30.5 271.75,-30.5 271.75,0 373.25,0 373.25,-30.5"/>
<text text-anchor="start" x="279.75" y="-17" font-family="Helvetica,sans-Serif" font-size="10.00">sourcecode/dbe/src</text>
<text text-anchor="middle" x="322.5" y="-5.75" font-family="Helvetica,sans-Serif" font-size="10.00">/TableTab.cpp</text>
</a>
</g>
</g>
<!-- Node2&#45;&gt;Node4 -->
<g id="edge3_Node000002_Node000004" class="edge">
<title>Node2&#45;&gt;Node4</title>
<g id="a_edge3_Node000002_Node000004"><a xlink:title=" ">
<path fill="none" stroke="#63b8ff" d="M475.25,-62.72C442.25,-52.68 401.69,-40.34 370.66,-30.9"/>
<polygon fill="#63b8ff" stroke="#63b8ff" points="474.09,-66.03 484.68,-65.59 476.13,-59.33 474.09,-66.03"/>
</a>
</g>
</g>
<!-- Node5 -->
<g id="Node000005" class="node">
<title>Node5</title>
<g id="a_Node000005"><a xlink:href="GraphView_8cpp.html" target="_top" xlink:title=" ">
<polygon fill="white" stroke="#666666" points="518,-30.5 391,-30.5 391,0 518,0 518,-30.5"/>
<text text-anchor="start" x="399" y="-17" font-family="Helvetica,sans-Serif" font-size="10.00">sourcecode/dbe/src</text>
<text text-anchor="middle" x="454.5" y="-5.75" font-family="Helvetica,sans-Serif" font-size="10.00">/graphical/GraphView.cpp</text>
</a>
</g>
</g>
<!-- Node2&#45;&gt;Node5 -->
<g id="edge4_Node000002_Node000005" class="edge">
<title>Node2&#45;&gt;Node5</title>
<g id="a_edge4_Node000002_Node000005"><a xlink:title=" ">
<path fill="none" stroke="#63b8ff" d="M507.55,-59.02C496.03,-49.73 482.9,-39.15 472.58,-30.83"/>
<polygon fill="#63b8ff" stroke="#63b8ff" points="505.19,-61.61 515.17,-65.16 509.58,-56.16 505.19,-61.61"/>
</a>
</g>
</g>
<!-- Node2&#45;&gt;Node6 -->
<g id="edge5_Node000002_Node000006" class="edge">
<title>Node2&#45;&gt;Node6</title>
<g id="a_edge5_Node000002_Node000006"><a xlink:title=" ">
<path fill="none" stroke="#63b8ff" d="M463.43,-73.32C383.46,-64.61 249.8,-48.99 135.5,-30.5 132.86,-30.07 130.17,-29.62 127.45,-29.15"/>
<polygon fill="#63b8ff" stroke="#63b8ff" points="463,-76.8 473.32,-74.39 463.76,-69.84 463,-76.8"/>
</a>
</g>
</g>
<!-- Node7 -->
<g id="Node000007" class="node">
<title>Node7</title>
<g id="a_Node000007"><a xlink:href="CustomTableView_8cpp.html" target="_top" xlink:title=" ">
<polygon fill="white" stroke="#666666" points="693.38,-30.5 535.62,-30.5 535.62,0 693.38,0 693.38,-30.5"/>
<text text-anchor="start" x="543.62" y="-17" font-family="Helvetica,sans-Serif" font-size="10.00">sourcecode/dbe/src</text>
<text text-anchor="middle" x="614.5" y="-5.75" font-family="Helvetica,sans-Serif" font-size="10.00">/structure/CustomTableView.cpp</text>
</a>
</g>
</g>
<!-- Node2&#45;&gt;Node7 -->
<g id="edge6_Node000002_Node000007" class="edge">
<title>Node2&#45;&gt;Node7</title>
<g id="a_edge6_Node000002_Node000007"><a xlink:title=" ">
<path fill="none" stroke="#63b8ff" d="M561.45,-59.02C572.97,-49.73 586.1,-39.15 596.42,-30.83"/>
<polygon fill="#63b8ff" stroke="#63b8ff" points="559.42,-56.16 553.83,-65.16 563.81,-61.61 559.42,-56.16"/>
</a>
</g>
</g>
<!-- Node8 -->
<g id="Node000008" class="node">
<title>Node8</title>
<g id="a_Node000008"><a xlink:href="FileModel_8cpp.html" target="_top" xlink:title=" ">
<polygon fill="white" stroke="#666666" points="831.62,-30.5 711.38,-30.5 711.38,0 831.62,0 831.62,-30.5"/>
<text text-anchor="start" x="719.38" y="-17" font-family="Helvetica,sans-Serif" font-size="10.00">sourcecode/dbe/src</text>
<text text-anchor="middle" x="771.5" y="-5.75" font-family="Helvetica,sans-Serif" font-size="10.00">/structure/FileModel.cpp</text>
</a>
</g>
</g>
<!-- Node2&#45;&gt;Node8 -->
<g id="edge7_Node000002_Node000008" class="edge">
<title>Node2&#45;&gt;Node8</title>
<g id="a_edge7_Node000002_Node000008"><a xlink:title=" ">
<path fill="none" stroke="#63b8ff" d="M599.3,-63.12C636.44,-53.01 682.52,-40.47 717.66,-30.9"/>
<polygon fill="#63b8ff" stroke="#63b8ff" points="598.77,-59.63 590.04,-65.64 600.6,-66.39 598.77,-59.63"/>
</a>
</g>
</g>
<!-- Node9 -->
<g id="Node000009" class="node">
<title>Node9</title>
<g id="a_Node000009"><a xlink:href="BatchChangeWidget_8cpp.html" target="_top" xlink:title=" ">
<polygon fill="white" stroke="#666666" points="1011.62,-30.5 849.38,-30.5 849.38,0 1011.62,0 1011.62,-30.5"/>
<text text-anchor="start" x="857.38" y="-17" font-family="Helvetica,sans-Serif" font-size="10.00">sourcecode/dbe/src</text>
<text text-anchor="middle" x="930.5" y="-5.75" font-family="Helvetica,sans-Serif" font-size="10.00">/widgets/BatchChangeWidget.cpp</text>
</a>
</g>
</g>
<!-- Node2&#45;&gt;Node9 -->
<g id="edge8_Node000002_Node000009" class="edge">
<title>Node2&#45;&gt;Node9</title>
<g id="a_edge8_Node000002_Node000009"><a xlink:title=" ">
<path fill="none" stroke="#63b8ff" d="M605.2,-66.07C709.66,-47.46 738.29,-46.32 840.5,-30.5 843.31,-30.06 846.18,-29.62 849.07,-29.17"/>
<polygon fill="#63b8ff" stroke="#63b8ff" points="604.88,-62.57 595.66,-67.78 606.12,-69.46 604.88,-62.57"/>
</a>
</g>
</g>
<!-- Node10 -->
<g id="Node000010" class="node">
<title>Node10</title>
<g id="a_Node000010"><a xlink:href="IncludeFileWidget_8cpp.html" target="_top" xlink:title=" ">
<polygon fill="white" stroke="#666666" points="1181,-30.5 1030,-30.5 1030,0 1181,0 1181,-30.5"/>
<text text-anchor="start" x="1038" y="-17" font-family="Helvetica,sans-Serif" font-size="10.00">sourcecode/dbe/src</text>
<text text-anchor="middle" x="1105.5" y="-5.75" font-family="Helvetica,sans-Serif" font-size="10.00">/widgets/IncludeFileWidget.cpp</text>
</a>
</g>
</g>
<!-- Node2&#45;&gt;Node10 -->
<g id="edge9_Node000002_Node000010" class="edge">
<title>Node2&#45;&gt;Node10</title>
<g id="a_edge9_Node000002_Node000010"><a xlink:title=" ">
<path fill="none" stroke="#63b8ff" d="M605.27,-66.21C788.92,-39.88 839.13,-53.48 1020.5,-30.5 1023.47,-30.12 1026.49,-29.72 1029.54,-29.29"/>
<polygon fill="#63b8ff" stroke="#63b8ff" points="605.02,-62.71 595.63,-67.61 606.03,-69.63 605.02,-62.71"/>
</a>
</g>
</g>
<!-- Node11 -->
<g id="Node000011" class="node">
<title>Node11</title>
<g id="a_Node000011"><a xlink:href="ObjectEditor_8cpp.html" target="_top" xlink:title=" ">
<polygon fill="white" stroke="#666666" points="1326,-30.5 1199,-30.5 1199,0 1326,0 1326,-30.5"/>
<text text-anchor="start" x="1207" y="-17" font-family="Helvetica,sans-Serif" font-size="10.00">sourcecode/dbe/src</text>
<text text-anchor="middle" x="1262.5" y="-5.75" font-family="Helvetica,sans-Serif" font-size="10.00">/widgets/ObjectEditor.cpp</text>
</a>
</g>
</g>
<!-- Node2&#45;&gt;Node11 -->
<g id="edge10_Node000002_Node000011" class="edge">
<title>Node2&#45;&gt;Node11</title>
<g id="a_edge10_Node000002_Node000011"><a xlink:title=" ">
<path fill="none" stroke="#63b8ff" d="M605.38,-66.25C863.97,-32.46 934.51,-63.52 1190.5,-30.5 1193.15,-30.16 1195.86,-29.78 1198.58,-29.36"/>
<polygon fill="#63b8ff" stroke="#63b8ff" points="605.07,-62.76 595.62,-67.55 605.99,-69.7 605.07,-62.76"/>
</a>
</g>
</g>
</g>
</svg>
