<?xml version="1.0" encoding="UTF-8" standalone="no"?>
<!DOCTYPE svg PUBLIC "-//W3C//DTD SVG 1.1//EN"
 "http://www.w3.org/Graphics/SVG/1.1/DTD/svg11.dtd">
<!-- Generated by graphviz version 9.0.0 (20230911.1827)
 -->
<!-- Title: sourcecode/dbe/include/dbe/table.hpp Pages: 1 -->
<svg width="1336pt" height="305pt"
 viewBox="0.00 0.00 1335.62 304.50" xmlns="http://www.w3.org/2000/svg" xmlns:xlink="http://www.w3.org/1999/xlink">
<g id="graph0" class="graph" transform="scale(1 1) rotate(0) translate(4 300.5)">
<title>sourcecode/dbe/include/dbe/table.hpp</title>
<!-- Node1 -->
<g id="Node000001" class="node">
<title>Node1</title>
<g id="a_Node000001"><a xlink:title=" ">
<polygon fill="#999999" stroke="#666666" points="886.12,-296.5 767.38,-296.5 767.38,-266 886.12,-266 886.12,-296.5"/>
<text text-anchor="start" x="775.38" y="-283" font-family="Helvetica,sans-Serif" font-size="10.00">sourcecode/dbe/include</text>
<text text-anchor="middle" x="826.75" y="-271.75" font-family="Helvetica,sans-Serif" font-size="10.00">/dbe/table.hpp</text>
</a>
</g>
</g>
<!-- Node2 -->
<g id="Node000002" class="node">
<title>Node2</title>
<g id="a_Node000002"><a xlink:href="CustomTableView_8hpp.html" target="_top" xlink:title=" ">
<polygon fill="white" stroke="#666666" points="894.38,-230 759.12,-230 759.12,-199.5 894.38,-199.5 894.38,-230"/>
<text text-anchor="start" x="767.12" y="-216.5" font-family="Helvetica,sans-Serif" font-size="10.00">sourcecode/dbe/include</text>
<text text-anchor="middle" x="826.75" y="-205.25" font-family="Helvetica,sans-Serif" font-size="10.00">/dbe/CustomTableView.hpp</text>
</a>
</g>
</g>
<!-- Node1&#45;&gt;Node2 -->
<g id="edge1_Node000001_Node000002" class="edge">
<title>Node1&#45;&gt;Node2</title>
<g id="a_edge1_Node000001_Node000002"><a xlink:title=" ">
<path fill="none" stroke="#63b8ff" d="M826.75,-254.31C826.75,-246.14 826.75,-237.41 826.75,-230.33"/>
<polygon fill="#63b8ff" stroke="#63b8ff" points="823.25,-254.1 826.75,-264.1 830.25,-254.1 823.25,-254.1"/>
</a>
</g>
</g>
<!-- Node3 -->
<g id="Node000003" class="node">
<title>Node3</title>
<g id="a_Node000003"><a xlink:href="TableTab_8hpp.html" target="_top" xlink:title=" ">
<polygon fill="white" stroke="#666666" points="839.12,-163.5 720.38,-163.5 720.38,-133 839.12,-133 839.12,-163.5"/>
<text text-anchor="start" x="728.38" y="-150" font-family="Helvetica,sans-Serif" font-size="10.00">sourcecode/dbe/include</text>
<text text-anchor="middle" x="779.75" y="-138.75" font-family="Helvetica,sans-Serif" font-size="10.00">/dbe/TableTab.hpp</text>
</a>
</g>
</g>
<!-- Node1&#45;&gt;Node3 -->
<g id="edge16_Node000001_Node000003" class="edge">
<title>Node1&#45;&gt;Node3</title>
<g id="a_edge16_Node000001_Node000003"><a xlink:title=" ">
<path fill="none" stroke="#63b8ff" d="M779.9,-259.99C767.92,-252.41 756.53,-242.52 749.75,-230 737.86,-208.04 754.25,-180.37 767.08,-163.78"/>
<polygon fill="#63b8ff" stroke="#63b8ff" points="777.84,-262.84 788.24,-264.82 781.34,-256.78 777.84,-262.84"/>
</a>
</g>
</g>
<!-- Node4 -->
<g id="Node000004" class="node">
<title>Node4</title>
<g id="a_Node000004"><a xlink:href="MainWindow_8hpp.html" target="_top" xlink:title=" ">
<polygon fill="white" stroke="#666666" points="796.12,-97 677.38,-97 677.38,-66.5 796.12,-66.5 796.12,-97"/>
<text text-anchor="start" x="685.38" y="-83.5" font-family="Helvetica,sans-Serif" font-size="10.00">sourcecode/dbe/include</text>
<text text-anchor="middle" x="736.75" y="-72.25" font-family="Helvetica,sans-Serif" font-size="10.00">/dbe/MainWindow.hpp</text>
</a>
</g>
</g>
<!-- Node1&#45;&gt;Node4 -->
<g id="edge15_Node000001_Node000004" class="edge">
<title>Node1&#45;&gt;Node4</title>
<g id="a_edge15_Node000001_Node000004"><a xlink:title=" ">
<path fill="none" stroke="#63b8ff" d="M780.78,-260.38C766.55,-252.52 751.75,-242.38 740.75,-230 710.86,-196.37 701.46,-176.8 711.75,-133 714.74,-120.29 721.45,-107.12 727.16,-97.45"/>
<polygon fill="#63b8ff" stroke="#63b8ff" points="779.14,-263.47 789.63,-264.99 782.38,-257.27 779.14,-263.47"/>
</a>
</g>
</g>
<!-- Node14 -->
<g id="Node000014" class="node">
<title>Node14</title>
<g id="a_Node000014"><a xlink:href="tableselection_8hpp.html" target="_top" xlink:title=" ">
<polygon fill="white" stroke="#666666" points="1031.12,-230 912.38,-230 912.38,-199.5 1031.12,-199.5 1031.12,-230"/>
<text text-anchor="start" x="920.38" y="-216.5" font-family="Helvetica,sans-Serif" font-size="10.00">sourcecode/dbe/include</text>
<text text-anchor="middle" x="971.75" y="-205.25" font-family="Helvetica,sans-Serif" font-size="10.00">/dbe/tableselection.hpp</text>
</a>
</g>
</g>
<!-- Node1&#45;&gt;Node14 -->
<g id="edge17_Node000001_Node000014" class="edge">
<title>Node1&#45;&gt;Node14</title>
<g id="a_edge17_Node000001_Node000014"><a xlink:title=" ">
<path fill="none" stroke="#63b8ff" d="M870.06,-260.98C892.07,-251.19 918.38,-239.49 938.73,-230.44"/>
<polygon fill="#63b8ff" stroke="#63b8ff" points="868.75,-257.74 861.04,-265 871.59,-264.13 868.75,-257.74"/>
</a>
</g>
</g>
<!-- Node17 -->
<g id="Node000017" class="node">
<title>Node17</title>
<g id="a_Node000017"><a xlink:href="table_8cpp.html" target="_top" xlink:title=" ">
<polygon fill="white" stroke="#666666" points="1150.5,-230 1049,-230 1049,-199.5 1150.5,-199.5 1150.5,-230"/>
<text text-anchor="start" x="1057" y="-216.5" font-family="Helvetica,sans-Serif" font-size="10.00">sourcecode/dbe/src</text>
<text text-anchor="middle" x="1099.75" y="-205.25" font-family="Helvetica,sans-Serif" font-size="10.00">/structure/table.cpp</text>
</a>
</g>
</g>
<!-- Node1&#45;&gt;Node17 -->
<g id="edge23_Node000001_Node000017" class="edge">
<title>Node1&#45;&gt;Node17</title>
<g id="a_edge23_Node000001_Node000017"><a xlink:title=" ">
<path fill="none" stroke="#63b8ff" d="M897.52,-263.58C938.97,-253.81 992.34,-241.22 1039.75,-230 1042.67,-229.31 1045.66,-228.6 1048.69,-227.88"/>
<polygon fill="#63b8ff" stroke="#63b8ff" points="896.84,-260.15 887.91,-265.85 898.44,-266.96 896.84,-260.15"/>
</a>
</g>
</g>
<!-- Node2&#45;&gt;Node3 -->
<g id="edge2_Node000002_Node000003" class="edge">
<title>Node2&#45;&gt;Node3</title>
<g id="a_edge2_Node000002_Node000003"><a xlink:title=" ">
<path fill="none" stroke="#63b8ff" d="M809.49,-190.07C803.09,-181.28 796.01,-171.57 790.37,-163.83"/>
<polygon fill="#63b8ff" stroke="#63b8ff" points="806.48,-191.87 815.19,-197.89 812.13,-187.75 806.48,-191.87"/>
</a>
</g>
</g>
<!-- Node9 -->
<g id="Node000009" class="node">
<title>Node9</title>
<g id="a_Node000009"><a xlink:href="CustomTableView_8cpp.html" target="_top" xlink:title=" ">
<polygon fill="white" stroke="#666666" points="1327.62,-30.5 1169.88,-30.5 1169.88,0 1327.62,0 1327.62,-30.5"/>
<text text-anchor="start" x="1177.88" y="-17" font-family="Helvetica,sans-Serif" font-size="10.00">sourcecode/dbe/src</text>
<text text-anchor="middle" x="1248.75" y="-5.75" font-family="Helvetica,sans-Serif" font-size="10.00">/structure/CustomTableView.cpp</text>
</a>
</g>
</g>
<!-- Node2&#45;&gt;Node9 -->
<g id="edge14_Node000002_Node000009" class="edge">
<title>Node2&#45;&gt;Node9</title>
<g id="a_edge14_Node000002_Node000009"><a xlink:title=" ">
<path fill="none" stroke="#63b8ff" d="M849.38,-191.35C883.66,-158.75 952.15,-98.61 1021.75,-66.5 1047.82,-54.47 1115,-40.3 1169.57,-30.07"/>
<polygon fill="#63b8ff" stroke="#63b8ff" points="847.29,-188.51 842.51,-197.97 852.14,-193.55 847.29,-188.51"/>
</a>
</g>
</g>
<!-- Node3&#45;&gt;Node4 -->
<g id="edge3_Node000003_Node000004" class="edge">
<title>Node3&#45;&gt;Node4</title>
<g id="a_edge3_Node000003_Node000004"><a xlink:title=" ">
<path fill="none" stroke="#63b8ff" d="M763.78,-123.29C757.96,-114.57 751.58,-104.99 746.47,-97.33"/>
<polygon fill="#63b8ff" stroke="#63b8ff" points="760.69,-124.98 769.15,-131.35 766.52,-121.09 760.69,-124.98"/>
</a>
</g>
</g>
<!-- Node6 -->
<g id="Node000006" class="node">
<title>Node6</title>
<g id="a_Node000006"><a xlink:href="TableTab_8cpp.html" target="_top" xlink:title=" ">
<polygon fill="white" stroke="#666666" points="101.5,-30.5 0,-30.5 0,0 101.5,0 101.5,-30.5"/>
<text text-anchor="start" x="8" y="-17" font-family="Helvetica,sans-Serif" font-size="10.00">sourcecode/dbe/src</text>
<text text-anchor="middle" x="50.75" y="-5.75" font-family="Helvetica,sans-Serif" font-size="10.00">/TableTab.cpp</text>
</a>
</g>
</g>
<!-- Node3&#45;&gt;Node6 -->
<g id="edge13_Node000003_Node000006" class="edge">
<title>Node3&#45;&gt;Node6</title>
<g id="a_edge13_Node000003_Node000006"><a xlink:title=" ">
<path fill="none" stroke="#63b8ff" d="M708.95,-136.34C586.56,-117.15 327.72,-75.15 110.75,-30.5 107.81,-29.9 104.8,-29.25 101.77,-28.59"/>
<polygon fill="#63b8ff" stroke="#63b8ff" points="708.09,-139.74 718.51,-137.83 709.17,-132.83 708.09,-139.74"/>
</a>
</g>
</g>
<!-- Node5 -->
<g id="Node000005" class="node">
<title>Node5</title>
<g id="a_Node000005"><a xlink:href="Main_8cpp.html" target="_top" xlink:title=" ">
<polygon fill="white" stroke="#666666" points="723.25,-30.5 614.25,-30.5 614.25,0 723.25,0 723.25,-30.5"/>
<text text-anchor="start" x="622.25" y="-17" font-family="Helvetica,sans-Serif" font-size="10.00">sourcecode/dbe/apps</text>
<text text-anchor="middle" x="668.75" y="-5.75" font-family="Helvetica,sans-Serif" font-size="10.00">/Main.cpp</text>
</a>
</g>
</g>
<!-- Node4&#45;&gt;Node5 -->
<g id="edge4_Node000004_Node000005" class="edge">
<title>Node4&#45;&gt;Node5</title>
<g id="a_edge4_Node000004_Node000005"><a xlink:title=" ">
<path fill="none" stroke="#63b8ff" d="M713.26,-58.46C703.61,-49.32 692.72,-38.98 684.12,-30.83"/>
<polygon fill="#63b8ff" stroke="#63b8ff" points="710.56,-60.73 720.22,-65.07 715.37,-55.65 710.56,-60.73"/>
</a>
</g>
</g>
<!-- Node4&#45;&gt;Node6 -->
<g id="edge5_Node000004_Node000006" class="edge">
<title>Node4&#45;&gt;Node6</title>
<g id="a_edge5_Node000004_Node000006"><a xlink:title=" ">
<path fill="none" stroke="#63b8ff" d="M666.06,-78.6C549.65,-74.27 310.6,-62.06 110.75,-30.5 107.79,-30.03 104.76,-29.5 101.71,-28.91"/>
<polygon fill="#63b8ff" stroke="#63b8ff" points="665.64,-82.09 675.76,-78.95 665.89,-75.09 665.64,-82.09"/>
</a>
</g>
</g>
<!-- Node7 -->
<g id="Node000007" class="node">
<title>Node7</title>
<g id="a_Node000007"><a xlink:href="GraphView_8cpp.html" target="_top" xlink:title=" ">
<polygon fill="white" stroke="#666666" points="868.25,-30.5 741.25,-30.5 741.25,0 868.25,0 868.25,-30.5"/>
<text text-anchor="start" x="749.25" y="-17" font-family="Helvetica,sans-Serif" font-size="10.00">sourcecode/dbe/src</text>
<text text-anchor="middle" x="804.75" y="-5.75" font-family="Helvetica,sans-Serif" font-size="10.00">/graphical/GraphView.cpp</text>
</a>
</g>
</g>
<!-- Node4&#45;&gt;Node7 -->
<g id="edge6_Node000004_Node000007" class="edge">
<title>Node4&#45;&gt;Node7</title>
<g id="a_edge6_Node000004_Node000007"><a xlink:title=" ">
<path fill="none" stroke="#63b8ff" d="M760.24,-58.46C769.89,-49.32 780.78,-38.98 789.38,-30.83"/>
<polygon fill="#63b8ff" stroke="#63b8ff" points="758.13,-55.65 753.28,-65.07 762.94,-60.73 758.13,-55.65"/>
</a>
</g>
</g>
<!-- Node8 -->
<g id="Node000008" class="node">
<title>Node8</title>
<g id="a_Node000008"><a xlink:href="MainWindow_8cpp.html" target="_top" xlink:title=" ">
<polygon fill="white" stroke="#666666" points="1013.25,-30.5 886.25,-30.5 886.25,0 1013.25,0 1013.25,-30.5"/>
<text text-anchor="start" x="894.25" y="-17" font-family="Helvetica,sans-Serif" font-size="10.00">sourcecode/dbe/src</text>
<text text-anchor="middle" x="949.75" y="-5.75" font-family="Helvetica,sans-Serif" font-size="10.00">/internal/MainWindow.cpp</text>
</a>
</g>
</g>
<!-- Node4&#45;&gt;Node8 -->
<g id="edge7_Node000004_Node000008" class="edge">
<title>Node4&#45;&gt;Node8</title>
<g id="a_edge7_Node000004_Node000008"><a xlink:title=" ">
<path fill="none" stroke="#63b8ff" d="M796.28,-62.72C829.43,-52.68 870.18,-40.34 901.36,-30.9"/>
<polygon fill="#63b8ff" stroke="#63b8ff" points="795.35,-59.35 786.8,-65.59 797.38,-66.05 795.35,-59.35"/>
</a>
</g>
</g>
<!-- Node4&#45;&gt;Node9 -->
<g id="edge8_Node000004_Node000009" class="edge">
<title>Node4&#45;&gt;Node9</title>
<g id="a_edge8_Node000004_Node000009"><a xlink:title=" ">
<path fill="none" stroke="#63b8ff" d="M807.55,-72.73C909.94,-61.07 1094.33,-39.81 1160.75,-30.5 1163.66,-30.09 1166.63,-29.67 1169.62,-29.23"/>
<polygon fill="#63b8ff" stroke="#63b8ff" points="807.44,-69.22 797.9,-73.83 808.23,-76.17 807.44,-69.22"/>
</a>
</g>
</g>
<!-- Node10 -->
<g id="Node000010" class="node">
<title>Node10</title>
<g id="a_Node000010"><a xlink:href="FileModel_8cpp.html" target="_top" xlink:title=" ">
<polygon fill="white" stroke="#666666" points="1151.88,-30.5 1031.62,-30.5 1031.62,0 1151.88,0 1151.88,-30.5"/>
<text text-anchor="start" x="1039.62" y="-17" font-family="Helvetica,sans-Serif" font-size="10.00">sourcecode/dbe/src</text>
<text text-anchor="middle" x="1091.75" y="-5.75" font-family="Helvetica,sans-Serif" font-size="10.00">/structure/FileModel.cpp</text>
</a>
</g>
</g>
<!-- Node4&#45;&gt;Node10 -->
<g id="edge9_Node000004_Node000010" class="edge">
<title>Node4&#45;&gt;Node10</title>
<g id="a_edge9_Node000004_Node000010"><a xlink:title=" ">
<path fill="none" stroke="#63b8ff" d="M807.78,-68.87C865.72,-59.04 949.63,-44.47 1022.75,-30.5 1025.51,-29.97 1028.34,-29.42 1031.19,-28.86"/>
<polygon fill="#63b8ff" stroke="#63b8ff" points="807.32,-65.4 798.04,-70.52 808.49,-72.3 807.32,-65.4"/>
</a>
</g>
</g>
<!-- Node11 -->
<g id="Node000011" class="node">
<title>Node11</title>
<g id="a_Node000011"><a xlink:href="BatchChangeWidget_8cpp.html" target="_top" xlink:title=" ">
<polygon fill="white" stroke="#666666" points="281.88,-30.5 119.62,-30.5 119.62,0 281.88,0 281.88,-30.5"/>
<text text-anchor="start" x="127.62" y="-17" font-family="Helvetica,sans-Serif" font-size="10.00">sourcecode/dbe/src</text>
<text text-anchor="middle" x="200.75" y="-5.75" font-family="Helvetica,sans-Serif" font-size="10.00">/widgets/BatchChangeWidget.cpp</text>
</a>
</g>
</g>
<!-- Node4&#45;&gt;Node11 -->
<g id="edge10_Node000004_Node000011" class="edge">
<title>Node4&#45;&gt;Node11</title>
<g id="a_edge10_Node000004_Node000011"><a xlink:title=" ">
<path fill="none" stroke="#63b8ff" d="M665.94,-73.76C577.87,-64.84 422.98,-48.41 290.75,-30.5 287.93,-30.12 285.06,-29.72 282.16,-29.31"/>
<polygon fill="#63b8ff" stroke="#63b8ff" points="665.32,-77.22 675.62,-74.74 666.02,-70.25 665.32,-77.22"/>
</a>
</g>
</g>
<!-- Node12 -->
<g id="Node000012" class="node">
<title>Node12</title>
<g id="a_Node000012"><a xlink:href="IncludeFileWidget_8cpp.html" target="_top" xlink:title=" ">
<polygon fill="white" stroke="#666666" points="451.25,-30.5 300.25,-30.5 300.25,0 451.25,0 451.25,-30.5"/>
<text text-anchor="start" x="308.25" y="-17" font-family="Helvetica,sans-Serif" font-size="10.00">sourcecode/dbe/src</text>
<text text-anchor="middle" x="375.75" y="-5.75" font-family="Helvetica,sans-Serif" font-size="10.00">/widgets/IncludeFileWidget.cpp</text>
</a>
</g>
</g>
<!-- Node4&#45;&gt;Node12 -->
<g id="edge11_Node000004_Node000012" class="edge">
<title>Node4&#45;&gt;Node12</title>
<g id="a_edge11_Node000004_Node000012"><a xlink:title=" ">
<path fill="none" stroke="#63b8ff" d="M665.93,-68.1C604.12,-57.05 514.67,-41.07 451.46,-29.78"/>
<polygon fill="#63b8ff" stroke="#63b8ff" points="665.19,-71.52 675.65,-69.83 666.42,-64.63 665.19,-71.52"/>
</a>
</g>
</g>
<!-- Node13 -->
<g id="Node000013" class="node">
<title>Node13</title>
<g id="a_Node000013"><a xlink:href="ObjectEditor_8cpp.html" target="_top" xlink:title=" ">
<polygon fill="white" stroke="#666666" points="596.25,-30.5 469.25,-30.5 469.25,0 596.25,0 596.25,-30.5"/>
<text text-anchor="start" x="477.25" y="-17" font-family="Helvetica,sans-Serif" font-size="10.00">sourcecode/dbe/src</text>
<text text-anchor="middle" x="532.75" y="-5.75" font-family="Helvetica,sans-Serif" font-size="10.00">/widgets/ObjectEditor.cpp</text>
</a>
</g>
</g>
<!-- Node4&#45;&gt;Node13 -->
<g id="edge12_Node000004_Node000013" class="edge">
<title>Node4&#45;&gt;Node13</title>
<g id="a_edge12_Node000004_Node000013"><a xlink:title=" ">
<path fill="none" stroke="#63b8ff" d="M679.32,-62.59C647.64,-52.58 608.82,-40.3 579.1,-30.9"/>
<polygon fill="#63b8ff" stroke="#63b8ff" points="678.17,-65.9 688.76,-65.58 680.28,-59.23 678.17,-65.9"/>
</a>
</g>
</g>
<!-- Node14&#45;&gt;Node3 -->
<g id="edge19_Node000014_Node000003" class="edge">
<title>Node14&#45;&gt;Node3</title>
<g id="a_edge19_Node000014_Node000003"><a xlink:title=" ">
<path fill="none" stroke="#63b8ff" d="M917.55,-195.54C887.8,-185.55 851.4,-173.32 823.48,-163.94"/>
<polygon fill="#63b8ff" stroke="#63b8ff" points="916.15,-198.77 926.75,-198.63 918.38,-192.13 916.15,-198.77"/>
</a>
</g>
</g>
<!-- Node14&#45;&gt;Node4 -->
<g id="edge18_Node000014_Node000004" class="edge">
<title>Node14&#45;&gt;Node4</title>
<g id="a_edge18_Node000014_Node000004"><a xlink:title=" ">
<path fill="none" stroke="#63b8ff" d="M942.12,-192.62C917.48,-175.5 881.17,-151.31 847.75,-133 823.45,-119.69 794.95,-106.84 772.92,-97.47"/>
<polygon fill="#63b8ff" stroke="#63b8ff" points="939.85,-195.3 950.04,-198.17 943.86,-189.57 939.85,-195.3"/>
</a>
</g>
</g>
<!-- Node14&#45;&gt;Node9 -->
<g id="edge21_Node000014_Node000009" class="edge">
<title>Node14&#45;&gt;Node9</title>
<g id="a_edge21_Node000014_Node000009"><a xlink:title=" ">
<path fill="none" stroke="#63b8ff" d="M970.61,-187.8C971.18,-170.58 974.6,-148.41 986.75,-133 1031.61,-76.1 1110.11,-46.17 1169.52,-30.93"/>
<polygon fill="#63b8ff" stroke="#63b8ff" points="967.11,-187.78 970.62,-197.77 974.11,-187.77 967.11,-187.78"/>
</a>
</g>
</g>
<!-- Node15 -->
<g id="Node000015" class="node">
<title>Node15</title>
<g id="a_Node000015"><a xlink:href="CustomDelegate_8cpp.html" target="_top" xlink:title=" ">
<polygon fill="white" stroke="#666666" points="1145.88,-163.5 995.62,-163.5 995.62,-133 1145.88,-133 1145.88,-163.5"/>
<text text-anchor="start" x="1003.62" y="-150" font-family="Helvetica,sans-Serif" font-size="10.00">sourcecode/dbe/src</text>
<text text-anchor="middle" x="1070.75" y="-138.75" font-family="Helvetica,sans-Serif" font-size="10.00">/structure/CustomDelegate.cpp</text>
</a>
</g>
</g>
<!-- Node14&#45;&gt;Node15 -->
<g id="edge20_Node000014_Node000015" class="edge">
<title>Node14&#45;&gt;Node15</title>
<g id="a_edge20_Node000014_Node000015"><a xlink:title=" ">
<path fill="none" stroke="#63b8ff" d="M1003.84,-192.84C1018.39,-183.37 1035.23,-172.39 1048.37,-163.83"/>
<polygon fill="#63b8ff" stroke="#63b8ff" points="1001.95,-189.9 995.48,-198.29 1005.77,-195.76 1001.95,-189.9"/>
</a>
</g>
</g>
<!-- Node16 -->
<g id="Node000016" class="node">
<title>Node16</title>
<g id="a_Node000016"><a xlink:href="tableselection_8cpp.html" target="_top" xlink:title=" ">
<polygon fill="white" stroke="#666666" points="1301.88,-163.5 1163.62,-163.5 1163.62,-133 1301.88,-133 1301.88,-163.5"/>
<text text-anchor="start" x="1171.62" y="-150" font-family="Helvetica,sans-Serif" font-size="10.00">sourcecode/dbe/src</text>
<text text-anchor="middle" x="1232.75" y="-138.75" font-family="Helvetica,sans-Serif" font-size="10.00">/structure/tableselection.cpp</text>
</a>
</g>
</g>
<!-- Node14&#45;&gt;Node16 -->
<g id="edge22_Node000014_Node000016" class="edge">
<title>Node14&#45;&gt;Node16</title>
<g id="a_edge22_Node000014_Node000016"><a xlink:title=" ">
<path fill="none" stroke="#63b8ff" d="M1042.32,-196.31C1083.36,-186.17 1134.51,-173.53 1173.45,-163.9"/>
<polygon fill="#63b8ff" stroke="#63b8ff" points="1041.64,-192.87 1032.77,-198.67 1043.32,-199.67 1041.64,-192.87"/>
</a>
</g>
</g>
</g>
</svg>
