<?xml version="1.0" encoding="UTF-8" standalone="no"?>
<!DOCTYPE svg PUBLIC "-//W3C//DTD SVG 1.1//EN"
 "http://www.w3.org/Graphics/SVG/1.1/DTD/svg11.dtd">
<!-- Generated by graphviz version 9.0.0 (20230911.1827)
 -->
<!-- Title: sourcecode/dbe/src/structure/TableNode.cpp Pages: 1 -->
<svg width="256pt" height="204pt"
 viewBox="0.00 0.00 255.50 204.25" xmlns="http://www.w3.org/2000/svg" xmlns:xlink="http://www.w3.org/1999/xlink">
<g id="graph0" class="graph" transform="scale(1 1) rotate(0) translate(4 200.25)">
<title>sourcecode/dbe/src/structure/TableNode.cpp</title>
<!-- Node1 -->
<g id="Node000001" class="node">
<title>Node1</title>
<g id="a_Node000001"><a xlink:title=" ">
<polygon fill="#999999" stroke="#666666" points="156.5,-196.25 31,-196.25 31,-165.75 156.5,-165.75 156.5,-196.25"/>
<text text-anchor="start" x="39" y="-182.75" font-family="Helvetica,sans-Serif" font-size="10.00">sourcecode/dbe/src</text>
<text text-anchor="middle" x="93.75" y="-171.5" font-family="Helvetica,sans-Serif" font-size="10.00">/structure/TableNode.cpp</text>
</a>
</g>
</g>
<!-- Node2 -->
<g id="Node000002" class="node">
<title>Node2</title>
<g id="a_Node000002"><a xlink:href="TableNode_8hpp.html" target="_top" xlink:title=" ">
<polygon fill="white" stroke="#666666" points="143.75,-129.75 43.75,-129.75 43.75,-110.5 143.75,-110.5 143.75,-129.75"/>
<text text-anchor="middle" x="93.75" y="-116.25" font-family="Helvetica,sans-Serif" font-size="10.00">dbe/TableNode.hpp</text>
</a>
</g>
</g>
<!-- Node1&#45;&gt;Node2 -->
<g id="edge1_Node000001_Node000002" class="edge">
<title>Node1&#45;&gt;Node2</title>
<g id="a_edge1_Node000001_Node000002"><a xlink:title=" ">
<path fill="none" stroke="#63b8ff" d="M93.75,-165.45C93.75,-158.21 93.75,-149.34 93.75,-141.44"/>
<polygon fill="#63b8ff" stroke="#63b8ff" points="97.25,-141.71 93.75,-131.71 90.25,-141.71 97.25,-141.71"/>
</a>
</g>
</g>
<!-- Node3 -->
<g id="Node000003" class="node">
<title>Node3</title>
<g id="a_Node000003"><a xlink:title=" ">
<polygon fill="#e0e0e0" stroke="#999999" points="65.5,-74.5 0,-74.5 0,-55.25 65.5,-55.25 65.5,-74.5"/>
<text text-anchor="middle" x="32.75" y="-61" font-family="Helvetica,sans-Serif" font-size="10.00">QStringList</text>
</a>
</g>
</g>
<!-- Node2&#45;&gt;Node3 -->
<g id="edge2_Node000002_Node000003" class="edge">
<title>Node2&#45;&gt;Node3</title>
<g id="a_edge2_Node000002_Node000003"><a xlink:title=" ">
<path fill="none" stroke="#63b8ff" d="M83.4,-110.09C74.67,-102.47 61.96,-91.37 51.45,-82.2"/>
<polygon fill="#63b8ff" stroke="#63b8ff" points="53.92,-79.71 44.09,-75.77 49.32,-84.98 53.92,-79.71"/>
</a>
</g>
</g>
<!-- Node4 -->
<g id="Node000004" class="node">
<title>Node4</title>
<g id="a_Node000004"><a xlink:href="oksdbinterfaces_2include_2oksdbinterfaces_2Schema_8hpp.html" target="_top" xlink:title=" ">
<polygon fill="white" stroke="#666666" points="225.75,-74.5 83.75,-74.5 83.75,-55.25 225.75,-55.25 225.75,-74.5"/>
<text text-anchor="middle" x="154.75" y="-61" font-family="Helvetica,sans-Serif" font-size="10.00">oksdbinterfaces/Schema.hpp</text>
</a>
</g>
</g>
<!-- Node2&#45;&gt;Node4 -->
<g id="edge3_Node000002_Node000004" class="edge">
<title>Node2&#45;&gt;Node4</title>
<g id="a_edge3_Node000002_Node000004"><a xlink:title=" ">
<path fill="none" stroke="#63b8ff" d="M104.1,-110.09C112.83,-102.47 125.54,-91.37 136.05,-82.2"/>
<polygon fill="#63b8ff" stroke="#63b8ff" points="138.18,-84.98 143.41,-75.77 133.58,-79.71 138.18,-84.98"/>
</a>
</g>
</g>
<!-- Node5 -->
<g id="Node000005" class="node">
<title>Node5</title>
<g id="a_Node000005"><a xlink:title=" ">
<polygon fill="#e0e0e0" stroke="#999999" points="114.75,-19.25 74.75,-19.25 74.75,0 114.75,0 114.75,-19.25"/>
<text text-anchor="middle" x="94.75" y="-5.75" font-family="Helvetica,sans-Serif" font-size="10.00">string</text>
</a>
</g>
</g>
<!-- Node4&#45;&gt;Node5 -->
<g id="edge4_Node000004_Node000005" class="edge">
<title>Node4&#45;&gt;Node5</title>
<g id="a_edge4_Node000004_Node000005"><a xlink:title=" ">
<path fill="none" stroke="#63b8ff" d="M144.57,-54.84C135.99,-47.22 123.48,-36.12 113.15,-26.95"/>
<polygon fill="#63b8ff" stroke="#63b8ff" points="115.71,-24.55 105.91,-20.53 111.07,-29.79 115.71,-24.55"/>
</a>
</g>
</g>
<!-- Node6 -->
<g id="Node000006" class="node">
<title>Node6</title>
<g id="a_Node000006"><a xlink:title=" ">
<polygon fill="#e0e0e0" stroke="#999999" points="176.25,-19.25 133.25,-19.25 133.25,0 176.25,0 176.25,-19.25"/>
<text text-anchor="middle" x="154.75" y="-5.75" font-family="Helvetica,sans-Serif" font-size="10.00">vector</text>
</a>
</g>
</g>
<!-- Node4&#45;&gt;Node6 -->
<g id="edge5_Node000004_Node000006" class="edge">
<title>Node4&#45;&gt;Node6</title>
<g id="a_edge5_Node000004_Node000006"><a xlink:title=" ">
<path fill="none" stroke="#63b8ff" d="M154.75,-55.08C154.75,-48.57 154.75,-39.42 154.75,-31.12"/>
<polygon fill="#63b8ff" stroke="#63b8ff" points="158.25,-31.12 154.75,-21.12 151.25,-31.12 158.25,-31.12"/>
</a>
</g>
</g>
<!-- Node7 -->
<g id="Node000007" class="node">
<title>Node7</title>
<g id="a_Node000007"><a xlink:title=" ">
<polygon fill="#e0e0e0" stroke="#999999" points="247.5,-19.25 194,-19.25 194,0 247.5,0 247.5,-19.25"/>
<text text-anchor="middle" x="220.75" y="-5.75" font-family="Helvetica,sans-Serif" font-size="10.00">iostream</text>
</a>
</g>
</g>
<!-- Node4&#45;&gt;Node7 -->
<g id="edge6_Node000004_Node000007" class="edge">
<title>Node4&#45;&gt;Node7</title>
<g id="a_edge6_Node000004_Node000007"><a xlink:title=" ">
<path fill="none" stroke="#63b8ff" d="M165.95,-54.84C175.49,-47.15 189.42,-35.9 200.86,-26.68"/>
<polygon fill="#63b8ff" stroke="#63b8ff" points="202.96,-29.48 208.54,-20.48 198.56,-24.03 202.96,-29.48"/>
</a>
</g>
</g>
</g>
</svg>
