<?xml version="1.0" encoding="UTF-8" standalone="no"?>
<!DOCTYPE svg PUBLIC "-//W3C//DTD SVG 1.1//EN"
 "http://www.w3.org/Graphics/SVG/1.1/DTD/svg11.dtd">
<!-- Generated by graphviz version 9.0.0 (20230911.1827)
 -->
<!-- Title: sourcecode/dbe/include/dbe/TableNode.hpp Pages: 1 -->
<svg width="256pt" height="149pt"
 viewBox="0.00 0.00 255.50 149.00" xmlns="http://www.w3.org/2000/svg" xmlns:xlink="http://www.w3.org/1999/xlink">
<g id="graph0" class="graph" transform="scale(1 1) rotate(0) translate(4 145)">
<title>sourcecode/dbe/include/dbe/TableNode.hpp</title>
<!-- Node1 -->
<g id="Node000001" class="node">
<title>Node1</title>
<g id="a_Node000001"><a xlink:title=" ">
<polygon fill="#999999" stroke="#666666" points="153.12,-141 34.38,-141 34.38,-110.5 153.12,-110.5 153.12,-141"/>
<text text-anchor="start" x="42.38" y="-127.5" font-family="Helvetica,sans-Serif" font-size="10.00">sourcecode/dbe/include</text>
<text text-anchor="middle" x="93.75" y="-116.25" font-family="Helvetica,sans-Serif" font-size="10.00">/dbe/TableNode.hpp</text>
</a>
</g>
</g>
<!-- Node2 -->
<g id="Node000002" class="node">
<title>Node2</title>
<g id="a_Node000002"><a xlink:title=" ">
<polygon fill="#e0e0e0" stroke="#999999" points="65.5,-74.5 0,-74.5 0,-55.25 65.5,-55.25 65.5,-74.5"/>
<text text-anchor="middle" x="32.75" y="-61" font-family="Helvetica,sans-Serif" font-size="10.00">QStringList</text>
</a>
</g>
</g>
<!-- Node1&#45;&gt;Node2 -->
<g id="edge1_Node000001_Node000002" class="edge">
<title>Node1&#45;&gt;Node2</title>
<g id="a_edge1_Node000001_Node000002"><a xlink:title=" ">
<path fill="none" stroke="#63b8ff" d="M78.67,-110.2C70.1,-101.92 59.32,-91.52 50.36,-82.87"/>
<polygon fill="#63b8ff" stroke="#63b8ff" points="52.87,-80.43 43.24,-76 48.01,-85.47 52.87,-80.43"/>
</a>
</g>
</g>
<!-- Node3 -->
<g id="Node000003" class="node">
<title>Node3</title>
<g id="a_Node000003"><a xlink:href="oksdbinterfaces_2include_2oksdbinterfaces_2Schema_8hpp.html" target="_top" xlink:title=" ">
<polygon fill="white" stroke="#666666" points="225.75,-74.5 83.75,-74.5 83.75,-55.25 225.75,-55.25 225.75,-74.5"/>
<text text-anchor="middle" x="154.75" y="-61" font-family="Helvetica,sans-Serif" font-size="10.00">oksdbinterfaces/Schema.hpp</text>
</a>
</g>
</g>
<!-- Node1&#45;&gt;Node3 -->
<g id="edge2_Node000001_Node000003" class="edge">
<title>Node1&#45;&gt;Node3</title>
<g id="a_edge2_Node000001_Node000003"><a xlink:title=" ">
<path fill="none" stroke="#63b8ff" d="M108.83,-110.2C117.4,-101.92 128.18,-91.52 137.14,-82.87"/>
<polygon fill="#63b8ff" stroke="#63b8ff" points="139.49,-85.47 144.26,-76 134.63,-80.43 139.49,-85.47"/>
</a>
</g>
</g>
<!-- Node4 -->
<g id="Node000004" class="node">
<title>Node4</title>
<g id="a_Node000004"><a xlink:title=" ">
<polygon fill="#e0e0e0" stroke="#999999" points="114.75,-19.25 74.75,-19.25 74.75,0 114.75,0 114.75,-19.25"/>
<text text-anchor="middle" x="94.75" y="-5.75" font-family="Helvetica,sans-Serif" font-size="10.00">string</text>
</a>
</g>
</g>
<!-- Node3&#45;&gt;Node4 -->
<g id="edge3_Node000003_Node000004" class="edge">
<title>Node3&#45;&gt;Node4</title>
<g id="a_edge3_Node000003_Node000004"><a xlink:title=" ">
<path fill="none" stroke="#63b8ff" d="M144.57,-54.84C135.99,-47.22 123.48,-36.12 113.15,-26.95"/>
<polygon fill="#63b8ff" stroke="#63b8ff" points="115.71,-24.55 105.91,-20.53 111.07,-29.79 115.71,-24.55"/>
</a>
</g>
</g>
<!-- Node5 -->
<g id="Node000005" class="node">
<title>Node5</title>
<g id="a_Node000005"><a xlink:title=" ">
<polygon fill="#e0e0e0" stroke="#999999" points="176.25,-19.25 133.25,-19.25 133.25,0 176.25,0 176.25,-19.25"/>
<text text-anchor="middle" x="154.75" y="-5.75" font-family="Helvetica,sans-Serif" font-size="10.00">vector</text>
</a>
</g>
</g>
<!-- Node3&#45;&gt;Node5 -->
<g id="edge4_Node000003_Node000005" class="edge">
<title>Node3&#45;&gt;Node5</title>
<g id="a_edge4_Node000003_Node000005"><a xlink:title=" ">
<path fill="none" stroke="#63b8ff" d="M154.75,-55.08C154.75,-48.57 154.75,-39.42 154.75,-31.12"/>
<polygon fill="#63b8ff" stroke="#63b8ff" points="158.25,-31.12 154.75,-21.12 151.25,-31.12 158.25,-31.12"/>
</a>
</g>
</g>
<!-- Node6 -->
<g id="Node000006" class="node">
<title>Node6</title>
<g id="a_Node000006"><a xlink:title=" ">
<polygon fill="#e0e0e0" stroke="#999999" points="247.5,-19.25 194,-19.25 194,0 247.5,0 247.5,-19.25"/>
<text text-anchor="middle" x="220.75" y="-5.75" font-family="Helvetica,sans-Serif" font-size="10.00">iostream</text>
</a>
</g>
</g>
<!-- Node3&#45;&gt;Node6 -->
<g id="edge5_Node000003_Node000006" class="edge">
<title>Node3&#45;&gt;Node6</title>
<g id="a_edge5_Node000003_Node000006"><a xlink:title=" ">
<path fill="none" stroke="#63b8ff" d="M165.95,-54.84C175.49,-47.15 189.42,-35.9 200.86,-26.68"/>
<polygon fill="#63b8ff" stroke="#63b8ff" points="202.96,-29.48 208.54,-20.48 198.56,-24.03 202.96,-29.48"/>
</a>
</g>
</g>
</g>
</svg>
