<?xml version="1.0" encoding="UTF-8" standalone="no"?>
<!DOCTYPE svg PUBLIC "-//W3C//DTD SVG 1.1//EN"
 "http://www.w3.org/Graphics/SVG/1.1/DTD/svg11.dtd">
<!-- Generated by graphviz version 9.0.0 (20230911.1827)
 -->
<!-- Title: sourcecode/triggeralgs/include/triggeralgs/TAWindow.hpp Pages: 1 -->
<svg width="561pt" height="205pt"
 viewBox="0.00 0.00 560.62 205.25" xmlns="http://www.w3.org/2000/svg" xmlns:xlink="http://www.w3.org/1999/xlink">
<g id="graph0" class="graph" transform="scale(1 1) rotate(0) translate(4 201.25)">
<title>sourcecode/triggeralgs/include/triggeralgs/TAWindow.hpp</title>
<!-- Node1 -->
<g id="Node000001" class="node">
<title>Node1</title>
<g id="a_Node000001"><a xlink:title=" ">
<polygon fill="#999999" stroke="#666666" points="395.5,-197.25 229.5,-197.25 229.5,-166.75 395.5,-166.75 395.5,-197.25"/>
<text text-anchor="start" x="237.5" y="-183.75" font-family="Helvetica,sans-Serif" font-size="10.00">sourcecode/triggeralgs</text>
<text text-anchor="middle" x="312.5" y="-172.5" font-family="Helvetica,sans-Serif" font-size="10.00">/include/triggeralgs/TAWindow.hpp</text>
</a>
</g>
</g>
<!-- Node2 -->
<g id="Node000002" class="node">
<title>Node2</title>
<g id="a_Node000002"><a xlink:href="TriggerCandidateMakerHorizontalMuon_8hpp.html" target="_top" xlink:title=" ">
<polygon fill="white" stroke="#666666" points="187,-130.75 0,-130.75 0,-77.75 187,-77.75 187,-130.75"/>
<text text-anchor="start" x="8" y="-117.25" font-family="Helvetica,sans-Serif" font-size="10.00">sourcecode/triggeralgs</text>
<text text-anchor="start" x="8" y="-106" font-family="Helvetica,sans-Serif" font-size="10.00">/include/triggeralgs/Horizontal</text>
<text text-anchor="start" x="8" y="-94.75" font-family="Helvetica,sans-Serif" font-size="10.00">Muon/TriggerCandidateMakerHorizontal</text>
<text text-anchor="middle" x="93.5" y="-83.5" font-family="Helvetica,sans-Serif" font-size="10.00">Muon.hpp</text>
</a>
</g>
</g>
<!-- Node1&#45;&gt;Node2 -->
<g id="edge1_Node000001_Node000002" class="edge">
<title>Node1&#45;&gt;Node2</title>
<g id="a_edge1_Node000001_Node000002"><a xlink:title=" ">
<path fill="none" stroke="#63b8ff" d="M259.48,-162.66C232.1,-153.19 198.23,-141.47 168.24,-131.1"/>
<polygon fill="#63b8ff" stroke="#63b8ff" points="257.99,-165.85 268.58,-165.81 260.28,-159.23 257.99,-165.85"/>
</a>
</g>
</g>
<!-- Node4 -->
<g id="Node000004" class="node">
<title>Node4</title>
<g id="a_Node000004"><a xlink:href="TriggerCandidateMakerPlaneCoincidence_8hpp.html" target="_top" xlink:title=" ">
<polygon fill="white" stroke="#666666" points="420.25,-125.12 204.75,-125.12 204.75,-83.38 420.25,-83.38 420.25,-125.12"/>
<text text-anchor="start" x="212.75" y="-111.62" font-family="Helvetica,sans-Serif" font-size="10.00">sourcecode/triggeralgs</text>
<text text-anchor="start" x="212.75" y="-100.38" font-family="Helvetica,sans-Serif" font-size="10.00">/include/triggeralgs/PlaneCoincidence</text>
<text text-anchor="middle" x="312.5" y="-89.12" font-family="Helvetica,sans-Serif" font-size="10.00">/TriggerCandidateMakerPlaneCoincidence.hpp</text>
</a>
</g>
</g>
<!-- Node1&#45;&gt;Node4 -->
<g id="edge3_Node000001_Node000004" class="edge">
<title>Node1&#45;&gt;Node4</title>
<g id="a_edge3_Node000001_Node000004"><a xlink:title=" ">
<path fill="none" stroke="#63b8ff" d="M312.5,-155.01C312.5,-145.38 312.5,-134.59 312.5,-125.54"/>
<polygon fill="#63b8ff" stroke="#63b8ff" points="309,-154.88 312.5,-164.88 316,-154.88 309,-154.88"/>
</a>
</g>
</g>
<!-- Node6 -->
<g id="Node000006" class="node">
<title>Node6</title>
<g id="a_Node000006"><a xlink:href="TAWindow_8cpp.html" target="_top" xlink:title=" ">
<polygon fill="white" stroke="#666666" points="552.62,-119.5 438.38,-119.5 438.38,-89 552.62,-89 552.62,-119.5"/>
<text text-anchor="start" x="446.38" y="-106" font-family="Helvetica,sans-Serif" font-size="10.00">sourcecode/triggeralgs</text>
<text text-anchor="middle" x="495.5" y="-94.75" font-family="Helvetica,sans-Serif" font-size="10.00">/src/TAWindow.cpp</text>
</a>
</g>
</g>
<!-- Node1&#45;&gt;Node6 -->
<g id="edge5_Node000001_Node000006" class="edge">
<title>Node1&#45;&gt;Node6</title>
<g id="a_edge5_Node000001_Node000006"><a xlink:title=" ">
<path fill="none" stroke="#63b8ff" d="M358.07,-162.14C389.59,-149.09 430.93,-131.98 460.01,-119.94"/>
<polygon fill="#63b8ff" stroke="#63b8ff" points="357.08,-158.76 349.18,-165.82 359.76,-165.22 357.08,-158.76"/>
</a>
</g>
</g>
<!-- Node3 -->
<g id="Node000003" class="node">
<title>Node3</title>
<g id="a_Node000003"><a xlink:href="TriggerCandidateMakerHorizontalMuon_8cpp.html" target="_top" xlink:title=" ">
<polygon fill="white" stroke="#666666" points="183.25,-41.75 3.75,-41.75 3.75,0 183.25,0 183.25,-41.75"/>
<text text-anchor="start" x="11.75" y="-28.25" font-family="Helvetica,sans-Serif" font-size="10.00">sourcecode/triggeralgs</text>
<text text-anchor="start" x="11.75" y="-17" font-family="Helvetica,sans-Serif" font-size="10.00">/src/TriggerCandidateMakerHorizontal</text>
<text text-anchor="middle" x="93.5" y="-5.75" font-family="Helvetica,sans-Serif" font-size="10.00">Muon.cpp</text>
</a>
</g>
</g>
<!-- Node2&#45;&gt;Node3 -->
<g id="edge2_Node000002_Node000003" class="edge">
<title>Node2&#45;&gt;Node3</title>
<g id="a_edge2_Node000002_Node000003"><a xlink:title=" ">
<path fill="none" stroke="#63b8ff" d="M93.5,-66.08C93.5,-57.8 93.5,-49.33 93.5,-42.04"/>
<polygon fill="#63b8ff" stroke="#63b8ff" points="90,-65.99 93.5,-75.99 97,-65.99 90,-65.99"/>
</a>
</g>
</g>
<!-- Node5 -->
<g id="Node000005" class="node">
<title>Node5</title>
<g id="a_Node000005"><a xlink:href="TriggerCandidateMakerPlaneCoincidence_8cpp.html" target="_top" xlink:title=" ">
<polygon fill="white" stroke="#666666" points="392.88,-41.75 232.12,-41.75 232.12,0 392.88,0 392.88,-41.75"/>
<text text-anchor="start" x="240.12" y="-28.25" font-family="Helvetica,sans-Serif" font-size="10.00">sourcecode/triggeralgs</text>
<text text-anchor="start" x="240.12" y="-17" font-family="Helvetica,sans-Serif" font-size="10.00">/src/TriggerCandidateMakerPlane</text>
<text text-anchor="middle" x="312.5" y="-5.75" font-family="Helvetica,sans-Serif" font-size="10.00">Coincidence.cpp</text>
</a>
</g>
</g>
<!-- Node4&#45;&gt;Node5 -->
<g id="edge4_Node000004_Node000005" class="edge">
<title>Node4&#45;&gt;Node5</title>
<g id="a_edge4_Node000004_Node000005"><a xlink:title=" ">
<path fill="none" stroke="#63b8ff" d="M312.5,-71.89C312.5,-61.87 312.5,-51.05 312.5,-42.04"/>
<polygon fill="#63b8ff" stroke="#63b8ff" points="309,-71.62 312.5,-81.62 316,-71.62 309,-71.62"/>
</a>
</g>
</g>
</g>
</svg>
