<?xml version="1.0" encoding="UTF-8" standalone="no"?>
<!DOCTYPE svg PUBLIC "-//W3C//DTD SVG 1.1//EN"
 "http://www.w3.org/Graphics/SVG/1.1/DTD/svg11.dtd">
<!-- Generated by graphviz version 9.0.0 (20230911.1827)
 -->
<!-- Title: sourcecode/timing/include/timing/TimestampGeneratorNode.hpp Pages: 1 -->
<svg width="2373pt" height="504pt"
 viewBox="0.00 0.00 2373.25 504.00" xmlns="http://www.w3.org/2000/svg" xmlns:xlink="http://www.w3.org/1999/xlink">
<g id="graph0" class="graph" transform="scale(1 1) rotate(0) translate(4 500)">
<title>sourcecode/timing/include/timing/TimestampGeneratorNode.hpp</title>
<!-- Node1 -->
<g id="Node000001" class="node">
<title>Node1</title>
<g id="a_Node000001"><a xlink:title=" ">
<polygon fill="#999999" stroke="#666666" points="1971.62,-496 1790.62,-496 1790.62,-465.5 1971.62,-465.5 1971.62,-496"/>
<text text-anchor="start" x="1798.62" y="-482.5" font-family="Helvetica,sans-Serif" font-size="10.00">sourcecode/timing/include</text>
<text text-anchor="middle" x="1881.12" y="-471.25" font-family="Helvetica,sans-Serif" font-size="10.00">/timing/TimestampGeneratorNode.hpp</text>
</a>
</g>
</g>
<!-- Node2 -->
<g id="Node000002" class="node">
<title>Node2</title>
<g id="a_Node000002"><a xlink:href="FLCmdGeneratorNode_8hpp.html" target="_top" xlink:title=" ">
<polygon fill="white" stroke="#666666" points="1802.38,-429.5 1637.88,-429.5 1637.88,-399 1802.38,-399 1802.38,-429.5"/>
<text text-anchor="start" x="1645.88" y="-416" font-family="Helvetica,sans-Serif" font-size="10.00">sourcecode/timing/include</text>
<text text-anchor="middle" x="1720.12" y="-404.75" font-family="Helvetica,sans-Serif" font-size="10.00">/timing/FLCmdGeneratorNode.hpp</text>
</a>
</g>
</g>
<!-- Node1&#45;&gt;Node2 -->
<g id="edge1_Node000001_Node000002" class="edge">
<title>Node1&#45;&gt;Node2</title>
<g id="a_edge1_Node000001_Node000002"><a xlink:title=" ">
<path fill="none" stroke="#63b8ff" d="M1834.03,-460.88C1809.4,-451.01 1779.69,-439.11 1756.79,-429.94"/>
<polygon fill="#63b8ff" stroke="#63b8ff" points="1832.6,-464.08 1843.19,-464.55 1835.21,-457.58 1832.6,-464.08"/>
</a>
</g>
</g>
<!-- Node7 -->
<g id="Node000007" class="node">
<title>Node7</title>
<g id="a_Node000007"><a xlink:href="MasterNodeInterface_8hpp.html" target="_top" xlink:title=" ">
<polygon fill="white" stroke="#666666" points="1450,-363 1292.25,-363 1292.25,-332.5 1450,-332.5 1450,-363"/>
<text text-anchor="start" x="1300.25" y="-349.5" font-family="Helvetica,sans-Serif" font-size="10.00">sourcecode/timing/include</text>
<text text-anchor="middle" x="1371.12" y="-338.25" font-family="Helvetica,sans-Serif" font-size="10.00">/timing/MasterNodeInterface.hpp</text>
</a>
</g>
</g>
<!-- Node1&#45;&gt;Node7 -->
<g id="edge54_Node000001_Node000007" class="edge">
<title>Node1&#45;&gt;Node7</title>
<g id="a_edge54_Node000001_Node000007"><a xlink:title=" ">
<path fill="none" stroke="#63b8ff" d="M1784.34,-462.95C1737.24,-454.14 1679.94,-442.48 1629.12,-429.5 1552.05,-409.81 1463.93,-380.8 1413.19,-363.43"/>
<polygon fill="#63b8ff" stroke="#63b8ff" points="1783.51,-466.35 1793.98,-464.74 1784.78,-459.47 1783.51,-466.35"/>
</a>
</g>
</g>
<!-- Node35 -->
<g id="Node000035" class="node">
<title>Node35</title>
<g id="a_Node000035"><a xlink:href="PDIFLCmdGeneratorNode_8hpp.html" target="_top" xlink:title=" ">
<polygon fill="white" stroke="#666666" points="1971.62,-363 1790.62,-363 1790.62,-332.5 1971.62,-332.5 1971.62,-363"/>
<text text-anchor="start" x="1798.62" y="-349.5" font-family="Helvetica,sans-Serif" font-size="10.00">sourcecode/timing/include</text>
<text text-anchor="middle" x="1881.12" y="-338.25" font-family="Helvetica,sans-Serif" font-size="10.00">/timing/PDIFLCmdGeneratorNode.hpp</text>
</a>
</g>
</g>
<!-- Node1&#45;&gt;Node35 -->
<g id="edge55_Node000001_Node000035" class="edge">
<title>Node1&#45;&gt;Node35</title>
<g id="a_edge55_Node000001_Node000035"><a xlink:title=" ">
<path fill="none" stroke="#63b8ff" d="M1881.12,-453.93C1881.12,-426.84 1881.12,-385.21 1881.12,-363.33"/>
<polygon fill="#63b8ff" stroke="#63b8ff" points="1877.63,-453.72 1881.13,-463.72 1884.63,-453.72 1877.63,-453.72"/>
</a>
</g>
</g>
<!-- Node42 -->
<g id="Node000042" class="node">
<title>Node42</title>
<g id="a_Node000042"><a xlink:href="SpillInterfaceNode_8hpp.html" target="_top" xlink:title=" ">
<polygon fill="white" stroke="#666666" points="2088.38,-429.5 1941.88,-429.5 1941.88,-399 2088.38,-399 2088.38,-429.5"/>
<text text-anchor="start" x="1949.88" y="-416" font-family="Helvetica,sans-Serif" font-size="10.00">sourcecode/timing/include</text>
<text text-anchor="middle" x="2015.12" y="-404.75" font-family="Helvetica,sans-Serif" font-size="10.00">/timing/SpillInterfaceNode.hpp</text>
</a>
</g>
</g>
<!-- Node1&#45;&gt;Node42 -->
<g id="edge56_Node000001_Node000042" class="edge">
<title>Node1&#45;&gt;Node42</title>
<g id="a_edge56_Node000001_Node000042"><a xlink:title=" ">
<path fill="none" stroke="#63b8ff" d="M1921.75,-460.2C1942.05,-450.43 1966.19,-438.81 1984.84,-429.83"/>
<polygon fill="#63b8ff" stroke="#63b8ff" points="1920.39,-456.97 1912.9,-464.46 1923.42,-463.27 1920.39,-456.97"/>
</a>
</g>
</g>
<!-- Node44 -->
<g id="Node000044" class="node">
<title>Node44</title>
<g id="a_Node000044"><a xlink:href="TimestampGeneratorNode_8cpp.html" target="_top" xlink:title=" ">
<polygon fill="white" stroke="#666666" points="2258,-429.5 2106.25,-429.5 2106.25,-399 2258,-399 2258,-429.5"/>
<text text-anchor="start" x="2114.25" y="-416" font-family="Helvetica,sans-Serif" font-size="10.00">sourcecode/timing/src</text>
<text text-anchor="middle" x="2182.12" y="-404.75" font-family="Helvetica,sans-Serif" font-size="10.00">/TimestampGeneratorNode.cpp</text>
</a>
</g>
</g>
<!-- Node1&#45;&gt;Node44 -->
<g id="edge59_Node000001_Node000044" class="edge">
<title>Node1&#45;&gt;Node44</title>
<g id="a_edge59_Node000001_Node000044"><a xlink:title=" ">
<path fill="none" stroke="#63b8ff" d="M1960.98,-462.64C2008.47,-452.46 2068.11,-439.68 2113.48,-429.96"/>
<polygon fill="#63b8ff" stroke="#63b8ff" points="1960.33,-459.2 1951.28,-464.72 1961.79,-466.04 1960.33,-459.2"/>
</a>
</g>
</g>
<!-- Node3 -->
<g id="Node000003" class="node">
<title>Node3</title>
<g id="a_Node000003"><a xlink:href="MasterNode_8hpp.html" target="_top" xlink:title=" ">
<polygon fill="white" stroke="#666666" points="1594.75,-296.5 1465.5,-296.5 1465.5,-266 1594.75,-266 1594.75,-296.5"/>
<text text-anchor="start" x="1473.5" y="-283" font-family="Helvetica,sans-Serif" font-size="10.00">sourcecode/timing/include</text>
<text text-anchor="middle" x="1530.12" y="-271.75" font-family="Helvetica,sans-Serif" font-size="10.00">/timing/MasterNode.hpp</text>
</a>
</g>
</g>
<!-- Node2&#45;&gt;Node3 -->
<g id="edge2_Node000002_Node000003" class="edge">
<title>Node2&#45;&gt;Node3</title>
<g id="a_edge2_Node000002_Node000003"><a xlink:title=" ">
<path fill="none" stroke="#63b8ff" d="M1737.36,-389.17C1747.48,-371.84 1755.98,-348.74 1743.12,-332.5 1738.4,-326.53 1656.13,-308.35 1595.24,-295.58"/>
<polygon fill="#63b8ff" stroke="#63b8ff" points="1734.59,-387.01 1732.19,-397.33 1740.5,-390.76 1734.59,-387.01"/>
</a>
</g>
</g>
<!-- Node2&#45;&gt;Node7 -->
<g id="edge6_Node000002_Node000007" class="edge">
<title>Node2&#45;&gt;Node7</title>
<g id="a_edge6_Node000002_Node000007"><a xlink:title=" ">
<path fill="none" stroke="#63b8ff" d="M1629.26,-396.46C1573.81,-386.21 1503.6,-373.23 1450.41,-363.4"/>
<polygon fill="#63b8ff" stroke="#63b8ff" points="1628.54,-399.88 1639.01,-398.26 1629.81,-393 1628.54,-399.88"/>
</a>
</g>
</g>
<!-- Node2&#45;&gt;Node35 -->
<g id="edge45_Node000002_Node000035" class="edge">
<title>Node2&#45;&gt;Node35</title>
<g id="a_edge45_Node000002_Node000035"><a xlink:title=" ">
<path fill="none" stroke="#63b8ff" d="M1767.22,-394.38C1791.85,-384.51 1821.56,-372.61 1844.46,-363.44"/>
<polygon fill="#63b8ff" stroke="#63b8ff" points="1766.04,-391.08 1758.06,-398.05 1768.65,-397.58 1766.04,-391.08"/>
</a>
</g>
</g>
<!-- Node40 -->
<g id="Node000040" class="node">
<title>Node40</title>
<g id="a_Node000040"><a xlink:href="FLCmdGeneratorNode_8cpp.html" target="_top" xlink:title=" ">
<polygon fill="white" stroke="#666666" points="1603.75,-363 1468.5,-363 1468.5,-332.5 1603.75,-332.5 1603.75,-363"/>
<text text-anchor="start" x="1476.5" y="-349.5" font-family="Helvetica,sans-Serif" font-size="10.00">sourcecode/timing/src</text>
<text text-anchor="middle" x="1536.12" y="-338.25" font-family="Helvetica,sans-Serif" font-size="10.00">/FLCmdGeneratorNode.cpp</text>
</a>
</g>
</g>
<!-- Node2&#45;&gt;Node40 -->
<g id="edge52_Node000002_Node000040" class="edge">
<title>Node2&#45;&gt;Node40</title>
<g id="a_edge52_Node000002_Node000040"><a xlink:title=" ">
<path fill="none" stroke="#63b8ff" d="M1667.81,-394.91C1639.37,-384.94 1604.67,-372.78 1578.03,-363.44"/>
<polygon fill="#63b8ff" stroke="#63b8ff" points="1666.35,-398.11 1676.94,-398.11 1668.67,-391.5 1666.35,-398.11"/>
</a>
</g>
</g>
<!-- Node41 -->
<g id="Node000041" class="node">
<title>Node41</title>
<g id="a_Node000041"><a xlink:href="HSINode_8cpp.html" target="_top" xlink:title=" ">
<polygon fill="white" stroke="#666666" points="1734.12,-363 1622.12,-363 1622.12,-332.5 1734.12,-332.5 1734.12,-363"/>
<text text-anchor="start" x="1630.12" y="-349.5" font-family="Helvetica,sans-Serif" font-size="10.00">sourcecode/timing/src</text>
<text text-anchor="middle" x="1678.12" y="-338.25" font-family="Helvetica,sans-Serif" font-size="10.00">/HSINode.cpp</text>
</a>
</g>
</g>
<!-- Node2&#45;&gt;Node41 -->
<g id="edge53_Node000002_Node000041" class="edge">
<title>Node2&#45;&gt;Node41</title>
<g id="a_edge53_Node000002_Node000041"><a xlink:title=" ">
<path fill="none" stroke="#63b8ff" d="M1704.34,-389.01C1698.71,-380.37 1692.55,-370.91 1687.62,-363.33"/>
<polygon fill="#63b8ff" stroke="#63b8ff" points="1701.38,-390.88 1709.77,-397.35 1707.24,-387.06 1701.38,-390.88"/>
</a>
</g>
</g>
<!-- Node4 -->
<g id="Node000004" class="node">
<title>Node4</title>
<g id="a_Node000004"><a xlink:href="definitions_8cpp.html" target="_top" xlink:title=" ">
<polygon fill="white" stroke="#666666" points="1616,-230 1476.25,-230 1476.25,-199.5 1616,-199.5 1616,-230"/>
<text text-anchor="start" x="1484.25" y="-216.5" font-family="Helvetica,sans-Serif" font-size="10.00">sourcecode/timing/pybindsrc</text>
<text text-anchor="middle" x="1546.12" y="-205.25" font-family="Helvetica,sans-Serif" font-size="10.00">/definitions.cpp</text>
</a>
</g>
</g>
<!-- Node3&#45;&gt;Node4 -->
<g id="edge3_Node000003_Node000004" class="edge">
<title>Node3&#45;&gt;Node4</title>
<g id="a_edge3_Node000003_Node000004"><a xlink:title=" ">
<path fill="none" stroke="#63b8ff" d="M1536.49,-254.59C1538.54,-246.34 1540.73,-237.49 1542.51,-230.33"/>
<polygon fill="#63b8ff" stroke="#63b8ff" points="1533.13,-253.6 1534.12,-264.14 1539.92,-255.28 1533.13,-253.6"/>
</a>
</g>
</g>
<!-- Node5 -->
<g id="Node000005" class="node">
<title>Node5</title>
<g id="a_Node000005"><a xlink:href="master_8cpp.html" target="_top" xlink:title=" ">
<polygon fill="white" stroke="#666666" points="1774,-230 1634.25,-230 1634.25,-199.5 1774,-199.5 1774,-230"/>
<text text-anchor="start" x="1642.25" y="-216.5" font-family="Helvetica,sans-Serif" font-size="10.00">sourcecode/timing/pybindsrc</text>
<text text-anchor="middle" x="1704.12" y="-205.25" font-family="Helvetica,sans-Serif" font-size="10.00">/master.cpp</text>
</a>
</g>
</g>
<!-- Node3&#45;&gt;Node5 -->
<g id="edge4_Node000003_Node000005" class="edge">
<title>Node3&#45;&gt;Node5</title>
<g id="a_edge4_Node000003_Node000005"><a xlink:title=" ">
<path fill="none" stroke="#63b8ff" d="M1580.31,-261.65C1607.07,-251.73 1639.53,-239.7 1664.5,-230.44"/>
<polygon fill="#63b8ff" stroke="#63b8ff" points="1579.19,-258.33 1571.03,-265.09 1581.62,-264.89 1579.19,-258.33"/>
</a>
</g>
</g>
<!-- Node6 -->
<g id="Node000006" class="node">
<title>Node6</title>
<g id="a_Node000006"><a xlink:href="MasterNode_8cpp.html" target="_top" xlink:title=" ">
<polygon fill="white" stroke="#666666" points="1458.12,-230 1346.12,-230 1346.12,-199.5 1458.12,-199.5 1458.12,-230"/>
<text text-anchor="start" x="1354.12" y="-216.5" font-family="Helvetica,sans-Serif" font-size="10.00">sourcecode/timing/src</text>
<text text-anchor="middle" x="1402.12" y="-205.25" font-family="Helvetica,sans-Serif" font-size="10.00">/MasterNode.cpp</text>
</a>
</g>
</g>
<!-- Node3&#45;&gt;Node6 -->
<g id="edge5_Node000003_Node000006" class="edge">
<title>Node3&#45;&gt;Node6</title>
<g id="a_edge5_Node000003_Node000006"><a xlink:title=" ">
<path fill="none" stroke="#63b8ff" d="M1491.06,-260.56C1471.72,-250.82 1448.79,-239.26 1431.06,-230.33"/>
<polygon fill="#63b8ff" stroke="#63b8ff" points="1489.22,-263.56 1499.73,-264.93 1492.37,-257.31 1489.22,-263.56"/>
</a>
</g>
</g>
<!-- Node7&#45;&gt;Node3 -->
<g id="edge39_Node000007_Node000003" class="edge">
<title>Node7&#45;&gt;Node3</title>
<g id="a_edge39_Node000007_Node000003"><a xlink:title=" ">
<path fill="none" stroke="#63b8ff" d="M1417.64,-327.88C1441.96,-318.01 1471.3,-306.11 1493.91,-296.94"/>
<polygon fill="#63b8ff" stroke="#63b8ff" points="1416.56,-324.54 1408.61,-331.54 1419.19,-331.03 1416.56,-324.54"/>
</a>
</g>
</g>
<!-- Node8 -->
<g id="Node000008" class="node">
<title>Node8</title>
<g id="a_Node000008"><a xlink:href="MasterDesignInterface_8hpp.html" target="_top" xlink:title=" ">
<polygon fill="white" stroke="#666666" points="1230.38,-296.5 1065.88,-296.5 1065.88,-266 1230.38,-266 1230.38,-296.5"/>
<text text-anchor="start" x="1073.88" y="-283" font-family="Helvetica,sans-Serif" font-size="10.00">sourcecode/timing/include</text>
<text text-anchor="middle" x="1148.12" y="-271.75" font-family="Helvetica,sans-Serif" font-size="10.00">/timing/MasterDesignInterface.hpp</text>
</a>
</g>
</g>
<!-- Node7&#45;&gt;Node8 -->
<g id="edge7_Node000007_Node000008" class="edge">
<title>Node7&#45;&gt;Node8</title>
<g id="a_edge7_Node000007_Node000008"><a xlink:title=" ">
<path fill="none" stroke="#63b8ff" d="M1309.26,-328.85C1274.46,-318.79 1231.57,-306.39 1198.79,-296.9"/>
<polygon fill="#63b8ff" stroke="#63b8ff" points="1308.21,-332.2 1318.79,-331.61 1310.16,-325.47 1308.21,-332.2"/>
</a>
</g>
</g>
<!-- Node32 -->
<g id="Node000032" class="node">
<title>Node32</title>
<g id="a_Node000032"><a xlink:href="PDIMasterNode_8hpp.html" target="_top" xlink:title=" ">
<polygon fill="white" stroke="#666666" points="1787.12,-296.5 1651.12,-296.5 1651.12,-266 1787.12,-266 1787.12,-296.5"/>
<text text-anchor="start" x="1659.12" y="-283" font-family="Helvetica,sans-Serif" font-size="10.00">sourcecode/timing/include</text>
<text text-anchor="middle" x="1719.12" y="-271.75" font-family="Helvetica,sans-Serif" font-size="10.00">/timing/PDIMasterNode.hpp</text>
</a>
</g>
</g>
<!-- Node7&#45;&gt;Node32 -->
<g id="edge40_Node000007_Node000032" class="edge">
<title>Node7&#45;&gt;Node32</title>
<g id="a_edge40_Node000007_Node000032"><a xlink:title=" ">
<path fill="none" stroke="#63b8ff" d="M1461.31,-330.04C1520.46,-319.07 1596.59,-304.96 1650.75,-294.92"/>
<polygon fill="#63b8ff" stroke="#63b8ff" points="1460.77,-326.57 1451.58,-331.84 1462.05,-333.46 1460.77,-326.57"/>
</a>
</g>
</g>
<!-- Node34 -->
<g id="Node000034" class="node">
<title>Node34</title>
<g id="a_Node000034"><a xlink:href="MasterNodeInterface_8cpp.html" target="_top" xlink:title=" ">
<polygon fill="white" stroke="#666666" points="1435.38,-296.5 1306.88,-296.5 1306.88,-266 1435.38,-266 1435.38,-296.5"/>
<text text-anchor="start" x="1314.88" y="-283" font-family="Helvetica,sans-Serif" font-size="10.00">sourcecode/timing/src</text>
<text text-anchor="middle" x="1371.12" y="-271.75" font-family="Helvetica,sans-Serif" font-size="10.00">/MasterNodeInterface.cpp</text>
</a>
</g>
</g>
<!-- Node7&#45;&gt;Node34 -->
<g id="edge44_Node000007_Node000034" class="edge">
<title>Node7&#45;&gt;Node34</title>
<g id="a_edge44_Node000007_Node000034"><a xlink:title=" ">
<path fill="none" stroke="#63b8ff" d="M1371.12,-320.81C1371.12,-312.64 1371.12,-303.91 1371.12,-296.83"/>
<polygon fill="#63b8ff" stroke="#63b8ff" points="1367.63,-320.6 1371.13,-330.6 1374.63,-320.6 1367.63,-320.6"/>
</a>
</g>
</g>
<!-- Node9 -->
<g id="Node000009" class="node">
<title>Node9</title>
<g id="a_Node000009"><a xlink:href="MasterDesign_8hpp.html" target="_top" xlink:title=" ">
<polygon fill="white" stroke="#666666" points="1138.75,-230 1009.5,-230 1009.5,-199.5 1138.75,-199.5 1138.75,-230"/>
<text text-anchor="start" x="1017.5" y="-216.5" font-family="Helvetica,sans-Serif" font-size="10.00">sourcecode/timing/include</text>
<text text-anchor="middle" x="1074.12" y="-205.25" font-family="Helvetica,sans-Serif" font-size="10.00">/timing/MasterDesign.hpp</text>
</a>
</g>
</g>
<!-- Node8&#45;&gt;Node9 -->
<g id="edge8_Node000008_Node000009" class="edge">
<title>Node8&#45;&gt;Node9</title>
<g id="a_edge8_Node000008_Node000009"><a xlink:title=" ">
<path fill="none" stroke="#63b8ff" d="M1122.87,-258.24C1112.3,-249.03 1100.3,-238.56 1090.85,-230.33"/>
<polygon fill="#63b8ff" stroke="#63b8ff" points="1120.35,-260.69 1130.19,-264.62 1124.95,-255.41 1120.35,-260.69"/>
</a>
</g>
</g>
<!-- Node29 -->
<g id="Node000029" class="node">
<title>Node29</title>
<g id="a_Node000029"><a xlink:href="OverlordDesignInterface_8hpp.html" target="_top" xlink:title=" ">
<polygon fill="white" stroke="#666666" points="1327.75,-230 1156.5,-230 1156.5,-199.5 1327.75,-199.5 1327.75,-230"/>
<text text-anchor="start" x="1164.5" y="-216.5" font-family="Helvetica,sans-Serif" font-size="10.00">sourcecode/timing/include</text>
<text text-anchor="middle" x="1242.12" y="-205.25" font-family="Helvetica,sans-Serif" font-size="10.00">/timing/OverlordDesignInterface.hpp</text>
</a>
</g>
</g>
<!-- Node8&#45;&gt;Node29 -->
<g id="edge34_Node000008_Node000029" class="edge">
<title>Node8&#45;&gt;Node29</title>
<g id="a_edge34_Node000008_Node000029"><a xlink:title=" ">
<path fill="none" stroke="#63b8ff" d="M1178.6,-259.34C1192.41,-249.87 1208.4,-238.89 1220.88,-230.33"/>
<polygon fill="#63b8ff" stroke="#63b8ff" points="1176.97,-256.21 1170.7,-264.76 1180.93,-261.99 1176.97,-256.21"/>
</a>
</g>
</g>
<!-- Node31 -->
<g id="Node000031" class="node">
<title>Node31</title>
<g id="a_Node000031"><a xlink:href="TimingHardwareManager_8hpp.html" target="_top" xlink:title=" ">
<polygon fill="white" stroke="#666666" points="380.25,-163.5 218,-163.5 218,-133 380.25,-133 380.25,-163.5"/>
<text text-anchor="start" x="226" y="-150" font-family="Helvetica,sans-Serif" font-size="10.00">sourcecode/timinglibs</text>
<text text-anchor="middle" x="299.12" y="-138.75" font-family="Helvetica,sans-Serif" font-size="10.00">/src/TimingHardwareManager.hpp</text>
</a>
</g>
</g>
<!-- Node8&#45;&gt;Node31 -->
<g id="edge37_Node000008_Node000031" class="edge">
<title>Node8&#45;&gt;Node31</title>
<g id="a_edge37_Node000008_Node000031"><a xlink:title=" ">
<path fill="none" stroke="#63b8ff" d="M1054.3,-265.77C886.75,-239.92 538.86,-186.24 380.63,-161.83"/>
<polygon fill="#63b8ff" stroke="#63b8ff" points="1053.65,-269.21 1064.07,-267.28 1054.72,-262.3 1053.65,-269.21"/>
</a>
</g>
</g>
<!-- Node10 -->
<g id="Node000010" class="node">
<title>Node10</title>
<g id="a_Node000010"><a xlink:href="BoreasDesign_8hpp.html" target="_top" xlink:title=" ">
<polygon fill="white" stroke="#666666" points="985.75,-163.5 856.5,-163.5 856.5,-133 985.75,-133 985.75,-163.5"/>
<text text-anchor="start" x="864.5" y="-150" font-family="Helvetica,sans-Serif" font-size="10.00">sourcecode/timing/include</text>
<text text-anchor="middle" x="921.12" y="-138.75" font-family="Helvetica,sans-Serif" font-size="10.00">/timing/BoreasDesign.hpp</text>
</a>
</g>
</g>
<!-- Node9&#45;&gt;Node10 -->
<g id="edge9_Node000009_Node000010" class="edge">
<title>Node9&#45;&gt;Node10</title>
<g id="a_edge9_Node000009_Node000010"><a xlink:title=" ">
<path fill="none" stroke="#63b8ff" d="M1029.05,-194.75C1005.71,-184.91 977.63,-173.07 955.97,-163.94"/>
<polygon fill="#63b8ff" stroke="#63b8ff" points="1027.44,-197.87 1038.01,-198.53 1030.16,-191.42 1027.44,-197.87"/>
</a>
</g>
</g>
<!-- Node13 -->
<g id="Node000013" class="node">
<title>Node13</title>
<g id="a_Node000013"><a xlink:href="MasterMuxDesign_8hpp.html" target="_top" xlink:title=" ">
<polygon fill="white" stroke="#666666" points="667.25,-163.5 523,-163.5 523,-133 667.25,-133 667.25,-163.5"/>
<text text-anchor="start" x="531" y="-150" font-family="Helvetica,sans-Serif" font-size="10.00">sourcecode/timing/include</text>
<text text-anchor="middle" x="595.12" y="-138.75" font-family="Helvetica,sans-Serif" font-size="10.00">/timing/MasterMuxDesign.hpp</text>
</a>
</g>
</g>
<!-- Node9&#45;&gt;Node13 -->
<g id="edge12_Node000009_Node000013" class="edge">
<title>Node9&#45;&gt;Node13</title>
<g id="a_edge12_Node000009_Node000013"><a xlink:title=" ">
<path fill="none" stroke="#63b8ff" d="M997.71,-203.46C906.91,-191.23 756.52,-170.98 667.52,-159"/>
<polygon fill="#63b8ff" stroke="#63b8ff" points="997.15,-206.92 1007.53,-204.78 998.08,-199.98 997.15,-206.92"/>
</a>
</g>
</g>
<!-- Node24 -->
<g id="Node000024" class="node">
<title>Node24</title>
<g id="a_Node000024"><a xlink:href="OuroborosDesign_8hpp.html" target="_top" xlink:title=" ">
<polygon fill="white" stroke="#666666" points="1144.75,-163.5 1003.5,-163.5 1003.5,-133 1144.75,-133 1144.75,-163.5"/>
<text text-anchor="start" x="1011.5" y="-150" font-family="Helvetica,sans-Serif" font-size="10.00">sourcecode/timing/include</text>
<text text-anchor="middle" x="1074.12" y="-138.75" font-family="Helvetica,sans-Serif" font-size="10.00">/timing/OuroborosDesign.hpp</text>
</a>
</g>
</g>
<!-- Node9&#45;&gt;Node24 -->
<g id="edge27_Node000009_Node000024" class="edge">
<title>Node9&#45;&gt;Node24</title>
<g id="a_edge27_Node000009_Node000024"><a xlink:title=" ">
<path fill="none" stroke="#63b8ff" d="M1074.12,-187.81C1074.12,-179.64 1074.12,-170.91 1074.12,-163.83"/>
<polygon fill="#63b8ff" stroke="#63b8ff" points="1070.63,-187.6 1074.13,-197.6 1077.63,-187.6 1070.63,-187.6"/>
</a>
</g>
</g>
<!-- Node26 -->
<g id="Node000026" class="node">
<title>Node26</title>
<g id="a_Node000026"><a xlink:href="OverlordDesign_8hpp.html" target="_top" xlink:title=" ">
<polygon fill="white" stroke="#666666" points="1426.62,-163.5 1293.62,-163.5 1293.62,-133 1426.62,-133 1426.62,-163.5"/>
<text text-anchor="start" x="1301.62" y="-150" font-family="Helvetica,sans-Serif" font-size="10.00">sourcecode/timing/include</text>
<text text-anchor="middle" x="1360.12" y="-138.75" font-family="Helvetica,sans-Serif" font-size="10.00">/timing/OverlordDesign.hpp</text>
</a>
</g>
</g>
<!-- Node9&#45;&gt;Node26 -->
<g id="edge30_Node000009_Node000026" class="edge">
<title>Node9&#45;&gt;Node26</title>
<g id="a_edge30_Node000009_Node000026"><a xlink:title=" ">
<path fill="none" stroke="#63b8ff" d="M1150.23,-196.59C1195.35,-186.41 1251.94,-173.65 1294.99,-163.94"/>
<polygon fill="#63b8ff" stroke="#63b8ff" points="1149.48,-193.17 1140.5,-198.78 1151.02,-200 1149.48,-193.17"/>
</a>
</g>
</g>
<!-- Node28 -->
<g id="Node000028" class="node">
<title>Node28</title>
<g id="a_Node000028"><a xlink:href="MasterDesign_8cpp.html" target="_top" xlink:title=" ">
<polygon fill="white" stroke="#666666" points="1275.12,-163.5 1163.12,-163.5 1163.12,-133 1275.12,-133 1275.12,-163.5"/>
<text text-anchor="start" x="1171.12" y="-150" font-family="Helvetica,sans-Serif" font-size="10.00">sourcecode/timing/src</text>
<text text-anchor="middle" x="1219.12" y="-138.75" font-family="Helvetica,sans-Serif" font-size="10.00">/MasterDesign.cpp</text>
</a>
</g>
</g>
<!-- Node9&#45;&gt;Node28 -->
<g id="edge33_Node000009_Node000028" class="edge">
<title>Node9&#45;&gt;Node28</title>
<g id="a_edge33_Node000009_Node000028"><a xlink:title=" ">
<path fill="none" stroke="#63b8ff" d="M1117.44,-194.48C1139.45,-184.69 1165.76,-172.99 1186.1,-163.94"/>
<polygon fill="#63b8ff" stroke="#63b8ff" points="1116.12,-191.24 1108.41,-198.5 1118.97,-197.63 1116.12,-191.24"/>
</a>
</g>
</g>
<!-- Node11 -->
<g id="Node000011" class="node">
<title>Node11</title>
<g id="a_Node000011"><a xlink:href="top__designs_8cpp.html" target="_top" xlink:title=" ">
<polygon fill="white" stroke="#666666" points="955,-30.5 815.25,-30.5 815.25,0 955,0 955,-30.5"/>
<text text-anchor="start" x="823.25" y="-17" font-family="Helvetica,sans-Serif" font-size="10.00">sourcecode/timing/pybindsrc</text>
<text text-anchor="middle" x="885.12" y="-5.75" font-family="Helvetica,sans-Serif" font-size="10.00">/top_designs.cpp</text>
</a>
</g>
</g>
<!-- Node10&#45;&gt;Node11 -->
<g id="edge10_Node000010_Node000011" class="edge">
<title>Node10&#45;&gt;Node11</title>
<g id="a_edge10_Node000010_Node000011"><a xlink:title=" ">
<path fill="none" stroke="#63b8ff" d="M982.58,-127.58C996.27,-120.21 1009.09,-110.27 1017.12,-97 1024.14,-85.4 1024.82,-77.66 1017.12,-66.5 1002.86,-45.81 978.86,-33.63 955.2,-26.46"/>
<polygon fill="#63b8ff" stroke="#63b8ff" points="981.31,-124.3 973.87,-131.84 984.39,-130.59 981.31,-124.3"/>
</a>
</g>
</g>
<!-- Node12 -->
<g id="Node000012" class="node">
<title>Node12</title>
<g id="a_Node000012"><a xlink:href="BoreasDesign_8cpp.html" target="_top" xlink:title=" ">
<polygon fill="white" stroke="#666666" points="1008.12,-97 896.12,-97 896.12,-66.5 1008.12,-66.5 1008.12,-97"/>
<text text-anchor="start" x="904.12" y="-83.5" font-family="Helvetica,sans-Serif" font-size="10.00">sourcecode/timing/src</text>
<text text-anchor="middle" x="952.12" y="-72.25" font-family="Helvetica,sans-Serif" font-size="10.00">/BoreasDesign.cpp</text>
</a>
</g>
</g>
<!-- Node10&#45;&gt;Node12 -->
<g id="edge11_Node000010_Node000012" class="edge">
<title>Node10&#45;&gt;Node12</title>
<g id="a_edge11_Node000010_Node000012"><a xlink:title=" ">
<path fill="none" stroke="#63b8ff" d="M933.05,-122.44C937.13,-113.96 941.56,-104.74 945.12,-97.33"/>
<polygon fill="#63b8ff" stroke="#63b8ff" points="929.99,-120.72 928.82,-131.25 936.3,-123.75 929.99,-120.72"/>
</a>
</g>
</g>
<!-- Node14 -->
<g id="Node000014" class="node">
<title>Node14</title>
<g id="a_Node000014"><a xlink:href="FanoutDesign_8hpp.html" target="_top" xlink:title=" ">
<polygon fill="white" stroke="#666666" points="267.75,-97 138.5,-97 138.5,-66.5 267.75,-66.5 267.75,-97"/>
<text text-anchor="start" x="146.5" y="-83.5" font-family="Helvetica,sans-Serif" font-size="10.00">sourcecode/timing/include</text>
<text text-anchor="middle" x="203.12" y="-72.25" font-family="Helvetica,sans-Serif" font-size="10.00">/timing/FanoutDesign.hpp</text>
</a>
</g>
</g>
<!-- Node13&#45;&gt;Node14 -->
<g id="edge13_Node000013_Node000014" class="edge">
<title>Node13&#45;&gt;Node14</title>
<g id="a_edge13_Node000013_Node000014"><a xlink:title=" ">
<path fill="none" stroke="#63b8ff" d="M511.48,-134.93C447.05,-125.23 355.82,-111.05 276.12,-97 273.45,-96.53 270.73,-96.04 267.98,-95.54"/>
<polygon fill="#63b8ff" stroke="#63b8ff" points="510.88,-138.38 521.29,-136.4 511.92,-131.45 510.88,-138.38"/>
</a>
</g>
</g>
<!-- Node17 -->
<g id="Node000017" class="node">
<title>Node17</title>
<g id="a_Node000017"><a xlink:href="GaiaDesign_8hpp.html" target="_top" xlink:title=" ">
<polygon fill="white" stroke="#666666" points="877.75,-97 748.5,-97 748.5,-66.5 877.75,-66.5 877.75,-97"/>
<text text-anchor="start" x="756.5" y="-83.5" font-family="Helvetica,sans-Serif" font-size="10.00">sourcecode/timing/include</text>
<text text-anchor="middle" x="813.12" y="-72.25" font-family="Helvetica,sans-Serif" font-size="10.00">/timing/GaiaDesign.hpp</text>
</a>
</g>
</g>
<!-- Node13&#45;&gt;Node17 -->
<g id="edge17_Node000013_Node000017" class="edge">
<title>Node13&#45;&gt;Node17</title>
<g id="a_edge17_Node000013_Node000017"><a xlink:title=" ">
<path fill="none" stroke="#63b8ff" d="M655.61,-129.35C689.62,-119.29 731.55,-106.89 763.6,-97.4"/>
<polygon fill="#63b8ff" stroke="#63b8ff" points="654.91,-125.91 646.32,-132.1 656.9,-132.62 654.91,-125.91"/>
</a>
</g>
</g>
<!-- Node19 -->
<g id="Node000019" class="node">
<title>Node19</title>
<g id="a_Node000019"><a xlink:href="KerberosDesign_8hpp.html" target="_top" xlink:title=" ">
<polygon fill="white" stroke="#666666" points="420.75,-97 285.5,-97 285.5,-66.5 420.75,-66.5 420.75,-97"/>
<text text-anchor="start" x="293.5" y="-83.5" font-family="Helvetica,sans-Serif" font-size="10.00">sourcecode/timing/include</text>
<text text-anchor="middle" x="353.12" y="-72.25" font-family="Helvetica,sans-Serif" font-size="10.00">/timing/KerberosDesign.hpp</text>
</a>
</g>
</g>
<!-- Node13&#45;&gt;Node19 -->
<g id="edge20_Node000013_Node000019" class="edge">
<title>Node13&#45;&gt;Node19</title>
<g id="a_edge20_Node000013_Node000019"><a xlink:title=" ">
<path fill="none" stroke="#63b8ff" d="M528.96,-129.62C491.03,-119.51 443.99,-106.97 408.1,-97.4"/>
<polygon fill="#63b8ff" stroke="#63b8ff" points="527.88,-132.95 538.45,-132.14 529.68,-126.19 527.88,-132.95"/>
</a>
</g>
</g>
<!-- Node21 -->
<g id="Node000021" class="node">
<title>Node21</title>
<g id="a_Node000021"><a xlink:href="OuroborosMuxDesign_8hpp.html" target="_top" xlink:title=" ">
<polygon fill="white" stroke="#666666" points="597.75,-97 438.5,-97 438.5,-66.5 597.75,-66.5 597.75,-97"/>
<text text-anchor="start" x="446.5" y="-83.5" font-family="Helvetica,sans-Serif" font-size="10.00">sourcecode/timing/include</text>
<text text-anchor="middle" x="518.12" y="-72.25" font-family="Helvetica,sans-Serif" font-size="10.00">/timing/OuroborosMuxDesign.hpp</text>
</a>
</g>
</g>
<!-- Node13&#45;&gt;Node21 -->
<g id="edge23_Node000013_Node000021" class="edge">
<title>Node13&#45;&gt;Node21</title>
<g id="a_edge23_Node000013_Node000021"><a xlink:title=" ">
<path fill="none" stroke="#63b8ff" d="M568.85,-125.24C557.85,-116.03 545.36,-105.56 535.53,-97.33"/>
<polygon fill="#63b8ff" stroke="#63b8ff" points="566.58,-127.9 576.49,-131.64 571.07,-122.54 566.58,-127.9"/>
</a>
</g>
</g>
<!-- Node23 -->
<g id="Node000023" class="node">
<title>Node23</title>
<g id="a_Node000023"><a xlink:href="MasterMuxDesign_8cpp.html" target="_top" xlink:title=" ">
<polygon fill="white" stroke="#666666" points="730.62,-97 615.62,-97 615.62,-66.5 730.62,-66.5 730.62,-97"/>
<text text-anchor="start" x="623.62" y="-83.5" font-family="Helvetica,sans-Serif" font-size="10.00">sourcecode/timing/src</text>
<text text-anchor="middle" x="673.12" y="-72.25" font-family="Helvetica,sans-Serif" font-size="10.00">/MasterMuxDesign.cpp</text>
</a>
</g>
</g>
<!-- Node13&#45;&gt;Node23 -->
<g id="edge26_Node000013_Node000023" class="edge">
<title>Node13&#45;&gt;Node23</title>
<g id="a_edge26_Node000013_Node000023"><a xlink:title=" ">
<path fill="none" stroke="#63b8ff" d="M621.41,-125.52C632.63,-116.23 645.44,-105.65 655.5,-97.33"/>
<polygon fill="#63b8ff" stroke="#63b8ff" points="619.47,-122.58 613.99,-131.65 623.93,-127.97 619.47,-122.58"/>
</a>
</g>
</g>
<!-- Node14&#45;&gt;Node11 -->
<g id="edge14_Node000014_Node000011" class="edge">
<title>Node14&#45;&gt;Node11</title>
<g id="a_edge14_Node000014_Node000011"><a xlink:title=" ">
<path fill="none" stroke="#63b8ff" d="M279.16,-66.21C512.19,-36.55 575.48,-59.05 806.12,-30.5 809.03,-30.14 811.99,-29.74 814.98,-29.32"/>
<polygon fill="#63b8ff" stroke="#63b8ff" points="278.9,-62.71 269.44,-67.47 279.8,-69.66 278.9,-62.71"/>
</a>
</g>
</g>
<!-- Node15 -->
<g id="Node000015" class="node">
<title>Node15</title>
<g id="a_Node000015"><a xlink:href="FanoutDesign_8cpp.html" target="_top" xlink:title=" ">
<polygon fill="white" stroke="#666666" points="292.12,-30.5 180.12,-30.5 180.12,0 292.12,0 292.12,-30.5"/>
<text text-anchor="start" x="188.12" y="-17" font-family="Helvetica,sans-Serif" font-size="10.00">sourcecode/timing/src</text>
<text text-anchor="middle" x="236.12" y="-5.75" font-family="Helvetica,sans-Serif" font-size="10.00">/FanoutDesign.cpp</text>
</a>
</g>
</g>
<!-- Node14&#45;&gt;Node15 -->
<g id="edge15_Node000014_Node000015" class="edge">
<title>Node14&#45;&gt;Node15</title>
<g id="a_edge15_Node000014_Node000015"><a xlink:title=" ">
<path fill="none" stroke="#63b8ff" d="M215.82,-55.94C220.16,-47.46 224.87,-38.24 228.67,-30.83"/>
<polygon fill="#63b8ff" stroke="#63b8ff" points="212.74,-54.27 211.3,-64.77 218.97,-57.46 212.74,-54.27"/>
</a>
</g>
</g>
<!-- Node16 -->
<g id="Node000016" class="node">
<title>Node16</title>
<g id="a_Node000016"><a xlink:href="TimingHardwareManager_8cpp.html" target="_top" xlink:title=" ">
<polygon fill="white" stroke="#666666" points="162.25,-30.5 0,-30.5 0,0 162.25,0 162.25,-30.5"/>
<text text-anchor="start" x="8" y="-17" font-family="Helvetica,sans-Serif" font-size="10.00">sourcecode/timinglibs</text>
<text text-anchor="middle" x="81.12" y="-5.75" font-family="Helvetica,sans-Serif" font-size="10.00">/src/TimingHardwareManager.cpp</text>
</a>
</g>
</g>
<!-- Node14&#45;&gt;Node16 -->
<g id="edge16_Node000014_Node000016" class="edge">
<title>Node14&#45;&gt;Node16</title>
<g id="a_edge16_Node000014_Node000016"><a xlink:title=" ">
<path fill="none" stroke="#63b8ff" d="M165.38,-60.79C147.06,-51.11 125.45,-39.68 108.7,-30.83"/>
<polygon fill="#63b8ff" stroke="#63b8ff" points="163.63,-63.83 174.1,-65.41 166.9,-57.64 163.63,-63.83"/>
</a>
</g>
</g>
<!-- Node17&#45;&gt;Node11 -->
<g id="edge18_Node000017_Node000011" class="edge">
<title>Node17&#45;&gt;Node11</title>
<g id="a_edge18_Node000017_Node000011"><a xlink:title=" ">
<path fill="none" stroke="#63b8ff" d="M838,-58.46C848.21,-49.32 859.75,-38.98 868.85,-30.83"/>
<polygon fill="#63b8ff" stroke="#63b8ff" points="835.7,-55.82 830.59,-65.1 840.37,-61.04 835.7,-55.82"/>
</a>
</g>
</g>
<!-- Node18 -->
<g id="Node000018" class="node">
<title>Node18</title>
<g id="a_Node000018"><a xlink:href="GaiaDesign_8cpp.html" target="_top" xlink:title=" ">
<polygon fill="white" stroke="#666666" points="797.12,-30.5 685.12,-30.5 685.12,0 797.12,0 797.12,-30.5"/>
<text text-anchor="start" x="693.12" y="-17" font-family="Helvetica,sans-Serif" font-size="10.00">sourcecode/timing/src</text>
<text text-anchor="middle" x="741.12" y="-5.75" font-family="Helvetica,sans-Serif" font-size="10.00">/GaiaDesign.cpp</text>
</a>
</g>
</g>
<!-- Node17&#45;&gt;Node18 -->
<g id="edge19_Node000017_Node000018" class="edge">
<title>Node17&#45;&gt;Node18</title>
<g id="a_edge19_Node000017_Node000018"><a xlink:title=" ">
<path fill="none" stroke="#63b8ff" d="M788.25,-58.46C778.04,-49.32 766.5,-38.98 757.4,-30.83"/>
<polygon fill="#63b8ff" stroke="#63b8ff" points="785.88,-61.04 795.66,-65.1 790.55,-55.82 785.88,-61.04"/>
</a>
</g>
</g>
<!-- Node19&#45;&gt;Node11 -->
<g id="edge21_Node000019_Node000011" class="edge">
<title>Node19&#45;&gt;Node11</title>
<g id="a_edge21_Node000019_Node000011"><a xlink:title=" ">
<path fill="none" stroke="#63b8ff" d="M432.11,-66.16C597.72,-43.4 642.96,-52.97 806.12,-30.5 809.02,-30.1 811.98,-29.67 814.96,-29.22"/>
<polygon fill="#63b8ff" stroke="#63b8ff" points="431.95,-62.65 422.53,-67.5 432.91,-69.58 431.95,-62.65"/>
</a>
</g>
</g>
<!-- Node20 -->
<g id="Node000020" class="node">
<title>Node20</title>
<g id="a_Node000020"><a xlink:href="KerberosDesign_8cpp.html" target="_top" xlink:title=" ">
<polygon fill="white" stroke="#666666" points="422.12,-30.5 310.12,-30.5 310.12,0 422.12,0 422.12,-30.5"/>
<text text-anchor="start" x="318.12" y="-17" font-family="Helvetica,sans-Serif" font-size="10.00">sourcecode/timing/src</text>
<text text-anchor="middle" x="366.12" y="-5.75" font-family="Helvetica,sans-Serif" font-size="10.00">/KerberosDesign.cpp</text>
</a>
</g>
</g>
<!-- Node19&#45;&gt;Node20 -->
<g id="edge22_Node000019_Node000020" class="edge">
<title>Node19&#45;&gt;Node20</title>
<g id="a_edge22_Node000019_Node000020"><a xlink:title=" ">
<path fill="none" stroke="#63b8ff" d="M358.3,-55.09C359.96,-46.84 361.74,-37.99 363.19,-30.83"/>
<polygon fill="#63b8ff" stroke="#63b8ff" points="354.92,-54.14 356.37,-64.63 361.78,-55.52 354.92,-54.14"/>
</a>
</g>
</g>
<!-- Node21&#45;&gt;Node11 -->
<g id="edge24_Node000021_Node000011" class="edge">
<title>Node21&#45;&gt;Node11</title>
<g id="a_edge24_Node000021_Node000011"><a xlink:title=" ">
<path fill="none" stroke="#63b8ff" d="M609.31,-64.98C665.97,-55.14 740.3,-42.18 806.12,-30.5 809.01,-29.99 811.95,-29.47 814.92,-28.94"/>
<polygon fill="#63b8ff" stroke="#63b8ff" points="608.97,-61.48 599.71,-66.64 610.16,-68.38 608.97,-61.48"/>
</a>
</g>
</g>
<!-- Node22 -->
<g id="Node000022" class="node">
<title>Node22</title>
<g id="a_Node000022"><a xlink:href="OuroborosMuxDesign_8cpp.html" target="_top" xlink:title=" ">
<polygon fill="white" stroke="#666666" points="583.12,-30.5 453.12,-30.5 453.12,0 583.12,0 583.12,-30.5"/>
<text text-anchor="start" x="461.12" y="-17" font-family="Helvetica,sans-Serif" font-size="10.00">sourcecode/timing/src</text>
<text text-anchor="middle" x="518.12" y="-5.75" font-family="Helvetica,sans-Serif" font-size="10.00">/OuroborosMuxDesign.cpp</text>
</a>
</g>
</g>
<!-- Node21&#45;&gt;Node22 -->
<g id="edge25_Node000021_Node000022" class="edge">
<title>Node21&#45;&gt;Node22</title>
<g id="a_edge25_Node000021_Node000022"><a xlink:title=" ">
<path fill="none" stroke="#63b8ff" d="M518.12,-54.81C518.12,-46.64 518.12,-37.91 518.12,-30.83"/>
<polygon fill="#63b8ff" stroke="#63b8ff" points="514.63,-54.6 518.13,-64.6 521.63,-54.6 514.63,-54.6"/>
</a>
</g>
</g>
<!-- Node24&#45;&gt;Node11 -->
<g id="edge28_Node000024_Node000011" class="edge">
<title>Node24&#45;&gt;Node11</title>
<g id="a_edge28_Node000024_Node000011"><a xlink:title=" ">
<path fill="none" stroke="#63b8ff" d="M1067.23,-121.83C1061.2,-104.07 1050.75,-81.02 1034.12,-66.5 1012.13,-47.28 982.49,-35.35 955.44,-27.97"/>
<polygon fill="#63b8ff" stroke="#63b8ff" points="1063.82,-122.64 1070.13,-131.15 1070.5,-120.56 1063.82,-122.64"/>
</a>
</g>
</g>
<!-- Node25 -->
<g id="Node000025" class="node">
<title>Node25</title>
<g id="a_Node000025"><a xlink:href="OuroborosDesign_8cpp.html" target="_top" xlink:title=" ">
<polygon fill="white" stroke="#666666" points="1214.12,-97 1102.12,-97 1102.12,-66.5 1214.12,-66.5 1214.12,-97"/>
<text text-anchor="start" x="1110.12" y="-83.5" font-family="Helvetica,sans-Serif" font-size="10.00">sourcecode/timing/src</text>
<text text-anchor="middle" x="1158.12" y="-72.25" font-family="Helvetica,sans-Serif" font-size="10.00">/OuroborosDesign.cpp</text>
</a>
</g>
</g>
<!-- Node24&#45;&gt;Node25 -->
<g id="edge29_Node000024_Node000025" class="edge">
<title>Node24&#45;&gt;Node25</title>
<g id="a_edge29_Node000024_Node000025"><a xlink:title=" ">
<path fill="none" stroke="#63b8ff" d="M1102.07,-125.79C1114.24,-116.44 1128.2,-105.73 1139.14,-97.33"/>
<polygon fill="#63b8ff" stroke="#63b8ff" points="1100.19,-122.83 1094.39,-131.69 1104.45,-128.38 1100.19,-122.83"/>
</a>
</g>
</g>
<!-- Node26&#45;&gt;Node11 -->
<g id="edge31_Node000026_Node000011" class="edge">
<title>Node26&#45;&gt;Node11</title>
<g id="a_edge31_Node000026_Node000011"><a xlink:title=" ">
<path fill="none" stroke="#63b8ff" d="M1331.8,-126.11C1305.16,-107.36 1263.46,-80.77 1223.12,-66.5 1134.06,-34.99 1025.01,-23.23 955.3,-18.85"/>
<polygon fill="#63b8ff" stroke="#63b8ff" points="1329.5,-128.77 1339.67,-131.75 1333.58,-123.08 1329.5,-128.77"/>
</a>
</g>
</g>
<!-- Node27 -->
<g id="Node000027" class="node">
<title>Node27</title>
<g id="a_Node000027"><a xlink:href="OverlordDesign_8cpp.html" target="_top" xlink:title=" ">
<polygon fill="white" stroke="#666666" points="1679.12,-97 1567.12,-97 1567.12,-66.5 1679.12,-66.5 1679.12,-97"/>
<text text-anchor="start" x="1575.12" y="-83.5" font-family="Helvetica,sans-Serif" font-size="10.00">sourcecode/timing/src</text>
<text text-anchor="middle" x="1623.12" y="-72.25" font-family="Helvetica,sans-Serif" font-size="10.00">/OverlordDesign.cpp</text>
</a>
</g>
</g>
<!-- Node26&#45;&gt;Node27 -->
<g id="edge32_Node000026_Node000027" class="edge">
<title>Node26&#45;&gt;Node27</title>
<g id="a_edge32_Node000026_Node000027"><a xlink:title=" ">
<path fill="none" stroke="#63b8ff" d="M1431.28,-129.8C1473.91,-119.34 1527.33,-106.24 1566.97,-96.52"/>
<polygon fill="#63b8ff" stroke="#63b8ff" points="1430.48,-126.39 1421.6,-132.17 1432.15,-133.19 1430.48,-126.39"/>
</a>
</g>
</g>
<!-- Node29&#45;&gt;Node26 -->
<g id="edge35_Node000029_Node000026" class="edge">
<title>Node29&#45;&gt;Node26</title>
<g id="a_edge35_Node000029_Node000026"><a xlink:title=" ">
<path fill="none" stroke="#63b8ff" d="M1278.88,-193.66C1296.55,-184 1317.33,-172.64 1333.45,-163.83"/>
<polygon fill="#63b8ff" stroke="#63b8ff" points="1277.33,-190.52 1270.23,-198.39 1280.68,-196.66 1277.33,-190.52"/>
</a>
</g>
</g>
<!-- Node30 -->
<g id="Node000030" class="node">
<title>Node30</title>
<g id="a_Node000030"><a xlink:href="OverlordDesignInterface_8cpp.html" target="_top" xlink:title=" ">
<polygon fill="white" stroke="#666666" points="1587.12,-163.5 1445.12,-163.5 1445.12,-133 1587.12,-133 1587.12,-163.5"/>
<text text-anchor="start" x="1453.12" y="-150" font-family="Helvetica,sans-Serif" font-size="10.00">sourcecode/timing/src</text>
<text text-anchor="middle" x="1516.12" y="-138.75" font-family="Helvetica,sans-Serif" font-size="10.00">/OverlordDesignInterface.cpp</text>
</a>
</g>
</g>
<!-- Node29&#45;&gt;Node30 -->
<g id="edge36_Node000029_Node000030" class="edge">
<title>Node29&#45;&gt;Node30</title>
<g id="a_edge36_Node000029_Node000030"><a xlink:title=" ">
<path fill="none" stroke="#63b8ff" d="M1315.66,-196.44C1358.84,-186.28 1412.81,-173.57 1453.88,-163.9"/>
<polygon fill="#63b8ff" stroke="#63b8ff" points="1315.05,-192.99 1306.12,-198.69 1316.65,-199.8 1315.05,-192.99"/>
</a>
</g>
</g>
<!-- Node31&#45;&gt;Node16 -->
<g id="edge38_Node000031_Node000016" class="edge">
<title>Node31&#45;&gt;Node16</title>
<g id="a_edge38_Node000031_Node000016"><a xlink:title=" ">
<path fill="none" stroke="#63b8ff" d="M206.59,-133.17C179.62,-125.72 151.44,-114.35 129.12,-97 106.85,-79.68 92.76,-48.89 85.97,-30.75"/>
<polygon fill="#63b8ff" stroke="#63b8ff" points="205.63,-136.53 216.19,-135.65 207.38,-129.76 205.63,-136.53"/>
</a>
</g>
</g>
<!-- Node32&#45;&gt;Node5 -->
<g id="edge41_Node000032_Node000005" class="edge">
<title>Node32&#45;&gt;Node5</title>
<g id="a_edge41_Node000032_Node000005"><a xlink:title=" ">
<path fill="none" stroke="#63b8ff" d="M1713.16,-254.59C1711.24,-246.34 1709.18,-237.49 1707.52,-230.33"/>
<polygon fill="#63b8ff" stroke="#63b8ff" points="1709.7,-255.19 1715.38,-264.14 1716.52,-253.61 1709.7,-255.19"/>
</a>
</g>
</g>
<!-- Node32&#45;&gt;Node27 -->
<g id="edge42_Node000032_Node000027" class="edge">
<title>Node32&#45;&gt;Node27</title>
<g id="a_edge42_Node000032_Node000027"><a xlink:title=" ">
<path fill="none" stroke="#63b8ff" d="M1757.31,-259.16C1767.6,-251.44 1777.45,-241.67 1783.12,-230 1789.05,-217.81 1789.27,-211.58 1783.12,-199.5 1757.42,-148.92 1698.38,-115.04 1659.66,-97.35"/>
<polygon fill="#63b8ff" stroke="#63b8ff" points="1755.34,-256.27 1749.09,-264.82 1759.31,-262.04 1755.34,-256.27"/>
</a>
</g>
</g>
<!-- Node33 -->
<g id="Node000033" class="node">
<title>Node33</title>
<g id="a_Node000033"><a xlink:href="PDIMasterNode_8cpp.html" target="_top" xlink:title=" ">
<polygon fill="white" stroke="#666666" points="1942.12,-230 1830.12,-230 1830.12,-199.5 1942.12,-199.5 1942.12,-230"/>
<text text-anchor="start" x="1838.12" y="-216.5" font-family="Helvetica,sans-Serif" font-size="10.00">sourcecode/timing/src</text>
<text text-anchor="middle" x="1886.12" y="-205.25" font-family="Helvetica,sans-Serif" font-size="10.00">/PDIMasterNode.cpp</text>
</a>
</g>
</g>
<!-- Node32&#45;&gt;Node33 -->
<g id="edge43_Node000032_Node000033" class="edge">
<title>Node32&#45;&gt;Node33</title>
<g id="a_edge43_Node000032_Node000033"><a xlink:title=" ">
<path fill="none" stroke="#63b8ff" d="M1767.63,-261.51C1793.25,-251.62 1824.23,-239.65 1848.09,-230.44"/>
<polygon fill="#63b8ff" stroke="#63b8ff" points="1766.5,-258.2 1758.43,-265.07 1769.02,-264.73 1766.5,-258.2"/>
</a>
</g>
</g>
<!-- Node35&#45;&gt;Node4 -->
<g id="edge47_Node000035_Node000004" class="edge">
<title>Node35&#45;&gt;Node4</title>
<g id="a_edge47_Node000035_Node000004"><a xlink:title=" ">
<path fill="none" stroke="#63b8ff" d="M1778.92,-330.36C1725.53,-320.79 1666.37,-308.31 1642.12,-296.5 1637.6,-294.29 1589.48,-253.11 1563.14,-230.43"/>
<polygon fill="#63b8ff" stroke="#63b8ff" points="1778.26,-333.8 1788.72,-332.09 1779.48,-326.9 1778.26,-333.8"/>
</a>
</g>
</g>
<!-- Node35&#45;&gt;Node32 -->
<g id="edge46_Node000035_Node000032" class="edge">
<title>Node35&#45;&gt;Node32</title>
<g id="a_edge46_Node000035_Node000032"><a xlink:title=" ">
<path fill="none" stroke="#63b8ff" d="M1833.74,-327.88C1808.95,-318.01 1779.06,-306.11 1756.02,-296.94"/>
<polygon fill="#63b8ff" stroke="#63b8ff" points="1832.37,-331.11 1842.96,-331.55 1834.96,-324.6 1832.37,-331.11"/>
</a>
</g>
</g>
<!-- Node36 -->
<g id="Node000036" class="node">
<title>Node36</title>
<g id="a_Node000036"><a xlink:href="PDIEndpointNode_8cpp.html" target="_top" xlink:title=" ">
<polygon fill="white" stroke="#666666" points="2365.25,-296.5 2251,-296.5 2251,-266 2365.25,-266 2365.25,-296.5"/>
<text text-anchor="start" x="2259" y="-283" font-family="Helvetica,sans-Serif" font-size="10.00">sourcecode/timing/src</text>
<text text-anchor="middle" x="2308.12" y="-271.75" font-family="Helvetica,sans-Serif" font-size="10.00">/PDIEndpointNode.cpp</text>
</a>
</g>
</g>
<!-- Node35&#45;&gt;Node36 -->
<g id="edge48_Node000035_Node000036" class="edge">
<title>Node35&#45;&gt;Node36</title>
<g id="a_edge48_Node000035_Node000036"><a xlink:title=" ">
<path fill="none" stroke="#63b8ff" d="M1983.42,-332.05C2098.47,-316.16 2129.99,-316.28 2242.12,-296.5 2244.9,-296.01 2247.73,-295.49 2250.58,-294.94"/>
<polygon fill="#63b8ff" stroke="#63b8ff" points="1982.94,-328.59 1973.52,-333.43 1983.91,-335.52 1982.94,-328.59"/>
</a>
</g>
</g>
<!-- Node37 -->
<g id="Node000037" class="node">
<title>Node37</title>
<g id="a_Node000037"><a xlink:href="PDIFLCmdGeneratorNode_8cpp.html" target="_top" xlink:title=" ">
<polygon fill="white" stroke="#666666" points="1957,-296.5 1805.25,-296.5 1805.25,-266 1957,-266 1957,-296.5"/>
<text text-anchor="start" x="1813.25" y="-283" font-family="Helvetica,sans-Serif" font-size="10.00">sourcecode/timing/src</text>
<text text-anchor="middle" x="1881.12" y="-271.75" font-family="Helvetica,sans-Serif" font-size="10.00">/PDIFLCmdGeneratorNode.cpp</text>
</a>
</g>
</g>
<!-- Node35&#45;&gt;Node37 -->
<g id="edge49_Node000035_Node000037" class="edge">
<title>Node35&#45;&gt;Node37</title>
<g id="a_edge49_Node000035_Node000037"><a xlink:title=" ">
<path fill="none" stroke="#63b8ff" d="M1881.12,-320.81C1881.12,-312.64 1881.12,-303.91 1881.12,-296.83"/>
<polygon fill="#63b8ff" stroke="#63b8ff" points="1877.63,-320.6 1881.13,-330.6 1884.63,-320.6 1877.63,-320.6"/>
</a>
</g>
</g>
<!-- Node38 -->
<g id="Node000038" class="node">
<title>Node38</title>
<g id="a_Node000038"><a xlink:href="PartitionNode_8cpp.html" target="_top" xlink:title=" ">
<polygon fill="white" stroke="#666666" points="2087.12,-296.5 1975.12,-296.5 1975.12,-266 2087.12,-266 2087.12,-296.5"/>
<text text-anchor="start" x="1983.12" y="-283" font-family="Helvetica,sans-Serif" font-size="10.00">sourcecode/timing/src</text>
<text text-anchor="middle" x="2031.12" y="-271.75" font-family="Helvetica,sans-Serif" font-size="10.00">/PartitionNode.cpp</text>
</a>
</g>
</g>
<!-- Node35&#45;&gt;Node38 -->
<g id="edge50_Node000035_Node000038" class="edge">
<title>Node35&#45;&gt;Node38</title>
<g id="a_edge50_Node000035_Node000038"><a xlink:title=" ">
<path fill="none" stroke="#63b8ff" d="M1925.62,-327.62C1948.45,-317.8 1975.82,-306.03 1996.96,-296.94"/>
<polygon fill="#63b8ff" stroke="#63b8ff" points="1924.36,-324.35 1916.55,-331.52 1927.12,-330.78 1924.36,-324.35"/>
</a>
</g>
</g>
<!-- Node39 -->
<g id="Node000039" class="node">
<title>Node39</title>
<g id="a_Node000039"><a xlink:href="TriggerReceiverNode_8cpp.html" target="_top" xlink:title=" ">
<polygon fill="white" stroke="#666666" points="2233.38,-296.5 2104.88,-296.5 2104.88,-266 2233.38,-266 2233.38,-296.5"/>
<text text-anchor="start" x="2112.88" y="-283" font-family="Helvetica,sans-Serif" font-size="10.00">sourcecode/timing/src</text>
<text text-anchor="middle" x="2169.12" y="-271.75" font-family="Helvetica,sans-Serif" font-size="10.00">/TriggerReceiverNode.cpp</text>
</a>
</g>
</g>
<!-- Node35&#45;&gt;Node39 -->
<g id="edge51_Node000035_Node000039" class="edge">
<title>Node35&#45;&gt;Node39</title>
<g id="a_edge51_Node000035_Node000039"><a xlink:title=" ">
<path fill="none" stroke="#63b8ff" d="M1957.92,-329.55C2003.73,-319.29 2061.25,-306.41 2104.69,-296.68"/>
<polygon fill="#63b8ff" stroke="#63b8ff" points="1957.31,-326.1 1948.31,-331.7 1958.84,-332.93 1957.31,-326.1"/>
</a>
</g>
</g>
<!-- Node42&#45;&gt;Node32 -->
<g id="edge57_Node000042_Node000032" class="edge">
<title>Node42&#45;&gt;Node32</title>
<g id="a_edge57_Node000042_Node000032"><a xlink:title=" ">
<path fill="none" stroke="#63b8ff" d="M2068.83,-394.13C2103.19,-379.03 2137.61,-356.54 2116.12,-332.5 2068.44,-279.15 1866.91,-307.02 1796.12,-296.5 1793.3,-296.08 1790.42,-295.63 1787.52,-295.17"/>
<polygon fill="#63b8ff" stroke="#63b8ff" points="2067.5,-390.9 2059.63,-397.99 2070.21,-397.35 2067.5,-390.9"/>
</a>
</g>
</g>
<!-- Node43 -->
<g id="Node000043" class="node">
<title>Node43</title>
<g id="a_Node000043"><a xlink:href="SpillInterfaceNode_8cpp.html" target="_top" xlink:title=" ">
<polygon fill="white" stroke="#666666" points="2106.75,-363 1989.5,-363 1989.5,-332.5 2106.75,-332.5 2106.75,-363"/>
<text text-anchor="start" x="1997.5" y="-349.5" font-family="Helvetica,sans-Serif" font-size="10.00">sourcecode/timing/src</text>
<text text-anchor="middle" x="2048.12" y="-338.25" font-family="Helvetica,sans-Serif" font-size="10.00">/SpillInterfaceNode.cpp</text>
</a>
</g>
</g>
<!-- Node42&#45;&gt;Node43 -->
<g id="edge58_Node000042_Node000043" class="edge">
<title>Node42&#45;&gt;Node43</title>
<g id="a_edge58_Node000042_Node000043"><a xlink:title=" ">
<path fill="none" stroke="#63b8ff" d="M2027.82,-388.44C2032.16,-379.96 2036.87,-370.74 2040.67,-363.33"/>
<polygon fill="#63b8ff" stroke="#63b8ff" points="2024.74,-386.77 2023.3,-397.27 2030.97,-389.96 2024.74,-386.77"/>
</a>
</g>
</g>
</g>
</svg>
