<?xml version="1.0" encoding="UTF-8" standalone="no"?>
<!DOCTYPE svg PUBLIC "-//W3C//DTD SVG 1.1//EN"
 "http://www.w3.org/Graphics/SVG/1.1/DTD/svg11.dtd">
<!-- Generated by graphviz version 9.0.0 (20230911.1827)
 -->
<!-- Title: sourcecode/daqdataformats/include/daqdataformats/TimeSliceHeader.hpp Pages: 1 -->
<svg width="835pt" height="272pt"
 viewBox="0.00 0.00 835.38 271.75" xmlns="http://www.w3.org/2000/svg" xmlns:xlink="http://www.w3.org/1999/xlink">
<g id="graph0" class="graph" transform="scale(1 1) rotate(0) translate(4 267.75)">
<title>sourcecode/daqdataformats/include/daqdataformats/TimeSliceHeader.hpp</title>
<!-- Node1 -->
<g id="Node000001" class="node">
<title>Node1</title>
<g id="a_Node000001"><a xlink:title=" ">
<polygon fill="#999999" stroke="#666666" points="398.75,-263.75 262,-263.75 262,-222 398.75,-222 398.75,-263.75"/>
<text text-anchor="start" x="270" y="-250.25" font-family="Helvetica,sans-Serif" font-size="10.00">sourcecode/daqdataformats</text>
<text text-anchor="start" x="270" y="-239" font-family="Helvetica,sans-Serif" font-size="10.00">/include/daqdataformats</text>
<text text-anchor="middle" x="330.38" y="-227.75" font-family="Helvetica,sans-Serif" font-size="10.00">/TimeSliceHeader.hpp</text>
</a>
</g>
</g>
<!-- Node2 -->
<g id="Node000002" class="node">
<title>Node2</title>
<g id="a_Node000002"><a xlink:href="TimeSlice_8hpp.html" target="_top" xlink:title=" ">
<polygon fill="white" stroke="#666666" points="398.75,-186 262,-186 262,-144.25 398.75,-144.25 398.75,-186"/>
<text text-anchor="start" x="270" y="-172.5" font-family="Helvetica,sans-Serif" font-size="10.00">sourcecode/daqdataformats</text>
<text text-anchor="start" x="270" y="-161.25" font-family="Helvetica,sans-Serif" font-size="10.00">/include/daqdataformats</text>
<text text-anchor="middle" x="330.38" y="-150" font-family="Helvetica,sans-Serif" font-size="10.00">/TimeSlice.hpp</text>
</a>
</g>
</g>
<!-- Node1&#45;&gt;Node2 -->
<g id="edge1_Node000001_Node000002" class="edge">
<title>Node1&#45;&gt;Node2</title>
<g id="a_edge1_Node000001_Node000002"><a xlink:title=" ">
<path fill="none" stroke="#63b8ff" d="M330.38,-210.25C330.38,-202.21 330.38,-193.79 330.38,-186.48"/>
<polygon fill="#63b8ff" stroke="#63b8ff" points="326.88,-210.06 330.38,-220.06 333.88,-210.06 326.88,-210.06"/>
</a>
</g>
</g>
<!-- Node3 -->
<g id="Node000003" class="node">
<title>Node3</title>
<g id="a_Node000003"><a xlink:href="time__slice_8cpp.html" target="_top" xlink:title=" ">
<polygon fill="white" stroke="#666666" points="136.75,-102.62 0,-102.62 0,-72.12 136.75,-72.12 136.75,-102.62"/>
<text text-anchor="start" x="8" y="-89.12" font-family="Helvetica,sans-Serif" font-size="10.00">sourcecode/daqdataformats</text>
<text text-anchor="middle" x="68.38" y="-77.88" font-family="Helvetica,sans-Serif" font-size="10.00">/pybindsrc/time_slice.cpp</text>
</a>
</g>
</g>
<!-- Node1&#45;&gt;Node3 -->
<g id="edge9_Node000001_Node000003" class="edge">
<title>Node1&#45;&gt;Node3</title>
<g id="a_edge9_Node000001_Node000003"><a xlink:title=" ">
<path fill="none" stroke="#63b8ff" d="M285.97,-215.86C230.63,-183.44 137.93,-129.12 93.55,-103.12"/>
<polygon fill="#63b8ff" stroke="#63b8ff" points="284.15,-218.85 294.55,-220.88 287.69,-212.81 284.15,-218.85"/>
</a>
</g>
</g>
<!-- Node10 -->
<g id="Node000010" class="node">
<title>Node10</title>
<g id="a_Node000010"><a xlink:href="HDF5FileLayout_8hpp.html" target="_top" xlink:title=" ">
<polygon fill="white" stroke="#666666" points="673.75,-186 543,-186 543,-144.25 673.75,-144.25 673.75,-186"/>
<text text-anchor="start" x="551" y="-172.5" font-family="Helvetica,sans-Serif" font-size="10.00">sourcecode/hdf5libs</text>
<text text-anchor="start" x="551" y="-161.25" font-family="Helvetica,sans-Serif" font-size="10.00">/include/hdf5libs/HDF5File</text>
<text text-anchor="middle" x="608.38" y="-150" font-family="Helvetica,sans-Serif" font-size="10.00">Layout.hpp</text>
</a>
</g>
</g>
<!-- Node1&#45;&gt;Node10 -->
<g id="edge10_Node000001_Node000010" class="edge">
<title>Node1&#45;&gt;Node10</title>
<g id="a_edge10_Node000001_Node000010"><a xlink:title=" ">
<path fill="none" stroke="#63b8ff" d="M410.14,-220.14C452.18,-208.68 503.12,-194.8 542.84,-183.98"/>
<polygon fill="#63b8ff" stroke="#63b8ff" points="409.28,-216.75 400.55,-222.75 411.12,-223.5 409.28,-216.75"/>
</a>
</g>
</g>
<!-- Node2&#45;&gt;Node3 -->
<g id="edge2_Node000002_Node000003" class="edge">
<title>Node2&#45;&gt;Node3</title>
<g id="a_edge2_Node000002_Node000003"><a xlink:title=" ">
<path fill="none" stroke="#63b8ff" d="M250.6,-141.06C207.93,-128.72 156.64,-113.9 119.37,-103.12"/>
<polygon fill="#63b8ff" stroke="#63b8ff" points="249.5,-144.39 260.08,-143.8 251.45,-137.66 249.5,-144.39"/>
</a>
</g>
</g>
<!-- Node4 -->
<g id="Node000004" class="node">
<title>Node4</title>
<g id="a_Node000004"><a xlink:href="DataStore_8hpp.html" target="_top" xlink:title=" ">
<polygon fill="white" stroke="#666666" points="317.5,-102.62 155.25,-102.62 155.25,-72.12 317.5,-72.12 317.5,-102.62"/>
<text text-anchor="start" x="163.25" y="-89.12" font-family="Helvetica,sans-Serif" font-size="10.00">sourcecode/dfmodules</text>
<text text-anchor="middle" x="236.38" y="-77.88" font-family="Helvetica,sans-Serif" font-size="10.00">/include/dfmodules/DataStore.hpp</text>
</a>
</g>
</g>
<!-- Node2&#45;&gt;Node4 -->
<g id="edge3_Node000002_Node000004" class="edge">
<title>Node2&#45;&gt;Node4</title>
<g id="a_edge3_Node000002_Node000004"><a xlink:title=" ">
<path fill="none" stroke="#63b8ff" d="M296.61,-136.91C282.39,-125.45 266.41,-112.58 254.48,-102.96"/>
<polygon fill="#63b8ff" stroke="#63b8ff" points="294.02,-139.33 304.01,-142.88 298.42,-133.88 294.02,-139.33"/>
</a>
</g>
</g>
<!-- Node5 -->
<g id="Node000005" class="node">
<title>Node5</title>
<g id="a_Node000005"><a xlink:href="TPBundleHandler_8hpp.html" target="_top" xlink:title=" ">
<polygon fill="white" stroke="#666666" points="513.38,-102.62 335.38,-102.62 335.38,-72.12 513.38,-72.12 513.38,-102.62"/>
<text text-anchor="start" x="343.38" y="-89.12" font-family="Helvetica,sans-Serif" font-size="10.00">sourcecode/dfmodules</text>
<text text-anchor="middle" x="424.38" y="-77.88" font-family="Helvetica,sans-Serif" font-size="10.00">/src/dfmodules/TPBundleHandler.hpp</text>
</a>
</g>
</g>
<!-- Node2&#45;&gt;Node5 -->
<g id="edge4_Node000002_Node000005" class="edge">
<title>Node2&#45;&gt;Node5</title>
<g id="a_edge4_Node000002_Node000005"><a xlink:title=" ">
<path fill="none" stroke="#63b8ff" d="M364.14,-136.91C378.36,-125.45 394.34,-112.58 406.27,-102.96"/>
<polygon fill="#63b8ff" stroke="#63b8ff" points="362.33,-133.88 356.74,-142.88 366.73,-139.33 362.33,-133.88"/>
</a>
</g>
</g>
<!-- Node7 -->
<g id="Node000007" class="node">
<title>Node7</title>
<g id="a_Node000007"><a xlink:href="HDF5RawDataFile_8hpp.html" target="_top" xlink:title=" ">
<polygon fill="white" stroke="#666666" points="685.75,-108.25 531,-108.25 531,-66.5 685.75,-66.5 685.75,-108.25"/>
<text text-anchor="start" x="539" y="-94.75" font-family="Helvetica,sans-Serif" font-size="10.00">sourcecode/hdf5libs</text>
<text text-anchor="start" x="539" y="-83.5" font-family="Helvetica,sans-Serif" font-size="10.00">/include/hdf5libs/HDF5RawData</text>
<text text-anchor="middle" x="608.38" y="-72.25" font-family="Helvetica,sans-Serif" font-size="10.00">File.hpp</text>
</a>
</g>
</g>
<!-- Node2&#45;&gt;Node7 -->
<g id="edge6_Node000002_Node000007" class="edge">
<title>Node2&#45;&gt;Node7</title>
<g id="a_edge6_Node000002_Node000007"><a xlink:title=" ">
<path fill="none" stroke="#63b8ff" d="M409.85,-142.47C448.77,-131.86 495.36,-119.17 533.62,-108.74"/>
<polygon fill="#63b8ff" stroke="#63b8ff" points="409.28,-139 400.55,-145 411.12,-145.75 409.28,-139"/>
</a>
</g>
</g>
<!-- Node6 -->
<g id="Node000006" class="node">
<title>Node6</title>
<g id="a_Node000006"><a xlink:href="TPBundleHandler_8cpp.html" target="_top" xlink:title=" ">
<polygon fill="white" stroke="#666666" points="489.38,-30.5 359.38,-30.5 359.38,0 489.38,0 489.38,-30.5"/>
<text text-anchor="start" x="367.38" y="-17" font-family="Helvetica,sans-Serif" font-size="10.00">sourcecode/dfmodules</text>
<text text-anchor="middle" x="424.38" y="-5.75" font-family="Helvetica,sans-Serif" font-size="10.00">/src/TPBundleHandler.cpp</text>
</a>
</g>
</g>
<!-- Node5&#45;&gt;Node6 -->
<g id="edge5_Node000005_Node000006" class="edge">
<title>Node5&#45;&gt;Node6</title>
<g id="a_edge5_Node000005_Node000006"><a xlink:title=" ">
<path fill="none" stroke="#63b8ff" d="M424.38,-60.4C424.38,-50.39 424.38,-39.31 424.38,-30.76"/>
<polygon fill="#63b8ff" stroke="#63b8ff" points="420.88,-60.33 424.38,-70.33 427.88,-60.33 420.88,-60.33"/>
</a>
</g>
</g>
<!-- Node8 -->
<g id="Node000008" class="node">
<title>Node8</title>
<g id="a_Node000008"><a xlink:href="hdf5rawdatafile_8cpp.html" target="_top" xlink:title=" ">
<polygon fill="white" stroke="#666666" points="667.62,-30.5 521.12,-30.5 521.12,0 667.62,0 667.62,-30.5"/>
<text text-anchor="start" x="529.12" y="-17" font-family="Helvetica,sans-Serif" font-size="10.00">sourcecode/hdf5libs</text>
<text text-anchor="middle" x="594.38" y="-5.75" font-family="Helvetica,sans-Serif" font-size="10.00">/pybindsrc/hdf5rawdatafile.cpp</text>
</a>
</g>
</g>
<!-- Node7&#45;&gt;Node8 -->
<g id="edge7_Node000007_Node000008" class="edge">
<title>Node7&#45;&gt;Node8</title>
<g id="a_edge7_Node000007_Node000008"><a xlink:title=" ">
<path fill="none" stroke="#63b8ff" d="M602.1,-54.92C600.41,-46.47 598.66,-37.73 597.26,-30.7"/>
<polygon fill="#63b8ff" stroke="#63b8ff" points="598.64,-55.49 604.03,-64.61 605.5,-54.12 598.64,-55.49"/>
</a>
</g>
</g>
<!-- Node9 -->
<g id="Node000009" class="node">
<title>Node9</title>
<g id="a_Node000009"><a xlink:href="HDF5RawDataFile_8cpp.html" target="_top" xlink:title=" ">
<polygon fill="white" stroke="#666666" points="820.62,-30.5 686.12,-30.5 686.12,0 820.62,0 820.62,-30.5"/>
<text text-anchor="start" x="694.12" y="-17" font-family="Helvetica,sans-Serif" font-size="10.00">sourcecode/hdf5libs</text>
<text text-anchor="middle" x="753.38" y="-5.75" font-family="Helvetica,sans-Serif" font-size="10.00">/src/HDF5RawDataFile.cpp</text>
</a>
</g>
</g>
<!-- Node7&#45;&gt;Node9 -->
<g id="edge8_Node000007_Node000009" class="edge">
<title>Node7&#45;&gt;Node9</title>
<g id="a_edge8_Node000007_Node000009"><a xlink:title=" ">
<path fill="none" stroke="#63b8ff" d="M660.39,-61.22C681.41,-51.06 704.92,-39.68 723.04,-30.92"/>
<polygon fill="#63b8ff" stroke="#63b8ff" points="659.16,-57.93 651.68,-65.43 662.2,-64.23 659.16,-57.93"/>
</a>
</g>
</g>
<!-- Node10&#45;&gt;Node7 -->
<g id="edge11_Node000010_Node000007" class="edge">
<title>Node10&#45;&gt;Node7</title>
<g id="a_edge11_Node000010_Node000007"><a xlink:title=" ">
<path fill="none" stroke="#63b8ff" d="M608.38,-132.5C608.38,-124.46 608.38,-116.04 608.38,-108.73"/>
<polygon fill="#63b8ff" stroke="#63b8ff" points="604.88,-132.31 608.38,-142.31 611.88,-132.31 604.88,-132.31"/>
</a>
</g>
</g>
<!-- Node11 -->
<g id="Node000011" class="node">
<title>Node11</title>
<g id="a_Node000011"><a xlink:href="HDF5FileLayout_8cpp.html" target="_top" xlink:title=" ">
<polygon fill="white" stroke="#666666" points="827.38,-102.62 703.38,-102.62 703.38,-72.12 827.38,-72.12 827.38,-102.62"/>
<text text-anchor="start" x="711.38" y="-89.12" font-family="Helvetica,sans-Serif" font-size="10.00">sourcecode/hdf5libs</text>
<text text-anchor="middle" x="765.38" y="-77.88" font-family="Helvetica,sans-Serif" font-size="10.00">/src/HDF5FileLayout.cpp</text>
</a>
</g>
</g>
<!-- Node10&#45;&gt;Node11 -->
<g id="edge12_Node000010_Node000011" class="edge">
<title>Node10&#45;&gt;Node11</title>
<g id="a_edge12_Node000010_Node000011"><a xlink:title=" ">
<path fill="none" stroke="#63b8ff" d="M660.77,-138.85C685.48,-126.92 714.09,-113.12 735.14,-102.96"/>
<polygon fill="#63b8ff" stroke="#63b8ff" points="659.3,-135.67 651.81,-143.17 662.34,-141.97 659.3,-135.67"/>
</a>
</g>
</g>
</g>
</svg>
