<?xml version="1.0" encoding="UTF-8" standalone="no"?>
<!DOCTYPE svg PUBLIC "-//W3C//DTD SVG 1.1//EN"
 "http://www.w3.org/Graphics/SVG/1.1/DTD/svg11.dtd">
<!-- Generated by graphviz version 9.0.0 (20230911.1827)
 -->
<!-- Title: sourcecode/timinglibs/include/timinglibs/TimingHardwareInterface.hpp Pages: 1 -->
<svg width="2194pt" height="360pt"
 viewBox="0.00 0.00 2194.27 359.75" xmlns="http://www.w3.org/2000/svg" xmlns:xlink="http://www.w3.org/1999/xlink">
<g id="graph0" class="graph" transform="scale(1 1) rotate(0) translate(4 355.75)">
<title>sourcecode/timinglibs/include/timinglibs/TimingHardwareInterface.hpp</title>
<!-- Node1 -->
<g id="Node000001" class="node">
<title>Node1</title>
<g id="a_Node000001"><a xlink:title=" ">
<polygon fill="#999999" stroke="#666666" points="772.62,-351.75 604.38,-351.75 604.38,-310 772.62,-310 772.62,-351.75"/>
<text text-anchor="start" x="612.38" y="-338.25" font-family="Helvetica,sans-Serif" font-size="10.00">sourcecode/timinglibs</text>
<text text-anchor="start" x="612.38" y="-327" font-family="Helvetica,sans-Serif" font-size="10.00">/include/timinglibs/TimingHardware</text>
<text text-anchor="middle" x="688.5" y="-315.75" font-family="Helvetica,sans-Serif" font-size="10.00">Interface.hpp</text>
</a>
</g>
</g>
<!-- Node2 -->
<g id="Node000002" class="node">
<title>Node2</title>
<g id="a_Node000002"><a xlink:title=" ">
<polygon fill="#e0e0e0" stroke="#999999" points="97,-268.38 0,-268.38 0,-249.12 97,-249.12 97,-268.38"/>
<text text-anchor="middle" x="48.5" y="-254.88" font-family="Helvetica,sans-Serif" font-size="10.00">nlohmann/json.hpp</text>
</a>
</g>
</g>
<!-- Node1&#45;&gt;Node2 -->
<g id="edge1_Node000001_Node000002" class="edge">
<title>Node1&#45;&gt;Node2</title>
<g id="a_edge1_Node000001_Node000002"><a xlink:title=" ">
<path fill="none" stroke="#63b8ff" d="M603.98,-325.74C490.1,-319.28 281.37,-304.24 105.5,-274 101.16,-273.25 96.66,-272.35 92.17,-271.37"/>
<polygon fill="#63b8ff" stroke="#63b8ff" points="93.18,-268.01 82.65,-269.15 91.59,-274.83 93.18,-268.01"/>
</a>
</g>
</g>
<!-- Node3 -->
<g id="Node000003" class="node">
<title>Node3</title>
<g id="a_Node000003"><a xlink:title=" ">
<polygon fill="#e0e0e0" stroke="#999999" points="262.12,-274 114.88,-274 114.88,-243.5 262.12,-243.5 262.12,-274"/>
<text text-anchor="start" x="122.88" y="-260.5" font-family="Helvetica,sans-Serif" font-size="10.00">timinglibs/dal/TimingHardware</text>
<text text-anchor="middle" x="188.5" y="-249.25" font-family="Helvetica,sans-Serif" font-size="10.00">Interface.hpp</text>
</a>
</g>
</g>
<!-- Node1&#45;&gt;Node3 -->
<g id="edge2_Node000001_Node000003" class="edge">
<title>Node1&#45;&gt;Node3</title>
<g id="a_edge2_Node000001_Node000003"><a xlink:title=" ">
<path fill="none" stroke="#63b8ff" d="M603.9,-319.55C521.92,-309.33 393.79,-292.75 273.48,-274.43"/>
<polygon fill="#63b8ff" stroke="#63b8ff" points="274.15,-270.99 263.73,-272.93 273.09,-277.91 274.15,-270.99"/>
</a>
</g>
</g>
<!-- Node4 -->
<g id="Node000004" class="node">
<title>Node4</title>
<g id="a_Node000004"><a xlink:title=" ">
<polygon fill="#e0e0e0" stroke="#999999" points="421.12,-268.38 279.88,-268.38 279.88,-249.12 421.12,-249.12 421.12,-268.38"/>
<text text-anchor="middle" x="350.5" y="-254.88" font-family="Helvetica,sans-Serif" font-size="10.00">uhal/ConnectionManager.hpp</text>
</a>
</g>
</g>
<!-- Node1&#45;&gt;Node4 -->
<g id="edge3_Node000001_Node000004" class="edge">
<title>Node1&#45;&gt;Node4</title>
<g id="a_edge3_Node000001_Node000004"><a xlink:title=" ">
<path fill="none" stroke="#63b8ff" d="M604.08,-312.36C541.83,-299.45 458.95,-282.25 405.17,-271.09"/>
<polygon fill="#63b8ff" stroke="#63b8ff" points="406.14,-267.72 395.63,-269.11 404.71,-274.57 406.14,-267.72"/>
</a>
</g>
</g>
<!-- Node5 -->
<g id="Node000005" class="node">
<title>Node5</title>
<g id="a_Node000005"><a xlink:title=" ">
<polygon fill="#e0e0e0" stroke="#999999" points="551.5,-268.38 439.5,-268.38 439.5,-249.12 551.5,-249.12 551.5,-268.38"/>
<text text-anchor="middle" x="495.5" y="-254.88" font-family="Helvetica,sans-Serif" font-size="10.00">uhal/ProtocolUDP.hpp</text>
</a>
</g>
</g>
<!-- Node1&#45;&gt;Node5 -->
<g id="edge4_Node000001_Node000005" class="edge">
<title>Node1&#45;&gt;Node5</title>
<g id="a_edge4_Node000001_Node000005"><a xlink:title=" ">
<path fill="none" stroke="#63b8ff" d="M632.68,-309.59C599.95,-297.7 559.58,-283.03 531.13,-272.7"/>
<polygon fill="#63b8ff" stroke="#63b8ff" points="532.5,-269.47 521.91,-269.34 530.11,-276.05 532.5,-269.47"/>
</a>
</g>
</g>
<!-- Node6 -->
<g id="Node000006" class="node">
<title>Node6</title>
<g id="a_Node000006"><a xlink:title=" ">
<polygon fill="#e0e0e0" stroke="#999999" points="681.5,-268.38 569.5,-268.38 569.5,-249.12 681.5,-249.12 681.5,-268.38"/>
<text text-anchor="middle" x="625.5" y="-254.88" font-family="Helvetica,sans-Serif" font-size="10.00">uhal/log/exception.hpp</text>
</a>
</g>
</g>
<!-- Node1&#45;&gt;Node6 -->
<g id="edge5_Node000001_Node000006" class="edge">
<title>Node1&#45;&gt;Node6</title>
<g id="a_edge5_Node000001_Node000006"><a xlink:title=" ">
<path fill="none" stroke="#63b8ff" d="M670.28,-309.59C661.02,-299.29 649.9,-286.91 641.05,-277.06"/>
<polygon fill="#63b8ff" stroke="#63b8ff" points="643.71,-274.78 634.42,-269.68 638.5,-279.46 643.71,-274.78"/>
</a>
</g>
</g>
<!-- Node7 -->
<g id="Node000007" class="node">
<title>Node7</title>
<g id="a_Node000007"><a xlink:title=" ">
<polygon fill="#e0e0e0" stroke="#999999" points="805.5,-268.38 699.5,-268.38 699.5,-249.12 805.5,-249.12 805.5,-268.38"/>
<text text-anchor="middle" x="752.5" y="-254.88" font-family="Helvetica,sans-Serif" font-size="10.00">uhal/utilities/files.hpp</text>
</a>
</g>
</g>
<!-- Node1&#45;&gt;Node7 -->
<g id="edge6_Node000001_Node000007" class="edge">
<title>Node1&#45;&gt;Node7</title>
<g id="a_edge6_Node000001_Node000007"><a xlink:title=" ">
<path fill="none" stroke="#63b8ff" d="M707.01,-309.59C716.51,-299.19 727.95,-286.65 736.98,-276.76"/>
<polygon fill="#63b8ff" stroke="#63b8ff" points="739.29,-279.42 743.45,-269.67 734.12,-274.7 739.29,-279.42"/>
</a>
</g>
</g>
<!-- Node8 -->
<g id="Node000008" class="node">
<title>Node8</title>
<g id="a_Node000008"><a xlink:href="Issue_8hpp.html" target="_top" xlink:title=" ">
<polygon fill="white" stroke="#666666" points="1220.75,-268.38 1146.25,-268.38 1146.25,-249.12 1220.75,-249.12 1220.75,-268.38"/>
<text text-anchor="middle" x="1183.5" y="-254.88" font-family="Helvetica,sans-Serif" font-size="10.00">ers/Issue.hpp</text>
</a>
</g>
</g>
<!-- Node1&#45;&gt;Node8 -->
<g id="edge7_Node000001_Node000008" class="edge">
<title>Node1&#45;&gt;Node8</title>
<g id="a_edge7_Node000001_Node000008"><a xlink:title=" ">
<path fill="none" stroke="#63b8ff" d="M773.03,-317.9C877.07,-303.16 1050.27,-278.62 1134.5,-266.69"/>
<polygon fill="#63b8ff" stroke="#63b8ff" points="1134.87,-270.17 1144.28,-265.31 1133.89,-263.24 1134.87,-270.17"/>
</a>
</g>
</g>
<!-- Node13 -->
<g id="Node000013" class="node">
<title>Node13</title>
<g id="a_Node000013"><a xlink:title=" ">
<polygon fill="#e0e0e0" stroke="#999999" points="1061.5,-74.5 1021.5,-74.5 1021.5,-55.25 1061.5,-55.25 1061.5,-74.5"/>
<text text-anchor="middle" x="1041.5" y="-61" font-family="Helvetica,sans-Serif" font-size="10.00">string</text>
</a>
</g>
</g>
<!-- Node1&#45;&gt;Node13 -->
<g id="edge44_Node000001_Node000013" class="edge">
<title>Node1&#45;&gt;Node13</title>
<g id="a_edge44_Node000001_Node000013"><a xlink:title=" ">
<path fill="none" stroke="#63b8ff" d="M754.47,-309.51C775.27,-300.88 797.29,-289.22 814.5,-274 877.96,-217.88 846.73,-163.9 912.5,-110.5 940.83,-87.5 981.76,-76.02 1009.88,-70.53"/>
<polygon fill="#63b8ff" stroke="#63b8ff" points="1010.35,-74 1019.58,-68.79 1009.12,-67.11 1010.35,-74"/>
</a>
</g>
</g>
<!-- Node16 -->
<g id="Node000016" class="node">
<title>Node16</title>
<g id="a_Node000016"><a xlink:title=" ">
<polygon fill="#e0e0e0" stroke="#999999" points="1817.75,-201.88 1767.25,-201.88 1767.25,-182.62 1817.75,-182.62 1817.75,-201.88"/>
<text text-anchor="middle" x="1792.5" y="-188.38" font-family="Helvetica,sans-Serif" font-size="10.00">memory</text>
</a>
</g>
</g>
<!-- Node1&#45;&gt;Node16 -->
<g id="edge43_Node000001_Node000016" class="edge">
<title>Node1&#45;&gt;Node16</title>
<g id="a_edge43_Node000001_Node000016"><a xlink:title=" ">
<path fill="none" stroke="#63b8ff" d="M772.96,-328.59C955.79,-324.01 1400.6,-303.08 1758.5,-207.5 1759.89,-207.13 1761.3,-206.71 1762.71,-206.26"/>
<polygon fill="#63b8ff" stroke="#63b8ff" points="1763.81,-209.59 1771.98,-202.85 1761.39,-203.02 1763.81,-209.59"/>
</a>
</g>
</g>
<!-- Node20 -->
<g id="Node000020" class="node">
<title>Node20</title>
<g id="a_Node000020"><a xlink:title=" ">
<polygon fill="#e0e0e0" stroke="#999999" points="1247,-74.5 1204,-74.5 1204,-55.25 1247,-55.25 1247,-74.5"/>
<text text-anchor="middle" x="1225.5" y="-61" font-family="Helvetica,sans-Serif" font-size="10.00">vector</text>
</a>
</g>
</g>
<!-- Node1&#45;&gt;Node20 -->
<g id="edge45_Node000001_Node000020" class="edge">
<title>Node1&#45;&gt;Node20</title>
<g id="a_edge45_Node000001_Node000020"><a xlink:title=" ">
<path fill="none" stroke="#63b8ff" d="M772.93,-328.03C924.76,-323.87 1253.65,-311.04 1528.5,-274 1821.16,-234.55 1992.75,-369.76 2179.5,-141 2188.07,-130.5 2188.86,-120.31 2179.5,-110.5 2147.04,-76.49 1423.16,-67.72 1258.59,-66.16"/>
<polygon fill="#63b8ff" stroke="#63b8ff" points="1258.85,-62.66 1248.81,-66.07 1258.78,-69.66 1258.85,-62.66"/>
</a>
</g>
</g>
<!-- Node9 -->
<g id="Node000009" class="node">
<title>Node9</title>
<g id="a_Node000009"><a xlink:title=" ">
<polygon fill="#e0e0e0" stroke="#999999" points="1463.12,-201.88 1417.88,-201.88 1417.88,-182.62 1463.12,-182.62 1463.12,-201.88"/>
<text text-anchor="middle" x="1440.5" y="-188.38" font-family="Helvetica,sans-Serif" font-size="10.00">math.h</text>
</a>
</g>
</g>
<!-- Node8&#45;&gt;Node9 -->
<g id="edge8_Node000008_Node000009" class="edge">
<title>Node8&#45;&gt;Node9</title>
<g id="a_edge8_Node000008_Node000009"><a xlink:title=" ">
<path fill="none" stroke="#63b8ff" d="M1220.95,-251.93C1266.33,-244.31 1344.74,-229.31 1409.5,-207.5 1410.3,-207.23 1411.11,-206.95 1411.92,-206.65"/>
<polygon fill="#63b8ff" stroke="#63b8ff" points="1413.08,-209.96 1421,-202.92 1410.42,-203.48 1413.08,-209.96"/>
</a>
</g>
</g>
<!-- Node10 -->
<g id="Node000010" class="node">
<title>Node10</title>
<g id="a_Node000010"><a xlink:title=" ">
<polygon fill="#e0e0e0" stroke="#999999" points="1525.75,-201.88 1481.25,-201.88 1481.25,-182.62 1525.75,-182.62 1525.75,-201.88"/>
<text text-anchor="middle" x="1503.5" y="-188.38" font-family="Helvetica,sans-Serif" font-size="10.00">stdio.h</text>
</a>
</g>
</g>
<!-- Node8&#45;&gt;Node10 -->
<g id="edge9_Node000008_Node000010" class="edge">
<title>Node8&#45;&gt;Node10</title>
<g id="a_edge9_Node000008_Node000010"><a xlink:title=" ">
<path fill="none" stroke="#63b8ff" d="M1221.18,-254.34C1277.05,-248.58 1384.72,-234.8 1472.5,-207.5 1473.47,-207.2 1474.44,-206.88 1475.42,-206.53"/>
<polygon fill="#63b8ff" stroke="#63b8ff" points="1476.41,-209.91 1484.38,-202.91 1473.79,-203.42 1476.41,-209.91"/>
</a>
</g>
</g>
<!-- Node11 -->
<g id="Node000011" class="node">
<title>Node11</title>
<g id="a_Node000011"><a xlink:title=" ">
<polygon fill="#e0e0e0" stroke="#999999" points="1591.25,-201.88 1543.75,-201.88 1543.75,-182.62 1591.25,-182.62 1591.25,-201.88"/>
<text text-anchor="middle" x="1567.5" y="-188.38" font-family="Helvetica,sans-Serif" font-size="10.00">string.h</text>
</a>
</g>
</g>
<!-- Node8&#45;&gt;Node11 -->
<g id="edge10_Node000008_Node000011" class="edge">
<title>Node8&#45;&gt;Node11</title>
<g id="a_edge10_Node000008_Node000011"><a xlink:title=" ">
<path fill="none" stroke="#63b8ff" d="M1221.06,-255.65C1286.03,-251.29 1423.12,-238.92 1534.5,-207.5 1535.85,-207.12 1537.22,-206.69 1538.59,-206.24"/>
<polygon fill="#63b8ff" stroke="#63b8ff" points="1539.46,-209.65 1547.55,-202.81 1536.96,-203.11 1539.46,-209.65"/>
</a>
</g>
</g>
<!-- Node12 -->
<g id="Node000012" class="node">
<title>Node12</title>
<g id="a_Node000012"><a xlink:title=" ">
<polygon fill="#e0e0e0" stroke="#999999" points="971.88,-135.38 937.12,-135.38 937.12,-116.12 971.88,-116.12 971.88,-135.38"/>
<text text-anchor="middle" x="954.5" y="-121.88" font-family="Helvetica,sans-Serif" font-size="10.00">map</text>
</a>
</g>
</g>
<!-- Node8&#45;&gt;Node12 -->
<g id="edge11_Node000008_Node000012" class="edge">
<title>Node8&#45;&gt;Node12</title>
<g id="a_edge11_Node000008_Node000012"><a xlink:title=" ">
<path fill="none" stroke="#63b8ff" d="M1146.03,-254.11C1090.53,-247.93 990.43,-233.43 966.5,-207.5 951.58,-191.33 950.34,-165.08 951.68,-146.91"/>
<polygon fill="#63b8ff" stroke="#63b8ff" points="955.14,-147.44 952.75,-137.12 948.18,-146.68 955.14,-147.44"/>
</a>
</g>
</g>
<!-- Node8&#45;&gt;Node13 -->
<g id="edge12_Node000008_Node000013" class="edge">
<title>Node8&#45;&gt;Node13</title>
<g id="a_edge12_Node000008_Node000013"><a xlink:title=" ">
<path fill="none" stroke="#63b8ff" d="M1146.05,-254.27C1087.47,-248.09 977.93,-233.37 949.5,-207.5 916.87,-177.82 903.69,-146.97 928.5,-110.5 946.69,-83.76 983.62,-73.04 1010.32,-68.75"/>
<polygon fill="#63b8ff" stroke="#63b8ff" points="1010.48,-72.26 1019.91,-67.44 1009.53,-65.33 1010.48,-72.26"/>
</a>
</g>
</g>
<!-- Node14 -->
<g id="Node000014" class="node">
<title>Node14</title>
<g id="a_Node000014"><a xlink:title=" ">
<polygon fill="#e0e0e0" stroke="#999999" points="1159.25,-19.25 1105.75,-19.25 1105.75,0 1159.25,0 1159.25,-19.25"/>
<text text-anchor="middle" x="1132.5" y="-5.75" font-family="Helvetica,sans-Serif" font-size="10.00">iostream</text>
</a>
</g>
</g>
<!-- Node8&#45;&gt;Node14 -->
<g id="edge13_Node000008_Node000014" class="edge">
<title>Node8&#45;&gt;Node14</title>
<g id="a_edge13_Node000008_Node000014"><a xlink:title=" ">
<path fill="none" stroke="#63b8ff" d="M1145.82,-255.87C1080.56,-251.8 950.59,-239.74 920.5,-207.5 890.99,-175.87 890.52,-147.76 912.5,-110.5 950.45,-46.18 1042.02,-23.02 1094.27,-14.88"/>
<polygon fill="#63b8ff" stroke="#63b8ff" points="1094.51,-18.38 1103.92,-13.49 1093.52,-11.45 1094.51,-18.38"/>
</a>
</g>
</g>
<!-- Node15 -->
<g id="Node000015" class="node">
<title>Node15</title>
<g id="a_Node000015"><a xlink:title=" ">
<polygon fill="#e0e0e0" stroke="#999999" points="1027.12,-201.88 975.88,-201.88 975.88,-182.62 1027.12,-182.62 1027.12,-201.88"/>
<text text-anchor="middle" x="1001.5" y="-188.38" font-family="Helvetica,sans-Serif" font-size="10.00">sstream</text>
</a>
</g>
</g>
<!-- Node8&#45;&gt;Node15 -->
<g id="edge14_Node000008_Node000015" class="edge">
<title>Node8&#45;&gt;Node15</title>
<g id="a_edge14_Node000008_Node000015"><a xlink:title=" ">
<path fill="none" stroke="#63b8ff" d="M1157.84,-248.69C1129.4,-238.64 1082.16,-221.94 1041.5,-207.5 1040.17,-207.03 1038.82,-206.55 1037.45,-206.06"/>
<polygon fill="#63b8ff" stroke="#63b8ff" points="1038.91,-202.87 1028.32,-202.81 1036.56,-209.46 1038.91,-202.87"/>
</a>
</g>
</g>
<!-- Node8&#45;&gt;Node16 -->
<g id="edge15_Node000008_Node000016" class="edge">
<title>Node8&#45;&gt;Node16</title>
<g id="a_edge15_Node000008_Node000016"><a xlink:title=" ">
<path fill="none" stroke="#63b8ff" d="M1221.04,-255.99C1331.8,-250.54 1655.86,-232.84 1758.5,-207.5 1760.09,-207.11 1761.71,-206.65 1763.32,-206.15"/>
<polygon fill="#63b8ff" stroke="#63b8ff" points="1764.19,-209.56 1772.37,-202.83 1761.78,-202.98 1764.19,-209.56"/>
</a>
</g>
</g>
<!-- Node17 -->
<g id="Node000017" class="node">
<title>Node17</title>
<g id="a_Node000017"><a xlink:title=" ">
<polygon fill="#e0e0e0" stroke="#999999" points="1035.12,-135.38 989.88,-135.38 989.88,-116.12 1035.12,-116.12 1035.12,-135.38"/>
<text text-anchor="middle" x="1012.5" y="-121.88" font-family="Helvetica,sans-Serif" font-size="10.00">chrono</text>
</a>
</g>
</g>
<!-- Node8&#45;&gt;Node17 -->
<g id="edge16_Node000008_Node000017" class="edge">
<title>Node8&#45;&gt;Node17</title>
<g id="a_edge16_Node000008_Node000017"><a xlink:title=" ">
<path fill="none" stroke="#63b8ff" d="M1154.54,-248.74C1131.26,-240.53 1098.6,-226.75 1074.5,-207.5 1052.66,-190.05 1034.14,-163.34 1023.17,-145.47"/>
<polygon fill="#63b8ff" stroke="#63b8ff" points="1026.24,-143.77 1018.13,-136.95 1020.21,-147.34 1026.24,-143.77"/>
</a>
</g>
</g>
<!-- Node18 -->
<g id="Node000018" class="node">
<title>Node18</title>
<g id="a_Node000018"><a xlink:title=" ">
<polygon fill="#e0e0e0" stroke="#999999" points="1111.9,-201.88 1083.1,-201.88 1083.1,-182.62 1111.9,-182.62 1111.9,-201.88"/>
<text text-anchor="middle" x="1097.5" y="-188.38" font-family="Helvetica,sans-Serif" font-size="10.00">list</text>
</a>
</g>
</g>
<!-- Node8&#45;&gt;Node18 -->
<g id="edge17_Node000008_Node000018" class="edge">
<title>Node8&#45;&gt;Node18</title>
<g id="a_edge17_Node000008_Node000018"><a xlink:title=" ">
<path fill="none" stroke="#63b8ff" d="M1171.54,-248.78C1157.88,-238.54 1135.28,-221.59 1118.63,-209.1"/>
<polygon fill="#63b8ff" stroke="#63b8ff" points="1120.94,-206.46 1110.84,-203.26 1116.74,-212.06 1120.94,-206.46"/>
</a>
</g>
</g>
<!-- Node19 -->
<g id="Node000019" class="node">
<title>Node19</title>
<g id="a_Node000019"><a xlink:href="IssueFactory_8hpp.html" target="_top" xlink:title=" ">
<polygon fill="white" stroke="#666666" points="1236.88,-201.88 1130.12,-201.88 1130.12,-182.62 1236.88,-182.62 1236.88,-201.88"/>
<text text-anchor="middle" x="1183.5" y="-188.38" font-family="Helvetica,sans-Serif" font-size="10.00">ers/IssueFactory.hpp</text>
</a>
</g>
</g>
<!-- Node8&#45;&gt;Node19 -->
<g id="edge18_Node000008_Node000019" class="edge">
<title>Node8&#45;&gt;Node19</title>
<g id="a_edge18_Node000008_Node000019"><a xlink:title=" ">
<path fill="none" stroke="#63b8ff" d="M1183.5,-248.78C1183.5,-239.73 1183.5,-225.45 1183.5,-213.63"/>
<polygon fill="#63b8ff" stroke="#63b8ff" points="1187,-213.66 1183.5,-203.66 1180,-213.66 1187,-213.66"/>
</a>
</g>
</g>
<!-- Node21 -->
<g id="Node000021" class="node">
<title>Node21</title>
<g id="a_Node000021"><a xlink:href="Severity_8hpp.html" target="_top" xlink:title=" ">
<polygon fill="white" stroke="#666666" points="1317.38,-135.38 1231.62,-135.38 1231.62,-116.12 1317.38,-116.12 1317.38,-135.38"/>
<text text-anchor="middle" x="1274.5" y="-121.88" font-family="Helvetica,sans-Serif" font-size="10.00">ers/Severity.hpp</text>
</a>
</g>
</g>
<!-- Node8&#45;&gt;Node21 -->
<g id="edge35_Node000008_Node000021" class="edge">
<title>Node8&#45;&gt;Node21</title>
<g id="a_edge35_Node000008_Node000021"><a xlink:title=" ">
<path fill="none" stroke="#63b8ff" d="M1199.03,-248.63C1212.96,-239.74 1233.07,-225.01 1245.5,-207.5 1258.62,-189.02 1266.39,-163.98 1270.53,-146.71"/>
<polygon fill="#63b8ff" stroke="#63b8ff" points="1273.95,-147.48 1272.66,-136.96 1267.11,-145.99 1273.95,-147.48"/>
</a>
</g>
</g>
<!-- Node22 -->
<g id="Node000022" class="node">
<title>Node22</title>
<g id="a_Node000022"><a xlink:href="LocalContext_8hpp.html" target="_top" xlink:title=" ">
<polygon fill="white" stroke="#666666" points="1400.25,-201.88 1292.75,-201.88 1292.75,-182.62 1400.25,-182.62 1400.25,-201.88"/>
<text text-anchor="middle" x="1346.5" y="-188.38" font-family="Helvetica,sans-Serif" font-size="10.00">ers/LocalContext.hpp</text>
</a>
</g>
</g>
<!-- Node8&#45;&gt;Node22 -->
<g id="edge27_Node000008_Node000022" class="edge">
<title>Node8&#45;&gt;Node22</title>
<g id="a_edge27_Node000008_Node000022"><a xlink:title=" ">
<path fill="none" stroke="#63b8ff" d="M1206.51,-248.65C1234.3,-237.65 1281.26,-219.06 1313.05,-206.49"/>
<polygon fill="#63b8ff" stroke="#63b8ff" points="1314.19,-209.8 1322.2,-202.87 1311.62,-203.29 1314.19,-209.8"/>
</a>
</g>
</g>
<!-- Node27 -->
<g id="Node000027" class="node">
<title>Node27</title>
<g id="a_Node000027"><a xlink:href="IssueDeclarationMacro_8hpp.html" target="_top" xlink:title=" ">
<polygon fill="white" stroke="#666666" points="1749.38,-207.5 1609.62,-207.5 1609.62,-177 1749.38,-177 1749.38,-207.5"/>
<text text-anchor="start" x="1617.62" y="-194" font-family="Helvetica,sans-Serif" font-size="10.00">ers/internal/IssueDeclaration</text>
<text text-anchor="middle" x="1679.5" y="-182.75" font-family="Helvetica,sans-Serif" font-size="10.00">Macro.hpp</text>
</a>
</g>
</g>
<!-- Node8&#45;&gt;Node27 -->
<g id="edge36_Node000008_Node000027" class="edge">
<title>Node8&#45;&gt;Node27</title>
<g id="a_edge36_Node000008_Node000027"><a xlink:title=" ">
<path fill="none" stroke="#63b8ff" d="M1220.98,-253.98C1292.27,-246.64 1452.56,-229.38 1597.99,-207.82"/>
<polygon fill="#63b8ff" stroke="#63b8ff" points="1598.45,-211.29 1607.83,-206.35 1597.42,-204.37 1598.45,-211.29"/>
</a>
</g>
</g>
<!-- Node19&#45;&gt;Node12 -->
<g id="edge22_Node000019_Node000012" class="edge">
<title>Node19&#45;&gt;Node12</title>
<g id="a_edge22_Node000019_Node000012"><a xlink:title=" ">
<path fill="none" stroke="#63b8ff" d="M1144.47,-182.16C1089.9,-169.37 995.72,-146.94 980.5,-141 980.27,-140.91 980.04,-140.82 979.82,-140.73"/>
<polygon fill="#63b8ff" stroke="#63b8ff" points="981.48,-137.65 970.95,-136.52 978.48,-143.97 981.48,-137.65"/>
</a>
</g>
</g>
<!-- Node19&#45;&gt;Node13 -->
<g id="edge20_Node000019_Node000013" class="edge">
<title>Node19&#45;&gt;Node13</title>
<g id="a_edge20_Node000019_Node000013"><a xlink:title=" ">
<path fill="none" stroke="#63b8ff" d="M1154.54,-182.21C1132.64,-174.2 1102.96,-160.7 1082.5,-141 1066.31,-125.41 1054.93,-102.01 1048.34,-85.48"/>
<polygon fill="#63b8ff" stroke="#63b8ff" points="1051.68,-84.43 1044.91,-76.28 1045.12,-86.87 1051.68,-84.43"/>
</a>
</g>
</g>
<!-- Node19&#45;&gt;Node17 -->
<g id="edge19_Node000019_Node000017" class="edge">
<title>Node19&#45;&gt;Node17</title>
<g id="a_edge19_Node000019_Node000017"><a xlink:title=" ">
<path fill="none" stroke="#63b8ff" d="M1159.27,-182.24C1132.41,-172.23 1087.82,-155.56 1049.5,-141 1048.37,-140.57 1047.23,-140.14 1046.07,-139.69"/>
<polygon fill="#63b8ff" stroke="#63b8ff" points="1047.58,-136.53 1036.99,-136.22 1045.08,-143.06 1047.58,-136.53"/>
</a>
</g>
</g>
<!-- Node19&#45;&gt;Node20 -->
<g id="edge21_Node000019_Node000020" class="edge">
<title>Node19&#45;&gt;Node20</title>
<g id="a_edge21_Node000019_Node000020"><a xlink:title=" ">
<path fill="none" stroke="#63b8ff" d="M1186.52,-182.23C1193.27,-162.08 1209.71,-113.01 1218.94,-85.46"/>
<polygon fill="#63b8ff" stroke="#63b8ff" points="1222.17,-86.84 1222.03,-76.25 1215.53,-84.62 1222.17,-86.84"/>
</a>
</g>
</g>
<!-- Node19&#45;&gt;Node21 -->
<g id="edge23_Node000019_Node000021" class="edge">
<title>Node19&#45;&gt;Node21</title>
<g id="a_edge23_Node000019_Node000021"><a xlink:title=" ">
<path fill="none" stroke="#63b8ff" d="M1196.15,-182.28C1210.74,-171.94 1234.97,-154.77 1252.63,-142.25"/>
<polygon fill="#63b8ff" stroke="#63b8ff" points="1254.29,-145.36 1260.43,-136.73 1250.24,-139.65 1254.29,-145.36"/>
</a>
</g>
</g>
<!-- Node21&#45;&gt;Node13 -->
<g id="edge24_Node000021_Node000013" class="edge">
<title>Node21&#45;&gt;Node13</title>
<g id="a_edge24_Node000021_Node000013"><a xlink:title=" ">
<path fill="none" stroke="#63b8ff" d="M1235.25,-115.67C1196.32,-106.53 1134.73,-91.73 1072.54,-74.96"/>
<polygon fill="#63b8ff" stroke="#63b8ff" points="1073.77,-71.67 1063.21,-72.43 1071.94,-78.42 1073.77,-71.67"/>
</a>
</g>
</g>
<!-- Node21&#45;&gt;Node14 -->
<g id="edge26_Node000021_Node000014" class="edge">
<title>Node21&#45;&gt;Node14</title>
<g id="a_edge26_Node000021_Node000014"><a xlink:title=" ">
<path fill="none" stroke="#63b8ff" d="M1274.55,-115.84C1274.15,-101.29 1271.27,-72.36 1255.5,-55.25 1233.61,-31.5 1198.09,-20.37 1170.83,-15.16"/>
<polygon fill="#63b8ff" stroke="#63b8ff" points="1171.66,-11.75 1161.22,-13.53 1170.49,-18.65 1171.66,-11.75"/>
</a>
</g>
</g>
<!-- Node21&#45;&gt;Node20 -->
<g id="edge25_Node000021_Node000020" class="edge">
<title>Node21&#45;&gt;Node20</title>
<g id="a_edge25_Node000021_Node000020"><a xlink:title=" ">
<path fill="none" stroke="#63b8ff" d="M1267.06,-115.81C1259.93,-107.25 1248.99,-94.1 1240.12,-83.45"/>
<polygon fill="#63b8ff" stroke="#63b8ff" points="1243.07,-81.51 1233.98,-76.06 1237.69,-85.99 1243.07,-81.51"/>
</a>
</g>
</g>
<!-- Node23 -->
<g id="Node000023" class="node">
<title>Node23</title>
<g id="a_Node000023"><a xlink:title=" ">
<polygon fill="#e0e0e0" stroke="#999999" points="1399.88,-135.38 1335.12,-135.38 1335.12,-116.12 1399.88,-116.12 1399.88,-135.38"/>
<text text-anchor="middle" x="1367.5" y="-121.88" font-family="Helvetica,sans-Serif" font-size="10.00">sys/types.h</text>
</a>
</g>
</g>
<!-- Node22&#45;&gt;Node23 -->
<g id="edge28_Node000022_Node000023" class="edge">
<title>Node22&#45;&gt;Node23</title>
<g id="a_edge28_Node000022_Node000023"><a xlink:title=" ">
<path fill="none" stroke="#63b8ff" d="M1349.42,-182.28C1352.43,-173.04 1357.22,-158.33 1361.11,-146.38"/>
<polygon fill="#63b8ff" stroke="#63b8ff" points="1364.37,-147.67 1364.14,-137.08 1357.71,-145.51 1364.37,-147.67"/>
</a>
</g>
</g>
<!-- Node24 -->
<g id="Node000024" class="node">
<title>Node24</title>
<g id="a_Node000024"><a xlink:title=" ">
<polygon fill="#e0e0e0" stroke="#999999" points="1467.38,-135.38 1417.62,-135.38 1417.62,-116.12 1467.38,-116.12 1467.38,-135.38"/>
<text text-anchor="middle" x="1442.5" y="-121.88" font-family="Helvetica,sans-Serif" font-size="10.00">unistd.h</text>
</a>
</g>
</g>
<!-- Node22&#45;&gt;Node24 -->
<g id="edge29_Node000022_Node000024" class="edge">
<title>Node22&#45;&gt;Node24</title>
<g id="a_edge29_Node000022_Node000024"><a xlink:title=" ">
<path fill="none" stroke="#63b8ff" d="M1359.85,-182.28C1375.24,-171.94 1400.8,-154.77 1419.43,-142.25"/>
<polygon fill="#63b8ff" stroke="#63b8ff" points="1421.35,-145.18 1427.7,-136.69 1417.45,-139.37 1421.35,-145.18"/>
</a>
</g>
</g>
<!-- Node25 -->
<g id="Node000025" class="node">
<title>Node25</title>
<g id="a_Node000025"><a xlink:href="Context_8hpp.html" target="_top" xlink:title=" ">
<polygon fill="white" stroke="#666666" points="1175.25,-135.38 1091.75,-135.38 1091.75,-116.12 1175.25,-116.12 1175.25,-135.38"/>
<text text-anchor="middle" x="1133.5" y="-121.88" font-family="Helvetica,sans-Serif" font-size="10.00">ers/Context.hpp</text>
</a>
</g>
</g>
<!-- Node22&#45;&gt;Node25 -->
<g id="edge30_Node000022_Node000025" class="edge">
<title>Node22&#45;&gt;Node25</title>
<g id="a_edge30_Node000022_Node000025"><a xlink:title=" ">
<path fill="none" stroke="#63b8ff" d="M1316.43,-182.15C1279.25,-170.89 1215.79,-151.67 1174.25,-139.09"/>
<polygon fill="#63b8ff" stroke="#63b8ff" points="1175.45,-135.8 1164.86,-136.25 1173.42,-142.49 1175.45,-135.8"/>
</a>
</g>
</g>
<!-- Node25&#45;&gt;Node13 -->
<g id="edge31_Node000025_Node000013" class="edge">
<title>Node25&#45;&gt;Node13</title>
<g id="a_edge31_Node000025_Node000013"><a xlink:title=" ">
<path fill="none" stroke="#63b8ff" d="M1119.53,-115.81C1105.07,-106.56 1082.24,-91.95 1065,-80.92"/>
<polygon fill="#63b8ff" stroke="#63b8ff" points="1067.19,-78.16 1056.88,-75.72 1063.42,-84.06 1067.19,-78.16"/>
</a>
</g>
</g>
<!-- Node25&#45;&gt;Node20 -->
<g id="edge32_Node000025_Node000020" class="edge">
<title>Node25&#45;&gt;Node20</title>
<g id="a_edge32_Node000025_Node000020"><a xlink:title=" ">
<path fill="none" stroke="#63b8ff" d="M1147.47,-115.81C1161.93,-106.56 1184.76,-91.95 1202,-80.92"/>
<polygon fill="#63b8ff" stroke="#63b8ff" points="1203.58,-84.06 1210.12,-75.72 1199.81,-78.16 1203.58,-84.06"/>
</a>
</g>
</g>
<!-- Node26 -->
<g id="Node000026" class="node">
<title>Node26</title>
<g id="a_Node000026"><a xlink:href="ers_2include_2ers_2Configuration_8hpp.html" target="_top" xlink:title=" ">
<polygon fill="white" stroke="#666666" points="1185.88,-74.5 1079.12,-74.5 1079.12,-55.25 1185.88,-55.25 1185.88,-74.5"/>
<text text-anchor="middle" x="1132.5" y="-61" font-family="Helvetica,sans-Serif" font-size="10.00">ers/Configuration.hpp</text>
</a>
</g>
</g>
<!-- Node25&#45;&gt;Node26 -->
<g id="edge33_Node000025_Node000026" class="edge">
<title>Node25&#45;&gt;Node26</title>
<g id="a_edge33_Node000025_Node000026"><a xlink:title=" ">
<path fill="none" stroke="#63b8ff" d="M1133.35,-115.81C1133.22,-108.03 1133.02,-96.45 1132.85,-86.41"/>
<polygon fill="#63b8ff" stroke="#63b8ff" points="1136.35,-86.35 1132.68,-76.41 1129.35,-86.47 1136.35,-86.35"/>
</a>
</g>
</g>
<!-- Node26&#45;&gt;Node14 -->
<g id="edge34_Node000026_Node000014" class="edge">
<title>Node26&#45;&gt;Node14</title>
<g id="a_edge34_Node000026_Node000014"><a xlink:title=" ">
<path fill="none" stroke="#63b8ff" d="M1132.5,-55.08C1132.5,-48.57 1132.5,-39.42 1132.5,-31.12"/>
<polygon fill="#63b8ff" stroke="#63b8ff" points="1136,-31.12 1132.5,-21.12 1129,-31.12 1136,-31.12"/>
</a>
</g>
</g>
<!-- Node28 -->
<g id="Node000028" class="node">
<title>Node28</title>
<g id="a_Node000028"><a xlink:title=" ">
<polygon fill="#e0e0e0" stroke="#999999" points="1585.12,-141 1485.88,-141 1485.88,-110.5 1585.12,-110.5 1585.12,-141"/>
<text text-anchor="start" x="1493.88" y="-127.5" font-family="Helvetica,sans-Serif" font-size="10.00">boost/preprocessor</text>
<text text-anchor="middle" x="1535.5" y="-116.25" font-family="Helvetica,sans-Serif" font-size="10.00">/if.hpp</text>
</a>
</g>
</g>
<!-- Node27&#45;&gt;Node28 -->
<g id="edge37_Node000027_Node000028" class="edge">
<title>Node27&#45;&gt;Node28</title>
<g id="a_edge37_Node000027_Node000028"><a xlink:title=" ">
<path fill="none" stroke="#63b8ff" d="M1646.82,-176.61C1626.57,-167.54 1600.33,-155.79 1578.41,-145.97"/>
<polygon fill="#63b8ff" stroke="#63b8ff" points="1579.98,-142.84 1569.43,-141.95 1577.12,-149.23 1579.98,-142.84"/>
</a>
</g>
</g>
<!-- Node29 -->
<g id="Node000029" class="node">
<title>Node29</title>
<g id="a_Node000029"><a xlink:title=" ">
<polygon fill="#e0e0e0" stroke="#999999" points="1702.12,-141 1602.88,-141 1602.88,-110.5 1702.12,-110.5 1702.12,-141"/>
<text text-anchor="start" x="1610.88" y="-127.5" font-family="Helvetica,sans-Serif" font-size="10.00">boost/preprocessor</text>
<text text-anchor="middle" x="1652.5" y="-116.25" font-family="Helvetica,sans-Serif" font-size="10.00">/seq.hpp</text>
</a>
</g>
</g>
<!-- Node27&#45;&gt;Node29 -->
<g id="edge38_Node000027_Node000029" class="edge">
<title>Node27&#45;&gt;Node29</title>
<g id="a_edge38_Node000027_Node000029"><a xlink:title=" ">
<path fill="none" stroke="#63b8ff" d="M1673.37,-176.61C1670.3,-169.27 1666.49,-160.18 1662.98,-151.77"/>
<polygon fill="#63b8ff" stroke="#63b8ff" points="1666.28,-150.6 1659.19,-142.72 1659.82,-153.3 1666.28,-150.6"/>
</a>
</g>
</g>
<!-- Node30 -->
<g id="Node000030" class="node">
<title>Node30</title>
<g id="a_Node000030"><a xlink:title=" ">
<polygon fill="#e0e0e0" stroke="#999999" points="1819.12,-141 1719.88,-141 1719.88,-110.5 1819.12,-110.5 1819.12,-141"/>
<text text-anchor="start" x="1727.88" y="-127.5" font-family="Helvetica,sans-Serif" font-size="10.00">boost/preprocessor</text>
<text text-anchor="middle" x="1769.5" y="-116.25" font-family="Helvetica,sans-Serif" font-size="10.00">/tuple.hpp</text>
</a>
</g>
</g>
<!-- Node27&#45;&gt;Node30 -->
<g id="edge39_Node000027_Node000030" class="edge">
<title>Node27&#45;&gt;Node30</title>
<g id="a_edge39_Node000027_Node000030"><a xlink:title=" ">
<path fill="none" stroke="#63b8ff" d="M1699.92,-176.61C1711.77,-168.12 1726.91,-157.27 1740.03,-147.87"/>
<polygon fill="#63b8ff" stroke="#63b8ff" points="1741.84,-150.88 1747.93,-142.21 1737.76,-145.19 1741.84,-150.88"/>
</a>
</g>
</g>
<!-- Node31 -->
<g id="Node000031" class="node">
<title>Node31</title>
<g id="a_Node000031"><a xlink:title=" ">
<polygon fill="#e0e0e0" stroke="#999999" points="1936.12,-141 1836.88,-141 1836.88,-110.5 1936.12,-110.5 1936.12,-141"/>
<text text-anchor="start" x="1844.88" y="-127.5" font-family="Helvetica,sans-Serif" font-size="10.00">boost/preprocessor</text>
<text text-anchor="middle" x="1886.5" y="-116.25" font-family="Helvetica,sans-Serif" font-size="10.00">/logical.hpp</text>
</a>
</g>
</g>
<!-- Node27&#45;&gt;Node31 -->
<g id="edge40_Node000027_Node000031" class="edge">
<title>Node27&#45;&gt;Node31</title>
<g id="a_edge40_Node000027_Node000031"><a xlink:title=" ">
<path fill="none" stroke="#63b8ff" d="M1726.73,-176.53C1757.07,-167.08 1796.68,-154.74 1828.86,-144.71"/>
<polygon fill="#63b8ff" stroke="#63b8ff" points="1829.52,-148.17 1838.03,-141.85 1827.44,-141.49 1829.52,-148.17"/>
</a>
</g>
</g>
<!-- Node32 -->
<g id="Node000032" class="node">
<title>Node32</title>
<g id="a_Node000032"><a xlink:title=" ">
<polygon fill="#e0e0e0" stroke="#999999" points="2053.12,-141 1953.88,-141 1953.88,-110.5 2053.12,-110.5 2053.12,-141"/>
<text text-anchor="start" x="1961.88" y="-127.5" font-family="Helvetica,sans-Serif" font-size="10.00">boost/preprocessor</text>
<text text-anchor="middle" x="2003.5" y="-116.25" font-family="Helvetica,sans-Serif" font-size="10.00">/stringize.hpp</text>
</a>
</g>
</g>
<!-- Node27&#45;&gt;Node32 -->
<g id="edge41_Node000027_Node000032" class="edge">
<title>Node27&#45;&gt;Node32</title>
<g id="a_edge41_Node000027_Node000032"><a xlink:title=" ">
<path fill="none" stroke="#63b8ff" d="M1749.71,-178.43C1810.5,-167.26 1894.96,-151.54 1942.56,-141.55"/>
<polygon fill="#63b8ff" stroke="#63b8ff" points="1943.02,-145.03 1952.07,-139.52 1941.56,-138.19 1943.02,-145.03"/>
</a>
</g>
</g>
<!-- Node33 -->
<g id="Node000033" class="node">
<title>Node33</title>
<g id="a_Node000033"><a xlink:title=" ">
<polygon fill="#e0e0e0" stroke="#999999" points="2170.12,-141 2070.88,-141 2070.88,-110.5 2170.12,-110.5 2170.12,-141"/>
<text text-anchor="start" x="2078.88" y="-127.5" font-family="Helvetica,sans-Serif" font-size="10.00">boost/preprocessor</text>
<text text-anchor="middle" x="2120.5" y="-116.25" font-family="Helvetica,sans-Serif" font-size="10.00">/comparison.hpp</text>
</a>
</g>
</g>
<!-- Node27&#45;&gt;Node33 -->
<g id="edge42_Node000027_Node000033" class="edge">
<title>Node27&#45;&gt;Node33</title>
<g id="a_edge42_Node000027_Node000033"><a xlink:title=" ">
<path fill="none" stroke="#63b8ff" d="M1749.67,-178.36C1752.65,-177.89 1755.61,-177.43 1758.5,-177 1889.52,-157.44 1926.68,-164.86 2059.59,-141.4"/>
<polygon fill="#63b8ff" stroke="#63b8ff" points="2059.88,-144.9 2069.11,-139.69 2058.65,-138.01 2059.88,-144.9"/>
</a>
</g>
</g>
</g>
</svg>
