<?xml version="1.0" encoding="UTF-8" standalone="no"?>
<!DOCTYPE svg PUBLIC "-//W3C//DTD SVG 1.1//EN"
 "http://www.w3.org/Graphics/SVG/1.1/DTD/svg11.dtd">
<!-- Generated by graphviz version 9.0.0 (20230911.1827)
 -->
<!-- Title: sourcecode/timinglibs/include/timinglibs/TimingHardwareInterface.hpp Pages: 1 -->
<svg width="352pt" height="183pt"
 viewBox="0.00 0.00 351.62 182.75" xmlns="http://www.w3.org/2000/svg" xmlns:xlink="http://www.w3.org/1999/xlink">
<g id="graph0" class="graph" transform="scale(1 1) rotate(0) translate(4 178.75)">
<title>sourcecode/timinglibs/include/timinglibs/TimingHardwareInterface.hpp</title>
<!-- Node1 -->
<g id="Node000001" class="node">
<title>Node1</title>
<g id="a_Node000001"><a xlink:title=" ">
<polygon fill="#999999" stroke="#666666" points="255.62,-174.75 87.38,-174.75 87.38,-133 255.62,-133 255.62,-174.75"/>
<text text-anchor="start" x="95.38" y="-161.25" font-family="Helvetica,sans-Serif" font-size="10.00">sourcecode/timinglibs</text>
<text text-anchor="start" x="95.38" y="-150" font-family="Helvetica,sans-Serif" font-size="10.00">/include/timinglibs/TimingHardware</text>
<text text-anchor="middle" x="171.5" y="-138.75" font-family="Helvetica,sans-Serif" font-size="10.00">Interface.hpp</text>
</a>
</g>
</g>
<!-- Node2 -->
<g id="Node000002" class="node">
<title>Node2</title>
<g id="a_Node000002"><a xlink:href="TimingHardwareInterface_8cpp.html" target="_top" xlink:title=" ">
<polygon fill="white" stroke="#666666" points="163,-97 0,-97 0,-66.5 163,-66.5 163,-97"/>
<text text-anchor="start" x="8" y="-83.5" font-family="Helvetica,sans-Serif" font-size="10.00">sourcecode/timinglibs</text>
<text text-anchor="middle" x="81.5" y="-72.25" font-family="Helvetica,sans-Serif" font-size="10.00">/src/TimingHardwareInterface.cpp</text>
</a>
</g>
</g>
<!-- Node1&#45;&gt;Node2 -->
<g id="edge1_Node000001_Node000002" class="edge">
<title>Node1&#45;&gt;Node2</title>
<g id="a_edge1_Node000001_Node000002"><a xlink:title=" ">
<path fill="none" stroke="#63b8ff" d="M136.7,-125.76C124.33,-116.12 110.86,-105.63 100.33,-97.42"/>
<polygon fill="#63b8ff" stroke="#63b8ff" points="134.23,-128.28 144.27,-131.66 138.54,-122.75 134.23,-128.28"/>
</a>
</g>
</g>
<!-- Node3 -->
<g id="Node000003" class="node">
<title>Node3</title>
<g id="a_Node000003"><a xlink:href="TimingHardwareManager_8hpp.html" target="_top" xlink:title=" ">
<polygon fill="white" stroke="#666666" points="343.62,-97 181.38,-97 181.38,-66.5 343.62,-66.5 343.62,-97"/>
<text text-anchor="start" x="189.38" y="-83.5" font-family="Helvetica,sans-Serif" font-size="10.00">sourcecode/timinglibs</text>
<text text-anchor="middle" x="262.5" y="-72.25" font-family="Helvetica,sans-Serif" font-size="10.00">/src/TimingHardwareManager.hpp</text>
</a>
</g>
</g>
<!-- Node1&#45;&gt;Node3 -->
<g id="edge2_Node000001_Node000003" class="edge">
<title>Node1&#45;&gt;Node3</title>
<g id="a_edge2_Node000001_Node000003"><a xlink:title=" ">
<path fill="none" stroke="#63b8ff" d="M206.68,-125.76C219.2,-116.12 232.81,-105.63 243.46,-97.42"/>
<polygon fill="#63b8ff" stroke="#63b8ff" points="204.8,-122.79 199.02,-131.67 209.08,-128.34 204.8,-122.79"/>
</a>
</g>
</g>
<!-- Node4 -->
<g id="Node000004" class="node">
<title>Node4</title>
<g id="a_Node000004"><a xlink:href="TimingHardwareManager_8cpp.html" target="_top" xlink:title=" ">
<polygon fill="white" stroke="#666666" points="343.62,-30.5 181.38,-30.5 181.38,0 343.62,0 343.62,-30.5"/>
<text text-anchor="start" x="189.38" y="-17" font-family="Helvetica,sans-Serif" font-size="10.00">sourcecode/timinglibs</text>
<text text-anchor="middle" x="262.5" y="-5.75" font-family="Helvetica,sans-Serif" font-size="10.00">/src/TimingHardwareManager.cpp</text>
</a>
</g>
</g>
<!-- Node3&#45;&gt;Node4 -->
<g id="edge3_Node000003_Node000004" class="edge">
<title>Node3&#45;&gt;Node4</title>
<g id="a_edge3_Node000003_Node000004"><a xlink:title=" ">
<path fill="none" stroke="#63b8ff" d="M262.5,-54.81C262.5,-46.64 262.5,-37.91 262.5,-30.83"/>
<polygon fill="#63b8ff" stroke="#63b8ff" points="259,-54.6 262.5,-64.6 266,-54.6 259,-54.6"/>
</a>
</g>
</g>
</g>
</svg>
