<?xml version="1.0" encoding="UTF-8" standalone="no"?>
<!DOCTYPE svg PUBLIC "-//W3C//DTD SVG 1.1//EN"
 "http://www.w3.org/Graphics/SVG/1.1/DTD/svg11.dtd">
<!-- Generated by graphviz version 9.0.0 (20230911.1827)
 -->
<!-- Title: sourcecode/timing/include/timing/TopDesignInterface.hpp Pages: 1 -->
<svg width="1897pt" height="438pt"
 viewBox="0.00 0.00 1896.80 437.50" xmlns="http://www.w3.org/2000/svg" xmlns:xlink="http://www.w3.org/1999/xlink">
<g id="graph0" class="graph" transform="scale(1 1) rotate(0) translate(4 433.5)">
<title>sourcecode/timing/include/timing/TopDesignInterface.hpp</title>
<!-- Node1 -->
<g id="Node000001" class="node">
<title>Node1</title>
<g id="a_Node000001"><a xlink:title=" ">
<polygon fill="#999999" stroke="#666666" points="827.62,-429.5 676.62,-429.5 676.62,-399 827.62,-399 827.62,-429.5"/>
<text text-anchor="start" x="684.62" y="-416" font-family="Helvetica,sans-Serif" font-size="10.00">sourcecode/timing/include</text>
<text text-anchor="middle" x="752.12" y="-404.75" font-family="Helvetica,sans-Serif" font-size="10.00">/timing/TopDesignInterface.hpp</text>
</a>
</g>
</g>
<!-- Node2 -->
<g id="Node000002" class="node">
<title>Node2</title>
<g id="a_Node000002"><a xlink:href="EndpointDesignInterface_8hpp.html" target="_top" xlink:title=" ">
<polygon fill="white" stroke="#666666" points="779.12,-230 607.12,-230 607.12,-199.5 779.12,-199.5 779.12,-230"/>
<text text-anchor="start" x="615.12" y="-216.5" font-family="Helvetica,sans-Serif" font-size="10.00">sourcecode/timing/include</text>
<text text-anchor="middle" x="693.12" y="-205.25" font-family="Helvetica,sans-Serif" font-size="10.00">/timing/EndpointDesignInterface.hpp</text>
</a>
</g>
</g>
<!-- Node1&#45;&gt;Node2 -->
<g id="edge1_Node000001_Node000002" class="edge">
<title>Node1&#45;&gt;Node2</title>
<g id="a_edge1_Node000001_Node000002"><a xlink:title=" ">
<path fill="none" stroke="#63b8ff" d="M744.44,-387.67C737.34,-364.02 726.5,-327.9 717.12,-296.5 710.22,-273.38 702.25,-246.52 697.45,-230.34"/>
<polygon fill="#63b8ff" stroke="#63b8ff" points="741.03,-388.49 747.26,-397.06 747.73,-386.48 741.03,-388.49"/>
</a>
</g>
</g>
<!-- Node19 -->
<g id="Node000019" class="node">
<title>Node19</title>
<g id="a_Node000019"><a xlink:href="TimingHardwareManager_8hpp.html" target="_top" xlink:title=" ">
<polygon fill="white" stroke="#666666" points="162.25,-97 0,-97 0,-66.5 162.25,-66.5 162.25,-97"/>
<text text-anchor="start" x="8" y="-83.5" font-family="Helvetica,sans-Serif" font-size="10.00">sourcecode/timinglibs</text>
<text text-anchor="middle" x="81.12" y="-72.25" font-family="Helvetica,sans-Serif" font-size="10.00">/src/TimingHardwareManager.hpp</text>
</a>
</g>
</g>
<!-- Node1&#45;&gt;Node19 -->
<g id="edge61_Node000001_Node000019" class="edge">
<title>Node1&#45;&gt;Node19</title>
<g id="a_edge61_Node000001_Node000019"><a xlink:title=" ">
<path fill="none" stroke="#63b8ff" d="M664.7,-413.37C489.52,-411.24 112.12,-393.73 112.12,-282.25 112.12,-282.25 112.12,-282.25 112.12,-213.75 112.12,-170.51 95.94,-121.35 86.96,-97.41"/>
<polygon fill="#63b8ff" stroke="#63b8ff" points="664.65,-416.87 674.68,-413.48 664.72,-409.87 664.65,-416.87"/>
</a>
</g>
</g>
<!-- Node28 -->
<g id="Node000028" class="node">
<title>Node28</title>
<g id="a_Node000028"><a xlink:href="MuxDesignInterface_8hpp.html" target="_top" xlink:title=" ">
<polygon fill="white" stroke="#666666" points="878.38,-296.5 725.88,-296.5 725.88,-266 878.38,-266 878.38,-296.5"/>
<text text-anchor="start" x="733.88" y="-283" font-family="Helvetica,sans-Serif" font-size="10.00">sourcecode/timing/include</text>
<text text-anchor="middle" x="802.12" y="-271.75" font-family="Helvetica,sans-Serif" font-size="10.00">/timing/MuxDesignInterface.hpp</text>
</a>
</g>
</g>
<!-- Node1&#45;&gt;Node28 -->
<g id="edge39_Node000001_Node000028" class="edge">
<title>Node1&#45;&gt;Node28</title>
<g id="a_edge39_Node000001_Node000028"><a xlink:title=" ">
<path fill="none" stroke="#63b8ff" d="M761.7,-388.16C772.03,-361.09 788.13,-318.91 796.56,-296.83"/>
<polygon fill="#63b8ff" stroke="#63b8ff" points="758.5,-386.73 758.21,-397.32 765.04,-389.22 758.5,-386.73"/>
</a>
</g>
</g>
<!-- Node31 -->
<g id="Node000031" class="node">
<title>Node31</title>
<g id="a_Node000031"><a xlink:href="TopDesign_8hpp.html" target="_top" xlink:title=" ">
<polygon fill="white" stroke="#666666" points="1195.75,-363 1066.5,-363 1066.5,-332.5 1195.75,-332.5 1195.75,-363"/>
<text text-anchor="start" x="1074.5" y="-349.5" font-family="Helvetica,sans-Serif" font-size="10.00">sourcecode/timing/include</text>
<text text-anchor="middle" x="1131.12" y="-338.25" font-family="Helvetica,sans-Serif" font-size="10.00">/timing/TopDesign.hpp</text>
</a>
</g>
</g>
<!-- Node1&#45;&gt;Node31 -->
<g id="edge46_Node000001_Node000031" class="edge">
<title>Node1&#45;&gt;Node31</title>
<g id="a_edge46_Node000001_Node000031"><a xlink:title=" ">
<path fill="none" stroke="#63b8ff" d="M839.21,-398.43C908.39,-386.66 1003.58,-370.46 1066.2,-359.8"/>
<polygon fill="#63b8ff" stroke="#63b8ff" points="838.67,-394.97 829.4,-400.1 839.85,-401.87 838.67,-394.97"/>
</a>
</g>
</g>
<!-- Node3 -->
<g id="Node000003" class="node">
<title>Node3</title>
<g id="a_Node000003"><a xlink:href="CRTDesignInterface_8hpp.html" target="_top" xlink:title=" ">
<polygon fill="white" stroke="#666666" points="1432.12,-163.5 1278.12,-163.5 1278.12,-133 1432.12,-133 1432.12,-163.5"/>
<text text-anchor="start" x="1286.12" y="-150" font-family="Helvetica,sans-Serif" font-size="10.00">sourcecode/timing/include</text>
<text text-anchor="middle" x="1355.12" y="-138.75" font-family="Helvetica,sans-Serif" font-size="10.00">/timing/CRTDesignInterface.hpp</text>
</a>
</g>
</g>
<!-- Node2&#45;&gt;Node3 -->
<g id="edge2_Node000002_Node000003" class="edge">
<title>Node2&#45;&gt;Node3</title>
<g id="a_edge2_Node000002_Node000003"><a xlink:title=" ">
<path fill="none" stroke="#63b8ff" d="M790.55,-205.28C898.37,-195.76 1077.25,-179.53 1231.12,-163.5 1246.21,-161.93 1262.32,-160.15 1277.76,-158.4"/>
<polygon fill="#63b8ff" stroke="#63b8ff" points="790.53,-201.77 780.88,-206.13 791.15,-208.74 790.53,-201.77"/>
</a>
</g>
</g>
<!-- Node7 -->
<g id="Node000007" class="node">
<title>Node7</title>
<g id="a_Node000007"><a xlink:href="EndpointDesign_8hpp.html" target="_top" xlink:title=" ">
<polygon fill="white" stroke="#666666" points="1062,-163.5 928.25,-163.5 928.25,-133 1062,-133 1062,-163.5"/>
<text text-anchor="start" x="936.25" y="-150" font-family="Helvetica,sans-Serif" font-size="10.00">sourcecode/timing/include</text>
<text text-anchor="middle" x="995.12" y="-138.75" font-family="Helvetica,sans-Serif" font-size="10.00">/timing/EndpointDesign.hpp</text>
</a>
</g>
</g>
<!-- Node2&#45;&gt;Node7 -->
<g id="edge6_Node000002_Node000007" class="edge">
<title>Node2&#45;&gt;Node7</title>
<g id="a_edge6_Node000002_Node000007"><a xlink:title=" ">
<path fill="none" stroke="#63b8ff" d="M773.06,-196.68C821.29,-186.38 882.05,-173.4 927.81,-163.63"/>
<polygon fill="#63b8ff" stroke="#63b8ff" points="772.56,-193.21 763.51,-198.72 774.02,-200.05 772.56,-193.21"/>
</a>
</g>
</g>
<!-- Node11 -->
<g id="Node000011" class="node">
<title>Node11</title>
<g id="a_Node000011"><a xlink:href="FanoutDesign_8hpp.html" target="_top" xlink:title=" ">
<polygon fill="white" stroke="#666666" points="309.75,-97 180.5,-97 180.5,-66.5 309.75,-66.5 309.75,-97"/>
<text text-anchor="start" x="188.5" y="-83.5" font-family="Helvetica,sans-Serif" font-size="10.00">sourcecode/timing/include</text>
<text text-anchor="middle" x="245.12" y="-72.25" font-family="Helvetica,sans-Serif" font-size="10.00">/timing/FanoutDesign.hpp</text>
</a>
</g>
</g>
<!-- Node2&#45;&gt;Node11 -->
<g id="edge12_Node000002_Node000011" class="edge">
<title>Node2&#45;&gt;Node11</title>
<g id="a_edge12_Node000002_Node000011"><a xlink:title=" ">
<path fill="none" stroke="#63b8ff" d="M595.64,-199.43C547.37,-191.13 488.57,-179.19 437.12,-163.5 405.99,-154.01 323.72,-117.94 277.61,-97.37"/>
<polygon fill="#63b8ff" stroke="#63b8ff" points="594.78,-202.84 605.22,-201.05 595.95,-195.94 594.78,-202.84"/>
</a>
</g>
</g>
<!-- Node14 -->
<g id="Node000014" class="node">
<title>Node14</title>
<g id="a_Node000014"><a xlink:href="GaiaDesign_8hpp.html" target="_top" xlink:title=" ">
<polygon fill="white" stroke="#666666" points="456.75,-97 327.5,-97 327.5,-66.5 456.75,-66.5 456.75,-97"/>
<text text-anchor="start" x="335.5" y="-83.5" font-family="Helvetica,sans-Serif" font-size="10.00">sourcecode/timing/include</text>
<text text-anchor="middle" x="392.12" y="-72.25" font-family="Helvetica,sans-Serif" font-size="10.00">/timing/GaiaDesign.hpp</text>
</a>
</g>
</g>
<!-- Node2&#45;&gt;Node14 -->
<g id="edge16_Node000002_Node000014" class="edge">
<title>Node2&#45;&gt;Node14</title>
<g id="a_edge16_Node000002_Node000014"><a xlink:title=" ">
<path fill="none" stroke="#63b8ff" d="M595.64,-201.54C558.01,-194.11 515.57,-182.27 480.12,-163.5 448.42,-146.71 419.38,-115.74 403.88,-97.42"/>
<polygon fill="#63b8ff" stroke="#63b8ff" points="594.67,-204.92 605.15,-203.33 595.97,-198.04 594.67,-204.92"/>
</a>
</g>
</g>
<!-- Node16 -->
<g id="Node000016" class="node">
<title>Node16</title>
<g id="a_Node000016"><a xlink:href="HSIDesignInterface_8hpp.html" target="_top" xlink:title=" ">
<polygon fill="white" stroke="#666666" points="641,-163.5 489.25,-163.5 489.25,-133 641,-133 641,-163.5"/>
<text text-anchor="start" x="497.25" y="-150" font-family="Helvetica,sans-Serif" font-size="10.00">sourcecode/timing/include</text>
<text text-anchor="middle" x="565.12" y="-138.75" font-family="Helvetica,sans-Serif" font-size="10.00">/timing/HSIDesignInterface.hpp</text>
</a>
</g>
</g>
<!-- Node2&#45;&gt;Node16 -->
<g id="edge19_Node000002_Node000016" class="edge">
<title>Node2&#45;&gt;Node16</title>
<g id="a_edge19_Node000002_Node000016"><a xlink:title=" ">
<path fill="none" stroke="#63b8ff" d="M654.06,-194.06C634.72,-184.32 611.79,-172.76 594.06,-163.83"/>
<polygon fill="#63b8ff" stroke="#63b8ff" points="652.22,-197.06 662.73,-198.43 655.37,-190.81 652.22,-197.06"/>
</a>
</g>
</g>
<!-- Node2&#45;&gt;Node19 -->
<g id="edge38_Node000002_Node000019" class="edge">
<title>Node2&#45;&gt;Node19</title>
<g id="a_edge38_Node000002_Node000019"><a xlink:title=" ">
<path fill="none" stroke="#63b8ff" d="M595.66,-203.74C528.12,-195.7 436.44,-182.57 357.12,-163.5 315.65,-153.53 306.95,-145.37 266.12,-133 223.6,-120.11 175.12,-107 138.46,-97.4"/>
<polygon fill="#63b8ff" stroke="#63b8ff" points="594.86,-207.17 605.2,-204.86 595.68,-200.22 594.86,-207.17"/>
</a>
</g>
</g>
<!-- Node20 -->
<g id="Node000020" class="node">
<title>Node20</title>
<g id="a_Node000020"><a xlink:href="KerberosDesign_8hpp.html" target="_top" xlink:title=" ">
<polygon fill="white" stroke="#666666" points="760.75,-97 625.5,-97 625.5,-66.5 760.75,-66.5 760.75,-97"/>
<text text-anchor="start" x="633.5" y="-83.5" font-family="Helvetica,sans-Serif" font-size="10.00">sourcecode/timing/include</text>
<text text-anchor="middle" x="693.12" y="-72.25" font-family="Helvetica,sans-Serif" font-size="10.00">/timing/KerberosDesign.hpp</text>
</a>
</g>
</g>
<!-- Node2&#45;&gt;Node20 -->
<g id="edge26_Node000002_Node000020" class="edge">
<title>Node2&#45;&gt;Node20</title>
<g id="a_edge26_Node000002_Node000020"><a xlink:title=" ">
<path fill="none" stroke="#63b8ff" d="M693.12,-187.93C693.12,-160.84 693.12,-119.21 693.12,-97.33"/>
<polygon fill="#63b8ff" stroke="#63b8ff" points="689.63,-187.72 693.13,-197.72 696.63,-187.72 689.63,-187.72"/>
</a>
</g>
</g>
<!-- Node22 -->
<g id="Node000022" class="node">
<title>Node22</title>
<g id="a_Node000022"><a xlink:href="OuroborosDesign_8hpp.html" target="_top" xlink:title=" ">
<polygon fill="white" stroke="#666666" points="1221.75,-163.5 1080.5,-163.5 1080.5,-133 1221.75,-133 1221.75,-163.5"/>
<text text-anchor="start" x="1088.5" y="-150" font-family="Helvetica,sans-Serif" font-size="10.00">sourcecode/timing/include</text>
<text text-anchor="middle" x="1151.12" y="-138.75" font-family="Helvetica,sans-Serif" font-size="10.00">/timing/OuroborosDesign.hpp</text>
</a>
</g>
</g>
<!-- Node2&#45;&gt;Node22 -->
<g id="edge29_Node000002_Node000022" class="edge">
<title>Node2&#45;&gt;Node22</title>
<g id="a_edge29_Node000002_Node000022"><a xlink:title=" ">
<path fill="none" stroke="#63b8ff" d="M790.64,-201.99C867.07,-192.48 976.04,-178.28 1071.12,-163.5 1074.05,-163.04 1077.04,-162.57 1080.05,-162.08"/>
<polygon fill="#63b8ff" stroke="#63b8ff" points="790.6,-198.46 781.11,-203.17 791.46,-205.41 790.6,-198.46"/>
</a>
</g>
</g>
<!-- Node24 -->
<g id="Node000024" class="node">
<title>Node24</title>
<g id="a_Node000024"><a xlink:href="OuroborosMuxDesign_8hpp.html" target="_top" xlink:title=" ">
<polygon fill="white" stroke="#666666" points="1070.75,-97 911.5,-97 911.5,-66.5 1070.75,-66.5 1070.75,-97"/>
<text text-anchor="start" x="919.5" y="-83.5" font-family="Helvetica,sans-Serif" font-size="10.00">sourcecode/timing/include</text>
<text text-anchor="middle" x="991.12" y="-72.25" font-family="Helvetica,sans-Serif" font-size="10.00">/timing/OuroborosMuxDesign.hpp</text>
</a>
</g>
</g>
<!-- Node2&#45;&gt;Node24 -->
<g id="edge32_Node000002_Node000024" class="edge">
<title>Node2&#45;&gt;Node24</title>
<g id="a_edge32_Node000002_Node000024"><a xlink:title=" ">
<path fill="none" stroke="#63b8ff" d="M788.41,-196.4C819.01,-188.73 852.4,-178.05 881.12,-163.5 900.45,-153.72 901.79,-145.98 919.12,-133 935.72,-120.57 955,-107.17 969.43,-97.33"/>
<polygon fill="#63b8ff" stroke="#63b8ff" points="787.64,-192.99 778.75,-198.74 789.29,-199.79 787.64,-192.99"/>
</a>
</g>
</g>
<!-- Node26 -->
<g id="Node000026" class="node">
<title>Node26</title>
<g id="a_Node000026"><a xlink:href="OverlordDesign_8hpp.html" target="_top" xlink:title=" ">
<polygon fill="white" stroke="#666666" points="1583.62,-163.5 1450.62,-163.5 1450.62,-133 1583.62,-133 1583.62,-163.5"/>
<text text-anchor="start" x="1458.62" y="-150" font-family="Helvetica,sans-Serif" font-size="10.00">sourcecode/timing/include</text>
<text text-anchor="middle" x="1517.12" y="-138.75" font-family="Helvetica,sans-Serif" font-size="10.00">/timing/OverlordDesign.hpp</text>
</a>
</g>
</g>
<!-- Node2&#45;&gt;Node26 -->
<g id="edge35_Node000002_Node000026" class="edge">
<title>Node2&#45;&gt;Node26</title>
<g id="a_edge35_Node000002_Node000026"><a xlink:title=" ">
<path fill="none" stroke="#63b8ff" d="M790.89,-210.87C934.07,-205.82 1209.03,-192.95 1441.12,-163.5 1444.19,-163.11 1447.31,-162.68 1450.47,-162.21"/>
<polygon fill="#63b8ff" stroke="#63b8ff" points="790.93,-207.37 781.06,-211.21 791.17,-214.36 790.93,-207.37"/>
</a>
</g>
</g>
<!-- Node4 -->
<g id="Node000004" class="node">
<title>Node4</title>
<g id="a_Node000004"><a xlink:href="CRTDesign_8hpp.html" target="_top" xlink:title=" ">
<polygon fill="white" stroke="#666666" points="1870.75,-97 1741.5,-97 1741.5,-66.5 1870.75,-66.5 1870.75,-97"/>
<text text-anchor="start" x="1749.5" y="-83.5" font-family="Helvetica,sans-Serif" font-size="10.00">sourcecode/timing/include</text>
<text text-anchor="middle" x="1806.12" y="-72.25" font-family="Helvetica,sans-Serif" font-size="10.00">/timing/CRTDesign.hpp</text>
</a>
</g>
</g>
<!-- Node3&#45;&gt;Node4 -->
<g id="edge3_Node000003_Node000004" class="edge">
<title>Node3&#45;&gt;Node4</title>
<g id="a_edge3_Node000003_Node000004"><a xlink:title=" ">
<path fill="none" stroke="#63b8ff" d="M1443.53,-132.84C1572.56,-114.64 1607.35,-116.74 1732.12,-97 1735.1,-96.53 1738.13,-96.03 1741.2,-95.51"/>
<polygon fill="#63b8ff" stroke="#63b8ff" points="1443.33,-129.34 1433.92,-134.22 1444.31,-136.27 1443.33,-129.34"/>
</a>
</g>
</g>
<!-- Node5 -->
<g id="Node000005" class="node">
<title>Node5</title>
<g id="a_Node000005"><a xlink:href="top__designs_8cpp.html" target="_top" xlink:title=" ">
<polygon fill="white" stroke="#666666" points="1169,-30.5 1029.25,-30.5 1029.25,0 1169,0 1169,-30.5"/>
<text text-anchor="start" x="1037.25" y="-17" font-family="Helvetica,sans-Serif" font-size="10.00">sourcecode/timing/pybindsrc</text>
<text text-anchor="middle" x="1099.12" y="-5.75" font-family="Helvetica,sans-Serif" font-size="10.00">/top_designs.cpp</text>
</a>
</g>
</g>
<!-- Node4&#45;&gt;Node5 -->
<g id="edge4_Node000004_Node000005" class="edge">
<title>Node4&#45;&gt;Node5</title>
<g id="a_edge4_Node000004_Node000005"><a xlink:title=" ">
<path fill="none" stroke="#63b8ff" d="M1729.98,-66.32C1520.18,-38.43 1284.14,-24.77 1169.18,-19.27"/>
<polygon fill="#63b8ff" stroke="#63b8ff" points="1729.34,-69.76 1739.72,-67.63 1730.28,-62.83 1729.34,-69.76"/>
</a>
</g>
</g>
<!-- Node6 -->
<g id="Node000006" class="node">
<title>Node6</title>
<g id="a_Node000006"><a xlink:href="CRTDesign_8cpp.html" target="_top" xlink:title=" ">
<polygon fill="white" stroke="#666666" points="1862.12,-30.5 1750.12,-30.5 1750.12,0 1862.12,0 1862.12,-30.5"/>
<text text-anchor="start" x="1758.12" y="-17" font-family="Helvetica,sans-Serif" font-size="10.00">sourcecode/timing/src</text>
<text text-anchor="middle" x="1806.12" y="-5.75" font-family="Helvetica,sans-Serif" font-size="10.00">/CRTDesign.cpp</text>
</a>
</g>
</g>
<!-- Node4&#45;&gt;Node6 -->
<g id="edge5_Node000004_Node000006" class="edge">
<title>Node4&#45;&gt;Node6</title>
<g id="a_edge5_Node000004_Node000006"><a xlink:title=" ">
<path fill="none" stroke="#63b8ff" d="M1806.12,-54.81C1806.12,-46.64 1806.12,-37.91 1806.12,-30.83"/>
<polygon fill="#63b8ff" stroke="#63b8ff" points="1802.63,-54.6 1806.13,-64.6 1809.63,-54.6 1802.63,-54.6"/>
</a>
</g>
</g>
<!-- Node7&#45;&gt;Node5 -->
<g id="edge10_Node000007_Node000005" class="edge">
<title>Node7&#45;&gt;Node5</title>
<g id="a_edge10_Node000007_Node000005"><a xlink:title=" ">
<path fill="none" stroke="#63b8ff" d="M1043.7,-127.38C1057.26,-119.71 1070.81,-109.67 1080.12,-97 1094.63,-77.27 1098.25,-48.14 1099.04,-30.79"/>
<polygon fill="#63b8ff" stroke="#63b8ff" points="1042.44,-124.09 1035.22,-131.85 1045.7,-130.28 1042.44,-124.09"/>
</a>
</g>
</g>
<!-- Node8 -->
<g id="Node000008" class="node">
<title>Node8</title>
<g id="a_Node000008"><a xlink:href="ChronosDesign_8hpp.html" target="_top" xlink:title=" ">
<polygon fill="white" stroke="#666666" points="607.25,-97 475,-97 475,-66.5 607.25,-66.5 607.25,-97"/>
<text text-anchor="start" x="483" y="-83.5" font-family="Helvetica,sans-Serif" font-size="10.00">sourcecode/timing/include</text>
<text text-anchor="middle" x="541.12" y="-72.25" font-family="Helvetica,sans-Serif" font-size="10.00">/timing/ChronosDesign.hpp</text>
</a>
</g>
</g>
<!-- Node7&#45;&gt;Node8 -->
<g id="edge7_Node000007_Node000008" class="edge">
<title>Node7&#45;&gt;Node8</title>
<g id="a_edge7_Node000007_Node000008"><a xlink:title=" ">
<path fill="none" stroke="#63b8ff" d="M916.63,-137.37C823.05,-125.5 672.27,-106.05 616.12,-97 613.38,-96.56 610.58,-96.09 607.75,-95.61"/>
<polygon fill="#63b8ff" stroke="#63b8ff" points="916.17,-140.84 926.53,-138.62 917.05,-133.89 916.17,-140.84"/>
</a>
</g>
</g>
<!-- Node10 -->
<g id="Node000010" class="node">
<title>Node10</title>
<g id="a_Node000010"><a xlink:href="EndpointDesign_8cpp.html" target="_top" xlink:title=" ">
<polygon fill="white" stroke="#666666" points="1239.12,-97 1127.12,-97 1127.12,-66.5 1239.12,-66.5 1239.12,-97"/>
<text text-anchor="start" x="1135.12" y="-83.5" font-family="Helvetica,sans-Serif" font-size="10.00">sourcecode/timing/src</text>
<text text-anchor="middle" x="1183.12" y="-72.25" font-family="Helvetica,sans-Serif" font-size="10.00">/EndpointDesign.cpp</text>
</a>
</g>
</g>
<!-- Node7&#45;&gt;Node10 -->
<g id="edge11_Node000007_Node000010" class="edge">
<title>Node7&#45;&gt;Node10</title>
<g id="a_edge11_Node000007_Node000010"><a xlink:title=" ">
<path fill="none" stroke="#63b8ff" d="M1048.58,-128.91C1077.64,-118.94 1113.09,-106.78 1140.31,-97.44"/>
<polygon fill="#63b8ff" stroke="#63b8ff" points="1047.54,-125.57 1039.22,-132.12 1049.81,-132.19 1047.54,-125.57"/>
</a>
</g>
</g>
<!-- Node8&#45;&gt;Node5 -->
<g id="edge8_Node000008_Node000005" class="edge">
<title>Node8&#45;&gt;Node5</title>
<g id="a_edge8_Node000008_Node000005"><a xlink:title=" ">
<path fill="none" stroke="#63b8ff" d="M619.05,-66.19C796.65,-42.16 845.13,-54.03 1020.12,-30.5 1023.03,-30.11 1025.98,-29.69 1028.97,-29.24"/>
<polygon fill="#63b8ff" stroke="#63b8ff" points="618.65,-62.71 609.22,-67.54 619.61,-69.64 618.65,-62.71"/>
</a>
</g>
</g>
<!-- Node9 -->
<g id="Node000009" class="node">
<title>Node9</title>
<g id="a_Node000009"><a xlink:href="ChronosDesign_8cpp.html" target="_top" xlink:title=" ">
<polygon fill="white" stroke="#666666" points="597.12,-30.5 485.12,-30.5 485.12,0 597.12,0 597.12,-30.5"/>
<text text-anchor="start" x="493.12" y="-17" font-family="Helvetica,sans-Serif" font-size="10.00">sourcecode/timing/src</text>
<text text-anchor="middle" x="541.12" y="-5.75" font-family="Helvetica,sans-Serif" font-size="10.00">/ChronosDesign.cpp</text>
</a>
</g>
</g>
<!-- Node8&#45;&gt;Node9 -->
<g id="edge9_Node000008_Node000009" class="edge">
<title>Node8&#45;&gt;Node9</title>
<g id="a_edge9_Node000008_Node000009"><a xlink:title=" ">
<path fill="none" stroke="#63b8ff" d="M541.12,-54.81C541.12,-46.64 541.12,-37.91 541.12,-30.83"/>
<polygon fill="#63b8ff" stroke="#63b8ff" points="537.63,-54.6 541.13,-64.6 544.63,-54.6 537.63,-54.6"/>
</a>
</g>
</g>
<!-- Node11&#45;&gt;Node5 -->
<g id="edge13_Node000011_Node000005" class="edge">
<title>Node11&#45;&gt;Node5</title>
<g id="a_edge13_Node000011_Node000005"><a xlink:title=" ">
<path fill="none" stroke="#63b8ff" d="M321.02,-66.26C630.16,-29.35 713.41,-65.88 1020.12,-30.5 1023.03,-30.16 1025.99,-29.79 1028.98,-29.38"/>
<polygon fill="#63b8ff" stroke="#63b8ff" points="320.94,-62.75 311.43,-67.42 321.78,-69.7 320.94,-62.75"/>
</a>
</g>
</g>
<!-- Node12 -->
<g id="Node000012" class="node">
<title>Node12</title>
<g id="a_Node000012"><a xlink:href="FanoutDesign_8cpp.html" target="_top" xlink:title=" ">
<polygon fill="white" stroke="#666666" points="301.12,-30.5 189.12,-30.5 189.12,0 301.12,0 301.12,-30.5"/>
<text text-anchor="start" x="197.12" y="-17" font-family="Helvetica,sans-Serif" font-size="10.00">sourcecode/timing/src</text>
<text text-anchor="middle" x="245.12" y="-5.75" font-family="Helvetica,sans-Serif" font-size="10.00">/FanoutDesign.cpp</text>
</a>
</g>
</g>
<!-- Node11&#45;&gt;Node12 -->
<g id="edge14_Node000011_Node000012" class="edge">
<title>Node11&#45;&gt;Node12</title>
<g id="a_edge14_Node000011_Node000012"><a xlink:title=" ">
<path fill="none" stroke="#63b8ff" d="M245.12,-54.81C245.12,-46.64 245.12,-37.91 245.12,-30.83"/>
<polygon fill="#63b8ff" stroke="#63b8ff" points="241.63,-54.6 245.13,-64.6 248.63,-54.6 241.63,-54.6"/>
</a>
</g>
</g>
<!-- Node13 -->
<g id="Node000013" class="node">
<title>Node13</title>
<g id="a_Node000013"><a xlink:href="TimingHardwareManager_8cpp.html" target="_top" xlink:title=" ">
<polygon fill="white" stroke="#666666" points="167.25,-30.5 5,-30.5 5,0 167.25,0 167.25,-30.5"/>
<text text-anchor="start" x="13" y="-17" font-family="Helvetica,sans-Serif" font-size="10.00">sourcecode/timinglibs</text>
<text text-anchor="middle" x="86.12" y="-5.75" font-family="Helvetica,sans-Serif" font-size="10.00">/src/TimingHardwareManager.cpp</text>
</a>
</g>
</g>
<!-- Node11&#45;&gt;Node13 -->
<g id="edge15_Node000011_Node000013" class="edge">
<title>Node11&#45;&gt;Node13</title>
<g id="a_edge15_Node000011_Node000013"><a xlink:title=" ">
<path fill="none" stroke="#63b8ff" d="M198.61,-61.88C174.29,-52.01 144.95,-40.11 122.34,-30.94"/>
<polygon fill="#63b8ff" stroke="#63b8ff" points="197.06,-65.03 207.64,-65.54 199.69,-58.54 197.06,-65.03"/>
</a>
</g>
</g>
<!-- Node14&#45;&gt;Node5 -->
<g id="edge17_Node000014_Node000005" class="edge">
<title>Node14&#45;&gt;Node5</title>
<g id="a_edge17_Node000014_Node000005"><a xlink:title=" ">
<path fill="none" stroke="#63b8ff" d="M468.42,-66.33C712.85,-35.86 778.91,-60 1020.12,-30.5 1023.03,-30.14 1025.99,-29.75 1028.98,-29.33"/>
<polygon fill="#63b8ff" stroke="#63b8ff" points="468.01,-62.86 458.52,-67.59 468.89,-69.8 468.01,-62.86"/>
</a>
</g>
</g>
<!-- Node15 -->
<g id="Node000015" class="node">
<title>Node15</title>
<g id="a_Node000015"><a xlink:href="GaiaDesign_8cpp.html" target="_top" xlink:title=" ">
<polygon fill="white" stroke="#666666" points="448.12,-30.5 336.12,-30.5 336.12,0 448.12,0 448.12,-30.5"/>
<text text-anchor="start" x="344.12" y="-17" font-family="Helvetica,sans-Serif" font-size="10.00">sourcecode/timing/src</text>
<text text-anchor="middle" x="392.12" y="-5.75" font-family="Helvetica,sans-Serif" font-size="10.00">/GaiaDesign.cpp</text>
</a>
</g>
</g>
<!-- Node14&#45;&gt;Node15 -->
<g id="edge18_Node000014_Node000015" class="edge">
<title>Node14&#45;&gt;Node15</title>
<g id="a_edge18_Node000014_Node000015"><a xlink:title=" ">
<path fill="none" stroke="#63b8ff" d="M392.12,-54.81C392.12,-46.64 392.12,-37.91 392.12,-30.83"/>
<polygon fill="#63b8ff" stroke="#63b8ff" points="388.63,-54.6 392.13,-64.6 395.63,-54.6 388.63,-54.6"/>
</a>
</g>
</g>
<!-- Node16&#45;&gt;Node8 -->
<g id="edge23_Node000016_Node000008" class="edge">
<title>Node16&#45;&gt;Node8</title>
<g id="a_edge23_Node000016_Node000008"><a xlink:title=" ">
<path fill="none" stroke="#63b8ff" d="M555.68,-121.88C552.58,-113.55 549.25,-104.58 546.55,-97.33"/>
<polygon fill="#63b8ff" stroke="#63b8ff" points="552.38,-123.04 559.15,-131.2 558.94,-120.6 552.38,-123.04"/>
</a>
</g>
</g>
<!-- Node17 -->
<g id="Node000017" class="node">
<title>Node17</title>
<g id="a_Node000017"><a xlink:href="BoreasDesign_8hpp.html" target="_top" xlink:title=" ">
<polygon fill="white" stroke="#666666" points="1554.75,-97 1425.5,-97 1425.5,-66.5 1554.75,-66.5 1554.75,-97"/>
<text text-anchor="start" x="1433.5" y="-83.5" font-family="Helvetica,sans-Serif" font-size="10.00">sourcecode/timing/include</text>
<text text-anchor="middle" x="1490.12" y="-72.25" font-family="Helvetica,sans-Serif" font-size="10.00">/timing/BoreasDesign.hpp</text>
</a>
</g>
</g>
<!-- Node16&#45;&gt;Node17 -->
<g id="edge20_Node000016_Node000017" class="edge">
<title>Node16&#45;&gt;Node17</title>
<g id="a_edge20_Node000016_Node000017"><a xlink:title=" ">
<path fill="none" stroke="#63b8ff" d="M652.65,-138.57C674.36,-136.58 697.58,-134.59 719.12,-133 1011.66,-111.48 1086,-123.53 1378.12,-97 1393.35,-95.62 1409.7,-93.75 1425.07,-91.83"/>
<polygon fill="#63b8ff" stroke="#63b8ff" points="652.59,-135.06 642.96,-139.47 653.24,-142.03 652.59,-135.06"/>
</a>
</g>
</g>
<!-- Node16&#45;&gt;Node19 -->
<g id="edge24_Node000016_Node000019" class="edge">
<title>Node16&#45;&gt;Node19</title>
<g id="a_edge24_Node000016_Node000019"><a xlink:title=" ">
<path fill="none" stroke="#63b8ff" d="M477.77,-136.88C397.86,-127.2 276.42,-112.05 171.12,-97 168.31,-96.6 165.44,-96.18 162.54,-95.75"/>
<polygon fill="#63b8ff" stroke="#63b8ff" points="476.91,-140.3 487.26,-138.02 477.75,-133.35 476.91,-140.3"/>
</a>
</g>
</g>
<!-- Node17&#45;&gt;Node5 -->
<g id="edge21_Node000017_Node000005" class="edge">
<title>Node17&#45;&gt;Node5</title>
<g id="a_edge21_Node000017_Node000005"><a xlink:title=" ">
<path fill="none" stroke="#63b8ff" d="M1414.12,-67.01C1413.12,-66.84 1412.12,-66.67 1411.12,-66.5 1328.11,-52.33 1232.47,-37.09 1169.2,-27.15"/>
<polygon fill="#63b8ff" stroke="#63b8ff" points="1413.1,-70.39 1423.55,-68.65 1414.3,-63.49 1413.1,-70.39"/>
</a>
</g>
</g>
<!-- Node18 -->
<g id="Node000018" class="node">
<title>Node18</title>
<g id="a_Node000018"><a xlink:href="BoreasDesign_8cpp.html" target="_top" xlink:title=" ">
<polygon fill="white" stroke="#666666" points="1546.12,-30.5 1434.12,-30.5 1434.12,0 1546.12,0 1546.12,-30.5"/>
<text text-anchor="start" x="1442.12" y="-17" font-family="Helvetica,sans-Serif" font-size="10.00">sourcecode/timing/src</text>
<text text-anchor="middle" x="1490.12" y="-5.75" font-family="Helvetica,sans-Serif" font-size="10.00">/BoreasDesign.cpp</text>
</a>
</g>
</g>
<!-- Node17&#45;&gt;Node18 -->
<g id="edge22_Node000017_Node000018" class="edge">
<title>Node17&#45;&gt;Node18</title>
<g id="a_edge22_Node000017_Node000018"><a xlink:title=" ">
<path fill="none" stroke="#63b8ff" d="M1490.12,-54.81C1490.12,-46.64 1490.12,-37.91 1490.12,-30.83"/>
<polygon fill="#63b8ff" stroke="#63b8ff" points="1486.63,-54.6 1490.13,-64.6 1493.63,-54.6 1486.63,-54.6"/>
</a>
</g>
</g>
<!-- Node19&#45;&gt;Node13 -->
<g id="edge25_Node000019_Node000013" class="edge">
<title>Node19&#45;&gt;Node13</title>
<g id="a_edge25_Node000019_Node000013"><a xlink:title=" ">
<path fill="none" stroke="#63b8ff" d="M83.14,-54.81C83.77,-46.64 84.45,-37.91 84.99,-30.83"/>
<polygon fill="#63b8ff" stroke="#63b8ff" points="79.66,-54.36 82.38,-64.6 86.64,-54.91 79.66,-54.36"/>
</a>
</g>
</g>
<!-- Node20&#45;&gt;Node5 -->
<g id="edge27_Node000020_Node000005" class="edge">
<title>Node20&#45;&gt;Node5</title>
<g id="a_edge27_Node000020_Node000005"><a xlink:title=" ">
<path fill="none" stroke="#63b8ff" d="M772.31,-66.02C882.24,-48.12 912.46,-47.93 1020.12,-30.5 1023.01,-30.03 1025.96,-29.55 1028.94,-29.05"/>
<polygon fill="#63b8ff" stroke="#63b8ff" points="771.85,-62.54 762.55,-67.62 772.98,-69.45 771.85,-62.54"/>
</a>
</g>
</g>
<!-- Node21 -->
<g id="Node000021" class="node">
<title>Node21</title>
<g id="a_Node000021"><a xlink:href="KerberosDesign_8cpp.html" target="_top" xlink:title=" ">
<polygon fill="white" stroke="#666666" points="749.12,-30.5 637.12,-30.5 637.12,0 749.12,0 749.12,-30.5"/>
<text text-anchor="start" x="645.12" y="-17" font-family="Helvetica,sans-Serif" font-size="10.00">sourcecode/timing/src</text>
<text text-anchor="middle" x="693.12" y="-5.75" font-family="Helvetica,sans-Serif" font-size="10.00">/KerberosDesign.cpp</text>
</a>
</g>
</g>
<!-- Node20&#45;&gt;Node21 -->
<g id="edge28_Node000020_Node000021" class="edge">
<title>Node20&#45;&gt;Node21</title>
<g id="a_edge28_Node000020_Node000021"><a xlink:title=" ">
<path fill="none" stroke="#63b8ff" d="M693.12,-54.81C693.12,-46.64 693.12,-37.91 693.12,-30.83"/>
<polygon fill="#63b8ff" stroke="#63b8ff" points="689.63,-54.6 693.13,-64.6 696.63,-54.6 689.63,-54.6"/>
</a>
</g>
</g>
<!-- Node22&#45;&gt;Node5 -->
<g id="edge30_Node000022_Node000005" class="edge">
<title>Node22&#45;&gt;Node5</title>
<g id="a_edge30_Node000022_Node000005"><a xlink:title=" ">
<path fill="none" stroke="#63b8ff" d="M1233.22,-131.57C1296.27,-119.14 1373.39,-102.9 1378.12,-97 1386.61,-86.43 1386.82,-76.9 1378.12,-66.5 1352,-35.25 1243.05,-23.41 1169.28,-18.93"/>
<polygon fill="#63b8ff" stroke="#63b8ff" points="1232.66,-128.12 1223.52,-133.48 1234.01,-134.99 1232.66,-128.12"/>
</a>
</g>
</g>
<!-- Node23 -->
<g id="Node000023" class="node">
<title>Node23</title>
<g id="a_Node000023"><a xlink:href="OuroborosDesign_8cpp.html" target="_top" xlink:title=" ">
<polygon fill="white" stroke="#666666" points="1369.12,-97 1257.12,-97 1257.12,-66.5 1369.12,-66.5 1369.12,-97"/>
<text text-anchor="start" x="1265.12" y="-83.5" font-family="Helvetica,sans-Serif" font-size="10.00">sourcecode/timing/src</text>
<text text-anchor="middle" x="1313.12" y="-72.25" font-family="Helvetica,sans-Serif" font-size="10.00">/OuroborosDesign.cpp</text>
</a>
</g>
</g>
<!-- Node22&#45;&gt;Node23 -->
<g id="edge31_Node000022_Node000023" class="edge">
<title>Node22&#45;&gt;Node23</title>
<g id="a_edge31_Node000022_Node000023"><a xlink:title=" ">
<path fill="none" stroke="#63b8ff" d="M1198.51,-128.38C1223.3,-118.51 1253.19,-106.61 1276.23,-97.44"/>
<polygon fill="#63b8ff" stroke="#63b8ff" points="1197.29,-125.1 1189.29,-132.05 1199.88,-131.61 1197.29,-125.1"/>
</a>
</g>
</g>
<!-- Node24&#45;&gt;Node5 -->
<g id="edge33_Node000024_Node000005" class="edge">
<title>Node24&#45;&gt;Node5</title>
<g id="a_edge33_Node000024_Node000005"><a xlink:title=" ">
<path fill="none" stroke="#63b8ff" d="M1025.22,-60.39C1041.29,-50.79 1060.1,-39.56 1074.72,-30.83"/>
<polygon fill="#63b8ff" stroke="#63b8ff" points="1023.72,-57.21 1016.93,-65.34 1027.31,-63.22 1023.72,-57.21"/>
</a>
</g>
</g>
<!-- Node25 -->
<g id="Node000025" class="node">
<title>Node25</title>
<g id="a_Node000025"><a xlink:href="OuroborosMuxDesign_8cpp.html" target="_top" xlink:title=" ">
<polygon fill="white" stroke="#666666" points="1011.12,-30.5 881.12,-30.5 881.12,0 1011.12,0 1011.12,-30.5"/>
<text text-anchor="start" x="889.12" y="-17" font-family="Helvetica,sans-Serif" font-size="10.00">sourcecode/timing/src</text>
<text text-anchor="middle" x="946.12" y="-5.75" font-family="Helvetica,sans-Serif" font-size="10.00">/OuroborosMuxDesign.cpp</text>
</a>
</g>
</g>
<!-- Node24&#45;&gt;Node25 -->
<g id="edge34_Node000024_Node000025" class="edge">
<title>Node24&#45;&gt;Node25</title>
<g id="a_edge34_Node000024_Node000025"><a xlink:title=" ">
<path fill="none" stroke="#63b8ff" d="M974.41,-56.79C968.33,-48.07 961.64,-38.49 956.3,-30.83"/>
<polygon fill="#63b8ff" stroke="#63b8ff" points="971.46,-58.67 980.05,-64.87 977.2,-54.67 971.46,-58.67"/>
</a>
</g>
</g>
<!-- Node26&#45;&gt;Node5 -->
<g id="edge36_Node000026_Node000005" class="edge">
<title>Node26&#45;&gt;Node5</title>
<g id="a_edge36_Node000026_Node000005"><a xlink:title=" ">
<path fill="none" stroke="#63b8ff" d="M1544.26,-125.29C1562.3,-108.09 1580.01,-84.19 1564.12,-66.5 1538.26,-37.69 1292.77,-23.91 1169.31,-18.76"/>
<polygon fill="#63b8ff" stroke="#63b8ff" points="1542.27,-122.37 1537.19,-131.66 1546.96,-127.57 1542.27,-122.37"/>
</a>
</g>
</g>
<!-- Node27 -->
<g id="Node000027" class="node">
<title>Node27</title>
<g id="a_Node000027"><a xlink:href="OverlordDesign_8cpp.html" target="_top" xlink:title=" ">
<polygon fill="white" stroke="#666666" points="1723.12,-97 1611.12,-97 1611.12,-66.5 1723.12,-66.5 1723.12,-97"/>
<text text-anchor="start" x="1619.12" y="-83.5" font-family="Helvetica,sans-Serif" font-size="10.00">sourcecode/timing/src</text>
<text text-anchor="middle" x="1667.12" y="-72.25" font-family="Helvetica,sans-Serif" font-size="10.00">/OverlordDesign.cpp</text>
</a>
</g>
</g>
<!-- Node26&#45;&gt;Node27 -->
<g id="edge37_Node000026_Node000027" class="edge">
<title>Node26&#45;&gt;Node27</title>
<g id="a_edge37_Node000026_Node000027"><a xlink:title=" ">
<path fill="none" stroke="#63b8ff" d="M1561.62,-128.12C1584.45,-118.3 1611.82,-106.53 1632.96,-97.44"/>
<polygon fill="#63b8ff" stroke="#63b8ff" points="1560.36,-124.85 1552.55,-132.02 1563.12,-131.28 1560.36,-124.85"/>
</a>
</g>
</g>
<!-- Node29 -->
<g id="Node000029" class="node">
<title>Node29</title>
<g id="a_Node000029"><a xlink:href="MasterMuxDesign_8hpp.html" target="_top" xlink:title=" ">
<polygon fill="white" stroke="#666666" points="872.25,-163.5 728,-163.5 728,-133 872.25,-133 872.25,-163.5"/>
<text text-anchor="start" x="736" y="-150" font-family="Helvetica,sans-Serif" font-size="10.00">sourcecode/timing/include</text>
<text text-anchor="middle" x="800.12" y="-138.75" font-family="Helvetica,sans-Serif" font-size="10.00">/timing/MasterMuxDesign.hpp</text>
</a>
</g>
</g>
<!-- Node28&#45;&gt;Node29 -->
<g id="edge40_Node000028_Node000029" class="edge">
<title>Node28&#45;&gt;Node29</title>
<g id="a_edge40_Node000028_Node000029"><a xlink:title=" ">
<path fill="none" stroke="#63b8ff" d="M801.73,-254.43C801.32,-227.34 800.68,-185.71 800.35,-163.83"/>
<polygon fill="#63b8ff" stroke="#63b8ff" points="798.23,-254.27 801.88,-264.22 805.23,-254.16 798.23,-254.27"/>
</a>
</g>
</g>
<!-- Node29&#45;&gt;Node11 -->
<g id="edge41_Node000029_Node000011" class="edge">
<title>Node29&#45;&gt;Node11</title>
<g id="a_edge41_Node000029_Node000011"><a xlink:title=" ">
<path fill="none" stroke="#63b8ff" d="M716.67,-138.96C589.14,-126.23 356.44,-102.73 318.12,-97 315.44,-96.6 312.71,-96.17 309.95,-95.71"/>
<polygon fill="#63b8ff" stroke="#63b8ff" points="716.12,-142.42 726.42,-139.93 716.81,-135.45 716.12,-142.42"/>
</a>
</g>
</g>
<!-- Node29&#45;&gt;Node14 -->
<g id="edge42_Node000029_Node000014" class="edge">
<title>Node29&#45;&gt;Node14</title>
<g id="a_edge42_Node000029_Node000014"><a xlink:title=" ">
<path fill="none" stroke="#63b8ff" d="M716.66,-135.66C649,-126.03 551.26,-111.59 466.12,-97 463.16,-96.49 460.13,-95.96 457.07,-95.41"/>
<polygon fill="#63b8ff" stroke="#63b8ff" points="715.78,-139.07 726.17,-137.01 716.76,-132.14 715.78,-139.07"/>
</a>
</g>
</g>
<!-- Node29&#45;&gt;Node20 -->
<g id="edge43_Node000029_Node000020" class="edge">
<title>Node29&#45;&gt;Node20</title>
<g id="a_edge43_Node000029_Node000020"><a xlink:title=" ">
<path fill="none" stroke="#63b8ff" d="M766.34,-126.89C750.42,-117.29 731.79,-106.06 717.31,-97.33"/>
<polygon fill="#63b8ff" stroke="#63b8ff" points="764.18,-129.67 774.55,-131.83 767.79,-123.67 764.18,-129.67"/>
</a>
</g>
</g>
<!-- Node29&#45;&gt;Node24 -->
<g id="edge44_Node000029_Node000024" class="edge">
<title>Node29&#45;&gt;Node24</title>
<g id="a_edge44_Node000029_Node000024"><a xlink:title=" ">
<path fill="none" stroke="#63b8ff" d="M854.04,-129.04C883.64,-119.05 919.85,-106.82 947.63,-97.44"/>
<polygon fill="#63b8ff" stroke="#63b8ff" points="853.25,-125.61 844.9,-132.13 855.49,-132.25 853.25,-125.61"/>
</a>
</g>
</g>
<!-- Node30 -->
<g id="Node000030" class="node">
<title>Node30</title>
<g id="a_Node000030"><a xlink:href="MasterMuxDesign_8cpp.html" target="_top" xlink:title=" ">
<polygon fill="white" stroke="#666666" points="893.62,-97 778.62,-97 778.62,-66.5 893.62,-66.5 893.62,-97"/>
<text text-anchor="start" x="786.62" y="-83.5" font-family="Helvetica,sans-Serif" font-size="10.00">sourcecode/timing/src</text>
<text text-anchor="middle" x="836.12" y="-72.25" font-family="Helvetica,sans-Serif" font-size="10.00">/MasterMuxDesign.cpp</text>
</a>
</g>
</g>
<!-- Node29&#45;&gt;Node30 -->
<g id="edge45_Node000029_Node000030" class="edge">
<title>Node29&#45;&gt;Node30</title>
<g id="a_edge45_Node000029_Node000030"><a xlink:title=" ">
<path fill="none" stroke="#63b8ff" d="M813.81,-122.73C818.59,-114.16 823.81,-104.82 827.99,-97.33"/>
<polygon fill="#63b8ff" stroke="#63b8ff" points="810.85,-120.85 809.03,-131.29 816.96,-124.27 810.85,-120.85"/>
</a>
</g>
</g>
<!-- Node31&#45;&gt;Node4 -->
<g id="edge47_Node000031_Node000004" class="edge">
<title>Node31&#45;&gt;Node4</title>
<g id="a_edge47_Node000031_Node000004"><a xlink:title=" ">
<path fill="none" stroke="#63b8ff" d="M1207.57,-339.85C1381.77,-322.38 1799.59,-270.01 1883.12,-163.5 1891.49,-152.83 1889.58,-144.92 1883.12,-133 1874.54,-117.14 1858.53,-105.49 1843.32,-97.42"/>
<polygon fill="#63b8ff" stroke="#63b8ff" points="1207.32,-336.36 1197.71,-340.82 1208.01,-343.32 1207.32,-336.36"/>
</a>
</g>
</g>
<!-- Node31&#45;&gt;Node7 -->
<g id="edge48_Node000031_Node000007" class="edge">
<title>Node31&#45;&gt;Node7</title>
<g id="a_edge48_Node000031_Node000007"><a xlink:title=" ">
<path fill="none" stroke="#63b8ff" d="M1079.72,-327.13C1065.22,-319.47 1050.56,-309.37 1040.12,-296.5 1007.46,-256.22 998.46,-192.43 996.02,-163.89"/>
<polygon fill="#63b8ff" stroke="#63b8ff" points="1077.82,-330.1 1088.33,-331.39 1080.91,-323.82 1077.82,-330.1"/>
</a>
</g>
</g>
<!-- Node32 -->
<g id="Node000032" class="node">
<title>Node32</title>
<g id="a_Node000032"><a xlink:href="MasterDesign_8hpp.html" target="_top" xlink:title=" ">
<polygon fill="white" stroke="#666666" points="1305.75,-230 1176.5,-230 1176.5,-199.5 1305.75,-199.5 1305.75,-230"/>
<text text-anchor="start" x="1184.5" y="-216.5" font-family="Helvetica,sans-Serif" font-size="10.00">sourcecode/timing/include</text>
<text text-anchor="middle" x="1241.12" y="-205.25" font-family="Helvetica,sans-Serif" font-size="10.00">/timing/MasterDesign.hpp</text>
</a>
</g>
</g>
<!-- Node31&#45;&gt;Node32 -->
<g id="edge49_Node000031_Node000032" class="edge">
<title>Node31&#45;&gt;Node32</title>
<g id="a_edge49_Node000031_Node000032"><a xlink:title=" ">
<path fill="none" stroke="#63b8ff" d="M1184.24,-326.92C1198.37,-319.34 1212.39,-309.35 1222.12,-296.5 1236.92,-276.99 1240.44,-247.78 1241.14,-230.36"/>
<polygon fill="#63b8ff" stroke="#63b8ff" points="1182.74,-323.75 1175.34,-331.34 1185.86,-330.02 1182.74,-323.75"/>
</a>
</g>
</g>
<!-- Node34 -->
<g id="Node000034" class="node">
<title>Node34</title>
<g id="a_Node000034"><a xlink:href="MasterDesignInterface_8hpp.html" target="_top" xlink:title=" ">
<polygon fill="white" stroke="#666666" points="1213.38,-296.5 1048.88,-296.5 1048.88,-266 1213.38,-266 1213.38,-296.5"/>
<text text-anchor="start" x="1056.88" y="-283" font-family="Helvetica,sans-Serif" font-size="10.00">sourcecode/timing/include</text>
<text text-anchor="middle" x="1131.12" y="-271.75" font-family="Helvetica,sans-Serif" font-size="10.00">/timing/MasterDesignInterface.hpp</text>
</a>
</g>
</g>
<!-- Node31&#45;&gt;Node34 -->
<g id="edge55_Node000031_Node000034" class="edge">
<title>Node31&#45;&gt;Node34</title>
<g id="a_edge55_Node000031_Node000034"><a xlink:title=" ">
<path fill="none" stroke="#63b8ff" d="M1131.12,-320.81C1131.12,-312.64 1131.12,-303.91 1131.12,-296.83"/>
<polygon fill="#63b8ff" stroke="#63b8ff" points="1127.63,-320.6 1131.13,-330.6 1134.63,-320.6 1127.63,-320.6"/>
</a>
</g>
</g>
<!-- Node32&#45;&gt;Node17 -->
<g id="edge50_Node000032_Node000017" class="edge">
<title>Node32&#45;&gt;Node17</title>
<g id="a_edge50_Node000032_Node000017"><a xlink:title=" ">
<path fill="none" stroke="#63b8ff" d="M1243.59,-187.79C1246.67,-169.89 1253.59,-146.91 1269.12,-133 1280.85,-122.5 1364.25,-105.5 1425.15,-94.22"/>
<polygon fill="#63b8ff" stroke="#63b8ff" points="1240.13,-187.3 1242.22,-197.69 1247.06,-188.26 1240.13,-187.3"/>
</a>
</g>
</g>
<!-- Node32&#45;&gt;Node22 -->
<g id="edge52_Node000032_Node000022" class="edge">
<title>Node32&#45;&gt;Node22</title>
<g id="a_edge52_Node000032_Node000022"><a xlink:title=" ">
<path fill="none" stroke="#63b8ff" d="M1211.57,-192.57C1198.43,-183.16 1183.3,-172.31 1171.47,-163.83"/>
<polygon fill="#63b8ff" stroke="#63b8ff" points="1209.31,-195.25 1219.47,-198.23 1213.38,-189.56 1209.31,-195.25"/>
</a>
</g>
</g>
<!-- Node32&#45;&gt;Node26 -->
<g id="edge53_Node000032_Node000026" class="edge">
<title>Node32&#45;&gt;Node26</title>
<g id="a_edge53_Node000032_Node000026"><a xlink:title=" ">
<path fill="none" stroke="#63b8ff" d="M1315.19,-196.44C1358.69,-186.28 1413.06,-173.57 1454.42,-163.9"/>
<polygon fill="#63b8ff" stroke="#63b8ff" points="1314.51,-193 1305.57,-198.69 1316.11,-199.82 1314.51,-193"/>
</a>
</g>
</g>
<!-- Node32&#45;&gt;Node29 -->
<g id="edge51_Node000032_Node000029" class="edge">
<title>Node32&#45;&gt;Node29</title>
<g id="a_edge51_Node000032_Node000029"><a xlink:title=" ">
<path fill="none" stroke="#63b8ff" d="M1164.79,-202.59C1082.65,-190.57 952.98,-171.61 872.43,-159.83"/>
<polygon fill="#63b8ff" stroke="#63b8ff" points="1164.16,-206.03 1174.56,-204.01 1165.17,-199.1 1164.16,-206.03"/>
</a>
</g>
</g>
<!-- Node33 -->
<g id="Node000033" class="node">
<title>Node33</title>
<g id="a_Node000033"><a xlink:href="MasterDesign_8cpp.html" target="_top" xlink:title=" ">
<polygon fill="white" stroke="#666666" points="1714.12,-163.5 1602.12,-163.5 1602.12,-133 1714.12,-133 1714.12,-163.5"/>
<text text-anchor="start" x="1610.12" y="-150" font-family="Helvetica,sans-Serif" font-size="10.00">sourcecode/timing/src</text>
<text text-anchor="middle" x="1658.12" y="-138.75" font-family="Helvetica,sans-Serif" font-size="10.00">/MasterDesign.cpp</text>
</a>
</g>
</g>
<!-- Node32&#45;&gt;Node33 -->
<g id="edge54_Node000032_Node000033" class="edge">
<title>Node32&#45;&gt;Node33</title>
<g id="a_edge54_Node000032_Node000033"><a xlink:title=" ">
<path fill="none" stroke="#63b8ff" d="M1317.37,-204.52C1388.84,-195.48 1498.56,-180.59 1593.12,-163.5 1595.97,-162.99 1598.87,-162.44 1601.81,-161.86"/>
<polygon fill="#63b8ff" stroke="#63b8ff" points="1317.22,-201.01 1307.73,-205.73 1318.09,-207.96 1317.22,-201.01"/>
</a>
</g>
</g>
<!-- Node34&#45;&gt;Node19 -->
<g id="edge60_Node000034_Node000019" class="edge">
<title>Node34&#45;&gt;Node19</title>
<g id="a_edge60_Node000034_Node000019"><a xlink:title=" ">
<path fill="none" stroke="#63b8ff" d="M1037.26,-274.36C930.51,-266.97 751.18,-252.48 598.12,-230 449.24,-208.13 409.68,-208.64 266.12,-163.5 208.79,-145.47 145.25,-115.36 109.55,-97.44"/>
<polygon fill="#63b8ff" stroke="#63b8ff" points="1036.9,-277.84 1047.12,-275.03 1037.38,-270.86 1036.9,-277.84"/>
</a>
</g>
</g>
<!-- Node34&#45;&gt;Node32 -->
<g id="edge56_Node000034_Node000032" class="edge">
<title>Node34&#45;&gt;Node32</title>
<g id="a_edge56_Node000034_Node000032"><a xlink:title=" ">
<path fill="none" stroke="#63b8ff" d="M1165.85,-259.89C1182.22,-250.29 1201.37,-239.06 1216.26,-230.33"/>
<polygon fill="#63b8ff" stroke="#63b8ff" points="1164.25,-256.77 1157.39,-264.85 1167.79,-262.81 1164.25,-256.77"/>
</a>
</g>
</g>
<!-- Node35 -->
<g id="Node000035" class="node">
<title>Node35</title>
<g id="a_Node000035"><a xlink:href="OverlordDesignInterface_8hpp.html" target="_top" xlink:title=" ">
<polygon fill="white" stroke="#666666" points="1602.75,-230 1431.5,-230 1431.5,-199.5 1602.75,-199.5 1602.75,-230"/>
<text text-anchor="start" x="1439.5" y="-216.5" font-family="Helvetica,sans-Serif" font-size="10.00">sourcecode/timing/include</text>
<text text-anchor="middle" x="1517.12" y="-205.25" font-family="Helvetica,sans-Serif" font-size="10.00">/timing/OverlordDesignInterface.hpp</text>
</a>
</g>
</g>
<!-- Node34&#45;&gt;Node35 -->
<g id="edge57_Node000034_Node000035" class="edge">
<title>Node34&#45;&gt;Node35</title>
<g id="a_edge57_Node000034_Node000035"><a xlink:title=" ">
<path fill="none" stroke="#63b8ff" d="M1224.58,-264.63C1287.53,-254.12 1369.94,-240.35 1431.24,-230.1"/>
<polygon fill="#63b8ff" stroke="#63b8ff" points="1224.24,-261.14 1214.95,-266.24 1225.39,-268.05 1224.24,-261.14"/>
</a>
</g>
</g>
<!-- Node35&#45;&gt;Node26 -->
<g id="edge58_Node000035_Node000026" class="edge">
<title>Node35&#45;&gt;Node26</title>
<g id="a_edge58_Node000035_Node000026"><a xlink:title=" ">
<path fill="none" stroke="#63b8ff" d="M1517.12,-187.81C1517.12,-179.64 1517.12,-170.91 1517.12,-163.83"/>
<polygon fill="#63b8ff" stroke="#63b8ff" points="1513.63,-187.6 1517.13,-197.6 1520.63,-187.6 1513.63,-187.6"/>
</a>
</g>
</g>
<!-- Node36 -->
<g id="Node000036" class="node">
<title>Node36</title>
<g id="a_Node000036"><a xlink:href="OverlordDesignInterface_8cpp.html" target="_top" xlink:title=" ">
<polygon fill="white" stroke="#666666" points="1874.12,-163.5 1732.12,-163.5 1732.12,-133 1874.12,-133 1874.12,-163.5"/>
<text text-anchor="start" x="1740.12" y="-150" font-family="Helvetica,sans-Serif" font-size="10.00">sourcecode/timing/src</text>
<text text-anchor="middle" x="1803.12" y="-138.75" font-family="Helvetica,sans-Serif" font-size="10.00">/OverlordDesignInterface.cpp</text>
</a>
</g>
</g>
<!-- Node35&#45;&gt;Node36 -->
<g id="edge59_Node000035_Node000036" class="edge">
<title>Node35&#45;&gt;Node36</title>
<g id="a_edge59_Node000035_Node000036"><a xlink:title=" ">
<path fill="none" stroke="#63b8ff" d="M1593.59,-196.51C1638.71,-186.33 1695.2,-173.59 1738.15,-163.9"/>
<polygon fill="#63b8ff" stroke="#63b8ff" points="1592.84,-193.09 1583.86,-198.7 1594.38,-199.91 1592.84,-193.09"/>
</a>
</g>
</g>
</g>
</svg>
