<?xml version="1.0" encoding="UTF-8" standalone="no"?>
<!DOCTYPE svg PUBLIC "-//W3C//DTD SVG 1.1//EN"
 "http://www.w3.org/Graphics/SVG/1.1/DTD/svg11.dtd">
<!-- Generated by graphviz version 9.0.0 (20230911.1827)
 -->
<!-- Title: sourcecode/timing/include/timing/TopDesign.hpp Pages: 1 -->
<svg width="1684pt" height="371pt"
 viewBox="0.00 0.00 1684.25 371.00" xmlns="http://www.w3.org/2000/svg" xmlns:xlink="http://www.w3.org/1999/xlink">
<g id="graph0" class="graph" transform="scale(1 1) rotate(0) translate(4 367)">
<title>sourcecode/timing/include/timing/TopDesign.hpp</title>
<!-- Node1 -->
<g id="Node000001" class="node">
<title>Node1</title>
<g id="a_Node000001"><a xlink:title=" ">
<polygon fill="#999999" stroke="#666666" points="525.75,-363 396.5,-363 396.5,-332.5 525.75,-332.5 525.75,-363"/>
<text text-anchor="start" x="404.5" y="-349.5" font-family="Helvetica,sans-Serif" font-size="10.00">sourcecode/timing/include</text>
<text text-anchor="middle" x="461.12" y="-338.25" font-family="Helvetica,sans-Serif" font-size="10.00">/timing/TopDesign.hpp</text>
</a>
</g>
</g>
<!-- Node2 -->
<g id="Node000002" class="node">
<title>Node2</title>
<g id="a_Node000002"><a xlink:href="CRTDesign_8hpp.html" target="_top" xlink:title=" ">
<polygon fill="white" stroke="#666666" points="392.75,-296.5 263.5,-296.5 263.5,-266 392.75,-266 392.75,-296.5"/>
<text text-anchor="start" x="271.5" y="-283" font-family="Helvetica,sans-Serif" font-size="10.00">sourcecode/timing/include</text>
<text text-anchor="middle" x="328.12" y="-271.75" font-family="Helvetica,sans-Serif" font-size="10.00">/timing/CRTDesign.hpp</text>
</a>
</g>
</g>
<!-- Node1&#45;&gt;Node2 -->
<g id="edge1_Node000001_Node000002" class="edge">
<title>Node1&#45;&gt;Node2</title>
<g id="a_edge1_Node000001_Node000002"><a xlink:title=" ">
<path fill="none" stroke="#63b8ff" d="M420.81,-327.2C400.66,-317.43 376.7,-305.81 358.19,-296.83"/>
<polygon fill="#63b8ff" stroke="#63b8ff" points="419.06,-330.24 429.58,-331.45 422.11,-323.94 419.06,-330.24"/>
</a>
</g>
</g>
<!-- Node5 -->
<g id="Node000005" class="node">
<title>Node5</title>
<g id="a_Node000005"><a xlink:href="EndpointDesign_8hpp.html" target="_top" xlink:title=" ">
<polygon fill="white" stroke="#666666" points="227,-163.5 93.25,-163.5 93.25,-133 227,-133 227,-163.5"/>
<text text-anchor="start" x="101.25" y="-150" font-family="Helvetica,sans-Serif" font-size="10.00">sourcecode/timing/include</text>
<text text-anchor="middle" x="160.12" y="-138.75" font-family="Helvetica,sans-Serif" font-size="10.00">/timing/EndpointDesign.hpp</text>
</a>
</g>
</g>
<!-- Node1&#45;&gt;Node5 -->
<g id="edge4_Node000001_Node000005" class="edge">
<title>Node1&#45;&gt;Node5</title>
<g id="a_edge4_Node000001_Node000005"><a xlink:title=" ">
<path fill="none" stroke="#63b8ff" d="M385.05,-337.37C344.48,-330.17 294.71,-317.72 254.12,-296.5 214.65,-275.86 201.96,-268.25 179.12,-230 166.72,-209.23 162.42,-180.94 160.92,-163.95"/>
<polygon fill="#63b8ff" stroke="#63b8ff" points="384.29,-340.79 394.73,-339.01 385.46,-333.89 384.29,-340.79"/>
</a>
</g>
</g>
<!-- Node9 -->
<g id="Node000009" class="node">
<title>Node9</title>
<g id="a_Node000009"><a xlink:href="MasterDesign_8hpp.html" target="_top" xlink:title=" ">
<polygon fill="white" stroke="#666666" points="768.75,-230 639.5,-230 639.5,-199.5 768.75,-199.5 768.75,-230"/>
<text text-anchor="start" x="647.5" y="-216.5" font-family="Helvetica,sans-Serif" font-size="10.00">sourcecode/timing/include</text>
<text text-anchor="middle" x="704.12" y="-205.25" font-family="Helvetica,sans-Serif" font-size="10.00">/timing/MasterDesign.hpp</text>
</a>
</g>
</g>
<!-- Node1&#45;&gt;Node9 -->
<g id="edge10_Node000001_Node000009" class="edge">
<title>Node1&#45;&gt;Node9</title>
<g id="a_edge10_Node000001_Node000009"><a xlink:title=" ">
<path fill="none" stroke="#63b8ff" d="M497.98,-326.88C547.24,-300.33 633.38,-253.89 677.07,-230.33"/>
<polygon fill="#63b8ff" stroke="#63b8ff" points="496.53,-323.69 489.39,-331.51 499.85,-329.85 496.53,-323.69"/>
</a>
</g>
</g>
<!-- Node28 -->
<g id="Node000028" class="node">
<title>Node28</title>
<g id="a_Node000028"><a xlink:href="MasterDesignInterface_8hpp.html" target="_top" xlink:title=" ">
<polygon fill="white" stroke="#666666" points="874.38,-296.5 709.88,-296.5 709.88,-266 874.38,-266 874.38,-296.5"/>
<text text-anchor="start" x="717.88" y="-283" font-family="Helvetica,sans-Serif" font-size="10.00">sourcecode/timing/include</text>
<text text-anchor="middle" x="792.12" y="-271.75" font-family="Helvetica,sans-Serif" font-size="10.00">/timing/MasterDesignInterface.hpp</text>
</a>
</g>
</g>
<!-- Node1&#45;&gt;Node28 -->
<g id="edge36_Node000001_Node000028" class="edge">
<title>Node1&#45;&gt;Node28</title>
<g id="a_edge36_Node000001_Node000028"><a xlink:title=" ">
<path fill="none" stroke="#63b8ff" d="M537.32,-331.9C591.12,-321.42 662.9,-307.43 716.56,-296.98"/>
<polygon fill="#63b8ff" stroke="#63b8ff" points="536.76,-328.45 527.61,-333.79 538.1,-335.32 536.76,-328.45"/>
</a>
</g>
</g>
<!-- Node3 -->
<g id="Node000003" class="node">
<title>Node3</title>
<g id="a_Node000003"><a xlink:href="top__designs_8cpp.html" target="_top" xlink:title=" ">
<polygon fill="white" stroke="#666666" points="711,-30.5 571.25,-30.5 571.25,0 711,0 711,-30.5"/>
<text text-anchor="start" x="579.25" y="-17" font-family="Helvetica,sans-Serif" font-size="10.00">sourcecode/timing/pybindsrc</text>
<text text-anchor="middle" x="641.12" y="-5.75" font-family="Helvetica,sans-Serif" font-size="10.00">/top_designs.cpp</text>
</a>
</g>
</g>
<!-- Node2&#45;&gt;Node3 -->
<g id="edge2_Node000002_Node000003" class="edge">
<title>Node2&#45;&gt;Node3</title>
<g id="a_edge2_Node000002_Node000003"><a xlink:title=" ">
<path fill="none" stroke="#63b8ff" d="M324.73,-254.39C320.29,-208.17 318.81,-111.99 375.12,-66.5 404.6,-42.69 502.48,-28.94 570.9,-22.02"/>
<polygon fill="#63b8ff" stroke="#63b8ff" points="321.24,-254.7 325.81,-264.26 328.2,-253.93 321.24,-254.7"/>
</a>
</g>
</g>
<!-- Node4 -->
<g id="Node000004" class="node">
<title>Node4</title>
<g id="a_Node000004"><a xlink:href="CRTDesign_8cpp.html" target="_top" xlink:title=" ">
<polygon fill="white" stroke="#666666" points="300.12,-230 188.12,-230 188.12,-199.5 300.12,-199.5 300.12,-230"/>
<text text-anchor="start" x="196.12" y="-216.5" font-family="Helvetica,sans-Serif" font-size="10.00">sourcecode/timing/src</text>
<text text-anchor="middle" x="244.12" y="-205.25" font-family="Helvetica,sans-Serif" font-size="10.00">/CRTDesign.cpp</text>
</a>
</g>
</g>
<!-- Node2&#45;&gt;Node4 -->
<g id="edge3_Node000002_Node000004" class="edge">
<title>Node2&#45;&gt;Node4</title>
<g id="a_edge3_Node000002_Node000004"><a xlink:title=" ">
<path fill="none" stroke="#63b8ff" d="M300.18,-258.79C288.01,-249.44 274.05,-238.73 263.11,-230.33"/>
<polygon fill="#63b8ff" stroke="#63b8ff" points="297.8,-261.38 307.86,-264.69 302.06,-255.83 297.8,-261.38"/>
</a>
</g>
</g>
<!-- Node5&#45;&gt;Node3 -->
<g id="edge8_Node000005_Node000003" class="edge">
<title>Node5&#45;&gt;Node3</title>
<g id="a_edge8_Node000005_Node000003"><a xlink:title=" ">
<path fill="none" stroke="#63b8ff" d="M158.96,-121.55C159.63,-103.43 163.8,-80.05 179.12,-66.5 207.87,-41.08 449.05,-25.69 571.04,-19.46"/>
<polygon fill="#63b8ff" stroke="#63b8ff" points="155.46,-121.29 158.95,-131.3 162.46,-121.3 155.46,-121.29"/>
</a>
</g>
</g>
<!-- Node6 -->
<g id="Node000006" class="node">
<title>Node6</title>
<g id="a_Node000006"><a xlink:href="ChronosDesign_8hpp.html" target="_top" xlink:title=" ">
<polygon fill="white" stroke="#666666" points="132.25,-97 0,-97 0,-66.5 132.25,-66.5 132.25,-97"/>
<text text-anchor="start" x="8" y="-83.5" font-family="Helvetica,sans-Serif" font-size="10.00">sourcecode/timing/include</text>
<text text-anchor="middle" x="66.12" y="-72.25" font-family="Helvetica,sans-Serif" font-size="10.00">/timing/ChronosDesign.hpp</text>
</a>
</g>
</g>
<!-- Node5&#45;&gt;Node6 -->
<g id="edge5_Node000005_Node000006" class="edge">
<title>Node5&#45;&gt;Node6</title>
<g id="a_edge5_Node000005_Node000006"><a xlink:title=" ">
<path fill="none" stroke="#63b8ff" d="M129.65,-126.34C115.84,-116.87 99.85,-105.89 87.37,-97.33"/>
<polygon fill="#63b8ff" stroke="#63b8ff" points="127.32,-128.99 137.55,-131.76 131.28,-123.21 127.32,-128.99"/>
</a>
</g>
</g>
<!-- Node8 -->
<g id="Node000008" class="node">
<title>Node8</title>
<g id="a_Node000008"><a xlink:href="EndpointDesign_8cpp.html" target="_top" xlink:title=" ">
<polygon fill="white" stroke="#666666" points="300.12,-97 188.12,-97 188.12,-66.5 300.12,-66.5 300.12,-97"/>
<text text-anchor="start" x="196.12" y="-83.5" font-family="Helvetica,sans-Serif" font-size="10.00">sourcecode/timing/src</text>
<text text-anchor="middle" x="244.12" y="-72.25" font-family="Helvetica,sans-Serif" font-size="10.00">/EndpointDesign.cpp</text>
</a>
</g>
</g>
<!-- Node5&#45;&gt;Node8 -->
<g id="edge9_Node000005_Node000008" class="edge">
<title>Node5&#45;&gt;Node8</title>
<g id="a_edge9_Node000005_Node000008"><a xlink:title=" ">
<path fill="none" stroke="#63b8ff" d="M188.07,-125.79C200.24,-116.44 214.2,-105.73 225.14,-97.33"/>
<polygon fill="#63b8ff" stroke="#63b8ff" points="186.19,-122.83 180.39,-131.69 190.45,-128.38 186.19,-122.83"/>
</a>
</g>
</g>
<!-- Node6&#45;&gt;Node3 -->
<g id="edge6_Node000006_Node000003" class="edge">
<title>Node6&#45;&gt;Node3</title>
<g id="a_edge6_Node000006_Node000003"><a xlink:title=" ">
<path fill="none" stroke="#63b8ff" d="M143.6,-66.86C144.44,-66.74 145.29,-66.62 146.12,-66.5 296.91,-45.45 474.7,-29.57 570.84,-21.71"/>
<polygon fill="#63b8ff" stroke="#63b8ff" points="143.28,-63.37 133.91,-68.32 144.33,-70.29 143.28,-63.37"/>
</a>
</g>
</g>
<!-- Node7 -->
<g id="Node000007" class="node">
<title>Node7</title>
<g id="a_Node000007"><a xlink:href="ChronosDesign_8cpp.html" target="_top" xlink:title=" ">
<polygon fill="white" stroke="#666666" points="122.12,-30.5 10.13,-30.5 10.13,0 122.12,0 122.12,-30.5"/>
<text text-anchor="start" x="18.12" y="-17" font-family="Helvetica,sans-Serif" font-size="10.00">sourcecode/timing/src</text>
<text text-anchor="middle" x="66.12" y="-5.75" font-family="Helvetica,sans-Serif" font-size="10.00">/ChronosDesign.cpp</text>
</a>
</g>
</g>
<!-- Node6&#45;&gt;Node7 -->
<g id="edge7_Node000006_Node000007" class="edge">
<title>Node6&#45;&gt;Node7</title>
<g id="a_edge7_Node000006_Node000007"><a xlink:title=" ">
<path fill="none" stroke="#63b8ff" d="M66.12,-54.81C66.12,-46.64 66.12,-37.91 66.12,-30.83"/>
<polygon fill="#63b8ff" stroke="#63b8ff" points="62.63,-54.6 66.13,-64.6 69.63,-54.6 62.63,-54.6"/>
</a>
</g>
</g>
<!-- Node10 -->
<g id="Node000010" class="node">
<title>Node10</title>
<g id="a_Node000010"><a xlink:href="BoreasDesign_8hpp.html" target="_top" xlink:title=" ">
<polygon fill="white" stroke="#666666" points="615.75,-163.5 486.5,-163.5 486.5,-133 615.75,-133 615.75,-163.5"/>
<text text-anchor="start" x="494.5" y="-150" font-family="Helvetica,sans-Serif" font-size="10.00">sourcecode/timing/include</text>
<text text-anchor="middle" x="551.12" y="-138.75" font-family="Helvetica,sans-Serif" font-size="10.00">/timing/BoreasDesign.hpp</text>
</a>
</g>
</g>
<!-- Node9&#45;&gt;Node10 -->
<g id="edge11_Node000009_Node000010" class="edge">
<title>Node9&#45;&gt;Node10</title>
<g id="a_edge11_Node000009_Node000010"><a xlink:title=" ">
<path fill="none" stroke="#63b8ff" d="M659.05,-194.75C635.71,-184.91 607.63,-173.07 585.97,-163.94"/>
<polygon fill="#63b8ff" stroke="#63b8ff" points="657.44,-197.87 668.01,-198.53 660.16,-191.42 657.44,-197.87"/>
</a>
</g>
</g>
<!-- Node12 -->
<g id="Node000012" class="node">
<title>Node12</title>
<g id="a_Node000012"><a xlink:href="MasterMuxDesign_8hpp.html" target="_top" xlink:title=" ">
<polygon fill="white" stroke="#666666" points="994.25,-163.5 850,-163.5 850,-133 994.25,-133 994.25,-163.5"/>
<text text-anchor="start" x="858" y="-150" font-family="Helvetica,sans-Serif" font-size="10.00">sourcecode/timing/include</text>
<text text-anchor="middle" x="922.12" y="-138.75" font-family="Helvetica,sans-Serif" font-size="10.00">/timing/MasterMuxDesign.hpp</text>
</a>
</g>
</g>
<!-- Node9&#45;&gt;Node12 -->
<g id="edge14_Node000009_Node000012" class="edge">
<title>Node9&#45;&gt;Node12</title>
<g id="a_edge14_Node000009_Node000012"><a xlink:title=" ">
<path fill="none" stroke="#63b8ff" d="M764.61,-195.85C798.62,-185.79 840.55,-173.39 872.6,-163.9"/>
<polygon fill="#63b8ff" stroke="#63b8ff" points="763.91,-192.41 755.32,-198.6 765.9,-199.12 763.91,-192.41"/>
</a>
</g>
</g>
<!-- Node23 -->
<g id="Node000023" class="node">
<title>Node23</title>
<g id="a_Node000023"><a xlink:href="OuroborosDesign_8hpp.html" target="_top" xlink:title=" ">
<polygon fill="white" stroke="#666666" points="774.75,-163.5 633.5,-163.5 633.5,-133 774.75,-133 774.75,-163.5"/>
<text text-anchor="start" x="641.5" y="-150" font-family="Helvetica,sans-Serif" font-size="10.00">sourcecode/timing/include</text>
<text text-anchor="middle" x="704.12" y="-138.75" font-family="Helvetica,sans-Serif" font-size="10.00">/timing/OuroborosDesign.hpp</text>
</a>
</g>
</g>
<!-- Node9&#45;&gt;Node23 -->
<g id="edge29_Node000009_Node000023" class="edge">
<title>Node9&#45;&gt;Node23</title>
<g id="a_edge29_Node000009_Node000023"><a xlink:title=" ">
<path fill="none" stroke="#63b8ff" d="M704.12,-187.81C704.12,-179.64 704.12,-170.91 704.12,-163.83"/>
<polygon fill="#63b8ff" stroke="#63b8ff" points="700.63,-187.6 704.13,-197.6 707.63,-187.6 700.63,-187.6"/>
</a>
</g>
</g>
<!-- Node25 -->
<g id="Node000025" class="node">
<title>Node25</title>
<g id="a_Node000025"><a xlink:href="OverlordDesign_8hpp.html" target="_top" xlink:title=" ">
<polygon fill="white" stroke="#666666" points="1203.62,-163.5 1070.62,-163.5 1070.62,-133 1203.62,-133 1203.62,-163.5"/>
<text text-anchor="start" x="1078.62" y="-150" font-family="Helvetica,sans-Serif" font-size="10.00">sourcecode/timing/include</text>
<text text-anchor="middle" x="1137.12" y="-138.75" font-family="Helvetica,sans-Serif" font-size="10.00">/timing/OverlordDesign.hpp</text>
</a>
</g>
</g>
<!-- Node9&#45;&gt;Node25 -->
<g id="edge32_Node000009_Node000025" class="edge">
<title>Node9&#45;&gt;Node25</title>
<g id="a_edge32_Node000009_Node000025"><a xlink:title=" ">
<path fill="none" stroke="#63b8ff" d="M780.22,-202.41C862.42,-190.17 992.09,-170.85 1070.43,-159.18"/>
<polygon fill="#63b8ff" stroke="#63b8ff" points="779.82,-198.94 770.45,-203.87 780.85,-205.86 779.82,-198.94"/>
</a>
</g>
</g>
<!-- Node27 -->
<g id="Node000027" class="node">
<title>Node27</title>
<g id="a_Node000027"><a xlink:href="MasterDesign_8cpp.html" target="_top" xlink:title=" ">
<polygon fill="white" stroke="#666666" points="468.12,-163.5 356.12,-163.5 356.12,-133 468.12,-133 468.12,-163.5"/>
<text text-anchor="start" x="364.12" y="-150" font-family="Helvetica,sans-Serif" font-size="10.00">sourcecode/timing/src</text>
<text text-anchor="middle" x="412.12" y="-138.75" font-family="Helvetica,sans-Serif" font-size="10.00">/MasterDesign.cpp</text>
</a>
</g>
</g>
<!-- Node9&#45;&gt;Node27 -->
<g id="edge35_Node000009_Node000027" class="edge">
<title>Node9&#45;&gt;Node27</title>
<g id="a_edge35_Node000009_Node000027"><a xlink:title=" ">
<path fill="none" stroke="#63b8ff" d="M628.24,-196.99C578.23,-185.94 513.82,-171.71 468.38,-161.68"/>
<polygon fill="#63b8ff" stroke="#63b8ff" points="627.32,-200.37 637.84,-199.11 628.83,-193.53 627.32,-200.37"/>
</a>
</g>
</g>
<!-- Node10&#45;&gt;Node3 -->
<g id="edge12_Node000010_Node000003" class="edge">
<title>Node10&#45;&gt;Node3</title>
<g id="a_edge12_Node000010_Node000003"><a xlink:title=" ">
<path fill="none" stroke="#63b8ff" d="M478.93,-129.64C436.97,-118.68 391.18,-105.16 385.12,-97 377.05,-86.11 376.51,-76.97 385.12,-66.5 408.25,-38.39 503.28,-25.77 570.78,-20.27"/>
<polygon fill="#63b8ff" stroke="#63b8ff" points="478.03,-133.02 488.59,-132.13 479.78,-126.24 478.03,-133.02"/>
</a>
</g>
</g>
<!-- Node11 -->
<g id="Node000011" class="node">
<title>Node11</title>
<g id="a_Node000011"><a xlink:href="BoreasDesign_8cpp.html" target="_top" xlink:title=" ">
<polygon fill="white" stroke="#666666" points="506.12,-97 394.12,-97 394.12,-66.5 506.12,-66.5 506.12,-97"/>
<text text-anchor="start" x="402.12" y="-83.5" font-family="Helvetica,sans-Serif" font-size="10.00">sourcecode/timing/src</text>
<text text-anchor="middle" x="450.12" y="-72.25" font-family="Helvetica,sans-Serif" font-size="10.00">/BoreasDesign.cpp</text>
</a>
</g>
</g>
<!-- Node10&#45;&gt;Node11 -->
<g id="edge13_Node000010_Node000011" class="edge">
<title>Node10&#45;&gt;Node11</title>
<g id="a_edge13_Node000010_Node000011"><a xlink:title=" ">
<path fill="none" stroke="#63b8ff" d="M518.81,-126.61C503.88,-117.08 486.49,-105.98 472.95,-97.33"/>
<polygon fill="#63b8ff" stroke="#63b8ff" points="516.62,-129.37 526.93,-131.8 520.39,-123.47 516.62,-129.37"/>
</a>
</g>
</g>
<!-- Node13 -->
<g id="Node000013" class="node">
<title>Node13</title>
<g id="a_Node000013"><a xlink:href="FanoutDesign_8hpp.html" target="_top" xlink:title=" ">
<polygon fill="white" stroke="#666666" points="1470.75,-97 1341.5,-97 1341.5,-66.5 1470.75,-66.5 1470.75,-97"/>
<text text-anchor="start" x="1349.5" y="-83.5" font-family="Helvetica,sans-Serif" font-size="10.00">sourcecode/timing/include</text>
<text text-anchor="middle" x="1406.12" y="-72.25" font-family="Helvetica,sans-Serif" font-size="10.00">/timing/FanoutDesign.hpp</text>
</a>
</g>
</g>
<!-- Node12&#45;&gt;Node13 -->
<g id="edge15_Node000012_Node000013" class="edge">
<title>Node12&#45;&gt;Node13</title>
<g id="a_edge15_Node000012_Node000013"><a xlink:title=" ">
<path fill="none" stroke="#63b8ff" d="M1006.15,-138.75C1089.39,-129.9 1220.39,-114.87 1333.12,-97 1335.8,-96.58 1338.53,-96.12 1341.29,-95.65"/>
<polygon fill="#63b8ff" stroke="#63b8ff" points="1005.81,-135.26 996.23,-139.79 1006.55,-142.22 1005.81,-135.26"/>
</a>
</g>
</g>
<!-- Node16 -->
<g id="Node000016" class="node">
<title>Node16</title>
<g id="a_Node000016"><a xlink:href="GaiaDesign_8hpp.html" target="_top" xlink:title=" ">
<polygon fill="white" stroke="#666666" points="1323.75,-97 1194.5,-97 1194.5,-66.5 1323.75,-66.5 1323.75,-97"/>
<text text-anchor="start" x="1202.5" y="-83.5" font-family="Helvetica,sans-Serif" font-size="10.00">sourcecode/timing/include</text>
<text text-anchor="middle" x="1259.12" y="-72.25" font-family="Helvetica,sans-Serif" font-size="10.00">/timing/GaiaDesign.hpp</text>
</a>
</g>
</g>
<!-- Node12&#45;&gt;Node16 -->
<g id="edge19_Node000012_Node000016" class="edge">
<title>Node12&#45;&gt;Node16</title>
<g id="a_edge19_Node000012_Node000016"><a xlink:title=" ">
<path fill="none" stroke="#63b8ff" d="M1005.44,-131.3C1063.67,-120.16 1140.33,-105.49 1194.08,-95.2"/>
<polygon fill="#63b8ff" stroke="#63b8ff" points="1005.07,-127.81 995.91,-133.13 1006.39,-134.69 1005.07,-127.81"/>
</a>
</g>
</g>
<!-- Node18 -->
<g id="Node000018" class="node">
<title>Node18</title>
<g id="a_Node000018"><a xlink:href="KerberosDesign_8hpp.html" target="_top" xlink:title=" ">
<polygon fill="white" stroke="#666666" points="960.75,-97 825.5,-97 825.5,-66.5 960.75,-66.5 960.75,-97"/>
<text text-anchor="start" x="833.5" y="-83.5" font-family="Helvetica,sans-Serif" font-size="10.00">sourcecode/timing/include</text>
<text text-anchor="middle" x="893.12" y="-72.25" font-family="Helvetica,sans-Serif" font-size="10.00">/timing/KerberosDesign.hpp</text>
</a>
</g>
</g>
<!-- Node12&#45;&gt;Node18 -->
<g id="edge22_Node000012_Node000018" class="edge">
<title>Node12&#45;&gt;Node18</title>
<g id="a_edge22_Node000012_Node000018"><a xlink:title=" ">
<path fill="none" stroke="#63b8ff" d="M910.84,-122.16C907.06,-113.75 902.98,-104.66 899.68,-97.33"/>
<polygon fill="#63b8ff" stroke="#63b8ff" points="907.63,-123.55 914.92,-131.23 914.02,-120.68 907.63,-123.55"/>
</a>
</g>
</g>
<!-- Node20 -->
<g id="Node000020" class="node">
<title>Node20</title>
<g id="a_Node000020"><a xlink:href="OuroborosMuxDesign_8hpp.html" target="_top" xlink:title=" ">
<polygon fill="white" stroke="#666666" points="1137.75,-97 978.5,-97 978.5,-66.5 1137.75,-66.5 1137.75,-97"/>
<text text-anchor="start" x="986.5" y="-83.5" font-family="Helvetica,sans-Serif" font-size="10.00">sourcecode/timing/include</text>
<text text-anchor="middle" x="1058.12" y="-72.25" font-family="Helvetica,sans-Serif" font-size="10.00">/timing/OuroborosMuxDesign.hpp</text>
</a>
</g>
</g>
<!-- Node12&#45;&gt;Node20 -->
<g id="edge25_Node000012_Node000020" class="edge">
<title>Node12&#45;&gt;Node20</title>
<g id="a_edge25_Node000012_Node000020"><a xlink:title=" ">
<path fill="none" stroke="#63b8ff" d="M963.35,-127.7C983.95,-117.93 1008.46,-106.31 1027.39,-97.33"/>
<polygon fill="#63b8ff" stroke="#63b8ff" points="961.89,-124.52 954.35,-131.97 964.89,-130.84 961.89,-124.52"/>
</a>
</g>
</g>
<!-- Node22 -->
<g id="Node000022" class="node">
<title>Node22</title>
<g id="a_Node000022"><a xlink:href="MasterMuxDesign_8cpp.html" target="_top" xlink:title=" ">
<polygon fill="white" stroke="#666666" points="807.62,-97 692.62,-97 692.62,-66.5 807.62,-66.5 807.62,-97"/>
<text text-anchor="start" x="700.62" y="-83.5" font-family="Helvetica,sans-Serif" font-size="10.00">sourcecode/timing/src</text>
<text text-anchor="middle" x="750.12" y="-72.25" font-family="Helvetica,sans-Serif" font-size="10.00">/MasterMuxDesign.cpp</text>
</a>
</g>
</g>
<!-- Node12&#45;&gt;Node22 -->
<g id="edge28_Node000012_Node000022" class="edge">
<title>Node12&#45;&gt;Node22</title>
<g id="a_edge28_Node000012_Node000022"><a xlink:title=" ">
<path fill="none" stroke="#63b8ff" d="M872.52,-128.65C846.06,-118.73 813.98,-106.7 789.3,-97.44"/>
<polygon fill="#63b8ff" stroke="#63b8ff" points="871.09,-131.85 881.68,-132.08 873.54,-125.29 871.09,-131.85"/>
</a>
</g>
</g>
<!-- Node13&#45;&gt;Node3 -->
<g id="edge16_Node000013_Node000003" class="edge">
<title>Node13&#45;&gt;Node3</title>
<g id="a_edge16_Node000013_Node000003"><a xlink:title=" ">
<path fill="none" stroke="#63b8ff" d="M1329.94,-66.17C1108.11,-37.22 1048.8,-46.77 828.12,-30.5 789.48,-27.65 746.36,-24.37 711.27,-21.68"/>
<polygon fill="#63b8ff" stroke="#63b8ff" points="1329.44,-69.64 1339.81,-67.48 1330.36,-62.7 1329.44,-69.64"/>
</a>
</g>
</g>
<!-- Node14 -->
<g id="Node000014" class="node">
<title>Node14</title>
<g id="a_Node000014"><a xlink:href="FanoutDesign_8cpp.html" target="_top" xlink:title=" ">
<polygon fill="white" stroke="#666666" points="1462.12,-30.5 1350.12,-30.5 1350.12,0 1462.12,0 1462.12,-30.5"/>
<text text-anchor="start" x="1358.12" y="-17" font-family="Helvetica,sans-Serif" font-size="10.00">sourcecode/timing/src</text>
<text text-anchor="middle" x="1406.12" y="-5.75" font-family="Helvetica,sans-Serif" font-size="10.00">/FanoutDesign.cpp</text>
</a>
</g>
</g>
<!-- Node13&#45;&gt;Node14 -->
<g id="edge17_Node000013_Node000014" class="edge">
<title>Node13&#45;&gt;Node14</title>
<g id="a_edge17_Node000013_Node000014"><a xlink:title=" ">
<path fill="none" stroke="#63b8ff" d="M1406.12,-54.81C1406.12,-46.64 1406.12,-37.91 1406.12,-30.83"/>
<polygon fill="#63b8ff" stroke="#63b8ff" points="1402.63,-54.6 1406.13,-64.6 1409.63,-54.6 1402.63,-54.6"/>
</a>
</g>
</g>
<!-- Node15 -->
<g id="Node000015" class="node">
<title>Node15</title>
<g id="a_Node000015"><a xlink:href="TimingHardwareManager_8cpp.html" target="_top" xlink:title=" ">
<polygon fill="white" stroke="#666666" points="1676.25,-30.5 1514,-30.5 1514,0 1676.25,0 1676.25,-30.5"/>
<text text-anchor="start" x="1522" y="-17" font-family="Helvetica,sans-Serif" font-size="10.00">sourcecode/timinglibs</text>
<text text-anchor="middle" x="1595.12" y="-5.75" font-family="Helvetica,sans-Serif" font-size="10.00">/src/TimingHardwareManager.cpp</text>
</a>
</g>
</g>
<!-- Node13&#45;&gt;Node15 -->
<g id="edge18_Node000013_Node000015" class="edge">
<title>Node13&#45;&gt;Node15</title>
<g id="a_edge18_Node000013_Node000015"><a xlink:title=" ">
<path fill="none" stroke="#63b8ff" d="M1459.86,-62.41C1489.08,-52.44 1524.72,-40.28 1552.08,-30.94"/>
<polygon fill="#63b8ff" stroke="#63b8ff" points="1458.78,-59.08 1450.44,-65.63 1461.04,-65.71 1458.78,-59.08"/>
</a>
</g>
</g>
<!-- Node16&#45;&gt;Node3 -->
<g id="edge20_Node000016_Node000003" class="edge">
<title>Node16&#45;&gt;Node3</title>
<g id="a_edge20_Node000016_Node000003"><a xlink:title=" ">
<path fill="none" stroke="#63b8ff" d="M1183.13,-66.92C1182.13,-66.78 1181.12,-66.64 1180.12,-66.5 1091.31,-54.37 835.6,-32.42 711.01,-22.02"/>
<polygon fill="#63b8ff" stroke="#63b8ff" points="1182.19,-70.32 1192.6,-68.34 1183.23,-63.39 1182.19,-70.32"/>
</a>
</g>
</g>
<!-- Node17 -->
<g id="Node000017" class="node">
<title>Node17</title>
<g id="a_Node000017"><a xlink:href="GaiaDesign_8cpp.html" target="_top" xlink:title=" ">
<polygon fill="white" stroke="#666666" points="1315.12,-30.5 1203.12,-30.5 1203.12,0 1315.12,0 1315.12,-30.5"/>
<text text-anchor="start" x="1211.12" y="-17" font-family="Helvetica,sans-Serif" font-size="10.00">sourcecode/timing/src</text>
<text text-anchor="middle" x="1259.12" y="-5.75" font-family="Helvetica,sans-Serif" font-size="10.00">/GaiaDesign.cpp</text>
</a>
</g>
</g>
<!-- Node16&#45;&gt;Node17 -->
<g id="edge21_Node000016_Node000017" class="edge">
<title>Node16&#45;&gt;Node17</title>
<g id="a_edge21_Node000016_Node000017"><a xlink:title=" ">
<path fill="none" stroke="#63b8ff" d="M1259.12,-54.81C1259.12,-46.64 1259.12,-37.91 1259.12,-30.83"/>
<polygon fill="#63b8ff" stroke="#63b8ff" points="1255.63,-54.6 1259.13,-64.6 1262.63,-54.6 1255.63,-54.6"/>
</a>
</g>
</g>
<!-- Node18&#45;&gt;Node3 -->
<g id="edge23_Node000018_Node000003" class="edge">
<title>Node18&#45;&gt;Node3</title>
<g id="a_edge23_Node000018_Node000003"><a xlink:title=" ">
<path fill="none" stroke="#63b8ff" d="M824.48,-63.18C784.94,-53.06 735.82,-40.49 698.38,-30.9"/>
<polygon fill="#63b8ff" stroke="#63b8ff" points="823.61,-66.57 834.16,-65.66 825.34,-59.79 823.61,-66.57"/>
</a>
</g>
</g>
<!-- Node19 -->
<g id="Node000019" class="node">
<title>Node19</title>
<g id="a_Node000019"><a xlink:href="KerberosDesign_8cpp.html" target="_top" xlink:title=" ">
<polygon fill="white" stroke="#666666" points="949.12,-30.5 837.12,-30.5 837.12,0 949.12,0 949.12,-30.5"/>
<text text-anchor="start" x="845.12" y="-17" font-family="Helvetica,sans-Serif" font-size="10.00">sourcecode/timing/src</text>
<text text-anchor="middle" x="893.12" y="-5.75" font-family="Helvetica,sans-Serif" font-size="10.00">/KerberosDesign.cpp</text>
</a>
</g>
</g>
<!-- Node18&#45;&gt;Node19 -->
<g id="edge24_Node000018_Node000019" class="edge">
<title>Node18&#45;&gt;Node19</title>
<g id="a_edge24_Node000018_Node000019"><a xlink:title=" ">
<path fill="none" stroke="#63b8ff" d="M893.12,-54.81C893.12,-46.64 893.12,-37.91 893.12,-30.83"/>
<polygon fill="#63b8ff" stroke="#63b8ff" points="889.63,-54.6 893.13,-64.6 896.63,-54.6 889.63,-54.6"/>
</a>
</g>
</g>
<!-- Node20&#45;&gt;Node3 -->
<g id="edge26_Node000020_Node000003" class="edge">
<title>Node20&#45;&gt;Node3</title>
<g id="a_edge26_Node000020_Node000003"><a xlink:title=" ">
<path fill="none" stroke="#63b8ff" d="M966.92,-66C873.16,-51.29 775.52,-36.46 711.43,-26.8"/>
<polygon fill="#63b8ff" stroke="#63b8ff" points="966.12,-69.42 976.54,-67.51 967.2,-62.5 966.12,-69.42"/>
</a>
</g>
</g>
<!-- Node21 -->
<g id="Node000021" class="node">
<title>Node21</title>
<g id="a_Node000021"><a xlink:href="OuroborosMuxDesign_8cpp.html" target="_top" xlink:title=" ">
<polygon fill="white" stroke="#666666" points="1123.12,-30.5 993.12,-30.5 993.12,0 1123.12,0 1123.12,-30.5"/>
<text text-anchor="start" x="1001.12" y="-17" font-family="Helvetica,sans-Serif" font-size="10.00">sourcecode/timing/src</text>
<text text-anchor="middle" x="1058.12" y="-5.75" font-family="Helvetica,sans-Serif" font-size="10.00">/OuroborosMuxDesign.cpp</text>
</a>
</g>
</g>
<!-- Node20&#45;&gt;Node21 -->
<g id="edge27_Node000020_Node000021" class="edge">
<title>Node20&#45;&gt;Node21</title>
<g id="a_edge27_Node000020_Node000021"><a xlink:title=" ">
<path fill="none" stroke="#63b8ff" d="M1058.12,-54.81C1058.12,-46.64 1058.12,-37.91 1058.12,-30.83"/>
<polygon fill="#63b8ff" stroke="#63b8ff" points="1054.63,-54.6 1058.13,-64.6 1061.63,-54.6 1054.63,-54.6"/>
</a>
</g>
</g>
<!-- Node23&#45;&gt;Node3 -->
<g id="edge30_Node000023_Node000003" class="edge">
<title>Node23&#45;&gt;Node3</title>
<g id="a_edge30_Node000023_Node000003"><a xlink:title=" ">
<path fill="none" stroke="#63b8ff" d="M624.09,-129.62C592.83,-120.97 562.27,-109.68 553.12,-97 545.2,-86.01 546.32,-78.22 553.12,-66.5 562.58,-50.22 579.5,-38.77 596,-30.96"/>
<polygon fill="#63b8ff" stroke="#63b8ff" points="623.12,-132.98 633.68,-132.17 624.92,-126.22 623.12,-132.98"/>
</a>
</g>
</g>
<!-- Node24 -->
<g id="Node000024" class="node">
<title>Node24</title>
<g id="a_Node000024"><a xlink:href="OuroborosDesign_8cpp.html" target="_top" xlink:title=" ">
<polygon fill="white" stroke="#666666" points="674.12,-97 562.12,-97 562.12,-66.5 674.12,-66.5 674.12,-97"/>
<text text-anchor="start" x="570.12" y="-83.5" font-family="Helvetica,sans-Serif" font-size="10.00">sourcecode/timing/src</text>
<text text-anchor="middle" x="618.12" y="-72.25" font-family="Helvetica,sans-Serif" font-size="10.00">/OuroborosDesign.cpp</text>
</a>
</g>
</g>
<!-- Node23&#45;&gt;Node24 -->
<g id="edge31_Node000023_Node000024" class="edge">
<title>Node23&#45;&gt;Node24</title>
<g id="a_edge31_Node000023_Node000024"><a xlink:title=" ">
<path fill="none" stroke="#63b8ff" d="M675.52,-125.79C663.05,-116.44 648.76,-105.73 637.56,-97.33"/>
<polygon fill="#63b8ff" stroke="#63b8ff" points="673.3,-128.51 683.4,-131.71 677.5,-122.91 673.3,-128.51"/>
</a>
</g>
</g>
<!-- Node25&#45;&gt;Node3 -->
<g id="edge33_Node000025_Node000003" class="edge">
<title>Node25&#45;&gt;Node3</title>
<g id="a_edge33_Node000025_Node000003"><a xlink:title=" ">
<path fill="none" stroke="#63b8ff" d="M1149.35,-122.23C1156.06,-104.51 1160.57,-81.34 1147.12,-66.5 1139.88,-58.5 848.61,-33.42 711.34,-22"/>
<polygon fill="#63b8ff" stroke="#63b8ff" points="1146.19,-120.72 1145.51,-131.3 1152.63,-123.46 1146.19,-120.72"/>
</a>
</g>
</g>
<!-- Node26 -->
<g id="Node000026" class="node">
<title>Node26</title>
<g id="a_Node000026"><a xlink:href="OverlordDesign_8cpp.html" target="_top" xlink:title=" ">
<polygon fill="white" stroke="#666666" points="1601.12,-97 1489.12,-97 1489.12,-66.5 1601.12,-66.5 1601.12,-97"/>
<text text-anchor="start" x="1497.12" y="-83.5" font-family="Helvetica,sans-Serif" font-size="10.00">sourcecode/timing/src</text>
<text text-anchor="middle" x="1545.12" y="-72.25" font-family="Helvetica,sans-Serif" font-size="10.00">/OverlordDesign.cpp</text>
</a>
</g>
</g>
<!-- Node25&#45;&gt;Node26 -->
<g id="edge34_Node000025_Node000026" class="edge">
<title>Node25&#45;&gt;Node26</title>
<g id="a_edge34_Node000025_Node000026"><a xlink:title=" ">
<path fill="none" stroke="#63b8ff" d="M1215.14,-132.74C1333.29,-114.17 1365.78,-117.21 1480.12,-97 1482.97,-96.5 1485.88,-95.96 1488.81,-95.39"/>
<polygon fill="#63b8ff" stroke="#63b8ff" points="1214.64,-129.28 1205.31,-134.31 1215.74,-136.19 1214.64,-129.28"/>
</a>
</g>
</g>
<!-- Node28&#45;&gt;Node9 -->
<g id="edge37_Node000028_Node000009" class="edge">
<title>Node28&#45;&gt;Node9</title>
<g id="a_edge37_Node000028_Node000009"><a xlink:title=" ">
<path fill="none" stroke="#63b8ff" d="M763.22,-259.07C750.38,-249.66 735.59,-238.81 724.01,-230.33"/>
<polygon fill="#63b8ff" stroke="#63b8ff" points="760.8,-261.63 770.94,-264.72 764.94,-255.98 760.8,-261.63"/>
</a>
</g>
</g>
<!-- Node29 -->
<g id="Node000029" class="node">
<title>Node29</title>
<g id="a_Node000029"><a xlink:href="OverlordDesignInterface_8hpp.html" target="_top" xlink:title=" ">
<polygon fill="white" stroke="#666666" points="1222.75,-230 1051.5,-230 1051.5,-199.5 1222.75,-199.5 1222.75,-230"/>
<text text-anchor="start" x="1059.5" y="-216.5" font-family="Helvetica,sans-Serif" font-size="10.00">sourcecode/timing/include</text>
<text text-anchor="middle" x="1137.12" y="-205.25" font-family="Helvetica,sans-Serif" font-size="10.00">/timing/OverlordDesignInterface.hpp</text>
</a>
</g>
</g>
<!-- Node28&#45;&gt;Node29 -->
<g id="edge38_Node000028_Node000029" class="edge">
<title>Node28&#45;&gt;Node29</title>
<g id="a_edge38_Node000028_Node000029"><a xlink:title=" ">
<path fill="none" stroke="#63b8ff" d="M881.93,-263.46C936.65,-253.23 1005.9,-240.28 1058.45,-230.46"/>
<polygon fill="#63b8ff" stroke="#63b8ff" points="881.52,-259.98 872.33,-265.26 882.8,-266.86 881.52,-259.98"/>
</a>
</g>
</g>
<!-- Node31 -->
<g id="Node000031" class="node">
<title>Node31</title>
<g id="a_Node000031"><a xlink:href="TimingHardwareManager_8hpp.html" target="_top" xlink:title=" ">
<polygon fill="white" stroke="#666666" points="1571.25,-230 1409,-230 1409,-199.5 1571.25,-199.5 1571.25,-230"/>
<text text-anchor="start" x="1417" y="-216.5" font-family="Helvetica,sans-Serif" font-size="10.00">sourcecode/timinglibs</text>
<text text-anchor="middle" x="1490.12" y="-205.25" font-family="Helvetica,sans-Serif" font-size="10.00">/src/TimingHardwareManager.hpp</text>
</a>
</g>
</g>
<!-- Node28&#45;&gt;Node31 -->
<g id="edge41_Node000028_Node000031" class="edge">
<title>Node28&#45;&gt;Node31</title>
<g id="a_edge41_Node000028_Node000031"><a xlink:title=" ">
<path fill="none" stroke="#63b8ff" d="M885.92,-271.58C1023.66,-258.85 1278.36,-235.32 1408.68,-223.28"/>
<polygon fill="#63b8ff" stroke="#63b8ff" points="885.73,-268.08 876.1,-272.49 886.38,-275.06 885.73,-268.08"/>
</a>
</g>
</g>
<!-- Node29&#45;&gt;Node25 -->
<g id="edge39_Node000029_Node000025" class="edge">
<title>Node29&#45;&gt;Node25</title>
<g id="a_edge39_Node000029_Node000025"><a xlink:title=" ">
<path fill="none" stroke="#63b8ff" d="M1137.12,-187.81C1137.12,-179.64 1137.12,-170.91 1137.12,-163.83"/>
<polygon fill="#63b8ff" stroke="#63b8ff" points="1133.63,-187.6 1137.13,-197.6 1140.63,-187.6 1133.63,-187.6"/>
</a>
</g>
</g>
<!-- Node30 -->
<g id="Node000030" class="node">
<title>Node30</title>
<g id="a_Node000030"><a xlink:href="OverlordDesignInterface_8cpp.html" target="_top" xlink:title=" ">
<polygon fill="white" stroke="#666666" points="1364.12,-163.5 1222.12,-163.5 1222.12,-133 1364.12,-133 1364.12,-163.5"/>
<text text-anchor="start" x="1230.12" y="-150" font-family="Helvetica,sans-Serif" font-size="10.00">sourcecode/timing/src</text>
<text text-anchor="middle" x="1293.12" y="-138.75" font-family="Helvetica,sans-Serif" font-size="10.00">/OverlordDesignInterface.cpp</text>
</a>
</g>
</g>
<!-- Node29&#45;&gt;Node30 -->
<g id="edge40_Node000029_Node000030" class="edge">
<title>Node29&#45;&gt;Node30</title>
<g id="a_edge40_Node000029_Node000030"><a xlink:title=" ">
<path fill="none" stroke="#63b8ff" d="M1183.08,-194.75C1206.89,-184.91 1235.51,-173.07 1257.6,-163.94"/>
<polygon fill="#63b8ff" stroke="#63b8ff" points="1181.83,-191.48 1173.92,-198.54 1184.5,-197.95 1181.83,-191.48"/>
</a>
</g>
</g>
<!-- Node31&#45;&gt;Node15 -->
<g id="edge42_Node000031_Node000015" class="edge">
<title>Node31&#45;&gt;Node15</title>
<g id="a_edge42_Node000031_Node000015"><a xlink:title=" ">
<path fill="none" stroke="#63b8ff" d="M1523.5,-192.77C1552.55,-172.34 1592.65,-138.38 1610.12,-97 1619.39,-75.06 1610.18,-47.38 1602.66,-30.79"/>
<polygon fill="#63b8ff" stroke="#63b8ff" points="1521.66,-189.78 1515.37,-198.31 1525.61,-195.57 1521.66,-189.78"/>
</a>
</g>
</g>
</g>
</svg>
