<?xml version="1.0" encoding="UTF-8" standalone="no"?>
<!DOCTYPE svg PUBLIC "-//W3C//DTD SVG 1.1//EN"
 "http://www.w3.org/Graphics/SVG/1.1/DTD/svg11.dtd">
<!-- Generated by graphviz version 9.0.0 (20230911.1827)
 -->
<!-- Title: sourcecode/detchannelmaps/include/detchannelmaps/TPCChannelMap.hpp Pages: 1 -->
<svg width="370pt" height="205pt"
 viewBox="0.00 0.00 370.38 205.25" xmlns="http://www.w3.org/2000/svg" xmlns:xlink="http://www.w3.org/1999/xlink">
<g id="graph0" class="graph" transform="scale(1 1) rotate(0) translate(4 201.25)">
<title>sourcecode/detchannelmaps/include/detchannelmaps/TPCChannelMap.hpp</title>
<!-- Node1 -->
<g id="Node000001" class="node">
<title>Node1</title>
<g id="a_Node000001"><a xlink:title=" ">
<polygon fill="#999999" stroke="#666666" points="235.5,-197.25 95,-197.25 95,-155.5 235.5,-155.5 235.5,-197.25"/>
<text text-anchor="start" x="103" y="-183.75" font-family="Helvetica,sans-Serif" font-size="10.00">sourcecode/detchannelmaps</text>
<text text-anchor="start" x="103" y="-172.5" font-family="Helvetica,sans-Serif" font-size="10.00">/include/detchannelmaps</text>
<text text-anchor="middle" x="165.25" y="-161.25" font-family="Helvetica,sans-Serif" font-size="10.00">/TPCChannelMap.hpp</text>
</a>
</g>
</g>
<!-- Node2 -->
<g id="Node000002" class="node">
<title>Node2</title>
<g id="a_Node000002"><a xlink:href="channelmap_8cpp.html" target="_top" xlink:title=" ">
<polygon fill="white" stroke="#666666" points="140.5,-113.88 0,-113.88 0,-83.38 140.5,-83.38 140.5,-113.88"/>
<text text-anchor="start" x="8" y="-100.38" font-family="Helvetica,sans-Serif" font-size="10.00">sourcecode/detchannelmaps</text>
<text text-anchor="middle" x="70.25" y="-89.12" font-family="Helvetica,sans-Serif" font-size="10.00">/pybindsrc/channelmap.cpp</text>
</a>
</g>
</g>
<!-- Node1&#45;&gt;Node2 -->
<g id="edge1_Node000001_Node000002" class="edge">
<title>Node1&#45;&gt;Node2</title>
<g id="a_edge1_Node000001_Node000002"><a xlink:title=" ">
<path fill="none" stroke="#63b8ff" d="M131.12,-148.16C116.75,-136.7 100.6,-123.83 88.55,-114.21"/>
<polygon fill="#63b8ff" stroke="#63b8ff" points="128.61,-150.63 138.61,-154.13 132.97,-145.16 128.61,-150.63"/>
</a>
</g>
</g>
<!-- Node3 -->
<g id="Node000003" class="node">
<title>Node3</title>
<g id="a_Node000003"><a xlink:href="TriggerActivityMakerPlaneCoincidence_8hpp.html" target="_top" xlink:title=" ">
<polygon fill="white" stroke="#666666" points="362.38,-119.5 158.12,-119.5 158.12,-77.75 362.38,-77.75 362.38,-119.5"/>
<text text-anchor="start" x="166.12" y="-106" font-family="Helvetica,sans-Serif" font-size="10.00">sourcecode/triggeralgs</text>
<text text-anchor="start" x="166.12" y="-94.75" font-family="Helvetica,sans-Serif" font-size="10.00">/include/triggeralgs/PlaneCoincidence</text>
<text text-anchor="middle" x="260.25" y="-83.5" font-family="Helvetica,sans-Serif" font-size="10.00">/TriggerActivityMakerPlaneCoincidence.hpp</text>
</a>
</g>
</g>
<!-- Node1&#45;&gt;Node3 -->
<g id="edge2_Node000001_Node000003" class="edge">
<title>Node1&#45;&gt;Node3</title>
<g id="a_edge2_Node000001_Node000003"><a xlink:title=" ">
<path fill="none" stroke="#63b8ff" d="M199.69,-147.91C211.26,-138.69 223.96,-128.56 234.72,-119.98"/>
<polygon fill="#63b8ff" stroke="#63b8ff" points="197.53,-145.16 191.89,-154.13 201.89,-150.63 197.53,-145.16"/>
</a>
</g>
</g>
<!-- Node4 -->
<g id="Node000004" class="node">
<title>Node4</title>
<g id="a_Node000004"><a xlink:href="TriggerActivityMakerPlaneCoincidence_8cpp.html" target="_top" xlink:title=" ">
<polygon fill="white" stroke="#666666" points="335,-41.75 185.5,-41.75 185.5,0 335,0 335,-41.75"/>
<text text-anchor="start" x="193.5" y="-28.25" font-family="Helvetica,sans-Serif" font-size="10.00">sourcecode/triggeralgs</text>
<text text-anchor="start" x="193.5" y="-17" font-family="Helvetica,sans-Serif" font-size="10.00">/src/TriggerActivityMakerPlane</text>
<text text-anchor="middle" x="260.25" y="-5.75" font-family="Helvetica,sans-Serif" font-size="10.00">Coincidence.cpp</text>
</a>
</g>
</g>
<!-- Node3&#45;&gt;Node4 -->
<g id="edge3_Node000003_Node000004" class="edge">
<title>Node3&#45;&gt;Node4</title>
<g id="a_edge3_Node000003_Node000004"><a xlink:title=" ">
<path fill="none" stroke="#63b8ff" d="M260.25,-66C260.25,-57.96 260.25,-49.54 260.25,-42.23"/>
<polygon fill="#63b8ff" stroke="#63b8ff" points="256.75,-65.81 260.25,-75.81 263.75,-65.81 256.75,-65.81"/>
</a>
</g>
</g>
</g>
</svg>
