<?xml version="1.0" encoding="UTF-8" standalone="no"?>
<!DOCTYPE svg PUBLIC "-//W3C//DTD SVG 1.1//EN"
 "http://www.w3.org/Graphics/SVG/1.1/DTD/svg11.dtd">
<!-- Generated by graphviz version 9.0.0 (20230911.1827)
 -->
<!-- Title: sourcecode/triggeralgs/include/triggeralgs/TPWindow.hpp Pages: 1 -->
<svg width="538pt" height="205pt"
 viewBox="0.00 0.00 538.00 205.25" xmlns="http://www.w3.org/2000/svg" xmlns:xlink="http://www.w3.org/1999/xlink">
<g id="graph0" class="graph" transform="scale(1 1) rotate(0) translate(4 201.25)">
<title>sourcecode/triggeralgs/include/triggeralgs/TPWindow.hpp</title>
<!-- Node1 -->
<g id="Node000001" class="node">
<title>Node1</title>
<g id="a_Node000001"><a xlink:title=" ">
<polygon fill="#999999" stroke="#666666" points="378.88,-197.25 212.88,-197.25 212.88,-166.75 378.88,-166.75 378.88,-197.25"/>
<text text-anchor="start" x="220.88" y="-183.75" font-family="Helvetica,sans-Serif" font-size="10.00">sourcecode/triggeralgs</text>
<text text-anchor="middle" x="295.88" y="-172.5" font-family="Helvetica,sans-Serif" font-size="10.00">/include/triggeralgs/TPWindow.hpp</text>
</a>
</g>
</g>
<!-- Node2 -->
<g id="Node000002" class="node">
<title>Node2</title>
<g id="a_Node000002"><a xlink:href="TriggerActivityMakerHorizontalMuon_8hpp.html" target="_top" xlink:title=" ">
<polygon fill="white" stroke="#666666" points="175.75,-130.75 0,-130.75 0,-77.75 175.75,-77.75 175.75,-130.75"/>
<text text-anchor="start" x="8" y="-117.25" font-family="Helvetica,sans-Serif" font-size="10.00">sourcecode/triggeralgs</text>
<text text-anchor="start" x="8" y="-106" font-family="Helvetica,sans-Serif" font-size="10.00">/include/triggeralgs/Horizontal</text>
<text text-anchor="start" x="8" y="-94.75" font-family="Helvetica,sans-Serif" font-size="10.00">Muon/TriggerActivityMakerHorizontal</text>
<text text-anchor="middle" x="87.88" y="-83.5" font-family="Helvetica,sans-Serif" font-size="10.00">Muon.hpp</text>
</a>
</g>
</g>
<!-- Node1&#45;&gt;Node2 -->
<g id="edge1_Node000001_Node000002" class="edge">
<title>Node1&#45;&gt;Node2</title>
<g id="a_edge1_Node000001_Node000002"><a xlink:title=" ">
<path fill="none" stroke="#63b8ff" d="M245.08,-162.5C219.2,-153.07 187.3,-141.46 159.02,-131.16"/>
<polygon fill="#63b8ff" stroke="#63b8ff" points="243.75,-165.74 254.35,-165.88 246.15,-159.17 243.75,-165.74"/>
</a>
</g>
</g>
<!-- Node4 -->
<g id="Node000004" class="node">
<title>Node4</title>
<g id="a_Node000004"><a xlink:href="TriggerActivityMakerPlaneCoincidence_8hpp.html" target="_top" xlink:title=" ">
<polygon fill="white" stroke="#666666" points="398,-125.12 193.75,-125.12 193.75,-83.38 398,-83.38 398,-125.12"/>
<text text-anchor="start" x="201.75" y="-111.62" font-family="Helvetica,sans-Serif" font-size="10.00">sourcecode/triggeralgs</text>
<text text-anchor="start" x="201.75" y="-100.38" font-family="Helvetica,sans-Serif" font-size="10.00">/include/triggeralgs/PlaneCoincidence</text>
<text text-anchor="middle" x="295.88" y="-89.12" font-family="Helvetica,sans-Serif" font-size="10.00">/TriggerActivityMakerPlaneCoincidence.hpp</text>
</a>
</g>
</g>
<!-- Node1&#45;&gt;Node4 -->
<g id="edge3_Node000001_Node000004" class="edge">
<title>Node1&#45;&gt;Node4</title>
<g id="a_edge3_Node000001_Node000004"><a xlink:title=" ">
<path fill="none" stroke="#63b8ff" d="M295.88,-155.01C295.88,-145.38 295.88,-134.59 295.88,-125.54"/>
<polygon fill="#63b8ff" stroke="#63b8ff" points="292.38,-154.88 295.88,-164.88 299.38,-154.88 292.38,-154.88"/>
</a>
</g>
</g>
<!-- Node6 -->
<g id="Node000006" class="node">
<title>Node6</title>
<g id="a_Node000006"><a xlink:href="TPWindow_8cpp.html" target="_top" xlink:title=" ">
<polygon fill="white" stroke="#666666" points="530,-119.5 415.75,-119.5 415.75,-89 530,-89 530,-119.5"/>
<text text-anchor="start" x="423.75" y="-106" font-family="Helvetica,sans-Serif" font-size="10.00">sourcecode/triggeralgs</text>
<text text-anchor="middle" x="472.88" y="-94.75" font-family="Helvetica,sans-Serif" font-size="10.00">/src/TPWindow.cpp</text>
</a>
</g>
</g>
<!-- Node1&#45;&gt;Node6 -->
<g id="edge5_Node000001_Node000006" class="edge">
<title>Node1&#45;&gt;Node6</title>
<g id="a_edge5_Node000001_Node000006"><a xlink:title=" ">
<path fill="none" stroke="#63b8ff" d="M340.35,-161.97C370.78,-148.94 410.55,-131.92 438.55,-119.94"/>
<polygon fill="#63b8ff" stroke="#63b8ff" points="339.21,-158.65 331.39,-165.8 341.96,-165.08 339.21,-158.65"/>
</a>
</g>
</g>
<!-- Node3 -->
<g id="Node000003" class="node">
<title>Node3</title>
<g id="a_Node000003"><a xlink:href="TriggerActivityMakerHorizontalMuon_8cpp.html" target="_top" xlink:title=" ">
<polygon fill="white" stroke="#666666" points="172,-41.75 3.75,-41.75 3.75,0 172,0 172,-41.75"/>
<text text-anchor="start" x="11.75" y="-28.25" font-family="Helvetica,sans-Serif" font-size="10.00">sourcecode/triggeralgs</text>
<text text-anchor="start" x="11.75" y="-17" font-family="Helvetica,sans-Serif" font-size="10.00">/src/TriggerActivityMakerHorizontal</text>
<text text-anchor="middle" x="87.88" y="-5.75" font-family="Helvetica,sans-Serif" font-size="10.00">Muon.cpp</text>
</a>
</g>
</g>
<!-- Node2&#45;&gt;Node3 -->
<g id="edge2_Node000002_Node000003" class="edge">
<title>Node2&#45;&gt;Node3</title>
<g id="a_edge2_Node000002_Node000003"><a xlink:title=" ">
<path fill="none" stroke="#63b8ff" d="M87.88,-66.08C87.88,-57.8 87.88,-49.33 87.88,-42.04"/>
<polygon fill="#63b8ff" stroke="#63b8ff" points="84.38,-65.99 87.88,-75.99 91.38,-65.99 84.38,-65.99"/>
</a>
</g>
</g>
<!-- Node5 -->
<g id="Node000005" class="node">
<title>Node5</title>
<g id="a_Node000005"><a xlink:href="TriggerActivityMakerPlaneCoincidence_8cpp.html" target="_top" xlink:title=" ">
<polygon fill="white" stroke="#666666" points="370.62,-41.75 221.12,-41.75 221.12,0 370.62,0 370.62,-41.75"/>
<text text-anchor="start" x="229.12" y="-28.25" font-family="Helvetica,sans-Serif" font-size="10.00">sourcecode/triggeralgs</text>
<text text-anchor="start" x="229.12" y="-17" font-family="Helvetica,sans-Serif" font-size="10.00">/src/TriggerActivityMakerPlane</text>
<text text-anchor="middle" x="295.88" y="-5.75" font-family="Helvetica,sans-Serif" font-size="10.00">Coincidence.cpp</text>
</a>
</g>
</g>
<!-- Node4&#45;&gt;Node5 -->
<g id="edge4_Node000004_Node000005" class="edge">
<title>Node4&#45;&gt;Node5</title>
<g id="a_edge4_Node000004_Node000005"><a xlink:title=" ">
<path fill="none" stroke="#63b8ff" d="M295.88,-71.89C295.88,-61.87 295.88,-51.05 295.88,-42.04"/>
<polygon fill="#63b8ff" stroke="#63b8ff" points="292.38,-71.62 295.88,-81.62 299.38,-71.62 292.38,-71.62"/>
</a>
</g>
</g>
</g>
</svg>
