<?xml version="1.0" encoding="UTF-8" standalone="no"?>
<!DOCTYPE svg PUBLIC "-//W3C//DTD SVG 1.1//EN"
 "http://www.w3.org/Graphics/SVG/1.1/DTD/svg11.dtd">
<!-- Generated by graphviz version 9.0.0 (20230911.1827)
 -->
<!-- Title: sourcecode/dbe/include/dbe/TreeModelInterface.hpp Pages: 1 -->
<svg width="1334pt" height="238pt"
 viewBox="0.00 0.00 1334.00 238.00" xmlns="http://www.w3.org/2000/svg" xmlns:xlink="http://www.w3.org/1999/xlink">
<g id="graph0" class="graph" transform="scale(1 1) rotate(0) translate(4 234)">
<title>sourcecode/dbe/include/dbe/TreeModelInterface.hpp</title>
<!-- Node1 -->
<g id="Node000001" class="node">
<title>Node1</title>
<g id="a_Node000001"><a xlink:title=" ">
<polygon fill="#999999" stroke="#666666" points="634.38,-230 494.62,-230 494.62,-199.5 634.38,-199.5 634.38,-230"/>
<text text-anchor="start" x="502.62" y="-216.5" font-family="Helvetica,sans-Serif" font-size="10.00">sourcecode/dbe/include</text>
<text text-anchor="middle" x="564.5" y="-205.25" font-family="Helvetica,sans-Serif" font-size="10.00">/dbe/TreeModelInterface.hpp</text>
</a>
</g>
</g>
<!-- Node2 -->
<g id="Node000002" class="node">
<title>Node2</title>
<g id="a_Node000002"><a xlink:href="subtreeproxy_8hpp.html" target="_top" xlink:title=" ">
<polygon fill="white" stroke="#666666" points="555.88,-163.5 437.12,-163.5 437.12,-133 555.88,-133 555.88,-163.5"/>
<text text-anchor="start" x="445.12" y="-150" font-family="Helvetica,sans-Serif" font-size="10.00">sourcecode/dbe/include</text>
<text text-anchor="middle" x="496.5" y="-138.75" font-family="Helvetica,sans-Serif" font-size="10.00">/dbe/subtreeproxy.hpp</text>
</a>
</g>
</g>
<!-- Node1&#45;&gt;Node2 -->
<g id="edge1_Node000001_Node000002" class="edge">
<title>Node1&#45;&gt;Node2</title>
<g id="a_edge1_Node000001_Node000002"><a xlink:title=" ">
<path fill="none" stroke="#63b8ff" d="M541.01,-191.46C531.36,-182.32 520.47,-171.98 511.87,-163.83"/>
<polygon fill="#63b8ff" stroke="#63b8ff" points="538.31,-193.73 547.97,-198.07 543.12,-188.65 538.31,-193.73"/>
</a>
</g>
</g>
<!-- Node13 -->
<g id="Node000013" class="node">
<title>Node13</title>
<g id="a_Node000013"><a xlink:href="CustomTreeView_8cpp.html" target="_top" xlink:title=" ">
<polygon fill="white" stroke="#666666" points="549.12,-97 395.88,-97 395.88,-66.5 549.12,-66.5 549.12,-97"/>
<text text-anchor="start" x="403.88" y="-83.5" font-family="Helvetica,sans-Serif" font-size="10.00">sourcecode/dbe/src</text>
<text text-anchor="middle" x="472.5" y="-72.25" font-family="Helvetica,sans-Serif" font-size="10.00">/structure/CustomTreeView.cpp</text>
</a>
</g>
</g>
<!-- Node1&#45;&gt;Node13 -->
<g id="edge25_Node000001_Node000013" class="edge">
<title>Node1&#45;&gt;Node13</title>
<g id="a_edge25_Node000001_Node000013"><a xlink:title=" ">
<path fill="none" stroke="#63b8ff" d="M483.32,-201.17C462.02,-193.77 441.42,-182.05 428.5,-163.5 413.26,-141.62 436.63,-113.93 454.72,-97.31"/>
<polygon fill="#63b8ff" stroke="#63b8ff" points="482.1,-204.46 492.69,-204.11 484.2,-197.78 482.1,-204.46"/>
</a>
</g>
</g>
<!-- Node15 -->
<g id="Node000015" class="node">
<title>Node15</title>
<g id="a_Node000015"><a xlink:href="tree_8hpp.html" target="_top" xlink:title=" ">
<polygon fill="white" stroke="#666666" points="829.88,-163.5 711.12,-163.5 711.12,-133 829.88,-133 829.88,-163.5"/>
<text text-anchor="start" x="719.12" y="-150" font-family="Helvetica,sans-Serif" font-size="10.00">sourcecode/dbe/include</text>
<text text-anchor="middle" x="770.5" y="-138.75" font-family="Helvetica,sans-Serif" font-size="10.00">/dbe/tree.hpp</text>
</a>
</g>
</g>
<!-- Node1&#45;&gt;Node15 -->
<g id="edge15_Node000001_Node000015" class="edge">
<title>Node1&#45;&gt;Node15</title>
<g id="a_edge15_Node000001_Node000015"><a xlink:title=" ">
<path fill="none" stroke="#63b8ff" d="M622.49,-195.59C654.48,-185.58 693.68,-173.3 723.7,-163.9"/>
<polygon fill="#63b8ff" stroke="#63b8ff" points="621.44,-192.25 612.95,-198.58 623.54,-198.93 621.44,-192.25"/>
</a>
</g>
</g>
<!-- Node18 -->
<g id="Node000018" class="node">
<title>Node18</title>
<g id="a_Node000018"><a xlink:href="treeselection_8hpp.html" target="_top" xlink:title=" ">
<polygon fill="white" stroke="#666666" points="692.88,-163.5 574.12,-163.5 574.12,-133 692.88,-133 692.88,-163.5"/>
<text text-anchor="start" x="582.12" y="-150" font-family="Helvetica,sans-Serif" font-size="10.00">sourcecode/dbe/include</text>
<text text-anchor="middle" x="633.5" y="-138.75" font-family="Helvetica,sans-Serif" font-size="10.00">/dbe/treeselection.hpp</text>
</a>
</g>
</g>
<!-- Node1&#45;&gt;Node18 -->
<g id="edge21_Node000001_Node000018" class="edge">
<title>Node1&#45;&gt;Node18</title>
<g id="a_edge21_Node000001_Node000018"><a xlink:title=" ">
<path fill="none" stroke="#63b8ff" d="M588.34,-191.46C598.13,-182.32 609.18,-171.98 617.9,-163.83"/>
<polygon fill="#63b8ff" stroke="#63b8ff" points="586.18,-188.69 581.26,-198.08 590.96,-193.81 586.18,-188.69"/>
</a>
</g>
</g>
<!-- Node3 -->
<g id="Node000003" class="node">
<title>Node3</title>
<g id="a_Node000003"><a xlink:href="MainWindow_8hpp.html" target="_top" xlink:title=" ">
<polygon fill="white" stroke="#666666" points="685.88,-97 567.12,-97 567.12,-66.5 685.88,-66.5 685.88,-97"/>
<text text-anchor="start" x="575.12" y="-83.5" font-family="Helvetica,sans-Serif" font-size="10.00">sourcecode/dbe/include</text>
<text text-anchor="middle" x="626.5" y="-72.25" font-family="Helvetica,sans-Serif" font-size="10.00">/dbe/MainWindow.hpp</text>
</a>
</g>
</g>
<!-- Node2&#45;&gt;Node3 -->
<g id="edge2_Node000002_Node000003" class="edge">
<title>Node2&#45;&gt;Node3</title>
<g id="a_edge2_Node000002_Node000003"><a xlink:title=" ">
<path fill="none" stroke="#63b8ff" d="M536.18,-127.56C555.82,-117.82 579.11,-106.26 597.12,-97.33"/>
<polygon fill="#63b8ff" stroke="#63b8ff" points="534.76,-124.36 527.35,-131.94 537.87,-130.63 534.76,-124.36"/>
</a>
</g>
</g>
<!-- Node7 -->
<g id="Node000007" class="node">
<title>Node7</title>
<g id="a_Node000007"><a xlink:href="MainWindow_8cpp.html" target="_top" xlink:title=" ">
<polygon fill="white" stroke="#666666" points="127,-30.5 0,-30.5 0,0 127,0 127,-30.5"/>
<text text-anchor="start" x="8" y="-17" font-family="Helvetica,sans-Serif" font-size="10.00">sourcecode/dbe/src</text>
<text text-anchor="middle" x="63.5" y="-5.75" font-family="Helvetica,sans-Serif" font-size="10.00">/internal/MainWindow.cpp</text>
</a>
</g>
</g>
<!-- Node2&#45;&gt;Node7 -->
<g id="edge12_Node000002_Node000007" class="edge">
<title>Node2&#45;&gt;Node7</title>
<g id="a_edge12_Node000002_Node000007"><a xlink:title=" ">
<path fill="none" stroke="#63b8ff" d="M437.15,-129.29C350.7,-103.14 191.75,-55.05 111.93,-30.9"/>
<polygon fill="#63b8ff" stroke="#63b8ff" points="436.06,-132.62 446.64,-132.17 438.08,-125.92 436.06,-132.62"/>
</a>
</g>
</g>
<!-- Node2&#45;&gt;Node13 -->
<g id="edge13_Node000002_Node000013" class="edge">
<title>Node2&#45;&gt;Node13</title>
<g id="a_edge13_Node000002_Node000013"><a xlink:title=" ">
<path fill="none" stroke="#63b8ff" d="M487.06,-121.88C483.96,-113.55 480.62,-104.58 477.92,-97.33"/>
<polygon fill="#63b8ff" stroke="#63b8ff" points="483.76,-123.04 490.53,-131.2 490.32,-120.6 483.76,-123.04"/>
</a>
</g>
</g>
<!-- Node14 -->
<g id="Node000014" class="node">
<title>Node14</title>
<g id="a_Node000014"><a xlink:href="subtreeproxy_8cpp.html" target="_top" xlink:title=" ">
<polygon fill="white" stroke="#666666" points="837,-97 704,-97 704,-66.5 837,-66.5 837,-97"/>
<text text-anchor="start" x="712" y="-83.5" font-family="Helvetica,sans-Serif" font-size="10.00">sourcecode/dbe/src</text>
<text text-anchor="middle" x="770.5" y="-72.25" font-family="Helvetica,sans-Serif" font-size="10.00">/structure/subtreeproxy.cpp</text>
</a>
</g>
</g>
<!-- Node2&#45;&gt;Node14 -->
<g id="edge14_Node000002_Node000014" class="edge">
<title>Node2&#45;&gt;Node14</title>
<g id="a_edge14_Node000002_Node000014"><a xlink:title=" ">
<path fill="none" stroke="#63b8ff" d="M567.37,-130.57C610.88,-120.32 666.1,-107.33 707.98,-97.47"/>
<polygon fill="#63b8ff" stroke="#63b8ff" points="566.7,-127.13 557.77,-132.83 568.3,-133.94 566.7,-127.13"/>
</a>
</g>
</g>
<!-- Node4 -->
<g id="Node000004" class="node">
<title>Node4</title>
<g id="a_Node000004"><a xlink:href="Main_8cpp.html" target="_top" xlink:title=" ">
<polygon fill="white" stroke="#666666" points="1062,-30.5 953,-30.5 953,0 1062,0 1062,-30.5"/>
<text text-anchor="start" x="961" y="-17" font-family="Helvetica,sans-Serif" font-size="10.00">sourcecode/dbe/apps</text>
<text text-anchor="middle" x="1007.5" y="-5.75" font-family="Helvetica,sans-Serif" font-size="10.00">/Main.cpp</text>
</a>
</g>
</g>
<!-- Node3&#45;&gt;Node4 -->
<g id="edge3_Node000003_Node000004" class="edge">
<title>Node3&#45;&gt;Node4</title>
<g id="a_edge3_Node000003_Node000004"><a xlink:title=" ">
<path fill="none" stroke="#63b8ff" d="M697.56,-66.22C807.58,-47.39 838.09,-50.19 944.5,-30.5 947.15,-30.01 949.85,-29.49 952.58,-28.94"/>
<polygon fill="#63b8ff" stroke="#63b8ff" points="697.04,-62.75 687.79,-67.91 698.24,-69.65 697.04,-62.75"/>
</a>
</g>
</g>
<!-- Node5 -->
<g id="Node000005" class="node">
<title>Node5</title>
<g id="a_Node000005"><a xlink:href="TableTab_8cpp.html" target="_top" xlink:title=" ">
<polygon fill="white" stroke="#666666" points="1181.25,-30.5 1079.75,-30.5 1079.75,0 1181.25,0 1181.25,-30.5"/>
<text text-anchor="start" x="1087.75" y="-17" font-family="Helvetica,sans-Serif" font-size="10.00">sourcecode/dbe/src</text>
<text text-anchor="middle" x="1130.5" y="-5.75" font-family="Helvetica,sans-Serif" font-size="10.00">/TableTab.cpp</text>
</a>
</g>
</g>
<!-- Node3&#45;&gt;Node5 -->
<g id="edge4_Node000003_Node000005" class="edge">
<title>Node3&#45;&gt;Node5</title>
<g id="a_edge4_Node000003_Node000005"><a xlink:title=" ">
<path fill="none" stroke="#63b8ff" d="M697.38,-66.34C863.47,-42.19 909.5,-57.68 1071.5,-30.5 1074.1,-30.06 1076.75,-29.58 1079.42,-29.05"/>
<polygon fill="#63b8ff" stroke="#63b8ff" points="697.14,-62.84 687.77,-67.77 698.17,-69.77 697.14,-62.84"/>
</a>
</g>
</g>
<!-- Node6 -->
<g id="Node000006" class="node">
<title>Node6</title>
<g id="a_Node000006"><a xlink:href="GraphView_8cpp.html" target="_top" xlink:title=" ">
<polygon fill="white" stroke="#666666" points="1326,-30.5 1199,-30.5 1199,0 1326,0 1326,-30.5"/>
<text text-anchor="start" x="1207" y="-17" font-family="Helvetica,sans-Serif" font-size="10.00">sourcecode/dbe/src</text>
<text text-anchor="middle" x="1262.5" y="-5.75" font-family="Helvetica,sans-Serif" font-size="10.00">/graphical/GraphView.cpp</text>
</a>
</g>
</g>
<!-- Node3&#45;&gt;Node6 -->
<g id="edge5_Node000003_Node000006" class="edge">
<title>Node3&#45;&gt;Node6</title>
<g id="a_edge5_Node000003_Node000006"><a xlink:title=" ">
<path fill="none" stroke="#63b8ff" d="M697.46,-66.37C915.95,-36.91 975.53,-59.48 1190.5,-30.5 1193.15,-30.14 1195.85,-29.75 1198.58,-29.32"/>
<polygon fill="#63b8ff" stroke="#63b8ff" points="697.19,-62.88 687.76,-67.7 698.14,-69.81 697.19,-62.88"/>
</a>
</g>
</g>
<!-- Node3&#45;&gt;Node7 -->
<g id="edge6_Node000003_Node000007" class="edge">
<title>Node3&#45;&gt;Node7</title>
<g id="a_edge6_Node000003_Node000007"><a xlink:title=" ">
<path fill="none" stroke="#63b8ff" d="M555.61,-66.19C369.83,-39.78 318.68,-56.34 135.5,-30.5 132.85,-30.13 130.15,-29.72 127.43,-29.28"/>
<polygon fill="#63b8ff" stroke="#63b8ff" points="554.97,-69.64 565.37,-67.61 555.98,-62.71 554.97,-69.64"/>
</a>
</g>
</g>
<!-- Node8 -->
<g id="Node000008" class="node">
<title>Node8</title>
<g id="a_Node000008"><a xlink:href="CustomTableView_8cpp.html" target="_top" xlink:title=" ">
<polygon fill="white" stroke="#666666" points="302.38,-30.5 144.62,-30.5 144.62,0 302.38,0 302.38,-30.5"/>
<text text-anchor="start" x="152.62" y="-17" font-family="Helvetica,sans-Serif" font-size="10.00">sourcecode/dbe/src</text>
<text text-anchor="middle" x="223.5" y="-5.75" font-family="Helvetica,sans-Serif" font-size="10.00">/structure/CustomTableView.cpp</text>
</a>
</g>
</g>
<!-- Node3&#45;&gt;Node8 -->
<g id="edge7_Node000003_Node000008" class="edge">
<title>Node3&#45;&gt;Node8</title>
<g id="a_edge7_Node000003_Node000008"><a xlink:title=" ">
<path fill="none" stroke="#63b8ff" d="M555.74,-66.07C447.37,-47.11 417.61,-46.82 311.5,-30.5 308.59,-30.05 305.63,-29.59 302.64,-29.13"/>
<polygon fill="#63b8ff" stroke="#63b8ff" points="554.89,-69.48 565.35,-67.77 556.11,-62.58 554.89,-69.48"/>
</a>
</g>
</g>
<!-- Node9 -->
<g id="Node000009" class="node">
<title>Node9</title>
<g id="a_Node000009"><a xlink:href="FileModel_8cpp.html" target="_top" xlink:title=" ">
<polygon fill="white" stroke="#666666" points="440.62,-30.5 320.38,-30.5 320.38,0 440.62,0 440.62,-30.5"/>
<text text-anchor="start" x="328.38" y="-17" font-family="Helvetica,sans-Serif" font-size="10.00">sourcecode/dbe/src</text>
<text text-anchor="middle" x="380.5" y="-5.75" font-family="Helvetica,sans-Serif" font-size="10.00">/structure/FileModel.cpp</text>
</a>
</g>
</g>
<!-- Node3&#45;&gt;Node9 -->
<g id="edge8_Node000003_Node000009" class="edge">
<title>Node3&#45;&gt;Node9</title>
<g id="a_edge8_Node000003_Node000009"><a xlink:title=" ">
<path fill="none" stroke="#63b8ff" d="M559.24,-63.12C520.69,-53.01 472.86,-40.47 436.39,-30.9"/>
<polygon fill="#63b8ff" stroke="#63b8ff" points="558.35,-66.5 568.91,-65.65 560.12,-59.73 558.35,-66.5"/>
</a>
</g>
</g>
<!-- Node10 -->
<g id="Node000010" class="node">
<title>Node10</title>
<g id="a_Node000010"><a xlink:href="BatchChangeWidget_8cpp.html" target="_top" xlink:title=" ">
<polygon fill="white" stroke="#666666" points="620.62,-30.5 458.38,-30.5 458.38,0 620.62,0 620.62,-30.5"/>
<text text-anchor="start" x="466.38" y="-17" font-family="Helvetica,sans-Serif" font-size="10.00">sourcecode/dbe/src</text>
<text text-anchor="middle" x="539.5" y="-5.75" font-family="Helvetica,sans-Serif" font-size="10.00">/widgets/BatchChangeWidget.cpp</text>
</a>
</g>
</g>
<!-- Node3&#45;&gt;Node10 -->
<g id="edge9_Node000003_Node000010" class="edge">
<title>Node3&#45;&gt;Node10</title>
<g id="a_edge9_Node000003_Node000010"><a xlink:title=" ">
<path fill="none" stroke="#63b8ff" d="M597.56,-59.29C584.95,-49.94 570.5,-39.23 559.16,-30.83"/>
<polygon fill="#63b8ff" stroke="#63b8ff" points="595.42,-62.07 605.54,-65.21 599.59,-56.45 595.42,-62.07"/>
</a>
</g>
</g>
<!-- Node11 -->
<g id="Node000011" class="node">
<title>Node11</title>
<g id="a_Node000011"><a xlink:href="IncludeFileWidget_8cpp.html" target="_top" xlink:title=" ">
<polygon fill="white" stroke="#666666" points="790,-30.5 639,-30.5 639,0 790,0 790,-30.5"/>
<text text-anchor="start" x="647" y="-17" font-family="Helvetica,sans-Serif" font-size="10.00">sourcecode/dbe/src</text>
<text text-anchor="middle" x="714.5" y="-5.75" font-family="Helvetica,sans-Serif" font-size="10.00">/widgets/IncludeFileWidget.cpp</text>
</a>
</g>
</g>
<!-- Node3&#45;&gt;Node11 -->
<g id="edge10_Node000003_Node000011" class="edge">
<title>Node3&#45;&gt;Node11</title>
<g id="a_edge10_Node000003_Node000011"><a xlink:title=" ">
<path fill="none" stroke="#63b8ff" d="M655.4,-59.57C668.24,-50.16 683.04,-39.31 694.61,-30.83"/>
<polygon fill="#63b8ff" stroke="#63b8ff" points="653.69,-56.48 647.69,-65.22 657.82,-62.13 653.69,-56.48"/>
</a>
</g>
</g>
<!-- Node12 -->
<g id="Node000012" class="node">
<title>Node12</title>
<g id="a_Node000012"><a xlink:href="ObjectEditor_8cpp.html" target="_top" xlink:title=" ">
<polygon fill="white" stroke="#666666" points="935,-30.5 808,-30.5 808,0 935,0 935,-30.5"/>
<text text-anchor="start" x="816" y="-17" font-family="Helvetica,sans-Serif" font-size="10.00">sourcecode/dbe/src</text>
<text text-anchor="middle" x="871.5" y="-5.75" font-family="Helvetica,sans-Serif" font-size="10.00">/widgets/ObjectEditor.cpp</text>
</a>
</g>
</g>
<!-- Node3&#45;&gt;Node12 -->
<g id="edge11_Node000003_Node000012" class="edge">
<title>Node3&#45;&gt;Node12</title>
<g id="a_edge11_Node000003_Node000012"><a xlink:title=" ">
<path fill="none" stroke="#63b8ff" d="M693.48,-63.12C731.88,-53.01 779.51,-40.47 815.84,-30.9"/>
<polygon fill="#63b8ff" stroke="#63b8ff" points="692.64,-59.72 683.86,-65.65 694.43,-66.49 692.64,-59.72"/>
</a>
</g>
</g>
<!-- Node15&#45;&gt;Node3 -->
<g id="edge16_Node000015_Node000003" class="edge">
<title>Node15&#45;&gt;Node3</title>
<g id="a_edge16_Node000015_Node000003"><a xlink:title=" ">
<path fill="none" stroke="#63b8ff" d="M727.45,-127.97C705.51,-118.14 679.27,-106.39 659.05,-97.33"/>
<polygon fill="#63b8ff" stroke="#63b8ff" points="725.89,-131.1 736.44,-132 728.75,-124.71 725.89,-131.1"/>
</a>
</g>
</g>
<!-- Node15&#45;&gt;Node13 -->
<g id="edge17_Node000015_Node000013" class="edge">
<title>Node15&#45;&gt;Node13</title>
<g id="a_edge17_Node000015_Node000013"><a xlink:title=" ">
<path fill="none" stroke="#63b8ff" d="M699.94,-131.98C651.75,-121.55 588.24,-107.8 540.58,-97.49"/>
<polygon fill="#63b8ff" stroke="#63b8ff" points="698.92,-135.34 709.43,-134.03 700.4,-128.5 698.92,-135.34"/>
</a>
</g>
</g>
<!-- Node15&#45;&gt;Node14 -->
<g id="edge18_Node000015_Node000014" class="edge">
<title>Node15&#45;&gt;Node14</title>
<g id="a_edge18_Node000015_Node000014"><a xlink:title=" ">
<path fill="none" stroke="#63b8ff" d="M770.5,-121.31C770.5,-113.14 770.5,-104.41 770.5,-97.33"/>
<polygon fill="#63b8ff" stroke="#63b8ff" points="767,-121.1 770.5,-131.1 774,-121.1 767,-121.1"/>
</a>
</g>
</g>
<!-- Node16 -->
<g id="Node000016" class="node">
<title>Node16</title>
<g id="a_Node000016"><a xlink:href="tree_8cpp.html" target="_top" xlink:title=" ">
<polygon fill="white" stroke="#666666" points="1108.25,-97 1006.75,-97 1006.75,-66.5 1108.25,-66.5 1108.25,-97"/>
<text text-anchor="start" x="1014.75" y="-83.5" font-family="Helvetica,sans-Serif" font-size="10.00">sourcecode/dbe/src</text>
<text text-anchor="middle" x="1057.5" y="-72.25" font-family="Helvetica,sans-Serif" font-size="10.00">/structure/tree.cpp</text>
</a>
</g>
</g>
<!-- Node15&#45;&gt;Node16 -->
<g id="edge19_Node000015_Node000016" class="edge">
<title>Node15&#45;&gt;Node16</title>
<g id="a_edge19_Node000015_Node000016"><a xlink:title=" ">
<path fill="none" stroke="#63b8ff" d="M841.37,-131.85C886.17,-122.05 945.27,-108.98 997.5,-97 1000.42,-96.33 1003.42,-95.64 1006.45,-94.93"/>
<polygon fill="#63b8ff" stroke="#63b8ff" points="840.8,-128.4 831.78,-133.95 842.29,-135.23 840.8,-128.4"/>
</a>
</g>
</g>
<!-- Node17 -->
<g id="Node000017" class="node">
<title>Node17</title>
<g id="a_Node000017"><a xlink:href="treeselection_8cpp.html" target="_top" xlink:title=" ">
<polygon fill="white" stroke="#666666" points="988.38,-97 854.62,-97 854.62,-66.5 988.38,-66.5 988.38,-97"/>
<text text-anchor="start" x="862.62" y="-83.5" font-family="Helvetica,sans-Serif" font-size="10.00">sourcecode/dbe/src</text>
<text text-anchor="middle" x="921.5" y="-72.25" font-family="Helvetica,sans-Serif" font-size="10.00">/structure/treeselection.cpp</text>
</a>
</g>
</g>
<!-- Node15&#45;&gt;Node17 -->
<g id="edge20_Node000015_Node000017" class="edge">
<title>Node15&#45;&gt;Node17</title>
<g id="a_edge20_Node000015_Node000017"><a xlink:title=" ">
<path fill="none" stroke="#63b8ff" d="M815.29,-128.12C838.27,-118.3 865.83,-106.53 887.11,-97.44"/>
<polygon fill="#63b8ff" stroke="#63b8ff" points="813.98,-124.87 806.16,-132.02 816.73,-131.31 813.98,-124.87"/>
</a>
</g>
</g>
<!-- Node18&#45;&gt;Node3 -->
<g id="edge22_Node000018_Node000003" class="edge">
<title>Node18&#45;&gt;Node3</title>
<g id="a_edge22_Node000018_Node000003"><a xlink:title=" ">
<path fill="none" stroke="#63b8ff" d="M630.68,-121.31C629.8,-113.14 628.85,-104.41 628.08,-97.33"/>
<polygon fill="#63b8ff" stroke="#63b8ff" points="627.19,-121.55 631.75,-131.11 634.15,-120.79 627.19,-121.55"/>
</a>
</g>
</g>
<!-- Node18&#45;&gt;Node13 -->
<g id="edge23_Node000018_Node000013" class="edge">
<title>Node18&#45;&gt;Node13</title>
<g id="a_edge23_Node000018_Node000013"><a xlink:title=" ">
<path fill="none" stroke="#63b8ff" d="M586.4,-128.38C561.77,-118.51 532.07,-106.61 509.17,-97.44"/>
<polygon fill="#63b8ff" stroke="#63b8ff" points="584.98,-131.58 595.56,-132.05 587.58,-125.08 584.98,-131.58"/>
</a>
</g>
</g>
<!-- Node18&#45;&gt;Node17 -->
<g id="edge24_Node000018_Node000017" class="edge">
<title>Node18&#45;&gt;Node17</title>
<g id="a_edge24_Node000018_Node000017"><a xlink:title=" ">
<path fill="none" stroke="#63b8ff" d="M704.33,-131.39C750.63,-121.02 810.67,-107.57 855.88,-97.45"/>
<polygon fill="#63b8ff" stroke="#63b8ff" points="703.64,-127.95 694.65,-133.55 705.17,-134.78 703.64,-127.95"/>
</a>
</g>
</g>
</g>
</svg>
