<?xml version="1.0" encoding="UTF-8" standalone="no"?>
<!DOCTYPE svg PUBLIC "-//W3C//DTD SVG 1.1//EN"
 "http://www.w3.org/Graphics/SVG/1.1/DTD/svg11.dtd">
<!-- Generated by graphviz version 9.0.0 (20230911.1827)
 -->
<!-- Title: sourcecode/dbe/include/dbe/tree.hpp Pages: 1 -->
<svg width="1334pt" height="172pt"
 viewBox="0.00 0.00 1334.00 171.50" xmlns="http://www.w3.org/2000/svg" xmlns:xlink="http://www.w3.org/1999/xlink">
<g id="graph0" class="graph" transform="scale(1 1) rotate(0) translate(4 167.5)">
<title>sourcecode/dbe/include/dbe/tree.hpp</title>
<!-- Node1 -->
<g id="Node000001" class="node">
<title>Node1</title>
<g id="a_Node000001"><a xlink:title=" ">
<polygon fill="#999999" stroke="#666666" points="988.88,-163.5 870.12,-163.5 870.12,-133 988.88,-133 988.88,-163.5"/>
<text text-anchor="start" x="878.12" y="-150" font-family="Helvetica,sans-Serif" font-size="10.00">sourcecode/dbe/include</text>
<text text-anchor="middle" x="929.5" y="-138.75" font-family="Helvetica,sans-Serif" font-size="10.00">/dbe/tree.hpp</text>
</a>
</g>
</g>
<!-- Node2 -->
<g id="Node000002" class="node">
<title>Node2</title>
<g id="a_Node000002"><a xlink:href="MainWindow_8hpp.html" target="_top" xlink:title=" ">
<polygon fill="white" stroke="#666666" points="673.88,-97 555.12,-97 555.12,-66.5 673.88,-66.5 673.88,-97"/>
<text text-anchor="start" x="563.12" y="-83.5" font-family="Helvetica,sans-Serif" font-size="10.00">sourcecode/dbe/include</text>
<text text-anchor="middle" x="614.5" y="-72.25" font-family="Helvetica,sans-Serif" font-size="10.00">/dbe/MainWindow.hpp</text>
</a>
</g>
</g>
<!-- Node1&#45;&gt;Node2 -->
<g id="edge1_Node000001_Node000002" class="edge">
<title>Node1&#45;&gt;Node2</title>
<g id="a_edge1_Node000001_Node000002"><a xlink:title=" ">
<path fill="none" stroke="#63b8ff" d="M858.64,-132.95C809.25,-122.95 741.84,-109.25 682.5,-97 679.78,-96.44 677.01,-95.86 674.2,-95.28"/>
<polygon fill="#63b8ff" stroke="#63b8ff" points="857.86,-136.36 868.35,-134.91 859.25,-129.5 857.86,-136.36"/>
</a>
</g>
</g>
<!-- Node12 -->
<g id="Node000012" class="node">
<title>Node12</title>
<g id="a_Node000012"><a xlink:href="CustomTreeView_8cpp.html" target="_top" xlink:title=" ">
<polygon fill="white" stroke="#666666" points="845.12,-97 691.88,-97 691.88,-66.5 845.12,-66.5 845.12,-97"/>
<text text-anchor="start" x="699.88" y="-83.5" font-family="Helvetica,sans-Serif" font-size="10.00">sourcecode/dbe/src</text>
<text text-anchor="middle" x="768.5" y="-72.25" font-family="Helvetica,sans-Serif" font-size="10.00">/structure/CustomTreeView.cpp</text>
</a>
</g>
</g>
<!-- Node1&#45;&gt;Node12 -->
<g id="edge11_Node000001_Node000012" class="edge">
<title>Node1&#45;&gt;Node12</title>
<g id="a_edge11_Node000001_Node000012"><a xlink:title=" ">
<path fill="none" stroke="#63b8ff" d="M882.4,-128.38C857.77,-118.51 828.07,-106.61 805.17,-97.44"/>
<polygon fill="#63b8ff" stroke="#63b8ff" points="880.98,-131.58 891.56,-132.05 883.58,-125.08 880.98,-131.58"/>
</a>
</g>
</g>
<!-- Node13 -->
<g id="Node000013" class="node">
<title>Node13</title>
<g id="a_Node000013"><a xlink:href="subtreeproxy_8cpp.html" target="_top" xlink:title=" ">
<polygon fill="white" stroke="#666666" points="996,-97 863,-97 863,-66.5 996,-66.5 996,-97"/>
<text text-anchor="start" x="871" y="-83.5" font-family="Helvetica,sans-Serif" font-size="10.00">sourcecode/dbe/src</text>
<text text-anchor="middle" x="929.5" y="-72.25" font-family="Helvetica,sans-Serif" font-size="10.00">/structure/subtreeproxy.cpp</text>
</a>
</g>
</g>
<!-- Node1&#45;&gt;Node13 -->
<g id="edge12_Node000001_Node000013" class="edge">
<title>Node1&#45;&gt;Node13</title>
<g id="a_edge12_Node000001_Node000013"><a xlink:title=" ">
<path fill="none" stroke="#63b8ff" d="M929.5,-121.31C929.5,-113.14 929.5,-104.41 929.5,-97.33"/>
<polygon fill="#63b8ff" stroke="#63b8ff" points="926,-121.1 929.5,-131.1 933,-121.1 926,-121.1"/>
</a>
</g>
</g>
<!-- Node14 -->
<g id="Node000014" class="node">
<title>Node14</title>
<g id="a_Node000014"><a xlink:href="tree_8cpp.html" target="_top" xlink:title=" ">
<polygon fill="white" stroke="#666666" points="1115.25,-97 1013.75,-97 1013.75,-66.5 1115.25,-66.5 1115.25,-97"/>
<text text-anchor="start" x="1021.75" y="-83.5" font-family="Helvetica,sans-Serif" font-size="10.00">sourcecode/dbe/src</text>
<text text-anchor="middle" x="1064.5" y="-72.25" font-family="Helvetica,sans-Serif" font-size="10.00">/structure/tree.cpp</text>
</a>
</g>
</g>
<!-- Node1&#45;&gt;Node14 -->
<g id="edge13_Node000001_Node000014" class="edge">
<title>Node1&#45;&gt;Node14</title>
<g id="a_edge13_Node000001_Node000014"><a xlink:title=" ">
<path fill="none" stroke="#63b8ff" d="M970.42,-127.7C990.87,-117.93 1015.2,-106.31 1033.99,-97.33"/>
<polygon fill="#63b8ff" stroke="#63b8ff" points="969.01,-124.49 961.5,-131.96 972.03,-130.81 969.01,-124.49"/>
</a>
</g>
</g>
<!-- Node15 -->
<g id="Node000015" class="node">
<title>Node15</title>
<g id="a_Node000015"><a xlink:href="treeselection_8cpp.html" target="_top" xlink:title=" ">
<polygon fill="white" stroke="#666666" points="1267.38,-97 1133.62,-97 1133.62,-66.5 1267.38,-66.5 1267.38,-97"/>
<text text-anchor="start" x="1141.62" y="-83.5" font-family="Helvetica,sans-Serif" font-size="10.00">sourcecode/dbe/src</text>
<text text-anchor="middle" x="1200.5" y="-72.25" font-family="Helvetica,sans-Serif" font-size="10.00">/structure/treeselection.cpp</text>
</a>
</g>
</g>
<!-- Node1&#45;&gt;Node15 -->
<g id="edge14_Node000001_Node000015" class="edge">
<title>Node1&#45;&gt;Node15</title>
<g id="a_edge14_Node000001_Node000015"><a xlink:title=" ">
<path fill="none" stroke="#63b8ff" d="M1000.27,-130.41C1043.31,-120.16 1097.73,-107.21 1138.97,-97.4"/>
<polygon fill="#63b8ff" stroke="#63b8ff" points="999.7,-126.94 990.78,-132.66 1001.32,-133.75 999.7,-126.94"/>
</a>
</g>
</g>
<!-- Node3 -->
<g id="Node000003" class="node">
<title>Node3</title>
<g id="a_Node000003"><a xlink:href="Main_8cpp.html" target="_top" xlink:title=" ">
<polygon fill="white" stroke="#666666" points="109,-30.5 0,-30.5 0,0 109,0 109,-30.5"/>
<text text-anchor="start" x="8" y="-17" font-family="Helvetica,sans-Serif" font-size="10.00">sourcecode/dbe/apps</text>
<text text-anchor="middle" x="54.5" y="-5.75" font-family="Helvetica,sans-Serif" font-size="10.00">/Main.cpp</text>
</a>
</g>
</g>
<!-- Node2&#45;&gt;Node3 -->
<g id="edge2_Node000002_Node000003" class="edge">
<title>Node2&#45;&gt;Node3</title>
<g id="a_edge2_Node000002_Node000003"><a xlink:title=" ">
<path fill="none" stroke="#63b8ff" d="M543.52,-76.3C446.75,-69.62 268.23,-55.07 117.5,-30.5 114.84,-30.07 112.13,-29.59 109.4,-29.08"/>
<polygon fill="#63b8ff" stroke="#63b8ff" points="543.18,-79.79 553.39,-76.97 543.65,-72.8 543.18,-79.79"/>
</a>
</g>
</g>
<!-- Node4 -->
<g id="Node000004" class="node">
<title>Node4</title>
<g id="a_Node000004"><a xlink:href="TableTab_8cpp.html" target="_top" xlink:title=" ">
<polygon fill="white" stroke="#666666" points="228.25,-30.5 126.75,-30.5 126.75,0 228.25,0 228.25,-30.5"/>
<text text-anchor="start" x="134.75" y="-17" font-family="Helvetica,sans-Serif" font-size="10.00">sourcecode/dbe/src</text>
<text text-anchor="middle" x="177.5" y="-5.75" font-family="Helvetica,sans-Serif" font-size="10.00">/TableTab.cpp</text>
</a>
</g>
</g>
<!-- Node2&#45;&gt;Node4 -->
<g id="edge3_Node000002_Node000004" class="edge">
<title>Node2&#45;&gt;Node4</title>
<g id="a_edge3_Node000002_Node000004"><a xlink:title=" ">
<path fill="none" stroke="#63b8ff" d="M543.6,-73.57C467.37,-65.33 342.81,-50.35 236.5,-30.5 233.91,-30.02 231.26,-29.49 228.6,-28.94"/>
<polygon fill="#63b8ff" stroke="#63b8ff" points="543.12,-77.04 553.44,-74.62 543.87,-70.08 543.12,-77.04"/>
</a>
</g>
</g>
<!-- Node5 -->
<g id="Node000005" class="node">
<title>Node5</title>
<g id="a_Node000005"><a xlink:href="GraphView_8cpp.html" target="_top" xlink:title=" ">
<polygon fill="white" stroke="#666666" points="373,-30.5 246,-30.5 246,0 373,0 373,-30.5"/>
<text text-anchor="start" x="254" y="-17" font-family="Helvetica,sans-Serif" font-size="10.00">sourcecode/dbe/src</text>
<text text-anchor="middle" x="309.5" y="-5.75" font-family="Helvetica,sans-Serif" font-size="10.00">/graphical/GraphView.cpp</text>
</a>
</g>
</g>
<!-- Node2&#45;&gt;Node5 -->
<g id="edge4_Node000002_Node000005" class="edge">
<title>Node2&#45;&gt;Node5</title>
<g id="a_edge4_Node000002_Node000005"><a xlink:title=" ">
<path fill="none" stroke="#63b8ff" d="M543.93,-65.83C492.44,-54.94 423.21,-40.3 373.35,-29.75"/>
<polygon fill="#63b8ff" stroke="#63b8ff" points="542.98,-69.2 553.49,-67.85 544.43,-62.35 542.98,-69.2"/>
</a>
</g>
</g>
<!-- Node6 -->
<g id="Node000006" class="node">
<title>Node6</title>
<g id="a_Node000006"><a xlink:href="MainWindow_8cpp.html" target="_top" xlink:title=" ">
<polygon fill="white" stroke="#666666" points="518,-30.5 391,-30.5 391,0 518,0 518,-30.5"/>
<text text-anchor="start" x="399" y="-17" font-family="Helvetica,sans-Serif" font-size="10.00">sourcecode/dbe/src</text>
<text text-anchor="middle" x="454.5" y="-5.75" font-family="Helvetica,sans-Serif" font-size="10.00">/internal/MainWindow.cpp</text>
</a>
</g>
</g>
<!-- Node2&#45;&gt;Node6 -->
<g id="edge5_Node000002_Node000006" class="edge">
<title>Node2&#45;&gt;Node6</title>
<g id="a_edge5_Node000002_Node000006"><a xlink:title=" ">
<path fill="none" stroke="#63b8ff" d="M567.7,-61.88C543.22,-52.01 513.7,-40.11 490.94,-30.94"/>
<polygon fill="#63b8ff" stroke="#63b8ff" points="566.21,-65.06 576.79,-65.55 568.82,-58.56 566.21,-65.06"/>
</a>
</g>
</g>
<!-- Node7 -->
<g id="Node000007" class="node">
<title>Node7</title>
<g id="a_Node000007"><a xlink:href="CustomTableView_8cpp.html" target="_top" xlink:title=" ">
<polygon fill="white" stroke="#666666" points="693.38,-30.5 535.62,-30.5 535.62,0 693.38,0 693.38,-30.5"/>
<text text-anchor="start" x="543.62" y="-17" font-family="Helvetica,sans-Serif" font-size="10.00">sourcecode/dbe/src</text>
<text text-anchor="middle" x="614.5" y="-5.75" font-family="Helvetica,sans-Serif" font-size="10.00">/structure/CustomTableView.cpp</text>
</a>
</g>
</g>
<!-- Node2&#45;&gt;Node7 -->
<g id="edge6_Node000002_Node000007" class="edge">
<title>Node2&#45;&gt;Node7</title>
<g id="a_edge6_Node000002_Node000007"><a xlink:title=" ">
<path fill="none" stroke="#63b8ff" d="M614.5,-54.81C614.5,-46.64 614.5,-37.91 614.5,-30.83"/>
<polygon fill="#63b8ff" stroke="#63b8ff" points="611,-54.6 614.5,-64.6 618,-54.6 611,-54.6"/>
</a>
</g>
</g>
<!-- Node8 -->
<g id="Node000008" class="node">
<title>Node8</title>
<g id="a_Node000008"><a xlink:href="FileModel_8cpp.html" target="_top" xlink:title=" ">
<polygon fill="white" stroke="#666666" points="831.62,-30.5 711.38,-30.5 711.38,0 831.62,0 831.62,-30.5"/>
<text text-anchor="start" x="719.38" y="-17" font-family="Helvetica,sans-Serif" font-size="10.00">sourcecode/dbe/src</text>
<text text-anchor="middle" x="771.5" y="-5.75" font-family="Helvetica,sans-Serif" font-size="10.00">/structure/FileModel.cpp</text>
</a>
</g>
</g>
<!-- Node2&#45;&gt;Node8 -->
<g id="edge7_Node000002_Node000008" class="edge">
<title>Node2&#45;&gt;Node8</title>
<g id="a_edge7_Node000002_Node000008"><a xlink:title=" ">
<path fill="none" stroke="#63b8ff" d="M660.75,-61.75C684.71,-51.91 713.52,-40.07 735.74,-30.94"/>
<polygon fill="#63b8ff" stroke="#63b8ff" points="659.45,-58.5 651.53,-65.54 662.11,-64.98 659.45,-58.5"/>
</a>
</g>
</g>
<!-- Node9 -->
<g id="Node000009" class="node">
<title>Node9</title>
<g id="a_Node000009"><a xlink:href="BatchChangeWidget_8cpp.html" target="_top" xlink:title=" ">
<polygon fill="white" stroke="#666666" points="1011.62,-30.5 849.38,-30.5 849.38,0 1011.62,0 1011.62,-30.5"/>
<text text-anchor="start" x="857.38" y="-17" font-family="Helvetica,sans-Serif" font-size="10.00">sourcecode/dbe/src</text>
<text text-anchor="middle" x="930.5" y="-5.75" font-family="Helvetica,sans-Serif" font-size="10.00">/widgets/BatchChangeWidget.cpp</text>
</a>
</g>
</g>
<!-- Node2&#45;&gt;Node9 -->
<g id="edge8_Node000002_Node000009" class="edge">
<title>Node2&#45;&gt;Node9</title>
<g id="a_edge8_Node000002_Node000009"><a xlink:title=" ">
<path fill="none" stroke="#63b8ff" d="M685.19,-65.95C748.46,-52.93 810.54,-40.37 857.23,-30.96"/>
<polygon fill="#63b8ff" stroke="#63b8ff" points="684.77,-62.47 675.68,-67.91 686.18,-69.32 684.77,-62.47"/>
</a>
</g>
</g>
<!-- Node10 -->
<g id="Node000010" class="node">
<title>Node10</title>
<g id="a_Node000010"><a xlink:href="IncludeFileWidget_8cpp.html" target="_top" xlink:title=" ">
<polygon fill="white" stroke="#666666" points="1181,-30.5 1030,-30.5 1030,0 1181,0 1181,-30.5"/>
<text text-anchor="start" x="1038" y="-17" font-family="Helvetica,sans-Serif" font-size="10.00">sourcecode/dbe/src</text>
<text text-anchor="middle" x="1105.5" y="-5.75" font-family="Helvetica,sans-Serif" font-size="10.00">/widgets/IncludeFileWidget.cpp</text>
</a>
</g>
</g>
<!-- Node2&#45;&gt;Node10 -->
<g id="edge9_Node000002_Node000010" class="edge">
<title>Node2&#45;&gt;Node10</title>
<g id="a_edge9_Node000002_Node000010"><a xlink:title=" ">
<path fill="none" stroke="#63b8ff" d="M685.48,-66.13C833.7,-43.35 874.48,-50.5 1020.5,-30.5 1023.46,-30.09 1026.49,-29.66 1029.53,-29.22"/>
<polygon fill="#63b8ff" stroke="#63b8ff" points="684.98,-62.67 675.64,-67.66 686.06,-69.58 684.98,-62.67"/>
</a>
</g>
</g>
<!-- Node11 -->
<g id="Node000011" class="node">
<title>Node11</title>
<g id="a_Node000011"><a xlink:href="ObjectEditor_8cpp.html" target="_top" xlink:title=" ">
<polygon fill="white" stroke="#666666" points="1326,-30.5 1199,-30.5 1199,0 1326,0 1326,-30.5"/>
<text text-anchor="start" x="1207" y="-17" font-family="Helvetica,sans-Serif" font-size="10.00">sourcecode/dbe/src</text>
<text text-anchor="middle" x="1262.5" y="-5.75" font-family="Helvetica,sans-Serif" font-size="10.00">/widgets/ObjectEditor.cpp</text>
</a>
</g>
</g>
<!-- Node2&#45;&gt;Node11 -->
<g id="edge10_Node000002_Node000011" class="edge">
<title>Node2&#45;&gt;Node11</title>
<g id="a_edge10_Node000002_Node000011"><a xlink:title=" ">
<path fill="none" stroke="#63b8ff" d="M685.23,-66.25C908.63,-36.02 969.77,-60.05 1190.5,-30.5 1193.15,-30.14 1195.85,-29.75 1198.58,-29.33"/>
<polygon fill="#63b8ff" stroke="#63b8ff" points="685.05,-62.74 675.62,-67.57 686.01,-69.67 685.05,-62.74"/>
</a>
</g>
</g>
</g>
</svg>
