<?xml version="1.0" encoding="UTF-8" standalone="no"?>
<!DOCTYPE svg PUBLIC "-//W3C//DTD SVG 1.1//EN"
 "http://www.w3.org/Graphics/SVG/1.1/DTD/svg11.dtd">
<!-- Generated by graphviz version 9.0.0 (20230911.1827)
 -->
<!-- Title: sourcecode/dbe/include/dbe/treenode.hpp Pages: 1 -->
<svg width="1477pt" height="527pt"
 viewBox="0.00 0.00 1477.38 526.50" xmlns="http://www.w3.org/2000/svg" xmlns:xlink="http://www.w3.org/1999/xlink">
<g id="graph0" class="graph" transform="scale(1 1) rotate(0) translate(4 522.5)">
<title>sourcecode/dbe/include/dbe/treenode.hpp</title>
<!-- Node1 -->
<g id="Node000001" class="node">
<title>Node1</title>
<g id="a_Node000001"><a xlink:title=" ">
<polygon fill="#999999" stroke="#666666" points="729.88,-518.5 611.12,-518.5 611.12,-488 729.88,-488 729.88,-518.5"/>
<text text-anchor="start" x="619.12" y="-505" font-family="Helvetica,sans-Serif" font-size="10.00">sourcecode/dbe/include</text>
<text text-anchor="middle" x="670.5" y="-493.75" font-family="Helvetica,sans-Serif" font-size="10.00">/dbe/treenode.hpp</text>
</a>
</g>
</g>
<!-- Node2 -->
<g id="Node000002" class="node">
<title>Node2</title>
<g id="a_Node000002"><a xlink:href="TreeModelInterface_8hpp.html" target="_top" xlink:title=" ">
<polygon fill="white" stroke="#666666" points="584.38,-374.25 444.62,-374.25 444.62,-343.75 584.38,-343.75 584.38,-374.25"/>
<text text-anchor="start" x="452.62" y="-360.75" font-family="Helvetica,sans-Serif" font-size="10.00">sourcecode/dbe/include</text>
<text text-anchor="middle" x="514.5" y="-349.5" font-family="Helvetica,sans-Serif" font-size="10.00">/dbe/TreeModelInterface.hpp</text>
</a>
</g>
</g>
<!-- Node1&#45;&gt;Node2 -->
<g id="edge1_Node000001_Node000002" class="edge">
<title>Node1&#45;&gt;Node2</title>
<g id="a_edge1_Node000001_Node000002"><a xlink:title=" ">
<path fill="none" stroke="#63b8ff" d="M637.53,-481.49C624.86,-472.94 610.55,-462.57 598.5,-452 570.21,-427.18 541.57,-393.6 526.13,-374.63"/>
<polygon fill="#63b8ff" stroke="#63b8ff" points="635.3,-484.21 645.57,-486.81 639.16,-478.37 635.3,-484.21"/>
</a>
</g>
</g>
<!-- Node7 -->
<g id="Node000007" class="node">
<title>Node7</title>
<g id="a_Node000007"><a xlink:href="GraphView_8cpp.html" target="_top" xlink:title=" ">
<polygon fill="white" stroke="#666666" points="127,-30.5 0,-30.5 0,0 127,0 127,-30.5"/>
<text text-anchor="start" x="8" y="-17" font-family="Helvetica,sans-Serif" font-size="10.00">sourcecode/dbe/src</text>
<text text-anchor="middle" x="63.5" y="-5.75" font-family="Helvetica,sans-Serif" font-size="10.00">/graphical/GraphView.cpp</text>
</a>
</g>
</g>
<!-- Node1&#45;&gt;Node7 -->
<g id="edge53_Node000001_Node000007" class="edge">
<title>Node1&#45;&gt;Node7</title>
<g id="a_edge53_Node000001_Node000007"><a xlink:title=" ">
<path fill="none" stroke="#63b8ff" d="M599.41,-502.37C472.89,-501.49 214.59,-494.35 136.5,-452 90.62,-427.12 63.5,-412.2 63.5,-360 63.5,-360 63.5,-360 63.5,-147.25 63.5,-104.95 63.5,-54.96 63.5,-30.79"/>
<polygon fill="#63b8ff" stroke="#63b8ff" points="599.33,-505.87 609.35,-502.43 599.37,-498.87 599.33,-505.87"/>
</a>
</g>
</g>
<!-- Node8 -->
<g id="Node000008" class="node">
<title>Node8</title>
<g id="a_Node000008"><a xlink:href="MainWindow_8cpp.html" target="_top" xlink:title=" ">
<polygon fill="white" stroke="#666666" points="272,-30.5 145,-30.5 145,0 272,0 272,-30.5"/>
<text text-anchor="start" x="153" y="-17" font-family="Helvetica,sans-Serif" font-size="10.00">sourcecode/dbe/src</text>
<text text-anchor="middle" x="208.5" y="-5.75" font-family="Helvetica,sans-Serif" font-size="10.00">/internal/MainWindow.cpp</text>
</a>
</g>
</g>
<!-- Node1&#45;&gt;Node8 -->
<g id="edge55_Node000001_Node000008" class="edge">
<title>Node1&#45;&gt;Node8</title>
<g id="a_edge55_Node000001_Node000008"><a xlink:title=" ">
<path fill="none" stroke="#63b8ff" d="M599.6,-499.36C447.08,-491.22 101.5,-461.57 101.5,-360 101.5,-360 101.5,-360 101.5,-147.25 101.5,-95.13 152.94,-52.31 184.49,-30.95"/>
<polygon fill="#63b8ff" stroke="#63b8ff" points="599,-502.84 609.17,-499.86 599.36,-495.85 599,-502.84"/>
</a>
</g>
</g>
<!-- Node14 -->
<g id="Node000014" class="node">
<title>Node14</title>
<g id="a_Node000014"><a xlink:href="CustomTreeView_8cpp.html" target="_top" xlink:title=" ">
<polygon fill="white" stroke="#666666" points="510.12,-230 356.88,-230 356.88,-199.5 510.12,-199.5 510.12,-230"/>
<text text-anchor="start" x="364.88" y="-216.5" font-family="Helvetica,sans-Serif" font-size="10.00">sourcecode/dbe/src</text>
<text text-anchor="middle" x="433.5" y="-205.25" font-family="Helvetica,sans-Serif" font-size="10.00">/structure/CustomTreeView.cpp</text>
</a>
</g>
</g>
<!-- Node1&#45;&gt;Node14 -->
<g id="edge58_Node000001_Node000014" class="edge">
<title>Node1&#45;&gt;Node14</title>
<g id="a_edge58_Node000001_Node000014"><a xlink:title=" ">
<path fill="none" stroke="#63b8ff" d="M599.87,-485.99C543.54,-468.78 468.76,-435.36 435.5,-374.25 409.85,-327.12 422.11,-259.82 429.42,-230.43"/>
<polygon fill="#63b8ff" stroke="#63b8ff" points="598.83,-489.33 609.42,-488.79 600.81,-482.62 598.83,-489.33"/>
</a>
</g>
</g>
<!-- Node15 -->
<g id="Node000015" class="node">
<title>Node15</title>
<g id="a_Node000015"><a xlink:href="subtreeproxy_8cpp.html" target="_top" xlink:title=" ">
<polygon fill="white" stroke="#666666" points="339,-230 206,-230 206,-199.5 339,-199.5 339,-230"/>
<text text-anchor="start" x="214" y="-216.5" font-family="Helvetica,sans-Serif" font-size="10.00">sourcecode/dbe/src</text>
<text text-anchor="middle" x="272.5" y="-205.25" font-family="Helvetica,sans-Serif" font-size="10.00">/structure/subtreeproxy.cpp</text>
</a>
</g>
</g>
<!-- Node1&#45;&gt;Node15 -->
<g id="edge59_Node000001_Node000015" class="edge">
<title>Node1&#45;&gt;Node15</title>
<g id="a_edge59_Node000001_Node000015"><a xlink:title=" ">
<path fill="none" stroke="#63b8ff" d="M599.68,-491.94C557.72,-484.24 504.2,-471.61 459.5,-452 354.46,-405.92 299.36,-409.02 245.5,-307.75 231.98,-282.33 249.06,-249.25 261.56,-230.47"/>
<polygon fill="#63b8ff" stroke="#63b8ff" points="598.96,-495.37 609.42,-493.67 600.19,-488.47 598.96,-495.37"/>
</a>
</g>
</g>
<!-- Node17 -->
<g id="Node000017" class="node">
<title>Node17</title>
<g id="a_Node000017"><a xlink:href="tree_8cpp.html" target="_top" xlink:title=" ">
<polygon fill="white" stroke="#666666" points="668.25,-230 566.75,-230 566.75,-199.5 668.25,-199.5 668.25,-230"/>
<text text-anchor="start" x="574.75" y="-216.5" font-family="Helvetica,sans-Serif" font-size="10.00">sourcecode/dbe/src</text>
<text text-anchor="middle" x="617.5" y="-205.25" font-family="Helvetica,sans-Serif" font-size="10.00">/structure/tree.cpp</text>
</a>
</g>
</g>
<!-- Node1&#45;&gt;Node17 -->
<g id="edge61_Node000001_Node000017" class="edge">
<title>Node1&#45;&gt;Node17</title>
<g id="a_edge61_Node000001_Node000017"><a xlink:title=" ">
<path fill="none" stroke="#63b8ff" d="M665.02,-476.88C657.1,-439.81 642.23,-368.65 631.5,-307.75 626.7,-280.54 622.07,-248.63 619.52,-230.44"/>
<polygon fill="#63b8ff" stroke="#63b8ff" points="661.49,-477.13 667.01,-486.17 668.34,-475.66 661.49,-477.13"/>
</a>
</g>
</g>
<!-- Node19 -->
<g id="Node000019" class="node">
<title>Node19</title>
<g id="a_Node000019"><a xlink:href="treeselection_8hpp.html" target="_top" xlink:title=" ">
<polygon fill="white" stroke="#666666" points="758.88,-302.12 640.12,-302.12 640.12,-271.62 758.88,-271.62 758.88,-302.12"/>
<text text-anchor="start" x="648.12" y="-288.62" font-family="Helvetica,sans-Serif" font-size="10.00">sourcecode/dbe/include</text>
<text text-anchor="middle" x="699.5" y="-277.38" font-family="Helvetica,sans-Serif" font-size="10.00">/dbe/treeselection.hpp</text>
</a>
</g>
</g>
<!-- Node1&#45;&gt;Node19 -->
<g id="edge52_Node000001_Node000019" class="edge">
<title>Node1&#45;&gt;Node19</title>
<g id="a_edge52_Node000001_Node000019"><a xlink:title=" ">
<path fill="none" stroke="#63b8ff" d="M674.01,-476.28C680.17,-430.8 692.69,-338.2 697.53,-302.43"/>
<polygon fill="#63b8ff" stroke="#63b8ff" points="670.57,-475.64 672.7,-486.02 677.51,-476.57 670.57,-475.64"/>
</a>
</g>
</g>
<!-- Node20 -->
<g id="Node000020" class="node">
<title>Node20</title>
<g id="a_Node000020"><a xlink:href="model__common__operations_8hpp.html" target="_top" xlink:title=" ">
<polygon fill="white" stroke="#666666" points="874,-446.38 699,-446.38 699,-415.88 874,-415.88 874,-446.38"/>
<text text-anchor="start" x="707" y="-432.88" font-family="Helvetica,sans-Serif" font-size="10.00">sourcecode/dbe/include</text>
<text text-anchor="middle" x="786.5" y="-421.62" font-family="Helvetica,sans-Serif" font-size="10.00">/dbe/model_common_operations.hpp</text>
</a>
</g>
</g>
<!-- Node1&#45;&gt;Node20 -->
<g id="edge27_Node000001_Node000020" class="edge">
<title>Node1&#45;&gt;Node20</title>
<g id="a_edge27_Node000001_Node000020"><a xlink:title=" ">
<path fill="none" stroke="#63b8ff" d="M704.62,-481.62C723.11,-470.45 745.52,-456.9 762.21,-446.81"/>
<polygon fill="#63b8ff" stroke="#63b8ff" points="702.86,-478.6 696.11,-486.77 706.48,-484.59 702.86,-478.6"/>
</a>
</g>
</g>
<!-- Node29 -->
<g id="Node000029" class="node">
<title>Node29</title>
<g id="a_Node000029"><a xlink:href="table_8cpp.html" target="_top" xlink:title=" ">
<polygon fill="white" stroke="#666666" points="1375.25,-230 1273.75,-230 1273.75,-199.5 1375.25,-199.5 1375.25,-230"/>
<text text-anchor="start" x="1281.75" y="-216.5" font-family="Helvetica,sans-Serif" font-size="10.00">sourcecode/dbe/src</text>
<text text-anchor="middle" x="1324.5" y="-205.25" font-family="Helvetica,sans-Serif" font-size="10.00">/structure/table.cpp</text>
</a>
</g>
</g>
<!-- Node1&#45;&gt;Node29 -->
<g id="edge60_Node000001_Node000029" class="edge">
<title>Node1&#45;&gt;Node29</title>
<g id="a_edge60_Node000001_Node000029"><a xlink:title=" ">
<path fill="none" stroke="#63b8ff" d="M741.29,-496.04C784.68,-489.77 840.05,-477.2 883.5,-452 905.47,-439.26 900.97,-423.71 922.5,-410.25 1054.17,-327.95 1129.77,-397.47 1256.5,-307.75 1285.35,-287.32 1306.96,-250.82 1317.44,-230.48"/>
<polygon fill="#63b8ff" stroke="#63b8ff" points="740.9,-492.56 731.46,-497.37 741.84,-499.5 740.9,-492.56"/>
</a>
</g>
</g>
<!-- Node31 -->
<g id="Node000031" class="node">
<title>Node31</title>
<g id="a_Node000031"><a xlink:href="GraphicalClass_8cpp.html" target="_top" xlink:title=" ">
<polygon fill="white" stroke="#666666" points="1076,-446.38 931,-446.38 931,-415.88 1076,-415.88 1076,-446.38"/>
<text text-anchor="start" x="939" y="-432.88" font-family="Helvetica,sans-Serif" font-size="10.00">sourcecode/dbe/src</text>
<text text-anchor="middle" x="1003.5" y="-421.62" font-family="Helvetica,sans-Serif" font-size="10.00">/graphical/GraphicalClass.cpp</text>
</a>
</g>
</g>
<!-- Node1&#45;&gt;Node31 -->
<g id="edge54_Node000001_Node000031" class="edge">
<title>Node1&#45;&gt;Node31</title>
<g id="a_edge54_Node000001_Node000031"><a xlink:title=" ">
<path fill="none" stroke="#63b8ff" d="M741.39,-488.22C790.59,-478.37 857.61,-464.74 916.5,-452 924.07,-450.36 932,-448.61 939.87,-446.84"/>
<polygon fill="#63b8ff" stroke="#63b8ff" points="740.84,-484.76 731.72,-490.15 742.21,-491.63 740.84,-484.76"/>
</a>
</g>
</g>
<!-- Node32 -->
<g id="Node000032" class="node">
<title>Node32</title>
<g id="a_Node000032"><a xlink:href="config__api__info_8cpp.html" target="_top" xlink:title=" ">
<polygon fill="white" stroke="#666666" points="1195.25,-452 1093.75,-452 1093.75,-410.25 1195.25,-410.25 1195.25,-452"/>
<text text-anchor="start" x="1101.75" y="-438.5" font-family="Helvetica,sans-Serif" font-size="10.00">sourcecode/dbe/src</text>
<text text-anchor="start" x="1101.75" y="-427.25" font-family="Helvetica,sans-Serif" font-size="10.00">/internal/config_api</text>
<text text-anchor="middle" x="1144.5" y="-416" font-family="Helvetica,sans-Serif" font-size="10.00">_info.cpp</text>
</a>
</g>
</g>
<!-- Node1&#45;&gt;Node32 -->
<g id="edge56_Node000001_Node000032" class="edge">
<title>Node1&#45;&gt;Node32</title>
<g id="a_edge56_Node000001_Node000032"><a xlink:title=" ">
<path fill="none" stroke="#63b8ff" d="M741.61,-498.08C824.86,-492.17 966.52,-478.95 1085.5,-452 1088.14,-451.4 1090.82,-450.73 1093.52,-450.01"/>
<polygon fill="#63b8ff" stroke="#63b8ff" points="741.5,-494.57 731.77,-498.76 741.98,-501.56 741.5,-494.57"/>
</a>
</g>
</g>
<!-- Node33 -->
<g id="Node000033" class="node">
<title>Node33</title>
<g id="a_Node000033"><a xlink:href="datahandler_8cpp.html" target="_top" xlink:title=" ">
<polygon fill="white" stroke="#666666" points="1335.38,-446.38 1213.62,-446.38 1213.62,-415.88 1335.38,-415.88 1335.38,-446.38"/>
<text text-anchor="start" x="1221.62" y="-432.88" font-family="Helvetica,sans-Serif" font-size="10.00">sourcecode/dbe/src</text>
<text text-anchor="middle" x="1274.5" y="-421.62" font-family="Helvetica,sans-Serif" font-size="10.00">/internal/datahandler.cpp</text>
</a>
</g>
</g>
<!-- Node1&#45;&gt;Node33 -->
<g id="edge57_Node000001_Node000033" class="edge">
<title>Node1&#45;&gt;Node33</title>
<g id="a_edge57_Node000001_Node000033"><a xlink:title=" ">
<path fill="none" stroke="#63b8ff" d="M741.74,-499.69C844.66,-495.05 1040.58,-482.72 1204.5,-452 1211.95,-450.6 1219.75,-448.77 1227.33,-446.78"/>
<polygon fill="#63b8ff" stroke="#63b8ff" points="741.61,-496.19 731.77,-500.12 741.91,-503.18 741.61,-496.19"/>
</a>
</g>
</g>
<!-- Node34 -->
<g id="Node000034" class="node">
<title>Node34</title>
<g id="a_Node000034"><a xlink:href="treenode_8cpp.html" target="_top" xlink:title=" ">
<polygon fill="white" stroke="#666666" points="1469.38,-446.38 1353.62,-446.38 1353.62,-415.88 1469.38,-415.88 1469.38,-446.38"/>
<text text-anchor="start" x="1361.62" y="-432.88" font-family="Helvetica,sans-Serif" font-size="10.00">sourcecode/dbe/src</text>
<text text-anchor="middle" x="1411.5" y="-421.62" font-family="Helvetica,sans-Serif" font-size="10.00">/structure/treenode.cpp</text>
</a>
</g>
</g>
<!-- Node1&#45;&gt;Node34 -->
<g id="edge62_Node000001_Node000034" class="edge">
<title>Node1&#45;&gt;Node34</title>
<g id="a_edge62_Node000001_Node000034"><a xlink:title=" ">
<path fill="none" stroke="#63b8ff" d="M741.25,-501.93C864.71,-500.27 1127.1,-491.87 1344.5,-452 1351.78,-450.66 1359.39,-448.84 1366.77,-446.83"/>
<polygon fill="#63b8ff" stroke="#63b8ff" points="741.57,-498.43 731.61,-502.05 741.65,-505.43 741.57,-498.43"/>
</a>
</g>
</g>
<!-- Node3 -->
<g id="Node000003" class="node">
<title>Node3</title>
<g id="a_Node000003"><a xlink:href="subtreeproxy_8hpp.html" target="_top" xlink:title=" ">
<polygon fill="white" stroke="#666666" points="372.88,-302.12 254.12,-302.12 254.12,-271.62 372.88,-271.62 372.88,-302.12"/>
<text text-anchor="start" x="262.12" y="-288.62" font-family="Helvetica,sans-Serif" font-size="10.00">sourcecode/dbe/include</text>
<text text-anchor="middle" x="313.5" y="-277.38" font-family="Helvetica,sans-Serif" font-size="10.00">/dbe/subtreeproxy.hpp</text>
</a>
</g>
</g>
<!-- Node2&#45;&gt;Node3 -->
<g id="edge2_Node000002_Node000003" class="edge">
<title>Node2&#45;&gt;Node3</title>
<g id="a_edge2_Node000002_Node000003"><a xlink:title=" ">
<path fill="none" stroke="#63b8ff" d="M461.51,-339.51C428.41,-327.97 386.39,-313.3 355.58,-302.56"/>
<polygon fill="#63b8ff" stroke="#63b8ff" points="460.34,-342.81 470.93,-342.8 462.65,-336.2 460.34,-342.81"/>
</a>
</g>
</g>
<!-- Node2&#45;&gt;Node14 -->
<g id="edge26_Node000002_Node000014" class="edge">
<title>Node2&#45;&gt;Node14</title>
<g id="a_edge26_Node000002_Node000014"><a xlink:title=" ">
<path fill="none" stroke="#63b8ff" d="M483.39,-336.35C473.86,-328.35 464.15,-318.56 457.5,-307.75 442.45,-283.29 436.77,-249.58 434.68,-230.49"/>
<polygon fill="#63b8ff" stroke="#63b8ff" points="481.16,-339.05 491.17,-342.51 485.5,-333.56 481.16,-339.05"/>
</a>
</g>
</g>
<!-- Node16 -->
<g id="Node000016" class="node">
<title>Node16</title>
<g id="a_Node000016"><a xlink:href="tree_8hpp.html" target="_top" xlink:title=" ">
<polygon fill="white" stroke="#666666" points="584.88,-302.12 466.12,-302.12 466.12,-271.62 584.88,-271.62 584.88,-302.12"/>
<text text-anchor="start" x="474.12" y="-288.62" font-family="Helvetica,sans-Serif" font-size="10.00">sourcecode/dbe/include</text>
<text text-anchor="middle" x="525.5" y="-277.38" font-family="Helvetica,sans-Serif" font-size="10.00">/dbe/tree.hpp</text>
</a>
</g>
</g>
<!-- Node2&#45;&gt;Node16 -->
<g id="edge16_Node000002_Node000016" class="edge">
<title>Node2&#45;&gt;Node16</title>
<g id="a_edge16_Node000002_Node000016"><a xlink:title=" ">
<path fill="none" stroke="#63b8ff" d="M518.52,-332.35C520.11,-322.26 521.87,-311.03 523.22,-302.39"/>
<polygon fill="#63b8ff" stroke="#63b8ff" points="515.11,-331.55 517.01,-341.97 522.02,-332.64 515.11,-331.55"/>
</a>
</g>
</g>
<!-- Node2&#45;&gt;Node19 -->
<g id="edge22_Node000002_Node000019" class="edge">
<title>Node2&#45;&gt;Node19</title>
<g id="a_edge22_Node000002_Node000019"><a xlink:title=" ">
<path fill="none" stroke="#63b8ff" d="M563.67,-339.36C594.07,-327.84 632.54,-313.26 660.77,-302.56"/>
<polygon fill="#63b8ff" stroke="#63b8ff" points="562.81,-335.95 554.7,-342.76 565.29,-342.49 562.81,-335.95"/>
</a>
</g>
</g>
<!-- Node4 -->
<g id="Node000004" class="node">
<title>Node4</title>
<g id="a_Node000004"><a xlink:href="MainWindow_8hpp.html" target="_top" xlink:title=" ">
<polygon fill="white" stroke="#666666" points="707.88,-97 589.12,-97 589.12,-66.5 707.88,-66.5 707.88,-97"/>
<text text-anchor="start" x="597.12" y="-83.5" font-family="Helvetica,sans-Serif" font-size="10.00">sourcecode/dbe/include</text>
<text text-anchor="middle" x="648.5" y="-72.25" font-family="Helvetica,sans-Serif" font-size="10.00">/dbe/MainWindow.hpp</text>
</a>
</g>
</g>
<!-- Node3&#45;&gt;Node4 -->
<g id="edge3_Node000003_Node000004" class="edge">
<title>Node3&#45;&gt;Node4</title>
<g id="a_edge3_Node000003_Node000004"><a xlink:title=" ">
<path fill="none" stroke="#63b8ff" d="M254.08,-267.35C215.16,-252.04 175.28,-228.21 197.5,-199.5 245.28,-137.78 477.35,-102.77 588.68,-89.27"/>
<polygon fill="#63b8ff" stroke="#63b8ff" points="252.44,-270.47 263.03,-270.71 254.9,-263.91 252.44,-270.47"/>
</a>
</g>
</g>
<!-- Node3&#45;&gt;Node8 -->
<g id="edge13_Node000003_Node000008" class="edge">
<title>Node3&#45;&gt;Node8</title>
<g id="a_edge13_Node000003_Node000008"><a xlink:title=" ">
<path fill="none" stroke="#63b8ff" d="M243.09,-270.99C221.21,-262.7 199.45,-249.85 186.5,-230 144.81,-166.11 183.76,-67.89 201.13,-30.96"/>
<polygon fill="#63b8ff" stroke="#63b8ff" points="241.78,-274.24 252.38,-274.21 244.08,-267.62 241.78,-274.24"/>
</a>
</g>
</g>
<!-- Node3&#45;&gt;Node14 -->
<g id="edge14_Node000003_Node000014" class="edge">
<title>Node3&#45;&gt;Node14</title>
<g id="a_edge14_Node000003_Node000014"><a xlink:title=" ">
<path fill="none" stroke="#63b8ff" d="M348.53,-265.4C367.71,-254.2 391.02,-240.57 408.38,-230.43"/>
<polygon fill="#63b8ff" stroke="#63b8ff" points="346.83,-262.34 339.96,-270.41 350.36,-268.39 346.83,-262.34"/>
</a>
</g>
</g>
<!-- Node3&#45;&gt;Node15 -->
<g id="edge15_Node000003_Node000015" class="edge">
<title>Node3&#45;&gt;Node15</title>
<g id="a_edge15_Node000003_Node000015"><a xlink:title=" ">
<path fill="none" stroke="#63b8ff" d="M299.27,-261.54C293.18,-251.11 286.26,-239.28 280.98,-230.26"/>
<polygon fill="#63b8ff" stroke="#63b8ff" points="296.17,-263.17 304.24,-270.04 302.21,-259.64 296.17,-263.17"/>
</a>
</g>
</g>
<!-- Node5 -->
<g id="Node000005" class="node">
<title>Node5</title>
<g id="a_Node000005"><a xlink:href="Main_8cpp.html" target="_top" xlink:title=" ">
<polygon fill="white" stroke="#666666" points="553,-30.5 444,-30.5 444,0 553,0 553,-30.5"/>
<text text-anchor="start" x="452" y="-17" font-family="Helvetica,sans-Serif" font-size="10.00">sourcecode/dbe/apps</text>
<text text-anchor="middle" x="498.5" y="-5.75" font-family="Helvetica,sans-Serif" font-size="10.00">/Main.cpp</text>
</a>
</g>
</g>
<!-- Node4&#45;&gt;Node5 -->
<g id="edge4_Node000004_Node000005" class="edge">
<title>Node4&#45;&gt;Node5</title>
<g id="a_edge4_Node000004_Node000005"><a xlink:title=" ">
<path fill="none" stroke="#63b8ff" d="M604,-61.62C581.17,-51.8 553.8,-40.03 532.66,-30.94"/>
<polygon fill="#63b8ff" stroke="#63b8ff" points="602.5,-64.78 613.07,-65.52 605.27,-58.35 602.5,-64.78"/>
</a>
</g>
</g>
<!-- Node6 -->
<g id="Node000006" class="node">
<title>Node6</title>
<g id="a_Node000006"><a xlink:href="TableTab_8cpp.html" target="_top" xlink:title=" ">
<polygon fill="white" stroke="#666666" points="1160.25,-30.5 1058.75,-30.5 1058.75,0 1160.25,0 1160.25,-30.5"/>
<text text-anchor="start" x="1066.75" y="-17" font-family="Helvetica,sans-Serif" font-size="10.00">sourcecode/dbe/src</text>
<text text-anchor="middle" x="1109.5" y="-5.75" font-family="Helvetica,sans-Serif" font-size="10.00">/TableTab.cpp</text>
</a>
</g>
</g>
<!-- Node4&#45;&gt;Node6 -->
<g id="edge5_Node000004_Node000006" class="edge">
<title>Node4&#45;&gt;Node6</title>
<g id="a_edge5_Node000004_Node000006"><a xlink:title=" ">
<path fill="none" stroke="#63b8ff" d="M719.07,-74.36C799.64,-66.5 935.19,-51.56 1050.5,-30.5 1053.09,-30.03 1055.74,-29.51 1058.41,-28.96"/>
<polygon fill="#63b8ff" stroke="#63b8ff" points="719.2,-70.83 709.58,-75.27 719.87,-77.8 719.2,-70.83"/>
</a>
</g>
</g>
<!-- Node4&#45;&gt;Node7 -->
<g id="edge6_Node000004_Node000007" class="edge">
<title>Node4&#45;&gt;Node7</title>
<g id="a_edge6_Node000004_Node000007"><a xlink:title=" ">
<path fill="none" stroke="#63b8ff" d="M577.25,-75.98C477.93,-68.83 292.4,-53.65 135.5,-30.5 132.85,-30.11 130.16,-29.69 127.43,-29.24"/>
<polygon fill="#63b8ff" stroke="#63b8ff" points="576.9,-79.47 587.13,-76.69 577.4,-72.48 576.9,-79.47"/>
</a>
</g>
</g>
<!-- Node4&#45;&gt;Node8 -->
<g id="edge7_Node000004_Node000008" class="edge">
<title>Node4&#45;&gt;Node8</title>
<g id="a_edge7_Node000004_Node000008"><a xlink:title=" ">
<path fill="none" stroke="#63b8ff" d="M577.64,-71.5C505.35,-61.89 389.96,-46.12 290.5,-30.5 284.65,-29.58 278.57,-28.59 272.48,-27.58"/>
<polygon fill="#63b8ff" stroke="#63b8ff" points="576.99,-74.94 587.37,-72.79 577.91,-68 576.99,-74.94"/>
</a>
</g>
</g>
<!-- Node9 -->
<g id="Node000009" class="node">
<title>Node9</title>
<g id="a_Node000009"><a xlink:href="CustomTableView_8cpp.html" target="_top" xlink:title=" ">
<polygon fill="white" stroke="#666666" points="1336.38,-30.5 1178.62,-30.5 1178.62,0 1336.38,0 1336.38,-30.5"/>
<text text-anchor="start" x="1186.62" y="-17" font-family="Helvetica,sans-Serif" font-size="10.00">sourcecode/dbe/src</text>
<text text-anchor="middle" x="1257.5" y="-5.75" font-family="Helvetica,sans-Serif" font-size="10.00">/structure/CustomTableView.cpp</text>
</a>
</g>
</g>
<!-- Node4&#45;&gt;Node9 -->
<g id="edge8_Node000004_Node000009" class="edge">
<title>Node4&#45;&gt;Node9</title>
<g id="a_edge8_Node000004_Node000009"><a xlink:title=" ">
<path fill="none" stroke="#63b8ff" d="M719.22,-75.38C819.58,-67.43 1008.96,-51.22 1169.5,-30.5 1172.42,-30.12 1175.38,-29.72 1178.38,-29.31"/>
<polygon fill="#63b8ff" stroke="#63b8ff" points="719.23,-71.87 709.53,-76.14 719.77,-78.85 719.23,-71.87"/>
</a>
</g>
</g>
<!-- Node10 -->
<g id="Node000010" class="node">
<title>Node10</title>
<g id="a_Node000010"><a xlink:href="FileModel_8cpp.html" target="_top" xlink:title=" ">
<polygon fill="white" stroke="#666666" points="691.62,-30.5 571.38,-30.5 571.38,0 691.62,0 691.62,-30.5"/>
<text text-anchor="start" x="579.38" y="-17" font-family="Helvetica,sans-Serif" font-size="10.00">sourcecode/dbe/src</text>
<text text-anchor="middle" x="631.5" y="-5.75" font-family="Helvetica,sans-Serif" font-size="10.00">/structure/FileModel.cpp</text>
</a>
</g>
</g>
<!-- Node4&#45;&gt;Node10 -->
<g id="edge9_Node000004_Node000010" class="edge">
<title>Node4&#45;&gt;Node10</title>
<g id="a_edge9_Node000004_Node000010"><a xlink:title=" ">
<path fill="none" stroke="#63b8ff" d="M641.74,-55.09C639.56,-46.84 637.23,-37.99 635.34,-30.83"/>
<polygon fill="#63b8ff" stroke="#63b8ff" points="638.32,-55.87 644.26,-64.65 645.09,-54.09 638.32,-55.87"/>
</a>
</g>
</g>
<!-- Node11 -->
<g id="Node000011" class="node">
<title>Node11</title>
<g id="a_Node000011"><a xlink:href="BatchChangeWidget_8cpp.html" target="_top" xlink:title=" ">
<polygon fill="white" stroke="#666666" points="871.62,-30.5 709.38,-30.5 709.38,0 871.62,0 871.62,-30.5"/>
<text text-anchor="start" x="717.38" y="-17" font-family="Helvetica,sans-Serif" font-size="10.00">sourcecode/dbe/src</text>
<text text-anchor="middle" x="790.5" y="-5.75" font-family="Helvetica,sans-Serif" font-size="10.00">/widgets/BatchChangeWidget.cpp</text>
</a>
</g>
</g>
<!-- Node4&#45;&gt;Node11 -->
<g id="edge10_Node000004_Node000011" class="edge">
<title>Node4&#45;&gt;Node11</title>
<g id="a_edge10_Node000004_Node000011"><a xlink:title=" ">
<path fill="none" stroke="#63b8ff" d="M690.96,-61.47C712.59,-51.64 738.46,-39.89 758.41,-30.83"/>
<polygon fill="#63b8ff" stroke="#63b8ff" points="689.76,-58.17 682.1,-65.49 692.65,-64.54 689.76,-58.17"/>
</a>
</g>
</g>
<!-- Node12 -->
<g id="Node000012" class="node">
<title>Node12</title>
<g id="a_Node000012"><a xlink:href="IncludeFileWidget_8cpp.html" target="_top" xlink:title=" ">
<polygon fill="white" stroke="#666666" points="1041,-30.5 890,-30.5 890,0 1041,0 1041,-30.5"/>
<text text-anchor="start" x="898" y="-17" font-family="Helvetica,sans-Serif" font-size="10.00">sourcecode/dbe/src</text>
<text text-anchor="middle" x="965.5" y="-5.75" font-family="Helvetica,sans-Serif" font-size="10.00">/widgets/IncludeFileWidget.cpp</text>
</a>
</g>
</g>
<!-- Node4&#45;&gt;Node12 -->
<g id="edge11_Node000004_Node000012" class="edge">
<title>Node4&#45;&gt;Node12</title>
<g id="a_edge11_Node000004_Node000012"><a xlink:title=" ">
<path fill="none" stroke="#63b8ff" d="M719.21,-66.36C770.95,-55.83 840.93,-41.6 893.07,-30.99"/>
<polygon fill="#63b8ff" stroke="#63b8ff" points="718.71,-62.89 709.61,-68.32 720.11,-69.75 718.71,-62.89"/>
</a>
</g>
</g>
<!-- Node13 -->
<g id="Node000013" class="node">
<title>Node13</title>
<g id="a_Node000013"><a xlink:href="ObjectEditor_8cpp.html" target="_top" xlink:title=" ">
<polygon fill="white" stroke="#666666" points="426,-30.5 299,-30.5 299,0 426,0 426,-30.5"/>
<text text-anchor="start" x="307" y="-17" font-family="Helvetica,sans-Serif" font-size="10.00">sourcecode/dbe/src</text>
<text text-anchor="middle" x="362.5" y="-5.75" font-family="Helvetica,sans-Serif" font-size="10.00">/widgets/ObjectEditor.cpp</text>
</a>
</g>
</g>
<!-- Node4&#45;&gt;Node13 -->
<g id="edge12_Node000004_Node000013" class="edge">
<title>Node4&#45;&gt;Node13</title>
<g id="a_edge12_Node000004_Node000013"><a xlink:title=" ">
<path fill="none" stroke="#63b8ff" d="M577.71,-64.79C531.31,-54.32 471.16,-40.76 426.25,-30.63"/>
<polygon fill="#63b8ff" stroke="#63b8ff" points="576.89,-68.19 587.42,-66.97 578.43,-61.36 576.89,-68.19"/>
</a>
</g>
</g>
<!-- Node16&#45;&gt;Node4 -->
<g id="edge17_Node000016_Node000004" class="edge">
<title>Node16&#45;&gt;Node4</title>
<g id="a_edge17_Node000016_Node000004"><a xlink:title=" ">
<path fill="none" stroke="#63b8ff" d="M532.69,-260.33C538.2,-242.64 546.7,-218.89 557.5,-199.5 579.89,-159.32 615.46,-118.25 634.83,-97.18"/>
<polygon fill="#63b8ff" stroke="#63b8ff" points="529.37,-259.19 529.86,-269.77 536.08,-261.19 529.37,-259.19"/>
</a>
</g>
</g>
<!-- Node16&#45;&gt;Node14 -->
<g id="edge18_Node000016_Node000014" class="edge">
<title>Node16&#45;&gt;Node14</title>
<g id="a_edge18_Node000016_Node000014"><a xlink:title=" ">
<path fill="none" stroke="#63b8ff" d="M497.37,-264.43C482.84,-253.35 465.48,-240.13 452.54,-230.26"/>
<polygon fill="#63b8ff" stroke="#63b8ff" points="495.16,-267.15 505.23,-270.43 499.4,-261.58 495.16,-267.15"/>
</a>
</g>
</g>
<!-- Node16&#45;&gt;Node15 -->
<g id="edge19_Node000016_Node000015" class="edge">
<title>Node16&#45;&gt;Node15</title>
<g id="a_edge19_Node000016_Node000015"><a xlink:title=" ">
<path fill="none" stroke="#63b8ff" d="M461.5,-268.14C419.45,-256.48 365.09,-241.41 325.47,-230.43"/>
<polygon fill="#63b8ff" stroke="#63b8ff" points="460.43,-271.47 471,-270.77 462.3,-264.73 460.43,-271.47"/>
</a>
</g>
</g>
<!-- Node16&#45;&gt;Node17 -->
<g id="edge20_Node000016_Node000017" class="edge">
<title>Node16&#45;&gt;Node17</title>
<g id="a_edge20_Node000016_Node000017"><a xlink:title=" ">
<path fill="none" stroke="#63b8ff" d="M553.63,-264.43C568.16,-253.35 585.52,-240.13 598.46,-230.26"/>
<polygon fill="#63b8ff" stroke="#63b8ff" points="551.6,-261.58 545.77,-270.43 555.84,-267.15 551.6,-261.58"/>
</a>
</g>
</g>
<!-- Node18 -->
<g id="Node000018" class="node">
<title>Node18</title>
<g id="a_Node000018"><a xlink:href="treeselection_8cpp.html" target="_top" xlink:title=" ">
<polygon fill="white" stroke="#666666" points="820.38,-230 686.62,-230 686.62,-199.5 820.38,-199.5 820.38,-230"/>
<text text-anchor="start" x="694.62" y="-216.5" font-family="Helvetica,sans-Serif" font-size="10.00">sourcecode/dbe/src</text>
<text text-anchor="middle" x="753.5" y="-205.25" font-family="Helvetica,sans-Serif" font-size="10.00">/structure/treeselection.cpp</text>
</a>
</g>
</g>
<!-- Node16&#45;&gt;Node18 -->
<g id="edge21_Node000016_Node000018" class="edge">
<title>Node16&#45;&gt;Node18</title>
<g id="a_edge21_Node000016_Node000018"><a xlink:title=" ">
<path fill="none" stroke="#63b8ff" d="M584.14,-267.84C621.9,-256.22 670.37,-241.32 705.77,-230.43"/>
<polygon fill="#63b8ff" stroke="#63b8ff" points="583.27,-264.44 574.74,-270.73 585.33,-271.14 583.27,-264.44"/>
</a>
</g>
</g>
<!-- Node19&#45;&gt;Node4 -->
<g id="edge23_Node000019_Node000004" class="edge">
<title>Node19&#45;&gt;Node4</title>
<g id="a_edge23_Node000019_Node000004"><a xlink:title=" ">
<path fill="none" stroke="#63b8ff" d="M768.19,-267.62C810.91,-252.84 853.51,-229.56 829.5,-199.5 784.28,-142.89 722.83,-213.61 670.5,-163.5 652.34,-146.11 648.68,-115.35 648.21,-97.23"/>
<polygon fill="#63b8ff" stroke="#63b8ff" points="767.21,-264.26 758.81,-270.72 769.4,-270.91 767.21,-264.26"/>
</a>
</g>
</g>
<!-- Node19&#45;&gt;Node14 -->
<g id="edge24_Node000019_Node000014" class="edge">
<title>Node19&#45;&gt;Node14</title>
<g id="a_edge24_Node000019_Node000014"><a xlink:title=" ">
<path fill="none" stroke="#63b8ff" d="M632.78,-268.29C588.49,-256.61 531.02,-241.46 489.19,-230.43"/>
<polygon fill="#63b8ff" stroke="#63b8ff" points="631.71,-271.62 642.27,-270.79 633.5,-264.86 631.71,-271.62"/>
</a>
</g>
</g>
<!-- Node19&#45;&gt;Node18 -->
<g id="edge25_Node000019_Node000018" class="edge">
<title>Node19&#45;&gt;Node18</title>
<g id="a_edge25_Node000019_Node000018"><a xlink:title=" ">
<path fill="none" stroke="#63b8ff" d="M717.49,-262.51C725.7,-251.85 735.16,-239.57 742.33,-230.26"/>
<polygon fill="#63b8ff" stroke="#63b8ff" points="714.94,-260.09 711.61,-270.15 720.49,-264.36 714.94,-260.09"/>
</a>
</g>
</g>
<!-- Node21 -->
<g id="Node000021" class="node">
<title>Node21</title>
<g id="a_Node000021"><a xlink:href="model__common__interface_8hpp.html" target="_top" xlink:title=" ">
<polygon fill="white" stroke="#666666" points="870.25,-374.25 702.75,-374.25 702.75,-343.75 870.25,-343.75 870.25,-374.25"/>
<text text-anchor="start" x="710.75" y="-360.75" font-family="Helvetica,sans-Serif" font-size="10.00">sourcecode/dbe/include</text>
<text text-anchor="middle" x="786.5" y="-349.5" font-family="Helvetica,sans-Serif" font-size="10.00">/dbe/model_common_interface.hpp</text>
</a>
</g>
</g>
<!-- Node20&#45;&gt;Node21 -->
<g id="edge28_Node000020_Node000021" class="edge">
<title>Node20&#45;&gt;Node21</title>
<g id="a_edge28_Node000020_Node000021"><a xlink:title=" ">
<path fill="none" stroke="#63b8ff" d="M779.96,-404.15C779.49,-394.14 779.81,-383.06 780.91,-374.51"/>
<polygon fill="#63b8ff" stroke="#63b8ff" points="776.47,-404.41 780.78,-414.09 783.44,-403.83 776.47,-404.41"/>
</a>
</g>
</g>
<!-- Node21&#45;&gt;Node3 -->
<g id="edge32_Node000021_Node000003" class="edge">
<title>Node21&#45;&gt;Node3</title>
<g id="a_edge32_Node000021_Node000003"><a xlink:title=" ">
<path fill="none" stroke="#63b8ff" d="M691.14,-343.86C596.11,-329.77 453.16,-308.58 373.16,-296.72"/>
<polygon fill="#63b8ff" stroke="#63b8ff" points="690.58,-347.32 700.98,-345.32 691.61,-340.39 690.58,-347.32"/>
</a>
</g>
</g>
<!-- Node21&#45;&gt;Node16 -->
<g id="edge49_Node000021_Node000016" class="edge">
<title>Node21&#45;&gt;Node16</title>
<g id="a_edge49_Node000021_Node000016"><a xlink:title=" ">
<path fill="none" stroke="#63b8ff" d="M720.76,-340.34C677.34,-328.67 621.1,-313.56 580.14,-302.56"/>
<polygon fill="#63b8ff" stroke="#63b8ff" points="719.76,-343.69 730.32,-342.91 721.57,-336.93 719.76,-343.69"/>
</a>
</g>
</g>
<!-- Node21&#45;&gt;Node19 -->
<g id="edge50_Node000021_Node000019" class="edge">
<title>Node21&#45;&gt;Node19</title>
<g id="a_edge50_Node000021_Node000019"><a xlink:title=" ">
<path fill="none" stroke="#63b8ff" d="M759.9,-336.56C746.15,-325.48 729.75,-312.25 717.5,-302.39"/>
<polygon fill="#63b8ff" stroke="#63b8ff" points="757.31,-338.97 767.3,-342.52 761.71,-333.52 757.31,-338.97"/>
</a>
</g>
</g>
<!-- Node21&#45;&gt;Node20 -->
<g id="edge31_Node000021_Node000020" class="edge">
<title>Node21&#45;&gt;Node20</title>
<g id="a_edge31_Node000021_Node000020"><a xlink:title=" ">
<path fill="none" stroke="#63b8ff" d="M793.04,-385.95C793.51,-395.96 793.19,-407.04 792.09,-415.6"/>
<polygon fill="#63b8ff" stroke="#63b8ff" points="796.53,-385.69 792.22,-376.02 789.56,-386.28 796.53,-385.69"/>
</a>
</g>
</g>
<!-- Node22 -->
<g id="Node000022" class="node">
<title>Node22</title>
<g id="a_Node000022"><a xlink:href="model__common__interface__macros_8hpp.html" target="_top" xlink:title=" ">
<polygon fill="white" stroke="#666666" points="1111.25,-307.75 961.75,-307.75 961.75,-266 1111.25,-266 1111.25,-307.75"/>
<text text-anchor="start" x="969.75" y="-294.25" font-family="Helvetica,sans-Serif" font-size="10.00">sourcecode/dbe/include</text>
<text text-anchor="start" x="969.75" y="-283" font-family="Helvetica,sans-Serif" font-size="10.00">/dbe/model_common_interface</text>
<text text-anchor="middle" x="1036.5" y="-271.75" font-family="Helvetica,sans-Serif" font-size="10.00">_macros.hpp</text>
</a>
</g>
</g>
<!-- Node21&#45;&gt;Node22 -->
<g id="edge29_Node000021_Node000022" class="edge">
<title>Node21&#45;&gt;Node22</title>
<g id="a_edge29_Node000021_Node000022"><a xlink:title=" ">
<path fill="none" stroke="#63b8ff" d="M844.24,-340.13C879.11,-330.07 923.86,-317.51 961.43,-307.22"/>
<polygon fill="#63b8ff" stroke="#63b8ff" points="843.38,-336.73 834.75,-342.88 845.33,-343.46 843.38,-336.73"/>
</a>
</g>
</g>
<!-- Node23 -->
<g id="Node000023" class="node">
<title>Node23</title>
<g id="a_Node000023"><a xlink:href="table_8hpp.html" target="_top" xlink:title=" ">
<polygon fill="white" stroke="#666666" points="1247.88,-302.12 1129.12,-302.12 1129.12,-271.62 1247.88,-271.62 1247.88,-302.12"/>
<text text-anchor="start" x="1137.12" y="-288.62" font-family="Helvetica,sans-Serif" font-size="10.00">sourcecode/dbe/include</text>
<text text-anchor="middle" x="1188.5" y="-277.38" font-family="Helvetica,sans-Serif" font-size="10.00">/dbe/table.hpp</text>
</a>
</g>
</g>
<!-- Node21&#45;&gt;Node23 -->
<g id="edge33_Node000021_Node000023" class="edge">
<title>Node21&#45;&gt;Node23</title>
<g id="a_edge33_Node000021_Node000023"><a xlink:title=" ">
<path fill="none" stroke="#63b8ff" d="M881.86,-347.13C949.01,-338.63 1040.79,-325.31 1120.5,-307.75 1127.23,-306.27 1134.26,-304.48 1141.15,-302.6"/>
<polygon fill="#63b8ff" stroke="#63b8ff" points="881.45,-343.65 871.96,-348.37 882.32,-350.6 881.45,-343.65"/>
</a>
</g>
</g>
<!-- Node26 -->
<g id="Node000026" class="node">
<title>Node26</title>
<g id="a_Node000026"><a xlink:href="tableselection_8hpp.html" target="_top" xlink:title=" ">
<polygon fill="white" stroke="#666666" points="1010.88,-230 892.12,-230 892.12,-199.5 1010.88,-199.5 1010.88,-230"/>
<text text-anchor="start" x="900.12" y="-216.5" font-family="Helvetica,sans-Serif" font-size="10.00">sourcecode/dbe/include</text>
<text text-anchor="middle" x="951.5" y="-205.25" font-family="Helvetica,sans-Serif" font-size="10.00">/dbe/tableselection.hpp</text>
</a>
</g>
</g>
<!-- Node21&#45;&gt;Node26 -->
<g id="edge48_Node000021_Node000026" class="edge">
<title>Node21&#45;&gt;Node26</title>
<g id="a_edge48_Node000021_Node000026"><a xlink:title=" ">
<path fill="none" stroke="#63b8ff" d="M785.29,-332.07C785.74,-311.77 789.64,-284.03 805.5,-266 827.28,-241.24 861.83,-228.68 891.86,-222.3"/>
<polygon fill="#63b8ff" stroke="#63b8ff" points="781.78,-331.83 785.35,-341.8 788.78,-331.78 781.78,-331.83"/>
</a>
</g>
</g>
<!-- Node30 -->
<g id="Node000030" class="node">
<title>Node30</title>
<g id="a_Node000030"><a xlink:href="model__common__interface_8cpp.html" target="_top" xlink:title=" ">
<polygon fill="white" stroke="#666666" points="944.12,-307.75 814.88,-307.75 814.88,-266 944.12,-266 944.12,-307.75"/>
<text text-anchor="start" x="822.88" y="-294.25" font-family="Helvetica,sans-Serif" font-size="10.00">sourcecode/dbe/src</text>
<text text-anchor="start" x="822.88" y="-283" font-family="Helvetica,sans-Serif" font-size="10.00">/structure/model_common</text>
<text text-anchor="middle" x="879.5" y="-271.75" font-family="Helvetica,sans-Serif" font-size="10.00">_interface.cpp</text>
</a>
</g>
</g>
<!-- Node21&#45;&gt;Node30 -->
<g id="edge51_Node000021_Node000030" class="edge">
<title>Node21&#45;&gt;Node30</title>
<g id="a_edge51_Node000021_Node000030"><a xlink:title=" ">
<path fill="none" stroke="#63b8ff" d="M814.88,-336.6C826.84,-327.58 840.69,-317.14 852.5,-308.24"/>
<polygon fill="#63b8ff" stroke="#63b8ff" points="812.86,-333.74 806.98,-342.56 817.07,-339.33 812.86,-333.74"/>
</a>
</g>
</g>
<!-- Node22&#45;&gt;Node21 -->
<g id="edge30_Node000022_Node000021" class="edge">
<title>Node22&#45;&gt;Node21</title>
<g id="a_edge30_Node000022_Node000021"><a xlink:title=" ">
<path fill="none" stroke="#63b8ff" d="M959.66,-311.23C922.55,-321.82 878.8,-334.01 844.52,-343.3"/>
<polygon fill="#63b8ff" stroke="#63b8ff" points="960.33,-314.67 968.98,-308.56 958.4,-307.94 960.33,-314.67"/>
</a>
</g>
</g>
<!-- Node23&#45;&gt;Node4 -->
<g id="edge39_Node000023_Node000004" class="edge">
<title>Node23&#45;&gt;Node4</title>
<g id="a_edge39_Node000023_Node000004"><a xlink:title=" ">
<path fill="none" stroke="#63b8ff" d="M1151.23,-265.59C1135.3,-255.96 1117.05,-243.58 1102.5,-230 1063.05,-193.19 1076.1,-160.2 1029.5,-133 976.27,-101.93 801.44,-89.53 708.24,-85.04"/>
<polygon fill="#63b8ff" stroke="#63b8ff" points="1149.1,-268.4 1159.5,-270.45 1152.65,-262.36 1149.1,-268.4"/>
</a>
</g>
</g>
<!-- Node24 -->
<g id="Node000024" class="node">
<title>Node24</title>
<g id="a_Node000024"><a xlink:href="CustomTableView_8hpp.html" target="_top" xlink:title=" ">
<polygon fill="white" stroke="#666666" points="1256.12,-230 1120.88,-230 1120.88,-199.5 1256.12,-199.5 1256.12,-230"/>
<text text-anchor="start" x="1128.88" y="-216.5" font-family="Helvetica,sans-Serif" font-size="10.00">sourcecode/dbe/include</text>
<text text-anchor="middle" x="1188.5" y="-205.25" font-family="Helvetica,sans-Serif" font-size="10.00">/dbe/CustomTableView.hpp</text>
</a>
</g>
</g>
<!-- Node23&#45;&gt;Node24 -->
<g id="edge34_Node000023_Node000024" class="edge">
<title>Node23&#45;&gt;Node24</title>
<g id="a_edge34_Node000023_Node000024"><a xlink:title=" ">
<path fill="none" stroke="#63b8ff" d="M1188.5,-259.9C1188.5,-249.89 1188.5,-238.81 1188.5,-230.26"/>
<polygon fill="#63b8ff" stroke="#63b8ff" points="1185,-259.83 1188.5,-269.83 1192,-259.83 1185,-259.83"/>
</a>
</g>
</g>
<!-- Node25 -->
<g id="Node000025" class="node">
<title>Node25</title>
<g id="a_Node000025"><a xlink:href="TableTab_8hpp.html" target="_top" xlink:title=" ">
<polygon fill="white" stroke="#666666" points="1194.88,-163.5 1076.12,-163.5 1076.12,-133 1194.88,-133 1194.88,-163.5"/>
<text text-anchor="start" x="1084.12" y="-150" font-family="Helvetica,sans-Serif" font-size="10.00">sourcecode/dbe/include</text>
<text text-anchor="middle" x="1135.5" y="-138.75" font-family="Helvetica,sans-Serif" font-size="10.00">/dbe/TableTab.hpp</text>
</a>
</g>
</g>
<!-- Node23&#45;&gt;Node25 -->
<g id="edge40_Node000023_Node000025" class="edge">
<title>Node23&#45;&gt;Node25</title>
<g id="a_edge40_Node000023_Node000025"><a xlink:title=" ">
<path fill="none" stroke="#63b8ff" d="M1145.84,-265.25C1132.33,-256.41 1118.99,-244.68 1111.5,-230 1100.41,-208.24 1114,-180.51 1124.79,-163.85"/>
<polygon fill="#63b8ff" stroke="#63b8ff" points="1143.96,-268.2 1154.32,-270.4 1147.59,-262.22 1143.96,-268.2"/>
</a>
</g>
</g>
<!-- Node23&#45;&gt;Node26 -->
<g id="edge41_Node000023_Node000026" class="edge">
<title>Node23&#45;&gt;Node26</title>
<g id="a_edge41_Node000023_Node000026"><a xlink:title=" ">
<path fill="none" stroke="#63b8ff" d="M1127.79,-267.91C1088.51,-256.29 1038,-241.34 1001.12,-230.43"/>
<polygon fill="#63b8ff" stroke="#63b8ff" points="1126.78,-271.26 1137.37,-270.75 1128.77,-264.55 1126.78,-271.26"/>
</a>
</g>
</g>
<!-- Node23&#45;&gt;Node29 -->
<g id="edge47_Node000023_Node000029" class="edge">
<title>Node23&#45;&gt;Node29</title>
<g id="a_edge47_Node000023_Node000029"><a xlink:title=" ">
<path fill="none" stroke="#63b8ff" d="M1227.01,-266.02C1248.96,-254.7 1276,-240.76 1296.03,-230.43"/>
<polygon fill="#63b8ff" stroke="#63b8ff" points="1225.64,-262.79 1218.36,-270.48 1228.85,-269.01 1225.64,-262.79"/>
</a>
</g>
</g>
<!-- Node24&#45;&gt;Node9 -->
<g id="edge38_Node000024_Node000009" class="edge">
<title>Node24&#45;&gt;Node9</title>
<g id="a_edge38_Node000024_Node000009"><a xlink:title=" ">
<path fill="none" stroke="#63b8ff" d="M1215.63,-191.36C1223.59,-183.39 1231.49,-173.81 1236.5,-163.5 1258.16,-118.9 1259.14,-58.37 1258.28,-30.9"/>
<polygon fill="#63b8ff" stroke="#63b8ff" points="1213.44,-188.61 1208.54,-198.01 1218.23,-193.72 1213.44,-188.61"/>
</a>
</g>
</g>
<!-- Node24&#45;&gt;Node25 -->
<g id="edge35_Node000024_Node000025" class="edge">
<title>Node24&#45;&gt;Node25</title>
<g id="a_edge35_Node000024_Node000025"><a xlink:title=" ">
<path fill="none" stroke="#63b8ff" d="M1169.27,-190.35C1161.99,-181.48 1153.91,-171.65 1147.48,-163.83"/>
<polygon fill="#63b8ff" stroke="#63b8ff" points="1166.46,-192.44 1175.51,-197.94 1171.87,-188 1166.46,-192.44"/>
</a>
</g>
</g>
<!-- Node25&#45;&gt;Node4 -->
<g id="edge36_Node000025_Node000004" class="edge">
<title>Node25&#45;&gt;Node4</title>
<g id="a_edge36_Node000025_Node000004"><a xlink:title=" ">
<path fill="none" stroke="#63b8ff" d="M1064.54,-133.33C1063.86,-133.22 1063.18,-133.11 1062.5,-133 936.99,-113.16 789,-96.91 708.33,-88.65"/>
<polygon fill="#63b8ff" stroke="#63b8ff" points="1063.87,-136.76 1074.31,-134.98 1065.04,-129.86 1063.87,-136.76"/>
</a>
</g>
</g>
<!-- Node25&#45;&gt;Node6 -->
<g id="edge37_Node000025_Node000006" class="edge">
<title>Node25&#45;&gt;Node6</title>
<g id="a_edge37_Node000025_Node000006"><a xlink:title=" ">
<path fill="none" stroke="#63b8ff" d="M1130.45,-121.79C1125.07,-94.71 1116.76,-52.81 1112.39,-30.83"/>
<polygon fill="#63b8ff" stroke="#63b8ff" points="1126.94,-122.12 1132.32,-131.25 1133.81,-120.76 1126.94,-122.12"/>
</a>
</g>
</g>
<!-- Node26&#45;&gt;Node4 -->
<g id="edge42_Node000026_Node000004" class="edge">
<title>Node26&#45;&gt;Node4</title>
<g id="a_edge42_Node000026_Node000004"><a xlink:title=" ">
<path fill="none" stroke="#63b8ff" d="M880.83,-202.05C813.47,-190.45 720.17,-173.09 705.5,-163.5 680.51,-147.17 663.16,-115.73 654.6,-97.27"/>
<polygon fill="#63b8ff" stroke="#63b8ff" points="879.88,-205.44 890.33,-203.67 881.06,-198.54 879.88,-205.44"/>
</a>
</g>
</g>
<!-- Node26&#45;&gt;Node9 -->
<g id="edge45_Node000026_Node000009" class="edge">
<title>Node26&#45;&gt;Node9</title>
<g id="a_edge45_Node000026_Node000009"><a xlink:title=" ">
<path fill="none" stroke="#63b8ff" d="M1022.52,-207.34C1087.26,-200.15 1176.77,-186.39 1203.5,-163.5 1224.39,-145.61 1245.93,-64.27 1254.09,-30.75"/>
<polygon fill="#63b8ff" stroke="#63b8ff" points="1022.22,-203.85 1012.65,-208.41 1022.97,-210.81 1022.22,-203.85"/>
</a>
</g>
</g>
<!-- Node26&#45;&gt;Node25 -->
<g id="edge43_Node000026_Node000025" class="edge">
<title>Node26&#45;&gt;Node25</title>
<g id="a_edge43_Node000026_Node000025"><a xlink:title=" ">
<path fill="none" stroke="#63b8ff" d="M1003.82,-195.41C1032.26,-185.44 1066.96,-173.28 1093.59,-163.94"/>
<polygon fill="#63b8ff" stroke="#63b8ff" points="1002.96,-192 994.68,-198.61 1005.28,-198.61 1002.96,-192"/>
</a>
</g>
</g>
<!-- Node27 -->
<g id="Node000027" class="node">
<title>Node27</title>
<g id="a_Node000027"><a xlink:href="CustomDelegate_8cpp.html" target="_top" xlink:title=" ">
<polygon fill="white" stroke="#666666" points="864.62,-163.5 714.38,-163.5 714.38,-133 864.62,-133 864.62,-163.5"/>
<text text-anchor="start" x="722.38" y="-150" font-family="Helvetica,sans-Serif" font-size="10.00">sourcecode/dbe/src</text>
<text text-anchor="middle" x="789.5" y="-138.75" font-family="Helvetica,sans-Serif" font-size="10.00">/structure/CustomDelegate.cpp</text>
</a>
</g>
</g>
<!-- Node26&#45;&gt;Node27 -->
<g id="edge44_Node000026_Node000027" class="edge">
<title>Node26&#45;&gt;Node27</title>
<g id="a_edge44_Node000026_Node000027"><a xlink:title=" ">
<path fill="none" stroke="#63b8ff" d="M904.11,-194.88C879.32,-185.01 849.43,-173.11 826.39,-163.94"/>
<polygon fill="#63b8ff" stroke="#63b8ff" points="902.75,-198.11 913.33,-198.55 905.34,-191.6 902.75,-198.11"/>
</a>
</g>
</g>
<!-- Node28 -->
<g id="Node000028" class="node">
<title>Node28</title>
<g id="a_Node000028"><a xlink:href="tableselection_8cpp.html" target="_top" xlink:title=" ">
<polygon fill="white" stroke="#666666" points="1020.62,-163.5 882.38,-163.5 882.38,-133 1020.62,-133 1020.62,-163.5"/>
<text text-anchor="start" x="890.38" y="-150" font-family="Helvetica,sans-Serif" font-size="10.00">sourcecode/dbe/src</text>
<text text-anchor="middle" x="951.5" y="-138.75" font-family="Helvetica,sans-Serif" font-size="10.00">/structure/tableselection.cpp</text>
</a>
</g>
</g>
<!-- Node26&#45;&gt;Node28 -->
<g id="edge46_Node000026_Node000028" class="edge">
<title>Node26&#45;&gt;Node28</title>
<g id="a_edge46_Node000026_Node000028"><a xlink:title=" ">
<path fill="none" stroke="#63b8ff" d="M951.5,-187.81C951.5,-179.64 951.5,-170.91 951.5,-163.83"/>
<polygon fill="#63b8ff" stroke="#63b8ff" points="948,-187.6 951.5,-197.6 955,-187.6 948,-187.6"/>
</a>
</g>
</g>
</g>
</svg>
