<?xml version="1.0" encoding="UTF-8" standalone="no"?>
<!DOCTYPE svg PUBLIC "-//W3C//DTD SVG 1.1//EN"
 "http://www.w3.org/Graphics/SVG/1.1/DTD/svg11.dtd">
<!-- Generated by graphviz version 9.0.0 (20230911.1827)
 -->
<!-- Title: sourcecode/triggeralgs/include/triggeralgs/TriggerCandidateMaker.hpp Pages: 1 -->
<svg width="1542pt" height="294pt"
 viewBox="0.00 0.00 1541.50 294.25" xmlns="http://www.w3.org/2000/svg" xmlns:xlink="http://www.w3.org/1999/xlink">
<g id="graph0" class="graph" transform="scale(1 1) rotate(0) translate(4 290.25)">
<title>sourcecode/triggeralgs/include/triggeralgs/TriggerCandidateMaker.hpp</title>
<!-- Node1 -->
<g id="Node000001" class="node">
<title>Node1</title>
<g id="a_Node000001"><a xlink:title=" ">
<polygon fill="#999999" stroke="#666666" points="210.62,-286.25 79.88,-286.25 79.88,-244.5 210.62,-244.5 210.62,-286.25"/>
<text text-anchor="start" x="87.88" y="-272.75" font-family="Helvetica,sans-Serif" font-size="10.00">sourcecode/triggeralgs</text>
<text text-anchor="start" x="87.88" y="-261.5" font-family="Helvetica,sans-Serif" font-size="10.00">/include/triggeralgs/Trigger</text>
<text text-anchor="middle" x="145.25" y="-250.25" font-family="Helvetica,sans-Serif" font-size="10.00">CandidateMaker.hpp</text>
</a>
</g>
</g>
<!-- Node2 -->
<g id="Node000002" class="node">
<title>Node2</title>
<g id="a_Node000002"><a xlink:href="TAProcessor_8cpp.html" target="_top" xlink:title=" ">
<polygon fill="white" stroke="#666666" points="110.5,-36.12 0,-36.12 0,-5.62 110.5,-5.62 110.5,-36.12"/>
<text text-anchor="start" x="8" y="-22.62" font-family="Helvetica,sans-Serif" font-size="10.00">sourcecode/trigger</text>
<text text-anchor="middle" x="55.25" y="-11.38" font-family="Helvetica,sans-Serif" font-size="10.00">/src/TAProcessor.cpp</text>
</a>
</g>
</g>
<!-- Node1&#45;&gt;Node2 -->
<g id="edge1_Node000001_Node000002" class="edge">
<title>Node1&#45;&gt;Node2</title>
<g id="a_edge1_Node000001_Node000002"><a xlink:title=" ">
<path fill="none" stroke="#63b8ff" d="M93.06,-237.55C82.46,-229.65 72.62,-219.97 66.25,-208.5 34.73,-151.75 45.75,-69.77 52.07,-36.61"/>
<polygon fill="#63b8ff" stroke="#63b8ff" points="91.03,-240.4 101.25,-243.18 94.99,-234.63 91.03,-240.4"/>
</a>
</g>
</g>
<!-- Node3 -->
<g id="Node000003" class="node">
<title>Node3</title>
<g id="a_Node000003"><a xlink:href="TAProcessor_8hpp.html" target="_top" xlink:title=" ">
<polygon fill="white" stroke="#666666" points="215.5,-202.88 75,-202.88 75,-172.38 215.5,-172.38 215.5,-202.88"/>
<text text-anchor="start" x="83" y="-189.38" font-family="Helvetica,sans-Serif" font-size="10.00">sourcecode/trigger</text>
<text text-anchor="middle" x="145.25" y="-178.12" font-family="Helvetica,sans-Serif" font-size="10.00">/src/trigger/TAProcessor.hpp</text>
</a>
</g>
</g>
<!-- Node1&#45;&gt;Node3 -->
<g id="edge2_Node000001_Node000003" class="edge">
<title>Node1&#45;&gt;Node3</title>
<g id="a_edge2_Node000001_Node000003"><a xlink:title=" ">
<path fill="none" stroke="#63b8ff" d="M145.25,-232.81C145.25,-222.44 145.25,-211.42 145.25,-202.98"/>
<polygon fill="#63b8ff" stroke="#63b8ff" points="141.75,-232.56 145.25,-242.56 148.75,-232.56 141.75,-232.56"/>
</a>
</g>
</g>
<!-- Node4 -->
<g id="Node000004" class="node">
<title>Node4</title>
<g id="a_Node000004"><a xlink:href="TriggerCandidateFactory_8hpp.html" target="_top" xlink:title=" ">
<polygon fill="white" stroke="#666666" points="742.62,-208.5 611.88,-208.5 611.88,-166.75 742.62,-166.75 742.62,-208.5"/>
<text text-anchor="start" x="619.88" y="-195" font-family="Helvetica,sans-Serif" font-size="10.00">sourcecode/triggeralgs</text>
<text text-anchor="start" x="619.88" y="-183.75" font-family="Helvetica,sans-Serif" font-size="10.00">/include/triggeralgs/Trigger</text>
<text text-anchor="middle" x="677.25" y="-172.5" font-family="Helvetica,sans-Serif" font-size="10.00">CandidateFactory.hpp</text>
</a>
</g>
</g>
<!-- Node1&#45;&gt;Node4 -->
<g id="edge4_Node000001_Node000004" class="edge">
<title>Node1&#45;&gt;Node4</title>
<g id="a_edge4_Node000001_Node000004"><a xlink:title=" ">
<path fill="none" stroke="#63b8ff" d="M222.15,-253.43C326.99,-238.5 513.01,-212.01 611.63,-197.97"/>
<polygon fill="#63b8ff" stroke="#63b8ff" points="221.92,-249.92 212.52,-254.8 222.91,-256.85 221.92,-249.92"/>
</a>
</g>
</g>
<!-- Node3&#45;&gt;Node2 -->
<g id="edge3_Node000003_Node000002" class="edge">
<title>Node3&#45;&gt;Node2</title>
<g id="a_edge3_Node000003_Node000002"><a xlink:title=" ">
<path fill="none" stroke="#63b8ff" d="M126.24,-163.04C118.89,-153.35 110.71,-141.82 104.25,-130.75 85.45,-98.52 68.86,-57.79 60.67,-36.44"/>
<polygon fill="#63b8ff" stroke="#63b8ff" points="123.4,-165.08 132.29,-170.84 128.92,-160.79 123.4,-165.08"/>
</a>
</g>
</g>
<!-- Node5 -->
<g id="Node000005" class="node">
<title>Node5</title>
<g id="a_Node000005"><a xlink:href="AlgorithmPlugins_8hpp.html" target="_top" xlink:title=" ">
<polygon fill="white" stroke="#666666" points="237.25,-125.12 113.25,-125.12 113.25,-83.38 237.25,-83.38 237.25,-125.12"/>
<text text-anchor="start" x="121.25" y="-111.62" font-family="Helvetica,sans-Serif" font-size="10.00">sourcecode/trigger</text>
<text text-anchor="start" x="121.25" y="-100.38" font-family="Helvetica,sans-Serif" font-size="10.00">/include/trigger/Algorithm</text>
<text text-anchor="middle" x="175.25" y="-89.12" font-family="Helvetica,sans-Serif" font-size="10.00">Plugins.hpp</text>
</a>
</g>
</g>
<!-- Node4&#45;&gt;Node5 -->
<g id="edge5_Node000004_Node000005" class="edge">
<title>Node4&#45;&gt;Node5</title>
<g id="a_edge5_Node000004_Node000005"><a xlink:title=" ">
<path fill="none" stroke="#63b8ff" d="M600.11,-181.67C513.16,-174.92 368.04,-160.15 246.25,-130.75 240.27,-129.31 234.09,-127.53 227.98,-125.6"/>
<polygon fill="#63b8ff" stroke="#63b8ff" points="599.72,-185.15 609.95,-182.41 600.25,-178.17 599.72,-185.15"/>
</a>
</g>
</g>
<!-- Node7 -->
<g id="Node000007" class="node">
<title>Node7</title>
<g id="a_Node000007"><a xlink:href="TriggerCandidateMakerADCSimpleWindow_8hpp.html" target="_top" xlink:title=" ">
<polygon fill="white" stroke="#666666" points="459.38,-130.75 255.12,-130.75 255.12,-77.75 459.38,-77.75 459.38,-130.75"/>
<text text-anchor="start" x="263.12" y="-117.25" font-family="Helvetica,sans-Serif" font-size="10.00">sourcecode/triggeralgs</text>
<text text-anchor="start" x="263.12" y="-106" font-family="Helvetica,sans-Serif" font-size="10.00">/include/triggeralgs/ADCSimple</text>
<text text-anchor="start" x="263.12" y="-94.75" font-family="Helvetica,sans-Serif" font-size="10.00">Window/TriggerCandidateMakerADCSimple</text>
<text text-anchor="middle" x="357.25" y="-83.5" font-family="Helvetica,sans-Serif" font-size="10.00">Window.hpp</text>
</a>
</g>
</g>
<!-- Node4&#45;&gt;Node7 -->
<g id="edge8_Node000004_Node000007" class="edge">
<title>Node4&#45;&gt;Node7</title>
<g id="a_edge8_Node000004_Node000007"><a xlink:title=" ">
<path fill="none" stroke="#63b8ff" d="M600.64,-167.14C558.27,-156.37 505.08,-142.84 459.24,-131.19"/>
<polygon fill="#63b8ff" stroke="#63b8ff" points="599.7,-170.52 610.25,-169.59 601.43,-163.73 599.7,-170.52"/>
</a>
</g>
</g>
<!-- Node9 -->
<g id="Node000009" class="node">
<title>Node9</title>
<g id="a_Node000009"><a xlink:href="TriggerCandidateMakerHorizontalMuon_8hpp.html" target="_top" xlink:title=" ">
<polygon fill="white" stroke="#666666" points="664.75,-130.75 477.75,-130.75 477.75,-77.75 664.75,-77.75 664.75,-130.75"/>
<text text-anchor="start" x="485.75" y="-117.25" font-family="Helvetica,sans-Serif" font-size="10.00">sourcecode/triggeralgs</text>
<text text-anchor="start" x="485.75" y="-106" font-family="Helvetica,sans-Serif" font-size="10.00">/include/triggeralgs/Horizontal</text>
<text text-anchor="start" x="485.75" y="-94.75" font-family="Helvetica,sans-Serif" font-size="10.00">Muon/TriggerCandidateMakerHorizontal</text>
<text text-anchor="middle" x="571.25" y="-83.5" font-family="Helvetica,sans-Serif" font-size="10.00">Muon.hpp</text>
</a>
</g>
</g>
<!-- Node4&#45;&gt;Node9 -->
<g id="edge10_Node000004_Node000009" class="edge">
<title>Node4&#45;&gt;Node9</title>
<g id="a_edge10_Node000004_Node000009"><a xlink:title=" ">
<path fill="none" stroke="#63b8ff" d="M641.97,-159.54C630.06,-150.4 616.79,-140.21 605,-131.16"/>
<polygon fill="#63b8ff" stroke="#63b8ff" points="639.51,-162.07 649.57,-165.38 643.77,-156.51 639.51,-162.07"/>
</a>
</g>
</g>
<!-- Node11 -->
<g id="Node000011" class="node">
<title>Node11</title>
<g id="a_Node000011"><a xlink:href="TriggerCandidateMakerMichelElectron_8hpp.html" target="_top" xlink:title=" ">
<polygon fill="white" stroke="#666666" points="883.88,-125.12 682.62,-125.12 682.62,-83.38 883.88,-83.38 883.88,-125.12"/>
<text text-anchor="start" x="690.62" y="-111.62" font-family="Helvetica,sans-Serif" font-size="10.00">sourcecode/triggeralgs</text>
<text text-anchor="start" x="690.62" y="-100.38" font-family="Helvetica,sans-Serif" font-size="10.00">/include/triggeralgs/MichelElectron</text>
<text text-anchor="middle" x="783.25" y="-89.12" font-family="Helvetica,sans-Serif" font-size="10.00">/TriggerCandidateMakerMichelElectron.hpp</text>
</a>
</g>
</g>
<!-- Node4&#45;&gt;Node11 -->
<g id="edge12_Node000004_Node000011" class="edge">
<title>Node4&#45;&gt;Node11</title>
<g id="a_edge12_Node000004_Node000011"><a xlink:title=" ">
<path fill="none" stroke="#63b8ff" d="M712.83,-159.31C727.19,-148.29 743.46,-135.8 756.75,-125.6"/>
<polygon fill="#63b8ff" stroke="#63b8ff" points="710.73,-156.51 704.93,-165.38 714.99,-162.07 710.73,-156.51"/>
</a>
</g>
</g>
<!-- Node13 -->
<g id="Node000013" class="node">
<title>Node13</title>
<g id="a_Node000013"><a xlink:href="TriggerCandidateMakerPlaneCoincidence_8hpp.html" target="_top" xlink:title=" ">
<polygon fill="white" stroke="#666666" points="1117,-125.12 901.5,-125.12 901.5,-83.38 1117,-83.38 1117,-125.12"/>
<text text-anchor="start" x="909.5" y="-111.62" font-family="Helvetica,sans-Serif" font-size="10.00">sourcecode/triggeralgs</text>
<text text-anchor="start" x="909.5" y="-100.38" font-family="Helvetica,sans-Serif" font-size="10.00">/include/triggeralgs/PlaneCoincidence</text>
<text text-anchor="middle" x="1009.25" y="-89.12" font-family="Helvetica,sans-Serif" font-size="10.00">/TriggerCandidateMakerPlaneCoincidence.hpp</text>
</a>
</g>
</g>
<!-- Node4&#45;&gt;Node13 -->
<g id="edge14_Node000004_Node000013" class="edge">
<title>Node4&#45;&gt;Node13</title>
<g id="a_edge14_Node000004_Node000013"><a xlink:title=" ">
<path fill="none" stroke="#63b8ff" d="M753.93,-167.83C805.53,-155.18 873.55,-138.51 926.4,-125.56"/>
<polygon fill="#63b8ff" stroke="#63b8ff" points="753.19,-164.41 744.31,-170.19 754.86,-171.21 753.19,-164.41"/>
</a>
</g>
</g>
<!-- Node15 -->
<g id="Node000015" class="node">
<title>Node15</title>
<g id="a_Node000015"><a xlink:href="TriggerCandidateMakerPrescale_8hpp.html" target="_top" xlink:title=" ">
<polygon fill="white" stroke="#666666" points="1311.12,-125.12 1135.38,-125.12 1135.38,-83.38 1311.12,-83.38 1311.12,-125.12"/>
<text text-anchor="start" x="1143.38" y="-111.62" font-family="Helvetica,sans-Serif" font-size="10.00">sourcecode/triggeralgs</text>
<text text-anchor="start" x="1143.38" y="-100.38" font-family="Helvetica,sans-Serif" font-size="10.00">/include/triggeralgs/Prescale</text>
<text text-anchor="middle" x="1223.25" y="-89.12" font-family="Helvetica,sans-Serif" font-size="10.00">/TriggerCandidateMakerPrescale.hpp</text>
</a>
</g>
</g>
<!-- Node4&#45;&gt;Node15 -->
<g id="edge16_Node000004_Node000015" class="edge">
<title>Node4&#45;&gt;Node15</title>
<g id="a_edge16_Node000004_Node000015"><a xlink:title=" ">
<path fill="none" stroke="#63b8ff" d="M754.56,-180.16C844.43,-171.92 996.94,-155.68 1126.25,-130.75 1134.03,-129.25 1142.11,-127.48 1150.13,-125.58"/>
<polygon fill="#63b8ff" stroke="#63b8ff" points="754.27,-176.67 744.62,-181.06 754.9,-183.64 754.27,-176.67"/>
</a>
</g>
</g>
<!-- Node17 -->
<g id="Node000017" class="node">
<title>Node17</title>
<g id="a_Node000017"><a xlink:href="TriggerCandidateMakerSupernova_8hpp.html" target="_top" xlink:title=" ">
<polygon fill="white" stroke="#666666" points="1521.25,-125.12 1337.25,-125.12 1337.25,-83.38 1521.25,-83.38 1521.25,-125.12"/>
<text text-anchor="start" x="1345.25" y="-111.62" font-family="Helvetica,sans-Serif" font-size="10.00">sourcecode/triggeralgs</text>
<text text-anchor="start" x="1345.25" y="-100.38" font-family="Helvetica,sans-Serif" font-size="10.00">/include/triggeralgs/Supernova</text>
<text text-anchor="middle" x="1429.25" y="-89.12" font-family="Helvetica,sans-Serif" font-size="10.00">/TriggerCandidateMakerSupernova.hpp</text>
</a>
</g>
</g>
<!-- Node4&#45;&gt;Node17 -->
<g id="edge18_Node000004_Node000017" class="edge">
<title>Node4&#45;&gt;Node17</title>
<g id="a_edge18_Node000004_Node000017"><a xlink:title=" ">
<path fill="none" stroke="#63b8ff" d="M754.22,-183.5C875.3,-177.79 1117.38,-163.12 1320.25,-130.75 1329.27,-129.31 1338.65,-127.54 1347.96,-125.61"/>
<polygon fill="#63b8ff" stroke="#63b8ff" points="754.23,-180 744.4,-183.96 754.55,-186.99 754.23,-180"/>
</a>
</g>
</g>
<!-- Node5&#45;&gt;Node2 -->
<g id="edge6_Node000005_Node000002" class="edge">
<title>Node5&#45;&gt;Node2</title>
<g id="a_edge6_Node000005_Node000002"><a xlink:title=" ">
<path fill="none" stroke="#63b8ff" d="M135.96,-76.61C116.33,-63.3 93.34,-47.71 76.93,-36.58"/>
<polygon fill="#63b8ff" stroke="#63b8ff" points="133.78,-79.36 144.03,-82.08 137.71,-73.57 133.78,-79.36"/>
</a>
</g>
</g>
<!-- Node6 -->
<g id="Node000006" class="node">
<title>Node6</title>
<g id="a_Node000006"><a xlink:href="TPProcessor_8cpp.html" target="_top" xlink:title=" ">
<polygon fill="white" stroke="#666666" points="239.5,-36.12 129,-36.12 129,-5.62 239.5,-5.62 239.5,-36.12"/>
<text text-anchor="start" x="137" y="-22.62" font-family="Helvetica,sans-Serif" font-size="10.00">sourcecode/trigger</text>
<text text-anchor="middle" x="184.25" y="-11.38" font-family="Helvetica,sans-Serif" font-size="10.00">/src/TPProcessor.cpp</text>
</a>
</g>
</g>
<!-- Node5&#45;&gt;Node6 -->
<g id="edge7_Node000005_Node000006" class="edge">
<title>Node5&#45;&gt;Node6</title>
<g id="a_edge7_Node000005_Node000006"><a xlink:title=" ">
<path fill="none" stroke="#63b8ff" d="M178.71,-71.93C180.07,-59.69 181.55,-46.26 182.64,-36.4"/>
<polygon fill="#63b8ff" stroke="#63b8ff" points="175.26,-71.31 177.64,-81.63 182.22,-72.08 175.26,-71.31"/>
</a>
</g>
</g>
<!-- Node8 -->
<g id="Node000008" class="node">
<title>Node8</title>
<g id="a_Node000008"><a xlink:href="TriggerCandidateMakerADCSimpleWindow_8cpp.html" target="_top" xlink:title=" ">
<polygon fill="white" stroke="#666666" points="450.38,-41.75 264.12,-41.75 264.12,0 450.38,0 450.38,-41.75"/>
<text text-anchor="start" x="272.12" y="-28.25" font-family="Helvetica,sans-Serif" font-size="10.00">sourcecode/triggeralgs</text>
<text text-anchor="start" x="272.12" y="-17" font-family="Helvetica,sans-Serif" font-size="10.00">/src/TriggerCandidateMakerADCSimple</text>
<text text-anchor="middle" x="357.25" y="-5.75" font-family="Helvetica,sans-Serif" font-size="10.00">Window.cpp</text>
</a>
</g>
</g>
<!-- Node7&#45;&gt;Node8 -->
<g id="edge9_Node000007_Node000008" class="edge">
<title>Node7&#45;&gt;Node8</title>
<g id="a_edge9_Node000007_Node000008"><a xlink:title=" ">
<path fill="none" stroke="#63b8ff" d="M357.25,-66.08C357.25,-57.8 357.25,-49.33 357.25,-42.04"/>
<polygon fill="#63b8ff" stroke="#63b8ff" points="353.75,-65.99 357.25,-75.99 360.75,-65.99 353.75,-65.99"/>
</a>
</g>
</g>
<!-- Node10 -->
<g id="Node000010" class="node">
<title>Node10</title>
<g id="a_Node000010"><a xlink:href="TriggerCandidateMakerHorizontalMuon_8cpp.html" target="_top" xlink:title=" ">
<polygon fill="white" stroke="#666666" points="661,-41.75 481.5,-41.75 481.5,0 661,0 661,-41.75"/>
<text text-anchor="start" x="489.5" y="-28.25" font-family="Helvetica,sans-Serif" font-size="10.00">sourcecode/triggeralgs</text>
<text text-anchor="start" x="489.5" y="-17" font-family="Helvetica,sans-Serif" font-size="10.00">/src/TriggerCandidateMakerHorizontal</text>
<text text-anchor="middle" x="571.25" y="-5.75" font-family="Helvetica,sans-Serif" font-size="10.00">Muon.cpp</text>
</a>
</g>
</g>
<!-- Node9&#45;&gt;Node10 -->
<g id="edge11_Node000009_Node000010" class="edge">
<title>Node9&#45;&gt;Node10</title>
<g id="a_edge11_Node000009_Node000010"><a xlink:title=" ">
<path fill="none" stroke="#63b8ff" d="M571.25,-66.08C571.25,-57.8 571.25,-49.33 571.25,-42.04"/>
<polygon fill="#63b8ff" stroke="#63b8ff" points="567.75,-65.99 571.25,-75.99 574.75,-65.99 567.75,-65.99"/>
</a>
</g>
</g>
<!-- Node12 -->
<g id="Node000012" class="node">
<title>Node12</title>
<g id="a_Node000012"><a xlink:href="TriggerCandidateMakerMichelElectron_8cpp.html" target="_top" xlink:title=" ">
<polygon fill="white" stroke="#666666" points="865.5,-41.75 701,-41.75 701,0 865.5,0 865.5,-41.75"/>
<text text-anchor="start" x="709" y="-28.25" font-family="Helvetica,sans-Serif" font-size="10.00">sourcecode/triggeralgs</text>
<text text-anchor="start" x="709" y="-17" font-family="Helvetica,sans-Serif" font-size="10.00">/src/TriggerCandidateMakerMichel</text>
<text text-anchor="middle" x="783.25" y="-5.75" font-family="Helvetica,sans-Serif" font-size="10.00">Electron.cpp</text>
</a>
</g>
</g>
<!-- Node11&#45;&gt;Node12 -->
<g id="edge13_Node000011_Node000012" class="edge">
<title>Node11&#45;&gt;Node12</title>
<g id="a_edge13_Node000011_Node000012"><a xlink:title=" ">
<path fill="none" stroke="#63b8ff" d="M783.25,-71.89C783.25,-61.87 783.25,-51.05 783.25,-42.04"/>
<polygon fill="#63b8ff" stroke="#63b8ff" points="779.75,-71.62 783.25,-81.62 786.75,-71.62 779.75,-71.62"/>
</a>
</g>
</g>
<!-- Node14 -->
<g id="Node000014" class="node">
<title>Node14</title>
<g id="a_Node000014"><a xlink:href="TriggerCandidateMakerPlaneCoincidence_8cpp.html" target="_top" xlink:title=" ">
<polygon fill="white" stroke="#666666" points="1089.62,-41.75 928.88,-41.75 928.88,0 1089.62,0 1089.62,-41.75"/>
<text text-anchor="start" x="936.88" y="-28.25" font-family="Helvetica,sans-Serif" font-size="10.00">sourcecode/triggeralgs</text>
<text text-anchor="start" x="936.88" y="-17" font-family="Helvetica,sans-Serif" font-size="10.00">/src/TriggerCandidateMakerPlane</text>
<text text-anchor="middle" x="1009.25" y="-5.75" font-family="Helvetica,sans-Serif" font-size="10.00">Coincidence.cpp</text>
</a>
</g>
</g>
<!-- Node13&#45;&gt;Node14 -->
<g id="edge15_Node000013_Node000014" class="edge">
<title>Node13&#45;&gt;Node14</title>
<g id="a_edge15_Node000013_Node000014"><a xlink:title=" ">
<path fill="none" stroke="#63b8ff" d="M1009.25,-71.89C1009.25,-61.87 1009.25,-51.05 1009.25,-42.04"/>
<polygon fill="#63b8ff" stroke="#63b8ff" points="1005.75,-71.62 1009.25,-81.62 1012.75,-71.62 1005.75,-71.62"/>
</a>
</g>
</g>
<!-- Node16 -->
<g id="Node000016" class="node">
<title>Node16</title>
<g id="a_Node000016"><a xlink:href="TriggerCandidateMakerPrescale_8cpp.html" target="_top" xlink:title=" ">
<polygon fill="white" stroke="#666666" points="1315.38,-36.12 1123.12,-36.12 1123.12,-5.62 1315.38,-5.62 1315.38,-36.12"/>
<text text-anchor="start" x="1131.12" y="-22.62" font-family="Helvetica,sans-Serif" font-size="10.00">sourcecode/triggeralgs</text>
<text text-anchor="middle" x="1219.25" y="-11.38" font-family="Helvetica,sans-Serif" font-size="10.00">/src/TriggerCandidateMakerPrescale.cpp</text>
</a>
</g>
</g>
<!-- Node15&#45;&gt;Node16 -->
<g id="edge17_Node000015_Node000016" class="edge">
<title>Node15&#45;&gt;Node16</title>
<g id="a_edge17_Node000015_Node000016"><a xlink:title=" ">
<path fill="none" stroke="#63b8ff" d="M1221.71,-71.93C1221.11,-59.69 1220.45,-46.26 1219.96,-36.4"/>
<polygon fill="#63b8ff" stroke="#63b8ff" points="1218.2,-71.81 1222.19,-81.62 1225.19,-71.46 1218.2,-71.81"/>
</a>
</g>
</g>
<!-- Node18 -->
<g id="Node000018" class="node">
<title>Node18</title>
<g id="a_Node000018"><a xlink:href="TriggerCandidateMakerSupernova_8cpp.html" target="_top" xlink:title=" ">
<polygon fill="white" stroke="#666666" points="1533.5,-36.12 1333,-36.12 1333,-5.62 1533.5,-5.62 1533.5,-36.12"/>
<text text-anchor="start" x="1341" y="-22.62" font-family="Helvetica,sans-Serif" font-size="10.00">sourcecode/triggeralgs</text>
<text text-anchor="middle" x="1433.25" y="-11.38" font-family="Helvetica,sans-Serif" font-size="10.00">/src/TriggerCandidateMakerSupernova.cpp</text>
</a>
</g>
</g>
<!-- Node17&#45;&gt;Node18 -->
<g id="edge19_Node000017_Node000018" class="edge">
<title>Node17&#45;&gt;Node18</title>
<g id="a_edge19_Node000017_Node000018"><a xlink:title=" ">
<path fill="none" stroke="#63b8ff" d="M1430.79,-71.93C1431.39,-59.69 1432.05,-46.26 1432.54,-36.4"/>
<polygon fill="#63b8ff" stroke="#63b8ff" points="1427.31,-71.46 1430.31,-81.62 1434.3,-71.81 1427.31,-71.46"/>
</a>
</g>
</g>
</g>
</svg>
