<?xml version="1.0" encoding="UTF-8" standalone="no"?>
<!DOCTYPE svg PUBLIC "-//W3C//DTD SVG 1.1//EN"
 "http://www.w3.org/Graphics/SVG/1.1/DTD/svg11.dtd">
<!-- Generated by graphviz version 9.0.0 (20230911.1827)
 -->
<!-- Title: sourcecode/daqdataformats/include/daqdataformats/TriggerRecordHeaderData.hpp Pages: 1 -->
<svg width="941pt" height="350pt"
 viewBox="0.00 0.00 941.25 349.50" xmlns="http://www.w3.org/2000/svg" xmlns:xlink="http://www.w3.org/1999/xlink">
<g id="graph0" class="graph" transform="scale(1 1) rotate(0) translate(4 345.5)">
<title>sourcecode/daqdataformats/include/daqdataformats/TriggerRecordHeaderData.hpp</title>
<!-- Node1 -->
<g id="Node000001" class="node">
<title>Node1</title>
<g id="a_Node000001"><a xlink:title=" ">
<polygon fill="#999999" stroke="#666666" points="491,-341.5 341.5,-341.5 341.5,-299.75 491,-299.75 491,-341.5"/>
<text text-anchor="start" x="349.5" y="-328" font-family="Helvetica,sans-Serif" font-size="10.00">sourcecode/daqdataformats</text>
<text text-anchor="start" x="349.5" y="-316.75" font-family="Helvetica,sans-Serif" font-size="10.00">/include/daqdataformats</text>
<text text-anchor="middle" x="416.25" y="-305.5" font-family="Helvetica,sans-Serif" font-size="10.00">/TriggerRecordHeaderData.hpp</text>
</a>
</g>
</g>
<!-- Node2 -->
<g id="Node000002" class="node">
<title>Node2</title>
<g id="a_Node000002"><a xlink:href="TriggerRecordHeader_8hpp.html" target="_top" xlink:title=" ">
<polygon fill="white" stroke="#666666" points="484.62,-263.75 347.88,-263.75 347.88,-222 484.62,-222 484.62,-263.75"/>
<text text-anchor="start" x="355.88" y="-250.25" font-family="Helvetica,sans-Serif" font-size="10.00">sourcecode/daqdataformats</text>
<text text-anchor="start" x="355.88" y="-239" font-family="Helvetica,sans-Serif" font-size="10.00">/include/daqdataformats</text>
<text text-anchor="middle" x="416.25" y="-227.75" font-family="Helvetica,sans-Serif" font-size="10.00">/TriggerRecordHeader.hpp</text>
</a>
</g>
</g>
<!-- Node1&#45;&gt;Node2 -->
<g id="edge1_Node000001_Node000002" class="edge">
<title>Node1&#45;&gt;Node2</title>
<g id="a_edge1_Node000001_Node000002"><a xlink:title=" ">
<path fill="none" stroke="#63b8ff" d="M416.25,-288C416.25,-279.96 416.25,-271.54 416.25,-264.23"/>
<polygon fill="#63b8ff" stroke="#63b8ff" points="412.75,-287.81 416.25,-297.81 419.75,-287.81 412.75,-287.81"/>
</a>
</g>
</g>
<!-- Node3 -->
<g id="Node000003" class="node">
<title>Node3</title>
<g id="a_Node000003"><a xlink:href="TriggerRecord_8hpp.html" target="_top" xlink:title=" ">
<polygon fill="white" stroke="#666666" points="532.62,-186 395.88,-186 395.88,-144.25 532.62,-144.25 532.62,-186"/>
<text text-anchor="start" x="403.88" y="-172.5" font-family="Helvetica,sans-Serif" font-size="10.00">sourcecode/daqdataformats</text>
<text text-anchor="start" x="403.88" y="-161.25" font-family="Helvetica,sans-Serif" font-size="10.00">/include/daqdataformats</text>
<text text-anchor="middle" x="464.25" y="-150" font-family="Helvetica,sans-Serif" font-size="10.00">/TriggerRecord.hpp</text>
</a>
</g>
</g>
<!-- Node2&#45;&gt;Node3 -->
<g id="edge2_Node000002_Node000003" class="edge">
<title>Node2&#45;&gt;Node3</title>
<g id="a_edge2_Node000002_Node000003"><a xlink:title=" ">
<path fill="none" stroke="#63b8ff" d="M435.23,-211.93C440.63,-203.39 446.4,-194.3 451.35,-186.48"/>
<polygon fill="#63b8ff" stroke="#63b8ff" points="432.32,-209.98 429.92,-220.3 438.23,-213.72 432.32,-209.98"/>
</a>
</g>
</g>
<!-- Node4 -->
<g id="Node000004" class="node">
<title>Node4</title>
<g id="a_Node000004"><a xlink:href="trigger__record_8cpp.html" target="_top" xlink:title=" ">
<polygon fill="white" stroke="#666666" points="438.5,-102.62 298,-102.62 298,-72.12 438.5,-72.12 438.5,-102.62"/>
<text text-anchor="start" x="306" y="-89.12" font-family="Helvetica,sans-Serif" font-size="10.00">sourcecode/daqdataformats</text>
<text text-anchor="middle" x="368.25" y="-77.88" font-family="Helvetica,sans-Serif" font-size="10.00">/pybindsrc/trigger_record.cpp</text>
</a>
</g>
</g>
<!-- Node2&#45;&gt;Node4 -->
<g id="edge9_Node000002_Node000004" class="edge">
<title>Node2&#45;&gt;Node4</title>
<g id="a_edge9_Node000002_Node000004"><a xlink:title=" ">
<path fill="none" stroke="#63b8ff" d="M398.47,-211.47C394.31,-203.4 390.23,-194.54 387.25,-186 377.3,-157.47 372.08,-122.32 369.76,-102.94"/>
<polygon fill="#63b8ff" stroke="#63b8ff" points="395.36,-213.07 403.18,-220.21 401.52,-209.75 395.36,-213.07"/>
</a>
</g>
</g>
<!-- Node10 -->
<g id="Node000010" class="node">
<title>Node10</title>
<g id="a_Node000010"><a xlink:href="TriggerRecordHeader__serialization_8hpp.html" target="_top" xlink:title=" ">
<polygon fill="white" stroke="#666666" points="286.5,-186 134,-186 134,-144.25 286.5,-144.25 286.5,-186"/>
<text text-anchor="start" x="142" y="-172.5" font-family="Helvetica,sans-Serif" font-size="10.00">sourcecode/dfmessages</text>
<text text-anchor="start" x="142" y="-161.25" font-family="Helvetica,sans-Serif" font-size="10.00">/include/dfmessages/Trigger</text>
<text text-anchor="middle" x="210.25" y="-150" font-family="Helvetica,sans-Serif" font-size="10.00">RecordHeader_serialization.hpp</text>
</a>
</g>
</g>
<!-- Node2&#45;&gt;Node10 -->
<g id="edge10_Node000002_Node000010" class="edge">
<title>Node2&#45;&gt;Node10</title>
<g id="a_edge10_Node000002_Node000010"><a xlink:title=" ">
<path fill="none" stroke="#63b8ff" d="M350.4,-217.66C323.07,-207.61 291.72,-196.08 265.61,-186.48"/>
<polygon fill="#63b8ff" stroke="#63b8ff" points="349.03,-220.89 359.63,-221.05 351.45,-214.32 349.03,-220.89"/>
</a>
</g>
</g>
<!-- Node12 -->
<g id="Node000012" class="node">
<title>Node12</title>
<g id="a_Node000012"><a xlink:href="HDF5FileLayout_8hpp.html" target="_top" xlink:title=" ">
<polygon fill="white" stroke="#666666" points="779.62,-186 648.88,-186 648.88,-144.25 779.62,-144.25 779.62,-186"/>
<text text-anchor="start" x="656.88" y="-172.5" font-family="Helvetica,sans-Serif" font-size="10.00">sourcecode/hdf5libs</text>
<text text-anchor="start" x="656.88" y="-161.25" font-family="Helvetica,sans-Serif" font-size="10.00">/include/hdf5libs/HDF5File</text>
<text text-anchor="middle" x="714.25" y="-150" font-family="Helvetica,sans-Serif" font-size="10.00">Layout.hpp</text>
</a>
</g>
</g>
<!-- Node2&#45;&gt;Node12 -->
<g id="edge13_Node000002_Node000012" class="edge">
<title>Node2&#45;&gt;Node12</title>
<g id="a_edge13_Node000002_Node000012"><a xlink:title=" ">
<path fill="none" stroke="#63b8ff" d="M495.9,-221.63C543.57,-209.51 603.43,-194.3 648.41,-182.86"/>
<polygon fill="#63b8ff" stroke="#63b8ff" points="495.29,-218.17 486.46,-224.03 497.01,-224.96 495.29,-218.17"/>
</a>
</g>
</g>
<!-- Node3&#45;&gt;Node4 -->
<g id="edge3_Node000003_Node000004" class="edge">
<title>Node3&#45;&gt;Node4</title>
<g id="a_edge3_Node000003_Node000004"><a xlink:title=" ">
<path fill="none" stroke="#63b8ff" d="M429.77,-136.91C415.24,-125.45 398.92,-112.58 386.74,-102.96"/>
<polygon fill="#63b8ff" stroke="#63b8ff" points="427.32,-139.44 437.34,-142.89 431.65,-133.95 427.32,-139.44"/>
</a>
</g>
</g>
<!-- Node5 -->
<g id="Node000005" class="node">
<title>Node5</title>
<g id="a_Node000005"><a xlink:href="TriggerRecord__serialization_8hpp.html" target="_top" xlink:title=" ">
<polygon fill="white" stroke="#666666" points="279.75,-108.25 140.75,-108.25 140.75,-66.5 279.75,-66.5 279.75,-108.25"/>
<text text-anchor="start" x="148.75" y="-94.75" font-family="Helvetica,sans-Serif" font-size="10.00">sourcecode/dfmessages</text>
<text text-anchor="start" x="148.75" y="-83.5" font-family="Helvetica,sans-Serif" font-size="10.00">/include/dfmessages/Trigger</text>
<text text-anchor="middle" x="210.25" y="-72.25" font-family="Helvetica,sans-Serif" font-size="10.00">Record_serialization.hpp</text>
</a>
</g>
</g>
<!-- Node3&#45;&gt;Node5 -->
<g id="edge4_Node000003_Node000005" class="edge">
<title>Node3&#45;&gt;Node5</title>
<g id="a_edge4_Node000003_Node000005"><a xlink:title=" ">
<path fill="none" stroke="#63b8ff" d="M385.28,-140.57C351.08,-130.37 311.42,-118.55 278.51,-108.73"/>
<polygon fill="#63b8ff" stroke="#63b8ff" points="384.15,-143.89 394.73,-143.39 386.15,-137.18 384.15,-143.89"/>
</a>
</g>
</g>
<!-- Node6 -->
<g id="Node000006" class="node">
<title>Node6</title>
<g id="a_Node000006"><a xlink:href="DataStore_8hpp.html" target="_top" xlink:title=" ">
<polygon fill="white" stroke="#666666" points="618.38,-102.62 456.12,-102.62 456.12,-72.12 618.38,-72.12 618.38,-102.62"/>
<text text-anchor="start" x="464.12" y="-89.12" font-family="Helvetica,sans-Serif" font-size="10.00">sourcecode/dfmodules</text>
<text text-anchor="middle" x="537.25" y="-77.88" font-family="Helvetica,sans-Serif" font-size="10.00">/include/dfmodules/DataStore.hpp</text>
</a>
</g>
</g>
<!-- Node3&#45;&gt;Node6 -->
<g id="edge5_Node000003_Node000006" class="edge">
<title>Node3&#45;&gt;Node6</title>
<g id="a_edge5_Node000003_Node000006"><a xlink:title=" ">
<path fill="none" stroke="#63b8ff" d="M491.78,-135.55C502.58,-124.35 514.5,-111.99 523.42,-102.73"/>
<polygon fill="#63b8ff" stroke="#63b8ff" points="489.28,-133.11 484.86,-142.74 494.32,-137.96 489.28,-133.11"/>
</a>
</g>
</g>
<!-- Node7 -->
<g id="Node000007" class="node">
<title>Node7</title>
<g id="a_Node000007"><a xlink:href="HDF5RawDataFile_8hpp.html" target="_top" xlink:title=" ">
<polygon fill="white" stroke="#666666" points="791.62,-108.25 636.88,-108.25 636.88,-66.5 791.62,-66.5 791.62,-108.25"/>
<text text-anchor="start" x="644.88" y="-94.75" font-family="Helvetica,sans-Serif" font-size="10.00">sourcecode/hdf5libs</text>
<text text-anchor="start" x="644.88" y="-83.5" font-family="Helvetica,sans-Serif" font-size="10.00">/include/hdf5libs/HDF5RawData</text>
<text text-anchor="middle" x="714.25" y="-72.25" font-family="Helvetica,sans-Serif" font-size="10.00">File.hpp</text>
</a>
</g>
</g>
<!-- Node3&#45;&gt;Node7 -->
<g id="edge6_Node000003_Node000007" class="edge">
<title>Node3&#45;&gt;Node7</title>
<g id="a_edge6_Node000003_Node000007"><a xlink:title=" ">
<path fill="none" stroke="#63b8ff" d="M541.97,-140.57C575.64,-130.37 614.68,-118.55 647.07,-108.73"/>
<polygon fill="#63b8ff" stroke="#63b8ff" points="541.25,-137.14 532.69,-143.39 543.28,-143.84 541.25,-137.14"/>
</a>
</g>
</g>
<!-- Node8 -->
<g id="Node000008" class="node">
<title>Node8</title>
<g id="a_Node000008"><a xlink:href="hdf5rawdatafile_8cpp.html" target="_top" xlink:title=" ">
<polygon fill="white" stroke="#666666" points="707.5,-30.5 561,-30.5 561,0 707.5,0 707.5,-30.5"/>
<text text-anchor="start" x="569" y="-17" font-family="Helvetica,sans-Serif" font-size="10.00">sourcecode/hdf5libs</text>
<text text-anchor="middle" x="634.25" y="-5.75" font-family="Helvetica,sans-Serif" font-size="10.00">/pybindsrc/hdf5rawdatafile.cpp</text>
</a>
</g>
</g>
<!-- Node7&#45;&gt;Node8 -->
<g id="edge7_Node000007_Node000008" class="edge">
<title>Node7&#45;&gt;Node8</title>
<g id="a_edge7_Node000007_Node000008"><a xlink:title=" ">
<path fill="none" stroke="#63b8ff" d="M682.68,-58.7C671.85,-49.21 660.17,-38.97 650.99,-30.92"/>
<polygon fill="#63b8ff" stroke="#63b8ff" points="680.15,-61.13 689.97,-65.09 684.76,-55.87 680.15,-61.13"/>
</a>
</g>
</g>
<!-- Node9 -->
<g id="Node000009" class="node">
<title>Node9</title>
<g id="a_Node000009"><a xlink:href="HDF5RawDataFile_8cpp.html" target="_top" xlink:title=" ">
<polygon fill="white" stroke="#666666" points="860.5,-30.5 726,-30.5 726,0 860.5,0 860.5,-30.5"/>
<text text-anchor="start" x="734" y="-17" font-family="Helvetica,sans-Serif" font-size="10.00">sourcecode/hdf5libs</text>
<text text-anchor="middle" x="793.25" y="-5.75" font-family="Helvetica,sans-Serif" font-size="10.00">/src/HDF5RawDataFile.cpp</text>
</a>
</g>
</g>
<!-- Node7&#45;&gt;Node9 -->
<g id="edge8_Node000007_Node000009" class="edge">
<title>Node7&#45;&gt;Node9</title>
<g id="a_edge8_Node000007_Node000009"><a xlink:title=" ">
<path fill="none" stroke="#63b8ff" d="M745.49,-58.65C756.26,-49.09 767.89,-38.77 776.97,-30.7"/>
<polygon fill="#63b8ff" stroke="#63b8ff" points="743.39,-55.83 738.23,-65.09 748.03,-61.07 743.39,-55.83"/>
</a>
</g>
</g>
<!-- Node10&#45;&gt;Node5 -->
<g id="edge11_Node000010_Node000005" class="edge">
<title>Node10&#45;&gt;Node5</title>
<g id="a_edge11_Node000010_Node000005"><a xlink:title=" ">
<path fill="none" stroke="#63b8ff" d="M210.25,-132.5C210.25,-124.46 210.25,-116.04 210.25,-108.73"/>
<polygon fill="#63b8ff" stroke="#63b8ff" points="206.75,-132.31 210.25,-142.31 213.75,-132.31 206.75,-132.31"/>
</a>
</g>
</g>
<!-- Node11 -->
<g id="Node000011" class="node">
<title>Node11</title>
<g id="a_Node000011"><a xlink:href="Serialization_8cpp.html" target="_top" xlink:title=" ">
<polygon fill="white" stroke="#666666" points="122.5,-102.62 0,-102.62 0,-72.12 122.5,-72.12 122.5,-102.62"/>
<text text-anchor="start" x="8" y="-89.12" font-family="Helvetica,sans-Serif" font-size="10.00">sourcecode/dfmessages</text>
<text text-anchor="middle" x="61.25" y="-77.88" font-family="Helvetica,sans-Serif" font-size="10.00">/src/Serialization.cpp</text>
</a>
</g>
</g>
<!-- Node10&#45;&gt;Node11 -->
<g id="edge12_Node000010_Node000011" class="edge">
<title>Node10&#45;&gt;Node11</title>
<g id="a_edge12_Node000010_Node000011"><a xlink:title=" ">
<path fill="none" stroke="#63b8ff" d="M160.21,-138.69C136.83,-126.8 109.83,-113.07 89.95,-102.96"/>
<polygon fill="#63b8ff" stroke="#63b8ff" points="158.47,-141.73 168.97,-143.14 161.64,-135.49 158.47,-141.73"/>
</a>
</g>
</g>
<!-- Node12&#45;&gt;Node7 -->
<g id="edge14_Node000012_Node000007" class="edge">
<title>Node12&#45;&gt;Node7</title>
<g id="a_edge14_Node000012_Node000007"><a xlink:title=" ">
<path fill="none" stroke="#63b8ff" d="M714.25,-132.5C714.25,-124.46 714.25,-116.04 714.25,-108.73"/>
<polygon fill="#63b8ff" stroke="#63b8ff" points="710.75,-132.31 714.25,-142.31 717.75,-132.31 710.75,-132.31"/>
</a>
</g>
</g>
<!-- Node13 -->
<g id="Node000013" class="node">
<title>Node13</title>
<g id="a_Node000013"><a xlink:href="HDF5FileLayout_8cpp.html" target="_top" xlink:title=" ">
<polygon fill="white" stroke="#666666" points="933.25,-102.62 809.25,-102.62 809.25,-72.12 933.25,-72.12 933.25,-102.62"/>
<text text-anchor="start" x="817.25" y="-89.12" font-family="Helvetica,sans-Serif" font-size="10.00">sourcecode/hdf5libs</text>
<text text-anchor="middle" x="871.25" y="-77.88" font-family="Helvetica,sans-Serif" font-size="10.00">/src/HDF5FileLayout.cpp</text>
</a>
</g>
</g>
<!-- Node12&#45;&gt;Node13 -->
<g id="edge15_Node000012_Node000013" class="edge">
<title>Node12&#45;&gt;Node13</title>
<g id="a_edge15_Node000012_Node000013"><a xlink:title=" ">
<path fill="none" stroke="#63b8ff" d="M766.64,-138.85C791.36,-126.92 819.96,-113.12 841.01,-102.96"/>
<polygon fill="#63b8ff" stroke="#63b8ff" points="765.17,-135.67 757.69,-143.17 768.21,-141.97 765.17,-135.67"/>
</a>
</g>
</g>
</g>
</svg>
