<?xml version="1.0" encoding="UTF-8" standalone="no"?>
<!DOCTYPE svg PUBLIC "-//W3C//DTD SVG 1.1//EN"
 "http://www.w3.org/Graphics/SVG/1.1/DTD/svg11.dtd">
<!-- Generated by graphviz version 9.0.0 (20230911.1827)
 -->
<!-- Title: sourcecode/timing/include/timing/TriggerReceiverNode.hpp Pages: 1 -->
<svg width="654pt" height="238pt"
 viewBox="0.00 0.00 654.12 238.00" xmlns="http://www.w3.org/2000/svg" xmlns:xlink="http://www.w3.org/1999/xlink">
<g id="graph0" class="graph" transform="scale(1 1) rotate(0) translate(4 234)">
<title>sourcecode/timing/include/timing/TriggerReceiverNode.hpp</title>
<!-- Node1 -->
<g id="Node000001" class="node">
<title>Node1</title>
<g id="a_Node000001"><a xlink:title=" ">
<polygon fill="#999999" stroke="#666666" points="421.75,-230 264,-230 264,-199.5 421.75,-199.5 421.75,-230"/>
<text text-anchor="start" x="272" y="-216.5" font-family="Helvetica,sans-Serif" font-size="10.00">sourcecode/timing/include</text>
<text text-anchor="middle" x="342.88" y="-205.25" font-family="Helvetica,sans-Serif" font-size="10.00">/timing/TriggerReceiverNode.hpp</text>
</a>
</g>
</g>
<!-- Node2 -->
<g id="Node000002" class="node">
<title>Node2</title>
<g id="a_Node000002"><a xlink:href="OverlordDesign_8hpp.html" target="_top" xlink:title=" ">
<polygon fill="white" stroke="#666666" points="208.38,-97 75.38,-97 75.38,-66.5 208.38,-66.5 208.38,-97"/>
<text text-anchor="start" x="83.38" y="-83.5" font-family="Helvetica,sans-Serif" font-size="10.00">sourcecode/timing/include</text>
<text text-anchor="middle" x="141.88" y="-72.25" font-family="Helvetica,sans-Serif" font-size="10.00">/timing/OverlordDesign.hpp</text>
</a>
</g>
</g>
<!-- Node1&#45;&gt;Node2 -->
<g id="edge1_Node000001_Node000002" class="edge">
<title>Node1&#45;&gt;Node2</title>
<g id="a_edge1_Node000001_Node000002"><a xlink:title=" ">
<path fill="none" stroke="#63b8ff" d="M252.63,-207.83C219.73,-201.24 184.77,-188.33 160.88,-163.5 143.7,-145.65 141.03,-115.34 141.12,-97.36"/>
<polygon fill="#63b8ff" stroke="#63b8ff" points="251.74,-211.23 262.21,-209.56 252.99,-204.34 251.74,-211.23"/>
</a>
</g>
</g>
<!-- Node5 -->
<g id="Node000005" class="node">
<title>Node5</title>
<g id="a_Node000005"><a xlink:href="OverlordDesignInterface_8hpp.html" target="_top" xlink:title=" ">
<polygon fill="white" stroke="#666666" points="341.5,-163.5 170.25,-163.5 170.25,-133 341.5,-133 341.5,-163.5"/>
<text text-anchor="start" x="178.25" y="-150" font-family="Helvetica,sans-Serif" font-size="10.00">sourcecode/timing/include</text>
<text text-anchor="middle" x="255.88" y="-138.75" font-family="Helvetica,sans-Serif" font-size="10.00">/timing/OverlordDesignInterface.hpp</text>
</a>
</g>
</g>
<!-- Node1&#45;&gt;Node5 -->
<g id="edge4_Node000001_Node000005" class="edge">
<title>Node1&#45;&gt;Node5</title>
<g id="a_edge4_Node000001_Node000005"><a xlink:title=" ">
<path fill="none" stroke="#63b8ff" d="M313.93,-192.29C301.32,-182.94 286.87,-172.23 275.54,-163.83"/>
<polygon fill="#63b8ff" stroke="#63b8ff" points="311.8,-195.07 321.92,-198.21 315.97,-189.45 311.8,-195.07"/>
</a>
</g>
</g>
<!-- Node7 -->
<g id="Node000007" class="node">
<title>Node7</title>
<g id="a_Node000007"><a xlink:href="master_8cpp.html" target="_top" xlink:title=" ">
<polygon fill="white" stroke="#666666" points="499.75,-163.5 360,-163.5 360,-133 499.75,-133 499.75,-163.5"/>
<text text-anchor="start" x="368" y="-150" font-family="Helvetica,sans-Serif" font-size="10.00">sourcecode/timing/pybindsrc</text>
<text text-anchor="middle" x="429.88" y="-138.75" font-family="Helvetica,sans-Serif" font-size="10.00">/master.cpp</text>
</a>
</g>
</g>
<!-- Node1&#45;&gt;Node7 -->
<g id="edge7_Node000001_Node000007" class="edge">
<title>Node1&#45;&gt;Node7</title>
<g id="a_edge7_Node000001_Node000007"><a xlink:title=" ">
<path fill="none" stroke="#63b8ff" d="M371.82,-192.29C384.43,-182.94 398.88,-172.23 410.21,-163.83"/>
<polygon fill="#63b8ff" stroke="#63b8ff" points="369.78,-189.45 363.83,-198.21 373.95,-195.07 369.78,-189.45"/>
</a>
</g>
</g>
<!-- Node8 -->
<g id="Node000008" class="node">
<title>Node8</title>
<g id="a_Node000008"><a xlink:href="TriggerReceiverNode_8cpp.html" target="_top" xlink:title=" ">
<polygon fill="white" stroke="#666666" points="646.12,-163.5 517.62,-163.5 517.62,-133 646.12,-133 646.12,-163.5"/>
<text text-anchor="start" x="525.62" y="-150" font-family="Helvetica,sans-Serif" font-size="10.00">sourcecode/timing/src</text>
<text text-anchor="middle" x="581.88" y="-138.75" font-family="Helvetica,sans-Serif" font-size="10.00">/TriggerReceiverNode.cpp</text>
</a>
</g>
</g>
<!-- Node1&#45;&gt;Node8 -->
<g id="edge8_Node000001_Node000008" class="edge">
<title>Node1&#45;&gt;Node8</title>
<g id="a_edge8_Node000001_Node000008"><a xlink:title=" ">
<path fill="none" stroke="#63b8ff" d="M408.22,-196.12C445.68,-186.01 492.14,-173.47 527.58,-163.9"/>
<polygon fill="#63b8ff" stroke="#63b8ff" points="407.61,-192.65 398.87,-198.64 409.43,-199.41 407.61,-192.65"/>
</a>
</g>
</g>
<!-- Node3 -->
<g id="Node000003" class="node">
<title>Node3</title>
<g id="a_Node000003"><a xlink:href="top__designs_8cpp.html" target="_top" xlink:title=" ">
<polygon fill="white" stroke="#666666" points="139.75,-30.5 0,-30.5 0,0 139.75,0 139.75,-30.5"/>
<text text-anchor="start" x="8" y="-17" font-family="Helvetica,sans-Serif" font-size="10.00">sourcecode/timing/pybindsrc</text>
<text text-anchor="middle" x="69.88" y="-5.75" font-family="Helvetica,sans-Serif" font-size="10.00">/top_designs.cpp</text>
</a>
</g>
</g>
<!-- Node2&#45;&gt;Node3 -->
<g id="edge2_Node000002_Node000003" class="edge">
<title>Node2&#45;&gt;Node3</title>
<g id="a_edge2_Node000002_Node000003"><a xlink:title=" ">
<path fill="none" stroke="#63b8ff" d="M117,-58.46C106.79,-49.32 95.25,-38.98 86.15,-30.83"/>
<polygon fill="#63b8ff" stroke="#63b8ff" points="114.63,-61.04 124.41,-65.1 119.3,-55.82 114.63,-61.04"/>
</a>
</g>
</g>
<!-- Node4 -->
<g id="Node000004" class="node">
<title>Node4</title>
<g id="a_Node000004"><a xlink:href="OverlordDesign_8cpp.html" target="_top" xlink:title=" ">
<polygon fill="white" stroke="#666666" points="269.88,-30.5 157.88,-30.5 157.88,0 269.88,0 269.88,-30.5"/>
<text text-anchor="start" x="165.88" y="-17" font-family="Helvetica,sans-Serif" font-size="10.00">sourcecode/timing/src</text>
<text text-anchor="middle" x="213.88" y="-5.75" font-family="Helvetica,sans-Serif" font-size="10.00">/OverlordDesign.cpp</text>
</a>
</g>
</g>
<!-- Node2&#45;&gt;Node4 -->
<g id="edge3_Node000002_Node000004" class="edge">
<title>Node2&#45;&gt;Node4</title>
<g id="a_edge3_Node000002_Node000004"><a xlink:title=" ">
<path fill="none" stroke="#63b8ff" d="M166.75,-58.46C176.96,-49.32 188.5,-38.98 197.6,-30.83"/>
<polygon fill="#63b8ff" stroke="#63b8ff" points="164.45,-55.82 159.34,-65.1 169.12,-61.04 164.45,-55.82"/>
</a>
</g>
</g>
<!-- Node5&#45;&gt;Node2 -->
<g id="edge5_Node000005_Node000002" class="edge">
<title>Node5&#45;&gt;Node2</title>
<g id="a_edge5_Node000005_Node000002"><a xlink:title=" ">
<path fill="none" stroke="#63b8ff" d="M220.36,-127.16C203.3,-117.5 183.22,-106.14 167.64,-97.33"/>
<polygon fill="#63b8ff" stroke="#63b8ff" points="218.26,-129.99 228.69,-131.87 221.71,-123.9 218.26,-129.99"/>
</a>
</g>
</g>
<!-- Node6 -->
<g id="Node000006" class="node">
<title>Node6</title>
<g id="a_Node000006"><a xlink:href="OverlordDesignInterface_8cpp.html" target="_top" xlink:title=" ">
<polygon fill="white" stroke="#666666" points="368.88,-97 226.88,-97 226.88,-66.5 368.88,-66.5 368.88,-97"/>
<text text-anchor="start" x="234.88" y="-83.5" font-family="Helvetica,sans-Serif" font-size="10.00">sourcecode/timing/src</text>
<text text-anchor="middle" x="297.88" y="-72.25" font-family="Helvetica,sans-Serif" font-size="10.00">/OverlordDesignInterface.cpp</text>
</a>
</g>
</g>
<!-- Node5&#45;&gt;Node6 -->
<g id="edge6_Node000005_Node000006" class="edge">
<title>Node5&#45;&gt;Node6</title>
<g id="a_edge6_Node000005_Node000006"><a xlink:title=" ">
<path fill="none" stroke="#63b8ff" d="M271.66,-123.01C277.29,-114.37 283.45,-104.91 288.38,-97.33"/>
<polygon fill="#63b8ff" stroke="#63b8ff" points="268.76,-121.06 266.23,-131.35 274.62,-124.88 268.76,-121.06"/>
</a>
</g>
</g>
</g>
</svg>
