<?xml version="1.0" encoding="UTF-8" standalone="no"?>
<!DOCTYPE svg PUBLIC "-//W3C//DTD SVG 1.1//EN"
 "http://www.w3.org/Graphics/SVG/1.1/DTD/svg11.dtd">
<!-- Generated by graphviz version 9.0.0 (20230911.1827)
 -->
<!-- Title: sourcecode/trgdataformats/include/trgdataformats/TriggerActivityData.hpp Pages: 1 -->
<svg width="183pt" height="160pt"
 viewBox="0.00 0.00 183.25 160.25" xmlns="http://www.w3.org/2000/svg" xmlns:xlink="http://www.w3.org/1999/xlink">
<g id="graph0" class="graph" transform="scale(1 1) rotate(0) translate(4 156.25)">
<title>sourcecode/trgdataformats/include/trgdataformats/TriggerActivityData.hpp</title>
<!-- Node1 -->
<g id="Node000001" class="node">
<title>Node1</title>
<g id="a_Node000001"><a xlink:title=" ">
<polygon fill="#999999" stroke="#666666" points="132.25,-152.25 0,-152.25 0,-110.5 132.25,-110.5 132.25,-152.25"/>
<text text-anchor="start" x="8" y="-138.75" font-family="Helvetica,sans-Serif" font-size="10.00">sourcecode/trgdataformats</text>
<text text-anchor="start" x="8" y="-127.5" font-family="Helvetica,sans-Serif" font-size="10.00">/include/trgdataformats</text>
<text text-anchor="middle" x="66.12" y="-116.25" font-family="Helvetica,sans-Serif" font-size="10.00">/TriggerActivityData.hpp</text>
</a>
</g>
</g>
<!-- Node2 -->
<g id="Node000002" class="node">
<title>Node2</title>
<g id="a_Node000002"><a xlink:href="trgdataformats_2include_2trgdataformats_2Types_8hpp.html" target="_top" xlink:title=" ">
<polygon fill="white" stroke="#666666" points="175.25,-74.5 49,-74.5 49,-55.25 175.25,-55.25 175.25,-74.5"/>
<text text-anchor="middle" x="112.12" y="-61" font-family="Helvetica,sans-Serif" font-size="10.00">trgdataformats/Types.hpp</text>
</a>
</g>
</g>
<!-- Node1&#45;&gt;Node2 -->
<g id="edge1_Node000001_Node000002" class="edge">
<title>Node1&#45;&gt;Node2</title>
<g id="a_edge1_Node000001_Node000002"><a xlink:title=" ">
<path fill="none" stroke="#63b8ff" d="M80.43,-110.32C86.36,-102 93.2,-92.41 99.01,-84.27"/>
<polygon fill="#63b8ff" stroke="#63b8ff" points="101.82,-86.35 104.78,-76.18 96.12,-82.29 101.82,-86.35"/>
</a>
</g>
</g>
<!-- Node3 -->
<g id="Node000003" class="node">
<title>Node3</title>
<g id="a_Node000003"><a xlink:title=" ">
<polygon fill="#e0e0e0" stroke="#999999" points="59.75,-19.25 14.5,-19.25 14.5,0 59.75,0 59.75,-19.25"/>
<text text-anchor="middle" x="37.12" y="-5.75" font-family="Helvetica,sans-Serif" font-size="10.00">cstdint</text>
</a>
</g>
</g>
<!-- Node1&#45;&gt;Node3 -->
<g id="edge4_Node000001_Node000003" class="edge">
<title>Node1&#45;&gt;Node3</title>
<g id="a_edge4_Node000001_Node000003"><a xlink:title=" ">
<path fill="none" stroke="#63b8ff" d="M54.37,-110.12C49,-99.81 43.17,-86.86 40.12,-74.5 36.58,-60.11 35.92,-43.36 36.1,-30.62"/>
<polygon fill="#63b8ff" stroke="#63b8ff" points="39.58,-31.08 36.42,-20.97 32.59,-30.84 39.58,-31.08"/>
</a>
</g>
</g>
<!-- Node2&#45;&gt;Node3 -->
<g id="edge2_Node000002_Node000003" class="edge">
<title>Node2&#45;&gt;Node3</title>
<g id="a_edge2_Node000002_Node000003"><a xlink:title=" ">
<path fill="none" stroke="#63b8ff" d="M99.4,-54.84C88.41,-47.04 72.28,-35.59 59.19,-26.29"/>
<polygon fill="#63b8ff" stroke="#63b8ff" points="61.32,-23.51 51.14,-20.58 57.27,-29.22 61.32,-23.51"/>
</a>
</g>
</g>
<!-- Node4 -->
<g id="Node000004" class="node">
<title>Node4</title>
<g id="a_Node000004"><a xlink:title=" ">
<polygon fill="#e0e0e0" stroke="#999999" points="131.75,-19.25 92.5,-19.25 92.5,0 131.75,0 131.75,-19.25"/>
<text text-anchor="middle" x="112.12" y="-5.75" font-family="Helvetica,sans-Serif" font-size="10.00">limits</text>
</a>
</g>
</g>
<!-- Node2&#45;&gt;Node4 -->
<g id="edge3_Node000002_Node000004" class="edge">
<title>Node2&#45;&gt;Node4</title>
<g id="a_edge3_Node000002_Node000004"><a xlink:title=" ">
<path fill="none" stroke="#63b8ff" d="M112.12,-55.08C112.12,-48.57 112.12,-39.42 112.12,-31.12"/>
<polygon fill="#63b8ff" stroke="#63b8ff" points="115.63,-31.12 112.13,-21.12 108.63,-31.12 115.63,-31.12"/>
</a>
</g>
</g>
</g>
</svg>
