<?xml version="1.0" encoding="UTF-8" standalone="no"?>
<!DOCTYPE svg PUBLIC "-//W3C//DTD SVG 1.1//EN"
 "http://www.w3.org/Graphics/SVG/1.1/DTD/svg11.dtd">
<!-- Generated by graphviz version 9.0.0 (20230911.1827)
 -->
<!-- Title: sourcecode/trigger/include/trigger/TriggerPrimitive_serialization.hpp Pages: 1 -->
<svg width="1168pt" height="560pt"
 viewBox="0.00 0.00 1168.22 560.25" xmlns="http://www.w3.org/2000/svg" xmlns:xlink="http://www.w3.org/1999/xlink">
<g id="graph0" class="graph" transform="scale(1 1) rotate(0) translate(4 556.25)">
<title>sourcecode/trigger/include/trigger/TriggerPrimitive_serialization.hpp</title>
<!-- Node1 -->
<g id="Node000001" class="node">
<title>Node1</title>
<g id="a_Node000001"><a xlink:title=" ">
<polygon fill="#999999" stroke="#666666" points="677.5,-552.25 526.5,-552.25 526.5,-510.5 677.5,-510.5 677.5,-552.25"/>
<text text-anchor="start" x="534.5" y="-538.75" font-family="Helvetica,sans-Serif" font-size="10.00">sourcecode/trigger</text>
<text text-anchor="start" x="534.5" y="-527.5" font-family="Helvetica,sans-Serif" font-size="10.00">/include/trigger/TriggerPrimitive</text>
<text text-anchor="middle" x="602" y="-516.25" font-family="Helvetica,sans-Serif" font-size="10.00">_serialization.hpp</text>
</a>
</g>
</g>
<!-- Node2 -->
<g id="Node000002" class="node">
<title>Node2</title>
<g id="a_Node000002"><a xlink:href="TPSet_8hpp.html" target="_top" xlink:title=" ">
<polygon fill="white" stroke="#666666" points="317.25,-468.88 188.75,-468.88 188.75,-438.38 317.25,-438.38 317.25,-468.88"/>
<text text-anchor="start" x="196.75" y="-455.38" font-family="Helvetica,sans-Serif" font-size="10.00">sourcecode/trigger</text>
<text text-anchor="middle" x="253" y="-444.12" font-family="Helvetica,sans-Serif" font-size="10.00">/include/trigger/TPSet.hpp</text>
</a>
</g>
</g>
<!-- Node1&#45;&gt;Node2 -->
<g id="edge1_Node000001_Node000002" class="edge">
<title>Node1&#45;&gt;Node2</title>
<g id="a_edge1_Node000001_Node000002"><a xlink:title=" ">
<path fill="none" stroke="#63b8ff" d="M515.08,-511.51C453.9,-498.23 373.31,-480.74 317.74,-468.68"/>
<polygon fill="#63b8ff" stroke="#63b8ff" points="514.28,-514.92 524.79,-513.62 515.76,-508.08 514.28,-514.92"/>
</a>
</g>
</g>
<!-- Node8 -->
<g id="Node000008" class="node">
<title>Node8</title>
<g id="a_Node000008"><a xlink:href="TriggerActivity__serialization_8hpp.html" target="_top" xlink:title=" ">
<polygon fill="white" stroke="#666666" points="674.5,-474.5 529.5,-474.5 529.5,-432.75 674.5,-432.75 674.5,-474.5"/>
<text text-anchor="start" x="537.5" y="-461" font-family="Helvetica,sans-Serif" font-size="10.00">sourcecode/trigger</text>
<text text-anchor="start" x="537.5" y="-449.75" font-family="Helvetica,sans-Serif" font-size="10.00">/include/trigger/TriggerActivity</text>
<text text-anchor="middle" x="602" y="-438.5" font-family="Helvetica,sans-Serif" font-size="10.00">_serialization.hpp</text>
</a>
</g>
</g>
<!-- Node1&#45;&gt;Node8 -->
<g id="edge7_Node000001_Node000008" class="edge">
<title>Node1&#45;&gt;Node8</title>
<g id="a_edge7_Node000001_Node000008"><a xlink:title=" ">
<path fill="none" stroke="#63b8ff" d="M602,-498.75C602,-490.71 602,-482.29 602,-474.98"/>
<polygon fill="#63b8ff" stroke="#63b8ff" points="598.5,-498.56 602,-508.56 605.5,-498.56 598.5,-498.56"/>
</a>
</g>
</g>
<!-- Node12 -->
<g id="Node000012" class="node">
<title>Node12</title>
<g id="a_Node000012"><a xlink:href="serialize_8hpp.html" target="_top" xlink:title=" ">
<polygon fill="white" stroke="#666666" points="689,-319 553,-319 553,-288.5 689,-288.5 689,-319"/>
<text text-anchor="start" x="561" y="-305.5" font-family="Helvetica,sans-Serif" font-size="10.00">sourcecode/trigger</text>
<text text-anchor="middle" x="621" y="-294.25" font-family="Helvetica,sans-Serif" font-size="10.00">/include/trigger/serialize.hpp</text>
</a>
</g>
</g>
<!-- Node1&#45;&gt;Node12 -->
<g id="edge33_Node000001_Node000012" class="edge">
<title>Node1&#45;&gt;Node12</title>
<g id="a_edge33_Node000001_Node000012"><a xlink:title=" ">
<path fill="none" stroke="#63b8ff" d="M655.89,-504.61C695.39,-482.32 745.69,-445.91 767,-396.75 774.38,-379.73 777.78,-370.11 767,-355 749.17,-330.01 718.09,-317.33 689.17,-310.93"/>
<polygon fill="#63b8ff" stroke="#63b8ff" points="654.26,-501.51 647.17,-509.39 657.62,-507.65 654.26,-501.51"/>
</a>
</g>
</g>
<!-- Node3 -->
<g id="Node000003" class="node">
<title>Node3</title>
<g id="a_Node000003"><a xlink:href="TPBundleHandler_8hpp.html" target="_top" xlink:title=" ">
<polygon fill="white" stroke="#666666" points="400,-391.12 222,-391.12 222,-360.62 400,-360.62 400,-391.12"/>
<text text-anchor="start" x="230" y="-377.62" font-family="Helvetica,sans-Serif" font-size="10.00">sourcecode/dfmodules</text>
<text text-anchor="middle" x="311" y="-366.38" font-family="Helvetica,sans-Serif" font-size="10.00">/src/dfmodules/TPBundleHandler.hpp</text>
</a>
</g>
</g>
<!-- Node2&#45;&gt;Node3 -->
<g id="edge2_Node000002_Node000003" class="edge">
<title>Node2&#45;&gt;Node3</title>
<g id="a_edge2_Node000002_Node000003"><a xlink:title=" ">
<path fill="none" stroke="#63b8ff" d="M270.96,-429.17C280.4,-416.84 291.68,-402.11 299.85,-391.44"/>
<polygon fill="#63b8ff" stroke="#63b8ff" points="268.4,-426.75 265.1,-436.82 273.96,-431.01 268.4,-426.75"/>
</a>
</g>
</g>
<!-- Node5 -->
<g id="Node000005" class="node">
<title>Node5</title>
<g id="a_Node000005"><a xlink:href="TPRequestHandler_8hpp.html" target="_top" xlink:title=" ">
<polygon fill="white" stroke="#666666" points="166,-391.12 0,-391.12 0,-360.62 166,-360.62 166,-391.12"/>
<text text-anchor="start" x="8" y="-377.62" font-family="Helvetica,sans-Serif" font-size="10.00">sourcecode/trigger</text>
<text text-anchor="middle" x="83" y="-366.38" font-family="Helvetica,sans-Serif" font-size="10.00">/src/trigger/TPRequestHandler.hpp</text>
</a>
</g>
</g>
<!-- Node2&#45;&gt;Node5 -->
<g id="edge4_Node000002_Node000005" class="edge">
<title>Node2&#45;&gt;Node5</title>
<g id="a_edge4_Node000002_Node000005"><a xlink:title=" ">
<path fill="none" stroke="#63b8ff" d="M209.9,-433.42C180.72,-420.42 142.74,-403.5 115.97,-391.56"/>
<polygon fill="#63b8ff" stroke="#63b8ff" points="208.28,-436.53 218.84,-437.4 211.13,-430.14 208.28,-436.53"/>
</a>
</g>
</g>
<!-- Node7 -->
<g id="Node000007" class="node">
<title>Node7</title>
<g id="a_Node000007"><a xlink:href="TPSetSourceModel_8hpp.html" target="_top" xlink:title=" ">
<polygon fill="white" stroke="#666666" points="278.12,-102.62 109.88,-102.62 109.88,-72.12 278.12,-72.12 278.12,-102.62"/>
<text text-anchor="start" x="117.88" y="-89.12" font-family="Helvetica,sans-Serif" font-size="10.00">sourcecode/trigger</text>
<text text-anchor="middle" x="194" y="-77.88" font-family="Helvetica,sans-Serif" font-size="10.00">/src/trigger/TPSetSourceModel.hpp</text>
</a>
</g>
</g>
<!-- Node2&#45;&gt;Node7 -->
<g id="edge6_Node000002_Node000007" class="edge">
<title>Node2&#45;&gt;Node7</title>
<g id="a_edge6_Node000002_Node000007"><a xlink:title=" ">
<path fill="none" stroke="#63b8ff" d="M232.91,-429.22C225.65,-419.69 218.02,-408.23 213,-396.75 196.26,-358.5 194,-346.5 194,-304.75 194,-304.75 194,-304.75 194,-236.25 194,-187.47 194,-129.64 194,-103.07"/>
<polygon fill="#63b8ff" stroke="#63b8ff" points="230.02,-431.2 238.99,-436.85 235.49,-426.84 230.02,-431.2"/>
</a>
</g>
</g>
<!-- Node4 -->
<g id="Node000004" class="node">
<title>Node4</title>
<g id="a_Node000004"><a xlink:href="TPBundleHandler_8cpp.html" target="_top" xlink:title=" ">
<polygon fill="white" stroke="#666666" points="376,-319 246,-319 246,-288.5 376,-288.5 376,-319"/>
<text text-anchor="start" x="254" y="-305.5" font-family="Helvetica,sans-Serif" font-size="10.00">sourcecode/dfmodules</text>
<text text-anchor="middle" x="311" y="-294.25" font-family="Helvetica,sans-Serif" font-size="10.00">/src/TPBundleHandler.cpp</text>
</a>
</g>
</g>
<!-- Node3&#45;&gt;Node4 -->
<g id="edge3_Node000003_Node000004" class="edge">
<title>Node3&#45;&gt;Node4</title>
<g id="a_edge3_Node000003_Node000004"><a xlink:title=" ">
<path fill="none" stroke="#63b8ff" d="M311,-348.9C311,-338.89 311,-327.81 311,-319.26"/>
<polygon fill="#63b8ff" stroke="#63b8ff" points="307.5,-348.83 311,-358.83 314.5,-348.83 307.5,-348.83"/>
</a>
</g>
</g>
<!-- Node6 -->
<g id="Node000006" class="node">
<title>Node6</title>
<g id="a_Node000006"><a xlink:href="TPRequestHandler_8cpp.html" target="_top" xlink:title=" ">
<polygon fill="white" stroke="#666666" points="151,-319 15,-319 15,-288.5 151,-288.5 151,-319"/>
<text text-anchor="start" x="23" y="-305.5" font-family="Helvetica,sans-Serif" font-size="10.00">sourcecode/trigger</text>
<text text-anchor="middle" x="83" y="-294.25" font-family="Helvetica,sans-Serif" font-size="10.00">/src/TPRequestHandler.cpp</text>
</a>
</g>
</g>
<!-- Node5&#45;&gt;Node6 -->
<g id="edge5_Node000005_Node000006" class="edge">
<title>Node5&#45;&gt;Node6</title>
<g id="a_edge5_Node000005_Node000006"><a xlink:title=" ">
<path fill="none" stroke="#63b8ff" d="M83,-348.9C83,-338.89 83,-327.81 83,-319.26"/>
<polygon fill="#63b8ff" stroke="#63b8ff" points="79.5,-348.83 83,-358.83 86.5,-348.83 79.5,-348.83"/>
</a>
</g>
</g>
<!-- Node9 -->
<g id="Node000009" class="node">
<title>Node9</title>
<g id="a_Node000009"><a xlink:href="TASet_8hpp.html" target="_top" xlink:title=" ">
<polygon fill="white" stroke="#666666" points="758.25,-391.12 629.75,-391.12 629.75,-360.62 758.25,-360.62 758.25,-391.12"/>
<text text-anchor="start" x="637.75" y="-377.62" font-family="Helvetica,sans-Serif" font-size="10.00">sourcecode/trigger</text>
<text text-anchor="middle" x="694" y="-366.38" font-family="Helvetica,sans-Serif" font-size="10.00">/include/trigger/TASet.hpp</text>
</a>
</g>
</g>
<!-- Node8&#45;&gt;Node9 -->
<g id="edge8_Node000008_Node000009" class="edge">
<title>Node8&#45;&gt;Node9</title>
<g id="a_edge8_Node000008_Node000009"><a xlink:title=" ">
<path fill="none" stroke="#63b8ff" d="M635.44,-425.09C649.26,-413.71 664.72,-400.98 676.28,-391.46"/>
<polygon fill="#63b8ff" stroke="#63b8ff" points="633.32,-422.3 627.82,-431.36 637.77,-427.71 633.32,-422.3"/>
</a>
</g>
</g>
<!-- Node10 -->
<g id="Node000010" class="node">
<title>Node10</title>
<g id="a_Node000010"><a xlink:href="TriggerCandidate__serialization_8hpp.html" target="_top" xlink:title=" ">
<polygon fill="white" stroke="#666666" points="574.12,-396.75 417.88,-396.75 417.88,-355 574.12,-355 574.12,-396.75"/>
<text text-anchor="start" x="425.88" y="-383.25" font-family="Helvetica,sans-Serif" font-size="10.00">sourcecode/trigger</text>
<text text-anchor="start" x="425.88" y="-372" font-family="Helvetica,sans-Serif" font-size="10.00">/include/trigger/TriggerCandidate</text>
<text text-anchor="middle" x="496" y="-360.75" font-family="Helvetica,sans-Serif" font-size="10.00">_serialization.hpp</text>
</a>
</g>
</g>
<!-- Node8&#45;&gt;Node10 -->
<g id="edge9_Node000008_Node000010" class="edge">
<title>Node8&#45;&gt;Node10</title>
<g id="a_edge9_Node000008_Node000010"><a xlink:title=" ">
<path fill="none" stroke="#63b8ff" d="M564.34,-425.71C551.22,-416.34 536.73,-405.98 524.48,-397.23"/>
<polygon fill="#63b8ff" stroke="#63b8ff" points="562.19,-428.48 572.36,-431.45 566.26,-422.78 562.19,-428.48"/>
</a>
</g>
</g>
<!-- Node8&#45;&gt;Node12 -->
<g id="edge32_Node000008_Node000012" class="edge">
<title>Node8&#45;&gt;Node12</title>
<g id="a_edge32_Node000008_Node000012"><a xlink:title=" ">
<path fill="none" stroke="#63b8ff" d="M606.04,-421.19C610.07,-389.81 616.09,-342.98 619.12,-319.41"/>
<polygon fill="#63b8ff" stroke="#63b8ff" points="602.6,-420.51 604.79,-430.87 609.54,-421.4 602.6,-420.51"/>
</a>
</g>
</g>
<!-- Node11 -->
<g id="Node000011" class="node">
<title>Node11</title>
<g id="a_Node000011"><a xlink:href="TCSet_8hpp.html" target="_top" xlink:title=" ">
<polygon fill="white" stroke="#666666" points="535.25,-319 406.75,-319 406.75,-288.5 535.25,-288.5 535.25,-319"/>
<text text-anchor="start" x="414.75" y="-305.5" font-family="Helvetica,sans-Serif" font-size="10.00">sourcecode/trigger</text>
<text text-anchor="middle" x="471" y="-294.25" font-family="Helvetica,sans-Serif" font-size="10.00">/include/trigger/TCSet.hpp</text>
</a>
</g>
</g>
<!-- Node10&#45;&gt;Node11 -->
<g id="edge10_Node000010_Node000011" class="edge">
<title>Node10&#45;&gt;Node11</title>
<g id="a_edge10_Node000010_Node000011"><a xlink:title=" ">
<path fill="none" stroke="#63b8ff" d="M484.99,-344C481.91,-335.37 478.71,-326.39 476.15,-319.2"/>
<polygon fill="#63b8ff" stroke="#63b8ff" points="481.61,-344.92 488.26,-353.17 488.2,-342.57 481.61,-344.92"/>
</a>
</g>
</g>
<!-- Node10&#45;&gt;Node12 -->
<g id="edge11_Node000010_Node000012" class="edge">
<title>Node10&#45;&gt;Node12</title>
<g id="a_edge11_Node000010_Node000012"><a xlink:title=" ">
<path fill="none" stroke="#63b8ff" d="M541.83,-349.16C559.69,-339.14 579.51,-328.03 594.85,-319.42"/>
<polygon fill="#63b8ff" stroke="#63b8ff" points="540.48,-345.91 533.48,-353.85 543.91,-352.01 540.48,-345.91"/>
</a>
</g>
</g>
<!-- Node13 -->
<g id="Node000013" class="node">
<title>Node13</title>
<g id="a_Node000013"><a xlink:href="trigger_2include_2trigger_2Issues_8hpp.html" target="_top" xlink:title=" ">
<polygon fill="white" stroke="#666666" points="686,-252.5 556,-252.5 556,-222 686,-222 686,-252.5"/>
<text text-anchor="start" x="564" y="-239" font-family="Helvetica,sans-Serif" font-size="10.00">sourcecode/trigger</text>
<text text-anchor="middle" x="621" y="-227.75" font-family="Helvetica,sans-Serif" font-size="10.00">/include/trigger/Issues.hpp</text>
</a>
</g>
</g>
<!-- Node12&#45;&gt;Node13 -->
<g id="edge12_Node000012_Node000013" class="edge">
<title>Node12&#45;&gt;Node13</title>
<g id="a_edge12_Node000012_Node000013"><a xlink:title=" ">
<path fill="none" stroke="#63b8ff" d="M621,-276.81C621,-268.64 621,-259.91 621,-252.83"/>
<polygon fill="#63b8ff" stroke="#63b8ff" points="617.5,-276.6 621,-286.6 624.5,-276.6 617.5,-276.6"/>
</a>
</g>
</g>
<!-- Node14 -->
<g id="Node000014" class="node">
<title>Node14</title>
<g id="a_Node000014"><a xlink:href="AlgorithmPlugins_8hpp.html" target="_top" xlink:title=" ">
<polygon fill="white" stroke="#666666" points="647,-186 523,-186 523,-144.25 647,-144.25 647,-186"/>
<text text-anchor="start" x="531" y="-172.5" font-family="Helvetica,sans-Serif" font-size="10.00">sourcecode/trigger</text>
<text text-anchor="start" x="531" y="-161.25" font-family="Helvetica,sans-Serif" font-size="10.00">/include/trigger/Algorithm</text>
<text text-anchor="middle" x="585" y="-150" font-family="Helvetica,sans-Serif" font-size="10.00">Plugins.hpp</text>
</a>
</g>
</g>
<!-- Node13&#45;&gt;Node14 -->
<g id="edge13_Node000013_Node000014" class="edge">
<title>Node13&#45;&gt;Node14</title>
<g id="a_edge13_Node000013_Node000014"><a xlink:title=" ">
<path fill="none" stroke="#63b8ff" d="M608.34,-211.58C604.12,-203.37 599.48,-194.33 595.45,-186.49"/>
<polygon fill="#63b8ff" stroke="#63b8ff" points="605.17,-213.08 612.85,-220.37 611.4,-209.88 605.17,-213.08"/>
</a>
</g>
</g>
<!-- Node16 -->
<g id="Node000016" class="node">
<title>Node16</title>
<g id="a_Node000016"><a xlink:href="TPProcessor_8cpp.html" target="_top" xlink:title=" ">
<polygon fill="white" stroke="#666666" points="603.25,-102.62 492.75,-102.62 492.75,-72.12 603.25,-72.12 603.25,-102.62"/>
<text text-anchor="start" x="500.75" y="-89.12" font-family="Helvetica,sans-Serif" font-size="10.00">sourcecode/trigger</text>
<text text-anchor="middle" x="548" y="-77.88" font-family="Helvetica,sans-Serif" font-size="10.00">/src/TPProcessor.cpp</text>
</a>
</g>
</g>
<!-- Node13&#45;&gt;Node16 -->
<g id="edge27_Node000013_Node000016" class="edge">
<title>Node13&#45;&gt;Node16</title>
<g id="a_edge27_Node000013_Node000016"><a xlink:title=" ">
<path fill="none" stroke="#63b8ff" d="M550.42,-216.86C536.01,-209.56 522.63,-199.58 514,-186 496.97,-159.19 519.74,-122.78 535.42,-102.87"/>
<polygon fill="#63b8ff" stroke="#63b8ff" points="548.59,-219.88 559.14,-220.87 551.52,-213.52 548.59,-219.88"/>
</a>
</g>
</g>
<!-- Node17 -->
<g id="Node000017" class="node">
<title>Node17</title>
<g id="a_Node000017"><a xlink:href="TAWrapper_8hpp.html" target="_top" xlink:title=" ">
<polygon fill="white" stroke="#666666" points="814.75,-180.38 665.25,-180.38 665.25,-149.88 814.75,-149.88 814.75,-180.38"/>
<text text-anchor="start" x="673.25" y="-166.88" font-family="Helvetica,sans-Serif" font-size="10.00">sourcecode/trigger</text>
<text text-anchor="middle" x="740" y="-155.62" font-family="Helvetica,sans-Serif" font-size="10.00">/include/trigger/TAWrapper.hpp</text>
</a>
</g>
</g>
<!-- Node13&#45;&gt;Node17 -->
<g id="edge16_Node000013_Node000017" class="edge">
<title>Node13&#45;&gt;Node17</title>
<g id="a_edge16_Node000013_Node000017"><a xlink:title=" ">
<path fill="none" stroke="#63b8ff" d="M655.74,-215.78C674.76,-204.57 697.88,-190.95 715.09,-180.81"/>
<polygon fill="#63b8ff" stroke="#63b8ff" points="654.09,-212.69 647.25,-220.78 657.64,-218.72 654.09,-212.69"/>
</a>
</g>
</g>
<!-- Node18 -->
<g id="Node000018" class="node">
<title>Node18</title>
<g id="a_Node000018"><a xlink:href="TAProcessor_8hpp.html" target="_top" xlink:title=" ">
<polygon fill="white" stroke="#666666" points="981.25,-102.62 840.75,-102.62 840.75,-72.12 981.25,-72.12 981.25,-102.62"/>
<text text-anchor="start" x="848.75" y="-89.12" font-family="Helvetica,sans-Serif" font-size="10.00">sourcecode/trigger</text>
<text text-anchor="middle" x="911" y="-77.88" font-family="Helvetica,sans-Serif" font-size="10.00">/src/trigger/TAProcessor.hpp</text>
</a>
</g>
</g>
<!-- Node13&#45;&gt;Node18 -->
<g id="edge29_Node000013_Node000018" class="edge">
<title>Node13&#45;&gt;Node18</title>
<g id="a_edge29_Node000013_Node000018"><a xlink:title=" ">
<path fill="none" stroke="#63b8ff" d="M697.83,-234.52C836.79,-230.58 1118.33,-218.64 1148,-186 1200.69,-128.05 1068.91,-103.64 981.4,-94.04"/>
<polygon fill="#63b8ff" stroke="#63b8ff" points="697.87,-231.01 687.97,-234.79 698.06,-238.01 697.87,-231.01"/>
</a>
</g>
</g>
<!-- Node20 -->
<g id="Node000020" class="node">
<title>Node20</title>
<g id="a_Node000020"><a xlink:href="TCWrapper_8hpp.html" target="_top" xlink:title=" ">
<polygon fill="white" stroke="#666666" points="428.75,-180.38 279.25,-180.38 279.25,-149.88 428.75,-149.88 428.75,-180.38"/>
<text text-anchor="start" x="287.25" y="-166.88" font-family="Helvetica,sans-Serif" font-size="10.00">sourcecode/trigger</text>
<text text-anchor="middle" x="354" y="-155.62" font-family="Helvetica,sans-Serif" font-size="10.00">/include/trigger/TCWrapper.hpp</text>
</a>
</g>
</g>
<!-- Node13&#45;&gt;Node20 -->
<g id="edge21_Node000013_Node000020" class="edge">
<title>Node13&#45;&gt;Node20</title>
<g id="a_edge21_Node000013_Node000020"><a xlink:title=" ">
<path fill="none" stroke="#63b8ff" d="M554.03,-218.66C509.57,-206.98 451.89,-191.83 409.9,-180.81"/>
<polygon fill="#63b8ff" stroke="#63b8ff" points="553,-222.01 563.56,-221.17 554.78,-215.24 553,-222.01"/>
</a>
</g>
</g>
<!-- Node22 -->
<g id="Node000022" class="node">
<title>Node22</title>
<g id="a_Node000022"><a xlink:href="TCProcessor_8hpp.html" target="_top" xlink:title=" ">
<polygon fill="white" stroke="#666666" points="474.25,-102.62 333.75,-102.62 333.75,-72.12 474.25,-72.12 474.25,-102.62"/>
<text text-anchor="start" x="341.75" y="-89.12" font-family="Helvetica,sans-Serif" font-size="10.00">sourcecode/trigger</text>
<text text-anchor="middle" x="404" y="-77.88" font-family="Helvetica,sans-Serif" font-size="10.00">/src/trigger/TCProcessor.hpp</text>
</a>
</g>
</g>
<!-- Node13&#45;&gt;Node22 -->
<g id="edge30_Node000013_Node000022" class="edge">
<title>Node13&#45;&gt;Node22</title>
<g id="a_edge30_Node000013_Node000022"><a xlink:title=" ">
<path fill="none" stroke="#63b8ff" d="M565.37,-217.55C544.89,-209.41 522.06,-198.77 503,-186 467.11,-161.94 433.01,-123.8 415.74,-103.03"/>
<polygon fill="#63b8ff" stroke="#63b8ff" points="563.83,-220.71 574.42,-221.04 566.35,-214.18 563.83,-220.71"/>
</a>
</g>
</g>
<!-- Node23 -->
<g id="Node000023" class="node">
<title>Node23</title>
<g id="a_Node000023"><a xlink:href="HSISourceModel_8hpp.html" target="_top" xlink:title=" ">
<polygon fill="white" stroke="#666666" points="990.88,-180.38 833.12,-180.38 833.12,-149.88 990.88,-149.88 990.88,-180.38"/>
<text text-anchor="start" x="841.12" y="-166.88" font-family="Helvetica,sans-Serif" font-size="10.00">sourcecode/trigger</text>
<text text-anchor="middle" x="912" y="-155.62" font-family="Helvetica,sans-Serif" font-size="10.00">/src/trigger/HSISourceModel.hpp</text>
</a>
</g>
</g>
<!-- Node13&#45;&gt;Node23 -->
<g id="edge28_Node000013_Node000023" class="edge">
<title>Node13&#45;&gt;Node23</title>
<g id="a_edge28_Node000013_Node000023"><a xlink:title=" ">
<path fill="none" stroke="#63b8ff" d="M693.05,-218.89C741.54,-207.2 804.79,-191.96 850.83,-180.87"/>
<polygon fill="#63b8ff" stroke="#63b8ff" points="692.38,-215.45 683.47,-221.19 694.02,-222.25 692.38,-215.45"/>
</a>
</g>
</g>
<!-- Node24 -->
<g id="Node000024" class="node">
<title>Node24</title>
<g id="a_Node000024"><a xlink:href="TriggerGenericMaker_8hpp.html" target="_top" xlink:title=" ">
<polygon fill="white" stroke="#666666" points="1138.62,-186 1009.38,-186 1009.38,-144.25 1138.62,-144.25 1138.62,-186"/>
<text text-anchor="start" x="1017.38" y="-172.5" font-family="Helvetica,sans-Serif" font-size="10.00">sourcecode/trigger</text>
<text text-anchor="start" x="1017.38" y="-161.25" font-family="Helvetica,sans-Serif" font-size="10.00">/src/trigger/TriggerGeneric</text>
<text text-anchor="middle" x="1074" y="-150" font-family="Helvetica,sans-Serif" font-size="10.00">Maker.hpp</text>
</a>
</g>
</g>
<!-- Node13&#45;&gt;Node24 -->
<g id="edge31_Node000013_Node000024" class="edge">
<title>Node13&#45;&gt;Node24</title>
<g id="a_edge31_Node000013_Node000024"><a xlink:title=" ">
<path fill="none" stroke="#63b8ff" d="M697.49,-229.07C774.38,-221.16 896.09,-206.75 1000,-186 1003,-185.4 1006.06,-184.75 1009.14,-184.06"/>
<polygon fill="#63b8ff" stroke="#63b8ff" points="697.58,-225.54 687.98,-230.04 698.29,-232.51 697.58,-225.54"/>
</a>
</g>
</g>
<!-- Node15 -->
<g id="Node000015" class="node">
<title>Node15</title>
<g id="a_Node000015"><a xlink:href="TAProcessor_8cpp.html" target="_top" xlink:title=" ">
<polygon fill="white" stroke="#666666" points="868.25,-30.5 757.75,-30.5 757.75,0 868.25,0 868.25,-30.5"/>
<text text-anchor="start" x="765.75" y="-17" font-family="Helvetica,sans-Serif" font-size="10.00">sourcecode/trigger</text>
<text text-anchor="middle" x="813" y="-5.75" font-family="Helvetica,sans-Serif" font-size="10.00">/src/TAProcessor.cpp</text>
</a>
</g>
</g>
<!-- Node14&#45;&gt;Node15 -->
<g id="edge14_Node000014_Node000015" class="edge">
<title>Node14&#45;&gt;Node15</title>
<g id="a_edge14_Node000014_Node000015"><a xlink:title=" ">
<path fill="none" stroke="#63b8ff" d="M658.16,-142.78C700.77,-129.89 747.73,-114.75 756,-108.25 769.74,-97.45 793.6,-53.78 805.63,-30.7"/>
<polygon fill="#63b8ff" stroke="#63b8ff" points="657.18,-139.42 648.61,-145.65 659.19,-146.12 657.18,-139.42"/>
</a>
</g>
</g>
<!-- Node14&#45;&gt;Node16 -->
<g id="edge15_Node000014_Node000016" class="edge">
<title>Node14&#45;&gt;Node16</title>
<g id="a_edge15_Node000014_Node000016"><a xlink:title=" ">
<path fill="none" stroke="#63b8ff" d="M570.07,-133.57C564.87,-122.91 559.27,-111.44 555.01,-102.73"/>
<polygon fill="#63b8ff" stroke="#63b8ff" points="566.89,-135.02 574.42,-142.47 573.18,-131.94 566.89,-135.02"/>
</a>
</g>
</g>
<!-- Node17&#45;&gt;Node15 -->
<g id="edge17_Node000017_Node000015" class="edge">
<title>Node17&#45;&gt;Node15</title>
<g id="a_edge17_Node000017_Node000015"><a xlink:title=" ">
<path fill="none" stroke="#63b8ff" d="M764.24,-141.41C773.15,-131.91 782.61,-120.29 789,-108.25 802.46,-82.87 808.71,-49.49 811.33,-30.71"/>
<polygon fill="#63b8ff" stroke="#63b8ff" points="761.89,-138.81 757.38,-148.4 766.88,-143.72 761.89,-138.81"/>
</a>
</g>
</g>
<!-- Node17&#45;&gt;Node18 -->
<g id="edge18_Node000017_Node000018" class="edge">
<title>Node17&#45;&gt;Node18</title>
<g id="a_edge18_Node000017_Node000018"><a xlink:title=" ">
<path fill="none" stroke="#63b8ff" d="M783.35,-144.92C812.71,-131.92 850.9,-115 877.84,-103.06"/>
<polygon fill="#63b8ff" stroke="#63b8ff" points="782.08,-141.66 774.35,-148.91 784.92,-148.06 782.08,-141.66"/>
</a>
</g>
</g>
<!-- Node19 -->
<g id="Node000019" class="node">
<title>Node19</title>
<g id="a_Node000019"><a xlink:href="TriggerSourceModel_8hpp.html" target="_top" xlink:title=" ">
<polygon fill="white" stroke="#666666" points="747.12,-108.25 620.88,-108.25 620.88,-66.5 747.12,-66.5 747.12,-108.25"/>
<text text-anchor="start" x="628.88" y="-94.75" font-family="Helvetica,sans-Serif" font-size="10.00">sourcecode/trigger</text>
<text text-anchor="start" x="628.88" y="-83.5" font-family="Helvetica,sans-Serif" font-size="10.00">/src/trigger/TriggerSource</text>
<text text-anchor="middle" x="684" y="-72.25" font-family="Helvetica,sans-Serif" font-size="10.00">Model.hpp</text>
</a>
</g>
</g>
<!-- Node17&#45;&gt;Node19 -->
<g id="edge20_Node000017_Node000019" class="edge">
<title>Node17&#45;&gt;Node19</title>
<g id="a_edge20_Node000017_Node000019"><a xlink:title=" ">
<path fill="none" stroke="#63b8ff" d="M722.43,-140.37C714.91,-130.19 706.21,-118.42 699,-108.66"/>
<polygon fill="#63b8ff" stroke="#63b8ff" points="719.54,-142.34 728.3,-148.3 725.17,-138.18 719.54,-142.34"/>
</a>
</g>
</g>
<!-- Node18&#45;&gt;Node15 -->
<g id="edge19_Node000018_Node000015" class="edge">
<title>Node18&#45;&gt;Node15</title>
<g id="a_edge19_Node000018_Node000015"><a xlink:title=" ">
<path fill="none" stroke="#63b8ff" d="M881.48,-65.25C865.91,-54.11 847.2,-40.72 833.28,-30.76"/>
<polygon fill="#63b8ff" stroke="#63b8ff" points="879.29,-67.99 889.46,-70.96 883.37,-62.3 879.29,-67.99"/>
</a>
</g>
</g>
<!-- Node20&#45;&gt;Node7 -->
<g id="edge25_Node000020_Node000007" class="edge">
<title>Node20&#45;&gt;Node7</title>
<g id="a_edge25_Node000020_Node000007"><a xlink:title=" ">
<path fill="none" stroke="#63b8ff" d="M313.08,-144.75C285.66,-131.77 250.12,-114.94 225.03,-103.06"/>
<polygon fill="#63b8ff" stroke="#63b8ff" points="311.25,-147.76 321.78,-148.87 314.24,-141.43 311.25,-147.76"/>
</a>
</g>
</g>
<!-- Node20&#45;&gt;Node19 -->
<g id="edge26_Node000020_Node000019" class="edge">
<title>Node20&#45;&gt;Node19</title>
<g id="a_edge26_Node000020_Node000019"><a xlink:title=" ">
<path fill="none" stroke="#63b8ff" d="M438.56,-147.06C489.07,-136.56 554.39,-122.43 612,-108.25 614.77,-107.57 617.6,-106.86 620.45,-106.13"/>
<polygon fill="#63b8ff" stroke="#63b8ff" points="437.93,-143.61 428.85,-149.07 439.35,-150.47 437.93,-143.61"/>
</a>
</g>
</g>
<!-- Node21 -->
<g id="Node000021" class="node">
<title>Node21</title>
<g id="a_Node000021"><a xlink:href="TCProcessor_8cpp.html" target="_top" xlink:title=" ">
<polygon fill="white" stroke="#666666" points="410.25,-30.5 299.75,-30.5 299.75,0 410.25,0 410.25,-30.5"/>
<text text-anchor="start" x="307.75" y="-17" font-family="Helvetica,sans-Serif" font-size="10.00">sourcecode/trigger</text>
<text text-anchor="middle" x="355" y="-5.75" font-family="Helvetica,sans-Serif" font-size="10.00">/src/TCProcessor.cpp</text>
</a>
</g>
</g>
<!-- Node20&#45;&gt;Node21 -->
<g id="edge22_Node000020_Node000021" class="edge">
<title>Node20&#45;&gt;Node21</title>
<g id="a_edge22_Node000020_Node000021"><a xlink:title=" ">
<path fill="none" stroke="#63b8ff" d="M338.19,-139.87C332.9,-130.4 327.67,-119.2 325,-108.25 320.6,-90.22 320.07,-84.39 325,-66.5 328.62,-53.38 336.67,-40.22 343.52,-30.67"/>
<polygon fill="#63b8ff" stroke="#63b8ff" points="335.16,-141.62 343.28,-148.42 341.17,-138.04 335.16,-141.62"/>
</a>
</g>
</g>
<!-- Node20&#45;&gt;Node22 -->
<g id="edge23_Node000020_Node000022" class="edge">
<title>Node20&#45;&gt;Node22</title>
<g id="a_edge23_Node000020_Node000022"><a xlink:title=" ">
<path fill="none" stroke="#63b8ff" d="M369.97,-139.94C378,-127.76 387.48,-113.4 394.39,-102.94"/>
<polygon fill="#63b8ff" stroke="#63b8ff" points="367.06,-137.98 364.47,-148.26 372.9,-141.84 367.06,-137.98"/>
</a>
</g>
</g>
<!-- Node22&#45;&gt;Node21 -->
<g id="edge24_Node000022_Node000021" class="edge">
<title>Node22&#45;&gt;Node21</title>
<g id="a_edge24_Node000022_Node000021"><a xlink:title=" ">
<path fill="none" stroke="#63b8ff" d="M387.45,-62.69C380.05,-52.11 371.58,-39.97 365.14,-30.76"/>
<polygon fill="#63b8ff" stroke="#63b8ff" points="384.38,-64.41 392.98,-70.6 390.12,-60.4 384.38,-64.41"/>
</a>
</g>
</g>
</g>
</svg>
