<?xml version="1.0" encoding="UTF-8" standalone="no"?>
<!DOCTYPE svg PUBLIC "-//W3C//DTD SVG 1.1//EN"
 "http://www.w3.org/Graphics/SVG/1.1/DTD/svg11.dtd">
<!-- Generated by graphviz version 9.0.0 (20230911.1827)
 -->
<!-- Title: sourcecode/daqdataformats/include/daqdataformats/TriggerRecordHeader.hpp Pages: 1 -->
<svg width="1046pt" height="293pt"
 viewBox="0.00 0.00 1045.62 293.25" xmlns="http://www.w3.org/2000/svg" xmlns:xlink="http://www.w3.org/1999/xlink">
<g id="graph0" class="graph" transform="scale(1 1) rotate(0) translate(4 289.25)">
<title>sourcecode/daqdataformats/include/daqdataformats/TriggerRecordHeader.hpp</title>
<!-- Node1 -->
<g id="Node000001" class="node">
<title>Node1</title>
<g id="a_Node000001"><a xlink:title=" ">
<polygon fill="#999999" stroke="#666666" points="789,-285.25 652.25,-285.25 652.25,-243.5 789,-243.5 789,-285.25"/>
<text text-anchor="start" x="660.25" y="-271.75" font-family="Helvetica,sans-Serif" font-size="10.00">sourcecode/daqdataformats</text>
<text text-anchor="start" x="660.25" y="-260.5" font-family="Helvetica,sans-Serif" font-size="10.00">/include/daqdataformats</text>
<text text-anchor="middle" x="720.62" y="-249.25" font-family="Helvetica,sans-Serif" font-size="10.00">/TriggerRecordHeader.hpp</text>
</a>
</g>
</g>
<!-- Node2 -->
<g id="Node000002" class="node">
<title>Node2</title>
<g id="a_Node000002"><a xlink:href="ComponentRequest_8hpp.html" target="_top" xlink:title=" ">
<polygon fill="white" stroke="#666666" points="573.62,-141 437.62,-141 437.62,-110.5 573.62,-110.5 573.62,-141"/>
<text text-anchor="start" x="445.62" y="-127.5" font-family="Helvetica,sans-Serif" font-size="10.00">daqdataformats/Component</text>
<text text-anchor="middle" x="505.62" y="-116.25" font-family="Helvetica,sans-Serif" font-size="10.00">Request.hpp</text>
</a>
</g>
</g>
<!-- Node1&#45;&gt;Node2 -->
<g id="edge1_Node000001_Node000002" class="edge">
<title>Node1&#45;&gt;Node2</title>
<g id="a_edge1_Node000001_Node000002"><a xlink:title=" ">
<path fill="none" stroke="#63b8ff" d="M688.9,-243.22C648.43,-217.5 578.82,-173.26 538.03,-147.34"/>
<polygon fill="#63b8ff" stroke="#63b8ff" points="540.16,-144.55 529.84,-142.14 536.4,-150.45 540.16,-144.55"/>
</a>
</g>
</g>
<!-- Node3 -->
<g id="Node000003" class="node">
<title>Node3</title>
<g id="a_Node000003"><a xlink:href="SourceID_8hpp.html" target="_top" xlink:title=" ">
<polygon fill="white" stroke="#666666" points="353.12,-74.5 208.12,-74.5 208.12,-55.25 353.12,-55.25 353.12,-74.5"/>
<text text-anchor="middle" x="280.62" y="-61" font-family="Helvetica,sans-Serif" font-size="10.00">daqdataformats/SourceID.hpp</text>
</a>
</g>
</g>
<!-- Node1&#45;&gt;Node3 -->
<g id="edge21_Node000001_Node000003" class="edge">
<title>Node1&#45;&gt;Node3</title>
<g id="a_edge21_Node000001_Node000003"><a xlink:title=" ">
<path fill="none" stroke="#63b8ff" d="M652.14,-262.18C552.61,-259.06 374.63,-247.83 326.62,-207.5 290.27,-176.95 282.4,-117.32 280.86,-86.08"/>
<polygon fill="#63b8ff" stroke="#63b8ff" points="284.37,-86.33 280.57,-76.44 277.37,-86.54 284.37,-86.33"/>
</a>
</g>
</g>
<!-- Node5 -->
<g id="Node000005" class="node">
<title>Node5</title>
<g id="a_Node000005"><a xlink:title=" ">
<polygon fill="#e0e0e0" stroke="#999999" points="610.75,-19.25 562.5,-19.25 562.5,0 610.75,0 610.75,-19.25"/>
<text text-anchor="middle" x="586.62" y="-5.75" font-family="Helvetica,sans-Serif" font-size="10.00">cstddef</text>
</a>
</g>
</g>
<!-- Node1&#45;&gt;Node5 -->
<g id="edge33_Node000001_Node000005" class="edge">
<title>Node1&#45;&gt;Node5</title>
<g id="a_edge33_Node000001_Node000005"><a xlink:title=" ">
<path fill="none" stroke="#63b8ff" d="M718.94,-243.11C715.69,-212.63 706.62,-153.95 682.62,-110.5 663.58,-76.02 629.62,-44.78 607.61,-26.75"/>
<polygon fill="#63b8ff" stroke="#63b8ff" points="609.9,-24.1 599.9,-20.59 605.53,-29.57 609.9,-24.1"/>
</a>
</g>
</g>
<!-- Node10 -->
<g id="Node000010" class="node">
<title>Node10</title>
<g id="a_Node000010"><a xlink:title=" ">
<polygon fill="#e0e0e0" stroke="#999999" points="752.25,-19.25 701,-19.25 701,0 752.25,0 752.25,-19.25"/>
<text text-anchor="middle" x="726.62" y="-5.75" font-family="Helvetica,sans-Serif" font-size="10.00">ostream</text>
</a>
</g>
</g>
<!-- Node1&#45;&gt;Node10 -->
<g id="edge36_Node000001_Node000010" class="edge">
<title>Node1&#45;&gt;Node10</title>
<g id="a_edge36_Node000001_Node000010"><a xlink:title=" ">
<path fill="none" stroke="#63b8ff" d="M736.17,-243.09C742.96,-232.98 750.15,-220.22 753.62,-207.5 771.03,-143.81 747.32,-65.33 734.25,-29.76"/>
<polygon fill="#63b8ff" stroke="#63b8ff" points="737.68,-28.93 730.83,-20.84 731.14,-31.43 737.68,-28.93"/>
</a>
</g>
</g>
<!-- Node12 -->
<g id="Node000012" class="node">
<title>Node12</title>
<g id="a_Node000012"><a xlink:title=" ">
<polygon fill="#e0e0e0" stroke="#999999" points="668.62,-19.25 628.62,-19.25 628.62,0 668.62,0 668.62,-19.25"/>
<text text-anchor="middle" x="648.62" y="-5.75" font-family="Helvetica,sans-Serif" font-size="10.00">string</text>
</a>
</g>
</g>
<!-- Node1&#45;&gt;Node12 -->
<g id="edge38_Node000001_Node000012" class="edge">
<title>Node1&#45;&gt;Node12</title>
<g id="a_edge38_Node000001_Node000012"><a xlink:title=" ">
<path fill="none" stroke="#63b8ff" d="M723.39,-243.48C726.76,-213.73 730.37,-156.25 715.62,-110.5 705.21,-78.2 681.01,-46.65 664.73,-27.92"/>
<polygon fill="#63b8ff" stroke="#63b8ff" points="667.55,-25.83 658.27,-20.72 662.34,-30.5 667.55,-25.83"/>
</a>
</g>
</g>
<!-- Node15 -->
<g id="Node000015" class="node">
<title>Node15</title>
<g id="a_Node000015"><a xlink:href="daqdataformats_2include_2daqdataformats_2Types_8hpp.html" target="_top" xlink:title=" ">
<polygon fill="white" stroke="#666666" points="190,-74.5 59.25,-74.5 59.25,-55.25 190,-55.25 190,-74.5"/>
<text text-anchor="middle" x="124.62" y="-61" font-family="Helvetica,sans-Serif" font-size="10.00">daqdataformats/Types.hpp</text>
</a>
</g>
</g>
<!-- Node1&#45;&gt;Node15 -->
<g id="edge31_Node000001_Node000015" class="edge">
<title>Node1&#45;&gt;Node15</title>
<g id="a_edge31_Node000001_Node000015"><a xlink:title=" ">
<path fill="none" stroke="#63b8ff" d="M652.15,-258.81C549.59,-251.21 361.52,-234.12 299.62,-207.5 231.29,-178.11 167.84,-114.15 139.78,-83.26"/>
<polygon fill="#63b8ff" stroke="#63b8ff" points="142.52,-81.07 133.25,-75.94 137.3,-85.73 142.52,-81.07"/>
</a>
</g>
</g>
<!-- Node17 -->
<g id="Node000017" class="node">
<title>Node17</title>
<g id="a_Node000017"><a xlink:href="TriggerRecordHeaderData_8hpp.html" target="_top" xlink:title=" ">
<polygon fill="white" stroke="#666666" points="483.25,-207.5 336,-207.5 336,-177 483.25,-177 483.25,-207.5"/>
<text text-anchor="start" x="344" y="-194" font-family="Helvetica,sans-Serif" font-size="10.00">daqdataformats/TriggerRecord</text>
<text text-anchor="middle" x="409.62" y="-182.75" font-family="Helvetica,sans-Serif" font-size="10.00">HeaderData.hpp</text>
</a>
</g>
</g>
<!-- Node1&#45;&gt;Node17 -->
<g id="edge22_Node000001_Node000017" class="edge">
<title>Node1&#45;&gt;Node17</title>
<g id="a_edge22_Node000001_Node000017"><a xlink:title=" ">
<path fill="none" stroke="#63b8ff" d="M651.99,-247.9C602.83,-236.81 536.61,-221.88 485.81,-210.43"/>
<polygon fill="#63b8ff" stroke="#63b8ff" points="486.89,-207.09 476.37,-208.3 485.35,-213.91 486.89,-207.09"/>
</a>
</g>
</g>
<!-- Node18 -->
<g id="Node000018" class="node">
<title>Node18</title>
<g id="a_Node000018"><a xlink:title=" ">
<polygon fill="#e0e0e0" stroke="#999999" points="673.12,-135.38 630.12,-135.38 630.12,-116.12 673.12,-116.12 673.12,-135.38"/>
<text text-anchor="middle" x="651.62" y="-121.88" font-family="Helvetica,sans-Serif" font-size="10.00">vector</text>
</a>
</g>
</g>
<!-- Node1&#45;&gt;Node18 -->
<g id="edge39_Node000001_Node000018" class="edge">
<title>Node1&#45;&gt;Node18</title>
<g id="a_edge39_Node000001_Node000018"><a xlink:title=" ">
<path fill="none" stroke="#63b8ff" d="M707.99,-243.25C701.59,-232.76 693.88,-219.61 687.62,-207.5 677.09,-187.08 666.57,-162.94 659.64,-146.4"/>
<polygon fill="#63b8ff" stroke="#63b8ff" points="662.92,-145.17 655.87,-137.27 656.45,-147.85 662.92,-145.17"/>
</a>
</g>
</g>
<!-- Node19 -->
<g id="Node000019" class="node">
<title>Node19</title>
<g id="a_Node000019"><a xlink:title=" ">
<polygon fill="#e0e0e0" stroke="#999999" points="845.62,-201.88 805.62,-201.88 805.62,-182.62 845.62,-182.62 845.62,-201.88"/>
<text text-anchor="middle" x="825.62" y="-188.38" font-family="Helvetica,sans-Serif" font-size="10.00">bitset</text>
</a>
</g>
</g>
<!-- Node1&#45;&gt;Node19 -->
<g id="edge32_Node000001_Node000019" class="edge">
<title>Node1&#45;&gt;Node19</title>
<g id="a_edge32_Node000001_Node000019"><a xlink:title=" ">
<path fill="none" stroke="#63b8ff" d="M751,-243.09C767.59,-232.01 787.79,-218.52 802.99,-208.36"/>
<polygon fill="#63b8ff" stroke="#63b8ff" points="804.54,-211.54 810.91,-203.08 800.65,-205.72 804.54,-211.54"/>
</a>
</g>
</g>
<!-- Node20 -->
<g id="Node000020" class="node">
<title>Node20</title>
<g id="a_Node000020"><a xlink:title=" ">
<polygon fill="#e0e0e0" stroke="#999999" points="909.25,-201.88 864,-201.88 864,-182.62 909.25,-182.62 909.25,-201.88"/>
<text text-anchor="middle" x="886.62" y="-188.38" font-family="Helvetica,sans-Serif" font-size="10.00">cstring</text>
</a>
</g>
</g>
<!-- Node1&#45;&gt;Node20 -->
<g id="edge34_Node000001_Node000020" class="edge">
<title>Node1&#45;&gt;Node20</title>
<g id="a_edge34_Node000001_Node000020"><a xlink:title=" ">
<path fill="none" stroke="#63b8ff" d="M770.07,-243.09C795.41,-232.61 826.73,-219.52 854.62,-207.5 855.1,-207.3 855.58,-207.09 856.06,-206.88"/>
<polygon fill="#63b8ff" stroke="#63b8ff" points="857.21,-210.2 864.96,-202.98 854.39,-203.79 857.21,-210.2"/>
</a>
</g>
</g>
<!-- Node21 -->
<g id="Node000021" class="node">
<title>Node21</title>
<g id="a_Node000021"><a xlink:title=" ">
<polygon fill="#e0e0e0" stroke="#999999" points="961.62,-201.88 927.62,-201.88 927.62,-182.62 961.62,-182.62 961.62,-201.88"/>
<text text-anchor="middle" x="944.62" y="-188.38" font-family="Helvetica,sans-Serif" font-size="10.00">new</text>
</a>
</g>
</g>
<!-- Node1&#45;&gt;Node21 -->
<g id="edge35_Node000001_Node000021" class="edge">
<title>Node1&#45;&gt;Node21</title>
<g id="a_edge35_Node000001_Node000021"><a xlink:title=" ">
<path fill="none" stroke="#63b8ff" d="M789.26,-248.08C827.97,-238.45 876.8,-224.6 918.62,-207.5 918.85,-207.41 919.08,-207.31 919.31,-207.22"/>
<polygon fill="#63b8ff" stroke="#63b8ff" points="920.67,-210.45 928.15,-202.94 917.62,-204.15 920.67,-210.45"/>
</a>
</g>
</g>
<!-- Node22 -->
<g id="Node000022" class="node">
<title>Node22</title>
<g id="a_Node000022"><a xlink:title=" ">
<polygon fill="#e0e0e0" stroke="#999999" points="1037.62,-201.88 979.62,-201.88 979.62,-182.62 1037.62,-182.62 1037.62,-201.88"/>
<text text-anchor="middle" x="1008.62" y="-188.38" font-family="Helvetica,sans-Serif" font-size="10.00">stdexcept</text>
</a>
</g>
</g>
<!-- Node1&#45;&gt;Node22 -->
<g id="edge37_Node000001_Node000022" class="edge">
<title>Node1&#45;&gt;Node22</title>
<g id="a_edge37_Node000001_Node000022"><a xlink:title=" ">
<path fill="none" stroke="#63b8ff" d="M789.46,-250.67C840.05,-240.69 910.2,-225.49 970.62,-207.5 972.19,-207.04 973.78,-206.54 975.38,-206.02"/>
<polygon fill="#63b8ff" stroke="#63b8ff" points="976.17,-209.45 984.46,-202.86 973.87,-202.84 976.17,-209.45"/>
</a>
</g>
</g>
<!-- Node2&#45;&gt;Node3 -->
<g id="edge2_Node000002_Node000003" class="edge">
<title>Node2&#45;&gt;Node3</title>
<g id="a_edge2_Node000002_Node000003"><a xlink:title=" ">
<path fill="none" stroke="#63b8ff" d="M449.43,-110.05C411.49,-100.12 362.05,-87.18 326.49,-77.88"/>
<polygon fill="#63b8ff" stroke="#63b8ff" points="327.49,-74.52 316.93,-75.37 325.71,-81.29 327.49,-74.52"/>
</a>
</g>
</g>
<!-- Node2&#45;&gt;Node5 -->
<g id="edge17_Node000002_Node000005" class="edge">
<title>Node2&#45;&gt;Node5</title>
<g id="a_edge17_Node000002_Node000005"><a xlink:title=" ">
<path fill="none" stroke="#63b8ff" d="M496.88,-110.05C489.28,-95.15 481,-71.98 491.62,-55.25 498.61,-44.25 527.47,-31.6 551.56,-22.59"/>
<polygon fill="#63b8ff" stroke="#63b8ff" points="552.58,-25.94 560.78,-19.24 550.19,-19.36 552.58,-25.94"/>
</a>
</g>
</g>
<!-- Node2&#45;&gt;Node10 -->
<g id="edge19_Node000002_Node000010" class="edge">
<title>Node2&#45;&gt;Node10</title>
<g id="a_edge19_Node000002_Node000010"><a xlink:title=" ">
<path fill="none" stroke="#63b8ff" d="M534.06,-110.06C576.75,-88.02 656.85,-46.66 699.03,-24.87"/>
<polygon fill="#63b8ff" stroke="#63b8ff" points="700.51,-28.05 707.79,-20.35 697.3,-21.83 700.51,-28.05"/>
</a>
</g>
</g>
<!-- Node2&#45;&gt;Node12 -->
<g id="edge20_Node000002_Node000012" class="edge">
<title>Node2&#45;&gt;Node12</title>
<g id="a_edge20_Node000002_Node000012"><a xlink:title=" ">
<path fill="none" stroke="#63b8ff" d="M505.83,-110.11C506.82,-94.6 510.7,-70.31 524.62,-55.25 531.17,-48.17 582.79,-31.09 617.34,-20.23"/>
<polygon fill="#63b8ff" stroke="#63b8ff" points="618.36,-23.58 626.86,-17.26 616.27,-16.89 618.36,-23.58"/>
</a>
</g>
</g>
<!-- Node2&#45;&gt;Node15 -->
<g id="edge14_Node000002_Node000015" class="edge">
<title>Node2&#45;&gt;Node15</title>
<g id="a_edge14_Node000002_Node000015"><a xlink:title=" ">
<path fill="none" stroke="#63b8ff" d="M437.51,-114.22C368.98,-103.63 263.8,-87.38 194.61,-76.69"/>
<polygon fill="#63b8ff" stroke="#63b8ff" points="195.32,-73.26 184.9,-75.19 194.25,-80.18 195.32,-73.26"/>
</a>
</g>
</g>
<!-- Node16 -->
<g id="Node000016" class="node">
<title>Node16</title>
<g id="a_Node000016"><a xlink:title=" ">
<polygon fill="#e0e0e0" stroke="#999999" points="587.38,-74.5 533.88,-74.5 533.88,-55.25 587.38,-55.25 587.38,-74.5"/>
<text text-anchor="middle" x="560.62" y="-61" font-family="Helvetica,sans-Serif" font-size="10.00">iostream</text>
</a>
</g>
</g>
<!-- Node2&#45;&gt;Node16 -->
<g id="edge18_Node000002_Node000016" class="edge">
<title>Node2&#45;&gt;Node16</title>
<g id="a_edge18_Node000002_Node000016"><a xlink:title=" ">
<path fill="none" stroke="#63b8ff" d="M519.22,-110.2C526.87,-102.01 536.47,-91.73 544.5,-83.14"/>
<polygon fill="#63b8ff" stroke="#63b8ff" points="546.84,-85.75 551.11,-76.06 541.73,-80.98 546.84,-85.75"/>
</a>
</g>
</g>
<!-- Node4 -->
<g id="Node000004" class="node">
<title>Node4</title>
<g id="a_Node000004"><a xlink:title=" ">
<polygon fill="#e0e0e0" stroke="#999999" points="544.75,-19.25 496.5,-19.25 496.5,0 544.75,0 544.75,-19.25"/>
<text text-anchor="middle" x="520.62" y="-5.75" font-family="Helvetica,sans-Serif" font-size="10.00">cassert</text>
</a>
</g>
</g>
<!-- Node3&#45;&gt;Node4 -->
<g id="edge3_Node000003_Node000004" class="edge">
<title>Node3&#45;&gt;Node4</title>
<g id="a_edge3_Node000003_Node000004"><a xlink:title=" ">
<path fill="none" stroke="#63b8ff" d="M325.57,-54.77C365.21,-46.61 424.79,-34.03 485.25,-19.74"/>
<polygon fill="#63b8ff" stroke="#63b8ff" points="485.76,-23.22 494.67,-17.5 484.14,-16.41 485.76,-23.22"/>
</a>
</g>
</g>
<!-- Node3&#45;&gt;Node5 -->
<g id="edge4_Node000003_Node000005" class="edge">
<title>Node3&#45;&gt;Node5</title>
<g id="a_edge4_Node000003_Node000005"><a xlink:title=" ">
<path fill="none" stroke="#63b8ff" d="M347.15,-54.78C400.03,-47.14 476.09,-35.26 551.12,-19.62"/>
<polygon fill="#63b8ff" stroke="#63b8ff" points="551.64,-23.09 560.7,-17.6 550.19,-16.24 551.64,-23.09"/>
</a>
</g>
</g>
<!-- Node6 -->
<g id="Node000006" class="node">
<title>Node6</title>
<g id="a_Node000006"><a xlink:title=" ">
<polygon fill="#e0e0e0" stroke="#999999" points="102.25,-19.25 57,-19.25 57,0 102.25,0 102.25,-19.25"/>
<text text-anchor="middle" x="79.62" y="-5.75" font-family="Helvetica,sans-Serif" font-size="10.00">cstdint</text>
</a>
</g>
</g>
<!-- Node3&#45;&gt;Node6 -->
<g id="edge5_Node000003_Node000006" class="edge">
<title>Node3&#45;&gt;Node6</title>
<g id="a_edge5_Node000003_Node000006"><a xlink:title=" ">
<path fill="none" stroke="#63b8ff" d="M245.98,-54.78C214.08,-46.4 165.14,-33.51 113.7,-19.79"/>
<polygon fill="#63b8ff" stroke="#63b8ff" points="114.72,-16.44 104.16,-17.25 112.92,-23.21 114.72,-16.44"/>
</a>
</g>
</g>
<!-- Node7 -->
<g id="Node000007" class="node">
<title>Node7</title>
<g id="a_Node000007"><a xlink:title=" ">
<polygon fill="#e0e0e0" stroke="#999999" points="170.5,-19.25 120.75,-19.25 120.75,0 170.5,0 170.5,-19.25"/>
<text text-anchor="middle" x="145.62" y="-5.75" font-family="Helvetica,sans-Serif" font-size="10.00">iomanip</text>
</a>
</g>
</g>
<!-- Node3&#45;&gt;Node7 -->
<g id="edge6_Node000003_Node000007" class="edge">
<title>Node3&#45;&gt;Node7</title>
<g id="a_edge6_Node000003_Node000007"><a xlink:title=" ">
<path fill="none" stroke="#63b8ff" d="M257.72,-54.84C236.2,-46.35 203.71,-33.54 179.25,-23.89"/>
<polygon fill="#63b8ff" stroke="#63b8ff" points="180.63,-20.67 170.05,-20.26 178.06,-27.18 180.63,-20.67"/>
</a>
</g>
</g>
<!-- Node8 -->
<g id="Node000008" class="node">
<title>Node8</title>
<g id="a_Node000008"><a xlink:title=" ">
<polygon fill="#e0e0e0" stroke="#999999" points="236.75,-19.25 188.5,-19.25 188.5,0 236.75,0 236.75,-19.25"/>
<text text-anchor="middle" x="212.62" y="-5.75" font-family="Helvetica,sans-Serif" font-size="10.00">istream</text>
</a>
</g>
</g>
<!-- Node3&#45;&gt;Node8 -->
<g id="edge7_Node000003_Node000008" class="edge">
<title>Node3&#45;&gt;Node8</title>
<g id="a_edge7_Node000003_Node000008"><a xlink:title=" ">
<path fill="none" stroke="#63b8ff" d="M269.09,-54.84C259.16,-47.07 244.61,-35.67 232.77,-26.4"/>
<polygon fill="#63b8ff" stroke="#63b8ff" points="235.21,-23.87 225.18,-20.46 230.9,-29.38 235.21,-23.87"/>
</a>
</g>
</g>
<!-- Node9 -->
<g id="Node000009" class="node">
<title>Node9</title>
<g id="a_Node000009"><a xlink:title=" ">
<polygon fill="#e0e0e0" stroke="#999999" points="39.25,-19.25 0,-19.25 0,0 39.25,0 39.25,-19.25"/>
<text text-anchor="middle" x="19.62" y="-5.75" font-family="Helvetica,sans-Serif" font-size="10.00">limits</text>
</a>
</g>
</g>
<!-- Node3&#45;&gt;Node9 -->
<g id="edge8_Node000003_Node000009" class="edge">
<title>Node3&#45;&gt;Node9</title>
<g id="a_edge8_Node000003_Node000009"><a xlink:title=" ">
<path fill="none" stroke="#63b8ff" d="M223.75,-54.77C178.93,-47.2 114.67,-35.45 50.81,-19.85"/>
<polygon fill="#63b8ff" stroke="#63b8ff" points="51.76,-16.48 41.21,-17.47 50.07,-23.28 51.76,-16.48"/>
</a>
</g>
</g>
<!-- Node3&#45;&gt;Node10 -->
<g id="edge9_Node000003_Node000010" class="edge">
<title>Node3&#45;&gt;Node10</title>
<g id="a_edge9_Node000003_Node000010"><a xlink:title=" ">
<path fill="none" stroke="#63b8ff" d="M353.61,-57.05C433.38,-49.26 564.87,-35.49 677.62,-19.25 681.5,-18.69 685.55,-18.06 689.58,-17.4"/>
<polygon fill="#63b8ff" stroke="#63b8ff" points="689.97,-20.88 699.24,-15.75 688.8,-13.98 689.97,-20.88"/>
</a>
</g>
</g>
<!-- Node11 -->
<g id="Node000011" class="node">
<title>Node11</title>
<g id="a_Node000011"><a xlink:title=" ">
<polygon fill="#e0e0e0" stroke="#999999" points="306.25,-19.25 255,-19.25 255,0 306.25,0 306.25,-19.25"/>
<text text-anchor="middle" x="280.62" y="-5.75" font-family="Helvetica,sans-Serif" font-size="10.00">sstream</text>
</a>
</g>
</g>
<!-- Node3&#45;&gt;Node11 -->
<g id="edge10_Node000003_Node000011" class="edge">
<title>Node3&#45;&gt;Node11</title>
<g id="a_edge10_Node000003_Node000011"><a xlink:title=" ">
<path fill="none" stroke="#63b8ff" d="M280.62,-55.08C280.62,-48.57 280.62,-39.42 280.62,-31.12"/>
<polygon fill="#63b8ff" stroke="#63b8ff" points="284.13,-31.12 280.63,-21.12 277.13,-31.12 284.13,-31.12"/>
</a>
</g>
</g>
<!-- Node3&#45;&gt;Node12 -->
<g id="edge11_Node000003_Node000012" class="edge">
<title>Node3&#45;&gt;Node12</title>
<g id="a_edge11_Node000003_Node000012"><a xlink:title=" ">
<path fill="none" stroke="#63b8ff" d="M353.6,-57.64C420.08,-51.19 521.07,-39.49 617.06,-19.5"/>
<polygon fill="#63b8ff" stroke="#63b8ff" points="617.6,-22.97 626.65,-17.47 616.14,-16.12 617.6,-22.97"/>
</a>
</g>
</g>
<!-- Node13 -->
<g id="Node000013" class="node">
<title>Node13</title>
<g id="a_Node000013"><a xlink:title=" ">
<polygon fill="#e0e0e0" stroke="#999999" points="361.12,-19.25 324.12,-19.25 324.12,0 361.12,0 361.12,-19.25"/>
<text text-anchor="middle" x="342.62" y="-5.75" font-family="Helvetica,sans-Serif" font-size="10.00">tuple</text>
</a>
</g>
</g>
<!-- Node3&#45;&gt;Node13 -->
<g id="edge12_Node000003_Node000013" class="edge">
<title>Node3&#45;&gt;Node13</title>
<g id="a_edge12_Node000003_Node000013"><a xlink:title=" ">
<path fill="none" stroke="#63b8ff" d="M291.14,-54.84C300.01,-47.22 312.94,-36.12 323.61,-26.95"/>
<polygon fill="#63b8ff" stroke="#63b8ff" points="325.81,-29.68 331.11,-20.51 321.25,-24.37 325.81,-29.68"/>
</a>
</g>
</g>
<!-- Node14 -->
<g id="Node000014" class="node">
<title>Node14</title>
<g id="a_Node000014"><a xlink:href="SourceID_8hxx.html" target="_top" xlink:title=" ">
<polygon fill="white" stroke="#666666" points="478.25,-19.25 379,-19.25 379,0 478.25,0 478.25,-19.25"/>
<text text-anchor="middle" x="428.62" y="-5.75" font-family="Helvetica,sans-Serif" font-size="10.00">detail/SourceID.hxx</text>
</a>
</g>
</g>
<!-- Node3&#45;&gt;Node14 -->
<g id="edge13_Node000003_Node000014" class="edge">
<title>Node3&#45;&gt;Node14</title>
<g id="a_edge13_Node000003_Node000014"><a xlink:title=" ">
<path fill="none" stroke="#63b8ff" d="M305.73,-54.84C329.65,-46.24 365.91,-33.19 392.85,-23.5"/>
<polygon fill="#63b8ff" stroke="#63b8ff" points="393.75,-26.89 401.97,-20.21 391.38,-20.31 393.75,-26.89"/>
</a>
</g>
</g>
<!-- Node15&#45;&gt;Node6 -->
<g id="edge15_Node000015_Node000006" class="edge">
<title>Node15&#45;&gt;Node6</title>
<g id="a_edge15_Node000015_Node000006"><a xlink:title=" ">
<path fill="none" stroke="#63b8ff" d="M117.19,-55.08C111.04,-47.8 102.11,-37.23 94.5,-28.23"/>
<polygon fill="#63b8ff" stroke="#63b8ff" points="97.32,-26.14 88.19,-20.77 91.98,-30.66 97.32,-26.14"/>
</a>
</g>
</g>
<!-- Node15&#45;&gt;Node9 -->
<g id="edge16_Node000015_Node000009" class="edge">
<title>Node15&#45;&gt;Node9</title>
<g id="a_edge16_Node000015_Node000009"><a xlink:title=" ">
<path fill="none" stroke="#63b8ff" d="M106.81,-54.84C90.6,-46.62 66.39,-34.34 47.59,-24.81"/>
<polygon fill="#63b8ff" stroke="#63b8ff" points="49.38,-21.79 38.87,-20.39 46.21,-28.03 49.38,-21.79"/>
</a>
</g>
</g>
<!-- Node17&#45;&gt;Node2 -->
<g id="edge23_Node000017_Node000002" class="edge">
<title>Node17&#45;&gt;Node2</title>
<g id="a_edge23_Node000017_Node000002"><a xlink:title=" ">
<path fill="none" stroke="#63b8ff" d="M431.41,-176.61C444.17,-168.04 460.51,-157.06 474.6,-147.59"/>
<polygon fill="#63b8ff" stroke="#63b8ff" points="476.32,-150.65 482.67,-142.17 472.42,-144.84 476.32,-150.65"/>
</a>
</g>
</g>
<!-- Node17&#45;&gt;Node3 -->
<g id="edge24_Node000017_Node000003" class="edge">
<title>Node17&#45;&gt;Node3</title>
<g id="a_edge24_Node000017_Node000003"><a xlink:title=" ">
<path fill="none" stroke="#63b8ff" d="M394.59,-176.76C384.19,-166.73 370.05,-153.07 357.62,-141 337.02,-120.99 313.37,-97.9 297.79,-82.66"/>
<polygon fill="#63b8ff" stroke="#63b8ff" points="300.3,-80.23 290.7,-75.74 295.41,-85.23 300.3,-80.23"/>
</a>
</g>
</g>
<!-- Node17&#45;&gt;Node5 -->
<g id="edge26_Node000017_Node000005" class="edge">
<title>Node17&#45;&gt;Node5</title>
<g id="a_edge26_Node000017_Node000005"><a xlink:title=" ">
<path fill="none" stroke="#63b8ff" d="M401.74,-176.62C393.78,-159.7 384.17,-131.48 395.62,-110.5 411.92,-80.67 501.27,-42.88 551.79,-23.45"/>
<polygon fill="#63b8ff" stroke="#63b8ff" points="552.72,-26.84 560.82,-20.02 550.23,-20.3 552.72,-26.84"/>
</a>
</g>
</g>
<!-- Node17&#45;&gt;Node9 -->
<g id="edge27_Node000017_Node000009" class="edge">
<title>Node17&#45;&gt;Node9</title>
<g id="a_edge27_Node000017_Node000009"><a xlink:title=" ">
<path fill="none" stroke="#63b8ff" d="M335.77,-184.99C256.29,-174.61 130.56,-147.09 50.62,-74.5 37.64,-62.71 29.51,-44.29 24.85,-30.25"/>
<polygon fill="#63b8ff" stroke="#63b8ff" points="28.24,-29.37 22.05,-20.77 21.53,-31.36 28.24,-29.37"/>
</a>
</g>
</g>
<!-- Node17&#45;&gt;Node10 -->
<g id="edge28_Node000017_Node000010" class="edge">
<title>Node17&#45;&gt;Node10</title>
<g id="a_edge28_Node000017_Node000010"><a xlink:title=" ">
<path fill="none" stroke="#63b8ff" d="M483.65,-177.54C515.43,-169.72 552.18,-158 582.62,-141 597.08,-132.93 674.08,-60.54 709.17,-27.24"/>
<polygon fill="#63b8ff" stroke="#63b8ff" points="711.19,-30.15 716.03,-20.73 706.37,-25.08 711.19,-30.15"/>
</a>
</g>
</g>
<!-- Node17&#45;&gt;Node12 -->
<g id="edge29_Node000017_Node000012" class="edge">
<title>Node17&#45;&gt;Node12</title>
<g id="a_edge29_Node000017_Node000012"><a xlink:title=" ">
<path fill="none" stroke="#63b8ff" d="M409.96,-176.58C411.02,-159.36 414.91,-130.61 428.62,-110.5 452.98,-74.81 469.84,-74.3 508.62,-55.25 518.58,-50.36 579.57,-31.54 617.7,-19.95"/>
<polygon fill="#63b8ff" stroke="#63b8ff" points="618.24,-23.45 626.8,-17.2 616.21,-16.75 618.24,-23.45"/>
</a>
</g>
</g>
<!-- Node17&#45;&gt;Node15 -->
<g id="edge25_Node000017_Node000015" class="edge">
<title>Node17&#45;&gt;Node15</title>
<g id="a_edge25_Node000017_Node000015"><a xlink:title=" ">
<path fill="none" stroke="#63b8ff" d="M376.37,-176.62C320.74,-152.15 209.58,-103.25 155.54,-79.48"/>
<polygon fill="#63b8ff" stroke="#63b8ff" points="157.17,-76.37 146.61,-75.55 154.35,-82.78 157.17,-76.37"/>
</a>
</g>
</g>
<!-- Node17&#45;&gt;Node18 -->
<g id="edge30_Node000017_Node000018" class="edge">
<title>Node17&#45;&gt;Node18</title>
<g id="a_edge30_Node000017_Node000018"><a xlink:title=" ">
<path fill="none" stroke="#63b8ff" d="M480.37,-176.52C520.43,-167.56 571.25,-155.12 615.62,-141 616.96,-140.58 618.31,-140.13 619.68,-139.66"/>
<polygon fill="#63b8ff" stroke="#63b8ff" points="620.5,-143.09 628.68,-136.35 618.08,-136.52 620.5,-143.09"/>
</a>
</g>
</g>
</g>
</svg>
