<?xml version="1.0" encoding="UTF-8" standalone="no"?>
<!DOCTYPE svg PUBLIC "-//W3C//DTD SVG 1.1//EN"
 "http://www.w3.org/Graphics/SVG/1.1/DTD/svg11.dtd">
<!-- Generated by graphviz version 9.0.0 (20230911.1827)
 -->
<!-- Title: sourcecode/trigger/include/trigger/TriggerPrimitiveTypeAdapter.hpp Pages: 1 -->
<svg width="518pt" height="183pt"
 viewBox="0.00 0.00 518.38 182.75" xmlns="http://www.w3.org/2000/svg" xmlns:xlink="http://www.w3.org/1999/xlink">
<g id="graph0" class="graph" transform="scale(1 1) rotate(0) translate(4 178.75)">
<title>sourcecode/trigger/include/trigger/TriggerPrimitiveTypeAdapter.hpp</title>
<!-- Node1 -->
<g id="Node000001" class="node">
<title>Node1</title>
<g id="a_Node000001"><a xlink:title=" ">
<polygon fill="#999999" stroke="#666666" points="316.75,-174.75 165.75,-174.75 165.75,-133 316.75,-133 316.75,-174.75"/>
<text text-anchor="start" x="173.75" y="-161.25" font-family="Helvetica,sans-Serif" font-size="10.00">sourcecode/trigger</text>
<text text-anchor="start" x="173.75" y="-150" font-family="Helvetica,sans-Serif" font-size="10.00">/include/trigger/TriggerPrimitive</text>
<text text-anchor="middle" x="241.25" y="-138.75" font-family="Helvetica,sans-Serif" font-size="10.00">TypeAdapter.hpp</text>
</a>
</g>
</g>
<!-- Node2 -->
<g id="Node000002" class="node">
<title>Node2</title>
<g id="a_Node000002"><a xlink:href="TPProcessor_8hpp.html" target="_top" xlink:title=" ">
<polygon fill="white" stroke="#666666" points="140.5,-97 0,-97 0,-66.5 140.5,-66.5 140.5,-97"/>
<text text-anchor="start" x="8" y="-83.5" font-family="Helvetica,sans-Serif" font-size="10.00">sourcecode/trigger</text>
<text text-anchor="middle" x="70.25" y="-72.25" font-family="Helvetica,sans-Serif" font-size="10.00">/src/trigger/TPProcessor.hpp</text>
</a>
</g>
</g>
<!-- Node1&#45;&gt;Node2 -->
<g id="edge1_Node000001_Node000002" class="edge">
<title>Node1&#45;&gt;Node2</title>
<g id="a_edge1_Node000001_Node000002"><a xlink:title=" ">
<path fill="none" stroke="#63b8ff" d="M181.25,-128.27C156.13,-117.97 127.78,-106.34 106.02,-97.42"/>
<polygon fill="#63b8ff" stroke="#63b8ff" points="179.81,-131.46 190.39,-132.02 182.47,-124.99 179.81,-131.46"/>
</a>
</g>
</g>
<!-- Node4 -->
<g id="Node000004" class="node">
<title>Node4</title>
<g id="a_Node000004"><a xlink:href="TPRequestHandler_8hpp.html" target="_top" xlink:title=" ">
<polygon fill="white" stroke="#666666" points="324.25,-97 158.25,-97 158.25,-66.5 324.25,-66.5 324.25,-97"/>
<text text-anchor="start" x="166.25" y="-83.5" font-family="Helvetica,sans-Serif" font-size="10.00">sourcecode/trigger</text>
<text text-anchor="middle" x="241.25" y="-72.25" font-family="Helvetica,sans-Serif" font-size="10.00">/src/trigger/TPRequestHandler.hpp</text>
</a>
</g>
</g>
<!-- Node1&#45;&gt;Node4 -->
<g id="edge3_Node000001_Node000004" class="edge">
<title>Node1&#45;&gt;Node4</title>
<g id="a_edge3_Node000001_Node000004"><a xlink:title=" ">
<path fill="none" stroke="#63b8ff" d="M241.25,-121.13C241.25,-112.77 241.25,-104.15 241.25,-97.2"/>
<polygon fill="#63b8ff" stroke="#63b8ff" points="237.75,-121.08 241.25,-131.08 244.75,-121.08 237.75,-121.08"/>
</a>
</g>
</g>
<!-- Node6 -->
<g id="Node000006" class="node">
<title>Node6</title>
<g id="a_Node000006"><a xlink:href="TPSetSourceModel_8hpp.html" target="_top" xlink:title=" ">
<polygon fill="white" stroke="#666666" points="510.38,-97 342.12,-97 342.12,-66.5 510.38,-66.5 510.38,-97"/>
<text text-anchor="start" x="350.12" y="-83.5" font-family="Helvetica,sans-Serif" font-size="10.00">sourcecode/trigger</text>
<text text-anchor="middle" x="426.25" y="-72.25" font-family="Helvetica,sans-Serif" font-size="10.00">/src/trigger/TPSetSourceModel.hpp</text>
</a>
</g>
</g>
<!-- Node1&#45;&gt;Node6 -->
<g id="edge5_Node000001_Node000006" class="edge">
<title>Node1&#45;&gt;Node6</title>
<g id="a_edge5_Node000001_Node000006"><a xlink:title=" ">
<path fill="none" stroke="#63b8ff" d="M305.43,-128.55C332.79,-118.18 363.8,-106.42 387.55,-97.42"/>
<polygon fill="#63b8ff" stroke="#63b8ff" points="304.29,-125.24 296.17,-132.06 306.77,-131.78 304.29,-125.24"/>
</a>
</g>
</g>
<!-- Node3 -->
<g id="Node000003" class="node">
<title>Node3</title>
<g id="a_Node000003"><a xlink:href="TPProcessor_8cpp.html" target="_top" xlink:title=" ">
<polygon fill="white" stroke="#666666" points="125.5,-30.5 15,-30.5 15,0 125.5,0 125.5,-30.5"/>
<text text-anchor="start" x="23" y="-17" font-family="Helvetica,sans-Serif" font-size="10.00">sourcecode/trigger</text>
<text text-anchor="middle" x="70.25" y="-5.75" font-family="Helvetica,sans-Serif" font-size="10.00">/src/TPProcessor.cpp</text>
</a>
</g>
</g>
<!-- Node2&#45;&gt;Node3 -->
<g id="edge2_Node000002_Node000003" class="edge">
<title>Node2&#45;&gt;Node3</title>
<g id="a_edge2_Node000002_Node000003"><a xlink:title=" ">
<path fill="none" stroke="#63b8ff" d="M70.25,-54.81C70.25,-46.64 70.25,-37.91 70.25,-30.83"/>
<polygon fill="#63b8ff" stroke="#63b8ff" points="66.75,-54.6 70.25,-64.6 73.75,-54.6 66.75,-54.6"/>
</a>
</g>
</g>
<!-- Node5 -->
<g id="Node000005" class="node">
<title>Node5</title>
<g id="a_Node000005"><a xlink:href="TPRequestHandler_8cpp.html" target="_top" xlink:title=" ">
<polygon fill="white" stroke="#666666" points="309.25,-30.5 173.25,-30.5 173.25,0 309.25,0 309.25,-30.5"/>
<text text-anchor="start" x="181.25" y="-17" font-family="Helvetica,sans-Serif" font-size="10.00">sourcecode/trigger</text>
<text text-anchor="middle" x="241.25" y="-5.75" font-family="Helvetica,sans-Serif" font-size="10.00">/src/TPRequestHandler.cpp</text>
</a>
</g>
</g>
<!-- Node4&#45;&gt;Node5 -->
<g id="edge4_Node000004_Node000005" class="edge">
<title>Node4&#45;&gt;Node5</title>
<g id="a_edge4_Node000004_Node000005"><a xlink:title=" ">
<path fill="none" stroke="#63b8ff" d="M241.25,-54.81C241.25,-46.64 241.25,-37.91 241.25,-30.83"/>
<polygon fill="#63b8ff" stroke="#63b8ff" points="237.75,-54.6 241.25,-64.6 244.75,-54.6 237.75,-54.6"/>
</a>
</g>
</g>
</g>
</svg>
