<?xml version="1.0" encoding="UTF-8" standalone="no"?>
<!DOCTYPE svg PUBLIC "-//W3C//DTD SVG 1.1//EN"
 "http://www.w3.org/Graphics/SVG/1.1/DTD/svg11.dtd">
<!-- Generated by graphviz version 9.0.0 (20230911.1827)
 -->
<!-- Title: sourcecode/triggeralgs/include/triggeralgs/TriggerCandidateFactory.hpp Pages: 1 -->
<svg width="1543pt" height="217pt"
 viewBox="0.00 0.00 1542.50 216.50" xmlns="http://www.w3.org/2000/svg" xmlns:xlink="http://www.w3.org/1999/xlink">
<g id="graph0" class="graph" transform="scale(1 1) rotate(0) translate(4 212.5)">
<title>sourcecode/triggeralgs/include/triggeralgs/TriggerCandidateFactory.hpp</title>
<!-- Node1 -->
<g id="Node000001" class="node">
<title>Node1</title>
<g id="a_Node000001"><a xlink:title=" ">
<polygon fill="#999999" stroke="#666666" points="849.62,-208.5 718.88,-208.5 718.88,-166.75 849.62,-166.75 849.62,-208.5"/>
<text text-anchor="start" x="726.88" y="-195" font-family="Helvetica,sans-Serif" font-size="10.00">sourcecode/triggeralgs</text>
<text text-anchor="start" x="726.88" y="-183.75" font-family="Helvetica,sans-Serif" font-size="10.00">/include/triggeralgs/Trigger</text>
<text text-anchor="middle" x="784.25" y="-172.5" font-family="Helvetica,sans-Serif" font-size="10.00">CandidateFactory.hpp</text>
</a>
</g>
</g>
<!-- Node2 -->
<g id="Node000002" class="node">
<title>Node2</title>
<g id="a_Node000002"><a xlink:href="AlgorithmPlugins_8hpp.html" target="_top" xlink:title=" ">
<polygon fill="white" stroke="#666666" points="238.25,-125.12 114.25,-125.12 114.25,-83.38 238.25,-83.38 238.25,-125.12"/>
<text text-anchor="start" x="122.25" y="-111.62" font-family="Helvetica,sans-Serif" font-size="10.00">sourcecode/trigger</text>
<text text-anchor="start" x="122.25" y="-100.38" font-family="Helvetica,sans-Serif" font-size="10.00">/include/trigger/Algorithm</text>
<text text-anchor="middle" x="176.25" y="-89.12" font-family="Helvetica,sans-Serif" font-size="10.00">Plugins.hpp</text>
</a>
</g>
</g>
<!-- Node1&#45;&gt;Node2 -->
<g id="edge1_Node000001_Node000002" class="edge">
<title>Node1&#45;&gt;Node2</title>
<g id="a_edge1_Node000001_Node000002"><a xlink:title=" ">
<path fill="none" stroke="#63b8ff" d="M707.09,-184.42C601.91,-180.11 408.22,-167.46 247.25,-130.75 240.99,-129.32 234.53,-127.51 228.17,-125.51"/>
<polygon fill="#63b8ff" stroke="#63b8ff" points="706.89,-187.92 717.02,-184.82 707.17,-180.92 706.89,-187.92"/>
</a>
</g>
</g>
<!-- Node5 -->
<g id="Node000005" class="node">
<title>Node5</title>
<g id="a_Node000005"><a xlink:href="TriggerCandidateMakerADCSimpleWindow_8hpp.html" target="_top" xlink:title=" ">
<polygon fill="white" stroke="#666666" points="460.38,-130.75 256.12,-130.75 256.12,-77.75 460.38,-77.75 460.38,-130.75"/>
<text text-anchor="start" x="264.12" y="-117.25" font-family="Helvetica,sans-Serif" font-size="10.00">sourcecode/triggeralgs</text>
<text text-anchor="start" x="264.12" y="-106" font-family="Helvetica,sans-Serif" font-size="10.00">/include/triggeralgs/ADCSimple</text>
<text text-anchor="start" x="264.12" y="-94.75" font-family="Helvetica,sans-Serif" font-size="10.00">Window/TriggerCandidateMakerADCSimple</text>
<text text-anchor="middle" x="358.25" y="-83.5" font-family="Helvetica,sans-Serif" font-size="10.00">Window.hpp</text>
</a>
</g>
</g>
<!-- Node1&#45;&gt;Node5 -->
<g id="edge4_Node000001_Node000005" class="edge">
<title>Node1&#45;&gt;Node5</title>
<g id="a_edge4_Node000001_Node000005"><a xlink:title=" ">
<path fill="none" stroke="#63b8ff" d="M707.43,-174.11C643.52,-163.43 550.24,-147.23 469.25,-130.75 466.44,-130.18 463.59,-129.59 460.72,-128.99"/>
<polygon fill="#63b8ff" stroke="#63b8ff" points="706.68,-177.53 717.12,-175.72 707.83,-170.63 706.68,-177.53"/>
</a>
</g>
</g>
<!-- Node7 -->
<g id="Node000007" class="node">
<title>Node7</title>
<g id="a_Node000007"><a xlink:href="TriggerCandidateMakerHorizontalMuon_8hpp.html" target="_top" xlink:title=" ">
<polygon fill="white" stroke="#666666" points="665.75,-130.75 478.75,-130.75 478.75,-77.75 665.75,-77.75 665.75,-130.75"/>
<text text-anchor="start" x="486.75" y="-117.25" font-family="Helvetica,sans-Serif" font-size="10.00">sourcecode/triggeralgs</text>
<text text-anchor="start" x="486.75" y="-106" font-family="Helvetica,sans-Serif" font-size="10.00">/include/triggeralgs/Horizontal</text>
<text text-anchor="start" x="486.75" y="-94.75" font-family="Helvetica,sans-Serif" font-size="10.00">Muon/TriggerCandidateMakerHorizontal</text>
<text text-anchor="middle" x="572.25" y="-83.5" font-family="Helvetica,sans-Serif" font-size="10.00">Muon.hpp</text>
</a>
</g>
</g>
<!-- Node1&#45;&gt;Node7 -->
<g id="edge6_Node000001_Node000007" class="edge">
<title>Node1&#45;&gt;Node7</title>
<g id="a_edge6_Node000001_Node000007"><a xlink:title=" ">
<path fill="none" stroke="#63b8ff" d="M720.62,-162.2C695.1,-152.4 665.65,-141.1 639.74,-131.16"/>
<polygon fill="#63b8ff" stroke="#63b8ff" points="719.3,-165.44 729.89,-165.76 721.81,-158.91 719.3,-165.44"/>
</a>
</g>
</g>
<!-- Node9 -->
<g id="Node000009" class="node">
<title>Node9</title>
<g id="a_Node000009"><a xlink:href="TriggerCandidateMakerMichelElectron_8hpp.html" target="_top" xlink:title=" ">
<polygon fill="white" stroke="#666666" points="884.88,-125.12 683.62,-125.12 683.62,-83.38 884.88,-83.38 884.88,-125.12"/>
<text text-anchor="start" x="691.62" y="-111.62" font-family="Helvetica,sans-Serif" font-size="10.00">sourcecode/triggeralgs</text>
<text text-anchor="start" x="691.62" y="-100.38" font-family="Helvetica,sans-Serif" font-size="10.00">/include/triggeralgs/MichelElectron</text>
<text text-anchor="middle" x="784.25" y="-89.12" font-family="Helvetica,sans-Serif" font-size="10.00">/TriggerCandidateMakerMichelElectron.hpp</text>
</a>
</g>
</g>
<!-- Node1&#45;&gt;Node9 -->
<g id="edge8_Node000001_Node000009" class="edge">
<title>Node1&#45;&gt;Node9</title>
<g id="a_edge8_Node000001_Node000009"><a xlink:title=" ">
<path fill="none" stroke="#63b8ff" d="M784.25,-155.27C784.25,-145.24 784.25,-134.42 784.25,-125.42"/>
<polygon fill="#63b8ff" stroke="#63b8ff" points="780.75,-155 784.25,-165 787.75,-155 780.75,-155"/>
</a>
</g>
</g>
<!-- Node11 -->
<g id="Node000011" class="node">
<title>Node11</title>
<g id="a_Node000011"><a xlink:href="TriggerCandidateMakerPlaneCoincidence_8hpp.html" target="_top" xlink:title=" ">
<polygon fill="white" stroke="#666666" points="1118,-125.12 902.5,-125.12 902.5,-83.38 1118,-83.38 1118,-125.12"/>
<text text-anchor="start" x="910.5" y="-111.62" font-family="Helvetica,sans-Serif" font-size="10.00">sourcecode/triggeralgs</text>
<text text-anchor="start" x="910.5" y="-100.38" font-family="Helvetica,sans-Serif" font-size="10.00">/include/triggeralgs/PlaneCoincidence</text>
<text text-anchor="middle" x="1010.25" y="-89.12" font-family="Helvetica,sans-Serif" font-size="10.00">/TriggerCandidateMakerPlaneCoincidence.hpp</text>
</a>
</g>
</g>
<!-- Node1&#45;&gt;Node11 -->
<g id="edge10_Node000001_Node000011" class="edge">
<title>Node1&#45;&gt;Node11</title>
<g id="a_edge10_Node000001_Node000011"><a xlink:title=" ">
<path fill="none" stroke="#63b8ff" d="M851.49,-162.42C884.05,-150.69 922.72,-136.77 953.74,-125.6"/>
<polygon fill="#63b8ff" stroke="#63b8ff" points="850.34,-159.11 842.12,-165.79 852.71,-165.69 850.34,-159.11"/>
</a>
</g>
</g>
<!-- Node13 -->
<g id="Node000013" class="node">
<title>Node13</title>
<g id="a_Node000013"><a xlink:href="TriggerCandidateMakerPrescale_8hpp.html" target="_top" xlink:title=" ">
<polygon fill="white" stroke="#666666" points="1312.12,-125.12 1136.38,-125.12 1136.38,-83.38 1312.12,-83.38 1312.12,-125.12"/>
<text text-anchor="start" x="1144.38" y="-111.62" font-family="Helvetica,sans-Serif" font-size="10.00">sourcecode/triggeralgs</text>
<text text-anchor="start" x="1144.38" y="-100.38" font-family="Helvetica,sans-Serif" font-size="10.00">/include/triggeralgs/Prescale</text>
<text text-anchor="middle" x="1224.25" y="-89.12" font-family="Helvetica,sans-Serif" font-size="10.00">/TriggerCandidateMakerPrescale.hpp</text>
</a>
</g>
</g>
<!-- Node1&#45;&gt;Node13 -->
<g id="edge12_Node000001_Node000013" class="edge">
<title>Node1&#45;&gt;Node13</title>
<g id="a_edge12_Node000001_Node000013"><a xlink:title=" ">
<path fill="none" stroke="#63b8ff" d="M861.35,-176.22C931.12,-166.29 1036.54,-150.01 1127.25,-130.75 1134.57,-129.19 1142.17,-127.44 1149.75,-125.6"/>
<polygon fill="#63b8ff" stroke="#63b8ff" points="860.94,-172.74 851.53,-177.6 861.92,-179.67 860.94,-172.74"/>
</a>
</g>
</g>
<!-- Node15 -->
<g id="Node000015" class="node">
<title>Node15</title>
<g id="a_Node000015"><a xlink:href="TriggerCandidateMakerSupernova_8hpp.html" target="_top" xlink:title=" ">
<polygon fill="white" stroke="#666666" points="1522.25,-125.12 1338.25,-125.12 1338.25,-83.38 1522.25,-83.38 1522.25,-125.12"/>
<text text-anchor="start" x="1346.25" y="-111.62" font-family="Helvetica,sans-Serif" font-size="10.00">sourcecode/triggeralgs</text>
<text text-anchor="start" x="1346.25" y="-100.38" font-family="Helvetica,sans-Serif" font-size="10.00">/include/triggeralgs/Supernova</text>
<text text-anchor="middle" x="1430.25" y="-89.12" font-family="Helvetica,sans-Serif" font-size="10.00">/TriggerCandidateMakerSupernova.hpp</text>
</a>
</g>
</g>
<!-- Node1&#45;&gt;Node15 -->
<g id="edge14_Node000001_Node000015" class="edge">
<title>Node1&#45;&gt;Node15</title>
<g id="a_edge14_Node000001_Node000015"><a xlink:title=" ">
<path fill="none" stroke="#63b8ff" d="M861.31,-181.68C965.96,-174.26 1158.66,-158.12 1321.25,-130.75 1330.07,-129.27 1339.23,-127.49 1348.34,-125.58"/>
<polygon fill="#63b8ff" stroke="#63b8ff" points="861.15,-178.18 851.42,-182.37 861.64,-185.16 861.15,-178.18"/>
</a>
</g>
</g>
<!-- Node3 -->
<g id="Node000003" class="node">
<title>Node3</title>
<g id="a_Node000003"><a xlink:href="TAProcessor_8cpp.html" target="_top" xlink:title=" ">
<polygon fill="white" stroke="#666666" points="110.5,-36.12 0,-36.12 0,-5.62 110.5,-5.62 110.5,-36.12"/>
<text text-anchor="start" x="8" y="-22.62" font-family="Helvetica,sans-Serif" font-size="10.00">sourcecode/trigger</text>
<text text-anchor="middle" x="55.25" y="-11.38" font-family="Helvetica,sans-Serif" font-size="10.00">/src/TAProcessor.cpp</text>
</a>
</g>
</g>
<!-- Node2&#45;&gt;Node3 -->
<g id="edge2_Node000002_Node000003" class="edge">
<title>Node2&#45;&gt;Node3</title>
<g id="a_edge2_Node000002_Node000003"><a xlink:title=" ">
<path fill="none" stroke="#63b8ff" d="M136.63,-76.61C116.84,-63.3 93.66,-47.71 77.11,-36.58"/>
<polygon fill="#63b8ff" stroke="#63b8ff" points="134.52,-79.4 144.77,-82.08 138.43,-73.6 134.52,-79.4"/>
</a>
</g>
</g>
<!-- Node4 -->
<g id="Node000004" class="node">
<title>Node4</title>
<g id="a_Node000004"><a xlink:href="TPProcessor_8cpp.html" target="_top" xlink:title=" ">
<polygon fill="white" stroke="#666666" points="239.5,-36.12 129,-36.12 129,-5.62 239.5,-5.62 239.5,-36.12"/>
<text text-anchor="start" x="137" y="-22.62" font-family="Helvetica,sans-Serif" font-size="10.00">sourcecode/trigger</text>
<text text-anchor="middle" x="184.25" y="-11.38" font-family="Helvetica,sans-Serif" font-size="10.00">/src/TPProcessor.cpp</text>
</a>
</g>
</g>
<!-- Node2&#45;&gt;Node4 -->
<g id="edge3_Node000002_Node000004" class="edge">
<title>Node2&#45;&gt;Node4</title>
<g id="a_edge3_Node000002_Node000004"><a xlink:title=" ">
<path fill="none" stroke="#63b8ff" d="M179.33,-71.93C180.53,-59.69 181.85,-46.26 182.82,-36.4"/>
<polygon fill="#63b8ff" stroke="#63b8ff" points="175.87,-71.33 178.38,-81.63 182.84,-72.02 175.87,-71.33"/>
</a>
</g>
</g>
<!-- Node6 -->
<g id="Node000006" class="node">
<title>Node6</title>
<g id="a_Node000006"><a xlink:href="TriggerCandidateMakerADCSimpleWindow_8cpp.html" target="_top" xlink:title=" ">
<polygon fill="white" stroke="#666666" points="451.38,-41.75 265.12,-41.75 265.12,0 451.38,0 451.38,-41.75"/>
<text text-anchor="start" x="273.12" y="-28.25" font-family="Helvetica,sans-Serif" font-size="10.00">sourcecode/triggeralgs</text>
<text text-anchor="start" x="273.12" y="-17" font-family="Helvetica,sans-Serif" font-size="10.00">/src/TriggerCandidateMakerADCSimple</text>
<text text-anchor="middle" x="358.25" y="-5.75" font-family="Helvetica,sans-Serif" font-size="10.00">Window.cpp</text>
</a>
</g>
</g>
<!-- Node5&#45;&gt;Node6 -->
<g id="edge5_Node000005_Node000006" class="edge">
<title>Node5&#45;&gt;Node6</title>
<g id="a_edge5_Node000005_Node000006"><a xlink:title=" ">
<path fill="none" stroke="#63b8ff" d="M358.25,-66.08C358.25,-57.8 358.25,-49.33 358.25,-42.04"/>
<polygon fill="#63b8ff" stroke="#63b8ff" points="354.75,-65.99 358.25,-75.99 361.75,-65.99 354.75,-65.99"/>
</a>
</g>
</g>
<!-- Node8 -->
<g id="Node000008" class="node">
<title>Node8</title>
<g id="a_Node000008"><a xlink:href="TriggerCandidateMakerHorizontalMuon_8cpp.html" target="_top" xlink:title=" ">
<polygon fill="white" stroke="#666666" points="662,-41.75 482.5,-41.75 482.5,0 662,0 662,-41.75"/>
<text text-anchor="start" x="490.5" y="-28.25" font-family="Helvetica,sans-Serif" font-size="10.00">sourcecode/triggeralgs</text>
<text text-anchor="start" x="490.5" y="-17" font-family="Helvetica,sans-Serif" font-size="10.00">/src/TriggerCandidateMakerHorizontal</text>
<text text-anchor="middle" x="572.25" y="-5.75" font-family="Helvetica,sans-Serif" font-size="10.00">Muon.cpp</text>
</a>
</g>
</g>
<!-- Node7&#45;&gt;Node8 -->
<g id="edge7_Node000007_Node000008" class="edge">
<title>Node7&#45;&gt;Node8</title>
<g id="a_edge7_Node000007_Node000008"><a xlink:title=" ">
<path fill="none" stroke="#63b8ff" d="M572.25,-66.08C572.25,-57.8 572.25,-49.33 572.25,-42.04"/>
<polygon fill="#63b8ff" stroke="#63b8ff" points="568.75,-65.99 572.25,-75.99 575.75,-65.99 568.75,-65.99"/>
</a>
</g>
</g>
<!-- Node10 -->
<g id="Node000010" class="node">
<title>Node10</title>
<g id="a_Node000010"><a xlink:href="TriggerCandidateMakerMichelElectron_8cpp.html" target="_top" xlink:title=" ">
<polygon fill="white" stroke="#666666" points="866.5,-41.75 702,-41.75 702,0 866.5,0 866.5,-41.75"/>
<text text-anchor="start" x="710" y="-28.25" font-family="Helvetica,sans-Serif" font-size="10.00">sourcecode/triggeralgs</text>
<text text-anchor="start" x="710" y="-17" font-family="Helvetica,sans-Serif" font-size="10.00">/src/TriggerCandidateMakerMichel</text>
<text text-anchor="middle" x="784.25" y="-5.75" font-family="Helvetica,sans-Serif" font-size="10.00">Electron.cpp</text>
</a>
</g>
</g>
<!-- Node9&#45;&gt;Node10 -->
<g id="edge9_Node000009_Node000010" class="edge">
<title>Node9&#45;&gt;Node10</title>
<g id="a_edge9_Node000009_Node000010"><a xlink:title=" ">
<path fill="none" stroke="#63b8ff" d="M784.25,-71.89C784.25,-61.87 784.25,-51.05 784.25,-42.04"/>
<polygon fill="#63b8ff" stroke="#63b8ff" points="780.75,-71.62 784.25,-81.62 787.75,-71.62 780.75,-71.62"/>
</a>
</g>
</g>
<!-- Node12 -->
<g id="Node000012" class="node">
<title>Node12</title>
<g id="a_Node000012"><a xlink:href="TriggerCandidateMakerPlaneCoincidence_8cpp.html" target="_top" xlink:title=" ">
<polygon fill="white" stroke="#666666" points="1090.62,-41.75 929.88,-41.75 929.88,0 1090.62,0 1090.62,-41.75"/>
<text text-anchor="start" x="937.88" y="-28.25" font-family="Helvetica,sans-Serif" font-size="10.00">sourcecode/triggeralgs</text>
<text text-anchor="start" x="937.88" y="-17" font-family="Helvetica,sans-Serif" font-size="10.00">/src/TriggerCandidateMakerPlane</text>
<text text-anchor="middle" x="1010.25" y="-5.75" font-family="Helvetica,sans-Serif" font-size="10.00">Coincidence.cpp</text>
</a>
</g>
</g>
<!-- Node11&#45;&gt;Node12 -->
<g id="edge11_Node000011_Node000012" class="edge">
<title>Node11&#45;&gt;Node12</title>
<g id="a_edge11_Node000011_Node000012"><a xlink:title=" ">
<path fill="none" stroke="#63b8ff" d="M1010.25,-71.89C1010.25,-61.87 1010.25,-51.05 1010.25,-42.04"/>
<polygon fill="#63b8ff" stroke="#63b8ff" points="1006.75,-71.62 1010.25,-81.62 1013.75,-71.62 1006.75,-71.62"/>
</a>
</g>
</g>
<!-- Node14 -->
<g id="Node000014" class="node">
<title>Node14</title>
<g id="a_Node000014"><a xlink:href="TriggerCandidateMakerPrescale_8cpp.html" target="_top" xlink:title=" ">
<polygon fill="white" stroke="#666666" points="1316.38,-36.12 1124.12,-36.12 1124.12,-5.62 1316.38,-5.62 1316.38,-36.12"/>
<text text-anchor="start" x="1132.12" y="-22.62" font-family="Helvetica,sans-Serif" font-size="10.00">sourcecode/triggeralgs</text>
<text text-anchor="middle" x="1220.25" y="-11.38" font-family="Helvetica,sans-Serif" font-size="10.00">/src/TriggerCandidateMakerPrescale.cpp</text>
</a>
</g>
</g>
<!-- Node13&#45;&gt;Node14 -->
<g id="edge13_Node000013_Node000014" class="edge">
<title>Node13&#45;&gt;Node14</title>
<g id="a_edge13_Node000013_Node000014"><a xlink:title=" ">
<path fill="none" stroke="#63b8ff" d="M1222.71,-71.93C1222.11,-59.69 1221.45,-46.26 1220.96,-36.4"/>
<polygon fill="#63b8ff" stroke="#63b8ff" points="1219.2,-71.81 1223.19,-81.62 1226.19,-71.46 1219.2,-71.81"/>
</a>
</g>
</g>
<!-- Node16 -->
<g id="Node000016" class="node">
<title>Node16</title>
<g id="a_Node000016"><a xlink:href="TriggerCandidateMakerSupernova_8cpp.html" target="_top" xlink:title=" ">
<polygon fill="white" stroke="#666666" points="1534.5,-36.12 1334,-36.12 1334,-5.62 1534.5,-5.62 1534.5,-36.12"/>
<text text-anchor="start" x="1342" y="-22.62" font-family="Helvetica,sans-Serif" font-size="10.00">sourcecode/triggeralgs</text>
<text text-anchor="middle" x="1434.25" y="-11.38" font-family="Helvetica,sans-Serif" font-size="10.00">/src/TriggerCandidateMakerSupernova.cpp</text>
</a>
</g>
</g>
<!-- Node15&#45;&gt;Node16 -->
<g id="edge15_Node000015_Node000016" class="edge">
<title>Node15&#45;&gt;Node16</title>
<g id="a_edge15_Node000015_Node000016"><a xlink:title=" ">
<path fill="none" stroke="#63b8ff" d="M1431.79,-71.93C1432.39,-59.69 1433.05,-46.26 1433.54,-36.4"/>
<polygon fill="#63b8ff" stroke="#63b8ff" points="1428.31,-71.46 1431.31,-81.62 1435.3,-71.81 1428.31,-71.46"/>
</a>
</g>
</g>
</g>
</svg>
