<?xml version="1.0" encoding="UTF-8" standalone="no"?>
<!DOCTYPE svg PUBLIC "-//W3C//DTD SVG 1.1//EN"
 "http://www.w3.org/Graphics/SVG/1.1/DTD/svg11.dtd">
<!-- Generated by graphviz version 9.0.0 (20230911.1827)
 -->
<!-- Title: sourcecode/trgdataformats/include/trgdataformats/TriggerCandidateData.hpp Pages: 1 -->
<svg width="280pt" height="160pt"
 viewBox="0.00 0.00 279.62 160.25" xmlns="http://www.w3.org/2000/svg" xmlns:xlink="http://www.w3.org/1999/xlink">
<g id="graph0" class="graph" transform="scale(1 1) rotate(0) translate(4 156.25)">
<title>sourcecode/trgdataformats/include/trgdataformats/TriggerCandidateData.hpp</title>
<!-- Node1 -->
<g id="Node000001" class="node">
<title>Node1</title>
<g id="a_Node000001"><a xlink:title=" ">
<polygon fill="#999999" stroke="#666666" points="212.75,-152.25 80.5,-152.25 80.5,-110.5 212.75,-110.5 212.75,-152.25"/>
<text text-anchor="start" x="88.5" y="-138.75" font-family="Helvetica,sans-Serif" font-size="10.00">sourcecode/trgdataformats</text>
<text text-anchor="start" x="88.5" y="-127.5" font-family="Helvetica,sans-Serif" font-size="10.00">/include/trgdataformats</text>
<text text-anchor="middle" x="146.62" y="-116.25" font-family="Helvetica,sans-Serif" font-size="10.00">/TriggerCandidateData.hpp</text>
</a>
</g>
</g>
<!-- Node2 -->
<g id="Node000002" class="node">
<title>Node2</title>
<g id="a_Node000002"><a xlink:href="trgdataformats_2include_2trgdataformats_2Types_8hpp.html" target="_top" xlink:title=" ">
<polygon fill="white" stroke="#666666" points="160.75,-74.5 34.5,-74.5 34.5,-55.25 160.75,-55.25 160.75,-74.5"/>
<text text-anchor="middle" x="97.62" y="-61" font-family="Helvetica,sans-Serif" font-size="10.00">trgdataformats/Types.hpp</text>
</a>
</g>
</g>
<!-- Node1&#45;&gt;Node2 -->
<g id="edge1_Node000001_Node000002" class="edge">
<title>Node1&#45;&gt;Node2</title>
<g id="a_edge1_Node000001_Node000002"><a xlink:title=" ">
<path fill="none" stroke="#63b8ff" d="M131.39,-110.32C125,-101.91 117.62,-92.2 111.39,-84"/>
<polygon fill="#63b8ff" stroke="#63b8ff" points="114.27,-82 105.43,-76.15 108.69,-86.23 114.27,-82"/>
</a>
</g>
</g>
<!-- Node3 -->
<g id="Node000003" class="node">
<title>Node3</title>
<g id="a_Node000003"><a xlink:title=" ">
<polygon fill="#e0e0e0" stroke="#999999" points="45.25,-19.25 0,-19.25 0,0 45.25,0 45.25,-19.25"/>
<text text-anchor="middle" x="22.62" y="-5.75" font-family="Helvetica,sans-Serif" font-size="10.00">cstdint</text>
</a>
</g>
</g>
<!-- Node1&#45;&gt;Node3 -->
<g id="edge4_Node000001_Node000003" class="edge">
<title>Node1&#45;&gt;Node3</title>
<g id="a_edge4_Node000001_Node000003"><a xlink:title=" ">
<path fill="none" stroke="#63b8ff" d="M80.03,-114.42C59.2,-106.03 38.35,-93.41 25.62,-74.5 16.99,-61.67 16.86,-43.88 18.54,-30.33"/>
<polygon fill="#63b8ff" stroke="#63b8ff" points="21.93,-31.29 20.15,-20.84 15.03,-30.12 21.93,-31.29"/>
</a>
</g>
</g>
<!-- Node5 -->
<g id="Node000005" class="node">
<title>Node5</title>
<g id="a_Node000005"><a xlink:title=" ">
<polygon fill="#e0e0e0" stroke="#999999" points="214,-74.5 179.25,-74.5 179.25,-55.25 214,-55.25 214,-74.5"/>
<text text-anchor="middle" x="196.62" y="-61" font-family="Helvetica,sans-Serif" font-size="10.00">map</text>
</a>
</g>
</g>
<!-- Node1&#45;&gt;Node5 -->
<g id="edge5_Node000001_Node000005" class="edge">
<title>Node1&#45;&gt;Node5</title>
<g id="a_edge5_Node000001_Node000005"><a xlink:title=" ">
<path fill="none" stroke="#63b8ff" d="M162.17,-110.32C168.69,-101.91 176.22,-92.2 182.57,-84"/>
<polygon fill="#63b8ff" stroke="#63b8ff" points="185.31,-86.19 188.67,-76.14 179.77,-81.9 185.31,-86.19"/>
</a>
</g>
</g>
<!-- Node6 -->
<g id="Node000006" class="node">
<title>Node6</title>
<g id="a_Node000006"><a xlink:title=" ">
<polygon fill="#e0e0e0" stroke="#999999" points="271.62,-74.5 231.62,-74.5 231.62,-55.25 271.62,-55.25 271.62,-74.5"/>
<text text-anchor="middle" x="251.62" y="-61" font-family="Helvetica,sans-Serif" font-size="10.00">string</text>
</a>
</g>
</g>
<!-- Node1&#45;&gt;Node6 -->
<g id="edge6_Node000001_Node000006" class="edge">
<title>Node1&#45;&gt;Node6</title>
<g id="a_edge6_Node000001_Node000006"><a xlink:title=" ">
<path fill="none" stroke="#63b8ff" d="M179.56,-110.14C195.05,-100.63 213.18,-89.49 227.39,-80.76"/>
<polygon fill="#63b8ff" stroke="#63b8ff" points="228.96,-83.9 235.65,-75.69 225.3,-77.94 228.96,-83.9"/>
</a>
</g>
</g>
<!-- Node2&#45;&gt;Node3 -->
<g id="edge2_Node000002_Node000003" class="edge">
<title>Node2&#45;&gt;Node3</title>
<g id="a_edge2_Node000002_Node000003"><a xlink:title=" ">
<path fill="none" stroke="#63b8ff" d="M84.9,-54.84C73.91,-47.04 57.78,-35.59 44.69,-26.29"/>
<polygon fill="#63b8ff" stroke="#63b8ff" points="46.82,-23.51 36.64,-20.58 42.77,-29.22 46.82,-23.51"/>
</a>
</g>
</g>
<!-- Node4 -->
<g id="Node000004" class="node">
<title>Node4</title>
<g id="a_Node000004"><a xlink:title=" ">
<polygon fill="#e0e0e0" stroke="#999999" points="117.25,-19.25 78,-19.25 78,0 117.25,0 117.25,-19.25"/>
<text text-anchor="middle" x="97.62" y="-5.75" font-family="Helvetica,sans-Serif" font-size="10.00">limits</text>
</a>
</g>
</g>
<!-- Node2&#45;&gt;Node4 -->
<g id="edge3_Node000002_Node000004" class="edge">
<title>Node2&#45;&gt;Node4</title>
<g id="a_edge3_Node000002_Node000004"><a xlink:title=" ">
<path fill="none" stroke="#63b8ff" d="M97.62,-55.08C97.62,-48.57 97.62,-39.42 97.62,-31.12"/>
<polygon fill="#63b8ff" stroke="#63b8ff" points="101.13,-31.12 97.63,-21.12 94.13,-31.12 101.13,-31.12"/>
</a>
</g>
</g>
</g>
</svg>
