<?xml version="1.0" encoding="UTF-8" standalone="no"?>
<!DOCTYPE svg PUBLIC "-//W3C//DTD SVG 1.1//EN"
 "http://www.w3.org/Graphics/SVG/1.1/DTD/svg11.dtd">
<!-- Generated by graphviz version 9.0.0 (20230911.1827)
 -->
<!-- Title: sourcecode/triggeralgs/include/triggeralgs/TriggerCandidateMaker.hpp Pages: 1 -->
<svg width="659pt" height="349pt"
 viewBox="0.00 0.00 658.88 348.50" xmlns="http://www.w3.org/2000/svg" xmlns:xlink="http://www.w3.org/1999/xlink">
<g id="graph0" class="graph" transform="scale(1 1) rotate(0) translate(4 344.5)">
<title>sourcecode/triggeralgs/include/triggeralgs/TriggerCandidateMaker.hpp</title>
<!-- Node1 -->
<g id="Node000001" class="node">
<title>Node1</title>
<g id="a_Node000001"><a xlink:title=" ">
<polygon fill="#999999" stroke="#666666" points="457.12,-340.5 326.38,-340.5 326.38,-298.75 457.12,-298.75 457.12,-340.5"/>
<text text-anchor="start" x="334.38" y="-327" font-family="Helvetica,sans-Serif" font-size="10.00">sourcecode/triggeralgs</text>
<text text-anchor="start" x="334.38" y="-315.75" font-family="Helvetica,sans-Serif" font-size="10.00">/include/triggeralgs/Trigger</text>
<text text-anchor="middle" x="391.75" y="-304.5" font-family="Helvetica,sans-Serif" font-size="10.00">CandidateMaker.hpp</text>
</a>
</g>
</g>
<!-- Node2 -->
<g id="Node000002" class="node">
<title>Node2</title>
<g id="a_Node000002"><a xlink:href="TriggerActivity_8hpp.html" target="_top" xlink:title=" ">
<polygon fill="white" stroke="#666666" points="363.88,-262.75 219.62,-262.75 219.62,-243.5 363.88,-243.5 363.88,-262.75"/>
<text text-anchor="middle" x="291.75" y="-249.25" font-family="Helvetica,sans-Serif" font-size="10.00">triggeralgs/TriggerActivity.hpp</text>
</a>
</g>
</g>
<!-- Node1&#45;&gt;Node2 -->
<g id="edge1_Node000001_Node000002" class="edge">
<title>Node1&#45;&gt;Node2</title>
<g id="a_edge1_Node000001_Node000002"><a xlink:title=" ">
<path fill="none" stroke="#63b8ff" d="M360.38,-298.39C345.78,-288.97 328.7,-277.96 315.23,-269.27"/>
<polygon fill="#63b8ff" stroke="#63b8ff" points="317.31,-266.44 307.01,-263.96 313.51,-272.33 317.31,-266.44"/>
</a>
</g>
</g>
<!-- Node13 -->
<g id="Node000013" class="node">
<title>Node13</title>
<g id="a_Node000013"><a xlink:title=" ">
<polygon fill="#e0e0e0" stroke="#999999" points="313.25,-201.88 270.25,-201.88 270.25,-182.62 313.25,-182.62 313.25,-201.88"/>
<text text-anchor="middle" x="291.75" y="-188.38" font-family="Helvetica,sans-Serif" font-size="10.00">vector</text>
</a>
</g>
</g>
<!-- Node1&#45;&gt;Node13 -->
<g id="edge27_Node000001_Node000013" class="edge">
<title>Node1&#45;&gt;Node13</title>
<g id="a_edge27_Node000001_Node000013"><a xlink:title=" ">
<path fill="none" stroke="#63b8ff" d="M325.88,-316.87C285.64,-311.96 237.01,-298.34 210.75,-262.75 205.67,-255.87 206.59,-250.98 210.75,-243.5 216.6,-232.98 241.94,-218.2 262.75,-207.39"/>
<polygon fill="#63b8ff" stroke="#63b8ff" points="264.1,-210.63 271.43,-202.98 260.93,-204.38 264.1,-210.63"/>
</a>
</g>
</g>
<!-- Node14 -->
<g id="Node000014" class="node">
<title>Node14</title>
<g id="a_Node000014"><a xlink:href="TriggerCandidate_8hpp.html" target="_top" xlink:title=" ">
<polygon fill="white" stroke="#666666" points="163.5,-262.75 8,-262.75 8,-243.5 163.5,-243.5 163.5,-262.75"/>
<text text-anchor="middle" x="85.75" y="-249.25" font-family="Helvetica,sans-Serif" font-size="10.00">triggeralgs/TriggerCandidate.hpp</text>
</a>
</g>
</g>
<!-- Node1&#45;&gt;Node14 -->
<g id="edge16_Node000001_Node000014" class="edge">
<title>Node1&#45;&gt;Node14</title>
<g id="a_edge16_Node000001_Node000014"><a xlink:title=" ">
<path fill="none" stroke="#63b8ff" d="M326.11,-304.79C270.48,-293.06 191.69,-276.45 139.68,-265.49"/>
<polygon fill="#63b8ff" stroke="#63b8ff" points="140.67,-262.13 130.17,-263.49 139.23,-268.97 140.67,-262.13"/>
</a>
</g>
</g>
<!-- Node18 -->
<g id="Node000018" class="node">
<title>Node18</title>
<g id="a_Node000018"><a xlink:href="triggeralgs_2include_2triggeralgs_2Types_8hpp.html" target="_top" xlink:title=" ">
<polygon fill="white" stroke="#666666" points="384.88,-135.38 276.62,-135.38 276.62,-116.12 384.88,-116.12 384.88,-135.38"/>
<text text-anchor="middle" x="330.75" y="-121.88" font-family="Helvetica,sans-Serif" font-size="10.00">triggeralgs/Types.hpp</text>
</a>
</g>
</g>
<!-- Node1&#45;&gt;Node18 -->
<g id="edge24_Node000001_Node000018" class="edge">
<title>Node1&#45;&gt;Node18</title>
<g id="a_edge24_Node000001_Node000018"><a xlink:title=" ">
<path fill="none" stroke="#63b8ff" d="M387.2,-298.39C383.64,-283.18 378.37,-261.9 372.75,-243.5 362.19,-208.92 347.42,-169.5 338.5,-146.45"/>
<polygon fill="#63b8ff" stroke="#63b8ff" points="341.77,-145.19 334.87,-137.14 335.25,-147.73 341.77,-145.19"/>
</a>
</g>
</g>
<!-- Node19 -->
<g id="Node000019" class="node">
<title>Node19</title>
<g id="a_Node000019"><a xlink:title=" ">
<polygon fill="#e0e0e0" stroke="#999999" points="517.25,-262.75 420.25,-262.75 420.25,-243.5 517.25,-243.5 517.25,-262.75"/>
<text text-anchor="middle" x="468.75" y="-249.25" font-family="Helvetica,sans-Serif" font-size="10.00">nlohmann/json.hpp</text>
</a>
</g>
</g>
<!-- Node1&#45;&gt;Node19 -->
<g id="edge26_Node000001_Node000019" class="edge">
<title>Node1&#45;&gt;Node19</title>
<g id="a_edge26_Node000001_Node000019"><a xlink:title=" ">
<path fill="none" stroke="#63b8ff" d="M415.69,-298.57C426.51,-289.51 439.12,-278.94 449.34,-270.39"/>
<polygon fill="#63b8ff" stroke="#63b8ff" points="451.34,-273.27 456.76,-264.17 446.85,-267.91 451.34,-273.27"/>
</a>
</g>
</g>
<!-- Node20 -->
<g id="Node000020" class="node">
<title>Node20</title>
<g id="a_Node000020"><a xlink:title=" ">
<polygon fill="#e0e0e0" stroke="#999999" points="580.38,-262.75 535.12,-262.75 535.12,-243.5 580.38,-243.5 580.38,-262.75"/>
<text text-anchor="middle" x="557.75" y="-249.25" font-family="Helvetica,sans-Serif" font-size="10.00">atomic</text>
</a>
</g>
</g>
<!-- Node1&#45;&gt;Node20 -->
<g id="edge28_Node000001_Node000020" class="edge">
<title>Node1&#45;&gt;Node20</title>
<g id="a_edge28_Node000001_Node000020"><a xlink:title=" ">
<path fill="none" stroke="#63b8ff" d="M443.82,-298.39C470.13,-288.17 501.28,-276.07 524.35,-267.1"/>
<polygon fill="#63b8ff" stroke="#63b8ff" points="525.51,-270.41 533.56,-263.52 522.97,-263.88 525.51,-270.41"/>
</a>
</g>
</g>
<!-- Node21 -->
<g id="Node000021" class="node">
<title>Node21</title>
<g id="a_Node000021"><a xlink:title=" ">
<polygon fill="#e0e0e0" stroke="#999999" points="643.38,-262.75 598.12,-262.75 598.12,-243.5 643.38,-243.5 643.38,-262.75"/>
<text text-anchor="middle" x="620.75" y="-249.25" font-family="Helvetica,sans-Serif" font-size="10.00">chrono</text>
</a>
</g>
</g>
<!-- Node1&#45;&gt;Node21 -->
<g id="edge29_Node000001_Node000021" class="edge">
<title>Node1&#45;&gt;Node21</title>
<g id="a_edge29_Node000001_Node000021"><a xlink:title=" ">
<path fill="none" stroke="#63b8ff" d="M457.37,-300.14C499.76,-288.2 553.16,-273.16 587.13,-263.59"/>
<polygon fill="#63b8ff" stroke="#63b8ff" points="587.74,-267.06 596.41,-260.98 585.84,-260.32 587.74,-267.06"/>
</a>
</g>
</g>
<!-- Node3 -->
<g id="Node000003" class="node">
<title>Node3</title>
<g id="a_Node000003"><a xlink:href="TriggerActivityData_8hpp.html" target="_top" xlink:title=" ">
<polygon fill="white" stroke="#666666" points="251.88,-207.5 107.62,-207.5 107.62,-177 251.88,-177 251.88,-207.5"/>
<text text-anchor="start" x="115.62" y="-194" font-family="Helvetica,sans-Serif" font-size="10.00">trgdataformats/TriggerActivity</text>
<text text-anchor="middle" x="179.75" y="-182.75" font-family="Helvetica,sans-Serif" font-size="10.00">Data.hpp</text>
</a>
</g>
</g>
<!-- Node2&#45;&gt;Node3 -->
<g id="edge2_Node000002_Node000003" class="edge">
<title>Node2&#45;&gt;Node3</title>
<g id="a_edge2_Node000002_Node000003"><a xlink:title=" ">
<path fill="none" stroke="#63b8ff" d="M274.74,-243.18C259.59,-235.22 236.89,-223.29 217.48,-213.08"/>
<polygon fill="#63b8ff" stroke="#63b8ff" points="219.21,-210.04 208.73,-208.49 215.96,-216.24 219.21,-210.04"/>
</a>
</g>
</g>
<!-- Node7 -->
<g id="Node000007" class="node">
<title>Node7</title>
<g id="a_Node000007"><a xlink:href="triggeralgs_2include_2triggeralgs_2TriggerPrimitive_8hpp.html" target="_top" xlink:title=" ">
<polygon fill="white" stroke="#666666" points="569.88,-201.88 419.62,-201.88 419.62,-182.62 569.88,-182.62 569.88,-201.88"/>
<text text-anchor="middle" x="494.75" y="-188.38" font-family="Helvetica,sans-Serif" font-size="10.00">triggeralgs/TriggerPrimitive.hpp</text>
</a>
</g>
</g>
<!-- Node2&#45;&gt;Node7 -->
<g id="edge7_Node000002_Node000007" class="edge">
<title>Node2&#45;&gt;Node7</title>
<g id="a_edge7_Node000002_Node000007"><a xlink:title=" ">
<path fill="none" stroke="#63b8ff" d="M323.02,-243.05C357.74,-232.99 413.97,-216.68 452.56,-205.49"/>
<polygon fill="#63b8ff" stroke="#63b8ff" points="453.36,-208.9 461.99,-202.75 451.41,-202.18 453.36,-208.9"/>
</a>
</g>
</g>
<!-- Node2&#45;&gt;Node13 -->
<g id="edge15_Node000002_Node000013" class="edge">
<title>Node2&#45;&gt;Node13</title>
<g id="a_edge15_Node000002_Node000013"><a xlink:title=" ">
<path fill="none" stroke="#63b8ff" d="M291.75,-243.18C291.75,-235.4 291.75,-223.83 291.75,-213.78"/>
<polygon fill="#63b8ff" stroke="#63b8ff" points="295.25,-213.79 291.75,-203.79 288.25,-213.79 295.25,-213.79"/>
</a>
</g>
</g>
<!-- Node4 -->
<g id="Node000004" class="node">
<title>Node4</title>
<g id="a_Node000004"><a xlink:href="trgdataformats_2include_2trgdataformats_2Types_8hpp.html" target="_top" xlink:title=" ">
<polygon fill="white" stroke="#666666" points="337.88,-74.5 211.62,-74.5 211.62,-55.25 337.88,-55.25 337.88,-74.5"/>
<text text-anchor="middle" x="274.75" y="-61" font-family="Helvetica,sans-Serif" font-size="10.00">trgdataformats/Types.hpp</text>
</a>
</g>
</g>
<!-- Node3&#45;&gt;Node4 -->
<g id="edge3_Node000003_Node000004" class="edge">
<title>Node3&#45;&gt;Node4</title>
<g id="a_edge3_Node000003_Node000004"><a xlink:title=" ">
<path fill="none" stroke="#63b8ff" d="M190.65,-176.87C208.04,-153.92 242.04,-109.04 261.05,-83.95"/>
<polygon fill="#63b8ff" stroke="#63b8ff" points="263.81,-86.11 267.06,-76.03 258.23,-81.88 263.81,-86.11"/>
</a>
</g>
</g>
<!-- Node5 -->
<g id="Node000005" class="node">
<title>Node5</title>
<g id="a_Node000005"><a xlink:title=" ">
<polygon fill="#e0e0e0" stroke="#999999" points="222.38,-19.25 177.12,-19.25 177.12,0 222.38,0 222.38,-19.25"/>
<text text-anchor="middle" x="199.75" y="-5.75" font-family="Helvetica,sans-Serif" font-size="10.00">cstdint</text>
</a>
</g>
</g>
<!-- Node3&#45;&gt;Node5 -->
<g id="edge6_Node000003_Node000005" class="edge">
<title>Node3&#45;&gt;Node5</title>
<g id="a_edge6_Node000003_Node000005"><a xlink:title=" ">
<path fill="none" stroke="#63b8ff" d="M181.35,-176.77C184.9,-144.72 193.43,-67.7 197.51,-30.89"/>
<polygon fill="#63b8ff" stroke="#63b8ff" points="200.96,-31.51 198.58,-21.19 194,-30.74 200.96,-31.51"/>
</a>
</g>
</g>
<!-- Node4&#45;&gt;Node5 -->
<g id="edge4_Node000004_Node000005" class="edge">
<title>Node4&#45;&gt;Node5</title>
<g id="a_edge4_Node000004_Node000005"><a xlink:title=" ">
<path fill="none" stroke="#63b8ff" d="M262.03,-54.84C251.04,-47.04 234.91,-35.59 221.82,-26.29"/>
<polygon fill="#63b8ff" stroke="#63b8ff" points="223.95,-23.51 213.77,-20.58 219.9,-29.22 223.95,-23.51"/>
</a>
</g>
</g>
<!-- Node6 -->
<g id="Node000006" class="node">
<title>Node6</title>
<g id="a_Node000006"><a xlink:title=" ">
<polygon fill="#e0e0e0" stroke="#999999" points="294.38,-19.25 255.12,-19.25 255.12,0 294.38,0 294.38,-19.25"/>
<text text-anchor="middle" x="274.75" y="-5.75" font-family="Helvetica,sans-Serif" font-size="10.00">limits</text>
</a>
</g>
</g>
<!-- Node4&#45;&gt;Node6 -->
<g id="edge5_Node000004_Node000006" class="edge">
<title>Node4&#45;&gt;Node6</title>
<g id="a_edge5_Node000004_Node000006"><a xlink:title=" ">
<path fill="none" stroke="#63b8ff" d="M274.75,-55.08C274.75,-48.57 274.75,-39.42 274.75,-31.12"/>
<polygon fill="#63b8ff" stroke="#63b8ff" points="278.25,-31.12 274.75,-21.12 271.25,-31.12 278.25,-31.12"/>
</a>
</g>
</g>
<!-- Node8 -->
<g id="Node000008" class="node">
<title>Node8</title>
<g id="a_Node000008"><a xlink:href="trgdataformats_2include_2trgdataformats_2TriggerPrimitive_8hpp.html" target="_top" xlink:title=" ">
<polygon fill="white" stroke="#666666" points="578.88,-135.38 410.62,-135.38 410.62,-116.12 578.88,-116.12 578.88,-135.38"/>
<text text-anchor="middle" x="494.75" y="-121.88" font-family="Helvetica,sans-Serif" font-size="10.00">trgdataformats/TriggerPrimitive.hpp</text>
</a>
</g>
</g>
<!-- Node7&#45;&gt;Node8 -->
<g id="edge8_Node000007_Node000008" class="edge">
<title>Node7&#45;&gt;Node8</title>
<g id="a_edge8_Node000007_Node000008"><a xlink:title=" ">
<path fill="none" stroke="#63b8ff" d="M494.75,-182.28C494.75,-173.23 494.75,-158.95 494.75,-147.13"/>
<polygon fill="#63b8ff" stroke="#63b8ff" points="498.25,-147.16 494.75,-137.16 491.25,-147.16 498.25,-147.16"/>
</a>
</g>
</g>
<!-- Node8&#45;&gt;Node4 -->
<g id="edge9_Node000008_Node000004" class="edge">
<title>Node8&#45;&gt;Node4</title>
<g id="a_edge9_Node000008_Node000004"><a xlink:title=" ">
<path fill="none" stroke="#63b8ff" d="M460.86,-115.68C422.99,-105.55 361.51,-89.09 319.66,-77.89"/>
<polygon fill="#63b8ff" stroke="#63b8ff" points="320.71,-74.55 310.14,-75.35 318.9,-81.31 320.71,-74.55"/>
</a>
</g>
</g>
<!-- Node8&#45;&gt;Node5 -->
<g id="edge12_Node000008_Node000005" class="edge">
<title>Node8&#45;&gt;Node5</title>
<g id="a_edge12_Node000008_Node000005"><a xlink:title=" ">
<path fill="none" stroke="#63b8ff" d="M474.36,-115.73C452.19,-105.86 415.77,-89.44 384.75,-74.5 367.69,-66.29 364.32,-62.3 346.75,-55.25 308.89,-40.05 263.79,-27.08 233.62,-19.11"/>
<polygon fill="#63b8ff" stroke="#63b8ff" points="234.86,-15.81 224.3,-16.68 233.1,-22.59 234.86,-15.81"/>
</a>
</g>
</g>
<!-- Node9 -->
<g id="Node000009" class="node">
<title>Node9</title>
<g id="a_Node000009"><a xlink:title=" ">
<polygon fill="#e0e0e0" stroke="#999999" points="584.75,-74.5 544.75,-74.5 544.75,-55.25 584.75,-55.25 584.75,-74.5"/>
<text text-anchor="middle" x="564.75" y="-61" font-family="Helvetica,sans-Serif" font-size="10.00">bitset</text>
</a>
</g>
</g>
<!-- Node8&#45;&gt;Node9 -->
<g id="edge10_Node000008_Node000009" class="edge">
<title>Node8&#45;&gt;Node9</title>
<g id="a_edge10_Node000008_Node000009"><a xlink:title=" ">
<path fill="none" stroke="#63b8ff" d="M505.38,-115.81C515.97,-106.9 532.46,-93.03 545.38,-82.17"/>
<polygon fill="#63b8ff" stroke="#63b8ff" points="547.46,-84.99 552.86,-75.88 542.95,-79.63 547.46,-84.99"/>
</a>
</g>
</g>
<!-- Node10 -->
<g id="Node000010" class="node">
<title>Node10</title>
<g id="a_Node000010"><a xlink:title=" ">
<polygon fill="#e0e0e0" stroke="#999999" points="650.88,-74.5 602.62,-74.5 602.62,-55.25 650.88,-55.25 650.88,-74.5"/>
<text text-anchor="middle" x="626.75" y="-61" font-family="Helvetica,sans-Serif" font-size="10.00">cstddef</text>
</a>
</g>
</g>
<!-- Node8&#45;&gt;Node10 -->
<g id="edge11_Node000008_Node000010" class="edge">
<title>Node8&#45;&gt;Node10</title>
<g id="a_edge11_Node000008_Node000010"><a xlink:title=" ">
<path fill="none" stroke="#63b8ff" d="M515.09,-115.68C536.76,-106.01 571.31,-90.6 596.24,-79.48"/>
<polygon fill="#63b8ff" stroke="#63b8ff" points="597.52,-82.75 605.23,-75.48 594.67,-76.35 597.52,-82.75"/>
</a>
</g>
</g>
<!-- Node11 -->
<g id="Node000011" class="node">
<title>Node11</title>
<g id="a_Node000011"><a xlink:title=" ">
<polygon fill="#e0e0e0" stroke="#999999" points="447.5,-74.5 394,-74.5 394,-55.25 447.5,-55.25 447.5,-74.5"/>
<text text-anchor="middle" x="420.75" y="-61" font-family="Helvetica,sans-Serif" font-size="10.00">iostream</text>
</a>
</g>
</g>
<!-- Node8&#45;&gt;Node11 -->
<g id="edge13_Node000008_Node000011" class="edge">
<title>Node8&#45;&gt;Node11</title>
<g id="a_edge13_Node000008_Node000011"><a xlink:title=" ">
<path fill="none" stroke="#63b8ff" d="M483.51,-115.81C472.21,-106.82 454.54,-92.76 440.83,-81.85"/>
<polygon fill="#63b8ff" stroke="#63b8ff" points="443.28,-79.33 433.28,-75.84 438.93,-84.81 443.28,-79.33"/>
</a>
</g>
</g>
<!-- Node12 -->
<g id="Node000012" class="node">
<title>Node12</title>
<g id="a_Node000012"><a xlink:title=" ">
<polygon fill="#e0e0e0" stroke="#999999" points="526.25,-74.5 465.25,-74.5 465.25,-55.25 526.25,-55.25 526.25,-74.5"/>
<text text-anchor="middle" x="495.75" y="-61" font-family="Helvetica,sans-Serif" font-size="10.00">type_traits</text>
</a>
</g>
</g>
<!-- Node8&#45;&gt;Node12 -->
<g id="edge14_Node000008_Node000012" class="edge">
<title>Node8&#45;&gt;Node12</title>
<g id="a_edge14_Node000008_Node000012"><a xlink:title=" ">
<path fill="none" stroke="#63b8ff" d="M494.9,-115.81C495.03,-108.03 495.23,-96.45 495.4,-86.41"/>
<polygon fill="#63b8ff" stroke="#63b8ff" points="498.9,-86.47 495.57,-76.41 491.9,-86.35 498.9,-86.47"/>
</a>
</g>
</g>
<!-- Node14&#45;&gt;Node3 -->
<g id="edge17_Node000014_Node000003" class="edge">
<title>Node14&#45;&gt;Node3</title>
<g id="a_edge17_Node000014_Node000003"><a xlink:title=" ">
<path fill="none" stroke="#63b8ff" d="M100.03,-243.18C112.45,-235.4 130.92,-223.84 146.95,-213.79"/>
<polygon fill="#63b8ff" stroke="#63b8ff" points="148.65,-216.86 155.27,-208.59 144.93,-210.93 148.65,-216.86"/>
</a>
</g>
</g>
<!-- Node14&#45;&gt;Node13 -->
<g id="edge23_Node000014_Node000013" class="edge">
<title>Node14&#45;&gt;Node13</title>
<g id="a_edge23_Node000014_Node000013"><a xlink:title=" ">
<path fill="none" stroke="#63b8ff" d="M130.65,-243.03C166.4,-235.23 217.45,-222.83 260.75,-207.5 261.55,-207.22 262.35,-206.92 263.16,-206.62"/>
<polygon fill="#63b8ff" stroke="#63b8ff" points="264.34,-209.92 272.22,-202.83 261.65,-203.46 264.34,-209.92"/>
</a>
</g>
</g>
<!-- Node15 -->
<g id="Node000015" class="node">
<title>Node15</title>
<g id="a_Node000015"><a xlink:href="TriggerCandidateData_8hpp.html" target="_top" xlink:title=" ">
<polygon fill="white" stroke="#666666" points="155.5,-141 0,-141 0,-110.5 155.5,-110.5 155.5,-141"/>
<text text-anchor="start" x="8" y="-127.5" font-family="Helvetica,sans-Serif" font-size="10.00">trgdataformats/TriggerCandidate</text>
<text text-anchor="middle" x="77.75" y="-116.25" font-family="Helvetica,sans-Serif" font-size="10.00">Data.hpp</text>
</a>
</g>
</g>
<!-- Node14&#45;&gt;Node15 -->
<g id="edge18_Node000014_Node000015" class="edge">
<title>Node14&#45;&gt;Node15</title>
<g id="a_edge18_Node000014_Node000015"><a xlink:title=" ">
<path fill="none" stroke="#63b8ff" d="M85.17,-243.11C83.98,-224.42 81.2,-180.88 79.4,-152.68"/>
<polygon fill="#63b8ff" stroke="#63b8ff" points="82.9,-152.56 78.77,-142.81 75.92,-153.01 82.9,-152.56"/>
</a>
</g>
</g>
<!-- Node15&#45;&gt;Node4 -->
<g id="edge19_Node000015_Node000004" class="edge">
<title>Node15&#45;&gt;Node4</title>
<g id="a_edge19_Node000015_Node000004"><a xlink:title=" ">
<path fill="none" stroke="#63b8ff" d="M126.95,-110.05C159.74,-100.25 202.34,-87.52 233.38,-78.24"/>
<polygon fill="#63b8ff" stroke="#63b8ff" points="234.22,-81.64 242.8,-75.42 232.21,-74.93 234.22,-81.64"/>
</a>
</g>
</g>
<!-- Node15&#45;&gt;Node5 -->
<g id="edge20_Node000015_Node000005" class="edge">
<title>Node15&#45;&gt;Node5</title>
<g id="a_edge20_Node000015_Node000005"><a xlink:title=" ">
<path fill="none" stroke="#63b8ff" d="M93.2,-110.3C115.83,-89.13 157.89,-49.79 181.84,-27.38"/>
<polygon fill="#63b8ff" stroke="#63b8ff" points="184.03,-30.12 188.95,-20.73 179.25,-25.01 184.03,-30.12"/>
</a>
</g>
</g>
<!-- Node16 -->
<g id="Node000016" class="node">
<title>Node16</title>
<g id="a_Node000016"><a xlink:title=" ">
<polygon fill="#e0e0e0" stroke="#999999" points="101.12,-74.5 66.38,-74.5 66.38,-55.25 101.12,-55.25 101.12,-74.5"/>
<text text-anchor="middle" x="83.75" y="-61" font-family="Helvetica,sans-Serif" font-size="10.00">map</text>
</a>
</g>
</g>
<!-- Node15&#45;&gt;Node16 -->
<g id="edge21_Node000015_Node000016" class="edge">
<title>Node15&#45;&gt;Node16</title>
<g id="a_edge21_Node000015_Node000016"><a xlink:title=" ">
<path fill="none" stroke="#63b8ff" d="M79.23,-110.2C79.97,-102.96 80.88,-94.09 81.68,-86.19"/>
<polygon fill="#63b8ff" stroke="#63b8ff" points="85.14,-86.76 82.67,-76.46 78.18,-86.05 85.14,-86.76"/>
</a>
</g>
</g>
<!-- Node17 -->
<g id="Node000017" class="node">
<title>Node17</title>
<g id="a_Node000017"><a xlink:title=" ">
<polygon fill="#e0e0e0" stroke="#999999" points="48.75,-74.5 8.75,-74.5 8.75,-55.25 48.75,-55.25 48.75,-74.5"/>
<text text-anchor="middle" x="28.75" y="-61" font-family="Helvetica,sans-Serif" font-size="10.00">string</text>
</a>
</g>
</g>
<!-- Node15&#45;&gt;Node17 -->
<g id="edge22_Node000015_Node000017" class="edge">
<title>Node15&#45;&gt;Node17</title>
<g id="a_edge22_Node000015_Node000017"><a xlink:title=" ">
<path fill="none" stroke="#63b8ff" d="M65.64,-110.2C58.97,-102.18 50.63,-92.17 43.57,-83.69"/>
<polygon fill="#63b8ff" stroke="#63b8ff" points="46.36,-81.56 37.27,-76.11 40.98,-86.04 46.36,-81.56"/>
</a>
</g>
</g>
<!-- Node18&#45;&gt;Node4 -->
<g id="edge25_Node000018_Node000004" class="edge">
<title>Node18&#45;&gt;Node4</title>
<g id="a_edge25_Node000018_Node000004"><a xlink:title=" ">
<path fill="none" stroke="#63b8ff" d="M322.24,-115.81C314.02,-107.16 301.35,-93.84 291.16,-83.12"/>
<polygon fill="#63b8ff" stroke="#63b8ff" points="293.81,-80.83 284.38,-76 288.73,-85.66 293.81,-80.83"/>
</a>
</g>
</g>
</g>
</svg>
