<?xml version="1.0" encoding="UTF-8" standalone="no"?>
<!DOCTYPE svg PUBLIC "-//W3C//DTD SVG 1.1//EN"
 "http://www.w3.org/Graphics/SVG/1.1/DTD/svg11.dtd">
<!-- Generated by graphviz version 9.0.0 (20230911.1827)
 -->
<!-- Title: sourcecode/triggeralgs/include/triggeralgs/TriggerActivityMaker.hpp Pages: 1 -->
<svg width="688pt" height="337pt"
 viewBox="0.00 0.00 688.12 337.25" xmlns="http://www.w3.org/2000/svg" xmlns:xlink="http://www.w3.org/1999/xlink">
<g id="graph0" class="graph" transform="scale(1 1) rotate(0) translate(4 333.25)">
<title>sourcecode/triggeralgs/include/triggeralgs/TriggerActivityMaker.hpp</title>
<!-- Node1 -->
<g id="Node000001" class="node">
<title>Node1</title>
<g id="a_Node000001"><a xlink:title=" ">
<polygon fill="#999999" stroke="#666666" points="493.88,-329.25 363.12,-329.25 363.12,-287.5 493.88,-287.5 493.88,-329.25"/>
<text text-anchor="start" x="371.12" y="-315.75" font-family="Helvetica,sans-Serif" font-size="10.00">sourcecode/triggeralgs</text>
<text text-anchor="start" x="371.12" y="-304.5" font-family="Helvetica,sans-Serif" font-size="10.00">/include/triggeralgs/Trigger</text>
<text text-anchor="middle" x="428.5" y="-293.25" font-family="Helvetica,sans-Serif" font-size="10.00">ActivityMaker.hpp</text>
</a>
</g>
</g>
<!-- Node2 -->
<g id="Node000002" class="node">
<title>Node2</title>
<g id="a_Node000002"><a xlink:href="TriggerActivity_8hpp.html" target="_top" xlink:title=" ">
<polygon fill="white" stroke="#666666" points="362.62,-251.5 218.38,-251.5 218.38,-232.25 362.62,-232.25 362.62,-251.5"/>
<text text-anchor="middle" x="290.5" y="-238" font-family="Helvetica,sans-Serif" font-size="10.00">triggeralgs/TriggerActivity.hpp</text>
</a>
</g>
</g>
<!-- Node1&#45;&gt;Node2 -->
<g id="edge1_Node000001_Node000002" class="edge">
<title>Node1&#45;&gt;Node2</title>
<g id="a_edge1_Node000001_Node000002"><a xlink:title=" ">
<path fill="none" stroke="#63b8ff" d="M385.21,-287.14C364.07,-277.26 339.17,-265.62 320.2,-256.76"/>
<polygon fill="#63b8ff" stroke="#63b8ff" points="321.71,-253.6 311.17,-252.54 318.75,-259.94 321.71,-253.6"/>
</a>
</g>
</g>
<!-- Node7 -->
<g id="Node000007" class="node">
<title>Node7</title>
<g id="a_Node000007"><a xlink:href="triggeralgs_2include_2triggeralgs_2TriggerPrimitive_8hpp.html" target="_top" xlink:title=" ">
<polygon fill="white" stroke="#666666" points="263.62,-196.25 113.38,-196.25 113.38,-177 263.62,-177 263.62,-196.25"/>
<text text-anchor="middle" x="188.5" y="-182.75" font-family="Helvetica,sans-Serif" font-size="10.00">triggeralgs/TriggerPrimitive.hpp</text>
</a>
</g>
</g>
<!-- Node1&#45;&gt;Node7 -->
<g id="edge16_Node000001_Node000007" class="edge">
<title>Node1&#45;&gt;Node7</title>
<g id="a_edge16_Node000001_Node000007"><a xlink:title=" ">
<path fill="none" stroke="#63b8ff" d="M362.63,-306.76C314.47,-302.84 250.64,-289.94 209.5,-251.5 197.36,-240.16 192.23,-221.69 190.06,-207.52"/>
<polygon fill="#63b8ff" stroke="#63b8ff" points="193.59,-207.51 188.99,-197.96 186.63,-208.29 193.59,-207.51"/>
</a>
</g>
</g>
<!-- Node13 -->
<g id="Node000013" class="node">
<title>Node13</title>
<g id="a_Node000013"><a xlink:title=" ">
<polygon fill="#e0e0e0" stroke="#999999" points="363,-196.25 320,-196.25 320,-177 363,-177 363,-196.25"/>
<text text-anchor="middle" x="341.5" y="-182.75" font-family="Helvetica,sans-Serif" font-size="10.00">vector</text>
</a>
</g>
</g>
<!-- Node1&#45;&gt;Node13 -->
<g id="edge20_Node000001_Node000013" class="edge">
<title>Node1&#45;&gt;Node13</title>
<g id="a_edge20_Node000001_Node000013"><a xlink:title=" ">
<path fill="none" stroke="#63b8ff" d="M413.74,-287.06C397.17,-264.25 370.52,-227.57 354.64,-205.71"/>
<polygon fill="#63b8ff" stroke="#63b8ff" points="357.59,-203.81 348.88,-197.78 351.92,-207.93 357.59,-203.81"/>
</a>
</g>
</g>
<!-- Node14 -->
<g id="Node000014" class="node">
<title>Node14</title>
<g id="a_Node000014"><a xlink:href="triggeralgs_2include_2triggeralgs_2Types_8hpp.html" target="_top" xlink:title=" ">
<polygon fill="white" stroke="#666666" points="489.62,-196.25 381.38,-196.25 381.38,-177 489.62,-177 489.62,-196.25"/>
<text text-anchor="middle" x="435.5" y="-182.75" font-family="Helvetica,sans-Serif" font-size="10.00">triggeralgs/Types.hpp</text>
</a>
</g>
</g>
<!-- Node1&#45;&gt;Node14 -->
<g id="edge17_Node000001_Node000014" class="edge">
<title>Node1&#45;&gt;Node14</title>
<g id="a_edge17_Node000001_Node000014"><a xlink:title=" ">
<path fill="none" stroke="#63b8ff" d="M429.69,-287.06C430.98,-264.97 433.03,-229.88 434.32,-207.83"/>
<polygon fill="#63b8ff" stroke="#63b8ff" points="437.8,-208.25 434.89,-198.07 430.81,-207.84 437.8,-208.25"/>
</a>
</g>
</g>
<!-- Node15 -->
<g id="Node000015" class="node">
<title>Node15</title>
<g id="a_Node000015"><a xlink:title=" ">
<polygon fill="#e0e0e0" stroke="#999999" points="554,-251.5 457,-251.5 457,-232.25 554,-232.25 554,-251.5"/>
<text text-anchor="middle" x="505.5" y="-238" font-family="Helvetica,sans-Serif" font-size="10.00">nlohmann/json.hpp</text>
</a>
</g>
</g>
<!-- Node1&#45;&gt;Node15 -->
<g id="edge19_Node000001_Node000015" class="edge">
<title>Node1&#45;&gt;Node15</title>
<g id="a_edge19_Node000001_Node000015"><a xlink:title=" ">
<path fill="none" stroke="#63b8ff" d="M452.44,-287.32C463.26,-278.26 475.87,-267.69 486.09,-259.14"/>
<polygon fill="#63b8ff" stroke="#63b8ff" points="488.09,-262.02 493.51,-252.92 483.6,-256.66 488.09,-262.02"/>
</a>
</g>
</g>
<!-- Node16 -->
<g id="Node000016" class="node">
<title>Node16</title>
<g id="a_Node000016"><a xlink:title=" ">
<polygon fill="#e0e0e0" stroke="#999999" points="617.12,-251.5 571.88,-251.5 571.88,-232.25 617.12,-232.25 617.12,-251.5"/>
<text text-anchor="middle" x="594.5" y="-238" font-family="Helvetica,sans-Serif" font-size="10.00">atomic</text>
</a>
</g>
</g>
<!-- Node1&#45;&gt;Node16 -->
<g id="edge21_Node000001_Node000016" class="edge">
<title>Node1&#45;&gt;Node16</title>
<g id="a_edge21_Node000001_Node000016"><a xlink:title=" ">
<path fill="none" stroke="#63b8ff" d="M480.57,-287.14C506.88,-276.92 538.03,-264.82 561.1,-255.85"/>
<polygon fill="#63b8ff" stroke="#63b8ff" points="562.26,-259.16 570.31,-252.27 559.72,-252.63 562.26,-259.16"/>
</a>
</g>
</g>
<!-- Node17 -->
<g id="Node000017" class="node">
<title>Node17</title>
<g id="a_Node000017"><a xlink:title=" ">
<polygon fill="#e0e0e0" stroke="#999999" points="680.12,-251.5 634.88,-251.5 634.88,-232.25 680.12,-232.25 680.12,-251.5"/>
<text text-anchor="middle" x="657.5" y="-238" font-family="Helvetica,sans-Serif" font-size="10.00">chrono</text>
</a>
</g>
</g>
<!-- Node1&#45;&gt;Node17 -->
<g id="edge22_Node000001_Node000017" class="edge">
<title>Node1&#45;&gt;Node17</title>
<g id="a_edge22_Node000001_Node000017"><a xlink:title=" ">
<path fill="none" stroke="#63b8ff" d="M494.12,-288.89C536.51,-276.95 589.91,-261.91 623.88,-252.34"/>
<polygon fill="#63b8ff" stroke="#63b8ff" points="624.49,-255.81 633.16,-249.73 622.59,-249.07 624.49,-255.81"/>
</a>
</g>
</g>
<!-- Node3 -->
<g id="Node000003" class="node">
<title>Node3</title>
<g id="a_Node000003"><a xlink:href="TriggerActivityData_8hpp.html" target="_top" xlink:title=" ">
<polygon fill="white" stroke="#666666" points="407.62,-141 263.38,-141 263.38,-110.5 407.62,-110.5 407.62,-141"/>
<text text-anchor="start" x="271.38" y="-127.5" font-family="Helvetica,sans-Serif" font-size="10.00">trgdataformats/TriggerActivity</text>
<text text-anchor="middle" x="335.5" y="-116.25" font-family="Helvetica,sans-Serif" font-size="10.00">Data.hpp</text>
</a>
</g>
</g>
<!-- Node2&#45;&gt;Node3 -->
<g id="edge2_Node000002_Node000003" class="edge">
<title>Node2&#45;&gt;Node3</title>
<g id="a_edge2_Node000002_Node000003"><a xlink:title=" ">
<path fill="none" stroke="#63b8ff" d="M292.79,-232.04C296.13,-219.57 302.78,-196.19 310.5,-177 313.9,-168.55 318.15,-159.57 322.18,-151.57"/>
<polygon fill="#63b8ff" stroke="#63b8ff" points="325.25,-153.25 326.74,-142.76 319.03,-150.04 325.25,-153.25"/>
</a>
</g>
</g>
<!-- Node2&#45;&gt;Node7 -->
<g id="edge7_Node000002_Node000007" class="edge">
<title>Node2&#45;&gt;Node7</title>
<g id="a_edge7_Node000002_Node000007"><a xlink:title=" ">
<path fill="none" stroke="#63b8ff" d="M273.2,-231.84C257.52,-223.66 234.15,-211.46 215.92,-201.94"/>
<polygon fill="#63b8ff" stroke="#63b8ff" points="217.71,-198.93 207.23,-197.4 214.47,-205.13 217.71,-198.93"/>
</a>
</g>
</g>
<!-- Node2&#45;&gt;Node13 -->
<g id="edge15_Node000002_Node000013" class="edge">
<title>Node2&#45;&gt;Node13</title>
<g id="a_edge15_Node000002_Node000013"><a xlink:title=" ">
<path fill="none" stroke="#63b8ff" d="M298.92,-232.08C306.04,-224.65 316.44,-213.79 325.19,-204.66"/>
<polygon fill="#63b8ff" stroke="#63b8ff" points="327.46,-207.35 331.85,-197.7 322.4,-202.5 327.46,-207.35"/>
</a>
</g>
</g>
<!-- Node4 -->
<g id="Node000004" class="node">
<title>Node4</title>
<g id="a_Node000004"><a xlink:href="trgdataformats_2include_2trgdataformats_2Types_8hpp.html" target="_top" xlink:title=" ">
<polygon fill="white" stroke="#666666" points="477.62,-74.5 351.38,-74.5 351.38,-55.25 477.62,-55.25 477.62,-74.5"/>
<text text-anchor="middle" x="414.5" y="-61" font-family="Helvetica,sans-Serif" font-size="10.00">trgdataformats/Types.hpp</text>
</a>
</g>
</g>
<!-- Node3&#45;&gt;Node4 -->
<g id="edge3_Node000003_Node000004" class="edge">
<title>Node3&#45;&gt;Node4</title>
<g id="a_edge3_Node000003_Node000004"><a xlink:title=" ">
<path fill="none" stroke="#63b8ff" d="M355.03,-110.2C366.59,-101.58 381.26,-90.65 393.13,-81.8"/>
<polygon fill="#63b8ff" stroke="#63b8ff" points="395.18,-84.64 401.11,-75.86 391,-79.02 395.18,-84.64"/>
</a>
</g>
</g>
<!-- Node5 -->
<g id="Node000005" class="node">
<title>Node5</title>
<g id="a_Node000005"><a xlink:title=" ">
<polygon fill="#e0e0e0" stroke="#999999" points="346.12,-19.25 300.88,-19.25 300.88,0 346.12,0 346.12,-19.25"/>
<text text-anchor="middle" x="323.5" y="-5.75" font-family="Helvetica,sans-Serif" font-size="10.00">cstdint</text>
</a>
</g>
</g>
<!-- Node3&#45;&gt;Node5 -->
<g id="edge6_Node000003_Node000005" class="edge">
<title>Node3&#45;&gt;Node5</title>
<g id="a_edge6_Node000003_Node000005"><a xlink:title=" ">
<path fill="none" stroke="#63b8ff" d="M333.98,-110.3C331.87,-90.25 328.05,-53.9 325.65,-31.07"/>
<polygon fill="#63b8ff" stroke="#63b8ff" points="329.14,-30.78 324.61,-21.2 322.18,-31.51 329.14,-30.78"/>
</a>
</g>
</g>
<!-- Node4&#45;&gt;Node5 -->
<g id="edge4_Node000004_Node000005" class="edge">
<title>Node4&#45;&gt;Node5</title>
<g id="a_edge4_Node000004_Node000005"><a xlink:title=" ">
<path fill="none" stroke="#63b8ff" d="M399.06,-54.84C385.34,-46.81 365,-34.91 348.88,-25.48"/>
<polygon fill="#63b8ff" stroke="#63b8ff" points="350.72,-22.5 340.32,-20.47 347.18,-28.54 350.72,-22.5"/>
</a>
</g>
</g>
<!-- Node6 -->
<g id="Node000006" class="node">
<title>Node6</title>
<g id="a_Node000006"><a xlink:title=" ">
<polygon fill="#e0e0e0" stroke="#999999" points="434.12,-19.25 394.88,-19.25 394.88,0 434.12,0 434.12,-19.25"/>
<text text-anchor="middle" x="414.5" y="-5.75" font-family="Helvetica,sans-Serif" font-size="10.00">limits</text>
</a>
</g>
</g>
<!-- Node4&#45;&gt;Node6 -->
<g id="edge5_Node000004_Node000006" class="edge">
<title>Node4&#45;&gt;Node6</title>
<g id="a_edge5_Node000004_Node000006"><a xlink:title=" ">
<path fill="none" stroke="#63b8ff" d="M414.5,-55.08C414.5,-48.57 414.5,-39.42 414.5,-31.12"/>
<polygon fill="#63b8ff" stroke="#63b8ff" points="418,-31.12 414.5,-21.12 411,-31.12 418,-31.12"/>
</a>
</g>
</g>
<!-- Node8 -->
<g id="Node000008" class="node">
<title>Node8</title>
<g id="a_Node000008"><a xlink:href="trgdataformats_2include_2trgdataformats_2TriggerPrimitive_8hpp.html" target="_top" xlink:title=" ">
<polygon fill="white" stroke="#666666" points="245.62,-135.38 77.38,-135.38 77.38,-116.12 245.62,-116.12 245.62,-135.38"/>
<text text-anchor="middle" x="161.5" y="-121.88" font-family="Helvetica,sans-Serif" font-size="10.00">trgdataformats/TriggerPrimitive.hpp</text>
</a>
</g>
</g>
<!-- Node7&#45;&gt;Node8 -->
<g id="edge8_Node000007_Node000008" class="edge">
<title>Node7&#45;&gt;Node8</title>
<g id="a_edge8_Node000007_Node000008"><a xlink:title=" ">
<path fill="none" stroke="#63b8ff" d="M184.4,-176.68C180.67,-168.56 175.05,-156.29 170.31,-145.95"/>
<polygon fill="#63b8ff" stroke="#63b8ff" points="173.62,-144.78 166.27,-137.15 167.26,-147.7 173.62,-144.78"/>
</a>
</g>
</g>
<!-- Node8&#45;&gt;Node4 -->
<g id="edge9_Node000008_Node000004" class="edge">
<title>Node8&#45;&gt;Node4</title>
<g id="a_edge9_Node000008_Node000004"><a xlink:title=" ">
<path fill="none" stroke="#63b8ff" d="M200.48,-115.68C244.49,-105.44 316.23,-88.74 364.38,-77.54"/>
<polygon fill="#63b8ff" stroke="#63b8ff" points="365.06,-80.97 374,-75.3 363.47,-74.16 365.06,-80.97"/>
</a>
</g>
</g>
<!-- Node8&#45;&gt;Node5 -->
<g id="edge12_Node000008_Node000005" class="edge">
<title>Node8&#45;&gt;Node5</title>
<g id="a_edge12_Node000008_Node000005"><a xlink:title=" ">
<path fill="none" stroke="#63b8ff" d="M187.25,-115.74C209.53,-107.21 241.94,-92.95 266.5,-74.5 283.9,-61.43 300.05,-42.41 310.68,-28.52"/>
<polygon fill="#63b8ff" stroke="#63b8ff" points="313.34,-30.81 316.49,-20.69 307.72,-26.64 313.34,-30.81"/>
</a>
</g>
</g>
<!-- Node9 -->
<g id="Node000009" class="node">
<title>Node9</title>
<g id="a_Node000009"><a xlink:title=" ">
<polygon fill="#e0e0e0" stroke="#999999" points="119.5,-74.5 79.5,-74.5 79.5,-55.25 119.5,-55.25 119.5,-74.5"/>
<text text-anchor="middle" x="99.5" y="-61" font-family="Helvetica,sans-Serif" font-size="10.00">bitset</text>
</a>
</g>
</g>
<!-- Node8&#45;&gt;Node9 -->
<g id="edge10_Node000008_Node000009" class="edge">
<title>Node8&#45;&gt;Node9</title>
<g id="a_edge10_Node000008_Node000009"><a xlink:title=" ">
<path fill="none" stroke="#63b8ff" d="M152.08,-115.81C142.89,-107.08 128.66,-93.57 117.33,-82.8"/>
<polygon fill="#63b8ff" stroke="#63b8ff" points="119.76,-80.29 110.1,-75.94 114.94,-85.37 119.76,-80.29"/>
</a>
</g>
</g>
<!-- Node10 -->
<g id="Node000010" class="node">
<title>Node10</title>
<g id="a_Node000010"><a xlink:title=" ">
<polygon fill="#e0e0e0" stroke="#999999" points="185.62,-74.5 137.38,-74.5 137.38,-55.25 185.62,-55.25 185.62,-74.5"/>
<text text-anchor="middle" x="161.5" y="-61" font-family="Helvetica,sans-Serif" font-size="10.00">cstddef</text>
</a>
</g>
</g>
<!-- Node8&#45;&gt;Node10 -->
<g id="edge11_Node000008_Node000010" class="edge">
<title>Node8&#45;&gt;Node10</title>
<g id="a_edge11_Node000008_Node000010"><a xlink:title=" ">
<path fill="none" stroke="#63b8ff" d="M161.5,-115.81C161.5,-108.03 161.5,-96.45 161.5,-86.41"/>
<polygon fill="#63b8ff" stroke="#63b8ff" points="165,-86.41 161.5,-76.41 158,-86.41 165,-86.41"/>
</a>
</g>
</g>
<!-- Node11 -->
<g id="Node000011" class="node">
<title>Node11</title>
<g id="a_Node000011"><a xlink:title=" ">
<polygon fill="#e0e0e0" stroke="#999999" points="257.25,-74.5 203.75,-74.5 203.75,-55.25 257.25,-55.25 257.25,-74.5"/>
<text text-anchor="middle" x="230.5" y="-61" font-family="Helvetica,sans-Serif" font-size="10.00">iostream</text>
</a>
</g>
</g>
<!-- Node8&#45;&gt;Node11 -->
<g id="edge13_Node000008_Node000011" class="edge">
<title>Node8&#45;&gt;Node11</title>
<g id="a_edge13_Node000008_Node000011"><a xlink:title=" ">
<path fill="none" stroke="#63b8ff" d="M171.98,-115.81C182.42,-106.9 198.67,-93.03 211.41,-82.17"/>
<polygon fill="#63b8ff" stroke="#63b8ff" points="213.44,-85.04 218.77,-75.88 208.89,-79.71 213.44,-85.04"/>
</a>
</g>
</g>
<!-- Node12 -->
<g id="Node000012" class="node">
<title>Node12</title>
<g id="a_Node000012"><a xlink:title=" ">
<polygon fill="#e0e0e0" stroke="#999999" points="61,-74.5 0,-74.5 0,-55.25 61,-55.25 61,-74.5"/>
<text text-anchor="middle" x="30.5" y="-61" font-family="Helvetica,sans-Serif" font-size="10.00">type_traits</text>
</a>
</g>
</g>
<!-- Node8&#45;&gt;Node12 -->
<g id="edge14_Node000008_Node000012" class="edge">
<title>Node8&#45;&gt;Node12</title>
<g id="a_edge14_Node000008_Node000012"><a xlink:title=" ">
<path fill="none" stroke="#63b8ff" d="M141.32,-115.68C119.81,-106.01 85.52,-90.6 60.78,-79.48"/>
<polygon fill="#63b8ff" stroke="#63b8ff" points="62.43,-76.39 51.87,-75.48 59.56,-82.77 62.43,-76.39"/>
</a>
</g>
</g>
<!-- Node14&#45;&gt;Node4 -->
<g id="edge18_Node000014_Node000004" class="edge">
<title>Node14&#45;&gt;Node4</title>
<g id="a_edge18_Node000014_Node000004"><a xlink:title=" ">
<path fill="none" stroke="#63b8ff" d="M433.92,-176.62C430.58,-157.55 422.71,-112.66 418.08,-86.26"/>
<polygon fill="#63b8ff" stroke="#63b8ff" points="421.53,-85.72 416.36,-76.47 414.64,-86.93 421.53,-85.72"/>
</a>
</g>
</g>
</g>
</svg>
