<?xml version="1.0" encoding="UTF-8" standalone="no"?>
<!DOCTYPE svg PUBLIC "-//W3C//DTD SVG 1.1//EN"
 "http://www.w3.org/Graphics/SVG/1.1/DTD/svg11.dtd">
<!-- Generated by graphviz version 9.0.0 (20230911.1827)
 -->
<!-- Title: sourcecode/triggeralgs/include/triggeralgs/TriggerActivityFactory.hpp Pages: 1 -->
<svg width="1665pt" height="217pt"
 viewBox="0.00 0.00 1665.25 216.50" xmlns="http://www.w3.org/2000/svg" xmlns:xlink="http://www.w3.org/1999/xlink">
<g id="graph0" class="graph" transform="scale(1 1) rotate(0) translate(4 212.5)">
<title>sourcecode/triggeralgs/include/triggeralgs/TriggerActivityFactory.hpp</title>
<!-- Node1 -->
<g id="Node000001" class="node">
<title>Node1</title>
<g id="a_Node000001"><a xlink:title=" ">
<polygon fill="#999999" stroke="#666666" points="928.62,-208.5 797.88,-208.5 797.88,-166.75 928.62,-166.75 928.62,-208.5"/>
<text text-anchor="start" x="805.88" y="-195" font-family="Helvetica,sans-Serif" font-size="10.00">sourcecode/triggeralgs</text>
<text text-anchor="start" x="805.88" y="-183.75" font-family="Helvetica,sans-Serif" font-size="10.00">/include/triggeralgs/Trigger</text>
<text text-anchor="middle" x="863.25" y="-172.5" font-family="Helvetica,sans-Serif" font-size="10.00">ActivityFactory.hpp</text>
</a>
</g>
</g>
<!-- Node2 -->
<g id="Node000002" class="node">
<title>Node2</title>
<g id="a_Node000002"><a xlink:href="AlgorithmPlugins_8hpp.html" target="_top" xlink:title=" ">
<polygon fill="white" stroke="#666666" points="238.25,-125.12 114.25,-125.12 114.25,-83.38 238.25,-83.38 238.25,-125.12"/>
<text text-anchor="start" x="122.25" y="-111.62" font-family="Helvetica,sans-Serif" font-size="10.00">sourcecode/trigger</text>
<text text-anchor="start" x="122.25" y="-100.38" font-family="Helvetica,sans-Serif" font-size="10.00">/include/trigger/Algorithm</text>
<text text-anchor="middle" x="176.25" y="-89.12" font-family="Helvetica,sans-Serif" font-size="10.00">Plugins.hpp</text>
</a>
</g>
</g>
<!-- Node1&#45;&gt;Node2 -->
<g id="edge1_Node000001_Node000002" class="edge">
<title>Node1&#45;&gt;Node2</title>
<g id="a_edge1_Node000001_Node000002"><a xlink:title=" ">
<path fill="none" stroke="#63b8ff" d="M786.31,-185.89C668.77,-183.38 438.02,-172.94 247.25,-130.75 240.98,-129.36 234.52,-127.57 228.15,-125.59"/>
<polygon fill="#63b8ff" stroke="#63b8ff" points="786.09,-189.39 796.16,-186.09 786.23,-182.39 786.09,-189.39"/>
</a>
</g>
</g>
<!-- Node5 -->
<g id="Node000005" class="node">
<title>Node5</title>
<g id="a_Node000005"><a xlink:href="TriggerActivityMakerADCSimpleWindow_8hpp.html" target="_top" xlink:title=" ">
<polygon fill="white" stroke="#666666" points="449.75,-130.75 256.75,-130.75 256.75,-77.75 449.75,-77.75 449.75,-130.75"/>
<text text-anchor="start" x="264.75" y="-117.25" font-family="Helvetica,sans-Serif" font-size="10.00">sourcecode/triggeralgs</text>
<text text-anchor="start" x="264.75" y="-106" font-family="Helvetica,sans-Serif" font-size="10.00">/include/triggeralgs/ADCSimple</text>
<text text-anchor="start" x="264.75" y="-94.75" font-family="Helvetica,sans-Serif" font-size="10.00">Window/TriggerActivityMakerADCSimple</text>
<text text-anchor="middle" x="353.25" y="-83.5" font-family="Helvetica,sans-Serif" font-size="10.00">Window.hpp</text>
</a>
</g>
</g>
<!-- Node1&#45;&gt;Node5 -->
<g id="edge4_Node000001_Node000005" class="edge">
<title>Node1&#45;&gt;Node5</title>
<g id="a_edge4_Node000001_Node000005"><a xlink:title=" ">
<path fill="none" stroke="#63b8ff" d="M786.25,-178.35C704.49,-169.02 571.69,-152.29 458.25,-130.75 455.58,-130.24 452.87,-129.71 450.14,-129.16"/>
<polygon fill="#63b8ff" stroke="#63b8ff" points="785.85,-181.83 796.18,-179.48 786.64,-174.87 785.85,-181.83"/>
</a>
</g>
</g>
<!-- Node7 -->
<g id="Node000007" class="node">
<title>Node7</title>
<g id="a_Node000007"><a xlink:href="TriggerActivityMakerHorizontalMuon_8hpp.html" target="_top" xlink:title=" ">
<polygon fill="white" stroke="#666666" points="643.12,-130.75 467.38,-130.75 467.38,-77.75 643.12,-77.75 643.12,-130.75"/>
<text text-anchor="start" x="475.38" y="-117.25" font-family="Helvetica,sans-Serif" font-size="10.00">sourcecode/triggeralgs</text>
<text text-anchor="start" x="475.38" y="-106" font-family="Helvetica,sans-Serif" font-size="10.00">/include/triggeralgs/Horizontal</text>
<text text-anchor="start" x="475.38" y="-94.75" font-family="Helvetica,sans-Serif" font-size="10.00">Muon/TriggerActivityMakerHorizontal</text>
<text text-anchor="middle" x="555.25" y="-83.5" font-family="Helvetica,sans-Serif" font-size="10.00">Muon.hpp</text>
</a>
</g>
</g>
<!-- Node1&#45;&gt;Node7 -->
<g id="edge6_Node000001_Node000007" class="edge">
<title>Node1&#45;&gt;Node7</title>
<g id="a_edge6_Node000001_Node000007"><a xlink:title=" ">
<path fill="none" stroke="#63b8ff" d="M786.47,-166.34C743.03,-154.86 688.53,-140.46 643.35,-128.53"/>
<polygon fill="#63b8ff" stroke="#63b8ff" points="785.53,-169.71 796.09,-168.88 787.32,-162.94 785.53,-169.71"/>
</a>
</g>
</g>
<!-- Node9 -->
<g id="Node000009" class="node">
<title>Node9</title>
<g id="a_Node000009"><a xlink:href="TriggerActivityMakerMichelElectron_8hpp.html" target="_top" xlink:title=" ">
<polygon fill="white" stroke="#666666" points="851.25,-125.12 661.25,-125.12 661.25,-83.38 851.25,-83.38 851.25,-125.12"/>
<text text-anchor="start" x="669.25" y="-111.62" font-family="Helvetica,sans-Serif" font-size="10.00">sourcecode/triggeralgs</text>
<text text-anchor="start" x="669.25" y="-100.38" font-family="Helvetica,sans-Serif" font-size="10.00">/include/triggeralgs/MichelElectron</text>
<text text-anchor="middle" x="756.25" y="-89.12" font-family="Helvetica,sans-Serif" font-size="10.00">/TriggerActivityMakerMichelElectron.hpp</text>
</a>
</g>
</g>
<!-- Node1&#45;&gt;Node9 -->
<g id="edge8_Node000001_Node000009" class="edge">
<title>Node1&#45;&gt;Node9</title>
<g id="a_edge8_Node000001_Node000009"><a xlink:title=" ">
<path fill="none" stroke="#63b8ff" d="M827.75,-159.62C813.16,-148.53 796.54,-135.89 783,-125.6"/>
<polygon fill="#63b8ff" stroke="#63b8ff" points="825.24,-162.12 835.32,-165.38 829.48,-156.55 825.24,-162.12"/>
</a>
</g>
</g>
<!-- Node11 -->
<g id="Node000011" class="node">
<title>Node11</title>
<g id="a_Node000011"><a xlink:href="TriggerActivityMakerPlaneCoincidence_8hpp.html" target="_top" xlink:title=" ">
<polygon fill="white" stroke="#666666" points="1073.38,-125.12 869.12,-125.12 869.12,-83.38 1073.38,-83.38 1073.38,-125.12"/>
<text text-anchor="start" x="877.12" y="-111.62" font-family="Helvetica,sans-Serif" font-size="10.00">sourcecode/triggeralgs</text>
<text text-anchor="start" x="877.12" y="-100.38" font-family="Helvetica,sans-Serif" font-size="10.00">/include/triggeralgs/PlaneCoincidence</text>
<text text-anchor="middle" x="971.25" y="-89.12" font-family="Helvetica,sans-Serif" font-size="10.00">/TriggerActivityMakerPlaneCoincidence.hpp</text>
</a>
</g>
</g>
<!-- Node1&#45;&gt;Node11 -->
<g id="edge10_Node000001_Node000011" class="edge">
<title>Node1&#45;&gt;Node11</title>
<g id="a_edge10_Node000001_Node000011"><a xlink:title=" ">
<path fill="none" stroke="#63b8ff" d="M899.08,-159.62C913.81,-148.53 930.58,-135.89 944.25,-125.6"/>
<polygon fill="#63b8ff" stroke="#63b8ff" points="897.31,-156.58 891.43,-165.39 901.53,-162.17 897.31,-156.58"/>
</a>
</g>
</g>
<!-- Node13 -->
<g id="Node000013" class="node">
<title>Node13</title>
<g id="a_Node000013"><a xlink:href="TriggerActivityMakerPrescale_8hpp.html" target="_top" xlink:title=" ">
<polygon fill="white" stroke="#666666" points="1255.5,-125.12 1091,-125.12 1091,-83.38 1255.5,-83.38 1255.5,-125.12"/>
<text text-anchor="start" x="1099" y="-111.62" font-family="Helvetica,sans-Serif" font-size="10.00">sourcecode/triggeralgs</text>
<text text-anchor="start" x="1099" y="-100.38" font-family="Helvetica,sans-Serif" font-size="10.00">/include/triggeralgs/Prescale</text>
<text text-anchor="middle" x="1173.25" y="-89.12" font-family="Helvetica,sans-Serif" font-size="10.00">/TriggerActivityMakerPrescale.hpp</text>
</a>
</g>
</g>
<!-- Node1&#45;&gt;Node13 -->
<g id="edge12_Node000001_Node000013" class="edge">
<title>Node1&#45;&gt;Node13</title>
<g id="a_edge12_Node000001_Node000013"><a xlink:title=" ">
<path fill="none" stroke="#63b8ff" d="M940,-167.51C982.07,-156.92 1035.1,-143.37 1082.25,-130.75 1088.43,-129.1 1094.84,-127.35 1101.27,-125.59"/>
<polygon fill="#63b8ff" stroke="#63b8ff" points="939.31,-164.07 930.47,-169.91 941.02,-170.86 939.31,-164.07"/>
</a>
</g>
</g>
<!-- Node15 -->
<g id="Node000015" class="node">
<title>Node15</title>
<g id="a_Node000015"><a xlink:href="TriggerActivityMakerSupernova_8hpp.html" target="_top" xlink:title=" ">
<polygon fill="white" stroke="#666666" points="1446.62,-125.12 1273.88,-125.12 1273.88,-83.38 1446.62,-83.38 1446.62,-125.12"/>
<text text-anchor="start" x="1281.88" y="-111.62" font-family="Helvetica,sans-Serif" font-size="10.00">sourcecode/triggeralgs</text>
<text text-anchor="start" x="1281.88" y="-100.38" font-family="Helvetica,sans-Serif" font-size="10.00">/include/triggeralgs/Supernova</text>
<text text-anchor="middle" x="1360.25" y="-89.12" font-family="Helvetica,sans-Serif" font-size="10.00">/TriggerActivityMakerSupernova.hpp</text>
</a>
</g>
</g>
<!-- Node1&#45;&gt;Node15 -->
<g id="edge14_Node000001_Node000015" class="edge">
<title>Node1&#45;&gt;Node15</title>
<g id="a_edge14_Node000001_Node000015"><a xlink:title=" ">
<path fill="none" stroke="#63b8ff" d="M940.05,-178.72C1021.11,-169.73 1152.38,-153.32 1264.25,-130.75 1271.77,-129.23 1279.58,-127.47 1287.35,-125.6"/>
<polygon fill="#63b8ff" stroke="#63b8ff" points="940.01,-175.21 930.46,-179.78 940.78,-182.17 940.01,-175.21"/>
</a>
</g>
</g>
<!-- Node17 -->
<g id="Node000017" class="node">
<title>Node17</title>
<g id="a_Node000017"><a xlink:href="TriggerActivityMakerDBSCAN_8hpp.html" target="_top" xlink:title=" ">
<polygon fill="white" stroke="#666666" points="1640,-125.12 1472.5,-125.12 1472.5,-83.38 1640,-83.38 1640,-125.12"/>
<text text-anchor="start" x="1480.5" y="-111.62" font-family="Helvetica,sans-Serif" font-size="10.00">sourcecode/triggeralgs</text>
<text text-anchor="start" x="1480.5" y="-100.38" font-family="Helvetica,sans-Serif" font-size="10.00">/include/triggeralgs/dbscan</text>
<text text-anchor="middle" x="1556.25" y="-89.12" font-family="Helvetica,sans-Serif" font-size="10.00">/TriggerActivityMakerDBSCAN.hpp</text>
</a>
</g>
</g>
<!-- Node1&#45;&gt;Node17 -->
<g id="edge16_Node000001_Node000017" class="edge">
<title>Node1&#45;&gt;Node17</title>
<g id="a_edge16_Node000001_Node000017"><a xlink:title=" ">
<path fill="none" stroke="#63b8ff" d="M940.26,-183.13C1053.69,-177.13 1272.06,-162.33 1455.25,-130.75 1463.63,-129.31 1472.33,-127.53 1480.96,-125.6"/>
<polygon fill="#63b8ff" stroke="#63b8ff" points="940.26,-179.62 930.46,-183.64 940.63,-186.61 940.26,-179.62"/>
</a>
</g>
</g>
<!-- Node3 -->
<g id="Node000003" class="node">
<title>Node3</title>
<g id="a_Node000003"><a xlink:href="TAProcessor_8cpp.html" target="_top" xlink:title=" ">
<polygon fill="white" stroke="#666666" points="110.5,-36.12 0,-36.12 0,-5.62 110.5,-5.62 110.5,-36.12"/>
<text text-anchor="start" x="8" y="-22.62" font-family="Helvetica,sans-Serif" font-size="10.00">sourcecode/trigger</text>
<text text-anchor="middle" x="55.25" y="-11.38" font-family="Helvetica,sans-Serif" font-size="10.00">/src/TAProcessor.cpp</text>
</a>
</g>
</g>
<!-- Node2&#45;&gt;Node3 -->
<g id="edge2_Node000002_Node000003" class="edge">
<title>Node2&#45;&gt;Node3</title>
<g id="a_edge2_Node000002_Node000003"><a xlink:title=" ">
<path fill="none" stroke="#63b8ff" d="M136.63,-76.61C116.84,-63.3 93.66,-47.71 77.11,-36.58"/>
<polygon fill="#63b8ff" stroke="#63b8ff" points="134.52,-79.4 144.77,-82.08 138.43,-73.6 134.52,-79.4"/>
</a>
</g>
</g>
<!-- Node4 -->
<g id="Node000004" class="node">
<title>Node4</title>
<g id="a_Node000004"><a xlink:href="TPProcessor_8cpp.html" target="_top" xlink:title=" ">
<polygon fill="white" stroke="#666666" points="239.5,-36.12 129,-36.12 129,-5.62 239.5,-5.62 239.5,-36.12"/>
<text text-anchor="start" x="137" y="-22.62" font-family="Helvetica,sans-Serif" font-size="10.00">sourcecode/trigger</text>
<text text-anchor="middle" x="184.25" y="-11.38" font-family="Helvetica,sans-Serif" font-size="10.00">/src/TPProcessor.cpp</text>
</a>
</g>
</g>
<!-- Node2&#45;&gt;Node4 -->
<g id="edge3_Node000002_Node000004" class="edge">
<title>Node2&#45;&gt;Node4</title>
<g id="a_edge3_Node000002_Node000004"><a xlink:title=" ">
<path fill="none" stroke="#63b8ff" d="M179.33,-71.93C180.53,-59.69 181.85,-46.26 182.82,-36.4"/>
<polygon fill="#63b8ff" stroke="#63b8ff" points="175.87,-71.33 178.38,-81.63 182.84,-72.02 175.87,-71.33"/>
</a>
</g>
</g>
<!-- Node6 -->
<g id="Node000006" class="node">
<title>Node6</title>
<g id="a_Node000006"><a xlink:href="TriggerActivityMakerADCSimpleWindow_8cpp.html" target="_top" xlink:title=" ">
<polygon fill="white" stroke="#666666" points="440.75,-41.75 265.75,-41.75 265.75,0 440.75,0 440.75,-41.75"/>
<text text-anchor="start" x="273.75" y="-28.25" font-family="Helvetica,sans-Serif" font-size="10.00">sourcecode/triggeralgs</text>
<text text-anchor="start" x="273.75" y="-17" font-family="Helvetica,sans-Serif" font-size="10.00">/src/TriggerActivityMakerADCSimple</text>
<text text-anchor="middle" x="353.25" y="-5.75" font-family="Helvetica,sans-Serif" font-size="10.00">Window.cpp</text>
</a>
</g>
</g>
<!-- Node5&#45;&gt;Node6 -->
<g id="edge5_Node000005_Node000006" class="edge">
<title>Node5&#45;&gt;Node6</title>
<g id="a_edge5_Node000005_Node000006"><a xlink:title=" ">
<path fill="none" stroke="#63b8ff" d="M353.25,-66.08C353.25,-57.8 353.25,-49.33 353.25,-42.04"/>
<polygon fill="#63b8ff" stroke="#63b8ff" points="349.75,-65.99 353.25,-75.99 356.75,-65.99 349.75,-65.99"/>
</a>
</g>
</g>
<!-- Node8 -->
<g id="Node000008" class="node">
<title>Node8</title>
<g id="a_Node000008"><a xlink:href="TriggerActivityMakerHorizontalMuon_8cpp.html" target="_top" xlink:title=" ">
<polygon fill="white" stroke="#666666" points="639.38,-41.75 471.12,-41.75 471.12,0 639.38,0 639.38,-41.75"/>
<text text-anchor="start" x="479.12" y="-28.25" font-family="Helvetica,sans-Serif" font-size="10.00">sourcecode/triggeralgs</text>
<text text-anchor="start" x="479.12" y="-17" font-family="Helvetica,sans-Serif" font-size="10.00">/src/TriggerActivityMakerHorizontal</text>
<text text-anchor="middle" x="555.25" y="-5.75" font-family="Helvetica,sans-Serif" font-size="10.00">Muon.cpp</text>
</a>
</g>
</g>
<!-- Node7&#45;&gt;Node8 -->
<g id="edge7_Node000007_Node000008" class="edge">
<title>Node7&#45;&gt;Node8</title>
<g id="a_edge7_Node000007_Node000008"><a xlink:title=" ">
<path fill="none" stroke="#63b8ff" d="M555.25,-66.08C555.25,-57.8 555.25,-49.33 555.25,-42.04"/>
<polygon fill="#63b8ff" stroke="#63b8ff" points="551.75,-65.99 555.25,-75.99 558.75,-65.99 551.75,-65.99"/>
</a>
</g>
</g>
<!-- Node10 -->
<g id="Node000010" class="node">
<title>Node10</title>
<g id="a_Node000010"><a xlink:href="TriggerActivityMakerMichelElectron_8cpp.html" target="_top" xlink:title=" ">
<polygon fill="white" stroke="#666666" points="832.88,-41.75 679.62,-41.75 679.62,0 832.88,0 832.88,-41.75"/>
<text text-anchor="start" x="687.62" y="-28.25" font-family="Helvetica,sans-Serif" font-size="10.00">sourcecode/triggeralgs</text>
<text text-anchor="start" x="687.62" y="-17" font-family="Helvetica,sans-Serif" font-size="10.00">/src/TriggerActivityMakerMichel</text>
<text text-anchor="middle" x="756.25" y="-5.75" font-family="Helvetica,sans-Serif" font-size="10.00">Electron.cpp</text>
</a>
</g>
</g>
<!-- Node9&#45;&gt;Node10 -->
<g id="edge9_Node000009_Node000010" class="edge">
<title>Node9&#45;&gt;Node10</title>
<g id="a_edge9_Node000009_Node000010"><a xlink:title=" ">
<path fill="none" stroke="#63b8ff" d="M756.25,-71.89C756.25,-61.87 756.25,-51.05 756.25,-42.04"/>
<polygon fill="#63b8ff" stroke="#63b8ff" points="752.75,-71.62 756.25,-81.62 759.75,-71.62 752.75,-71.62"/>
</a>
</g>
</g>
<!-- Node12 -->
<g id="Node000012" class="node">
<title>Node12</title>
<g id="a_Node000012"><a xlink:href="TriggerActivityMakerPlaneCoincidence_8cpp.html" target="_top" xlink:title=" ">
<polygon fill="white" stroke="#666666" points="1046,-41.75 896.5,-41.75 896.5,0 1046,0 1046,-41.75"/>
<text text-anchor="start" x="904.5" y="-28.25" font-family="Helvetica,sans-Serif" font-size="10.00">sourcecode/triggeralgs</text>
<text text-anchor="start" x="904.5" y="-17" font-family="Helvetica,sans-Serif" font-size="10.00">/src/TriggerActivityMakerPlane</text>
<text text-anchor="middle" x="971.25" y="-5.75" font-family="Helvetica,sans-Serif" font-size="10.00">Coincidence.cpp</text>
</a>
</g>
</g>
<!-- Node11&#45;&gt;Node12 -->
<g id="edge11_Node000011_Node000012" class="edge">
<title>Node11&#45;&gt;Node12</title>
<g id="a_edge11_Node000011_Node000012"><a xlink:title=" ">
<path fill="none" stroke="#63b8ff" d="M971.25,-71.89C971.25,-61.87 971.25,-51.05 971.25,-42.04"/>
<polygon fill="#63b8ff" stroke="#63b8ff" points="967.75,-71.62 971.25,-81.62 974.75,-71.62 967.75,-71.62"/>
</a>
</g>
</g>
<!-- Node14 -->
<g id="Node000014" class="node">
<title>Node14</title>
<g id="a_Node000014"><a xlink:href="TriggerActivityMakerPrescale_8cpp.html" target="_top" xlink:title=" ">
<polygon fill="white" stroke="#666666" points="1247.75,-36.12 1066.75,-36.12 1066.75,-5.62 1247.75,-5.62 1247.75,-36.12"/>
<text text-anchor="start" x="1074.75" y="-22.62" font-family="Helvetica,sans-Serif" font-size="10.00">sourcecode/triggeralgs</text>
<text text-anchor="middle" x="1157.25" y="-11.38" font-family="Helvetica,sans-Serif" font-size="10.00">/src/TriggerActivityMakerPrescale.cpp</text>
</a>
</g>
</g>
<!-- Node13&#45;&gt;Node14 -->
<g id="edge13_Node000013_Node000014" class="edge">
<title>Node13&#45;&gt;Node14</title>
<g id="a_edge13_Node000013_Node000014"><a xlink:title=" ">
<path fill="none" stroke="#63b8ff" d="M1167.09,-71.93C1164.69,-59.69 1162.04,-46.26 1160.11,-36.4"/>
<polygon fill="#63b8ff" stroke="#63b8ff" points="1163.64,-72.51 1169,-81.65 1170.51,-71.16 1163.64,-72.51"/>
</a>
</g>
</g>
<!-- Node16 -->
<g id="Node000016" class="node">
<title>Node16</title>
<g id="a_Node000016"><a xlink:href="TriggerActivityMakerSupernova_8cpp.html" target="_top" xlink:title=" ">
<polygon fill="white" stroke="#666666" points="1454.88,-36.12 1265.62,-36.12 1265.62,-5.62 1454.88,-5.62 1454.88,-36.12"/>
<text text-anchor="start" x="1273.62" y="-22.62" font-family="Helvetica,sans-Serif" font-size="10.00">sourcecode/triggeralgs</text>
<text text-anchor="middle" x="1360.25" y="-11.38" font-family="Helvetica,sans-Serif" font-size="10.00">/src/TriggerActivityMakerSupernova.cpp</text>
</a>
</g>
</g>
<!-- Node15&#45;&gt;Node16 -->
<g id="edge15_Node000015_Node000016" class="edge">
<title>Node15&#45;&gt;Node16</title>
<g id="a_edge15_Node000015_Node000016"><a xlink:title=" ">
<path fill="none" stroke="#63b8ff" d="M1360.25,-71.93C1360.25,-59.69 1360.25,-46.26 1360.25,-36.4"/>
<polygon fill="#63b8ff" stroke="#63b8ff" points="1356.75,-71.62 1360.25,-81.62 1363.75,-71.62 1356.75,-71.62"/>
</a>
</g>
</g>
<!-- Node18 -->
<g id="Node000018" class="node">
<title>Node18</title>
<g id="a_Node000018"><a xlink:href="TriggerActivityMakerDBSCAN_8cpp.html" target="_top" xlink:title=" ">
<polygon fill="white" stroke="#666666" points="1657.25,-36.12 1473.25,-36.12 1473.25,-5.62 1657.25,-5.62 1657.25,-36.12"/>
<text text-anchor="start" x="1481.25" y="-22.62" font-family="Helvetica,sans-Serif" font-size="10.00">sourcecode/triggeralgs</text>
<text text-anchor="middle" x="1565.25" y="-11.38" font-family="Helvetica,sans-Serif" font-size="10.00">/src/TriggerActivityMakerDBSCAN.cpp</text>
</a>
</g>
</g>
<!-- Node17&#45;&gt;Node18 -->
<g id="edge17_Node000017_Node000018" class="edge">
<title>Node17&#45;&gt;Node18</title>
<g id="a_edge17_Node000017_Node000018"><a xlink:title=" ">
<path fill="none" stroke="#63b8ff" d="M1559.71,-71.93C1561.07,-59.69 1562.55,-46.26 1563.64,-36.4"/>
<polygon fill="#63b8ff" stroke="#63b8ff" points="1556.26,-71.31 1558.64,-81.63 1563.22,-72.08 1556.26,-71.31"/>
</a>
</g>
</g>
</g>
</svg>
