<?xml version="1.0" encoding="UTF-8" standalone="no"?>
<!DOCTYPE svg PUBLIC "-//W3C//DTD SVG 1.1//EN"
 "http://www.w3.org/Graphics/SVG/1.1/DTD/svg11.dtd">
<!-- Generated by graphviz version 9.0.0 (20230911.1827)
 -->
<!-- Title: sourcecode/triggeralgs/include/triggeralgs/TriggerActivityMaker.hpp Pages: 1 -->
<svg width="1664pt" height="294pt"
 viewBox="0.00 0.00 1664.25 294.25" xmlns="http://www.w3.org/2000/svg" xmlns:xlink="http://www.w3.org/1999/xlink">
<g id="graph0" class="graph" transform="scale(1 1) rotate(0) translate(4 290.25)">
<title>sourcecode/triggeralgs/include/triggeralgs/TriggerActivityMaker.hpp</title>
<!-- Node1 -->
<g id="Node000001" class="node">
<title>Node1</title>
<g id="a_Node000001"><a xlink:title=" ">
<polygon fill="#999999" stroke="#666666" points="210.62,-286.25 79.88,-286.25 79.88,-244.5 210.62,-244.5 210.62,-286.25"/>
<text text-anchor="start" x="87.88" y="-272.75" font-family="Helvetica,sans-Serif" font-size="10.00">sourcecode/triggeralgs</text>
<text text-anchor="start" x="87.88" y="-261.5" font-family="Helvetica,sans-Serif" font-size="10.00">/include/triggeralgs/Trigger</text>
<text text-anchor="middle" x="145.25" y="-250.25" font-family="Helvetica,sans-Serif" font-size="10.00">ActivityMaker.hpp</text>
</a>
</g>
</g>
<!-- Node2 -->
<g id="Node000002" class="node">
<title>Node2</title>
<g id="a_Node000002"><a xlink:href="TPProcessor_8cpp.html" target="_top" xlink:title=" ">
<polygon fill="white" stroke="#666666" points="110.5,-36.12 0,-36.12 0,-5.62 110.5,-5.62 110.5,-36.12"/>
<text text-anchor="start" x="8" y="-22.62" font-family="Helvetica,sans-Serif" font-size="10.00">sourcecode/trigger</text>
<text text-anchor="middle" x="55.25" y="-11.38" font-family="Helvetica,sans-Serif" font-size="10.00">/src/TPProcessor.cpp</text>
</a>
</g>
</g>
<!-- Node1&#45;&gt;Node2 -->
<g id="edge1_Node000001_Node000002" class="edge">
<title>Node1&#45;&gt;Node2</title>
<g id="a_edge1_Node000001_Node000002"><a xlink:title=" ">
<path fill="none" stroke="#63b8ff" d="M93.06,-237.55C82.46,-229.65 72.62,-219.97 66.25,-208.5 34.73,-151.75 45.75,-69.77 52.07,-36.61"/>
<polygon fill="#63b8ff" stroke="#63b8ff" points="91.03,-240.4 101.25,-243.18 94.99,-234.63 91.03,-240.4"/>
</a>
</g>
</g>
<!-- Node3 -->
<g id="Node000003" class="node">
<title>Node3</title>
<g id="a_Node000003"><a xlink:href="TPProcessor_8hpp.html" target="_top" xlink:title=" ">
<polygon fill="white" stroke="#666666" points="215.5,-202.88 75,-202.88 75,-172.38 215.5,-172.38 215.5,-202.88"/>
<text text-anchor="start" x="83" y="-189.38" font-family="Helvetica,sans-Serif" font-size="10.00">sourcecode/trigger</text>
<text text-anchor="middle" x="145.25" y="-178.12" font-family="Helvetica,sans-Serif" font-size="10.00">/src/trigger/TPProcessor.hpp</text>
</a>
</g>
</g>
<!-- Node1&#45;&gt;Node3 -->
<g id="edge2_Node000001_Node000003" class="edge">
<title>Node1&#45;&gt;Node3</title>
<g id="a_edge2_Node000001_Node000003"><a xlink:title=" ">
<path fill="none" stroke="#63b8ff" d="M145.25,-232.81C145.25,-222.44 145.25,-211.42 145.25,-202.98"/>
<polygon fill="#63b8ff" stroke="#63b8ff" points="141.75,-232.56 145.25,-242.56 148.75,-232.56 141.75,-232.56"/>
</a>
</g>
</g>
<!-- Node4 -->
<g id="Node000004" class="node">
<title>Node4</title>
<g id="a_Node000004"><a xlink:href="TriggerActivityFactory_8hpp.html" target="_top" xlink:title=" ">
<polygon fill="white" stroke="#666666" points="820.62,-208.5 689.88,-208.5 689.88,-166.75 820.62,-166.75 820.62,-208.5"/>
<text text-anchor="start" x="697.88" y="-195" font-family="Helvetica,sans-Serif" font-size="10.00">sourcecode/triggeralgs</text>
<text text-anchor="start" x="697.88" y="-183.75" font-family="Helvetica,sans-Serif" font-size="10.00">/include/triggeralgs/Trigger</text>
<text text-anchor="middle" x="755.25" y="-172.5" font-family="Helvetica,sans-Serif" font-size="10.00">ActivityFactory.hpp</text>
</a>
</g>
</g>
<!-- Node1&#45;&gt;Node4 -->
<g id="edge4_Node000001_Node000004" class="edge">
<title>Node1&#45;&gt;Node4</title>
<g id="a_edge4_Node000001_Node000004"><a xlink:title=" ">
<path fill="none" stroke="#63b8ff" d="M222.48,-254.78C343.61,-239.74 576.15,-210.87 689.67,-196.77"/>
<polygon fill="#63b8ff" stroke="#63b8ff" points="222.1,-251.3 212.61,-256.01 222.97,-258.25 222.1,-251.3"/>
</a>
</g>
</g>
<!-- Node3&#45;&gt;Node2 -->
<g id="edge3_Node000003_Node000002" class="edge">
<title>Node3&#45;&gt;Node2</title>
<g id="a_edge3_Node000003_Node000002"><a xlink:title=" ">
<path fill="none" stroke="#63b8ff" d="M126.24,-163.04C118.89,-153.35 110.71,-141.82 104.25,-130.75 85.45,-98.52 68.86,-57.79 60.67,-36.44"/>
<polygon fill="#63b8ff" stroke="#63b8ff" points="123.4,-165.08 132.29,-170.84 128.92,-160.79 123.4,-165.08"/>
</a>
</g>
</g>
<!-- Node5 -->
<g id="Node000005" class="node">
<title>Node5</title>
<g id="a_Node000005"><a xlink:href="AlgorithmPlugins_8hpp.html" target="_top" xlink:title=" ">
<polygon fill="white" stroke="#666666" points="237.25,-125.12 113.25,-125.12 113.25,-83.38 237.25,-83.38 237.25,-125.12"/>
<text text-anchor="start" x="121.25" y="-111.62" font-family="Helvetica,sans-Serif" font-size="10.00">sourcecode/trigger</text>
<text text-anchor="start" x="121.25" y="-100.38" font-family="Helvetica,sans-Serif" font-size="10.00">/include/trigger/Algorithm</text>
<text text-anchor="middle" x="175.25" y="-89.12" font-family="Helvetica,sans-Serif" font-size="10.00">Plugins.hpp</text>
</a>
</g>
</g>
<!-- Node4&#45;&gt;Node5 -->
<g id="edge5_Node000004_Node000005" class="edge">
<title>Node4&#45;&gt;Node5</title>
<g id="a_edge5_Node000004_Node000005"><a xlink:title=" ">
<path fill="none" stroke="#63b8ff" d="M678.5,-183.82C578.03,-178.88 397,-165.58 246.25,-130.75 240.12,-129.33 233.8,-127.55 227.57,-125.59"/>
<polygon fill="#63b8ff" stroke="#63b8ff" points="678.08,-187.31 688.24,-184.28 678.41,-180.31 678.08,-187.31"/>
</a>
</g>
</g>
<!-- Node7 -->
<g id="Node000007" class="node">
<title>Node7</title>
<g id="a_Node000007"><a xlink:href="TriggerActivityMakerADCSimpleWindow_8hpp.html" target="_top" xlink:title=" ">
<polygon fill="white" stroke="#666666" points="448.75,-130.75 255.75,-130.75 255.75,-77.75 448.75,-77.75 448.75,-130.75"/>
<text text-anchor="start" x="263.75" y="-117.25" font-family="Helvetica,sans-Serif" font-size="10.00">sourcecode/triggeralgs</text>
<text text-anchor="start" x="263.75" y="-106" font-family="Helvetica,sans-Serif" font-size="10.00">/include/triggeralgs/ADCSimple</text>
<text text-anchor="start" x="263.75" y="-94.75" font-family="Helvetica,sans-Serif" font-size="10.00">Window/TriggerActivityMakerADCSimple</text>
<text text-anchor="middle" x="352.25" y="-83.5" font-family="Helvetica,sans-Serif" font-size="10.00">Window.hpp</text>
</a>
</g>
</g>
<!-- Node4&#45;&gt;Node7 -->
<g id="edge8_Node000004_Node000007" class="edge">
<title>Node4&#45;&gt;Node7</title>
<g id="a_edge8_Node000004_Node000007"><a xlink:title=" ">
<path fill="none" stroke="#63b8ff" d="M678.32,-173.35C618.01,-162.67 532.06,-146.84 457.25,-130.75 454.59,-130.18 451.9,-129.59 449.18,-128.99"/>
<polygon fill="#63b8ff" stroke="#63b8ff" points="677.7,-176.8 688.16,-175.09 678.92,-169.91 677.7,-176.8"/>
</a>
</g>
</g>
<!-- Node9 -->
<g id="Node000009" class="node">
<title>Node9</title>
<g id="a_Node000009"><a xlink:href="TriggerActivityMakerHorizontalMuon_8hpp.html" target="_top" xlink:title=" ">
<polygon fill="white" stroke="#666666" points="642.12,-130.75 466.38,-130.75 466.38,-77.75 642.12,-77.75 642.12,-130.75"/>
<text text-anchor="start" x="474.38" y="-117.25" font-family="Helvetica,sans-Serif" font-size="10.00">sourcecode/triggeralgs</text>
<text text-anchor="start" x="474.38" y="-106" font-family="Helvetica,sans-Serif" font-size="10.00">/include/triggeralgs/Horizontal</text>
<text text-anchor="start" x="474.38" y="-94.75" font-family="Helvetica,sans-Serif" font-size="10.00">Muon/TriggerActivityMakerHorizontal</text>
<text text-anchor="middle" x="554.25" y="-83.5" font-family="Helvetica,sans-Serif" font-size="10.00">Muon.hpp</text>
</a>
</g>
</g>
<!-- Node4&#45;&gt;Node9 -->
<g id="edge10_Node000004_Node000009" class="edge">
<title>Node4&#45;&gt;Node9</title>
<g id="a_edge10_Node000004_Node000009"><a xlink:title=" ">
<path fill="none" stroke="#63b8ff" d="M694.6,-162.07C670.47,-152.3 642.69,-141.05 618.24,-131.16"/>
<polygon fill="#63b8ff" stroke="#63b8ff" points="693.06,-165.22 703.64,-165.73 695.69,-158.74 693.06,-165.22"/>
</a>
</g>
</g>
<!-- Node11 -->
<g id="Node000011" class="node">
<title>Node11</title>
<g id="a_Node000011"><a xlink:href="TriggerActivityMakerMichelElectron_8hpp.html" target="_top" xlink:title=" ">
<polygon fill="white" stroke="#666666" points="850.25,-125.12 660.25,-125.12 660.25,-83.38 850.25,-83.38 850.25,-125.12"/>
<text text-anchor="start" x="668.25" y="-111.62" font-family="Helvetica,sans-Serif" font-size="10.00">sourcecode/triggeralgs</text>
<text text-anchor="start" x="668.25" y="-100.38" font-family="Helvetica,sans-Serif" font-size="10.00">/include/triggeralgs/MichelElectron</text>
<text text-anchor="middle" x="755.25" y="-89.12" font-family="Helvetica,sans-Serif" font-size="10.00">/TriggerActivityMakerMichelElectron.hpp</text>
</a>
</g>
</g>
<!-- Node4&#45;&gt;Node11 -->
<g id="edge12_Node000004_Node000011" class="edge">
<title>Node4&#45;&gt;Node11</title>
<g id="a_edge12_Node000004_Node000011"><a xlink:title=" ">
<path fill="none" stroke="#63b8ff" d="M755.25,-155.27C755.25,-145.24 755.25,-134.42 755.25,-125.42"/>
<polygon fill="#63b8ff" stroke="#63b8ff" points="751.75,-155 755.25,-165 758.75,-155 751.75,-155"/>
</a>
</g>
</g>
<!-- Node13 -->
<g id="Node000013" class="node">
<title>Node13</title>
<g id="a_Node000013"><a xlink:href="TriggerActivityMakerPlaneCoincidence_8hpp.html" target="_top" xlink:title=" ">
<polygon fill="white" stroke="#666666" points="1072.38,-125.12 868.12,-125.12 868.12,-83.38 1072.38,-83.38 1072.38,-125.12"/>
<text text-anchor="start" x="876.12" y="-111.62" font-family="Helvetica,sans-Serif" font-size="10.00">sourcecode/triggeralgs</text>
<text text-anchor="start" x="876.12" y="-100.38" font-family="Helvetica,sans-Serif" font-size="10.00">/include/triggeralgs/PlaneCoincidence</text>
<text text-anchor="middle" x="970.25" y="-89.12" font-family="Helvetica,sans-Serif" font-size="10.00">/TriggerActivityMakerPlaneCoincidence.hpp</text>
</a>
</g>
</g>
<!-- Node4&#45;&gt;Node13 -->
<g id="edge14_Node000004_Node000013" class="edge">
<title>Node4&#45;&gt;Node13</title>
<g id="a_edge14_Node000004_Node000013"><a xlink:title=" ">
<path fill="none" stroke="#63b8ff" d="M819.62,-162.26C850.51,-150.57 887.11,-136.72 916.49,-125.6"/>
<polygon fill="#63b8ff" stroke="#63b8ff" points="818.48,-158.95 810.36,-165.76 820.96,-165.5 818.48,-158.95"/>
</a>
</g>
</g>
<!-- Node15 -->
<g id="Node000015" class="node">
<title>Node15</title>
<g id="a_Node000015"><a xlink:href="TriggerActivityMakerPrescale_8hpp.html" target="_top" xlink:title=" ">
<polygon fill="white" stroke="#666666" points="1254.5,-125.12 1090,-125.12 1090,-83.38 1254.5,-83.38 1254.5,-125.12"/>
<text text-anchor="start" x="1098" y="-111.62" font-family="Helvetica,sans-Serif" font-size="10.00">sourcecode/triggeralgs</text>
<text text-anchor="start" x="1098" y="-100.38" font-family="Helvetica,sans-Serif" font-size="10.00">/include/triggeralgs/Prescale</text>
<text text-anchor="middle" x="1172.25" y="-89.12" font-family="Helvetica,sans-Serif" font-size="10.00">/TriggerActivityMakerPrescale.hpp</text>
</a>
</g>
</g>
<!-- Node4&#45;&gt;Node15 -->
<g id="edge16_Node000004_Node000015" class="edge">
<title>Node4&#45;&gt;Node15</title>
<g id="a_edge16_Node000004_Node000015"><a xlink:title=" ">
<path fill="none" stroke="#63b8ff" d="M832.08,-175.75C898.42,-165.82 996.65,-149.8 1081.25,-130.75 1088.13,-129.2 1095.27,-127.45 1102.38,-125.61"/>
<polygon fill="#63b8ff" stroke="#63b8ff" points="831.77,-172.26 822.39,-177.19 832.8,-179.18 831.77,-172.26"/>
</a>
</g>
</g>
<!-- Node17 -->
<g id="Node000017" class="node">
<title>Node17</title>
<g id="a_Node000017"><a xlink:href="TriggerActivityMakerSupernova_8hpp.html" target="_top" xlink:title=" ">
<polygon fill="white" stroke="#666666" points="1445.62,-125.12 1272.88,-125.12 1272.88,-83.38 1445.62,-83.38 1445.62,-125.12"/>
<text text-anchor="start" x="1280.88" y="-111.62" font-family="Helvetica,sans-Serif" font-size="10.00">sourcecode/triggeralgs</text>
<text text-anchor="start" x="1280.88" y="-100.38" font-family="Helvetica,sans-Serif" font-size="10.00">/include/triggeralgs/Supernova</text>
<text text-anchor="middle" x="1359.25" y="-89.12" font-family="Helvetica,sans-Serif" font-size="10.00">/TriggerActivityMakerSupernova.hpp</text>
</a>
</g>
</g>
<!-- Node4&#45;&gt;Node17 -->
<g id="edge18_Node000004_Node000017" class="edge">
<title>Node4&#45;&gt;Node17</title>
<g id="a_edge18_Node000004_Node000017"><a xlink:title=" ">
<path fill="none" stroke="#63b8ff" d="M832.27,-181.77C932.25,-174.64 1111.87,-159.01 1263.25,-130.75 1271.13,-129.28 1279.32,-127.5 1287.44,-125.57"/>
<polygon fill="#63b8ff" stroke="#63b8ff" points="832.31,-178.26 822.58,-182.45 832.8,-185.24 832.31,-178.26"/>
</a>
</g>
</g>
<!-- Node19 -->
<g id="Node000019" class="node">
<title>Node19</title>
<g id="a_Node000019"><a xlink:href="TriggerActivityMakerDBSCAN_8hpp.html" target="_top" xlink:title=" ">
<polygon fill="white" stroke="#666666" points="1640,-125.12 1472.5,-125.12 1472.5,-83.38 1640,-83.38 1640,-125.12"/>
<text text-anchor="start" x="1480.5" y="-111.62" font-family="Helvetica,sans-Serif" font-size="10.00">sourcecode/triggeralgs</text>
<text text-anchor="start" x="1480.5" y="-100.38" font-family="Helvetica,sans-Serif" font-size="10.00">/include/triggeralgs/dbscan</text>
<text text-anchor="middle" x="1556.25" y="-89.12" font-family="Helvetica,sans-Serif" font-size="10.00">/TriggerActivityMakerDBSCAN.hpp</text>
</a>
</g>
</g>
<!-- Node4&#45;&gt;Node19 -->
<g id="edge20_Node000004_Node000019" class="edge">
<title>Node4&#45;&gt;Node19</title>
<g id="a_edge20_Node000004_Node000019"><a xlink:title=" ">
<path fill="none" stroke="#63b8ff" d="M832.05,-184.63C961.27,-180.35 1230.05,-167.48 1454.25,-130.75 1462.9,-129.33 1471.89,-127.55 1480.79,-125.59"/>
<polygon fill="#63b8ff" stroke="#63b8ff" points="832.13,-181.13 822.25,-184.95 832.35,-188.12 832.13,-181.13"/>
</a>
</g>
</g>
<!-- Node5&#45;&gt;Node2 -->
<g id="edge7_Node000005_Node000002" class="edge">
<title>Node5&#45;&gt;Node2</title>
<g id="a_edge7_Node000005_Node000002"><a xlink:title=" ">
<path fill="none" stroke="#63b8ff" d="M135.96,-76.61C116.33,-63.3 93.34,-47.71 76.93,-36.58"/>
<polygon fill="#63b8ff" stroke="#63b8ff" points="133.78,-79.36 144.03,-82.08 137.71,-73.57 133.78,-79.36"/>
</a>
</g>
</g>
<!-- Node6 -->
<g id="Node000006" class="node">
<title>Node6</title>
<g id="a_Node000006"><a xlink:href="TAProcessor_8cpp.html" target="_top" xlink:title=" ">
<polygon fill="white" stroke="#666666" points="239.5,-36.12 129,-36.12 129,-5.62 239.5,-5.62 239.5,-36.12"/>
<text text-anchor="start" x="137" y="-22.62" font-family="Helvetica,sans-Serif" font-size="10.00">sourcecode/trigger</text>
<text text-anchor="middle" x="184.25" y="-11.38" font-family="Helvetica,sans-Serif" font-size="10.00">/src/TAProcessor.cpp</text>
</a>
</g>
</g>
<!-- Node5&#45;&gt;Node6 -->
<g id="edge6_Node000005_Node000006" class="edge">
<title>Node5&#45;&gt;Node6</title>
<g id="a_edge6_Node000005_Node000006"><a xlink:title=" ">
<path fill="none" stroke="#63b8ff" d="M178.71,-71.93C180.07,-59.69 181.55,-46.26 182.64,-36.4"/>
<polygon fill="#63b8ff" stroke="#63b8ff" points="175.26,-71.31 177.64,-81.63 182.22,-72.08 175.26,-71.31"/>
</a>
</g>
</g>
<!-- Node8 -->
<g id="Node000008" class="node">
<title>Node8</title>
<g id="a_Node000008"><a xlink:href="TriggerActivityMakerADCSimpleWindow_8cpp.html" target="_top" xlink:title=" ">
<polygon fill="white" stroke="#666666" points="439.75,-41.75 264.75,-41.75 264.75,0 439.75,0 439.75,-41.75"/>
<text text-anchor="start" x="272.75" y="-28.25" font-family="Helvetica,sans-Serif" font-size="10.00">sourcecode/triggeralgs</text>
<text text-anchor="start" x="272.75" y="-17" font-family="Helvetica,sans-Serif" font-size="10.00">/src/TriggerActivityMakerADCSimple</text>
<text text-anchor="middle" x="352.25" y="-5.75" font-family="Helvetica,sans-Serif" font-size="10.00">Window.cpp</text>
</a>
</g>
</g>
<!-- Node7&#45;&gt;Node8 -->
<g id="edge9_Node000007_Node000008" class="edge">
<title>Node7&#45;&gt;Node8</title>
<g id="a_edge9_Node000007_Node000008"><a xlink:title=" ">
<path fill="none" stroke="#63b8ff" d="M352.25,-66.08C352.25,-57.8 352.25,-49.33 352.25,-42.04"/>
<polygon fill="#63b8ff" stroke="#63b8ff" points="348.75,-65.99 352.25,-75.99 355.75,-65.99 348.75,-65.99"/>
</a>
</g>
</g>
<!-- Node10 -->
<g id="Node000010" class="node">
<title>Node10</title>
<g id="a_Node000010"><a xlink:href="TriggerActivityMakerHorizontalMuon_8cpp.html" target="_top" xlink:title=" ">
<polygon fill="white" stroke="#666666" points="638.38,-41.75 470.12,-41.75 470.12,0 638.38,0 638.38,-41.75"/>
<text text-anchor="start" x="478.12" y="-28.25" font-family="Helvetica,sans-Serif" font-size="10.00">sourcecode/triggeralgs</text>
<text text-anchor="start" x="478.12" y="-17" font-family="Helvetica,sans-Serif" font-size="10.00">/src/TriggerActivityMakerHorizontal</text>
<text text-anchor="middle" x="554.25" y="-5.75" font-family="Helvetica,sans-Serif" font-size="10.00">Muon.cpp</text>
</a>
</g>
</g>
<!-- Node9&#45;&gt;Node10 -->
<g id="edge11_Node000009_Node000010" class="edge">
<title>Node9&#45;&gt;Node10</title>
<g id="a_edge11_Node000009_Node000010"><a xlink:title=" ">
<path fill="none" stroke="#63b8ff" d="M554.25,-66.08C554.25,-57.8 554.25,-49.33 554.25,-42.04"/>
<polygon fill="#63b8ff" stroke="#63b8ff" points="550.75,-65.99 554.25,-75.99 557.75,-65.99 550.75,-65.99"/>
</a>
</g>
</g>
<!-- Node12 -->
<g id="Node000012" class="node">
<title>Node12</title>
<g id="a_Node000012"><a xlink:href="TriggerActivityMakerMichelElectron_8cpp.html" target="_top" xlink:title=" ">
<polygon fill="white" stroke="#666666" points="831.88,-41.75 678.62,-41.75 678.62,0 831.88,0 831.88,-41.75"/>
<text text-anchor="start" x="686.62" y="-28.25" font-family="Helvetica,sans-Serif" font-size="10.00">sourcecode/triggeralgs</text>
<text text-anchor="start" x="686.62" y="-17" font-family="Helvetica,sans-Serif" font-size="10.00">/src/TriggerActivityMakerMichel</text>
<text text-anchor="middle" x="755.25" y="-5.75" font-family="Helvetica,sans-Serif" font-size="10.00">Electron.cpp</text>
</a>
</g>
</g>
<!-- Node11&#45;&gt;Node12 -->
<g id="edge13_Node000011_Node000012" class="edge">
<title>Node11&#45;&gt;Node12</title>
<g id="a_edge13_Node000011_Node000012"><a xlink:title=" ">
<path fill="none" stroke="#63b8ff" d="M755.25,-71.89C755.25,-61.87 755.25,-51.05 755.25,-42.04"/>
<polygon fill="#63b8ff" stroke="#63b8ff" points="751.75,-71.62 755.25,-81.62 758.75,-71.62 751.75,-71.62"/>
</a>
</g>
</g>
<!-- Node14 -->
<g id="Node000014" class="node">
<title>Node14</title>
<g id="a_Node000014"><a xlink:href="TriggerActivityMakerPlaneCoincidence_8cpp.html" target="_top" xlink:title=" ">
<polygon fill="white" stroke="#666666" points="1045,-41.75 895.5,-41.75 895.5,0 1045,0 1045,-41.75"/>
<text text-anchor="start" x="903.5" y="-28.25" font-family="Helvetica,sans-Serif" font-size="10.00">sourcecode/triggeralgs</text>
<text text-anchor="start" x="903.5" y="-17" font-family="Helvetica,sans-Serif" font-size="10.00">/src/TriggerActivityMakerPlane</text>
<text text-anchor="middle" x="970.25" y="-5.75" font-family="Helvetica,sans-Serif" font-size="10.00">Coincidence.cpp</text>
</a>
</g>
</g>
<!-- Node13&#45;&gt;Node14 -->
<g id="edge15_Node000013_Node000014" class="edge">
<title>Node13&#45;&gt;Node14</title>
<g id="a_edge15_Node000013_Node000014"><a xlink:title=" ">
<path fill="none" stroke="#63b8ff" d="M970.25,-71.89C970.25,-61.87 970.25,-51.05 970.25,-42.04"/>
<polygon fill="#63b8ff" stroke="#63b8ff" points="966.75,-71.62 970.25,-81.62 973.75,-71.62 966.75,-71.62"/>
</a>
</g>
</g>
<!-- Node16 -->
<g id="Node000016" class="node">
<title>Node16</title>
<g id="a_Node000016"><a xlink:href="TriggerActivityMakerPrescale_8cpp.html" target="_top" xlink:title=" ">
<polygon fill="white" stroke="#666666" points="1246.75,-36.12 1065.75,-36.12 1065.75,-5.62 1246.75,-5.62 1246.75,-36.12"/>
<text text-anchor="start" x="1073.75" y="-22.62" font-family="Helvetica,sans-Serif" font-size="10.00">sourcecode/triggeralgs</text>
<text text-anchor="middle" x="1156.25" y="-11.38" font-family="Helvetica,sans-Serif" font-size="10.00">/src/TriggerActivityMakerPrescale.cpp</text>
</a>
</g>
</g>
<!-- Node15&#45;&gt;Node16 -->
<g id="edge17_Node000015_Node000016" class="edge">
<title>Node15&#45;&gt;Node16</title>
<g id="a_edge17_Node000015_Node000016"><a xlink:title=" ">
<path fill="none" stroke="#63b8ff" d="M1166.09,-71.93C1163.69,-59.69 1161.04,-46.26 1159.11,-36.4"/>
<polygon fill="#63b8ff" stroke="#63b8ff" points="1162.64,-72.51 1168,-81.65 1169.51,-71.16 1162.64,-72.51"/>
</a>
</g>
</g>
<!-- Node18 -->
<g id="Node000018" class="node">
<title>Node18</title>
<g id="a_Node000018"><a xlink:href="TriggerActivityMakerSupernova_8cpp.html" target="_top" xlink:title=" ">
<polygon fill="white" stroke="#666666" points="1453.88,-36.12 1264.62,-36.12 1264.62,-5.62 1453.88,-5.62 1453.88,-36.12"/>
<text text-anchor="start" x="1272.62" y="-22.62" font-family="Helvetica,sans-Serif" font-size="10.00">sourcecode/triggeralgs</text>
<text text-anchor="middle" x="1359.25" y="-11.38" font-family="Helvetica,sans-Serif" font-size="10.00">/src/TriggerActivityMakerSupernova.cpp</text>
</a>
</g>
</g>
<!-- Node17&#45;&gt;Node18 -->
<g id="edge19_Node000017_Node000018" class="edge">
<title>Node17&#45;&gt;Node18</title>
<g id="a_edge19_Node000017_Node000018"><a xlink:title=" ">
<path fill="none" stroke="#63b8ff" d="M1359.25,-71.93C1359.25,-59.69 1359.25,-46.26 1359.25,-36.4"/>
<polygon fill="#63b8ff" stroke="#63b8ff" points="1355.75,-71.62 1359.25,-81.62 1362.75,-71.62 1355.75,-71.62"/>
</a>
</g>
</g>
<!-- Node20 -->
<g id="Node000020" class="node">
<title>Node20</title>
<g id="a_Node000020"><a xlink:href="TriggerActivityMakerDBSCAN_8cpp.html" target="_top" xlink:title=" ">
<polygon fill="white" stroke="#666666" points="1656.25,-36.12 1472.25,-36.12 1472.25,-5.62 1656.25,-5.62 1656.25,-36.12"/>
<text text-anchor="start" x="1480.25" y="-22.62" font-family="Helvetica,sans-Serif" font-size="10.00">sourcecode/triggeralgs</text>
<text text-anchor="middle" x="1564.25" y="-11.38" font-family="Helvetica,sans-Serif" font-size="10.00">/src/TriggerActivityMakerDBSCAN.cpp</text>
</a>
</g>
</g>
<!-- Node19&#45;&gt;Node20 -->
<g id="edge21_Node000019_Node000020" class="edge">
<title>Node19&#45;&gt;Node20</title>
<g id="a_edge21_Node000019_Node000020"><a xlink:title=" ">
<path fill="none" stroke="#63b8ff" d="M1559.33,-71.93C1560.53,-59.69 1561.85,-46.26 1562.82,-36.4"/>
<polygon fill="#63b8ff" stroke="#63b8ff" points="1555.87,-71.33 1558.38,-81.63 1562.84,-72.02 1555.87,-71.33"/>
</a>
</g>
</g>
</g>
</svg>
