<?xml version="1.0" encoding="UTF-8" standalone="no"?>
<!DOCTYPE svg PUBLIC "-//W3C//DTD SVG 1.1//EN"
 "http://www.w3.org/Graphics/SVG/1.1/DTD/svg11.dtd">
<!-- Generated by graphviz version 9.0.0 (20230911.1827)
 -->
<!-- Title: sourcecode/triggeralgs/include/triggeralgs/TriggerDecisionMaker.hpp Pages: 1 -->
<svg width="464pt" height="337pt"
 viewBox="0.00 0.00 463.67 337.25" xmlns="http://www.w3.org/2000/svg" xmlns:xlink="http://www.w3.org/1999/xlink">
<g id="graph0" class="graph" transform="scale(1 1) rotate(0) translate(4 333.25)">
<title>sourcecode/triggeralgs/include/triggeralgs/TriggerDecisionMaker.hpp</title>
<!-- Node1 -->
<g id="Node000001" class="node">
<title>Node1</title>
<g id="a_Node000001"><a xlink:title=" ">
<polygon fill="#999999" stroke="#666666" points="301.92,-329.25 171.17,-329.25 171.17,-287.5 301.92,-287.5 301.92,-329.25"/>
<text text-anchor="start" x="179.17" y="-315.75" font-family="Helvetica,sans-Serif" font-size="10.00">sourcecode/triggeralgs</text>
<text text-anchor="start" x="179.17" y="-304.5" font-family="Helvetica,sans-Serif" font-size="10.00">/include/triggeralgs/Trigger</text>
<text text-anchor="middle" x="236.54" y="-293.25" font-family="Helvetica,sans-Serif" font-size="10.00">DecisionMaker.hpp</text>
</a>
</g>
</g>
<!-- Node2 -->
<g id="Node000002" class="node">
<title>Node2</title>
<g id="a_Node000002"><a xlink:href="TriggerCandidate_8hpp.html" target="_top" xlink:title=" ">
<polygon fill="white" stroke="#666666" points="270.29,-196.25 114.79,-196.25 114.79,-177 270.29,-177 270.29,-196.25"/>
<text text-anchor="middle" x="192.54" y="-182.75" font-family="Helvetica,sans-Serif" font-size="10.00">triggeralgs/TriggerCandidate.hpp</text>
</a>
</g>
</g>
<!-- Node1&#45;&gt;Node2 -->
<g id="edge1_Node000001_Node000002" class="edge">
<title>Node1&#45;&gt;Node2</title>
<g id="a_edge1_Node000001_Node000002"><a xlink:title=" ">
<path fill="none" stroke="#63b8ff" d="M229.08,-287.06C220.89,-264.77 207.83,-229.22 199.74,-207.22"/>
<polygon fill="#63b8ff" stroke="#63b8ff" points="203.08,-206.16 196.35,-197.98 196.51,-208.57 203.08,-206.16"/>
</a>
</g>
</g>
<!-- Node10 -->
<g id="Node000010" class="node">
<title>Node10</title>
<g id="a_Node000010"><a xlink:title=" ">
<polygon fill="#e0e0e0" stroke="#999999" points="58.04,-135.38 15.04,-135.38 15.04,-116.12 58.04,-116.12 58.04,-135.38"/>
<text text-anchor="middle" x="36.54" y="-121.88" font-family="Helvetica,sans-Serif" font-size="10.00">vector</text>
</a>
</g>
</g>
<!-- Node1&#45;&gt;Node10 -->
<g id="edge20_Node000001_Node000010" class="edge">
<title>Node1&#45;&gt;Node10</title>
<g id="a_edge20_Node000001_Node000010"><a xlink:title=" ">
<path fill="none" stroke="#63b8ff" d="M170.92,-300.01C111.74,-291.86 31.07,-276.47 11.54,-251.5 -12.85,-220.3 9.19,-171.61 24.59,-145.23"/>
<polygon fill="#63b8ff" stroke="#63b8ff" points="27.39,-147.35 29.64,-137 21.43,-143.69 27.39,-147.35"/>
</a>
</g>
</g>
<!-- Node11 -->
<g id="Node000011" class="node">
<title>Node11</title>
<g id="a_Node000011"><a xlink:href="triggeralgs_2include_2triggeralgs_2TriggerDecision_8hpp.html" target="_top" xlink:title=" ">
<polygon fill="white" stroke="#666666" points="170.29,-251.5 20.79,-251.5 20.79,-232.25 170.29,-232.25 170.29,-251.5"/>
<text text-anchor="middle" x="95.54" y="-238" font-family="Helvetica,sans-Serif" font-size="10.00">triggeralgs/TriggerDecision.hpp</text>
</a>
</g>
</g>
<!-- Node1&#45;&gt;Node11 -->
<g id="edge13_Node000001_Node000011" class="edge">
<title>Node1&#45;&gt;Node11</title>
<g id="a_edge13_Node000001_Node000011"><a xlink:title=" ">
<path fill="none" stroke="#63b8ff" d="M192.32,-287.14C170.61,-277.21 145.03,-265.51 125.62,-256.63"/>
<polygon fill="#63b8ff" stroke="#63b8ff" points="127.19,-253.5 116.64,-252.52 124.28,-259.87 127.19,-253.5"/>
</a>
</g>
</g>
<!-- Node13 -->
<g id="Node000013" class="node">
<title>Node13</title>
<g id="a_Node000013"><a xlink:title=" ">
<polygon fill="#e0e0e0" stroke="#999999" points="324.04,-251.5 227.04,-251.5 227.04,-232.25 324.04,-232.25 324.04,-251.5"/>
<text text-anchor="middle" x="275.54" y="-238" font-family="Helvetica,sans-Serif" font-size="10.00">nlohmann/json.hpp</text>
</a>
</g>
</g>
<!-- Node1&#45;&gt;Node13 -->
<g id="edge19_Node000001_Node000013" class="edge">
<title>Node1&#45;&gt;Node13</title>
<g id="a_edge19_Node000001_Node000013"><a xlink:title=" ">
<path fill="none" stroke="#63b8ff" d="M248.67,-287.32C253.65,-279.09 259.37,-269.62 264.26,-261.54"/>
<polygon fill="#63b8ff" stroke="#63b8ff" points="267.1,-263.61 269.28,-253.24 261.11,-259.99 267.1,-263.61"/>
</a>
</g>
</g>
<!-- Node14 -->
<g id="Node000014" class="node">
<title>Node14</title>
<g id="a_Node000014"><a xlink:title=" ">
<polygon fill="#e0e0e0" stroke="#999999" points="387.17,-251.5 341.92,-251.5 341.92,-232.25 387.17,-232.25 387.17,-251.5"/>
<text text-anchor="middle" x="364.54" y="-238" font-family="Helvetica,sans-Serif" font-size="10.00">atomic</text>
</a>
</g>
</g>
<!-- Node1&#45;&gt;Node14 -->
<g id="edge21_Node000001_Node000014" class="edge">
<title>Node1&#45;&gt;Node14</title>
<g id="a_edge21_Node000001_Node000014"><a xlink:title=" ">
<path fill="none" stroke="#63b8ff" d="M276.69,-287.14C296.12,-277.35 318.97,-265.84 336.5,-257.01"/>
<polygon fill="#63b8ff" stroke="#63b8ff" points="337.94,-260.2 345.29,-252.58 334.79,-253.95 337.94,-260.2"/>
</a>
</g>
</g>
<!-- Node15 -->
<g id="Node000015" class="node">
<title>Node15</title>
<g id="a_Node000015"><a xlink:title=" ">
<polygon fill="#e0e0e0" stroke="#999999" points="450.17,-251.5 404.92,-251.5 404.92,-232.25 450.17,-232.25 450.17,-251.5"/>
<text text-anchor="middle" x="427.54" y="-238" font-family="Helvetica,sans-Serif" font-size="10.00">chrono</text>
</a>
</g>
</g>
<!-- Node1&#45;&gt;Node15 -->
<g id="edge22_Node000001_Node000015" class="edge">
<title>Node1&#45;&gt;Node15</title>
<g id="a_edge22_Node000001_Node000015"><a xlink:title=" ">
<path fill="none" stroke="#63b8ff" d="M296.72,-287.06C328.86,-276.2 367.23,-263.24 394.07,-254.18"/>
<polygon fill="#63b8ff" stroke="#63b8ff" points="395.03,-257.55 403.39,-251.03 392.79,-250.92 395.03,-257.55"/>
</a>
</g>
</g>
<!-- Node3 -->
<g id="Node000003" class="node">
<title>Node3</title>
<g id="a_Node000003"><a xlink:href="TriggerActivityData_8hpp.html" target="_top" xlink:title=" ">
<polygon fill="white" stroke="#666666" points="432.67,-141 288.42,-141 288.42,-110.5 432.67,-110.5 432.67,-141"/>
<text text-anchor="start" x="296.42" y="-127.5" font-family="Helvetica,sans-Serif" font-size="10.00">trgdataformats/TriggerActivity</text>
<text text-anchor="middle" x="360.54" y="-116.25" font-family="Helvetica,sans-Serif" font-size="10.00">Data.hpp</text>
</a>
</g>
</g>
<!-- Node2&#45;&gt;Node3 -->
<g id="edge2_Node000002_Node000003" class="edge">
<title>Node2&#45;&gt;Node3</title>
<g id="a_edge2_Node000002_Node000003"><a xlink:title=" ">
<path fill="none" stroke="#63b8ff" d="M218.43,-176.55C242.2,-168.22 278.15,-155.62 307.95,-145.18"/>
<polygon fill="#63b8ff" stroke="#63b8ff" points="308.9,-148.56 317.18,-141.95 306.59,-141.95 308.9,-148.56"/>
</a>
</g>
</g>
<!-- Node7 -->
<g id="Node000007" class="node">
<title>Node7</title>
<g id="a_Node000007"><a xlink:href="TriggerCandidateData_8hpp.html" target="_top" xlink:title=" ">
<polygon fill="white" stroke="#666666" points="270.29,-141 114.79,-141 114.79,-110.5 270.29,-110.5 270.29,-141"/>
<text text-anchor="start" x="122.79" y="-127.5" font-family="Helvetica,sans-Serif" font-size="10.00">trgdataformats/TriggerCandidate</text>
<text text-anchor="middle" x="192.54" y="-116.25" font-family="Helvetica,sans-Serif" font-size="10.00">Data.hpp</text>
</a>
</g>
</g>
<!-- Node2&#45;&gt;Node7 -->
<g id="edge7_Node000002_Node000007" class="edge">
<title>Node2&#45;&gt;Node7</title>
<g id="a_edge7_Node000002_Node000007"><a xlink:title=" ">
<path fill="none" stroke="#63b8ff" d="M192.54,-176.68C192.54,-170.23 192.54,-161.16 192.54,-152.51"/>
<polygon fill="#63b8ff" stroke="#63b8ff" points="196.04,-152.8 192.54,-142.8 189.04,-152.8 196.04,-152.8"/>
</a>
</g>
</g>
<!-- Node2&#45;&gt;Node10 -->
<g id="edge12_Node000002_Node000010" class="edge">
<title>Node2&#45;&gt;Node10</title>
<g id="a_edge12_Node000002_Node000010"><a xlink:title=" ">
<path fill="none" stroke="#63b8ff" d="M168.51,-176.55C141.83,-166.49 98.64,-150.19 68.98,-138.99"/>
<polygon fill="#63b8ff" stroke="#63b8ff" points="70.35,-135.77 59.75,-135.51 67.87,-142.32 70.35,-135.77"/>
</a>
</g>
</g>
<!-- Node4 -->
<g id="Node000004" class="node">
<title>Node4</title>
<g id="a_Node000004"><a xlink:href="trgdataformats_2include_2trgdataformats_2Types_8hpp.html" target="_top" xlink:title=" ">
<polygon fill="white" stroke="#666666" points="429.67,-74.5 303.42,-74.5 303.42,-55.25 429.67,-55.25 429.67,-74.5"/>
<text text-anchor="middle" x="366.54" y="-61" font-family="Helvetica,sans-Serif" font-size="10.00">trgdataformats/Types.hpp</text>
</a>
</g>
</g>
<!-- Node3&#45;&gt;Node4 -->
<g id="edge3_Node000003_Node000004" class="edge">
<title>Node3&#45;&gt;Node4</title>
<g id="a_edge3_Node000003_Node000004"><a xlink:title=" ">
<path fill="none" stroke="#63b8ff" d="M362.03,-110.2C362.77,-102.96 363.67,-94.09 364.47,-86.19"/>
<polygon fill="#63b8ff" stroke="#63b8ff" points="367.93,-86.76 365.47,-76.46 360.97,-86.05 367.93,-86.76"/>
</a>
</g>
</g>
<!-- Node5 -->
<g id="Node000005" class="node">
<title>Node5</title>
<g id="a_Node000005"><a xlink:title=" ">
<polygon fill="#e0e0e0" stroke="#999999" points="279.17,-19.25 233.92,-19.25 233.92,0 279.17,0 279.17,-19.25"/>
<text text-anchor="middle" x="256.54" y="-5.75" font-family="Helvetica,sans-Serif" font-size="10.00">cstdint</text>
</a>
</g>
</g>
<!-- Node3&#45;&gt;Node5 -->
<g id="edge6_Node000003_Node000005" class="edge">
<title>Node3&#45;&gt;Node5</title>
<g id="a_edge6_Node000003_Node000005"><a xlink:title=" ">
<path fill="none" stroke="#63b8ff" d="M337.06,-110.16C323.57,-101.02 306.91,-88.36 294.54,-74.5 282.47,-60.96 272.19,-43.02 265.38,-29.6"/>
<polygon fill="#63b8ff" stroke="#63b8ff" points="268.7,-28.41 261.18,-20.95 262.4,-31.47 268.7,-28.41"/>
</a>
</g>
</g>
<!-- Node4&#45;&gt;Node5 -->
<g id="edge4_Node000004_Node000005" class="edge">
<title>Node4&#45;&gt;Node5</title>
<g id="a_edge4_Node000004_Node000005"><a xlink:title=" ">
<path fill="none" stroke="#63b8ff" d="M347.88,-54.84C330.82,-46.58 305.3,-34.23 285.57,-24.68"/>
<polygon fill="#63b8ff" stroke="#63b8ff" points="287.18,-21.57 276.66,-20.36 284.13,-27.87 287.18,-21.57"/>
</a>
</g>
</g>
<!-- Node6 -->
<g id="Node000006" class="node">
<title>Node6</title>
<g id="a_Node000006"><a xlink:title=" ">
<polygon fill="#e0e0e0" stroke="#999999" points="386.17,-19.25 346.92,-19.25 346.92,0 386.17,0 386.17,-19.25"/>
<text text-anchor="middle" x="366.54" y="-5.75" font-family="Helvetica,sans-Serif" font-size="10.00">limits</text>
</a>
</g>
</g>
<!-- Node4&#45;&gt;Node6 -->
<g id="edge5_Node000004_Node000006" class="edge">
<title>Node4&#45;&gt;Node6</title>
<g id="a_edge5_Node000004_Node000006"><a xlink:title=" ">
<path fill="none" stroke="#63b8ff" d="M366.54,-55.08C366.54,-48.57 366.54,-39.42 366.54,-31.12"/>
<polygon fill="#63b8ff" stroke="#63b8ff" points="370.04,-31.12 366.54,-21.12 363.04,-31.12 370.04,-31.12"/>
</a>
</g>
</g>
<!-- Node7&#45;&gt;Node4 -->
<g id="edge8_Node000007_Node000004" class="edge">
<title>Node7&#45;&gt;Node4</title>
<g id="a_edge8_Node000007_Node000004"><a xlink:title=" ">
<path fill="none" stroke="#63b8ff" d="M236,-110.05C264.58,-100.38 301.6,-87.85 328.91,-78.61"/>
<polygon fill="#63b8ff" stroke="#63b8ff" points="329.82,-82 338.17,-75.48 327.58,-75.37 329.82,-82"/>
</a>
</g>
</g>
<!-- Node7&#45;&gt;Node5 -->
<g id="edge9_Node000007_Node000005" class="edge">
<title>Node7&#45;&gt;Node5</title>
<g id="a_edge9_Node000007_Node000005"><a xlink:title=" ">
<path fill="none" stroke="#63b8ff" d="M200.65,-110.3C212.15,-89.78 233.23,-52.2 245.96,-29.5"/>
<polygon fill="#63b8ff" stroke="#63b8ff" points="248.88,-31.45 250.72,-21.02 242.77,-28.03 248.88,-31.45"/>
</a>
</g>
</g>
<!-- Node8 -->
<g id="Node000008" class="node">
<title>Node8</title>
<g id="a_Node000008"><a xlink:title=" ">
<polygon fill="#e0e0e0" stroke="#999999" points="151.92,-74.5 117.17,-74.5 117.17,-55.25 151.92,-55.25 151.92,-74.5"/>
<text text-anchor="middle" x="134.54" y="-61" font-family="Helvetica,sans-Serif" font-size="10.00">map</text>
</a>
</g>
</g>
<!-- Node7&#45;&gt;Node8 -->
<g id="edge10_Node000007_Node000008" class="edge">
<title>Node7&#45;&gt;Node8</title>
<g id="a_edge10_Node000007_Node000008"><a xlink:title=" ">
<path fill="none" stroke="#63b8ff" d="M178.21,-110.2C170.14,-102.01 160.02,-91.73 151.55,-83.14"/>
<polygon fill="#63b8ff" stroke="#63b8ff" points="154.06,-80.7 144.55,-76.03 149.07,-85.61 154.06,-80.7"/>
</a>
</g>
</g>
<!-- Node9 -->
<g id="Node000009" class="node">
<title>Node9</title>
<g id="a_Node000009"><a xlink:title=" ">
<polygon fill="#e0e0e0" stroke="#999999" points="209.54,-74.5 169.54,-74.5 169.54,-55.25 209.54,-55.25 209.54,-74.5"/>
<text text-anchor="middle" x="189.54" y="-61" font-family="Helvetica,sans-Serif" font-size="10.00">string</text>
</a>
</g>
</g>
<!-- Node7&#45;&gt;Node9 -->
<g id="edge11_Node000007_Node000009" class="edge">
<title>Node7&#45;&gt;Node9</title>
<g id="a_edge11_Node000007_Node000009"><a xlink:title=" ">
<path fill="none" stroke="#63b8ff" d="M191.8,-110.2C191.43,-102.96 190.98,-94.09 190.58,-86.19"/>
<polygon fill="#63b8ff" stroke="#63b8ff" points="194.09,-86.27 190.08,-76.46 187.1,-86.63 194.09,-86.27"/>
</a>
</g>
</g>
<!-- Node11&#45;&gt;Node2 -->
<g id="edge14_Node000011_Node000002" class="edge">
<title>Node11&#45;&gt;Node2</title>
<g id="a_edge14_Node000011_Node000002"><a xlink:title=" ">
<path fill="none" stroke="#63b8ff" d="M112,-231.84C126.77,-223.73 148.72,-211.68 165.98,-202.21"/>
<polygon fill="#63b8ff" stroke="#63b8ff" points="167.6,-205.31 174.68,-197.43 164.23,-199.18 167.6,-205.31"/>
</a>
</g>
</g>
<!-- Node11&#45;&gt;Node5 -->
<g id="edge17_Node000011_Node000005" class="edge">
<title>Node11&#45;&gt;Node5</title>
<g id="a_edge17_Node000011_Node000005"><a xlink:title=" ">
<path fill="none" stroke="#63b8ff" d="M93,-231.89C85.3,-202.69 65.4,-109.27 108.54,-55.25 135.66,-21.3 187.68,-12.44 222.25,-10.52"/>
<polygon fill="#63b8ff" stroke="#63b8ff" points="222.31,-14.02 232.17,-10.15 222.05,-7.02 222.31,-14.02"/>
</a>
</g>
</g>
<!-- Node11&#45;&gt;Node10 -->
<g id="edge18_Node000011_Node000010" class="edge">
<title>Node11&#45;&gt;Node10</title>
<g id="a_edge18_Node000011_Node000010"><a xlink:title=" ">
<path fill="none" stroke="#63b8ff" d="M90.91,-231.92C81.35,-213.42 59.23,-170.63 46.34,-145.71"/>
<polygon fill="#63b8ff" stroke="#63b8ff" points="49.55,-144.28 41.85,-137.01 43.33,-147.5 49.55,-144.28"/>
</a>
</g>
</g>
<!-- Node12 -->
<g id="Node000012" class="node">
<title>Node12</title>
<g id="a_Node000012"><a xlink:href="triggeralgs_2include_2triggeralgs_2Types_8hpp.html" target="_top" xlink:title=" ">
<polygon fill="white" stroke="#666666" points="455.67,-196.25 347.42,-196.25 347.42,-177 455.67,-177 455.67,-196.25"/>
<text text-anchor="middle" x="401.54" y="-182.75" font-family="Helvetica,sans-Serif" font-size="10.00">triggeralgs/Types.hpp</text>
</a>
</g>
</g>
<!-- Node11&#45;&gt;Node12 -->
<g id="edge15_Node000011_Node000012" class="edge">
<title>Node11&#45;&gt;Node12</title>
<g id="a_edge15_Node000011_Node000012"><a xlink:title=" ">
<path fill="none" stroke="#63b8ff" d="M147.8,-231.78C200.42,-222.62 281.66,-208.49 337.98,-198.69"/>
<polygon fill="#63b8ff" stroke="#63b8ff" points="338.51,-202.15 347.76,-196.99 337.31,-195.25 338.51,-202.15"/>
</a>
</g>
</g>
<!-- Node12&#45;&gt;Node4 -->
<g id="edge16_Node000012_Node000004" class="edge">
<title>Node12&#45;&gt;Node4</title>
<g id="a_edge16_Node000012_Node000004"><a xlink:title=" ">
<path fill="none" stroke="#63b8ff" d="M413.57,-176.51C423.19,-168.39 435.97,-155.58 441.54,-141 446.39,-128.34 448.24,-122.28 441.54,-110.5 433.67,-96.65 419.6,-86.64 405.76,-79.66"/>
<polygon fill="#63b8ff" stroke="#63b8ff" points="407.26,-76.5 396.71,-75.53 404.35,-82.87 407.26,-76.5"/>
</a>
</g>
</g>
</g>
</svg>
