<?xml version="1.0" encoding="UTF-8" standalone="no"?>
<!DOCTYPE svg PUBLIC "-//W3C//DTD SVG 1.1//EN"
 "http://www.w3.org/Graphics/SVG/1.1/DTD/svg11.dtd">
<!-- Generated by graphviz version 9.0.0 (20230911.1827)
 -->
<!-- Title: sourcecode/triggeralgs/include/triggeralgs/TriggerCandidate.hpp Pages: 1 -->
<svg width="2753pt" height="516pt"
 viewBox="0.00 0.00 2752.73 516.25" xmlns="http://www.w3.org/2000/svg" xmlns:xlink="http://www.w3.org/1999/xlink">
<g id="graph0" class="graph" transform="scale(1 1) rotate(0) translate(4 512.25)">
<title>sourcecode/triggeralgs/include/triggeralgs/TriggerCandidate.hpp</title>
<!-- Node1 -->
<g id="Node000001" class="node">
<title>Node1</title>
<g id="a_Node000001"><a xlink:title=" ">
<polygon fill="#999999" stroke="#666666" points="550.85,-508.25 420.1,-508.25 420.1,-466.5 550.85,-466.5 550.85,-508.25"/>
<text text-anchor="start" x="428.1" y="-494.75" font-family="Helvetica,sans-Serif" font-size="10.00">sourcecode/triggeralgs</text>
<text text-anchor="start" x="428.1" y="-483.5" font-family="Helvetica,sans-Serif" font-size="10.00">/include/triggeralgs/Trigger</text>
<text text-anchor="middle" x="485.48" y="-472.25" font-family="Helvetica,sans-Serif" font-size="10.00">Candidate.hpp</text>
</a>
</g>
</g>
<!-- Node2 -->
<g id="Node000002" class="node">
<title>Node2</title>
<g id="a_Node000002"><a xlink:href="TCSet_8hpp.html" target="_top" xlink:title=" ">
<polygon fill="white" stroke="#666666" points="576.73,-347.12 448.23,-347.12 448.23,-316.62 576.73,-316.62 576.73,-347.12"/>
<text text-anchor="start" x="456.23" y="-333.62" font-family="Helvetica,sans-Serif" font-size="10.00">sourcecode/trigger</text>
<text text-anchor="middle" x="512.48" y="-322.38" font-family="Helvetica,sans-Serif" font-size="10.00">/include/trigger/TCSet.hpp</text>
</a>
</g>
</g>
<!-- Node1&#45;&gt;Node2 -->
<g id="edge1_Node000001_Node000002" class="edge">
<title>Node1&#45;&gt;Node2</title>
<g id="a_edge1_Node000001_Node000002"><a xlink:title=" ">
<path fill="none" stroke="#63b8ff" d="M490.98,-455.07C496.76,-422.22 505.59,-372.01 509.91,-347.44"/>
<polygon fill="#63b8ff" stroke="#63b8ff" points="487.55,-454.36 489.27,-464.82 494.45,-455.57 487.55,-454.36"/>
</a>
</g>
</g>
<!-- Node3 -->
<g id="Node000003" class="node">
<title>Node3</title>
<g id="a_Node000003"><a xlink:href="TCWrapper_8hpp.html" target="_top" xlink:title=" ">
<polygon fill="white" stroke="#666666" points="354.23,-186 204.73,-186 204.73,-155.5 354.23,-155.5 354.23,-186"/>
<text text-anchor="start" x="212.73" y="-172.5" font-family="Helvetica,sans-Serif" font-size="10.00">sourcecode/trigger</text>
<text text-anchor="middle" x="279.48" y="-161.25" font-family="Helvetica,sans-Serif" font-size="10.00">/include/trigger/TCWrapper.hpp</text>
</a>
</g>
</g>
<!-- Node1&#45;&gt;Node3 -->
<g id="edge2_Node000001_Node000003" class="edge">
<title>Node1&#45;&gt;Node3</title>
<g id="a_edge2_Node000001_Node000003"><a xlink:title=" ">
<path fill="none" stroke="#63b8ff" d="M423.99,-461.05C407.34,-452.66 389.94,-442.38 375.48,-430.5 307.6,-374.74 282.16,-358.03 253.48,-275 242.79,-244.08 259.31,-206.56 270.52,-186.34"/>
<polygon fill="#63b8ff" stroke="#63b8ff" points="422.34,-464.14 432.87,-465.36 425.4,-457.84 422.34,-464.14"/>
</a>
</g>
</g>
<!-- Node4 -->
<g id="Node000004" class="node">
<title>Node4</title>
<g id="a_Node000004"><a xlink:href="TCProcessor_8cpp.html" target="_top" xlink:title=" ">
<polygon fill="white" stroke="#666666" points="342.73,-30.5 232.23,-30.5 232.23,0 342.73,0 342.73,-30.5"/>
<text text-anchor="start" x="240.23" y="-17" font-family="Helvetica,sans-Serif" font-size="10.00">sourcecode/trigger</text>
<text text-anchor="middle" x="287.48" y="-5.75" font-family="Helvetica,sans-Serif" font-size="10.00">/src/TCProcessor.cpp</text>
</a>
</g>
</g>
<!-- Node1&#45;&gt;Node4 -->
<g id="edge26_Node000001_Node000004" class="edge">
<title>Node1&#45;&gt;Node4</title>
<g id="a_edge26_Node000001_Node000004"><a xlink:title=" ">
<path fill="none" stroke="#63b8ff" d="M408.38,-484.02C336.38,-479.52 227.17,-466.69 139.48,-430.5 70.7,-402.12 3.48,-407.28 3.48,-332.88 3.48,-332.88 3.48,-332.88 3.48,-169.75 3.48,-123.09 -10.43,-99.58 22.48,-66.5 51.16,-37.66 162.98,-24.82 231.87,-19.55"/>
<polygon fill="#63b8ff" stroke="#63b8ff" points="407.91,-487.5 418.09,-484.59 408.31,-480.51 407.91,-487.5"/>
</a>
</g>
</g>
<!-- Node5 -->
<g id="Node000005" class="node">
<title>Node5</title>
<g id="a_Node000005"><a xlink:href="TCProcessor_8hpp.html" target="_top" xlink:title=" ">
<polygon fill="white" stroke="#666666" points="357.73,-102.62 217.23,-102.62 217.23,-72.12 357.73,-72.12 357.73,-102.62"/>
<text text-anchor="start" x="225.23" y="-89.12" font-family="Helvetica,sans-Serif" font-size="10.00">sourcecode/trigger</text>
<text text-anchor="middle" x="287.48" y="-77.88" font-family="Helvetica,sans-Serif" font-size="10.00">/src/trigger/TCProcessor.hpp</text>
</a>
</g>
</g>
<!-- Node1&#45;&gt;Node5 -->
<g id="edge29_Node000001_Node000005" class="edge">
<title>Node1&#45;&gt;Node5</title>
<g id="a_edge29_Node000001_Node000005"><a xlink:title=" ">
<path fill="none" stroke="#63b8ff" d="M408.77,-481.07C317.25,-470.09 176.48,-436.38 176.48,-332.88 176.48,-332.88 176.48,-332.88 176.48,-253.12 176.48,-204 167.79,-184.82 195.48,-144.25 208.22,-125.57 229.47,-112.07 248.34,-103.02"/>
<polygon fill="#63b8ff" stroke="#63b8ff" points="408.11,-484.52 418.44,-482.16 408.9,-477.56 408.11,-484.52"/>
</a>
</g>
</g>
<!-- Node6 -->
<g id="Node000006" class="node">
<title>Node6</title>
<g id="a_Node000006"><a xlink:href="TPSetSourceModel_8hpp.html" target="_top" xlink:title=" ">
<polygon fill="white" stroke="#666666" points="199.6,-102.62 31.35,-102.62 31.35,-72.12 199.6,-72.12 199.6,-102.62"/>
<text text-anchor="start" x="39.35" y="-89.12" font-family="Helvetica,sans-Serif" font-size="10.00">sourcecode/trigger</text>
<text text-anchor="middle" x="115.48" y="-77.88" font-family="Helvetica,sans-Serif" font-size="10.00">/src/trigger/TPSetSourceModel.hpp</text>
</a>
</g>
</g>
<!-- Node1&#45;&gt;Node6 -->
<g id="edge30_Node000001_Node000006" class="edge">
<title>Node1&#45;&gt;Node6</title>
<g id="a_edge30_Node000001_Node000006"><a xlink:title=" ">
<path fill="none" stroke="#63b8ff" d="M408.6,-486.31C302.33,-481.7 123.48,-455.71 123.48,-332.88 123.48,-332.88 123.48,-332.88 123.48,-253.12 123.48,-197.57 118.88,-131.6 116.66,-102.91"/>
<polygon fill="#63b8ff" stroke="#63b8ff" points="408.28,-489.8 418.41,-486.67 408.55,-482.8 408.28,-489.8"/>
</a>
</g>
</g>
<!-- Node7 -->
<g id="Node000007" class="node">
<title>Node7</title>
<g id="a_Node000007"><a xlink:href="TriggerSourceModel_8hpp.html" target="_top" xlink:title=" ">
<polygon fill="white" stroke="#666666" points="539.6,-108.25 413.35,-108.25 413.35,-66.5 539.6,-66.5 539.6,-108.25"/>
<text text-anchor="start" x="421.35" y="-94.75" font-family="Helvetica,sans-Serif" font-size="10.00">sourcecode/trigger</text>
<text text-anchor="start" x="421.35" y="-83.5" font-family="Helvetica,sans-Serif" font-size="10.00">/src/trigger/TriggerSource</text>
<text text-anchor="middle" x="476.48" y="-72.25" font-family="Helvetica,sans-Serif" font-size="10.00">Model.hpp</text>
</a>
</g>
</g>
<!-- Node1&#45;&gt;Node7 -->
<g id="edge31_Node000001_Node000007" class="edge">
<title>Node1&#45;&gt;Node7</title>
<g id="a_edge31_Node000001_Node000007"><a xlink:title=" ">
<path fill="none" stroke="#63b8ff" d="M464.56,-456.79C445.56,-426.97 420.48,-378.9 420.48,-332.88 420.48,-332.88 420.48,-332.88 420.48,-253.12 420.48,-204 421.31,-189.89 439.48,-144.25 444.51,-131.6 452.67,-118.84 460.05,-108.72"/>
<polygon fill="#63b8ff" stroke="#63b8ff" points="461.48,-458.48 469.9,-464.91 467.33,-454.63 461.48,-458.48"/>
</a>
</g>
</g>
<!-- Node8 -->
<g id="Node000008" class="node">
<title>Node8</title>
<g id="a_Node000008"><a xlink:href="TriggerCandidate__serialization_8hpp.html" target="_top" xlink:title=" ">
<polygon fill="white" stroke="#666666" points="669.6,-430.5 513.35,-430.5 513.35,-388.75 669.6,-388.75 669.6,-430.5"/>
<text text-anchor="start" x="521.35" y="-417" font-family="Helvetica,sans-Serif" font-size="10.00">sourcecode/trigger</text>
<text text-anchor="start" x="521.35" y="-405.75" font-family="Helvetica,sans-Serif" font-size="10.00">/include/trigger/TriggerCandidate</text>
<text text-anchor="middle" x="591.48" y="-394.5" font-family="Helvetica,sans-Serif" font-size="10.00">_serialization.hpp</text>
</a>
</g>
</g>
<!-- Node1&#45;&gt;Node8 -->
<g id="edge8_Node000001_Node000008" class="edge">
<title>Node1&#45;&gt;Node8</title>
<g id="a_edge8_Node000001_Node000008"><a xlink:title=" ">
<path fill="none" stroke="#63b8ff" d="M523.14,-459.46C536.26,-450.09 550.74,-439.73 562.99,-430.98"/>
<polygon fill="#63b8ff" stroke="#63b8ff" points="521.21,-456.53 515.11,-465.2 525.28,-462.23 521.21,-456.53"/>
</a>
</g>
</g>
<!-- Node15 -->
<g id="Node000015" class="node">
<title>Node15</title>
<g id="a_Node000015"><a xlink:href="TAProcessor_8hpp.html" target="_top" xlink:title=" ">
<polygon fill="white" stroke="#666666" points="997.73,-102.62 857.23,-102.62 857.23,-72.12 997.73,-72.12 997.73,-102.62"/>
<text text-anchor="start" x="865.23" y="-89.12" font-family="Helvetica,sans-Serif" font-size="10.00">sourcecode/trigger</text>
<text text-anchor="middle" x="927.48" y="-77.88" font-family="Helvetica,sans-Serif" font-size="10.00">/src/trigger/TAProcessor.hpp</text>
</a>
</g>
</g>
<!-- Node1&#45;&gt;Node15 -->
<g id="edge28_Node000001_Node000015" class="edge">
<title>Node1&#45;&gt;Node15</title>
<g id="a_edge28_Node000001_Node000015"><a xlink:title=" ">
<path fill="none" stroke="#63b8ff" d="M562.61,-480.63C712.05,-467.37 1026.48,-428.15 1026.48,-332.88 1026.48,-332.88 1026.48,-332.88 1026.48,-253.12 1026.48,-204 1033.86,-185.69 1007.48,-144.25 996.01,-126.24 976.45,-112.43 959.54,-103.04"/>
<polygon fill="#63b8ff" stroke="#63b8ff" points="562.44,-477.13 552.78,-481.48 563.05,-484.11 562.44,-477.13"/>
</a>
</g>
</g>
<!-- Node16 -->
<g id="Node000016" class="node">
<title>Node16</title>
<g id="a_Node000016"><a xlink:href="HSISourceModel_8hpp.html" target="_top" xlink:title=" ">
<polygon fill="white" stroke="#666666" points="998.35,-186 840.6,-186 840.6,-155.5 998.35,-155.5 998.35,-186"/>
<text text-anchor="start" x="848.6" y="-172.5" font-family="Helvetica,sans-Serif" font-size="10.00">sourcecode/trigger</text>
<text text-anchor="middle" x="919.48" y="-161.25" font-family="Helvetica,sans-Serif" font-size="10.00">/src/trigger/HSISourceModel.hpp</text>
</a>
</g>
</g>
<!-- Node1&#45;&gt;Node16 -->
<g id="edge27_Node000001_Node000016" class="edge">
<title>Node1&#45;&gt;Node16</title>
<g id="a_edge27_Node000001_Node000016"><a xlink:title=" ">
<path fill="none" stroke="#63b8ff" d="M562.45,-474.02C599.47,-465.68 643.33,-452.11 678.48,-430.5 789.07,-362.49 881.42,-230.24 910.19,-186.32"/>
<polygon fill="#63b8ff" stroke="#63b8ff" points="561.71,-470.6 552.67,-476.13 563.18,-477.44 561.71,-470.6"/>
</a>
</g>
</g>
<!-- Node18 -->
<g id="Node000018" class="node">
<title>Node18</title>
<g id="a_Node000018"><a xlink:href="TriggerCandidateMaker_8hpp.html" target="_top" xlink:title=" ">
<polygon fill="white" stroke="#666666" points="1184.85,-352.75 1054.1,-352.75 1054.1,-311 1184.85,-311 1184.85,-352.75"/>
<text text-anchor="start" x="1062.1" y="-339.25" font-family="Helvetica,sans-Serif" font-size="10.00">sourcecode/triggeralgs</text>
<text text-anchor="start" x="1062.1" y="-328" font-family="Helvetica,sans-Serif" font-size="10.00">/include/triggeralgs/Trigger</text>
<text text-anchor="middle" x="1119.48" y="-316.75" font-family="Helvetica,sans-Serif" font-size="10.00">CandidateMaker.hpp</text>
</a>
</g>
</g>
<!-- Node1&#45;&gt;Node18 -->
<g id="edge32_Node000001_Node000018" class="edge">
<title>Node1&#45;&gt;Node18</title>
<g id="a_edge32_Node000001_Node000018"><a xlink:title=" ">
<path fill="none" stroke="#63b8ff" d="M562.59,-485.84C695.17,-483.75 959.86,-474.06 1040.48,-430.5 1072.89,-412.98 1096.94,-376.05 1109.54,-352.97"/>
<polygon fill="#63b8ff" stroke="#63b8ff" points="562.8,-482.34 552.85,-485.99 562.9,-489.34 562.8,-482.34"/>
</a>
</g>
</g>
<!-- Node32 -->
<g id="Node000032" class="node">
<title>Node32</title>
<g id="a_Node000032"><a xlink:href="triggeralgs_2include_2triggeralgs_2TriggerDecision_8hpp.html" target="_top" xlink:title=" ">
<polygon fill="white" stroke="#666666" points="1235.85,-430.5 1105.1,-430.5 1105.1,-388.75 1235.85,-388.75 1235.85,-430.5"/>
<text text-anchor="start" x="1113.1" y="-417" font-family="Helvetica,sans-Serif" font-size="10.00">sourcecode/triggeralgs</text>
<text text-anchor="start" x="1113.1" y="-405.75" font-family="Helvetica,sans-Serif" font-size="10.00">/include/triggeralgs/Trigger</text>
<text text-anchor="middle" x="1170.48" y="-394.5" font-family="Helvetica,sans-Serif" font-size="10.00">Decision.hpp</text>
</a>
</g>
</g>
<!-- Node1&#45;&gt;Node32 -->
<g id="edge49_Node000001_Node000032" class="edge">
<title>Node1&#45;&gt;Node32</title>
<g id="a_edge49_Node000001_Node000032"><a xlink:title=" ">
<path fill="none" stroke="#63b8ff" d="M562.81,-482.73C677.82,-476.51 900.5,-461.4 1087.48,-430.5 1093.18,-429.56 1099.07,-428.44 1104.96,-427.23"/>
<polygon fill="#63b8ff" stroke="#63b8ff" points="562.65,-479.23 552.85,-483.26 563.03,-486.22 562.65,-479.23"/>
</a>
</g>
</g>
<!-- Node33 -->
<g id="Node000033" class="node">
<title>Node33</title>
<g id="a_Node000033"><a xlink:href="TriggerDecisionMaker_8hpp.html" target="_top" xlink:title=" ">
<polygon fill="white" stroke="#666666" points="1333.85,-352.75 1203.1,-352.75 1203.1,-311 1333.85,-311 1333.85,-352.75"/>
<text text-anchor="start" x="1211.1" y="-339.25" font-family="Helvetica,sans-Serif" font-size="10.00">sourcecode/triggeralgs</text>
<text text-anchor="start" x="1211.1" y="-328" font-family="Helvetica,sans-Serif" font-size="10.00">/include/triggeralgs/Trigger</text>
<text text-anchor="middle" x="1268.48" y="-316.75" font-family="Helvetica,sans-Serif" font-size="10.00">DecisionMaker.hpp</text>
</a>
</g>
</g>
<!-- Node1&#45;&gt;Node33 -->
<g id="edge54_Node000001_Node000033" class="edge">
<title>Node1&#45;&gt;Node33</title>
<g id="a_edge54_Node000001_Node000033"><a xlink:title=" ">
<path fill="none" stroke="#63b8ff" d="M562.63,-485.75C745.38,-483.57 1193.22,-473.81 1244.48,-430.5 1266.74,-411.69 1270.17,-375.87 1269.86,-353.25"/>
<polygon fill="#63b8ff" stroke="#63b8ff" points="562.72,-482.25 552.76,-485.86 562.8,-489.25 562.72,-482.25"/>
</a>
</g>
</g>
<!-- Node36 -->
<g id="Node000036" class="node">
<title>Node36</title>
<g id="a_Node000036"><a xlink:href="triggeralgs_2include_2triggeralgs_2TriggerObjectOverlay_8hpp.html" target="_top" xlink:title=" ">
<polygon fill="white" stroke="#666666" points="392.85,-275 262.1,-275 262.1,-233.25 392.85,-233.25 392.85,-275"/>
<text text-anchor="start" x="270.1" y="-261.5" font-family="Helvetica,sans-Serif" font-size="10.00">sourcecode/triggeralgs</text>
<text text-anchor="start" x="270.1" y="-250.25" font-family="Helvetica,sans-Serif" font-size="10.00">/include/triggeralgs/Trigger</text>
<text text-anchor="middle" x="327.48" y="-239" font-family="Helvetica,sans-Serif" font-size="10.00">ObjectOverlay.hpp</text>
</a>
</g>
</g>
<!-- Node1&#45;&gt;Node36 -->
<g id="edge55_Node000001_Node000036" class="edge">
<title>Node1&#45;&gt;Node36</title>
<g id="a_edge55_Node000001_Node000036"><a xlink:title=" ">
<path fill="none" stroke="#63b8ff" d="M439.39,-459.93C427.6,-451.62 415.66,-441.65 406.48,-430.5 366.55,-382.05 342.66,-310.18 332.79,-275.42"/>
<polygon fill="#63b8ff" stroke="#63b8ff" points="437.26,-462.72 447.51,-465.4 441.17,-456.91 437.26,-462.72"/>
</a>
</g>
</g>
<!-- Node3&#45;&gt;Node4 -->
<g id="edge3_Node000003_Node000004" class="edge">
<title>Node3&#45;&gt;Node4</title>
<g id="a_edge3_Node000003_Node000004"><a xlink:title=" ">
<path fill="none" stroke="#63b8ff" d="M323.95,-149.59C340.42,-139.67 357.31,-125.96 366.48,-108.25 375.01,-91.77 375.41,-82.76 366.48,-66.5 357.71,-50.54 341.5,-38.93 326.03,-30.91"/>
<polygon fill="#63b8ff" stroke="#63b8ff" points="322.67,-146.3 315.68,-154.26 326.11,-152.39 322.67,-146.3"/>
</a>
</g>
</g>
<!-- Node3&#45;&gt;Node5 -->
<g id="edge4_Node000003_Node000005" class="edge">
<title>Node3&#45;&gt;Node5</title>
<g id="a_edge4_Node000003_Node000005"><a xlink:title=" ">
<path fill="none" stroke="#63b8ff" d="M282.03,-143.75C283.35,-130.3 284.92,-114.38 286.03,-103.07"/>
<polygon fill="#63b8ff" stroke="#63b8ff" points="278.55,-143.4 281.05,-153.7 285.52,-144.09 278.55,-143.4"/>
</a>
</g>
</g>
<!-- Node3&#45;&gt;Node6 -->
<g id="edge6_Node000003_Node000006" class="edge">
<title>Node3&#45;&gt;Node6</title>
<g id="a_edge6_Node000003_Node000006"><a xlink:title=" ">
<path fill="none" stroke="#63b8ff" d="M239.5,-149.91C210.3,-135.43 171.36,-116.1 144.95,-103"/>
<polygon fill="#63b8ff" stroke="#63b8ff" points="237.91,-153.03 248.42,-154.34 241.02,-146.76 237.91,-153.03"/>
</a>
</g>
</g>
<!-- Node3&#45;&gt;Node7 -->
<g id="edge7_Node000003_Node000007" class="edge">
<title>Node3&#45;&gt;Node7</title>
<g id="a_edge7_Node000003_Node000007"><a xlink:title=" ">
<path fill="none" stroke="#63b8ff" d="M325.54,-150.72C356.1,-138.1 396.18,-121.54 427.36,-108.66"/>
<polygon fill="#63b8ff" stroke="#63b8ff" points="324.46,-147.38 316.55,-154.44 327.13,-153.85 324.46,-147.38"/>
</a>
</g>
</g>
<!-- Node5&#45;&gt;Node4 -->
<g id="edge5_Node000005_Node000004" class="edge">
<title>Node5&#45;&gt;Node4</title>
<g id="a_edge5_Node000005_Node000004"><a xlink:title=" ">
<path fill="none" stroke="#63b8ff" d="M287.48,-60.4C287.48,-50.39 287.48,-39.31 287.48,-30.76"/>
<polygon fill="#63b8ff" stroke="#63b8ff" points="283.98,-60.33 287.48,-70.33 290.98,-60.33 283.98,-60.33"/>
</a>
</g>
</g>
<!-- Node8&#45;&gt;Node2 -->
<g id="edge9_Node000008_Node000002" class="edge">
<title>Node8&#45;&gt;Node2</title>
<g id="a_edge9_Node000008_Node000002"><a xlink:title=" ">
<path fill="none" stroke="#63b8ff" d="M562.02,-380.38C550.25,-369.09 537.2,-356.58 527.45,-347.23"/>
<polygon fill="#63b8ff" stroke="#63b8ff" points="559.57,-382.88 569.21,-387.28 564.42,-377.83 559.57,-382.88"/>
</a>
</g>
</g>
<!-- Node9 -->
<g id="Node000009" class="node">
<title>Node9</title>
<g id="a_Node000009"><a xlink:href="serialize_8hpp.html" target="_top" xlink:title=" ">
<polygon fill="white" stroke="#666666" points="730.48,-347.12 594.48,-347.12 594.48,-316.62 730.48,-316.62 730.48,-347.12"/>
<text text-anchor="start" x="602.48" y="-333.62" font-family="Helvetica,sans-Serif" font-size="10.00">sourcecode/trigger</text>
<text text-anchor="middle" x="662.48" y="-322.38" font-family="Helvetica,sans-Serif" font-size="10.00">/include/trigger/serialize.hpp</text>
</a>
</g>
</g>
<!-- Node8&#45;&gt;Node9 -->
<g id="edge10_Node000008_Node000009" class="edge">
<title>Node8&#45;&gt;Node9</title>
<g id="a_edge10_Node000008_Node000009"><a xlink:title=" ">
<path fill="none" stroke="#63b8ff" d="M618.26,-380.05C628.76,-368.85 640.34,-356.49 649.02,-347.23"/>
<polygon fill="#63b8ff" stroke="#63b8ff" points="615.82,-377.53 611.54,-387.22 620.93,-382.32 615.82,-377.53"/>
</a>
</g>
</g>
<!-- Node10 -->
<g id="Node000010" class="node">
<title>Node10</title>
<g id="a_Node000010"><a xlink:href="trigger_2include_2trigger_2Issues_8hpp.html" target="_top" xlink:title=" ">
<polygon fill="white" stroke="#666666" points="727.48,-269.38 597.48,-269.38 597.48,-238.88 727.48,-238.88 727.48,-269.38"/>
<text text-anchor="start" x="605.48" y="-255.88" font-family="Helvetica,sans-Serif" font-size="10.00">sourcecode/trigger</text>
<text text-anchor="middle" x="662.48" y="-244.62" font-family="Helvetica,sans-Serif" font-size="10.00">/include/trigger/Issues.hpp</text>
</a>
</g>
</g>
<!-- Node9&#45;&gt;Node10 -->
<g id="edge11_Node000009_Node000010" class="edge">
<title>Node9&#45;&gt;Node10</title>
<g id="a_edge11_Node000009_Node000010"><a xlink:title=" ">
<path fill="none" stroke="#63b8ff" d="M662.48,-304.85C662.48,-293.09 662.48,-279.63 662.48,-269.69"/>
<polygon fill="#63b8ff" stroke="#63b8ff" points="658.98,-304.76 662.48,-314.76 665.98,-304.76 658.98,-304.76"/>
</a>
</g>
</g>
<!-- Node10&#45;&gt;Node3 -->
<g id="edge20_Node000010_Node000003" class="edge">
<title>Node10&#45;&gt;Node3</title>
<g id="a_edge20_Node000010_Node000003"><a xlink:title=" ">
<path fill="none" stroke="#63b8ff" d="M585.82,-240.53C526.25,-230.27 441.72,-214.67 368.48,-197.25 355.18,-194.09 340.91,-190.22 327.76,-186.45"/>
<polygon fill="#63b8ff" stroke="#63b8ff" points="585.07,-243.95 595.52,-242.19 586.25,-237.05 585.07,-243.95"/>
</a>
</g>
</g>
<!-- Node10&#45;&gt;Node5 -->
<g id="edge24_Node000010_Node000005" class="edge">
<title>Node10&#45;&gt;Node5</title>
<g id="a_edge24_Node000010_Node000005"><a xlink:title=" ">
<path fill="none" stroke="#63b8ff" d="M586.09,-241.35C541.87,-232.75 485.96,-218.77 439.48,-197.25 432.26,-193.91 346.99,-131.86 307.42,-102.96"/>
<polygon fill="#63b8ff" stroke="#63b8ff" points="585.39,-244.78 595.87,-243.19 586.69,-237.9 585.39,-244.78"/>
</a>
</g>
</g>
<!-- Node11 -->
<g id="Node000011" class="node">
<title>Node11</title>
<g id="a_Node000011"><a xlink:href="AlgorithmPlugins_8hpp.html" target="_top" xlink:title=" ">
<polygon fill="white" stroke="#666666" points="1216.48,-191.62 1092.48,-191.62 1092.48,-149.88 1216.48,-149.88 1216.48,-191.62"/>
<text text-anchor="start" x="1100.48" y="-178.12" font-family="Helvetica,sans-Serif" font-size="10.00">sourcecode/trigger</text>
<text text-anchor="start" x="1100.48" y="-166.88" font-family="Helvetica,sans-Serif" font-size="10.00">/include/trigger/Algorithm</text>
<text text-anchor="middle" x="1154.48" y="-155.62" font-family="Helvetica,sans-Serif" font-size="10.00">Plugins.hpp</text>
</a>
</g>
</g>
<!-- Node10&#45;&gt;Node11 -->
<g id="edge12_Node000010_Node000011" class="edge">
<title>Node10&#45;&gt;Node11</title>
<g id="a_edge12_Node000010_Node000011"><a xlink:title=" ">
<path fill="none" stroke="#63b8ff" d="M739.02,-240.98C808.96,-229.82 915.22,-212.72 1007.48,-197.25 1035.32,-192.58 1066.1,-187.26 1092.27,-182.7"/>
<polygon fill="#63b8ff" stroke="#63b8ff" points="738.51,-237.52 729.18,-242.55 739.61,-244.43 738.51,-237.52"/>
</a>
</g>
</g>
<!-- Node13 -->
<g id="Node000013" class="node">
<title>Node13</title>
<g id="a_Node000013"><a xlink:href="TPProcessor_8cpp.html" target="_top" xlink:title=" ">
<polygon fill="white" stroke="#666666" points="1126.73,-102.62 1016.23,-102.62 1016.23,-72.12 1126.73,-72.12 1126.73,-102.62"/>
<text text-anchor="start" x="1024.23" y="-89.12" font-family="Helvetica,sans-Serif" font-size="10.00">sourcecode/trigger</text>
<text text-anchor="middle" x="1071.48" y="-77.88" font-family="Helvetica,sans-Serif" font-size="10.00">/src/TPProcessor.cpp</text>
</a>
</g>
</g>
<!-- Node10&#45;&gt;Node13 -->
<g id="edge21_Node000010_Node000013" class="edge">
<title>Node10&#45;&gt;Node13</title>
<g id="a_edge21_Node000010_Node000013"><a xlink:title=" ">
<path fill="none" stroke="#63b8ff" d="M724.95,-234.44C748.02,-225.58 773.41,-213.34 793.48,-197.25 816.09,-179.12 807.17,-160.03 831.48,-144.25 898.08,-101.01 929.53,-127.88 1006.48,-108.25 1012.65,-106.67 1019.11,-104.88 1025.47,-103.03"/>
<polygon fill="#63b8ff" stroke="#63b8ff" points="723.79,-231.14 715.61,-237.88 726.21,-237.71 723.79,-231.14"/>
</a>
</g>
</g>
<!-- Node14 -->
<g id="Node000014" class="node">
<title>Node14</title>
<g id="a_Node000014"><a xlink:href="TAWrapper_8hpp.html" target="_top" xlink:title=" ">
<polygon fill="white" stroke="#666666" points="598.23,-186 448.73,-186 448.73,-155.5 598.23,-155.5 598.23,-186"/>
<text text-anchor="start" x="456.73" y="-172.5" font-family="Helvetica,sans-Serif" font-size="10.00">sourcecode/trigger</text>
<text text-anchor="middle" x="523.48" y="-161.25" font-family="Helvetica,sans-Serif" font-size="10.00">/include/trigger/TAWrapper.hpp</text>
</a>
</g>
</g>
<!-- Node10&#45;&gt;Node14 -->
<g id="edge15_Node000010_Node000014" class="edge">
<title>Node10&#45;&gt;Node14</title>
<g id="a_edge15_Node000010_Node000014"><a xlink:title=" ">
<path fill="none" stroke="#63b8ff" d="M627.61,-232.72C602.98,-218.29 570.54,-199.3 548.46,-186.38"/>
<polygon fill="#63b8ff" stroke="#63b8ff" points="625.6,-235.59 636,-237.62 629.14,-229.55 625.6,-235.59"/>
</a>
</g>
</g>
<!-- Node10&#45;&gt;Node15 -->
<g id="edge23_Node000010_Node000015" class="edge">
<title>Node10&#45;&gt;Node15</title>
<g id="a_edge23_Node000010_Node000015"><a xlink:title=" ">
<path fill="none" stroke="#63b8ff" d="M648.81,-228.46C637.48,-204.32 626.1,-167.84 645.48,-144.25 671.73,-112.29 782.2,-98.29 856.83,-92.39"/>
<polygon fill="#63b8ff" stroke="#63b8ff" points="645.6,-229.87 653.22,-237.24 651.86,-226.73 645.6,-229.87"/>
</a>
</g>
</g>
<!-- Node10&#45;&gt;Node16 -->
<g id="edge22_Node000010_Node000016" class="edge">
<title>Node10&#45;&gt;Node16</title>
<g id="a_edge22_Node000010_Node000016"><a xlink:title=" ">
<path fill="none" stroke="#63b8ff" d="M719.77,-234.98C766.03,-220.34 830.27,-199.99 873.28,-186.38"/>
<polygon fill="#63b8ff" stroke="#63b8ff" points="718.94,-231.58 710.46,-237.93 721.05,-238.25 718.94,-231.58"/>
</a>
</g>
</g>
<!-- Node17 -->
<g id="Node000017" class="node">
<title>Node17</title>
<g id="a_Node000017"><a xlink:href="TriggerGenericMaker_8hpp.html" target="_top" xlink:title=" ">
<polygon fill="white" stroke="#666666" points="784.1,-191.62 654.85,-191.62 654.85,-149.88 784.1,-149.88 784.1,-191.62"/>
<text text-anchor="start" x="662.85" y="-178.12" font-family="Helvetica,sans-Serif" font-size="10.00">sourcecode/trigger</text>
<text text-anchor="start" x="662.85" y="-166.88" font-family="Helvetica,sans-Serif" font-size="10.00">/src/trigger/TriggerGeneric</text>
<text text-anchor="middle" x="719.48" y="-155.62" font-family="Helvetica,sans-Serif" font-size="10.00">Maker.hpp</text>
</a>
</g>
</g>
<!-- Node10&#45;&gt;Node17 -->
<g id="edge25_Node000010_Node000017" class="edge">
<title>Node10&#45;&gt;Node17</title>
<g id="a_edge25_Node000010_Node000017"><a xlink:title=" ">
<path fill="none" stroke="#63b8ff" d="M679.17,-229.29C687.47,-217.44 697.39,-203.29 705.31,-191.98"/>
<polygon fill="#63b8ff" stroke="#63b8ff" points="676.41,-227.14 673.53,-237.34 682.14,-231.15 676.41,-227.14"/>
</a>
</g>
</g>
<!-- Node12 -->
<g id="Node000012" class="node">
<title>Node12</title>
<g id="a_Node000012"><a xlink:href="TAProcessor_8cpp.html" target="_top" xlink:title=" ">
<polygon fill="white" stroke="#666666" points="1095.73,-30.5 985.23,-30.5 985.23,0 1095.73,0 1095.73,-30.5"/>
<text text-anchor="start" x="993.23" y="-17" font-family="Helvetica,sans-Serif" font-size="10.00">sourcecode/trigger</text>
<text text-anchor="middle" x="1040.48" y="-5.75" font-family="Helvetica,sans-Serif" font-size="10.00">/src/TAProcessor.cpp</text>
</a>
</g>
</g>
<!-- Node11&#45;&gt;Node12 -->
<g id="edge13_Node000011_Node000012" class="edge">
<title>Node11&#45;&gt;Node12</title>
<g id="a_edge13_Node000011_Node000012"><a xlink:title=" ">
<path fill="none" stroke="#63b8ff" d="M1155.61,-138.06C1154.84,-116.05 1150.58,-87.08 1135.48,-66.5 1123.55,-50.25 1104.78,-38.77 1087.06,-30.93"/>
<polygon fill="#63b8ff" stroke="#63b8ff" points="1152.11,-138 1155.7,-147.97 1159.11,-137.94 1152.11,-138"/>
</a>
</g>
</g>
<!-- Node11&#45;&gt;Node13 -->
<g id="edge14_Node000011_Node000013" class="edge">
<title>Node11&#45;&gt;Node13</title>
<g id="a_edge14_Node000011_Node000013"><a xlink:title=" ">
<path fill="none" stroke="#63b8ff" d="M1125.96,-141.8C1112.62,-128.71 1097.28,-113.68 1086.29,-102.9"/>
<polygon fill="#63b8ff" stroke="#63b8ff" points="1123.29,-144.07 1132.88,-148.58 1128.19,-139.08 1123.29,-144.07"/>
</a>
</g>
</g>
<!-- Node14&#45;&gt;Node7 -->
<g id="edge19_Node000014_Node000007" class="edge">
<title>Node14&#45;&gt;Node7</title>
<g id="a_edge19_Node000014_Node000007"><a xlink:title=" ">
<path fill="none" stroke="#63b8ff" d="M509.5,-145.55C502.7,-133.78 494.63,-119.8 488.16,-108.6"/>
<polygon fill="#63b8ff" stroke="#63b8ff" points="506.28,-146.98 514.32,-153.89 512.35,-143.48 506.28,-146.98"/>
</a>
</g>
</g>
<!-- Node14&#45;&gt;Node12 -->
<g id="edge16_Node000014_Node000012" class="edge">
<title>Node14&#45;&gt;Node12</title>
<g id="a_edge16_Node000014_Node000012"><a xlink:title=" ">
<path fill="none" stroke="#63b8ff" d="M577.84,-151.53C642.17,-130.19 752.65,-94.24 848.48,-66.5 894.15,-53.28 946.37,-39.71 984.82,-30.01"/>
<polygon fill="#63b8ff" stroke="#63b8ff" points="576.97,-148.13 568.59,-154.61 579.18,-154.77 576.97,-148.13"/>
</a>
</g>
</g>
<!-- Node14&#45;&gt;Node15 -->
<g id="edge17_Node000014_Node000015" class="edge">
<title>Node14&#45;&gt;Node15</title>
<g id="a_edge17_Node000014_Node000015"><a xlink:title=" ">
<path fill="none" stroke="#63b8ff" d="M582.06,-152.03C592.16,-149.25 602.59,-146.54 612.48,-144.25 695.81,-124.98 792.87,-108.67 856.99,-98.74"/>
<polygon fill="#63b8ff" stroke="#63b8ff" points="581.41,-148.58 572.73,-154.66 583.31,-155.32 581.41,-148.58"/>
</a>
</g>
</g>
<!-- Node15&#45;&gt;Node12 -->
<g id="edge18_Node000015_Node000012" class="edge">
<title>Node15&#45;&gt;Node12</title>
<g id="a_edge18_Node000015_Node000012"><a xlink:title=" ">
<path fill="none" stroke="#63b8ff" d="M960.72,-65.75C978.73,-54.57 1000.55,-41.02 1016.82,-30.93"/>
<polygon fill="#63b8ff" stroke="#63b8ff" points="959.1,-62.63 952.45,-70.88 962.79,-68.58 959.1,-62.63"/>
</a>
</g>
</g>
<!-- Node18&#45;&gt;Node12 -->
<g id="edge33_Node000018_Node000012" class="edge">
<title>Node18&#45;&gt;Node12</title>
<g id="a_edge33_Node000018_Node000012"><a xlink:title=" ">
<path fill="none" stroke="#63b8ff" d="M1196.52,-310.85C1432.06,-272.94 1496.27,-294.67 1730.48,-275 1902.07,-260.59 2384.55,-323.67 2501.48,-197.25 2540.94,-154.58 2543.86,-108.29 2503.48,-66.5 2453.73,-15.01 1357.67,-15.23 1096.14,-16.02"/>
<polygon fill="#63b8ff" stroke="#63b8ff" points="1195.97,-307.39 1186.67,-312.46 1197.1,-314.3 1195.97,-307.39"/>
</a>
</g>
</g>
<!-- Node18&#45;&gt;Node15 -->
<g id="edge34_Node000018_Node000015" class="edge">
<title>Node18&#45;&gt;Node15</title>
<g id="a_edge34_Node000018_Node000015"><a xlink:title=" ">
<path fill="none" stroke="#63b8ff" d="M1113.33,-299.61C1103.95,-259.24 1082.55,-188.87 1040.48,-144.25 1022.68,-125.38 997.15,-112.01 974.86,-103.09"/>
<polygon fill="#63b8ff" stroke="#63b8ff" points="1109.86,-300.15 1115.43,-309.16 1116.7,-298.64 1109.86,-300.15"/>
</a>
</g>
</g>
<!-- Node19 -->
<g id="Node000019" class="node">
<title>Node19</title>
<g id="a_Node000019"><a xlink:href="TriggerCandidateFactory_8hpp.html" target="_top" xlink:title=" ">
<polygon fill="white" stroke="#666666" points="1721.85,-275 1591.1,-275 1591.1,-233.25 1721.85,-233.25 1721.85,-275"/>
<text text-anchor="start" x="1599.1" y="-261.5" font-family="Helvetica,sans-Serif" font-size="10.00">sourcecode/triggeralgs</text>
<text text-anchor="start" x="1599.1" y="-250.25" font-family="Helvetica,sans-Serif" font-size="10.00">/include/triggeralgs/Trigger</text>
<text text-anchor="middle" x="1656.48" y="-239" font-family="Helvetica,sans-Serif" font-size="10.00">CandidateFactory.hpp</text>
</a>
</g>
</g>
<!-- Node18&#45;&gt;Node19 -->
<g id="edge35_Node000018_Node000019" class="edge">
<title>Node18&#45;&gt;Node19</title>
<g id="a_edge35_Node000018_Node000019"><a xlink:title=" ">
<path fill="none" stroke="#63b8ff" d="M1196.16,-310.82C1342.39,-283.36 1502.79,-267.6 1590.62,-260.2"/>
<polygon fill="#63b8ff" stroke="#63b8ff" points="1195.86,-307.31 1186.69,-312.62 1197.17,-314.19 1195.86,-307.31"/>
</a>
</g>
</g>
<!-- Node19&#45;&gt;Node11 -->
<g id="edge36_Node000019_Node000011" class="edge">
<title>Node19&#45;&gt;Node11</title>
<g id="a_edge36_Node000019_Node000011"><a xlink:title=" ">
<path fill="none" stroke="#63b8ff" d="M1579.34,-248.17C1492.39,-241.42 1347.26,-226.65 1225.48,-197.25 1219.49,-195.81 1213.31,-194.03 1207.21,-192.1"/>
<polygon fill="#63b8ff" stroke="#63b8ff" points="1578.94,-251.65 1589.18,-248.91 1579.47,-244.67 1578.94,-251.65"/>
</a>
</g>
</g>
<!-- Node20 -->
<g id="Node000020" class="node">
<title>Node20</title>
<g id="a_Node000020"><a xlink:href="TriggerCandidateMakerADCSimpleWindow_8hpp.html" target="_top" xlink:title=" ">
<polygon fill="white" stroke="#666666" points="1438.6,-197.25 1234.35,-197.25 1234.35,-144.25 1438.6,-144.25 1438.6,-197.25"/>
<text text-anchor="start" x="1242.35" y="-183.75" font-family="Helvetica,sans-Serif" font-size="10.00">sourcecode/triggeralgs</text>
<text text-anchor="start" x="1242.35" y="-172.5" font-family="Helvetica,sans-Serif" font-size="10.00">/include/triggeralgs/ADCSimple</text>
<text text-anchor="start" x="1242.35" y="-161.25" font-family="Helvetica,sans-Serif" font-size="10.00">Window/TriggerCandidateMakerADCSimple</text>
<text text-anchor="middle" x="1336.48" y="-150" font-family="Helvetica,sans-Serif" font-size="10.00">Window.hpp</text>
</a>
</g>
</g>
<!-- Node19&#45;&gt;Node20 -->
<g id="edge37_Node000019_Node000020" class="edge">
<title>Node19&#45;&gt;Node20</title>
<g id="a_edge37_Node000019_Node000020"><a xlink:title=" ">
<path fill="none" stroke="#63b8ff" d="M1579.86,-233.64C1537.5,-222.87 1484.31,-209.34 1438.47,-197.69"/>
<polygon fill="#63b8ff" stroke="#63b8ff" points="1578.93,-237.02 1589.48,-236.09 1580.65,-230.23 1578.93,-237.02"/>
</a>
</g>
</g>
<!-- Node22 -->
<g id="Node000022" class="node">
<title>Node22</title>
<g id="a_Node000022"><a xlink:href="TriggerCandidateMakerHorizontalMuon_8hpp.html" target="_top" xlink:title=" ">
<polygon fill="white" stroke="#666666" points="1643.98,-197.25 1456.98,-197.25 1456.98,-144.25 1643.98,-144.25 1643.98,-197.25"/>
<text text-anchor="start" x="1464.98" y="-183.75" font-family="Helvetica,sans-Serif" font-size="10.00">sourcecode/triggeralgs</text>
<text text-anchor="start" x="1464.98" y="-172.5" font-family="Helvetica,sans-Serif" font-size="10.00">/include/triggeralgs/Horizontal</text>
<text text-anchor="start" x="1464.98" y="-161.25" font-family="Helvetica,sans-Serif" font-size="10.00">Muon/TriggerCandidateMakerHorizontal</text>
<text text-anchor="middle" x="1550.48" y="-150" font-family="Helvetica,sans-Serif" font-size="10.00">Muon.hpp</text>
</a>
</g>
</g>
<!-- Node19&#45;&gt;Node22 -->
<g id="edge39_Node000019_Node000022" class="edge">
<title>Node19&#45;&gt;Node22</title>
<g id="a_edge39_Node000019_Node000022"><a xlink:title=" ">
<path fill="none" stroke="#63b8ff" d="M1621.2,-226.04C1609.28,-216.9 1596.02,-206.71 1584.22,-197.66"/>
<polygon fill="#63b8ff" stroke="#63b8ff" points="1618.74,-228.57 1628.8,-231.88 1623,-223.01 1618.74,-228.57"/>
</a>
</g>
</g>
<!-- Node24 -->
<g id="Node000024" class="node">
<title>Node24</title>
<g id="a_Node000024"><a xlink:href="TriggerCandidateMakerMichelElectron_8hpp.html" target="_top" xlink:title=" ">
<polygon fill="white" stroke="#666666" points="1863.1,-191.62 1661.85,-191.62 1661.85,-149.88 1863.1,-149.88 1863.1,-191.62"/>
<text text-anchor="start" x="1669.85" y="-178.12" font-family="Helvetica,sans-Serif" font-size="10.00">sourcecode/triggeralgs</text>
<text text-anchor="start" x="1669.85" y="-166.88" font-family="Helvetica,sans-Serif" font-size="10.00">/include/triggeralgs/MichelElectron</text>
<text text-anchor="middle" x="1762.48" y="-155.62" font-family="Helvetica,sans-Serif" font-size="10.00">/TriggerCandidateMakerMichelElectron.hpp</text>
</a>
</g>
</g>
<!-- Node19&#45;&gt;Node24 -->
<g id="edge41_Node000019_Node000024" class="edge">
<title>Node19&#45;&gt;Node24</title>
<g id="a_edge41_Node000019_Node000024"><a xlink:title=" ">
<path fill="none" stroke="#63b8ff" d="M1692.06,-225.81C1706.41,-214.79 1722.69,-202.3 1735.97,-192.1"/>
<polygon fill="#63b8ff" stroke="#63b8ff" points="1689.95,-223.01 1684.15,-231.88 1694.21,-228.57 1689.95,-223.01"/>
</a>
</g>
</g>
<!-- Node26 -->
<g id="Node000026" class="node">
<title>Node26</title>
<g id="a_Node000026"><a xlink:href="TriggerCandidateMakerPlaneCoincidence_8hpp.html" target="_top" xlink:title=" ">
<polygon fill="white" stroke="#666666" points="2096.23,-191.62 1880.73,-191.62 1880.73,-149.88 2096.23,-149.88 2096.23,-191.62"/>
<text text-anchor="start" x="1888.73" y="-178.12" font-family="Helvetica,sans-Serif" font-size="10.00">sourcecode/triggeralgs</text>
<text text-anchor="start" x="1888.73" y="-166.88" font-family="Helvetica,sans-Serif" font-size="10.00">/include/triggeralgs/PlaneCoincidence</text>
<text text-anchor="middle" x="1988.48" y="-155.62" font-family="Helvetica,sans-Serif" font-size="10.00">/TriggerCandidateMakerPlaneCoincidence.hpp</text>
</a>
</g>
</g>
<!-- Node19&#45;&gt;Node26 -->
<g id="edge43_Node000019_Node000026" class="edge">
<title>Node19&#45;&gt;Node26</title>
<g id="a_edge43_Node000019_Node000026"><a xlink:title=" ">
<path fill="none" stroke="#63b8ff" d="M1733.15,-234.33C1784.76,-221.68 1852.77,-205.01 1905.63,-192.06"/>
<polygon fill="#63b8ff" stroke="#63b8ff" points="1732.42,-230.91 1723.54,-236.69 1734.08,-237.71 1732.42,-230.91"/>
</a>
</g>
</g>
<!-- Node28 -->
<g id="Node000028" class="node">
<title>Node28</title>
<g id="a_Node000028"><a xlink:href="TriggerCandidateMakerPrescale_8hpp.html" target="_top" xlink:title=" ">
<polygon fill="white" stroke="#666666" points="2290.35,-191.62 2114.6,-191.62 2114.6,-149.88 2290.35,-149.88 2290.35,-191.62"/>
<text text-anchor="start" x="2122.6" y="-178.12" font-family="Helvetica,sans-Serif" font-size="10.00">sourcecode/triggeralgs</text>
<text text-anchor="start" x="2122.6" y="-166.88" font-family="Helvetica,sans-Serif" font-size="10.00">/include/triggeralgs/Prescale</text>
<text text-anchor="middle" x="2202.48" y="-155.62" font-family="Helvetica,sans-Serif" font-size="10.00">/TriggerCandidateMakerPrescale.hpp</text>
</a>
</g>
</g>
<!-- Node19&#45;&gt;Node28 -->
<g id="edge45_Node000019_Node000028" class="edge">
<title>Node19&#45;&gt;Node28</title>
<g id="a_edge45_Node000019_Node000028"><a xlink:title=" ">
<path fill="none" stroke="#63b8ff" d="M1733.79,-246.66C1823.65,-238.42 1976.16,-222.18 2105.48,-197.25 2113.26,-195.75 2121.33,-193.98 2129.36,-192.08"/>
<polygon fill="#63b8ff" stroke="#63b8ff" points="1733.49,-243.17 1723.85,-247.56 1734.12,-250.14 1733.49,-243.17"/>
</a>
</g>
</g>
<!-- Node30 -->
<g id="Node000030" class="node">
<title>Node30</title>
<g id="a_Node000030"><a xlink:href="TriggerCandidateMakerSupernova_8hpp.html" target="_top" xlink:title=" ">
<polygon fill="white" stroke="#666666" points="2492.48,-191.62 2308.48,-191.62 2308.48,-149.88 2492.48,-149.88 2492.48,-191.62"/>
<text text-anchor="start" x="2316.48" y="-178.12" font-family="Helvetica,sans-Serif" font-size="10.00">sourcecode/triggeralgs</text>
<text text-anchor="start" x="2316.48" y="-166.88" font-family="Helvetica,sans-Serif" font-size="10.00">/include/triggeralgs/Supernova</text>
<text text-anchor="middle" x="2400.48" y="-155.62" font-family="Helvetica,sans-Serif" font-size="10.00">/TriggerCandidateMakerSupernova.hpp</text>
</a>
</g>
</g>
<!-- Node19&#45;&gt;Node30 -->
<g id="edge47_Node000019_Node000030" class="edge">
<title>Node19&#45;&gt;Node30</title>
<g id="a_edge47_Node000019_Node000030"><a xlink:title=" ">
<path fill="none" stroke="#63b8ff" d="M1733.52,-250.43C1854.7,-245.29 2096.9,-231.4 2299.48,-197.25 2307.95,-195.82 2316.75,-194.05 2325.47,-192.1"/>
<polygon fill="#63b8ff" stroke="#63b8ff" points="1733.53,-246.93 1723.69,-250.84 1733.82,-253.92 1733.53,-246.93"/>
</a>
</g>
</g>
<!-- Node21 -->
<g id="Node000021" class="node">
<title>Node21</title>
<g id="a_Node000021"><a xlink:href="TriggerCandidateMakerADCSimpleWindow_8cpp.html" target="_top" xlink:title=" ">
<polygon fill="white" stroke="#666666" points="1429.6,-108.25 1243.35,-108.25 1243.35,-66.5 1429.6,-66.5 1429.6,-108.25"/>
<text text-anchor="start" x="1251.35" y="-94.75" font-family="Helvetica,sans-Serif" font-size="10.00">sourcecode/triggeralgs</text>
<text text-anchor="start" x="1251.35" y="-83.5" font-family="Helvetica,sans-Serif" font-size="10.00">/src/TriggerCandidateMakerADCSimple</text>
<text text-anchor="middle" x="1336.48" y="-72.25" font-family="Helvetica,sans-Serif" font-size="10.00">Window.cpp</text>
</a>
</g>
</g>
<!-- Node20&#45;&gt;Node21 -->
<g id="edge38_Node000020_Node000021" class="edge">
<title>Node20&#45;&gt;Node21</title>
<g id="a_edge38_Node000020_Node000021"><a xlink:title=" ">
<path fill="none" stroke="#63b8ff" d="M1336.48,-132.58C1336.48,-124.3 1336.48,-115.83 1336.48,-108.54"/>
<polygon fill="#63b8ff" stroke="#63b8ff" points="1332.98,-132.49 1336.48,-142.49 1339.98,-132.49 1332.98,-132.49"/>
</a>
</g>
</g>
<!-- Node23 -->
<g id="Node000023" class="node">
<title>Node23</title>
<g id="a_Node000023"><a xlink:href="TriggerCandidateMakerHorizontalMuon_8cpp.html" target="_top" xlink:title=" ">
<polygon fill="white" stroke="#666666" points="1640.23,-108.25 1460.73,-108.25 1460.73,-66.5 1640.23,-66.5 1640.23,-108.25"/>
<text text-anchor="start" x="1468.73" y="-94.75" font-family="Helvetica,sans-Serif" font-size="10.00">sourcecode/triggeralgs</text>
<text text-anchor="start" x="1468.73" y="-83.5" font-family="Helvetica,sans-Serif" font-size="10.00">/src/TriggerCandidateMakerHorizontal</text>
<text text-anchor="middle" x="1550.48" y="-72.25" font-family="Helvetica,sans-Serif" font-size="10.00">Muon.cpp</text>
</a>
</g>
</g>
<!-- Node22&#45;&gt;Node23 -->
<g id="edge40_Node000022_Node000023" class="edge">
<title>Node22&#45;&gt;Node23</title>
<g id="a_edge40_Node000022_Node000023"><a xlink:title=" ">
<path fill="none" stroke="#63b8ff" d="M1550.48,-132.58C1550.48,-124.3 1550.48,-115.83 1550.48,-108.54"/>
<polygon fill="#63b8ff" stroke="#63b8ff" points="1546.98,-132.49 1550.48,-142.49 1553.98,-132.49 1546.98,-132.49"/>
</a>
</g>
</g>
<!-- Node25 -->
<g id="Node000025" class="node">
<title>Node25</title>
<g id="a_Node000025"><a xlink:href="TriggerCandidateMakerMichelElectron_8cpp.html" target="_top" xlink:title=" ">
<polygon fill="white" stroke="#666666" points="1844.73,-108.25 1680.23,-108.25 1680.23,-66.5 1844.73,-66.5 1844.73,-108.25"/>
<text text-anchor="start" x="1688.23" y="-94.75" font-family="Helvetica,sans-Serif" font-size="10.00">sourcecode/triggeralgs</text>
<text text-anchor="start" x="1688.23" y="-83.5" font-family="Helvetica,sans-Serif" font-size="10.00">/src/TriggerCandidateMakerMichel</text>
<text text-anchor="middle" x="1762.48" y="-72.25" font-family="Helvetica,sans-Serif" font-size="10.00">Electron.cpp</text>
</a>
</g>
</g>
<!-- Node24&#45;&gt;Node25 -->
<g id="edge42_Node000024_Node000025" class="edge">
<title>Node24&#45;&gt;Node25</title>
<g id="a_edge42_Node000024_Node000025"><a xlink:title=" ">
<path fill="none" stroke="#63b8ff" d="M1762.48,-138.39C1762.48,-128.37 1762.48,-117.55 1762.48,-108.54"/>
<polygon fill="#63b8ff" stroke="#63b8ff" points="1758.98,-138.12 1762.48,-148.12 1765.98,-138.12 1758.98,-138.12"/>
</a>
</g>
</g>
<!-- Node27 -->
<g id="Node000027" class="node">
<title>Node27</title>
<g id="a_Node000027"><a xlink:href="TriggerCandidateMakerPlaneCoincidence_8cpp.html" target="_top" xlink:title=" ">
<polygon fill="white" stroke="#666666" points="2065.85,-108.25 1905.1,-108.25 1905.1,-66.5 2065.85,-66.5 2065.85,-108.25"/>
<text text-anchor="start" x="1913.1" y="-94.75" font-family="Helvetica,sans-Serif" font-size="10.00">sourcecode/triggeralgs</text>
<text text-anchor="start" x="1913.1" y="-83.5" font-family="Helvetica,sans-Serif" font-size="10.00">/src/TriggerCandidateMakerPlane</text>
<text text-anchor="middle" x="1985.48" y="-72.25" font-family="Helvetica,sans-Serif" font-size="10.00">Coincidence.cpp</text>
</a>
</g>
</g>
<!-- Node26&#45;&gt;Node27 -->
<g id="edge44_Node000026_Node000027" class="edge">
<title>Node26&#45;&gt;Node27</title>
<g id="a_edge44_Node000026_Node000027"><a xlink:title=" ">
<path fill="none" stroke="#63b8ff" d="M1987.32,-138.39C1986.95,-128.37 1986.55,-117.55 1986.22,-108.54"/>
<polygon fill="#63b8ff" stroke="#63b8ff" points="1983.81,-138.26 1987.68,-148.12 1990.81,-138 1983.81,-138.26"/>
</a>
</g>
</g>
<!-- Node29 -->
<g id="Node000029" class="node">
<title>Node29</title>
<g id="a_Node000029"><a xlink:href="TriggerCandidateMakerPrescale_8cpp.html" target="_top" xlink:title=" ">
<polygon fill="white" stroke="#666666" points="2276.6,-102.62 2084.35,-102.62 2084.35,-72.12 2276.6,-72.12 2276.6,-102.62"/>
<text text-anchor="start" x="2092.35" y="-89.12" font-family="Helvetica,sans-Serif" font-size="10.00">sourcecode/triggeralgs</text>
<text text-anchor="middle" x="2180.48" y="-77.88" font-family="Helvetica,sans-Serif" font-size="10.00">/src/TriggerCandidateMakerPrescale.cpp</text>
</a>
</g>
</g>
<!-- Node28&#45;&gt;Node29 -->
<g id="edge46_Node000028_Node000029" class="edge">
<title>Node28&#45;&gt;Node29</title>
<g id="a_edge46_Node000028_Node000029"><a xlink:title=" ">
<path fill="none" stroke="#63b8ff" d="M2194.11,-138.8C2190.77,-126.47 2187.1,-112.86 2184.4,-102.9"/>
<polygon fill="#63b8ff" stroke="#63b8ff" points="2190.65,-139.43 2196.64,-148.17 2197.41,-137.61 2190.65,-139.43"/>
</a>
</g>
</g>
<!-- Node31 -->
<g id="Node000031" class="node">
<title>Node31</title>
<g id="a_Node000031"><a xlink:href="TriggerCandidateMakerSupernova_8cpp.html" target="_top" xlink:title=" ">
<polygon fill="white" stroke="#666666" points="2494.73,-102.62 2294.23,-102.62 2294.23,-72.12 2494.73,-72.12 2494.73,-102.62"/>
<text text-anchor="start" x="2302.23" y="-89.12" font-family="Helvetica,sans-Serif" font-size="10.00">sourcecode/triggeralgs</text>
<text text-anchor="middle" x="2394.48" y="-77.88" font-family="Helvetica,sans-Serif" font-size="10.00">/src/TriggerCandidateMakerSupernova.cpp</text>
</a>
</g>
</g>
<!-- Node30&#45;&gt;Node31 -->
<g id="edge48_Node000030_Node000031" class="edge">
<title>Node30&#45;&gt;Node31</title>
<g id="a_edge48_Node000030_Node000031"><a xlink:title=" ">
<path fill="none" stroke="#63b8ff" d="M2398.17,-138.43C2397.26,-126.19 2396.27,-112.76 2395.55,-102.9"/>
<polygon fill="#63b8ff" stroke="#63b8ff" points="2394.66,-138.41 2398.88,-148.13 2401.64,-137.9 2394.66,-138.41"/>
</a>
</g>
</g>
<!-- Node32&#45;&gt;Node33 -->
<g id="edge50_Node000032_Node000033" class="edge">
<title>Node32&#45;&gt;Node33</title>
<g id="a_edge50_Node000032_Node000033"><a xlink:title=" ">
<path fill="none" stroke="#63b8ff" d="M1205.65,-381.44C1217.68,-372.14 1230.93,-361.9 1242.14,-353.23"/>
<polygon fill="#63b8ff" stroke="#63b8ff" points="1203.71,-378.51 1197.94,-387.4 1207.99,-384.05 1203.71,-378.51"/>
</a>
</g>
</g>
<!-- Node33&#45;&gt;Node11 -->
<g id="edge51_Node000033_Node000011" class="edge">
<title>Node33&#45;&gt;Node11</title>
<g id="a_edge51_Node000033_Node000011"><a xlink:title=" ">
<path fill="none" stroke="#63b8ff" d="M1247.41,-301.47C1224.6,-269.63 1188.83,-219.7 1168.98,-191.99"/>
<polygon fill="#63b8ff" stroke="#63b8ff" points="1244.49,-303.4 1253.16,-309.49 1250.18,-299.32 1244.49,-303.4"/>
</a>
</g>
</g>
<!-- Node34 -->
<g id="Node000034" class="node">
<title>Node34</title>
<g id="a_Node000034"><a xlink:href="TriggerDecisionMakerSupernova_8hpp.html" target="_top" xlink:title=" ">
<polygon fill="white" stroke="#666666" points="2732.48,-275 2554.48,-275 2554.48,-233.25 2732.48,-233.25 2732.48,-275"/>
<text text-anchor="start" x="2562.48" y="-261.5" font-family="Helvetica,sans-Serif" font-size="10.00">sourcecode/triggeralgs</text>
<text text-anchor="start" x="2562.48" y="-250.25" font-family="Helvetica,sans-Serif" font-size="10.00">/include/triggeralgs/Supernova</text>
<text text-anchor="middle" x="2643.48" y="-239" font-family="Helvetica,sans-Serif" font-size="10.00">/TriggerDecisionMakerSupernova.hpp</text>
</a>
</g>
</g>
<!-- Node33&#45;&gt;Node34 -->
<g id="edge52_Node000033_Node000034" class="edge">
<title>Node33&#45;&gt;Node34</title>
<g id="a_edge52_Node000033_Node000034"><a xlink:title=" ">
<path fill="none" stroke="#63b8ff" d="M1345.49,-331.22C1543.69,-331.28 2087.32,-326.36 2536.48,-275 2542.2,-274.35 2548.08,-273.56 2554,-272.7"/>
<polygon fill="#63b8ff" stroke="#63b8ff" points="1345.58,-327.72 1335.57,-331.21 1345.57,-334.72 1345.58,-327.72"/>
</a>
</g>
</g>
<!-- Node35 -->
<g id="Node000035" class="node">
<title>Node35</title>
<g id="a_Node000035"><a xlink:href="TriggerDecisionMakerSupernova_8cpp.html" target="_top" xlink:title=" ">
<polygon fill="white" stroke="#666666" points="2744.73,-186 2550.23,-186 2550.23,-155.5 2744.73,-155.5 2744.73,-186"/>
<text text-anchor="start" x="2558.23" y="-172.5" font-family="Helvetica,sans-Serif" font-size="10.00">sourcecode/triggeralgs</text>
<text text-anchor="middle" x="2647.48" y="-161.25" font-family="Helvetica,sans-Serif" font-size="10.00">/src/TriggerDecisionMakerSupernova.cpp</text>
</a>
</g>
</g>
<!-- Node34&#45;&gt;Node35 -->
<g id="edge53_Node000034_Node000035" class="edge">
<title>Node34&#45;&gt;Node35</title>
<g id="a_edge53_Node000034_Node000035"><a xlink:title=" ">
<path fill="none" stroke="#63b8ff" d="M2645.02,-221.8C2645.62,-209.57 2646.28,-196.14 2646.76,-186.27"/>
<polygon fill="#63b8ff" stroke="#63b8ff" points="2641.53,-221.34 2644.54,-231.5 2648.53,-221.68 2641.53,-221.34"/>
</a>
</g>
</g>
<!-- Node36&#45;&gt;Node3 -->
<g id="edge57_Node000036_Node000003" class="edge">
<title>Node36&#45;&gt;Node3</title>
<g id="a_edge57_Node000036_Node000003"><a xlink:title=" ">
<path fill="none" stroke="#63b8ff" d="M309.89,-223.31C302.44,-210.68 294.1,-196.54 288.04,-186.27"/>
<polygon fill="#63b8ff" stroke="#63b8ff" points="306.75,-224.87 314.84,-231.71 312.78,-221.31 306.75,-224.87"/>
</a>
</g>
</g>
<!-- Node36&#45;&gt;Node14 -->
<g id="edge56_Node000036_Node000014" class="edge">
<title>Node36&#45;&gt;Node14</title>
<g id="a_edge56_Node000036_Node000014"><a xlink:title=" ">
<path fill="none" stroke="#63b8ff" d="M386.89,-228.46C419.92,-214.74 459.92,-198.14 488.07,-186.45"/>
<polygon fill="#63b8ff" stroke="#63b8ff" points="385.72,-225.15 377.83,-232.22 388.4,-231.62 385.72,-225.15"/>
</a>
</g>
</g>
</g>
</svg>
