<?xml version="1.0" encoding="UTF-8" standalone="no"?>
<!DOCTYPE svg PUBLIC "-//W3C//DTD SVG 1.1//EN"
 "http://www.w3.org/Graphics/SVG/1.1/DTD/svg11.dtd">
<!-- Generated by graphviz version 9.0.0 (20230911.1827)
 -->
<!-- Title: sourcecode/dbe/include/dbe/types.hpp Pages: 1 -->
<svg width="1522pt" height="249pt"
 viewBox="0.00 0.00 1521.75 249.25" xmlns="http://www.w3.org/2000/svg" xmlns:xlink="http://www.w3.org/1999/xlink">
<g id="graph0" class="graph" transform="scale(1 1) rotate(0) translate(4 245.25)">
<title>sourcecode/dbe/include/dbe/types.hpp</title>
<!-- Node1 -->
<g id="Node000001" class="node">
<title>Node1</title>
<g id="a_Node000001"><a xlink:title=" ">
<polygon fill="#999999" stroke="#666666" points="689.38,-241.25 570.62,-241.25 570.62,-210.75 689.38,-210.75 689.38,-241.25"/>
<text text-anchor="start" x="578.62" y="-227.75" font-family="Helvetica,sans-Serif" font-size="10.00">sourcecode/dbe/include</text>
<text text-anchor="middle" x="630" y="-216.5" font-family="Helvetica,sans-Serif" font-size="10.00">/dbe/types.hpp</text>
</a>
</g>
</g>
<!-- Node2 -->
<g id="Node000002" class="node">
<title>Node2</title>
<g id="a_Node000002"><a xlink:href="Main_8cpp.html" target="_top" xlink:title=" ">
<polygon fill="white" stroke="#666666" points="618.5,-174.75 509.5,-174.75 509.5,-144.25 618.5,-144.25 618.5,-174.75"/>
<text text-anchor="start" x="517.5" y="-161.25" font-family="Helvetica,sans-Serif" font-size="10.00">sourcecode/dbe/apps</text>
<text text-anchor="middle" x="564" y="-150" font-family="Helvetica,sans-Serif" font-size="10.00">/Main.cpp</text>
</a>
</g>
</g>
<!-- Node1&#45;&gt;Node2 -->
<g id="edge1_Node000001_Node000002" class="edge">
<title>Node1&#45;&gt;Node2</title>
<g id="a_edge1_Node000001_Node000002"><a xlink:title=" ">
<path fill="none" stroke="#63b8ff" d="M606.91,-202.44C597.62,-193.36 587.18,-183.15 578.92,-175.08"/>
<polygon fill="#63b8ff" stroke="#63b8ff" points="604.34,-204.82 613.94,-209.31 609.24,-199.81 604.34,-204.82"/>
</a>
</g>
</g>
<!-- Node3 -->
<g id="Node000003" class="node">
<title>Node3</title>
<g id="a_Node000003"><a xlink:href="dbaccessor_8hpp.html" target="_top" xlink:title=" ">
<polygon fill="white" stroke="#666666" points="755.38,-174.75 636.62,-174.75 636.62,-144.25 755.38,-144.25 755.38,-174.75"/>
<text text-anchor="start" x="644.62" y="-161.25" font-family="Helvetica,sans-Serif" font-size="10.00">sourcecode/dbe/include</text>
<text text-anchor="middle" x="696" y="-150" font-family="Helvetica,sans-Serif" font-size="10.00">/dbe/dbaccessor.hpp</text>
</a>
</g>
</g>
<!-- Node1&#45;&gt;Node3 -->
<g id="edge2_Node000001_Node000003" class="edge">
<title>Node1&#45;&gt;Node3</title>
<g id="a_edge2_Node000001_Node000003"><a xlink:title=" ">
<path fill="none" stroke="#63b8ff" d="M653.09,-202.44C662.38,-193.36 672.82,-183.15 681.08,-175.08"/>
<polygon fill="#63b8ff" stroke="#63b8ff" points="650.76,-199.81 646.06,-209.31 655.66,-204.82 650.76,-199.81"/>
</a>
</g>
</g>
<!-- Node4 -->
<g id="Node000004" class="node">
<title>Node4</title>
<g id="a_Node000004"><a xlink:href="config__api_8hpp.html" target="_top" xlink:title=" ">
<polygon fill="white" stroke="#666666" points="755.38,-108.25 636.62,-108.25 636.62,-77.75 755.38,-77.75 755.38,-108.25"/>
<text text-anchor="start" x="644.62" y="-94.75" font-family="Helvetica,sans-Serif" font-size="10.00">sourcecode/dbe/include</text>
<text text-anchor="middle" x="696" y="-83.5" font-family="Helvetica,sans-Serif" font-size="10.00">/dbe/config_api.hpp</text>
</a>
</g>
</g>
<!-- Node3&#45;&gt;Node4 -->
<g id="edge3_Node000003_Node000004" class="edge">
<title>Node3&#45;&gt;Node4</title>
<g id="a_edge3_Node000003_Node000004"><a xlink:title=" ">
<path fill="none" stroke="#63b8ff" d="M696,-132.56C696,-124.39 696,-115.66 696,-108.58"/>
<polygon fill="#63b8ff" stroke="#63b8ff" points="692.5,-132.35 696,-142.35 699.5,-132.35 692.5,-132.35"/>
</a>
</g>
</g>
<!-- Node7 -->
<g id="Node000007" class="node">
<title>Node7</title>
<g id="a_Node000007"><a xlink:href="confaccessor_8cpp.html" target="_top" xlink:title=" ">
<polygon fill="white" stroke="#666666" points="130,-36.12 0,-36.12 0,-5.62 130,-5.62 130,-36.12"/>
<text text-anchor="start" x="8" y="-22.62" font-family="Helvetica,sans-Serif" font-size="10.00">sourcecode/dbe/src</text>
<text text-anchor="middle" x="65" y="-11.38" font-family="Helvetica,sans-Serif" font-size="10.00">/internal/confaccessor.cpp</text>
</a>
</g>
</g>
<!-- Node3&#45;&gt;Node7 -->
<g id="edge15_Node000003_Node000007" class="edge">
<title>Node3&#45;&gt;Node7</title>
<g id="a_edge15_Node000003_Node000007"><a xlink:title=" ">
<path fill="none" stroke="#63b8ff" d="M625.12,-143.81C518.98,-125.41 488.92,-129.68 386,-108.25 287.83,-87.81 175.05,-55.33 112.71,-36.56"/>
<polygon fill="#63b8ff" stroke="#63b8ff" points="624.39,-147.24 634.84,-145.53 625.6,-140.34 624.39,-147.24"/>
</a>
</g>
</g>
<!-- Node9 -->
<g id="Node000009" class="node">
<title>Node9</title>
<g id="a_Node000009"><a xlink:href="config__api__get_8cpp.html" target="_top" xlink:title=" ">
<polygon fill="white" stroke="#666666" points="249.75,-41.75 148.25,-41.75 148.25,0 249.75,0 249.75,-41.75"/>
<text text-anchor="start" x="156.25" y="-28.25" font-family="Helvetica,sans-Serif" font-size="10.00">sourcecode/dbe/src</text>
<text text-anchor="start" x="156.25" y="-17" font-family="Helvetica,sans-Serif" font-size="10.00">/internal/config_api</text>
<text text-anchor="middle" x="199" y="-5.75" font-family="Helvetica,sans-Serif" font-size="10.00">_get.cpp</text>
</a>
</g>
</g>
<!-- Node3&#45;&gt;Node9 -->
<g id="edge16_Node000003_Node000009" class="edge">
<title>Node3&#45;&gt;Node9</title>
<g id="a_edge16_Node000003_Node000009"><a xlink:title=" ">
<path fill="none" stroke="#63b8ff" d="M625.66,-141.06C539,-119.27 387.48,-80.16 259,-41.75 256.06,-40.87 253.04,-39.94 250,-38.99"/>
<polygon fill="#63b8ff" stroke="#63b8ff" points="624.65,-144.42 635.2,-143.46 626.35,-137.63 624.65,-144.42"/>
</a>
</g>
</g>
<!-- Node16 -->
<g id="Node000016" class="node">
<title>Node16</title>
<g id="a_Node000016"><a xlink:href="dbaccessor_8cpp.html" target="_top" xlink:title=" ">
<polygon fill="white" stroke="#666666" points="894.88,-108.25 773.12,-108.25 773.12,-77.75 894.88,-77.75 894.88,-108.25"/>
<text text-anchor="start" x="781.12" y="-94.75" font-family="Helvetica,sans-Serif" font-size="10.00">sourcecode/dbe/src</text>
<text text-anchor="middle" x="834" y="-83.5" font-family="Helvetica,sans-Serif" font-size="10.00">/internal/dbaccessor.cpp</text>
</a>
</g>
</g>
<!-- Node3&#45;&gt;Node16 -->
<g id="edge17_Node000003_Node000016" class="edge">
<title>Node3&#45;&gt;Node16</title>
<g id="a_edge17_Node000003_Node000016"><a xlink:title=" ">
<path fill="none" stroke="#63b8ff" d="M737.55,-139.08C758.51,-129.28 783.51,-117.6 802.81,-108.58"/>
<polygon fill="#63b8ff" stroke="#63b8ff" points="736.26,-135.82 728.69,-143.22 739.23,-142.16 736.26,-135.82"/>
</a>
</g>
</g>
<!-- Node17 -->
<g id="Node000017" class="node">
<title>Node17</title>
<g id="a_Node000017"><a xlink:href="rwdacc_8cpp.html" target="_top" xlink:title=" ">
<polygon fill="white" stroke="#666666" points="1015.5,-108.25 912.5,-108.25 912.5,-77.75 1015.5,-77.75 1015.5,-108.25"/>
<text text-anchor="start" x="920.5" y="-94.75" font-family="Helvetica,sans-Serif" font-size="10.00">sourcecode/dbe/src</text>
<text text-anchor="middle" x="964" y="-83.5" font-family="Helvetica,sans-Serif" font-size="10.00">/internal/rwdacc.cpp</text>
</a>
</g>
</g>
<!-- Node3&#45;&gt;Node17 -->
<g id="edge18_Node000003_Node000017" class="edge">
<title>Node3&#45;&gt;Node17</title>
<g id="a_edge18_Node000003_Node000017"><a xlink:title=" ">
<path fill="none" stroke="#63b8ff" d="M766.82,-141.46C812.44,-130.48 870.72,-116.45 912.06,-106.5"/>
<polygon fill="#63b8ff" stroke="#63b8ff" points="766.19,-138.01 757.28,-143.75 767.82,-144.81 766.19,-138.01"/>
</a>
</g>
</g>
<!-- Node5 -->
<g id="Node000005" class="node">
<title>Node5</title>
<g id="a_Node000005"><a xlink:href="gtool_8cpp.html" target="_top" xlink:title=" ">
<polygon fill="white" stroke="#666666" points="889.5,-36.12 780.5,-36.12 780.5,-5.62 889.5,-5.62 889.5,-36.12"/>
<text text-anchor="start" x="788.5" y="-22.62" font-family="Helvetica,sans-Serif" font-size="10.00">sourcecode/dbe/apps</text>
<text text-anchor="middle" x="835" y="-11.38" font-family="Helvetica,sans-Serif" font-size="10.00">/graphtool/gtool.cpp</text>
</a>
</g>
</g>
<!-- Node4&#45;&gt;Node5 -->
<g id="edge4_Node000004_Node000005" class="edge">
<title>Node4&#45;&gt;Node5</title>
<g id="a_edge4_Node000004_Node000005"><a xlink:title=" ">
<path fill="none" stroke="#63b8ff" d="M735.36,-72.14C757.79,-60.82 785.43,-46.88 805.9,-36.56"/>
<polygon fill="#63b8ff" stroke="#63b8ff" points="733.84,-68.99 726.49,-76.62 736.99,-75.24 733.84,-68.99"/>
</a>
</g>
</g>
<!-- Node6 -->
<g id="Node000006" class="node">
<title>Node6</title>
<g id="a_Node000006"><a xlink:href="MainWindow_8cpp.html" target="_top" xlink:title=" ">
<polygon fill="white" stroke="#666666" points="1034.5,-36.12 907.5,-36.12 907.5,-5.62 1034.5,-5.62 1034.5,-36.12"/>
<text text-anchor="start" x="915.5" y="-22.62" font-family="Helvetica,sans-Serif" font-size="10.00">sourcecode/dbe/src</text>
<text text-anchor="middle" x="971" y="-11.38" font-family="Helvetica,sans-Serif" font-size="10.00">/internal/MainWindow.cpp</text>
</a>
</g>
</g>
<!-- Node4&#45;&gt;Node6 -->
<g id="edge5_Node000004_Node000006" class="edge">
<title>Node4&#45;&gt;Node6</title>
<g id="a_edge5_Node000004_Node000006"><a xlink:title=" ">
<path fill="none" stroke="#63b8ff" d="M766.62,-75.01C805.7,-65.48 855.11,-53.24 899,-41.75 905.27,-40.11 911.84,-38.35 918.35,-36.58"/>
<polygon fill="#63b8ff" stroke="#63b8ff" points="765.98,-71.56 757.09,-77.33 767.63,-78.36 765.98,-71.56"/>
</a>
</g>
</g>
<!-- Node4&#45;&gt;Node7 -->
<g id="edge6_Node000004_Node000007" class="edge">
<title>Node4&#45;&gt;Node7</title>
<g id="a_edge6_Node000004_Node000007"><a xlink:title=" ">
<path fill="none" stroke="#63b8ff" d="M624.98,-89.51C518.61,-84.91 311.93,-72.54 139,-41.75 131.14,-40.35 122.9,-38.52 114.89,-36.53"/>
<polygon fill="#63b8ff" stroke="#63b8ff" points="624.55,-93 634.69,-89.92 624.84,-86 624.55,-93"/>
</a>
</g>
</g>
<!-- Node8 -->
<g id="Node000008" class="node">
<title>Node8</title>
<g id="a_Node000008"><a xlink:href="config__api__commands_8cpp.html" target="_top" xlink:title=" ">
<polygon fill="white" stroke="#666666" points="1153.75,-41.75 1052.25,-41.75 1052.25,0 1153.75,0 1153.75,-41.75"/>
<text text-anchor="start" x="1060.25" y="-28.25" font-family="Helvetica,sans-Serif" font-size="10.00">sourcecode/dbe/src</text>
<text text-anchor="start" x="1060.25" y="-17" font-family="Helvetica,sans-Serif" font-size="10.00">/internal/config_api</text>
<text text-anchor="middle" x="1103" y="-5.75" font-family="Helvetica,sans-Serif" font-size="10.00">_commands.cpp</text>
</a>
</g>
</g>
<!-- Node4&#45;&gt;Node8 -->
<g id="edge7_Node000004_Node000008" class="edge">
<title>Node4&#45;&gt;Node8</title>
<g id="a_edge7_Node000004_Node000008"><a xlink:title=" ">
<path fill="none" stroke="#63b8ff" d="M767.01,-77.35C889.79,-57.6 925.32,-69.09 1044,-41.75 1046.63,-41.14 1049.31,-40.47 1052.01,-39.74"/>
<polygon fill="#63b8ff" stroke="#63b8ff" points="766.44,-73.89 757.15,-78.98 767.58,-80.8 766.44,-73.89"/>
</a>
</g>
</g>
<!-- Node4&#45;&gt;Node9 -->
<g id="edge8_Node000004_Node000009" class="edge">
<title>Node4&#45;&gt;Node9</title>
<g id="a_edge8_Node000004_Node000009"><a xlink:title=" ">
<path fill="none" stroke="#63b8ff" d="M625.01,-88.33C537.94,-82.79 386.22,-69.82 259,-41.75 256.11,-41.11 253.16,-40.39 250.19,-39.6"/>
<polygon fill="#63b8ff" stroke="#63b8ff" points="624.63,-91.81 634.83,-88.93 625.07,-84.82 624.63,-91.81"/>
</a>
</g>
</g>
<!-- Node10 -->
<g id="Node000010" class="node">
<title>Node10</title>
<g id="a_Node000010"><a xlink:href="config__api__info_8cpp.html" target="_top" xlink:title=" ">
<polygon fill="white" stroke="#666666" points="1273.75,-41.75 1172.25,-41.75 1172.25,0 1273.75,0 1273.75,-41.75"/>
<text text-anchor="start" x="1180.25" y="-28.25" font-family="Helvetica,sans-Serif" font-size="10.00">sourcecode/dbe/src</text>
<text text-anchor="start" x="1180.25" y="-17" font-family="Helvetica,sans-Serif" font-size="10.00">/internal/config_api</text>
<text text-anchor="middle" x="1223" y="-5.75" font-family="Helvetica,sans-Serif" font-size="10.00">_info.cpp</text>
</a>
</g>
</g>
<!-- Node4&#45;&gt;Node10 -->
<g id="edge9_Node000004_Node000010" class="edge">
<title>Node4&#45;&gt;Node10</title>
<g id="a_edge9_Node000004_Node000010"><a xlink:title=" ">
<path fill="none" stroke="#63b8ff" d="M766.81,-77.46C942.15,-52.51 992.25,-77.24 1163,-41.75 1165.9,-41.15 1168.86,-40.45 1171.82,-39.69"/>
<polygon fill="#63b8ff" stroke="#63b8ff" points="766.52,-73.96 757.13,-78.87 767.53,-80.89 766.52,-73.96"/>
</a>
</g>
</g>
<!-- Node11 -->
<g id="Node000011" class="node">
<title>Node11</title>
<g id="a_Node000011"><a xlink:href="config__api__set_8cpp.html" target="_top" xlink:title=" ">
<polygon fill="white" stroke="#666666" points="1393.75,-41.75 1292.25,-41.75 1292.25,0 1393.75,0 1393.75,-41.75"/>
<text text-anchor="start" x="1300.25" y="-28.25" font-family="Helvetica,sans-Serif" font-size="10.00">sourcecode/dbe/src</text>
<text text-anchor="start" x="1300.25" y="-17" font-family="Helvetica,sans-Serif" font-size="10.00">/internal/config_api</text>
<text text-anchor="middle" x="1343" y="-5.75" font-family="Helvetica,sans-Serif" font-size="10.00">_set.cpp</text>
</a>
</g>
</g>
<!-- Node4&#45;&gt;Node11 -->
<g id="edge10_Node000004_Node000011" class="edge">
<title>Node4&#45;&gt;Node11</title>
<g id="a_edge10_Node000004_Node000011"><a xlink:title=" ">
<path fill="none" stroke="#63b8ff" d="M766.96,-77.48C995.1,-47.25 1059.8,-85.73 1283,-41.75 1285.91,-41.18 1288.87,-40.5 1291.84,-39.76"/>
<polygon fill="#63b8ff" stroke="#63b8ff" points="766.56,-74 757.12,-78.82 767.5,-80.94 766.56,-74"/>
</a>
</g>
</g>
<!-- Node12 -->
<g id="Node000012" class="node">
<title>Node12</title>
<g id="a_Node000012"><a xlink:href="tree_8cpp.html" target="_top" xlink:title=" ">
<polygon fill="white" stroke="#666666" points="1513.75,-36.12 1412.25,-36.12 1412.25,-5.62 1513.75,-5.62 1513.75,-36.12"/>
<text text-anchor="start" x="1420.25" y="-22.62" font-family="Helvetica,sans-Serif" font-size="10.00">sourcecode/dbe/src</text>
<text text-anchor="middle" x="1463" y="-11.38" font-family="Helvetica,sans-Serif" font-size="10.00">/structure/tree.cpp</text>
</a>
</g>
</g>
<!-- Node4&#45;&gt;Node12 -->
<g id="edge11_Node000004_Node000012" class="edge">
<title>Node4&#45;&gt;Node12</title>
<g id="a_edge11_Node000004_Node000012"><a xlink:title=" ">
<path fill="none" stroke="#63b8ff" d="M766.99,-77.5C1048.08,-41.89 1127.25,-94.23 1403,-41.75 1409.79,-40.46 1416.87,-38.6 1423.69,-36.53"/>
<polygon fill="#63b8ff" stroke="#63b8ff" points="766.58,-74.03 757.12,-78.78 767.48,-80.97 766.58,-74.03"/>
</a>
</g>
</g>
<!-- Node13 -->
<g id="Node000013" class="node">
<title>Node13</title>
<g id="a_Node000013"><a xlink:href="BatchChangeWidget_8cpp.html" target="_top" xlink:title=" ">
<polygon fill="white" stroke="#666666" points="430.12,-36.12 267.88,-36.12 267.88,-5.62 430.12,-5.62 430.12,-36.12"/>
<text text-anchor="start" x="275.88" y="-22.62" font-family="Helvetica,sans-Serif" font-size="10.00">sourcecode/dbe/src</text>
<text text-anchor="middle" x="349" y="-11.38" font-family="Helvetica,sans-Serif" font-size="10.00">/widgets/BatchChangeWidget.cpp</text>
</a>
</g>
</g>
<!-- Node4&#45;&gt;Node13 -->
<g id="edge12_Node000004_Node000013" class="edge">
<title>Node4&#45;&gt;Node13</title>
<g id="a_edge12_Node000004_Node000013"><a xlink:title=" ">
<path fill="none" stroke="#63b8ff" d="M625.19,-78.52C573.75,-68.62 502.49,-54.71 440,-41.75 432.08,-40.11 423.79,-38.35 415.56,-36.58"/>
<polygon fill="#63b8ff" stroke="#63b8ff" points="624.22,-81.9 634.7,-80.35 625.54,-75.02 624.22,-81.9"/>
</a>
</g>
</g>
<!-- Node14 -->
<g id="Node000014" class="node">
<title>Node14</title>
<g id="a_Node000014"><a xlink:href="BuildingBlockEditors_8cpp.html" target="_top" xlink:title=" ">
<polygon fill="white" stroke="#666666" points="611.5,-36.12 448.5,-36.12 448.5,-5.62 611.5,-5.62 611.5,-36.12"/>
<text text-anchor="start" x="456.5" y="-22.62" font-family="Helvetica,sans-Serif" font-size="10.00">sourcecode/dbe/src</text>
<text text-anchor="middle" x="530" y="-11.38" font-family="Helvetica,sans-Serif" font-size="10.00">/widgets/BuildingBlockEditors.cpp</text>
</a>
</g>
</g>
<!-- Node4&#45;&gt;Node14 -->
<g id="edge13_Node000004_Node000014" class="edge">
<title>Node4&#45;&gt;Node14</title>
<g id="a_edge13_Node000004_Node000014"><a xlink:title=" ">
<path fill="none" stroke="#63b8ff" d="M650.81,-72.91C623.7,-61.46 589.75,-47.12 564.75,-36.56"/>
<polygon fill="#63b8ff" stroke="#63b8ff" points="649.23,-76.04 659.81,-76.71 651.96,-69.59 649.23,-76.04"/>
</a>
</g>
</g>
<!-- Node15 -->
<g id="Node000015" class="node">
<title>Node15</title>
<g id="a_Node000015"><a xlink:href="ObjectCreator_8cpp.html" target="_top" xlink:title=" ">
<polygon fill="white" stroke="#666666" points="762.88,-36.12 629.12,-36.12 629.12,-5.62 762.88,-5.62 762.88,-36.12"/>
<text text-anchor="start" x="637.12" y="-22.62" font-family="Helvetica,sans-Serif" font-size="10.00">sourcecode/dbe/src</text>
<text text-anchor="middle" x="696" y="-11.38" font-family="Helvetica,sans-Serif" font-size="10.00">/widgets/ObjectCreator.cpp</text>
</a>
</g>
</g>
<!-- Node4&#45;&gt;Node15 -->
<g id="edge14_Node000004_Node000015" class="edge">
<title>Node4&#45;&gt;Node15</title>
<g id="a_edge14_Node000004_Node000015"><a xlink:title=" ">
<path fill="none" stroke="#63b8ff" d="M696,-66.02C696,-56.01 696,-44.94 696,-36.39"/>
<polygon fill="#63b8ff" stroke="#63b8ff" points="692.5,-65.96 696,-75.96 699.5,-65.96 692.5,-65.96"/>
</a>
</g>
</g>
</g>
</svg>
