<?xml version="1.0" encoding="UTF-8" standalone="no"?>
<!DOCTYPE svg PUBLIC "-//W3C//DTD SVG 1.1//EN"
 "http://www.w3.org/Graphics/SVG/1.1/DTD/svg11.dtd">
<!-- Generated by graphviz version 9.0.0 (20230911.1827)
 -->
<!-- Title: dunedaq::oks::OksData::Data Pages: 1 -->
<svg width="1488pt" height="296pt"
 viewBox="0.00 0.00 1487.75 295.88" xmlns="http://www.w3.org/2000/svg" xmlns:xlink="http://www.w3.org/1999/xlink">
<g id="graph0" class="graph" transform="scale(1 1) rotate(0) translate(4 291.88)">
<title>dunedaq::oks::OksData::Data</title>
<!-- Node1 -->
<g id="Node000001" class="node">
<title>Node1</title>
<g id="a_Node000001"><a xlink:title=" ">
<polygon fill="#999999" stroke="#666666" points="407.5,-111.5 291.75,-111.5 291.75,-81 407.5,-81 407.5,-111.5"/>
<text text-anchor="start" x="299.75" y="-98" font-family="Helvetica,sans-Serif" font-size="10.00">dunedaq::oks::OksData</text>
<text text-anchor="middle" x="349.62" y="-86.75" font-family="Helvetica,sans-Serif" font-size="10.00">::Data</text>
</a>
</g>
</g>
<!-- Node9 -->
<g id="Node000009" class="node">
<title>Node9</title>
<g id="a_Node000009"><a xlink:href="structdunedaq_1_1oks_1_1OksData.html" target="_top" xlink:title="the structure to pass common parameters to various read() methods of OksData and OksObject class">
<polygon fill="white" stroke="#666666" points="580.25,-105.88 464.5,-105.88 464.5,-86.62 580.25,-86.62 580.25,-105.88"/>
<text text-anchor="middle" x="522.38" y="-92.38" font-family="Helvetica,sans-Serif" font-size="10.00">dunedaq::oks::OksData</text>
</a>
</g>
</g>
<!-- Node1&#45;&gt;Node9 -->
<g id="edge11_Node000009_Node000001" class="edge">
<title>Node1&#45;&gt;Node9</title>
<g id="a_edge11_Node000009_Node000001"><a xlink:title=" ">
<path fill="none" stroke="#9a32cd" stroke-dasharray="5,2" d="M419.2,-96.25C434.13,-96.25 449.77,-96.25 464.19,-96.25"/>
<polygon fill="#9a32cd" stroke="#9a32cd" points="419.47,-92.75 409.47,-96.25 419.47,-99.75 419.47,-92.75"/>
</a>
</g>
<text text-anchor="middle" x="436" y="-98" font-family="Helvetica,sans-Serif" font-size="10.00" fill="grey"> data</text>
</g>
<!-- Node2 -->
<g id="Node000002" class="node">
<title>Node2</title>
<g id="a_Node000002"><a xlink:href="classdunedaq_1_1oks_1_1OksClass.html" target="_top" xlink:title="The OKS class.">
<polygon fill="white" stroke="#666666" points="1479.75,-90.88 1359.5,-90.88 1359.5,-71.62 1479.75,-71.62 1479.75,-90.88"/>
<text text-anchor="middle" x="1419.62" y="-77.38" font-family="Helvetica,sans-Serif" font-size="10.00">dunedaq::oks::OksClass</text>
</a>
</g>
</g>
<!-- Node2&#45;&gt;Node1 -->
<g id="edge1_Node000001_Node000002" class="edge">
<title>Node2&#45;&gt;Node1</title>
<g id="a_edge1_Node000001_Node000002"><a xlink:title=" ">
<path fill="none" stroke="#9a32cd" stroke-dasharray="5,2" d="M1347.75,-69.59C1307.21,-63.89 1255.32,-58.25 1208.88,-58.25 521.38,-58.25 521.38,-58.25 521.38,-58.25 477.95,-58.25 429.76,-70.11 395.68,-80.57"/>
<polygon fill="#9a32cd" stroke="#9a32cd" points="1347.25,-73.05 1357.65,-71.01 1348.25,-66.12 1347.25,-73.05"/>
</a>
</g>
<text text-anchor="middle" x="835.88" y="-71.25" font-family="Helvetica,sans-Serif" font-size="10.00" fill="grey"> CLASS</text>
<text text-anchor="middle" x="835.88" y="-60" font-family="Helvetica,sans-Serif" font-size="10.00" fill="grey">class_id</text>
</g>
<!-- Node3 -->
<g id="Node000003" class="node">
<title>Node3</title>
<g id="a_Node000003"><a xlink:href="classdunedaq_1_1oks_1_1OksFile.html" target="_top" xlink:title="Provides interface to the OKS XML schema and data files.">
<polygon fill="white" stroke="#666666" points="1263.5,-165.88 1152.25,-165.88 1152.25,-146.62 1263.5,-146.62 1263.5,-165.88"/>
<text text-anchor="middle" x="1207.88" y="-152.38" font-family="Helvetica,sans-Serif" font-size="10.00">dunedaq::oks::OksFile</text>
</a>
</g>
</g>
<!-- Node3&#45;&gt;Node2 -->
<g id="edge2_Node000002_Node000003" class="edge">
<title>Node3&#45;&gt;Node2</title>
<g id="a_edge2_Node000002_Node000003"><a xlink:title=" ">
<path fill="none" stroke="#9a32cd" stroke-dasharray="5,2" d="M1261.61,-143.33C1286.2,-136.75 1315.68,-128.06 1341.5,-118.25 1362.05,-110.44 1384.61,-99.3 1400,-91.28"/>
<polygon fill="#9a32cd" stroke="#9a32cd" points="1260.93,-139.89 1252.15,-145.82 1262.71,-146.66 1260.93,-139.89"/>
</a>
</g>
<text text-anchor="middle" x="1315.25" y="-136" font-family="Helvetica,sans-Serif" font-size="10.00" fill="grey"> p_file</text>
</g>
<!-- Node3&#45;&gt;Node3 -->
<g id="edge3_Node000003_Node000003" class="edge">
<title>Node3&#45;&gt;Node3</title>
<g id="a_edge3_Node000003_Node000003"><a xlink:title=" ">
<path fill="none" stroke="#9a32cd" stroke-dasharray="5,2" d="M1188.82,-177.28C1191.2,-181.15 1197.55,-183.88 1207.88,-183.88 1226.75,-183.88 1232.35,-174.77 1224.69,-166.16"/>
<polygon fill="#9a32cd" stroke="#9a32cd" points="1192.21,-178.14 1190.76,-167.65 1185.35,-176.75 1192.21,-178.14"/>
</a>
</g>
<text text-anchor="middle" x="1207.88" y="-185.62" font-family="Helvetica,sans-Serif" font-size="10.00" fill="grey"> p_included_by</text>
</g>
<!-- Node4 -->
<g id="Node000004" class="node">
<title>Node4</title>
<g id="a_Node000004"><a xlink:href="classdunedaq_1_1oks_1_1OksKernel.html" target="_top" xlink:title="Provides interface to the OKS kernel.">
<polygon fill="white" stroke="#666666" points="1032.25,-197.88 909,-197.88 909,-178.62 1032.25,-178.62 1032.25,-197.88"/>
<text text-anchor="middle" x="970.62" y="-184.38" font-family="Helvetica,sans-Serif" font-size="10.00">dunedaq::oks::OksKernel</text>
</a>
</g>
</g>
<!-- Node3&#45;&gt;Node4 -->
<g id="edge5_Node000004_Node000003" class="edge">
<title>Node3&#45;&gt;Node4</title>
<g id="a_edge5_Node000004_Node000003"><a xlink:title=" ">
<path fill="none" stroke="#9a32cd" stroke-dasharray="5,2" d="M1140.74,-152.99C1112.63,-152.83 1079.62,-154.25 1050.25,-159.75 1030.41,-163.46 1008.94,-171.55 993.45,-178.16"/>
<polygon fill="#9a32cd" stroke="#9a32cd" points="1140.5,-156.49 1150.55,-153.13 1140.6,-149.49 1140.5,-156.49"/>
</a>
</g>
<text text-anchor="middle" x="1088.5" y="-172.25" font-family="Helvetica,sans-Serif" font-size="10.00" fill="grey"> p_active_data</text>
<text text-anchor="middle" x="1088.5" y="-161" font-family="Helvetica,sans-Serif" font-size="10.00" fill="grey">p_active_schema</text>
</g>
<!-- Node7 -->
<g id="Node000007" class="node">
<title>Node7</title>
<g id="a_Node000007"><a xlink:href="classdunedaq_1_1oks_1_1OksObject.html" target="_top" xlink:title="OksObject describes instance of OksClass.">
<polygon fill="white" stroke="#666666" points="762,-151.88 638,-151.88 638,-132.62 762,-132.62 762,-151.88"/>
<text text-anchor="middle" x="700" y="-138.38" font-family="Helvetica,sans-Serif" font-size="10.00">dunedaq::oks::OksObject</text>
</a>
</g>
</g>
<!-- Node3&#45;&gt;Node7 -->
<g id="edge12_Node000007_Node000003" class="edge">
<title>Node3&#45;&gt;Node7</title>
<g id="a_edge12_Node000007_Node000003"><a xlink:title=" ">
<path fill="none" stroke="#9a32cd" stroke-dasharray="5,2" d="M1140.97,-149.25C1136.16,-148.87 1131.38,-148.53 1126.75,-148.25 997.25,-140.42 845.22,-140.51 762.41,-141.34"/>
<polygon fill="#9a32cd" stroke="#9a32cd" points="1140.41,-152.72 1150.67,-150.08 1141.01,-145.75 1140.41,-152.72"/>
</a>
</g>
<text text-anchor="middle" x="970.62" y="-145" font-family="Helvetica,sans-Serif" font-size="10.00" fill="grey"> file</text>
</g>
<!-- Node4&#45;&gt;Node2 -->
<g id="edge13_Node000002_Node000004" class="edge">
<title>Node4&#45;&gt;Node2</title>
<g id="a_edge13_Node000002_Node000004"><a xlink:title=" ">
<path fill="none" stroke="#9a32cd" stroke-dasharray="5,2" d="M1002.75,-173.2C1012.27,-168.51 1022.73,-163.25 1032.25,-158.25 1040.35,-154 1041.71,-151.55 1050.25,-148.25 1154.37,-107.96 1284.59,-91.58 1359.02,-85.15"/>
<polygon fill="#9a32cd" stroke="#9a32cd" points="1001.31,-170.01 993.87,-177.55 1004.39,-176.29 1001.31,-170.01"/>
</a>
</g>
<text text-anchor="middle" x="1207.88" y="-120" font-family="Helvetica,sans-Serif" font-size="10.00" fill="grey"> p_kernel</text>
</g>
<!-- Node4&#45;&gt;Node3 -->
<g id="edge4_Node000003_Node000004" class="edge">
<title>Node4&#45;&gt;Node3</title>
<g id="a_edge4_Node000003_Node000004"><a xlink:title=" ">
<path fill="none" stroke="#9a32cd" stroke-dasharray="5,2" d="M1043.92,-192.46C1070.2,-192.64 1100,-191.27 1126.75,-186.25 1147.63,-182.33 1170.18,-173.43 1186.02,-166.33"/>
<polygon fill="#9a32cd" stroke="#9a32cd" points="1044.08,-188.96 1034.03,-192.31 1043.97,-195.96 1044.08,-188.96"/>
</a>
</g>
<text text-anchor="middle" x="1088.5" y="-194" font-family="Helvetica,sans-Serif" font-size="10.00" fill="grey"> p_kernel</text>
</g>
<!-- Node5 -->
<g id="Node000005" class="node">
<title>Node5</title>
<g id="a_Node000005"><a xlink:href="classdunedaq_1_1oks_1_1OksProfiler.html" target="_top" xlink:title=" ">
<polygon fill="white" stroke="#666666" points="762.75,-250.88 637.25,-250.88 637.25,-231.62 762.75,-231.62 762.75,-250.88"/>
<text text-anchor="middle" x="700" y="-237.38" font-family="Helvetica,sans-Serif" font-size="10.00">dunedaq::oks::OksProfiler</text>
</a>
</g>
</g>
<!-- Node5&#45;&gt;Node4 -->
<g id="edge6_Node000004_Node000005" class="edge">
<title>Node5&#45;&gt;Node4</title>
<g id="a_edge6_Node000004_Node000005"><a xlink:title=" ">
<path fill="none" stroke="#9a32cd" stroke-dasharray="5,2" d="M774.2,-237.24C809.83,-234.17 853.07,-228.75 891,-219.25 911.07,-214.22 932.88,-205.33 948.43,-198.35"/>
<polygon fill="#9a32cd" stroke="#9a32cd" points="774.1,-233.74 764.42,-238.04 774.67,-240.72 774.1,-233.74"/>
</a>
</g>
<text text-anchor="middle" x="835.88" y="-238" font-family="Helvetica,sans-Serif" font-size="10.00" fill="grey"> profiler</text>
</g>
<!-- Node6 -->
<g id="Node000006" class="node">
<title>Node6</title>
<g id="a_Node000006"><a xlink:href="structdunedaq_1_1oks_1_1LoadErrors.html" target="_top" xlink:title=" ">
<polygon fill="white" stroke="#666666" points="762.38,-287.88 637.62,-287.88 637.62,-268.62 762.38,-268.62 762.38,-287.88"/>
<text text-anchor="middle" x="700" y="-274.38" font-family="Helvetica,sans-Serif" font-size="10.00">dunedaq::oks::LoadErrors</text>
</a>
</g>
</g>
<!-- Node6&#45;&gt;Node4 -->
<g id="edge7_Node000004_Node000006" class="edge">
<title>Node6&#45;&gt;Node4</title>
<g id="a_edge7_Node000004_Node000006"><a xlink:title=" ">
<path fill="none" stroke="#9a32cd" stroke-dasharray="5,2" d="M773.76,-276.93C810.21,-274.06 854.28,-267.14 891,-251.25 919.9,-238.75 947.03,-212.68 960.59,-198.31"/>
<polygon fill="#9a32cd" stroke="#9a32cd" points="773.95,-273.41 764.21,-277.6 774.43,-280.39 773.95,-273.41"/>
</a>
</g>
<text text-anchor="middle" x="835.88" y="-277" font-family="Helvetica,sans-Serif" font-size="10.00" fill="grey"> p_load_errors</text>
</g>
<!-- Node7&#45;&gt;Node1 -->
<g id="edge16_Node000001_Node000007" class="edge">
<title>Node7&#45;&gt;Node1</title>
<g id="a_edge16_Node000001_Node000007"><a xlink:title=" ">
<path fill="none" stroke="#9a32cd" stroke-dasharray="5,2" d="M626.26,-135.7C571.03,-130.32 493.27,-121.86 425.5,-111.25 419.74,-110.35 413.74,-109.31 407.77,-108.22"/>
<polygon fill="#9a32cd" stroke="#9a32cd" points="625.9,-139.18 636.19,-136.66 626.57,-132.21 625.9,-139.18"/>
</a>
</g>
<text text-anchor="middle" x="522.38" y="-132" font-family="Helvetica,sans-Serif" font-size="10.00" fill="grey"> OBJECT</text>
</g>
<!-- Node7&#45;&gt;Node4 -->
<g id="edge8_Node000004_Node000007" class="edge">
<title>Node7&#45;&gt;Node4</title>
<g id="a_edge8_Node000004_Node000007"><a xlink:title=" ">
<path fill="none" stroke="#9a32cd" stroke-dasharray="5,2" d="M773.54,-146.71C809.19,-149.78 852.64,-154.83 891,-163 908.67,-166.76 927.99,-172.94 943.06,-178.24"/>
<polygon fill="#9a32cd" stroke="#9a32cd" points="774.01,-143.24 763.76,-145.91 773.44,-150.22 774.01,-143.24"/>
</a>
</g>
<text text-anchor="start" x="780.75" y="-209" font-family="Helvetica,sans-Serif" font-size="10.00" fill="grey"> p_change_object_notify</text>
<text text-anchor="middle" x="835.88" y="-197.75" font-family="Helvetica,sans-Serif" font-size="10.00" fill="grey">_fn</text>
<text text-anchor="start" x="780.75" y="-186.5" font-family="Helvetica,sans-Serif" font-size="10.00" fill="grey">p_create_object_notify</text>
<text text-anchor="middle" x="835.88" y="-175.25" font-family="Helvetica,sans-Serif" font-size="10.00" fill="grey">_fn</text>
<text text-anchor="middle" x="835.88" y="-164" font-family="Helvetica,sans-Serif" font-size="10.00" fill="grey">p_delete_object_notify_fn</text>
</g>
<!-- Node8 -->
<g id="Node000008" class="node">
<title>Node8</title>
<g id="a_Node000008"><a xlink:title=" ">
<polygon fill="white" stroke="#666666" points="175.88,-171.88 135.12,-171.88 135.12,-152.62 175.88,-152.62 175.88,-171.88"/>
<text text-anchor="middle" x="155.5" y="-158.38" font-family="Helvetica,sans-Serif" font-size="10.00">struct</text>
</a>
</g>
</g>
<!-- Node8&#45;&gt;Node1 -->
<g id="edge19_Node000001_Node000008" class="edge">
<title>Node8&#45;&gt;Node1</title>
<g id="a_edge19_Node000001_Node000008"><a xlink:title=" ">
<path fill="none" stroke="#9a32cd" stroke-dasharray="5,2" d="M186.97,-151.78C218.15,-141.07 266.98,-124.3 302.82,-111.98"/>
<polygon fill="#9a32cd" stroke="#9a32cd" points="186.09,-148.38 177.77,-154.94 188.36,-155 186.09,-148.38"/>
</a>
</g>
<text text-anchor="middle" x="253.88" y="-147.25" font-family="Helvetica,sans-Serif" font-size="10.00" fill="grey"> UID</text>
<text text-anchor="middle" x="253.88" y="-136" font-family="Helvetica,sans-Serif" font-size="10.00" fill="grey">UID2</text>
</g>
<!-- Node8&#45;&gt;Node7 -->
<g id="edge9_Node000007_Node000008" class="edge">
<title>Node8&#45;&gt;Node7</title>
<g id="a_edge9_Node000007_Node000008"><a xlink:title=" ">
<path fill="none" stroke="#9a32cd" stroke-dasharray="5,2" d="M187.41,-162.26C211.05,-162.19 244.46,-161.97 273.75,-161.25 427.39,-157.48 465.77,-155.17 619.25,-147.25 625.21,-146.94 631.41,-146.6 637.62,-146.24"/>
<polygon fill="#9a32cd" stroke="#9a32cd" points="187.51,-158.76 177.52,-162.27 187.52,-165.76 187.51,-158.76"/>
</a>
</g>
<text text-anchor="middle" x="436" y="-158" font-family="Helvetica,sans-Serif" font-size="10.00" fill="grey"> uid</text>
</g>
<!-- Node9&#45;&gt;Node7 -->
<g id="edge10_Node000007_Node000009" class="edge">
<title>Node9&#45;&gt;Node7</title>
<g id="a_edge10_Node000007_Node000009"><a xlink:title=" ">
<path fill="none" stroke="#9a32cd" stroke-dasharray="5,2" d="M585.47,-108.8C596.75,-111.33 608.39,-114.11 619.25,-117 636.09,-121.48 654.67,-127.31 669.65,-132.23"/>
<polygon fill="#9a32cd" stroke="#9a32cd" points="586.34,-105.41 575.82,-106.68 584.83,-112.24 586.34,-105.41"/>
</a>
</g>
<text text-anchor="middle" x="608.75" y="-119" font-family="Helvetica,sans-Serif" font-size="10.00" fill="grey"> data</text>
</g>
<!-- Node10 -->
<g id="Node000010" class="node">
<title>Node10</title>
<g id="a_Node000010"><a xlink:href="classdunedaq_1_1oksdbinterfaces_1_1map.html" target="_top" xlink:title=" ">
<polygon fill="white" stroke="#666666" points="1271,-30.5 1144.75,-30.5 1144.75,0 1271,0 1271,-30.5"/>
<text text-anchor="start" x="1152.75" y="-17" font-family="Helvetica,sans-Serif" font-size="10.00">dunedaq::oksdbinterfaces</text>
<text text-anchor="middle" x="1207.88" y="-5.75" font-family="Helvetica,sans-Serif" font-size="10.00">::map&lt; T &gt;</text>
</a>
</g>
</g>
<!-- Node10&#45;&gt;Node2 -->
<g id="edge14_Node000002_Node000010" class="edge">
<title>Node10&#45;&gt;Node2</title>
<g id="a_edge14_Node000002_Node000010"><a xlink:title=" ">
<path fill="none" stroke="#9a32cd" stroke-dasharray="5,2" d="M1282.59,-19.48C1302.14,-22.11 1322.96,-26.31 1341.5,-33 1366.46,-42 1391.88,-59.97 1406.4,-71.26"/>
<polygon fill="#9a32cd" stroke="#9a32cd" points="1283.1,-16.02 1272.75,-18.29 1282.26,-22.96 1283.1,-16.02"/>
</a>
</g>
<text text-anchor="middle" x="1315.25" y="-35" font-family="Helvetica,sans-Serif" font-size="10.00" fill="grey"> p_data_info</text>
</g>
<!-- Node11 -->
<g id="Node000011" class="node">
<title>Node11</title>
<g id="a_Node000011"><a xlink:title=" ">
<polygon fill="white" stroke="#666666" points="1021,-30.5 920.25,-30.5 920.25,0 1021,0 1021,-30.5"/>
<text text-anchor="start" x="928.25" y="-17" font-family="Helvetica,sans-Serif" font-size="10.00">std::unordered_map</text>
<text text-anchor="middle" x="970.62" y="-5.75" font-family="Helvetica,sans-Serif" font-size="10.00">&lt; std::string, T &gt;</text>
</a>
</g>
</g>
<!-- Node11&#45;&gt;Node10 -->
<g id="edge15_Node000010_Node000011" class="edge">
<title>Node11&#45;&gt;Node10</title>
<g id="a_edge15_Node000010_Node000011"><a xlink:title=" ">
<path fill="none" stroke="#63b8ff" d="M1032.53,-15.25C1066.87,-15.25 1109.71,-15.25 1144.32,-15.25"/>
<polygon fill="#63b8ff" stroke="#63b8ff" points="1032.74,-11.75 1022.74,-15.25 1032.74,-18.75 1032.74,-11.75"/>
</a>
</g>
</g>
<!-- Node12 -->
<g id="Node000012" class="node">
<title>Node12</title>
<g id="a_Node000012"><a xlink:href="classdunedaq_1_1oks_1_1OksString.html" target="_top" xlink:title="Class OKS string.">
<polygon fill="white" stroke="#666666" points="216,-95.88 95,-95.88 95,-76.62 216,-76.62 216,-95.88"/>
<text text-anchor="middle" x="155.5" y="-82.38" font-family="Helvetica,sans-Serif" font-size="10.00">dunedaq::oks::OksString</text>
</a>
</g>
</g>
<!-- Node12&#45;&gt;Node1 -->
<g id="edge17_Node000001_Node000012" class="edge">
<title>Node12&#45;&gt;Node1</title>
<g id="a_edge17_Node000001_Node000012"><a xlink:title=" ">
<path fill="none" stroke="#9a32cd" stroke-dasharray="5,2" d="M227.9,-85.81C243.05,-86.05 258.94,-86.56 273.75,-87.5 279.5,-87.87 285.48,-88.36 291.45,-88.94"/>
<polygon fill="#9a32cd" stroke="#9a32cd" points="228.05,-82.31 218.01,-85.69 227.97,-89.31 228.05,-82.31"/>
</a>
</g>
<text text-anchor="middle" x="253.88" y="-112.5" font-family="Helvetica,sans-Serif" font-size="10.00" fill="grey"> STRING</text>
<text text-anchor="middle" x="253.88" y="-101.25" font-family="Helvetica,sans-Serif" font-size="10.00" fill="grey">class_id</text>
<text text-anchor="middle" x="253.88" y="-90" font-family="Helvetica,sans-Serif" font-size="10.00" fill="grey">object_id</text>
</g>
<!-- Node13 -->
<g id="Node000013" class="node">
<title>Node13</title>
<g id="a_Node000013"><a xlink:title=" ">
<polygon fill="white" stroke="#666666" points="58,-95.88 0,-95.88 0,-76.62 58,-76.62 58,-95.88"/>
<text text-anchor="middle" x="29" y="-82.38" font-family="Helvetica,sans-Serif" font-size="10.00">std::string</text>
</a>
</g>
</g>
<!-- Node13&#45;&gt;Node12 -->
<g id="edge18_Node000012_Node000013" class="edge">
<title>Node13&#45;&gt;Node12</title>
<g id="a_edge18_Node000012_Node000013"><a xlink:title=" ">
<path fill="none" stroke="#63b8ff" d="M69.76,-86.25C77.68,-86.25 86.16,-86.25 94.58,-86.25"/>
<polygon fill="#63b8ff" stroke="#63b8ff" points="69.76,-82.75 59.76,-86.25 69.76,-89.75 69.76,-82.75"/>
</a>
</g>
</g>
</g>
</svg>
