<?xml version="1.0" encoding="UTF-8" standalone="no"?>
<!DOCTYPE svg PUBLIC "-//W3C//DTD SVG 1.1//EN"
 "http://www.w3.org/Graphics/SVG/1.1/DTD/svg11.dtd">
<!-- Generated by graphviz version 9.0.0 (20230911.1827)
 -->
<!-- Title: sourcecode/timing/include/timing/UpstreamCDRNode.hpp Pages: 1 -->
<svg width="290pt" height="105pt"
 viewBox="0.00 0.00 289.50 105.00" xmlns="http://www.w3.org/2000/svg" xmlns:xlink="http://www.w3.org/1999/xlink">
<g id="graph0" class="graph" transform="scale(1 1) rotate(0) translate(4 101)">
<title>sourcecode/timing/include/timing/UpstreamCDRNode.hpp</title>
<!-- Node1 -->
<g id="Node000001" class="node">
<title>Node1</title>
<g id="a_Node000001"><a xlink:title=" ">
<polygon fill="#999999" stroke="#666666" points="221.12,-97 68.62,-97 68.62,-66.5 221.12,-66.5 221.12,-97"/>
<text text-anchor="start" x="76.62" y="-83.5" font-family="Helvetica,sans-Serif" font-size="10.00">sourcecode/timing/include</text>
<text text-anchor="middle" x="144.88" y="-72.25" font-family="Helvetica,sans-Serif" font-size="10.00">/timing/UpstreamCDRNode.hpp</text>
</a>
</g>
</g>
<!-- Node2 -->
<g id="Node000002" class="node">
<title>Node2</title>
<g id="a_Node000002"><a xlink:href="master_8cpp.html" target="_top" xlink:title=" ">
<polygon fill="white" stroke="#666666" points="139.75,-30.5 0,-30.5 0,0 139.75,0 139.75,-30.5"/>
<text text-anchor="start" x="8" y="-17" font-family="Helvetica,sans-Serif" font-size="10.00">sourcecode/timing/pybindsrc</text>
<text text-anchor="middle" x="69.88" y="-5.75" font-family="Helvetica,sans-Serif" font-size="10.00">/master.cpp</text>
</a>
</g>
</g>
<!-- Node1&#45;&gt;Node2 -->
<g id="edge1_Node000001_Node000002" class="edge">
<title>Node1&#45;&gt;Node2</title>
<g id="a_edge1_Node000001_Node000002"><a xlink:title=" ">
<path fill="none" stroke="#63b8ff" d="M119.28,-58.74C108.57,-49.53 96.4,-39.06 86.83,-30.83"/>
<polygon fill="#63b8ff" stroke="#63b8ff" points="116.84,-61.26 126.71,-65.13 121.41,-55.95 116.84,-61.26"/>
</a>
</g>
</g>
<!-- Node3 -->
<g id="Node000003" class="node">
<title>Node3</title>
<g id="a_Node000003"><a xlink:href="UpstreamCDRNode_8cpp.html" target="_top" xlink:title=" ">
<polygon fill="white" stroke="#666666" points="281.5,-30.5 158.25,-30.5 158.25,0 281.5,0 281.5,-30.5"/>
<text text-anchor="start" x="166.25" y="-17" font-family="Helvetica,sans-Serif" font-size="10.00">sourcecode/timing/src</text>
<text text-anchor="middle" x="219.88" y="-5.75" font-family="Helvetica,sans-Serif" font-size="10.00">/UpstreamCDRNode.cpp</text>
</a>
</g>
</g>
<!-- Node1&#45;&gt;Node3 -->
<g id="edge2_Node000001_Node000003" class="edge">
<title>Node1&#45;&gt;Node3</title>
<g id="a_edge2_Node000001_Node000003"><a xlink:title=" ">
<path fill="none" stroke="#63b8ff" d="M170.47,-58.74C181.18,-49.53 193.35,-39.06 202.92,-30.83"/>
<polygon fill="#63b8ff" stroke="#63b8ff" points="168.34,-55.95 163.04,-65.13 172.91,-61.26 168.34,-55.95"/>
</a>
</g>
</g>
</g>
</svg>
