<?xml version="1.0" encoding="UTF-8" standalone="no"?>
<!DOCTYPE svg PUBLIC "-//W3C//DTD SVG 1.1//EN"
 "http://www.w3.org/Graphics/SVG/1.1/DTD/svg11.dtd">
<!-- Generated by graphviz version 9.0.0 (20230911.1827)
 -->
<!-- Title: sourcecode/okssystem/include/okssystem/User.hpp Pages: 1 -->
<svg width="198pt" height="94pt"
 viewBox="0.00 0.00 197.88 93.75" xmlns="http://www.w3.org/2000/svg" xmlns:xlink="http://www.w3.org/1999/xlink">
<g id="graph0" class="graph" transform="scale(1 1) rotate(0) translate(4 89.75)">
<title>sourcecode/okssystem/include/okssystem/User.hpp</title>
<!-- Node1 -->
<g id="Node000001" class="node">
<title>Node1</title>
<g id="a_Node000001"><a xlink:title=" ">
<polygon fill="#999999" stroke="#666666" points="170.88,-85.75 28.88,-85.75 28.88,-55.25 170.88,-55.25 170.88,-85.75"/>
<text text-anchor="start" x="36.88" y="-72.25" font-family="Helvetica,sans-Serif" font-size="10.00">sourcecode/okssystem</text>
<text text-anchor="middle" x="99.88" y="-61" font-family="Helvetica,sans-Serif" font-size="10.00">/include/okssystem/User.hpp</text>
</a>
</g>
</g>
<!-- Node2 -->
<g id="Node000002" class="node">
<title>Node2</title>
<g id="a_Node000002"><a xlink:title=" ">
<polygon fill="#e0e0e0" stroke="#999999" points="49.75,-19.25 0,-19.25 0,0 49.75,0 49.75,-19.25"/>
<text text-anchor="middle" x="24.88" y="-5.75" font-family="Helvetica,sans-Serif" font-size="10.00">unistd.h</text>
</a>
</g>
</g>
<!-- Node1&#45;&gt;Node2 -->
<g id="edge1_Node000001_Node000002" class="edge">
<title>Node1&#45;&gt;Node2</title>
<g id="a_edge1_Node000001_Node000002"><a xlink:title=" ">
<path fill="none" stroke="#63b8ff" d="M81.34,-54.95C70.36,-46.33 56.43,-35.4 45.16,-26.55"/>
<polygon fill="#63b8ff" stroke="#63b8ff" points="47.65,-24.06 37.63,-20.64 43.33,-29.56 47.65,-24.06"/>
</a>
</g>
</g>
<!-- Node3 -->
<g id="Node000003" class="node">
<title>Node3</title>
<g id="a_Node000003"><a xlink:title=" ">
<polygon fill="#e0e0e0" stroke="#999999" points="132.25,-19.25 67.5,-19.25 67.5,0 132.25,0 132.25,-19.25"/>
<text text-anchor="middle" x="99.88" y="-5.75" font-family="Helvetica,sans-Serif" font-size="10.00">sys/types.h</text>
</a>
</g>
</g>
<!-- Node1&#45;&gt;Node3 -->
<g id="edge2_Node000001_Node000003" class="edge">
<title>Node1&#45;&gt;Node3</title>
<g id="a_edge2_Node000001_Node000003"><a xlink:title=" ">
<path fill="none" stroke="#63b8ff" d="M99.88,-54.95C99.88,-47.71 99.88,-38.84 99.88,-30.94"/>
<polygon fill="#63b8ff" stroke="#63b8ff" points="103.38,-31.21 99.88,-21.21 96.38,-31.21 103.38,-31.21"/>
</a>
</g>
</g>
<!-- Node4 -->
<g id="Node000004" class="node">
<title>Node4</title>
<g id="a_Node000004"><a xlink:title=" ">
<polygon fill="#e0e0e0" stroke="#999999" points="189.88,-19.25 149.88,-19.25 149.88,0 189.88,0 189.88,-19.25"/>
<text text-anchor="middle" x="169.88" y="-5.75" font-family="Helvetica,sans-Serif" font-size="10.00">string</text>
</a>
</g>
</g>
<!-- Node1&#45;&gt;Node4 -->
<g id="edge3_Node000001_Node000004" class="edge">
<title>Node1&#45;&gt;Node4</title>
<g id="a_edge3_Node000001_Node000004"><a xlink:title=" ">
<path fill="none" stroke="#63b8ff" d="M117.18,-54.95C127.22,-46.5 139.9,-35.83 150.31,-27.08"/>
<polygon fill="#63b8ff" stroke="#63b8ff" points="152.53,-29.79 157.93,-20.68 148.02,-24.43 152.53,-29.79"/>
</a>
</g>
</g>
</g>
</svg>
