<?xml version="1.0" encoding="UTF-8" standalone="no"?>
<!DOCTYPE svg PUBLIC "-//W3C//DTD SVG 1.1//EN"
 "http://www.w3.org/Graphics/SVG/1.1/DTD/svg11.dtd">
<!-- Generated by graphviz version 9.0.0 (20230911.1827)
 -->
<!-- Title: sourcecode/utilities/include/utilities/Issues.hpp Pages: 1 -->
<svg width="670pt" height="183pt"
 viewBox="0.00 0.00 669.88 182.75" xmlns="http://www.w3.org/2000/svg" xmlns:xlink="http://www.w3.org/1999/xlink">
<g id="graph0" class="graph" transform="scale(1 1) rotate(0) translate(4 178.75)">
<title>sourcecode/utilities/include/utilities/Issues.hpp</title>
<!-- Node1 -->
<g id="Node000001" class="node">
<title>Node1</title>
<g id="a_Node000001"><a xlink:title=" ">
<polygon fill="#999999" stroke="#666666" points="496.5,-174.75 362.75,-174.75 362.75,-144.25 496.5,-144.25 496.5,-174.75"/>
<text text-anchor="start" x="370.75" y="-161.25" font-family="Helvetica,sans-Serif" font-size="10.00">sourcecode/utilities</text>
<text text-anchor="middle" x="429.62" y="-150" font-family="Helvetica,sans-Serif" font-size="10.00">/include/utilities/Issues.hpp</text>
</a>
</g>
</g>
<!-- Node2 -->
<g id="Node000002" class="node">
<title>Node2</title>
<g id="a_Node000002"><a xlink:href="Resolver_8hpp.html" target="_top" xlink:title=" ">
<polygon fill="white" stroke="#666666" points="296,-102.62 153.25,-102.62 153.25,-72.12 296,-72.12 296,-102.62"/>
<text text-anchor="start" x="161.25" y="-89.12" font-family="Helvetica,sans-Serif" font-size="10.00">sourcecode/utilities</text>
<text text-anchor="middle" x="224.62" y="-77.88" font-family="Helvetica,sans-Serif" font-size="10.00">/include/utilities/Resolver.hpp</text>
</a>
</g>
</g>
<!-- Node1&#45;&gt;Node2 -->
<g id="edge1_Node000001_Node000002" class="edge">
<title>Node1&#45;&gt;Node2</title>
<g id="a_edge1_Node000001_Node000002"><a xlink:title=" ">
<path fill="none" stroke="#63b8ff" d="M376.02,-140.16C342.2,-128.59 299.1,-113.85 267.54,-103.06"/>
<polygon fill="#63b8ff" stroke="#63b8ff" points="374.62,-143.38 385.22,-143.31 376.89,-136.76 374.62,-143.38"/>
</a>
</g>
</g>
<!-- Node5 -->
<g id="Node000005" class="node">
<title>Node5</title>
<g id="a_Node000005"><a xlink:href="TimestampEstimator_8hpp.html" target="_top" xlink:title=" ">
<polygon fill="white" stroke="#666666" points="449.25,-108.25 314,-108.25 314,-66.5 449.25,-66.5 449.25,-108.25"/>
<text text-anchor="start" x="322" y="-94.75" font-family="Helvetica,sans-Serif" font-size="10.00">sourcecode/utilities</text>
<text text-anchor="start" x="322" y="-83.5" font-family="Helvetica,sans-Serif" font-size="10.00">/include/utilities/Timestamp</text>
<text text-anchor="middle" x="381.62" y="-72.25" font-family="Helvetica,sans-Serif" font-size="10.00">Estimator.hpp</text>
</a>
</g>
</g>
<!-- Node1&#45;&gt;Node5 -->
<g id="edge4_Node000001_Node000005" class="edge">
<title>Node1&#45;&gt;Node5</title>
<g id="a_edge4_Node000001_Node000005"><a xlink:title=" ">
<path fill="none" stroke="#63b8ff" d="M413.31,-134.66C407.54,-126.24 401.11,-116.85 395.56,-108.74"/>
<polygon fill="#63b8ff" stroke="#63b8ff" points="410.29,-136.45 418.82,-142.72 416.06,-132.49 410.29,-136.45"/>
</a>
</g>
</g>
<!-- Node6 -->
<g id="Node000006" class="node">
<title>Node6</title>
<g id="a_Node000006"><a xlink:href="TimestampEstimator_8cpp.html" target="_top" xlink:title=" ">
<polygon fill="white" stroke="#666666" points="460.38,-30.5 316.88,-30.5 316.88,0 460.38,0 460.38,-30.5"/>
<text text-anchor="start" x="324.88" y="-17" font-family="Helvetica,sans-Serif" font-size="10.00">sourcecode/utilities</text>
<text text-anchor="middle" x="388.62" y="-5.75" font-family="Helvetica,sans-Serif" font-size="10.00">/src/TimestampEstimator.cpp</text>
</a>
</g>
</g>
<!-- Node1&#45;&gt;Node6 -->
<g id="edge8_Node000001_Node000006" class="edge">
<title>Node1&#45;&gt;Node6</title>
<g id="a_edge8_Node000001_Node000006"><a xlink:title=" ">
<path fill="none" stroke="#63b8ff" d="M447.12,-134.44C458.69,-115.36 469.84,-88.35 458.62,-66.5 450.63,-50.93 435.33,-39.09 421.06,-30.83"/>
<polygon fill="#63b8ff" stroke="#63b8ff" points="444.32,-132.33 441.79,-142.62 450.18,-136.15 444.32,-132.33"/>
</a>
</g>
</g>
<!-- Node7 -->
<g id="Node000007" class="node">
<title>Node7</title>
<g id="a_Node000007"><a xlink:href="TimestampEstimatorSystem_8hpp.html" target="_top" xlink:title=" ">
<polygon fill="white" stroke="#666666" points="641.25,-108.25 506,-108.25 506,-66.5 641.25,-66.5 641.25,-108.25"/>
<text text-anchor="start" x="514" y="-94.75" font-family="Helvetica,sans-Serif" font-size="10.00">sourcecode/utilities</text>
<text text-anchor="start" x="514" y="-83.5" font-family="Helvetica,sans-Serif" font-size="10.00">/include/utilities/Timestamp</text>
<text text-anchor="middle" x="573.62" y="-72.25" font-family="Helvetica,sans-Serif" font-size="10.00">EstimatorSystem.hpp</text>
</a>
</g>
</g>
<!-- Node1&#45;&gt;Node7 -->
<g id="edge6_Node000001_Node000007" class="edge">
<title>Node1&#45;&gt;Node7</title>
<g id="a_edge6_Node000001_Node000007"><a xlink:title=" ">
<path fill="none" stroke="#63b8ff" d="M470.11,-138.78C489.44,-129.37 512.54,-118.12 532.01,-108.64"/>
<polygon fill="#63b8ff" stroke="#63b8ff" points="468.63,-135.61 461.17,-143.14 471.7,-141.91 468.63,-135.61"/>
</a>
</g>
</g>
<!-- Node3 -->
<g id="Node000003" class="node">
<title>Node3</title>
<g id="a_Node000003"><a xlink:href="NetworkManager_8cpp.html" target="_top" xlink:title=" ">
<polygon fill="white" stroke="#666666" points="165.25,-30.5 0,-30.5 0,0 165.25,0 165.25,-30.5"/>
<text text-anchor="start" x="8" y="-17" font-family="Helvetica,sans-Serif" font-size="10.00">sourcecode/iomanager</text>
<text text-anchor="middle" x="82.62" y="-5.75" font-family="Helvetica,sans-Serif" font-size="10.00">/src/network/NetworkManager.cpp</text>
</a>
</g>
</g>
<!-- Node2&#45;&gt;Node3 -->
<g id="edge2_Node000002_Node000003" class="edge">
<title>Node2&#45;&gt;Node3</title>
<g id="a_edge2_Node000002_Node000003"><a xlink:title=" ">
<path fill="none" stroke="#63b8ff" d="M184.73,-66.67C161.75,-55.33 133.36,-41.31 112.35,-30.93"/>
<polygon fill="#63b8ff" stroke="#63b8ff" points="182.98,-69.71 193.5,-71 186.08,-63.44 182.98,-69.71"/>
</a>
</g>
</g>
<!-- Node4 -->
<g id="Node000004" class="node">
<title>Node4</title>
<g id="a_Node000004"><a xlink:href="Resolver_8cpp.html" target="_top" xlink:title=" ">
<polygon fill="white" stroke="#666666" points="283.62,-30.5 183.62,-30.5 183.62,0 283.62,0 283.62,-30.5"/>
<text text-anchor="start" x="191.62" y="-17" font-family="Helvetica,sans-Serif" font-size="10.00">sourcecode/utilities</text>
<text text-anchor="middle" x="233.62" y="-5.75" font-family="Helvetica,sans-Serif" font-size="10.00">/src/Resolver.cpp</text>
</a>
</g>
</g>
<!-- Node2&#45;&gt;Node4 -->
<g id="edge3_Node000002_Node000004" class="edge">
<title>Node2&#45;&gt;Node4</title>
<g id="a_edge3_Node000002_Node000004"><a xlink:title=" ">
<path fill="none" stroke="#63b8ff" d="M227.92,-60.73C229.21,-50.63 230.65,-39.41 231.76,-30.76"/>
<polygon fill="#63b8ff" stroke="#63b8ff" points="224.48,-59.98 226.68,-70.34 231.43,-60.87 224.48,-59.98"/>
</a>
</g>
</g>
<!-- Node5&#45;&gt;Node6 -->
<g id="edge5_Node000005_Node000006" class="edge">
<title>Node5&#45;&gt;Node6</title>
<g id="a_edge5_Node000005_Node000006"><a xlink:title=" ">
<path fill="none" stroke="#63b8ff" d="M384.76,-54.92C385.61,-46.47 386.48,-37.73 387.18,-30.7"/>
<polygon fill="#63b8ff" stroke="#63b8ff" points="381.31,-54.29 383.8,-64.59 388.28,-54.98 381.31,-54.29"/>
</a>
</g>
</g>
<!-- Node8 -->
<g id="Node000008" class="node">
<title>Node8</title>
<g id="a_Node000008"><a xlink:href="TimestampEstimatorSystem_8cpp.html" target="_top" xlink:title=" ">
<polygon fill="white" stroke="#666666" points="661.88,-30.5 485.38,-30.5 485.38,0 661.88,0 661.88,-30.5"/>
<text text-anchor="start" x="493.38" y="-17" font-family="Helvetica,sans-Serif" font-size="10.00">sourcecode/utilities</text>
<text text-anchor="middle" x="573.62" y="-5.75" font-family="Helvetica,sans-Serif" font-size="10.00">/src/TimestampEstimatorSystem.cpp</text>
</a>
</g>
</g>
<!-- Node7&#45;&gt;Node8 -->
<g id="edge7_Node000007_Node000008" class="edge">
<title>Node7&#45;&gt;Node8</title>
<g id="a_edge7_Node000007_Node000008"><a xlink:title=" ">
<path fill="none" stroke="#63b8ff" d="M573.62,-54.63C573.62,-46.27 573.62,-37.65 573.62,-30.7"/>
<polygon fill="#63b8ff" stroke="#63b8ff" points="570.13,-54.58 573.63,-64.58 577.13,-54.58 570.13,-54.58"/>
</a>
</g>
</g>
</g>
</svg>
