<?xml version="1.0" encoding="UTF-8" standalone="no"?>
<!DOCTYPE svg PUBLIC "-//W3C//DTD SVG 1.1//EN"
 "http://www.w3.org/Graphics/SVG/1.1/DTD/svg11.dtd">
<!-- Generated by graphviz version 9.0.0 (20230911.1827)
 -->
<!-- Title: sourcecode/coredal/include/coredal/util.hpp Pages: 1 -->
<svg width="533pt" height="172pt"
 viewBox="0.00 0.00 533.12 171.50" xmlns="http://www.w3.org/2000/svg" xmlns:xlink="http://www.w3.org/1999/xlink">
<g id="graph0" class="graph" transform="scale(1 1) rotate(0) translate(4 167.5)">
<title>sourcecode/coredal/include/coredal/util.hpp</title>
<!-- Node1 -->
<g id="Node000001" class="node">
<title>Node1</title>
<g id="a_Node000001"><a xlink:title=" ">
<polygon fill="#999999" stroke="#666666" points="215.25,-163.5 97.25,-163.5 97.25,-133 215.25,-133 215.25,-163.5"/>
<text text-anchor="start" x="105.25" y="-150" font-family="Helvetica,sans-Serif" font-size="10.00">sourcecode/coredal</text>
<text text-anchor="middle" x="156.25" y="-138.75" font-family="Helvetica,sans-Serif" font-size="10.00">/include/coredal/util.hpp</text>
</a>
</g>
</g>
<!-- Node2 -->
<g id="Node000002" class="node">
<title>Node2</title>
<g id="a_Node000002"><a xlink:href="SmartDaqApplication_8cpp.html" target="_top" xlink:title=" ">
<polygon fill="white" stroke="#666666" points="128.5,-97 0,-97 0,-66.5 128.5,-66.5 128.5,-97"/>
<text text-anchor="start" x="8" y="-83.5" font-family="Helvetica,sans-Serif" font-size="10.00">sourcecode/appdal/src</text>
<text text-anchor="middle" x="64.25" y="-72.25" font-family="Helvetica,sans-Serif" font-size="10.00">/SmartDaqApplication.cpp</text>
</a>
</g>
</g>
<!-- Node1&#45;&gt;Node2 -->
<g id="edge1_Node000001_Node000002" class="edge">
<title>Node1&#45;&gt;Node2</title>
<g id="a_edge1_Node000001_Node000002"><a xlink:title=" ">
<path fill="none" stroke="#63b8ff" d="M126.04,-126.07C112.61,-116.66 97.14,-105.81 85.04,-97.33"/>
<polygon fill="#63b8ff" stroke="#63b8ff" points="123.94,-128.87 134.13,-131.75 127.96,-123.14 123.94,-128.87"/>
</a>
</g>
</g>
<!-- Node3 -->
<g id="Node000003" class="node">
<title>Node3</title>
<g id="a_Node000003"><a xlink:href="disabled-components_8cpp.html" target="_top" xlink:title=" ">
<polygon fill="white" stroke="#666666" points="221.12,-30.5 75.38,-30.5 75.38,0 221.12,0 221.12,-30.5"/>
<text text-anchor="start" x="83.38" y="-17" font-family="Helvetica,sans-Serif" font-size="10.00">sourcecode/coredal</text>
<text text-anchor="middle" x="148.25" y="-5.75" font-family="Helvetica,sans-Serif" font-size="10.00">/src/disabled&#45;components.cpp</text>
</a>
</g>
</g>
<!-- Node1&#45;&gt;Node3 -->
<g id="edge2_Node000001_Node000003" class="edge">
<title>Node1&#45;&gt;Node3</title>
<g id="a_edge2_Node000001_Node000003"><a xlink:title=" ">
<path fill="none" stroke="#63b8ff" d="M154.67,-121.43C153.02,-94.34 150.48,-52.71 149.14,-30.83"/>
<polygon fill="#63b8ff" stroke="#63b8ff" points="151.17,-121.45 155.27,-131.22 158.15,-121.02 151.17,-121.45"/>
</a>
</g>
</g>
<!-- Node4 -->
<g id="Node000004" class="node">
<title>Node4</title>
<g id="a_Node000004"><a xlink:href="test__circular__dependency_8hpp.html" target="_top" xlink:title=" ">
<polygon fill="white" stroke="#666666" points="364.12,-97 200.38,-97 200.38,-66.5 364.12,-66.5 364.12,-97"/>
<text text-anchor="start" x="208.38" y="-83.5" font-family="Helvetica,sans-Serif" font-size="10.00">sourcecode/coredal</text>
<text text-anchor="middle" x="282.25" y="-72.25" font-family="Helvetica,sans-Serif" font-size="10.00">/src/test_circular_dependency.hpp</text>
</a>
</g>
</g>
<!-- Node1&#45;&gt;Node4 -->
<g id="edge3_Node000001_Node000004" class="edge">
<title>Node1&#45;&gt;Node4</title>
<g id="a_edge3_Node000001_Node000004"><a xlink:title=" ">
<path fill="none" stroke="#63b8ff" d="M194.97,-127.43C213.95,-117.71 236.4,-106.22 253.77,-97.33"/>
<polygon fill="#63b8ff" stroke="#63b8ff" points="193.5,-124.25 186.19,-131.92 196.68,-130.48 193.5,-124.25"/>
</a>
</g>
</g>
<!-- Node4&#45;&gt;Node3 -->
<g id="edge5_Node000004_Node000003" class="edge">
<title>Node4&#45;&gt;Node3</title>
<g id="a_edge5_Node000004_Node000003"><a xlink:title=" ">
<path fill="none" stroke="#63b8ff" d="M241.63,-61.2C221.33,-51.43 197.19,-39.81 178.54,-30.83"/>
<polygon fill="#63b8ff" stroke="#63b8ff" points="239.95,-64.27 250.48,-65.46 242.99,-57.97 239.95,-64.27"/>
</a>
</g>
</g>
<!-- Node5 -->
<g id="Node000005" class="node">
<title>Node5</title>
<g id="a_Node000005"><a xlink:href="dalMethods_8cpp.html" target="_top" xlink:title=" ">
<polygon fill="white" stroke="#666666" points="343.12,-30.5 239.38,-30.5 239.38,0 343.12,0 343.12,-30.5"/>
<text text-anchor="start" x="247.38" y="-17" font-family="Helvetica,sans-Serif" font-size="10.00">sourcecode/coredal</text>
<text text-anchor="middle" x="291.25" y="-5.75" font-family="Helvetica,sans-Serif" font-size="10.00">/src/dalMethods.cpp</text>
</a>
</g>
</g>
<!-- Node4&#45;&gt;Node5 -->
<g id="edge4_Node000004_Node000005" class="edge">
<title>Node4&#45;&gt;Node5</title>
<g id="a_edge4_Node000004_Node000005"><a xlink:title=" ">
<path fill="none" stroke="#63b8ff" d="M285.87,-54.81C287.01,-46.64 288.23,-37.91 289.22,-30.83"/>
<polygon fill="#63b8ff" stroke="#63b8ff" points="282.42,-54.23 284.5,-64.61 289.35,-55.19 282.42,-54.23"/>
</a>
</g>
</g>
<!-- Node6 -->
<g id="Node000006" class="node">
<title>Node6</title>
<g id="a_Node000006"><a xlink:href="test__circular__dependency_8cpp.html" target="_top" xlink:title=" ">
<polygon fill="white" stroke="#666666" points="525.12,-30.5 361.38,-30.5 361.38,0 525.12,0 525.12,-30.5"/>
<text text-anchor="start" x="369.38" y="-17" font-family="Helvetica,sans-Serif" font-size="10.00">sourcecode/coredal</text>
<text text-anchor="middle" x="443.25" y="-5.75" font-family="Helvetica,sans-Serif" font-size="10.00">/src/test_circular_dependency.cpp</text>
</a>
</g>
</g>
<!-- Node4&#45;&gt;Node6 -->
<g id="edge6_Node000004_Node000006" class="edge">
<title>Node4&#45;&gt;Node6</title>
<g id="a_edge6_Node000004_Node000006"><a xlink:title=" ">
<path fill="none" stroke="#63b8ff" d="M329.35,-61.88C353.98,-52.01 383.68,-40.11 406.58,-30.94"/>
<polygon fill="#63b8ff" stroke="#63b8ff" points="328.17,-58.58 320.19,-65.55 330.77,-65.08 328.17,-58.58"/>
</a>
</g>
</g>
</g>
</svg>
