<?xml version="1.0" encoding="UTF-8" standalone="no"?>
<!DOCTYPE svg PUBLIC "-//W3C//DTD SVG 1.1//EN"
 "http://www.w3.org/Graphics/SVG/1.1/DTD/svg11.dtd">
<!-- Generated by graphviz version 9.0.0 (20230911.1827)
 -->
<!-- Title: sourcecode/ers/include/ers/internal/Util.hpp Pages: 1 -->
<svg width="858pt" height="105pt"
 viewBox="0.00 0.00 858.25 105.00" xmlns="http://www.w3.org/2000/svg" xmlns:xlink="http://www.w3.org/1999/xlink">
<g id="graph0" class="graph" transform="scale(1 1) rotate(0) translate(4 101)">
<title>sourcecode/ers/include/ers/internal/Util.hpp</title>
<!-- Node1 -->
<g id="Node000001" class="node">
<title>Node1</title>
<g id="a_Node000001"><a xlink:title=" ">
<polygon fill="#999999" stroke="#666666" points="479.88,-97 363.38,-97 363.38,-66.5 479.88,-66.5 479.88,-97"/>
<text text-anchor="start" x="371.38" y="-83.5" font-family="Helvetica,sans-Serif" font-size="10.00">sourcecode/ers/include</text>
<text text-anchor="middle" x="421.62" y="-72.25" font-family="Helvetica,sans-Serif" font-size="10.00">/ers/internal/Util.hpp</text>
</a>
</g>
</g>
<!-- Node2 -->
<g id="Node000002" class="node">
<title>Node2</title>
<g id="a_Node000002"><a xlink:href="ers_2src_2Configuration_8cpp.html" target="_top" xlink:title=" ">
<polygon fill="white" stroke="#666666" points="99.25,-30.5 0,-30.5 0,0 99.25,0 99.25,-30.5"/>
<text text-anchor="start" x="8" y="-17" font-family="Helvetica,sans-Serif" font-size="10.00">sourcecode/ers/src</text>
<text text-anchor="middle" x="49.62" y="-5.75" font-family="Helvetica,sans-Serif" font-size="10.00">/Configuration.cpp</text>
</a>
</g>
</g>
<!-- Node1&#45;&gt;Node2 -->
<g id="edge1_Node000001_Node000002" class="edge">
<title>Node1&#45;&gt;Node2</title>
<g id="a_edge1_Node000001_Node000002"><a xlink:title=" ">
<path fill="none" stroke="#63b8ff" d="M351.79,-71.25C287.96,-62.18 191.08,-47.4 107.62,-30.5 104.98,-29.96 102.28,-29.39 99.55,-28.79"/>
<polygon fill="#63b8ff" stroke="#63b8ff" points="351.03,-74.68 361.42,-72.61 352.01,-67.75 351.03,-74.68"/>
</a>
</g>
</g>
<!-- Node3 -->
<g id="Node000003" class="node">
<title>Node3</title>
<g id="a_Node000003"><a xlink:href="Issue_8cpp.html" target="_top" xlink:title=" ">
<polygon fill="white" stroke="#666666" points="216.25,-30.5 117,-30.5 117,0 216.25,0 216.25,-30.5"/>
<text text-anchor="start" x="125" y="-17" font-family="Helvetica,sans-Serif" font-size="10.00">sourcecode/ers/src</text>
<text text-anchor="middle" x="166.62" y="-5.75" font-family="Helvetica,sans-Serif" font-size="10.00">/Issue.cpp</text>
</a>
</g>
</g>
<!-- Node1&#45;&gt;Node3 -->
<g id="edge2_Node000001_Node000003" class="edge">
<title>Node1&#45;&gt;Node3</title>
<g id="a_edge2_Node000001_Node000003"><a xlink:title=" ">
<path fill="none" stroke="#63b8ff" d="M352.49,-63.26C309.48,-52.38 255.18,-38.65 216.39,-28.84"/>
<polygon fill="#63b8ff" stroke="#63b8ff" points="351.42,-66.6 361.98,-65.66 353.14,-59.82 351.42,-66.6"/>
</a>
</g>
</g>
<!-- Node4 -->
<g id="Node000004" class="node">
<title>Node4</title>
<g id="a_Node000004"><a xlink:href="PluginManager_8cpp.html" target="_top" xlink:title=" ">
<polygon fill="white" stroke="#666666" points="335.38,-30.5 233.88,-30.5 233.88,0 335.38,0 335.38,-30.5"/>
<text text-anchor="start" x="241.88" y="-17" font-family="Helvetica,sans-Serif" font-size="10.00">sourcecode/ers/src</text>
<text text-anchor="middle" x="284.62" y="-5.75" font-family="Helvetica,sans-Serif" font-size="10.00">/PluginManager.cpp</text>
</a>
</g>
</g>
<!-- Node1&#45;&gt;Node4 -->
<g id="edge3_Node000001_Node000004" class="edge">
<title>Node1&#45;&gt;Node4</title>
<g id="a_edge3_Node000001_Node000004"><a xlink:title=" ">
<path fill="none" stroke="#63b8ff" d="M380.38,-61.33C359.57,-51.53 334.75,-39.85 315.59,-30.83"/>
<polygon fill="#63b8ff" stroke="#63b8ff" points="378.63,-64.38 389.17,-65.47 381.61,-58.04 378.63,-64.38"/>
</a>
</g>
</g>
<!-- Node5 -->
<g id="Node000005" class="node">
<title>Node5</title>
<g id="a_Node000005"><a xlink:href="StandardStreamOutput_8cpp.html" target="_top" xlink:title=" ">
<polygon fill="white" stroke="#666666" points="490,-30.5 353.25,-30.5 353.25,0 490,0 490,-30.5"/>
<text text-anchor="start" x="361.25" y="-17" font-family="Helvetica,sans-Serif" font-size="10.00">sourcecode/ers/src</text>
<text text-anchor="middle" x="421.62" y="-5.75" font-family="Helvetica,sans-Serif" font-size="10.00">/StandardStreamOutput.cpp</text>
</a>
</g>
</g>
<!-- Node1&#45;&gt;Node5 -->
<g id="edge4_Node000001_Node000005" class="edge">
<title>Node1&#45;&gt;Node5</title>
<g id="a_edge4_Node000001_Node000005"><a xlink:title=" ">
<path fill="none" stroke="#63b8ff" d="M421.62,-54.81C421.62,-46.64 421.62,-37.91 421.62,-30.83"/>
<polygon fill="#63b8ff" stroke="#63b8ff" points="418.13,-54.6 421.63,-64.6 425.13,-54.6 418.13,-54.6"/>
</a>
</g>
</g>
<!-- Node6 -->
<g id="Node000006" class="node">
<title>Node6</title>
<g id="a_Node000006"><a xlink:href="StreamFactory_8cpp.html" target="_top" xlink:title=" ">
<polygon fill="white" stroke="#666666" points="609,-30.5 508.25,-30.5 508.25,0 609,0 609,-30.5"/>
<text text-anchor="start" x="516.25" y="-17" font-family="Helvetica,sans-Serif" font-size="10.00">sourcecode/ers/src</text>
<text text-anchor="middle" x="558.62" y="-5.75" font-family="Helvetica,sans-Serif" font-size="10.00">/StreamFactory.cpp</text>
</a>
</g>
</g>
<!-- Node1&#45;&gt;Node6 -->
<g id="edge5_Node000001_Node000006" class="edge">
<title>Node1&#45;&gt;Node6</title>
<g id="a_edge5_Node000001_Node000006"><a xlink:title=" ">
<path fill="none" stroke="#63b8ff" d="M462.87,-61.33C483.68,-51.53 508.5,-39.85 527.66,-30.83"/>
<polygon fill="#63b8ff" stroke="#63b8ff" points="461.64,-58.04 454.08,-65.47 464.62,-64.38 461.64,-58.04"/>
</a>
</g>
</g>
<!-- Node7 -->
<g id="Node000007" class="node">
<title>Node7</title>
<g id="a_Node000007"><a xlink:href="StreamManager_8cpp.html" target="_top" xlink:title=" ">
<polygon fill="white" stroke="#666666" points="732.62,-30.5 626.62,-30.5 626.62,0 732.62,0 732.62,-30.5"/>
<text text-anchor="start" x="634.62" y="-17" font-family="Helvetica,sans-Serif" font-size="10.00">sourcecode/ers/src</text>
<text text-anchor="middle" x="679.62" y="-5.75" font-family="Helvetica,sans-Serif" font-size="10.00">/StreamManager.cpp</text>
</a>
</g>
</g>
<!-- Node1&#45;&gt;Node7 -->
<g id="edge6_Node000001_Node000007" class="edge">
<title>Node1&#45;&gt;Node7</title>
<g id="a_edge6_Node000001_Node000007"><a xlink:title=" ">
<path fill="none" stroke="#63b8ff" d="M491.26,-63.34C533.68,-52.74 587.05,-39.39 626.15,-29.62"/>
<polygon fill="#63b8ff" stroke="#63b8ff" points="490.49,-59.93 481.64,-65.75 492.19,-66.72 490.49,-59.93"/>
</a>
</g>
</g>
<!-- Node8 -->
<g id="Node000008" class="node">
<title>Node8</title>
<g id="a_Node000008"><a xlink:href="Util_8cpp.html" target="_top" xlink:title=" ">
<polygon fill="white" stroke="#666666" points="850.25,-30.5 751,-30.5 751,0 850.25,0 850.25,-30.5"/>
<text text-anchor="start" x="759" y="-17" font-family="Helvetica,sans-Serif" font-size="10.00">sourcecode/ers/src</text>
<text text-anchor="middle" x="800.62" y="-5.75" font-family="Helvetica,sans-Serif" font-size="10.00">/Util.cpp</text>
</a>
</g>
</g>
<!-- Node1&#45;&gt;Node8 -->
<g id="edge7_Node000001_Node000008" class="edge">
<title>Node1&#45;&gt;Node8</title>
<g id="a_edge7_Node000001_Node000008"><a xlink:title=" ">
<path fill="none" stroke="#63b8ff" d="M491.6,-71.43C556.62,-62.38 656.03,-47.53 741.62,-30.5 744.62,-29.9 747.7,-29.26 750.79,-28.59"/>
<polygon fill="#63b8ff" stroke="#63b8ff" points="491.2,-67.95 481.77,-72.79 492.15,-74.89 491.2,-67.95"/>
</a>
</g>
</g>
</g>
</svg>
