<?xml version="1.0" encoding="UTF-8" standalone="no"?>
<!DOCTYPE svg PUBLIC "-//W3C//DTD SVG 1.1//EN"
 "http://www.w3.org/Graphics/SVG/1.1/DTD/svg11.dtd">
<!-- Generated by graphviz version 9.0.0 (20230911.1827)
 -->
<!-- Title: sourcecode/detchannelmaps/src/VDColdboxChannelMapService.cpp Pages: 1 -->
<svg width="314pt" height="149pt"
 viewBox="0.00 0.00 313.75 149.00" xmlns="http://www.w3.org/2000/svg" xmlns:xlink="http://www.w3.org/1999/xlink">
<g id="graph0" class="graph" transform="scale(1 1) rotate(0) translate(4 145)">
<title>sourcecode/detchannelmaps/src/VDColdboxChannelMapService.cpp</title>
<!-- Node1 -->
<g id="Node000001" class="node">
<title>Node1</title>
<g id="a_Node000001"><a xlink:title=" ">
<polygon fill="#999999" stroke="#666666" points="305.75,-141 117.25,-141 117.25,-110.5 305.75,-110.5 305.75,-141"/>
<text text-anchor="start" x="125.25" y="-127.5" font-family="Helvetica,sans-Serif" font-size="10.00">sourcecode/detchannelmaps</text>
<text text-anchor="middle" x="211.5" y="-116.25" font-family="Helvetica,sans-Serif" font-size="10.00">/src/VDColdboxChannelMapService.cpp</text>
</a>
</g>
</g>
<!-- Node2 -->
<g id="Node000002" class="node">
<title>Node2</title>
<g id="a_Node000002"><a xlink:href="VDColdboxChannelMapService_8hpp.html" target="_top" xlink:title=" ">
<polygon fill="white" stroke="#666666" points="169,-74.5 0,-74.5 0,-55.25 169,-55.25 169,-74.5"/>
<text text-anchor="middle" x="84.5" y="-61" font-family="Helvetica,sans-Serif" font-size="10.00">VDColdboxChannelMapService.hpp</text>
</a>
</g>
</g>
<!-- Node1&#45;&gt;Node2 -->
<g id="edge1_Node000001_Node000002" class="edge">
<title>Node1&#45;&gt;Node2</title>
<g id="a_edge1_Node000001_Node000002"><a xlink:title=" ">
<path fill="none" stroke="#63b8ff" d="M179.78,-110.05C159.7,-100.73 133.9,-88.77 114.21,-79.65"/>
<polygon fill="#63b8ff" stroke="#63b8ff" points="115.89,-76.57 105.35,-75.54 112.95,-82.92 115.89,-76.57"/>
</a>
</g>
</g>
<!-- Node5 -->
<g id="Node000005" class="node">
<title>Node5</title>
<g id="a_Node000005"><a xlink:title=" ">
<polygon fill="#e0e0e0" stroke="#999999" points="236,-74.5 187,-74.5 187,-55.25 236,-55.25 236,-74.5"/>
<text text-anchor="middle" x="211.5" y="-61" font-family="Helvetica,sans-Serif" font-size="10.00">fstream</text>
</a>
</g>
</g>
<!-- Node1&#45;&gt;Node5 -->
<g id="edge4_Node000001_Node000005" class="edge">
<title>Node1&#45;&gt;Node5</title>
<g id="a_edge4_Node000001_Node000005"><a xlink:title=" ">
<path fill="none" stroke="#63b8ff" d="M211.5,-110.2C211.5,-102.96 211.5,-94.09 211.5,-86.19"/>
<polygon fill="#63b8ff" stroke="#63b8ff" points="215,-86.46 211.5,-76.46 208,-86.46 215,-86.46"/>
</a>
</g>
</g>
<!-- Node6 -->
<g id="Node000006" class="node">
<title>Node6</title>
<g id="a_Node000006"><a xlink:title=" ">
<polygon fill="#e0e0e0" stroke="#999999" points="305.12,-74.5 253.88,-74.5 253.88,-55.25 305.12,-55.25 305.12,-74.5"/>
<text text-anchor="middle" x="279.5" y="-61" font-family="Helvetica,sans-Serif" font-size="10.00">sstream</text>
</a>
</g>
</g>
<!-- Node1&#45;&gt;Node6 -->
<g id="edge5_Node000001_Node000006" class="edge">
<title>Node1&#45;&gt;Node6</title>
<g id="a_edge5_Node000001_Node000006"><a xlink:title=" ">
<path fill="none" stroke="#63b8ff" d="M228.31,-110.2C238.07,-101.75 250.38,-91.08 260.49,-82.33"/>
<polygon fill="#63b8ff" stroke="#63b8ff" points="262.6,-85.13 267.87,-75.94 258.02,-79.84 262.6,-85.13"/>
</a>
</g>
</g>
<!-- Node3 -->
<g id="Node000003" class="node">
<title>Node3</title>
<g id="a_Node000003"><a xlink:title=" ">
<polygon fill="#e0e0e0" stroke="#999999" points="86.88,-19.25 4.12,-19.25 4.12,0 86.88,0 86.88,-19.25"/>
<text text-anchor="middle" x="45.5" y="-5.75" font-family="Helvetica,sans-Serif" font-size="10.00">unordered_map</text>
</a>
</g>
</g>
<!-- Node2&#45;&gt;Node3 -->
<g id="edge2_Node000002_Node000003" class="edge">
<title>Node2&#45;&gt;Node3</title>
<g id="a_edge2_Node000002_Node000003"><a xlink:title=" ">
<path fill="none" stroke="#63b8ff" d="M78.06,-55.08C72.84,-47.96 65.31,-37.68 58.81,-28.8"/>
<polygon fill="#63b8ff" stroke="#63b8ff" points="61.71,-26.83 52.97,-20.83 56.06,-30.97 61.71,-26.83"/>
</a>
</g>
</g>
<!-- Node4 -->
<g id="Node000004" class="node">
<title>Node4</title>
<g id="a_Node000004"><a xlink:title=" ">
<polygon fill="#e0e0e0" stroke="#999999" points="144.5,-19.25 104.5,-19.25 104.5,0 144.5,0 144.5,-19.25"/>
<text text-anchor="middle" x="124.5" y="-5.75" font-family="Helvetica,sans-Serif" font-size="10.00">string</text>
</a>
</g>
</g>
<!-- Node2&#45;&gt;Node4 -->
<g id="edge3_Node000002_Node000004" class="edge">
<title>Node2&#45;&gt;Node4</title>
<g id="a_edge3_Node000002_Node000004"><a xlink:title=" ">
<path fill="none" stroke="#63b8ff" d="M91.11,-55.08C96.46,-47.96 104.18,-37.68 110.85,-28.8"/>
<polygon fill="#63b8ff" stroke="#63b8ff" points="113.63,-30.92 116.84,-20.82 108.04,-26.71 113.63,-30.92"/>
</a>
</g>
</g>
</g>
</svg>
