<?xml version="1.0" encoding="UTF-8" standalone="no"?>
<!DOCTYPE svg PUBLIC "-//W3C//DTD SVG 1.1//EN"
 "http://www.w3.org/Graphics/SVG/1.1/DTD/svg11.dtd">
<!-- Generated by graphviz version 9.0.0 (20230911.1827)
 -->
<!-- Title: sourcecode/dbe/include/dbe/version.hpp Pages: 1 -->
<svg width="656pt" height="105pt"
 viewBox="0.00 0.00 655.50 105.00" xmlns="http://www.w3.org/2000/svg" xmlns:xlink="http://www.w3.org/1999/xlink">
<g id="graph0" class="graph" transform="scale(1 1) rotate(0) translate(4 101)">
<title>sourcecode/dbe/include/dbe/version.hpp</title>
<!-- Node1 -->
<g id="Node000001" class="node">
<title>Node1</title>
<g id="a_Node000001"><a xlink:title=" ">
<polygon fill="#999999" stroke="#666666" points="389.12,-97 270.38,-97 270.38,-66.5 389.12,-66.5 389.12,-97"/>
<text text-anchor="start" x="278.38" y="-83.5" font-family="Helvetica,sans-Serif" font-size="10.00">sourcecode/dbe/include</text>
<text text-anchor="middle" x="329.75" y="-72.25" font-family="Helvetica,sans-Serif" font-size="10.00">/dbe/version.hpp</text>
</a>
</g>
</g>
<!-- Node2 -->
<g id="Node000002" class="node">
<title>Node2</title>
<g id="a_Node000002"><a xlink:href="MyApplication_8cpp.html" target="_top" xlink:title=" ">
<polygon fill="white" stroke="#666666" points="101.5,-30.5 0,-30.5 0,0 101.5,0 101.5,-30.5"/>
<text text-anchor="start" x="8" y="-17" font-family="Helvetica,sans-Serif" font-size="10.00">sourcecode/dbe/src</text>
<text text-anchor="middle" x="50.75" y="-5.75" font-family="Helvetica,sans-Serif" font-size="10.00">/MyApplication.cpp</text>
</a>
</g>
</g>
<!-- Node1&#45;&gt;Node2 -->
<g id="edge1_Node000001_Node000002" class="edge">
<title>Node1&#45;&gt;Node2</title>
<g id="a_edge1_Node000001_Node000002"><a xlink:title=" ">
<path fill="none" stroke="#63b8ff" d="M258.99,-64.82C215.83,-55.05 159.57,-42.21 109.75,-30.5 107.19,-29.9 104.56,-29.28 101.91,-28.65"/>
<polygon fill="#63b8ff" stroke="#63b8ff" points="257.94,-68.17 268.47,-66.97 259.49,-61.35 257.94,-68.17"/>
</a>
</g>
</g>
<!-- Node3 -->
<g id="Node000003" class="node">
<title>Node3</title>
<g id="a_Node000003"><a xlink:href="MainWindow_8cpp.html" target="_top" xlink:title=" ">
<polygon fill="white" stroke="#666666" points="246.25,-30.5 119.25,-30.5 119.25,0 246.25,0 246.25,-30.5"/>
<text text-anchor="start" x="127.25" y="-17" font-family="Helvetica,sans-Serif" font-size="10.00">sourcecode/dbe/src</text>
<text text-anchor="middle" x="182.75" y="-5.75" font-family="Helvetica,sans-Serif" font-size="10.00">/internal/MainWindow.cpp</text>
</a>
</g>
</g>
<!-- Node1&#45;&gt;Node3 -->
<g id="edge2_Node000001_Node000003" class="edge">
<title>Node1&#45;&gt;Node3</title>
<g id="a_edge2_Node000001_Node000003"><a xlink:title=" ">
<path fill="none" stroke="#63b8ff" d="M286.14,-61.62C263.77,-51.8 236.95,-40.03 216.23,-30.94"/>
<polygon fill="#63b8ff" stroke="#63b8ff" points="284.44,-64.69 295.01,-65.51 287.26,-58.28 284.44,-64.69"/>
</a>
</g>
</g>
<!-- Node4 -->
<g id="Node000004" class="node">
<title>Node4</title>
<g id="a_Node000004"><a xlink:href="confaccessor_8cpp.html" target="_top" xlink:title=" ">
<polygon fill="white" stroke="#666666" points="394.75,-30.5 264.75,-30.5 264.75,0 394.75,0 394.75,-30.5"/>
<text text-anchor="start" x="272.75" y="-17" font-family="Helvetica,sans-Serif" font-size="10.00">sourcecode/dbe/src</text>
<text text-anchor="middle" x="329.75" y="-5.75" font-family="Helvetica,sans-Serif" font-size="10.00">/internal/confaccessor.cpp</text>
</a>
</g>
</g>
<!-- Node1&#45;&gt;Node4 -->
<g id="edge3_Node000001_Node000004" class="edge">
<title>Node1&#45;&gt;Node4</title>
<g id="a_edge3_Node000001_Node000004"><a xlink:title=" ">
<path fill="none" stroke="#63b8ff" d="M329.75,-54.81C329.75,-46.64 329.75,-37.91 329.75,-30.83"/>
<polygon fill="#63b8ff" stroke="#63b8ff" points="326.25,-54.6 329.75,-64.6 333.25,-54.6 326.25,-54.6"/>
</a>
</g>
</g>
<!-- Node5 -->
<g id="Node000005" class="node">
<title>Node5</title>
<g id="a_Node000005"><a xlink:href="config__api_8cpp.html" target="_top" xlink:title=" ">
<polygon fill="white" stroke="#666666" points="528.25,-30.5 413.25,-30.5 413.25,0 528.25,0 528.25,-30.5"/>
<text text-anchor="start" x="421.25" y="-17" font-family="Helvetica,sans-Serif" font-size="10.00">sourcecode/dbe/src</text>
<text text-anchor="middle" x="470.75" y="-5.75" font-family="Helvetica,sans-Serif" font-size="10.00">/internal/config_api.cpp</text>
</a>
</g>
</g>
<!-- Node1&#45;&gt;Node5 -->
<g id="edge4_Node000001_Node000005" class="edge">
<title>Node1&#45;&gt;Node5</title>
<g id="a_edge4_Node000001_Node000005"><a xlink:title=" ">
<path fill="none" stroke="#63b8ff" d="M372.2,-61.33C393.62,-51.53 419.17,-39.85 438.88,-30.83"/>
<polygon fill="#63b8ff" stroke="#63b8ff" points="370.76,-58.14 363.12,-65.48 373.67,-64.51 370.76,-58.14"/>
</a>
</g>
</g>
<!-- Node6 -->
<g id="Node000006" class="node">
<title>Node6</title>
<g id="a_Node000006"><a xlink:href="tree_8cpp.html" target="_top" xlink:title=" ">
<polygon fill="white" stroke="#666666" points="647.5,-30.5 546,-30.5 546,0 647.5,0 647.5,-30.5"/>
<text text-anchor="start" x="554" y="-17" font-family="Helvetica,sans-Serif" font-size="10.00">sourcecode/dbe/src</text>
<text text-anchor="middle" x="596.75" y="-5.75" font-family="Helvetica,sans-Serif" font-size="10.00">/structure/tree.cpp</text>
</a>
</g>
</g>
<!-- Node1&#45;&gt;Node6 -->
<g id="edge5_Node000001_Node000006" class="edge">
<title>Node1&#45;&gt;Node6</title>
<g id="a_edge5_Node000001_Node000006"><a xlink:title=" ">
<path fill="none" stroke="#63b8ff" d="M400.38,-63.69C446.14,-52.63 504.67,-38.49 545.88,-28.54"/>
<polygon fill="#63b8ff" stroke="#63b8ff" points="399.71,-60.25 390.81,-66 401.35,-67.05 399.71,-60.25"/>
</a>
</g>
</g>
</g>
</svg>
