<?xml version="1.0" encoding="UTF-8" standalone="no"?>
<!DOCTYPE svg PUBLIC "-//W3C//DTD SVG 1.1//EN"
 "http://www.w3.org/Graphics/SVG/1.1/DTD/svg11.dtd">
<!-- Generated by graphviz version 9.0.0 (20230911.1827)
 -->
<!-- Title: sourcecode/timing/include/timing/VLCmdGeneratorNode.hpp Pages: 1 -->
<svg width="2209pt" height="438pt"
 viewBox="0.00 0.00 2209.12 437.50" xmlns="http://www.w3.org/2000/svg" xmlns:xlink="http://www.w3.org/1999/xlink">
<g id="graph0" class="graph" transform="scale(1 1) rotate(0) translate(4 433.5)">
<title>sourcecode/timing/include/timing/VLCmdGeneratorNode.hpp</title>
<!-- Node1 -->
<g id="Node000001" class="node">
<title>Node1</title>
<g id="a_Node000001"><a xlink:title=" ">
<polygon fill="#999999" stroke="#666666" points="1938.75,-429.5 1773.5,-429.5 1773.5,-399 1938.75,-399 1938.75,-429.5"/>
<text text-anchor="start" x="1781.5" y="-416" font-family="Helvetica,sans-Serif" font-size="10.00">sourcecode/timing/include</text>
<text text-anchor="middle" x="1856.12" y="-404.75" font-family="Helvetica,sans-Serif" font-size="10.00">/timing/VLCmdGeneratorNode.hpp</text>
</a>
</g>
</g>
<!-- Node2 -->
<g id="Node000002" class="node">
<title>Node2</title>
<g id="a_Node000002"><a xlink:href="MasterNodeInterface_8hpp.html" target="_top" xlink:title=" ">
<polygon fill="white" stroke="#666666" points="1853,-363 1695.25,-363 1695.25,-332.5 1853,-332.5 1853,-363"/>
<text text-anchor="start" x="1703.25" y="-349.5" font-family="Helvetica,sans-Serif" font-size="10.00">sourcecode/timing/include</text>
<text text-anchor="middle" x="1774.12" y="-338.25" font-family="Helvetica,sans-Serif" font-size="10.00">/timing/MasterNodeInterface.hpp</text>
</a>
</g>
</g>
<!-- Node1&#45;&gt;Node2 -->
<g id="edge1_Node000001_Node000002" class="edge">
<title>Node1&#45;&gt;Node2</title>
<g id="a_edge1_Node000001_Node000002"><a xlink:title=" ">
<path fill="none" stroke="#63b8ff" d="M1828.5,-391.52C1816.7,-382.23 1803.23,-371.65 1792.66,-363.33"/>
<polygon fill="#63b8ff" stroke="#63b8ff" points="1826.3,-394.25 1836.33,-397.68 1830.63,-388.74 1826.3,-394.25"/>
</a>
</g>
</g>
<!-- Node34 -->
<g id="Node000034" class="node">
<title>Node34</title>
<g id="a_Node000034"><a xlink:href="VLCmdGeneratorNode_8cpp.html" target="_top" xlink:title=" ">
<polygon fill="white" stroke="#666666" points="2007.12,-363 1871.12,-363 1871.12,-332.5 2007.12,-332.5 2007.12,-363"/>
<text text-anchor="start" x="1879.12" y="-349.5" font-family="Helvetica,sans-Serif" font-size="10.00">sourcecode/timing/src</text>
<text text-anchor="middle" x="1939.12" y="-338.25" font-family="Helvetica,sans-Serif" font-size="10.00">/VLCmdGeneratorNode.cpp</text>
</a>
</g>
</g>
<!-- Node1&#45;&gt;Node34 -->
<g id="edge43_Node000001_Node000034" class="edge">
<title>Node1&#45;&gt;Node34</title>
<g id="a_edge43_Node000001_Node000034"><a xlink:title=" ">
<path fill="none" stroke="#63b8ff" d="M1883.74,-391.79C1895.77,-382.44 1909.55,-371.73 1920.37,-363.33"/>
<polygon fill="#63b8ff" stroke="#63b8ff" points="1881.9,-388.79 1876.15,-397.69 1886.2,-394.31 1881.9,-388.79"/>
</a>
</g>
</g>
<!-- Node3 -->
<g id="Node000003" class="node">
<title>Node3</title>
<g id="a_Node000003"><a xlink:href="MasterDesignInterface_8hpp.html" target="_top" xlink:title=" ">
<polygon fill="white" stroke="#666666" points="1299.38,-296.5 1134.88,-296.5 1134.88,-266 1299.38,-266 1299.38,-296.5"/>
<text text-anchor="start" x="1142.88" y="-283" font-family="Helvetica,sans-Serif" font-size="10.00">sourcecode/timing/include</text>
<text text-anchor="middle" x="1217.12" y="-271.75" font-family="Helvetica,sans-Serif" font-size="10.00">/timing/MasterDesignInterface.hpp</text>
</a>
</g>
</g>
<!-- Node2&#45;&gt;Node3 -->
<g id="edge2_Node000002_Node000003" class="edge">
<title>Node2&#45;&gt;Node3</title>
<g id="a_edge2_Node000002_Node000003"><a xlink:title=" ">
<path fill="none" stroke="#63b8ff" d="M1683.57,-336.26C1577.25,-323.95 1402.43,-303.71 1299.7,-291.81"/>
<polygon fill="#63b8ff" stroke="#63b8ff" points="1683.07,-339.73 1693.41,-337.4 1683.88,-332.78 1683.07,-339.73"/>
</a>
</g>
</g>
<!-- Node27 -->
<g id="Node000027" class="node">
<title>Node27</title>
<g id="a_Node000027"><a xlink:href="MasterNode_8hpp.html" target="_top" xlink:title=" ">
<polygon fill="white" stroke="#666666" points="1914.75,-296.5 1785.5,-296.5 1785.5,-266 1914.75,-266 1914.75,-296.5"/>
<text text-anchor="start" x="1793.5" y="-283" font-family="Helvetica,sans-Serif" font-size="10.00">sourcecode/timing/include</text>
<text text-anchor="middle" x="1850.12" y="-271.75" font-family="Helvetica,sans-Serif" font-size="10.00">/timing/MasterNode.hpp</text>
</a>
</g>
</g>
<!-- Node2&#45;&gt;Node27 -->
<g id="edge34_Node000002_Node000027" class="edge">
<title>Node2&#45;&gt;Node27</title>
<g id="a_edge34_Node000002_Node000027"><a xlink:title=" ">
<path fill="none" stroke="#63b8ff" d="M1800.06,-324.74C1810.92,-315.53 1823.24,-305.06 1832.95,-296.83"/>
<polygon fill="#63b8ff" stroke="#63b8ff" points="1797.88,-322 1792.52,-331.13 1802.41,-327.33 1797.88,-322"/>
</a>
</g>
</g>
<!-- Node31 -->
<g id="Node000031" class="node">
<title>Node31</title>
<g id="a_Node000031"><a xlink:href="PDIMasterNode_8hpp.html" target="_top" xlink:title=" ">
<polygon fill="white" stroke="#666666" points="1767.12,-296.5 1631.12,-296.5 1631.12,-266 1767.12,-266 1767.12,-296.5"/>
<text text-anchor="start" x="1639.12" y="-283" font-family="Helvetica,sans-Serif" font-size="10.00">sourcecode/timing/include</text>
<text text-anchor="middle" x="1699.12" y="-271.75" font-family="Helvetica,sans-Serif" font-size="10.00">/timing/PDIMasterNode.hpp</text>
</a>
</g>
</g>
<!-- Node2&#45;&gt;Node31 -->
<g id="edge38_Node000002_Node000031" class="edge">
<title>Node2&#45;&gt;Node31</title>
<g id="a_edge38_Node000002_Node000031"><a xlink:title=" ">
<path fill="none" stroke="#63b8ff" d="M1748.53,-324.74C1737.82,-315.53 1725.65,-305.06 1716.08,-296.83"/>
<polygon fill="#63b8ff" stroke="#63b8ff" points="1746.09,-327.26 1755.96,-331.13 1750.66,-321.95 1746.09,-327.26"/>
</a>
</g>
</g>
<!-- Node33 -->
<g id="Node000033" class="node">
<title>Node33</title>
<g id="a_Node000033"><a xlink:href="MasterNodeInterface_8cpp.html" target="_top" xlink:title=" ">
<polygon fill="white" stroke="#666666" points="2061.38,-296.5 1932.88,-296.5 1932.88,-266 2061.38,-266 2061.38,-296.5"/>
<text text-anchor="start" x="1940.88" y="-283" font-family="Helvetica,sans-Serif" font-size="10.00">sourcecode/timing/src</text>
<text text-anchor="middle" x="1997.12" y="-271.75" font-family="Helvetica,sans-Serif" font-size="10.00">/MasterNodeInterface.cpp</text>
</a>
</g>
</g>
<!-- Node2&#45;&gt;Node33 -->
<g id="edge42_Node000002_Node000033" class="edge">
<title>Node2&#45;&gt;Node33</title>
<g id="a_edge42_Node000002_Node000033"><a xlink:title=" ">
<path fill="none" stroke="#63b8ff" d="M1835.99,-328.85C1870.79,-318.79 1913.68,-306.39 1946.46,-296.9"/>
<polygon fill="#63b8ff" stroke="#63b8ff" points="1835.09,-325.47 1826.46,-331.61 1837.04,-332.2 1835.09,-325.47"/>
</a>
</g>
</g>
<!-- Node4 -->
<g id="Node000004" class="node">
<title>Node4</title>
<g id="a_Node000004"><a xlink:href="MasterDesign_8hpp.html" target="_top" xlink:title=" ">
<polygon fill="white" stroke="#666666" points="1197.75,-230 1068.5,-230 1068.5,-199.5 1197.75,-199.5 1197.75,-230"/>
<text text-anchor="start" x="1076.5" y="-216.5" font-family="Helvetica,sans-Serif" font-size="10.00">sourcecode/timing/include</text>
<text text-anchor="middle" x="1133.12" y="-205.25" font-family="Helvetica,sans-Serif" font-size="10.00">/timing/MasterDesign.hpp</text>
</a>
</g>
</g>
<!-- Node3&#45;&gt;Node4 -->
<g id="edge3_Node000003_Node000004" class="edge">
<title>Node3&#45;&gt;Node4</title>
<g id="a_edge3_Node000003_Node000004"><a xlink:title=" ">
<path fill="none" stroke="#63b8ff" d="M1189.18,-258.79C1177.01,-249.44 1163.05,-238.73 1152.11,-230.33"/>
<polygon fill="#63b8ff" stroke="#63b8ff" points="1186.8,-261.38 1196.86,-264.69 1191.06,-255.83 1186.8,-261.38"/>
</a>
</g>
</g>
<!-- Node24 -->
<g id="Node000024" class="node">
<title>Node24</title>
<g id="a_Node000024"><a xlink:href="OverlordDesignInterface_8hpp.html" target="_top" xlink:title=" ">
<polygon fill="white" stroke="#666666" points="1445.75,-230 1274.5,-230 1274.5,-199.5 1445.75,-199.5 1445.75,-230"/>
<text text-anchor="start" x="1282.5" y="-216.5" font-family="Helvetica,sans-Serif" font-size="10.00">sourcecode/timing/include</text>
<text text-anchor="middle" x="1360.12" y="-205.25" font-family="Helvetica,sans-Serif" font-size="10.00">/timing/OverlordDesignInterface.hpp</text>
</a>
</g>
</g>
<!-- Node3&#45;&gt;Node24 -->
<g id="edge29_Node000003_Node000024" class="edge">
<title>Node3&#45;&gt;Node24</title>
<g id="a_edge29_Node000003_Node000024"><a xlink:title=" ">
<path fill="none" stroke="#63b8ff" d="M1259.88,-260.97C1281.66,-251.14 1307.72,-239.39 1327.8,-230.33"/>
<polygon fill="#63b8ff" stroke="#63b8ff" points="1258.63,-257.69 1250.95,-264.99 1261.51,-264.07 1258.63,-257.69"/>
</a>
</g>
</g>
<!-- Node26 -->
<g id="Node000026" class="node">
<title>Node26</title>
<g id="a_Node000026"><a xlink:href="TimingHardwareManager_8hpp.html" target="_top" xlink:title=" ">
<polygon fill="white" stroke="#666666" points="380.25,-163.5 218,-163.5 218,-133 380.25,-133 380.25,-163.5"/>
<text text-anchor="start" x="226" y="-150" font-family="Helvetica,sans-Serif" font-size="10.00">sourcecode/timinglibs</text>
<text text-anchor="middle" x="299.12" y="-138.75" font-family="Helvetica,sans-Serif" font-size="10.00">/src/TimingHardwareManager.hpp</text>
</a>
</g>
</g>
<!-- Node3&#45;&gt;Node26 -->
<g id="edge32_Node000003_Node000026" class="edge">
<title>Node3&#45;&gt;Node26</title>
<g id="a_edge32_Node000003_Node000026"><a xlink:title=" ">
<path fill="none" stroke="#63b8ff" d="M1123.13,-266.84C942.67,-241.08 550.49,-185.12 380.47,-160.86"/>
<polygon fill="#63b8ff" stroke="#63b8ff" points="1122.55,-270.29 1132.95,-268.24 1123.54,-263.36 1122.55,-270.29"/>
</a>
</g>
</g>
<!-- Node5 -->
<g id="Node000005" class="node">
<title>Node5</title>
<g id="a_Node000005"><a xlink:href="BoreasDesign_8hpp.html" target="_top" xlink:title=" ">
<polygon fill="white" stroke="#666666" points="985.75,-163.5 856.5,-163.5 856.5,-133 985.75,-133 985.75,-163.5"/>
<text text-anchor="start" x="864.5" y="-150" font-family="Helvetica,sans-Serif" font-size="10.00">sourcecode/timing/include</text>
<text text-anchor="middle" x="921.12" y="-138.75" font-family="Helvetica,sans-Serif" font-size="10.00">/timing/BoreasDesign.hpp</text>
</a>
</g>
</g>
<!-- Node4&#45;&gt;Node5 -->
<g id="edge4_Node000004_Node000005" class="edge">
<title>Node4&#45;&gt;Node5</title>
<g id="a_edge4_Node000004_Node000005"><a xlink:title=" ">
<path fill="none" stroke="#63b8ff" d="M1073.88,-195.72C1040.88,-185.68 1000.32,-173.34 969.29,-163.9"/>
<polygon fill="#63b8ff" stroke="#63b8ff" points="1072.72,-199.03 1083.31,-198.59 1074.76,-192.33 1072.72,-199.03"/>
</a>
</g>
</g>
<!-- Node8 -->
<g id="Node000008" class="node">
<title>Node8</title>
<g id="a_Node000008"><a xlink:href="MasterMuxDesign_8hpp.html" target="_top" xlink:title=" ">
<polygon fill="white" stroke="#666666" points="667.25,-163.5 523,-163.5 523,-133 667.25,-133 667.25,-163.5"/>
<text text-anchor="start" x="531" y="-150" font-family="Helvetica,sans-Serif" font-size="10.00">sourcecode/timing/include</text>
<text text-anchor="middle" x="595.12" y="-138.75" font-family="Helvetica,sans-Serif" font-size="10.00">/timing/MasterMuxDesign.hpp</text>
</a>
</g>
</g>
<!-- Node4&#45;&gt;Node8 -->
<g id="edge7_Node000004_Node000008" class="edge">
<title>Node4&#45;&gt;Node8</title>
<g id="a_edge7_Node000004_Node000008"><a xlink:title=" ">
<path fill="none" stroke="#63b8ff" d="M1056.92,-204.61C953.28,-192.19 769.18,-170.12 667.54,-157.93"/>
<polygon fill="#63b8ff" stroke="#63b8ff" points="1056.38,-208.07 1066.73,-205.79 1057.21,-201.12 1056.38,-208.07"/>
</a>
</g>
</g>
<!-- Node19 -->
<g id="Node000019" class="node">
<title>Node19</title>
<g id="a_Node000019"><a xlink:href="OuroborosDesign_8hpp.html" target="_top" xlink:title=" ">
<polygon fill="white" stroke="#666666" points="1144.75,-163.5 1003.5,-163.5 1003.5,-133 1144.75,-133 1144.75,-163.5"/>
<text text-anchor="start" x="1011.5" y="-150" font-family="Helvetica,sans-Serif" font-size="10.00">sourcecode/timing/include</text>
<text text-anchor="middle" x="1074.12" y="-138.75" font-family="Helvetica,sans-Serif" font-size="10.00">/timing/OuroborosDesign.hpp</text>
</a>
</g>
</g>
<!-- Node4&#45;&gt;Node19 -->
<g id="edge22_Node000004_Node000019" class="edge">
<title>Node4&#45;&gt;Node19</title>
<g id="a_edge22_Node000004_Node000019"><a xlink:title=" ">
<path fill="none" stroke="#63b8ff" d="M1111.98,-190.63C1103.8,-181.69 1094.69,-171.74 1087.46,-163.83"/>
<polygon fill="#63b8ff" stroke="#63b8ff" points="1109.38,-192.98 1118.72,-198 1114.55,-188.26 1109.38,-192.98"/>
</a>
</g>
</g>
<!-- Node21 -->
<g id="Node000021" class="node">
<title>Node21</title>
<g id="a_Node000021"><a xlink:href="OverlordDesign_8hpp.html" target="_top" xlink:title=" ">
<polygon fill="white" stroke="#666666" points="1426.62,-163.5 1293.62,-163.5 1293.62,-133 1426.62,-133 1426.62,-163.5"/>
<text text-anchor="start" x="1301.62" y="-150" font-family="Helvetica,sans-Serif" font-size="10.00">sourcecode/timing/include</text>
<text text-anchor="middle" x="1360.12" y="-138.75" font-family="Helvetica,sans-Serif" font-size="10.00">/timing/OverlordDesign.hpp</text>
</a>
</g>
</g>
<!-- Node4&#45;&gt;Node21 -->
<g id="edge25_Node000004_Node000021" class="edge">
<title>Node4&#45;&gt;Node21</title>
<g id="a_edge25_Node000004_Node000021"><a xlink:title=" ">
<path fill="none" stroke="#63b8ff" d="M1195.65,-195.99C1231.14,-185.9 1275.04,-173.43 1308.55,-163.9"/>
<polygon fill="#63b8ff" stroke="#63b8ff" points="1195.04,-192.52 1186.37,-198.62 1196.95,-199.25 1195.04,-192.52"/>
</a>
</g>
</g>
<!-- Node23 -->
<g id="Node000023" class="node">
<title>Node23</title>
<g id="a_Node000023"><a xlink:href="MasterDesign_8cpp.html" target="_top" xlink:title=" ">
<polygon fill="white" stroke="#666666" points="1275.12,-163.5 1163.12,-163.5 1163.12,-133 1275.12,-133 1275.12,-163.5"/>
<text text-anchor="start" x="1171.12" y="-150" font-family="Helvetica,sans-Serif" font-size="10.00">sourcecode/timing/src</text>
<text text-anchor="middle" x="1219.12" y="-138.75" font-family="Helvetica,sans-Serif" font-size="10.00">/MasterDesign.cpp</text>
</a>
</g>
</g>
<!-- Node4&#45;&gt;Node23 -->
<g id="edge28_Node000004_Node000023" class="edge">
<title>Node4&#45;&gt;Node23</title>
<g id="a_edge28_Node000004_Node000023"><a xlink:title=" ">
<path fill="none" stroke="#63b8ff" d="M1161.73,-192.29C1174.2,-182.94 1188.49,-172.23 1199.69,-163.83"/>
<polygon fill="#63b8ff" stroke="#63b8ff" points="1159.75,-189.41 1153.85,-198.21 1163.95,-195.01 1159.75,-189.41"/>
</a>
</g>
</g>
<!-- Node6 -->
<g id="Node000006" class="node">
<title>Node6</title>
<g id="a_Node000006"><a xlink:href="top__designs_8cpp.html" target="_top" xlink:title=" ">
<polygon fill="white" stroke="#666666" points="955,-30.5 815.25,-30.5 815.25,0 955,0 955,-30.5"/>
<text text-anchor="start" x="823.25" y="-17" font-family="Helvetica,sans-Serif" font-size="10.00">sourcecode/timing/pybindsrc</text>
<text text-anchor="middle" x="885.12" y="-5.75" font-family="Helvetica,sans-Serif" font-size="10.00">/top_designs.cpp</text>
</a>
</g>
</g>
<!-- Node5&#45;&gt;Node6 -->
<g id="edge5_Node000005_Node000006" class="edge">
<title>Node5&#45;&gt;Node6</title>
<g id="a_edge5_Node000005_Node000006"><a xlink:title=" ">
<path fill="none" stroke="#63b8ff" d="M982.58,-127.58C996.27,-120.21 1009.09,-110.27 1017.12,-97 1024.14,-85.4 1024.82,-77.66 1017.12,-66.5 1002.86,-45.81 978.86,-33.63 955.2,-26.46"/>
<polygon fill="#63b8ff" stroke="#63b8ff" points="981.31,-124.3 973.87,-131.84 984.39,-130.59 981.31,-124.3"/>
</a>
</g>
</g>
<!-- Node7 -->
<g id="Node000007" class="node">
<title>Node7</title>
<g id="a_Node000007"><a xlink:href="BoreasDesign_8cpp.html" target="_top" xlink:title=" ">
<polygon fill="white" stroke="#666666" points="1008.12,-97 896.12,-97 896.12,-66.5 1008.12,-66.5 1008.12,-97"/>
<text text-anchor="start" x="904.12" y="-83.5" font-family="Helvetica,sans-Serif" font-size="10.00">sourcecode/timing/src</text>
<text text-anchor="middle" x="952.12" y="-72.25" font-family="Helvetica,sans-Serif" font-size="10.00">/BoreasDesign.cpp</text>
</a>
</g>
</g>
<!-- Node5&#45;&gt;Node7 -->
<g id="edge6_Node000005_Node000007" class="edge">
<title>Node5&#45;&gt;Node7</title>
<g id="a_edge6_Node000005_Node000007"><a xlink:title=" ">
<path fill="none" stroke="#63b8ff" d="M933.05,-122.44C937.13,-113.96 941.56,-104.74 945.12,-97.33"/>
<polygon fill="#63b8ff" stroke="#63b8ff" points="929.99,-120.72 928.82,-131.25 936.3,-123.75 929.99,-120.72"/>
</a>
</g>
</g>
<!-- Node9 -->
<g id="Node000009" class="node">
<title>Node9</title>
<g id="a_Node000009"><a xlink:href="FanoutDesign_8hpp.html" target="_top" xlink:title=" ">
<polygon fill="white" stroke="#666666" points="267.75,-97 138.5,-97 138.5,-66.5 267.75,-66.5 267.75,-97"/>
<text text-anchor="start" x="146.5" y="-83.5" font-family="Helvetica,sans-Serif" font-size="10.00">sourcecode/timing/include</text>
<text text-anchor="middle" x="203.12" y="-72.25" font-family="Helvetica,sans-Serif" font-size="10.00">/timing/FanoutDesign.hpp</text>
</a>
</g>
</g>
<!-- Node8&#45;&gt;Node9 -->
<g id="edge8_Node000008_Node000009" class="edge">
<title>Node8&#45;&gt;Node9</title>
<g id="a_edge8_Node000008_Node000009"><a xlink:title=" ">
<path fill="none" stroke="#63b8ff" d="M511.48,-134.93C447.05,-125.23 355.82,-111.05 276.12,-97 273.45,-96.53 270.73,-96.04 267.98,-95.54"/>
<polygon fill="#63b8ff" stroke="#63b8ff" points="510.88,-138.38 521.29,-136.4 511.92,-131.45 510.88,-138.38"/>
</a>
</g>
</g>
<!-- Node12 -->
<g id="Node000012" class="node">
<title>Node12</title>
<g id="a_Node000012"><a xlink:href="GaiaDesign_8hpp.html" target="_top" xlink:title=" ">
<polygon fill="white" stroke="#666666" points="877.75,-97 748.5,-97 748.5,-66.5 877.75,-66.5 877.75,-97"/>
<text text-anchor="start" x="756.5" y="-83.5" font-family="Helvetica,sans-Serif" font-size="10.00">sourcecode/timing/include</text>
<text text-anchor="middle" x="813.12" y="-72.25" font-family="Helvetica,sans-Serif" font-size="10.00">/timing/GaiaDesign.hpp</text>
</a>
</g>
</g>
<!-- Node8&#45;&gt;Node12 -->
<g id="edge12_Node000008_Node000012" class="edge">
<title>Node8&#45;&gt;Node12</title>
<g id="a_edge12_Node000008_Node000012"><a xlink:title=" ">
<path fill="none" stroke="#63b8ff" d="M655.61,-129.35C689.62,-119.29 731.55,-106.89 763.6,-97.4"/>
<polygon fill="#63b8ff" stroke="#63b8ff" points="654.91,-125.91 646.32,-132.1 656.9,-132.62 654.91,-125.91"/>
</a>
</g>
</g>
<!-- Node14 -->
<g id="Node000014" class="node">
<title>Node14</title>
<g id="a_Node000014"><a xlink:href="KerberosDesign_8hpp.html" target="_top" xlink:title=" ">
<polygon fill="white" stroke="#666666" points="420.75,-97 285.5,-97 285.5,-66.5 420.75,-66.5 420.75,-97"/>
<text text-anchor="start" x="293.5" y="-83.5" font-family="Helvetica,sans-Serif" font-size="10.00">sourcecode/timing/include</text>
<text text-anchor="middle" x="353.12" y="-72.25" font-family="Helvetica,sans-Serif" font-size="10.00">/timing/KerberosDesign.hpp</text>
</a>
</g>
</g>
<!-- Node8&#45;&gt;Node14 -->
<g id="edge15_Node000008_Node000014" class="edge">
<title>Node8&#45;&gt;Node14</title>
<g id="a_edge15_Node000008_Node000014"><a xlink:title=" ">
<path fill="none" stroke="#63b8ff" d="M528.96,-129.62C491.03,-119.51 443.99,-106.97 408.1,-97.4"/>
<polygon fill="#63b8ff" stroke="#63b8ff" points="527.88,-132.95 538.45,-132.14 529.68,-126.19 527.88,-132.95"/>
</a>
</g>
</g>
<!-- Node16 -->
<g id="Node000016" class="node">
<title>Node16</title>
<g id="a_Node000016"><a xlink:href="OuroborosMuxDesign_8hpp.html" target="_top" xlink:title=" ">
<polygon fill="white" stroke="#666666" points="597.75,-97 438.5,-97 438.5,-66.5 597.75,-66.5 597.75,-97"/>
<text text-anchor="start" x="446.5" y="-83.5" font-family="Helvetica,sans-Serif" font-size="10.00">sourcecode/timing/include</text>
<text text-anchor="middle" x="518.12" y="-72.25" font-family="Helvetica,sans-Serif" font-size="10.00">/timing/OuroborosMuxDesign.hpp</text>
</a>
</g>
</g>
<!-- Node8&#45;&gt;Node16 -->
<g id="edge18_Node000008_Node000016" class="edge">
<title>Node8&#45;&gt;Node16</title>
<g id="a_edge18_Node000008_Node000016"><a xlink:title=" ">
<path fill="none" stroke="#63b8ff" d="M568.85,-125.24C557.85,-116.03 545.36,-105.56 535.53,-97.33"/>
<polygon fill="#63b8ff" stroke="#63b8ff" points="566.58,-127.9 576.49,-131.64 571.07,-122.54 566.58,-127.9"/>
</a>
</g>
</g>
<!-- Node18 -->
<g id="Node000018" class="node">
<title>Node18</title>
<g id="a_Node000018"><a xlink:href="MasterMuxDesign_8cpp.html" target="_top" xlink:title=" ">
<polygon fill="white" stroke="#666666" points="730.62,-97 615.62,-97 615.62,-66.5 730.62,-66.5 730.62,-97"/>
<text text-anchor="start" x="623.62" y="-83.5" font-family="Helvetica,sans-Serif" font-size="10.00">sourcecode/timing/src</text>
<text text-anchor="middle" x="673.12" y="-72.25" font-family="Helvetica,sans-Serif" font-size="10.00">/MasterMuxDesign.cpp</text>
</a>
</g>
</g>
<!-- Node8&#45;&gt;Node18 -->
<g id="edge21_Node000008_Node000018" class="edge">
<title>Node8&#45;&gt;Node18</title>
<g id="a_edge21_Node000008_Node000018"><a xlink:title=" ">
<path fill="none" stroke="#63b8ff" d="M621.41,-125.52C632.63,-116.23 645.44,-105.65 655.5,-97.33"/>
<polygon fill="#63b8ff" stroke="#63b8ff" points="619.47,-122.58 613.99,-131.65 623.93,-127.97 619.47,-122.58"/>
</a>
</g>
</g>
<!-- Node9&#45;&gt;Node6 -->
<g id="edge9_Node000009_Node000006" class="edge">
<title>Node9&#45;&gt;Node6</title>
<g id="a_edge9_Node000009_Node000006"><a xlink:title=" ">
<path fill="none" stroke="#63b8ff" d="M279.16,-66.21C512.19,-36.55 575.48,-59.05 806.12,-30.5 809.03,-30.14 811.99,-29.74 814.98,-29.32"/>
<polygon fill="#63b8ff" stroke="#63b8ff" points="278.9,-62.71 269.44,-67.47 279.8,-69.66 278.9,-62.71"/>
</a>
</g>
</g>
<!-- Node10 -->
<g id="Node000010" class="node">
<title>Node10</title>
<g id="a_Node000010"><a xlink:href="FanoutDesign_8cpp.html" target="_top" xlink:title=" ">
<polygon fill="white" stroke="#666666" points="292.12,-30.5 180.12,-30.5 180.12,0 292.12,0 292.12,-30.5"/>
<text text-anchor="start" x="188.12" y="-17" font-family="Helvetica,sans-Serif" font-size="10.00">sourcecode/timing/src</text>
<text text-anchor="middle" x="236.12" y="-5.75" font-family="Helvetica,sans-Serif" font-size="10.00">/FanoutDesign.cpp</text>
</a>
</g>
</g>
<!-- Node9&#45;&gt;Node10 -->
<g id="edge10_Node000009_Node000010" class="edge">
<title>Node9&#45;&gt;Node10</title>
<g id="a_edge10_Node000009_Node000010"><a xlink:title=" ">
<path fill="none" stroke="#63b8ff" d="M215.82,-55.94C220.16,-47.46 224.87,-38.24 228.67,-30.83"/>
<polygon fill="#63b8ff" stroke="#63b8ff" points="212.74,-54.27 211.3,-64.77 218.97,-57.46 212.74,-54.27"/>
</a>
</g>
</g>
<!-- Node11 -->
<g id="Node000011" class="node">
<title>Node11</title>
<g id="a_Node000011"><a xlink:href="TimingHardwareManager_8cpp.html" target="_top" xlink:title=" ">
<polygon fill="white" stroke="#666666" points="162.25,-30.5 0,-30.5 0,0 162.25,0 162.25,-30.5"/>
<text text-anchor="start" x="8" y="-17" font-family="Helvetica,sans-Serif" font-size="10.00">sourcecode/timinglibs</text>
<text text-anchor="middle" x="81.12" y="-5.75" font-family="Helvetica,sans-Serif" font-size="10.00">/src/TimingHardwareManager.cpp</text>
</a>
</g>
</g>
<!-- Node9&#45;&gt;Node11 -->
<g id="edge11_Node000009_Node000011" class="edge">
<title>Node9&#45;&gt;Node11</title>
<g id="a_edge11_Node000009_Node000011"><a xlink:title=" ">
<path fill="none" stroke="#63b8ff" d="M165.38,-60.79C147.06,-51.11 125.45,-39.68 108.7,-30.83"/>
<polygon fill="#63b8ff" stroke="#63b8ff" points="163.63,-63.83 174.1,-65.41 166.9,-57.64 163.63,-63.83"/>
</a>
</g>
</g>
<!-- Node12&#45;&gt;Node6 -->
<g id="edge13_Node000012_Node000006" class="edge">
<title>Node12&#45;&gt;Node6</title>
<g id="a_edge13_Node000012_Node000006"><a xlink:title=" ">
<path fill="none" stroke="#63b8ff" d="M838,-58.46C848.21,-49.32 859.75,-38.98 868.85,-30.83"/>
<polygon fill="#63b8ff" stroke="#63b8ff" points="835.7,-55.82 830.59,-65.1 840.37,-61.04 835.7,-55.82"/>
</a>
</g>
</g>
<!-- Node13 -->
<g id="Node000013" class="node">
<title>Node13</title>
<g id="a_Node000013"><a xlink:href="GaiaDesign_8cpp.html" target="_top" xlink:title=" ">
<polygon fill="white" stroke="#666666" points="797.12,-30.5 685.12,-30.5 685.12,0 797.12,0 797.12,-30.5"/>
<text text-anchor="start" x="693.12" y="-17" font-family="Helvetica,sans-Serif" font-size="10.00">sourcecode/timing/src</text>
<text text-anchor="middle" x="741.12" y="-5.75" font-family="Helvetica,sans-Serif" font-size="10.00">/GaiaDesign.cpp</text>
</a>
</g>
</g>
<!-- Node12&#45;&gt;Node13 -->
<g id="edge14_Node000012_Node000013" class="edge">
<title>Node12&#45;&gt;Node13</title>
<g id="a_edge14_Node000012_Node000013"><a xlink:title=" ">
<path fill="none" stroke="#63b8ff" d="M788.25,-58.46C778.04,-49.32 766.5,-38.98 757.4,-30.83"/>
<polygon fill="#63b8ff" stroke="#63b8ff" points="785.88,-61.04 795.66,-65.1 790.55,-55.82 785.88,-61.04"/>
</a>
</g>
</g>
<!-- Node14&#45;&gt;Node6 -->
<g id="edge16_Node000014_Node000006" class="edge">
<title>Node14&#45;&gt;Node6</title>
<g id="a_edge16_Node000014_Node000006"><a xlink:title=" ">
<path fill="none" stroke="#63b8ff" d="M432.11,-66.16C597.72,-43.4 642.96,-52.97 806.12,-30.5 809.02,-30.1 811.98,-29.67 814.96,-29.22"/>
<polygon fill="#63b8ff" stroke="#63b8ff" points="431.95,-62.65 422.53,-67.5 432.91,-69.58 431.95,-62.65"/>
</a>
</g>
</g>
<!-- Node15 -->
<g id="Node000015" class="node">
<title>Node15</title>
<g id="a_Node000015"><a xlink:href="KerberosDesign_8cpp.html" target="_top" xlink:title=" ">
<polygon fill="white" stroke="#666666" points="422.12,-30.5 310.12,-30.5 310.12,0 422.12,0 422.12,-30.5"/>
<text text-anchor="start" x="318.12" y="-17" font-family="Helvetica,sans-Serif" font-size="10.00">sourcecode/timing/src</text>
<text text-anchor="middle" x="366.12" y="-5.75" font-family="Helvetica,sans-Serif" font-size="10.00">/KerberosDesign.cpp</text>
</a>
</g>
</g>
<!-- Node14&#45;&gt;Node15 -->
<g id="edge17_Node000014_Node000015" class="edge">
<title>Node14&#45;&gt;Node15</title>
<g id="a_edge17_Node000014_Node000015"><a xlink:title=" ">
<path fill="none" stroke="#63b8ff" d="M358.3,-55.09C359.96,-46.84 361.74,-37.99 363.19,-30.83"/>
<polygon fill="#63b8ff" stroke="#63b8ff" points="354.92,-54.14 356.37,-64.63 361.78,-55.52 354.92,-54.14"/>
</a>
</g>
</g>
<!-- Node16&#45;&gt;Node6 -->
<g id="edge19_Node000016_Node000006" class="edge">
<title>Node16&#45;&gt;Node6</title>
<g id="a_edge19_Node000016_Node000006"><a xlink:title=" ">
<path fill="none" stroke="#63b8ff" d="M609.31,-64.98C665.97,-55.14 740.3,-42.18 806.12,-30.5 809.01,-29.99 811.95,-29.47 814.92,-28.94"/>
<polygon fill="#63b8ff" stroke="#63b8ff" points="608.97,-61.48 599.71,-66.64 610.16,-68.38 608.97,-61.48"/>
</a>
</g>
</g>
<!-- Node17 -->
<g id="Node000017" class="node">
<title>Node17</title>
<g id="a_Node000017"><a xlink:href="OuroborosMuxDesign_8cpp.html" target="_top" xlink:title=" ">
<polygon fill="white" stroke="#666666" points="583.12,-30.5 453.12,-30.5 453.12,0 583.12,0 583.12,-30.5"/>
<text text-anchor="start" x="461.12" y="-17" font-family="Helvetica,sans-Serif" font-size="10.00">sourcecode/timing/src</text>
<text text-anchor="middle" x="518.12" y="-5.75" font-family="Helvetica,sans-Serif" font-size="10.00">/OuroborosMuxDesign.cpp</text>
</a>
</g>
</g>
<!-- Node16&#45;&gt;Node17 -->
<g id="edge20_Node000016_Node000017" class="edge">
<title>Node16&#45;&gt;Node17</title>
<g id="a_edge20_Node000016_Node000017"><a xlink:title=" ">
<path fill="none" stroke="#63b8ff" d="M518.12,-54.81C518.12,-46.64 518.12,-37.91 518.12,-30.83"/>
<polygon fill="#63b8ff" stroke="#63b8ff" points="514.63,-54.6 518.13,-64.6 521.63,-54.6 514.63,-54.6"/>
</a>
</g>
</g>
<!-- Node19&#45;&gt;Node6 -->
<g id="edge23_Node000019_Node000006" class="edge">
<title>Node19&#45;&gt;Node6</title>
<g id="a_edge23_Node000019_Node000006"><a xlink:title=" ">
<path fill="none" stroke="#63b8ff" d="M1067.23,-121.83C1061.2,-104.07 1050.75,-81.02 1034.12,-66.5 1012.13,-47.28 982.49,-35.35 955.44,-27.97"/>
<polygon fill="#63b8ff" stroke="#63b8ff" points="1063.82,-122.64 1070.13,-131.15 1070.5,-120.56 1063.82,-122.64"/>
</a>
</g>
</g>
<!-- Node20 -->
<g id="Node000020" class="node">
<title>Node20</title>
<g id="a_Node000020"><a xlink:href="OuroborosDesign_8cpp.html" target="_top" xlink:title=" ">
<polygon fill="white" stroke="#666666" points="1214.12,-97 1102.12,-97 1102.12,-66.5 1214.12,-66.5 1214.12,-97"/>
<text text-anchor="start" x="1110.12" y="-83.5" font-family="Helvetica,sans-Serif" font-size="10.00">sourcecode/timing/src</text>
<text text-anchor="middle" x="1158.12" y="-72.25" font-family="Helvetica,sans-Serif" font-size="10.00">/OuroborosDesign.cpp</text>
</a>
</g>
</g>
<!-- Node19&#45;&gt;Node20 -->
<g id="edge24_Node000019_Node000020" class="edge">
<title>Node19&#45;&gt;Node20</title>
<g id="a_edge24_Node000019_Node000020"><a xlink:title=" ">
<path fill="none" stroke="#63b8ff" d="M1102.07,-125.79C1114.24,-116.44 1128.2,-105.73 1139.14,-97.33"/>
<polygon fill="#63b8ff" stroke="#63b8ff" points="1100.19,-122.83 1094.39,-131.69 1104.45,-128.38 1100.19,-122.83"/>
</a>
</g>
</g>
<!-- Node21&#45;&gt;Node6 -->
<g id="edge26_Node000021_Node000006" class="edge">
<title>Node21&#45;&gt;Node6</title>
<g id="a_edge26_Node000021_Node000006"><a xlink:title=" ">
<path fill="none" stroke="#63b8ff" d="M1331.8,-126.11C1305.16,-107.36 1263.46,-80.77 1223.12,-66.5 1134.06,-34.99 1025.01,-23.23 955.3,-18.85"/>
<polygon fill="#63b8ff" stroke="#63b8ff" points="1329.5,-128.77 1339.67,-131.75 1333.58,-123.08 1329.5,-128.77"/>
</a>
</g>
</g>
<!-- Node22 -->
<g id="Node000022" class="node">
<title>Node22</title>
<g id="a_Node000022"><a xlink:href="OverlordDesign_8cpp.html" target="_top" xlink:title=" ">
<polygon fill="white" stroke="#666666" points="1556.12,-97 1444.12,-97 1444.12,-66.5 1556.12,-66.5 1556.12,-97"/>
<text text-anchor="start" x="1452.12" y="-83.5" font-family="Helvetica,sans-Serif" font-size="10.00">sourcecode/timing/src</text>
<text text-anchor="middle" x="1500.12" y="-72.25" font-family="Helvetica,sans-Serif" font-size="10.00">/OverlordDesign.cpp</text>
</a>
</g>
</g>
<!-- Node21&#45;&gt;Node22 -->
<g id="edge27_Node000021_Node000022" class="edge">
<title>Node21&#45;&gt;Node22</title>
<g id="a_edge27_Node000021_Node000022"><a xlink:title=" ">
<path fill="none" stroke="#63b8ff" d="M1402.27,-127.83C1423.54,-118.03 1448.91,-106.35 1468.48,-97.33"/>
<polygon fill="#63b8ff" stroke="#63b8ff" points="1400.89,-124.62 1393.27,-131.98 1403.81,-130.98 1400.89,-124.62"/>
</a>
</g>
</g>
<!-- Node24&#45;&gt;Node21 -->
<g id="edge30_Node000024_Node000021" class="edge">
<title>Node24&#45;&gt;Node21</title>
<g id="a_edge30_Node000024_Node000021"><a xlink:title=" ">
<path fill="none" stroke="#63b8ff" d="M1360.12,-187.81C1360.12,-179.64 1360.12,-170.91 1360.12,-163.83"/>
<polygon fill="#63b8ff" stroke="#63b8ff" points="1356.63,-187.6 1360.13,-197.6 1363.63,-187.6 1356.63,-187.6"/>
</a>
</g>
</g>
<!-- Node25 -->
<g id="Node000025" class="node">
<title>Node25</title>
<g id="a_Node000025"><a xlink:href="OverlordDesignInterface_8cpp.html" target="_top" xlink:title=" ">
<polygon fill="white" stroke="#666666" points="1587.12,-163.5 1445.12,-163.5 1445.12,-133 1587.12,-133 1587.12,-163.5"/>
<text text-anchor="start" x="1453.12" y="-150" font-family="Helvetica,sans-Serif" font-size="10.00">sourcecode/timing/src</text>
<text text-anchor="middle" x="1516.12" y="-138.75" font-family="Helvetica,sans-Serif" font-size="10.00">/OverlordDesignInterface.cpp</text>
</a>
</g>
</g>
<!-- Node24&#45;&gt;Node25 -->
<g id="edge31_Node000024_Node000025" class="edge">
<title>Node24&#45;&gt;Node25</title>
<g id="a_edge31_Node000024_Node000025"><a xlink:title=" ">
<path fill="none" stroke="#63b8ff" d="M1406.08,-194.75C1429.89,-184.91 1458.51,-173.07 1480.6,-163.94"/>
<polygon fill="#63b8ff" stroke="#63b8ff" points="1404.83,-191.48 1396.92,-198.54 1407.5,-197.95 1404.83,-191.48"/>
</a>
</g>
</g>
<!-- Node26&#45;&gt;Node11 -->
<g id="edge33_Node000026_Node000011" class="edge">
<title>Node26&#45;&gt;Node11</title>
<g id="a_edge33_Node000026_Node000011"><a xlink:title=" ">
<path fill="none" stroke="#63b8ff" d="M206.59,-133.17C179.62,-125.72 151.44,-114.35 129.12,-97 106.85,-79.68 92.76,-48.89 85.97,-30.75"/>
<polygon fill="#63b8ff" stroke="#63b8ff" points="205.63,-136.53 216.19,-135.65 207.38,-129.76 205.63,-136.53"/>
</a>
</g>
</g>
<!-- Node28 -->
<g id="Node000028" class="node">
<title>Node28</title>
<g id="a_Node000028"><a xlink:href="definitions_8cpp.html" target="_top" xlink:title=" ">
<polygon fill="white" stroke="#666666" points="2071,-230 1931.25,-230 1931.25,-199.5 2071,-199.5 2071,-230"/>
<text text-anchor="start" x="1939.25" y="-216.5" font-family="Helvetica,sans-Serif" font-size="10.00">sourcecode/timing/pybindsrc</text>
<text text-anchor="middle" x="2001.12" y="-205.25" font-family="Helvetica,sans-Serif" font-size="10.00">/definitions.cpp</text>
</a>
</g>
</g>
<!-- Node27&#45;&gt;Node28 -->
<g id="edge35_Node000027_Node000028" class="edge">
<title>Node27&#45;&gt;Node28</title>
<g id="a_edge35_Node000027_Node000028"><a xlink:title=" ">
<path fill="none" stroke="#63b8ff" d="M1894.92,-261.12C1917.9,-251.3 1945.45,-239.53 1966.74,-230.44"/>
<polygon fill="#63b8ff" stroke="#63b8ff" points="1893.6,-257.87 1885.78,-265.02 1896.35,-264.31 1893.6,-257.87"/>
</a>
</g>
</g>
<!-- Node29 -->
<g id="Node000029" class="node">
<title>Node29</title>
<g id="a_Node000029"><a xlink:href="master_8cpp.html" target="_top" xlink:title=" ">
<polygon fill="white" stroke="#666666" points="1913,-230 1773.25,-230 1773.25,-199.5 1913,-199.5 1913,-230"/>
<text text-anchor="start" x="1781.25" y="-216.5" font-family="Helvetica,sans-Serif" font-size="10.00">sourcecode/timing/pybindsrc</text>
<text text-anchor="middle" x="1843.12" y="-205.25" font-family="Helvetica,sans-Serif" font-size="10.00">/master.cpp</text>
</a>
</g>
</g>
<!-- Node27&#45;&gt;Node29 -->
<g id="edge36_Node000027_Node000029" class="edge">
<title>Node27&#45;&gt;Node29</title>
<g id="a_edge36_Node000027_Node000029"><a xlink:title=" ">
<path fill="none" stroke="#63b8ff" d="M1847.31,-254.31C1846.42,-246.14 1845.48,-237.41 1844.71,-230.33"/>
<polygon fill="#63b8ff" stroke="#63b8ff" points="1843.81,-254.55 1848.37,-264.11 1850.77,-253.79 1843.81,-254.55"/>
</a>
</g>
</g>
<!-- Node30 -->
<g id="Node000030" class="node">
<title>Node30</title>
<g id="a_Node000030"><a xlink:href="MasterNode_8cpp.html" target="_top" xlink:title=" ">
<polygon fill="white" stroke="#666666" points="2201.12,-230 2089.12,-230 2089.12,-199.5 2201.12,-199.5 2201.12,-230"/>
<text text-anchor="start" x="2097.12" y="-216.5" font-family="Helvetica,sans-Serif" font-size="10.00">sourcecode/timing/src</text>
<text text-anchor="middle" x="2145.12" y="-205.25" font-family="Helvetica,sans-Serif" font-size="10.00">/MasterNode.cpp</text>
</a>
</g>
</g>
<!-- Node27&#45;&gt;Node30 -->
<g id="edge37_Node000027_Node000030" class="edge">
<title>Node27&#45;&gt;Node30</title>
<g id="a_edge37_Node000027_Node000030"><a xlink:title=" ">
<path fill="none" stroke="#63b8ff" d="M1926.16,-263.65C1970.98,-253.87 2028.78,-241.24 2080.12,-230 2082.95,-229.38 2085.84,-228.75 2088.76,-228.11"/>
<polygon fill="#63b8ff" stroke="#63b8ff" points="1925.57,-260.2 1916.54,-265.75 1927.06,-267.04 1925.57,-260.2"/>
</a>
</g>
</g>
<!-- Node31&#45;&gt;Node22 -->
<g id="edge40_Node000031_Node000022" class="edge">
<title>Node31&#45;&gt;Node22</title>
<g id="a_edge40_Node000031_Node000022"><a xlink:title=" ">
<path fill="none" stroke="#63b8ff" d="M1664.8,-259.1C1653.87,-251.06 1642.46,-241.12 1634.12,-230 1606.36,-192.95 1627.04,-167.47 1596.12,-133 1581.93,-117.17 1561.57,-105.53 1543.24,-97.46"/>
<polygon fill="#63b8ff" stroke="#63b8ff" points="1662.76,-261.94 1672.96,-264.8 1666.76,-256.2 1662.76,-261.94"/>
</a>
</g>
</g>
<!-- Node31&#45;&gt;Node29 -->
<g id="edge39_Node000031_Node000029" class="edge">
<title>Node31&#45;&gt;Node29</title>
<g id="a_edge39_Node000031_Node000029"><a xlink:title=" ">
<path fill="none" stroke="#63b8ff" d="M1742.18,-260.97C1764.11,-251.14 1790.35,-239.39 1810.58,-230.33"/>
<polygon fill="#63b8ff" stroke="#63b8ff" points="1740.88,-257.71 1733.18,-265 1743.74,-264.1 1740.88,-257.71"/>
</a>
</g>
</g>
<!-- Node32 -->
<g id="Node000032" class="node">
<title>Node32</title>
<g id="a_Node000032"><a xlink:href="PDIMasterNode_8cpp.html" target="_top" xlink:title=" ">
<polygon fill="white" stroke="#666666" points="1755.12,-230 1643.12,-230 1643.12,-199.5 1755.12,-199.5 1755.12,-230"/>
<text text-anchor="start" x="1651.12" y="-216.5" font-family="Helvetica,sans-Serif" font-size="10.00">sourcecode/timing/src</text>
<text text-anchor="middle" x="1699.12" y="-205.25" font-family="Helvetica,sans-Serif" font-size="10.00">/PDIMasterNode.cpp</text>
</a>
</g>
</g>
<!-- Node31&#45;&gt;Node32 -->
<g id="edge41_Node000031_Node000032" class="edge">
<title>Node31&#45;&gt;Node32</title>
<g id="a_edge41_Node000031_Node000032"><a xlink:title=" ">
<path fill="none" stroke="#63b8ff" d="M1699.12,-254.31C1699.12,-246.14 1699.12,-237.41 1699.12,-230.33"/>
<polygon fill="#63b8ff" stroke="#63b8ff" points="1695.63,-254.1 1699.13,-264.1 1702.63,-254.1 1695.63,-254.1"/>
</a>
</g>
</g>
</g>
</svg>
