<?xml version="1.0" encoding="UTF-8" standalone="no"?>
<!DOCTYPE svg PUBLIC "-//W3C//DTD SVG 1.1//EN"
 "http://www.w3.org/Graphics/SVG/1.1/DTD/svg11.dtd">
<!-- Generated by graphviz version 9.0.0 (20230911.1827)
 -->
<!-- Title: sourcecode/utilities/include/utilities/WorkerThread.hpp Pages: 1 -->
<svg width="1240pt" height="261pt"
 viewBox="0.00 0.00 1240.00 260.50" xmlns="http://www.w3.org/2000/svg" xmlns:xlink="http://www.w3.org/1999/xlink">
<g id="graph0" class="graph" transform="scale(1 1) rotate(0) translate(4 256.5)">
<title>sourcecode/utilities/include/utilities/WorkerThread.hpp</title>
<!-- Node1 -->
<g id="Node000001" class="node">
<title>Node1</title>
<g id="a_Node000001"><a xlink:title=" ">
<polygon fill="#999999" stroke="#666666" points="723.5,-252.5 558.25,-252.5 558.25,-222 723.5,-222 723.5,-252.5"/>
<text text-anchor="start" x="566.25" y="-239" font-family="Helvetica,sans-Serif" font-size="10.00">sourcecode/utilities</text>
<text text-anchor="middle" x="640.88" y="-227.75" font-family="Helvetica,sans-Serif" font-size="10.00">/include/utilities/WorkerThread.hpp</text>
</a>
</g>
</g>
<!-- Node2 -->
<g id="Node000002" class="node">
<title>Node2</title>
<g id="a_Node000002"><a xlink:href="TriggerInhibitAgent_8hpp.html" target="_top" xlink:title=" ">
<polygon fill="white" stroke="#666666" points="139.75,-186 0,-186 0,-144.25 139.75,-144.25 139.75,-186"/>
<text text-anchor="start" x="8" y="-172.5" font-family="Helvetica,sans-Serif" font-size="10.00">sourcecode/dfmodules</text>
<text text-anchor="start" x="8" y="-161.25" font-family="Helvetica,sans-Serif" font-size="10.00">/src/dfmodules/TriggerInhibit</text>
<text text-anchor="middle" x="69.88" y="-150" font-family="Helvetica,sans-Serif" font-size="10.00">Agent.hpp</text>
</a>
</g>
</g>
<!-- Node1&#45;&gt;Node2 -->
<g id="edge1_Node000001_Node000002" class="edge">
<title>Node1&#45;&gt;Node2</title>
<g id="a_edge1_Node000001_Node000002"><a xlink:title=" ">
<path fill="none" stroke="#63b8ff" d="M546.89,-230.71C447.47,-223.9 286.28,-210.17 148.88,-186 145.95,-185.49 142.97,-184.92 139.97,-184.32"/>
<polygon fill="#63b8ff" stroke="#63b8ff" points="546.39,-234.18 556.6,-231.36 546.86,-227.2 546.39,-234.18"/>
</a>
</g>
</g>
<!-- Node4 -->
<g id="Node000004" class="node">
<title>Node4</title>
<g id="a_Node000004"><a xlink:href="HSIEventSender_8hpp.html" target="_top" xlink:title=" ">
<polygon fill="white" stroke="#666666" points="332,-180.38 157.75,-180.38 157.75,-149.88 332,-149.88 332,-180.38"/>
<text text-anchor="start" x="165.75" y="-166.88" font-family="Helvetica,sans-Serif" font-size="10.00">sourcecode/hsilibs</text>
<text text-anchor="middle" x="244.88" y="-155.62" font-family="Helvetica,sans-Serif" font-size="10.00">/include/hsilibs/HSIEventSender.hpp</text>
</a>
</g>
</g>
<!-- Node1&#45;&gt;Node4 -->
<g id="edge3_Node000001_Node000004" class="edge">
<title>Node1&#45;&gt;Node4</title>
<g id="a_edge3_Node000001_Node000004"><a xlink:title=" ">
<path fill="none" stroke="#63b8ff" d="M546.46,-220.8C488.51,-211.16 412.82,-198.29 345.88,-186 337,-184.37 327.69,-182.61 318.47,-180.84"/>
<polygon fill="#63b8ff" stroke="#63b8ff" points="545.87,-224.25 556.31,-222.43 547.02,-217.34 545.87,-224.25"/>
</a>
</g>
</g>
<!-- Node6 -->
<g id="Node000006" class="node">
<title>Node6</title>
<g id="a_Node000006"><a xlink:href="RecorderConcept_8hpp.html" target="_top" xlink:title=" ">
<polygon fill="white" stroke="#666666" points="530.25,-186 387.5,-186 387.5,-144.25 530.25,-144.25 530.25,-186"/>
<text text-anchor="start" x="395.5" y="-172.5" font-family="Helvetica,sans-Serif" font-size="10.00">sourcecode/readoutlibs</text>
<text text-anchor="start" x="395.5" y="-161.25" font-family="Helvetica,sans-Serif" font-size="10.00">/include/readoutlibs/concepts</text>
<text text-anchor="middle" x="458.88" y="-150" font-family="Helvetica,sans-Serif" font-size="10.00">/RecorderConcept.hpp</text>
</a>
</g>
</g>
<!-- Node1&#45;&gt;Node6 -->
<g id="edge5_Node000001_Node000006" class="edge">
<title>Node1&#45;&gt;Node6</title>
<g id="a_edge5_Node000001_Node000006"><a xlink:title=" ">
<path fill="none" stroke="#63b8ff" d="M592.06,-217.44C567.17,-207.85 536.88,-196.18 511.47,-186.39"/>
<polygon fill="#63b8ff" stroke="#63b8ff" points="590.72,-220.68 601.31,-221.01 593.24,-214.14 590.72,-220.68"/>
</a>
</g>
</g>
<!-- Node7 -->
<g id="Node000007" class="node">
<title>Node7</title>
<g id="a_Node000007"><a xlink:href="RecorderModel_8hpp.html" target="_top" xlink:title=" ">
<polygon fill="white" stroke="#666666" points="447.12,-108.25 312.62,-108.25 312.62,-66.5 447.12,-66.5 447.12,-108.25"/>
<text text-anchor="start" x="320.62" y="-94.75" font-family="Helvetica,sans-Serif" font-size="10.00">sourcecode/readoutlibs</text>
<text text-anchor="start" x="320.62" y="-83.5" font-family="Helvetica,sans-Serif" font-size="10.00">/include/readoutlibs/models</text>
<text text-anchor="middle" x="379.88" y="-72.25" font-family="Helvetica,sans-Serif" font-size="10.00">/RecorderModel.hpp</text>
</a>
</g>
</g>
<!-- Node1&#45;&gt;Node7 -->
<g id="edge9_Node000001_Node000007" class="edge">
<title>Node1&#45;&gt;Node7</title>
<g id="a_edge9_Node000001_Node000007"><a xlink:title=" ">
<path fill="none" stroke="#63b8ff" d="M546.73,-230.59C480.54,-224.42 400.14,-211.73 378.88,-186 361.06,-164.44 366.62,-130.12 372.83,-108.44"/>
<polygon fill="#63b8ff" stroke="#63b8ff" points="546.28,-234.07 556.55,-231.47 546.9,-227.09 546.28,-234.07"/>
</a>
</g>
</g>
<!-- Node9 -->
<g id="Node000009" class="node">
<title>Node9</title>
<g id="a_Node000009"><a xlink:href="TimingController_8hpp.html" target="_top" xlink:title=" ">
<polygon fill="white" stroke="#666666" points="733.62,-180.38 548.12,-180.38 548.12,-149.88 733.62,-149.88 733.62,-180.38"/>
<text text-anchor="start" x="556.12" y="-166.88" font-family="Helvetica,sans-Serif" font-size="10.00">sourcecode/timinglibs</text>
<text text-anchor="middle" x="640.88" y="-155.62" font-family="Helvetica,sans-Serif" font-size="10.00">/include/timinglibs/TimingController.hpp</text>
</a>
</g>
</g>
<!-- Node1&#45;&gt;Node9 -->
<g id="edge10_Node000001_Node000009" class="edge">
<title>Node1&#45;&gt;Node9</title>
<g id="a_edge10_Node000001_Node000009"><a xlink:title=" ">
<path fill="none" stroke="#63b8ff" d="M640.88,-210.27C640.88,-200.26 640.88,-189.19 640.88,-180.64"/>
<polygon fill="#63b8ff" stroke="#63b8ff" points="637.38,-210.21 640.88,-220.21 644.38,-210.21 637.38,-210.21"/>
</a>
</g>
</g>
<!-- Node11 -->
<g id="Node000011" class="node">
<title>Node11</title>
<g id="a_Node000011"><a xlink:href="TimingMasterController_8hpp.html" target="_top" xlink:title=" ">
<polygon fill="white" stroke="#666666" points="818.88,-102.62 664.88,-102.62 664.88,-72.12 818.88,-72.12 818.88,-102.62"/>
<text text-anchor="start" x="672.88" y="-89.12" font-family="Helvetica,sans-Serif" font-size="10.00">sourcecode/timinglibs</text>
<text text-anchor="middle" x="741.88" y="-77.88" font-family="Helvetica,sans-Serif" font-size="10.00">/src/TimingMasterController.hpp</text>
</a>
</g>
</g>
<!-- Node1&#45;&gt;Node11 -->
<g id="edge16_Node000001_Node000011" class="edge">
<title>Node1&#45;&gt;Node11</title>
<g id="a_edge16_Node000001_Node000011"><a xlink:title=" ">
<path fill="none" stroke="#63b8ff" d="M707.35,-216.69C721.42,-209.36 734.53,-199.42 742.88,-186 758.81,-160.38 752.1,-123.19 746.54,-102.91"/>
<polygon fill="#63b8ff" stroke="#63b8ff" points="705.92,-213.5 698.36,-220.93 708.9,-219.83 705.92,-213.5"/>
</a>
</g>
</g>
<!-- Node13 -->
<g id="Node000013" class="node">
<title>Node13</title>
<g id="a_Node000013"><a xlink:href="TimingHardwareManager_8hpp.html" target="_top" xlink:title=" ">
<polygon fill="white" stroke="#666666" points="952,-180.38 789.75,-180.38 789.75,-149.88 952,-149.88 952,-180.38"/>
<text text-anchor="start" x="797.75" y="-166.88" font-family="Helvetica,sans-Serif" font-size="10.00">sourcecode/timinglibs</text>
<text text-anchor="middle" x="870.88" y="-155.62" font-family="Helvetica,sans-Serif" font-size="10.00">/src/TimingHardwareManager.hpp</text>
</a>
</g>
</g>
<!-- Node1&#45;&gt;Node13 -->
<g id="edge14_Node000001_Node000013" class="edge">
<title>Node1&#45;&gt;Node13</title>
<g id="a_edge14_Node000001_Node000013"><a xlink:title=" ">
<path fill="none" stroke="#63b8ff" d="M700.03,-218.21C738.12,-206.6 787.01,-191.69 822.72,-180.81"/>
<polygon fill="#63b8ff" stroke="#63b8ff" points="699.08,-214.84 690.54,-221.11 701.12,-221.54 699.08,-214.84"/>
</a>
</g>
</g>
<!-- Node15 -->
<g id="Node000015" class="node">
<title>Node15</title>
<g id="a_Node000015"><a xlink:href="TriggerGenericMaker_8hpp.html" target="_top" xlink:title=" ">
<polygon fill="white" stroke="#666666" points="1099.5,-186 970.25,-186 970.25,-144.25 1099.5,-144.25 1099.5,-186"/>
<text text-anchor="start" x="978.25" y="-172.5" font-family="Helvetica,sans-Serif" font-size="10.00">sourcecode/trigger</text>
<text text-anchor="start" x="978.25" y="-161.25" font-family="Helvetica,sans-Serif" font-size="10.00">/src/trigger/TriggerGeneric</text>
<text text-anchor="middle" x="1034.88" y="-150" font-family="Helvetica,sans-Serif" font-size="10.00">Maker.hpp</text>
</a>
</g>
</g>
<!-- Node1&#45;&gt;Node15 -->
<g id="edge17_Node000001_Node000015" class="edge">
<title>Node1&#45;&gt;Node15</title>
<g id="a_edge17_Node000001_Node000015"><a xlink:title=" ">
<path fill="none" stroke="#63b8ff" d="M735.14,-224.14C799.13,-215.26 885.5,-201.99 960.88,-186 963.87,-185.36 966.92,-184.68 970,-183.97"/>
<polygon fill="#63b8ff" stroke="#63b8ff" points="734.79,-220.66 725.36,-225.49 735.75,-227.59 734.79,-220.66"/>
</a>
</g>
</g>
<!-- Node16 -->
<g id="Node000016" class="node">
<title>Node16</title>
<g id="a_Node000016"><a xlink:href="WorkerThread_8cpp.html" target="_top" xlink:title=" ">
<polygon fill="white" stroke="#666666" points="1232,-180.38 1117.75,-180.38 1117.75,-149.88 1232,-149.88 1232,-180.38"/>
<text text-anchor="start" x="1125.75" y="-166.88" font-family="Helvetica,sans-Serif" font-size="10.00">sourcecode/utilities</text>
<text text-anchor="middle" x="1174.88" y="-155.62" font-family="Helvetica,sans-Serif" font-size="10.00">/src/WorkerThread.cpp</text>
</a>
</g>
</g>
<!-- Node1&#45;&gt;Node16 -->
<g id="edge18_Node000001_Node000016" class="edge">
<title>Node1&#45;&gt;Node16</title>
<g id="a_edge18_Node000001_Node000016"><a xlink:title=" ">
<path fill="none" stroke="#63b8ff" d="M734.9,-231.29C829.96,-225.08 980.73,-211.94 1108.88,-186 1115.79,-184.6 1123.03,-182.79 1130.07,-180.83"/>
<polygon fill="#63b8ff" stroke="#63b8ff" points="734.85,-227.79 725.1,-231.92 735.3,-234.78 734.85,-227.79"/>
</a>
</g>
</g>
<!-- Node3 -->
<g id="Node000003" class="node">
<title>Node3</title>
<g id="a_Node000003"><a xlink:href="TriggerInhibitAgent_8cpp.html" target="_top" xlink:title=" ">
<polygon fill="white" stroke="#666666" points="137.5,-102.62 2.25,-102.62 2.25,-72.12 137.5,-72.12 137.5,-102.62"/>
<text text-anchor="start" x="10.25" y="-89.12" font-family="Helvetica,sans-Serif" font-size="10.00">sourcecode/dfmodules</text>
<text text-anchor="middle" x="69.88" y="-77.88" font-family="Helvetica,sans-Serif" font-size="10.00">/src/TriggerInhibitAgent.cpp</text>
</a>
</g>
</g>
<!-- Node2&#45;&gt;Node3 -->
<g id="edge2_Node000002_Node000003" class="edge">
<title>Node2&#45;&gt;Node3</title>
<g id="a_edge2_Node000002_Node000003"><a xlink:title=" ">
<path fill="none" stroke="#63b8ff" d="M69.88,-132.56C69.88,-122.19 69.88,-111.17 69.88,-102.73"/>
<polygon fill="#63b8ff" stroke="#63b8ff" points="66.38,-132.31 69.88,-142.31 73.38,-132.31 66.38,-132.31"/>
</a>
</g>
</g>
<!-- Node5 -->
<g id="Node000005" class="node">
<title>Node5</title>
<g id="a_Node000005"><a xlink:href="HSIEventSender_8cpp.html" target="_top" xlink:title=" ">
<polygon fill="white" stroke="#666666" points="295,-102.62 168.75,-102.62 168.75,-72.12 295,-72.12 295,-102.62"/>
<text text-anchor="start" x="176.75" y="-89.12" font-family="Helvetica,sans-Serif" font-size="10.00">sourcecode/hsilibs</text>
<text text-anchor="middle" x="231.88" y="-77.88" font-family="Helvetica,sans-Serif" font-size="10.00">/src/HSIEventSender.cpp</text>
</a>
</g>
</g>
<!-- Node4&#45;&gt;Node5 -->
<g id="edge4_Node000004_Node000005" class="edge">
<title>Node4&#45;&gt;Node5</title>
<g id="a_edge4_Node000004_Node000005"><a xlink:title=" ">
<path fill="none" stroke="#63b8ff" d="M240.47,-138.47C238.44,-126.62 236.1,-112.99 234.37,-102.94"/>
<polygon fill="#63b8ff" stroke="#63b8ff" points="236.97,-138.76 242.11,-148.03 243.87,-137.58 236.97,-138.76"/>
</a>
</g>
</g>
<!-- Node6&#45;&gt;Node7 -->
<g id="edge6_Node000006_Node000007" class="edge">
<title>Node6&#45;&gt;Node7</title>
<g id="a_edge6_Node000006_Node000007"><a xlink:title=" ">
<path fill="none" stroke="#63b8ff" d="M429.66,-136.11C420.19,-127.03 409.88,-117.14 401.1,-108.73"/>
<polygon fill="#63b8ff" stroke="#63b8ff" points="426.97,-138.38 436.61,-142.78 431.82,-133.33 426.97,-138.38"/>
</a>
</g>
</g>
<!-- Node8 -->
<g id="Node000008" class="node">
<title>Node8</title>
<g id="a_Node000008"><a xlink:href="Readoutlibs_8cpp.html" target="_top" xlink:title=" ">
<polygon fill="white" stroke="#666666" points="486.12,-30.5 369.62,-30.5 369.62,0 486.12,0 486.12,-30.5"/>
<text text-anchor="start" x="377.62" y="-17" font-family="Helvetica,sans-Serif" font-size="10.00">sourcecode/readoutlibs</text>
<text text-anchor="middle" x="427.88" y="-5.75" font-family="Helvetica,sans-Serif" font-size="10.00">/src/Readoutlibs.cpp</text>
</a>
</g>
</g>
<!-- Node6&#45;&gt;Node8 -->
<g id="edge8_Node000006_Node000008" class="edge">
<title>Node6&#45;&gt;Node8</title>
<g id="a_edge8_Node000006_Node000008"><a xlink:title=" ">
<path fill="none" stroke="#63b8ff" d="M461.65,-132.64C462.44,-113.23 461.82,-88.02 455.88,-66.5 452.31,-53.6 444.81,-40.44 438.46,-30.82"/>
<polygon fill="#63b8ff" stroke="#63b8ff" points="458.17,-132.2 461.09,-142.38 465.15,-132.6 458.17,-132.2"/>
</a>
</g>
</g>
<!-- Node7&#45;&gt;Node8 -->
<g id="edge7_Node000007_Node000008" class="edge">
<title>Node7&#45;&gt;Node8</title>
<g id="a_edge7_Node000007_Node000008"><a xlink:title=" ">
<path fill="none" stroke="#63b8ff" d="M400.22,-56.65C406.37,-47.67 412.85,-38.21 417.98,-30.7"/>
<polygon fill="#63b8ff" stroke="#63b8ff" points="397.37,-54.61 394.61,-64.84 403.15,-58.57 397.37,-54.61"/>
</a>
</g>
</g>
<!-- Node10 -->
<g id="Node000010" class="node">
<title>Node10</title>
<g id="a_Node000010"><a xlink:href="TimingController_8cpp.html" target="_top" xlink:title=" ">
<polygon fill="white" stroke="#666666" points="646.88,-102.62 522.88,-102.62 522.88,-72.12 646.88,-72.12 646.88,-102.62"/>
<text text-anchor="start" x="530.88" y="-89.12" font-family="Helvetica,sans-Serif" font-size="10.00">sourcecode/timinglibs</text>
<text text-anchor="middle" x="584.88" y="-77.88" font-family="Helvetica,sans-Serif" font-size="10.00">/src/TimingController.cpp</text>
</a>
</g>
</g>
<!-- Node9&#45;&gt;Node10 -->
<g id="edge11_Node000009_Node000010" class="edge">
<title>Node9&#45;&gt;Node10</title>
<g id="a_edge11_Node000009_Node000010"><a xlink:title=" ">
<path fill="none" stroke="#63b8ff" d="M623.26,-140.3C614.2,-128.05 603.46,-113.51 595.64,-102.94"/>
<polygon fill="#63b8ff" stroke="#63b8ff" points="620.42,-142.34 629.18,-148.3 626.05,-138.18 620.42,-142.34"/>
</a>
</g>
</g>
<!-- Node9&#45;&gt;Node11 -->
<g id="edge12_Node000009_Node000011" class="edge">
<title>Node9&#45;&gt;Node11</title>
<g id="a_edge12_Node000009_Node000011"><a xlink:title=" ">
<path fill="none" stroke="#63b8ff" d="M669.29,-142.81C686.26,-130.08 707.39,-114.24 722.46,-102.94"/>
<polygon fill="#63b8ff" stroke="#63b8ff" points="667.46,-139.81 661.56,-148.61 671.66,-145.41 667.46,-139.81"/>
</a>
</g>
</g>
<!-- Node12 -->
<g id="Node000012" class="node">
<title>Node12</title>
<g id="a_Node000012"><a xlink:href="TimingMasterController_8cpp.html" target="_top" xlink:title=" ">
<polygon fill="white" stroke="#666666" points="818.88,-30.5 664.88,-30.5 664.88,0 818.88,0 818.88,-30.5"/>
<text text-anchor="start" x="672.88" y="-17" font-family="Helvetica,sans-Serif" font-size="10.00">sourcecode/timinglibs</text>
<text text-anchor="middle" x="741.88" y="-5.75" font-family="Helvetica,sans-Serif" font-size="10.00">/src/TimingMasterController.cpp</text>
</a>
</g>
</g>
<!-- Node11&#45;&gt;Node12 -->
<g id="edge13_Node000011_Node000012" class="edge">
<title>Node11&#45;&gt;Node12</title>
<g id="a_edge13_Node000011_Node000012"><a xlink:title=" ">
<path fill="none" stroke="#63b8ff" d="M741.88,-60.4C741.88,-50.39 741.88,-39.31 741.88,-30.76"/>
<polygon fill="#63b8ff" stroke="#63b8ff" points="738.38,-60.33 741.88,-70.33 745.38,-60.33 738.38,-60.33"/>
</a>
</g>
</g>
<!-- Node14 -->
<g id="Node000014" class="node">
<title>Node14</title>
<g id="a_Node000014"><a xlink:href="TimingHardwareManager_8cpp.html" target="_top" xlink:title=" ">
<polygon fill="white" stroke="#666666" points="999,-102.62 836.75,-102.62 836.75,-72.12 999,-72.12 999,-102.62"/>
<text text-anchor="start" x="844.75" y="-89.12" font-family="Helvetica,sans-Serif" font-size="10.00">sourcecode/timinglibs</text>
<text text-anchor="middle" x="917.88" y="-77.88" font-family="Helvetica,sans-Serif" font-size="10.00">/src/TimingHardwareManager.cpp</text>
</a>
</g>
</g>
<!-- Node13&#45;&gt;Node14 -->
<g id="edge15_Node000013_Node000014" class="edge">
<title>Node13&#45;&gt;Node14</title>
<g id="a_edge15_Node000013_Node000014"><a xlink:title=" ">
<path fill="none" stroke="#63b8ff" d="M885.88,-139.94C893.44,-127.76 902.35,-113.4 908.84,-102.94"/>
<polygon fill="#63b8ff" stroke="#63b8ff" points="883.03,-137.89 880.74,-148.23 888.98,-141.58 883.03,-137.89"/>
</a>
</g>
</g>
</g>
</svg>
