<?xml version="1.0" encoding="UTF-8" standalone="no"?>
<!DOCTYPE svg PUBLIC "-//W3C//DTD SVG 1.1//EN"
 "http://www.w3.org/Graphics/SVG/1.1/DTD/svg11.dtd">
<!-- Generated by graphviz version 9.0.0 (20230911.1827)
 -->
<!-- Title: sourcecode/okssystem/include/okssystem/exceptions.hpp Pages: 1 -->
<svg width="1332pt" height="105pt"
 viewBox="0.00 0.00 1332.00 105.00" xmlns="http://www.w3.org/2000/svg" xmlns:xlink="http://www.w3.org/1999/xlink">
<g id="graph0" class="graph" transform="scale(1 1) rotate(0) translate(4 101)">
<title>sourcecode/okssystem/include/okssystem/exceptions.hpp</title>
<!-- Node1 -->
<g id="Node000001" class="node">
<title>Node1</title>
<g id="a_Node000001"><a xlink:title=" ">
<polygon fill="#999999" stroke="#666666" points="739.5,-97 572,-97 572,-66.5 739.5,-66.5 739.5,-97"/>
<text text-anchor="start" x="580" y="-83.5" font-family="Helvetica,sans-Serif" font-size="10.00">sourcecode/okssystem</text>
<text text-anchor="middle" x="655.75" y="-72.25" font-family="Helvetica,sans-Serif" font-size="10.00">/include/okssystem/exceptions.hpp</text>
</a>
</g>
</g>
<!-- Node2 -->
<g id="Node000002" class="node">
<title>Node2</title>
<g id="a_Node000002"><a xlink:href="kernel_8cpp.html" target="_top" xlink:title=" ">
<polygon fill="white" stroke="#666666" points="101.5,-30.5 0,-30.5 0,0 101.5,0 101.5,-30.5"/>
<text text-anchor="start" x="8" y="-17" font-family="Helvetica,sans-Serif" font-size="10.00">sourcecode/oks/src</text>
<text text-anchor="middle" x="50.75" y="-5.75" font-family="Helvetica,sans-Serif" font-size="10.00">/kernel.cpp</text>
</a>
</g>
</g>
<!-- Node1&#45;&gt;Node2 -->
<g id="edge1_Node000001_Node000002" class="edge">
<title>Node1&#45;&gt;Node2</title>
<g id="a_edge1_Node000001_Node000002"><a xlink:title=" ">
<path fill="none" stroke="#63b8ff" d="M560.41,-76.05C451.21,-69.72 267.2,-56.16 110.75,-30.5 107.79,-30.01 104.76,-29.47 101.71,-28.87"/>
<polygon fill="#63b8ff" stroke="#63b8ff" points="560.03,-79.53 570.21,-76.61 560.42,-72.54 560.03,-79.53"/>
</a>
</g>
</g>
<!-- Node3 -->
<g id="Node000003" class="node">
<title>Node3</title>
<g id="a_Node000003"><a xlink:href="Descriptor_8cpp.html" target="_top" xlink:title=" ">
<polygon fill="white" stroke="#666666" points="236,-30.5 119.5,-30.5 119.5,0 236,0 236,-30.5"/>
<text text-anchor="start" x="127.5" y="-17" font-family="Helvetica,sans-Serif" font-size="10.00">sourcecode/okssystem</text>
<text text-anchor="middle" x="177.75" y="-5.75" font-family="Helvetica,sans-Serif" font-size="10.00">/src/Descriptor.cpp</text>
</a>
</g>
</g>
<!-- Node1&#45;&gt;Node3 -->
<g id="edge2_Node000001_Node000003" class="edge">
<title>Node1&#45;&gt;Node3</title>
<g id="a_edge2_Node000001_Node000003"><a xlink:title=" ">
<path fill="none" stroke="#63b8ff" d="M560.6,-71.39C477.29,-62.65 353.13,-48.3 245.75,-30.5 242.66,-29.99 239.49,-29.43 236.3,-28.85"/>
<polygon fill="#63b8ff" stroke="#63b8ff" points="560.01,-74.85 570.32,-72.41 560.74,-67.89 560.01,-74.85"/>
</a>
</g>
</g>
<!-- Node4 -->
<g id="Node000004" class="node">
<title>Node4</title>
<g id="a_Node000004"><a xlink:href="Environment_8cpp.html" target="_top" xlink:title=" ">
<polygon fill="white" stroke="#666666" points="371,-30.5 254.5,-30.5 254.5,0 371,0 371,-30.5"/>
<text text-anchor="start" x="262.5" y="-17" font-family="Helvetica,sans-Serif" font-size="10.00">sourcecode/okssystem</text>
<text text-anchor="middle" x="312.75" y="-5.75" font-family="Helvetica,sans-Serif" font-size="10.00">/src/Environment.cpp</text>
</a>
</g>
</g>
<!-- Node1&#45;&gt;Node4 -->
<g id="edge3_Node000001_Node000004" class="edge">
<title>Node1&#45;&gt;Node4</title>
<g id="a_edge3_Node000001_Node000004"><a xlink:title=" ">
<path fill="none" stroke="#63b8ff" d="M560.91,-64.04C507.85,-54.54 440.55,-42.23 380.75,-30.5 377.67,-29.9 374.52,-29.27 371.34,-28.63"/>
<polygon fill="#63b8ff" stroke="#63b8ff" points="560.05,-67.45 570.51,-65.76 561.28,-60.55 560.05,-67.45"/>
</a>
</g>
</g>
<!-- Node5 -->
<g id="Node000005" class="node">
<title>Node5</title>
<g id="a_Node000005"><a xlink:href="Executable_8cpp.html" target="_top" xlink:title=" ">
<polygon fill="white" stroke="#666666" points="506,-30.5 389.5,-30.5 389.5,0 506,0 506,-30.5"/>
<text text-anchor="start" x="397.5" y="-17" font-family="Helvetica,sans-Serif" font-size="10.00">sourcecode/okssystem</text>
<text text-anchor="middle" x="447.75" y="-5.75" font-family="Helvetica,sans-Serif" font-size="10.00">/src/Executable.cpp</text>
</a>
</g>
</g>
<!-- Node1&#45;&gt;Node5 -->
<g id="edge4_Node000001_Node000005" class="edge">
<title>Node1&#45;&gt;Node5</title>
<g id="a_edge4_Node000001_Node000005"><a xlink:title=" ">
<path fill="none" stroke="#63b8ff" d="M597.62,-62.72C565.24,-52.68 525.45,-40.34 495,-30.9"/>
<polygon fill="#63b8ff" stroke="#63b8ff" points="596.26,-65.97 606.85,-65.58 598.33,-59.28 596.26,-65.97"/>
</a>
</g>
</g>
<!-- Node6 -->
<g id="Node000006" class="node">
<title>Node6</title>
<g id="a_Node000006"><a xlink:href="FIFOConnection_8cpp.html" target="_top" xlink:title=" ">
<polygon fill="white" stroke="#666666" points="649.12,-30.5 524.38,-30.5 524.38,0 649.12,0 649.12,-30.5"/>
<text text-anchor="start" x="532.38" y="-17" font-family="Helvetica,sans-Serif" font-size="10.00">sourcecode/okssystem</text>
<text text-anchor="middle" x="586.75" y="-5.75" font-family="Helvetica,sans-Serif" font-size="10.00">/src/FIFOConnection.cpp</text>
</a>
</g>
</g>
<!-- Node1&#45;&gt;Node6 -->
<g id="edge5_Node000001_Node000006" class="edge">
<title>Node1&#45;&gt;Node6</title>
<g id="a_edge5_Node000001_Node000006"><a xlink:title=" ">
<path fill="none" stroke="#63b8ff" d="M631.91,-58.46C622.12,-49.32 611.07,-38.98 602.35,-30.83"/>
<polygon fill="#63b8ff" stroke="#63b8ff" points="629.29,-60.81 638.99,-65.08 634.07,-55.69 629.29,-60.81"/>
</a>
</g>
</g>
<!-- Node7 -->
<g id="Node000007" class="node">
<title>Node7</title>
<g id="a_Node000007"><a xlink:href="File_8cpp.html" target="_top" xlink:title=" ">
<polygon fill="white" stroke="#666666" points="784,-30.5 667.5,-30.5 667.5,0 784,0 784,-30.5"/>
<text text-anchor="start" x="675.5" y="-17" font-family="Helvetica,sans-Serif" font-size="10.00">sourcecode/okssystem</text>
<text text-anchor="middle" x="725.75" y="-5.75" font-family="Helvetica,sans-Serif" font-size="10.00">/src/File.cpp</text>
</a>
</g>
</g>
<!-- Node1&#45;&gt;Node7 -->
<g id="edge6_Node000001_Node000007" class="edge">
<title>Node1&#45;&gt;Node7</title>
<g id="a_edge6_Node000001_Node000007"><a xlink:title=" ">
<path fill="none" stroke="#63b8ff" d="M679.94,-58.46C689.86,-49.32 701.08,-38.98 709.93,-30.83"/>
<polygon fill="#63b8ff" stroke="#63b8ff" points="677.73,-55.74 672.75,-65.09 682.47,-60.89 677.73,-55.74"/>
</a>
</g>
</g>
<!-- Node8 -->
<g id="Node000008" class="node">
<title>Node8</title>
<g id="a_Node000008"><a xlink:href="MapFile_8cpp.html" target="_top" xlink:title=" ">
<polygon fill="white" stroke="#666666" points="919,-30.5 802.5,-30.5 802.5,0 919,0 919,-30.5"/>
<text text-anchor="start" x="810.5" y="-17" font-family="Helvetica,sans-Serif" font-size="10.00">sourcecode/okssystem</text>
<text text-anchor="middle" x="860.75" y="-5.75" font-family="Helvetica,sans-Serif" font-size="10.00">/src/MapFile.cpp</text>
</a>
</g>
</g>
<!-- Node1&#45;&gt;Node8 -->
<g id="edge7_Node000001_Node000008" class="edge">
<title>Node1&#45;&gt;Node8</title>
<g id="a_edge7_Node000001_Node000008"><a xlink:title=" ">
<path fill="none" stroke="#63b8ff" d="M713.46,-62.59C745.29,-52.58 784.3,-40.3 814.18,-30.9"/>
<polygon fill="#63b8ff" stroke="#63b8ff" points="712.46,-59.24 703.97,-65.58 714.56,-65.92 712.46,-59.24"/>
</a>
</g>
</g>
<!-- Node9 -->
<g id="Node000009" class="node">
<title>Node9</title>
<g id="a_Node000009"><a xlink:href="Path_8cpp.html" target="_top" xlink:title=" ">
<polygon fill="white" stroke="#666666" points="1054,-30.5 937.5,-30.5 937.5,0 1054,0 1054,-30.5"/>
<text text-anchor="start" x="945.5" y="-17" font-family="Helvetica,sans-Serif" font-size="10.00">sourcecode/okssystem</text>
<text text-anchor="middle" x="995.75" y="-5.75" font-family="Helvetica,sans-Serif" font-size="10.00">/src/Path.cpp</text>
</a>
</g>
</g>
<!-- Node1&#45;&gt;Node9 -->
<g id="edge8_Node000001_Node000009" class="edge">
<title>Node1&#45;&gt;Node9</title>
<g id="a_edge8_Node000001_Node000009"><a xlink:title=" ">
<path fill="none" stroke="#63b8ff" d="M749.59,-63.98C802.06,-54.47 868.6,-42.16 927.75,-30.5 930.83,-29.89 933.98,-29.26 937.16,-28.62"/>
<polygon fill="#63b8ff" stroke="#63b8ff" points="748.98,-60.54 739.77,-65.76 750.23,-67.43 748.98,-60.54"/>
</a>
</g>
</g>
<!-- Node10 -->
<g id="Node000010" class="node">
<title>Node10</title>
<g id="a_Node000010"><a xlink:href="Process_8cpp.html" target="_top" xlink:title=" ">
<polygon fill="white" stroke="#666666" points="1189,-30.5 1072.5,-30.5 1072.5,0 1189,0 1189,-30.5"/>
<text text-anchor="start" x="1080.5" y="-17" font-family="Helvetica,sans-Serif" font-size="10.00">sourcecode/okssystem</text>
<text text-anchor="middle" x="1130.75" y="-5.75" font-family="Helvetica,sans-Serif" font-size="10.00">/src/Process.cpp</text>
</a>
</g>
</g>
<!-- Node1&#45;&gt;Node10 -->
<g id="edge9_Node000001_Node000010" class="edge">
<title>Node1&#45;&gt;Node10</title>
<g id="a_edge9_Node000001_Node000010"><a xlink:title=" ">
<path fill="none" stroke="#63b8ff" d="M751.24,-71.24C833.92,-62.47 956.6,-48.14 1062.75,-30.5 1065.84,-29.99 1069.01,-29.43 1072.2,-28.84"/>
<polygon fill="#63b8ff" stroke="#63b8ff" points="750.92,-67.76 741.35,-72.29 751.66,-74.72 750.92,-67.76"/>
</a>
</g>
</g>
<!-- Node11 -->
<g id="Node000011" class="node">
<title>Node11</title>
<g id="a_Node000011"><a xlink:href="User_8cpp.html" target="_top" xlink:title=" ">
<polygon fill="white" stroke="#666666" points="1324,-30.5 1207.5,-30.5 1207.5,0 1324,0 1324,-30.5"/>
<text text-anchor="start" x="1215.5" y="-17" font-family="Helvetica,sans-Serif" font-size="10.00">sourcecode/okssystem</text>
<text text-anchor="middle" x="1265.75" y="-5.75" font-family="Helvetica,sans-Serif" font-size="10.00">/src/User.cpp</text>
</a>
</g>
</g>
<!-- Node1&#45;&gt;Node11 -->
<g id="edge10_Node000001_Node000011" class="edge">
<title>Node1&#45;&gt;Node11</title>
<g id="a_edge10_Node000001_Node000011"><a xlink:title=" ">
<path fill="none" stroke="#63b8ff" d="M750.91,-75.23C859.46,-68.16 1042.06,-53.95 1197.75,-30.5 1200.85,-30.03 1204.02,-29.51 1207.22,-28.96"/>
<polygon fill="#63b8ff" stroke="#63b8ff" points="750.94,-71.72 741.18,-75.85 751.39,-78.7 750.94,-71.72"/>
</a>
</g>
</g>
</g>
</svg>
