<?xml version="1.0" encoding="UTF-8" standalone="no"?>
<!DOCTYPE svg PUBLIC "-//W3C//DTD SVG 1.1//EN"
 "http://www.w3.org/Graphics/SVG/1.1/DTD/svg11.dtd">
<!-- Generated by graphviz version 9.0.0 (20230911.1827)
 -->
<!-- Title: sourcecode/okssystem/include/okssystem/exceptions.hpp Pages: 1 -->
<svg width="1372pt" height="337pt"
 viewBox="0.00 0.00 1371.69 337.25" xmlns="http://www.w3.org/2000/svg" xmlns:xlink="http://www.w3.org/1999/xlink">
<g id="graph0" class="graph" transform="scale(1 1) rotate(0) translate(4 333.25)">
<title>sourcecode/okssystem/include/okssystem/exceptions.hpp</title>
<!-- Node1 -->
<g id="Node000001" class="node">
<title>Node1</title>
<g id="a_Node000001"><a xlink:title=" ">
<polygon fill="#999999" stroke="#666666" points="534.03,-329.25 366.53,-329.25 366.53,-298.75 534.03,-298.75 534.03,-329.25"/>
<text text-anchor="start" x="374.53" y="-315.75" font-family="Helvetica,sans-Serif" font-size="10.00">sourcecode/okssystem</text>
<text text-anchor="middle" x="450.28" y="-304.5" font-family="Helvetica,sans-Serif" font-size="10.00">/include/okssystem/exceptions.hpp</text>
</a>
</g>
</g>
<!-- Node2 -->
<g id="Node000002" class="node">
<title>Node2</title>
<g id="a_Node000002"><a xlink:href="Issue_8hpp.html" target="_top" xlink:title=" ">
<polygon fill="white" stroke="#666666" points="487.53,-262.75 413.03,-262.75 413.03,-243.5 487.53,-243.5 487.53,-262.75"/>
<text text-anchor="middle" x="450.28" y="-249.25" font-family="Helvetica,sans-Serif" font-size="10.00">ers/Issue.hpp</text>
</a>
</g>
</g>
<!-- Node1&#45;&gt;Node2 -->
<g id="edge1_Node000001_Node000002" class="edge">
<title>Node1&#45;&gt;Node2</title>
<g id="a_edge1_Node000001_Node000002"><a xlink:title=" ">
<path fill="none" stroke="#63b8ff" d="M450.28,-298.45C450.28,-291.21 450.28,-282.34 450.28,-274.44"/>
<polygon fill="#63b8ff" stroke="#63b8ff" points="453.78,-274.71 450.28,-264.71 446.78,-274.71 453.78,-274.71"/>
</a>
</g>
</g>
<!-- Node7 -->
<g id="Node000007" class="node">
<title>Node7</title>
<g id="a_Node000007"><a xlink:title=" ">
<polygon fill="#e0e0e0" stroke="#999999" points="195.28,-74.5 155.28,-74.5 155.28,-55.25 195.28,-55.25 195.28,-74.5"/>
<text text-anchor="middle" x="175.28" y="-61" font-family="Helvetica,sans-Serif" font-size="10.00">string</text>
</a>
</g>
</g>
<!-- Node1&#45;&gt;Node7 -->
<g id="edge38_Node000001_Node000007" class="edge">
<title>Node1&#45;&gt;Node7</title>
<g id="a_edge38_Node000001_Node000007"><a xlink:title=" ">
<path fill="none" stroke="#63b8ff" d="M366.14,-305.04C251.04,-292.21 53.75,-262.63 10.28,-207.5 -35.4,-149.58 84.79,-97.56 144.25,-76.19"/>
<polygon fill="#63b8ff" stroke="#63b8ff" points="145.22,-79.56 153.5,-72.94 142.9,-72.95 145.22,-79.56"/>
</a>
</g>
</g>
<!-- Node28 -->
<g id="Node000028" class="node">
<title>Node28</title>
<g id="a_Node000028"><a xlink:title=" ">
<polygon fill="#e0e0e0" stroke="#999999" points="550.91,-262.75 505.66,-262.75 505.66,-243.5 550.91,-243.5 550.91,-262.75"/>
<text text-anchor="middle" x="528.28" y="-249.25" font-family="Helvetica,sans-Serif" font-size="10.00">errno.h</text>
</a>
</g>
</g>
<!-- Node1&#45;&gt;Node28 -->
<g id="edge37_Node000001_Node000028" class="edge">
<title>Node1&#45;&gt;Node28</title>
<g id="a_edge37_Node000001_Node000028"><a xlink:title=" ">
<path fill="none" stroke="#63b8ff" d="M469.56,-298.45C480.98,-289.83 495.46,-278.9 507.18,-270.05"/>
<polygon fill="#63b8ff" stroke="#63b8ff" points="509.18,-272.93 515.05,-264.11 504.96,-267.34 509.18,-272.93"/>
</a>
</g>
</g>
<!-- Node3 -->
<g id="Node000003" class="node">
<title>Node3</title>
<g id="a_Node000003"><a xlink:title=" ">
<polygon fill="#e0e0e0" stroke="#999999" points="960.91,-201.88 915.66,-201.88 915.66,-182.62 960.91,-182.62 960.91,-201.88"/>
<text text-anchor="middle" x="938.28" y="-188.38" font-family="Helvetica,sans-Serif" font-size="10.00">math.h</text>
</a>
</g>
</g>
<!-- Node2&#45;&gt;Node3 -->
<g id="edge2_Node000002_Node000003" class="edge">
<title>Node2&#45;&gt;Node3</title>
<g id="a_edge2_Node000002_Node000003"><a xlink:title=" ">
<path fill="none" stroke="#63b8ff" d="M487.89,-244.76C490.72,-244.3 493.54,-243.88 496.28,-243.5 677.5,-218.61 729.19,-253.33 906.28,-207.5 907.64,-207.15 909.01,-206.74 910.39,-206.3"/>
<polygon fill="#63b8ff" stroke="#63b8ff" points="911.23,-209.73 919.31,-202.86 908.72,-203.19 911.23,-209.73"/>
</a>
</g>
</g>
<!-- Node4 -->
<g id="Node000004" class="node">
<title>Node4</title>
<g id="a_Node000004"><a xlink:title=" ">
<polygon fill="#e0e0e0" stroke="#999999" points="1023.53,-201.88 979.03,-201.88 979.03,-182.62 1023.53,-182.62 1023.53,-201.88"/>
<text text-anchor="middle" x="1001.28" y="-188.38" font-family="Helvetica,sans-Serif" font-size="10.00">stdio.h</text>
</a>
</g>
</g>
<!-- Node2&#45;&gt;Node4 -->
<g id="edge3_Node000002_Node000004" class="edge">
<title>Node2&#45;&gt;Node4</title>
<g id="a_edge3_Node000002_Node000004"><a xlink:title=" ">
<path fill="none" stroke="#63b8ff" d="M487.88,-244.73C490.72,-244.28 493.54,-243.86 496.28,-243.5 705.76,-215.99 765.75,-260.45 970.28,-207.5 971.46,-207.2 972.64,-206.85 973.83,-206.47"/>
<polygon fill="#63b8ff" stroke="#63b8ff" points="974.86,-209.82 982.89,-202.92 972.31,-203.31 974.86,-209.82"/>
</a>
</g>
</g>
<!-- Node5 -->
<g id="Node000005" class="node">
<title>Node5</title>
<g id="a_Node000005"><a xlink:title=" ">
<polygon fill="#e0e0e0" stroke="#999999" points="67.03,-201.88 19.53,-201.88 19.53,-182.62 67.03,-182.62 67.03,-201.88"/>
<text text-anchor="middle" x="43.28" y="-188.38" font-family="Helvetica,sans-Serif" font-size="10.00">string.h</text>
</a>
</g>
</g>
<!-- Node2&#45;&gt;Node5 -->
<g id="edge4_Node000002_Node000005" class="edge">
<title>Node2&#45;&gt;Node5</title>
<g id="a_edge4_Node000002_Node000005"><a xlink:title=" ">
<path fill="none" stroke="#63b8ff" d="M412.57,-250.53C345.19,-247.03 200.07,-236.51 81.28,-207.5 79.4,-207.04 77.48,-206.51 75.56,-205.94"/>
<polygon fill="#63b8ff" stroke="#63b8ff" points="76.73,-202.64 66.14,-202.78 74.5,-209.28 76.73,-202.64"/>
</a>
</g>
</g>
<!-- Node6 -->
<g id="Node000006" class="node">
<title>Node6</title>
<g id="a_Node000006"><a xlink:title=" ">
<polygon fill="#e0e0e0" stroke="#999999" points="147.66,-135.38 112.91,-135.38 112.91,-116.12 147.66,-116.12 147.66,-135.38"/>
<text text-anchor="middle" x="130.28" y="-121.88" font-family="Helvetica,sans-Serif" font-size="10.00">map</text>
</a>
</g>
</g>
<!-- Node2&#45;&gt;Node6 -->
<g id="edge5_Node000002_Node000006" class="edge">
<title>Node2&#45;&gt;Node6</title>
<g id="a_edge5_Node000002_Node000006"><a xlink:title=" ">
<path fill="none" stroke="#63b8ff" d="M412.7,-249.42C348.82,-244.24 222.35,-231.25 185.28,-207.5 162.45,-192.87 146.69,-165.04 138.07,-146.18"/>
<polygon fill="#63b8ff" stroke="#63b8ff" points="141.38,-145.01 134.22,-137.2 134.94,-147.77 141.38,-145.01"/>
</a>
</g>
</g>
<!-- Node2&#45;&gt;Node7 -->
<g id="edge6_Node000002_Node000007" class="edge">
<title>Node2&#45;&gt;Node7</title>
<g id="a_edge6_Node000002_Node000007"><a xlink:title=" ">
<path fill="none" stroke="#63b8ff" d="M412.58,-250.1C342.49,-245.76 195.34,-233.73 152.28,-207.5 111.2,-182.48 81.02,-152.6 104.28,-110.5 112.89,-94.91 129.48,-84.03 144.46,-76.92"/>
<polygon fill="#63b8ff" stroke="#63b8ff" points="145.76,-80.17 153.56,-73 142.99,-73.75 145.76,-80.17"/>
</a>
</g>
</g>
<!-- Node8 -->
<g id="Node000008" class="node">
<title>Node8</title>
<g id="a_Node000008"><a xlink:title=" ">
<polygon fill="#e0e0e0" stroke="#999999" points="628.03,-19.25 574.53,-19.25 574.53,0 628.03,0 628.03,-19.25"/>
<text text-anchor="middle" x="601.28" y="-5.75" font-family="Helvetica,sans-Serif" font-size="10.00">iostream</text>
</a>
</g>
</g>
<!-- Node2&#45;&gt;Node8 -->
<g id="edge7_Node000002_Node000008" class="edge">
<title>Node2&#45;&gt;Node8</title>
<g id="a_edge7_Node000002_Node000008"><a xlink:title=" ">
<path fill="none" stroke="#63b8ff" d="M487.88,-244.7C490.72,-244.26 493.54,-243.85 496.28,-243.5 686.78,-219.33 1233.01,-289.88 1354.28,-141 1447.83,-26.16 805.4,-12.47 639.63,-10.84"/>
<polygon fill="#63b8ff" stroke="#63b8ff" points="639.86,-7.34 629.83,-10.76 639.8,-14.34 639.86,-7.34"/>
</a>
</g>
</g>
<!-- Node9 -->
<g id="Node000009" class="node">
<title>Node9</title>
<g id="a_Node000009"><a xlink:title=" ">
<polygon fill="#e0e0e0" stroke="#999999" points="572.91,-201.88 521.66,-201.88 521.66,-182.62 572.91,-182.62 572.91,-201.88"/>
<text text-anchor="middle" x="547.28" y="-188.38" font-family="Helvetica,sans-Serif" font-size="10.00">sstream</text>
</a>
</g>
</g>
<!-- Node2&#45;&gt;Node9 -->
<g id="edge8_Node000002_Node000009" class="edge">
<title>Node2&#45;&gt;Node9</title>
<g id="a_edge8_Node000002_Node000009"><a xlink:title=" ">
<path fill="none" stroke="#63b8ff" d="M465.01,-243.18C480.33,-233.89 504.55,-219.19 522.76,-208.14"/>
<polygon fill="#63b8ff" stroke="#63b8ff" points="524.38,-211.24 531.12,-203.06 520.75,-205.26 524.38,-211.24"/>
</a>
</g>
</g>
<!-- Node10 -->
<g id="Node000010" class="node">
<title>Node10</title>
<g id="a_Node000010"><a xlink:title=" ">
<polygon fill="#e0e0e0" stroke="#999999" points="641.53,-201.88 591.03,-201.88 591.03,-182.62 641.53,-182.62 641.53,-201.88"/>
<text text-anchor="middle" x="616.28" y="-188.38" font-family="Helvetica,sans-Serif" font-size="10.00">memory</text>
</a>
</g>
</g>
<!-- Node2&#45;&gt;Node10 -->
<g id="edge9_Node000002_Node000010" class="edge">
<title>Node2&#45;&gt;Node10</title>
<g id="a_edge9_Node000002_Node000010"><a xlink:title=" ">
<path fill="none" stroke="#63b8ff" d="M479.07,-243.04C505.95,-234.41 547.09,-220.8 582.28,-207.5 583.22,-207.14 584.18,-206.78 585.14,-206.4"/>
<polygon fill="#63b8ff" stroke="#63b8ff" points="586.14,-209.77 594.11,-202.79 583.53,-203.28 586.14,-209.77"/>
</a>
</g>
</g>
<!-- Node11 -->
<g id="Node000011" class="node">
<title>Node11</title>
<g id="a_Node000011"><a xlink:title=" ">
<polygon fill="#e0e0e0" stroke="#999999" points="390.91,-135.38 345.66,-135.38 345.66,-116.12 390.91,-116.12 390.91,-135.38"/>
<text text-anchor="middle" x="368.28" y="-121.88" font-family="Helvetica,sans-Serif" font-size="10.00">chrono</text>
</a>
</g>
</g>
<!-- Node2&#45;&gt;Node11 -->
<g id="edge10_Node000002_Node000011" class="edge">
<title>Node2&#45;&gt;Node11</title>
<g id="a_edge10_Node000002_Node000011"><a xlink:title=" ">
<path fill="none" stroke="#63b8ff" d="M430.55,-243.01C416.39,-235.46 397.99,-223.4 387.28,-207.5 375.1,-189.42 370.68,-164.5 369.11,-147.14"/>
<polygon fill="#63b8ff" stroke="#63b8ff" points="372.61,-147.08 368.48,-137.32 365.62,-147.52 372.61,-147.08"/>
</a>
</g>
</g>
<!-- Node12 -->
<g id="Node000012" class="node">
<title>Node12</title>
<g id="a_Node000012"><a xlink:title=" ">
<polygon fill="#e0e0e0" stroke="#999999" points="688.68,-201.88 659.88,-201.88 659.88,-182.62 688.68,-182.62 688.68,-201.88"/>
<text text-anchor="middle" x="674.28" y="-188.38" font-family="Helvetica,sans-Serif" font-size="10.00">list</text>
</a>
</g>
</g>
<!-- Node2&#45;&gt;Node12 -->
<g id="edge11_Node000002_Node000012" class="edge">
<title>Node2&#45;&gt;Node12</title>
<g id="a_edge11_Node000002_Node000012"><a xlink:title=" ">
<path fill="none" stroke="#63b8ff" d="M487.87,-244.41C541.53,-233.29 635.32,-213.44 650.28,-207.5 650.39,-207.46 650.5,-207.41 650.61,-207.37"/>
<polygon fill="#63b8ff" stroke="#63b8ff" points="651.97,-210.6 659.35,-202.99 648.84,-204.34 651.97,-210.6"/>
</a>
</g>
</g>
<!-- Node13 -->
<g id="Node000013" class="node">
<title>Node13</title>
<g id="a_Node000013"><a xlink:href="IssueFactory_8hpp.html" target="_top" xlink:title=" ">
<polygon fill="white" stroke="#666666" points="300.66,-201.88 193.91,-201.88 193.91,-182.62 300.66,-182.62 300.66,-201.88"/>
<text text-anchor="middle" x="247.28" y="-188.38" font-family="Helvetica,sans-Serif" font-size="10.00">ers/IssueFactory.hpp</text>
</a>
</g>
</g>
<!-- Node2&#45;&gt;Node13 -->
<g id="edge12_Node000002_Node000013" class="edge">
<title>Node2&#45;&gt;Node13</title>
<g id="a_edge12_Node000002_Node000013"><a xlink:title=" ">
<path fill="none" stroke="#63b8ff" d="M419.01,-243.05C384.29,-232.99 328.06,-216.68 289.47,-205.49"/>
<polygon fill="#63b8ff" stroke="#63b8ff" points="290.62,-202.18 280.04,-202.75 288.67,-208.9 290.62,-202.18"/>
</a>
</g>
</g>
<!-- Node15 -->
<g id="Node000015" class="node">
<title>Node15</title>
<g id="a_Node000015"><a xlink:href="Severity_8hpp.html" target="_top" xlink:title=" ">
<polygon fill="white" stroke="#666666" points="289.16,-135.38 203.41,-135.38 203.41,-116.12 289.16,-116.12 289.16,-135.38"/>
<text text-anchor="middle" x="246.28" y="-121.88" font-family="Helvetica,sans-Serif" font-size="10.00">ers/Severity.hpp</text>
</a>
</g>
</g>
<!-- Node2&#45;&gt;Node15 -->
<g id="edge29_Node000002_Node000015" class="edge">
<title>Node2&#45;&gt;Node15</title>
<g id="a_edge29_Node000002_Node000015"><a xlink:title=" ">
<path fill="none" stroke="#63b8ff" d="M433.47,-243.01C417.36,-234.18 392.44,-220.3 371.28,-207.5 334.95,-185.53 293.74,-158.48 268.9,-141.94"/>
<polygon fill="#63b8ff" stroke="#63b8ff" points="271.14,-139.22 260.88,-136.58 267.25,-145.04 271.14,-139.22"/>
</a>
</g>
</g>
<!-- Node16 -->
<g id="Node000016" class="node">
<title>Node16</title>
<g id="a_Node000016"><a xlink:href="LocalContext_8hpp.html" target="_top" xlink:title=" ">
<polygon fill="white" stroke="#666666" points="504.03,-201.88 396.53,-201.88 396.53,-182.62 504.03,-182.62 504.03,-201.88"/>
<text text-anchor="middle" x="450.28" y="-188.38" font-family="Helvetica,sans-Serif" font-size="10.00">ers/LocalContext.hpp</text>
</a>
</g>
</g>
<!-- Node2&#45;&gt;Node16 -->
<g id="edge21_Node000002_Node000016" class="edge">
<title>Node2&#45;&gt;Node16</title>
<g id="a_edge21_Node000002_Node000016"><a xlink:title=" ">
<path fill="none" stroke="#63b8ff" d="M450.28,-243.18C450.28,-235.4 450.28,-223.83 450.28,-213.78"/>
<polygon fill="#63b8ff" stroke="#63b8ff" points="453.78,-213.79 450.28,-203.79 446.78,-213.79 453.78,-213.79"/>
</a>
</g>
</g>
<!-- Node21 -->
<g id="Node000021" class="node">
<title>Node21</title>
<g id="a_Node000021"><a xlink:href="IssueDeclarationMacro_8hpp.html" target="_top" xlink:title=" ">
<polygon fill="white" stroke="#666666" points="897.16,-207.5 757.41,-207.5 757.41,-177 897.16,-177 897.16,-207.5"/>
<text text-anchor="start" x="765.41" y="-194" font-family="Helvetica,sans-Serif" font-size="10.00">ers/internal/IssueDeclaration</text>
<text text-anchor="middle" x="827.28" y="-182.75" font-family="Helvetica,sans-Serif" font-size="10.00">Macro.hpp</text>
</a>
</g>
</g>
<!-- Node2&#45;&gt;Node21 -->
<g id="edge30_Node000002_Node000021" class="edge">
<title>Node2&#45;&gt;Node21</title>
<g id="a_edge30_Node000002_Node000021"><a xlink:title=" ">
<path fill="none" stroke="#63b8ff" d="M487.92,-244.96C490.75,-244.45 493.56,-243.96 496.28,-243.5 581.19,-229.1 678.7,-214.53 745.78,-204.82"/>
<polygon fill="#63b8ff" stroke="#63b8ff" points="746.21,-208.29 755.61,-203.4 745.21,-201.36 746.21,-208.29"/>
</a>
</g>
</g>
<!-- Node13&#45;&gt;Node6 -->
<g id="edge16_Node000013_Node000006" class="edge">
<title>Node13&#45;&gt;Node6</title>
<g id="a_edge16_Node000013_Node000006"><a xlink:title=" ">
<path fill="none" stroke="#63b8ff" d="M230.77,-182.15C211.52,-171.53 179.45,-153.85 156.72,-141.32"/>
<polygon fill="#63b8ff" stroke="#63b8ff" points="158.48,-138.3 148.04,-136.54 155.11,-144.43 158.48,-138.3"/>
</a>
</g>
</g>
<!-- Node13&#45;&gt;Node7 -->
<g id="edge14_Node000013_Node000007" class="edge">
<title>Node13&#45;&gt;Node7</title>
<g id="a_edge14_Node000013_Node000007"><a xlink:title=" ">
<path fill="none" stroke="#63b8ff" d="M234.38,-182.4C222.22,-173.38 204.41,-158.29 194.28,-141 184.3,-123.96 179.52,-101.77 177.26,-85.93"/>
<polygon fill="#63b8ff" stroke="#63b8ff" points="180.77,-85.83 176.11,-76.31 173.82,-86.66 180.77,-85.83"/>
</a>
</g>
</g>
<!-- Node13&#45;&gt;Node11 -->
<g id="edge13_Node000013_Node000011" class="edge">
<title>Node13&#45;&gt;Node11</title>
<g id="a_edge13_Node000013_Node000011"><a xlink:title=" ">
<path fill="none" stroke="#63b8ff" d="M264.36,-182.15C284.36,-171.49 317.74,-153.69 341.26,-141.16"/>
<polygon fill="#63b8ff" stroke="#63b8ff" points="342.77,-144.31 349.95,-136.52 339.48,-138.14 342.77,-144.31"/>
</a>
</g>
</g>
<!-- Node14 -->
<g id="Node000014" class="node">
<title>Node14</title>
<g id="a_Node000014"><a xlink:title=" ">
<polygon fill="#e0e0e0" stroke="#999999" points="338.78,-74.5 295.78,-74.5 295.78,-55.25 338.78,-55.25 338.78,-74.5"/>
<text text-anchor="middle" x="317.28" y="-61" font-family="Helvetica,sans-Serif" font-size="10.00">vector</text>
</a>
</g>
</g>
<!-- Node13&#45;&gt;Node14 -->
<g id="edge15_Node000013_Node000014" class="edge">
<title>Node13&#45;&gt;Node14</title>
<g id="a_edge15_Node000013_Node000014"><a xlink:title=" ">
<path fill="none" stroke="#63b8ff" d="M259.69,-182.29C271.38,-173.19 288.52,-158.04 298.28,-141 308.1,-123.87 312.9,-101.69 315.22,-85.88"/>
<polygon fill="#63b8ff" stroke="#63b8ff" points="318.65,-86.64 316.4,-76.29 311.7,-85.78 318.65,-86.64"/>
</a>
</g>
</g>
<!-- Node13&#45;&gt;Node15 -->
<g id="edge17_Node000013_Node000015" class="edge">
<title>Node13&#45;&gt;Node15</title>
<g id="a_edge17_Node000013_Node000015"><a xlink:title=" ">
<path fill="none" stroke="#63b8ff" d="M247.14,-182.28C247,-173.23 246.78,-158.95 246.6,-147.13"/>
<polygon fill="#63b8ff" stroke="#63b8ff" points="250.1,-147.1 246.44,-137.16 243.1,-147.21 250.1,-147.1"/>
</a>
</g>
</g>
<!-- Node15&#45;&gt;Node7 -->
<g id="edge18_Node000015_Node000007" class="edge">
<title>Node15&#45;&gt;Node7</title>
<g id="a_edge18_Node000015_Node000007"><a xlink:title=" ">
<path fill="none" stroke="#63b8ff" d="M235.5,-115.81C224.76,-106.9 208.03,-93.03 194.93,-82.17"/>
<polygon fill="#63b8ff" stroke="#63b8ff" points="197.26,-79.56 187.33,-75.87 192.79,-84.94 197.26,-79.56"/>
</a>
</g>
</g>
<!-- Node15&#45;&gt;Node8 -->
<g id="edge20_Node000015_Node000008" class="edge">
<title>Node15&#45;&gt;Node8</title>
<g id="a_edge20_Node000015_Node000008"><a xlink:title=" ">
<path fill="none" stroke="#63b8ff" d="M248.66,-115.75C253.19,-100.52 264.6,-69.91 286.28,-55.25 330.8,-25.14 489.64,-15.02 563.28,-11.9"/>
<polygon fill="#63b8ff" stroke="#63b8ff" points="562.98,-15.41 572.83,-11.52 562.7,-8.42 562.98,-15.41"/>
</a>
</g>
</g>
<!-- Node15&#45;&gt;Node14 -->
<g id="edge19_Node000015_Node000014" class="edge">
<title>Node15&#45;&gt;Node14</title>
<g id="a_edge19_Node000015_Node000014"><a xlink:title=" ">
<path fill="none" stroke="#63b8ff" d="M257.06,-115.81C267.8,-106.9 284.53,-93.03 297.63,-82.17"/>
<polygon fill="#63b8ff" stroke="#63b8ff" points="299.77,-84.94 305.23,-75.87 295.3,-79.56 299.77,-84.94"/>
</a>
</g>
</g>
<!-- Node17 -->
<g id="Node000017" class="node">
<title>Node17</title>
<g id="a_Node000017"><a xlink:title=" ">
<polygon fill="#e0e0e0" stroke="#999999" points="473.66,-135.38 408.91,-135.38 408.91,-116.12 473.66,-116.12 473.66,-135.38"/>
<text text-anchor="middle" x="441.28" y="-121.88" font-family="Helvetica,sans-Serif" font-size="10.00">sys/types.h</text>
</a>
</g>
</g>
<!-- Node16&#45;&gt;Node17 -->
<g id="edge22_Node000016_Node000017" class="edge">
<title>Node16&#45;&gt;Node17</title>
<g id="a_edge22_Node000016_Node000017"><a xlink:title=" ">
<path fill="none" stroke="#63b8ff" d="M449.03,-182.28C447.75,-173.14 445.73,-158.64 444.07,-146.75"/>
<polygon fill="#63b8ff" stroke="#63b8ff" points="447.58,-146.56 442.73,-137.14 440.65,-147.53 447.58,-146.56"/>
</a>
</g>
</g>
<!-- Node18 -->
<g id="Node000018" class="node">
<title>Node18</title>
<g id="a_Node000018"><a xlink:title=" ">
<polygon fill="#e0e0e0" stroke="#999999" points="541.16,-135.38 491.41,-135.38 491.41,-116.12 541.16,-116.12 541.16,-135.38"/>
<text text-anchor="middle" x="516.28" y="-121.88" font-family="Helvetica,sans-Serif" font-size="10.00">unistd.h</text>
</a>
</g>
</g>
<!-- Node16&#45;&gt;Node18 -->
<g id="edge23_Node000016_Node000018" class="edge">
<title>Node16&#45;&gt;Node18</title>
<g id="a_edge23_Node000016_Node000018"><a xlink:title=" ">
<path fill="none" stroke="#63b8ff" d="M459.46,-182.28C469.7,-172.27 486.51,-155.85 499.19,-143.45"/>
<polygon fill="#63b8ff" stroke="#63b8ff" points="501.39,-146.19 506.1,-136.7 496.5,-141.19 501.39,-146.19"/>
</a>
</g>
</g>
<!-- Node19 -->
<g id="Node000019" class="node">
<title>Node19</title>
<g id="a_Node000019"><a xlink:href="Context_8hpp.html" target="_top" xlink:title=" ">
<polygon fill="white" stroke="#666666" points="643.03,-135.38 559.53,-135.38 559.53,-116.12 643.03,-116.12 643.03,-135.38"/>
<text text-anchor="middle" x="601.28" y="-121.88" font-family="Helvetica,sans-Serif" font-size="10.00">ers/Context.hpp</text>
</a>
</g>
</g>
<!-- Node16&#45;&gt;Node19 -->
<g id="edge24_Node000016_Node000019" class="edge">
<title>Node16&#45;&gt;Node19</title>
<g id="a_edge24_Node000016_Node000019"><a xlink:title=" ">
<path fill="none" stroke="#63b8ff" d="M471.6,-182.15C497.11,-171.25 540.09,-152.89 569.52,-140.32"/>
<polygon fill="#63b8ff" stroke="#63b8ff" points="570.86,-143.55 578.68,-136.4 568.11,-137.11 570.86,-143.55"/>
</a>
</g>
</g>
<!-- Node19&#45;&gt;Node7 -->
<g id="edge25_Node000019_Node000007" class="edge">
<title>Node19&#45;&gt;Node7</title>
<g id="a_edge25_Node000019_Node000007"><a xlink:title=" ">
<path fill="none" stroke="#63b8ff" d="M571.8,-115.68C564.8,-113.76 557.32,-111.89 550.28,-110.5 424.61,-85.62 272.3,-72.72 207.24,-68.01"/>
<polygon fill="#63b8ff" stroke="#63b8ff" points="207.51,-64.52 197.29,-67.31 207.02,-71.5 207.51,-64.52"/>
</a>
</g>
</g>
<!-- Node19&#45;&gt;Node14 -->
<g id="edge26_Node000019_Node000014" class="edge">
<title>Node19&#45;&gt;Node14</title>
<g id="a_edge26_Node000019_Node000014"><a xlink:title=" ">
<path fill="none" stroke="#63b8ff" d="M570.37,-115.67C563.77,-113.85 556.81,-112.04 550.28,-110.5 479.62,-93.89 395.81,-79 350.45,-71.33"/>
<polygon fill="#63b8ff" stroke="#63b8ff" points="351.19,-67.91 340.75,-69.71 350.03,-74.81 351.19,-67.91"/>
</a>
</g>
</g>
<!-- Node20 -->
<g id="Node000020" class="node">
<title>Node20</title>
<g id="a_Node000020"><a xlink:href="ers_2include_2ers_2Configuration_8hpp.html" target="_top" xlink:title=" ">
<polygon fill="white" stroke="#666666" points="654.66,-74.5 547.91,-74.5 547.91,-55.25 654.66,-55.25 654.66,-74.5"/>
<text text-anchor="middle" x="601.28" y="-61" font-family="Helvetica,sans-Serif" font-size="10.00">ers/Configuration.hpp</text>
</a>
</g>
</g>
<!-- Node19&#45;&gt;Node20 -->
<g id="edge27_Node000019_Node000020" class="edge">
<title>Node19&#45;&gt;Node20</title>
<g id="a_edge27_Node000019_Node000020"><a xlink:title=" ">
<path fill="none" stroke="#63b8ff" d="M601.28,-115.81C601.28,-108.03 601.28,-96.45 601.28,-86.41"/>
<polygon fill="#63b8ff" stroke="#63b8ff" points="604.78,-86.41 601.28,-76.41 597.78,-86.41 604.78,-86.41"/>
</a>
</g>
</g>
<!-- Node20&#45;&gt;Node8 -->
<g id="edge28_Node000020_Node000008" class="edge">
<title>Node20&#45;&gt;Node8</title>
<g id="a_edge28_Node000020_Node000008"><a xlink:title=" ">
<path fill="none" stroke="#63b8ff" d="M601.28,-55.08C601.28,-48.57 601.28,-39.42 601.28,-31.12"/>
<polygon fill="#63b8ff" stroke="#63b8ff" points="604.78,-31.12 601.28,-21.12 597.78,-31.12 604.78,-31.12"/>
</a>
</g>
</g>
<!-- Node22 -->
<g id="Node000022" class="node">
<title>Node22</title>
<g id="a_Node000022"><a xlink:title=" ">
<polygon fill="#e0e0e0" stroke="#999999" points="1227.91,-141 1128.66,-141 1128.66,-110.5 1227.91,-110.5 1227.91,-141"/>
<text text-anchor="start" x="1136.66" y="-127.5" font-family="Helvetica,sans-Serif" font-size="10.00">boost/preprocessor</text>
<text text-anchor="middle" x="1178.28" y="-116.25" font-family="Helvetica,sans-Serif" font-size="10.00">/if.hpp</text>
</a>
</g>
</g>
<!-- Node21&#45;&gt;Node22 -->
<g id="edge31_Node000021_Node000022" class="edge">
<title>Node21&#45;&gt;Node22</title>
<g id="a_edge31_Node000021_Node000022"><a xlink:title=" ">
<path fill="none" stroke="#63b8ff" d="M897.48,-178.54C900.46,-178.02 903.4,-177.5 906.28,-177 997.77,-161.05 1023.91,-160.54 1117.25,-141.55"/>
<polygon fill="#63b8ff" stroke="#63b8ff" points="1117.77,-145.01 1126.87,-139.57 1116.37,-138.16 1117.77,-145.01"/>
</a>
</g>
</g>
<!-- Node23 -->
<g id="Node000023" class="node">
<title>Node23</title>
<g id="a_Node000023"><a xlink:title=" ">
<polygon fill="#e0e0e0" stroke="#999999" points="1344.91,-141 1245.66,-141 1245.66,-110.5 1344.91,-110.5 1344.91,-141"/>
<text text-anchor="start" x="1253.66" y="-127.5" font-family="Helvetica,sans-Serif" font-size="10.00">boost/preprocessor</text>
<text text-anchor="middle" x="1295.28" y="-116.25" font-family="Helvetica,sans-Serif" font-size="10.00">/seq.hpp</text>
</a>
</g>
</g>
<!-- Node21&#45;&gt;Node23 -->
<g id="edge32_Node000021_Node000023" class="edge">
<title>Node21&#45;&gt;Node23</title>
<g id="a_edge32_Node000021_Node000023"><a xlink:title=" ">
<path fill="none" stroke="#63b8ff" d="M897.45,-178.33C900.43,-177.86 903.38,-177.42 906.28,-177 1049.17,-156.37 1089.59,-166.2 1234.32,-141.38"/>
<polygon fill="#63b8ff" stroke="#63b8ff" points="1234.64,-144.88 1243.89,-139.71 1233.44,-137.98 1234.64,-144.88"/>
</a>
</g>
</g>
<!-- Node24 -->
<g id="Node000024" class="node">
<title>Node24</title>
<g id="a_Node000024"><a xlink:title=" ">
<polygon fill="#e0e0e0" stroke="#999999" points="759.91,-141 660.66,-141 660.66,-110.5 759.91,-110.5 759.91,-141"/>
<text text-anchor="start" x="668.66" y="-127.5" font-family="Helvetica,sans-Serif" font-size="10.00">boost/preprocessor</text>
<text text-anchor="middle" x="710.28" y="-116.25" font-family="Helvetica,sans-Serif" font-size="10.00">/tuple.hpp</text>
</a>
</g>
</g>
<!-- Node21&#45;&gt;Node24 -->
<g id="edge33_Node000021_Node000024" class="edge">
<title>Node21&#45;&gt;Node24</title>
<g id="a_edge33_Node000021_Node000024"><a xlink:title=" ">
<path fill="none" stroke="#63b8ff" d="M800.73,-176.61C784.73,-167.79 764.12,-156.43 746.61,-146.78"/>
<polygon fill="#63b8ff" stroke="#63b8ff" points="748.5,-143.82 738.05,-142.06 745.12,-149.95 748.5,-143.82"/>
</a>
</g>
</g>
<!-- Node25 -->
<g id="Node000025" class="node">
<title>Node25</title>
<g id="a_Node000025"><a xlink:title=" ">
<polygon fill="#e0e0e0" stroke="#999999" points="876.91,-141 777.66,-141 777.66,-110.5 876.91,-110.5 876.91,-141"/>
<text text-anchor="start" x="785.66" y="-127.5" font-family="Helvetica,sans-Serif" font-size="10.00">boost/preprocessor</text>
<text text-anchor="middle" x="827.28" y="-116.25" font-family="Helvetica,sans-Serif" font-size="10.00">/logical.hpp</text>
</a>
</g>
</g>
<!-- Node21&#45;&gt;Node25 -->
<g id="edge34_Node000021_Node000025" class="edge">
<title>Node21&#45;&gt;Node25</title>
<g id="a_edge34_Node000021_Node000025"><a xlink:title=" ">
<path fill="none" stroke="#63b8ff" d="M827.28,-176.61C827.28,-169.52 827.28,-160.79 827.28,-152.63"/>
<polygon fill="#63b8ff" stroke="#63b8ff" points="830.78,-152.84 827.28,-142.84 823.78,-152.84 830.78,-152.84"/>
</a>
</g>
</g>
<!-- Node26 -->
<g id="Node000026" class="node">
<title>Node26</title>
<g id="a_Node000026"><a xlink:title=" ">
<polygon fill="#e0e0e0" stroke="#999999" points="993.91,-141 894.66,-141 894.66,-110.5 993.91,-110.5 993.91,-141"/>
<text text-anchor="start" x="902.66" y="-127.5" font-family="Helvetica,sans-Serif" font-size="10.00">boost/preprocessor</text>
<text text-anchor="middle" x="944.28" y="-116.25" font-family="Helvetica,sans-Serif" font-size="10.00">/stringize.hpp</text>
</a>
</g>
</g>
<!-- Node21&#45;&gt;Node26 -->
<g id="edge35_Node000021_Node000026" class="edge">
<title>Node21&#45;&gt;Node26</title>
<g id="a_edge35_Node000021_Node000026"><a xlink:title=" ">
<path fill="none" stroke="#63b8ff" d="M853.83,-176.61C869.84,-167.79 890.45,-156.43 907.95,-146.78"/>
<polygon fill="#63b8ff" stroke="#63b8ff" points="909.44,-149.95 916.51,-142.06 906.06,-143.82 909.44,-149.95"/>
</a>
</g>
</g>
<!-- Node27 -->
<g id="Node000027" class="node">
<title>Node27</title>
<g id="a_Node000027"><a xlink:title=" ">
<polygon fill="#e0e0e0" stroke="#999999" points="1110.91,-141 1011.66,-141 1011.66,-110.5 1110.91,-110.5 1110.91,-141"/>
<text text-anchor="start" x="1019.66" y="-127.5" font-family="Helvetica,sans-Serif" font-size="10.00">boost/preprocessor</text>
<text text-anchor="middle" x="1061.28" y="-116.25" font-family="Helvetica,sans-Serif" font-size="10.00">/comparison.hpp</text>
</a>
</g>
</g>
<!-- Node21&#45;&gt;Node27 -->
<g id="edge36_Node000021_Node000027" class="edge">
<title>Node21&#45;&gt;Node27</title>
<g id="a_edge36_Node000021_Node000027"><a xlink:title=" ">
<path fill="none" stroke="#63b8ff" d="M880.67,-176.53C916.4,-166.69 963.49,-153.7 1000.63,-143.47"/>
<polygon fill="#63b8ff" stroke="#63b8ff" points="1001.15,-146.95 1009.86,-140.92 999.29,-140.21 1001.15,-146.95"/>
</a>
</g>
</g>
</g>
</svg>
